<svg xmlns="http://www.w3.org/2000/svg"><symbol id="𰀀_B" viewBox="0 0 1000 1000" data-size="21"><path transform="matrix(1 0 0 -1 65 927)" d="M413 766H107c-27-1-51-3-71-7-6-2-9 0-10 6-3 11-10 21-19 30-6 4-7 8-4 11 2 2 6 1 10-1 25-6 52-9 82-9h638c9 1 19 7 29 18l26 37c4 5 10 5 15 0 47-41 69-67 69-77-2-5-6-8-15-8H460V102c68 28 183 81 345 159 8 6 15 6 21 0 1-9-2-16-11-20C615 127 482 48 415 4c-7-4-12-4-15 0-10 16-24 28-42 38-6 4-10 7-10 10 0 2 3 4 9 5 23 6 38 11 44 17 8 8 12 17 12 28v664Z"/></symbol><symbol id="𰀁_B" viewBox="0 0 1000 1000" data-size="21"><path transform="matrix(1 0 0 -1 53 959)" d="M479 638V404h278c9 1 18 7 29 19l25 36c5 6 10 6 16 0 46-41 69-66 68-76-1-5-6-8-14-9H479V236c0-76 1-141 4-192-1-6-16-19-45-38-9-6-13-2-13 12 5 86 7 159 7 218v138H107c-27-1-51-3-71-7-6-2-9 0-10 6-3 12-10 22-19 30-6 5-7 8-4 11 2 2 6 2 10-1 25-6 52-9 82-9h337v234H175c-27-1-51-3-71-7-6-2-9 0-10 6-3 11-9 22-19 30-5 5-7 8-4 11 3 2 6 1 11-1 24-6 52-9 82-9h268v114c0 52-2 94-5 125-1 11 2 16 10 13 35-11 59-20 70-26 10-5 9-10-1-16-11-5-17-11-20-18-5-12-7-38-7-78V668h209c9 1 19 7 29 19l26 36c4 6 10 6 15 0 47-41 69-67 69-77-1-5-6-8-15-8H479Z"/></symbol><symbol id="𰀂_U" viewBox="0 0 1000 1000" data-size="23"><path transform="matrix(1 0 0 -1 126 847)" d="M558 651c5 0 11 3 17 9l27 31c2 2 4 3 6 3s5-2 10-5l12-13c5-7 9-12 11-15l7-10c5-7 7-12 7-17 0-3-2-5-5-6l-10-3H186V359h469c4 0 7 2 10 6l30 33c2 2 4 3 6 3 1 0 4-2 9-5l13-13 12-14 7-10c3-5 5-10 5-13 0-7-5-11-16-12H186V61h394c8 0 14 3 19 9l29 34c2 2 4 3 7 3 2 0 5-2 9-6l13-13 12-15c3-5 6-9 8-11 5-7 7-13 7-19 0-4-5-7-14-8H199c-9-7-16-14-21-23-5-8-9-12-13-12-3 0-6 2-10 7-3 3-8 8-13 15l-10 13c-3 3-4 4-4 3 0 3 1 5 3 7 3 3 5 4 6 5 2 1 4 3 6 6 2 2 3 5 3 9v269H88c-13 0-24-1-33-4-11-3-21-4-30-3l-4 6c-1 1-4 5-8 12l-9 13-4 6c0 2 1 3 4 3s4 0 5-1c18-5 41-7 69-7h68v242c0 15-1 29-3 41s-3 23-3 33c0 5 2 8 5 8s9-4 19-12c8-7 16-14 25-20h369Z"/></symbol><symbol id="𰀃_G" viewBox="0 0 1000 1000" data-size="21"><path transform="matrix(1 0 0 -1 63 960)" d="M0 865h737l44 55 85-59c13-10 9-15-12-15H78c-18 0-34-5-47-13L0 865m797-229V131c1-41-3-70-12-88s-32-31-68-39c-4 34-44 58-121 69l2 16c71-15 115-22 131-21 15 2 23 18 23 49v532H124V132l4-87c-1-25-20-40-56-45 4 25 6 85 7 178v488c-3 18-9 32-19 40l14 11 44-48h618l30 40 50-42c12-8 12-14 0-19l-19-12Z"/></symbol><symbol id="𰀄_S" viewBox="0 0 1000 1000" data-size="21"><path transform="matrix(1 0 0 -1 82 937)" d="M792 821v-21H63V452h583l52 53 63-53v-20H63V89h658l52 53 64-53V68H63V31L0 0v853l63-32h614l52 53 63-53Z"/></symbol><symbol id="𰀅_G" viewBox="0 0 1000 1000" data-size="21"><path transform="matrix(1 0 0 -1 20 947)" d="M0 32h824l45 57 84-64c12-9 8-14-13-12H77c-17 1-33-3-46-13L0 32m350 863 83-21c7-2 9-5 5-9-10-4-18-9-26-15-1-49-4-99-8-151h244l29 35 50-44c3-4 0-7-8-9l-17-12-16-453c-1-22 28-32 87-31 38 0 62 3 73 9 11 7 17 32 19 73l6 75h13l2-71c0-38 8-61 23-70-10-22-22-36-36-42-14-4-31-8-50-10-20-2-42-2-66-2-24 1-48 4-71 9-23 7-38 25-43 56l19 468H402c-4-50-8-101-14-153-3-19-6-37-9-54 5-4 10-8 16-12 44-37 74-70 90-101 14-29 14-50 0-63-17-14-31-5-42 25-15 29-38 63-70 103-1 2-3 4-5 6-21-68-52-125-93-170-52-61-131-114-237-157l-3 13c103 56 185 126 245 213 20 32 37 77 51 135-31 27-70 55-119 84l4 14c46-20 87-41 123-63 10 51 17 111 22 180H153c-13 0-25-2-35-7l-22 26h266c3 48 5 100 5 156 0 11-8 21-23 31l6 9Z"/></symbol><symbol id="𰀆_B" viewBox="0 0 1000 1000" data-size="21"><path transform="matrix(1 0 0 -1 53 861)" d="M686 664c9 1 19 7 29 19l26 36c4 6 10 6 16 0 46-41 69-67 68-76-1-6-6-9-15-9H181c-27-1-51-3-71-7-6-2-9 0-10 6-3 12-10 22-19 30-5 5-7 8-4 11 2 2 6 1 11-1 24-6 52-9 82-9h516M203 521c-2 6-1 11 4 13 6 3 11 1 15-8 97-145 147-254 149-326 1-22-3-39-14-52-10-12-18-20-26-24-6-5-11-6-16-3-4 3-5 9-5 18 9 92-27 219-107 382M757 39c9 1 18 7 29 19l25 36c5 6 10 6 16 0 46-41 69-67 68-76-1-6-6-9-14-9H107C80 8 56 6 36 2c-6-2-9 0-10 6-3 12-10 22-19 30-6 5-7 8-4 11 2 2 6 1 10-1 25-6 52-9 82-9h371c2 3 3 5 3 8 73 169 119 337 138 504 2 10 4 15 7 17s10-1 21-7c41-26 62-43 62-51-1-5-4-7-10-8-19-7-36-40-53-100-39-127-87-248-142-363h265Z"/></symbol><symbol id="𰀇_G" viewBox="0 0 1000 1000" data-size="21"><path transform="matrix(1 0 0 -1 14 945)" d="M902 507V357c-2-117-10-193-23-229-11-37-26-65-47-84S773 10 720 0c-3 31-17 48-42 52-12 4-38 13-79 26l3 16c69-15 111-22 126-23 13-1 29 1 50 6 20 5 37 22 52 49s24 97 26 210v182H616l-29-39-55 41c14 7 23 18 29 32l56 270h-69c-16 1-30-3-40-12l-30 32h385l36 49 66-57c12-9 9-13-11-12H667l-62-285h238l27 40 50-39c11-8 11-14 0-18l-18-13m-480 0V357c-4-117-12-193-25-229-10-37-26-65-46-84S296 10 244 0c-2 31-16 48-41 52-14 4-42 13-85 26l4 16c69-15 111-22 125-23 13-1 30 1 50 6s37 22 52 49 24 97 27 210v182H142l-30-39-51 41c13 7 23 18 28 32l56 270H69c-15 1-28-3-39-12L0 842h357l37 49 65-57c12-9 9-13-11-12H191l-60-285h231l33 40 43-39c12-8 12-14 0-18l-16-13Z"/></symbol><symbol id="𰀈_U" viewBox="0 0 1000 1000" data-size="23"><path transform="matrix(1 0 0 -1 119 894)" d="M404 182c43 48 116 112 220 191H89c-15-1-26-3-34-4-11-2-21-3-30-3-1 0-2 2-5 7-2 3-4 5-5 7-1 3-2 5-3 7l-8 13-4 4c0 2 2 3 5 3 2 0 4-1 5-2 18-5 41-7 69-7h277v123H188c-13 0-24-1-34-3-11-2-21-3-29-3-1 0-2 2-5 7l-9 14-9 13-4 4c0 2 2 3 5 3l6-2c18-5 41-7 69-7h178v110H121l-34-3c-11-2-21-3-29-3-1 0-2 2-5 7l-8 13-8 13-4 4c0 2 1 3 4 3s5-1 6-2c21-4 44-6 69-6h244v36c0 8-1 19-2 32-2 11-3 20-2 28 0 5 2 8 6 8h2c28-10 44-16 47-17 11-5 16-8 16-11 0-1-1-3-4-5l-10-9-9-11c-3-5-5-10-5-15v-36h207c7 0 15 5 24 15l21 30c3 3 5 4 6 4 2 0 5-1 8-4 38-34 57-55 57-64-1-5-5-7-12-7H395V547h161c9 1 16 5 23 13l20 29c3 3 5 4 7 4 1 0 2-1 5-4 37-34 55-54 55-60-1-5-5-7-12-8H395V398h249c8 1 16 6 25 15l21 31c3 3 5 4 6 4s4-1 7-4c39-35 58-56 58-65 0-5-4-8-12-8-3 0-6 0-8 1h-19c-5 0-11-1-17-4-4-2-14-7-29-16-9-6-26-18-51-35-27-19-53-39-79-60-39-30-77-61-116-93 20-11 42-24 66-40 16-11 29-22 40-33 10-10 17-19 21-27 3-10 5-18 5-25 0-11-2-20-5-28-3-7-7-11-12-11-4 0-7 3-10 10-45 71-139 141-282 212-3 1-5 4-5 7 0 6 2 9 6 9l8-2 81-29 61-25Z"/></symbol><symbol id="𰀉_U" viewBox="0 0 1000 1000" data-size="23"><path transform="matrix(1 0 0 -1 119 890)" d="M703 684c39-34 58-55 58-64-1-4-5-6-13-6H396c-1-21-1-60-1-115v-14h224c7 0 12 2 16 6l20 21c1 2 3 3 5 3 5 0 10-2 15-7l18-14 14-14c1-2 2-4 3-5s2-1 2 0c0-1-2-3-5-4l-11-5c-4-2-8-5-11-8s-5-7-5-12v-42c0-33 1-64 3-93l4-85c0-5-3-11-9-16-5-4-11-8-19-11-11-5-16-7-17-7l-4-2c-2 1-3 4-3 8 0 1 0 2 1 3v3l3 54H395v-64c0-63 1-117 3-160 0-5-1-8-4-10L360 2c-1-1-3-2-6-2s-4 3-4 8c-1 37 0 71 3 102 2 31 3 59 3 84v64H115v-21c0-9 0-15 1-19l-3-6c-1-3-4-7-8-12-3-5-7-9-13-12-5-4-10-6-17-6-3 1-4 4-4 11v5l6 240-4 31c-2 12-3 25-3 38 0 1 1 2 2 3 1 0 11-8 32-25h252v14l-2 115H89c-15-1-26-3-34-4-11-2-21-3-30-3-1 0-2 2-5 7-2 3-4 5-5 7-1 3-2 5-3 7l-8 13-4 4c0 2 2 3 5 3l5-2c18-5 41-7 69-7h275l-1 49-2 83c0 5 2 8 6 8h3c24-7 40-13 47-16 11-5 17-9 17-12 0-1-1-2-3-4l-8-6-8-7-5-5c-1-6-3-36-4-90h248c8 1 16 6 25 15l21 30c3 3 5 4 6 4s4-1 7-4M356 460H116v-52c0-36 0-61-1-74l-1-28 1-22h241v176m39 0V284h245v27c0 12 0 21 1 27v122H395m244-271c-1 0-2 0-1 1 0-1 0-1 1-1Z"/></symbol><symbol id="𰀊_S" viewBox="0 0 1000 1000" data-size="21"><path transform="matrix(1 0 0 -1 49 959)" d="M291 389h350l31 25 57-47-26-15-1-1-1-31-4-52-6-47-7-43-11-38-12-35-15-28-19-25-22-19-26-13-21-7-23-6-22-4-24-2-22-1v31L362 47v16h105l28 1 9 1 18 3 9 2 19 6 8 3 11 6 12 10 11 15 11 21 10 27 9 32 7 39 6 44 3 50 2 44H287l-1-6-68-18 39 202H0v20h131v273l63-31h226v111l62-11 16-11-16-8v-81h226l32 26 58-47-27-21V565h16l53 53 62-53v-20H321l-30-156m-97 397V565h67v1h65l-1-1h95v221H194m288 0V565h226v221H482Z"/></symbol><symbol id="𰀋_G" viewBox="0 0 1000 1000" data-size="21"><path transform="matrix(1 0 0 -1 24 955)" d="m116 901 96-34c7-4 7-7 0-10-12-4-23-12-32-24V662h46l33 40 56-49c6-5 3-8-8-10H180V120c0-41 7-65 22-72 15-6 72-9 171-8 98 0 203 2 315 4 112 3 176 6 192 10 14 8 21 37 22 89l5 92h17l2-88c1-44 10-71 26-81-10-27-24-44-42-50-17-4-78-7-181-10-102-2-193-4-271-5-137-1-221 0-252 3-47 3-71 26-71 69v570H68c-17 1-30-3-39-14L0 662h135v199c-4 9-13 18-27 27l8 13m658 10 90-35c9-4 11-7 6-10-14-6-24-13-30-21V244l4-95c0-14-5-24-15-31-10-5-23-10-41-14 3 26 5 88 7 186v565c1 10-9 25-29 45l8 11m-436-13 77-28c14-5 16-10 8-14-9-4-18-9-26-14V606c2-129-7-234-28-314-21-79-67-149-138-210l-7 12c47 59 81 125 100 198 20 73 29 175 29 308v254c-4 12-11 23-23 33l8 11m294-60 85-36c9-4 11-7 6-11-14-6-24-12-30-20V324l3-95c0-14-4-25-12-30-9-8-22-12-38-15 2 25 4 87 6 186v411c2 9-8 24-29 45l9 12m-149 0 85-36c9-4 11-7 6-11-13-6-23-12-29-20V324l3-95c0-14-4-25-13-30-8-8-21-12-38-15 3 25 5 87 7 186v411c1 9-9 24-29 45l8 12Z"/></symbol><symbol id="𰀌_G" viewBox="0 0 1000 1000" data-size="21"><path transform="matrix(1 0 0 -1 70 949)" d="M661 708H179V555h482v153m-536 69 45-48h473l38 40 51-49c12-9 10-16-6-19l-20-11v-90l6-66c-1-17-6-27-15-30-8-5-20-9-36-12v42H447V396h271l34 43 54-45c13-11 13-18 0-22l-22-14V244c1-39-2-69-12-91-9-19-35-32-77-39-2 22-14 37-37 47-25 9-58 17-100 27l3 17c81-16 131-24 149-22 19 1 29 18 29 51v139H447V105l2-58c0-14-5-24-15-31-8-6-20-11-38-16 4 26 6 78 7 155v218H110V221l5-65c0-14-6-25-17-32-10-6-24-12-41-16 3 26 6 80 8 161v127c0 12-6 24-17 36l12 11 45-47h299v138H179v-9c0-16-5-27-17-32-9-7-21-12-36-15 3 26 5 65 7 117v127c-5 16-11 31-20 44l12 11m-48 58c-17 1-33-3-46-12L0 854h747l31 43 75-49c12-9 8-13-13-13H77Z"/></symbol><symbol id="𰀍_G" viewBox="0 0 1000 1000" data-size="21"><path transform="matrix(1 0 0 -1 21 940)" d="M274 541c33-14 61-34 85-60 24-27 40-51 49-71 8-21 11-39 9-53-3-15-10-22-21-22-12-1-20 10-23 33-4 23-14 50-29 81-17 31-41 59-73 82l3 10m-97 75 11-5c23 69 39 136 47 203H107c-17 0-32-4-44-12l-33 32h320l25 33 61-43c9-6 7-10-6-10H280c-8-71-25-143-52-218l36-15c9-4 11-7 6-11-14-6-24-12-30-20V104l2-56c0-14-4-24-13-29-9-6-22-11-39-14 3 24 5 72 7 144v372C152 419 88 334 6 267l-6 13c77 90 133 181 168 273 5 12 9 24 14 37l-14 14 9 12m279 216h346l40 49 72-55c14-11 11-15-11-13H765V525h70l36 48 78-54c13-7 11-11-6-13H765V88c-1-24-7-41-18-54-10-12-38-23-82-34-2 20-10 34-25 42-16 8-44 17-85 26l4 18 41-10c43-9 73-11 91-6 18 6 27 23 29 51v385h-17c-32-85-64-149-96-192-33-44-71-86-114-126-43-39-104-81-182-124l-10 14c72 49 125 90 158 123s67 73 102 120c31 44 61 105 88 185H507l-28-39-49 36c15 15 24 27 28 35l51 153c-1 13-5 22-13 27l4 10 66-30c12-6 14-10 7-12-11-2-19-7-25-14l-50-147h222v288H533c-17 0-32-5-44-13l-33 32Z"/></symbol><symbol id="𰀎_G" viewBox="0 0 1000 1000" data-size="21"><path transform="matrix(1 0 0 -1 27 950)" d="M437 544v305c1 10-7 24-25 41l8 10 80-33c9-3 11-7 6-11-11-3-19-9-27-17V731h260l36 45 69-50c14-11 10-15-11-14H479V544h353l36 45 69-51c14-10 10-15-11-14H104c-18 1-33-3-44-12l-34 32h411M635 35v407c1 11-7 24-25 41l8 11 80-33c9-3 11-7 6-11-10-3-19-9-26-17V293h134l27 35 62-45c11-8 9-11-5-10H678V35h151l36 45 71-51c14-10 10-15-11-13H488c-17 0-32-4-44-13l-33 32h224m-167 88 3-14-225-43C161 51 109 39 88 32S52 14 42 0L0 61l197 26v347c2 10-7 24-24 41l8 10 80-33c9-3 11-7 6-11-11-3-20-9-27-17V306h122l28 35 62-45c11-8 9-11-6-10H240V93l228 30Z"/></symbol><symbol id="𰀏_G" viewBox="0 0 1000 1000" data-size="21"><path transform="matrix(1 0 0 -1 18 960)" d="m864 477 51-49c8-7 8-12 0-16-14 4-27 1-40-8-14-9-30-22-50-38-18-15-54-40-108-76l34-51c20-25 41-50 65-75 25-22 49-39 71-51 21-10 47-17 78-21V73c-20 1-35 0-46-3-11-2-22-10-31-24-34 17-68 46-104 87-37 39-74 93-110 161-35 64-63 137-84 217h-59V88c47 37 100 77 157 121l6-13-62-59c-54-49-85-79-95-90-10-10-17-25-23-44l-53 59c9 3 18 12 25 24v762c-2 13-9 33-23 57l13 11 42-42h253l33 43 46-52c7-8 5-14-6-18l-17-10V592l5-85c-1-14-5-24-12-28-9-5-21-10-37-12v44H613c20-60 42-113 68-158 9-17 18-33 26-46 57 47 96 82 115 103 20 22 31 36 32 43 2 6 2 13 0 22l10 2M244 76C158 52 105 35 84 26 64 19 51 10 46 0L0 46l194 44v778c2 10-7 24-26 41l8 11 86-33c9-4 11-8 6-11-13-4-23-10-29-18V552h107l28 40 70-47c10-8 6-12-12-13H239V100l205 46 3-16-203-54m539 778H531V700h252v154M531 681V530h252v151H531Z"/></symbol><symbol id="𰀐_G" viewBox="0 0 1000 1000" data-size="21"><path transform="matrix(1 0 0 -1 41 956)" d="m198 813 84-34c9-3 11-7 6-10-11-4-20-10-28-18V628h60l34 41 59-47c14-10 11-15-11-14H260V432h106l30 43 59-49c14-11 11-16-11-14H317V148c0-37 6-60 17-68s29-14 55-16c57-5 133-6 227-4 94 1 155 3 183 7 38 1 58 15 60 41 5 26 8 67 10 122h15l2-81c1-39 12-62 32-68-11-27-29-42-54-47-24-5-62-9-115-11-48-2-114-2-196-2-84 0-154 3-212 7-51 10-74 49-69 118v266h-79c-2-101-17-183-43-244S81 51 21 0l-9 10c49 59 85 118 106 176s32 134 33 226H77c-17 1-32-3-44-13L0 432h217v176H115c-15-37-40-79-75-124l-12 8c37 72 59 134 68 184 6 28 7 44 5 48s-7 11-13 21l8 10 79-26c2-6-1-10-7-14-8 0-16-4-24-15-6-24-13-48-22-72h95v133c1 10-8 24-27 41l8 11m422-51c-1 12-5 24-15 35l9 8 88-51c8-8 9-14 2-18-11 1-21-3-31-10-7-10-25-52-54-128-22-57-47-120-76-189-28-68-53-126-76-175l287 31c-4 10-9 20-14 29-18 34-47 76-88 125l14 9c46-38 79-72 102-101 18-27 33-53 44-79 9-25 14-48 13-69-2-22-10-34-24-35-13-1-22 15-27 48-2 16-5 32-9 47-166-21-253-33-263-36-27-1-49-15-66-41l-36 63c20 4 33 15 39 32 32 60 66 139 103 237 36 98 62 188 78 268M23 856h734l44 55 85-58c13-11 9-16-13-16H102c-19 0-34-4-47-13l-32 32Z"/></symbol><symbol id="𰀑_G" viewBox="0 0 1000 1000" data-size="21"><path transform="matrix(1 0 0 -1 14 981)" d="M505 697h275v209c-1 15-9 30-25 45l8 11 86-37c13-6 15-11 6-14-11-4-21-9-30-15V697h43l32 39 67-48c9-7 7-10-6-10H825V88c0-24-6-41-17-54-11-12-38-23-82-34-3 20-11 34-26 42-15 7-44 17-85 28l4 16 41-10c43-9 74-11 92-6 18 6 27 23 28 52v500c-34-86-76-161-127-226-65-83-132-146-203-190l-12 10c57 47 115 111 173 190 55 75 102 166 141 272H582c-18 0-32-4-44-13l-33 32M320 282c109-69 169-138 179-208 3-30-3-48-20-53-16-6-26 7-29 37-2 15-6 32-12 51-56-7-126-15-209-24-69-10-112-17-131-22-19-6-34-17-47-33L9 102c16 0 31 4 44 12 51 69 97 151 139 245 2 9 0 19-4 32l6 6 73-43c7-5 6-9-2-11-11 2-21 0-30-6-45-74-96-153-155-235 134 11 250 20 349 28-3 6-6 15-11 24-19 35-54 74-105 117l7 11m91 656 58-58c11-14 11-21 0-22-22 6-46 7-73 4-44-8-85-15-121-19V645h135l28 39 53-48c11-9 9-14-6-15H275V430h182l31 41 55-54c10-9 8-13-6-12H75c-17 1-31-3-42-12L0 430h232v193H115c-17 1-31-4-43-14l-35 36h195v192h-3c-47-6-110-11-189-14l-2 15 94 12c104 18 170 32 199 40 29 6 47 12 54 17 7 7 12 16 15 29l11 2Z"/></symbol><symbol id="𰀒_B" viewBox="0 0 1000 1000" data-size="21"><path transform="matrix(1 0 0 -1 57 968)" d="M588 660c25-14 41-30 48-48 5-11 6-23 2-36-3-9-7-15-14-17-6-1-12 4-17 14-24 20-52 42-84 65-26 19-55 37-88 53-25-44-54-74-88-91-40-21-89-38-146-50-13-3-21-1-21 9-1 9 5 16 17 21 54 16 95 32 123 47 37 20 62 47 75 83 4 13 7 25 7 36H148V483c0-6-3-11-7-13-24-11-39-16-43-16-3 0-4 7-3 19 2 46 5 84 7 114v132c-1 21-3 47-7 77-2 6-1 10 1 10 2 2 7-1 13-7 7-7 15-14 26-23h272c2 12 3 24 3 36v35H92c-18 0-38-2-60-7-3 0-5 0-6 2-8 13-16 25-22 36-4 6-2 8 7 6 39-3 62-6 66-6h673c8 0 13 1 16 4s7 8 13 14l26 36c4 6 9 6 15 0 20-18 40-37 60-57 6-7 9-13 9-19-2-5-7-8-15-9H457v-35c-1-12-1-24-2-36h251c6 0 9 0 10 1l24 32c2 3 3 4 6 4s5-1 8-4c20-16 38-32 54-49 4-5 4-9 0-11-22-11-34-17-36-20-1-3-2-6-2-9V538c0-23-7-42-19-56-13-16-28-26-44-32-7-3-12-4-15-1-9 15-26 28-49 40-19 9-48 17-87 23-7 2-10 6-9 12 0 6 4 9 13 9 25-1 56-3 91-6 36-2 56-1 63 4 6 2 9 9 9 20v195H450c-1-14-4-27-9-38 60-17 109-33 147-48m0-446c25-14 41-30 48-48 5-11 6-23 2-36-3-10-7-15-14-17-6-1-12 3-17 14-24 20-52 42-84 65-26 19-55 37-88 53-25-44-54-74-88-91-40-22-89-38-146-50-13-4-21-1-21 9-1 9 5 16 17 20 54 17 95 32 123 47 37 21 62 48 75 83 4 13 7 25 7 36H148V37c0-7-3-11-7-13-24-11-39-17-43-17-3 1-4 8-3 20 2 46 5 83 7 113v133c-1 21-3 46-7 76-2 7-1 10 1 11s7-1 13-8c7-6 15-14 26-22h272c2 12 3 24 3 36v35H92c-18 0-38-2-60-7-3 0-5 0-6 2-8 13-16 25-22 35-4 7-2 9 7 7 39-4 62-6 66-7h673c8 0 13 2 16 4 3 3 7 8 13 15l26 36c4 6 9 6 15 0 20-18 40-37 60-58 6-6 9-12 9-18-2-5-7-8-15-9H457v-35c-1-12-1-24-2-36h251c6 0 9 0 10 1l24 32c2 3 3 4 6 4s5-1 8-4c20-16 38-33 54-49 4-6 4-10 0-12-22-10-34-17-36-19-1-3-2-6-2-9V91c0-22-7-41-19-55-13-16-28-27-44-32-7-4-12-4-15-1-9 15-26 28-49 40-19 9-48 17-87 23-7 1-10 5-9 12 0 6 4 9 13 9 25-2 56-4 91-6 36-2 56-1 63 4 6 2 9 8 9 20v194H450c-1-13-4-26-9-38 60-16 109-32 147-47Z"/></symbol><symbol id="𰀓_G" viewBox="0 0 1000 1000" data-size="21"><path transform="matrix(1 0 0 -1 29 952)" d="M0 849h772l44 54 85-58c13-11 9-16-12-16H78c-18 0-34-4-47-13L0 849m68-70 38-49h266l28 38 48-44c9-8 7-13-6-16l-16-9V488l4-102c2-25-12-38-42-39v51H271V280h96l27 36 55-44c10-6 8-9-5-9H271V144l189 33 6-16-365-82c-17-5-33-16-47-33l-36 55 210 35v127H112c-16 0-30-4-41-12l-30 29h187v118H109v-23c2-24-13-38-44-42 3 23 5 74 6 151v246c-2 14-8 27-16 39l13 10m160-220H109V417h119v142m160 0H271V417h117v142M228 712H109V577h119v135m43-135h117v135H271V577m547 140c4-6 2-11-7-14l-22-14V117c1-38 6-59 16-61 9-4 22-5 39-5 17-2 29 1 38 9 8 5 14 35 15 88l1 84h16l3-76c2-48 10-77 25-86-13-33-29-51-47-54-19-4-42-5-68-3-27 0-45 6-56 15-11 11-18 35-22 72v609H586V608c1-181-12-313-40-398-27-80-86-150-179-210l-12 13c86 71 139 146 161 224 19 78 29 209 28 392v80c0 16-5 33-14 51l15 10 34-43h157l34 41 48-51Z"/></symbol><symbol id="𰀔_G" viewBox="0 0 1000 1000" data-size="21"><path transform="matrix(1 0 0 -1 16 977)" d="M56 903h733l44 50 85-54c13-9 9-14-13-13H134c-18 0-34-4-47-12l-31 29m126-55 41-50h494l34 45 51-49c9-9 7-15-6-19l-18-8V636l4-89c3-31-13-47-49-48v54H229v-5c0-32-17-50-51-54 3 27 5 69 7 124v176c-3 14-9 28-18 40l15 14m47-167h504v100H229V681m504-15H229v-97h504v97M128 491l37-31h590l32 31 45-32c10-9 9-15-2-17l-21-12v-70c4-98 14-165 32-200 17-36 36-61 55-76 20-16 32-4 37 37l16 90 16-2c-10-84-15-133-15-146 1-12 4-22 11-31 12-16 6-23-18-21-29 0-68 33-118 98-38 76-57 166-55 270v63H181v-43c2-92-8-172-31-239C128 93 80 40 8 0L0 11c65 52 106 107 122 164 16 56 22 133 20 230v34c-4 15-12 30-23 43l9 9m97-233h229v107c1 11-7 24-24 41l8 11 80-33c9-3 11-7 5-11-10-3-19-9-26-18v-97h136l25 33 61-39c11-7 9-10-6-10H497V75h231l27 35 53-39c11-8 9-11-6-11H219c-18 0-32-4-44-13l-33 28h312v167H302c-18 1-32-3-44-13l-33 29Z"/></symbol><symbol id="𰀕_G" viewBox="0 0 1000 1000" data-size="21"><path transform="matrix(1 0 0 -1 27 946)" d="M915 618V89c0-17-4-33-12-47-7-14-31-24-71-30-3 19-15 34-38 43-22 8-46 15-70 20l2 16c63-10 100-15 112-15 13 0 22 2 26 6 5 4 8 27 7 70v477H718c-1-14-2-29-2-43-2-33-6-65-11-94 49-32 85-65 108-96 49-79 57-125 27-141-14-5-23 6-27 31-5 26-15 54-30 87-13 28-41 62-82 101-8-43-21-80-39-113-29-55-66-102-112-140v-81l3-95c-2-25-19-40-54-45 3 25 5 87 6 185v461c-1 9-6 18-17 28l13 11 38-37h138c2 58 2 121 1 187H556c-17 1-32-4-43-13l-33 32h371l28 38 59-43c14-11 11-15-10-14H722c1-59 0-121-3-187h136l29 42 50-41c11-7 11-14 0-18l-19-13M201 834H74c-17 1-31-4-42-13L0 854h371l26 39 50-45c14-11 11-15-9-14H242c0-66-1-133-3-198h111l32 42 49-41c11-8 11-14 0-19l-19-13V103c0-15-3-29-11-41-7-13-30-26-68-38-5 24-19 39-41 47-20 7-44 14-70 20l2 13c63-11 101-16 113-16s21 2 26 6 6 27 5 69v453H238c-2-41-4-76-7-106 62-42 99-95 113-159 8-32 5-52-11-60s-26 2-31 30c-4 32-10 60-18 86-7 26-26 53-56 81-6-26-13-51-22-75-21-60-59-123-113-189l-5 5V66c-1-25-17-40-50-45 3 26 5 87 6 185v419c-1 16-7 31-18 47l15 14 40-50h120c2 49 2 115 0 198m349-205V243c68 70 109 179 123 326 1 19 2 39 3 60H550M88 616V248c39 55 67 113 85 172 17 60 27 126 28 196H88Z"/></symbol><symbol id="𰀖_G" viewBox="0 0 1000 1000" data-size="21"><path transform="matrix(1 0 0 -1 30 961)" d="m99 784 40-37h632l39 38 44-46c10-8 8-13-5-16l-18-9V168l3-128c-1-22-16-33-44-32v66H146V45c2-25-14-40-47-45 3 25 5 87 6 185v549c2 11-5 23-20 36l14 14m47-56V94h644v634H146m357-7 75-35c11-8 12-13 4-16-10-3-18-6-22-10-4-2-6-23-5-63v-5h153l20 30 48-37c11-8 9-11-5-11H556c0-88 16-173 47-255 12 21 23 42 33 64 21 44 31 70 32 77 2 6-1 14-10 25l6 10 63-40c11-6 13-11 7-15-16 0-29-6-39-18-22-54-47-100-74-141 1-2 3-3 4-5 30-46 57-76 80-90 10-8 20 3 27 32l22 82h13c-19-87-22-141-7-160 10-12 11-21 3-26-13-7-36 1-69 23-32 22-64 57-96 104l-4 4c-4-3-7-7-10-12-43-48-91-86-144-114l-7 10c46 34 86 74 121 118 8 11 15 22 22 31-12 26-22 55-30 87-14 50-22 113-25 188-1 7-1 14-1 21H239c-17 0-32-4-44-13l-33 31h357c-2 49-3 77-3 82 0 10-7 22-19 36l6 11M235 515l28-33h153l26 28 32-36c7-6 7-11 1-14l-17-15v-80l3-37c1-15-12-25-38-28v29H270c-1-19-5-32-11-37-7-7-17-12-31-15 3 36 5 66 6 89v105c2 8-2 18-10 31l11 13M0 868h804l44 55 85-59c13-10 8-15-13-15H78c-18 0-34-5-47-13L0 868m270-524h153v123H270V344m40-133c-66-9-102-23-110-44l-37 46 349 46 6-13-208-35m286 484 3 10c46-11 73-28 81-50 8-24 3-39-15-45-8 2-13 7-16 17-2 10-6 20-12 30-7 13-20 25-41 38Z"/></symbol><symbol id="𰀗_G" viewBox="0 0 1000 1000" data-size="21"><path transform="matrix(1 0 0 -1 27 958)" d="M437 32v236c1 10-7 24-25 41l8 10 80-33c9-3 11-7 6-11-11-3-19-9-27-17v-77h260l36 45 69-51c14-11 10-15-11-14H479V32h353l36 45 69-51c14-10 10-15-11-13H104C86 13 71 9 60 0L26 32h411m0 625v208c1 11-7 24-25 41l8 11 80-33c9-3 11-7 6-11-11-3-19-9-27-18v-71h260l36 45 69-51c14-10 10-15-11-13H479V657h353l36 45 69-51c14-10 10-15-11-13H104c-18 0-33-4-44-13l-34 32h411m31-264 3-14-225-43c-85-16-137-27-158-34s-36-18-46-32L0 330l197 26v207c2 10-7 24-24 41l8 10 80-33c9-3 11-7 6-11-11-3-20-9-27-17v-69h122l28 36 62-45c11-8 9-11-6-10H240V362l228 31m167-35v206c1 11-7 25-25 41l8 11 80-33c9-3 11-7 6-11-10-3-19-9-26-17v-73h134l27 36 62-45c11-8 9-11-5-10H678V358h151l36 45 71-50c14-11 10-15-11-14H514c-18 1-33-4-44-13l-33 32h198Z"/></symbol><symbol id="𰀘_G" viewBox="0 0 1000 1000" data-size="21"><path transform="matrix(1 0 0 -1 33 973)" d="m231 493 61-36c4-5 3-8-4-10-12 0-20-1-23-5-4-3-10-12-20-28-10-15-18-28-24-40h160l27 26 38-39c8-7 8-11 0-12-11-5-18-9-22-13-28-63-64-118-109-165 26-16 48-32 64-48 14-18 17-33 10-48-9-14-22-12-39 8-18 23-38 43-62 61C220 82 126 37 5 9L0 21c107 38 193 85 257 144-41 25-93 48-156 68 28 46 52 87 73 123H72c-16 0-27-4-33-14l-29 32h174c4 7 7 14 11 22 24 42 35 66 35 72 0 5-2 11-8 18l9 7M935 63l-1-16c-21 1-36 0-46-4-13-3-22-11-28-22-60 38-108 90-143 157-35 66-63 134-83 202-16-91-46-167-89-229C502 90 434 40 340 0l-10 14c104 60 176 135 217 225s60 205 58 344c-1 11-9 20-23 26l9 12 80-26c12-5 14-9 8-13-9-1-18-4-27-10-1-28-3-56-5-85-1-29-2-48-3-57 23-78 57-153 100-225 43-73 107-120 191-142M31 907h746l32 38 67-48c10-6 8-9-6-9H595c-43-39-84-73-125-100V673l5-59c0-14-5-24-14-30-10-7-24-12-40-15 3 25 5 59 7 103v90c-46-28-97-50-152-69-63-22-147-43-252-62l-3 15c85 22 150 42 195 58 44 15 97 39 158 71 17 10 34 19 50 29-3 8-8 16-14 24l12 11 21-22c32 22 61 45 89 71H109c-17 0-32-4-45-12l-33 31m105-663c54-15 102-34 145-55 44 47 78 102 104 167H211c-24-33-49-71-75-112m289 173-12 5 46 93H95c0-52-14-86-42-100-14-6-23-4-29 6-5 8-2 19 11 32 29 27 42 66 40 118h14c2-14 3-27 4-39h360l23 26 50-45c4-6 2-10-6-11-17 1-29-3-37-12l-58-73m129 347 4 13c71-12 128-26 170-42 41-17 74-33 97-49 24-17 38-32 41-45 3-15-1-24-12-28-10-5-25 3-44 25-20 21-50 42-89 64s-95 42-167 62M205 646l3 7c35-14 59-28 71-42 14-15 21-30 21-45s-7-23-20-24c-11 0-18 7-18 21-2 16-6 30-14 43-9 13-23 27-43 40Z"/></symbol><symbol id="𰀙_G" viewBox="0 0 1000 1000" data-size="21"><path transform="matrix(1 0 0 -1 27 979)" d="M553 957c43-18 75-32 93-42 19-12 32-24 40-36 7-14 9-26 7-38-1-13-7-20-18-21-12-2-20 6-25 23-5 16-13 31-25 44-11 13-37 32-78 57l6 13m-42-518V286h97v153h-97m371 0H781V286h101v153m-239 0V286h104v153H643M40 794h277l22 31 49-41c8-6 7-10-5-10H229V629c0-35-1-67-2-97h118l21 31 49-41c9-6 7-9-5-9H226c-2-26-4-49-6-71 30-20 58-45 82-73 27-33 45-62 53-87s11-46 9-62c-2-18-9-27-20-27-12-1-19 13-21 42-2 30-14 62-34 98-17 31-41 61-72 90-9-71-24-127-45-168C135 181 81 117 9 63L0 73c83 80 136 164 158 253 14 52 23 114 29 187H88c-16 0-29-5-39-13l-30 32h169c1 45 2 94 1 148v94h-80c-15 0-28-4-39-12l-30 32m806-11H474V633h372v150m72-357V122c1-39-3-66-11-82s-29-27-61-35c0 16-11 28-33 35-20 7-39 11-55 15l2 15c49-7 82-11 97-10 17 1 25 17 25 48v161H781v-82l2-56c0-14-4-24-12-29-7-6-17-11-31-14 3 24 5 72 7 144v37H643V169l2-56c0-13-4-23-12-29s-18-10-31-14c2 24 4 73 6 145v54h-97V99l4-42c0-14-4-24-12-31-7-5-19-10-35-14 2 25 5 69 7 133v306l-3 12c-7-201-68-355-185-463l-10 9c103 122 155 298 159 528v246c-4 16-13 32-26 50l8 10 47-40h364l33 40 44-48c9-8 7-13-6-17l-16-8v-94l4-59c0-15-2-26-8-31-6-6-17-10-34-12v39H474V510c0-6-1-12-1-17l1 1 28-35h364l30 33 41-35c11-8 11-15 0-19l-19-12Z"/></symbol><symbol id="𰀚_G" viewBox="0 0 1000 1000" data-size="21"><path transform="matrix(1 0 0 -1 38 964)" d="M39 889h745l31 39 68-49c10-7 8-10-6-10H602c-43-40-84-74-125-102V653l4-59c0-15-4-26-13-31-10-8-23-13-39-15 2 25 5 60 7 104v88c-47-28-97-52-152-70-63-23-147-44-252-65l-4 16c86 24 151 43 196 60 44 15 97 40 158 73 17 8 33 18 50 29-4 8-8 16-14 25l12 10 21-21c31 21 60 45 88 72H117c-17 0-32-4-45-13l-33 33m495-139 2 16c80-11 143-24 190-40 46-18 83-36 110-54 28-20 44-37 49-51 3-17-1-29-12-34-11-7-28 2-52 25-21 26-55 49-101 72-43 24-105 46-186 66m23-101 84-35c5-7 5-11-2-11-8-1-16-5-23-13-12-32-27-72-48-120h237l28 40 61-50c11-8 9-11-6-10h-82c-13-64-28-116-44-155-17-38-39-76-69-112 4-4 8-7 12-11 32-30 64-54 96-73 31-21 72-35 123-43l-1-15c-43 0-70-9-81-28-61 34-109 68-146 104l-32 35C578 78 475 27 355 0l-4 15c110 37 206 94 287 171-12 17-24 36-36 56-24 34-45 89-63 164-27-52-61-100-103-142l-13 8c40 60 71 118 94 174s37 95 42 117c9 41 6 67-8 77l6 9M247 123C159 94 106 75 89 64 66 52 51 39 45 26L0 88l94 25v238c1 10-7 24-25 41l8 10 76-33c9-3 11-7 6-11-10-3-19-9-26-17V124l103 27v341H97c-18 1-33-3-44-13l-33 33h361l29 39 65-49c11-8 9-11-6-10H279V347h75l29 37 56-47c11-9 9-12-5-10H279V162l200 54 3-20-235-73m312 327c-1-2-2-5-3-7 17-66 37-119 61-159 15-26 30-48 46-67 46 54 79 132 97 233H559Z"/></symbol><symbol id="𰀛_G" viewBox="0 0 1000 1000" data-size="21"><path transform="matrix(1 0 0 -1 16 977)" d="m541 829 35-39h234l24 30 38-32c8-7 6-12-5-15l-11-12V626l3-62c-1-22-14-32-40-32v36H584v-7c1-25-14-40-43-43 3 24 5 64 6 121v138c1 11-4 23-17 36l11 16m-438 0 35-39h232l25 30 38-32c7-7 6-12-5-15l-11-12V626l3-62c-1-22-15-32-40-32v36H146v-7c0-25-14-40-43-43 2 24 4 64 5 121v138c2 11-4 23-16 36l11 16m25-338 37-31h590l32 31 45-32c10-9 9-15-2-17l-21-12v-70c4-98 14-165 32-200 17-36 36-61 55-76 20-16 32-4 37 37l16 90 16-2c-10-84-15-133-15-146 1-12 4-22 11-31 12-16 6-23-18-21-29 0-68 33-118 98-38 76-57 166-55 270v63H181v-43c2-92-8-172-31-239C128 93 80 40 8 0L0 11c65 52 106 107 122 164 16 56 22 133 20 230v34c-4 15-12 30-23 43l9 9m97-233h229v107c1 11-7 24-24 41l8 11 80-33c9-3 11-7 5-11-10-3-19-9-26-18v-97h136l25 33 61-39c11-7 9-10-6-10H497V75h231l27 35 53-39c11-8 9-11-6-11H219c-18 0-32-4-44-13l-33 28h312v167H302c-18 1-32-3-44-13l-33 29m594 418H584v-92h235v92m-439 0H146v-92h234v92m204 98v-85h235v85H584m-438 0v-85h234v85H146M56 903h733l44 50 85-54c13-9 9-14-13-13H134c-18 0-34-4-47-12l-31 29Z"/></symbol><symbol id="𰀜_G" viewBox="0 0 1000 1000" data-size="21"><path transform="matrix(1 0 0 -1 28 960)" d="M681 694c4-4 3-6-1-8-11-2-23-8-34-17V289c15 31 29 61 42 90 55 135 92 241 112 319 19 78 28 120 26 128-2 7-7 17-14 28l7 6 78-39c12-5 14-9 8-11-13-4-26-11-40-24-42-164-93-312-151-443-20-41-42-82-68-122v-58c0-43 4-67 13-72 10-6 22-10 35-11 50-3 88-3 112-1 9 1 18 3 26 5 8 3 13 10 15 20 2 9 4 23 6 41 1 16 2 53 2 111h16l6-112c1-22 11-37 29-44-10-21-19-35-28-40-9-6-19-11-28-14-26-8-78-10-157-5-25 1-42 4-51 8-10 4-18 12-26 25-8 14-11 36-11 68v21C556 99 502 44 443 0l-11 10c67 66 125 137 173 212v455c0 17-7 31-21 43l8 9 89-35M244 77C158 53 105 36 84 27 64 20 51 11 46 1L0 47l92 20v208c1 10-7 23-24 39l8 10 70-31c8-4 10-7 5-10-9-4-18-9-24-16V75l85 20v326H71c-12 0-23-5-33-14L5 438h355l30 40 52-43c8-11 6-16-6-14H253V276h106l22 33 41-38c6-12 3-16-7-14H253V104l191 42 3-15-203-54m-42 685 23-10c15 26 31 55 46 88H74c-11 0-21-4-29-13L5 858h376l27 43 63-47c9-10 7-15-7-14H323c-17-39-37-75-57-107l14-5c6-4 8-8 5-12-14-5-23-12-28-21V567l5-60c-1-14-5-25-13-30-8-8-19-13-32-16l3 104v106C162 601 89 549 1 516l-1 11c84 50 154 118 211 203-4 6-10 12-17 20l8 12m103-10c25-20 56-49 92-88 30-37 49-67 57-90 5-25 1-42-11-53-10-11-19-2-27 27-7 27-23 60-49 99-27 41-51 73-72 95l10 10m225-201c6-49 10-85 11-107 2-23 0-48-6-73-6-27-16-45-30-54-14-8-25-7-32 2-7 10-4 23 8 38 12 16 21 39 26 69 4 30 6 72 8 125h15m296-2c44-38 73-68 89-89 14-21 23-39 26-56 4-17 3-32-3-43-4-11-12-17-23-16-12 0-18 10-18 30s-5 41-15 65-31 57-63 100l7 9M612 920c47-37 78-66 93-88 14-21 24-40 27-57 4-17 3-31-3-42-3-11-11-17-22-16-12 0-18 10-18 29 0 20-5 41-15 66-10 23-33 56-69 99l7 9Z"/></symbol><symbol id="𰀝_G" viewBox="0 0 1000 1000" data-size="21"><path transform="matrix(1 0 0 -1 11 953)" d="m247 900 42-33h386l34 39 48-47c9-7 8-13-4-16l-20-9V497h119l40 49 72-55c14-10 11-15-11-13H95c-18 0-32-4-44-13l-33 32h238v350c2 12-5 25-20 40l11 13M33 0 0 32h95v323c2 14-5 28-20 42l11 14 37-29h220l30 35 52-43c9-8 8-13-4-17l-19-8V32h7l21 33 60-39c15-10 11-15-11-13H75C58 13 44 8 33 0m503 0-33 32h70v323c2 14-4 28-19 42l10 14 38-29h219l31 35 51-43c9-8 8-13-4-17l-18-8V32h7l20 33 61-39c14-10 10-15-11-13H578c-17 0-31-5-42-13m154 727H299V617h391v110m-391 15h391v108H299V742m391-140H299V497h391v105m147-467H616V32h221v103m-479 0H138V32h220v103m479 116H616V150h221v101m-479 0H138V150h220v101m258 111v-95h221v95H616m-478 0v-95h220v95H138Z"/></symbol><symbol id="𰀞_G" viewBox="0 0 1000 1000" data-size="21"><path transform="matrix(1 0 0 -1 13 937)" d="M450 55h140l27 382h-22c-18 0-32-5-44-13l-33 32h100l23 327h-67c-14-1-25-5-33-11l-31 31h301l33 42 60-49c4-7 4-11 2-13-16-1-29-6-38-14L852 55h21l32 39 66-49c10-7 8-10-6-10H525c-18 1-32-3-44-13l-31 33M46 427l37-41h302l33 35 41-43c7-8 6-14-6-18l-16-8V140l4-101c-3-22-16-32-37-30v61H91V43C94 18 80 3 51 0c4 23 7 63 8 122v254c-3 11-10 25-21 43l8 8m611 10L629 55h183l8 382H657m169 346H682l-23-327h161l6 327M53 761c0-12 1-24 2-37h174v89H95c-16 1-30-3-41-11l-30 32h363l30 40 64-50c10-8 8-11-6-11H262v-89h168l34 34 42-52c2-8-1-10-9-7-19-2-34-12-46-30-5-8-17-22-36-43l-13 7 41 72H262V517l1-55c3-25-11-40-40-43 3 23 5 72 6 144v142H55c1-4 1-9 1-13 2-35-4-59-17-72-13-12-24-13-34-1-5 9-3 20 7 31 10 14 17 29 19 45l7 66h15m180-539H91V92h142v130m171 0H262V92h142v130m-142 15h142v129H262V237m-29 129H91V237h142v129m63 148h134v-16H296v16M63 608h134v-15H63v15m0-94h134v-16H63v16m226 94h134v-15H289v15Z"/></symbol><symbol id="𰀟_G" viewBox="0 0 1000 1000" data-size="21"><path transform="matrix(1 0 0 -1 30 969)" d="m224 694 80-35c8-3 9-7 5-11-13-3-23-10-28-19v-62h132l25 37 57-42c13-11 10-15-9-14H281v-78h105l24 32 43-34c9-8 7-14-6-17l-14-11v-86l2-32c0-21-13-32-39-31v36H281v-30c32-8 58-17 78-26 38-19 64-40 79-65 13-25 11-40-8-46-12-2-23 6-34 25-7 18-22 36-44 51-19 14-43 28-71 42V97l2-54c0-25-15-39-47-43 4 24 6 71 6 141v186h-13c-12-34-27-65-45-92-21-30-45-59-72-85-24-22-60-45-105-68L0 98c38 26 67 49 87 70 20 23 40 48 59 77 15 24 28 52 40 82h-62v-13c2-16-12-27-42-32 3 23 5 52 5 87v92c2 8-4 18-17 32l13 11 35-34h124v78H95c-15 1-29-4-40-13l-31 32h218v72c1 9-8 23-27 44l9 11m254-277-14 10c51 71 89 151 115 240-1 5-5 11-12 17l8 10 78-32c3-5 1-8-5-8-11 1-21-4-30-14-8-20-16-39-24-57h219l28 32 55-40c7-6 5-10-6-10h-88c-20-58-53-107-97-147 61-30 139-45 235-44v-12c-33 0-55-11-64-33-83 15-149 37-198 67-52-40-127-70-225-90l-6 12c86 30 153 63 199 98-34 25-65 58-91 98-24-37-49-69-77-97M40 899h745l31 39 65-48c11-7 9-10-6-10H538l-56-50V704l2-31c1-24-16-38-49-42 3 23 5 47 6 72v100c-11-8-23-16-38-24-54-32-109-57-165-76s-124-36-206-49v16c162 42 280 87 353 138 34 21 66 45 94 72H115c-17 1-31-3-42-12l-33 31m435-601h322l28 31 57-39c7-6 5-10-5-10H705V177h86l21 31 52-37c10-8 8-11-5-11H705V57h147l26 31 53-40c9-6 8-9-4-9H499c-15 0-27-5-36-15l-29 33h108v119c0 10-7 23-20 37l6 8 64-29c6-2 7-5 5-8-10-4-17-9-22-17V57h92v223H539c-14 0-27-6-37-15l-27 33m110 267c-6-11-12-22-19-33 33-39 68-71 107-95 42 37 71 80 88 128H585M242 452H124V345h118v107m39-107h115v107H281V345m272 453 4 13c58-8 114-19 167-34 54-15 95-30 121-47 52-35 68-61 48-78-10-7-27 1-51 25-22 23-61 46-117 69-55 23-112 40-172 52Z"/></symbol><symbol id="𰀠_B" viewBox="0 0 1000 1000" data-size="21"><path transform="matrix(1 0 0 -1 195 963)" d="M7 187v603c0 52-1 94-3 126-2 10 0 14 6 12 38-13 62-22 75-29 7-5 6-10-3-15-12-5-19-10-22-16-6-52 1-107 19-165 23-58 46-108 70-151 77 63 163 139 257 229 2 3 4 5 7 6 2 0 6-2 10-6 15-16 30-34 44-52 6-8 8-13 5-15-2-2-5-3-8-2-21 8-50-2-87-32-73-51-144-102-213-153 52-74 106-136 162-187 101-92 195-147 279-165 5-1 6-5 4-11-1-5-6-8-14-7-24 4-53-7-85-33-3-4-7-3-11 2-41 23-80 51-117 83C220 337 111 495 54 684V187c0-63 2-111 4-142 1-6-1-10-5-12-9-6-22-15-41-26C4 0 0 4 1 17c4 67 6 124 6 170Z"/></symbol><symbol id="𰀡_B" viewBox="0 0 1000 1000" data-size="21"><path transform="matrix(1 0 0 -1 67 954)" d="M3 751c-2 11 2 15 9 13 36-11 59-20 71-27 9-4 8-9-2-15-11-6-17-11-20-18-4-12-7-38-7-78V404c0-76 2-140 4-191 1-5-1-9-5-12-9-6-22-14-41-26-8-7-12-3-11 11 4 86 6 159 6 218v222c0 52-2 94-4 125m195 145c-1 11 2 15 10 12 35-11 58-20 70-26 9-5 8-10-2-16-10-5-17-11-19-17-5-13-7-39-7-78V240c0-76 1-140 4-191 0-5-1-9-5-12-9-6-23-15-41-26-9-7-13-3-12 10 4 87 6 160 7 219v531c-1 52-2 93-5 125m482-113c6 0 9 2 11 4l36 39c3 4 5 6 8 6 8-1 28-22 62-63 5-8 3-12-5-12-8-1-15-2-21-5-10-2-21-32-31-91-31-159-68-285-113-377 3-6 7-12 11-17 48-75 122-142 224-204 4-1 5-5 3-11-3-5-8-7-15-5-25 7-50 0-73-22-3-2-7-1-12 5-75 68-131 135-169 202-5-7-10-14-14-22C511 105 428 37 335 6c-11-6-18-6-21 1-2 5-1 10 6 14 99 49 183 137 251 262-1 3-2 5-2 6-59 108-108 262-145 461-38-1-61-2-70-4-6-2-9 0-10 6-3 12-9 22-19 30-5 5-7 8-4 11 3 2 6 2 11-1 24-6 52-9 82-9h266m-215-30c-8 0-14 0-18-1-1 0-1 0 0-1 42-178 92-316 150-412 43 98 77 236 103 414H465Z"/></symbol><symbol id="𰀢_B" viewBox="0 0 1000 1000" data-size="21"><path transform="matrix(1 0 0 -1 106 951)" d="M664 605c8 0 16 4 22 12l34 40c6 5 11 5 16 1 17-18 32-36 44-52 7-10 10-17 8-23-2-5-8-7-18-8H468c-45-110-89-202-132-276-6-8-11-10-16-6-5 3-6 8-1 16 36 64 73 156 112 278 36 123 53 198 50 225-1 11 5 14 18 10 26-11 44-20 54-25 9-4 13-8 13-12s-3-6-9-6-11-3-17-10c-9-10-29-65-60-164h184M553 407c-2 4-2 9 0 13 4 4 10 3 16-3 103-84 155-145 157-185 2-13-3-29-13-47-10-15-17-22-24-21-7 0-11 7-12 19-13 64-54 139-124 224M3 747c-2 11 2 15 9 12 36-11 59-19 71-26 9-4 8-10-2-16-11-5-17-11-20-17-4-12-7-39-7-78V400c0-76 2-140 4-191 1-6-1-9-5-12-9-6-22-15-41-26-8-7-12-3-11 10 4 87 6 160 6 219v222c0 52-2 93-4 125m205 144c-2 11 2 16 9 13 36-11 59-20 71-26 9-5 8-10-2-16-11-5-17-11-20-18-4-12-7-38-7-78V236c0-76 2-140 4-191 1-6-1-10-5-12-9-6-22-15-41-26-8-7-12-3-11 10 4 87 6 160 7 219v530c-1 52-3 94-5 125Z"/></symbol><symbol id="𰀣_G" viewBox="0 0 1000 1000" data-size="21"><path transform="matrix(1 0 0 -1 25 978)" d="m541 955 102-26c11-4 13-7 5-12-10-3-21-9-33-20V707h159l32 39 66-49c11-6 9-9-6-9H615c0-77-4-153-12-231h240l31 39 66-49c11-6 10-9-5-9H641c59-208 161-334 306-379l2-15c-39 10-66 2-81-23-57 38-110 93-159 166s-80 157-93 251h-15c-15-102-45-187-89-256C467 113 395 54 294 7l-10 15c77 42 137 94 180 156 42 62 72 148 89 260H398c-17 0-32-4-44-13l-33 32h235c9 66 14 143 14 231H441c-17 0-32-4-44-13l-33 32h206v190c-7 19-19 35-36 46l7 12m-335-3 89-35c9-4 11-7 6-11-14-6-24-12-30-20V141l3-96c0-14-4-24-14-30S237 4 220 0c2 25 5 88 7 187v209c-25-16-53-35-83-55-33-20-54-34-65-42-10-9-19-23-28-42L0 315c12 5 21 13 29 25v405c-2 16-9 30-23 42l7 11 77-30c12-4 15-9 10-13-11-3-21-8-30-16V339c52 24 104 52 157 83v474c1 9-9 24-30 44l9 12Z"/></symbol><symbol id="𰀤_G" viewBox="0 0 1000 1000" data-size="21"><path transform="matrix(1 0 0 -1 52 970)" d="M305 877H67V732h238v145M67 717V569h238v148H67m322 134h341l31 44 74-51c12-9 7-13-13-13H618V501h101l30 42 70-49c13-10 9-15-12-13H618V101h163l32 44 75-51c13-10 8-14-13-13H395c-18 1-33-3-46-13l-32 33h256v380H469c-18 0-33-4-46-12l-31 32h181v330H466c-18 0-33-4-46-13l-31 33M17 939l45-44h225l38 40 48-45c10-10 8-16-7-19l-19-9V586l5-57c0-15-4-26-13-31-7-6-19-9-34-11v65H67V146l4-102c0-14-6-24-17-30C45 8 31 3 14 0c4 25 6 90 7 193v696c-3 17-10 31-21 40l17 10Z"/></symbol><symbol id="𰀥_G" viewBox="0 0 1000 1000" data-size="21"><path transform="matrix(1 0 0 -1 38 958)" d="M70 582V427h190l34 38 47-46c9-8 7-13-6-17l-18-8V171l3-80c-3-22-17-33-42-32v72H70V65c1-25-16-40-49-44 3 25 5 81 6 168v663c-1 15-10 31-27 48l14 15 47-48h199l34 38 47-46c9-7 7-13-6-16l-18-9V645l3-72c-3-22-17-33-42-32v41H70m0-432h208v257H70V150m208 698H70V602h208v246m646-315c2-7-1-9-10-7-29 2-55-11-78-41l-66-66-12 8 70 107H661V90c-1-24-7-42-20-55s-41-25-85-35c-2 22-11 37-26 44-14 6-42 15-85 26l2 18 43-10c89-23 131-8 126 45v411H428c-13 1-25-3-37-13l-33 33h461l45 45 60-66M504 743l4 13c41-14 77-30 107-49 8-5 16-10 23-16 40 46 84 99 132 159H457c-10-2-21-6-32-14l-33 33h375l36 37 61-64c3-7 0-10-10-9-14 3-32-5-55-21-39-33-88-77-148-131 12-10 22-20 29-30 19-28 21-50 8-66-14-15-28-8-42 21-7 21-21 42-40 63-18 21-52 46-102 74Z"/></symbol><symbol id="𰀦_G" viewBox="0 0 1000 1000" data-size="21"><path transform="matrix(1 0 0 -1 73 949)" d="M498 565V410h269l34 38 47-46c9-7 7-13-6-16l-18-9V154l3-80c-3-22-17-33-42-32v72H498V49c1-26-16-41-50-45 3 25 6 82 7 169v662c-1 15-10 31-27 49l13 14 47-47h256l34 38 47-46c9-8 7-14-6-17l-17-9V628l3-71c-4-22-18-33-42-33v41H498m-428-3V406h202l35 38 47-46c9-7 7-13-6-16l-18-9V150l3-80c-3-22-17-33-42-32v72H70V45C71 20 54 5 21 0c3 25 5 82 6 169v662c-1 15-10 31-27 49l14 15 47-48h211l35 38 47-46c9-8 7-13-6-17l-18-9V624l3-71c-3-22-17-33-42-32v41H70m428-428h287v257H498V134m265 697H498V585h265v246M70 130h221v257H70V130m221 697H70V581h221v246Z"/></symbol><symbol id="𰀧_G" viewBox="0 0 1000 1000" data-size="21"><path transform="matrix(1 0 0 -1 29 971)" d="m206 942 89-35c9-4 11-7 6-11-14-5-24-12-30-20V141l3-96c0-14-4-24-14-30S237 4 220 0c2 25 5 88 7 187v200c-25-17-53-36-83-56-33-20-54-34-65-42-10-8-19-22-28-42L0 306c12 4 21 12 29 24v405c-2 16-9 30-23 42l7 11 77-30c12-4 15-8 10-13-11-2-21-8-30-16V329c52 24 104 52 157 83v474c1 10-9 24-30 45l9 11m707-96V76c0-17-4-31-12-44-7-12-31-21-71-27-3 19-16 34-41 43-25 8-50 15-75 18l2 16c68-12 109-19 121-19 13 0 22 2 26 6 5 4 8 28 7 71v716H458V574c3-142-6-257-27-345-22-88-64-162-124-222l-15 14c50 67 84 139 102 218 17 78 24 174 21 288v330c-3 14-11 28-25 42l10 11 46-34h408l30 42 49-41c11-8 11-14 0-19l-20-12M544 452l35-41h151l30 32 47-42c9-5 7-9-6-12l-19-9V255l4-45c5-27-10-42-45-43v53H588v-34c2-26-14-41-48-44 3 24 6 49 7 76v185c-3 13-10 26-19 37l16 12m80 385 79-33c9-4 11-7 6-11-11-3-20-9-27-18v-97h59l30 41 65-47c13-11 11-15-6-13H682V528h76l37 41 61-45c16-8 12-13-10-13H555c-18 0-33-4-45-13l-36 30h168v131h-76c-19 1-35-3-46-13l-37 32h159v107c1 11-8 24-27 41l9 11m-36-600h153v157H588V237Z"/></symbol><symbol id="𰀨_G" viewBox="0 0 1000 1000" data-size="21"><path transform="matrix(1 0 0 -1 6 990)" d="m150 298 61-38c9-8 9-13 0-14-16 1-26 0-30-4-5-4-23-23-56-56-30-31-69-62-117-94l-8 12c37 33 70 66 99 99 30 35 47 57 48 65 2 7 1 16-2 24l5 6m223-4c51-22 89-43 114-63 26-19 43-37 52-54s13-32 13-46c-1-14-7-22-18-26-11-2-20 8-28 32s-22 48-42 69c-20 22-53 47-97 76l6 12m-63 480V673h161v101H310m-196 0V673h164v101H114m357 122H310V790h161v106m-357 0V790h164v106H114m791-97H769V625h136v174m-311 0V625h140v174H594m-14-334V287h154v178H580m349 0H769V287h160v178M399 574c7 10 8 21 4 33l9 8 62-51c9-7 10-13 3-15-21 6-39 3-55-8s-70-53-162-126l-84-53 282 22c-1 2-3 4-5 7-15 17-37 38-66 63l4 12c38-18 67-35 87-51 19-16 33-33 43-51 9-19 13-34 10-47s-10-21-19-22c-11-2-19 9-27 33-4 14-9 26-15 38-63-9-115-16-155-20V105c0-19-4-33-11-42s-15-15-25-19c-9-4-22-9-40-15-4 15-13 27-29 34-16 8-43 16-83 24l2 12 43-10c43-9 71-11 86-6 13 6 21 23 22 51v208c-34-4-56-6-68-7-29-3-49-6-60-10-10-4-23-11-39-21l-37 53c28 1 53 5 75 12l54 38 115 93-123-13c-28-5-47-9-56-11-10-4-21-10-33-18l-33 55c22-2 39 1 51 10 35 23 72 57 110 103 8 7 9 16 2 27H114v-12c0-14-3-24-9-30-5-6-16-10-33-13 3 23 5 57 7 101v204c-2 12-7 25-16 38l8 8 33-34h348l34 34 43-42c9-8 7-13-6-16l-17-9V704l4-48c-1-11-5-19-12-23-8-5-17-7-27-7v27H263l50-37c8-6 8-10 2-12-16 1-30 1-44 0-41-34-84-66-128-96l200 10 56 56m154 284 40-44h141v109c1 10-7 25-25 45l7 11 72-35c8-4 10-7 6-10-12-6-21-13-25-21v-99h120l31 39 39-46c8-6 6-10-5-13l-16-9V677l5-76c-1-12-4-20-9-24-6-4-15-8-29-12v44H769V480h143l28 39 42-46c8-9 7-13-4-13l-16-9V343l5-76c-2-12-5-20-11-24s-16-8-27-12v40H769V140l1-95c0-14-4-24-12-30-7-6-16-11-29-15 1 25 3 66 5 123v148H580v-4c0-14-3-24-10-30-6-6-16-10-30-13 3 23 5 56 6 99v152c-1 15-7 28-17 39l10 10 40-44h155v129H594v-8c0-14-4-24-11-30s-17-10-29-13c3 23 5 56 6 99v152c-2 15-7 28-17 39l10 10Z"/></symbol><symbol id="𰀩_B" viewBox="0 0 1000 1000" data-size="21"><path transform="matrix(1 0 0 -1 41 936)" d="M114 55c-13-4-32-15-55-31-4-3-8-4-10-4-3 0-5 2-7 8-6 17-16 32-29 46C6 81 2 86 3 88s5 3 12 3c51 4 107 13 168 25h1v235h-69c-17 0-37-2-59-7-4 0-6 0-6 2-9 13-16 24-23 35-4 6-1 8 7 6 40-3 62-5 67-5h83v227H92c-18 0-38-2-60-7-3 0-5 0-6 2-8 13-16 24-22 34-4 7-2 9 7 7 39-3 62-5 66-6h232c4 0 7 3 11 7l35 40c5 5 10 5 14 0 17-17 31-32 43-47 7-9 9-17 4-23-3-4-9-6-18-7H230V382h63c4 0 8 2 12 6l35 40c4 5 9 5 14 0 16-17 31-32 42-46 8-10 9-17 4-24-3-4-9-6-17-7H230V125c70 15 134 29 191 42 10 2 15 0 16-6 1-7-4-12-14-15-125-40-228-70-309-91m23 791c-3 6-2 9 2 12s9 2 15-5c38-34 65-65 81-93 10-17 15-32 14-45-1-14-8-28-21-44-12-14-21-20-28-18-6 2-8 9-8 21 0 35-4 65-14 91-9 24-23 51-41 81M464 7c-18 0-38-2-60-6-3-1-5 0-6 2-8 13-16 24-22 35-4 6-2 9 7 7 40-4 62-7 66-7h179v305h-74c-18 0-38-2-60-6-3-1-5 0-6 2-8 13-16 24-22 35-4 6-2 8 7 7 39-4 62-7 66-7h89v247H526c-17 0-37-3-59-7-3-1-5 0-6 2-9 13-16 25-23 35-3 7-1 9 7 7 40-4 62-6 67-7h247c8 0 13 1 15 4 4 3 8 8 14 15l25 36c5 6 10 6 16 0 20-18 40-38 60-58 6-6 9-13 8-18-1-6-6-9-14-9H675V374h53c7 0 13 1 15 4l14 14 25 36c5 6 10 6 16 0 20-18 40-37 59-57 7-7 10-13 9-19-1-5-6-8-14-9H675V38h107c8 0 13 1 16 4l14 14 25 36c4 6 10 6 16 0 20-18 40-37 59-57 7-7 10-13 9-19-1-5-6-8-15-9H464m115 851c-3 5-3 9 0 13 4 3 9 2 16-4 37-27 65-52 84-75 11-15 17-28 17-40 1-13-5-28-16-46-9-15-18-21-26-21-6 2-9 8-9 21-3 30-10 58-22 82-10 21-24 44-44 70Z"/></symbol><symbol id="𰀪_S" viewBox="0 0 1000 1000" data-size="21"><path transform="matrix(1 0 0 -1 93 958)" d="m812 393 2-19-18 5-54-48-71-58-75-51-77-48-80-42-83-37-85-32-87-27-90-21L1 0 0 9l89 25 87 29 84 32 80 36 79 40 74 45 73 49 70 52 67 59 66 63 43-46M652 869l3-18-18 5-40-31-57-42-58-38-59-36-61-32-62-30-64-25-64-22-67-19-67-15-2 9 64 25 123 53 59 31 58 32 57 35 56 37 54 41 53 42 50 46h1l41-48Z"/></symbol><symbol id="𰀫_B" viewBox="0 0 1000 1000" data-size="21"><path transform="matrix(1 0 0 -1 53 960)" d="M298 669c2 109 1 189-3 240-1 10 2 15 10 13 35-12 59-20 70-27 9-5 10-10 1-13-12-8-20-14-22-20-3-6-6-70-9-193h198c4 0 7 2 10 5l23 25c3 5 8 6 12 2 22-16 42-32 60-48 6-5 5-9-1-11-11-2-19-6-24-12-4-7-6-16-6-29V96c0-7 1-13 1-15 2-3 7-4 17-4h149c11 1 18 3 23 6 21 12 38 64 50 156 1 9 6 13 13 13 8-2 12-7 11-17-8-57-11-96-9-115 3-14 10-25 20-32 4-4 4-7 2-11-15-26-45-39-90-41H630c-28 0-45 4-51 12-6 7-9 19-9 36v554H344c-3-87-8-154-15-202-14-85-39-157-75-216C212 153 136 82 26 7 15 0 8 0 3 7c-3 7-1 13 5 17 123 87 203 181 240 280 28 76 45 187 49 334l1 31Z"/></symbol><symbol id="𰀬_G" viewBox="0 0 1000 1000" data-size="21"><path transform="matrix(1 0 0 -1 17 963)" d="m462 640 92-35c15-5 20-9 13-13-18-4-32-10-41-17l-4-63c27-119 78-219 156-302 77-82 173-128 287-138l2-16c-26-3-47-5-64-7-14-1-26-13-35-35-185 81-303 227-353 436-21-129-77-232-168-306C255 69 152 21 37 0l-2 17c196 55 331 166 405 334-65-20-122-43-169-71-13-9-24-22-35-38l-50 55c16 10 28 21 35 32l50 172c-1 16-9 30-24 42l7 11 81-31c12-3 15-7 10-12-11-3-20-8-29-16l-49-161c63 14 124 27 181 38 22 63 32 135 32 218-4 15-13 28-27 38l9 12M157 871c-14-1-26-6-35-14l-32 34h574l31 36 53-51c5-7 4-11-3-12-16-4-26-8-30-13l-53-134h164l28 32 53-48c7-7 6-12-4-14-9-2-19-7-27-15-1-22-1-43-1-65-3-76-13-127-31-152-19-24-52-42-100-55-10 30-45 50-105 59l1 15c57-12 99-16 127-12s46 24 54 58c11 57 15 117 12 177H672l-33-33-47 47c21 6 34 19 39 39l43 121H351c-13-109-50-205-110-288-59-83-136-148-229-197L0 402c174 114 276 271 306 469H157Z"/></symbol><symbol id="𰀭_G" viewBox="0 0 1000 1000" data-size="21"><path transform="matrix(1 0 0 -1 28 984)" d="M22 600h141v39c1 10-8 25-25 45l8 11 71-35c10-4 12-7 5-11-13-5-21-12-26-20V491l2-54c2-25-12-40-41-43 2 15 4 40 5 75l-8-3c-40-22-67-37-81-46-12-9-22-21-29-36L8 426l154 66c0 14 0 29 1 45v43H91c-16 1-29-4-39-13l-30 33m490 53 53-49c6-6 6-11 0-14-13 2-23 3-30 3-6-2-20-7-43-18-19-9-44-20-76-32v-60c1-30 12-44 31-43 41 1 64 5 69 12 5 14 8 47 8 100h12l3-28c-1-43 8-65 26-66-8-30-32-46-73-49h-49c-43-6-63 23-62 87v152c-1 15-8 27-19 39l7 9 78-38c4-4 4-7-1-9-9-1-20-6-30-16v-70c24 15 43 27 57 37 31 16 41 31 30 44l9 9m158 315 84-36c9-4 11-8 6-12-11-3-22-8-31-15V724h128l40 39 41-48c10-8 8-14-5-17l-22-10-1-202c-2-187-12-298-29-334-16-36-37-62-61-79s-57-27-98-32c-4 27-35 51-96 70l4 16c45-16 82-25 109-27 50-4 85 24 107 85 12 31 20 137 24 318v201H728c-2-191-20-335-54-433C636 160 567 70 467 0l-4 16c87 80 146 173 178 279 29 100 45 237 47 409h-52c-15 1-28-3-39-13l-32 33h123v195c-5 17-14 29-27 36l9 13m-234-26 63-52c5-7 3-11-5-14-21 2-44 1-70-4-40-7-77-12-111-15V746h142l31 41 69-47c13-10 9-14-10-13H313V400c59-27 105-53 138-77 72-59 95-103 70-131-14-9-27-1-40 26-11 27-31 54-60 81-26 24-62 52-108 84V180l1-115c0-25-15-40-45-44 3 25 5 93 5 204v183c-18-36-38-67-58-93C159 239 89 171 5 112l-5 16c53 47 103 101 151 161 45 55 86 121 123 197v241H86c-16 0-29-4-39-12l-29 31h256v107c-60-7-128-10-203-10v16c88 8 165 18 231 29 65 10 105 20 119 30 4 3 6 9 7 20l8 4Z"/></symbol><symbol id="𰀮_B" viewBox="0 0 1000 1000" data-size="21"><path transform="matrix(1 0 0 -1 53 968)" d="M631 337c-3 11-5 22-6 32 0 4-2 5-5 5-3-1-4-3-4-5 2-15 4-30 8-46v-87c0-76 2-140 4-191 1-6-1-10-5-12-9-6-22-15-41-26-8-7-12-3-11 10 4 87 6 160 6 219v104c2 11 5 20 7 28 1 3 0 5-3 6-4 1-9-11-17-36-66-114-152-218-258-312-8-5-14-5-18-1-3 6-2 11 4 16 131 131 226 268 285 411v176H451v-66c-1-123-3-186-5-190-23-18-36-27-40-28-6 1-8 8-7 20 2 40 4 106 5 198v39c-1 24-3 50-5 80-2 8-1 12 2 13 2 1 5-1 9-6 8-8 20-18 36-30h131v106H463c-27 0-51-3-71-7-5-1-9 0-11 6-2 12-9 22-18 30-5 4-6 8-4 10s6 2 10-1c25-5 53-7 82-7h126v3c0 52-2 93-4 125-2 11 2 15 9 12 36-11 59-20 71-26 9-5 8-10-2-16-11-5-17-11-20-17-4-13-7-39-7-78v-3h147c4 0 8 2 12 6l35 40c4 5 9 5 13 0 17-16 32-32 43-46 8-10 9-17 4-24-3-4-9-6-17-7H624V658h106c5 0 9 1 12 4l25 34c5 5 10 5 15 1 20-18 36-35 45-51 5-6 5-10 0-11-6-1-11-4-15-8-4-5-6-12-6-23V451c0-19-5-35-16-47-9-12-27-22-52-30-6-1-9 0-9 3-1 11-3 19-7 26-5 7-24 15-58 23-6 2-9 6-8 14 1 7 5 10 13 8 52-3 79-5 81-4 6 4 9 11 9 21v163H624V429c24-58 48-103 74-137 69-78 133-124 192-140 5-1 6-4 4-9-2-4-7-6-16-6-11 2-23 0-35-6-10-7-18-15-22-26-3-4-7-3-11 1-80 72-139 149-179 231M8 738c-1 21-3 46-7 76-1 7-1 10 1 11 3 1 7-1 14-8 6-6 15-14 25-22h69c5 17 10 36 16 58 7 31 10 57 11 79 1 4 1 6 2 6 2 2 6 2 12 0 23-7 42-14 57-22 6-2 8-5 7-7 0-4-5-7-13-10-11-6-22-20-34-42-10-18-20-39-28-62h103c3 0 6 1 8 4l18 27c4 5 9 5 14 1 18-13 37-26 55-40 6-5 9-9 8-12s-4-6-9-9c-17-8-25-14-26-18s-2-8-2-13V598c0-23 2-55 6-94 0-8-1-11-5-12-28-10-43-14-46-14-1 1-2 4-2 11v53H55V392h191c4 0 7 2 9 4l18 28c4 5 9 5 13 0 19-12 38-25 56-40 6-5 9-9 8-11-1-4-4-6-9-9-17-8-26-14-26-19-2-4-2-8-2-12V184c0-23 2-52 6-85 0-7-1-11-5-11-28-10-43-15-46-14-1 1-2 4-2 11v47H54c0-31 0-59 1-85-1-7-3-11-8-13C23 23 9 17 4 17c-2 1-3 7-3 20 3 65 5 132 7 201v500m47-376V238c-1-27-1-52-1-76h212v200H55m0 402V572h207v192H55Z"/></symbol><symbol id="𰀯_G" viewBox="0 0 1000 1000" data-size="21"><path transform="matrix(1 0 0 -1 43 979)" d="m444 707 7 12c87-31 129-67 126-108-1-18-8-29-21-33-14-4-22 4-26 25-2 37-30 72-86 104M9 484l6 11c58-17 94-35 109-56 16-18 22-34 19-49-4-15-11-23-22-24-11 0-17 6-19 20-2 15-9 30-19 46-12 16-36 33-74 52m70 135 6 12c77-29 117-60 121-92 4-31-3-49-21-54-11 0-18 7-20 22s-8 32-19 53c-10 17-32 37-67 59m192-70 11-5-84-175c-39-86-64-140-75-162-10-21-10-59 0-113 11-56 5-84-19-86-23-3-31 25-25 82 7 55 5 87-4 96-8 7-33 11-75 13v14c38-3 65 0 80 8 15 6 33 31 54 73s66 127 137 255m457-119H362v-94h366v94m-366 15h366v102H362V445M911 56l-2-15c-45-2-75-14-92-37-86 25-165 74-236 148-33 37-63 93-90 166H362V86c51 8 120 28 207 60l4-13c-33-18-81-39-144-65-30-15-50-26-59-35-14-10-25-21-33-33l-55 53c18 8 30 19 37 33v461c-2 10-9 23-23 39l9 7 44-30h360l36 39 49-41c9-10 7-16-6-18l-17-10V384l4-69c0-16-16-26-47-31v34H515c17-43 41-82 71-117 10-12 21-22 33-32 46 23 83 44 113 62 31 20 48 32 50 37 5 11 5 20 2 27l7 4 46-59c5-8 3-12-7-11-12 0-22-2-30-6-14-6-32-13-54-22-26-12-63-28-111-49 16-12 33-23 51-33 71-34 146-56 225-63M157 911c-14 0-26-4-35-12l-32 31h576l23 29 44-41c6-9 6-14-2-15-16-6-26-14-30-24-4-7-12-25-23-56h164l23 29 44-41c7-8 6-14-4-17-8-3-13-7-15-14 0-15-4-40-13-73-14-34-30-57-47-68-12-11-36-19-70-23-3 26-28 45-72 57l5 17c58-20 92-26 102-18 9 2 18 9 27 22 18 22 28 59 29 110H674l-25-24-38 39c13 3 23 9 30 19l15 37 14 36H341c-30-81-69-143-117-187-49-44-117-79-203-105l-1 14c129 51 221 144 276 278H157Z"/></symbol><symbol id="𰀰_G" viewBox="0 0 1000 1000" data-size="21"><path transform="matrix(1 0 0 -1 54 953)" d="m661 863-21-13c-6-53 7-100 41-142 33-41 76-61 130-57 15-1 27 13 34 43l13 74h15c-5-79-3-118 6-118 8-1 13-4 13-10-2-8-9-15-23-22-81-14-146 1-196 47s-72 111-68 197H129c-16-1-29-5-39-12l-31 31h532l27 38 45-38c9-10 8-16-2-18m-15-300-22-14c3-62 23-112 60-149 37-38 77-55 120-52 15 0 27 12 34 36l14 83h14c-6-75-4-113 6-116 9-4 13-8 13-13-1-6-9-11-24-16-76-21-141-8-194 41-52 48-78 114-77 199H90c-16-1-28-5-38-13l-31 33h554l29 33 42-36c11-10 11-16 0-16m-45-291-22-14c5-62 30-113 77-153 46-41 92-59 137-56 16 0 27 12 34 36l14 83h14c-5-75-3-113 6-116 9-4 13-8 13-13-1-5-8-11-23-16-82-23-153-6-215 50-62 55-92 121-91 198H69c-15-1-28-5-38-13L0 291h530l29 33 42-36c11-10 11-16 0-16Z"/></symbol><symbol id="𰀱_G" viewBox="0 0 1000 1000" data-size="21"><path transform="matrix(1 0 0 -1 161 972)" d="m189 951 83-56c6-7 5-11-3-12-18 2-31 2-40-1-16-7-40-26-73-57L32 710c90-41 155-92 195-152 12-26 9-43-8-51-13-5-26 6-37 36-17 33-41 64-75 93-33 30-69 53-107 70 130 133 195 205 193 218 0 6-4 13-12 20l8 7m390-8 83-56c6-7 5-11-4-11-16 2-29 1-39-1-14-7-39-28-74-62L422 702c116-47 197-97 243-150 15-19 18-34 8-45-13-13-31-3-53 30-53 64-129 117-230 161 131 133 195 205 193 218-1 5-6 11-15 19l11 8M189 457l83-56c6-7 5-11-3-12-18 2-31 2-40-1-16-7-40-26-73-57L32 215c90-41 155-91 195-151 12-26 9-43-8-51-13-6-26 6-37 36-17 33-41 64-75 93-33 30-69 53-107 70 130 132 195 205 193 217 0 7-4 14-12 21l8 7m390-8 83-56c6-7 5-11-4-11-16 1-29 1-39-1-14-8-39-28-74-62L422 208c116-47 197-97 243-150 15-19 18-35 8-46-13-12-31-2-53 31-53 63-129 117-230 161 131 133 195 205 193 218-1 5-6 11-15 19l11 8Z"/></symbol><symbol id="𰀲_K" viewBox="0 0 1000 1000" data-size="21"><path transform="matrix(1 0 0 -1 52 923)" d="m733 800 54 46 61-49c7-10 8-17 5-20-3-4-10-5-20-5H503c7-6 8-10 3-14-4-5-13-7-28-7-3-5-7-10-12-16-3 0-7-3-12-10l-1-2c14-7 20-12 19-16-1-5-9-8-24-8V368h-46v296c-51-56-110-106-177-150-61-40-136-80-223-119l-2 14c83 43 160 93 230 150 86 70 152 141 198 213H83l-69-4-12 35 76-10 655 7M528 660c65-20 124-44 177-72 49-28 90-57 122-87 10-12 17-24 20-36 2-12 0-21-5-27-5-8-12-10-21-6-11 3-22 12-33 28-24 30-60 63-107 97-49 36-102 67-158 92l5 11m123-276 45-37c17-15 23-26 17-33-5-7-21-9-47-7-105-40-189-74-250-101-94-42-158-77-193-105-25-19-36-33-32-43 3-10 20-14 49-14 78-3 160-4 246-3 101 0 187 3 256 9 29 2 51 14 67 35 18 22 40 71 66 145l10-1c-17-72-25-117-26-134-1-21 6-33 21-36 5-1 9-4 12-8 3-6 4-11 3-17s-6-12-13-16c-8-5-19-8-33-9-80-5-179-8-296-8-73-1-177 0-313 2-57 1-94 13-111 35-19 23-6 50 39 82 39 28 96 60 172 96 45 21 116 49 213 83l46 19H142l-81-5-5 35 71-5h481l43 41Z"/></symbol><symbol id="𰀳_G" viewBox="0 0 1000 1000" data-size="21"><path transform="matrix(1 0 0 -1 37 949)" d="M124 853c-18-2-31-6-39-13l-32 32h647l31 36 45-42c11-10 9-16-5-19l-19-9V529c1-67 5-131 12-191 7-61 17-108 30-143 13-34 28-62 45-86 17-23 29-22 37 2 13 40 25 85 37 136l14-4c-9-71-16-119-20-144-4-26-2-46 6-61 12-36-11-38-69-5-61 46-102 138-123 276-9 65-13 138-13 218v326H124m116-37 92-26c11-3 13-7 6-12-12-3-23-11-33-23v-85c-2-31-3-59-4-82h263l34 43 64-50c14-10 11-14-11-13H426V159c0-32 4-51 12-56 12-4 38-7 79-7 41-1 73 1 95 5 15 2 23 14 26 35 3 24 6 72 9 144h13c3-67 5-109 6-128s8-34 22-48c-13-26-34-40-63-42-21-2-53-3-97-3-43 0-76 0-98 2-35 7-52 41-49 101v406h-81c-6-119-32-228-77-328C178 141 108 67 13 19L0 33c83 56 146 132 188 228 42 95 64 198 66 307H95c-18 1-33-3-46-12l-31 32h238c4 58 5 117 4 177-2 15-10 28-25 40l5 11m161-20c60-24 102-46 125-67 12-13 19-28 20-46 1-19-5-29-18-32-12-2-21 6-26 26-5 19-16 37-34 53-18 17-43 34-72 52l5 14Z"/></symbol><symbol id="𰀴_K" viewBox="0 0 1000 1000" data-size="21"><path transform="matrix(1 0 0 -1 62 940)" d="M852 435c16-8 24-15 23-23-1-10-15-17-44-20-56-6-120-8-191-8-57-1-117 0-182 3-26 2-43 7-50 17-5 7-7 22-7 45v74L5 478l-5 25 401 41v94L69 606l-6 20 338 33v104c-47-9-96-17-147-24-47-7-96-13-149-18l-5 14c101 16 196 35 284 57 99 25 195 55 288 89l25-34c7-13 9-21 4-23-5-3-16-1-33 7-24-8-49-15-74-21-17-5-41-11-73-18l-59-16c8-6 11-11 9-13-1-4-9-6-23-7v-93l213 32 37 40 56-31c5-8 7-13 6-15s-5-4-11-6l-301-41v-96l291 35 41 40 51-35c7-9 9-14 8-16-2-2-9-4-22-6l-369-41v-62c-3-10-3-17 0-22 3-6 10-9 20-9 41-3 91-4 150-3 74 0 130 3 167 9 17 2 29 9 36 21 6 11 14 37 24 78h12l-5-100m-252-81 45-37c17-15 23-26 17-33-5-7-21-9-47-7-101-42-187-74-258-96-84-28-146-54-185-80-25-19-36-33-32-43 3-10 20-14 49-14 78-3 160-4 246-3 101 0 187 3 256 9 29 2 51 14 67 35 18 22 38 61 60 115l10-1c-13-52-19-87-20-104-1-21 6-33 21-36 5-1 9-4 12-8 3-6 4-11 3-17s-6-12-13-16c-8-5-19-8-33-9-80-5-179-8-296-8-73-1-177 0-313 2-57 1-94 13-111 35-19 23-6 50 39 82 39 28 94 53 165 76 50 14 123 40 220 77l46 19H91l-81-5-5 36 71-5h481l43 36Z"/></symbol><symbol id="𰀵_T" viewBox="0 0 1000 1000" data-size="21"><path transform="matrix(1 0 0 -1 100 911)" d="m178 668-2 18c40 4 95 13 166 24 70 13 129 25 177 37 48 13 95 30 142 51l36-48c5-6 7-10 7-12 0-9-7-11-22-7l-24 7c-69-21-150-38-242-50-91-13-171-19-238-20m468-497v299c0 11 0 24-1 40-2 16-3 27-3 33l53-11c16-4 28-9 37-14 10-5 10-10 2-17-7-6-14-10-21-12l-21-6V225c0-5 1-13 2-25 2-12 2-25 2-38 0-12 1-20 1-25 1-5 1-8-1-10-1-2-4-5-8-9-5-3-13-4-23-3-12 0-19 5-19 13v16H236c-14-5-24-7-31-6-6 1-10 2-12 5s-3 9-3 17v307c0 18 0 34-2 48 0 14-1 24-1 30l54-11c16-4 27-8 32-11 6-3 9-6 9-11 1-5-1-9-6-14-4-4-10-6-17-7l-21-6V171h172v447c0 19 0 36-2 49 0 14-1 24-2 30l67-18 21-5c4-3 6-7 7-11 1-3-1-7-4-10s-9-6-18-8l-22-8V171h189M55 34h631l47 49 60-51c3-4 6-6 7-8s1-5 0-9c-2-7-6-10-12-10H53C36 1 25 0 18 1 10 3 5 5 3 9s-3 9-3 15l1 15 1 21 1 23c1 6 1 13 1 24 1 11 1 20 1 26L4 744c0 16-1 31-2 46-1 16-1 27-2 33l70-17c11-3 18-5 22-8 4-2 7-5 7-11 0-7-9-13-25-19l-20-7 1-727Z"/></symbol><symbol id="𰀶_G" viewBox="0 0 1000 1000" data-size="21"><path transform="matrix(1 0 0 -1 36 963)" d="M80 733h18c-1-19-2-37-2-52h331v195c1 10-7 23-25 41l8 11 80-33c9-4 11-8 6-11-12-4-20-10-26-18V681h104c18 25 32 46 42 62s21 36 34 60c14 24 21 40 20 49 0 7-3 16-8 28l9 9 82-46c3-8 1-12-5-11-11 5-23 0-36-15-46-54-82-100-108-136h223l45 44 60-69c2-8-2-10-10-7-16 1-28-1-36-5-10-6-21-17-33-32-15-16-33-38-54-65l-13 10 51 104H95c-2-9-2-17-2-25-3-28-10-50-19-67s-20-28-34-35c-14-8-24-5-32 7s-6 23 7 35c12 11 24 26 36 44 12 17 21 55 29 113m62 138 7 11c60-26 102-59 128-99 9-17 12-33 10-50s-9-26-19-27c-11-2-18 6-21 23-3 16-7 30-13 42-14 29-45 63-92 100m19-389-29 30h481l45 47 81-63c4-6 1-10-10-10-23 0-43-4-60-13-261-146-408-239-441-281-15-23-23-45-23-64 1-19 9-34 25-44 17-10 53-20 110-28 71-4 123-7 157-8 33-1 67-1 101 1 73 4 123 10 151 18 29 9 45 31 50 66 3 35 5 78 7 130l15-1c5-64 8-106 9-127s12-39 31-53c-24-37-44-55-61-55-9-3-25-7-50-11-25-6-73-9-145-12-131-4-225-2-283 7-28 2-51 6-69 10-37 1-66 18-88 50-10 19-15 38-15 59 1 20 7 40 19 59 14 24 40 52 80 83 22 17 67 45 136 84 67 40 145 85 231 136H194c-17 0-28-4-33-10Z"/></symbol><symbol id="𰀷_G" viewBox="0 0 1000 1000" data-size="21"><path transform="matrix(1 0 0 -1 29 959)" d="M64 785c-1 10-10 22-24 36l8 8 83-35c12-3 14-7 8-11-14-4-25-10-34-18V608h142v252c1 10-7 24-26 41l8 10 84-33c10-3 13-7 7-10-11-4-21-10-28-18V608h150v156c2 10-8 25-30 45l9 12 88-36c9-3 11-6 6-10-15-5-25-12-31-21V620l4-41c-2-16-17-29-46-36v45H121l-36-43-52 41c18 16 28 30 31 43v156m353-370-20-14V120c30 17 77 45 142 84l8-11c-59-42-109-83-151-124-8-11-14-23-17-35l-51 43c15 8 23 18 24 31v307H185V290C181 160 122 66 8 8L0 20c88 63 134 153 140 268v138c-8 18-14 29-19 35l9 10 46-36h166l30 33 46-38c8-6 7-11-1-15m259 464c4-4 3-7-1-9-9-2-19-8-29-16V127c1-32 6-53 15-61 27-16 62-22 103-20 11-1 39 0 85 3 22 8 34 23 36 44 5 25 9 81 11 165h16l2-120c5-37 14-60 28-67-11-22-20-37-29-45s-22-14-39-19-45-7-84-6c-33-1-73 2-121 8-48 11-71 51-69 120v735c-2 15-10 30-27 43l7 11 96-39Z"/></symbol><symbol id="𰀸_G" viewBox="0 0 1000 1000" data-size="21"><path transform="matrix(1 0 0 -1 41 968)" d="M269 857c4-4 4-7-1-9-11-3-22-8-33-17V729l193 40v113c2 14-4 29-20 45l9 10 77-29c9-4 11-7 6-11-14-4-24-11-29-21v-98l217 45 30 37 53-39c3-5 1-9-7-14l-19-10c3-79-2-137-17-173-10-22-36-40-81-52-3 26-28 43-74 52l2 13c54-11 87-12 101-3 15 9 23 30 23 66 2 35 3 71 3 107l-231-48V643l2-43c0-25-18-39-52-43 3 24 5 68 7 132v61l-193-39V596c-1-46 12-73 38-81 27-8 74-11 142-8 221 0 340 1 356 5 33 5 52 20 54 47 5 26 9 68 12 126h15c3-55 4-91 3-109 0-19 10-33 31-42-13-21-24-35-33-41-10-5-24-11-42-15-19-5-147-7-384-6-58-1-108 0-153 4-58 6-86 45-82 114v112L89 681c-13-4-23-11-31-21l-37 25 171 35v121c-1 16-10 30-28 43l7 12 98-39m-21-479c5-4 4-7-1-9-10-2-21-8-32-16v-89l230 45v90c3 14-4 29-19 46l9 9 78-30c9-3 11-7 6-11-15-3-25-11-30-21v-73l238 46 29 38 53-40c4-5 1-10-7-15l-19-10c3-81-2-139-17-177-9-23-36-41-80-53-4 26-29 44-75 53l2 13c54-11 87-12 101-3 15 9 23 31 23 68 2 36 3 73 3 109l-251-49V180l2-44c0-25-17-39-53-44 4 26 6 70 7 135v63l-230-44V128c-1-47 11-74 38-83 27-8 74-11 142-8 113 0 207 0 282 2s117 3 127 5c34 5 52 21 54 48 6 27 10 70 12 129h15c3-56 4-93 4-111-1-20 9-34 30-43-12-22-23-35-33-41-9-7-23-12-42-17-12-2-58-4-137-6S527 1 406 1c-57-1-108 0-152 4-59 7-86 46-82 117v116L68 215c-12-4-22-11-31-21L0 219l172 36v108c-1 16-11 31-28 44l6 11 98-40Z"/></symbol><symbol id="𰀹_K" viewBox="0 0 1000 1000" data-size="21"><path transform="matrix(1 0 0 -1 46 945)" d="m652 364 45-37c17-15 23-26 17-33-5-7-21-13-47-17-101-48-180-82-239-101-95-36-159-61-193-75-33-19-47-33-43-43 3-10 20-14 49-14 78-3 160-4 246-3 101 0 187 3 256 9 29 2 51 14 67 35 18 22 40 64 66 125l10-1c-17-59-25-97-26-114-1-21 6-33 21-36 5-1 9-4 12-8 3-6 4-11 3-17s-6-12-13-16c-8-5-19-8-33-9-80-5-179-8-296-8-73-1-177 0-313 2-57 1-94 13-111 35-19 23-6 50 39 82 39 14 93 37 162 67 52 20 126 50 223 91l46 16H143l-81-5-5 39 71-5h481l43 41m117 500c26-18 36-29 31-33-6-5-27-1-63 11-34-7-70-14-108-20-44-8-88-14-132-19 13-5 19-10 16-14-2-5-12-9-29-13v-84h306l45 45 58-43c7-12 9-20 6-23-3-4-10-5-19-5H490c54-57 118-105 192-143 72-38 147-64 225-77l-2-11c-27-2-45-6-56-11-11-4-19-12-24-23-72 33-131 66-177 99-59 41-114 93-165 155V417l1-15c1-10 1-17-1-19-3-4-11-8-24-12-13-2-21-1-24 1-2 1-3 5-2 13l2 14v227c-60-56-124-105-193-146-61-37-137-74-226-110l-5 12c85 39 158 82 221 129 58 43 114 95 168 155H101l-92-4-9 32 87-3h348v78l-1 26c-75-7-143-12-204-14-71-3-132-3-181 1v12c127 0 254 10 381 30 91 15 192 37 301 66l38-26Z"/></symbol><symbol id="𰀺_T" viewBox="0 0 1000 1000" data-size="21"><path transform="matrix(1 0 0 -1 40 953)" d="m571 898 54-11c27-7 40-14 41-22 1-9-7-16-24-21l-21-6V100c0-13 3-22 8-26 8-6 24-10 49-10h127c24 0 41 8 49 22 5 10 12 51 20 121l17-4-2-90c0-13 2-23 7-29 2-2 8-8 18-17 4-2 6-6 6-11 1-9-5-17-20-23-22-9-46-13-72-13l-149 1c-45-1-74 3-85 12-13 9-19 26-19 49v738c0 38-1 64-4 78M338 411V84c0-25-7-44-22-57-11-10-29-19-54-27-4 23-12 38-24 46-10 6-36 14-77 21l4 23c46-8 77-13 93-14 22-2 33 8 33 28v584H173c-33 0-64-2-93-4l-19 43c30-8 68-11 112-11h108l33 38 41-27c13-9 20-17 20-24 0-9-12-19-37-30l-1-218c39 37 68 68 86 94 11 17 24 40 40 70l60-31c16-8 23-15 22-22s-8-11-20-11h-33c-38-35-75-67-111-94-9-7-21-16-35-27 49-43 89-85 119-125 34-45 52-81 54-110 0-10-3-19-9-26-7-7-15-10-24-9-13 1-22 12-27 31-20 67-60 139-121 216M42 507l-19 43c30-7 67-11 112-11h42l30 35 35-24c12-8 18-15 20-22 1-7-3-13-12-18-2-2-4-3-7-3-2-1-7-4-13-7-32-102-65-180-99-234-31-51-70-99-115-143L0 137c79 92 140 217 182 373h-47c-42 0-73-1-93-3m87 399c69-14 122-28 160-41 47-17 73-37 78-59 3-6 2-12-2-19-3-6-8-9-14-11-10-1-22 4-35 15-45 40-109 73-190 99l3 16Z"/></symbol><symbol id="𰀻_G" viewBox="0 0 1000 1000" data-size="21"><path transform="matrix(1 0 0 -1 20 962)" d="m526 805-4-77c-3-82-9-136-16-160s-18-43-35-57c-16-15-50-29-102-41-2 23-19 39-49 49-16 7-34 12-54 15l3 18c52-12 90-17 114-17 31 5 53 15 66 31 15 17 24 61 28 134l5 112H270c-1-159-49-281-143-365l32-29h274l41 41 51-49c10-8 8-13-5-16l-18-9V168l4-96c-3-20-19-32-50-35v94H167V51c-1-26-18-41-53-45 4 25 6 77 7 154v254c-2 9-4 16-7 24-28-23-64-47-106-73l-8 14c77 56 134 117 171 183 36 66 54 149 53 250H114c-19 0-32-4-40-14l-35 33h428l30 42 50-37c12-8 12-14 0-19l-21-12M167 150h289v248H167V150m548 735c4-4 3-7-1-9-11-3-21-8-31-17V129c0-35 5-57 15-65s27-13 52-15c24-2 42-3 54-3 12-1 31 0 57 2 24 8 38 22 40 43 4 28 8 79 11 152h16l2-111c6-37 16-59 30-67-11-22-22-36-32-43-9-6-22-11-37-15-17-4-36-6-59-7-36 0-77 3-121 8-53 8-78 46-75 115v746c-1 16-10 30-27 43l7 12 99-39Z"/></symbol><symbol id="𰀻_S" viewBox="0 0 1000 1000" data-size="21"><path transform="matrix(1 0 0 -1 29 948)" d="m396 494-7-10-9-9-11-8-11-6-11-5-13-4-13-2-13-1v31l-95 16v17h102l5 1 6 2 5 1 3 3 4 2 3 3 4 4 3 6 7 20 5 17 5 21 4 24 4 27 3 31 4 34 2 36 4 71H259l-10-56-14-62-17-55-21-53-24-48-27-44-30-39-34-34-4-4 63-31h229l31 26 58-47-25-21V47l-64-31v52H141V31L77 0v421l-32-25-40-24-5 8 32 31 30 33 27 36 23 40 22 43 18 45 15 50 14 54 9 58 6 46H30v22h357l31 26 58-48-27-15h-1l-1-19-2-41-7-73-2-32-4-29-5-27-5-22-6-22-7-18-6-12-7-12m515-286h10L911 76l19-13 12-18-12-19-19-12H642l-14 1-13 2-12 4-13 6-11 9-8 11-7 12-3 12-3 13v812l62-11 17-10-17-10V91l2-4 1-5 2-2 5-2 5-1 7-1h237l32 132M141 369V89h229v280H141Z"/></symbol><symbol id="𰀼_G" viewBox="0 0 1000 1000" data-size="21"><path transform="matrix(1 0 0 -1 55 949)" d="M88 853c-18-2-31-6-39-13l-32 32h647l31 36 45-42c11-10 9-16-6-19l-18-9V529c1-67 5-131 12-191 7-61 17-108 30-143 13-34 28-62 45-86 17-23 29-22 37 2 13 40 25 85 37 136l14-4c-9-71-16-119-20-144-4-26-2-46 6-61 12-36-11-38-69-5-61 46-102 138-123 276-9 65-13 138-13 218v326H88m12-411 37-43h325l34 40 51-47c9-8 7-14-6-17l-18-9V194l4-109c3-26-13-40-48-42v71H147V76c0-25-17-40-51-45 3 26 5 76 7 151v208c-3 15-9 29-18 41l15 11m47-308h332v246H147V134m233 540 12 12c117-62 185-118 203-169 15-49 9-74-19-76-13 0-21 10-25 29-3 15-13 37-31 66-213-13-331-21-354-25-57-7-97-20-120-37L0 533c20 8 33 15 40 20 9 5 22 19 41 42 46 51 96 119 151 203-2 14-7 25-13 32l9 8 86-51c10-5 10-9 0-13-15 2-29-1-41-7-58-75-124-150-200-226l430 19c-26 35-67 73-123 114Z"/></symbol><symbol id="𰀽_K" viewBox="0 0 1000 1000" data-size="21"><path transform="matrix(1 0 0 -1 54 938)" d="m647 404 45-37c17-15 23-26 17-33-5-7-21-9-47-7-105-54-189-95-252-123-93-40-156-75-191-103-25-19-36-33-32-43 3-10 20-14 49-14 78-3 160-4 246-3 101 0 187 3 256 9 29 2 51 14 67 35 18 22 40 71 66 145l10-1c-17-72-25-117-26-134-1-21 6-33 21-36 5-1 9-4 12-8 3-6 4-11 3-17s-6-12-13-16c-8-5-19-8-33-9-80-5-179-8-296-8-73-1-177 0-313 2-57 1-94 13-111 35-19 23-6 50 39 82 39 28 96 60 172 96 45 21 113 54 204 98l55 22H138l-81-5-5 37 71-5h481l43 41M86 826h683l46 50 63-46c9-13 11-21 8-24-3-4-9-6-18-6H586c15-6 22-12 19-17s-11-8-25-10v-95h149l32 31 52-38c13-11 17-19 14-24-4-6-16-8-36-8V488l1-14c1-10 0-17-1-20-3-5-9-10-19-14-14-4-23-3-27 1-2 2-3 9-3 21l1 8v12H158v-13c1-12 0-19-2-23-3-6-10-11-21-15-13-2-20-2-23 1-2 2-3 8-2 18l1 20v164l-3 74 50-30h159l-1 122H101l-88-4-13 33 86-3m278-148h169v122H359c19-6 28-12 26-18-1-5-8-8-21-9v-95m216-26V509l163-1v144H580M158 508l159 1v143H158V508m375 144H364V509h169v143Z"/></symbol><symbol id="𰀾_B" viewBox="0 0 1000 1000" data-size="21"><path transform="matrix(1 0 0 -1 64 959)" d="M667 861c8 0 13 1 16 4s7 8 13 15l26 36c4 6 9 6 15 0 20-19 40-38 60-58 6-6 9-13 9-18-2-6-7-9-15-9H554V677h130c7 0 14 3 18 7l25 26c3 4 7 5 13 1 20-15 38-29 52-41 5-5 5-8 1-10-19-14-29-22-31-24-4-2-5-4-5-5V365c-1-47 0-105 4-174 0-5-2-8-6-9-13-6-26-12-38-16-5-2-7 2-7 11v56H244c0-16 0-32 1-46-1-6-3-11-8-13-24-11-38-16-43-16-2 1-3 7-3 19 3 66 5 133 7 202v242c0 21-3 46-7 76-1 6-1 10 1 11 3 1 8-2 14-8 7-7 15-14 25-23h147v154H235c-17 0-37-3-59-7-3-1-5 0-6 2-9 13-16 25-23 35-3 7-1 9 7 7 40-4 62-6 67-7h446m43-214H554V467c0-5 1-8 3-8 4-2 7-3 9-3 26 0 43 1 53 3s21 7 33 13c4 3 8 2 10-2 13-11 26-20 37-26 5-3 8-7 7-13s-9-10-25-12c-24-7-50-10-77-10h-55c-13 0-23 4-30 12-8 6-12 19-12 39v187h-83c-1-38-5-73-12-107-9-44-22-82-38-114-18-35-47-62-86-83-11-7-18-7-22 1-5 9-2 17 8 26 34 23 56 48 67 74 13 32 22 70 28 113 5 30 7 60 8 90H245V379c-1-42-1-80-1-116h466v384m-285 30h82v154h-82V677M748 70c9 0 16 4 23 12l34 40c6 5 11 5 15 1 17-19 32-36 44-52 7-10 10-18 8-23s-8-8-18-8H84C70 29 61 18 57 7c-2-6-6-7-10-4C31 18 17 27 7 32c-7 3-7 8-1 14 11 12 17 27 19 44v588c0 52-2 93-4 124-1 11 2 16 10 13 35-12 58-22 71-28 9-5 9-10 1-14-13-5-21-12-25-19-4-13-6-38-6-76V70h676Z"/></symbol><symbol id="𰀿_K" viewBox="0 0 1000 1000" data-size="21"><path transform="matrix(1 0 0 -1 48 930)" d="m240 833-11-26c-21-56-57-119-109-190C73 555 33 511 0 484l5-10c32 22 60 45 84 67 19 16 41 39 68 68V356l-3-20c-2-11-2-17 1-19 3-4 11-4 25 1 13 4 20 10 23 16 1 4 1 13-1 25-1 5-1 9-2 13v248l5 6c9 10 14 16 14 20 0 5-7 11-22 17 11 14 23 34 38 58 11 16 22 35 34 56 20 2 32 5 35 9 4 5-3 12-20 22l-44 25M66 296l14-43 155 5h364c-27-10-53-17-76-23s-57-15-104-28c-57-13-117-27-180-41-63-12-108-28-134-47-33-23-44-46-33-70s40-38 86-43c36-4 126-6 271-5 175 0 309 7 400 21 45 6 70 16 75 28 4 10-9 20-39 28l3 52 7 46-16 4c-15-45-33-77-53-95-19-17-59-30-121-38-39-4-119-7-241-8-116-2-191-1-225 2-45 4-75 10-88 20-13 8-11 19 6 32 16 14 54 26 115 36 61 14 123 28 186 43 50 14 88 26 114 34 43 13 80 25 113 36 35 0 56 4 63 13 6 7 1 16-14 28l-49 35-51-28H208l-142 6m611 454c-4-15-9-23-14-25-6-3-13 4-20 20l-7 11c-8 14-16 25-23 34-12 14-27 29-44 44l6 8c35-14 61-29 79-45 19-17 26-33 23-47m181-24c8-11 11-18 9-22s-8-7-18-11l-326-21c3-7 9-24 18-50 8-23 18-48 31-76 27 24 50 45 70 63 21 18 44 41 69 69l35-23 7-5c14-10 21-17 21-20 1-5-13-5-41-1l-3-2c-28-28-51-49-69-63s-40-31-67-51c26-36 58-68 95-95 35-28 75-50 118-66 13-4 24 1 32 17 9 15 23 54 42 118h10c-3-24-7-54-11-88-3-32-5-52-5-59l6-9c12-18 17-30 16-35-2-8-17-9-45-3-65 22-122 49-169 81-49 32-89 71-120 116-49-37-103-70-161-99-58-30-121-56-188-78l-5 9c67 27 124 55 173 84 55 32 109 70 161 114-13 28-25 56-35 86-9 28-17 50-22 64l-230-17-14 27 239 18c-4 26-7 52-10 78-3 28-6 57-7 85l46-10c27-6 39-11 38-15-1-3-14-8-39-16 0-20 1-41 3-61 1-19 4-38 7-58l246 17 39 33 54-25Z"/></symbol><symbol id="𰁀_G" viewBox="0 0 1000 1000" data-size="21"><path transform="matrix(1 0 0 -1 31 948)" d="m126 779 6 10c76-36 119-76 130-122 4-21-2-34-17-38-16-4-26 5-30 28-5 22-13 41-25 59-11 19-33 40-64 63m100-196v-70c0-59-2-111-6-158h193v228H226m214 216 79-41c7-5 7-8 1-11-12 1-23 0-33-3-39-66-69-114-90-144h103l39 46 72-50c13-9 9-13-11-13H454V355h87l39 45 74-49c12-8 8-12-11-12H454V118l2-80c-1-21-17-33-50-37 4 21 6 73 7 155v183H217c-9-72-26-130-49-174C127 90 77 35 18 0l-3 14c50 46 91 104 122 174 17 42 30 92 37 151H70c-16 0-30-4-43-11L0 355h177c3 34 5 69 6 107v121h-78c-15 1-29-3-42-11l-27 28h336l24 48c34 74 51 114 49 121 0 8-5 16-12 23l7 7m-330 39c-25-1-42-6-50-13l-33 32h653l33 39 53-44c11-10 9-17-6-20l-20-9c-2-138-1-244 1-316 3-72 13-143 29-211s40-125 71-169c32-45 51-47 55-5 6 33 14 85 24 155l18-2c-8-89-13-146-15-172-2-27 1-47 10-63 8-16 4-23-13-23-37-7-82 30-136 110-25 43-45 98-60 165s-24 140-28 220c-3 79-5 188-5 326H110Z"/></symbol><symbol id="𰁁_K" viewBox="0 0 1000 1000" data-size="21"><path transform="matrix(1 0 0 -1 29 948)" d="m682 384 45-37c17-15 23-26 17-33-5-7-21-9-47-7-105-40-189-74-250-101-94-42-158-77-193-105-25-19-36-33-32-43 3-10 20-14 49-14 78-3 160-4 246-3 101 0 187 3 256 9 29 2 51 14 67 35 18 22 40 71 66 145l10-1c-17-72-25-117-26-134-1-21 6-33 21-36 5-1 9-4 12-8 3-6 4-11 3-17s-6-12-13-16c-8-5-19-8-33-9-80-5-179-8-296-8-73-1-177 0-313 2-57 1-94 13-111 35-19 23-6 50 39 82 39 28 96 60 172 96 45 21 116 48 213 82l46 19H173l-81-5-5 36 71-5h481l43 41M434 896c36-1 62-5 78-11 8-6 11-11 10-17s-13-13-35-19v-72h160l38 41 53-35c9-7 12-15 9-24-3-4-10-6-20-6H487v-71h321l49 40 54-35c9-7 11-15 7-24-3-4-9-5-20-5H499c10-4 14-8 13-11-1-4-9-8-25-12v-76h227l49 42 52-39c8-9 10-16 7-21-3-4-9-5-19-5H487v-85c77-5 157-4 240 3 86 6 156 17 211 32l3-14c-20-10-35-19-44-27-11-10-19-22-25-36h-75c-71-1-127-1-166 0-77 0-139 3-185 8-44 6-89 20-136 40-42 18-78 40-108 64-21-27-45-49-73-67-31-20-71-38-120-53l-9 8c57 26 99 53 126 79 35 34 60 83 77 146l52-20c16-6 25-11 26-15 1-5-10-7-35-7l-10-14-25-40c31-21 68-39 109-53 33-12 72-22 117-30v203H86c-17 0-31-1-42-1-8-1-16-2-25-3L6 685c8-1 18-2 31-2 11-1 23-1 34-1h366v71H129c-7-1-15-2-24-2l-7-1-13 30c8-1 18-2 31-2 11-1 23-1 34-1h287v73l-3 46Z"/></symbol><symbol id="𰁂_K" viewBox="0 0 1000 1000" data-size="21"><path transform="matrix(1 0 0 -1 64 932)" d="M81 790c0 9 0 21-1 36-1 10-3 22-4 34l53-29h164l38 29 42-30c15-10 22-17 19-22-3-6-15-8-37-8V538l133 25 4-10-170-44-266-70-3-12c-3-17-5-26-8-27-5 0-12 10-23 31L0 470l39 7 42 8v305m44 17v-85h183v85H125m265-46c11-1 28-2 51-2h118l-2 106 52-10c23-6 35-12 34-16s-14-9-38-13v-66l148-1 35 28 53-34c11-8 15-14 14-18-2-6-14-11-36-15v-3c1-58 0-102-1-132-3-29-10-62-21-98-9-28-27-54-52-78-28-30-60-50-95-59l-11 34c-5 4-17 9-36 15-12 2-35 8-70 18l-13 3 5 11 13-1c49-7 83-11 102-11 31-1 54 4 67 15 30 20 49 59 58 118 6 21 9 81 8 181l-168 1c-1-32-4-63-9-94-6-24-14-42-25-54-26-52-68-97-127-137-65-44-147-77-245-99l-7 11c94 30 167 62 218 96 54 36 93 81 118 133 10 14 17 36 22 64 5 19 8 46 9 80l-48-1-49-1c-17-1-29-1-36-1-11-1-19-2-23-2l-13 32m-265-64v-86h183v86H125m0-109v-95l183 37v58H125m508-235 44-34c17-14 22-24 16-30-5-6-20-9-46-7-103-37-184-68-244-93-91-38-154-70-188-96-25-18-35-31-31-40 3-9 19-13 48-13 76-2 156-3 240-2 99 0 182 3 250 8 28 2 50 13 65 32 17 20 39 65 64 133h10c-16-67-24-108-25-124-1-19 5-30 20-33 5-1 9-3 12-7 3-5 4-10 3-16s-6-10-13-14c-7-5-18-8-32-9-78-4-174-7-289-7-71-1-172 0-305 2-56 1-92 12-109 32-18 21-5 46 38 75 38 26 94 55 168 89 45 19 111 45 200 77l45 18H128l-79-5 3 31 69-5h470l42 38Z"/></symbol><symbol id="𰁃_G" viewBox="0 0 1000 1000" data-size="21"><path transform="matrix(1 0 0 -1 27 967)" d="m662 935 60-54c11-12 11-19 0-20-25 7-50 7-75 2-85-10-161-18-225-22-55-3-108-4-158-4V720h448l31 39 67-46c11-8 9-12-6-12H610V559h231l31 39 66-49c12-6 10-9-5-9H86c-18 0-32-4-44-13L9 559h212v276c2 13-5 27-20 42l11 13 42-34c55 3 107 8 158 13 56 5 107 11 151 18 47 8 73 15 80 21s11 15 10 25l9 2M174 310l-39 31h458l52 41 79-54c4-7 2-10-8-10-24-2-46-6-68-14-123-45-214-81-272-106-57-25-96-43-117-56-20-12-37-26-49-43-12-16-11-28 4-36s55-14 117-15c176-8 302-6 379 3 61 8 94 28 101 63 5 40 7 84 6 133l18 1c2-54 4-93 6-116 2-24 12-43 30-58-4-11-20-25-48-45-27-13-61-21-100-22-97-6-219-7-368-2-57 1-102 4-136 9-58 11-82 33-73 68 2 16 10 32 24 47 13 15 41 35 83 59 43 22 151 66 324 134H230c-35 0-54-4-56-12m90 391V559h303v142H264m26-166 55-42c8-8 8-13-1-14-11 2-20 1-29-4-8-4-40-23-94-56-55-34-127-64-215-90l-6 12c83 34 151 69 202 105 52 36 80 57 82 63 3 8 3 14-2 20l8 6m295-20 4 12c66-19 123-43 170-73 46-30 74-60 85-90 3-21-3-33-18-37-12-2-24 9-34 33-14 27-41 55-81 84s-82 53-126 71Z"/></symbol><symbol id="𰁄_K" viewBox="0 0 1000 1000" data-size="21"><path transform="matrix(1 0 0 -1 48 951)" d="M616 293H135l-71 5 5-30 81 5h457l-46-19c-97-31-172-57-225-77-68-24-121-43-160-57-45-32-58-59-39-82 17-22 54-34 111-35 136-2 240-3 313-2 117 0 216 3 296 8 14 1 25 4 33 9 7 4 12 10 13 16s0 11-3 17c-3 4-7 7-12 8-15 3-22 15-21 36 1 17 9 62 26 134l-10 1c-26-74-48-123-66-145-16-21-38-33-67-35-69-6-155-9-256-9-86-1-168 0-246 3-29 0-46 4-49 14-4 10 7 24 32 43 35 15 95 37 181 66 69 26 157 56 262 90 26-2 42 0 47 7 6 7 0 18-17 33l-45 37-43-41m-28 166c56-12 107-26 154-41 53-19 89-36 107-52 12-14 20-25 23-34 3-10 3-17-2-21-4-4-10-5-19-3-10 2-20 8-29 17-23 20-57 42-100 66-44 24-91 44-140 61l6 7m-260-5c21-12 29-21 23-25-6-5-19-5-40-1-45-28-95-54-150-77-51-21-103-38-155-51l-6 6c58 22 113 48 166 79 48 28 89 58 123 88l39-19m336 446 44-34c21-15 29-25 26-31s-16-9-37-10V510h89l47 44 60-43c10-8 13-14 9-19-3-5-10-7-19-7H91l-72-2-14 31 72-4h160v322l-2 71 58-30h334l37 27M291 510h351v62H291v-62m0 86h351v68H291v-68m0 185h351v69H291v-69m351-93v70H291v-70h351Z"/></symbol><symbol id="𰁅_K" viewBox="0 0 1000 1000" data-size="21"><path transform="matrix(1 0 0 -1 64 952)" d="m624 354 45-37c17-15 23-26 17-33-5-7-21-9-47-7-105-40-198-73-278-98-75-24-130-50-165-78-25-19-36-33-32-43 3-10 20-14 49-14 78-3 160-4 246-3 101 0 187 3 256 9 29 2 51 14 67 35 18 22 40 71 66 145l10-1c-17-72-25-117-26-134-1-21 6-33 21-36 5-1 9-4 12-8 3-6 4-11 3-17s-6-12-13-16c-8-5-19-8-33-9-80-5-179-8-296-8-73-1-177 0-313 2-57 1-94 13-111 35-19 23-6 50 39 82 39 28 87 51 144 69 64 19 144 47 241 85l46 19H115l-81-5-5 30 71-5h481l43 41m246 57c-17-3-32-7-43-12-13-8-23-17-30-28-45 38-89 82-130 134-37 46-68 89-93 131V404l1-16c1-10 1-17-2-20-3-6-11-10-24-13-11-2-17-2-19 0s-3 7-2 16l1 14v212c-42-54-88-102-139-144-55-46-102-77-141-91l-8 9c45 25 96 66 151 123 55 56 96 112 123 166H352l-67-2-13 29 64-3h192v83H407l-66-5-12 32 64-3h136v69l-1 44 60-14c22-5 28-11 17-18-6-4-16-7-31-11v-70h138l42 43 57-39c9-6 11-14 8-23-3-4-10-5-20-5H574v-83h195l40 41 54-37c9-8 11-16 8-22-3-4-10-6-20-6H585c28-48 67-94 116-136 51-44 107-79 170-104l-1-9M253 831c13-9 17-17 13-23-3-6-12-10-26-12V557l2-29c1-10 1-17-1-19-2-5-8-10-17-15-13-4-21-5-24-2-2 2-3 9-2 21l1 14H45v-26l1-21c1-10 0-17-1-20-3-6-9-11-20-16-12-6-19-6-22-1-2 2-3 12-2 29l1 21v318l-2 51 51-35h139l23 30 40-26m-54-30H45V552h154v249Z"/></symbol><symbol id="𰁆_K" viewBox="0 0 1000 1000" data-size="21"><path transform="matrix(1 0 0 -1 44 943)" d="m667 374 45-37c17-15 23-26 17-33-5-7-21-9-47-7-105-40-189-74-250-101-94-35-158-67-193-95-25-19-36-33-32-43 3-10 20-14 49-14 78-3 160-4 246-3 101 0 187 3 256 9 29 2 51 14 67 35 18 22 40 71 66 145l10-1c-17-72-25-117-26-134-1-21 6-33 21-36 5-1 9-4 12-8 3-6 4-11 3-17s-6-12-13-16c-8-5-19-8-33-9-80-5-179-8-296-8-73-1-177 0-313 2-57 1-94 13-111 35-19 23-6 50 39 82 39 28 96 60 172 96 45 14 116 40 213 76l46 19H158l-81-5-5 32 71-5h481l43 41m-16 119h168v264H651V493m-49 313 51-27h155l27 27 41-29c17-12 22-21 15-27-5-5-14-7-26-7V503l1-20c1-19 0-31-2-36-2-7-9-12-20-16-13-4-20-3-23 3-2 3-3 11-2 25l1 13H651v-14c1-10 0-17-2-20-2-6-7-10-16-13-14-4-23-4-26 1-3 3-4 10-3 22l1 10v279l-3 69m-133 2 53-35c9-9 11-16 8-20s-10-6-20-6H369c11-5 14-9 11-13-3-5-13-8-30-10-1-17-3-34-6-51-3-19-6-37-10-53h144l43 41 59-38c9-9 11-15 8-18-3-4-9-5-20-5H329l-11-26c71-34 120-62 149-83 30-22 45-43 45-63 0-16-4-28-12-34-9-8-19-2-29 17-17 28-38 54-65 78-24 22-55 46-93 73-26-55-67-102-122-141-46-34-105-64-177-90L0 341c71 29 128 64 172 104 48 44 85 96 111 155H104l-67-4-13 26 65-2h198c5 20 9 41 12 63s4 43 4 64H173c-17-18-34-36-53-54-17-18-36-36-56-53l-18 7c30 34 57 70 81 108 27 42 49 86 67 132l50-17c16-5 23-10 22-15-1-6-12-9-33-8-7-14-15-27-23-40-7-13-16-26-25-38h245l39 39Z"/></symbol><symbol id="𰁇_G" viewBox="0 0 1000 1000" data-size="21"><path transform="matrix(1 0 0 -1 16 976)" d="M757 878c38-12 66-27 86-43 18-16 28-32 29-48s-4-26-15-30-18 2-22 17c-5 16-12 31-22 45-9 15-29 32-60 50l4 9M503 601c41-10 72-24 93-40 22-21 34-39 35-55 2-16-4-26-17-29-11-4-20 3-25 20-5 18-14 35-27 51-15 15-36 30-63 45l4 8m166 269c-1 12-9 26-23 40l7 10 76-33c11-5 13-9 5-12-11-4-20-8-27-14V700h125l32 36 59-42c12-10 9-14-11-12H707V487c43 32 75 56 97 74 21 18 32 32 35 41 2 9 2 16-2 21l8 5 53-50c10-6 10-10 0-12-17 4-38-2-61-19-22-16-59-40-113-72 39-21 74-44 105-70 39-33 63-61 71-85 11-26 10-43-5-49-13-8-25 0-34 24-7 24-27 55-59 92-28 30-59 57-95 81V217c-1-20-6-36-16-48-10-11-31-19-64-24-2 15-9 27-23 34-13 6-35 13-64 21l4 14 24-5c39-10 65-12 79-8 14 5 21 20 22 47v199l-83-69c-36-32-58-53-67-63-11-11-16-25-17-42l-54 44 219 149 2-4v220H540c-16 0-30-4-41-11l-29 29h199v170M438 674c3-6 0-11-9-14l-19-14V110c0-22 13-36 41-43 8 0 43-1 107-1h299c26 3 42 9 49 17 6 8 10 39 11 91l5 75h13l3-71c2-45 13-73 31-82-13-26-29-42-46-50-18-8-38-12-62-13H437c-43 11-67 34-72 71v560H254c-1-62-4-124-7-184-4-97-24-187-59-268C154 130 92 59 4 0L0 16c79 74 133 150 161 229 27 79 43 182 47 311v108h-84c-18 1-31-4-39-14l-29 34h152v210c-8 18-20 34-36 45l7 12 103-26c10-3 12-7 6-12-10-3-21-10-33-19V684h93l33 40 57-50Z"/></symbol><symbol id="𰁈_G" viewBox="0 0 1000 1000" data-size="21"><path transform="matrix(1 0 0 -1 23 985)" d="M371 921c29-19 52-40 70-64 19-24 33-51 41-79 8-29 8-50 0-63-8-14-16-5-24 25-7 30-17 57-30 83-14 26-34 54-60 84l3 14m-11-201H250V471h110v249m321-225c2 43 2 91 1 143v96H566V495h115m41 94c0-33-1-65-2-94h129v239H722V589M187 971l88-35c10-4 11-8 6-11-14-6-24-13-31-21V739h95l36 36 46-44c9-8 8-13-4-15l-20-8V471h10l32 39 58-54c3-6 1-9-6-11l-21-9c-2-15-3-37-3-64-2-27-3-47-4-60-2-22-6-46-11-74-5-27-19-48-40-63-22-16-50-28-87-35-4 22-13 36-27 44-8 6-21 13-40 20l3 16c31-11 60-16 87-16 26 1 43 10 53 27 9 17 15 39 17 68 1 15 2 39 4 71 0 32 1 59 3 80H250V149l5-94c0-14-5-24-15-31-10-5-23-10-40-14 3 25 6 87 9 185v255H71c-11 1-24-4-37-13L0 471h209v249h-96c-11 0-24-4-37-14l-34 33h167v175c-1 10-11 25-31 45l9 12m482-7 74-28c13-6 13-12 0-16-8-3-15-7-21-12V754h110l34 40 51-48c9-8 7-13-6-17l-17-8V529l3-37c1-25-2-41-10-47s-21-9-38-11v42H719c-6-115-23-203-50-264 24-29 50-52 77-69 42-28 78-46 108-54 29-8 62-11 99-10V65c-19-3-31-8-36-12s-11-13-19-26c-53 11-102 30-146 57-35 22-68 53-102 94 0-2-1-4-2-4C598 99 514 41 396 0l-7 12c112 52 191 116 235 192 1 1 2 3 3 5-1 1-1 1-1 2-41 59-73 125-96 200l19 1c12-35 37-82 76-140 6-9 12-18 18-26 20 55 32 131 38 230H566c0-15-4-25-13-31-9-7-21-12-38-14 2 25 5 71 6 137v180c-3 16-9 29-17 41l15 12 40-47h123v166c-2 12-9 23-20 33l7 11Z"/></symbol><symbol id="𰁉_K" viewBox="0 0 1000 1000" data-size="21"><path transform="matrix(1 0 0 -1 59 948)" d="m617 324 45-37c17-15 23-26 17-33-5-7-21-9-47-7-90-31-171-57-244-78-65-22-124-44-179-68-25-19-36-33-32-43 3-10 20-14 49-14 78-3 160-4 246-3 101 0 187 3 256 9 29 2 51 14 67 35 18 22 36 50 55 82l10-1c-9-30-14-54-15-71-1-21 6-33 21-36 5-1 9-4 12-8 3-6 4-11 3-17s-6-12-13-16c-8-5-19-8-33-9-80-5-179-8-296-8-73-1-177 0-313 2-57 1-94 13-111 35-19 23-6 50 39 82 40 21 92 42 157 62 57 22 133 48 228 77l26 9H128l-81-5-5 35 71-5h481l23 31m159 361 54-40c7-6 8-14 5-24-3-4-8-6-16-6H458c16-4 23-9 22-13-1-6-12-10-31-12v-47h222l43 33 48-30c7-13 9-21 5-23-3-4-9-5-18-5H449v-88c53-16 111-26 173-30 66-5 137-3 214 5v-11c-20-6-34-14-43-22-7-8-11-16-11-25-115 4-216 18-303 42-103 28-187 69-254 123-17-39-41-72-73-99-37-32-86-57-146-76l-6 11c65 31 113 67 143 107 29 38 47 89 54 151l43-9c21-5 31-10 30-14-1-5-10-9-29-11l-6-24c-2-7-4-15-6-24 23-16 49-30 79-44 18-8 46-19 84-33l10-5v172H127l-96-1-7 33 90-6h621l41 45m-178 22v58H241v-58h357m-357 81h356v53H241v-53m340 76 35 32 46-31c13-10 19-18 16-22s-14-7-32-8V705l2-12c2-8 2-14 0-16-2-5-9-9-20-13-16-6-26-7-29-4-3 2-3 9-2 20l2 4H241v4c1-11 0-16-2-15-3-5-9-10-20-14-15-6-24-7-27-4-3 2-3 8-1 19l2 12v156l-3 54 59-32h332Z"/></symbol><symbol id="𰁊_K" viewBox="0 0 1000 1000" data-size="21"><path transform="matrix(1 0 0 -1 80 949)" d="m595 384 45-37c17-15 23-26 17-33-5-7-21-9-47-7-105-40-189-74-250-101-94-42-158-77-193-105-25-19-36-33-32-43 3-10 20-14 49-14 78-3 160-4 246-3 101 0 187 3 256 9 29 2 51 14 67 35 18 22 40 71 66 145l10-1c-17-72-25-117-26-134-1-21 6-33 21-36 5-1 9-4 12-8 3-6 4-11 3-17s-6-12-13-16c-8-5-19-8-33-9-80-5-179-8-296-8-73-1-177 0-313 2-57 1-94 13-111 35-19 23-6 50 39 82 39 28 96 60 172 96 45 21 116 52 213 93l46 18H86l-81-5-5 26 71-5h481l43 41M108 895l50-32h162l33 28 37-27c18-12 24-21 19-25-3-3-12-5-28-5l-3-1V579l1-21c1-10 1-16 0-19-2-4-8-8-18-10-14-4-23-3-27 3-2 2-3 9-2 19h1-174v-5c0-8-1-13-2-15-2-4-7-8-16-11-14-6-23-6-27 0-3 3-4 10-4 22l1 8v292l-3 53m51-133h173v79H159v-79m0-97h173v74H159v-74m0-91h173v69H159v-69m128-58c44-20 80-39 108-59 29-23 43-41 42-53-3-14-8-24-17-29-10-6-18-1-25 16l-2 1c-9 17-18 32-29 46-21 24-49 47-84 70l7 8M0 371c35 18 69 40 100 66 31 24 59 51 82 80l36-15c13-6 20-10 19-14s-11-6-32-5c-26-24-55-45-88-65-35-22-72-39-111-53l-6 6m736 509c13-4 18-7 16-11-2-5-12-10-29-14V466c-2-24-9-41-22-53-12-12-33-23-62-31l-9 33c-3 4-14 8-33 14-20 6-46 11-77 17v13l17-1c25-2 44-4 57-4 21-2 39-2 52-2 11 0 19 1 25 5 5 2 8 7 9 14v365l-5 63 61-19m-241-23 62-17c23-6 28-12 17-18-7-5-18-9-31-11V573l1-18c1-10 1-16-1-19-3-6-12-10-25-13-9-2-15-1-17 1-1 2-2 7-1 16l1 15v255l-6 47Z"/></symbol><symbol id="𰁋_G" viewBox="0 0 1000 1000" data-size="21"><path transform="matrix(1 0 0 -1 56 950)" d="M227 317H56V111h171v206m341 6H398V97h170v226M460 691H170V525h290v166M77 848c-17-2-30-7-39-13L6 867h655l31 36 45-42c11-9 9-16-6-19l-17-9c-1-139-1-242-1-309s4-130 12-191c6-61 16-108 30-143 12-34 27-63 45-86 17-24 29-23 37 1 13 41 25 86 37 137l14-4c-9-72-16-120-20-145-4-26-2-46 6-61s5-24-8-28-34 4-61 23c-28 20-54 54-76 104-24 49-40 106-47 173-9 65-13 138-13 218v326H77M14 374l35-37h159l38 36 43-44c9-8 7-13-6-16l-17-9V142l2-79c-2-12-5-20-11-24-7-4-17-6-30-7v60H56V57c0-14-4-24-11-30S27 17 10 14c2 24 5 64 7 121v191c-2 14-8 26-17 37l14 11m342 8 38-39h156l38 36 43-44c9-8 7-13-6-17l-18-8V125l2-79c-1-12-5-20-10-24-7-3-17-6-31-6v61H398V57c0-14-3-24-10-30s-19-10-35-13c2 24 4 64 6 121v199c-2 14-7 26-16 37l13 11M128 746l33-35h280l38 36 43-44c10-8 8-13-5-16l-18-9V572l2-79c-1-12-5-19-11-23-6-5-16-7-30-7v43H170v-15c0-13-4-23-11-29-6-6-18-11-35-14 3 24 5 64 7 121v129c-2 14-8 26-17 37l14 11Z"/></symbol><symbol id="𰁌_G" viewBox="0 0 1000 1000" data-size="21"><path transform="matrix(1 0 0 -1 24 949)" d="M82 853c-18-2-31-6-39-13l-32 32h715l31 36 45-42c11-10 9-16-6-19l-19-9V529c2-67 6-131 12-191 7-61 17-108 30-143 13-34 28-62 45-86 17-23 30-22 37 2 13 40 26 85 37 136l14-4c-9-71-15-119-19-144-4-26-2-46 5-61 13-36-10-38-69-5-60 46-101 138-123 276-8 65-13 138-13 218v326H82M313 65h208l57 246c19 98 30 166 32 204 5 19 3 34-5 47-3 7-7 15-11 23l8 7 85-38c10-8 12-13 6-15-13-4-26-10-37-19-26-149-64-300-113-455h99l37 50 72-55c14-10 11-15-11-14H390c-18 1-33-3-44-13l-33 32M30 23 0 86l155 25 45 190c30 150 42 231 36 241s-11 20-15 30l8 8 80-30c10-8 12-13 6-15-11 0-21-6-29-15-34-157-70-292-105-405l192 31 2-19-199-43C96 66 48 46 30 23m357 507 9 9c34-45 58-90 74-137 15-47 25-92 29-135 4-45-3-71-21-79-19-10-28 6-26 47 1 41-1 84-9 129-7 45-26 100-56 166m-359-5 12 5c34-43 58-83 71-121 14-39 21-78 23-118 0-40-7-63-23-67-17-6-24 8-22 42 1 33 0 68-3 105s-23 88-58 154m339 124h250l29 41 73-46c14-12 10-16-11-14H445c-17 0-32-4-44-13l-34 32M3 646h241l28 41 73-47c14-11 10-16-11-14H80c-17 0-32-4-44-13L3 646m112 181c60-40 90-77 91-113-1-16-8-24-22-26-14-1-22 6-23 24 0 16-3 31-11 46-5 15-19 35-42 59l7 10m373 2c61-42 92-82 92-119-1-17-8-26-22-27-14-2-22 6-23 24 0 17-4 33-12 49-5 17-19 38-42 62l7 11Z"/></symbol><symbol id="𰁍_K" viewBox="0 0 1000 1000" data-size="21"><path transform="matrix(1 0 0 -1 56 948)" d="m638 384 45-37c17-15 23-26 17-33-5-7-21-9-47-7-105-40-189-74-250-101-94-42-158-77-193-105-25-19-36-33-32-43 3-10 20-14 49-14 78-3 160-4 246-3 101 0 187 3 256 9 29 2 51 14 67 35 18 22 40 61 66 115l10-1c-17-52-25-87-26-104-1-21 6-33 21-36 5-1 9-4 12-8 3-6 4-11 3-17s-6-12-13-16c-8-5-19-8-33-9-80-5-179-8-296-8-73-1-177 0-313 2-57 1-94 13-111 35-19 23-6 50 39 82 39 28 96 60 172 96 45 21 116 50 213 87l46 19H129l-81-5-5 31 71-5h481l43 41M44 895l53-25h260l33 21 39-23c20-12 26-20 18-24-5-3-14-4-29-4V675h221l-4 6c-10 18-20 32-29 44-17 20-39 41-65 63l8 6 20-9c13-6 22-10 27-12 9-4 17-8 24-12l109 94H549l-56-3-7 24 53-1h191l32 22 47-27c19-12 25-19 17-22-5-2-21-7-48-13-11-5-26-13-45-25-11-6-29-17-52-32l-51-32c17-10 29-18 35-23 7-13 8-29 3-48h133l30 22 38-27c12-9 18-15 18-18-1-6-13-8-37-6l-104-78-8 6 74 78H666c14-6 20-11 17-15-2-4-10-6-23-6V445c-1-20-9-36-25-48-14-11-34-18-59-22-3 15-11 26-24 33-15 7-41 14-80 20l-1 9 39-2 72-3c11 0 20 1 25 4 6 2 9 7 9 13v203H418v-21c1-7 0-12-2-14-3-4-11-8-22-12-11-2-18-1-21 3-2 2-3 7-2 15h1-121v-88h83l43 34 48-32c9-10 12-17 8-20-3-3-10-4-20-4H252v-74l230 27 3-8c-59-12-124-25-196-38-43-9-109-21-197-37l-45-8-3-5c-6-16-10-24-13-24-5-2-11 6-18 26L0 408l208 26v79H89l-67-4-13 27 65-1h134v88H93v-1c1-8 0-13-1-15-3-5-8-9-17-11-14-4-23-3-27 1-2 2-3 9-2 19l1 8v227l-3 44m49-138h114v91H93v-91m278 91H267c13-4 17-7 12-10-4-4-13-6-27-7v-74h119v91M93 645h114v90H93v-90m278 90H252v-90h119v90Z"/></symbol><symbol id="𰁎_K" viewBox="0 0 1000 1000" data-size="21"><path transform="matrix(1 0 0 -1 38 942)" d="m679 384 45-37c17-15 23-26 17-33-5-7-21-9-47-7-105-40-189-74-250-101-94-42-158-77-193-105-25-19-36-33-32-43 3-10 20-14 49-14 78-3 160-4 246-3 101 0 187 3 256 9 29 2 51 14 67 35 18 22 35 54 50 95l10-1c-6-39-9-67-10-84-1-21 6-33 21-36 5-1 9-4 12-8 3-6 4-11 3-17s-6-12-13-16c-8-5-19-8-33-9-80-5-179-8-296-8-73-1-177 0-313 2-57 1-94 13-111 35-19 23-6 50 39 82 39 28 96 60 172 96 45 21 116 50 213 88l46 19H170l-81-5-5 30 71-5h481l43 41m230 79c11-8 15-14 12-18-2-5-7-8-16-9H499l-66-3-9 29 63-4h40v352h-23l-49-3-11 28 80-3h276l40 42 61-41c10-8 14-14 11-18s-9-5-19-5H576V709h236l35 30 44-37c11-10 16-17 13-21-3-6-14-9-32-7V569c0-14-1-23-3-27-3-6-10-10-21-12-11-1-17 0-20 3-1 2-2 8-2 18l1 5v11H576V458h229l46 40 58-35m-83 225H576v-98h250v98M102 588c25-11 43-21 56-29 19-14 31-28 34-42 2-19 0-30-6-33-7-4-14 2-21 17-8 12-18 26-30 42-12 14-24 27-35 39l2 6m222-103 32 44 42 58 34-25c12-7 17-13 16-18-1-6-12-7-33-4l-68-54 148 9-1-11-417-55c2-16 0-25-6-27-7-4-14 4-22 24l-22 45 223 12v129H144l-61-3-12 25 58-1h120v78H132c-19-12-40-24-61-37s-42-25-65-37l-6 8c43 26 91 63 143 109 44 40 87 83 129 130l36-19c15-8 21-13 18-16-2-4-12-7-30-10 33-27 71-49 113-66 33-14 70-25 111-33l1-10c-11-1-22-5-33-11-10-6-17-14-21-22-27 12-58 33-94 62-35 26-64 52-87 78-27-24-49-43-67-57-22-18-44-34-66-49h161l32 35 41-33c9-7 12-13 9-18-3-3-9-4-18-4h-78c9-10 12-17 11-19-1-3-8-4-22-4v-55h118l30 36 48-34c8-9 10-15 7-18-3-4-9-5-18-5H289V484l35 1Z"/></symbol><symbol id="𰁏_G" viewBox="0 0 1000 1000" data-size="21"><path transform="matrix(1 0 0 -1 20 958)" d="M90 860c-18-1-31-5-39-12l-32 32h714l32 36 45-42c11-10 9-16-6-20l-19-8V537c1-67 5-131 12-191 7-61 17-108 30-143 13-34 28-62 45-86 17-23 29-23 37 2 13 40 26 85 37 136l14-4c-9-71-16-119-20-145-3-25-2-45 6-60 13-37-10-38-69-5-61 46-102 137-123 275-9 66-13 139-13 219v325H90m274-403h196c5 11 13 33 25 66 12 34 19 57 19 72-1 9-5 19-9 29l8 7 65-33c10-8 12-13 7-15-15 0-23-3-27-8-16-32-40-71-69-118h62l30 39 63-49c10-6 9-9-5-9H563V301h61l31 40 65-50c9-6 8-10-6-10H563V99l1-56c0-14-3-23-11-29-7-6-19-11-35-14 2 24 4 73 6 146v135h-66c-17 0-31-4-43-12l-33 32h142v137h-85c-16 0-31-5-43-13l-32 32M0 457h202c7 19 15 44 25 76s15 55 15 68c0 9-3 19-9 29l8 7 62-33c10-8 12-13 7-15-13 0-22-3-26-8-21-43-41-84-62-124h33l29 38 62-48c9-6 8-9-4-9H196c0-41-1-86-4-137h53l29 40 64-50c9-6 7-10-7-10H190c-10-68-27-124-49-167C118 72 87 35 47 4L37 15c30 34 54 70 72 110 19 40 34 92 46 156H75c-16 0-29-4-40-12L4 301h152c2 13 3 33 4 60 1 28 1 54 0 77H71c-15 0-29-5-40-13L0 457m57 168 8 10c39-37 65-74 76-112 3-18 2-31-3-39-6-9-13-12-23-8-11 2-16 11-16 28 0 38-14 78-42 121m370-3 8 9c39-33 64-68 73-103 3-17 2-29-3-36-5-8-12-10-22-8-11 2-16 11-15 26-1 35-15 72-41 112m-51 72h245l30 39 65-48c10-7 8-10-6-10H451c-17 0-31-4-43-13l-32 32m-365-3h231l29 39 64-48c9-7 7-10-7-10H84c-16 0-30-4-42-13l-31 32m105 147c56-34 84-67 84-98 0-13-7-21-20-21-13-2-20 5-22 20 0 14-3 27-10 39-5 14-18 31-39 52l7 8m380 4c55-36 82-69 82-100-1-15-7-23-19-23-13-3-19 4-20 20-1 14-4 28-11 41-5 15-18 32-38 53l6 9Z"/></symbol></svg>