<svg xmlns="http://www.w3.org/2000/svg"><symbol id="𬽐_S" viewBox="0 0 1000 1000" data-size="21"><path transform="matrix(1 0 0 -1 49 967)" d="M126 308H0v21h420v88l62-11 16-10-16-9v-58h305l53 53 62-53v-21H188V77l1-5 2-5 1-1h1l2-2 3-1h620l20-13 13-19-13-18-20-13H196l-13 3-13 4-12 7-11 7-7 11-7 13-5 12-2 13v238m435 409 63-31h152l33 26 57-48-26-20V452l-64-31v63H624v-63l-63-31v327m-495 0 63-31h150l32 26 58-48-26-20V452l-64-31v63H129v-63l-63-31v327m710-53H624V505h152v159m-497 0H129V505h150v159M5 780v22h415v132l62-11 16-11-16-9V802h320l43 47 52-47v-22H5Z"/></symbol><symbol id="𬽑_K" viewBox="0 0 1000 1000" data-size="21"><path transform="matrix(1 0 0 -1 51 938)" d="M86 757h324v69l-1 51 55-11c17-2 25-6 24-12 0-5-10-9-30-13v-84h297l46 50 63-45c9-5 12-10 10-14-3-4-11-6-25-6H109l-99-6-10 26 86-5m315-465 15 40c12 42 20 93 24 154 4 57 6 131 4 223l49-8c23-3 33-7 31-13-1-5-12-11-32-18 1-86-1-157-7-212-6-63-18-117-35-162 65-78 134-135 206-171 68-35 149-56 242-65V47c-19-3-34-7-44-14-10-6-18-17-27-33-76 25-141 56-195 93-71 47-134 110-188 187l-2-4c-30-65-78-119-144-160C230 75 134 39 11 9L7 22c105 30 187 63 246 99 66 40 113 92 142 155l6 16m143 0h226v149H585l-8 16h193v144H556l-11 16h211l31 27 45-32c14-10 20-18 18-24-3-7-14-10-34-10V269c1-15 0-25-2-30-2-8-9-14-20-17-12-2-19-1-22 3-1 2-2 9-1 20v31H552l-8 16M376 653c9-7 11-12 7-14-5-4-21-4-47 0-31-10-66-20-104-30-33-8-64-15-92-21V457h105l38 44 43-35c11-8 14-14 11-19-2-4-9-6-20-6H140V292h147l38 49 44-38c13-8 17-15 14-20-2-4-8-7-18-7H140v-18c1-10 1-16-1-20-4-4-12-8-26-11-11-3-18-3-20 1-2 1-3 6-2 15l1 13v333l-4 43 49-27c24 8 50 16 77 26l89 62 73-40Z"/></symbol><symbol id="𬽒_S" viewBox="0 0 1000 1000" data-size="21"><path transform="matrix(1 0 0 -1 55 940)" d="m791 73 63-52V0H66v21h672l53 52m-73 174 62-53v-21H140v21h525l53 53M471 683l4 5 1-1 26 22 59-48-27-15-19-8-10-13-9-12-26-33 11-8-15-9V320l-1-13-2-13-5-13-7-11-8-11-10-9-12-7-13-4-13-2-13-1v32l-106 15v16h106l6 1 5 1 4 1 2 3 2 4 1 4v280l40-7 5 19 5 14 4 15 10 27H266v22h205m42-329-2 5v1l-1 1v1l18 3 27 2v184h-9l-27 1-2 10 75 27 48 22 48 26 47 31 23 17 21-32 17-18 2-20-20 9-11-7-28-14-28-13-27-11-28-10-28-7-10-2V373h17l24 1h25l26-1h19l-12 19-14 28-13 30-10 32-8 36-5 38 9 2 33-64 16-27 15-26 18-22 16-19 19-16 18-13 18-11 49-22-61-49-23 16-23 17-19 21-16 19-48-13-129-36-12-4-9-20-13 12v1l-2 5v1l-2 10v3l-5 17v1l-1 3v1l-2 11m-303 0h6l6 1 4 2 6 5 6 8 3 5 3 7 60-22-6-12-6-12-8-10-9-10-9-8-12-6-12-5-13-4-12-2-14-1v31l-84 17v16h91m94 6-14 5-17 6h-1l-6 3-22 8v1l1 8 1 12 1 16 1 20 1 24v27l1 31v61h-64l-2-39-7-45-10-41-13-36-16-31-21-29-23-22-28-20-29-14-33-11-4 9 26 19 24 20 19 20 17 23 12 25 10 28 8 32 5 36 2 41v35H66v22h184l32 25 58-47-27-16v-77l-1-28v-23l-1-22-1-18-2-14-2-13-2-11m206 2 14-59-24 57 10 2M40 734v22h389v125l63-10 16-11-16-9v-95h303l43 47 53-47v-22H40Z"/></symbol><symbol id="𬽓_S" viewBox="0 0 1000 1000" data-size="21"><path transform="matrix(1 0 0 -1 42 965)" d="M207 314H82v22h175l53 52 62-52v-22H270V70l-3-12-4-13-7-13-8-10-12-8-10-7-13-4-14-2-13-1v31l-84 16v16h90l5 1 3 1h2l1 1 1 1 1 2 1 3v5l1 7v230m660 42-7 2 7-2M5 323l52-36-21-13-23 5-13 21 5 23m0 0 34-23 18-13 6 16 5 17 3 18 2 20 1 23 1 24-1 28-1 15h320l-1-7-2-13-2-16-5-32-8-57-5-19 9-3 9 17 10 18 26 48 20 43v1l12 5 26 15-57 48-31-26H71l-3 23-4 34h-9l-4-34-9-58-5-26-5-22-11-36-5-13-6-10-5-5m76 412 63-31h179l31 26 58-46-26-22V539l-63-32v42H144l-63-31v217m242-51H144V570h179v114M21 781v21h181v129l63-11 16-11-16-9v-98h65l52 52 63-52v-21H21m862-428-4-13-5-12-7-12-9-9-9-10-10-7-13-5-13-4-12-2-14-1v32l-42 15v16h42l7 1 6 1 5 1 3 1 3 2 2 3 2 3 3 3 3 8v305l-102-41V220l-64-32v415l-85-34V108l1-4 1-3 2-1v-1l1-1 5-2 5-1 7-1h262l31 132h11L885 94l18-13 13-18-13-19-18-13H592l-14 1-14 2-11 4-13 7-11 9-8 10-6 12-4 13-3 13v442l-72-28-8 18 80 32v232l62-11 16-11-16-8V592l85 33v293l64-10 15-11-15-9V650l102 41v12l33 26 57-47-26-16V374l-1-10-1-11Z"/></symbol><symbol id="𬽔_S" viewBox="0 0 1000 1000" data-size="21"><path transform="matrix(1 0 0 -1 28 958)" d="m26 669 64-31h199l31 26 58-47-26-21V48l-63-31v51H90V32L26 0v669m596-38 63-11 15-11-15-9v-95l-5-75v-2h126l52 52 63-52v-21H677l13-44 17-46 19-43 20-39 24-36 24-33 27-28 31-27 32-23 59-34-59-46-38 26-35 30-32 34-27 37-24 38-21 42-17 46-12 47-9 49-16-63-22-60-28-53-35-49-39-42-46-35-49-29-57-22-4 9 50 31 44 33 38 37 32 42 26 46 23 50 17 56 11 60 3 39H385v21h234l1 6 2 71v126M289 351H90V90h199v261m0 266H90V372h199v245m195 29v-64l-63-31v295l63-10 16-11-16-10V666h138v249l63-10 15-10-15-10V666h136v180l64-10 15-11-15-10V613l-64-31v64H484M171 902l61-20 14-13-20-8-5-11-11-29-13-23-7-10-7-9-8-7h106l53 52 62-52v-21H0v21h162l2 6 1 20v11l1 11 1 13 1 13 1 30 1 11 1 15Z"/></symbol><symbol id="𬽕_J" viewBox="0 0 1000 1000" data-size="21"><path transform="matrix(1 0 0 -1 52 954)" d="M190 693h527l40 39c40-27 60-44 60-53 0-5-3-9-9-12l-25-15V463h-57v33H182v-43h-56v268c27-11 48-20 64-28m-8-25V521h138v147H182m544-147v147H578V521h148M524 668H374V521h150v147M419 91v241c-48-17-108-34-181-53l-12 23c138 42 252 100 344 173 44-27 66-47 66-59 0-6-6-10-20-10-10 0-20 2-32 4-19-12-35-21-51-29 30-54 70-104 121-149 48 42 93 96 134 161 52-28 78-49 78-63 0-9-8-13-26-13-1 0-9 1-24 2-32-34-79-69-140-106 65-51 138-91 221-121-18-14-34-33-46-58-159 75-274 186-344 334-10-4-20-8-31-14V97c64 7 125 17 184 32l5-25c-82-30-166-53-254-70-5-23-12-34-20-34-13 0-26 29-40 86 17 1 39 3 68 5m-1 698v118c66-1 99-8 99-22 0-8-14-17-43-26v-70h298l48 63c28-23 53-46 74-68l-10-20H21l-8 25h405M15 41 0 62c115 47 209 106 281 177 49-29 74-51 74-64 0-6-10-9-30-9-3 0-11 1-24 2-69-45-164-87-286-127m0 216L0 278c121 51 216 110 285 177 51-25 77-44 77-56 0-6-18-10-54-10-74-48-172-92-293-132Z"/></symbol><symbol id="𬽖_J" viewBox="0 0 1000 1000" data-size="21"><path transform="matrix(1 0 0 -1 43 950)" d="M612 334C576 234 502 132 392 27l-16 19c80 85 148 193 202 325-4-2-8-2-11-2-17 0-26 7-28 23-3 28-15 58-35 90-27-64-62-125-105-183l-19 13c57 107 93 222 110 347 58-16 87-30 87-40s-13-17-38-20c-8-34-16-64-26-91 25-19 43-34 53-46 16-17 25-35 27-54 6 16 12 33 19 53v240H423l-8 25h197v173c66-2 99-10 99-24 0-11-15-20-44-26V726h112l50 59c33-28 54-49 65-64l-9-20H667V458c11-27 19-47 25-60 31 83 52 170 63 261 58-16 87-30 87-40s-13-17-38-20c-5-22-16-51-31-87 71-52 107-102 107-149 0-22-10-33-30-33-16 0-25 8-28 23-10 52-30 97-58 137-18-42-39-81-61-118 50-105 120-196 210-272-22-19-38-38-47-56-55 60-98 118-128 174-31 56-55 119-71 187V1h-55v333M167 725v173c65 1 97-6 97-23 0-9-14-19-43-28V725h70l40 59c33-28 55-49 67-65l-12-19H183c49-9 73-19 73-31 0-7-12-14-35-21V547h69l34 44c38-29 57-49 57-58 0-5-3-9-8-12l-23-14V201c0-27-6-46-19-57-12-11-31-16-57-16-1 15-5 26-13 34s-22 14-40 19V0h-55v522H95V117H40v461c19-8 40-18 63-31h63v153H10L0 725h167m54-518c22-2 37-3 45-3 20 0 30 8 30 26v292h-75V207Z"/></symbol><symbol id="𬽗_S" viewBox="0 0 1000 1000" data-size="21"><path transform="matrix(1 0 0 -1 40 965)" d="M209 314H83v22h177l53 52 62-52v-22H271V70l-2-12-4-13-7-13-8-10-12-8-10-7-13-4-14-2-13-1v31l-84 16v16h90l5 1 5 1 1 1 1 1 1 2 1 3 1 5v237m291 542 63-31h257l32 27 58-48-26-21V461l-64-32v63H563V97l1-5 1-4 1-1v-1l2-1 1-1 3-1 5-1h281l32 131h9l-9-131 18-13 13-18-13-20-18-12H584l-14 1-12 2-13 4-12 6-11 9-8 11-6 11-5 13-2 14-1 13v753M5 323l52-36-21-13-23 5-13 21 5 23m52-36-40 27-6 4-6 5 5 5 6 10 5 13 6 16 5 20 5 22 5 26 10 58 3 34h9l4-34 3-23h326l32 26 57-48-26-15-11-5-21-44-26-48-10-18-9-17-9 3 4 19 6 39 3 18 3 16 2 16 3 16 1 13v7H73l1-15 1-28v-24l-1-23-3-20-3-19-5-16-6-16m25 448 63-31h181l31 26 58-46-26-22V539l-63-32v42H145l-63-31v217m581 69H563V513h100v291m157 0h-94V513h94v291M326 684H145V570h181v114M21 781v21h183v129l64-11 15-11-15-9v-98h66l53 52 62-52v-21H21Z"/></symbol><symbol id="𬽘_K" viewBox="0 0 1000 1000" data-size="21"><path transform="matrix(1 0 0 -1 52 929)" d="m757 437 16 22c8 10 13 16 14 16 3 0 9-6 17-16l30-28c10-13 15-22 15-27 0-6-13-10-39-12V127c0-58-14-92-41-104L728 5c-7-3-12-4-15-4-5 0-7 3-7 10v4c1 4 1 6 1 7 0 12-4 19-13 23l-79 28 4 11 87-18c7-1 14-2 20-2 27 0 41 27 41 80v272H559v-61c0-24 4-40 13-47 5-4 19-5 42-5h30c26 0 42 12 48 36l21 58 9-2-6-60c-1-10 5-18 17-22 13-5 20-11 20-18 1-20-30-29-92-29h-58c-32 0-54 5-67 14-14 11-20 33-20 66v70H373c-10-42-35-83-76-124-40-40-92-66-154-78l-6 14c56 13 102 44 137 93 34 45 50 76 50 95H123V63c0-34 0-51 1-49-1-4-9-7-23-10-8-3-13-4-15-4-4 0-7 2-8 6-1 2-1 9 0 20 0 8 1 12 2 11v378l-8 57 60-35h625M613 215c7-7 11-12 11-17 0-8-9-11-28-10V69c-2-3-9-7-23-11-8-4-13-5-16-5-5 0-7 3-7 10l2 26H330V54c-2-4-10-7-23-10-9-3-14-4-17-4s-5 1-6 4v14c1 11 1 19 1 26v124l-3 56 52-30h207l16 18c5 6 8 10 8 10 2 0 6-4 13-11l35-36m99 389c-1-13-15-22-44-25h-92c-27 0-47 5-59 16-9 7-13 20-13 39v112H389c-21-57-49-100-87-132-38-30-77-54-117-70l-7 12c86 42 139 105 157 190h212V638c0-13 4-21 14-23 3-2 11-3 23-3h28c11 0 21 2 30 5 8 3 14 11 17 23l12 70 15-4-2-67c-1-11 4-17 13-20 10-2 15-7 15-15m83-103c-1-3-8-8-20-15-9-4-15-7-17-7-4 0-6 4-7 12v22H142v-16c-2-3-9-8-22-15-8-3-13-5-16-5-4 0-6 18-6 55v138l-2 47 44-10c20-5 31-11 31-19 0-7-10-15-29-25V534h609v127l-2 47 43-11c18-4 26-9 26-16s-7-14-23-23V501M552 110v103H330V110h222M88 765h332v41l-1 52 57-10c16-3 24-7 24-13s-10-10-31-14v-56h303l47 51 66-45c8-6 11-11 10-15-3-4-12-6-27-6H111l-101-5-10 26 88-6Z"/></symbol><symbol id="𬽙_J" viewBox="0 0 1000 1000" data-size="21"><path transform="matrix(1 0 0 -1 36 949)" d="M142 624h177l35 45c38-31 57-51 57-59s-9-17-28-26V371h-54v45h-69V89c0-56-31-84-95-83 0 20-8 34-24 42-12 6-32 12-59 16v26c33-4 63-6 90-6 22 0 32 10 32 29v303h-74v-50H75v291c25-12 48-23 67-33m-12-25V441h199v158H130m560-344V25h-56v230H517V0h-55v619c26-12 48-23 65-33h107v118H452l-10 25h192v168c60-2 90-10 90-23 0-7-11-15-34-23V729h143l39 55c22-20 40-40 56-61l-10-19H690V586h118l36 45c40-32 60-52 60-61 0-4-2-7-7-10l-24-16V86c0-50-28-75-84-75 0 29-26 48-77 55v26c28-3 54-5 78-5 18 0 27 10 27 31v137H690m0 184h127v122H690V439m0-25V280h127v134H690m-56-134v134H517V280h117m0 159v122H517V439h117M200 747v150c66-1 98-8 98-22 0-8-13-17-41-27V747h86l40 62c25-24 45-47 61-68l-11-19H17l-8 25h191m613 15c-18 0-28 10-31 32-3 21-18 43-47 66l10 17c69-19 103-46 103-80 0-24-12-35-35-35M286 318l14 16c40-26 70-55 90-88 17-27 25-54 25-79 0-27-12-40-37-40-19 0-29 13-31 38-5 60-26 111-61 153M18 78 0 93c46 65 79 145 100 241 56-20 84-37 84-51 0-9-13-14-39-16-28-70-71-133-127-189Z"/></symbol><symbol id="𬽚_J" viewBox="0 0 1000 1000" data-size="21"><path transform="matrix(1 0 0 -1 49 959)" d="M157 558c-7-73-43-133-107-178l-16 16c49 50 74 118 74 204v172c23-8 43-17 61-27h135l31 34c36-23 54-39 54-48 0-4-3-7-7-10l-21-14V497c0-13-2-24-7-31 18 18 37 38 56 61 50-12 75-23 75-34 0-6-12-11-37-13l42-30c29 40 43 96 43 170v152c23-8 43-17 61-27h145l31 34c36-23 54-39 54-48 0-4-3-7-7-10l-21-14V469c0-41-26-62-77-62 1 24-24 40-76 47v23c33-3 59-5 80-5 16 0 24 8 24 24v62H580c-8-51-31-92-67-123 101-62 230-105 389-129-21-18-37-37-49-58-179 40-320 111-423 214C330 358 190 280 12 228L0 249c130 49 241 113 331 195-12-6-28-9-47-9 0 12-6 21-20 27-10 4-29 8-56 12v23c33-3 59-5 80-5 16 0 24 8 24 24v42H157m2 25h153v58H159v-58m0 83h153v54H159v-54m425-25v-28c0-13 0-23-1-30h164v58H584m0 25h163v54H584v-54M412 830v89c67-2 100-9 100-22 0-7-13-15-41-24v-43h300l49 59c29-21 53-43 72-66l-11-18H31l-11 25h392M133 0l-11 22c224 37 412 106 564 209 51-22 76-39 76-52 0-7-9-11-28-11-2 0-11 1-26 2C549 80 357 24 133 0m-5 186-12 21c137 45 245 106 325 184 46-21 69-37 69-48 0-6-8-9-22-9-1 0-8 1-22 2-84-64-196-114-338-150m7-90-11 22c176 41 319 105 429 191 49-21 73-37 73-49 0-7-8-10-25-10-3 0-11 1-24 2-131-78-278-130-442-156Z"/></symbol><symbol id="𬽛_S" viewBox="0 0 1000 1000" data-size="21"><path transform="matrix(1 0 0 -1 39 965)" d="M205 314H82v22h172l52 52 63-52v-22H269V84l-1-14-3-12-4-13-6-13-10-10-10-8-11-7-13-4-13-2-13-1v31l-84 16v16h89l5 1 3 1h2l1 1 1 1 1 2 1 3 1 5v237M847 24l-42 25-37 38-34 55-7 18-7-7-43-37-44-31-48-26-49-22-51-16-52-10-2 10 48 19 46 23 43 25 41 30 39 32 39 38 18 23-25 93-20 105H539v-63l-62-32v132l-24-13-12-5-29-59-16-33-11-18-9-17-9 3 5 19 8 57 2 16 5 32 2 13v7H73l1-15 1-28v-24l-1-23-2-20-4-18-5-17-6-16-23 16-25 17-4 2 5 6 6 10 5 13 6 16 5 20 6 22 9 54 5 30 3 34h9l4-34 3-23h319l32 26 55-45v325l62-31h92l-4 157v13l62-12 17-10-16-10 4-138h105l31 26 59-47-27-21V409l-63-31v31h-74l16-92 12-44 1 1 32 50 27 49 5 10 53-35 8-17-20-1-23-38-36-51-26-31 17-40 26-45 27-27 18-11 29 123h10l-9-132h1l21-11 8-21-10-22-22-8-43 8M5 322l52-35-20-13-23 5-14 21 5 22m637 255H539V430h118l-14 122-1 25m157 0h-95l17-147h78v147M81 735l63-31h176l32 26 57-46-26-22V539l-63-32v42H144l-63-31v217m239-51H144V570h176v114m312 40h-93V598h101l-8 115v11m167 0H695v-8l8-118h96v126m-35 80-2 9-3 8-7 19-9 18-12 20-7 8 5 8 9-7 12-4 11-6 10-6 20-15 9-8 8-9 7-9 8-11v-23l-16-18h-25l-16 17-2 9M22 781v21h178v129l64-11 15-11-15-9v-98h62l53 52 62-52v-21H22Z"/></symbol><symbol id="𬽜_J" viewBox="0 0 1000 1000" data-size="21"><path transform="matrix(1 0 0 -1 48 950)" d="M121 379c73 74 135 159 187 255 48-23 72-41 72-54 0-9-13-13-39-13-57-71-117-133-180-187 77 4 134 8 171 12-10 21-26 44-48 68l16 16c77-51 115-98 115-141 0-25-11-37-34-37-15 0-24 10-27 29-2 13-6 26-11 40-22-5-55-11-99-19V1h-56v338c-23-3-64-9-124-16-7-22-14-33-22-33-13 0-24 29-34 86 35 0 73 1 113 3m382 175 3-1h125c18 44 34 96 47 156 57-15 86-28 86-42 0-6-12-11-37-14-25-42-48-76-68-100h109l50 61c27-24 50-47 68-69l-11-17H688V403h57l46 52c24-19 45-39 64-60l-10-17H688V250h58l45 54c25-21 46-41 64-61l-11-17H688V83h97l53 62c25-22 47-45 67-69l-10-18H509V0h-56v484c-28-33-47-54-57-64l-20 18c37 46 65 91 85 135 15 33 33 83 54 150 58-17 87-32 87-43 0-9-14-15-43-18-15-37-34-72-56-108m6-304h123v128H509V250m123-24H509V83h123v143M509 403h123v125H509V403M124 576c22 37 43 85 63 144 52-19 78-34 78-46 0-8-12-12-37-13-31-42-59-76-84-102 23-24 35-44 35-63 0-24-11-36-34-36-13 0-21 8-25 25-11 39-39 78-86 117l15 19c26-12 51-27 75-45m301 194v130c67-1 100-9 100-23 0-8-14-17-41-28v-79h276l53 63c26-22 50-45 71-70l-10-18H47l-10 25h388M20 36 0 50c39 66 66 147 81 243 55-14 83-28 83-41 0-8-12-14-35-18C106 160 70 94 20 36m339 78c-17 0-26 11-27 33-1 44-19 93-54 148l17 13c66-54 99-105 99-153 0-28-12-41-35-41Z"/></symbol><symbol id="𬽝_J" viewBox="0 0 1000 1000" data-size="21"><path transform="matrix(1 0 0 -1 49 959)" d="M159 479v-43h-51v336c23-8 43-17 61-27h140l31 34c36-23 54-39 54-48 0-4-3-7-7-10l-21-14V478c13 14 28 30 44 49 50-12 75-23 75-34 0-7-13-11-37-13 113-89 264-147 454-174-21-18-37-37-49-58-179 40-320 111-423 214C330 358 190 280 12 228L0 249c142 53 259 124 350 213h-33v17H159m0 25h158v58H159v-58m0 83h158v54H159v-54m0 79h158v54H159v-54m420-187v-33h-51v326c23-8 43-17 61-27h150l31 34c36-23 54-39 54-48 0-4-3-7-7-10l-21-14V436h-49v43H579m0 25h168v58H579v-58m0 137v-54h168v54H579m0 25h168v54H579v-54M412 830v89c67-2 100-9 100-22 0-7-13-15-41-24v-43h300l49 59c29-21 53-43 72-66l-11-18H31l-11 25h392M133 0l-11 22c224 37 412 106 564 209 51-22 76-39 76-52 0-7-9-11-28-11-2 0-11 1-26 2C549 80 357 24 133 0m-5 186-12 21c137 45 245 106 325 184 46-21 69-37 69-48 0-6-8-9-22-9-1 0-8 1-22 2-84-64-196-114-338-150m7-90-11 22c176 41 319 105 429 191 49-21 73-37 73-49 0-7-8-10-25-10-3 0-11 1-24 2-131-78-278-130-442-156Z"/></symbol><symbol id="𬽞_S" viewBox="0 0 1000 1000" data-size="21"><path transform="matrix(1 0 0 -1 16 970)" d="M166 352H72v20h146l43 48 52-48v-20h-84V70l-2-12-5-13-7-13-8-10-11-8-11-7-13-4-14-2-12-1v31L72 47v16h79l5 1 5 1 2 2 2 5 1 5v275M411 33l-22 25-8 6v1l-7 7-4 5-2 2 96 73v268h-84v20h84l31 27 59-47-27-22V178l-4-2 27-30 20-18 23-14 28-10 35-8 45-5 57-1 68 2 84 6 4-70-86-3-72 2-61 6-50 10-41 15-34 19-26 23-19 27-12 28-4 14-2-1-23-36-31-46-27-35 4-22-19 4m503-2v1l-1 11v4l-1 11v12l-1 1v13l-1 2v12l58 4-54-74v3M368 79l43-46-51 38 8 8m464 825 37-50 1-19-20 9-37-19-22-9-22-8-51-16-28-7-28-7h-1V614h153l53 53 64-53v-20H819V158l-62-31v467h-96v-31h-63v261l56-28 117 63 34 24 27 21M661 563l-2-58-5-54-6-51-7-47-10-43-12-40-14-37-15-33-19-28-20-23-8 5 11 28 9 30 9 32 8 35 7 39 5 42 4 46 2 49 1 52-1 56h63M6 414l50-40-22-11-22 7-12 21 6 23m52 134 2-24 2-13h264l31 26 58-47-26-15-16-7-15-24-14-21-18-23-7-13-8 4 4 14 2 15 2 14 3 24 2 12 1 11 1 9H64l1-9 2-19 1-18v-15l-1-15-2-14-3-13-6-13-31 24-2 2-5 5-9 7-3 2 4 1 4 5 5 7 5 11 4 12 10 32 4 20 4 22 2 24h10m394 32-12 25-19 38-8 10-16 24-9 9 5 7 12-6 14-6 13-7 12-9 26-19 22-24 21-26 2-24-15-19-23-2-20 14-5 15M62 761l62-32h142l32 27 57-48-26-20V588l-63-32v32H124l-62-32v205m204-53H124V608h142v100m212 70-5 13-12 25-7 12-21 37-10 10 6 8 11-8 14-7 14-9 11-8 24-21 21-24 10-14 9-14 1-24-16-18-24-1-18 17-8 26M20 798v20h146v121l63-10 16-11-16-9v-91h27l52 53 63-53v-20H20Z"/></symbol><symbol id="𬽟_K" viewBox="0 0 1000 1000" data-size="21"><path transform="matrix(1 0 0 -1 59 936)" d="m883 724-5-16h-85v-94c0-25 0-39-1-41-1-1-7-4-21-8-7-2-12-2-15-2s-5 1-6 3c-1 3-1 8 0 16 1 12 1 23 1 31v95h-76c-15-77-44-132-88-165l-10 7c42 50 64 118 64 204 0 16-1 33-2 50l-3 43 45-23c37-1 88 14 154 45l22-25c9-9 13-17 13-22 0-4-3-6-9-6-7 0-17 3-30 8-51-15-102-23-150-21 0-39-1-63-2-74h121l18 24c9 13 15 19 16 19 3 0 10-6 21-18l28-30M860 58c7-14 10-26 10-36 0-14-4-21-14-21-9 0-20 8-31 23-34 47-94 87-180 121l4 9c125-37 195-70 211-96m-338 81c12-9 17-16 17-21 0-4-5-7-16-7-6 0-15 1-25 3C445 65 374 27 285 0l-6 10c34 11 71 33 113 63s73 62 93 95l37-29m247 270v89H429v-89h340m0-105v85H429v-85h340m0-106v86H429v-86h340M378 730l-7-15H18v21h154v95l-3 41 38-10c17-4 25-9 25-16s-8-13-26-20v-90h104l9 20c7 12 11 18 13 18 3 0 8-5 18-16l28-28m-219-77c10-4 14-10 13-18 0-6-10-8-29-7-24-57-64-112-122-164l-10 8c19 23 39 53 58 91 21 37 36 75 48 115l42-25m151-497c0-18-7-28-19-30-8 0-17 12-24 37-11 30-29 64-54 103-29-55-60-102-92-141C89 87 51 49 6 12L0 22c31 28 66 69 104 122 37 53 67 104 87 154-31 44-66 86-104 127l5 7c35-28 72-64 110-109 30 65 51 132 64 199l44-23c9-6 13-12 13-19 0-5-9-10-27-13-16-57-38-115-66-172 53-62 80-108 80-139m513 352c11-12 16-20 16-24s-9-7-27-9V198c0-26 0-39 1-38-2-4-9-7-22-11-8-2-14-3-18-3-2 0-4 1-5 3v10c0 9 1 15 1 19H429c0-15 0-22 1-21-2-2-9-5-24-8-6-2-11-3-14-3-4 0-6 1-6 5-2 3-2 9 0 17 0 14 1 24 1 32v297l-4 45 49-24h327l15 17c8 9 12 13 13 13s6-5 14-14l22-26m-471 56c2-10 3-19 3-27 2-17-4-26-18-24-5 0-9 5-14 15-26 53-60 98-100 134l3 9c37-22 65-41 84-57 13-12 24-23 31-32 28 36 43 97 43 181 0 13-1 26-1 39l-3 41 46-19c15 0 41 4 77 13s66 20 89 33l23-26c9-11 14-18 14-23 0-3-3-5-8-5-7 0-18 3-33 8-40-12-95-19-162-21 0-34-1-59-3-74h114l20 24c9 12 14 18 14 18 2 0 9-5 20-17l30-31-5-15h-85V574c-2-4-10-8-24-11-7-2-12-3-15-3-2 0-4 1-5 4v17c1 12 1 23 1 32v95h-68c-13-70-36-116-69-140 0-1 0-2 1-4Z"/></symbol><symbol id="𬽠_J" viewBox="0 0 1000 1000" data-size="21"><path transform="matrix(1 0 0 -1 44 951)" d="M386 473h127l30 29c34-22 51-38 51-46 0-3-1-5-3-6l-20-14V318h-52v34H380v-34h-52v179c22-8 41-16 58-24m-6-25v-71h139v71H380m459 106c-7 13-16 27-28 40l15 12c55-31 83-63 83-95 0-21-10-32-30-32-13 0-21 11-24 31-1 5-3 12-5 20-32-7-56-12-72-14V310h-53v195c-4 0-19-2-44-6-15-3-28-4-37-5-6-18-12-26-19-26-12 0-21 24-29 72 22 0 51 0 86 2 53 54 98 112 137 173 41-20 62-36 62-48 0-6-7-9-21-9-5 0-9 0-12 1-35-37-77-76-126-117 35 2 74 6 117 12M88 543c53 55 97 112 130 173 43-18 64-33 64-45 0-7-11-10-35-10-34-38-75-77-124-116 27 1 68 4 123 8-7 17-16 32-27 46l13 14c52-28 78-60 78-94 0-21-10-31-30-31-12 0-20 8-23 26l-3 15-69-13V310h-53v198c-31-5-59-9-83-11-5-16-10-24-16-24-12 0-20 23-25 69 35 0 62 1 80 1m593 134c16 33 29 68 39 106 45-18 68-32 68-43 0-8-11-12-32-14-13-21-31-43-54-67 13-15 20-29 20-41 0-21-10-31-30-31-13 0-22 9-27 26-9 30-28 57-58 82l13 14c22-7 42-18 61-32M416 813v89c67-2 100-9 100-22 0-7-14-15-41-24v-43h307l49 59c28-21 52-43 72-66l-11-18H25l-11 25h402m-9-689c-66 32-126 75-182 129H98l-12 25h562l35 40c48-35 72-58 72-69 0-6-4-9-12-11l-37-9c-52-39-111-74-178-104 115-34 243-52 383-55-19-18-36-38-49-61-149 10-282 40-399 89C328 45 181 13 21 0L8 25c145 19 278 52 399 99m55 23c72 32 132 67 181 106H266c17-14 38-28 62-43 42-25 87-46 134-63M97 684c16 30 28 63 37 101 47-14 70-26 70-36 0-7-10-11-31-14-20-27-39-50-57-68 13-14 19-27 19-40 0-19-10-29-29-29-14 0-23 8-28 24-8 26-28 53-61 82l13 15c22-7 45-19 67-35m240-96-9 25h168l33 24c20-12 35-23 46-32l-9-17H337m3-68-7 25h163l33 27c20-13 35-24 46-35l-9-17H340m2 198-9 25h157l36 40c20-17 37-33 49-47l-9-18H342m-35-66-12 25h230l36 29c20-12 37-24 52-36l-10-18H307m-45-310c-14 0-22 10-24 31-3 35-14 70-33 103l16 11c48-37 72-73 72-108 0-25-10-37-31-37m613-9c-15 0-24 10-27 31-5 29-21 63-49 100l15 13c59-39 89-76 89-111 0-22-9-33-28-33m-261-18-19 10c24 43 40 92 49 149 45-12 67-23 67-34 0-7-9-11-27-14-15-40-38-77-70-111m-594-8L0 318c25 51 42 103 51 156 46-12 69-24 69-34 0-7-10-12-30-15-14-39-37-79-70-118Z"/></symbol><symbol id="𬽡_J" viewBox="0 0 1000 1000" data-size="21"><path transform="matrix(1 0 0 -1 53 925)" d="M300 408c61-44 107-87 138-130 23-28 35-55 35-80 0-10-3-18-9-24-6-7-14-10-23-10-15 0-26 11-34 34-19 59-58 120-119 182C229 241 140 118 19 12L0 30c109 110 189 240 242 388 35 98 61 217 78 355H35l-10 25h286l44 52c48-41 72-66 72-74 0-5-4-9-11-12l-32-14c-18-132-46-246-84-342m369-80C581 185 468 76 330 0l-19 20c136 86 245 211 328 374 61 121 100 247 118 379H467l-10 25h291l44 52c45-38 67-63 67-74 0-4-4-8-11-12l-27-14c-22-144-68-276-137-396 69-57 125-119 168-187 27-42 41-79 41-109 0-27-11-41-33-41-17 0-29 15-37 46-22 85-74 173-154 265Z"/></symbol><symbol id="𬽢_K" viewBox="0 0 1000 1000" data-size="21"><path transform="matrix(1 0 0 -1 53 956)" d="M894 98c-6-21-61-32-165-32H522c-67 0-108 9-123 25-11 11-16 46-16 106l-6 673 58-21h281l13 14c8 9 13 13 15 13s7-4 16-11l30-22c15-12 23-20 23-26 0-4-5-8-14-11-9-4-17-7-26-9V461c0-20-3-36-9-46-4-6-15-15-32-25l-35-14c-4-1-7-1-10-1-10 0-14 6-15 18s-7 20-20 25l-92 29 4 10 93-18c10-1 19-2 27-2 30 0 45 18 45 56v335H426V167c0-23 6-39 18-48 13-8 34-13 63-13h205c32 0 56 3 71 7 24 9 41 25 52 47l37 125 9-5-16-108c0-7-1-12-1-16 0-13 5-24 15-33 10-8 15-17 15-25M303 891c18-8 27-14 27-21 0-6-12-12-37-16-24-75-55-143-92-204 19-7 28-14 28-18 0-5-8-11-25-18V21c-1-7-8-13-20-17-7-3-12-4-15-4-6 0-9 2-11 7v23c1 21 1 36 1 44v507c-14-30-38-65-71-104-33-40-60-68-81-83l-7 8c51 54 101 132 151 234 49 97 82 189 101 275l51-20Z"/></symbol><symbol id="𬽣_J" viewBox="0 0 1000 1000" data-size="21"><path transform="matrix(1 0 0 -1 39 948)" d="M150 509c-38-67-81-129-130-186L0 338c105 152 184 338 237 558 64-17 96-32 96-46 0-9-15-17-46-23-25-76-53-148-84-216 28-6 42-14 42-22s-12-17-36-26V0h-59v509m579 16V89c0-54-35-80-105-79-1 19-13 33-35 42-16 5-53 13-111 22v27c52-6 103-9 153-9 27 0 40 11 40 32v401H309l-9 25h495l55 69c28-25 52-50 72-75l-11-19H729M396 779l-10 25h362l55 67c28-24 52-48 72-72l-12-20H396Z"/></symbol><symbol id="𬽤_J" viewBox="0 0 1000 1000" data-size="21"><path transform="matrix(1 0 0 -1 59 929)" d="M267 470c-38-54-89-103-153-145l-17 17c82 77 139 169 172 276 61-12 91-25 91-38 0-7-15-13-45-18-7-21-18-43-32-67 48-17 86-39 114-66 24-21 36-41 36-58 0-25-12-38-35-38-13 0-24 10-32 29-16 40-49 76-99 108m257-182H11L0 313h521v322H59l-10 25h472v199c70-3 105-12 105-27 0-8-15-18-46-29V660h145l51 71c26-26 49-52 68-77l-10-19H580V313h173l57 75c27-26 51-53 72-80l-12-20H583V0h-59v288Z"/></symbol><symbol id="𬽥_G" viewBox="0 0 1000 1000" data-size="21"><path transform="matrix(1 0 0 -1 35 975)" d="M341 842h484l32 39 66-49c5-3 8-6 7-8-1-1-6-2-13-2H593V582c69-29 130-63 181-102 52-41 82-75 90-101 10-27 7-43-8-48s-29 7-44 36c-15 30-41 62-78 97-31 29-78 60-141 94V146l4-94c-1-23-19-38-56-45 3 25 6 87 7 185v630H418c-16 1-31-3-44-12l-33 32m-78 107 88-43c5-5 4-10-1-14-15 1-26-4-33-13-27-70-56-133-86-190V140l3-95c1-23-17-38-55-45 3 25 6 87 7 185v426C132 526 73 459 8 412l-8 11c87 97 157 202 208 315 47 105 68 162 64 172-5 11-10 21-15 31l6 8Z"/></symbol><symbol id="𬽦_J" viewBox="0 0 1000 1000" data-size="21"><path transform="matrix(1 0 0 -1 39 950)" d="M499 379c85-60 128-108 128-145 0-24-9-37-28-37-15 0-26 5-31 14-21 35-49 71-83 107l-12-39C432 159 358 66 251 0l-17 22c87 68 149 163 185 285 6 19 11 39 15 60-40 37-85 69-135 98l15 20c47-23 90-46 129-69 9 65 14 128 14 190H272l-9 25h194v248c68-1 102-9 102-25 0-8-14-18-42-29V636h152l39 50c42-33 63-55 63-66 0-4-3-8-8-12l-28-17V109c0-13 3-22 10-27 5-4 14-6 27-6 34 0 54 9 60 28 10 28 18 90 23 187l27-13v-40c0-69 3-113 9-129 5-12 15-19 31-21-1-28-12-46-34-54-17-6-52-9-105-9-46 0-75 6-88 17-12 9-18 29-18 58v511H517c-3-98-9-176-18-232M200 604c31-6 47-14 47-23s-14-18-41-27V1h-58v506c-39-66-81-126-127-180L0 343c106 156 187 341 242 556 63-15 95-30 95-45 0-11-15-18-46-21-25-79-55-155-91-229Z"/></symbol><symbol id="𬽦_S" viewBox="0 0 1000 1000" data-size="21"><path transform="matrix(1 0 0 -1 34 964)" d="m281 928 55-32 11-15-19-3-18-40-57-112-64-109-4-8 33-5 15-11-15-10V31L154 0v563l-32-47-36-49-39-47-40-45-7 6 93 153 58 106 54 109 50 113 26 66m274-677-17 32-24 40-15-49-27-67-33-59-38-48-44-40-48-30-54-19-3 10 46 27 41 33 35 40 31 49 26 56 22 63 17 73 2 15-28 29-61 57-71 56 4 7 43-19 40-22 38-23 35-26 7-7 3 13 7 90 3 98v16H305v20h187v236l63-9 15-11-15-10V666h121l31 26 58-46-27-22V104h-62v542H555v-16l-6-102-11-92-11-51 34-38 25-34 21-34 21-37v-24l-17-18h-24l-18 17-14 34M760 21h-13l-14 2-12 5-12 7-11 8-9 11-5 11-5 13-2 14-1 12h62l1-5 1-5 1-3 1-2 2-2 5-2 5-1h115l31 131h10L900 84l19-13 13-19-13-19-19-12H760Z"/></symbol><symbol id="𬽧_J" viewBox="0 0 1000 1000" data-size="21"><path transform="matrix(1 0 0 -1 31 948)" d="M657 415c-43-112-103-204-181-276C419 86 351 41 273 2l-16 22c128 80 224 178 289 295 57 101 96 227 118 379H492c-36-140-96-262-181-366l-23 15c90 143 148 324 174 544 67-9 101-20 101-35 0-8-15-16-44-23-8-48-15-84-21-110h159l39 48c42-36 63-59 63-69 0-4-2-8-7-10l-30-18c-12-79-28-151-50-217 54-150 142-274 266-371-24-18-42-37-56-57-109 117-184 245-225 386M145 531c-35-70-76-136-124-198L0 350c94 143 163 326 208 547 67-13 100-27 100-43 0-10-16-17-49-22-26-89-52-162-77-220 39-7 58-16 58-26 0-8-12-17-38-26V0h-57v531Z"/></symbol><symbol id="𬽨_K" viewBox="0 0 1000 1000" data-size="21"><path transform="matrix(1 0 0 -1 63 935)" d="m873 473-6-10c-19 1-32-4-39-14-2-7-6-11-11-11-6 0-18 7-34 21-118 104-206 216-264 338-26-61-65-126-118-194-52-68-115-125-189-170l-10 7c64 45 124 112 182 201 58 88 95 164 112 228l52-21c15-9 22-16 22-21 0-7-14-12-42-14 38-75 93-148 166-217 67-62 127-103 179-123M255 848c18-9 27-17 27-23s-12-12-36-15c-18-58-43-116-73-172 14-7 21-13 21-18 0-4-7-10-21-16V65c0-31 0-46 1-43-1-7-10-13-26-18-6-3-11-4-13-4-3 0-5 2-6 7-1 2-1 10 0 21 1 16 1 29 1 40v492c-16-32-38-65-65-99-23-31-42-53-57-66l-8 7c40 53 81 124 123 212 46 97 75 182 89 255l43-21M530 58c0-29 1-41 1-37 0-5-7-11-19-16-8-3-14-5-17-5-4 0-6 2-7 6 0 3-1 10-1 19 1 15 1 26 1 33v505l-3 35 43-13c26-7 38-15 38-22 0-8-12-15-36-21V58Z"/></symbol><symbol id="𬽩_J" viewBox="0 0 1000 1000" data-size="21"><path transform="matrix(1 0 0 -1 37 948)" d="M480 486c-50-123-120-234-210-333l-23 19c108 139 187 307 236 503H300l-9 25h198c14 62 26 125 36 191 67-13 101-27 101-42 0-9-15-17-45-23-11-51-22-93-31-126h252l53 75c27-27 51-54 71-80l-11-20H543c-11-41-22-77-33-108 46-5 69-14 69-25 0-8-14-17-43-27V311c114 53 202 116 265 189 46-31 69-53 69-67 0-12-16-14-47-6-74-58-169-107-287-145V114c0-18 6-29 16-33 10-5 52-7 125-7 42 0 77 3 106 8 27 5 42 11 45 19 11 25 18 73 21 145l28-11c0-61 2-99 6-116 5-20 18-29 38-29-1-32-15-51-42-58-28-8-92-12-194-12-108 0-171 7-188 21-11 9-17 29-17 61v384m-328 30c-38-67-82-130-131-191L0 341c103 149 182 334 237 556 63-17 95-33 95-48 0-9-15-16-44-20-28-86-58-161-90-225 35-7 52-15 52-25 0-9-13-18-39-27V0h-59v516Z"/></symbol><symbol id="𬽪_S" viewBox="0 0 1000 1000" data-size="21"><path transform="matrix(1 0 0 -1 41 964)" d="m290 928 56-32 10-15-19-3-48-97-29-55-32-55-33-54-6-8 35-5 15-11-15-10V31L160 0v565l-35-49-37-49-39-47-41-45-8 6 97 153 59 106 30 54 52 112 49 115h1l2 7m98-119 62-32h380l31 27 58-48-25-21V67l-64-31v53H450V52l-62-31v788m442-376H450V109h380v324m0 323H450V453h380v303Z"/></symbol><symbol id="𬽫_G" viewBox="0 0 1000 1000" data-size="21"><path transform="matrix(1 0 0 -1 41 973)" d="m626 946 89-35c9-3 11-7 6-11-14-5-24-12-29-21V409l127 27 21 46 71-34c7-3 9-5 7-8s-8-5-17-6l-209-45V145l1-95c1-23-16-38-53-45 3 25 6 87 7 185v189l-294-61c-22-6-37-15-44-26l-38 26 376 81v490c1 11-9 26-30 45l9 12M355 619l3 13c73-29 120-61 139-96 21-43 19-70-8-82-10-1-19 11-26 37-7 25-20 49-38 70-19 21-42 41-70 58m38 214 6 11c63-17 108-44 135-79 25-40 25-66-2-77-12-2-22 7-29 27-6 19-17 39-33 60-15 19-41 39-77 58M262 944l78-36c11-6 14-12 7-17-8-1-19-5-32-13-32-79-63-146-94-201V140l4-95c1-23-18-38-56-45 3 26 6 76 7 151v450C123 519 67 455 7 409l-7 12c83 93 150 195 199 304 52 113 77 174 74 183-3 8-8 17-17 28l6 8Z"/></symbol><symbol id="𬽫_J" viewBox="0 0 1000 1000" data-size="21"><path transform="matrix(1 0 0 -1 41 948)" d="m676 298-402-87-16 29 415 89v555c70-5 105-15 105-30 0-9-15-17-45-25V341l83 18 37 82c26-25 48-48 65-71l-8-22-174-37V0h-60v298M150 541c-37-74-80-143-129-208L0 350c94 143 163 326 208 547 67-13 100-27 100-43 0-10-16-17-49-22-25-85-50-158-76-220 41-6 62-15 62-26 0-8-13-17-38-26V0h-57v541m409 73c-16 0-28 11-36 34-17 47-57 91-120 131l11 19c51-17 95-41 129-70 32-27 48-53 48-76 0-26-11-38-32-38m-74-233c-16 0-28 12-36 37-16 49-56 96-120 138l11 20c57-21 103-48 136-79 28-27 42-52 42-76 0-27-11-40-33-40Z"/></symbol><symbol id="𬽬_G" viewBox="0 0 1000 1000" data-size="21"><path transform="matrix(1 0 0 -1 49 977)" d="m376 782 53-37h381l36 40 50-48c5-4 6-7 5-10s-4-6-11-7l-17-9V542l4-78c1-15-3-25-11-31-7-6-20-10-38-12v71H435c-4-203-64-359-179-470l-9 11c68 101 110 193 125 276 10 47 16 102 19 166 3 63 4 148 2 254-3 14-12 29-25 44l8 9m63-57c1-81 0-152-3-213h392v213H439M222 952l86-44c11-5 13-10 6-15-14-2-26-7-36-15-29-75-55-136-79-183V140l2-95c1-21-17-36-54-45 3 25 6 91 7 197v412c-48-85-95-148-142-188l-12 7c62 84 118 183 167 296 48 109 70 172 66 187-4 13-10 24-17 33l6 8m239-10 6 11c47-13 86-28 119-44 30-17 51-35 63-52 11-19 16-35 15-50s-9-24-22-25c-13-2-24 9-32 33-11 27-28 49-51 66-21 17-53 38-98 61Z"/></symbol><symbol id="𬽭_G" viewBox="0 0 1000 1000" data-size="21"><path transform="matrix(1 0 0 -1 30 973)" d="m485 939 96-28c9-3 11-8 6-13-9-3-21-9-35-17V710h155l34 37 49-46c5-3 7-6 6-9s-4-5-10-6l-19-8V434h48l34 43 66-49c7-5 10-9 9-11-2-3-8-4-19-3H604c16-57 32-101 49-132 32-66 74-117 126-153 24-17 47-31 70-43 22-11 52-21 90-30l-1-14c-29 1-49 0-60-3-12-3-22-11-30-23-111 62-185 142-222 240-17 43-31 96-42 158h-43C518 233 415 95 231 0l-4 14c161 112 250 245 268 400H331c-16 1-31-3-44-12l-33 32h244c1 12 2 24 3 37 3 60 5 133 6 219H377c-11 1-23-3-35-12l-31 32h196v179c-7 17-16 31-28 42l6 8m-265 7 82-40c11-7 14-12 7-15-8-1-19-6-32-17-27-66-53-126-80-179V149l2-95c1-24-16-39-51-45 4 37 6 99 6 185v421c-45-81-93-143-142-188l-12 7c66 89 122 187 169 294s68 166 63 178-11 23-18 32l6 8m324-512h178v256H552c-1-72-2-138-4-199-1-20-2-39-4-57Z"/></symbol><symbol id="𬽮_J" viewBox="0 0 1000 1000" data-size="21"><path transform="matrix(1 0 0 -1 39 948)" d="M145 531c-35-70-76-136-124-198L0 350c94 143 163 326 208 547 67-13 100-27 100-43 0-10-16-17-49-22-26-89-52-162-77-220 39-7 58-16 58-26 0-8-12-17-38-26V0h-57v531m410 127v135H317l-10 25h477l50 62c27-23 50-45 67-67l-10-20H614V658h190l50 62c28-23 50-45 67-67l-10-20H614V501h165l37 45c40-31 60-52 60-63 0-4-2-8-8-11l-24-14V192c0-55-30-83-89-83-2 19-8 31-18 38-11 7-34 14-68 20v26c29-5 58-7 89-7 20 0 30 10 30 30v260H614V0h-59v476H394V102h-56v431c17-7 39-18 66-32h151v132H297l-10 25h268Z"/></symbol><symbol id="𬽯_S" viewBox="0 0 1000 1000" data-size="21"><path transform="matrix(1 0 0 -1 41 957)" d="m200 913 58-26 12-15-19-5-35-95-44-108-25-53-5-11 28-5 16-10-16-10V32L106 0v530l-38-68-29-46-31-45-8 5 86 201 60 159 54 177m620-31 64-53v-20H379V87h423l52 53 64-53V66H379V50l-64-31v842l64-32h390l51 53M473 669l62-31h205l31 26 58-47-25-21V257l-64-32v63H535v-63l-62-32v476m267-52H535V309h205v308Z"/></symbol><symbol id="𬽰_S" viewBox="0 0 1000 1000" data-size="21"><path transform="matrix(1 0 0 -1 35 963)" d="m208 926 58-28 12-14-19-4-35-97-47-110-25-54-6-11 29-4 15-11-15-10V31L111 0v541l-41-73-31-47-31-45-8 4 90 204 42 107 38 112 36 115 2 8m643-8 63-10 16-11-16-9V89l-1-13-2-13-5-13-6-12-8-11-11-8-12-7-13-4-12-2-14-1v31l-84 16v15h84l7 1 4 1 5 2 1 1 1 1 1 1 1 4 1 5v835m-299-31 62-53v-21H479V509h63l53 53 63-53v-21H479V36L416 5v483H244v21h172v304H277v21h222l53 53m137-47 64-11 16-11-16-8V210l-64-32v662Z"/></symbol><symbol id="𬽱_G" viewBox="0 0 1000 1000" data-size="21"><path transform="matrix(1 0 0 -1 34 975)" d="m385 918 40-46h307l34 39 51-48c5-3 6-7 5-10s-4-5-11-6l-17-9V707l3-51c5-26-11-40-48-43v45H433v-26c1-24-16-39-52-45 1 5 1 7 1 5 3 30 5 51 6 64v209c-3 16-9 30-17 41l14 12m447-603c-4-4-9-33-14-86s-14-94-28-122c-21-48-76-79-163-94 1 16-8 30-29 43-15 5-38 13-71 24-13 4-22 7-29 9l3 20c39-9 79-18 119-26 46-4 81 3 106 21 25 17 41 56 47 116 1 16 3 36 6 60 3 30 5 47 5 50H466l-36-35-47 55c10 3 22 10 35 21l56 130H356c-17 1-32-4-44-13l-33 33h545l33 41 68-51c5-3 8-6 7-8-1-1-6-2-13-2H520l-66-151h314l32 39 58-52c3-6 1-10-6-11l-20-11M433 678h316v174H433V678M226 949l92-48c6-1 9-3 10-6s0-6-3-9c-14 1-28-3-42-14-17-43-40-97-68-160l-9-19V140l4-95c2-23-16-38-54-45 3 25 6 87 7 185v422C113 519 62 452 11 405l-11 6c68 95 126 198 174 310 47 112 68 175 64 190-7 13-13 23-18 30l6 8Z"/></symbol><symbol id="𬽲_K" viewBox="0 0 1000 1000" data-size="21"><path transform="matrix(1 0 0 -1 55 945)" d="M891 70c0-11-8-19-22-23-17-5-48-7-94-7H487c-50 0-83 9-97 27s-21 64-21 138v191l-108-32-3 19 111 34v167l-3 43 38-9c27-7 40-14 40-20 0-4-10-12-31-25V430l136 41v172l-2 40 40-10c26-7 39-13 39-20 0-6-11-14-33-24V484l134 40 9 24c5 12 9 17 13 17 2 0 9-3 21-9l32-21c10-9 15-16 15-20 0-6-11-12-33-20 1-81-1-139-8-172-9-40-27-69-55-87l-17-8c-7-4-12-5-16-5-5 0-8 6-8 17 0 13-4 21-10 25l-60 22 4 10 61-11c6-1 11-2 15-2 25 0 40 17 46 50 7 30 9 88 7 175l-150-45V175c-2-7-8-14-21-23-8-5-13-7-15-7-6 0-8 5-8 17v289l-136-41V176c0-38 3-63 10-75 10-17 33-26 69-26h276c20 0 36 3 45 9 11 6 18 19 23 38l24 105 15-3-13-99c-2-13 2-24 12-32 10-9 16-16 17-23M261 868c18-9 27-17 27-23 0-7-12-12-36-16-25-73-51-131-75-176 15-7 23-13 23-19 0-5-8-10-23-15V67c0-30 0-45 1-44-2-7-11-14-27-19-6-3-11-4-13-4-4 0-6 2-6 7-1 2-1 10 0 22 0 16 1 30 1 41v503c-17-32-39-66-67-101-24-32-43-55-58-68l-8 8c41 54 83 126 126 217 46 99 76 186 91 261l44-22m580-129-5-15H396c-37-67-82-126-134-179l-12 8c76 85 130 195 160 331l46-17c18-6 26-12 26-18s-12-12-36-17c-10-31-23-60-39-87h320l33 43c6 7 11 11 12 11 3 0 8-3 15-10l54-50Z"/></symbol><symbol id="𬽳_S" viewBox="0 0 1000 1000" data-size="21"><path transform="matrix(1 0 0 -1 42 963)" d="m262 927 56-30 11-15-19-3-43-97-57-111-30-53-6-10 32-4 16-11-16-10V31L144 0v558l-62-91-36-47-38-45-8 6 87 153 55 105 49 109 46 113 25 66m128-429-2-72-5-68-6-62-8-58-11-52-11-47-15-43-17-37-19-32-22-24-5 5 13 28 12 32 11 36 9 42 8 46 6 52 5 56 4 60 1 68v70h52M854 25l-21 21-19 32-15 44-15 61-12 80-9 103-6 130-3 159 3 179H390V498h-52v384l52-27h368l31 27 58-48-27-16h-1l-2-164 2-157 7-127 9-100 12-77 11-53 6-17 21 87h11L885 82l4-4 20-12 6-23-12-21-23-6-26 9M548 799l53-10 12-11-12-8V655h63l29 26 55-47-26-19V238h-58v396h-63V49l-53-27v612h-69V179l-47-24v524l47-24h69v144m174-561v-12l-3-13-3-12-6-11-7-10-9-9-11-7-11-4-13-3-13-1v30l-42 14v14h42l6 1 3 1 4 1 1 1v1l3 7v5l1 7h58Z"/></symbol><symbol id="𬽴_S" viewBox="0 0 1000 1000" data-size="21"><path transform="matrix(1 0 0 -1 29 963)" d="m223 926 57-28 12-14-20-4-37-97-49-110-26-54-6-11 30-4 15-11-15-10V31L120 0v546l-47-78-31-47-34-45-8 4 97 205 45 107 41 111 40 123M815 50l-60 24-56 30-50 34-33 27-47-37-52-33-57-29-63-22-66-17-2 9 62 27 56 29 51 33 47 35 40 37-20 22-33 47-28 50-21 55-13 54h-7l-17-55-30-82-34-71-39-62-42-52-47-40-50-31-6 9 43 36 38 44 35 53 32 60 28 71 25 79 23 89 18 97 2 18H219v20h227l9 71 10 95-36-5-56-6-57-5-56-1-1 9 164 37 104 27 52 15 100 32 96 38 3-10 46-39 1-16-20 8-58-19-103-29-52-13-54-11-9-2-14-113-11-63h301l52 53 63-53v-20H501l-27-127-5-15h251l31 26 59-47-27-16-10-4-14-40-28-56-33-52-38-48-8-8 28-19 48-28 51-22 57-20 106-26-61-57-66 21M715 425H481l22-46 28-48 32-44 35-39 17-16 8 8 31 46 27 49 23 53 11 37Z"/></symbol><symbol id="𬽵_S" viewBox="0 0 1000 1000" data-size="21"><path transform="matrix(1 0 0 -1 30 964)" d="m267 928 55-32 12-14-20-3-43-98-57-110-37-63 32-4 16-11-16-10V31L146 0v559l-63-92-37-47-39-45-7 6 88 153 56 106 51 109 47 112 21 54 4 13m221-2 59-28 11-14-18-4-61-152-48-109-6-11 28-4 16-11-16-10V31L391 0v544l-44-76-31-47-32-45-9 4 93 204 63 163 38 112 19 67m272-296H495v20h265v274l62-11 16-11-16-8V650h22l43 48 52-48v-20H822V76l-2-13-5-13-6-12-8-11-11-8-12-7-12-4-14-2-14-1v31l-73 16v15h73l7 1 5 1 5 2 2 2 2 5 1 5v547M623 343l-6 19-7 20-9 20-10 20-27 40-31 41-17 20 5 7 24-13 23-16 22-17 18-17 18-20 16-19 14-22 13-21 11-23 8-24-3-24-19-14-23 3-15 19-5 21Z"/></symbol><symbol id="𬽶_J" viewBox="0 0 1000 1000" data-size="21"><path transform="matrix(1 0 0 -1 38 946)" d="M491 528V386c0-126-25-219-76-280-31-38-80-73-146-103l-15 23c76 45 126 102 151 170 19 50 28 114 28 191v199c23-10 46-21 68-33h159l36 46c41-32 62-52 62-61 0-5-3-9-10-13l-26-16V104c0-19 14-28 42-28 36 0 57 3 64 9 13 13 23 77 30 193l26-11c1-97 5-153 10-167 5-12 15-18 30-18-1-27-12-44-32-51-16-5-52-8-107-8-62 0-98 7-109 22-7 8-10 25-10 50v433H491m-349-10c-35-68-75-131-120-190L0 344c97 151 169 334 216 547 62-13 93-27 93-42 0-9-15-16-45-21-22-77-49-152-81-224 38-8 56-17 56-26s-13-17-39-25V0h-58v518m416 214v160c64-3 97-11 97-23 0-8-14-17-41-26V732h194l40 49c45-44 68-71 68-83 0-6-6-10-16-13l-31-7c-26-38-53-72-81-101l-21 13c22 44 37 83 46 117H382c0-53-9-96-28-128-10-19-24-28-41-28-22 0-33 10-33 30 0 9 5 20 16 33 32 41 51 95 58 162l25-5 3-39h176Z"/></symbol><symbol id="𬽷_J" viewBox="0 0 1000 1000" data-size="21"><path transform="matrix(1 0 0 -1 42 946)" d="M407 668V507c0-226-51-394-153-504l-20 17c77 109 115 271 115 485v223c16-7 39-19 68-35h169v192c67-1 101-10 101-26 0-10-15-19-45-29V693h159l49 69c25-24 47-49 66-74l-13-20H407M142 518c-35-68-75-131-120-190L0 344c97 151 169 334 216 547 62-13 93-27 93-42 0-9-15-16-45-21-22-77-49-152-81-224 38-8 56-17 56-26s-13-17-39-25V0h-58v518m667-380c-127-33-244-59-351-78-6-26-13-39-21-39-12 0-27 30-44 91 57 5 88 8 93 9 51 173 88 338 110 495 64-17 97-32 97-45 0-9-14-16-42-21-31-139-76-281-133-426 93 11 186 25 280 42-25 61-58 116-98 165l17 17c76-70 129-138 160-205 15-34 23-61 23-82 0-28-12-42-36-42-16 0-27 17-35 51-4 19-10 41-20 68Z"/></symbol><symbol id="𬽸_S" viewBox="0 0 1000 1000" data-size="21"><path transform="matrix(1 0 0 -1 30 971)" d="m794 309-23 26-12 13-29 26-34 25-43 30V31L591 0v722l62-10 16-11-16-10V443l35-8 23-7 21-9 40-20 18-10 18-12 16-13 17-13 8-23-11-22-23-8-21 11M307 942l54-32 10-15-19-3-49-97-32-56-68-107-5-8 34-6 16-11-16-9V46l-63-31v567L91 481l-41-46-43-45-7 6 103 153 63 106 59 110 53 113 26 59 3 5m26-303 45-44-22-10-22 9-10 22 9 23m0 0 45-44 11 15 7 18 5 18 4 21 3 21 1 25v27l-1 15h441l-4-18-4-13-4-16-9-34-11-37-6-20 8-5 11 18 13 16 21 31 34 54 1 2 15 6 26 16-57 48-32-27H659v132l16 9-16 11-63 10V776H406l-2 23-5 33-8-1-4-32-10-57-5-24-6-22-7-17-6-15-7-13-7-7-6-5Z"/></symbol><symbol id="𬽹_J" viewBox="0 0 1000 1000" data-size="21"><path transform="matrix(1 0 0 -1 49 948)" d="M414 584v-58h-57v342c28-13 50-24 66-34h306l40 48c41-32 61-53 61-63 0-4-3-8-8-11l-26-15V537h-56v47H414m0 25h326v200H414V609m-283-99C97 439 61 375 22 319L0 333c92 163 157 351 197 563 63-13 94-27 94-41 0-9-14-16-43-21-19-73-44-149-75-229 37-8 56-16 56-26 0-8-14-17-41-26V0h-57v510m418-308c-43 40-80 87-112 140-17 26-34 61-52 104h-76l-8 25h440l36 44c41-36 62-57 62-66 0-4-4-8-11-12l-24-12c-43-80-104-154-181-222 82-60 176-102 280-126-23-18-40-38-51-60-101 35-190 86-268 152C488 91 386 35 279 1l-14 22c98 39 193 99 284 179m35 31c75 72 129 142 161 213H417c40-82 96-153 167-213Z"/></symbol><symbol id="𬽺_M" viewBox="0 0 1000 1000" data-size="21"><path transform="matrix(1 0 0 -1 20 979)" d="M764 808H476l-12-18c25-48 66-96 123-144l23-19c44 28 88 72 132 132 7 11 15 27 22 49M582 595c-41 37-85 94-133 171l-8-13c-11-16-35-45-73-86-6-7-11-9-15-6-3 3-5 5-5 7s1 6 4 10c2 4 7 10 13 19 7 8 12 16 17 23l17 28c12 20 28 54 49 102s31 81 31 100c2 11 10 12 24 3l30-21c19-12 28-21 27-25 0-3-5-5-13-7-8-1-14-3-17-5-3-3-9-12-18-27-9-16-14-27-17-33h260s8 5 23 13l17 9c6 0 12 1 20 3 8 1 18-3 29-13 12-10 18-15 18-16 0-10-2-16-6-18-16-5-27-12-34-22l-40-55c-5 2-14-9-26-32-1-2-22-22-62-59l-32-30-17-13c83-54 175-95 276-122l25-6c16-3 20-8 13-16-2-1-8-3-17-3-16-1-30-4-41-10-5-2-8-5-10-7-2-6-4-9-6-10-6-4-10-6-12-6l-16 4c-86 36-161 79-224 128l-22 17c-47-47-155-103-325-166-12-5-18-1-18 11 0 7 5 12 14 16 114 42 214 96 300 163M5 467c51 74 95 161 133 262 39 102 58 171 58 209 0 9 4 12 12 9 8-2 16-6 24-10l37-21c9-9 12-14 9-16s-7-4-14-5c-6-1-10-4-12-8-6-5-10-12-15-22l-26-63c-15-35-30-71-46-106 18-7 32-13 43-19s13-11 4-15c-17-9-28-16-32-22-3-5-5-14-5-25V238c3-76 4-146 4-210 0-6-2-9-7-9L128 0h-2c-4 0-7 5-6 14 3 85 5 160 5 224v378C99 568 65 515 22 456c-7-8-13-10-17-5-5 4-5 10 0 16m623-101c98-3 149-1 153 5l23 32c5 6 10 6 15 0 28-24 48-42 60-56 3-5 3-8-2-10l-31-14c-1-1-2-3-2-6V206c0-43-5-76-15-100-10-22-19-38-28-48-22-25-47-42-75-52-5-3-11-2-18 3-6 6-16 15-28 27-13 11-19 17-19 17l-30 6c-9 2-17 4-22 6-6 3-8 6-7 10s5 7 13 7c52 0 87-2 107-6 3-1 19 9 48 29 18 12 27 46 27 102v128l-178-2c-16-81-39-140-68-178C504 92 429 44 325 10c-8-2-13 0-16 8-2 6 1 12 10 15 73 30 129 66 166 109 38 42 64 98 78 167l5 26-103-1c-22 0-39-3-50-7-11-5-17-5-18-2-2 3-5 8-12 17-5 8-10 15-12 21-1 1 2 2 9 2l191 1h55Z"/></symbol><symbol id="𬽻_G" viewBox="0 0 1000 1000" data-size="21"><path transform="matrix(1 0 0 -1 22 983)" d="M552 224C495 132 418 67 321 29l-6 11c93 57 161 126 204 206 45 84 72 184 83 299 6 66 9 130 8 191-1 21-1 37-1 50-3 7-12 16-27 27l7 13 99-35c3-2 5-4 5-5s-2-3-5-4c-13-4-24-12-32-24-1-31-2-67-3-108 18-101 38-184 61-250 33 50 59 93 79 128 23 41 36 70 39 86 2 14 1 24-4 30l10 8 70-50c4-3 6-6 6-8 0-3-2-4-6-5-16-1-28-5-35-13s-19-24-36-49c-14-22-52-72-115-149 20-56 43-105 68-148s53-79 82-110c21-21 48-39 83-53l1-14c-25 2-43 1-54-2s-21-8-30-17c-32 35-65 82-98 142-59 100-101 232-126 395-13-152-45-268-96-347M199 965l86-42c11-7 13-11 6-14-11-1-24-6-38-17-15-49-35-104-60-167V139l2-95c1-24-16-39-52-44 3 25 6 86 7 184v449c-42-81-88-144-138-190l-12 7c66 94 119 192 158 295s56 161 51 175c-4 16-9 29-16 38l6 7m130-41 43-44h452l38 47 74-52c7-5 9-9 7-11-3-3-9-4-20-4H384V572c4-137-7-247-33-332-26-84-68-158-127-222l-10 8c52 86 87 171 105 254 17 84 25 174 22 270v317c-7 15-15 31-26 48l14 9m162-302h16c2-59 1-103-4-132-4-32-12-56-24-72-11-16-23-26-35-30s-21-1-28 9c-8 10-4 23 11 39 15 15 29 35 40 60 12 25 20 67 24 126Z"/></symbol><symbol id="𬽼_S" viewBox="0 0 1000 1000" data-size="21"><path transform="matrix(1 0 0 -1 42 963)" d="m248 927 57-30 10-15-18-3-42-97-53-110-29-54-6-10 31-4 17-11-17-10V31L136 0v555l-24-38-33-49-35-48-36-45-8 6 82 152 52 106 48 109 43 113 23 66M838 78l62-53V5H244v20h541l53 53M538 573l-39-84-30-55-34-52-36-49-38-45-41-40-43-36-46-32-5 8 38 39 36 41 34 43 32 45 31 49 29 52 26 56 25 57 21 62 14 45H239v21h299v220l64-10 15-11-15-9V698h172l53 52 63-52v-21H602v-15l44-94 28-52 29-48 29-45 32-41 32-36 33-33 34-29 54-37-58-45-38 31-36 36-33 39-31 43-30 45-27 50-24 53-23 57-15 50V120l-1-13-2-13-5-13-7-12-8-10-11-8-11-7-13-5-14-2-12-1v31l-84 17v16h89l5 1 5 2 2 1 2 5 1 5v459m185 219-13 25-17 26-18 25-23 27-12 11 5 8 33-16 30-17 27-21 26-22 22-26 3-24-15-19-23-3-19 13-6 13Z"/></symbol><symbol id="𬽽_G" viewBox="0 0 1000 1000" data-size="21"><path transform="matrix(1 0 0 -1 13 985)" d="M802 596V133c1-40-3-69-11-88-9-18-32-31-69-39 3 29-30 50-101 65-9 2-15 4-20 5l2 15c71-14 115-21 131-20s24 17 23 49v490H224V131l3-87c1-23-18-38-55-44 3 25 6 84 7 177v449c0 2 0 4-1 7 0 3 0 6-1 7-53-29-111-54-173-76l-4 14c178 87 312 183 402 288 34 41 52 64 54 71 3 7 1 15-6 25l7 8 82-32c11-5 13-10 6-15-11-1-22-3-32-7 27-35 59-68 95-98 44-36 89-65 134-87 46-22 80-36 103-43 24-7 43-11 58-13s38-5 70-8v-15c-41 0-70-12-87-35-35 12-71 27-107 45l43-35c6-4 9-7 9-10s-3-5-9-8l-20-13M492 902c-87-105-185-188-295-250l21-22h524l27 37c-61 31-117 69-168 114-40 36-75 77-106 123l-1-1c-1 0-1 0-2-1M333 421l41-48h208l35 40 46-44c5-4 6-7 5-10s-4-6-10-7l-18-13v-91l4-59c5-25-10-39-45-42v44H377v-41c1-23-15-38-48-45 3 25 6 69 7 131v133c-3 15-9 29-18 41l15 11m44-64V207h222v150H377M275 494h338l31 39 61-45c5-3 8-6 8-8 0-1-3-2-8-2H352c-17 1-32-4-44-13l-33 29Z"/></symbol><symbol id="𬽾_S" viewBox="0 0 1000 1000" data-size="21"><path transform="matrix(1 0 0 -1 30 964)" d="m183 608 32-4 15-11-15-10V31L152 0v562l-31-46-35-49-38-47-40-45-8 6 92 153 57 106 53 109 49 113 25 66 56-32 11-15-19-3-46-97-28-55-67-118M285 47v20h108v384l62-11 16-10-16-9V67h114v563l64-11 15-11-15-8V362h96l43 47 53-47v-21H633V67h154l53 53 62-53V47H285m560 468-34 29-34 31-32 34-30 37-29 42-28 42-26 46-25 50-3 7-34-62-32-53-34-50-36-46-38-42-41-39-42-35-44-31-47-27-5 8 39 34 38 37 37 38 34 41 34 44 31 46 29 49 28 53 27 55 24 57 3 7 55-31 11-16-20-3-7-13 74-102 33-38 31-35 32-33 32-29 34-26 33-23 56-33-58-46-36 26Z"/></symbol><symbol id="𬽿_K" viewBox="0 0 1000 1000" data-size="21"><path transform="matrix(1 0 0 -1 65 929)" d="M0 414c55 57 106 123 153 199 45 72 86 154 124 246l52-26c17-8 24-15 20-20-4-4-16-7-38-9l-30-53-40-68c-18-28-27-44-28-46 19-7 30-13 30-19 1-6-7-12-24-17V76l1-28c1-12 1-20-1-24-3-5-11-12-24-19-13-5-21-5-23 1-3 3-3 13-2 29l2 31v516c-32-39-60-72-83-98-24-26-51-52-79-79l-10 9m541 100c-1 13-1 24-1 32-1 14-2 25-4 33l65-19c22-5 30-10 25-15-4-4-16-8-36-11V105c0-26-8-45-23-58-11-11-33-22-66-33-3 18-11 31-25 40-15 10-44 20-85 30v15l44-3c22-2 38-3 46-3 14 0 27 0 39 1 7 0 13 2 16 5s5 8 5 15v400m50 305c13-4 18-8 16-12-2-2-9-5-23-8 3-43 34-93 92-149 56-53 120-95 189-126l-1-15c-18 4-35 4-50 0-16-3-28-10-35-20-43 34-83 74-118 118-43 53-73 106-92 158-22-54-57-107-105-157-56-59-121-105-193-139l-10 10c75 47 136 103 182 168 42 58 71 122 86 192l62-20m28-412c41-40 74-83 100-129 24-42 36-76 36-102 0-20-6-33-18-40-10-5-17 3-21 24-7 34-18 69-31 104-19 54-42 99-71 135l5 8m104 12c50-42 88-83 113-123 21-35 33-66 34-94 1-20-4-32-16-38-11-7-18 0-22 19l-3 7c-8 35-17 66-28 92-20 45-48 88-85 130l7 7m-257 1c0-59-10-111-29-156-17-36-38-64-63-85-9-6-18-10-25-10-8-1-13 1-17 5s-5 11-3 19c3 8 9 16 18 23 19 18 39 45 60 82 23 41 39 81 49 122h10Z"/></symbol><symbol id="𬾀_G" viewBox="0 0 1000 1000" data-size="21"><path transform="matrix(1 0 0 -1 28 974)" d="m228 947 84-52c11-7 13-12 6-15-14 1-28-4-42-14-28-68-57-129-87-184V140l2-95c1-24-16-39-52-45 3 25 6 87 7 185v427c-42-63-87-115-134-155l-12 7c66 85 124 178 173 277 48 95 70 150 66 166-5 12-10 23-17 32l6 8m716-408v-13c-27 2-44 0-52-5s-16-12-23-21c-79 39-154 109-226 210-27 37-51 80-74 130-43-83-91-152-143-209-59-63-130-119-213-168l-8 14c59 43 115 96 170 157 55 62 96 118 123 169s40 81 37 92c-2 11-6 19-11 26l8 8 79-41c5-3 7-6 7-9s-2-5-7-6c-9 2-19 0-29-7l-1-2c27-45 52-82 75-113 55-69 104-117 145-145 17-13 36-25 57-38 20-11 49-21 86-29M672 342c-11-61-40-125-87-192C542 92 480 43 397 3l-7 9c74 50 128 100 162 151 35 49 61 110 78 182 13 41 20 105 20 190-3 17-10 30-22 39l5 8 83-28c3-3 3-5 0-8-9-1-17-4-24-11-1-47-2-79-4-96 27-120 62-216 106-288 31-56 77-93 137-111V25c-32 3-52 4-59 3-11-1-20-6-26-14-81 86-137 204-169 355-1-3-2-8-3-15-1-5-1-9-2-12M395 581l81-32c3-1 4-3 4-4s-1-2-4-3c-9-1-17-5-23-12-1-46-7-92-18-139 24-15 44-30 59-45 28-27 46-53 53-80 5-29-2-44-23-46-11 0-19 12-24 36-6 28-15 50-27 65-9 13-23 28-43 46-3-10-6-20-8-30-36-128-108-233-216-315l-7 8c92 90 153 194 183 311 17 60 27 124 30 191-4 18-11 32-22 41l5 8Z"/></symbol><symbol id="𬾁_J" viewBox="0 0 1000 1000" data-size="21"><path transform="matrix(1 0 0 -1 38 950)" d="M509 726H295l-9 25h260v148c65-3 97-11 97-24 0-8-13-17-40-27v-97h194l47 68c27-26 49-50 66-73l-11-20H583c-35-73-71-134-108-184 64 2 160 8 286 19-29 35-65 67-105 96l14 17c76-37 132-74 166-112 27-28 40-54 40-76s-11-34-33-34c-14 0-26 12-36 36-5 14-14 29-26 47-133-21-278-39-434-52-7-23-14-35-22-35-13 0-24 30-34 89 48 0 98 1 151 3 26 54 48 116 67 186M145 533c-35-70-76-136-124-198L0 353c94 143 163 325 208 546 67-13 100-27 100-43 0-9-16-17-49-22-26-88-52-162-77-220 39-7 58-16 58-26 0-8-12-16-38-25V2h-57v531M257 0l-13 22c94 44 152 101 175 172 19 57 28 137 28 240 64-3 96-11 96-24 0-8-13-17-38-27-2-113-22-199-61-258-34-52-97-93-187-125m506 30c-67 0-107 6-122 16-12 10-18 29-18 58v350c65-5 97-14 97-28 0-8-13-16-41-27V119c0-17 5-28 14-33 7-3 24-4 54-4 32 0 54 2 66 6 9 3 16 9 19 16 10 22 17 75 22 159l26-8c0-14-1-31-1-49 0-50 4-83 10-98 5-11 17-17 34-18-1-22-9-38-25-47-17-8-62-13-135-13Z"/></symbol><symbol id="𬾂_G" viewBox="0 0 1000 1000" data-size="21"><path transform="matrix(1 0 0 -1 17 971)" d="M392 862h470l31 39 67-49c5-3 7-6 6-8-1-1-5-2-12-2H661V618c71-44 124-80 160-108 47-35 79-72 97-112 18-47 13-72-16-74-15 0-25 14-30 43-6 28-28 63-66 104-34 38-82 79-145 124V139l2-95c1-23-17-38-54-44 3 25 6 86 7 184v658H469c-16 1-31-3-44-12l-33 32M118 281l10 10c54-25 98-51 133-77l7-7c9 17 21 43 38 77 33 69 56 115 68 137H144c-13 0-25-4-36-11l-32 31h289l34 37 61-50c5-4 8-8 7-11s-5-4-12-4c-9 0-20-3-32-8-6-3-21-21-44-55-6-9-19-32-40-68-25-43-43-74-54-91 23-21 39-45 48-71 10-32 13-56 8-73-6-15-14-23-24-23-10 1-17 16-21 46-3 28-16 60-39 95-23 34-69 73-139 116m132 660 72-36c11-9 13-14 4-17-14 0-25-5-33-16-4-8-10-20-18-37-3-7-6-12-7-15 47-20 87-42 122-66 42-30 71-60 86-91 14-31 13-53-3-66-16-14-29-4-40 30-11 33-31 65-62 95-27 25-65 52-113 82-22-39-47-78-75-115C139 630 81 573 9 520l-9 11c62 59 111 115 148 167 38 55 66 101 83 140 20 42 24 73 11 94l8 9m-38-281 6 13c33-20 56-38 70-53 12-14 21-29 28-46 6-14 8-30 6-48-2-19-10-29-24-30s-21 9-20 31c0 21-3 42-10 61s-25 43-56 72Z"/></symbol><symbol id="𬾃_S" viewBox="0 0 1000 1000" data-size="21"><path transform="matrix(1 0 0 -1 44 963)" d="m117 545-45-77-31-47-33-45-8 4 94 205 64 162 39 113 18 58 3 8 57-28 12-14-18-4-38-97-48-110-32-65 29-4 16-11-16-10V31L117 0v545m432-55 62-11 16-9-16-10v-67l-5-57h164l52 52 63-52v-22H606l15-30 18-34 20-31 23-30 25-26 27-23 31-22 34-19 36-19 76-28-60-51-44 20-40 24-36 25-32 30-29 30-24 34-20 35-16 38-10 40-2 17-3-18-19-50-26-47-31-42-40-37-44-32-51-26-57-21-62-15-2 9 57 25 51 26 44 31 37 33 31 35 25 39 19 41 13 45 3 24H275v22h272v3l2 54v97M343 776h-79v22h285v79l62-10 16-11-16-9v-49h169l53 52 63-52v-22H406V569l1-4 1-3v-2h1l1-1 2-1 3-2h5l7-1h410l19-13 13-19-13-18-19-13H413l-13 3-12 4-13 7-10 9-9 10-6 12-4 13-2 13-1 13v200Z"/></symbol><symbol id="𬾄_J" viewBox="0 0 1000 1000" data-size="21"><path transform="matrix(1 0 0 -1 36 951)" d="M781 441c-38-89-89-166-152-232 90-63 190-105 299-126-20-22-33-43-41-63-112 33-210 84-294 154C498 90 381 32 244 0l-12 23c127 40 234 102 320 187-39 37-75 80-107 129-15 21-34 55-56 102H271l-10 25h289v141c64-3 96-11 96-24 0-8-12-16-37-24v-93h192l51 60c25-21 48-44 68-67l-12-18H781m-71 0H422c20-36 38-64 54-84 32-43 69-81 109-114 50 55 92 121 125 198m-565 95c-35-70-76-136-124-198L0 355c94 143 163 326 208 547 67-13 100-27 100-43 0-10-16-17-49-22-26-89-52-162-77-220 39-7 58-16 58-26 0-8-12-17-38-26V5h-57v531m281 143c37 67 69 141 96 223 64-21 96-39 96-52 0-9-16-14-49-14-42-69-77-121-107-156 94 4 194 10 299 20-28 27-62 52-103 76l13 18c41-13 81-32 121-56 34-20 58-39 74-57 20-22 30-42 30-59 0-23-11-34-32-34-15 0-28 10-38 31-10 19-23 37-39 55-163-26-311-44-444-54-4-23-11-35-20-35-14 0-26 30-37 91l140 3Z"/></symbol><symbol id="𬾅_G" viewBox="0 0 1000 1000" data-size="21"><path transform="matrix(1 0 0 -1 39 977)" d="M289 775h266v119c1 10-8 24-27 41l8 10 86-33c9-3 11-7 6-10-11-3-20-9-28-18V775h188l28 37 61-43c7-5 9-9 8-11-2-3-8-4-19-3H600V619h121l34 39 51-47c5-4 6-7 5-10s-4-6-11-7l-18-9V448l4-66c5-26-12-40-49-43v48h-66V130c-1-25 5-41 17-48 12-8 38-12 77-12s65 1 78 4c15 3 23 14 26 35 4 30 6 70 7 121h15l4-74c-1-36 8-59 26-70-11-33-35-51-74-52-51-5-105-5-162 0-37 4-56 31-57 81v272h-94C525 189 422 60 225 0l-4 12c169 74 258 199 267 375h-60c-1-13-5-23-14-29-9-7-21-12-38-15v4c3 23 6 48 7 73v191c-3 15-9 29-18 41l15 11 38-44h137v136H366c-17 1-32-4-44-13l-33 33m139-176V407h309v192H428M216 954l88-46c11-7 13-13 7-17-15 1-29-4-42-15-26-69-50-125-72-168V141l2-95c1-24-16-39-52-45 3 25 6 87 7 185v444c-44-73-91-133-142-179l-12 6c75 103 133 202 174 296 39 91 57 145 54 161-5 12-11 23-18 32l6 8Z"/></symbol><symbol id="𬾆_S" viewBox="0 0 1000 1000" data-size="21"><path transform="matrix(1 0 0 -1 25 971)" d="m875 87-57 26 7 20 7 28 7 36 6 45 5 52 4 60 2 69 3 75 1 83 1 80H761l-3-84-9-93-13-87-16-79-22-71-26-65-30-58-37-50-40-41-44-33-6 8 36 39 32 44 27 51 25 55 20 63 17 69 13 76 8 84 5 90v82H581v21h117v243l64-11 15-11-15-9V682h99l32 26 57-47-26-15v-66l-2-84-2-76-3-68-5-63-5-54-6-47-6-40-9-34-11-27M248 930l57-30 10-15-18-3-42-97-53-110-29-54-6-10 31-5 16-10-16-10V34L136 3v555l-24-38-33-49-35-48-36-45-8 6 82 152 52 106 48 109 43 113 23 66m570-817 57-26-6-12-7-11-8-9-9-9-11-8-11-6-12-5-13-4-13-2h-13v32L667 68v16h112l6 2 6 1 5 2 4 2 4 3 4 4 4 4 2 5 4 6m-582 61-1 1 1-1m6-44v3-3m1-6-10 30-4 3 2 4-7 25 10 1 7 1 105 251 16 46H218v22h152v215H249v21h121v199l64-10 15-11-15-9V743h31l53 52 62-52v-21H434V507h62l53 52 62-52v-22H429l-49-102-37-70-60-99-17-25 28 3 30 3 32 3 32 3 32 2 31 4 33 2 35 2h1l-11 33-9 24-21 50-26 56 8 5 21-24 20-23 33-47 27-45 10-21 8-23 8-21 6-21-7-23-21-13-22 7-13 21-2 17-3 19-2 10-34-10-32-9-95-24-91-19-7-1-9-19-13 14Z"/></symbol><symbol id="𬾇_G" viewBox="0 0 1000 1000" data-size="21"><path transform="matrix(1 0 0 -1 25 974)" d="m126 508 40-44h175c3 39 5 86 5 139h-94c-17 1-32-4-43-13l-33 32c-52-25-110-47-174-66l-2 14c115 51 205 102 268 153 64 52 109 93 135 124 25 31 39 52 43 64 3 10 1 20-6 30l8 7 86-52c5-5 4-9-2-11-13 3-26 2-40-5l-4-5c31-32 55-55 73-69 48-42 98-76 150-102 67-33 147-52 238-56v-16c-49 1-77-11-83-36-62 17-113 36-152 57-45 23-91 54-139 94-43 37-77 73-102 109-36-42-88-91-155-146-43-34-89-63-140-87h469l34 44 66-51c7-5 10-8 9-11-2-2-8-3-19-2H586V464h152l31 38 47-40c6-4 9-8 9-11s-3-5-9-8l-20-13V125c1-40-2-69-10-87-9-17-32-30-68-38-1 22-12 36-33 43s-54 15-99 25l2 15c75-11 123-16 142-15 16 1 24 17 23 49v327H586c-1-30-2-57-4-80l-3-27c19-13 39-28 60-47 37-36 55-65 54-86 0-24-8-35-23-34-13 1-20 14-23 37-3 18-14 39-33 63l-2 2c-15 18-27 32-38 43-12-69-70-136-173-199l-10 12c97 75 146 157 149 245 0 5 0 12 1 22 1 21 2 38 3 49H382c-1-14-2-28-4-41-3-22-8-42-14-61 15-10 32-22 50-37 21-20 34-41 39-64 3-23-5-34-23-35-9 0-15 9-18 27-1 17-9 34-22 51-1 1-3 4-6 8-10 14-19 25-26 32-23-67-74-129-151-186l-7 11c76 77 121 158 134 244 2 16 4 33 6 51H174V127l4-81c1-23-17-38-54-45 3 26 6 72 7 137v320c-3 14-10 26-20 35l15 15m261 95c0-35 0-61-1-80 0-22-1-42-2-59h160c1 32 1 78 1 139H387Z"/></symbol><symbol id="𬾈_K" viewBox="0 0 1000 1000" data-size="21"><path transform="matrix(1 0 0 -1 66 932)" d="M511 487h38l25 37 30-34c6-5 8-9 5-12-2-3-6-4-12-4h-86V113c0-29-5-50-15-64-12-16-32-25-59-28-1 14-6 25-16 35-9 7-25 16-48 24l2 9c40-6 67-7 83-4 12 3 19 11 19 24v292c-31-61-64-115-98-159-36-45-73-80-110-106l-5 8c38 36 74 79 107 128 37 61 69 128 96 203H315l-34-3-3 18 25-3h35v285l-37-1-4 20 54-4h187l27 37 32-34c5-5 7-9 6-11-3-4-8-6-16-6h-66c4-2 5-4 2-7-2-2-6-6-12-10V487m-34 286h-94c4-2 4-4 1-7-3-2-9-5-18-9V487h111v286m347 57 31-34c11-10 15-17 12-23-2-5-12-8-30-9l-83-253c36-39 62-87 80-142 14-46 21-86 20-121-1-44-10-78-26-103-14-25-37-42-68-53-2 16-8 28-18 37-5 5-18 12-40 19l-8 3v10c41-4 70-2 85 4 17 7 30 21 38 44 11 38 12 84 2 136-9 59-35 113-77 163l33 121c6 29 16 67 30 116l8 36H677V85l2-21c1-9 1-15 0-17-2-4-5-8-12-12-11-6-18-6-20-1-3 3-4 12-2 28l2 10v699l-4 57 37-32h124l20 34M116 547l-52-76c-16-22-34-44-54-67l-10 7c40 57 81 133 123 227 36 80 65 156 87 227l52-24c19-11 27-18 22-23-2-2-13-5-32-6l-6-1-40-88-47-93c21-10 30-18 27-24-3-3-11-6-25-7V62l1-17c1-17 1-27-1-31-2-5-11-9-24-12-11-2-18-2-21 1-1 2-1 8-1 18l1 20v506Z"/></symbol><symbol id="𬾉_K" viewBox="0 0 1000 1000" data-size="21"><path transform="matrix(1 0 0 -1 51 946)" d="M262 868c19-11 28-19 28-24 0-7-12-12-37-15-25-78-55-146-88-203 19-7 28-13 28-19 0-5-7-10-22-15V24c-1-7-9-14-23-20-7-3-13-4-16-4-4 0-6 4-6 11 0 1 0 8 1 21s1 25 1 36v493c-14-30-35-62-62-98-26-36-45-60-58-71l-8 7c33 36 72 105 119 208 50 109 82 203 98 283l45-22m626-342-6-9H228v20h269v157H290v21h207v135l-8 43 54-13c18-6 26-12 26-17s-9-11-29-19V715h183l19 24c11 13 17 20 21 20 3 0 10-6 22-18l37-38-6-9H540V537h249l17 25c9 13 15 19 18 19 5 0 12-5 21-14l43-41m9-456c-16-10-28-17-33-21-10-9-14-20-13-34-133 2-237 22-313 59-73 35-140 95-200 181-31-97-78-181-141-251l-7 5c69 105 118 248 145 430l39-11c10-5 16-11 16-17 0-3-6-10-18-19-3-14-12-52-26-113 28-54 80-106 154-154l-2 385 35-5c21-3 31-8 31-15 0-3-6-10-20-21V352h169l18 27c12 14 18 21 21 21s10-5 21-16l46-41-7-11H544V105c70-22 144-34 223-34 43 0 86 4 129 10l1-11Z"/></symbol><symbol id="𬾊_J" viewBox="0 0 1000 1000" data-size="21"><path transform="matrix(1 0 0 -1 46 948)" d="M153 159V83H97v436c23-10 46-21 69-34h174l37 48c42-35 62-57 62-65 0-4-3-8-9-12l-23-15V96h-56v63H153m0 180h198v121H153V339m0-25V184h198v130H153m303 506c-69-89-145-160-228-215-59-39-131-75-214-108L0 520c178 81 322 206 430 375 58-11 87-22 87-34 0-8-14-15-42-20 105-106 249-189 433-249-17-14-32-33-46-58-173 75-308 170-406 286M278 594l-11 25h284l43 49c26-20 48-39 65-57l-11-17H278M698 0c0 19-10 32-31 41-14 6-48 13-102 22v27c53-5 101-8 143-8 23 0 34 12 34 35v424c64-4 97-13 97-27 0-8-13-18-39-28V82c0-55-34-82-102-82M540 170v343c64-4 96-13 96-27 0-9-13-17-40-26V170h-56Z"/></symbol><symbol id="𬾋_G" viewBox="0 0 1000 1000" data-size="21"><path transform="matrix(1 0 0 -1 46 971)" d="m323 919 37-46h164l30 39 51-47c4-4 5-7 4-10s-4-6-10-7l-18-9V685l4-63c3-25-12-40-45-43v51H367v-18c2-25-14-40-48-45 3 25 6 66 7 124v176c-3 15-9 29-17 41l14 11m63-333 69-25c12-5 15-10 8-15-9 1-18-4-26-13 0-35-1-68-3-98h95l34 40 43-39c5-4 8-8 8-11s-3-5-8-8l-20-12V275c1-68-1-114-6-138-5-26-17-47-35-63-19-18-47-31-84-39 0 22-13 37-40 46-2 1-4 1-5 2-11 4-25 9-43 15l6 16c38-8 64-13 77-14 17-1 31-1 43 2 15 2 26 13 33 33 9 20 13 59 13 118v162H433c-5-75-16-142-35-201-25-83-82-152-171-208l-7 14c74 61 122 132 144 212 15 55 24 116 28 183h-61c-17 1-30-4-39-13l-35 33h136c2 34 3 71 3 111-4 14-10 24-18 30l8 10M210 941l84-40c11-8 13-13 7-15-15 1-27-5-38-17-27-77-52-140-75-189V141l2-96c0-13-5-23-14-30-9-6-21-11-36-15 3 26 5 88 7 187v418C108 540 61 482 6 432l-6 10c73 100 129 197 168 291 41 99 59 155 54 168-5 11-11 22-18 32l6 8m622-55c-1 15-9 30-25 45l8 11 82-37c6-3 9-5 10-7 1-3 0-5-4-7-11-3-21-9-30-16V107c-1-23-6-40-15-53-7-11-34-23-81-34-2 21-10 35-25 42-15 6-43 14-85 24l4 18 41-10c47-10 78-12 94-5 17 6 26 23 26 50v747m-465-33V650h173v203H367m288-34 85-35c9-3 11-7 6-11-13-5-23-12-29-21V357l2-56c1-22-15-36-50-43 4 33 6 81 7 145v359c1 9-8 24-29 45l8 12Z"/></symbol><symbol id="𬾌_S" viewBox="0 0 1000 1000" data-size="21"><path transform="matrix(1 0 0 -1 41 963)" d="m211 926 58-28 11-14-18-4-59-152-50-109-6-11 30-4 15-11-15-10V31L113 0v542l-42-74-31-47-31-45-9 4 92 204 42 107 39 112 35 115 3 8M333 14l-28 56 8 3-4 425 63-10 16-9-16-7 2-152h106l44 47 52-47v-21H374l2-212 110 23 58 11 31 4 2-9-54-27-77-32-92-36-7-20-14 13m275 484 63-10 16-10-16-10V295l175 114 4 3 11-20 29-29v-18l-19 8-51-24-46-20-49-20-28-9-26-9V93l1-5 2-4 2-3 5-1 5-1 6-1h163l31 132h10l-9-132 18-13 13-18-13-19-19-12H692l-13 1-14 2-13 3-11 7-11 9-8 11-7 12-5 12-2 13v412m-236 79-63-31v278l63-11 16-10-16-10V598h184v315l62-11 16-9-16-10V598h179v226l63-11 16-10-16-10V546l-63-32v63H372M320 56l3-7-3 7Z"/></symbol><symbol id="𬾍_S" viewBox="0 0 1000 1000" data-size="21"><path transform="matrix(1 0 0 -1 32 956)" d="m522 454-74-26-7 20 81 28v203l64-10 16-11-16-10V498l86 29v258l63-11 16-10-16-9V550l105 36v11l32 26 58-48-27-15v-79l1-43V303h-3l2-13-4-13-5-11-8-11-8-10-11-9-11-7-11-5-13-4-13-2-13-1v31l-42 17v15h49l5 1 5 1 3 3 7 4 3 3 2 4 3 6 1 1v6l-1 14v115l-1 43v83l-105-37V172l-63-31v365l-86-30V78l1-6 1-2 1-4h2l1-1 3-1 5-1h273l31 131h10L904 63l19-12 13-20-13-18-19-13H606l-13 1-13 2-13 5-11 6-11 8-9 11-6 12-5 13-2 12-1 14v370M25 14v20h68v398l63-11 16-11-16-10V34h64v582l63-11 16-10-16-9V339h54l32 37 42-37v-22H283V34h68l52 53 64-53V14H25m391 488-25 29-23 33-22 36-22 38-19 41-37 92-12 40-18-45-23-55-26-51-26-48-28-45-30-40-31-37-33-33-35-28-6 7 52 72 25 39 47 87 42 97 20 54 18 58 17 59 3 9 57-26 12-14-19-5-7-25 53-102 23-40 24-37 47-63 24-27 24-24 36-30-57-42-25 26Z"/></symbol><symbol id="𬾎_J" viewBox="0 0 1000 1000" data-size="21"><path transform="matrix(1 0 0 -1 52 950)" d="M429 247C416 145 369 63 289 0l-20 19c71 76 107 179 107 311v240c24-9 47-19 68-30h296l36 43c42-32 63-52 63-61 0-2-1-5-5-8l-27-21V87c0-51-33-77-99-77-3 20-11 34-24 40-14 7-46 15-96 23v26c51-6 94-9 130-9 21 0 31 11 31 32v125H429m3 25h317v117H434v-59c0-13-1-33-2-58m2 142h315v101H434V414M145 533c-35-70-76-136-124-198L0 353c94 143 163 325 208 546 67-13 100-27 100-43 0-9-16-17-49-22-26-88-52-162-77-220 39-7 58-16 58-26 0-8-12-16-38-25V2h-57v531m420 134v224c63 0 94-7 94-22 0-9-13-18-39-28V667h183v172c62-3 93-11 93-25 0-8-13-16-38-25V603h-55v39H385v-42h-54v232c61-1 91-8 91-22 0-8-12-17-37-26V667h180Z"/></symbol><symbol id="𬾏_G" viewBox="0 0 1000 1000" data-size="21"><path transform="matrix(1 0 0 -1 24 973)" d="m913 815-30-49c-17-37-50-98-99-183 123-89 179-177 167-266-5-45-27-79-66-102-13-7-36-14-69-20 3 21-28 44-95 69l2 15c10-2 24-5 42-10 41-10 65-14 71-13 17 1 31 6 43 16 13 11 22 28 25 51 8 42-4 89-37 141-16 27-50 67-103 119 42 94 76 181 102 260H687V140l4-95c1-23-17-38-54-45 3 25 6 87 7 185v669c-3 19-9 32-20 40l15 11 38-42h182l32 32 49-49c11-9 12-15 4-18-11-2-21-6-31-13M526 923l47-42c6-6 9-11 9-14s-3-5-9-6c-24 7-61 2-110-17V632h34l31 38 67-49c5-3 7-6 6-7-1-2-5-3-12-2H463v-56c1-65-2-120-9-165h72l31 38 66-49c5-3 8-6 7-7-1-2-6-3-13-2H451C425 200 352 79 232 8l-5 12c103 85 163 202 182 351h-91c-18 1-33-4-44-13l-34 33h172c6 42 9 100 10 173v48h-74c-17 1-32-4-44-13l-33 33h151v203c-32-8-73-15-124-21l-4 11c63 18 127 39 190 63 1 1 2 1 4 2 20 7 30 12 29 13 1 1 1 4 1 9 1 4 1 7 1 10l7 1m-230-17c3-7 2-11-4-12-12 3-23-3-34-20-31-79-55-137-72-176l-6-13V144l2-95c1-24-15-39-50-45 3 25 6 87 7 185v411c-2-3-4-6-5-9C97 524 55 464 8 412l-8 12c53 84 94 157 122 218 29 60 52 117 70 172 19 57 28 88 27 95 0 11-3 20-10 29l8 8 79-40Z"/></symbol><symbol id="𬾐_S" viewBox="0 0 1000 1000" data-size="21"><path transform="matrix(1 0 0 -1 28 968)" d="m312 928 54-32 10-16-20-3-49-97-33-55-73-116 34-5 16-11-16-10V31L173 0v568l-41-53-39-48-42-47-44-45-7 6 104 154 33 52 62 107 58 112 52 116 3 6m273 8 53-36 8-17-21-1-18-23-22-27-23-25-26-25h244l33 27 57-47-26-22V408l-64-31v62h-62V120h-64v319h-56l-12-63-17-64-19-60-24-54-27-48-30-42-33-36-39-30-40-23-43-16-3 9 37 24 32 28 30 33 27 36 24 40 20 46 19 51 15 55 12 62 7 52h-64v-62l-63-32v468l63-31h50l3 8 28 64 7 15 6 16 17 40h-2l6 11M738 36l-12 1-14 2-12 5-12 6-11 9-9 10-6 12-4 13-3 12-1 14h64v-7l1-5 1-3 1-1 1-1h1l2-1 3-1 4-1h150l30 130h10l-10-130 19-13 12-20-12-18-19-13H738m42 568H470V461h310v143m0 158H470V624h310v138Z"/></symbol><symbol id="𬾑_S" viewBox="0 0 1000 1000" data-size="21"><path transform="matrix(1 0 0 -1 39 963)" d="m100 532-34-63-27-48-30-45-9 4 81 204 38 107 34 111 32 110h-1l4 14 58-27 13-13-20-5-32-97-42-110-23-54-6-12 27-4 16-11-16-10V31L100 0v532m241 393 58-25 14-13-19-6-18-54-28-69-11-24h228l53 53 63-53v-20H466V562h99l32 26 57-48-26-20V204h-63v336h-99V31L402 0v540h-84V146l-62-31v478l62-31h84v152h-75l-30-56-20-30-21-30-24-29-7 5 41 100 25 67 11 34 11 35 18 70 10 45m503-7 62-10 16-11-16-9V89l-1-13-2-13-4-13-6-12-9-11-11-8-12-7-12-4-13-2-14-1v31l-84 16v15h84l7 1 4 1 5 2 2 2 2 5 1 5 1 6v829M628 204l-1-13-2-13-4-13-7-12-9-10-10-8-12-7-13-5-12-2-14-1v31l-52 17v16h59l5 1 4 2 3 1v5l1 5 1 6h63m79 599 63-11 16-10-16-10V173l-63-31v661Z"/></symbol><symbol id="𬾒_K" viewBox="0 0 1000 1000" data-size="21"><path transform="matrix(1 0 0 -1 58 947)" d="M230 875c19-11 29-20 29-25 0-6-13-10-37-14-28-78-54-136-76-176 16-7 25-14 25-20 0-5-9-10-25-14V30c-1-8-9-14-24-20-7-2-12-3-15-3s-5 2-5 6c-1 3-1 10 0 23 0 15 1 29 1 41v513c-25-45-56-88-96-127l-7 7c33 42 67 103 103 184 38 86 66 167 83 242l44-21m654-194-10-13H569c47-48 98-85 154-113 55-26 109-41 162-43l-2-13c-15-2-24-4-28-6-3-2-8-8-16-17-3-9-7-13-14-13-6 0-20 4-42 13-47 22-91 50-133 84-41 35-72 68-94 98V458c0-25 0-36 1-34-2-4-9-9-24-15-8-3-14-5-16-5-4 0-6 4-6 11 0 2 0 8 1 17 0 10 1 19 1 28v166c-26-29-64-60-116-93-50-33-119-67-207-100l-5 17c50 19 103 47 158 84 54 36 101 81 140 134H230v19h283v105c-69-7-152-11-250-11l-1 12c88 3 176 14 264 34 89 19 161 40 216 62l34-34c17-16 18-24 2-24-7 0-21 2-39 7-92-25-153-38-183-39V687h211l32 40c9 12 14 18 15 18 2 0 8-5 17-14l53-50M668 119v262l1-1c21-1 33 0 37 2 4 6-3 16-19 33l-39 37-38-36H469v3l-49 35v-89c-6-68-28-133-67-193-36-55-95-103-176-144-35-16-52-24-50-25 3-3 10-1 23 5l15 8 7-4c90 32 160 78 210 139 56 71 85 142 87 212v38h148V115c0-23 4-40 13-53 9-12 24-19 44-21 25-1 50-1 74 0 14 0 36 2 65 4l16 1c28 3 46 10 53 21 6 10 2 18-14 23-7 4-12 15-14 33-1 13-1 48-1 104l1 20-10 1c-9-67-17-108-23-123-6-22-18-35-35-41-10-2-21-4-35-6s-28-3-41-3c-16 2-26 7-32 13-7 6-10 16-10 31Z"/></symbol><symbol id="𬾓_K" viewBox="0 0 1000 1000" data-size="21"><path transform="matrix(1 0 0 -1 59 956)" d="m596 162 194 24c-10 31-32 68-67 112l10 8C838 201 887 126 881 81c-6-24-14-36-25-36s-17 8-20 23c-2 15-14 47-37 96L335 86c-6-23-13-35-21-35-6 0-13 10-20 30l-17 49 276 29v201H384c1-21 1-33 0-34-2-4-10-9-24-13-6-3-11-4-14-4-6 0-9 4-9 13 0 4 1 22 3 55v224l-4 39 55-35h162v156c-67-15-143-27-226-35l-3 11c79 15 155 34 228 57s141 54 204 93l36-28c12-9 18-16 18-21 0-11-16-14-46-9-52-20-108-40-168-58V605h169l7 16c6 10 10 15 14 15 5 0 11-4 20-10l18-15c12-8 18-16 18-22 0-9-10-14-29-16V382c0-26 0-41-1-45-2-4-8-9-19-14-7-2-12-4-16-4-6 0-8 14-6 41H596V162M304 891c17-8 26-14 26-21 0-6-12-12-36-16-24-75-55-143-92-204 19-7 28-14 28-18 0-5-8-11-26-18V21c-1-7-7-13-19-17-7-3-12-4-16-4-5 0-9 2-10 7v23c1 21 1 36 1 44v507c-14-30-38-65-72-104-33-40-60-68-80-83l-8 8c51 54 102 132 152 234 49 97 82 189 101 275l51-20m467-509v203H596V382h175m-218 0v203H384V382h169Z"/></symbol><symbol id="𬾔_S" viewBox="0 0 1000 1000" data-size="21"><path transform="matrix(1 0 0 -1 34 963)" d="m144 559-28-43-34-49-36-47-38-45-8 6 87 152 54 106 50 109 45 113 25 66 56-30 11-15-19-3-43-97-56-110-30-54-6-10 32-4 16-11-16-10V31L144 0v559m413 4-73-14-47-6-49-5-51-4-2 10 142 39 127 40 40 15 74 30 29 14 5 3 5-12 42-37 1-17-21 9-40-15-39-13-40-12-41-11V453l-4-57h136l53 52 62-52v-21H615l31-78 20-37 21-35 23-33 25-28 29-26 30-24 33-21 63-33-60-47-38 24-36 28-32 31-29 33-25 35-22 39-17 41-13 43-10 45-1 13-3-18-17-56-24-52-29-48-35-43-41-38-47-33-53-28-57-21-4 8 52 31 46 33 40 35 34 39 28 41 23 44 17 48 12 52 4 36H309v21h247l1 57v110m-292 58 52-34-20-14-24 4-13 21 5 23m75 113 1-6 1-23v-21l-2-22-4-20-4-20-7-18-8-17-14 9-11 8h-1l-26 17 7 11 8 12 7 13 7 16 6 17 6 19 5 20 6 46 2 27h9l10-46h217v168l63-11 16-11-16-8V756h226l31 26 58-48-27-15-14-6-46-72-26-37-12-20-8 5 8 21 16 62 5 17 5 17 4 15 3 13H340Z"/></symbol><symbol id="𬾕_S" viewBox="0 0 1000 1000" data-size="21"><path transform="matrix(1 0 0 -1 33 962)" d="m208 244 63-32h397l31 26 59-47-27-21V36L668 5v42H271V31L208 0v244m460-53H271V68h397v123m8 165 52-47v-21H211v21h422l43 47m0 97 52-47v-21H211v21h422l43 47m134 102 52-47v-22H77v22h690l43 47m14 44-47 22-46 25-43 26-43 29-41 32-40 35-38 37-35 40-11 13-16-20-42-42-44-40-46-38-49-34-51-33-53-28-56-26-58-23-61-17-4 7 57 29 53 29 52 30 49 34 47 34 43 36 42 38 39 40 36 43 34 45 2 3 48-41 6-18-10 1 50-40 81-58 42-27 44-23 43-22 45-20 46-18 85-28-61-52-49 20m-154 65 62-52v-21H206v21h411l53 52Z"/></symbol><symbol id="𬾖_G" viewBox="0 0 1000 1000" data-size="21"><path transform="matrix(1 0 0 -1 25 982)" d="m202 957 87-38c11-8 13-13 7-15-14 0-27-5-38-15-23-67-47-127-71-180V140l2-95c0-14-5-24-15-31-9-5-21-10-37-14 3 19 5 81 7 186v438c-39-72-83-129-132-172l-12 7c62 85 115 180 158 284 41 101 60 159 55 174-5 11-10 22-17 32l6 8m117-132 45-45h449l32 46 73-52c7-5 10-9 9-12-1-2-6-3-15-2H372V612c0-172-11-300-34-385-22-85-60-157-115-215l-6 12c41 74 70 151 87 231 14 70 22 181 24 332v186c-6 15-13 29-21 44l12 8m186 130 8 8c53-23 89-44 107-64 19-21 29-43 30-66-1-23-9-34-23-35s-22 7-23 25c-2 19-8 38-17 57-11 19-38 44-82 75m294-346 83-19c12-6 15-11 9-14-16-2-27-11-34-27-41-159-91-297-152-415l-15 6c45 118 78 217 98 297 19 87 28 134 25 143-4 7-10 15-17 22l3 7M332 114h513l32 40 67-50c5-3 7-6 6-7-1-2-5-3-12-3H409c-17 1-32-3-44-12l-33 32m62 453 13 7c39-45 71-88 94-130 20-36 33-71 38-106 6-33 6-57 0-74s-14-23-24-19c-12 1-17 18-16 51 1 31-7 70-22 117-16 45-44 96-83 154m139 103 9 10c45-49 78-92 97-128 20-38 33-73 39-106 5-28 6-52 2-73-7-17-15-24-26-22-10 1-15 19-15 52 1 30-8 69-25 117-17 47-44 97-81 150Z"/></symbol><symbol id="𬾗_J" viewBox="0 0 1000 1000" data-size="21"><path transform="matrix(1 0 0 -1 35 952)" d="M431 542h313l50 62c29-24 53-47 73-69l-11-18H610V399c0-20-1-39-4-59h194l55 72c30-27 55-53 75-78l-12-19H616c57-125 159-203 307-236-18-17-34-37-48-61-137 45-229 135-276 270C568 147 459 51 273 0l-13 22c164 57 259 155 284 293H271l-10 25h288c2 17 3 34 3 52v125H418c-31-58-65-106-103-143l-20 14c50 69 86 160 110 272 58-13 88-26 88-37 0-9-12-16-36-20-6-18-15-39-26-61m125 178v184c68-1 103-9 103-24 0-10-16-19-46-29V720h188l53 71c24-24 47-49 66-75l-11-21H295l-9 25h270M159 538c-41-78-87-146-137-204L0 351c99 143 174 328 227 553 64-15 95-30 95-45 0-10-15-17-46-22-21-77-47-148-76-213 39-7 58-17 58-27 0-8-14-17-42-26V7h-57v531Z"/></symbol><symbol id="𬾘_J" viewBox="0 0 1000 1000" data-size="21"><path transform="matrix(1 0 0 -1 37 948)" d="M719 694c38 33 70 70 96 112 41-23 62-40 62-51 0-8-10-12-30-12-23-17-49-35-77-52 58-21 87-47 87-78 0-20-8-30-25-30-13 0-23 8-31 23-14 26-33 49-58 69l-19-9c12-58 36-104 72-137 20-19 36-28 46-28 13 0 25 36 34 107l20-11c-3-27-4-48-4-65 0-34 8-53 24-57-2-29-16-44-41-44-46 0-91 26-134 77-51 61-77 155-80 282H317l-8 25h346l32 46c39-29 58-49 58-61 0-5-3-10-9-14l-23-15c1-27 3-53 6-77m-12-371c22 21 50 54 83 101 41-23 62-40 62-51 0-8-10-12-30-12-7-5-18-13-32-22-15-9-25-16-30-19 70-28 105-58 105-92 0-21-8-31-25-31-13 0-23 8-32 24-18 36-43 64-73 85-7-5-14-9-21-12 17-64 43-114 75-151 24-26 44-39 59-39s29 43 41 128l21-11c-5-39-8-72-8-97 0-32 8-50 24-54-4-29-17-44-40-44-45 0-89 26-134 78-37 42-65 96-85 162-17 58-26 119-26 184H496c-1-127-22-223-63-288-33-52-92-105-177-160l-16 19c74 57 125 117 155 181 29 64 44 145 46 243H263l-7 25h185v260c58-3 87-12 87-24 0-10-10-18-32-27V475h138l34 44c37-29 56-49 56-58 0-5-3-9-8-12l-23-15c1-37 6-73 14-111M139 515c-33-64-72-127-118-189L0 340c101 165 174 350 219 556 61-15 91-29 91-42 0-10-15-17-46-22-26-87-53-163-82-227 37-8 55-17 55-26 0-8-13-17-41-26V0h-57v515Z"/></symbol><symbol id="𬾙_S" viewBox="0 0 1000 1000" data-size="21"><path transform="matrix(1 0 0 -1 29 968)" d="m891 547 51-48v-20H669v-82h163l31 27 58-47-25-22V155h-64v222H669V31L605 0v377H445V109l-62-31v351l62-32h160v82H342v20h506l43 48m-708 69 32-5 15-10-15-10V39L152 8v561l-31-46-35-48-38-47-40-45-8 6 92 153 57 105 53 110 49 113 25 66 56-32 11-15-19-3-46-97-28-56-67-117m713-461-1-13-3-13-4-13-6-12-9-10-11-9-11-7-13-4-13-2-13-1v32l-53 15v16h53l6 1 4 1h4l1 1 1 1 1 2 1 1 1 3 1 4v7h64m-38 768 58-47-26-22V601l-63-32v53H404v21h423v113H429v21h398v99H411v20h416l31 27Z"/></symbol><symbol id="𬾚_J" viewBox="0 0 1000 1000" data-size="21"><path transform="matrix(1 0 0 -1 48 952)" d="m506 708-217-17-13 24 219 16c-24 53-41 111-51 173 64 0 96-7 96-21 0-6-11-14-32-23 9-41 23-83 43-125l209 16 41 64c34-25 58-46 72-61l-8-18-303-24c54-98 122-164 204-197 15-6 27-9 36-9 20 0 33 40 39 120l24-11c0-54 3-90 8-106 5-12 16-19 32-20-1-33-17-50-47-50-38 0-83 13-138 39-88 43-160 119-214 230m-352-26c-47-38-94-70-140-95L0 608c111 76 199 172 264 290 52-22 78-39 78-52 0-8-14-12-42-13-23-30-51-62-85-96 21-7 31-14 31-21 0-8-12-15-37-20V450h-55v232m52-380h215v196c67-1 100-9 100-25 0-8-14-17-41-27V302h220v131c63-4 95-13 95-28 0-9-13-17-38-26V246h-57v31H480V72h281v150c65-2 97-11 97-28 0-9-13-18-39-27V0h-58v47H148V0H89v213c65-1 97-9 97-25 0-9-13-18-38-27V72h273v205H206v-39h-57v190c64-2 96-10 96-25 0-9-13-18-39-27v-74m486 477c-13 0-23 8-31 25-12 25-41 52-87 79l9 18c95-21 142-50 142-87 0-23-11-35-33-35Z"/></symbol><symbol id="𬾛_S" viewBox="0 0 1000 1000" data-size="21"><path transform="matrix(1 0 0 -1 29 964)" d="m272 928 56-32 11-15-20-3-44-97-28-55-61-108-6-10 33-4 16-11-16-10V31L149 0v561l-30-45-35-49-37-47-39-45-8 6 91 153 55 106 53 109 48 113 25 66M847 94l-34 22-34 26-30 27-29 30-28 31-25 35-23 36-22 39-5 11V42l-62-32v293l-36-48-30-33-32-33-71-62-40-29-43-28-46-27-5 8 76 69 68 67 56 66 46 67 20 34 10 24H263v20h292v137l62-11 16-10-16-9V398h181l52 53 63-53v-20H619l49-59 28-30 58-55 30-24 30-22 33-19 31-18 63-29-59-49-35 21M555 378h-3l3-2v2M358 893l64-33h340l31 27 59-47-27-22V514l-63-32v53H422v-37l-64-31v426m404-205H422V556h340v132m0 152H422V708h340v132Z"/></symbol><symbol id="𬾜_S" viewBox="0 0 1000 1000" data-size="21"><path transform="matrix(1 0 0 -1 36 966)" d="m253 927 57-30 10-15-18-3-42-97-55-110-35-64 31-4 16-11-16-10V31L139 0v556l-26-39-33-49-35-48-37-45-8 6 84 152 53 106 49 109 22 56 41 111 4 12m538-558h1l28 24 58-47-26-16-14-6-20-36-35-50-39-45-40-37 41-23 44-22 47-17 92-30-62-53-53 21-51 24-46 27-42 29-13 11-11-7-52-32-58-26-61-23-68-17-70-12-2 10 67 21 62 25 57 26 52 31 48 33 3 2-25 27-29 38-23 41-20 43-10 43h-33l-5-25-17-61-24-57-26-50-31-45-35-38-39-32-44-24-4 7 35 32 31 36 28 39 25 44 20 49 17 53 13 58 9 64 5 69 2 63H287v21h403l32 26 58-47-26-15-13-6-44-141h92l2 3m-11-23H532l20-33 25-38 27-34 31-30 29-25 41 43 33 43 30 46 12 28m-95 182H511l-4-67-10-73-4-22h139l53 162m-428 74v21h127v237l63-10 16-10-16-10V623h112v309l62-11 16-11-16-9V790h133l53 52 62-52v-21H621V623h205l44 47 52-47v-21H257Z"/></symbol><symbol id="𬾝_G" viewBox="0 0 1000 1000" data-size="21"><path transform="matrix(1 0 0 -1 85 979)" d="m346 488 37-35h361l31 35 46-34c5-4 8-8 8-11s-3-5-8-8l-20-13V84c0-15-4-30-12-43-7-14-30-24-69-30-3 23-18 37-45 43s-54 12-79 17l2 14c73-11 116-17 129-17s21 2 26 6 8 27 7 70v49H391v-50l5-94c1-25-16-40-52-45 3 43 5 104 6 184v257c-7 17-12 27-16 32l12 11M220 948l84-36c11-7 14-12 7-15-15 1-27-6-36-19-30-79-57-142-81-189V139l1-95c1-23-16-38-51-44 3 25 6 86 7 184v426c-44-74-90-131-139-171l-12 7c66 83 122 178 168 285s67 167 62 179-10 22-16 30l6 8m171-634V211h369v103H391M262 487l-4 14c118 31 216 65 293 102-57 18-134 37-233 58l3 14c98-10 191-26 278-48 15 7 34 18 57 33 42 25 62 38 60 40 2 5 0 14-5 27l11 7 75-64c5-4 6-8 5-11s-4-5-10-4h-3c-15 1-28 2-40 1-24-13-55-28-92-45 48-15 91-32 128-50 27-16 41-32 41-49-1-15-8-23-22-24-10-1-26 7-49 22-43 29-93 54-152 75-93-43-206-75-341-98m129-54V332h369v101H391M281 718l-4 16c113 25 210 56 291 92-50 15-128 33-235 54l3 14c111-13 204-29 277-47 18 9 35 19 51 29 43 28 66 45 67 51 4 7 2 15-6 24l11 6 76-60c5-4 7-7 6-10s-5-4-11-4h-15c-11 1-20 1-27 0-29-16-61-33-98-50 46-14 85-29 116-45 33-16 48-33 45-50 0-13-7-21-20-22-7-1-23 7-46 23-46 29-94 53-144 70-80-37-192-67-337-91Z"/></symbol><symbol id="𬾞_G" viewBox="0 0 1000 1000" data-size="21"><path transform="matrix(1 0 0 -1 27 980)" d="m824 920 55-58c5-5 7-9 6-12-1-2-5-3-10-2-18 3-34 4-49 2-13-2-35-8-66-19-33-11-88-22-165-34V636h228l36 44 65-50c7-5 10-9 8-11-1-3-8-4-19-3H778V284l2-95c1-23-15-38-49-44 3 44 5 106 6 185v286H595c-3-92-10-175-21-248-8-69-48-142-121-218l-10 12c48 69 78 137 91 206 11 62 17 145 20 250v183c-2 15-10 28-25 40l9 11 50-34c65 15 115 28 149 41 20 7 39 16 58 27 1 1 1 1 2 1 9 6 15 16 18 30l9 3m-621 40 82-42c7-4 11-7 11-9s-1-4-4-5h-2c-15 0-27-8-36-23-18-54-36-103-54-147l-11-24 2-665c1-24-16-39-50-45 5 56 7 118 7 185v438c-43-80-89-140-137-179l-11 7c64 85 117 181 160 290 37 96 55 154 55 173-1 11-7 23-18 38l6 8m64-936-41 40c3 3 7 6 12 11 38 32 66 55 85 68 23 17 40 26 51 28v349h-69c-12 1-24-3-36-12l-31 32h121l31 36 48-44c5-4 7-7 6-10s-4-5-10-6l-19-8V160c7-5 16-12 25-21 17-17 36-30 57-41 24-11 61-19 111-24 35-3 84-4 149-3 62 1 124 3 186 7l2-16c-38-5-59-16-62-33-142 2-248 6-319 11-28 3-53 10-76 23-29 17-50 34-63 51-14 17-27 26-39 27-14 1-31-9-51-30-24-25-47-54-68-87m28 837 5 13c65-33 107-71 126-113 13-40 8-63-15-69-9-1-15 7-18 24-1 15-8 34-20 57-10 21-36 51-78 88Z"/></symbol><symbol id="𬾟_G" viewBox="0 0 1000 1000" data-size="21"><path transform="matrix(1 0 0 -1 22 977)" d="m527 951 58-52c6-6 9-11 9-14s-3-5-9-6c-17 5-59 2-124-11-5-1-8-1-10-2-13-3-28-6-46-9-22-5-38-8-47-9V740c0-27 0-51-1-72h132l34 40 50-48c5-4 6-7 5-10s-4-6-10-7l-18-9V457l4-63c4-26-12-40-49-43v65H350c-5-171-49-306-130-405l-12 8c70 103 105 276 104 519 2 74 2 179 1 315 0 15-5 30-16 45l16 8 35-36c32 8 72 20 119 37 19 7 35 14 46 20 4 3 7 11 8 22l6 2m344-12 55-50c6-6 9-11 9-14s-3-4-9-5c-20 6-53 2-100-13-29-9-79-21-151-35V607h196l28 35 47-37c7-5 10-10 9-13s-7-4-16-5H829V152l2-95c1-24-16-39-52-44 3 25 5 86 5 184v390H675v-25c-1-166-18-290-51-372-33-79-70-139-110-179l-12 10c49 66 84 145 103 236 17 72 26 183 25 333v241c-1 1-2 4-3 7-5 12-10 21-15 27l9 9 44-32c95 23 158 47 189 70 6 5 9 13 10 25l7 2m-693 15 79-46c11-7 12-12 5-15-14 1-26-3-36-14-14-47-34-101-59-164V139l4-95c1-22-17-37-54-44 3 25 6 86 7 184v444l-6-12C85 557 50 508 12 467l-12 8c66 107 115 203 147 288 32 89 46 139 41 150 0 1 0 1-1 2-5 15-10 26-15 32l6 7m179-306c-1-79-3-149-6-212h154v212H357Z"/></symbol></svg>