<svg xmlns="http://www.w3.org/2000/svg"><symbol id="𭉮_S" viewBox="0 0 1000 1000" data-size="21"><path transform="matrix(1 0 0 -1 44 966)" d="m822 290-39-49-24-27-25-24-24-21-24-18-25-14-25-10-5 8 18 17 38 41 38 50 40 59 57 99v104l-22-34-34-43-37-41-21-20-46-36-25-17-6 8 82 113 26 44 22 41H638l-27-22V84h-62v206l-39-49-25-27-24-24-24-21-25-18-24-14-26-10-4 8 54 58 39 50 21 28 40 64 37 66v100l-23-31-35-43-39-40-20-20-47-36-25-17-6 8 69 91 44 66 22 41H354v20h195l31 26 47-38v12h195l32 26 57-46-26-22V70l-3-12-4-13-7-12-9-11-10-8-11-6-13-5-14-2-13-1v31l-63 16v16h70l5 1 2 1 3 1 2 3 1 4v5l1 6v206M611 84V70l-2-12-5-13-6-12-8-11-11-8-12-6-12-5-14-2-14-1v31L423 47v16h111l5 1 3 1 2 1h1l2 3 1 4 1 5v6h62M342 428l-4-61-6-56-8-52-10-48-9-44-13-39-14-35-15-31-19-25-18-20-7 5 10 24 10 27 10 31 8 34 8 38 6 43 5 46 4 50 3 56 1 59v458l58-30v-1l228 29 165 25 110 20 5 1 1-6 59-49 2-16-24 13-29-5-58-7-114-12-57-4-55-4-54-2-54-1h-52l-52 1-21 2v-68h471l31 27 57-47-25-22V597l-63-33v33H342V428M0 813l63-32h104l28 27 56-47-26-19V265l-58-30v61H63v-63L0 201v612m167-52H63V317h104v444m646-7H342V617h471v137Z"/></symbol><symbol id="𭉯_K" viewBox="0 0 1000 1000" data-size="21"><path transform="matrix(1 0 0 -1 58 950)" d="M228 786c12-11 18-19 18-25 0-7-9-11-26-14V302c0-33 0-50 1-49-2-5-9-9-22-11-9-3-15-5-17-5-3 0-5 2-5 5-1 3-1 10-1 19 0 15 1 27 1 34v12H45v-45c0-26 0-39 1-38-1-4-10-8-25-11-8-3-13-4-15-4-3 0-4 2-5 5s-1 9-1 18c1 17 1 29 1 38v554l48-30h116l12 15c6 9 10 13 11 13s6-4 16-12l24-24M872 34c-12 13-23 15-34 7-12-7-19-11-21-11-5 0-13 12-21 35-42 112-67 236-74 372-16-92-45-176-88-251-43-76-94-134-155-174l-9 7c157 136 235 352 234 649h-36c-22-79-49-142-83-190l-12 7c29 53 53 128 72 224 13 66 21 130 26 191l37-12c18-6 27-12 27-19 0-6-9-11-27-15-10-63-21-118-34-166h132l13 17c6 9 10 13 13 13 2 0 7-4 16-13l20-21c11-10 16-18 16-24 0-8-13-13-39-15l-55-149-11 3 32 169h-69c4-48 2-106-7-175 6-78 23-164 52-257 31-95 62-160 94-193l-9-9M177 328v444H45V328h132m338 177c17-7 26-14 26-22 0-7-11-12-34-16-19-65-41-124-66-177 47-68 69-116 66-143-3-28-10-42-21-42-9 0-17 16-23 47-5 18-19 52-42 102-23-47-55-96-98-149-42-52-77-87-105-105l-6 7c26 21 58 60 96 115 42 60 73 115 92 165-31 56-70 105-116 147l8 11c49-37 90-77 125-120 23 50 43 115 59 196l39-16m94 217-8-15H258v21h143v126l-3 43 40-8c21-8 32-14 32-19 0-3-9-9-28-18V728h69l20 32c7 8 11 12 13 12 3 0 12-5 25-16l40-34m-232-53c11-10 17-18 17-25s-9-11-27-12c-11-29-25-58-41-88-15-30-44-69-87-116l-10 8c25 30 47 70 67 119s34 95 42 139l39-25m198-131c0-27-7-41-20-41-10 0-18 13-24 38-10 46-36 96-79 148l12 8c38-36 62-62 74-77 22-26 35-51 37-76Z"/></symbol><symbol id="𭉰_S" viewBox="0 0 1000 1000" data-size="21"><path transform="matrix(1 0 0 -1 53 959)" d="m322 919 63-11 16-11-16-8V31L322 0v919m189-554 62-32h204l32 26 57-46-25-22V51l-64-32v52H573V34L511 3v362m266-52H573V93h204v220M0 784l63-32h92l32 26 57-47-25-21V202l-64-31v62H63v-62L0 139v645m155-53H63V255h92v476m301-298v21h103l36 207h-93v22h97l25 149H477v21h282l53 52 63-52v-21H688l-26-149h84l32 26 58-48-26-20V454h10l33 37 42-37v-21H456m290 228h-87l-37-207h124v207M228 501l55-28-18-16-24 2-15 19 2 23m62 192-6-28-13-53-6-22-13-39-6-16-6-14-7-11-5-9 55-28 5 14 4 17 4 17 2 20 3 43 1 24v27l-2 28-1 30h-9m137-124-1 15-2 14-7 30-8 31-11 32-7 16 7 5 12-13 13-13 11-14 10-14 10-14 17-30 13-31 5-15-4-24-20-14-24 6-13 20-1 13Z"/></symbol><symbol id="𭉱_K" viewBox="0 0 1000 1000" data-size="21"><path transform="matrix(1 0 0 -1 56 946)" d="M43 283h92v455H43V283M0 781l43-28h82l23 28 38-30c13-12 17-20 11-25-4-4-11-6-21-6l-1-1V274c0-13 0-21-1-26-3-6-10-11-21-15-9-2-15-1-17 3-2 2-2 8-2 17l1 10H43l1-36c0-16 0-26-1-31-2-6-8-11-17-15-11-4-18-4-21 1-1 2-2 9-1 19l1 11v500l-5 69m356-55c25-16 45-30 59-43 18-18 30-37 36-58 3-20-1-34-12-41-9-7-17-1-23 17s-13 36-21 51c-12 23-26 43-42 61l3 13m-52 167 58-21c15-6 20-12 14-18-4-3-13-8-28-12l-1-1V69l1-19c0-11 0-19-1-23-3-6-8-12-17-16-12-5-19-6-21-3-2 1-3 7-2 17l2 17v795l-5 56m-88-427c0 8 1 15 3 21 2 5 5 11 9 19 5 10 9 19 12 26 5 13 9 27 12 42 3 10 4 22 5 37v69l12 2c8-36 11-76 9-121-1-47-7-82-17-106-11-20-20-30-29-30-8-1-14 10-16 33v8m285 205c1-7 2-16 3-26 1-6 1-13 1-21h140v129H545l-58-5-10 23 57-1h111v73l-3 46 51-15c22-7 31-14 25-20-4-3-15-7-33-11v-73h85l35 37 49-36c7-6 9-11 5-14-2-3-7-5-15-5H685V624h121l26 28 37-31c18-16 23-26 16-30-4-3-17-4-40-4l-61-72-12 7 42 86H505c-1-19-5-39-11-59-5-20-12-36-20-48-11-16-20-23-27-21-9 3-14 15-15 38 0 7 1 15 5 23 2 5 7 11 15 21 12 14 20 28 25 40 9 19 13 42 12 69h12m-60-398h204v64l-3 52 56-17 35 90H593l-85-5-7 22 74-1h157l34 26 29-26c14-12 19-21 18-26-3-6-15-8-36-8l-68-79c2-2 1-5-3-9-4-2-10-5-19-9v-74h107l38 43 47-40c7-5 9-10 6-14s-8-5-17-5H687V74c-2-22-9-39-23-50-12-11-32-19-58-24l-5 31c-2 4-9 8-21 13-13 5-32 11-58 19l2 11 33-4 61-7h3c9 0 15 1 18 2 3 2 5 5 6 10v182H455l-59-4-10 22 55-2Z"/></symbol><symbol id="𭉲_K" viewBox="0 0 1000 1000" data-size="21"><path transform="matrix(1 0 0 -1 55 949)" d="M228 786c12-11 18-19 18-25 0-7-9-11-26-14V302c0-33 0-50 1-49-2-5-10-9-23-11-8-3-14-5-16-5-3 0-5 2-5 5-1 3-1 10-1 19 0 15 1 27 1 34v12H45v-45c0-26 0-39 1-38-1-4-10-8-25-11-8-3-13-4-15-4-3 0-4 2-5 5s-1 9-1 18c1 17 1 29 1 38v554l48-30h116l12 15c6 9 10 13 11 13s6-4 16-12l24-24M881 28c-17 8-28 8-33-1-8-7-12-10-15-10-6 0-15 9-28 29-32 50-61 107-86 172C650 112 565 39 466 0l-6 9c42 20 84 51 128 93 47 48 86 101 114 159-14 38-27 89-37 155-11 66-17 131-18 194-20-70-43-118-69-144l-14 8c28 43 52 111 74 205 18 80 28 153 31 218l41-12c18-7 27-12 27-16s-9-9-28-16c-16-89-30-149-41-180h138l23 30c7 8 11 12 12 12 2 0 7-5 16-16l33-33-6-14h-61c-5-159-32-291-81-394 18-43 40-84 67-125 28-43 55-74 81-95l-9-10M177 328v444H45V328h132m332 177c17-7 25-14 25-22 0-7-11-12-33-16-19-65-41-124-66-177 47-68 69-116 66-143-3-28-10-42-22-42-8 0-15 16-22 47-5 18-19 52-42 102-23-47-55-96-98-149-42-52-77-87-105-105l-6 7c26 21 58 60 96 115 41 60 72 115 92 165-31 56-70 105-118 147l9 11c49-37 91-77 125-120 24 50 44 115 60 196l39-16m154 147c1-142 21-259 60-350 17 41 31 94 42 158s16 129 14 192H663m-60 70-8-15H252v21h143v126l-2 43 40-8c20-8 31-14 31-19 0-3-10-9-28-18V728h69l19 32c7 8 11 12 13 12 4 0 12-5 26-16l40-34m-233-53c12-10 18-18 18-25s-9-11-27-12c-11-29-24-58-41-88-15-30-45-69-88-116l-8 8c24 30 47 70 66 119 20 49 34 95 42 139l38-25m199-131c-1-27-8-41-20-41-11 0-19 13-25 38-9 46-35 96-78 148l12 8c38-36 63-62 74-77 22-26 34-51 37-76Z"/></symbol><symbol id="𭉳_S" viewBox="0 0 1000 1000" data-size="21"><path transform="matrix(1 0 0 -1 43 950)" d="m503 191 47-42 6-18-21 3-24-24-22-18-22-17-24-15-25-15-25-14-28-11-28-11-29-9-4 10 92 67 40 35 35 38 15 19 17 22M779 27l-11 15-29 30-35 32-88 73 5 9 56-24 26-13 46-26 40-27 18-14 16-15 15-14 6-24-11-21-23-6-22 11-9 14M0 794l63-32h124l32 26 57-47-26-21V245l-63-31v62H63v-62L0 182v612m291-559v22h260v110l62-11 16-10-16-10v-79h148l52 53 63-53v-22H291M187 741H63V298h124v443m584-76V375l-62-32v63H463v-63l-64-31v426l64-31h246l31 26 51-42 6 29 16 54 2 18 4 15 2 7H354l1-18v-30l-1-28-3-25-4-23-6-21-9-19-11-17-19 17-17 15-5 4-6 6 8 7 7 10 8 14 7 19 7 21 5 25 5 28 6 30 9 71h10l8-64h469l32 26 58-48-26-15-13-5-28-52-21-34-24-37-13-21-9 5 8 22-16-12m-62-114H463V427h246v124m0 136H463V571h246v116m-435-12 47-42-21-10-23 8-9 21 6 23Z"/></symbol><symbol id="𭉴_S" viewBox="0 0 1000 1000" data-size="21"><path transform="matrix(1 0 0 -1 50 939)" d="m377 8-23-8-21 11-8 22 3 37v34l-1 32-3 28-6 24-3 11-5 1 3 9-9 20-10 18-12 16-15 13 4 9 22-7 21-11 14-13 68 185 76 192 9-3-89-342-15-62-4-22-1-14h-6l5-13 8-31 6-36 3-38V29L377 8m79 31v22h190v259H497v22h247l53 53 62-53v-22H710V61h75l53 51 62-51V39H456M0 794l63-32h120l31 26 58-47-26-21V245l-63-31v62H63v-62L0 182v612m183-53H63V298h120v443m324 123 62-31h217l32 26 58-46-26-22V452l-64-32v53H569v-36l-62-33v460m279-217H569V494h217v153M330 537l-3 11-4 10-6 10-13 21-8 10-22 21-13 8 5 9 14-6 16-4 16-6 13-7 13-8 13-8 11-11 11-11 9-12 9-13v-24l-18-17-23 1-18 16-2 10m456 276H569V669h217v144m-404-35-3 10-4 11-5 11-14 20-17 21-10 10-13 9 5 8 15-6 15-4 13-6 14-7 13-7 11-10 12-10 10-11 11-11 7-13 1-24-16-17h-25l-17 16-3 10Z"/></symbol><symbol id="𭉵_J" viewBox="0 0 1000 1000" data-size="21"><path transform="matrix(1 0 0 -1 41 956)" d="M313 52V2h-57v227c27-10 50-20 68-30h411l36 40c40-29 60-47 60-55 0-5-4-10-10-15l-20-15V2h-56v50H313m0 25h432v97H313V77m9 514h116l39 55c23-22 40-43 53-62l-11-18H322v-93c77 10 147 23 210 36l6-25c-106-29-207-53-303-72-5-26-11-38-20-38-14 0-27 28-40 84 28 2 59 5 91 8v224c63-2 94-10 94-23 0-8-12-17-38-27v-49M167 744h380c27 54 49 110 65 167 58-20 86-36 86-49 0-8-13-13-39-15-17-29-44-64-79-103h200l51 65c26-24 49-48 68-71l-12-19H159V537c0-239-46-418-137-537L0 15c66 117 99 290 99 517v240c20-7 42-16 68-28m463-460v86H348l-11 25h284l36 39c39-27 59-45 59-53 0-4-3-8-10-13l-21-15v-69h130l44 60c24-22 44-44 60-66l-11-19H177l-10 25h463m-8 300c68 28 128 62 180 104 45-31 67-52 67-63 0-6-5-9-15-9-7 0-18 2-32 6-57-26-123-48-200-66v-29c0-17 6-28 17-32 11-3 35-5 73-5s64 2 77 4c17 4 28 10 33 19 6 13 12 39 17 80l26-9c0-37 4-62 13-75 6-9 16-13 30-13 0-25-11-41-32-48-19-6-70-9-152-9-77 0-123 6-138 18-13 9-19 28-19 55v176c64 0 96-8 96-24 0-8-14-17-41-26v-54M385 751c-14 0-24 12-30 36-10 37-32 71-67 101l13 17c81-33 121-72 121-118 0-24-12-36-37-36Z"/></symbol><symbol id="𭉶_S" viewBox="0 0 1000 1000" data-size="21"><path transform="matrix(1 0 0 -1 46 963)" d="m295 798 58-29h198v158l62-11 16-11-16-9V769h178l53 52 63-52v-21H353V459l-2-61-5-56-8-54-9-52-12-48-14-44-17-41-18-39-23-34-24-30-8 5 16 34 15 36 13 38 11 41 9 44 7 46 6 49 4 53 2 55-1 58v339M780 36l-42 17-39 19-38 24-33 25-27 25-3-3-33-35-39-28-45-23-51-18-57-13-61-6-2 9 59 17 52 19 45 22 38 25 30 28 25 31 7 14-24 32-22 39-17 41 8 4 27-33 28-32 16-15 8 21 7 41 1 38H482v-63l-63-31v366l63-31h116v83H384v20h396l43 47 53-47v-20H661v-83h110l33 26 57-47-26-21V290l-64-32v63H660l-4-47-12-48-19-42 32-24 33-18 35-18 36-14 39-11 87-19-62-58-45 14M0 808l63-33h119l29 27 55-47-27-19V259l-57-30v61H63v-62L0 195v613m182-53H63V312h119v443m416-322H482v-91h116v91m173 0H661v-91h110v91M598 541H482v-87h116v87m173 0H661v-87h110v87Z"/></symbol><symbol id="𭉷_S" viewBox="0 0 1000 1000" data-size="21"><path transform="matrix(1 0 0 -1 45 940)" d="m513 696 62-52v-22H427V26L374 0v622H244v22h216l53 52m9-668v21h64v818l58-28h141l32 26 58-48-26-20V49h5l24 32 31-32V28H522m263 271H644V49h141v250M279 538l52-10 14-10-14-9V360l-2-44-3-39-5-38-6-33-7-31-9-28-11-23-12-21-13-17-16-12-6 5 8 17 7 17 6 21 6 22 3 27 4 29 3 32 1 35v259m198 0 52-10 13-10-13-9V174l-52-27v391M0 803l63-32h108l28 26 56-47-26-19V254l-58-29v60H63v-62L0 190v613m171-53H63V307h108v443m614-191H644V319h141v240m0 258H644V579h141v238m-304 63 52-48v-20H282v20h156l43 48Z"/></symbol><symbol id="𭉸_S" viewBox="0 0 1000 1000" data-size="21"><path transform="matrix(1 0 0 -1 46 945)" d="m466 693 62-52v-22H395V21L353 0v619H235v22h178l53 52m264-572 64-53V47H502v21h177l51 53m97-29-31 37-27 48-22 57-18 69-16 79-12 91-2 31h-93V235l104 36 4-7-43-33-42-28-23-14-36-19-33-17-6-20-14 12-1 1-2 6v1l-2 7-1 5-2 4v1l-2 7-1 2v1l-2 8h-1l-4 14v1l-1 2 17 3 17 5 17 5v588l51-26 83 33 24 12 48 25 46 26 21 15 13-21 27-28 1-19-18 8-41-18-27-12-27-9 2-104 5-111 4-52h29l53 52 62-52v-21H763l2-25 10-86 15-76 17-63 19-51 22-38 7-10 25 102h10l-9-125 12-9 15-18V82l-18-17-24 1-39 26M266 535l47-10 11-10-11-9V357l-2-44-2-39-5-37-5-33-7-31-8-27-9-24-11-21-12-17-14-13-6 5 7 16 6 17 5 21 5 23 5 26 3 29 2 33 1 35 1 39-1 42v178m232-330 18-59-28 56 10 3m-10-35-47-24v389l47-10 12-10-12-9V170M0 800l63-32h101l28 26 56-47-26-18V251l-58-29v60H63v-62L0 188v612m164-53H63V304h101v443m524 27-22-3-28-5-30-3h-2V525h91l-4 48-5 113v88M439 877l53-48v-20H269v20h127l43 48Z"/></symbol><symbol id="𭉹_S" viewBox="0 0 1000 1000" data-size="21"><path transform="matrix(1 0 0 -1 49 960)" d="m397 93 59-25-6-11-7-11-7-11-9-10-11-7-11-6-11-6-13-3-14-2-13-1v31L249 47v16h113l5 1 6 2 4 1 4 2 4 4 3 3 4 4 3 6 2 7m126-25-2 8v9l64 9 82 13v245h-71v-64l-64-31v380l64-33h71v165l-42-13-37-8-36-5-38-3-1 10 101 38 32 15 64 33 61 39 59 45 38-51 1-18-18 6-50-30-34-18-36-16-2-1V604h79l32 27 57-47-26-21V341l-63-31v42h-79V118l46 9 38 6-37 123 9 5 31-45 14-23 35-66 20-44 9-22 7-22-3-23-18-15-25 3-14 19-9 42-6 22-6 22-2 7-35-16-61-23-31-11-62-18-65-18-11-3-8-17-13 12v1l-2 7v1l-2 8-1 5v2l-3 15v2l-1 3v2m-2 17 11-62-22 60 11 2m-124 8 59-25 8 24 7 24 6 29 5 31 4 33 4 38 3 39 3 44 2 46v23l27 16-57 47-32-26H322l17 183h94v-62l62 31v225l26 22-57 47-31-27H256v-20h177V641h-96l-56 34-32-351 65 26 6 65h116l-1-38-1-45-6-80-4-35-9-61-6-24-6-22-6-17M0 800l63-32h91l32 26 57-47-26-21V251l-63-31v62H63v-62L0 188v612m154-53H63V304h91v443m513-163h-71V372h71v212m141 0h-79V372h79v212Z"/></symbol><symbol id="𭉺_S" viewBox="0 0 1000 1000" data-size="21"><path transform="matrix(1 0 0 -1 46 958)" d="M535 467v-1l-2-47h55l1 73v137h-54V467m338-262-8-10-9-9-8-9-10-8-11-7-12-5-11-4-13-4-13-1-13-1v33l-21 8V39L682 8v868l62-31h74l32 26 58-48-26-15-9-4-23-64-32-81-12-29-31-63-9 3 5 35 14 65 7 29 12 55 9 47 3 21v1h-72V211h28l7 1 7 2 6 2 5 2 5 4 5 3 5 4 4 5 4 6 53-35M0 803l63-32h67l31 26 58-47-27-21V254l-62-31v62H63v-62L0 190v613m820-563 5 8 5 20 4 26 2 32-2 36-4 39-10 40-12 40-18 40-19 42 6 5 36-32 27-39 20-43 14-43 10-42 5-41 1-37-2-33-5-28-10-25-8 6h-1l-1 1-5 4-38 24M130 750H63V307h67v443m220-91h-38l-34-298 15-7 19-13 12 71 12 81 8 86 6 80m236 172h-51V649h54l-1 63-1 77h-1v42m-20-718 3 14 6 28 4 42 4 56 3 67 2 78h-56l-6-63-7-58-11-53-13-49-16-44-17-38-5-9h61l7 1h6l6 2 5 2 5 2 4 4 4 3 4 5 4 4 3 6m-93 354v162h-50v20l-10-5-2-1-7-70-12-89-15-82-18-76-6-21 13-16 16-19 15-24 13-23 12-27-1-23-18-17-23 2-17 17-8 23-8 24-9 20-2 4-21-55-25-57-29-52-32-45-36-37-6 6 26 43 23 47 23 51 19 57 18 64 7 32-13 16-14 17-2 1-4-40-66-24 44 389h-42v21h45l26 235 62-18 14-11-16-6-23-200h37l31 26 57-47-15-10h49v182h-54v21h167l31 26 58-47-26-16 2-102V491l-1-93-1-80-3-68-3-58-5-45-7-35-9-27-6-11-8-11-8-9-10-9-10-8-12-5-11-5-13-4-13-2h-13v32l-74 10-2-4-23-27-25-21-7 7 16 26 12 24h-2v16h9l9 22 11 38 9 42 9 46 6 52 4 56 2 58h-60v21h60l1 48M622 85l-25 13 25-13Z"/></symbol><symbol id="𭉻_S" viewBox="0 0 1000 1000" data-size="21"><path transform="matrix(1 0 0 -1 55 958)" d="m437 145-11 21-12 22-13 20-11 15-14-33-31-58-33-51-39-45-40-36-6 7 31 42 29 48 27 51 25 58 18 53-41 37-1-3-66-22 56 387-65 1v21l67-1 34 237 60-20 15-12-18-5-28-201 104-2 24 31 31-32-1-21-38 1-10-83-14-89-19-82-20-76-20-58 11-9 20-19 19-21 17-22 15-24 15-26 1-24-17-18h-24l-18 16-9 25M567 16l-4 5 4-5M0 803l63-32h92l32 26 57-47-25-21V254l-64-31v62H63v-62L0 190v613m367-146-49-343 33-11 16-9 13 44 16 75 14 80 11 87 7 76-61 1m-212 93H63V307h92v443m595-164H592V444h158v142m0 157H592V606h158v137M521 56l8 7v733l63-32h48v152l62-10 16-10-16-10V764h48l31 26 58-47-26-21V412l-63-31v42h-88l14-48 15-50 17-47 19-42 18-34 19 38 64 121 50-38 8-17h-22l-37-43-40-40-36-31 17-26 22-28 24-26 27-20 49-30-59-46-32 24-28 29-26 33-22 36-20 39-16 44-14 46-12 49-7 54-4 53h-58V95l35 17 43 20 24 12 5-8-56-48-42-39-17-17 3-23-18 5-48 42Z"/></symbol><symbol id="𭉼_G" viewBox="0 0 1000 1000" data-size="21"><path transform="matrix(1 0 0 -1 43 963)" d="M650 880c3-5 2-9-5-10-12-1-23-7-32-18-15-42-28-79-38-112v-11h234l30 37 57-43c7-5 10-9 8-11-1-3-8-4-19-3H735V516h68l23 39 60-41c7-5 10-9 8-11-1-3-8-4-19-3H735V323h72l23 39 60-41c7-5 10-9 8-11-1-3-8-4-19-3H735V115h88l22 43 61-49c7-5 9-9 8-11-2-3-8-4-19-3H576l1-50c1-23-15-38-48-45 3 25 6 87 7 185v453c-19-44-52-103-99-177l-10 10c57 116 99 229 128 338 13 45 17 71 14 78s-7 16-14 25l8 6 87-38M14 798l27-29h116l37 36 41-44c4-4 5-7 4-10s-4-6-10-7l-18-9V402l6-132c0-20-14-30-41-30v89H52V221c2-24-12-38-42-43 3 25 6 67 7 127v445c-2 14-8 26-17 37l14 11m38-449h124v400H52V349m416 409c-7-3-12-8-14-15s-5-25-9-55c-4-29-12-74-25-135-7-40-17-79-28-116 24-51 41-94 52-128 21-71 18-110-7-116-12-1-21 22-27 67-5 37-17 79-35 126-1-1-1-2-1-3-36-105-96-199-181-284l-8 12c33 43 60 84 82 122 23 39 44 86 64 141 5 12 11 30 19 55 1 5 2 8 3 11-26 62-62 127-107 195l9 9c46-51 83-103 112-156 2 9 5 22 8 40 2 9 3 16 4 21 13 63 23 132 31 208H310c-13 1-23-3-31-12l-31 32h147l28 31 48-39c3-1 5-3 4-5 0-2-2-4-7-6m228-49H575V516h121v193M575 307V115h121v192H575m121 193H575V323h121v177m-40 412 6 14c49-26 83-57 102-93 19-45 14-70-15-75-10 1-16 11-18 30s-8 38-18 58c-8 19-27 41-57 66Z"/></symbol><symbol id="𭉽_K" viewBox="0 0 1000 1000" data-size="21"><path transform="matrix(1 0 0 -1 36 932)" d="m129 564-72-3-12 20 81-4h95v73l-3 42 50-12c23-5 35-9 35-13 0-5-12-10-36-14v-76h82l39 35 50-31c8-5 10-9 6-13-4-2-10-4-18-4h-84l21-7c20-11 29-18 27-23-4-4-17-6-41-4l-40-47-47-50 11-7c21-11 37-20 46-27 17-13 27-25 32-38 3-16 1-26-6-31-7-4-19 1-33 14l-7 8c-13 12-24 21-33 28-13 12-25 22-36 29-31-27-63-53-95-77-35-24-68-44-101-61l-9 9c32 20 62 42 93 66 31 26 60 52 87 80l-64 43c-20 13-38 24-55 33l4 8c24-9 46-17 65-26 26-12 50-25 70-38 17 20 34 39 49 59 14 20 27 40 39 59H129m493 194c22-6 30-12 24-17-3-4-14-8-33-12-32-65-62-122-91-169-36-62-69-106-98-132l-11 7c32 39 62 87 90 146 27 56 51 120 72 191l47-14m-51 64h139l35 32 46-32c14-10 18-17 10-21-5-3-22-5-51-6 3-53 20-110 51-171 35-70 77-118 127-144l-3-14c-13-1-26-3-38-8s-21-10-27-18c-34 53-63 112-88 179-23 66-39 128-47 188H593l-59-3-11 19 48-1m86-337c18-6 28-12 29-19s-10-13-34-18L516 116c46 5 99 11 158 19 51 7 94 13 131 18-13 23-29 48-46 75-16 24-32 48-50 72l6 5c68-62 115-109 139-142 31-37 47-71 47-102 0-18-5-28-16-30-11-1-19 7-27 24-4 9-10 21-16 33-9 18-19 36-30 54-18-6-51-14-99-25L579 87l-96-22-8-13c-8-13-13-20-16-20-5-1-11 6-17 23l-19 49 2 1 38 3c16 2 28 4 37 5l47 157 66 226 44-11M80 271l46-26h235l26 26 40-31c14-11 18-19 11-25-4-4-11-6-21-6V76c1-21 0-34-2-39-3-8-11-13-23-16-11-3-18-1-21 4-1 4-2 11-1 23l2 17H129V47c1-14 0-23-2-27-2-7-8-12-17-16-13-4-21-3-24 3-2 3-3 11-2 23l1 9v165l-5 67m49-191h242v150H129V80M0 620c57 31 103 67 140 106 36 39 65 86 87 140l46-16c10-4 15-8 15-11s-8-6-23-10c32-36 69-69 111-100 47-34 92-59 136-74v-8c-12-1-22-5-32-11-6-5-12-12-16-21-34 23-72 55-113 96-39 39-71 77-98 113-27-47-61-89-102-124-39-35-88-64-145-87l-6 7Z"/></symbol><symbol id="𭉾_S" viewBox="0 0 1000 1000" data-size="21"><path transform="matrix(1 0 0 -1 62 963)" d="M663 251H244v21h419v103l63-10 15-11-15-9v-73h33l53 53 62-53v-21H726V84l-1-13-2-12-4-13-7-13-9-10-11-9-11-6-13-4-13-3-13-1v32L537 48v15h111l5 1 3 1 2 1 1 1 1 1 1 2 1 3v5l1 6v167M452 90l-4 14-5 15-10 27-12 27-15 26-9 11 7 7 26-17 12-9 12-10 24-25 9-13 20-31 8-16-1-24-18-16-23 1-17 17-4 16M0 801l63-32h87l32 26 58-47-26-21V252l-64-31v62H63v-62L0 188v613m150-53H63V305h87v443m139-363-2 13v3l48 3 48 3 96 6 51 3v101H394v-38l-63-31v320l57-29h142v70H247v21h283v96l63-11 15-11-15-9v-65h167l53 53 63-53v-21H593v-70h143l29 23 57-47-26-21V517l-64-32v32H593v-98l29 2 48 2 49 1h18l-28 32-11 11-11 10 3 8 32-10 15-7 16-9 29-21 29-25 14-15 14-15 5-24-13-19-23-5-21 13-18 30-19 29-3 3-73-15-192-31-141-19-27-4-8-17-12 15v1l-1 8v4l-1 4v3l-1 4v2l-2 18v2m-2 16 7-62-17 61 10 1m243 216H394v-80h136v80m202 0H593v-80h139v80M530 718H394v-79h136v79m202 0H593v-79h139v79Z"/></symbol><symbol id="𭉿_J" viewBox="0 0 1000 1000" data-size="21"><path transform="matrix(1 0 0 -1 63 951)" d="M481 331h162l39 43c41-33 62-54 62-63 0-5-4-9-11-12l-28-13c-50-78-111-140-184-186C454 57 371 23 274 0l-14 20c92 31 172 71 238 120-2-1-5-1-9-1-13 0-22 8-27 24-11 29-36 57-73 85-40-27-81-51-123-71l-13 20c106 64 184 145 234 245 54-16 81-31 81-45 0-6-15-10-46-13-9-12-22-30-41-53m-24-25c-10-10-26-24-47-41 36-13 64-29 84-47 17-15 25-29 25-43 0-9-1-16-4-22 55 45 99 96 132 153H457m-69 168v295c24-10 45-19 64-29h41c6 28 9 54 11 76H285l-10 25h481l52 61c27-23 49-46 66-67l-11-19H580c-14-25-31-51-51-76h148l38 43c39-30 58-50 58-58 0-3-2-7-7-10l-24-14V474h28l39 48c44-39 66-64 66-75 0-5-5-9-15-12l-30-8c-16-23-38-48-67-75l-22 12c15 31 26 60 33 85H356c0-40-9-76-26-106-10-18-24-28-43-28-24 0-36 12-36 36 0 9 7 19 20 30 34 30 52 75 56 136l24-6c3-15 4-27 5-37h32m55 0h244v69H443v-69m0 94h244v62H443v-62m0 87h244v60H443v-60M177 252H56V139H0v647c24-12 46-23 65-35h102l37 48c37-32 56-53 56-62 0-3-2-5-4-7l-24-17V178h-55v74m0 25v449H56V277h121Z"/></symbol><symbol id="𭊀_S" viewBox="0 0 1000 1000" data-size="21"><path transform="matrix(1 0 0 -1 35 962)" d="m814 41-51 23-48 28-44 31-40 34-36 39-32 41-29 45-23 49-15 43-46-34-37-25-84-48-7-4V104l200 31 98 12 3-8-48-17-95-29-144-37-171-38-9-18-12 14-1 7-3 13-1 7v4l-3 11-1 8-1 3v6l-1 1 127 20v138l-79-34-56-21-59-20-62-18-4 8 167 82 95 53 43 27 76 52 22 18H28v21h405v95l63-11 16-10-16-10v-64h299l53 53 62-53v-21H507l23-37 31-42 32-39 33-35 3-2 108 96 40 39h-1l5 5 40-49 3-18-19 6-36-24-81-46-45-21 20-18 39-27 42-25 45-22 49-18 93-27-62-54-55 20M133 75l11-61-21 59 10 2m638 776H339v21h468l52 52 63-52v-21h-89V496l-3-13-4-12-7-12-7-11-12-9-11-5-13-5-13-2-14-1v31l-73 17v15h80l5 1 3 1 3 1 2 4 1 2v6l1 6v341m-727-4 63-32h123l32 27 58-47-26-22V509l-64-31v52H107v-37l-63-31v385m353-39 64-32h135l32 27 58-48-27-21V593l-63-32v52H461v-37l-64-31v263m-167-13H107V551h123v244m366-40H461V635h135v120Z"/></symbol><symbol id="𭊁_S" viewBox="0 0 1000 1000" data-size="21"><path transform="matrix(1 0 0 -1 47 958)" d="M650 319H493v22h262l53 52 62-52v-22H713V70l-3-12-4-13-7-12-9-11-9-8-12-6-13-4-13-3-14-1v32L524 48v15h112l5 1 3 1 2 2 2 3 1 3v5l1 6v235m-306 50-39-30v-21l-18 7-20 31-15 22 92 55v256h-81v22h81v204l62-10 17-10-17-10V711h29l23 31 31-31v-22h-83V471l56 32 25 13 6-8-38-41-40-37-9-8V91l-1-13-2-14-4-11-6-13-9-11-10-8-13-6-12-4-13-3-14-1v32L218 55v15h111l5 1 5 2 2 2 1 5 1 5 1 6v278m219-103 58-28 12-14-20-4-12-28-24-45-27-43-32-41-19-20-20-19-6 5 33 72 28 68 15 44 12 43 2 10M818 84l-5 20-6 20-7 19-8 18-18 36-20 37-13 17 7 7 35-27 17-14 28-34 14-18 12-19 10-21 10-21 10-22-3-24-19-16-23 3-16 18-5 21M0 802l63-32h112l32 26 58-47-27-21V253l-63-31v62H63v-62L0 189v613m175-53H63V306h112v443m77-371 35-53-44 47 9 6m599 53-38 51-33 57-14 30-15 32-13 33-11 34-10 36-8 34h-35l-23-60-22-49-25-46-27-45-31-43-33-40-36-37-8 7 54 86 24 45 22 45 19 46 17 48 13 43H482v22h141l10 35 10 53 6 53 2 11 61-19 15-14-19-7-7-36-13-55-7-21h105l43 47 52-47v-22H722l68-117 36-55 37-47 43-46-55-42M733 542l53-47v-21H578v21h112l43 47Z"/></symbol><symbol id="𭊂_S" viewBox="0 0 1000 1000" data-size="21"><path transform="matrix(1 0 0 -1 43 959)" d="m487 432-5 11-11 24-7 12-17 23-9 11V31L375 0v458l-12-35-35-89-20-42-23-40-24-39-9 5 44 128 14 45 11 45 21 92 9 49 7 49 4 35H257v21h118v236l63-10 16-11-16-9V682h12l43 47 53-47v-21H438V534l13-4 14-7 27-17 13-10 22-22 11-12 10-14 2-23-16-19-23-2-19 15-5 13m37-379v21h164v174H562v22h126v163h-65v-63l-62-32v538l62-31h192l32 25 57-47-26-20V401l-63-31v63h-64V270h10l52 52 64-52v-22H751V74h48l52 53 63-53V53H524M0 805l63-33h103l31 27 58-47-26-22V256l-63-31v62H63v-62L0 192v613m166-53H63V309h103v443m522-124h-65V454h65v174m127 0h-64V454h64v174M688 823h-65V649h65v174m127 0h-64V649h64v174Z"/></symbol><symbol id="𭊃_S" viewBox="0 0 1000 1000" data-size="21"><path transform="matrix(1 0 0 -1 43 947)" d="M487 240h2l-7-39-10-37-14-33-19-31-21-27-24-23-28-19-31-14-34-11-36-6-2 9 31 15 27 18 25 18 20 19 18 23 13 23 12 26 9 30 6 31 2 34v136l63-31h167l32 26 58-48-26-20V99h-64v230H489v-86l-2-3M740 15l-13 1-13 2-13 3-12 7-10 9-9 11-6 12-5 12-2 13-1 14h64v-7l1-5 1-3 1-1 1-1 1-2 1-1 3-1h4l7-1h112l30 132h11L883 77l17-13 13-18-13-19-18-12H740M568 150l-3 13-2 13-4 12-4 12-6 11-7 12-18 23-11 10 4 8 14-7 16-6 14-8 12-10 13-10 11-12 10-14 9-14 8-15 7-17-5-24-20-14-23 5-14 20-1 12M0 775l63-32h123l31 27 57-47-26-22V227l-62-32v63H63v-63L0 163v612m186-52H63V279h123v444m647-269-33 49-29 52-13 27-11 27-9 26V424l-63-32v220l-15-28-20-32-22-29-24-27-25-24-27-22-29-17-6 7 42 51 36 55 17 29 14 31 14 33 12 34 10 37 4 19h-66v21h85v144l63-11 16-10-16-10V750h17l53 53 62-53v-21H738v-17l48-83 15-24 32-44 35-42 18-21 4-3-57-41M519 558l-4 12-5 14-5 12-7 12-8 12-11 16V424l-63-32v214l-14-27-19-33-21-31-22-29-25-26-26-24-28-21-6 8 38 55 35 58 16 31 14 33 13 35 12 35 11 38 3 21H283v21h133v144l63-11 15-10-15-10V750h11l43 47 53-47v-21H479v-66l6-2 15-8 15-8 13-11 12-11 12-14 11-13 9-15 9-17-2-23-16-17-25 1-17 19-2 14Z"/></symbol><symbol id="𭊄_S" viewBox="0 0 1000 1000" data-size="21"><path transform="matrix(1 0 0 -1 54 966)" d="m727 601-2-29 8-61 14-74 15-70 17-65 19-59 20-54 24-47 24-43 27-38-56-41v1l-27 44-25 50-20 54-19 59-15 63-12 67-9 69-12-68-14-69-18-63-20-59-25-52-27-45-31-39-33-32-7 7 25 37 21 41 21 46 17 51 16 56 13 62 10 67 9 73 6 80 3 84v19H556v4l-25-17V429l-57-30v40h-47v-80l18-12 15-13 15-14 12-13 23-31 9-16 7-18 7-17-5-24-19-13-24 4-13 21-1 14-3 13-4 15-5 15-13 30-8 15-10 17-1 1V32L374 6v264l-5-15-15-41-18-38-19-33-19-33-22-27-22-24-9 5 15 30 26 63 26 72 11 41 10 42 10 44 9 48 4 35h-31v-63l-53-26v326l53-27h49v116H253v21h121v147l53-11 12-10-12-10V786h25l43 47 53-47v-21H427V649h47l28 27 54-46v14h108v289l63-11 16-10-16-10V644h30l52 52 63-52v-21H727v-22M0 809l63-33h101l29 27 55-47-26-19V260l-58-30v61H63v-62L0 196v613m164-53H63V313h101v443m210-128h-49V460h49v168m100 0h-47V460h47v168m314 153-2 16-4 16-4 14-5 15-4 14-14 30-9 13 7 7 13-10 14-11 13-12 11-14 10-14 10-15 9-17 8-17 7-18 6-18-6-24-20-12-24 5-12 20-4 32Z"/></symbol><symbol id="𭊅_S" viewBox="0 0 1000 1000" data-size="21"><path transform="matrix(1 0 0 -1 47 951)" d="m483 162 6 1 2 1 4 2v1l1 1 1 4 1 5v7h64l-1-14-2-14-5-12-6-12-9-11-11-8-11-7-13-4-13-2h-13v31l-68 10 20-20 22-17 27-14 32-11 42-9 52-5 66-1 81 2 96 6 4-69-99-3-83 2-69 6-58 10-47 14-38 19-30 23-22 27-16 29-5 15-2-1-29-40-25-30-47-52 2-22-17 6-10 12-28 33-2 4 59 39 52 36v265H235v20h103l31 26 58-46-27-22V162h83M852 6l-1 12v14l-1 6v10l-1 3v4l-1 9v8l58 3-54-72v3M227 55l40-49-49 42 9 7m461 413-2-54-4-51-7-47-9-44-10-39-12-37-15-32-18-29-19-25-22-19-7 6 14 24 12 26 11 30 8 31 8 35 7 38 4 42 3 44 1 49v52h57m129 406 28-39 9-12 1-18-20 8-26-11-37-12-41-12-21-5-22-3V584h101l43 48 53-48v-21h-72V122l-58-29v470h-67v-95h-57v345l53-27 54 31 33 21 26 18 16 14 4 4M0 779l63-32h92l33 26 57-46-26-22V230l-64-31v63H63v-63L0 167v612m471-397-25 31-1 1-1 1-7 10-5 6 66 45v226h-53v21h53v179l64-10 15-10-15-10V723l24 31 31-31v-21h-55V517l52 33 6-7-27-35-30-34-1-2V184h-64v224l-11-12 1-21-17 7M155 727H63V283h92v444m277-296 39-49-47 43 8 6M330 538l-14 27-22 39-19 23-19 24-12 10 5 8 15-7 15-6 15-7 14-8 27-20 13-11 24-25 12-14 3-23-14-20-23-4-20 14m28 200-11 27-15 24-17 25-18 25-12 11 6 7 14-7 15-7 15-8 14-9 12-10 26-22 11-13 21-27 2-24-15-19-23-2-20 16-5 13Z"/></symbol><symbol id="𭊆_K" viewBox="0 0 1000 1000" data-size="21"><path transform="matrix(1 0 0 -1 58 942)" d="M744 239c9-11 13-19 13-23 0-5-10-7-28-8V24c-1-3-9-7-23-11-9-4-15-5-18-5-1 0-3 1-3 3v11c0 7 1 12 1 16H181c0-18-1-28-1-29-1-2-8-3-23-6-7-2-12-3-14-3-4 0-6 1-6 4-1 2-1 7 0 15 0 9 1 16 1 21v204l-4 41 51-31h492l19 22c6 7 9 10 10 10 2 0 7-5 16-16l22-31M686 60v174H181V60h505m198 665-6-16h-95c-17-108-55-195-116-260 56-56 124-95 203-114l-4-12c-22 2-36-2-42-13s-10-17-11-17c-4 0-13 4-25 11-54 33-101 74-142 124-55-52-129-89-225-112l-6 14c85 20 156 62 213 124-41 65-69 145-85 240-20-41-45-79-74-113l-12 7c52 81 90 178 112 292l48-21c14-5 21-10 21-16s-12-10-34-11c-11-34-26-68-45-103h236l19 28c8 10 12 14 14 14 3 0 8-3 17-11l39-35m-418-66-8-14H313V394c0-30-3-50-8-60-7-12-25-23-52-32-12-2-20-1-22 2l-2 17c0 6-4 11-11 14l-63 16 4 13 63-7c7 0 13-1 18-1 19 0 29 16 29 46v243h-66c-4-93-21-166-52-221-28-52-73-96-135-133l-8 9c55 38 94 83 117 136 23 52 35 122 36 209H6v20h200v93H61v20h145v73l-3 34 46-9c20-4 29-9 29-16 0-6-9-13-29-21v-61h84l17 26c4 8 8 11 11 11 2 0 7-2 13-8l42-36-10-13H249v-93h131l15 23c6 10 11 15 14 15s8-3 16-10l41-34m93 50c14-79 43-158 87-234 49 59 79 137 92 234H559M100 593c15-3 22-7 22-12s-8-10-24-16c-18-61-47-115-88-162l-10 6c40 61 61 126 63 194l37-10m330-163c-6 0-11 8-15 26-10 41-33 85-67 133l9 7c40-37 66-63 78-77 11-15 17-28 17-40 0-7-2-17-6-28-6-14-11-21-16-21Z"/></symbol><symbol id="𭊇_G" viewBox="0 0 1000 1000" data-size="21"><path transform="matrix(1 0 0 -1 58 954)" d="m329 425 29-29v-1h390l36 36 43-44c5-4 6-7 5-10s-4-6-11-7l-18-8V147l6-97c1-20-14-30-43-30v55H369V43c3-25-12-39-44-43 3 24 6 48 7 72v305c-2 15-8 27-17 37l14 11M14 826l29-29h136l36 35 43-44c9-7 8-14-2-19l-22-6V398l6-97c0-20-14-30-43-30v76H53v-89c3-24-11-38-43-43 3 25 5 61 6 108v455c-2 14-7 26-16 37l14 11m249-317h207v336H354c-17 1-32-4-44-13l-33 33h459l36 43 66-49c7-5 10-9 8-11-1-3-8-4-19-3H665V509h111l34 43 66-49c7-5 10-9 8-11-1-3-8-4-19-3H341c-17 1-31-3-44-12l-34 32M53 367h144v410H53V367m454 142h121v336H507V509m259-278H586V95h180v136M369 95h180v136H369V95m0 280V249h180v126H369m397 0H586V249h180v126m-15 413 76-47c11-6 14-11 7-14-14 1-26-1-35-4-46-75-80-130-103-164l-13 7 48 116c18 37 26 60 23 69-3 10-7 20-12 30l9 7m-435-21 7 10c52-38 84-82 96-132 10-47 2-71-24-73-13 1-19 15-18 40s-4 51-15 78c-9 27-25 52-46 77Z"/></symbol><symbol id="𭊈_S" viewBox="0 0 1000 1000" data-size="21"><path transform="matrix(1 0 0 -1 56 935)" d="m469 171 44-45 5-19-21 4-19-14-41-28-46-26-26-12-26-11-28-11-30-9-5 9 94 67 38 31 32 32 24 26 5 6M764 34l-13 16-26 29-16 14-30 25-17 11-17 12-18 9 2 9 21-3 22-4 21-6 20-8 20-10 20-11 18-13 19-14 35-32 7-24-12-21-22-6-22 11-12 16M0 804l63-33h144l29 27 55-47-26-19V286l-58-28v28H63v-62L0 191v613m239-606v21h208v152H287v22h160v110l63-11 15-11-15-8v-80h117v110l62-11 16-11-16-8v-80h41l53 52 63-52v-22H689V219h84l53 52 63-52v-21H239m388 173H510V219h117v152M207 751H63V308h144v443m179-218v-62l-58-30v429l58-29h354l31 26 58-47-26-21V502l-63-31v62H386m147 146H386V555h147v124m207 0H596V555h144v124M533 820H386V700h147v120m207 0H596V700h144v120Z"/></symbol><symbol id="𭊉_J" viewBox="0 0 1000 1000" data-size="21"><path transform="matrix(1 0 0 -1 67 933)" d="M558 271v-83h-54v355c15-7 36-18 61-33h77l36 40c36-28 54-47 54-56 0-5-3-9-8-12l-21-12V206h-53v65h-92m0 25h92v189h-92V296M123 545v-61H67v365c24-10 47-21 68-32h188l35 46c40-31 60-51 60-59 0-4-3-8-10-13l-21-14V494h-56v51H123m0 25h208v222H123V570M53 78V7H0v424c31-14 52-25 65-32h74l32 41c37-29 56-47 56-54 0-4-4-9-12-15l-15-12V23h-53v55H53m0 25h94v271H53V103m255-25V13h-53v418c30-14 52-25 65-32h71l34 43c35-29 52-48 52-56 0-5-3-10-10-15l-15-12V23h-53v55h-91m0 25h91v271h-91V103m200 530-9 25h150l42 52c20-18 38-36 54-56l-12-21H508M723 1c-2 20-11 34-28 42-16 8-47 15-94 22v28c61-7 104-10 128-10 29 0 43 11 43 32v677H483l-11 25h289l41 51c42-34 63-56 63-66 0-4-3-9-8-13l-26-18V87c0-58-36-87-108-86Z"/></symbol><symbol id="𭊊_J" viewBox="0 0 1000 1000" data-size="21"><path transform="matrix(1 0 0 -1 59 948)" d="M441 590c-51-44-113-85-186-122l-14 19c120 78 201 157 244 237 55-11 82-21 82-30 0-8-14-14-43-18l-13-16h168l35 29c39-26 58-43 58-51 0-5-4-8-12-11l-28-13c-40-41-83-77-130-109 78-38 171-61 280-71-16-13-29-30-38-51-111 19-204 52-278 100-93-57-198-99-317-126l-11 23c114 33 211 76 291 129-34 26-63 53-88 81m18 16c31-30 64-56 99-77 46 32 85 67 119 106H488c-9-10-19-20-29-29M56 248V136H0v646c22-10 44-22 65-34h88l38 45c36-30 53-50 53-59 0-2-1-4-5-7l-23-18V172h-54v76H56m0 24h106v451H56V272m362 526v99c65 0 97-7 97-21 0-9-14-18-41-28v-50h151v98c62-1 92-9 92-23 0-8-12-17-36-26v-49h83l47 60c24-22 45-44 62-65l-10-20H681v-62h-56v62H474v-61h-56v61H258l-11 25h171m105-653v73H329l-11 25h205v69H348l-10 24h185v85c58-3 87-11 87-23 0-9-10-16-32-20v-42h92l44 48c26-20 47-38 64-56l-10-16H578v-69h127l43 45c25-19 45-36 60-52l-12-18H578v-73h177l49 51c25-20 46-39 62-57l-13-19H578V0h-55v120H266l-9 25h266Z"/></symbol><symbol id="𭊋_K" viewBox="0 0 1000 1000" data-size="21"><path transform="matrix(1 0 0 -1 61 928)" d="M242 737c11-11 17-19 17-25 0-7-9-11-26-14V253c0-33 1-50 2-49-2-5-10-9-23-11-8-3-13-5-16-5-2 0-4 2-6 5 0 4-1 10-1 19 1 16 1 27 1 34v12H45v-45c0-26 0-39 1-38-1-4-9-8-24-11-8-3-14-4-16-4-3 0-4 2-5 5s-1 9-1 19c1 16 1 28 1 37v554l48-30h129l12 15c8 9 11 13 12 13s6-4 15-12l25-24M878 15 868 0H281v21h265v166H392v5c-67-33-119-55-156-64l-7 10c90 37 165 74 224 112s106 74 140 105H258v21h266v124H340v21h184v76l-3 45 45-12c21-5 31-11 31-18 0-6-10-12-30-19v-72h50l25 25c9 10 15 16 16 16 2 0 7-5 16-14l35-34-11-14H567V376h47c68 71 120 144 156 219l41-28c13-9 19-16 19-22 0-8-12-11-36-9-36-57-77-110-124-160h81l29 36c10 11 15 16 16 16s7-4 17-12l50-46-9-15H650c-59-52-132-100-219-144l-8-4h244l23 32c8 11 13 17 16 17 2 0 8-4 17-13l48-43-5-13H590V21h177l26 33c10 15 17 22 19 22 3 0 10-6 21-17l45-44M190 279v445H45V279h145m664 463-10-13H673v-82c-1-4-9-9-24-13-7-2-12-3-14-3-5 0-7 3-8 11-1 13 0 26 1 37v50H474v-45c0-26 0-38 1-38-2-4-10-9-22-13-9-3-15-5-16-5-4 0-7 2-7 5v16c0 13 1 23 1 30v50H280v21h152v70l-3 36 45-10c19-4 29-9 29-14s-10-12-29-19v-63h154v72l-2 34 46-10c16-6 24-11 24-16s-8-10-23-16v-64h74l25 33 15 17c1 0 6-4 16-12l51-46Z"/></symbol><symbol id="𭊌_J" viewBox="0 0 1000 1000" data-size="21"><path transform="matrix(1 0 0 -1 67 948)" d="M55 250V136H0v646c23-10 45-21 65-32h81l34 46c37-31 56-51 56-59 0-3-2-6-5-9l-24-18V191h-53v59H55m0 25h99v450H55V275m292 385V450c0-199-54-349-163-450l-19 19c83 103 125 247 125 432v267c29-13 52-24 70-33h154v210c64 0 97-7 97-21 0-8-14-16-41-25v-54h146l45 57c23-21 43-42 59-62l-10-20H570v-85h196l36 44c42-42 64-68 64-78 0-5-3-8-9-9l-33-8c-13-23-30-46-51-69l-21 10c10 33 16 61 20 85H547V550l86 11 34 54c25-16 46-32 64-48l-9-20-175-23v-42c0-14 4-22 13-25 11-4 38-6 83-6 54 0 86 3 95 9 11 8 21 37 29 85l24-9c0-35 3-57 8-67 5-8 14-12 28-12-3-24-13-39-29-44-21-5-66-8-137-8-81 0-130 5-146 14-15 9-22 27-22 54v44l-110-15-13 25 123 16v117H347m108-338c106 16 192 40 259 72 43-28 64-47 64-57 0-5-5-8-15-8-11 0-24 1-37 4-74-17-167-30-277-39v-76h263l45 57c23-21 43-42 59-62l-10-20H661V48h95l47 63c24-23 44-46 60-69l-10-19H284l-11 25h121v304c16-7 36-17 61-30m-6-274h158v145H449V48Z"/></symbol><symbol id="𭊍_G" viewBox="0 0 1000 1000" data-size="21"><path transform="matrix(1 0 0 -1 55 964)" d="m527 928 83-35c8-4 10-7 5-11-13-5-23-12-29-21v-61h145l38 38 43-46c5-4 6-8 5-10-1-4-4-6-11-7l-18-8v-84l3-54c0-21-14-32-42-32v41H586v-96h180l38 42 43-46c5-4 6-8 5-10-1-4-4-6-11-7l-18-8V413l3-50c0-22-14-32-42-32v37H587l2-28c2-24-14-38-49-43 4 28 6 51 7 71H360v-3c2-24-13-39-46-43 4 32 6 62 7 90v121c1 11-2 22-11 32l12 12 31-35h194v96H387v-15c2-24-13-39-46-43 1 6 2 14 3 25 1 7 3 17 4 30v156c1 8-5 18-19 32l12 16 41-39h165v71c1 9-8 24-29 45l9 12M13 819l34-34h138l38 35 43-44c4-4 5-7 4-10s-4-5-10-6l-18-9V391l6-126c0-20-15-30-45-30v96H55v-93c3-26-13-40-46-43 3 24 6 72 7 144v432c-2 14-7 27-16 38l13 10m42-54V351h148v414H55m531-381h198v142H586V384m-39 142H360V384h187v142m-70-296c5-4 4-8-1-10-11-2-23-7-35-17V80c-1-34 19-50 60-46 7-1 26-1 57-1 26-1 46-1 60-1-1 0 16 1 49 1 31 1 48 19 52 53 5 31 7 68 8 110h13l4-61c1-48 8-76 22-82-7-26-25-42-54-48-13-4-41-5-83-4-18 0-45 0-80 1-39 0-65 0-77 1-47 4-71 31-72 81v128c-1 14-9 28-23 41l8 10 92-33m109 424h163v130H586V654m-39 130H387V654h160v130m201-541 6 8c40-19 73-44 98-75 24-32 37-59 38-83 1-25-6-39-20-41-13-3-21 7-24 29-3 21-11 46-24 74s-37 57-74 88m-426-15c5-54-2-100-21-139-25-43-49-55-70-37-10 11-7 23 10 35 17 13 31 28 41 45 11 18 19 50 26 96h14m152 77 4 11c86-42 129-87 130-136 1-22-5-33-18-35s-20 6-21 22-8 37-20 61c-11 24-36 49-75 77Z"/></symbol><symbol id="𭊎_S" viewBox="0 0 1000 1000" data-size="21"><path transform="matrix(1 0 0 -1 63 961)" d="M729 472H333v20h444l43 48 53-48v-20h-80V84l-1-14-2-12-5-13-6-12-8-11-11-8-12-6-13-5-12-2-14-1v31L604 47v16h112l5 1 3 1 1 1 2 1 1 3 1 3v399m-503 42 3 6 2-1 26 21 58-47-26-15-19-8-7-9-27-26-31-27-35-27-33-22 47-21 21-12 19-12 15-12 14-15 10-16 7-17 2-20-3-19-59 23 3 4 2 5 1 7-2 10-6 11-9 14-12 15-16 15-20 18-23 17-5 6 16 20 40 53 21 31 18 29H63V38L0 7v539l63-32h163m159-97 63-31h120l33 26 57-47-26-21V176l-64-32v63H448v-63l-63-32v305M210 238l59-23-5-12-7-12-8-9-9-10-11-8-10-7-13-5-13-3-11-2-14-1v32l-53 15v16h53l7 1 6 1 5 1 4 2 4 2 4 3 3 3 3 5 3 4 3 7m358 127H448V228h120v137M457 922l63-31h209l33 26 57-48-26-20V580l-64-31v42H520v-16l-63-32v379m-441 0 63-31h210l31 26 58-48-26-20V580l-63-31v42H79l-63-31v362m713-53H520V611h209v258m-440 0H79V611h210v258Z"/></symbol><symbol id="𭊏_J" viewBox="0 0 1000 1000" data-size="21"><path transform="matrix(1 0 0 -1 56 951)" d="M625 491h106l33 43c40-31 60-51 60-61 0-4-2-8-7-10l-27-16V82c0-48-27-71-80-70 0 16-5 27-16 33-8 4-24 9-47 13v25c22-3 46-4 72-4 14 0 20 6 20 20v122H614V0h-51v520c7-3 18-8 31-15 13-6 23-11 31-14m-11-25v-95h125v95H614m0-220h125v100H614V246M340 491h103l35 43c39-30 58-50 58-61 0-4-2-8-7-10l-27-16V80c0-25-6-43-19-54-11-10-30-14-56-14 0 15-5 25-15 31-9 6-27 11-53 15v25c22-3 45-4 69-4 16 0 23 8 23 25v117H329V0h-51v520c7-3 17-8 31-15 13-6 23-11 31-14m-11-25v-95h122v95H329m0-220h122v100H329V246m-273 2V136H0v646c22-10 44-22 65-34h85l36 49c37-32 55-53 55-63 0-2-1-4-5-7l-23-18V172h-54v76H56m0 24h103v451H56V272m473 540c-43-72-89-133-140-183-42-42-95-85-157-127l-15 20c122 100 217 227 286 380 57-18 86-33 86-45 0-9-15-15-44-18l-1-2c105-111 220-194 344-248-21-16-36-35-46-56-116 64-220 157-313 279M397 584l-11 25h201l44 52c25-20 47-40 65-59l-10-18H397Z"/></symbol><symbol id="𭊐_G" viewBox="0 0 1000 1000" data-size="21"><path transform="matrix(1 0 0 -1 24 971)" d="m528 417 38-38h220l37 37 44-45c5-4 6-7 5-10s-4-6-11-7l-18-9V176l3-112c0-21-14-32-42-32v72H575V44c3-24-13-38-47-43 3 25 6 69 7 133v232c1 10-5 22-17 36l10 15M76 930l45-37h268l26 30 35-28c6-4 9-8 9-11s-3-5-9-8l-10-12V166c1-53-2-87-10-104-6-16-27-28-64-36-1 21-12 34-33 41-6 1-16 4-31 8-23 6-42 11-57 14l2 16c71-15 115-22 131-21 15 1 23 18 23 49v740H133V605c3-133-4-252-21-357C96 144 61 61 8 0L0 8c42 74 69 159 80 254 12 96 17 219 14 370v239c-4 15-13 32-27 49l9 10m499-571V124h229v235H575M187 477l27-33h83l27 30 37-38c7-1 5-6-6-13l-10-9V307l2-63c0-20-12-30-35-31v55h-93v-38c4-25-9-39-39-43 3 24 5 68 6 133v113c-2 15-6 26-12 33l13 11m765 117v-13h-4c-31 3-50-5-59-24-40 29-84 78-132 146-31 45-58 91-80 136-23-52-49-101-80-146-38-57-86-110-143-160l-7 9c47 55 85 107 114 154 29 48 52 93 69 134 18 47 26 74 23 81 0 1 0 2-1 3-2 5-6 12-13 22l8 6 83-38c1-3 2-5 1-6s-3-2-6-2c-11 1-22-6-31-21-1-1-1-1-1-2-1-1-1-1-1-2l-3-6c29-53 57-96 83-130 29-41 58-72 88-94 27-19 57-35 92-47M158 710h91v87c1 11-7 25-25 41l8 11 74-33c9-3 11-7 6-11-13-3-23-9-30-18v-77h30l24 24 36-33c3-3 4-5 3-6s-5-2-11-1h-82V559h30l24 28 44-37c1-2 2-4 1-5 0-1-1-1-4-2H227c-16 1-30-3-43-12l-27 28h92v135h-21c-17 1-32-4-44-13l-26 29m61-282V284h93v144h-93m299 107h252l30 39 64-49c5-3 8-6 7-8-1-1-4-2-11-2H593c-16 1-30-4-42-13l-33 33Z"/></symbol><symbol id="𭊑_G" viewBox="0 0 1000 1000" data-size="21"><path transform="matrix(1 0 0 -1 47 964)" d="m14 814 32-35h111l31 32 37-40c8-8 10-14 5-17l-17-9V435l6-136c-1-19-15-29-43-30v53H54v-68c3-24-12-38-44-43 4 33 6 89 7 168v387c-1 13-7 26-17 37l14 11m40-472h122v417H54V342m850 23c1-3 2-6 1-8-1-1-3-2-6-2-11 1-21-5-29-16C774 164 661 51 530 0l-11 15c122 78 215 172 278 282 26 46 39 73 38 82 0 9-1 18-4 25l8 5 65-44M798 665l75-35c5-3 7-6 6-8 0-3-3-4-8-5-16-1-27-7-34-20-70-120-148-207-235-262l-10 11c87 85 150 164 189 239 15 27 21 42 20 47-1 6-4 14-11 23l8 10m-10 252 71-37c5-3 7-6 6-8 0-3-3-4-8-5-14-1-25-7-34-20-65-119-132-203-201-250l-9 9c49 56 84 101 106 135 24 37 41 68 51 92 14 29 21 46 20 51 0 6-3 14-10 23l8 10m-221 11 66-45c6-6 9-11 9-14s-3-5-9-6c-27 4-51 3-72-4-67-14-121-24-162-31-45-7-99-12-162-17v16c57 11 107 21 151 31 25 5 57 13 94 22 3 1 6 1 8 2 26 6 44 12 55 17 12 5 17 12 16 23l6 6m-3-100 63-33c11-8 13-13 7-14-15 3-27-3-38-17-21-57-45-111-72-163l-16 6 38 116c12 41 18 65 17 72s-4 15-9 25l10 8m-186-36 10 10c29-25 49-48 60-67 10-21 16-40 18-58 1-19-1-32-7-40-6-9-13-12-21-10-8 3-11 12-9 29 1 16-1 35-6 56-6 21-21 47-45 80m-123-37 8 12c32-23 54-44 65-62 10-19 17-36 21-50 4-17 4-31-1-40-5-10-11-14-19-13-9 1-14 9-15 22-1 15-5 32-11 52-7 23-23 49-48 79m137-144 86-35c8-3 10-7 6-11-14-5-24-12-31-20v-73h82l31 40 67-50c5-3 7-6 6-8-1-1-5-2-12-2H453v-74c30-13 54-27 73-41 21-17 35-33 42-49 8-15 11-29 8-41-3-11-9-17-18-16-10 0-18 8-23 25-6 18-16 36-29 54-14 17-32 33-53 48V104l3-56c0-13-4-23-12-29-7-6-20-11-39-14 3 25 5 73 7 146v186c-44-94-114-180-210-258l-10 7c109 121 180 243 214 366h-88c-17 0-32-4-44-13l-33 33h171v83c1 10-9 25-29 45l9 11Z"/></symbol><symbol id="𭊑_U" viewBox="0 0 1000 1000" data-size="23"><path transform="matrix(1 0 0 -1 99 894)" d="M0 719c10 0 20-3 30-8s21-12 34-21h76l29 38c11-4 21-10 30-17 10-7 17-14 21-22l-27-27V200c-15-15-29-22-43-22v39H43v-17c-15-15-29-22-43-22v541m43-490h107v449H63l-20-13V229m348 283c11 0 23-3 34-9s24-15 38-26l-28-19v-68h45l28 38c16-7 29-15 39-26 10-10 17-18 20-23H435v-54c45-29 75-53 91-71s24-33 24-44c0-10-4-18-11-25s-12-10-16-10-8 3-12 9c-3 7-8 15-14 26s-14 25-24 40c-9 16-22 33-38 52V22C420 7 406 0 391 0v276c-19-49-42-91-70-127s-57-64-88-83l-3 3c31 27 59 67 85 120 27 54 47 117 60 190H275l-17-5-12 16h145v122m349-165c13-3 25-7 36-12 12-5 21-11 26-17l-25-16c-11-35-26-68-45-99-18-31-39-59-62-85-23-25-47-48-74-67-26-19-53-35-81-48l-3 3c24 15 47 33 70 55 23 23 45 48 65 77s38 61 54 96 29 73 39 113m-34 219c13-3 25-7 36-12s20-11 25-17l-24-16c-9-31-20-60-35-87-14-27-30-52-48-75s-37-43-58-60-42-32-64-43l-3 3c36 27 70 66 101 119s55 115 70 188m-35 219c13-3 25-7 36-12 12-5 20-11 25-18l-24-15c-14-58-36-108-67-149-30-41-62-72-97-93l-3 3c28 25 54 61 77 110 24 49 42 107 53 174m-159 2c11-5 22-11 32-19 11-7 18-16 22-25h-22c-11-9-27-17-46-25-19-7-40-14-64-20s-50-11-78-16c-27-5-55-9-84-12l-3 3c26 5 51 11 75 18 25 7 48 16 69 25 21 10 40 21 57 33s31 25 42 38m-2-100c13-3 25-7 36-12 12-5 20-11 25-17l-24-16c-6-26-15-49-28-68-12-19-25-34-40-43l-2 3c7 13 14 33 19 59 6 27 11 58 14 94m-131-11c25-27 43-48 52-64 10-15 15-28 15-37 0-5-2-10-5-15s-6-9-11-12c-4-3-8-5-13-7-4-1-7-2-10-2-8 0-12 4-12 13 0 3 1 7 2 10 1 4 2 9 2 15 0 12-3 27-8 44-5 18-11 36-18 54l6 1m-87-29c23-22 39-40 48-53s14-24 14-33-5-17-15-24c-10-6-18-9-24-9-8 0-12 4-12 11 0 3 1 7 2 11 2 5 3 10 3 16 0 11-2 23-6 37s-9 28-15 43l5 1Z"/></symbol><symbol id="𭊒_S" viewBox="0 0 1000 1000" data-size="21"><path transform="matrix(1 0 0 -1 38 958)" d="m761 603-17-10-3-75-6-69 2-18 10-53 13-50 13-46 17-43 19-39 21-36 23-32 26-28 37-36-57-42-30 34-26 37-24 39-19 42-16 45-13 48-8 49-3 27-17-72-21-65-27-60-31-49-35-43-40-34-44-24-5 8 35 32 32 36 29 43 23 49 21 56 15 63 13 70 9 79 5 85v104l63-12 16-10M509 503l-13 32-17 34-54 90-29-67-21-44-46-80-18-30 50-25h120l33 26 57-46-26-22V119l-64-31v31H361V57l-63-33v397l-19-25-27-34-24-25v-82l-63-31v62H63v-62L0 191v613l63-33h102l31 27 58-47-26-22V359l47 89 38 79 35 85 15 44 32 101 57-28 12-14-19-4-10-28-2-5 39-33 31-33 15-16 25-33 22-32 1-23-14-19-25-2-18 16m-28-110H361V141h120v252M165 751H63V308h102v443m666-91H655l-15-36-19-34-20-32-22-32-9 5 37 107 22 73 17 76 7 38 13 92 61-20 13-12-17-8-5-22-10-42-11-39-12-40-14-37-7-16h170l31 26 59-47-27-15-14-6-12-21-43-65-41-58-9 5 9 22 33 101 11 37M326 887l59-23 13-13-19-7-10-30-21-50-27-53-32-55-18-28-22-27-8 4 44 122 18 54 7 25 10 48 6 33m195-145-6 16-7 15-7 15-8 15-18 29-22 28-13 14 6 8 33-19 16-10 16-12 13-13 14-14 13-14 12-16 10-16 10-18v-23l-17-18h-24l-17 17-4 16Z"/></symbol><symbol id="𭊓_S" viewBox="0 0 1000 1000" data-size="21"><path transform="matrix(1 0 0 -1 50 950)" d="M545 173H252v20h293v83H308v22h237v80l-49-3-55-3-58-2-64-1-1 10 224 39 86 17 67 15 45 15 5 2 2-8 51-43 1-16-22 11-14-5-27-6-29-4-34-5-101-11 36-6 16-10-16-10v-56h121l53 53 63-53v-22H608v-83h177l53 53 62-53v-20H608V84l-1-13-3-13-3-13-7-12-8-11-11-8-12-6-12-5-14-2-13-1v31L419 48v15h111l5 1 5 2 2 2 2 5 1 5v95M0 790l63-32h100l32 26 58-47-26-21V241l-64-31v62H63v-62L0 178v612m163-53H63V294h100v443m639 159 63-9 16-11-16-10V515l-2-14-2-13-4-12-5-13-10-10-10-9-13-6-12-4-13-2-13-1v31l-74 16v16h80l5 1 3 1 2 1h1l1 1 1 2 1 3v5l1 7v381M548 610l-14 13-17 15-22 13-23 14V468l-63-32v205l-28-37-21-20-21-19-23-18-25-16-26-13-6 7 38 43 34 42 15 22 13 21 12 23 10 22 10 24v3H262v20h147v71l-57-4-39-1-42-1-1 9 113 30 90 23 47 14 19 7 13 4 4 2 3-7 49-42 1-16-21 10-13-4-19-5-23-4-23-4-28-3-10-2v-77h19l53 53 62-53v-20H472v-46h16l15-1 28-5 27-6 22-9 11-5 12-21-6-23-22-11-22 6-5 6m98 248 64-10 16-11-16-10V555l-64-32v335Z"/></symbol><symbol id="𭊔_S" viewBox="0 0 1000 1000" data-size="21"><path transform="matrix(1 0 0 -1 48 954)" d="m793 20-45 24-41 28-37 32-25 29-43-39-44-31-47-26-51-20-55-15-4 9 51 24 45 28 41 29 37 32 33 35 8 11-8 11-23 43-21 47-14 49-9 49h-23l-9-29-25-65-29-58-34-54-38-48-44-43-47-36-7 8 40 43 36 46 32 49 27 53 22 57 20 62 16 65 5 39H310v21h177l1 10 7 75 3 74h-1l1 17 63-13 15-11-16-10-5-62-11-78v-2h208l53 52 62-52v-21H539l-10-51-6-17h195l31 26 58-47-27-15-9-4-11-36-24-52-28-48-30-44 28-25 35-25 37-21 41-19 84-27-61-53-49 20M0 796l63-32h129l33 26 57-47-26-21V247l-64-31v62H63v-62L0 184v612m713-427H552l18-42 23-45 24-40 27-34 19 32 23 46 18 49 9 34M192 743H63V300h129v443m477-190-2 10-3 10-4 11-11 20-6 11-19 23-12 9 5 8 14-7 15-5 14-7 13-8 12-9 21-20 9-12 9-13 6-12-2-25-19-15-23 2-16 20-1 9M461 698l-3 10-3 10-5 11-5 10-6 11-7 11-18 23-7 6h-11l-23-41-17-23-17-24-20-21-22-21-24-18-6 6 30 49 14 25 12 24 11 25 10 24 9 25 7 26 6 26 5 26 2 10 61-23 12-14-19-6-2-9-11-28-8-16h107l43 46 52-46v-22H431l5-2 13-7 13-8 23-18 11-10 9-12 9-11 7-12-1-24-18-17-23 2-17 17-1 10m283 0-2 10-8 21-5 10-6 11-16 22-9 12-7 6h-12l-7-11-15-24-16-23-19-20-19-20-22-17-23-16-6 7 29 45 14 21 23 45 11 24 8 23 8 24 5 25 5 21h-1l4 14 60-23 11-14-18-7-13-35-9-17h112l43 46 52-46v-22H715l18-9 14-8 12-8 11-10 10-10 10-12 8-11 8-12-2-24-18-17-23 2-17 17-2 10Z"/></symbol><symbol id="𭊕_S" viewBox="0 0 1000 1000" data-size="21"><path transform="matrix(1 0 0 -1 52 965)" d="m296 375-2-57-4-51-5-49-7-44-7-40-10-36-11-32-14-27-14-22-18-17-6 5 9 19 8 25 8 26 6 30 4 36 5 39 3 42 2 47 1 51-1 55h53m275 470 57-30 11-15-21-4-16-33-29-50-15-24-18-23-2-3 52-26h173l32 26 58-47-27-21V364l-63-31v63h-21V112h-63v284h-23l-5-49-9-54-14-50-18-47-20-43-25-38-27-34-31-29-35-25-37-18-5 8 30 26 27 29 24 32 21 33 18 37 14 39 12 44 10 47 3 28-63-31v347l-22-26-21-21-21-19-7 6 39 74 36 74 21 51 15 46 5 12M385 427h-89v-52h-53v386l-19-12V269l-53-27v58H63v-63L0 205v612l63-32h108l26 27 46-41v144l53-26h89l31 26 59-47-27-21V97l-1-14-2-13-5-12-6-13-8-10-11-9-12-6-12-4-14-2-13-1v31L259 60v15h105l6 1 5 1 5 1 2 2 2 5 1 5v337M763 28l-14 1-13 2-12 4-12 7-11 9-9 11-6 11-4 13-2 13-1 13h63v-7l1-4 1-4 3-3 4-1 5-1 7-1h64l30 132h11L858 91l18-13 13-18-13-19-19-13h-94M171 765H63V321h108v444m423-369h-4v-59l2 17 2 42m169 220H590V417h173v199m-378 36h-89V448h89v204m455-14-36 40-30 43-12 22-12 24-10 24-8 24-5 26-3 21H585v22h93l43 47 52-47v-22h-37l37-54 29-38 31-35 17-15 46-40-56-42M385 868h-89V674h89v194Z"/></symbol><symbol id="𭊖_S" viewBox="0 0 1000 1000" data-size="21"><path transform="matrix(1 0 0 -1 31 963)" d="m207 350 63-32h412l32 27 57-48-26-21V37L682 6v42H270V32L207 0v350m475-53H270V68h412v229M394 658l-10 11-25 22-46 39-40 30-1-1-24-29-25-27-55-51-27-21 41-21h180l32 27 57-47-25-22V420l-64-31v31H182v-64l-64-31v290l-44-28-34-19-36-16-4 9 86 74 51 50 24 26 43 55 21 28 15 25h-1l6 9 50-39 8-18-20 1 24-7 42-17 37-18 32-18 27-19 10-22-9-23-22-8-23 8-7 10m315 60-17-10-4-40-3-27 6-24 12-30 15-28 16-26 20-24 23-23 27-20 30-19 33-17 71-30-61-49-40 21-37 24-32 25-29 27-23 31-19 31-14 33-10 35-1 13-10-31-24-47-30-42-35-35-41-32-46-24-51-19-56-12-3 9 52 22 46 24 39 29 33 31 27 34 23 38 15 42 12 46 7 50 1 55v12l62-12 16-11M362 590H182V440h180v150m247 336 58-28 13-14-21-5-15-32-15-26-16-24-15-20h239l3 3 4 7 2-2 22 18 58-47-27-16-34-14-14-11-58-38-18-10-16-12-6 8 14 15 51 68 7 10H579l-25-26-23-20-25-19-27-16-6 8 55 70 16 23 27 46 22 47 8 25 8 32m-452-18 53-36 9-16-22-1-9-12-44-46-38-31-20-16-45-31-7 7 65 82 24 35 19 31 7 15 4 8-1 1 5 10m258-109-7 9-17 19-25 21-47 32-18 10 3 8 20-5 21-3 19-6 18-6 17-6 16-7 15-8 27-16 12-11 7-22-11-22-23-7-21 10-6 10Z"/></symbol><symbol id="𭊗_S" viewBox="0 0 1000 1000" data-size="21"><path transform="matrix(1 0 0 -1 44 965)" d="m786 129 4 10 8 25 5 18 3 19 7 46 6 56 2 17H619V31L557 0v237l-29-39-29-34-31-32-34-30-36-28-38-23-39-22-41-17-5 8 70 53 32 29 29 29 29 31 26 33 24 34 24 37 20 38 8 16H377l-6-41-67-21 41 256 50-36h162v120H321v21h450l33 27 57-48-26-21V436l-64-32v52H619V341h204l31 26 58-47-26-16-3-1v-7l-3-29-4-29-4-25-4-24-5-20-4-20-5-17-5-16-6-14-57 27m0 0 57-27-6-11-7-12-9-10-9-8-11-8-11-5-12-5-12-4-13-2-13-1v31l-52 17v16h59l6 1 6 2 5 1 7 5 4 4 4 4 4 5 3 7M0 805l63-33h127l33 27 57-47-26-22V256l-64-31v62H63v-62L0 192v613m190-53H63V309h127v443m367-296H399l-18-115h176v115m214 142H619V478h152v120M460 700l-3 12-3 11-5 11-11 24-17 25-9 13-8 7h-9l-8-17-16-28-17-27-18-25-20-25-22-23-23-20-8 6 45 80 23 53 20 56 7 29 6 29 6 30 2 10 60-23 12-12-18-7-3-13-11-30-9-22h111l43 47 52-47v-21H426l9-4 14-9 13-9 13-10 10-11 11-12 10-13 8-12 7-15-1-23-18-17-24 3-16 17-2 12m288 0-3 12-3 11-5 11-11 24-17 25-9 13-8 7h-11l-6-12-16-26-16-25-19-24-20-22-22-20-23-17-7 6 44 72 12 26 22 50 9 27 7 26 7 29 4 23 3 15 60-23 13-13-19-6-14-42-10-23h116l43 47 52-47v-21H714l9-4 14-9 26-19 21-23 10-13 9-12 8-15-3-23-18-17-24 3-16 17-2 12Z"/></symbol><symbol id="𭊘_K" viewBox="0 0 1000 1000" data-size="21"><path transform="matrix(1 0 0 -1 63 945)" d="M230 780c12-11 18-19 18-25 0-7-9-11-26-14V296c0-33 0-50 1-49-2-5-9-9-22-11-8-3-14-5-17-5s-5 2-5 5c-1 4-1 10-1 19 0 16 1 27 1 34v12H45v-45c0-26 0-39 1-38-1-4-9-8-24-11-8-3-14-4-16-4-3 0-4 2-5 5s-1 9-1 19c1 16 1 28 1 37v554l48-30h118l12 15c7 9 11 13 11 13 2 0 8-4 16-12l24-24m343-452c10-8 15-15 15-21 0-7-10-10-30-11V87c0-37 0-54 1-53-2-4-10-9-23-14-8-4-14-5-16-5-5 0-7 4-7 12 0 13 1 26 2 40H343V14c-1-4-8-7-23-10-7-3-13-4-15-4-4 0-6 3-7 9 1 3 1 20 1 52l-2 300 41-25h159l13 17c9 9 14 14 15 14 2 0 8-3 17-11l31-28m294 473c5-8 8-15 8-20 0-6-6-10-19-10-4 0-10 1-17 1-27-59-61-128-103-207-6-12-8-19-8-21 0-3 7-13 23-28 78-74 117-150 117-230 0-51-18-86-55-105l-49-18c-4-1-7-1-10-1-5 0-7 2-7 5 0 1 0 3 1 6s1 6 1 9c0 7-4 13-13 17l-42 15 3 11 57-11c6-1 13-2 18-2 38 0 58 28 60 85 1 26-7 58-24 96-19 45-45 85-79 121-12 14-18 23-18 27 0 3 4 15 13 36 18 41 31 73 39 95 17 46 30 91 40 135H680V64c0-33 0-48 1-46-2-5-9-10-24-14-7-2-12-3-15-3-4 0-6 2-6 5-1 2-1 10 0 21 0 15 1 27 1 37l-5 795 47-32h112l16 20c8 7 13 11 14 11 4 0 9-4 16-14l30-43M179 322v445H45V322h134M515 87v228H343V87h172m115 383-10-14H249v20h199c22 73 44 152 64 236l45-26c11-7 17-12 17-15 0-5-10-9-31-11-27-68-54-130-79-184h58l23 33c10 11 16 16 17 16s6-4 15-13l53-42m-17 280-9-15H267v21h143v92l-4 42 43-9c26-5 39-12 39-21 0-7-11-15-35-23v-81h53l23 35 15 15c1 0 6-4 17-11l52-45M402 511c-7-18-15-28-23-28-9 0-15 11-21 32-5 52-29 103-71 154l9 9c41-36 68-62 80-77 20-24 30-46 30-68 0-7-1-14-4-22M298 13V9v4Z"/></symbol><symbol id="𭊘_S" viewBox="0 0 1000 1000" data-size="21"><path transform="matrix(1 0 0 -1 39 959)" d="m663 887 63-32h108l31 27 58-48-27-16-7-4-22-58-22-57-28-59-31-60-15-24 40-20 30-31 23-36 18-40 12-40 6-39 3-39v-37l-2-32-5-26-61 16 6 21 5 26 2 32v34l-3 35-7 36-11 35-15 33-22 33-25 32 1 2-7 2 17 67 27 93 14 58 12 55 2 8H726V31L663 0v887M301 398l62-31h157l31 27 57-48-26-21V63l-62-32v63H363V31L301 0v398m219-52H363V115h157v231m315-114 61-16-4-13-5-13-7-10-9-10-10-9-10-8-12-5-13-3-13-2-13-1v31l-53 15v16h53l7 1 6 1 3 1 4 2 3 2 3 2 2 4 3 3 2 6 2 6M0 805l63-33h105l31 27 58-47-27-22V256l-62-31v62H63v-62L0 192v613m168-53H63V309h105v443m350-11 58-25 13-14-20-6-24-63-21-47-23-51-14-26-8-16h43l53 53 63-53v-21H245v21h220l10 51 17 80 6 23 14 66 3 15h-1l4 13M344 541l-4 41-2 21-7 38-8 36-9 35-6 16 7 5 25-28 11-17 10-16 18-37 15-40 6-22 6-22-7-24-19-12-24 6-12 20m-84 220v21h150v136l63-10 16-11-16-9V782h34l53 52 63-52v-21H260Z"/></symbol><symbol id="𭊙_S" viewBox="0 0 1000 1000" data-size="21"><path transform="matrix(1 0 0 -1 46 961)" d="m649 376-5-51v-1l2-10h135v131H671v21h110v116H671v21h110l32 26 57-47-26-21V262l-63-32v63H652l17-43 17-33 21-32 24-30 28-26 31-25 35-22 68-35-60-47-43 26-38 29-33 32-30 34-24 37-19 39-13 41-5 22-10-29-20-43-26-40-30-36-35-34-40-30-44-26-49-21-5 8 43 30 37 32 33 33 29 34 24 35 19 37 14 39 11 41v3H442v-63l-57-29v409l42-20 34 31 59 47 11 8 7-14 36-35 1-17-18 8-10-2-14-5-55-19-15-6-16-5-5-3V461h28l33 37 42-37v-21H442V314h140l3 19 2 45v388l62-11 16-11-16-9V376M287 828l53-26h231v121l63-11 15-10-15-9v-91h157l53 52 63-52v-21H340V482l-3-68-3-64-6-60-8-56-9-50-11-46-14-42-15-36-18-32-21-26-6 5 12 29 11 32 10 36 8 41 7 45 5 49 5 55 2 58 1 63v413M0 799l63-32h112l29 26 55-47-27-18V250l-57-29v60H63v-62L0 187v612m175-53H63V303h112v443Z"/></symbol><symbol id="𭊚_S" viewBox="0 0 1000 1000" data-size="21"><path transform="matrix(1 0 0 -1 45 962)" d="M317 820V510l-1-1-2-67-4-64-6-61-7-56-9-54-10-49-11-46-14-42-15-37-17-33-7 3 16 74 8 41 7 46 7 49 5 52 3 55 3 61 2 63v423l52-26h221v84l63-11 15-10-15-9v-54h194l53 53 62-53v-21H317m222-7 63-11 15-10-15-10v-82h164l43 47 51-47v-20H602v-77h105l31 25 58-47-26-20v-72h21l43 47 53-47v-21H770V314l-63-31v63H602V207h118l43 48 52-48v-20H602V84l39-4 62-3 68 3 77 6 6-69-81-3-73 2-65 6-60 11-53 17-45 21-38 27-29 31-15 27-12-26-16-29-17-29-19-26-19-24-23-21-8 6 27 54 23 56 10 29 9 31 8 31 7 32 6 34 6 45 61-20 14-13-18-8-4-15-10-36-11-34-5-11 5-6 24-26 29-22 35-18 41-13h1v249H382v21h157v101H336v21h203v92H382v22h157v77H336v20h203v113M852 38v-5l1-11 1-5 51 73-57-4v-9l1-5v-2l1-9 1-11v-4l1-8M0 801l63-32h109l25 26 53-47-26-16V252l-52-26v57H63v-62L0 188v613m172-53H63V305h109v443m535-280H602V367h105v101m0 113H602v-92h105v92Z"/></symbol><symbol id="𭊛_S" viewBox="0 0 1000 1000" data-size="21"><path transform="matrix(1 0 0 -1 57 969)" d="m438 10-37 52 8 3v401l63-10 15-11-15-9V309h62l32 37 42-37v-21H472V91l118 54 20 10 6-8-33-33-35-30-36-26-55-37-4-21-15 10m-74 462-3-54-3-60-4-56-7-53-9-48-10-45-11-41-13-36-16-33-17-27-8 2 8 32 8 33 7 37 7 40 5 44 4 48 3 51 2 54v471l57-29h182v136l62-10 16-10-16-10V802h158l52 52 64-52v-21H692V660h89l32 27 58-47-26-22V461l-64-31v42H364m437-88 5 4 39-49 2-19-21 7-27-14-55-26-19-8-22-8-15-3V114l1-5 3-2 4-2 5-1h124l30 131h10l-10-131 19-13 13-19-13-18-19-13H708l-14 1-12 2-13 4-13 7-10 8-8 11-7 12-4 13-2 12-1 14v341l64-10 15-11-15-9V290l69 53 37 34 7 7M0 814l63-32h129l29 27 55-47-26-19V266l-58-30v61H63v-63L0 202v612m192-52H63V318h129v444m280-122H364V492h108v148m158 0h-95V492h95v148m151 0h-89V492h89v148M472 781H364V660h108v121m158 0h-95V660h95v121M433 19l-1 2 1-2Z"/></symbol><symbol id="𭊜_G" viewBox="0 0 1000 1000" data-size="21"><path transform="matrix(1 0 0 -1 30 951)" d="m236 830 8 11 73-27c6-6 6-10-1-13-10-6-18-12-23-19V168h202l20 35 57-43c5-3 7-6 7-8 14 29 24 57 30 84 15 70 23 160 24 270s1 153 1 129v155c0 17-7 32-21 47l12 8 32-35 46 7c77 18 120 30 130 36 15 6 21 16 17 29l7 4 56-45c5-6 8-11 9-14 0-3-2-4-7-4-16 3-42 0-79-9-64-13-119-20-166-23V677c0-32 0-62-1-91h166l32 39 66-49c5-4 8-7 7-8s-5-2-13-2H810V104l2-56c3-24-12-38-44-43 3 24 6 72 7 144v417H669v-82c-1-119-10-211-29-278S575 71 500 0l-12 12c40 51 70 97 90 138-2-1-6-2-12-2H311l-40-45-43 45c17 12 27 25 30 40v606c0 13-7 25-22 36M14 807l27-29h105l36 36 41-44c5-4 6-7 5-10s-4-6-11-7l-18-9V379l6-105c0-20-14-30-41-30v80H52v-85c3-25-11-39-42-43 4 32 6 68 7 108v455c-2 14-8 26-17 37l14 11m38-463h112v414H52V344m361 558 76-36c8-3 10-7 5-11-12-6-21-13-28-21V600h49l25 37 51-43c7-5 10-9 8-12-1-2-7-3-18-2H466v-67c23-13 43-28 60-44 22-21 36-41 43-59 8-19 6-33-5-42-13-9-22-2-27 19-8 20-19 41-34 64-10 13-22 27-37 41V332l3-95c0-13-4-23-13-30-8-7-18-12-29-13 3 20 5 82 7 186v172c-13-47-28-90-44-131-21-51-50-106-86-164l-6 19c29 64 51 118 64 163 15 45 27 92 37 141h-25c-17 0-30-4-39-13l-32 33h131v245c1 11-9 26-29 45l8 12m125-74 60-38c9-7 11-12 6-14-14 0-26-7-36-22-31-61-57-106-78-134l-11 7 20 52c29 71 43 109 42 114-1 8-4 17-11 27l8 8m-210-8 12 5c22-22 41-49 56-82 13-30 18-56 16-78-4-20-11-30-22-30-12-1-18 11-18 36 0 23-3 45-10 67-7 25-19 53-34 82Z"/></symbol><symbol id="𭊝_G" viewBox="0 0 1000 1000" data-size="21"><path transform="matrix(1 0 0 -1 14 941)" d="M111 815c-12 1-24-3-37-13l-34 29h287l36 36 42-40c5-5 7-9 6-12s-4-4-10-4l-20-7V662h8l23 29 55-39c5-3 8-6 7-8-1-1-6-2-13-2h-80V542l4-77c1-21-14-31-43-31v55H174c-2-14-5-27-8-40-9-32-20-63-34-94l12-12h203l25 28 45-34c4-4 6-7 5-9s-5-3-11-4l-16-11V137l5-60c1-21-12-32-40-35v63H152V44c3-25-11-39-42-43 3 24 6 71 7 142v180c-27-50-61-96-103-139l-6 12c39 54 70 111 93 170l-1 1 2 1c10 27 19 53 26 79 3 13 6 27 9 42h-23c-17 1-32-4-44-13l-33 29h103c8 40 14 86 19 137H77c-16 1-31-3-44-12L0 662h161c4 47 7 98 9 153h-59m390-420 37-30h252l37 38 48-46c5-4 6-7 5-10s-4-6-10-7l-18-9V127l5-76c2-17-14-29-48-35v78H552V43c2-23-15-38-50-43 3 25 6 69 7 133v212c-1 14-8 27-19 39l11 11m51-50V113h257v232H552m-82 313h155c13 51 21 106 25 165h-83c-16 1-31-3-44-12l-33 32h287l31 39 61-49c5-3 8-6 7-8-1-1-6-2-13-2H696c-6-64-15-119-26-165h151l31 38 61-49c5-3 8-6 7-7s-5-2-13-2H727c18-44 41-85 68-122 31-41 63-71 96-90 17-9 43-18 80-26l-1-13c-37 5-62-2-77-21-49 29-92 74-129 135-26 44-46 90-60 137h-40c-14-51-35-97-62-137-43-63-103-111-179-146l-10 10c81 55 137 117 170 184 14 27 26 56 35 89h-71c-17 1-32-4-44-13l-33 33M152 121h208v206H152V121m46 521c-5-49-12-95-20-137h164v137H198m11 173c-1-54-4-105-9-153h142v153H209Z"/></symbol><symbol id="𭊞_S" viewBox="0 0 1000 1000" data-size="21"><path transform="matrix(1 0 0 -1 39 959)" d="m803 52-6 7-12 13-1 1-4 4-1 2-3 3-5 7-5 5-5 6 5 4 4 7 5 12 5 15 5 18 4 22 3 24 3 27 2 31v22H620l-18-47-30-52-33-47-38-40-42-34-48-28-51-20-54-14-3 9 50 22 44 28 41 30 35 35 31 39 26 44 23 50 10 25H344v21h225l17 66 12 75 60-19 14-13-18-8-10-48-16-53h170l31 26 58-47-27-15v-1l-3-41-3-30-3-27-4-25-6-23-7-20-9-18-10-17-12-13m-42 48 42-48-9-8-11-7-21-13-11-3-12-4-11-3-12-3-13-1-13-1v32L585 57v15h113l16 3 15 4 12 6 7 5 13 10M0 804l63-33h133l32 27 57-47-26-22V255l-63-31v62H63v-62L0 191v613m196-53H63V308h133v443m217-297 5 1 5 1 1 1v2l1 1 1 3 1 5v7h63l-1-14-2-13-5-12-5-12-9-11-11-9-12-7-12-3-13-2-14-1v31l-52 16v16h59m417-28-32 28-28 30-26 32-8 11-18-19-29-25-30-20-32-16-5 8 25 24 24 25 21 26 22 33-12 20-17 36-13 37-10 38-1 11-11-24-15-29-17-27-18-25-8 4 21 74-14-9-13-6-14-25-17-30-30-41-9-12-10-14-9 5 6 15 3 16 4 16 4 15 4 16 3 17 4 15 4 16 3 13h-42V475h-63v122l-16-26-18-25-19-23-20-22-21-20-22-18-25-16-7 8 48 67 28 48 26 52 21 55 2 8H297v20h141v1l-3 10-4 10-5 9-5 11-7 10-7 10-17 20-10 10-12 8 4 9 14-6 15-4 27-11 12-8 13-8 9-7 39 78 5 11H314v21h200l3 3 2 4 2-1 24 20 58-47-26-15-21-10-48-49-26-22-6-5 9-11 9-12 1-23-5-6h45l31 26 50-41 10 34 8 30 12 60 4 32 4 30 4 43 62-19 13-12-17-8-11-46-8-31-6-16h119l43 47 52-47v-21h-56l-11-42-15-44-15-40-20-38-19-34 16-17 27-27 28-23 30-23 52-35-58-44-34 27m-46 340h-99l-9-26-5-12 29-60 19-32 18-28 8 15 14 36 11 38 9 41 5 28Z"/></symbol><symbol id="𭊟_S" viewBox="0 0 1000 1000" data-size="21"><path transform="matrix(1 0 0 -1 43 960)" d="M755 374H487v21h268v150l63-11 16-11-16-8V395h18l32 37 42-37v-21h-92V84l-1-14-2-12-4-13-6-12-9-11-11-8-12-7-12-4-13-2-14-1v31l-73 17v15h79l5 1 3 1 3 1 1 2 1 1 1 3 1 5v297m-413-47-2-39-4-38-5-37-7-34-10-33-9-33-13-29-14-28-15-27-19-23-7 4 11 27 18 57 6 29 6 31 6 33 3 32 2 35 1 35v38h52m59 587 58-11 15-10-15-10V38L401 9v389h-59v-71h-52v71h-46v22h157v175h-77v-64l-53-26v352l53-10 13-11-13-9V615h77v299m217-704-2 11-2 10-3 11-9 23-21 37-10 11 6 7 13-9 14-8 12-8 23-20 9-10 18-24 8-12 6-13-4-25-20-14-23 4-15 19v10M0 804l63-33h118l23 27 51-47-26-13V255l-48-24v55H63v-62L0 191v613m181-53H63V308h118v443m502-81-2 7-4 8-12 17-16 20-17 20-24-24-24-25-12-8 12-5 13-5 23-12 22-15 18-17 9-9 3-24-13-20-24-3-20 14-3 9-8 18-4 9-13 20-15 19-8 11-1 1-34-26-29-17-6 8 44 50 40 52 19 27 33 55 27 58 15 38 56-32 10-16-20-2-24-45-4-4h135l31 26 58-47-26-16-11-5-19-39-30-53-33-50-35-45-39-41-40-37-44-33-46-27-49-22-51-18-4 10 46 25 43 29 40 31 37 34 35 38 33 41 31 44 27 49 26 52 13 33H677l-23-31-14-18 12-4 13-5 24-12 12-5 10-7 10-7 9-8 8-8 4-24-14-20-24-3-19 14-2 7Z"/></symbol><symbol id="𭊠_S" viewBox="0 0 1000 1000" data-size="21"><path transform="matrix(1 0 0 -1 42 962)" d="m242 460 2-8-2 8M639 42l-14 1-13 3-12 5-12 6-10 8-9 11-6 12-3 13-2 12v13h57l1-6 1-6 1-3 1-2 1-1 2-1 2-1h3l5-1 7-1h216l31 132h10l-10-132 18-11 13-20-13-18-18-13H639M0 783l63-32h103l31 26 58-47-26-21V198l-63-31v62H63v-62L0 136v647m440-584v38l-1 19-1 18-4 18-4 18-5 16-5 18-8 16 8 6 26-28 12-16 10-17 9-19 7-19 7-21 4-21 5-23 2-23-9-23-22-10-22 10-10 23 1 20m424 100-1-13-2-13-4-12-6-13-9-11-11-8-12-6-12-4-13-3-14-1v32l-42 16v15h49l5 2 4 1 3 2 1 5 1 5 1 6h62M166 730H63V251h103v479m81-287v-2 2m11-42-27 59 10 3 16 3 76 144-13 1-15 18-7 25-4 13-5 12-11 24-7 12-15 24-10 10 6 8 13-8 21 50 53 111 5 10 52-37 7-18h-21l-57-68-27-30-15-14-8-9 16-10 13-9 11-10 11-12 21-24 8-14 3-5 68 144 16 40 55-31 10-17-20-3-48-86-69-111-54-77-30-40-7-8 29 6 44 9 66 18 21 4v4l-10 38-14 39-8 18 8 6 28-32 14-18 11-17 11-20 9-20 8-21 8-21 6-23 6-22-7-23 49 26v195l-25-40-21-28-9 5 35 98 22 70 9 36 18 76 8 40 9 51 59-23 14-12-19-7-5-23-24-79-17-46h168l53 52 63-52v-21H604l-18-42-17-33-5-10 51-10 14-10-14-9V452l63 34v212l58-10 14-11-14-9V517l66 35v15l31 26 58-47-27-21V299h-62v229l-66-35V193l-58-29v299l-63-34V126h-57v272l-45-24-10 19-15-9-23 6-12 21-1 21-2 20-3 20-3 17-15-10-32-17V31L334 0v327l-13-7-3-32-5-27-4-28-6-28-9-28-19-57-11-29-15-29-9 2 4 32 12 89 2 28 3 27 1 27v50l-1 24v13l63-13 10-7v98l-54-22-1-1-7-19-14 11Z"/></symbol><symbol id="𭊡_S" viewBox="0 0 1000 1000" data-size="21"><path transform="matrix(1 0 0 -1 41 974)" d="m50 389 63-32h198l32 27 57-47-26-22V37L311 6v42H113V32L50 0v389m603 326 60-22 14-13-19-7-13-50-20-67-8-26h132l53 53 62-53v-20H659l-30-80-27-59-7-15 20-9h178l32 26 58-47-27-21V42l-63-31v42H615V37L552 6v275l-11-18-35-50-36-47-41-42-7 6 61 98 28 51 26 54 15 34v12l4-3 27 71 21 63H426v20h183l12 41 17 67 13 67 2 10M311 337H113V68h198v269m482-11H615V74h178v252M19 498v22h157v220H0v22h176v185l62-10 16-11-16-9V762h91l43 47 53-47v-22H238V520h57l52 51 63-51v-22H19m711 437 63-10 17-11-17-10v-90h31l43 47 52-47v-21H793v-95l-63-31v126H594v-95l-63-31v126H415v21h116v121l63-10 15-11-15-10v-90h136v121Z"/></symbol><symbol id="𭊢_K" viewBox="0 0 1000 1000" data-size="21"><path transform="matrix(1 0 0 -1 70 940)" d="M176 831v-78h199v78H176m0-94v-68h199v68H176m0-83v-73h199v73H176m493 228 46-28c8-7 11-13 8-17-2-4-7-6-15-6H419v-78h180l31 35 46-31c9-5 12-10 8-14-3-4-9-6-18-6H419v-68h172l29 32 50-27c8-4 11-8 8-13-2-4-9-7-21-7H419v-73h288l26 30 51-35c11-6 14-13 9-19-4-6-14-10-29-14-3-27-10-54-22-82-11-26-22-47-35-62-16-17-34-30-54-41-20-10-36-14-49-11v8c1 8 0 14-1 18-1 7-5 11-12 14-9 6-23 12-40 18-18 7-36 13-51 18l5 10 44-10c40-10 66-14 80-14 22 1 40 11 53 30 9 15 18 34 25 58s11 47 11 69H176v-11c2-6 1-10-1-13-3-3-10-7-20-10-12-3-20-4-23-2-2 2-3 9-2 20l2 27v255l-3 44 50-29h462l28 35M521 535c28-8 54-19 77-33 22-12 36-23 42-33 11-18 11-30 1-36-9-7-22 0-37 20-10 12-22 26-37 39-16 12-32 24-50 35l4 8m-148-14c32-18 55-34 70-48 16-15 25-30 25-45 4-24-2-37-15-39-13-3-22 7-28 29-5 17-13 34-24 52-8 12-19 27-34 45l6 6m-147-6c26-21 45-39 56-55 13-18 20-37 20-57 0-21-7-33-20-36-12-2-20 9-25 35l-1 4c-4 19-7 34-11 46-6 20-15 39-28 58l9 5m-130-6c4-26 2-53-6-81-10-33-26-61-48-85-15-12-26-12-34-1-8 12-7 27 3 47 3 5 6 10 10 14 3 4 7 8 12 14 14 14 23 27 29 37 10 16 16 35 20 57l14-2M41 343l46-26h230l26 26 40-30c15-12 19-21 12-26-4-4-12-6-22-6V79c0-21-1-35-3-41-3-8-10-14-22-17-11-3-18-2-20 2s-2 12-1 26l1 27H90V48c1-15 0-25-1-28-2-7-8-12-17-16-12-4-21-3-24 3-2 4-3 12-3 24l1 9v236l-5 67M90 91h237v210H90V91m431 237c19-6 26-12 22-15-3-4-14-7-33-11V179c32 13 74 34 125 63 52 30 94 57 128 81l56-32c12-7 16-12 11-16-7-4-22-3-47 1-41-20-83-40-126-57-53-21-102-38-147-51V90c2-7 4-13 8-18 7-8 19-12 35-12 13-2 44-4 93-4 50 0 82 1 97 4 21 5 37 17 48 36 12 21 23 52 32 93l12-4-1-12c-2-22-4-38-4-49-2-17-3-34-5-53 26-13 39-23 38-30s-17-12-49-16c-19-2-67-3-141-3-71 0-117 1-140 2-27 2-45 8-55 18-8 8-12 21-12 39v227l-2 41 57-21Z"/></symbol><symbol id="𭊣_G" viewBox="0 0 1000 1000" data-size="21"><path transform="matrix(1 0 0 -1 22 981)" d="m507 802 39-31h136v140c1 10-8 24-26 41l7 10 80-33c9-3 11-7 6-11-10-2-19-8-28-17V771h129l40 41 54-57c1-3 1-5-1-6s-5-1-9 0c-20 1-38-9-53-32-3-3-13-17-31-40-15-19-27-35-36-48l-11 6 55 116H721V514h80l29 33 46-43c5-3 7-5 7-8 0-2-2-4-7-5-10-7-17-12-20-17s-10-23-20-56c-10-34-28-82-54-143-12-26-27-51-44-76 2-3 3-5 4-7 45-55 90-90 135-107 20-8 46-16 79-24V45c-24 5-41 7-51 6s-23-10-39-27c-42 22-84 56-125 103l-30 39c-17-21-36-39-55-54C599 65 531 29 452 5l-3 12c73 33 134 74 185 122 21 20 39 40 56 61-17 28-32 59-43 92-23 60-39 127-50 202h-33c-2-128-16-231-43-308-27-79-84-141-170-186l-6 9c71 54 119 117 143 188 23 72 36 184 37 335v211c-4 15-13 32-27 50l9 9M72 424l28-34h100l32 37 48-46c3-3 5-5 4-7s-4-4-10-5l-18-9V258l5-52c-1-12-5-20-12-24-9-5-19-9-30-12v40H107v-10c1-14-2-24-10-31-7-5-19-10-36-14 1 12 3 31 4 56 1 11 1 19 2 25v141c-3 16-6 28-9 36l14 11m10 374 30-34h95l32 37 46-46c5-3 7-5 6-7s-4-4-10-5l-18-9v-81l5-54c-1-11-5-19-13-23-8-5-18-9-30-12v38H120c0-13-5-23-14-29-8-7-19-12-34-15 2 15 4 40 7 73v126c-4 16-8 26-12 30l15 11M0 505h419l20 33 56-39c5-4 7-7 5-10-2-2-7-3-16-4H384V107c-1-25-7-43-18-53-11-11-33-21-66-32-2 19-10 33-25 41-15 7-43 16-83 28l2 17 42-10c42-8 70-10 83-5 14 5 21 22 22 51v341H75c-17 0-32-4-43-13L0 505m668-184c15-33 30-63 45-88 13 19 25 41 36 66 25 54 46 119 64 195H618c11-65 28-122 50-173m14 430H564V514h118v237M14 878h389l24 37 56-40c7-5 10-9 9-12s-7-4-16-5h-94V620l2-40c0-14-5-24-15-31-9-7-22-11-37-14 3 25 5 54 7 89v234H89c-17 1-32-4-43-14l-32 34m93-504V226h112v148H107m12 374V618h106v130H119Z"/></symbol><symbol id="𭊤_S" viewBox="0 0 1000 1000" data-size="21"><path transform="matrix(1 0 0 -1 50 973)" d="m300 76 1-6-1 6M0 818l63-32h99l32 27 58-47-26-22V270l-64-32v63H63v-63L0 206v612m162-52H63V322h99v444m582-299 53-47v-22H317v22h384l43 47m66 291H592V497l-63-32v293H323l1-17 1-25-2-24-2-21-4-21-5-18-7-17-10-15-46 39-1 2 7 5 7 10 7 12 6 15 6 17 6 21 6 23 10 54 3 30 9 1 4-31 2-20h208v95H325v22h370l52 51 64-51v-22H592v-95h219l32 27 57-47-26-16-13-6-16-28-23-35-18-23-7-11-9 5 5 12 1 14 3 14 2 13 3 14 2 13 3 13 3 21m-21-205v-22H607v22h182m-274 0v-22H328v22h187m-267 88 47-41-22-11-23 7-10 22 8 23m530 22v-21H607v21h171m-263 0v-21H328v21h187M304 44v-2 2m3-29-9 31-3 3 2 2-7 25 10 1 20 2 64 78 33 47 25 41 9 19 5 11H247v22h508l53 53 62-53v-22H479l37-21 9-16-21-2-30-42-18-20-43-43-23-23-28-21-7-6 122 8 46 3 97 4 49 2h65l-30 40-85 90 6 7 29-16 29-17 25-17 45-38 37-38 17-19 14-20 13-20V25L818 8l-24-1-18 15-7 19-9 18-12 18-3 6-73-14-144-22-200-29-9-18-12 15Z"/></symbol><symbol id="𭊥_S" viewBox="0 0 1000 1000" data-size="21"><path transform="matrix(1 0 0 -1 48 966)" d="m511 187-24 7-10 22-1 24-2 46-2 22-3 22-6 42-8 40-5 20 9 4 23-35 11-19 18-42 7-22 5-23 6-24 6-25 1-6 3 30 2 52 1 57v59h62l-1-62-5-58-7-54-8-50-11-47-12-42-15-38-18-34-19-29-23-24-6 6 12 28 11 30 11 35 8 37 7 41 3 21-20-11M801 47l-34 32-30 36-26 40-17-24-33-41-37-35-39-30-42-21-4 8 33 29 32 33 30 37 27 41 26 46 1 2-21 51-17 54-13 57-10 62-4 61h-19v-47h-62v347l62-32h64v179l63-11 16-10-16-10V753h84l32 26 57-47-26-15-13-6-24-44-19-31-22-33-11-19-9 3 7 20 8 40 9 36 9 49h-82V507h46l32 26 57-48-26-15-6-3-12-50-20-67-23-64-25-57-12-22 14-21 26-34 29-29 30-23 55-34-58-45-37 26M336 359l-3-46-4-45-9-42-9-40-13-38-16-35-18-32-22-28-23-26-27-22-5 6 19 27 18 27 14 30 13 31 12 33 8 36 6 38 5 39 2 42-1 45h53m41 179h-41V359h-53v179H183v21h136v189H205v6l-26-18V290l-58-28v28H58v-62L0 198v607l58-30h63l29 27 55-46v13h114v163l64-11 15-10-15-10V769h11l51 52 64-52v-21H383V559h29l53 52 62-52v-21h-97V74l-2-11-3-11-4-11-6-10-8-8-10-6-10-5-11-3-12-1v26l-60 13v14h64l2 1h2l1 1 2 5 1 5 1 6v459M204 426l62-16 15-12-18-8-1-9-5-29-11-55-7-26-8-26-8-24-9-25-12-21-12-22-8 3 2 25 3 23 2 25 3 25 3 24 4 53 2 27 1 29 1 22h-1l2 17m570 59H633l15-56 19-59 20-54 20-48 5-10 17 47 19 60 16 67 10 53M121 755H58V312h63v443m547-23h-64V507h64v225Z"/></symbol><symbol id="𭊦_S" viewBox="0 0 1000 1000" data-size="21"><path transform="matrix(1 0 0 -1 32 957)" d="m821 23-48 22-42 27-37 33-31 40-24 44-20 50-14 54v5l-15-54-27-56-32-51-39-43-46-35-50-29-57-19-63-11-2 9 58 21 51 26 44 30 37 36 30 40 26 47 19 52 14 59 9 65 1 66v18l63-13 16-11-17-10-5-56-2-14 2-9 16-55 18-49 10-19 68 87 26 35 31 46h-1l6 7 48-41 6-17-21 2-30-31-33-30-37-29-57-39 7-13 25-36 29-30 34-25 36-18 40-15 95-18-62-59-53 14M0 825l63-32h123l31 26 57-47-26-21V209l-62-32v63H63v-63L0 146v679m352-593 38-49-23-7-21 12-6 23 12 21m0 0 11 8 12 10 11 12 10 13 10 17 10 19 8 19 9 24 7 24 6 27 10-1 1-28v-27l-2-26-4-24-6-24-7-21-9-21-11-17-14-18-14-15-3 5h-2l-16 21-17 23M186 772H63V261h123v511m663-255-36 45-14 25-15 25-13 28-10 25V484l-63-31v192l-10-20-20-29-21-27-22-24-23-23-26-19-27-17-6 8 38 47 33 52 16 27 15 28 24 61 10 33 4 16h-88v20h103v135l63-11 16-9-16-10V778h22l53 53 62-53v-20H761v-18l33-55 16-25 33-43 16-19 36-35 19-15 11-10-57-42-19 21m-320 85-5 12-10 25-7 12-18 24-6 8V484l-63-31v192l-11-20-19-29-21-27-21-24-24-23-26-19-27-17-6 8 38 47 17 25 17 27 16 27 13 28 13 30 12 31 10 33 4 16H283v20h137v135l63-11 16-9-16-10V778h30l32 37 42-37v-20H483v-51l10-3 15-8 14-8 13-10 13-11 12-12 11-12 11-15 9-15v-23l-16-18h-24l-18 16-4 14Z"/></symbol><symbol id="𭊧_S" viewBox="0 0 1000 1000" data-size="21"><path transform="matrix(1 0 0 -1 54 945)" d="m308 354-2 15-2 14-3 13-3 12-8 24-6 11-3 5-17-40-21-40-23-36-9 5 39 124 11 46 10 49 9 49 8 53 7 55 6 58 3 46h-88v21h154l43 48 53-48v-21H366l-6-52-9-60-11-56-4-15h54l31 26 58-48-26-15-3-1-6-65-12-83-16-78-19-71-21-66-24-60-29-53-31-47-35-40-38-33-6 7 29 39 27 43 24 47 21 52 20 59 17 65 2 6-8-5-24 6-13 21v14m410 5-2 15-2 14-7 25-4 13-11 22-3 7-18-42-22-39-23-37-9 5 28 82 12 43 23 94 9 50 8 52 7 56 6 56 4 47h-93v22h164l43 47 52-47v-22H776l-6-53-10-59-11-56-3-15h57l32 26 58-47-27-16-3-1-7-64-12-84-16-77-18-72-23-66-25-59-30-54-33-47-35-40-39-32-7 7 30 39 29 42 25 48 23 52 20 58 17 64 2 9-9-6-24 5-12 20-1 15M464 24l-18 28-1 1-9 14-3 4-3 6 71 41v336h-49v21h49v296h-60v22h111l43 47 52-47v-22h-83V475h17l24 32 32-32v-21h-73V155l64 38 26 14 6-7-20-22-62-60-58-51-39-29-1-21-16 7m-34 53 34-53-44 47 10 6M0 797l63-31h73l31 26 58-48-27-20V225l-62-32v64H63v-64L0 162v635m136-53H63V277h73v467m253-132h-57l-18-68-15-48-12-31 13-7 12-10 10-10 10-11 10-13 8-15 7-15 5-13 2 10 12 76 8 81 5 74m413 6h-61l-18-68-16-49-12-31 13-7 12-9 11-10 10-11 10-14 9-14 8-15 6-16 14 88 9 81 5 75Z"/></symbol><symbol id="𭊨_S" viewBox="0 0 1000 1000" data-size="21"><path transform="matrix(1 0 0 -1 63 958)" d="m785 242-42-43-49-41-24-16-24-15-26-11-24-8-4 9 56 52 60 64 41 53 36 53v81l-25-32-33-34-39-34-43-30-48-26-6 7 54 59 32 37 13 19 31 45H597l-26-21V84h-63v158l-41-43-50-41-24-16-26-15-24-11-26-8-4 9 58 52 40 41 40 49 41 57 16 23v77l-26-28-17-18-37-34-41-31-23-15-49-26-5 7 71 78 45 55 19 27H310v21h198l31 27 48-40v13h198l32 27 58-48-26-21V84l-1-13-2-13-5-13-6-12-9-11-11-8-11-6-13-5-13-2-13-1v31l-64 16v16h70l4 1 3 1 3 1 1 1 1 3 1 3 1 5v164M571 84l-1-13-3-13-4-13-5-12-9-11-11-8-12-6-12-5-13-2-14-1v31L382 47v16h111l5 1 3 1 2 1 2 1 1 3 1 3v5l1 6h63M0 799l63-32h141l32 26 58-47-26-21V250l-64-31v62H63v-62L0 187v612m204-53H63V303h141v443m585-109-50 32-46 35-20 20-20 19-18 22-17 22-12 21h-60l-10-14-25-28-30-27-33-24-36-24-11-5 53-27h232l32 27 57-48-26-21V506l-63-31v31H454l-62-31v205l-19-11-43-20-47-18-4 9 41 26 38 27 35 27 30 25 27 27 25 27 5 9H294v20h202l15 26 13 27 13 35 57-28 10-15-20-5-6-14-16-26h159l52 53 63-53v-20H627l73-50 46-28 24-12 48-23 57-24-60-49-26 15m-103 1H454V527h232v111Z"/></symbol><symbol id="𭊩_S" viewBox="0 0 1000 1000" data-size="21"><path transform="matrix(1 0 0 -1 43 958)" d="M231 0v21h310v158H283v20h258v126l63-11 16-10-16-9v-96h143l52 53 63-53v-20H604V21h194l53 52 63-52V0H231M0 782l63-32h122l28 26 56-47-27-18V214l-57-28v60H63v-63L0 151v631m355-456v-36l-57-29v501l57-30h134l28 57 13 30 9 25H247v21h543l53 52 63-52v-21H607l-23-34-22-31-24-26-21-21h278l31 27 59-47-27-22V306l-63-32v52H355M185 729H63V267h122v462m273-17H355V348h103v364m174-253H521V348h111v111m163 253H695V348h100v364M632 591H521V479h111v112m0 121H521V612h111v100Z"/></symbol><symbol id="𭊪_S" viewBox="0 0 1000 1000" data-size="21"><path transform="matrix(1 0 0 -1 46 959)" d="m784 92 58-27-6-11-8-11-8-10-8-9-11-7-12-6-12-5-12-4-13-1-13-1v31L634 47v16h112l6 1 6 1 5 2 8 5 3 4 7 10 3 6M336 372l-40-30v-21l-18 7-3 5-4 7-1 2-4 7-6 7-1 2-3 4-4 7-5 6v1l-2 2-1 2v1l92 55v256h-82v22h82v204l62-10 16-11-16-9V714h10l32 36 42-36v-22h-84V474l33 18 48 27 6-8-37-41-41-37-9-8V81l-2-14-4-11-7-13-9-11-11-8-11-6-12-4-14-3-14-1v32L210 58v15h111l4 1 4 2h2l1 1v1l1 2 2 3v5l1 6v278M842 65l-15 7-2 1-5 3h-2l-4 2-3 2-18 8-9 4 8 17 6 23 6 25 5 30 4 33 2 36 2 41 1 45 1 47-1-1v42H596l-29-45-20-29-20-24 42-7 17-11-17-9V163l34 63 9 22 9 23 8 25 15 53 4 27 5 29 2 10 60-22 14-13-20-7-2-11-10-29-5-12 6-3 13-6 13-9 11-9 12-11 22-23 10-14 10-14 1-23-16-19-24-1-18 16-4 14-11 25-11 25-20 33-11-24-14-25-15-24-14-22-18-19-18-18-21-16-6 6v-29h113l44 47 51-47v-22H569V47l-62-31v294l-29-30-25-21-8 7 68 112 15 29 30 62 13 32 13 33 10 28h-31l-64-32v367l64-31h208l31 27 57-48-26-21V540l-62-31v53H625l30-16 10-16-19-4-24-48-14-27h210l32 27 57-48-25-15v-75l-1-45-2-43-4-39-4-35-6-32-6-31-7-25-10-25M0 805l63-33h100l32 27 58-47-26-22V256l-64-31v62H63v-62L0 192v613m163-53H63V309h100v443m81-371 34-53-44 47 10 6m527 322H563V582h208v121m0 142H563V724h208v121Z"/></symbol><symbol id="𭊫_K" viewBox="0 0 1000 1000" data-size="21"><path transform="matrix(1 0 0 -1 57 945)" d="m640 245-7-15H228v21h64v431h-63v20h63v144l-3 44 49-12c17-6 25-11 25-15 0-3-9-9-27-18V702h135v158l-2 29 50-14c18-5 27-9 27-15 0-5-11-11-31-17V702h22l18 27c7 10 11 15 13 15 4 0 11-4 20-13l36-35-4-14H515V251h23l19 34c7 9 12 14 13 14 6 0 13-5 24-14l46-40M564 87c2-24-4-36-16-36-13 0-22 10-27 30-14 44-42 79-86 103l6 11c45-22 76-40 92-54 20-16 30-34 31-54m-199 97c20-11 30-19 30-23 0-6-13-9-38-10C319 93 271 42 212 0l-8 9c26 19 52 48 76 86 24 36 42 72 55 108l30-19m106 378v120H336V562h135m0-146v125H336V416h135m0-165v145H336V251h135M209 753c11-12 17-20 17-25 0-8-9-12-25-13V225c0-36 0-52 1-49-2-6-10-10-23-12-8-3-13-4-16-4s-5 1-6 4c0 3-1 10-1 19 1 15 1 26 1 33v14H47v-82c-1-5-8-10-23-14-8-3-13-4-15-4-3 0-5 2-6 6-1 2-1 9 0 19 1 14 1 26 1 37L0 792l51-31h95l11 15c7 9 11 14 12 14 2 0 7-4 15-13l25-24m-52-503v491H47V250h110m717 583c8-7 12-13 12-17 0-7-12-12-35-14V124c0-31-1-50-2-59-4-19-14-35-30-46L794 5c-6-3-11-4-16-4s-7 4-7 11v11c0 10-3 15-9 18l-69 24 5 11 70-10c13 0 23 5 29 15 7 12 11 36 11 72v241H689c0-170-20-298-61-384l-12 9c16 61 27 129 30 204 2 36 3 111 3 223v383l-4 42 62-30h98l11 14c6 7 10 10 12 10s7-3 16-9l30-23m-66-204v191H693V629h115m0-215v194H693V414h115Z"/></symbol><symbol id="𭊬_K" viewBox="0 0 1000 1000" data-size="21"><path transform="matrix(1 0 0 -1 58 950)" d="M356 267c-7 5-12 8-14 8s-6-3-13-9l-11-15H108l-50 29 4-40V14c0-9 2-14 6-14 2 0 5 1 10 3 14 4 23 9 25 14 2 4 3 14 1 31h225c1-13 2-21 2-27 0-7 2-10 6-10 1 0 7 1 17 4 14 4 22 8 23 11s0 22-3 57v130c18 0 27 3 27 10 0 4-3 9-9 15l-36 29m64 494 7-43v-57H119v-21h308v-73H7v-20h869l6 14-48 39c-10 10-17 15-19 15-3 0-8-6-16-17l-28-31H470v73h332l7 15-56 42c-10 9-16 14-18 14s-7-5-15-15l-28-35H470v52c19 7 29 13 29 18 0 6-9 13-26 20l-53 10M884 59c-2 6-8 14-19 22-8 5-11 13-10 24l18 76-14 4-26-78c-5-18-14-31-27-38-10-4-26-6-48-6H597c-26 0-43 4-51 14-6 7-9 23-9 48v25c57 10 103 21 137 33 34 11 69 25 104 42 31 0 46 3 46 8s-7 11-21 20l-37 19c-39-26-75-46-108-60-32-14-73-26-121-36v46c22 11 32 19 32 24s-9 11-29 18l-47 16-1-113-97-24 2-13 95 15 1-38c0-30 6-51 19-62 12-12 43-18 92-18h230c37 6 54 16 50 32m-780 8v162h225V67H104m698 430c-13 12-21 18-24 18-2 0-7-6-14-16l-26-32H632v30c18 7 27 13 27 18 0 6-9 12-28 17l-47 11 5-39v-37H63v-21h526v-52c0-18-2-30-6-36-4-5-12-7-24-7-6 0-14 0-24 1l-103 9 1-14 91-19c12-5 19-13 21-23 3-11 5-16 8-16 4 0 10 2 17 6l31 13c17 7 27 14 29 21 1 4 2 24 2 61v56h209l7 14-46 37M334 325c13 0 20 9 20 27 0 16-11 30-32 42-15 12-42 26-82 42l-9-7c24-16 42-34 55-54 9-12 17-23 25-34 7-11 15-16 23-16m542 476-7-14H625v-43l2-17c0-6-7-11-22-16l-17-5c-5 0-7 5-7 15l1 17v49H462v20h120v59l-3 34 46-10c18-6 26-10 26-15s-8-12-25-20v-48h154l25 24 15 14 17-12 39-32m-435 0-5-14H281v-46l1-18c-1-5-8-9-20-14l-14-2c-5 0-7 2-9 6v74H0v20h239v59l-3 34 45-10c19-5 29-10 29-15s-10-11-29-20v-48h66l24 26c5 5 10 9 15 13 0 0 1 1 3 2l15-12 37-35Z"/></symbol><symbol id="𭊭_S" viewBox="0 0 1000 1000" data-size="21"><path transform="matrix(1 0 0 -1 42 962)" d="m630 0-14 1-12 2-13 4-12 6-10 8-8 10-7 12-5 12-2 13-1 14h62v-7l1-5 1-3 1-2v-2h1l6-3 5-1h231l28 109h10L882 58l16-11 12-18-12-17-16-12H630m195 357-31 22-3 3-26-21V141l-63-32v52h-94V82h-62v79h-94V99l-62-32v327l-28-20-46-27-48-23-5 8 43 31 40 33 37 35 34 36 30 38 28 39 23 42H284v20h224l12 25 18 46 15 50 3 7 57-26 12-15-20-5-11-32-24-50h196l52 53 64-53v-20H627l66-60 51-40 55-37 59-35 33-17 25-14-59-46-32 20m-279-87h-94v-87h94v87m156 0h-94v-87h94v87M0 801l63-32h114l31 26 58-47-27-21V252l-62-31v62H63v-62L0 188v613m546-418h-94v-92h94v92m156 0h-94v-92h94v92M177 748H63V305h114v443m438-162h-55l-16-25-29-44-34-41-36-38-23-19 30-16h94v104l62-11 16-11-16-9v-73h94l30 27-44 45-22 25-20 27-17 29-15 29 1 1m41 338 63-11 16-10-16-9v-83h78l52 52 63-52v-21H719v-87l-63-32v119H506v-87l-63-32v119H250v21h193v113l63-11 15-10-15-9v-83h150v113Z"/></symbol><symbol id="𭊮_S" viewBox="0 0 1000 1000" data-size="21"><path transform="matrix(1 0 0 -1 60 955)" d="M290 0v21h264v159H342v21h212v400H294v21h260v4l22-4h185l52 53 63-53v-21H627l-10-5V201h97l53 53 62-53v-21H617V21h148l52 52 63-52V0H290M0 779l63-32h141l32 26 58-46-26-22V230l-64-31v63H63v-63L0 167v612m475-483-3 12-3 12-5 13-6 13-6 13-8 13-10 16-18-34-17-31-19-28-21-26-23-23-25-19-7 6 17 26 30 54 13 28 12 30 11 31 9 35 7 34 6 37 5 38 2 11 61-21 14-13-18-6-4-21-11-39-12-36-6-16 10-5 15-9 13-10 12-12 12-12 10-12 9-15 9-15 7-15-4-24-17-14-25 3-14 18-2 13m335-12-12 30-14 30-8 12-8 14-19 25-18-40-17-30-20-27-20-25-24-21-24-18-7 7 17 25 30 50 13 29 11 28 10 31 9 33 7 34 6 36 4 33 2 16 61-19 14-12-18-8-4-21-10-38-11-36-6-14 18-8 16-9 14-11 13-12 14-13 24-30 20-34-1-23-17-18-24 1-17 17-4 16M204 727H63V283h141v444m444 182 64-11 16-9-16-10v-90h53l52 53 63-53v-21H712v-94l-64-32v126H522v-94l-63-32v126H290v21h169v120l63-11 16-9-16-10v-90h126v120Z"/></symbol><symbol id="𭊯_S" viewBox="0 0 1000 1000" data-size="21"><path transform="matrix(1 0 0 -1 60 964)" d="m698 47-9 14 9-14M0 808l63-33h102l29 27 55-47-26-19V259l-58-30v61H63v-62L0 195v613m165-53H63V312h102v443m431-18 57-28h137l32 26 58-47-26-21V545l-64-31v42H653v-16l-57-29v226m-319 0 58-28h140l28 26 56-47-27-19V545l-57-29v40H335v-16l-58-29v226m513-49H653V576h137v112m-315 0H335V576h140v112m-93 240 63-32h241l32 26 57-47-26-21v-87l-63-32v32H445l-63-32v193m304-53H445v-88h241v88M663 83l11 8 5 6 5 8 5 11 5 15 5 16 6 20 4 21 4 25 2 12H466l-30-70-71-4 80 184H252v20h203l41 96H315v21h402l43 48 52-48v-21H565l-42-96h260l44 48 52-48v-20H515l-39-90h241l31 26 59-46-27-16-4-2-5-30-4-25-6-22-7-20-7-18-8-17-10-14-10-14-13-11-10-7-10-6-11-5-11-5-12-4-11-3-12-3-12-1-12-2h-12v31L488 47v16h114l16 2 8 1 15 6 7 3 7 4 8 4Z"/></symbol><symbol id="𭊰_S" viewBox="0 0 1000 1000" data-size="21"><path transform="matrix(1 0 0 -1 44 964)" d="m788 93 56-30-7-11-8-11-9-10-9-8-11-7-12-6-12-4-11-3-14-2-13-1v31L633 48v15h105l14 1 6 1 6 3 4 2 4 3 4 4 4 5 4 5 4 6m34 651 4 4h1l27 23 57-48-26-16-20-8-34-41-19-20-11-10-9-12-9 5 6 14 18 53 7 25 3 10H335V408l-3-54-4-50-7-48-8-45-9-41-13-38-15-34-15-32-20-26-21-23-7 5 13 28 10 28 11 30 9 35 8 37 6 39 3 43 3 46 1 48v417l58-29h177v184l62-11 16-10-16-10v-48h121l53 52 63-52v-21H574v-84h248M294 78l40-49-22-7-22 12-7 24 11 20m40-49-17 22-1 1-4 6-2 2-2 3-2 1-1 1-2 3v1l-2 1-5 7-1 1 17 13 7 9 8 11 7 15 7 17 7 18 10 44 2 26h10l3-26 3-24 1-24-1-22-2-21-4-18-6-19-8-17-9-16-13-15m105 57 63-8-13-20-22-7-21 12-7 23m405-23-8 3-2 2-2 1-3 1-5 3-7 4-8 5-3 2-5 2-7 4-6 3 5 9 4 12 4 14 3 18 4 18 2 23 3 23v26l1 29v20H433l-1-4-66-23 31 254 62-19 14-12-16-5-10-74h289l43 47 52-47v-21H444l-8-75h378l33 26 57-47-26-16h-1v-36l-2-27-5-51-4-21-4-21-6-17-5-18-7-15m-279 55-1 13-1 13-1 12-3 12-3 13-9 24-6 14-9 10 6 7 12-9 13-8 10-10 11-12 10-11 9-13 7-14 7-14 11-32-7-23-21-12-23 6-13 21 1 13M439 86l4 12 2 12 2 13 2 13v28l-2 30-2 16-5 16 9 3 9-14 9-14 9-14 6-15 6-16 5-14 4-16 3-16 1-16 1-16-63 8m249 63-3 11-3 11-4 11-4 9-6 11-13 22-8 10-9 9 4 8 12-7 14-5 13-7 11-7 12-9 21-21 8-11 8-12 8-13-2-24-18-16-24 1-16 19-1 10M0 804l63-33h108l28 27 56-47-26-19V255l-58-29v60H63v-62L0 191v613m171-53H63V308h108v443m317-163-142-17-3 21 145 16v105l63-11 15-11-15-8v-68l96 11 47 59 69-46 3-21-215-23v-67l1-4 1-3 1-2 2-1 4-2 4-1 8-2h234l24 90h11l-10-90 16-10 9-16-9-16-17-10H559l-12 2-13 4-12 6-9 7-10 9-7 12-4 12-3 13-1 13v49Z"/></symbol><symbol id="𭊱_S" viewBox="0 0 1000 1000" data-size="21"><path transform="matrix(1 0 0 -1 53 966)" d="m550 438-3-61-4-59-7-53-9-51-11-46-14-43-17-38-17-33-22-30-23-24-7 5 17 28 13 31 14 34 11 38 8 41 8 44 5 49 4 52 2 57-1 59h53m304 273-28-44-20-32-25-32-11-20-9 5 8 20 25 91 7 30 1 3H699V507h62l31 26 58-48-27-15-6-3-13-51-23-67-26-64-28-56-14-22 15-20 30-34 32-28 34-24 65-35-59-46-42 26-39 31-34 37-30 41-3 4-23-29-38-41-41-35-44-29-47-21-5 9 40 29 38 33 34 37 32 41 28 46 1 1-23 50-20 54-15 57-12 63-6 61h-31v-47h-53v341l53-26h87v179l62-11 16-10-16-10V753h105l32 26 58-47-27-15-13-6M244 54l-4 8-1 2-1 2-2 8-2 1v2l-2 4-2 6-4 11-1 3v1l-1 2-2 3 25 9 2 1v348l42-11 11-11-11-7V133l40 16v426h-35v-16l-52-26v341l52-26h115l26 26 52-47-26-16V543l-52-26v58h-27V381h32l24 31 32-31v-22h-88V172l92 40 4-9-21-19-22-19-46-33-47-30-49-28-24-12-5-3-4-21-16 11-2 5m-22 53 24-58-34 55 10 3M0 808l63-33h107l20 27 48-47-26-11V259l-42-22v53H63v-62L0 195v613m758-323H592l16-56 20-59 21-53 24-48 11-17 22 54 22 60 18 66 12 53M170 755H63V312h107v443m467-23h-87V507h87v225m-226 95H296V596h115v231Z"/></symbol><symbol id="𭊲_K" viewBox="0 0 1000 1000" data-size="21"><path transform="matrix(1 0 0 -1 76 930)" d="M557 809c6-7 9-12 9-16 0-7-9-11-27-11V648c0-23 0-34 1-33-1-3-9-6-24-8-8-3-13-4-16-4s-4 1-5 4c-1 2-1 6 0 12 1 8 1 14 1 20H359c0-25 1-36 1-35-1-4-9-7-23-9-7-3-12-4-15-4s-5 1-7 4v14c1 11 1 20 1 25v175l-3 49 51-30h120l12 16c6 7 10 10 11 10s6-3 15-9l35-36m283 0c6-7 9-12 9-16 0-7-9-11-28-11V648c0-23 1-34 1-33-1-3-9-6-23-8-9-3-14-4-17-4-2 0-4 1-5 4v12c1 8 1 14 1 20H642c0-25 0-36 1-35-2-4-9-7-23-9-8-3-13-4-16-4s-5 1-6 4v14c0 11 1 20 1 25v175l-4 49 51-30h121l11 16c6 7 10 10 12 10 1 0 6-3 15-9l35-36m-567 1c7-7 10-12 10-16 0-7-9-11-28-11V649c0-23 0-34 1-32-1-4-9-7-24-9-8-2-14-4-16-4-3 0-4 2-5 4s-1 6 0 12c1 8 1 14 1 20H76c0-25 0-36 1-35-1-4-9-7-24-9-7-3-12-4-15-4s-4 1-6 4v14c1 11 1 20 1 25v175l-4 49 51-30h121l11 16c6 7 9 10 11 10 1 0 6-3 16-9l34-36m223-150v148H359V660h137m282 0v148H642V660h136m-566 1v148H76V661h136M814 75c0-10 1-20 1-30 1-10 1-17 1-20 0-11-7-18-22-22-7-2-12-3-16-3-7 0-10 5-10 16 0 4 0 12 1 23 1 10 2 21 2 30l-3 191H650c1-11 2-17 2-18-1-12-8-21-21-28-8-3-13-4-16-4-5 0-8 5-9 14v290l49-10c15-6 23-11 23-15 0-3-9-10-28-20V280l118 1-2 290 45-7c19-3 29-7 29-13 0-5-9-11-26-18V75M525 558c17-5 26-10 26-15 0-7-12-12-34-17V82c0-8 0-18 1-27 1-11 2-17 2-19 0-11-8-19-23-25-6-2-11-2-15-2-8 0-12 5-12 16 0 3 0 11 1 24s2 24 2 33l-2 178H351c1-11 2-17 3-18-2-12-10-21-22-28-8-3-13-4-16-4-5 0-9 5-9 14v290l49-10c15-6 23-11 23-15 0-3-10-10-28-20V280l120 1-2 287 56-10m-286-37c0-146-11-242-33-287C177 139 111 61 9 0L0 10c75 49 125 108 151 177 8 16 15 40 20 73H64c1-11 2-17 2-18-1-12-8-21-21-28-8-3-13-4-16-4-5 0-8 5-8 14v290l48-10c15-6 23-11 23-15 0-3-9-10-28-20V280l110 1c5 39 9 89 12 149 0 34-2 81-5 141l55-15c20-6 30-12 30-17 0-6-9-12-27-18Z"/></symbol><symbol id="𭊳_G" viewBox="0 0 1000 1000" data-size="21"><path transform="matrix(1 0 0 -1 56 968)" d="m12 856 35-35h117l38 38 45-46c5-4 6-7 5-10s-4-6-11-7l-17-8V399l3-128c-1-21-15-31-44-32v101H59v-96c3-24-13-38-47-43 3 40 5 93 6 158v445c1 11-5 23-18 36l12 16m854 11V84c0-16-4-30-12-42-8-13-30-23-67-29 0 27-22 43-66 48-9 1-16 3-21 4l2 14c49-7 79-11 92-11 12 0 21 2 26 6s8 35 7 94v466H667v-5c1-25-12-41-41-46v4c3 39 5 74 6 105v195c1 9-5 20-18 32l12 16 36-41h157l21 31 39-31c6-4 9-7 9-10s-3-6-9-8l-13-9m-563 54 33-28h150l20 25 38-34c4-3 6-5 5-7s-5-4-11-5l-8-9V677l3-51c-1-23-14-36-38-37v43H347V139l5-95c1-25-16-39-51-44 3 25 6 86 7 184v695c-5 11-12 22-20 31l15 11M59 801V360h124v441H59m468-423V248c0-35 4-56 11-61 8-7 23-11 45-13 47 0 75 2 84 5s14 15 16 34c0 6 0 16 1 31 2 33 3 60 4 82h14l3-67c0-28 10-47 29-57-7-20-15-33-23-39-5-3-12-7-22-10-4-1-7-2-9-3-13-3-50-4-110-4-53 0-79 27-79 81v158c-2 14-11 28-28 41l8 10 87-35c2-1 3-3 3-4 0-2-1-3-4-4-11-3-21-8-30-15m300 381H667V650h160v109m-160 14h160v105H667V773m-172-16H347V648h148v109m-148 14h148v106H347V771m338-342 7 12c42-26 70-49 83-69 17-23 28-47 32-72 4-23 0-37-12-42-13-4-20 6-22 29-4 24-13 48-26 71-10 19-31 43-62 71M507 549l6 11c44-17 75-34 93-51 15-15 24-33 27-53 3-17-1-28-11-32s-17 3-21 21c-5 18-13 34-25 49-8 14-31 32-69 55m-81-185h11c5-37 4-69-2-97-5-25-15-44-32-57-15-10-26-10-32-1-7 9-4 20 11 32 14 12 24 27 29 44 6 27 11 53 15 79Z"/></symbol><symbol id="𭊳_S" viewBox="0 0 1000 1000" data-size="21"><path transform="matrix(1 0 0 -1 49 946)" d="m264 889 57-30h150l31 27 58-47-26-22V581l-63-31v31H321V29L264 0v889m193-463 64-11 15-10-15-9V124l1-3 1-2 1-1 3-1 3-2h5l6-1h109l32 132h9l-9-132 18-12 13-19-11-17h90l6 1 5 1 3 1 2 1 1 1 1 1 1 1 1 4v5l1 6h63l-1-13-3-13-4-13-6-12-9-11-10-8-12-7-14-4-12-2-13-1v31L687 51v5l-5-4H527l-12 3-13 4-12 6-11 8-8 12-6 12-5 11-2 14-1 14v290m146 466 62-33h148l31 27 57-47-25-22V88h-63v493H665v-36l-62-32v379M352 170l51-36-20-13-24 5-12 20 5 24m0 0 47-34 4-2 9 17 7 20 5 21 4 25 3 24 1 28-1 30-2 31-4 34-6 36h-10l-4-36-4-33-5-30-4-28-5-25-6-21-7-19-7-17-8-12-7-9m375 33-6 44-3 22-5 20-4 21-6 20-13 39-7 20 7 5 29-33 12-18 12-20 20-41 8-22 7-23 7-24 5-25-7-23-20-12-24 7-11 21-1 22M0 804l63-33h101l28 27 56-47-26-19V255l-58-29v60H63v-62L0 191v613m164-53H63V308h101v443m415-405-7 34-4 16-9 29-10 27-13 27-8 10 6 7 25-17 12-10 12-12 11-12 20-29 9-17 17-35-3-23-19-16-23 3-16 18m234 367H665V603h148v110m-342 0H321V603h150v110m342 126H665V733h148v106m-342 0H321V733h150v106Z"/></symbol><symbol id="𭊴_S" viewBox="0 0 1000 1000" data-size="21"><path transform="matrix(1 0 0 -1 37 957)" d="m845 313 3-8 46-40 1-17-21 9-27-8-65-16-68-14-25-4-19-2V89h-63v299H430l17-7 13-13-19-7-3-12-12-32-10-20h103l31 26 57-48-26-15-7-3-8-25-17-44-24-39-27-35-31-31-36-26-39-22-43-16-47-12-51-7-2 10 47 15 42 20 37 20 33 24 29 26 15 20-14-3-21 13-2 6-3 7-4 8-12 17-16 17-11 9-7 7-23-25-23-18-25-15-26-12-6 7 20 21 34 41 15 21 14 24 12 24 10 26 9 27 7 27 5 24H258v21h557l43 47 53-47v-21H670l17-11-17-9V233l56 27 119 53M691 5l-13 1-13 3-13 4-11 6-11 8-9 11-7 13-4 12-3 13v13h63l1-6v-5l2-3 1-2 1-1v-1l2-1 4-1 4-1h180l31 131h10L896 67l18-11 13-19-13-19-18-13H691M515 275H405l-9-14-16-26-7-7 6-1 14-4 12-4 25-11 21-13 9-7 10-8 3-16 7 13 17 35 13 38 5 25M0 793l63-32h113l31 26 58-47-27-21V244l-62-31v62H63v-62L0 181v612m176-53H63V297h113v443m383 173 46-43 5-17-23 3-11-7-20-15-23-13-11-6h233l31 27 58-48-27-21V472l-62-32v32H414l-62-32v407l62-32h85l2 3 40 64 14 24 4 7m196-329H414v-91h341v91m0 104H414v-84h341v84m0 106H414v-85h341v85Z"/></symbol><symbol id="𭊵_S" viewBox="0 0 1000 1000" data-size="21"><path transform="matrix(1 0 0 -1 40 959)" d="m563 360 63-10 16-10-16-10V84l-1-13-2-12-5-13-6-13-8-10-11-9-12-6-13-4-12-2-14-2v32L437 48v15h111l5 1 3 1 2 1 1 1 1 1 1 2 1 3 1 5v282m-121-86 56-30 11-15-21-3-11-20-14-19-15-19-34-35-41-33-47-32-6 7 50 64 15 19 24 38 10 19 9 17 7 18 3 13 4 11m342-154-16 31-20 31-11 15-39 45-14 15 5 8 39-20 35-22 15-13 30-28 13-15 26-31 2-25-15-18-24-3-19 14-7 16M0 814l63-32h125l31 27 57-47-26-22V266l-62-32v63H63v-63L0 202v612m825-540-65 38-31 21-29 22-27 24-26 25-23 28-21 28-1 1-33-33-29-29-31-26-32-25-35-24-35-22-37-21-39-19-41-17-4 9 68 51 64 50 30 27 55 56 48 56 21 31 3 3 48-42 7-17-4 1 47-37 27-20 58-35 61-30 33-14 68-26-61-51-34 17M188 762H63V318h125v444m608 156 63-11 16-11-16-9V496l-1-14-2-12-4-13-6-12-9-10-11-9-12-7-12-4-13-3h-14v31l-73 16v16h80l5 2 3 1 2 1h1l1 2 1 3 1 5v429m-312-78v-88h11l53 53 63-53v-22H484v-50l14-1 29-4 13-3 14-4 23-8 12-6 10-6 10-21-7-23-23-10-22 8-4 6-6 7-14 14-18 16-23 15-8 5V447l-63-31v220l-25-34-19-23-21-21-22-20-24-17-27-16-6 7 54 68 15 24 14 23 13 23 11 25 10 24 8 26 1 5H281v22h140v79l-19-2-35-2-37-3-40-1-1 10 73 21 94 26 26 9 45 14 19 8 16 7 2-9 47-40 1-16-21 8-8-3-41-8-58-10m164 36 63-11 17-11-17-9V543l-63-31v364Z"/></symbol><symbol id="𭊶_S" viewBox="0 0 1000 1000" data-size="21"><path transform="matrix(1 0 0 -1 55 964)" d="m681 245-2 13-2 12-6 23-7 23-9 23-1 2-33-45-22-25-23-20-25-20-7 7 49 77 14 28 29 59 26 66 13 40-34-44-34-35-35-31-37-25-6 8 30 32 28 35 26 36 26 40 23 43 20 42-18 2-15 19-1 11-2 21-5 21-3 9-9 21-1 1-22-34-17-26-21-23-21-21-9 6 26 53 25 56 11 29 19 60 16 66 7 34 3 10 58-24 14-13-20-7-14-47h70l31 26 58-46-27-16-7-3-12-40-21-57-22-54-24-50-28-47-3-5 46-21 12-15-20-4-7-19-13-32h84l31 27 59-48-27-16-8-3-15-49-26-65-27-59-30-53-33-47-36-41-40-34-41-29-44-20-45-13-3 9 40 21 37 27 34 30 32 35 30 41 27 46v1l-19 3-14 19-1 13m-326 19-1 11-2 12-6 23-10 22-5 11-11-16-20-26-22-24-22-21-26-19-6 7 33 50 29 55 15 28 25 62 12 34 10 32-30-36-34-35-36-30-39-26-6 8 31 33 30 34 27 37 26 40 24 43 19 41-14 1-17 19-2 11-2 10-2 11-7 21-8 20-4 11-1 1-20-33-17-26-19-23-20-22-8 6 23 53 11 27 20 57 10 30 8 30 15 67 6 33 1 11 60-23 14-13-20-7-13-47h79l31 26 57-48-26-15-8-3-11-39-22-58-22-54-25-50-27-47-4-6 43-20 12-14-19-5-20-51h78l31 26 58-46-27-16-8-4-14-49-24-64-27-59-28-54-34-46-34-41-38-36-40-28-43-20-45-13-3 9 39 22 37 27 33 29 30 35 28 41 27 45 1 3-20 4-13 19-1 25m-152-44-62-32v63H63v-63L0 156v622l63-31h78l31 26 57-47-26-21V220m593 209h-91l-25-49-19-29v-1l3-2 12-8 11-9 9-9 18-21 8-13 14-26 2-4 24 58 20 63 14 50m-331 6h-83l-24-49-18-31-1-1 1-1 12-7 10-9 11-9 10-12 16-23 7-13 6-13 22 54 19 64 12 50M141 726H63V272h78v454m608 87h-74l-20-47-15-31-3-6 7-3 10-7 9-8 10-9 16-19 8-12 6-11 20 56 15 55 11 42m-320 4h-82l-19-46-14-30-2-6 6-4 10-6 11-9 9-8 18-20 15-22 1-1 19 56 17 55 11 41Z"/></symbol><symbol id="𭊷_S" viewBox="0 0 1000 1000" data-size="21"><path transform="matrix(1 0 0 -1 46 954)" d="m448 81-4 10-2 7-10 29-2 4 35 11v325l47-11 11-10-11-8V157l20 8v375h-81v22h81v188h-14l-15-52-19-52-9-22-12-21-9 1 1 25 3 24 3 27 1 11-11-3-24-58-35-74-20-36 20-3 14-11-14-10V29L334 0v455l-25-39-25-32-25-31-8 5 65 144 45 111 39 122 58-27 5-7 2 6 11 89 3 32 7 68 1 11 62-19 14-13-19-8-2-14-19-82h59l44 47 52-47v-21h-93V562h19l32 36 42-36v-22h-93V378h15l33 36 42-36v-22h-90V185l99 35 4-9-28-21-54-34-94-54-39-20-5-21-16 11-4 9m240 759 63-32h67l32 26 57-47-26-21V241h-63v546h-67V42l-63-32v830M430 131l22-59-32 55 10 4m451 110-1-13-2-13-4-13-7-12-9-10-9-9-13-7-13-4-12-2-14-1v31l-42 16v16h42l7 1 5 1 4 2 2 2 1 1v3l1 4 1 7h63M0 805l63-33h110l31 27 58-47-27-22V256l-62-31v62H63v-62L0 192v613m173-53H63V309h110v443m218 151 53-33 10-16-20-2-31-50-49-67-36-42-42-41-7 6 88 170 21 46 10 23 3 6Z"/></symbol><symbol id="𭊸_G" viewBox="0 0 1000 1000" data-size="21"><path transform="matrix(1 0 0 -1 34 965)" d="m250 915 44-41h116l24 30 35-30c6-3 9-7 9-10s-3-5-9-8l-14-15V90c0-15-3-28-10-38-6-10-27-18-63-25-3 21-29 38-77 51-5 1-8 2-10 3l2 11c50-11 81-16 92-16s19 2 24 5c5 4 8 28 7 71v267H296c-1-5-1-12-2-21s-2-15-2-19C277 230 212 104 97 2l-6 8c97 117 152 236 164 356 9 68 12 148 11 241v259c-2 13-10 27-25 40l9 9m275-480 39-38h222l34 34 45-42c5-4 6-7 5-10s-4-6-11-7l-17-9V128l4-81c-1-19-14-29-41-30v56H574V43c3-24-12-38-44-43 3 25 6 63 7 115v270c-1 12-8 26-21 42l9 8M14 833l32-34h106l38 35 41-44c5-4 6-7 5-10s-4-5-11-6l-18-9V454l6-132c1-20-14-30-43-30v59H54v-56c3-24-12-38-44-43 4 33 6 85 7 156v377c-2 15-8 27-17 37l14 11m721 96 70-33c9-3 11-7 6-11-11-3-20-9-27-18V738h36l27 35 55-45c5-3 7-6 6-8-1-1-5-2-12-2H784V535h55l27 38 59-48c5-3 8-6 7-8-1-1-6-2-13-2H547c-17 1-32-4-44-13l-33 33h125v183h-30c-17 1-32-4-44-13l-33 33h107v139c1 11-7 25-24 41l8 11 70-33c6-1 9-3 10-5s0-4-4-6c-11-3-20-9-27-18V738h123v139c1 11-7 25-24 41l8 11M54 371h116v408H54V371m520-142V93h231v136H574m0 148V245h231v132H574M301 624c1-65 0-128-4-187h123v203H301v-16m0 230V658h119v196H301m327-136V535h123v183H628Z"/></symbol><symbol id="𭊹_S" viewBox="0 0 1000 1000" data-size="21"><path transform="matrix(1 0 0 -1 24 942)" d="m286 6-20 26-11 14-3 4-5 6 110 72 6 4v264H254v20h109l32 26 57-46-26-22V153h-1l31-31 23-18 28-13 35-11 44-9 55-5 68-1 84 2 101 6 3-69-102-3-87 2-72 6-61 10-49 14-38 19-31 22-23 28-18 29-5 15-3-1-30-40-53-59-23-24 2-22-18 6m610 27-1 13v6l-1 9v12l58 3-55-72v2l-1 3v24M247 56l39-50-48 44 9 6m479 440-4-50-3-19h74v102h-67v-33M477 820l62-32h126v97l63-11 15-11-15-9v-66h71l53 53 62-53v-20H539V526l-2-47-4-46-5-45-6-42-7-40-9-37-11-36-13-34-13-30-17-28-9 4 13 63 6 33 5 35 4 37 3 39 2 41 2 43v44l-1 46v294M0 780l63-32h107l31 26 58-46-27-22V231l-62-31v63H63v-63L0 168v612m170-52H63V284h107v444m179-175-16 26-8 13-28 36-21 24-11 10 4 8 15-7 16-6 15-7 15-7 14-10 27-22 13-11 12-13 12-15 4-23-14-20-23-4-20 13-6 15m444 91h-67v-93h67v93m-402 81-12 27-7 13-16 25-7 13-31 37-11 11 5 7 15-7 16-6 14-9 15-9 26-20 25-25 22-27 2-24-14-19-24-2-18 15m276-274v78H542v22h125v93H560v21h107v79l59-11 14-10-14-10v-48h67l29 26 55-47-25-18v-75h9l25 31 31-31v-22h-65V374l-59-28v59h-71l18-37 17-29 17-27 18-26 20-21 20-20 22-17 22-15 48-27-59-46-27 19-25 22-23 24-20 25-19 29-16 31-12 32-11 34-4 17-5-18-15-41-20-38-23-35-28-32-30-28-35-25-39-21-4 8 31 27 28 29 26 30 20 32 18 34 14 36 10 37 7 37H556v22h109l2 24Z"/></symbol><symbol id="𭊺_S" viewBox="0 0 1000 1000" data-size="21"><path transform="matrix(1 0 0 -1 37 966)" d="m252 837 53-26h228v121l63-11 16-10-16-10v-90h209l43 47 52-47v-21H305V459l-3-61-5-57-6-55-10-52-10-47-14-45-16-41-18-38-21-33-23-30-6 5 15 33 14 35 12 37 11 41 8 43 8 47 6 50 3 53 2 56v437m393-56 58-10 14-10-14-9v-57h66l28 27 56-48-27-19v-75h13l23 31 32-31v-21h-68V424l-57-29v49h-66V337h58l43 47 52-47v-21H703v-94h65l52 52 64-52v-21H703v-90l-49-24 40-5 80-2 93 6 5-69-98-2-86 6-75 13-64 23-56 31-46 41-12 17-31-50-29-35-33-30-36-25-6 7 27 32 26 34 22 36 20 38 12 33-25 49-22 66-16 74 10 2 26-69 30-60 12-19 4 12 11 49 8 52 6 55 1 47h-55l-3-9-71-9 97 271H306v21h120l31 26 58-47-27-15-12-6-72-210h49l31 26 58-48-26-15-2-1-4-36-9-59-13-56-15-50-18-42 24-26 41-30 48-23 58-15 19-3v113H491v21h154v94H516v21h129v107H543v22h102v93H475v21h170v94H543v21h102v86M871 38l-1 7-1 12v6l-1 10v7l-1 2v4l59 3-54-72v4l-1 9v8M0 808l63-33h100l26 27 53-47-26-16V259l-53-27v58H63v-62L0 195v613m163-53H63V312h100v443m606-196h-66v-93h66v93m0 115h-66v-94h66v94Z"/></symbol><symbol id="𭊻_G" viewBox="0 0 1000 1000" data-size="21"><path transform="matrix(1 0 0 -1 28 974)" d="m614 764 71-33c9-3 11-7 6-11-11-2-19-7-25-17v-53h61l30 30 57-41c5-3 7-5 6-7s-5-2-12-2H666v-88h53l30 31 57-37c5-4 8-6 7-8s-6-2-13-2H666v-95h129l30 38 65-48c5-4 8-6 7-8s-5-2-12-2H657c19-26 39-48 60-67 35-32 71-58 108-76 23-10 43-17 62-23 25-6 43-10 55-10l2-16c-1 0-4 0-7-1-35 0-54-10-56-29-52 26-87 45-105 58-27 20-52 42-76 65-25 26-47 59-68 99H485c-24-46-59-91-105-136-49-49-112-87-189-114l-4 16c60 32 111 68 153 108 40 38 72 80 97 126H334c-17 1-32-3-43-13l-33 33h187v95h-47c-17 1-31-3-43-13l-31 29h121v88h-62c-17 1-32-3-43-13l-32 33h137v65c1 12-7 25-24 41l8 10 72-33c8-3 10-7 5-11-9-2-18-8-25-17v-55h148v63c1 10-7 24-23 41l8 10M14 804l29-29h120l37 36 43-44c4-4 5-7 4-10s-4-5-10-7l-18-8V376l6-96c0-20-14-31-43-31v88H54v-89c3-24-12-38-44-43 4 32 6 64 7 96v455c-2 15-8 27-17 37l14 11m40-447h128v398H54V357m847 427c1-3 1-5-1-7-1-1-4-1-9 0-13 12-43-16-92-84l-13 8 40 86H327v-10c-1-33-9-61-26-83-20-22-35-25-46-8-4 10-2 20 7 29 8 8 17 21 27 39 8 16 16 48 24 95h16c-1-4-1-11-1-21-1-9-1-16-1-21h488l30 34 56-57M629 526H481v-95h148v95m0 104H481v-88h148v88M469 938l4 13c55-21 90-43 103-65 20-34 17-55-10-64-11 0-18 8-20 22-2 16-8 30-18 42-11 15-30 32-59 52m-85-764 4 17c70-16 128-33 174-51 54-20 92-40 114-58 21-18 31-36 29-52-2-14-8-23-19-27-11-3-26 8-43 32s-50 49-98 73c-53 27-107 49-161 66m87 141 4 17c95-20 152-44 170-73 19-32 15-51-12-59-10 1-19 9-28 25-7 17-21 32-41 46-18 15-49 30-93 44Z"/></symbol><symbol id="𭊼_K" viewBox="0 0 1000 1000" data-size="21"><path transform="matrix(1 0 0 -1 50 943)" d="m882 820-7-14H635v-77h138l19 17c8 7 13 10 14 10s6-4 14-12l26-27c9-9 13-15 13-20 0-3-3-6-9-9-11-6-17-9-20-11V499c0-7 0-15 1-23s1-13 1-14c0-7-7-14-22-22-7-3-12-5-16-5-5 0-7 4-7 12v28H354c0-3 1-6 1-10 1-3 1-6 1-7 0-5-8-12-25-20-7-4-12-6-14-6-4 0-5 5-5 14v51l1 261 45-29h108v77H255v20h515l29 31c8 10 14 15 15 15 4 0 11-5 23-15l45-37M312 330c11-12 16-20 16-26 0-7-8-11-25-12V94c0-35 0-51 2-48-2-6-10-10-24-12-8-2-13-4-15-4-3 0-5 2-6 5s-1 8-1 17c0 15 1 27 1 34v13H95V17c-1-5-9-9-24-13-8-3-12-4-14-4-4 0-6 2-6 6-1 2-1 8 0 19 0 14 1 26 1 38l-5 306 52-31h148l13 16c8 9 12 13 12 13 2 0 6-4 14-13l26-24M899 59c-1-17-16-27-45-32-9-1-30-2-62-2H649c-40 0-67 10-81 31-10 17-15 45-15 85v53l-229-32-2 19 231 33v119c-31-5-92-14-183-26l-1 16c90 15 167 31 233 51 65 20 118 42 159 67l29-29c22-22 25-33 8-33-8 0-19 2-34 7-77-24-133-39-167-45V221l180 24 23 39c8 12 13 18 13 18 4 0 12-4 22-13l47-38-5-12-280-38v-57c0-25 3-44 9-56 8-16 24-25 48-25h128c19 0 33 4 41 10 9 7 17 19 22 38l30 99 11-6-18-102c-2-15 2-23 13-26s17-9 18-17M787 496v86c-6-12-25-19-56-19h-79c-28 0-45 7-52 20-6 10-9 34-9 70v56h-82c-3-75-54-135-155-181v-32h433M260 120v198H95V120h165m16 651L152 577c-17-23-26-44-26-64 0-7 2-18 7-32 5-13 7-26 6-41-2-30-13-44-34-44-16 0-25 13-26 39-1 9 2 20 7 35s8 27 8 37c0 26-13 42-37 49L0 571l4 11 49-2c18-1 32 1 43 4 10 4 23 13 38 26l132 168 10-7m511-62H635v-45c0-29 1-45 4-50 3-6 16-9 39-9 19 0 32 2 40 6s15 13 20 26l12 41 14-2-2-39c0-16 4-26 9-30 10-7 15-11 16-12v114m-433 0V544c77 48 114 103 112 165H354m237 20v77h-82v-77h82m-367 73c0-19-5-29-14-29-7 0-13 7-21 21-20 35-52 63-95 84l5 9c83-25 125-53 125-85m-86-102c1-13-3-20-12-20-5 0-11 5-17 15-24 34-56 61-95 81l4 7c50-14 82-26 97-37 15-10 23-26 23-46Z"/></symbol><symbol id="𭊽_S" viewBox="0 0 1000 1000" data-size="21"><path transform="matrix(1 0 0 -1 32 956)" d="m840 391-35 30-32 34-28 37-17 27-41-48-41-38-42-37-19-13 59-29h152l31 26 58-48-27-20V63l-62-32v63H644V31L580 0v380l-20-15-47-26-6 8 41 34 38 37 36 38 34 41 32 43 15 23-7 12-19 46-17 49-13 52-1 7-16-42-16-35-16-32-18-30-19-27-21-25-8 5 24 60 21 64 11 34 18 73 8 39 8 41 7 42 2 9 59-21 14-14-18-7-5-22-12-42-1-5h140l31 26 57-48-26-15-10-4-15-38-27-56-29-52-30-46 28-36 29-30 31-27 32-25 57-34-58-46-38 28m-589 52-5 19 28 5 79 137h-23l-17 17-8 25-11 26-7 13-15 24-16 24-12 10 6 8 14-7 14-7 14-8 12-7 22 81 11 37 10 34 6 23-2 1 4 13 57-29 12-15-22-5-42-74-48-73 17-16 22-25 10-14 9-14v-7l45 89 30 70 11 29 5 11 56-31 10-16-19-2-27-52-42-70-47-73-56-75-30-38-10-11 45 8 91 20 27 6-6 21-6 20-13 38-8 19 8 5 28-31 13-17 11-18 11-20 10-18 9-21 6-20 7-22 5-21-6-23-21-12-24 6-11 20-1 20-2 19-3 20-4 18-1-1-20-12-21-12-9-5V31L348 0v430l-68-24-8-18-12 12-2 7v3l-2 8v1l-1 3v1l-4 18v2m92-113-18-10-4-32-4-27-4-28-13-56-8-29-21-57-13-29-9 2 2 32 7 59 5 57 2 27 1 52-1 25-1 25v13l63-13 16-11m453 2H644V115h152v217M459 198l1 20-1 19-1 18-7 36-5 18-11 35-9 16 8 6 27-28 13-16 11-17 9-19 8-19 7-21 6-21 4-23 2-24-9-22-23-10-21 10-10 22 1 20M0 805l63-33h96l31 27 58-47-26-22V256l-63-31v62H63v-62L0 192v613m159-53H63V309h96v443m87-290 14-62-24 60 10 2m556 310H661l-4-12-1-2 33-77 22-44 18-30 14 26 25 52 21 52 13 35Z"/></symbol></svg>