<svg xmlns="http://www.w3.org/2000/svg"><symbol id="𭓭_K" viewBox="0 0 1000 1000" data-size="21"><path transform="matrix(1 0 0 -1 61 930)" d="M780 468H553v119c19 3 28 8 28 16 0 6-8 13-23 19l-47 16V468H226v-21h269c-71-140-168-247-290-321l8-10c131 65 231 154 298 267V83c0-51-1-74-1-66 0-11 4-17 11-17 2 0 6 0 11 1 14 3 21 9 22 20-1-9-1 15-1 71v341c32-67 69-123 112-170 44-47 83-84 117-114 16-11 27-16 32-16 4 0 7 2 8 8 2 5 4 9 4 9 1 1 5 3 12 5 8 3 20 4 37 3l4 8c-51 18-107 52-168 103-61 50-109 109-146 178h300l5 12-40 38c-9 10-18 10-27 0l-23-29M242 627l-40 20C151 483 83 350 0 246l8-6c37 30 78 77 123 140V62c0-8 0-19-1-34-1-9-1-15 0-17 1-4 2-6 6-6 3 0 10 2 19 6 14 2 21 7 21 14 0 2-1 8-2 17s-1 18-1 26v358c12 3 18 8 18 13 0 6-6 12-18 16 2 5 23 49 60 134 23-1 35 3 35 14 0 7-9 15-26 24m617 91c11-13 17-22 17-27 0-3-12-8-36-13l-72-99-11 7 41 111H97c-5-48-18-87-40-116-10-12-20-18-31-18-13 0-20 8-20 25 0 10 2 20 8 31l41 59c13 17 21 49 21 93h17c2-42 4-60 4-53h325v101l-5 41 55-10c14-4 21-10 21-17 0-8-10-16-29-21v-94h328l18 23c4 7 8 10 10 10 3 0 10-5 23-15l16-18Z"/></symbol><symbol id="𭓮_K" viewBox="0 0 1000 1000" data-size="21"><path transform="matrix(1 0 0 -1 48 925)" d="m873 374-7-15H522c-57-44-119-86-186-127v-86c58 10 127 30 207 61 75 29 138 58 190 88l25-28c20-22 22-33 7-33-1 0-13 2-37 6-39-19-99-39-181-62s-152-38-211-45V72c0-15 4-25 12-31 7-6 27-9 57-9h318c31 0 51 19 60 57l23 97 15-2-15-96c-3-17 2-30 14-38 13-8 19-15 18-23-2-14-17-23-44-26-9-1-39-1-90-1H377c-37 0-61 5-72 16-9 9-13 26-13 51v139c-76-50-167-94-273-132l-6 11c114 50 207 101 279 151l-4 30 35-10c46 25 94 60 145 103H0v21h380v134H95v20h285v68l-3 41 41-10c22-6 33-12 33-18 0-4-9-12-28-24v-57h104l29 37c6 7 11 10 13 10s5-3 11-8l48-48-6-11H423V380h64c37 26 79 64 127 115 41 43 74 81 100 114l30-25c14-11 22-20 22-25 0-6-14-8-41-6-56-67-116-125-182-173h222l26 45c7 9 11 13 14 13 2 0 7-4 15-12l53-52m13 353c12-11 18-19 18-26 0-8-14-14-44-17l-69-100-14 10 33 115H93c-5-74-16-122-33-145-13-16-25-24-36-24-13 0-20 11-20 32 0 7 1 14 3 23 5 12 14 25 28 40 14 14 24 27 28 39 8 20 12 49 11 87l16 3c1-7 2-19 3-34h332v77l-5 44 52-12c17-3 26-9 26-16 0-8-10-16-30-23v-70h327l17 22c9 12 14 18 17 18 2 0 10-6 24-18l33-25Z"/></symbol><symbol id="𭓯_J" viewBox="0 0 1000 1000" data-size="21"><path transform="matrix(1 0 0 -1 64 951)" d="M197 55V0h-58v322c20-7 43-17 68-30h193v138H12L1 455h399v146c-91-13-192-23-304-30l-10 25c125 14 229 30 311 49 73 17 145 40 217 68 47-29 70-50 70-63 0-6-6-9-18-9-7 0-19 2-36 5-53-13-110-25-171-36V455h279l54 72c28-24 54-49 77-76l-13-21H459V292h196l40 45c43-31 64-52 64-63 0-5-2-9-8-12l-27-18V0h-59v55H197m0 25h468v187H197V80m-86 691h289v131c67 0 100-7 100-22 0-8-14-18-43-28v-81h299l39 49c51-45 76-75 76-88 0-6-6-10-17-12l-33-7c-24-29-53-57-85-83l-20 16c19 31 34 65 45 101H112c2-59-8-106-31-140-13-19-27-28-41-28-11 0-21 4-29 13-7 7-11 15-11 24s8 22 23 40c34 37 53 88 57 155l26-3 5-37Z"/></symbol><symbol id="𭓰_K" viewBox="0 0 1000 1000" data-size="21"><path transform="matrix(1 0 0 -1 68 943)" d="m84 783 4-25c1-6 0-11-1-15h307v97l-5 46 62-15c26-6 35-12 28-19-6-4-19-8-38-12v-97h320l33 31 46-32c23-16 30-26 21-31-5-3-18-4-40-4h-7l-52-58c-18-19-31-32-40-40l-10 6 20 37 39 69H91c-3-25-9-50-16-76-9-34-20-60-34-76-10-13-19-18-26-16-8 4-13 16-15 36 0 8 2 17 7 28 2 6 8 17 17 31 15 26 26 46 34 63 10 28 15 56 14 86l10 2 2-16m580-309 40-31c17-13 24-22 22-28-2-5-14-9-36-11V108c0-32-6-57-19-72-12-15-32-23-60-27-4 17-12 29-22 36-10 13-30 27-62 44l1 11c52-15 84-22 96-20 14 2 22 12 22 29v79H505V71l2-14c2-8 2-14 0-17-3-5-10-9-22-14-13-4-22-5-25-3-2 2-2 7-1 16l2 14v135H313V33c2-8 2-13 0-16-2-4-9-9-21-13-14-4-22-4-25-1-2 2-3 8-2 18l1 11 1 428 42-21h323l32 35m-134-62c4-3 4-6-1-9-4-3-12-5-24-8v-75h141v92H530m-217-92h148v94H313v-94m333-21H505v-91h141v91m-185-90v89H313v-89h148M256 519c-16-131-36-228-59-292C160 126 122 67 86 49l-8 9c35 35 60 85 75 151 11 45 21 87 29 128s18 101 29 182h-62l-62-3-14 33 61-3h79c8 55 13 100 16 135l52-15c20-6 31-11 32-16-1-6-14-10-39-14-3-27-8-57-14-90h404l47 48 63-45c9-7 11-15 8-24-3-4-10-6-20-6H256Z"/></symbol><symbol id="𭓱_J" viewBox="0 0 1000 1000" data-size="21"><path transform="matrix(1 0 0 -1 57 945)" d="M405 272H200v-54h-57v376c30-11 53-21 69-28h193v126c68-3 103-12 103-26 0-9-15-18-45-27v-73h204l35 41c39-31 59-51 59-58 0-5-3-9-9-13l-22-14V234h-56v38H463V112c82 4 162 9 241 15-34 30-72 56-115 80l13 21c167-61 250-123 250-186 0-27-12-41-35-41-14 0-25 10-34 30-11 23-29 47-54 72-199-27-408-48-626-62C96 14 88 0 80 0 64 0 50 33 37 99c123 1 246 4 368 10v163m0 25v112H200V297h205m0 137v107H200V434h205m269-137v112H463V297h211m0 137v107H463V434h211M109 746h296v144c67 0 100-8 100-23 0-8-14-18-41-29v-92h309l37 48c51-47 76-77 76-91 0-5-4-9-12-10l-37-6c-23-22-46-42-70-59l-19 14c11 22 22 48 31 79H111c2-59-8-106-30-141-12-18-25-28-40-28-11 0-20 4-29 12-8 8-12 16-12 25 0 10 4 19 13 28 37 41 59 96 65 167l25-5 6-33Z"/></symbol><symbol id="𭓲_S" viewBox="0 0 1000 1000" data-size="21"><path transform="matrix(1 0 0 -1 48 966)" d="m530 766 4 5h2l26 21 57-48-25-15-21-9-7-8-25-25-28-26-15-12-16-11-33-23-7 7 13 16 31 47 28 44 7 15H276l-13-18-22-26-49-51-15-14 44-22h467l32 27 57-48-26-21V99h-63v183H221v-26l-1-1-5-35-8-33-11-32-13-30-17-27-19-25-22-22-24-20-28-17L44 0l-5 9 23 21 20 22 18 22 14 23 14 24 10 25 8 26 6 27 4 29 1 30v361l-22-19-69-47-37-23-6 8 88 88 26 27 45 54 18 25 17 26 13 24 15 31 53-35 7-12h225M751 99l-1-13-2-14-5-12-7-12-7-11-11-9-12-7-13-3-13-2-13-1v31L562 62v15h105l6 1 5 1 5 2 2 2 2 5 1 5v6h63M420 439H221V304h199v135m268 0H483V304h205v135M420 592H221V461h199v131m268 0H483V461h205v131M17 760l25-58H18L0 719l1 23 16 18m25-58-16 35v1l-3 6v1l-3 7v1l-2 5-1 2 10 3 10 4 9 4 8 7 8 8 6 12 7 12 6 15 6 18 1 18 10 1 2-20 1-8h319v98l63-11 16-10-16-10v-67h331l5 4 3 7 3-2 22 17 57-47-26-15-39-17-21-13-42-23-15-8-16-10-6 6 13 14 48 61 4 5H103v-8l-1-19-5-17-6-16-9-15-11-14-13-12-16-10Z"/></symbol><symbol id="𭓳_J" viewBox="0 0 1000 1000" data-size="21"><path transform="matrix(1 0 0 -1 58 946)" d="M757 636c15-15 26-27 33-35l-9-18H115l-10 25h296v103c66-4 99-13 99-26 0-8-14-17-42-26v-51h215l49 59c8-7 14-11 16-14 14 23 27 50 38 82H111c0-41-7-77-21-108-15-32-32-48-52-48-9 0-18 4-27 13-7 7-11 15-11 23 0 9 7 21 21 36 34 35 53 86 58 155l24-2c4-18 6-33 7-44h291v131c66-2 99-9 99-22 0-7-14-17-42-28v-81h313l37 48c51-46 76-76 76-90 0-6-4-10-13-10l-36-6c-26-26-52-48-78-66M497 422c32 52 57 104 75 155 59-19 88-36 88-50 0-8-14-12-44-13-24-30-52-61-84-92h210l54 62c26-22 49-45 70-69l-11-18H10L0 422h497m-26-144V77c0-51-37-77-112-77-1 21-14 36-39 45-19 7-57 15-114 24v28c62-6 119-9 170-9 22 0 33 11 33 34v156H45l-9 25h671l54 64c26-22 50-46 71-70l-12-19H471M305 424c-18 0-28 9-31 28-5 39-28 75-69 108l14 16c81-34 122-72 122-113 0-26-12-39-36-39Z"/></symbol><symbol id="𭓴_S" viewBox="0 0 1000 1000" data-size="21"><path transform="matrix(1 0 0 -1 43 978)" d="m801 686 62-11 16-11-16-9V70l-3-12-4-13-6-12-9-11-11-8-12-6-11-5-14-2-14-1v31L675 48v15h111l4 1 4 1 3 2v1l1 1 2 3v5l1 7v602M17 72l-4 25v2l185 20 37 5v138H19v20h216v119l64-9 15-11-15-10v-89h100l53 53 64-53v-20H299V132l114 14 60 5 59 5 3-9-116-30-213-46L43 40l-9-19-13 15v9l-1 8v3l-1 6v1l-1 1v3l-1 1v4m-4 27 8-63L2 97l11 2m574 528 63-11 16-10-16-9V164l-63-31v494M29 406l-2 12v8l-1 6 43 3 71 75 37 43 26 37 9 16v1H6v22h406l53 52 63-52v-22H250l24-15 9-18-21-1-14-16-36-37-45-40-55-41-4-2 145 9 43 3 92 5 18 1-17 20-50 46-22 17 5 8 48-21 22-10 38-24 16-12 16-12 14-14 12-14 11-13 3-25-16-18-23-2-19 15-5 11-6 12-15 22-73-17-87-18-81-14-75-12-36-5-12-2-10-18-12 15-1 10v3l-1 3v6l-1 4v10m-3 27 6-63-16 62 10 1M14 714l31-56-24-2-19 15-2 23 14 20m31-56-13 23-3 5v1l-9 17-1 2-5 8 10 4 10 7 10 8 10 11 8 13 7 16 7 20 6 21 6 25 2 26h10l3-27 1-16h322v134l62-11 16-10-16-10V822h336l4 3 2 4 1-1 25 21 58-47-26-17-24-10-35-32-42-34-16-12-17-14-7 6 13 17 47 77 6 13 3 6H105v-14l-1-22-3-23-6-19-9-20-11-17-13-15-17-14Z"/></symbol><symbol id="𭓵_K" viewBox="0 0 1000 1000" data-size="21"><path transform="matrix(1 0 0 -1 52 954)" d="M419 404H316v-6c0-13-1-21-3-26-3-5-10-10-21-13-11-2-18-2-20 1-1 1-2 6-2 15l1 12v153H89l-68-4-13 22 65-2h198v93l-5 41 65-17c17-4 23-8 19-13-2-2-10-5-24-9l-10-5v-90h262v92l-6 42 65-17c18-4 24-9 18-13-3-3-11-6-24-9l-8-3v-92h167l38 41 54-38c9-6 11-10 7-14-2-3-8-5-18-5H623V409l1-17c1-10 1-16-1-20-4-5-13-9-26-12-9-2-15-2-17 0-3 2-4 7-2 15l1 14v15H464l20-5c21-5 27-11 19-18-5-3-15-7-30-12l-2-1v-82h321l39 43 55-40c10-5 12-9 8-13-3-4-10-6-19-6H471c49-46 111-88 186-125 76-37 151-61 225-73l1-7c-13-3-27-9-42-16s-24-14-29-22c-59 27-120 61-183 101-75 48-128 89-159 122V40l1-12c2-8 1-13-2-16-2-4-10-7-24-11-12-1-19-1-21 0-2 2-3 7-2 14v211c-63-48-130-90-203-126C161 71 91 41 7 12L3 28c67 22 143 60 228 113 77 49 137 92 179 129H82l-68-4-12 23 64-3h357v82l-4 36M316 538V419h263v119H316M90 764h328v98l-5 47 62-18c25-7 34-12 29-18-4-3-15-6-34-10l-4-2v-97h308l39 31 49-35c20-14 26-23 20-27-5-4-20-6-46-5l-102-82-11 8 32 46 30 48H90c-2-22-6-43-12-61-7-19-18-39-32-60-13-11-23-17-30-15-8 2-13 14-15 38-1 4 0 10 4 15l14 18c17 19 29 35 35 50 13 24 18 53 17 85h15l4-54Z"/></symbol><symbol id="𭓶_S" viewBox="0 0 1000 1000" data-size="21"><path transform="matrix(1 0 0 -1 40 967)" d="m417 729 63-10 16-10-16-10v-58h172l43 47 53-47v-22H480v-95h247l31 27 58-47-26-22V272l-63-31v53H480V179h326l52 51 63-51v-22H480V31L417 0v157H2v22h415v115H191v-37l-63-31v331l63-33h226v205m310-331H191v-84h536v84m0 106H191v-84h536v84M14 636l35-52-25-5-19 14-5 23 14 20m0 0 10-17 1-2 2-1 1-3 4-6 6-7 11-16 15 16 14 17 11 20 9 22 6 24 3 25 1 26v17h711l-29-61-29-56-12-21 8-6 15 18 33 30 28 29 34 40 3 4 20 7 26 16-58 48-26-23-2 1-1-3-3-2H490v132l16 9-16 11-62 11V772H107l-2 23-3 33-10-1-4-32-5-29-6-27-7-23-7-22-9-17-10-15-10-12-11-7-9-7Z"/></symbol><symbol id="𭓷_S" viewBox="0 0 1000 1000" data-size="21"><path transform="matrix(1 0 0 -1 31 966)" d="m684 320 52-36 9-16-21-1-22-32-42-45-49-40-55-35-63-31-70-25-76-23-83-16-91-13-97-7-1 9 96 18 87 20 80 23 71 26 65 29 56 32 49 35 41 38 34 41 30 49M433 467l63-11 16-11-16-9V251l-1-13-2-13-5-13-7-12-7-11-11-7-12-7-13-5-13-2-13-1v31l-105 17v15h111l5 1 5 2 2 2 2 5 1 5v222m-180-48 54-34 9-17-21-1-24-32-20-23-22-24-26-21-27-21-30-20-33-19-34-18-38-15-4 8 62 48 51 46 23 24 20 22 18 23 16 23 12 23 11 22 3 6m549-124-14 13-33 26-39 24-70 38-26 12 3 9 29-4 29-5 26-7 24-7 48-19 22-11 19-10 20-13 17-14 10-21-9-23-21-10-23 8-12 14M29 477v21h168v205l63-11 15-10-15-10V498h173v278l63-10 16-11-16-9v-96h173l53 53 63-53v-21H496V498h268l52 53 63-53v-21H29M16 724l27-58-23-1-19 17-1 23 16 19m91 71h732l-57-82-12-15 5-7 17 12 31 21 53 37 6 6 30 12 26 16-57 47-24-19-2 1-2-6-4-3H501v87l17 10-17 10-63 11V815H105l-3 37H92l-2-24-5-20-6-19-8-16-7-13-8-12-9-9-10-7-11-5-10-3 5-10 2-6 1-3 1-2 2-5 3-6 6-10 1-4 6-12 17 12 14 14 12 16 9 17 7 19 3 19 2 20v12Z"/></symbol><symbol id="𭓸_K" viewBox="0 0 1000 1000" data-size="21"><path transform="matrix(1 0 0 -1 58 957)" d="m228 689 42-26h335l27 24 38-27c9-12 14-20 13-24-4-3-12-4-25-4V424l-42-3v116H273V426l-42-1v213l-3 51m45-136h343v93H273v-93m-23-212 42-28h281l28 25 36-27c17-11 22-18 14-23-5-3-13-5-24-5V178c0-15 0-25-2-31-3-8-10-14-22-17-10-1-15 1-17 4-2 2-2 7-1 14l1 13H295v-14c0-7 0-13-1-15-2-5-8-9-16-12-12-4-19-4-22 1-2 3-3 10-3 22l1 14v132l-4 52m45-164h290v120H295V177M56 459l51-29h664l29 28 37-28c15-11 22-20 21-25-1-6-12-10-33-12V93c0-26-6-45-19-59-15-17-41-28-78-34-3 18-11 32-22 40-13 9-38 18-74 25l-1 12 117-7c12 1 21 3 25 6 5 4 7 11 8 20v318H109V51c1-12 1-20-2-26-4-7-14-12-29-14-11-2-17-2-19 2-2 2-2 7-1 16l2 11v356l-4 63m34 310h328v97l-5 47 62-17c25-7 34-13 29-18-4-3-15-7-34-11l-4-2v-96h308l39 31 49-35c20-14 26-23 20-28-5-4-20-5-46-5l-102-82-11 8 32 46 30 49H90c-2-23-6-43-12-62-7-18-18-38-32-59-13-12-23-17-30-16-8 2-13 15-15 38-1 5 0 10 4 16l14 18c17 18 29 35 35 49 13 25 18 53 17 85h15l4-53Z"/></symbol><symbol id="𭓹_S" viewBox="0 0 1000 1000" data-size="21"><path transform="matrix(1 0 0 -1 31 970)" d="m534 364-2-49-4-45-4-43-6-41-8-40-10-35-10-32-12-30-15-27-17-22-8 4 15 54 6 30 6 31 5 35 3 36 3 40 2 42v45l-1 47h57m-378 0-2-49-4-45-4-43-5-41-8-39-9-36-10-32-11-29-14-28L73 0l-8 4 13 54 11 61 4 34 3 37 3 40 1 42v45l-1 47h57M757 71l-17 41-14 47-12 54-10 60-7 69-5 76-3 83 2 91 3 75-38-14-49-12-17-4 55-10 14-11-14-9V32L587 4v632l-30-5-21-2-2-1V364h-57v294l53-10 86 40 65 33 41 25 7-14 36-34v-17l-20 7-16-7-23-9 7-79 8-90 9-82 11-73 12-66 13-57 15-49 16-40 17-32 17-22 3-4-56-40-21 33m-397 3-12 40-11 46-10 54-8 60-5 68-4 76-2 83 1 91 2 75-14-5-48-16-23-5-19-4 55-10 13-11-13-9V32L204 4v632l-27-4-19-3-2-1V364H99v294l52-10 62 29 42 21 42 23 42 25 8-14 34-34 1-17-20 7-39-17 16-168 9-82 9-74 11-66 12-57 13-50 13-41 15-31 14-23-54-46-4 8-17 33M16 748l26-58H18L0 706v24l16 18m0 0 24-55 2-3 16 11 14 13 12 15 9 16 7 18 4 18 2 20-1 10h732l-55-74-13-14 5-7 17 11 31 18 28 17 24 16 4 3 33 14 27 16-58 47-23-18-2 2-2-6-5-4H500v77l17 10-17 10-62 10V832H104l-3 32-10-1-2-20-5-20-6-16-7-15-8-12-8-10-9-8-9-6-11-4-10-4Z"/></symbol><symbol id="𭓺_S" viewBox="0 0 1000 1000" data-size="21"><path transform="matrix(1 0 0 -1 39 974)" d="m837 96-26 22-27 26-24 27-25 31-22 33-44 76-20 42-16 42h-2V31L567 0v356l-31-50-29-40-31-37-35-37-35-34-38-32-40-29-43-27-45-24-5 8 76 65 67 68 30 36 30 36 26 38 24 39 23 41 9 18H322v20h245v164H345v21h222v153l64-11 15-11-15-9V600h124l53 52 62-52v-21H631V415h163l53 53 62-53v-20H646l49-68 53-65 25-29 26-25 25-22 26-20 24-17 48-28-59-45-26 20M297 510l-2 7-4 8-7 10-10 11-11 13-30 26-14 12V40L155 9v752l64-11 15-10-15-10V613l25-9 21-8 35-18 14-10 13-8 12-11 10-12 7-13-2-24-17-16-24 2-16 18v6M14 444l34-52-24-5-19 13-5 25 14 19m73 145-6-27-16-44-7-20-8-16-8-13-8-10-8-8-6-5-6-2 12-19 5-7 8-13 1-2h1l1-3 2-2 2-3 2-3 12 11 10 15 7 15 7 17 5 19 3 19 3 23 2 23-1 26 1 28-10 1M15 698l31-54-24-2-19 13-3 25 15 18m412 249 62-10 16-10-16-10V811h336l4 2 1 4 2-1 25 21 58-48-26-16-25-9-21-22-55-48-17-11-16-15-7 7 13 17 38 64 18 33H106v-14l-1-22-3-23-6-20-9-20-11-17-13-16-17-13-5 8-1 3-2 2-6 11-3 5-1 2-3 5-1 3-4 7-5 8 10 5 10 7 10 9 9 11 9 14 7 17 7 19 6 23 5 24 3 27h10l3-27 1-16h322v136Z"/></symbol><symbol id="𭓻_J" viewBox="0 0 1000 1000" data-size="21"><path transform="matrix(1 0 0 -1 58 950)" d="M115 744c-3-22-7-41-13-58 72-26 108-56 108-89 0-10-4-19-13-28-7-6-14-9-21-9-13 0-23 10-31 30-12 28-30 53-54 74-15-23-31-35-49-35-9 0-18 4-25 11-9 9-13 18-13 27 0 8 4 16 12 23 42 34 66 79 73 134l21-5c3-12 5-28 6-50h285v131c66-2 99-9 99-22 0-8-14-17-42-28v-81h313l37 48c51-47 76-77 76-90 0-6-4-10-13-11l-36-5c-25-23-53-45-83-65l-19 13c17 29 32 57 43 85H115m299-624C353 70 289 30 221 0l-15 22c74 40 143 91 208 153v361c62-2 92-11 92-25 0-8-12-16-36-24V234c94 106 172 234 234 385 53-22 79-39 80-52 0-9-14-13-44-14-81-161-171-288-270-383v-68c0-9 2-14 6-17 8-6 46-9 112-9 64 0 101 2 112 7 17 8 29 58 37 151l26-10c0-67 2-107 7-119 6-12 15-17 29-16-3-30-15-48-37-54-26-6-83-9-170-9-93 0-148 6-163 18-10 8-15 20-15 34v42M103 405c-12 0-22 9-29 29-11 33-35 67-74 103l12 15c84-33 126-69 126-109 0-26-12-38-35-38m161-220c-22 0-33 10-33 31 0 13 8 27 23 43 33 35 52 98 57 190l26-6c3-37 4-70 4-100 0-47-8-86-25-116-15-28-32-42-52-42M115 2C92 2 81 14 81 39c0 1 2 14 5 38 3 20 4 39 4 58 0 37-9 62-28 76-14 10-35 16-62 19v26c17-2 29-3 35-3 26 0 49 16 70 48 55 82 116 198 183 347l21-19-153-355c-14-31-21-55-21-72 0-7 2-18 6-33 13-43 19-81 19-113 0-36-15-54-45-54m439 548c-13 0-26 10-37 29-22 37-61 68-118 95l10 19c59-12 105-30 137-52 26-19 39-37 39-57 0-23-10-34-31-34m294-329c-17 0-28 10-31 32-12 71-43 139-94 203l17 15c94-75 141-147 141-215 0-24-11-35-33-35Z"/></symbol><symbol id="𭓼_G" viewBox="0 0 1000 1000" data-size="21"><path transform="matrix(1 0 0 -1 69 977)" d="M293 80c21 0 39 7 54 20 50 53 101 117 151 191 10 17 10 31 0 42l5 3H360c-16 1-29-3-39-11l-31 29h244v179H404c-15 1-28-3-40-12l-30 30h200v128c0 10-7 22-23 37l7 10 77-31c8-3 10-6 6-9-11-3-20-8-26-16V551h140l29 35 59-45c4-3 6-5 6-6-1-1-5-2-11-2H575V354h195l28 35 61-44c4-3 6-5 5-7-1-1-4-2-10-2H510l60-29c8-7 9-11 3-14-12-1-20-4-26-10-50-63-110-132-182-208l363 26c-28 37-64 71-107 101l8 16c75-35 129-75 163-120 16-23 25-42 27-56 2-19-5-33-22-40-16-2-26 8-31 31-7 17-15 33-25 49-214-22-326-34-334-36-2-1-5-1-8-1-30-3-53-14-67-31l-39 66m562 700c1-3 1-6-1-7s-5-1-9 0c-20 1-44-17-72-54-12-14-23-26-31-35l-13 6 51 92H97c-2-9-3-18-5-26-9-32-22-56-40-71-22-15-37-15-47 1-5 10-1 19 13 28 14 10 27 27 41 52 14 23 23 51 27 86h15c0-19 0-35-2-50h678l30 27 48-49M278 559l14-8-79-197c-20-41-39-85-59-132-4-7-6-12-7-15-9-26-9-65 1-117 12-49 5-76-20-81-25-3-34 21-27 74 6 54 6 84-2 91-10 6-38 9-86 8l2 24c37-4 63-3 79 4 16 5 34 32 56 79 38 77 81 167 128 270M23 506l3 12c82-23 125-57 128-100 0-17-7-28-21-33-13-3-21 5-25 24-8 37-36 70-85 97m83 182 4 12c83-26 126-60 129-101 1-19-6-29-21-32-14-3-22 5-26 24-6 37-34 69-86 97m219 257 3 10c69-19 112-45 130-79 11-33 5-51-19-55-12 1-20 9-22 25-3 17-12 35-27 53-16 18-37 33-65 46Z"/></symbol><symbol id="𭓽_J" viewBox="0 0 1000 1000" data-size="21"><path transform="matrix(1 0 0 -1 50 950)" d="M391 612c-6-6-11-12-16-18-47-114-166-209-357-283L6 330c164 79 267 175 309 286H149l-10 22h180l43 27c22-5 41-17 55-34 0-4-5-7-13-10l-13-9m38 68 22-1c28-75 61-126 99-154 44 50 76 95 97 135 49-19 74-34 74-46 0-8-13-12-39-12-41-38-77-68-107-92 27-21 56-36 87-45 36 37 69 80 100 130 47-22 71-39 71-52 0-8-13-12-39-12-19-18-53-45-103-78 64-25 134-46 209-62-18-16-32-37-44-63-162 50-270 96-322 140-61 54-96 125-105 212m-23 90v131c66-1 100-9 100-24 0-9-14-18-43-29v-78h306l37 48c50-46 75-76 75-89 0-6-5-10-13-11l-36-6c-22-25-48-51-79-77l-21 14c17 35 30 67 39 96H110c-1-49-8-88-22-116-14-33-31-49-51-49-25 0-37 11-37 34 0 9 7 21 21 36 35 37 54 90 58 160l27-4 4-36h296m-1-686v326c65-3 98-11 98-26 0-8-14-16-41-27V84h252v227c66-4 99-14 99-28 0-9-14-19-42-29V0h-57v60H164V0h-58v312c66-3 99-12 99-27 0-8-14-18-41-28V84h241M73 576c103-19 154-46 154-82 0-20-12-31-35-31-10 0-20 7-29 21-16 28-49 53-100 76l10 16Z"/></symbol><symbol id="𭓽_K" viewBox="0 0 1000 1000" data-size="21"><path transform="matrix(1 0 0 -1 51 943)" d="M784 53c0-24 1-33 1-30-1-4-8-10-19-17-9-4-16-6-19-6s-5 3-6 10v29H146c1-12 1-18 0-20 0-2-7-6-20-12-8-4-14-6-17-6-4 0-6 4-6 13v49l-1 261 44-11c20-6 30-12 30-18 0-7-10-15-30-24V59h271v360l-4 49 45-10c19-4 28-9 28-17 0-7-8-15-26-25V59h281v214l-3 48 44-11c18-4 27-10 27-16 0-7-9-14-25-23V53m98 703c10-8 14-14 14-20 0-13-15-20-46-20l-67-73-12 8 35 89H84c-5-42-16-75-31-99-13-17-24-25-34-25-13 0-19 8-19 24 0 8 2 17 6 25l44 46c12 17 17 50 16 99l15 3c1-13 2-30 3-53h336v86l-5 40 54-8c16-3 24-8 24-15 0-9-10-17-29-25v-78h326l20 22c9 11 14 17 16 17 1 0 9-6 24-17l32-26M450 637c5-5 8-10 8-14s-4-6-13-8l-25-4C329 479 194 388 15 338l-6 16c66 18 135 53 209 105-9 27-44 61-103 102l4 9c80-26 120-49 120-67 2-16 0-26-6-31 46 31 92 82 138 152H121l1 20h251l16 21c8 10 14 16 16 16 4 0 10-5 19-15l26-29m446-252c-19 0-31-6-37-19-5-12-9-18-13-18-1 0-16 6-44 18-50 22-103 53-160 95-69 54-130 126-181 215l13 8c28-46 59-86 92-120 23-22 45-42 68-59l88 122H559v20h167l12 15c5 6 8 9 9 9 2 0 7-5 16-15l22-30c7-8 10-15 10-20 0-8-14-12-43-11L652 491c7-4 14-9 21-12 36-23 74-42 114-56 41-14 78-22 110-25l-1-13Z"/></symbol><symbol id="𭓾_J" viewBox="0 0 1000 1000" data-size="21"><path transform="matrix(1 0 0 -1 49 950)" d="M781 551c-16-70-42-133-77-190 70-47 105-86 105-116 0-22-9-33-27-33-10 0-19 5-27 16-25 31-51 62-80 92-32-42-68-77-108-106-39-28-90-58-153-88l-15 21c104 62 182 132 235 209-34 28-80 59-140 92l13 19c51-22 101-47 150-75 29 50 50 103 61 159H459l-9 25h171v132c62 0 93-7 93-21 0-9-13-17-39-26v-85h111l44 55c24-23 43-43 58-62l-10-18h-97M424 775v125c65-2 97-10 97-23 0-8-14-18-42-30v-72h301l41 44c49-43 74-71 74-82 0-5-4-9-13-11l-34-8c-26-25-53-46-83-63l-16 13c14 25 25 53 35 82H136v-19c0-40-11-75-33-103-15-19-31-29-46-29-24 0-36 12-36 35 0 10 8 21 23 32 36 28 57 77 62 147l22-2c3-11 5-23 6-36h290m-87-340V129c0-22 7-34 22-38 22-5 93-8 213-8 105 0 172 3 202 8 21 6 35 20 42 45 8 32 15 71 19 119l25-11c1-67 4-107 10-121 5-13 16-20 33-20-1-28-12-46-34-53-31-10-127-15-289-15-165 0-257 6-276 18-16 10-23 32-23 66v316h-83c-1-112-13-199-36-260C134 102 85 44 17 0L0 18c58 50 97 118 119 204 13 55 20 126 21 213H38l-12 25h336l47 59c23-22 43-44 59-65l-12-19H337M109 589l-12 25h198l48 54c22-20 40-40 56-61l-13-18H109Z"/></symbol><symbol id="𭓿_J" viewBox="0 0 1000 1000" data-size="21"><path transform="matrix(1 0 0 -1 53 954)" d="M381 336v-43h-57v404c25-10 47-21 66-31h267l35 40c40-27 60-46 60-58 0-4-3-8-9-12l-22-14V293h-57v43H381m0 25h283v132H381V361m0 157h283v123H381V518M122 787h297v121c67-1 100-9 100-24 0-8-14-18-43-29v-68h306l37 48c50-46 75-76 75-89 0-6-4-10-13-11l-36-6c-14-15-36-34-66-57l-21 14c14 32 23 57 26 76H123c1-47-6-85-22-116-16-33-33-49-51-49-24 0-37 12-37 34 0 9 7 21 21 36 35 37 54 90 58 160l27-4c2-12 3-24 3-36M834 16c-8 0-21 8-38 23-65 55-157 102-277 139l13 23c224-42 336-92 336-150 0-23-11-35-34-35M15 0 0 22c114 46 210 108 287 186 56-23 84-42 84-56 0-8-18-13-55-13C234 81 133 35 15 0m126 294v389c67-1 100-9 100-24 0-8-14-18-43-29V294h-57M16 233 6 258h756l54 71c29-26 54-51 74-75l-13-21H16Z"/></symbol><symbol id="𭔀_J" viewBox="0 0 1000 1000" data-size="21"><path transform="matrix(1 0 0 -1 38 950)" d="M441 487c32-18 61-33 87-43 42 61 76 118 100 170 57-30 85-51 85-62 0-9-11-13-34-13-6 0-11 0-14 1-27-34-64-69-109-107 27-10 59-20 98-29 39 57 71 112 95 165 57-30 85-51 85-62 0-9-11-13-34-13-6 0-11 0-14 1-21-27-55-60-102-98 75-16 155-26 241-32-19-20-33-40-42-62-154 18-289 56-404 113-20 10-43 25-70 43-36-29-71-54-105-73-90-52-187-85-291-99L0 309c78 15 151 40 218 76-11 1-18 6-23 16-12 22-22 37-31 47-12 13-30 26-54 40l11 21c91-21 137-50 137-88 0-4-1-9-2-14l21 13c34 21 64 44 91 68-50 39-89 75-118 108-53-41-117-74-190-99l-12 21c112 52 197 124 257 216 31-10 52-18 62-25 9-5 14-11 14-17 0-9-15-13-44-13-18-23-40-46-66-67 37-36 79-68 125-97 54 54 104 126 150 216 53-24 79-42 79-51 0-8-8-12-25-13h-18c-37-66-84-126-141-180M141 770h297v131c67-1 100-9 100-24 0-9-14-18-43-29v-78h306l37 48c50-46 75-76 75-89 0-6-4-10-13-11l-36-6c-17-18-41-39-72-64l-21 14c13 28 24 55 32 83H142c1-47-6-85-22-116-16-33-33-49-51-49-24 0-37 11-37 34 0 9 7 21 21 36 35 37 54 90 58 160l27-4c2-12 3-24 3-36M746 60H196V0h-58v271c66-2 99-11 99-26 0-9-13-18-41-28V84h241v239c65-3 98-11 98-26 0-7-14-16-41-26V84h252v187c66-4 99-14 99-28 0-9-14-19-42-29V0h-57v60Z"/></symbol><symbol id="𭔁_S" viewBox="0 0 1000 1000" data-size="21"><path transform="matrix(1 0 0 -1 17 970)" d="m220 757 54-30 12-16-19-3-37-74-47-90-5-7h3V32L118 0v443l-47-63-31-38-33-35-7 6 72 125 45 85 1 1v13h6l56 120 40 100M817 18l-40 13-36 17-33 19-30 24-28 26-23 29-20 32-15 35-12 38h1-14l-21-47-29-47-36-41-41-34-44-28-50-22-55-14-59-7-2 9 56 17 49 21 43 25 38 29 32 34 28 39 23 43 9 23H231v21h285l14 56 8 53 2 16 62-19 14-12-18-9-9-43-14-42h216l53 53 63-53v-21H592l19-27 22-29 23-24 25-23 26-18 28-17 31-12 32-11 34-8 90-14-63-60-42 10M352 754l63-31h291l32 25 58-47-26-20V388l-64-32v53H415v-37l-63-31v413m354-194H415V430h291v130m0 141H415V580h291v121m-680-3 30-55-24-2-19 14-2 24 15 19m0 0 14-27 8-14 8-14 16 12 15 16 12 17 9 19 6 21 4 21 2 23v14h748l-10-18-49-78-14-16 7-7 16 14 48 36 27 21 22 21 1 1 24 10 27 16-58 47-24-20-2 1-2-4-3-3H521v102l16 10-16 11-62 10V807H119l-1 15-4 28h-10l-1-27-6-24-6-22-7-18-8-17-9-13-9-11-10-9-11-6-11-5Z"/></symbol><symbol id="𭔂_K" viewBox="0 0 1000 1000" data-size="21"><path transform="matrix(1 0 0 -1 57 955)" d="M380 493c-2-19-7-32-14-37h130l77 152 44-24c14-9 21-16 21-21 0-8-13-11-38-10l-89-97h205l25 25c14 15 22 23 25 23 2 0 10-8 24-25l31-34-5-10H160c2-96-9-181-32-255C101 105 61 45 10 0L2 10c34 34 63 85 87 151 17 61 26 129 26 204 0 20-2 59-6 114l60-23h177c-6 5-11 14-15 29-13 49-41 88-83 118l11 9c43-27 73-48 89-61 19-16 30-35 32-58m492 295c9-8 14-15 14-20 0-13-16-19-46-19l-72-92-15 4 43 110H84c-6-41-17-73-32-97-13-18-24-27-34-27-12 0-18 9-18 26 0 7 2 15 5 24l44 46c12 16 17 50 16 100l16 2c1-13 2-30 3-52h336v76l-5 40 53-8c16-3 24-8 24-15 0-9-10-17-29-25v-68h317l19 20c10 12 15 18 17 18s10-6 24-18l32-25m-90-598c26-22 28-33 7-33-8 0-20 3-34 8C600 75 391 22 129 9l-1 12c249 13 457 80 622 201l32-32m-72 104c11-8 17-15 17-22 0-5-7-7-21-7-7 0-15 0-23 2-118-85-278-136-481-155l-5 12c201 29 359 95 475 197l38-27m-74 103c11-7 17-15 17-21 0-7-6-10-18-10-7 0-15 1-24 3-103-77-235-126-394-147l-6 11c160 28 290 92 389 191l36-27m110 229-7-11H148v21h275v69l-4 46 50-10c20-4 30-9 30-15 0-7-11-14-32-23v-67h175l22 28c13 12 20 19 22 19s10-8 24-22l36-35Z"/></symbol><symbol id="𭔃_J" viewBox="0 0 1000 1000" data-size="21"><path transform="matrix(1 0 0 -1 58 949)" d="M420 158H190v-47h-56v256c32-13 56-24 71-31h208l34 40c39-29 58-47 58-56 0-4-3-8-9-12l-21-13V127h-55v31m0 25v128H190V183h230m-19 447v98c66-4 99-13 99-26 0-8-14-17-42-26v-46h215l49 59c27-23 50-45 68-66l-9-18H100l-10 25h311M110 782h291v116c66-2 99-10 99-23 0-7-14-16-42-27v-66h313l37 48c51-47 76-77 76-90 0-6-4-10-13-11l-36-5c-19-17-43-35-72-53l-19 13c11 19 21 43 32 73H111c0-41-7-77-21-108-15-32-32-48-52-48-9 0-18 4-27 13-7 7-11 15-11 23 0 9 7 21 21 36 34 35 53 86 58 155l24-2c4-19 6-33 7-44m387-348c32 57 57 112 75 165 59-21 88-38 88-53 0-8-14-13-44-14-24-32-52-65-85-98h211l54 62c26-22 49-45 70-69l-11-18H701V72c0-48-36-72-108-72 0 18-10 31-28 40-23 10-65 19-124 28v27c65-7 121-11 170-11 21 0 32 10 32 29v296H10L0 434h497m-192 3c-18 0-28 10-31 30-5 40-28 78-69 114l14 17c81-36 122-76 122-120 0-27-12-41-36-41Z"/></symbol><symbol id="𭔄_J" viewBox="0 0 1000 1000" data-size="21"><path transform="matrix(1 0 0 -1 50 949)" d="M771 232h17l49 60c26-24 47-46 63-67l-12-18H484V70c0-47-35-70-104-70 0 19-10 33-31 41-13 5-48 13-103 22v28c49-7 97-10 144-10 15 0 25 2 30 7 4 3 7 10 7 19v100H11L0 232h120v170c-18-8-32-13-40-16l-14 21c94 45 141 104 141 179v119c26-11 47-21 64-31h359l37 44c37-29 56-47 56-55 0-4-3-8-8-11l-22-15V469h-55v39H245c-19-38-54-70-107-97 14-4 29-11 47-19h525l32 37c38-27 58-44 58-53 0-4-3-8-9-12l-20-13V232m-55 0v135H567V232h149m-200 0v135H370V232h146m-198 0v135H174V232h144m-63 301h383v116H263v-58c0-20-3-39-8-58M126 782h291v116c66-2 99-10 99-23 0-7-14-16-42-27v-66h313l37 48c51-47 76-77 76-90 0-6-4-10-13-11l-36-5c-18-17-43-35-72-53l-19 13c13 24 24 48 32 73H127c0-41-7-77-21-108-15-32-32-48-52-48-9 0-18 4-27 13-7 7-11 15-11 23 0 9 7 21 21 36 34 35 53 86 58 155l24-2c4-19 6-33 7-44Z"/></symbol><symbol id="𭔅_J" viewBox="0 0 1000 1000" data-size="21"><path transform="matrix(1 0 0 -1 58 951)" d="M473 67V3h-59v483c31-13 54-23 68-31h61c11 54 18 99 21 135H350l-11 25h427l47 54c26-21 47-42 64-62l-11-17H645c-30-62-54-107-72-135h163l37 44c40-30 60-49 60-58 0-5-3-9-9-13l-23-15V3h-59v64H473m0 212h269v151H473V279m0-25V92h269v162H473M97 273c-3-8-8-20-14-35s-11-26-13-32l-48 15c33 85 61 168 86 247H8l-8 25h115c20 65 37 130 51 194 61-9 92-20 92-33 0-8-15-16-44-22-11-43-24-90-39-139h102l35 42c36-33 54-52 54-59 0-2-2-5-6-8l-22-15c-15-98-37-177-68-238 59-42 88-75 88-99 0-21-10-32-30-32-11 0-23 10-36 29s-30 38-50 57C197 104 125 47 27 0L8 19c88 51 153 113 195 185-31 25-67 48-106 69m10 25c46-17 85-35 117-53 27 59 47 133 60 223H167c-20-60-40-116-60-170m5 476h297v128c67-1 100-9 100-24 0-8-14-18-43-28v-76h306l38 48c49-46 74-75 74-89 0-6-4-9-13-10l-36-7c-14-15-36-34-65-56l-21 13c13 32 22 58 25 77H113c1-47-6-86-22-117-16-32-33-49-50-49-25 0-38 12-38 35 0 8 7 20 21 35 35 37 54 90 58 160l27-3c2-12 3-25 3-37Z"/></symbol><symbol id="𭔆_K" viewBox="0 0 1000 1000" data-size="21"><path transform="matrix(1 0 0 -1 52 947)" d="M888 42c-19 1-31-7-36-23-1-6-2-12-4-16-4-3-19-3-45-1-138 9-254 34-348 75C355 37 210 12 20 2l-2 15c170 11 300 39 391 82-63 34-117 73-163 116-41-40-105-79-192-116l-7 9c111 56 184 127 221 214h-43c0-17-1-27-1-28-2-3-9-9-23-17-6-4-11-6-14-6-4 0-7 2-7 6-1 4-1 9 0 17 0 14 1 22 1 26v255l-5 39 53-26h151l18 79H94v21h590l23 36c7 11 11 16 14 16 4 0 13-6 26-18l28-28 30 76H84c-6-42-17-75-32-99-13-17-24-25-34-25-12 0-18 8-18 24 0 8 2 16 5 25l44 46c12 16 17 49 16 99l16 2c1-12 2-29 3-52h336v65l-5 41 53-9c16-3 24-8 24-15 0-8-10-17-29-24v-58h327l19 22c9 11 14 17 16 17 1 0 9-6 24-17l32-26c10-8 15-15 15-20 0-13-16-20-47-20l-63-62 5-3-3-14H450l-47-79h240l11 16c7 7 11 11 14 11s10-4 20-13l18-16c9-6 14-11 14-16 0-4-7-12-22-22V307c-1-5-8-10-21-16-7-3-12-5-16-5s-6 3-6 10v26H292l21-15c7-7 11-12 11-17 0-8-10-13-30-14-4-7-10-17-19-28h329l14 14c9 9 14 13 18 13 2 0 9-6 20-19l19-18c8-9 12-17 12-21 0-7-14-11-41-12-40-38-88-73-145-105 94-34 203-51 328-51 22 0 42 1 61 3l-2-10M655 342v67H225v-67h430m0 165v61H225v-61h430m0-78v58H225v-58h430M262 229c49-47 112-84 188-112 56 28 105 65 149 112H262Z"/></symbol><symbol id="𭔇_G" viewBox="0 0 1000 1000" data-size="21"><path transform="matrix(1 0 0 -1 34 967)" d="M50 47 0 102l109 20v457c2 14-4 28-17 42l10 14 42-35h167l29 35 49-41c7-8 6-14-4-17l-18-9V170l81 15v-9c39 89 58 207 57 352v312c0 15-7 31-21 46l12 12 43-40h275l36 37 47-46c3-3 5-7 4-10s-5-5-10-6l-19-9V711l6-74c-1-11-5-19-13-23-8-5-19-9-33-12v40H549V529c5-223-58-400-188-529l-10 13c40 51 71 103 94 155L92 82c-20-7-34-18-42-35m499 791V662h283v176H549m111-326V333c54 33 93 59 116 79 32 27 48 42 47 47 0 7-2 14-7 20l11 8 63-56c5-4 7-7 7-9 0-3-2-4-7-5-19 4-35 2-48-6-9-8-34-24-76-47-30-19-65-39-106-58V152c-1-43 3-67 13-73 8-5 19-8 33-11h5c10-1 27-2 52-2 13 0 32 0 55 1h19c9 1 17 3 24 5 8 3 13 10 16 21 1 5 3 15 5 28 1 4 1 7 1 9 1 15 2 50 3 107h13c3-52 5-88 6-107s10-32 27-40c-10-22-19-36-27-41-4-3-12-8-23-13-1-1-2-1-3-1-17-4-46-6-87-6h-57c-11 1-22 1-33 2-27 2-44 5-49 8-10 4-18 13-25 26-8 13-11 35-10 68v388c-1 17-9 30-23 39l9 10 91-32c4-4 4-7-1-9-12-1-23-7-34-17M151 293V130l175 32v131H151m0 287V452h175v128H151m0-144V309h175v127H151M70 805h15c0-4 0-10-1-18 0-7 0-13-1-17h306l37 37 51-62c1-4 1-7-1-8-1-1-4 0-9 1-12 1-21-1-28-5-6-5-12-11-19-18-3-3-12-15-27-36-9-13-17-24-23-32l-12 6 40 97H83v-16c-1-23-4-42-10-55-8-15-19-26-33-34-14-7-24-5-30 6-7 12-5 22 7 31 11 9 21 21 31 37 11 15 18 44 22 86m97 120 3 9c39-13 68-31 87-54 16-21 23-40 21-59-2-17-10-26-24-27-13 0-20 8-20 23 0 20-5 39-15 56-10 19-27 36-52 52Z"/></symbol><symbol id="𭔈_S" viewBox="0 0 1000 1000" data-size="21"><path transform="matrix(1 0 0 -1 39 952)" d="m851 117-14 47-17 45-17 44-7 16-7-20-39-74-45-62-52-50-55-37-61-26-4 9 54 34 48 42 43 50 37 59 33 72 27 85 22 99 16 115 10 133 3 152v12l63-12 15-11-16-10-6-134-13-135-20-120-27-103-17-47 21-23 15-19 14-21 26-44 22-47 11-25 9-26-4-23-19-15-23 3-15 19-11 48M28 44l-2 11v1l-1 6-1 4-1 3-2 16v4l-1 5-1 2 44 8 20 2v549l63-32h144l32 26 58-46-26-22V154l75 12 3-9-74-30-77-25-121-36-86-22-22-5-8-18-14 13-2 9v1m-9 52 11-62L8 94l11 2m466 22-32 53 38 19 10 6v663l63-9 16-11-16-10V235l95 60 29 18 6-7-22-27-45-45-63-55v-2h-1l-41-32-18-15v-21l-18 8h-1v1m-32 53 32-54-41 48 9 6m-163 99H146V117l144 27v126m0 166H146V290h144v146m0 167H146V457h144v146m396 5-5 24-13 45-7 22-15 41-16 41-9 20 7 6 32-33 28-37 12-20 23-44 10-24 10-24 8-25-3-24-19-15-24 3-15 20-4 24M2 653l56-30-19-15-24 3-15 18 2 24m63 90 1-4 1-18 2-18v-17l-2-17-2-16-2-14-5-16-25 14-23 12-4 2-4 2 6 8 6 9 6 12 4 11 5 14 8 33 8 38 1 22 10 1 3-22 3-14h134v139l63-10 15-11-15-10V765h132l31 25 57-47-26-15-15-7-41-70-10-14-9-18-9 3 5 20 3 17 6 33 2 15 5 25 1 11H65Z"/></symbol><symbol id="𭔉_S" viewBox="0 0 1000 1000" data-size="21"><path transform="matrix(1 0 0 -1 24 968)" d="m415 780 5 11 54-34 9-17-23-1-31-38-33-32-13-11-2-2h341l31 27 59-47-27-22V346l-63-32v32H574V93h-63v253H327l41-1-6-58-13-54-21-48-27-44-34-38-41-33-47-26-54-21L66 8 2 0 0 9l62 18 53 23 47 24 40 29 32 31 27 35 20 38 14 42 9 46 2 51h-91v-64l-63-31v437l63-32h152l6 10 27 69 13 38 2 7M595 9l-14 1-13 3-12 4-13 6-10 8-9 11-6 13-4 11-2 14-1 13h63v-6l1-5 1-5 2-2 5-2 5-1h302l30 131h11L921 72l18-12 13-19-13-20-19-12H595m9 136-1 12v3l-1 2v3l-1 1v1l16 1 19 1h10l6 26 13 50 13 54h-1l5 13 56-30 11-14-21-4-21-37-28-43-10-13 32 2 52 4 60 4h1l-11 19-17 25-11 13-11 11 6 8 14-9 16-7 27-17 13-9 22-23 10-10 10-12 9-13v-24l-18-18h-23l-17 17-7 22-4 10-35-12-101-28-55-14-10-19-12 13-2 9v5l-1 6-1 8v2l-1 3v8m-3 22 8-63-18 62 10 1M438 492H215V366h223v126m284 0H500V366h222v126M438 636H215V514h223v122m284 0H500V514h222v122M27 724l29-57-24-1-18 16-2 24 15 18m17-32-2 1v2l-2 4-1 2-2 4-2 4h-1l-1 3-1 2v1l-5 9 11 4 10 5 10 7 7 9 9 12 8 13 6 17 7 19 5 21 2 23h9l3-23 1-13h323v119l62-10 16-11-16-10v-88h336l4 3 3 5 2-1 23 20 58-48-27-16-29-11-43-35-29-20-17-10-15-13-7 7 13 15 40 57 14 25 1 1H116l1-12-2-20-4-20-6-18-8-18-11-16-14-13-16-13-6 13-6 12Z"/></symbol><symbol id="𭔊_S" viewBox="0 0 1000 1000" data-size="21"><path transform="matrix(1 0 0 -1 28 980)" d="m842 578-39 11-33 12-25-20V310l-63-33v33H574V88h-63v222H351l-8-42-16-50-21-45-29-40-33-35-38-31-44-25-49-20L61 8 2 0 1 9l54 18 49 22 42 23 36 27 31 30 25 33 21 35 15 40 11 43 3 30h-43v-64l-62-31v400l-22-8-35-11-38-11-41-8-44-5-3 9 79 31 67 32 27 15 24 17 22 16 17 17 14 16 11 17 3 3 8-7h286l43 48 52-48v-20h-20l22-14 21-11 23-10 26-9 28-9 65-16 37-6 40-6 49-9-61-60-41 10M595 4l-14 1-13 2-12 4-12 7-11 8-9 11-6 12-4 13-2 12-1 14h63v-7l1-4 2-5 2-2 5-2 4-1 7-1h263l31 132h10l-9-132 18-12 13-19-13-18-19-13H595m10 139 1-2-1 2m77 317H245V330h437v130m0 142H245V481h437v121m-71 116H299l14-12 7-18-21 1-26-22-23-18-27-15 22-11h437l14 12-17 10-24 16-19 19-16 20-9 18M23 757l27-57-24-1-18 16v23l15 19m5-11 22-46 16 12 14 13 12 15 8 17 6 18 4 19 2 20-1 11h710l-7-11-26-38-20-29-14-16 7-6 15 11 17 10 29 20 36 26 6 5 31 13 26 15-58 48-23-19-2 1-3-6-4-2H495v83l16 8-16 11-62 11V847H110l-1 11-3 23h-9l-2-23-5-20-6-19-7-14-8-14-7-11-9-9-10-6-10-4-10-4 5-10v-1m579-633 1-2-1 2m2-29-14 62h27l6 9 8 13 7 12 13 24 14 25 4 7v1l5 7 48-41 6-17-22 2-5-5-22-20-24-18-2-1 20-1h19l21-2 19-1 21-2 19-2-2 7-6 17-13 27-7 6 6 8 9-6 9-4 10-5 19-12 9-7 15-16 8-8 7-10 1-24-17-17-24-1-18 16-1 9-1 4-21-6-20-5-40-8-55-11-12-2-12-20-12 16Z"/></symbol><symbol id="𭔋_S" viewBox="0 0 1000 1000" data-size="21"><path transform="matrix(1 0 0 -1 43 971)" d="m316 516-2 7-4 9-8 11-10 12-27 25-34 27V31L168 0v775l63-10 16-10-16-10V623l29-10 20-9 20-8 16-9 16-10 14-10 11-11 11-12 9-13-2-24-19-17-23 2-17 19v5m122-185 63-32h259l31 26 59-47-27-21V50l-63-32v42H501V44l-63-31v318m322-53H501V81h259v197M18 448l33-53-24-3-19 13-4 24 14 19m77 150 9-1v-55l-2-24-3-24-4-19-5-20-7-17-9-17-11-14-12-12-5 8-1 2-11 16-1 3-4 5-11 19 5 2 8 5 8 9 9 11 8 13 8 17 8 19 17 46 6 28m261-195v21h246v176H487l-7-16-32-51-17-23-20-24-22-21-7 6 37 79 20 53 9 26 14 53 6 27 4 27 2 10 59-22 14-13-19-7-11-38-12-27-8-18h105v159l63-9 16-11-16-10V621h73l52 52 64-52v-21H665V424h118l53 53 62-53v-21H356M16 735l28-56-24-1-18 15-2 24 16 18m88 71h710l-33-50-20-31-14-15 7-7 16 13 45 29 25 19 17 13 31 13 26 16-58 47-23-19-2 1-3-6-4-3H488v85l16 10-16 11-62 10V826H104l-1 13-3 23-10-1-2-22-5-21-6-18-7-16-7-13-8-11-9-9-10-7-10-5-10-4 3-5 2-4v-1l2-5 2-3 1-1 2-5 3-7 1-1 4-8 8-16 16 11 13 14 12 16 8 16 7 19 4 19 1 20-1 12Z"/></symbol><symbol id="𭔌_J" viewBox="0 0 1000 1000" data-size="21"><path transform="matrix(1 0 0 -1 50 937)" d="M399 585H131l-12 25h538l46 58c7-6 17-15 31-27 11 24 20 50 29 76H110c2-39-4-78-18-116-14-34-31-52-52-52-11 0-20 4-29 13-7 7-11 15-11 24 0 10 4 19 13 29 40 44 62 99 65 165l25-2 6-36h293v131c68-1 102-9 102-23 0-9-14-18-43-27v-81h298l40 45c49-46 74-75 74-87 0-5-5-9-14-10l-34-5c-21-21-46-41-75-60 5-5 11-12 19-21l-13-19H458V89c0-17 5-27 15-31 14-6 62-8 146-8 80 0 133 2 160 6 27 5 44 48 51 129l2 18 27-9c0-58 3-95 9-110 5-12 16-18 32-18-1-30-13-48-35-55C839 4 759 0 627 0 508 0 439 6 422 17c-15 10-23 32-23 65v503m190-411v-52h-56v392c16-6 39-16 69-29h124l35 42c41-32 61-52 61-60 0-4-3-8-9-12l-23-15V140h-56v34H589m0 172h145v114H589V346m0-25V199h145v122H589M126 464c51 16 101 42 150 77 44-27 66-48 66-62 0-6-5-9-14-9-4 0-17 2-41 6-50-18-104-32-162-40v-90h113l43 53c25-20 45-39 62-58l-12-20H125V199h113l43 53c25-20 45-40 62-58l-12-20H125v-62H69v378c23-9 42-17 57-26Z"/></symbol><symbol id="𭔍_K" viewBox="0 0 1000 1000" data-size="21"><path transform="matrix(1 0 0 -1 61 934)" d="m863 541-6-14h-97c-5-122-35-231-87-327 49-74 112-124 189-151l-3-10c-17 0-30-4-40-12-1-1-3-4-7-8-2-2-4-3-7-3s-10 3-22 10c-46 33-90 81-132 144C600 98 526 41 431 0l-5 6c87 45 155 111 204 198-46 84-76 175-90 273-26-39-52-72-78-99l-8 6c72 103 118 213 138 331l40-10c16-6 24-13 24-18 0-8-10-13-28-15-17-46-35-88-54-128h207l12 17c9 11 16 16 19 16s11-4 22-14l29-22m-373 66-6-15H161c-12-22-29-46-52-72-23-27-46-51-69-72l-13 6c27 26 53 63 80 111 27 49 48 100 63 154l42-12c15-5 22-9 22-15s-9-12-28-16c-8-16-19-38-34-64h236l15 21c5 12 10 17 14 17 3 0 9-4 19-13l34-30m7-292-5-13h-83c-6-62-14-115-25-158h38l6 12c6 9 10 14 13 14s9-3 19-9l36-24-6-12H380c-12-44-26-74-42-92l-24-15c-12-7-21-10-25-10-2 0-4 5-7 16-2 11-10 19-24 26l-55 17 3 7 50-11c10-1 18-2 25-2 16 0 27 4 34 14 8 9 15 26 23 50H107l-2-50c-2-8-10-14-24-16-5-2-10-2-13-2-6 0-9 3-9 10 0 4 3 20 7 50l32 185H21v19h79l32 199 35-21h205l9 9c6 8 10 12 12 12 4 0 10-5 17-13l24-21c9-7 13-14 13-18s-9-8-27-12c-2-38-5-83-11-135h15l9 15c6 9 10 14 13 14 1 0 8-5 21-13l30-22m222 212H566c-1-2-4-10-12-25 14-95 45-183 93-265 44 86 68 183 72 290m-337-46H169l-28-160h230c6 70 10 123 11 160m-12-179H137l-28-158 234 1c12 50 21 102 27 157m-67 67c1-17-3-26-12-26-7 0-14 6-19 19-23 38-49 71-76 98l5 4c39-21 64-37 76-48 17-14 26-30 26-47m-27-181c0-18-4-27-12-27-7 0-13 6-18 19-18 31-28 47-29 48-11 16-27 32-45 49l8 5c37-22 61-38 72-49 16-15 24-30 24-45m595 553c8-8 12-14 12-20 0-11-17-16-51-15l-61-85-10 10 37 104H102c-4-47-19-87-45-119-13-14-25-21-36-21-19 0-21 19-7 56 6 12 16 23 30 33s24 20 29 30c9 18 13 43 12 76l15 1c4-9 4-21 2-36h316v68l-2 45 46-11c18-4 27-10 27-16 0-7-10-14-28-22v-64h331l15 20c5 7 8 10 9 10s10-6 25-18l30-26Z"/></symbol><symbol id="𭔎_K" viewBox="0 0 1000 1000" data-size="21"><path transform="matrix(1 0 0 -1 35 943)" d="M491 877c25-6 37-12 35-17 0-5-14-10-40-17v-66h310l30 31 45-35c22-18 32-30 29-35-3-6-20-8-52-8l-77-88-12 6c8 15 16 32 24 52l22 51 5 10H134c-1-27-3-52-8-73-5-28-14-53-25-73-9-15-18-25-29-31-9-4-18-3-24 1-7 5-11 13-11 23-1 11 3 23 12 34 18 19 34 47 47 84 9 28 18 61 24 100h12v-14c0-7 1-12 2-16v-19h303v66l-2 45 56-11M332 525c5-13 6-25 4-35s-6-16-12-19h114v127l-1 27-98-10c-36-5-68-8-95-10 19-11 37-25 54-41 17-15 28-28 34-39m317-211c-31 24-58 48-80 72-23 25-41 49-52 71h-29V295c1-14-1-24-5-30-3-5-11-8-24-10-10-2-18-2-21 1-4 3-5 10-3 20l3 177c-23-28-46-54-71-79-24-24-68-61-133-108-34-22-71-41-109-60-37-18-77-35-120-51l-5 13c77 32 147 73 212 121 68 52 122 108 160 168H139l-100-5-10 21 94-1h189c-6 1-11 5-15 10-4 6-7 14-10 23-4 11-12 26-25 46-14 22-27 39-39 52l-102-5-3 15c78 4 165 15 262 31 114 19 208 43 282 71l35-26c18-13 26-22 23-28-4-5-20-3-47 7-28-6-56-11-85-17l-93-17c18-6 26-12 26-17-2-7-13-11-33-12V471h53l46 72c21 33 38 62 52 87l39-20c22-12 32-20 30-26-2-5-16-5-42 0l-52-56-56-56h251l40 46 51-44c8-6 11-10 8-13-2-2-10-3-21-4H533c46-57 107-103 181-139 68-33 140-53 217-61v-11c-24-2-43-8-55-16-8-6-15-15-21-29-24 9-48 19-73 31-23 11-46 24-69 38l-64 44M855 92c1-31-6-48-20-52-14-3-25 8-32 34-4 20-16 45-37 75-19 26-39 47-60 64l8 10c39-21 70-42 93-63 26-23 42-46 48-68m-344 70c-1-24-7-39-20-44-13-7-22 1-28 25-3 22-12 43-25 61-10 15-23 29-39 42l10 11c28-14 51-29 70-48 17-17 28-32 32-47M660 28c0-9-10-16-30-21-17-4-41-6-72-6H348c-22-1-41 3-56 11-17 10-25 26-25 46v235l46-11c19-6 28-11 28-16s-10-11-29-19V70c0-15 5-25 16-32 9-4 23-6 40-6h142c26 0 45 2 56 7 12 7 21 20 27 38l37 128 16-1-18-138c0-5 2-9 5-12 1-2 4-4 10-6 5-2 9-4 11-6 4-3 6-8 6-14M167 213c5-45-1-85-16-120-15-37-40-65-75-85-5-2-11-2-17 1s-9 9-11 16c-3 8-3 17 0 25 3 10 10 19 21 27l1 2c23 16 39 31 48 44 18 23 30 54 38 93l11-3Z"/></symbol><symbol id="𭔏_S" viewBox="0 0 1000 1000" data-size="21"><path transform="matrix(1 0 0 -1 43 970)" d="m206 271-3-35-5-33-8-31-9-29-12-29-15-27-16-25-20-23-21-20L72 0l-7 7 31 49 12 24 11 24 8 26 7 26 6 28 3 28 1 28v31h62m98 492 63-11 16-11-16-10V32L304 0v328h-98v-57h-62v57H74v22h230v142H181v-62l-63-33v318l63-11 15-10-15-9V514h123v249m152-453 63-32h227l31 27 59-48-26-21V38L746 7v31H519L456 7v303m290-53H519V60h227v197M379 381v21h223v194h-97l-14-29-29-49-17-24-18-22-20-21-8 5 33 77 27 78 8 28 13 53 6 29 2 8 59-24 13-14-19-5-13-38-11-28-1-3h86v144l62-11 16-11-16-9V617h47l52 52 63-52v-21H664V402h107l52 52 64-52v-21H379M15 718l29-57-23-1-19 15-2 23 15 20m0 0 12-24 1-1v-1l3-5 2-4 2-5 1-1 1-2 3-6 2-4 2-4 17 13 13 14 11 16 9 19 6 19 4 20 1 21v12h710l-34-55-21-31-13-16 7-6 16 11 45 33 38 30 7 8 28 10 26 16-58 48-24-21-2 2-2-5-4-3H488v94l16 9-16 11-62 10V816H104l-4 39H90l-2-25-6-22-6-20-7-17-6-14-9-13-9-10-10-7-10-5-10-4Z"/></symbol><symbol id="𭔐_S" viewBox="0 0 1000 1000" data-size="21"><path transform="matrix(1 0 0 -1 43 972)" d="m795 23-39 16-38 19-36 19-36 22-35 22-33 25-32 28-29 29-23 26V31L431 0v199l-48-39-38-27-40-25-43-23-45-21-47-18-49-16-51-13L17 6l-2 9 96 42 45 21 43 23 79 48 35 27 35 28 29 26H37v22h394v68H236l-62-32v263l62-31h431l28 22-16 12-4 10-5 11-13 22-7 11-17 23-20 22-12 11 2 3-2-1-6 8 13 14 50 66 16 23 6 11 4 7h-1l5 8 48-42 6-18-22 3-17-14-39-28-15-10-32-17-10-6 13-6 15-6 14-7 15-7 13-8 25-19 22-20 9-12 3-23-13-20-18-2 51-43-26-20V320l-63-32v32H494v-68h273l52 52 63-52v-22H513l87-52 34-20 71-33 36-15 37-12 38-13 39-10 42-12-61-54-41 14M431 409H236v-68h195v68m236 0H494v-68h173v68m-236 89H236v-68h195v68m236 0H494v-68h173v68m-211 66-5 11-12 22-7 11-18 23-19 22-13 11 2 3-1-1-6 8 13 14 50 66 15 23 7 11 3 7 5 8 48-42 6-18-23 3-17-14-39-28-14-10-33-17-9-6 12-6 16-6 28-14 14-8 24-19 22-20 10-12 3-23-14-20-24-3-19 14-5 10m-218 0-6 11-11 22-7 11-18 23-20 22-13 11 3 3-1-1-7 8 14 14 50 66 15 23 6 11 3 7 6 8 48-42 6-18-23 3-16-14-39-28-16-10-31-17-10-6 12-6 16-6 29-14 12-8 25-19 21-20 10-12 4-23-14-20-24-3-20 14-4 10M16 729l28-55-23-2-19 16-2 24 16 17m28-55-6 12-1 2-5 10-2 2-1 4-1 1-3 6-1 2-2 3-1 5-1 2-4 6 10 5 10 5 10 7 8 10 9 11 7 14 6 16 7 19 5 21 2 23 10 1 3-24 1-13h322v119l62-10 16-11-16-10v-88h336l4 3 3 6 2-2 23 20 58-47-26-16-30-13-43-34-29-20-16-10-16-13-7 7 14 16 39 57 14 25 1 1H104l1-12-1-21-4-20-6-18-9-17-11-16-13-14-17-12Z"/></symbol><symbol id="𭔑_S" viewBox="0 0 1000 1000" data-size="21"><path transform="matrix(1 0 0 -1 43 971)" d="M582 214V89h-62v125h-35l-21-40-36-45-45-36-54-31-62-25-71-18-78-12-87-7-1 10 85 16 74 20 66 23 56 28 44 31 37 35 27 38 6 13H251v-16l-63-31v168-1l-37-17-38-14-40-13-41-10-3 9 73 39 66 41 61 43 53 49 44 48 5 7 45-45 5-18-20 3-6-5h201l3 3 4 7 1-2 23 19 59-48-27-16-32-13-10-7-13-8-30-17-16-9-17-7-6-2h239l32 26 57-48-26-20v-42l32-32v-21H582M604 5l-14 1-14 2-13 5-11 7-11 7-9 11-6 12-5 13-1 13v13h62v-6l1-5 2-5 2-2 5-2 5-1h254l30 131h11L882 68l18-12 13-20-13-18-19-13H604M450 329H251v-94h183l4 8 10 46 2 40m284 0H513l-6-50-13-44h240v94M543 430H333l-14-11-30-24-32-22-23-14 17-8h216l8 5 39 40 10 12 19 22M27 535l-3 15-3 14v1l-1 11v1l-1 1 188 29 33 5 69 8 5 1v55H41v21h273v76l63-10 16-10-16-10V538l-63-31v95l-34-13-96-30-131-37-8-18-14 13-2 6v2l-1 6v1l-1 2v1m-8 44 12-62-22 59 10 3m505 194 63-10 17-10-17-10v-78l61 21 110 36 25 8 41 17 5 2 3-9 48-41 1-15-22 8-9-3-26-6-80-18-28-5-30-5-31-4-32-3-32-2h-4v-54l1-4 1-5 1-1 2-2 4-1 5-2 7-1h248l25 89h11l-10-90 15-10 10-15-10-16-16-11H608l-13 1-12 1-13 4-11 6-10 8-10 10-7 11-4 12-3 13-1 14v170m-506 3 23-57H18L0 735l1 25 17 16m23-57-9 21-1 3-2 4-1 2v2l-1 2-3 7v1l-1 2-2 6-2 4v2l-1 1 10 3 10 4 9 5 8 6 8 8 7 10 6 12 6 15 6 16 1 19h10l2-20 1-6h323v94l62-10 16-11-16-10v-63h336l4 3 5 7 2-2 21 18 58-48-26-15-48-20-26-16-45-22-15-10-6 8 13 13 49 59 2 3H104v-8l-2-17-4-17-7-15-9-15-12-14-13-11-16-10Z"/></symbol><symbol id="𭔒_S" viewBox="0 0 1000 1000" data-size="21"><path transform="matrix(1 0 0 -1 40 964)" d="m22 53-1 6-1 4-1 3v4h-1v4l53 11v578l63-31h118l31 26 58-47-26-21V138l28 6 34 5 3-8-64-32-66-26-70-24L70 23l-17-4-7-19-14 13v1l-2 7-8 31v1m558 37-1-13-3-14-4-11-6-13-8-11-11-7-12-7-13-4-12-3-14-1v32L391 54v15h111l5 1 3 2h2l1 1 1 1 1 2 1 3 1 5v6h63M18 74l14-61L8 72l10 2m659 843 63-14 16-10-16-9V731l6-127h48l53 53 63-53v-20H747v-1l12-129 16-98 22 75 16 66 2 9 59-24 13-14-19-5-14-49-21-63-24-59-13-27 23-77 24-51 21-33 26 107h9l-9-130 24-14 6-23-12-21-23-5-37 14-32 31-29 44-26 59-7 21-29-44-32-41-35-36-36-29-39-24-5 8 31 31 29 34 28 37 25 41 25 45 18 40-19 86-19 111-12 138H580V396l87 44 6-7-53-48-40-32V90h-63v218l-46-30-28-15-4-21-16 11-2 5-9 20v1l-1 1-5 12-6 14-2 4v1l46 18 50 23 23 10v222H400v20h117v170l-30-7-26-7-28-5-12-1-19-11-13-6-48-91-8-18-9 4 4 19 4 37 2 16 2 15 1 14 2 13v13H62l2-24 1-18v-35l-2-16-2-16-3-14-35 14-14 7-9 4 11 19 10 25 8 32 4 18 7 41 2 23h10l3-22 4-17h111v148l62-10 16-11-16-10V780h107l32 27 45-38 82 41 43 25 40 26 36 29 37-51 1-19-18 8-50-26-7-3V604h103l-6 126v187M252 259H134V98l118 26v135m146 52 25-58-35 53 10 5M252 436H134V280h118v156m0 175H134V456h118v155M0 661l58-25-18-17H16L0 637v24m819 55-7 33-9 31-12 29-13 27-7 13-8 11 6 8 26-18 13-10 12-12 12-13 21-29 9-16 9-18 8-18-2-23-19-16-23 2-16 19Z"/></symbol><symbol id="𭔓_K" viewBox="0 0 1000 1000" data-size="21"><path transform="matrix(1 0 0 -1 61 935)" d="M873 38c4-25-2-38-16-38-8 0-17 8-24 23-28 61-66 112-115 155l13 8 99-77c24-22 39-46 43-71m-46 213-6-13H214c0-27 0-38 1-33-1-6-8-13-20-20-6-4-10-6-14-6-6 0-10 6-10 18v309c-45-67-91-116-138-148l-10 8c31 25 68 73 113 146s75 136 89 189l32-17c20-13 31-22 31-27s-11-9-31-12c-11-23-21-41-30-55l9-7h211l32 117 38-13c16-7 24-13 24-18s-12-11-35-18l-42-68h227l29 40c6 7 9 11 11 11s7-4 15-11l48-47-7-13H490v-87h167l25 34c7 10 11 14 14 14s8-4 18-13l45-42-7-14H490v-90h162l25 33c8 10 12 14 14 14 3 0 9-4 18-12l47-41-6-14H490v-87h234l28 38c7 10 12 15 15 15s7-4 14-12l46-48M631 40c-3-23-10-34-20-34-8 0-16 9-22 27-12 52-37 96-78 131l10 7c39-28 66-50 81-67 18-20 28-42 29-64m-228 3c-3-25-9-37-20-37-10 0-17 10-20 30-6 40-28 84-65 134l10 6c63-56 95-100 95-133M158 173c-7-62-32-115-76-159C71 5 61 1 51 1 40 1 34 7 34 18c0 9 5 19 15 31l50 36c20 19 35 50 47 93l12-5m289 303v87H214v-87h233m0-111v90H214v-90h233m0-107v87H214v-87h233m424 477c8-8 12-15 12-20 0-11-17-15-51-15l-61-74-10 10 37 93H102c-4-47-19-87-45-119-13-14-25-21-36-21-19 0-21 19-7 57 6 11 16 22 30 32s24 20 29 30c9 18 13 44 12 76l15 1c4-9 4-21 2-36h316v75l-2 45 46-11c18-4 27-10 27-16 0-7-10-14-28-22v-71h331l15 21c5 6 8 9 9 9s10-6 25-19l30-25Z"/></symbol><symbol id="𭔔_S" viewBox="0 0 1000 1000" data-size="21"><path transform="matrix(1 0 0 -1 48 969)" d="m281 235-5 12-6 12-16 25-11 14-22 26-2 2V31L155 0v338l-50-45-38-29-41-27-5 7 65 69 29 35 55 69 23 35 23 36 38 74 7 15H42v21h113v172l64-10 15-11-15-10V598h49l31 26 58-47-26-16-13-5-34-59-24-37-27-36-29-34 15-3 15-10-15-10v-18l14-7 9-5 4 4 24 43 12 23 8 20 3 8 1 3h-2l5 9 53-36 8-16-26-1-37-32-40-30 27-19 27-22 23-25 10-14 2-24-16-19-24-1-19 15-4 12M496 44l-7 11 7-11M17 765l25-58H18L0 724v23l17 18m7-18-1 2-1 3-2 7-1 1v1l-2 4 10 3 10 3 8 5 9 7 8 9 6 11 7 12 6 16 6 18 1 19h10l2-20 1-8h319v98l63-9 16-11-16-10v-68h331l5 3 3 8 3-3 22 18 57-48-26-15-40-17-62-36-15-8-16-11-6 8 13 13 40 51 11 15H103v-8l-1-18-5-17-6-16-9-16-11-14-13-12-16-10-5 10-3 7-2 5-1 2-1 2-2 6-2 3v1l-2 4M504 31l-21 24h-15v16l-6 7 6 4v231l-24-25-30-28-32-26-32-21-6 9 24 27 50 62 48 70 2 3v7h4l39 70 43 92 10 26H357v22h212v181l64-11 15-10-15-9V609l-20-8h143l53 51 62-51v-22H633l-10-21 8-36 18-69 20-63 14-36 85 113 19 30 11 17 48-41 7-19-22 3-40-38-34-28-38-31-31-21 29-62 27-48 29-42 33-39 34-33 53-39-58-45-40 36-37 40-32 46-29 50-25 54-22 58-17 64-14 67-10 73v10l-52-93-27-42-3-3h3V118l144 87 6-7-35-41-37-37-53-48-33-27-1-22-17 8Z"/></symbol><symbol id="𭔕_G" viewBox="0 0 1000 1000" data-size="21"><path transform="matrix(1 0 0 -1 39 974)" d="m270 784 3 10c66-23 105-46 118-69 12-25 10-41-6-49h142l29 36c28 35 43 56 44 62 1 3-1 9-5 19 0-1 0 0-1 2l7 4 49-31c10-5 12-9 6-11-11 0-20-1-26-3-28-29-54-55-79-78h204l27 35 61-46c5-3 6-6 5-7 0-1-3-1-10-1H561v-76h132l33 30 42-39c4-3 6-5 5-8-1-2-5-4-10-5l-16-8V356l3-46c-1-16-14-25-41-26v37H223v-14c1-19-13-31-44-35 3 21 5 54 6 98v201c1 9-4 18-16 28l12 13 37-31h146c5 13 9 29 10 47v29H157c-15 1-27-3-38-10l-28 29h282c-5 3-9 8-11 16-3 12-11 27-25 45-11 15-34 30-67 47m153-476 69-26c7-2 12-4 13-6s0-4-5-6c-9-1-17-3-25-6-3-10-8-19-13-27h357l28 32 62-43c5-3 8-5 7-7-1-1-6-2-13-2H516c18-27 44-54 77-79 61-45 123-72 188-83 25-5 46-7 65-8 18-1 41-2 69-1V32c-1 0-3 0-6-1-45-3-67-14-66-31-109 13-199 50-270 112-35 30-63 65-82 105h-39c-9-15-23-34-44-57-32-35-79-68-141-100S117 8 4 1L0 11c99 17 175 38 229 64 55 29 99 59 131 91 19 16 33 33 43 51H102c-18 1-33-3-44-12l-33 32h389c7 11 12 23 16 36 0 12-5 22-15 30l8 5m286 163c-5-1-15-1-30-1-13-1-24-1-31-1-35 0-64 2-88 5-19 7-30 22-34 47v42H396c-10-27-23-47-40-62-27-27-72-50-133-67v-19h486v56m0-72H223v-60h486v60m213 398c1-3 1-5-1-6s-5-1-9 0c-15 3-35-8-58-31-13-11-28-24-43-39l-13 6 51 74H130c-1-12-3-23-6-33-9-32-22-55-39-70-19-15-34-14-44 3-3 7 1 17 13 28 37 35 58 85 64 149h13c1-21 1-40 0-57h719l26 24 46-48M223 563V450c40 15 74 36 101 61 16 13 28 31 35 52H223m338 0v-19c1-23 5-38 11-43 5-4 22-6 51-7l86 1v68H561m-152 94v-27c-1-18-3-34-7-49h124v76H409m-36 281 4 9c66-17 109-40 128-71 9-29 2-45-20-50-10 1-16 9-19 26-3 16-12 32-27 47-16 14-38 27-66 39Z"/></symbol><symbol id="𭔖_J" viewBox="0 0 1000 1000" data-size="21"><path transform="matrix(1 0 0 -1 53 950)" d="M694 257v-87h67l43 43c27-19 48-35 62-48l-12-19H694V57h95l43 52c24-19 45-39 62-58l-12-19H462l-11 25h189v89H488l-11 24h163v87h-75v-29h-54v336c14-6 35-16 63-31h194l35 38c36-27 54-45 54-52 0-5-3-9-9-13l-20-15V237h-54v20h-80m0 152h80v99h-80v-99m0-25V282h80v102h-80m-54-102v102h-75V282h75m0 127v99h-75v-99h75M97 275c-3-9-8-20-14-36-6-15-11-25-13-31l-48 15c33 84 61 167 86 247H8l-8 25h115c20 65 37 129 51 193 61-8 92-19 92-32 0-9-15-16-44-22-11-44-24-90-39-139h102l35 42c36-33 54-53 54-59 0-3-2-5-6-8l-22-15c-15-99-37-178-68-238 59-42 88-75 88-99 0-21-10-32-30-32-11 0-23 10-36 29s-30 38-50 57C197 105 125 49 27 2L8 21c88 51 153 113 195 185-31 25-67 48-106 69m10 25c46-18 86-36 117-53 27 58 47 133 60 223H167c-20-60-40-117-60-170m362 332h314l42 44c29-21 50-38 64-52l-11-17H458V396c0-103-9-183-26-240-16-53-45-106-86-156l-20 16c32 59 53 118 63 179 9 50 14 117 14 201v269c14-6 28-13 42-21l24-12M112 773h297v128c67-1 100-9 100-24 0-9-14-18-43-29v-75h306l38 48c49-46 74-76 74-89 0-6-4-10-13-11l-36-6c-18-17-43-36-76-57l-21 14c19 31 31 56 36 76H113c1-47-6-86-22-116-16-33-33-49-50-49-25 0-38 11-38 34 0 9 7 21 21 36 35 37 54 90 58 160l27-4c2-12 3-24 3-36Z"/></symbol><symbol id="𭔗_J" viewBox="0 0 1000 1000" data-size="21"><path transform="matrix(1 0 0 -1 52 945)" d="M774 659c13-13 22-22 27-29l-11-18H580v-63h75l35 39c42-28 62-47 62-56 0-4-3-9-11-13l-21-12V237h-56v31H209v-34h-56v343c31-12 54-22 68-28h76v63H107l-10 25h200v78c61-1 92-8 92-21 0-7-12-16-37-25v-32h174v80c59 0 89-6 89-19 0-7-11-16-35-25v-36h110l47 56c9-8 16-13 19-17 16 30 27 52 32 66H118c-3-43-11-77-26-101-16-25-32-38-49-38-25 0-37 12-37 36 0 10 5 19 14 27 41 35 64 82 70 142l26-4c2-12 3-24 3-37h290v122c67-1 100-9 100-24 0-8-14-17-43-27v-71h315l37 46c51-45 77-74 77-87 0-5-5-9-14-10l-34-5c-18-15-43-32-73-52m-422-47v-63h174v63H352M209 293h455v64H209v-64m0 89h455v58H209v-58m0 83h455v59H209v-59m314-362c-14 0-24 7-29 20-16 38-48 74-97 107l13 17c55-20 94-38 115-55 20-16 30-34 30-55 0-23-11-34-32-34M35 15C12 15 0 27 0 51c0 12 10 24 29 35 29 17 50 33 64 49 15 18 28 43 38 73l24-9c-4-37-11-67-22-90-9-18-22-38-40-59-20-23-40-35-58-35m818 2c-14 0-25 11-34 33-20 47-63 95-130 143l12 18c65-25 111-50 140-75 32-27 47-54 47-80s-12-39-35-39M452 0c-98 0-156 4-175 13-19 8-29 28-29 60v151c65-2 97-10 97-26 0-9-13-17-40-25V91c0-17 5-27 15-30 16-6 57-9 121-9 108 0 166 8 175 26 10 19 18 51 22 97l26-9c0-39 3-65 7-79 5-15 16-22 31-22-1-31-15-49-43-55-28-7-97-10-207-10Z"/></symbol><symbol id="𭔘_S" viewBox="0 0 1000 1000" data-size="21"><path transform="matrix(1 0 0 -1 43 970)" d="m210 261-2-33-6-32-7-30-9-29-13-28-14-26-17-23-19-23-21-19L77 0l-7 7 16 23 15 25 11 22 11 25 9 24 7 25 5 26 2 27 1 27v30h63m97 473 63-9 16-11-16-10V32L307 0v316h-97v-55h-63v55H79v21h228v138H186l-63-33v247l63-10 15-11-15-10V495h121v239M408 21v21h198v113H483v22h123v106h-79l-21-38-16-22-16-22-19-19-19-19-22-17-7 6 38 69 22 46 9 23 8 23 7 25 7 25 5 26h1l2 8 58-24 13-14-19-5-13-35-7-15h68v108l64-10 16-10-16-10v-78h50l52 52 63-52v-21H670V177h22l53 52 64-52v-22H670V42h82l53 53 62-53V21H408m52 693 63-31h230l31 26 58-47-27-21V402l-62-31v53H523l-63-32v322m293-168H523V444h230v102m0 116H523v-96h230v96M16 730l28-57-24-1-18 16-2 24 16 18m0 0 7-16 2-3 1-2 4-10 1-1h1l4-9v-1l2-2 6-13 17 13 13 13 11 16 9 17 6 19 4 19 1 20-1 12h710l-14-25-39-57-14-15 7-7 16 13 16 10 42 29 24 19 6 4 30 13 26 16-58 47-23-19-2 1-3-6-4-3H488v87l16 10-16 10-62 10V822H104l-4 36H90l-2-23-5-21-6-18-7-17-7-13-8-11-9-9-10-7-10-6-10-3Z"/></symbol><symbol id="𭔙_K" viewBox="0 0 1000 1000" data-size="21"><path transform="matrix(1 0 0 -1 46 962)" d="M106 849c2-5 3-12 3-20 1-4 1-10 1-17l1-10h313v78l-3 45 62-16c26-6 35-12 28-18-5-4-18-8-37-12v-77h314l38 36 50-39c20-14 27-23 20-27-5-2-21-3-47-3l-20-13-36-31-36-28-11 8 27 41 26 40H110c-2-27-7-52-14-74-11-30-24-57-41-80-11-14-20-18-27-13-7 6-11 21-11 47 0 8 2 16 6 26 4 5 10 14 20 27 16 22 27 39 33 53 12 24 17 50 17 77h13m301-136 43-37c14-11 20-19 18-23-4-5-22-8-55-8-60-87-120-157-178-210-60-54-135-105-226-153l-9 13c40 24 75 47 105 71 33 25 63 50 91 77l21 19 34 39c-3 2-5 4-7 7-2 2-4 5-7 9-6 9-12 17-17 22-9 10-19 20-31 28l7 11c25-10 43-19 53-28s16-19 18-30c31 39 53 68 67 88l42 64H256c-31-41-64-77-99-109-39-36-81-68-127-96l-6 11c52 39 98 83 138 132 40 48 74 102 103 161l40-15c15-8 23-15 23-20s-10-8-31-8l-15-19-15-23h107l33 27m147-75c19-21 40-42 61-61 8 9 30 37 66 83l26 40 46-32c11-10 15-17 13-22-3-6-17-9-42-9-49-41-80-66-93-75 43-36 84-63 125-83 42-19 92-35 151-47l1-12c-21-2-36-5-46-10s-20-14-28-28c-80 45-145 90-193 134-64 56-120 124-171 205l10 6c18-25 36-47 54-68 9 8 23 25 43 51l23 34 45-25c10-9 14-17 11-21-2-6-16-9-42-9-29-22-49-40-59-54l-1 3M331 469h223l36 36 57-33c8-5 10-9 7-13-2-4-8-6-18-6H326l-80-2-13 21 98-3m-35-76h355l41 38 58-35c9-4 11-9 7-13-3-3-9-4-19-4H282l-76-3-13 20 103-3m16-71h248l37 33 56-29c9-5 11-9 8-14-3-4-10-6-20-6H324l-70-3-14 21 72-2m5-77h250l40 33 53-28c8-6 10-10 5-15-4-5-11-7-20-7H259l-13 18 71-1M296 70h299v91H296V70m-54 130 52-23h290l30 26 47-28c13-8 17-15 13-21-3-7-13-10-28-10V55c2-9 1-17 0-21-4-5-11-9-23-12-13-2-21-2-24 1-2 3-3 10-3 22v9H296V41c1-13 0-21-3-25-3-5-10-9-23-13-12-3-19-2-22 3-2 3-3 9-3 19l1 8v119l-4 48Z"/></symbol><symbol id="𭔙_S" viewBox="0 0 1000 1000" data-size="21"><path transform="matrix(1 0 0 -1 36 965)" d="m196 183 63-32h410l31 26 58-47-27-21V31L669 0v31H259L196 0v183m473-53H259V52h410v78m5 137 42-37v-21H212v21h430l32 37m0 79 42-37v-21H212v21h430l32 37m84 79 42-37v-21H128v21h598l32 37m-552 93-4 7-5 8-5 8-14 17-30 27-7 4-41-28-30-16-29-13-5 8 68 64 42 46 36 49 16 27 29 50h-1l5 10 53-36 9-17-21-1-19-27h147l6 8 3-2 24 20 57-47-26-16-19-8-24-30-39-42-41-39-42-36-45-34-47-29-48-25-50-23-52-18-54-14-3 9 50 23 47 26 45 26 44 29 29 23-7 4-2 8m606-82-51 25-49 27-44 31-41 33-36 36-33 38-29 40-23 44-18 46 8 4 28-39 14-16h235l3 2 3 5 2-1 24 20 58-47-26-16-24-10-18-15-14-12-33-24-38-25-23-12 54-31 46-22 50-20 91-31-61-53-55 23m-211 79 52-48v-21H274v21h284l43 48m-314 54-5 3-2 6-4 7-5 7-6 7-18 15-11 8-26 18-9 3-24-24-25-20-2-2 3-1 15-3 14-3 12-4 13-5 12-6 11-7 11-6 10-8 9-9 1-1 26 25m476 115H556l31-34 34-31 37-29 17-11 50 55 23 30 15 20m-377 0H237l-13-17-15-16 5-1 16-1 16-2 28-6 26-10 12-5 9-7 8-6 12 13 33 42 12 16M24 747l26-58H25L8 705v24l16 18m10-21-4 7-4 9-2 5 11 3 9 4 10 6 8 8 8 8 7 12 7 14 6 15 6 19 1 20 9 1 2-21 2-10h323v104l62-10 16-11-16-10v-73h336l4 3 4 8 2-2 22 18 58-47-26-16-38-16-49-32-32-17-15-11-6 8 13 12 47 65 4 7H111v-10l-1-19-5-17-5-18-9-15-12-14-14-13-15-11-16 36v1Z"/></symbol><symbol id="𭔚_K" viewBox="0 0 1000 1000" data-size="21"><path transform="matrix(1 0 0 -1 59 953)" d="M834 128c-8 4-16 5-23 5s-13-3-18-11c-5-7-8-10-11-10-6 0-14 3-26 10-35 17-67 37-94 59-27 23-61 53-102 91V124c0-6 0-13 1-20 0-7 1-12 1-13 0-5-9-10-25-15-9-5-15-7-18-7-4 0-5 3-5 8 0 2 0 6 1 13 0 8 1 15 1 23v169c-26-34-56-64-89-89s-76-52-130-80l-8 11c31 15 65 40 104 75s76 82 111 141H389c1-15 1-24 0-26-2-2-9-5-24-10-6-2-11-3-14-3-6 0-8 4-8 13 0 3 0 10 1 21 0 11 1 22 1 32v93l-5 41 54-22h294l11 19c5 6 7 9 8 9s7-3 18-11l29-23c10-8 16-14 16-19s-10-10-30-16v-89c0-17-1-27-3-30-1-3-8-7-22-14-8-3-13-5-16-5s-5 3-5 9c2 20 3 31 3 31H560v-40c32-32 67-60 104-83l88 82 26-21c9-7 13-13 13-17 0-8-9-9-28-4l-81-52c62-33 114-55 156-65l-4-12m31-87c-21-6-35-16-40-28-4-8-15-12-34-12-185-1-312 4-380 15-89 13-156 47-202 102L92 38c1-7 2-15 2-21 0-9-3-14-7-14-6 0-15 6-28 18L34 47l148 79v203H51v20h115l16 20c6 8 11 12 15 12 0 0 5-3 16-10l25-23c9-8 14-13 14-17 0-2-3-5-9-7-10-7-16-11-18-13V129c44-59 196-88 455-86 45-2 107 2 185 10V41m4 750c9-8 14-15 14-21 0-13-14-19-42-19l-56-53-14 6 26 71H84c-5-42-15-75-32-99-11-17-23-25-34-25-12 0-18 8-18 24 0 7 2 15 5 25l44 45c12 17 17 50 16 100l17 2c1-12 1-30 2-52h328v72l-5 40 53-9c16-3 24-8 24-15 0-8-9-16-29-24v-64h327l19 22c9 11 14 17 16 17s9-6 24-17l28-26M697 361v98H389v-98h308m117 198-6-13H282v21h229v78H346v21h165v52l-4 40 54-12c14-2 21-6 21-11 0-6-9-13-27-22v-47h90l16 18c9 12 14 17 16 17s10-4 21-14l35-29-5-13H555v-78h171l15 24c7 11 11 17 13 17 3 0 8-4 17-12l43-37m-578 67c-2-14-8-21-18-21-5 0-11 3-17 9-2 2-11 18-25 46-13 23-30 43-54 60l9 11c50-30 79-48 87-55 14-13 20-30 18-50m-22-148c0-16-7-25-20-25-6 0-11 3-15 8l-16 41c-10 21-31 40-63 57l5 12c72-30 108-61 109-93Z"/></symbol><symbol id="𭔛_S" viewBox="0 0 1000 1000" data-size="21"><path transform="matrix(1 0 0 -1 40 968)" d="m74 297 64-31h166l31 26 59-48-27-20V37L304 6v42H138V32L74 0v297M410 26v21h229v219H445v21h334l52 53 64-53v-21H702V47h104l52 53 63-53V26H410M304 244H138V68h166v176m50 385-28-9-26-8-26-6-24-5v-95h12l51 52 64-52v-22H250V380h75l43 47 53-47v-21H16v21h171v104H67v22h120v86l-25-3-30-2h-30l-33 2v9l115 33 3 1v102l63-9 16-11-16-10v-51l55 23 16 8 5 2 4-10 19-17 1 1 3 17 1 17 2 16 5 28 3 27 1 3H69l1-14 2-23v-21l-1-21-2-17-3-17-3-14-7-15-2 2-1 1h-1l-8 6-5 4-1 1-1 1-7 5h-1l-2 1-10 8h-2l-1 1-4 4-5 3 5 4 5 7 6 11 4 13 6 17 4 19 5 23 9 51 3 29h10l3-29 2-20h120v148l63-10 16-11-16-10V788h115l31 26 58-46-26-16-13-6-12-21-14-27-17-28-10-15-3-6 14-12 1-16-20 8m331-240-14 39-7 18-18 39-20 37-23 40-12 17h-1v2l1 2 16 41 64 154 3 5 53-34 9-17-20-1-33-48-39-54-40-48 30-22 17-17 31-34 14-18 26-38 10-19 11-21-1-24-16-17-25 1-16 17m-159 19-14 38-19 39-20 37-23 40-12 17v1l-1 1 1 2 16 41 58 137 5 11-1 1 5 10 53-34 10-17-21-1-45-66-27-36-40-48 29-22 18-17 31-34 14-18 25-38 12-19 11-21-1-24-18-17-23 1-18 17-5 19m312 8-17 36-20 37-49 74-12 15-2 1v2l1 2 28 63 43 97 13 35h1l3 5 53-34 9-17-21-1-47-67-27-35-41-47 30-20 35-31 32-33 14-18 27-36 11-19 1-24-14-18-25-1-18 14-8 20M5 663l51-37-21-12-22 5-13 21 5 23m849 250 63-53v-21H423v21h379l52 53Z"/></symbol><symbol id="𭔜_S" viewBox="0 0 1000 1000" data-size="21"><path transform="matrix(1 0 0 -1 34 979)" d="m841 63-28 18-27 18-25 19-24 22-21 23-20 25-18 26-9 18V31L605 0v200l-18-20-25-24-28-22-29-20-31-18-33-15-35-13-36-9-3 8 61 38 27 20 26 21 25 22 21 22 21 25 17 25 17 27 1 2H381v21h224v92h-96v-16l-63-31v409l63-31h56l1 2 5 11 17 40 13 31-1 1 5 9 50-39 7-18-25 1-23-19-28-19h168l32 26 58-48-27-20V371l-63-31v42H621l48-8 16-11-16-9v-64h108l53 52 63-52v-21H669v-1l56-55 44-35 24-17 24-14 26-12 26-11 63-23-61-52-30 14M74 233v1l-3 6v2l-5 14-3 9v2l-2 5-2 5-1 2-1 3-2 5v3l-1 1 164 48 6 1v209h-87l-20-52-14-31-16-30-18-29-19-26-8 4 28 94 17 63 7 34 6 33 4 36 5 36 2 30 2 17 62-18 13-13-17-8-3-18-8-36-9-36-8-29h81v215l62-11 16-9-16-10V570h22l52 52 64-52v-21H286V357l45 12 82 19 3-10-76-36-54-23V37L224 6v287l-120-50-9-3-5-19-15 10-1 2m-20 58 21-60-31 56 10 4m700 198H509v-86h245v86m0 101H509v-79h245v79m0 101H509v-81h245v81M16 759l26-57-23-1-19 16v23l16 19m26-57-21 46-5 11 10 3 9 5 10 6 9 8 8 11 7 13 7 15 6 18 5 19 2 23h10l3-23 1-11h322v112l62-11 16-10-16-9v-82h336l4 3 3 6 2-1 23 18 58-47-26-15-33-14-3-3-24-18-27-18-31-19-16-11-7 6 14 15 53 77H104v-11l-1-19-4-19-7-17-9-18-11-14-13-14-17-11Z"/></symbol><symbol id="𭔝_K" viewBox="0 0 1000 1000" data-size="21"><path transform="matrix(1 0 0 -1 50 944)" d="m890 337-3-13H463c17-8 25-14 25-20 0-3-7-9-21-18v-9h206l9 16c7 12 13 19 15 19 4 0 9-4 18-11l17-15c13-10 20-19 20-25 0-5-8-9-23-14v-37h15l12 20c5 10 9 14 12 14s11-4 23-13l35-28-9-13h-88v-52h63l19 28c5 8 10 12 13 12s9-4 19-11l45-35-5-14H729v-18c0-34-2-52-4-57s-17-15-43-30l-21-7c-10-3-18-5-23-5-6 0-8 3-8 9v11c0 12-6 19-19 22l-75 18 5 14 79-12c11-1 19-1 26-1 26 0 39 11 39 33v23H218V65c0-26-1-42-2-45-1-4-7-9-20-14-8-4-13-6-16-6-4 0-6 2-6 7-1 2-1 10 0 21 0 15 1 27 1 36v54H1v20h174v52H18v20h157v47l-5 31 53-11h200v47H1v21h308v39H114v20h195v56H70v20h239v14l-5 48 41-9c22-4 33-10 33-16 0-4-9-12-26-25v-12h209v12l-2 46 41-6c20-2 31-7 31-14 0-8-9-16-27-26v-12h151l16 26c7 12 14 17 19 17 3 0 10-3 21-11l49-34-6-18H604v-56h80l31 35c7 9 11 13 13 13 1 0 7-4 17-13l51-43-4-12H604v-39h173l31 43c5 8 9 11 13 11 2 0 7-3 16-11l53-51m-329 67v56H352v-56h209m0-59v39H352v-39h209m124-135v47H467v-47h218m0-72v52H467v-52h218m-262 72v47H218v-47h205m0-72v52H218v-52h205m459 681c12-11 18-20 18-26 0-8-14-14-44-17l-70-100-13 11 33 114H89c-5-74-16-122-33-145-13-16-25-24-35-24-14 0-21 11-21 32 0 7 1 14 3 24 5 11 15 24 28 39 15 14 24 27 29 40 7 19 11 48 10 87l16 2c1-7 2-19 3-34h332v22l-5 44 52-12c17-3 25-8 25-16s-10-16-29-23v-15h327l17 22c9 12 14 18 16 18s10-6 25-18l33-25m-69-205c2-29-4-44-17-44-10 0-18 8-24 24-22 49-58 91-110 126l9 11c60-35 92-53 95-55 27-18 43-39 47-62m-273 75c7-10 10-20 10-30 0-12-4-17-13-17-6 0-13 4-21 14-15 14-25 23-31 28-18 13-43 28-75 43l7 11c64-17 105-33 123-49m145-106c0-20-23-29-68-29H310c-23 0-39 3-48 9-13 10-19 30-19 61v99l-5 40 47-11c20-5 29-10 29-16 0-7-9-13-27-18v-93c0-17 4-28 12-33 4-3 13-4 26-4h247c40 0 62 11 67 33l17 77 11-1-6-71c-1-8 2-14 9-18 7-5 11-11 13-15 1-4 2-7 2-10M155 749c-8-77-32-137-72-179-9-7-17-11-24-11-11 0-17 8-17 24 0 11 3 23 10 37 1 3 14 15 39 38 22 20 40 50 55 90l9 1Z"/></symbol><symbol id="𭔞_S" viewBox="0 0 1000 1000" data-size="21"><path transform="matrix(1 0 0 -1 37 960)" d="M237 241H26v22h358l53 52 63-52v-22H300V84l-1-13-2-13-4-13-7-12-9-11-10-8-12-7-13-4-13-2-13-1v31l-84 16v16h91l5 1 3 2 3 2 1 5 1 5 1 6v157m615 118h-2 2m-720-33-58-28v219l58-29h261l29 27 55-48-26-18V326l-58-28v28H132m51 141h-51V348h51v119m107 0h-55V348h55v119m103 0h-51V348h51v119m-162 67h147l14 10 9 14-9 14-14 9 11 69h-11l-23-68H231v-48m-84 196 64-9 16-11-16-10v-90l-1-6v-5l1-3v-3l2-4 2-3 4-1 6-2 6-1v-48h-12l-12 1-13 4-11 5-10 8-9 10-7 10-5 12-4 14-1 12v120M53 605l41-47-23-8-21 11-8 23 11 21m22-26-3 3-1 1v1l-3 2-4 6-3 4v1l-3 2-4 5-1 1 5 2 5 4 6 7 6 9 6 11 6 13 5 15 10 36 2 22h8l2-22 4-20 1-19 1-17-1-18-1-16-4-14-5-15-6-13-9-12-3 3-8 9-2 2-2 2-2 2-2 3m347 29-3 24-7 23-9 25-12 24-10 11 6 8 12-10 13-8 13-9 2-2 4 15 4 15 6 26 4 12 4 18H75l1-9 1-20-1-19-1-16-3-17-4-14-6-15-9-12-2 1-1 2-5 5-1 2-5 5-2 2-5 5-2 2-4 5-1 1-5 6-2 2-4 4-2 2-1 2 4 2 5 4 5 8 7 10 5 12 5 16 6 16 5 21 4 21 2 25h9l2-25 2-13h159v120l63-10 16-11-16-9v-90h157l31 26 58-47-26-15-19-8-11-15-26-31-20-23-2-2 19-23 9-12 8-13 7-14 4-15-4-23-19-14-24 5-13 20-1 11m-151 51-3 9-5 19-7 17-5 9-11 18-8 7 5 8 10-5 11-5 11-5 19-12 10-8 9-8 7-10 8-9 8-11-1-24-16-17-25 1-17 16v10M11 704l42-46-23-8-22 9-8 24 11 21m885-355-3-14-6-12-6-10-9-11-9-9-11-8-12-5-13-4-13-2-13-1v32l-42 15v16h42l7 1 5 1 4 1 4 1 5 5 5 7 2 4 1 5v302l-90-39V215l-63-31v413l-75-33V110l1-6 1-4v-4l1-1 3-2 4-2 5-1 7-1h236l31 132h10l-9-132 18-13 13-18-13-19-19-13H628l-14 1-12 2-13 4-12 7-11 9-8 11-7 11-4 13-2 13-1 13v427l-64-26-8 18 72 32v232l62-11 16-11-16-8V588l75 32v293l63-10 16-10-16-10V646l90 41v11l31 27 58-48-26-16V359l-1-10Z"/></symbol><symbol id="𭔟_J" viewBox="0 0 1000 1000" data-size="21"><path transform="matrix(1 0 0 -1 52 955)" d="M275 534c61 6 114 12 161 19l4-26c-111-22-223-39-335-51-7-24-14-36-21-36-12 0-24 27-35 81 57 2 115 5 172 9v69H103l-10 25h128v70H89c-15-22-32-33-50-33-22 0-33 11-33 32 0 9 5 17 15 24 40 31 64 74 73 129l24-3 3-33h295v100c66 0 99-7 99-21 0-8-14-17-42-27v-52h317l40 42c44-39 66-64 66-76 0-5-4-9-11-10l-31-6c-5-4-19-13-42-27 11-10 19-18 24-23l-9-16H671v-70h61l37 42c21-16 39-33 55-51l-11-16H671v-81h112l36 41c22-17 41-33 56-50l-9-16H448l-12 25h182v81H500l-10 25h128v70H479l-12 25h277l36 41c2-1 5-4 9-7s6-5 7-6c2 11 3 24 3 38H120c-2-22-8-44-17-66h253l38 44c23-18 41-36 54-52l-11-17H275v-70h60l37 42c21-16 39-33 55-51l-11-16H275v-65m-68-92h471l34 31c41-24 61-42 61-53 0-4-3-7-8-10l-22-14V139h-57v22H204v-35h-57v337c24-8 44-15 60-21m-3-25v-57h482v57H204m482-231v66H204v-66h482m0 91v58H204v-58h482M844 1c-8 0-18 3-28 10-62 35-164 68-307 97l13 22c234-19 351-51 351-96 0-22-10-33-29-33M13 0 0 24c125 24 228 62 309 115 51-23 76-41 76-54 0-7-10-11-29-11-3 0-12 1-26 2C237 38 131 13 13 0Z"/></symbol><symbol id="𭔠_S" viewBox="0 0 1000 1000" data-size="21"><path transform="matrix(1 0 0 -1 43 965)" d="m73 281 63-31h181l32 26 57-47-26-21V31L317 0v31H136L73 0v281M413 37v22h215v241H466v21h257l52 52 63-52v-21H691V59h95l52 51 63-51V37H413m-96 192H136V53h181v176M11 341v20h184v112H61v20h134v101H89v20h106v105l63-11 16-10-16-10v-74h11l43 47 52-47v-20H258V493h39l43 48 53-48v-20H258V361h89l43 48 48-45 26 28 24 31 23 33 18 35 15 38 13 40 9 42 6 46 3 49 1 42h-81l1-15 1-25v-23l-1-22-3-18-3-19-5-16-6-14-7 5-1 1-8 5-3 2-1 1-2 1-1 1-2 1-17 13-1 1-1 1-3 2-1 1-3 2 5 5 5 8 6 11 6 16 5 17 5 21 5 24 4 23-26-15-11-6-29-49-16-30-11-14-9-18-8 4 4 17 9 52 2 15 2 15 4 30H70l2-14 1-24v-22l-1-20-2-19-3-16-4-16-7-15-18 13-1 1-1 1-3 2-1 1-13 10-3 3-1 1-3 1-5 3v1l-2 1 5 3 5 8 6 12 5 14 6 17 5 19 4 23 10 53 3 29h9l3-30 2-20h127v151l63-11 16-10-16-10V779h123l31 27 57-47 5 31 4 31 9 1 4-32 2-21h135v158l63-11 16-11-16-9V769h132l32 26 58-47-26-17-13-4-20-39-27-45-11-17-8-17-8 3 5 19 2 19 6 35 2 15 3 15 2 14 2 13v6h-84V531h-62v217h-37l-4-46-7-53-10-48-14-46-18-43-22-39-25-36-29-32-32-28-36-23v-13H11m749 106-14 1-14 2-12 4-12 7-11 9-8 9-6 13-5 13-2 13v13h62v-7l1-4 2-5 2-2 5-1 5-1 7-1h63l31 131h10l-10-131 19-13 13-18-13-20-19-12h-94M428 633l51-37-22-13-23 6-12 20 6 24M5 651l51-38-21-11-23 5-12 20 5 24Z"/></symbol><symbol id="𭔡_S" viewBox="0 0 1000 1000" data-size="21"><path transform="matrix(1 0 0 -1 36 972)" d="m98 768 63-11 16-10-16-10V354l-3-60-3-56-4-49-5-43-7-40-9-33-10-28-13-22L94 8 78 0l-6 8 6 13 4 15 5 20 4 26 3 31 3 36 2 44 1 47v55l-2 59v414m550 21-15-9 4-138 4-41h127l43 46 52-46v-22H643l6-73 21-113 24-95 8-21 19 40 22 55 23 68 57-28 12-15-20-3-16-43-28-58-29-53-16-24 25-51 28-42 27-26 4-3 27 118h11L838 80l21-9 9-22-9-22-22-9-36 8-35 22-35 35-34 50-13 26-9-11-37-39-41-33-43-28-45-24-48-16-4 9 42 25 39 29 37 32 34 35 32 38 20 30-27 73-27 100-20 119-8 81H181v22h163v88H207v22h137v100l62-11 16-11-16-9v-69h41l43 47 53-47v-22H406v-88h171l-3 37-5 162v13l63-13 16-11M407 563l58-10 14-11-14-10v-58h38l32 36 42-36v-22H465v-93h14l33 37 42-37v-20h-89v-98h49l33 37 42-37v-21H465V104l-58-29v488M306 339h-94v20h94v90h-89v22h89v92l57-10 15-11-15-9V290l-3-36-6-34-10-31-13-27-17-23-20-21-23-16-25-13-28-8-30-4-2 9 26 12 21 13 20 16 16 17 12 18 10 21 7 22 5 25 1 7-18-12-40-25-19-10-7-22-15 13-2 6-1 2v2l-1 2-1 4-1 3-1 4v1l-1 3-1 4-2 4v3l-1 1-1 3-2 7-2 7v3l13 2 15 3 13 2 15 3 14 3 14 2 30 7h4v77m-118-99 17-59-28 56 11 3M20 764l-3 6 11 3 9 3 10 6 9 7 7 8 8 12 6 12 7 16 4 17 3 19 9 1 2-20 2-9h329v99l63-10 16-11-16-9v-69h344l4 3 4 8 3-2 20 17 58-47-27-15-42-19-32-19-29-16-17-8-12-8 16-13 11-11 4-24-13-19-24-5-20 13-9 19-6 10-5 9-14 18-18 20-8 10-12 6 3 9 13-5 14-3 14-4 13-5 25-14 8-5 12 12 41 52 8 10 4 5H104v-27l-5-17-7-16-9-16-12-14-13-12-17-10-21 51v1m-3 6 24-58H17L0 729v24l17 17Z"/></symbol><symbol id="𭔢_G" viewBox="0 0 1000 1000" data-size="21"><path transform="matrix(1 0 0 -1 32 978)" d="m482 733 38-43h243l21 29 44-37c4-3 6-6 6-9 0-4-4-7-11-9l-18-9V355l3-59c0-23-13-34-40-34v51h-45V106c-1-16 3-26 11-30 7-4 24-6 52-6h18c35-1 56 3 64 11 9 7 15 25 18 56v5c3 35 5 68 6 98h14l6-87c0-33 8-56 24-68-11-20-27-33-46-38-17-6-52-9-105-9-41-1-67 3-78 12-13 7-20 25-21 54v209h-68C610 136 514 32 331 0l-2 13c161 53 244 153 249 300h-52v-17c3-25-12-40-44-44 5 39 7 89 7 148v283c0 10-6 22-19 35l12 15m-268 37 71-29c4-1 6-3 7-5 1-1 1-3-2-4-11-5-19-10-24-17v-41h102l24 34 57-44c6-5 8-8 7-9 0-1-5-1-16-1H266v-41c25-6 61-19 106-40 39-19 62-38 69-57 4-17 1-28-10-33-10-5-19 1-27 17-11 16-30 34-59 53-22 15-48 29-79 43v-66l2-47c0-11-4-19-12-24-6-5-16-9-31-12 2 19 4 60 6 121v76C190 558 114 492 3 445l-3 12c92 55 156 120 193 197h-90c-15 0-27-4-37-11l-28 31h193v50c0 8-8 20-25 37l8 9m693 36c1-1 1-2 1-4 0-3-1-4-4-4s-5 0-6 1c-21 4-57-21-106-75l-11 6 51 80H109c-13-67-35-100-66-100-14 1-21 8-22 19 0 2 4 8 12 17 38 46 60 93 67 142h14v-15c0-15-1-30-2-43h723l21 24 51-48M768 555H526V451h242v104m0-120H526V333h242v102M382 320l26 33 60-43c5-3 7-5 7-7s-4-3-13-3H259V86c2-45-26-69-83-73 1 25-31 43-95 54l2 14 29-6c36-7 63-10 80-11h2c16 0 25 12 28 36v200H78c-17 0-30-4-39-12L5 320h377m144 251h242v98H526v-98M329 426l25 33 61-43c5-3 7-5 7-7s-4-3-13-3H140c-17 0-30-4-39-12l-34 32h262M124 266l49-31c7-4 11-7 11-9s-1-3-4-4h-4c-7 0-13-1-19-4-35-50-84-100-147-150l-7 8c65 73 106 128 121 165 0 5-2 11-7 19l7 6m164-23 6 11c87-43 130-88 130-133-1-16-9-26-24-30h-1c-10 0-16 9-19 27-7 46-38 88-92 125m101 703 4 10c67-22 101-52 102-89-1-17-9-26-24-27-11 0-17 7-18 21-5 33-27 62-64 85Z"/></symbol><symbol id="𭔣_K" viewBox="0 0 1000 1000" data-size="21"><path transform="matrix(1 0 0 -1 51 952)" d="M894 368c-19 0-31-8-38-25-4-10-8-15-12-15-7 0-22 6-46 18-69 30-134 81-194 153H326c-5-8-20-23-45-45l25-16h308l15 13c6 5 13 4 21-3l30-27c5-4 8-8 8-11 0-4-6-8-17-14v-78c-1-4-9-8-22-14-7-4-13-6-16-6s-5 3-5 9v24H303c-1-6-2-12-2-19-2-5-10-10-25-16-6-3-11-5-13-5s-4 2-4 5v15c0 10 1 18 1 25v95c-60-43-144-85-253-124l-7 16c126 43 219 101 281 176H28v21h270c27 26 41 43 42 52-69-3-149 0-242 10v12c52-3 101-4 146-4 173 0 322 21 449 63l36-28c9-7 13-14 13-20s-6-9-19-9c-12 0-25 2-40 8-82-17-178-27-288-30-8-13-24-31-50-54h409l23 25c12 12 19 18 20 18 2 0 9-5 21-17l38-36-5-11H626c22-27 56-53 103-76 52-23 108-37 166-42l-1-13m-12 425c10-8 15-15 15-21 0-12-15-18-47-18l-45-47 18-16-6-13H603v-14c1-13 1-21-1-24-2-4-10-8-24-14-7-3-12-4-15-4s-5 3-5 9v47H336v-18c3-13 3-21 2-24-2-4-9-9-20-16-9-5-16-8-19-8-6 0-9 6-9 17 0 6 1 14 3 25v24H85v20h209v32l-2 40 44-13c21-5 31-10 31-15 0-6-10-14-31-25v-19h222v33l-4 40 40-10c19-4 29-9 29-16 0-6-7-13-20-20v-27h113l32 36c7 7 11 10 13 10s6-3 12-10l11-10 23 52H91c-7-58-20-100-39-128-12-14-22-21-31-21-13 0-19 10-19 31 0 7 1 15 3 24 4 13 14 26 27 40 14 13 23 26 29 38 7 21 11 50 10 87l17 2 3-52h336v62l-5 44 54-11c17-4 25-9 25-16 0-8-10-16-29-23v-56h320l17 21c9 12 15 18 16 18 2 0 10-6 25-18l32-25m-60-531c7-7 11-12 11-16 0-5-10-11-30-18V98c0-30-1-47-1-51-3-11-11-20-25-26L754 9c-11-5-18-7-23-7s-8 6-10 18c-2 11-8 18-19 22l-62 13 5 16 75-9c8-3 14-4 18-4 9 0 15 3 17 8 2 6 4 17 4 33v151H164V57c0-22 0-34-1-36-1-5-8-10-20-14-8-5-13-7-16-7-4 0-6 17-6 50v205l-3 40 56-24h568l21 19c9 9 14 13 16 13 1 0 6-4 14-10l29-31m-191-72c8-6 12-11 12-15 0-3-9-9-25-19v-52c-1-16-2-25-3-25l-22-12c-8-4-13-5-16-5-2 0-3 2-3 8v23H339c-1-22-1-33-1-35-1-3-9-7-22-12-6-3-11-4-14-4-4 0-6 2-7 6-1 2-1 9 0 18 1 12 1 21 1 28v79l-4 46 52-25h219l11 15c7 8 11 13 13 13 3 0 9-4 18-12l26-20m-3 162v66H303v-66h325m-54-238v59H339v-59h235Z"/></symbol><symbol id="𭔤_S" viewBox="0 0 1000 1000" data-size="21"><path transform="matrix(1 0 0 -1 42 961)" d="m722 577 4 4h1l27 23 58-47-27-16-15-7-32-46-4-5h35l6 1 5 1 5 1 3 2 3 2 3 2 5 7 2 5 2 7 3 13 4 16 4 37 2 23 3 23 3 54 3 49h-54l-3-40-68-24 29 205h-79l-8-63-12-67-16-62-17-59-15-39h140M205 243H24v22h298l53 52 63-52v-22H268V73l-3-13-4-13-7-12-8-11-12-8-10-7-13-4-14-2-13-1v31l-84 16v15h84l6 1 5 1 3 1 2 1 1 1 1 1 1 1 1 4v5l1 6v157m-86 85-53-26v215l53-27h225l26 27 53-48-27-16V328l-52-26v26H119m45 141h-45V350h45v119m93 0h-51V350h51v119m87 0h-45V350h45v119m-133 67h121l14 10 9 14-9 14-14 9 11 69h-11l-22-68h-99v-48m-84 196 63-9 16-11-16-10v-90l-1-7v-4l1-3v-3l1-2 1-2 2-3 4-1 6-2 7-1v-48h-13l-12 1-12 4-12 5-10 8-8 9-7 11-5 12-3 14-2 12v120M66 553l-21 10-9 21 9 22 4 2 5 4 6 7 5 9 6 12 5 12 10 33 4 19 2 22h10l1-22 3-20 2-19 1-18v-15l-1-17-3-14-3-14-5-13-7-11-24-10m300 58-2 24-2 11-3 12-6 24-10 24-8 11 7 7 10-10 11-8 11-9 3 14 3 14 5 26 3 12 2 11 1 8H69l1-10 1-19v-34l-2-16-4-15-4-13-8-13-3 3-13 12-12 11-1 1-7 8-6 5-3 3 4 2 5 4 4 8 6 10 5 12 5 16 5 17 9 42 2 25h10l1-25 2-13h134v120l63-10 16-11-16-9v-90h129l31 26 57-47-26-15-16-7-43-58-10-12-1-2 10-12 8-12 8-12 8-13 5-14 6-14-6-24-20-13-23 5-14 21v11m-132 42-2 18-3 18-5 18-8 18-4 8-7 7 6 7 8-5 10-4 9-6 10-5 17-15 8-9 7-9 8-9 6-11-1-24-18-16-24 1-17 18M8 705l45-43-22-10-22 9-9 22 8 22m855-210-3-13-6-11-6-12-8-10-10-9-11-7-12-5-12-4-14-2-12-1v31l-51 10-26-30-13-14 17-3 16-11-16-9v-84h84l53 51 63-51v-22H696V84l-1-13-2-13-5-12-5-13-9-11-11-8-12-6-12-4-14-3-13-1v32L507 48v15h111l5 1 3 1 3 1v1l1 1 1 2 1 3 1 5v211H434v22h199v114l31-5 3 7 6 17 12 32v7h3l28 74H574l-21-44-26-46-29-40-31-35-35-31-7 7 26 36 24 38 22 41 20 46 17 49 16 52 13 58 11 59 8 66 5 54h-89v22h232l32 26 57-48-26-15-7-3-12-102h51l31 26 59-47-26-16h-2v-7l-3-58-4-52-3-23-3-21-6-37-5-17m-58 16 24-7-24 7Z"/></symbol><symbol id="𭔥_S" viewBox="0 0 1000 1000" data-size="21"><path transform="matrix(1 0 0 -1 39 962)" d="M240 241H24v22h363l52 52 63-52v-22H303V84l-1-13-2-13-4-13-7-12-9-11-10-8-12-7-13-4-13-2-13-1v31l-84 16v16h91l3 1 5 2 2 2 2 5 1 5 1 6v157M804 90l61-15-4-12-5-12-6-12-8-10-11-9-10-7-12-6-13-4-13-2-12-1v31L665 47v16h111l6 1 4 1 4 2 5 4 3 3 2 4 2 5 2 7m-316 25 60-22-18-18-23-1-18 18-1 23m67 810-12-520 63 31 1 26h226v-40l-2-48-1-46-2-42-3-40-3-37-4-33-4-32-5-29-5-25 61-15 6 29 5 31 5 32 4 36 4 38 2 41 2 44 2 46 1 49v25l26 16-58 47-31-26H607l5 210h263v21l-62 53-53-53H613l4 182 16 6-16 11-62 12m-11-563h-10l-6-39-12-98-4-28-9-44-5-16-5-13-5-9 60-22 3 15 3 18 1 20 1 23v53l-1 31-3 33-3 37-5 39m27-222 64-6-12-21-22-8-22 11-8 24m32 223 12-49 9-47 4-24 3-22 2-23 2-43v-21l-64 6 4 19 5 40 5 43 6 95 2 24 10 2m57-173v43l-1 40-1 19-2 19-2 34-2 16 9 4 18-30 8-17 7-18 6-19 11-42 4-22 4-24 3-23-9-24-22-9-22 9-10 21 1 23m82 46v18l-2 17-1 17-6 31-3 15-3 15-4 14-6 13 8 6 21-23 11-12 10-15 7-16 8-16 7-18 6-18 6-20 5-20-8-24-22-11-22 8-12 21v18M6 325v21h55v176l57-28h269l29 27 55-48-27-18V346l24 31 32-31v-21H6m167 148h-55V346h55v127m106 0h-53V346h53v127m108 0h-55V346h55v127m-158 65h147l15 10 9 14-9 14-14 9 10 68h-11l-22-68H229v-47m-83 197 62-10 16-11-16-10V597l1-2 1-2 3-2 3-2 6-2 7-2v-47h-13l-12 2-12 3-11 5-11 8-9 9-7 11-5 13-3 13v133M52 611l42-47-24-7-21 10-7 23 10 21m31-34-1 1-5 5-2 2-1 2-1 2-5 4-1 2-2 2-2 2-3 4-1 1-4 4-3 3 5 2 6 5 5 6 6 9 6 12 6 12 5 16 6 16 5 20 2 20h9l1-20 3-21 2-19v-18l-1-16-2-16-3-15-5-14-5-13-9-13v1l-10 11-1 1m-31 88-31 33v1l-9 10-1 2 4 3 5 4 5 7 7 10 6 13 6 15 5 17 5 20 6 21 2 24h9l2-24 1-12h160v115l64-11 15-10-15-9v-85h152l31 26 58-48-26-16-17-6-19-28-19-22-21-22-4-5 18-20 17-24 7-13 6-14-3-24-19-15-23 4-15 19-2 11-4 23-3 11-4 12-10 24-5 12-7 13-9 11 6 7 12-9 13-8 11-9 5-4 2 4 8 30 4 13 6 25 2 11 3 9H76l1-10v-39l-2-16-3-17-5-15-6-13-9-12m214 0-4 19-3 8-7 19-4 9-5 9-5 8-8 7 6 8 9-6 11-3 20-12 9-6 10-8 17-18 14-22-1-24-17-16-24 1-16 16-2 11M10 711l42-46-24-9-21 11-7 22 10 22Z"/></symbol><symbol id="𭔦_S" viewBox="0 0 1000 1000" data-size="21"><path transform="matrix(1 0 0 -1 34 969)" d="m520 361 63-31h194l32 26 57-47-26-21V36L777 5v42H583V31L520 0v361M215 258H26v21h315l53 53 62-53v-21H278V101l-1-13-3-14-3-12-7-12-9-11-10-9-13-7-12-3-13-2-13-1v31l-84 15v16h84l6 1 5 1 5 2 2 2 1 5 2 5v163m562 51H583V68h194v241m-652 34-58-29v219l58-28h232l29 26 55-48-26-17V343l-58-29v29H125m704 31-41 33-38 37-35 40-25 35-9-12-44-46-47-43-49-39-53-34-55-30-6 8 50 38 46 40 44 42 41 45 38 47 18 27-8 13-23 51-21 53-16 57-3 20-25-59-17-38-20-35-20-32-22-31-23-28-9 6 44 101 26 73 24 80 18 88 9 46 2 10 61-23 12-13-18-6-7-28-13-46-3-7h179l31 26 58-47-26-16-10-4-20-44-32-61-34-57-36-52 34-40 34-34 37-30 39-26 66-37-59-47-44 29M167 483h-42V364h42v119m97 0h-45V364h45v119m93 0h-42V364h42v119m-139 68h128l13 10 10 13-10 15-13 9 10 69h-10l-23-68H218v-48m-84 196 62-10 16-10-16-10V612l1-3v-2l1-2 3-2 9-3 8-1v-48h-13l-13 1-11 4-12 5-10 7-10 10-6 11-4 12-4 13-1 13v120M48 621l43-45-23-9-21 10-9 23 10 21m43-45 8 12 5 14 4 13 3 15 2 16v16l-1 18-2 18-3 21-2 21h-9l-2-21-4-20-5-16-5-15-5-14-6-11-6-9-5-6-6-5-4-2 15-17 12-11 1-1 15-16m292 50-1 11-2 12-2 12-3 11-4 13-4 11-5 13-6 12-7 10 6 7 11-9 12-8 12-9 6 28 3 13 5 24 4 20H71l1-10 1-19v-19l-1-17-2-15-4-14-4-15-8-12-21 21-24 23 4 2 5 5 5 6 6 11 5 13 6 15 4 17 9 42 3 24h8l2-24 3-14h141v121l62-10 16-11-16-10v-90h137l31 27 58-47-25-16-19-8-2-3-15-21-17-21-20-23-1-3 10-11 9-12 8-12 8-13 11-28-5-24-20-13-24 5-12 19-1 13m401 167H605l-3-13 39-89 25-48 25-41 22 36 29 55 28 60 14 40M245 677l-2 9-4 18-7 17-3 9-4 9-5 9-7 7 6 8 9-6 10-4 10-6 10-6 9-7 16-15 8-9 8-11 7-10-2-24-17-17-24 1-17 18-1 10M9 720l45-44-23-9-22 9-9 22 9 22Z"/></symbol><symbol id="𭔧_S" viewBox="0 0 1000 1000" data-size="21"><path transform="matrix(1 0 0 -1 39 971)" d="m595 745 58-24 12-15-19-5-23-72-33-89-18-42-4-10 23-4 15-9-15-10V31L528 0v402l-36-63-23-36-9 5 57 163 27 86 25 89 23 90 3 9M833 59l-25 26-25 31-22 36-11 23-7-13-33-48-35-41-40-33-42-24-5 7 34 33 31 37 29 41 26 48 21 45-5 10-16 50-15 55-10 58-1 9-11-24-17-36-19-32-21-27-8 5 11 31 22 70 10 40 10 43 10 45 9 50 8 53 7 57 7 59 2 11 61-19 14-12-17-8-7-41-12-57-3-14h75l32 26 57-48-25-16-5-2-11-62-17-81-21-74-23-68-23-49 31-49 21-29 23-23 22-18 48-26-59-47-30 22M194 318H0v22h54v173l52-27h229l28 27 56-47-26-19V342l21 29 32-31v-22H258V104l-1-13-3-14-4-13-7-11-8-11-10-9-13-7-12-4-13-1-13-1v31l-74 15v16h74l6 1 5 1 4 2 2 2 2 5 1 5v220m551 59-15 19-1 27-2 13-4 23-5 22-4 11-2 8-10-33-10-28 32-88 20-51 7-15 21 75 4 18-7-6-24 5m-596 89h-43V340h43v126m93 0h-46V340h46v126m93 0h-41V340h41v126m477 115h-79l-17-66 5-4 9-7 10-8 9-10 9-10 15-24 7-14 6-14 1-1 16 88 9 70m-785 4 54-33-20-14-24 4-14 20 4 23m87 148 64-10 15-10-15-10v-86l1-3 1-3v-2l1-1 2-2 4-2h5l7-1h81l26 88h9l-9-89 15-10 11-16-11-15-15-11H186l-13 2-12 4-12 6-10 7-9 10-6 11-5 13-3 12-2 14v104M81 552l-22 13-2 1-4 3-2 1-5 4-4 2-3 2-1 1-4 2-1 1-4 2-2 1 7 9 8 10 7 11 14 28 6 15 20 55 4 21 10-1 1-21v-62l-2-18-3-18-3-16-4-16-6-16-5-14m288 122 11-12 9-12 8-12 8-14 7-15 7-14-3-25-20-14-23 4-15 18-2 14-2 13-2 13-6 26-4 11-8 24-5 11-8 10 7 7 11-8 11-8 10-8 4-4 5 14 2 18 4 16 2 14 2 15 3 13 2 19H65l1-3 2-17 1-17v-17l-1-14-2-16-3-15-4-13-2 2-9 5-12 5-1 1-3 2-4 2-6 3-3 3-5 3-2 1-2 1-4 2-2 1 6 7 11 17 4 12 5 13 4 15 5 15 3 17 4 18 1 20 9 1 3-21 3-11h131v128l63-9 15-11-15-10v-98h128l32 25 58-47-27-16-16-6-8-13-7-12-9-12-16-26-10-15-9-15-3 1m-158 10-3 20-2 11-3 10-3 9-7 21-6 9 6 7 8-8 11-6 10-7 8-9 9-9 8-9 15-21 6-12 5-12-2-24-20-14-23 4-16 19-1 21M4 707l55-31-19-15-24 3-15 19 3 24m470 59v20h180v156l63-10 15-10-15-10V786h64l53 53 63-53v-20H474Z"/></symbol><symbol id="𭔨_S" viewBox="0 0 1000 1000" data-size="21"><path transform="matrix(1 0 0 -1 27 960)" d="M210 241H26v22h306l53 52 62-52v-22H273V84l-1-13-1-13-5-13-6-12-9-11-10-8-12-7-13-4-13-2-14-1v31l-84 16v16h91l5 1 5 2 1 1v1l1 1 1 4 1 5v163m591 606-28-10-29-8-29-8V701h85l53 53 62-53v-20H715v-4l63-73 23-22 42-39 19-16 19-11 18-10 17-7 30-15-59-48-22 13-20 16-21 18-38 44-38 55-19 31-14 29V438l-55-27 19-10 11-14-17-5-13-40h142l52 53 64-53v-22H796l-4-44-13-49-18-45-15-23 33-17 27-19 24-19 23-22 22-23 6-23-12-21-23-6-21 11-16 22-38 41-20 19-22 16-9 6-16-18-37-29-42-24-48-19-53-13-57-7-2 9 55 17 46 21 42 22 35 25 29 30 9 11-57 28-16 7-11-38-70-10 60 184H443v22h151l28 89 30-16v193l-42-58-24-28-24-24-27-24-27-21-29-18-31-17-5 8 46 48 42 50 21 27 36 57 16 31 16 32 5 10H457v20h195v108l-40-7-37-4-39-4-41-1-2 9 111 34 95 32 55 22 41 20v1l5 2 6-11 40-38v-16l-19 7-26-8m-68-527h-80l-40-122 16-2 33-6 30-9 7-2 14 25 12 38 7 43 1 35m-609 6-58-28v219l58-29h226l29 27 55-48-26-18V326l-58-28v28H124m39 141h-39V348h39v119m95 0h-42V348h42v119m92 0h-39V348h39v119m-135 67h125l14 10 9 14-9 14-14 9 10 69h-10l-23-68H215v-48m-84 196 63-9 16-11-16-10v-90l-1-6v-5l1-3v-3l1-2 1-2 2-3 10-3 7-1v-48h-13l-13 1-11 4-11 5-11 8-9 10-6 10-5 12-3 14-2 12v120M47 604l44-44-23-9-22 10-8 22 9 21m21-22 23-22 8 11 5 14 4 14 2 14 1 16 1 17-1 17-2 19-4 20-1 22h-9l-2-22-5-19-5-17-5-15-5-13-5-12-5-9-6-6-5-5-5-2 8-6 13-15v-1m308 27-1 12-2 12-2 12-7 23-4 12-5 12-5 12-8 11 7 7 10-10 12-8 12-9 6 28 6 26 1 12 2 11 1 8H71l1-9 1-20v-19l-1-16-2-15-3-14-5-14-7-13-7 6-15 15-15 15-5 4-3 3 3 2 5 4 5 8 5 11 6 11 5 16 5 17 9 42 2 25h9l2-25 2-13h138v120l63-10 15-11-15-9v-90h132l32 26 57-47-26-15-18-8-33-46-19-23-2-1 10-13 9-12 8-12 7-13 7-14 5-14-5-24-21-13-23 5-13 21v11m-136 51-2 9-4 19-3 8-6 18-8 17-7 7 6 7 8-5 10-4 10-6 9-5 10-7 8-8 7-8 16-19 6-10-1-25-17-16-24 1-17 17-1 10M10 703l45-43-23-10-22 9-10 22 10 22Z"/></symbol><symbol id="𭔩_S" viewBox="0 0 1000 1000" data-size="21"><path transform="matrix(1 0 0 -1 52 938)" d="M608 225H0v21h608v91l64-11 16-11-16-9v-60h108l53 52 63-52v-21H672V85l-1-14-3-13-4-13-6-12-10-10-9-9-12-6-14-4-11-3-14-1v32L482 48v15h106l6 1h5l3 1 2 1 1 2 1 2 1 3v5l1 7v140M310 77l-15 27-18 25-9 13-22 24-13 13-13 9 4 9 16-7 18-5 32-17 15-10 14-11 14-11 13-13 23-27 4-24-15-19-23-4-20 14-5 14m357 395 34-54-21-12-22-10-12-2-23-6-12-1-11-1-12-1v31l-106 16v16h106l16 1 16 3 17 4 15 7 7 4 8 5m13-20-13 20 5 4 5 6 6 11 5 16 5 18 4 24 3 26 2 29 1 35v27H396l-15-40-27-52-36-46-42-39-48-34-56-27-62-22-68-15-2 8 64 26 55 28 49 31 42 35 34 39 28 42 20 45 15 50 7 55 1 49H16v21h755l52 53 64-53v-21H418l-4-56-12-57h301l31 27 58-47-26-16v-48l-2-33-4-30-5-26-6-25-8-22-11-19-13-17-16-14-6 9-1 1-12 20v1l-1 1-1 1v1Z"/></symbol><symbol id="𭔪_S" viewBox="0 0 1000 1000" data-size="21"><path transform="matrix(1 0 0 -1 51 967)" d="m410 882 64-53v-20H332V366h-58v443h-50V592h-58v217H63V68h320l53 52 63-52V47H63V31L0 0v860l63-31h294l53 53m315-241H473v20h252v274l62-11 16-11-16-9V661h15l43 48 52-48v-20H787V87l-2-14-5-12-7-12-7-11-11-9-12-7-13-3-13-2-14-1v31L599 63v15h104l7 1 5 1 5 2 1 1 1 1 1 1 1 4 1 5v547m-501-49-3-64-5-58-8-54-11-49-12-44-16-38-19-34-21-27-25-22-26-14-4 7 18 21 16 23 15 28 12 32 11 36 7 41 7 47 4 51 2 56v62h58m131-310-12 1-14 2-12 5-11 7-10 8-9 10-7 12-3 13-2 13-1 13h58l1-7 1-5 1-3 4-4 6-1 5-1h74l30 131h11l-11-131 19-13 12-19-12-19-19-12h-99m239 72-5 20-7 20-9 19-10 20-11 20-28 40-14 21-18 20 6 7 23-14 23-15 39-35 17-19 14-20 14-21 13-22 9-23 9-23-4-24-18-14-24 3-14 19-5 21Z"/></symbol><symbol id="𭔫_S" viewBox="0 0 1000 1000" data-size="21"><path transform="matrix(1 0 0 -1 50 947)" d="M596 325H23v22h573v138l62-10 16-11-16-9V347h95l53 52 62-52v-22H658V84l-1-13-2-13-4-13-6-12-9-11-11-8-12-7-12-4-14-2-13-1v31L470 47v16h110l5 1 4 1 1 1 2 2 2 5 1 5 1 6v241M318 86l-13 42-16 39-18 36-31 51-11 16 5 7 36-23 15-14 30-31 15-18 13-19 24-41 10-23-1-24-17-17-24 1-17 18m214 620-4-41-7-38-13-35-16-32-20-31-26-25-27-24-32-17-35-16-39-10-3 8 33 20 29 21 24 22 22 22 18 26 13 26 10 27 7 31 3 32 1 34h62M15 516l-3 10v4l-1 1v1l180 32v245H23v21h289l52 53 63-53v-21H254V575l89 16 44 6 44 6 3-10-84-30-123-38-164-45-18-3-8-19-13 13-1 2v2l-2 10v1l-2 9v2l-1 5v2l-1 4v1l-2 5v2m696 326H532V706h-62v188l62-32h179l31 27 58-47-27-22V541l1-5 1-3 1-2 1-1 1-1 2-1 3-1h5l7-1h43l30 132h11l-10-132 18-12 12-19-12-18-19-13h-73l-14 1-13 2-13 4-12 7-11 8-7 11-7 12-5 12-2 13v308M11 532l13-61-24 59 11 2Z"/></symbol><symbol id="𭔬_J" viewBox="0 0 1000 1000" data-size="21"><path transform="matrix(1 0 0 -1 39 949)" d="M610 787h173l37 44c40-31 60-52 60-62 0-4-2-7-7-9l-30-14c-66-102-137-179-215-232-67-46-153-84-259-115l-12 24c110 40 197 87 263 143-1-1-4-1-8-1-9 0-18 7-27 22-19 31-51 59-95 87-36-27-77-54-125-79l-15 19c111 71 199 164 264 279 57-13 85-25 85-37 0-7-16-13-48-17-14-20-28-37-41-52m-22-25c-23-24-49-49-78-73 86-30 129-63 129-98 0-5 0-8-1-10 55 49 104 109 147 181H588M86 282v544c63-1 95-8 95-23 0-9-13-19-38-29V299c47 14 89 29 126 43v556c67-3 101-11 101-25 0-8-14-18-43-29V0h-58v308c-75-40-142-72-202-95-2-29-8-44-17-44-15 0-31 30-50 91 21 4 50 11 86 22m618 93v155c66-5 98-14 98-28 0-8-13-17-41-26V375h55l45 66c23-23 43-47 60-71l-11-20H761V91c0-55-33-83-99-84-1 18-11 31-31 39-15 6-47 13-96 21v25c55-5 98-8 130-8 26 0 39 10 39 30v236H351l-10 25h363M543 151c-16 0-27 12-33 35-13 49-43 95-91 138l14 15c96-47 144-98 144-151 0-25-11-37-34-37Z"/></symbol><symbol id="𭔭_S" viewBox="0 0 1000 1000" data-size="21"><path transform="matrix(1 0 0 -1 43 949)" d="M605 210H33v21h572v84l63-10 16-11-16-10v-53h95l52 52 63-52v-21H668V84l-1-13-2-13-4-13-7-12-8-11-11-8-12-7-13-4-13-2-13-1v31L479 47v16h111l5 1 5 2 2 2 2 5v5l1 6v126M328 61l-12 24-14 24-17 24-20 23-12 11-14 11 5 8 16-7 16-5 16-7 15-8 14-9 13-9 25-23 12-12 12-13 3-24-15-19-23-3-20 14M13 378l-2 8-1 1v1l84 17 49 12v255H13v21h130v190l63-11 16-10-16-9V693h23l53 52 63-52v-21H206V433l101 24 42 9 3-9-77-36-103-43-92-33-33-11-7-21-15 13v1l-3 12v1l-9 36v2m-3 10 14-60-24 58 10 2m361 256-99-28-5 21 104 28v175l64-11 15-11-15-9V683l129 35v179l63-10 16-11-16-9V735l144 39v9l32 27 57-47-26-22V560h-63v193l-144-39V464l-63-31v263l-129-36V397l1-2 1-2 1-2v-1l2-1 3-2 5-1h408l28 109h11l-10-110 16-11 12-18-12-17-17-12H455l-13 1-13 2-12 4-12 6-10 8-9 10-7 12-4 13-3 13-1 13v235m463-84-1-14-2-14-5-12-6-12-8-10-10-10-13-6-13-3-12-3-14-1v32l-53 15v16h53l7 1h5l3 1 2 1 1 1 1 3 1 3 1 5v7h63Z"/></symbol><symbol id="𭔮_S" viewBox="0 0 1000 1000" data-size="21"><path transform="matrix(1 0 0 -1 39 974)" d="m345 240-20 25-12 13-26 26-39 32V31L186 0v480H0v22h339l53 53 62-53v-22H248V356l19-5 21-8 20-9 18-10 17-11 16-10 31-25 12-13 6-24-12-20-23-6-20 12-8 13m398 413H477v21h266v273l63-10 15-11-15-9V674h22l43 48 52-48v-21H806V100l-3-14-4-13-7-11-9-11-11-9-11-7-13-4-13-2-13-1v32L617 75v16h105l6 1 4 1 4 1 2 1 1 1v1l1 1 1 4 1 4 1 6v541M605 366l-5 20-8 19-9 21-11 19-25 40-31 41-19 21 6 7 24-14 23-16 21-16 20-18 17-19 16-20 15-21 11-22 12-22 9-25-3-23-20-15-23 3-15 20-5 20M0 597v21h186v326l62-10 16-10-16-10V799h78l43 48 53-48v-21H248V618h91l53 52 62-52v-21H0Z"/></symbol><symbol id="𭔯_S" viewBox="0 0 1000 1000" data-size="21"><path transform="matrix(1 0 0 -1 61 953)" d="M584 227H12v21h572v92l62-11 16-11-16-8v-62h95l53 53 62-53v-21H646V70l-2-12-4-13-7-13-9-10-11-8-11-6-13-5-14-2-12-1v31L458 47v16h110l5 1 4 1 1 1h1l1 1 2 5 1 5 1 7v143M301 78l-21 40-17 25-21 25-12 12-12 10 5 9 15-8 17-5 16-8 15-9 14-11 13-11 27-24 11-14 11-14 2-24-14-19-25-2-18 14-6 14m227 356-13 20-9 11-10 10-23 21-14 10-32 21-2 1-65-30-47-18-49-16-54-14-56-11-3 9 102 42 91 44 40 24 38 24 34 24 31 26 29 27 27 29 44-44 5-19-21 4-14-14-1-1h231l8 10 2-2 22 19 59-47-26-17-23-9-36-38-58-48-64-43-70-37-78-31-84-26-89-22-96-14-103-10-108-3-1 9 107 13 101 18 93 21 85 25 79 30 32 16-11 6m241 160H529l-43-31-39-23-3-1 27-7 18-6 17-6 16-8 15-8 15-11 13-10 13-11 6-23 59 35 57 42 51 47 18 21m-425 78-6 10-7 9-9 9-21 20-13 9-30 19-44-22-40-19-43-17-45-13-47-13-4 9 84 43 75 44 66 46 29 23 26 25 25 25 22 25 2 2 45-44 5-18-20 4-12-12h230l11 12 3-3 20 17 58-48-26-15-26-10-33-31-54-42-57-39-62-35-64-33-69-28-73-24-75-22-80-15-84-13-1 10 80 22 76 24 73 26 69 29 64 31 4 3-17 11-5 9m248 142H357l-36-26-34-23-11-6 5-1 18-3 17-5 17-6 15-7 14-8 14-8 13-10 10-11 6-23-2-4 19 11 57 37 52 40 48 42 13 11Z"/></symbol><symbol id="𭔰_S" viewBox="0 0 1000 1000" data-size="21"><path transform="matrix(1 0 0 -1 39 959)" d="M743 625H477v21h266v273l63-11 15-11-15-8V646h22l43 47 52-47v-21H806V71l-3-13-4-13-7-12-9-11-11-8-11-7-13-4-13-2-13-1v31L617 47v16h111l4 1 4 1 2 1 1 1v1l1 1 1 4 1 5 1 6v541M283 153l178 35 57 11 3-9-54-20-105-35-152-43-97-24-47-10-25-5-8-19-12 15-1 4-1 5v5h-1v6l-1 2v2l-1 5v1l-1 5-3 20-1 5v1l93 13 96 16 50 9 7 1 55 124 29 76 8 23 5 18 4 12 57-29 11-15-20-4-13-28-27-49-49-77-34-47M11 110l10-61-21 60 11 1m120 108-3 17-4 19-6 17-7 19-7 18-9 18-23 37-13 19 5 7 39-29 16-15 16-18 13-16 12-19 12-20 9-20 7-21 6-22-6-22-20-13-23 6-13 20-1 18m474 120-5 19-8 20-9 20-11 20-25 40-31 41-19 21 6 6 24-13 23-16 21-17 20-17 17-20 16-19 15-22 11-21 12-23 9-24-3-23-20-15-23 3-15 19-5 21M63 725l62-32h243l31 26 58-47-26-21V457l-63-32v32H125l-62-32v300m305-53H125V478h243v194m58 210 63-53v-20H11v20h363l52 53Z"/></symbol><symbol id="𭔱_J" viewBox="0 0 1000 1000" data-size="21"><path transform="matrix(1 0 0 -1 50 945)" d="M343 721h416l37 41c40-27 60-46 60-56 0-5-2-9-8-12l-24-14V549h-56v24H495c35-48 79-85 131-111 38 30 70 61 97 96 45-24 68-41 68-51 0-8-6-12-18-12-8 0-16 0-23 2-23-14-56-30-99-47 53-22 136-41 249-57-19-17-33-35-42-54-96 10-179 37-251 81-66 40-115 91-147 153H332V409c74 8 147 20 219 33l6-26c-122-32-226-56-312-70-5-22-12-33-20-33-14 0-27 28-40 83 45 3 75 6 89 7v346c20-8 43-17 69-28m-11-25v-98h436v98H332m285-417v83c63-5 94-13 94-25 0-8-12-16-37-25v-33h114l47 45c27-18 49-34 66-49l-13-21H674V81c0-53-36-80-108-81 0 17-14 32-41 43-12 5-39 12-82 20v26c51-7 95-10 132-10 28 0 42 9 42 29v146H160l-12 25h469M171 827h562l52 63c28-24 52-47 71-69l-9-19H161V574c0-141-12-256-36-345C103 150 69 77 22 11L0 26c37 71 63 152 79 243 14 83 21 185 21 305v287c20-7 43-19 71-34M381 75c-13 0-23 9-30 27-18 44-49 82-91 115l12 20c96-40 144-81 144-123 0-26-12-39-35-39Z"/></symbol><symbol id="𭔲_J" viewBox="0 0 1000 1000" data-size="21"><path transform="matrix(1 0 0 -1 53 944)" d="M206 742h462v78H115l-12 25h556l39 44c39-31 58-50 58-58 0-5-3-10-10-14l-21-14V682h-57v35H197v-60c0-21 8-32 22-35 19-4 77-5 174-5 228 0 350 5 365 17 17 13 28 51 33 113l25-8c0-45 4-74 11-90 5-11 17-17 34-17-2-28-15-45-38-51-30-9-159-13-388-13-164 0-254 5-270 15-17 10-25 32-25 66v124c23-10 45-20 66-31m396-537H9l-9 24h602v69c65-1 97-9 97-24 0-6-13-14-39-24v-21h126l47 61c23-21 43-43 61-66l-11-19H660V86c0-55-34-83-103-86-1 18-10 31-26 39-17 8-53 16-109 24v26c58-6 106-8 142-8 25 0 38 10 38 31v93M316 33c-13 0-25 11-37 33-19 37-55 72-110 103l11 20c59-16 103-36 134-60 25-19 37-39 37-58 0-26-12-38-35-38m212 377c-11 0-21 10-33 29-21 35-54 67-100 96l13 16c101-28 152-63 152-106 0-23-11-35-32-35M42 328c-25 0-37 11-37 35 0 12 10 23 31 33 43 23 76 62 99 117l22-9c-7-56-24-102-53-138-20-26-40-38-62-38m814 36c-15 0-28 9-37 29-25 51-68 96-130 135l13 17c69-24 120-52 153-84 23-21 34-42 34-60 0-25-11-37-33-37m-406-50c-97 0-154 5-170 14-15 9-22 28-22 59v144c63-3 94-11 94-24 0-8-12-16-37-25v-78c0-17 6-28 18-31 14-4 58-6 131-6 78 0 126 4 144 11s32 42 42 106l24-7c0-36 2-61 6-76 5-15 15-22 32-22-2-31-19-49-50-55-31-7-102-10-212-10Z"/></symbol><symbol id="𭔳_S" viewBox="0 0 1000 1000" data-size="21"><path transform="matrix(1 0 0 -1 40 948)" d="M283 315H0v22h283v100H30v20h309l43 48 53-48v-20h-89V337h16l43 47 53-47v-22H346V84l-1-13-2-12-4-13-7-13-9-10-10-8-12-7-13-4-13-2-13-2v32l-95 16v15h95l6 1 4 1 4 1h2l1 1v1l1 2 1 3 1 5 1 6v231m226 181-60-36-11 19 71 42v284l63-11 16-11-16-10V559l76 45v292l64-10 16-11-16-10V643l86 52v17l32 26 58-47-27-21V332h-63v338l-86-52V204l-64-32v408l-76-46V88l1-5 1-3 1-2 1-1 1-1 2-1 3-1h5l6-1h265l31 132h10L889 73l18-12 13-19-13-19-18-12H593l-13 1-14 2-12 4-12 6-11 9-9 11-5 12-5 12-2 13-1 14v401M154 165l-3 13-8 24-5 13-14 25-16 26-10 11 6 7 13-8 15-7 25-20 23-22 10-13 10-13 8-13 8-15-2-24-18-16-23 2-17 17-2 13m707 167-1-13-2-13-4-13-6-12-9-10-11-9-12-6-12-5-13-2-14-1v31l-42 17v16h49l5 1 5 1 1 1v1l1 2 1 3 1 5v6h63M60 883l63-32h203l31 26 58-47-26-21V547l-63-32v52H123v-37l-63-31v384m266-179H123V589h203v115m0 126H123V725h203v105Z"/></symbol><symbol id="𭔴_S" viewBox="0 0 1000 1000" data-size="21"><path transform="matrix(1 0 0 -1 56 960)" d="M572 263H0v21h572v89l63-11 15-9-15-10v-59h94l53 52 63-52v-21H635V84l-1-13-2-13-4-12-7-13-9-11-10-7-12-7-13-4-14-3-12-1v32L446 48v15h111l5 1 4 2 2 2 2 5 1 5 1 6v179M441 108l-119 96-15 14-17 12 5 8 58-20 54-24 69-33 13-19-4-24-20-14-24 4M227 602l2 2 2 4v6l-2 9-4 12-10 12-12 15-16 16-19 16-23 16-5 8 15 16 51 68 20 29 6 12H81V409l-63-32v519l63-32h159l3 2 2 4 1-1 26 22 58-48-26-16-21-9-18-18-28-26-33-26-50-32 45-20 21-11 18-11 16-13 14-13 9-14 8-18 2-18-3-20-57 24m193 170 62-10 16-11-16-10V615l72 28 214 74v1l4 1 3-8 50-42 1-16-21 10-14-5-126-29-102-21-37-4-37-6h-7V472l1-5v-3l2-3 1-2 5-2 6-2h320l28 110h10l-9-111 16-11 12-17-12-17-17-12H490l-12 2-13 4-12 6-11 9-8 10-6 11-5 13-3 13v307M227 602l57-24-5-12-7-10-8-11-9-9-10-8-12-7-11-4-12-4-14-2-12-1v32l-53 16v15h59l6 1 6 2 8 4 3 3 4 3 3 5 4 5 3 6m80 171 31-54-24-3-19 14-3 24 15 19m0 0 11-20 2-4 2-3 3-6 3-4 1-1 3-5 4-6 2-5 11 10 7 11 6 13 4 13 2 13 1 15-1 15v5h426l-20-45-5-12-8-11 7-6 9 9 12 7 21 15 17 13 34 14 27 16-59 47-24-21-2 2v-4l-5-3H614v55l16 9-16 10-63 11v-85H365l-1 5-2 17h-9l-1-17-9-28-5-11-6-10-6-8-5-5-6-3-4-2h-4Z"/></symbol><symbol id="𭔵_J" viewBox="0 0 1000 1000" data-size="21"><path transform="matrix(1 0 0 -1 41 938)" d="M303 556h85v113c67-1 100-8 100-22 0-8-13-18-41-29v-62h30l41 52c26-22 47-41 62-58l-11-19H447V395h-59v136H158V395H99v136H15l-8 25h92v113c67-1 100-8 100-22 0-8-13-18-41-29v-62h86v170H42l-9 25h211v126c67-1 100-8 100-22 0-8-13-18-41-29v-75h154l41 62c22-22 41-45 58-69l-11-18H303V556m433 44H569l-10 25h174v251c68-1 102-10 102-27 0-9-15-18-44-28V625h31l41 65c23-25 42-49 55-71l-11-19H794V82c0-55-32-82-97-82 1 19-10 33-31 41-14 6-46 13-96 21v27c49-6 92-9 131-9 23 0 35 10 35 30v490M244 140v164H52l-9 25h201v147c67-1 100-10 100-26 0-9-13-17-41-25v-96h124l45 64c23-22 42-46 59-70l-10-19H303V149c96 15 173 29 232 42l5-26C383 119 224 83 64 56c-3-26-9-39-18-39-16 0-31 31-46 92 91 10 172 20 244 31m414 92c-17 0-27 15-30 46-8 73-33 140-74 202l20 14c80-78 121-149 121-214 0-32-13-48-37-48Z"/></symbol><symbol id="𭔶_J" viewBox="0 0 1000 1000" data-size="21"><path transform="matrix(1 0 0 -1 38 949)" d="M379 355V230c0-20 12-29 34-29 23 0 36 9 41 27 6 20 10 48 13 82l24-6c0-35 2-58 5-70 3-13 13-20 31-20-1-26-10-42-26-47-15-6-43-9-83-9-41 0-68 5-79 17-9 9-13 25-13 48v132h-67c-2-108-42-186-122-232l-15 18c53 43 81 114 83 214h-91V75h281l49 53c24-18 46-38 65-58l-12-20H114V0H58v355H11L0 380h123v348H25l-10 25h108v146c64 0 95-8 95-24 0-8-13-18-39-29v-93h172v145c66-1 99-9 99-24 0-9-14-18-42-28v-93h26l44 60c24-23 44-45 58-65l-8-20H408V380h33l46 60c24-23 45-44 62-65l-10-20H379m-200 25h172v106H179V380m172 348H179v-92h172v92M179 511h172v100H179V511m563 97H493l-10 25h256v251c68-1 102-10 102-27 0-9-15-18-44-28V633h31l41 65c23-26 41-49 55-71l-11-19H800V90c0-55-33-82-97-82 1 19-10 33-31 41-14 6-46 13-96 21v27c49-6 92-9 131-9 23 0 35 10 35 30v490M628 266c-17 0-27 15-30 46-8 73-33 140-74 202l20 14c81-78 121-149 121-215 0-31-12-47-37-47Z"/></symbol><symbol id="𭔷_J" viewBox="0 0 1000 1000" data-size="21"><path transform="matrix(1 0 0 -1 38 952)" d="M202 813h109l33 35c41-30 61-51 61-61 0-5-3-9-9-11l-26-6c-30-36-56-64-78-84h87l33 37c39-27 59-45 59-54 0-4-3-8-9-12l-22-14V361h-52v30H130v-37H78v267c-18-20-38-40-59-59L0 579c73 81 132 189 178 325 54-8 81-19 81-30 0-7-14-14-40-20-4-10-9-23-17-41m-12-24c-16-32-35-65-58-99l6-4h125c20 32 37 66 51 103H190m198-259H282V416h106v114m0 25v106H282V555h106M231 661H130V555h101v106M130 416h101v114H130V416m611 259v210c64-1 96-9 96-24 0-8-13-16-38-26V675h30l41 64c21-24 39-48 53-71l-11-18H799V230c0-52-33-78-97-77 0 21-11 36-33 44-8 4-34 10-75 17v26c41-5 79-8 114-8 22 0 33 11 33 31v387H498l-12 25h255M293 346c63-1 94-9 94-24 0-8-12-16-38-26V126c0-22 8-35 23-38 28-5 102-8 223-8 143 0 222 8 237 23 14 15 24 54 29 115l27-10c0-51 2-82 5-92 3-11 13-17 31-17-1-30-13-48-37-56-33-9-130-14-290-14-161 0-251 5-270 13-23 11-34 36-34 76v228M7 21c54 39 93 86 118 142 22 51 33 112 34 183 63-1 94-9 94-24 0-8-13-16-38-26-7-73-27-134-62-184C123 68 79 31 22 0L7 21m518 541 15 15c80-50 120-101 120-152 0-26-12-39-37-39-17 0-27 14-30 41-3 40-26 85-68 135Z"/></symbol><symbol id="𭔸_J" viewBox="0 0 1000 1000" data-size="21"><path transform="matrix(1 0 0 -1 41 951)" d="M137 599h270l37 42c37-28 56-48 56-58 0-4-2-7-6-10l-23-16V374h-55v41H131v-49H75v262c23-10 44-19 62-29m-6-24V439h285v136H131m605 29H538l-10 25h205v251c68-1 102-10 102-26 0-9-15-19-44-29V629h31l41 65c23-25 42-49 55-70l-11-20H794V86c0-54-32-82-97-82 1 20-9 33-31 41-14 6-46 13-96 21v27c49-6 92-9 131-9 23 0 35 10 35 30v490M244 123v138H52l-9 25h201v105c67-1 100-9 100-26 0-8-13-17-41-25v-54h112l45 64c23-22 42-46 59-70l-10-19H303V132c96 15 173 29 232 42l5-26C383 102 224 65 64 39 61 13 55 0 46 0 31 0 15 31 0 92c91 10 172 20 244 31m64 582c34 66 60 132 78 196 53-21 79-39 79-51 0-10-13-15-39-16-29-51-57-94-85-129h106l47 65c26-26 48-49 65-72l-12-18H11L0 705h308m339-469c-17 0-27 16-30 46-8 73-32 141-74 202l20 15c81-78 121-150 121-215 0-32-12-48-37-48M98 879l17 16c77-48 116-95 116-142 0-25-11-38-32-38-15 0-25 11-30 34-9 49-33 93-71 130Z"/></symbol><symbol id="𭔹_J" viewBox="0 0 1000 1000" data-size="21"><path transform="matrix(1 0 0 -1 41 948)" d="M259 622c-26-57-58-113-97-168 110 6 193 12 248 19-23 26-51 51-84 76l16 17c56-22 100-49 134-81 26-25 39-47 39-66 0-25-10-38-29-38-13 0-24 11-34 32-6 11-13 22-21 34-116-20-234-38-355-53-5-26-12-39-19-39-15 0-28 31-40 92 11 0 31 1 59 2 21 1 38 2 50 3 15 33 26 62 35 88 4 12 12 40 25 82H29l-10 24h406l46 58c24-22 44-43 60-63l-9-19H259m477-18H556l-10 25h187v251c68-1 102-10 102-26 0-9-15-19-44-29V629h31l41 65c23-25 42-49 55-70l-11-20H794V86c0-54-32-82-97-82 1 20-10 33-31 41-14 6-46 13-96 21v27c49-6 92-9 131-9 23 0 35 10 35 30v490M244 123v138H52l-9 25h201v105c67-1 100-9 100-26 0-8-13-17-41-25v-54h112l45 64c23-22 42-46 59-70l-10-19H303V132c96 15 173 29 232 42l5-26C383 102 224 65 64 39 61 13 55 0 46 0 30 0 15 31 0 92c91 10 172 20 244 31M140 784v111c62-3 92-11 92-24 0-7-12-15-37-24v-63h138v111c65-4 98-13 98-26 0-8-14-15-43-22v-63h63l45 58c23-21 43-42 59-64l-9-19H388v-79h-55v79H195v-81h-55v81H10l-9 25h139m512-548c-17 0-27 16-30 46-8 73-33 141-74 202l20 15c81-78 121-150 121-215 0-32-12-48-37-48Z"/></symbol><symbol id="𭔺_S" viewBox="0 0 1000 1000" data-size="21"><path transform="matrix(1 0 0 -1 38 957)" d="M641 212H41v21h600v85l62-10 16-11-16-9v-55h106l52 52 64-52v-21H703V84l-1-13-2-13-4-13-7-12-8-11-11-8-12-6-12-5-13-2-14-1v31L515 47v16h111l5 1 3 1 2 1v1l2 1 1 2 1 3v5l1 6v128M339 86l-15 23-10 13-31 35-12 12-14 10 5 9 16-7 17-5 17-8 14-8 29-18 14-11 13-12 23-25 3-24-13-20-24-3-19 14-13 25m-49 828 50-38 8-17h-20l-44-58-60-72-32-33 30-5 15-10-15-9V321l-64-32v373l-73-64-38-30-41-28-6 8 98 105 59 71 56 73 51 74 20 34 6 9m524-608-22 26-14 13-14 13-35 25-39 25-44 26 2 8 52-10 47-15 42-20 38-22 34-27 8-23-10-21-22-8-23 10M507 457l38-50 2-18-20 7-25-16-46-26-50-22-53-20-29-9-29-7-4 9 118 77 42 30 51 41v1l5 3m349 81 64-53v-21H282v21h523l51 53M396 896l64-32h282l31 27 58-47-26-22V550l-63-31v31H460l-64-31v377m346-244H460v-82h282v82m0 96H460v-75h282v75m0 96H460v-74h282v74Z"/></symbol><symbol id="𭔻_S" viewBox="0 0 1000 1000" data-size="21"><path transform="matrix(1 0 0 -1 47 956)" d="M605 210H3v21h602v84l64-10 16-11-16-10v-53h106l52 52 64-52v-21H669V84l-2-13-2-13-4-13-7-12-8-11-10-8-13-7-13-4-12-2-13-1v31L479 47v16h112l5 1 5 2 2 2 1 5 1 5v132M310 72l-15 25-17 24-9 11-35 35-14 11 5 8 33-12 16-7 15-8 16-9 14-9 26-23 12-12 11-12 4-25-14-19-23-4-20 14-5 12m77 241-4 14v1l-2 7-1 4-1 5-1 2 16 3v454l63-32h282l32 27 57-48-26-21V553l-63-32v32H572l37-42 25-25 26-22 28-21 93 54 15 9 26 18 7 6 4 3 12-19 29-30v-18l-20 9-19-8-17-7-37-11-40-11-22-4-14-3 49-29 37-19 39-17 76-31-60-50-43 21-41 22-37 25-36 24-31 27-28 28-25 29-20 30-17 32-9 30H457V361l75 16 51 10 26 3 27 4 2-10-23-13-48-22-73-30-80-27-7-20-13 13-2 9-2 6v2l-1 3v1l-1 1v2l-1 2v2m-9 33 16-61-26 59 10 2m-258-11 63-8-13-20-23-7-20 13-7 22m216 370 8-5-138-197-31-49-12-18-6-11 12-19 9-24 5-27v-28l-63 8 3 19 1 18-3 16-4 14-9 15-10 14-16 13-20 13-24 12-28 10 1 9 31-4 28-5 27-7 16-9 83 96 99 105 41 41m403-50H457v-81h282v81m-608-24-6 7-9 8-11 7-27 15-16 9-40 16-22 7 2 10 24-3h23l20-3 20-2 35-8 16-5 13-5 14-6 12-8 9-23-9-22-23-9-21 9-4 6m608 119H457v-73h282v73m-525 33-7 7-9 8-10 7-27 15-15 9-37 17-20 7 1 8 22-2 22-1 19-2 19-2 17-3 17-4 16-5 13-6 13-6 13-8 10-21-7-23-23-10-22 8-5 7m615 128 63-53v-20H359v20h417l53 53Z"/></symbol><symbol id="𭔼_S" viewBox="0 0 1000 1000" data-size="21"><path transform="matrix(1 0 0 -1 39 959)" d="M626 210H0v21h626v84l63-10 16-11-16-10v-53h117l52 52 63-52v-21H689V84l-1-13-2-13-4-13-6-12-9-11-11-8-11-7-13-4-13-2-14-1v31L500 47v16h111l5 1 3 1 2 1 1 1 1 1 1 1 1 4v5l1 6v126M319 72l-15 25-18 23-21 24-26 23-13 11 3 8 17-6 19-6 15-7 17-8 16-9 13-8 15-11 13-12 12-13 12-12 4-25-13-19-24-4-20 14-6 12M47 889l62-32h153l3 2 29 25 58-48-27-16-14-6-22-29-27-34-32-34-51-45 46-28 21-17 18-16 15-17 12-19 9-19 6-21 1-21-3-22-5 1-3 1-9 3-43 14 4 10 3 10v12l-3 14-5 15-8 17-11 17-15 20-18 20-21 20 1 1-6 6 52 84 29 55 7 16 4 8H109V277l-62-31v643m358-586v2-2M213 482l6 1 5 2 4 1 2 2 3 3 3 3 3 5 3 5 2 7 60-19-4-13-6-12-7-11-9-10-10-8-11-7-12-5-13-4-12-2h-14v31l-53 16v15h60m492 211H442v-94h263v94m0 120H442v-99h263v99m108-264 4 4 39-51 1-19-20 8-11-6-32-16-34-16-18-7-35-11 29-19 34-17 33-12 34-10 86-16-62-58-42 10-39 16-38 19-35 23-31 26-30 31-27 32-25 37-21 40-15 40H442V379l101 33 22 7 48 11 4-9-41-26-149-85-3-21-17 10-17 26h-11v16l-7 12 7 2v511l63-31h100v84l63-11 16-11-16-8v-54h100l31 26 58-48-26-20V577l-63-31v31H570l49-61 28-31 29-26 18-15 88 75 31 30Z"/></symbol></svg>