<svg xmlns="http://www.w3.org/2000/svg"><symbol id="𭘭_S" viewBox="0 0 1000 1000" data-size="21"><path transform="matrix(1 0 0 -1 43 966)" d="M602 314H445v22h232l52 52 64-52v-22H664V84l-1-14-2-12-5-13-6-13-8-10-11-8-12-7-13-4-12-2-14-1v31l-95 16v16h101l5 1 4 1h2l1 1v1l1 2 1 3 1 5 1 7v230M126 932l62-11 17-11-17-9V753h70l31 26 58-47-27-21V287h-62v445h-70V44l-62-31v719H63V228L0 196v588l63-31h63v179m117-666 5 1 3 1 2 1 2 2 1 1 1 3v5l1 7h62v-14l-3-13-4-13-6-12-9-10-10-8-12-7-13-5-13-2h-14v31l-42 16v16h49m115 58 49-40-21-11-24 7-10 21 6 23m65 203 5-34 2-23h395l31 26 58-48-26-15-13-5-8-16-45-77-11-17-11-18-9 4 7 20 3 20 12 53 6 32 4 19H432l1-15v-28l-1-25-2-23-3-20-4-20-7-17-9-16-19 16-1 1-20 16-9 7 6 6 7 9 6 13 7 15 6 20 6 22 4 26 4 28 6 30 4 34h9m27 208 64-31h226l31 26 58-46-26-22V539l-63-32v42H514v-16l-64-31v233m290-51H514V570h226v114m-367 97v21h223v129l62-11 16-11-16-9v-98h107l52 52 64-52v-21H373Z"/></symbol><symbol id="𭘮_K" viewBox="0 0 1000 1000" data-size="21"><path transform="matrix(1 0 0 -1 59 946)" d="M783 555c9-9 13-15 13-20 0-6-7-11-20-15v-75c0-9 1-18 1-28 1-9 1-15 1-18 0-12-8-20-26-23-4-1-7-1-10-1-6 0-9 3-10 8v24H607v-99h159l12 22c9 12 13 19 14 19 2 0 7-5 17-15l21-26c12-13 18-22 18-27 0-6-10-11-30-14V142c0-51-11-83-35-97l-31-11c-6-2-11-3-16-3-4 0-7 3-7 8 0 1 1 3 1 6v7c0 12-5 20-17 23l-72 19 5 14 73-12c7-2 13-2 17-2 26 0 38 21 38 62v132H607V21c-1-7-9-12-23-16-9-3-15-5-17-5-4 0-5 4-5 13 0 2 0 11 1 27v248H404V99c0-33 0-50-1-52 0-2-7-5-19-9-10-4-16-6-18-6-4 0-6 3-7 7v24c1 17 1 32 1 45v176l-7 52 58-28h152v99H443c2-13 1-22-2-26-2-3-10-7-22-12-5-2-9-3-11-3-4 0-7 5-8 15 0 4-1 25-1 61v73l-3 62 52-22h272l11 16c9 11 14 16 17 16s8-4 16-11l19-21M307 682c11-9 16-15 16-20 0-4-3-7-10-11-5-2-11-5-17-9V307c0-37-6-62-19-73l-24-16c-7-3-13-4-18-4-4 0-7 5-9 16-2 12-7 19-16 22l-36 11 3 16 41-7c7-1 12-1 16-1 9 0 15 2 17 8 1 4 2 11 2 24v368h-82V68c0-29 0-45-1-47s-9-7-24-14c-7-3-12-5-14-5-3 0-5 2-6 6-1 3-1 11 0 22 1 15 1 28 1 39v602H48V251c0-25 0-38-1-40-1-1-9-6-26-13-5-2-9-4-11-4-3 0-5 4-5 12v465l-5 44 56-24h71v157l-2 45 46-7c17-3 26-7 26-13 0-7-9-16-26-25V691h68l16 16c4 5 7 7 9 7s7-4 17-11l26-21m575-36-5-18H330v20h130l30 120h-98v21h103l20 69 2 30 36-9c18-5 27-10 27-15s-9-10-26-14l-16-61h159l17 21c7 9 12 13 14 13 3 0 9-4 18-13l20-18c10-10 15-17 15-22 0-8-7-13-22-15V648h29l20 34c5 11 10 16 14 16s11-5 22-14l38-38M732 427v108H443V427h289m-16 221v120H533l-30-120h213Z"/></symbol><symbol id="𭘯_G" viewBox="0 0 1000 1000" data-size="21"><path transform="matrix(1 0 0 -1 35 979)" d="m706 906 40-37h101l31 35 42-35c6-3 9-7 9-10s-3-6-9-8l-19-14V85c0-16-4-31-12-44-7-11-28-20-62-25-3 18-13 31-30 39-17 7-38 13-63 17l2 15c52-10 84-15 95-14 12 0 21 2 26 5s7 27 7 72v249H751c-4-81-10-142-17-183-15-83-50-155-106-216l-10 9c41 61 69 134 85 220 11 75 16 227 16 458v164c-1 15-9 30-23 47l10 8m-450-6c-1-4-2-10-3-17-2-8-3-14-4-18-7-29-14-58-22-86h126l30 42 60-48c6-5 8-9 7-12-2-2-8-3-17-2H222c-21-71-46-138-77-203l15-14h86v105c1 11-6 25-20 40l7 12 71-31c8-3 10-7 5-10-12-6-21-13-26-20v-96h67l26 36 45-36c5-3 7-7 8-10-1-3-3-6-8-8l-19-11V254c0-17-4-32-11-44-7-14-29-24-65-31 0 17-6 28-17 34-7 3-15 6-26 9v-69l3-95c1-13-3-23-11-30-7-5-18-10-34-15 1 15 3 63 4 146 1 17 1 29 1 38v326h-79V209c0-13-4-23-11-30-7-6-17-11-31-15 1 12 3 43 4 93 0 25 0 46 1 61v171c1 14 0 26-2 35-33-63-72-123-118-182L0 353c82 130 142 265 181 406h-60c-17 0-30-4-40-12l-31 32h136c8 29 15 59 21 89 1 5 2 12 5 23 5 19 6 30 5 31-1 9-7 18-18 27l8 9 74-30c7-3 10-6 10-8 1-2-2-4-8-6-9-2-18-7-27-14m386-63V120c2-16-1-31-10-44s-30-21-63-26c-3 19-12 32-29 39-19 8-40 14-63 18l1 15c57-10 89-15 96-14 12 0 20 2 25 6 4 4 6 34 6 91v192H500c-5-71-13-129-24-175-28-93-69-164-122-214l-10 7c49 66 83 139 102 218 17 69 25 219 24 450v174c-2 15-9 29-20 43l9 8 40-39h91l26 37 47-37c7-3 10-7 11-10-1-3-4-6-11-8l-21-14M283 523V239c27-4 45-5 54-4 9 0 16 2 21 7 5 4 7 27 7 70v211h-82m473 103c0-78-1-148-4-209h112v209H756m0 223V644h108v205H756M507 626c0-82-2-152-6-211h104v211h-98m0 223V644h98v205h-98Z"/></symbol><symbol id="𭘰_S" viewBox="0 0 1000 1000" data-size="21"><path transform="matrix(1 0 0 -1 58 957)" d="M683 255H350v21h333v116l57-11 15-11-15-9v-85h30l52 52 63-52v-21H740V82l-1-13-1-12-4-12-5-11-7-11-10-8-11-7-11-4-12-3-13-1v29l-80 15v14h80l6 1h3l2 2h2v1l1 1 1 2 1 4 2 6v180M121 900l58-9 14-11-14-9V728h65l31 26 59-48-26-20V276h-64v430h-65V39l-58-29v696H58V217L0 188v568l58-28h63v172m384-790-5 12-13 24-8 12-20 26-24 26-15 13 5 7 17-8 18-7 17-9 15-9 15-9 26-23 12-13 11-13 9-14 1-24-16-18h-24l-18 16-3 11M308 276l-1-13-2-13-5-13-7-12-8-10-11-9-12-7-12-4-14-2-12-2v33l-42 15v16h42l5 1 5 1 5 1 2 2 2 5 1 5v6h64m275 635 58-11 14-9-14-10V780h123l52 52 64-52v-21H641v-79h123l32 26 58-47-27-21V381l-63-31v52H641v-33l-58-28v61H460v-37l-64-31v378l64-32h123v79H350v21h233v131m0-373H460V423h123v115m181 0H641V423h123v115M583 659H460v-99h123v99m181 0H641v-99h123v99m-33 176-2 8-4 8-11 15-7 8-23 25-12 6 4 9 12-5 12-2 13-2 12-4 10-5 12-4 10-6 11-7 8-7 9-9 6-23-13-21-23-4-21 13-3 7Z"/></symbol><symbol id="𭘱_K" viewBox="0 0 1000 1000" data-size="21"><path transform="matrix(1 0 0 -1 53 934)" d="m0 716 44-26h83v131l-5 47 63-16c20-6 26-12 16-18-6-3-16-6-30-9V690h83l29 32 34-32c11-9 16-16 14-21-2-6-11-9-27-9V298c0-24-5-42-13-55-12-15-31-27-59-35-2 18-7 31-15 39-7 7-23 14-46 22V54c0-18-1-29-3-34-3-8-10-13-22-17-10-2-16-1-18 2-2 4-3 13-2 27l1 27v617H44V222c1-10 1-16-1-19-3-4-9-7-21-11-9-2-15-2-18 1-1 3-2 11-1 24l1 22v421l-4 56m171-433h2c36-6 60-8 70-7 13 2 20 9 20 22v378h-92V283m712 267c12-14 14-22 7-26-5-2-22-2-50-2h-1l-52-60-7 6 30 84H399c-2-32-6-61-12-86-9-36-22-61-37-74-10-8-18-8-23 2-6 9-7 23-5 44 0 5 2 11 4 15 1 3 5 7 10 14 12 15 22 30 28 45 10 26 15 62 15 105h7l12-51h35v254l-2 48 51-38h216l31 32 49-33c15-11 20-19 17-23-4-4-17-6-38-6V566h43l35 31 48-47m-114-98c16-10 23-17 22-22-1-6-12-9-33-10V96c0-25-7-45-20-59-15-16-41-28-78-35-2 19-10 32-22 40-13 10-37 19-74 26l-1 10 118-6c11 1 20 3 24 6 5 4 8 11 8 21v108H472V39c1-10 1-18-1-22-4-8-12-12-25-15-11-2-17-1-19 2s-2 9-1 18l2 9v385l-2 64 45-29h227l30 33 41-32m-56 237H613V566h100v123m0 125H480V566h89v130l-4 41 53-33h95v110m0-380H472v-93h241v93m0-109H472V223h241v102Z"/></symbol><symbol id="𭘲_K" viewBox="0 0 1000 1000" data-size="21"><path transform="matrix(1 0 0 -1 69 935)" d="m862 485-9-13H738V345h13l15 18c9 9 15 14 16 14 2 0 7-4 15-12l34-27-7-13H587V213h172l20 22c11 11 17 17 18 17s8-6 19-17l27-28-6-14H587V63c2-12 3-20 3-25 0-10-8-19-23-29-11-5-17-7-18-7-3 0-5 13-5 38v153H291v20h253v112H327v20h66v127H293v20h100v126h-67v20h423l15 20c6 7 10 10 11 10 2 0 8-3 16-9l36-25-6-16h-83V492h44l15 20c6 8 10 12 12 12 1 0 8-4 20-12l33-27m-166 7v126H587V492h109m0-147v127H587V345h109M544 492v126H436V492h108m0-147v127H436V345h108M287 669c12-11 18-19 18-23 0-2-8-9-23-21V288c0-43-7-68-21-75l-19-10c-7-3-12-5-15-5-4 0-7 5-9 14-2 10-6 16-12 18l-37 14 3 10 42-5c12-1 19 1 23 7 2 3 2 13 2 28v359h-78V60c0-28 0-42-1-43-1-4-9-9-23-14-5-2-10-3-13-3-4 0-6 2-7 6v21c1 15 1 26 1 36v580H43V242c0-23 0-36-1-37-1-3-9-8-24-15-6-3-9-4-11-4-4 0-6 4-6 12v42L0 690l51-27h67v162l-5 45 48-8c16-2 25-8 25-15s-9-15-25-22V663h62l15 20c7 9 12 14 15 14s8-3 14-9l20-19m566 98-4-17H675v-36c0-6 0-12 1-19 1-6 2-10 2-11 0-7-8-13-23-20-9-3-15-5-18-5-4 0-6 3-6 10 0 2 0 8 1 18 0 10 1 19 1 28v35H490v-32c0-29 1-42 1-40-1-6-8-11-21-15-7-2-12-3-15-3-4 0-7 3-9 9 1-3 1 12 1 44v37H293v21h154v63l-2 35 45-10c17-4 25-9 25-15 0-7-8-13-25-20v-53h143v63l-3 31 40-6c16-2 24-7 24-14s-6-12-19-17v-57h88l16 27c8 12 13 17 16 17s9-4 18-13l40-35Z"/></symbol><symbol id="𭘳_S" viewBox="0 0 1000 1000" data-size="21"><path transform="matrix(1 0 0 -1 34 963)" d="m782 321 37-50 2-18-19 7-35-19-39-19-41-17-23-8-22-7 19-13 39-24 42-19 45-18 48-13 98-23-62-57-55 16-51 20-48 22-44 26-40 30-37 33-33 35-28 39-24 42-14 36-50-30-37-21-40-20-43-20-5-2V94l70 16 104 22 38 7 38 5 3-9-71-31-226-84-5-20-15 12-4 10v1l-7 21-4 12-1 3-3 8-1 4 21 5v128l-79-29-56-18-59-15-62-16-3 9 217 94 89 46 77 44 12 9H28v21h767l52 52 63-52v-21H508l22-30 30-35 31-32 34-29 2-2 79 58 62 51 9 8 3 3 2 1M238 71l20-59-29 55 9 4M49 580l-17 41-6 17 10 3 10 4 9 3 8 6 7 8 8 10 6 12 6 13 6 17 1 17 9 1 2-18 1-7h203l-10 7-7 18-4 10-6 10-14 19-8 10-21 21-12 8 4 8 15-5 15-4 13-5 14-6 13-7 11-8 12-9 12-8 10-11 8-11 3-24-10-13h196l6 7 61 81 8 13 7 10H70v22h363v87l62-11 16-11-16-9v-56h247l53 52 62-52v-22H652l32-30 4-17-22 3-18-13-26-20-28-19-27-15h264l5 3 4 8 3-2 20 16 58-46-26-16-54-23-21-11-45-22-11-8 20-16-26-21v-85h-63v106H495V388l-62-33v235H232V438l-62-31v236l62-32h201v68l62-11 16-10-16-10v-37h200l32 27 29-25 12 11 50 62H111v-8l-2-18-4-15-6-17-9-14-12-13-14-12-15-10v1m709-96-1-12-2-14-4-13-7-11-9-11-10-9-12-6-13-5-13-2-13-1v32l-63 16v16h69l5 1 3 1 1 1 1 1 1 1 1 2 1 3 1 5 1 5h63M26 638l23-59-24 1-17 18 1 23 17 17Z"/></symbol><symbol id="𭘴_J" viewBox="0 0 1000 1000" data-size="21"><path transform="matrix(1 0 0 -1 51 949)" d="M360 392c-23-35-52-70-86-106l-15 20c78 100 134 227 170 381H301l-9 24h64v187c59 0 89-7 89-23 0-8-13-18-39-27V711h18l33 50c36-35 54-57 54-66 0-3-2-7-6-9l-25-16c-21-76-45-140-70-191v-14c14-9 23-14 25-15 8 21 21 59 37 113 40-18 60-34 60-46 0-7-10-11-30-11-16-25-32-48-49-68 42-33 64-69 64-108 0-22-9-33-26-33-13 0-23 10-28 28-14 45-32 81-53 108V1h-50v391m239 58c-4-189-45-339-120-449l-20 18c60 122 89 274 89 456v291c14-8 35-21 64-40h65v172c59-1 88-9 88-23 0-9-13-18-38-27V726h68l34 48c40-40 60-66 60-79 0-5-3-9-10-11l-25-8c-20-38-43-73-71-107l-18 12c18 46 31 86 37 120h-75V475h43l33 44c35-32 53-54 53-65 0-4-3-8-9-11l-22-13c-24-80-53-150-87-212 42-57 95-104 161-140-15-15-28-36-40-62-61 43-110 95-148 157C662 99 605 41 540 0l-13 22c63 50 116 116 159 197-31 61-55 138-74 231h-13m0 25h78v226h-78V475m38-25c10-36 17-63 23-80 14-39 30-74 48-106 27 55 49 118 67 186H637M150 239V1H98v674H50V187H0v547c21-11 40-22 57-34h41v197c64-2 96-10 96-25 0-9-14-19-44-28V700h43l35 47c36-31 55-51 55-61 0-4-3-7-7-10l-24-17V252c0-30-10-48-29-54-12-4-25-6-40-6-1 23-12 39-33 47m0 28c7-1 15-1 26-1 17 0 26 7 26 22v387h-52V267Z"/></symbol><symbol id="𭘵_K" viewBox="0 0 1000 1000" data-size="21"><path transform="matrix(1 0 0 -1 70 935)" d="m859 560-7-12H291v20h256v74H396c0-1 1-2 1-3 1-2 1-3 1-4 0-5-8-10-26-16-4-1-7-2-10-2-4 0-7 2-8 5-2 3-2 9-1 16 0 13 1 22 1 25v79l-5 45 53-20h145v48l-5 39 49-11c15-5 23-9 23-14 0-4-8-8-25-14v-48h139l13 15c3 4 7 6 10 6s8-3 16-10l20-23c7-9 11-15 11-19 0-2-7-6-21-9v-59c0-21 1-30 1-28-1-6-9-10-24-15-5-2-10-3-13-3-4 0-6 2-7 6v14H589v-74h180l20 25c7 9 12 13 15 13 1 0 7-4 17-13l38-33m-82-72c8-8 12-14 12-18 0-7-7-12-21-15V218c0-41 0-59 1-55-1-6-8-12-22-17-4-2-8-3-12-3-6 0-10 3-10 10 0-5 1 4 1 27H396c0-11-1-18-1-19-2-4-9-8-21-12-5-2-9-3-12-3-6 0-9 5-9 14 0-9 1 7 1 47l-2 303 51-17h310l13 14c7 8 12 12 13 12 2 0 6-4 15-11l23-20m59-444c1-5 2-10 2-14 0-10-3-15-9-15s-13 4-20 13c-30 33-82 67-156 102l4 8c68-22 113-38 134-50 24-12 39-26 45-44m-357 88c7-6 10-11 10-15 0-5-4-8-13-8-6 0-11 1-17 3C387 68 311 33 229 7l-6 7c87 37 164 84 230 141l26-23m255 530v85H589v-85h145m-187 0v85H396v-85h151m179-270v81H396v-81h330m0-99v79H396v-79h330m0-93v73H396v-73h330M287 669c12-11 18-19 18-23 0-2-8-9-23-21V288c0-43-7-68-21-75l-19-10c-7-3-12-5-15-5-4 0-7 5-9 14-2 10-6 16-12 18l-37 14 3 10 42-5c12-1 19 1 23 7 2 3 2 13 2 28v359h-78V60c0-28 0-42-1-43-1-4-9-9-23-14-5-2-10-3-13-3-4 0-6 2-7 6v21c1 15 1 26 1 36v580H43V242c0-23 0-36-1-37-1-3-9-8-24-15-6-3-9-4-11-4-4 0-6 4-6 12v42L0 690l51-27h67v162l-5 45 48-8c16-2 25-8 25-15s-9-15-25-22V663h62l15 20c7 9 12 14 15 14s8-3 14-9l20-19Z"/></symbol><symbol id="𭘵_S" viewBox="0 0 1000 1000" data-size="21"><path transform="matrix(1 0 0 -1 58 961)" d="m546 168 40-49 2-19-20 6-27-17-50-27-26-13-27-12-30-11-30-10-31-9-33-7-3 9 109 63 68 47 40 32 13 13 3 2 1 1 1 1M798 17l-21 26-11 13-31 27-16 13-61 41-22 13 3 9 51-13 25-8 21-10 23-10 19-11 36-23 17-13 15-13 7-23-10-21-24-7-21 10M121 907l58-10 14-10-14-9V734h65l31 27 59-48-26-21V283h-64v430h-65V46l-58-29v696H58V224L0 195v568l58-29h63v173m302-362 63-31h242l31 26 57-47-26-21V198l-62-31v31H486v-15l-63-32v394M308 283l-1-13-2-13-5-13-7-13-8-9-11-9-12-7-12-4-14-2-12-2v32l-42 16v16h42l5 1 5 1 5 1 2 2 2 4 1 5v7h64m420 16H486v-79h242v79m0 99H486v-79h242v79m0 95H486v-74h242v74m-378 78v22h230v89H480v-16l-62-31v225l62-31h100v94l64-10 15-11-15-9v-64h99l31 25 58-46-26-21V671l-63-31v42h-99v-89h145l43 47 53-47v-22H350m230 237H480V703h100v105m163 0h-99V703h99v105Z"/></symbol><symbol id="𭘶_K" viewBox="0 0 1000 1000" data-size="21"><path transform="matrix(1 0 0 -1 54 945)" d="M293 680c10-9 16-15 16-20 0-4-4-7-10-11-6-2-12-5-19-9V305c0-37-5-62-16-73l-27-16c-6-3-11-4-15-4-5 0-8 5-10 17-1 11-7 18-18 21l-26 11 3 16 32-6c8-2 14-2 18-2 8 0 12 2 14 8 2 4 2 11 2 24v368h-72V66c0-29-1-45-2-46-1-3-8-8-22-15-8-3-12-5-15-5-4 0-6 2-7 6-1 3-1 11 0 22 1 15 1 28 1 39v602H48V249c0-25 0-38-1-40-1-1-9-6-26-13-5-2-9-4-11-4-3 0-5 4-5 12v465l-5 44 56-24h64v157l-2 45 47-7c17-3 25-7 25-13 0-7-8-16-25-25V689h60l14 16c5 5 9 7 11 7s7-4 17-11l26-21m328-286c-6-12-18-28-38-48 25-24 48-54 66-90 25 13 49 27 72 43 23 18 42 35 56 50l30-22c9-7 13-14 13-20 0-9-11-10-33-4-29-18-71-39-124-64 77-73 153-110 230-111l-3-12c-19 1-32-5-39-18-8-13-12-19-13-19-5 0-12 2-21 5-51 25-98 63-139 113 10-32 15-60 15-86 0-52-22-86-67-101-14-4-23-6-29-6-7 0-11 4-12 14-1 8-5 14-13 16l-71 28 2 9 94-19c6-2 12-2 16-2 15 0 25 9 30 27 4 18 6 36 6 54 0 21-2 38-6 51-30-22-74-48-130-78-56-28-101-48-133-59l-8 7c45 21 94 46 148 76 47 34 84 66 110 98-7 18-13 31-20 39-53-49-122-85-207-108l-3 8c36 10 73 29 114 56 37 29 64 55 81 77-9 16-18 28-26 36-46-41-102-73-167-95l-6 8c42 18 82 41 117 69 31 30 52 56 62 78H402v20h400l9 12c5 8 9 12 12 12 2 0 8-2 18-7l36-22-3-15H621m246 292c6-8 9-13 9-16 0-6-13-9-40-9l-54-52-8 7 33 69H388V447c-6-177-46-318-120-421l-13 8c60 92 90 223 90 395v251l-3 51 53-26h136v140l-2 40 53-8c15-2 22-6 22-12 0-5-9-11-28-19v-48h186l10 20c6 9 12 14 18 14 4 0 10-3 18-10l34-29-4-16H576v-72h233c12 10 19 15 20 15 3 0 10-5 19-14l19-20m-4-189c0-13-27-19-81-19H596c-32 0-52 3-61 11-6 5-9 18-9 37v42l-130-15v21l130 15v55l-2 27 47-6c18-2 27-5 27-11 0-4-9-11-28-19v-41l122 20 9 15c5 9 9 14 12 14 4 0 10-3 18-9l36-20-2-15-195-25v-41c0-12 2-19 5-23 4-3 14-5 29-5h161c22 0 37 9 46 28l22 51 10-4-10-49c-2-11 3-19 14-23 11-3 16-7 16-11Z"/></symbol><symbol id="𭘷_S" viewBox="0 0 1000 1000" data-size="21"><path transform="matrix(1 0 0 -1 34 969)" d="m431 396 62-10 17-10-17-10v-56h277l31 26 57-48-26-20V135h-62v153H493V31L431 0v288H167V72l-63-31v300l63-31h264v86m401-261v-13l-3-14-4-11-7-13-8-11-11-9-11-5-13-4-13-3-14-1v32l-73 16v15h80l5 1 3 1 2 1 1 1v1l2 2 1 3v5l1 6h62M381 486l43-46-10-7-9-8-10-7-11-6-12-5-12-4-11-3-12-2-13-2h-12v32l-105 15v16h105l16 1 7 2 15 4 12 6 7 5 6 4 6 5m437-59-47 23-44 28-39 29-13 12-33-26-51-30-56-25-60-19-67-14-3 9 63 24 56 26 50 29 44 32 28 26-22 25-23 38-19 41-12 44-3 25-21-20-26-19-28-18-6 7 58 74 31 50 28 52 21 53 8 29 3 6 57-28 11-14-19-4-19-39-17-29-17-26-5-7h176l52 53 63-53v-20h-93l-14-55-22-54-27-49-34-46-13-12 43-29 41-20 45-18 90-28-61-54-54 21m-397 16 3-3 13 16 9 19 7 20 5 24 5 26 3 30 3 33 1 38v58l26 16-58 47-32-27H204l3 4 2 2 20 1-8 17-50 35 36 18v21h115v-73l64 32v41h168v21l-64 52-52-52h-52v38l15 10-15 11-64 11v-70H207v38l16 10-16 11-63 11v-70H8v-21h136v-53l24 13-5-8-5-12-10-15-26-34-16-16-17-18-1 1v-2l-40-33-48-37 4-8 30 10 29 12 25 12V481l62 32v15h102v-42l63 32v105l27 21-59 47-31-26H150l-21 10 26 19 20 16 9 10h222v-74l-1-35-2-30-3-27-4-24-3-18-5-14-4-8-3-4 13-13v-1l27-29M252 644v-95H150v95h102m509 127H610l-19-23-12-13 12-29 19-38 23-33 25-31 20-18 10 13 27 41 21 46 17 47 8 38Z"/></symbol><symbol id="𭘸_K" viewBox="0 0 1000 1000" data-size="21"><path transform="matrix(1 0 0 -1 58 945)" d="M401 402c13-13 19-22 19-27 0-6-10-10-29-13V146c0-50-12-83-37-97l-30-11c-6-2-11-3-15-3-5 0-7 3-7 8 0 1 0 3 1 6v7c0 12-6 20-18 23l-51 15 6 14 51-8c7-2 13-2 18-2 25 0 38 20 38 62v222H220V20c-2-6-9-11-24-15-9-3-14-5-16-5-4 0-6 4-6 13 0 2 0 11 1 27 0 16 1 31 1 45v297H52V99c0-33-1-50-1-52-1-2-7-5-20-9-10-4-16-6-18-6-4 0-6 3-6 7-1 3-1 11 0 24 0 17 1 32 1 45v270l-8 52 58-28h118v114H82v-30c-1-3-9-7-23-10-10-2-15-3-17-3-3 0-4 1-5 4-1 2-1 7 0 15 1 11 1 19 1 27v222l-5 51 54-27h52l35 125 39-20c16-8 24-14 24-19s-10-8-32-9l-44-77h144l15 26c7 11 12 17 13 17 3 0 8-6 17-17l20-28c11-15 17-25 17-30s-9-10-26-12V524c0-19 0-30-2-32 0-1-7-3-19-7-9-3-15-5-18-5s-5 1-6 3c0 3-1 7-1 13 1 9 1 16 1 20h-96V402h118l13 22c8 13 13 19 13 19 2 0 8-5 17-15l20-26m465 0c12-13 18-22 18-27 0-6-10-10-30-13V146c0-50-11-83-35-97l-31-11c-6-2-11-3-16-3-4 0-6 3-6 8 0 1 0 3 1 6v7c0 12-6 20-18 23l-50 15 5 14 50-8c8-2 14-2 18-2 26 0 39 20 39 62v222H684V20c-2-6-10-11-24-15-9-3-14-5-16-5-4 0-6 4-6 13 0 2 0 11 1 27 0 16 1 31 1 45v297H516V99c0-33-1-50-1-52-1-2-8-5-21-9-10-4-15-6-17-6-4 0-6 3-6 7-1 3-1 11 0 24 0 17 1 32 1 45v270l-8 52 57-28h119v114h-94v-30c-1-3-9-7-24-10-9-2-14-3-16-3-3 0-4 1-5 4-1 2-1 7 0 15 1 11 1 19 1 27v222l-6 51 55-27h52l35 125 39-20c16-8 24-14 24-19s-11-8-33-9l-44-77h145l15 26c7 11 11 17 12 17 3 0 9-6 17-17l21-28c11-15 17-25 17-30s-9-10-26-12V524c0-19 0-30-1-32 0-1-7-3-20-7-9-3-15-5-18-5-2 0-4 1-5 3 0 3-1 7-1 13 1 9 1 16 1 20h-97V402h118l12 22c9 13 13 19 14 19 2 0 8-5 17-15l21-26m-85 135v95H546v-95h235m-465 0v95H82v-95h234m0 115v93H82v-93h234m465 0v93H546v-93h235Z"/></symbol><symbol id="𭘹_G" viewBox="0 0 1000 1000" data-size="21"><path transform="matrix(1 0 0 -1 17 974)" d="M256 890c-2-11-4-23-7-35-7-29-14-58-21-86h125l30 42 60-48c6-5 8-9 7-12-2-2-8-3-17-2H222c-21-71-46-139-77-203l15-14h86v105c1 11-6 25-20 40l7 12 71-31c8-3 10-7 5-10-12-6-21-13-26-20v-96h67l26 36 45-36c5-3 7-7 8-10-1-3-3-6-8-8l-19-11V244c0-17-4-32-11-44-7-14-29-24-65-31 0 17-6 28-17 34-7 3-15 6-26 9v-69l3-95c1-13-3-23-11-30-7-5-18-10-34-15 1 15 3 63 4 146 1 17 1 29 1 38v326h-79V199c0-13-4-23-11-30-7-6-17-11-31-15 1 12 3 43 4 93 0 25 0 46 1 61v171c1 14 0 26-2 35-33-61-72-122-118-182L0 343c82 130 142 265 181 406h-60c-17 0-30-4-40-12l-31 32h136c8 29 15 59 21 89 1 5 2 12 5 23 5 19 6 30 5 31-1 9-7 18-18 27l8 9 74-30c7-3 10-6 10-8 1-2-2-4-8-6-9-2-18-7-27-14m313-621-8 14c75 49 135 105 182 166-22 33-40 68-53 105-25-43-56-82-91-117l-10 9c59 85 100 168 123 251v1c-5 12-9 21-12 26l6 8 70-34c3-6 2-9-3-9-10 1-19-5-27-16-4-12-8-24-13-35h96l26 30 44-41c5-7 5-11-2-12-6-1-11-3-16-6-9-7-17-19-23-36-20-47-44-89-72-126 55-60 115-98 180-114v-14c-3 0-7 0-12-1-19-1-30-4-33-8-2-3-5-7-8-12-2-3-4-6-5-7-61 42-109 85-144 129-29-34-67-67-112-99l29-28h141l23 32 42-36c5-7 4-13-3-16l-15-14V118l6-76c0-7-2-12-7-15-13-7-25-11-38-12v52H692V42c0-17-3-27-9-30-10-6-21-10-34-12 3 42 5 72 5 91v179c0 9-4 24-11 44l5 4c-24-17-50-33-79-49m172 674 69-30c6-2 9-4 9-7 0-1-4-3-12-8-12-7-19-13-21-16v-56h82l29 35 54-45c5-3 7-5 7-8 0-1-3-2-8-2H787l2-40c1-23-13-37-42-43 1 6 1 17 2 32 1 25 3 42 4 51H621l2-56c3-25-11-39-42-43 1 7 2 24 3 49 1 26 3 43 4 50h-75c-15 0-28-4-39-13l-33 33h147v72c0 10-7 22-22 37l9 11 70-29c5-2 8-4 8-7 0-1-4-3-11-8-12-8-19-13-21-16v-60h132v68c0 11-7 23-21 37l9 12m89-670H692V86h138v187M283 513V229c27-4 45-5 54-4 9 0 16 2 21 7 5 4 7 27 7 70v211h-82m312 52 14-6-48-180c-9-33-19-71-32-112-16-47-23-83-22-110 0-9 1-25 4-48s4-38 4-47c0-28-7-43-20-44h-3c-12 0-18 13-18 39 0 8 1 24 4 48 2 22 3 36 3 43 3 31-13 46-47 44-3 1-5 1-7 1v14c1 0 1 0 2-1 3-1 7-1 11-1 29-1 50 20 63 65l92 295m129 53c-8-17-16-32-23-45 16-34 36-67 61-98 29 42 53 90 72 143H724m-267 84 4 9c61-22 95-54 102-96-1-18-7-28-20-29-9-1-15 6-18 23-8 37-31 68-68 93m-18-163 4 10c56-29 84-65 85-108-1-16-8-25-22-26-3 0-7 6-11 19-1 2-1 4-1 5-8 43-26 77-55 100Z"/></symbol><symbol id="𭘺_G" viewBox="0 0 1000 1000" data-size="21"><path transform="matrix(1 0 0 -1 37 964)" d="m443 195 7-14-250-75c-58-17-97-29-118-37-19-8-36-19-51-33L0 81l78 20v293c-1 15-5 26-10 32l10 9 23-20h244l26 29 38-33c5-4 7-7 6-10s-4-5-10-6l-19-13V180l57 15m398 162V175c0-17-3-32-10-43-6-12-25-21-56-27 2 33-22 51-73 52l2 16c7-1 10-2 7-1 43-7 66-11 69-10 8 0 14 2 19 6s8 27 7 69v131H686V80l2-37c2-23-14-38-48-43 3 25 6 66 7 125v243H533V213l4-67c1-25-14-40-46-45 3 26 6 79 7 158v125c-1 3-6 8-15 16l-3 3 15 15 30-30h122v64c1 11-9 25-28 44l9 12 81-34c8-3 10-7 5-11-13-5-22-12-28-21v-54h110l19 34 45-33c5-4 8-8 8-11s-3-5-8-8l-19-13M487 663h307v98H580c-17 1-31-4-42-13l-32 29h288v96H553c-12 1-24-3-36-14l-32 34h294l35 35 41-44c5-3 7-6 6-9s-4-5-9-6l-18-8V723l3-86c2-18-12-30-43-36v42H560c-17 1-31-4-42-13l-31 33M109 395V109l63 16v270h-63m704 56 35 80H501c0-7 0-13-1-18-3-27-12-48-26-63-15-13-27-13-37 0-6 9-4 18 5 27 11 11 19 24 26 40 7 14 13 39 16 74h12c1-9 2-20 3-33 1-3 1-6 1-7h344l22 28 58-49c1-3 1-6 0-7-2-1-5-1-9 0-23-3-45-19-66-48-9-11-17-20-23-27l-13 3m-613-56V132l63 16v247h-63m91 0V155l64 17v223h-64M30 699h333l23 31 49-41c5-3 8-6 7-8-1-1-5-2-12-2H107c-18 1-32-4-43-13l-34 33m104-56 59-29c11-7 13-12 7-15-14 1-23-1-27-6-47-84-97-150-150-198l-7 10c41 53 70 99 89 138 20 39 30 62 29 68-1 5-4 13-9 24l9 8m194 273 62-35c11-7 14-12 7-15-14 1-27-3-39-14-21-45-48-92-81-143l-14 8 37 88c19 46 28 73 28 80s-3 15-8 24l8 7M88 902l10 11c55-39 87-76 98-112 11-41 6-64-14-68-10 1-16 12-19 33-3 23-9 44-17 63-11 21-31 45-58 73m185-281 5 11c43-22 70-37 80-46 17-13 30-27 38-43 19-39 18-63-3-73-9-1-16 8-20 28-3 18-13 37-28 58-15 19-39 41-72 65Z"/></symbol><symbol id="𭘻_S" viewBox="0 0 1000 1000" data-size="21"><path transform="matrix(1 0 0 -1 38 956)" d="m121 891 58-10 14-11-14-9V718h65l31 26 59-48-26-20V267h-64v429h-65V29L121 0v696H58V207L0 179v567l58-28h63v173m676-328 49-41 6-17-25 2-67-56-8-7 18-17 27-22 28-19 53-32-59-45-32 23-31 26-27 28-12 14v-18H476v5l-32-30-6-4 61-31h193l32 27 57-47-26-22V174l-52-27 24-15 9-17-22-1-50-67-18-23h102l53 53 63-53V4H339v20h183l-13 18-1 12-2 11-4 24-3 11-8 22-4 12-5 11-6 9 6 7 9-9 12-6 20-17 9-11 18-21 7-12 6-13 7-13-4-24-13-11h78l2 6 6 29 4 14 18 58 8 24h-1l2 3v2l3 6 19-13v21H499l-62-31v209l-24-19-33-21-35-19-5 9 55 52 25 28 24 28 18 26-8-1-19 15-2 10-8 19-14 29-17 27-9 8 5 8 10-6 12-4 11-5 11-6 10-7 10-6 20-18 8-9 8-11 32 62 16 36 6 17H403v20h147l31 27 39-33-5 34 10 3 18-40 18-35 19-33 10-17 22 50 14 34 3 10 1 4h-1l5 10 52-37 8-17h-24l-46-47-25-21 23-28 17-21 22 37 30 58 1 4h-1l3 3v2l3 2M308 267l-1-14-2-13-5-12-7-13-8-10-11-9-12-7-12-3-14-2-12-2v32l-42 15v16h42l5 1 5 1 5 1 2 2 2 5 1 5v7h64m384 35H499V194h193v108m-67 284-13-8-10-5-9-20-21-38-21-36-25-34-25-31-11-12h131l43 48 46-41-28 40-20 34-16 38-14 38-7 27m-303 25 46-43-22-9-23 8-10 23 9 21m46-43-22 22h-1l-17 15-5 5-1 1 6 6 7 8 7 13 7 14 6 18 6 21 5 25 10 56 4 33 10 1 6-56h187v162l63-11 16-10-16-9V750h190l31 26 58-47-26-16-14-6-9-15-36-57-24-31-11-18-8 4 7 20 26 101 3 14 1 4H397l1-15v-26l-1-26-2-21-4-21-6-18-7-18-10-16Z"/></symbol><symbol id="𭘼_S" viewBox="0 0 1000 1000" data-size="21"><path transform="matrix(1 0 0 -1 39 956)" d="M221 266v429h-58V241h40l6 1h3l4 2 1 1 2 4 1 4 1 6v7M498 53l-2 11-3 13-4 11-4 12-5 11-18 37-9 10 6 8 12-9 12-8 25-18 10-10 10-11 9-11 8-12 8-14 7-13-2-24-16-14h95l4 7 8 31 39 99 4 11 22-15v21H479l-64-31v215l64-31h235l32 25 58-46-27-21V176l-53-27 21-15 9-17-22-1-47-58-22-25-11-11h111l52 53 64-53V2H314v20h206l-4 1-16 18-2 12m216 255H479V197h235v111m150 213-63-48-27-18 20-17 31-22 33-20 64-33-60-48-38 25-36 26-33 29-14 14v-17H452v7l-41-33-36-25-38-22-41-18-4 9 34 26 32 28 31 29 29 29 20 25-8-2-20 14-4 11-5 9-10 21-13 20-15 19-9 10-10 8 5 7 12-4 13-4 13-5 12-6 23-15 12-9 10-8 20-21 2-12 25 40 21 35 18 38 7 15H366v22h178l31 25 51-40-9 43 10 2 19-38 20-37 22-33 17-23 6 13 23 43 18 35 4 11 2 5 2 3v1l-3-2v220H630l-2-18-7-27-5-15 11-2 13-5 12-6 13-8 13-8 12-11 23-25 11-13 3-24-15-19-24-3-19 14-6 14-12 26-12 21-15 21-13 13-9-21-15-22-17-20-18-18-22-14-23-12-27-10-4 8 20 16 18 18 14 18 12 17 11 20 7 19 5 20 3 20 2 24-1 12H447V669l-63-31v273l63-31h310l31 25 58-47-27-21V669l-53-26 46-39 6-17-23 2-41-38-26-23-15-10 24-28 25-24 54 80 7 11 8 14h-1l6 7 46-43 6-17-24 3m-235 84-22-12-12-5-11-23-24-39-25-36-28-35-30-32-11-11h160l52 53 52-44-31 38-23 36-21 37-16 40-10 33M278 266v-13l-3-13-3-11-5-11-7-11-9-9-12-7-10-3-13-3-13-1v29l-40 14V26L110 0v695H58V206L0 178v567l58-28h52v173l53-10 13-11-13-9V717h58l29 26 55-48-27-17V266Z"/></symbol><symbol id="𭘽_S" viewBox="0 0 1000 1000" data-size="21"><path transform="matrix(1 0 0 -1 36 964)" d="m798 133-25 1-16 16-4 16-3 10h-1l-14-22-14-18-16-18-16-14V44l-63-32v117l-9-8-24 3-15 19-4 18-4 17-17-24-16-19-16-17-18-15V31L440 0v539l-21-14-13-4-5-11-29-56-18-32-4-10 33-29-27-19V168h-57v215h-59V28L188 2v381h-60V114L70 85v348l58-29h60v116l52-11 13-11-13-9v-85h59l29 26 12-10 2 7 4 36 4 32 2 15 3 26v5H69l1-14 1-24v-43l-2-20-3-17-3-15-6-14-6 3-6 4-5 4h-1l-3 2-15 11-7 4-1 1-6 4-2 2 4 4 6 8 5 12 4 15 6 17 5 21 9 49 4 28 3 32h10l5-52h179l1 11 2 22 9 60 3 19 2 19 3 19 3 29 3 15 59-24 13-13-20-7-26-67-17-38-22-45h97l32 26 53-44v68l-18-12-23-13-5 8 44 57 2 3v24l13-6 26 40 26 43 12 22 8 20 6 9 52-36 10-16-21-1-20-28-34-42-18-20-10-10 13-7h123v176H399v21h400l53 52 63-52v-21H689V648h120l31 27 14-12-22 31-13 16-29 32-34 32-19 17 5 8 46-21 22-10 38-27 18-13 16-15 29-31 14-18 3-23-14-20-24-3-2 1-17-13V84h-62v59l-11-10m-4-70 5 1 3 1 2 1h1l1 1 2 5 1 5v7h62V70l-3-12-4-13-7-13-7-10-11-8-13-6-13-5-12-2-14-1v31l-53 17v15h60m-554 81h42l5 1 4 1h3l1 1 2 4 1 4 1 6v7h57v-13l-2-12-3-12-5-11-8-11-9-8-12-7-10-4-13-3-12-1v29l-42 15v14m354 230-17 18-4 15-5 16-30-40-16-16-17-13-2 1V126l12 24 18 42 8 24 8 21-9 21-16 30-9 14 6 7 29-21 11-10 8 34 5 26 2 9 50-20v54l-9-8-23 1m179 0-16 18-4 15-5 15-14-21-14-17-16-17-15-13V129l17 42 16 44 6 18-9 21-16 29-10 14 7 7 28-21 11-10 4 13 6 26 5 26 2 9 53-22v58l-12-10-24 1m36-72-13-33-11-25-6-14 19-26 10-15 1-1v114m-183-8-10-25-11-25-5-12 10-16 11-18 5-10v106m0 334H503V370l21 48 8 21 14 38-1 2-25 38-10 10 5 8 14-8 15-7 13-8 11 49 6 28 2 9 50-21v51m63 0V378l24 60 13 39-9 14-18 26-10 10 5 8 14-8 15-7 13-8 12 49 6 28 2 9 53-22v52H689M5 429l52-35-21-14-23 5-13 20 5 24m804 124-25-63-8-15 22-29 10-15 1-2v124m-183-8-11-28-11-27-7-15 21-29 8-12v111m-501 66-3 35-1 15-3 30-2 14-3 27-4 11 8 5 8-11 10-9 8-13 8-13 20-45 6-17 11-37-6-23-21-13-23 6-13 21v17M42 761v21h141v147l62-11 16-10-16-10V782h25l52 52 63-52v-21H42Z"/></symbol><symbol id="𭘾_J" viewBox="0 0 1000 1000" data-size="21"><path transform="matrix(1 0 0 -1 50 950)" d="M250 750h474l50 67c28-24 52-48 71-71l-12-21H519V277h255l55 71c26-25 50-50 71-76l-12-20H519V0h-61v252H9l-9 25h458v448H239C188 618 125 529 50 458l-20 17c91 115 158 257 201 426 66-17 99-33 99-47 0-10-16-16-47-19-9-27-20-55-33-85m-98-362-9 25h157l50 60c23-22 44-43 62-65l-11-20H152m25 150-9 25h132l50 60c23-21 44-43 62-65l-11-20H177Z"/></symbol><symbol id="𭘿_G" viewBox="0 0 1000 1000" data-size="21"><path transform="matrix(1 0 0 -1 34 959)" d="M32 818h279l31 38 67-48c5-3 7-6 6-8-1-1-5-2-12-2H243V530h113l31 38 59-49c5-3 8-6 7-7s-5-2-13-2H243V138l2-94c1-23-17-38-54-44 3 25 6 79 7 161v349H77c-17 0-32-4-44-13L0 530h198v268h-89c-17 1-32-4-44-13l-33 33m570 100 81-33c8-3 10-7 5-11-10-3-19-9-26-18V686h117l31 38 67-48c5-3 8-6 7-8-1-1-6-2-13-2H662V434h166l31 38 67-48c5-3 7-6 6-8-1-1-5-2-12-2H467c-18 1-33-4-44-13l-34 33h230v232H499c-17 1-32-4-44-13l-33 33h197v180c1 11-7 24-24 41l7 11m101-666 9 13c65-45 109-83 134-112 24-27 40-53 48-76 6-20 7-37 3-52-5-14-14-19-27-16-11 5-19 17-23 36-3 15-9 32-17 50-127-14-224-25-291-34-33-5-58-9-73-12-14-5-29-15-46-31l-39 63c5 1 12 3 20 6 6 2 10 3 11 4 6 1 18 11 35 32 16 19 41 53 75 103 40 64 66 110 77 139-2 15-6 25-11 31l8 8 76-43c3-3 5-5 5-7 0-3-2-5-5-6-12 1-22-1-29-8-66-107-131-194-196-259l374 37v1c-8 23-47 67-118 133Z"/></symbol><symbol id="𭙀_K" viewBox="0 0 1000 1000" data-size="21"><path transform="matrix(1 0 0 -1 62 939)" d="m385 845 55-38c10-6 14-11 13-17s-7-9-17-9H271c12-5 17-10 14-14-2-5-12-9-29-12V526h121l40 49 63-48c5-4 7-8 6-11-2-5-7-8-17-8H256V63l1-20c1-8 0-15-2-20-3-4-11-9-24-15s-20-8-22-6c-3 2-4 10-2 23l2 36v447H83l-66-2-17 22 91-2h118v255h-96l-67-3-17 23 92-2h228l36 46m199 35 62-16c23-5 32-10 26-15-4-4-16-8-37-12V671h130l41 44 55-40c10-6 13-11 9-15-2-3-9-5-19-5H635V398h150l30 32 41-32c17-11 23-20 18-26-5-5-15-8-32-8V98c0-17 0-27-1-33-3-6-9-11-20-14-12-3-20-1-23 5-2 4-3 14-3 32l1 14H463V75c1-12 1-20-1-23-2-5-8-9-17-13-13-4-22-4-26 1-3 3-4 11-3 23l1 8v287l-6 71 52-31h126v440l-5 42M463 117h333v267H463V117Z"/></symbol><symbol id="𭙁_G" viewBox="0 0 1000 1000" data-size="21"><path transform="matrix(1 0 0 -1 24 969)" d="M952 79V61c-46 7-73-1-81-23-92 51-163 122-214 212C588 150 486 72 353 15l-6 10c132 78 228 168 287 269-51 107-83 254-98 442h-28c-14 0-27-4-39-13l-33 33h406l35 39 63-49c5-3 7-5 7-7s-4-3-13-3H802c-13-187-53-335-120-446 24-43 52-80 85-111 55-51 117-85 185-100M0 434h226v406H109c-15 0-28-4-39-12l-34 32h322l31 39 67-49c5-3 7-5 7-7 0-1 0-1 1-2s0-1-5-1H269V434h15l57 157c17 47 26 85 29 114v4c-1 2-2 5-4 8-1 4-4 11-9 21l7 6 78-36c7-3 11-7 11-10 0-1-7-5-20-12-11-5-18-8-21-10-22-57-58-137-107-242h100l31 39 67-49c4-3 6-5 6-7s-4-3-12-3H269l2-369c1-24-16-39-52-45 5 56 7 118 7 185v229H72c-15 0-28-4-39-12L0 434m563 302c19-170 51-303 95-399 51 99 84 232 98 399H563M63 722l8 8c35-38 56-68 65-89 22-47 32-86 31-115-2-26-11-40-26-41-13 1-20 11-19 32v11c1 53-19 118-59 194m489 202 6 14c95-39 142-81 142-127-1-20-9-31-25-32h-1c-12 1-19 9-21 26-1 35-35 74-101 119Z"/></symbol><symbol id="𭙂_G" viewBox="0 0 1000 1000" data-size="21"><path transform="matrix(1 0 0 -1 20 970)" d="M217 902c1-3 2-5 1-6s-3-2-6-2c-11 1-21-4-30-15-9-28-21-60-37-96h229l23 31 55-39c5-4 8-7 7-9s-6-3-13-3H290V570h62l23 31 55-39c5-4 7-7 6-9s-5-3-12-3H290V338h94l23 31 57-41c5-3 8-6 7-8-1-1-6-2-13-2H290V140l2-95c1-24-15-39-49-45 3 44 5 106 6 185v133H77c-17 1-32-4-44-13L0 338h99v206c-1 15-7 29-19 40l12 14 34-28h123v193H136l-10-21c-26-55-63-112-110-171l-8 10c58 95 100 190 127 284 8 28 11 44 9 49-1 4-5 11-12 21l11 5 74-38m32-352H140V338h109v212m609 110 66-55c5-3 7-6 7-9 0-2-2-4-7-5-22 5-52-6-89-33-8-6-14-11-19-14-19-13-43-28-73-46V157c0-33 3-55 9-65 6-11 19-17 40-18h6c13-1 23-2 30-2h9c42-3 64 6 67 26 3 9 6 22 7 37 1 14 2 50 3 107h13c1-26 3-56 5-90 1-9 1-15 1-18 1-19 10-32 27-39-13-31-31-49-54-54-22-7-61-8-116-4-35 2-58 10-70 25-13 13-19 39-18 76v696c-1 16-8 29-22 39l8 10 90-32c3-2 4-4 3-5 0-1-1-3-4-4-11-1-23-7-34-17V523c17 16 39 35 68 57 31 25 46 41 45 50s-3 17-8 22l10 8M545 860c11-3 14-7 9-12-10-3-19-8-28-16V537h62l25 32 60-41c5-3 8-6 7-8s-5-3-12-3H526V81c13 7 46 25 98 55 19 11 34 19 45 25l9-16c-17-11-39-26-66-45-7-5-13-8-16-11-6-4-14-10-24-18-21-15-35-25-40-30-14-11-24-23-31-36l-45 51c12 5 22 13 29 24v758c-1 15-8 29-23 42l6 11 77-31Z"/></symbol><symbol id="𭙃_G" viewBox="0 0 1000 1000" data-size="21"><path transform="matrix(1 0 0 -1 30 974)" d="m940 61-1-16c-25 1-42 0-51-1s-18-7-28-19c-105 77-181 168-228 273-17 38-34 90-50 156h-80V76c15 8 40 22 75 43s62 37 83 49l7-13-101-75c-41-28-64-45-69-50-9-8-16-18-22-30l-42 40c11 9 19 20 25 31v696c-2 15-8 29-19 43l10 8 37-31h286l30 39 49-47c4-4 5-7 4-10s-4-6-10-7l-17-9V530l4-73c4-26-12-40-47-43v40H601c19-57 36-100 52-131 1-1 2-4 4-8 11-25 21-44 30-56 13 9 30 21 51 35 19 13 41 31 67 53 27 23 40 37 39 44s-2 12-3 15l7 6 57-47c4-3 6-6 6-8-1-3-3-4-8-5-8 2-19 0-34-5-44-31-101-65-171-103 10-15 24-32 41-51 63-73 130-117 201-132M785 613H502V474h283v139m-283 18h283v136H502V631m43 305 4 12c50-13 88-34 113-65 28-41 28-66-1-75-11 1-18 9-21 24-4 17-13 35-28 53-12 17-34 34-67 51M26 820h275l31 38 67-48c5-3 7-6 6-8-1-1-5-2-12-2H235V532h105l31 38 59-49c5-3 8-6 7-7s-5-2-13-2H235V140l2-94c1-23-17-38-54-44 3 25 6 79 7 161v349H77c-17 0-32-4-44-13L0 532h190v268h-87c-17 1-32-4-44-13l-33 33Z"/></symbol><symbol id="𭙄_G" viewBox="0 0 1000 1000" data-size="21"><path transform="matrix(1 0 0 -1 24 976)" d="M223 914c1-3 2-5 1-6s-3-2-6-2c-11 1-21-4-30-15-9-28-21-60-37-96h211l23 31 55-39c5-4 8-7 7-9s-6-3-13-3H296V578h58l23 31 55-39c5-4 7-7 6-9s-5-3-12-3H296V339h93l23 31 57-41c5-3 8-6 7-8-1-1-6-2-13-2H296V140l2-95c1-24-15-39-49-45 3 44 5 106 6 185v134H77c-17 1-32-4-44-13L0 339h105v213c-1 15-7 29-19 40l12 14 34-28h123v197H142l-10-21c-26-55-63-112-110-171l-8 10c58 95 100 190 127 284 8 28 11 44 9 49-1 4-5 11-12 21l11 5 74-38m305-500 41-37h213l36 39 50-46c5-4 8-8 7-11s-6-6-13-7l-19-9V147l5-87c-1-12-5-20-13-23-7-4-19-8-35-12v65H578V45c0-13-4-23-12-30-5-4-17-8-34-12 1 0 0 0-3-1 2 24 4 70 6 139v223c-2 15-8 28-19 39l12 11m50-57V110h222v247H578M146 558V339h109v219H146m282-55h295l29 65c31 74 46 116 44 125s-6 19-11 29l8 7 72-31c12-8 15-13 8-15-19-1-33-10-43-26-27-57-55-109-85-154h104l31 38 67-48c5-3 6-6 5-8-1-1-4-2-11-2H506c-18 0-33-4-44-13l-34 33m46 267h337l31 39 68-49c5-3 6-6 5-8-1-1-4-2-11-2H551c-17 0-32-4-44-13l-33 33m46-54 10 11c31-31 53-58 67-79 13-22 22-42 27-61 4-17 3-32-2-44-6-11-14-16-23-14-11 2-16 12-16 31s-4 40-13 65c-9 24-25 54-50 91m49 217 7 13c35-15 65-31 90-48 18-14 31-28 38-41 7-15 8-28 5-41-5-14-12-20-23-19s-18 9-21 24c-4 19-12 36-23 49-13 17-38 38-73 63Z"/></symbol><symbol id="𭙅_G" viewBox="0 0 1000 1000" data-size="21"><path transform="matrix(1 0 0 -1 18 980)" d="m638 959 67-29c11-7 13-12 7-14-16 0-27-4-34-12-16-24-33-53-50-87h197l38 38 45-46c5-4 6-7 5-10s-4-6-11-7l-18-8V561l3-93c0-21-15-31-44-32v49H676l-17-32c-37-62-94-112-169-150l-4 12c59 43 105 94 138 151 1 1 2 3 3 5 3 6 5 11 6 14h-89v-25c2-23-14-38-48-43 3 25 6 73 7 145v240c1 11-5 23-19 36l12 16 37-37h73l17 43c12 37 18 59 17 66-1 5-3 12-7 23-1 2-1 3-2 4l7 6m-407-58c1-3 2-5 1-6s-3-2-6-2c-11 1-21-4-30-15-9-28-21-60-37-96h204l23 31 55-39c5-4 8-7 7-9s-6-3-13-3H304V569h40l23 31 55-39c5-4 7-7 6-9s-5-3-12-3H304V337h66l23 31 57-41c5-4 8-7 7-8s-5-2-13-2H304V145l2-95c1-24-15-39-49-45 3 44 5 106 6 185v127H77c-17 1-32-4-44-13L0 337h113v206c-1 15-7 29-19 40l12 14 34-28h123v193H150l-10-21c-26-55-63-112-110-171l-8 10c58 95 100 190 127 284 8 28 11 44 9 49-1 4-5 11-12 21l11 5 74-38m437-450 81-28c8-3 10-6 6-10-14-5-24-12-30-21V287h135l31 39 67-49c5-3 7-6 6-8-1-1-5-2-12-2H725V99l2-56c2-23-15-38-50-43 3 25 6 73 7 145v122H513c-17 1-32-4-44-13l-33 33h248v115c1 10-7 22-25 37l9 12m-405 98H154V337h109v212m452 92c-3-50-14-95-31-136h159v136H715m-171 16h131v140H544V657m172 0h127v140H716V657M544 505h98c17 39 28 85 32 136H544V505Z"/></symbol><symbol id="𭙆_G" viewBox="0 0 1000 1000" data-size="21"><path transform="matrix(1 0 0 -1 34 979)" d="m187 957 54-28c11-7 14-11 7-14-9 1-17-1-25-4-28-49-48-80-60-95h185l24 28 49-34c5-4 6-7 5-10s-4-5-11-6l-16-11V546l5-61c1-20-13-32-44-35v40H233c-6-22-14-40-23-55-32-54-81-96-146-127l-4 10c63 47 105 93 125 139 2 5 5 13 9 26 1 3 1 5 2 7h-92v-27c2-24-13-38-46-42 3 24 6 72 7 144v236c-2 15-8 27-17 37l14 11 31-33h48l16 35c21 48 32 74 31 77-1 5-4 12-9 22l8 7m271-667-33 32h91v229c-1 15-7 29-18 40l11 14 41-32h125v193H565c-2-5-5-12-9-21-2-4-4-7-5-10-29-59-67-112-113-159l-9 9c36 54 65 108 88 161s39 94 47 124c9 29 12 46 9 51-2 5-5 12-10 19l6 7 84-33c1-3 2-6 1-7s-3-2-6-2c-11-3-22-8-32-13-11-32-24-67-41-106h236l25 35 61-43c5-4 7-7 6-9s-5-3-12-3H716V573h81l29 33 59-41c5-4 8-7 7-9s-6-3-13-3H716V322h123l25 35 61-45c5-3 7-6 6-8-1-1-5-2-12-2H716V140l2-95c1-24-15-39-50-45 3 26 6 90 7 193v109H502c-16 1-31-3-44-12m99 263V322h118v231H557M224 432l73-23c9-3 11-7 6-11-14-5-24-12-30-20v-84h73l26 33 56-43c5-3 8-6 7-8-1-1-6-2-13-2H273V106l2-56c2-23-14-38-47-43 3 25 5 73 6 145v122H77c-17 1-32-4-44-13L0 294h234v93c1 11-5 23-19 34l9 11m29 212c-1-53-6-98-15-134h122v134H253m-39 152H104V660h110v136m39-136h107v136H253V660M104 510h97c8 36 12 81 13 134H104V510Z"/></symbol><symbol id="𭙇_S" viewBox="0 0 1000 1000" data-size="21"><path transform="matrix(1 0 0 -1 28 960)" d="m159 396-3-56-5-54-7-50-10-46-12-42-15-39-17-34-20-30-22-25L22 0l-6 7 15 25 15 29 13 29 10 34 10 36 7 40 6 44 3 47 2 51v54h62M0 396v22h97v246H23v22h202l19 67 30 94 19 60 4 13 57-29 10-17-19-3-58-109-26-44-22-32h47l53 52 62-52v-22H301V418h10l43 47 52-47v-22H301V34L238 3v393H0m476-36 62-31h225l31 26 58-47-27-21V42l-62-32v42H538V36L476 5v355m287-176H538V73h225v111m0 124H538V205h225v103m116 305-11-8V398l-63-31v42H496v-15l-63-32v259l-31-19-27-15-5 8 58 66 5 5v13l6-3 22 29 14 23 11 23 12 23 10 24 8 25h1l2 7 56-29 11-15-20-4-18-34-16-24-17-25-19-22-20-20 20-10h309l19 16-20 25-15 24-14 25-11 27-10 28-7 29-3 27H563v21h111l43 47 53-47v-21h-13l25-44 31-44 15-20 34-33 19-15 20-12 42-26-57-46-7 5m-641 51h-79V418h79v246m381-38H496V431h123v195m186 0H682V431h123v120l-20-2-41-53-22-24-12-12-11-14-8 5 7 16 22 61 5 14 15 49 4 10 54-35 7-10v70M545 489l-4 24-7 23-3 11-13 34-8 11 7 7 9-9 12-8 10-8 11-9 8-9 9-11 9-12 8-12 8-12 6-14-3-23-18-16-24 3-15 18-2 12M104 731l-6 35-4 15-5 17-6 15-7 16-16 30-9 15-13 15 7 7 32-21 15-12 13-13 13-15 12-17 10-16 9-19 8-19 7-20-4-23-19-14-25 5-12 19Z"/></symbol><symbol id="𭙈_K" viewBox="0 0 1000 1000" data-size="21"><path transform="matrix(1 0 0 -1 95 949)" d="m211 710 107 131 49 57 53-30c14-8 19-14 17-17-2-7-17-9-43-7-36-26-64-49-84-68-21-19-47-44-80-77l-19 11M101 344h589l41 38 51-38c12-12 17-20 16-26s-15-10-40-11c-1-38-6-89-14-153-10-49-24-85-43-108-16-20-41-35-76-46l-10 40c-4 3-14 9-28 16l-49 21-42 19 4 11c63-15 104-22 126-22 30-1 49 10 58 32 11 38 21 108 28 209H104l-88-4-14 28 99-6m134 315c-24 18-53 32-87 42-25 8-51 14-79 17l-4 12c57 6 105 4 145-4 52-10 85-32 100-65 9-17 12-31 7-43-5-10-15-8-31 4l-16 13c-9 6-15 11-19 16l-16 8m233-180c-119-12-207-20-264-27-49-4-98-8-146-12l-6-12c-6-16-11-24-15-24-7 0-15 12-22 36L0 485l105 3 116 2 154 145 137 133 52-37c23-13 32-22 28-27-4-3-22-4-55-2-56-33-108-69-156-106-48-38-93-73-136-105 72 5 145 10 219 15 70 4 144 9 221 13-23 19-46 37-71 54-30 20-63 38-98 55l5 10c77-20 140-44 189-71 64-33 97-68 100-104 2-22-3-36-13-43-12-10-26-3-43 19l-13 18c-8 10-15 18-19 24l-24 28c-42-7-92-14-148-21l-82-9Z"/></symbol><symbol id="𭙉_S" viewBox="0 0 1000 1000" data-size="21"><path transform="matrix(1 0 0 -1 48 952)" d="m820 17-40 35-31 50-24 64-20 79-14 94-9 108-6 124-1 141 3 143H0v22h678l31 26 58-48-27-15h-1l-2-129 1-138 6-122 10-105 14-89 17-72 21-56 23-37 16-15 27 117h11L872 64l24-12 7-24-11-21-24-7-48 17M49 157v-5 5m7-55v2-2m1-6-9 30-3 4 1 1-8 26 41 4 121 114 36 36-14 28-10 15-24 32-25 31-29 33-3 3-7-5-7 7 5 7-5 4 6 8 6-3 156 204 44 60 3 2 46-42 6-17-19 3-87-95-75-73-52-44-7-6 20-11 20-11 35-26 16-14 16-14 15-15 13-17 1-1 60 63 83 94 38 46 36 47 3 2 47-42 5-17-19 2-68-76-45-45-46-46-48-44-41-36-4-5-3-1-55-47-55-43-57-41 150 13 100 7 49 3h48l47 1h4l-29 48-60 92 7 7 23-17 22-17 20-20 38-42 19-22 34-48 31-53 1-23-14-19-25-1-18 15-24 53-16 30-104-20-336-52-9-19-12 15Z"/></symbol><symbol id="𭙊_K" viewBox="0 0 1000 1000" data-size="21"><path transform="matrix(1 0 0 -1 54 938)" d="m15 641 55-35c18-11 33-22 45-32l56 130 66 171 60-25c18-10 26-16 24-21-2-4-19-8-50-11l-70-131-68-124c20-17 36-34 49-50 11-15 18-31 22-46 2-27-3-44-14-52-12-8-25 1-38 26-11 26-27 53-48 81-26 38-58 74-96 110l7 9m393-32c17-10 23-17 19-21-5-5-21-7-49-8L270 409 169 254l-33-53 110 19 114 21c-11 18-22 35-33 49-14 20-28 38-45 56l6 9c50-33 89-65 115-95 27-29 40-52 38-70-4-26-12-40-22-43-12-2-22 8-29 31l-22 48-155-44-150-44-2-8c-4-19-8-29-12-29-5-2-14 8-26 30L0 179l112 18 50 89 67 126 124 226 55-29M655 76c0-22-9-39-26-52-17-11-42-19-76-24l-6 34c-2 5-14 12-37 20-20 8-48 17-84 27l5 11 55-7c21-3 36-5 45-6 17-2 31-3 43-4 13 0 21 1 25 2s5 4 5 9v634H454l-64-5-16 22 66-1h338l49 42 58-41c7-5 9-9 7-12-3-4-9-5-19-5H681c5-5 6-9 3-14-4-5-14-8-29-11V76Z"/></symbol><symbol id="𭙋_G" viewBox="0 0 1000 1000" data-size="21"><path transform="matrix(1 0 0 -1 48 967)" d="M868 689V444c2-132-5-227-22-285-18-52-41-89-68-111S714 10 667 0c-2 10-10 22-25 37-24 13-55 26-93 37l3 15c41-13 81-22 120-27 35-1 62 8 83 26 19 19 35 48 49 89 14 47 21 141 20 284v245H526c-11-25-21-43-30-56-35-61-72-110-111-146l-11 9c33 47 61 92 83 135 21 41 41 91 61 151 4 13 9 30 16 51 10 31 14 47 12 48-1 2-4 6-9 12-3 5-5 8-7 11l8 12 81-38c4-3 6-6 6-10-1-3-4-5-9-5-12 1-23-6-33-19-11-43-27-88-48-134h275l39 40 50-49c4-4 5-7 4-10s-4-6-10-7l-25-12M267 336l11 12c43-36 71-64 85-83 16-23 26-43 30-60 7-20 7-36-1-49-7-13-15-18-24-15-8 4-13 15-15 34v2c-1 8-2 17-4 26l-3 8-244-59c-22-7-37-19-45-36l-42 60c20 5 36 12 47 23 56 79 117 181 183 305L95 484c-28-7-47-19-56-36L0 505c16 7 29 13 39 19 58 83 119 198 182 345 5 15 3 29-5 43l7 8 77-50c3-2 5-4 5-5s-2-3-6-4c-13 1-26-3-38-11-77-145-144-258-201-337 18 1 60 4 127 7 30 2 53 3 70 4 3 5 7 14 13 25 22 42 38 74 48 97 8 15 7 31-3 48l8 7 71-51c3-2 5-4 4-6 0-2-2-3-5-4-13 2-24-1-34-8-89-162-181-310-276-444 55 6 140 20 257 42-1 3-2 6-2 9-9 21-33 53-71 97m217-137-46 57 329 124 6-16-131-65c-59-25-98-43-118-56-15-9-29-24-40-44m31 392 6 14c29-15 57-34 84-56 22-22 37-42 44-60 9-20 11-37 7-52-4-16-12-24-24-25-13-1-20 10-22 33-3 23-11 47-26 72-16 27-39 51-69 74Z"/></symbol><symbol id="𭙌_J" viewBox="0 0 1000 1000" data-size="21"><path transform="matrix(1 0 0 -1 53 946)" d="M586 535c65 69 122 146 170 232 49-23 73-42 73-56 0-8-8-12-24-12-7 0-13 0-18 1-37-48-91-102-163-162 62 4 116 10 164 16-9 19-24 38-43 57l13 16c69-35 104-74 104-116 0-24-11-35-32-35-13 0-22 10-27 31-3 12-5 21-7 26-72-18-154-33-245-45-5-22-11-33-17-33-10 0-22 25-35 76 39 1 68 2 87 4M105 373H10L0 398h431c-25 104-38 240-38 406v87c67-2 100-11 100-27 0-9-14-18-42-28v-34c0-168 12-302 35-401h294l49 58c19-15 41-36 65-64l-10-19H493c26-88 63-153 112-196 44-37 84-65 119-83 24-13 41-19 51-19 28 0 50 52 68 157l26-12c-10-60-15-101-15-123 0-34 12-52 37-55-7-29-26-44-58-44s-69 10-113 30c-54 26-109 65-163 117-26 24-50 59-73 104-19 38-35 78-47 121H166c-10-35-20-67-31-96h193l34 40c39-29 58-48 58-57 0-5-3-9-9-12l-24-14c-6-95-26-161-58-197-22-25-52-37-92-37-2 16-9 28-23 37-15 8-43 17-84 24v27c44-7 80-10 110-10 32 0 55 17 68 51 13 32 20 73 23 123H126c-13-31-26-61-39-88l-58 15c36 66 61 131 76 194m19 147c63 73 117 152 162 238 46-24 69-42 69-55 0-9-15-14-44-14-44-61-94-117-149-167 60 4 107 7 140 10-8 14-23 31-43 51l13 15c71-33 107-73 107-119 0-23-10-34-31-34-15 0-24 11-27 34-1 11-3 20-7 29-92-18-171-32-235-40-6-20-12-30-19-30-14 0-25 26-34 79 31 0 64 1 98 3m7 210c27 48 49 98 66 150 52-23 78-41 78-53 0-8-14-13-41-14-18-29-46-62-83-98 24-20 36-40 36-61 0-24-10-36-30-36-11 0-20 7-27 21-22 47-51 84-89 109l11 19c33-12 60-25 79-37m462 8c22 42 41 89 58 140 55-21 83-38 83-51 0-9-14-13-41-13-22-31-49-61-81-92 22-21 33-42 33-62 0-23-11-35-32-35-14 0-24 11-29 32-10 37-37 72-82 107l12 17c29-12 55-26 79-43Z"/></symbol><symbol id="𭙍_J" viewBox="0 0 1000 1000" data-size="21"><path transform="matrix(1 0 0 -1 52 948)" d="M168 727V530c0-245-49-421-147-529L0 16c71 113 106 284 106 513v259c22-10 46-22 72-36h249v144c68-1 102-9 102-23 0-8-15-18-44-29v-92h260l50 68c29-25 53-49 73-73l-13-20H168m228-137V482c0-127-20-227-60-300C296 106 234 46 151 0l-18 19c88 62 146 142 175 239 18 59 27 133 27 224v169c24-11 49-23 73-36h219l38 51c43-34 64-56 64-66 0-5-2-9-7-11l-26-17V111c0-14 4-23 11-27 9-4 23-6 44-6s37 5 47 16c15 17 26 85 31 204l27-9c1-97 3-155 7-172 3-17 14-26 32-27-3-32-18-51-45-58-25-5-56-8-95-8-53 0-87 7-102 21-11 11-16 31-16 62v483H396Z"/></symbol><symbol id="𭙍_K" viewBox="0 0 1000 1000" data-size="21"><path transform="matrix(1 0 0 -1 53 940)" d="m609 639 41-29c21-15 27-26 21-31-4-3-15-5-34-6l-2-1V95c0-7 2-12 8-15 6-4 42-6 108-8 23 2 39 13 49 33 7 17 19 65 36 143l11-1c-2-21-4-43-4-66V84c13-5 22-9 28-14 5-4 7-9 7-16 0-8-8-14-24-18-15-3-43-6-84-9-96 0-151 6-166 18-9 8-13 24-13 48v502H378l-1-179c-3-107-26-193-68-259-38-60-85-106-142-137l-6 10c55 41 95 90 121 148 28 58 44 137 49 237 2 36 2 71 1 106-1 36-3 78-7 128l60-36h196l28 26m285 127-8-12H92V596c0-143-6-257-19-343C61 167 39 83 8 0L0 5c22 79 37 167 44 264 3 48 4 141 4 279v125l-4 129 53-28h343v49l-2 58 45-9c18-3 27-7 27-13 0-7-9-15-27-23v-62h305l21 29c8 12 14 18 16 18 4 0 13-6 28-19l41-36Z"/></symbol><symbol id="𭙎_K" viewBox="0 0 1000 1000" data-size="21"><path transform="matrix(1 0 0 -1 53 940)" d="M213 580h458l34 41 59-45c12-11 17-19 13-23-3-6-18-10-44-13-27-63-57-120-89-171-34-53-71-98-111-136 44-42 94-75 150-99 61-28 132-44 211-51l-2-15c-22-2-40-9-54-19-12-7-22-16-29-28-73 31-132 60-177 87-51 30-94 63-128 98-48-44-107-83-178-115-59-28-131-53-215-75l-6 6c79 26 149 57 211 93 60 35 114 75 162 120-33 40-62 87-86 140-25 51-49 115-71 191H214l-1 14m125-15c22-63 45-117 68-162 29-54 62-101 100-141 34 36 66 81 98 134 33 56 60 112 81 169H338m556 201-8-12H92V596c0-143-6-257-19-343C61 167 39 83 8 0L0 5c22 79 37 167 44 264 3 48 4 141 4 279v125l-4 129 53-28h343v49l-2 58 45-9c18-3 27-7 27-13 0-7-9-15-27-23v-62h305l21 29c8 12 14 18 16 18 4 0 13-6 28-19l41-36Z"/></symbol><symbol id="𭙏_G" viewBox="0 0 1000 1000" data-size="21"><path transform="matrix(1 0 0 -1 27 977)" d="M848 613c1-3 1-6-1-7-1-1-4-1-9 0-17 2-39-5-64-22-5-4-10-7-13-9L605 474l13-6c6-3 10-5 11-7 1-3 0-5-4-6-12-3-22-9-30-16V87c-1-23-7-41-18-53-11-13-38-24-82-34-2 20-10 34-25 41s-43 17-85 29l3 15 41-9c85-23 126-8 121 45v329c-1 16-10 31-26 45l8 10 55-23 163 132H315c-12 1-24-3-37-13l-32 33h491l45 44 66-65M109 830l56-41h660l40 48 72-54c7-5 10-9 8-11-1-3-8-4-19-3H172V540c2-131-7-237-27-316C126 141 81 67 11 0L0 8c57 79 93 156 108 230 15 75 21 173 19 295v238c-4 16-13 33-27 50l9 9m311 110 8 13c73-27 115-55 126-82 17-35 13-57-12-64-11-1-20 8-25 26-5 21-15 38-28 51-14 16-37 35-69 56Z"/></symbol><symbol id="𭙏_U" viewBox="0 0 1000 1000" data-size="23"><path transform="matrix(1 0 0 -1 120 895)" d="M134 543c0-69-1-130-3-184-1-53-6-101-14-144-7-43-19-81-34-115C68 67 46 36 19 7c-5-3-8-5-10-5-3 0-5 1-7 4-1 3-2 5-2 8 0 2 2 6 6 12 4 7 8 14 13 21 5 8 10 16 15 23 5 8 9 14 11 19 33 66 49 205 49 417v145c0 11-2 22-5 33s-4 23-4 34c0 1 0 3 1 4s3 2 4 2c3 0 7-3 14-10 7-6 15-12 24-17h291c-9 24-18 44-27 59s-13 24-13 26c0 5 2 7 7 7 3 0 7-1 10-4 40-23 61-42 64-58-1-13-6-23-14-30h209c8 0 14 3 19 10l29 33c3 3 5 4 7 4s5-2 9-6 8-9 12-14c5-5 9-10 12-15 4-5 7-9 9-11 5-7 7-13 7-18s-5-8-14-8H134V543m459 33c3 0 6 1 9 4l24 22c3 1 5 2 6 2 5 0 26-18 61-54 3-3 4-5 4-8s-2-4-6-3c-3 1-12 0-27-3-14-3-35-11-64-24-28-13-67-35-116-66v-1c1 0 1 0 1-1s-1-2-4-4c-2-1-5-3-8-5s-5-4-8-6c-2-2-3-4-4-5-3-12-5-34-5-66V97c-1-14-4-27-10-39s-13-22-20-31c-7-8-15-15-22-20s-11-7-14-7c-2 0-4 5-7 16-3 9-6 16-9 21-2 5-5 9-9 12s-9 6-15 7-14 2-25 2c-8 1-12 4-12 11 0 9 4 13 11 13 10 0 19-1 27-2 9-1 16-2 23-2 15 0 25 2 31 5s10 11 11 22v253l-3 106c-1 1-1 3-1 6s1 4 4 4c9 0 19-2 29-7s17-8 22-10c23 15 44 31 63 46 19 16 38 32 55 47H302c-12-1-23-2-34-4-11-1-20-2-29-2-1 0-2 2-5 6-3 5-6 9-9 14s-5 10-8 13-4 4-4 3c0 3 2 4 5 4 2 0 4 0 5-1 11-3 22-5 33-6 12-1 24-1 37-1h300Z"/></symbol><symbol id="𭙐_S" viewBox="0 0 1000 1000" data-size="21"><path transform="matrix(1 0 0 -1 33 963)" d="M130 821V510l-3-67-6-65-7-61-9-57-11-53-13-50-15-46-16-42-20-37L8 0 0 5l12 36 11 39 10 41 10 45 8 49 6 52 5 55 3 60 1 63 1 67v361l63-31h326v84l63-11 15-10-15-9v-54h289l52 53 63-53v-21H130M545 13l-61 2-50 7-42 13-34 21-22 32-7 38 10 39 20 38 31 41 42 44 44-45-38-40-26-34-16-28-3-19 1-11 6-7 17-10 29-10 44-6 55-3h326l31 132h10L902 75l19-12 13-19-13-19-19-12H545M432 288l44-45 221 221 27 11 26 15-58 47-32-26H293v-21h344L432 288M332 813l58-27 11-15-18-4-28-70-15-34h399l53 53 62-53v-20H329l-40-70-25-37-29-36-29-34-33-33-34-30-7 7 52 72 45 76 22 39 19 39 17 40 16 42 14 43 12 43 3 9Z"/></symbol><symbol id="𭙑_S" viewBox="0 0 1000 1000" data-size="21"><path transform="matrix(1 0 0 -1 51 963)" d="m141 801 63-32h258v158l62-11 16-11-16-9V769h258l53 52 62-52v-21H204V459l-3-61-6-57-8-55-12-51-14-48-18-44-20-42-23-38-28-35L43 0l-7 6 21 34 18 37 17 38 13 41 13 43 9 46 8 49 5 53 2 54-1 58v342m315-488-10 22-12 22-16 23-18 20-19 22-48 42-57 42 4 8 35-12 34-15 29-16 28-19 26-19 23-22 21-22 18-24 16-26 13-27-1-24-17-17-25 1-16 18-8 23M6 375l51-37-22-12-23 5-12 22 6 22m63 243 10-33 8-33 5-31 2-30-1-28-2-27-5-27-8-25-10-24-11-22-2 1-26 18-3 3-20 15 11 15 10 16 9 19 7 20 6 23 5 25 3 28 2 29 1 32v34l9 2m566-169-11 23-13 22-14 22-18 21-19 22-48 41-57 42 3 8 36-11 32-15 31-17 28-18 25-20 23-21 21-23 19-24 15-25 13-28-1-23-16-17-25 1-16 18-8 22Z"/></symbol><symbol id="𭙒_J" viewBox="0 0 1000 1000" data-size="21"><path transform="matrix(1 0 0 -1 43 948)" d="M178 751h249v144c68-1 102-9 102-23 0-8-15-18-44-29v-92h260l50 68c29-25 53-49 73-73l-13-20H168V529c0-244-49-421-147-529L0 15c71 113 106 284 106 513v259c22-10 46-22 72-36m337-400H203l-12 25h321v143c26-5 44-9 51-11 33 26 62 54 87 85H271l-12 25h394l40 49c47-39 70-63 70-74 0-6-5-10-15-12l-31-7c-37-31-77-56-119-77 9-4 13-8 13-13 0-8-14-15-41-21v-87h229l50 67c26-25 48-49 65-72l-12-20H573V91c0-55-35-83-105-82-1 20-12 35-33 44-13 6-44 13-95 23v26c58-7 105-11 139-11 24 0 36 10 36 30v230Z"/></symbol><symbol id="𭙓_K" viewBox="0 0 1000 1000" data-size="21"><path transform="matrix(1 0 0 -1 51 940)" d="M747 337c-4-22-11-33-21-33s-19 9-27 28c-12 30-43 67-93 110l5 8c51-27 84-46 99-55 24-19 36-38 37-58M898 72c-5-19-51-29-135-29H588c-55 0-89 8-103 23-9 11-13 40-13 88v288l-6 45 43-9c23-5 34-10 34-16 0-5-9-11-27-18V135c0-24 4-39 13-45 13-8 40-12 80-12h148c24 0 40 4 48 12 6 6 13 23 19 49l25 94 12-4-8-96c0-18 7-31 22-39 16-8 23-15 23-22M432 528c-17-145-56-259-118-341C253 104 178 48 89 17l-5 10c80 36 147 94 202 177s89 191 104 324H143v21h249c5 38 7 96 7 173l37-9c21-5 32-12 32-19s-8-14-23-22c0-32-4-73-10-123h327l18 28c7 11 12 16 15 16s9-4 20-13l39-37-7-15H432m462 238-8-12H92V596c0-143-6-257-19-343C61 167 39 83 8 0L0 5c22 79 37 167 44 264 3 48 4 141 4 279v125l-4 129 53-28h343v49l-2 58 45-9c18-3 27-7 27-13 0-7-9-15-27-23v-62h305l21 29c8 12 14 18 16 18 4 0 13-6 28-19l41-36Z"/></symbol><symbol id="𭙔_J" viewBox="0 0 1000 1000" data-size="21"><path transform="matrix(1 0 0 -1 57 951)" d="M178 763h249v138c68-1 102-8 102-23 0-8-15-18-44-29v-86h260l50 68c29-25 53-49 73-73l-13-20H168V535c0-244-49-421-147-529L0 21c71 114 106 285 106 513v265c22-10 46-22 72-36m235-116v-29c0-54-14-98-42-134-27-33-69-60-125-82l-14 20c82 44 123 108 123 193v86c22-9 43-19 63-29h179l37 44c41-29 61-49 61-59 0-4-3-8-9-11l-25-18v-97c0-12 3-20 8-24 5-2 24-4 54-4 34 0 53 7 58 19 11 24 18 66 22 127l27-10c0-63 3-101 8-115 4-9 14-14 28-14 0-27-9-44-28-51-16-5-55-7-118-7-51 0-83 3-94 9-15 9-22 28-22 56v130H413m77-479c-35 26-66 55-92 85-23 27-47 60-72 99h-80l-11 25h433l35 43c44-36 66-59 66-68 0-4-4-8-11-12l-28-15c-47-60-97-112-152-155 79-39 181-70 308-95-20-15-37-36-49-62-136 43-237 85-303 125C445 79 328 33 182 0l-13 23c133 40 241 89 321 145m39 29c54 43 101 95 141 155H360c47-64 103-115 169-155Z"/></symbol><symbol id="𭙕_S" viewBox="0 0 1000 1000" data-size="21"><path transform="matrix(1 0 0 -1 41 964)" d="m114 802 64-32h277v158l64-11 15-11-15-9V770h283l52 52 64-52v-21H178V460l-4-61-6-57-9-55-13-52-14-47-19-45-21-41-26-39-27-34L7 0 0 7l23 35 20 36 18 38 15 41 13 44 10 45 8 50 4 52 3 54v400m394-517H194v21h314v149H238v21h270v134l-43-6-51-5-53-5-54-3-57-1v10l159 33 97 21 91 25 42 12 41 14 39 15 3-9 47-40 2-17-22 10-11-4-84-22-46-10-37-8V476h138l53 52 62-52v-21H571V306h182l53 52 62-52v-21H571V98l-1-14-2-13-5-13-5-11-9-11-11-9-12-6-12-4-14-3h-13v31L382 61v15h105l6 1h5l3 1 2 2 1 1h1l1 2 1 4 1 4v194Z"/></symbol><symbol id="𭙖_K" viewBox="0 0 1000 1000" data-size="21"><path transform="matrix(1 0 0 -1 53 941)" d="m894 767-8-12H92V597c0-143-6-257-19-343C61 168 39 84 8 1L0 6c22 79 37 167 44 264 3 48 4 141 4 279v125l-4 129 53-28h343v49l-2 58 45-9c18-3 27-7 27-13 0-7-9-15-27-23v-62h305l21 29c8 12 14 18 16 18 4 0 13-6 28-19l41-36M783 31l-6-7c-22 9-40 10-53 2-7-9-11-13-13-13-5 0-14 8-27 26-35 38-68 86-100 145-44 67-79 138-104 214C439 230 344 97 197 0l-5 10c125 107 207 242 247 405H191v20h252c8 65 9 120 5 165-47-6-115-10-206-10v12c180 15 325 44 437 87l34-22c12-8 18-16 18-22s-5-8-16-8c-7 0-15 1-25 4l-194-38c2-44-1-100-10-168h178l25 36c8 11 14 16 17 16s9-5 19-16l46-44-5-12H496c68-137 164-265 287-384Z"/></symbol><symbol id="𭙗_J" viewBox="0 0 1000 1000" data-size="21"><path transform="matrix(1 0 0 -1 51 950)" d="M698 491v136H232l-9 25h466l36 51c40-33 60-55 60-66 0-4-2-7-7-11l-27-19V409h-53v57H315c-8-45-18-91-29-137h441l37 46c39-34 58-56 58-65 0-5-3-9-9-13l-26-17c-9-81-18-148-29-199h27l48 63c24-22 46-45 65-67l-12-21H123l-10 25h588c11 50 22 125 34 223H279c-6-21-13-45-21-74l-55 17c24 72 47 166 69 279 6-4 26-15 59-35h367M175 762h274v138c65-1 98-9 98-25 0-7-14-16-41-26v-87h267l48 65c26-23 49-47 69-71l-12-19H164V533c0-237-47-414-141-533L0 15c69 121 104 294 104 518v258c26-9 50-19 71-29Z"/></symbol><symbol id="𭙘_S" viewBox="0 0 1000 1000" data-size="21"><path transform="matrix(1 0 0 -1 31 950)" d="m114 778 64-31h277v152l64-9 15-11-15-10V747h283l52 53 64-53v-20H178V446l-4-58-6-57-9-54-13-49-15-47-19-43-21-41-25-36-27-33L7 0 0 6l23 34 20 35 18 38 15 39 13 42 10 45 8 48 4 50 3 53v388m416-484 19-30 26-33 29-30 31-27 33-23 37-20 40-17 43-13 47-12 103-16-63-60-55 12-50 16-47 20-44 23-39 26-35 32-30 34-25 37-20 41-11 35-5-21-24-54-32-48-40-42-48-36-56-30-62-26-70-18-78-13-1 9 74 22 65 27 57 29 49 32 40 36 31 39 24 43 17 45 2 11H172v20h99v284l64-32h137v142l62-11 16-9-16-10V566h148l31 27 58-47-27-22V314h58l52 53 64-53v-20H530m-58 94v158H335V314h131l3 20 3 54m62 0-6-63-3-11h157v232H534V388Z"/></symbol><symbol id="𭙙_S" viewBox="0 0 1000 1000" data-size="21"><path transform="matrix(1 0 0 -1 49 966)" d="m87 843 63-31h294v121l64-11 15-11-15-9v-90h246l53 52 62-52v-21H150V423l-3-58-5-54-8-53-10-48-13-45-15-41-18-37-21-33-24-30L7 0 0 7l17 29 15 31 14 35 13 36 9 40 8 42 6 46 4 49 1 52v476M781 34l-76 29-67 43-27 26-26-13-65-26-67-25-68-20-71-17-73-12-74-9-2 9 142 40 67 22 65 25 64 28 60 29 12 7-42 63-37 83-21 76H234v21h235l-17 107-2 13H161v22h288l-6 84v26H234v21h209v85l1 12 63-14 15-11-15-9-1-63h206l31 26 59-47-27-21v-89h31l43 47 52-47v-22H775V381l-63-31v42H540l16-54 33-74 40-61 2-2 47 29 53 39 52 40 39-50 1-19-18 7-39-27-59-37-37-21 8-7 55-36 65-24 43-7 28 125h11L870 82h2l22-11 6-23-10-22-24-6-85 14m-69 499H514l16-108 4-12h178v120m0 132H506v-24l6-86h200v110Z"/></symbol><symbol id="𭙚_K" viewBox="0 0 1000 1000" data-size="21"><path transform="matrix(1 0 0 -1 50 941)" d="M249 535c9 0 19-1 30-1 7 0 19-1 34-1l38-1 147 1v82l-208-1c-17 0-31 0-42-1-8 0-17-1-26-3l-13 23c8-1 18-1 30-2s23-1 34-1h225l-1 88 41-8c22-5 34-9 34-13 2-4-8-10-29-17v-50h215l43 40 53-36c9-6 11-11 7-14-2-4-8-6-18-6l-300 1-1-83h207l31 27 39-29c16-9 22-16 18-20-3-4-14-7-34-8v-85l1-5c2-7 2-13 0-17-3-8-11-13-25-18-9-3-15-3-17-1s-3 7-3 17v12l-225 1c-3-23-6-37-9-44-3-19-7-35-11-49h295l34 30 41-30c12-10 18-16 16-21s-14-8-36-10c-11-32-26-60-43-86-18-28-40-44-65-50l-8 29c-6 4-18 10-35 18-21 9-45 17-71 26l2 10c37-11 66-17 87-19 22-1 39 1 50 8 9 10 16 21 21 32l17 48H517c35-70 88-129 158-178 59-42 126-68 200-78l3-11c-15 0-29-3-42-10-10-4-20-11-29-21-65 25-123 63-174 111-57 56-99 115-128 177-33-75-85-137-156-186C274 51 178 19 59 6l-2 11c111 20 197 51 257 94 68 47 118 109 151 187H272l-14-32-5-14c-2-8-4-12-7-14-4-2-13-4-24-6s-18 0-20 5c-1 3 2 10 7 21l6 13 63 185 35-33v-1l178 1 6 93H324c-26-1-47-2-61-4l-14 23m510-19H541c0-18-1-33-2-44-1-16-2-32-4-49l224-1v94M276 313h194c4 14 7 30 10 48 4 7 7 22 9 44H308l-32-92m618 455-8-12H92V598c0-143-6-257-19-343C61 169 39 85 8 2L0 7c22 79 37 167 44 264 3 48 4 141 4 279v125l-4 129 53-28h343v49l-2 58 45-9c18-3 27-7 27-13 0-7-9-15-27-23v-62h305l21 29c8 12 14 18 16 18 4 0 13-6 28-19l41-36Z"/></symbol><symbol id="𭙛_K" viewBox="0 0 1000 1000" data-size="21"><path transform="matrix(1 0 0 -1 53 940)" d="m806 409-8-17H575V116c0-17 4-26 12-29 3-1 15-2 37-2h135c15-1 26 2 34 9 5 5 11 16 18 33l30 119 12-4-14-118c-2-16 3-28 15-34s18-13 17-22c-1-11-10-18-25-20-10-2-34-3-72-3H602c-33 0-53 5-61 15-6 9-9 31-9 68v264h-97c-23-103-59-186-111-247C273 83 211 37 137 8l-6 10c64 30 119 77 163 141s76 141 95 233H193v21h264l-2 300 47-9c16-4 24-9 24-16s-8-14-25-20V413h47l101 219 36-22c16-8 24-15 24-21 0-7-12-13-36-20L565 413h143l24 35c11 15 17 22 18 22s9-7 23-21l33-40m-420 63c0-5 1-9 1-12 0-20-7-29-21-29-12 0-22 10-29 32-12 37-42 87-89 150l11 8 91-87c20-21 32-41 36-62m508 294-8-12H92V596c0-143-6-257-19-343C61 167 39 83 8 0L0 5c22 79 37 167 44 264 3 48 4 141 4 279v125l-4 129 53-28h343v49l-2 58 45-9c18-3 27-7 27-13 0-7-9-15-27-23v-62h305l21 29c8 12 14 18 16 18 4 0 13-6 28-19l41-36Z"/></symbol><symbol id="𭙜_K" viewBox="0 0 1000 1000" data-size="21"><path transform="matrix(1 0 0 -1 53 940)" d="M872 57c-24-2-40-10-48-24-4-12-11-17-20-17-8 0-31 2-68 7-140 22-246 59-318 113-38-33-78-59-119-75-41-18-96-34-165-49l-5 11c121 28 208 72 261 134-36 26-76 58-120 98l9 13c48-39 90-69 126-90 35 39 58 82 68 129H279c0-16 1-23 1-22-2-3-10-6-24-9-5-1-10-2-13-2-4 0-7 2-9 5-1 4-1 11-1 22 1 19 1 33 1 42v187l-4 43 51-22h200v87H174v20h583l22 29c9 11 16 17 19 17 2 0 9-6 22-19l34-33-6-14H525v-87h195l12 16c8 9 14 14 17 14 1 0 8-5 20-15l20-22c7-7 10-13 10-18 0-4-9-10-27-16V338c0-25 0-40-1-43-2-3-9-8-23-13-8-2-13-4-15-4s-4 3-4 7v22H517c-12-52-39-101-80-149 106-63 252-92 438-87l-3-14M729 328v91H525c0-27-2-58-6-91h210M481 439v91H277v-91h204m248 0v91H525v-91h204m-452-20v-91h199c3 25 5 55 5 91H277m617 347-8-12H92V596c0-143-6-257-19-343C61 167 39 83 8 0L0 5c22 79 37 167 44 264 3 48 4 141 4 279v125l-4 129 53-28h343v49l-2 58 45-9c18-3 27-7 27-13 0-7-9-15-27-23v-62h305l21 29c8 12 14 18 16 18 4 0 13-6 28-19l41-36Z"/></symbol><symbol id="𭙝_S" viewBox="0 0 1000 1000" data-size="21"><path transform="matrix(1 0 0 -1 36 964)" d="m663 88 38-50-21-14-22-10-12-4-10-3-12-3-13-2-11-1-12-1v31L482 48v15h106l16 1 16 3 8 2 7 3 14 7 14 9M88 840l62-32h311v121l62-11 16-10-16-10v-90h290l52 52 63-52v-21H150V488l-3-69-4-65-8-60-10-56-13-50-15-46-19-42-20-37-24-31L7 7l-7 7 18 30 14 32 14 37 13 40 9 45 9 49 6 54 3 57 2 63v419M701 38l-20 26-2 3-1 2-5 7h-1l-5 8-4 4 10 18 8 26 2 8H322l-11-68-68-20 50 287H170v20h126l40 233 49-36h345l32 26 57-48-26-15h-1l-4-61-7-77-2-22h34l53 53 63-53v-20H777l-3-26-6-61-8-54-7-38h33l53 53 62-53v-20H748l-7-26-10-30-12-25-18-21m13 301H356l-30-179h362l9 49 8 51 7 59 2 20M542 211l-5 11-7 10-8 10-8 11-11 11-12 10-29 21-18 8 3 9 20-4 18-4 19-4 17-7 16-7 15-10 14-9 13-11 12-13 11-14 2-24-15-18-25-2-18 15-4 11m187 323H391l-31-175h356l9 104 4 71M562 410l-3 10-5 9-6 9-7 10-9 10-22 20-14 9-15 8 2 9 18-5 18-3 15-5 16-6 14-6 14-8 13-9 12-11 9-11 10-13v-25l-17-16-23-1-18 16-2 9M345 786l56-28 12-16-20-3-7-16-17-33-15-25h448l43 48 52-48v-20H341l-12-18-22-29-25-29-27-25-27-25-31-23-33-20-6 7 50 56 43 56 20 29 33 60 14 31 13 32 14 39Z"/></symbol><symbol id="𭙞_S" viewBox="0 0 1000 1000" data-size="21"><path transform="matrix(1 0 0 -1 39 969)" d="m665 425 4 5h1l26 21 58-47-26-15-16-7-30-41-30-34-14-16-16-16-16-13-13-11h107l31 26 59-47-26-21V32L700 0v32H342L278 0v283l64-32h229l47 80 39 73H297v21h368M130 834V522l-3-66-6-65-7-61-9-58-11-52-13-50-15-46-16-42-20-37L8 13l-8 5 12 36 11 39 10 41 10 45 8 49 6 51 5 56 3 60 1 63 1 66v362l63-32h326v84l63-10 15-10-15-10v-54h289l52 53 63-53v-20H130m570-604H342V53h358v177m112 270-42 21-41 23-39 25-36 27-35 28-34 30-31 34-30 35-5 7-28-34-33-38-36-35-38-35-40-32-44-32-45-29-49-25-51-25-5 8 89 67 41 32 38 34 36 34 33 36 31 37 28 37 27 39 20 35 6 9 51-38 8-16h-20l-9-13 46-36 34-26 73-48 75-41 40-18 40-16 42-14 36-14-61-52-42 19m-197 92 64-53v-20H359v20h204l52 53Z"/></symbol><symbol id="𭙟_K" viewBox="0 0 1000 1000" data-size="21"><path transform="matrix(1 0 0 -1 68 933)" d="M775 421c2-8 2-15 2-21 0-17-4-26-13-26-8 0-17 7-26 21-28 43-63 76-103 100-47-75-97-131-149-167l-9 9c40 38 78 90 113 157 32 61 55 118 67 171l43-21c16-9 24-15 24-20 0-6-11-11-32-16-8-19-25-52-49-99 47-22 76-36 86-42 26-15 42-30 46-46m-392-9c4-29-1-44-15-44-8 0-15 8-23 25-6 12-17 27-32 44-19 19-36 34-53 43-33-65-68-115-104-148l-10 10c23 30 48 78 77 145 26 62 42 120 48 175l49-14c13-5 20-10 20-16 0-9-10-15-30-19-12-47-26-86-42-119 69-29 108-56 115-82m481 330-6-13H118V565c0-148-6-261-18-337C83 138 53 63 10 1L0 7c33 56 55 134 66 231 6 68 9 174 9 318v176l-3 47 51-30h310v72l-3 45 52-13c18-6 27-11 27-17 0-7-12-15-34-24v-63h267l31 38c8 10 14 15 17 15s9-5 18-14l56-46M700 304l20 32c8 10 13 16 15 16 3 0 9-4 19-12l58-43-6-13-324-1c33-51 83-100 150-146 71-49 147-74 225-75l-3-12c-31 0-51-7-59-21-3-12-7-18-12-18-4 0-21 6-51 19-126 56-216 140-269 253h-15c-17-66-53-123-106-172C288 63 202 26 82 0l-6 10c96 26 170 62 222 109 53 47 88 102 105 164H153v20h255c9 39 16 90 19 150 4 61 5 106 5 135-1 29-2 49-2 58l-4 57 56-14c19-5 28-11 28-18 0-9-11-16-32-24 0-20 0-45 1-76 0-30-1-70-4-119s-10-98-20-149l245 1Z"/></symbol><symbol id="𭙠_K" viewBox="0 0 1000 1000" data-size="21"><path transform="matrix(1 0 0 -1 53 940)" d="M380 681c17-12 24-21 21-27-3-4-13-7-29-7-25-37-56-71-92-102-31-26-66-51-104-73l-6 10c41 34 74 64 99 90 35 39 62 81 81 127l30-18M280 357c-13-21-30-43-51-66-13-16-33-38-60-64l-9 11c31 33 64 76 99 131 36 56 69 115 98 176l41-27c18-11 23-19 16-24-6-2-17-2-32 0l-18-24-23-36c-9-12-16-22-22-31 13-9 18-15 17-19-1-2-5-4-14-6l-6-3V53c0-17-1-27-3-31-1-4-8-8-18-11-9-2-13-2-15 0-1 1-1 7-1 17l1 22v307m82 6c48 40 80 83 96 128 14 41 20 104 18 190l39-29v-5h117l29 35 35-35c15-12 20-20 16-23-3-3-14-5-31-5V460c1-6 4-10 7-12 5-2 13-4 25-4 34 0 57 2 69 4 11 3 18 7 22 13 4 9 8 24 12 46 3 13 8 36 14 70l2 9h12l-9-136c19-11 29-20 28-26 0-6-10-11-28-15-14-2-36-3-66-4-17-1-40-2-70-2h-11c-20 0-33 5-39 13-5 7-7 22-7 44v172H515c2-65-8-119-30-163-24-46-64-85-118-115l-5 9m28-6c16 0 33-1 49-3 15-1 30-1 46-1h200l33 39 44-45c13-14 18-24 14-30-3-5-16-7-40-5-14-27-33-54-55-83-22-25-44-48-67-69 35-25 72-45 110-59 41-16 88-26 138-31V56c-17-2-32-7-45-16-12-7-20-17-24-29-45 17-82 36-111 56-32 20-62 45-90 75-33-30-71-56-115-78-42-20-90-38-143-53l-5 13c50 17 95 36 134 58 42 25 78 53 106 83-20 28-35 53-47 75-12 28-24 61-35 102h-8l-81-7-8 22m112-15c8-34 20-64 36-90 11-19 27-42 51-70 22 23 41 48 57 74 19 27 34 55 46 86H502m392 424-8-12H92V596c0-143-6-257-19-343C61 167 39 83 8 0L0 5c22 79 37 167 44 264 3 48 4 141 4 279v125l-4 129 53-28h343v49l-2 58 45-9c18-3 27-7 27-13 0-7-9-15-27-23v-62h305l21 29c8 12 14 18 16 18 4 0 13-6 28-19l41-36Z"/></symbol><symbol id="𭙡_J" viewBox="0 0 1000 1000" data-size="21"><path transform="matrix(1 0 0 -1 59 948)" d="M762 214H562V25h-56v189H323V0h-56v521c23-8 44-17 65-26h214c-3 2-7 5-12 11-28 29-76 56-144 81l11 19c62-11 109-24 141-39 48 25 87 50 117 74H267l-13 25h412l37 36c44-34 67-55 67-64 0-5-5-9-15-11l-31-6c-47-24-98-48-154-70 15-12 23-23 23-34 0-9-3-17-9-22h171l36 41c40-30 60-49 60-57 0-4-3-8-8-11l-25-16V91c0-53-30-79-90-78-1 20-12 34-31 41-15 5-39 11-75 17v26c42-5 79-7 110-7 20 0 30 9 30 28v96m0 25v106H562V239h200m0 131v100H562V370h200M506 239v106H323V239h183m0 131v100H323V370h183M178 760h264v137c68-1 102-9 102-23 0-9-15-18-44-29v-85h260l50 68c29-25 53-49 73-73l-13-20H168V531c0-245-49-421-147-529L0 17c71 113 106 284 106 513v266c22-10 46-22 72-36Z"/></symbol><symbol id="𭙡_S" viewBox="0 0 1000 1000" data-size="21"><path transform="matrix(1 0 0 -1 41 963)" d="m117 798 58-29h312v158l63-11 15-11-15-9V769h252l52 52 64-52v-21H175V459l-3-61-6-57-9-55-12-51-15-48-19-44-21-42-24-38-28-34L7 0 0 6l23 34 21 36 18 39 15 41 14 43 11 46 7 49 5 53 3 54v397M815 92l-1-14-1-13-4-12-7-12-9-11-11-9-11-6-13-4-13-3h-14v31l-94 16v15h94l7 1 5 1 3 1 1 1h1l2 3 1 4 1 5v6h63M520 541l-17 21-10 10-36 34-28 26-17 11 4 8 20-6 18-6 19-7 16-8 32-16 14-8 17-11 82 65 27 26H245v21h435l2 1 6 10 1-2 22 17 58-47-27-16-32-14-18-10-35-20-40-19-23-10-31-11 10-8 7-22-9-21h181l31 27 59-47-27-22V92h-63v137H556V67l-64-32v194H292V41l-58-28v546l58-30h235l-1 1-6 11m-28-171H292V249h200v121m260 0H556V249h196v121M492 509H292V392h200v117m260 0H556V392h196v117Z"/></symbol><symbol id="𭙢_K" viewBox="0 0 1000 1000" data-size="21"><path transform="matrix(1 0 0 -1 53 942)" d="M875 54c-5-15-28-22-71-22H626c-34 0-55 8-63 24-6 11-9 35-9 70v191H431c-7-82-37-149-89-202C290 63 211 25 104 0l-6 11c89 26 158 65 206 117 49 52 75 115 78 189H274v-24c-1-5-9-11-23-17-7-2-11-4-14-4-5 0-8 5-8 14 0 3 1 8 1 17 1 9 1 17 1 24v275l-2 45 45-23c58 9 108 33 153 71l23-25c12-12 18-20 18-25 0-4-4-6-13-6-5 0-12 0-21 2-58-19-111-31-160-37V488h126l21 26c7 8 12 12 14 12s8-4 16-12l32-31-6-15H274V338h445v130H549v20h170v132H530v20h176l20 21c7 8 13 12 15 12 5 0 13-6 23-19l21-25c7-8 10-14 10-18 0-5-11-11-33-17V336c0-7 0-14 2-22 1-7 2-12 2-14 0-7-9-14-25-20-5-2-9-4-12-4-6 0-10 4-10 12v29H598V116c0-19 1-32 5-38 5-10 17-15 36-15h128c17 0 29 4 36 11s13 22 17 45l23 104 13-3-12-106c-2-21 3-35 14-42 12-7 18-13 17-18m19 715-8-12H92V599c0-143-6-257-19-343C61 170 39 86 8 3L0 8c22 79 37 166 44 263 3 49 4 142 4 280v125l-4 129 53-28h343v49l-2 58 45-9c18-3 27-7 27-13 0-7-9-15-27-23v-62h305l21 29c8 12 14 18 16 18 4 0 13-6 28-19l41-36Z"/></symbol><symbol id="𭙣_J" viewBox="0 0 1000 1000" data-size="21"><path transform="matrix(1 0 0 -1 40 952)" d="M170 787h278v117c67-1 100-8 100-23 0-8-14-17-44-26v-68h283l50 64c27-25 49-48 66-70l-8-19H162V539c0-244-47-424-141-539L0 15c68 117 102 292 102 523v277c31-12 54-21 68-28M507 56v137H203l-11 25h136v147H182l-10 25h156v118H210l-8 25h305v101c-74-9-164-19-269-28l-9 24c195 23 368 59 518 109 45-28 67-48 67-60 0-6-6-9-18-9-6 0-18 2-35 5-57-11-124-22-199-33V533h211l46 64c25-26 45-49 61-71l-11-18H744V390h71l46 66c25-27 45-51 59-73l-11-18H744V218h32l47 69c26-28 47-54 62-76l-10-18H562V56h210l56 73c29-27 54-53 74-78l-10-20H177l-11 25h341m0 162v147H382V218h125m0 172v118H382V390h125m55 118V390h128v118H562m0-143V218h128v147H562Z"/></symbol><symbol id="𭙤_S" viewBox="0 0 1000 1000" data-size="21"><path transform="matrix(1 0 0 -1 41 964)" d="m178 460-4-61-6-57-9-55-13-52-14-47-19-45-21-41-26-39-27-34L7 0 0 7l23 35 20 36 18 38 15 41 13 44 10 45 8 50 4 52 3 54v58h64m477-265 48-42 7-17-22 2-35-33-66-54-22-16h216l53 53 62-53V14H83v21h464l60 85 39 59 4 8-1 1 6 7M343 68l-4 12-6 11-7 12-8 11-9 12-36 34-14 11 4 8 17-6 18-6 16-7 16-8 15-8 13-10 13-11 24-25 8-14 1-24-15-18-25-1-17 16-4 11M230 409l64-31h391l32 26 57-48-26-20V213l-63-32v32H294l-64-32v228m455-53H294V233h391v123M182 780l-5-320-63 1 6 373 63-32h272v126l64-11 15-11-15-9v-95h283l52 52 64-52v-22H182m56-307v20h220v130H201v21h257v104l63-11 16-10-16-9v-74h141l53 52 62-52v-21H521V493h104l52 53 63-53v-20H238Z"/></symbol><symbol id="𭙥_S" viewBox="0 0 1000 1000" data-size="21"><path transform="matrix(1 0 0 -1 39 965)" d="M625 245H145v21h480v81l63-10 16-11-16-10v-50h92l53 52 63-52v-21H688V70l-2-12-5-13-6-13-9-10-11-9-11-6-13-4-13-2-14-1v31L499 47v16h111l5 1 3 1h2l2 1v1l1 2 1 3 1 5v168M130 825V514l-3-67-6-65-7-61-9-57-11-53-13-50-15-46-16-42-20-37L8 4 0 9l12 36 11 39 10 41 10 45 8 49 6 52 5 55 3 60 1 63 1 67v361l63-31h326v84l63-11 15-10-15-10v-53h289l52 52 63-52v-21H130m285-722-11 20-16 21-21 22-12 12-27 23-16 11 4 9 18-7 19-6 17-7 32-14 29-17 24-20 11-9 6-25-13-20-23-5-21 12M308 368v-15l-63-32v310l63-32h176v66H149v21h335v118l64-11 15-10-15-10v-87h249l43 47 52-47v-21H548v-66h176l32 26 57-47-26-21V357l-63-31v42H308m176 105H308v-84h176v84m240 0H548v-84h176v84M484 578H308v-84h176v84m240 0H548v-84h176v84Z"/></symbol><symbol id="𭙦_S" viewBox="0 0 1000 1000" data-size="21"><path transform="matrix(1 0 0 -1 39 963)" d="M130 821V510l-3-67-6-65-7-61-9-57-11-53-13-50-15-46-16-42-20-37L8 0 0 5l12 36 11 39 10 41 10 45 8 49 6 52 5 55 3 60 1 63 1 67v361l63-31h326v84l63-11 15-10-15-9v-54h289l52 53 63-53v-21H130M781 23l-63 12-59 16-54 19-47 24-22 12-44-21-60-23-63-20-66-16-71-10-73-7-1 10 71 16 67 19 62 21 59 24 56 26 21 13-15 13-30 35-23 37-10 25-26-24-31-24-32-20-34-20-36-16-38-15-40-12-3 9 68 42 61 44 27 23 25 25 23 25 21 27 19 28 14 22h-60v-37l-62-31v325l-21-19-27-26-31-22-32-22-33-19-6 8 53 53 47 55 21 27 37 57 17 30 14 30 12 32 3 6 56-32 10-15-21-3-25-46-12-16h402l43 47 52-47v-21H359l-17-23-20-23 52-26h313l31 26 57-47-26-20V362l-62-32v32H455l36-26 8-18-20 1-10-14-12-14h225l8 10 3-2 22 18 57-47-26-16-22-10-28-27-46-38-48-35-16-9 38-15 51-14 54-10 61-7 123-8-62-66-70 8M664 270H438l-11-12 17-23 29-29 31-26 29-19 38 26 44 35 39 38 10 10m23 206H374v-93h313v93m0 107H374v-86h313v86Z"/></symbol><symbol id="𭙧_J" viewBox="0 0 1000 1000" data-size="21"><path transform="matrix(1 0 0 -1 47 953)" d="M304 317c-35-38-77-73-124-104l-16 18c90 76 151 163 184 260 55-8 83-19 83-33 0-9-14-16-41-21-9-17-17-32-25-44h356l34 46c40-32 60-53 60-63 0-4-3-8-10-12l-24-15c-2-78-7-140-15-186 48-6 90-11 124-14-21-19-36-38-43-56-28 5-58 11-92 18-5-18-11-33-18-47-19-36-52-54-98-54-1 19-12 32-32 40-14 6-37 11-70 17v27c45-7 81-11 110-11 23 0 40 13 51 40-64 17-113 31-147 43C492 99 411 44 309 0l-12 21c88 47 156 101 206 164-24 10-52 24-82 42-47-52-117-102-212-150l-13 21c76 46 137 98 183 156-26 19-51 40-75 63m17 18c26-22 52-40 77-55 17 26 34 55 50 88H347c-6-7-14-18-26-33m390-163c10 45 16 110 18 196h-71c-18-62-44-118-79-166 46-12 90-22 132-30m-183 46c28 42 50 92 67 150h-87c-23-47-44-85-65-113 26-13 55-25 85-37m-51 299v68H186l-11 25h302v63H254l-9 25h232v76c62-5 92-13 92-25 0-6-12-14-36-22v-29h169l35 41c39-26 58-45 58-54 0-4-3-8-9-12l-20-13v-50h46l36 57c23-23 41-44 56-64l-10-18H766V469h-55v23H248l-10 25h239m56 0h178v68H533v-68m0 93h178v63H533v-63M164 803h282v102c67-3 100-11 100-24 0-8-15-17-46-26v-52h288l52 66c26-24 48-48 66-72l-12-19H153V537c0-240-43-419-130-536L0 15c63 124 95 298 95 521v294c26-8 49-17 69-27Z"/></symbol><symbol id="𭙨_K" viewBox="0 0 1000 1000" data-size="21"><path transform="matrix(1 0 0 -1 51 940)" d="M620 443v-70h113v70H620m-1-310 1-14c0-6-1-11-2-13s-9-6-22-11c-12-4-19-5-20-4-2 1-2 7-2 16l2 25v224H469l-31-4-27 21h165v70H425l-30-5-27 22h208v70H472l-31-5-26 22h161v65H425l-30-6-27 23h208c0 31-1 61-4 92l78-30-30-22v-40h144l37 29 57-46H620v-65h110l28 24 50-35-31-16v-60h28l36 30 57-47H777c0-39 2-72 4-97l-48-17v27H620v-78h120l37 30 58-46H620l-1-129m1 397v-70h113v70H620M239 726c39-20 67-37 83-51 20-16 31-32 32-49 0-14-4-24-11-29-8-4-16 1-25 16-9 14-20 29-34 46-17 21-35 40-54 57l9 10m-30-143c36-16 62-31 80-43 20-16 32-31 34-47 2-15-1-26-10-31-10-5-18-1-25 14-6 11-17 25-31 41-17 20-36 40-58 58l10 8m50-198 29 25 39-29c16-11 24-19 24-24 0-6-13-9-38-9V144c7-19 24-36 50-52 29-17 64-30 105-38 30-5 78-5 145-2 74 3 139 10 195 20l4-13c-20-9-34-17-42-25-8-7-14-16-18-28-70 0-127 1-169 3-60 3-103 8-129 14-38 11-73 27-104 50-30 22-52 47-69 73L172 55c4-20 5-33 1-36-4-5-14 1-30 18l-28 25 154 99v207H145l-9 17h123m635 381-8-12H92V596c0-143-6-257-19-343C61 167 39 83 8 0L0 5c22 79 37 167 44 264 3 48 4 141 4 279v125l-4 129 53-28h343v49l-2 58 45-9c18-3 27-7 27-13 0-7-9-15-27-23v-62h305l21 29c8 12 14 18 16 18 4 0 13-6 28-19l41-36Z"/></symbol><symbol id="𭙩_S" viewBox="0 0 1000 1000" data-size="21"><path transform="matrix(1 0 0 -1 45 969)" d="m155 410-2 17v2l-1 1v2l41 3 23 2v302l63-31h13l3 6 4 14 5 13 12 39 3 13 2 13 4 18-1 1 2 8H129V522l-4-67-6-65-7-61-8-58-11-52-13-50-15-46-16-42-19-37L8 12l-8 5 12 36 10 39 10 41 9 45 8 49 7 51 5 56 2 60 2 63v428l64-31h319v84l64-11 15-10-15-10v-53h301l43 47 52-47v-21H340l46-22 11-16-22-5-20-28-8-12-9-12-11-10-10-11-10-9h104l29 26 55-47-25-19V458l30 2h22l20 33 11 22 9 21 6 23 4 22 3 23 1 22v24h63l-3-28-5-27-8-28-10-25-12-23-14-24-17-21-19-20-22-17-23-17-7 7 11 15-7-3-33-8V88h-59v328l-54-13-77-14h-2l-1-21-4-56-5-54-9-49-10-45-14-42-14-37-19-33-20-29-23-23-8 6 14 27 13 31 10 33 9 37 8 39 6 43 4 48 2 50 1 55v9l-36-6-10-18-12 15-1 4v2l-1 13v1l-1 1v6l-2 11v3M803 39l-42 22-37 27-34 32-2 2-31-30-42-31-45-26-49-19-50-13-3 9 46 22 43 26 38 29 35 32 31 36-23 38-20 44-15 48-11 52-5 50h-40v21h222l31 27 57-48-26-16-8-3-11-40-24-59-27-52-31-47-6-9 35-28 33-20 36-15 82-24-61-55-46 18M470 88l-1-13-2-12-3-11-6-12-7-10-10-9-10-6-12-4-12-3-12-1v29l-82 15v13h82l5 1h3l2 1 2 1v1l1 1 1 3 1 3 1 6v7h59M307 367l57-11 15-10-15-9V173l-57-28v222m458 22H598l15-45 19-47 20-42 23-37 14-19 26 45 21 50 18 54 11 41m-613 43 8-63-17 62 9 1m259 255H279V441l34 3 39 4 59 5v234m320 66h-92V650h-63v156l63-33h92l32 27 57-47-26-22V550l1-5v-4l1-4 2-2 2-1 3-2 6-2 6-1h32l24 90h11l-11-90 16-9 10-16-10-17-16-9h-68l-13 1-13 4-11 5-10 9-9 9-7 12-5 11-3 14-1 13v197M328 524l-1 17-2 16-2 16-4 15-3 14-9 26-6 13-9 11 7 7 25-17 11-11 12-14 9-13 9-16 8-17 7-18 7-19 4-20-7-24-21-11-22 6-13 21v18Z"/></symbol><symbol id="𭙪_S" viewBox="0 0 1000 1000" data-size="21"><path transform="matrix(1 0 0 -1 46 958)" d="m33 815 53-26h122v126l63-11 16-9-16-10v-96h71l53 53 62-53v-20H86V475l-2-68-3-63-5-59-6-55-7-49-7-45-10-41-11-36-14-32L7 0 0 4l6 28 7 32 5 37 5 40 4 45 3 48 2 54 1 58 1 62-1 67v340m759 42 63-10 16-11-16-9V652l-5-89-12-84-19-80-26-74-19-38 36-37 17-20 28-40 25-39 19-38 8-19-3-24-18-14-24 2-15 18-4 18-5 18-5 19-7 19-17 41-32 69-8 15-9-17-40-62-46-55-54-49-59-43-67-35-5 7 60 44 53 47 45 51 41 56 33 60 26 65 21 69 14 75 9 79 1 85v205M312 104l52-47V35H108v22h161l43 47M96 131l-9 20v1l-3 4 34 13 3 1v472l45-24 89 42 41 23 58 38 13-21 28-28v-19l-19 8-34-15-30-13 1-70 3-80 5-57h13l53 53 62-53v-21H324l8-58 13-58 15-50 19-42 21-34 11-13 23 101h10v-4l8 5 33-54-41 48-8-119 15-13 14-19-4-24-21-13-23 4-36 28-32 36-26 43-22 49-17 55-13 62-10 69v1h-88V191h1l109 52 6-8-38-35-37-31-36-26-48-32-4-22-16 11-2 4-3 4-1 4-6 14v1l-2 3v1m-12 25 25-55-34 51 9 4m390 62-22 34 43 23v540l63-10 15-11-15-9V313l105 66 26 15 6-7-40-46-42-40-43-38-63-50-4-2v-21l-18 8-1 2-1 1-5 10-4 7M249 613l-26-6-25-3-25-2V426h85l-4 53-5 83v51m433-17-4 18-5 19-7 19-8 20-18 38-23 41-13 20 6 7 38-32 18-17 16-18 13-19 13-18 12-21 10-20 8-21 8-21-4-24-19-13-24 4-14 19-3 19Z"/></symbol><symbol id="𭙫_K" viewBox="0 0 1000 1000" data-size="21"><path transform="matrix(1 0 0 -1 74 915)" d="m853 724-8-12H88V563c0-133-6-240-18-321C59 162 38 83 8 6l-8 4c21 74 35 156 42 247 3 45 4 133 4 262v117l-4 121 51-26h327v46l-3 54 44-8c17-3 25-7 25-11 0-8-8-15-25-23v-58h291l19 27c8 12 14 17 16 17 4 0 13-6 26-18l40-33m-124-80 31-27c11-10 16-16 13-20-2-4-11-6-25-6V364l2-8c1-6 1-10 0-11-1-4-6-8-13-11-9-4-16-5-19-4-2 1-3 6-1 14l1 10v5H609c6-22 12-43 20-63 7-20 16-39 26-57 19 11 41 25 69 42 29 19 54 36 76 50l21-20c13-13 18-20 15-23-5-3-15-1-30 6l-70-31c-32-15-57-25-77-33 23-39 51-74 83-105 33-29 69-53 109-71l-2-8c-15 1-26-1-35-4-6-2-13-7-20-14-23 17-45 36-65 57-19 20-37 42-52 66l-91-46-95-44-33-18c6-22 5-33-2-31-7 1-20 19-38 52l73 29 1 506-2 47 35-24-1-1h182l23 23m-11-35H524v-3 3-238h194v238m-46-449c-20 32-36 66-48 102-12 33-20 65-25 97h-75V105l148 55M250 545c3 13-4 28-19 46-15 20-37 39-66 57l-7-4c18-21 33-42 44-66 8-15 13-28 15-36 4-16 9-23 16-22 9 0 14 9 17 25m66-192h113c7 0 11 1 13 3 3 3 1 6-4 10l-42 31-16-33h-64v116c9 2 14 3 15 5 2 4-2 8-13 12h132c8 0 13 1 16 4 2 2-1 5-7 10l-41 31-33-33h-49l36 44 46 56c18-1 28-1 30 1 4 2-1 8-16 16l-38 20-4-4c-4-7-18-33-40-79-10-20-20-38-30-54H204c-8 0-17 0-25 1-9 0-16 1-21 1l8-16 19 2h95V364h-63c-11 0-19 1-25 1-9 0-17 1-22 1l9-15c11 1 17 2 19 2h82V23h-1c-1-9-1-15 1-18 3-5 9-5 19-1 9 3 14 7 16 11 1 3 1 7 1 13v325Z"/></symbol><symbol id="𭙬_S" viewBox="0 0 1000 1000" data-size="21"><path transform="matrix(1 0 0 -1 49 966)" d="m646 769-40-42-37-40-13-14-2-3h91l52 53 63-53v-21H508V534h95l52 52 63-52v-21H508V392h179l52 52 63-52v-21H587V172l19-61-19 39v-42h-63v263h-80l-11-52-16-48-18-46-22-43-24-39-29-37-32-32-34-29-37-24-41-21-5 8 33 28 31 30 29 32 24 33 22 36 20 37 17 41 13 42 10 46 7 38H178v21h267v121H267v21h178v115H204v21h178l-14 16-2 11-3 13-3 12-8 24-13 25-15 28-10 12 6 6 13-9 15-9 24-20 22-22 9-12 10-13 8-12 7-14-2-24-13-12h126l5 11 7 17 14 34 16 33 23 44 4 8 5 8-483 3V517l-3-67-6-65-7-61-9-57-11-53-13-50-15-46-16-42-20-37L8 7l-8 5 12 36 11 39 10 41 10 45 8 49 6 51 5 56 3 60 1 63 1 67v361l63-31 326-3v87l63-11 15-10-15-10v-56l257-2 52 52 64-52-1-21-278 1 48-41 7-17-22 3M608 24l-13 1-14 2-13 5-11 7-11 8-9 11-6 11-5 13-2 14v12h63v-5l1-5 2-5 2-2 5-2 5-1h238l30 131h11L871 88l19-13 12-19-12-19-20-13H608m-4 95-7 22v2l-1 2-1 4-3 7-1 5-1 3v2l-1 1v2l-1 3 16 3 10 2 9 30 7 21 18 62 16 56 4 11 57-28 11-15-19-3-16-33 3 4 27-17 13-11 13-13 12-12 10-16 10-17 9-16 8-19 7-18-4-25-19-14-24 4-14 19-6 34-4 17-1 5-26-17-63-33-14-7-11-4-6-21-15 10-2 7v1m95 154-35-60-19-30 60 10 31 5-3 10-18 42-7 14-9 9Z"/></symbol><symbol id="𭙭_S" viewBox="0 0 1000 1000" data-size="21"><path transform="matrix(1 0 0 -1 39 963)" d="M130 821V510l-3-67-6-65-7-61-9-57-11-53-13-50-15-46-16-42-20-37L8 0 0 5l12 36 11 39 10 41 10 45 8 49 6 52 5 55 3 60 1 63 1 67v361l63-31h362v84l64-11 15-10-15-9v-54h252l52 53 63-53v-21H130m292-472-25-50-24-44-14-22h338l53 52 63-52v-21H582V55h184l52 51 63-51V33H240v22h279v157H346l-28-39-29-36-30-33-32-31-34-27-35-24-36-18-5 8 29 27 56 59 27 32 25 34 24 37 24 38 21 42 21 44 10 24H146v20h341v106H262v20h225v106H172v20h416l87 146 16 30-1 1 6 9 50-38 9-18h-22l-42-48-31-33-33-31-22-18h124l52 53 63-53v-20H550V495h151l43 48 53-48v-20H550V369h221l52 53 63-53v-20H422m-63 316-1 12-2 11-3 13-5 12-7 14-8 13-20 30-14 12 6 8 34-20 15-10 14-12 13-12 11-13 9-14 9-15 7-15 5-17-7-22-20-13-24 7-12 20v11Z"/></symbol><symbol id="𭙮_S" viewBox="0 0 1000 1000" data-size="21"><path transform="matrix(1 0 0 -1 36 966)" d="m266 206 62-32h416l32 26 58-47-26-21V37L744 5v42H328V31L266 0v206M91 840l57-29h313v121l62-11 16-10-16-10v-90h309l43 47 53-47v-21H148V491l-2-69-5-65-8-59-11-56-12-51-15-46-18-41-20-38-24-31L7 11l-7 6 18 29 16 33 14 36 12 41 10 44 8 50 7 54 4 57 2 63v416m653-687H328V68h416v85m34 129 42-37v-20H253v20h493l32 37m0 72 42-37v-21H253v21h493l32 37m80 77 42-36v-22H173v22h652l33 36m-71 71 42-36v-22H244v22h511l32 36m-596 62-1 2 1-2m350 207 63-10 16-10-16-10v-54h160l43 46 52-46v-22H604v-92l1-2 3-3 3-2 6-2 8-1v-42h-24l-12 3-11 5-11 7-8 9-7 12-6 11-3 13-2 13v177m84-250h234l13 8 9 13-9 13-12 8 10 47h-11l-18-47H625v-42m-428-4v4-4m1-5-19 60 10 1h2v196l58-10 14-11-14-9v-52h134l52 51 63-51v-22H249v-86l29 3 31 3 127 11 32 1 34 1 1-10-31-11-64-18-60-16-128-27-9-19-13 15Z"/></symbol><symbol id="𭙯_J" viewBox="0 0 1000 1000" data-size="21"><path transform="matrix(1 0 0 -1 42 951)" d="M660 551h134l53 53c23-17 46-36 68-59l-11-19H151c0-118-8-215-25-290C106 142 71 64 22 0L0 14c62 121 93 294 93 518v290c21-7 45-17 71-31h284v111c66-2 99-10 99-24 0-8-14-17-43-27v-60h289l52 65c25-23 47-47 66-71l-11-19H151V551h223v82H202l-11 25h183v85c65-2 97-10 97-24 0-8-14-17-43-27v-34h178v85c65-2 97-10 97-24 0-8-14-17-43-27v-34h91l46 46c25-18 45-35 61-51l-11-20H660v-82m-54 0v82H428v-82h178m-276-90h378l35 41c38-27 57-44 57-53 0-4-3-8-8-12l-23-18V135h-56v32H316v-39h-57v367c34-15 58-26 71-34m-14-24v-63h397v63H316m0-245h397v67H316v-67m0 92h397v65H316v-65m266-175 11 22c98-9 176-24 233-46 38-15 57-32 57-52 0-19-10-29-30-29-6 0-17 4-30 11-70 42-150 74-241 94M128 0l-14 23c104 26 196 66 277 118 49-21 73-37 73-48 0-7-10-11-31-11-7 0-14 0-20 1-97-37-192-65-285-83Z"/></symbol><symbol id="𭙰_S" viewBox="0 0 1000 1000" data-size="21"><path transform="matrix(1 0 0 -1 41 964)" d="m178 460-4-61-6-57-9-55-13-52-14-47-19-45-21-41-26-39-27-34L7 0 0 7l23 35 20 36 18 38 15 41 13 44 10 45 8 50 4 52 3 54v58h64M67 29v22h284v182h-57l-64-31v229l64-33h391l32 27 57-47-26-22V233l-63-31v31h-67V51h163l53 53 62-53V29H67m489 204H413V51h143v182M275 84l-5 8-18 17-10 10-54 42-18 10 3 9 19-7 20-4 17-5 17-5 30-12 27-12 10-6 12-8 9-22-9-23-22-9-23 9-5 8m531 137 37-52 1-19-20 9-66-38-56-29-19-9-20-10-6 8 91 88 54 48h-1l5 4M685 378H294V255h57v1h62v-1h143v1h62v-1h67v123M182 796l-5-336-63 1 6 389 63-33h272v111l64-11 15-11-15-9v-80h283l52 53 64-53v-21H182m46-314v22h230v130H188v20h270v105l63-11 16-11-16-9v-74h154l53 53 62-53v-20H521V504h135l43 47 53-47v-22H228Z"/></symbol><symbol id="𭙱_J" viewBox="0 0 1000 1000" data-size="21"><path transform="matrix(1 0 0 -1 34 954)" d="M255 508h72v223c57-2 86-10 86-23 0-8-12-16-36-25V508h80l31 39c37-26 55-44 55-53 0-4-2-8-8-12l-18-11V81c0-44-28-65-83-64 0 13-8 24-23 33-15 10-35 16-59 19v26c33-4 61-6 84-6 19 0 29 10 29 31v102H242c-5-49-17-92-35-128-17-31-42-62-75-94l-19 16c31 43 53 89 64 137 9 38 14 85 14 140v241c17-5 39-14 64-26m210-152H245v-64c0-21 0-35-1-45h221v109m0 25v102H245V381h220m159 80c-20-47-47-93-81-138l-21 14c55 97 92 227 111 390 61-13 91-26 91-40 0-9-14-15-41-19-6-35-13-70-23-104h161l43 58c23-21 43-43 60-65l-11-18h-79c-10-117-36-221-78-311 44-61 103-111 175-150-17-12-33-30-46-54-63 44-115 95-156 155C683 105 619 47 537 6l-16 20c76 52 136 119 179 201-34 63-59 141-76 234m19 47c12-84 39-160 80-230 26 63 43 150 52 261H653l-10-31M153 787h296v120c65-1 97-9 97-24 0-8-14-17-42-27v-69h306l48 65c26-23 49-47 69-71l-11-19H144V542c0-248-41-428-123-539L0 17c57 118 86 293 86 524v270c30-9 52-17 67-24m96-245c-15 0-24 11-27 33-5 39-22 74-50 106l15 16c63-41 94-80 94-119 0-24-11-36-32-36m179-17-18 11c28 58 50 115 64 172 51-20 76-36 76-49 0-7-12-12-36-14-25-42-53-82-86-120Z"/></symbol><symbol id="𭙲_S" viewBox="0 0 1000 1000" data-size="21"><path transform="matrix(1 0 0 -1 39 963)" d="m249 267 64-32h454l32 27 57-47-26-22V36L767 5v42H313V31L249 0v267M130 821V510l-3-67-6-65-7-61-9-57-11-53-13-50-15-46-16-42-20-37L8 0 0 5l12 36 11 39 10 41 10 45 8 49 6 52 5 55 3 60 1 63 1 67v361l63-31h326v84l63-11 15-10-15-9v-54h289l52 53 63-53v-21H130m637-606H313V68h454v147M580 794l5 11 54-34 9-17-23-1-24-29-37-35-13-11-14-9h202l53 52 62-52v-22H571v-84h157l43 48 52-48v-20H571v-95h157l43 47 52-47v-21H571V327h209l43 48 53-48v-20H304l-64-32v301l-26-39-21-26-21-24-23-20-6 6 42 82 27 59 14 32 11 35 3 8v11l3-2 18 53 10 38 3 8 58-27 12-15-20-4-22-56-10-21 12-5h216l5 8 32 59 12 27 5 12 4 12 3 7h-1m-72-367H304V327h204v100m0 116H304v-95h204v95m0 104H304v-84h204v84Z"/></symbol><symbol id="𭙳_S" viewBox="0 0 1000 1000" data-size="21"><path transform="matrix(1 0 0 -1 36 963)" d="M313 270v-16l-62-31v388l-78-86-28-27-8 6 114 179v22l11-5 75 118 2 3H130V510l-3-67-6-65-7-61-9-57-11-53-13-50-15-46-16-42-20-37L8 0 0 5l12 36 11 39 10 41 10 45 8 49 6 52 5 55 3 60 1 63 1 67v361l63-31h326v84l63-11 15-10-15-9v-54h289l52 53 63-53v-21H610l46-39 7-17-22 2-31-29-45-37-36-26-1-1h201l52 53 63-53v-21H566V548h151l43 47 53-47v-21H566V427h151l43 48 53-48v-21H566V291h225l43 47 52-47v-21H313M98 6v21h384v119H160v21h322v98l63-11 16-11-16-9v-67h205l53 53 62-53v-21H545V27h268l52 53 64-53V6H98m405 400H313V291h190v115m0 121H313V427h190v100m0 126H313V548h190v105m103 168H342l48-38 6-17-19 1-70-89 6-4h197l9 12 56 83 17 27 11 19 3 6Z"/></symbol><symbol id="𭙴_S" viewBox="0 0 1000 1000" data-size="21"><path transform="matrix(1 0 0 -1 36 971)" d="m239 543 63-32h422l31 26 58-47-27-21V257l-62-31v42H545v-84h245l53 52 63-52v-22H545V31L481 0v162H120v22h361v84H302v-16l-63-32v323M91 850l57-30h313v121l62-10 16-10-16-10v-91h309l43 48 53-48v-20H148V501l-2-69-5-65-8-59-11-56-12-51-15-47-18-41-20-37-24-31L7 21l-7 5 18 30 16 33 14 36 12 41 10 44 8 50 7 53 4 58 2 63v416m390-471H302v-91h179v91m243 0H545v-91h179v91M481 490H302v-91h179v91m243 0H545v-91h179v91M559 771l62-31h149l32 27 57-48-26-21V581l-63-31v31H621l-62-31v221m-368-2 59-29h154l32 27 57-48-26-21V581l-63-31v31H250l-59-29v217m579-50H621V602h149v117m-366 0H250V602h154v117Z"/></symbol><symbol id="𭙵_S" viewBox="0 0 1000 1000" data-size="21"><path transform="matrix(1 0 0 -1 36 967)" d="m188 468 63-32h173l31 26 58-47-26-21V95h-63v84H251V31L188 0v468m529 35-2-20 12-57 14-62 17-56 19-53 22-47 24-43 27-39 29-34 39-38-57-42-33 38-29 41-27 45-22 50-19 53-15 57-12 60-3 22-16-78-18-59-21-53-24-48-28-43-31-38-36-32-38-25-6 8 31 32 27 35 24 38 22 42 17 47 17 51 13 56 10 60 6 66 5 69v14H519v21h136v241l63-11 15-9-15-10V541h63l52 53 63-53v-21H718v-16l-1-1M487 95l-2-13-2-14-4-12-6-12-9-11-10-9-13-6-12-4-13-2-14-1v31l-62 16v15h62l7 1 5 1 5 2 2 2 1 5 1 5 1 6h63M91 843l57-30h313v122l62-11 16-10-16-10v-91h309l43 48 53-48v-20H148V494l-2-69-5-65-8-59-11-56-12-51-15-47-18-41-20-37-24-31L7 14l-7 6 18 29 16 33 14 36 12 41 10 44 8 50 7 54 4 57 2 63v416m333-543H251V199h173v101m0 115H251v-95h173v95M185 770l58-30h192l31 27 57-47-26-22V525l-62-31v31H243v-15l-58-30v290m250-145H243v-79h192v79m368 15-2 11-3 12-5 13-11 24-15 26-10 12-12 11 6 8 15-9 15-7 14-10 14-9 11-11 11-12 10-12 10-14 7-15 7-15-4-24-19-15-24 4-14 20-1 12m-368 80H243v-74h192v74Z"/></symbol><symbol id="𭙶_J" viewBox="0 0 1000 1000" data-size="21"><path transform="matrix(1 0 0 -1 43 955)" d="M269 586c-22-25-49-50-80-76l-17 14c65 69 117 153 155 251 51-13 77-25 77-35 0-8-14-12-40-14-13-25-22-40-28-48h201c17 34 29 66 36 96 49-15 74-28 74-38 0-7-11-10-33-11-17-19-32-35-46-47h206l41 50c24-20 44-39 59-57l-9-17H581v-51h177l38 37c22-15 40-30 54-45l-10-16H581v-52h177l39 38c22-16 40-31 53-45l-10-17H581v-58h211l41 46c23-18 42-35 58-52l-11-18H321v-26h-52v191m52 67v-50h208v51H322l-1-1m0-208h208v58H321v-58m0 82h208v52H321v-52m0-165h419l33 37c39-29 58-47 58-55 0-5-2-8-7-11l-20-14V96c0-52-30-78-91-79 0 18-9 30-26 37-12 5-40 12-85 19v25c40-5 78-7 114-7 21 0 32 8 32 25v54H314V13h-56v370c25-7 46-14 63-21m-7-25v-54h434v54H314m434-142v63H314v-63h434M163 802h285v108c64 0 95-8 95-24 0-9-13-18-39-27v-57h294l51 65c26-24 47-48 65-71l-12-19H154V545c0-246-44-428-132-545L0 13c63 121 95 299 95 531v286c25-10 48-19 68-28Z"/></symbol><symbol id="𭙷_S" viewBox="0 0 1000 1000" data-size="21"><path transform="matrix(1 0 0 -1 34 966)" d="m357 668 53-35 10-17-21-1-33-52-49-67-22-25 25-5 16-11-16-9V31L257 0v428l-24-26-31-29-33-27-34-27-7 7 79 100 48 66 44 67 38 69 17 34 3 6m412-382 4 6h1l26 21 57-47-25-16-17-7-18-27-34-39-38-36-11-9 11-7 35-15 37-13 42-11 93-18-62-58-49 12-45 16-41 19-38 22-27 22-31-20-47-24-51-21-54-15-57-12-60-7-2 9 57 17 54 19 48 21 46 24 42 26 20 15-24 29-19 33-15 36-3 11-12-14-23-23-24-20-27-20-26-19-28-14-31-14-6 9 48 42 42 44 37 46 16 24 15 25 24 46 5 11 54-33 8-18-20-1-6-9-11-18h160M130 828V517l-3-67-6-65-7-61-9-57-11-53-13-50-15-46-16-42-20-37L8 7l-8 5 12 36 11 39 10 41 10 45 8 49 6 51 5 56 3 60 1 63 1 67v361l63-31h326v84l63-11 15-10-15-10v-53h289l52 52 63-52v-21H130m627-562H594l-7-9 10-16 21-28 23-26 25-23 3-3 19 19 33 34 27 37 9 15M537 817l59-25 11-16-19-4-19-43-10-20h262l43 48 53-48v-21H547l-11-17-18-27-9-11 44-22h220l32 26 57-47-26-21V357l-63-31v42H553v-15l-63-32v289l-14-16-24-23-25-20-28-19-5 7 55 76 31 53 14 26 12 29 12 28 8 28 9 31 2 7m236-335H553v-92h220v92m0 108H553v-87h220v87M344 819l47-42 5-17-20 2-23-25-41-40-71-56-25-19-28-18-28-16-6 8 104 114 36 43 32 42 15 21 3 3Z"/></symbol><symbol id="𭙸_J" viewBox="0 0 1000 1000" data-size="21"><path transform="matrix(1 0 0 -1 36 952)" d="M510 521c-92-49-198-90-319-123l-14 20c126 42 227 91 302 145H199l-10 25h321v154c60-2 90-9 90-22 0-8-12-18-36-30V588h223l52 43c26-20 44-36 55-48l-10-20H564v-19c100-12 175-27 224-46 39-16 59-32 59-49 0-18-9-28-28-28-7 0-21 7-42 19-50 33-121 59-213 77V390h-54v131M338 318c-11-19-25-38-41-57 65-15 97-37 97-66 0-9-3-17-10-23-5-6-12-9-19-9-11 0-21 8-29 25-9 20-27 39-54 56-31-34-68-64-111-93l-20 17c77 63 132 148 166 255 55-11 82-23 82-36 0-7-12-14-35-20l-12-24h114l34 33c35-29 52-47 52-54 0-6-9-13-27-22C466 161 351 62 181 2l-17 22c83 35 149 75 197 121 50 47 87 105 111 173H338M153 784h296v120c65-1 97-9 97-24 0-8-14-17-42-27v-69h306l48 65c26-23 49-47 69-71l-11-19H144V539c0-248-41-428-123-539L0 14c57 118 86 292 86 524v270c30-10 52-18 67-24m438-623h112v142H568l-8 25h143v89c58-1 87-9 87-22 0-8-11-17-32-27v-40h52l44 45c20-21 36-38 47-52l-10-18H758V161h59l48 51c17-17 34-35 49-56l-11-20H758V7h-55v129H585c-3-19-7-33-9-44l-54 8c15 57 25 115 32 173 52-7 79-17 79-30 0-8-11-16-32-23-3-22-7-42-10-59M276 708l14 15c50-14 85-28 104-40 18-13 28-29 28-47 0-23-12-34-34-34-14 0-26 9-36 27-17 31-42 57-76 79m395-111-21 11c31 33 60 73 85 121 53-20 80-35 80-47 0-9-12-15-37-15-27-23-62-46-107-70Z"/></symbol><symbol id="𭙹_K" viewBox="0 0 1000 1000" data-size="21"><path transform="matrix(1 0 0 -1 53 940)" d="M411 666c7-6 10-12 10-16 0-5-12-11-35-17L282 474c74-67 111-132 111-196 0-52-18-87-53-106l-23-11c-6-2-11-3-14-3-6 0-9 3-9 8v8c0 12-6 19-17 22l-45 9 2 10 55-4c29-3 50 15 63 56 1 8 2 17 2 25 0 57-26 110-76 159-9 13-14 20-14 23 0-2 3 7 8 26l73 162H230V24c-1-6-9-12-23-16-7-3-12-4-14-4-4 0-6 4-6 13v50l-5 640 50-25h108l14 17c7 7 11 10 11 10 2 0 7-4 15-12l31-31M892 35l-7-15H376v20h228v94H439v21h165v92H479c-32-53-72-99-119-136l-8 9c26 26 50 61 74 106 23 45 40 89 50 132l42-17c17-7 26-13 26-18 0-6-11-11-32-16-9-16-17-29-24-40h116v52l-4 36 39-7c20-6 30-11 30-16 0-3-7-10-22-20v-45h110l24 26c7 6 11 10 12 10 2 0 6-3 11-8l36-36-6-12H647v-92h89l19 25c9 10 14 15 16 15s8-5 18-14l33-30-8-17H647V40h149l25 29c7 7 11 11 12 11 2 0 7-3 16-9l43-36m-17 413c-21 0-35-4-42-13-6-9-11-13-16-13-7 0-22 2-45 8-59 19-109 42-149 68-60-47-133-83-219-109l-6 12c82 33 149 72 200 117-33 26-62 60-87 104-32-51-69-93-110-125l-8 8c54 55 95 134 123 237l41-13c19-6 28-12 28-16s-12-9-37-16c-8-15-14-27-19-35h169l12 17c6 8 11 12 14 12s7-3 13-9l23-24c6-6 10-11 10-15 0-8-11-11-33-10-22-43-52-82-91-115 64-35 141-54 232-59l-3-11M525 641c23-39 53-74 91-103 33 29 58 64 75 103H525m264-260-11-14H491v20h209l23 26c9 11 15 16 15 16 1 0 6-4 17-12l34-36m105 385-8-12H92V596c0-143-6-257-19-343C61 167 39 83 8 0L0 5c22 79 37 167 44 264 3 48 4 141 4 279v125l-4 129 53-28h343v49l-2 58 45-9c18-3 27-7 27-13 0-7-9-15-27-23v-62h305l21 29c8 12 14 18 16 18 4 0 13-6 28-19l41-36Z"/></symbol><symbol id="𭙺_J" viewBox="0 0 1000 1000" data-size="21"><path transform="matrix(1 0 0 -1 35 952)" d="M554 387v-89h165l36 43c35-27 53-44 53-54 0-6-2-10-7-14l-19-17v-91c0-56-30-84-89-83 0 20-8 34-25 41-13 7-40 13-80 19v27c39-5 74-8 104-8 24 0 36 10 36 29v83H554V7h-54v266H339V73h-53v257c29-13 52-23 68-32h146v89H252c1-33-5-65-18-96-11-26-26-39-45-39-10 0-18 4-26 12-6 8-10 16-10 25 0 10 7 22 21 35 17 15 29 32 35 50 8 19 12 44 14 76l24-4s1-6 2-18c1-6 1-12 1-16h578l35 50c45-42 67-68 67-80 0-5-3-8-9-10l-32-9c-21-21-44-41-69-59l-18 13c12 19 22 43 31 70H554M448 809v95c67-1 100-8 100-23 0-8-14-17-44-26v-46h283l50 64c27-25 49-48 66-70l-8-19H162V539c0-244-47-424-141-539L0 15c68 117 102 291 102 523v299c31-12 54-21 68-28h278m268-319h-92v-34h-52v157h-82V456h-52v34h-90v-34h-52v157H195l-9 25h110v102c58-2 87-9 87-22 0-8-12-17-35-26v-54h90v102c58-2 87-9 87-22 0-8-12-17-35-26v-54h82v102c58-2 87-9 87-22 0-8-12-17-35-26v-54h92v102c60-1 90-8 90-23 0-8-12-17-37-26v-53h47l41 64c20-20 40-43 59-69l-10-20H769V459h-53v31m0 25v98h-92v-98h92m-368 98v-98h90v98h-90Z"/></symbol><symbol id="𭙻_J" viewBox="0 0 1000 1000" data-size="21"><path transform="matrix(1 0 0 -1 32 959)" d="M484 298H183l-11 25h349v103c59-2 88-10 88-23 0-8-12-17-37-27v-53h248l44 43c25-18 46-35 61-50l-9-18H588c30-50 67-89 110-117 36 30 68 68 97 114 47-27 70-47 70-61 0-8-7-11-21-11-1 0-8 0-20 2-19-13-53-34-101-61 53-32 124-58 213-79-21-20-36-40-45-62-163 48-273 139-329 272-34-28-74-54-119-78V102c87 8 158 16 213 25l5-25c-94-25-215-47-361-66-5-24-11-36-19-36-13 0-26 29-38 88 49 2 98 5 148 9v96c-60-26-134-49-223-70l-9 25c140 39 248 89 325 150M382 611h125l35 31c35-29 53-46 53-52 0-4-3-8-10-11l-25-11c-36-58-89-108-158-151-63-39-132-66-207-81l-10 21c74 25 141 58 199 99-6 2-12 8-18 18-14 24-34 45-60 61-33-27-69-51-106-70l-13 20c79 49 138 114 179 193H219l-9 25h309l45 44c21-17 41-33 58-51l-11-18H425c-10-20-25-43-43-67m-22-25-35-35c60-17 91-39 93-68 37 32 66 66 89 103H360m100 211v121c65-1 97-9 97-24 0-8-14-16-41-25v-72h282l52 65c26-24 48-48 66-72l-12-18H153V550c0-237-43-415-131-537L0 26c63 125 95 299 95 522v280c21-8 44-18 69-31h296m312-447c1 14-6 25-22 33-14 8-38 14-71 18v26c35-3 67-4 97-4 18 0 27 9 27 29v288c58-1 87-10 87-25 0-8-11-17-34-26V422c0-48-28-72-84-72M642 462v262c56 0 84-8 84-23 0-9-11-17-34-25V462h-50Z"/></symbol><symbol id="𭙼_S" viewBox="0 0 1000 1000" data-size="21"><path transform="matrix(1 0 0 -1 37 960)" d="m92 826 53-26h315v121l62-11 16-10-16-9v-91h309l43 48 53-48v-21H145V480l-3-69-5-64-8-60-10-56-12-50-15-46-17-42-20-36-24-32L6 0 0 6l18 29 16 32 14 37 13 41 10 44 8 49 7 54 4 59 2 62v413m60-763 26-59h-25l-17 17v23l16 19m0-1 14-32 2-5 3-4v-2l2-3 1-2 3-8 1-2 16 12 15 12 14 15 9 16 9 17 6 18 4 19 1 20v21l-1 22h-10l-4-21-7-17-6-17-9-14-9-11-10-10-9-8-11-7-12-6-12-2v-1m669-20-4 13-5 11-7 14-9 14-25 29-30 32-18 16 6 8 21-12 21-10 20-11 34-24 15-13 13-13 11-14 11-15 8-15-2-24-18-16-24 2-16 17-2 11M602 56v8l-2 11-4 12-5 12-7 12-19 28-10 14-15 14 6 8 17-11 17-10 16-9 13-11 13-12 12-12 10-12 8-14 7-15 5-16-7-23-20-11-24 6-11 21v10m-211-3 62-7-13-21-22-6-21 11-6 23m5 28-5-28 62-7-1 16-4 15-5 15-5 13-8 13-9 13-11 11-12 11-13 9-13 12-7-7 11-13 12-27 4-13 3-11 1-11V81M229 224l-52-27v537l52-26h199l43 47 52-47v-21H381V564h64l29 27 55-47-26-19V358l-58-28v50h-64V244h38l53 53 63-53v-20H229m311 518 59-29h200l32 26 58-47-27-21V456l-63-31v62H599V283l1-5 2-4 1-1 1-1 1-1h2l3-1 5-1h236l30 131h11l-11-131 18-12 13-20-13-18-18-13H622l-14 1-12 3-13 4-12 7-10 8-8 10-6 13-4 12-2 13-1 13v452M317 380h-88V244h88v136m128 164H229V400h216v144m354 148H599V509h200v183m-482-5h-88V564h88v123Z"/></symbol></svg>