<svg xmlns="http://www.w3.org/2000/svg"><symbol id="𭪍_G" viewBox="0 0 1000 1000" data-size="21"><path transform="matrix(1 0 0 -1 20 976)" d="m335 367 7 10c85-59 129-116 134-171 3-27-4-42-19-47-15-6-24 4-27 29-3 23-10 48-22 76-13 25-37 60-73 103m-202 28 61-37c11-7 14-12 7-15-13-1-22-4-29-10-44-99-99-175-164-228l-8 7c49 66 84 121 104 164 24 53 35 81 32 85-3 8-6 17-10 27l7 7M58 862l2 9c75-15 148-38 220-71 2 2 5 5 9 10 11 13 20 22 26 29 33 41 50 63 51 68 1 6-2 14-9 23l9 8 67-49c5-3 7-6 6-9 0-2-3-3-8-4-13-1-25-5-36-12-17-20-43-47-78-82 61-32 103-61 125-86 22-27 28-47 17-62-11-16-25-12-42 11-17 22-41 44-70 67-9 8-24 19-47 34-6 4-11 7-14 9-75-65-159-118-252-159l-4 12c52 32 104 68 155 109 25 20 48 39 69 58l-12 6c-34 20-95 47-184 81m192-293c-1 17-10 31-25 44l8 11 84-37c12-5 14-9 7-14-12-2-22-7-31-15v-77h85l26 39 60-45c7-4 10-7 8-10-1-2-7-3-18-4H293V101c-1-25-6-43-16-54-9-13-35-23-78-32-3 19-11 32-22 39-7 4-26 11-57 22-4 1-7 2-10 3l4 16 40-8c64-20 96-4 96 47v327H114c-15 1-29-4-43-13l-32 33h211v88m428-159c60-16 111-39 154-69 39-29 63-56 73-83 8-26 5-43-10-52-13-7-26 3-38 30-9 26-29 52-59 79-25 23-65 48-120 73V87l2-42c0-13-5-23-14-31-9-5-21-10-38-14 3 25 5 70 7 133v337c1 9-8 23-26 41l8 11 81-34c9-4 11-7 6-10-11-4-20-10-26-18v-50m263 125H523c-17 0-32-4-45-13l-33 33h190v343c1 9-8 24-29 43l8 11 89-34c9-4 11-7 6-10-13-5-23-12-31-20V761h120l36 45 69-51c7-5 10-9 8-12-1-2-7-3-18-2H678V555h170l30 47 74-54c7-5 10-9 8-11s-8-3-19-2Z"/></symbol><symbol id="𭪎_G" viewBox="0 0 1000 1000" data-size="21"><path transform="matrix(1 0 0 -1 24 976)" d="m475 693-33 32h172c11 42 21 87 30 136 5 31 7 50 4 57-1 10-5 19-12 26l8 7 83-34c4-5 2-9-5-10-9-2-18-6-26-11-11-62-24-119-38-171h183l36 45 67-51c7-5 10-9 8-11-1-2-8-3-19-3H652c-23-79-53-150-90-214l23-25h226l35 38 49-46c5-4 6-7 5-10s-4-6-11-7l-17-9V148l4-63c5-26-11-40-48-43v71H591V49c1-24-16-39-51-45 3 26 6 71 7 134v303c0 3 0 8-1 15-1 2-1 4-1 5-33-54-75-108-125-161l-9 11c95 127 160 258 197 394h-90c-17 1-31-3-43-12m116-247V133h237v313H591m-362 80c-1 15-9 30-26 45l8 11 85-37c13-5 15-10 8-14-10-2-21-7-33-16v-76h76l32 39 69-50c5-3 8-6 7-7s-6-2-14-2H271c1-202 1-313 0-333-1-23-6-40-15-52-9-13-36-24-81-34-2 20-11 34-27 41-14 6-41 13-82 21l4 19 35-8c48-11 80-14 97-7 18 7 27 24 27 52v301H113c-18 0-33-4-46-13l-34 33h196v87m114 417 70-33c7-3 10-6 11-8s0-4-4-7c-13 1-25-4-36-16-17-29-46-67-85-115-3-3-5-6-6-7 9-9 22-21 40-38 28-25 45-43 50-52 18-22 29-44 33-65 3-20-2-32-16-35-8-2-18 9-30 32-3 5-5 8-6 11-13 26-45 65-96 116l-1 1c-70-77-148-139-235-184l-8 13c99 77 167 139 205 184 2 3 5 6 8 10 2 2 3 4 4 5-37 38-91 85-162 140l6 10c71-42 131-83 179-122 23 29 40 54 52 73 1 2 3 5 6 9 17 25 24 39 22 42-1 9-4 18-10 27l9 9M123 363l65-28c11-7 14-12 7-15-15 1-26-4-33-17C120 212 68 140 5 88L0 98c40 55 72 106 95 155 21 41 31 66 30 75-2 8-6 17-11 27l9 8m176-28 5 12c74-51 117-98 128-143 11-40 5-61-18-62-12 1-19 12-22 35s-12 47-27 72c-20 31-42 60-66 86Z"/></symbol><symbol id="𭪏_S" viewBox="0 0 1000 1000" data-size="21"><path transform="matrix(1 0 0 -1 29 959)" d="m279 429-6 12-7 13-17 24-31 34-7 6V31L148 0v483l-23-61-20-45-20-44-23-42-26-40-27-38-9 5 53 129 30 90 14 45 11 48 11 47 9 50 5 34H4v21h144v236l63-10 16-11-16-9V682h16l52 52 63-52v-21H211V536h1l17-6 16-7 16-6 14-10 28-21 12-10 12-13 12-14 3-23-14-20-23-4-20 15-6 12m335 139 64-9 15-11-15-10V436h136l53 52 63-52v-22H678V281h108l31 27 58-48-26-21V50l-63-31v52H505V34L442 3v310l63-32h109v133H361v22h253v132m172-308H505V92h281v168m25 322 41-49-20-14-11-6-10-6-12-4-12-4-12-3-11-2-13-2h-12v31l-42 16v16h42l8 1 16 2 14 4 7 2 7 4 7 4 7 4 6 6m41-49-19 23-1 1-1 2-2 2-2 1-5 6-7 8-1 1-1 2-2 3 5 6 6 8 6 10 6 13 5 16 4 18 4 21 2 23 3 26v17h-78l-3-21-69-19 31 158H627l-8-50-12-54-15-50-20-46-23-40-27-35-31-30-34-25-37-18-41-12-3 9 34 20 30 25 28 25 22 30 21 35 16 37 14 41 12 46 8 50 2 42H428v21h308l33 26 57-47-26-16-9-3-14-78h76l31 26 57-47-26-16h-1v-4l-2-29-3-26-5-23-5-24-6-20-7-19-10-17-11-15-13-14Z"/></symbol><symbol id="𭪐_K" viewBox="0 0 1000 1000" data-size="21"><path transform="matrix(1 0 0 -1 53 942)" d="M504 818h210l44 41 53-36c7-8 9-13 5-16-2-3-8-4-17-4H519l-61-1-17 20 63-4m-52-128h333l41 42 60-37c8-5 10-9 7-14-4-5-11-7-21-7H471l-71-5-9 22 61-1m41-133h231l41 41 56-36c7-5 9-10 6-15-3-4-9-6-18-6H509l-72-1-11 22 67-5m4-139h232l41 45 55-41c5-4 7-9 4-12-3-4-9-6-18-6H513l-74-1-12 19 70-4m-77-107 53-31h297l31 26 45-31c12-8 15-15 9-21-3-2-11-5-23-9l-1-1V61c0-16-1-26-3-29-2-6-10-11-22-17-12-2-19 0-22 5-1 3-1 11-1 23l1 17H472l-1-19c0-13-1-21-3-24-3-5-10-9-22-14-12-3-20-2-22 2-2 3-3 10-3 21l1 8v220l-2 57m52-235h311v184H472V76M200 885l65-17c19-4 25-10 16-16-5-3-14-8-27-13l-2-1V650h62l43 40 47-36c8-6 11-11 8-14-3-4-10-6-19-6H251v-97c35-20 65-42 90-63 28-27 42-50 43-68 0-19-5-30-16-34-11-3-20 4-26 22-8 18-18 37-31 57-17 26-37 48-60 66V53l1-16c1-9 1-16-1-19-3-5-11-10-24-14-11-2-17-1-20 1-2 2-3 7-2 17v454c-29-65-59-121-91-168-26-39-62-83-105-132l-9 9c39 51 74 108 105 173 38 75 71 163 101 264v12h-87l-63-4-12 23 60-3h102v187l-6 48Z"/></symbol><symbol id="𭪑_G" viewBox="0 0 1000 1000" data-size="21"><path transform="matrix(1 0 0 -1 21 976)" d="M19 805h789l32 40 63-47c7-5 9-8 8-11-2-2-8-3-19-2H243V605h485l33 42 66-47c7-5 11-9 11-12s-4-4-11-3H254l-38-38-47 43c18 14 28 26 29 35v160H96c-17 1-32-4-44-13l-33 33m350 135 4 12c95-21 146-53 152-97 2-21-5-33-21-36-15-3-24 4-27 20-3 17-12 34-28 51-17 18-43 35-80 50m95-538h185v88c0 13-9 29-26 48l5 8 89-36c4-1 7-2 8-3 1-2 1-4-2-6-13-5-23-12-29-21v-78h126l26 34 57-40c6-4 8-7 6-10-2-2-8-3-17-4H727c13-35 25-62 36-82 3-4 6-10 11-19 25-47 49-79 70-96 31-27 69-45 114-54v-13c-43 1-69-5-80-20-60 43-103 96-130 159-15 32-29 74-41 125h-13V99l3-56c0-21-18-35-55-43 3 25 6 62 7 112v270h-12c-13-51-33-96-59-135-27-39-54-71-83-96s-68-51-117-78l-9 14c59 44 99 79 121 105 22 25 44 58 67 99 19 33 31 64 34 91h-50c-17 1-31-3-44-12l-33 32m-433-1h215v78c1 13-9 29-28 48l6 8 89-36c5-1 7-2 8-4 1-1 1-3-2-5-14-5-24-12-29-21v-68h72l30 32 49-38c7-5 10-9 8-11-1-3-8-4-19-3H290v-63c26-10 50-21 71-33 30-15 50-34 60-59 9-30 2-47-19-51-11-1-19 8-23 25-3 19-13 36-30 52-13 14-33 29-59 45V100l3-56c1-21-18-35-55-44 5 39 7 76 8 112v269h-17c-18-64-36-113-55-148C131 154 77 94 11 53L0 65c67 59 119 130 155 213 16 39 27 73 32 103h-79c-16 1-31-3-44-12l-33 32Z"/></symbol><symbol id="𭪒_J" viewBox="0 0 1000 1000" data-size="21"><path transform="matrix(1 0 0 -1 36 948)" d="M646 621V394h116l48 63c24-23 44-46 61-67l-12-21H646V114c46-14 101-21 164-21 30 0 70 2 118 6-18-26-28-48-32-66h-85c-94 0-172 18-234 56-65 38-115 97-151 177C395 164 344 76 274 2l-21 17c84 114 134 268 149 462 63-15 95-30 95-43 0-7-13-13-39-20-5-35-11-72-20-110 32-77 82-133 149-169v482H361l-12 25h299c35 71 65 150 89 239 62-23 93-41 93-55 0-9-14-14-42-16-25-51-60-107-106-168h116l49 64c25-24 46-47 62-69l-11-20H646m-446-89c38-26 69-56 95-90 20-27 29-51 29-70 0-23-10-35-31-35-14 0-24 11-30 34-10 38-31 81-63 128V0h-56v472C112 371 71 281 21 200L0 216c61 116 108 262 141 436H15l-7 25h136v220c66-2 99-11 99-27 0-9-14-17-43-25V677h50l39 61c24-24 44-47 59-70l-9-16H200V532m325 139c-17 0-28 14-33 42-8 49-35 96-80 142l15 18c91-54 137-107 137-160 0-28-13-42-39-42Z"/></symbol><symbol id="𭪓_G" viewBox="0 0 1000 1000" data-size="21"><path transform="matrix(1 0 0 -1 31 976)" d="M909 795V135c1-41-3-70-10-88-9-17-31-30-67-38-2 22-13 36-33 43-11 4-34 11-69 20-7 2-13 4-17 5l2 15c70-14 113-21 129-20s24 18 23 50v687H672c-19 0-33-4-41-12l-33 32h254l30 39 46-41c6-4 9-8 9-11s-3-6-9-8l-19-13m-538-21 85-35c9-3 11-7 6-11-14-6-24-13-30-20V112l2-57c0-12-4-22-12-29-9-6-22-11-38-14 2 25 4 73 6 146v559c1 12-9 27-29 45l10 12m232-272V305c0-11 1-21 4-31 2-10 15-15 38-15 37 0 59 0 64 1 8 0 14 8 17 23 2 57 4 96 7 117h11l2-37c0-53 8-80 23-79-5-18-9-30-13-35-3-6-9-11-18-14-9-4-24-6-46-6-29-1-61 0-94 3-23 3-34 32-31 88v197c-1 13-9 26-24 38l10 10 85-38c4-4 4-7-1-9-10-2-21-7-34-16M399 924l4 12c40-16 68-30 83-41 20-15 36-32 48-52 12-19 17-36 14-51-4-15-12-23-25-23-12 0-20 11-25 33-4 19-13 40-27 63-17 20-41 40-72 59m327-392 8 9c18-14 37-31 57-51 21-23 35-44 42-64 8-22 10-40 5-53-5-17-12-25-22-24-9 1-15 13-17 37-3 29-9 53-18 71-17 29-35 54-55 75M575 726l10 10c34-17 59-35 76-53 15-18 26-36 32-54 6-17 6-32 1-43-6-10-12-15-19-15s-13 9-17 27c-3 17-10 37-21 60-7 18-27 41-62 68m-76-222h15c3-29 5-57 5-86 0-27-3-50-9-70-6-15-15-26-27-31-11-6-19-3-24 9-5 9-3 21 8 36 12 12 20 28 24 47 3 13 6 44 8 95M14 245 0 255c29 48 56 100 81 156 18 37 35 84 51 142 11 39 21 84 29 136H78c-17 0-32-4-44-13L1 709h175v186c0 15-9 31-26 49l6 7 89-35c8-3 10-7 5-11-13-5-23-12-29-20V709h40l28 38 57-45c7-5 10-9 9-11-2-2-9-3-20-2H221V578c20-7 42-17 65-30 22-13 38-28 47-44s12-31 8-45c-4-13-11-20-21-21-11 0-18 9-22 27s-12 35-24 51c-11 13-29 27-53 43V141l2-96c0-13-6-23-17-30-10-6-22-11-37-15 3 26 5 88 7 187v375c-11-39-20-67-28-86-26-65-46-107-60-126-19-31-44-66-74-105Z"/></symbol><symbol id="𭪔_K" viewBox="0 0 1000 1000" data-size="21"><path transform="matrix(1 0 0 -1 51 943)" d="m898 657-8-11h-72c-18-181-52-319-103-414 50-90 108-153 175-187l-6-12c-23 3-40 1-50-8s-15-13-15-13c-2 0-7 5-14 14-43 48-81 102-115 163C640 106 581 43 514 0l-9 9c79 64 136 140 170 228-34 85-58 198-71 339-14-31-34-63-60-97l-9 7c64 123 98 257 103 400l42-13c19-6 29-13 29-19 0-4-9-10-28-18-14-71-27-127-39-169h169l17 21c11 11 17 17 19 17 0 0 6-4 15-13l36-35m-577-7-8-15H179v-98c72-44 108-81 109-110 1-30-4-44-16-44-7 0-16 9-28 26-17 52-39 86-65 105V82c0-40 0-58 1-56-2-9-10-17-25-22-8-2-12-3-14-3-3 0-5 2-5 6-1 3-1 11-1 23 0 21 1 37 1 48v408C97 392 55 316 10 260l-10 7c52 86 97 208 136 368H8v20h128v166l-3 66 53-11c16-6 25-11 25-17 0-3-11-11-32-23V655h48l18 31c11 11 17 17 20 17s10-6 21-17l35-36m270 166c6-8 9-15 9-19 0-7-15-10-43-11L443 662c19-8 29-16 29-21 0-4-10-11-30-20V419l124 55 6-16-130-64V127c0-33-3-58-9-73-9-17-25-31-49-40L349 2c-12-1-19 3-20 12-2 13-6 21-13 23l-71 26 8 11 95-17c24 0 39 10 46 28 3 8 4 27 4 57v225l-76-38c2-25-1-38-9-38-5 0-13 5-23 15l-31 39 139 57v231l-4 44 30-9 86 139H278v21h227l19 19c10 9 16 14 19 14 2 0 7-3 15-9l33-36m43-170c-11-27-17-42-17-46 16-116 42-224 77-324 43 95 69 219 79 370H634Z"/></symbol><symbol id="𭪕_J" viewBox="0 0 1000 1000" data-size="21"><path transform="matrix(1 0 0 -1 44 951)" d="M211 740h144l37 40c39-32 59-52 59-60 0-4-3-7-8-10l-29-15c-33-76-85-143-154-200-62-51-135-93-219-124l-13 21c84 38 156 87 214 147-12 1-22 7-28 19-15 31-42 58-82 81-28-29-62-58-102-86l-16 18c84 72 143 156 178 252H24l-11 25h389l48 54c25-21 46-41 64-61l-12-18H254c-10-23-24-51-43-83m-17-25c-13-18-27-37-45-58 79-23 120-52 123-86 39 46 68 94 87 144H194m306-400c59-52 126-96 201-130 59-27 129-50 210-71-21-19-36-39-44-61-91 35-167 72-226 110-59 37-113 82-160 134V0h-58v267C325 168 187 92 11 37L0 60c167 61 296 146 387 255H35l-13 25h401v112c63-2 95-11 95-25 0-8-12-16-37-24v-63h298l54 66c26-24 49-48 68-71l-13-20H500m115 273v147H483l-12 25h144v136c63-1 94-9 94-24 0-9-13-18-38-27v-85h93l43 56c24-23 43-43 58-62l-11-19H671V588h125l45 59c23-21 43-43 61-66l-11-18H671V402h-56v161H433l-11 25h193Z"/></symbol><symbol id="𭪖_J" viewBox="0 0 1000 1000" data-size="21"><path transform="matrix(1 0 0 -1 44 950)" d="M500 315c59-52 126-96 201-130 59-27 129-50 210-71-21-19-36-39-44-61-91 35-167 72-226 110-59 37-113 82-160 134V0h-58v267C325 168 187 92 11 37L0 60c167 61 296 146 387 255H30l-13 25h406v112c63-2 95-11 95-25 0-8-12-16-37-24v-63h296l54 66c26-24 49-48 68-71l-13-20H500M241 796h130l35 44c40-33 61-54 61-64 0-3-3-7-8-10l-29-15C358 573 227 444 38 365l-13 21c90 50 163 106 220 170 54 61 97 132 130 215H227c-16-27-32-52-50-76 64-25 96-55 96-90 0-23-11-34-33-34-14 0-24 9-29 29-7 23-23 48-50 75-38-46-82-87-131-122l-16 18c92 83 161 193 206 329 58-9 86-20 86-33 0-8-14-15-42-22-5-11-12-28-23-49m367-156v108H483l-12 25h137v121c62-1 93-9 93-24 0-9-13-18-38-27v-70h101l43 56c25-22 44-43 58-62l-11-19H663V640h133l45 59c23-21 43-43 61-66l-11-18H663v-28c62-18 110-38 144-61 28-19 42-38 42-55 0-11-3-19-10-25-5-5-10-8-17-8-14 0-28 9-42 27-29 39-68 70-117 95V390h-55v225H433l-11 25h186Z"/></symbol><symbol id="𭪗_J" viewBox="0 0 1000 1000" data-size="21"><path transform="matrix(1 0 0 -1 40 955)" d="M427 233C318 141 180 73 14 28L0 50c173 60 305 136 396 229H28l-11 25h410v87c68-5 102-14 102-28 0-11-15-20-45-27v-32h293l51 56c32-23 56-43 73-62l-11-19H506c104-79 242-137 415-173-20-18-36-38-48-60-169 53-298 125-389 218V0h-57v233m321 454v78H45l-11 25h275c-6 4-12 12-17 24-11 25-33 48-66 70l13 19c83-26 125-55 125-87 0-12-3-20-10-26h153c24 35 44 74 62 119 38-14 63-25 75-32 9-6 13-12 13-18 0-8-15-13-46-14-18-18-40-36-66-55h193l37 43c40-29 60-49 60-60 0-3-2-6-6-9l-26-16V637h-55v25H152c-7-27-16-54-25-80h665l40 42c39-32 59-52 59-59 0-4-3-8-10-12l-23-13c-13-59-35-102-64-132-18-18-48-27-87-27-2 17-11 30-29 37-15 7-43 13-84 20v27c50-6 91-9 124-9 17 0 28 1 34 3 9 4 16 10 21 18 14 23 23 49 28 80H479V411h-57v108C312 454 176 404 16 369L4 392c157 44 282 99 375 165H118c-2-4-4-10-8-18-3-8-5-14-6-17l-55 15c23 56 42 118 57 185 11-5 32-17 63-35h579Z"/></symbol><symbol id="𭪘_S" viewBox="0 0 1000 1000" data-size="21"><path transform="matrix(1 0 0 -1 35 959)" d="m227 433-11 23-12 23-8 11-15 21V31L118 0v451l-25-73-38-86-22-40-24-39-9 4 42 129 23 90 11 45 10 47 9 48 7 50 3 35H5v21h113v236l63-10 16-11-16-9V682h28l33 37 42-37v-21H181V533l11-4 14-7 14-7 12-9 24-21 11-11 10-13 9-13 2-23-16-19-23-2-19 16-3 13M826 48l-41 32-36 36-34 41-34-38-46-40-49-34-53-26-55-18-4 9 49 27 47 32 42 36 40 41 36 46 1 5-29 56-22 55-18 58-14 64-8 63h-37v21h124v194H554v21h131v189l62-10 17-11-17-9V729h74l43 47 53-47v-21H747V514h66l32 26 58-47-26-15-8-3-15-56-28-73-30-66-35-60-12-18 9-12 32-33 34-29 37-24 70-35-60-48-45 27M506 433l-10 23-6 12-20 34-5 7V36L402 4v441l-22-66-18-43-18-42-22-40-23-38-8 4 39 127 23 89 9 45 18 94 7 49 3 35h-95v22h107v233l63-11 15-9-15-10V681h22l33 36 42-36v-22h-97V532l10-4 13-7 13-7 13-9 22-21 11-10 18-26 2-23-16-19-24-1-18 16-3 12m304 60H608l19-57 22-59 24-55 25-49 20-29 30 59 25 63 23 70 14 57Z"/></symbol><symbol id="𭪙_J" viewBox="0 0 1000 1000" data-size="21"><path transform="matrix(1 0 0 -1 49 952)" d="M371 265H17L6 290h407v91H131l-10 25h292v87H61l-11 25h269c-12 3-20 13-23 30-6 25-24 50-55 77l11 17c73-22 109-52 109-90 0-18-8-29-26-34h187c20 37 38 80 53 128 54-19 80-35 80-47 0-8-13-13-39-14-11-16-30-38-58-67h173l50 59c27-23 50-45 68-66l-12-18H472v-87h217l47 54c25-21 46-41 64-61l-12-18H472v-91h297l52 61c28-23 52-44 70-65l-12-21H489c60-42 128-75 204-100 57-20 126-37 209-52-18-16-34-37-47-62-87 23-161 50-221 82-58 30-112 68-162 115V0h-59v226C304 135 171 69 15 26L0 48c150 53 274 125 371 217m-76 407v110H82l-12 25h225v95c61-2 91-10 91-23 0-8-12-16-36-25v-47h172v97c62-3 93-11 93-25 0-8-12-17-38-26v-46h134l50 59c28-23 50-45 68-66l-12-18H577V672h193l48 64c27-24 50-47 68-69l-11-20H28l-11 25h278m55 110V672h172v110H350Z"/></symbol><symbol id="𭪚_J" viewBox="0 0 1000 1000" data-size="21"><path transform="matrix(1 0 0 -1 33 948)" d="M711 377c56-111 130-198 223-261-21-13-38-31-48-53-82 74-142 164-180 270V0h-58v377h-83V0h-57v286c-56-93-135-173-238-241l-16 20c102 80 184 184 244 312h-80v-65h-57v340c23-10 46-22 68-34h79v183H333l-11 25h472l52 64c28-25 51-48 69-70l-10-19H706V618h90l37 46c39-31 58-51 58-60 0-5-3-9-8-12l-22-15V323h-56v54h-94m-5 25h99v191h-99V402m-58 0v191h-83V402h83m-140 0v191h-90V402h90m57 216h83v183h-83V618M152 474c-33-96-76-188-131-275L0 213c71 132 122 278 151 438H16l-9 25h145v221c69-2 103-11 103-27 0-10-16-20-47-29V676h55l42 60c22-22 41-45 57-68l-10-17H208V541c49-36 82-69 101-101 13-23 19-44 19-65 0-24-11-36-32-36-13 0-23 13-29 39-9 41-28 84-59 127V0h-56v474Z"/></symbol><symbol id="𭪛_J" viewBox="0 0 1000 1000" data-size="21"><path transform="matrix(1 0 0 -1 43 944)" d="M671 423c-29 20-60 37-92 52l15 18c144-43 216-85 216-128 0-21-10-32-29-32-9 0-19 8-31 22-14 16-30 31-48 44-173-17-352-30-537-39-6-22-12-32-19-32s-14 6-18 19c-3 8-9 29-17 64h167c37 48 67 96 91 143 34-8 56-15 66-21 8-4 12-10 12-16 0-10-13-14-38-14-32-38-63-69-93-91 111 1 229 4 355 11M426 211C313 124 175 62 12 23L0 47c160 49 291 118 392 206H28l-11 25h409v90c63-7 94-17 94-30 0-8-12-15-37-23v-37h295l50 58c24-19 47-40 69-64l-11-19H501c109-74 247-125 412-154-21-17-37-37-48-60-149 41-276 105-382 193V0h-57v211m234 601v-14c0-81-18-151-55-209-28-46-74-86-139-119l-15 16c79 56 126 129 140 217 7 43 10 78 10 106v3H473l-14 25h328l39 37c38-26 57-42 57-48 0-3-2-6-7-9l-23-12c0-110-6-192-19-245-11-46-45-69-102-70 0 14-6 24-19 30-12 5-42 12-91 19v21c39-5 72-7 100-7 30 0 49 9 55 29 15 43 21 120 20 230H660M226 576v93H85l-12 25h153v73H58l-9 25h177v95c66 0 99-5 99-16 0-6-14-14-42-24v-55h85l44 48c19-14 40-32 62-56l-10-17H283v-73h66l43 43c15-11 35-29 58-52l-13-16H283v-86c84 12 145 22 182 30l5-23c-88-25-211-50-370-76-6-19-13-29-21-29-13 0-27 24-41 72 51 4 114 10 188 19Z"/></symbol><symbol id="𭪜_J" viewBox="0 0 1000 1000" data-size="21"><path transform="matrix(1 0 0 -1 40 948)" d="M142 458c-32-96-73-182-121-259L0 213c68 129 115 275 140 438H10l-8 25h140v221c69-3 103-13 103-28 0-10-16-19-47-28V676h35l42 61c24-24 44-45 58-65l-11-21H198V542c84-59 126-115 126-169 0-23-11-35-33-35-13 0-22 10-27 30-9 39-31 86-66 142V0h-56v458M409 92h396l48 55c16-12 39-31 68-59l-11-21H409V0h-58v852c28-12 52-23 71-33h364l49 65c25-22 47-45 67-69l-10-21H409V92m160 358v309c57-2 85-9 85-21 0-9-11-16-34-23V423c0-89-19-158-57-205-31-38-71-68-121-91l-15 20c40 24 73 55 97 93 29 46 44 106 45 178-27-28-58-55-93-83 0-18-4-27-11-27-11 0-25 19-40 59 45 20 93 47 144 83m166 79c33 42 60 82 81 121 41-26 62-44 62-51 0-6-7-8-21-8-7 0-13 0-17 1-29-32-64-65-105-97v-38c53-19 91-37 115-54 24-19 37-35 37-49 0-18-9-27-25-27-14 0-26 8-37 24-23 32-53 59-90 82V219c0-10 3-17 10-20 9-3 23-4 41-4 38 0 59 7 65 21 5 20 9 48 12 82l21-7c0-40 2-65 6-76 3-8 11-12 22-12 0-23-8-37-22-42-20-6-51-9-96-9-51 0-83 4-96 11-10 7-15 21-15 42v554c57-1 85-8 85-21 0-8-11-15-33-23V529m-217-53c-17 0-26 10-27 30-3 42-16 81-39 116l19 11c50-42 75-83 75-124 0-22-9-33-28-33Z"/></symbol><symbol id="𭪝_S" viewBox="0 0 1000 1000" data-size="21"><path transform="matrix(1 0 0 -1 32 966)" d="M753 601h1l-2-20 11-70 13-74 16-70 19-64 20-59 23-54 24-47 27-43 31-40-56-40-30 43-27 50-23 55-20 59-16 63-14 67-12 74-1 13-14-86-16-69-19-63-24-58-25-52-30-46-33-38-36-32-7 7 28 38 24 41 22 46 20 51 18 55 14 63 12 67 10 72 6 80 3 84v19H568v21h122v289l64-11 16-10-16-10V644h65l43 47 53-47v-21H754v-21l-1-1M541 218l-18 44-17 46-15 47-13 50-12 52-1 5V35L402 4v457l-29-83-21-51-23-49-24-45-28-42-28-38-8 5 38 87 36 96 16 52 16 54 13 57 14 59 12 63 8 50h-83v20h91v226l63-10 15-11-15-9V696h39l43 48 52-48v-20H465v-44l14-62 30-103 15-48 36-90 41-82 21-37-51-52-9 18-21 42M229 432l-17 35-18 33-7 13V35L124 4v404l-29-83-20-46-20-43-23-40-23-37-9 5 44 128 26 95 13 51 12 53 20 113 9 58v8H15v21h109v226l63-11 16-10-16-9V691h10l43 47 53-47v-21H187V551l6-4 15-12 15-13 14-14 13-15 26-34 25-39 1-24-16-18-24-1-18 16-15 39m599 333-2 15-3 16-9 31-11 29-7 15-9 15-10 13 7 7 29-20 13-13 13-13 21-30 10-16 8-17 8-18 6-19-5-24-20-12-24 5-14 19-1 17Z"/></symbol><symbol id="𭪞_G" viewBox="0 0 1000 1000" data-size="21"><path transform="matrix(1 0 0 -1 23 980)" d="M388 747h220v151c1 10-9 25-29 45l9 12 86-36c5-1 7-3 8-5 1-1 1-3-2-5-13-6-23-13-29-21V747h167l32 39 62-49c5-3 7-6 6-8-1-1-5-2-12-2H686c15-55 39-109 72-162 17-27 34-50 52-70 43-48 91-76 143-84l-1-14c-19 3-34 3-45 0s-24-10-37-20c-29 23-55 48-78 75-26 30-49 64-70 103-24 43-44 101-60 172h-11V400l2-57c0-13-5-23-14-29s-21-11-38-14c3 25 5 61 7 109v318h-7c-43-178-133-307-268-387l-7 11c115 95 191 221 229 376h-89c-18 0-33-4-44-12l-34 32m31-486h17c5-66 2-115-11-146-15-37-32-61-51-71-21-12-37-11-47 3s-5 28 15 41c19 12 36 30 51 53 13 20 22 60 26 120m393-8 7 10c34-25 62-54 84-86 21-29 31-56 32-81 0-26-7-42-22-47-14-3-22 6-24 27-1 20-7 46-17 77-11 31-31 65-60 100m-278-6 12 6c31-38 49-74 56-107 8-35 7-63-3-83-9-19-21-26-35-21-12 5-15 16-10 34 5 15 8 40 8 75 0 27-9 59-28 96m145-6 12 9c33-31 57-64 71-97 11-31 14-58 8-79-7-21-17-30-30-28-14 2-19 12-15 30 3 20 3 44-2 73-4 25-19 56-44 92M21 222 9 232c32 51 60 104 85 160 26 55 46 105 59 148 9 27 20 76 32 147H78c-18 0-33-4-44-13L0 707h190v195c1 11-8 27-27 48l6 9 87-35c9-3 11-7 6-11-13-6-23-13-29-21V707h39l27 39 59-45c7-5 10-9 8-12-1-2-7-3-18-2H233V582c22-8 43-18 62-30 23-16 40-35 53-57s16-40 9-54c-8-13-16-19-25-16-10 2-17 14-21 35s-12 40-25 59c-11 14-29 29-53 45V140l2-95c0-14-5-24-14-31-9-6-21-11-38-14 3 19 5 81 7 186v339c-9-24-16-45-23-63-29-64-52-109-69-134-16-27-42-62-77-106Z"/></symbol><symbol id="𭪟_K" viewBox="0 0 1000 1000" data-size="21"><path transform="matrix(1 0 0 -1 48 939)" d="M483 398c13-46 30-87 50-123 20-33 46-65 77-95 28 32 50 65 68 99 17 35 32 75 43 119H483m279 297H458V573h304v122m55 145c19-13 24-22 17-27-5-3-14-4-27-4V550c1-9 1-15-1-18-4-5-11-10-23-13-11-3-18-2-20 3-2 4-3 11-2 22l1 13H455v-21c1-10 0-16-2-19-2-6-7-10-15-14-14-4-23-3-28 3-2 3-2 11-2 23l1 8v283l-2 52 52-28h288l29 25 41-29m-55-13H458V710h304v117M417 398l-65-3-14 21 64-2h181v69l-7 44 61-16c24-6 31-12 21-19-6-3-16-6-31-10v-68h167l33 44 55-39c8-7 10-12 7-16-4-3-10-5-21-5h-86c12-7 17-12 17-14-1-4-12-7-32-9-16-46-34-86-55-122-20-35-45-67-73-98 28-21 62-37 101-51 43-14 97-26 162-35l1-8c-15-4-30-11-43-21-7-6-14-13-18-20-57 15-104 32-142 51-32 17-62 36-88 59-42-34-87-61-135-80-52-20-116-37-192-50l-4 11c59 13 115 32 165 55 54 26 101 56 141 90-29 31-52 64-69 99-20 38-35 81-45 129l-67-98v-6c2-13 2-20 0-21-3-2-11 4-23 18l-21 22c24 19 45 38 63 55l38 42 3 2h-49M89 650h71v184l-3 44 61-15c20-6 26-12 18-18-4-4-13-7-27-10V650h66l39 41 53-37c9-6 11-11 6-15-4-3-13-4-28-4H209V496c46-17 79-35 100-52 22-19 35-41 37-68 0-15-6-23-19-25-12-2-20 5-26 21-9 19-20 36-31 50-16 19-36 37-61 55V40c1-10 0-17-3-19-3-6-10-10-23-13s-20-2-23 1c-2 2-2 9-1 20l1 20v411c-18-42-41-86-68-131-29-49-57-88-84-117l-8 8c28 45 56 99 83 163 33 77 58 154 77 231v21H79l-58-2-5 20 73-3Z"/></symbol><symbol id="𭪠_S" viewBox="0 0 1000 1000" data-size="21"><path transform="matrix(1 0 0 -1 33 961)" d="m360 662 39-37 5-18-19 3-10-9-4-3h271l14 12 3-3 19 16 58-47-26-15-29-12-37-30-59-41-50-31 39-16 58-21 58-17 61-15 62-12 116-16-62-61h-2l28-23v-21H514l86-45 76-35 82-31 87-27 47-11 43-12-62-55-48 16-45 18-44 18-41 20-40 20-38 23-36 23-34 25-31 28-24 24V31L429 0v214l-11-10-35-26-38-26-41-23-44-22-46-19-49-18-52-15-53-13L2 31l-2 9 104 41 48 22 46 21 42 23 39 24 36 25 34 27 25 22H27v21h402v91l63-10 16-11-16-9v-61h285l34 34-75 18-62 19-61 23-57 26-57 28-12 7-29-16-67-30-72-26-74-23-76-19-80-15-82-10-2 10 80 20 77 22 73 24 71 28 66 30 64 32 2 3-43 29-49 40-32 30-23-18-32-20-32-20-36-17-37-17-38-15-40-12-4 8 102 65 60 45 52 45 24 23 38 45H1v21h188v185l64-11 16-9-16-10V683h179v240l62-10 16-11-16-9v-80h242l52 53 64-53v-20H494V683h335l43 47 53-47v-21H360m258-86H349l-23-18 85-51 53-28 13-5 19 11 57 38 53 42 12 11Z"/></symbol><symbol id="𭪡_G" viewBox="0 0 1000 1000" data-size="21"><path transform="matrix(1 0 0 -1 32 976)" d="M21 232 7 242c33 55 58 107 77 156 20 49 36 96 48 143 11 47 19 94 24 141H77c-17 0-32-4-44-13L0 702h173v193c0 13-9 29-26 48l6 8 86-35c9-4 11-7 6-10-13-6-23-13-29-21V702h52l28 37 62-43c7-5 9-9 7-12-2-2-8-3-18-2H216v-78c3-2 8-5 15-9 15-7 29-16 43-26 15-12 28-26 38-43 9-17 12-33 9-50-5-15-13-23-25-23-11 0-18 11-20 32s-10 41-23 59c-10 13-22 26-37 38V141l2-95c0-14-5-24-14-31-8-6-21-11-38-14 3 19 5 81 7 186v352c-7-27-14-51-21-72-25-63-45-106-58-130-19-31-43-66-73-105m452 366-1-2h339l34 38 55-47c8-8 6-14-5-18l-22-14V391c-2-132-9-219-21-262-12-44-31-74-56-90S736 10 689 0c-3 10-8 20-17 29-20 15-57 27-112 37v15c72-12 117-18 135-18 24 1 46 6 67 16 19 10 35 32 47 67 11 37 18 124 20 262v168H461c-11-22-24-44-37-65-29-46-64-86-104-121l-11 10c35 44 65 89 90 134 19 37 35 70 48 98 7 19 11 32 12 40 0 8-5 17-14 26l7 9 77-30c3-1 4-3 4-5 0-1-2-3-6-6-9-2-18-6-27-12-1-3-4-8-7-15-4-9-7-15-10-20l-10-21m16 351 83-31c9-3 11-7 6-10-14-6-24-13-30-21v-66h168v73c1 10-9 25-29 45l8 12 83-35c9-3 11-7 6-11-13-6-23-13-29-21v-63h91l26 40 59-46c5-4 7-7 5-10-2-2-7-3-16-4H755v-2l2-59c0-14-4-24-12-30-7-6-19-10-36-13 3 23 5 50 7 82v22H548l2-57c0-14-4-24-13-30s-21-10-35-13c3 23 5 52 7 85v15h-93c-17 0-32-4-44-13l-34 33h171v72c1 10-9 25-29 45l9 11m116-576 3 10c83-38 131-84 146-137 5-25 1-41-14-46-13-6-22 2-27 23-3 14-8 27-14 40l-179-24c-55-9-92-24-109-45l-41 51c23 5 40 15 51 30 51 72 92 141 123 208 0 12-4 24-13 35l7 7 81-38c3-3 5-5 5-7-1-2-3-4-7-5-10 3-21-1-32-10-32-55-80-126-143-213 13 1 54 6 123 14 55 7 97 12 125 15-18 31-46 62-85 92Z"/></symbol><symbol id="𭪢_S" viewBox="0 0 1000 1000" data-size="21"><path transform="matrix(1 0 0 -1 35 972)" d="m823 74-88 48-42 26-39 28-37 29-36 30-32 33-31 33-23 30V31L433 0v297l-45-47-38-34-42-32-44-32-47-27-49-25-52-24-55-20L4 39l-4 9 54 26 97 56 45 29 42 30 39 33 37 33 34 35 31 36 6 8H18v21h415v77l62-10 16-11-16-10v-46h300l52 53 63-53v-21H510l58-43 75-51 39-23 81-44 88-38 80-32-60-50-48 21m8 382-1-14-2-12-4-13-7-13-8-9-11-9-12-7-13-4-12-2-14-1v31l-73 16v16h73l7 1 5 1 4 1 3 1 1 5 1 5 1 7h62M680 616l-27 19-16 10-39 19-47 21-64 25-1-4-19-25-26-23-31-18-36-15-42-14-48-10-54-8-60-5v3-188l-64-31v441l64-32h599l31 27 57-48-26-21V456h-62v304H516l2-1-20-14-1-9-4-11h9l29-4 29-4 27-6 25-6 23-6 22-7 39-14 18-9 14-20-4-23-20-14-24 4m-14-154-46 27-37 19-109 50-16-13-31-20-35-17-38-16-40-13-43-12-46-9-49-7-2 9 47 17 81 33 37 18 32 19 28 19 27 21 21 20 20 23 14 23 3 3 50-39 7-17-20 1-9-10-25-24 10-2 27-2 26-4 24-5 24-5 42-12 38-13 17-6 16-19-2-24-20-15-23 2M438 760H170V598l57 14 50 16 44 17 37 16 31 18 22 17 16 18 8 16 3 16v14m341 184 63-52v-22H490v-84h-63v158l63-10 16-11-16-10v-21h237l52 52Z"/></symbol><symbol id="𭪣_S" viewBox="0 0 1000 1000" data-size="21"><path transform="matrix(1 0 0 -1 38 967)" d="m420 11-21 36-6-4v17l-4 6 4 2v371l62-10 16-10-16-10V271h75l43 46 53-46v-22H455V85l42 12 49 13 84 21 4-10-76-42-67-34-51-24-4-21-16 11m-96 410-14 25-8 12-21 24-23 24-26 21V37L170 6v503l-14-35-19-47-22-45-23-44-27-42-27-39-30-38-8 5 61 130 18 44 31 91 14 47 12 49 10 49 6 33H4v21h166v236l62-10 17-11-17-9V688h37l52 52 63-52v-21H232V544l23-7 18-7 17-8 32-18 15-10 14-12 25-26 5-23-13-20-23-5-21 13m325 18 64-10 16-10-16-10V259l86 57 58 41h1l3 4 12-19 29-29 1-19-19 8-43-20-63-24-45-16-20-6V90l1-5 1-5 2-1 1-1 1-1 3-1 5-1h135l31 131h10l-9-131 17-12 13-19-13-20-18-11H720l-13 2-13 5-11 6-11 8-9 11-7 12-4 12-2 14-1 14v342m232 87-1-12-2-13-4-13-7-12-9-10-10-10-12-6-13-4-12-3-14-1v33l-84 15v16h91l5 1 3 1 1 1 1 1 1 1 1 2v3l1 5 1 5h63M744 639l-9 11-9 12-22 21-13 10-27 21-16 11-3-13-17-31-21-27-24-24-26-21-32-16-34-12-30-7v-95l-63-31v425l63-31h145v92l64-11 16-10-16-10v-61h148l32 26 57-48-26-20V526h-63v294H669l-4-37-8-37-3-8 18-4 18-5 18-4 18-7 15-8 16-10 14-9 15-10 13-12 8-23-11-22-23-7-21 11-8 11M606 820H461V587l22 12 29 18 24 20 20 21 16 23 13 24 10 26 7 29 3 30 1 30M405 50l2-5-2 5Z"/></symbol><symbol id="𭪤_G" viewBox="0 0 1000 1000" data-size="21"><path transform="matrix(1 0 0 -1 28 981)" d="M12 226 0 236c33 52 61 105 85 160 26 55 46 105 59 148 11 31 21 78 31 141H79c-17 0-32-4-43-13L2 705h189v199c1 10-8 26-28 48l7 9 89-36c9-3 11-7 6-10-13-6-23-13-29-21V705h43l26 39 58-45c7-5 9-9 7-12-2-2-8-3-18-2H236V563c30-12 53-23 68-33 23-15 41-32 53-53 10-21 12-39 7-53s-14-20-26-19c-11 1-18 11-20 30-1 17-9 36-23 57-11 15-31 32-59 51V140l2-96c0-13-5-23-15-30-11-7-24-11-39-14 3 25 5 87 7 186v367c-10-33-20-62-31-88-26-57-49-101-70-133-15-25-41-60-78-106m392 436 47-40h398l27 31 59-39c5-4 8-7 7-9s-6-3-13-3H462V437c2-51 0-98-7-141h208v158h-95c-17 1-32-4-44-13l-33 33h299l32 38 66-49c5-3 8-5 7-7-1-1-6-2-13-2H704V296h134l31 39 67-49c5-3 8-6 7-8-1-1-6-2-13-2H704V106l2-56c2-23-15-38-50-43 3 25 6 73 7 145v124H532c-17 1-32-4-44-13l-33 32C439 180 385 83 293 5l-6 12c47 53 82 115 105 185 23 65 32 146 29 241v169c-3 14-11 27-26 40l9 10m221 299 78-33c8-3 10-7 6-10-11-3-20-9-27-18V751h163v105c1 9-8 24-29 45l9 12 85-35c9-3 11-6 6-11-14-5-24-12-30-21v-94l4-35c0-19-15-32-45-41v55H494l-34-41-49 39c17 16 26 30 29 43v99c2 14-5 28-20 42l9 8 77-37c10-3 12-6 7-11-13-3-24-9-32-18V751h160v159c1 10-7 24-24 41l8 10Z"/></symbol><symbol id="𭪥_G" viewBox="0 0 1000 1000" data-size="21"><path transform="matrix(1 0 0 -1 18 974)" d="m62 923 32-31h274l31 34 48-42c5-4 6-7 5-10s-4-5-11-6l-17-9V618l3-59c-1-13-5-21-11-24-6-5-16-8-29-8v45H270V451h101l28 39 61-45c7-5 9-9 7-12-2-2-8-3-18-2H270v-60c27-9 61-27 103-54 36-26 60-50 72-73 10-25 8-42-7-50-16-9-29-1-38 24-10 24-24 46-42 66-17 15-46 38-88 68V141l2-96c0-13-4-23-13-30-8-6-20-11-37-15 3 26 5 88 7 187v159C174 240 101 149 9 74L0 84c101 114 175 230 220 347H81c-17 0-32-4-44-13L4 451h225v121H106v-27c1-13-3-23-12-29-7-6-18-11-32-14 3 24 5 73 7 146v223c1 11-5 23-19 37l12 15m901-339v-12h-6c-36 3-61-3-74-20-57 33-105 91-144 173-13 29-31 80-54 154-27-82-54-145-81-190-35-58-81-112-138-161l-12 9c81 98 138 198 172 300 15 48 22 75 19 81s-7 14-14 24l8 6 88-31c1-3 2-5 1-6s-3-2-6-2c-7 0-14-2-23-7 36-84 60-138 73-161 50-91 114-144 191-157M844 374 692 16h-42l155 373H552c-13-1-24-4-32-11l-31 31h303l27 29 48-37c4-3 6-6 7-8 0-2-2-3-5-4-7-1-15-6-25-15M106 724V592h123v132H106m0 148V744h123v128H106m164-148V592h117v132H270m0 148V744h117v128H270m341-248 9 12c54-31 89-66 104-105 11-37 5-57-20-60-11 1-18 11-20 30-2 18-8 37-18 57-7 19-26 41-55 66Z"/></symbol><symbol id="𭪦_G" viewBox="0 0 1000 1000" data-size="21"><path transform="matrix(1 0 0 -1 31 982)" d="M375 540h458l32 39 66-49c5-3 8-6 7-8-1-1-6-2-13-2H619c-30-71-61-128-94-170h247l38 37 45-46c5-3 6-7 5-10s-4-5-11-6l-18-9V209l3-153c6-18-9-29-46-32v67H523V50c2-23-15-37-50-42 3 24 6 72 7 144v138c-42-57-104-117-187-180l-8 15c79 74 143 148 192 222-3 7-9 14-16 22l12 15 17-17c29 46 54 97 77 153H453c-18 1-33-4-44-13l-34 33M12 226 0 236c33 52 61 105 85 160 26 55 46 105 59 148 11 31 21 78 31 141H79c-17 0-32-4-43-13L2 705h189v199c1 10-8 26-28 48l7 9 89-36c9-3 11-7 6-10-14-6-24-13-31-21V705h45l26 39 58-45c7-5 9-9 7-12-2-2-8-3-18-2H234V563c22-9 44-20 65-34 18-11 35-32 50-62 10-19 12-37 7-53-5-14-14-20-26-19-11 1-18 11-20 30-3 28-10 50-20 66-13 19-32 36-56 52V140l4-96c0-13-5-23-15-30-11-7-24-11-39-14 3 25 5 87 7 186v367c-10-33-20-62-31-88-26-57-49-101-70-133-15-25-41-60-78-106m511 104V111h265v219H523M416 836c2 14-5 28-20 42l9 8 77-37c5-1 8-3 9-5s1-4-2-7c-13-2-24-8-32-17V685h159v227c1 10-7 24-24 41l8 10 78-33c9-3 11-7 6-11-11-2-20-8-27-17V685h162v142c1 10-9 25-29 45l9 11 84-35c9-3 11-7 6-11-13-4-23-11-29-20v-69l4-95c1-22-14-37-45-45v57H470l-34-41-49 39c17 15 26 30 29 43v130Z"/></symbol><symbol id="𭪧_G" viewBox="0 0 1000 1000" data-size="21"><path transform="matrix(1 0 0 -1 14 984)" d="m651 946 58-48c7-7 7-12 0-14-17 4-34 2-51-5-29-23-60-42-92-59V379l120 67 9-16-54-38c-27-19-48-35-62-48-18-14-31-32-40-55l-41 55c15 7 24 15 29 24v452c-2 12-9 29-22 52l12 10 45-45c45 33 73 61 85 84 1 5-1 11-4 17l8 8m69-66 36-45h113l25 41 46-43c10-8 10-14 0-19l-18-13V432c2-37-1-65-9-86-11-19-31-32-60-39-1 19-11 33-30 40-17 8-34 15-51 22l2 15c45-11 75-15 88-14 14 1 21 17 21 49v396H764V271l4-95c0-13-5-23-14-30-9-6-20-11-35-14 2 25 4 86 6 185v511c-3 17-9 31-18 41l13 11M13 232 0 242c32 54 58 107 78 158 21 54 38 102 50 144 1 3 2 6 3 11 13 53 21 98 25 133H84c-17 0-32-4-44-13L7 708h160v204c0 13-9 29-27 48l6 8 83-35c9-4 11-7 6-10-13-6-23-13-29-21V708h47l25 37 57-47c5-4 6-7 5-9-1-1-4-2-11-1H206v-40c32-17 54-30 66-39 14-10 26-24 36-41 9-17 11-34 7-49-5-15-12-23-21-23-10 0-16 11-18 32s-10 41-25 61c-14 17-29 31-45 43V140l2-95c0-14-4-24-13-31-8-6-20-11-35-14 3 19 5 81 7 186v356c-7-27-14-51-21-71-15-42-35-86-59-131-19-35-43-71-74-108m287 198-31 32h97l34 34 43-42c5-4 7-7 6-10s-4-5-10-6l-19-8V162c2-1 4-2 7-4 2-1 4-2 5-3 20-15 38-27 55-37 14-10 29-17 44-21 7-2 30-5 69-10 11-1 20-2 26-3h84c111 0 198 3 261 8V75c-21 0-37-3-48-9-13-5-24-14-32-26l-230 2c-87 6-142 16-163 30-28 17-49 32-63 47-17 15-34 18-50 9-17-11-30-22-38-34-8-11-19-29-34-53l-43 43c21 15 50 35 85 60 4 3 7 5 9 6 6 4 12 7 17 10v282h-45c-12 1-24-3-36-12m6 423 4 12c32-16 56-32 73-48 19-19 32-36 38-53 5-17 5-31 2-43-5-11-12-16-22-14-11 2-16 11-17 27s-7 35-17 56c-14 23-34 44-61 63Z"/></symbol><symbol id="𭪨_S" viewBox="0 0 1000 1000" data-size="21"><path transform="matrix(1 0 0 -1 36 967)" d="m509 267 89-53 76-38 40-18 84-31 44-14 87-26-62-54-47 18-88 38-82 44-37 24-36 26-33 26-31 29-24 27V31L427 0v233l-45-39-38-27-41-25-43-25-46-21-49-20-52-16-53-15L2 33l-2 9 104 44 47 22 45 24 42 24 39 27 36 26 33 29 29 29H27v20h400v100l62-11 16-10-16-10v-69h284l52 53 64-53v-20H509m294 667 63-11 16-11-16-9V424l-1-14-3-13-4-12-5-12-9-11-11-8-12-6-12-4-13-3-14-1v32l-74 16v15h81l5 1 3 1 1 1 1 1 1 1 1 1 1 4 1 4v517m-539-3 63-11 16-11-16-10v-64h77l52 53 64-53v-21H327v-85h136l43 47 53-47v-21H327v-66h125l31 26 58-47-25-21v-92h-64v113H327V374l-63-32v279H141V457l-63-31v248l63-32h123v66H31v21h233v85H146l-25-24-36-31-41-28-6 7 41 57 25 37 10 18 19 37 13 32h-1l4 11 55-33 11-16-22-2-26-38-4-6h101v96m174-445 4 1 3 1 2 1 1 1 1 1 1 2 1 3 1 5v7h64l-1-14-3-14-4-11-6-13-9-11-11-7-11-7-13-4-13-3h-13v31l-53 16v15h59m169 398 63-11 16-11-16-8V487l-63-31v428Z"/></symbol><symbol id="𭪩_S" viewBox="0 0 1000 1000" data-size="21"><path transform="matrix(1 0 0 -1 29 959)" d="m274 430-12 24-8 12-9 12-19 22-17 18V31L146 0v482l-23-60-19-45-21-44-23-42-25-40-27-38-8 5 52 129 29 90 13 45 11 48 11 47 9 50 5 34H4v21h142v236l63-10 16-11-16-9V682h13l52 52 63-52v-21H209V536l17-6 15-7 30-16 15-10 13-11 13-10 11-13 12-14 3-23-15-20-23-4-20 15-6 13m210 483 64-11 15-9-15-10V761h30l43 47 52-47v-21H548V593h56l44 47 52-47v-21H548V456h71l29 26 55-46-26-19V220h-58v216h-71V31L484 0v436h-66V162l-64-31v357l64-32h66v116H331v21h153v147h-67l-15-33-26-52-17-25-16-24-9 5 16 55 15 55 15 55 12 58 5 29 4 31 3 9 60-22 14-14-20-7-12-40-9-29-10-28-1-2h58v152m378 5 63-10 16-11-16-9V89l-1-13-2-13-4-13-7-12-9-11-9-8-13-7-13-4-13-2-13-1v31l-73 16v15h73l7 1 5 1 2 1 2 1 1 1 1 1 1 1 1 4v5l1 6v829M677 220v-13l-3-12-3-11-5-12-8-10-9-9-10-7-12-3-13-3-11-1v29l-42 15v13h42l4 1h3l4 2 2 2 1 3 1 3 1 6v7h58m51 620 57-11 15-11-15-8V209l-57-29v660Z"/></symbol><symbol id="𭪪_S" viewBox="0 0 1000 1000" data-size="21"><path transform="matrix(1 0 0 -1 31 966)" d="m831 69-45 22-44 23-40 26-40 25-37 27-36 30-33 30-32 33-22 28V31L439 0v280l-8-10-36-35-40-32-41-31-43-28-47-26-50-24-52-22-55-19-57-16-3 9 54 25 97 54 45 27 42 30 40 29 36 32 34 32 31 35 5 5H24v22h415v71l63-10 16-10-16-10v-41h300l52 53 63-53v-22H518l93-63 77-45 82-41 43-19 125-47-60-51-47 20M210 932l53-35 8-16-19-1-31-52-47-64-25-32 25-3 15-11-15-10V394l-63-32v326l-44-44-30-27-30-25-7 7 92 128 61 97 36 69 15 29 6 10m197-343-3 8-4 7-13 17-20 19-25 20-3 2-11-14-25-28-29-26-30-23-33-20-6 8 25 27 46 57 20 29 17 30 16 32 14 34 11 35 10 35 4 20H266v22h284l52 52 63-52v-22H432l-11-36-14-39-11-24h143l31 26 58-48-26-15-8-3-9-34-22-53-27-49-31-44-37-40-41-34-46-30-52-25-55-19-59-14-3 9 55 23 49 27 45 28 40 32 36 34 29 38 25 41 21 45 16 48 8 35H387l-15-25-20-33-5-7h1l16-4 16-4 28-11 13-7 12-5 11-8 10-8 9-10 4-23-15-20-23-3-20 14-2 6m415 327 64-10 15-10-15-10V476l-1-14-3-13-4-12-7-12-8-11-10-9-13-7-12-3-14-2-12-1v31l-106 15v16h106l6 1 5 1 4 1 2 3 2 4 1 5v447m-141-68 63-10 16-11-16-10V544l-63-32v336Z"/></symbol><symbol id="𭪫_G" viewBox="0 0 1000 1000" data-size="21"><path transform="matrix(1 0 0 -1 10 968)" d="M478 403h185v83c1 11-9 26-30 45l9 12 87-35c9-3 11-7 6-11-13-6-23-13-29-20v-74h144l33 39 66-49c5-3 7-6 6-8-1-1-5-2-12-2H716c17-33 35-64 56-93 22-29 43-53 63-70 17-17 39-35 67-53 19-13 45-24 77-33l-1-14c-19 3-34 3-45 0-7-1-18-7-32-18-2 1-5 4-8 7-35 29-59 51-72 64-23 23-45 51-66 85-19 26-35 59-49 100V87l2-44c0-13-5-23-14-29S673 3 656 0c3 25 5 69 7 134v188c-3-4-7-10-12-18-6-9-14-22-25-37-25-33-57-65-94-96-34-29-84-61-149-94l-6 13c61 44 101 76 122 96 27 25 53 55 80 89 27 36 50 72 67 108h-91c-17 0-32-4-44-13l-33 33M190 932l47-32h459l31 36 45-42c5-5 8-10 7-13s-6-6-13-7l-18-8v-53c3-107 30-187 83-242 25-23 41-22 48 4l25 124h16c-17-101-18-161-3-180 7-9 10-15 9-20s-7-7-17-8c-21-1-43 4-68 16-89 46-135 153-137 321v52H253v-60c7-162-56-279-190-351l-10 11c65 57 106 107 123 152 21 48 31 120 32 215v26c-4 15-13 32-27 49l9 10m46-385 87-35c9-3 11-7 6-11-14-6-24-13-29-20v-76h52l32 39 67-49c5-3 7-6 6-8-1-1-5-2-12-2H300v-44c32-16 60-30 85-42 27-14 46-29 59-46s18-31 16-44c-3-13-9-21-19-22-10-2-19 8-27 30-9 21-24 41-45 58-9 5-23 15-42 28l-27 18V89l1-44c0-13-4-23-13-29S266 5 250 2c3 25 5 69 7 134v184c-9-14-18-27-26-40-20-29-49-62-88-99-41-38-86-71-135-100L0 96c47 37 86 71 116 103 29 33 54 64 74 93 18 27 36 58 54 93H100c-17 0-32-4-44-13l-33 33h234v85c1 11-9 26-30 45l9 12m355 145c33-20 58-41 76-64 15-21 19-37 10-48-11-15-27-9-50 18-19 25-50 51-94 78-4 2-10 6-18 11-7 5-13 8-16 10-75-51-159-90-253-116l-4 12c61 24 117 53 168 87 18 12 36 24 54 37-9 5-22 12-39 21-3 1-9 4-16 7-37 19-80 37-129 55l5 15c71-19 130-39 178-60 10-4 21-9 32-14 17 13 31 26 43 37 37 33 55 52 54 56 2 7 2 15 1 24l7 4 63-48c2-2 3-4 2-5-1-2-3-3-6-3-8 1-21-2-39-9-27-27-55-52-85-75 9-4 21-10 36-19 9-5 16-9 20-11Z"/></symbol><symbol id="𭪬_G" viewBox="0 0 1000 1000" data-size="21"><path transform="matrix(1 0 0 -1 15 975)" d="m648 949 80-34c5-1 7-3 8-5 1-1 1-3-2-5-12-4-21-10-26-18V555h129l32 38 66-49c5-3 7-6 6-7s-5-2-12-2H783V134c0-33 4-52 13-57s23-8 41-8c22 0 39 1 52 4 15 3 23 15 26 36 4 25 7 65 9 122h13c1-6 1-15 2-26 2-43 3-70 4-80 0-19 9-31 26-37-9-19-19-32-30-40-11-7-28-11-50-13-24-2-57-2-100 0-35 7-52 42-49 103v397H633c1-96-4-176-15-240-15-66-39-123-74-172-37-49-84-90-142-123l-8 12c45 35 83 76 114 124 29 45 51 100 66 167 11 58 16 135 15 232h-52c-18 0-33-4-44-13l-33 33h205v342c1 10-7 24-25 41l8 11M250 582c-4 17-13 32-27 44l8 11 86-37c6-2 10-4 11-7s0-5-4-7c-10-1-20-6-31-15v-77h72l27 39 62-45c7-4 10-7 8-10-2-2-8-3-19-4H293V124c-1-24-6-42-17-54-11-13-37-23-80-32-3 19-11 32-23 39-7 4-26 11-58 22-4 1-7 2-10 3l4 16 41-8c66-19 99-4 100 47v317H116c-17 1-32-4-44-13l-33 33h211v88M22 593l-5 12c52 34 104 72 155 115 24 20 47 41 68 62-37 25-102 58-195 99l2 9c74-19 146-47 217-83 5 5 12 14 22 25 7 7 11 12 14 15 33 43 49 66 49 70 1 6-2 14-10 23l9 8 71-46c5-3 7-6 6-8 0-3-3-4-8-5-13-1-25-6-36-13-24-29-50-58-77-86l-3-3-1-1c60-35 100-66 121-91 21-28 26-49 14-63-14-15-28-10-43 13-17 23-40 47-67 71-18 16-36 31-54 44-76-67-159-123-249-167m114-177 63-37c11-7 14-12 7-15-13-1-23-4-30-10C131 255 75 179 8 126l-8 7c50 65 86 120 107 164 23 51 34 79 32 85-1 4-4 11-8 21-1 3-1 5-2 6l7 7m700 450 69-42c11-8 13-13 7-15-15 0-27-5-36-15-39-73-78-138-115-196l-13 7 43 96c33 79 49 122 47 129-1 8-5 18-10 29l8 7M326 389l8 10c87-59 132-116 137-171 3-26-4-42-20-47-15-6-24 4-27 29s-11 50-23 76c-13 26-38 60-75 103m158 445 10 10c35-35 61-66 78-93 19-31 29-54 32-70 6-19 5-35-2-47-5-11-13-16-22-14-11 1-17 13-19 36-3 23-9 48-19 76-8 22-27 56-58 102Z"/></symbol><symbol id="𭪭_S" viewBox="0 0 1000 1000" data-size="21"><path transform="matrix(1 0 0 -1 44 960)" d="m806 41-88 34-79 39-37 22-36 22-33 24-30 26-23 22V31L417 0v201l-44-34-36-23-40-22-43-20-45-19-48-17-51-14-52-12L2 30l-2 9 103 40 46 20 85 43 38 22 36 24 32 25 22 19H26v22h391v84H222v-16l-63-31v224H38v21h121v87l63-11 16-9-16-10v-57h168v87l63-11 16-9-16-10v-57h178v87l62-11 16-9-16-10v-57h89l43 47 53-47v-21H693v-92l-62-32v32H453l-63-32v124H222V359h536l43 47 53-47v-21H427l53-9 16-11-16-8v-56h275l53 52 62-52v-22H502l83-41 36-17 77-30 82-28 44-12 45-10 43-13-61-55-45 15M631 515H453v-72h178v72M123 823H3v22h420v76l62-10 16-11-16-9v-46h305l53 52 62-52v-22H187V715l1-4v-2l1-1 1-2 2-1 3-1 5-1 7-1h614l18-12 12-17-12-18-18-10H193l-12 1-12 5-12 5-11 9-8 10-7 12-4 12-3 13-1 14v97Z"/></symbol><symbol id="𭪮_J" viewBox="0 0 1000 1000" data-size="21"><path transform="matrix(1 0 0 -1 38 950)" d="M457 532c-12-44-28-87-47-129 52-31 79-62 79-93 0-21-9-32-26-32-12 0-21 11-26 31-5 23-18 47-38 72-22-44-49-86-81-126l-20 15c67 107 111 238 132 394 53-8 80-17 80-27 0-7-11-13-32-17-3-14-8-35-14-63h80l33 41c37-31 56-51 56-61 0-4-2-7-7-10l-22-14c-20-126-53-230-101-311C458 125 396 57 316 0l-17 18c146 135 229 306 250 514h-92M218 653v-82c36-23 65-49 86-76 20-26 29-47 29-63 0-24-10-36-30-36-13 0-23 12-29 38-9 36-27 72-56 108V3h-56v477c-34-98-81-193-140-284L0 210c73 132 126 280 160 443H25l-9 25h146v222c64-2 95-10 95-25 0-8-13-17-39-27V678h24l35 57c21-19 39-41 57-64l-12-18H218m186 96h180v149c65-3 97-11 97-24 0-8-13-17-40-26v-99h176l38 47c46-41 69-68 69-80 0-4-3-8-11-10l-34-9c-21-25-45-50-73-72l-19 14c13 23 24 52 34 85H407c4-41 2-72-6-95-9-28-23-42-42-42-22 0-33 10-33 30 0 10 4 19 12 29 24 27 36 71 37 132l24-4c3-10 4-18 5-25m293-393c58 66 103 129 135 190 48-29 72-50 72-61 0-10-14-13-43-9-48-59-103-110-164-156V105c0-16 5-25 14-28 13-3 35-5 66-5 37 0 59 8 66 23 10 21 17 57 22 110l24-10v-28c-1-41 2-66 10-76 4-6 11-9 21-9-1-25-11-41-29-48-19-8-58-12-118-12-62 0-99 5-112 14-12 7-18 26-18 54v568c62-3 93-11 93-24 0-8-13-16-39-25V356Z"/></symbol><symbol id="𭪯_J" viewBox="0 0 1000 1000" data-size="21"><path transform="matrix(1 0 0 -1 37 948)" d="M144 472C112 371 71 281 21 200L0 216c61 116 108 262 141 436H15l-7 25h136v220c66-2 99-11 99-27 0-9-14-17-43-25V677h34l39 51c23-23 42-42 55-60l-9-16H200V532c38-26 69-56 95-90 20-27 29-51 29-70 0-23-10-35-31-35-14 0-24 11-30 34-10 38-31 81-63 128V0h-56v472M400 91V14h-56v564c18-9 39-20 63-35h87v147H317l-10 25h333c30 55 54 113 74 177 59-24 89-42 89-56 0-6-13-9-41-9-27-40-58-77-90-112h143l45 61c26-23 48-45 66-66l-11-20H704V543h94l39 49c42-32 62-53 62-62 0-5-3-9-9-13l-24-16V14h-56v77H400m303 25h107v402H703V116m-54 0v402H549V116h100m-154 0v402h-95V116h95m54 574V543h100v147H549m-36 41c-13 0-22 9-27 26-12 40-38 77-78 113l16 17c83-39 124-78 124-117 0-26-12-39-35-39Z"/></symbol><symbol id="𭪰_S" viewBox="0 0 1000 1000" data-size="21"><path transform="matrix(1 0 0 -1 29 965)" d="m824 70-45 23-85 50-39 26-38 27-35 30-33 31-31 33-23 28V31L433 0v285l-45-46-39-33-41-30-44-30-47-26-50-24-52-23-54-18L4 38l-4 9 54 25 50 27 92 55 42 30 40 31 36 31 35 34 30 34 5 7H18v22h415v73l62-11 16-10-16-9v-43h300l52 52 63-52v-22H511l93-64 78-47 81-42 88-37 81-30-61-51-47 20m-51 626 4 6 2-1 26 22 57-47-26-17-18-7-16-24-35-38-39-35-38-28 40-15 50-16 54-13 108-20-62-59-62 15-57 19-52 19-48 24-24 15-51-25-56-21-58-17-65-13-67-10-2 10 64 19 61 21 56 22 50 26 28 15-17 13-33 32-26 35-22 37-13 36h-59v-22h-64v211l64-32h157v97l62-10 16-11-16-10v-66h193l5 5 5 7 2-2 20 16 58-46-27-16-51-22-38-19-31-15-15-10-6 8 13 13 23 25 11 12 16 22 2 2H646V696h127m-346-42-4-37-7-35-11-31-13-30-18-27-21-24-25-21-27-17-30-14-33-11-4 10 28 19 23 19 21 20 16 21 14 23 12 23 7 25 6 27 2 29v31h64M115 446l62-8-12-20-23-7-21 13-6 22m203 325L214 670 113 563l-4-4-14 6-24 7-27 4-28 3-2-9 27-9 22-11 19-12 14-12 10-11 7-13 4-13 2-12-1-14-3-17 62-8v25l-4 24-9 22-10 13 14 24 157 219-7 6m443-95H500l18-25 26-29 29-26 33-25 34-20 16 12 37 32 33 33 28 36 7 12m-633 21-8 11-16 14-12 7-29 14-37 16-20 7 1 8 22-3h21l38-2 16-2 16-4 14-3 13-5 13-5 12-7 9-22-8-23-22-9-23 8m456 116H427V696h157v117m-381 23-7 6-8 7-20 13-13 8-49 24-18 5 2 9 20-2h20l17-2 35-4 14-4 15-2 13-5 12-5 12-6 11-22-8-23-22-11-22 8-4 6Z"/></symbol><symbol id="𭪱_S" viewBox="0 0 1000 1000" data-size="21"><path transform="matrix(1 0 0 -1 33 967)" d="m846 79-31 25-28 27-26 28-26 29-46 65-20 35-18 36V32L589 0v285l-32-49-27-36-30-33-31-30-33-30-36-25-38-21-39-19-5 8 65 54 29 30 28 30 26 32 24 33 23 37 21 37 19 40 8 18H338v21h251v138l62-11 16-11-16-9V382h135l53 53 63-53v-21H651v-3l69-82 51-54 28-26 55-44 81-50-59-46-30 23M266 423l-11 24-7 12-7 13-17 22-10 12-10 12-4 3V36L138 5v475l-19-53-18-45-21-44-21-42-24-40-27-38-8 5 33 85 30 88 14 44 12 47 11 47 9 48 9 49 5 35H4v21h134v236l62-10 17-11-17-9V687h26l43 47 52-47v-21H200V540l16-5 15-7 15-7 14-9 13-10 13-11 24-23 10-14 3-23-14-20-25-3-18 15m113 143 1-4-1 4m4-55-1 1 1-1m0-4-8 31-2 4 1 1-6 26h11l30 1 85 69 47 42 35 35H338v21h251v198l62-11 16-10-16-10V737h142l53 52 63-52v-21H666l-64-56-54-39-27-18-54-32h35l86 1h136l47-2h1l-67 47-23 13 4 10 25-9 25-7 43-15 20-7 34-16 27-17 11-9 7-23-11-21-22-7-23 11-4 6-15 19-10 9-21-3-46-7-135-16-168-17-19-2-9-18-12 16Z"/></symbol><symbol id="𭪲_J" viewBox="0 0 1000 1000" data-size="21"><path transform="matrix(1 0 0 -1 32 953)" d="M152 654H15l-9 25h147v221c65-2 98-11 98-28 0-9-14-18-43-27V679h54l42 60c22-22 41-44 56-65l-12-20H208V540c79-54 118-104 118-150 0-24-11-36-33-36-16 0-27 12-32 38-6 29-23 67-53 114V3h-55v471c-31-95-75-185-131-271L0 216c39 74 71 145 94 215 22 64 41 139 58 223m502 85c24 53 44 108 60 166 57-23 86-41 86-53 0-8-13-13-39-14-18-29-43-62-75-99h113l44 56c24-21 43-42 57-61l-10-20H644v-95h126l41 53c24-20 43-40 57-58l-11-20H644V489h184l44 57c23-21 43-41 59-62l-12-20H330l-11 25h268v105H387l-10 25h210v95H358l-10 25h306M506 354v-57c0-149-62-248-187-297l-15 24c95 52 143 143 143 274v111c22-8 43-18 64-30h176l37 41c41-28 61-48 61-58 0-4-3-7-8-10l-26-16V116c0-16 5-26 14-31 7-2 17-3 29-3 28 0 46 8 54 24 10 22 17 70 21 146l26-10c0-62 3-104 8-124 5-17 16-26 33-27-1-27-12-44-33-50-21-9-54-13-99-13-37 0-63 3-78 9-21 8-32 28-32 58v259H506m19 389c-18 0-28 12-31 36-5 34-27 67-65 99l13 17c79-31 118-69 118-116 0-24-12-36-35-36Z"/></symbol><symbol id="𭪳_G" viewBox="0 0 1000 1000" data-size="21"><path transform="matrix(1 0 0 -1 19 979)" d="M479 400h172v81c0 15-9 31-26 49l5 8 89-36c5-1 7-2 8-4s1-4-2-6c-13-5-23-12-29-21v-71h127l26 35 57-41c6-4 8-7 6-10-2-2-8-3-17-4H729c13-36 25-64 36-83 1-3 4-7 7-12 27-52 52-87 75-105 31-27 69-45 114-54v-14c-43 1-69-5-80-20-61 45-105 98-131 161-15 33-29 76-41 127h-13V100l3-56c0-21-18-36-55-44 3 25 6 63 7 113v267h-12c-13-51-33-97-59-137-27-39-54-72-83-97-30-25-69-52-118-79l-9 14c59 45 99 80 122 106s45 60 67 101c19 33 31 63 34 92h-36c-17 1-31-3-44-12l-34 32m-448 3h215v79c0 15-9 31-27 49l6 8 89-36c5-1 7-2 8-4s1-4-2-6c-14-5-24-12-29-21v-69h59l30 33 49-39c7-5 10-9 8-11-1-3-8-4-19-3H291v-64c23-9 44-18 62-27 31-16 51-36 60-61 9-30 2-47-19-51-11 0-19 9-23 26-3 19-13 36-30 52-15 15-31 29-50 40V113l3-56c1-21-18-36-55-45 3 26 6 64 7 114v257h-16c-19-68-37-118-55-150C131 152 76 92 11 51L0 63c67 59 119 131 155 216 16 36 27 71 33 104h-80c-16 1-31-3-44-12l-33 32m485 361c23-4 48-10 74-17 47 36 81 65 102 87 17 19 28 33 31 41 2 5 0 10-7 16l6 7 76-38c5-3 7-5 8-8s-1-5-5-6c-19 0-35-4-46-11-15-7-32-18-53-33-19-14-48-35-88-62 39-11 72-22 99-33 59-23 102-46 129-69 33-27 43-50 31-69-13-15-30-11-49 11-21 26-45 47-70 64s-56 34-93 49c-5 2-13 5-24 9-53 21-93 35-121 42V600c4-45-23-73-82-84-5 19-15 31-29 37-15 7-43 16-85 27l2 18 42-10c41-9 70-11 85-6 15 7 23 24 24 51v270c-1 14-10 29-27 45l7 10 86-37c7-3 10-5 11-7s0-4-4-6c-9-2-19-7-30-16V764m-103 42c4-3 6-6 6-9s-2-4-6-5c-11-1-19-4-24-11s-16-22-35-46c-19-25-46-53-82-86-38-35-74-60-107-75-36-17-79-34-129-51l-4 12c96 45 172 96 227 153 31 30 59 67 84 111H158c-17 1-29-4-35-13l-31 33h240l29 34 52-47Z"/></symbol><symbol id="𭪴_J" viewBox="0 0 1000 1000" data-size="21"><path transform="matrix(1 0 0 -1 44 950)" d="M227 740h138l37 40c39-32 59-52 59-60 0-4-3-7-8-10l-29-15C361 552 248 448 84 382l-13 21c146 74 246 178 298 312H210c-12-17-27-36-45-56 72-21 108-47 108-78 0-20-9-30-28-30-12 0-21 6-29 20-17 29-39 53-66 71-25-27-58-54-97-81l-16 18c79 68 136 149 170 244H64l-10 25h317l44 51c23-17 45-37 64-58l-12-18H269c-11-27-25-55-42-83m267-431c58-51 126-93 205-126 57-24 128-47 212-69-21-19-35-39-44-61-96 37-173 73-229 106-62 37-116 81-162 131V0h-58v256c-55-54-121-100-197-137C163 90 93 63 11 37L0 60c172 63 301 146 387 249H30l-13 25h401v98c63-2 95-10 95-25 0-8-12-16-37-24v-49h300l54 66c26-24 49-48 68-71l-13-20H494m134 431h144l37 40c39-32 59-52 59-60 0-4-3-7-8-10l-29-15c-32-74-74-135-125-183-47-43-107-81-178-112l-13 21c69 40 124 83 166 131 39 45 70 99 95 163H611c-14-21-28-39-43-54 77-21 115-47 115-80 0-20-9-30-28-30-11 0-21 6-29 20-19 32-43 57-72 75-29-30-62-58-100-85l-16 18c79 68 135 149 170 244H503l-10 25h304l44 51c24-17 45-37 64-58l-12-18H670c-11-27-25-55-42-83Z"/></symbol><symbol id="𭪵_J" viewBox="0 0 1000 1000" data-size="21"><path transform="matrix(1 0 0 -1 37 949)" d="M588 302c5 20 7 41 7 65v79H476c-22-42-51-82-86-119l-21 14c43 70 74 148 92 235h-47v292c23-10 46-21 68-34h287l37 46c41-32 62-53 62-63 0-4-3-8-8-11l-25-16V572h-57v43H471v-34c52-16 78-30 78-41 0-9-14-14-40-17-6-17-13-34-21-52h265l46 58c26-23 48-45 65-66l-10-17H652v-86c0-23-1-42-4-58h151l50 64c27-26 50-49 67-71l-10-18H657c49-98 138-168 269-209-16-12-31-32-45-58-66 30-119 66-157 108-35 37-64 83-86 139C601 131 492 46 310 1l-12 22c159 54 254 139 285 254H352l-10 25h246M471 640h307v169H471V640m-313 11H19L8 676h153v222c66-1 99-9 99-24 0-9-14-18-43-27V676h55l43 64c25-24 46-47 64-70l-13-19H217V547c94-61 141-117 141-169 0-25-10-38-32-38-16 0-27 12-33 37-12 49-37 95-76 139V0h-56v490C126 383 80 284 23 191L0 208c70 132 123 280 158 443Z"/></symbol><symbol id="𭪶_J" viewBox="0 0 1000 1000" data-size="21"><path transform="matrix(1 0 0 -1 32 951)" d="M207 598c83-48 124-93 124-137 0-22-11-34-32-34-13 0-22 10-28 28-13 39-34 75-64 108V2h-56v477C117 375 74 283 22 202L0 215c68 127 117 273 148 438H19l-9 25h141v221c68-3 102-12 102-28 0-9-15-18-46-27V678h51l42 58c23-23 41-46 54-67l-9-16H207v-55m266-338c-47-48-105-89-174-125l-16 19c85 55 156 132 214 231 52-13 77-24 77-34 0-7-11-11-35-12-9-13-17-23-22-30h201l38 37c42-31 63-51 63-60 0-2-4-5-12-10l-25-9c-37-45-77-84-121-117 72-36 164-64 275-83-18-14-32-32-43-54-109 28-200 64-272 109C528 64 415 23 281 0l-11 21c119 26 223 70 310 130-40 31-76 67-107 109m19 19c18-19 35-36 51-50 17-16 41-33 72-53 43 34 78 70 105 108H496c-2-2-3-3-4-5m-56 494v128c64 0 95-8 95-24 0-8-13-18-39-28v-76h202v127c66-1 99-9 99-24 0-8-14-18-42-27v-76h58l44 60c24-23 44-45 58-64l-8-20H751V456h-57v36H492v-46h-56v303H323l-10 24h123m258-24H492V645h202v104M492 517h202v103H492V517M302 387l-11 25h521l46 60c24-22 45-44 62-65l-10-20H302Z"/></symbol><symbol id="𭪷_S" viewBox="0 0 1000 1000" data-size="21"><path transform="matrix(1 0 0 -1 33 964)" d="m283 429-7 12-6 12-18 25-21 22-11 12-7 7V31L150 0v484l-24-62-20-45-21-44-23-42-26-40-28-38-8 5 36 86 33 88 15 45 14 45 11 48 11 48 10 49 5 34H4v21h146v236l63-10 16-11-16-9V682h17l53 52 63-52v-21H213V537l18-6 17-7 16-7 14-10 28-21 13-10 23-26 4-24-14-20-24-4-19 14-6 13M843 80l-31 24-30 25-28 27-27 29-25 30-24 31-22 34-19 35-7 16V36l-53-26v279l-14-22-27-37-29-34-31-32-33-28-35-28-37-23-38-21-42-16-4 8 35 25 65 55 29 28 28 31 26 33 23 33 23 36 19 37 7 16H308v20h269v130l53-10 13-11-13-8V370h155l52 53 63-53v-20H636l72-79 54-51 27-24 29-21 61-39 31-17 25-15-59-45-33 21M701 717l53-10 13-11-13-8V577h46l52 53 63-53v-20H754V435l-53-27v149H510V435l-53-27v149H296v20h161v140l53-10 12-11-12-8V577h191v140M579 928l53-11 14-11-14-9v-99h121l53 53 62-53v-21H632V666l-53-26v137H343v21h236v130Z"/></symbol><symbol id="𭪸_S" viewBox="0 0 1000 1000" data-size="21"><path transform="matrix(1 0 0 -1 36 959)" d="m264 418-11 24-6 12-8 13-8 11-18 23-11 12-3 3V31L137 0v474l-19-52-17-45-21-44-21-42-25-40-25-38-9 5 48 129 15 44 13 45 12 46 12 47 9 48 8 49 5 35H4v21h133v236l62-10 16-11-16-9V682h25l44 47 51-47v-21H199V535l16-5 14-7 15-7 15-9 25-21 13-11 11-13 10-13 3-23-14-20-24-3-19 15m577-186 6 21 4 26 3 32v34l-3 35-8 35-12 35-17 34-22 33-27 33 1 1-7 2 18 67 36 123 15 57 6 27 2 7H722V31L659 0v887l63-32h117l31 27 58-48-27-16-7-4-23-59-23-57-29-58-33-61-14-22 40-20 32-32 24-36 19-39 11-41 8-39 3-39v-37l-3-32-5-27-60 17M323 56l-7 20-1 3-2 9-7 24v1l-1 2 119 31 17 4v202H313v20h128v163l64-11 16-10-16-9V372h14l51 53 64-53v-20H505V168l99 26 40 10 2-9-72-37-69-31v-1h-4L343 63l-5-20-15 13m-18 59 18-59-28 56 10 3m536 117 60-17-4-13-5-12-7-11-9-10-10-8-11-8-12-5-13-3-13-2-12-1v31l-53 15v16h53l6 1 5 1 5 1 4 2 3 2 3 2 3 4 2 4 5 11M319 551l-3 12v4l21 2 43 103 32 88 9 27 8 26 1 5H305v22h221l52 53 64-53v-22H495l-21-50-28-56-31-58-38-59-15-22 46 7 26 5 26 4 28 6 61 9h10l-8 21-7 19-28 58-12 21 8 6 33-33 17-16 13-17 25-35 10-19 10-18 9-19 7-18-3-25-20-14-23 4-15 18-3 18-9 34-37-17-55-21-75-26-46-13-9-20-14 13v2l-1 5v3l-1 1v2l-1 5v2l-1 4v1l-1 3v1l-1 1v2l-1 4v1l-1 7v2m-3 16 11-60-21 58 10 2Z"/></symbol><symbol id="𭪹_K" viewBox="0 0 1000 1000" data-size="21"><path transform="matrix(1 0 0 -1 59 949)" d="m476 414-9-18H265v-80c93-33 147-62 164-88 6-12 9-24 9-37 0-15-4-23-13-23-8 0-16 6-25 19-31 47-76 85-135 113V51c1-15 1-25 0-30-3-6-11-12-24-16-8-3-13-5-15-5-6 0-8 6-8 17 0 7 1 19 3 36v266C173 233 102 158 6 92l-6 7c42 37 83 82 121 135 39 54 68 108 90 162H9v22h212v128H89c2-12 3-21 3-25 0-3-9-10-26-19-9-4-14-6-16-6-3 0-4 17-4 51v262l-4 45 50-22h289l11 17c6 10 10 15 12 15s8-4 17-11l32-26c7-8 11-14 11-18 0-7-9-12-27-16V564c1-16 2-25 2-27 0-11-7-20-23-27-10-5-16-7-18-7-4 0-6 5-6 16 0 5 0 15 2 27H265V418h123l12 19c10 13 15 20 18 20 5 0 14-6 27-19l31-24m256 126c11-13 17-22 17-26 0-6-10-9-31-9V287c0-29 0-44 1-43-2-4-9-8-22-12-9-3-15-4-17-4-4 0-6 1-6 3v17c0 11 1 20 1 26H563v-45c-2-5-9-9-23-11-8-3-14-4-17-4s-5 1-5 5c-1 2-1 9 0 20 0 13 1 24 1 33v262l-4 41 50-28h101l18 23c5 8 8 12 9 12 2 0 6-5 14-14l25-28m132 189c13-14 19-24 19-30 0-7-11-11-31-11l1-203c0-155-6-262-17-323-13-71-39-114-77-131l-45-16c-13-4-21-6-26-6-8 0-11 3-11 10v3c0 3 1 5 1 6 0 12-6 20-18 25l-88 24 3 13 111-19c40-4 69 10 85 43 20 38 31 112 35 223 2 47 3 174 3 382H570c-26-68-61-129-103-184l-12 8c61 110 101 228 118 355l51-18c14-6 22-12 22-17 0-7-11-13-31-19-10-43-21-77-34-105h219l18 23c7 6 10 9 11 9s6-5 15-15l20-27M675 296v230H563V296h112M221 565v116H89V565h132m173 0v116H265V565h129M221 701v111H89V701h132m173 0v111H265V701h129Z"/></symbol><symbol id="𭪺_S" viewBox="0 0 1000 1000" data-size="21"><path transform="matrix(1 0 0 -1 37 962)" d="m268 430-6 12-7 12-7 12-19 23-20 24-5 5V31L142 0v478l-21-56-18-45-43-86-25-40-27-38-8 5 50 129 15 45 14 45 25 92 9 48 9 50 5 34H4v21h138v236l62-10 17-11-17-9V682h30l43 47 52-47v-21H204V536l17-6 15-7 16-7 27-19 14-11 23-23 11-14 3-23-14-20-23-3-20 15-5 12m545-266 3 8 3 10 3 10 3 14 3 15 4 35 2 20 1 23 1 12H643V34L579 3v236l-28-32-30-30-31-28-34-25-35-24-37-22-40-19-42-16-4 8 70 51 32 26 32 27 28 28 26 28 25 30 43 63 4 7H405l-7-41-67-21 45 272 50-36h153v141H350v21h444l31 27 58-48-27-21V443l-62-31v53H643V332h193l31 26 59-47-27-16h-1l-1-23-2-21-2-21-2-19-3-18-4-15-4-15-5-15-6-12-56 28m-41-29 7 1 5 2 10 4 4 4 4 2 4 5 4 5 3 6 56-28-6-11-8-11-8-10-9-8-11-8-12-6-11-4-13-4-13-2h-12v32l-53 15v16h59M579 465H431l-23-133h171v133m215 161H643V485h151v141M679 924l63-10 16-11-16-9v-80h64l52 53 63-53v-20H742v-84l-63-31v115H542v-84l-63-31v115H300v20h179v110l63-10 16-11-16-9v-80h137v110Z"/></symbol><symbol id="𭪻_K" viewBox="0 0 1000 1000" data-size="21"><path transform="matrix(1 0 0 -1 58 931)" d="m438 390-4-16H248v-73c97-38 149-73 157-107 3-29-2-44-13-44s-21 10-31 28c-22 43-60 78-113 106V50c0-24 0-37-1-38 0-2-7-5-20-7-8-3-14-5-17-5s-4 2-5 5c-1 2-1 8 0 16 1 12 1 22 1 29v220c-26-41-57-81-93-119C78 114 43 87 9 68L0 78c42 28 82 71 120 129 39 58 66 114 83 167H14v20h192v115H96c0-24 0-35 1-33-2-4-9-7-22-10-8-3-14-5-16-5-4 0-7 3-7 10 0-13 1-2 1 32v296l-5 49 56-34h248l16 22c7 8 11 12 12 12s6-5 14-14l24-30c10-12 16-20 16-26 0-7-11-12-32-14V525c0-19 1-29 1-28-1-3-8-7-22-12-9-2-15-4-17-4s-4 1-5 2v10c1 7 1 12 1 16H248V394h98l24 39c9 13 13 19 14 19 2 0 8-6 18-19l36-43m-78 278v126H248V668h112m0-139v119H248V529h112M206 668v126H96V668h110m0-139v119H96V529h110m678 9-4-8c-10 3-18 4-25 4-9 0-18-3-25-9-6-5-11-8-14-8-6 0-17 7-33 22-60 70-107 155-140 255-48-134-117-243-207-326l-7 11c41 43 80 101 115 176 36 76 59 144 68 206l45-18c20-8 30-15 30-20 0-4-11-10-31-18 22-60 52-113 90-160 39-47 84-83 138-107m-205 10c13-11 20-18 20-23 0-7-13-11-41-9-58-95-132-169-222-220l-7 13c95 56 165 145 210 269l40-30m91-136c14-12 21-20 21-25 0-8-15-11-44-10-77-108-179-186-307-234l-6 12c140 65 240 160 298 285l38-28m87-136c15-12 23-21 23-26s-7-7-21-7c-5 0-11 0-19 1C747 124 613 44 438 5l-5 13c92 23 170 58 233 105 64 47 116 107 156 181l35-28Z"/></symbol><symbol id="𭪼_J" viewBox="0 0 1000 1000" data-size="21"><path transform="matrix(1 0 0 -1 42 948)" d="M151 405v-43H94v263c11-4 24-9 39-16 16-8 26-12 28-13h201c20 39 34 73 44 104 60-14 90-27 90-39 0-8-15-14-46-16-14-17-31-33-51-49h348l36 40c41-26 61-45 61-57 0-4-3-8-9-12l-24-12V369h-56v36H151m157 24v142H151V429h157m56 0h163v142H364V429m218 0h173v142H582V429M423 222C307 130 170 65 13 26L0 47c162 53 293 128 393 223H33l-10 24h400v106c67-7 100-17 100-29 0-6-14-12-41-18v-59h293l53 54c33-26 56-45 69-59l-10-19H501c110-79 248-136 414-172-18-15-33-34-44-57-159 48-289 119-389 213V0h-59v222M171 726h255v170c63 0 94-7 94-23 0-9-13-19-39-28V726h261v148c62-3 93-13 93-29 0-9-13-19-39-28V664h-54v37H171v-45h-54v218c64-1 96-9 96-24 0-10-14-20-42-31v-93Z"/></symbol><symbol id="𭪽_S" viewBox="0 0 1000 1000" data-size="21"><path transform="matrix(1 0 0 -1 47 961)" d="m355 907 58-11 15-10-15-9V524h398l43 47 52-47v-21H413l-15-7 62-31h277l32 26 57-47-26-21V31L737 0v31H460L397 0v495l-42-20v432m-76-474-6 12-7 13-17 23-31 35-7 5V35L148 4v483l-23-61-20-45-20-44-23-42-26-40-27-38-9 5 53 129 30 89 14 46 11 48 11 47 9 50 5 34H4v21h144v236l63-10 16-11-16-9V686h16l52 52 63-52v-21H211V540h1l17-6 16-7 16-6 14-10 28-21 12-11 12-12 12-14 3-23-14-20-23-4-20 15-6 12m458-258H460V53h277v122m0 135H460V195h277v115m0 134H460V331h277v113M460 851l58-30h261l32 27 57-47-26-22V597l-63-33v42H518v-15l-58-28v288m319-50H518V628h261v173Z"/></symbol><symbol id="𭪾_S" viewBox="0 0 1000 1000" data-size="21"><path transform="matrix(1 0 0 -1 40 959)" d="m286 429-7 12-7 12-8 12-20 24-10 11-19 19V31L152 0v488l-25-66-20-45-21-44-24-42-26-40-28-38-8 5 54 129 16 45 29 90 11 48 12 48 9 49 6 34H4v21h148v236l63-10 15-11-15-9V682h19l52 52 64-52v-21H215V537l18-6 17-7 16-7 30-19 14-12 24-23 12-13 3-23-14-21-23-4-20 14-6 13m58-411v20h175v236H361v22h158v198H382v22h137v187H364v21h155v172l63-10 16-11-16-10V38h99v858l62-10 16-11-16-10V719h70l42 47 52-47v-21H743V510h56l32 37 42-37v-21H743V290h72l43 48 53-48v-20H743V38h63l52 53 63-53V18H344Z"/></symbol><symbol id="𭪿_S" viewBox="0 0 1000 1000" data-size="21"><path transform="matrix(1 0 0 -1 53 965)" d="m782 34-45 14-44 15-40 17-38 19-35 20-33 22-29 23-27 26-16 22V31L412 0v179l-36-27-38-24-39-22-41-19-44-18-46-15-48-14-50-10-51-8-2 10 95 35 86 38 39 22 37 21 36 24 56 46H212v-16l-63-31v219l63-32h200v52H13v21h399v80l63-11 15-11-15-10v-48h314l43 48 53-48v-21H475v-52h205l31 27 58-48-27-21V207l-62-31v42H488l48-29 65-32 35-13 36-14 40-12 42-11 43-8 96-18-63-59-48 12M412 337H212v-98h200v98m268 0H475v-98h205v98M12 528l-1 12v2l-1 2v2l40 2 42 3h4v267l62-10 16-10-16-10V556l25 2 48 4 28 2v366l63-11 16-10-16-10V760h71l43 48 52-48v-21H322V570l70 6 119 9 1-10-116-26-55-12-104-19-139-23-61-9-9-17-12 14-1 12v7l-1 4v5l-1 7v2l-1 6v2m-2 18 6-63-16 62 10 1m527 383 63-11 15-11-15-9V741l126 56 78 39 21 12 5 2 6-12 38-36 1-18-20 8-54-21-58-20-57-16-29-6-29-5-28-4V567l1-4 1-1v-2l1-2 2-1 3-2 6-1 7-1h223l24 89h11l-11-90 16-10 11-16-11-15-16-11H607l-12 2-12 4-12 5-10 8-9 9-6 12-5 13-3 12-1 13v351Z"/></symbol><symbol id="𭫀_G" viewBox="0 0 1000 1000" data-size="21"><path transform="matrix(1 0 0 -1 21 984)" d="m584 968 84-33c8-3 10-7 5-11-10-2-19-8-28-17v-52h131l36 37 49-46c5-3 6-5 5-7s-4-4-11-5l-18-9V711l5-30c3-17-13-29-48-35v46H645v-94h221l25 33 61-43c5-3 7-6 6-8-1-1-5-2-12-2H390c-17 1-32-4-44-13l-33 33h289v94H456v-17c1-24-15-39-50-44 3 25 6 68 7 127v86c-3 16-9 30-18 41l15 12 35-42h157v62c1 10-8 24-26 41l8 10M419 542l40-43h305l44 42 45-50c5-4 6-7 5-10s-4-6-11-7l-17-9V339l3-131c-1-21-18-35-52-43l4 92 2 82v140H467V303l4-94c2-23-16-38-53-44 3 42 5 103 6 184v143c-3 15-9 26-20 35l15 15m178-136 85-33c12-5 15-9 8-13-9 1-19-4-30-14-5-47-17-92-35-137-19-44-57-84-116-119-58-34-135-59-230-75l-8 14c94 23 166 52 216 85 48 32 80 66 95 101 15 37 25 86 30 149-3 13-10 24-23 33l8 9m48 302h149v131H645V708m-43 131H456V708h146v131m40-656 4 12c65-17 118-36 159-57 46-22 77-41 93-57 27-33 28-57 4-72-11-2-22 6-34 25-17 23-40 44-70 65-34 25-86 53-156 84M155 961l87-36c5-1 7-3 8-5 1-1 1-3-2-5-13-6-23-13-29-21V707h63l25 37 56-43c7-5 9-9 7-12-1-2-7-3-17-2H219V580c19-7 40-19 65-34 18-10 34-27 47-50 7-13 11-27 11-40-1-19-9-29-25-30-9 0-16 10-21 31-5 24-12 43-23 57-13 17-31 33-54 46V140l2-95c0-14-5-24-14-31-9-6-21-11-38-14 3 25 5 85 7 178v383c-5-24-14-54-27-91-26-65-46-109-59-131-22-38-47-76-76-114L0 235c35 59 62 114 81 166 19 47 35 95 48 144 9 39 18 87 26 142H79c-18 0-33-4-44-13L1 707h175v197c1 13-8 29-26 48l5 9Z"/></symbol><symbol id="𭫁_S" viewBox="0 0 1000 1000" data-size="21"><path transform="matrix(1 0 0 -1 35 962)" d="m802 729-3 2-1 1-2 2-3 3-5 3-18 15-1 1 1 3 5 12 2 10 3 13 4 32 3 20 1 31H623l-5-27-11-35-14-31-21-29-23-26-28-23-32-19-36-17-10-3 51-26h272l31 26 58-47-26-21V451l-63-31v42H494l-53-26 54-9 16-11-16-10v-48h300l52 53 63-53v-20H510l58-44 75-52 79-46 85-42 124-51-61-50-47 22-45 24-43 24-42 27-39 28-38 29-35 31-33 33-30 34-23 29V31L433 0v300l-44-47-39-35-42-33-44-31-47-28-49-25-52-25-55-19L4 39l-4 9 53 26 98 57 45 29 42 31 39 32 36 34 35 35 30 37 7 9H18v20h415v73l-1-1v232l-18-5-43-10-3 9 38 20 34 19 30 21 25 21 22 23 15 23 13 25 9 25 6 27 1 17H393v21h396l31 27 58-48-26-16h-1l-3-42-5-36-4-15-4-15-5-13-5-11-8-12-12 11-1 1h-2M100 902l62-32h137l31 26 58-46-27-22V489l-62-31v63H162v-63l-62-31v475m666-282H494V482h272v138m-467 69H162V542h137v147m417 39 7 1h6l12 5 6 3 6 4 10 9 6 6 48-39-7-10-10-9-10-8-10-6-11-7-11-4-13-4-12-3-12-1-14-1v31l-84 16v17h93M299 850H162V711h137v139Z"/></symbol><symbol id="𭫂_S" viewBox="0 0 1000 1000" data-size="21"><path transform="matrix(1 0 0 -1 39 959)" d="m300 416-14 25-8 12-17 24-22 23-20 20V31L156 0v491l-27-70-21-45-21-43-24-42-26-40-29-38-8 5 56 129 32 90 26 93 11 48 10 49 5 34H4v21h152v236l63-10 15-11-15-9V682h23l52 52 63-52v-21H219V537l19-6 17-7 16-7 30-19 14-11 13-11 25-26 3-23-13-21-24-4-19 14m416 397 3 3h1l27 23 58-47-27-16-12-5-27-48-39-62-41-57-7-8 38-36 39-32 38-25 38-22 39-18 78-26-61-53-45 19-42 24-41 28-39 32-38 37-32 38-7-8-46-47-47-40-49-36-51-30-18-7 42-22h126v68l64-10 15-10-15-10v-38h120l31 26 59-46-27-22V220l-63-32v32H638V107l35 2 92 5h17l-10 15-27 32-16 17-17 14 6 8 21-9 21-10 20-12 19-14 16-15 16-17 16-17 12-19 12-20 11-21-2-24-17-16-24 2-17 16-11 38-8 17-9 17-3 5-24-7-44-10-92-17-95-13-48-6-127-14-9-17-12 14-1 6v17l-1 7v6l-1 9v3l-1 5v11l50 2 146 6 42 1v116H448v-36l-63-33v234l-15-7-56-18-2 9 49 27 48 30 45 33 44 38 42 42 39 46 14 18-36 55-30 54-14 32-26-36-22-30-24-28-25-27-26-23-29-23-7 7 60 87 36 60 17 33 29 66 14 34 15 43 57-29 11-16-20-3-8-18-14-28h165M336 95l4-64-15 63 11 1m238 257H448V241h126v111m184 0H638V241h120v111m-52 440H540l-11-21-8-13 61-82 34-41 37 56 34 60 19 41Z"/></symbol><symbol id="𭫃_S" viewBox="0 0 1000 1000" data-size="21"><path transform="matrix(1 0 0 -1 40 966)" d="m285 429-7 12-7 12-17 25-10 11-22 23-7 7V31L151 0v486l-24-64-20-45-21-44-23-42-27-40-27-38-9 5 55 129 30 90 14 45 11 48 11 48 10 49 5 34H5v21h146v236l64-10 15-11-15-9V682h17l53 52 64-52v-21H215V537l17-6 17-7 16-7 15-10 28-21 25-23 11-13 4-23-14-21-23-4-20 14-6 13m251-175h1l-4-28h140v140l63-11 16-10-16-9V226h45l53 52 62-52v-22H736V35L673 4v200H529l-6-28-11-34-14-31-17-28-19-24-22-21-25-16-25-11-29-7-4 9 23 15 19 17 17 18 15 21 11 21 11 26 9 27 6 30 2 16H307v22h166l2 32v108l62-11 16-10-16-9v-80l-1-2M404 603l64-32h264l32 27 58-47-26-22V398l-64-32v53H468v-37l-64-31v252m328-52H468V440h264v111m96 72-32 22-30 23-30 26-27 29-26 30-26 32-24 34-24 40-31-46-30-39-31-36-34-33-35-30-36-29-39-24-39-21-42-19-5 9 70 54 34 29 31 30 30 32 28 35 26 35 25 39 24 39 22 42 3 6 53-36 9-16-20-1h-1l36-40 57-56 28-25 29-23 30-20 29-18 30-16 61-29-61-48-32 19M663 729l52-46v-22H475v22h145l43 46Z"/></symbol><symbol id="𭫄_K" viewBox="0 0 1000 1000" data-size="21"><path transform="matrix(1 0 0 -1 52 947)" d="M894 416c-6 1-10 2-14 2-14 0-24-6-30-17s-12-16-17-16c-7 0-15 3-26 10-89 43-168 100-238 171V370c-1-8-8-13-22-16-6-1-10-2-13-2-8 0-12 5-12 15 0 2 1 8 1 18 2 10 2 20 2 28v123c-86-77-184-130-294-159l-6 10c106 37 196 99 267 184H231v21h294v77H388c0-14-1-23-1-24-1-2-8-5-23-7-4-1-7-1-10-1-5 0-8 2-9 6-2 4-2 12-1 23 0 20 1 34 1 42v85l-4 72 52-27h304l12 15c6 8 10 12 12 12s10-5 24-15l15-10c13-9 19-16 19-22s-8-11-24-15v-87c0-10 0-20 1-31s1-17 1-19c0-12-9-20-26-24-5-1-10-1-12-1-5 0-8 1-9 3s-1 6 0 10c1 7 1 12 1 15H569v-77h221l22 25c10 12 17 18 20 18 1 0 8-6 22-18l35-34-6-12H587c88-71 191-120 309-144l-2-11m-1-326c-24 0-40-6-49-18-7-17-12-25-17-25-2 0-15 4-37 14-59 25-113 52-160 81-47 28-101 69-161 121V54c0-22-1-35-3-39-2-5-10-9-23-13-6-1-10-2-12-2-5 0-7 2-8 5-1 2-1 8 0 17 1 13 1 25 1 34v179C302 138 163 73 7 38L0 49c156 44 285 117 385 220H2v21h422v36l-6 56 53-14c19-6 28-12 28-17 0-6-10-13-30-21v-40h310l32 38c6 11 11 16 15 16 3 0 11-6 23-17l45-43-5-15H494c61-49 125-88 191-118 66-29 136-47 211-52l-3-9M711 689v128H388V689h323M241 874c16-7 24-13 24-19s-12-11-36-13c-14-37-39-85-72-144 22-4 32-9 32-14 0-4-5-9-15-15V436c0-51 0-75 1-71-1-10-9-16-23-19-6-2-11-3-13-3-7 0-10 6-10 19 0 3 0 12 1 27s1 29 1 42v223c-33-45-73-91-121-135l-8 7c79 92 144 215 196 368l43-20Z"/></symbol><symbol id="𭫅_G" viewBox="0 0 1000 1000" data-size="21"><path transform="matrix(1 0 0 -1 28 978)" d="m787 615 6 13c58-26 98-54 120-84 1-1 3-4 6-7 17-22 26-40 25-54-1-17-8-27-21-29-12-1-21 10-28 31-3 9-10 24-23 46l-1 3-1 1-193-22c-137-12-214-20-230-24-18-3-34-12-49-26l-45 58 273 16v125H465v-3c2-34-12-52-43-54 3 38 5 74 6 109v102c1 11-5 23-18 36l12 16 42-46h162v83c1 10-7 24-25 41l8 10 78-33c9-3 11-7 6-11-11-3-20-8-26-17v-73h144l34 37 45-46c5-3 6-7 5-10s-4-5-11-6l-17-9v-11l3-120c-3-14-16-22-40-24v29H667V539l190 13c-11 15-34 36-70 63M440 459l87-35c9-3 11-7 6-11-14 0-24-4-30-13v-39h319l28 39 62-45c6-5 8-9 6-12-2-2-8-3-19-2H553c30-37 53-61 69-74 26-25 53-46 80-63 30-22 59-37 86-46 31-12 55-19 72-22 21-5 48-8 80-11v-16c-27 0-46-1-57-4-12-3-25-11-38-23-34 9-71 24-110 46-39 23-75 50-106 79-36 31-69 76-100 134h-26V87l2-42c0-13-4-23-13-30-9-6-22-11-38-15 2 26 4 71 6 134v205c-47-72-102-131-165-176-71-53-159-95-263-124l-4 15c53 21 104 45 151 71 50 29 93 60 129 93 36 32 70 73 103 123H107c-19 0-34-4-47-12l-31 32h431v41c1 12-9 27-29 45l9 12m-305 47 2 13c31-7 56-10 74-10 19-1 37 3 52 12 28 16 42 60 42 133 0 11-3 26-8 43-26-30-60-60-102-89-49-35-113-64-190-88l-5 12c80 37 140 73 181 106 35 28 70 60 103 96-11 26-25 49-42 68-11-6-22-12-34-19-54-32-110-55-167-68l-1 14c51 20 99 44 145 72 6 3 14 9 24 16 5 3 9 6 12 8l-11 10c-24 21-58 42-103 62l8 11c43-15 80-32 111-52 7-5 12-10 17-15 5 5 13 11 23 19 11 9 18 15 23 19 21 19 35 33 41 42 3 7 4 15 1 25l9 4 55-40c5-9 4-13-4-14-13 2-27-3-44-15-23-21-50-42-80-63 9-10 18-20 26-31 32-47 48-97 48-150 3-95-35-158-112-191-3 27-34 47-94 60m532 296V682h163v120H667m-202 0V682h161v120H465Z"/></symbol><symbol id="𭫆_G" viewBox="0 0 1000 1000" data-size="21"><path transform="matrix(1 0 0 -1 28 980)" d="M637 79c-32-7-53-12-62-17s-19-13-30-24l-41 58 198 28v270h-93v-24c1-23-14-38-46-45 3 25 6 80 7 163v205c-3 16-9 30-18 41l15 12 33-45h102v197c1 11-8 24-26 41l7 11 84-33c9-3 11-7 6-11-12-3-21-9-28-18V701h81l31 40 50-48c5-4 6-7 5-10s-4-6-10-7l-18-9V488l4-86c3-25-12-40-45-43v35h-98V129l131 19c-1 1-2 3-3 6-1 4-2 7-3 8-17 29-46 68-89 115l9 11c91-69 142-131 151-186 5-28 4-47-3-56-6-10-15-14-27-11-10 1-15 16-16 43 0 16-3 32-10 48l-1 3-247-50M13 214 0 224c26 49 50 102 72 158 27 69 44 119 52 149 11 45 21 94 28 147H81c-17 0-32-4-44-12L4 698h155v206c0 15-9 31-27 49l6 7 87-35c9-4 11-7 6-10-13-6-23-13-29-21V698h28l24 39 55-45c7-5 9-9 7-12-2-2-8-3-18-2h-96V559c29-14 52-26 68-37 17-13 30-28 37-43 8-15 10-29 5-41-5-13-12-19-20-19s-14 9-19 28c-5 17-13 34-23 49-7 9-23 24-48 44V140l2-96c0-13-5-23-16-30-10-6-22-11-36-14 3 25 5 87 7 186v319c-6-18-12-35-18-50-21-55-41-99-60-134-17-32-40-68-68-107m285 358-11 9c37 37 73 83 108 138-27 58-59 112-96 161l9 12c41-45 76-92 106-143 20 34 38 70 54 108 4 15 6 26 5 33 0 7-2 14-6 21l5 9 66-30c6-4 9-7 10-10s0-4-5-5c-13-2-21-7-26-14-31-61-59-110-84-146 38-72 61-145 69-218 6-55 8-120 7-195-2-70-12-128-30-173-19-57-54-92-103-105-1 27-30 47-85 59l3 17c23-5 45-9 68-12 20-3 36 1 48 13 12 10 23 30 33 60 11 33 18 70 21 113 2 43 2 86 1 129 0 5 0 11-1 20-1 16-1 30-2 43-39-87-96-161-172-224l-11 10c69 75 127 174 173 297-9 43-23 88-42 135-27-35-65-72-112-112m447 109V414h98v267h-98m-136 0V414h93v267h-93Z"/></symbol><symbol id="𭫇_G" viewBox="0 0 1000 1000" data-size="21"><path transform="matrix(1 0 0 -1 25 976)" d="M726 918c3-2 5-4 5-7 0-2-2-4-6-6-9 2-20-3-31-15-14-42-34-91-59-146h208l29 37 61-45c5-4 8-7 7-9s-6-3-13-3H695V502h122l29 37 61-45c5-4 7-7 6-9s-5-3-12-3H695V291h158l29 37 61-45c5-4 8-7 7-9s-6-3-13-3H695V99l2-56c2-23-15-38-50-43 3 25 6 73 7 145v579h-29c-25-51-58-98-97-141l-8 10c49 80 89 168 120 265 10 36 14 58 11 65-2 7-5 14-9 20l8 7 76-32m-131 3c1-3 2-4 1-5s-3-2-6-2c-12-2-23-10-32-25-13-41-33-93-58-154V128l5-70c0-29-18-47-54-56 5 43 8 92 9 145v504c-26-47-54-89-84-128l-12 10c33 57 61 110 82 161 12 27 28 71 48 130 2 5 3 8 4 10 16 48 23 77 22 86-3 7-7 16-14 26l8 6 81-31M209 522c-1 15-9 30-25 45l8 11 82-37c12-5 14-10 7-14-12-3-22-9-31-16v-75h55l31 38 66-49c5-3 8-6 7-7s-5-2-13-2H250V85c-1-22-6-39-15-51-9-13-35-24-78-34-2 20-11 34-26 41-14 6-40 13-79 21l4 18 33-8c85-24 125-9 120 45v299H97c-17 0-32-4-44-13l-33 33h189v86m103 413 68-29c11-5 14-10 7-15-15 1-26-5-35-16-27-45-56-87-87-126 36-37 59-64 69-83 31-55 34-88 7-100-13-3-23 12-31 43-9 33-32 70-69 110l-1 1C173 643 97 582 13 537l-8 13c95 76 161 137 198 183 1 2 3 4 6 7s5 6 6 7c-38 39-90 85-157 139l6 10c75-45 133-85 173-121 22 29 39 54 50 73 18 29 27 47 26 55s-4 17-9 27l8 5M105 370l62-26c11-7 14-11 8-14-14 1-25-5-32-18-32-86-78-157-138-212l-5 9c34 53 60 101 79 144 19 41 28 68 28 82-2 8-6 17-11 27l9 8m174-16 9 7c65-49 103-95 113-139 7-35 0-54-22-56-10-1-16 11-19 34-1 18-8 41-22 68-13 28-32 57-59 86Z"/></symbol><symbol id="𭫈_J" viewBox="0 0 1000 1000" data-size="21"><path transform="matrix(1 0 0 -1 47 951)" d="M317 258c40 39 74 79 103 120v124H35l-10 25h395v242H75l-10 25h355v108c65-3 97-12 97-27 0-8-14-17-41-27v-54h248l50 64c27-23 50-46 68-68l-11-21H476V527h287l50 64c27-23 50-46 68-68l-11-21H476V357c39-39 68-67 89-84 41 57 70 123 87 199 60-15 90-29 90-43 0-9-14-15-42-19-7-17-15-33-24-47 46-18 82-39 107-61 23-20 34-39 34-57 0-20-9-29-26-29-15 0-28 9-37 27-17 34-47 67-91 98-22-33-48-62-76-87 86-70 192-125 318-163-19-16-34-35-44-58-91 37-167 78-230 126-54 41-106 92-155 154V0h-56v289C325 183 189 94 14 22L0 45c118 58 216 121 292 189h-5c-12 0-23 9-32 28-15 30-37 55-65 75-31-52-73-102-127-151l-19 16c63 78 107 168 133 270 61-15 91-29 91-43 0-9-14-15-43-19-6-17-14-34-24-52 45-17 76-33 93-48 16-14 24-29 24-45 0-3 0-6-1-7m-75 412c79-26 119-56 119-89 0-8-3-15-8-21-6-5-12-8-19-8-13 0-24 9-35 27-14 23-38 46-73 69-28-36-68-70-119-104l-17 18c58 55 100 119 127 191 54-15 82-29 82-40 0-9-14-15-41-18-2-4-5-8-8-14-4-6-7-9-8-11m404-22c-28-36-68-70-119-104l-17 18c58 55 101 119 127 191 55-15 82-29 82-40 0-9-13-15-41-18-2-4-5-8-9-14-3-6-6-9-7-11 75-25 112-54 112-86 0-8-3-15-8-21-6-5-12-8-19-8-13 0-24 9-35 27-14 24-36 46-66 66Z"/></symbol><symbol id="𭫉_S" viewBox="0 0 1000 1000" data-size="21"><path transform="matrix(1 0 0 -1 34 962)" d="m295 429-15 24-17 24-22 23-20 20V31L157 0v492l-27-71-21-45-21-43-25-42-27-40-28-38-8 5 38 86 34 88 31 91 11 47 12 48 10 50 5 33H4v21h153v236l64-10 15-11-15-9V682h23l53 52 63-52v-21H221V537l19-6 17-7 15-7 16-10 15-9 14-11 13-11 24-26 4-23-12-21-25-4-19 14-7 13m426-51 3 4 1-1 27 23 58-48-27-15-13-6-23-38-36-51-40-47-19-17 15-12 36-23 39-19 42-14 46-10 48-6 55-7-63-63-55 11-50 17-47 20-43 26-39 30-18 18-37-29-50-31-52-27-55-21-60-17-61-8-2 8 57 20 55 22 50 27 48 29 43 33 33 32-15 18-25 44-21 48-8 29-14-20-24-29-25-27-26-25-30-24-30-20-32-18-5 8 49 52 23 25 41 56 35 59 16 32 14 33 12 34 3 8 56-31 12-15-21-4-8-17-14-26h171m-10-22H537l-9-15 18-33 27-42 29-37 12-12 17 17 34 45 31 49 15 28m67 411 64-11 15-10-15-10V451l-64-31v62H440v-62l-62-32v379l62-11 16-10-16-10V504h338v263m-70-250-40 42-45 40-1 1-29-23-33-20-35-20-37-16-39-15-4 9 65 46 30 23 48 44-123 93 5 8 33-12 33-14 61-31 21-13 43 56 36 59 2 5 52-36 9-17h-21l-10-15-23-30-26-29-20-19 45-32 48-40 9-22-9-22-23-10-22 10M355 803v20h222v102l63-11 15-11-15-8v-72h105l52 53 63-53v-20H355Z"/></symbol><symbol id="𭫊_S" viewBox="0 0 1000 1000" data-size="21"><path transform="matrix(1 0 0 -1 47 959)" d="m460 11-3 5 3-5M274 431l-12 24-8 12-9 12-19 22-17 18V32L146 1v482l-23-60-19-45-21-44-22-42-26-40-27-38-8 5 52 129 29 90 14 45 10 48 11 47 9 50 6 34H4v21h142v236l63-10 16-11-16-9V683h13l52 52 63-52v-21H209V537l17-6 16-7 29-16 15-10 13-11 13-10 11-13 12-14 3-23-15-20-23-4-20 15-6 13m446 215H446V473h274v173M284 746v21h257v147l63-11 16-9-16-10V767h193l43 47 53-47v-21H284M462 8l-35 41-1-1v3l-6 6 6 3v183l-9-8-32-22-34-18-36-12-36-8-2 9 31 16 29 20 27 21 27 24 23 26 12 16v8h7l25 39 19 38 18 39 8 21h-57v-37l-62-31v315l62-32h274l31 26 58-47-27-21V441l-62-31v42H606l18-51 21-51 22-48 15-27 48 47 43 48 11 13 43-46 4-19-21 6-25-16-31-19-34-17-18-8-12-4 27-39 27-34 30-30 32-24 33-21 67-31-59-49-41 24-38 28-35 32-30 36-27 41-25 45-19 49-17 52-12 57-7 56h-26v-1l-20-45-24-42-24-38-14-17V79l-10-5 5 1 76 16 32 7 74 12 3-8-149-63-36-17-3-1-1-21-17 8Z"/></symbol><symbol id="𭫋_K" viewBox="0 0 1000 1000" data-size="21"><path transform="matrix(1 0 0 -1 64 936)" d="m872 781-10-14H0v20h415v42l-5 42 42-9c26-5 39-12 39-20 0-7-11-15-34-24v-31h320l23 30c6 9 11 13 13 13s9-4 19-13l40-36m-181-74c10-9 15-16 15-19 0-7-10-13-29-17v-46c0-21-1-32-1-33-2-3-9-8-24-15-7-2-12-3-14-3-4 0-6 5-5 14l2 19H227c0-11-1-17-1-18-2-4-11-9-25-14-6-2-10-3-12-3s-4 1-4 3c-1 3-1 8-1 15 0 12 1 20 1 25v89l-4 40 49-30h393l17 18c6 8 10 11 12 11s9-5 20-15l19-21m141-353c-1-17-20-27-59-30-4 0-30-1-76-1H205c-45 0-75 6-90 17-13 12-20 34-20 68v128l-3 42 57-31h521l15 17c7 10 13 14 16 14s10-4 20-14l27-25c9-8 14-16 14-21 0-8-11-15-32-21v-48c0-26 1-36 1-30 0-5-6-10-17-15-11-4-17-6-21-6s-6 4-6 10c0 22 1 31 1 30H137v-32c2-21 7-35 16-40 13-8 41-12 86-12h437c26 0 47 4 60 12 14 8 24 23 32 45l35 106 11-6-19-105c-2-22 3-34 14-37 14-4 22-9 23-15M635 627v67H227v-67h408m53-170v70H435v-70h253m-296 0v70H137v-70h255M872 55l-6-16c-16 2-33-2-52-13-2-13-6-20-12-20s-24 5-54 15c-109 34-208 97-296 190V47c0-16 0-26-1-27-2-9-9-14-20-16-6-3-10-4-13-4-5 0-8 2-9 7v18c1 13 1 22 1 25v135C318 103 184 42 8 2L1 14c174 46 301 115 382 206H0v20h410v31l-5 47 51-9c18-7 26-13 26-18s-10-11-30-17v-34h320l22 30c6 10 11 15 15 15 2 0 10-6 23-18l40-33-6-14H471C572 115 706 60 872 55Z"/></symbol><symbol id="𭫌_G" viewBox="0 0 1000 1000" data-size="21"><path transform="matrix(1 0 0 -1 27 965)" d="m232 397 67-26c9-5 11-9 6-12-11-4-19-10-25-18v-28h125l32 40 65-51c5-3 7-5 6-7-1-1-5-2-12-2H280v-34c34-10 65-22 92-37 32-17 55-38 70-65 13-24 13-41 0-50s-26 0-39 26c-15 28-34 51-59 68-16 13-37 26-64 40V99l2-56c0-13-4-23-12-29-7-6-20-11-38-14 3 25 5 68 7 130v110c-22-29-46-58-72-85-46-45-98-82-156-110L5 56c52 38 95 76 130 114 31 32 61 73 90 123H94c-17 0-32-4-44-13l-33 33h222v52c1 6-4 14-16 25l9 7M32 663l-4 11c55 15 102 33 142 52 25 13 51 28 76 44-47 21-102 40-165 59l5 12c72-13 135-30 188-51l2 1 3 3c35 27 65 58 90 92H145c-17 1-29-4-36-14l-31 29h289l28 28 42-40c4-4 6-7 6-9 0-3-2-4-6-5-11-3-19-5-23-8l-33-34c-19-18-43-37-70-58 47-24 82-47 106-68 19-19 23-36 12-51-10-14-25-8-46 18-21 27-54 52-99 77-2 0-3 1-4 2-26-17-56-33-89-47-47-21-100-35-159-43m202-258-4 12c60 23 108 51 144 86-31 21-59 38-84 51l6 12c38-13 70-27 97-42 21 24 41 55 60 92H340c-17 0-29-6-37-19l-30 34h176l27 28 43-36c4-4 6-7 6-9 0-3-2-4-6-5-3-2-8-5-14-8-5-3-8-5-9-6-10-6-19-17-27-32-8-14-22-33-43-57l8-5c24-15 44-34 60-59 12-23 12-38 0-45-13-9-28 1-44 28-14 23-30 43-48 59-47-41-103-67-168-79M8 385l-8 10c48 27 92 64 133 111-28 19-61 35-98 50l5 13c44-13 81-26 110-40 18 26 32 54 43 85H74c-17 0-29-6-36-19L7 629h182l23 28 43-36c7-7 6-12-1-14-4-3-9-6-14-10-3-2-5-3-6-4-5-6-12-16-21-30-11-19-22-36-33-51 21-12 37-25 48-40 12-16 12-29 1-38s-23-4-34 15c-9 12-21 25-36 38-45-47-95-81-151-102M426 57h192v817c1 10-7 23-26 39l7 11 86-32c9-3 11-7 6-11-13-3-23-8-30-16V554h138l29 39 70-47c5-3 7-6 5-8-3-2-9-3-18-4H661V57h170l35 46 72-53c7-5 9-9 7-11s-9-3-20-2H503c-17 1-33-4-46-13l-31 33Z"/></symbol><symbol id="𭫍_J" viewBox="0 0 1000 1000" data-size="21"><path transform="matrix(1 0 0 -1 33 948)" d="M378 584V408h93l42 60c21-23 37-45 50-66l-11-19H378V216h104l44 60c22-23 41-44 56-65l-12-20H378V0h-55v868c25-12 45-24 61-34h115l35 48c38-33 57-55 57-65 0-3-2-6-5-8l-26-18V528h-54v56H378m0 25h128v200H378V609M138 473C105 361 66 268 21 194L0 209c65 130 110 277 135 442H26l-8 25h120v220c62 0 93-7 93-21 0-8-13-17-39-27V676h29l39 68c21-27 37-52 48-73l-10-20H192V544c47-31 80-61 99-90 12-19 18-37 18-54 0-21-10-32-31-32-11 0-21 12-28 35-9 35-29 70-58 106V1h-54v472m626-229c-19 46-35 101-49 167-8 34-18 86-28 155h-16v-66c0-201-40-367-119-497l-23 13c59 112 88 273 88 484v372c2-2 8-5 17-10 22-11 38-21 46-28h138l48 56c24-20 45-40 63-61l-7-20H671V591h168l32 43c36-33 54-53 54-62 0-6-4-11-10-14l-20-11c-15-116-42-219-82-309 29-58 70-113 122-166-18-22-30-42-35-59-38 43-75 101-111 175-41-75-94-137-160-188l-15 18c61 58 111 134 150 226m21 57c24 72 43 160 57 265H713c4-29 11-62 20-99 14-62 31-117 52-166Z"/></symbol><symbol id="𭫎_J" viewBox="0 0 1000 1000" data-size="21"><path transform="matrix(1 0 0 -1 31 949)" d="M697 663h28l26 33c32-24 48-39 48-43 0-3-3-7-9-12l-12-10V335h-45v51h-44v-66h-46v368c18-6 36-15 54-25m-8-25V411h44v227h-44m-83 157h210l36 44c37-32 56-51 56-57 0-4-2-7-6-10l-23-18V157h-53v49H598v-51h-52v671c19-9 39-20 60-31m-8-25V230h228v540H598M438 224c32-39 76-70 132-94 68-29 151-44 251-45 31 0 70 2 117 6-14-19-25-40-32-63h-81c-106 2-194 19-265 51-62 27-109 62-140 105-37-71-85-133-144-184l-17 16c57 66 100 138 130 214-31 51-55 104-71 160l25 10c15-45 35-88 61-129 22 69 36 145 43 229h-70c-7-16-15-32-22-47l-49 13c51 113 91 222 121 327H305l-11 25h128l34 41c36-31 54-51 54-59 0-5-4-9-11-13l-23-13c-27-92-56-175-88-249h53l34 43c36-30 55-49 55-59 0-3-2-6-6-9l-22-15c-12-101-33-188-64-261M137 678v221c66-3 98-13 98-28 0-9-14-17-43-26V678h38l38 54c22-22 39-42 53-62l-10-17H192v-83c73-59 109-109 109-151 0-23-9-35-29-35-14 0-24 12-29 36-9 41-26 81-51 119V2h-55v474C109 376 70 284 22 201L0 215c57 118 101 264 133 438H21l-10 25h126Z"/></symbol><symbol id="𭫏_S" viewBox="0 0 1000 1000" data-size="21"><path transform="matrix(1 0 0 -1 32 961)" d="m303 428-7 12-8 13-10 12-20 23-33 33V31L162 0v496l-30-75-21-45-22-44-25-42-27-39-29-38-8 5 39 86 36 88 16 45 27 93 11 48 10 50 6 33H4v21h158v236l63-10 15-11-15-9V682h47l43 47 53-47v-21H225V537l20-6 18-7 15-7 17-9 29-21 26-23 11-14 5-23-13-21-24-4-19 13-7 13M846 63l-30 21-54 47-26 25-23 28-23 28-19 30-19 31V31L589 0v238l-31-41-28-30-29-27-31-27-33-23-35-21-37-17-39-16-4 9 33 23 32 25 29 25 27 26 27 27 23 28 23 30 20 32 19 33 5 10H342v21h247v109h-85v-38l-64-31v252h-93v22h93v114l64-11 16-10-16-9v-84h247v114l63-11 16-10-16-9v-84h26l32 36 42-36v-22H814V412l-63-31v53H630l22-4 16-11-16-10v-84h132l53 53 62-53v-21H653l67-67 51-45 52-39 57-34 56-28-60-47-30 19m-95 554H504V454h247v163M593 922l62-11 17-10-17-9v-60h105l53 53 62-53v-20H655V693l-62-32v151H376v20h217v90Z"/></symbol><symbol id="𭫐_S" viewBox="0 0 1000 1000" data-size="21"><path transform="matrix(1 0 0 -1 33 978)" d="M425 200V32L361 0v200H257v21h104v336l64-32h136v74H430l-32-16v194H272v22h126v157l63-11 16-10-16-9V799h100v157l63-11 16-10-16-9V799h100v157l63-11 16-10-16-9V799h26l52 52 64-52v-22H787V614l-11-5v-10h-21l-31-16v16H624v-74h131l32 27 58-47-27-22V221h20l43 48 53-48v-21H818V90h-63v110H425M818 90l-1-14-2-13-4-12-7-12-8-11-11-8-12-7-12-4-14-2-13-1v31l-84 16v15h84l6 1 5 1 5 2 2 2 2 5 1 4v7h63M286 434l-12 24-7 13-17 23-10 12-22 22-6 6V48l-64-31v484l-23-63-20-44-21-44-22-42-27-40-27-39-8 5 36 86 32 88 15 45 14 46 11 48 11 47 9 50 5 34H4v20h144v237l64-10 16-11-16-10V698h17l51 53 64-53v-20H212V553l17-6 17-6 15-8 15-10 15-9 25-22 24-25 4-25-15-19-23-4-20 15m275-81H425V221h136v132m194 0H624V221h131v132M561 505H425V373h136v132m194 0H624V373h131v132M561 620v157H461V620h100m63 157V620h100v157H624Z"/></symbol><symbol id="𭫑_S" viewBox="0 0 1000 1000" data-size="21"><path transform="matrix(1 0 0 -1 28 975)" d="m832 69-45 22-44 23-40 26-40 25-37 27-36 30-33 30-32 33-22 28V31L440 0v280l-8-10-36-35-40-32-41-31-44-28-46-26-50-24-52-22-55-19-57-16-3 9 54 25 97 54 45 27 42 30 40 29 36 32 34 32 31 35 5 5H25v22h415v71l63-10 16-10-16-10v-41h300l51 53 64-53v-22H519l93-63 76-45 83-41 42-19 126-47-60-51-47 20M385 938l62-51v-22H264l16-10 11-16-20-2-28-48-21-32-25-30-6-7h140l31 26 58-48-26-20V445l-63-31v53H188v-37l-62-32v251l-47-41-35-27-37-26-7 8 61 65 52 63 13 18v42l21-11 30 46 17 31 16 32 7 16H37v22h295l53 51m478 12 63-53v-21H542V769h276l33 26 57-48-26-20V571l-64-32v53H542V457h287l53 53 62-53v-20H542l-63-32v524l63-32h269l52 53M331 698H188V487h143v211m487 49H542V613h276v134Z"/></symbol><symbol id="𭫒_J" viewBox="0 0 1000 1000" data-size="21"><path transform="matrix(1 0 0 -1 40 952)" d="M197 749v76H21l-11 25h337l44 52c25-21 46-40 62-58l-14-19H249v-76h105l29 35c35-28 53-44 53-49 0-4-4-9-10-14l-13-11V507c0-43-24-65-73-65-1 13-7 23-20 29-11 5-30 10-57 14v19c39-3 64-5 76-5 15 0 22 8 22 24v201H249c-2-22-5-41-9-56 35-15 62-32 80-51 14-16 22-30 22-44 0-20-8-30-24-30-10 0-18 7-24 20-12 32-33 59-62 81-19-46-56-88-110-126l-19 15c60 57 92 120 94 191H97V433H44v340c24-8 44-16 60-24h93m449 0v76H481l-11 25h331l45 54c29-23 50-43 65-60l-13-19H698v-76h110l30 35c35-28 52-44 52-49 0-4-3-9-9-14l-14-11V507c0-43-24-65-72-65-1 13-8 23-21 29-10 5-29 10-56 14v19c38-3 64-5 76-5 14 0 21 8 21 24v201H698c-1-22-4-41-8-56 35-16 63-33 81-51 16-16 24-30 24-44 0-20-7-30-23-30-10 0-18 7-24 20-12 30-34 57-67 82-19-45-56-87-112-127l-19 15c61 57 94 121 96 191H543V433h-52v340c23-8 43-16 59-24h96M428 246C316 150 178 79 14 34L0 56c167 58 299 136 396 235H24l-11 25h415v106c68-5 101-14 101-28 0-11-15-20-45-27v-51h299l53 62c27-23 51-46 71-68l-11-19H507c117-86 254-146 414-179-20-19-36-39-48-60-161 50-291 125-389 224V0h-56v246Z"/></symbol><symbol id="𭫒_S" viewBox="0 0 1000 1000" data-size="21"><path transform="matrix(1 0 0 -1 38 965)" d="m817 76-45 27-43 28-41 29-40 32-38 35-35 35-33 37-30 40-26 39h-6V21L438 0v349l-16-23-35-43-38-41-41-37-43-35-47-33-49-30-53-26-54-23L4 38l-4 9 53 28 51 30 46 32 44 33 42 34 38 36 37 38 32 40 30 43 11 17H28v21h410v147l42-11 10-10-10-8V399h294l49 49-7-1-13-1v32l-63 15v16h63l7 1 3 1 5 2 2 2 2 5 1 3 1 7h63l-1-13-2-13-4-13-7-12-9-10-10-9-12-7-13-4 61-50v-21H502l62-58 38-31 37-29 39-29 41-26 41-25 43-23 44-21 78-34-60-49-48 23M409 530l-1-11-1-12-3-12-5-10-5-10-8-8-9-7-12-5-11-3-10-1v27l-62 13v13h62l3 1h3l1 1 1 1 1 2 1 3 1 5 1 5v8h53m-111 67-10 30-6 14-6 12-6 13-8 12-19 22-3 3-4-13-13-26-17-23-18-21-23-17-24-14-27-11-12-3v-92l-63-32v370l63-31h92v65H18v22h307l53 53 62-53v-22H257v-65h99l27 26 53-46-27-17V530h-53v240H255l-2-21-7-28 9-3 15-7 15-8 14-10 13-12 12-13 12-15 11-15 9-19-1-23-16-17h-25l-16 18m473 0-10 30-6 14-6 12-7 13-8 12-18 22-3 3-5-13-13-26-16-23-19-21-22-17-25-14-26-11-18-4v-94l-52-26v362l52-26h97v65H490v22h308l53 53 62-53v-22H729v-65h95l31 26 58-46-26-22V530h-63v62l-12-13h-25l-16 18M666 770h-97V590l9 6 21 15 17 18 15 17 12 20 9 20 7 22 5 22 2 26v14m-473 0h-91V593l24 18 18 18 14 17 12 20 10 20 7 22 4 22 2 26v14m631 0h-96l-2-21-7-28 9-3 14-7 15-8 14-10 13-12 13-13 12-15 10-15 5-10v142Z"/></symbol><symbol id="𭫓_J" viewBox="0 0 1000 1000" data-size="21"><path transform="matrix(1 0 0 -1 35 949)" d="M150 651H17l-8 25h143v221c67-4 101-14 101-28 0-9-15-18-46-27V676h51l44 61c24-24 43-46 57-67l-11-19H207V539c87-57 130-108 130-153 0-23-11-35-34-35-14 0-23 8-27 25-9 36-32 79-69 127V0h-55v477c-32-99-75-192-130-280L0 213c76 144 126 290 150 438m298-284v-36h-57v392c33-14 56-24 70-31h78c12 38 20 79 25 121H317l-11 25h496l51 61c25-21 48-44 68-67l-11-19H643c-24-48-47-88-71-121h189l38 45c41-31 61-50 61-59 0-4-2-7-7-10l-23-16V333h-58v34H637V63h184l48 65c23-23 43-46 60-70l-11-20H297l-12 25h295v304H448m0 177h324v123H448V544m0-25V392h324v127H448m38-428c-15 0-24 9-27 27-8 58-32 112-73 161l18 17c79-57 119-110 119-159 0-31-12-46-37-46m222-6-23 14c40 89 66 157 76 204 61-21 91-38 91-51 0-10-14-15-43-16-22-44-55-95-101-151Z"/></symbol><symbol id="𭫔_S" viewBox="0 0 1000 1000" data-size="21"><path transform="matrix(1 0 0 -1 35 966)" d="m823 79-46 25-43 26-41 27-39 30-38 30-35 32-33 33-30 36-23 31V31L433 0v314l-44-49-39-36-41-35-44-32-47-30-50-27-52-25-54-21L4 40l-4 9 104 56 47 30 44 31 42 31 40 34 36 36 35 36 30 39 8 11H18v21h415v81l62-10 16-10-16-10v-51h300l52 53 63-53v-21H509l96-75 77-51 82-46 43-22 123-54-60-48-47 22M172 600l-2 6-4 7-5 7-7 8-8 8-23 16-14 9h-2l-9-9-28-22-30-20-32-16-6 8 25 24 25 25 41 51 17 27 16 27 14 28 11 29 9 32 3 13H5v21h286l53 53 62-53v-21H229l-12-32-14-33-14-26h116l31 26 58-47-27-17-7-2-8-28-19-48-24-45-30-40-34-36-39-33-43-28-48-24-52-19-57-15-2 9 52 24 47 26 42 28 37 30 32 33 26 35 24 38 17 39 14 43 7 30H177l-31-43-22-26-5-5 11-1 16-2 14-4 14-4 13-5 11-7 12-6 10-9 9-11 1-23-15-20-24-1-18 15-1 6m660-121-59 42-25 22-22 22-21 22-16 22-12 23-10 22-2 11V442l-63-31v197l-23-23-29-24-31-23-35-21-36-21-39-17-42-17-45-14-3 9 77 46 66 47 29 23 27 25 24 24 21 25 17 26H400v21h202v104H496l-10-17-13-17-15-17-18-16-37-27-6 7 14 18 22 37 8 17 8 19 6 17 6 19 4 18 3 19 1 14h-1l3 15 60-19 14-13-20-8-7-23-9-21-1-2h94v102l63-11 16-10-16-9v-72h97l52 53 64-53v-20H665V694h123l53 53 63-53v-21H679l23-24 35-32 44-32 54-33 91-48-60-47-34 22Z"/></symbol><symbol id="𭫕_J" viewBox="0 0 1000 1000" data-size="21"><path transform="matrix(1 0 0 -1 41 950)" d="M150 653H15l-9 25h147v221c66-4 99-13 99-27 0-9-14-18-43-28V678h52l40 59c22-22 40-44 55-67l-10-17H209V546c42-25 76-54 101-87 20-26 30-49 30-69 0-24-12-36-35-36-13 0-22 11-28 33-10 39-33 81-68 127V2h-56v477C117 374 73 281 22 200L0 215c69 132 119 278 150 438m307-334v-41h-56v406c26-10 46-20 61-28h96v243c65-3 97-10 97-24 0-8-13-18-40-28v-70h172l46 60c26-23 48-45 65-66l-10-19H615v-96h125l33 42c40-31 60-52 60-62 0-3-2-6-6-9l-25-15V284h-56v35H457m0 238h289v74H457v-74m0-25v-79h289v79H457m0-104v-84h289v84H457M873 17c-10 0-22 8-37 23-45 46-111 87-199 122l12 22c170-37 256-80 256-131 0-24-11-36-32-36M281 0l-14 22c85 37 159 92 222 166 48-26 72-45 72-58 0-8-8-12-24-12-2 0-10 1-24 2C455 71 377 31 281 0m17 216-10 25h519l49 57c24-20 45-41 63-62l-10-20H298Z"/></symbol><symbol id="𭫖_S" viewBox="0 0 1000 1000" data-size="21"><path transform="matrix(1 0 0 -1 41 959)" d="m285 429-7 12-7 12-17 25-10 11-22 23-7 7V31L151 0v486l-24-64-20-45-21-44-23-42-27-40-27-38-9 5 55 129 30 90 14 45 11 48 11 48 10 49 5 34H5v21h146v236l64-10 15-11-15-9V682h17l53 52 64-52v-21H215V537l17-6 17-7 16-7 15-10 28-21 25-23 11-13 4-23-14-21-23-4-20 14-6 13m292-255 38-50 1-19-18 7-34-20-54-29-30-13-30-12-32-12-32-9-34-9-36-7-3 9 120 63 78 49 46 34 20 18M851 31l-14 15-16 15-37 29-43 28-77 44 3 9 31-6 30-8 28-9 26-9 25-11 23-13 23-12 20-13 19-16 17-15 8-23-10-21-23-8-22 10-11 14M614 908l63-11 15-10-15-10V650h118l31 27 58-47-27-22V210l-62-32v42H512v-36l-64-33v531l64-32h102v258m181-552H512V241h283v115m0 137H512V378h283v115m0 137H512V514h283v116M519 862l49-39 8-17-19 1-41-49-61-62-46-39-25-18-27-18-5 7 90 118 33 45 28 44 13 23 3 4m335-162-19 30-11 15-26 29-50 45-19 14 3 9 46-17 22-11 19-10 20-12 17-14 17-13 16-15 13-16 13-17 3-24-14-19-24-3-19 15-7 14Z"/></symbol><symbol id="𭫗_K" viewBox="0 0 1000 1000" data-size="21"><path transform="matrix(1 0 0 -1 58 932)" d="m326 646-5-13H184V531c72-38 111-75 118-113 0-31-8-46-23-46-6 0-16 15-30 45-15 36-24 56-26 60-12 14-25 26-39 35V22c-1-4-8-10-21-16-7-4-12-6-16-6s-6 4-6 13v457c-37-99-81-185-131-259l-10 9c64 118 110 256 137 413H6v20h135v168l-2 42 47-11c17-6 26-11 26-16 0-6-10-13-28-21V653h45l20 28c10 13 16 20 20 20 2 0 10-7 22-20l35-35m418-145v86H590v-86h154m0-105v85H590v-85h154m140 94-6-9h-92v-85c1-25 0-38-1-39 0 0-8-3-21-11-4-2-9-3-14-5-4 0-6 4-7 13 1 5 1 12 1 21H590v-70c14-28 32-52 54-75l139 102 29-28c9-10 14-18 14-23 0-4-3-6-11-6-5 0-14 2-26 4l-138-62c78-63 151-108 218-136l-5-10c-4 2-9 3-13 3-11 0-20-4-27-13-7-10-12-15-15-15-6 0-16 7-31 20-83 66-146 132-188 201V94c0-40-12-66-36-79L526 5c-6-1-11-2-15-2-9 0-13 4-13 12v8c0 12-5 20-15 23l-57 20 4 8 84-17c5-2 9-2 12-2 13 0 20 16 19 49v88L343 84c1-6 2-11 2-15 0-11-4-16-12-16-5 0-10 4-16 11l-28 46 256 101 1 164H354v21h192v85H295v20h251v86H347v20h199v85H304v18h242v77c-50-2-111-2-185-1v13c177 5 303 26 379 61l31-25c11-9 16-16 16-21 0-8-15-9-46-3-52-12-102-19-151-21v-80h201l16 23c7 11 12 17 14 17 3 0 11-6 25-17l38-30-8-11H590v-85h140l10 15c7 10 13 16 17 16 2 0 8-4 16-11l21-18c9-7 14-13 14-17 0-3-8-8-22-16v-75h13l17 26c8 11 14 17 17 17s10-7 21-20l30-34M474 260c2-20-1-31-10-33-8-3-17 3-26 19-12 18-26 32-41 42-14 11-31 21-50 29l5 13c50-14 82-25 94-33 13-7 22-20 28-37Z"/></symbol><symbol id="𭫘_J" viewBox="0 0 1000 1000" data-size="21"><path transform="matrix(1 0 0 -1 42 949)" d="M635 463c-26-32-61-63-105-93l-16 15c46 45 80 99 103 161 51-12 77-23 77-33 0-9-12-14-36-16-5-8-9-14-12-19 37-10 66-22 86-36 18-12 27-24 27-36 0-19-9-29-25-29-11 0-20 6-27 19-15 25-39 47-72 67M386 332H13L2 357h418v201H71l-11 25h360v196H59l-11 25h372v94c68-3 102-12 102-27 0-9-15-18-44-28v-39h274l50 66c27-26 50-49 67-71l-12-20H478V583h268l48 61c25-21 47-43 65-66l-12-20H478V357h315l51 67c28-24 52-48 72-72l-12-20H492c60-56 130-101 209-137 60-27 130-51 212-72-23-19-40-40-50-64-167 59-295 141-385 247V0h-58v282C310 179 175 100 14 45L0 67c169 72 298 161 386 265M255 685c-24-31-58-62-102-93l-15 14c48 52 81 105 100 162 50-13 75-24 75-33s-12-15-35-16l-12-19c35-10 62-22 82-36 17-12 25-24 25-36 0-19-8-28-24-28-11 0-20 6-27 19-13 22-35 44-67 66m365 0c-23-31-57-62-102-93l-15 14c46 50 79 103 100 162 50-13 75-24 75-33s-11-15-35-16l-12-19c35-10 62-22 82-36 16-12 25-24 25-36 0-19-8-28-24-28-11 0-20 6-27 19-13 22-35 44-67 66M249 463c-26-33-62-64-106-93l-16 15c49 51 84 104 104 161 52-12 78-23 78-33 0-9-12-14-37-16-5-8-9-14-12-19 37-10 66-22 87-36 18-12 27-24 27-36 0-19-8-29-25-29-12 0-21 6-28 19-15 25-39 47-72 67Z"/></symbol><symbol id="𭫙_G" viewBox="0 0 1000 1000" data-size="21"><path transform="matrix(1 0 0 -1 20 974)" d="M470 673h217v170c-55-7-114-13-175-17v19c77 10 139 21 188 33 47 11 76 19 88 24 9 3 17 7 22 12 1 1 3 2 4 3 5 3 9 10 13 20l7 2 55-49c5-5 8-10 8-13s-3-5-8-6c-27 7-61 4-104-9-4-1-10-2-17-4-15-4-29-7-40-9V673h109l36 44 64-45c7-5 10-10 8-13s-8-5-19-6H728V476h83l39 38 45-46c5-4 6-7 5-10s-4-6-10-7l-19-8V227l4-47c-1-12-6-20-14-24-9-5-19-7-31-8v74H594v-55c0-13-4-23-12-29-7-5-19-10-36-14 3 25 5 72 7 142v195c1 11-6 23-19 36l12 16 37-37h104v177H547c-17 0-32-4-44-13l-33 33M13 215 0 225c31 52 55 105 73 158 3 8 6 20 11 36 17 50 28 86 33 108 11 51 19 98 24 142H82c-17 0-32-4-44-13L5 689h148v202c0 13-9 29-27 48l6 9 83-35c9-3 11-7 6-11-13-6-23-13-29-21V689h57l27 37 62-47c5-4 7-7 6-9-1-1-4-2-11-1H192v-87c4-3 10-6 17-11 19-11 30-18 35-23 11-13 20-24 27-35 7-12 9-25 7-39-2-15-9-23-21-23-11 1-18 10-21 28-3 17-8 32-14 45-8 11-18 23-30 35V140l2-95c0-14-4-24-13-31-7-5-19-10-35-14 3 19 5 81 7 186v319c-1-3-3-9-4-16-2-7-5-17-10-31-15-45-33-89-54-133-16-34-40-71-72-110m817 241H594V242h236v214M309 18l-37 43c49 37 88 63 116 76 4 2 8 4 13 5v393h-58c-17-1-29-6-35-13l-23 31h101l36 30 42-46c4-4 6-7 5-10s-4-5-9-6l-20-7V133l1-1c7-7 18-15 31-26 3-3 6-5 7-6 12-7 26-15 43-22 17-8 47-15 90-20l79-6c111-2 200 1 268 10V46c-30-4-49-8-57-12s-14-12-19-23L709 9c-92 6-153 15-182 28-32 13-57 29-74 49-18 22-35 31-52 27-16-5-30-13-42-25-11-11-28-35-50-70m-6 865 8 12c1-1 3-2 6-3 35-18 58-31 68-40 19-15 33-32 43-53 10-22 14-40 12-54-1-17-7-26-17-27-12-2-20 8-24 29-5 23-12 44-22 63-12 21-37 45-74 73Z"/></symbol><symbol id="𭫚_J" viewBox="0 0 1000 1000" data-size="21"><path transform="matrix(1 0 0 -1 38 950)" d="M564 556c61-31 91-67 91-110 0-24-9-36-28-36-13 0-22 9-25 28-5 32-20 63-46 93-27-77-65-142-113-196l-17 18c58 98 96 211 114 341 50-14 75-27 75-39 0-9-10-14-30-16-6-28-13-56-21-83m-411-70C115 366 71 268 21 193L0 209c66 123 115 270 149 442H26l-9 25h136v220c63 0 95-7 95-22 0-9-13-18-39-28V676h30l37 68c20-24 36-48 48-72l-10-21H209V521c16-12 32-25 46-37 67 113 119 252 156 417 54-14 80-29 80-44 0-11-12-17-35-17-18-65-40-126-66-185 33-5 50-13 50-22 0-7-10-15-29-24V0h-54v590c-26-48-53-89-83-125 16-17 28-33 35-46 10-18 15-35 15-52 0-25-10-38-30-38-13 0-23 11-29 34-10 39-29 80-56 122V0h-56v486m482 260v153c59-1 89-8 89-22 0-5-2-10-7-13-4-3-12-8-25-13V746h99l47 57c23-19 44-40 62-63l-7-19H460l-8 25h183m137-188c74-43 111-87 111-131 0-24-9-36-27-36-15 0-25 10-30 29-11 44-31 82-62 115-21-59-51-109-89-151l-18 16c47 84 76 183 89 296 51-13 76-26 76-37 0-10-9-15-28-16-6-32-14-60-22-85M634 254H432l-10 25h212v98c56-3 84-10 84-22 0-8-9-15-26-21v-55h115l52 59c27-25 49-46 65-65l-7-19H692V0h-58v254Z"/></symbol><symbol id="𭫛_K" viewBox="0 0 1000 1000" data-size="21"><path transform="matrix(1 0 0 -1 51 944)" d="M526 292h75v139h-73v21h73v136l-6 44 49-24h120l9 11c8 7 12 11 13 11 2 0 7-3 15-10l27-26c7-6 11-11 11-14 0-4-9-10-27-17V452h10l25 28c4 6 7 8 8 8 4 0 8-3 12-9l28-34-5-14h-78V292h10l22 36c4 6 8 9 10 9 3 0 8-4 14-12l30-40-5-13h-81V52c-2-7-9-15-22-24l-19-8c-6-5-11-7-14-7s-5 6-6 17c-1 9-4 15-10 19l-49 15 2 10 41-5c18-2 29 6 33 23 0 4 1 20 1 48v132H644V119c0-56-1-86-1-89s-7-9-21-17c-6-3-11-4-13-4-5 0-8 7-8 22v241h-75v20m44 397-7-12H394c16-7 24-13 24-19s-8-11-25-16c0-53-2-93-6-121h66l8 13c6 7 10 10 13 10s9-5 19-14l22-20c8-9 12-16 12-20 0-3-2-6-7-9-8-2-16-5-23-8 1-153-8-269-27-346-14-54-36-90-67-108L376 4c-8-3-15-4-20-4-7 0-11 3-11 9v17c-1 9-6 16-15 21l-62 26 3 8 80-18c7-1 14-2 20-2 27 0 47 30 60 90 18 88 26 205 23 350h-68c-11-126-31-226-62-300-28-71-74-136-136-194l-11 12c73 84 122 180 146 290 20 85 29 208 27 368h-56v21h103v143l-4 38 50-13c16-4 24-8 24-12 0-7-9-13-26-18V698h41l17 22c10 10 17 15 19 15 3 0 10-5 20-15l32-31m-276-15-5-11H159V529c30-16 54-29 70-40 26-17 41-36 46-58 5-32-1-47-17-47-11 0-19 10-26 31-21 48-45 80-73 99V62c0-25 0-38-1-40 0-1-6-7-18-15-9-5-16-7-19-7-4 0-6 5-6 15v407C82 342 47 281 10 240l-10 9c27 36 52 95 75 175 24 83 37 162 40 239H15v21h100v162l-2 43 48-12c20-5 29-10 29-17 0-6-10-13-31-21V684h39l26 27c9 11 14 17 16 17s8-6 19-17l35-37m602 16-4-11H605c-17-30-29-50-36-61-14-23-29-43-44-61l-11 8c26 41 50 92 71 153 21 60 33 113 35 157l54-20c14-5 20-10 20-14 0-6-10-12-32-17-14-47-30-89-46-124h179l20 27c10 12 17 18 20 18s11-7 26-20l35-35M769 292v139H644V292h125m0 160v136H644V452h125Z"/></symbol><symbol id="𭫜_J" viewBox="0 0 1000 1000" data-size="21"><path transform="matrix(1 0 0 -1 38 948)" d="M550 134V81h-53v240c27-10 46-18 58-24h115l29 34c37-26 56-42 56-50 0-4-3-8-9-12l-17-12V99h-51v35H550m0 25h128v113H550V159M152 651H22l-9 25h140v221c67-3 101-13 101-28 0-10-15-19-45-28V676h45l43 60c22-23 40-45 55-67l-12-18H209V540c76-57 114-111 114-162 0-23-10-34-30-34-12 0-21 12-27 37-11 41-30 82-57 124V0h-56v477C115 371 71 279 21 199L0 213c72 137 122 283 152 438m431-10H371l-10 25h465l34 46c43-41 65-68 65-80 0-5-4-8-10-9l-30-7c-42-44-86-81-130-111l-16 18c37 42 66 81 89 118H677V491c0-52-26-77-78-76 0 12-7 21-22 27-11 5-30 9-57 14v27c21-3 42-4 64-4 28 0 42 10 42 29v101c-85-67-186-118-304-154l-11 23c103 36 194 91 272 163m58 99c36 24 69 51 100 80H405l-10 25h354l34 41c47-35 70-59 70-73 0-4-4-7-11-8l-29-4c-35-22-84-47-145-74 15-10 23-20 23-31 0-19-8-29-24-29-8 0-18 4-29 11-54 36-112 61-175 74l8 21c75-7 131-18 170-33M413 402h408l33 40c42-31 63-50 63-58 0-3-4-8-11-13l-22-14V86c0-50-27-75-80-75 0 26-31 44-93 52l3 26c26-4 50-6 73-6 27 0 41 9 41 27v267H409V0h-56v431c30-13 50-23 60-29Z"/></symbol></svg>