<svg xmlns="http://www.w3.org/2000/svg"><symbol id="𭿜_J" viewBox="0 0 1000 1000" data-size="21"><path transform="matrix(1 0 0 -1 66 949)" d="M387 218v474c15-6 35-16 60-29h220l33 38c14-10 23-16 26-19 15 24 27 47 35 70H372c2-48-6-85-24-113-10-17-22-25-35-25-9 0-18 4-25 11s-11 14-11 21c0 10 5 19 15 29 30 33 46 80 47 143l25-4c3-12 5-24 6-37h161v121c66-3 99-12 99-27 0-8-14-16-42-25v-69h169l36 48c45-41 67-67 67-78 0-5-3-8-9-9l-30-6c-19-23-44-46-74-68 9-8 13-14 13-18s-3-7-7-10l-23-14V218h41l44 60c22-24 40-45 52-65l-11-20H274l-8 25h121m55 0h233v96H442v-96m0 420v-87h233v87H442m0-112v-79h233v79H442m0-104v-83h233v83H442M196 187H54V87H0v742c8-4 29-14 64-32h123l37 48c38-31 57-51 57-60 0-4-3-7-8-10l-25-16V125h-52v62m0 424v161H54V611h142m0-25H54V417h142v169m0-194H54V212h142v180M824 10c-9 0-20 8-34 24-38 44-98 84-179 118l12 20c155-39 233-82 233-128 0-23-11-34-32-34M240 0l-14 22c88 32 162 82 223 151 45-25 68-44 68-57 0-7-8-11-24-11-2 0-9 1-22 2C403 60 326 25 240 0Z"/></symbol><symbol id="𭿝_G" viewBox="0 0 1000 1000" data-size="21"><path transform="matrix(1 0 0 -1 44 949)" d="M295 553h487l32 40 66-48c5-3 7-6 6-8-1-1-5-2-12-2H372c-18 0-33-4-44-13l-33 31m311-218v-88h151v88H606m151 102H606v-88h151v88m-344 0v-88h152v88H413m0-102v-88h152v88H413m326 509H426v-90h313v90M426 739v-90h313v90H426M57 801V600h148v201H57m0-217V380h148v204H57m0-220V158h148v206H57m324 533 40-37h300l38 38 46-42c5-4 6-8 5-11s-5-5-12-6l-18-9V701l3-70c-1-13-5-21-12-24-8-5-19-8-32-8v34H426v-12c1-11-3-20-12-25-11-7-23-12-36-13 3 23 5 60 7 109v153c1 13-4 25-16 36l12 16M280 30h285v92H417c-17 2-32-2-44-12l-33 28h225v93H413v-12c0-14-4-24-12-30-7-7-19-11-36-13 3 17 5 53 7 109v157c2 12-2 23-13 33l11 16 39-38h329l38 38 46-42c4-4 6-8 5-11s-4-5-10-6l-19-8V307l4-69c-1-12-6-20-14-24-8-5-18-8-31-8v25H606v-93h144l34 41 65-46c5-3 7-6 6-8s-5-3-12-3H606V30h202l32 39 67-47c5-3 6-6 5-7-1-2-4-3-11-3H356c-17 1-32-3-45-12l-31 30M14 864l37-43h138l34 39 47-48c4-4 5-7 4-10s-4-5-10-6l-18-9V212l5-109c4-26-11-40-46-43v79H57V67c1-25-14-40-46-45 3 26 5 78 6 155v634c-3 16-8 30-17 41l14 12Z"/></symbol><symbol id="𭿞_S" viewBox="0 0 1000 1000" data-size="21"><path transform="matrix(1 0 0 -1 60 954)" d="m359 634 63-31h310l32 26 57-47-26-21V307l-63-32v42H609V213h156l51 53 64-53v-21H609V31L546 0v192H274v21h272v104H422v-15l-63-32v364M0 849l63-32h124l32 27 57-47-26-22V175l-63-32v63H63v-63L0 111v738m187-438H63V227h124v184m359 38H422V338h124v111m186 0H609V338h123v111M187 604H63V432h124v172m359-22H422V471h124v111m186 0H609V471h123v111M187 797H63V625h124v172m133 110 64-31h104l30 26 54-48-25-18V680l-59-29v39H384v-15l-64-31v263m287-3 58-28h103l32 26 57-48-26-20V680l-63-32v42H665v-15l-58-29v258m161-50H665V711h103v143m-280 0H384V711h104v143Z"/></symbol><symbol id="𭿟_K" viewBox="0 0 1000 1000" data-size="21"><path transform="matrix(1 0 0 -1 58 941)" d="M736 758H379v-83h357v83m69 17c19-16 28-26 25-31-4-7-19-10-46-10V448c1-9 1-14 0-17-2-5-9-10-19-14-14-2-23-1-27 4-2 3-3 8-2 16v4H595c8-5 10-9 6-12-3-4-9-6-17-8V192h208l36 36 46-36c9-5 12-10 8-14-3-2-10-4-20-4H584V34c1-8 1-14-2-18-3-5-11-9-23-13-11-3-18-3-21 0-3 2-5 9-5 19l2 8v144H339l-84-4-14 22h294v249H379v-10c0-5-1-9-2-12-3-4-8-7-17-11-14-4-23-4-27 0-3 1-4 8-4 19l2 10v289l-6 81 56-30h126c6 16 14 31 22 46 7 14 17 33 30 59l42-15c24-9 32-16 26-20-5-3-17-4-36-4l-7-6c-16-16-27-27-33-34-7-9-14-18-20-26h184l40 36 50-38m17-491v-23H633v23h189m0 73v-22H633v22h189m-333 0v-22H293v22h196m0-73v-23H293v23h196M4 807l-4 52 46-30h124l34 28 36-32c18-12 24-20 18-25-5-5-14-7-27-7V139c0-17-1-28-2-32-2-5-7-10-17-15-14-3-22-1-25 5-2 4-3 15-2 33v21H50v-40c0-20-1-31-4-35-1-7-5-13-12-17-15-3-24-2-28 2-3 4-4 12-4 23l2 10v713m46 6V623h135v190H50m0-205V399h135v209H50m0-225V168h135v215H50m686 271H379v-83h357v83m0-103H379v-86h357v86Z"/></symbol><symbol id="𭿠_G" viewBox="0 0 1000 1000" data-size="21"><path transform="matrix(1 0 0 -1 21 973)" d="M159 438V338h205v100H159m0-116V218h205v104H159m0-120V98h205v104H159m360 616c2 14-5 28-20 42l9 11 73-36c10-3 12-7 7-12-13-2-24-8-32-17V671h130v223c1 11-7 24-24 41l8 10 76-32c9-3 11-7 6-11-11-2-20-8-27-17V671h133v142c1 9-8 24-29 45l9 11 81-33c9-3 11-7 6-11-13-4-23-11-29-20v-64l5-96c1-22-14-37-43-44v50H571l-33-37-47 38c18 15 27 27 28 36v130m89-718h224v225H608V100M458 531h412l27 37 53-47c5-3 8-6 7-8-1-1-5-2-13-2H685c-23-61-50-117-81-166h210l36 37 45-46c5-3 6-7 5-10s-5-5-11-6l-18-9V204l3-153c6-18-8-29-42-32v61H608V39c3-22-12-35-46-38 3 23 6 71 7 144v149c-44-59-96-110-155-154l-9 12c65 60 117 124 157 193-3 8-7 16-12 24l10 9 14-13c20 35 41 83 63 146H536c-18 1-33-4-44-13l-34 33M36 721h159c1 3 2 9 3 16 9 43 16 77 19 101-83-7-138-11-165-11l-1 13c80 10 136 19 167 26 45 8 76 14 93 19 19 4 33 8 41 13 4 3 8 10 12 21l9 1 49-52c6-6 9-11 8-14 0-3-3-5-9-6-23 11-58 12-107 1-16-3-30-4-41-5-4-1-8-1-12-2-5-33-12-74-23-121h111l29 39 59-44c6-5 8-9 6-12-1-2-7-3-16-2H233c-9-40-21-78-34-113h175l30 39 58-44c7-5 9-9 7-12-1-2-7-3-17-2H192c-10-28-26-64-49-108l5-4h199l33 39 44-47c5-4 6-7 5-10s-4-5-9-6l-18-9V162l4-109c5-27-9-41-42-43v68H159V45c2-25-13-40-46-45 3 41 5 92 6 154v265C87 364 50 315 7 271l-7 10c64 91 114 187 151 289H82c-17 0-31-4-42-11l-30 30h147c12 35 23 73 33 113h-82c-18 0-32-4-41-11l-31 30Z"/></symbol><symbol id="𭿡_G" viewBox="0 0 1000 1000" data-size="21"><path transform="matrix(1 0 0 -1 19 966)" d="M153 457V357h167v100H153m0-116V237h167v104H153m0-120V117h167v104H153m338 328c0-59-1-112-4-157h100v246h-96v-89m359 382 52-40c5-3 7-6 7-9 0-2-2-4-7-5-15 3-32-2-52-15s-61-34-122-62V618h142l26 33 59-41c5-4 7-7 6-9s-5-3-12-3h-99V105l4-56c3-22-13-36-48-43 4 24 7 72 8 145v447h-86v-24c6-257-51-446-170-569l-10 10c57 85 95 166 114 243 20 77 30 182 29 317v234c-3 16-11 29-24 40l13 10 38-41c43 25 71 43 86 55 38 25 51 43 38 52l8 6m-252-6 53-40c5-3 7-6 7-9 0-2-2-3-7-4-13 3-32-2-55-15-20-13-55-29-105-49V658h78l35 34 42-42c5-4 6-7 5-10s-4-5-11-6l-19-9V434l5-73c-1-19-14-29-39-30v41H485c-7-145-48-269-121-372l-11 8c41 81 68 159 81 235 15 72 22 176 21 312v258c-3 17-11 31-22 40l10 10 38-39c35 17 59 31 73 43 37 25 49 43 36 52l8 6M52 737h128c7 34 12 71 16 110-36-5-81-9-136-12l-1 13c72 10 142 24 209 41 17 4 32 9 44 16 3 3 7 10 11 21l7 1 41-47c5-6 8-11 7-15 0-3-3-5-8-5-17 8-49 7-96-2-13-2-26-4-38-6-5-41-10-79-17-115h86l26 37 57-44c7-6 9-10 7-11-1-2-6-2-15-1H216c-8-39-17-76-27-111h139l28 37 56-44c7-5 10-9 9-11s-7-2-18-1H183c-13-38-27-74-43-107l5-5h158l32 39 42-46c4-4 6-8 5-11 0-3-3-4-8-5l-17-9V203l3-109c5-27-9-41-40-43v46H153V64c2-25-12-40-42-45 3 41 5 93 6 154v262C86 380 49 330 8 285l-8 9c64 91 112 189 144 294H93c-17 0-31-4-40-11l-29 30h126c10 35 19 72 26 111h-54c-16 0-30-4-41-11l-29 30Z"/></symbol><symbol id="𭿢_K" viewBox="0 0 1000 1000" data-size="21"><path transform="matrix(1 0 0 -1 67 932)" d="M554 741c7-4 9-8 8-12-3-3-10-5-21-5H404V621h61l30 35 40-30c5-4 7-8 5-13-1-4-7-7-18-7H312l-67-3-9 22 61-4h66v103h-76l-54-5-8 24 52-4h86v78l-3 45 51-14c21-6 29-12 24-19-5-5-15-10-31-14v-76h78l31 34 41-32M865 55c-10-2-21-8-32-17-7-6-14-15-21-24-25 24-49 55-73 90-22 33-40 65-54 96-42-46-82-84-121-114-48-37-100-66-156-86l-4 9c50 25 98 58 144 100 42 38 81 80 115 127-21 41-39 82-52 125-15 48-24 97-29 149l-41-5-11 22 46-1h82v155h-70l-55-5-12 21 55-2h82v127l-4 42 61-14c15-5 20-10 13-17-6-4-14-8-25-12V695h71l34 42 46-38c7-6 9-10 5-13-2-4-8-5-16-5H702V526h59l27 31 42-35c13-11 18-20 16-25-2-6-12-9-30-11-16-55-31-101-46-138-19-45-41-83-66-117 20-32 44-64 72-94 29-30 59-55 89-74v-8M514 518c13-11 16-18 10-23-3-2-10-4-20-4V353c1-13 1-22 0-27-3-6-9-11-18-14-12-3-20-2-23 2-2 3-3 9-3 17l1 4H315v-7c1-6 0-11-2-15s-9-8-19-12c-10-5-16-4-20 1-2 2-3 9-3 18l1 11v165l-1 51 46-26h139l28 23 30-26m-35-371L287 63l-2-6c-2-15-4-23-8-25s-11 5-21 24l-25 41 11 3c30 7 54 13 72 18 30 8 60 17 88 27l30 155 45-13c16-6 23-12 20-16-2-4-12-8-29-11l-45-110c12 4 25 8 39 12 9 3 23 8 41 15l50 15 2-11-76-34m-125 1c-8-11-14-16-18-15-5 0-9 7-13 20l-1 1c-4 18-8 33-11 46-9 24-19 49-32 73l8 5c33-30 54-56 64-78 7-16 8-33 3-52m245 362c7-48 19-92 33-134 14-38 31-76 52-111 19 33 37 71 52 113 16 44 28 88 35 132H599m-139-5H315V351h145v154M49 804V613h108v191H49m0-208V390h108v206H49m0-224V150h108v222H49m134 475 41-32c5-5 7-9 4-13-4-4-13-9-27-16V99c1-10 0-16-2-19s-10-7-22-13c-11-4-18-4-20-2s-2 10-2 22l2 27v21H49V96l1-15c0-6 0-10-2-13-3-2-10-6-22-10-11-4-18-5-20-2-2 2-3 9-2 21l2 27v689l-6 51 47-26h100l36 29Z"/></symbol><symbol id="𭿣_K" viewBox="0 0 1000 1000" data-size="21"><path transform="matrix(1 0 0 -1 52 940)" d="M392 680V563h86v117h-86m379-117v117h-83V563h83M646 680H519V563h127v117m-127 82v-68h127v68H519m127-299v86H518v-86h128m-169 0v86h-85v-25c-3-5-10-9-20-11-14-4-22-4-26 0-2 1-2 6-2 15l2 10v136l-4 50 52-30h84v68H372c-13 0-24-1-34-2h-23l-9-2-14 21 62-2h124v59c0 5-1 11-2 18 0 10-1 17-2 24l57-16c20-4 29-8 27-12-2-6-15-10-39-14v-59h127v65l-2 12c-2 11-3 19-4 26l64-16c13-4 18-8 14-12s-14-8-30-10v-65h99l36 38 52-36c8-5 10-9 6-13-3-3-9-4-18-4H688v-68h69l27 28 40-29c18-14 23-24 17-30-5-3-13-5-26-5V538c1-10 0-16-2-18-3-5-11-9-23-13-10-1-15 0-17 4-3 2-4 9-2 20v18h-83v-86h108l40 33 48-35c12-10 14-19 9-25-6-4-18-7-39-8l-72-64c9-8 10-15 4-19-4-5-14-8-29-8V20h30l42 42 57-38c4-4 6-8 5-12-2-5-8-8-18-8H314l-69-4-17 26 84-6h66v334l-2 45 54-24h261l36 33 42-31 42 68H334c0-22-2-41-7-58-7-25-18-47-33-65-12-10-22-14-30-10-10 3-14 17-11 42 0 5 2 10 5 14 1 3 5 8 12 13 14 12 23 25 28 38 11 22 18 52 20 89h15l1-14c3-11 4-21 4-31h139m-47-106V256h276v101H430m0-118V133h276v106H430m0-219h276v94H430V20M4 799l-4 52 46-31h124l34 29 36-33c18-11 24-19 18-24-5-5-14-8-27-8V131c0-18-1-28-2-32-2-6-7-10-17-15-14-3-22-2-25 5-2 4-3 15-2 32v22H50v-40c0-20-1-32-4-36-1-7-5-12-12-16-15-3-24-3-28 2-3 4-4 11-4 22l2 11v713m46 6V614h135v191H50m0-205V391h135v209H50m0-225V159h135v216H50Z"/></symbol><symbol id="𭿤_S" viewBox="0 0 1000 1000" data-size="21"><path transform="matrix(1 0 0 -1 36 964)" d="m635 84-1-13-2-12-4-13-7-13-9-10-10-8-12-7-13-4-14-2-12-2v32L446 48v15h111l5 2 4 1 2 2 2 5 1 5 1 6h63M309 71l-2 4-2 3-2 5-8 14v1l-10 20-1 1-3 6 111 46 57 21 58 20 30 9 31 8 4-9-53-33L328 79l-3-19-15 8-1 3m442 306 16-24 23-26 1-17-20 7-107-47-17-6-12-6v-33l17-2 34-7 31-9 31-9 28-10 28-12 26-13 24-14 23-13 21-17 11-21-8-23-21-10-23 7-35 32-41 29-49 28-97 47V84h-63v342l63-11 15-11-15-8V271l29 30 63 55 24 21M281 125l29-57-38 53 9 4M0 857l63-31h135l32 27 58-47-26-22V184l-64-33v64H63v-64L0 120v737m198-437H63V235h135v185m638-64-31 18-30 18-30 20-54 46-25 26-23 28-22 29-1 2-35-40-29-29-31-27-33-25-34-24-36-19-24-13 49-17 30-15 12-8 13-9 10-9 9-10 9-11v-24l-16-17-24-1-18 17v6l-3 7-4 9-6 9-8 11-20 21-26 25-16 10 2 2-45-17-41-13-4 9 70 44 64 47 29 25 28 26 27 29 23 28 23 31 10 14v186H308v21h267v136l63-10 15-11-15-10V792h147l53 52 62-52v-21H638V571h-3l4-4 7-17h-1l47-37 28-21 55-35 58-28 29-12 31-10 36-13-61-52-32 14M198 612H63V440h135v172m302-39-3 9-4 9-4 10-11 20-18 26-18-39-14-26-17-24-18-24-20-22-22-20-25-18-7 6 32 49 13 25 13 24 11 25 9 25 9 25 7 27 5 27 6 37 60-20 14-13-19-8-2-10-10-30-1-1 23-11 23-13 10-9 19-16 10-9 8-8 2-25-15-19-25-2-18 14-3 9m331-49-5 12-5 13-7 14-17 26-23 27-13 15-6 5-16-27-13-18-14-17-17-14-16-13-18-11-5 7 11 16 10 17 17 34 7 18 13 40 5 21 8 41h-1l3 15 59-22 14-14-20-7-11-29-9-24-2-3 28-12 17-10 16-11 15-10 26-25 12-15 10-13 9-16-1-24-18-17-24 2-16 18-3 11M198 806H63V634h135v172Z"/></symbol><symbol id="𭿥_J" viewBox="0 0 1000 1000" data-size="21"><path transform="matrix(1 0 0 -1 50 943)" d="M417 483v62c65-1 98-8 98-21 0-8-13-17-40-28v-13h275l45 49c25-21 45-40 60-56l-10-18H695v-67h104l44 50c24-20 43-38 57-55l-11-20H695v-71h64l42 46c26-20 46-38 59-53l-11-18H475v-63h224l42 46c26-21 46-38 59-53l-11-18H475v-62h306l49 50c27-21 48-40 62-55l-13-20H475V0h-58v95H18L7 120h410v62H107l-11 25h321v63H47l-11 25h159v71H10L0 391h195v67H54l-12 25h375m0-25H252v-67h165v67m58 0v-67h164v67H475m0-163h164v71H475v-71m-58 0v71H252v-71h165m143 553h187l32 38c37-30 56-48 56-54 0-4-2-7-6-10l-22-16V543h-54v24H553v-18h-54v324c26-10 46-19 61-25m-7-25v-58h200v58H553m200-231v63H553v-63h200m0 88v60H553v-60h200M156 848h187l32 38c36-27 54-44 54-52 0-4-3-9-10-13l-17-13V539h-55v28H148v-39H93v345c28-11 49-19 63-25m-8-25v-58h199v58H148m199-231v63H148v-63h199m0 88v60H148v-60h199Z"/></symbol><symbol id="𭿦_J" viewBox="0 0 1000 1000" data-size="21"><path transform="matrix(1 0 0 -1 68 947)" d="M549 408H252l-10 25h225v88H308l-10 25h172v89H351v-40h-53v289c25-11 46-20 61-28h394l34 38c38-29 57-47 57-55 0-4-3-8-8-11l-23-15V607h-53v28H492c42-7 64-16 64-26 0-8-11-14-32-19v-44h75l37 50c17-18 33-35 46-52 16 21 30 40 42 58 46-26 69-45 69-57 0-7-7-10-21-10-9 0-16 1-23 2-30-35-61-69-94-101h107l44 58c23-22 42-43 58-62l-10-21H627c-3-3-9-8-17-15 51-16 77-37 77-63 0-18-10-27-30-27-13 0-21 7-25 22-7 21-20 39-40 54-32-26-71-53-117-81h235l36 39c39-28 58-46 58-54 0-4-3-8-9-12l-21-15V0h-57v49H448V0h-56v255c-43-23-91-45-145-67l-15 21c125 59 230 125 317 199m168-244H448V74h269v90m0 24v88H448v-88h269M578 433c30 28 58 57 85 88H521v-88h57m182 227v73H351v-73h409m0 98v73H351v-73h409M54 206V106H0v745c3-2 10-5 19-10 13-6 27-14 44-24h99l35 45c36-30 54-49 54-58 0-4-1-7-5-10l-24-18V145h-52v61H54m0 24h116v180H54V230m0 205h116v171H54V435m0 196h116v161H54V631Z"/></symbol><symbol id="𭿧_G" viewBox="0 0 1000 1000" data-size="21"><path transform="matrix(1 0 0 -1 14 975)" d="m598 939 5 11c55-13 89-32 104-56 11-15 14-29 9-42s-12-19-21-18-15 9-18 24c-5 19-13 32-22 41-10 12-29 25-57 40M446 815h387l30 39 63-48c5-4 7-7 6-8s-4-1-11 0H529c-15-1-29-6-42-15l-41 32M163 447v-99h190v99H163m343 78c0-7 0-17-1-30-1-7-1-12-1-15h370l28 35 52-53c3-4 5-7 4-9-1-1-3-1-8 0-19 0-35-8-49-23l-50-63-13 6 40 87H502v-6c-5-51-20-83-45-97-13-6-23-3-30 8s-6 22 5 32 22 22 33 35c12 15 20 46 24 93h17M163 212V109h190v103H163m0 120V228h190v104H163m417 376V597h212v111H580m-23-317 47-33h141l29 33 47-40c5-7 2-13-8-16l-21-13V115c0-24 11-38 33-41 1 0 2 0 3-1 9-3 24-4 47-3 32 1 49 24 50 67l3 79h15l3-66c1-37 10-55 25-56-11-33-35-52-72-56-18-2-33-3-46-2-11 0-29 1-53 4-33 10-50 32-49 65v234H611v-62C622 137 547 45 384 0l-5 13c73 32 122 67 149 105 28 37 42 89 41 157v66c-3 15-10 28-21 39l9 11m-15 367 28-32h209l32 32 41-40c4-3 5-5 4-7s-4-4-10-5l-17-9v-71l6-50c1-21-14-32-43-31v35H580v-14c2-24-13-38-44-43 3 25 6 62 7 112v74c-3 17-7 30-14 39l13 10M54 729h132c7 35 12 71 17 109-48-5-95-9-140-11l-1 13c83 11 162 26 235 44 16 3 31 9 45 16 5 5 9 12 12 21l7 1 42-47c5-6 8-11 8-15 0-3-3-5-9-5-16 9-49 8-99-2-23-5-42-8-59-9-5-41-11-79-17-115h105l27 37 59-44c6-6 8-10 7-12-1-1-6-1-15 0H223c-6-34-15-71-28-111h158l29 37 58-44c7-5 9-9 8-11-1-1-7-2-18-1H189c-13-37-27-72-43-105l9-9h180l33 39 43-46c5-3 7-7 6-10 0-3-3-5-9-6l-17-9V194l3-108c5-27-8-41-41-43v46H163V56c2-25-12-40-43-45 3 41 5 92 6 153v273C95 381 55 328 8 279l-8 9c65 90 115 187 149 292H96c-18 0-32-3-41-10l-30 29h130c11 35 20 72 27 111h-56c-18 0-32-4-42-11l-30 30Z"/></symbol><symbol id="𭿨_S" viewBox="0 0 1000 1000" data-size="21"><path transform="matrix(1 0 0 -1 47 959)" d="m0 895 63-33h123l31 27 57-47-26-22V63l-62-32v64H63V31L0 0v895M307 33l-10 11-17 19-9 9-6 8 104 74v267h-95v20h95l31 27 58-47-26-22V179l-2-1 8-10 20-22 21-17 25-14 30-11 39-7 49-5 62-1 74 2 91 6 4-70-93-3-78 2-66 6-53 10-45 15-36 18-28 24-20 26-15 29-5 15-2-1-14-23-22-31-47-57-8-9 3-22-17 5m546 0-1 11v15l-1 4v10l-1 4v3l-1 7v12l57 3-53-73v4M265 80l41-46-49 39 8 7m-79 274H63V115h123v239m447-141 59-22-5-11-6-12-8-11-9-9-11-8-10-7-12-5-13-4-13-2-12-1v31l-84 17v16h91l4 1 6 2 4 1 7 4 3 4 6 10 3 6m179 9-26 58-13 26-27 48-26 42-9 12 3-26 2-1-2-1 1-3 1-47-3-46-8-46-13-47-4 1-37 14-18 7 13 40 11 40 5 30-29-26-24-19-48-33-27-15-26-12-29-11-4 8 65 57 40 40 36 41 33 43 15 23 1-1-5 43-5 28-32-33-41-35-20-17-22-14-21-14-23-12-23-10-5 7 67 73 49 57 46 65 11-8-17 49-7 15-32-30-22-19-24-16-25-16-27-14-6 7 58 65 34 42 31 43 24 41H480v20h210l5 16 11 37 12 36 7 18 16 53 3 11 5 12 55-31 10-17-20-2-28-47-22-31-22-31-13-15-6-9h57l52 53 63-53v-20H699l-18-28-17-23-35-39 13-20 24-44 19-46 12-39 62 148 14 33h-1l5 10 54-34 9-17-21-1-61-91-29-37-27-31 2-7 23-14 19-16 18-19 18-20 36-47 35-54 15-30 1-23-15-19-24-1-18 16M186 598H63V375h123v223m169-18-12 25-15 26-8 12-26 35-11 10 5 7 14-7 14-5 14-8 14-8 26-20 24-23 22-26 3-25-15-18-23-3-20 13-6 15M186 842H63V619h123v223m202-77-11 26-6 13-7 12-14 25-18 24-11 11 6 8 14-8 14-7 14-8 13-8 13-11 23-23 21-25 10-15 1-23-14-19-25-1-18 16-5 13m188 22-7 26-3 13-9 25-5 11-13 25-9 9 6 8 12-8 13-7 23-19 20-22 19-27 8-14 8-15-3-23-18-17-24 3-16 17-2 15Z"/></symbol><symbol id="𭿩_J" viewBox="0 0 1000 1000" data-size="21"><path transform="matrix(1 0 0 -1 36 950)" d="M139 694h232l29 33c35-25 53-42 53-50 0-3-2-6-6-9l-20-13V530h-51v31H131c-5-75-44-132-117-172L0 408c54 39 81 99 81 182v126c8-2 27-10 58-22m-7-25v-83h96v83h-96m145-83h99v83h-99v-83m52-538V6h-59v326c26-9 50-19 71-29h378l39 41c42-29 63-48 63-56 0-5-3-10-10-14l-24-17V6h-59v42H329m0 25h399v57H329V73m0 82h399v50H329v-50m0 74h399v49H329v-49m-50 583v-51h96l34 40c21-16 39-32 53-47l-12-18H68l-14 25h173v51H34l-13 25h206v64c59-2 88-9 88-21 0-7-12-14-36-21v-22h119l37 45c22-18 40-36 53-53l-13-17H279m-79-427h565l51 51c28-22 51-41 69-58l-12-18H200c0-92-12-163-33-214C145 93 106 44 51 0L30 16c44 46 74 100 91 164 12 48 18 110 18 184v111c26-8 49-15 71-23 205 9 365 25 480 48 46-20 69-36 69-46s-19-12-59-5c-122-12-288-21-500-25v-39m474 164c-66-30-142-50-230-60l-11 21c78 14 145 34 203 62-35 23-69 54-103 95h-44l-11 24h289l27 26c38-26 57-43 57-50 0-4-4-8-12-11l-24-10c-29-30-61-54-96-74 62-23 132-38 209-45-16-15-27-31-34-50-87 17-160 41-220 72M564 667c33-30 70-55 109-75 37 22 68 47 93 75H564m31 167v-12c0-62-37-103-111-124l-13 19c48 24 72 59 72 104v67c15-5 37-14 65-29h99l32 35c35-25 52-41 52-49 0-4-3-8-8-11l-21-13v-32c0-15 17-23 51-23 26 0 42 8 48 23 3 7 7 24 10 53l23-7c0-30 3-49 9-58 4-6 12-10 25-11-1-21-11-35-30-40-14-4-38-6-73-6-53 0-86 5-99 13-9 8-14 20-14 39v62H595Z"/></symbol><symbol id="𭿪_J" viewBox="0 0 1000 1000" data-size="21"><path transform="matrix(1 0 0 -1 41 943)" d="M139 315c-34-40-75-79-122-116L0 219c96 92 168 204 218 337 56-15 83-29 83-42 0-8-14-14-42-18-20-41-42-78-66-112 29-6 43-14 43-23s-13-17-40-26V0h-57v315m429 533h186l33 38c37-30 56-48 56-54 0-4-2-7-6-10l-22-16V558h-54v24H561v-18h-54v309c26-10 46-19 61-25m-7-25v-53h200v53H561m200-216v58H561v-58h200m0 83v55H561v-55h200M164 848h187l32 38c36-27 54-44 54-52 0-4-3-9-10-13l-17-13V554h-55v28H156v-39h-55v330c28-11 49-19 63-25m-8-25v-53h199v53H156m199-216v58H156v-58h199m0 83v55H156v-55h199M542 88c-48 23-94 57-137 101h-96l-11 25h262v58H281l-10 25h289v54H341l-9 25h228v53H301l-9 25h303c-7 3-13 9-20 19-17 24-43 44-78 60l11 19c44-7 78-18 103-33 20-13 30-27 30-41 0-13-5-20-16-24h153l46 42c26-18 47-34 65-50l-12-17H614v-53h124l46 42c26-17 47-34 65-50l-12-17H614v-54h183l47 42c26-17 47-34 65-50l-12-17H614v-58h101l34 31c41-29 62-48 62-56 0-4-3-7-8-9l-33-13c-40-30-78-54-114-73 66-16 154-27 262-32-19-19-32-38-41-56-116 11-210 31-283 59C502 28 391 7 261 1l-11 23c122 14 219 36 292 64m54 23c44 22 83 48 116 78H441c43-32 94-58 155-78Z"/></symbol><symbol id="𭿫_S" viewBox="0 0 1000 1000" data-size="21"><path transform="matrix(1 0 0 -1 50 962)" d="M249 0v21h95v257l63-31h336l31 26 58-46-26-22V21h20l32 37 42-37V0H249m227 227h-69V21h69v206m135 0h-73V21h73v206m132 0h-68V21h68v206M0 826l63-31h118l31 26 58-48-26-20V124l-63-32v53H63V82L0 50v776m181-463H63V166h118v197m122-62-1 12v1l-1 6v17l-1 1v4h18l120 92 72 59H269v22h264l19 16v94H316v21h236v90l62-10 16-10-16-10v-60h119l53 52 63-52v-21H614V515h167l52 51 63-51v-22H602l-81-59-57-37-59-33-30-13-18-8 69 1 45 1 96 2 105 1h56l31-1-26 30-48 48-19 15 5 8 22-9 23-9 20-12 21-12 18-13 19-14 17-15 31-32 13-18 4-23-13-20-25-4-18 13-10 18-21 32-3 5-40-7-55-8-104-13-49-6-47-4-45-6-86-8-18-2-11-17-10 15v4l-1 4v14m-3 41 4-63-15 63h11M181 568H63V385h118v183m0 205H63V590h118v183m499 152 63-11 16-11-16-9v-59h36l53 53 64-53v-21H743v-68l-63-32v100h-89v21h89v90m-273 0 63-11 15-11-15-9v-59h14l34 37 42-37v-21h-90v-68l-63-32v100H255v21h152v90Z"/></symbol><symbol id="𭿬_S" viewBox="0 0 1000 1000" data-size="21"><path transform="matrix(1 0 0 -1 49 959)" d="m814 20-10 11-13 11-28 21-34 21-41 20-22 10 2 9 49-6 22-5 22-5 20-6 20-8 17-8 18-10 17-10 14-11 10-23-10-22-22-9-22 9-9 11M567 138l17-25 22-24V70l-19 8-66-31-45-18-48-15-53-14-4 9 127 80 65 46 4 3M432 571v-94l-1-1-2-60-5-58-9-54-12-52-16-49-19-45-23-42-26-39-30-34-33-31-6 6 25 35 25 38 19 39 18 41 15 44 11 47 8 50 6 51 2 56v310l53-27h325l31 27 6-5 7 18 9 31H368l1-10v-21l-1-19-2-19-4-16-6-15-7-15-11-13-10 13-3 2-3 4-4 5-3 4-3 5-5 7-4 3-1 1-2 3-1 1 5 3 6 5 6 7 7 11 6 12 6 17 6 18 9 43 2 24 9 1 3-26 1-14h193v125l62-11 16-11-16-8v-95h193l2 3 29 23 57-47-26-15-19-8-4-7-28-31-7-8 29-22-27-22v-89l-62-31v31H432M0 842l63-31h140l32 26 58-47-26-21V168l-64-32v63H63v-63L0 104v738m772-313 58-47-26-21V167l-63-31v31H516l-53-26v388l53-26h225l31 26m-31-257H516v-84h225v84M203 404H63V220h140v184m538-27H516v-84h225v84m0 105H516v-84h225v84M203 597H63V425h140v172m364 85H432v-90h135v90m190 0H631v-90h126v90M203 790H63V618h140v172m96-97 39-48-23-6-21 10-7 24 12 20Z"/></symbol><symbol id="𭿭_S" viewBox="0 0 1000 1000" data-size="21"><path transform="matrix(1 0 0 -1 47 964)" d="m600 92 57-24-6-11-5-11-8-11-10-10-10-7-12-6-11-5-12-4-14-2-12-1v32L451 48v15h106l12 1 5 2 9 4 4 3 3 3 3 5 4 5 3 6M0 846l63-32h141l32 27 58-47-26-22V92l-64-31v63H63V61L0 29v817M801 76l-33 30-31 33-27 35-24 37-21 40-18 42-14 44-11 46-6 36-16-18-20-16-22-15-4-2 19-19 26-32 22-32 18-30 13-32 10-32 6-31 1-30-4-31-8-31-28 12-29 12 7 20 6 23 2 23-1 25v2l-19-16-30-22-30-18-32-19-34-15-36-15-37-13-39-10-40-8-4 9 106 53 31 19 58 39 26 20 47 45 17 18-7 18-5 9-28-20-26-16-26-14-27-14-31-13-30-12-32-10-33-9-36-7-4 9 90 49 53 31 47 33 20 18 35 32-15 25-37-20-30-14-32-14-35-12-38-11-41-11-3 9 102 57 29 17 48 34 19 16 17 16H402v20h292l33 37 42-37v-20H627l35-80 20-39 18-33 71 80 17 24 5 7 4 6 45-44 4-19-22 5-7-6-41-28-48-28-18-8h-1l18-27 26-31 27-28 30-27 31-23 54-34-58-46-36 27M204 356H63V145h141v211m0 219H63V378h141v197m102-141 43-46-23-9-22 11-8 22 10 22m0 0 35-38 5-5 1-1 2-2 9 13 7 16 6 17 4 18 3 20 1 20-1 23-1 12h437l-2-10-11-41-16-49-7-17 8-5 11 16 23 26 29 36 14 22 17 7 26 15-57 47-32-25H376l-6 45h-9l-4-29-3-24-5-23-6-21-6-18-6-14-6-13-7-9-6-5-6-4m98 340 63-31h257l31 26 58-47-26-21v-90l-63-32v32H467l-63-32v195m-200 20H63V597h141v197m520-72H467v-90h257v90m-409 81v20h249v106l63-11 16-11-16-9v-75h133l53 53 63-53v-20H315Z"/></symbol><symbol id="𭿮_S" viewBox="0 0 1000 1000" data-size="21"><path transform="matrix(1 0 0 -1 42 952)" d="m794 8-34 33-12 11-27 19-31 18-16 9-17 6 2 10 19-2 19-2 19-3 18-3 18-6 19-7 16-7 17-9 32-20 10-23-8-22-22-10-22 8M510 129l39-50 1-19-21 8-13-8-19-9-19-8-42-16-23-7-25-7-52-12-4 9 106 62 33 24 27 22 8 7h-1l5 4M0 826l63-31h123l31 26 57-47-26-21V152l-62-32v64H63v-64L0 89v737m298-690v21h189v99H341v20h146v76l63-11 16-11-16-9v-45h103v76l64-11 15-11-15-9v-45h47l43 48 52-48v-20H717v-99h66l53 53 62-53v-21H298m355 120H550v-99h103v99M186 389H63V204h123v185m252-22v-15l-63-32v297l63-31h321l31 26 58-47-27-21V357l-62-32v42H438m129 101H438v-79h129v79m192 0H630v-79h129v79M186 581H63V409h123v172m381-16H438v-76h129v76m192 0H630v-76h129v76M186 774H63V603h123v171m124-143-3 8v1l-2 6-1 2-3 9-3 11-1 1-1 4-1 3v2l-1 1-1 4 85 19 45 12 48 12 20 3v68H312v20h179v87l63-10 15-11-15-9V639l-63-32v100l-54-29-84-39-20-8-6-21-14 12-3 8v1m-17 52 20-61-30 57 10 4m343 221 63-10 16-11-16-9v-88l67 35 51 30 15 9 10 8 5 3 7-16 35-33 1-17-21 8-28-12-39-13-42-12-22-5-22-3-17-3v-58l-1-7v-5l1-4v-3l1-1 1-2 2-2 4-2 6-2 7-1v-47l-13-1-13 2-11 3-12 5-11 8-8 9-6 12-6 12-3 12-1 14v197m84-273h172l13 9 10 14-10 15-13 9 10 68h-10l-23-68H720v-47Z"/></symbol><symbol id="𭿯_S" viewBox="0 0 1000 1000" data-size="21"><path transform="matrix(1 0 0 -1 43 964)" d="M386 47v-2 2M0 848l63-32h118l31 27 58-47-27-22V205l-62-31v31H63v-63L0 110v738m181-438H63V226h118v184m358 136 64-11 15-11-15-8V367l-64-31v210m-62-126 52-48v-20H319v20h115l43 48m294 5 52-47v-22H623v22h105l43 47M181 603H63V431h118v172m296-83 52-48v-21H319v21h115l43 48m294 4 52-46v-22H623v22h105l43 46m-374 48v-16l-62-32v221l62-31h347l31 26 58-48-25-20V562l-64-32v42H397m75 120h-75v-99h75v99m135 0h-73v-99h73v99m137 0h-73v-99h73v99M181 796H63V624h118v172m101-25v21h263v137l62-11 16-10-16-10V792h164l52 53 63-53v-21H282M395 13l-16 34h-2v6l-8 18 8 2v83l-41-16-43-15-46-14-4 9 119 68 15 8v14h21l69 45 61 47 54 49 2 1 40-48 3-19-19 6-9-8 42-46 25-27 27-24 1-1 76 108 12 19 5 6 45-44 5-18-23 4-42-33-61-44-7-6 17-14 29-20 30-18 31-16 32-12 71-26-60-51-38 16-34 19-33 21-31 24-29 26-27 28-24 31-23 33-19 36-9 20-59-40-72-41-17-7V85l47 8 60 10 64 9 35 4 35 4 3-9-66-26-119-40-82-26-8-19-13 13Z"/></symbol><symbol id="𭿰_G" viewBox="0 0 1000 1000" data-size="21"><path transform="matrix(1 0 0 -1 20 969)" d="M278 834V674h113v160H278m-147 0V674h114v160H131m68-443h181v115H199V391m181-16H199V256h181v119m0-135H199V118h181v122m374 697 71-32c5-1 7-3 8-5 1-1 1-3-2-5-13-4-22-10-28-19v-66h65l26 37 60-45c5-3 7-6 6-8-1-1-5-2-12-2H803v-40l3-32c1-21-13-35-44-42 3 27 5 53 6 78v36H639v-42l2-32c4-23-11-37-44-42 1 4 1 10 2 17 3 20 4 39 5 57v42h-62c-17 1-32-3-43-12l-34 30h139v73c2 8-7 21-26 38l8 12 73-29c8-3 10-6 6-10-11-3-20-10-26-21v-63h129v76c1 11-6 24-23 39l9 12M594 385l-32 31h129v99c-32-5-69-8-112-9l-2 12c73 13 132 27 179 42 10 3 17 10 20 23l8 2 40-39c5-4 7-7 6-10 0-2-3-3-8-4-19 4-50 1-92-8l-4-1V416h48l24 30 50-39c5-3 7-6 6-8-1-1-5-2-12-1H726v-44c30-14 53-30 70-47s26-34 27-51c1-19-4-29-16-30-10-2-17 6-22 24-4 15-11 31-20 46-3 5-10 13-23 24-7 5-12 10-16 13V203l2-36c3-25-12-39-43-43 4 32 6 74 6 125v94c-27-59-68-112-125-158l-9 11c58 67 97 134 117 202h-43c-14 1-26-3-37-13M87 892l33-38h258l23 31 47-37c5-4 6-8 5-11s-4-5-11-6l-16-10V712l5-61c1-20-13-32-40-35v38H131v-38c3-244-38-434-121-570L0 54c65 137 96 325 94 563v215c-1 16-8 33-19 51l12 9m68-331 33-35h182l24 30 43-33c5-4 6-7 5-10s-4-5-11-6l-15-10V117l3-60c3-20-10-32-39-35v76H199V53c1-23-13-38-43-43 3 24 6 65 7 123v378c-2 15-9 29-20 40l12 10m396-452h311v512H551V109m353-58c3-26-11-40-42-41v80H551V43c1-23-14-38-45-43 3 24 6 62 7 115v515c-3 14-8 25-17 32l14 11 30-33h310l30 32 42-40c4-4 5-7 4-10s-4-5-10-6l-16-8V136l4-85Z"/></symbol><symbol id="𭿱_S" viewBox="0 0 1000 1000" data-size="21"><path transform="matrix(1 0 0 -1 46 969)" d="m801 93 56-28-5-10-7-12-9-10-10-9-10-7-11-6-12-5-13-3-12-2-14-1v31L649 48v15h113l6 1 5 1 5 3 4 2 4 3 4 4 4 4 7 12M478 33l-24 32-19 42-16 49-7 29L295 49l4-22-19 4-14 17-2 2-4 5-1 1-6 6-3 2v1l-5 5v1l-5 4-1 2-1 1 7 6v725l-23-14V48l-53-27v48H63V32L0 1v861l63-31h106l26 26 50-44v62l52-26h182l29 26 55-47-27-18V597l-57-29v61h-40l1-91 3-93 1-16h20l44 48 52-48v-21H446l3-45 8-73 10-63 12-53 14-44 10-20 20 88h10l-9-123 15-12 14-20-3-23-20-14-23 3-29 24M238 78l41-46-49 39 8 7m566 22 3 12 3 17 4 45 2 28v13l-6-23-21-10-23 6-12 22 3 14v14l-1 7-1 7-3 8-3 8-5 7-7 6 5 8 8-5 11-3 9-4 8-6 9-6 8-8 7-9 6-10 5-10 3-10 1 15v108H631l-58-28v526l58-29h47l1 3v13l7 77v21l3 14 59-23 13-14-22-6-2-5-6-12-18-36-8-12-14-20h87l32 26 57-47-26-21V544l-63-32v42H631v-85h155l43 47 53-47v-22H631v-85h186l32 26 58-47-26-16v-56l-1-37-1-33-2-30-2-26-3-24-4-20-4-17-7-17-56 28 3 7m-261 16 51-37-21-13-23 6-12 21 5 23m51-37-19 14-2 1-2 3h-2v1l-2 1-1 1h-1l-13 10-9 6 6 5 6 9 6 10 4 13 6 15 4 18 4 19 4 22 3 24 2 26h9l8-49 3-24 2-21 1-20-1-18-2-19-3-16-4-16-7-15M169 327H63V90h106v237m454-193 62-13-14-20-24-4-19 13-5 24M383 408h-86V121l72 51 23 15 17 11-4 17-10 66-8 76-4 51m243-267 3 8 3 10 2 11 2 13 1 13v47l-2 17 9 3 5-17 8-16 13-29 4-13 4-14 3-14 3-14 1-12v-13l-62 13 3 7m66 35 2 11 1 10 1 10v10l-1 10-2 19-2 11-5 8 7 6 7-8 9-7 9-8 8-10 6-9 6-12 5-12 4-13 4-13 3-15-10-21-22-10-22 10-10 21 2 12M169 568H63V348h106v220m207 61h-79V429h84l-1 13-3 94-1 93m255 42v-96h147v96H631M169 811H63V589h106v222m310 17H297V649h182v179m152-39v-97h147v97H631Z"/></symbol><symbol id="𭿲_K" viewBox="0 0 1000 1000" data-size="21"><path transform="matrix(1 0 0 -1 45 953)" d="M225 865c0 1-1 4-2 8-2 6-3 15-4 28l69-13c22-4 30-11 26-20-2-2-14-5-36-7l-4-1v-20h117l42 28 59-27c8-6 10-13 5-18-2-2-8-3-18-3H274v-42h88l42 25 53-25c10-6 14-13 11-22-3 0-9-1-20-1H146c-16 0-30 0-42-1-7 0-15-1-26-4l-12 29c8 0 19-1 32-1h127v42H61c-10-1-19-2-27-4l-12 25c7 0 17 0 32-1h171v25M92 576l-2 42 46-15h196l28 14 38-19c17-11 22-20 14-25-4-2-12-2-23-2v-48c1-13-1-19-5-21-3-3-10-6-22-8-10-1-16-1-17 0-2 5-2 11 0 18v-7H138v2-14c-3-3-9-5-18-7-14-5-23-5-26 0-3 2-4 9-4 21l2 8v61m46 4v-51h207v51H138m-53 80c8 0 18-1 29-2h160l37 24 51-22c8-7 10-14 6-20-2-3-8-4-17-4H164c-17 0-31 0-42-1-9 0-17-1-24-4l-13 29m321 56 40 22 50-28c12-8 17-15 14-22-5-6-23-9-53-8l-68-51-17 8 44 59-331-1c-3-19-8-33-15-44-5-10-14-21-27-34-11-8-21-10-29-4-11 4-14 17-10 39 1 5 4 9 8 13 2 3 7 6 12 10 13 9 22 16 28 23 10 9 18 23 24 44h16l-2-26h316M16 404l146 14c-4 4-10 11-17 24-8 11-18 26-31 45l10 5c30-14 50-26 59-37 10-10 13-21 9-34l61 10c6 12 13 24 19 38 10 16 17 30 23 42l50-15c13-7 18-13 15-19-1-4-13-6-36-5l-50-37 164 16 4-18-381-65c-2-17-5-27-9-31s-11 2-20 18l-16 49m547 378V654h91v128h-91M374 366c66 48 107 107 125 177 16 55 19 147 11 278l54-18h90v65l-2 39 64-13c17-5 25-11 23-20-1-2-14-6-38-11v-60h109l34 19 46-25c17-10 24-18 21-26-4-5-20-7-48-7l-86-68-11 7 48 79H699V654h67l34 16 42-21c15-11 23-19 21-25-1-6-16-8-46-8-15-39-32-71-49-97-19-25-41-46-67-65 22-11 48-22 76-34 35-10 77-18 126-24l4-22c-18-1-33-5-44-10-8-5-13-10-15-17-43 12-77 25-103 37-23 12-46 28-67 46-30-16-63-31-101-45-39-14-80-26-123-34l-6 15c41 12 81 27 118 44 36 17 66 33 91 48-18 21-31 45-40 74-8 28-13 61-14 98h-40c-5-62-20-114-46-156-27-44-72-84-135-120l-8 12m397 264H616c1-26 7-53 18-80 10-25 24-47 44-67 21 17 39 41 54 71 13 23 26 48 39 76m-29-311-50 34-32-30H224l-50 28 4-53V29l-2-6c0-9 0-15 2-18 4-4 11-5 23-4 11 3 18 6 21 11 1 3 2 9 2 19v7h454l-2-7c0-10 0-16 2-19 4-3 12-4 24-1 11 3 17 7 20 12 1 2 2 8 2 15v247c13 0 24 1 31 4 8 6 4 16-13 30m-64-82H224v69h454v-69m0-88H224v71h454v-71m0-95H224v76h454V54Z"/></symbol><symbol id="𭿳_K" viewBox="0 0 1000 1000" data-size="21"><path transform="matrix(1 0 0 -1 61 942)" d="m794 885 38-30c17-12 25-21 23-28-1-6-11-11-29-13V699c1-8 1-14 0-18-4-6-11-10-22-14-13-5-21-6-24-2-3 3-4 10-2 22l2 14H324v-13c0-10-1-17-3-21-3-4-10-8-20-12-13-3-21-2-24 2-3 3-3 11 0 24l2 20v134l-7 50 51-28h445l26 28M664 717h116v124H675c5-3 8-7 8-12-3-4-9-8-19-14v-98M511 841c6-3 8-6 6-10-4-4-12-8-23-12V717h126v124H511M324 717h126v124H324V717m109-96c16-8 22-16 17-21-2-5-12-7-29-7l-74-98 4-1c8-6 14-11 17-14 5-5 8-12 11-19 9-22 9-37 0-46-9-6-18 0-28 19-11 15-26 33-46 54-20 19-40 34-58 47l4 8c19-6 33-11 42-15 12-5 24-12 36-21l71 138 33-24m68-93c18-14 26-24 24-29-2-6-12-7-31-5l-37-48c-18-22-31-40-40-51-16-21-30-38-42-53l52 6 67 8c-7 12-14 22-19 30-7 11-14 20-21 28l9 3c22-17 41-33 56-47 17-17 30-35 40-52 4-12 6-24 6-36-1-9-3-16-6-22-6-5-11-5-16 0-7 6-14 16-20 32l-22 50-51-10-33-8c9-8 14-14 14-20-2-5-6-8-14-9V45c0-7-2-12-5-15-2-4-9-8-19-11-12-4-19-5-22-3-2 2-2 8 0 18l2 21v259l-47-10-10-4-2-5c-7-22-13-33-15-33-4-2-9 9-16 32l-14 41 54 4 24 3c20 29 40 60 59 92 19 30 41 68 67 115l28-21m-57-270c24-18 47-42 69-70 20-26 32-48 36-64 4-31-1-49-15-56-12-7-21 7-27 40-4 20-12 41-24 65-11 28-26 55-45 79l6 6m-128-22c19-5 27-10 25-16-1-5-11-8-28-10-12-35-28-69-48-104-22-37-46-71-72-101l-6 8c21 34 40 74 57 118 13 37 24 77 35 119l37-14m468 399c17-7 24-13 22-20-2-4-12-7-31-7-12-20-23-37-33-50-11-14-22-26-32-37h65l37 43 48-40c7-7 8-13 4-17-2-3-9-4-20-4H740c8-4 11-8 8-11-3-2-10-6-22-12V368h31l35 42 49-38c7-6 9-12 5-16-4-2-10-2-20-2H726V222h31l42 43 45-37c8-8 9-14 4-19-4-3-11-4-22-4H726V81h49l45 49 50-40c9-10 11-16 6-20-4-2-13-4-28-4H616V35c2-6 2-11 0-14-4-5-12-10-25-15-13-6-20-6-23 0-2 2-2 10 0 22l2 16v438c-18-18-31-31-40-38-13-13-24-23-34-30l-8 3c22 28 45 62 71 102 30 45 57 91 82 136l36-26c15-11 20-19 14-25-3-4-14-5-31-1l-44-62v-20h75l11 22c10 21 17 37 22 48l24 63 36-19M683 503h-67V368h67v135m-2-281v132h-65V222h65m-65-17V81h67v124h-67M4 819l-4 52 46-30h102l35 28 36-32c19-12 25-20 18-24-6-6-14-8-26-8V140c0-17-1-28-2-32-1-5-8-11-19-15-13-3-20-1-23 5-2 4-3 15-2 33v21H50v-40c0-20-1-32-4-36-1-6-5-12-12-15-15-4-24-4-28 2-3 3-4 11-4 22l2 10v724m46 6V627h115v198H50m0-213V404h115v208H50m0-224V168h115v220H50Z"/></symbol><symbol id="𭿳_U" viewBox="0 0 1000 1000" data-size="23"><path transform="matrix(1 0 0 -1 124 887)" d="M0 656c8 0 16-2 24-6 9-4 18-10 28-17h142l24 31c9-3 17-8 25-14s14-12 17-19l-22-22V123c-13-12-25-18-36-18v33H36v-15c-12-12-24-18-36-18v551m377-173c11-3 21-6 30-11 10-4 17-9 21-14l-20-13c-10-48-26-90-47-125s-44-61-69-78l119 16c-3 11-6 23-10 36-3 13-7 26-11 39l4 1c5-7 9-13 13-18 5-5 9-11 12-16 18 26 35 62 50 108 16 47 28 100 35 161 11-2 21-5 30-10 10-4 17-9 21-14l-20-13c-3-17-7-33-12-49-4-15-9-31-14-46h164l23 31c13-5 24-12 32-21s14-16 17-21H635V316h20l24 32c13-5 24-13 32-22s14-16 17-21h-93V201h20l24 31c13-5 24-12 32-21s14-16 17-21h-93V63h43l24 31c13-5 24-12 32-21s14-16 17-22H515V18C503 6 491 0 478 0v367c-9-15-18-28-27-41-9-12-18-23-28-33 11-17 19-32 24-43s7-20 7-27c0-11-4-20-13-25-8-5-14-7-19-7-7 0-11 4-11 12 0 3 0 7 1 10 1 4 2 9 2 14v9c0 3 0 7-1 10l-112-31-18-9-25 32c8 0 16 4 25 13s18 20 27 34 17 30 25 48c8 19 15 38 21 58l-49-15-18-9-25 32c9 0 17 5 24 14s14 22 19 39c6 17 11 37 15 60s7 48 9 75c11-3 21-6 30-11 10-4 17-9 21-14l-20-13c-5-34-14-64-26-89s-25-43-38-56l63 4c3 11 6 23 9 36s5 26 7 39m-95 283c9 0 17-2 25-6s17-10 27-17h344l24 30c9-3 17-8 25-14 8-5 14-11 17-18l-22-22V596c-13-13-25-19-36-19v33H319v-14c-13-13-25-19-37-19v189M36 149h166v161H36V149m0 317h166v156H52l-16-10V466m0-144h166v133H36V322m650 409H584V622h102v109M319 622h102v109h-88l-14-10v-99M515 63h84v127h-84V63m-58 559h90v109h-90V622m58-306h84v110h-84V316m0-115h84v104h-84V201m61 386c28-27 47-48 57-64 10-15 15-28 15-37s-4-17-12-22-14-8-18-8c-7 0-11 4-11 13v5c1 3 1 5 1 7 0 11-4 26-11 45s-16 39-25 59l4 2M293 150c8-40 12-70 12-89 0-21-4-35-11-40s-15-8-25-8c-12 0-18 4-18 12 0 3 3 8 8 15 7 8 13 22 18 43s8 44 11 68l5-1m43 11c21-23 35-41 43-54s12-24 12-32c0-9-4-16-13-21s-15-8-20-8c-7 0-10 4-10 11 0 3 1 7 2 10s2 8 2 13c0 10-2 22-6 36-3 14-8 29-14 44l4 1m62 22c23-19 39-34 48-45s13-20 13-27c0-8-4-15-13-21-8-6-14-9-19-9-6 0-9 3-9 9 0 3 0 5 1 7s1 5 1 8c0 9-3 21-8 35s-11 28-18 42l4 1Z"/></symbol><symbol id="𭿳_S" viewBox="0 0 1000 1000" data-size="21"><path transform="matrix(1 0 0 -1 52 949)" d="m260 324-5 27v2l23 2h4l61 91-19 14-3 9-4 10-4 9-6 9-14 20-9 9-19 21-13 9 4 8 15-5 14-5 15-5 11-5 6 11 27 63 5 14 6 25 2 11 1 5h-1l5 13 57-29 11-15-24-5-28-38-35-38-14-13-8-10 16-9 12-8 10-9 18-18 96 136 3 3 47-41 5-19-18 2-120-132-53-54-28-28-4-3 93 12 24 4 48 6h1l-3 12-13 29-7 15-10 14 7 6 13-11 15-11 12-12 12-13 9-11 33 68 21 44v31l9-5 25 65 9 30 6 25 5 14 58-27 12-16-20-4-18-43-14-28-15-29-5-8 10-5h82l4 9 14 51 18 59 5 14 3 11 4 7 54-33 8-18-22-1-49-68-22-28-2-3h35l52 52 63-52v-22H754V373h15l43 47 51-47v-21H754V231h15l43 47 51-47v-21H754V73h16l51 53 64-53V53H622V37L560 6v430l-29-32-18-16 12-20 8-15 7-16 5-17-5-23-20-13-24 5-13 21-1 13-1 13-2 14-3 12-23-10-30-13V31L359 0v316l-46-13-24-7h-3l-9-19-12 14-1 5v1l-2 13v1l-2 12v1m94-82-18-12-4-17-4-20-6-20-7-21-7-21-9-21-34-64-10 4 6 23 5 24 3 22 3 22 2 20 2 21 1 18v19l-1 17v11h-1v18l64-13 15-10m336-32h-68V73h68v137m-218-60v26l-1 12-2 14-4 13-4 13-6 12-7 14-9 13 6 6 13-9 14-10 11-11 12-13 10-12 8-15 7-15 5-16 5-18 3-17-10-23-21-9-23 9-9 23 2 13M0 854l63-32h115l26 27 52-47-26-17V180l-52-27v58H63v-64L0 116v738m690-502h-68V231h68v121m-512 64H63V231h115v185m77-63 10-62-21 60 11 2m435 135h-68V373h68v115M178 608H63V437h115v171m0 194H63V630h115v172m145-93v-37l-52-26v252l52-26h483l32 26 58-47-27-21V688l-63-32v53H323m126 142H323V729h126v122m173 0H512V729h110v122m184 0H686V729h120v122Z"/></symbol><symbol id="𭿴_S" viewBox="0 0 1000 1000" data-size="21"><path transform="matrix(1 0 0 -1 50 964)" d="m0 479 63-31h106l26 27 39-37v37l53-27h101l32 27 58-47-27-22V52l-63-32v52H287V36l-53-26v409l-12-8V47l-53-26v47H63V31L0 0v479m494-379-3 21v1h15l119 347h-1l5 12 57-29 11-14-19-4-41-98-53-110-38-72-19-30 55 4 31 2 32 4 33 2 33 4 33 3 34 3h18l-23 88-17 60-27 78 9 5 18-21 15-23 16-25 28-58 13-31 25-69 21-75-5-23-18-14-25 5-13 19-7 38-7 31-16-5-33-11-33-10-65-16-32-7-100-19-9-18-13 15v4l-1 4v7l-2 13v6l-1 4v2m-3 22 7-60-17 59 10 1m-322 70H63V89h106v103m219 4H287V94h101v102M169 310H63v-96h106v96m219 2H287v-95h101v95M169 427H63v-96h106v96m219 1H287v-95h101v95m388 368H655v21h121v99l64-11 15-10-15-10v-68h5l23 32 31-32v-21h-59V548l-1-14-2-13-5-12-6-12-9-11-10-8-12-6-13-4-12-3-14-1v32l-64 16v15h71l5 1 3 1v1l2 1 1 3 1 3 1 5v254M586 681l-2 5-3 6-9 12-6 7-10 10V506l-63-31v206l-15-24-16-20-17-20-18-17-20-17-7 6 34 65 19 45 16 44 7 23 4 23 1 6h-77v20h89v112l63-11 16-11-16-9v-81h26l23 33 32-33v-20h-81v-54h4l10-1 20-4 11-3 8-3 9-3 9-5 8-5 8-23-11-21-23-8-21 10-2 6M111 929l64-33h118l31 27 59-48-27-21V518l-63-33v42H175v-15l-64-32v449m182-281H175v-99h118v99m407 4-7 17-8 18-22 35-9 7 5 7 10-5 11-2 10-5 21-10 10-7 9-7 18-15 9-9 3-25-14-19-24-3-20 15-2 8M293 762H175v-93h118v93m0 113H175v-92h118v92Z"/></symbol><symbol id="𭿵_J" viewBox="0 0 1000 1000" data-size="21"><path transform="matrix(1 0 0 -1 66 939)" d="M389 485H39l-9 25h723l42 50c48-41 72-67 72-78 0-5-3-8-10-10l-36-10c-51-53-120-110-207-171l-17 20c67 62 119 120 157 174H508V90c0-56-36-86-108-90 0 22-14 38-41 47-16 5-51 12-107 22v26c62-6 113-9 153-9 29 0 44 11 44 32v341c-68-91-139-165-214-223-62-48-135-91-220-131L0 127c165 94 294 213 389 358m334 133H105l-11 25h629v163H115l-13 25h611l35 46c46-28 68-49 68-62 0-3-3-7-9-11l-28-18V580h-56v38Z"/></symbol><symbol id="𭿶_J" viewBox="0 0 1000 1000" data-size="21"><path transform="matrix(1 0 0 -1 66 952)" d="M389 485H39l-9 25h343c39 28 68 50 86 65-5-1-9-2-12-2-9 0-19 8-32 25-32 41-77 78-136 111-66-58-139-104-218-138l-14 22c131 77 237 181 316 312 57-15 86-28 86-40 0-8-16-14-47-17-8-12-16-23-26-35h268l37 42c47-35 70-58 70-70 0-5-4-9-12-12l-35-14c-84-105-176-188-278-249h327l42 50c48-41 72-67 72-78 0-5-3-8-10-10l-36-10c-51-53-120-110-207-171l-17 20c67 62 119 120 157 174H508V90c0-56-36-86-108-90 0 22-14 38-41 47-16 5-51 12-107 22v26c62-6 113-9 153-9 29 0 44 11 44 32v341c-68-91-139-165-214-223-62-48-135-91-220-131L0 127c165 94 294 213 389 358m-33 303c-16-18-35-38-56-60 117-40 176-82 176-124 0-5-1-11-4-18 65 57 123 125 174 202H356Z"/></symbol><symbol id="𭿷_J" viewBox="0 0 1000 1000" data-size="21"><path transform="matrix(1 0 0 -1 76 939)" d="M366 628H60l-13 25h460c-7 3-15 8-23 14-53 35-140 65-258 88l13 21c89-11 160-23 212-38 54 21 106 46 157 76H146l-12 25h483l39 40c48-35 72-58 72-69 0-5-5-9-14-10l-32-5c-49-24-113-47-192-70 39-16 59-33 59-50 0-9-3-17-10-22h198l39 44c47-37 71-61 71-71 0-5-5-9-16-12l-30-7c-45-45-105-91-180-137l-18 19c53 44 98 90 134 139H499V479c0-42-29-63-87-63-1 17-11 29-29 36-14 5-39 11-75 16v24c35-4 70-6 103-6 22 0 34 10 34 31v104C335 529 190 457 11 404L0 427c138 49 260 116 366 201m-35-500V76h-56v239c31-11 52-19 65-24h199l33 34c38-28 57-46 57-53 0-3-3-6-9-10l-19-13V88h-56v40H331m0 25h214v113H331V153M155 397h588l37 39c37-27 56-45 56-53 0-4-3-9-8-13l-20-15V84c0-51-30-76-91-76-1 20-9 33-23 40-11 6-30 11-58 15v24c32-3 61-5 86-5 20 0 30 9 30 27v263H143V0H87v422c32-11 55-19 68-25Z"/></symbol><symbol id="𭿸_S" viewBox="0 0 1000 1000" data-size="21"><path transform="matrix(1 0 0 -1 40 959)" d="m837 210-24 41-24 43-21 45-39 100-15 53-13 53V215h22l33 37 42-37v-22h-97V31L638 0v193h-97v22h97v269l-24-70-24-60-27-57-27-55-30-52-32-48-36-45-7 6 50 101 24 53 22 56 21 57 19 60 19 62 16 66 15 66 10 53H440v21h198v220l63-10 16-11-16-9V698h85l53 52 62-52v-21H701v-39l49-133 21-50 22-48 23-44 24-41 25-39 26-35 29-35-57-41-26 38M386 577l4 5 1-1 27 23 58-48-27-16-18-7-6-9-38-45-30-30-51-48-7 6 12 21 51 93 8 16 8 16 1 3h-93V89l-1-13-2-13-4-13-7-12-8-11-11-8-12-7-12-4-13-2-14-1v31l-84 16v15h84l7 1 4 1 5 2 2 2 2 5 1 5 1 6v332l-27-44-26-40-29-37-31-35-33-34-35-29-37-27-6 7 58 69 27 35 25 37 24 38 21 39 20 42 18 43 17 45 8 26H8v21h378m-16 278 7 9 2-2 22 20 59-48-26-16-24-8-40-40-34-31-39-32-22-17-4-2 15-16 16-20 14-19 3-24-15-19-24-3-18 15-10 17-10 19-12 17-13 17-14 16-33 34-38 32-22 17 4 7 27-8 24-10 23-12 23-13 40-29 8-8 88 120 10 16H34v21h336Z"/></symbol><symbol id="𭿹_S" viewBox="0 0 1000 1000" data-size="21"><path transform="matrix(1 0 0 -1 33 961)" d="m436 356 63-31h294l31 27 58-48-27-21V36L793 5v42H499V31L436 0v356m-92 221 3 4 1-1 27 24 58-48-27-16-16-7-16-22-24-30-42-47-33-33-7 6 10 21 45 92 13 32 2 4h-77V89l-1-13-2-13-4-13-7-12-9-11-10-8-12-7-13-4-13-2-13-1v31l-73 16v15h73l7 1 4 1 4 2 2 2 2 5 1 5 1 6v320l-17-31-24-40-26-38-28-35-30-33-32-30-34-27-7 7 26 34 49 69 23 37 40 77 17 42 16 43 15 45 7 27H9v21h335m449-273H499V67h294v237m5 210 63-52v-22H446v22h299l53 52m52 12-27 28-24 29-26 33-23 35-46 78-22 43-20 47-4 13-18-39-25-47-25-46-28-45-30-43-30-41-33-40-34-37-39-35-6 6 84 126 25 43 48 89 42 93 18 49 20 57 57-29 11-16-19-4-9-20 69-104 53-69 26-31 27-27 25-24 26-22 41-30-57-43-27 23m-626 95-9 18-22 34-12 17-14 16-31 32-18 17-18 16 4 7 24-8 22-11 22-12 19-13 19-14 19-15 4-6 85 134v1H32v21h297l3 2 3 6 2-2 23 21 58-48-26-16-21-8-36-39-31-31-36-33-20-16-3-3 16-17 13-20 14-19 1-24-15-18-24-2-19 16-7 17Z"/></symbol><symbol id="𭿺_S" viewBox="0 0 1000 1000" data-size="21"><path transform="matrix(1 0 0 -1 41 964)" d="m613 656 64-10 15-11-15-9V488h52l53 53 63-53v-21H677V310h127l52 52 63-52v-21H677V31L613 0v289H370v21h243v157H477l-13-23-29-49-17-23-19-22-8 4 46 132 8 27 15 54 15 65 58-26 13-13-20-6-24-65-16-34h127v168m-270-84 3 4 1-1 27 24 58-48-27-16-15-7-17-22-23-29-43-48-33-33-7 6 11 21 44 92 13 32 2 4h-77V84l-1-13-2-13-4-13-7-12-9-11-10-8-12-7-13-4-13-2-13-1v31l-73 16v16h80l5 1 3 2 3 2 1 5 1 5 1 6v320l-16-31-25-40-26-38-27-35-31-32-32-31-34-27-6 7 26 34 48 69 23 37 40 78 17 42 16 42 15 45 7 27H8v21h335m-120 44-9 18-22 34-12 18-14 15-31 32-17 17-19 16 5 7 23-8 22-11 22-12 19-13 20-14 18-15 4-6 85 134v1H31v22h297l3 2 3 5 2-2 23 21 59-48-26-16-22-8-36-39-31-31-36-33-20-15-3-4 16-17 13-20 14-19 1-23-15-19-24-2-19 16-7 17m614 38-6 19-7 18-9 19-6 14-81-22-98-21-86-16-39-6-36-6-42-5-11-17-11 15v5l-1 2v23l-1 5v21l-1 6v1h12l29 38 156 181 44-45 3-19-19 5-116-103-72-57 60 2 39 3 42 3 92 8 51 5 79 7-18 29-25 38-15 18 6 8 40-28 19-16 16-15 31-36 13-19 24-40 8-21-2-24-17-16-24 2-16 18-5 19m-435 55 3-63-13 63h10Z"/></symbol><symbol id="𭿻_S" viewBox="0 0 1000 1000" data-size="21"><path transform="matrix(1 0 0 -1 43 957)" d="m192 396-14-29-25-39-25-37-27-35-30-32-31-30-33-27-7 7 50 67 45 72 20 37 19 40 17 40 16 43 14 44 7 26H8v21h327l3 2v1l28 24 58-48-27-16-15-6-16-23-36-45-29-30-32-32-7 5 10 20 36 75 14 32 7 20h-73V84l-1-14-2-13-5-12-7-12-8-12-10-7-12-7-13-4-13-3h-13v31L88 47v16h95l3 2 2 1 1 1 2 5 1 5v319m373-208 46-43 6-18-20 3-38-31-43-30-25-14-53-28-30-12-31-11-5 8 97 76 39 34 31 32 14 17 8 11 4 6M848 35l-10 14-12 14-14 14-17 15-38 28-46 28-26 15 3 9 30-6 27-8 26-9 26-10 22-11 22-12 19-13 18-15 16-16 15-16 4-24-14-20-23-5-20 14-8 14M618 914l63-10 15-10-15-10V630h98l32 26 57-47-26-21V228l-63-32v32H520v-37l-64-32v502l64-31h98v284m161-560H520V249h259v105m0 127H520V376h259v105m0 128H520V503h259v106m-561-2-9 18-21 33-25 32-47 48-18 16 5 8 43-19 22-12 20-12 18-15 18-15 5-4 27 44 35 54 20 32 1 2H31v21h290l3 3 2 5 3-2 24 20 57-47-26-15-21-9-36-39-47-46-41-34 16-19 14-17 12-20 2-24-15-18-25-2-17 16-8 17m310 261 53-37 8-17h-20l-39-53-37-46-42-44-45-40-25-19-7 7 83 123 43 72 28 54m308-173-8 17-19 32-24 30-28 32-17 14-17 15 5 8 43-18 20-11 19-11 17-14 33-29 28-34 11-20 1-23-15-19-24-1-18 16-7 16Z"/></symbol><symbol id="𭿼_S" viewBox="0 0 1000 1000" data-size="21"><path transform="matrix(1 0 0 -1 48 963)" d="m789 93 51-35-7-11-9-10-10-9-9-7-11-6-12-5-11-5-13-2-13-2-13-1v31L627 47v16h113l7 1 12 3 6 3 9 7 5 4 5 6 5 6M357 572l3 4 1-1 28 24 57-48-26-16-17-7-28-37-41-47-49-48-8 6 33 61 26 53 7 16 7 16 1 3h-81V84l-2-13-2-13-4-13-7-12-9-11-10-8-12-7-13-4-13-2-12-1v31l-85 16v16h90l5 1 5 2 2 2 1 5 1 5 1 6v324l-19-36-26-39-27-38-29-35-31-33-33-30-35-27-6 7 54 68 24 36 45 74 20 41 18 41 18 42 14 45 8 27H8v21h349m6-475 43-45-22-9-22 10-8 22 9 22m28-29-1 1-11 11-1 1-15 16 8 6 8 7 7 10 8 12 5 14 6 17 6 20 4 20 4 24 2 25 10 1 3-26 4-25 2-22v-22l-1-20-1-20-5-18-7-18-8-16-12-14-15 16m449-10-19 12v1l-4 2h-1l-2 2-2 2-1 1-3 2-2 1-4 3-13 9 8 18 5 17 4 20 3 24 3 28 1 31 1 35v70H522l-63-31v524l63-31h80l2 4 4 27 4 13 2 12 3 14 3 13 2 13 3 12 1 8 4 13 57-29 11-14-22-5-18-28-24-35-10-9-8-9h142l31 26 58-47-26-21V535l-63-31v42H522v-84h275l43 47 53-47v-21H522v-84h292l32 26 57-47-25-16v-15l-1-40-1-36-2-34-3-30-4-27-4-24-6-21-7-20-10-15m-351 62 60-21-17-18-23-1-19 17-1 23m0 0 5 7 4 8 3 9 3 9 1 12 2 13v29l-1 17-4 16 9 3 7-15 8-15 7-15 6-14 5-15 4-15 2-13 1-14v-15l-2-13-3 1-1 1-32 10-24 9m118 35-1 23-1 10-2 11-3 10-4 11-11 21-10 9 6 8 12-7 12-7 11-8 11-8 9-10 9-12 8-13 6-13 6-14 5-16-8-22-20-12-23 7-13 21 1 11m111 43-2 8-2 9-4 9-5 8-6 9-9 10-19 20-14 6 4 9 15-5 15-4 14-4 14-5 12-7 12-8 11-10 9-11 8-11 7-14-3-23-19-15-24 3-14 19v7m40 463H522v-94h236v94M343 851l6 7 2-2 23 21 58-48-27-16-21-8-37-39-70-64-20-15-4-4 30-36 14-20 2-23-15-19-24-2-19 15-9 18-8 18-11 17-25 34-31 32-34 33-19 16 3 7 48-19 22-11 20-14 20-13 18-16 7-6 89 134v1H32v22h311m415-74H522v-94h236v94Z"/></symbol><symbol id="𭿽_G" viewBox="0 0 1000 1000" data-size="21"><path transform="matrix(1 0 0 -1 25 968)" d="M229 897c1-3 2-5 1-6s-3-2-7-2c-7 3-17-2-31-15-16-49-33-93-51-130h193l33 38 70-48c5-4 7-7 6-9-1-1-5-2-12-1H264c1-47 0-110-3-189-1-13-1-22-1-28h127l33 39 70-49c4-3 5-5 4-7-1-1-4-2-10-3H259c-2-31-4-59-7-85-1-5-2-14-5-25-1-9-2-15-3-18 46-22 85-48 118-78 35-33 54-64 57-95 5-30-1-47-20-52-17-5-26 5-27 28-1 22-13 51-34 88-18 31-50 62-97 92-12-59-32-112-60-159C143 118 85 62 8 15L2 26c115 92 182 209 201 350 5 39 9 76 11 111H81c-19 1-35-3-46-12L0 507h215c0 12 0 30 1 55 2 65 3 119 2 162h-87c-1-3-4-7-7-13-1-5-3-8-4-10-21-45-56-95-103-150l-9 10c57 85 98 175 123 271 13 42 17 66 14 73s-8 16-15 26l12 5 87-39m200-76h417l31 39 66-49c5-3 8-6 7-8-1-1-5-2-12-2H711V88c-1-23-7-41-18-54-9-11-36-23-82-34-2 20-10 34-25 42-19 8-47 17-85 26l4 18 41-10c47-10 78-12 94-6 17 7 26 24 26 51v680H506c-17 1-32-4-44-13l-33 33Z"/></symbol><symbol id="𭿾_S" viewBox="0 0 1000 1000" data-size="21"><path transform="matrix(1 0 0 -1 37 960)" d="m250 9-14 28-10 23-1 1-2 4 8 4v246l-20-14-45-29-46-25-47-21-50-17-3 9 43 26 43 27 41 30 41 31 38 34 37 36 35 39 35 41 32 44 31 47 3 4 49-39 8-17h-19l-24-31-37-44-39-41-40-38-2-2V98l-27-14 152 67 72 30 4-8-92-66-119-77-15-9-3-21-17 9m-27 56 27-56-37 52 10 4m508 405 1 1 42-48 3-19-19 6-89-67-40-28-20-11 30-44 35-45 37-39 39-33 42-29 72-36-59-48-49 30-45 35-41 41-38 46-34 50-32 57-27 63-23 67-21 72-15 78 9 3 28-74 27-68 29-63 27-47 27 34 101 112 3 4m88-17-43 15-42 15-38 19-37 19-35 21-32 22-30 25-28 26-20 26h-99l-18-25-42-45-46-40-52-33-58-27-61-22-67-14-70-8-1 10 67 17 62 23 56 25 50 30 45 34 41 39 29 36H32v20h332l23 36 25 52 14 37H209l-22-24-45-40-26-20-28-17-6 6 58 74 16 22 27 44 20 42 7 20 6 19 2 8 57-28 12-15-20-4-14-26-14-22-12-17h457l52 52 63-52v-22H492l-25-61-32-57-5-7h342l53 53 63-53v-20H534l45-27 67-34 35-15 36-14 38-13 40-12 42-9 43-10 46-11-62-57-45 14Z"/></symbol><symbol id="𭿿_J" viewBox="0 0 1000 1000" data-size="21"><path transform="matrix(1 0 0 -1 58 950)" d="M243 445c-41-54-88-100-141-137l-19 16c66 62 117 140 155 236-61-23-135-39-220-49L6 536c116 19 208 51 275 95 81 54 121 124 121 209v61c66-1 99-8 99-21 0-9-13-18-40-26v-19c8-49 38-95 91-137 61 48 111 101 152 161 52-25 78-44 78-57 0-6-10-9-28-9-7 0-13 0-18 1-34-31-88-68-163-110 76-52 175-88 297-106-17-15-33-34-46-58-206 53-329 137-370 254-18-85-77-151-176-198 38-11 57-22 57-32 0-8-14-15-42-20-8-16-19-34-32-54h344l52 63c27-22 51-45 72-68l-11-20H464V345c0-20-1-37-4-51h275l59 72c29-25 55-51 78-77l-10-20H477c43-61 104-108 181-142 61-26 136-45 226-56-22-16-39-37-49-62-186 37-314 119-383 247-15-52-42-95-81-130C296 58 176 16 12 0L0 24c79 11 150 30 210 58 54 24 95 52 124 85 29 34 49 68 60 102H23l-9 25h386c3 18 5 35 5 51v100H243M122 648c-24 0-36 10-36 30 0 17 9 30 28 37 53 23 89 66 109 131l23-6c-4-61-22-111-52-150-23-28-47-42-72-42Z"/></symbol><symbol id="𮀀_S" viewBox="0 0 1000 1000" data-size="21"><path transform="matrix(1 0 0 -1 42 954)" d="M382 0v21h96v860l63-31h216l31 26 59-48-27-20V21h21l32 37 42-37V0H382M184 714h-68l-12-41-13-36-15-34-15-33-17-28-20-24-8 3 9 31 19 62 9 34 8 37 6 37 7 41 6 42 4 44 4 47 1 11 61-17 15-13-18-8-3-28-8-45-10-43-5-19h162l53 53 62-53v-20H246V488l-2-26h55l53 52 62-52v-22H243l-1-23-8-66-1-2 28-25 38-41 33-44 29-45 26-47v-24l-17-17h-24l-17 17-9 23-19 45-23 46-26 46-23 40-7-34-17-57-21-51-26-48-30-41-34-36-39-32L13 1 7 9l35 32 31 33 28 38 22 40 20 45 15 50 12 54 9 57 4 63v19H0v22h184v252m573-431H541V21h216v262m0 273H541V305h216v251m0 272H541V577h216v251Z"/></symbol><symbol id="𮀁_J" viewBox="0 0 1000 1000" data-size="21"><path transform="matrix(1 0 0 -1 44 947)" d="M121 696c-20-68-50-132-87-192l-22 12c44 101 71 227 80 377 67-7 101-18 101-33 0-8-13-17-40-25-7-41-15-79-24-114h149l46 62c23-22 42-46 59-70l-11-17H229V468h59l44 65c24-24 45-48 63-72l-11-18H229c-1-45-4-82-9-112 51-38 91-75 120-113 30-38 45-70 45-95s-12-38-34-38c-13 0-23 10-30 31-21 65-57 126-107 182C189 173 123 74 16 0L0 18c85 83 138 179 159 289 7 39 12 84 14 136H13L3 468h170v228h-52m547-346V109h134l47 66c24-24 45-48 62-71l-11-20H480V4h-57v843c25-12 47-24 67-36h281l46 61c24-22 45-44 62-65l-10-21H668V581h95l37 46c40-31 60-51 60-60 0-4-3-8-9-12l-24-17V305h-54v45H668m-188 25h293v181H480V375m0-25V109h133v241H480m0 231h133v205H480V581Z"/></symbol><symbol id="𮀁_S" viewBox="0 0 1000 1000" data-size="21"><path transform="matrix(1 0 0 -1 30 959)" d="M480 68V32L417 0v877l63-32h328l52 52 64-52v-21H696V611h122l32 27 57-47-26-22V292l-63-31v63H696V90h128l53 53 62-53V68H480M163 725h-56l-11-41-11-37-14-34-14-31-17-28-18-26-7 4 15 60 16 66 7 36 7 38 4 40 5 42 4 45 4 47 1 12 62-18 14-12-17-8-4-27-7-46-10-43-4-19h134l52 53 63-53v-20H226V499l-1-26h35l52 51 63-51v-22H224l-2-22-7-67-1-5 23-23 19-21 32-42 29-44 26-46 11-24-1-24-17-17-24 1-17 18-16 46-18 46-33 67-13 23-6 12-5-28-16-58-19-52-23-46-28-42-31-37-36-30-39-24-5 8 31 31 27 34 24 37 20 40 18 46 15 49 9 54 8 57 4 64v19H0v22h163v252m471-401H480V90h154v234m184 267H480V345h338v246M634 824H480V611h154v213Z"/></symbol><symbol id="𮀂_S" viewBox="0 0 1000 1000" data-size="21"><path transform="matrix(1 0 0 -1 43 953)" d="M194 713h-74l-13-41-12-37-16-33-16-33-18-28-20-24-8 4 10 30 21 62 9 34 7 37 8 38 7 40 6 42 5 44 6 58 60-18 16-12-19-8-4-28-8-45-10-43-5-19h179l52 53 63-53v-20H258V487l-2-26h64l53 52 63-52v-22H255l-2-23-8-66-1-2 29-25 40-41 19-21 32-44 15-23 26-48 1-24-16-17h-25l-17 16-8 24-21 44-24 47-56 88-7-36-17-57-23-52-26-47-32-42-36-36-40-31L13 0 8 8l38 32 32 33 28 38 25 41 20 45 17 49 13 54 8 57 5 63v19H0v22h194v252m657-594 63-53V46H331v20h467l53 53M451 722l63-32h243l31 26 58-47-27-21V185l-62-32v63H514v-63l-63-32v601m306-273H514V237h243v212m0 220H514V470h243v199m83 206 53-47v-21H384v21h413l43 47Z"/></symbol><symbol id="𮀃_J" viewBox="0 0 1000 1000" data-size="21"><path transform="matrix(1 0 0 -1 45 946)" d="M117 696c-20-69-49-133-87-192L8 516c44 101 71 227 80 377 67-7 101-18 101-33 0-9-13-17-40-26-7-40-15-78-24-113h125l46 62c22-23 42-46 59-70l-11-17H211V468h37l44 65c24-24 45-48 63-72l-11-18H211c-1-38-4-75-9-112 39-24 69-50 93-76 30-35 45-66 45-95 0-25-12-38-34-38-12 0-22 10-30 31-23 64-50 112-80 145C172 173 112 74 16 0L0 18c71 74 118 170 141 289 8 44 13 89 14 136H15L5 468h150v228h-38m386-557v428c60-3 90-11 90-24 0-8-12-17-36-26V369h33l36 61c20-22 36-44 48-66l-12-20H557V152c45 12 90 25 135 39l2-26C586 120 485 85 392 60c-3-22-8-33-13-33-11 0-24 27-40 81l42 6v364c59-2 89-10 89-22 0-8-12-17-36-26V124c23 4 46 9 69 15m164 470H348l-11 25h329c-3 59-4 145-4 258 63-3 94-12 94-25 0-8-13-17-38-27 0-84 1-152 3-203h80l42 51c19-15 36-31 50-48l9-10-11-18H722c6-162 25-289 58-379 25-69 43-104 54-104s25 60 44 180l24-11c-11-90-16-151-16-182 0-35 8-59 23-72-8-23-22-34-43-34-19 0-44 22-73 66-29 43-52 95-71 155-29 91-47 217-55 378m169 95c-19 0-29 12-30 36-1 29-16 60-46 94l15 15c63-36 95-72 95-111 0-23-11-34-34-34m-456 38-11 25h162l44 57c24-21 44-42 60-63l-11-19H380Z"/></symbol><symbol id="𮀄_S" viewBox="0 0 1000 1000" data-size="21"><path transform="matrix(1 0 0 -1 38 954)" d="m493 333 5 30 3 25v24l-1 24-3 25-5 24-6 26-7 26-10 26-11 28 2 2-5 2 6 30 7 28 8 28 17 78 6 24 8 47 1 4h-76V314h34l6 1 6 1 3 1 3 1 2 2 1 2 3 2 1 4 2 5M878 84V71l-2-12-4-12-5-11-7-11-9-8-11-7-12-4-13-3-11-1v29l-81 15v14h81l5 1h4l2 2h1l2 4 1 4 1 6v7h58M592 664l57-29h67l26 26 53-47-26-16V310l-53-27v58h-67v-63l-57-29v415m124-50h-67V362h67v252M557 331l-3-14-4-12-6-12-8-11-9-10-10-7-12-6-13-4-13-2-13-1v31l-34 13V31L368 0v440H220l-1-22-7-66-1-6 22-23 19-20 32-42 29-45 24-46 11-24-1-24-17-17-24 2-17 18-15 45-18 46-22 45-23 47-6 9-5-27-14-57-20-51-22-48-28-42-31-36-34-31L12 1 6 9l31 31 26 33 24 38 20 40 17 45 14 50 10 54 8 57 3 64v19H0v22h159v252h-53l-11-41-12-36-13-34-13-32-17-28-18-25-8 3 15 60 16 66 7 37 6 38 5 40 4 42 5 45 2 47 1 11 63-17 14-12-17-9-4-27-8-46-8-43-5-19h129l53 53 62-53v-20H223V488l-2-26h32l53 52 62-52v425l64-32h78l31 27 58-48-26-16h235l52 53 64-53v-20h-46V84h-58v714H565v17l-25-71-20-49-26-51-15-27-13-21 20-23 18-24 15-25 12-26 10-27 8-28 5-27 3-28 1-29-1-28Z"/></symbol><symbol id="𮀅_G" viewBox="0 0 1000 1000" data-size="21"><path transform="matrix(1 0 0 -1 26 976)" d="M192 911c1-7-2-10-9-10-5 2-13-4-26-17-3-11-8-28-15-52-9-29-15-51-19-64h145l33 39 67-49c5-4 7-7 6-9-1-1-5-2-13-1H230c1-87-1-163-4-227h78l32 39 57-49c5-4 7-7 6-9-1-1-5-2-12-1H225c-2-33-5-63-8-92-2-21-5-42-9-63 39-23 70-47 95-72 29-29 47-58 52-87 5-27-1-43-16-48s-24 5-29 28c-6 27-17 53-33 79-15 28-40 56-73 83-11-46-27-91-48-135C128 132 80 72 11 13L7 27c93 105 148 227 167 366 3 19 7 55 10 108H78c-15 1-30-3-45-12L0 521h185c3 61 4 137 3 227h-73c-3-10-7-20-11-30-17-49-43-98-78-147l-8 7c40 85 69 176 88 273 7 37 9 58 6 65-1 1-2 4-3 8-3 8-5 14-7 18l7 5 83-36m252-88c2 14-5 28-20 42l9 9 73-37c10-3 12-7 7-12-13-3-24-9-32-18V680h157v219c1 11-7 24-25 41l8 11 75-34c5-1 7-2 8-4s1-4-2-6c-11-3-20-9-26-18V680h158v146c1 9-9 24-30 45l9 11 81-35c9-3 11-7 6-10-13-5-23-12-29-21v-95l4-53c1-21-13-36-41-45v37H484l-20-28-41 34c11 9 18 19 21 29v128m445-462V125c1-41-2-69-10-84-7-16-26-28-56-36 0 21-30 39-90 52l2 16c47-9 77-12 91-11 15 1 22 18 22 49v264H746V126l2-8c1-23-14-37-46-43 3 24 6 56 7 97v203h-99V111l2-9c3-24-13-38-46-43 3 23 6 56 7 98v218H473V105l5-60c1-24-16-39-51-45 3 26 6 76 7 151v233c-3 11-8 22-15 31l12 11 31-31h104l54 136H471c-18 1-33-4-44-13l-34 33h451l31 38 67-48c5-3 7-6 6-8-1-1-5-2-12-2H668l-77-136h241l32 33 45-36c5-4 8-8 8-11s-3-5-8-7l-20-13Z"/></symbol><symbol id="𮀆_S" viewBox="0 0 1000 1000" data-size="21"><path transform="matrix(1 0 0 -1 41 958)" d="M178 713h-65l-11-41-13-36-14-34-15-32-18-29-19-24-7 4 17 60 9 32 17 71 6 37 6 41 5 42 5 44 3 47 2 11 60-17 15-13-17-8-4-27-8-46-9-43-5-19h154l53 53 64-53v-20H240V487l-1-26h49l52 52 63-52v-22H237l-1-22-7-67v-4l25-23 19-20 35-43 31-44 27-46 11-24v-24l-17-17h-23l-18 17-7 24-9 22-21 45-24 46-26 47-9 14-6-32-17-57-20-51-26-47-29-42-34-36-37-32L12 0 7 8l34 31 29 34 27 37 22 41 19 45 15 49 12 54 8 58 4 63v19H0v22h178v252M367 24v22h242v173H431v21h178v163H483v-37l-63-31v268l63-32h126v100h-42v-16l-63-32v163H367v21h137v110l63-10 16-11-16-9v-80h142v110l62-10 16-11-16-9v-80h52l43 47 53-47v-21H771V660l-62-31v42h-37V571h121l31 26 58-47-27-21V382l-62-31v52H672V240h63l52 53 64-53v-21H672V46h131l52 53 64-53V24H367m242 526H483V424h126v126m184 0H672V424h121v126m-84 236H567v-95h142v95Z"/></symbol><symbol id="𮀇_J" viewBox="0 0 1000 1000" data-size="21"><path transform="matrix(1 0 0 -1 33 949)" d="M468 214c-16-42-39-77-70-104-42-36-93-63-152-80C201 16 141 7 69 0L57 24c78 11 142 26 189 46 46 19 85 45 115 78 22 24 38 50 48 78H38l-9 25h388c6 24 9 49 9 76v37H270c-31-34-73-70-126-107l-19 16c71 61 117 130 138 206 58-14 87-28 87-41 0-8-14-14-42-20-4-6-10-16-19-29h362l52 63c27-22 51-45 72-68l-11-20H485v-37c0-28-2-54-7-76h286l59 72c28-25 54-51 78-77l-10-20H495c50-53 111-92 182-117 60-21 135-35 224-41-23-16-39-37-49-62-173 23-301 92-384 208M149 674c-30-58-74-115-133-171L0 520c63 76 110 158 140 244H23l-10 25h136v108c60-2 90-11 90-26 0-8-13-16-38-24v-58h55l36 49c18-19 33-38 43-56l-10-18H201v-40c67-18 101-38 101-61 0-20-8-30-24-30-11 0-19 5-23 14-9 16-27 32-54 48V450h-52v224m242 19c-24-38-53-72-86-102l-21 15c66 83 109 180 130 291 57-10 85-21 85-32 0-9-13-15-38-20-5-18-10-31-13-39h82l30 36c37-28 56-46 56-54 0-4-4-8-11-12l-20-13c-20-70-47-128-79-174-36-51-82-95-140-132l-19 17c56 47 99 100 130 156-5-3-10-5-16-5-10 0-18 5-22 15-9 19-25 37-48 53m12 20c55-19 82-39 82-62v-5c22 44 37 89 45 135h-92c-12-28-24-50-35-68m344 68v113c59-3 88-12 88-26 0-8-12-16-36-24v-63h24l40 51c20-20 37-39 51-59l-10-17H799V620h44l40 51c20-20 37-39 51-59l-10-17H799V447h-52v148H643c0-3-3-17-8-41l-52 5c13 52 21 104 25 157 53-4 79-12 79-26 0-5-11-13-33-23-1-13-3-29-6-47h99v136H640l-12 25h119Z"/></symbol><symbol id="𮀈_S" viewBox="0 0 1000 1000" data-size="21"><path transform="matrix(1 0 0 -1 35 966)" d="M194 490h-73l-15-30-12-24-16-24-15-21-19-19-20-16-6 6 31 67 16 48 8 26 7 27 5 29 5 30 4 25h-1l3 16 60-20 14-12-19-8-3-13-7-32-10-29-2-4h176l52 51 63-51v-22H258V338l-1-15h63l53 52 63-52v-21H254l-1-15-8-45 46-27 19-13 34-28 16-14 15-15 26-31 4-23-13-21-24-4-19 14-8 16-20 30-11 17-39 48-31 35-9-31-17-40-24-36-27-32-31-29-36-24-40-19L13 0 9 9l38 23 33 25 29 26 24 29 20 32 16 33 13 35 7 39 5 42v9H0v21h194v167m539 163 53-47v-21h-93V470h78l53 52 63-52v-21H693V317h78l32 26 57-47-25-21V51l-64-31v52H552V35L488 4v345l64-32h78v132H445v21h185v115h-95v21h155l43 47m38-357H552V93h219v203m73 311-28 23-25 23-24 27-22 27-20 29-20 32-17 33-13 33-12-23-22-40-26-40-27-36-28-35-31-33-33-30-34-29-37-25-6 7 58 66 51 69 24 36 42 75 18 40 17 40 16 43 2 7 57-30 11-14-20-4-9-22 29-40 44-53 22-24 24-22 24-20 25-18 26-17 51-28-59-46-28 19M30 682l-1 1 1-1m4-43v2-2m0-5-15 61 9 1h12l83 128 29 51 31 58 51-37 9-17h-19l-24-34-38-49-39-45-20-22-22-20-13-11 27 1 35 2 36 2 77 4 83 3 43 1h9l-20 40-34 58-24 38 7 6 18-12 19-15 17-15 17-18 16-19 30-40 14-22 26-47v-24l-17-17h-24l-17 17-21 53-56-11-82-16-112-19-79-11-9-18-13 15Z"/></symbol><symbol id="𮀉_S" viewBox="0 0 1000 1000" data-size="21"><path transform="matrix(1 0 0 -1 32 965)" d="M640 362H442v21h198v152H525v21h170l53 52 63-52v-21H702V383h90l53 53 62-53v-21H702V84l-1-14-2-12-4-13-7-13-8-10-11-8-12-7-12-4-14-2-13-1v31L514 47v16h110l5 1 5 1 2 2 1 2 1 3 1 5 1 7v278m-446 93h-74l-14-28-13-24-15-21-16-19-18-17-20-14-6 6 21 41 10 21 9 22 8 22 8 25 6 24 6 27 5 27 3 22h-1l3 17 60-22 14-12-19-7-3-11-8-29-10-27v-2h175l52 52 63-52v-21H258V315l-1-13h63l53 52 63-52v-21H254l-1-12-8-42 26-12 19-11 37-24 17-13 44-40 12-15 5-23-12-20-24-5-20 13-17 27-11 15-22 29-28 32-30 31-10-27-18-38-23-34-27-30-32-25-35-23-40-17L13 4l-4 9 38 22 34 23 28 25 25 26 19 29 17 30 12 33 7 35 5 38v7H0v21h194v153m330-162 55-32 10-16-20-3-34-60-15-26-35-47-17-22-20-21-20-20-22-18-7 6 66 122 35 76 21 53 3 8M849 92l-16 44-19 43-11 20-38 62-15 20 6 7 21-14 21-15 19-19 18-17 16-21 15-20 14-23 13-23 11-24 11-25-2-24-18-15-24 2-16 18-6 24m5 458-25 24-23 28-24 30-22 33-23 37-43 82-17 39-13-32-22-47-25-44-25-41-28-38-29-34-31-31-32-28-35-23-6 8 27 30 50 65 23 36 23 38 20 41 20 43 17 47 17 47 18 61 57-27 12-14-19-6-8-24 60-88 52-68 49-53 24-23 23-18 40-28-57-44-25 22M21 618v14l-1 2v10l-1 2v2l68 3v196l63-10 16-11-16-10V654l59 4 20 1v272l63-11 16-11-16-9v-95h64l33 36 42-36v-22H292V663l105 6 52 2 2-10-52-12-48-10-93-18-126-20-74-11-12-2-11-18-12 16v1l-1 8v12l-1 7v4m-2 30 4-62-15 60 11 2Z"/></symbol><symbol id="𮀊_G" viewBox="0 0 1000 1000" data-size="21"><path transform="matrix(1 0 0 -1 33 975)" d="m545 472 8 6c26-17 43-34 51-52 7-19 8-36 4-49-3-13-10-20-21-19s-16 8-14 22c1 13 0 27-3 44-4 18-12 34-25 48m125 7 8 7c27-15 46-29 56-42 14-14 22-27 23-38 2-13 1-22-3-29-4-9-11-13-20-12s-13 9-13 23c-1 14-5 28-12 43-7 17-20 33-39 48m135-3 4 8c24-7 48-20 73-39 25-18 40-33 45-44 7-14 9-27 6-40-3-12-9-18-19-19-10 0-16 7-18 21-2 17-10 36-25 55-21 26-43 45-66 58m-367-2h15c2-28 2-51-1-68-3-13-9-31-19-52-9-14-21-24-36-29-15-4-24 0-28 11-6 10-2 19 12 28 13 5 25 16 36 35 12 19 19 44 21 75m40 254v-86h165v86H478m365 0H678v-86h165v86M678 628v-90h165v90H678m-200 0v-90h165v90H478m235 212H521c-20-29-43-56-68-81l21-15h177l62 96m95-532H511V201h297v107M511 187V76h297v111H511M204 905c1-1 1-3 2-4 1-3-2-4-7-4-1 1-2 1-4 1-7 0-15-5-26-16-11-43-26-89-43-136h149l31 38 66-48c5-3 7-5 7-8 0-1-3-2-8-2H233v-96c0-51-1-97-3-138h73l25 36 61-46c5-3 7-5 7-8 0-1-3-2-8-2H229c-1-6-1-14-2-25-2-39-5-68-9-87 106-63 161-125 164-186-1-20-9-30-24-31-7 0-16 12-25 37-25 70-65 125-118 164C190 212 119 105 4 22L0 35c116 102 179 248 188 437H75c-16 0-29-4-40-13L1 492h188c2 39 3 85 3 137v97h-72c-25-71-55-132-90-183l-12 7c58 133 94 250 107 351 1 11-4 23-14 36l9 8 84-40m262-545 34-37h299l25 28 46-31c6-4 6-9-1-14-1-1-1-2-2-3l-19-12V81l3-43c-1-11-4-19-10-22-5-4-16-7-33-8v52H511V39c-1-11-5-20-13-25-6-6-18-11-36-14 1 4 1 10 2 17 3 36 5 65 5 87v208c-2 13-8 25-17 36l14 12m56 590 55-29c12-7 15-12 8-14-12-1-20-4-24-8-8-12-16-24-23-35l-5-6h178l25 29 48-45c1-4 1-7 0-9-2-2-5-2-10-1-11-2-22-6-31-13-9-8-20-20-31-35l-11-11c-8-7-17-17-27-29h157l26 30 41-34c4-3 5-5 4-8-1-2-4-4-10-5l-14-11V569l2-44c-1-12-5-20-11-23-9-5-18-7-26-7v27H478v-9c1-6-2-12-8-17-6-7-17-11-33-14 3 25 5 52 6 82v167c0 7 0 12-1 16-25-25-49-44-72-58l-6 8c48 49 86 97 113 143 23 37 37 64 42 79 1 7-2 16-7 27l10 4Z"/></symbol><symbol id="𮀋_G" viewBox="0 0 1000 1000" data-size="21"><path transform="matrix(1 0 0 -1 23 973)" d="M156 212h144v338H156V212M1 838h326l31 39 66-49c5-4 7-7 6-9-1-1-5-2-12-1H224c-9-81-29-163-62-248h122l33 39 51-48c4-4 5-7 4-10s-4-5-10-6l-18-9V239l4-62c5-27-11-41-48-42v57H156v-49c1-23-16-38-51-45 3 26 6 78 7 155v209C81 407 47 362 10 327l-10 8c45 62 82 129 112 202v32c-3 15-9 29-18 41l15 12 23-28c25 70 42 145 50 224H78c-19 1-33-4-43-13L1 838m558 108 102-27c5-1 8-3 9-6 1-1-1-3-4-5-9-3-20-9-33-20V777c1-49-1-96-4-143h178l34 45 67-54c5-5 7-8 6-10-1-1-5-2-12-1H666c13-73 30-149 50-227 25-90 62-167 109-230 17-23 36-42 55-58 17-13 42-27 74-40l-2-13c-24 3-40 4-47 1-10-1-21-7-33-18-39 31-77 79-114 142-33 61-57 124-74 188-20 80-34 165-41 255h-15c-2-39-6-84-13-135-17-109-47-200-91-272C481 135 405 66 298 0l-10 14c89 65 156 135 201 210 46 81 76 189 89 326l5 64H462c-18 1-33-4-44-13l-33 33h200l3 100v154c-7 19-19 34-36 46l7 12Z"/></symbol><symbol id="𮀌_K" viewBox="0 0 1000 1000" data-size="21"><path transform="matrix(1 0 0 -1 45 925)" d="M81 784h291l39 38 40-31c10-7 13-13 9-18-4-4-11-6-21-6H249c6-6 8-10 5-13-4-3-12-4-25-4-20-60-39-109-54-147-18-38-35-67-50-89l27-11h150l25 27 36-30c16-11 20-20 14-26-5-4-12-6-23-6V190c0-31 0-51-2-59-2-9-9-15-20-19-10-2-17-1-19 3-1 4-1 14 0 30v28H147l1-45c1-18 1-30-1-36-1-6-6-11-14-15-13-4-20-3-23 1-2 3-2 11-2 23l1 10v373c-18-32-36-57-53-75s-34-33-50-45l-6 7c38 50 74 110 107 182 34 60 61 131 80 214H95l-62-1-11 20 59-2m68-596h164v299H149V188m479 275-180-56c-10-20-18-30-23-30-6 0-13 8-22 23l-23 44c23 2 48 6 73 11 7 29 23 97 48 205 23 93 36 157 39 191l45-15c23-7 35-14 35-22 0-7-12-15-35-21-36-132-72-243-107-334l160 26c28 70 50 147 67 230l-2 19 31 35 38-40c19-17 26-29 22-36-4-5-17-7-39-5-14-48-28-92-43-133-17-47-34-90-52-129 29-102 59-178 89-229 37-62 91-116 161-161l-2-10c-20 3-35 2-45-4-9-3-15-11-19-22-53 59-94 119-122 182-24 52-48 127-73 222-51-101-112-184-182-249C386 81 291 30 182 1l-6 8c142 59 256 147 344 263 43 59 79 123 108 191Z"/></symbol><symbol id="𮀍_G" viewBox="0 0 1000 1000" data-size="21"><path transform="matrix(1 0 0 -1 22 915)" d="M159 121h145v322H159V121M17 774h291l30 38 63-45c7-5 10-9 8-11-1-2-8-3-19-2H238c-15-104-41-201-79-291h134l28 34 49-42c5-4 6-8 5-11s-4-5-11-6l-19-9V171l7-64c1-36-15-56-48-61v55H159V45c1-25-15-40-49-45 5 38 7 74 8 107v268C87 318 51 270 9 231l-9 8c41 53 80 125 117 214-3 16-9 30-18 41l15 11 15-19c33 86 54 175 65 268H94c-17 0-32-4-44-13l-33 33m425-332h193v329H498c-17 1-32-3-43-12l-34 32h400l31 39 66-49c5-3 7-6 6-8-1-1-4-2-11-2H680V442h123l31 39 67-49c5-3 7-6 6-8-1-1-5-2-12-2H680V42h171l31 39 67-49c5-3 7-6 6-7-1-2-5-3-12-3H467c-17 1-32-3-44-12l-33 32h245v380H519c-17 1-31-4-43-13l-34 33Z"/></symbol><symbol id="𮀎_G" viewBox="0 0 1000 1000" data-size="21"><path transform="matrix(1 0 0 -1 28 974)" d="m326 919 68-44c4-3 6-6 6-8 0-1-2-2-7-3-16 1-28-4-37-15-79-99-181-178-308-238l-7 12c63 39 114 76 154 112 32 27 63 59 93 94 26 31 38 51 37 58-1 1-1 3-1 5-2 8-5 14-8 18l10 9m617-216-1-14c-41-1-67-13-77-34-51 19-89 37-115 54-23 14-49 34-78 59-52 45-90 103-113 174l4 6 53-15c7-1 10-3 10-6 1-2-2-5-7-8-12-3-17-11-14-23 27-38 50-66 69-83 17-17 40-34 68-53 26-15 50-27 71-35 27-10 66-17 116-21 6-1 11-1 14-1m-268-12c-5-60-12-105-21-135-8-23-18-39-30-48-11-11-35-21-72-30-1 13-7 23-16 30-13 8-37 17-73 27l3 15c39-8 64-12 76-13 17-1 31 0 44 3 24 1 40 55 48 162H440c-17-49-36-88-59-115-32-39-69-68-110-88-38-19-89-36-154-52l-4 14c55 18 103 39 144 62 35 20 65 47 90 81 20 29 36 61 48 98h-92c-17-2-28-7-34-15l-29 34h379l25 29 53-29c5-4 8-7 8-10 0-2-3-4-8-7l-22-13m37-430H295V89h417v172M33 415h767l31 41 67-47c7-5 10-9 8-11-1-2-8-3-19-2H403c-33-45-70-84-109-116h407l26 32 48-40c5-3 6-7 5-10s-4-5-11-6l-16-8V100l4-39c1-13-2-23-10-29s-20-10-35-11v50H295V42c0-12-4-22-13-29-7-5-19-9-35-13 3 24 5 65 7 124v123c-3-3-8-6-14-10-3-1-4-2-5-3-79-55-156-95-231-119l-4 10c57 27 122 67 195 118 19 14 37 28 54 41-3 8-8 16-13 25l15 10 16-19c27 23 55 55 86 96H108c-19 0-33-4-42-12l-33 31Z"/></symbol><symbol id="𮀏_S" viewBox="0 0 1000 1000" data-size="21"><path transform="matrix(1 0 0 -1 39 957)" d="m830 914 63-53v-20H460V66h347l52 52 63-52V45H460V29L402 0v891l58-30h317l53 53m-510-77 64-53v-20H243l-14-53-15-56-19-55-20-54-15-34 7-4h110l29 26 55-48-26-18V71l-58-29v61H167V40L104 8v387l-31-54-31-48-33-46-9 4 71 154 22 52 11 34v48l14-8 27 84 14 55 13 55 7 39H28v20h241l51 53m-43-351H167V124h110v362m258 202 63-32h168l31 27 57-47-26-22V251l-62-31v63H598v-63l-63-32v500m231-52H598V304h168v332Z"/></symbol><symbol id="𮀐_J" viewBox="0 0 1000 1000" data-size="21"><path transform="matrix(1 0 0 -1 35 948)" d="M545 342c1 7 1 17 1 30v366c60-1 90-9 90-22 0-8-11-17-34-28V373c0-85-23-161-69-228C489 81 428 33 351 0l-14 21c62 34 112 79 148 137 30 47 49 98 57 154-44-26-95-51-153-76-3-26-8-38-16-38-14 0-29 26-45 80 29 6 52 11 69 16v524c16-6 36-15 60-26 49 27 94 62 134 105 43-25 64-44 64-57 0-7-6-10-20-10-5 0-13 1-23 3-41-25-94-49-161-71V308c21 7 53 18 94 34M157 521l19-10h83l35 46c38-32 56-52 56-60 0-4-3-8-8-12l-21-15V66h-55v64h-98V22h-56v398c-28-55-59-106-92-151L0 283c79 134 132 299 160 495H29l-8 25h254l49 63c25-23 47-47 66-71l-12-17H224c-18-101-41-187-67-257m11-35V155h98v331h-98m567 291V10h-57v820c25-11 45-20 61-28h94l36 45c40-30 60-50 60-60 0-4-3-8-9-12l-26-16V241c0-47-28-73-83-78 1 28-19 47-60 55v25c15-2 33-3 56-3 21 0 32 10 32 31v506H735Z"/></symbol><symbol id="𮀑_S" viewBox="0 0 1000 1000" data-size="21"><path transform="matrix(1 0 0 -1 47 952)" d="m673 903 62-10 16-11-16-9V384h92v362l63-11 15-10-15-10V331l-63-31v62h-92V31L673 0v903m-92-590-7-55-11-52-14-45-18-41-22-36-27-30-29-25-33-16-35-12-4 9 29 19 26 23 21 25 19 28 14 34 13 37 9 42 7 47 2 51v46h-93v-62l-58-29v475l58-11 14-10-14-10V384h93v519l64-10 16-11-16-9V373l-4-60M289 861l64-52v-21H214l16-7 13-13-18-6-9-32-16-50-17-49-20-49-12-28 5-2h100l29 26 55-48-26-18V142l-58-29v61H156v-64L93 79v358l-25-42-29-44-31-43-8 5 64 142 20 48 9 25v55l16-9 24 73 25 99 9 42H31v21h206l52 52m-33-331H156V194h100v336Z"/></symbol><symbol id="𮀒_S" viewBox="0 0 1000 1000" data-size="21"><path transform="matrix(1 0 0 -1 37 966)" d="m863 436 63-53v-21H321l21-13 9-18-22-1-9-15-25-29-27-27-2-1 19-11h468l31 26 58-46-27-22V48l-62-32v52H285V31L223 0v224l-18-12-35-20-38-17-40-14-43-12-46-7-3 9 42 18 39 19 36 18 33 21 30 21 27 23 23 25 22 26 19 28 6 12H2v21h286l1 1 1-1h521l52 53M753 227H285V90h468v137M13 499v21h420v126H112v21h321v115l62-11 16-9-16-10v-85h205l53 53 62-53v-21H495V520h305l53 52 62-52v-21H13m798 373 62-53v-21H55v21h703l53 53m-346-34-10 9-21 19-14 10-65 39-19 9 3 9 21-4 21-2 19-5 20-5 18-5 17-6 17-7 15-7 15-9 14-9 9-21-7-23-23-11-22 9-8 10Z"/></symbol><symbol id="𮀓_S" viewBox="0 0 1000 1000" data-size="21"><path transform="matrix(1 0 0 -1 33 958)" d="M623 543H385v20h410l53 53 63-53v-20H686V84l-1-13-2-13-4-13-6-12-10-11-10-7-12-7-13-5-13-2-13-1v31L497 47v16h111l5 1 5 2 2 2 1 2v3l1 5 1 6v459M321 850l64-53v-21H230l18-7 13-14-19-6-26-81-20-50-20-49-13-27 4-2h112l33 26 57-47-26-21V130l-64-31v63H167V99l-63-32v367l-31-51-31-44-34-43-8 6 49 94 44 96 11 28v51l17-8 26 74 15 49 13 48 10 42H33v21h237l51 53m-42-331H167V183h112v336m106 130 46-44-23-8-22 7-10 23 9 22m27-26-27 26 5 4 6 6 6 10 6 14 6 16 5 18 6 21 9 51 3 29h9l6-47h165v144l63-11 15-9-15-10V771h164l32 26 58-47-27-16-15-6-6-11-25-37-31-41-10-16-8 4 5 18 8 34 9 30 8 39 1 2H454l1-14v-45l-2-19-3-19-5-16-6-17-8-15-19 18Z"/></symbol><symbol id="𮀔_U" viewBox="0 0 1000 1000" data-size="23"><path transform="matrix(1 0 0 -1 50 933)" d="M330 74c17 34 32 65 45 93s24 55 33 82 18 55 25 82c8 28 16 59 23 92l80-32c1-1 3-2 6-4s5-5 5-10-2-9-5-10-11-4-24-7c-17-35-33-67-48-94-14-27-28-52-42-75-13-23-27-44-41-64s-29-40-45-61l-12 8m255 4v440H378l-12 28h403l47 55 84-64v-21H647V96c0-21-2-37-5-49-3-11-10-20-20-25-4-2-9-4-16-7-6-3-12-5-19-7s-13-4-20-5c-6-2-11-3-15-3-5 0-8 1-9 3-1 1-1 5-1 11 0 12-3 20-8 25s-12 8-22 11l-43 11v15l116 2m265 706H425l-12 27h309l44 55 84-66v-16M699 410c20-17 41-37 62-58s41-44 58-68c18-23 33-47 44-72 11-24 17-48 17-71 0-3 0-8-1-13s-2-11-5-16-6-10-11-14c-4-4-9-6-16-6-11 0-19 4-24 11s-9 16-12 25l-14 54c-7 20-13 38-20 53-6 16-13 32-21 47-8 16-18 33-29 51s-25 39-42 64l14 13m-439 84h-99V196h99v298m-158-74c-13-19-23-34-30-45s-14-20-20-27c-5-7-10-14-15-20-5-5-10-12-17-19l-13 9c1 3 3 5 4 7 1 3 2 5 3 7l31 55c3 5 7 13 12 25 5 13 11 27 17 42 7 16 13 33 19 50 7 18 13 35 18 52 15 48 26 89 31 124s9 65 12 88H10L0 795h284l45 56 80-63v-19H223c-7-34-13-62-18-85-5-22-10-41-15-58s-10-32-15-47-12-32-19-51l8-7h93l27 41 50-46c4-3 8-7 11-11 4-3 6-7 6-10 0-5-4-9-11-11-7-1-13-3-20-4V129l-61-11v52h-99V73l-58-7v354Z"/></symbol><symbol id="𮀕_S" viewBox="0 0 1000 1000" data-size="21"><path transform="matrix(1 0 0 -1 39 955)" d="m718 887-16-9 5-180h109l43 47 53-47v-21H708l12-148 19-136 26-109 27-83 28-61 27-40 17-19 27 113h10l-9-131 21-9 9-23-9-22-22-9-32 7-30 20-31 34-33 48-32 68-29 90-26 114-21 141-12 155H292v21h352l-5 199v13l63-13 16-10m-441-47 63-53v-20H207l17-7 12-14-17-6-25-81-16-50-19-48-13-29 6-2h95l28 27 56-48-26-19V120l-58-28v60h-95V89L89 58v355l-22-40-28-44-30-43-9 5 62 143 27 72v56l16-8 23 72 13 49 11 49 8 43H30v20h195l52 53m86-266 58-28h107l33 26 57-48-26-20V226l-64-32v63H421v-63l-58-29v409m-116-65h-95V173h95v336m281 15H421V278h107v246m258 277-8 23-6 12-12 23-15 23-10 9 5 7 13-6 14-6 12-7 24-19 11-10 10-12 10-13 18-27-1-25-18-16-24 2-16 16-7 26Z"/></symbol><symbol id="𮀖_G" viewBox="0 0 1000 1000" data-size="21"><path transform="matrix(1 0 0 -1 24 971)" d="M251 510H129V187h122v323M4 824h246l30 39 62-46c7-5 10-8 8-11-1-2-7-3-18-2H190c-13-102-31-193-55-274h105l26 31 49-39c5-4 6-8 5-11s-4-5-11-6l-19-9V206l5-88c1-15-2-25-9-31-5-6-17-10-35-12v92H129V85c1-14-2-24-9-30s-19-11-37-15c3 25 6 70 8 133v246c-23-58-50-107-81-147l-10 7c36 68 66 145 91 232v9c-3 13-9 26-18 41l14 11 16-18c19 80 34 163 44 250H81c-17 0-32-4-44-13L4 824m598 15h202l30 39 66-49c5-3 7-6 6-8-1-1-5-2-12-2H664c-8 0-16-3-25-9-2-1-4-2-5-3l-32 32m-31 51c2-2 3-4 4-7-1-3-2-4-4-4-11 3-23-2-36-15-15-22-42-57-80-106-25-33-66-73-121-121l-9 11c34 39 67 80 99 122 24 33 43 62 57 89 16 27 24 44 24 51 1 7-2 15-9 25l7 7 68-52m6-221c5-7 5-10-2-11-10 3-22-2-35-15-23-39-38-65-47-79V99l2-55c1-24-16-39-51-44 3 25 6 73 7 145v352c-9-11-17-21-23-30-29-37-66-76-112-117l-9 12c88 108 146 195 173 262 15 35 23 56 23 63 1 8-2 16-9 25l10 9 73-52m-8-77h280l30 39 66-49c5-4 7-7 6-8s-5-2-12-2H805V90c-1-23-6-41-15-53-7-12-33-24-79-35-2 21-11 35-26 42-13 7-42 16-85 27l4 17 40-9c45-11 76-12 92-5 17 5 26 22 26 50v448H644c-17 1-31-3-43-12l-32 32Z"/></symbol><symbol id="𮀗_S" viewBox="0 0 1000 1000" data-size="21"><path transform="matrix(1 0 0 -1 41 907)" d="M361 0v21h90v514l63-10 15-10-15-10V21h94v662H377v20h231v110l63-9 17-11-17-10v-80h120l43 48 53-48v-20H671V420h83l43 48 53-48v-21H671V21h132l52 52 63-52V0H361m0 787 53-47v-20H260l-15-50-17-52-20-52-21-49-15-31 6-3h121l31 27 58-48-27-21V95l-62-32v42H178V42l-63-31v373l-38-58-33-44-36-43-8 6 54 96 24 48 23 49 14 33v44l15-8 28 78 16 51 14 51 7 33H31v20h287l43 47m-62-325H178V126h121v336Z"/></symbol><symbol id="𮀘_K" viewBox="0 0 1000 1000" data-size="21"><path transform="matrix(1 0 0 -1 85 962)" d="m767 409 54-32c6-6 8-11 6-14-4-4-10-5-18-5H372c5-7 6-12 2-16-5-3-14-5-27-7-9-16-20-28-32-37-10-16-21-32-34-48l19-12h371l26 26 38-35c13-10 18-17 16-23-2-4-11-7-26-8V62c0-3 0-6 1-10 1-8 1-13 0-17-1-3-6-7-15-10-14-6-23-7-26-4-2 2-3 7-1 14v23H299V30c0-6 0-11-2-14-3-3-9-6-20-11-12-5-20-5-24 0-1 5-1 12 0 21l2 9v181c-35-40-74-71-117-96C100 91 56 65 7 42l-7 8c73 40 134 86 183 138 49 45 91 101 126 170H144l-115-2-14 21 129-3h585l38 35M299 76h385v145H299V76m494 717c8-2 14-5 18-8 5-1 10-3 12-5 8-4 8-8 0-11 3 1-8-4-32-16V458c1-10 1-17 0-21-3-5-9-10-19-13-12-4-20-4-25-2-1 3-2 8-2 17l2 11v31H94v-33c1-8 1-12 0-15-4-4-12-8-23-11-11-4-19-3-21 2-3 2-4 10-4 24l2 5v354l62-22c15-5 21-10 18-14-4-5-16-10-36-14V498h655v305l46-10M301 925c32-10 66-23 102-38 24-11 39-25 43-42 0-6 0-10-2-14 0-3-3-7-8-11h207l43 41 68-44-16-14H232l-98-5-20 25 98-3h196c-8 9-14 17-18 23-5 7-16 18-34 31-12 11-33 25-63 40l8 11m173-242c22 12 44 27 65 43 19 16 36 31 51 46l49-17c11-3 18-8 21-14-5-6-17-8-36-6-11-7-25-18-42-31-16-13-36-26-61-39 34-15 68-32 100-49 15-8 27-17 37-28 9-20 8-31-1-34-10-6-28-2-53 14-20 14-40 26-57 37-22 14-43 25-63 31-50-17-101-32-151-46-51-15-113-26-186-33l-3 11c69 12 119 23 150 34 48 16 95 36 141 60-33 13-68 25-107 37-39 13-82 25-129 35l13 13c57-12 107-22 149-31 43-12 81-23 113-33Z"/></symbol><symbol id="𮀙_G" viewBox="0 0 1000 1000" data-size="21"><path transform="matrix(1 0 0 -1 13 954)" d="M307 540H164V209h143v331m75-184-6 13c116 85 190 176 222 273H481c-17 1-31-4-42-13l-24 33h190c16 49 27 111 32 187H523c-16 1-30-4-42-13l-31 33h349l30 38 64-49c5-3 6-5 5-7-1-1-4-2-11-2H682c-4-71-14-133-31-187h200l29 38 63-49c5-3 8-5 7-7-1-1-4-2-11-2H731c9-20 21-41 36-62 44-63 92-107 145-132 16-7 37-12 62-15l-1-15c-43 1-68-7-75-26-60 37-110 91-151 161-16 27-30 57-41 89h-62c-39-118-127-213-262-286m142-5V114h283v237H524m-46 58 34-38h278l34 41 49-49c4-4 5-8 4-11s-4-5-10-6l-17-8V166l5-111c0-15-4-26-13-31-8-6-20-10-35-12v82H524V44c0-13-4-23-13-30-11-7-23-11-36-14 2 25 4 77 6 156v199c-4 17-10 31-17 42l14 12M17 830h307l30 39 61-45c7-5 10-9 9-12-2-2-8-3-19-2H240c-16-93-41-177-75-250h131l29 34 48-42c5-4 6-8 5-11s-4-5-10-6l-19-9V232l5-88c1-15-3-25-11-32-7-6-19-10-36-12v89H164V99c0-12-4-22-12-30-8-6-20-11-37-14 3 20 5 64 7 132v288C86 420 48 376 9 341l-9 8c45 55 86 123 121 202-5 17-11 30-18 40l16 11 15-19c29 74 50 150 61 227H93c-19 0-33-4-43-12l-33 32Z"/></symbol><symbol id="𮀚_S" viewBox="0 0 1000 1000" data-size="21"><path transform="matrix(1 0 0 -1 31 958)" d="m629 917 62-10 17-11-17-9V765h106l53 52 62-52v-21H691V618h117l31 27 57-48-26-21V345l-62-32v64h-64V104h-62v273h-44l-4-52-12-56-17-53-22-47-28-43-34-36-39-32-44-26-48-19-54-13-3 9 49 22 42 26 37 28 31 32 27 35 21 39 16 42 11 47 7 52 1 45h-56v-64l-64-31v367l64-31h110v126H424v21h205v152M766 20l-14 1-14 1-12 5-12 7-11 8-8 11-7 11-4 13-2 14v13h62v-6l1-5 2-5 2-2 5-2 5-1h118l30 131h11L907 83l19-13 12-19-12-19-19-12H766M351 854l62-52v-21H245l19-8 12-14-18-5-29-82-20-49-22-49-14-27 5-2h126l31 26 58-48-27-20V135l-62-31v63H178v-63l-64-32v371l-37-56-34-44-35-42-8 6 78 142 36 77v50l18-9 28 75 16 48 14 50 11 41H35v21h263l53 52m-47-331H178V188h126v335m504 74H519V397h289v200Z"/></symbol><symbol id="𮀛_K" viewBox="0 0 1000 1000" data-size="21"><path transform="matrix(1 0 0 -1 38 921)" d="m769 842 38-32c9-8 13-15 11-21-2-5-8-7-19-8V569l1-17c1-9 1-15-1-18-3-5-9-9-19-13-13-4-20-5-22-2-2 2-2 8-1 19l2 19H659c7-3 10-7 9-10-2-5-8-10-18-15V424h156l43 48 49-43c7-5 9-11 5-15-3-4-9-5-17-5H658c28-67 60-122 99-163 44-49 100-90 168-124l-1-7c-18 2-33 0-45-6-8-4-14-10-20-19-54 46-99 94-134 145-32 46-56 99-75 159V66l3-20c2-10 2-17 0-21-2-6-9-13-20-18-14-7-22-7-26 0-2 3-2 12-1 26l2 19v299c-32-60-71-116-119-168-47-51-96-92-147-121l-5 7c49 39 96 88 140 146 46 63 85 127 114 194H452l-82-5-7 24 73-4h172v132H496l1-17c1-10 0-17-2-20-2-5-9-10-20-15-11-7-19-9-22-7-2 1-2 7-1 16l1 13v281l-3 36 50-32h240l29 31M496 572h262v225H496V572M81 777h229l39 38 40-31c10-7 13-13 9-18-4-4-11-7-20-7H249c5-5 7-9 4-12s-11-4-24-4c-20-60-39-109-55-148-18-43-34-76-49-98l27-11h139l25 27 37-30c15-11 20-20 13-26-4-4-12-6-23-6V184c0-32 0-52-2-59-2-9-9-16-20-19-10-2-16-2-18 3-2 4-2 14-1 29l1 29H147l1-45c1-18 1-30-1-35-1-7-7-12-15-16-12-4-19-4-22 1-2 3-2 11-2 22l1 11v362c-17-22-34-42-49-59-20-22-38-39-55-51l-5 7c46 49 84 108 115 177 29 63 52 136 71 218H94l-61-1-11 21 59-2m68-595h154v288H149V182Z"/></symbol><symbol id="𮀜_K" viewBox="0 0 1000 1000" data-size="21"><path transform="matrix(1 0 0 -1 62 935)" d="M449 741h46c20-99 56-173 109-222-61-58-133-99-215-125l6-13c84 25 160 63 228 116 48-44 97-76 148-98 16-7 27-11 34-11 3 0 6 4 8 12 2 10 14 14 36 14l3 12c-85 19-153 50-204 95 36 31 63 64 81 96 20 33 35 71 45 113 9 2 17 4 25 5 8 2 7 8-3 18l-23 20c-10 8-16 11-19 11l-11-10-13-14H449v-19m65-1h218c-24-88-60-154-107-199-55 46-92 113-111 199M4 343v-20h270C214 220 124 135 4 68l5-14c81 42 140 78 176 108V43c-2-17-3-27-3-29 0-9 3-14 9-14 4 0 9 1 17 4 11 4 17 9 19 15-1 5-1 10-1 14h489c0-3 0-8-1-15 0-6 0-9 1-11 0-2 3-3 7-3s10 2 19 5c10 2 15 7 16 12-1-7-1 0-1 21v127c17 4 25 8 25 14 0 4-3 9-9 15l-25 25c-9 9-15 14-18 14-2 0-7-5-14-15l-11-14H255l-8 6c35 32 64 69 87 109h536l6 14-46 38c-7 6-12 9-14 9s-6-5-13-14l-23-27H4m222-155h489V52H226v136m220 581-5-12H270v-83h43l9 14c4 8 7 12 9 12 4 0 10-3 20-11l24-22c9-8 14-15 14-19 0-5-10-9-31-13C282 499 165 404 6 350l-5 14c71 29 133 65 186 110 53 44 96 104 128 180H140C105 597 62 542 9 489l-9 10c35 41 63 81 83 119 17 33 36 80 57 140l36-19c13-7 20-13 20-18 0-6-8-10-26-11-5-8-11-20-21-36h79v156l-4 40 39-8c19-4 29-9 29-17 0-7-7-12-22-16v-52h98l20 22c7 9 11 14 12 14 2 0 7-4 13-11l33-33M208 521c-2-14-7-22-15-22-6 0-12 5-16 15-10 20-32 45-66 75l6 10c37-17 59-28 68-34 14-11 22-26 23-44Z"/></symbol><symbol id="𮀝_G" viewBox="0 0 1000 1000" data-size="21"><path transform="matrix(1 0 0 -1 59 976)" d="M523 670h286v113H523V670m0-16V540h286v114H523m0-130V410h286v114H523m-363 20V226h143v318H160m-44 63 16-19c25 70 43 144 55 222H91c-17 1-32-4-44-13l-33 33h302l30 39 63-45c7-5 9-9 7-12-1-2-7-3-18-2H232c-14-87-37-169-69-246h128l28 34 49-42c5-4 6-8 5-11s-5-5-11-6l-18-8V261l4-76c5-26-10-40-45-42v63H160v-60c2-25-14-40-47-45 3 25 5 69 6 131v242C87 417 51 369 10 332l-10 8c45 57 84 127 117 210v2c1 1 1 2 2 3-3 15-9 29-17 40l14 12m492 345 65-32c13-7 16-12 9-14-14-1-25-5-33-13-16-37-31-67-45-90h188l30 41 50-41c6-4 9-8 9-11s-3-5-9-7l-20-13V74c0-17-4-32-12-45-7-13-31-23-72-29-3 21-18 35-46 44-28 8-55 14-80 18l2 16c74-11 117-17 130-17s23 2 28 6 8 27 7 70v236C710 235 569 134 384 69l-4 14c165 79 294 181 389 307H464c-13 1-26-3-39-13l-39 33h93v375c2 13-5 27-20 42l11 13 49-37h55l8 26c20 53 29 84 28 91-1 5-4 12-9 23-1 2-1 3-2 4l9 5Z"/></symbol><symbol id="𮀞_G" viewBox="0 0 1000 1000" data-size="21"><path transform="matrix(1 0 0 -1 23 961)" d="M157 210h128v317H157V210m-43 380 15-19c26 78 44 152 54 222H89c-17 1-31-4-43-13l-32 33h273l29 39 62-45c7-5 9-9 7-12-1-2-7-3-18-2H227c-13-87-36-169-67-246h113l27 34 48-42c5-4 6-8 5-11s-4-5-11-6l-17-8V245l3-76c5-26-10-40-43-42v63H157v-60c2-25-13-40-46-45 0 2 0 5 1 9 3 42 4 83 5 122v242C85 401 49 353 10 316l-10 8c43 57 82 126 115 209v2c1 1 1 2 2 3-5 18-11 31-17 40l14 12M302 0l-4 12c98 52 162 115 193 190 20 43 35 112 45 205h-58c-13-1-24-6-33-13l-31 33h304l32 39 51-43c5-7 4-11-3-12-20-3-32-14-35-32l-22-83h93l24 32 46-34c3-3 5-6 4-9s-3-5-8-6c-10-8-15-16-14-24l-2-43-2-31c-3-53-16-93-38-119-13-24-51-44-114-59 3 29-33 56-108 79l3 15c62-19 103-28 123-29 21-1 39 5 53 17 16 14 26 29 29 45 2 9 5 28 8 57 2 11 3 20 4 27l1 62h-92l-36-33-41 47c20 8 32 23 36 44l19 73H582c-9-95-26-169-53-223-27-53-57-92-92-116-29-20-74-43-135-68m486 922 53-57c5-6 8-11 8-14s-3-4-8-5c-25 11-51 11-77 2-27-6-61-12-102-19V712h157l30 39 63-49c5-4 7-7 6-9-1-1-4-2-11-1H692c61-105 148-163 261-176l-2-14c-39 3-60-9-65-34-107 50-178 125-214 224h-10v-83l2-110c1-24-16-39-50-46 3 26 6 61 7 105v134h-19c-19-44-40-79-63-106-33-36-57-60-72-72-23-20-57-42-102-66l-7 12c43 33 73 58 91 75s37 38 58 65c21 28 38 59 51 92h-99c-17 1-31-3-42-12l-32 32h236v111c-45-6-113-11-202-16l-1 14c176 25 277 43 304 53 35 11 55 26 59 45l7 3Z"/></symbol><symbol id="𮀟_G" viewBox="0 0 1000 1000" data-size="21"><path transform="matrix(1 0 0 -1 30 971)" d="M251 536H140V217h111v319M11 827h254l30 39 64-45c7-5 9-9 7-12-2-2-8-3-19-2H211c-13-92-35-176-68-251h99l27 33 45-41c5-4 6-8 5-11s-5-5-12-6l-17-9V245l4-86c1-15-2-25-9-31-11-7-23-12-34-13v82H140v-74c1-13-2-23-10-30-6-6-18-11-35-15 3 25 5 69 7 131v264c-25-41-56-82-93-122l-9 8c36 49 70 112 102 189v2c-4 14-10 27-18 40l15 11 17-21c25 72 43 148 53 227H88c-19 0-33-4-43-12l-34 32m556 86c3-7 2-11-5-13-13-3-23-9-30-19-21-59-42-114-64-163V140l2-95c0-23-16-38-49-45 3 25 6 87 7 185v453c-28-47-63-97-104-148l-11 10c70 113 123 223 158 328 15 50 21 77 18 81-2 8-7 15-14 21l5 12 87-29m154-5c3-2 5-4 5-7 0-2-2-4-6-6-9 2-20-3-31-15-9-26-27-70-54-132-2-5-4-8-5-11h213l29 37 61-45c5-4 7-7 6-9s-5-3-12-3H699V516h113l29 37 61-45c5-4 7-7 6-9s-5-3-12-3H699V298h142l29 37 61-45c5-4 7-7 6-9s-5-3-12-3H699V99l2-56c2-23-15-38-50-43 3 24 6 72 7 145v572h-38c-37-73-74-130-109-171l-8 10c51 85 95 183 132 292 10 36 14 58 11 65-2 7-5 14-9 20l8 7 76-32Z"/></symbol><symbol id="𮀠_J" viewBox="0 0 1000 1000" data-size="21"><path transform="matrix(1 0 0 -1 39 944)" d="M183 522h106l35 46c38-31 57-51 57-61 0-5-2-8-7-11l-22-15V97h-55v64H172V55h-54v377c-29-58-62-111-98-158L0 292c85 134 141 299 168 497H38l-9 25h277l48 60c26-24 47-46 63-67l-12-18H233c-17-93-41-179-71-257l21-10m-11-25V186h125v311H172m299-197v500c13-5 34-13 63-24 91 24 180 61 265 112 45-30 67-51 67-63 0-8-7-12-22-12-7 0-19 2-37 5-81-29-173-52-277-69V600h263l46 65c24-23 45-47 64-72l-12-18H768V300h42l49 66c25-25 46-49 64-73l-11-18H382l-9 25h98m59 0h182v275H530V300M875 14c-11 0-23 11-36 34-38 65-94 124-167 177l14 20c149-67 223-132 223-195 0-24-11-36-34-36M320 0l-15 20c81 55 149 131 202 228 56-27 85-47 85-60 0-8-10-12-29-12-8 0-14 0-20 1C481 99 406 40 320 0Z"/></symbol><symbol id="𮀡_G" viewBox="0 0 1000 1000" data-size="21"><path transform="matrix(1 0 0 -1 16 958)" d="M158 218h123v317H158V218m-45 380 16-19c27 80 44 154 53 222H89c-16 1-30-3-43-13l-32 33h279l29 39 61-45c7-5 9-9 7-12-1-2-7-3-17-2H226c-12-87-34-169-67-246h112l28 34 47-42c5-4 6-8 5-11s-4-5-10-6l-18-8V253l4-76c4-25-11-39-46-42v63H158v-60c1-24-15-39-48-45 3 41 5 85 6 131v242C87 411 51 363 10 324l-10 8c43 57 81 126 114 209v2c1 1 1 2 2 3-4 15-9 28-16 40l13 12m363-139h16c2-43 0-78-6-107s-14-50-23-65c-11-17-24-27-39-32-16-5-28-2-35 10s-3 23 14 33c15 8 30 26 46 54 12 23 21 58 27 107m-54 273h377v126H467c-11 1-24-4-38-15l-33 35h388l36 38 48-46c5-4 7-8 6-11s-4-5-10-6l-20-8V687l6-131c0-12-5-20-15-24-10-5-22-8-36-8v47H471c-17 0-32-4-44-13l-32 33h404v125H498c-17 0-31-4-43-12l-33 28M966 52l1-13c-19 0-34-1-47-2-12-1-21-10-28-26-40 24-78 53-113 87-66 65-112 155-137 269-13-95-43-167-90-218C489 79 402 29 291 0l-4 16c96 37 169 84 220 141s80 128 89 211c9 84 12 129 8 134-3 6-10 14-19 24l8 8 85-26c2-3 3-6 2-7 0-1-1-1-4-1-7-5-15-11-25-17 0-10-1-25-2-44-1-10-1-17-1-22 13-42 26-78 38-109 32 24 66 51 101 81 21 19 34 33 38 41s4 15-1 22l8 6 56-54c5-4 7-7 7-10 0-2-2-3-7-4-18 4-37-1-56-15-19-13-65-42-138-85 23-53 53-96 90-130 25-25 53-49 85-70 30-18 62-31 97-38Z"/></symbol><symbol id="𮀢_G" viewBox="0 0 1000 1000" data-size="21"><path transform="matrix(1 0 0 -1 28 973)" d="M245 531H137V212h108v319m674 282V713c-1-78-6-129-15-154-11-31-25-53-42-65-16-14-37-23-64-28 0 11-6 21-19 29-23 12-52 23-85 34l3 13c7-2 17-5 30-8 27-6 47-11 61-15 35-5 59 6 70 33 14 23 21 72 22 148v122H747c-5-187-71-316-198-388l-6 13c106 83 161 208 164 375h-50c-17 1-29-4-38-14l-32 34h278l32 37 38-35c5-4 8-8 8-11s-3-5-8-8l-16-12M312 699h133v190c-1 14-9 29-25 45l8 11 80-37c12-6 14-11 7-14-13-4-23-9-31-16V699h32l25 34 52-44c5-3 7-6 6-8-1-1-5-2-12-2H484V497l85 55 10-13-95-72V82c-1-21-5-37-14-48-9-12-31-23-66-32-4 18-13 29-27 34-16 5-40 11-72 19l4 17 28-6c43-8 71-9 85-4 15 5 22 21 23 50v327c-15-11-34-26-57-43-11-12-21-27-29-44l-44 38 130 82v207h-54c-18 0-33-4-44-13l-35 33m343-318V113h210v268H655m-41 61 32-41h208l28 30 45-38c4-4 5-8 4-11s-4-5-9-6l-18-9V174l4-108c3-27-11-41-43-43v70H655V45c2-25-13-40-45-45 3 25 5 76 6 155v234c-2 15-8 28-17 41l15 12M11 822h243l29 39 62-45c7-6 9-10 7-12s-8-3-19-2H206c-12-89-34-172-66-251h96l27 33 43-41c5-4 6-8 5-11s-4-5-11-6l-17-9V240l4-86c1-15-2-25-9-31-10-7-21-12-33-13v82H137v-74c1-13-2-23-10-30-5-6-17-11-35-15 3 25 5 69 7 131v264c-24-41-54-82-90-122l-9 8c35 48 68 111 99 189v2c-4 14-10 27-17 40l14 11 17-21c25 71 42 146 52 227H86c-17 0-31-4-42-12l-33 32Z"/></symbol><symbol id="𮀣_K" viewBox="0 0 1000 1000" data-size="21"><path transform="matrix(1 0 0 -1 62 935)" d="m876 30-8-6c-10 5-20 5-30-1-11-5-16-7-17-7-4 0-13 11-26 33-33 54-60 118-83 193-38-73-74-126-108-159-34-34-67-61-99-82l-11 8c34 24 68 56 101 96 33 41 66 100 98 177-15 65-31 146-47 244-11 94-17 174-18 240h-35v20h184l12 14c7 8 11 12 13 12s8-5 17-13l32-26c8-9 12-16 12-21 0-7-11-12-34-16-3-78-13-159-29-243-16-83-38-155-68-217 42-116 90-198 144-246M635 507l-9-14H455V86c0-23-3-39-8-48-4-9-13-16-25-20L376 4c-8-3-14-4-18-4s-5 7-2 21c4 13-2 21-18 25l-64 17 4 10 72-10c17-2 30-3 37-3 12 0 20 3 22 10 2 4 3 16 3 35v388H259v20h153v357l43-9c18-3 26-8 26-14s-8-11-26-16V678h63l25 35c5 7 9 11 12 11s9-5 17-13l38-41-6-12H455V513h80l28 35c6 8 11 13 13 13 5 0 12-5 22-15l37-39m-22-294c-2-20-9-29-19-29-11 0-18 9-21 27-10 51-40 111-92 180l8 9c50-52 82-90 98-114 18-23 27-47 26-73M368 385c16-7 25-13 25-19s-10-11-30-15c-9-39-23-81-42-124-18-43-36-75-53-94l-10 3c33 60 57 149 73 264l37-15m417 381H649c0-58 7-129 19-214s28-161 46-228c19 49 35 115 49 198 14 84 22 165 22 244m-774 3v-20h112C107 590 66 453 0 341l10-8c20 26 41 60 64 102V69c0-6 0-13-1-21 0-9-1-14-1-17 0-10 3-14 8-14s10 2 18 6c11 4 17 8 19 14v78h93c-3-19-4-30-4-32 0-11 4-17 11-17 4 0 9 2 15 5 13 6 20 11 21 16-1-3-1 6-1 26v311c16 4 24 9 24 14 0 4-3 10-10 17l-19 23c-10 10-16 15-18 15-1 0-5-2-9-7l-16-17h-90l-18 14c35 85 58 174 69 266h149l8 15-29 32c-10 10-17 15-21 15-3 0-9-6-17-16l-22-26H11m199-320V135h-93v314h93Z"/></symbol><symbol id="𮀤_G" viewBox="0 0 1000 1000" data-size="21"><path transform="matrix(1 0 0 -1 18 972)" d="M451 636c1-8 1-18 1-29h427l26 31 58-52c1-4 1-7-1-8-1-1-4 0-9 1-19-2-38-15-57-39-4-6-15-20-32-42-7-8-12-14-16-19l-13 4 51 104H452c1-17 1-30 0-39-3-42-17-67-41-76-12-4-21-1-27 9-5 11-2 22 10 33 12 10 21 24 28 42 7 17 12 43 15 80h14m265 307 80-27c7-3 9-7 5-11-15-5-26-12-31-21v-84h82l26 35 57-45c5-3 7-6 6-8-1-1-5-2-12-2H770v-42l4-46c1-23-16-37-51-43 1 5 2 11 3 19 3 27 5 50 6 69v43H588v-42l4-46c1-23-16-37-51-43 0 2 0 5 1 8 5 32 7 59 8 80v43h-66c-16 1-30-3-43-12l-33 32h142v94c-1 11-10 24-25 39l8 10 80-27c8-3 10-7 5-11-15-6-25-13-30-21v-84h144v94c-1 11-9 24-25 39l9 10M158 222h123v317H158V222m302 149-34 34h163v103c-3 11-11 22-24 33l7 10 77-27c7-3 10-5 11-8 1-2 0-4-4-7-9-3-18-7-27-13v-91h166l28 37 46-37c6-4 9-8 9-11s-3-5-9-8l-18-12V250c1-67-2-112-9-135s-20-45-39-65c-21-20-52-34-92-41-1 16-10 30-27 43-25 13-53 22-82 27l2 16c58-11 99-17 124-18 26 1 46 12 60 33 15 20 23 60 22 119v156H628C625 207 530 79 341 0l-5 13c163 91 246 215 251 372h-89c-18 1-31-3-38-14M113 602l16-19c27 80 44 154 53 222H89c-16 1-30-3-43-13l-32 33h284l29 39 61-45c7-5 9-9 7-12-1-2-7-3-17-2H226c-12-87-34-169-67-246h112l28 34 47-42c5-4 6-8 5-11s-4-5-10-6l-18-8V257l4-76c4-25-11-39-46-42v63H158v-60c1-24-15-39-48-45 3 41 5 85 6 131v242C87 415 51 367 10 328l-10 8c43 57 81 126 114 209v2c1 1 1 2 2 3-4 15-9 28-16 40l13 12Z"/></symbol><symbol id="𮀥_K" viewBox="0 0 1000 1000" data-size="21"><path transform="matrix(1 0 0 -1 52 927)" d="M18 775v-20h117c-9-88-28-172-56-252-23-68-50-123-79-165l11-9c23 27 48 62 73 106V59c0-7 0-14-1-22s-1-14-1-16c0-10 3-15 8-15 4 0 10 2 17 6 12 3 19 8 21 14v81h165c-1-26-2-37-2-33 0-11 3-16 10-16 4 0 10 1 16 5 15 5 22 12 22 20 0 1 0 4-1 9-1 4-1 9-1 12v318c17 6 25 11 25 15 0 3-4 10-11 18l-23 23c-10 10-16 15-18 15-3 0-7-3-12-11l-10-13H125l-19 13c36 91 58 171 68 240 20 7 30 12 30 16 0 6-7 12-22 17h207l7 16-33 28c-11 10-19 15-21 15-4 0-10-5-18-16l-15-23H18m275-327V127H128v321h165m592 22c7-8 11-14 11-18s-10-9-29-16V124c0-34-1-54-3-61-4-19-16-34-35-44L801 7c-6-1-11-2-14-2-7 0-11 3-11 9 0 1 1 3 1 7v5c0 12-8 21-24 26l-93 27 5 8 99-19c12-2 22-4 30-4 14 0 22 6 26 17 3 21 4 41 4 60v325H637c12-64 31-120 56-167 33-67 73-112 120-136l-4-8c-14 5-24 5-32 0-1 0-4-3-8-7-5-3-9-5-11-5-6 0-14 7-25 21-48 70-83 139-104 208-13-43-34-88-63-137-30-53-63-94-99-124l-9 6c34 39 65 88 93 149 30 61 49 121 58 181v19H446V12c0-5-6-9-17-11-5-1-9-1-12-1-8 0-13 4-14 11v460l-7 48 53-32h165c-4 35-4 72-1 112H467v20h144l14 11c8 8 14 12 17 12 2 0 6-4 13-12l21-24c4-5 7-9 7-12 0-7-13-10-38-9-5-36-6-68-4-98h177l11 14c6 6 10 10 12 10s6-4 13-10l31-31m8 299-6-14H736v-57c0-10 0-16-2-19-1-3-6-5-16-8-7-1-12-2-15-2-5 0-8 3-8 9v77h-67v19h67v80l34-4c22-6 34-11 34-16 0-4-9-8-27-14v-46h77l18 20c7 7 11 11 15 11 1 0 6-4 15-10l32-26m-270 0-8-14h-93v-57c0-10 0-16-1-18-2-2-7-6-17-10-8-2-13-3-16-3-4 0-7 3-7 10v78h-74v19h74v80l35-4c22-6 33-11 33-16 0-4-9-8-27-14v-46h35l14 16c7 8 12 12 16 12 1 0 6-4 16-13l20-20Z"/></symbol><symbol id="𮀦_S" viewBox="0 0 1000 1000" data-size="21"><path transform="matrix(1 0 0 -1 37 959)" d="m206 226-36-22-37-19-41-16-43-13-46-9-3 10 42 19 39 18 35 22 33 21 31 24 26 24 24 28 22 28 19 30 7 16H2v21h809l52 53 63-53v-21H322l21-13 9-17-20-1-11-17-24-32-27-31-6-4 21-11h468l31 26 58-47-27-21V47l-62-31v52H285V31L223 0v237l-17-11m547 14H285V89h468v151M50 526l-7 28v2l-1 3v3l171 30 63 11 32 4 25 3 2 4 8 33 5 38v2H97v21h252v100H64v20h285v90l62-11 16-11-16-8V724l-4-46-9-43-14-39-20-36-23-34-28-28-34-25-37-21-41-15-46-12-3 10 41 20 36 23 30 23 25 25 22 28 16 29-68-24-129-39-34-10-15-4-7-20-13 14v1l-6 25m498 392 63-11 16-11-16-8v-60h147l53 53 62-53v-20H611V708h141l43 47 52-47v-21H611V576h168l52 53 64-53v-20H611v-79l-63-32v473M42 562l14-62-25 60 11 2Z"/></symbol><symbol id="𮀧_G" viewBox="0 0 1000 1000" data-size="21"><path transform="matrix(1 0 0 -1 25 975)" d="m612 176 2 12c140-36 221-79 244-129 11-25 11-42-2-50-15-7-28 0-37 21-9 19-29 43-61 71-30 25-79 50-146 75m-35 715c6-3 9-6 9-9 1-3-2-5-7-6-8 0-18-4-31-11-43-61-84-109-125-145-23-21-53-44-88-69l-9 12c60 51 116 116 167 193 1 2 3 4 4 7 17 23 19 41 5 53l9 6 66-31m373-167-1-13c-35 1-59-8-72-28-55 30-98 66-129 109-17 19-32 42-47 68-11 23-23 51-35 84l4 5 54-14c7-1 10-2 11-5 1-2-2-5-7-8-12-3-17-11-14-22 21-49 56-91 104-128 3-2 8-5 15-10 14-8 25-14 32-17 23-13 52-20 85-21M577 389l79-32c11-5 14-9 8-12-9 1-19-3-31-12-7-101-38-177-91-228C489 53 405 18 288 0l-2 11c114 33 192 75 235 125 41 48 64 119 69 213-3 12-10 22-21 30l8 10M136 220h120v328H136V220m639 471-3-49c-2-58-11-98-28-119-13-17-41-30-85-41 0 13-8 24-24 32-23 10-45 17-64 20l2 13c47-9 79-14 95-14 21-2 37 7 48 28 7 14 12 36 13 67l4 75H579c-20-108-75-183-165-226l29-32h314l28 32 57-40c4-3 5-7 4-10s-5-5-11-6l-18-7V278l3-73c-1-22-17-35-48-40l5 113v148H451V220l3-31c1-22-15-36-50-41 3 38 5 76 6 115v176c-2 12-6 22-12 30-14-7-29-14-44-19l-8 12c116 64 179 144 190 241h-39c-16 0-28-4-35-11l-30 31h290l27 33 45-39c5-5 8-8 8-11 0-2-3-4-8-5l-19-10M92 613l15-19c21 71 36 151 46 241H83c-16 1-31-3-44-12L5 855h256l31 39 62-45c7-5 10-9 8-12-1-2-8-3-19-2H192c-10-99-29-188-57-267h111l28 34 47-42c5-4 6-8 5-11s-4-5-11-6l-18-9V257l4-76c5-26-10-40-45-42v61H136v-68c2-25-14-40-48-45 3 25 6 68 7 129v251c-26-55-55-98-86-127l-9 8c32 51 63 119 92 203 1 1 1 1 1 2 1 1 1 2 1 3-3 19-9 34-16 45l14 12Z"/></symbol><symbol id="𮀨_S" viewBox="0 0 1000 1000" data-size="21"><path transform="matrix(1 0 0 -1 31 954)" d="m814 36-21 24-23 22-26 21-27 19-15 9-20-23-43-33-49-26-56-21-61-15-69-8-2 9 65 18 57 23 50 25 42 28 35 32 11 13-37 19-34 15-23 8-16-45-70-9 71 206H377v20h184l33 99 55-30 12-15-17-4-17-50h195l53 53 63-53v-20H789l-6-50-13-56-23-50-18-26 42-21 31-21 28-21 27-25 27-26 7-24-12-20-23-7-21 11-21 25M334 846l63-53v-21H238l18-7 13-14-20-6-9-31-38-100-34-76 4-2h118l31 27 59-48-26-21V126l-64-31v63H172V95l-63-32v369l-34-53-32-44-34-43-9 6 74 142 23 48 12 29v50l17-8 27 74 16 49 14 48 9 42H34v21h248l52 53m-44-331H172V179h118v336m436-168H619l-47-139 24-2 38-7 36-11 13-4 17 31 15 43 9 48 2 41m84 346-33-73-35-68-21-37h98l52 52 64-52v-21H381v21h326l39 161 4 19 3 18 2 12 3 13 58-25 13-14-19-6M544 579l-2 18-2 17-4 18-3 17-13 49-6 18-7 14 8 6 24-26 12-14 11-15 17-34 9-18 8-19 7-19 4-21-4-22-21-14-23 6-14 20-1 19M417 756v20h209v132l63-11 16-10-16-9V776h93l53 53 63-53v-20H417Z"/></symbol><symbol id="𮀩_G" viewBox="0 0 1000 1000" data-size="21"><path transform="matrix(1 0 0 -1 27 974)" d="m547 938 4 10c89-28 135-66 136-115-1-20-9-30-24-31-14-1-21 9-22 28-1 20-9 39-24 57-15 19-39 36-70 51m-95-121c1-3 1-8 2-14 1-13 2-24 3-31h405l26 34 58-53c1-3 1-5-1-6-1-1-4-1-9 0-21 3-54-25-101-86l-10 3 43 88H458v-3c2-33-4-63-19-88-16-24-32-30-49-19-11 9-10 20 3 33s24 31 31 54c8 23 13 53 14 88h14m69-213V452h261v152H521m-368-80V200h142v324H153m662-234H521V111h294v179M109 590l15-18c27 79 46 156 55 233h-74c-17 1-31-4-44-13l-33 33h268l30 39 62-45c7-5 10-9 8-12-1-2-7-3-18-2H222c-13-92-37-179-71-260v-1h133l28 33 47-42c5-3 6-7 5-10s-4-5-11-6l-17-9V252l4-87c5-26-10-40-45-43v58H153v-59c2-24-14-39-48-45 3 26 6 62 7 108v280C85 413 50 369 9 331l-9 8c45 60 81 126 110 198-3 18-9 32-16 41l15 12m366 76 38-44h260l28 33 45-40c5-3 7-6 6-9-1-2-4-4-10-7l-17-9V485l4-49c5-27-11-42-47-43v41H521V308h285l28 34 45-40c9-8 8-14-4-19l-17-7V138l4-48c6-38-10-56-47-55v58H521V45c1-24-15-39-50-45 3 26 6 53 7 82v533c-3 15-9 28-18 39l15 12Z"/></symbol><symbol id="𮀪_G" viewBox="0 0 1000 1000" data-size="21"><path transform="matrix(1 0 0 -1 19 960)" d="M161 215h124v321H161V215m-42 386 13-20c25 74 45 155 60 241h-87c-17 0-32-4-44-13l-33 33h265l23 34 55-41c7-5 9-9 7-11-1-2-7-3-18-2H236c-17-93-41-182-73-266h111l28 34 45-42c5-4 6-8 5-10-1-3-4-5-11-6l-17-9V242l4-67c4-26-10-40-43-42v62H161v-69c2-25-13-40-46-45 3 26 6 60 7 104v274C84 379 46 323 9 291l-9 8c35 50 72 123 109 218 5 10 9 21 13 32-4 15-10 28-18 40l15 12m538-428 5 15c95-27 165-61 210-101 19-16 30-33 34-50 5-18 0-30-13-34-13-3-27 8-43 33-17 26-40 49-68 69-27 20-68 42-125 68m-32 697H485l-5-104h140l5 104m34-104h148l4 104H664l-5-104m-40-20H479l-5-115h139l6 115m187 0H658l-6-115h150l4 115M612 449l84-28c6-2 10-4 12-6 1-2-1-4-4-6-17-6-28-13-33-22-7-74-20-132-38-172-18-46-50-86-95-120-46-37-116-68-211-92l-4 15c146 53 237 124 272 213 15 34 26 91 31 172-3 12-10 23-22 33l8 13m-167 91 39-40h306l28 29 51-38c5-4 6-7 5-10s-4-5-11-6l-16-9V288l3-49c-2-22-19-37-51-43l4 57 1 35v192H485V271l4-29c1-23-16-38-53-45 3 26 6 66 7 120v184c-3 18-7 28-12 28l14 11m1 322c-1 16-7 33-18 51l13 9 34-36h326l28 34 45-43c5-3 6-5 5-7s-5-4-11-5l-16-9-4-90h33l25 35 50-41c6-6 8-10 6-12-1-2-7-3-17-2h-98l-4-119 2-21c-2-24-18-40-49-48l4 50v7H484l-24-44-51 38c11 7 19 19 26 35l5 102h-29c-15 1-29-3-42-12l-31 32h103l5 96Z"/></symbol></svg>