<svg xmlns="http://www.w3.org/2000/svg"><symbol id="𮎛_J" viewBox="0 0 1000 1000" data-size="21"><path transform="matrix(1 0 0 -1 69 930)" d="M467 565h228l39 48c40-33 60-54 60-63 0-4-2-8-7-10l-26-19V275h-57v44H195V99c0-20 6-33 18-37 19-6 102-10 249-10 131 0 219 4 264 11 21 4 35 18 43 41 10 32 18 74 22 126l27-11c0-69 3-112 8-128 5-11 17-18 37-19-1-34-18-54-51-61C771 4 665 0 494 0 304 0 197 5 172 14c-24 10-36 36-36 76v456c-32-32-72-64-119-98L0 468c117 99 207 229 270 391 63-15 94-29 94-43 0-9-16-15-47-18-6-10-14-26-25-46h234l43 47c43-37 64-61 64-70 0-6-4-10-14-14l-29-9c-41-53-82-100-123-141m-38 0c43 58 75 112 99 163H277c-31-51-66-99-105-145 10-4 21-10 34-18h223m-234-24V344h509v197H195Z"/></symbol><symbol id="𮎜_J" viewBox="0 0 1000 1000" data-size="21"><path transform="matrix(1 0 0 -1 68 931)" d="M705 303H196V99c0-20 6-33 18-37 19-6 102-10 249-10 131 0 219 4 264 11 21 4 35 18 43 41 11 32 18 74 22 126l27-11c0-69 3-112 8-128 5-11 17-18 37-19-1-34-18-54-51-61C772 4 666 0 495 0 305 0 198 5 173 14c-24 10-36 36-36 76v506c28-10 51-20 70-31h489l39 48c40-33 60-54 60-63 0-4-2-8-7-10l-26-19V259h-57v44M476 541V328h229v213H476m-56 0H196V328h224v213M202 727h511l54 73c29-28 54-53 74-78l-12-20H189C144 621 87 550 18 491L0 507c79 89 139 207 182 355 65-13 98-27 98-42 0-9-15-16-44-20-12-28-23-52-34-73Z"/></symbol><symbol id="𮎝_G" viewBox="0 0 1000 1000" data-size="21"><path transform="matrix(1 0 0 -1 26 965)" d="m547 919 5 12c59-20 96-42 113-68 11-16 13-29 6-41-5-12-14-17-25-15-9 2-15 10-20 26-3 15-9 29-18 42-10 11-30 26-61 44M401 788h405l27 36 55-44c5-4 6-6 5-8s-4-3-9-2H468c-15 0-28-3-40-11l-27 29m149-102v-83h192v83H550m-76-145v-40h352l26 31 49-45c3-3 3-5 2-7s-4-4-8-4c-13-1-27-8-42-21l-6-6c-4-4-13-14-27-31-7-10-12-17-16-21l-11 6 39 80H474v-2c-2-44-16-72-43-84-12-7-22-6-31 3-7 10-5 20 6 30 6 4 15 13 27 26 2 2 4 3 5 5 11 16 18 42 21 79l15 1m-368 59h119l69 144H154c-10-26-21-49-34-71-13-24-24-43-33-55l19-18m5-265h95v245h-95V335m130 245V335h96v245h-96m282-160 42-28h132l25 28 42-35c4-3 2-7-7-13l-19-12V182c0-20 10-32 30-35 9-2 18-3 27-1 27 2 42 21 43 57l4 75h12l3-62c2-30 11-47 26-50-10-28-32-45-67-50-25-4-49-4-71 1-28 5-43 23-44 55v202H572c3-72-6-128-26-168-27-52-85-91-172-117l-4 8c70 34 116 73 139 117 19 38 28 92 26 162-3 13-10 25-19 35l7 9m-11 305 24-23h197l27 32 35-36c0-1 0-2 1-2 5-4 5-8-1-11l-18-10v-51l4-32c0-25-13-37-39-37v32H550v-9c2-21-12-33-41-37 3 31 5 63 6 97v50c-1 8-6 18-13 30l10 7m-147 21c4-6 2-10-7-12-15-3-27-10-34-20-2-4-6-10-13-20-8-12-15-21-20-28-8-12-21-34-40-66h66l38 38 45-46c4-4 5-8 4-11s-4-5-10-6l-18-9V336l3-42c-1-22-15-33-42-33v54H111V128c0-34 6-56 17-67 11-13 34-20 68-21 51-1 244-2 577-4 23 0 50 2 81 7 26 2 41 18 44 47 0 0 0 2 1 4 5 35 9 69 11 102h13l2-73c1-36 8-58 22-66-18-28-41-44-70-50-11-4-42-6-94-6h-34C469 0 284 1 193 3c-47 1-80 10-97 26-17 15-25 44-24 86v474c-1 2-1 5-1 8-15-22-36-46-63-72l-8 10c55 76 102 166 141 268 19 54 26 82 23 86-1 1-2 3-3 7-4 7-8 13-11 18l8 6 77-32c3-6 2-9-5-10-13-2-23-10-30-24-12-33-24-63-37-90h119l30 34 53-52Z"/></symbol><symbol id="𮎞_K" viewBox="0 0 1000 1000" data-size="21"><path transform="matrix(1 0 0 -1 48 942)" d="M218 645c8-7 10-12 7-16-3-3-10-5-21-5h-61c12-10 18-16 18-20-1-3-9-5-24-5l-33-80h16l31 23 37-24c18-13 23-22 15-27-4-3-13-5-24-5V257c0-10-1-18-4-24-4-4-11-10-20-16-9-2-16-2-18 0l-1 11 1 3H77v-14c1-9 0-16-1-19-2-5-7-9-15-11-14-4-22-4-25 1-2 1-2 8-1 18l1 14v275l-5 51 49-27h5l13 105-78-5-14 25 65-3h63l39 33 45-29m-81-261v118H78V384h59m0-134v118H78V250h59m141 204c-6-68-17-128-33-180 29-20 56-39 79-58l1 4v275l-5 51 49-27h4l14 105-78-5-15 25 66-3h62l39 33 45-29c8-7 11-12 8-16-4-3-10-5-21-5h-61c12-10 18-16 18-20 0-3-9-5-25-5l-32-80h16l31 23 38-24c16-13 21-22 14-27-4-3-13-5-25-5V257c0-10-1-18-4-24-3-4-10-10-19-16-9-2-16-2-19 0l-1 11 1 3h-59v-14c1-9 1-16-1-19-1-4-4-7-9-9l40-39c38-41 55-74 54-99-4-20-9-31-15-33-8-4-17 5-26 26-12 32-35 69-68 110-29 35-62 71-100 107-12-41-28-75-47-104C150 90 88 37 8 0L3 10c78 49 133 105 165 166 33 62 54 148 64 258 7 83 11 184 12 303H79l-68-1-11 20 64-3h180v131l44-8c20-5 30-10 30-15 1-4-7-10-23-17l-2-91h125l41 44 61-41c9-5 11-9 7-13-3-4-9-6-18-6H293c-3-41-4-85-4-130l-11-153m147-70v118h-58V384h58m0-134v118h-58V250h58m330 519H644c-16-34-30-61-42-83s-25-43-39-65l28-16h91l73 164m55-373v191h-78c15-5 21-9 20-14-1-4-11-6-29-8V396h87m-132 0v193h-87V396h87M475 544c28 30 55 73 83 128 27 55 53 124 78 207l44-16c23-9 34-17 33-22-1-4-15-8-42-12l-21-47h97l34 34 49-37c15-11 21-18 18-22-4-5-20-8-48-9l-95-143h94l31 29 47-34c14-12 19-20 13-25-5-4-16-6-35-6V391l1-34c2-15 1-24-1-27-1-5-8-10-20-16-13-2-21-1-24 3-2 4-2 14-1 32v29H591V116c0-11 1-19 5-24 6-5 17-10 34-14 8-3 26-4 56-4 48 1 80 3 95 6 24 9 39 20 47 35 10 18 23 61 38 127l11-3-11-149c26-13 38-23 37-30-1-10-17-16-48-18-43-5-101-8-174-10-8 0-30 1-67 5-26 5-45 13-54 26-8 10-11 25-11 45v495c-13-15-24-28-33-39-9-9-21-19-35-29l-6 9Z"/></symbol><symbol id="𮎟_G" viewBox="0 0 1000 1000" data-size="21"><path transform="matrix(1 0 0 -1 31 981)" d="m582 961 89-35c8-3 10-7 5-11-13-5-23-11-29-20v-67h182l34 43 66-49c7-5 10-9 8-12-1-2-8-3-19-2H647v-14l3-65c1-23-17-38-55-45 3 21 5 63 6 124H333v-49l3-26c1-24-17-39-55-45 3 24 6 64 7 120H78c-18 1-33-4-44-13L0 828h288v77c1 9-9 24-29 45l9 11 89-35c8-3 10-7 5-11-13-4-23-11-29-20v-67h269v77c1 9-8 24-29 45l9 11M244 431V285h459v146H244m0 171V449h459v153H244m504-14V124c1-41-3-70-12-87-9-18-31-30-68-36 3 27-30 49-99 65l2 16c56-15 92-22 108-21s24 18 24 49v157H244V116l4-72c1-23-17-38-56-44 3 25 6 77 7 156v461c0 14-5 25-16 34l15 11 38-40h452l29 40 51-42c6-4 9-8 9-11s-3-5-9-8l-20-13Z"/></symbol><symbol id="𮎠_S" viewBox="0 0 1000 1000" data-size="21"><path transform="matrix(1 0 0 -1 37 971)" d="m793 38-10-8-10-7-22-11-11-4-12-4-12-2-13-2h-12v31L586 47v16h113l15 2 7 2 12 6 7 3 6 5 6 5 6 5 13 16 13 24 12 30 11 39 8 45 9 53 5 58 5 67 3 72 1 69H228l-28-45-25-40-29-36-31-35-33-34-36-32-39-30-7 6 31 37 58 75 25 37 24 38 20 37 19 39 15 39 14 40 12 41 3 8 57-25 13-15-20-6-8-22-18-42-7-14h600l31 26 58-47-26-15-1-55-3-75-4-67-6-62-9-56-10-48-13-44-14-38-17-32-21-25-10-9M255 510l63-10 16-11-16-10V346l207 80 83 30v1l5 1 3-8 49-42 1-15-20 9-43-11-128-32-72-16-75-15-10-2V189l1-4 1-3 1-2 1-1 1-1 1-1 4-1 4-1h331l30 131h11l-10-131 19-13 12-18-12-20-20-13H339l-14 1-12 3-13 4-12 6-11 9-8 11-7 11-4 13-2 13-1 13v315m320 431 64-9 15-11-15-10v-81h162l53 53 63-53v-20H639v-86l-64-33v119H345v-86l-64-33v119H3v20h278v111l64-9 15-11-15-10v-81h230v111Z"/></symbol><symbol id="𮎡_S" viewBox="0 0 1000 1000" data-size="21"><path transform="matrix(1 0 0 -1 33 961)" d="m238 719 55-32 10-17-20-2-38-70-51-85-9-14h8V31L130 0v425l-23-29-65-72-35-32-7 5 80 119 49 81 46 84 41 86 22 52m405-95H337v21h466l52 52 63-52v-21H706V91l-1-14-2-14-5-12-6-12-8-11-11-7-12-7-13-5-12-2h-14v31l-95 16v15h101l5 1 3 1 3 1 1 1v1l1 2 1 3 1 5v540m-51 298 63-11 16-11-16-8v-55h162l53 52 64-52v-22H655v-60l-63-31v91H361v-60l-63-31v91H20v22h278v85l63-11 16-11-16-8v-55h231v85Z"/></symbol><symbol id="𮎢_J" viewBox="0 0 1000 1000" data-size="21"><path transform="matrix(1 0 0 -1 58 942)" d="M271 770v114c65-1 98-8 98-21 0-8-13-17-40-27v-66h218v114c64-1 96-9 96-23 0-8-13-16-38-25v-66h160l50 66c28-25 52-49 70-71l-12-20H605v-86h-58v86H329v-76h-58v76H16L6 770h265M82 186v395c60-1 90-7 90-19 0-7-12-15-36-23V199c50 14 95 27 135 40v399c64-2 96-9 96-20 0-6-13-14-41-23V0h-55v210c-63-31-132-59-207-85-2-27-8-40-17-40-14 0-30 28-47 83 14 2 41 8 82 18m506 38c-29 40-54 85-76 137-24 56-45 128-64 215h-65l-10 25h350l38 41c42-29 63-48 63-57 0-2-2-5-6-8l-28-14c-29-132-75-245-139-338 54-57 127-109 220-157-24-17-41-34-50-51-88 54-155 110-202 166C552 104 465 43 358 0l-15 22c97 49 178 117 245 202m29 40c53 77 91 181 114 312H481c32-132 78-236 136-312Z"/></symbol><symbol id="𮎣_J" viewBox="0 0 1000 1000" data-size="21"><path transform="matrix(1 0 0 -1 59 927)" d="M156 260V103c0-22 8-35 23-39 22-7 119-10 292-10 190 0 292 7 305 21 14 15 25 63 32 144l27-9c0-66 4-107 11-124 5-10 17-16 36-16-1-32-14-51-39-57C811 4 690 0 480 0 266 0 148 6 126 18c-19 11-29 34-29 70v509c16-6 39-17 70-32h537l37 44c40-29 60-49 60-59 0-6-4-12-12-17l-20-14V212h-57v48H156m0 168h556v112H156V428m0-25V285h556v118H156m380 307H325V610h-57v100H10L0 735h268v120c65-1 98-8 98-21 0-8-13-17-41-28v-71h211v120c65-1 98-9 98-24 0-9-14-18-41-27v-69h166l49 65c27-24 50-48 69-72l-10-18H593V610h-57v100Z"/></symbol><symbol id="𮎤_S" viewBox="0 0 1000 1000" data-size="21"><path transform="matrix(1 0 0 -1 43 970)" d="m846 84-1-13-2-12-5-13-7-13-8-10-10-8-12-7-13-4-14-2-12-2v32L656 48v15h106l6 1 4 1 5 1 2 2 2 5 1 5v6h64M166 200l-3 11 90 13 16 2 101 302H132V34L68 3v578l64-31h244l48 157 14 52 4 13 58-27 12-15-19-4-53-149-10-27h352l32 26 58-48-26-20V84h-64v444H421l-48-118-50-108-26-54-11-19h14l98 15 161 21 84 8-39 73-57 96 7 6 28-27 50-56 44-58 38-58 33-59 15-29v-24l-17-17h-24l-17 17-23 57-28 60-4 6-85-23-157-37-211-47-8-18-13 13-2 13-1 4v5l-3 9-1 9-1 2v4l-1 4v2m-3 11 12-63-22 60 10 3m409 728 64-10 15-11-15-9v-75h162l53 53 63-53v-21H636v-81l-64-31v112H342v-81l-64-31v112H0v21h278v105l64-10 15-11-15-9v-75h230v105Z"/></symbol><symbol id="𮎥_K" viewBox="0 0 1000 1000" data-size="21"><path transform="matrix(1 0 0 -1 66 916)" d="M858 729c9-6 12-10 9-14-3-6-13-9-29-9H606v-82c2-7 2-12 0-15-2-2-8-6-20-11-13-6-21-7-23-4-2 2-3 7-1 16l1 16v80H285v-76c1-9 1-14 0-18-2-4-9-8-19-12-15-6-23-8-25-6s-3 9-2 21l2 26v65H82l-71-2-11 24 104-4h137v107l56-17c17-4 24-9 22-14-1-7-12-12-34-17v-59h278v107l50-17c19-5 27-11 25-16s-12-9-32-12v-62h160l33 45 59-40m3-375c-22-2-36-7-44-15-6-8-13-16-19-25-72 30-138 71-198 124-61 52-110 109-147 168h-17c-50-84-111-152-183-206-72-53-150-94-233-123l-6 10c84 38 160 88 227 151 69 62 123 134 163 215l59-29c10-5 16-9 17-12s-2-5-10-5c42-54 96-104 162-149s142-77 228-96l1-8M463 242V18h275l48 50 57-46c9-6 12-11 9-15s-8-6-16-6H112L22 0l-2 20 91-3h298v257H225l-85-3-4 21 88-2h414l44 50 53-48c7-5 8-9 3-13-2-3-8-5-15-5H479c13-3 17-7 13-13s-14-12-29-19Z"/></symbol><symbol id="𮎦_J" viewBox="0 0 1000 1000" data-size="21"><path transform="matrix(1 0 0 -1 59 945)" d="M452 347c-20-91-63-166-131-224C247 60 144 19 13 0L0 22c133 34 234 87 302 160 50 54 82 115 94 185H25l-9 25h384c1 19 2 33 2 44v226c66-3 99-11 99-26 0-8-14-17-41-27V392h289l57 69c28-27 51-52 69-76l-12-18H471c11-47 33-89 66-126 75-83 189-140 344-170-20-15-36-35-49-59-133 40-232 96-296 169-41 47-69 103-84 166M260 747H15L5 771h255v120c66 0 99-7 99-20 0-9-14-18-41-29v-71h240v119c68-1 102-9 102-24 0-9-14-18-44-27v-68h145l52 65c27-24 50-48 69-71l-10-18H616v-98h-58v98H318v-98h-58v98m-6-323c-17 0-28 11-33 34-12 52-39 98-81 136l14 16c91-45 137-93 137-144 0-28-12-42-37-42m324-6-19 13c36 52 66 114 89 186 60-25 91-44 91-58 0-9-16-14-46-14-29-42-67-84-115-127Z"/></symbol><symbol id="𮎧_J" viewBox="0 0 1000 1000" data-size="21"><path transform="matrix(1 0 0 -1 41 948)" d="M159 308v261c25-11 47-22 67-33h195v132c66-1 99-8 99-22 0-8-13-17-40-26v-84h200l38 46c40-31 60-52 60-61 0-5-3-9-10-13l-22-14V308h61l48 66c24-23 45-47 64-72l-11-19H10L0 308h159m321 0h210v203H480V308m-59 0v203H216V308h205m98 408c30 62 53 122 68 179 63-21 94-39 94-53 0-9-15-14-45-15-19-32-47-69-84-111h240l53 70c25-24 49-49 70-75l-11-20H19L9 716h510m-186 8c-15 0-26 12-32 38-9 38-35 74-78 108l14 19c91-34 136-76 136-124 0-28-13-41-40-41M824 13c-12 0-26 9-42 28-58 60-144 118-259 174l15 21c108-35 191-71 250-109 47-31 71-58 71-82 0-22-12-32-35-32M33 0 17 22c117 52 214 124 291 216 57-26 85-46 85-60 0-9-10-13-30-13-2 0-6 0-11 1-6 1-11 2-14 2C249 90 148 34 33 0Z"/></symbol><symbol id="𮎨_S" viewBox="0 0 1000 1000" data-size="21"><path transform="matrix(1 0 0 -1 42 955)" d="m210 451-38-10-79-12-87-9-1 9 84 19 75 21 66 22 56 26 47 26 36 28 27 30 17 30 3 6H21v21h401l1 4 3 33h62l-6-37h295l53 52 63-52v-21H496l14-16 22-22 27-20 30-19 35-18 39-17 44-14 49-14 54-13 106-19-62-59-60 15-56 17-50 18-46 21-41 22-37 24-29 27-25 29-19 30-9 28h-5l-13-32-27-38-37-34-45-28-53-26-61-20-30-8 62-31h352l31 26 58-47-26-21V236l-63-31v53H273V78l1-5 2-5 2-2 5-2 4-1h565l30 131h11L883 63l18-12 13-20-13-18-19-13H294l-14 1-12 2-13 5-12 7-11 7-8 11-7 12-4 13-2 13-1 13v367m415-52H273V278h352v121m-53 511 64-10 15-10-15-10v-66h162l53 53 63-53v-20H636v-71l-64-32v103H342v-71l-64-32v103H0v20h278v96l64-10 15-10-15-10v-66h230v96M426 767l62-11 16-11-16-9v-41h-62v72Z"/></symbol><symbol id="𮎩_G" viewBox="0 0 1000 1000" data-size="21"><path transform="matrix(1 0 0 -1 31 978)" d="m582 955 89-35c8-3 10-7 5-11-13-5-23-11-29-20v-67h182l34 43 66-49c7-5 10-9 8-12-1-2-8-3-19-2H647v-14l3-65c1-23-17-38-55-45 3 21 5 63 6 124H333v-56l3-26c1-24-17-39-55-45 3 26 6 68 7 127H78c-18 1-33-4-44-13L0 822h288v77c1 9-9 24-29 45l9 11 89-35c8-3 10-7 5-11-13-4-23-11-29-20v-67h269v77c1 9-8 24-29 45l9 11M249 445V278h459v167H249m0-183V92h459v170H249m441 203 36 37 47-46c4-4 5-7 4-10s-4-5-10-6l-18-9V124l5-77c-1-11-5-19-13-23-10-5-21-9-33-12v60H249V43c0-13-4-23-12-29-7-6-19-11-36-14 3 24 5 65 7 122v328c-2 15-8 28-19 39l11 11 39-35h116l59 150H132c-17 0-32-4-45-13l-33 33h729l33 38 58-49c5-3 7-6 6-7s-5-2-12-2H466l-86-150h310Z"/></symbol><symbol id="𮎪_J" viewBox="0 0 1000 1000" data-size="21"><path transform="matrix(1 0 0 -1 58 945)" d="M381 349H20l-9 25h376c7 28 10 58 10 92v58H98l-10 25h309v141c69-3 103-11 103-25 0-8-15-18-44-29v-87h219l50 65c27-24 50-48 69-72l-13-18H456v-55c0-34-3-65-10-95h298l57 69c28-27 51-52 69-76l-12-18H465c15-26 28-45 39-59 29-37 66-71 112-103 26 32 48 65 65 99 56-21 84-37 84-49 0-8-17-13-50-15-20-23-39-44-57-61 64-35 140-61 227-76-22-20-38-42-49-65-84 25-156 60-217 104-31-27-64-53-100-78l-21 15c35 33 64 62 87 89-44 36-80 77-109 123-14 20-27 43-38 68-21-74-60-138-117-193 22-22 33-41 33-55 0-24-10-35-31-35-13 0-26 13-40 39 0 0-1 3-4 7l-3 6C205 56 118 20 14 0L4 24c96 26 177 66 243 122-29 31-74 68-135 110l16 16c62-30 113-61 155-92 24 26 42 49 53 68 21 35 36 69 45 101M245 745H10L0 770h245v119c66 0 99-7 99-20 0-8-13-18-41-28v-71h260v118c68-1 102-9 102-24 0-8-15-17-44-26v-68h135l52 65c27-24 50-48 69-72l-10-18H621V628h-58v117H303V628h-58v117Z"/></symbol><symbol id="𮎫_K" viewBox="0 0 1000 1000" data-size="21"><path transform="matrix(1 0 0 -1 44 942)" d="M71 616h367v93l45-6c24-4 36-8 36-13-2-4-13-10-36-17v-57h296l40 43 65-40c9-5 12-10 8-14-4-3-10-5-21-5H483v-73h216l30 28 41-30c17-15 24-24 20-29-4-3-14-5-30-5h-3V380c0-16 0-26-2-32-3-7-10-12-22-15-11-3-18-3-20 2-2 3-3 11-2 23l1 14H483c-2-43-6-80-14-112-10-32-22-60-37-84 64-38 134-66 211-84 76-18 164-27 265-28l4-9c-14-5-25-11-35-20-10-8-16-16-19-25-86 11-165 29-237 53-74 22-142 54-204 94-34-40-85-72-152-95C206 40 119 20 5 0L0 10c107 23 190 48 249 73 61 27 105 59 135 96-28 19-53 40-77 61-26 24-50 48-73 73l9 5c26-24 52-46 76-66 25-20 50-38 77-55 14 23 24 49 31 78 6 28 9 60 11 97H215v-15c0-9 0-16-2-18-2-5-8-10-18-13-14-4-23-4-26 1-3 3-4 11-3 24l1 8v126l-4 69 49-27h226v73H88l-68-4-12 23 63-3m144-228h223v123H215V388m497 123H483V388h229v123M276 885l60-9c19-3 27-6 24-11-2-3-10-9-26-16l-6-3v-75h232v72l-6 41 50-9c24-4 35-8 33-14-2-4-12-9-31-16v-74h158l40 42 53-35c11-7 15-13 12-17-2-4-7-6-16-6H606v-61l-1-11c0-12-1-20-2-24-3-6-9-10-18-13-13-3-21-3-23 0s-3 10-3 22l1 14v73H328v-77c0-11-1-18-3-22-2-6-9-10-20-13-12-2-19-2-22 2-2 1-2 8-2 18l1 17v75H90l-66-3-12 20 63-1h207v74l-6 40Z"/></symbol><symbol id="𮎬_S" viewBox="0 0 1000 1000" data-size="21"><path transform="matrix(1 0 0 -1 35 966)" d="m229 376-3-44-7-45-12-43-17-42-19-39-25-37-29-35-33-32-37-31L6 0 0 9l34 34 30 34 27 35 21 36 19 37 15 36 10 37 7 39 3 39v330l63-32 342 58 244 50h1l4 1 2-6 57-47 2-15-24 12-24-5-127-21-63-9-64-7-128-14-63-5-64-4-63-3h-32V376M158 59l-3 17v2l147 20v431l59-29 268 64 146 39 44 12 5 1 2-6 54-45 1-15-23 11-18-5-101-21-100-18-101-16-51-7-50-5-19-2 34-45 44-55 44-52 7-7 159 61 57 23 50 23 18 9 5 2 4-10 42-39 1-16-20 8-54-19-29-8-60-15-33-8-35-8-36-6-37-6-21-2 29-31 48-45 49-41 51-37 53-34 55-29 87-41-60-49-58 31-57 36-55 39-26 23 2-8-53-15-104-25-254-55-78-15-9-18-13 14-2 9v2l-1 8v1l-1 4v2l-1 4-2 11v1m-3 19 10-61-20 59 10 2m250 408-20-1-20-1V106l148 19 52 6 55 5 52 4-23 19-48 47-46 51-44 54-40 57-37 63-29 55m175 446 64-11 15-11-15-10v-62h162l52 53 64-53v-22H644v-69l-64-31v100H350v-69l-64-31v100H8v22h278v94l64-11 15-11-15-10v-62h230v94Z"/></symbol><symbol id="𮎭_K" viewBox="0 0 1000 1000" data-size="21"><path transform="matrix(1 0 0 -1 55 941)" d="M112 581c0 9-1 19-3 29 0 6 0 16-2 29l-2 20 54-36h148l35 30 39-27c19-12 26-22 18-29-5-6-14-8-28-8V88c0-26-8-46-23-61-16-15-40-24-73-26-2 16-8 29-18 39-11 10-33 24-68 42l8 9c18-7 33-12 45-16 11-3 23-6 34-10 16-2 27-2 34 0 7 3 12 11 12 23v236H153c-2-64-15-123-39-176C93 104 60 55 15 2L6 9c34 51 60 101 77 151 18 54 27 112 29 175v246m47-97h163v123H159V484m0-16-3-71-1-57h167v128H159m106 415 59-9c19-3 27-6 25-11-2-3-11-9-27-16l-6-3v-74h212v71l-7 41 51-9c24-4 34-8 32-14-1-4-11-9-29-16v-73h177l40 42 54-36c11-7 15-13 11-17-2-4-7-6-16-6H575v-61l-1-11c0-12-1-20-3-24-3-6-9-10-18-13-13-3-20-3-23 1-2 2-4 9-4 21l2 14v73H316v-77c0-11-1-18-3-22-2-6-9-10-20-13-12-2-19-2-22 2-1 2-2 8-1 18l1 17v75H78l-65-3-13 21 63-1h208v73l-6 40m486-293 31 38 35-33c17-15 24-26 22-32-2-7-14-12-37-15-22-66-45-124-68-173-22-49-46-94-72-133 29-38 62-73 99-105s79-55 125-70l4-15c-15-2-28-7-39-15-9-7-16-18-22-33-39 27-74 59-105 96-32 37-60 74-85 113-34-42-73-83-118-121-44-38-97-69-159-92l-4 12c59 30 109 66 151 106 42 41 79 83 111 126-25 44-46 92-64 146-19 54-35 116-48 186l-58-2-9 22 97-6h213m-209-13h-22c14-64 31-121 50-172 20-50 43-94 69-132 24 39 46 82 67 131 21 50 41 107 60 173H542Z"/></symbol><symbol id="𮎮_K" viewBox="0 0 1000 1000" data-size="21"><path transform="matrix(1 0 0 -1 63 939)" d="M533 616c22-4 32-9 31-14 0-5-11-11-31-17V414l17 13c35 26 62 46 81 61 32 26 62 51 90 77l43-34c11-10 16-16 12-19-3-4-18-4-44 1l-97-58-102-56v-74c56-13 104-29 145-48 42-20 66-38 73-55 8-21 7-34-2-42s-20-4-33 11c-17 20-40 39-69 59-33 23-71 44-114 63V93c0-8 2-14 4-19 3-2 10-4 21-7 12-2 49-4 111-4s98 2 107 5c13 8 24 24 33 49 6 22 13 57 20 106l12-1-2-147c23-10 35-19 34-27-2-9-17-16-46-20-30-2-80-3-151-4-72 0-119 1-140 3-19 1-32 6-40 16-7 10-10 25-10 45v483l-1 21c0 12-2 24-4 34l52-10m-174 4c21-4 32-9 33-14 0-5-12-11-37-16 0-101-2-194-8-278-8-65-23-116-45-154-24-38-59-69-105-93C155 41 94 19 15 0l-4 14c92 28 158 60 200 97 44 40 72 97 86 170l-111-43-96-38-2-12c-2-20-4-31-6-33-5-2-14 11-26 39l-18 35c33 7 72 17 116 31 45 14 93 29 145 44 4 58 6 108 8 150v172l52-6M94 548c34-16 65-37 94-64 31-28 46-52 46-70 0-16-5-26-12-30-7-3-14 1-22 12-10 17-23 38-41 63-25 35-48 62-71 80l6 9m764 227c9-5 12-9 9-13-3-6-13-9-29-9H606v-82c2-7 2-12 0-15-2-2-8-6-20-11-13-6-21-7-23-4-2 2-3 7-1 16l1 16v80H285v-76c1-9 1-15 0-18-2-4-8-8-19-13-15-5-23-7-25-5s-3 9-1 21l1 26v65H82l-71-2-11 23 104-3h137v107l56-17c17-4 25-9 22-14-1-7-12-12-34-17v-59h278v107l51-17c18-6 26-11 24-16s-12-9-32-12v-62h160l33 44 59-40Z"/></symbol><symbol id="𮎯_J" viewBox="0 0 1000 1000" data-size="21"><path transform="matrix(1 0 0 -1 57 942)" d="M407 468c-50-71-127-122-231-153l-14 21c132 58 206 137 224 238 60-7 90-15 90-25 0-9-12-15-37-18-6-15-12-29-18-40 138-47 207-90 207-129 0-19-11-29-32-29-11 0-23 8-37 24-24 25-46 45-65 60-23 16-52 34-87 51M249 769v115c65-1 98-9 98-23 0-8-14-17-42-26v-66h52l44 57c29-23 51-44 68-63l-11-19H305v-52h-56v52H17L7 769h242m148-509c-45-75-127-134-246-175l-16 21c143 66 223 160 240 280 62-7 93-16 93-26 0-9-12-15-36-19-6-21-14-40-22-58 65-23 117-46 154-69s56-45 56-64-11-29-32-29c-11 0-23 8-37 24-44 46-95 85-154 115M231 576c-47-88-118-167-213-238L0 356c106 109 176 224 211 343 59-17 89-32 89-44 0-8-14-14-41-18l-15-36h504l39 46c40-31 60-51 60-61 0-4-3-9-9-14l-22-16c-1-269-16-433-45-490-23-44-64-66-123-66 1 19-9 33-29 42-17 7-59 17-125 28v26c64-9 117-13 157-13 42 0 67 16 77 49 18 57 27 205 28 444H231m355 168h-85l-10 25h95v115c64 0 96-8 96-23 0-8-13-16-40-25v-67h125l48 61c27-22 51-45 71-67l-11-19H642v-87h-56v87Z"/></symbol><symbol id="𮎰_J" viewBox="0 0 1000 1000" data-size="21"><path transform="matrix(1 0 0 -1 51 950)" d="M488 656c35-50 105-85 212-104-15-9-32-26-50-51-81 26-140 69-179 129-45-63-116-109-213-137l-12 19c56 27 100 56 131 88 29 30 51 65 68 107 54-8 81-18 81-30 0-7-12-13-36-18l-2-3m73 128H319v-80h-56v80H18L8 809h255v91c66 0 98-7 98-21 0-9-14-18-42-27v-43h242v91c62-1 93-8 93-21 0-8-12-16-37-26v-44h158l46 64c26-24 48-47 65-69l-11-20H617v-80h-56v80M181 479h562l47 57c26-22 47-42 64-62l-11-20H181v-43h-56v292c63-1 95-8 95-22 0-8-13-17-39-27V479m432-377v291c64-3 96-11 96-26 0-8-13-16-39-25V115c0-14 5-22 14-26 6-2 27-4 61-4 37 0 59 9 66 26 10 27 17 77 20 148l26-10c0-67 3-111 8-131 5-14 16-22 33-22-1-26-12-43-32-52-20-8-62-12-126-12-57 0-93 5-106 13-14 9-21 28-21 57M14 0 0 23c72 33 120 74 145 123 19 36 28 82 28 136v103c65-1 97-8 97-23 0-8-12-17-37-26v-54c0-93-26-163-78-210C123 43 76 19 14 0m378 56v312c64-1 95-8 95-22 0-8-13-17-39-27V56h-56Z"/></symbol><symbol id="𮎱_S" viewBox="0 0 1000 1000" data-size="21"><path transform="matrix(1 0 0 -1 27 973)" d="m387 11-25 37h-3v6l-6 10 6 3v542l41-6 18 6 31 10 286 81 5 2 2-7 53-44 2-16-24 11-18-5-122-24-38-7-73-10-35-4-33-4-18-1 2-2-16-10V89l148 56 71 23 4-9-92-57-80-45-67-36-4-21-15 11M278 703l53-35 9-17h-20l-43-68-29-41-61-78-1-1 30-6 15-10-15-9V39L152 8v417l-33-36-36-35-37-34-39-32-7 7 94 117 57 79 54 80 48 85 25 47M824 70l-56 37-52 42-47 47-40 51-36 56-30 59-25 65-18 67-12 73 9 2 24-68 26-63 30-59 32-51 136 108 33 29 11 11 4 3 40-49 1-19-19 7-83-50-73-35-27-11-14-6 29-39 41-44 45-40 50-35 52-30 90-41-59-50-62 33M590 945l63-10 16-11-16-9v-71h162l53 52 64-52v-22H653v-75l-63-32v107H359v-75l-63-32v107H18v22h278v101l63-10 16-11-16-9v-71h231v101M371 48l1-4-1 4Z"/></symbol><symbol id="𮎲_S" viewBox="0 0 1000 1000" data-size="21"><path transform="matrix(1 0 0 -1 43 956)" d="m482 672 63-11 16-11-16-8V84l1-7v-5l1-3 2-2v-1l3-1 3-1 5-1h285l30 131h11L876 63l19-12 12-20-12-18-20-13H566l-13 1-14 2-12 5-11 6-12 8-8 10-7 13-4 13-3 12v602m-252 24 56-31 10-16-22-3-25-39-34-44-27-29-2-3h147l31 26 58-47-26-21V69l-63-31v63H108V38L46 7v556l62-32h62l5 11 39 103 10 30 3 11 3 10m103-384H108V122h225v190m0 198H108V332h225v178m239 401 64-11 15-10-15-9v-68h162l53 52 63-52v-22H636v-73l-64-31v104H342v-73l-64-31v104H0v22h278v98l64-11 15-10-15-9v-68h230v98Z"/></symbol><symbol id="𮎳_S" viewBox="0 0 1000 1000" data-size="21"><path transform="matrix(1 0 0 -1 54 959)" d="m525 919 63-11 16-11-16-9v-59h189l52 53 64-53v-20H588v-95h152l31 26 58-48-25-20V562l-64-32v42H588V462h199l32 26 58-48-26-20V89h-64v351H588v-73l-63-31v236H367V367l-62-31v104H105V31L42 0v493l63-31h200v110H152v-15l-63-33v221l63-31h153v95H0v20h305v90l62-11 16-11-16-9v-59h158v90M851 89l-1-13-2-13-5-13-7-12-8-11-11-7-11-7-13-5-14-2-12-1v31L661 52v16h111l5 1 5 2 2 2 2 5 1 5v6h64M305 692H152v-99h153v99m220 0H367v-99h158v99m215 0H588v-99h152v99M525 809H367v-95h158v95Z"/></symbol><symbol id="𮎴_G" viewBox="0 0 1000 1000" data-size="21"><path transform="matrix(1 0 0 -1 18 981)" d="M582 642V482h223v160H582m0-178V297h223v167H582m-1 497 87-35c9-3 10-7 5-11-13-5-23-11-29-20v-50h203l31 38 67-49c5-3 7-6 6-7s-5-2-12-2H644v-37l2-24c2-23-15-37-52-43 4 31 6 54 7 70v34H373v-44l2-24c1-23-16-37-52-43 3 23 6 47 7 72v39H96c-17 1-32-4-44-13l-33 33h311v60c1 10-9 25-30 45l9 11 87-35c9-3 11-7 6-11-14-5-24-11-29-20v-50h228v60c1 10-8 25-29 45l9 11M169 760l96-35c3-1 5-3 5-5 0-1-2-3-5-4-12-5-23-13-32-24 1-47 1-89 0-124h104l33 39 57-49c5-6 2-11-9-14l-18-14V172c0-41 7-65 22-72s72-9 171-8c185 0 284 4 298 12s22 38 23 89l5 92h16l2-88c1-45 10-72 26-81-10-27-24-43-42-50-17-8-94-12-232-13-143-1-231 0-263 3-47 3-71 25-71 68v424H232v-7c-3-100-17-189-43-268C154 166 93 75 5 0L0 15c73 88 124 180 153 277 18 65 30 141 35 229v27h-88c-19 1-32-3-39-14l-30 34h157v152c-4 8-13 17-26 27l7 13m365-54 38-44h216l34 39 51-48c4-4 6-7 5-10s-4-5-11-6l-17-9V345l4-110c4-26-12-40-49-43v85H582v-57c1-24-16-39-52-45 3 33 6 88 7 167v311c-3 16-9 30-18 41l15 12Z"/></symbol><symbol id="𮎵_J" viewBox="0 0 1000 1000" data-size="21"><path transform="matrix(1 0 0 -1 61 924)" d="M472 161v124H284l-13 25h201v107H259l-11 25h424l46 57c23-20 45-41 64-65l-10-17H531V310h113l45 57c25-23 46-44 61-65l-9-17H531V161h176l47 62c25-23 47-46 65-68l-12-19H234l-11 25h249M231 728v120c65 0 98-7 98-22 0-8-14-17-41-26v-72h50l45 58c27-22 49-43 67-64l-10-19H288V602h-57v101H10L0 728h231m343-25h-91l-10 25h101v120c65 0 97-8 97-23 0-8-13-17-40-26v-71h128l48 62c28-23 52-45 72-68l-11-19H631v-91h-57v91M97 592c68-3 102-11 102-24 0-9-13-19-40-28V110c0-26 11-41 33-48 18-5 106-8 264-8 145 0 258 4 339 12 4 1 9 1 15 1 16 0 29-7 37-20 6-11 9-20 9-26 0-9-7-14-22-16-32-3-134-5-305-5-232 0-361 5-384 14-32 13-48 41-48 83v495m245-71-12 25h243l46 54c22-17 43-37 63-60l-12-19H342Z"/></symbol><symbol id="𮎶_K" viewBox="0 0 1000 1000" data-size="21"><path transform="matrix(1 0 0 -1 54 946)" d="m893 757-6-14H707v-72c0-16-1-25-2-27-1-3-8-7-22-12-8-4-13-6-16-6-4 0-6 2-7 6v14c1 11 1 20 1 25v72H479v21h182v88l-3 40 50-8c16-5 23-11 23-17s-8-14-24-22v-81h99l21 33c8 6 12 10 13 10 2 0 6-4 12-10l41-40m-473 3-9-17H240v-96c-1-3-8-7-20-11-9-4-15-5-19-5-3 0-5 3-6 9 1-13 1-3 1 30v73H0v21h196v87l-2 41 44-12c22-5 33-11 33-16 0-6-11-15-31-25v-75h87l27 35c5 6 9 10 10 10 2 0 6-4 13-10l43-39m432-167-6-14H136v-75c0-130-7-229-21-295C100 126 70 59 25 6l-9 6c35 56 58 119 67 190 6 46 9 143 9 293v87l-4 46 52-28h287v46l-2 46 54-14c20-6 30-12 30-18s-13-14-38-24v-36h273l27 39c5 7 10 11 12 11 3 0 9-4 18-14l51-43m-75-324-6-12H504V70c0-35 0-53 1-51-1-6-10-11-26-15-6-3-11-4-13-4-3 0-5 2-6 6-1 3-1 11 0 23 1 17 1 30 1 41v187H218v20h243v148c-103-22-177-34-223-35l-4 10c164 30 308 74 431 133l30-24c14-10 21-18 21-24s-5-8-15-8c-6 0-13 2-23 5-80-22-138-39-174-48V277h165l26 31c11 12 17 18 20 18 2 0 9-5 19-15l43-42Z"/></symbol><symbol id="𮎷_J" viewBox="0 0 1000 1000" data-size="21"><path transform="matrix(1 0 0 -1 61 945)" d="M271 769v121c64 0 96-7 96-21 0-8-13-17-40-26v-74h212v120c63-2 94-10 94-24 0-8-12-17-38-26v-70h161l52 65c27-24 50-48 69-72l-10-18H595v-78h-56v78H327v-94h-56v94H10L0 769h271m107-654v490c64-3 96-11 96-24 0-9-13-19-38-28V126c0-17 5-27 16-32 9-5 47-7 112-7 81 0 160 3 236 11 7 0 15 1 23 1 23 0 35-13 35-38 0-12-18-19-54-22-41-4-123-5-245-5-90 0-142 5-156 15-17 11-25 33-25 66M14 495l9 19c92-26 138-60 138-101 0-24-11-36-33-36-14 0-24 10-31 30-11 29-39 59-83 88m71 139 13 18c89-25 133-58 133-100 0-24-11-36-34-36-13 0-23 9-30 27-11 32-39 62-82 91m417-82-12 25h247l46 62c24-22 45-45 63-68l-12-19H502M34 225v25c15-2 27-3 35-3 25 0 48 14 69 41 47 61 108 165 182 313l27-13-162-334c-8-17-12-34-12-51 0-14 2-29 6-46 9-38 13-71 13-101 0-37-14-56-42-56-23 0-35 11-35 34 0 1 3 21 8 59 2 12 3 25 3 38 0 36-10 61-29 75-12 9-33 15-63 19m468 129-12 25h247l46 62c24-22 45-45 63-68l-12-19H502Z"/></symbol><symbol id="𮎸_J" viewBox="0 0 1000 1000" data-size="21"><path transform="matrix(1 0 0 -1 62 950)" d="M404 430c-91-7-185-12-282-14l-10 23c225 15 407 40 546 75 45-25 68-43 68-53 0-5-6-8-18-8-8 0-20 2-38 5-84-10-153-18-207-22V279h270l53 67c26-23 50-47 71-73l-12-19H463V0h-59v254H28l-10 25h386v151M123 609h282v116c65-2 98-9 98-21 0-9-14-18-41-28v-67h304l38 48c46-43 69-70 69-83 0-6-5-10-15-11l-34-6c-21-24-44-47-70-68l-17 13c15 28 27 55 35 82H123c-3-43-13-80-31-110-15-25-31-37-49-37-11 0-21 3-27 10-7 7-10 16-10 26 0 11 8 24 25 36 36 29 57 75 64 138l25-4 3-34m130 184v106c65 0 98-7 98-23 0-7-14-15-41-24v-59h254v106c67 0 101-7 101-23 0-8-15-17-44-27v-56h137l48 65c28-25 52-48 70-70l-10-19H621v-93h-57v93H310v-93h-57v93H10L0 793h253Z"/></symbol><symbol id="𮎹_J" viewBox="0 0 1000 1000" data-size="21"><path transform="matrix(1 0 0 -1 57 931)" d="M219 286v-47h-57v261c31-12 54-22 69-29h421l38 44c38-29 57-48 57-56 0-4-3-9-9-14l-20-16V253h-57v33H469V175h204l49 61c27-22 49-45 67-67l-11-19H469V25h290l54 68c29-26 54-51 73-74L876 0H13L4 25h406v125H108l-11 25h313v111H219m0 25h442v135H219V311m319 424v125c65-3 97-11 97-25 0-7-13-16-41-28v-72h133l45 59c26-21 47-43 64-64l-11-20H594V577h179l48 63c25-22 47-44 65-67l-12-21H10L0 577h281v133H63l-9 25h227v126c65-2 97-9 97-23 0-8-14-17-41-27v-76h201m0-158v133H337V577h201Z"/></symbol><symbol id="𮎺_J" viewBox="0 0 1000 1000" data-size="21"><path transform="matrix(1 0 0 -1 59 928)" d="M228 580h420l38 44c38-29 57-48 57-56 0-4-3-9-9-14l-20-16V346h-57v49H215v-50h-57v263c30-11 53-20 70-28m-13-25V420h442v135H215m250-295v-96h204l49 61c26-23 49-45 67-67l-11-19H465V25h290l54 68c29-26 54-51 73-74L872 0H9L0 25h406v114H104l-11 25h313v96H51l-11 25h686l49 61c27-23 49-45 67-67l-11-19H465m76 462H329v-96h-56v96H12L2 747h271v110c64-3 96-11 96-24 0-8-13-17-40-27v-59h212v109c63-3 95-11 95-24 0-8-13-17-39-26v-59h162l52 65c26-23 49-47 69-71l-10-19H597v-96h-56v96Z"/></symbol><symbol id="𮎻_J" viewBox="0 0 1000 1000" data-size="21"><path transform="matrix(1 0 0 -1 48 950)" d="M170 685h545l47 49c29-21 51-40 68-57l-10-17H167V437h568l47 59c26-22 48-44 68-67l-10-17H167v-37h-57v337l60-27m316-116c45 24 83 50 115 77 44-14 66-27 66-38 0-7-10-11-31-11-6 0-12 0-17 1-25-16-52-32-83-48 68-27 102-49 102-66 0-18-8-27-26-27-7 0-21 8-42 23-23 17-50 33-82 47-74-33-155-57-242-74l-13 21c72 18 142 42 209 73-41 18-98 36-170 56l12 21c59-12 126-30 202-55M270 784H25l-10 25h255v91c65 0 98-7 98-21 0-9-14-18-42-27v-43h242v91c62-1 93-8 93-21 0-8-12-16-37-26v-44h158l46 64c26-24 48-47 65-69l-11-20H624v-70h-56v70H326v-70h-56v70m360-682v271c64-3 96-12 96-26 0-8-13-16-39-25V115c0-14 5-22 14-26 6-2 23-4 51-4 37 0 59 9 66 26 10 27 17 77 20 148l26-10c0-67 3-111 8-131 5-14 16-22 33-22-1-26-12-43-32-52-20-8-62-12-126-12-50 0-82 5-96 13-14 9-21 28-21 57M14 0 0 23c72 33 120 74 145 123 19 36 28 82 28 136v83c65-1 97-8 97-23 0-8-12-17-37-26v-34c0-93-26-163-78-210C123 43 76 19 14 0m385 56v292c63-1 95-8 95-22 0-8-13-17-39-27V56h-56Z"/></symbol><symbol id="𮎼_S" viewBox="0 0 1000 1000" data-size="21"><path transform="matrix(1 0 0 -1 48 958)" d="M96 31 32 0v672l64-31h650l53 52 63-52v-21H553V473h168l31 26 58-47-27-21V210l-62-31v63H553V53h230l53 52 62-52V31H96m131 589H96V53h131v567m262-378H290V53h199v189m232 210H290V263h431v189M489 620H290V473h199v147m77 296 64-11 16-10-16-9v-66h159l53 53 62-53v-21H630v-70l-64-32v102H338v-70l-63-32v102H0v21h275v96l63-11 16-10-16-9v-66h228v96Z"/></symbol><symbol id="𮎽_S" viewBox="0 0 1000 1000" data-size="21"><path transform="matrix(1 0 0 -1 43 965)" d="m86 595 62-11 17-10-17-10V53h612l53 52 62-52V31H148L86 0v595m197-459v-16l-62-31v643l62-31h382l53 53 62-53v-21H524V532h142l31 27 58-47-26-22V288l-63-31v63H524V157h159l52 53 63-53v-21H283m178 184H283V157h178v163m205 192H283V341h383v171M461 680H283V532h178v148m111 250 64-11 15-11-15-9v-53h162l53 51 63-51v-22H636v-59l-64-32v91H342v-59l-64-32v91H0v22h278v84l64-11 15-11-15-9v-53h230v84Z"/></symbol><symbol id="𮎾_J" viewBox="0 0 1000 1000" data-size="21"><path transform="matrix(1 0 0 -1 52 951)" d="M362 646H31l-12 25h740l47 57c26-22 47-42 64-62l-11-20H438c-45-49-91-91-136-128 90 2 170 6 242 10l116 8c-31 21-67 42-108 61l14 20c88-28 159-61 212-100 30-21 45-40 45-56 0-23-11-34-33-34-11 0-25 10-42 31-13 17-32 34-55 53-163-19-340-36-533-51-8-23-16-34-23-34-12 0-23 30-34 89 38 0 90 1 157 2 32 34 66 77 102 129m30-402H27l-12 25h383c3 17 5 33 5 48v60H140l-12 25h501l47 57c26-21 47-42 64-62l-11-20H462v-68c0-14-1-27-3-40h289l55 64c30-24 56-48 78-72l-12-17H475c85-93 225-149 421-167-19-20-33-41-44-63-102 17-186 44-252 81-62 35-112 80-150 137-19-61-60-112-123-151C263 40 157 13 10 0L0 24c138 19 238 51 298 96 47 35 78 76 94 124M259 786H14L4 811h255v91c65 0 98-7 98-21 0-9-14-18-42-27v-43h242v91c62-1 93-8 93-21 0-8-12-16-37-26v-44h158l46 64c26-24 48-47 65-69l-11-20H613v-80h-56v80H315v-80h-56v80Z"/></symbol><symbol id="𮎿_J" viewBox="0 0 1000 1000" data-size="21"><path transform="matrix(1 0 0 -1 61 949)" d="M435 364H178l-13 25h275c3 15 5 33 5 56v141H212l-13 25h474l48 47c28-20 49-37 65-52l-11-20H503V444c0-21-1-39-4-55h205l52 52c25-17 48-35 69-55l-7-22H511c52-86 147-149 283-187-24-17-41-36-50-55-126 51-210 125-254 224-19-69-61-123-127-163-48-30-111-54-188-72l-15 22c91 29 158 64 202 106 36 34 60 76 73 125M126 82h627l56 59c30-26 53-47 69-65l-11-19H126V0H67v666c64-4 96-13 96-26 0-9-12-17-37-26V82m456 686H469l-10 25h123v105c64 0 96-7 96-22 0-8-13-18-39-29v-54h127l48 61c24-21 45-43 63-65l-10-21H639v-76h-57v76m-357 0H10L0 793h225v106c64-1 96-8 96-21 0-8-13-17-39-26v-59h49l44 57c26-22 47-43 63-61l-10-21H282v-82h-57v82m359-368-22 10c35 52 61 104 79 158 52-19 78-34 78-44 0-9-12-13-38-14-30-42-63-79-97-110M249 545l14 15c71-37 107-76 107-117 0-21-11-32-34-32-14 0-24 11-30 33-10 40-29 73-57 101Z"/></symbol><symbol id="𮏀_J" viewBox="0 0 1000 1000" data-size="21"><path transform="matrix(1 0 0 -1 52 952)" d="M302 280c-66-53-150-99-253-139l-16 22c148 69 255 154 321 254H32l-9 25h393v86H123l-9 25h302v78H82l-9 25h343v94c63 0 94-7 94-21 0-8-12-16-36-24v-49h230l52 58c28-22 52-44 70-65l-11-18H474v-78h186l52 58c28-23 52-44 70-65l-11-18H474v-86h280l52 58c28-23 52-44 70-64l-11-19H427c-18-26-39-53-64-80h256l35 34c46-31 69-50 69-58 0-4-4-7-11-10l-29-9c-53-58-104-104-153-137 80-33 202-59 366-76-15-13-31-32-46-58-166 27-288 62-368 104C374 65 218 23 13 0L0 24c197 35 342 80 435 133-40 27-84 68-133 123m22 19c43-44 93-83 152-117 52 36 100 79 142 130H338c-3-3-8-7-14-13m-80 504v101c66-1 98-8 98-23 0-8-14-17-42-26v-52h53l45 56c28-22 50-43 67-62l-11-19H300v-69h-56v69H20l-10 25h234m340-25h-87l-10 25h97v101c64 0 96-7 96-22 0-7-13-15-40-25v-54h131l48 60c31-25 54-47 70-66l-10-19H640v-69h-56v69Z"/></symbol><symbol id="𮏁_J" viewBox="0 0 1000 1000" data-size="21"><path transform="matrix(1 0 0 -1 54 952)" d="M300 574h409l38 41c40-27 60-46 60-56 0-4-3-8-8-12l-24-14V377h-56v49H537c8-50 19-90 30-120h204l49 62c30-27 52-49 65-68l-10-19H577c33-75 79-130 137-165 36-22 61-33 76-33 19 0 35 42 49 127l26-13c-4-38-5-63-5-75 0-35 11-55 33-58-4-33-23-50-56-50-48 0-98 18-151 53-78 52-135 122-170 209H289V103c93 8 181 19 264 33l5-26C436 81 312 58 188 39c-3-26-9-39-19-39-16 0-31 31-45 92 32 2 67 4 107 6v504c20-7 43-16 69-28m-11-25v-98h430v98H289m188-123H289V301h217c-11 32-21 73-29 125M162 691h579l47 52c25-19 47-39 67-59l-11-17H159V486C159 261 113 99 21 0L0 15c67 101 100 257 100 468v235c23-8 44-17 62-27m121 121v92c66-1 99-9 99-23 0-9-14-17-43-26v-43h214v92c63 0 94-7 94-21 0-8-13-16-38-25v-46h169l49 63c25-22 47-45 66-68l-11-20H609v-67h-56v67H339v-67h-56v67H23l-10 25h270Z"/></symbol><symbol id="𮏂_S" viewBox="0 0 1000 1000" data-size="21"><path transform="matrix(1 0 0 -1 39 971)" d="M219 385v-5h128v227H219V385m656-93 43-46 4-18-19 4-23-20-40-32-43-30-44-28-46-25-48-24-50-21-52-19-53-16-57-13-3 9 103 47 94 48 44 28 42 27 40 30 38 32 35 32 30 30 5 5m-39 191 42-46 4-19-20 5-48-38-67-47-74-42-39-20-40-17-42-16-44-14-4 9 113 69 70 47 32 24 60 51 29 26 26 27 2 1m-30 187 42-47 3-19-19 5-43-33-62-43-68-39-36-18-37-18-38-16-40-14-4 8 164 114 59 47 53 48 26 25M575 942l64-10 15-11-15-9v-85h162l53 53 63-53v-20H639v-90l-64-31v121H345v-90l-64-31v121H3v20h278v115l64-10 15-11-15-9v-85h230v115M156 380v227H25v22h380l53 52 63-52v-22H409V380h22l52 53 64-53v-21H409V31L347 0v359H218l-3-33-7-55-12-50-14-46-20-41-24-37-28-32-31-26-35-20L5 4l-3 9 31 22 28 26 24 27 19 30 17 34 14 39 11 42 6 47 4 50v29H0v21h156Z"/></symbol><symbol id="𮏃_S" viewBox="0 0 1000 1000" data-size="21"><path transform="matrix(1 0 0 -1 46 965)" d="m173 56-3 7 3-7m462 390H236V338h399v108m0 130H236V468h399v108M0 652v21h230v116H42v21h188v121l64-11 16-11-16-9v-90h314v121l64-11 16-11-16-9v-90h62l53 52 64-52v-21H672V673h141l42 48 53-48v-21H0m608 137H294V673h314v116M178 40l2-3-2 3m10-28-31 55 11 4 5 2v556l63-32h399l31 26 59-47-27-21V307l-63-32v42H429l29-32 37-37 38-34 41-29 31-20 189 119v1-1l4 3 11-17 30-32 1-17-20 8-77-34-46-18-24-8-26-8-24-7 36-18 46-20 48-14 50-12 104-17-62-60-57 12-54 18-50 20-49 25-46 29-42 32-39 38-35 40-33 44-25 46H236V91l94 27 97 25 64 13 4-9-58-31-92-40-137-56-5-20-15 12Z"/></symbol><symbol id="𮏄_J" viewBox="0 0 1000 1000" data-size="21"><path transform="matrix(1 0 0 -1 61 949)" d="M453 402V121h-53v252c-64-91-143-162-237-213l-14 20c98 69 176 158 235 265H164l-10 25h246v124c61-2 91-9 91-21 0-8-12-16-38-24v-79h163l43 51c24-20 44-39 59-57l-12-19H458c27-45 66-88 116-128 47-38 99-69 156-93-20-14-36-30-48-49-52 29-99 66-142 110-37 37-66 76-87 117M120 63V0H62v684c26-10 49-20 70-30h599l40 48c43-34 65-56 65-65 0-5-3-9-8-12l-26-16V0h-58v63H120m0 25h624v541H120V88m150 707v103c65 0 97-7 97-21 0-8-13-17-41-26v-56h212v102c65-1 97-9 97-23 0-8-13-17-41-27v-52h172l48 62c25-22 46-44 63-66l-10-21H594v-84h-56v84H326v-84h-56v84H10L0 795h270Z"/></symbol><symbol id="𮏄_S" viewBox="0 0 1000 1000" data-size="21"><path transform="matrix(1 0 0 -1 43 972)" d="m72 712 64-31h647l31 26 58-48-26-20V37L783 5v42H136V31L72 0v712m711-53H136V68h647v591M646 192l-31 28-27 28-25 29-21 30-20 30-15 30-13 31-10 33-1 10V119l-63-31v281l-13-20-24-36-29-32-31-32-33-29-37-29-39-25-44-23-4 7 36 32 33 31 32 31 28 32 25 34 23 32 19 34 18 35 14 35 4 17H168v21h252v146l63-11 16-11-16-9V484h147l53 52 63-52v-21H490l31-51 18-25 20-26 21-24 49-48 27-22 79-58-57-44-32 27m-74 752 64-10 15-11-15-10v-74h162l53 53 63-53v-21H636v-81l-64-31v112H342v-81l-64-31v112H0v21h278v105l64-10 15-11-15-10v-74h230v105Z"/></symbol><symbol id="𮏅_K" viewBox="0 0 1000 1000" data-size="21"><path transform="matrix(1 0 0 -1 51 946)" d="M864 803c9-5 12-10 9-14s-12-7-29-7H602v-56c1-8 1-12 0-15-2-3-9-7-21-12-13-5-21-6-23-4s-3 8-1 17l1 17v53H304v-50c1-9 1-15 0-18-2-4-9-8-20-13-14-6-22-8-24-6s-3 9-1 22l1 25v40H88l-71-2-11 22 103-4h151v95l54-17c19-5 27-9 25-15-1-6-13-12-35-16v-47h254v95l50-17c19-6 27-11 25-16-2-6-13-10-31-12v-50h169l35 45 58-40M553 635l35 36 41-40c17-15 23-25 19-30-3-4-17-6-41-6l-48-53c42-57 88-103 139-138 52-34 118-60 200-78l-2-9c-23 1-39-2-48-8s-17-16-24-29c-63 28-116 61-159 101s-82 90-117 149c-74-77-155-137-243-180S117 274 4 250l-4 11c123 42 226 86 309 132s164 120 243 223H338c-39-43-80-81-123-111-44-30-94-56-151-78l-5 11c63 35 121 76 173 124 53 47 96 107 131 180l52-24c18-11 26-18 23-22-4-4-18-8-43-11l-21-25c-8-10-16-18-23-25h202m-86-252c23-6 33-13 31-21-2-7-12-11-31-13l-4-24-3-17c9-25 20-49 32-73 13-22 27-42 41-57 28 22 50 40 66 53 16 15 45 46 86 94l37-35c15-16 19-27 12-33-4-5-16-3-35 6l-155-98c40-36 84-63 132-79s113-28 196-35l-3-10c-23-1-41-5-54-12-11-7-20-17-25-29-60 10-122 35-186 72-63 38-115 102-154 194-36-99-94-167-176-203C194 26 107 6 15 1l-4 11c98 13 187 43 265 91 79 48 127 144 145 289l46-9m-191-91c0-30-7-63-20-99-13-35-28-61-45-77-8-10-17-16-27-18-10-3-17-2-23 3s-9 13-7 24c4 13 12 26 27 40 19 14 36 29 50 45 15 16 27 44 37 82h8Z"/></symbol><symbol id="𮏆_G" viewBox="0 0 1000 1000" data-size="21"><path transform="matrix(1 0 0 -1 21 973)" d="M146 435V281h118v154H146m167 509 81-35c9-3 11-7 6-11-13-5-22-12-29-21v-66h29l35 39 66-49c5-4 7-7 6-9-1-1-5-2-12-1H371v-32l3-40c2-24-14-38-47-43 4 33 6 64 7 94v21H209v-26l3-36c1-22-14-36-47-43 0 1 0 4 1 7 3 33 5 60 6 83v15h-62c-17 1-32-3-44-12l-33 32h139v74c1 11-10 26-33 45l13 12 81-35c9-3 11-7 6-11-14-5-24-12-30-21v-64h125v76c1 11-9 26-30 45l9 12M108 490l33-39h104l32 34 45-38c5-4 6-8 5-11s-4-5-10-6l-18-8V304l2-71c0-19-12-29-37-30v62H146v-35c3-24-11-38-42-42 3 24 6 62 7 113v145c-2 9-8 19-17 29l14 15m36 206 62-35c3-3 4-5 4-7s-2-3-6-4c-7 0-17-5-28-15-5-9-13-25-26-48h234l33 39 43-39c6-4 9-8 9-11 0-2-3-4-9-7l-20-13V280c0-62-6-110-18-144-9-23-23-44-43-62s-56-32-107-41c1 11-6 23-21 37-17 12-44 26-80 41l2 16c58-19 101-29 129-29 26 0 47 11 63 32 22 29 33 72 34 128v309H138c-3-5-6-11-11-20-4-5-7-9-8-12-27-44-64-87-110-128l-9 10c57 77 101 149 133 218 12 29 12 46 1 51l10 10m687-14c3-7 0-11-9-14l-19-13V93c0-20 3-32 10-36 11-7 31-8 59-5 17 2 28 10 33 24 5 13 8 39 9 80l3 90h12l6-87c2-53 10-80 23-82-11-41-39-61-83-61-29-3-52-2-69 2-30 7-45 30-46 68v588H647c-3-205-26-353-69-446C528 124 470 48 403 0l-6 12c66 67 117 149 154 247 33 89 51 227 54 415h-61c-19 0-34-4-43-11l-28 29h132v216c-5 13-11 23-18 30l8 8 87-29c3-3 3-5 2-6s-3-2-8-2c-9-3-19-9-29-17V790c1-35 1-67 0-98h96l33 40 55-50Z"/></symbol><symbol id="𮏇_J" viewBox="0 0 1000 1000" data-size="21"><path transform="matrix(1 0 0 -1 51 953)" d="M464 563c-73-46-152-81-237-106l-16 20c70 25 140 61 210 107-40 20-97 42-170 67l18 18c62-16 125-36 187-61 37 26 70 55 100 87 47-13 71-25 71-36 0-7-15-11-46-11-18-15-44-35-78-59 89-39 133-71 133-96 0-16-9-24-27-24-9 0-20 6-32 16-30 28-68 54-113 78M165 437h550v267c63-3 95-11 95-25 0-8-13-17-39-26V388h-56v24H165v-37h-57v327c62-3 93-10 93-23 0-8-12-16-36-25V437m422 348H477l-10 25h120v96c64-1 96-8 96-22 0-8-13-17-39-26v-48h130l48 61c24-21 45-43 63-65l-10-21H644v-66h-57v66m-353 0H18L8 810h226v96c65 0 98-7 98-22 0-8-14-17-41-27v-47h48l44 57c26-22 47-43 63-61l-10-21H291v-81h-57v81M740 32c-57 0-93 5-106 13-14 9-21 28-21 57v271c64-3 96-12 96-26 0-7-13-16-39-25V115c0-14 5-22 14-26 6-2 27-4 61-4 37 0 59 9 66 26 10 27 17 77 20 148l26-10c0-67 3-111 8-131 5-14 16-22 33-22-1-26-12-43-32-52-20-8-62-12-126-12M14 0 0 23c72 33 120 74 145 123 19 36 28 82 28 136v83c65-1 97-8 97-23 0-8-12-17-37-26v-34c0-93-26-163-78-210C123 43 76 19 14 0m378 56v292c64-1 95-8 95-22 0-8-13-17-39-27V56h-56Z"/></symbol><symbol id="𮏈_S" viewBox="0 0 1000 1000" data-size="21"><path transform="matrix(1 0 0 -1 35 974)" d="m266 745 54-33 9-17-19-1-42-73-57-88-30-42-2-3 30-5 16-10-16-10V31L146 0v446l-64-74-37-36-38-35-7 7 89 124 56 85 50 87 47 89 24 52m601-615 64-53V57H254v20h561l52 53M391 719l63-31h302l32 26 58-48-27-20V186l-63-32v52H454v-36l-63-32v581m365-276H454V228h302v215m0 223H454V464h302v202M587 948l63-10 16-11-16-9v-60h163l52 52 64-52v-21H650v-66l-63-31v97H356v-66l-63-31v97H15v21h278v90l63-10 16-11-16-9v-60h231v90Z"/></symbol><symbol id="𮏉_S" viewBox="0 0 1000 1000" data-size="21"><path transform="matrix(1 0 0 -1 39 956)" d="m772 17-72 13-66 17-62 22-55 27-38 22-65-31-70-26-75-23-80-17-84-13-86-8-2 10 86 17 80 21 76 23 70 28 67 29 41 21-16 12-38 39-32 43-18 34-34-30-33-24-36-24-38-20-39-20-42-16-45-15-3 9 77 48 35 23 33 24 30 26 28 25 26 28 23 27 22 29 17 29 4 4 50-38 8-17-20 1-12-15-13-15h270l8 10 2-2 23 19 57-47-26-16-22-9-33-34-52-44-57-39-15-8 12-6 54-20 57-16 64-13 68-10 73-6 58-3-62-65-78 10M622 296H352l-10-10 26-29 36-35 41-32 29-17 38 24 51 40 45 43 14 16m101 116-21 21-13 10-83-11-159-16-151-15-48-4-26-1-11-18-11 16v12l-1 4v13l-1 4v7l-1 2v15l-1 2v3l42 1 102 72 53 41 77 66 1 1 39-50 2-19-19 7-69-47-60-36-61-31-6-3 45 1 51 1 51 1h161l56-2h7l-86 52-28 15 4 8 60-14 27-9 47-18 21-9 35-18 15-10 12-11 8-22-10-22-22-7-22 9-6 9m-527 44 4-62-13 62h9m131 274 49-40 7-17-21 2-13-17-30-31-31-30-34-28-36-27-38-24-41-24-42-21-46-20-47-17-4 8 83 53 38 25 69 55 61 58 52 60 24 35m539-268-55 51-61 49-136 95-74 50 4 8 43-14 42-16 78-38 73-42 69-43 63-48 11-10-57-42M579 912l64-11 15-10-15-9v-40h162l52 53 64-53v-21H643v-46l-64-32v78H349v-46l-64-32v78H7v21h278v70l64-11 15-10-15-9v-40h230v70Z"/></symbol><symbol id="𮏊_S" viewBox="0 0 1000 1000" data-size="21"><path transform="matrix(1 0 0 -1 43 917)" d="m276 168 38-50 1-19-18 7-32-20-54-28-58-25-29-11-31-8-32-8-34-6-2 9 112 60 50 32 46 32 38 32 5 3M731 24l-32 26-42 27-52 27-92 46 3 9 36-6 34-7 32-9 30-10 28-10 50-21 42-24 18-12 10-23-7-22-21-10-24 7-13 12M16 177v21h158v367l47-7 28 5 86 16 124 22 117 23 32 8 6 1 1-6 57-48 2-15-24 12-24-5-39-6-40-4-81-9-42-3-42-3-43-2-44-1-44 1-15-9V435h457l53 52 63-52v-22H604V198h173l53 53 63-53v-21H16m525 236H236V198h305v215m31 421 64-11 15-10-15-9v-49h162l53 53 63-53v-21H636v-54l-64-32v86H342v-54l-64-32v86H0v21h278v79l64-11 15-10-15-9v-49h230v79Z"/></symbol><symbol id="𮏋_J" viewBox="0 0 1000 1000" data-size="21"><path transform="matrix(1 0 0 -1 54 953)" d="M418 622v110c67-1 100-8 100-22 0-8-14-16-43-25v-63h298l38 44c49-43 73-70 73-83 0-6-5-10-15-11l-35-4c-33-19-68-35-105-48l-13 18c27 22 47 42 61 59H553V495c0-14 5-22 13-26 10-5 41-7 91-7 73 0 114 6 122 19 6 10 12 30 17 62l24-8c0-44 12-66 36-66-2-28-16-44-42-48-25-5-74-7-148-7s-120 3-137 9c-20 8-30 26-30 55v119H138c-2-36-11-68-25-94-17-30-35-45-54-45-23 0-35 12-35 35 0 9 8 20 23 33 33 28 54 74 63 139l25-4c1-5 1-12 2-21 0-11 1-17 1-18h280m2-462c-66 43-127 100-182 173h-77l-10 25h481l36 37c43-31 65-52 65-62 0-4-4-8-11-11l-32-12c-52-60-110-110-173-151 105-45 229-72 374-81-18-17-33-37-44-61-151 21-276 58-377 113C353 63 201 20 13 0L0 24c167 27 307 72 420 136m43 25c64 41 119 91 166 148H275c52-58 115-107 188-148M244 791v115c66-1 98-9 98-23 0-8-14-17-42-26v-66h52l44 57c29-24 52-45 68-63l-11-19H300v-77h-56v77H22l-10 25h232m342-25h-90l-10 25h100v115c64 0 96-8 96-23 0-8-13-16-40-25v-67h130l48 61c27-23 51-45 71-67l-11-19H642v-77h-56v77M34 348l-11 22c132 44 236 118 312 220 51-21 77-37 77-48 0-7-10-11-31-11-6 0-12 1-17 1-82-87-192-148-330-184Z"/></symbol><symbol id="𮏌_J" viewBox="0 0 1000 1000" data-size="21"><path transform="matrix(1 0 0 -1 51 950)" d="M398 250H10L0 275h406c3 16 5 29 5 41v62c60-3 90-10 90-21 0-6-11-14-32-24v-18c0-14-2-28-4-40h301l54 56c29-22 53-42 72-61l-12-20H474C573 148 714 91 899 78c-16-18-30-39-42-64-188 28-322 101-404 219-24-61-73-111-145-150C232 41 134 13 13 0L3 25c122 20 219 54 289 102 53 36 88 77 106 123M216 422c25 30 46 57 62 79 13 18 29 45 51 82H33l-11 24h381v122c64 0 96-8 96-21 0-7-13-16-38-27v-74h286l53 63c28-23 51-46 70-67l-13-20H406c-27-33-51-60-72-82-28-31-55-57-80-78 138 2 281 9 428 20-31 25-73 51-125 78l14 21c88-30 159-66 212-106 30-24 45-44 45-61 0-22-11-34-33-34-11 0-25 11-42 34-13 15-27 30-42 44-165-20-357-38-576-52-8-23-16-34-23-34-12 0-23 29-34 88l138 1m40 374v104c66-1 99-8 99-22 0-8-14-16-41-25v-57h252v104c65-1 97-8 97-22 0-8-13-17-39-25v-57h147l48 65c25-23 47-46 66-70l-11-20H624v-88h-58v88H314v-88h-58v88H18L8 796h248Z"/></symbol><symbol id="𮏍_J" viewBox="0 0 1000 1000" data-size="21"><path transform="matrix(1 0 0 -1 60 945)" d="M734 319H403V119c0-20 7-32 19-36 16-5 72-8 168-8 114 0 177 7 190 21 16 19 26 68 31 147l26-11v-37c-1-41 3-70 11-86 5-12 16-18 32-20-1-31-14-50-40-56-26-7-100-10-223-10-145 0-226 6-246 17-17 10-26 31-26 64v514c24-9 45-18 64-28h318l35 44c40-31 61-51 61-60 0-4-3-8-9-12l-24-15V270h-56v49m-142 25h142v221H592V344m-52 0v221H403V344h137M271 768v121c64 0 96-7 96-21 0-8-13-17-40-26v-74h212v120c63-3 94-11 94-25 0-8-12-16-38-25v-70h161l52 65c27-24 50-48 69-72l-10-18H595V641h-56v102H327V641h-56v102H10L0 768h271M129 376c-13 0-23 9-31 28-14 34-42 64-83 90l10 19c91-29 137-63 137-101 0-24-11-36-33-36m79 138c-15 0-25 9-30 27-9 29-37 60-83 92l12 18c89-26 134-60 134-101 0-24-11-36-33-36M145 0c-23 0-34 11-34 34 0 4 2 17 6 40 3 25 5 45 5 60 0 36-10 60-29 72-13 7-34 13-62 18v25c17-1 27-2 30-2 26 0 50 13 71 40 58 72 113 155 167 249l23-17-142-267c-9-16-13-35-13-56 0-12 2-25 6-40 10-39 15-73 15-101 0-37-14-55-43-55Z"/></symbol><symbol id="𮏎_S" viewBox="0 0 1000 1000" data-size="21"><path transform="matrix(1 0 0 -1 42 970)" d="m437 622-15-9 4-80 13-89 2-7 336 14 51 55 66-50v-21l-447-19 15-51 32-69 39-60 7-7 64 48 54 49 48 48 5 6 44-45 5-19-20 4-41-38-60-49-62-43 5-4 58-42 67-34 77-25 55-10 28 126h11L868 70l3-1 21-11 6-24-11-20-24-7-94 17-85 28-77 38-66 48-19 19-84-44-74-31-78-27-81-24-84-17L33 0l-2 10 86 22 80 27 77 28 75 32 69 34 65 38 4 2-49 73-35 78-20 69-361-15-1 21 356 16-14 92-5 106v13l63-13 16-11m201-112-8 11-20 22-24 22-31 25-17 12-19 10 3 10 22-7 21-5 20-6 19-8 18-8 32-19 15-9 13-12 12-12 5-23-11-21-24-6-20 12-6 12M15 556l32-55-25-2-19 14-3 23 15 20m0 0 11-20 1-3 1-1 1-1 2-5 7-11 2-2 2-3 5-9 16 14 13 16 11 18 9 19 6 22 3 22 2 24-1 14h711l-9-20-9-14-38-66-13-18 7-6 76 65 35 34 23 9 26 16-58 47-25-21-2 2-1-4-4-3H489v110l16 10-16 10-62 11V671H105l-1 17-3 29H91l-3-29-5-24-6-23-7-20-7-17-9-15-10-12-9-9-11-7-9-5m558 383 64-9 15-11-15-10v-66h162l53 53 63-53v-22H637v-72l-64-31v103H343v-72l-64-31v103H1v22h278v96l64-9 15-11-15-10v-66h230v96Z"/></symbol><symbol id="𮏏_S" viewBox="0 0 1000 1000" data-size="21"><path transform="matrix(1 0 0 -1 32 950)" d="M13 0v21h420v187H81v21h352v146l62-11 16-10-16-9V229h236l53 52 63-52v-21H495V21h305l53 52 62-52V0H13m808 315-50 20-49 21-45 24-43 25-41 28-37 29-35 31-31 34-9 12-13-15-37-35-41-32-45-29-48-28-52-25-56-22-57-21-63-17-66-14-3 9 121 48 55 26 52 26 46 28 43 30 39 31 36 32 32 33 29 39 48-42 6-19 35-25 36-25 39-23 40-22 43-19 45-19 47-15 49-15 96-25-62-55-54 16M303 685l43-46 4-19-21 5-30-23-53-35-29-15-64-30-34-12-36-11-37-10-4 9 97 56 55 36 48 36 22 20 39 39m485-156-37 31-66 44-108 61 3 9 33-6 32-8 30-10 28-10 52-24 25-12 23-14 42-28 10-23-6-22-23-11-22 8-16 15M579 900l64-10 15-10-15-10v-55h162l52 53 64-53v-21H643v-60l-64-32v92H349v-60l-64-32v92H7v21h278v85l64-10 15-10-15-10v-55h230v85Z"/></symbol><symbol id="𮏐_J" viewBox="0 0 1000 1000" data-size="21"><path transform="matrix(1 0 0 -1 58 942)" d="M234 247v132H127l-9 23h116v102c59-2 88-10 88-23 0-6-11-13-34-22v-57h157v102c60 0 90-7 90-20 0-9-12-16-36-23v-59h49l40 54c22-20 41-40 56-59l-10-18H499V247h89l42 57c20-18 39-38 57-61l-10-18H66l-9 22h177m54 0h157v132H288V247m-79 321C159 464 96 381 20 320L0 338c90 101 153 218 188 351 60-14 90-26 90-36 0-9-13-15-39-18l-18-42h527l39 48c40-31 60-51 60-61 0-4-3-8-9-12l-24-16c-1-272-19-439-55-502-19-32-51-49-96-50 0 18-5 30-14 37s-27 13-54 19c-5-6-12-9-22-9-17 0-29 9-38 26-16 34-54 68-114 104l14 18c55-19 98-40 129-63 24-18 36-34 38-48 27-4 49-6 67-6 25 0 43 13 53 38 23 57 34 208 34 452H209m69 195v120c64 0 96-7 96-21 0-8-13-17-39-26v-73h217v119c63 0 95-7 95-22 0-8-13-18-38-28v-69h155l52 64c26-23 49-47 69-71l-10-18H609v-91h-57v91H335v-72h-57v72H22l-10 25h266M97 11 79 31c81 53 140 110 177 170 51-19 77-35 77-47 0-8-15-11-45-9C244 93 180 49 97 11Z"/></symbol><symbol id="𮏑_J" viewBox="0 0 1000 1000" data-size="21"><path transform="matrix(1 0 0 -1 53 951)" d="M227 458h143l33 41c39-31 58-52 58-63 0-4-3-8-8-11l-23-12c-34-87-71-157-113-209C246 115 147 47 19 0L5 22c106 49 192 119 260 209-5-4-12-6-21-6-12 0-22 9-31 27-14 25-37 50-70 75-37-45-79-83-125-114L0 232c93 79 160 186 201 321 56-11 84-22 84-34 0-8-13-14-40-19l-18-42m-13-25c-14-26-32-54-55-85 77-30 116-61 116-92 0-7-1-12-3-16 39 53 73 117 102 193H214m331-133c86 35 162 82 228 141 44-33 66-56 66-68 0-8-6-12-18-12-5 0-16 2-35 6-72-41-153-73-241-98V116c0-18 5-28 16-31 13-4 47-6 102-6 75 0 118 8 128 23s17 50 22 107l24-8c0-52 4-84 11-96 6-9 17-14 32-14-1-31-15-49-41-55-26-5-82-8-170-8-87 0-139 5-155 14-17 9-25 31-25 64v421c61-1 92-8 92-22 0-7-12-16-36-26V300M119 611h296v118c62-1 92-9 92-22 0-8-12-16-38-27v-69h321l37 42c44-37 66-61 66-72 0-6-4-10-13-12l-31-7c-22-30-47-56-76-77l-18 13c16 27 28 57 38 88H119c-1-42-11-77-30-106-16-24-33-36-50-36-23 0-34 12-34 35 0 11 6 21 18 29 37 27 60 72 69 133l25-5c1-11 2-19 2-25m148 187v104c65-1 97-8 97-22 0-7-13-16-41-26v-56h234v104c64-1 96-8 96-23 0-8-13-17-39-25v-56h156l49 64c25-23 47-46 66-70l-12-19H614v-94h-57v94H323v-94h-56v94H18L8 798h259Z"/></symbol><symbol id="𮏒_J" viewBox="0 0 1000 1000" data-size="21"><path transform="matrix(1 0 0 -1 51 950)" d="M471 162V29h-57v133H179V0h-56v431c26-10 51-21 75-32h216v70H133l-12 25h293v63H11L0 582h414v60H148l-12 25h278v61c64-2 95-11 95-26 0-8-12-17-38-27v-8h189l34 40c39-29 59-49 59-58 0-5-3-9-8-12l-23-14v-41h81l42 60c22-24 40-46 54-67l-12-18H722V436h-55v33H471v-70h244l36 42c39-28 59-47 59-56 0-5-4-9-10-14l-21-14V85c0-50-32-75-97-75 0 17-9 30-26 37-16 6-48 13-95 20v26c57-5 100-8 128-8 22 0 34 9 34 28v49H471m0 130h252v82H471v-82m0-24v-81h252v81H471m-57-81v81H179v-81h235m0 105v82H179v-82h235m57 350v-60h196v60H471m196-85H471v-63h196v63M245 799v102c66-1 98-9 98-23 0-9-14-17-42-26v-53h53l45 57c25-20 48-41 67-62l-10-20H301v-79h-56v79H20l-10 25h235m329-25h-75l-10 25h85v102c63 0 95-7 95-21 0-9-13-17-39-26v-55h142l47 61c27-22 51-44 71-66l-11-20H630v-79h-56v79Z"/></symbol><symbol id="𮏓_J" viewBox="0 0 1000 1000" data-size="21"><path transform="matrix(1 0 0 -1 60 920)" d="M330 608H52l-11 25h676l49 55c27-22 49-43 66-62l-10-18H393c-11-34-19-60-25-77h226l35 32c43-23 64-40 64-49 0-3-3-7-9-10l-24-13v-94h102l51 60c27-23 49-45 67-67l-9-18H9l-9 25h252c14 30 30 66 46 109H105l-9 25h210c9 24 17 50 24 77m273-211v109H359c-9-25-23-61-43-109h287M240 25c18 38 35 81 52 130H105l-9 25h205c13 43 23 75 28 96H52l-11 25h676l49 54c27-22 49-42 66-61l-10-18H392c-12-43-22-75-29-96h231l35 33c43-24 64-42 64-52 0-3-3-7-9-10l-24-14V25h102l51 60c27-23 49-45 67-67l-9-18H9L0 25h240m64 0h299v130H354c-17-49-33-92-50-130m-70 719v96c65-1 98-8 98-23 0-8-14-17-42-26v-47h52l45 57c25-20 48-40 67-62l-10-20H290v-62h-56v62H11L1 744h233m341-25h-88l-10 25h98v96c64 0 96-7 96-22 0-8-13-17-40-26v-48h131l47 61c27-22 51-44 71-66l-11-20H631v-62h-56v62Z"/></symbol><symbol id="𮏔_J" viewBox="0 0 1000 1000" data-size="21"><path transform="matrix(1 0 0 -1 56 948)" d="M257 299v138H32l-10 25h235v128c63 0 95-8 95-23 0-9-13-18-38-28v-77h267v128c64 0 95-8 95-23 0-9-12-18-38-28v-77h117l51 51c27-19 50-38 69-57l-12-19H638V299h90l51 51c27-19 50-38 69-57l-12-19H568V111c0-17 4-28 13-32s38-7 86-7c78 0 122 9 130 25s14 54 19 114l27-8c0-48 3-80 8-96 5-15 18-23 37-23-1-34-17-53-48-58-29-5-76-8-142-8-87 0-139 3-155 10-22 8-33 28-33 61v185H374c-6-45-15-80-26-104-28-61-80-106-154-133C151 21 91 9 13 0L0 24c103 18 177 46 225 84 48 39 77 95 86 166H60l-10 25h207m57 0h267v138H314V299m279 469H480l-10 25h123v102c65 0 97-8 97-23 0-9-13-18-39-28v-51h126l48 61c24-21 45-43 63-65l-10-21H651v-79h-58v79m-358 0H21l-10 25h224v103c65-1 98-9 98-23 0-8-13-17-39-26v-54h48l44 57c25-22 46-43 63-61l-10-21H294v-79h-59v79m180-154H87l-10 25h338v94c66-1 99-8 99-21 0-9-14-18-42-28v-45h232l51 50c27-18 50-37 69-56l-12-19H472V500h-57v114Z"/></symbol><symbol id="𮏕_K" viewBox="0 0 1000 1000" data-size="21"><path transform="matrix(1 0 0 -1 66 941)" d="M858 801c9-5 12-10 9-14-2-4-12-7-29-7H596v-46c1-7 1-12 0-14-2-4-9-9-21-14-13-5-21-6-23-4s-3 8-1 19l1 15v44H298v-44c1-7 1-13 0-16-2-5-9-10-20-15-14-6-22-8-24-6s-2 10-1 24l1 23v34H82l-71-2-11 22 104-4h150v88l55-17c18-4 26-9 24-14-1-7-13-13-35-17v-40h254v88l51-17c18-6 26-11 24-15-2-6-12-11-31-13v-43h170l34 45 58-40M768 65l42 41 48-35c9-6 11-10 6-14-4-5-12-7-24-7H93V40c1-8 1-15 0-19-2-5-9-11-21-16-14-5-23-5-26-1-2 2-2 9-1 21l1 19v603l-1 58 59-31h642l36 42 51-33c10-8 13-13 9-18-5-5-14-7-26-7H93V65h675M187 299l-4 63 46-28h202v101H292v-14c0-9-1-14-2-17-3-4-9-8-19-11-12-4-20-4-23 1-1 3-2 10-1 22l1 14v124l-3 57 44-27h325l28 27 39-29c18-13 25-22 22-26-3-5-14-7-31-8V447c1-14 0-24-1-29-3-7-11-12-24-16-11-3-17-2-20 2-2 3-3 9-2 20l2 11H491c9-9 14-15 13-18-1-5-10-7-28-8v-75h203l33 28 36-28c14-12 20-20 19-24-2-7-14-10-35-10v-75c0-26-5-46-15-60-13-16-35-27-67-32-2 15-7 26-15 34-11 8-31 19-60 31l7 9 38-9 36-6c13-2 21 0 26 4 4 5 6 14 6 28v93H476V118c1-12 1-19 0-23-3-7-11-13-23-17-12-2-19-2-21 3-2 3-2 12-2 25l1 12v199H231V174c1-11 1-19-1-24-3-7-12-12-26-15-11-2-17 0-18 4-2 3-3 10-1 22l2 20v118m105 269V450h335v118H292Z"/></symbol><symbol id="𮏖_J" viewBox="0 0 1000 1000" data-size="21"><path transform="matrix(1 0 0 -1 52 950)" d="M480 241c98-96 236-151 416-163-16-18-30-39-42-64-187 28-322 101-404 219-24-60-73-110-145-150C230 41 131 14 10 0L0 25c118 20 212 53 283 99 52 34 88 73 108 117H21l-11 25h391c5 16 7 33 7 50v46H125l-10 25h293v92H66l-12 25h460c21 37 39 80 55 131 54-19 80-35 80-47 0-9-13-13-39-14-9-14-29-37-61-70h166l50 59c27-23 50-45 68-66l-12-18H466v-92h217l47 54c25-21 46-41 64-61l-12-18H466v-47c0-16-2-32-6-49h293l52 61c28-23 52-45 70-65l-12-21H480M279 663v104H65l-11 25h225v107c61-2 91-10 91-23 0-8-12-16-36-25v-59h207v109c62-3 92-11 92-25 0-8-12-17-38-26v-58h120l50 59c27-23 50-45 68-66l-12-18H595V663h174l48 64c27-24 50-47 68-69l-11-20H17L5 663h274m55 104V663h207v104H334m-44-230c-6 25-25 50-55 77l11 17c73-22 109-52 109-90 0-10-4-19-11-26-7-6-14-9-23-9-17 0-27 11-31 31Z"/></symbol><symbol id="𮏗_S" viewBox="0 0 1000 1000" data-size="21"><path transform="matrix(1 0 0 -1 43 973)" d="m58 689 63-31h677l32 27 58-48-27-21V37L798 6v42H121V31L58 0v689m740-52H121V68h677v569M308 478l62-10 16-11-16-10V244l48 43 43 45 40 50 37 53 34 56 33 67 54-35 10-16-21-2-25-44-39-59-42-53-46-50-49-45-51-41-26-17v-12l1-2v-2l1-3 3-2 9-4 8-1v-47h-13l-13 1-12 4-11 5-10 8-10 8-7 12-1 3-31-17-60-25-64-19-3 7 59 30 55 32 37 25v281m84-355h242l13 10 10 13-10 15-13 9 10 68h-10l-23-68H392v-47M164 268l36-51-23-5-21 13-5 23 13 20m12-17-2 3-3 5-4 5-1 2-2 2 11 6 11 8 7 9 8 11 7 13 6 15 4 19 3 19 2 23-1 24 8 2 7-24 7-23 3-22 2-22-1-20-4-21-7-19-9-18-12-17-16-14-5 7-1 1-4 5-1 1-1 4-12 16m528 13-1 11-3 13-4 14-7 13-7 14-10 15-25 30-15 14 5 8 39-20 16-12 16-11 14-14 12-14 12-15 9-16 7-18 5-17-7-24-21-11-22 6-13 21v13M456 488l-6 10-8 10-8 11-11 10-28 22-17 11-18 10-21 10 3 10 22-6 23-4 20-6 20-6 17-7 17-8 15-9 14-10 13-12 11-12 3-25-14-19-24-3-19 14-4 9m116 458 64-10 15-11-15-9v-68h162l53 52 63-52v-22H636v-73l-64-31v104H342v-73l-64-31v104H0v22h278v98l64-10 15-11-15-9v-68h230v98Z"/></symbol><symbol id="𮏘_K" viewBox="0 0 1000 1000" data-size="21"><path transform="matrix(1 0 0 -1 63 935)" d="m845 476-7-15H184c1-38 1-77 0-115C179 189 126 74 24 0L14 7c45 44 77 93 97 147 21 55 31 119 31 192 0 50-1 87-1 110l-4 24c-30-20-67-43-113-68l-6 12c52 35 100 75 143 121 44 45 74 87 90 125l43-22c15-6 21-13 19-19-1-5-13-9-34-12-4-4-11-13-20-25h250l16 19c6 7 9 10 11 10 4 0 10-4 19-13l29-26c8-10 12-17 12-22 0-9-15-12-43-11l-88-68h267l33 38c8 9 13 14 13 14 2 0 8-5 19-14l48-43m-334 96H243c-24-24-50-48-79-70l24-21h252l71 91M815 72c0-19-39-28-116-28H354c-40 0-65 5-77 15-11 9-16 31-16 66v234l-6 38 50-21h331l14 18c6 5 9 8 11 8 4 0 11-3 20-10l17-13c12-9 18-15 18-20s-11-10-31-15V235c-1-9-2-17-2-25-2-3-8-8-19-14-8-2-14-4-18-4-2 0-4 2-4 5v14H304v-82c0-24 1-39 5-44 5-9 20-13 45-13h345c21 0 35 4 43 10s14 19 19 40l19 92 14-4-11-90c-1-10 3-19 14-25 11-7 17-14 18-23M642 231v125H500V231h142m-185 0v125H304V231h153M261 771v99l45-9c17-3 25-7 25-13s-9-13-27-20v-57h257l1 99 43-10c18-4 27-8 27-13 0-6-9-11-28-18v-58h169l23 33c6 9 11 14 14 14s11-4 23-13l41-40-10-14H604v-34c1-6 1-10 1-12 0-13-6-22-19-28-7-3-12-4-16-4-6 0-9 6-9 17v61H304v-28c0-6 1-10 1-13 0-13-7-23-20-30-6-3-12-4-15-4-7 0-10 7-10 20v21c0 10 1 22 1 34H0v20h261Z"/></symbol><symbol id="𮏙_S" viewBox="0 0 1000 1000" data-size="21"><path transform="matrix(1 0 0 -1 34 954)" d="m33 16-2 5-2 2-4 9-1 3-7 15-6 13-2 4 101 38 43 16 12 5v201H8v21h157l31 26 58-47-26-21V143l18-12 27-15 32-13 38-11 48-9 60-6 76-4 94-1 114 2 137 5 3-69-139-1-116 1-96 6-79 7-64 12-51 15-41 18-33 22-25 24-12 19-31-27-77-51-55-34-4-21-16 10-3 6m841 21-1 13v18l-1 4v7l61 3-58-72v6l-1 5v16M9 67l27-57L0 63l9 4m316 111v20h244v208H294v22h275v151l-34-5-50-7-50-4-54-3-55-1-1 8 155 35 95 23 88 24 81 27 32 12h1l5 1 2-7 48-41 2-17-21 10-11-4-82-22-44-9-44-9V428h160l53 52 62-52v-22H632V198h128l53 53 62-53v-20H325M158 433l-21 23-25 22-42 32-32 20-17 10 3 9 20-4 19-4 39-10 17-7 18-7 33-17 16-10 15-11 10-21-8-23-22-10-23 8m38 160-8 11-22 22-12 11-42 32-15 11-18 10 3 8 20-5 19-4 20-4 17-7 33-15 16-8 16-9 28-21 8-22-10-23-22-8-23 9-8 12m378 314 64-11 15-10-15-9v-55h162l53 52 63-52v-21H638v-61l-64-31v92H344v-61l-64-31v92H2v21h278v85l64-11 15-10-15-9v-55h230v85Z"/></symbol><symbol id="𮏚_S" viewBox="0 0 1000 1000" data-size="21"><path transform="matrix(1 0 0 -1 43 974)" d="m794 277-69 21-63 25-55 31-46 37-40 41-31 46-8 20H194V387l177 39 41 8 43 6 3-8-79-34-195-71-14-5 59-29h414l31 26 57-48-26-20V31L643 0v31H229L166 0v320l-11-4-7-18-14 12-2 7v2l-1 3v1l-1 1v3l-2 6-1 4-1 1v3l-5 13v3l-1 1-2 9-1 3 15 3v288l62-31 257 43 109 19 148 33 5 1 1-7 57-46 1-16-23 12-23-5-105-17-54-6-51-6 2-40 11-46 13-30h225l52 52 63-52v-21H553l17-27 33-33 39-31 47-27 57-23 64-19 39-8 28 124h11l-10-131 4-1 20-12 6-24-13-20-24-5-77 16M643 155H229V52h414v103m0 116H229v-95h414v95m-526 99 17-60-27 57 10 3m336 258-53-5-57-4-59-3-60-2h-30v-95h280l-5 10-13 56-3 43m172 319 63-10 16-10-16-10v-72h110l53 51 63-51v-22H688v-77l-63-31v108H483v22h142v102m-399 0 63-10 16-10-16-10v-72h26l53 51 63-51v-22H289v-77l-63-31v108H0v22h226v102Z"/></symbol><symbol id="𮏛_S" viewBox="0 0 1000 1000" data-size="21"><path transform="matrix(1 0 0 -1 41 963)" d="M716 63h8l6 2 13 4 6 3 11 8 5 6 5 6 48-40-8-10-9-9-10-8-11-6-10-6-12-5-12-4-13-2-11-2h-13v31L604 47v16h112m-549 0h8l6 2 12 4 5 3 6 4 5 5 5 5 5 6 51-37-9-11-9-9-10-8-10-7-10-6-12-5-12-5-12-2-13-2h-13v31L87 47v16h80m622 13h-1l-5 4-1 1-12 11 7 12 9 22 9 29 7 37 7 45 5 51 4 60 3 65 2 74 1 70H458l-25-28-28-26-28-26-31-24-33-21-6 6 74 87 42 58 35 59 16 29 13 30 9 26 6 11 55-32 10-16-19-2-26-44-19-31-22-28-6-8h349l31 27 58-47-26-17-1-55-1-74-3-67-5-61-6-54-7-47-8-41-9-36-13-29-16-24-13 11h-1l-5 4-1 1-9 8M219 92l30-23 1-1 1-1 4-2 2-2 13-8 18 38 12 51 8 60-1 70-9 78-22 80-34 79-20 33 40 40 30 34 28 37 16 23 19-1-7 17-51 37-2-3h-1l-23-39-24-37-25-34-28-32-1 3-66 70-87 57-6-8 73-69 57-72 6-8-34-35-32-28-67-53-37-24 5-9 41 17 40 19 38 23 37 25 30 25 15-26 17-48-14-30-34-59-40-55-49-54-56-53-30-27 5-8 37 19 34 20 32 23 31 24 28 26 26 26 24 28 23 29 4 8 5-19 6-71-3-63-9-54-13-41-11-22m179 385 64-32h157l32 27 58-47-26-22V188l-64-33v64H462v-64l-64-31v353m221-52H462V239h157v186m-42 502 64-11 15-10-15-10v-50h162l52 51 64-51v-22H641v-56l-64-33v89H347v-56l-64-33v89H5v22h278v81l64-11 15-10-15-10v-50h230v81Z"/></symbol><symbol id="𮏜_S" viewBox="0 0 1000 1000" data-size="21"><path transform="matrix(1 0 0 -1 38 953)" d="m389 482-11-8-29-22-31-18-5 6 45 54 42 53 19 27 32 57 14 29 13 30 13 39 56-30 12-14-21-4-6-15-16-31-19-31-7-9h329l32 26 57-47-26-15-1-1v-23l-2-45-5-80-3-35-4-32-4-30-6-25-4-22-7-20-14 5-45 17 4 14 5 20 5 22 4 27 4 30 5 71 2 41 1 44 1 37H476l-22-27-23-26-26-25 47-23h173l31 25 58-47-26-20V282l-63-31v53H452V106l1-4 1-5 2-2 5-2 5-1h396l31 131h10l-9-131 18-13 12-18-12-20-19-13H473l-14 1-13 3-12 4-13 7-10 8-9 11-6 12-4 12-2 14-1 12v370M244 74l1-1-1 1m543 194 59-22-5-13-7-10-8-11-9-10-9-8-12-6-12-5-12-4-13-2-13-1v32l-105 16v15h112l11 3 4 2 3 2 3 3 3 3 4 5 3 5 3 6M625 451H452V324h173v127m-53 454 64-10 15-11-15-10v-45h162l53 53 63-53v-20H636v-52l-64-31v83H342v-52l-64-31v83H0v20h278v76l64-10 15-11-15-10v-45h230v76M220 92h1-1m-1 1 12 21 13 41 8 53 3 63-6 71-4 18-27-36-25-28-26-26-28-26-31-23-32-24-34-20-36-18-5 8 58 53 52 52 24 28 41 55 33 58 14 29-17 48-14 26-31-25-36-24-39-23-39-19-42-17-4 9 70 51 33 26 32 28 34 33-5 9-58 72-72 69 5 8 87-57 66-70 2-3 27 32 25 34 24 37 23 38h1l3 4 50-38 7-17-19 1-15-23-29-36-30-34-33-32-7-7 21-33 34-80 21-79 10-77v-69l-7-61-13-50-18-38-9-10-9-9-9-9-11-6-10-7-12-5-12-4-12-3-13-1-13-1v32L87 48v15h81l7 1 7 1 6 3 11 5 5 4 5 5 10 11Z"/></symbol><symbol id="𮏝_S" viewBox="0 0 1000 1000" data-size="21"><path transform="matrix(1 0 0 -1 43 964)" d="m127 34 62-6-11-21-23-7-21 11-7 23m445 894 64-11 15-10-15-10v-70h162l53 53 63-53v-21H636v-76l-60-30 23-3 15-10-15-10V571h126l52 52 63-52v-21H599V366h157l32 27 58-48-27-21V62l-63-32v53H394V46l-63-31v382l63-31h142v341l36-6v105H342v-76l-64-31v107H0v21h278v101l64-11 15-10-15-10v-70h230v101M333 521l9-4-146-286-22-51-7-18-2-8 1-2 12-27 8-29 3-33V28l-62 6 3 29v26l-3 23-4 21-9 19-10 18-14 17-19 15-21 14-27 13 3 9 31-5 27-7 25-13 13-10 136 211 75 107m423-176H394V104h362v241m-620 90-6 8-8 9-10 9-10 10-14 9-16 9-36 20-21 9 2 8 23-3 22-2 21-4 19-5 17-6 18-6 14-8 15-8 13-9 11-11 5-24-11-20-24-5-20 12-4 8m79 197-15 18-10 9-24 19-30 19-18 10-19 8 3 10 20-4 22-3 18-4 19-5 16-5 17-6 15-8 14-7 13-10 12-10 6-23-10-22-24-6-21 11-4 9Z"/></symbol><symbol id="𮏞_J" viewBox="0 0 1000 1000" data-size="21"><path transform="matrix(1 0 0 -1 48 950)" d="M140 634H39l-9 25h391v97c60-3 90-11 90-23 0-7-12-16-37-25v-49h296l47 57c26-22 47-42 64-62l-11-20H196V454c0-17 7-27 19-30 15-4 88-6 219-6 122 0 233 4 333 11 6 1 11 1 16 1 22 0 33-11 33-32 0-9-8-15-23-18-32-6-131-9-298-9-198 0-306 4-324 10-20 7-31 28-31 62v191m374-125c-75-32-155-57-240-74l-13 21c78 19 148 44 209 73-49 20-105 39-170 55l12 21c70-13 137-31 203-54 44 24 82 49 113 74 46-15 69-28 69-37 0-7-10-11-31-11-6 0-12 1-17 2-20-13-49-29-85-47 68-27 102-49 102-67s-9-27-26-27c-11 0-25 8-44 23-21 16-48 32-82 48M270 784H25l-10 25h255v91c65 0 98-7 98-21 0-9-14-18-42-27v-43h242v91c62-1 93-8 93-21 0-8-12-16-37-26v-44h158l46 64c26-24 48-47 65-69l-11-20H624v-70h-56v70H326v-70h-56v70m360-682v241c64-3 96-11 96-26 0-7-13-16-39-25V115c0-14 5-22 14-26 6-2 23-4 51-4 37 0 59 9 66 26 10 27 17 77 20 148l26-10c0-67 3-111 8-131 5-14 16-22 33-22-1-26-12-43-32-52-20-8-62-12-126-12-50 0-82 5-96 13-14 9-21 28-21 57M14 0 0 23c72 31 120 69 145 113 19 35 28 77 28 126v73c65-1 97-9 97-23 0-8-12-17-37-26v-24c0-85-26-151-78-196C123 39 76 17 14 0m385 56v262c63-1 95-8 95-22 0-8-13-17-39-27V56h-56Z"/></symbol><symbol id="𮏟_S" viewBox="0 0 1000 1000" data-size="21"><path transform="matrix(1 0 0 -1 37 969)" d="m813 24-48 23-43 26-40 32-22 20-42-29-55-31-60-27-65-21-68-17-3 10 65 26 60 28 54 31 50 34 34 28-18 23-28 43-25 47-20 50-13 47-10-30-23-56-26-52-30-49-35-44-37-40-41-35-45-31-47-25-4 8 41 33 37 36 34 38 31 40 27 44 25 47 21 51 19 52 15 58 12 60 4 32H333v20h165l18 117h-2l-53-4-54-3-55-1-1 10 302 62 130 32 35 10v1-1l5 2 1-7 54-45 2-15-23 10-61-12-43-8-45-8-46-7-49-6-33-4-18-123h237l53 53 62-53v-20H558l-6-42-31 5 31-6-17-65-1-4h252l32 26 58-47-26-17-12-3-17-37-30-51-36-49-41-43-14-13 15-11 37-24 41-20 43-17 89-25-62-55-50 18m-652-6-23-7-21 11-8 23 4 28v27l-3 22-5 22-7 18-11 18-14 16-17 16-22 14-25 12 2 10 30-5 27-9 26-11 11-9 134 209 75 106 8-5-142-283-14-28-10-24-6-17-2-8 1-2 12-26 7-31 5-32V39l-12-21m618 353H537l22-42 27-45 29-41 31-36 18-17 15 15 35 42 29 45 25 49 11 30m-661 72-5 8-8 9-9 10-12 9-13 9-32 19-18 11-21 7 2 9 22-3 22-3 20-4 20-4 17-5 16-7 16-7 14-9 13-9 11-10 6-24-13-20-23-6-21 13-4 7m78 196-6 8-8 10-9 9-11 10-13 10-14 8-33 20-20 8 3 9 21-3 20-3 20-4 18-5 17-5 15-7 16-7 14-8 12-8 12-11 7-24-12-20-23-7-21 12-5 8m388 299 63-11 16-11-16-10v-63h163l52 53 64-53v-22H647v-69l-63-31v100H354v-69l-64-31v100H12v22h278v95l64-11 15-11-15-10v-63h230v95Z"/></symbol><symbol id="𮏠_S" viewBox="0 0 1000 1000" data-size="21"><path transform="matrix(1 0 0 -1 43 974)" d="m374 407-29-45-26-35-27-34-8 5 73 159 36 82 32 86 31 96 58-29 10-15-19-3-28-70-40-84-21-41-4-7 26-4 15-11-15-10V32L374 0v407M99 43l62-6-12-20-22-8-22 12-6 22m600 641-14-9 1-86 6-96 5-32 81 10 47 57 69-45 2-20-197-23 5-33 15-76 20-67 24-57 27-47 31-38 33-27 27 112h11L881 80l12-6 16-17V33l-16-17h-25l-49 26-44 36-37 46-32 56-26 63-22 72-16 81-5 38-176-20-3 22 176 18-4 33-7 99-2 108v13l63-13 15-10M289 500l8-5-130-267-21-49-5-17-2-8 1-1 10-24 7-28 4-32V37l-62 6 3 26 1 25-3 21-4 20-7 17-10 17-12 16-16 14-20 14-23 12 3 9 26-5 26-7 23-12 10-7 94 152 99 145m-183-82-3 8-7 8-9 8-10 9-13 9-28 19-17 9-19 7 2 9 20-3 21-2 19-4 17-4 17-5 14-6 15-6 13-7 12-9 11-11 5-23-13-21-23-5-21 13-3 7m686 152-8 22-5 12-12 21-7 11-29 35-12 10 5 7 14-6 16-6 14-7 14-8 13-9 13-9 10-10 21-23 10-11 1-25-16-18-24-1-18 15m-613 34-6 7-7 9-8 9-34 26-30 19-18 8 2 8 20-3 18-2 18-3 17-5 16-5 15-6 13-6 14-8 12-8 10-10 7-23-11-21-24-6-21 12-3 8m393 343 64-10 15-11-15-10v-68h162l53 52 63-52v-21H636v-74l-64-31v105H342v-74l-64-31v105H0v21h278v99l64-10 15-11-15-10v-68h230v99Z"/></symbol><symbol id="𮏡_S" viewBox="0 0 1000 1000" data-size="21"><path transform="matrix(1 0 0 -1 42 960)" d="M180 104v-4l1-4 2-3 3-1 2-1 5-1 7-1h135l30 132h11L366 89l19-12 12-19-12-19-20-13H187l-14 3-13 4-12 7-9 9-10 11-6 11-2 4-10-10-47-36L16 0l-5 8 41 36 40 41 23 29v385l64-11 15-10-15-9V204l18 30 32 61 30 65 27 72 25 76 25 91 59-26 12-14-19-5-20-65-30-77-31-73-35-67-36-60-39-55-18-22v-25l1-6m701 250-6 1 6-1M7 205l49-39-22-11-22 6-12 22 7 22m403 10v19l-3 19-3 18-4 19-5 19-6 18-7 19-9 18-10 19 7 6 31-31 14-15 13-19 11-18 9-20 9-20 7-22 5-22 5-23-8-22-23-12-22 9-11 20v21M67 420l-8-1-1-33-6-58-3-25-6-24-6-19-6-18-8-14-8-13-8-10 49-39 10 19 9 20 5 22 4 22 2 24 1 27-2 27-4 29-6 31-8 33m158 104-3 14-6 13-6 13-16 26-9 14-24 26-15 12 2 3-17-9v135H5v20h126v129l63-10 16-11-16-9v-99h86v129l64-10 15-11-15-9v-99h10l53 53 63-53v-20H344V667l-64-31v135h-86V667l-39-20 32-13 16-9 16-10 13-11 14-13 13-14 11-14 9-16 9-17-2-24-18-16-24 2-15 19-4 13m658-170-4-14-6-11-7-12-8-9-10-10-11-7-12-5-12-4-13-2-14-1v32l-53 15v16h53l7 1 6 1 4 1 4 2 3 1 3 3 2 3 2 3 2 6 1 2v80l1 37v189l-109-42V221l-63-32v415l-90-35V116l1-7v-4l1-3 1-1 1-1v-1l2-1 3-1 5-1 7-1h274l32 132h10L886 95l18-13 13-19-13-18-18-13H580l-14 1-12 2-13 4-12 7-10 9-9 10-7 12-4 13-2 13-1 13v430l-76-29-8 18 84 32v232l63-11 15-11-15-8V592l90 34v293l63-10 16-11-16-9V651l109 42v11l32 26 57-47-25-16V482l-1-37v-81l-1-10Z"/></symbol><symbol id="𮏢_K" viewBox="0 0 1000 1000" data-size="21"><path transform="matrix(1 0 0 -1 56 942)" d="M63 799h217v47l-3 39 57-15c27-8 35-16 26-22-4-4-14-8-28-10v-39h235v47l-2 39 53-13c23-6 31-13 25-20-6-5-14-8-26-9v-44h164l38 39 58-39c8-7 12-12 12-15-1-3-7-5-18-5H617v-21l1-8c1-10 1-18 0-22-3-8-12-13-25-15s-20-1-24 3c-2 2-2 7-2 15v48H332v-38c1-9 0-15-3-18-3-6-9-9-20-12-15-3-24-2-28 3-2 2-3 8-2 17l1 8v40H78l-69-2-9 26 63-4m33-159h164l37 28 46-33c11-12 15-19 11-23-3-4-19-6-46-7l-84-76c26-13 39-23 39-29-1-3-10-6-27-7l-4-1V390l146 78 6-10c-22-14-45-29-69-45-29-18-57-36-84-54V82c1-18-6-35-21-52-18-19-42-29-72-30-1 17-6 29-17 36-11 9-36 20-74 31l1 11 10-1c18-2 33-3 44-4 18-2 33-3 46-4 15 0 26 2 31 5s8 9 8 16v241L64 256c1-19-1-30-5-34-6-5-13 3-24 22l-20 36 43 23c26 12 46 22 60 29 25 12 48 24 69 34v121l-3 60 27-12 54 89H107l-73-2-9 20 71-2m383-415V24h250v201H479m0 207V240h250v192H479m0 190V446h250v176H479m-51 46 55-30h231l39 30 42-29c16-13 22-22 19-28s-16-8-39-8V24h20l37 47 50-43c6-5 7-9 5-13-3-4-9-5-19-5H411c-27 0-47-1-60-1-13-1-24-2-31-4l-12 24 13-1c13-1 24-2 32-2 12-1 26-2 43-2h37v568l-5 76Z"/></symbol><symbol id="𮏣_J" viewBox="0 0 1000 1000" data-size="21"><path transform="matrix(1 0 0 -1 39 957)" d="M339 258V105c91 12 167 23 230 35l5-26C444 79 311 51 175 32c-5-21-11-32-19-32-15 0-29 28-42 85 50 3 106 7 168 14v135c-80-32-170-57-270-76L0 182c150 32 278 83 384 152H30l-10 25h279v100H115l-10 24h194v91H93l-10 25h216v92c59 0 88-6 88-19 0-7-11-15-33-24v-49h209v94c58-1 87-8 87-21 0-7-10-15-31-23v-50h119l39 41c13-8 35-24 65-47l-11-19H619v-91h96l43 47c26-19 48-37 64-53l-12-18H619V359h167l48 51c29-21 53-40 72-58l-11-18H506c38-59 79-106 123-140 54 34 103 73 147 117 44-25 66-43 66-55 0-7-9-11-26-11-10 0-17 0-23 1-39-23-86-46-141-68 66-43 156-75 270-95-20-14-36-35-46-61-128 33-227 83-295 151-34 34-70 88-106 161-40-27-85-52-136-76m15 101h209v100H354V359m209 215H354v-91h209v91M279 812v102c66-1 99-9 99-23 0-8-14-17-43-26v-53h242v102c63 0 95-7 95-21 0-8-13-16-39-25v-56h158l46 66c26-24 48-48 66-71l-11-20H633v-66h-56v66H335v-69h-56v69H33l-11 25h257Z"/></symbol><symbol id="𮏤_K" viewBox="0 0 1000 1000" data-size="21"><path transform="matrix(1 0 0 -1 62 917)" d="M776 629c6-6 8-10 8-13 0-2-2-5-8-8-10-4-17-7-19-8V321c0-22 0-34-1-36s-8-6-23-12c-5-2-9-3-11-3-6 0-8 14-7 43H155c0-18 0-28-1-29-1-4-9-10-23-15-7-2-11-3-13-3-3 0-5 3-6 9 1-17 1-6 1 33v319l-4 40 50-30h544l17 18c8 7 12 11 13 11 2 0 8-4 17-12l26-25m-61-296v284H155V333h560M605 532c6-6 8-10 8-13s-2-6-8-10c-9-5-15-10-19-14v-77c0-17 0-26-1-26-1-3-9-8-23-14-6-1-10-2-12-2-5 0-7 11-6 34H318c0-14 0-22-1-23-2-4-9-9-23-14-7-2-11-3-14-3s-5 3-6 8c1-8 1 1 1 27v125l-4 40 50-30h210l18 19c8 7 12 10 14 10 1 0 7-4 15-12l27-25m-61-102v90H318v-90h226M873 18l-7-18H0v20h415v129H83v20h332v76l-4 53 50-15c16-5 24-11 24-17 0-7-9-14-28-22v-75h234l25 32c10 14 16 21 16 21 2 0 9-6 20-16l39-39-6-18H457V20h318l26 34c9 13 14 19 14 19 2 0 10-6 22-18l36-37m3 727-7-14H586v-40c0-3 0-6 1-9 1-4 1-6 1-7 0-5-7-11-22-16-8-3-14-5-17-5s-5 1-6 3c-1 3-1 7-1 12 1 8 1 14 1 17v45H320v-42c0-14 1-20 1-19-2-5-8-9-20-14-7-1-12-2-16-2s-7 3-8 7v70H0v20h277v49l-2 35 45-11c19-4 29-10 29-15s-10-11-29-19v-39h223v47l-2 35 44-12c17-4 25-9 25-15s-8-11-24-18v-37h194l25 25c9 10 14 15 15 15 2 0 8-4 17-12l39-34Z"/></symbol><symbol id="𮏥_J" viewBox="0 0 1000 1000" data-size="21"><path transform="matrix(1 0 0 -1 60 951)" d="M232 50V0h-58v363c28-11 50-21 66-28h387l38 41c43-31 64-51 64-60 0-4-3-8-9-12l-24-15V0h-58v50H232m0 158h406v102H232V208m0-24V75h406v109H232m-74 226v-38h-57v337c25-8 47-17 67-26h534l36 43c41-32 62-52 62-60 0-5-3-9-9-12l-25-15V377h-57v33H158m301 153h250v95H459v-95m0-25V435h250v103H459m-57-103v103H158V435h244m0 128v95H158v-95h244M270 811v91c66-1 99-8 99-23 0-8-14-17-43-25v-43h214v91c63 0 94-7 94-21 0-7-12-15-38-25v-45h169l49 63c25-23 47-45 66-68l-11-20H596v-67h-56v67H326v-67h-56v67H10L0 811h270Z"/></symbol><symbol id="𮏦_J" viewBox="0 0 1000 1000" data-size="21"><path transform="matrix(1 0 0 -1 43 949)" d="M393 271H22l-11 25h414v79c64-6 96-16 96-28 0-8-13-16-38-24v-27h302l52 56c26-20 49-41 69-62l-12-19H505c112-77 249-132 409-166-20-18-34-38-44-61-153 47-282 119-387 216V0h-58v223C319 132 181 65 12 22L0 44c165 54 296 130 393 227M225 647h177c12 36 21 73 26 113 58-10 87-21 87-34 0-7-12-13-36-18-14-21-30-42-48-61h252l34 42c41-30 61-49 61-58 0-5-3-9-9-13l-23-15V359h-57v35H219v-38h-56v321c14-6 35-16 62-30m-6-25v-87h470v87H219m470-112H219v-91h470v91M278 781H32l-10 25h256v91c64 0 96-7 96-22 0-7-14-16-42-26v-43h244v90c62 0 93-8 93-22 0-8-13-15-39-23v-45h159l47 64c25-24 46-47 64-70l-11-19H630v-78h-54v78H332v-78h-54v78Z"/></symbol><symbol id="𮏧_J" viewBox="0 0 1000 1000" data-size="21"><path transform="matrix(1 0 0 -1 50 934)" d="M239 341c32 41 58 82 77 123H152l-10 25h466l48 45c27-17 52-34 75-53l-12-17H399c-36-43-77-83-121-122 108 2 238 6 391 13-30 23-68 45-112 67l11 20c165-53 248-102 248-149 0-22-11-33-32-33-9 0-20 8-33 22-12 14-29 30-50 49-157-20-344-36-562-48-6-24-13-36-21-36-17 0-30 31-39 93 72 0 125 1 160 1M128 589h289v122c63-1 95-9 95-24 0-8-13-17-39-26v-72h313l35 47c51-45 76-73 76-86 0-6-5-10-16-12l-33-6c-15-21-39-45-72-71l-20 15c17 34 28 64 33 88H128c0-46-7-84-22-115-16-34-34-51-53-51-25 0-38 11-38 34 0 10 6 20 16 30 39 38 62 94 69 170l25-6c1-8 2-20 3-37m437 151H323v-92h-56v92H22l-10 25h255v103c64-1 96-8 96-22 0-9-13-18-40-27v-54h242v102c63 0 95-7 95-23 0-9-13-18-39-28v-51h154l49 61c26-22 48-44 65-65l-10-21H621v-92h-56v92M417 175v111c66-2 99-11 99-25 0-8-14-17-42-27v-59h234l51 55c26-21 49-42 68-62l-11-18H474V25h297l56 61c29-24 53-47 73-68L889 0H11L0 25h417v125H88l-12 25h341Z"/></symbol><symbol id="𮏨_S" viewBox="0 0 1000 1000" data-size="21"><path transform="matrix(1 0 0 -1 43 953)" d="m725 84-1-13-2-13-4-13-7-12-9-11-11-7-11-7-13-5-13-2-13-1v31l-84 16v16h90l4 1 5 2 2 2 2 5 1 5 1 6h63M231 431l63-32h368l31 27 58-48-26-21V84h-63v126H294V31L231 0v431m431-137H294v-63h368v63m0 84H294v-63h368v63m83 336 43 48 52-48v-21H142V473h655l33 37 42-37v-22H142v-62l-63-32v357h666m-478-37 62-32h281l32 26 57-47-26-21v-82l-63-31v31H329l-62-31v187m343-53H329v-82h281v82m-38 282 64-10 15-11-15-9v-42h162l53 53 63-53v-21H636v-48l-64-32v80H342v-48l-64-32v80H0v21h278v72l64-10 15-11-15-9v-42h230v72Z"/></symbol><symbol id="𮏩_J" viewBox="0 0 1000 1000" data-size="21"><path transform="matrix(1 0 0 -1 40 949)" d="M427 208C318 124 180 64 14 26L0 48c159 46 290 114 395 205H24l-11 25h414v84H132l-12 25h307v84H238v-33h-56v148H31l-11 25h162v89c62-3 93-12 93-25 0-7-12-15-37-24v-40h189v119c63-2 95-9 95-22 0-8-12-17-36-27v-70h197v89c62-3 93-12 93-25 0-7-12-15-37-24v-40h52l44 58c26-21 49-42 67-63l-12-20H739V443h-56v28H486v-84h258l46 59c25-23 45-45 62-66l-12-18H486v-84h297l52 62c28-23 52-46 72-68l-11-19H508c113-73 251-122 413-149-20-19-36-39-48-60-156 40-285 104-387 193V0h-59v208m0 378H238v-90h189v90m59 0v-90h197v90H486m67 186H339v-74h-55v74H34l-10 25h260v101c64-2 95-9 95-22 0-8-13-17-40-27v-52h214v101c61-2 92-9 92-22 0-8-13-16-38-25v-54h184l47 64c24-22 45-45 64-69l-11-20H607v-63h-54v63Z"/></symbol><symbol id="𮏪_K" viewBox="0 0 1000 1000" data-size="21"><path transform="matrix(1 0 0 -1 64 952)" d="M301 568v-78h299v78H301m299-103H301v-10c0-9-1-14-2-17-3-4-9-8-19-12-12-3-20-3-23 1-1 4-2 11-1 24l1 13v98l-3 59 44-27h289l28 27 38-29c16-9 24-17 25-24-2-5-13-8-33-11v-76c0-14 0-23-1-28-3-8-11-14-23-17-11-3-18-2-20 2-2 3-2 10-1 21v6M171 270l-4 53 54-29h426l36 30 42-33c18-21 23-34 15-39-5-4-14-5-28-5V45c0-13-1-22-3-27-3-5-11-10-24-13-12-2-19-1-22 3-1 3-2 8-1 16l1 18H220v-7c0-7-1-13-2-17-2-5-8-10-19-13-15-5-24-5-28 1-1 2-2 9-1 20l1 11v233m49-3v-90h443v90H220m0-115V68h443v84H220M75 811h115v86l55-15c18-4 26-9 24-15-2-7-13-12-35-17v-39h86l43 43 52-40c8-5 10-13 7-22-4-4-11-5-20-5H234v-39c2-10 2-17 0-20s-8-7-18-12c-15-5-23-6-26-4-2 2-2 8-2 19l2 26v30H74l-64-2-9 29 74-3m786 6c9-11 13-18 11-22-3-5-13-7-29-7H672v-22c-1-4-1-8 0-11v-9c2-8 2-13 0-16-2-2-9-7-20-13-13-5-21-6-24-3-2 1-3 7-2 16l1 19v39h-84l-64-3-10 28 56-1h102v93l53-18c17-5 25-10 24-14-2-5-13-9-32-13v-48h97l35 46 57-41M755 675l44 49 62-46c9-5 12-12 8-20-2-4-9-6-19-6H169c11-6 16-12 15-16-2-4-11-6-27-8V424c0-12 3-20 9-24 7-5 21-9 43-12 111-4 214-5 309-3 106 2 195 7 268 17 11 2 20 1 27-2s11-8 12-14c1-5-1-10-7-14-5-5-13-9-22-11-80-6-177-9-289-11-98 0-201 1-309 5-29 1-50 5-62 13-18 10-26 28-26 54v229H73l-61-4-12 30 67-1 688-1Z"/></symbol></svg>