<svg xmlns="http://www.w3.org/2000/svg"><symbol id="𮤺_K" viewBox="0 0 1000 1000" data-size="21"><path transform="matrix(1 0 0 -1 64 941)" d="M51 841h143l35 29 39-34c14-12 20-20 18-24s-15-7-37-7L144 571c44-50 73-88 86-113 19-32 30-69 34-112 0-43-10-77-33-104-18-24-47-42-86-55-2 14-8 26-16 33-12 9-38 19-78 30V44c0-11 0-18-2-22-3-6-11-12-24-19C14 0 8 0 7 4c-2 2-2 8-1 18l1 16v761l-1 13c-1 14-1 26-2 34-1 14-3 25-4 33l51-32v-6m168-497c1 36-4 68-15 98-14 33-39 76-75 128l78 256H51V267c59-10 100-11 123-2 25 9 40 36 45 79m205 522c18-7 30-12 36-17-10-3-23-7-41-12l-3-2V583l118 33 26 54 51-29c11-7 14-12 11-15-3-5-13-8-30-11l-176-50V292c0-11 2-18 6-22 6-4 21-7 47-7 21 2 36 9 44 23 4 10 11 38 20 83l12 55h10l-6-74c-1-18-2-31-3-39-1-14-1-27-1-38 23-8 33-16 32-23-1-8-15-14-43-19-15-2-31-3-46-4-17 0-32-1-46-1h-7c-26 3-44 9-54 20-7 10-11 24-11 40v267l-104-31-14 11 118 36v275l-1 39 55-17m151-77h195l40 36 43-32c14-9 20-18 19-25-3-8-15-14-37-16 0-146-2-264-5-356-4-113-11-189-19-227-14-52-29-90-46-114-16-22-38-38-67-49l-10 36-87 30 1 14c33-8 58-12 76-13s32 2 43 8c9 5 16 14 21 28 4 10 10 28 17 55l4 10c8 38 15 108 20 209 6 118 8 249 5 391h-74c10-3 14-6 11-12-4-6-15-10-32-10l-1-37c-2-113-5-193-8-241-6-80-18-146-37-198-19-61-48-111-87-152-42-44-98-80-169-108l-7 10c63 33 113 72 151 117 36 43 62 96 79 157 16 54 26 124 31 207 2 55 3 144 3 267h-49l-85-5-10 22 71-2Z"/></symbol><symbol id="𮤻_S" viewBox="0 0 1000 1000" data-size="21"><path transform="matrix(1 0 0 -1 62 959)" d="m0 887 63-32h203l31 27 57-48-26-16-12-5-13-25-31-48-35-50-42-50-23-25-20-18 31-21 29-23 24-25 22-26 17-26 13-29 10-29 4-30 1-31-5-31-35 10-27 7 7 21 3 23v22l-4 24-8 23-10 25-15 26-18 27-47 57 1 1-6 4 79 143 12 25 31 70H63V31L0 0v887m751-421 55-32 9-16-20-3-24-46-40-60-44-56-50-51-55-46-60-42-64-36-69-31-75-26-78-20-3 9 75 29 69 33 64 36 59 39 54 43 49 47 43 50 39 54 34 57 27 57h-1l6 11M236 343l62-17-5-13-5-12-7-11-9-10-9-9-11-7-12-5-12-4-13-2-14-1v31l-53 16v15h53l7 1 6 1 5 1 6 4 3 2 1 4 3 3 2 6 2 7m323 575 62-10 17-11-17-9V388l-1-13-2-13-4-12-7-13-8-10-10-9-13-6-13-4-12-3-14-1v32l-104 16v15h111l5 2 5 1 2 2 1 2v3l1 5 1 6v530M423 714l59-23 13-12-18-7-15-44-13-31-13-31-17-30-17-29-19-28-22-28-22-25-26-25-7 6 48 90 26 59 11 29 9 30 8 30 7 30 6 30 2 9m387-188-22 42-12 21-13 20-32 40-54 63 6 8 26-14 23-15 24-17 21-18 19-18 36-40 30-44 13-23 1-24-16-18h-24l-18 16-8 21Z"/></symbol><symbol id="𮤼_S" viewBox="0 0 1000 1000" data-size="21"><path transform="matrix(1 0 0 -1 65 949)" d="m0 879 63-32h150l32 26 58-47-27-15-10-4-23-49-26-48-32-50-19-25-20-26-16-18 25-21 25-24 20-25 18-25 14-27 11-28 8-28 4-28v-30l-3-30-62 14 5 22 3 23v22l-2 24-6 23-7 26-12 25-14 25-36 57 1 1-6 3 61 139 18 50 14 45 1 2H63V31L0 0v879M313 11v866l63-31h373l52 52 63-52v-22H376V32h378l53 52 62-52V11H313m278 771 63-10 16-10-16-10V651h89l32 27 58-48-26-21V269h-64v361h-89V95l-63-32v567h-89V216l-63-32v499l63-32h89v131m216-513-1-14-2-13-5-13-7-12-8-10-11-9-11-7-13-3-14-2-12-2v32l-42 15v16h42l6 1 4 1 5 1 2 2 2 5 1 5v7h64m-617 70 62-14-4-12-4-13-7-12-8-10-9-8-12-8-12-6-12-4-13-2-14-1v31l-52 17v16h65l4 1 3 2 3 2 3 2 2 3 2 4 1 5 2 7Z"/></symbol><symbol id="𮤽_G" viewBox="0 0 1000 1000" data-size="21"><path transform="matrix(1 0 0 -1 47 962)" d="m274 839-43-80c-4-6-10-16-17-30-25-44-42-77-53-99 44-37 76-67 96-91 20-23 33-44 40-63 9-22 13-47 12-75-3-53-23-91-60-114-16-11-42-19-77-26 3 26-26 48-88 65l4 15c68-21 115-24 140-7 27 18 39 49 36 92-1 33-10 60-26 83-1 3-4 6-7 11-4 6-12 16-24 31-11 15-35 39-70 72 35 78 67 157 98 236H68V139l3-95C72 22 53 7 16 0c3 25 6 85 7 180v684c-4 18-12 34-23 47l11 10 46-42h165l34 42 55-45c9-7 9-11 2-14-11-2-24-10-39-23m212 77 6 7c42-18 76-42 102-71 27-29 40-56 39-81s-9-38-25-39c-15-1-24 8-25 29s-8 43-20 68c-11 25-37 54-77 87M332 707h430l40 48 72-54c7-5 10-9 8-12-1-2-7-3-18-2H410c-18 1-33-4-44-13l-34 33m70-123 8 6c26-33 52-79 78-139 26-59 41-114 46-163 4-51-4-79-25-84-20-5-29 11-26 47s-1 84-14 143c-12 60-34 123-67 190m308 35 76-32c11-7 14-11 7-14-13-2-24-10-32-23-39-148-86-304-141-467h173l36 44 69-50c7-5 10-9 8-11-1-3-8-4-19-3H363c-18 1-33-4-44-13l-33 33h311l63 229c41 171 60 261 56 271-1 3-4 7-7 14s-5 12-6 15l7 7Z"/></symbol><symbol id="𮤾_J" viewBox="0 0 1000 1000" data-size="21"><path transform="matrix(1 0 0 -1 75 948)" d="M378 668V507c0-225-52-393-155-504l-20 17c78 111 117 273 117 485v223c16-7 38-19 68-35h147v202c67-1 101-10 101-26 0-9-15-19-45-29V693h144l49 69c25-24 47-49 66-74l-13-20H378m-237-85c72-66 108-143 108-232 0-107-41-160-122-160-2 23-26 42-71 55V0H0v872c22-10 44-21 65-34h113l37 48c40-34 60-56 60-67 0-5-3-9-9-12l-26-15c-32-84-65-154-99-209m-32-5c29 67 54 145 73 235H56V273c30-5 55-7 74-7 28 0 46 11 53 33 7 18 10 43 10 75 0 70-28 138-84 204m335-457c40 147 73 312 99 495 65-17 97-32 97-45 0-9-14-16-42-21-36-161-77-303-122-426 82 8 167 22 256 41-22 50-55 106-98 166l17 17c76-70 129-138 160-205 15-34 23-61 23-82 0-28-12-42-36-42-15 0-27 17-35 51-6 24-12 47-20 68-110-33-222-59-336-78-6-26-13-39-21-39-12 0-27 30-44 91 34 2 68 5 102 9Z"/></symbol><symbol id="𮤿_S" viewBox="0 0 1000 1000" data-size="21"><path transform="matrix(1 0 0 -1 65 953)" d="m410 586-3-81-8-77-10-73-15-66-19-61-21-57-26-52-31-46-34-40-38-33-6 7 29 39 26 43 22 46 21 51 16 54 13 60 11 64 7 69 3 75 1 78h62m194 226 63-32h113l32 27 57-47-26-22V66l-63-31v63H667V35L604 4v808M0 891l63-32h151l31 27 58-48-27-16-10-4-23-48-13-25-29-49-34-50-21-26-16-19 26-22 24-23 20-26 19-26 13-26 11-28 8-29 4-29v-30l-3-30-62 14 5 22 3 23v23l-3 24-5 24-7 25-12 26-14 26-36 56 1 2-5 3 26 60 34 80 18 50 14 47 1 1H63V35L0 4v887M503 77l-7-10-9-10-8-8-11-8-11-6-13-5-12-3-13-2-14-1v32l-84 15v17h92l6 1 6 2 5 1 5 3 3 3 4 4 4 3 4 6 3 6 6 15 6 26 6 35 4 45 4 54 2 62 2 71 1 81v175h-74v-95h-62v95H242v21h106v204l62-10 16-10-16-10V702h74l32 26 57-47-26-16 1-71v-89l-1-81-3-72-3-64-4-56-4-46-7-40-6-31-10-26-7-12m277 683H667V119h113v641M190 346l62-14-3-13-5-12-7-12-8-10-9-10-11-6-12-6-12-4-14-2-13-1v31l-53 16v15h53l7 1 5 1 4 1 4 1 5 5 2 2 2 5 1 5 2 7Z"/></symbol><symbol id="𮥀_S" viewBox="0 0 1000 1000" data-size="21"><path transform="matrix(1 0 0 -1 67 960)" d="m0 920 63-31h163l31 26 58-48-26-15-11-4-24-52-28-51-34-52-19-26-21-26-17-21 27-22 26-25 21-26 19-27 14-29 12-29 8-30 4-31v-31l-3-31-63 14 6 23 3 24v25l-3 25-6 26-9 26-11 26-15 29-18 28-21 29 1 1-5 4 64 147 20 51 15 48 1 2H63V31L0 0v920m725-89H315v22h436l53 52 62-52v-22h-79V86l-1-13-2-13-4-13-7-12-8-11-10-8-13-7-13-4-12-2-14-1v31L599 49v15h104l7 1 5 1 5 2 2 2 1 5 1 5 1 6v745M354 724l62-33h175l32 27 58-47-27-22V269l-63-33v64H416v-64l-62-31v519M200 353l63-14-4-13-5-13-7-11-8-11-10-9-10-7-12-5-13-4-12-2-14-1v31l-53 16v15h53l7 1 5 1 5 1 3 1 4 5 2 2 3 5 2 5 1 7m391 137H416V320h175v170m0 181H416V512h175v159Z"/></symbol><symbol id="𮥁_K" viewBox="0 0 1000 1000" data-size="21"><path transform="matrix(1 0 0 -1 84 932)" d="m395 362 45-25h248l27 25 38-30c16-12 21-20 15-25-5-4-13-5-25-5V78c1-14 1-23-1-27-2-8-10-14-21-18-11-2-18 0-21 4-2 3-2 9-2 20l1 8H443V51c1-12 0-20-2-24-2-5-9-9-19-11-12-5-20-5-24 1-2 3-2 10-2 22l1 14v243l-2 66m48-282h256v239H443V80m158 771c25-7 34-14 27-23-5-5-17-10-36-15V683h130l42 44 61-44c6-5 8-9 6-11-3-4-11-6-24-6H592V491h119l40 42 56-43c7-4 9-8 6-10-1-2-9-3-22-3H438l-75-6-9 23 70-3h121v175H411l-65-2-11 22 64-3h146v132l-3 50 59-14m-347-3 49-39c13-11 17-19 13-23-3-4-17-7-40-7L166 561c61-45 103-82 124-110 24-32 37-71 39-117 0-38-14-71-43-99-25-25-57-42-96-49-4 18-13 30-25 36-13 7-42 14-86 20l-1 9c82-5 136-1 164 11 25 10 39 34 41 70-5 49-20 92-45 131-17 23-47 56-91 97l84 245H48V34c1-8 0-13-1-16-3-6-10-10-22-14C14 0 7 0 5 5c-2 2-3 9-2 18l1 7v777l-4 50 48-32v-6h171l35 29Z"/></symbol><symbol id="𮥂_K" viewBox="0 0 1000 1000" data-size="21"><path transform="matrix(1 0 0 -1 87 935)" d="M174 807H54L0 835l2-131V117c0-17 0-35-1-54-1-20-1-31-1-35C0 12 3 4 10 4c3 0 8 1 14 4 15 5 22 14 22 28 0 3 0 13-1 29-1 17-1 33-1 48v674h144l-82-217c38-39 63-74 78-106 13-29 20-63 20-100 0-58-15-86-45-84l-96 15-3-12 68-20c4-2 7-10 9-24 1-13 5-19 12-19 9 0 22 5 39 15 39 24 59 67 59 129 0 41-11 78-32 111-18 27-49 59-93 95l106 197c26 3 39 8 39 14 0 5-6 12-18 21l-25 20c-11 8-18 12-21 12s-7-2-12-7c-8-10-14-16-17-20m652-294-3-15H248v20h251v160H294v20h205v130l-6 41 51-10c17-6 25-12 25-17s-9-12-28-19V698h145l19 24c8 12 14 18 18 18 2 0 8-4 17-12l35-35-2-15H541V518h193l21 29c7 12 13 17 17 17s11-5 21-16l33-35m-12-171-4-15H675V87c0-29-1-47-3-52-5-14-21-24-47-31-10-3-17-4-22-4-8 0-12 5-13 15-1 9-5 16-12 19L478 63l1 9 109-14c8-2 15-2 20-2 12 0 19 3 22 9 2 4 3 13 3 28v234H288v20h345v100l-7 41 47-9c19-5 28-11 28-17s-9-13-26-21v-94h51l19 31c5 10 10 15 15 15 4 0 10-4 17-10l37-41M484 166c-2-17-8-25-16-25-7 0-14 7-21 23-15 44-43 88-83 132l9 6c50-38 78-60 84-66 22-22 31-46 27-70Z"/></symbol><symbol id="𮥃_J" viewBox="0 0 1000 1000" data-size="21"><path transform="matrix(1 0 0 -1 66 952)" d="M57 559v-74h165l37 46c30-23 47-40 53-50 100 47 173 93 218 137-36 31-69 67-99 107-29-38-70-76-124-112l-18 16c44 43 79 87 105 132 23 39 43 87 62 144 58-12 87-25 87-39 0-9-14-15-43-19-6-13-14-30-26-53h178l38 44c41-34 62-57 62-67 0-4-3-7-9-10l-28-11c-36-55-74-99-111-133 75-45 163-76 264-95-16-18-29-37-38-58-95 25-182 66-261 123-67-54-152-98-255-131l-5 7c-1-1-10-7-25-18V289h-55v27H57v-80h165l37 46c38-29 57-49 57-60 0-3-2-6-6-9l-26-17V40h-55v27H57V28H0v816c25-11 46-20 61-28 62 20 118 46 167 77 37-31 55-53 55-67 0-13-14-14-44-3-61-17-122-29-182-36v-59h165l37 46c38-29 57-49 57-61 0-3-2-5-6-8l-26-17V532h-55v27H57m0 25h172v119H57V584m172-243v119H57V341h172m0-249v119H57V92h172m231 677-13-21c40-43 77-77 111-101 39 39 72 80 96 122H460m-55-574h151v173H331l-9 25h234v118c64-4 97-12 97-27 0-8-14-17-40-26v-65h95l43 55c25-21 45-41 61-59l-12-21H613V195h117l49 60c24-21 45-41 63-62l-13-23H613V0h-57v170H400c-4-17-7-32-10-45l-57 6c17 73 29 146 38 217 56-10 84-21 84-32 0-9-12-16-34-20-4-34-10-68-16-101Z"/></symbol><symbol id="𮥄_S" viewBox="0 0 1000 1000" data-size="21"><path transform="matrix(1 0 0 -1 69 948)" d="m201 342 6 22 3 23v23l-4 24-6 24-8 24-12 27-33 54-21 28 1 2-5 3 53 115 21 52 18 48 7 22 1 1H63V31L0 0v887l63-32h163l31 27 58-48-26-16-12-5-10-24-27-48-14-24-34-50-19-25-38-45 27-21 26-24 21-25 19-26 14-26 12-29 8-28 4-30 1-31-4-29-62 14M734 98l48-41-9-9-8-10-10-8-11-7-11-5-11-4-12-4-13-3-11-2h-14v31L567 52v15h105l8 1 8 1 12 3 7 3 6 3 11 8 10 12M451 896l57-30 11-15-20-4-7-17-17-36-20-35-6-9h323l33 26 57-47-26-15v-65l1-173-1-81-2-76-3-68-6-62-10-52-12-44-21-36-12 10-1 1-2 1-1 2-2 1-2 2-2 1-8 7-11 10-7 6 10 18 11 34 8 47 6 58 2 66 2 75v80l-1 173v80H437l-50-72-27-33-28-31-30-31-32-30-7 7 70 106 40 69 19 34 31 70 14 35 11 35 3 8m-76-292 63-31h152l31 27 58-47-27-22V192l-62-31v64H438v-64l-63-31v474m215-210H438V245h152v149m-389-52 62-14-4-14-5-11-7-12-8-11-10-9-10-6-12-6-13-4-12-2-14-1v31l-53 16v15h53l7 1 5 1 5 1 3 1 2 3 2 2 3 3 2 4 2 5 2 7m389 211H438V414h152v139Z"/></symbol><symbol id="𮥅_K" viewBox="0 0 1000 1000" data-size="21"><path transform="matrix(1 0 0 -1 51 941)" d="M737 240c6-26 4-44-5-53-11-9-21 0-30 27s-20 53-34 79c-16 26-32 51-48 75-30-46-66-88-107-127-34-31-76-64-126-98l-8 10c41 30 79 64 115 103 38 42 71 88 100 139-25 30-52 58-81 83-30 24-60 45-90 64l5 14c37-21 68-39 92-55 37-26 68-50 92-74 18 35 34 71 47 108 15 38 27 79 38 123l38-26c15-9 21-16 18-21-1-3-10-8-24-14-13-37-26-73-41-105-14-33-29-62-44-89 24-26 44-52 60-77 18-29 29-57 33-86m96 405c18-8 27-14 28-17 0-4-5-8-16-14l-13-10V54c3-11 3-19 0-23-1-6-5-13-12-21-13-7-21-8-22-4-2 3-2 13-1 30v66H367V45c1-13 1-21-1-24-2-5-9-10-20-15-9-6-14-6-16-1-2 3-2 16-1 36l1 38v581l48-22c14-6 19-12 17-16-3-6-12-10-28-13V117h431v541l35-13M51 852v-6h139l36 29 38-35c14-11 20-19 18-23s-15-7-37-7L140 576c45-50 74-88 87-113 18-32 29-69 33-112 0-43-10-78-32-104-19-24-48-42-87-55-2 14-8 25-16 33-12 9-36 18-74 30V49c0-11 0-18-2-22-3-6-10-12-23-20C15 5 8 5 7 8c-2 2-2 9-1 19l1 16v760l-3 48-4 32 51-31m164-503c1 35-4 68-15 98-14 33-39 76-75 128l78 256H51V272c56-10 96-11 119-2 25 9 40 36 45 79m384 366h209l34 52 48-48c7-4 9-8 7-12s-9-6-19-6H349l-74-5-8 23 65-4h222l1 71-5 44 63-16c19-6 24-11 18-15-4-3-13-7-27-11l-5-2v-71Z"/></symbol><symbol id="𮥆_S" viewBox="0 0 1000 1000" data-size="21"><path transform="matrix(1 0 0 -1 51 948)" d="m808 724 53-34 9-16-20-2-27-43-29-42-33-43-37-42-8-8 23-67 28-65 29-60 31-55 33-49 36-44 2-4-56-41-35 52-34 56-29 59-27 66-24 69-20 74-19 79-13 83-11 89-6 77-13-22-19-32-23-31-15-20 25-55 27-65 1-2 10-5-5-8 16-50 18-65 5-25 11-5-8-13 5-20 9-64 4-62v-63l-5-60-9-61-61 14 10 54 8 57 4 59v59l-2 23-39-57-31-40-34-36-35-34-37-32-39-28-41-24-43-22-5 9 72 59 33 32 31 34 30 35 29 37 27 39 25 42 23 44 22 46h1l-10 60-6 24-46-60-27-30-30-28-30-27-32-27-33-23-37-22-37-18-5 8 61 54 56 56 49 59 23 32 41 64 19 34 10-5-10 40-17 52-28-31-32-29-33-29-37-28-40-26-42-27-6 9 70 66 60 63 26 31 23 31 20 30 18 30 15 30 4 9H323v7l-25-16-11-4-25-49-30-49-34-50-41-51-17-18 27-21 26-23 23-26 18-25 16-27 12-29 8-28 4-30v-31l-3-30-62 15 6 22 3 23v22l-3 25-6 23-10 25-12 27-16 25-40 57v1l-5 4 67 141 21 50 16 47H63V31L0 0v887l63-32h171l33 27 56-47v13h464l43 48 53-48v-21H633l18-88 20-86 21-80 17-56 22 46 36 70 29 64 9 21 3 6M570 72l6 1 5 1 3 2 2 2 3 2 2 3 2 4 2 5 2 7 61-14-4-13-4-12-6-11-8-11-10-10-11-7-11-5-13-4-14-2-13-1v32L459 57v15h111M209 342l62-15-3-13-6-12-7-12-8-10-10-9-10-6-12-6-13-4-14-2-12-1v31l-53 16v15h53l7 1 5 1 4 1 3 1 6 5 5 7 2 5 1 7Z"/></symbol><symbol id="𮥇_K" viewBox="0 0 1000 1000" data-size="21"><path transform="matrix(1 0 0 -1 71 931)" d="m770 860 56-42c8-6 11-11 9-15-2-5-8-7-17-7H365V98h380l48 48 53-41c9-8 13-14 11-17-1-4-7-6-19-6H365V59c0-2 1-5 2-8 2-8 1-13-2-16-3-4-11-9-24-14s-21-7-24-4c-2 2-2 8 0 19l2 21v724l-4 61 54-30h353l48 48m-570-26 28 28 45-34c13-10 19-17 17-22-2-6-14-9-36-9L147 584l4-4c45-47 74-81 88-103 24-36 35-73 35-111 0-49-11-88-34-115-20-25-51-42-93-53 0 16-3 27-9 34-9 10-31 21-66 34l4 9c56-15 96-16 119-2 24 14 35 44 35 91 0 32-7 65-22 99-16 34-41 74-75 120l77 234H52V57l1-18c1-10 1-17-1-20-3-5-12-10-25-15C17 0 11 0 9 4 7 7 6 15 7 30l1 24v738l-8 68 53-26h147m219-133 59-30h212l34 30 46-30c19-12 25-22 16-29-7-6-17-9-31-8V410c1-11 1-18-1-22-2-7-8-11-18-14-14-5-23-5-26-1-3 3-4 9-4 21l1 8h-92V240l2-23c1-14 1-23-2-28-3-7-11-13-24-17-13-2-20-1-23 2-1 2-1 11-1 26l1 8v194h-96v-10c0-10 0-17-2-20-4-6-11-10-24-13-12-2-20-2-22 1-2 2-3 9-2 22l1 16v242l-4 61m53-158h95v113h-95V543m142 0h92v113h-86c17-13 22-22 16-26-4-3-11-5-22-5v-82m0-126h92v111h-92V417m-142 0h95v111h-95V417Z"/></symbol><symbol id="𮥈_K" viewBox="0 0 1000 1000" data-size="21"><path transform="matrix(1 0 0 -1 82 928)" d="m691 854 47-37c9-5 12-11 10-15-1-3-7-9-17-16l-5-5V566l1-23c0-11 0-18-2-22-3-3-10-7-23-10-12-2-19-3-21-1-2 1-3 6-2 13l2 18H385v-18c0-7 0-12-2-14-2-3-8-8-19-14-15-5-24-6-26-3-3 3-3 12-1 28l2 37v251l-5 49 55-35h272l30 32m-306-46V690h295v118H385m0-133V562h295v113H385m347-199 52-38c7-5 11-9 10-13-1-5-6-7-15-7H563c13-5 19-10 16-15-3-4-13-8-30-10V274h181l38 46 61-46c5-4 8-8 7-12-2-5-8-7-18-7H549V65l1-18c1-9 1-15-1-18-3-4-11-9-24-15s-20-7-22-4c-2 1-3 9-2 22l2 32v191H246l-5 19h262v144H377l-64-6-16 23 87-1h318l30 42M217 848l49-39c13-11 18-19 14-23s-18-7-40-7L129 561c61-45 102-82 124-110 24-32 37-71 39-117 0-38-14-71-43-99-25-25-57-42-95-49-5 18-14 30-26 36-13 7-33 14-60 20l-1 9c64-5 110-1 138 11 25 10 38 34 41 70-4 49-19 92-45 131-17 23-47 56-91 97l84 245H48V34c1-8 0-13-1-16-3-6-10-10-22-14C14 0 7 0 5 5c-2 2-3 9-2 18l1 7v777l-4 50 48-32v-6h134l35 29Z"/></symbol><symbol id="𮥉_S" viewBox="0 0 1000 1000" data-size="21"><path transform="matrix(1 0 0 -1 63 959)" d="m566 355-9 25-14 23-8 12-18 23-14 14V31L440 0v396l-17-47-19-43-19-41-22-39-24-37-26-34-8 5 33 78 29 82 14 43 12 44 10 46 10 46 8 49 5 34H309v22h131v173l-46-11-37-8-39-7-3 10 125 57 32 15 45 26 19 12 17 12 10 8 4 4 31-43 6-8 1-20-19 9-23-12-47-19-13-4V604h23l44 46 52-46v-22H503V472l15-4 15-7 30-18 25-20 12-11 21-26 3-24-15-19-23-3-20 15M288 813l-25-48-30-49-35-50-40-51-18-19 27-20 27-23 23-26 18-25 16-27 12-29 8-28 4-30v-31l-4-30-60 15 5 22 3 23v22l-3 25-6 23-10 25-12 26-16 26-19 29-22 28 1 1-6 4 68 141 11 26 19 48 7 23H63V31L0 0v887l63-32h173l32 27 57-48-26-16-11-5m508 105 63-10 16-11-16-9V89l-1-13-2-13-4-13-6-12-9-11-11-8-12-7-12-4-13-2-14-1v31l-73 16v15h73l7 1 5 1 4 2 2 1v1l1 1 1 4 1 5v835m-140-78 63-11 15-11-15-8V210l-63-32v662M211 342l60-15-3-13-5-12-6-12-9-10-10-9-10-6-12-6-13-4-14-2-12-1v31l-53 16v15h53l7 1 4 1 5 1 3 1 6 5 2 3 3 4 2 5 2 7Z"/></symbol><symbol id="𮥊_K" viewBox="0 0 1000 1000" data-size="21"><path transform="matrix(1 0 0 -1 64 956)" d="M282 820c7-7 11-14 11-18s-5-7-14-9c-8-2-17-4-25-5L140 584c84-91 123-177 117-259-5-60-27-103-68-128l-18-9c-7-1-12-2-16-2-6 0-10 5-12 16-2 12-7 19-15 23l-68 16 3 14 75-9c24-3 42 1 53 12 8 6 16 20 24 42 2 15 4 30 4 47 0 82-28 152-83 211-11 11-17 19-17 24 0 2 4 12 12 30l84 204H49V39c-1-10-9-17-23-21-5-2-9-3-11-3-6 0-8 6-9 17v69L0 861l52-24h158l18 21c5 7 9 10 9 10 1 0 6-4 15-13l30-35m77-406h141l14 93 5 97H359V414m198 93-12-93h188v190H562l-5-97M413 747l-43-72-25-35 15-16h173l78 169H436l-23-46m75 141 16-12-1-10-13-7-22-5-12-19-14-22h169l28 26 7 1 61-57-2-11-7-4-41-2-100-142h161l25 29h12l56-49v-7l-10-8-23-6 4-199-9-11-14-9-18-6-8 5v31H591V61l10-12 20-7h128l29 4 22 11 11 23 19 61 14 52 5-4-3-61V66l6-10 19-14V31l-13-11-27-7-66-8-169 1-27 9-14 9-10 27v343h-6l-13-51-26-68-22-50-36-50-51-52-72-46-61-23-93-30L94 8 48 0v10l87 23 70 24 63 28 50 27 63 46 48 62 28 55 26 74 12 45H359v-30l-10-7-14-9-16-4-10 4 4 118v138l-55-46-17-13-7 8 64 71 46 67 41 88 31 82 16 51 56-24Z"/></symbol><symbol id="𮥋_S" viewBox="0 0 1000 1000" data-size="21"><path transform="matrix(1 0 0 -1 30 959)" d="m0 887 63-32h113l31 27 58-48-27-16-9-4-18-46-36-75-14-25-33-52-16-20 24-22 20-23 18-26 14-26 13-26 9-29 7-27 3-29 1-30-2-29-28 5-35 6 5 24 3 23v24l-2 24-4 25-6 24-9 26-11 26-13 27-15 28 1 2-4 3 45 139 21 74 6 22v3H63V31L0 0v887m440-37 58-47-26-16-12-5-80-247h58l32 27 57-48-25-16-3-1-4-44-10-67-13-63-17-57-19-50 27-31 45-36 53-27 61-18 73-10 87-2 100 6 5-70-105-3-93 7-81 16-69 25-60 36-48 46-15 20-6-14-27-45-32-40-36-35-39-29-5 7 30 36 27 38 25 42 21 44 15 37-29 59-24 75-17 85 9 2 29-81 32-68 14-25 5 16 12 56 10 60 6 63 2 56h-65l-2-9-70-10 102 308H277v21h131l32 26M887 31l-1 17v7l-2 18v3l-1 16v1l-1 1v4l57 4-52-74v3M478 211v21h56v387l64-10 15-10-15-10V232h66v564l-33-8-40-9-42-7-44-4-2 9 154 57 96 42 28 14 45 27 5 2 9-16 33-33 1-17-20 7-20-8-61-25-45-14V558h80l32 36 42-36v-22H728V232h70l53 53 62-53v-21H478M156 340l63-11-3-13-5-12-6-12-8-11-9-9-11-7-12-6-13-4-12-2-14-1v31l-42 16v15h42l7 1 5 1 4 1 4 1 1 2 2 2 2 3 2 4 2 5 1 6Z"/></symbol><symbol id="𮥌_J" viewBox="0 0 1000 1000" data-size="21"><path transform="matrix(1 0 0 -1 58 955)" d="M430 741h109l37 36c38-26 57-43 57-50 0-4-2-8-8-11l-24-16V541h-54v29H415v-41h-56v237c23-6 47-15 71-25m-15-25V595h132v121H415M100 840h132l31 40c39-34 58-55 58-65 0-4-2-7-8-10l-29-13c-25-34-54-66-88-98 35-14 62-32 81-55 14-18 21-34 21-49 0-66-38-98-114-96 0 12-7 22-21 29-13 7-35 13-65 19V431H42v435c19-8 39-17 58-26m-2-25V565c30-5 62-7 93-7 34 0 51 15 51 44 0 27-27 56-82 87h-2c30 42 55 84 76 126H98m684 1V517c0-58-35-86-106-85 0 19-10 34-31 44-15 7-47 15-96 22v26c58-5 103-8 134-8 26 0 39 11 39 34v266H339l-11 25h434l51 69c29-27 52-51 70-74l-11-20h-90M439 266V0h-59v360H10L0 385h733l51 59c29-23 53-45 72-64l-11-20H439v-68c98-19 175-43 230-71 53-27 80-53 80-78 0-23-10-35-31-35-9 0-18 4-28 13-63 58-146 106-251 145Z"/></symbol><symbol id="𮥍_S" viewBox="0 0 1000 1000" data-size="21"><path transform="matrix(1 0 0 -1 56 947)" d="m343 12-7 18-2 3-1 2v2l-1 2-1 1-1 3-1 5-2 4-2 5-2 6-1 2v1l-2 4 17 5v415l63-11 16-9-16-10V359h78l33 37 42-37v-21H400V95l97 32 53 17 5-9-46-32-67-40-61-33-18-9-6-21-14 12m-74 323-61 15 5 22 3 23v22l-3 24-6 24-9 25-12 27-35 53-21 29v1l-5 4 55 116 23 51 18 47 7 23 1 1H63V39L0 8v887l63-32h169l33 27 57-48-26-16-11-4-25-50-29-48-34-50-41-51-17-19 27-20 25-23 23-26 19-25 15-28 12-28 8-28 4-30v-31l-3-30m51-265 23-58-32 54 9 4m269 420 63-11 16-9-16-10V288l48 36 51 43 30 29 10 11 2 1 1 2 2 2 42-48 3-18-21 6-38-27-41-22-21-12-47-20-21-6V111l1-5 1-4 3-2 4-1 5-1 7-1h153l30 131h11L857 97l19-13 13-19-13-19-20-13H673l-14 2-13 2-12 4-12 7-11 9-8 9-7 13-4 13-2 12-1 13v373M208 350l61-15-3-13-6-12-6-11-9-11-10-9-10-7-12-5-13-4-12-2-14-1v31l-53 16v15h53l7 1 5 1 4 1 3 1 6 5 3 3 2 4 2 5 2 7m135 545 62-32h316l31 27 58-48-27-21V532l-62-31v62H405l-62-31v363m378-184H405V585h316v126m0 131H405V731h316v111Z"/></symbol><symbol id="𮥎_S" viewBox="0 0 1000 1000" data-size="21"><path transform="matrix(1 0 0 -1 72 943)" d="m201 342 6 22 3 23v23l-4 24-6 24-8 24-12 27-33 54-21 28 1 2-5 3 53 115 21 52 18 48 7 22 1 1H63V31L0 0v887l63-32h163l31 27 58-48-26-16-12-5-10-24-27-48-14-24-34-50-19-25-38-45 27-21 26-24 21-25 19-26 14-26 12-29 8-28 4-30 1-31-4-29-62 14m454-71H264v20h391v96H479v-16l-64-32v546l64-31h271l31 26 58-48-26-20V376l-63-31v42h-57l25-5 16-10-16-10v-71h22l53 53 62-53v-20H718V107l-1-13-2-13-4-13-7-11-9-11-9-9-13-7-13-4-13-2-13-1v33L529 71v16h112l5 1 2 1 2 1 1 1 1 1 1 5 1 4 1 6v164M457 112l-4 15-4 14-9 27-17 38-7 13-8 11 6 7 12-8 12-8 12-10 12-11 11-11 20-26 10-14 17-31-1-24-19-16-23 1-16 19-4 14M201 342l62-14-4-14-5-11-7-12-8-11-10-9-10-6-12-6-13-4-12-2-14-1v31l-53 16v15h53l7 1 5 1 5 1 3 1 2 3 2 2 3 3 2 4 2 5 2 7m549 199H479V407h271v134m0 146H479V563h271v124m0 145H479V708h271v124Z"/></symbol><symbol id="𮥏_J" viewBox="0 0 1000 1000" data-size="21"><path transform="matrix(1 0 0 -1 78 946)" d="M67 838h104l37 48c40-35 60-57 60-67 0-5-3-9-10-12l-24-12c-24-72-54-143-89-211 65-77 97-153 97-226 0-113-39-169-118-168-1 24-24 43-68 55V0H0v872c16-7 38-18 67-34m-11-25V273c29-5 52-8 69-8 41 0 62 39 62 117 0 62-25 127-74 196 26 78 46 156 61 235H56m308-519H257l-10 25h178v409h-57c-36-62-85-124-146-187l-20 16c44 55 79 111 105 170 19 43 39 98 58 165 67-13 101-28 101-45 0-11-16-18-47-21-13-28-25-52-37-73h272l57 75c29-27 54-54 75-81l-12-19H487V608h145l50 67c24-25 46-49 64-73l-12-19H487V477h167l54 72c25-27 47-52 65-77l-12-20H487V319h236l52 61c27-23 50-46 70-67l-10-19H443c-36-71-71-132-106-183 97 1 201 5 312 11-31 32-74 65-127 98l13 19c85-32 150-69 194-109 31-28 46-53 46-74 0-25-12-37-35-37-12 0-23 9-34 28-9 16-21 33-35 51-135-21-277-36-428-46-5-26-12-38-20-38-16 0-30 32-43 96h120c25 58 47 120 64 184Z"/></symbol><symbol id="𮥐_S" viewBox="0 0 1000 1000" data-size="21"><path transform="matrix(1 0 0 -1 69 951)" d="m201 342 6 22 3 23v23l-4 24-6 24-8 24-12 27-33 54-21 28 1 2-5 3 53 115 21 52 18 48 7 22 1 1H63V31L0 0v887l63-32h163l31 27 58-48-26-16-12-5-10-24-27-48-14-24-34-50-19-25-38-45 27-21 26-24 21-25 19-26 14-26 12-29 8-28 4-30 1-31-4-29-8 1-54 13m393 169-17-10-4-62-2-12 3-16 12-59 16-54 8-22 90 85 31 32 29 30 1 2 43-47 3-19-21 5-56-40-61-37-44-21-9-4 5-12 24-43 28-36 32-32 35-27 40-22 45-19 36-13-60-51-51 24-46 31-40 35-33 41-28 46-22 49-16 54-8 53-12-47-24-63-30-55-37-49-42-42-49-33-54-26-60-15-3 9 55 25 47 30 41 35 34 41 29 47 25 52 17 59 13 64 7 71 1 78v13l63-13 16-10M299 265l30-56-23-3-19 16-3 23 15 20m4-8-1 2-3 5v1l13 5 11 8 11 9 11 12 9 14 8 16 8 20 6 21 5 24 3 26 10 1 2-27 3-27v-24l-2-24-4-22-7-21-11-19-12-18-16-16-18-14-7 13-5 8-4 9-5 10-1 1-1 2-3 5m-102 85 62-14-4-14-5-11-7-12-8-11-10-9-10-6-12-6-13-4-12-2-14-1v31l-53 16v15h53l7 1 5 1 5 1 3 1 2 3 2 2 3 3 2 4 2 5 2 7m550 140-43 37-47 35-51 32-81 46-18-31-35-42-42-38-48-30-54-24-58-19-3 9 53 27 47 32 40 32 34 37 28 40 23 45 17 48 10 53 6 56v62l-1 12 64-10 16-10-17-11-2-47-10-62-16-59-23-53-5-7 27-5 33-9 30-11 30-13 30-12 27-15 26-15 51-35 24-18 9-23-8-22-22-10-22 9-19 19M316 685l46-42-22-11-23 8-8 22 7 23m0 0 12 10 10 11 9 11 7 11 7 11 6 12 4 14 3 13 3 15-2 16 9 3 12-33 3-15 1-17v-18l-4-17-4-18-8-17-10-18-12-16-14 13-4 3-11 11-16 14-1 1m432 164 50-39 8-18-22 1-27-28-32-28-37-26-19-12-43-23-6 8 18 16 44 51 25 32 22 31 19 35Z"/></symbol><symbol id="𮥑_K" viewBox="0 0 1000 1000" data-size="21"><path transform="matrix(1 0 0 -1 69 935)" d="M425 741c0-53-6-93-18-122-10-27-29-52-56-75-16-10-28-13-36-9-6 6-7 17-3 34 0 6 2 11 6 15 4 3 9 6 16 12 19 11 33 25 41 40 16 24 26 59 32 105h18m132 124c22-2 33-6 32-11 0-2-12-7-36-13 0-12-1-39-2-82l-1-44c7-33 15-62 25-88 8-18 20-42 36-72 24 20 48 43 73 69 22 23 49 55 81 94l46-18c18-8 26-13 23-17-4-4-16-4-36 0-39-32-70-56-93-73-18-13-47-35-88-66 28-51 59-94 93-129 42-46 93-84 151-113l-7-7c-24-1-40-3-48-7-6-3-12-8-19-16v-1c-61 54-110 111-147 170-44 69-76 150-96 242-10-116-34-200-70-254-42-61-119-116-230-165l-8 6c56 28 103 59 139 92 36 35 64 76 84 123 18 45 30 99 35 163 7 61 8 135 3 222l60-5m-340-31 28 28 46-34c12-9 18-16 17-22-3-6-15-9-37-9L165 584l4-4c44-47 73-81 88-102 23-37 35-74 35-112 0-49-11-88-34-115-21-25-52-42-93-53 0 16-4 27-13 34-11 10-38 21-81 35l3 8c63-15 107-15 134-1 26 14 39 44 39 90 0 32-7 65-22 99-16 34-41 74-76 120l79 234H51V58l1-18c1-10 1-17-1-20-3-6-11-11-25-16C16 0 10 0 8 4 7 7 6 16 6 32l1 22v738l-7 68 53-26h164M527 78c0-22-7-39-23-51-16-11-40-20-74-25-3 15-11 27-24 36-15 11-39 21-72 29l4 11c21-5 43-9 63-11 22-1 41-1 59 0 7 2 13 6 17 12 3 5 4 12 4 21v279l-4 50 50-14c21-5 31-10 31-16 0-5-10-10-31-15V78M386 295c0-55-10-103-31-144-17-34-39-61-64-81-9-6-18-9-26-9-8-1-14 1-19 4-3 5-4 11-2 18s8 15 19 22c20 17 41 42 62 76 24 38 41 76 50 114h11m180-28c46-32 83-66 111-102 26-33 39-59 39-80 0-16-7-26-20-32-12-4-20 2-23 18-9 28-20 56-34 83-22 42-48 77-79 107l6 6m114 9c55-32 97-65 125-98 23-27 35-51 37-73 0-16-5-26-18-31-11-5-20 0-25 16l-2 4c-9 28-19 53-31 74-22 36-53 70-93 103l7 5Z"/></symbol><symbol id="𮥒_S" viewBox="0 0 1000 1000" data-size="21"><path transform="matrix(1 0 0 -1 70 946)" d="m349 889 5-18 2-10h414l31 27 58-48-26-16-13-5-8-14-8-12-18-22-9-10-10-9-10-10-4-3 48-41v-20H583v-84h100l32 26 57-48-26-20V284l-63-32v53H583V184h161l53 52 62-52v-21H583V31L521 0v163H250v21h271v121H403v-37l-62-32v389l62-31h118v84H319v20h202v121l62-10 16-11-16-9v-91h103l52 53 6-5 2 4 4 13 8 24 6 25 5 24v4H362l1-3 2-18 1-16v-17l-2-16-4-17-5-16-5-15-26 15-9 5-12 9-4 2-3 2 8 9 7 10 5 10 6 12 5 13 4 13 4 15 3 16 2 16-1 18 10 2M201 348l6 22 3 23v23l-4 23-6 25-8 24-12 27-33 53-21 29 1 2-5 3 53 115 21 52 18 47 7 23 1 1H63V37L0 6v887l63-32h163l31 27 58-48-26-16-12-5-10-24-27-48-14-24-34-50-19-26-38-44 27-21 26-24 21-25 19-26 14-27 12-28 8-28 4-30 1-31-4-29-62 14m0 0 62-14-4-14-5-11-7-12-8-11-10-9-10-6-12-6-13-4-12-2-14-1v31l-53 16v15h53l7 1 5 1 5 1 3 1 2 3 2 2 3 3 2 4 2 5 2 7m320 93H403V326h118v115m162 0H583V326h100v115M521 572H403V462h118v110m162 0H583V462h100v110M296 755l54-33-21-14-23 4-14 19 4 24Z"/></symbol><symbol id="𮥓_J" viewBox="0 0 1000 1000" data-size="21"><path transform="matrix(1 0 0 -1 67 943)" d="M513 367H379c-23-50-56-98-99-143l-25 15c32 43 57 86 73 129 14 34 26 77 37 130 58-13 86-26 86-40 0-7-5-13-14-17-2 0-11-3-29-7-10-26-16-40-17-42h122v159c70-3 104-12 104-27 0-9-14-19-44-30V392h109l43 61c25-25 44-47 58-66l-11-20H573V223h97l42 61c27-27 46-48 57-64l-12-22H573V48h160l47 64c26-28 46-50 60-69l-11-20H225l-10 25h298v150H335l-10 25h188v144M67 838h104l37 48c40-35 60-57 60-67 0-5-3-9-10-12l-24-12c-24-73-54-143-89-212 39-45 67-93 84-142 125 87 214 210 267 369H310l-10 25h190l39 47c41-32 61-52 61-60 0-4-3-8-10-11l-24-12c20-35 40-65 59-91 36 41 68 89 96 146 46-28 68-48 68-59 0-6-6-9-20-9-1 0-8 0-20 2-34-38-70-72-108-100 21-25 41-47 61-66 38 40 72 86 102 138 42-28 63-49 63-62 0-6-6-9-17-9-6 0-13 2-22 4-30-30-65-60-106-89 45-40 96-76 154-110-15-12-30-30-44-53-124 88-217 196-280 326-41-93-86-166-135-220-44-49-101-93-171-133 4-19 6-38 6-56 0-113-39-169-118-168-1 24-24 43-68 55V0H0v872c16-7 38-18 67-34m-11-25V273c29-6 52-8 69-8 41 0 62 39 62 117 0 61-25 126-74 196 26 78 46 156 61 235H56m315-188c-12 0-22 10-29 30-16 40-44 76-86 109l13 18c89-41 133-82 133-123 0-22-10-34-31-34Z"/></symbol><symbol id="𮥔_K" viewBox="0 0 1000 1000" data-size="21"><path transform="matrix(1 0 0 -1 77 940)" d="m283 843 65-2h351l39 40 50-36c9-6 12-11 8-15-3-3-10-4-21-4H621V497h122l39 40 54-37c8-5 11-9 8-12-4-5-10-7-21-7H353l-67-3-13 21 65-2h106v329h-82l-67-3-12 20m294-17h-91V497h91v329M350 351l-3 53 51-31h270l29 25 41-28c19-13 24-23 18-29-5-3-15-5-28-5V76c0-10-1-17-2-20-3-5-11-9-23-15-12-2-19 0-21 4s-2 11-1 22l1 10H396V63c0-11 0-17-2-20-2-5-8-9-17-11-14-4-23-4-27 1-2 2-2 9-1 21l1 10v287m46 7V235h286v123H396m0-141V94h286v123H396M52 834h127l30 29 45-35c12-10 17-18 16-24-3-6-15-8-37-8L133 583l10-12c40-45 66-78 79-100 22-34 33-70 33-105 0-51-12-89-35-117-19-24-48-41-87-51 0 15-3 26-8 33-7 10-24 21-52 33l3 11c43-16 76-17 99-2 24 14 36 44 36 91 0 32-8 64-24 98-13 33-37 73-70 120l73 236H52V39c1-9 1-17 0-21-3-5-11-10-24-15C17 0 10 0 8 4 7 7 6 16 7 31l1 23v737l-8 69 52-26m589-283-6 6c41 57 72 125 91 204l41-17c16-10 23-19 21-27 0-4-9-6-28-8-33-62-73-115-119-158m-285 43-20 63c-8 25-24 54-48 87l5 7c36-30 62-58 80-85 17-26 25-50 23-72 1-17-5-29-18-35-7-1-14 11-22 35Z"/></symbol><symbol id="𮥕_G" viewBox="0 0 1000 1000" data-size="21"><path transform="matrix(1 0 0 -1 47 989)" d="m650 941 4 11c44-8 75-18 93-31 19-15 29-30 30-45 0-18-6-28-18-31-13-3-22 4-25 20-5 15-13 28-24 39-11 12-31 24-60 37M414 240l7 10c29-9 55-22 78-39 21-18 34-38 37-61 2-23-3-36-15-41-13-4-22 4-25 25s-10 39-23 54-32 33-59 52m-6 454v-96h152v96H408m350 0H603v-96h155v96M560 484v98H408v-98h152m43 98v-98h155v98H603M255 288h451v33c-1 13-9 27-25 42l8 11 84-35c6-3 9-5 10-7s-1-4-4-6c-11-4-21-9-28-16v-22h60l28 39 59-45c7-4 9-7 7-10-1-2-7-3-18-4H751c0-46 0-97-1-153V87c0-21-5-38-16-51-10-13-37-25-82-36-2 20-11 33-26 39-15 5-44 13-86 23l4 18 42-10c43-9 74-11 92-6 17 7 27 24 28 52v152H333c-17 0-32-4-45-12l-33 32M11 935l44-42h169l34 42 53-45c8-7 9-11 3-14-11-3-25-11-40-24l-33-72c-23-53-47-100-71-142 29-32 52-58 67-78 15-19 27-40 36-61 8-23 12-48 11-75 0-27-5-51-16-72-12-20-25-34-38-43-19-11-44-20-73-25 2 25-22 45-71 59l4 15c13-6 33-11 59-15 23-5 43-2 60 9 16 12 26 26 30 42 5 17 7 35 6 56-2 22-5 38-8 47s-8 21-15 36c-1 1-2 4-4 7-9 14-17 26-23 35-5 7-15 19-30 36-7 9-12 15-16 19 33 80 62 161 86 243H66V145l4-96c0-12-6-22-17-30-7-4-19-9-37-15 3 26 5 87 7 183v691c-4 18-12 34-23 47l11 10m527 42 88-35c9-4 11-8 6-11-13-6-23-13-29-20v-90h183l32 37 54-43c7-4 10-7 8-10-2-2-8-3-19-4H603v-87h133l43 42 42-50c4-4 6-8 5-11s-4-5-10-6l-19-9V447l4-37c-1-11-6-21-15-29-9-7-20-12-34-15l4 46 2 35v21H603v-29l2-56c0-14-5-24-14-30s-22-11-38-14c2 13 4 49 5 107 1 10 1 17 1 22H408l4-88c0-15-4-25-12-32s-21-11-38-14c3 17 5 79 7 186v185c-3 14-10 26-20 35l15 15 35-41h161v87H368c-17 0-32-4-44-12l-34 32h270v100c1 9-9 24-31 44l9 12Z"/></symbol><symbol id="𮥖_K" viewBox="0 0 1000 1000" data-size="21"><path transform="matrix(1 0 0 -1 77 927)" d="M282 806c7-8 10-14 10-19 0-4-5-7-14-9-8-2-17-3-25-5L139 569c84-90 123-176 117-258-4-61-27-104-68-128l-18-9c-7-2-12-3-16-3-6 0-10 5-12 17-2 11-7 19-15 22l-68 17 3 13 75-9c24-2 42 2 53 12 9 7 17 21 24 42 2 15 4 31 4 47 0 82-28 152-83 211-11 11-16 19-16 24 0 2 4 12 11 31l84 204H48V24c-1-9-9-17-23-21-5-2-9-3-11-3-6 0-8 6-9 18v68L0 847l51-25h158l18 22c5 6 9 10 9 10 1 0 6-5 15-13l31-35m106-105h137v99H388v-99m-40-203h178v72H348v-72m0-89h178v67H348v-67m221 89h179v72H569v-72m0-89h179v67H569v-67m0-263v-26c0-19 2-33 5-42 5-14 20-20 46-20h122c11 0 20 3 26 8 5 6 11 18 17 38l18 49 11-5-4-50c-2-16 3-27 16-35 13-7 20-13 20-18 2-20-26-30-82-30H612c-33 0-56 6-68 17s-18 34-18 70v34l-207-34v25l207 37v71l-207-34v27l207 36v123H348c0-5 0-8 1-9 0-1 1-3 1-5 0-8-8-16-24-23-6-3-11-4-13-4-6 0-10 8-10 23 0-20 0 62-2 246l53-22h172v85H388v-12c-2-6-8-11-19-16-10-4-17-5-19-5-5 0-8 2-8 8-1 4-1 14 0 30v171l58-29h287l19 20c7 8 16 8 25 0l26-32c8-9 13-16 13-21 0-4-9-8-27-14v-49l1-62c-1-9-5-16-13-21-6-3-14-6-23-7-5 0-8 4-9 11l1 28H569v-85h168c7 13 16 27 28 42 20-20 33-33 40-41 7-10 10-18 10-23 0-8-7-13-23-15V387c-1-12-9-21-24-28-7-3-11-5-14-5-4 0-6 4-6 10v23H569V274l127 25 13 28c5 11 8 17 11 17 1 0 10-4 27-11l51-22-5-19-224-47v-73l127 27 13 29c5 11 8 16 11 16 1 0 10-3 27-11l51-23-5-18-224-46m0 555h128v99H569v-99Z"/></symbol><symbol id="𮥗_S" viewBox="0 0 1000 1000" data-size="21"><path transform="matrix(1 0 0 -1 47 951)" d="m534 525 64-10 15-11-15-9V352h72l52 52 63-52v-21H598V31L534 0v331H354v21h180v173M0 893l63-32h148l31 27 58-48-27-16-10-4-23-49-26-48-31-50-38-51-17-19 26-22 24-23 20-26 18-26 13-27 11-27 8-29 4-29 1-30-4-30-61 14 4 22 3 23 1 23-3 23-5 25-8 25-11 26-14 26-16 27-20 29 1 2-5 3 69 166 15 47 7 24 1 1H63V37L0 6v887m434-623 49-40 8-17-20 1-41-48-41-42-45-41-24-19-26-18-27-18-6 7 77 96 51 67 29 45 16 27M758 82l-8 17-9 16-21 35-14 18-46 55-17 17 5 8 24-12 21-13 21-14 19-15 36-32 14-16 15-18 24-37 1-25-16-17h-24l-18 15-7 18M188 348l61-14-3-13-5-12-7-12-7-10-10-10-11-6-12-6-12-4-13-2-14-1v31l-52 16v15h52l7 1 6 1 4 1 3 1 3 3 2 2 2 2 2 5 2 5 2 7m623 45-36 21-33 24-31 28-30 29-28 30-27 35-23 36-23 39-1 2-24-35-28-39-30-36-33-34-35-32-37-31-40-30-44-27-46-24-5 7 76 66 36 33 32 34 31 34 28 36 24 36 24 36 20 38 17 34h-1l5 11 55-33 8-17-18-2-4-6 65-72 30-27 30-27 61-45 32-17 33-18 65-28-59-49-36 20M633 901l62-10 17-11-17-9v-95h61l53 53 63-53v-21H695v-99l-62-32v131H499v-99l-63-32v131H260v21h176v125l63-10 16-11-16-9v-95h134v125Z"/></symbol><symbol id="𮥘_S" viewBox="0 0 1000 1000" data-size="21"><path transform="matrix(1 0 0 -1 47 967)" d="m226 336-60 11-2 1 5 23 2 25 1 24-2 25-5 25-7 26-9 26-11 27-14 28-16 28 1 1-5 3 10 32 39 112 16 51 6 24 5 24 1 2H63V31L0 0v907l63-31h121l31 26 58-48-26-15-9-3-20-50-11-24-26-51-31-53-33-48 24-22 21-25 18-25 15-27 13-28 10-28 7-29 3-30 1-30-3-30M785 31l-54 15-50 17-47 21-42 25-20 16-49-28-54-26-58-21-60-17-66-12-67-6-1 8 64 18 62 20 56 22 53 24 49 28 33 23-13 14-29 36-23 39-9 21-22-24-27-22-27-21-30-19-31-19-33-15-34-12-4 8 57 44 49 43 23 23 41 49 17 25 17 26 15 28 3 5 51-36 9-17-20-1-8-12-7-8h186l4 7 3-2 24 21 57-47-25-16-19-8-23-29-40-42-44-37-9-6 44-21 43-16 47-12 50-9 108-12-62-63-58 10M670 292H482l-10-13 15-20 29-31 31-30 20-14 21 16 37 37 34 40 11 15m-530 29 5 1 4 1 3 2 2 2 2 2 2 2 3 5 1 5 2 7 62-12-3-14-4-11-7-12-8-11-10-10-10-7-12-5-13-5-13-2h-13v31l-42 16v15h49m184 217 1-3-1 3m361-191v47h114l22 68h11l-11-68 14-9 10-15-10-14-14-9H685M329 481v2-2m1-4-16 61 10 1h13l72 78 33 41 31 45 11 17H347v-36l-64-33v230l64-11 15-11-15-8V741h182v194l64-11 15-10-15-10V741h182v140l64-11 15-11-15-8V699l-64-31v52H501l38-31 7-17-21 1-23-28-40-41-43-36-23-15-16-11 19 1 39 2 81 7 42 4 42 4 87 6 6 1-32 40-30 35-16 15 5 8 42-20 21-13 37-28 34-33 15-17 31-37 4-25-15-19-23-4-20 13-20 39-21 30-49-14 3-113-1-6 1-6v-3l1-4 1-2 1-2 3-2 4-2 6-1 7-2v-47h-13l-13 2-12 3-11 4-11 8-9 10-7 10-5 12-3 13-2 14-3 99-30-6-42-8-32-6-5-21-10-30-15-29-20-27-21-26-26-23-30-22-33-19-36-18-40-16-4 9 34 25 58 46 23 24 20 23 15 25 13 23 9 25 5 19-62-9-15-2-10-18-12 16Z"/></symbol><symbol id="𮥙_J" viewBox="0 0 1000 1000" data-size="21"><path transform="matrix(1 0 0 -1 65 948)" d="M471 373H252v-17c0-106-40-159-119-158 0 17-7 30-22 38-8 4-25 9-52 15V7H0v873c24-11 46-23 66-35h110l34 45c39-36 59-58 59-67 0-5-3-9-9-12l-24-13c-28-80-60-150-95-212 61-56 97-119 108-189h262v113H363v-48h-56v265c27-13 48-25 63-35h141v99c-69-10-146-17-232-22l-13 24c203 27 358 62 464 104 45-28 67-48 67-60 0-6-6-9-19-9-9 0-21 1-34 4-48-12-107-23-179-34V692h147l37 44c40-33 60-53 60-62 0-4-3-7-8-10l-27-18V470h-55v40H565V397h189l49 60c24-21 45-42 64-63l-11-21H574c15-37 26-60 32-71 15-30 32-56 51-78 48 47 87 94 117 140 43-29 65-49 65-62 0-8-7-11-20-11-5 0-12 0-21 1-32-29-73-59-123-89 49-55 114-94 195-118-21-15-36-34-44-58-84 39-148 88-194 149-37 50-67 115-88 194-27-31-59-60-97-88V110c67 14 129 29 186 46l7-24C536 91 433 60 331 38c-5-25-11-38-19-38-13 0-28 28-43 83 37 3 78 9 121 17v142c-72-47-143-79-213-98l-12 23c121 47 223 116 306 206m94 162h154v132H565V535m-202 0h148v132H363V535M59 820V279c35-4 60-7 73-7 42 0 63 36 63 106 0 68-27 136-83 204 29 80 52 160 67 238H59Z"/></symbol><symbol id="𮥚_J" viewBox="0 0 1000 1000" data-size="21"><path transform="matrix(1 0 0 -1 70 941)" d="M66 838h119l35 45c40-35 60-57 60-67 0-4-2-8-8-11l-25-14c-26-66-59-136-99-208 72-65 107-141 107-228 0-110-41-165-123-164-1 24-26 43-75 57V0H0v872c28-13 50-24 66-34m-9-25V274c38-5 64-8 78-8 44 0 66 37 66 110 0 66-28 133-85 202 26 69 50 147 71 235H57m665-464H292l-9 25h439v65H328l-11 25h405v70H292l-9 25h431l35 41c38-30 58-49 58-58 0-4-3-8-8-11l-21-14V314h-56v35m0 283H292l-9 25h439v65H328l-11 25h405v69H292l-9 25h431l35 41c38-30 58-49 58-58 0-4-3-8-8-11l-21-14V608h-56v24M825 81c-17 0-27 9-32 27-14 60-49 116-105 169l14 17c105-60 158-118 158-174 0-26-12-39-35-39M592 186c-13 0-22 9-28 27-11 32-38 65-82 100l12 18c87-33 130-70 130-109 0-24-11-36-32-36M239 38c-24 0-37 12-37 37 0 10 9 22 26 35 41 29 65 80 73 155l24-6c1-26 2-39 2-40 0-60-13-109-38-146-16-24-33-35-50-35m335-22c-87 0-138 3-154 11-17 9-26 29-26 60v183c60-1 90-8 90-21 0-9-12-17-36-26V101c0-15 5-24 15-27 11-4 38-5 81-5 50 0 81 2 93 6 20 6 33 46 40 119l26-8c-1-12-1-24-1-37 0-48 13-72 37-72-1-30-13-47-37-54-22-5-65-7-128-7Z"/></symbol><symbol id="𮥛_K" viewBox="0 0 1000 1000" data-size="21"><path transform="matrix(1 0 0 -1 91 937)" d="M506 195h195v153H506V195m77 423c-3-24-7-44-12-61-5-21-9-36-13-47h152l41 45 58-45c8-7 11-12 7-16-2-2-8-3-19-3H552c-10-22-21-43-34-64-10-14-23-31-39-50l21-13h180l36 29 39-29c17-14 21-24 14-30-6-4-13-7-24-7V183c0-13-1-22-2-25-3-7-11-12-22-16-11-2-18-1-20 3-1 3-1 10-1 21l1 13H506v-12c0-7-1-13-2-16-3-5-9-10-19-15-12-4-20-3-23 2-1 3-2 11-2 24l1 6v190c-16-15-33-28-53-40-13-10-31-21-54-33l-6 6c41 28 75 58 101 91 24 31 43 68 57 109H367l-12 19h157c7 18 13 43 17 73 4 18 6 43 8 77l41-12c20-6 30-11 30-15 0-2-8-7-24-14l-1-1m176-475 46-31c8-7 10-12 7-16-4-3-12-5-24-5H335V64c2-10 2-17 0-21-2-6-9-12-22-17-13-6-20-7-22-3-2 3-2 11-1 22l2 22v762l-4 45 81-45h318l43 44 58-40c11-6 14-11 10-14-3-4-12-6-25-6H335V102h383l41 41M478 686v-64c1-8 1-14 0-17-3-3-9-7-18-10-15-1-24-1-26 1s-3 8-2 17l2 18v55h-23l-57-6-6 22h86v90l55-20c18-5 26-10 25-15-2-4-14-9-36-14v-41h27l18 33 44-29c9-4 12-8 10-12-2-6-9-8-21-8h-78m235 0v-63c1-8 1-14-1-18-2-3-9-7-20-10-13-1-21-1-24 1-2 2-2 8-1 18l1 17v55l-63-6-5 22h68v90l56-20c17-6 25-11 24-15s-13-9-35-14v-41l26-1 21 34 46-29c7-4 10-8 8-12-1-6-10-8-24-8h-77M173 834l30 29 45-35c12-10 17-18 16-24-3-6-15-8-37-8L127 583l10-12c39-45 66-78 79-100 22-34 33-70 33-105 0-51-12-89-35-117-20-24-49-41-87-51 0 15-3 26-8 33-8 10-26 21-54 33l3 11c45-16 78-17 101-2 24 14 36 44 36 91 0 32-8 64-24 98-13 33-37 73-72 120l75 236H52V39c1-9 1-17 0-21-3-5-12-10-26-15C16 0 10 0 8 4 7 7 6 16 7 31l1 23v737l-8 69 52-26h121Z"/></symbol><symbol id="𮥜_S" viewBox="0 0 1000 1000" data-size="21"><path transform="matrix(1 0 0 -1 39 967)" d="m189 932 59-27 12-14-22-6-21-40-15-28-17-27-1-3h126l31 26 58-46-26-22V614l-63-31v42H107v-90h223l31 27 59-47-26-22V341l-64-31v52h-87V226h62l52 52 63-52v-22H243V31L180 0v204H0v22h180v136h-73v-37l-62-31v524l62-31h64l1 8 2 16 2 16 2 15 2 14 1 15 3 14 1 12 1 13 1 8h-1l3 14m428-803-48-35-48-29-27-12-28-13-29-11-31-9-32-8-4 9 104 66 45 32 37 33 34 36 43-45 4-19-20 5m225-86-13 16-29 29-33 28-58 42-21 14 3 9 50-14 24-9 22-11 41-22 20-13 19-13 34-30 7-22-10-22-22-7-22 9-12 16M488 564l63-31h232l31 27 58-47-25-22V211l-64-31v31H551l-63-31v384m295-249H551v-83h232v83m0 99H551v-77h232v77M330 515H107V383h223v132m453-2H551v-77h232v77m-353 91v21h202v89H469v20h163v84H446v22h186v95l62-11 16-11-16-9v-64h96l53 53 62-53v-22H694v-84h77l42 48 52-48v-20H694v-89h133l43 47 53-47v-21H430M310 767H107V646h203v121Z"/></symbol><symbol id="𮥝_G" viewBox="0 0 1000 1000" data-size="21"><path transform="matrix(1 0 0 -1 39 972)" d="m262 853-39-80c-26-59-49-110-70-154 39-38 66-68 83-90 17-21 30-43 39-64s13-45 12-72c-4-81-47-127-130-138 3 27-26 50-86 67l4 15c40-13 69-21 86-22 19-2 35 1 47 10 26 18 39 49 38 94 1 29-8 57-25 83-8 14-18 28-31 43-12 15-32 37-59 68 44 115 75 202 92 259H64V141l3-95C68 24 51 9 16 1c3 25 6 86 7 181v691c-4 19-12 34-23 47l11 11 39-39h162l35 43 52-45c9-7 9-12 2-15-12-3-25-11-39-22m567-284H705V420h124v149m-435 0V420h123v149H394m154 0V420h125v149H548m7-359c22-22 43-40 62-54 47 36 93 86 139 151H477c25-39 51-71 78-97m192 679H461v-93h286v93M461 781v-92h286v92H461M264 0v14c50 9 101 21 154 38 59 18 108 40 147 67 8 4 15 9 22 15-23 20-40 38-52 53-32 37-59 77-82 120h-26c-21-1-36-6-43-14l-34 34h408l24 24 46-42c3-3 5-6 4-9-1-2-4-4-9-5-14-3-24-7-30-12-5-6-14-16-25-29-35-45-75-86-119-122 25-16 54-31 87-45 27-10 56-18 85-25 26-6 59-9 100-10V38c-30-3-48-6-53-10-11-5-20-12-26-22-69 16-130 40-182 72-15 10-30 20-43 31-41-28-89-51-145-70C409 19 340 6 264 0m157 944 33-35h286l22 28 41-32c5-4 6-8 5-11s-4-5-11-6l-13-13V722l2-60c-1-11-4-19-10-24-6-4-16-6-29-6v37H461v-3c0-13-3-23-10-29s-18-11-34-14c2 17 4 43 7 80v193c-2 13-7 26-16 37l13 11m-67-318 34-42h428l22 30 43-32c8-6 7-12-4-18l-11-5V444l2-40c-1-12-5-20-11-24-7-5-17-7-28-7v32H394c-1-13-5-23-11-28s-17-9-33-12c1 12 3 29 6 52 1 5 1 9 1 12v149c-2 14-8 27-17 38l14 10Z"/></symbol><symbol id="𮥝_S" viewBox="0 0 1000 1000" data-size="21"><path transform="matrix(1 0 0 -1 59 955)" d="m695 317 3 3h1l28 24 57-48-25-16-15-6-17-28-34-42-37-37-42-34 19-10 44-19 48-14 51-13 106-16-63-61-57 14-56 16-51 21-48 25-41 27-50-26-56-21-60-18-64-12-68-7-2 8 66 19 61 19 54 23 51 25 31 19-41 40-30 40-26 43-19 41h-92v21h374m-507 32 4 22 3 23v23l-3 23-4 25-8 25-12 26-14 26-35 56 1 2-5 3 59 140 18 50 7 23 6 24 1 1H63V38L0 7v887l63-32h147l31 27 58-48-27-16-9-4-23-49-26-48-31-50-38-51-17-19 25-22 25-23 20-26 17-26 14-27 11-27 8-29 3-29 1-30-3-30-61 14m498-53H427l22-29 32-36 35-32 36-28 17-11 15 11 36 33 30 36 27 39 9 17m-498 53 61-14-4-13-4-12-7-12-8-10-9-10-12-7-12-5-12-4-13-2-14-1v31l-51 16v15h51l7 1 6 1 4 1 4 1 2 3 3 2 2 2 2 5 2 5 2 7m165 46-63-32v240l63-32h423l32 27 57-47-26-22V373l-63-31v53H353m99 156h-99V415h99v136m162 0h-99V415h99v136m162 0h-99V415h99v136M363 909l63-31h277l31 26 58-48-26-20V648l-63-32v32H426l-63-32v293m340-153H426v-87h277v87m0 100H426v-80h277v80Z"/></symbol><symbol id="𮥞_S" viewBox="0 0 1000 1000" data-size="21"><path transform="matrix(1 0 0 -1 59 958)" d="m749 21-12 13-13 12-16 12-40 25-75 37-30 13 2 9 33-4 31-5 28-7 27-8 24-9 22-9 22-10 19-12 18-13 17-13 7-23-10-21-24-8-21 10-9 11M201 342l6 22 3 23v23l-4 24-6 24-8 24-12 27-33 54-21 28 1 2-5 3 53 115 21 52 18 48 7 22 1 1H63V31L0 0v887l63-32h163l31 27 58-48-26-16-12-5-10-24-27-48-14-24-34-50-19-25-38-45 27-21 26-24 21-25 19-26 14-26 12-29 8-28 4-30 1-31-4-29-62 14m235-183 41-48 2-18-20 6-41-25-22-11-25-12-55-22-29-10-32-10-34-9-4 9 109 66 45 29 35 29 15 13 14 12 1 1m225 487 6 7 2-2 24 21 58-48-26-16-23-8-21-23-39-35-28-19-3-2h60l31 27 58-48-26-21V186l-63-32v32H376v-16l-63-31v414l63-32h211l3 4 26 41 34 57 1 1H339v22h322m10-356H376v-84h295v84m-470 52 62-14-4-14-5-11-7-12-8-11-10-9-10-6-12-6-13-4-12-2-14-1v31l-53 16v15h53l7 1 5 1 5 1 3 1 2 3 2 2 3 3 2 4 2 5 2 7m470 54H376v-84h295v84m0 104H376v-84h295v84m150 129-71 37-34 20-65 44-30 25-29 26-28 28-25 29-1 2-25-28-31-31-32-28-34-28-36-27-39-24-41-24-44-21-45-19-5 8 115 84 34 27 33 30 56 58 26 31 23 32 21 31 3 4 49-39 7-18-19 1-3-4 95-65 65-36 67-33 35-14 35-14 34-13-61-51M604 761l53-47v-22H409v22h153l42 47Z"/></symbol><symbol id="𮥟_S" viewBox="0 0 1000 1000" data-size="21"><path transform="matrix(1 0 0 -1 41 953)" d="m827 63-31 21-29 22-29 25-27 25-25 28-24 29-21 30-20 31-2 5V31L557 0v244l-37-47-30-30-30-27-33-27-34-23-38-21-38-18-41-15-4 9 36 23 64 50 30 27 27 27 26 28 24 30 21 33 20 33 4 10H293v20h264v116l62-10 16-11-16-9v-86h148l52 53 63-53v-20H621l69-68 54-45 27-20 59-36 29-17 60-29-60-48-32 20M0 892l63-32h143l31 27 58-48-25-16-11-4-10-24-24-48-29-50-34-51-19-25-17-19 25-22 24-23 20-26 17-26 14-26 11-28 7-29 4-29 1-30-4-30-61 14 5 22 2 23v23l-2 24-4 24-8 25-11 26-14 26-34 56 1 2-6 3 58 140 10 26 21 70 1 2H63V36L0 5v887m184-545 61-14-3-13-5-12-6-12-8-10-9-10-12-6-12-6-11-4-14-2-14-1v31l-52 16v15h52l7 1 5 1 5 1 4 1 2 3 2 2 3 2 2 4 2 6 1 7m625 558 63-10 16-11-16-10V473l-1-14-3-13-4-12-6-13-8-10-11-9-12-6-13-4-12-2-14-1v31l-63 16v15h63l6 1 5 1 3 1h2l1 1 1 1 1 2 1 3 1 5v439M559 524l-16 35-20 31-22 30-22 23V424l-62-32v171l-33-51-21-28-22-24-25-24-27-22-7 6 52 85 29 56 13 28 21 59 9 30 4 14H286v22h131v87l-25-5-33-6-34-4-36-5-2 10 200 80 62 28 4-10 43-38 1-17-20 9-5-2-68-20-25-6V714h34l52 53 63-53v-22H479v-29l23-10 19-10 33-25 15-14 15-16 26-35 12-19 1-24-16-18-23-1-19 16-6 17m97 337 64-9 15-11-15-10V521l-64-31v371Z"/></symbol><symbol id="𮥠_G" viewBox="0 0 1000 1000" data-size="21"><path transform="matrix(1 0 0 -1 22 976)" d="m518 237 8 10c42-27 74-51 97-72 19-19 32-38 39-57 5-19 5-32 0-41s-12-13-22-12c-9 0-16 11-20 33-4 21-13 41-27 60s-39 46-75 79m-236 6 18-4c-11-51-24-88-37-112-11-23-26-40-44-52-17-10-32-14-46-12-13 1-22 7-26 18-3 11 3 18 19 22 15 4 34 16 59 35 25 20 44 55 57 105m375-8 8 12c45-25 85-51 119-78 22-20 37-38 46-55 8-19 10-33 6-42-3-10-9-15-19-14-12 3-20 13-25 30-8 21-20 40-36 58-22 26-55 56-99 89M412 344l7 11 78-36c6-3 9-6 10-8s0-4-4-6c-15-5-25-10-30-15V82c-1-20-5-35-11-45-5-10-13-18-24-23-1 0-2 0-3-1-7-3-19-8-34-13-2 17-11 28-26 33-9 4-35 11-80 21l2 14 39-8c43-7 70-8 81-4 12 4 18 21 19 50v194c-1 15-9 29-24 44m141 275v-79h276v79H553m0 96v-81h276v81H553M191 536l2 13c7-1 15-3 26-5 26-5 42-7 48-7 11-1 23 4 35 13 10 9 16 23 18 44 1 21-2 37-8 49-5 13-12 24-19 34-2 3-8 9-17 19-11 13-21 23-29 32 20 45 37 91 51 137H137V383c0-13-5-22-14-27-11-7-23-11-36-14 3 23 5 80 7 171v362c-2 15-9 26-21 35l11 12 48-39h162l27 34 53-40c4-3 5-5 3-7-1-1-6-3-14-4-3-2-7-5-14-8-5-2-8-4-10-5-5-11-14-27-25-47-8-15-22-39-41-73 25-20 45-40 59-59 13-19 21-39 26-60 4-23 2-42-5-58s-16-30-28-41c-15-11-39-21-70-28 0 21-21 38-64 49m244-31 65-41c5-3 7-6 6-8-1-1-3-3-8-4-13 2-23-1-32-10 7-8 18-19 35-33l3-3c3 23 5 53 6 89v201c-39-41-80-76-123-103l-11 10c73 63 131 124 176 185 11 15 20 29 28 43H480c-17 0-33-4-46-12l-31 30h188c19 33 29 57 30 72-2 7-7 14-15 22l8 8 83-31c3-1 5-3 4-6 0-3-2-4-6-5-13-2-24-6-33-13-11-19-20-34-29-47h196l35 39 67-45c7-5 10-8 8-11-2-1-8-2-18-1H621c-14-20-28-39-43-58-11-15-22-28-33-39h268l29 37 49-37c7-3 10-7 10-10s-3-5-10-7l-19-14V445c0-15-4-28-11-39-8-12-30-21-66-28-2 16-11 27-26 32-15 6-37 12-65 18l3 17c40-7 69-11 88-12 13 0 22 2 27 5 5 4 7 25 7 64v23H553v-82c0-11-4-21-12-28-6-5-17-10-32-13 7-6 15-11 23-16 30-22 64-42 102-60 39-17 77-31 114-41 37-11 71-19 102-24 32-5 67-8 105-10v-15c-30-1-50-2-60-5-10-2-19-11-28-26-61 15-118 33-169 53-55 21-105 48-150 81-32 22-63 52-93 90C314 294 165 204 6 159l-6 12c126 51 245 124 356 218 35 31 61 57 76 78 5 8 3 19-4 32l7 6Z"/></symbol><symbol id="𮥡_K" viewBox="0 0 1000 1000" data-size="21"><path transform="matrix(1 0 0 -1 82 940)" d="M373 843h315l38 38 49-36c9-5 11-9 7-13-2-3-9-5-18-5H569c6-4 8-7 7-9-2-4-11-6-25-8v-83h190l38 31 46-38c11-9 14-15 9-19-3-3-14-5-32-6l-67-66-9 7 34 76H551V527c0-11 0-18-1-21-3-4-10-9-22-13-11-3-19-2-22 2-1 3-2 10-2 21l1 6v190H327c-1-28-4-51-10-70-5-14-11-27-18-39-10-13-19-16-28-12-8 5-13 17-13 37 0 7 1 13 5 20 2 4 6 11 11 18 11 13 18 26 22 37 8 19 15 40 18 64l15 1v-41h176v100H388l-68-3-11 21 64-2m86-203v-17H341v17h118m250 2v-17H593v17h116m12-92v-15H595v15h126M328 311h369l43 45 58-41c8-6 10-11 8-16-4-3-10-5-21-5H512c11-6 14-10 10-14s-16-7-35-10c-17-26-35-53-53-81-21-33-36-58-46-75 49 6 91 12 126 17 37 7 94 15 169 25l-24 28c-6 9-12 16-16 20l-20 24 8 8c49-27 90-57 121-91 25-29 38-53 39-71 3-23-1-38-12-44-10-9-22-2-35 19-5 12-12 25-21 39-8 14-19 30-34 50-79-14-152-29-218-45-66-15-123-28-171-38 0-20-2-31-5-34-5-4-14 7-27 33l-19 41 113 16c13 27 26 58 40 93 13 31 26 61 37 90h-94l-68-5-13 22h64m54 116h259l38 39 49-37c8-5 11-8 7-12-3-3-10-5-20-5H398l-67-3-12 19 63-1m78 120v-15H341v15h119M179 834l30 29 45-35c12-10 17-18 16-24-3-6-15-8-37-8L133 583l10-12c40-45 66-78 79-100 22-34 33-70 33-105 0-51-12-89-35-117-19-24-48-41-87-51 0 15-3 26-8 33-7 10-24 21-52 33l3 11c43-16 76-17 99-2 24 14 36 44 36 91 0 32-8 64-24 98-13 33-37 73-70 120l73 236H52V39c1-9 1-17 0-21-3-5-11-10-24-15C17 0 10 0 8 4 7 7 6 16 7 31l1 23v737l-8 69 52-26h127Z"/></symbol><symbol id="𮥢_K" viewBox="0 0 1000 1000" data-size="21"><path transform="matrix(1 0 0 -1 71 954)" d="m551 52 1-14c0-10 0-17-2-22-3-6-12-10-25-13-12-3-19-3-22 1-2 2-3 9-3 21l1 9v285H307l-69-4 1 20h262v36l-5 46 69-15c20-5 27-10 21-16-4-3-14-7-29-12l-6-3v-36h201l41 41 57-40c7-6 10-10 6-13-3-3-9-4-18-4H551V52m-26 706H363v-95h162v95M363 642v-83h162v83H363m0-97v-83h162v83H363m171 274c-6 15-11 26-15 34-8 15-19 28-34 39l11 7c31-16 53-31 68-45 17-14 27-29 29-45 0-6-2-12-4-19-3-7-6-12-10-15h133l40 35 52-34c8-6 11-10 9-14-3-2-10-4-20-4H577c13-5 18-11 15-16s-11-7-22-7v-72h111l36 35 46-35c6-5 8-10 6-14-4-4-10-7-18-7H570v-83h116l40 36 42-30c8-7 11-12 7-16-2-3-8-4-18-4H570v-83h170l37 37 52-36c9-6 11-11 9-15-3-4-9-6-20-6H365v-6l2-14c1-7 0-12-2-14-2-3-7-7-16-12-13-4-22-5-26-1-2 3-3 10-3 20l1 7v287c-9-15-23-29-40-44-13-13-32-29-56-48l-9 10c40 39 74 81 103 128 26 41 52 93 77 154l49-18c17-4 23-9 19-13-3-4-14-7-33-10-9-17-18-33-29-49-9-14-19-29-30-44h190c-4 3-8 7-12 12-3 5-7 12-11 19l-5 13m-91-565c14-8 20-15 17-20s-15-7-35-7c-20-33-49-65-86-96-42-36-91-66-146-89l-5 5c49 33 92 70 129 111 35 38 63 78 85 122l41-26m170 21c42-23 79-50 111-80 38-35 59-65 63-91 3-25 0-41-9-48-7-6-14-2-21 12-14 32-35 66-62 103-30 43-61 75-91 96l9 8M200 836l28 28 45-34c13-10 19-17 17-23s-14-8-36-8L147 586l4-4c45-47 74-82 88-104 24-36 35-72 35-110 0-50-11-88-34-115-20-25-51-43-93-53 0 15-3 27-9 34-9 10-31 21-66 33l4 10c56-16 96-16 119-2 24 14 35 44 35 91 0 32-7 65-22 99-16 33-41 73-75 120l77 234H52V58l1-17c1-10 1-17-1-21-3-4-12-9-25-14C17 2 11 2 9 6 7 8 6 17 7 32l1 23v739l-8 68 53-26h147Z"/></symbol><symbol id="𮥣_S" viewBox="0 0 1000 1000" data-size="21"><path transform="matrix(1 0 0 -1 62 956)" d="m248 328-61 14 4 22 3 23v23l-3 24-4 24-8 25-12 26-14 26-15 28-19 28 1 2-5 3 58 140 17 50 15 47v1H63V31L0 0v887l63-32h146l31 27 58-48-27-16-9-4-11-24-24-48-14-25-31-50-37-51-18-19 26-22 24-23 20-26 17-26 15-26 9-28 8-29 4-29 1-30-3-30m126-34 63-32h287l31 26 58-47-27-21V52l-62-31v52H437V36L374 5v289m350-53H437V94h287v147M187 342l61-14-4-13-5-12-6-12-8-10-9-10-11-6-13-6-12-4-13-2-14-1v31l-51 16v15h51l7 1 6 1 4 1 3 1 3 3 5 4 2 5 4 12m85 4v21h189l-5 6-2 11-2 11-6 21-9 21-6 10-14 21-10 9 5 7 12-6 14-4 11-7 12-8 11-9 10-10 10-10 9-12 8-13 7-13-2-24-1-1h29v142H298v21h244v94H359v22h183v88H309v22h313l5 10 5 17 21 66 8 28 3 14 2 6-2 1 5 13 57-29 11-16-22-4-22-33-19-27-37-46h102l53 52 63-52v-22H604v-88h98l43 46 53-46v-22H604v-94h135l53 52 63-52v-21H604V367h38l5 9 6 13 17 38 7 12 21 50 5 10 52-36 8-18h-23l-27-31-22-20-10-10-12-9-12-8h104l52 53 64-53v-21H272m210 436-1 23-2 11-1 11-3 12-8 21-13 22-9 9 6 7 12-7 12-6 12-8 10-9 11-10 9-11 8-12 14-27 5-16-6-22-19-14-24 6-13 20Z"/></symbol><symbol id="𮥤_S" viewBox="0 0 1000 1000" data-size="21"><path transform="matrix(1 0 0 -1 52 961)" d="m249 328-61 14 4 22 3 23v23l-3 24-4 24-8 25-12 26-14 26-35 56 2 2-6 3 59 140 18 50 7 24 7 23v1H63V31L0 0v887l63-32h147l31 27 58-48-27-16-9-4-23-48-26-49-31-50-38-51-17-19 25-22 25-23 20-26 17-26 14-26 11-28 8-29 3-29 1-30-3-30m30-305v22h276v103H338v22h217v97H416v-16l-62-31v348l62-31h339l31 26 58-46-27-22V256l-62-31v42H617v-97h121l43 47 53-47v-22H617V45h159l53 53 63-53V23H279m-91 319 61-14-4-13-4-12-7-12-7-10-10-10-11-6-13-6-12-4-13-2-14-1v31l-51 16v15h51l7 1 6 1 4 1 4 1 2 3 3 2 2 2 2 5 2 5 2 7m367 50H416V288h139v104m200 0H617V288h138v104M555 517H416V412h139v105m200 0H617V412h138v105m-52 283 56-30 11-16-23-4-22-33-35-46-32-39h122l53 53 63-53v-21H275v21h369l5 14 29 76 16 46 3 13 2 6-1 1 5 12M460 688l-2 12-8 26-16 37-7 12-9 12 7 7 12-10 13-8 12-9 21-22 10-12 18-26 7-14 6-14-3-24-19-15-23 4-15 19-4 25M315 805v20h240v97l62-11 16-11-16-9v-66h123l53 53 62-53v-20H315Z"/></symbol><symbol id="𮥥_S" viewBox="0 0 1000 1000" data-size="21"><path transform="matrix(1 0 0 -1 62 965)" d="m827 341 22-31 17-20v-19l-19 9-20-10-56-26-41-14-20-6-17-3 7-11 26-27 28-25 29-23 32-20 62-33-59-47-39 25-34 26-31 29-28 31-25 35-21 37-18 39-14 40-9 43-4 41h-19l-29-43-27-35-30-33-32-31-2-2V101l111 51 55 23 4-8-44-39-90-65-64-42-2-1-2-20-17 9-14 28-1 1-14 26 16 7v117l-42-27-40-20-41-18-44-15-3 9 74 48 34 25 33 26 31 28 28 29 26 32 25 32 22 34 6 10h-78v-37l-64-31v256l64-31h309l32 26 58-47-26-21V381l-64-32v32H605l33-73 18-36 22-32 5-6 100 71 30 23 14 13M0 931l63-32h180l31 27 58-48-25-16-12-5-26-51-14-26-33-51-38-53-41-47 28-22 27-25 24-26 19-28 16-28 12-29 8-31 4-31v-32l-4-31-60 14 5 24 3 24v25l-3 25-7 25-9 27-14 27-15 27-43 60h1l-6 4 59 121 23 53 19 51 8 23v2H63V38L0 6v925M378 64l29-55-39 51 10 4M189 333l6 1 4 2 6 3 2 2 3 4 2 4 2 5 3 6 60-14-4-13-4-13-7-10-8-11-10-9-11-8-11-6-13-4-13-1h-13v31l-53 15v16h59m545 184H425V401h309v116m90 152 52-47v-21H288v21h492l44 47m-421 42v-16l-62-31v257l62-31h347l32 26 58-47-27-21V701l-63-32v42H403m69 158h-69V732h69v137m142 0h-79V732h79v137m136 0h-73V732h73v137Z"/></symbol><symbol id="𮥦_K" viewBox="0 0 1000 1000" data-size="21"><path transform="matrix(1 0 0 -1 86 939)" d="m168 834 28 28 47-34c12-10 17-18 15-25-2-5-14-8-36-7l-96-213 17-21c35-42 59-74 71-95 20-33 30-67 30-102 0-49-11-87-34-115-20-24-48-41-85-53 0 16-2 27-7 34-7 9-22 20-46 33l2 10c39-15 69-15 91-1 23 15 35 45 35 90 0 31-8 64-23 99-13 31-35 72-67 120l68 235H52V40c0-11 0-18-1-22-3-4-11-9-25-13C16 0 10 0 8 5 7 7 6 15 7 30l1 23v738l-8 68 52-25h116m544 41 40-33c14-12 19-21 16-27s-13-9-30-10V635c2-9 2-16 0-20-2-5-9-9-20-12-14-6-22-6-25-2-2 3-3 11-1 24l1 24H350v-22c0-13-1-22-3-26-3-6-9-10-19-13-14-4-23-4-25 1-2 3-2 10 0 21l2 17v213l-4 39 47-35h330l34 31M607 666h86v164h-74c7-4 10-7 8-12-3-6-10-11-20-17V666m-44 164h-73c8-5 10-9 7-13-3-6-10-11-21-16V666h87v164m-131 0h-82V666h82v164m-53-557h98v109h-98V273m142 0h94v109h-94V273M248 410c58 45 103 101 135 166 12 21 21 42 28 60l53-20c12-8 15-16 9-24-9-2-19-3-31-3-16-30-32-54-49-71h339l36 35 40-37c15-15 21-25 19-32-2-6-12-11-30-14-4-157-12-267-26-332-14-66-48-109-100-128-5 17-13 31-26 42-12 11-36 24-72 38l4 9c42-14 74-20 97-18 11 0 24 11 38 31 11 28 20 71 28 128 3 61 5 148 5 261H487l34-11c17-5 25-10 24-16-1-5-9-9-23-12v-64h85l28 27 29-18c16-13 22-22 20-27-3-4-11-7-25-10V248c1-7 1-12 0-15-2-6-9-11-20-17-14-5-22-7-25-3-2 2-2 8-1 18l2 15v11h-94V155l88 16-18 18c-9 8-19 17-32 28l3 7c22-9 44-20 66-32 22-14 38-26 47-35 4-6 6-14 8-25 2-9 1-16-1-23-3-8-7-11-11-11-7 0-15 6-24 17l-11 17-13 19-286-61c-5-17-11-26-17-27-5-2-12 5-20 21l-19 46 196 22v105h-98v-22c0-7-1-12-2-16-9-6-16-9-23-8-11-2-17-1-19 1-2 0-3 5-2 13l2 11v145l-2 47 51-30h93v104h-98c-11-14-29-32-56-54-26-22-50-38-70-50l-5 12Z"/></symbol><symbol id="𮥧_K" viewBox="0 0 1000 1000" data-size="21"><path transform="matrix(1 0 0 -1 61 949)" d="M397 774h348v78H397v-78m0-87h348v72H397v-72m0-32c0-8 0-14-1-17-2-5-8-9-16-12-12-4-19-4-23 1-2 3-2 10-2 21v199l-1 51 45-31h332l35 30 33-30c17-15 21-25 14-30-5-3-14-5-27-5V668c1-8 0-14-1-18-3-5-10-10-19-14-11-2-18 0-21 4-1 3-1 10-1 21l1 11H397v-17m-95-35 51-28h432l27 29 38-32c10-9 14-15 12-19s-11-6-27-7V457c1-7 0-12-1-15-3-4-10-7-21-11-8-2-14-2-16 2-2 2-3 8-3 17l1 1H343v-11c0-8 0-14-2-16-1-4-7-7-16-9-11-2-17-2-19 0-3 2-4 8-4 17l2 9v129l-2 50m41-153h126v108H343V467m166 0h131v108H521c4-4 5-9 2-12s-8-4-14-4v-92m172 0h114v108H695c4-5 4-9 2-11-2-3-8-4-16-4v-93M563 342c-4 19-9 33-14 42-7 15-18 29-33 41l6 8c29-12 51-26 66-41 17-16 25-33 24-51 0-7-1-13-4-18-2-5-5-9-8-11h180l37 49 56-44c5-4 6-9 4-13-1-5-6-7-15-7H544c7-5 9-9 7-12-3-2-12-4-26-4 0-9-1-18-3-28 0-6-1-15-2-27l-1-8h224l33 35 37-32c16-15 22-25 19-30-2-3-13-5-33-5-7-65-20-110-39-136-18-24-49-41-94-50 0 17-6 30-20 39-14 10-42 22-83 35v9c47-9 82-14 104-15 29 0 48 5 56 16 10 19 18 38 24 58 5 17 8 37 10 60H514c-20-66-54-113-102-141-30-19-78-34-145-43l-3 10c37 7 65 17 85 29 19 11 39 25 59 43 20 19 36 44 48 75 13 31 23 72 28 122H365l-58-5-11 23 57-3h227c-4 2-7 6-10 10-3 5-5 11-7 16v4M200 835l29 28 45-34c13-10 18-17 16-22-2-6-14-9-36-9L148 585l4-4c44-47 73-81 88-103 24-36 35-73 35-111 0-49-11-88-34-115-21-25-52-42-93-53 0 16-3 27-9 34-10 10-32 21-66 34l3 9c56-15 96-16 120-2s35 44 35 91c0 32-7 65-23 99-15 34-40 74-75 120l77 234H52V58l2-18c1-10 0-17-2-20-3-5-11-10-24-15C18 1 11 1 9 5 7 7 6 16 7 31l1 24v738l-8 68 54-26h146Z"/></symbol><symbol id="𮥨_S" viewBox="0 0 1000 1000" data-size="21"><path transform="matrix(1 0 0 -1 63 962)" d="m601 45-41 43-20 23-19 25-16 26-16 27-14 29-14 30-3 10V25L405 0v221l-9-17-20-32-21-28-23-28-24-24-25-23-27-18-29-17-6 8 42 48 20 24 18 27 17 28 16 28 16 32 13 32 13 34 5 15H235v21h170v119l53-11 14-10-14-9v-89h55l51 53 64-53v-21H458v-3l49-70 38-47 18-21 41-37 20-18 21-14 13-12-57-43m193 873 63-10 16-11-16-9V89l-1-13-2-13-4-13-6-12-9-11-11-8-11-7-13-4-14-2-13-1v31l-84 16v15h84l6 1 5 1 5 2 2 2 1 1 1 4 1 5v835m-133-78 53-11 13-11-13-8V207l-53-26v659M133 333l6 30 2 25v23l-1 25-3 24-5 25-16 52-22 54 2 2-6 2 14 58 8 29 21 77 6 25 5 23 3 23v4H63V314h41l7 1 5 1 5 1 2 1 5 4 3 6 2 5m269 207-5 18-3 16-6 16-19 45-4 9V428l-52-27v143l-24-47-17-26-17-26-20-23-7 5 39 112 8 29 15 59 6 30 5 31 3 19h-73v22h82v89l-8-3-23-5-47-11-4 8 22 12 60 37v3h3l42 28 38 28 14-23 26-27v-18l-20 8-34-14-17-6V729h19l33 36 42-36v-22h-92l-2-7v-27l15-10 13-11 12-12 12-14 21-31 10-18 10-17 8-20-2-23-19-17-23 3-17 18-3 19m174 384 47-10 12-11-12-8V468l-2-11-2-10-3-10-5-9-6-8-8-8-10-5-10-3-11-1v24l-44 12v11h44l3 1h1l1 2 1 2 1 4 2 5 1 8v452m-106-44 57-11 15-10-15-9V530l-57-29v379M196 330l-3-13-4-12-5-12-8-11-9-10-11-7-12-6-13-4-13-2-14-1v31l-41 16V31L0 0v887l63-32h87l32 27 57-48-26-16-8-3-17-46-19-49-24-51-29-52-14-21 20-22 19-24 15-26 14-26 10-26 8-28 5-28 3-28 2-29-2-29m0 0-4 1 4-1Z"/></symbol><symbol id="𮥩_S" viewBox="0 0 1000 1000" data-size="21"><path transform="matrix(1 0 0 -1 45 960)" d="m248 338-62 13 5 24 2 24v25l-2 25-4 26-8 26-12 25-14 29-15 28-20 29 2 1-5 3 58 146 17 51 15 48v3H63V32L0 0v917l63-31h146l31 26 58-48-27-15-8-4-24-51-26-51-31-52-18-27-36-47 25-22 24-25 20-26 17-26 15-29 10-29 7-29 4-31v-30l-2-32m436-120H227v21h457v84l62-10 17-11-17-9v-54h48l53 53 62-53v-21H746V92l-1-13-2-14-4-11-7-13-8-11-10-8-13-6-13-4-12-3-14-1v32L558 56v15h111l5 1 5 2 2 2 1 5 1 5 1 6v126M456 84l-5 13-10 22-13 23-26 34-11 10 5 7 14-6 14-6 14-7 13-8 25-19 21-22 10-13 9-13 2-24-17-18h-23l-19 15-3 12M186 351l62-13-4-13-5-12-6-11-7-11-10-10-11-7-13-5-12-4-13-2-14-1v31l-51 16v16h58l6 1 4 1 3 2 3 1 2 3 2 3 3 4 2 5 1 6m228 570 54-33 10-16-20-2-32-58-46-73-21-29 20-4 16-10-16-9V328l-63-31v357l-42-49-29-31-31-28-7 6 90 140 41 72 38 74 35 77 3 6m166-456 43-47 4-19-21 5-34-25-37-24-40-22-21-11-45-18-5 8 85 78 30 29 36 40 5 6m224-133-9 13-9 13-21 26-27 23-29 26-18 9 4 10 40-12 19-6 35-18 17-11 15-11 15-12 27-28 5-24-14-19-22-5-20 12-8 14m32 212 62-53v-21H421v21h362l53 53M494 906l64-32h199l31 26 59-46-27-22V560l-63-32v32H558l-64-32v378m263-247H558v-79h199v79m0 100H558v-79h199v79m0 95H558v-74h199v74Z"/></symbol><symbol id="𮥪_K" viewBox="0 0 1000 1000" data-size="21"><path transform="matrix(1 0 0 -1 68 946)" d="M258 817c6-7 10-14 10-18s-5-7-14-9-17-4-25-5L114 581c84-90 123-177 117-259-3-60-26-103-67-128l-18-8c-7-2-12-3-16-3-7 0-11 5-13 16-1 12-6 19-14 23l-45 15 3 13 51-7c25-2 43 1 54 12 8 6 16 20 23 42 3 15 4 30 4 47 0 82-27 152-83 211-10 11-15 19-15 24 0 2 3 12 10 30l84 204H49V36c-2-10-10-17-23-21-5-2-9-3-11-3-6 0-9 6-10 17v69L0 858l52-24h133l17 21c6 7 9 10 10 10s5-4 15-12l31-36m305-82-4-12H396V605h55l14 19c6 7 11 11 13 11s7-5 14-14l32-37c4-4 5-7 5-10 0-6-9-11-27-14V416c1-8 2-14 2-20 0-9-8-18-25-25-7-3-12-5-16-5-3 0-5 3-5 8v22h-62v-60c42-18 70-35 85-49 21-17 32-40 34-67 2-24-5-36-19-36-8 0-15 7-19 22-16 45-43 82-81 112V52c0-22 0-33-1-34-1-2-8-7-20-13-9-3-15-5-18-5-2 0-4 2-4 5-1 2-1 8 0 17 0 15 1 26 1 35v250C284 206 213 126 141 65l-9 12c85 78 156 185 212 319h-55c2-10 1-17-2-21-2-4-9-8-18-14-10-5-17-7-20-7-4 0-6 4-6 12 0 5 1 15 3 30v190l-5 41 43-22h70v118H235v20h119v109l-3 41 46-17c19-6 28-11 28-17 0-5-10-11-29-17v-99h73l22 35c7 10 13 15 16 15 2 0 7-5 15-14l41-44M458 418v167h-62V418h62m-104 0v167h-65V418h65m509 317-5-12H706V605h56l12 19c7 7 11 11 13 11 3 0 8-5 16-14l31-37c4-4 6-7 6-10 0-6-9-11-27-14V416c1-8 1-14 1-20 0-9-8-18-25-25-7-3-12-5-16-5-3 0-4 3-4 8v22h-63v-60c42-18 70-35 85-49 20-17 31-40 33-67 2-24-4-36-17-36-9 0-16 7-21 22-15 45-42 82-80 112V52c0-22-1-33-2-34-1-2-7-7-18-13-10-3-16-5-19-5s-4 2-5 5c-1 2-1 8 0 17 1 15 1 26 1 35v250C594 206 523 126 450 65l-9 12c86 78 156 185 212 319h-53c2-10 1-17-2-21s-9-8-19-14c-10-5-16-7-19-7-4 0-6 4-6 12 0 5 1 15 3 30v190l-5 41 43-22h68v118h-88v20h88v109l-3 41 47-17c18-6 27-11 27-17 0-5-9-11-28-17v-99h63l22 35c8 10 13 15 16 15 2 0 7-5 15-14l41-44m-94-317v167h-63V418h63m-106 0v167h-63V418h63Z"/></symbol><symbol id="𮥫_S" viewBox="0 0 1000 1000" data-size="21"><path transform="matrix(1 0 0 -1 44 975)" d="m819 65-31 23-59 48-26 27-26 28-24 30-22 31-20 33-3 6V31L546 0v255l-38-50-29-31-32-29-33-27-35-25-37-22-39-18-41-16-4 9 35 24 65 51 31 27 28 29 25 29 25 32 21 33 21 35 6 10H278v22h268v120l62-11 16-9-16-10v-90h153l52 53 63-53v-22H610l72-70 26-24 56-44 58-38 90-47-59-48-34 20M245 343l-61 12 5 24 2 22v25l-2 23-4 25-8 24-11 26-14 27-34 56 1 1-6 3 58 142 17 50 14 47 1 2H63V44L0 13v891l63-31h143l31 26 58-47-25-16-11-4-10-25-24-48-29-50-34-51-19-26-17-20 25-20 24-25 20-25 17-26 14-28 11-27 7-29 4-29 1-30-4-30m-87-14 5 1 5 2 4 1 2 2 2 2 3 3 2 4 2 5 1 6 61-12-3-13-5-13-6-11-8-11-9-9-12-8-12-5-11-4-14-2h-14v31l-52 15v16h59m721 205-1-13-2-13-4-13-7-12-9-10-10-9-12-7-13-4-12-3h-14v31l-53 16v16h53l7 1 4 1 4 1 2 1v1h1l1 2 1 3v5l1 6h63m-410 92-2 16-7 27-4 12-8 22-8-24-11-24-14-21-16-19-17-15-20-12h-1V486l-62-31v383l62-32h41v69H295v21h167l53 53 63-53v-21H465v-69h48l26 26 53-47-27-15V534h-52v55l-3-2-24 3-15 19-2 17m96-92-1-12-1-11-2-12-4-10-7-10-8-8-10-7-10-5-11-3-11-1v26l-53 14v13h53l3 1h2l2 1 1 1 1 1 2 4 1 4 1 6v8h52m250 53-24 3-15 18-2 17-3 16-7 27-4 13-5 11-6 11-1 2-10-26-12-25-15-21-18-19-18-14-21-13-8-3V483l-52-26v375l52-26h55v69H581v21h193l52 53 64-53v-21H764v-69h52l32 26 57-47-26-21V534h-63v53h-1M701 785h-55V606l10 13 12 17 10 18 8 19 6 21 5 24 3 24 1 28v15m-299 0h-41V616l12 19 9 18 8 20 5 20 3 24 3 25 1 28v15m111 0h-49l-2-19-6-32-1-5 14-8 10-9 11-12 10-12 9-14 4-6v117m303 0h-53l-2-19-6-33-1-3 4-1 12-7 11-10 12-11 20-25 3-7v116Z"/></symbol><symbol id="𮥬_S" viewBox="0 0 1000 1000" data-size="21"><path transform="matrix(1 0 0 -1 52 955)" d="m835 33-65 33-32 19-57 40-51 45-24 24-21 25-5 8V31L517 0v197l-17-17-28-26-31-22-32-23-34-19-36-19-37-15-40-14-42-12-4 10 73 41 65 43 57 45 26 24 22 26 20 24H229v21h288v54l63-10 16-11-16-9v-24h172l49 49-14 7-7 13-8 13-18 24-11 13-24 23-30 25-15 9 3 9 19-6 20-5 17-6 18-8 17-10 31-20 14-11 26-27 5-23-13-20-18-4 54-45v-21H589l64-44 55-33 59-30 31-14 98-39-61-50M182 348l5 22 2 23v23l-2 24-5 24-8 25-10 26-14 26-15 27-18 29 1 2-5 3 65 166 15 47 6 23 1 2H63V37L0 6v887l63-32h141l31 27 58-48-26-16-10-4-11-24-23-48-29-50-33-51-19-25-17-19 25-22 24-23 19-26 17-26 14-27 10-28 7-28 5-29v-30l-3-30-61 14m0 0 61-14-3-13-5-12-6-12-8-10-10-10-11-6-12-6-12-4-13-2-14-1v31l-52 16v15h52l7 1 6 1 4 1 3 1 3 2 4 5 2 4 2 6 2 7m221 561 54-33 10-16-20-2-32-55-46-71-24-34v-1l24-4 17-10-17-10V331l-62-31v349l-42-46-30-30-31-27-7 7 90 135 41 70 38 72 32 69h-1l6 10m160-446 43-45 5-20-21 5-33-25-36-24-20-10-41-21-44-16-5 7 68 60 44 44 27 28 8 11 5 6m249 82 63-53v-21H405v21h354l53 53M481 895l64-33h190l32 27 57-47-26-22V555l-63-32v32H545l-64-32v372m254-241H545v-79h190v79m0 94H545v-72h190v72m0 94H545v-72h190v72Z"/></symbol><symbol id="𮥭_S" viewBox="0 0 1000 1000" data-size="21"><path transform="matrix(1 0 0 -1 64 965)" d="M468 164h1l-5-25-9-25-13-21-15-21-19-16-20-16-24-13-26-10-28-8-31-6-3 9 28 13 22 15 21 16 17 14 14 16 11 16 7 15 6 17 3 16 1 19v52H219v21h537l52 53 63-53v-21H692V31L629 0v221H469v-55l-1-2M201 350l6 22 3 23v23l-4 23-6 25-8 24-12 27-33 53-21 29 1 2-5 3 53 115 21 52 18 47 7 23 1 1H63V39L0 8v887l63-32h163l31 27 58-48-26-16-12-5-10-24-27-48-14-24-34-50-19-26-38-45 27-20 26-24 21-25 19-26 14-27 12-28 8-28 4-30 1-31-4-29-62 14m0 0 62-14-4-14-5-11-7-12-8-11-10-9-10-7-12-5-13-4-12-2-14-1v31l-53 16v15h53l7 1 5 1 5 1 3 1 2 3 2 2 3 3 2 4 2 5 2 7m166-45-63-32v283l20-11v340l64-31h114l3 9 6 18 4 15 2 8 2 14-2 2 4 11 54-34 10-16-29-3-21-16-14-8h183l31 26 58-48-26-20V575l-63-31v31H388l-62-30 41-21h351l32 26 58-47-27-21V305l-63-32v32H367m144 100H367v-80h144v80m207 0H574v-80h144v80m-207 98H367v-76h144v76m207 0H574v-76h144v76m-14 162H388v-68h316v68m0 84H388v-63h316v63m0 83H388v-62h316v62Z"/></symbol><symbol id="𮥮_S" viewBox="0 0 1000 1000" data-size="21"><path transform="matrix(1 0 0 -1 40 962)" d="m0 887 63-32h129l32 27 58-48-26-16-11-4v-1l-9-23-22-48-27-49-33-50-33-47 24-21 22-24 19-25 16-26 13-26 10-29 6-28 4-29 1-30-3-29-29 6-32 6 5 23 2 23 1 24-2 24-5 24-8 24-9 27-27 53-17 28 1 2-5 3 52 140 16 49 12 47v2H63V31L0 0v887m602-126h169l31 26 57-47-25-21V593l-52-26 35-28-26-21V314l-62-31v31H504l28-20 8-18h-20l-6-7-6-7h170l8 9 2-1 23 18 58-47-27-15-21-9-22-24-38-34-40-30 46-18 44-12 48-11 51-7 111-10-63-63-58 8-55 12-51 15-47 19-42 21-28 19-51-26-50-20-54-18-57-14-59-8-63-5-1 10 61 14 55 17 53 19 49 21 47 23 29 19-32 34-24 34-9 23-31-26-29-21-64-39-37-18-39-17-42-14-4 9 103 69 29 22 27 23 24 23 22 23 19 22 16 23 7 10h-88v-36l-63-32v326l-22-10v165l-52-37-37-22-5 8 83 85 45 51 37 45 15 22 12 20 8 16h-1l6 9 52-36 9-17-21-1-16-20h206l4 4 4 7 2-2 21 17 58-47-27-16-38-15-23-16-24-13-15-8m59-520H488l-8-7 18-18 28-27 32-24 12-8 18 13 36 31 32 34 5 6M172 341l61-12-3-14-4-11-6-12-8-11-10-9-11-7-12-6-13-4-13-2-13-1v31l-52 16v15h52l6 1 6 1 4 1 3 1 3 2 2 2 2 3 4 10 2 6m557 52H384v-57h345v57m0 73H384v-53h345v53m0 73H384v-53h345v53m-19 65-22 5-7 7-8 7-10 8-22 15-15 8-50 26-1 1-12-11-20-14-23-12-27-9-29-9-33-7-36-4-2 9 33 13 29 13 25 14 21 13 17 13 12 14 8 13 5 12 2 10-184 1V593l-21-11 44-22h345l31 26 11-9v163H605l-1-13-10-22-9-13h15l38-5 33-7 15-5 13-4 14-6 12-6 12-20-6-24-21-11M343 761h236l4 4 8 12 15 23 21 29H415l-26-27-24-23-22-18Z"/></symbol><symbol id="𮥯_S" viewBox="0 0 1000 1000" data-size="21"><path transform="matrix(1 0 0 -1 56 952)" d="m234 329-61 12 5 23 2 23v24l-2 24-5 24-7 24-10 27-12 25-32 56 2 2-6 3 22 59 30 81 17 49 7 25 5 22 1 2H63V31L0 0v887l63-32h130l32 27 57-48-26-16-9-4-1-1-10-23-9-23-39-74-16-26-35-51-16-19 24-22 22-23 20-26 15-26 14-26 10-29 6-28 4-29v-30l-2-29m565 112H571v21h202l53 53 63-53v-21h-33V88l-1-12-1-13-3-11-6-11-7-11-10-9-10-6-12-4-12-3-13-1v29l-73 15v13h73l5 1h4l3 2 2 2 1 3 2 4 1 5v360m-320 0H260v21h184l53 53 63-53v-21h-35V77l-2-11-2-10-2-10-5-9-7-9-8-7-10-4-10-3-10-2v24l-44 12v12h47l2 2 3 5 1 6 1 15v353m-196-44 58-29h47l23 27 50-48-25-13V148l-48-23v56h-47v-64l-58-29v309m449-2 53-48-26-16V148l-53-26v59h-53v-64l-52-26v304l52-27h53l26 27m-26-48h-53V201h53v146m-318 0h-47V201h47v146m-215-6 61-12-4-14-3-11-7-12-8-11-10-9-11-7-11-6-13-4-13-2-13-1v31l-53 16v15h53l6 1 5 1 5 1 3 1 3 2 2 2 2 3 2 4 4 12m518 489H337v21h362l53 52 62-52v-21h-60V543l-3-13-4-12-7-13-9-10-9-9-12-7-13-3-13-2-14-1v31l-105 16v15h112l5 2 3 1 3 1v1l1 2 1 3v5l1 7v273m-301-24 62-32h96l31 27 59-47-27-22V598l-63-32v52h-96v-36l-62-31v255m158-52h-96V640h96v114Z"/></symbol><symbol id="𮥰_S" viewBox="0 0 1000 1000" data-size="21"><path transform="matrix(1 0 0 -1 44 964)" d="m0 887 63-32h120l32 27 57-48-26-16-9-4-20-46-24-49-28-51-16-25-17-27-16-19 24-22 21-24 19-26 14-26 13-26 10-28 6-28 4-29 1-30-3-29-17 3-3 1-42 8 5 23 3 23v24l-2 24-4 24-7 25-10 26-10 25-14 28-16 28 1 2-5 3 48 139 16 50 6 24 6 22v3H63V31L0 0v887m575 6 64-33h151l32 27 58-47-26-22V320l-64-32v64h-10V120h-63v232h-12l-7-49-10-54-16-49-19-44-22-39-27-34-29-29-33-24-36-18-39-11-4 9 33 20 29 23 26 25 22 29 20 33 15 36 14 41 10 45 4 25-61-30v636m-77-696-16 32-8 16-18 27-18 25-15 16V36L360 5v229l-12-25-20-33-19-31-22-30-24-25-26-25-7 6 34 61 29 61 14 34 11 34 11 35 11 37 8 38 4 23H239v20h121v142l63-10 15-11-15-10V414h26l53 53 62-53v-20H423v-62h1l15-5 16-7 16-9 14-10 29-26 25-30 13-16 4-24-15-19-24-3-19 14M801 36l-14 1-13 2-12 5-12 7-11 8-9 10-6 12-4 13-2 13-1 13h63v-6l1-5 1-5 3-1 4-2 5-1h56l30 130h11l-11-130 18-13 13-20-13-18-18-13h-79M163 341l62-12-3-13-4-12-7-12-8-11-9-9-11-7-12-6-13-4-12-2-14-1v31l-42 16v15h42l7 1 6 1 3 1 3 1 2 2 2 2 3 3 2 4 1 5 2 7m480 11h-4v-48l1 7 3 41m147 168H639V372h151v148m0 162H639V540h151v142m-323 76 57-28 12-14-21-5-14-26-20-32-21-30-13-16-13-16-7-9h27l53 53 63-53v-20H229v20h186l7 17 5 19 12 36 11 34 8 33 4 14 2 11h-1l4 12M320 612l-3 32-4 28-3 13-8 24-4 13-5 11-7 10 7 7 11-8 10-8 11-9 10-11 10-13 9-13 7-14 8-15 7-16 6-18-5-23-20-14-23 5-14 19m470 228H639V703h151v137m-551-79v21h121v147l63-11 15-10-15-10V782h21l52 52 64-52v-21H239Z"/></symbol><symbol id="𮥱_K" viewBox="0 0 1000 1000" data-size="21"><path transform="matrix(1 0 0 -1 55 952)" d="M342 799h215v64l-3 42 51-17c16-6 23-10 21-14-1-4-11-8-30-14v-61h155l40 50 53-45c8-7 10-12 7-16-2-3-8-5-18-5H355l-58-3-11 22 56-3m208-146 36-10 64 137 38-18c11-7 16-12 15-14-2-3-13-4-32-3l-74-106 6-2c18-5 23-10 13-15-5-3-14-6-26-9V512l1-16c0-9 0-16-1-19-3-6-9-10-18-13-10-2-16-2-18 1-3 1-4 7-3 16l1 13v118l-2 41m205-150 57-16c15-4 20-9 15-14-3-3-11-6-22-9l-6-2V53c1-10 1-17-1-20-3-5-10-10-21-13-9-2-14-2-16 1-2 2-3 7-2 16l1 14v252H596c11-5 15-10 11-15-2-4-8-6-18-8V54c1-9 1-15 0-18-3-6-9-11-19-15s-17-4-20 1c-2 3-3 10-2 21l1 6v254H397c-9-71-27-129-53-175-24-42-52-77-85-106l-7 8c40 47 70 99 88 157 20 65 28 164 22 296l40-11c19-4 28-8 28-14s-9-10-28-14v-24h358v41l-5 42m5-184v85H401l-3-85h362M660 707l40-17 2-1c42 34 73 60 91 78l28-25c9-10 12-16 11-20-3-6-14-4-35 6l-45-26c16-51 35-93 60-124 24-30 49-52 77-65l1-12c-8 1-16 0-27-3-9-3-14-8-15-16-14 14-26 28-35 43-10 16-18 31-25 45l-136-66c3-15 3-25-1-28-4-4-11 3-22 20l-19 33 52 16v105l-2 57m35-152 85 31c-9 19-17 37-23 53-7 20-13 40-18 59l-23-16c4-4 4-7 0-9-3-2-10-4-21-7V555M497 767c27-28 44-47 52-57 12-17 15-31 12-43-4-11-10-17-16-19-7-2-13 6-19 25l-3 8c-3 11-8 22-13 32-8 18-18 37-30 56l9 6 8-8m-166-71h115l27 26 31-27c11-9 16-16 16-20-2-5-13-7-32-6-5-59-18-105-40-138-18-26-40-39-66-39l-5 18c-1 10-9 20-23 28l1 9c23-4 38-5 46-4 12 1 21 6 28 16 6 15 12 32 16 49 5 20 8 44 9 72h-60c7-7 10-13 8-17-1-4-10-6-27-5-11-48-23-84-36-109s-36-53-68-84l-6 8c24 31 41 60 50 88 11 27 20 67 29 119h-5l-51-2-8 22 51-4m171-475c15-11 22-18 21-23 0-4-9-6-26-5-19-36-44-70-75-102-22-24-48-47-78-70l-5 12c25 26 47 52 66 78 25 35 47 77 68 126l29-16m132-4c34-26 58-47 72-63 16-17 25-33 25-48 0-16-4-27-12-34-9-7-16-1-21 17l-1 3c-5 17-11 31-18 42-12 21-29 45-52 72l7 11M200 834l29 28 45-34c13-10 18-17 16-22-2-6-14-9-36-9L148 584l4-4c44-47 73-81 88-103 24-36 35-73 35-111 0-49-11-88-34-115-21-25-52-42-93-53 0 16-3 27-9 34-10 10-32 21-66 34l3 9c56-15 96-16 120-2s35 44 35 91c0 32-7 65-23 99-15 34-40 74-75 120l77 234H52V57l2-18c1-10 0-17-2-20-3-5-11-10-24-15C18 0 11 0 9 4 7 7 6 15 7 30l1 24v738l-8 68 54-26h146Z"/></symbol><symbol id="𮥲_K" viewBox="0 0 1000 1000" data-size="21"><path transform="matrix(1 0 0 -1 64 950)" d="m152 834 30 28 46-34c11-10 16-18 14-25-2-5-14-8-36-7l-91-213 18-21c32-42 54-74 65-95 20-33 31-67 31-102 0-49-12-87-35-115-19-24-46-41-80-53 0 16-2 27-7 34-5 9-21 20-45 33l1 10c36-15 64-15 86-1 24 15 36 45 36 90 0 31-8 64-24 99-12 31-32 72-60 120l61 235H54V40c0-11 0-18-1-22-3-4-11-9-26-13-9-5-15-5-17 0-2 2-2 10-1 25l1 23v738L0 859l54-25h98m234-466h115v56H386v-56m-47 87 45-14h106l29 19 38-30c10-7 14-13 12-17-1-3-8-6-22-9v-36c1-9 0-14-1-18-3-5-11-10-23-14-11-2-18-1-21 1-2 1-2 4-1 9l1 7H386v-4c0-6-1-9-2-10-3-4-9-6-20-8-11-3-18-3-20 1-2 2-3 7-1 16l1 9v58l-5 40m40 33h140l33 35 35-32c8-6 10-11 7-15-3-3-9-5-20-5H327l-10 20 62-3m-77-146 52-29h174l30 25 31-25c14-12 21-20 20-23 0-4-8-9-25-14V126c0-24-5-43-15-55-10-14-24-23-43-25-2 7-6 14-13 21-6 5-16 10-31 18l5 11 3-2c6-2 11-4 15-4 5-1 11-1 18 0 7 6 11 12 13 18 1 4 2 10 2 18v171h-49c11-6 17-10 17-13-1-3-7-7-19-12v-22c0-8 2-13 5-16 3-1 8-2 16-2 0 4 2 8 4 12 0 2 1 5 3 10l7 18h6v-42c7-4 10-10 9-17-1-6-3-9-9-9-8-2-16-3-24-3s-19 1-33 3c-8 0-14 5-17 12-2 6-3 16-3 29v52h-31c18-3 27-7 27-12 2-5-4-11-17-20-6-12-14-24-25-36-9-12-23-25-42-40l-5 5 1 3c9 18 16 32 22 45 10 21 16 40 17 55h-48V174h116l26 20 31-20c5-5 7-9 6-11 0-3-4-5-10-5h-68c12-2 17-5 17-9-1-4-6-8-17-12V98c1-10 1-17 0-19-2-5-7-9-14-12-15-3-24-3-27 0-1 1-1 6-1 14l1 9v68h-60V89c1-10 1-16 0-19-4-5-11-9-24-14-11-4-18-2-20 6-1 5 0 17 2 34v186l-6 60m430 500c31-22 53-41 67-56 17-20 26-41 26-62 0-26-8-41-23-44-15-1-24 12-28 40-3 21-9 39-15 55-7 17-18 37-33 59l6 8M532 614c-2-15-2-26-1-33 2-7 4-13 9-18 12-8 16-16 14-24-3-8-11-12-26-12h-61c-29 0-53 0-71 1-15 3-25 8-30 17-4 9-7 23-7 43v16l-63-6v-87c0-108-8-194-23-255-19-68-53-127-102-179l-6 5c34 57 58 117 71 179 11 64 17 147 18 249v160c0 35-1 65-2 87l48-19h99v101l-3 61 55-11c15-2 22-6 21-12-2-6-11-12-28-18v-45h52l23 29 29-25c10-8 15-14 14-17-2-2-11-3-26-3h-92v-60h75l38 28 32-28c11-9 15-16 11-22-4-5-14-7-31-5l-67-51-2 5 28 51H298l-2-102 63 5v51l-1 42 49-6c14-5 21-9 21-14-1-4-9-12-25-22v-46l27 5 23 41 48-32c3-4 4-8 3-10-1-4-5-6-12-8l-89-10v-22c-2-5-2-10 0-14 3-5 8-8 15-11h69c2 4 5 10 8 17 7 13 16 32 28 58l10-5-1-19 52-4h77c2 38 2 81 1 129-1 30-2 76-5 139l-1 23 51-6c18-2 26-6 24-13-1-6-10-12-26-17 0-59 0-103-1-131 0-47-1-88-2-124h72l34 36 42-27c9-7 13-13 10-19-3-5-11-8-25-8H702v-85c24-120 50-214 78-283 25-60 55-107 91-143v-9c-15 0-28-3-38-9s-16-14-20-23c-31 60-54 116-70 170-19 67-35 152-46 255-9-126-23-220-42-282-21-62-56-120-107-173l-10 5c46 70 76 140 92 210 18 80 29 203 31 367h-68l-53-3-8 25Z"/></symbol><symbol id="𮥳_S" viewBox="0 0 1000 1000" data-size="21"><path transform="matrix(1 0 0 -1 58 953)" d="m235 329-62 12 5 23 3 23v24l-2 24-5 24-7 24-10 27-12 25-32 56 1 2-6 3 23 59 39 107 20 70 1 2H63V31L0 0v887l63-32h131l32 27 57-48-26-16-9-4-21-47-25-49-30-51-16-24-35-47 25-21 22-23 19-26 16-26 13-26 11-29 6-28 4-29 1-30-3-29m490 59H578v21h147v115l63-10 16-10-16-10v-85h19l23 31 31-31v-21h-73V94l-1-13-2-14-5-11-7-13-7-11-11-8-12-6-13-4-13-3-13-1v32l-73 16v15h79l5 1 5 2 2 2 2 5 1 5v300M533 164l-76 116V52l-62-31v251l-20-37-43-68-51-71-30-36-8 5 60 119 31 71 26 66 10 32 8 30 2 11h-96v20h111v126l62-10 16-10-16-10v-96h21l32 37 42-37v-20h-95v-81l59-48 65-60 7-22-11-22-22-7-22 10m105 48-9 21-17 33-24 39-8 8 5 8 11-6 10-4 24-13 21-15 10-9 21-19 8-10 4-24-13-19-24-4-19 14M173 341l62-12-4-14-3-11-7-13-8-10-10-9-11-7-11-6-13-4-13-2-13-1v31l-53 16v15h53l6 1 6 1 4 1 5 3 2 2 3 3 2 4 2 6 1 6m654 203-11 14-15 15-29 25-10 9-14 7 4 9 14-5 14-2 12-2v24H665l-59-29v293l59-29h127l32 26 58-46-27-22V638l-53-27 18-5 34-12 20-11 10-21-8-23-22-11-22 9-5 7m-154 22-29-12-33-11-18-5-19-4-18-6-3 10 16 9 43 31 24 20 10 9 16 18 3 5 3 3v1l2 1 41-47 4-20-23 7-19-9m-290 68 47-43 6-18-26 3-14-9-14-6-15-7-14-6-16-5-18-5-17-4-19-6-4 10 17 9 28 20 23 20 9 10 15 18 6 8 2 3-1 1 5 7m130-78-1 5-4 4-4 7-6 6-16 15-19 16-13 6 3 9 14-5 26-3 4-1v24H371l-62-32v298l62-31h126l29 26 55-47-26-19V639l-50-26 11-2 9-3 19-5 9-4 8-5 6-24-10-21-23-7-21 11v3m279 157H665v-54h127v54m-295 0H371v-54h126v54m0 72H371v-52h126v52m295 0H665v-51h127v51m-295 68H371v-47h126v47m295 0H665v-46h127v46Z"/></symbol><symbol id="𮥴_J" viewBox="0 0 1000 1000" data-size="21"><path transform="matrix(1 0 0 -1 53 950)" d="M667 425H473c19-36 36-65 52-88 19-27 43-53 71-79 57 48 103 97 138 149 48-29 72-50 72-63 0-8-7-12-21-12-5 0-13 1-24 3-42-35-91-66-145-94 69-56 159-96 269-121-18-18-33-39-43-63-180 59-304 165-373 316V85c0-57-36-85-109-84 0 20-11 35-32 44-16 8-47 16-93 24v26c57-8 104-12 141-12 23 0 35 11 35 32v310H115l-10 25h306v97H10L0 572h411v88H131l-14 25h294v83H44l-10 25h377v108c66-1 99-9 99-26 0-8-13-17-41-28v-54h273l52 64c28-24 51-47 70-70l-12-19H469v-83h190l38 44c40-31 60-51 60-60 0-4-3-8-10-13l-23-15v-69h62l47 64c25-25 46-49 61-71l-11-18H724V399h-57v26m0 25v97H469v-97h198M469 660v-88h198v88H469M261 246c-13 0-25 9-38 27-28 39-70 74-128 103l11 20c64-17 112-36 145-59 27-18 41-37 41-57 0-23-10-34-31-34M81 55c-13 0-32 29-56 86 116 29 234 68 352 118l8-24C286 179 189 133 96 99c-1-29-6-44-15-44Z"/></symbol><symbol id="𮥵_J" viewBox="0 0 1000 1000" data-size="21"><path transform="matrix(1 0 0 -1 37 948)" d="M769 472H667c16-65 37-119 64-162 34 38 67 86 98 145 42-27 63-47 63-59 0-8-13-11-39-11-28-32-64-65-108-97 41-62 101-119 177-172-21-15-39-33-53-55-100 86-169 200-207 342V73c0-49-30-73-89-72 0 20-8 34-25 41-13 6-34 11-60 16v26c29-4 58-6 88-6 19 0 29 9 29 29v151c-50-56-96-98-138-126 1-12 2-19 2-21 0-13-4-19-10-19-15 0-35 22-60 66 77 44 146 90 206 139v175H457l-11 25h159v117H437l-11 25h179v109H462l-10 25h153v124c64-1 96-9 96-23 0-8-13-17-39-27v-74h98l36 42c39-30 58-49 58-57 0-5-3-9-10-14l-21-15v-90h31l32 62c17-24 31-46 39-67l-10-20h-92V449h-54v23m0 25v117H662V497h107M662 639h107v109H662V639M193 341H26l-9 25h316l41 54c21-21 39-41 54-62l-11-17H249V68c0-45-29-67-87-67-1 19-10 32-25 40-12 6-34 12-64 18v24c30-4 60-6 90-6 20 0 30 9 30 28v236m12 272v283c60-1 90-9 90-23 0-9-12-17-36-26v-84h59l38 47c20-18 37-36 50-54l-10-18H259V613h75l40 48c22-20 40-39 52-56l-9-17H19l-9 25h68v234c60-2 90-10 90-24 0-8-12-17-36-26V613h73m145-488c-14 0-23 11-26 34-5 41-21 80-49 118l15 16c61-47 92-91 92-131 0-25-11-37-32-37M67 467l-8 25h236l41 50c20-18 37-37 52-57l-10-18H67M18 75 0 88c38 60 65 129 82 207 51-16 77-31 77-43 0-8-12-13-35-16-21-55-56-109-106-161m510 209c-12 0-21 9-27 27-12 37-38 74-78 111l13 17c83-39 125-79 125-120 0-24-11-35-33-35Z"/></symbol><symbol id="𮥵_S" viewBox="0 0 1000 1000" data-size="21"><path transform="matrix(1 0 0 -1 35 968)" d="M185 335H11v20h294l52 53 64-53v-20H247V84l-1-14-2-13-4-13-7-12-8-11-11-8-12-6-13-4-12-3h-14v31L90 47v16h85l3 1 1 1 2 1 1 1v2l1 3 1 5 1 7v251M691 97l-1-13-2-14-4-12-6-12-10-11-10-9-12-6-13-4-13-2-13-1v31l-84 16v15h84l6 1 5 1 5 2 2 2 1 1v4l2 5v6h63M98 271l57-26 13-15-21-4-11-30-11-24-26-46-30-44-17-20-18-20-19-19-8 6 43 94 10 23 16 46 7 24 11 42 4 13M352 85l-6 21-6 21-16 39-16 38-21 35-12 18 7 7 34-26 17-16 29-34 25-41 10-21 20-46-3-23-19-16-24 3-15 19-4 22m487 4-31 25-29 28-25 30-23 33-20 35-18 37-2 8V97h-63v150l-26-32-55-55-72-62h-1V76l-18 8-1 1-8 12-4 7h-1l-4 8-9 14-1 1v1l-6 9 99 58 85 54 22 13v213H483v21h145v131H456v20h172v132H483v21h145v126l63-10 16-11-16-9v-96h91l31 26 59-47-26-21V647h23l24 33 31-33v-20h-78V475l-64-32v32h-91V362l37-67 20-31 57 87 28 47 7 12h-1l6 9 50-40 6-18-21 2-39-42-28-25-31-24-16-10-11-8 16-21 24-26 25-23 27-22 28-18 56-31-59-47-33 23m-417 48 34-53-43 47 9 6m111 176-3 11-11 25-7 11-9 13-22 24-11 13-16 11 5 9 18-8 17-7 17-8 29-19 14-11 11-12 11-13 11-15 9-15-2-24-18-17-23 2-17 18-3 12M301 550l63-53v-20H67v20h181l53 53m481 77h-91V496h91v131M0 596v20h79v247l58-10 14-11-14-9V616h60v321l58-11 15-10-15-10V790h66l43 47 52-47v-21H255V616h82l53 53 63-53v-20H0m782 183h-91V647h91v132Z"/></symbol><symbol id="𮥶_J" viewBox="0 0 1000 1000" data-size="21"><path transform="matrix(1 0 0 -1 70 950)" d="M291 608H30l-9 25h282c15 30 30 71 45 123H196c-23-34-53-69-90-105l-21 16c44 59 75 137 95 233 66-12 99-25 99-38 0-9-13-15-39-20-10-25-20-46-29-61h432l44 60c24-24 45-46 62-68l-11-17H416c-13-45-29-86-47-123h383l46 61c25-22 46-44 63-66l-11-20H356c-26-47-58-91-94-130h197c11 32 19 69 26 112 58-15 87-29 87-41 0-8-12-12-36-14-11-16-26-35-45-57h176l51 67c37-34 62-59 74-75l-11-17H508V350h118l48 60c32-27 55-49 71-67l-11-18H508V217h117l45 69c32-29 57-54 75-76l-11-18H508V79h201l56 75c22-21 47-48 73-82l-10-18H233V0h-57v395c-42-35-94-72-157-112L0 307c137 95 234 195 291 301m-52-155-6-6v-97h219v103H239m-6-128V217h219v108H233m0-133V79h219v113H233Z"/></symbol><symbol id="𮥷_J" viewBox="0 0 1000 1000" data-size="21"><path transform="matrix(1 0 0 -1 42 947)" d="M505 666h141c27 65 48 138 65 219 60-15 90-30 90-45 0-10-13-16-39-19-22-50-50-101-85-155h115l43 61c22-21 41-43 58-66l-10-20H695V483h69l42 60c23-23 41-45 55-65l-10-20H695V291h69l42 59c23-22 42-43 57-63l-11-21H695V88h113l48 64c23-22 43-45 60-68l-11-21H500V0h-57v566c-31-42-61-78-89-107l-18 16c45 56 85 124 120 203 32 72 56 143 72 215 61-14 92-28 92-42 0-10-16-17-46-22-16-52-39-107-69-163m-5-183h139v158H500V483m139-25H500V291h139v167m0-192H500V88h139v178M280 678H20l-10 25h167v187c64-1 96-9 96-23 0-9-13-20-40-31V703h94l45 64c24-24 44-47 61-70l-11-19h-82c-7-67-16-125-27-175-12-54-28-102-47-144 63-89 94-149 94-181 0-24-9-36-28-36-12 0-22 8-29 25-17 44-39 89-64 135C182 196 109 109 19 41L0 62c82 75 152 174 208 295-47 75-98 146-153 211l18 19c52-48 105-107 157-177 25 73 42 162 50 268Z"/></symbol><symbol id="𮥸_S" viewBox="0 0 1000 1000" data-size="21"><path transform="matrix(1 0 0 -1 57 957)" d="m714 84 29-56-11-5-10-4-11-4-12-4-11-3-11-3-12-2-12-2-23-1v32L524 48v15h106l17 1 9 1 17 3 16 6 17 6 8 4m26-49-1 1-11 21v1l-1 3-2 2v1l-1 1-1 1-1 2-3 7-1 2-4 7 15 10 12 10 13 12 10 14 9 16 8 18 6 20 5 22 4 24 1 15H608v3l-45-5 44 119H401l-9-51-19-55-24-50-30-45-36-40-41-34-46-29-51-23-57-17L26 6l-2 10 58 20 51 25 45 27 40 30 33 34 28 37 23 41 18 45 13 49 5 38H104v22h510l32 26 57-48-26-15-13-5-26-75h160l31 26 58-48-27-16h-2l-4-34-6-28-8-25-11-25-13-21-14-21-18-18-19-15-22-14-3 7M264 913l49-41 5-18-19 2-38-44-28-29-52-51 24-3 17-11-17-9V435l-62-32v297l-65-49-72-44-6 8 89 87 55 58 50 58 66 89 4 6m410-17 5 5 43-46 4-19-23 6-15-9-11-9-42-24-25-14h123l53 52 64-52v-21H645v-79h97l43 46 53-46v-22H645v-81h97l43 47 53-47v-21H645v-93h131l43 47 53-47v-22H437l-64-31v330l-53-30-28-14-31-12-4 8 71 61 45 43v15l11-4 23 26 33 43 17 25 49-41 7-17-21 2-25-28-37-34 7-3h152l6 7 32 41 10 12 26 34 11 16m-93-334H437v-93h144v93m0 102H437v-81h144v81m0 101H437v-79h144v79Z"/></symbol><symbol id="𮥹_J" viewBox="0 0 1000 1000" data-size="21"><path transform="matrix(1 0 0 -1 53 947)" d="M178 377c-50-45-103-88-160-129L0 266c160 130 290 287 390 471 61-16 92-31 92-46 0-10-15-16-46-20-57-82-119-157-186-225h228c15 38 31 92 48 162 63-17 95-33 95-48 0-10-15-16-45-20-17-29-38-60-63-94h230l53 69c26-26 48-51 67-76l-11-18H534v-95h163l50 65c24-22 45-45 64-69l-11-21H534v-95h163l52 66c25-23 47-47 67-72l-11-19H534V69h232l58 70c26-24 49-49 69-74l-10-21H237V0h-59v377m298 44H237v-95h239v95m0-120H237v-95h239v95m0-120H237V69h239v112m-49 605v108c72-3 108-12 108-27 0-9-16-19-47-29v-52h270l52 72c27-25 52-50 74-76l-11-21H52l-11 25h386m256-194c43 6 65 13 65 20s-3 13-7 19c-23 29-57 54-100 75l10 18c62-13 112-36 151-69 23-21 34-42 34-61 0-22-14-39-43-53-4 15-16 24-34 28-16 4-39 4-70 1l-6 22M117 727l23 2c3-23 10-43 19-62 11-22 21-33 31-33 11 0 26 11 43 33l16-13c-13-16-20-28-20-35 0-13 5-23 14-31-14-17-27-25-40-25-19 0-33 4-42 13-32 28-46 78-44 151Z"/></symbol><symbol id="𮥺_J" viewBox="0 0 1000 1000" data-size="21"><path transform="matrix(1 0 0 -1 65 953)" d="M703 232H479c37-49 87-86 149-111 55-23 136-43 243-62-26-19-44-38-56-54-103 22-186 55-249 99-50 34-90 77-120 128H230c-6-58-26-106-63-143C135 56 87 26 22 0L3 22c73 40 121 77 142 112 17 31 26 75 26 135v135c14-5 38-14 71-28h450l40 35c43-23 64-39 64-48 0-6-4-11-10-14l-26-13V206h-57v26m0 25v94H232v-94h471M438 778c17 50 29 93 36 129 64-15 96-29 96-41 0-8-14-14-42-18-19-29-37-52-54-70h231l46 57c26-23 47-44 63-64l-11-18H480v-76h182l46 52c23-18 43-38 62-58l-11-19H480v-71h182l48 57c24-22 44-43 61-64l-10-18H480v-83h235l49 60c25-21 47-43 66-65l-12-20H198v-32h-57v270c-36-41-77-79-125-114L0 591c97 89 166 195 208 316 59-15 88-30 88-44 0-9-14-15-43-18-12-21-26-43-42-67h227m-240-25v-76h226v76H198m0-101v-71h226v71H198m0-96v-83h226v83H198Z"/></symbol><symbol id="𮥻_S" viewBox="0 0 1000 1000" data-size="21"><path transform="matrix(1 0 0 -1 38 960)" d="M551 47V31L487 0v631l-37-51-26-31-28-28-8 5 58 105 35 74 6 14v6l2-1 9 20 31 81 30 96 56-27 13-15-20-5-27-68-18-42-20-40-12-21 20-10h123l22 66 38 104 11 32 4 10 56-31 9-16-20-3-20-33-63-98-23-31h101l53 53 62-53v-21H731V496h48l53 52 63-52v-21H731V293h48l53 53 63-53v-21H731V67h78l52 53 63-53V47H551M40 891l52-27h258l32 27 57-48-26-21V639l-63-32v32H92V528l-2-65-3-64-5-59-6-57-7-54-9-49-10-47-13-44-14-40L8 13l-8 3 15 79 6 44 6 46 4 49 4 53 3 56 2 58v490m82-294 53-11 13-11-13-9V337l62 37 44 30 65 51 17 15h-1l5 4 39-49 2-19-18 6-34-21-49-29-26-12-26-11-26-10-26-8-26-6h-2V105l1-7 1-5 2-3 2-3 3-2h3l2-1h180l30 132h11L399 84l19-13 13-18-13-19-19-13H201l-13 1-13 2-13 5-11 7-10 9-8 11-5 11-4 12-2 13v505m546-325H551V67h117v205m0 203H551V293h117v182m0 197H551V496h117v176M350 843H92V659h258v184Z"/></symbol><symbol id="𮥼_G" viewBox="0 0 1000 1000" data-size="21"><path transform="matrix(1 0 0 -1 50 982)" d="m354 340 48-31c5-3 7-5 7-7 1-1-1-3-4-4-19 0-32-5-39-15-55-46-106-78-151-97l-6 10c70 47 116 84 137 113 5 9 5 17 0 26l8 5m215-23 6 12c73-23 118-48 137-73 25-32 26-52 3-60-11 0-20 7-25 20-3 9-14 24-33 44-15 15-44 34-88 57M430 948l4 11c37-14 64-26 81-36 18-10 32-22 41-35 10-13 14-26 11-39s-10-19-21-20c-11 0-19 8-25 23-5 17-14 32-27 45-13 14-34 31-64 51m-67-726V119h238v103H363M211 700h259v95H211v-95m0-111h259v95H211v-95m0-111h259v95H211v-95m634-138V73c3-33-22-55-75-65 0 24-23 39-69 46-5 1-8 1-10 2l2 15c43-9 71-13 84-13 12 0 21 2 26 6 5 7 8 31 7 70v217H155V81l4-36c2-26-13-41-46-45 3 25 6 67 7 125v234c-2 10-7 21-16 32l10 9 31-31h651l28 30 35-31c6-4 9-8 9-11s-3-5-9-8l-14-9m-510-95 13-9h245l20 24 39-28c3-2 5-4 4-6 0-1-2-3-6-4l-18-10v-64l4-40c-1-19-12-29-35-30v27H363v-3c5-26-6-40-35-43 0 2 0 5 1 9 3 34 4 64 5 89v51c1 13-2 23-7 29l8 8M8 589l-8 12c47 45 86 89 119 132s61 85 82 124c22 40 34 64 35 72s-1 18-7 31l8 4 69-34c11-6 13-10 7-12-15-2-28-8-39-18-23-40-41-70-55-89h545l31 38 67-47c5-3 7-5 6-6s-5-1-12-1H513v-95h195l31 39 67-43c5-4 6-7 5-9s-4-3-11-3H513v-95h192l31 40 67-44c5-4 6-7 5-9 0-2-4-3-11-3H513v-95h283l31 39 67-43c5-4 7-7 6-9s-5-3-11-3H211v-14c0-7-3-16-8-26-9-8-23-14-42-17 3 31 5 65 7 104v228c-2-3-5-7-9-12-3-3-6-6-7-8-36-45-84-88-144-128Z"/></symbol><symbol id="𮥽_G" viewBox="0 0 1000 1000" data-size="21"><path transform="matrix(1 0 0 -1 24 979)" d="m678 949 8 9c46-36 74-71 85-104 10-36 3-56-21-59-11 0-17 9-18 27-1 19-4 37-11 55-5 17-19 41-43 72m35-199H580V557h133v193m0-209H580V346h133v195m0-211H580V130h133v200m-57 566c10-6 13-10 8-13-16 0-28-6-36-19-16-39-31-71-44-94h250l32 38 66-47c5-4 8-7 7-9-1-1-5-2-13-2H752V557h63l31 38 67-43c5-4 7-7 6-9-1-1-5-2-12-2H752V346h67l31 38 66-43c5-4 8-7 7-9-1-1-5-2-12-2H752V130h96l31 38 67-46c5-4 7-7 6-9s-5-3-12-3H580v-3l5-62c2-24-15-39-50-45 4 35 6 78 6 127v572c-18-25-39-50-63-74l-10 8c33 49 56 85 67 108 15 30 29 62 41 95 12 36 18 56 17 61 1 7-1 15-6 24l8 5 61-30M262 725l4 12c41-11 80-27 115-48 36-21 60-41 73-59 23-37 24-62 2-73-9-1-18 8-27 29s-28 46-59 73c-31 29-67 51-108 66m9-314h107v107H271V411m-37 107H125V411h109v107m144-123H271V282h107v113m-144 0H125V282h109v113m61 527c3-2 4-4 3-5 0-1-1-2-4-3-9-1-18-6-26-15-7-37-17-73-30-108h158l25 33 54-43c5-3 7-6 6-8-1-1-4-2-11-2H230c-11-27-24-53-37-78-35-65-98-121-187-170l-6 9c71 49 122 104 155 163 14 27 26 53 36 76H92c-16 1-30-4-42-13l-32 33h180c8 21 14 40 18 57 9 43 13 68 10 74-1 3-5 9-11 18-1 1-1 2-2 3l7 8 75-29m-8-290c11-3 14-7 9-12-9-3-17-8-25-16v-66h91l28 28 43-34c4-4 5-8 4-11s-4-5-10-6l-15-10V322l5-61c0-19-13-30-39-35v36H271V101l175 91 7-9c-27-19-69-47-128-84-29-21-48-35-57-44-8-9-15-19-20-30l-43 49c13 5 22 13 29 24v164H125v-20c2-23-11-38-40-43 3 25 5 71 6 140v186c-1 15-5 24-10 29l13 9 23-25h117v72c-1 15-9 29-23 42l6 11 70-31Z"/></symbol><symbol id="𮥾_J" viewBox="0 0 1000 1000" data-size="21"><path transform="matrix(1 0 0 -1 65 941)" d="M492 512c55-16 82-30 82-42 0-7-12-12-36-12-10-14-24-29-41-44h233l49 60c27-24 49-46 66-67l-10-18H492v-79h185l47 51c25-21 45-40 60-58l-11-18H492v-87h185l46 56c26-22 46-43 62-63l-10-18H492V78h256l51 60c26-21 49-43 70-66l-12-19H211V0h-57v327c-45-54-91-97-139-130L0 215c90 83 160 184 208 303 53-19 80-35 80-48 0-10-14-14-42-14-5-10-14-24-26-42h242c12 30 21 63 27 96-14-16-31-30-50-44l-19 16c33 33 57 69 69 108 11 34 17 75 17 125v157c19-7 40-15 62-24h178l30 34c36-26 53-42 53-50 0-4-2-7-7-10l-18-12V532c0-39-28-58-84-57-1 24-28 41-83 51v23c34-4 65-6 92-6 16 0 24 9 24 26v59H552c-10-46-30-85-60-116m68 311v-71h193v71H560m-4-170h197v74H560v-13c0-24-1-44-4-61M211 173V78h225v95H211m0 25h225v87H211v-87m0 112h225v79H211v-79m-38 538h167l31 34c35-26 53-42 53-50 0-4-2-7-7-10l-18-12V537c0-39-27-58-80-57-1 22-23 38-67 47v23c24-4 48-6 72-6 16 0 24 9 24 26v58H159c-13-76-50-137-110-184l-19 16c54 61 81 141 81 239v173c20-7 40-15 62-24m-8-25v-71h183v71H165m-2-170h185v74H165v-29c0-12-1-27-2-45Z"/></symbol><symbol id="𮥿_J" viewBox="0 0 1000 1000" data-size="21"><path transform="matrix(1 0 0 -1 51 950)" d="M591 686h167l34 35c36-25 54-42 54-51 0-3-3-6-7-9l-19-14V515h-56v32H585v-17h-57v181c10-3 31-11 63-25m-6-25v-89h179v89H585m-407 25h165l34 34c35-26 53-43 53-53 0-2-1-5-5-7l-20-14V517h-56v30H174v-39h-57v205c24-8 45-18 61-27m-4-25v-89h175v89H174m43-618V0h-57v309c-41-51-89-95-143-133L0 196c102 95 178 208 228 339 55-16 83-30 83-42 0-8-14-14-41-17-8-16-21-39-38-67h244c16 33 29 70 38 112 59-12 88-25 88-38 0-8-13-13-40-16-11-16-28-36-52-58h239l53 69c25-26 48-51 67-76l-11-18H534v-82h169l50 65c24-22 45-45 64-69l-11-21H534v-85h169l52 66c25-23 47-47 67-72l-11-19H534V68h238l58 70c26-24 49-49 69-74l-10-21H217m0 341v-82h261v82H217m0-107v-85h261v85H217m0-110V68h261v99H217m217 609v124c67-1 100-9 100-23 0-8-13-17-41-28v-73h276l53 63c26-22 50-46 71-70l-10-18H56l-10 25h388Z"/></symbol><symbol id="𮦀_J" viewBox="0 0 1000 1000" data-size="21"><path transform="matrix(1 0 0 -1 37 953)" d="M184 341H25l-10 25h184v136c62-2 93-11 93-25 0-8-13-16-37-24v-87h79l42 61c22-21 41-43 58-66l-13-20H255v-52c104-38 155-79 155-124 0-23-10-35-30-35-13 0-24 9-33 28-16 32-47 67-92 103V0h-56v259C151 179 91 112 19 56L0 75c79 76 141 165 184 266m362 332h126c27 74 46 148 59 221 61-14 91-28 91-41 0-8-13-14-40-19-18-46-45-100-81-161h112l43 61c21-21 39-43 55-66l-10-20H719V488h69l42 59c21-22 38-43 52-64l-10-20H719V293h68l44 59c22-22 39-43 53-63l-11-20H719V88h101l49 65c23-23 42-46 57-69l-11-21H536V0h-57v544c-17-30-38-60-61-90l-22 16c13 20 23 37 30 50H14L4 545h243c27 66 47 126 59 180 53-19 80-34 80-45 0-8-13-13-38-15-17-34-41-74-72-120h75l41 58c17-18 33-37 48-58 50 96 87 216 113 361 60-11 90-23 90-36 0-9-13-15-40-20-13-58-32-117-57-177m-10-25V488h127v160H536m0-185V293h127v170H536m0-194V88h127v181H536M198 760v137c63-3 94-12 94-25 0-9-12-17-38-26v-86h89l40 60c23-23 42-45 56-66l-12-19H39l-12 25h171m-39-205c-16 0-25 12-27 36-3 40-20 78-49 115l14 16c64-40 96-83 96-130 0-24-11-37-34-37Z"/></symbol><symbol id="𮦁_S" viewBox="0 0 1000 1000" data-size="21"><path transform="matrix(1 0 0 -1 41 964)" d="M152 47V31L89 0v340l-29-33-26-24-27-21-7 7 55 84 32 54 2 6v39l15-8 21 49 12 29 9 30 3 8 56-30 12-14-21-5-19-41-17-30-11-18 3-1h125l5 9 34 74 5 13 9 22 1 5-1 1 5 10 54-34 9-17-24-1-20-24-46-45-15-13h77l53 53 62-53v-22H326v-95h43l43 48 53-48v-21H326v-93h43l43 48 53-48v-20H326V67h65l52 53 64-53V47H152m605 71 57-24-5-12-6-11-9-10-9-9-10-8-11-7-12-5-13-4-12-1-14-2v33L608 73v16h105l7 1 7 1 4 1 9 4 4 3 3 3 3 4 3 5 4 7m-494 52H152V67h111v103m550 759 62-53v-21H683l-30-213h150l52 51 63-51v-22H649l-22-166h174l31 26 58-47-27-16-1-1-1-23-7-89-3-39-5-36-5-33-6-30-6-26-7-25-8-21-57 24 5 17 6 19 5 25 5 27 5 31 5 35 7 80 5 81H624l-10-67-66-22 38 276h-86v22h90l29 213H516v21h244l53 53M263 283H152v-93h111v93m0 116H152v-95h111v95M26 800l63-31h93l26 26 53-47-27-16V594l-52-27v27H89v-37l-63-32v275m424-5 58-47-27-21V572l-62-31v53h-93l-52-27v228l52-26h93l31 26m-31-47h-93V614h93v134m-237 0H89V614h93v134m239 172 53-47v-21H13v21h365l43 47Z"/></symbol><symbol id="𮦂_J" viewBox="0 0 1000 1000" data-size="21"><path transform="matrix(1 0 0 -1 33 949)" d="M494 309h156v81c58-3 86-11 86-23 0-7-11-14-34-23v-35h117l41 55c22-20 40-40 56-61l-12-19H712c52-76 126-135 221-177-19-19-34-38-44-57-78 49-141 116-187 200V0h-52v228C591 148 515 87 423 42l-16 20c95 57 168 131 219 222H294c46-66 101-115 166-148-17-12-35-29-53-53-49 40-90 94-122 163V0h-52v228C183 158 111 96 17 42L1 62c85 53 155 127 208 222H59l-12 25h186v81c57-3 86-11 86-23 0-7-12-14-34-23v-35h117l41 55c18-17 36-36 51-55M159 762h94c18 50 31 95 39 136 56-16 84-30 84-41 0-8-13-13-40-16-12-24-31-50-56-79h89l38 51c22-19 41-39 56-58l-10-18H300v-84h49l34 50c21-20 38-39 52-58l-10-17H300v-87h49l36 52c21-21 38-41 50-60l-10-17H300v-85h70l42 56c22-22 40-43 55-64l-9-17H155v-37h-54v304c-24-33-52-64-83-93L0 597c70 85 121 184 152 297 56-15 84-29 84-40 0-8-13-14-41-18-11-27-23-51-36-74m87-25h-91v-84h91v84m0-109h-91v-87h91v87m0-112h-91v-85h91v85m327 246h97c21 51 35 97 43 136 58-16 88-31 88-44 0-9-14-14-42-15-12-20-32-46-58-77h98l40 53c23-19 43-39 61-60l-11-18H717v-84h60l40 50c20-19 38-38 53-58l-11-17H717v-87h60l40 50c21-19 38-38 53-58l-11-17H717v-85h86l46 58c22-21 41-43 57-65l-11-18H568v-37h-54v300c-24-32-48-59-72-81l-18 15c62 77 110 174 144 292 54-17 81-32 81-43 0-9-13-14-41-18-9-20-20-45-35-72m90-25h-95v-84h95v84m0-109h-95v-87h95v87m0-112h-95v-85h95v85Z"/></symbol><symbol id="𮦃_S" viewBox="0 0 1000 1000" data-size="21"><path transform="matrix(1 0 0 -1 38 970)" d="M130 31 66 0v291l-17-24-20-24-21-21-8 5 48 106 18 47v13l5-1 7 17 16 50 6 24 3 8 57-27 12-15-21-5-25-55-3-6 7-1 13-9h94v2l2 11 4 21 8 32 3 11 5 18h-2l6 11 53-34 10-16-24-2-23-28-15-15-8-8-3-3h111l43 48 53-48v-20H288v-85h43l43 47 53-47v-21H288v-89h43l43 47 53-47v-21H288V52h84l53 52 62-52V31H130m453 5L525 7v559l-27-58-24-45-27-43-9 5 50 142 31 99 6 25v33l8-4 12 49 12 52 21 119 61-22 13-13-18-7-23-89-32-106-2-5 6-4h118l18 75 12 48 16 66 7 33h-1l4 14 58-25 13-14-20-6-7-19-29-63-22-46-27-49-8-14h73l53 53 62-53v-20H752V484h17l51 53 64-53v-21H752V279h17l51 52 64-52v-21H752V57h56l52 52 64-52V36H583M226 137h-96V52h96v85m462 121H583V57h105v201m-462-11h-96v-89h96v89m0 106h-96v-85h96v85m462 110H583V279h105v184M22 699l63-31h87l26 25 53-47-26-15V511l-53-27v37H85v-15l-63-31v224m666-25H583V484h105v190m-256 19 55-47-26-18V521l-58-29v29h-90l-52-26v198l52-25h90l29 25m-29-47h-90V543h90v103m-231 0H85V543h87v103m117 291 64-11 15-11-15-9v-79h17l52 53 63-53v-21H353v-84l-64-32v116h-93v-84l-62-32v116H1v21h133v110l62-11 16-11-16-9v-79h93v110Z"/></symbol><symbol id="𮦄_J" viewBox="0 0 1000 1000" data-size="21"><path transform="matrix(1 0 0 -1 62 934)" d="M462 600V28h-59v572H134V0H76v654c21-8 43-18 67-29h260v148H8l-8 25h749l54 70c29-26 54-51 73-75l-10-20H462V625h270l37 46c41-31 62-52 62-62 0-5-3-9-8-12l-24-16V83c0-50-33-75-99-75-1 20-11 33-30 40-13 6-45 13-93 20v26c46-5 87-7 125-7 26 0 39 10 39 30v483H462m197-423c-16 0-28 19-35 59-11 58-24 108-42 149-16 38-39 80-70 124l22 15c48-49 88-102 119-159 13-24 23-51 32-80 7-25 11-45 11-59 0-33-13-49-37-49m-483-39-22 13c60 102 100 225 122 369 65-17 97-32 97-44 0-10-14-16-42-19-20-69-41-128-65-177-23-47-53-94-90-142Z"/></symbol><symbol id="𮦅_G" viewBox="0 0 1000 1000" data-size="21"><path transform="matrix(1 0 0 -1 42 971)" d="m158 550 4 13c73-21 117-48 133-81 13-33 9-53-14-59-11-1-19 6-24 23s-13 33-24 48c-10 16-35 35-75 56m-75-84 85-35c9-3 11-7 6-11-14-4-24-11-29-20V115l2-70c1-24-15-39-50-45 3 29 6 79 7 152v258c1 10-9 25-30 45l9 11m733-5V132c1-40-3-69-12-88-8-18-31-31-68-39 3 29-30 50-99 65-9 2-17 4-22 5l2 15c77-15 122-21 135-20 15 1 23 17 23 49v356H462c-18 1-32-3-42-12l-31 32h363l34 36 50-39c5-3 8-7 8-10s-3-5-8-8l-20-13M140 619h226v-16H140v16m402 0h226v-16H542v16m0 92h226v-16H542v16m-402 0h226v-16H140v16M82 839c-1-5-1-11-2-20v-19h353v83H183c-18 1-33-4-44-13l-34 33h633l31 39 67-49c5-3 7-6 6-8-1-1-5-2-12-2H476v-83h347l42 40 54-62c1-3 1-6-1-7-1-1-4-1-9 0-20 1-36-8-48-25-7-9-22-31-47-67l-14 4 37 97H476V649l1-36c0-25-4-39-13-43-9-5-21-9-38-12 3 21 6 67 7 137v85H80v-13c-1-55-16-90-44-104-13-7-23-4-30 7-6 11-2 23 11 34 13 13 23 28 30 43 7 17 13 48 18 92h17Z"/></symbol><symbol id="𮦆_J" viewBox="0 0 1000 1000" data-size="21"><path transform="matrix(1 0 0 -1 62 934)" d="M592 465c-26-43-62-83-106-119l-17 15c49 51 86 123 111 215 46-18 69-31 69-41s-10-15-30-16l-14-30c41-16 72-34 93-55 16-16 24-31 24-46 0-21-8-32-24-32-9 0-16 3-22 10-2 3-6 10-12 21-15 29-39 55-72 78M278 259c-32-52-73-96-124-131l-15 17c52 48 96 123 130 227 45-21 68-35 69-43 0-9-11-13-31-14-2-4-8-16-17-35 32-13 56-29 72-47 13-14 19-28 19-41 0-22-7-32-22-32-14 0-24 8-30 24-15 34-32 59-51 75m0 202c-32-52-73-95-124-131l-15 17c54 50 97 126 130 227 45-21 68-35 69-43 0-8-11-13-31-14-2-4-8-16-17-35 32-13 56-29 72-47 13-14 19-28 19-41 0-21-7-32-22-32-14 0-24 8-30 24-14 33-31 58-51 75m318-205c-27-45-63-84-108-117l-17 16c48 44 87 117 118 219 47-19 71-34 71-44 0-8-11-12-34-13-8-19-15-33-19-41 77-26 116-56 116-92 0-22-8-33-23-33s-26 8-33 24c-16 34-40 61-71 81M462 600V28h-59v572H134V0H76v654c21-8 43-18 67-29h260v148H8l-8 25h749l54 70c29-26 54-51 73-75l-10-20H462V625h270l37 46c41-31 62-52 62-62 0-5-3-9-8-12l-24-16V83c0-50-33-75-99-75-1 20-11 33-30 40-13 6-45 13-93 20v26c45-5 87-7 125-7 26 0 39 10 39 30v483H462Z"/></symbol><symbol id="𮦇_G" viewBox="0 0 1000 1000" data-size="21"><path transform="matrix(1 0 0 -1 18 970)" d="M752 579c-33 21-61 42-85 63-26 21-51 47-74 78H374c-37-39-82-77-133-112-24-19-52-36-85-51l-22-11c-37-17-79-32-126-47l-2 16c84 38 148 72 191 103 45 31 85 65 121 102H77c-18 0-33-4-44-13L0 740h335c37 41 69 91 95 148H142c-17 0-32-4-45-13l-33 33h694l32 31 67-41c5-3 7-6 6-8-1-1-6-2-13-2H481c-25-56-55-105-90-148h459l32 39 67-49c5-3 7-6 6-8-1-1-5-2-12-2H624c20-18 39-34 56-48 19-17 43-33 71-46 29-13 57-25 84-34s50-14 68-16c2 0 5 0 9-1 21-2 38-3 52-4v-16c-15-1-30-4-43-7s-22-11-28-25c-31 6-61 16-89 29l-52 27M246 363l6 13c79-22 122-52 128-89-1-13-7-20-18-21-10 1-18 8-24 21-11 28-41 53-92 76m308-142 5 13c57-14 94-32 113-54 19-27 18-45-2-56-9-1-18 7-25 22-6 17-16 30-31 40-20 14-40 26-60 35m-304 6 6 13c61-17 99-35 112-54 20-27 19-45-2-56-9-1-17 6-24 21-6 15-17 29-32 41-13 11-33 23-60 35m294 136 6 13c86-23 129-53 128-89-1-13-7-20-18-21-10 1-18 8-24 21-11 28-41 53-92 76M168 554h509l32 38 66-47c5-3 7-6 6-8-1-1-5-2-12-2H500V432h236l31 37 47-39c6-3 9-7 9-10s-3-5-9-8l-19-12V121c1-41-2-69-11-84-9-17-31-30-67-37-1 21-13 34-34 41-20 7-47 15-80 25l2 14c68-13 109-20 123-19 16 1 24 16 24 47v305H500V157l2-86c2-21-15-35-51-41 3 24 6 63 7 118v265H207V119l4-69c1-22-17-36-54-43 4 31 6 72 7 122v297c-2 14-6 25-11 34l14 11 32-39h259v103H245c-17 1-31-3-44-12l-33 31Z"/></symbol><symbol id="𮦈_G" viewBox="0 0 1000 1000" data-size="21"><path transform="matrix(1 0 0 -1 41 976)" d="M140 713h226v-14H140v14m402-97h226v-14H542v14m-402 0h226v-14H140v14m402 97h226v-14H542v14M82 846c-1-5-1-11-2-20v-19h353v87H183c-18 1-33-4-44-13l-34 31h633l31 39 67-47c5-3 7-6 6-8-1-1-5-2-12-2H476v-87h347l42 40 53-58c3-5 4-8 1-11-2-3-5-3-10 0-20 1-36-8-48-25-7-9-22-31-47-67l-14 4 37 99H476V657l1-32c1-25-16-40-51-47 3 26 6 72 7 137v74H80v-15c-1-53-16-89-44-108-14-9-24-6-30 7-6 14-2 27 11 38 13 13 23 28 30 43 7 17 13 48 18 92h17m716-444V127c1-39-3-69-12-88-9-18-32-31-68-39 3 29-31 51-104 65-8 2-14 4-18 5l2 15c72-15 116-21 131-20 16 1 24 18 24 49v301H464c-3-15-6-30-10-43 49-21 94-43 135-67 70-45 106-88 107-129-2-17-9-25-22-26s-25 14-37 43c-11 28-35 57-71 86-27 21-66 47-117 77-11-31-26-59-45-84-43-57-115-102-215-137l-6 13c97 48 162 99 195 153 22 33 36 71 43 114H165V110l4-64c1-23-17-38-56-45 3 25 6 82 7 170v257c-3 19-9 32-20 40l15 11 40-44h269c1 3 1 8 2 15 4 21 6 43 7 66-3 15-11 26-22 33l8 11 75-19c12-5 15-10 8-13-9 1-18-4-26-14-1-19-3-38-6-58-1-9-2-16-3-21h270l29 40 51-42c6-4 9-8 9-11s-3-6-9-8l-19-12Z"/></symbol><symbol id="𮦉_G" viewBox="0 0 1000 1000" data-size="21"><path transform="matrix(1 0 0 -1 22 973)" d="M209 447h17c3-53 1-95-5-124-6-27-14-49-24-65-9-15-21-25-35-29s-25-1-32 10c-8 9-3 23 15 41 14 13 28 31 42 53 11 20 18 58 22 114m571-2 64-63c5-5 8-8 8-10 0-1-3-2-8-3-19 5-38 0-58-13-16-13-83-47-200-104 12-15 30-34 53-57 37-34 78-63 122-86 42-21 79-35 111-40 29-6 57-10 83-12l1-15c-8-1-19-1-34-2-13-1-22-2-27-3-14-1-26-12-35-32-56 22-100 43-131 62-28 16-62 43-101 80-71 68-124 160-159 276-23-105-52-180-85-226-40-55-90-97-151-128C171 39 94 16 2 0L0 15c86 21 156 46 210 75 55 31 100 73 137 126 39 54 67 147 86 278-3 13-11 24-22 32l7 11 90-29c15-5 19-10 13-14-18-2-31-7-40-14 0-1 0-1-1-2-1-3-1-6-1-9 24-79 55-146 94-199 50 31 99 63 147 96 31 21 48 37 51 48s2 20-2 26l11 5M575 690h202v-20H575v20m-410 0h201v-20H165v20m410-89h202v-20H575v20m-410 0h201v-20H165v20m770 168c1-3 1-6-1-7-1-1-4-1-9 0-15 1-33-7-52-26-18-19-37-37-56-56l-13 10 49 82H494V636l2-55c1-23-16-38-53-44 4 35 6 83 6 145v90H101c0-7 0-15-1-23-4-51-20-83-48-96-12-7-22-5-29 6-7 10-4 21 9 32 13 12 23 26 32 42 9 17 16 47 21 90h17v-31h347v94H208c-17 1-32-4-44-13l-33 33h588l31 39 67-49c5-3 7-6 6-8-1-1-5-2-12-2H494v-94h347l36 39 58-62Z"/></symbol></svg>