<svg xmlns="http://www.w3.org/2000/svg"><symbol id="𫜬_G" viewBox="0 0 1000 1000" data-size="21"><path transform="matrix(1 0 0 -1 22 968)" d="m231 936 75-22c6-4 7-8 2-13l-29-14V783h75l23 35 55-44c4-8 2-13-6-15H279V631h100l27 40 57-50c6-10 3-16-11-16H66c-24 0-38-2-44-8L0 631h86v209l71-27c4-4 4-8 0-11l-25-17V631h99v305m210-440c10-6 10-12 0-16l-26-11V179l4-85c0-10-6-19-17-27s-22-13-35-14v89c-107-23-178-40-214-52-35-12-63-27-83-45l-47 60c13 6 24 13 33 22v396l75-25c4-5 5-9 2-13l-29-14V123l263 39v358l74-24m25 256h119v172l77-26c2-2 3-4 3-6s-1-4-4-6l-28-13V752h117v170l67-25c5-1 8-4 9-8 1-2-1-5-5-7l-23-11V752h44l29 39 48-47c3-2 4-4 4-6 2-8 0-11-9-11H798V549h82l25 39 47-47c5-3 6-6 3-8 3-6 0-10-9-10H500c-13 0-27-2-43-7l-19 33h147v178h-59c-13 0-29-3-46-8l-14 33m284-203v178H633V549h117m-228-94 55-35h229l27 35 58-37c3-3 5-6 5-8 0-4-10-12-28-25V110l4-70c0-7-5-14-15-20-9-7-21-12-37-14v80H570V36c0-8-5-16-16-24S532 0 519 0l3 113v342m48-346h250v135H570V109m0 160h250v127H570V269m-447-82c31 72 54 138 69 197 15 58 27 116 37 172l66-26c5-6 4-11-2-13-14-6-24-15-28-28-5-13-13-40-25-82 42-32 70-59 83-81 14-21 21-40 21-55 0-14-4-25-12-31s-16-7-25-5c-9 3-15 15-18 36-3 20-9 41-18 60-10 20-23 38-39 57-26-82-58-151-97-207l-12 6Z"/></symbol><symbol id="𫜭_G" viewBox="0 0 1000 1000" data-size="21"><path transform="matrix(1 0 0 -1 20 970)" d="m384 512 5-2c6-2 8-4 8-5 0-5-1-8-2-10l-25-14V156l4-41c0-10-6-19-18-27-11-9-21-13-30-13v56c-82-20-140-35-175-45-34-10-62-25-83-46L27 91l29 23v420l64-24c9-2 12-6 10-13 0-2-10-7-28-16V116c61 11 135 22 222 33v385l60-22M205 940l73-31c3-3 4-6 4-8-2-4-4-6-6-6l-26-11V780h62l25 39 51-48c2-1 3-4 3-6 0-6-3-9-8-9H250V630h102l23 32c36-28 54-44 54-50-1-5-7-8-20-8H57c-9 0-22-2-38-8L0 630h78v195l73-30c3-2 4-4 4-7 0-1-2-2-6-5l-27-14V630h83v310m14-529c34-30 57-56 69-78s18-41 17-56c-2-15-6-25-12-30-7-5-14-6-22-4-9 3-14 13-14 30-1 18-5 36-12 54s-18 41-32 67c-17-75-44-145-82-211l-12 5c26 75 45 143 58 206 12 62 22 123 28 181 46-14 69-24 69-28 2-5-1-8-7-11-7-2-12-6-17-12-4-5-8-16-12-34-4-17-10-44-19-79m271-4h101v219H490V407m-44 109v354l45-25c50 21 98 48 146 81 28-31 42-47 44-50 2-2 1-5-1-8s-6-4-13-3c-7 2-14 2-23 1-10 0-23-4-41-10-18-5-55-16-113-34V648h90l29 32 45-39c3-7 3-11 0-14l-19-12V434l4-80c-1-10-6-17-15-23-8-6-20-9-33-11v66H489c-1-67-13-136-35-207-21-71-58-131-110-179l-10 10c40 49 70 112 89 188 19 77 27 183 23 318m245 5v333l45-26c60 26 110 54 150 85 29-29 44-46 45-50 1-3 1-6-1-8-2-1-6-2-12-1h-19c-5-1-21-5-45-12-25-7-63-18-117-34V603h147l25 37 49-44c2-5 3-8 3-11 0-5-3-8-8-8h-86V150l4-92c1-10-5-20-18-31-14-10-25-15-34-14l4 133v431h-86v-56c3-152-12-264-45-339-32-75-78-135-136-181l-10 10c44 49 80 107 107 175 28 67 40 179 38 335Z"/></symbol><symbol id="𫜮_G" viewBox="0 0 1000 1000" data-size="21"><path transform="matrix(1 0 0 -1 22 976)" d="m224 940 74-25c6-4 7-8 2-13l-29-14V786h75l23 35 55-44c4-8 2-13-6-15H271V636h92l32 40 48-44c7-13 5-20-6-22H66c-24 0-38-3-44-8L0 636h86v207l71-27c4-4 4-8 0-11l-25-17V636h92v304M121 199c30 71 53 136 67 196 15 59 27 117 37 173l72-19c5-7 4-11-2-14-14-5-25-15-31-30-7-15-16-43-28-85 43-37 71-65 83-85 13-20 19-38 18-53s-5-25-13-31-16-7-24-4c-9 3-14 15-17 36-2 21-8 40-16 58-9 17-22 37-38 59-27-84-58-154-94-209l-14 8m309 306c9-7 9-12 0-16l-27-11V191l4-73c0-10-5-18-16-26-11-9-23-14-36-15v77c-101-22-169-40-204-51-34-12-61-27-81-45l-47 60c13 5 24 13 33 22v396l75-25c4-5 5-9 2-13l-29-15V136l251 39v353l75-23m445 99 31 40 48-51c1-2 2-4 2-7 0-5-1-8-4-8H536V415c1-93-9-173-31-241-22-67-61-125-117-174l-12 8c48 65 79 125 93 180 13 56 20 130 20 222v225l54-31h190c23 56 40 109 53 160 44-21 67-34 68-37 2-4 1-7 0-9-2-2-8-4-17-6s-21-15-35-38c-15-24-28-47-41-70h114m-71-51c35-29 52-44 52-46s0-4-1-7c0-3-7-4-19-3s-43-15-93-48c-49-32-103-63-162-92l-10 12c69 47 147 108 233 184m43-121c35-33 52-50 52-52s0-4-1-7c0-3-8-4-22-5-14 0-45-18-91-54-46-35-118-77-216-126l-6 13c106 67 200 143 284 231m49-129c33-33 50-51 49-56 0-4-3-7-7-8-3 0-11-1-21-2-10 0-32-13-64-39-33-25-85-58-156-99S559 27 495 6l-4 14c67 33 135 73 206 120 71 46 137 100 199 163m-43 513 25 40 54-45c3-3 5-8 6-14l-6-6H535c-13 0-31-3-54-8l-16 33h388m-295-64 9 10c34-19 59-35 75-51 15-16 24-29 26-41s0-23-6-32c-6-10-14-15-25-14s-18 9-21 25c-2 17-7 32-14 46-8 15-22 34-44 57m72 187 8 12c37-17 63-31 78-42 14-11 23-23 26-35s2-23-5-33c-6-10-15-14-27-13s-19 10-22 25c-2 15-8 28-16 41-9 12-23 27-42 45Z"/></symbol><symbol id="𫜯_G" viewBox="0 0 1000 1000" data-size="21"><path transform="matrix(1 0 0 -1 24 975)" d="m224 942 74-25c6-4 7-8 2-13l-29-14v-98h77l23 35 53-44c4-8 2-13-6-15H271V640h112l27 40 53-46c5-9 3-16-5-20H66c-29 0-46-3-51-9L0 640h86v203l71-27c4-4 4-8 0-11l-25-17V640h92v302M113 199c30 71 53 136 68 196 15 59 27 117 36 173l68-23c5-7 5-11-2-14-14-5-24-14-28-27-5-13-13-41-26-84 42-35 70-63 83-84 12-21 18-39 17-54s-5-25-13-31c-7-6-16-7-24-4s-14 15-17 36c-2 21-8 40-16 58-9 17-21 37-38 59-26-84-58-154-94-209l-14 8m313 310c9-7 9-12 0-16l-27-12V191l4-85c0-9-5-18-16-26s-23-13-35-15v89c-111-24-182-41-213-52-32-12-57-26-76-44l-47 60c13 5 23 13 32 22v396l75-25c5-5 5-9 2-13l-29-15V136l256 43v353l74-23m60 141h183v114l76-29c4-2 6-4 6-6 1 0 1-3-2-7l-32-13v-59h135l22 38 54-46c2-2 4-4 4-7 0-5-3-8-9-8H717v-92h75l27 39 53-47c2-2 3-3 3-4 3-7 0-11-9-11H717v-96h145l26 36 48-44c2-2 3-3 3-4 4-8 2-11-5-11H717v-53c0-9-4-15-13-21-13-6-25-8-35-6v80H504c-13 0-29-3-48-8l-15 31h228v96h-96c-13 0-29-3-50-8l-16 31h162v92H549c-14 0-30-3-48-8l-15 31m21-334 54-21h257l27 31 45-36c7-4 10-8 10-13 0-2-8-10-26-23V111l4-63c1-9-5-17-20-24-13-7-24-10-32-8v67H555V31c0-6-6-12-18-19S514 1 503 0l4 128v188m48-205h271v159H555V111m311 694 32 35 42-43c8-7 11-12 11-17 0-3-4-5-13-5-12-2-24-8-37-18-13-11-33-32-62-66l-14 10 41 78H530c0-24-4-45-11-62-8-17-18-28-31-33-13-6-23-6-31-1-8 4-12 12-12 22s6 19 17 26c11 8 21 20 29 37 9 17 15 43 19 80h18l3-43h335M621 938l8 11c35-17 59-31 72-42s22-22 26-32c3-10 3-21 0-32-4-11-11-18-20-20s-16 0-21 4c-6 5-9 12-11 23-2 10-6 22-12 36-6 13-20 31-42 52Z"/></symbol><symbol id="𫜰_G" viewBox="0 0 1000 1000" data-size="21"><path transform="matrix(1 0 0 -1 44 971)" d="m440 491 74-21c7-7 8-12 2-17l-28-13v-27h187l29 35 57-44c2-2 3-4 3-7 0-5-3-8-8-8H488v-60h334l26 34 50-42c8-9 4-15-11-17H74c-17 1-37-2-57-9L0 329h225v121l68-23c6-4 6-9-1-15l-23-9v-74h171v162M114 270l72-24c5-5 5-10 0-14l-25-10V76h583v190l71-25c6-5 5-9-1-12l-23-12V79l4-40c0-11-5-20-15-26-9-7-21-12-36-13v51H167l-26-33-53 43c17 9 26 20 26 33v176m73-166c56 26 103 53 143 81s72 63 97 106l58-20c7-3 9-7 7-11s-6-7-13-8c-5-1-10-4-14-7s-12-9-23-18c69-15 122-27 158-38 35-10 60-20 73-31 13-10 19-22 18-34 0-12-6-20-16-23-11-4-22 0-35 11s-37 26-72 44c-34 18-81 37-139 57-19-20-47-40-86-63-39-22-89-42-151-60l-5 14m-35 621 6 8c32-3 53-7 62-13 9-5 13-13 12-22 0-9-4-15-10-18s-11-3-16-1-8 5-10 9c-2 6-5 11-10 15-5 5-16 12-34 22m484 62v149l76-26c3-2 3-7 1-14l-30-13v-96h136l25 31 45-39c6-5 6-11 1-17H712c13-28 26-52 39-74 13-23 27-44 42-64s32-37 50-50 41-23 68-29v-16c-22 0-38 0-47-2-9-1-21-9-35-25-22 22-42 47-59 74-18 28-34 57-47 90-14 33-24 64-32 96h-10c-3-35-12-70-28-104-15-34-38-64-69-91-31-26-67-50-108-71l-8 12c34 23 63 49 89 77 25 28 44 56 55 83 12 27 20 59 24 96h-80c-16 0-30-4-41-10l-26 33h147M233 942l68-19c6-2 9-4 9-7 2-4 1-7-3-11l-28-11v-36h143l24 32 55-42c2-3 3-6 3-8 0-5-4-7-13-7H279v-55h126l18 26c38-20 57-33 57-37 0-6-5-13-17-20V573c1-21-3-38-14-50-10-11-26-20-49-26-2 15-8 25-18 30-9 6-30 13-63 22l5 15c19-4 35-7 47-9s24-2 33 2c10 4 14 12 13 24v172H99V596l4-68c0-10-6-20-18-29s-23-14-34-14l4 108v208l46-23h132v55H80c-14 1-30-2-48-9l-21 34h222v84m113-221c8-6 7-10-1-13-8-2-14-3-17-3l-35-34h43l18 22 41-27c5-7 3-13-5-17H276v-33h71l15 22c28-20 42-31 43-34 2-3 0-5-6-7H276v-46c0-10-5-17-14-22-10-4-19-7-27-7v75h-70c-16 0-26-2-31-6l-22 25h123v33h-44c-28 2-46-1-53-6l-17 28h150c13 21 25 45 36 72l39-22m398 179 4 12c27-2 50-8 67-16 18-7 29-16 33-27 4-10 3-19-2-26-6-7-12-11-21-11-8 0-14 4-17 12-4 8-9 16-17 25s-23 20-47 31Z"/></symbol><symbol id="𫜱_G" viewBox="0 0 1000 1000" data-size="21"><path transform="matrix(1 0 0 -1 19 975)" d="M900 539c0-9-6-17-16-23-11-6-22-9-33-10v27H740v-82h98l23 29 53-37c7-9 5-14-4-15H740v-92h96l21 27 51-33c7-9 6-15-2-17H740v-86h102l21 33 53-39c4-8 2-14-6-18H740v-92c1-17 4-28 9-34 6-6 22-9 48-10h57c18 0 31 3 41 7 9 4 15 17 17 38 3 21 4 45 4 73h17c2-33 4-56 5-71 3-14 11-23 24-27-7-18-14-31-24-41-8-10-27-16-55-19H775c-26 0-46 5-59 15-13 9-20 29-22 60v484l51-27h107v111H752l-29-31-49 43 25 19v242l65-23c9-7 10-12 4-16l-24-9v-79h117l24 36 47-43c4-12-2-17-18-16H744v-98h100l21 30 47-37c7-8 6-14-2-16l-14-12v-80l4-41m-463-13 43-24h109l21 31 49-37c6-5 6-11-1-17l-20-12V85c1-21-3-37-12-48-8-11-24-19-46-25-5 20-13 33-24 38-11 4-26 10-45 15l4 17c19-4 33-6 42-7s17-1 25-1c8 1 12 9 12 26v127H480V116l3-77c0-9-5-18-17-26-11-9-22-13-33-13l4 113v413m43-276h114v102H480V250m0 125h114v104H480V375m130 229 24 30 35-34c3-3 5-6 6-9 0-8-4-12-11-12H447c-13 0-24-3-33-8l-21 33h150c17 47 34 101 51 164l58-28c7-5 8-10 2-13-9-3-16-6-21-9s-12-13-21-30c-8-16-24-44-48-84h46M397 810h195l21 32 44-40c3-3 5-6 5-11 0-4-5-6-16-6H460c-13 0-27-3-43-9l-20 34m21-64 10 10c26-20 45-37 58-51s21-28 22-41-1-23-7-31-14-11-23-9c-10 2-16 10-17 25s-6 31-13 46c-7 16-17 33-30 51m45 193 10 10c34-18 57-34 69-47s19-25 19-38c0-12-4-21-10-27-7-6-15-8-25-5-9 3-15 9-16 21-2 11-4 23-9 36s-17 30-38 50M94 754H47c-9-3-18-7-27-12L0 779h94v151l68-26c8-6 7-12-4-17l-20-12v-96h124v152l70-25c8-5 9-11 4-19l-27-14v-94h31l19 32 37-38c10-10 8-16-3-19h-85v-92l4-49c0-6-6-11-17-17-10-6-21-8-32-8v34h-41V504h88l23 29 43-30c6-3 9-7 9-12 0-4-7-12-21-24V203c2-19-4-34-15-44-12-10-27-17-44-21-2 11-6 20-13 28-7 7-24 15-52 24l2 17c27-3 49-6 68-7 7 4 10 15 10 34v243h-98V111l5-82c-3-8-10-15-21-20-10-5-22-8-34-9l4 110v367H79V246l4-73c0-9-7-18-20-27-12-9-22-13-31-11l3 109v287l49-27h92v118h-38v-20c0-6-6-12-18-18-11-6-21-9-30-9l4 94v85m44-106h125v106H138V648Z"/></symbol><symbol id="𫜲_G" viewBox="0 0 1000 1000" data-size="21"><path transform="matrix(1 0 0 -1 20 971)" d="M430 682h138l5 66 4 190 79-35c5-2 7-5 7-9 0-3-12-11-36-23l-4-123-4-66h233l27 45 59-53c3-2 4-5 4-8 0-8-4-12-11-12H727V326c42 55 85 128 127 219 38-24 58-38 59-43s1-8-1-9c-2 0-6-2-13-5-6-2-12-5-16-9-5-3-21-26-48-70-27-43-63-91-107-141l-1-157c0-15 9-23 27-23h89c17 0 30 5 37 16 8 10 12 21 14 34 1 12 4 56 10 133h21c0-66 3-107 7-123s13-28 28-35c-4-15-11-29-21-42-9-13-29-22-57-26H749c-26 0-44 4-54 14-9 9-15 25-16 48v112c-41-41-90-78-149-112l-9 14c53 40 106 91 158 152v381h-61c-4-73-12-147-23-222-11-76-32-151-66-226-32-75-86-143-161-206l-10 12c62 67 106 136 133 207 28 70 46 139 56 207 10 67 17 144 21 228h-64c-12 0-29-2-52-8l-22 36m268 201 8 12c30-13 55-26 74-38 20-11 34-24 42-38 9-13 11-27 8-40s-8-21-16-24c-7-3-14-4-21-1s-13 11-19 26c-5 15-12 30-21 44-9 15-27 34-55 59M134 309h211v125H134V309m0 150h211v127H134V459M3 760h143c14 54 27 114 39 181l72-31c5-6 6-11 2-14-4-2-8-4-13-5-4-2-8-4-12-8-3-4-6-12-10-24-4-11-14-45-30-99h178l31 39c32-31 49-49 52-54s0-9-7-11H186c-13-35-30-76-49-123h199l27 34 44-32c7-5 10-9 10-13 0-6-8-13-24-22V135c1-22-3-41-12-57-9-15-27-29-54-39-4 22-14 38-30 47s-38 18-66 25l4 18c20-5 38-10 55-13s31-4 41-2 15 13 14 32v137H134V143l4-86c0-9-6-19-19-28-12-9-25-13-37-13l4 124v371c-20-39-45-74-75-107l-11 9c25 40 51 93 78 159 27 67 46 121 59 162H67c-13 0-27-4-42-12L3 760Z"/></symbol><symbol id="𫜳_G" viewBox="0 0 1000 1000" data-size="21"><path transform="matrix(1 0 0 -1 17 964)" d="M542 285h115v139H542V285m166 139V285h113v139H708m-166 25h115v131H542V449m166 131V449h113v131H708m-172 27h137l60 135H571c-48-74-88-129-121-164l-10 10c34 54 63 106 86 155 24 49 49 110 75 184 44-20 66-33 67-39 1-5-2-8-8-10s-11-4-15-6c-5-2-11-11-18-26s-21-41-42-79h152l24 35c39-30 58-46 57-49 0-4-4-7-9-9-6-3-12-6-17-10s-16-16-31-37c-16-21-37-51-63-90h114l23 33 57-43c5-5 7-8 6-9 0-2-2-4-3-6-2-3-11-10-25-22V321l4-75c-1-8-6-15-18-21-11-6-22-10-35-12v46H708V86c3-20 14-30 35-32h102c27 2 43 9 49 24 5 14 8 31 10 52 2 20 5 55 9 106h18c0-56 1-95 4-116 2-22 13-36 31-42-8-22-19-39-33-50-15-11-38-18-71-21H724c-16 3-30 9-42 19-13 10-21 26-25 50v183H542v-29c1-5-5-11-19-16-13-6-24-9-35-9l5 114v296l43-8M69 779l47-28h93v177l72-28c5-3 7-6 7-8 0-1-2-3-5-6l-26-18V751h92l19 29 49-35c5-3 8-8 8-13 0-4-9-12-26-24V346h19l20 27 32-33c2-1 4-4 4-7 0-8-4-12-12-12h-63V85c0-22-5-39-17-53S353 8 330 1c0 15-5 27-16 35-10 8-34 17-72 29l4 16c35-4 58-6 68-7 11-1 20 0 27 3 7 2 11 10 11 23v221H117V133l4-96c0-8-6-16-18-25C90 4 78 0 65 1l4 128v192H41c1 1-8-1-25-8L0 346h69v433m48-433h92v182h-92V346m140 0h95v182h-95V346M117 553h92v172h-92V553m140 0h95v172h-95V553Z"/></symbol><symbol id="𫜴_G" viewBox="0 0 1000 1000" data-size="21"><path transform="matrix(1 0 0 -1 15 976)" d="m792 625 46-26h40l21 26c30-21 44-35 44-39 2-2-5-8-19-17v-83l4-48c0-9-4-16-13-21-8-5-18-8-31-10v23h-52v-7c0-9-5-15-15-20-9-4-18-6-29-6l4 67v161m40-173h52v124h-52V452M660 342v-98h81v98h-81m125 0v-98h83v98h-83M563 700h175l30 38 47-48c4-1 5-4 5-8s-5-6-15-6H622c-10 0-23-3-39-9l-20 33M10 793h102v145l64-28c6-3 9-5 9-6 1-6-1-9-5-11l-25-11v-89h22l17 25 33-35c3-10 1-15-7-13h-65v-65c28-12 46-24 55-34 10-10 16-19 18-28 1-9 0-17-5-25-5-7-11-11-20-11-8 0-13 5-15 14-1 9-4 19-8 29-5 11-13 23-25 37V532l4-50c0-9-5-16-16-22s-22-9-35-9l4 78v155C78 603 44 543 9 504l-9 8c21 39 42 84 61 134 18 51 32 92 40 124H61c-13 0-25-3-36-8l-15 31m226 0h68v141l63-28c6-3 9-5 9-6 1-5 0-9-5-11l-24-11v-85h37l19 27 42-37c4-10 2-15-7-13h-91v-65c32-27 56-49 70-66 15-17 23-32 24-45 2-13-1-23-7-31s-14-12-24-10c-10 1-15 8-16 21-2 13-7 30-15 49-8 20-19 37-32 52V538l4-46c0-9-6-16-17-22-10-6-22-8-34-5l4 74v141c-26-59-61-111-104-157l-7 8c30 51 51 94 64 128 13 35 25 71 35 111h-21c-2 0-9-3-21-8l-14 31m224-170 46-20h40l24 26c29-20 43-33 43-37 2-2-5-8-18-19v-83l4-54c0-9-5-16-13-21s-18-8-31-10v29h-55v-7c0-9-5-15-15-20-9-4-19-6-29-6l4 67v155m40-167h55v124h-55V456m132 174 46-26h39l17 26c30-22 44-35 44-39 2-2-5-8-19-17v-89l4-48c0-9-4-16-12-21-7-5-18-9-32-12v29h-47v-7c0-9-5-15-15-20-9-4-19-6-29-6l4 63v167m40-175h47v126h-47V455m-197-68 41-22h345l22 30 45-30c5-2 8-5 8-10 0-4-8-11-22-21V72c1-13-2-26-9-39-7-12-22-22-45-30 0 12-4 22-13 30s-30 17-61 27l4 13c24-3 42-5 54-6s20 1 22 7c3 5 3 17 2 35v112h-83v-35l4-65c1-12-4-21-17-27-11-7-23-11-35-14l4 99v42h-81v-55l4-63c0-11-6-19-18-24-11-6-23-9-34-9l4 98v53h-95V107l2-66c0-9-5-18-17-25-11-8-23-12-35-12l4 107v276m46-143h95v98h-95v-98m192 678c4-2 6-3 7-4 6-7 3-12-7-16l-18-2c32-36 61-67 88-92 28-26 57-48 88-68 31-19 64-31 99-35v-17c-13 0-25-3-38-7-13-5-25-14-36-29-25 18-50 39-76 64-24 25-49 53-74 84-25 30-46 61-64 91-29-45-64-91-107-138-42-48-87-88-135-120l-9 10c36 37 74 81 114 132 40 52 77 111 109 176l59-29M420 367c6-5 6-10-1-14-18 1-30 1-37-2-7-4-46-27-116-72 13-37 28-71 47-101 18-30 36-55 54-74 18-20 41-33 67-40V49c-19 0-34-1-46-3-13-2-24-9-34-21-16 19-30 38-41 59-12 21-27 50-43 89-17 38-31 81-41 128-6-39-15-74-30-104-14-30-36-62-66-97C103 64 63 31 12 0L6 12c40 35 74 71 100 107 27 37 48 76 64 117 16 42 24 95 24 159v105l66-20c6-5 8-9 5-11 0-2-8-7-23-16v-51c3-26 9-60 20-101 56 52 93 90 111 113l47-47M92 400h17c0-66-4-110-11-131-8-22-20-36-35-43-14-8-26-8-34 0-8 7-9 15-5 25 5 10 13 20 24 29 11 10 20 23 27 39 7 17 13 44 17 81Z"/></symbol></svg>