<svg xmlns="http://www.w3.org/2000/svg"><symbol id="纫_G" viewBox="0 0 1000 1000" data-size="21"><path transform="matrix(1 0 0 -1 44 956)" d="m842 860 64-47c4-2 6-7 6-13 0-3-12-13-37-28l-8-466c-6-80-13-133-21-159-7-24-18-48-33-71-17-21-47-39-92-55-7 24-17 40-28 47-10 8-45 20-103 36l4 20c86-19 138-24 158-16 19 8 33 25 43 51 8 25 15 69 21 133l12 498H643c-2-199-12-337-30-414-17-77-56-147-117-209C435 104 352 49 246 0l-8 14c92 56 164 112 217 167 51 54 86 118 106 191 18 73 28 212 31 418H475c-15 0-28-3-39-8l-22 35h400l28 43M463 653h19c1-50-2-94-9-131-9-35-20-61-34-78s-29-24-44-23-24 8-28 19c-2 11 4 24 20 38 15 13 29 31 43 54 11 22 22 62 33 121m-80-414 6-17c-177-62-274-97-291-108-19-8-34-17-45-26l-43 63 373 88m-96 631c5-2 7-6 8-10 0-4-3-7-8-9-14 0-44-28-90-84-45-55-91-110-136-164l187 3c40 59 68 105 84 139 47-27 70-43 70-47s0-6-2-8-6-3-13-5c-8 0-16-4-24-12-6-7-35-41-86-102-49-60-116-133-201-217l309 47 4-17c-127-28-207-47-241-57-33-10-62-21-87-35l-47 68c11 4 26 10 45 18 54 49 114 118 179 207-73-9-119-16-138-22-20-3-39-11-59-23L0 606c15 2 31 10 49 26 15 15 44 55 86 119 41 64 69 117 86 160l66-41Z"/></symbol><symbol id="纬_G" viewBox="0 0 1000 1000" data-size="21"><path transform="matrix(1 0 0 -1 46 962)" d="M383 735h209v189l90-29c4-6 5-10 2-12 0-2-2-4-6-6l-37-17V735h150l39 54 63-58c2-3 3-6 3-10 0-8-3-12-11-12H641V571h101l43 52 61-56c2-3 3-6 4-10 0-8-4-12-12-12H641V418h175l30 39 54-41c5-2 8-6 8-11 0-2-10-12-29-30l-4-90c-4-45-12-80-23-103-12-23-39-43-82-59-4 22-16 37-36 47-18 11-39 19-62 26l4 17c28-6 49-10 62-13 12-3 25-4 39-4 13-2 24 4 34 17 7 13 13 39 15 78l4 102H641V137l4-97c0-7-7-15-20-25-14-10-26-15-37-14l4 134v258H430c-20 0-37-3-51-8l-20 33h233v127H490c-13 0-36-2-66-8l-16 34h184v138H465c-14 0-36-2-67-8l-15 34m-94 131c5-3 8-6 8-10 2-4-1-7-8-8-16-1-31-10-45-27-12-17-31-41-56-75-24-31-71-86-141-162l217 8c19 24 39 57 62 100l67-47c8-8 5-14-10-18-15-2-29-11-45-25C238 491 152 403 82 338l260 35 4-15c-104-24-171-39-201-47-31-8-56-20-75-35l-43 68c19 4 37 14 55 29 61 59 117 125 170 200-119-11-188-25-209-43L0 590c18 6 33 16 45 29 73 86 133 183 178 291l66-44m102-635 5-18-289-101C76 99 56 84 47 68L2 133l389 98Z"/></symbol><symbol id="纬_H" viewBox="0 0 1000 1000" data-size="21"><path transform="matrix(1 0 0 -1 46 956)" d="M154 899c55-23 82-40 82-51 0-8-15-13-45-14-17-38-40-80-67-126-18-36-39-71-63-106 21 0 43 1 66 3 34 2 64 5 92 8l4 4c17 39 30 77 41 114 55-23 83-40 83-51 0-8-16-13-47-14-27-48-61-100-104-154-32-46-68-91-108-136 30 1 60 4 90 8 51 6 98 14 139 24v-18c-34-13-70-25-107-35-38-12-78-23-121-32-9-21-16-32-20-32-2 0-4 2-6 6-15 23-28 49-39 77 14 0 28 0 42 1 36 48 66 90 88 125 21 30 38 59 52 86-16-5-32-10-48-14-28-9-59-17-92-23-9-22-17-32-21-32-2 0-4 2-7 7-13 23-26 49-38 77h37c22 39 39 74 52 104 17 34 30 66 40 98 11 32 19 65 25 96m174-625 4-22c-36-27-68-49-96-64-30-17-58-33-86-46-25-13-52-24-80-34-7-24-13-36-18-36s-21 28-48 82c40 7 76 15 107 26 30 8 62 20 97 36 35 14 75 34 120 58m28 486c29-7 68-11 116-11h110v83c0 35-2 62-6 79 39-4 70-12 95-23 9-3 14-7 14-14 0-6-5-10-14-12-12-7-26-11-42-12V749h145l46 51c25-18 48-36 71-53 5-4 8-8 8-12 0-9-5-14-16-14H629V588h95l43 48c22-17 44-34 65-51 5-3 8-6 8-10 0-10-5-14-15-14H629V432h183l37 37c20-12 37-24 50-36 6-7 9-12 9-16 0-7-12-18-37-35-3-58-6-104-11-137-4-33-8-57-12-70-6-12-12-20-18-25-4-5-10-9-18-11-10-4-23-7-41-10-3 12-7 21-11 26-5 6-12 10-22 13-8 5-27 9-57 15l5 24c43-8 71-12 84-12 5 0 10 1 14 2 5 2 9 5 12 10 4 5 9 12 13 22 3 10 6 29 9 60 5 38 7 77 7 116H629V92c0-15 0-25 1-31V34c0-23-10-34-28-34s-27 6-27 18c0 13 1 31 3 53 3 22 4 42 4 58v276H452c-52 0-83-2-94-7l-18 42c26-5 63-8 112-8h130v129h-77c-46-2-77-4-95-7l-18 46c28-8 66-12 113-12h77v133H472c-47-2-79-4-97-7l-19 46Z"/></symbol><symbol id="纭_G" viewBox="0 0 1000 1000" data-size="21"><path transform="matrix(1 0 0 -1 37 950)" d="M432 782h314l41 50 63-56c2-4 3-7 4-10 0-8-5-12-14-12H518c-15 0-38-2-69-8l-17 36m138-329c56-20 85-33 86-39 1-4 0-7-4-9-4 0-10-2-19-6-11-2-18-6-22-12-4-5-24-35-60-92-35-57-84-124-147-202l393 19c-12 29-26 56-41 82-15 22-34 49-57 78l12 12c45-40 78-73 100-100 22-25 40-51 54-76 14-24 19-46 16-66-2-17-8-29-18-35-8-6-15-7-23-4-8 4-14 13-18 30-3 15-8 35-15 60-155-16-256-27-305-33-49-5-89-18-119-37l-53 76c22 1 41 8 59 20 15 12 47 59 93 141 45 82 75 147 88 193M313 862c9-8 9-14 0-18-17-1-28-4-34-10-6-4-23-27-52-70-30-43-81-107-153-193l201 9c32 41 59 87 82 139l69-43c11-8 10-14-4-19-18-3-32-10-43-22-10-12-38-47-84-103-45-57-110-130-195-219l289 37 4-20c-150-27-235-45-256-52-20-6-43-18-67-35l-45 66c16 4 33 11 51 21 18 19 43 47 76 84 31 37 69 86 114 145-73-8-123-16-151-25s-49-18-62-28L0 563c23 8 42 19 57 33 37 41 72 91 105 150 33 58 59 109 78 155l73-39m82-651 5-15L125 87c-23-13-45-27-64-43l-51 61 385 106m-49 285h467l41 51 68-56c2-4 3-7 4-10 0-8-5-12-14-12H432c-15 0-37-3-69-8l-17 35Z"/></symbol><symbol id="纮_G" viewBox="0 0 1000 1000" data-size="21"><path transform="matrix(1 0 0 -1 37 942)" d="M377 649h158c14 60 29 139 43 237 59-24 89-39 92-43 2-4 2-7 0-8-1-1-3-2-8-4-4-2-14-8-31-19-14-60-27-114-39-163h215l43 57 72-64c2-2 3-5 4-8 0-8-5-12-14-12H586c-20-79-44-156-72-230s-61-142-98-204C379 129 329 68 268 6l-16 10c50 60 92 120 125 178 31 57 60 123 86 200 27 74 49 150 68 228h-76c-14-1-29-6-47-16l-31 43m61-562 48 12c22 33 47 77 73 130 25 54 46 101 64 143 17 41 33 82 49 123 53-23 80-37 82-41 2-2 2-4 0-8-3-2-8-4-16-8-7-3-14-8-21-15-7-8-22-32-45-72-22-39-47-84-76-135-30-50-57-92-82-127 140 12 242 21 304 27-15 31-28 55-37 72-10 17-26 43-49 79l14 9c43-39 76-74 100-105 21-30 36-53 45-68 7-16 11-33 13-50 0-16-4-29-13-39-8-10-18-14-30-12-11 1-18 12-19 33-2 22-7 40-14 56-161-20-254-34-279-42-26-6-51-16-74-29l-37 67M281 841c10-8 10-14 0-18-15 0-27-4-35-11-8-8-25-30-53-67-26-37-67-90-121-158l155 2c27 48 48 90 64 125l64-35c8-6 6-13-3-20-10-3-19-8-26-15-8-8-33-42-76-104-43-61-92-123-148-187l257 39 4-22c-132-30-209-48-232-55-22-5-44-17-67-35l-44 67c22 6 41 13 54 21 18 15 35 35 53 61 17 24 47 71 90 138-50-5-86-12-110-19-24-6-43-14-56-24L8 587c19 4 37 14 53 29 35 52 63 99 85 139 23 39 43 81 61 127l74-41m55-627 6-20-235-99C85 84 64 70 45 53L0 118l336 96Z"/></symbol><symbol id="纯_G" viewBox="0 0 1000 1000" data-size="21"><path transform="matrix(1 0 0 -1 50 946)" d="M330 715h240v177l82-33c2-2 4-5 4-8 0-2-4-6-10-10l-27-11V715h147l41 50 68-60c2 0 3-2 4-6 0-8-4-12-12-12H619V336h135v261l72-31c5-2 7-4 8-8 4-6-6-12-29-19V365l4-74c-1-10-8-18-22-24-12-6-23-10-33-10v51H619V89c0-21 3-34 10-38 6-4 17-7 31-7h133c22 5 34 14 37 25 3 10 6 18 8 24 1 6 3 49 8 127h15c2-39 4-69 6-89 1-21 13-39 33-54-11-29-24-49-37-59-14-10-37-15-68-17H658c-25-1-43 0-53 4-9 2-18 9-25 23-6 12-10 31-10 55v225H447l-25-35-63 47c18 12 28 23 30 35v252l74-29c6-3 8-6 6-10 0-3-11-9-31-19V336h132v351H416c-14 0-36-2-66-8l-20 36m27-516 6-18L111 73C80 56 60 43 51 34L16 95l341 104m-93 650c4-2 5-6 2-9-2-3-6-6-12-8-14 0-33-24-59-71-23-46-65-119-125-218l141 13c31 52 53 98 64 137 45-25 69-40 71-43s2-6 0-10c-3-2-8-4-16-8-8-3-17-10-27-19-8-8-30-41-65-100-35-58-84-127-148-209l234 45 2-17c-72-20-129-37-170-53-40-16-69-30-86-43l-45 68c8 2 24 9 47 22 35 43 80 112 133 209-47-10-82-18-105-26-23-6-43-15-61-27L0 543c25 7 42 17 51 31 10 12 31 50 64 115 31 64 56 130 74 197l75-37Z"/></symbol><symbol id="纰_G" viewBox="0 0 1000 1000" data-size="21"><path transform="matrix(1 0 0 -1 46 948)" d="M633 896c49-20 79-32 90-38 2-5 0-10-6-13l-35-14V491c70 80 118 147 144 199 48-29 72-46 72-52 1-7 0-10-3-10h-14c-7-1-18-6-33-16-14-9-69-61-166-154V104c0-21 4-32 11-34 8-2 17-3 28-4h74c10 2 19 4 27 6 9 2 16 13 20 32 4 16 7 67 10 153h21c1-77 4-121 8-133s13-22 27-32c-3-14-10-28-21-41-11-15-21-23-32-26-9-2-23-3-41-4H699c-18 1-32 4-43 10-10 4-16 12-19 24-3 11-4 26-4 43v798m-229-20 88-35c2-2 3-5 4-8 2-3-1-6-8-10l-33-13V536h61l33 43 56-51c2-2 2-4 2-7 1-5 0-8-3-8H455V109l139 89 13-15c-76-59-121-96-136-113-16-15-33-39-53-70l-57 59c19 10 34 22 43 37v780m-152-23c10-8 10-14 0-18-12-4-22-9-27-14-7-4-24-30-51-78-28-47-65-105-111-172l152 4c33 65 58 117 74 158l66-39c8-7 6-14-7-19-14-4-24-10-32-18-5-8-28-43-66-107-37-65-89-141-154-231l269 45 4-19c-129-33-204-53-224-59-21-6-43-17-67-35l-49 66c15 4 29 10 43 20 19 21 37 46 55 74 16 27 42 74 80 143-49-6-82-12-100-18-17-4-37-14-60-29L0 563c16 6 31 16 45 30 21 35 46 80 74 135 26 54 47 107 65 160l68-35m107-641 8-18L123 90C92 73 70 57 59 41L6 105l353 107Z"/></symbol><symbol id="纱_G" viewBox="0 0 1000 1000" data-size="21"><path transform="matrix(1 0 0 -1 29 965)" d="m615 931 86-35v-6c0-4-2-6-6-6l-29-16V427l4-76c0-11-8-23-24-34-13-10-25-15-35-15l4 123v506m-60-241c3-2 6-3 8-5 2-6 0-10-6-12-11-3-21-6-28-10-8-4-23-27-47-70-22-42-65-105-130-190l-16 6c54 94 90 164 109 209 19 44 34 80 43 108l67-36m193 38c51-38 89-68 115-90 25-24 45-47 61-71 15-23 21-43 15-60-5-16-14-24-25-26-12 0-20 6-25 18-6 11-13 27-22 49-8 21-21 45-39 70-18 24-48 56-90 98l10 12m109-307c-8-2-21-14-39-35-52-75-103-133-152-174-47-42-100-80-158-114-57-34-143-66-256-98l-6 18c106 35 191 74 256 116 64 42 121 90 172 142 49 52 94 119 135 202 43-25 65-40 68-45 1-4-1-7-4-8s-8-3-16-4M406 235l4-17c-183-56-285-87-305-96-18-7-40-18-66-34L4 149l402 86M297 872c4-2 5-6 4-12-2-2-5-4-10-6-17-1-48-33-92-97-43-63-88-122-133-178l176 10c41 70 69 123 82 158 45-23 69-37 71-41 0-3-1-5-2-8-2-2-8-5-18-8-8-2-16-7-23-15s-34-46-81-113c-45-67-103-139-173-217l291 41 4-18c-116-25-192-42-227-51-34-9-66-21-98-35l-45 67c20 3 40 9 59 19 38 40 89 107 150 201-62-6-105-13-128-23-22-8-43-16-65-25L0 577c15 0 29 6 43 18 12 9 42 54 92 133 47 78 77 138 92 181l70-37Z"/></symbol><symbol id="纲_G" viewBox="0 0 1000 1000" data-size="21"><path transform="matrix(1 0 0 -1 46 956)" d="m400 876 63-43h342l37 39 58-41c7-4 9-8 6-14 0-4-10-13-31-25V102c1-25-4-45-16-61s-37-30-74-41c-6 20-14 34-23 43-10 10-43 23-100 41l6 18c52-14 86-22 102-24 15-2 28-2 39 0 9 3 15 12 15 26v706H451V142l4-89c0-10-6-20-17-30-12-9-26-14-42-15l4 143v725m383-188c4-2 6-5 6-7 2-6-2-10-12-12-13-4-22-10-27-20-5-8-14-26-27-54-13-27-32-63-57-110 33-47 57-85 70-113 13-27 19-49 20-64-1-16-4-28-10-36s-16-11-27-9-18 15-22 39c-4 21-9 43-17 64-7 20-18 46-34 80-48-78-104-147-166-207l-11 12c58 74 109 151 154 232-46 64-92 125-139 184l12 8c46-40 94-92 143-156 28 60 54 128 78 205l66-36M365 231l6-17c-162-50-252-80-269-90-18-10-36-22-55-38L8 153l357 78M189 911l73-33c4-3 6-6 6-10 0-3-4-6-12-10-16 0-40-29-72-87-34-59-73-120-120-184l172 16c34 53 57 97 71 130 43-27 65-43 68-46 3-4 3-7 2-10-1-2-7-4-16-6-9 0-17-4-23-12-7-6-33-41-80-105-45-63-100-132-164-207l275 35 4-18c-106-21-176-37-209-47-34-8-64-20-92-37l-39 73c12 1 26 5 41 13 37 43 88 115 155 217-66-12-108-21-127-27-20-4-38-12-55-24L0 587c14 2 27 9 41 21 12 10 37 52 76 127 37 73 61 131 72 176Z"/></symbol><symbol id="纳_G" viewBox="0 0 1000 1000" data-size="21"><path transform="matrix(1 0 0 -1 56 965)" d="m400 755 53-39h143v215l80-30c5-3 6-6 2-9 0-3-11-10-32-20V716h151l31 41 53-45c4-2 7-6 8-12-1-4-10-13-28-29V102c1-28-4-49-15-65-12-14-33-27-65-37-6 24-19 40-39 49-19 8-45 19-78 31l6 18c38-11 65-19 80-22 14-2 27-2 41 0s21 12 20 29v583H645c-2-68-7-133-16-195 55-45 92-82 111-109 19-28 30-50 33-67 4-16 2-30-3-43-6-12-15-17-26-15-12-1-19 12-23 37-2 23-10 49-24 78-13 27-37 60-72 98-8-39-18-71-29-96-13-24-28-49-45-74-18-24-51-55-100-92v-84l4-75c-1-10-8-20-21-30-13-8-25-13-38-13l4 126v621m51-522c28 26 54 57 78 94s41 84 51 141c9 56 14 130 16 220H451V233m-101-9 5-16c-156-54-244-86-261-95-18-9-33-19-45-29l-35 65 336 75m-88 654c4-3 6-7 6-14-2-2-5-4-10-6-16 0-43-32-80-95S102 642 61 589l168 2c38 58 64 105 78 140 45-31 67-47 68-48 0-2-1-5-2-8-2-2-6-4-14-6-7-2-15-7-23-14-7-6-33-39-80-99-46-60-101-127-166-203l250 27 4-20c-88-13-151-25-188-35-35-10-65-22-90-37l-43 68c13 4 30 10 49 18 37 42 86 107 145 195-61-6-100-11-119-17-20-4-41-12-65-24L0 591c15 1 25 4 31 10 6 3 20 20 41 50 20 30 43 71 67 123 22 51 41 98 54 141l69-37Z"/></symbol><symbol id="纴_G" viewBox="0 0 1000 1000" data-size="21"><path transform="matrix(1 0 0 -1 43 931)" d="M807 761c-54-6-114-15-180-26V421h180l39 49 62-57c2-2 4-4 6-8 0-8-4-11-14-11H627V35h160l43 50 55-56c2-2 3-5 4-9 0-8-4-12-12-12H422c-14 0-37-2-68-8l-22 35h246v359H377c-14 0-37-3-68-8l-14 35h283v305c-68-8-141-16-219-24l-2 18c188 34 332 69 432 107l51-51c8-9 7-16-4-19l-29 4m-541 60c9-8 9-13 0-17-17 0-27-4-32-12-4-7-19-27-46-63-26-35-67-97-124-185l165 6c32 53 56 99 72 137l70-43c11-8 10-15-4-20-17-1-29-5-35-14-5-8-29-43-74-103-45-59-96-123-153-190l254 36 4-22c-127-25-203-42-226-49-23-6-46-19-69-37l-45 67c23 5 43 13 61 23 18 21 35 45 53 70 15 26 43 67 82 123-71-6-115-13-131-21s-31-16-45-26L0 544c20 4 37 14 53 29 37 69 65 123 84 160 17 38 34 80 51 129l78-41m113-615 6-19L107 75C85 65 64 51 45 33L0 91l379 115Z"/></symbol><symbol id="纵_G" viewBox="0 0 1000 1000" data-size="21"><path transform="matrix(1 0 0 -1 28 965)" d="M525 892c6-4 8-8 8-12 0-1-13-9-41-22-7-143-12-242-15-296 58-38 95-67 113-86 17-20 27-38 31-53 4-14 3-27-2-41-4-13-13-19-25-20-13 0-22 12-28 37-4 26-13 49-27 71-14 21-36 44-66 68-9-113-34-211-75-293-39-82-107-159-205-231l-11 11c80 75 134 143 164 204s50 116 60 165c9 48 17 97 22 148 3 50 8 180 13 389l84-39m245-6c5-5 7-9 7-14 1-1-12-8-39-21-8-145-11-235-11-270 22-124 42-213 60-268 17-54 40-101 68-140 28-37 57-62 88-73V82h-37l-25-6-29-15c-32 52-58 105-79 159-21 52-41 152-60 299-8-85-22-157-43-215-20-58-49-112-86-162-36-49-90-96-162-142l-12 12c49 36 92 79 129 130 37 50 66 105 88 164 21 58 37 129 47 213 9 84 14 218 14 402l82-35M330 239l4-15c-143-44-223-71-238-80-16-10-30-20-41-29l-43 64 318 60m-64 657c6-8 2-14-12-18-18-3-44-33-78-92-35-59-75-120-119-183l168 15c37 69 61 119 74 153 49-28 73-43 74-45v-8c0-4-5-7-14-8-7 0-15-4-23-12-7-5-34-41-80-109-45-66-100-136-166-209l258 37 4-20c-94-18-157-33-192-44-33-10-62-22-88-36l-43 67c10 4 25 10 45 17 37 41 84 106 141 198-59-17-98-28-117-34-20-3-39-11-59-23L0 603c15 1 29 10 43 27 13 17 37 60 72 131 34 68 58 125 73 170l78-35Z"/></symbol><symbol id="纶_G" viewBox="0 0 1000 1000" data-size="21"><path transform="matrix(1 0 0 -1 22 950)" d="M676 866c5-4 8-6 8-8 0-5-12-12-36-19 22-54 45-100 71-139 25-40 58-76 97-109 39-32 86-55 139-69v-15c-28 0-47-2-57-6-9-5-21-13-35-25-35 28-65 56-90 84-24 26-48 60-72 101-24 39-48 95-72 168-36-76-82-152-139-228-56-75-115-136-176-184l-9 14c56 56 110 124 162 203 51 77 93 166 127 265l82-33M479 503c52-18 80-29 85-35 5-3 4-7-3-10l-32-18V280c68 46 139 103 213 172 39-36 58-56 57-60-2-6-7-8-14-6-8 2-16 1-25-2s-33-16-74-39c-42-24-94-54-157-90V80c0-21 4-32 12-33 8-2 16-3 23-4h190c16 2 29 4 41 6s21 14 27 37c5 19 10 73 14 161h19c2-74 4-119 6-135 2-13 12-24 30-34-5-23-13-40-26-51-11-10-23-17-35-19-12-3-29-5-51-8H563c-18 0-34 2-47 6-13 2-23 11-32 25-4 10-5 26-5 49v423m-83-303 4-17C225 118 128 80 109 68 92 57 77 47 66 37L25 99l371 101M289 839c4-3 6-6 6-10 2-3 0-5-6-8-20 0-51-31-92-93-41-64-88-125-142-186l189 12c37 66 61 117 74 152 47-25 71-40 73-43s1-6-2-10c-3-2-8-4-16-7s-16-8-23-16c-8-6-34-43-79-111-43-67-97-137-162-211l270 48 2-21c-100-23-168-41-205-53-36-12-65-25-86-39l-41 65c10 2 25 7 47 15 36 45 82 115 138 211-63-8-106-15-130-23-24-6-45-15-65-26L0 550c15 1 31 10 49 25 15 15 45 58 88 131 41 72 69 129 86 172l66-39Z"/></symbol><symbol id="纷_G" viewBox="0 0 1000 1000" data-size="21"><path transform="matrix(1 0 0 -1 24 961)" d="M404 470h334l33 37 55-45c4-2 6-6 6-12 0-2-10-10-29-23-10-174-17-276-20-305-2-28-12-53-27-75-16-20-44-35-84-47-7 24-17 40-31 49-15 6-45 17-90 33l6 18c33-8 58-14 74-18 16-2 30-4 43-6 12 0 23 3 35 12 11 8 18 22 21 42 4 19 10 124 20 314H576c-6-97-19-170-41-216-21-47-56-89-105-126-49-38-112-70-188-96l-8 14c80 37 141 77 182 120 41 41 68 84 82 129 12 43 20 101 23 175h-54c-13 0-26-2-39-7l-24 33m326 426c7-3 10-6 8-8 0-2-4-6-11-12l-26-16c8-55 24-106 47-154 24-47 52-84 84-111 31-28 70-49 119-63v-17c-20 0-37-1-51-4-12-3-24-12-37-28-27 16-55 43-84 82-29 38-53 82-72 133s-36 125-49 221l72-23m-197-30c52-23 80-37 84-41s5-9 4-13c-3-4-11-7-25-8-15-2-30-19-45-49-16-30-40-72-72-127s-77-113-135-176l-14 10c48 68 90 137 125 209 33 70 59 135 78 195M367 224l4-18c-159-45-247-72-266-82-17-8-35-19-54-34L6 155l361 69m-70 648c-3-2-11-4-22-8-9-2-29-26-58-72-28-45-78-117-153-217l170 16c47 74 77 128 90 162 50-26 76-41 78-45 1-4 0-7-4-8-2-2-7-4-17-8-11-2-22-9-33-23C247 525 164 416 98 343l271 43 2-20c-96-20-165-37-207-51-41-14-72-29-94-44l-45 80c15-1 34 4 57 15 37 41 84 108 141 203-57-8-97-17-119-25-25-8-47-18-69-29L0 579c33 12 57 31 72 57 78 125 126 220 145 287 54-22 82-35 84-41 0-5-1-8-4-10Z"/></symbol><symbol id="纸_G" viewBox="0 0 1000 1000" data-size="21"><path transform="matrix(1 0 0 -1 34 954)" d="M818 829c-35-6-84-16-148-29-1-106 1-196 4-268h131l43 55 68-63c2-2 3-5 4-9 0-6-3-9-8-8H678c2-39 7-76 13-111 6-34 15-70 28-108 13-37 27-69 43-96 13-26 30-51 51-74 19-21 32-30 39-28 6 2 13 18 19 48 6 29 16 70 29 123l20-6c-7-45-12-86-16-123-5-35-5-59 0-71 4-12 9-22 16-30 6-7 10-13 12-19 0-5-5-9-16-10-10-2-30 5-61 19-29 17-56 40-82 69-25 28-47 61-66 100s-35 82-47 131c-12 48-21 110-29 186H467V95l191 103 10-17C559 110 498 70 486 61c-12-10-29-29-50-57l-57 59c25 11 37 27 37 47v723l57-43c95 20 170 38 224 57 55 18 97 36 127 54l51-62c2-8-1-13-8-14-12 2-28 3-49 4M627 532l-4 258c-51-10-103-18-156-25V532h160M363 212l4-20C205 132 115 96 96 86 78 76 64 66 53 57l-39 67 349 88m-72 662c4-2 5-6 4-12-1-2-4-4-10-6-19-2-49-35-90-99-39-65-82-125-129-182l176 10c31 51 53 93 65 127 48-27 73-42 74-43v-8c0-4-3-6-8-8-6 0-16-4-27-11-11-6-40-40-86-104-45-62-100-129-164-203l269 37 2-21c-100-20-168-34-203-43-34-10-63-23-86-37l-45 64c12 3 28 10 47 21 35 41 86 110 152 209-70-11-115-21-134-29-20-6-39-14-59-25L0 573c23 4 42 14 57 30 13 13 40 57 80 132 37 73 64 131 80 174l74-35Z"/></symbol><symbol id="纹_G" viewBox="0 0 1000 1000" data-size="21"><path transform="matrix(1 0 0 -1 20 961)" d="M369 726h463l33 50 67-54c2-2 3-5 4-8 0-8-5-12-14-12H799c-18-111-41-203-67-275-25-71-50-121-76-151 16-23 39-48 69-76 29-26 63-51 103-74 37-22 82-39 133-52V57c-29 1-51-1-65-6-13-6-25-15-35-28-48 34-92 69-132 107s-73 74-100 107c-24-28-52-57-84-86-33-28-73-56-119-83S333 18 283 0l-4 16c54 29 100 56 137 82 37 24 70 49 98 75 27 25 56 58 88 98-28 37-55 91-81 162-26 70-44 159-56 267-33 0-57-4-74-10l-22 36m121-24c12-90 31-169 57-236 25-67 53-119 82-156 27 44 52 105 74 181s35 147 41 211H490m51 221c53-30 89-56 109-78s29-43 28-61c-2-17-7-29-16-35-9-5-18-5-27-2s-14 12-16 27c-1 13-8 32-21 55-13 22-35 49-69 82l12 12m-258-49c5-2 7-5 6-8 1-6-2-10-10-12-15 0-39-26-72-78-33-51-81-117-144-197l183 16c22 41 42 82 63 123l62-41c10-10 9-17-2-20-14 0-27-10-41-27-94-129-170-221-226-276l281 43 4-17c-114-27-188-47-225-59-36-10-63-22-80-37l-47 70c24 2 44 11 61 28 66 83 112 148 138 195-104-20-168-42-191-66L0 581c25 4 43 14 55 29 66 94 120 195 162 303l66-39m98-643 6-17c-169-55-263-88-283-100-18-11-32-24-41-38l-43 70 361 85Z"/></symbol><symbol id="纺_G" viewBox="0 0 1000 1000" data-size="21"><path transform="matrix(1 0 0 -1 38 969)" d="M557 931c56-30 93-55 111-77 18-19 25-37 23-52 0-15-3-25-9-31-7-7-16-10-28-10-11 0-19 9-23 27-2 18-7 35-14 51-6 17-29 45-68 82l8 10M404 726h407l41 54 68-58c2-2 3-6 4-12 0-7-4-10-12-10H564V536h190l31 39 53-45c6-3 9-6 10-9 0-4-11-14-34-30-4-186-9-297-13-332-5-33-13-57-26-73-11-14-23-25-35-35-12-8-29-16-51-24-6 24-15 41-27 49s-39 18-82 31l6 17c43-8 76-13 100-15 23 0 40 5 50 13 10 9 16 31 18 66 2 36 5 143 10 323H564c-3-87-14-160-33-221-17-61-51-115-101-162C380 82 312 40 227 0l-6 18c64 37 121 80 172 128 48 48 82 109 99 181 18 72 25 164 22 274v99h-26c-14 0-37-2-68-8l-16 34m-8-467 6-20c-172-59-269-95-293-107-23-11-41-23-54-34l-35 71 376 90M291 897c9-4 10-9 2-15-1-3-5-4-14-4-16-5-37-27-62-68-24-41-74-114-151-219l178 10c33 52 69 127 108 222 52-24 78-39 78-45 0-5-1-8-4-9-3 0-11-3-22-8s-30-30-56-74c-26-45-56-93-90-143-35-51-81-111-139-180l274 43 2-17c-91-22-157-39-198-53s-74-29-97-47l-47 76c10 2 28 10 54 24 34 39 76 103 125 189-51-6-86-12-103-16-16-1-43-11-82-29L0 593c19 4 37 13 55 29 88 139 142 244 164 316l72-41Z"/></symbol><symbol id="纺_H" viewBox="0 0 1000 1000" data-size="21"><path transform="matrix(1 0 0 -1 47 946)" d="M153 881c55-24 82-41 82-51 0-8-15-12-45-14-16-39-39-81-66-126-20-37-41-72-64-106l67 3c35 2 67 4 96 8l2 4c17 39 31 77 42 114 54-24 82-40 82-51 0-8-15-12-45-14-28-48-63-99-107-154-32-46-68-91-107-136 30 2 61 5 91 8 51 7 98 15 139 24v-18c-35-14-71-25-108-35-38-12-80-23-123-32-9-22-16-33-21-33-2 0-4 3-6 7-14 24-27 49-39 77 15 0 28 1 41 1 38 47 68 89 91 125 21 30 39 59 54 87-17-6-34-11-52-15-28-9-59-16-92-23-9-21-16-32-20-32-2 0-4 2-7 7-14 23-26 49-38 77 12 0 25 0 37 1 21 38 38 73 52 103 16 34 29 67 40 98 10 33 18 65 24 96m175-625 4-22c-36-27-69-48-97-64-30-18-58-33-86-46-25-14-52-25-80-34-7-24-13-36-17-36-5 0-21 27-48 82 40 6 75 15 106 26 30 8 62 20 98 36 35 14 75 33 120 58m236 637c16-13 30-25 41-38 14-11 25-23 33-34 9-10 15-20 18-28s4-16 4-23c0-14-2-25-6-32-1-2-2-4-3-4h134l44 50 69-53c6-3 8-6 8-10 0-9-5-14-15-14H555c0-73-2-135-5-186h214l36 33c23-14 40-27 53-38 5-7 7-11 7-14 0-8-12-17-37-26-5-90-13-165-23-227-12-64-23-110-33-140-13-27-25-47-38-59-15-15-31-28-48-37-15-7-27-11-36-11 0 10-3 19-9 24-7 9-43 23-109 41l5 21c61-14 101-21 121-21 12 0 23 3 34 7 7 3 14 9 20 20 8 11 18 32 27 60 9 29 18 71 25 127 8 54 13 125 17 213H548c-1-17-2-32-4-45-9-63-21-117-38-163-18-48-38-89-60-123-26-38-53-70-80-96-26-24-58-47-95-67l-11 19c31 22 58 44 82 65 20 22 39 46 57 72 18 29 35 60 51 95 15 32 26 67 35 106 8 41 13 86 17 137 4 50 6 121 6 213h-38c-46-1-78-4-95-7l-20 46c29-8 67-12 115-12h150c-2 6-3 11-5 17-4 16-9 31-15 45-7 14-14 28-22 41-8 12-18 26-31 42l17 14Z"/></symbol><symbol id="纻_G" viewBox="0 0 1000 1000" data-size="21"><path transform="matrix(1 0 0 -1 34 924)" d="m832 649 35 39 49-48c10-9 15-16 16-22 0-2-5-5-16-8-18-2-35-13-53-35-15-20-34-45-54-74l-20 8 45 115H473c0-47-6-80-18-100-11-19-24-31-39-35-14-2-25-1-35 4-9 4-12 11-10 22 1 9 9 19 22 29 11 8 23 25 37 51 11 25 19 60 21 103h20v-49h361M555 837l8 12c44-20 76-37 93-53 18-14 30-31 35-49 6-18 6-32-2-43-7-12-18-17-31-16-12 0-19 8-21 24-3 14-8 31-16 51-8 19-31 43-66 74M350 35h463l41 52 60-56c4-2 6-5 6-10 2-7-2-11-12-11H432c-13 0-35-2-67-8l-15 33m-94 743c10-7 10-13 0-17-12-2-22-6-29-12-7-5-24-29-51-72-28-43-65-96-112-158l166 2c28 44 49 86 65 126l72-37c11-7 10-14-4-19-15-4-27-11-35-20-8-8-33-41-74-99-39-58-90-121-152-192l250 39 5-21c-125-27-200-45-224-53-23-6-46-19-69-37l-44 66c20 4 39 10 56 20 22 23 41 48 59 74 17 26 45 70 86 131-58-6-100-12-127-20-28-5-49-13-63-23L0 519c20 3 37 13 53 29 27 45 52 91 74 137 21 44 41 89 59 134l70-41m127-609 6-20L107 44C85 34 64 20 45 0L0 65l383 104Z"/></symbol><symbol id="纼_G" viewBox="0 0 1000 1000" data-size="21"><path transform="matrix(1 0 0 -1 61 959)" d="M369 864h231l23 32 57-38c4-4 6-8 6-13 0-4-10-11-30-20V688l4-78c0-11-6-20-19-27s-24-10-34-10v45H457l-16-185h155l33 33 49-39c8-3 11-7 11-10 0-4-9-12-29-23-8-140-14-223-17-250-4-26-16-50-36-74-19-23-53-42-101-56-5 20-14 34-27 43-12 8-40 20-83 37l6 17c74-22 122-28 145-17 21 10 35 29 43 57 6 28 13 113 21 254H453l-33-25-57 43 32 21 19 237 47-35h146v193H428c-14 0-26-2-35-6l-24 31m428 55 76-37c4-2 6-4 6-6 0-5-2-8-6-10l-25-12V136l4-97c0-9-7-18-22-25-14-9-26-13-37-14l4 140v779m-520-66c10-8 10-14 0-18-16-1-27-4-33-10-6-4-25-27-56-68-32-42-73-96-124-162l161 2c20 37 39 75 56 113l71-37c11-8 9-14-4-20-15-2-26-7-34-15-7-8-31-41-72-100-41-57-90-116-144-178l234 36 6-20c-116-26-186-43-209-51-24-6-47-19-70-37l-43 66c22 6 43 14 60 24 18 21 37 46 59 74 19 29 46 70 80 123-67-6-108-12-125-19-18-6-33-14-47-24L0 595c20 4 37 13 53 29 32 48 60 94 84 137 23 43 44 87 62 133l78-41m110-600 6-20-274-118c-22-11-43-27-62-47L8 126l379 127Z"/></symbol><symbol id="纽_G" viewBox="0 0 1000 1000" data-size="21"><path transform="matrix(1 0 0 -1 30 929)" d="m807 817 56-46c5-2 7-6 8-12 0-6-12-15-35-26L809 33h31l39 50 57-56c2-2 3-5 3-9 1-6-2-10-9-10H369c-21 0-47-2-80-8l-14 33h227l25 372h-88c-15 1-33-2-52-9l-18 37h158l18 320H438c-15 0-28-3-40-8l-15 33h396l28 39M549 33h211l15 372H576L549 33m27 400h199l12 320H596l-20-320M406 185l6-18C218 103 112 66 94 57 76 47 61 37 49 27L10 91l396 94M291 821c5-2 7-7 6-13-4-2-9-4-14-6-14 0-40-28-78-84-36-56-87-119-150-190l193 10c48 78 78 134 90 168 45-27 68-43 70-47 0-3 0-6-2-10-2-2-7-3-13-3s-13-4-22-12c-8-7-39-47-92-121-52-73-112-147-179-223l263 43 4-20c-94-21-158-37-193-48-35-10-65-22-90-36l-47 65c11 3 28 10 51 21 35 41 85 109 150 204-58-9-101-16-129-22-27-6-50-14-70-25L0 536c16 2 31 10 47 24 16 13 37 41 64 82s48 77 63 109c15 30 31 66 47 107l70-37Z"/></symbol><symbol id="纾_G" viewBox="0 0 1000 1000" data-size="21"><path transform="matrix(1 0 0 -1 41 961)" d="M762 905c47-43 71-66 70-70 0-4-2-7-6-8-2-1-10-2-23-4-14-2-32-14-53-37-20-22-57-62-109-121 15-16 24-31 27-45 2-14-1-25-8-33-8-9-17-13-29-12-13 1-23 13-31 33-9 22-22 41-39 59-19 17-47 40-86 68l5 14c40-16 68-27 86-35 19-8 37-20 55-35l111 162H438c-10 0-22-3-36-8l-31 35h358l33 37M316 563h491l33 36c49-34 74-53 76-57s2-7 0-8c-2-2-8-4-20-6-10-2-25-11-44-27-21-16-51-52-92-107l-18 9 71 133H639V107c1-30-6-54-22-72-15-17-36-29-60-35-6 20-17 35-32 47-15 10-50 23-105 41l4 17c85-19 135-26 148-21 12 5 17 19 16 44v408H391c-15 0-30-2-45-8l-30 35m-56 321c10-8 10-14 0-18-13-2-22-6-28-12-6-4-21-27-44-68-24-40-63-99-118-180l164 2c41 71 69 123 84 159l67-39c10-8 9-15-4-20-16-1-27-5-35-14-8-7-35-47-82-117-47-68-101-139-160-211l263 33 4-21c-137-26-215-42-236-49-20-6-41-17-65-31l-37 66c18 5 33 11 47 20 17 15 36 37 57 66 19 29 49 74 88 137-69-4-112-10-129-18-18-6-36-12-55-19l-29 62c15 4 30 11 45 22 22 31 46 74 72 129 25 53 47 106 66 160l65-39m125-629 8-20-282-123c-22-12-43-27-62-46L0 126l385 129Z"/></symbol><symbol id="线_G" viewBox="0 0 1000 1000" data-size="21"><path transform="matrix(1 0 0 -1 31 959)" d="m830 737 68-49c4-2 6-5 6-9 0-5-6-8-19-10l-311-51 12-150 238 43 33 54 69-44c4-2 6-5 6-8 0-6-6-11-18-14l-324-55c5-33 12-63 19-90 6-26 18-56 36-91 36 30 82 84 136 160 42-26 64-40 67-43 2-3 2-6 0-10-3-4-10-6-22-6s-23-6-35-17c-44-43-86-82-127-118 18-28 39-54 65-78 25-22 50-40 76-53 25-15 41-21 47-20 5 1 9 12 13 34s12 72 24 149h17c0-53-1-94-2-123 0-28 2-52 8-72 6-17 12-30 18-39 6-6 9-11 8-17 0-3-4-6-12-8-7-2-20 0-39 6-18 4-42 13-73 27s-63 35-95 65c-32 26-61 59-86 98-51-36-102-70-153-100-51-32-117-62-197-92l-6 17c78 34 168 87 268 158l64 52c-15 32-29 65-41 100-9 35-18 70-25 104l-117-24c-16-3-32-7-49-14l-29 30 189 33-12 150-87-15c-14-3-25-7-32-14l-27 31 142 22v283l81-27c3-2 7-6 9-12 0-4-13-12-39-24V644l229 39 29 54M668 880c46-20 78-34 96-43 15-10 25-22 31-35s6-25 0-37c-6-13-14-19-25-18-12 0-20 7-24 22-4 13-12 27-21 41-10 13-32 31-65 56l8 14M422 239l6-17C237 142 132 96 113 82 95 71 82 61 74 51l-43 61 391 127M270 866c3-2 5-6 5-10s-2-7-7-9c-14 0-41-34-82-100-41-67-83-129-125-185l179 13c43 76 71 131 82 164 47-29 71-45 71-47v-7c0-4-3-7-10-8-8-2-16-6-26-12-8-5-36-44-84-115-46-70-101-141-164-215l256 47 4-20c-99-26-167-45-201-56-34-12-64-26-92-43l-39 72c13 1 27 6 43 14 37 40 86 108 149 203-63-10-104-18-124-24-19-6-39-14-58-25L0 563c16 2 33 13 51 34 17 19 44 64 80 136 35 71 58 127 70 170l69-37Z"/></symbol><symbol id="绀_G" viewBox="0 0 1000 1000" data-size="21"><path transform="matrix(1 0 0 -1 30 964)" d="M354 665h117v244l82-27c3 0 6-2 8-6v-8l-40-17V665h233v248l84-37c4-1 5-5 4-10 0-2-1-4-4-6l-35-15V665h35l39 49 59-59c2-2 3-4 3-8s-3-7-11-7H803V128l4-81c0-9-7-18-20-26-13-7-24-11-33-11v78H521V37c0-9-7-17-21-25-13-8-24-12-33-12l4 128v512h-47c-16 0-32-3-49-10l-21 35m167-552h233v261H521V113m0 286h233v241H521V399M289 888c10-8 10-14 0-18-14-2-23-6-29-10-7-4-26-29-57-74S129 679 74 601l166 7c35 61 61 110 76 147l67-39c11-8 10-15-4-20-16-2-27-6-33-13-4-8-30-44-76-110-47-66-102-137-165-215l254 45 4-21c-123-29-195-47-215-53s-41-17-62-35l-53 62c18 5 35 12 49 20 16 18 35 43 59 76 22 33 52 78 89 135-62-11-107-20-134-27-28-6-48-14-61-24L0 599c20 4 38 13 57 27 28 41 59 92 91 152 31 60 59 110 84 151l57-41m104-645 5-19-271-104c-28-11-52-26-72-44l-41 68 379 99Z"/></symbol><symbol id="绁_G" viewBox="0 0 1000 1000" data-size="21"><path transform="matrix(1 0 0 -1 23 962)" d="M311 587h105v289l74-31c7-4 9-7 8-10-1-4-12-12-33-23V587h113v332l78-29c9-4 13-8 12-12 0-4-3-7-8-8l-31-17V587h119v338l86-33c8-4 9-10 2-18l-37-18V587h53l37 53 60-57c2-2 3-6 4-12 0-6-4-9-12-11H799V308l4-94c0-9-7-17-22-26-14-9-25-13-33-11v76H629v-49c0-8-7-17-20-27-11-9-23-14-35-16l4 117v282H465V66h353l41 52 69-61c2-2 3-6 4-10-1-5-4-7-10-8H479L443 0l-62 49c19 12 31 23 35 33v478h-49c-12 0-25-3-37-8l-19 35m437-307v280H629V280h119M287 864c10-8 10-13 0-17-16-1-27-4-33-10-6-5-24-29-55-72-31-44-77-108-136-192l162 14c27 55 52 107 76 158l66-43c11-8 10-14-4-19-15 0-26-4-31-12-6-7-31-46-74-115-43-70-97-144-162-221l259 45 6-22c-121-29-193-47-216-54-23-9-46-22-69-39l-47 66c13 4 28 11 45 22 18 19 37 44 59 76 21 29 49 73 82 133-55-11-94-20-117-28-24-6-42-15-55-25L0 573c19 5 36 15 51 31 41 68 73 124 97 167 24 41 45 85 65 134l74-41m70-648 6-18-236-91c-22-11-42-26-61-44l-50 65 341 88Z"/></symbol><symbol id="绂_G" viewBox="0 0 1000 1000" data-size="21"><path transform="matrix(1 0 0 -1 23 969)" d="M279 901c10-7 10-13 0-17-14-2-25-7-33-14-7-8-24-32-51-72-26-40-73-103-138-190l173 6c38 61 65 111 83 151l64-37c10-8 9-15-4-20-16-3-26-8-31-16-7-8-31-43-74-103-43-59-98-127-164-205l267 43 4-20c-136-33-215-53-238-58-22-6-42-18-61-36l-47 65c18 7 35 16 53 25 18 22 38 47 61 76 21 29 48 68 80 116-65-9-108-17-129-26-22-6-39-15-51-25L0 608c17 4 33 14 49 30 43 67 76 123 99 168 24 43 45 87 63 132l68-37m43-632 8-18-213-105c-23-12-43-27-60-44l-47 57 312 110m71 445h105c7 60 12 131 16 211 56-16 86-26 88-29 2-4 1-7-2-10-4-2-9-5-16-8-7-4-12-8-16-12-2-4-4-17-7-41-2-23-6-60-12-111h273l35 53 63-59c2-3 3-6 4-10 0-6-5-10-16-10H545c-9-72-18-128-27-169h226l37 37 57-49c2-2 1-7-2-14-16-6-27-14-33-21-16-46-34-90-55-133-21-44-45-80-70-108 27-31 52-55 76-72 21-16 47-31 76-46s70-27 123-35V59c-26 0-46-2-60-6s-26-13-38-28c-42 24-80 49-113 77-34 26-64 58-92 96-35-41-83-79-142-114S391 25 336 10l-4 13c64 32 121 65 170 98 49 31 90 68 123 112-24 38-43 76-57 116-13 38-24 86-31 142h-27c-22-90-46-160-72-211s-56-97-90-140C314 98 264 51 197 0l-9 14c65 63 110 113 136 151s50 81 74 131c24 49 45 109 63 178 17 68 29 140 37 214h-45c-16 0-31-2-45-7l-15 33m168-221c20-103 50-180 89-228 18 21 37 52 57 93 18 39 33 84 47 135H561m84 381 5 16c32-10 58-22 80-36 22-13 38-28 47-42 10-14 13-28 10-41-4-14-11-22-19-24-8-3-16-1-24 4s-14 14-17 25c-4 11-11 26-22 43-12 17-32 35-60 55Z"/></symbol><symbol id="练_G" viewBox="0 0 1000 1000" data-size="21"><path transform="matrix(1 0 0 -1 40 969)" d="M342 802h183l47 136 61-35c6-2 9-6 10-9 0-3-12-10-36-22l-29-70h209l39 47 51-53c2-2 3-5 4-8 0-8-4-12-12-12H570l-54-158h115l33 37 53-39c5-4 8-8 8-13 0-2-11-10-34-24V442h123l41 55 63-64c1-2 1-5 2-8 0-5-3-7-8-8H691V104c2-25-2-46-11-63-10-16-32-29-67-41-5 21-22 38-50 49-28 10-56 21-84 33l5 16c39-12 71-20 96-24 23-4 39-2 49 6 8 7 13 14 14 22v315H459l-31-21-53 54c20 7 33 15 41 26l43 117h-31c-20 0-39-3-55-8l-19 33h111l53 158h-94c-14 0-36-2-67-7l-15 33m301-360v151H508l-55-151h190M455 206c-39-47-98-102-176-165l-11 12c63 64 112 120 144 167 33 45 59 85 76 119 47-26 71-41 71-45-1-5-4-8-8-10-3 0-11-2-22-4-10 0-35-25-74-74m303 115c60-49 101-88 121-115 19-27 29-49 29-66 1-16-2-29-10-38-6-10-15-14-27-12s-19 15-23 38c-4 21-11 45-22 70-12 25-38 63-78 114l10 9m-414-52 6-16C197 186 113 147 96 138c-16-10-30-19-41-27l-41 54 330 104M205 921l63-39c3-3 5-6 5-10 0-2-3-4-9-6-15 0-42-29-80-88-38-57-79-113-123-168l175 12c32 49 53 90 65 123 47-29 70-45 70-47 1-2-1-4-4-8-2-2-6-3-13-3-6 0-13-4-20-12-8-7-34-39-78-98-43-56-96-123-158-199l220 39 4-20c-71-18-125-33-162-44-36-13-66-26-92-40l-43 67c10 1 27 7 51 19 37 43 88 111 153 204-66-12-108-21-127-28-20-6-40-13-61-23L0 610c16 2 31 10 45 26 14 13 40 54 78 121 37 66 65 121 82 164Z"/></symbol><symbol id="组_G" viewBox="0 0 1000 1000" data-size="21"><path transform="matrix(1 0 0 -1 33 943)" d="m439 847 51-43h239l31 41 56-43c6-4 8-9 8-14 1-2-10-10-33-23V41h43l33 46c44-36 67-56 67-60 0-3-1-6-2-9-2-2-8-4-18-4H359c-26-2-43-6-50-14l-22 41h152v806m49-806h254v249H488V41m0 274h254v209H488V315m0 235h254v228H488V550M387 210l6-20C210 123 109 85 90 75c-18-8-32-18-43-28l-37 61 377 102M287 851c5-2 5-6 2-12-1-2-4-4-10-6-17-2-47-33-88-94-41-60-86-121-132-183l181 13c35 61 59 108 71 141 48-25 73-39 74-41v-8c-1-2-4-4-10-6-6 0-14-6-25-15-12-8-39-44-82-108-44-63-98-130-163-201l270 41 4-19c-102-23-170-40-205-51-33-10-63-22-88-35l-47 60 45 18c39 43 87 110 145 203-67-12-110-22-129-29s-37-16-57-28L0 554c16 1 31 11 47 31 14 18 41 62 82 133 38 68 66 124 84 168l74-35Z"/></symbol><symbol id="绅_G" viewBox="0 0 1000 1000" data-size="21"><path transform="matrix(1 0 0 -1 68 966)" d="m389 788 56-41h137v186l82-26c4-2 5-6 4-11 0-2-2-4-6-6l-31-16V747h133l31 41 62-47c4-2 6-5 6-8 1-4-10-13-33-29V356l4-74c0-10-5-18-14-25-10-6-23-11-39-14v74H631V124l4-85c0-7-7-16-20-25-12-9-25-14-37-14l4 126v191H438v-41c0-9-6-18-18-27-10-8-22-12-35-12l4 121v430m49-445h144v183H438V343m193 183V343h150v183H631m-193 26h144v170H438V552m193 170V552h150v170H631M354 220l5-18c-159-55-248-89-267-102-18-13-32-24-43-34l-39 68 344 86m-84 644c4-4 5-8 1-11 0-2-3-4-9-6-18 2-46-30-84-94-37-65-76-125-117-180l164 14c33 57 56 103 70 139 44-32 66-49 66-51s0-5-2-8c0-4-4-6-11-6-8 1-16-2-24-10-7-5-32-41-74-105-42-63-94-133-156-209l260 33 1-19c-95-20-160-34-195-43-34-10-64-24-92-43l-43 64c10 3 23 8 39 14 42 49 92 123 149 222-57-8-96-16-117-25-20-8-41-18-61-29L0 571c15 2 29 10 43 26 14 14 39 58 76 131 37 71 63 130 78 177l73-41Z"/></symbol><symbol id="细_G" viewBox="0 0 1000 1000" data-size="21"><path transform="matrix(1 0 0 -1 57 949)" d="m404 831 65-49h318l33 37 61-41c4-4 6-6 6-7 0-5-9-16-28-34V116l4-77c0-7-6-16-19-25-12-8-24-12-37-12v95H455V45c0-10-6-20-19-29-14-8-26-13-36-16l4 118v713m51-707h150v311H455V124m203 0h149v311H658V124M455 462h150v293H455V462m203 293V462h149v293H658M270 858c5-2 8-5 9-11 0-5-4-8-11-10-16 1-39-24-71-74-29-51-73-116-131-196l172 16c23 39 45 82 67 129l72-45c4-8 0-14-12-18-14 0-29-9-45-29-90-133-164-229-222-289l254 51 3-18c-95-25-160-45-195-58-34-14-58-28-74-41l-47 64c22 3 40 13 55 31 64 88 109 155 135 202-103-17-166-34-192-51L0 569c25 4 43 13 55 28 62 95 113 195 152 300l63-39m97-640 6-18L135 95c-30-17-50-32-61-46l-51 57 344 112Z"/></symbol><symbol id="织_G" viewBox="0 0 1000 1000" data-size="21"><path transform="matrix(1 0 0 -1 32 958)" d="m463 874 62-45h256l33 43 61-43c4-3 6-5 6-8 1-4-9-11-27-23V521l3-92c0-8-5-16-17-24-13-8-26-12-39-13v48H516v-15c0-9-7-17-20-26-14-7-26-12-37-13l4 123v365m53-406h285v334H516V468M277 14c73 64 129 122 168 173 38 48 74 101 108 158 49-30 73-47 74-51 0-5-3-8-8-10-4 0-13-2-25-6-11-4-24-13-39-29-14-15-42-46-84-92-41-46-103-98-184-157l-10 14m422 309 10 12c55-39 98-74 129-106 31-30 56-59 74-85s26-49 24-68c-1-17-6-29-14-37-7-6-16-7-27-4-10 3-18 14-24 33-4 19-14 42-27 72-13 28-31 57-55 86-23 28-53 61-90 97m-283-62 6-20c-186-69-288-109-307-119-17-10-32-19-43-28l-41 63 385 104M295 876c4-3 6-6 6-10s-3-8-8-10c-20 2-45-21-76-70-31-47-81-112-151-195l198 15c45 77 73 133 86 166 48-29 73-44 74-46v-8c-1-2-5-4-14-6-8-1-16-6-25-16-8-8-37-47-88-115-50-68-110-139-180-213l283 45 4-19c-110-26-183-45-220-57-38-12-69-25-94-39l-45 62c18 8 36 18 55 30 38 41 89 105 154 193-82-12-133-21-152-29-20-6-39-15-59-26L0 589c23 6 43 19 61 37 15 18 43 61 82 129 37 66 63 119 80 160l72-39Z"/></symbol><symbol id="织_H" viewBox="0 0 1000 1000" data-size="21"><path transform="matrix(1 0 0 -1 54 945)" d="M153 891c55-24 82-41 82-51 0-8-15-13-45-14-16-39-39-81-66-126-20-37-41-72-64-106l67 3c35 2 67 4 96 7l2 4c17 39 31 78 42 115 54-24 82-41 82-51 0-8-15-12-45-14-28-48-63-99-107-154-32-46-68-92-107-136 30 2 61 5 91 8 51 6 98 14 139 23v-17c-35-14-71-26-108-35-38-12-80-23-123-33-9-21-16-32-21-32-2 0-4 3-6 7-14 24-27 49-39 77 15 0 28 1 41 1 38 47 68 89 91 125 21 30 39 59 54 87-17-6-34-11-52-16-28-8-59-15-92-22-9-21-16-32-20-32-2 0-4 2-7 7-14 23-26 49-38 77 12 0 25 0 37 1 21 38 38 72 52 102 16 35 29 68 40 99 10 32 18 64 24 96m175-625 4-22c-36-27-69-49-97-64-30-18-58-33-86-46-25-14-52-25-80-34-7-24-13-37-17-37-5 0-21 28-48 83 40 6 75 15 106 26 30 8 62 20 98 36 35 14 75 33 120 58m70 594 60-42h309l-1 4 34 32c33-23 50-39 50-48 0-7-10-15-30-25V447c11-8 20-15 28-21 4-3 6-5 6-8 0-9-4-14-10-14H449v-60c0-8-5-12-15-12-6 0-14 2-24 6-8 6-12 14-12 23 0 12 1 27 3 46 3 15 4 46 4 95v289c0 27-2 50-7 69m51-428h322l2 2v357H449V432m46-112c32-13 58-27 79-40 4-3 6-7 6-10 0-6-4-10-11-12-11-4-22-7-32-8-14-23-30-46-48-68-18-24-38-45-59-65-19-19-41-40-67-60-24-20-50-39-79-57l-14 15c33 28 62 55 85 81 25 25 46 51 65 79 21 28 38 55 51 79 11 23 20 45 24 66m193-19c34-27 64-54 90-82 28-26 48-48 63-67 15-17 27-31 34-44 5-11 9-23 13-34 3-9 5-19 5-29-1-20-8-29-22-29-6 0-11 2-16 6-4 6-15 27-33 64-17 36-37 69-57 99-22 30-51 64-89 102l12 14Z"/></symbol><symbol id="终_G" viewBox="0 0 1000 1000" data-size="21"><path transform="matrix(1 0 0 -1 22 967)" d="M619 906c5-2 8-4 8-6 4-6 1-10-8-14-17-4-32-19-45-45l-23-52h195l29 37 59-45c6-5 9-10 10-16 0-2-7-6-20-11-10-4-21-18-35-41-40-73-78-133-115-180 35-30 64-53 88-68 23-16 50-30 80-43 28-12 66-22 113-30v-15c-22 0-40-4-55-12-12-7-22-15-31-25-39 18-76 41-111 68-35 25-70 57-106 96-34-38-78-78-132-120-54-39-116-71-186-95l-6 15c86 45 151 86 193 123 43 38 78 74 104 108-42 56-74 124-98 203-63-114-113-189-150-227l-12 10c41 70 74 134 102 192 27 56 54 130 82 222l70-29m-76-143c27-78 62-145 103-201 34 48 70 115 108 201H543m31-398c48-22 81-43 98-63 16-19 23-37 19-52-2-16-6-26-13-30-8-4-16-5-24-2-8 2-12 10-13 26-2 13-8 28-18 45-9 17-28 39-57 66l8 10m-94-195c81-12 148-26 204-43 54-17 89-36 105-58 14-21 18-38 12-51-7-12-16-18-28-17-11 2-23 9-35 23-12 15-37 34-74 57-37 22-100 46-187 71l3 18M273 886c4-2 6-4 6-5 3-6 0-11-9-14-16 2-40-24-73-76-31-53-75-119-131-200l170 14c32 54 60 110 86 166l71-37c3-8 0-14-12-18-15-1-34-19-57-52-94-144-164-245-213-303l295 61 4-20c-131-34-213-58-248-72-34-13-59-26-74-39l-43 66c21 2 39 12 53 29 60 88 103 153 129 198-98-18-159-35-182-53L0 591c23 6 42 17 57 34 60 92 110 192 150 300l66-39m163-646 3-18-294-107c-34-14-58-30-73-46l-41 63 405 108Z"/></symbol><symbol id="绉_G" viewBox="0 0 1000 1000" data-size="21"><path transform="matrix(1 0 0 -1 52 961)" d="M436 546h175c29 46 67 111 114 195H553c-74-125-149-220-223-287l-10 12c47 60 93 129 139 207 45 77 84 159 117 248 55-27 82-43 82-47v-8c0-2-6-4-17-6s-21-9-28-21c-8-12-23-36-47-72h159l33 35c44-37 66-57 66-59s0-4-2-8c0-4-6-6-17-7-12-2-26-11-43-26-16-15-57-67-123-156h158l33 41 61-49c4-3 5-5 5-8 0-4-11-13-35-29V142l4-107c0-8-7-15-19-23S822 0 811 0v86H488c-16 1-35-2-56-8l-26 34h405v196H520c-14 0-30-3-47-8l-22 35h360v184H484h4l-29-6-23 33M283 884c10-8 10-14 0-18-15-4-26-8-31-13-4-4-22-30-53-77-30-46-74-112-133-197l178 18c35 63 60 115 74 154l69-43c11-8 9-14-4-20-15 0-26-5-33-13-6-8-32-47-77-117-43-69-95-141-158-217l256 49 4-20c-130-37-204-59-225-66-20-8-40-20-60-37l-45 68c18 5 34 12 49 19 56 80 103 153 142 221-50-10-90-20-121-31-31-9-52-20-64-33L0 575c21 8 39 20 55 35 40 65 72 121 95 168s43 95 61 145l72-39m125-647 6-19L119 96c-18-12-37-27-56-45l-47 61 392 125Z"/></symbol><symbol id="绊_G" viewBox="0 0 1000 1000" data-size="21"><path transform="matrix(1 0 0 -1 32 966)" d="m215 905 70-35c5-2 7-6 8-10-1-2-4-6-10-9-19-1-92-88-219-262l192 14c33 54 58 101 74 140l66-39c6-4 8-8 8-12 0 0-4-3-13-7-14-4-30-15-47-34-79-109-154-207-225-293l276 53 7-15c-149-44-232-69-250-75-17-6-41-17-72-33l-39 66c20 6 37 14 53 24 17 18 35 39 54 64 19 24 51 69 96 135-74-10-123-19-146-27-22-9-39-18-53-28L0 589c21 4 41 17 61 41 91 135 142 226 154 275m201-664 6-17-303-98c-22-8-43-21-62-38l-37 65 396 88m-10 571c74-52 117-90 129-114s15-43 10-56-13-20-25-22c-13-1-21 5-26 18-4 13-11 31-19 54-9 22-35 58-79 110l10 10m393 13 64-39c7-3 9-6 8-10l-2-4c-25-5-45-19-60-41-38-54-71-97-100-128l-14 7c39 63 73 134 104 215M375 562h230v371l83-34c3-2 5-4 5-7 0-2-2-4-5-6l-32-22V562h139l35 48 66-56c2-3 4-5 4-8 0-8-4-12-11-12H656V347h178l35 50 63-58c2-3 3-6 4-10-1-8-6-12-16-12H656V136l4-95c0-9-8-18-23-27-16-9-28-14-37-14l5 132v185H430c-14 0-36-2-67-7l-15 37h257v187H461c-14 1-34-2-61-10l-25 38Z"/></symbol><symbol id="绋_G" viewBox="0 0 1000 1000" data-size="21"><path transform="matrix(1 0 0 -1 51 973)" d="M355 753h145v187l78-29c6-2 7-6 4-10 1-4-10-10-33-19V753h90v193l74-31c4-1 7-3 10-8 0-4-2-8-6-10l-29-13V753h89l28 35 56-43c5-3 7-6 8-10 0-4-10-11-31-23V610l6-68c0-12-7-21-20-29-11-7-23-10-35-10v43H688V392h119l25 33c46-29 68-45 66-47 0-3 0-5-2-8-1-1-10-8-27-21v-94c0-41-6-71-19-90-14-18-36-32-65-44-6 16-15 30-29 40-14 8-31 16-53 24l4 17c31-6 55-10 70-10 16 0 27 4 34 12 5 9 8 25 9 49 2 23 2 60 0 111H688V142l3-95c2-9-3-18-17-27-14-8-28-13-41-16l6 143v219h-98c-6-75-23-135-53-179-27-45-62-82-105-113-42-29-84-54-127-74l-6 16c44 30 81 58 113 86 32 26 60 61 86 104 24 44 39 97 45 160h-90l-23-29-57 55 30 21 31 207 51-47h64v153h-88c-14-1-24-4-31-10l-26 37m284-361v154h-90c0-73-2-124-6-154h96m-90 334V573h90v153h-90m139 0V573h101v153H688M494 392c6 49 8 101 6 154h-78l-24-154h96M361 233l6-19-248-101c-21-11-42-25-60-43l-47 66 349 97m-95 653c9-8 9-14 0-18-16 0-26-4-32-10-6-4-23-28-50-72-28-43-69-104-121-183l160 9c33 54 58 99 74 137l62-43c11-8 10-14-4-19-15-1-26-6-33-14-6-9-31-43-74-104-42-59-94-128-156-207l207 24 4-20c-83-17-136-30-160-37-24-8-47-21-71-39l-49 68c14 4 30 11 47 22 16 17 35 43 57 76 21 33 49 78 86 135-37-7-69-15-96-22-25-6-51-16-78-31L0 601c15 3 29 8 43 15 36 66 66 123 90 172 23 47 43 92 60 135l73-37Z"/></symbol><symbol id="绌_G" viewBox="0 0 1000 1000" data-size="21"><path transform="matrix(1 0 0 -1 59 962)" d="m590 925 90-35c2-3 3-6 4-8 0-2-2-4-6-6l-39-18V519h140v255l76-31c4 0 6-4 4-10-2-2-12-7-31-17V556l4-73c1-7-5-15-16-23-11-9-24-13-37-14v45H639V104h156v292l82-34c4 0 5-4 4-9 0-3-13-10-37-20V119l4-82c0-6-7-14-20-23-11-9-22-13-33-14v76H449l-33-35-59 47 32 23v290l86-25c5-5 4-10-4-16l-33-17V104h152v387H471l-32-31-52 51 25 15v260l82-31c6-3 7-6 4-10 0-4-12-10-35-17V519h127v406m-322-59c9-8 9-13 0-17-13-2-22-6-28-12-6-5-22-29-49-72-25-43-67-110-125-200l168 14c35 61 61 111 79 152l66-37c11-7 10-14-4-19-15-3-26-8-33-16-6-8-31-47-76-115-46-68-98-141-157-217l231 43 4-19c-119-32-188-51-205-57-16-6-35-18-59-35l-43 64c17 4 34 11 51 22 53 72 99 142 139 211-62-11-104-21-127-28-24-6-43-15-59-27L0 567c20 4 37 14 53 30 39 63 68 118 88 162 19 43 38 90 56 140l71-33m74-660 4-19-233-83C82 88 60 72 47 57L2 122l340 84Z"/></symbol><symbol id="绍_G" viewBox="0 0 1000 1000" data-size="21"><path transform="matrix(1 0 0 -1 63 950)" d="m803 425 52-43c6-2 8-6 8-12 0-4-10-12-31-23V122l4-79c0-10-6-20-18-29-11-9-24-14-37-14v76H494V43c0-10-6-20-17-29-12-9-25-14-38-14l4 132v293l57-35h268l35 35M494 101h287v263H494V101m55 705H441c-11 0-29-2-52-6l-20 31h410l30 37c41-26 62-41 64-45s2-8 0-10c-2-1-12-8-31-21-5-143-11-227-20-250-8-23-19-42-35-55-14-11-33-21-58-29-9 21-21 36-38 45-16 7-41 16-74 25l6 18c25-7 50-12 74-16 23-4 41-3 55 4 12 5 21 18 27 37 6 18 10 96 14 235H598c0-80-15-151-45-213-32-61-96-117-194-168l-11 12c87 60 142 118 166 173 23 54 35 119 35 196M383 224l6-16C208 140 109 100 92 90 76 80 63 70 51 61l-41 63 373 100M275 860c4-2 6-4 6-7 2-4 0-7-6-8-18-2-41-22-68-59S132 682 63 585l187 6c36 60 61 107 74 142 49-25 74-39 74-43 0-2-2-5-3-7-3-2-8-4-16-6-7-3-14-8-22-16-7-8-35-43-86-107-48-65-101-134-158-207l239 33 2-18c-86-18-146-32-180-43-35-9-65-21-88-35l-43 59c10 2 25 8 47 17 35 45 86 117 152 215-75-12-122-21-142-27-20-4-39-12-59-24L0 585c17 3 30 8 39 14 9 5 33 43 72 111 39 67 72 130 98 189l66-39Z"/></symbol><symbol id="绎_G" viewBox="0 0 1000 1000" data-size="21"><path transform="matrix(1 0 0 -1 27 951)" d="M389 396h199v130l78-27c5-2 7-4 8-6 4-2 4-6 0-10l-35-13v-74h125l35 42 56-50c2-2 4-5 4-8 0-8-4-12-13-12H639V243h181l41 45 59-53c2-2 3-4 4-7 0-8-4-12-12-12H639V110l4-69c-1-8-8-17-22-27-14-9-26-14-37-14l4 92v124H438c-12 0-34-3-65-8l-18 35h233v125H471c-12 0-33-2-65-8l-17 36m-84 70c54 27 105 55 154 82 48 26 89 52 121 78-61 57-101 122-121 197h-57l-19-4-20 32h369l36 35 46-57c7-3 10-8 8-16 1-1-2-3-9-5-7-5-17-10-32-16-39-61-86-116-138-166 21-14 54-28 97-43 43-14 80-23 110-27s61-6 95-6v-20c-25-2-43-6-52-13-8-8-16-19-24-32-58 18-109 37-152 57-44 19-80 39-108 61-43-36-88-64-132-84-45-21-101-43-166-69l-6 16m175 357c30-70 72-127 127-172 51 50 94 108 131 172H480M320 235l6-17c-143-57-222-90-238-100-16-9-29-18-41-28L4 149l316 86m-45 629c4-2 6-6 6-10 2-2 0-5-6-7-19-1-48-29-87-84-40-55-83-108-129-159l183 6c34 52 58 96 72 131 47-25 72-40 75-43 2-3 1-6-2-10-2-1-8-3-18-5-10-3-18-8-25-16-7-6-34-39-80-100-47-58-104-125-174-199l236 37 4-19c-78-18-135-32-170-43-34-10-64-24-92-41l-39 70c11 1 25 5 43 14 41 41 94 109 158 205-69-8-113-15-132-20-20-6-39-14-59-25L0 608c18 2 35 10 51 24 13 14 39 52 76 113s64 113 82 156l66-37Z"/></symbol><symbol id="经_G" viewBox="0 0 1000 1000" data-size="21"><path transform="matrix(1 0 0 -1 37 923)" d="M383 778h338l39 37 53-52c1-4 3-7 3-10 1-3-2-5-9-8-21-2-39-16-57-39s-33-44-47-60c-14-18-36-42-66-71 39-15 78-32 117-49s72-37 100-58c26-20 41-39 44-55 2-16 0-27-5-35-6-9-15-12-26-10-10 0-21 8-31 24-10 15-24 33-43 54-20 20-41 37-64 53-24 14-60 35-108 61-58-45-110-81-154-108-45-26-100-55-166-86l-8 16c86 49 154 92 203 129 48 35 90 72 125 111 33 38 65 81 96 131H455c-16 0-31-3-45-8l-27 33m0-465h355l37 45 57-52c2-2 3-5 4-8 0-7-5-10-14-10H621V33h211l35 48 55-54c2-1 3-4 4-7 2-8-1-12-10-12H371c-14 0-36-2-66-8l-16 33h283v255H457c-14 0-31-3-51-8l-23 33m4-142 6-16-274-83C77 55 51 40 39 27L2 89l385 82m-94 644c5-2 7-5 8-9 0-6-5-10-16-12-14-3-36-26-66-68-30-43-83-116-160-217l197 17c50 71 83 123 98 159l64-41c4-5 6-8 6-10 0-4-6-7-18-8-12-4-25-12-39-25C264 463 172 358 92 286l250 22v-20c-81-12-142-22-184-31-41-9-72-19-92-31l-41 66c11 2 28 7 51 16 45 40 101 106 168 197-51-7-92-14-125-22-31-6-60-17-88-31L0 515c20 3 37 12 53 27 93 135 152 236 176 305l64-32Z"/></symbol><symbol id="经_H" viewBox="0 0 1000 1000" data-size="21"><path transform="matrix(1 0 0 -1 43 929)" d="M325 46c28-7 66-11 114-11h160v273h-85c-47-2-78-4-96-7l-19 46c29-8 67-12 115-12h236l43 48c23-17 46-34 67-51 5-3 7-6 7-10 0-9-4-14-13-14H646V35h151l43 47c23-18 46-34 67-50 5-3 7-7 7-11 0-9-4-14-14-14H439c-46-1-78-4-95-7l-19 46M154 857c55-23 82-40 82-51 0-8-15-13-45-14-17-38-40-80-67-126-18-36-39-71-63-106 21 0 43 1 66 3 34 2 66 5 97 8 0 2 1 3 2 4 17 39 31 77 42 114 54-23 82-40 82-51 0-8-16-13-47-14-26-48-61-100-105-154-32-46-69-91-109-136 30 1 61 4 93 8 50 6 97 14 139 24v-18c-35-13-71-25-109-35-38-12-79-23-123-32-9-21-16-32-20-32-2 0-4 2-6 6-15 23-28 49-39 77 14 0 28 0 42 1 37 48 67 90 90 125 22 31 39 60 53 87-16-5-33-10-51-15-28-9-59-17-92-23-9-22-17-32-21-32-2 0-4 2-7 7-13 23-26 49-38 77h37c22 39 39 74 52 104 17 34 30 66 40 98 11 32 19 65 25 96m174-625 4-22c-36-27-68-49-96-64-30-17-58-33-86-46-25-13-52-24-80-34-7-24-13-36-18-36S31 58 4 112c40 7 76 15 107 26 30 8 62 20 97 36 35 14 75 34 120 58m61 581c24-6 61-9 110-9h227l34 31c26-15 47-30 62-45 4-3 5-6 5-10 0-5-4-10-13-14-9-5-20-9-32-11-32-70-60-123-84-158-1-2-2-4-4-6 29-14 55-28 78-44 29-15 51-29 65-41 16-10 28-19 35-27 6-7 10-15 14-22 4-5 6-11 6-18-1-20-9-31-25-31-5 0-10 2-15 4-6 3-17 17-35 42-18 24-39 44-60 63-19 17-44 37-75 58-20-26-41-50-65-72-32-31-66-57-102-78-39-24-88-47-146-68l-13 17c59 29 103 54 132 76 28 16 54 35 79 59 23 22 44 47 65 75 21 29 41 60 59 92 17 32 30 66 41 101H499c-52 0-83-3-94-8l-16 44Z"/></symbol><symbol id="绐_G" viewBox="0 0 1000 1000" data-size="21"><path transform="matrix(1 0 0 -1 39 965)" d="M695 886c9-6 9-12 0-18-12 0-25-5-39-14-11-7-39-42-84-105-42-61-86-116-133-166 127 1 256 3 389 8-36 53-80 107-133 162l10 12c72-51 123-93 154-125 30-32 49-59 57-82 8-24 8-42 0-55-8-12-18-18-29-18-12 0-20 9-24 28-4 15-11 33-21 52-168-10-278-18-330-25-53-6-88-16-106-29l-45 66c22 3 43 14 65 33 62 82 127 189 193 321l76-45M445 448l61-45h265l26 41 66-43c4-4 6-6 6-7 0-5-10-13-31-26V138l4-97c0-8-7-16-20-23-13-8-25-12-35-14v92H496V37c0-8-6-16-17-23-12-7-25-12-38-14l4 140v308m51-326h291v254H496V122M279 880c10-8 10-14 0-18-16-4-26-8-31-11-4-5-21-30-53-75-29-43-73-103-131-181l182 4c37 64 65 115 82 152l67-39c11-8 9-14-4-20-15-2-26-7-34-15-5-7-31-44-76-110S180 432 111 360l280 43 4-19c-144-33-225-54-245-63-19-8-39-19-60-35l-43 70c16 4 30 10 45 18 18 22 38 47 60 76 21 29 50 72 86 129-69-8-115-16-138-23-24-9-43-18-59-28L0 597c20 3 37 11 53 25 37 59 68 111 93 158 23 45 43 91 61 139l72-39m116-656 5-18-265-106c-24-14-46-30-67-47l-45 66 372 105Z"/></symbol><symbol id="绑_G" viewBox="0 0 1000 1000" data-size="21"><path transform="matrix(1 0 0 -1 33 970)" d="m182 911 60-43c4-2 6-4 6-8s-4-6-12-7c-12-2-72-85-179-250l154 9c21 37 40 76 57 116l60-43c4-2 4-5 0-8-1-2-4-4-10-6-13-5-27-18-41-39-73-106-134-188-185-248l201 37 2-18c-123-38-196-65-219-80l-43 63c17 2 32 10 45 23 7 8 22 28 43 59 21 29 47 70 78 123-43-9-76-16-99-22-24-4-43-13-57-25L0 601c27 9 47 28 61 56 52 80 93 164 121 254m134-654 6-20c-149-56-230-88-242-93-10-8-19-16-29-25l-37 64 302 74m-11 496h127v187l72-29c9-4 14-8 14-10 0-4-13-11-38-23V753h51l28 41 50-51 6-6c0-8-4-11-11-11H480V562h65l29 41 47-49c2-2 3-4 4-6 0-8-4-12-12-12H480c1-85 0-140-3-166h74l31 41 47-49c2-2 3-4 4-6 0-7-4-11-12-11H475c-4-73-24-137-63-192C373 101 307 50 213 0l-8 16c89 60 149 116 178 169 27 52 42 105 45 160h-53c-14 0-34-3-61-8l-15 33h131l2 65v101h-30c-13-1-35-4-66-10l-16 36h112v164h-49c-21-1-42-4-63-10l-15 37m550 129 55-45c4-4 6-9 6-14-2-4-8-8-18-13-9-4-16-14-21-30-20-55-49-125-88-209 46-39 83-78 109-117 24-41 36-77 36-107 2-41-8-75-30-100-16-27-47-46-91-55-3 20-10 33-22 39s-34 14-66 26l2 17c28-5 57-10 86-13 26-3 46 6 60 27 12 22 15 51 8 88-8 37-22 70-41 98-20 26-44 56-72 89l68 254H707V146l4-91c0-9-7-18-20-26-11-8-23-11-35-11l4 133v731l49-37h121l25 37Z"/></symbol><symbol id="绒_G" viewBox="0 0 1000 1000" data-size="21"><path transform="matrix(1 0 0 -1 46 956)" d="m838 737 66-58c2-3 4-5 4-8 0-6-2-9-8-8H639c0-67 4-135 11-203 8-68 17-119 28-152 15 33 32 74 51 123 15 48 30 97 44 148l67-39c4-2 6-5 6-8 0-2-4-6-12-10-17-3-30-18-39-43-8-25-22-60-41-105-18-45-39-83-63-113 12-29 26-56 41-80 15-25 30-44 43-57 12-12 22-20 30-26 6-6 11-8 17-6 5 2 9 14 14 38 4 23 13 64 27 123l18-4c-7-57-11-100-14-131-2-28 0-49 6-63 4-14 8-24 12-30 3-5 4-10 2-15s-7-7-14-8c-8 0-20 5-37 14-17 8-34 19-51 31-17 13-40 37-66 71-26 35-45 68-57 98-34-40-68-74-103-104-34-28-79-57-133-87l-8 16c44 29 86 63 125 101 38 38 71 78 98 119-22 76-36 146-41 211-6 64-9 128-10 191H396c-12-2-25-4-39-8l-15 35h246v221c53-14 80-23 82-27 0-5-1-8-2-10-2-1-12-8-31-21V690h168l33 47M686 851l5 11c39-16 69-31 88-45 19-13 30-26 32-39 0-13-2-24-6-33-6-8-14-12-24-12-9 0-16 8-21 24-4 14-11 27-20 41-8 12-26 29-54 53M305 409h107v197l78-27c4-2 5-4 4-8 0-2-2-5-6-8l-29-13V409h43l31 39 53-43c2-2 3-4 4-8 0-7-5-11-14-11H457c-5-60-12-110-21-151-10-41-30-82-59-123-30-39-74-77-131-112l-6 14c47 43 82 81 104 114 19 33 34 68 45 103 9 36 17 88 23 155h-43c-14 0-31-3-51-8l-13 31m6-201 5-16C181 127 107 90 96 82c-12-8-28-21-47-39L6 106l305 102m-63 658c4-2 5-6 4-12-2-1-6-4-12-7-6-2-13-6-21-12-7-6-27-40-61-102-33-61-66-115-99-162l146 8c31 59 51 105 61 139 47-28 70-43 70-45s-1-4-2-6c-2-2-6-4-12-6s-13-6-21-14c-7-7-30-43-69-109-39-64-84-133-134-205l205 29 4-19c-73-18-125-31-155-41-29-10-56-22-82-35l-47 60c12 2 28 7 47 16 35 48 76 119 125 213-47-8-80-15-99-20-20-4-38-12-55-21L0 571c18 2 29 6 35 12s17 23 33 53c16 28 36 70 59 125 21 52 39 101 53 144l68-39Z"/></symbol></svg>