<svg xmlns="http://www.w3.org/2000/svg"><symbol id="绻_G" viewBox="0 0 1000 1000" data-size="21"><path transform="matrix(1 0 0 -1 25 947)" d="M291 851c10-8 10-14 0-18-14-2-23-6-29-12-6-4-22-26-49-66S141 655 78 575l149 6c31 49 56 96 76 141l62-41c11-8 9-15-4-20-13 0-24-4-31-12-6-7-31-43-74-107-44-64-97-133-160-205l238 25 2-19c-119-24-188-39-207-45-18-6-37-16-59-31l-49 66c16 5 32 11 47 20 16 15 35 38 57 68 21 30 52 75 92 137-43-6-78-13-106-20-26-6-49-16-68-27L0 577c19 3 38 10 57 20 48 64 84 119 107 164 24 43 43 85 59 127l68-37m98-635 6-20-270-82c-40-13-66-28-80-44L0 138l389 78m183 539c8 47 16 93 24 139l78-32c4-1 5-4 4-9 0-3-5-6-14-10-10-2-18-8-21-18s-10-36-20-78c-9-42-20-80-33-115h181l42 49 58-59c5-10 3-16-6-16H582c-14-39-30-76-49-111h291l37 47 59-53c2-2 3-4 4-8 0-7-4-11-12-11H701c18-32 39-58 65-78 24-22 50-38 78-47 25-11 60-18 105-22v-19c-21-1-36-4-45-8s-20-16-33-37c-44 26-77 48-98 66-20 18-39 39-56 63-18 23-33 50-47 82H520c-23-35-43-61-63-80l31-32h170l26 28c33-27 52-42 54-45 2-2 2-4 2-6 0 0-8-6-21-18 0-45-1-80-4-105-2-25-10-46-24-61-12-15-31-26-56-33-5 14-11 25-20 33-8 8-31 18-70 32l4 17c23-4 45-8 64-10 20-2 35 0 43 6 9 6 13 25 14 57v80H488V90c2-20 6-33 12-37s16-6 29-6h201c30 2 49 6 57 14 6 7 11 21 16 42 2 20 5 55 8 103h19c1-29 3-53 4-70 1-18 4-32 8-41 2-7 11-14 25-23-8-21-15-35-19-41-5-4-11-10-20-17-8-6-27-10-55-14H523c-25 0-43 3-52 8-10 4-18 12-24 25s-9 35-9 68v263c-56-61-116-109-180-144l-8 13c51 43 93 82 125 120 31 35 62 74 92 117h-74c-26 0-47-3-63-8l-17 33h167c18 31 35 68 51 111h-72c-12 0-33-2-64-7l-18 33h162c12 33 23 74 33 123m-207 70 8 12c37-19 66-38 88-57 21-17 35-34 41-49 5-15 3-29-4-41-6-13-16-18-27-17-12-1-20 8-24 25-4 18-12 37-25 59-12 21-31 43-57 68m293-154c49 58 90 113 123 164l65-43c6-8 4-14-6-18-14 2-26 0-33-5-9-6-24-18-45-36-20-18-50-43-90-74l-14 12Z"/></symbol><symbol id="综_G" viewBox="0 0 1000 1000" data-size="21"><path transform="matrix(1 0 0 -1 41 968)" d="M430 593h287l37 43 62-49c2-4 4-7 4-8 0-8-4-12-11-12H512c-14 0-36-2-67-7l-15 33m-65-170h451l36 47 62-53c2-3 3-5 4-8 0-8-4-12-12-12H645V92c0-31-7-53-20-65-14-13-33-22-57-27-2 20-13 35-35 45-20 10-45 20-74 31l6 16c53-13 88-19 105-20 19 0 28 13 26 41v284H436c-14 0-32-2-55-7l-16 33m94-78c49-22 74-35 76-39 0-5 0-8-2-10 0-2-8-4-21-6s-35-24-67-66c-31-43-88-104-172-185l-13 14c88 100 154 197 199 292m242-35 10 11c64-35 111-70 141-105 26-33 41-61 43-84 1-22-2-38-10-46-9-9-18-11-28-8-7 3-15 17-23 43-8 25-20 51-35 79s-48 64-98 110M525 925l6 12c34-12 62-25 84-40 22-13 35-27 41-41 4-13 4-26-2-37-4-11-13-17-27-17s-23 9-27 27c-5 18-13 35-26 49-11 14-28 29-49 47M420 823h21v-37h373l34 41c44-38 67-58 68-62 2-4 1-7-2-8-3-2-10-4-21-6-13-2-25-7-38-14-11-6-31-25-62-58l-16 9c20 33 34 58 41 75H441c2-39-2-67-13-86-10-18-22-28-35-31-15-4-26-1-34 9-7 10-5 21 6 33 11 10 22 23 31 40 10 14 18 46 24 95m-78-568 6-16c-153-62-239-99-258-111-18-9-32-18-43-28l-37 61 332 94m-65 644c4-2 6-7 4-13 0-2-4-4-10-6-17-2-45-35-83-100-40-62-79-121-118-176l157 2c36 73 60 125 72 159 45-28 68-43 68-45v-8c0-2-4-4-10-6-4-1-11-5-21-14-10-5-37-45-80-117-44-70-96-142-156-217l250 36 4-20c-94-19-157-34-192-45-34-10-62-23-86-39l-49 64c11 4 25 9 43 16 41 46 89 117 145 213-59-8-99-14-119-20-20-3-39-11-59-23L0 603c22 3 40 13 55 29 13 14 37 56 72 129 33 71 57 129 70 172l80-34Z"/></symbol><symbol id="绽_G" viewBox="0 0 1000 1000" data-size="21"><path transform="matrix(1 0 0 -1 27 964)" d="M281 853c5-3 7-6 8-10-1-4-6-7-16-8-13-1-35-23-66-66-29-43-76-101-141-172l182 6c25 42 49 88 70 138l59-41c9-8 8-13-4-15-14-4-27-16-41-36-90-127-166-227-227-300l243 33 2-20c-89-17-151-31-186-41-33-8-59-19-76-35l-47 67c22 3 40 13 57 29 65 89 112 156 138 201-101-12-164-26-191-43L0 599c25 4 44 11 57 23 68 86 122 176 162 270l62-39m43-620 8-15-205-90c-33-16-55-32-64-46l-40 56 301 95m82 334h395l37 47 55-52c1-2 3-5 7-8 1-8-2-12-9-12H662V362h111l38 53 64-64c1 0 2-2 2-6 0-5-3-7-8-8H662V92h205l78 8V80c-24-4-41-10-50-17-9-6-15-14-20-26-113 0-193 5-240 14s-85 26-114 51c-29 22-54 64-74 126-19-47-45-89-78-124-33-38-80-72-140-104l-10 14c72 47 127 104 164 173 36 68 59 153 68 255l76-27c6-2 9-5 10-8 3-4 1-6-4-8-21-5-36-19-43-41-6-19-16-52-31-99 23-58 46-96 68-115 21-20 50-35 86-44v442H488c-13 0-36-3-66-8l-16 33m410 184 34 39 58-47c6-4 9-10 10-15 0-2-2-4-6-6-21-3-41-10-58-22s-39-31-67-56l-14 9 51 75H461c-1-10-2-24-4-41s-8-32-19-45c-12-15-25-22-38-22-12 0-21 5-27 16-5 9 0 20 14 33 14 12 24 25 31 39 6 14 13 45 20 94h19c1-22 1-39 2-51h357M551 917l8 12c37-19 65-35 86-51 17-15 29-30 35-45 4-15 3-28-2-39-7-12-14-18-22-20-7-2-14 0-21 6-7 5-13 17-16 33-2 16-8 31-17 45s-26 34-51 59Z"/></symbol><symbol id="绾_G" viewBox="0 0 1000 1000" data-size="21"><path transform="matrix(1 0 0 -1 25 964)" d="m449 651 55-35h232l30 37 56-41c4-4 6-8 6-9-1-7-10-16-27-28v-94l4-62c0-7-6-14-18-22-12-5-24-9-37-11v39H500V313h273l32 38 58-38c4-1 6-3 6-5 0-5-10-14-29-28V122l4-87c0-6-6-13-18-19-10-6-23-10-37-12v84H500V39c0-8-7-17-20-25-11-9-23-14-35-14l4 124v527m51-539h289v176H500V112m0 338h250v141H500V450m357 317 30 33 49-45c9-8 13-14 13-18s-4-7-13-8c-16-4-32-11-47-21s-34-29-57-55l-14 12 41 76H445c0-46-6-79-15-97-8-18-20-28-35-32-14-2-25 0-32 8-6 7-8 16-4 26 4 9 12 19 24 29 10 9 17 26 23 51 6 23 10 48 12 74h20l1-33h418M557 915l6 14c33-14 59-28 80-43 18-14 31-28 37-41 5-12 6-24 2-35s-11-19-22-22c-12-3-20-1-25 4-4 5-8 14-12 27-4 12-10 26-18 41s-24 34-48 55m-291-55c9-7 9-13 0-17-14-4-24-9-30-14-6-4-23-29-52-76-30-47-71-102-121-166l169 4c28 48 49 90 63 127l64-35c11-6 9-13-4-20-12-4-22-11-31-19-7-9-30-41-68-98-37-57-87-123-149-197l247 43 3-22c-115-29-186-47-212-57-26-9-49-22-71-37l-45 69c18 3 35 10 53 21 16 17 35 41 57 72 21 30 49 73 82 129-59-7-101-14-125-21-24-5-43-12-57-22L0 589c16 4 31 12 45 23 36 48 66 96 90 143 23 45 45 93 64 142l67-37m121-627 8-19-264-104c-22-11-43-25-63-44l-45 68 364 99Z"/></symbol><symbol id="绿_G" viewBox="0 0 1000 1000" data-size="21"><path transform="matrix(1 0 0 -1 28 967)" d="M396 862h338l32 41 54-41c8-4 12-9 12-15-1-3-14-12-39-28l-16-259h53l35 44 51-52c2-3 3-6 4-10 0-5-4-7-12-8H641c15-67 37-132 66-195 35 32 76 76 123 131 35-32 53-50 53-55s-2-7-6-8h-18c-7 0-21-6-41-17-19-11-52-34-99-69 20-32 42-58 66-80 23-21 45-38 67-49 19-11 50-22 91-33l-2-15c-32 1-53 0-62-4-8-4-20-12-35-24-42 35-76 71-102 106-25 34-45 66-58 95-14 30-30 80-49 153V102c0-34-7-58-20-73-13-12-33-22-58-29-7 17-18 30-34 39-14 10-41 20-80 31l6 16c70-14 110-19 121-16 12 3 17 16 16 39v218C456 223 386 165 377 153s-20-25-33-40l-49 50 291 190v181H402c-12 0-34-2-66-8l-16 34h407l7 123H486c-15 0-30-3-45-8l-25 33h320l8 129H467c-16 1-31-3-47-10l-24 35m-23-398c40-18 70-35 90-53s30-35 29-51c0-16-4-27-12-33-5-6-13-8-23-6s-16 11-19 28c-3 15-8 29-16 43-7 13-26 34-57 62l8 10m-41-209 6-16c-149-54-231-88-248-99-18-12-32-22-43-31L8 169l324 86m-51 639c5-2 5-6 2-12-1-2-4-4-10-6-13-2-24-8-33-18-8-9-29-37-62-82s-74-97-123-158l183 12c32 49 55 92 71 129 42-31 64-48 66-51 0-2-1-5-2-8-3-2-8-4-16-4-6 0-13-5-21-13-8-7-34-41-78-102-45-59-100-129-164-211l248 47 4-20c-88-22-149-39-186-50-35-12-67-26-96-41l-39 66c11 4 26 10 45 18 39 45 92 118 159 218-61-5-102-12-124-19-21-7-45-16-72-27L0 622c18 2 33 10 45 24 11 13 38 54 80 123 43 65 74 121 94 166l62-41Z"/></symbol><symbol id="缀_G" viewBox="0 0 1000 1000" data-size="21"><path transform="matrix(1 0 0 -1 32 967)" d="M334 858h182l17 26 55-39c4-3 6-6 6-10-1-3-4-5-10-8-14-5-27-22-37-51-11-28-27-63-51-107 21-18 37-34 49-49 11-16 19-30 25-43 4-14 4-25-2-35-4-8-11-13-21-14-9 0-16 4-22 14-4 10-9 23-15 41-7 18-18 35-33 53-26-32-47-58-65-78-16-20-47-47-92-82l-11 9c35 37 60 65 76 84 13 18 35 49 64 92-37 37-69 68-95 92l7 12c33-19 67-43 104-73 17 37 35 84 53 141H404c-15 0-32-3-49-8l-21 33M447 16c52 20 100 44 143 72 41 27 76 59 105 97-39 64-61 144-66 240l-25-4-20 29h205l25 33 53-39c7-3 9-8 8-15 0-2-4-4-12-6-6-2-13-8-23-18-25-93-57-168-98-222 26-28 46-46 63-55 13-9 29-18 47-26 16-8 44-16 84-26V61c-24 2-41 0-53-6-12-4-22-12-29-24-26 17-48 34-67 51-18 16-41 39-68 71-35-38-75-70-119-96-45-24-93-43-143-57l-10 16m203 409c12-91 35-161 69-209 28 43 54 112 78 209H650m-33 431h188l25 36 51-47c4-3 6-6 6-10-1-3-4-5-10-8-14-6-27-22-37-49s-29-63-59-107c22-16 41-33 57-51 15-18 25-35 31-51 4-15 3-29-2-41-6-12-13-17-23-15-9 1-16 8-22 21-4 13-11 29-23 49-11 18-24 35-39 53-18-24-39-47-63-69-22-20-56-46-103-78l-12 12c37 31 66 57 86 78 20 20 41 47 64 82-33 31-70 62-109 92l8 12c44-22 84-47 119-75 23 41 44 88 63 141H688c-16 1-30-3-43-10l-28 35M332 446h166l27 30 51-39c4-3 6-6 6-10-1-3-4-5-10-8-15-8-28-26-37-55-10-26-29-65-58-115 17-18 31-34 41-49 9-15 15-30 19-43s3-25-2-36c-6-12-14-17-23-17-10 0-18 10-24 30-6 21-10 36-13 45-4 9-11 21-22 35-17-24-40-49-68-76-28-26-78-61-149-105l-7 12c58 45 100 81 126 106 25 26 50 58 75 98-30 42-61 78-94 107l8 12c36-22 72-52 107-90 24 48 41 96 53 143H402c-16 0-31-3-45-8l-25 33m8-183 6-18c-148-51-231-81-250-90-18-9-33-18-47-27l-37 59 328 76m-65 638c4-2 6-5 4-9 0-2-4-5-9-8-17-3-43-34-81-92-37-58-78-114-121-168l164 8c19 33 35 66 49 99 45-27 68-41 69-43v-7c-1-2-6-4-14-6-8-1-16-5-23-14-6-6-28-34-67-84-38-49-86-111-144-187l214 31 2-20c-65-12-116-23-150-33-33-10-63-22-88-37l-41 61c10 4 25 9 45 17 34 44 79 112 137 201-58-7-96-13-116-17-18-4-39-12-62-24L0 622c23 5 43 16 59 31 14 15 38 54 72 119s58 119 72 163l72-34Z"/></symbol><symbol id="缁_G" viewBox="0 0 1000 1000" data-size="21"><path transform="matrix(1 0 0 -1 41 953)" d="m408 503 55-39h340l31 39 59-43c3-2 5-4 5-6 0-4-9-14-27-29V142l4-103c1-6-5-13-16-21-9-8-22-12-37-14v78H457V37c1-8-5-17-16-25-9-7-22-11-37-12l4 138v365m49-399h158v153H457V104m209 0h156v153H666V104M457 282h158v156H457V282m209 156V282h156v156H666M287 853c10-8 10-14 0-18-16-2-26-6-31-12-6-4-22-25-49-62s-74-94-141-170l178 6c22 36 42 76 61 119l62-37c11-8 9-15-4-20-11 0-21-6-29-15-8-10-30-42-66-96-38-54-92-118-163-192l249 40 3-22c-127-31-199-49-214-55-15-4-36-13-63-29l-47 68c14 2 30 8 47 16 18 18 39 42 65 72 22 29 52 71 89 125-67-4-112-11-136-19s-42-17-55-26L0 593c20 3 37 12 53 27 41 53 74 100 99 141 23 40 45 84 67 133l68-41m82-614 6-19-223-96c-30-16-54-32-74-50l-47 62 338 103m4 444c33 68 66 142 98 222 45-20 68-32 70-37 3-3 3-6 2-10-2-2-8-4-20-4-9 0-23-15-41-44-16-28-43-70-80-125 46-36 76-63 90-82 14-20 22-38 24-53 0-16-4-28-12-35-7-9-16-12-27-10-11 1-18 10-22 27-4 18-10 37-17 59-8 21-30 52-65 92m184 0c33 68 69 142 107 222 45-20 68-32 70-37 3-3 4-6 2-10-2-2-8-4-19-4s-26-15-45-44c-20-28-49-70-86-125 46-36 75-63 90-82 13-20 21-38 23-53 0-16-4-28-11-35-8-9-17-12-28-10-10 1-17 10-21 27-4 18-10 37-18 59-8 21-29 52-64 92m181-4c39 70 76 144 110 220 43-26 65-41 68-45 3-3 3-6 2-9-2-3-8-4-20-4-9-1-23-13-41-37-17-24-47-65-89-123 46-27 82-52 105-75 23-22 35-41 37-56 0-16-4-28-12-35-7-9-16-12-27-10-10 1-17 10-23 27-4 18-14 37-30 59-14 21-41 51-80 88Z"/></symbol><symbol id="缂_G" viewBox="0 0 1000 1000" data-size="21"><path transform="matrix(1 0 0 -1 24 963)" d="m482 920 81-31c1 0 3-3 3-8 1-2-10-8-33-19v-65h184v129l78-33c2-3 3-5 4-8 0-2-11-8-31-19v-69h76l41 47 58-55c2-2 4-5 6-11 1-5-2-7-10-8H768v-74l3-57c-1-12-8-20-21-25-13-6-24-9-33-8v43h-63V543h151l31 37 49-37c8-4 11-9 11-13 0-6-9-15-29-26v-90l4-64c1-5-4-12-16-22-11-8-24-11-37-9v39H654V246h194l39 49 62-60c1-3 2-6 2-8-2-4-8-6-17-6H654V113l4-77c0-9-8-17-21-25-15-8-27-11-37-10l4 114v106H420c-14-1-35-4-61-10l-17 35h262v112H439v-18c1-8-4-15-15-23-10-7-22-10-37-10l4 88v183l52-35h161v106h-71v-20c-2-8-8-15-17-21-10-4-23-6-37-6l3 94v74h-74c-19 0-40-3-60-8l-18 35h152v123m-43-537h165v135H439V383m215 0h164v135H654V383M533 674h184v96H533v-96M277 871c10-7 10-13 0-17-15-3-28-10-37-22-8-11-25-35-51-74-25-39-67-96-125-172l163 6c27 44 52 95 76 151l68-45c11-6 9-13-4-20-16-1-27-5-33-14-7-8-31-43-74-103-43-59-97-126-162-201l252 39 4-22c-127-31-202-51-225-58-22-6-44-18-66-35l-43 70c16 4 33 11 50 21 47 52 95 116 145 192-55-8-94-15-117-20-24-6-43-13-59-23L0 588c19 4 36 14 51 30 37 56 68 108 94 156 23 46 44 92 64 136l68-39m51-634 6-20-213-86c-21-11-42-26-60-44l-43 64 310 86Z"/></symbol><symbol id="缃_G" viewBox="0 0 1000 1000" data-size="21"><path transform="matrix(1 0 0 -1 49 958)" d="m594 837 54-43h165l29 39 54-41c4-4 6-7 6-8 0-4-9-13-29-29V136l4-91c0-8-7-15-20-22-12-8-23-13-33-13v106H643V45c-1-8-8-16-22-24-12-7-23-11-31-11l4 101v726m49-695h181v199H643V142m0 224h181v197H643V366m0 223h181v180H643V589m-334 82h93v246l77-31c11-6 13-13 3-20l-33-10V671h47l29 41 51-49c1-2 2-4 2-8 0-8-4-11-12-11H449v-79c41-23 70-41 86-54 14-13 24-26 29-39 6-13 6-26 2-39s-13-19-25-20-20 6-23 20c-4 13-9 28-16 45-6 17-23 39-53 64V113l4-74c0-8-6-16-19-23-12-9-24-15-36-16l4 114v393c-24-55-48-102-72-141-23-39-53-81-90-125l-13 8c37 60 71 121 101 184 29 60 55 130 76 211h-37c-4 0-18-3-43-8l-15 35m-67 211c10-8 10-14 0-18-12-4-21-8-27-11-5-5-18-26-39-63-20-37-59-96-117-178l152 8c23 41 45 84 64 129l61-37c11-8 10-14-4-20-12-2-21-6-27-13-6-8-28-40-67-96-39-57-88-125-148-203l189 29 4-19c-76-20-127-34-152-41-26-8-48-20-67-36l-39 67c16 4 30 10 41 17 18 23 37 49 57 79 19 29 45 70 78 123-37-7-69-14-96-22-25-6-46-17-64-31L0 612c16 4 31 12 43 24 38 67 66 120 84 156 17 36 34 78 51 125l64-35m80-647 8-17-201-92c-24-12-45-26-65-44l-44 58 302 95Z"/></symbol><symbol id="缄_G" viewBox="0 0 1000 1000" data-size="21"><path transform="matrix(1 0 0 -1 36 958)" d="m867 761 59-53c1-3 2-5 2-8 0-6-3-8-8-8H705c2-86 6-155 12-207 3-52 10-106 19-160 18 33 35 80 53 139 15 58 27 107 37 148l65-33c5-2 7-4 7-6 3-6 1-10-5-13-16-3-26-8-30-14-2-7-8-24-15-51-8-27-20-62-35-105-15-41-36-82-63-123 13-32 25-57 37-77 11-18 21-33 31-44 10-13 18-22 24-28s12-9 17-8c6 2 11 14 16 37 4 21 11 59 21 114h18c-8-86-12-138-10-155 0-14 2-28 8-42 4-13 8-23 12-29 4-5 5-10 4-15-1-4-5-6-14-6-8 0-19 4-35 13-16 10-33 24-53 41-18 19-35 38-51 58-15 20-33 52-52 98-23-38-54-74-92-108-37-32-79-62-125-89l-10 12c45 35 85 71 121 108 35 39 64 81 86 127-16 71-27 135-31 194s-9 134-14 224H383V542c0-173-18-295-53-367-35-71-88-129-158-175l-8 12c63 51 107 112 135 184 27 73 40 182 39 328v229l62-37h256l-4 199 71-27 11-4v-10l-33-20 2-138h133l31 45m-129 92 6 9c31-10 53-19 67-27 13-9 23-18 31-27 6-11 7-22 4-34-5-9-12-15-22-17-8 0-13 4-17 12-4 7-10 18-18 33-7 13-24 30-51 51M430 462l47-31h86l29 31 41-31c6-2 9-6 10-12 0-1-9-8-26-22V288l4-64c0-10-4-19-14-26-10-8-21-12-33-13v43H471v-36c0-14-5-25-14-33-10-8-20-12-31-12l4 104v211m41-211h103v158H471V251m-69 320h157l29 37 47-48c2-2 3-5 4-8-1-3-6-4-16-4H463c-14 0-29-3-45-8l-16 31M240 868c4-2 6-4 6-8s-3-6-8-7c-16-4-34-25-54-61-21-36-64-104-131-203l154 12c18 39 33 78 47 117l64-37c4-2 4-6 2-12 0-2-4-4-9-6-15-2-32-20-51-55-59-99-115-181-170-246l213 26 2-18c-82-16-138-29-166-41-28-10-54-21-78-35l-36 62c19 2 36 12 49 30 8 8 21 24 39 51 17 25 45 73 84 144-46-10-80-18-103-25-23-6-44-14-63-24L0 585c18 8 33 19 43 35 54 87 98 179 131 277l66-29m51-623 4-17c-128-46-199-75-215-86-16-12-31-22-43-30L2 173l289 72Z"/></symbol><symbol id="缅_G" viewBox="0 0 1000 1000" data-size="21"><path transform="matrix(1 0 0 -1 34 956)" d="m369 685 55-34h117c10 47 21 97 31 151H416c-14 0-34-3-61-8l-21 33h494l39 51 61-59c2-2 3-4 4-7 0-7-4-10-12-10H629c-22-48-44-98-66-151h253l28 41 58-48c4-3 6-6 6-8 0-4-10-13-29-26V134l4-95c0-10-6-18-18-23-10-6-22-10-37-12v92H418V35c0-10-6-17-18-23-11-8-23-12-35-12l4 118v567m49-565h105v506H418V120m150 0h110v170H568V120m155 0h105v506H723V120M568 315h110v143H568V315m0 168h110v143H568V483M318 222l6-16c-138-49-217-79-234-90-18-9-32-18-43-28L8 149l310 73m-54 652c4-2 5-6 4-12-2-2-5-4-10-6-16 0-41-28-76-84-36-55-79-115-131-179l170 2c35 54 58 97 70 131 41-30 63-45 64-47 0-2 0-5-1-8-2-3-6-4-12-4-7 0-14-4-22-12-6-6-32-40-78-101-44-61-96-128-156-201l244 33 4-18c-92-19-154-33-188-41-33-8-64-20-91-37l-41 66c16 4 34 10 54 18 36 40 84 107 145 201-67-6-109-12-127-17-17-4-34-12-51-24L0 595c12 3 23 8 31 13 8 4 33 41 74 114 41 69 71 132 90 189l69-37Z"/></symbol><symbol id="缆_G" viewBox="0 0 1000 1000" data-size="21"><path transform="matrix(1 0 0 -1 28 966)" d="m395 890 68-20c4-1 7-2 8-4 2-2 1-6-2-10l-31-15V690l3-70c1-8-4-16-15-23-10-8-22-12-35-12l4 102v203m132 39 73-22c4-2 5-4 5-6 1-2 0-5-3-7l-30-16V675l4-86c1-9-4-18-15-27-11-8-23-12-38-12l4 117v262m246-24c5-2 8-5 8-8 1-3-2-7-10-11-9-1-18-8-25-22-8-12-20-36-37-72h135l27 45 59-55c1-2 2-4 2-6 0-5-2-8-6-7H697c-27-55-55-99-84-131l-13 8c19 37 41 82 64 134 22 53 39 104 53 153l56-28m-64-195 6 12c41-19 71-36 92-51 20-14 32-28 37-43 4-15 4-28 0-39-6-13-14-18-24-16-9 0-16 7-21 22-4 13-10 28-18 45-8 13-32 37-72 70M402 536l53-33h318l34 35 54-41c2-3 4-5 4-8 0-2-8-10-25-21V337l4-70c-1-8-6-17-16-26-10-8-23-13-41-15l4 103v150H451V337l4-70c0-10-6-20-19-30-12-8-25-13-38-13l4 101v211m176-94 74-27c4-1 6-3 6-8 1-2-10-8-33-15-4-57-12-107-25-149-12-41-30-74-53-99-24-26-59-50-106-74-45-22-114-45-207-70l-5 16c80 24 142 50 187 76 44 24 76 47 96 69 19 22 34 52 45 90 9 38 15 72 17 102 2 29 3 59 4 89m53-144 70-18c3 0 6-4 8-9 0-2-2-4-6-6l-25-14V118c0-23 5-35 13-38 8-2 16-3 24-4h127c24 7 38 17 43 31 4 13 6 30 6 52s1 45 2 70h15c4-53 8-85 12-97 4-11 12-21 23-28-4-17-11-32-23-43-12-12-33-20-65-26H715c-20 0-35 3-47 8s-22 14-29 27c-5 10-7 26-8 48v180m-293-39 6-16C187 175 100 135 82 122c-18-10-32-20-43-30L4 151l334 108m-84 629c2-3 3-6 4-10-2-3-6-5-12-8-10-2-19-10-29-23-11-13-31-45-63-98-29-51-62-101-99-148l152 5c42 73 70 125 84 159 44-26 66-39 66-41v-8c0-2-4-4-13-6-10-3-18-8-26-16-7-6-33-43-78-111-44-67-100-140-168-219l262 43 2-17c-94-23-159-40-195-51-36-10-65-22-90-37l-37 68c11 3 27 10 47 20 35 40 81 106 136 197-58-9-95-16-111-22-14-4-33-11-55-21L0 606c14 3 23 6 29 8s24 26 53 74c29 49 64 127 106 235l66-35Z"/></symbol><symbol id="缆_H" viewBox="0 0 1000 1000" data-size="21"><path transform="matrix(1 0 0 -1 41 958)" d="M621 282c37-9 67-19 90-30 4-2 7-6 7-11 0-4-4-7-11-11-10-5-21-10-35-13V114c0-15 1-25 4-30 6-8 15-13 27-15 15-1 34-2 57-2 29 0 50 2 61 4s18 8 23 19c8 17 16 56 22 114l17-5v-89c0-11 4-20 13-27 15-9 22-17 22-24 0-8-4-13-11-16-8-5-23-8-46-11-27-5-63-8-108-8-29 0-55 2-78 4-18 2-32 7-40 17-7 8-10 22-10 42v128c0 23-1 45-4 67M385 555l62-29h311l34 32c33-23 50-39 50-49 0-7-10-15-29-24V263c0-15 1-24 1-29 1-5 1-11 1-16 0-13-11-22-33-26-11 0-17 4-17 10v297H435V209c0-6-5-11-13-15-9-4-17-6-24-6-9 0-13 5-13 14 0 3 0 7 1 13 0 15 1 29 1 41v233c0 32-1 54-2 66m280 360c32-9 61-20 86-33 5-4 7-7 7-10 0-6-4-11-13-15-15-4-29-6-41-6-6-18-15-36-24-53-1-1-2-2-2-3h115l43 48c23-17 46-34 67-51 6-3 8-6 8-10 0-10-5-14-15-14H662c-4-8-8-15-13-21-10-16-21-31-32-43-10-13-23-26-39-39l-18 13c15 18 27 37 38 56 13 21 24 44 34 68 11 24 20 48 27 73 3 12 5 26 6 40m48-188c17-10 31-19 43-28 14-9 25-17 33-25 9-8 15-15 18-21 4-6 6-12 6-18 0-13-2-23-6-31-6-9-13-14-21-14-4 0-8 1-11 4-3 2-5 8-7 18-5 11-11 23-17 35-7 12-14 23-22 32-9 11-20 22-33 34l17 14M143 903c55-23 83-40 83-51 0-8-16-13-47-14-15-39-35-81-61-126-19-36-38-71-58-106 19 1 39 2 59 3 31 2 59 5 85 8 18 39 31 77 40 114 55-23 82-40 82-51 0-8-15-13-45-14-25-48-58-98-99-152-30-46-63-90-99-134 30 1 59 4 88 8 48 7 91 15 130 24v-18c-32-13-65-25-99-35-35-12-73-23-113-32-9-22-15-33-20-33-2 0-4 2-6 7-15 23-28 49-39 77 12 0 25 0 38 1 33 47 61 88 82 123 18 31 35 60 49 87-15-5-30-9-43-13-26-8-54-16-84-23-9-21-17-32-21-32-2 0-4 3-7 7-13 24-26 49-38 77 13 0 25 1 36 1 20 38 35 72 47 102 16 35 28 67 37 99 9 33 17 65 23 96m167-625 3-22c-33-27-63-49-87-64-30-17-57-32-81-46s-49-25-75-34c-7-24-13-36-18-36s-21 28-48 82c38 6 71 15 100 26 28 8 59 20 92 36 33 14 71 34 114 58m32 590c34-5 61-13 82-23 8-4 13-9 13-14 0-6-4-11-11-13-9-7-19-12-30-12V693c0-18 0-30 1-35v-34c0-15-9-22-29-22-16 0-24 8-24 26 0 8 1 18 3 32 0 12 1 23 1 33v97c0 34-2 60-6 78m141 47c34-5 61-13 82-23 8-4 12-9 12-15s-3-10-10-12c-9-7-20-11-31-11V646c0-17 0-29 1-35v-34c0-15-10-22-29-22-15 0-23 9-23 27 0 7 1 18 3 31 1 12 1 23 1 33v190c0 34-2 61-6 79m82-461c34-3 60-6 78-11 11-2 17-6 15-13 2-7-2-12-12-15-7-4-16-8-26-13 0-75-3-128-10-160-10-33-23-61-39-84-17-25-39-48-65-67-26-18-59-35-100-50-41-17-89-31-143-41l-13 23c59 14 105 29 139 46 34 15 63 32 87 52 20 17 39 38 55 62 13 22 23 47 31 76 8 30 12 68 12 112 0 42-3 69-9 83Z"/></symbol><symbol id="缇_G" viewBox="0 0 1000 1000" data-size="21"><path transform="matrix(1 0 0 -1 41 958)" d="m414 903 59-39h242l29 39 61-47c5-3 8-6 8-7 0-5-11-14-34-28V616l4-54c0-11-4-19-13-26-9-6-22-8-40-8v35H465v-23c0-10-5-18-16-25-11-6-24-10-39-12l4 92v308m51-312h265v105H465V591m0 131h265v115H465V722M301 456h496l39 51 60-59c2-2 4-4 4-8 0-7-4-11-11-11H629V298h115l39 47 63-59c0-2 1-5 2-8-2-6-5-8-10-7H629V92c70-6 144-6 223 0l66 4V74c-23-4-41-8-53-11-12-4-21-15-25-34-35 0-74 1-117 4-43 4-84 10-123 18s-73 25-102 49c-30 22-60 68-92 137-27-62-64-113-111-153-48-38-91-66-131-84l-10 16c59 36 110 81 153 135 43 55 74 133 93 235l71-26c5-2 8-4 8-6 1-5-1-10-8-13-17-4-27-12-32-24-4-11-11-30-21-54 25-48 51-84 76-110 26-26 53-42 82-49v325H377c-14 0-31-4-53-12l-23 39m37-182 6-19-229-102c-25-13-47-29-66-48L2 169l336 105m-82 612c10-8 10-14 0-18-14-3-24-8-31-15-6-6-22-30-47-71-24-41-60-95-108-164h151c27 47 50 91 68 133l70-41c9-6 8-12-4-20-15 0-27-5-35-13-6-9-29-43-70-102S156 450 92 378l238 31 4-19c-109-24-176-39-201-47-24-9-47-22-70-39l-43 72c14 5 30 11 48 20 18 19 37 44 59 74 21 29 49 70 82 123-51-4-88-10-111-18-24-6-43-12-57-19L0 618c18 3 35 11 51 22 29 45 54 91 76 136 21 45 40 92 57 141l72-31Z"/></symbol><symbol id="缈_G" viewBox="0 0 1000 1000" data-size="21"><path transform="matrix(1 0 0 -1 20 961)" d="m322 882 47-35h123l28 33 44-33c8-4 12-8 12-12 1-4-8-14-27-31V247l4-60c0-10-5-20-14-30s-22-14-39-13v37H369v-41c1-9-4-17-15-26-12-6-24-10-36-10l4 124v654m47-676h131v197H369V206m0 223h131v177H369V429m0 203h131v191H369V632m352 291 72-31c5-4 8-7 8-8 2-3 1-5-2-8l-31-14V468l3-92c0-10-7-20-21-27-13-8-24-12-33-12l4 125v461m-30-213c2 0 4-2 6-6 0-5-2-8-8-10-7-2-14-8-19-19-6-11-16-33-29-69-12-35-34-82-67-140l-15 10c20 59 34 107 43 142 7 35 15 74 21 117l68-25m123 12c38-32 67-59 88-82s37-46 49-69c10-22 12-41 6-56-5-17-14-24-27-22-12 1-20 10-24 26-4 14-8 30-13 48-6 18-16 37-30 59-13 21-33 50-58 86l9 10m49-235c45-29 67-47 67-54-2-4-6-7-12-8-6 0-12-1-18-4-5-4-19-20-41-49-19-28-48-68-88-121-37-51-87-99-148-144S488 26 402 0l-6 16c86 40 156 81 209 124 51 41 96 87 133 138 37 49 78 119 125 209M285 235l6-17-187-86c-22-12-43-27-65-46L0 144l285 91m-39 641c10-8 10-14 0-18-14 0-23-4-29-11-6-8-20-32-41-71-20-39-57-98-110-177h133c24 45 41 84 53 117l61-37c8-8 5-14-10-18-8-4-15-10-20-17-6-8-27-40-62-94-35-56-81-119-137-192l191 26 2-20c-93-21-149-36-166-43-17-6-37-17-58-33l-35 66c18 5 33 12 43 20 13 19 30 43 50 72 19 27 45 71 78 131-45-6-78-12-97-15-19-4-38-12-57-24L2 603c17 3 33 13 49 27 33 55 58 103 76 146 18 41 34 88 49 139l70-39Z"/></symbol><symbol id="缉_G" viewBox="0 0 1000 1000" data-size="21"><path transform="matrix(1 0 0 -1 30 958)" d="m436 897 50-33h239l25 37 59-39c4-4 5-6 5-8 0-3-9-14-27-31v-64l4-72c-2-12-8-22-18-30-10-6-22-10-37-10v32H484v-12c0-8-5-17-17-25s-24-12-35-12l4 107v160m48-195h252v139H484V702M328 589h485l39 53 64-61c2-2 3-4 4-6 1-8-3-12-12-12H785V216l55 8 27 52 69-52c2-1 3-4 3-8 0-2-2-5-7-8l-147-16v-70l4-81c1-10-4-19-16-27-9-7-23-12-41-14l4 128v60l-379-37c-17-2-30-5-37-11l-21 31 131 12v380h-39c-14 0-30-2-49-7l-14 33m408-377v111H479V188l257 24m0 135v99H479v-99h257m0 123v93H479v-93h257M367 257l6-16C206 173 114 133 96 122c-19-10-33-19-45-28l-37 57 353 106m-99 627c5-2 9-5 9-8 2-4 0-8-6-12-11-3-22-8-31-15-10-8-31-36-64-84-31-49-69-101-112-155l170 8c36 54 59 98 71 131 45-23 68-37 70-41 0-3-1-7-2-10-3-2-8-4-16-6-5 0-13-5-23-13s-35-42-76-102c-41-58-93-124-156-197l240 33 4-17c-85-17-145-30-180-40-33-10-62-23-88-39l-41 63c11 1 26 8 45 19 35 41 83 107 145 198-71-10-116-18-135-24-20-4-39-11-59-21L0 610c21 3 38 11 51 26 12 13 36 52 74 117 36 64 63 118 78 162l65-31Z"/></symbol><symbol id="缊_G" viewBox="0 0 1000 1000" data-size="21"><path transform="matrix(1 0 0 -1 26 934)" d="m398 864 57-41h277l26 39 62-37c4-4 6-6 6-8 0-4-10-14-29-31V577l4-72c0-10-5-20-16-29-12-8-24-12-37-12v41H447v-20c0-9-6-18-17-25-12-8-24-12-35-12l3 114v302m49-334h301v125H447V530m0 151h301v117H447V681m-93-266 58-35h365l34 41 48-39c8-4 12-9 12-14 1-3-8-12-27-27V33h17l30 43 52-49c2-1 4-4 4-7 0-8-4-12-11-12H332c-10 0-29-2-55-8l-15 33h92v382m50-382h104v321H404V33m151 0h93v321h-93V33m140 0h98v321h-98V33M271 829c10-8 10-14 0-17-15-4-26-9-31-14-6-7-26-33-60-80S107 616 61 554l156 9c26 41 49 79 66 114l65-35c11-8 9-15-4-20-15-3-26-8-33-16-6-7-30-37-71-91-39-53-92-114-158-184l238 27 4-21c-117-24-187-38-211-43-23-6-45-18-68-35L2 323c21 8 39 16 53 24 13 13 33 35 58 68 26 31 57 72 94 123-75-12-119-20-133-25-13-6-27-13-41-22L0 550c18 6 31 15 41 29 33 46 64 95 94 149 28 52 51 99 68 140l68-39m53-644 6-20-219-95C89 59 68 43 49 23L4 85l320 100Z"/></symbol><symbol id="缋_G" viewBox="0 0 1000 1000" data-size="21"><path transform="matrix(1 0 0 -1 39 970)" d="m377 851 55-32h138v121l82-29c2-4 4-6 4-8 1-2 0-4-4-7l-31-14v-63h131l31 39 55-46c4-4 6-7 6-8-1-5-10-13-28-26v-68l4-55c0-9-4-18-13-25-11-5-24-9-39-10v35H621v-97h195l38 46 66-54c1-2 2-4 2-6 1-8-3-12-10-12H373c-14 0-37-2-68-8l-16 34h281v97H428v-4c2-10-1-19-10-25-8-6-23-10-45-12l4 80v157m51-170h142v113H428V681m193 113V681h147v113H621M369 485l55-33h322l27 37 57-43c4-2 6-5 6-8 1-3-9-12-27-25V304l4-69c0-7-5-16-16-25-10-8-24-12-41-14l4 104v129H418V292l4-70c0-10-7-20-20-30-12-7-24-11-37-11l4 105v199m276-119c4-4 5-8 1-13 0-1-11-4-33-10-4-54-14-103-31-149-18-44-55-83-113-118-59-35-133-60-223-76l-2 18c82 23 147 51 197 84 49 32 80 68 96 108 16 39 26 102 29 187l79-31m-30-162c100-25 166-49 199-70 32-20 51-38 57-56 4-15 3-29-2-39-6-10-15-14-25-12-10 1-24 12-41 34-18 20-39 39-65 56-25 16-68 40-129 70l6 17M270 899c9-7 9-13 0-17-14-4-24-9-30-14-6-4-23-28-52-72-28-43-70-98-125-166l154 10c19 28 35 63 49 103l62-41c11-8 10-14-4-19-15-4-27-11-35-22-8-10-27-39-59-88-31-49-79-111-142-185l236 29 4-21c-111-23-178-37-199-43-22-7-43-17-65-32l-37 67c13 2 26 8 39 17 19 22 39 47 61 76 21 29 49 75 84 137-51-11-89-20-113-27-24-6-43-14-57-24L0 630c19 4 36 14 51 29 36 49 66 96 90 141 23 44 45 88 64 133l65-34m66-642 6-20-219-88c-22-11-43-25-62-42l-43 60 318 90Z"/></symbol><symbol id="缌_G" viewBox="0 0 1000 1000" data-size="21"><path transform="matrix(1 0 0 -1 24 939)" d="m424 854 55-41h334l29 40 54-43c4-4 6-7 6-8 0-5-9-14-27-28V511l4-92c0-8-6-16-18-23-11-8-24-13-37-14v47H473v-14c0-8-6-16-18-25-12-8-23-12-35-12l4 100v376m49-402h150v156H473V452m197 0h154v156H670V452M473 632h150v158H473V632m197 158V632h154v158H670M527 272V99c0-28 6-44 18-46 12-3 27-5 47-8h107c22 2 37 6 43 12s10 13 12 23c4 9 6 23 6 42 2 18 4 45 6 82h17l6-82c0-27 11-46 33-56-6-18-17-33-33-45-16-11-35-18-59-21H563c-21 0-40 5-57 14s-26 34-27 73v242l78-27c2-5 3-8 4-10 0-2-2-4-6-6-3-1-12-5-28-14m49 108c49-40 82-70 100-92 17-21 27-41 29-59 1-16-2-29-10-39-8-8-19-11-31-7-11 2-18 13-21 33-2 19-7 37-14 55-6 15-27 48-65 99l12 10m231-65c43-29 75-56 97-82 22-24 35-43 41-56 6-14 8-28 6-41s-6-22-12-28c-5-5-14-7-25-5-10 1-18 12-21 33-4 21-10 41-18 62-8 22-35 57-78 106l10 11m-395-11c0-58-2-100-6-127-4-28-10-48-15-61-6-13-16-26-30-36s-27-14-39-12c-11 3-19 10-23 21-4 10 0 21 12 31 11 10 21 21 31 33 10 11 17 23 23 37 7 15 16 53 26 114h21M273 837c10-8 10-14 0-18-13-2-23-6-29-11s-22-28-49-69c-25-41-67-99-125-174l159 12c28 37 53 84 74 141l72-41c7-6 4-12-10-18-15-2-26-8-33-15-6-8-31-43-74-106-43-60-98-129-164-207l254 53 4-20c-125-36-200-59-223-68-22-9-44-22-66-39l-45 68c18 6 37 14 54 24 18 21 39 47 61 76 21 29 49 71 86 127-58-9-96-15-115-20-19-4-42-15-69-33L0 562c20 3 37 13 53 27 43 64 75 117 97 158 22 38 41 82 59 131l64-41m49-625 6-18-209-90C88 88 64 72 49 57L8 118l314 94Z"/></symbol><symbol id="缍_G" viewBox="0 0 1000 1000" data-size="21"><path transform="matrix(1 0 0 -1 26 935)" d="M627 780V640h184l35 45 58-55c2-2 4-5 4-8 0-6-4-10-13-10H785V435h67l35 46 56-56c2-2 3-5 4-8 2-7 0-10-8-10H785V214h43l35 45 53-55c2-2 4-4 6-8 0-6-5-9-14-9H627V35h150l39 46 63-58c4-1 6-3 6-7 0-6-4-8-12-8H412c-14 0-33-2-57-8l-15 35h234v152H396c-17 0-35-3-52-8l-18 35h96v193h-82c-12 0-24-2-35-6l-20 34h137v177h-20c-10 0-23-2-39-8l-17 36h228v132c-70-5-138-10-205-15l-2 19c65 9 141 23 229 39 88 15 156 34 205 55 32-39 49-60 49-64s-1-7-4-8c-4-1-11 0-22 2-10 3-29 4-58 2-28-3-75-10-139-22M471 214h103v193H471V214m156 193V214h109v193H627m109 28v177H627V435h109m-162 0v177H471V435h103M268 825c9-8 9-13 0-17-14-2-25-6-32-12-6-5-21-25-47-63-26-35-68-93-126-171l169 11c16 26 29 52 39 80l53-33c12-8 12-14 0-17-15-6-26-14-31-24-6-8-23-35-53-80-29-44-77-107-142-189l226 19 2-19c-103-19-166-32-189-39-22-6-44-18-67-36l-47 69c18 6 34 13 47 21 57 72 108 147 153 227-60-11-101-20-125-28-24-5-43-13-59-23L0 565c19 2 34 8 45 20 36 49 67 96 92 141 23 45 45 89 64 134l67-35m66-670 6-17-213-83c-23-12-44-27-63-45L20 71l314 84Z"/></symbol><symbol id="缎_G" viewBox="0 0 1000 1000" data-size="21"><path transform="matrix(1 0 0 -1 22 961)" d="M541 831c-26-2-66-12-121-31V649h68l35 45 55-56c1-2 2-4 2-6 1-5-1-7-4-8H420V450h64l36 43 48-53c1-2 2-5 2-7 0-5-2-8-4-8H420V245l156 68 8-17-164-88v-94l6-59c0-10-7-20-22-30-13-8-26-12-37-11l4 90v77c-26-15-47-30-62-45l-32 51 94 39v642l55-43c45 19 91 43 138 72 26-33 40-52 41-56 0-4-3-6-11-6-8 1-26-1-53-4m262 51 49-35c5-5 7-8 7-10s-8-11-25-25V634c-1-18 5-28 16-28h52c4 0 8 2 14 8 3 4 5 6 8 6 2-1 7-6 15-16 10-10 14-17 14-21-1-8-19-14-55-16h-48c-19 0-34 2-45 8-12 9-18 24-18 43v205H686v-72c-3-51-10-92-22-125-12-32-47-70-105-115l-10 13c46 49 72 90 78 122 6 31 10 70 12 117v125l54-41h86l24 35m29-381 53-43c4-2 7-6 8-12-2-3-7-6-14-9-12-8-22-17-27-28-28-81-65-152-112-213 15-20 37-41 67-62 28-19 55-34 80-46 23-11 46-18 68-22V47c-17 1-31 0-41-2-10-3-23-12-41-25-38 24-68 46-92 68-23 21-45 46-68 75-16-19-46-45-90-77-43-31-96-60-158-86l-8 14c49 28 90 56 123 82 33 23 69 57 109 102-18 33-33 67-44 104-13 37-24 84-34 140l-25-4-22 32h241l27 31m-197-57c13-60 25-102 35-125 9-23 23-52 43-88 33 41 66 112 98 213H635M314 257l6-16-201-94c-36-23-58-40-68-49l-39 63 302 96m-97 666 68-43c1-6 0-10-4-12 0-2-4-4-11-6-13-2-32-24-57-66-24-42-74-110-150-203l158 6c29 43 50 81 64 115l63-41c4-3 4-7 0-14 2 0-1 0-8-2-14-6-27-14-41-25-79-110-154-203-227-278l242 38 2-20c-73-16-128-31-168-43-39-12-72-25-97-41l-33 70c9 4 23 11 41 22 38 40 87 106 148 197-50-8-85-15-103-19s-40-13-65-26L0 595c27 8 49 24 68 49 78 115 127 208 149 279Z"/></symbol><symbol id="缏_G" viewBox="0 0 1000 1000" data-size="21"><path transform="matrix(1 0 0 -1 30 958)" d="M459 819h377l37 49 51-53c2-2 3-5 4-9 0-8-4-12-12-12H697V677h114l31 35 51-45c3-3 5-5 5-8 0-4-9-12-29-25V452l4-90c-1-8-6-15-16-23-9-6-21-10-35-12v51H689c-2-80-15-149-39-205 34-23 63-40 88-51 26-10 53-19 82-26 29-9 69-13 119-14V63c-18-2-33-6-44-10-12-4-21-15-26-33-27 9-55 20-86 31-30 12-58 25-86 41-26 14-49 30-68 48C594 89 521 42 412 0l-8 14c94 49 158 101 192 157-36 41-64 91-84 150l17 8c27-55 55-98 84-129 15 38 25 97 32 178H529v-12c-2-7-8-14-19-21s-22-10-33-10l3 109v270l55-37h115v117H541c-14 0-36-3-66-8l-16 33m70-414h117l2 67 2 45H529V405m168 112-2-51-2-61h129v112H697m-168 27h121v103H529V544m168 103V544h125v103H697M309 222l5-18-199-80c-21-12-43-27-64-46L8 138l301 84m-55 658c10-8 10-14 0-18-14-2-24-6-29-13-6-8-22-32-47-71-24-38-62-92-114-162l147 8c22 41 40 79 55 115l58-39c10-8 8-14-6-19-11-4-20-9-27-16s-30-42-68-103c-38-63-86-131-145-206l223 26 2-20c-102-18-164-31-186-39-20-6-41-15-62-29l-41 60c17 5 32 12 45 20 13 21 30 45 50 72 18 28 49 80 92 157-54-12-90-21-109-26-18-4-36-12-55-23L0 618c17 3 33 12 49 26 28 41 55 84 80 128 25 46 45 94 62 143l63-35m238-4c8-5 7-10-2-16-19-6-33-20-41-43-21-54-45-111-70-170l29-17c9-3 13-6 14-10 6-6-3-13-26-19V134l4-91c1-8-6-17-21-25-13-9-24-13-33-12l4 122v451c-37-74-77-133-118-178l-9 10c46 80 86 162 119 246 32 84 58 168 78 252l72-33Z"/></symbol><symbol id="缐_G" viewBox="0 0 1000 1000" data-size="21"><path transform="matrix(1 0 0 -1 37 967)" d="M627 880c-16-6-38-32-66-78h201l29 37 55-47c2-3 3-5 4-8 0-4-10-12-30-25V579l4-70c1-9-5-18-17-28-13-10-26-15-39-15v31H631v-27c23-45 48-94 74-147 45 39 86 80 123 123 39-30 59-47 61-50 2-5 1-8-2-10-4-1-11-2-22-2-10 0-27-7-51-20-22-13-55-33-97-58 31-46 58-78 82-98 21-20 43-35 64-47 20-10 41-18 63-25v-16c-28 1-47-1-59-4-12-1-23-9-35-24-43 40-80 83-111 130-32 45-61 112-90 203V92c0-31-6-53-18-65-11-11-30-20-56-27-5 16-12 28-22 37s-35 20-76 33l6 18c41-10 71-15 92-16 18 1 26 14 23 38v387H459v-12c-1-7-8-14-21-21-14-7-26-10-36-10l4 121v260l47-33h78c20 47 37 91 51 133 45-20 68-32 70-36 2-2 2-5 0-7 0-2-9-6-25-12M459 522h309v118H459V522m0 143h309v111H459V665M332 394h141l23 33c40-27 61-42 61-45 0-2-1-4-2-6-3-3-8-6-16-10s-18-23-31-56c-12-34-33-77-65-131-30-54-74-103-132-150l-12 14c41 44 77 95 107 153s52 116 69 172h-79c-15 0-29-2-42-8l-22 34m-53 466c10-7 10-13 0-17-14-2-25-7-33-14-7-8-26-33-57-76-30-44-71-98-121-162l161 2c32 44 56 84 72 121l64-41c8-5 7-11-2-20-13 0-25-7-35-19s-35-43-76-94c-42-51-96-108-162-172l219 29 2-19c-110-24-176-39-196-45-19-7-39-19-62-37l-41 70c21 3 39 9 52 16 22 23 43 47 65 72 21 25 51 65 90 117-63-6-104-12-123-19-20-6-36-14-49-24L4 591c19 4 34 12 45 23 37 49 68 98 94 147 24 49 47 95 68 140l68-41m80-631 6-19-258-103C85 96 64 82 45 64L0 130l359 99Z"/></symbol><symbol id="缑_G" viewBox="0 0 1000 1000" data-size="21"><path transform="matrix(1 0 0 -1 29 958)" d="M639 569c4-2 5-4 2-7 0-2-3-5-8-8-13-2-22-9-28-20-5-10-15-25-29-47h203l37 45 51-54c4-2 6-5 6-8 1-6-1-9-6-8H701c-2-53-7-101-13-143h130l37 45 57-52c2-3 3-6 4-10 1-7-5-10-16-10H711c17-46 37-84 60-115 23-32 49-57 79-73 27-17 58-30 91-38V49c-28 1-46-1-56-6-9-6-19-14-31-23-23 21-43 43-63 66-19 21-38 47-57 79-19 31-33 74-45 127h-9c-8-61-30-115-65-164-35-48-90-90-166-128l-8 14c63 43 109 86 139 130 29 44 48 93 57 148H518c-14 0-32-2-55-6l-16 33h194c5 41 9 88 13 143h-90c-25-43-54-82-87-117l-14 6c46 76 83 159 109 250l67-32m134 301 55-41c6-4 9-8 10-14 0-4-12-11-37-21l-18-143h57l35 43 59-54c2-3 3-4 4-4 0-7-4-10-12-10H566c-18-3-35-7-50-10l-20 35h240l20 157H629c-11-1-28-4-51-10l-27 35h193l29 37m-242 4c12-6 12-12 0-18-17-2-34-17-51-44-29-75-57-139-84-194l34-15c8-2 13-6 13-12 0-2-9-8-27-18V138l4-91c0-12-5-22-14-29-8-8-21-12-39-14l4 136v435c-25-45-57-90-96-135l-9 10c39 64 77 143 115 237 38 93 64 167 78 222l72-35M332 239l4-19-211-80c-21-13-43-28-64-46l-49 59 320 86m-64 643c9-8 9-14 0-18-14-2-25-6-32-13-6-6-22-28-48-67-28-39-70-94-125-166l160 10c23 41 45 80 64 117l57-39c10-6 9-12-4-19-12-4-22-11-29-20-8-8-32-39-71-94-37-54-88-121-154-199l238 29 2-19c-114-24-181-39-201-45s-40-16-61-29l-43 60c15 5 30 11 43 20 15 17 34 42 55 74 22 30 53 77 94 142-58-11-96-20-115-25-18-4-38-12-61-23L0 620c21 4 38 12 51 24 26 39 54 83 84 132 29 49 53 95 70 139l63-33Z"/></symbol><symbol id="缒_G" viewBox="0 0 1000 1000" data-size="21"><path transform="matrix(1 0 0 -1 24 951)" d="M682 761h101l30 39 52-35c6-4 9-9 10-14 0-4-8-14-25-31V614l4-72c0-8-6-17-18-25-12-9-23-13-35-14v39H609V419h198l27 33 49-35c8-4 12-8 12-14 0-4-10-12-30-25V261l4-80c1-8-4-16-15-24-12-8-24-13-36-13v60H609v-53c0-5-5-13-17-23-12-9-24-13-35-14l4 131v547l48-31h49c8 37 17 84 28 140 45-16 69-26 72-31 2-3 2-6 0-10-4-2-11-6-20-9-8-4-17-14-25-30-9-15-19-36-31-60m-73-530h209v161H609V231m0 338h192v164H609V569M334 222l6-18-217-76c-25-12-49-27-70-44l-43 62 324 76m-55 613c10-8 10-14 0-18-13-2-24-6-31-13-7-8-26-32-57-73-29-41-71-96-125-166h161c25 38 48 80 70 125l62-43c11-7 10-14-4-19-16-3-30-12-42-27-13-15-36-46-69-92-31-46-80-104-146-174l224 29 2-19c-109-24-174-39-193-47-20-6-45-16-74-29l-36 66c14 3 31 8 51 16 18 18 39 42 63 72 21 28 49 69 82 121-63-9-102-15-119-20-18-4-37-13-59-27L0 563c23 8 41 17 53 28 29 45 58 90 86 135 26 45 52 93 78 146l62-37m82 4c39-35 66-63 80-82 13-20 22-36 26-49 4-12 5-23 4-33s-4-18-10-26c-7-7-16-10-27-7-13 2-20 11-22 29 0 17-4 37-12 60-5 23-22 56-48 98l9 10M260 491h129l27 37 51-37c8-4 12-9 12-13 0-2-12-11-36-28V146c30-29 57-49 82-60 26-12 59-20 100-23 38-4 109-4 213 1l113 14V61c-20-2-37-8-51-20-11-11-19-21-23-31H709c-42 0-78 4-109 11-31 8-58 18-80 30-22 10-41 24-59 40-18 17-32 25-43 25s-22-8-33-21c-12-13-35-45-71-95l-50 45c39 31 84 62 134 95v326h-85c-11 0-22-3-34-8l-19 33Z"/></symbol><symbol id="缓_G" viewBox="0 0 1000 1000" data-size="21"><path transform="matrix(1 0 0 -1 26 954)" d="M734 589h71l37 47 56-55c2-2 4-4 4-6 2-8 0-12-7-12H582l-23-103h283l41 51 58-59c2-2 4-4 6-8 0-6-4-9-11-9H549c-11-34-22-65-33-92h226l31 33 55-43c6-4 9-8 10-12 0-4-6-8-18-13-11-4-20-11-27-20-8-8-23-29-47-64-23-35-45-62-68-80 38-26 72-43 101-52 28-9 52-15 75-20 21-4 52-9 91-13V41c-19 0-35-2-50-6-14-4-26-15-36-31-30 12-57 23-80 33-22 10-43 20-62 31-18 12-41 28-71 48-31-24-76-47-132-69-55-20-118-35-188-47l-4 16c48 10 100 27 155 50 54 23 101 48 142 78-47 44-80 101-99 171h-14c-33-71-75-132-125-185-50-51-98-92-145-122l-7 13c42 36 82 76 119 121 36 44 65 86 86 127 20 40 43 95 66 166h-86c-14 0-36-3-66-8l-16 33h174l23 103h-72c-14 0-34-2-61-7l-21 33h334c36 73 66 144 90 213 45-22 68-35 70-39 1-4 0-7-4-10-4-2-8-4-13-6-5-1-10-3-16-8-6-4-16-17-31-41-14-24-37-60-71-109M541 317c25-57 61-106 105-148 29 21 63 70 102 148H541m289 526c-12 0-60-5-142-14-83-8-194-17-334-27l-2 19c126 14 226 28 300 41 75 13 137 28 188 45 38-42 56-65 55-68 0-4-2-6-6-6s-12 1-24 4c-11 2-23 4-35 6m-434-69c56-31 91-58 104-80 14-21 18-39 12-52-5-15-14-22-28-22-11-1-19 6-23 20-2 11-7 27-14 47-8 18-28 44-60 78l9 9m176 12c47-35 76-62 86-82 11-19 13-36 8-49-5-14-14-21-27-21s-20 6-22 17c-2 12-6 27-12 45-4 19-19 47-44 84l11 6M363 265l6-18c-154-65-240-103-258-113-15-11-33-24-52-40l-45 65 349 106m-97 605c4-2 5-6 5-10 2-2 0-4-5-7-19 0-48-28-86-82-38-55-78-109-121-161l187 8c33 45 55 84 67 117 46-29 70-45 70-47-1 0 0-1 2-5 2-2-1-5-8-8-8-2-16-5-23-8-9-2-37-31-84-88S163 456 92 380l221 31 1-19c-67-12-118-24-154-36-36-9-66-22-92-37l-43 67c15 2 31 7 49 15 44 47 98 112 160 196-70-8-115-15-134-20-19-4-40-12-63-23L0 616c18 5 31 11 41 16 10 4 35 40 76 109s69 125 84 166l65-37Z"/></symbol><symbol id="缔_G" viewBox="0 0 1000 1000" data-size="21"><path transform="matrix(1 0 0 -1 42 965)" d="M455 741c38-25 64-47 78-64 14-18 19-35 16-51s-11-25-26-27c-14-2-22 6-25 23-2 18-6 33-12 47s-19 34-41 62l10 10m-109 41h427l40 47 60-55c4-2 6-5 6-9 0-5-4-8-12-8H422c-11 0-31-3-63-8l-13 33m187 149c41-21 71-39 88-57 18-18 25-35 22-53-3-16-11-25-26-27-13-1-22 6-27 21-4 14-9 28-14 41-6 12-23 34-53 65l10 10m233-239c-9 0-23-11-43-35-20-22-39-46-59-72h168l23 33 45-43c8-6 13-12 16-17 0-2-4-4-12-6-19-6-35-14-47-24-11-9-27-26-46-49l-14 10 35 69H387c-3-34-10-59-22-77-11-16-23-24-35-25s-21 5-27 16c-7 9-2 22 13 39 16 15 28 31 36 49 5 15 9 37 11 64h20c0-18 1-31 2-39h254c32 54 59 107 80 160 41-20 64-32 66-37 3-3 3-7 0-10-4-2-10-4-19-6M652 515c2-2 4-4 4-6s-2-5-6-8l-27-12v-82h123l37 37 47-47c5-3 7-7 8-11 0-4-11-13-31-26V151c1-17-4-31-16-42-10-12-27-22-51-31-8 22-20 37-37 46-15 8-36 17-60 27l3 16c38-8 63-14 77-16 13-1 22 1 27 6 7 5 9 16 8 31v192H623V124l4-91c0-10-7-17-20-23s-26-9-37-10l4 116v264H447V200l2-80c0-8-6-16-19-24-12-6-24-9-35-10l1 120v242l57-41h121v137l78-29M338 237l6-15-229-88c-39-17-64-32-74-46L2 153l336 84M193 894l65-34c4-2 7-6 8-9 0-5-3-8-8-10-18 0-37-16-59-51-21-35-64-102-129-199l147 4c32 56 56 103 72 140l65-33c11-6 11-12-2-19-18-4-34-17-49-37-77-116-145-208-203-276l228 18v-20c-72-10-127-19-166-29s-69-22-90-37l-41 66c12 1 28 8 47 20 33 39 76 101 131 187-46-6-81-12-107-17-26-4-48-12-67-24L0 601c29 1 51 13 66 37 63 110 105 196 127 256Z"/></symbol><symbol id="缕_G" viewBox="0 0 1000 1000" data-size="21"><path transform="matrix(1 0 0 -1 30 973)" d="M406 888c45-20 78-37 100-53 20-16 32-30 37-43 4-13 3-24-2-33s-12-15-21-16c-11 0-19 6-26 20-6 12-14 26-23 43-11 15-35 39-75 72l10 10m221-430c6-4 7-8 4-12s-10-6-22-8c-12-1-30-29-54-82h271l37 49 49-52c3-2 7-5 10-8 0-8-5-12-14-12H779c-25-63-58-119-99-168l109-41c35-16 61-32 76-48 14-14 21-28 22-43-1-12-6-19-16-23-10-2-23 4-41 19-17 15-41 32-70 51-30 20-67 39-112 58-35-30-85-59-150-87C434 25 365 8 289 0l-2 16c78 16 145 39 203 68 56 27 96 50 119 69-65 23-123 42-173 57 23 45 43 86 58 123h-66c-12 0-33-3-65-8l-17 31h158c23 53 42 97 57 133l66-31M479 222c48-12 99-26 154-43 32 30 64 82 96 154H541l-62-111m167 664V710h159l35 47 60-55c2-2 4-4 4-6 1-8-2-11-9-11H678c17-26 37-51 58-73 22-22 51-42 88-60 35-18 74-30 115-33v-18c-25 0-43-3-54-8-11-6-21-14-31-25-36 21-64 41-84 60-22 17-41 37-59 61-18 23-36 55-55 96h-10v-81l4-76c0-10-7-19-21-25-12-7-25-10-37-10l4 115v77c-30-49-69-92-117-129-49-37-103-69-161-98l-9 14c66 43 115 79 146 109 31 27 61 62 88 104H412c-14 0-31-2-53-6l-19 31h256v236c54-18 82-29 84-33 0-4-1-8-2-10-2-2-13-7-32-17m38-137c48 63 87 117 115 160 40-27 59-43 58-49 0-6-2-8-5-7h-16c-7 0-20-9-39-26-20-15-54-45-102-88l-11 10M354 253l5-18c-154-71-240-113-257-124-19-11-36-23-51-37l-35 62 338 117m-86 631c3-2 5-6 3-12-1-2-4-4-9-6-18 1-47-30-88-94-40-63-78-119-115-168l160 4c23 47 43 87 58 121 43-31 65-48 67-52 0-3-1-5-2-8-3-3-7-4-14-4-6 0-14-4-21-12-8-7-32-39-71-95-37-56-90-125-156-209l240 54 4-19c-84-22-144-41-181-57-36-15-66-30-90-43l-37 70c11 2 26 8 45 18 35 42 85 115 152 219-61-10-101-18-119-24-18-4-37-11-57-23L0 606c15 0 30 8 45 24 15 15 41 57 78 127s63 127 76 170l69-43Z"/></symbol><symbol id="编_G" viewBox="0 0 1000 1000" data-size="21"><path transform="matrix(1 0 0 -1 47 952)" d="M213 53c64 79 105 150 125 214 17 61 29 162 37 300v235l63-43h347l28 39 52-39c5-2 8-6 8-12 0-3-8-11-25-25v-63l4-80c0-10-7-19-22-27-14-6-25-10-35-12v33H426l-6-92 43-35h350l35 37 52-48c4-2 6-5 6-10s-10-14-29-28V72c1-21-4-37-16-49-11-9-30-17-56-23-6 20-17 35-32 43-15 6-31 12-48 18l2 17c46-8 72-13 78-14 4 1 9 2 15 4 7 2 9 10 8 24v171h-98v-71l4-74c0-10-6-18-19-22-13-8-24-12-33-12l4 106v73h-92v-76l4-81c0-8-7-16-20-22-12-8-23-12-33-12l4 107v84h-84V146l4-93c0-7-8-16-24-26-14-8-25-12-33-11l4 120v312c-14-117-38-205-72-263-34-57-74-105-121-144l-10 12m252 237h84v129h-84V290m129 129V290h92v129h-92m136 0V290h98v129h-98M428 601h367v130H428V601m88 289 5 13c47-15 81-29 100-41 20-12 31-25 35-39 5-12 5-23 0-31-4-8-10-14-15-18-6-2-13-3-20-2-8 2-14 9-19 22-6 11-12 23-18 37-7 12-29 31-68 59M291 212l6-20-205-78C60 99 39 87 29 76L0 140l291 72m-74 662 64-41c5-2 7-6 8-12-1-4-8-8-21-13-14-2-38-30-71-82-34-54-79-116-136-186l148 6c31 47 57 91 76 133l61-39c9-6 11-12 8-18 0-1-4-3-12-4-18-6-34-18-49-37-77-106-148-195-215-268l227 30 2-20c-45-10-92-21-141-33s-88-26-117-43l-35 70c19 4 35 11 49 22 41 41 87 103 140 187-49-5-84-12-105-19-22-6-43-14-65-24L2 550c26 6 46 19 61 39 67 103 118 198 154 285Z"/></symbol><symbol id="缗_G" viewBox="0 0 1000 1000" data-size="21"><path transform="matrix(1 0 0 -1 45 964)" d="M600 606c-9 30-16 60-22 92H414v-92h186M414 835V724h338v111H414m-10-428 45-19h268l25 23 51-45c4-2 6-5 6-8-1-4-12-11-33-21V128l4-91c0-7-5-14-14-21-9-8-22-13-39-16v78H453V41c0-12-6-21-17-27-12-6-24-8-36-8l4 120v281m49-303h264v118H453V104m0 143h264v115H453V247m315 652 58-43c4-3 6-6 6-7 0-5-10-14-31-28v-56l4-73c0-10-6-19-18-27-12-6-23-10-35-12v45H627c4-32 11-62 21-92h131l39 45 65-56c1-4 2-7 2-10-1-3-4-4-10-4H658c12-28 33-57 63-86s58-49 84-58c25-10 41-6 47 11 5 20 13 53 23 100l20-4c-2-41-4-71-6-90-2-20 0-35 6-45 5-9 9-16 13-21 3-4 3-8 0-12-4-4-12-6-23-6-13 0-35 4-67 12s-70 30-115 68c-45 39-76 82-94 131H414V466l170 45 8-18c-71-26-119-44-147-55-27-10-50-25-70-44l-47 54 37 16v441l67-45h308l28 39m-534-2c10-7 10-13 0-17-9-4-17-9-23-14-6-6-20-30-41-72-20-43-53-106-100-190l129 6c25 53 45 99 61 139l62-37c11-8 10-14-4-20-16-6-27-13-33-21-6-9-27-46-64-113-36-67-75-132-116-196l198 28 4-22c-93-19-151-33-174-41-23-6-46-17-69-33l-41 68c23 6 41 13 55 22 38 52 76 120 113 203-39-8-69-14-89-20-22-4-43-13-65-27L0 606c21 4 39 12 53 24 31 64 54 118 70 162 15 42 29 88 43 137l68-32m114-646 7-22-236-105c-21-10-42-24-60-42l-41 56 330 113Z"/></symbol><symbol id="缘_G" viewBox="0 0 1000 1000" data-size="21"><path transform="matrix(1 0 0 -1 33 970)" d="m510 940 72-31c4-2 5-6 4-12-3-1-11-4-25-7l-14-12-20-47h180l37 33 51-45c4-2 6-6 6-11 0-6-11-13-33-22l-51-197h97l34 49 58-53c2-3 4-6 6-10 0-8-4-12-12-12H621c-27-21-58-42-94-64 43-35 75-74 96-117 76 56 135 105 178 148l54-45c4-4 6-7 6-9 3-6-1-10-11-12-20 2-41-3-65-16-23-12-53-30-90-54 15-52 35-94 61-127 25-34 53-62 82-84 30-23 62-37 96-45v-18c-24 0-43-2-57-8-12-4-23-12-31-22-22 19-44 42-67 67-21 26-41 57-60 94-18 34-33 78-47 131l-41-24c12-48 19-84 21-105 2-22 2-47 2-74 0-28-2-51-8-70-4-19-13-39-27-58-12-17-36-34-72-51-8 23-22 39-41 47-18 8-41 16-70 25l3 18c51-10 84-15 100-16 16 1 29 6 39 16s17 22 22 36c4 16 7 38 9 68s-2 70-9 121c-32-39-78-85-137-136S320 78 211 29l-6 16c106 64 186 121 240 171 53 49 99 101 139 154 2 6-7 24-25 53-32-31-68-61-108-92-39-31-86-59-140-86l-8 12c45 32 86 65 123 97 35 32 70 67 105 106l-23 27c-59-32-126-60-201-86l-8 14c105 52 189 102 252 148H387c-6 0-24-2-55-7l-16 33h354l21 88H492l-27-24-53 53c17 8 29 18 37 29l61 205m187-238 28 104H520c-13-41-24-75-34-104h211M334 233l4-19c-149-49-233-78-252-88-18-9-32-19-43-28L6 163l328 70m-72 645c4-3 6-7 6-14-1-2-4-4-10-6-16 1-43-28-78-86-35-56-75-112-117-166l171 4c33 59 55 105 67 139 47-25 70-39 70-41v-8c0-4-4-6-12-8-7-2-15-7-23-15-8-7-33-43-76-110-43-64-96-134-158-211l252 34 3-20c-97-19-164-35-199-47-33-10-62-21-88-35l-43 68c11-2 29 4 55 18 33 40 80 111 141 213-61-9-103-16-125-22-22-3-43-11-63-23L0 608c16 2 31 10 45 24 13 14 37 53 72 117 35 65 61 120 76 166l69-37Z"/></symbol><symbol id="缙_G" viewBox="0 0 1000 1000" data-size="21"><path transform="matrix(1 0 0 -1 30 960)" d="m418 464 57-43h275l31 39 67-49c4-2 6-5 6-8-1-4-12-13-34-27V136l4-99c0-8-4-15-13-21-10-8-24-13-41-16v86H469V39c0-12-6-21-18-27-12-5-25-8-37-8l4 130v330m51-354h301v133H469V110m0 159h301v127H469V269M355 854h454l37 51 66-56c2-3 3-6 4-10 0-8-5-12-14-12H715V536h121l33 49 67-55c2-2 3-6 3-9 0-8-3-12-11-12H404c-11 0-32-3-62-8l-18 35h203v291h-89c-15 0-38-2-69-8l-14 35m221-318h90v291h-90V536M371 767c32-20 58-41 78-65 20-21 31-41 35-58 2-17 0-29-7-38-8-8-18-11-30-9-12 1-19 11-21 31-3 19-9 39-20 60-10 20-25 43-47 69l12 10m463-104c-18-24-45-57-80-98l-16 10c37 66 68 129 92 190 45-24 68-39 70-43 3-5 3-8 0-10-4-2-11-5-23-8-10-2-25-16-43-41M287 880c10-8 10-14 0-18-16-2-26-6-31-11-6-5-24-29-55-73-29-43-72-101-129-172l166 4c26 38 47 76 65 114l66-43c11-8 10-15-4-20-16-2-28-8-37-15-8-9-31-39-70-90S164 442 94 366l267 37 4-21c-133-28-213-46-238-55-25-8-50-19-72-35l-43 70c17 4 37 11 58 22 18 19 39 45 65 78 25 31 56 72 94 125-71-8-116-16-135-24-20-6-37-14-53-25L0 610c20 4 38 12 55 24 40 56 73 106 97 150 24 42 45 88 65 137l70-41m72-635 6-19-246-104c-22-10-43-25-62-44l-45 68 347 99Z"/></symbol><symbol id="缚_G" viewBox="0 0 1000 1000" data-size="21"><path transform="matrix(1 0 0 -1 24 965)" d="M332 792h260v139l74-32c6-4 8-7 6-9 0-2-10-8-29-18v-80h197l35 47 55-53c2-2 5-6 8-10 0-6-4-9-12-9H643v-86h146l29 37 49-41c6-5 9-9 10-14 0-4-10-12-29-23V479l6-68c-1-8-8-15-22-23s-25-12-35-12v45H643v-57c0-8-6-15-18-21-10-6-21-9-33-8v86H443v-51c0-9-4-18-11-27-9-8-23-12-43-12l6 100v291l56-41h141v86H414c-14 0-36-3-66-8l-16 33m111-346h149v92H443v-92m200 92v-92h154v92H643m-200 24h149v95H443v-95m200 95v-95h154v95H643m50 235 6 11c28-6 51-13 71-23 18-8 30-18 37-29 6-11 7-21 4-32-4-9-11-14-22-15-10 0-18 6-23 17-6 12-15 24-26 35-10 10-25 22-47 36M330 288h408v96l76-26c6 0 8-2 8-7 0-4-11-11-33-20v-43h65l33 45 60-55c2-2 4-4 4-7 0-6-4-9-12-8H789V94c1-21-3-39-12-55-8-14-32-27-72-39-2 19-12 34-31 45-20 10-45 19-76 27l4 18c39-10 68-16 87-18 18-2 31-1 40 2 7 5 11 23 9 54v135H412c-14 0-36-3-66-8l-16 33m111-47 10 10c41-27 69-51 82-70 12-19 17-35 16-49-1-13-5-23-14-28-8-6-15-8-23-4-9 2-14 10-16 22-1 12-4 27-10 47-4 17-19 41-45 72m-89-8 3-19c-150-37-235-61-253-70s-34-18-47-28l-37 65 334 52M182 909l68-37c4-2 6-4 6-8 2-3 0-6-6-10-18 0-43-29-76-85-32-56-70-112-113-168l154-4c31 58 53 105 64 140 47-28 71-43 71-45v-7c-1-3-6-6-14-8s-16-7-23-14c-6-8-28-40-65-96S160 446 96 372l230 29 2-19c-73-12-127-24-162-35-35-13-65-26-90-39l-39 64c10 3 24 9 41 20 37 42 79 103 127 183-47-1-81-4-101-10-19-3-40-10-63-21L0 603c16 0 31 7 47 23 14 15 37 55 70 119 31 65 53 119 65 164Z"/></symbol><symbol id="缛_G" viewBox="0 0 1000 1000" data-size="21"><path transform="matrix(1 0 0 -1 28 966)" d="m838 915 62-55c2-2 4-5 4-7 0-6-3-9-8-8H420V647h416l29 41 61-50c2-3 3-6 4-8 0-6-3-9-8-8H635c17-37 45-72 84-105 41 31 75 62 103 93 35-24 53-39 55-45 1-3-1-6-4-7-2-2-8-3-18-2-8 0-21-3-39-10-17-9-43-24-78-45 23-18 43-29 61-35 17-6 37-12 58-18 22-4 51-9 86-13v-18c-16 1-32-1-48-6-16-4-28-14-38-29-33 14-67 32-101 56-33 25-63 51-88 79-24 26-43 61-57 103h-60V442l107 51 10-14c-46-33-78-56-96-68-17-12-37-31-58-57l-51 57 39 20v191h-80c-2-92-9-177-20-254-9-76-29-140-58-193-28-52-67-101-119-148l-10 12c34 43 64 91 90 144 23 52 41 112 52 179s15 149 14 246v305l63-43h365l39 45M473 757h277l37 41 53-51c2 0 4-2 6-6-1-6-4-10-10-10H555c-14 0-34-2-61-7l-21 33m19-512 10 10c49-26 77-47 86-63 8-14 11-27 10-39-3-10-8-17-16-21-6-5-14-5-23-2-9 4-14 12-16 23-1 11-5 24-10 39-6 14-19 32-41 53m-84 55h307v96l68-28c7 0 9-4 8-14 0 2-10-2-29-13v-41h80l33 45 51-53c2-2 3-5 4-8 0-6-4-10-12-10H762V68c-2-19-12-34-30-45-15-11-31-19-48-23-5 23-16 38-34 45-18 8-43 16-74 23l6 20c59-12 95-17 109-14 16 3 24 11 24 22v178H467c-14 0-26-2-37-7l-22 33M264 899c9-7 9-13 0-17-16-4-26-9-30-14-4-4-21-27-50-70-28-41-67-97-118-166l159 2c24 39 45 77 62 115l63-35c11-8 9-14-4-20-15-4-26-11-33-19-7-9-30-39-69-92-39-51-90-113-152-187l219 41 3-20c-102-28-165-47-189-57-23-9-45-23-64-41l-45 71c19 5 38 13 56 25 18 21 37 45 59 72 19 26 48 68 86 125-57-4-98-11-121-19-24-6-43-14-59-24L0 636c17 4 33 10 49 17 41 62 70 111 88 149s36 81 54 131l73-34m47-595 7-20-213-96c-23-14-44-31-64-50L0 198l311 106Z"/></symbol><symbol id="缜_G" viewBox="0 0 1000 1000" data-size="21"><path transform="matrix(1 0 0 -1 30 965)" d="M355 798h233v133l78-30c6-2 9-4 10-5v-8l-41-16v-74h178l37 47 58-53c2-3 2-6 2-10 0-6-4-10-12-10H637v-87h115l27 41 55-36c6-3 9-8 10-13 0-4-10-14-30-30V237h28l39 49c37-36 57-56 58-60 2-4 0-8-3-12l-4-2H389c-6 0-21-3-43-8l-16 33h104v485l56-37h98v87H438c-14 0-36-2-67-7l-16 33m127-561h284v96H482v-96m0 119h284v88H482v-88m0 112h284v82H482v-82m0 105h284v88H482v-88M453 92C410 68 340 38 242 0l-8 18c84 37 176 94 274 169 37-30 56-47 56-53 0-5-1-7-5-8s-12-1-24-2c-12 0-39-11-82-32m225 79c64-18 113-35 148-51 33-14 57-30 70-46 13-15 17-30 14-45-2-13-10-21-21-23-13-2-24 4-34 19-8 16-24 34-48 53-24 20-69 46-135 79l6 14M277 860c10-7 10-13 0-17-13-3-23-6-29-10s-21-23-47-59c-26-35-72-92-138-171l187 13c21 35 39 72 55 110l66-36c9-7 7-14-4-19-15-4-27-11-35-20-6-10-28-43-66-97-37-55-93-122-166-201l263 41 6-20c-124-29-198-48-221-55-22-8-45-19-68-33l-45 68c18 6 33 14 47 22 22 21 43 47 64 76 22 29 53 76 94 141-74-11-122-20-142-28-22-5-41-14-57-25L0 608c16 2 31 10 47 22 46 58 80 105 101 142 20 35 41 77 63 125l66-37m59-658 6-19-215-53c-29-9-53-19-72-30l-41 61 322 41Z"/></symbol><symbol id="缝_G" viewBox="0 0 1000 1000" data-size="21"><path transform="matrix(1 0 0 -1 26 960)" d="M482 485h159v106l64-22c10-2 15-6 14-11 0-4-3-7-8-8l-22-10v-55h94l30 39 52-46c2 0 2-2 2-6 1-8-2-12-10-12H689v-88h65l33 39 55-47c2-2 3-4 4-6 0-6-5-9-14-9H689v-96h122l31 39 47-45c2-2 4-4 6-8 0-8-4-11-12-11H689v-45l2-61c2-9-3-17-17-24-13-8-26-12-39-12l6 104v38H535c-12 0-34-3-66-8l-22 33h194v96h-78c-14-1-34-4-59-10l-22 33h159v88h-77c-13 0-33-2-62-6l-20 31M314 860c32-27 54-48 69-64 12-14 21-29 29-43s11-27 10-37c-2-11-7-19-14-26-6-6-15-9-25-7-10 1-16 11-18 31-2 17-7 35-13 55-4 17-20 44-47 82l9 9m-84-359h114l31 39 49-37c8-6 13-10 14-14 0-2-12-11-36-27V140c29-24 57-43 84-56 26-13 59-20 100-21 60-6 144-4 250 5l111 14V64c-19-1-36-9-49-21-13-10-22-21-27-33H703c-64 0-112 2-142 8-32 4-59 13-81 27-22 12-42 27-60 45-18 17-31 25-39 24-8 0-20-8-37-22-18-14-39-44-65-92l-50 47c35 29 77 61 125 97v334h-59c-14-1-28-4-43-10l-22 33m415 391c1-1 3-2 3-4 5-2 4-6-3-12-13-4-23-10-28-18-4-5-13-19-27-41h160l31 34 55-47c6-5 8-7 6-8 0-4-6-8-18-12s-23-12-33-25-21-28-35-45c-14-18-31-35-53-53 23-17 50-31 80-41s54-17 74-19c20-3 47-6 82-8v-18c-21-2-37-4-48-8s-21-13-32-29c-33 12-64 25-93 39-28 14-57 33-86 59-41-30-77-53-108-69-30-15-74-33-133-54l-7 13c50 24 90 45 121 63 31 17 64 41 99 72-29 29-56 70-82 121-41-64-87-121-136-170l-14 10c34 44 65 92 92 143 26 50 49 102 66 156l67-29m-53-98c17-37 45-74 82-111 31 31 58 68 82 111H592m-348 66c5-2 7-6 6-9-3-5-7-8-14-10-15 0-34-20-54-61S122 676 63 591l132 4c25 49 47 93 67 133 44-28 66-42 66-43v-8c-1-3-7-7-19-10-11-2-26-18-45-49-65-105-125-196-182-273l209 33 2-20c-81-19-137-35-168-46-30-12-57-25-80-38l-35 67c23 2 41 12 54 29 8 8 24 31 47 70 24 39 49 82 77 131-47-2-81-8-100-15-18-7-35-16-51-28L2 593c19 5 37 17 53 37 54 87 95 176 123 266l66-36m55-621 4-15C170 169 95 136 78 124c-15-11-28-22-37-32L0 155l299 84Z"/></symbol><symbol id="缞_G" viewBox="0 0 1000 1000" data-size="21"><path transform="matrix(1 0 0 -1 34 969)" d="m408 731 59-39h267l32 37c41-27 62-42 64-46 1-4-10-14-33-30v-86h53l33 41 45-46c2-2 3-5 4-8 0-8-4-12-12-12H797v-76l4-51c0-6-5-14-16-23-10-9-23-12-39-10v25H633c9-43 31-94 66-152 30 23 76 70 141 141l58-45c4-6 4-10 0-12-3-1-11-2-23-4-11-1-28-8-51-22-21-13-59-39-113-76 21-27 41-49 59-64 17-15 38-30 62-45 23-12 55-22 96-28V82c-20 0-35-4-47-12-10-5-20-15-31-31-43 30-80 62-112 97s-60 76-84 123c-23 46-39 95-49 148-42-53-76-94-101-125V88l133 71 11-17c-69-46-112-76-127-89-15-14-31-32-48-53l-55 53c15 8 27 18 37 31v151c-32-29-66-57-101-84-36-25-71-47-106-67l-8 16c45 34 82 64 110 90 26 26 56 55 89 88 33 34 67 76 102 129h-82v-19c0-8-7-16-20-24-11-8-23-11-35-11l4 91v98h-27c-13 1-34-3-63-10l-19 35h109v164m51-298h287v109H459V433m0 134h287v100H459V567m359 239 39 50 61-60c2-2 3-4 4-6 1-8-5-12-16-10H398c-13 1-33-2-62-9l-20 35h502M527 927l8 11c45-16 74-29 88-39s22-21 23-33c3-11 1-22-5-33-8-10-18-15-30-14-12 2-19 10-21 24s-9 28-20 43c-9 13-24 27-43 41m-236-53c10-8 10-14 0-18-16 0-27-3-33-9-5-7-22-30-51-69s-74-97-135-175l151 1c28 43 50 84 66 122l74-39c11-8 10-15-4-20-17-1-30-5-37-14-6-7-33-41-80-99-47-59-97-116-152-170l234 23 4-21c-114-18-183-30-207-37-23-7-45-19-68-37l-39 64c19 5 35 11 49 20 21 23 40 44 56 62 14 18 45 60 94 125-67-6-108-12-123-20-16-5-30-13-43-23L8 603c19 3 37 12 53 27 42 64 74 116 95 156 21 39 41 80 61 125l74-37m57-633 6-19-247-100c-22-10-43-26-62-46L0 138l348 103Z"/></symbol><symbol id="缟_G" viewBox="0 0 1000 1000" data-size="21"><path transform="matrix(1 0 0 -1 35 976)" d="m826 802 37 47 63-55c2-3 3-6 4-10 0-4-5-7-14-8H408c-13 1-33-2-58-9l-24 35h500m-367-63 57-33h207l25 33c44-31 64-49 61-52-1-3-10-10-28-20v-64l6-45c-2-13-8-22-17-28-10-6-23-9-38-11v35H508v-10c0-6-3-12-8-18-10-8-25-13-47-15l6 88v140m49-160h224v102H508V579m-14-195 49-33h133l33 31 39-28c8-4 12-9 12-15 0-3-9-12-26-27v-84l4-51c0-9-6-16-17-22-12-8-24-11-35-11v37H543v-12c0-8-4-16-12-23s-22-12-43-14l6 84v168m49-180h143v123H543V204m-16 736 6 12c31-10 57-21 76-33 20-12 34-25 41-41 6-14 6-27 0-39-5-13-14-18-25-16-12 0-20 6-23 18-4 10-10 23-18 39-7 14-25 34-57 60M357 497l57-39h397l31 41 54-39c6-2 10-6 10-12 0-4-10-12-29-25V109c2-32-4-56-18-72-14-14-38-27-72-37-3 20-14 35-33 47-18 10-47 21-86 33l4 18c53-11 86-18 99-20 14-2 27-2 40 0 11 2 16 12 15 31v324H408V121l4-76c-2-9-8-18-19-25-12-8-26-14-41-18l5 126v369m-91 373c9-8 9-14 0-17-16-2-26-6-32-12-5-4-21-26-46-65-27-39-69-93-127-164l168 2c35 53 58 96 70 129l64-37c11-8 9-14-4-19-15-3-28-10-37-22-8-12-32-45-72-98-38-51-92-118-162-201l228 26 4-18c-101-22-164-36-189-43-26-6-49-18-70-33l-45 72c19 4 35 10 48 18 22 25 45 52 69 82 21 29 51 70 88 123-58-6-98-13-121-20-24-6-43-15-55-27L0 612c20 4 37 14 53 30 37 56 65 102 86 138 19 35 37 76 54 123l73-33m62-631 6-19-215-80c-22-11-43-25-62-42l-43 59 314 82Z"/></symbol><symbol id="缠_G" viewBox="0 0 1000 1000" data-size="21"><path transform="matrix(1 0 0 -1 29 967)" d="M320 222c30 82 45 206 43 373v240l59-45h410l41 51 57-61c4-2 6-6 6-9 0-4-3-6-10-6H412V595c-2-203-24-345-66-424C303 94 253 37 197 0l-8 12c58 56 102 126 131 210m153 476 62-41h254l25 39 61-45c2-4 3-6 4-7 1-4-9-14-27-30V413l3-78c0-9-6-16-19-22-12-5-23-8-33-9v35H686V212h113l29 47 59-55c2-2 3-4 4-6 0-8-4-11-12-11H686V53h162l33 45 57-53c1 1 3-2 3-8 1-6-2-9-9-10H441c-11 1-33-2-64-7l-18 33h276v134H518c-14 0-36-3-67-8l-15 33h199v127H525v-10c0-10-6-17-19-23-14-6-26-9-37-8l4 99v301m52-334h110v117H525V364m161 117V364h117v117H686m-161 26h110v125H525V507m161 125V507h117v125H686M291 212l4-18-186-76c-32-14-52-26-62-38L8 140l283 72m-39 650c7-2 10-6 8-11-2-4-9-7-20-10-12-1-29-20-51-57S125 681 63 585h146c32 58 54 105 66 143 42-27 64-41 67-45 2-4 2-8 0-12-4-2-11-4-20-6-8-2-19-12-31-29-68-115-137-210-205-283l217 31 2-18c-59-13-108-26-147-39-38-14-68-27-90-41l-45 67c12 1 27 9 45 21 39 42 83 106 133 191-45-5-80-11-103-17-22-5-43-13-65-26L0 585c25 3 46 18 63 43 62 113 103 204 123 273l66-39m316 61 8 12c39-18 67-34 84-49 18-17 28-30 29-39 2-10 2-19-1-26-3-8-8-13-14-17-5-3-13-4-22-2s-15 9-17 21c-2 11-7 24-14 39-6 15-23 35-53 61Z"/></symbol><symbol id="缡_G" viewBox="0 0 1000 1000" data-size="21"><path transform="matrix(1 0 0 -1 26 967)" d="m848 798 35 51 60-57c2-3 4-6 4-10 1-6-2-10-9-10H410c-14 0-37-2-68-7l-14 33h520m-444-67 69-27c6-2 9-4 9-6 2-6-7-14-29-25V507h360v215l74-32c2-2 3-5 4-7 0-3-10-10-30-22V558l4-75c1-7-4-15-15-23-11-7-23-10-37-10v33H459l-21-31-61 41c18 11 27 23 27 37v201m119 190 4 14c35-10 63-22 86-36 22-12 35-25 41-39 6-13 6-26 0-37-5-10-14-15-27-15-12-1-20 5-23 19-4 13-12 27-24 43-12 15-31 32-57 51M357 429l59-37h143c8 24 17 52 25 84 45-12 68-20 70-24 0-4 0-8-2-10-2-1-6-2-11-4-6-1-11-4-14-9-3-4-9-17-20-37h221l33 41 51-41c7-4 9-9 8-14 0-5-10-14-29-27V107c0-31-4-54-12-70-10-15-31-27-65-37-10 25-25 42-44 49-21 6-47 14-81 23l4 18c54-10 89-15 104-16 16 0 27 1 35 4s11 16 10 39v249H596c-25-47-54-94-86-140 66 5 132 13 197 21-18 29-37 55-57 78l10 10c39-27 69-51 88-72 19-22 30-41 33-59 3-17 2-30-4-37-6-8-13-12-23-12-11 1-17 7-20 20-2 11-7 28-15 51-83-14-135-25-156-32-22-6-47-15-77-29l-35 59c11 4 20 9 28 13 7 4 15 14 25 32 10 15 25 48 47 97H406V134l4-85c0-11-6-19-19-26s-25-11-37-11l3 120v297m282 244c22 19 49 49 80 88 34-25 50-40 49-45 0-6-3-9-8-8-5 0-12-2-22-6-9-4-19-10-29-19-9-8-22-19-39-32 39-30 62-52 70-66 7-13 10-24 8-33-3-8-7-14-14-18-5-2-12-3-19-2s-13 7-20 20c-6 11-13 22-21 33s-20 24-37 39c-43-36-91-67-143-92l-10 12c55 38 97 73 127 103-25 20-60 45-105 77l8 13c38-17 80-39 125-64M270 866c9-8 9-13 0-17-14-2-24-6-30-12-4-7-19-27-45-63-26-35-72-97-138-185l160 6c25 41 47 82 64 123l59-39c10-8 9-15-4-20-16-2-27-10-35-21-7-12-28-41-63-88-33-46-84-108-154-186l221 24 6-18c-88-18-145-30-170-37-24-7-47-18-69-33l-45 68c17 4 32 10 45 18 18 21 37 47 59 76 21 27 45 62 74 107-47-3-84-8-111-15-28-5-48-13-61-22L0 595c16 4 31 11 47 23 35 52 66 102 94 149 25 46 48 91 68 136l61-37m46-638 6-20-205-82c-28-12-51-28-68-46L4 138l312 90Z"/></symbol><symbol id="缢_G" viewBox="0 0 1000 1000" data-size="21"><path transform="matrix(1 0 0 -1 29 927)" d="M463 347h303l29 31 45-39c8-2 12-6 12-12-1-2-10-10-28-25V33h26l35 47 53-53c1-1 3-4 3-7 0-8-3-12-11-12H361c-11 0-33-2-64-8l-18 33h125v329l59-15M453 33h76v288h-76V33m125 0h80v288h-80V33m129 0h68v288h-68V33m-39 614h119l37 49 57-54c2-3 3-6 4-10 0-8-3-12-10-12H463c-14 0-37-2-68-8l-20 35h262c32 55 66 123 101 204l63-30c6-8 5-13-2-15-6-3-14-6-24-10-7-4-21-20-41-47-17-27-39-61-66-102M428 835l10 12c52-30 86-53 103-69 18-15 27-31 29-47s0-28-7-37-16-13-28-11c-12 0-19 9-23 29-4 17-12 36-24 57-12 18-32 40-60 66m95-258c45-26 68-41 69-45 0-4-1-6-2-8-2-1-9-2-20-3s-33-20-64-57c-32-37-88-91-168-160l-12 15c80 80 145 166 197 258m163-31 7 16c49-23 86-44 114-63 27-18 48-35 64-53 14-16 20-33 18-50s-10-26-24-28c-11-2-23 7-35 28-11 20-26 42-45 66-19 23-53 51-99 84M260 827c10-8 10-14 0-17-14-5-24-10-30-16-6-7-21-27-44-63-23-35-66-95-127-177l170 11c33 51 59 100 80 147l62-37c8-6 7-12-2-18-15-3-27-10-35-21s-34-45-78-104c-45-59-96-125-152-197l203 31 4-19c-94-24-151-39-172-47-22-6-43-18-63-35l-45 66c17 4 34 11 51 22 18 20 36 44 57 72 17 27 44 66 80 117-61-8-102-16-123-23-22-7-41-16-57-28L0 554c18 4 33 13 47 25 40 60 71 111 92 154 21 41 37 82 50 121l71-27m60-637 6-19-197-78C98 78 74 63 59 45l-45 61 306 84Z"/></symbol></svg>