<svg xmlns="http://www.w3.org/2000/svg"><symbol id="讠_G" viewBox="0 0 1000 1000" data-size="21"><path transform="matrix(1 0 0 -1 292 923)" d="M143 847c69-35 111-63 125-82 13-20 19-36 17-49 0-15-4-26-10-33-4-8-11-13-19-14-7-3-14-2-22 2-7 3-12 14-13 31-2 16-8 33-18 53-8 19-31 45-70 78l10 14m52-272 63-53c4-2 6-5 6-9s-5-9-16-14c-16-6-23-16-23-27V118l179 115 12-17C318 140 261 95 244 80c-16-16-37-42-62-80l-55 57 47 40v402H55c-10-2-22-6-35-12L0 524h158l37 51Z"/></symbol><symbol id="讠_H" viewBox="0 0 1000 1000" data-size="21"><path transform="matrix(1 0 0 -1 293 937)" d="M115 874c31-16 58-32 80-48 24-13 43-26 55-36 14-10 23-19 29-25 6-7 9-14 12-22 3-4 4-10 4-15-1-23-9-35-24-35-5 0-10 2-14 4-5 5-14 18-28 38-16 22-33 43-50 61-19 18-44 39-76 61l12 17M0 583c26-6 63-9 112-9h93l33 41c25-14 43-28 54-42 5-4 8-9 8-12 0-6-13-16-38-32V118c15 13 31 25 48 36 39 31 71 58 95 82l9-18c-19-26-40-52-64-80-26-30-52-58-80-85-4-35-9-53-13-53-7 0-28 25-65 76 8 5 15 10 24 15v457H112c-52 0-83-2-93-7L0 583Z"/></symbol><symbol id="计_G" viewBox="0 0 1000 1000" data-size="21"><path transform="matrix(1 0 0 -1 44 959)" d="M314 591h260v328l92-37c2-4 3-7 4-8 0-2-2-5-6-8l-37-15V591h178l39 56 64-62c2-3 3-6 4-10-1-8-6-12-16-12H627V140l6-95c0-8-7-17-20-27-11-10-26-16-43-18l4 144v419H396c-13 0-35-2-66-7l-16 35M117 884c71-38 113-67 127-86 14-20 21-37 22-51-1-14-4-24-8-31-4-6-10-10-18-12-6-3-13-2-21 2-7 2-13 12-16 29-2 17-8 34-17 51-8 16-34 45-79 88l10 10m71-248 54-49c4-3 6-6 6-10s-4-8-12-14l-29-17V177l172 136 14-15c-79-75-129-124-153-149-23-25-43-54-58-86l-65 59 41 33v410H55c-10 0-20-3-30-9L0 593h152l36 43Z"/></symbol><symbol id="订_G" viewBox="0 0 1000 1000" data-size="21"><path transform="matrix(1 0 0 -1 36 954)" d="M320 790h485l47 57 72-65c2-2 3-6 4-11 0-7-5-10-16-10H662V118c3-26-2-49-16-69-13-18-37-35-74-49-6 15-13 28-23 39-10 10-45 24-106 41l4 18c68-12 110-17 125-16 14 2 24 6 30 12 6 4 9 18 7 44v623H396c-12 0-27-4-44-12l-32 41M88 907c66-35 107-63 125-84 17-21 27-39 27-54s-2-25-8-32c-5-6-11-9-17-11-4-2-11-2-20 0-7 2-13 11-17 29-3 16-9 33-20 53-8 19-34 48-78 88l8 11m86-271 64-53c5-3 7-6 8-10-1-4-14-13-39-27V181l178 162 15-14c-95-98-153-158-173-182-19-24-36-51-51-83l-63 50 43 51v397H59c-10 0-23-4-38-12L0 587h137l37 49Z"/></symbol><symbol id="讣_G" viewBox="0 0 1000 1000" data-size="21"><path transform="matrix(1 0 0 -1 67 961)" d="m531 923 86-39c4-2 6-5 6-8 1-5-1-8-4-10l-37-17V626c78-33 139-64 184-94 43-29 71-55 86-78 13-23 17-44 11-60s-15-24-29-24c-13 0-26 15-39 45-14 29-39 61-76 94-37 31-83 62-137 94V132l4-87c1-12-13-25-41-39l-18-6 4 132v791m-426-41c82-37 130-67 145-88 15-20 21-37 20-53-2-15-6-27-12-35-6-6-15-10-26-10s-20 10-25 32c-4 19-12 38-23 56-11 17-39 46-86 86l7 12m79-250 64-43c5-3 7-6 8-10 0-4-4-10-12-16l-23-23V171l191 189 16-15c-96-104-155-172-178-203-22-32-39-63-51-95l-74 60 45 40v416H53c-10 0-20-3-30-9L0 587h156l28 45Z"/></symbol><symbol id="认_G" viewBox="0 0 1000 1000" data-size="21"><path transform="matrix(1 0 0 -1 33 954)" d="M643 870c3 0 5-2 5-6s-2-6-5-8l-22-19c10-196 25-338 47-426 21-86 57-160 105-223 47-61 100-98 161-110V61c-31 2-54 0-69-4s-29-11-41-22c-54 56-95 111-123 165-28 53-50 117-66 194-16 74-28 194-35 361-13-211-31-354-55-430-24-75-57-137-100-185C402 93 326 46 217 0l-6 12c88 49 152 96 193 143 41 46 72 106 92 178 18 72 33 160 43 264 9 103 16 207 20 310l84-37M178 618l60-45c4-2 6-6 6-10 1-3-4-8-15-13l-22-16V187l205 209 16-16C310 249 242 171 225 146c-18-26-34-53-47-82l-63 52c21 18 36 33 45 47v389H55c-10-1-22-4-35-10L0 577h150l28 41m-67 252 8 12c53-24 92-46 117-67 24-20 37-39 41-56 4-18 2-33-6-45-7-13-17-19-29-18-12 0-19 10-23 30-4 19-13 40-26 62s-41 49-82 82Z"/></symbol><symbol id="讥_G" viewBox="0 0 1000 1000" data-size="21"><path transform="matrix(1 0 0 -1 32 949)" d="M492 817h178l39 49 61-51c3-3 5-7 5-11 1-4-12-15-39-33V157c0-27 2-43 6-47 5-6 17-8 37-7h51c18 1 29 7 33 19 4 11 7 29 10 55 2 24 4 65 6 121h19c0-59 2-100 6-123 4-22 14-37 32-45-11-27-22-45-34-54-11-8-30-15-54-19h-82c-23 0-41 6-57 15-16 10-23 31-23 64v654H477V575c0-120-4-211-12-273-8-61-29-117-65-170-33-50-86-94-156-132l-10 12c60 42 103 87 131 135 28 49 45 102 53 161 6 58 9 146 8 263v301l66-55M94 897c71-43 115-76 131-97 14-22 20-39 19-53 0-12-2-21-8-29-6-6-11-10-17-12-6-3-12-2-18 2-6 2-12 12-17 29-5 15-10 32-16 49-6 16-33 49-82 100l8 11m78-267 55-47c4-3 7-6 7-10s-4-8-13-13l-22-20V173l160 160 16-14c-75-84-123-140-145-168-20-25-38-54-54-87l-67 50 41 45v404H53c-13 0-24-3-33-11L0 589h139l33 41Z"/></symbol><symbol id="讦_G" viewBox="0 0 1000 1000" data-size="21"><path transform="matrix(1 0 0 -1 38 941)" d="M338 812h435l41 48 61-56c1-2 2-5 2-8 1-8-3-12-10-12H625V499h189l41 55 67-65c1-2 2-4 2-8 0-6-3-9-10-9H625V159l4-116c-1-10-8-20-22-29-13-9-26-13-37-14l4 159v313H367c-13 0-32-4-54-12l-28 39h289v285H420c-12 0-33-2-65-8l-17 36m-234 70c66-37 106-67 121-88 13-20 19-37 19-53-1-15-4-26-10-33-5-8-11-12-17-14-7-2-14-2-22 2-7 3-12 13-15 32-3 18-8 36-16 54-8 20-31 49-70 88l10 12m64-260 61-47c1-2 3-6 3-10 0-3-3-8-11-13l-24-20V169l178 148 16-15c-89-83-145-139-168-168-22-30-39-57-49-83l-67 59c18 14 32 30 41 47v397H55c-10-1-22-4-35-10L0 579h139l29 43Z"/></symbol><symbol id="讧_G" viewBox="0 0 1000 1000" data-size="21"><path transform="matrix(1 0 0 -1 39 934)" d="M340 751h426l41 57 66-63c2-2 3-6 4-10 1-7-5-11-16-11H623V87h182l45 57 68-62c2-2 3-5 4-10 0-8-5-11-14-11H367c-13 0-35-2-64-8l-18 34h287v637H420c-14 0-35-3-63-8l-17 35M92 868c66-37 107-66 121-88 13-19 19-37 19-52s-3-27-9-34-12-12-18-13c-6-3-14-2-21 2-8 2-13 13-16 31s-8 36-16 55c-7 19-31 48-70 87l10 12m72-260 61-46c2-3 3-6 4-10 0-4-5-9-14-14l-22-19V147l178 172 16-15c-88-93-147-161-176-203-28-41-47-74-57-101L90 51c19 17 37 40 55 69v420H55c-10-1-22-4-35-10L0 565h135l29 43Z"/></symbol><symbol id="讨_G" viewBox="0 0 1000 1000" data-size="21"><path transform="matrix(1 0 0 -1 31 957)" d="M307 655h394v258l74-37c7-3 10-6 8-10 0-4-12-11-33-19V655h80l43 53 59-62c2-3 4-6 6-10-2-5-3-7-4-8H750V74c-3-17-12-33-27-47-16-13-37-22-65-27-2 18-12 33-29 45-16 12-47 23-94 35l4 20c78-20 125-27 141-22 15 7 22 16 21 28v522H395c-14 0-36-3-67-8l-21 35m115-136 10 11c60-37 99-68 117-93 18-26 27-47 25-65 0-18-5-31-13-39s-18-11-30-8c-11 4-18 17-21 39-2 22-8 45-18 67-10 21-33 50-70 88M127 874c74-39 118-68 133-88 13-19 19-36 17-51 0-15-4-26-9-33-5-6-10-10-16-12s-12-2-20 2c-5 3-10 13-13 32-4 17-13 37-28 58-13 21-37 47-74 78l10 14m68-250 59-47c4-2 7-6 8-10-1-4-6-8-16-13l-23-16V171l175 166 14-14c-90-98-146-161-170-189-21-27-38-53-49-77l-60 53c15 9 29 24 41 45v403H55c-10-1-22-4-35-10L0 583h164l31 41Z"/></symbol><symbol id="让_G" viewBox="0 0 1000 1000" data-size="21"><path transform="matrix(1 0 0 -1 48 946)" d="m531 892 82-32c8-4 12-6 12-7 1-5 0-8-4-10l-37-22V548h184l43 55 70-65c1-2 2-4 2-8s-3-7-8-8H584V63h207l39 55 70-59c2-2 4-6 4-10 0-8-4-12-13-12H352c-13 1-35-2-67-8l-15 34h261v829M82 847c76-35 122-63 139-82 15-19 23-36 23-51-1-15-4-26-10-33-5-8-11-13-17-14-6-3-12-2-18 2-6 3-11 13-17 31-4 18-14 37-30 59-13 19-39 45-78 76l8 12m88-272 62-47c5-2 8-6 8-9 0-4-6-9-15-14l-26-22V110l184 153 12-14C299 157 242 98 225 74c-16-25-32-50-47-74l-65 53c17 12 30 25 37 39v413H55c-11-1-23-4-37-10L0 528h139l31 47Z"/></symbol><symbol id="讪_G" viewBox="0 0 1000 1000" data-size="21"><path transform="matrix(1 0 0 -1 58 949)" d="m574 899 80-29c16-5 18-12 6-21l-35-14V101h170v560l78-31c6-2 9-4 10-6 2-6 1-11-2-14l-37-13V146l4-105c0-8-7-17-22-27-14-10-25-14-31-12v72H414l-27-33-63 41c20 10 31 21 31 34v545l81-31c4-3 6-7 5-14 0-4-12-10-37-17V101h170v798m-455-25c67-37 107-66 121-88 13-19 20-37 20-53-1-15-4-26-10-33-6-8-12-12-18-13-6-3-13-2-21 1-7 3-12 13-16 32-2 18-7 36-15 54-8 20-32 49-71 88l10 12m49-264 61-47c1-2 3-5 3-9s-4-9-13-14l-22-19V157l137 125 16-15c-63-65-107-112-131-143s-41-59-51-85l-61 55c18 13 32 29 41 48v400H55c-10-1-22-4-35-10L0 567h139l29 43Z"/></symbol><symbol id="讫_G" viewBox="0 0 1000 1000" data-size="21"><path transform="matrix(1 0 0 -1 38 944)" d="M539 800c-10-15-29-48-59-98h325l37 53 58-61c2-2 4-6 4-9 0-5-2-8-8-8H465c-26-37-50-73-72-106-24-33-59-71-106-113l-10 10c36 45 65 86 88 123 22 36 47 83 76 138 28 55 51 108 71 159 52-30 79-46 80-49 0-3-1-5-2-8-2-2-9-4-20-6-10 0-21-9-31-25M371 505h285l35 39 55-45c8-5 12-10 12-16 0-4-8-6-24-7-9-4-19-10-29-18-8-6-23-26-47-61-23-33-53-78-90-136-35-57-58-94-68-112-10-17-18-33-23-48s-4-25 2-31c5-5 13-9 25-13 10-2 27-4 53-4h224c18 2 32 6 41 11 10 4 18 14 24 31 5 17 11 73 19 168h22c-3-87 0-136 8-149 5-12 15-22 29-28-10-20-22-35-35-45-12-10-26-17-41-21-14-5-34-8-59-8H545c-36 0-61 2-74 8-14 5-24 10-30 15-5 5-10 14-13 28-5 13-4 28 2 43 6 16 15 35 29 57 12 22 34 60 68 113 32 53 75 121 129 203H441c-12 0-29-2-50-7l-20 33M111 847c61-34 99-61 116-82 16-20 24-37 23-53-1-15-4-26-10-33-6-8-11-13-17-14-6-3-12-2-18 2s-10 16-14 35c-2 19-7 37-17 55-8 16-31 42-70 78l7 12m63-272 60-39c5-2 8-6 8-10s-6-8-15-13l-24-20V118l174 149 14-16c-94-89-151-146-170-173-19-28-36-54-51-78l-59 53c18 10 34 25 47 44v414H53c-10-1-22-4-35-10L0 534h146l28 41Z"/></symbol><symbol id="讬_G" viewBox="0 0 1000 1000" data-size="21"><path transform="matrix(1 0 0 -1 49 941)" d="M727 806c-36-9-82-24-141-45V476l199 25 35 55 67-45c7-5 9-10 8-16 0-2-3-4-8-4l-301-41V92c0-19 3-31 10-37 8-6 23-9 47-10h152c19 2 30 8 33 19 3 12 6 26 8 42 1 18 4 57 8 118h19c2-57 4-95 6-114 3-17 14-29 33-38-7-30-26-52-54-66l-41-6H629c-22 0-39 2-51 6-12 2-21 10-29 21-8 12-12 32-12 59v356l-199-23c-12-3-20-7-24-14l-29 32 252 31v283c-49-10-124-27-224-53l-4 18c241 73 393 128 455 166l58-59c4-6 2-10-6-13-23 6-53 5-89-4m-600 72c66-37 107-66 121-88 13-19 20-37 20-53-1-15-4-26-10-33-6-8-12-12-18-14s-13-2-21 2c-7 3-13 13-16 32-2 18-8 36-15 54-8 20-32 49-71 88l10 12m72-287 61-47c2-3 3-6 4-10 0-4-5-8-14-13l-23-20V126l179 148 16-15c-89-83-145-139-168-167-22-30-39-58-49-84l-66 60c17 14 30 29 39 46v408H55c-10 0-22-3-35-9L0 548h168l31 43Z"/></symbol><symbol id="训_G" viewBox="0 0 1000 1000" data-size="21"><path transform="matrix(1 0 0 -1 69 959)" d="m391 899 89-37c5-3 6-6 2-9 2-4-11-12-39-24V519c2-123-11-223-39-299-26-76-88-150-185-220l-12 12c79 73 131 146 154 217 22 70 32 167 30 290v380m187-52 86-32c2-1 3-2 4-3 2-3 1-6-2-10l-37-16V259l4-90c0-10-7-20-22-29-13-10-26-15-37-14l4 129v592m193 58 81-35c4-1 7-2 7-4 4-6 4-10 0-13l-37-16V157l4-94c0-10-8-18-21-26-13-7-25-12-37-14l3 134v748M168 636l64-47c4-3 6-6 6-10 1-4-4-8-15-14-16-5-24-16-24-31V216l133 123 14-16c-67-79-110-129-129-150-17-20-34-49-51-89l-62 60 48 50v371H55c-17-1-28-4-34-9L0 591h137l31 45m-55 283c41-26 71-49 92-68 20-21 33-38 39-51 7-13 9-26 8-39 0-15-4-26-12-33-7-8-16-11-27-8-11 2-18 13-22 33-3 18-9 36-17 57-6 18-29 51-70 97l9 12Z"/></symbol><symbol id="议_G" viewBox="0 0 1000 1000" data-size="21"><path transform="matrix(1 0 0 -1 37 948)" d="M129 896c62-40 101-71 117-92 14-22 21-40 22-55-1-14-4-24-8-31-3-8-9-13-16-14-6-3-12-2-19 2-8 2-13 12-14 29-3 16-10 36-22 59-10 23-34 53-72 90l12 12m47-286 64-47c5-2 7-5 8-9-1-4-6-9-16-14l-23-19V171l186 170 15-14C304 218 242 153 225 132c-16-21-32-50-49-87l-65 47 47 50v398H63c-17-3-30-6-40-10L0 565h145l31 45m640 198c2-2 4-3 4-4v-10l-33-20c-22-110-40-194-55-250-14-54-32-106-54-154-22-49-45-88-71-117 25-25 53-49 84-70s65-40 102-57c35-18 79-30 133-38V70c-18 0-37-2-59-6-19-3-35-15-47-33-41 23-77 46-107 69-29 19-53 38-72 55s-39 37-61 61c-37-42-83-81-137-116C389 64 320 31 234 0l-7 16c89 45 159 86 209 122 48 37 87 74 117 111-34 43-67 109-98 197s-55 199-70 332h23c26-137 52-242 80-314 27-71 58-131 92-180 31 47 57 98 76 153 18 54 33 109 45 164 11 52 24 136 37 250l78-43m-326 84c48-30 82-56 102-79 19-20 29-41 29-62 0-20-4-33-14-41-9-7-19-8-29-4s-15 16-17 35c-2 18-9 37-20 57-10 21-31 49-62 82l11 12Z"/></symbol><symbol id="讯_G" viewBox="0 0 1000 1000" data-size="21"><path transform="matrix(1 0 0 -1 37 941)" d="m174 616 58-53c4-2 6-5 6-9 1-4-4-9-15-14-16-6-24-16-24-31V167l135 109 14-15c-69-71-114-115-133-135-18-20-37-49-57-87l-54 62 48 46v395H55c-14 0-26-3-35-8L0 567h137l37 49m-63 266c37-22 65-43 84-63 20-19 33-35 39-48 7-14 9-28 8-42-2-12-6-22-13-31-8-8-17-11-28-10-12 2-18 13-19 34-2 17-7 36-14 56-7 19-29 50-66 92l9 12m608-18 56-49c6-2 8-7 8-13s-13-16-41-30V509c1-93 7-162 16-209 10-48 21-86 35-115 14-28 27-51 41-67 13-16 21-10 25 18 2 28 8 69 16 121l20-2c-1-42-2-74-2-98-1-25 0-46 3-65 3-20 10-35 20-47 9-11 12-20 8-25s-16-6-35-2c-20 3-42 17-67 41-24 21-45 47-62 79-17 31-31 74-43 129-13 54-20 136-22 248v279H494V499h70l34 47c41-35 62-55 64-59 2-2 2-6 0-9s-8-4-19-4H496V130l2-89c-1-9-7-18-19-25-10-8-22-13-36-16l2 128v346H326c-11-2-26-5-45-8l-19 33h183v295H344c-15 0-29-3-43-8l-24 35h405l37 43Z"/></symbol><symbol id="记_G" viewBox="0 0 1000 1000" data-size="21"><path transform="matrix(1 0 0 -1 32 917)" d="M111 833c74-36 118-65 131-86 12-19 17-37 16-53-2-13-6-23-12-29-5-5-10-8-16-10-5-2-11-2-17 2-6 3-12 14-18 31-4 16-9 32-15 47-7 14-32 43-75 86l6 12m75-256 58-55c5-2 7-5 8-9-1-5-6-10-16-16l-31-18V126l129 105 14-15c-67-63-112-106-133-131-22-25-40-53-55-85l-55 59 53 49v397H51c-14-1-24-4-30-10L0 532h145l41 45m634-127c0-10-4-19-13-29-10-8-24-14-43-18v49H463V99c-1-26 6-40 19-44s34-7 63-10h250c19 0 35 3 47 8 9 6 15 13 19 22 4 10 7 23 10 39 3 15 7 55 10 119h17c2-39 4-71 6-95s12-45 32-65c-13-24-26-41-40-52-13-9-37-16-72-21H547c-46 0-80 5-102 14-20 9-31 35-33 77v437l61-47h293v250H451c-25 0-47-3-66-9l-30 37h387l41 47c51-37 76-58 74-61-2-4-5-8-9-10s-15-9-32-23V542l4-92Z"/></symbol><symbol id="讱_G" viewBox="0 0 1000 1000" data-size="21"><path transform="matrix(1 0 0 -1 33 959)" d="m863 860 65-47c4-2 6-7 6-13 0-3-13-13-38-28l-7-466c-7-80-14-133-22-159-6-24-17-48-33-71-16-21-47-39-92-55-7 24-16 40-27 47-11 8-45 20-104 36l4 20c86-19 139-24 158-16s34 25 43 51c8 25 15 69 22 133l12 498H641c-2-199-12-337-30-414-17-77-48-147-93-209C472 104 396 49 291 0l-8 14c92 56 156 112 194 167 35 54 62 118 82 191 18 73 28 212 31 418H426c-15 0-28-3-39-8l-22 35h471l27 43M457 618h20c0-51-3-94-10-131-9-36-20-62-33-78-15-17-30-25-45-23-15 1-24 8-28 19-2 11 4 24 20 37 15 13 29 32 43 55 12 22 23 62 33 121M127 919c66-37 107-66 121-88 13-19 20-37 20-53-1-15-4-26-10-33-6-8-12-12-18-14s-13-2-21 2c-7 3-13 13-16 32-2 18-8 36-15 54-8 20-32 49-71 88l10 12m72-287 61-47c2-3 3-6 4-10 0-4-5-8-14-13l-23-20V167l179 148 16-15c-89-83-145-139-168-168-22-29-39-56-49-83l-66 59c15 14 28 30 39 47v408H55c-10 0-22-3-35-9L0 589h168l31 43Z"/></symbol><symbol id="讲_G" viewBox="0 0 1000 1000" data-size="21"><path transform="matrix(1 0 0 -1 41 965)" d="M123 909c57-37 93-66 107-88 13-19 20-37 20-52-1-15-4-26-10-34-6-7-11-12-17-13-6-3-13-2-20 2-6 2-10 13-14 33-1 18-6 36-13 55-5 17-26 46-63 85l10 12m53-273 51-47c3-3 5-6 5-10 1-4-12-16-39-33V198l131 102 12-14c-65-58-109-101-135-129-25-28-45-55-58-81l-55 56c17 10 37 25 58 47v390H55c-10 0-20-4-32-11L0 593h139l37 43m109 64h154v229l86-33c4-4 4-8 0-12-2-2-13-8-35-18V700h188v231l74-32c4 0 8-3 12-9 0-4-1-7-4-10l-33-14V700h68l41 49 59-55c1-2 3-4 3-7 0-8-3-12-11-12H727V417h91l37 51 59-57c2-4 3-6 4-6 0-8-4-11-12-11H727V153l3-100c0-8-5-17-17-28-12-7-25-11-39-11l4 143v237H488c-2-58-10-109-25-155-15-45-40-87-74-126-35-39-95-77-180-113l-6 16c72 37 124 77 156 120 32 42 52 86 63 131 10 44 16 86 17 127H326c-13 0-36-3-66-8l-16 31h195v258h-82c-14 0-33-3-56-8l-16 33m393-283v258H490V417h188Z"/></symbol><symbol id="讳_G" viewBox="0 0 1000 1000" data-size="21"><path transform="matrix(1 0 0 -1 50 967)" d="M123 892c56-36 92-64 109-84 16-23 23-41 22-57 0-16-4-27-12-35-8-6-13-10-17-12-4-1-10 1-18 4-6 2-10 12-12 29-2 15-6 32-11 49-6 16-30 47-71 94l10 12m59-270 58-49c4-2 6-6 6-10 1-3-4-8-16-13l-23-20V163l168 119 14-13c-91-77-145-124-162-143-18-16-36-41-53-75l-57 60 43 38v409H59c-8 2-19-2-32-12L0 581h152l30 41m117 121h246v192l78-32c14-8 15-15 4-21l-31-12V743h187l43 59 70-67c2-2 4-4 4-6 0-7-4-11-11-11H596V585h162l39 51 68-61c2-2 3-4 4-8 0-4-4-7-12-7H596V425h195l35 39 55-47c5-2 8-6 8-12 0-2-12-9-35-23 0-70-1-120-2-151 0-29-8-52-24-70-14-16-37-30-68-43-10 24-20 39-31 47-11 6-40 17-86 33l3 18c60-13 96-20 108-22 11-2 21 0 31 6s16 18 18 35c1 18 2 73 2 164H596V144l4-103c-1-8-6-16-16-23-10-8-24-14-43-18l4 155v244H355c-20 0-37-2-50-7l-20 33h260v135H410c-14 0-35-3-64-8l-18 33h217v133H381c-14 0-34-3-61-10l-21 35Z"/></symbol><symbol id="讴_G" viewBox="0 0 1000 1000" data-size="21"><path transform="matrix(1 0 0 -1 39 931)" d="m822 862 71-64c2-2 3-5 3-8 0-5-2-7-7-8H416V61h400l39 51 65-61c1-2 2-5 2-10s-3-7-8-8H430L395 0l-67 51 39 31v771l63-45h353l39 54M662 478c35 72 58 122 68 148 11 25 21 54 32 86 47-20 72-32 76-37 2-6 3-10 2-12-2-2-9-4-20-8s-21-13-29-29-21-39-37-70c-16-32-37-69-63-114 41-46 71-84 92-111 19-27 31-53 37-76 5-24 4-42-4-55-7-12-16-17-27-15-12 1-19 10-23 27-4 16-13 41-28 76-13 35-37 74-70 115-31-50-63-97-94-140-31-42-69-82-113-121l-14 11c48 58 83 104 104 137 21 31 51 80 90 148-20 30-39 57-59 83-18 23-53 64-105 123l13 13c41-37 71-66 92-88 20-20 46-50 80-91M119 858c67-37 107-66 121-87 13-20 20-38 20-53-1-15-4-26-10-33-6-8-12-13-18-14-6-3-13-2-21 2-7 2-12 13-16 31-2 18-7 37-15 55-8 19-32 49-71 88l10 11m49-263 61-47c1-3 3-6 3-10s-4-8-13-14l-22-19V161l133 123 16-15c-59-65-102-114-129-147-26-32-43-61-53-87l-60 55c16 13 31 31 44 54v382H55c-10 0-22-4-35-9L0 552h139l29 43Z"/></symbol><symbol id="讵_G" viewBox="0 0 1000 1000" data-size="21"><path transform="matrix(1 0 0 -1 38 944)" d="m852 868 68-64c2-4 3-7 4-10 0-5-3-7-8-8H443V583h313l41 39 55-53c3-4 5-7 5-9 0-5-11-14-35-28V384l4-78c0-8-6-16-15-24-11-8-24-13-40-15v45H443V64h362l45 56 70-65c1-2 2-6 2-10 0-5-3-8-8-8H449L418 0l-61 49 36 31v780l58-47h358l43 55M443 339h328v217H443V339M115 888c67-37 107-67 121-88 13-20 20-37 20-53-1-15-4-26-10-33-6-8-12-13-17-14-7-2-14-2-22 2-7 3-12 13-16 31-2 19-7 37-15 55-8 20-31 49-71 88l10 12m53-282 61-46c1-3 3-6 3-10s-4-9-13-14l-22-19V163l143 131 15-16c-65-68-112-119-138-154s-43-65-53-91l-60 54c19 16 34 32 44 51v400H55c-10-1-22-4-35-10L0 563h139l29 43Z"/></symbol><symbol id="讶_G" viewBox="0 0 1000 1000" data-size="21"><path transform="matrix(1 0 0 -1 28 953)" d="m857 888 69-63c2-1 3-4 4-10 0-3-5-5-14-5H740V546h92l39 55 68-65c8-8 8-14-1-19H740V106c2-30-4-54-17-71-14-16-35-28-65-35-6 24-18 41-37 51s-51 21-96 35l6 19c47-11 80-19 100-23 19-4 34-3 45 2 10 4 15 20 15 48v385h-13c-32-65-66-121-102-170-35-49-77-99-125-149-47-50-107-98-181-143l-10 15c58 45 110 92 156 144 45 49 84 97 117 144 31 47 61 100 90 159H420l-35-26-53 57 45 15c23 49 51 114 82 194l68-37c4-5 4-9 2-10-2-4-8-7-19-8-9-4-17-10-22-17-27-56-50-102-70-139h273v264H408c-17 2-36-1-56-10l-26 37h496l35 51m-744 17c60-41 96-72 108-92 11-19 17-35 15-48 0-14-3-24-7-32-4-7-10-12-18-13-6-3-12-2-20 2-7 2-12 13-13 31-1 17-5 35-14 55-6 18-27 47-62 86l11 11m61-267 62-47c4-3 6-6 6-10 1-4-4-8-15-14-16-5-24-16-24-31V204l131 117 14-15c-66-73-108-119-127-141-17-21-34-50-51-85l-61 54 47 49v382H61c-18-1-30-4-36-9L0 593h143l31 45Z"/></symbol><symbol id="讷_G" viewBox="0 0 1000 1000" data-size="21"><path transform="matrix(1 0 0 -1 52 961)" d="m373 741 53-43h156v225l82-29c4-4 5-7 4-10 0-2-12-10-37-24V698h168l29 43 59-39c6-2 9-6 9-12 0-3-10-14-31-31V100c2-27-4-48-15-63-12-16-34-27-65-35-8 23-20 38-37 47-16 8-45 19-88 35l6 18c47-12 77-18 92-20 13-1 27-1 41 0 14 2 19 10 17 25v564H629c-1-58-5-112-14-162 59-39 98-71 117-94 20-23 32-44 36-62 2-19 0-34-6-45-8-13-18-18-30-16-11 1-19 14-23 39-3 23-12 49-27 76-15 26-40 53-75 82-19-69-43-121-72-156-29-36-67-70-113-104v-95l4-91c0-10-7-19-22-27-13-10-25-15-35-16l4 136v605m49-482c29 19 57 49 82 90s44 84 57 129c11 46 19 111 23 193H422V259M123 888c66-37 107-67 121-88 13-20 20-37 20-53-1-15-4-26-10-33-6-8-12-13-18-14-6-2-13-2-21 2-7 3-13 13-16 31-2 19-8 37-15 55-8 20-32 49-71 88l10 12m45-266 61-47c1-2 3-6 3-10 0-3-3-8-11-13l-24-20V179l133 131 16-16c-60-66-100-115-121-147-22-30-39-61-53-92l-63 55c16 11 29 25 39 43v401H55c-10-1-22-4-35-10L0 579h139l29 43Z"/></symbol><symbol id="许_G" viewBox="0 0 1000 1000" data-size="21"><path transform="matrix(1 0 0 -1 33 968)" d="m186 640 58-49c6-4 8-9 6-14l-41-33V196l186 125 11-17C260 187 180 111 166 78l-55 62 49 33v396H57c-13 0-26-2-39-7L0 595h146l40 45m398 263c4-2 6-4 6-6 2-3 0-7-6-11-18-6-33-18-45-37-10-19-29-53-59-104h305l43 57 65-67c1-2 2-5 2-7 0-6-3-9-8-8H656V462h164l45 57 65-65c2-3 3-5 4-8 0-8-4-11-12-11H656V126l4-81c0-10-8-19-21-27-14-10-26-16-37-18l3 120v315H383c-12 0-33-3-65-8l-17 35h304v258H469c-48-86-93-153-137-199l-16 9c45 73 82 140 112 203 29 62 54 130 76 204l80-34m-461 2c46-18 83-38 109-60s39-43 39-65c0-19-4-34-13-43-11-10-21-13-31-9-10 3-15 13-16 29-1 15-9 35-22 58s-37 49-74 79l8 11Z"/></symbol><symbol id="讹_G" viewBox="0 0 1000 1000" data-size="21"><path transform="matrix(1 0 0 -1 34 951)" d="m627 894 78-28c10-4 10-10 0-17l-25-16V503c34 44 63 85 90 121 24 35 49 74 74 115 45-31 69-49 72-54 2-5 1-8-2-10-3-1-10-2-21-4-12-1-28-12-47-33-20-22-41-48-65-78-23-30-57-67-101-114V122c1-24 6-37 13-40 8-2 16-3 24-4h107c24 9 37 19 39 32 2 14 4 29 6 45 1 16 4 51 8 106h19l4-82c2-50 12-76 32-80-6-21-16-37-30-48-14-10-33-17-56-22H715c-18 0-35 3-49 8-14 4-25 16-31 35-5 11-7 28-8 50v279c-46-43-98-86-156-127l-10 14c69 60 124 116 166 168v438m-84-28c7-2 10-4 8-6 4-4 0-9-12-15-16-3-29-14-39-33-33-67-59-122-78-165l55-23c3-2 5-6 3-12 0-2-10-9-31-19V144l4-101c-1-9-6-18-15-27-10-8-25-13-43-16l3 140v463c-50-97-97-171-140-221l-12 12c56 95 102 183 137 265 33 82 60 162 82 242l78-35m-418 14c56-40 90-70 104-90 11-19 17-36 17-51 0-13-2-24-6-31-4-6-10-10-15-12-7-2-14-2-22 2-7 2-12 12-15 30-2 16-6 33-12 50-4 16-24 47-59 92l8 10m49-262 56-39c4-3 6-6 6-10s-10-13-31-27V153l139 129 11-11c-67-75-110-124-130-147s-39-50-59-79l-51 56 41 35v418H64c-19 0-33-4-41-12L0 577h146l28 41Z"/></symbol><symbol id="论_G" viewBox="0 0 1000 1000" data-size="21"><path transform="matrix(1 0 0 -1 40 926)" d="M436 528c50-21 80-34 87-39 5-4 4-8-3-11l-32-16V284c65 39 113 72 145 100 31 25 58 51 82 78 43-37 64-57 62-63-2-3-5-5-7-5-3 0-10 1-20 2-10 0-32-10-66-30s-99-56-196-109V79c0-20 4-31 12-34 8-1 16-2 23-2h196l21 2c20 4 35 19 45 44 8 43 14 88 18 135h17v-69c0-43 11-69 34-78-6-17-15-33-28-48-12-13-30-21-55-25l-31-4H523c-18 0-35 2-50 6-14 4-24 12-30 23-4 11-7 27-7 50v449m181 285c1-1 1-3 2-5 0-4-10-9-29-14 23-51 51-100 84-145 32-44 72-80 119-109 45-27 87-44 127-49v-15c-31 0-52-3-61-8-9-4-20-13-33-26-41 28-77 57-107 88-30 32-54 64-73 96-20 31-44 83-74 156-32-68-74-140-127-217-52-74-115-142-187-203l-12 10c67 78 123 152 170 225 46 72 88 157 125 256l76-40m-496 20c67-33 108-59 123-80 16-20 23-37 22-53-2-14-6-25-12-33-5-6-11-10-16-12-4-2-9-2-17 2-7 2-11 12-14 30-3 15-10 33-21 52-12 20-36 47-73 82l8 12m49-262 55-47c4-2 7-5 7-9 0-5-5-10-15-16l-24-16V132l133 111 10-14c-60-62-102-106-127-130-23-24-44-53-63-87L96 66c17 11 34 26 50 46v389H53c-13-1-24-4-33-10L0 524h131l39 47Z"/></symbol><symbol id="讻_G" viewBox="0 0 1000 1000" data-size="21"><path transform="matrix(1 0 0 -1 27 952)" d="m387 692 72-31c6-4 9-8 10-10 2-4-9-11-33-23V100h427v596l75-35c4-2 7-4 7-6 2-4 2-8-2-11l-31-12V110l4-73c0-7-6-16-20-25-12-8-23-12-33-12v72H432l-24-33-56 51c23 10 35 26 35 46v556m277-142c37 99 72 210 106 332 52-24 80-39 82-43s2-7 0-8c-3-2-10-5-22-8-11-2-20-11-27-29-8-18-20-51-37-102-18-48-43-111-77-187 41-57 71-108 88-152s26-77 26-98c0-20-3-35-10-45-6-9-14-12-25-10-11 1-18 15-22 39-3 24-10 55-21 94-10 37-28 78-53 123-47-98-108-197-182-299l-15 12c58 97 115 207 170 330-28 59-53 105-75 141-22 35-56 93-103 173l13 8c43-54 78-101 104-140 25-39 51-83 80-131M115 903c67-37 107-66 121-88 13-19 20-37 20-52-1-15-4-26-10-34-6-7-12-12-17-13-7-3-14-2-22 2-7 2-12 13-16 31-2 18-7 36-15 55s-31 49-71 88l10 11m73-287 60-47c2-2 3-6 4-9 0-4-5-9-14-14l-23-20V151l144 129 16-15c-65-71-109-120-133-149-22-28-38-56-49-83l-66 61c17 12 30 27 39 46v408H55c-10-1-22-4-35-10L0 573h156l32 43Z"/></symbol><symbol id="讼_G" viewBox="0 0 1000 1000" data-size="21"><path transform="matrix(1 0 0 -1 27 941)" d="M711 863c4-3 6-6 6-10 0-2-4-4-12-8l-19-11c2-42 11-84 27-127 16-44 34-82 57-114 20-31 45-58 74-82 26-22 60-41 101-56v-14c-29 2-49 1-60-2-12-4-24-12-37-25-39 40-69 78-92 113-22 33-43 80-65 141-22 58-35 131-39 216l59-21m-84-402c4-3 5-6 4-8 2-3-1-7-8-10-12-2-23-6-31-14-8-6-30-45-67-115-37-71-84-147-138-227l357 17c-23 54-58 110-105 167l11 12c61-51 105-96 133-135 28-36 41-65 41-87 0-21-4-37-11-47-8-10-18-14-30-11-10 3-15 12-17 27-2 14-6 31-12 53-141-12-235-22-283-30-49-7-87-18-114-33l-43 70c26 4 47 12 61 25 39 70 74 138 104 203 29 64 50 125 64 182l84-39m-82 320c-12-4-25-22-37-53s-39-82-82-152-90-132-141-184l-12 12c53 73 98 148 135 225 37 76 63 147 76 212 57-23 86-37 88-41 1-4 0-7-4-9-4-3-11-6-23-10m-420 92c64-39 102-67 115-86 13-18 20-35 22-51 0-15-3-26-8-33-5-8-10-13-16-14-4-2-9-2-17 2-7 3-12 13-16 31s-10 35-17 53c-7 16-31 44-73 86l10 12m47-274 60-49c4-2 6-5 6-9 1-4-4-9-15-14l-24-20V170l153 113 13-14c-80-70-133-119-156-146-24-28-43-55-57-81L98 98c17 9 36 26 56 52v381H55c-10-1-22-4-35-10L0 556h145l27 43Z"/></symbol><symbol id="讽_G" viewBox="0 0 1000 1000" data-size="21"><path transform="matrix(1 0 0 -1 40 946)" d="M662 644c-8-12-17-36-29-71-11-35-26-74-45-117 34-59 58-103 72-133 14-29 22-56 24-82 2-24-1-41-8-51s-16-15-28-13c-11 1-18 13-21 37-3 23-8 53-16 88-7 35-21 72-41 111-42-98-98-189-168-273l-11 9c61 103 114 205 156 307-26 47-65 111-119 193l11 8c40-43 80-96 122-160 21 59 43 131 64 217 44-20 67-31 68-35 2-2 2-5 0-8-2-2-5-4-11-6-6-3-13-10-20-21M359 866l61-49h295l37 43 55-48c6-2 9-6 9-12 0-4-13-16-39-35V427c0-77 2-139 6-186 5-47 16-84 31-109 14-25 25-37 34-37 6 0 11 11 15 35 4 23 11 60 22 109l17-2c-4-45-6-80-7-105-1-26 0-46 3-62 3-13 8-25 14-35 7-9 9-15 8-19-1-2-4-4-10-6-6 0-15 2-29 6-14 3-31 12-51 27-19 14-38 35-57 65-17 30-29 71-35 123s-9 121-9 207v352H408V560c-2-166-20-286-54-362-34-73-86-139-159-198l-9 12c60 64 105 134 134 212 28 77 41 193 39 347v295M98 892c52-30 88-55 105-77 17-21 26-39 26-54 0-16-3-28-10-35s-16-10-28-10c-11 0-18 9-21 27s-9 35-16 51c-6 17-27 46-64 86l8 12m60-274 59-45c4-2 6-6 6-10s-5-9-16-15l-23-22V194l111 110 12-16c-51-61-86-105-106-133-18-28-34-57-49-87l-58 50 43 51v383H55c-10-1-22-4-35-10L0 575h129l29 43Z"/></symbol><symbol id="设_G" viewBox="0 0 1000 1000" data-size="21"><path transform="matrix(1 0 0 -1 37 953)" d="m172 624 60-43c2-4 4-8 4-12 1-3-4-8-15-15-16-6-24-12-24-18V173l160 123 12-16C246 174 174 98 152 55l-48 63 48 41v397H61c-14 0-26-4-38-12L0 579h141l31 45m-65 281c67-34 108-63 123-86 16-23 23-43 22-60-3-16-8-29-16-37-7-9-17-12-29-10-12 3-18 15-19 37 0 22-6 42-18 63-10 19-34 46-72 82l9 11m594-13 57-41c5-5 8-8 8-10s-10-12-30-29V632c0-20 5-29 16-28h70c18 3 33 10 43 20 4 2 7 3 10 4 6-2 14-9 23-20 14-11 21-19 22-23-1-8-21-16-61-23H750c-20-1-35 1-45 7-12 12-17 28-17 47v211H488v-68c0-56-10-107-31-155-19-46-75-91-168-134l-6 15c79 47 125 94 137 141 13 45 19 93 19 145v123l47-41h192l23 39m18-375 58-47c5-2 8-6 8-12-2-3-6-7-14-10-14-7-24-16-31-27-13-43-30-83-49-119-17-37-41-74-70-112 31-24 68-44 109-62 41-16 79-28 114-36 33-6 60-9 82-10V63c-16 1-35-1-55-6s-34-17-43-36c-41 15-81 33-119 55-38 21-79 49-121 85-51-45-102-79-152-102-51-23-114-42-188-59l-8 16c65 18 125 42 180 72 55 29 101 62 139 100-30 36-55 74-75 116-20 41-35 91-45 148-20 0-36-2-48-8l-24 34h317l35 39m-254-65c14-54 31-100 53-139 20-37 43-69 68-95 25 29 47 66 66 111 19 43 33 84 43 123H465Z"/></symbol><symbol id="设_H" viewBox="0 0 1000 1000" data-size="21"><path transform="matrix(1 0 0 -1 44 956)" d="M127 899c23-15 43-29 60-43 16-13 30-25 41-34 9-9 16-18 20-24 4-5 7-11 9-17 2-4 3-10 3-16-1-22-9-34-25-34-3 0-6 2-9 4-4 3-11 14-22 34-10 21-22 40-36 57-12 16-30 35-54 57l13 16M0 624c26-5 64-8 113-8h46l33 41c24-15 42-29 53-42 5-4 7-9 7-13 0-6-13-16-38-31V194c13 9 25 18 35 27 36 30 64 56 86 80l9-19c-16-25-34-51-56-78-21-29-43-56-66-83-4-35-9-53-14-53s-25 26-62 78c7 5 15 10 22 15v427h-55c-52 0-83-2-94-6L0 624m435 287 55-37h159l33 32c34-23 51-39 51-49 0-7-9-15-29-25V666c0-28 0-45 1-52 2-8 6-14 11-18 9-6 20-9 33-12 18-3 36-5 55-5 11 0 23 1 37 4 9 1 16 5 21 11 4 3 6 5 7 5 12 0 22-3 29-9 9-5 13-13 13-23 0-5-1-9-2-11-1-3-5-6-11-8-9-3-22-6-40-7-20-3-38-5-51-5-26 0-52 2-78 7-26 3-43 8-51 16-5 4-10 10-14 18-3 7-4 16-6 29 0 12-1 32-1 62v178H485v-64c0-31-2-60-6-87-2-24-9-48-19-73-7-21-16-39-28-56-11-15-24-30-39-44-15-13-36-25-63-37l-13 11c16 10 31 22 44 35 11 11 22 22 32 35 8 14 15 30 21 49 7 22 12 44 16 66 6 30 8 63 8 101 1 54 0 97-3 129m-91-436c26-6 63-8 112-8h250l40 34c23-17 41-32 55-45 6-4 9-8 9-14 0-4-5-9-15-15-9-6-21-10-34-13-32-70-62-124-91-162-16-26-32-47-48-62 10-8 20-16 31-22 32-20 67-39 108-56 44-17 94-31 150-42l-3-18c-25-3-42-15-52-33-53 18-100 37-141 58-38 18-71 39-101 63-8 7-16 13-24 19-29-23-58-44-89-62-36-21-73-39-108-55-41-17-86-31-136-42l-7 17c63 19 108 37 136 53 28 13 63 32 104 56 25 18 49 37 73 58-13 13-24 26-33 39-28 35-52 74-71 115-16 34-27 68-32 102-35 0-56-3-65-7l-18 42m105-35c9-38 24-72 44-103 20-38 44-71 70-99 10-10 18-19 27-25 21 25 42 56 63 91 24 38 45 84 61 136H449Z"/></symbol><symbol id="访_G" viewBox="0 0 1000 1000" data-size="21"><path transform="matrix(1 0 0 -1 42 952)" d="M531 903c49-25 84-49 104-70 19-22 29-41 29-57-1-15-4-27-10-35-6-6-15-10-29-10-12 0-20 10-23 28-3 17-10 36-20 56-8 20-29 45-62 77l11 11M279 700h524l37 57 72-61c2-2 3-6 4-11 1-7-3-10-10-10H527c0-33-4-84-9-153h207l33 38 51-43c5-4 9-8 9-12 1-8-11-18-35-29-6-184-12-293-19-329-7-33-17-57-32-73-13-13-26-25-39-35-11-8-28-16-48-23-7 24-20 41-40 50-19 10-49 22-89 37l5 19c57-17 97-25 122-24 23 0 40 5 50 12 9 9 18 31 26 67 6 35 11 142 15 320H516c-4-85-14-157-30-219-15-61-47-114-95-160C344 75 281 35 203 0l-4 14c55 31 107 71 156 120 47 48 78 109 92 183 12 74 20 164 24 272v86H361c-14 0-37-3-68-8l-14 33M125 888c50-24 85-45 104-65 19-18 29-36 29-54s-3-30-8-38c-5-6-10-11-16-13-5-3-12-2-19 2-9 3-14 14-16 33-2 17-10 35-21 55-12 17-32 40-61 68l8 12m63-266 56-45c5-2 7-6 8-10-1-4-6-9-16-15l-29-16V210l137 103 11-13c-68-63-113-108-136-133s-42-52-57-83l-60 62 56 46v364H53c-10-2-20-6-30-12L0 581h146l42 41Z"/></symbol><symbol id="诀_G" viewBox="0 0 1000 1000" data-size="21"><path transform="matrix(1 0 0 -1 38 963)" d="M336 696h187v231l86-37c5-3 8-6 8-10 0-3-13-13-41-31V696h141l37 41 57-47c5-3 9-8 9-13l-41-30V435h41l37 52 59-56c2-3 3-6 4-10 0-8-4-12-12-12H600c21-74 43-127 64-160 20-33 45-63 76-90 31-26 61-43 88-52s59-17 96-25V64c-24 2-45 0-63-5-17-6-32-18-45-36-35 24-69 52-101 84-31 32-59 70-82 115-23 43-42 105-57 187h-17c-11-80-32-145-63-195-31-51-73-94-125-130-51-35-107-63-170-84l-6 16c62 27 114 59 157 95 42 35 76 75 103 120 25 45 43 104 55 178H344c-12 0-30-2-53-8l-18 34h241c7 76 11 154 9 234H404c-14 0-30-3-49-8l-19 35m238-27c0-92-4-170-10-234h166v234H574M111 890c65-30 105-53 121-71 16-16 25-33 28-50 0-17-3-29-8-38-7-7-13-12-20-13-5-3-11-2-17 2-7 2-12 13-16 31-2 18-9 35-19 53-11 17-35 42-75 74l6 12m63-258 55-47c4-3 7-6 7-10s-6-8-15-13l-24-16V200l149 113 9-15c-75-69-123-116-144-143-20-27-37-53-53-79l-56 58c16 12 33 26 48 45v390l-97-11c-10 0-20-4-32-12L0 579l141 14 33 39Z"/></symbol><symbol id="证_G" viewBox="0 0 1000 1000" data-size="21"><path transform="matrix(1 0 0 -1 26 917)" d="M328 751h469l45 59 70-65c2-2 3-6 4-12 1-5-5-8-16-7H662V427h131l41 56 64-62c2-3 4-7 4-10 0-6-2-10-7-10H662V36h170l43 59 68-66c2-2 4-6 4-11-2-6-6-8-13-8H299c-14 0-28-3-43-10l-16 36h166v508l84-33c6-3 9-6 10-10 0-2-2-5-6-8l-37-15V36h152v690H398c-13-1-31-4-54-10l-16 35M182 560l52-49c6-4 9-8 10-12 0-5-14-15-43-31V132l133 113 12-17c-66-68-108-114-127-139-18-24-36-53-55-85l-57 56 43 41v390H59c-13 0-26-2-39-8L0 517h146l36 43m-57 275c54-32 90-61 107-86 16-26 22-48 18-66-5-18-12-30-21-36-9-5-17-6-26-1-8 4-12 14-12 31 0 15-5 35-15 58-8 23-28 53-61 90l10 10Z"/></symbol><symbol id="诂_G" viewBox="0 0 1000 1000" data-size="21"><path transform="matrix(1 0 0 -1 46 958)" d="M299 661h269v256l88-31c2-2 2-4 2-6 5-3 5-5 2-8l-41-21V661h180l39 53 66-63c2-2 4-4 4-7 0-9-4-12-12-10H619V403h123l35 39 51-45c6-3 9-8 10-13 0-3-11-12-31-28V132l4-91c0-8-7-16-20-23-12-9-23-13-35-14v70H438V35c0-8-6-15-18-23-12-6-24-10-37-12l4 114v328l56-39h125v231H377c-13 0-34-3-63-8l-15 35m139-559h318v274H438V102M123 884c66-37 107-67 121-88 13-20 20-37 20-53-1-15-4-26-10-33-6-8-12-12-18-14s-13-2-21 2c-7 3-13 13-16 31-2 19-8 37-15 55-8 20-32 49-71 88l10 12m51-272 60-43c2-2 4-6 4-9 0-4-4-9-13-14l-22-20V163l137 125 15-16c-62-64-106-112-130-142-24-31-41-59-51-85l-61 55c18 13 32 29 41 47v401H55c-10-1-22-4-35-10L0 573h145l29 39Z"/></symbol><symbol id="诃_G" viewBox="0 0 1000 1000" data-size="21"><path transform="matrix(1 0 0 -1 36 951)" d="m352 661 56-43h143l33 43 57-45c5-4 9-8 9-13 0-2-10-11-31-26V384l4-76c1-9-5-18-18-28-12-9-24-14-37-15v64H404v-47c0-8-6-17-19-25-12-8-24-13-37-14l4 119v299m52-305h164v237H404V356M264 821h558l43 49c38-36 58-57 61-62 2-5 3-8 2-10-3-3-8-4-16-4H803V82c0-19-8-37-24-53-15-14-35-24-58-29-4 18-15 33-33 47-20 14-54 26-102 37l4 20c78-15 125-21 140-16 16 5 23 14 22 26v680H346c-14 0-36-3-67-8l-15 35M82 901c66-37 107-66 121-88 13-19 20-37 20-52-1-15-4-26-10-33-6-8-12-13-18-14-6-3-13-2-21 2-7 2-13 13-16 31-2 18-8 37-15 55-8 19-32 49-71 88l10 11m84-273 59-41c4-3 5-6 5-10s-3-8-11-14l-20-19V183l110 117 15-16c-64-80-104-131-119-154-14-24-27-48-37-73l-61 53c18 15 32 31 41 49v406H55c-10 0-22-3-35-9L0 591h139l27 37Z"/></symbol><symbol id="评_G" viewBox="0 0 1000 1000" data-size="21"><path transform="matrix(1 0 0 -1 34 950)" d="M799 735c42-20 64-34 66-39s2-8-2-9c-2-1-8-4-17-10-8-6-20-20-35-41-15-22-47-77-96-166l-18 8c40 89 74 175 102 257m-453 78h425l38 53 62-58c2 0 4-3 6-8 0-8-4-12-12-12H633V423h199l37 51 57-57c4-4 6-7 6-8-1-8-6-12-16-12H633V161l4-122c0-9-7-18-20-27-13-7-25-11-35-12l4 155v242H373c-14 0-33-2-57-7l-25 33h295v365H428c-15 0-33-4-57-12l-25 37m9-93 12 9c41-39 72-70 92-95 20-26 31-48 35-67 5-20 3-37-4-50-6-14-15-20-29-18-13 1-20 7-22 20-1 12-2 26-3 43-2 15-7 34-16 56-8 20-29 54-65 102M100 899c63-35 102-62 119-82 15-18 24-35 27-50 2-16 0-28-6-36s-11-13-17-15c-7-3-13-2-20 2-6 3-11 14-14 33-1 18-9 37-23 59-12 20-36 46-72 78l6 11m84-267 52-47c5-3 7-6 8-10-1-4-6-10-15-15l-22-16V163l145 125 11-14c-76-71-125-119-146-144-20-25-39-51-57-77l-49 51c18 10 35 25 51 45v416H53c-12-1-24-4-35-9L0 587h152l32 45Z"/></symbol><symbol id="诅_G" viewBox="0 0 1000 1000" data-size="21"><path transform="matrix(1 0 0 -1 32 921)" d="m412 827 51-41h273l30 45 58-47c5-4 8-8 8-13 1-6-10-16-33-30V41h43l33 46c40-36 61-56 61-60 0-3-1-6-2-9-2-2-8-4-18-4H355c-26-2-42-6-50-14l-22 41h129v786m49-786h289v243H461V41m0 269h289v211H461V310m0 236h289v213H461V546M117 843c69-37 110-67 123-88 13-20 20-37 20-53-1-15-4-26-10-33-6-8-12-12-18-14-5-2-12-2-19 2-6 2-11 13-14 33-2 18-8 37-17 57-9 19-34 47-75 84l10 12m72-258 61-45c4-3 6-6 6-10 1-4-5-8-16-13l-23-20V146l131 111 13-18c-66-63-111-110-134-142-23-31-41-58-55-81l-57 51c15 11 33 30 55 55v397H55c-10-1-22-4-35-10L0 544h162l27 41Z"/></symbol><symbol id="识_G" viewBox="0 0 1000 1000" data-size="21"><path transform="matrix(1 0 0 -1 49 937)" d="m426 839 58-45h274l35 41 62-55c4-2 6-5 6-8 1-4-12-15-39-33V489l4-84c1-8-4-17-15-27-10-9-24-14-41-16v57H479v-18c0-7-7-16-20-25-12-8-25-12-37-12l4 114v361m53-393h291v321H479V446M131 874c68-37 108-66 121-88 12-20 17-37 16-51-1-11-4-21-10-29s-13-12-20-14c-6-2-12-2-19 2-8 3-13 13-14 32-2 17-6 33-14 48-5 16-29 45-70 88l10 12m60-262 61-47c4-2 6-5 6-9s-5-9-16-14l-21-18V192l146 125 12-13c-85-82-135-132-150-151s-35-46-61-83l-49 56 53 55v361H55c-13-1-24-4-34-10L0 567h160l31 45m63-600c60 53 111 104 152 153 39 48 76 100 110 154 47-30 69-47 66-50-2-4-5-6-8-6-2 0-8-3-19-8-10-4-22-14-37-29-15-16-43-46-86-90-43-45-99-90-168-136l-10 12m400 288 10 12c55-36 99-67 133-94 33-28 60-56 80-84 18-27 27-49 25-68 0-17-5-29-13-35-7-4-17-5-28-4-11 3-19 13-23 32-5 17-15 39-31 67-16 27-37 56-65 86-27 29-56 59-88 88Z"/></symbol><symbol id="诇_G" viewBox="0 0 1000 1000" data-size="21"><path transform="matrix(1 0 0 -1 41 959)" d="m500 700 57-35h127l29 35 51-37c2-1 3-4 4-10 0-2-8-9-24-23V353l4-77c2-9-5-17-19-23-14-7-25-10-32-10v70H549v-62c0-8-7-16-20-23-11-9-22-12-33-10l4 127v355m49-363h148v303H549V337M359 911l63-43h400l33 41 53-39c6-4 9-8 10-12 0-4-10-13-31-27V80c-2-21-8-39-18-53-9-11-28-20-56-27-8 26-24 44-47 55-23 8-49 17-78 27l5 18c51-13 86-22 104-26 17-2 28-1 33 4 4 7 5 18 4 33v732H412V149l4-98c-1-10-8-20-21-30-15-9-28-14-40-15l4 128v777m-244 8c67-37 107-66 121-88 13-19 20-37 20-53-1-15-4-26-10-33-6-8-12-12-17-14-7-2-14-2-22 2-7 3-12 13-16 32-2 18-7 36-15 54-8 20-31 49-71 88l10 12m53-275 61-47c1-3 3-6 3-10s-4-9-13-14l-24-19V190l139 125 16-15c-63-65-107-112-131-143s-41-59-51-85l-63 54c18 14 32 31 41 49v400H55c-10 0-22-4-35-10L0 601h137l31 43Z"/></symbol></svg>