<svg xmlns="http://www.w3.org/2000/svg"><symbol id="诰_G" viewBox="0 0 1000 1000" data-size="21"><path transform="matrix(1 0 0 -1 31 960)" d="M523 825c6-2 8-6 4-12 0-2-2-5-7-7-13-4-24-11-34-22-7-12-21-35-41-70h147v207l82-31c5-2 8-4 8-6 2-5 1-8-2-10l-37-16V716h127l41 51 64-65c1-2 1-4 2-4 0-4-3-7-8-8H643V503h187l41 53 63-63c2-2 3-4 4-8 0-4-4-7-12-7H381c-14 0-36-3-67-8l-15 33h293v185H432c-24-42-57-90-100-142l-14 10c34 56 61 109 82 160 21 49 38 96 49 140l74-31M396 396l59-43h301l29 41 59-40c8-3 11-8 11-13 0-4-12-15-37-31V120l4-73c0-8-6-17-19-27-13-8-24-12-33-14v80H447V41c0-9-6-18-19-27-12-9-24-14-35-14l3 126v270m51-286h323v217H447V110M109 884c67-37 107-67 121-88 13-20 20-37 20-53-1-15-4-26-10-33-6-8-11-12-17-14-7-2-14-2-22 2-7 3-12 13-15 31-3 19-8 37-16 55-8 20-31 49-70 88l9 12m59-266 61-47c1-2 3-6 3-9 0-4-4-9-13-14l-22-20V171l125 113 16-15c-55-57-95-101-119-131-24-31-43-59-57-85l-55 57c18 12 32 27 41 45v395H55c-10-1-22-4-35-10L0 575h139l29 43Z"/></symbol><symbol id="诱_G" viewBox="0 0 1000 1000" data-size="21"><path transform="matrix(1 0 0 -1 34 951)" d="m172 638 55-45c5-5 9-9 9-14 0-4-13-14-39-31V216l123 101 10-13C227 198 167 128 152 92l-52 54 48 46v377H57c-13 0-26-4-39-9L0 593h141l31 45m609 189c-66-4-125-10-176-15V671h206l37 53 60-57c2-2 3-5 4-8 0-8-4-12-14-12H664c22-39 48-70 80-93 29-22 57-39 82-51 24-10 59-18 106-24v-15c-26 0-44-3-55-8-12-5-23-14-33-27-42 23-74 47-98 70s-44 45-60 66c-16 22-32 49-47 82h-34v-85l4-69c0-8-6-17-19-25-14-8-26-12-37-12l4 102v89h-20c-22-41-62-87-121-138-57-51-111-88-164-112l-10 14c49 33 94 70 135 111 42 41 77 82 103 125H361c-14 0-37-2-68-7l-14 31h278v133c-65-8-147-14-244-18v18c72 6 161 19 267 39 105 18 171 34 197 49l43-55c4-5 6-8 6-10 0-4-4-7-10-8l-35 8m-78-363 49-37c5-4 8-8 8-12 0-5-11-13-33-25l-39-104h87l30 33 47-41c5-2 7-6 7-11 0-7-10-14-31-22-6-57-12-101-19-133-9-30-24-55-45-73-21-17-43-29-69-37-6 21-17 36-33 47-16 8-45 19-90 33l6 18c39-10 68-16 90-20 21-2 41-1 59 2 16 5 28 19 37 44 8 25 15 70 19 137h-90l-33-30-49 45 34 20 37 103H510c-4-60-15-114-31-162-16-49-44-92-84-131C355 70 295 34 213 0l-6 14c73 43 126 83 160 120 34 34 58 74 72 119 13 42 21 92 22 148h-37c-14 0-31-2-51-5l-23 31h322l31 37M109 901c47-27 80-54 100-82 20-25 29-47 25-66-2-18-7-29-17-33-8-5-16-6-24-4-7 2-12 11-13 27s-6 35-16 59c-10 23-31 52-64 88l9 11Z"/></symbol><symbol id="诲_G" viewBox="0 0 1000 1000" data-size="21"><path transform="matrix(1 0 0 -1 35 975)" d="M107 938c64-42 103-74 120-95 15-21 22-40 21-57-2-17-6-29-12-35-6-5-11-8-17-10-5-2-10-2-16 2s-11 14-14 29c-1 15-7 34-17 55-8 22-32 55-72 100l7 11m57-285 53-45c4-2 7-5 8-9-1-5-6-10-16-16l-29-20V208l140 121 14-12c-73-75-119-123-137-144-16-20-32-45-49-75l-58 51 45 39v401H51c-14-3-24-6-30-10L0 614h133l31 39m383 264c4-2 6-4 6-6 2-6-1-10-8-12-14-3-25-10-33-19s-24-35-49-80h324l41 51 63-63c2-2 3-4 4-6 0-6-3-8-8-8H447c-53-94-105-168-154-220l-10 9c45 73 84 143 117 211 35 71 59 129 73 176l74-33m230-215 55-39c6-3 9-6 10-10 0-4-11-14-33-31l-8-174h35l35 43 55-53c2-1 3-4 4-7-1-6-6-9-16-8H801l-12-219h39l39 47 53-61c1-3 2-6 2-9 0-2-2-3-6-2H789c-4-39-8-68-12-85-4-18-13-37-27-55-14-16-35-29-62-39-6 18-16 33-30 43-13 10-43 22-92 37l4 16c58-11 94-18 108-20 12-2 24 2 37 12 12 10 21 40 25 91H414l-27-30-59 47 35 32 28 195h-98c-13 0-26-3-39-8l-22 33h163l33 254 49-39h273l27 39m-310-62-26-194h313l8 194H467m287-217H438l-32-221h336l12 221M537 606l10 10c24-19 44-37 60-53 15-15 24-31 26-48s-1-30-8-39c-8-9-18-11-27-8-9 2-15 11-16 27s-5 33-10 49c-6 16-17 36-35 62m-8-234 10 10c24-20 43-37 59-53 13-16 21-32 23-49 2-15-1-28-8-37-8-8-17-11-27-8-9 2-14 11-16 28-2 16-4 32-7 49-5 14-16 35-34 60Z"/></symbol><symbol id="诳_G" viewBox="0 0 1000 1000" data-size="21"><path transform="matrix(1 0 0 -1 30 927)" d="M566 810c5-2 6-6 2-12 0-2-6-4-19-6-10-3-20-8-29-16-10-8-42-39-98-91 25-59 42-114 51-164 7-51 13-97 15-137s2-82 0-127c-1-46-4-84-9-115-4-32-16-59-36-83-19-24-51-43-97-59-2 14-10 26-24 37-12 12-45 28-97 46l4 20c52-16 91-24 117-25 25-1 45 4 58 15 14 10 24 31 30 64 5 33 8 67 9 102v117c0 41-4 81-11 121-40-62-108-135-203-217l-12 10c75 78 142 167 201 268-7 41-16 74-27 99-42-39-88-76-139-111l-10 10c41 37 85 82 133 134-21 38-59 88-113 149l9 8c55-43 98-86 129-129 51 56 86 101 104 136l62-44m-35-65h280l43 47 60-57c2-2 3-4 4-7 0-7-4-10-12-10H744V442h67l39 45 62-56c2-2 3-4 4-6 0-7-3-10-8-10H744V68h90l37 52 65-61c2 0 3-1 3-4 2-9-1-13-9-14H578c-14 1-36-2-66-8l-16 35h199v347h-72c-14 0-36-3-66-8l-16 35h154v276h-86c-13 0-31-3-52-10l-26 37M74 853c67-38 107-67 121-88 13-20 20-37 20-53-1-15-4-26-10-33-6-8-12-13-17-14-7-3-14-2-22 2-7 3-12 13-16 31-2 18-7 37-15 55-8 19-31 49-71 88l10 12m82-262 61-47c2-3 3-6 4-10 0-4-5-8-14-13l-21-20V157l130 114 14-16c-57-57-98-100-123-131-24-31-41-58-51-79L96 93c17 13 31 29 41 47v382H55c-10 0-22-3-35-9L0 548h127l29 43Z"/></symbol><symbol id="说_G" viewBox="0 0 1000 1000" data-size="21"><path transform="matrix(1 0 0 -1 29 960)" d="m176 634 62-43c4-1 6-5 6-10 1-4-4-8-15-14-17-7-25-18-26-31V185c31 25 82 67 152 127l14-12c-61-61-103-104-127-129-23-24-45-53-64-85l-57 50 37 43v386H59c-15 0-28-2-39-7L0 589h150l26 45m625 252c9-6 13-10 13-12 2-6 0-10-7-10-22-4-45-22-69-54-21-33-50-75-88-127h112l35 43 51-43c6-6 9-10 7-12 0-5-9-12-29-22V485l4-74c0-8-6-17-17-25-11-6-21-10-32-12v37h-90V142c0-23 2-37 6-42 4-6 18-8 41-8h96c18 4 29 11 35 22 4 11 7 32 10 61 0 27 2 60 6 99h15c2-33 4-63 6-89s14-43 35-51c-5-20-12-34-19-44-7-9-16-18-27-26-10-5-28-9-53-11H713c-20 0-37 6-49 17-12 12-18 35-18 70v271h-82c-2-63-11-120-25-172-14-49-43-93-86-133C410 69 338 33 236 0l-4 16c90 41 154 79 192 114 36 35 60 78 72 129s19 101 20 152h-77v-4c0-10-5-17-15-23-10-7-22-10-35-10l4 107v245l54-43h174c43 73 84 153 123 238l57-35M439 435h342v224H439V435m-27 476c49-26 85-50 109-72s38-41 42-59c3-15 1-29-6-41-6-12-16-17-30-15-11 2-19 13-23 35-2 19-12 41-29 64-17 22-41 47-73 76l10 12m-299 0c51-29 86-55 106-76 19-21 31-40 35-57 3-15 2-29-4-41-7-10-16-15-27-15-10 0-18 11-24 31-4 19-12 40-25 62-12 21-35 50-70 86l9 10Z"/></symbol><symbol id="诵_G" viewBox="0 0 1000 1000" data-size="21"><path transform="matrix(1 0 0 -1 58 951)" d="m795 636 29 41 53-43c5-2 8-6 8-12 0-4-11-14-33-29V99c0-18-4-36-12-56-8-18-28-33-61-43-9 20-20 33-33 41-11 8-40 20-86 35l4 16c43-8 72-13 88-16 13-2 25-1 37 2 10 3 15 15 14 36v162H617V151l4-87c0-7-6-15-17-25-13-8-26-13-40-14l4 117v134H387V138l4-83c0-8-7-17-22-28-14-9-25-13-35-13l4 120v543l57-41h400M387 300h181v140H387V300m230 140V300h186v140H617m-230 24h181v148H387V464m230 148V464h186v148H617m174 289c44-39 67-60 68-64 2-4 2-7-2-8-2 0-9-2-23-6-14-2-27-6-41-11-14-6-64-43-152-112 5-15 5-29-2-41-8-10-17-15-26-13-9 1-17 9-23 25-5 14-14 29-27 43-12 14-38 32-77 55l6 11c29-8 55-16 78-25 22-9 41-21 59-37 19 13 60 54 121 123H365c-10 0-21-3-35-8l-25 33h455l31 35m-689-2c68-35 110-62 127-82 15-19 23-37 23-52s-3-26-8-34c-4-7-10-12-15-13-4-3-10-2-18 2-7 2-12 13-16 31s-11 36-23 55c-11 17-37 45-80 82l10 11m64-269 61-47c3-3 5-6 5-10 1-4-4-8-15-13l-24-18V187l114 107 13-14c-55-64-93-111-115-140-20-29-35-55-45-77l-60 49c17 11 33 30 46 55v398H55c-14 0-26-2-35-7L0 591h137l29 39Z"/></symbol><symbol id="诶_G" viewBox="0 0 1000 1000" data-size="21"><path transform="matrix(1 0 0 -1 33 965)" d="M625 894c6-5 9-10 10-14 2-3 0-6-6-10-25-2-55-17-88-45-33-27-87-71-162-131l402 18c-22 29-56 60-103 94l10 15c50-25 83-43 101-54 18-10 37-24 57-41 19-18 31-36 35-53 4-18 2-32-6-43s-18-15-29-14c-11 2-18 8-22 20-2 11-10 29-23 52-131-8-233-15-305-21-71-5-122-16-154-33l-37 68c26 1 50 11 72 27 74 62 136 129 186 202l62-37M508 604c2-2 3-5 4-7 0-4-4-8-12-12l-20-6c-16-15-32-34-48-57h306l39 47 57-50c6-5 9-10 8-16-2-4-5-6-10-6H607c-2-57-8-113-19-170h225l39 51 60-55c2-2 3-6 4-10 1-7-5-11-16-11H625c20-55 46-97 78-125 31-30 66-53 104-70 36-15 78-25 127-29V59c-22 0-39-1-53-4-14-5-27-17-41-35-46 20-82 42-110 66-26 23-50 52-74 87s-43 78-56 129h-16c-23-87-64-153-123-198C403 57 318 22 205 0l-2 18c96 23 170 59 223 107 53 46 89 104 109 177H371c-14 0-36-2-66-6l-16 31h250c10 55 17 111 20 170H412c-51-62-95-105-131-129l-10 12c65 73 121 161 168 262l69-38M107 901c67-37 107-66 122-88 13-19 19-37 19-52-1-15-4-26-10-33-6-8-11-13-17-14-7-3-14-2-22 2-7 2-12 13-15 31s-8 37-16 55c-8 19-31 49-70 88l9 11m61-271 61-47c1-3 3-6 3-10s-4-8-13-13l-22-20V175l127 88 12-18c-66-53-106-88-121-105-14-17-33-42-59-76l-54 62c21 13 37 28 46 45v391H55c-10-1-22-4-35-10L0 587h139l29 43Z"/></symbol><symbol id="请_G" viewBox="0 0 1000 1000" data-size="21"><path transform="matrix(1 0 0 -1 38 969)" d="M320 798h264v140l82-27c4-2 5-6 4-10l-6-5-29-18v-80h176l35 47 52-55c2-1 4-2 6-4 3-8-1-13-11-14H635v-87h121l37 46 53-52c1-2 2-4 2-6 0-8-3-12-8-12H635v-92h193l35 51 57-55c2-2 3-4 4-7 0-8-4-12-12-12H385c-14 0-36-3-67-8l-15 31h281v92H451c-13 0-34-2-60-8l-22 32h215v87H395c-14 0-34-1-59-5l-16 31m76-305 51-33h317l29 37 51-41c5-4 8-8 8-14 0-4-11-11-34-23V107c2-24-4-46-17-66-12-16-34-30-67-41-4 20-14 34-31 43-18 8-49 19-92 31l4 20c33-6 61-11 86-16 25-4 43-3 55 4 11 8 15 24 14 46v92H445v-94l4-77c0-8-6-17-17-28-13-9-26-14-39-15l3 114v373m49-250h325v88H445v-88m0 111h325v83H445v-83M117 909c57-37 93-66 108-88 13-21 19-39 19-54-1-15-4-26-10-34-5-6-11-11-17-13-6-3-13-2-20 2-6 3-10 14-13 33-2 19-7 37-14 55-5 17-26 46-63 87l10 12m61-269 56-47c4-3 6-6 6-10 1-5-4-10-15-16l-22-17V196l135 121 12-13c-69-76-114-127-137-153-21-24-40-49-57-75l-52 48c17 12 35 29 52 53v394H55c-10-1-22-4-35-9L0 595h146l32 45Z"/></symbol><symbol id="诸_G" viewBox="0 0 1000 1000" data-size="21"><path transform="matrix(1 0 0 -1 33 962)" d="m527 925 84-33c9-5 9-10 0-16l-35-16V751h78l32 43 46-47c9-8 10-16 2-23H576V583h49c78 73 146 156 203 248l61-45c5-3 7-6 7-10 2-4-2-7-13-9-13 0-23-4-31-12-82-90-138-147-168-172h144l39 51 63-61c2-2 3-6 4-10 0-4-5-7-14-7H658c-58-54-111-97-158-127h242l35 41 63-51c4-5 6-8 6-10 0-4-13-12-37-25V130l4-91c0-7-7-16-20-25-12-7-23-11-35-12v76H471V37c0-8-6-16-18-23-12-9-24-13-37-14l4 116v254c-63-43-125-78-186-105l-7 13c74 45 138 89 193 133v55l41-26c44 33 90 71 137 116H346c-11 0-32-3-63-10l-19 37h263v141h-80c-29 0-59-3-90-10l-17 37h187v174m-56-821h287v141H471V104m0 168h287v129H471V272M172 622l57-45c5-4 7-8 7-12s-12-15-37-33V153l145 92 10-14c-73-55-124-95-153-121-29-24-47-46-55-65l-50 59 54 40v408H53c-10-1-22-4-35-10L0 577h139l33 45m-68 281c63-39 103-71 119-95 15-24 21-44 17-61-2-18-8-29-17-35-8-5-17-5-26-2-8 3-12 13-13 31s-8 39-22 65c-12 24-35 52-68 84l10 13Z"/></symbol><symbol id="诹_G" viewBox="0 0 1000 1000" data-size="21"><path transform="matrix(1 0 0 -1 30 954)" d="M232 866h379l32 41 56-51c2-1 3-2 4-3 1-8-2-12-10-12H559V288l68 18 6-18-74-29V111l4-72c-1-8-6-16-16-23-11-9-24-15-39-16l4 116v129c-104-33-165-55-184-64-17-8-35-20-53-35l-37 50 90 28v617h-31c-18 0-33-3-45-8l-20 33m141-633 139 39v170H373V233m0 235h139v178H373V468m0 203h139v170H373V671m440 121 58-43c6-6 7-10 4-14-3-3-14-10-33-21-7-82-16-160-28-235-9-72-29-139-58-201 14-21 27-41 41-58 14-18 31-36 53-55 22-18 52-35 89-51v-12c-21 0-39 0-54-2-14 0-26-6-37-18-34 36-57 65-71 85-11 18-27 42-47 72-26-55-78-111-156-167l-10 16c67 62 116 125 147 190-27 61-46 127-57 200-10 72-15 156-13 251h-20c-8-1-17-4-27-7l-18 33h213l24 37m-145-63c4-108 10-187 18-238 7-49 23-107 46-174 18 51 32 108 41 172 8 63 16 143 24 240H668M86 905c56-37 90-65 102-84 9-17 14-34 15-49-1-15-4-26-10-33-5-8-11-12-17-13-7-3-14-2-22 2-8 1-11 11-11 29-1 15-4 32-10 51-5 17-24 46-57 86l10 11m66-254 55-43c2-2 3-5 4-9 2-4-2-9-12-14l-19-14V229l105 102 16-16c-40-43-72-80-96-111-22-30-38-58-49-86l-60 51c14 12 26 25 37 39v381H55c-10-1-22-4-35-10L0 614h123l29 37Z"/></symbol><symbol id="诺_G" viewBox="0 0 1000 1000" data-size="21"><path transform="matrix(1 0 0 -1 40 950)" d="M283 749h160v150l77-23c3-2 5-4 5-6 4-2-6-10-31-23v-98h201v150l82-25c4-2 6-6 4-12 0-2-11-8-35-17v-96h80l37 49 55-55c1-2 2-4 2-8 0-7-4-11-12-11H746v-41l4-53c0-9-8-16-23-22-14-4-26-7-36-7l4 78v45H494v-51l4-43c-1-8-8-16-21-24-14-7-26-11-38-11l4 74v55h-78c-11 0-33-3-64-8l-18 33m-6-252h229c21 40 43 98 68 172 49-22 74-35 76-39 2-5 2-8-2-10-2-1-7-3-17-8-9-4-16-8-22-13-5-5-23-39-52-102h254l39 55 58-63c2-2 2-4 2-6 1-7-2-11-10-11H545c-22-40-48-84-78-131h275l29 37 51-43c8-4 12-9 12-14 0-2-10-9-31-21V114l4-71c0-8-7-15-20-22-14-5-24-9-31-9v68H479V37c0-8-5-16-16-23-10-7-22-12-35-14l4 84v200c-22-27-43-53-61-76-17-21-51-55-101-102l-10 12c48 57 84 102 107 135 21 33 43 68 67 105 22 38 43 76 60 114H359c-14 0-37-3-68-8l-14 33m202-393h277v211H479V104M100 872c56-27 93-51 113-70 17-20 27-37 29-53 0-16-2-27-8-35-5-8-11-13-17-14-6-2-12-2-18 2-6 2-11 14-17 35-5 20-14 39-28 57-12 17-33 39-62 66l8 12m64-271 53-49c4-3 7-6 8-10-1-4-6-8-16-14l-21-15V194l107 129 14-11c-52-74-87-126-104-157-16-28-31-63-47-102l-62 53c15 14 30 34 45 59v369H53c-10 0-22-4-35-10L0 560h133l31 41Z"/></symbol><symbol id="读_G" viewBox="0 0 1000 1000" data-size="21"><path transform="matrix(1 0 0 -1 30 949)" d="M309 753h254v144l76-33c5-1 7-4 7-10 0 0-1-1-5-3l-26-16v-82h172l39 51 55-59c2-2 3-4 4-6 2-8 0-11-6-11H615V612h223l31 37 65-62c5-4 7-9 5-14 0-4-5-8-17-10-15-1-30-7-45-17-14-10-42-38-84-84l-18 8 73 115H352c-13 0-28-3-45-8l-18 35h274v116H391c-15 0-37-3-69-8l-13 33m-55-463h344c11 35 20 74 27 117 5 43 10 94 14 155 58-20 88-32 88-38 0-4-1-7-4-9-4-1-15-6-32-14-7-51-14-92-19-123-6-31-14-61-24-88h155l41 53 68-63c2-6 3-9 4-11 1-5-3-8-10-8H639c-7-17-14-33-22-49 69-30 119-55 153-74 32-20 56-40 72-58 13-17 19-33 15-49-2-15-9-23-19-25-11-2-19 1-25 8-7 7-15 20-26 37-10 17-29 38-58 61-28 26-69 53-124 82-29-43-72-81-128-114-58-33-123-60-196-80l-4 14c84 35 153 74 207 116 54 41 89 85 104 133H336c-12 0-33-3-61-8l-21 35m146 260 6 13c39-13 71-27 98-41 27-13 43-28 49-43 4-13 3-25-2-35-7-10-15-15-26-15-9-1-17 6-23 19-6 11-14 26-25 43-12 16-38 35-77 59m-56-115 6 11c38-11 71-25 97-41 28-15 43-29 47-41 5-12 5-23 0-33-4-10-12-16-21-18-10 0-20 7-30 22-8 14-17 27-27 41s-34 33-72 59M105 872c60-35 99-64 120-88 20-21 30-40 31-55 0-14-3-26-8-33-5-8-10-12-16-13-3-1-9 0-17 2-6 2-12 11-18 29-4 18-11 36-21 55-9 18-35 49-78 91l7 12m77-269 56-51c5-3 7-6 8-10-1-4-6-8-16-14l-29-19V144l121 78 10-18c-60-50-100-85-121-103-20-19-40-40-61-66L98 90c22 13 41 27 54 42v402H55c-9 1-19-2-28-10L0 560h146l36 43Z"/></symbol><symbol id="诼_G" viewBox="0 0 1000 1000" data-size="21"><path transform="matrix(1 0 0 -1 39 952)" d="M285 849h486l42 54 58-58c2-3 3-6 4-10 0-8-4-12-12-12H609c-33-45-70-86-111-123 33-31 60-62 80-94 20-31 35-60 45-87 76 69 139 134 188 195l58-57c3-10-3-15-17-15-7 0-14-1-22-4-6-2-20-10-43-24-22-13-51-36-86-66 18-84 35-147 53-188 17-41 40-78 68-113 28-33 61-59 100-76v-14c-20 2-37 0-53-4-15-5-28-12-37-21-37 49-65 94-84 135-18 39-31 77-41 113-8 34-18 86-27 154l-49-35c10-43 17-83 23-119 4-36 6-82 4-139 0-56-9-106-25-147-16-43-50-74-102-94-8 27-22 48-43 61-22 11-50 22-86 31l4 20c53-12 93-20 121-22 26 0 45 13 59 38 13 27 21 70 25 129 2 57 0 114-7 172-66-90-128-162-186-217S290 106 209 61l-8 15c84 60 154 121 211 183 56 60 115 137 178 230-11 41-26 75-45 104-34-43-70-84-109-123 23-24 36-41 39-53 2-12 0-23-6-33-4-11-12-16-24-16-10 0-17 7-21 22-4 13-11 28-20 45-56-49-110-89-160-120l-8 16c55 43 104 88 147 135-18 26-43 50-74 72l11 14c42-22 72-41 90-57 41 47 77 92 110 135-12 17-25 35-40 53-61-53-130-98-209-135l-5 15c65 45 118 86 160 125 41 38 81 83 121 135H367c-13 0-36-2-66-8l-16 34M92 897c66-37 107-66 121-87 13-20 19-38 19-53s-3-26-9-33c-6-8-12-13-18-14-6-3-14-2-21 2-8 3-13 13-16 31s-8 37-16 55c-7 19-31 49-70 88l10 11m56-275 57-47c2-2 3-6 4-10 0-3-5-8-14-13l-21-20V206l119 107 16-15c-51-54-89-96-116-127-26-31-44-58-54-83l-61 50c22 17 37 33 47 49v367H55c-10-1-22-4-35-10L0 579h119l29 43Z"/></symbol><symbol id="诽_G" viewBox="0 0 1000 1000" data-size="21"><path transform="matrix(1 0 0 -1 32 959)" d="M271 722h200v183l90-33c3-4 3-6 2-8 0-2-2-4-6-6l-36-19V151l4-85c2-9-4-19-17-29-12-10-26-17-41-19l4 131v120h-96c-16 0-31-4-47-12l-23 37h166v195H357c-14 0-29-4-44-11l-24 37h182v179H342c-15 0-29-2-45-7l-26 35m385 197 80-27c4-1 8-4 12-8 1-5-1-8-4-10l-39-20V726h125l37 45 61-57c2-2 3-5 4-8-1-5-4-7-10-8H705V513h88l37 50 61-62c1-2 2-4 2-6 0-6-3-8-8-8H705V294h135l35 49 57-59c2-2 3-5 4-8 0-5-3-8-8-7H705V130l6-89c0-10-7-19-20-27-12-9-25-13-39-14l4 122v797m-547-18c58-27 99-52 121-76 24-23 35-43 34-60-2-16-6-28-12-36-6-5-12-9-18-11-5-1-11 0-17 4-7 3-12 13-16 31-4 16-12 33-21 53-9 19-35 48-78 86l7 9m69-273 58-47c5-3 7-6 8-10-1-4-6-11-15-19l-26-20V200l111 168 14-12c-60-109-98-178-113-207-15-27-28-56-39-86l-69 47 47 55v395l-97-8c-10 0-22-5-37-14L0 573l141 10 37 45Z"/></symbol><symbol id="课_G" viewBox="0 0 1000 1000" data-size="21"><path transform="matrix(1 0 0 -1 35 955)" d="m383 896 56-40h319l37 40 57-47c3-4 5-7 5-8 0-4-10-14-31-29V583l4-80c2-10-3-20-14-27-10-8-23-12-39-12v53H627V388h193l39 45 51-51c4-6 6-11 6-14-1-4-1-6-2-6H658c24-49 48-90 74-121s55-59 88-84c33-23 69-37 110-41v-14c-26 1-45-1-57-6-12-6-25-13-39-22-40 30-70 60-92 89-20 29-38 55-54 80-15 25-32 65-51 119h-10V142l6-105c-1-8-8-16-22-23-12-9-24-13-37-14l4 136v226h-10c-23-47-49-90-78-131-30-39-62-72-97-101-34-27-82-56-143-89l-8 12c62 42 108 79 137 110s55 61 76 90c20 29 40 66 63 109H381c-14 0-36-4-67-9l-15 35h279v129H434v-20c0-6-6-13-18-19-10-6-22-10-37-12l4 107v323m51-354h144v129H434V542m193 129V542h150v129H627m-193 25h144v135H434V696m193 135V696h150v135H627m-522 78c62-41 101-72 120-92 17-17 26-35 27-52 0-16-3-28-8-36-6-8-12-13-19-15-6-3-13-2-20 2-6 3-10 14-14 33-2 20-8 39-19 59-10 18-35 48-76 89l9 12m73-273 54-53c4-3 6-6 6-10 1-4-4-10-15-15l-30-16V181l161 117 11-14c-77-65-127-109-150-131-22-24-41-49-59-75l-58 50c17 10 34 25 50 45v392H55c-14 0-26-2-35-7L0 591h145l33 45Z"/></symbol><symbol id="诿_G" viewBox="0 0 1000 1000" data-size="21"><path transform="matrix(1 0 0 -1 31 958)" d="M289 688h275v135c-74-10-152-15-234-17v19c84 8 170 21 258 39 88 17 150 33 187 49 33-35 50-55 51-59 0-3 0-6-2-9 0-3-6-4-15-2-10 1-28 2-53 2-26 0-73-6-143-18V688h186l39 49 58-56c2-2 4-5 4-8 0-8-4-12-11-12H678c17-30 39-57 64-80 26-21 51-39 76-53 25-11 65-19 120-23v-20c-32 0-51-4-59-9-7-7-16-16-27-28-28 12-53 28-77 47-22 20-45 42-68 68-21 26-40 58-55 98h-39v-80l4-68c0-8-7-17-19-26-12-8-24-12-37-13l3 103v84h-15c-39-49-80-92-123-131-44-38-101-77-172-115l-10 16c61 41 111 80 149 117 37 34 69 72 97 113H371c-14 0-36-2-66-8l-16 35m291-250c6-4 6-9 0-13-2 0-10-3-23-8-14-6-30-23-47-53h295l37 53 60-57c2-2 4-6 6-9 0-8-4-12-12-12H730c-19-62-48-116-87-162 54-17 97-33 128-49 32-14 53-28 63-44 10-14 14-27 12-39s-9-19-20-22c-12-2-24 4-37 18-14 16-33 31-57 45-22 14-63 35-121 61-47-37-100-69-160-94-60-24-129-41-207-53l-2 18c80 20 147 43 199 68s94 52 125 81c-72 23-134 43-187 61 17 33 39 70 64 111H342c-14 0-36-3-67-8l-15 33h199c18 33 33 67 47 104l74-30M426 237c47-11 103-26 170-45 29 30 56 79 82 147H494l-68-102M105 917c67-37 107-66 122-88 13-19 19-37 19-53-1-15-4-26-10-33-6-8-11-12-17-14-7-2-14-1-22 2-7 3-12 13-15 32-3 18-8 36-16 54-8 20-31 49-70 88l9 12m57-268 61-46c2-3 3-6 4-10 0-4-5-9-14-14l-22-19V196l114 100 15-16c-47-47-82-86-107-117-24-31-41-59-51-85l-60 54c17 14 31 30 41 49v400H49c-14 0-26-2-33-6L0 606h133l29 43Z"/></symbol><symbol id="谀_G" viewBox="0 0 1000 1000" data-size="21"><path transform="matrix(1 0 0 -1 36 971)" d="M473 774c-18-3-46-13-84-29V597h60l33 41 51-53c2 0 2-2 2-6s-2-7-8-8H389V407h160c12 92 17 184 15 276v259c61-21 92-33 92-37 0-2 0-4-2-8 0-3-13-10-41-21V667c0-96-6-182-17-260h181v164h-80c-13 0-29-2-47-8l-23 34h150v160h-68c-12 0-25-3-41-8l-23 35h125l27 37 55-41c4-4 7-8 7-11 0-5-11-14-33-28V452l4-90c-1-9-8-18-21-25-13-8-23-12-32-12v57H629c17-67 40-122 68-166 30-44 63-76 100-97 36-20 80-32 131-37V64c-32-1-55-5-69-9-12-4-23-13-33-28-45 26-78 52-99 78-22 25-42 54-61 87-20 34-40 95-61 186h-15c-23-109-65-190-127-244C402 82 324 38 229 0l-6 16c84 43 153 90 209 139 53 49 91 125 113 227H389v-18c-1-10-7-18-20-25-12-7-23-10-33-10l4 117v360l53-35c45 26 77 50 97 72 31-30 48-47 51-51 1-5 0-8-4-10-3 0-10-1-21-2-10 0-24-2-43-6M96 913c66-37 106-66 121-88 13-19 19-37 19-53 0-15-4-26-9-33-6-8-12-12-18-13-7-3-14-2-21 2-8 2-13 13-16 31s-8 36-16 54c-8 20-31 49-70 88l10 12m62-277 59-47c2-3 3-6 4-10 0-4-4-8-12-14l-23-19V194l123 106 15-16c-51-51-88-92-111-121-22-29-39-56-49-81l-62 52c13 10 25 23 35 41v392H55c-10 0-22-4-35-9L0 593h129l29 43Z"/></symbol><symbol id="谁_G" viewBox="0 0 1000 1000" data-size="21"><path transform="matrix(1 0 0 -1 33 958)" d="M551 875c4-2 6-5 6-7 0-6-3-10-10-12-22-3-38-15-49-33-10-20-28-58-55-114h373l38 49 62-60c1-2 2-4 2-6 0-5-3-7-8-8H680V524h109l35 47 63-57s1-2 2-6c0-4-3-7-8-8H680V334h109l39 47 59-58c1 0 2-2 2-6 0-5-3-7-8-8H680V127h148l39 53 63-61c2-1 3-4 4-6 0-6-3-8-8-8H439V42c2-9-4-18-19-27-14-10-25-15-33-14l4 124v493c-28-60-69-123-121-190l-14 10c49 81 92 161 129 242 35 80 64 158 88 232l78-37m78-541v166H439V334h190m0 190v160H439V524h190m-27 392c46-29 78-53 95-72 17-18 26-34 28-49 0-15-4-28-12-37-7-9-16-13-27-12-12 0-19 10-22 30-2 17-6 34-14 50-6 14-25 41-56 81l8 9m27-789v182H439V127h190M104 889c70-32 113-57 128-74 16-16 24-31 24-47 0-15-3-26-8-33-6-8-12-13-18-14-5-3-12-2-19 2-6 3-10 13-14 31-3 18-10 33-21 47-10 14-37 39-82 76l10 12m58-262 61-47c4-2 6-5 6-9s-5-9-16-14l-25-22V178l146 115 12-13c-75-67-121-112-141-135-18-24-35-48-51-73l-56 53c17 13 31 28 43 43v391H55c-11 0-22-3-34-8L0 582h131l31 45Z"/></symbol><symbol id="谂_G" viewBox="0 0 1000 1000" data-size="21"><path transform="matrix(1 0 0 -1 36 949)" d="m703 515 53-47c2-2 3-6 4-12-2-3-5-5-10-8l-33-15-53-110c-6-10-16-15-27-15-13 2-22 4-28 5l63 133H395c-14 0-26-2-36-8l-29 36h334l39 41M502 646l10 9c44-24 73-44 86-60 12-16 17-30 13-43-4-14-9-24-17-30s-16-7-24-3c-8 3-13 13-15 27-1 14-4 27-10 41s-20 33-43 59m127 216 4-8c0-3-11-10-31-21 22-48 50-90 84-127 31-37 68-69 111-96 42-27 85-43 131-48v-20c-24 0-41-1-53-2-12-2-25-12-41-31-36 25-66 50-92 74-25 23-53 54-82 92-28 37-55 87-80 150-39-62-87-129-142-199-56-70-116-128-180-172l-10 14c59 54 113 116 164 185 49 69 95 150 139 244l78-35M342 245h19c2-82-2-135-11-158-10-22-22-38-36-46-12-8-23-11-33-10-10 3-16 9-19 20-3 10 2 21 15 33 12 8 24 22 36 40 11 16 21 56 29 121m420 26c49-28 84-51 105-71 22-20 35-38 41-54s8-30 6-42c-2-11-6-19-12-24-6-6-13-9-23-8-9 1-16 12-22 32-6 21-15 43-27 67-12 21-38 51-78 88l10 12m-289-36V87c0-22 6-36 17-40 12-4 30-6 53-6h121c18 2 31 6 37 12 6 5 10 12 12 21 3 9 6 23 8 44 1 19 2 42 2 69h19l4-67c5-28 15-44 31-50-6-21-16-37-31-49-15-11-40-18-74-21H523c-31 1-55 5-72 14-15 8-23 30-23 66v214l70-25c8-4 12-7 12-10 0-2-1-4-4-6s-14-8-33-18m66 80c48-33 79-59 92-78 12-17 17-34 14-49-2-15-7-26-14-31-8-4-16-6-26-4-8 2-13 12-15 32-1 17-5 35-14 52-8 18-24 41-49 71l12 7M109 868c67-37 107-66 121-88 13-19 20-37 20-52-1-15-4-27-10-34s-11-12-17-13c-7-3-14-2-22 2-7 2-12 13-15 31s-8 36-16 55-31 48-70 87l9 12m59-277 61-47c1-3 3-6 3-10s-4-8-13-13l-22-20V167l123 117 16-15c-53-55-94-100-121-135-26-35-44-66-55-95l-60 43c22 20 38 39 48 58v382H55c-10 0-22-3-35-9L0 548h139l29 43Z"/></symbol><symbol id="调_G" viewBox="0 0 1000 1000" data-size="21"><path transform="matrix(1 0 0 -1 52 956)" d="m352 892 58-45h389l31 39 57-45c6-2 9-6 9-12s-13-16-39-29V116c2-20-2-41-11-63-11-22-33-39-69-53-6 18-17 33-35 45-15 10-47 21-94 33l2 20c59-15 97-21 116-20 17 1 29 4 35 10 4 6 7 16 8 30v703H400V563c0-193-17-324-52-394-35-69-85-123-149-163l-10 12c67 56 111 122 133 198 22 77 32 193 30 347v329m78-211h140v131l76-26c2-2 4-4 4-6v-4l-33-19v-76h55l31 39 45-49c2-2 3-5 4-8 1-4-1-7-6-8H617V536h80l32 41 44-47c2-2 4-4 4-8 0-7-4-11-13-11H502c-12 0-33-3-64-8l-18 33h150v119h-72c-5 0-21-2-49-8l-19 34m41-231 54-33h121l30 39 54-35c6-4 10-9 10-14 1-2-8-11-27-25V269l4-63c-1-12-8-21-22-27-13-5-24-7-33-8v49H521v-35c0-9-7-17-21-26-13-8-24-12-33-12l4 98v205m50-205h141v147H521V245M96 911c64-40 105-70 123-92 16-21 24-39 25-52 0-14-2-24-8-32-6-7-11-12-17-13s-13 0-20 4c-8 2-13 11-15 29-3 17-10 35-20 53-8 18-33 49-76 91l8 12m84-279 54-45c5-3 8-6 8-10s-6-8-15-14c-16-5-24-16-24-31V218l104 99 11-13c-49-59-84-101-103-125-18-24-34-51-49-79l-55 44 45 44v377H61c-10 0-22-3-36-11L0 591h146l34 41Z"/></symbol><symbol id="谄_G" viewBox="0 0 1000 1000" data-size="21"><path transform="matrix(1 0 0 -1 61 965)" d="M512 794h228l30 37c44-42 67-64 68-68 0-4-2-7-6-8-5-1-13-3-25-8-13-4-32-18-57-43-23-25-62-72-117-141l-18 10c50 77 91 142 125 196H496c-66-102-139-196-219-282l-9 12c58 80 109 156 152 229 41 70 76 138 105 203 50-26 76-41 79-45 2-4 3-7 1-8-1-2-8-5-19-8s-22-10-33-21c-10-10-24-28-41-55M402 487V315h94l39 43 55-50c1-4 2-7 2-10 0-5-3-7-8-8H402V109h395v177h-90c-16 0-30-2-43-8l-27 34h160v169H682c-18 0-34-3-49-9l-28 35h180l31 39 51-43c8-5 12-9 12-14-1-1-12-8-33-21V142l4-83c0-10-7-19-20-28-13-8-24-11-33-11v62H402V41c0-9-7-18-21-27-14-10-24-14-31-12l4 130v406l42-29c53 21 98 48 135 80 30-28 46-45 49-51 2-6 1-10-2-12-2-1-10-1-21 0-13 2-32 0-57-7-24-8-57-19-98-32M115 907c67-37 107-65 121-84 13-19 20-36 20-51-1-15-4-26-10-33-6-8-12-12-17-13-7-3-14-2-22 2-7 2-12 13-16 31-2 17-7 35-15 53-8 16-31 44-71 84l10 11m41-281 61-47c2-3 3-6 4-10 2-4-2-8-12-13l-23-16V183l127 121 15-16c-55-61-96-107-123-139-25-31-43-62-53-90l-60 54c17 13 32 31 45 54v391H55c-10-1-22-4-35-10L0 583h127l29 43Z"/></symbol><symbol id="谅_G" viewBox="0 0 1000 1000" data-size="21"><path transform="matrix(1 0 0 -1 44 973)" d="m807 763 43 56 58-62c2-2 3-5 4-8 0-8-4-12-14-12H379c-14 0-37-4-68-9l-14 35h510M381 663l60-41h299l31 41 63-49 4-8c1-4-11-13-33-27V452l4-62c2-10-3-20-14-30-11-7-24-12-39-13v52H617V105c1-23-5-44-17-64-12-16-34-30-65-41-4 23-15 40-33 49-18 8-50 20-96 37l6 18c41-12 70-20 88-24 18-3 33-3 47 0s21 14 19 33v286H430v-11c1-9-4-19-16-28-12-8-24-13-37-13l4 109v207m49-238h326v172H430V425m60 512 12 9c51-33 85-59 103-78 17-17 25-33 26-47 0-13-3-24-8-33-6-8-16-12-27-12-12 0-20 7-24 22-4 14-8 28-11 45-4 15-28 47-71 94m6-666c1-4 1-7 2-8-1-2-4-4-10-6-13-4-24-8-31-12-6-4-25-25-57-62-31-36-82-87-152-156l-12 12c75 83 138 173 192 271l68-39m217 21c46-37 82-68 107-94 26-24 43-45 51-62 8-16 11-31 10-44 0-12-4-22-12-29-6-7-15-9-25-6-10 2-17 11-20 27-4 16-13 38-27 65-12 28-43 71-94 129l10 14M115 901c57-32 94-59 112-80 17-20 26-37 27-50 0-15-3-26-8-34-6-6-12-11-17-13-6-3-13-2-20 2-7 3-12 14-16 33-2 17-9 35-19 53s-32 44-67 78l8 11m49-248 61-49c4-2 7-5 7-9 0-5-5-10-15-16l-24-17V208l133 133 14-14c-67-76-110-127-127-154-16-26-33-51-49-77l-59 48c16 11 30 28 41 50v389H53c-10-1-22-5-35-10L0 606h131l33 47Z"/></symbol><symbol id="谆_G" viewBox="0 0 1000 1000" data-size="21"><path transform="matrix(1 0 0 -1 29 978)" d="m828 802 37 51 65-57c2-3 3-6 4-10 0-6-4-10-12-10H418c-13 0-34-2-63-7l-19 33h492m-414-69 51-37h291l31 35 49-35c6-4 9-8 10-13 0-3-9-11-28-26v-58l4-69c0-8-6-15-19-23-14-7-26-10-35-10v31H463v-7c0-6-6-13-18-20-11-6-23-8-35-8l4 102v138m49-177h305v113H463V556m62 388 8 12c43-16 74-30 94-43 19-12 33-25 39-41 6-14 5-27-2-39-8-12-18-18-31-16-14 2-22 10-26 24-2 13-8 28-19 45-11 15-31 35-63 58m268-474 45-47c8-7 12-13 12-16 0-4-4-6-12-6-7 0-20-4-39-11-19-6-71-38-156-96v-20h189l43 47c44-37 66-58 66-62 0-5-2-7-3-8-2-1-11-1-26-2H643V109c1-31-4-56-16-74-12-15-35-27-70-35-4 21-16 36-36 45-19 8-44 18-76 27l4 18c35-8 64-13 86-16 24-2 39-1 47 2 8 4 11 18 10 43v130H377c-10-3-23-6-41-10l-22 37h278v75l53-30 109 94H441c-9 0-21-3-35-8l-23 33h377l33 30M107 917c62-35 99-63 114-84 14-20 21-37 19-51 0-13-4-24-10-31-5-8-11-12-17-14s-12-2-20 2c-5 3-10 13-13 32-2 17-8 36-18 56-8 20-29 46-64 78l9 12m59-275 61-43c3-3 5-6 5-10 1-4-4-9-15-14l-24-19V202l137 139 16-14c-71-82-117-137-137-164-18-27-33-54-45-79l-64 50c17 12 33 27 46 47v396H55c-10-1-22-4-35-10L0 603h139l27 39Z"/></symbol><symbol id="谇_G" viewBox="0 0 1000 1000" data-size="21"><path transform="matrix(1 0 0 -1 39 972)" d="M502 688c6-3 9-8 8-13-1-2-4-4-10-6-10-3-18-6-23-10-4-3-18-24-41-62 41-24 69-44 84-61 14-17 20-34 19-49 0-13-4-23-12-29-6-6-13-8-21-6-8 1-14 6-18 14-2 8-4 17-6 29-2 11-7 24-15 37-8 14-22 30-41 47-33-62-77-128-133-195l-12 10c38 61 70 121 96 177 25 54 45 104 59 149l66-32M270 312h289v142l78-27c4-4 5-8 2-12-4-3-15-8-32-16v-87h211l36 54 60-58c1-3 4-6 8-10 2-8-1-12-8-12H607V128l4-91c0-8-7-17-21-25-12-8-24-12-35-12l4 125v161H340c-14 0-32-2-55-8l-15 34m505 386c12-6 14-12 6-19-20-5-32-9-37-14-4-4-14-23-31-59 57-31 95-56 113-76 18-19 28-37 29-52 2-15 0-28-7-40-9-11-18-15-28-11-9 2-16 8-19 17-3 10-6 22-10 35-4 14-14 30-29 49-15 20-35 39-63 57-29-53-62-100-99-141l-14 10c41 68 83 160 127 277l62-33m18 84 35 55 68-63c2-2 4-3 4-5 2-8 0-12-5-12H381c-14 0-36-3-67-8l-15 33h494M496 933l10 11c49-21 82-39 99-54 18-15 28-30 30-45 2-14 0-26-6-35-6-11-16-16-29-16-12-1-20 8-24 25-2 15-8 32-17 49-9 16-30 37-63 65M94 921c66-37 107-67 121-88 13-20 19-37 19-53 0-15-4-26-9-33-6-8-12-12-18-14s-14-2-21 2c-8 3-13 13-16 32-3 18-8 36-16 54-8 20-31 49-70 88l10 12m68-285 61-47c2-3 3-6 4-10 0-4-5-8-14-14l-22-19V157l127 98 14-18c-55-45-94-82-117-112-24-29-41-56-53-80l-60 51c17 14 31 30 41 48v423H55c-10 0-22-4-35-9L0 593h133l29 43Z"/></symbol><symbol id="谈_G" viewBox="0 0 1000 1000" data-size="21"><path transform="matrix(1 0 0 -1 33 959)" d="M104 882c57-33 95-61 113-82 15-22 23-41 23-57 0-15-2-27-8-35-5-8-11-12-17-14s-13-2-20 2c-6 2-10 13-13 33-2 18-8 37-18 57-10 19-33 47-70 84l10 12m62-262 55-49c4-2 6-6 6-9 0-4-5-9-16-14l-23-16V192l115 118 13-12c-56-70-95-120-117-149-21-28-35-55-41-81l-62 54c17 13 32 30 45 51v387H55c-10-1-22-4-35-10L0 585h143l23 35m686-236c5-7 5-12-2-16-18 3-39-2-65-15-25-14-65-38-119-73 23-49 51-88 84-117 33-28 61-47 86-58 23-11 56-21 98-29V59c-30 2-52-2-67-10-13-7-24-16-31-28-29 22-59 47-88 77-28 28-56 64-84 110-27 46-49 122-68 230l-4-9c-13-110-35-188-69-237-33-48-78-88-132-120-55-30-124-54-207-72l-4 14c85 30 148 58 189 84 39 24 72 55 100 90 26 35 46 86 60 155 13 67 20 133 22 195l84-29c4-5 6-8 6-10 0-1-10-6-30-16l4-29c11-59 25-111 43-154 57 45 103 88 137 129l57-45m-596 53c54 22 107 50 160 84 50 32 86 67 107 103 19 35 30 74 32 119v176c56-16 84-27 84-33 0-5-2-8-6-10s-14-8-29-18c1-54-1-110-8-168 58 33 101 60 129 81 27 20 54 41 82 62 37-38 54-59 52-62 0-5-3-8-7-8-5 0-12 1-20 4-8 2-30-6-66-24-36-15-94-41-174-76l-8-18c84-25 146-47 187-66 41-20 69-37 84-53 16-15 23-31 22-47 0-15-6-25-18-29-9-4-21 2-35 18-11 15-35 37-70 66s-94 59-176 92c-27-53-70-96-129-129-58-32-122-59-189-80l-4 16m164 375h19c0-48-3-86-11-114-6-27-17-47-32-60s-29-19-41-20c-11-1-21 3-29 12-6 9-6 18 2 27 8 8 20 17 35 28 14 10 25 24 33 43 8 18 16 46 24 84m-4-383h20c-2-50-7-88-14-116-8-27-18-47-31-60-13-12-25-19-37-20s-21 3-28 12c-6 9-6 18 2 27 7 8 18 17 31 28 13 10 24 25 34 43 7 17 15 46 23 86Z"/></symbol><symbol id="谉_G" viewBox="0 0 1000 1000" data-size="21"><path transform="matrix(1 0 0 -1 45 968)" d="m502 925 8 12c29-10 54-20 76-30 19-10 32-21 39-35 6-12 6-23 0-35-5-12-14-18-27-18-15 0-24 8-28 24-4 13-10 26-19 39-10 11-26 25-49 43m-154-82h23v-47h451l28 33c37-30 56-47 58-51s2-6-2-7c-2-2-8-5-17-8-8-2-18-8-30-18-10-10-33-34-68-72l-18 8 49 91H371c2-33-3-59-14-78-11-18-24-29-39-33-13-2-24 1-31 10-8 8-8 17-2 27s13 18 22 24c6 6 13 19 23 39 10 19 16 47 18 82m25-209 45-33h152v125l78-26c4-2 6-4 6-6s0-4-2-7l-33-16v-70h129l33 41 61-47c4-3 6-5 6-8 0-4-11-14-32-29V329l4-86c0-8-6-15-15-23-10-7-22-13-37-16v63H619V115l4-78c-1-8-8-16-21-23-12-9-24-14-36-14l4 109v158H420v-34c0-8-6-17-18-25s-23-12-33-12l4 116v322m47-342h150v131H420V292m199 131V292h149v131H619m-199 25h150v127H420V448m199 127V448h149v127H619M88 896c62-30 101-53 119-71 18-16 27-33 29-51 0-16-2-28-7-37-7-8-14-12-20-13-6-3-12-2-18 2-6 2-11 13-15 31-3 17-10 35-22 53-11 17-36 42-72 74l6 12m86-286 55-47c4-2 7-5 7-9s-6-9-15-14l-24-16V151l125 137 18-17c-63-74-104-124-123-151-18-27-32-51-43-73l-61 51c10 4 22 15 35 32v418H53c-10 0-20-4-32-12L0 571h139l35 39Z"/></symbol><symbol id="谊_G" viewBox="0 0 1000 1000" data-size="21"><path transform="matrix(1 0 0 -1 37 942)" d="m398 601 57-36h240l34 39 60-42c6-5 9-10 10-16 0-2-11-12-33-31V35h48l41 62 67-68c2-2 3-5 4-9 0-8-5-12-16-12H324c-12 0-34-2-66-8l-16 35h156v566m51-566h264v161H449V35m0 189h264v140H449V224m0 168h264v146H449V392m51 480 8 12c36-16 64-32 84-49 19-16 31-33 35-49 5-15 3-29-4-41-8-12-18-17-29-16-13 2-20 12-22 30-2 17-8 35-15 53-9 16-28 37-57 60M365 761h22l2-51h416l31 41c42-38 64-59 66-63 2-3 2-6-2-7-2-2-10-4-25-6-14-2-28-10-43-24-14-12-30-29-49-50l-13 9c7 18 19 43 37 77H389c0-25-5-47-16-69-10-21-21-36-35-43-14-8-25-10-35-6-9 4-14 11-16 22-1 10 9 25 27 43 19 17 31 35 38 53 6 16 11 41 13 74m-256 76c60-42 96-72 108-92 12-19 17-36 15-49 0-13-3-24-7-31-4-8-10-12-18-14-6-2-12-2-19 2-8 3-13 13-14 32-1 16-5 35-14 54-6 19-27 48-62 86l11 12m65-268 66-47c4-2 6-5 6-9 1-4-4-9-16-14l-23-20V136l133 111 14-16c-71-68-116-113-137-134-20-22-38-48-55-79l-57 41 51 55v385H55c-13 0-26-3-39-8L0 524h143l31 45Z"/></symbol><symbol id="谋_G" viewBox="0 0 1000 1000" data-size="21"><path transform="matrix(1 0 0 -1 31 965)" d="M291 782h121v143l78-29c5-2 8-4 8-6 0-3-2-6-6-10l-31-16v-82h266v149l72-34c6-1 9-3 10-5 0-4-1-8-2-12l-34-16v-82h41l32 43 58-51c2-2 4-3 4-5 0-8-4-12-12-12H773V532l4-70c1-10-4-18-15-25-10-8-22-13-35-14v47H461v-16c0-8-6-16-18-21-11-7-23-10-35-10l4 107v227h-41c-12 0-33-3-64-8l-16 33m170-287h266v119H461V495m0 145h266v117H461V640M260 349h306v111l79-23c3-2 3-5 1-10 0-2-10-8-31-18v-60h213l39 52 61-62c2-2 3-5 4-8 1-5-2-7-10-8H654c18-36 39-66 65-92 24-24 47-43 68-56 20-14 40-26 63-35 21-9 50-16 88-22v-14c-26 0-44-4-55-12-12-5-24-14-35-26-26 18-51 36-75 54s-50 44-78 80c-26 35-48 76-66 123h-14V134l4-97c-1-9-8-17-21-25-14-8-26-12-35-12l3 140v185c-46-70-95-129-146-178-52-46-117-89-197-127l-8 11c68 45 123 87 164 126s84 94 129 166H342c-14 0-36-2-67-8l-15 34M90 903c62-34 101-60 119-80 17-19 25-37 25-52 0-14-2-25-7-32-6-8-12-12-18-13-4-1-10 0-18 3-5 2-11 14-17 34-4 17-12 35-24 52-9 18-33 43-70 77l10 11m78-261 55-47c4-3 6-6 6-10s-5-9-16-14l-22-17V185l123 89 12-13c-56-47-96-84-119-112-22-26-40-51-55-75l-54 52c17 14 33 29 47 47v402H55c-10 0-22-4-35-10L0 599h135l33 43Z"/></symbol><symbol id="谌_G" viewBox="0 0 1000 1000" data-size="21"><path transform="matrix(1 0 0 -1 34 958)" d="M287 757h133v160l82-25c5-2 7-4 8-6 2-5 1-8-4-10l-37-18V757h248v158l80-27c2-3 3-6 4-8 0 0-1-2-4-6l-31-20v-97h62l33 45 55-51c2-2 3-5 4-8 2-8-1-12-8-12H766V372h68l31 47 63-55c2-2 3-6 4-10 0-4-4-7-12-7H400V61h395l41 48 62-60c2-1 4-4 4-8 0-5-2-7-7-8H412L375 0l-62 43 39 33v271h-45c-14 0-28-3-43-8l-16 33h172v359h-51c-14 0-36-2-66-7l-16 33m182-385h248v104H469V372m0 129h248v102H469V501m0 127h248v103H469V628m80-328c45-22 68-35 68-41 1-5-2-7-10-8-5 0-12-2-19-6-8-2-20-12-35-27-17-17-53-55-110-114l-13 10c46 63 86 125 119 186m107-16 8 12c31-14 61-30 88-49s46-37 57-53c9-16 13-30 9-43-2-11-5-19-11-23-6-5-14-7-24-6-8 2-13 10-17 24-4 13-14 33-30 58-16 24-43 50-80 80M102 888c66-37 106-67 121-88 13-20 19-37 19-53 0-15-4-26-10-33-5-8-11-13-17-14-7-2-14-2-22 2-7 3-12 13-15 31-3 19-8 37-16 55-8 20-31 49-70 88l10 12m62-270 61-47c2-2 3-6 4-9 0-4-5-9-14-14l-22-20V171l125 115 16-15c-54-57-92-101-115-131-22-31-39-59-51-85l-64 52c17 13 31 29 41 48v395H55c-10-1-22-4-35-10L0 575h135l29 43Z"/></symbol><symbol id="谍_G" viewBox="0 0 1000 1000" data-size="21"><path transform="matrix(1 0 0 -1 32 961)" d="M80 896c66-36 108-65 123-88 16-24 24-43 24-57 0-12-4-22-12-29-7-6-12-10-16-12-4-1-10 1-17 4-6 2-11 11-14 27-4 15-10 33-20 55-9 21-35 51-76 88l8 12m84-258 55-43c4-3 6-6 6-10 0-5-12-16-36-33V222l98 90 14-12c-47-55-81-95-102-119-21-26-39-53-53-81l-52 47 47 47v377H55c-10 0-22-2-35-8L0 597h133l31 41m127 113h119v135l78-33c2-3 4-6 4-8 0-4-12-10-33-18v-76h90v166l76-33c4-3 6-5 6-8 0-2-11-8-31-18V751h105v172l74-33c4-2 6-5 6-10 0-2-10-9-31-20V751h74l35 47 55-55c2-2 3-4 4-8 0-7-4-11-12-11H754V624l4-64c-2-10-10-18-24-24-13-6-23-10-29-10v45H600v-15c-2-10-9-18-20-24-12-4-23-7-35-8l4 98v102h-90V460h324l33 47c39-35 61-57 67-65-1-6-5-9-10-9H641v-88h168l39 47 48-49c10-8 15-15 16-20 1-4-2-6-10-6H674c23-45 43-79 62-101 17-22 43-46 78-72 34-27 74-42 122-46V80c-35 0-58-4-69-12-10-7-18-14-25-21-19 14-40 32-63 55-21 22-45 51-70 88-24 38-44 80-61 127h-7V132l4-95c0-11-7-20-22-27-14-6-27-9-39-10l4 122v195h-14c-39-69-84-127-136-173-51-44-112-85-182-124l-10 15c61 41 115 86 164 136 48 51 85 100 110 146H377c-14 0-28-2-43-7l-16 35h270v88H469l-39-28-47 49c17 6 27 16 27 29v241h-53c-15 0-31-3-48-8l-18 35m414-156v129H600V595h105Z"/></symbol><symbol id="谎_G" viewBox="0 0 1000 1000" data-size="21"><path transform="matrix(1 0 0 -1 30 975)" d="M92 909c62-34 103-60 123-80 19-20 29-38 29-55 1-15-2-27-10-35s-17-11-27-10c-9 3-16 12-21 26-4 14-11 30-20 51-8 19-35 48-82 90l8 13m82-271 55-43c4-3 7-6 7-10s-11-14-35-31V187l129 128 14-13c-65-74-104-122-117-145-15-21-28-48-39-81l-63 47 29 36v412H53c-10 0-20-2-32-8L0 597h141l33 41m109-22h551l37 45 61-53c2-2 3-5 4-9 0-6-4-9-12-8H443V470h317l37 41 57-53c1-3 1-5 1-8 0-4-2-6-7-6H447l-31-27-49 39 28 27v108h-41c-22 0-40-3-55-8l-16 33m278-213 76-27c9-5 9-10 2-16l-30-9V159l4-95c0-9-7-17-19-25s-24-12-37-12l4 140v236m-155-2c53-18 80-29 82-33s2-8-2-10c-3-2-14-7-33-15-1-63-6-114-15-155-9-39-30-73-63-104-32-31-78-59-139-84l-7 14c48 27 87 56 115 88 27 28 45 64 52 108 6 42 10 106 10 191m131 342 10 10c39-20 64-35 76-45s20-21 23-33c4-13 4-24-1-33-6-10-15-14-26-12-11 0-18 6-21 17-2 12-6 25-12 40-6 14-22 33-49 56m182-340 76-25c4-3 6-5 6-8 0-2-3-6-8-10l-27-11V119c0-23 4-36 11-39 8-1 16-2 24-2h47c17 4 27 18 29 43 2 22 3 61 4 116h19l4-74c2-38 14-59 35-63-5-26-15-43-29-51-12-9-27-14-47-14h-66c-18 0-33 2-47 6-12 3-20 12-25 27-4 11-6 28-6 51v284M459 950l82-31c4 0 6-2 6-6 8-4-5-12-37-21v-84h176v130l82-33c5-2 7-5 5-8 0-2-12-9-37-21v-68h94l33 45 57-57c2-1 3-3 4-8-1-4-6-6-16-6H736v-21l2-49c0-10-6-18-17-25-9-6-22-10-39-12l4 74v33H510v-27l2-49c0-8-5-16-16-23-10-7-23-10-41-10l4 82v27h-84c-14 0-35-4-64-10l-18 36h166v142Z"/></symbol><symbol id="谏_G" viewBox="0 0 1000 1000" data-size="21"><path transform="matrix(1 0 0 -1 39 966)" d="M295 792h262v141l86-28c2-2 3-4 3-6 2-3 0-6-3-7l-39-18v-82h193l39 49 62-55c2-2 4-4 4-8 0-7-4-11-11-11H604V659h169l36 39 54-45c2-4 4-6 4-7 0-4-10-15-31-32V468l4-78c-1-8-6-16-16-24s-21-12-35-13v43H646c22-51 47-91 75-122 27-30 58-57 92-80 33-21 69-35 109-43v-15c-24 0-42-3-55-8-12-5-23-13-35-26-31 20-61 47-90 81-27 33-51 66-70 99-20 33-36 70-49 110h-19V136l3-103c0-7-6-14-19-21-12-8-24-12-35-12l4 140v228c-36-56-77-112-121-168-46-56-108-109-186-157l-10 12c66 54 121 111 166 171 45 58 82 115 114 170H389v-18c0-8-5-16-16-25-12-8-23-12-35-12l4 115v238l56-35h159v108H377c-14 0-36-3-66-8l-16 33m94-371h168v213H389V421m215 213V421h185v213H604m-190-43 10 12c32-25 56-45 72-63s24-33 24-47-4-24-12-31c-6-7-14-9-24-8-8 1-13 11-15 27-1 15-5 32-14 49-8 15-21 35-41 61m209-129c37 53 63 97 80 133 39-23 59-36 59-39v-6c-1-1-7-3-20-8-12-5-25-13-41-25-15-13-38-35-66-67l-12 12M113 894c65-36 104-65 117-86 13-20 20-37 20-53-1-15-4-26-10-33-6-8-11-13-17-14-7-3-14-2-22 2-7 3-12 13-15 31s-8 37-16 55c-8 19-30 47-66 86l9 12m55-264 61-47c1-3 3-6 3-10s-4-8-13-13l-22-20V187l121 97 16-15c-51-47-89-85-113-116s-41-59-53-85l-61 54c18 14 32 31 41 49v391H55c-10-1-22-4-35-10L0 587h139l29 43Z"/></symbol><symbol id="谐_G" viewBox="0 0 1000 1000" data-size="21"><path transform="matrix(1 0 0 -1 23 963)" d="m582 540 61-31c5-2 9-5 9-8 2-2 2-5-2-8-8-2-17-6-27-10-8-2-29-26-60-72h203l31 37 53-41c5-4 9-8 9-13 0-4-9-13-29-28V124l4-81c-1-9-8-18-21-25-12-9-24-13-36-14v76H459V39c0-8-7-16-20-23-13-9-26-15-37-16l4 105v337l53-31h74c19 45 35 88 49 129M459 107h318v128H459V107m0 156h318v121H459V263m189 664c49-20 79-33 88-39 5-4 4-9-4-14l-35-14V706c74 45 134 90 180 135 38-33 55-53 53-59-2-5-5-7-8-6h-22c-11 0-30-5-54-17-26-13-75-39-149-80V579c0-21 4-33 12-35 8-1 17-1 25-2h98c16 2 27 4 35 6 9 1 16 12 20 31 4 18 7 56 9 115h20c1-30 4-57 8-80 2-21 12-37 29-47-4-14-10-27-17-39-8-10-19-17-32-21s-31-7-52-8H732c-18 0-34 2-48 6-12 3-22 12-30 25-4 11-6 28-6 51v346m-257-4 80-31c4-2 6-5 6-8 0-2-3-6-10-12l-26-14V741h80l38 41 48-53c2-1 2-4 2-7 1-5 0-7-4-8H441V556l166 54 8-17c-78-34-129-57-152-69s-46-31-68-56l-43 62c16 8 30 16 39 24v369m-266-18c68-39 109-69 121-90 12-20 18-37 18-50-1-14-4-24-10-32-6-7-12-12-20-13-5-3-12-2-19 2-7 3-13 13-16 31-3 17-8 34-15 51-6 16-28 46-69 90l10 11m63-277 56-51c4-2 6-6 6-10 1-4-5-8-16-13l-29-24V171l137 131 15-16c-72-86-117-140-132-160-16-19-34-47-53-85l-65 57 49 48v408H55c-14-1-26-4-35-10L0 581h150l38 47Z"/></symbol><symbol id="谑_G" viewBox="0 0 1000 1000" data-size="21"><path transform="matrix(1 0 0 -1 29 967)" d="m795 415 57-53c1-2 2-4 2-8s-2-7-6-7H521V239h303l31 45 55-51c2-2 3-5 4-7 0-8-4-12-12-12H521V92h258l37 50 65-62c1-1 2-4 2-8s-2-7-6-8H539l-31-39-67 49 32 26v114h-35c-8 0-22-3-42-8l-15 33h92v166l54-33h235l33 43M568 935l77-28c5-2 7-6 7-11 0-1-4-4-11-8l-22-10v-57h152l36 49 60-58c1-2 1-4 2-6-1-5-2-7-4-8H619v-88h229l31 37 53-47c6-4 9-8 9-12s-4-7-13-9c-10-2-22-7-35-14-14-6-38-24-71-55l-11 8 41 69H389V521c2-161-17-278-55-352C295 95 247 38 191 0l-9 10c58 62 99 128 125 196 25 68 37 173 35 315v230l54-41h172v225m77-278c1-2 3-4 3-6s-2-5-5-9l-30-10v-49l86 12 31 41 55-43c10-6 9-11-2-14l-170-19v-41c0-16 4-25 12-26 8-2 21-2 41-2h90c20 0 34 2 43 6 8 4 14 11 17 22 2 9 4 33 6 72h18c-1-7 0-20 4-39 1-20 10-37 25-51-6-14-15-25-27-35-13-8-29-12-51-12H609c-19 4-31 12-35 24-4 11-7 26-8 44v32l-121-12c-7-2-14-5-21-8l-20 29 162 14v104l79-24M107 905c67-37 107-66 122-88 13-19 19-37 19-52-1-15-4-26-10-34-6-7-11-12-17-13-7-3-14-2-22 2-7 2-12 13-15 31s-8 36-16 55-31 48-70 88l9 11m61-263 61-47c1-3 3-6 3-10s-4-9-13-14l-22-19V216l114 88 13-18c-45-39-82-74-109-105-26-32-44-61-55-85l-58 50c21 18 37 36 46 54v373H55c-10 0-22-4-35-10L0 599h139l29 43Z"/></symbol><symbol id="谒_G" viewBox="0 0 1000 1000" data-size="21"><path transform="matrix(1 0 0 -1 44 951)" d="m395 901 58-43h309l35 38 53-45c4-3 5-6 5-8 0-4-10-15-31-31V665l4-90c0-6-6-13-17-21-11-7-23-11-38-14v41H445v-6c1-6-5-13-17-21-14-8-26-12-37-12l4 123v236m50-295h328v102H445V606m164-164c41-21 63-33 65-37 2-2 1-4-2-8-4-2-10-3-18-3-8-1-23-15-47-43 41-13 73-24 94-34 22-8 39-18 51-31 10-12 14-23 12-35-4-12-11-20-20-22-10-1-19 4-29 18-9 13-20 26-33 39-12 12-41 27-88 47-41-51-87-96-137-137l-14 8c57 66 95 113 116 143 17 26 34 58 50 95M445 733h328v100H445V733m-78-349c39-10 61-16 65-20 4-2 6-4 6-8 0-2-8-7-24-15V171h252l35 43c34-31 52-49 55-53 2-4 3-8 2-10-2-2-9-4-20-4H424l-31-31-57 43 31 22v203m92 92h361l26 37c44-32 66-49 66-53-1-2-2-4-4-6 0-1-11-7-31-19l-10-190c-4-67-8-113-12-140-4-26-15-48-31-66-16-16-41-29-74-39-8 24-21 40-41 49-19 8-49 17-92 29l4 20c51-9 89-16 115-20 26-2 45 3 59 16 14 11 21 52 23 122l12 236H436c-38-39-96-90-174-152l-12 13c64 62 113 114 148 155 34 39 58 72 73 99 42-20 64-32 66-37 2-4 0-8-6-9-6-2-12-4-19-6-8-3-26-16-53-39M104 897c66-37 106-66 121-87 13-20 19-38 19-53-1-15-4-26-10-33-5-8-11-13-17-14-7-3-14-2-22 2-7 3-12 13-15 31s-8 37-16 55c-8 19-31 49-70 88l10 11m64-267 61-47c1-3 3-6 3-10s-4-8-13-13l-22-20V187l117 101 16-16c-49-48-87-88-113-119-25-28-44-59-57-92l-60 53c17 14 33 33 48 57v391H55c-10-1-22-4-35-10L0 587h139l29 43Z"/></symbol><symbol id="谓_G" viewBox="0 0 1000 1000" data-size="21"><path transform="matrix(1 0 0 -1 49 956)" d="m178 632 54-47c6-6 10-10 10-14s-6-11-19-19c-16-7-24-16-24-28V192l141 137 12-14c-81-92-128-149-143-171-14-21-28-48-43-80l-55 54 41 43v404H59c-13-1-26-4-39-9L0 591h145l33 41m170 275 50-39h409l39 43 50-47c4-4 6-6 6-8 0-4-10-15-31-31V655l4-76c0-10-7-18-20-25-11-8-22-12-33-12v33H396v-12c0-9-6-17-19-23-11-6-22-8-33-8l4 114v261m48-308h192v113H396V599m241 0h185v113H637V599M396 735h192v108H396V735m241 108V735h185v108H637M402 517l57-39h297l27 44 65-44c4-2 6-5 6-10 0-4-11-17-34-37V100c1-24-5-43-17-59s-34-29-67-41c-6 23-17 40-35 51-17 10-41 19-72 25l2 18 62-10c31-7 52-7 63-2 10 7 15 17 14 32v114H451V128l4-77c0-8-6-17-19-28-14-9-26-13-38-13l4 116v391m49-266h319v94H451v-94m0 117h319v86H451v-86M102 905c52-34 87-64 107-92 18-27 26-50 23-70-3-17-10-29-19-35-9-5-17-5-25-2s-13 14-14 31c-1 16-7 37-20 65-12 27-33 58-62 94l10 9Z"/></symbol><symbol id="谔_G" viewBox="0 0 1000 1000" data-size="21"><path transform="matrix(1 0 0 -1 39 948)" d="m334 888 53-34h115l27 36 49-34c6-3 9-8 10-13 0-2-10-10-29-24V712l4-68c-1-8-6-16-16-24-11-6-22-11-33-14v36H379v-18c0-8-6-17-18-25-11-8-22-12-31-12l4 109v192m45-223h135v166H379V665m-20-135h399l39 49 57-53c1-2 3-4 3-7 0-8-3-12-11-12H441c-13 0-35-3-66-8l-16 31m-76-117h537l39 49 59-51c2-2 3-6 4-10 0-7-4-11-12-11H516l-36-94h268l27 33 57-43c3-2 6-6 8-12 0-2-3-5-10-9l-25-10c-14-79-26-131-35-156-10-24-24-44-41-60-18-16-46-29-84-39-9 20-19 34-32 43-11 9-43 24-97 45l7 16c45-11 80-19 104-24 23-4 43-3 59 2 13 5 25 16 35 32 9 16 21 69 37 158H479l-30-29-51 49c21 10 36 21 45 35l20 63h-98c-12 0-34-3-66-8l-16 31m362 475 50-34h112l27 36 49-34c6-3 9-8 10-13 0-2-10-10-30-24V714l4-72c0-8-6-16-17-24-12-8-23-12-32-12v36H689v-12c0-8-5-14-17-20s-22-9-31-9l4 121v166m44-223h129v166H689V665M96 896c66-38 106-67 121-88 13-20 19-37 19-53 0-15-4-26-9-33-6-8-12-13-18-14-7-3-14-2-21 2-8 3-13 13-16 31s-8 37-16 55c-8 19-31 49-70 88l10 12m72-276 61-47c1-2 3-6 3-10 0-3-4-8-13-13l-22-20V181l125 117 16-16c-55-59-95-105-119-136-24-30-41-58-51-83l-61 53c18 15 32 31 41 49v387H55c-10-1-22-4-35-10L0 577h139l29 43Z"/></symbol><symbol id="谕_G" viewBox="0 0 1000 1000" data-size="21"><path transform="matrix(1 0 0 -1 30 966)" d="M379 642h223l35 45 56-51c2-2 4-5 4-8 0-8-4-12-11-12H461c-14 0-36-2-66-8l-16 34m230 252c8-6 6-11-4-14-1 2-4 1-9-2 24-42 51-79 80-109 28-32 66-60 113-84 45-24 95-39 150-47v-18c-23 0-41-4-52-12-10-6-20-15-32-27-49 26-91 54-126 84-36 29-66 61-90 94s-46 70-67 111c-45-55-93-109-146-164-52-53-119-107-201-164l-10 14c72 62 135 123 187 183 51 59 97 123 139 194l68-39M293 571l45-37h144l28 35 53-35c5-2 7-6 7-12 0-4-8-11-25-19V90c0-21-5-38-14-51-8-11-27-22-56-33-5 18-16 31-34 39-16 8-34 16-54 21l4 18c23-4 42-7 56-10h37c9 2 14 12 14 30v133H340V132l4-91c0-8-7-16-20-23-11-8-23-12-35-12l4 120v445m47-310h158v113H340V261m0 136h158v112H340V397m299 129 74-27c4 0 6-2 6-6 4-4-7-12-33-23V312l3-81c0-8-5-17-17-27-12-8-25-12-37-14l4 122v214m134 43 71-27c6-3 9-6 8-10 0-2-11-9-32-19V94c1-28-5-48-17-63-14-12-33-23-59-31-3 20-14 35-33 45-18 10-42 19-72 29l6 18c33-8 59-14 78-18 17-2 30-1 39 2 8 5 12 12 11 22v471M100 901c66-37 106-66 121-88 13-19 19-37 19-52s-4-26-10-33c-5-8-11-13-17-14-7-3-14-2-22 2-7 2-12 13-15 31s-8 37-16 55c-8 19-31 49-70 88l10 11m45-254 60-46c2-3 3-6 4-10 0-4-5-9-14-14l-21-19V208l94 90 15-16c-43-47-76-84-97-111-21-28-36-54-45-79l-57 52c18 14 31 30 41 48v387H55c-10-1-22-4-35-10L0 604h115l30 43Z"/></symbol><symbol id="谖_G" viewBox="0 0 1000 1000" data-size="21"><path transform="matrix(1 0 0 -1 38 955)" d="M684 618h95l37 47 57-55c2-2 3-4 4-6 0-7-4-11-12-11H518l-18-100h318l41 51 59-59c2-2 4-4 6-7 0-7-4-10-12-10H494c-8-34-15-65-23-92h244l33 39 57-47c6-4 8-10 6-17 0-4-6-8-18-12-10-4-18-10-25-18-6-8-21-29-43-64-24-35-50-69-79-100 36-23 68-39 98-49 30-7 56-13 78-18 22-3 54-7 98-10V63c-24-2-42-4-55-8s-25-15-35-34c-31 10-59 20-82 30-21 10-42 19-60 29-19 10-43 26-75 50-41-34-90-62-148-83-58-20-122-35-192-47l-3 16c48 10 101 26 158 48 56 23 108 54 156 95-53 56-90 119-109 190h-16c-33-81-73-145-119-192-47-47-97-86-149-118l-7 16c48 34 89 73 123 116 33 43 60 85 82 127 21 41 41 98 58 170H324c-13 0-32-3-54-8l-16 33h197l16 100h-76c-14 0-36-3-67-8l-15 33h345c45 63 80 128 108 197 46-24 70-38 72-43 2-3 1-7-2-11-2-3-8-4-18-4-8 0-22-11-43-33-19-24-48-59-87-106M498 351c23-58 61-114 113-168 30 27 67 83 112 168H498M369 796c47-27 78-52 92-72s18-37 12-53c-7-14-16-21-28-20-11 0-18 6-21 20-2 12-7 27-14 47-7 17-24 40-51 68l10 10m176 6c43-31 70-57 82-76 10-20 13-36 8-49-7-15-16-22-28-22s-19 6-21 20c-2 13-6 29-12 47-6 15-19 40-41 74l12 6m268 43c-13 2-67-1-163-8-95-8-214-14-357-20v20c126 10 233 21 320 33 86 12 156 25 209 39 39-42 58-65 57-68-1-4-3-6-8-6-3 0-10 1-21 4-12 2-24 4-37 6m-708 52c67-37 107-66 122-87 13-20 19-38 19-53-1-15-4-26-10-33-6-8-11-13-17-14-7-3-14-2-22 2-7 3-12 13-15 31s-8 37-16 55c-8 19-31 49-70 88l9 11m53-255 61-47c2-3 3-6 4-10 0-4-5-9-14-14l-21-19V229l121 112 13-16c-66-72-109-123-129-152-18-28-32-55-43-79l-60 48c22 21 38 41 49 58v373H55c-10 0-22-4-35-10L0 599h129l29 43Z"/></symbol><symbol id="谗_G" viewBox="0 0 1000 1000" data-size="21"><path transform="matrix(1 0 0 -1 32 953)" d="M369 698c41 59 80 128 119 209l69-33c4-3 6-6 6-10-3-2-8-4-14-6-7-1-16-6-28-15-11-8-22-22-33-41h182l31 33c37-31 56-47 57-47 6-4 9-8 10-12 2-5-6-10-24-15-17-5-34-14-49-28-13-14-35-40-64-78h137l31 41 53-41c5-1 7-4 7-9 1-2-8-10-27-24V517l4-59c-1-10-8-18-22-23-12-7-22-10-31-10v35H664v-94c0-14 2-25 6-33 2-8 10-12 23-14h137c27 0 43 18 47 53l4 92h17l6-57c2-31 12-53 32-64-15-39-41-61-81-65H680c-41 2-63 21-65 57v125h-25c-7-22-24-49-51-82-27-31-62-59-105-82-43-24-105-48-186-72l-2 17c70 30 123 55 158 76 35 22 65 47 88 75 26 26 41 49 47 68H402v-12c0-8-4-14-11-19-8-7-23-10-43-10l4 82v123c-15-18-36-39-63-62l-10 9c19 26 49 68 90 127m33-211h145c12 35 19 82 23 141H402V487m215 141c0-57-6-104-17-141h183v141H617m-230 27h213l72 119H469c-30-37-59-74-88-111l6-8m121-373c48-10 90-20 125-31 34-11 59-22 74-33 13-12 22-24 25-35 3-12 2-22-3-30-6-7-13-11-22-11-8 0-18 7-27 21-11 13-28 28-51 45-22 18-64 37-125 59l4 15m-39-119c82-16 142-31 181-45 39-12 68-24 86-36 16-12 26-25 30-37s4-23 0-31c-4-6-10-10-18-12-6-2-14 1-23 8-8 4-21 15-37 31-18 14-44 31-79 49-35 15-82 34-142 56l2 17M111 884c73-39 115-69 127-88 12-20 17-37 16-51s-5-24-10-31c-6-8-12-13-17-14-7-2-13-2-20 2-6 3-11 14-14 31-2 17-6 34-13 49-6 16-32 47-76 94l7 8m65-276 58-50c5-3 8-6 8-10 0-5-6-10-15-16l-26-17V149l149 73 7-18c-70-43-117-74-142-94-24-18-45-41-63-69l-52 55 52 42v398l-99-10c-9 0-20-4-33-11L0 550l143 12 33 46Z"/></symbol></svg>