<svg xmlns="http://www.w3.org/2000/svg"><symbol id="轠_G" viewBox="0 0 1000 1000" data-size="21"><path transform="matrix(1 0 0 -1 19 975)" d="m430 896 49-36h332l33 37 52-46c4-2 6-4 6-6 0-4-11-14-33-30V634l4-69c-1-8-6-16-16-25-9-6-21-10-35-12v37H477v-19c0-9-5-17-14-25-10-8-22-12-37-12l4 123v264m47-307h154v111H477V589m199 0h146v111H676V589M477 722h154v115H477V722m199 115V722h146v115H676M367 487l47-37h145l27 37 51-35c4-4 6-6 6-8 0-4-8-13-24-29V146l4-87c0-6-5-13-14-22-7-6-20-10-37-12v53H412V49c1-8-4-15-16-22-10-6-21-9-33-9l4 118v351m45-385h61v155h-61V102m104 0h56v155h-56V102M412 280h61v149h-61V280m104 149V280h56v149h-56m160 58 39-37h164l27 37 51-35c4-4 6-6 6-8 0-4-8-13-24-29V132l4-68c0-9-4-18-11-27-9-8-22-13-39-16v51H721V51c0-9-4-18-12-26-8-7-21-11-37-11l4 112v361m45-391h66v165h-66V96m109 0h63v165h-63V96M721 284h66v145h-66V284m109 145V284h63v145h-63M45 720l49-41h68v97H70c-21-2-35-5-43-11L0 802h162v148l76-29c4-1 5-5 4-10 0-2-2-4-6-6l-25-13v-90h84l29 41 53-51c4-8 1-14-8-16H211v-97h57l25 31 55-39c4-4 6-7 6-8 0-4-9-12-26-23V437l4-51c0-10-5-18-14-24-9-5-22-8-37-9v31h-70V267h70l22 37 43-43c8-11 8-18 0-22H211V92l4-45c-1-9-8-20-22-31-13-10-24-15-33-16l4 88v151H68c-17-2-32-6-43-10L2 267h160v117H92v-12c-1-8-6-14-16-18s-21-7-35-9l4 82v293m47-311h70v110H92V409m119 110V409h70v110h-70M92 544h70v109H92V544m119 109V544h70v109h-70Z"/></symbol><symbol id="轠_H" viewBox="0 0 1000 1000" data-size="21"><path transform="matrix(1 0 0 -1 34 959)" d="M0 793c28-7 65-10 111-10h32v57c0 35-2 61-4 78 37-3 68-10 92-20 10-4 15-9 15-15s-5-10-15-11c-11-6-25-9-42-11v-78h69l39 43c21-16 40-31 57-45 5-3 7-6 7-10 0-11-4-17-11-17H189v-96h61l25 31c36-20 53-35 53-43 0-7-9-16-27-27V336c0-11-11-18-33-22-10 0-14 3-14 8v26h-65V236h43l39 43c21-16 42-31 61-45 5-3 8-7 8-11 0-11-4-16-12-16H189V90c0-14 1-24 2-29 2-12 2-21 2-28 0-22-9-33-29-33-17 0-25 5-25 16 0 15 0 33 2 54 1 23 2 43 2 59v78h-32c-45 0-76-1-93-2L0 248c28-8 65-12 111-12h32v112H78v-18c0-6-4-11-14-15-8-4-15-6-21-6-9 0-14 4-14 13v367l61-31h53v96h-32c-45-1-76-2-93-4L0 793m78-418h65v119H78V375m111 119V375h65v119h-65M78 521h65v108H78V521m111 108V521h65v108h-65m229 271 57-31h296l30 31c32-20 49-35 49-43 0-7-9-17-26-27V498c0-12-10-21-31-25-12 0-18 3-18 9v30H465v-18c0-6-4-11-12-15-11-4-19-6-25-6-7 0-10 4-10 13v414m47-359h131v131H465V541m178 0h132v131H643V541M465 701h131v139H465V701m178 139V701h132v139H643M350 455l60-33h133l25 33c36-21 53-36 53-43s-9-17-27-29V43c0-11-11-18-33-22-10 0-14 3-14 8v35H396V37c0-6-3-11-11-15-9-4-17-6-24-6s-11 4-11 13v426m46-365h57v142h-57V90m104 0h47v142h-47V90M396 258h57v138h-57V258m104 138V258h47v138h-47m146 59 61-33h147l29 33c32-21 49-36 49-43s-9-17-28-29V41c0-12-9-21-29-25-12 0-18 3-18 9v39H693V37c0-6-4-11-11-15-9-4-16-6-22-6-9 0-14 4-14 13v426m47-365h65v142h-65V90m110 0h54v142h-54V90M693 258h65v138h-65V258m110 138V258h54v138h-54Z"/></symbol><symbol id="轠_T" viewBox="0 0 1000 1000" data-size="21"><path transform="matrix(1 0 0 -1 30 959)" d="M704 406h154l31 34 35-25c11-8 17-16 17-23 0-9-11-18-33-27V31c0-11-9-17-27-17-12 0-18 4-18 12v30H696V33c0-12-8-18-24-18-14 0-21 6-21 18v332c0 13-2 36-6 69l59-28m-8-28V250h59v128h-59m0-157V85h59v136h-59M863 85v136h-64V85h64m0 165v128h-64V250h64M272 355h-73V234h44l47 46 53-49c6-5 9-9 9-13 0-8-5-12-14-12H199v-52c0-31 2-67 6-107 1-11 2-19 2-25 0-15-9-22-27-22s-28 7-28 21v185h-40c-38 0-69-2-93-4L0 245c31-8 69-11 112-11h40v121H82v-18c0-12-8-18-24-18-21 0-30 9-29 28l2 29 2 39 2 37v154l-2 37c-2 22-3 38-5 50l60-44h64v106h-40c-35 0-66-1-93-4L0 794c31-7 68-11 112-11h40v58c0 37-1 62-4 77l54-11c28-6 42-13 42-22 0-8-9-15-25-21l-20-6v-75h55l47 47 53-50c6-5 9-9 9-12 0-9-5-13-13-13H199V649h64l33 37 40-26c14-9 20-17 20-24 0-9-12-18-38-30V456c0-18 2-54 6-109v-6c0-15-11-23-34-23-12 0-18 4-18 13v24m0 29v106h-73V384h73m0 136v101h-73V520h73M152 384v106H82V384h70m0 136v101H82V520h70m253-114h142l31 34 35-25c11-8 16-16 16-23 0-9-11-18-33-27V31c0-11-9-17-26-17-13 0-19 4-19 12v30H397V33c0-12-8-18-23-18s-22 6-22 18v332c0 13-2 36-6 69l59-28m-8-28V250h54v128h-54m0-157V85h54v136h-54M551 85v136h-56V85h56m0 165v128h-56V250h56m-67 266v-17c0-13-8-19-24-19-20 0-30 10-28 28l2 30 2 38 2 37v210c0 28-3 57-8 87l60-44h278l32 37 41-27c13-8 20-16 20-23 0-9-13-19-38-30V619c0-18 2-54 6-109v-7c0-15-11-22-34-22-12 0-18 4-18 13v22H484m0 191h124v131H484V707m0-29V545h124v133H484m293-133v133H654V545h123m0 162v131H654V707h123Z"/></symbol><symbol id="轠_K" viewBox="0 0 1000 1000" data-size="21"><path transform="matrix(1 0 0 -1 55 938)" d="M817 785V512l-6-10-47-15-8 8 1 49H459v-36l-12-11-38-7-10 5v370l57-36h296l23 28h17l51-44v-13l-26-15m50-409 1-319-8-14-45-12-10 7v42l-148 1V46l-8-13-40-13-15 5v443l57-37h151l20 26 13 1 55-50v-16l-23-16m-306 0V50l-8-12-44-13-9 7v49H358l-1-35-9-11-44-13-10 7v436l59-34h143l28 27h10l50-55v-13l-23-14M190 709v-94h28l29 25 13 1 49-34-1-17-24-25V300l-8-12-42-9-11 5 1 28h-34V198h15l33 39h11l41-40v-21H190l-1-153-6-12-42-11-11 3v173H0v22h130v114H94v-32l-8-9-47-12-8 7v381l61-32h38v94H6v22h124v144l95-18 1-17-36-22v-87h26l38 42h9l60-46v-19l-133 1m452-5h115v103H642V704m0-138h115v116H642V566M459 704h119v103H459V704m0-138h119v116H459V566m303-299h43v142h-43V267m-104 0h41v142h-41V267m104-164h43v142h-43V103m-104 0h41v142h-41V103M461 267h38v142h-38V267M190 486h34v107h-34V486m168-219h41v142h-41V267m103-164h38v142h-38V103M94 486h36v107H94V486m96-152h34v130h-34V334m168-231h41v142h-41V103M94 334h36v130H94V334Z"/></symbol><symbol id="轡_G" viewBox="0 0 1000 1000" data-size="21"><path transform="matrix(1 0 0 -1 37 972)" d="m309 762 48-31h88v70h-95c-23-2-36-6-39-12l-24 37h158v120l73-32c3 0 5-3 3-7 0-3-1-6-5-8l-26-12v-61h92l27 36 47-45c4-9 2-15-8-16H490v-70h76l26 27 51-33c2-4 3-7 3-8 0-4-6-11-19-19V567l4-51c-1-8-6-16-16-23-8-8-19-12-33-12v27h-92v-74h86l26 29 39-37c9-8 9-14 0-17H490v-20l4-51c-1-12-8-22-21-31-13-8-23-12-32-12l4 88v26h-80c-16-3-29-6-39-10l-23 35h142v74h-91v-12s-5-2-16-7c-9-6-20-10-33-12l4 41v244m45-228h91v72h-91v-72m136 72v-72h92v72h-92m-136 27h91v72h-91v-72m136 72v-72h92v72h-92M232 272h473l25 31 53-33c8-2 12-6 12-12 0-4-10-15-31-31V113l4-65c0-10-5-19-14-27-10-7-24-12-41-14v53H225V38c0-9-7-18-20-27-14-8-25-11-35-10l4 86v224l58-39m-7-187h488v161H225V85M0 729l47 12c49 73 84 140 105 201l61-30c6-6 5-11-2-13-12-2-23-8-31-18-9-10-48-62-119-158l115 2c17 31 34 62 51 94l54-39c6-8 4-12-8-12-15-2-35-20-60-55-25-34-63-81-113-142l136 7c-7 28-19 53-35 73l10 9c27-25 47-45 59-60 11-14 17-27 19-39 1-12-1-22-6-29-4-6-12-9-21-8-9 0-14 4-16 11-1 6-3 15-4 28-56-9-94-16-111-22-16-4-39-12-67-25l-29 59c14 0 31 5 49 13 27 33 54 72 80 117-25-2-49-4-70-7-20-5-39-12-59-22L0 729m70-244h20c4-45 4-79 0-104s-12-41-24-51c-11-8-23-11-35-9-10 1-17 7-19 19-3 10 2 19 13 28 13 7 24 18 32 33 7 12 11 40 13 84m59 8 14 7c28-35 46-64 54-86 8-21 9-37 4-48-3-11-8-18-15-22-7-3-14-1-22 4-6 4-9 13-8 27 2 15 2 29 0 43-1 15-10 40-27 75m82 7 10 6c34-27 56-51 66-72 11-20 15-35 14-47-1-10-5-18-14-23-8-5-16-6-23-2-8 4-13 13-14 29 0 16-3 31-8 47-4 13-14 34-31 62m435 239 30 9c29 63 54 125 76 186l61-29c5-7 5-11-2-14-9-2-17-7-26-14-8-8-40-56-96-146h108c14 23 29 51 45 82l54-39c6-8 4-12-7-12-16-2-37-21-65-59-28-37-68-86-121-148l151 8c-17 27-34 51-51 70l10 10c29-22 52-41 70-59 17-15 27-30 29-45 3-14 2-25-4-33-6-6-13-10-21-10-7 2-12 6-16 12-2 6-6 19-12 39-62-9-103-16-123-21-19-5-37-12-56-22l-32 53c13-1 26 5 40 16 29 33 61 79 97 138-25-2-45-4-58-6-14-2-30-7-49-17l-32 51m28-262h19c3-45 2-79-4-102-3-23-11-39-23-49-12-8-23-11-35-9-11 1-17 8-20 19-2 10 2 19 14 28 13 8 24 18 33 31 8 12 13 39 16 82m70 4 14 8c23-38 39-67 47-88 6-22 7-38 2-49-4-11-9-18-16-22-6-2-14-1-21 4-7 4-10 13-8 28 2 14 2 28 0 43 0 15-6 41-18 76m74 8 10 5c43-29 70-54 82-76 12-21 17-37 16-49 0-11-4-20-12-25-8-6-16-8-23-4-8 3-13 14-14 31-2 16-6 32-12 47-6 16-21 39-47 71Z"/></symbol><symbol id="轡_H" viewBox="0 0 1000 1000" data-size="21"><path transform="matrix(1 0 0 -1 36 961)" d="M108 918c51-22 76-37 76-47 0-7-14-11-41-12-14-22-31-46-52-72-16-22-33-43-53-62 13 0 28 2 45 4 23 1 48 5 75 11 3 5 5 8 7 11 16 28 28 55 37 81 50-21 75-37 75-47 0-7-13-11-41-12-24-32-56-67-95-105-32-35-67-68-106-100 19 2 42 4 70 8 35 3 73 11 116 24-3 7-6 13-8 19-5 11-12 23-22 36l17 13c11-10 21-21 29-31 9-10 17-19 23-29 6-9 10-17 12-24s3-13 3-20c0-12-1-22-4-29-6-8-13-12-21-12-3 0-5 2-7 4s-4 8-6 19-4 21-8 31c-49-22-105-40-166-54-11-24-18-36-22-36s-7 3-10 8c-8 21-16 45-23 71h2c39 39 70 73 94 102 11 12 20 24 29 36-22-8-46-15-71-20-10-23-17-34-20-34s-6 3-9 8c-8 18-15 40-21 65h3c19 28 34 52 45 73 12 21 22 42 30 61 8 21 14 41 18 61M17 457c12-12 23-23 32-35 10-11 19-21 25-31 7-11 12-20 14-28 2-7 4-14 4-21 0-13-2-22-5-29-6-8-13-12-21-12-3 0-5 1-7 5-3 2-5 8-6 19-3 15-7 29-12 42s-11 26-17 38c-5 12-14 25-24 39l17 13m93 20c13-10 25-20 36-31 12-9 21-18 28-27 8-9 13-16 15-23 3-6 4-13 4-19 0-12-1-22-5-29-5-8-12-12-20-12-3 0-6 1-9 4-2 2-5 8-7 18-2 13-6 25-12 37s-12 23-19 34c-6 10-16 22-27 35l16 13m93 27c11-9 21-18 30-27 10-9 18-17 24-26 6-8 11-15 14-21 1-6 2-11 2-17 0-12-1-20-4-26-6-8-12-12-19-12-3 0-6 1-7 4-2 2-4 7-6 17-2 11-6 22-11 33s-10 21-16 31c-5 10-13 20-22 32l15 12m78 342c29-8 67-12 115-12h40v17c0 31-2 55-6 71 30-5 55-11 75-20 7-4 11-8 11-13 0-7-4-11-10-13-8-7-17-10-27-11v-31h87l35 35c18-14 36-27 53-40 4-3 6-5 6-9 0-9-4-13-12-13H479v-67h76l34 32c33-23 50-39 50-48 0-7-10-15-30-25V544c0-15 1-25 1-29 1-6 1-11 1-16 0-14-11-22-33-26-10 0-15 3-15 9v20h-84v-82h64l34 35c19-14 37-27 54-40 4-3 6-5 6-9 0-9-4-13-12-13H479v-60c0-14-8-20-26-20-14 0-21 8-21 24 0 7 1 17 3 28 0 11 1 20 1 28h-40c-47-2-78-4-95-7l-20 46c29-8 67-12 115-12h40v82h-84v-8c0-6-4-12-12-15-10-4-18-6-25-6-8 0-12 4-12 13 0 3 0 7 1 14 0 15 1 29 1 41v162c0 32-1 54-2 67l61-30h72v67h-40c-47-2-78-4-95-7l-20 46m71-317h84v82h-84v-82m127 82v-82h84v82h-84m-127 28h84v74h-84v-74m127 74v-74h84v74h-84m266 205c50-22 75-37 75-47 0-7-13-11-41-12-13-22-29-45-50-70-15-21-32-42-51-61 12 1 27 2 44 3 23 2 49 5 76 11l6 9c17 28 30 55 39 81 50-21 75-37 75-47 0-7-14-11-41-12-25-32-58-67-98-105-32-35-69-68-109-101 19 2 44 5 75 9 36 2 75 10 117 23-3 7-6 14-9 20-6 11-14 23-25 36l17 13c12-10 23-21 32-31 10-10 19-19 25-29 8-9 12-17 14-24 3-7 4-13 4-20 0-12-2-22-5-29-6-8-13-12-20-12-4 0-6 2-8 4-3 2-5 8-6 19-2 10-5 21-9 31-51-22-108-40-173-54-10-24-17-36-21-36s-7 3-10 8c-8 21-16 45-23 71 40 39 72 73 96 102 12 14 23 27 32 39-22-8-45-14-71-19-10-23-16-34-19-34-4 0-7 3-9 8-8 18-15 40-22 65h3c19 27 33 51 43 72 12 21 22 41 30 59 7 21 13 41 17 60m-92-457c13-11 23-23 33-34s18-21 25-31c7-9 12-18 14-26 2-6 4-13 4-20 0-13-2-23-5-30-6-7-13-11-21-11-3 0-6 1-8 4-2 2-4 9-6 20-2 14-6 27-11 40s-11 25-17 37-14 25-24 38l16 13m98 19c12-10 24-20 34-31 11-10 20-19 27-28s12-17 14-25c3-6 4-13 4-19 0-12-2-22-5-29-6-8-12-12-20-12-4 0-6 1-8 4-3 2-5 8-7 18-3 13-7 26-13 38-5 13-11 25-17 36s-15 23-26 36l17 12m86 24c14-10 27-20 39-29 12-10 22-18 30-27 9-8 15-16 18-22 2-6 4-12 4-18 0-12-2-22-5-29-6-8-13-12-21-12-4 0-7 1-9 4-3 2-6 8-8 18-3 12-7 24-14 36-6 11-13 22-20 32-8 10-18 22-31 34l17 13M162 301l45-22h488l34 33c34-24 50-40 50-49 0-7-9-15-29-25V85l12-9c2-2 4-4 4-6 0-9-3-13-8-13H211V21c0-6-4-11-12-15-10-4-18-6-24-6-9 0-13 5-13 14 0 2 0 7 1 13 1 15 1 29 1 41v166c0 32-1 54-2 67m49-217h492v168H215l-4-8V84Z"/></symbol><symbol id="轡_T" viewBox="0 0 1000 1000" data-size="21"><path transform="matrix(1 0 0 -1 31 961)" d="M137 702c-12-3-36-10-71-18l-11-3-5-17c-2-9-6-13-11-13s-10 5-14 16L0 725c29 11 68 72 115 185l61-29c13-6 19-12 19-18 0-7-6-11-17-12l-29-3c-28-38-66-79-116-123 26 1 68 5 127 11 12 19 30 51 53 95l62-33c10-5 15-11 15-17 0-7-7-10-20-10h-26c-13-16-31-37-55-64-48-55-93-100-134-136 72 4 134 12 187 25-9 16-23 34-42 55l10 11c29-19 49-34 61-45 20-19 30-39 30-59s-8-30-22-30c-8 0-15 4-19 13-2 2-3 8-5 17-1 5-3 11-5 16-46-19-107-36-180-52l-3-6c-5-13-10-20-14-20-5-1-12 6-20 22L8 566c37 23 80 68 129 136m473-3V502c0-11-8-17-26-17-12 0-19 4-19 13v9h-80v-82h62l41 41 52-44c6-4 8-8 8-12 0-9-4-13-13-13H485v-17c1-23 2-35 2-36 1-6 1-9 1-11 0-12-9-18-28-18-12 0-19 4-19 12v70h-38c-37 0-69-1-93-4l-19 43c31-7 69-11 112-11h38v82h-80v-5c0-12-7-18-23-18-14 0-22 6-22 18v197c0 13-2 36-6 69l59-28h72v67h-51c-38 0-70-2-94-4l-18 43c31-8 69-12 112-12h51v10c0 36-1 62-4 78l48-11c25-7 37-14 37-22 0-7-6-13-20-18l-17-6v-31h62l41 41 52-43c5-5 8-9 8-13 0-8-4-12-13-12H485v-67h76l31 34 35-25c11-8 17-16 17-23 0-9-12-18-34-27M361 537h80v74h-80v-74m0 103h80v72h-80v-72m124 72v-72h80v72h-80m80-101h-80v-74h80v74m82 105c12 6 30 28 53 68 20 34 37 74 51 120l61-28c13-6 19-12 19-18 0-8-6-12-17-13l-29-3c-26-39-60-80-101-120 18 1 37 2 58 4 18 1 31 2 37 3 12 1 21 1 28 2 25 38 43 68 52 93l63-38c10-6 16-11 16-16 0-7-7-11-21-11h-26c-58-68-126-133-203-195 71 4 135 12 190 26-9 16-23 35-42 56l11 11c29-20 49-35 60-46 20-19 30-38 30-59 0-20-7-30-22-30-8 0-14 5-19 13-1 3-3 8-5 17-1 5-3 11-4 17-49-20-110-37-181-52-1-3-2-5-2-6-6-14-10-21-14-21-5-1-12 7-20 22l-26 49c27 7 74 53 139 138-12-4-41-11-88-23l-5-12c-3-8-6-13-9-13-6 0-10 5-13 13l-21 52M215 57V14c0-9-7-14-21-14-20 0-30 8-30 25l4 79v135c0 2-1 29-4 82l55-41h480l33 38 41-26c13-8 19-17 19-24 0-6-1-10-5-13-1-1-12-7-32-19V98l25-16c7-5 11-10 11-16s-3-9-9-9H215m0 27h494v168H215V84m632 409c6-5 19-14 39-28 32-24 49-48 49-70 0-19-8-28-22-28-10 0-18 11-25 34-6 22-24 49-53 79l12 13m-199-33c65-42 97-78 97-108 0-19-7-28-21-28-12 0-21 12-29 37-9 30-29 59-60 87l13 12M13 449c65-43 98-79 98-110 0-18-7-27-22-27-11 0-20 12-28 37-9 31-29 60-60 87l12 13m192 53c6-4 10-8 14-10 49-36 73-65 73-89 0-18-7-28-21-28-11 0-19 12-26 34-6 23-24 49-53 80l13 13m543-31c58-38 87-71 87-100 0-20-8-30-22-30-7 0-13 3-18 10-1 1-4 12-11 34-6 21-22 46-47 75l11 11m-631-1c59-35 89-68 89-99 0-9-3-17-8-23s-11-9-17-9-11 3-16 10c-1 1-5 12-12 34-6 21-21 46-46 75l10 12Z"/></symbol><symbol id="轡_J" viewBox="0 0 1000 1000" data-size="21"><path transform="matrix(1 0 0 -1 48 952)" d="M0 283c21 47 35 93 42 137 3 20 7 48 10 83l58-21c5-1 8-4 8-9 0-3-4-6-11-9l-9-4c-23-83-52-146-86-187L0 283m4 302h85c43 57 91 128 145 212l38-24c13-8 19-14 19-19 0-7-4-10-13-10h-11L124 585h110c-8 19-19 36-32 51l7 14c11-5 23-13 36-23 15-13 28-25 37-36s14-23 14-38c0-11-3-19-10-25-4-4-9-6-14-6-6 0-11 3-15 8-4 6-9 19-15 40l-56-9V314l-56-11v248l-81-13-2-8c-3-11-7-17-14-17s-13 8-17 23L4 585m178 261-76-104c9-15 14-29 14-41 0-14-4-24-13-31-5-4-11-6-16-6-4 0-8 2-11 6s-11 20-23 49c-15 29-33 51-55 66l8 13c27-8 53-21 79-38 23 47 44 93 61 139l48-27c10-5 15-10 15-14 0-3-1-5-4-8s-7-4-11-4h-16M154 0v297l88-27h434l19 30 56-34c10-6 15-12 15-17 0-4-3-8-9-12l-11-8V24l-61-6v39H215V7l-61-7m61 85h470v157H215V85m1 420c13-9 24-19 32-28 37-37 55-72 55-103 0-11-4-19-13-25-6-4-12-6-17-6-3 0-7 1-10 3-5 3-7 6-8 9l-21 80c-3 12-12 32-27 60l9 10m75-52h132v63h-66v-27l-48-6v263l46-24h68v56H309l-14 28h128v98l61-4c15-1 23-5 23-12 0-5-5-10-15-14l-18-7v-61h68l35 41 50-49v-20H474v-56h62l14 24 53-37c7-5 11-10 11-14 0-5-4-9-11-11l-14-2V508l-47-8v16h-68v-63h62l33 38 51-43v-23H474V305l-51-8v128H304l-13 28m66 91h66v60h-66v-60m0 151v-63h66v63h-66m117-91v-60h68v60h-68m0 91v-63h68v63h-68m114-395c25 55 43 121 54 199l49-19c9-4 14-8 14-11 0-6-3-10-8-12l-12-4c-22-63-50-117-84-161l-13 8m15 282h81c58 76 102 146 133 211l50-30c9-6 14-11 14-16s-6-9-17-11l-12-2-136-152 118 3c-7 15-19 34-36 59l10 10c26-17 44-29 54-38 25-23 38-45 38-68 0-11-4-20-11-27-5-5-11-7-18-7-9 0-14 3-17 8 0 1-3 12-8 33-1 3-2 6-3 11l-69-12V306l-54-11v250l-64-11-5-8c-3-5-6-8-9-8s-7 4-12 12l-27 52m185 261-94-111c13-15 19-30 19-43 0-21-9-31-27-31-6 0-11 2-16 5s-10 16-17 37c-7 22-21 42-41 59l8 10c21-5 39-12 56-21 22 35 48 86 77 153l52-29c8-4 12-9 12-14 0-7-3-11-10-12l-19-3m19-342c25-15 44-31 58-48 26-31 39-59 39-86 0-10-3-19-10-26-6-7-14-10-23-10-10 0-17 4-22 11-5 6-7 13-8 20l-6 50c-1 15-14 41-37 76l9 13Z"/></symbol><symbol id="轡_K" viewBox="0 0 1000 1000" data-size="21"><path transform="matrix(1 0 0 -1 53 942)" d="m179 282 63-22h432l23 28h15l49-44v-14l-20-16V27l-5-14-44-13-12 5v40H241V24l-7-10-48-14-7 5v277m62-43V67h439v172H241m343 408-1-166-3-9-49-12-9 8v17h-50v-85h66l28 30h13l31-37v-14H472v-67l-5-10-46-10-10 5v82H289v21h122v85h-45c0-11-1-20-4-26l-51-11-6 7v252l56-21h50v79H280v22h131v96l87-17v-12l-26-15v-52h67l31 34h11l42-41v-15H472v-79h42l30 28h15l46-36v-12l-21-19m-173-68h-45v-73h45v73m0 86h-45v-65h45v65m61-65h50v65h-50v-65m0-94h50v73h-50v-73m243 374 68-34-4-12-21-2-84-83c34-8 51-25 51-51 0-7-2-13-6-18s-9-8-14-8c-6 0-16 11-29 32-11 17-29 33-54 49l5 10 26-5 62 122m-69-381 65-20v-13l-17-6c-14-38-27-67-40-88-13-20-32-43-57-69l-11 7c27 53 47 116 60 189m136 1 10 8c36-28 61-51 74-70 14-19 21-39 21-60 0-12-3-22-8-31s-11-13-18-13c-12 0-20 12-25 37-10 45-28 88-54 129m-185 88h62l158 221 67-49-8-13-26 1-168-162 145 12c-6 11-17 24-32 41l8 9c32-19 55-36 69-50 14-13 21-29 21-46s-7-25-21-25c-9 0-17 10-24 31-3 9-5 16-8 21l-65-19V315l-5-12-45-11-8 5v251l-74-14-8-20-12-2-26 76M110 872l68-34-4-12-21-2-88-86c35-9 52-25 52-49 0-7-2-13-6-19s-9-9-14-9c-7 0-16 10-29 31-11 17-29 33-55 49l5 11 27-5 65 125M0 578h58l154 220 68-45-8-10-20-2L81 576l150 14c-7 11-18 25-32 41l7 8c33-19 57-36 70-50 13-13 20-29 20-46s-6-25-17-25c-12 0-21 11-27 32l-9 21-70-21V298l-3-8-49-12-7 9v250l-73-13-8-20-12-2-21 76m39-82 68-17v-11l-16-9c-19-68-44-123-73-164l-12 5c13 39 23 94 30 163l3 33m139-5 10 9c35-32 58-57 71-76 13-18 19-37 19-57 0-11-2-22-7-31s-10-14-16-14c-12 0-21 13-27 39-7 34-24 77-50 130Z"/></symbol><symbol id="轢_G" viewBox="0 0 1000 1000" data-size="21"><path transform="matrix(1 0 0 -1 30 969)" d="m709 671 12 8c20 43 36 82 49 117s25 72 37 111l62-27c5-5 6-9 2-14-10-2-17-6-23-10s-17-21-32-50c-15-28-41-75-76-139h74c12 23 24 51 36 86l60-25c4-4 4-8 0-12-14-2-22-6-25-12s-13-24-31-55c-19-31-51-84-98-158l103 8c-6 26-17 50-33 72l10 8c30-24 50-46 60-66s15-35 16-47c-1-12-3-22-8-29-4-7-11-10-19-10-8-2-14 0-18 6-4 5-6 11-6 17v31c-37-5-62-11-76-17-14-5-28-13-43-26l-31 49 21 12c26 44 51 94 77 148-24-2-40-5-49-9-10-2-22-7-35-14l-16 47M553 800l41-31h4c6 39 11 91 17 158l65-26c6-4 6-8 0-13-9-2-15-6-20-12-3-4-8-18-15-41-8-22-15-44-22-66h29l24 31 45-35c8-4 7-10-2-18l-18-10V522l4-70c-1-8-5-14-14-17-7-5-19-8-35-10v25h-60c0-8-5-15-16-21-10-6-20-9-31-8l4 84v295m43-324h60v125h-60V476m0 150h60v119h-60V626M59 694l48-33h63v106H72c-22-2-35-6-39-12L6 792h164v146l76-29c4-1 5-4 4-10 0-2-2-3-6-5l-25-14v-88h74l29 41 53-51c4-8 1-13-8-15H219V661h60l22 27 47-39c4-3 6-6 6-7 0-5-9-12-26-22V423l4-63c0-6-5-13-14-19-9-5-22-9-37-10v45h-62V253h74l29 37 47-43c9-10 9-18 0-21H219V98l4-45c-1-11-8-21-22-32-13-9-24-14-33-15l4 88v132H64c-17 0-31-3-41-8L0 253h170v123h-65v-14c0-8-5-13-15-17-10-5-22-8-35-10l4 84v275m46-293h65v104h-65V401m114 104V401h62v104h-62m-114 25h65v106h-65V530m114 106V530h62v106h-62m140 35 26 10c15 31 29 66 43 105 13 39 25 78 35 119l60-33c4-3 4-6 0-10-7-3-15-8-23-15-7-7-16-24-27-51-12-25-34-67-65-127l67 4c9 19 17 42 25 68l47-29c4-4 4-8 0-12-10-4-18-12-26-25-7-14-19-33-35-59-13-26-43-72-88-138l92 11c-4 20-13 41-27 65l10 8c26-26 44-46 54-61 10-14 14-25 12-35-1-10-3-18-8-24-4-4-10-7-17-9s-13 0-16 5c-5 6-6 10-4 14 0 3-1 9-2 20-35-9-58-15-70-20-11-4-24-12-39-23l-35 49 29 13c16 17 46 71 90 162-23-6-38-11-45-13-7-3-17-8-31-16l-32 47m0-346h243v108l68-28c2-2 3-4 4-8 0-3-9-8-26-15v-57h157l31 43 57-51c5-5 5-11 0-17H670c11-26 29-53 55-82 25-30 56-53 91-71 36-18 77-29 123-34V96c-28 0-47-4-56-10-10-4-20-13-29-27-30 18-60 39-90 63-30 25-54 53-73 84-19 29-33 61-43 94V105l4-72c-2-10-7-17-17-23s-22-9-37-10l4 104v174c-49-58-99-106-149-142-49-36-103-67-164-93l-8 16c55 33 105 68 151 104 43 37 85 82 127 137H434c-13 0-32-3-57-8l-18 33Z"/></symbol><symbol id="轢_H" viewBox="0 0 1000 1000" data-size="21"><path transform="matrix(1 0 0 -1 35 959)" d="M0 799c29-8 67-12 114-12h34v53c0 35-2 61-5 78 38-5 70-12 94-22 9-3 13-8 13-14 0-7-4-11-13-13-12-6-26-10-42-12v-70h51l39 42c21-16 41-31 60-46 4-3 7-6 7-10 0-9-5-13-14-13H195V658h55l34 32c33-23 50-39 50-48 0-7-10-15-29-25V384c0-15 0-25 1-30 0-5 1-10 1-15 0-14-11-23-34-26-10 0-15 3-15 9v28h-63V236h67l39 42c21-15 40-31 59-46 5-3 7-6 7-9 0-9-4-14-13-14H195V92c0-15 1-25 1-30V33c0-22-9-33-29-33-17 0-25 6-25 18 0 13 1 30 3 52s3 42 3 59v80h-34c-46-1-78-4-94-7L0 248c29-8 67-12 114-12h34v114H82v-20c0-6-4-12-12-16-9-3-18-5-24-5-9 0-13 4-13 13 0 3 1 7 1 14 1 15 1 29 1 41v244c0 32 0 54-2 67l62-30h53v102h-34c-46-2-78-4-94-7L0 799m82-422h66v117H82V377m113 117V377h63v117h-63M82 521h66v110H82V521m113 110V521h63v110h-63m424 283c55-12 83-23 83-33 0-9-15-15-46-17-8-21-19-41-32-61h43l27 24c28-19 42-32 42-40 0-5-8-12-24-21V481c0-13 0-21 1-25s1-8 1-13c0-11-10-18-28-21-9 0-13 3-13 9v32h-73v-23c0-5-4-10-10-13-9-3-15-5-21-5-7 0-10 4-10 12 0 2 0 5 1 11 0 13 1 24 1 34v291c0 26-1 45-2 55l43-18c5 15 9 30 11 45 3 16 5 37 6 62m-19-424h73v137h-73V490m0 164h73v121h-73V654M421 871c50-21 75-37 75-47 0-7-14-11-41-11-11-26-25-53-43-83-14-26-30-51-47-76 9 1 18 2 30 4 15 1 32 4 49 10 9 25 15 48 20 70 50-21 75-37 75-47 0-7-14-11-41-11-16-32-36-66-61-103-21-33-43-65-68-97 12 2 22 4 31 5 15 3 32 7 49 11l44 11c-2 6-4 12-6 17-4 11-8 22-14 34l16 12c8-9 15-18 21-28 6-8 12-17 16-24 4-9 7-16 9-22 1-6 2-12 2-17 0-13-2-23-5-30-6-8-12-11-20-11-2 0-4 1-5 3s-2 8-3 17l-6 28c-10-6-19-11-26-15-13-7-25-13-36-18s-22-9-34-13c-6-20-10-30-14-30-5 0-18 23-40 69 23 37 42 70 56 99 9 18 18 35 25 51-12-7-24-12-35-16-10-22-17-33-20-33s-6 3-9 8c-8 18-15 40-21 64h2c15 32 27 60 36 84 10 24 18 47 24 69 7 22 12 45 15 66m377-8c50-21 75-37 75-47 0-7-14-11-41-11-10-22-24-46-41-72-13-22-27-43-43-64 9 1 20 2 33 3 18 1 36 4 55 8 8 22 14 43 18 62 51-21 76-37 76-47 0-7-14-11-41-11-17-32-39-66-66-102-20-32-43-63-69-94l29 4c15 1 32 4 50 7l42 9c-2 6-4 12-7 17-5 11-12 24-20 38l15 11c11-11 20-22 28-33 9-10 16-20 22-30s10-19 12-27c2-6 3-13 3-20 0-12-2-21-5-26-5-8-12-12-19-12-2 0-5 1-7 4-1 2-3 9-4 19-3 14-6 27-9 38-11-6-20-10-29-13l-37-15c-11-4-22-8-35-11-6-20-11-30-14-30-5 0-18 23-40 68h2c25 37 45 70 60 97 12 22 22 43 30 62-14-7-29-12-45-16-9-22-16-33-19-33s-6 2-9 8c-8 18-15 39-21 64h2c14 29 25 53 33 74 9 22 16 42 22 62s11 40 14 59M328 350c29-8 67-12 114-12h156v10c0 34-2 60-6 78 33-5 60-13 82-23 8-4 12-8 12-14 0-7-4-11-10-13-9-7-20-11-31-12v-26h156l46 52 70-54c6-4 9-8 9-12 0-9-5-13-16-13H663c15-25 31-46 47-64 19-21 40-42 64-62 25-20 50-36 74-49 23-13 45-22 66-28l-3-16c-32 0-53-10-63-29-22 11-43 25-61 41-20 18-37 37-52 57-17 18-33 39-48 61-14 19-28 42-42 69V99c0-18 0-30 1-36V29c0-14-9-21-29-21-15 0-23 9-23 26 0 8 1 18 3 31 0 13 1 24 1 34v188c-11-17-22-32-33-46-20-26-43-50-68-71-21-20-46-39-74-60-27-18-61-38-102-59l-12 17c37 23 70 45 96 67 26 19 50 41 71 65 20 20 37 42 51 65 11 16 21 31 28 46H442c-46-2-77-4-94-7l-20 46Z"/></symbol><symbol id="轢_T" viewBox="0 0 1000 1000" data-size="21"><path transform="matrix(1 0 0 -1 30 965)" d="m534 842 51-29c12 38 19 76 20 116l55-14c14-4 21-10 21-17 0-8-7-13-21-14l-18-2c-9-22-21-45-37-69h51l30 36 35-24c14-10 21-18 21-25 0-5-11-13-32-25V455c0-16-9-24-28-24-11 0-16 4-16 11v29h-87v-19c0-14-10-21-29-21-10 0-16 6-16 17v394m45-181h87v125h-87V661m0-162h87v133h-87V499M261 347h-62V235h59l47 46 53-49c6-5 9-9 9-13 0-8-5-12-13-12H199v-50c0-31 2-67 7-107 1-11 1-19 1-25 0-15-9-22-27-22s-28 7-28 20v184h-40c-38 0-69-2-93-4L0 246c31-8 68-11 112-11h40v112H85v-16c0-12-8-18-24-18-20 0-30 9-28 27l2 30 2 39 2 37v167c0 29-3 58-7 87l59-44h61v102h-40c-38 0-69-1-93-4L0 797c32-7 69-11 112-11h40v57c0 37-1 63-4 78l54-11c28-7 42-14 42-23 0-8-9-14-25-20l-20-6v-75h55l47 47 53-50c6-5 9-9 9-12 0-9-5-13-13-13H199V656h52l34 36 40-26c13-8 20-16 20-23 0-9-13-19-38-30V453c0-17 2-54 6-109v-6c0-15-11-23-34-23-12 0-18 5-18 13v19m0 29v117h-62V376h62m0 146v106h-62V522h62M152 376v117H85V376h67m0 146v106H85V522h67m656 342 47-18c15-6 22-13 22-20 0-9-7-13-22-14l-20-2c-17-39-43-84-78-135 28-15 48-30 58-46 20 37 37 78 51 123l56-26c13-6 19-12 19-19 0-10-7-15-21-15h-21c-42-68-91-133-147-195 52 6 96 12 130 18-10 20-21 39-32 54l12 12c51-46 77-84 77-115 0-21-8-32-22-32-10 0-17 7-21 20 0 2-2 10-4 24-1 4-3 9-5 15-37-15-74-27-112-37-3-22-9-33-16-33s-14 9-21 27l-17 41c13 12 37 47 72 104-5 3-10 9-14 18-10 19-25 38-48 58 35 62 61 126 77 193M482 288l63-29c11-5 17-11 17-18 0-9-8-15-24-16l-24-1c-27-38-56-70-85-98-17-15-51-41-101-76l-10 16c78 67 133 141 164 222m213-10c47-30 81-53 100-69 26-21 46-39 62-57 22-23 33-46 33-68 0-11-4-20-12-26-4-4-8-5-13-5-14 0-28 15-42 45-25 54-72 109-140 163l12 17m-53 41V149c0-31 2-65 5-102 1-11 2-19 2-25 0-15-9-22-26-22-19 0-28 7-28 21v298H457c-35 0-66-1-93-4l-19 43c31-7 69-11 112-11h138v7c0 39-1 65-3 79l53-12c28-6 42-13 42-22 0-10-8-17-24-21l-21-5v-26h170l48 50 58-52c6-5 8-9 8-14 0-8-4-12-12-12H642M401 596c-20 33-39 59-57 79 33 68 57 135 70 200l51-21c14-5 21-11 21-18s-12-13-36-16c-24-50-52-98-83-142 28-17 46-32 53-44 13 27 29 65 47 112l42-18c14-7 21-14 21-21 0-8-6-12-19-12h-12c-33-58-57-98-71-119-5-7-18-24-38-51-8-10-16-21-25-34 38 7 74 15 108 23-6 13-13 26-20 39l12 12c41-42 61-75 61-98 0-19-7-29-21-29-7 0-12 3-15 8-1 2-4 18-9 47-30-15-62-30-94-43-3-18-8-28-15-28s-14 8-20 24l-21 45c14 10 37 44 70 105Z"/></symbol><symbol id="轢_J" viewBox="0 0 1000 1000" data-size="21"><path transform="matrix(1 0 0 -1 44 952)" d="M12 198 0 225h140v111H82v-56l-54-8v393l76-44h36v100H19L3 749h137v154l65-9c17-3 25-7 25-13s-6-12-19-18l-15-7V749h32l43 48 72-55v-21H196V621h48l17 31 57-34c11-7 17-13 17-18s-6-10-17-15l-11-5V305l-57-9v40h-54V225h49l39 47 69-57v-17H196V11l-56-8v195H12m70 270V363h58v105H82m0 127V495h58v100H82m114-127V363h54v105h-54m0 127V495h54v100h-54m89-539c95 50 185 131 269 244H356l-16 27h235v88l67-10c10-1 15-5 15-11 0-3-4-7-12-11l-9-4v-52h138l44 52 80-62v-17H649c23-31 64-69 123-113 53-37 99-61 139-73V96h-8c-22 0-40-13-53-40-44 30-87 67-128 110-32 34-61 72-86 114V9l-61-9v229C482 134 389 71 297 40l-12 16m38 650c9-3 23-9 41-18l55 189 58-34c7-4 10-8 10-12 0-5-5-8-14-9l-12-2-77-149c13-13 19-27 19-41 0-19-8-29-24-29-13 0-23 8-28 25-7 25-15 42-22 53-4 5-9 12-15 19l9 8m126-166c11-11 20-21 26-32 17-27 25-50 25-70 0-11-5-20-14-27-5-3-9-5-14-5-13 0-21 16-23 49l-87-25-3-6c-2-5-5-7-8-7-5 0-8 3-10 8l-22 52h38l99 256 40-23c9-5 13-10 13-15s-3-9-9-11l-9-3-106-202 63 4c-1 14-5 31-12 51l13 6m67-125v391l59-31h7c3 23 5 53 8 90l2 27 61-18c12-3 18-8 18-13s-4-9-13-11l-18-4-31-71h35l16 27 51-30c12-7 18-14 18-19 0-6-5-10-14-13l-12-3V434l-54-10v26h-82v-27l-51-8m51 194V477h82v132h-82m0 140V637h82v112h-82m282-200c11-9 21-19 28-28 22-28 33-54 33-77 0-10-3-18-10-24-5-5-11-7-18-7-8 0-14 2-17 6-6 6-9 21-8 45l-97-27-3-7c-3-7-6-10-10-10-5 0-8 3-11 10l-21 50 27 2 101 251 49-31c11-7 17-12 17-17 0-7-4-11-12-11h-15L771 484l83 6c-4 21-11 38-20 52l15 7M727 706l22-11 54 180 51-29c10-5 15-11 15-17s-5-10-15-11l-13-1-73-142c15-15 23-29 23-44 0-10-3-18-10-24-4-4-8-6-13-6-7 0-13 3-17 8-3 5-8 19-13 42-4 15-10 29-19 42l8 13Z"/></symbol><symbol id="轢_K" viewBox="0 0 1000 1000" data-size="21"><path transform="matrix(1 0 0 -1 53 948)" d="M337 335h224v89l92-19v-15l-32-17v-38h153l41 45h15l48-48v-18H629c41-60 79-105 115-136 37-31 86-59 147-85l-3-14c-16-3-28-6-35-11s-16-15-27-30c-35 23-66 48-93 77-26 29-46 54-60 77-13 23-31 55-52 96V25l-4-9-45-14-11 9v230c-45-50-85-89-122-116-36-27-86-55-150-84l-8 9c67 47 117 88 152 124s69 83 104 140H337v21M82 632h44v111H0v20h126v132l88-18v-13l-27-15v-86h46l36 47h14l41-47v-20H187V632h43l26 23h13l47-45v-11l-23-15V349l-4-14-43-13-13 7v26h-46V233h59l43 46h9l47-51v-16H187V22l-5-8-48-14-8 9v203H0v21h126v122H79v-20l-7-13-44-13-10 5v341l64-23m-3-256h47v104H79V376m154 0v104h-46V376h46M79 502h47v108H79V502m154 0v108h-46V502h46m66-30 26 4 54 113c-19 2-30 10-35 24-9 24-15 40-20 47s-17 21-36 41l9 11 35-14c21 56 41 115 61 176l77-33-3-14-23-2-94-138c17-9 28-17 33-25 6-8 9-20 10-36l48 115 56-37v99l46-18h15l19 107 72-29-3-15h-22l-42-63h30l25 25h16l43-37v-12l-19-13V461l-4-11-49-14-7 8v24h-59v-24l-6-10-48-12-7 5v250h-19L353 481l70 6c-7 13-14 27-21 42l10 7c49-29 73-55 73-78 0-27-7-40-21-40-13 0-21 11-25 32 0 1 0 2-1 3-1 2-1 4-2 6s-1 4-2 6l-89-36-20-21-26 64m318 18v129h-59V490h59m0 150v123h-59V640h59m62 63 8 9 23-9 58 172 81-39-3-11h-28l-91-134c35-21 53-43 53-66l50 118 63-37-5-12h-16L736 493l92 11-30 54 9 7c35-23 57-40 68-52 11-11 16-25 16-42 0-11-3-21-9-31-6-9-12-14-19-14-8 0-15 13-21 38-1 2-3 9-8 21l-100-43-18-20-30 64 26 7 52 101c-12 3-21 7-27 12-5 6-12 18-20 37-10 21-23 41-38 60Z"/></symbol><symbol id="轣_G" viewBox="0 0 1000 1000" data-size="21"><path transform="matrix(1 0 0 -1 21 975)" d="m842 870 37 39 55-51c1-4 2-7 2-7 0-5-3-8-8-8H428V685c2-178-7-319-26-424C383 157 339 71 270 2l-10 14c52 71 86 155 101 253 15 97 22 228 20 392v238l53-29h408M584 739V622h23l28 33 33-41c2-2 3-4 4-6 0-6-4-9-12-9h-76v-18c27-8 47-17 59-25 11-8 19-16 25-24 5-8 6-17 2-29-3-10-10-16-22-18-11 0-18 4-21 14-2 10-7 21-14 31-6 11-15 21-29 32V446l4-60c-1-6-6-14-16-24-8-8-21-13-37-15l4 99v96c-32-63-64-109-98-141l-7 10c18 35 35 67 48 96 14 27 28 58 41 92h-17c-14 0-28-3-43-8l-16 31h92v106c-29-7-57-13-86-20l-4 18c33 9 65 21 96 35 31 11 62 25 92 41 31-28 46-43 45-47 0-5-4-7-12-6h-29c-13-1-32-4-57-10m221-6V618h47l27 39 49-47c2-2 3-4 4-6 0-6-4-9-12-9h-98c17-34 30-58 39-73 9-14 22-28 37-43 14-13 34-23 59-29v-15c-12 0-25-1-37-4-11-4-22-11-33-20-16 20-28 37-35 53-9 13-16 27-22 43-4 15-13 41-25 78V466l4-61c-1-6-6-13-16-23-8-9-21-14-37-16l4 100v88c-44-75-93-133-149-176l-9 12c33 41 59 76 80 105 18 29 36 63 54 100h-4c-9 0-20-3-33-8l-13 31h74v106c-26-7-59-13-98-20l-4 18c43 13 80 26 110 39 30 11 59 24 89 39 34-30 51-47 49-51 0-5-4-7-11-6h-32c-11 0-31-4-58-10M676 351l76-30c2-2 3-5 4-8l-2-3-31-16v-65h86l33 43 51-46c8-10 7-17-4-22H723V59h134l30 43 54-49c4-4 6-8 6-12 0-3-4-6-11-8H441c-13 3-29 0-46-8l-24 34h149v241l76-29c2-2 3-4 4-6 2-3 1-6-4-10l-30-16V59h110v292M35 712l49-33h66v97H66c-15-2-27-5-35-11L4 802h146v148l77-29c3-1 5-5 3-10 0-2-1-4-5-6l-26-13v-90h72l30 41 53-51c3-8 1-14-8-16H199v-97h53l25 31 55-39c4-4 6-7 6-8 0-4-9-12-25-23V437l3-51c0-10-4-18-13-24-10-5-22-8-37-9v31h-67V267h67l29 37 39-43c8-11 8-18 0-22H199V92l4-45c-1-9-8-20-21-31-13-10-24-15-34-16l4 88v151H59c-12-2-24-6-36-10L0 267h150v117H82v-12c-1-8-6-14-16-18-9-4-21-7-35-9l4 82v285m47-303h68v110H82V409m117 110V409h67v110h-67M82 544h68v109H82V544m117 109V544h67v109h-67Z"/></symbol><symbol id="轣_H" viewBox="0 0 1000 1000" data-size="21"><path transform="matrix(1 0 0 -1 34 963)" d="M4 779c28-9 66-13 113-13h18v82c0 35-1 62-2 78 30-5 56-11 78-20 6-3 10-8 10-15 0-6-3-10-8-12-9-5-19-9-31-10V766h33l43 48c23-16 44-32 63-49 7-4 11-7 11-11 0-9-5-14-14-14H182v-99h64l25 31c36-20 53-35 53-43 0-6-9-15-27-27V330c0-13-11-21-33-25-9 0-14 3-14 9v34h-68V244h37l41 43c22-16 42-31 59-45 6-3 9-6 9-10 0-11-4-17-14-17H182V21c0-14-9-21-28-21-14 0-21 8-21 25 0 8 0 18 2 30v160h-24c-45-1-76-2-93-4L0 254c28-7 65-10 111-10h24v104H74v-22c0-6-4-11-13-15s-16-6-22-6c-9 0-14 4-14 13v354l61-31h49v99h-18c-46 0-78-2-96-4L4 779m70-404h61v115H74V375m108 115V375h68v115h-68M74 516h61v99H74v-99m108 99v-99h68v99h-68m668 293c23-17 46-33 67-48 6-3 9-7 9-12 0-11-4-16-12-16H418V598c0-60-2-116-7-168-2-45-8-92-17-140-6-39-15-75-26-109-11-30-24-59-39-85-14-24-33-48-58-71l-11 8c16 21 30 43 41 68 9 22 18 45 27 70 9 28 15 60 20 98 7 43 12 86 14 131 6 60 9 125 9 198 0 125-1 224-4 298l55-35h385l43 47M625 758c-19-7-38-14-57-19V637h14l29 31c18-11 35-23 51-35 4-2 6-5 6-8 0-9-3-14-8-14h-92v-33c19-12 35-24 47-34 13-11 23-23 29-35 4-7 6-15 6-23 0-19-5-29-17-29-4 0-8 1-11 4s-6 9-11 19c-8 21-16 38-24 52-5 6-11 13-19 20V369c0-12-9-19-29-21-12 0-18 4-18 13 0 10 1 18 2 24 2 2 2 15 2 37v119c-5-12-11-24-17-36-9-15-20-31-33-47-11-15-25-30-43-46l-10 14c12 19 22 37 32 53 9 15 17 32 23 51 7 15 13 32 19 50 3 10 6 21 8 30-27 0-48-1-61-3l-17 43c26-8 59-13 99-13v92c-1-1-2-2-3-2-26-8-55-13-86-16l-4 16c42 9 81 22 117 39 23 12 40 25 51 39 27-13 49-25 65-38 5-2 7-5 7-9 0-5-4-7-12-8-4 0-9 1-15 4s-12 4-20 4m246-8c-17-5-35-9-53-14v-99h28l33 31c16-11 32-23 48-35 3-2 5-5 5-8 0-9-2-14-6-14H818v-35c15-11 26-21 36-30 15-11 27-22 34-32 8-9 15-15 20-20 3-6 5-12 7-18 2-5 3-10 3-15-1-14-7-22-18-22-3 0-5 1-7 3-4 4-9 14-17 33-10 18-21 36-32 51-7 9-15 19-26 29V375c0-10-9-16-29-18-12 0-18 4-18 12 0 10 1 18 2 24 2 3 2 16 2 37v128c-9-19-19-37-30-53-11-15-23-31-36-47-14-15-31-30-49-46l-14 14c17 19 31 37 41 53 12 15 22 32 31 51 7 15 13 32 19 50 6 10 9 21 12 30-25 0-43-1-56-3l-17 43c26-8 59-13 99-13v89c-4-1-8-2-11-2-27-6-56-10-88-13l-4 16c42 9 82 20 120 35 25 11 43 23 54 35 27-12 49-25 65-38 5-2 7-5 7-9 0-3-5-5-14-6-2 0-7 1-13 4-4 1-11 2-20 2M617 365c29-5 52-11 71-17 7-4 11-8 11-12 0-3-3-5-9-7-7-4-14-8-22-11v-86h107l39 43c21-16 41-31 61-45 5-3 8-7 8-11 0-9-4-14-12-14H668V64h146l43 47c23-17 44-33 65-48 4-4 6-8 6-12 0-9-4-14-10-14H475c-45-1-76-2-92-4l-22 43c27-7 62-11 104-12v147c0 35-1 62-4 80 29-5 52-11 71-17 7-3 11-8 11-12s-3-6-8-8c-8-4-16-7-25-10V64h111v223c0 34-1 60-4 78Z"/></symbol><symbol id="轣_T" viewBox="0 0 1000 1000" data-size="21"><path transform="matrix(1 0 0 -1 37 962)" d="M813 569c69-35 104-66 104-93 0-7-3-14-8-19-4-6-10-9-15-9-10 0-18 10-26 31-8 22-27 44-55 68v-99c0-13 0-29 1-47 1-7 1-12 1-14 0-17-8-25-24-25-15 0-23 6-23 16v167c-33-57-71-103-115-138l-13 14c43 45 78 107 105 185-24-1-43-2-59-4l-19 42c41-7 71-10 92-10h9v87c-22-5-56-11-101-17l-4 17c87 18 150 46 188 84l41-43c6-6 9-10 9-13 0-7-4-10-10-10-4 0-7 0-11 2l-22 7c-16-6-32-10-45-14V634h25l37 34 43-35c6-5 9-9 9-13 0-9-5-14-13-14H813v-37M260 344h-66V239h30l46 47 54-50c5-4 8-8 8-12 0-9-5-13-14-13H194v-58c0-32 2-67 6-106 1-11 2-19 2-25 0-15-9-22-27-22-19 0-28 7-28 20v191h-35c-38 0-69-1-93-4L0 250c31-7 68-11 112-11h35v105H83v-18c0-12-8-18-24-18-20 0-30 9-28 27l2 30 2 39 2 37v154l-3 36c-1 22-3 39-4 51l59-45h58v97h-27c-38 0-70-1-94-4L7 773c32-7 69-11 113-11h27v84c0 37-1 64-4 78l53-12c28-6 42-14 42-22s-8-15-25-21l-19-6V762h38l47 47 54-50c5-5 8-9 8-12 0-9-5-13-13-13H194v-97h56l33 38 41-27c13-9 19-16 19-23 0-9-12-19-37-30V445c0-18 1-55 5-110 0-2 1-4 1-6 0-15-12-22-35-22-11 0-17 4-17 12v25m0 29v106h-66V373h66m0 135v101h-66V508h66M147 373v106H83V373h64m0 135v101H83V508h64m379 125v88c-20-4-51-8-93-14l-4 17c87 18 150 46 188 84l41-41c6-6 9-11 9-16 0-6-4-10-10-10-3 0-6 1-11 2l-21 7c-21-6-40-12-55-16V633h13l37 33 43-36c5-4 7-8 7-12 0-9-4-14-12-14h-88v-30c16-11 30-22 44-33 26-22 39-43 39-65 0-15-6-23-18-23-6 0-11 2-14 6-3 3-7 13-13 29-6 20-19 40-38 61V440c0-14 1-30 2-47 1-7 1-12 1-15 0-16-8-24-24-24-15 0-23 5-23 16v163c-3-5-5-8-5-11-25-44-54-82-88-113l-13 14c37 48 67 108 88 181-6 0-15 0-26-1-14-1-26-2-38-3l-19 42c40-6 70-9 92-9h9M484 78v143c0 37-1 64-4 78l54-12c28-6 42-13 42-21 0-10-9-17-25-21l-20-6V78h94v226c0 38-1 64-4 78l53-11c28-7 42-14 42-23 0-8-8-15-24-20l-20-7v-67h85l47 47 53-50c6-4 9-8 9-12 0-9-5-13-13-13H672V78h146l47 46 53-49c6-5 9-9 9-12 0-9-5-13-13-13H484c-39 0-70-1-94-4l-19 43c32-8 70-11 113-11m330 778 47 47 54-49c5-5 8-10 8-13 0-9-5-13-13-13H423V570c0-152-11-267-33-346-24-86-62-153-114-203l-13 11c46 58 76 131 92 219 14 77 20 186 20 326v202c0 33 0 71-2 113l54-36h387Z"/></symbol><symbol id="轣_J" viewBox="0 0 1000 1000" data-size="21"><path transform="matrix(1 0 0 -1 42 950)" d="M16 215 0 241h147v109H89v-49l-57-10v376l67-39h48v98H17L3 753h144v146l59-8c23-3 35-9 35-18 0-8-7-13-22-16l-13-3V753h41l40 47 68-57v-17H206v-98h46l20 33 61-38c11-7 16-12 16-17 0-6-5-11-16-14l-16-5V323l-56-8v35h-55V241h37l34 45 63-53v-18H206V9l-59-9v215H16m73 261v-99h58v99H89m0 125v-97h58v97H89m117-125v-99h55v99h-55m0 125v-97h55v97h-55m89-578c57 103 85 231 85 386v459l71-40h325l46 53 81-62v-19H442V684c56 16 109 41 160 76l42-36c7-6 11-11 11-16 0-6-4-9-13-9-3 0-6 0-9 1l-19 6c-19-6-34-11-45-15v-87h14l28 33 45-41v-21h-87v-35c25-5 46-13 61-24 17-13 26-27 26-42 0-9-3-16-10-22-5-5-11-7-18-7-8 0-14 4-18 12l-20 37c-3 5-10 13-21 26V362l-50-10v141c-25-43-53-80-82-112-9-159-51-281-126-368l-16 10m147 552V425c33 63 54 113 63 150h-63m0 29h77v75c-27-7-53-13-77-17v-58M395 67h106v220l59-8c17-3 26-8 26-16 0-7-5-11-15-13l-13-3V67h94v275l61-10c17-3 25-8 25-15s-5-12-16-15l-13-4v-70h50l42 48 69-58v-18H709V67h73l45 51 76-61V40H408l-13 27m346 289v131c-33-46-66-84-98-114l-15 11c46 56 80 120 101 191h-52l-12 28h76v77l-69-10-7 16c77 29 130 55 159 78l44-39c8-7 12-12 12-15s-2-5-6-6-7-2-8-1l-22 4c-21-6-38-11-52-14v-90h21l35 40 55-48v-20h-97c9-22 24-46 46-72 21-25 43-44 64-58l-3-14c-15-1-30-9-45-25-16 19-32 44-48 73-12 24-21 48-28 71V364l-51-8Z"/></symbol><symbol id="轣_K" viewBox="0 0 1000 1000" data-size="21"><path transform="matrix(1 0 0 -1 53 944)" d="m271 251 36-36c3 11 7 27 10 48 11 61 16 154 16 277 0 121-1 200-4 237-1 13-1 28-1 47l63-24h402l38 43h14l48-48v-16H608l35-32-7-11h-23c-16-12-41-28-75-49V587h24l25 32h12l31-32h65v80c-40-12-78-21-113-26l-4 11c75 29 146 70 213 123l61-42-5-12h-27c-22-13-44-24-67-35v-99h52l31 35h13l41-41v-15H754v-10c24-41 44-70 61-89s43-40 78-64l-1-11c-29-3-49-11-61-24-27 31-53 73-78 127V347l-5-12-44-13-9 5v124c-37-38-78-72-122-103l-8 11c28 30 50 58 66 85 17 27 36 68 59 122H538v-37c33-14 55-25 66-33s17-19 17-34c0-23-7-34-21-34-8 0-19 12-32 36-3 6-13 21-30 44l2-176-6-10-45-13-9 6 3 139c-26-35-54-65-85-91l-10 8c38 60 67 125 86 195h-76v21h84v76c-31-11-57-19-80-24l-5 11c35 19 61 35 79 48 18 14 48 41 90 81H389v-80l1-45v-46l1-46c0-67-3-126-8-178s-12-96-20-131-20-68-35-99c-15-30-29-55-43-74-14-20-32-43-55-68l-12 8c37 63 65 121 83 173H178l1-162-4-10-47-21-12 6v187H4v21h112v106l-40 1v-22l-9-12-45-11-8 5-1 341 66-26h38v96H0v22h117v174l91-17v-14l-30-16V714h59l30 34h13l42-41v-15H178v-96h41l27 28h12l44-40v-12l-18-12V314l-5-6-51-13-8 4v22h-42V215h47l33 36h13m-51 223v101h-43V474h43m0-131v109h-43V343h43m-144 0h41v109H76V343m0 131h41v101H76V474m347-214 91-20v-14l-31-14V63h104v260l88-18v-14l-26-14v-74h88l34 41h13l47-47v-15H649V63h138l42 49h13l48-55V41H298v22h125v197Z"/></symbol><symbol id="轤_G" viewBox="0 0 1000 1000" data-size="21"><path transform="matrix(1 0 0 -1 20 975)" d="m510 556 43-34h238l20 26 46-26c6-3 10-8 10-13 0-3-8-11-23-22V366l4-31c0-12-6-20-18-25s-22-8-31-8v23H553c0-6-3-12-10-15-10-7-22-10-37-10l4 88v168m43-207h99v62h-99v-62m142 0h104v62H695v-62m-142 86h99v64h-99v-64m142 64v-64h104v64H695M635 68h82v171h-82V68m121 0h70v171h-70V68M475 292l46-29h299l22 27 47-35c6-4 9-8 11-12 0-4-9-12-29-23V68h20l23 32 41-41c2-2 3-4 4-6 2-5-2-8-12-8H447c-13 1-30-2-49-8l-17 31h94v224m45-224h74v171h-74V68m80 874 70-27c5-1 8-3 8-8 0-2-2-4-6-6l-26-11v-53h155l31 37 53-49c0-1 1-2 2-4-1-6-2-8-4-8H646v-56h204l25 27 43-37c6-4 9-8 10-14 0-4-5-7-14-9-18-4-31-10-41-18-8-8-23-21-45-41l-14 8 34 60H447V501c-4-156-21-268-52-336C363 98 316 43 254 0l-8 14c57 55 97 116 119 182 21 67 33 168 37 305v293l57-37h141v185m56-230c5-2 7-4 8-6 0-2-2-5-6-8l-13-8v-29l72 4 25 33 41-35c8-6 8-12 0-16l-138-9v-10c0-12 3-18 11-20 8 0 30-1 65-2h76c12 0 23 2 33 4 9 2 16 9 20 22 3 10 6 27 9 49h16c-1-15 0-28 2-39 1-12 9-22 25-30-6-15-15-26-27-33-10-6-29-9-57-8H643c-18 3-30 9-36 20-4 10-7 21-7 35v8l-92-6c-7-1-16-3-28-8l-19 29 139 8v69l56-14m-611 8 49-41h64v97H70c-21-2-35-5-43-11L0 802h158v148l76-29c4-1 6-5 4-10 0-2-2-4-6-6l-25-13v-90h88l29 41 53-51c4-8 1-14-8-16H207v-97h53l25 31 55-39c4-4 6-7 6-8 0-4-9-12-26-23V437l4-51c0-10-4-18-13-24-10-5-23-8-38-9v31h-66V267h78l29 37 40-43c8-11 8-18 0-22H207V92l4-45c-1-9-8-20-22-31-13-10-24-15-33-16l4 88v151H68c-17-2-32-6-43-10L2 267h156v117H92v-12c-1-8-6-14-16-18s-21-7-35-9l4 82v293m47-311h66v110H92V409m115 110V409h66v110h-66M92 544h66v109H92V544m115 109V544h66v109h-66Z"/></symbol><symbol id="轤_H" viewBox="0 0 1000 1000" data-size="21"><path transform="matrix(1 0 0 -1 32 959)" d="M0 793c28-7 65-10 111-10h39v57c0 35-1 61-4 78 39-3 70-10 94-20 9-4 14-9 14-15s-5-10-14-11c-13-6-26-9-41-11v-78h47l43 43c20-16 39-31 58-45 4-3 7-6 7-10 0-11-4-17-10-17H199v-96h69l29 31c32-20 49-35 49-43 0-7-9-16-28-27V340c0-11-9-18-29-22-12 0-18 3-18 8v26h-72V232h47l39 39c19-14 38-28 56-42 3-3 5-6 5-10 0-9-4-14-10-14H199V90c0-14 1-24 2-29 1-12 2-21 2-28 0-22-10-33-31-33-17 0-26 5-26 16 0 15 1 33 2 54 2 23 2 43 2 59v76h-39c-45-1-76-2-93-4L0 244c28-8 65-12 111-12h39v120H78v-22c0-6-4-11-14-15-8-4-15-6-21-6-9 0-14 4-14 13v358l46-22h75v96h-39c-45-1-76-2-93-4L0 793m78-414h72v119H78V379m121 119V379h72v119h-72M78 525h72v104H81l-3-6v-98m121 104V525h72v104h-72m369 289c30-4 54-9 73-15 6-2 9-7 9-12 0-4-2-6-6-8-7-5-14-8-23-10v-33h143l39 39c21-13 39-27 55-41 6-3 9-5 9-8 0-10-4-16-13-16H621v-60h223l27 33c21-16 40-32 58-49 2-2 3-4 3-6 0-6-6-11-17-13-11-3-21-5-30-8-7-7-16-14-27-22-9-9-19-17-30-23l-17 10c9 10 16 20 21 28s9 15 12 23H604v-64l104 5 21 39 63-38c3-2 5-4 5-7 0-8-4-14-12-16l-181-14v-9c4-14 40-21 107-21 18 0 58 2 121 5 16 0 24-7 25-21-2-10-13-17-33-21-22-4-60-6-113-6s-90 4-111 13c-21 7-34 20-39 39v18l-74-5-22-5-29 35 42 2 83 5v66H426V422c0-40-2-78-7-114-2-32-8-64-17-96-6-27-14-51-24-73-10-20-23-39-36-57-14-18-31-34-53-49l-14 8c15 13 27 28 37 45 11 16 20 32 27 48 7 20 13 42 18 67 8 29 12 58 15 88 5 39 7 83 7 133 0 154-1 277-4 369l53-37h146v86c0 35-2 61-6 78m-86-389 46-25h256l23 29c33-21 50-36 50-43s-8-17-25-29V287c0-13-10-21-31-25-11 0-16 3-16 9v20H529v-16c0-7-4-12-11-15-9-4-16-6-22-6-9 0-14 4-14 12v263m47-211h104v69H529v-69m149 0h107v69H678v-69m-149 98h104v61h-99l-5-8v-53m149 61v-61h107v57l-1 4H678M449 244l44-25h325l28 31c34-20 50-35 50-43 0-6-8-15-25-27V74l18 16c15-10 29-20 42-31 3-3 5-6 5-8 0-9-3-14-8-14H471c-46-1-76-2-92-4l-22 43c25-6 55-10 92-11v179m47-180h78v129h-74l-4-9V64m125 0h78v129h-78V64m125 0h78v129h-78V64Z"/></symbol><symbol id="轤_T" viewBox="0 0 1000 1000" data-size="21"><path transform="matrix(1 0 0 -1 26 961)" d="m572 727 42-11c24-6 35-13 35-21 0-9-7-15-21-18l-21-6v-21l100 11 29 35 49-30c8-6 12-10 12-14 0-5-5-8-14-9l-176-20v-9c0-10 9-16 26-20s47-5 90-5c52 0 89 2 112 6 9 2 16 3 20 3 10 0 17-4 22-12 3-4 4-9 4-13 0-10-8-16-26-18-29-4-71-6-126-6-66 0-109 4-130 10-25 8-37 22-37 44v14l-53-5-44-9-27 32 124 11v7c0 37-2 61-4 74H434V480c0-128-6-216-17-265-16-75-57-137-121-186l-11 12c35 40 59 79 73 117 16 43 24 103 26 178 2 79 3 139 3 180v177c0 26-2 58-4 97l55-37h138v91c0 39-1 65-4 78l56-12c27-6 40-13 40-22s-9-16-26-21l-19-5v-24h138l39 40 56-42c5-4 8-9 8-13 0-9-4-13-13-13H623v-57h218l28 33 55-40c5-4 8-9 8-15s-4-11-11-12l-36-8c-5-5-9-10-11-13-16-19-30-34-41-45l-15 10c9 22 16 44 23 64H572M276 350h-68V230h38l46 47 54-49c5-5 8-9 8-13 0-8-4-13-13-13H208v-48c0-31 3-67 7-107 1-11 1-19 1-25 0-15-9-22-27-22s-27 7-27 21v181h-48c-38 0-70-1-93-4L2 241c32-7 70-11 112-11h48v120H91v-7c0-12-8-18-24-18-20 0-30 9-28 27l2 30 1 39 2 37v154c0 29-2 58-6 87l59-45h65v99h-50c-35 0-66-1-93-4L0 792c31-7 68-11 112-11h50v59c0 38-2 64-4 78l59-12c24-5 36-12 36-22 0-8-8-14-25-20l-20-6v-77h46l46 47 54-50c6-5 9-9 9-12 0-9-4-13-13-13H208v-99h59l33 37 41-26c13-8 19-16 19-23 0-10-13-19-38-30V461c0-18 2-54 6-108v-7c0-15-11-22-34-22-12 0-18 4-18 12v14m0 29v113h-68V379h68m0 142v105h-68V521h68M162 379v113H91V379h71m0 142v105H91V521h71m331 18 54-36h232l30 36 35-25c14-9 21-17 21-24 0-5-11-13-32-25v-99c0-14 1-31 3-51 1-9 1-16 1-21 0-16-11-24-32-24-12 0-18 4-18 12v9H540v-7c0-10-9-15-26-15-18 0-26 7-26 22 0 1 0 9 2 23 2 33 3 50 3 52v173m193-64v-65h101v65H686m-146-65h99v65h-99v-65m0-92h99v65h-99v-65m146 0h101v65H686v-65m-221-66 55-33h289l29 34 36-23c14-9 21-17 21-24 0-6-11-14-33-26V69l33 29 44-38c6-5 9-9 9-13 0-9-5-13-13-13H456l-21-1c-10-1-22-2-39-4l-19 42c35-5 64-8 88-8v189m47-189h73v128h-73V63m120 0h65v128h-65V63m112 0h69v128h-69V63Z"/></symbol><symbol id="轤_J" viewBox="0 0 1000 1000" data-size="21"><path transform="matrix(1 0 0 -1 39 948)" d="M4 239h142v108H85v-37l-57-8v366l71-42h47v97H16L0 750h146v144l61-9c17-3 26-8 26-15s-4-11-13-14l-17-5V750h36l41 49 69-58v-18H203v-97h56l17 29 62-37c10-5 15-11 15-17 0-5-6-10-17-15l-11-5V327l-56-8v28h-66V239h39l38 47 56-51v-23H203V8l-57-8v212H18L4 239m81 236V374h61v101H85m0 123v-96h61v96H85m118-123V374h66v101h-66m0 123v-96h66v96h-66m89-564c19 37 35 77 48 119 20 64 30 146 31 246v375l71-39h139v161l60-8c16-3 25-5 28-8 2-3 3-5 3-8 0-7-7-13-22-16l-11-4v-39h78l41 48 71-58v-17H639v-51h171l21 33 71-40c13-7 19-14 19-21 0-10-8-15-24-15h-24l-68-57-14 8 23 64H648c3-3 4-6 4-8s-3-5-9-9l-12-8v-43l40 3 38 45 61-46v-16l-139-13v-21c1-10 5-15 14-15h134c13 0 23 3 28 9 5 5 11 16 16 32l8 24h18v-19c0-18 2-29 5-33 3-3 12-7 26-11-3-33-30-51-81-52H617c-13 0-24 4-32 12-7 7-10 19-10 38v32l-104-9-13 23 117 12v73H427V390c-2-146-42-268-120-365l-15 9m67 17h78v211l62-37h253l18 29 51-29c15-9 22-16 22-22 0-11-6-17-17-17h-12V51h9l32 51 52-59V24H375l-16 27m135 147V51h57v147h-57m106 0V51h54v147h-54m104 0V51h55v147h-55m-236 62v261l63-36h212l16 27 58-33c11-7 17-13 17-20 0-6-6-11-17-14l-11-4V277l-56-10v21H519v-22l-51-6m51 114v-59h84v59h-84m0 83v-56h84v56h-84m137-83v-59h94v59h-94m0 83v-56h94v56h-94Z"/></symbol><symbol id="轤_K" viewBox="0 0 1000 1000" data-size="21"><path transform="matrix(1 0 0 -1 52 947)" d="M144 779v115l85-15v-15l-28-12v-73h75l36 35h12l47-40v-16H201V652h64l25 24h13l47-37v-13l-21-23V327l-5-14-46-17-11 11v27h-66V222h66l32 36h13l31-32c1 3 3 19 7 50 9 77 14 179 14 308 0 75 0 126-1 155l65-24h137v179l85-13v-14l-24-15v-38h124l36 38h12l49-47v-13H626v-77h177l25 24h19l41-45-4-12-30-3-56-46-10 6 22 55H422V590c0-170-9-290-28-359-18-69-59-140-123-211l-13 8c41 71 68 128 81 173H201V35l-3-21-45-14-9 4v197H4v21h140v112H79v-27l-6-11-46-14-9 6v388l61-24h65v106H0v21h144m57-149V518h66v112h-66m0-134V355h66v141h-66m-57-141v141H79V355h65m0 163v112H79V518h65m271-274 60-18h283l28 23h14l47-33v-15l-19-17V45l26 33h12l29-45V18H356v21h59v205m298-40V39h56v165h-56m-65 0h-53V39h53v165m-117 0h-55V39h55v165m201 261 24 22h14l47-37v-15l-19-13V292l-5-13-48-14-10 8v12H515c0-8-2-15-6-20l-51-11-9 5v230l60-25 223 1m-79-22v-54h82v54h-82m-57 0h-81v-54h81v54m57-136h82v61h-82v-61m-57 61h-81v-61h81v61m26 251 78 7 25 38h10l49-38v-12l-162-17c0-9 0-15 1-19 1-3 3-6 7-9 5-3 12-4 21-4h93c24 0 40 2 47 5 7 4 15 14 24 29l18 33 15-1-7-62 14-13v-13c-14-11-28-18-42-21-13-3-38-4-73-4H599c-15 0-25 6-29 18-3 12-5 32-5 60l-126-9v18l127 9v70l79-12v-12l-23-14v-27Z"/></symbol><symbol id="轥_G" viewBox="0 0 1000 1000" data-size="21"><path transform="matrix(1 0 0 -1 26 980)" d="M738 702v-62h131v62H738m-310 0v-64h135v64H428m310-86v-62h131v62H738m-310-2v-58h135v58H428m-73 244h172v92l67-25c6-5 6-11 0-16l-20-13v-38h158v92l63-21c5-1 8-4 10-8 0-3-1-5-4-8l-22-12v-43h82l32 41 52-48c4-8 4-13-2-16H779v-51c0-8-6-14-19-19-7-4-16-6-28-6v76H574v-51c0-8-4-15-13-21-9-5-20-7-34-8v80H416c-3 0-16-3-39-8l-22 31m485-729H547v-25c-1-10-6-19-16-28-8-8-17-12-29-12l4 61v202c-18-29-35-51-51-66l-12 8c15 29 31 63 49 103 18 39 33 74 47 106l53-20c6-8 3-14-8-16-5-4-10-9-16-15-4-4-11-14-21-30h195l29 34 47-39c2-4 4-6 4-6 0-7-4-10-9-10H682v-61h54l24 34 43-43c2-2 3-4 4-6-3-4-6-6-8-6H682v-61h52l24 32 41-39c0-1 1-2 4-4 0-7-1-10-2-10H682v-61h82l27 34 49-47c2-1 3-3 4-5l-4-4m-293 22h94v61h-94v-61m94 82v61h-94v-61h94m0 82v61h-94v-61h94m-36 182 6 10c32-12 53-22 65-31 10-10 15-19 17-28 0-10-2-17-7-23-6-6-13-9-22-8-10-1-16 4-18 14 0 9-3 19-9 29s-17 23-32 37M381 761l49-33h127l23 25 51-37c4-4 3-9-2-14l-22-12v-99l4-47c-2-10-7-16-13-20-6-3-18-8-35-13v19H426V149l4-104c0-10-7-19-20-27-14-9-25-13-33-14l4 140v617m500 0 55-37c4-2 7-6 7-12 0-4-4-8-13-12l-14-12V94c1-26-4-46-16-59-12-14-32-25-60-35-4 18-14 31-31 41-17 8-44 19-80 31l1 20c38-10 66-16 86-18s34-1 41 2c6 4 10 13 10 26v426H738v-6c-4-4-10-7-19-9-10-1-20-2-31-2l3 52v186l43-21h123l24 33M43 729l49-41h64v98H68c-15-2-27-6-35-12L6 812h150v148l76-29c4-2 6-5 4-10 0-2-2-4-6-6l-25-14v-89h76l30 41 52-51c4-9 2-14-8-16H205v-98h53l25 32 55-39c4-4 6-7 6-8 0-4-9-12-26-24V446l4-50c0-10-4-18-13-24-10-5-23-8-38-10v32h-66V276h78l30 37 39-42c8-11 8-18 0-22H205V102l4-45c-1-9-8-20-21-32-14-9-25-15-34-15l4 88v151H66c-17-3-31-6-43-10L0 276h156v118H90v-12c-1-8-6-14-16-18s-21-8-35-10l4 83v292m47-310h66v109H90V419m115 109V419h66v109h-66M90 554h66v109H90V554m115 109V554h66v109h-66Z"/></symbol><symbol id="轥_T" viewBox="0 0 1000 1000" data-size="21"><path transform="matrix(1 0 0 -1 31 968)" d="m748 832 11 85 66-13c13-3 19-8 19-15s-6-13-19-17l-24-7-5-33h45l36 39 51-39c7-5 10-11 10-18s-3-11-10-11H792l-9-54c-2-8-4-13-6-15-5-3-12-5-21-5-15 0-22 6-20 16l9 58h-9c-14 0-35-1-62-4l-19 42c9-1 16-2 20-3 12-2 28-4 48-5l13-1h12m-266 0-9 85 65-6c15-1 22-6 22-14s-5-14-15-18l-22-9 4-38h24l32 31 42-31c7-6 11-12 11-18 0-7-4-11-11-11h-95l5-48v-2c0-12-10-19-28-19-10 0-15 3-15 9l-7 60h-48c-14 0-35-2-62-5l-19 42c21-3 43-6 68-7l13-1h45m188-86 59-32h108l34 37 41-26c13-9 19-17 19-23 0-9-13-19-38-30V78c0-40-23-63-70-70 1 19-5 33-17 41-9 5-24 10-45 15l4 20c27-5 47-8 59-8 15 0 22 10 22 29v409H718v-8c0-4-3-7-10-10s-14-5-21-5c-11 0-17 4-17 12v243m176-116v57H718v-57h128m0-88v60H718v-60h128M566 390h106c-3 4-6 10-8 19-4 14-17 32-40 54l10 12c46-23 70-44 70-62 0-9-4-17-11-23h44l36 32 44-39c4-4 6-8 6-12 0-5-3-8-10-8H689v-52h28l36 32 44-39c4-3 6-7 6-12s-3-8-11-8H689v-48h28l36 33 44-39c4-4 6-8 6-12 0-6-3-9-11-9H689v-55h56l35 32 45-39c5-4 7-8 7-12 0-5-4-8-11-8H558v-23c0-7-8-11-24-11-12 0-18 5-18 14v225c-21-19-42-35-62-48l-12 12c57 50 96 110 116 179l48-20c11-5 16-10 16-16 0-5-6-9-18-11l-15-4c-7-13-15-24-23-34m-8-79h88v52h-88v-52m0-27v-48h88v48h-88m88-130v55h-88v-55h88M394 754l53-40h108l33 37 42-26c13-8 19-16 19-23 0-9-13-19-38-30V514c0-16-13-23-38-23-7 0-10 2-10 8v15H439V34c0-18-9-27-27-27-16 0-25 8-25 23 0 6 1 14 2 24 3 26 5 60 5 102v598m45-124h124v57H439v-57m0-88h124v60H439v-60M270 355h-70V243h44l46 49 57-52c6-5 9-9 9-12 0-9-4-13-13-13H200v-61c0-35 2-71 6-107 1-10 2-18 2-25 0-15-9-22-27-22s-27 7-27 21v194h-45c-36 0-67-1-91-4L0 254c29-8 66-11 109-11h45v112H87v-8c0-12-7-18-23-18-20 0-29 9-28 26l2 31 2 38 2 37v163l-2 36c-2 21-3 38-5 50l58-44h61v98h-37c-38 0-68-1-91-4L7 803c30-7 67-11 110-11h37v65c0 39-1 65-4 78l53-12c27-6 41-13 41-22 0-8-8-15-25-20l-19-6v-83h48l46 50 58-52c5-5 8-10 8-13 0-9-4-13-13-13H200v-98h61l32 37 40-27c13-8 19-16 19-23 0-9-12-19-37-30V465c0-18 2-55 5-109 1-2 1-4 1-6 0-15-11-22-33-22-12 0-18 4-18 12v15M154 527v111H87V527h67m116 0v111h-70V527h70m0-143v114h-70V384h70m-116 0v114H87V384h67Z"/></symbol><symbol id="轥_J" viewBox="0 0 1000 1000" data-size="21"><path transform="matrix(1 0 0 -1 40 954)" d="M142 212H15L5 239h137v111H90v-29l-58-12-1 348 56-34h55v101H12L0 751h142v148l72-4c13-1 19-5 18-14-1-5-4-9-11-12l-20-10V751h43l40 45 67-51v-21H201V624h57l18 32 57-36c8-5 12-9 12-13 0-6-6-10-17-13l-13-4V331l-56-10v29h-58V239h54l35 45 63-56v-16H201V14L142 4v208M90 374h52v101H90V374m0 226V500h52v100H90m111-125V374h58v101h-58m0 25h58v100l-58 1V500m138 300-13 28h165v77l71-4c9-1 14-4 14-10 0-4-3-8-10-11l-16-7v-45h115v80l70-8c10-1 15-5 15-12 0-6-4-10-11-13l-15-6v-41h80l36 46 76-58v-16H724v-41l-59-10v51H550v-48l-59-10v58H339M366 4l1 743 55-37h112l18 31 58-37c7-4 10-8 10-13 0-4-3-7-9-10l-18-7V497l-55-8v26H427V14L366 4m61 534h111v64H427v-64m0 149v-62h111v62H427m10-407c39 63 69 127 88 194l57-15c8-2 12-5 12-10 0-4-3-7-10-10l-13-5c-11-19-23-38-35-56l13-6h60l30 97 56-16c8-2 12-5 12-9 0-3-3-6-10-8l-19-7-45-57h69l35 40 58-45v-17H661v-50h35l28 32 51-38-1-17H661v-53h30l31 35 51-40v-19H661v-52h61l35 36 53-43-1-16-267-1V93l-52-9v233c-14-16-28-31-43-44l-10 7m105-80v-53l70 1v52h-70m0 77v-53h70v53h-70m0 73v-50h70v50h-70m111 136v255l53-31h120l20 36 65-38c5-3 8-8 8-13s-3-9-10-11l-19-6V70c0-19-4-33-13-42s-26-17-49-23c-13-3-21-5-25-5s-6 4-7 12c0 10-1 17-3 21-3 5-11 10-22 13l-36 11-1 14h95l1 444H707v-21l-54-8m54 116v-64h123v64H707m0 84v-60h123v60H707Z"/></symbol><symbol id="轥_K" viewBox="0 0 1000 1000" data-size="21"><path transform="matrix(1 0 0 -1 48 941)" d="m498 724 27 31h15l51-36v-16l-30-24V532l-6-13-44-10-6 10v24H396l-5-527-44-14-7 6v738l60-22h98m7-21H396v-58h109v58m0-82H396v-56h109v56m308 82H684v-58h129v58m-5 21 26 31h11l51-38v-14l-23-21V108c0-31-4-52-12-64s-27-23-58-32L770 2l-16 10v32l-80 26 3 14 87-10c19 0 32 3 39 8s10 19 10 40v421H684c0-9-2-17-7-24l-39-12-9 9v230l55-22h124M599 414l32 87 59-26-6-10-16-4-47-47h69l37 40h12l46-45v-17H640v-71h36l30 38h15l43-43v-18H640v-67h30l34 39h14l42-47v-13H640v-73h56l36 41h13l45-47v-17H511V72l-6-10-43-10-8 7v295c-13-15-27-29-42-42l-9 12c31 45 62 107 94 184l67-43-7-11h-17c-7-11-17-24-32-40h91m-14-22h-74v-71h74v71m0-94h-74v-67h74v67m0-88h-74v-73h74v73m99 355h129v56H684v-56M129 746v135l89-16v-13l-29-17v-89h29l37 48h15l51-54v-16H189V621h42l34 39h12l55-42v-15l-29-24V305l-9-11-39-11-12 8v37h-54V210h34l39 43h15l50-49v-16H189V26l-5-14-46-12-9 7v181H0v22h129v118H77v-23l-6-9-48-18-10 5v371l66-33h50v103H3v22h126m114-148h-54V484h54v114m0-136h-54V351h54v111M129 598H77V484h52v114m0-136H77V351h52v111m171 330v22h149v67l88-13v-14l-28-12v-28h168v67l86-11v-13l-26-13v-30h71l34 43h12l50-47v-18H737v-32l-8-9-43-11-9 6v46H509v-37l-5-9-45-10-10 4v52H300Z"/></symbol><symbol id="车_G" viewBox="0 0 1000 1000" data-size="21"><path transform="matrix(1 0 0 -1 44 954)" d="M39 737h279c26 61 49 117 71 170l72-41c4-2 6-6 6-10 0-2-4-5-12-9-17 0-33-13-47-37-12-26-23-50-35-73h356l44 55 63-64c4-2 6-4 6-6 2-8-2-12-12-12H361c-31-63-76-147-134-254h224v193l82-37c3 0 6-4 8-9 0-2-12-10-37-24V456h172l39 49 62-63c2-2 4-5 4-7 0-6-2-9-8-8H504V284h291l41 53 72-63c2-2 3-3 4-5 0-8-6-12-17-12H504V149l4-114c0-10-8-17-24-23-13-8-26-12-37-12l4 138v119H82c-14 0-37-3-68-8L0 284h451v143H227l-32-35-54 62c28 14 48 31 60 53 35 62 70 129 104 203H121c-14 0-37-3-68-8l-14 35Z"/></symbol><symbol id="车_H" viewBox="0 0 1000 1000" data-size="21"><path transform="matrix(1 0 0 -1 46 958)" d="M47 780c29-8 67-12 115-12h103c6 15 12 30 16 43 14 42 23 77 29 104 35-5 66-11 92-19 5-3 7-7 7-11 0-7-5-12-16-15-15-3-29-5-42-7-13-32-25-64-37-95h429l45 52c25-19 49-37 71-54 6-4 9-8 9-12 0-9-5-13-15-13H302c-13-32-26-62-40-91-28-60-55-115-81-163h254v131c0 35-3 61-7 78 39-4 71-12 95-23 9-3 13-7 13-13s-4-11-13-13c-13-7-27-11-42-12V487h195l43 48c23-18 46-35 67-51 5-3 7-7 7-11 0-9-5-14-14-14H481V295h301l46 52c25-19 48-36 70-54 6-3 9-7 9-11 0-10-5-14-14-14H481V92c0-15 1-25 1-31V34c0-23-9-34-29-34-17 0-26 6-26 18 0 13 1 31 3 53 3 22 5 42 5 58v139H115c-47-2-78-4-94-7L0 307c29-8 67-12 115-12h320v164H166c-1-1-1-2-2-3-4-9-13-14-27-14-17 0-25 5-25 14l3 10c6 7 19 29 40 67 29 52 54 99 75 144 10 21 18 43 25 64h-93c-47-1-78-3-95-7l-20 46Z"/></symbol><symbol id="轧_G" viewBox="0 0 1000 1000" data-size="21"><path transform="matrix(1 0 0 -1 34 966)" d="m574 905 90-29c3-3 3-7 2-10-1-2-2-4-4-4l-39-15V114c0-22 4-34 12-36 7-1 15-2 25-2h153c22 6 37 17 42 32 6 17 9 34 10 49 2 16 4 63 6 141h22c3-78 7-128 11-149 6-19 15-33 28-41-10-24-22-42-37-53-14-13-38-21-71-26H658c-18 0-34 3-49 8-11 5-21 14-29 27-4 10-6 26-6 48v793M0 757h184c15 53 31 111 46 176 46-23 70-36 73-39 2-4 3-7 2-10-2-4-9-7-20-8-10-3-18-14-25-33-8-20-18-49-30-86h180l39 49 59-53c2-3 3-6 4-10 0-8-4-12-12-12H223c-34-93-63-175-88-246h150v192l78-31c2-2 4-4 4-6 0-4-2-7-6-10l-27-12V485h64l40 51 60-62c2-2 3-5 4-8-1-5-5-7-10-8H334V315l182 39 4-17-186-55V126l4-85c0-8-7-17-20-27-14-9-26-13-37-14l4 122v149c-94-26-149-42-166-49-15-8-34-20-55-35l-39 66 260 53v152H131l-29-27-49 48c21 10 37 25 49 45l72 207H82c-14 0-36-2-66-7L0 757Z"/></symbol><symbol id="轧_H" viewBox="0 0 1000 1000" data-size="21"><path transform="matrix(1 0 0 -1 48 954)" d="M0 776c30-8 68-12 115-12h3c3 13 5 24 7 34 9 43 15 79 18 105 34-4 65-11 91-19 5-3 7-6 7-11 0-6-5-11-15-15-15-3-30-5-43-6-6-31-13-60-21-88h198l46 52c25-19 49-37 72-54 5-4 7-8 7-12 0-8-5-13-14-13H156c-7-34-15-68-23-101-16-58-31-112-45-160h137v138c0 35-2 61-6 78 38-4 69-12 94-23 8-3 12-7 12-13s-4-10-12-12c-12-8-26-12-42-13V476h58l43 47c24-18 46-35 67-51 5-4 7-7 7-11 0-9-4-13-13-13H271V265c58 18 116 39 176 63l11-22c-59-28-121-54-187-78V92c0-15 1-24 1-29V34c0-23-10-34-30-34-16 0-24 6-24 19 0 12 1 30 3 52s4 42 4 58v79c-43-15-85-30-128-46-7-32-14-49-22-49s-25 29-51 86c61 13 128 30 201 52v197H78c-1-3-2-6-3-8-4-9-13-14-26-14-18 0-27 5-27 14l2 11c4 7 13 29 26 67 16 51 31 100 45 145 6 26 12 51 17 74-44-1-74-3-91-7L0 776m546 131c34-6 62-12 85-20 7-2 11-6 11-13 0-5-4-9-11-12-11-4-21-7-31-8V115c0-12 2-21 5-25 8-5 18-9 33-11 17-4 44-7 82-7 26 0 48 1 63 3 14 2 24 6 31 11 8 4 12 15 15 32 6 22 11 78 17 168l18-7c0-50-1-100-1-149 0-9 2-14 6-18 2-4 8-8 19-11 10-7 15-14 15-23 0-6-3-12-9-17-10-10-22-16-37-19-17-5-37-7-60-9-27-3-53-5-77-5-39 0-68 2-87 5-26 3-44 8-54 13-9 4-16 12-19 23-5 9-7 19-7 32v737c0 28-3 51-7 69Z"/></symbol><symbol id="轨_G" viewBox="0 0 1000 1000" data-size="21"><path transform="matrix(1 0 0 -1 34 967)" d="m590 657 117 6 23 39 65-45c4-3 6-6 6-10s-13-13-37-27l-14-476c0-27 2-42 6-46 3-4 14-6 31-6h45c17 2 27 8 31 19 3 9 5 26 8 52 1 24 3 62 4 115h21c0-60 2-101 4-123 3-22 13-37 32-46-9-20-19-35-32-45-11-7-30-13-54-15h-71c-23 0-41 4-54 12s-19 29-20 61l14 518-123-6c-8-117-20-215-35-293-16-77-44-142-84-195C432 94 379 46 314 0l-7 14c50 45 93 93 129 143 35 51 59 110 74 176 13 64 23 164 31 299l-102-6c-18-3-31-6-39-10l-25 33 166 8 10 270c48-22 75-35 80-39 4-5 5-8 2-10-2-3-13-9-31-20l-12-201M6 751h137c17 58 33 119 48 184 45-26 69-40 71-43 1-5 0-8-4-10-4-3-10-5-18-8-7-3-14-13-21-31-8-18-18-49-30-92h161l37 45 56-53c2-2 4-6 4-10 0-5-5-8-13-7H184c-32-92-60-173-84-243h123v192l78-29c4-2 7-4 8-6 0-5-2-8-6-10l-32-12V483h79l35 43 58-52c2-3 4-6 4-8-1-6-4-9-9-8H271V313l190 43 8-17-198-55V134l6-85c0-9-6-16-17-24-10-8-24-13-41-13l4 128v129c-71-21-114-35-131-43-16-7-34-17-55-32L0 257l223 47v154H109l-27-29-59 54c23 10 38 23 45 39l67 204H72c-13 0-29-3-47-8L6 751Z"/></symbol><symbol id="轩_G" viewBox="0 0 1000 1000" data-size="21"><path transform="matrix(1 0 0 -1 46 958)" d="M457 801h314l34 47 60-55c2-2 2-4 2-8 1-7-2-11-10-11H688V481h117l39 51 62-61c2-2 2-5 2-8 1-6-2-10-10-10H688V137l3-93c1-9-6-19-21-29-16-10-27-15-35-14l4 134v318H529c-13 0-32-2-54-7l-28 35h192v293H539c-12 0-33-3-64-8l-18 35M0 739h143c15 53 31 112 46 177 49-21 75-34 77-37s3-6 2-10c-1-3-8-6-20-9-11-4-20-14-27-30-6-16-16-46-30-91h153l37 48 58-50c2-2 4-6 4-12 0-8-4-12-11-12H186c-28-90-53-170-77-240h129v193l73-29c5-4 7-6 7-8 0-3-2-6-5-10l-28-11V473h67l33 41 60-51c2-2 4-4 4-8-1-4-4-7-10-7H285V315l151 41 7-18-158-54V145l4-103c1-9-6-18-21-27-15-10-26-14-34-12l4 128v137c-78-25-127-43-144-53-18-8-37-21-59-37L4 246l234 57v145H117l-35-34-57 47c24 12 41 30 49 53l63 199H82c-14 0-36-2-66-8L0 739Z"/></symbol><symbol id="轪_G" viewBox="0 0 1000 1000" data-size="21"><path transform="matrix(1 0 0 -1 28 973)" d="M367 644h225c4 69 8 166 12 291l80-32c11-6 13-11 7-17l-35-14c-2-81-7-156-13-226v-2h173l36 46 54-52c2-2 4-5 4-8 0-8-4-12-14-12H643c11-81 31-156 58-226 27-71 59-133 96-188 37-53 86-91 146-114V72c-32 1-52 0-62-4-10-2-22-9-35-23-45 50-79 98-104 143s-47 92-64 143c-18 49-33 117-47 203-14-96-39-181-72-254-34-72-70-127-108-165-38-39-88-77-150-115l-10 14c84 64 147 133 188 208s69 149 85 224c15 74 24 131 26 172H445c-12 0-31-2-56-8l-22 34M2 767h131c16 52 30 112 43 179 49-21 75-34 78-37 2-4 1-8-2-10-2-2-8-3-18-5-8-3-15-14-21-34-5-17-14-48-27-93h171l39 50 59-54c2-2 3-5 4-8 0-8-4-12-12-12H180c-34-108-60-187-78-238h117v168l74-27c5-2 7-4 8-6 0-5-2-8-6-10l-25-14V505h82l33 43 53-51c1-3 3-5 3-8-1-6-4-8-9-8H270V321l185 49 6-17-191-61V146l3-97c2-11-3-22-15-31-13-10-27-16-43-18l4 136v136c-71-23-112-39-125-48-13-8-30-20-51-36L0 253l219 57v171H109l-29-31-59 51c24 11 40 26 47 45l59 197H80c-10 0-31-2-62-8L2 767Z"/></symbol><symbol id="轫_G" viewBox="0 0 1000 1000" data-size="21"><path transform="matrix(1 0 0 -1 43 964)" d="m844 841 64-47c4-3 6-7 6-14 0-3-12-12-37-27l-8-399c-6-89-10-149-14-177-3-30-13-57-29-81-13-24-39-43-76-59-8 23-21 40-39 51-18 10-49 21-92 34l4 18c76-17 123-21 143-14 19 6 31 25 37 59 6 31 11 83 15 156l12 430H680c-3-153-11-273-26-360-14-86-47-163-97-230S434 53 338 0l-10 18c80 59 143 118 188 176 43 58 72 129 88 213 14 82 22 203 25 364H512c-15 0-28-3-39-8l-22 35h365l28 43M527 634h20c1-51-3-95-10-131-8-36-19-62-33-78-14-17-29-25-45-24-14 2-23 8-27 20-3 11 4 23 19 37 15 13 29 31 43 55 12 21 23 62 33 121M10 753h138c16 51 32 109 47 176 47-22 72-34 75-37 1-5 1-8-2-10-2-2-8-4-18-6-8-3-16-14-23-33-8-18-19-48-32-90h139l39 47 59-55c2-2 3-4 4-8 0-8-4-11-12-11H189c-27-90-52-171-76-243h119v200l75-32c6-3 7-8 2-15l-28-10V483h47l33 43 53-52c2-5 3-8 4-10-1-6-5-9-10-8H281V333l135 33 8-15-143-49V155l4-96c1-11-4-22-15-32-12-9-26-15-41-17l3 136v140c-72-23-117-39-134-47-18-8-37-19-59-35L0 267l232 52v137H121l-33-33-59 56c25 12 41 27 49 45l65 202H92c-14 0-36-3-67-8l-15 35Z"/></symbol><symbol id="转_G" viewBox="0 0 1000 1000" data-size="21"><path transform="matrix(1 0 0 -1 47 965)" d="M0 751h143l45 180 68-32c6-2 9-5 10-9 0-3-3-6-10-10-16-4-29-14-37-29l-30-100h131l35 51 59-55c2-2 3-4 4-8 0-8-4-11-12-11H182l-80-254h123v199l80-31c2-4 3-7 4-8-1-3-2-5-4-8l-32-16V474h57l33 47 55-53c1-3 2-7 2-10 0-6-3-8-8-8H273V319l168 49 6-17-174-63V130l4-89c0-8-7-17-21-27-12-9-24-14-35-14l4 120v152l-96-39c-39-15-66-33-82-52L6 243l219 63v144H104l-28-29-56 53c21 7 37 19 46 37l69 217H82c-14 0-36-3-66-8L0 751m434-6h142l37 184c53-24 82-39 86-43 3-5 3-8 0-10s-18-8-45-20l-29-111h137l39 51 60-59c2-2 4-4 4-6 0-7-4-11-11-11H619l-35-153h217l43 57 58-61c2-2 4-5 4-9 0-8-4-12-11-12H578l-33-141h197l29 37 55-48c6-4 9-9 10-16-1-4-6-6-16-8-13-6-25-15-35-29-10-12-25-33-47-65-22-31-49-70-80-117 39-21 67-41 84-59 18-19 26-35 24-49-1-14-4-24-10-29-7-6-14-8-22-8-7 0-18 11-33 35-13 22-43 49-88 81-45 33-101 64-170 96l8 17c80-28 143-52 188-74l107 209H551l-26-29-56 47c18 7 30 21 37 41l23 109h-66c-13 0-34-3-63-8l-15 33h150l35 153h-68c-14 0-31-3-53-8l-15 33Z"/></symbol><symbol id="轭_G" viewBox="0 0 1000 1000" data-size="21"><path transform="matrix(1 0 0 -1 35 963)" d="m822 817 39 53 63-60c8-8 7-14-2-18H480V558c2-151-8-266-31-346-24-80-76-150-156-212l-8 14c59 58 98 124 117 200 19 74 28 185 26 332v318l56-47h338M563 677l56-41h139l33 39c37-28 57-44 59-49 0-6-1-10-2-12-2-2-11-8-26-19V384c2-40-6-70-21-90-16-20-39-35-67-45-7 18-18 31-31 39-14 7-35 16-64 27l4 18c35-8 59-12 74-14 15 0 29 3 41 10s17 35 15 84v195H615V120c0-27 4-41 14-44 9-1 22-2 39-2h137c19 0 33 6 41 18 7 12 11 34 13 67 2 32 4 68 8 108h16c3-46 6-84 8-114 2-29 13-48 33-55-7-21-16-37-28-49-12-10-32-17-60-22H627c-3 0-12 2-27 6-14 5-24 15-30 31-4 11-7 31-7 62v551M0 751h133c15 51 31 109 47 176 47-22 71-34 74-37 2-5 1-8-2-10-2-2-8-4-18-6-7-3-15-14-23-33-8-18-18-48-31-90h109l39 47 59-55c2-2 3-4 4-8 0-7-4-11-12-11H174c-28-90-53-171-76-243h113v192l74-31c7-4 7-9 2-16l-27-10V481h47l33 43 53-52c2-5 3-8 3-10-1-6-4-9-9-8H260V310l142 27 6-18-148-39V153l4-96c1-11-4-22-16-32-12-9-25-15-41-17l4 136v121c-57-17-95-29-113-37s-37-20-59-36L0 259l211 41v154H100l-34-33-58 57c28 11 47 26 55 44l64 202H57c-14 0-28-3-41-8L0 751Z"/></symbol><symbol id="轮_G" viewBox="0 0 1000 1000" data-size="21"><path transform="matrix(1 0 0 -1 32 952)" d="M2 724h139c15 54 31 114 47 179 46-21 71-34 74-37 2-4 1-8-2-10-2-2-8-3-18-5-8-3-15-14-23-34-8-17-18-48-31-93h138l39 50 59-54c2-2 3-5 4-8 0-8-4-12-12-12H182c-28-90-53-170-77-242h120v199l72-27c4-2 7-4 8-6 0-5-2-8-6-10l-26-13V458h59l33 43 53-51c2-2 3-5 4-8-1-5-5-8-10-7H273V306l159 41 7-16-166-55V146l4-97c2-11-4-22-15-31-12-10-26-16-41-18l4 136v121c-73-24-116-40-129-49-14-8-32-20-53-35L0 237l225 57v141H113l-29-32-63 51c25 11 42 26 49 45l65 201H84c-14 0-36-2-66-8L2 724m494-176c45-21 72-34 82-39 5-4 3-8-4-12l-25-16V294c96 62 166 119 211 172 41-35 61-56 58-61-2-4-4-6-7-6-3 1-8 1-16 0-9 0-27-8-57-25-28-16-91-51-189-105V106c0-20 4-31 12-34 7-1 15-2 23-2h160l24 2c20 5 35 19 43 44l5 129h20l2-62c1-55 14-83 39-85-7-17-16-32-27-43-12-12-30-20-53-24l-33-4H582c-18 0-34 1-49 4-13 4-24 13-31 26-4 10-6 27-6 49v442m182 314c6-2 8-6 6-9 0-4-9-9-28-14 19-51 39-93 61-125 21-31 49-63 84-94s80-53 135-66v-16c-30 0-49-2-59-6-10-2-22-9-37-19-35 26-63 52-84 78-20 25-39 53-57 84-16 29-36 80-60 152-35-70-73-135-112-193-38-58-78-107-121-149l-11 10c40 59 76 115 109 170 31 55 66 132 103 232l71-35Z"/></symbol><symbol id="轮_H" viewBox="0 0 1000 1000" data-size="21"><path transform="matrix(1 0 0 -1 48 952)" d="M604 887c32-7 60-14 83-23 5-2 7-5 7-10 0-6-6-11-17-13-9-2-16-3-21-4 15-31 30-59 45-84 20-30 41-59 65-87 24-26 47-48 71-65 23-18 45-31 66-38l-3-18c-32 0-53-10-64-30-22 16-41 35-59 57-20 24-37 48-50 74-17 24-33 51-48 83-15 26-29 58-43 97-8-24-16-45-24-64-12-24-26-49-41-75-18-27-34-49-48-68-16-21-32-40-49-56-19-21-39-39-61-55l-17 22c24 20 46 41 64 63 18 23 35 47 53 73 16 28 31 55 46 81 11 25 20 49 27 71 7 20 13 43 18 69M0 776c25-7 58-12 98-12 2 13 4 24 6 34 7 43 11 79 13 105 35-4 66-11 93-19 5-3 8-6 8-11 0-6-6-11-18-15-13-3-28-5-43-6-4-31-9-60-14-88h150l46 52c25-19 48-37 70-54 6-4 9-8 9-12 0-8-5-13-15-13H138c-9-34-17-68-24-101-11-58-24-112-39-160h113v138c0 35-1 61-5 78 37-4 69-12 94-23 8-3 12-7 12-13s-4-10-12-12c-13-8-27-12-42-13V476h36l42 47c24-18 46-35 66-51 6-4 9-7 9-11 0-9-6-13-16-13H235V272c56 17 112 37 169 60l10-21c-57-27-116-53-179-79V92c0-15 1-24 1-29V34c0-23-10-34-30-34-16 0-24 6-24 19 0 12 1 30 3 52s3 42 3 58v84c-35-12-71-25-109-39-6-33-12-50-19-50-10 0-27 29-53 86 55 12 116 28 181 47v191H69c0-3-1-6-2-8-4-9-14-14-28-14-16 0-24 5-24 14l1 11c4 7 10 29 20 67 16 51 29 100 40 145 5 25 11 50 17 73-35-1-59-3-72-6L0 776m772-393c-26-18-55-35-86-52-30-14-60-28-90-40-24-10-47-19-72-27V115c0-12 3-21 8-25 7-5 19-9 36-11 21-4 52-7 94-7 32 0 58 1 77 3 16 2 28 5 37 9s15 13 18 27c6 19 13 66 19 143l19-7c-1-39-1-78-1-117 0-9 2-14 6-18 2-4 8-8 18-11 11-7 16-14 16-23 0-6-3-12-11-17-10-10-23-16-40-19-21-5-44-7-71-9-30-3-59-5-87-5-42 0-73 2-96 5-29 3-49 8-59 13-10 4-17 12-23 23-4 9-6 19-6 32v343c0 28-3 51-7 68 34-6 62-12 85-19 7-2 10-6 10-13 0-6-3-11-10-13-11-4-21-7-32-9V286c23 11 42 21 59 31 25 13 48 27 68 43 21 15 39 30 54 45 17 15 30 30 38 45 53-32 79-52 79-61 0-7-6-11-17-11-9 0-20 2-33 5Z"/></symbol><symbol id="软_G" viewBox="0 0 1000 1000" data-size="21"><path transform="matrix(1 0 0 -1 32 960)" d="M0 751h164c18 49 35 105 49 168 47-23 72-36 74-39s2-7 0-10c-2-4-8-6-17-6-10 0-19-10-26-27-6-18-17-47-31-86h139l33 51 58-55c2-3 4-6 4-10 0-8-4-11-11-11H203c-32-99-60-184-86-256h125v201l72-27c5-4 8-7 8-8 0-4-2-7-6-10l-27-14V470h70l36 49 52-57c2-2 4-5 4-8 0-4-4-7-10-8H289V313l188 45 9-15-197-61V134l4-93c2-10-5-19-20-27-15-10-27-14-35-12l4 122v143c-70-24-115-39-135-47-17-6-35-18-56-35L8 247l234 55v144H125l-29-31-63 47c26 12 43 29 51 51l74 213H82c-14 0-37-3-68-8L0 751m637 137c4-2 6-4 6-6 2-5 1-8-2-10-22-6-36-16-41-31-21-47-39-92-55-135h240l37 43 51-47c12-8 18-14 18-17-1-5-6-8-16-10-17-8-34-20-51-37s-45-56-86-119l-17 9 76 153H533c-28-65-56-118-86-159l-13 8c38 94 66 170 84 227 17 56 32 111 45 164l74-33m37-280c4-2 6-4 6-5 0-6-2-10-6-12l-18-6c14-114 30-197 47-248 18-52 37-92 57-121 19-28 41-52 64-72 24-19 61-37 112-54V74c-22 1-41 0-59-4s-35-11-49-23c-37 37-68 76-94 116-24 41-43 86-56 135-14 47-28 138-41 273-9-115-22-203-39-263-16-62-41-114-77-157-35-41-95-86-181-133l-6 13c62 45 109 87 143 126 31 41 56 90 74 147 15 56 30 168 45 334l78-30Z"/></symbol><symbol id="轰_G" viewBox="0 0 1000 1000" data-size="21"><path transform="matrix(1 0 0 -1 47 965)" d="M21 802h268c24 35 50 78 80 129 49-24 72-38 70-43-1-4-4-7-7-8-3 0-10-3-22-8-12-6-22-14-31-23-10-10-22-26-37-47h394l41 49 63-57c2-2 3-5 4-8 0-6-4-10-12-10H326c-35-45-68-88-99-129h199v108l74-22c5-1 7-2 8-4 4-3 4-8 0-13l-31-14v-53h193l31 43 65-58c2 0 3-2 4-6 0-4-3-6-8-6H477v-88h300l34 49 58-59c4-2 6-4 6-7 0-6-5-9-14-8H477v-71c0-9-5-17-16-23-12-6-23-8-35-8v102H105c-14 0-37-3-68-8l-17 33h406v88H229l-38-25-48 52c29 8 48 17 56 28l72 99H104c-13 0-35-2-67-7l-16 33m16-420h272l25 31 55-43c4-2 6-4 6-8 0-3-3-6-8-9l-24-8c-18-41-39-81-62-119 25-18 43-32 54-41 12-11 20-23 26-38 4-14 4-25 0-34-5-9-13-15-22-15s-16 5-21 13c-4 7-11 17-20 31-7 11-21 27-41 46-28-37-60-68-97-92C142 70 85 42 8 12L0 23c61 32 111 63 150 91 39 30 71 62 94 98-55 39-106 70-154 94l6 11c54-17 110-41 168-72 17 29 33 67 49 111H104c-17 0-32-3-45-9l-22 35M309 16c56 19 109 41 158 66 47 25 90 56 129 91-42 47-76 109-102 183h-25l-22-7-23 33h289l27 33 61-45c8-10 3-17-14-19-4-3-12-8-21-16-32-61-69-114-112-160 24-20 52-36 84-49 31-12 58-21 80-26 24-6 53-10 88-14V68c-27 0-47-4-58-11-12-7-22-15-30-26-27 12-59 28-95 47-35 20-69 42-100 68-37-33-81-61-131-85-51-21-110-41-178-61l-5 16m211 340c29-69 62-121 99-156 35 35 69 87 100 156H520Z"/></symbol><symbol id="轱_G" viewBox="0 0 1000 1000" data-size="21"><path transform="matrix(1 0 0 -1 36 965)" d="M404 683h223v244l92-33c8-7 9-12 2-16l-43-18V683h140l39 52 67-62c2-2 3-5 4-8 0-8-4-12-12-10H678V433h82l35 39 51-45c6-4 9-9 9-14 0-3-10-12-31-27V163l4-100c0-9-6-17-19-26-12-8-24-12-36-12v79H525V49c0-8-5-16-17-24-12-7-24-11-37-11l4 132v326l56-39h96v222H482c-13 0-33-2-62-8l-16 36m121-551h248v273H525V132M10 755h138c16 51 32 109 47 176 47-22 72-34 75-37 1-5 1-8-2-10-2-2-8-4-18-6-8-3-16-14-23-33-8-19-19-48-32-90h143l39 47 57-55c2-2 3-4 4-8 0-8-4-11-12-11H189c-27-90-52-171-76-243h119v190l75-31c6-4 7-9 2-16l-28-10V485h63l33 43 53-52c2-5 3-8 4-10-2-6-5-9-10-8H281V325l135 33 8-15-143-49V146l4-97c1-11-4-22-15-31-12-10-26-16-41-18l3 136v142c-72-23-117-39-134-47-18-7-37-19-59-35L0 259l232 53v146H121l-33-33-59 56c25 12 41 26 49 45l65 202H92c-14 0-36-3-67-8l-15 35Z"/></symbol><symbol id="轲_G" viewBox="0 0 1000 1000" data-size="21"><path transform="matrix(1 0 0 -1 37 966)" d="m424 655 58-37h98l29 39 51-39c6-4 9-8 10-14 1-1-9-9-27-23V378l3-70c0-10-5-19-17-26-11-8-23-11-37-11v50H473v-47c0-8-6-17-18-25s-23-12-35-12l4 141v277m49-308h119v246H473V347m-71 466h416l39 53 63-60c2-3 4-6 6-10-1-5-2-7-4-8H805V94c0-26-8-46-24-61-14-13-34-25-60-33-9 23-22 40-39 49-17 10-50 23-98 37l4 19c84-16 133-22 146-17 16 5 23 14 22 27v673H484c-14 0-37-3-68-8l-14 33M16 763h138c16 50 31 107 45 170 47-22 72-34 74-37 2-5 2-8-2-10-1-2-7-4-17-6-8-2-16-12-24-29-5-18-15-47-29-88h92l39 47 59-55c2-2 3-5 4-8 0-8-4-12-12-12H195c-27-89-52-170-76-242h96v199l74-31c7-3 7-8 2-15l-27-10V493h35l33 43 53-53c2-4 3-7 4-9-2-6-5-9-10-8H264V327l142 27 8-17-150-41V153l4-96c1-11-4-22-16-32-12-9-25-15-41-17l4 136v138c-61-18-100-31-117-39-18-8-37-19-59-35L0 274l215 43v149h-88l-33-33-59 56c25 11 41 26 49 45l64 201H98c-14 0-36-2-67-7l-15 35Z"/></symbol><symbol id="轳_G" viewBox="0 0 1000 1000" data-size="21"><path transform="matrix(1 0 0 -1 40 965)" d="m809 659 58-47c5-2 7-6 8-11 0-2-10-10-29-24V470l4-92c2-10-4-20-18-27-12-8-23-13-35-14v59H510c-3-55-10-106-22-153-11-45-30-86-54-123-24-36-66-76-125-120l-10 14c48 48 82 89 101 122 18 34 33 77 45 131 12 53 17 143 16 271v121l62-43h94v311c55-18 82-28 82-31v-6c0-2-11-8-33-18V772h148l40 47c41-35 62-54 64-58 3-4 3-7 2-10-1-2-4-4-10-6H666V618h115l28 41m-297-68V423h285v168H512M10 755h138c16 51 32 109 47 176 47-22 72-34 75-37 1-5 1-8-2-10-2-2-8-4-18-6-8-3-16-14-23-33-8-19-19-48-32-90h145l37 45 55-53c2-2 3-4 4-8 0-8-4-11-12-11H189c-27-88-52-168-76-241h119v200l75-32c6-3 7-8 2-15l-28-10V487h47l33 43 53-52c2-5 3-8 4-10-1-6-5-9-10-8H281V327l145 37 6-17-151-53V149l4-96c1-11-4-22-15-32-12-9-26-15-41-17l3 136v140c-72-28-117-46-134-54-18-8-37-20-59-36L0 259l232 56v145H121l-33-33-59 56c25 11 41 26 49 45l65 200H92c-14 0-36-3-67-8l-15 35Z"/></symbol><symbol id="轴_G" viewBox="0 0 1000 1000" data-size="21"><path transform="matrix(1 0 0 -1 57 958)" d="m420 722 55-37h134v222l79-29c5-1 7-5 7-10 1-2 0-4-4-6l-33-13V685h133l33 41 57-45c4-2 6-5 6-8 0-5-11-14-32-27V147l4-88c0-7-5-13-17-20-10-7-22-12-35-16v87H469V51c-1-9-8-17-22-26-12-7-23-11-31-11l4 126v582m49-584h140v244H469V138m189 244V138h149v244H658m-189 27h140v248H469V409m189 248V409h149v248H658M6 739h125c17 53 33 112 49 176 45-23 69-37 72-41 1-4 0-6-4-8s-10-4-18-8c-7-2-15-13-23-33s-18-49-29-86h113l39 47 53-53c2-2 3-4 4-7 0-8-4-12-12-12H168c-28-91-55-172-80-244h111v177l74-29c6-4 8-6 8-8 0-3-2-6-6-9l-27-12V470h39l33 43 53-51c2-2 3-5 4-8-1-4-5-7-10-8H248V300l135 27 6-17-141-39V138l4-101c1-6-7-14-22-23-13-9-25-13-35-14l4 132v127c-68-22-107-34-117-37-8-4-22-13-43-28L0 257l199 35v154H94l-30-31-56 51c25 12 41 27 49 47l66 201H70c-6 0-22-3-49-8L6 739Z"/></symbol><symbol id="轵_G" viewBox="0 0 1000 1000" data-size="21"><path transform="matrix(1 0 0 -1 37 973)" d="m496 901 63-45h214l34 43 60-43c4-2 6-5 6-7 1-4-8-12-27-24V548l4-111c0-8-6-16-18-24s-25-12-39-14v69H549v-35c0-9-7-17-20-26-13-8-26-12-37-13l4 142v365m53-406h244v334H549V495M379 23c47 70 81 126 103 169s53 103 92 180c49-28 74-44 74-49 0-4-2-8-7-10-4 0-12-1-24-5-10-4-23-19-39-43-16-26-37-59-62-98-24-39-65-91-121-155l-16 11m324 326 10 11c56-48 98-91 127-129 28-35 51-67 66-95 15-26 21-48 20-68-3-19-8-31-16-37-7-6-16-7-27-4-11 4-18 15-22 36-4 19-13 43-25 71-12 29-27 60-47 94-19 33-47 73-86 121M0 763h141c19 56 35 117 50 183 50-21 76-34 79-37 1-4 1-8-2-10-2-2-8-3-18-5-8-3-18-15-27-38-8-21-20-52-35-93h173l39 47 59-55c2-2 3-5 4-8 0-8-4-12-12-12H180c-28-89-53-170-76-242h130v194l75-32c6-3 7-8 2-15l-28-10V493h74l34 43 52-53c2-4 4-7 4-9-1-6-4-9-9-8H283V292l196 37 5-17-201-55V146l4-97c1-11-4-22-16-31-11-10-25-16-41-18l4 136v105c-73-17-118-31-136-41-18-8-37-19-59-35L0 233l234 47v186H111l-33-33-58 56c24 11 41 26 48 45l65 201H70c-13 0-32-2-54-7L0 763Z"/></symbol><symbol id="轶_G" viewBox="0 0 1000 1000" data-size="21"><path transform="matrix(1 0 0 -1 22 967)" d="M4 751h141c15 51 31 113 48 184 47-22 72-34 75-38 2-4 1-7-2-9-2-2-8-4-18-6-8-3-17-15-25-37-9-22-19-53-32-94h137l35 47 59-55c2-2 3-4 4-8 0-7-4-11-12-11H186c-28-84-54-161-79-233h120v194l74-32c6-3 7-8 2-15l-28-10V491h36l33 43 52-53c2-4 4-7 4-9-1-6-4-9-9-8H275V302l155 21 4-19-159-35V146l4-97c2-11-4-22-15-31-12-10-26-16-41-18l4 136v119c-69-14-112-26-129-33-18-7-37-18-59-34L0 259l227 35v170H115l-33-33-59 56c25 11 41 26 49 45l65 192H86c-14 0-36-3-66-8L4 751m504 96c45-17 69-27 74-32 3-3 3-6 2-9-2-2-7-4-14-6-7 0-16-10-25-29-8-20-18-46-29-79h111v235c51-19 78-30 82-33 5-4 5-8 2-12s-14-10-33-18V692h109l39 49 65-60c1-2 2-5 2-8 0-5-3-7-8-8H678c0-70-4-133-12-189h160l41 52 63-60c2-2 3-5 4-8 0-8-4-12-12-12H688c14-81 35-143 60-185 25-43 53-79 82-108 30-27 72-49 125-65V72c-21 3-41 2-59-2-16-2-30-9-42-21-32 27-60 56-84 89-25 32-45 71-63 115-18 43-33 101-47 174-8-89-36-168-84-239C529 118 443 57 320 6l-7 17c100 56 173 114 218 175s73 144 84 250H494c-14 0-36-2-66-8l-20 36h209l8 74 4 115H502c-23-49-46-90-68-121l-16 10c18 43 34 88 49 134 13 47 27 100 41 159Z"/></symbol><symbol id="轷_G" viewBox="0 0 1000 1000" data-size="21"><path transform="matrix(1 0 0 -1 21 973)" d="M699 827V466h155l41 53 58-63c2-1 3-3 4-8 0-6-4-9-12-8H699V107c0-23-4-43-13-58-11-14-34-28-69-41-4 21-17 37-37 47s-53 22-98 37l4 19c47-9 80-15 100-17 18-2 33-2 47 0 12 2 17 14 15 34v312H506c-14 1-35-2-65-9l-17 35h224v355c-84-8-163-13-236-15l-2 17c110 14 203 29 279 45 77 14 137 29 180 43 37-40 55-62 55-66s-1-7-2-8c-3-2-10-2-22 0-11 1-29 2-52 2-22 0-71-4-149-12m-260-94 12 8c42-39 72-69 90-90 17-21 26-41 27-60 0-20-4-34-11-43-8-10-19-14-32-12-12 2-19 14-21 35-1 20-5 41-14 65-8 23-25 56-51 97m403 32c49-24 74-39 76-43 2-5 2-8 0-10-2-1-10-4-25-10-14-4-32-23-53-58-22-36-52-79-90-131l-16 11c36 71 60 122 75 153 13 31 24 60 33 88M0 782h162c18 47 35 102 51 164 45-22 70-35 72-39s1-8-2-10c-2-1-8-3-17-5-9-3-16-11-22-26-6-14-17-42-33-84h109l35 47 59-55c2-2 3-4 4-7 0-8-4-12-12-12H199c-32-90-62-171-90-242h125v181l75-31c6-3 7-8 2-16l-28-9V513h71l33 43 52-53c2-5 4-8 4-10-1-6-4-8-9-8H283V312l192 37 4-20-196-53V161l4-112c1-11-4-22-16-31-11-10-25-16-41-18l4 151v110c-68-18-113-30-134-37s-41-18-63-34L0 257l234 45v183H117l-33-33-59 57c25 11 41 26 49 45l76 201H70c-17 0-35-3-54-8L0 782Z"/></symbol><symbol id="轸_G" viewBox="0 0 1000 1000" data-size="21"><path transform="matrix(1 0 0 -1 25 967)" d="M14 761h144c18 43 37 101 59 174 45-23 69-36 72-39 2-5 1-8-2-10-2-2-8-4-17-6-9-3-17-13-26-31-8-18-21-47-37-88h107l36 47 58-55c2-2 3-5 4-8 0-8-4-12-12-12H195c-35-89-67-170-95-242h125v182l74-31c6-4 7-9 2-16l-28-10V491h47l34 43 52-53c2-4 4-7 4-9-1-6-4-9-10-8H273V317l139 30 4-20-143-43V163l4-114c2-11-4-22-15-31-12-10-26-16-41-18l4 153v116c-69-23-112-38-129-45-18-7-37-18-59-34L0 257l225 49v158H107l-33-33-58 56c24 11 41 26 48 45l82 201H84c-18 0-36-2-55-7l-15 35m674 146c8-5 8-10 0-15l-14-10c17-43 37-80 60-111 24-32 53-60 88-84 35-26 78-43 127-53v-18c-20 2-37 0-51-6-14-4-27-13-39-27-43 35-77 66-101 94-24 26-43 54-59 84-14 28-30 64-49 107-45-86-82-150-113-191-29-41-73-92-131-153l-15 14c50 61 97 128 138 201s69 137 82 194l77-26m25-316c2-7-3-10-14-10-15-2-28-8-37-19-77-88-153-155-226-200l-14 12c99 91 176 180 228 266l63-49m80-156c3-6-1-10-10-12-17 1-33-4-47-16-13-11-48-41-105-92-57-48-127-92-209-130l-10 15c64 38 124 84 180 137s102 103 138 148l63-50m88-143c6-8 1-12-16-14-13 4-35-9-64-41-84-74-161-128-231-163-69-32-148-57-238-74l-2 14c80 26 147 54 203 86 56 28 108 62 155 102 46 39 89 85 128 139l65-49Z"/></symbol><symbol id="轹_G" viewBox="0 0 1000 1000" data-size="21"><path transform="matrix(1 0 0 -1 42 967)" d="M469 228c-36-54-84-108-143-164l-12 12c41 54 77 105 106 153 29 49 55 96 76 143 49-25 74-41 74-47 0-4-2-7-6-8-3 0-11-2-23-5-12-4-36-32-72-84m277 123c69-49 115-88 137-118 21-28 32-52 33-72 2-20 0-35-6-45-6-9-15-13-27-12s-22 17-29 45c-6 30-19 59-38 88-18 29-45 63-80 102l10 12M479 851l52-45c109 33 201 68 278 105 32-37 48-57 48-60 1-4 0-6-3-6-3-1-8-2-16-2h-29c-11 0-34-4-69-12-33-8-105-24-217-49-9-86-20-179-33-279h141v232l84-33c1-3 2-6 2-10 0-2-12-8-35-19V503h115l39 53 64-63c2-2 2-5 2-8 0-4-2-7-7-7H682V109c1-26-2-48-10-66-7-17-30-31-68-43-9 27-25 46-49 55-22 8-49 15-82 23l6 20c76-17 121-22 134-18 14 5 20 18 18 40v358H498l-27-36-65 45c18 9 30 22 35 37 11 82 24 191 38 327M4 765h144c13 43 30 99 49 170 47-23 72-36 74-39 2-5 2-8-1-10-2-2-8-4-18-6-8-3-16-12-23-27-8-14-19-43-32-88h108l35 47 58-55c2-2 4-5 4-8 0-8-4-12-11-12H188c-36-91-65-174-86-246h113v182l74-31c7-4 7-9 2-16l-27-10V491h35l33 43 53-53c2-4 3-7 4-9-2-6-5-9-10-8H264V317l142 32 4-20-146-43V173l4-114c1-11-4-22-16-32-12-9-25-15-41-17l4 153v109c-69-18-110-33-125-44-14-10-31-23-53-38L0 257l215 49v158H109l-33-33-58 56c25 11 42 26 50 45l71 205H74c-17 0-36-2-54-8L4 765Z"/></symbol><symbol id="轺_G" viewBox="0 0 1000 1000" data-size="21"><path transform="matrix(1 0 0 -1 65 958)" d="m795 421 53-43c5-2 7-6 7-12 0-4-10-12-31-23V132l4-83c0-10-6-20-17-29-12-10-25-14-38-14v80H510V41c0-10-6-19-18-27-12-9-24-14-37-14l4 142v279l57-35h244l35 35M510 110h263v250H510V110m39 692h-88c-12 0-29-2-53-6l-19 31h386l30 37c41-26 62-41 64-45s2-7 0-9-12-9-31-22c-4-139-10-221-18-244-7-22-19-39-35-53-16-12-39-22-68-31-7 21-18 37-33 49-16 11-41 23-77 37l6 16c30-8 56-15 80-20 23-5 41-4 55 2 13 4 22 18 25 41 2 21 8 94 16 217H600c-4-71-21-147-51-229-29-80-95-148-195-205l-10 14c84 66 138 136 162 209 23 70 37 140 43 211M0 737h137c15 48 33 108 52 178 47-22 72-35 75-39 2-5 1-8-2-10-2-2-8-4-18-6-8-2-15-11-23-27-8-14-20-46-35-96h109l35 47 59-55c2-1 3-4 4-7 0-8-4-12-12-12H176c-31-87-58-167-78-238h113v170l74-32c7-3 7-8 2-15l-27-10V472h35l33 43 53-53c2-5 3-8 4-10-2-6-5-8-10-8H260V304l127 33 4-20-131-45V153l4-104c1-11-4-22-16-31-12-10-25-16-41-18l4 153v104c-68-24-109-40-123-49-12-10-29-22-51-37L0 235l211 57v152H105l-33-33-58 57c25 11 42 26 50 45l63 197H66c-14 0-31-3-50-8L0 737Z"/></symbol><symbol id="轻_G" viewBox="0 0 1000 1000" data-size="21"><path transform="matrix(1 0 0 -1 48 964)" d="M416 378h318l36 49 58-55c2-2 3-4 4-8 0-8-4-11-12-11H641V84h160l37 54 62-62c2-2 4-4 4-6 0-7-4-11-11-11H416c-21 0-39-4-53-10l-17 35h246v269H480c-13 0-28-3-42-8l-22 33M4 757h142c16 50 32 107 47 172 41-21 64-34 69-39 2-5 2-8 0-10-4-2-10-4-18-6s-15-12-23-29c-6-18-16-47-30-88h108l35 45 57-51c4-3 5-7 5-10 0-6-3-10-11-10H186c-42-121-71-203-86-248h111v180l66-29c6-2 8-4 8-6 0-6-2-10-6-12l-23-12V483h41l25 38 49-47c2-3 3-6 4-8-1-6-5-9-10-8H256V310l119 27 8-16-127-39V126l4-87c0-7-7-16-20-25S216 0 207 0l4 120v145c-67-21-107-35-121-43-14-7-31-18-53-34L0 249l211 49v160H102l-30-27-52 47c22 11 39 26 50 44l69 209H76c-14 0-33-2-56-7L4 757m391 86h293l31 39 58-51c5-3 8-5 8-8 1-6-4-11-15-15-14-2-30-15-47-39s-45-64-84-120c42-18 84-39 125-62 41-24 68-44 82-61s22-33 25-47c2-13-1-24-8-31-6-6-13-9-23-8-11 2-22 15-33 39-12 23-36 50-71 81-35 29-71 54-107 76-32-38-63-72-92-102-30-30-86-74-168-133l-10 14c82 74 138 128 168 162 30 35 57 70 82 106 25 35 51 80 79 134H465c-16 0-33-2-51-7l-19 33Z"/></symbol><symbol id="轼_G" viewBox="0 0 1000 1000" data-size="21"><path transform="matrix(1 0 0 -1 35 961)" d="M396 495h155l35 41 49-47c2-2 3-4 4-8 0-7-4-11-12-11h-96V214l147 23 6-17c-154-36-241-59-262-69-22-9-41-21-59-35l-43 63 162 27v264h-27c-6 0-19-3-41-8l-18 33M10 743h144c13 43 30 100 49 170 47-22 72-35 74-39 2-5 2-8-2-10-2-2-7-4-17-6-8-2-16-11-24-27-7-14-18-43-31-88h108l35 47 58-55c2-2 4-4 4-7 0-8-4-12-12-12H193c-35-92-64-174-86-246h114v181l74-31c6-3 7-8 2-16l-27-9V470h35l33 43 53-53c2-5 3-8 4-10-2-6-5-8-10-8H270V308l146 23 4-19-150-38V151l3-102c2-11-3-22-15-31-12-10-26-16-41-18l4 142v119c-68-18-110-30-127-37s-35-18-57-34L0 259l221 39v144H115l-33-33-59 57c26 11 43 26 51 45l71 205H80c-17 0-36-3-55-8l-15 35m863-6 55-56c1-4 2-7 2-10 0-5-3-7-8-8H701c0-83 3-152 10-209 6-55 15-105 27-150 12-44 27-80 45-110s33-50 43-62c10-11 18-17 24-21 5-4 10 10 15 40 5 32 12 75 20 129l17-2c-4-62-6-111-6-146-1-34 1-57 6-69 6-12 10-22 14-30 3-5 3-10 2-13-3-4-8-6-16-6-7 0-14 2-21 6-8 3-24 15-49 35-25 22-51 51-76 87-26 37-46 84-61 140-15 55-26 107-31 156-4 50-8 125-12 225H459c-27-1-48-4-63-10l-23 37h279v233l75-27c5-4 9-8 9-12 1 0 0-1-4-4l-31-14V690h137l35 47M754 862l6 12c25-8 47-18 66-29 20-11 31-24 35-39 5-16 4-28-4-37-5-11-13-15-23-14-8 1-14 6-16 16-2 9-7 22-15 39-9 15-25 33-49 52Z"/></symbol><symbol id="载_G" viewBox="0 0 1000 1000" data-size="21"><path transform="matrix(1 0 0 -1 43 964)" d="M88 786h189v143l78-32c9-4 10-9 2-15l-31-14v-82h102l33 47 49-51c2-2 3-4 4-8 0-7-4-11-12-11H326V663h238v262l79-35c7-4 9-9 3-14l-33-14V663h190l39 49 54-53c2-3 4-6 4-10 0-7-4-11-11-11H615c-2-48 0-106 8-174 7-67 18-123 31-166 52 94 89 180 110 258l68-37c3-2 5-5 8-8 2-6-5-11-20-14-15-4-28-18-37-41-29-66-65-135-107-207 11-22 26-44 45-66 17-23 38-43 62-61s39-26 45-26c6-1 12 12 18 38 5 25 14 68 27 129l20-4c-4-43-7-78-8-106-2-26-2-48 0-65 0-17 6-33 17-49 10-16 13-27 10-31-4-6-16-5-35 2-18 6-42 18-72 37-30 20-59 43-86 69-26 26-50 56-73 92C568 112 486 43 400 0l-7 14c86 62 163 141 232 237-21 52-37 118-47 197-8 80-12 143-10 190H82c-14 0-36-3-66-8L0 663h277v100H170c-14 0-36-3-66-8l-16 31m211-185c5-4 8-7 8-10 0-5-5-8-14-10-16-2-35-21-57-59h186l33 40 49-43c4-3 6-8 6-14s-4-9-12-8H225c-19-40-46-90-80-150h132v111l75-25c11-4 11-10 2-18l-28-14v-54h94l31 39 43-45c4-4 6-8 6-12-1-4-4-7-10-8H326v-97l182 21 4-19-186-36v-72l4-75c0-8-6-17-19-25-12-8-25-12-38-14l4 106v71c-119-20-192-39-218-59l-38 61 256 33v105H141l-28-23-41 47c15 6 29 17 43 33l63 119H98c-14 0-36-3-67-8l-15 33h173l51 106 59-27m379 252 8 11c56-21 92-41 109-58 16-18 23-34 19-49-2-14-7-24-15-29-7-5-14-6-22-2-7 3-12 10-15 21-2 10-9 24-20 41-10 16-31 37-64 65Z"/></symbol><symbol id="轾_G" viewBox="0 0 1000 1000" data-size="21"><path transform="matrix(1 0 0 -1 34 957)" d="M580 790c43-18 66-28 70-31 2-4 4-8 4-12s-7-7-19-8c-12 0-28-15-47-43-20-27-57-77-111-148l302 15c-18 43-48 86-90 131l10 12c43-31 74-57 96-78 20-20 36-39 49-59 13-17 21-35 23-52 4-17 2-31-6-43-7-12-18-17-31-14-12 3-19 12-21 27-1 16-6 34-16 53-117-12-197-20-240-25-43-6-79-18-108-36l-50 67c31 5 54 17 70 37 43 66 81 135 115 207m-205 29h420l39 57 62-64c2-3 4-6 4-10 0-5-5-7-15-8H457c-14 0-36-3-66-8l-16 33m37-519h192v185l76-27c6-2 9-6 9-12 0-2-2-4-7-6l-30-17V300h119l40 45 60-55c2-3 3-6 4-10s-5-7-16-8H652V78h166l41 52 67-64c4-2 6-5 6-9-1-4-6-6-16-6H436c-15 0-38-3-69-10l-17 37h254v194H498c-14 0-36-2-66-7l-20 35M14 743h144c15 43 34 100 57 170 47-22 71-35 74-39 2-5 1-8-2-10-2-2-8-4-17-6s-18-11-28-27c-8-14-19-43-35-88h96l35 47 58-55c2-2 4-4 4-7 0-8-4-12-11-12H197c-36-92-67-174-95-246h125v170l72-32c6-3 7-8 2-15l-28-10V470h43l34 43 52-53c2-5 4-8 4-10-1-6-4-8-10-8H273V302l149 37 6-20-155-48V151l4-102c2-11-4-22-15-31-13-10-26-16-39-18l4 142v111c-69-24-112-39-129-47-17-6-35-18-57-33L0 235l227 55v152H109l-33-33-58 57c25 11 42 26 50 45l80 205H84c-18 0-36-3-55-8l-15 35Z"/></symbol><symbol id="轿_G" viewBox="0 0 1000 1000" data-size="21"><path transform="matrix(1 0 0 -1 40 973)" d="M0 774h154c20 60 37 117 51 172 40-23 63-37 66-41 2-2 2-5 0-8-1-1-6-3-15-5-8-2-16-11-24-28-6-15-17-45-31-90h106l33 43 51-48c2-2 3-4 4-6 0-8-4-12-12-12H191c-31-95-60-178-87-250h115v180l72-32 2-7-4-6-27-12V501h43l33 41 51-49c2-2 3-5 4-8-1-6-4-8-10-7H262V319l168 30 9-16-177-43V147l4-73c0-12-6-23-18-31s-23-12-33-12l4 122v127c-73-17-117-30-135-37-16-6-33-15-53-25L2 274l217 39v165H109l-29-32-55 45c28 15 45 32 51 51l72 209H78c-12 0-33-3-64-8L0 774m637 71c-10-58-22-108-35-151h197l39 45 57-51c1-1 3-4 3-7 0-7-3-10-11-10H691c12-37 28-69 47-96 20-28 45-53 76-74 34-22 69-37 106-47v-16c-18 0-34 0-49-1-14-2-27-9-41-20-33 27-59 52-76 74-18 21-33 44-47 69-12 25-25 62-41 111h-70c-30-73-63-132-100-178-38-45-86-86-144-123l-12 12c44 33 84 73 119 121 34 47 64 103 90 168H426c-15 0-37-3-69-8l-13 31h211c13 41 23 88 29 143-61-5-121-12-180-22l-2 18c90 16 165 31 227 47 62 14 113 29 154 47 34-41 50-63 49-65-2-2-5-4-8-6-2 0-8 1-17 4s-26 4-51 2c-26-2-65-8-119-17M504 470l76-28c2 0 3-2 4-4 1-3-1-6-4-7l-29-18v-82c-5-92-26-161-63-207-37-44-95-86-175-124l-8 14c74 43 127 89 158 137 29 49 43 106 41 170v149m197-8 78-29c2-5 2-8 2-8l-6-6-29-16V144l4-83c0-12-6-22-18-30-11-6-23-10-35-11l4 127v315Z"/></symbol><symbol id="辀_G" viewBox="0 0 1000 1000" data-size="21"><path transform="matrix(1 0 0 -1 20 978)" d="m625 952 66-23c13-5 15-11 8-16 0-3-2-4-8-4-7-4-16-12-27-23-21-28-38-53-49-74h162l30 39 48-36c6-2 10-7 10-13 0-2-10-9-27-20V483h45l33 36 39-45c7-10 5-17-4-20H838V90c1-22-7-41-22-57-19-17-39-28-60-33-5 20-16 35-33 47-18 10-44 21-78 35l5 18c44-10 72-16 84-18 11-2 24-2 37 0 13 3 19 10 20 22v350H543c-4-122-22-218-55-289C455 95 410 40 352 2l-10 14c51 49 88 107 111 172 23 67 37 156 43 268h-43c-15-1-32-3-49-8l-19 33h109v366l51-35h45c17 50 29 97 35 138v2m-80-469h246v303H545V483m45-89c45-26 74-45 88-57 13-12 23-27 27-43 5-16 3-29-6-41-8-10-18-14-31-12-14 2-20 9-20 22s-4 29-13 49c-8 18-26 42-53 72l8 10m12 296c41-21 68-39 82-52 15-13 24-26 27-39 3-12 2-24-4-36s-16-17-29-15c-14 1-20 8-20 19 0 10-4 25-13 45-10 20-27 43-51 69l8 9M0 784h139c15 48 30 106 45 172 46-21 71-34 74-37 2-5 1-8-2-10s-8-4-16-6-15-13-23-33c-8-18-18-47-29-86h136l39 51 59-55c2-2 3-4 4-8 0-7-4-11-12-11H182c-30-90-56-171-78-242h119v152l72-27c4-2 7-4 8-6 0-5-2-8-6-10l-24-14v-95h57l33 43 53-51c2-3 3-5 4-8-1-6-5-9-10-8H273V323l157 41 6-17-163-55V144l4-93c2-11-4-22-17-31-12-10-26-16-41-18l4 136v136c-69-22-109-37-119-45-10-5-26-16-47-31l-43 65 209 49v183H111l-29-31-62 51c24 11 41 26 48 45l65 201H82c-14 0-36-3-66-8L0 784Z"/></symbol><symbol id="辁_G" viewBox="0 0 1000 1000" data-size="21"><path transform="matrix(1 0 0 -1 30 960)" d="M422 542h275l39 43 55-51c2-2 3-4 4-8 0-6-4-9-12-9H635V331h94l35 47 54-51c2-2 4-6 4-10 0-7-4-11-11-11H635V82h166l33 48 64-52c2-2 4-5 4-10 0-7-4-11-11-11H410c-12 0-34-2-66-8l-16 33h258v224h-90c-14 0-36-3-66-8l-16 33h172v186h-96c-13 0-31-3-52-8l-16 33m238 354c6-4 9-7 10-8 6-5-3-12-25-22 25-58 50-105 76-140 22-36 50-67 84-96 33-27 78-49 134-65v-17c-22 2-39 1-50-2s-24-12-39-27c-32 19-61 46-88 80-28 32-52 67-73 103-21 37-43 89-66 156-42-87-83-157-121-207-39-48-87-100-143-154l-9 14c44 52 88 115 132 187 43 73 77 147 102 223l76-25M0 735h143c15 50 33 112 52 184 47-25 72-40 75-43 1-5 1-8-2-10-2-2-8-4-18-6-8-2-16-11-23-27-8-14-20-47-36-98h129l35 47 59-54c2-2 3-5 4-8 0-8-4-12-12-12H184c-36-94-65-176-86-246h105v189l74-29c7-3 8-8 2-16l-27-11V462h31l33 39 53-49c2-4 3-8 4-10-1-5-5-8-10-7H252V308l141 43 5-20-146-57V151l4-102c1-11-4-22-16-31-11-10-25-16-41-18l4 142v113c-40-14-72-27-98-41-24-12-44-26-62-41L2 235l201 59v141h-98l-33-34-58 57c25 11 42 26 50 45l69 205H70c-17 0-35-3-54-8L0 735Z"/></symbol><symbol id="辂_G" viewBox="0 0 1000 1000" data-size="21"><path transform="matrix(1 0 0 -1 34 965)" d="m445 372 55-31h223l31 35 57-45c3-3 5-5 5-8 0-4-10-12-31-25V109l4-68c0-8-4-16-14-23-9-6-22-10-37-12v68H492V39c2-9-2-18-13-27-12-8-25-12-38-12l4 122v250m47-272h246v215H492V100M4 747h135c15 50 33 111 52 184 47-26 72-40 75-43 2-5 1-8-2-10-2-2-8-4-18-6-8-3-16-12-23-27-8-15-20-47-35-98h111l35 47 59-55c2-2 3-4 3-8 0-7-3-11-11-11H180c-32-94-58-176-78-246h105v170l74-30c7-3 7-8 2-15l-29-12V474h57l33 39 52-49c2-5 4-8 4-10-1-6-4-8-9-8H254V290l146 23 6-19-152-35V157l4-102c1-11-4-22-16-32-11-9-24-15-39-17l4 141v100c-39-6-73-14-102-25-28-10-50-22-68-37L0 255l207 29v162h-98l-33-33-60 57c25 11 42 26 50 45l65 205H74c-17 0-36-3-54-8L4 747m600 131c2-2 3-5 1-8 2 0 0-2-3-6-12-2-22-6-30-11-8-7-22-30-43-69h215l31 39 59-51c6-3 8-6 6-7 1-4-4-8-16-12-10-4-19-9-25-14-6-4-16-17-29-41-14-23-28-45-43-68-16-24-38-52-67-84 16-16 35-33 59-49 23-15 49-30 78-45s74-27 135-35v-16c-22 0-39-3-53-7-14-5-27-16-39-34-33 18-69 41-108 71-37 29-71 56-101 82-32-31-70-62-115-92-46-29-107-59-184-88l-10 14c62 31 116 62 160 93 44 32 84 66 120 104-45 57-79 120-102 189-40-72-77-125-109-160l-12 8c29 50 57 106 84 166s49 116 64 168l77-37m-84-119-6-4c28-68 66-129 113-182 25 30 48 60 68 92 20 31 37 63 53 94H520Z"/></symbol><symbol id="较_G" viewBox="0 0 1000 1000" data-size="21"><path transform="matrix(1 0 0 -1 28 969)" d="M18 761h148c19 62 36 121 51 176 41-22 64-34 66-38 3-2 3-5 2-7-2-3-8-6-17-8-8-2-16-12-24-30-8-15-19-46-35-93h111l37 45 55-51c2-2 3-4 4-6 0-8-4-12-12-12H201c-30-91-59-174-86-246h115v172l67-29c5-2 8-4 8-6 0-5-2-8-6-10l-24-12V491h55l35 41 51-49c2-2 3-5 4-7-1-6-5-9-10-8H275V317l151 34 8-16-159-47V144l4-80c1-11-4-21-15-29s-23-13-37-14l3 113v140c-72-20-117-34-134-43-16-5-34-17-55-35L0 259l230 49v160H121l-29-30-53 47c25 12 41 28 49 47l68 205H88c-11 0-29-2-55-8l-15 32m804-2 39 49 55-55c2-3 3-5 4-8 4-8 1-12-10-12H520c-14 0-36-2-67-7l-15 33h384M568 599c-15-22-37-51-68-88-31-38-63-73-96-104l-11 10c41 57 73 104 97 141 22 35 45 79 71 132 44-21 66-35 66-41 0-5-3-8-8-9-4-2-10-4-17-6-8-2-19-14-34-35m149 82c54-34 94-61 119-82 25-22 42-41 51-59s11-34 8-49c-4-15-12-24-24-25-12-2-21 7-27 27-6 19-17 41-31 67-15 24-49 59-104 107l8 14M559 927l9 11c37-21 65-39 82-54 18-16 29-31 34-45 4-14 3-27-4-39-7-11-16-16-28-16-11 0-18 8-21 24-3 13-9 29-16 46-6 17-25 41-56 73m255-442c6-2 8-6 4-9 0-3-2-6-7-8-15-2-25-10-32-24-6-13-18-43-37-90-18-45-39-85-62-119 24-30 49-54 72-72 23-19 50-35 80-48 29-13 66-23 111-29V66c-29 2-48 0-58-5-11-6-22-14-33-26-44 24-78 47-102 69-24 18-56 50-96 94-26-34-62-68-109-100-47-34-114-66-201-98l-6 16c72 32 131 66 180 102 48 37 86 74 111 113-24 43-44 92-61 147-15 53-25 99-29 139l18 4c14-56 28-105 43-145 14-40 32-76 54-109 17 30 34 68 51 113 16 44 29 91 41 142l68-37Z"/></symbol><symbol id="辄_G" viewBox="0 0 1000 1000" data-size="21"><path transform="matrix(1 0 0 -1 28 972)" d="M322 841h498l34 39 60-51c2-3 3-4 4-4 0-8-4-12-12-12H619V274l72 18 4-18-76-23V126l4-83c0-10-6-20-18-29-11-9-24-13-37-14l4 122v119c-104-29-165-49-183-60-18-10-34-20-47-30l-33 61 91 19v582h-15c-12 0-28-2-47-7l-16 35m125-602 125 28v170H447V239m0 221h125v170H447V460m0 193h125v160H447V653m262 106 84-35c2-4 3-7 4-8-1-2-2-4-4-6l-37-16V153c2-22 6-33 12-34 5-2 11-3 19-4h49c18 0 29 7 35 21 6 13 10 31 12 52v96h21c2-43 6-76 10-99 4-24 14-39 29-47-9-21-21-37-35-48-13-10-29-16-47-18h-66c-18 0-35 3-49 8s-24 14-31 27c-4 13-6 29-6 48v604M0 763h137c15 49 32 109 51 181 44-23 68-37 70-41s1-7-2-9c-2-2-8-4-18-6-8-3-15-12-23-28-7-14-18-47-33-97h99l30 37 44-45c2-2 4-5 4-8 0-8-4-12-11-12H174c-29-91-56-172-78-242h97v184l73-30c6-3 7-8 2-15l-30-12V493h49l33 39 49-49c2-4 3-7 4-9-1-6-5-9-10-8H238V310l145 25 6-20-151-35V167l4-103c1-11-4-21-15-31-12-10-25-15-38-17l4 141v114c-52-13-86-23-103-32-16-6-32-17-49-31L2 272l191 32v162h-88l-33-33-58 56c25 11 42 26 50 45l63 201H70c-17 0-35-2-54-7L0 763Z"/></symbol><symbol id="辅_G" viewBox="0 0 1000 1000" data-size="21"><path transform="matrix(1 0 0 -1 29 970)" d="M414 753h217v187l70-31c5-1 7-2 8-4 7-2 8-7 2-13l-31-18V753h174l31 43 51-49c3-2 5-4 5-8 0-8-3-11-11-11H680V604h123l29 42 55-42c5-3 8-7 8-11 0-5-9-13-26-26V94c1-22-3-41-12-57-7-13-26-25-54-37-5 21-13 36-26 43-11 8-35 18-72 29l4 18c30-7 52-11 66-14 14-2 25-2 34 0 7 0 11 12 9 35v158H680V147l4-79c-2-13-10-23-24-29-12-6-23-9-33-10l4 122v118H498V128l4-79c-3-8-9-15-20-22-8-7-21-13-39-17l4 132v504l57-42h127v124H496c-14 0-35-3-62-8l-20 33m84-459h133v127H498V294m182 127V294h138v127H680m-182 23h133v135H498V444m182 135V444h138v135H680m62 334c43-14 73-29 92-45 18-14 27-28 25-43 0-13-4-22-11-27-8-5-16-5-24-2-6 2-13 14-21 35-6 20-28 42-65 68l4 14M0 761h170c19 56 37 116 55 179 48-20 74-33 76-39 0-4-1-7-4-9-5-2-12-4-22-6-9-3-17-14-23-33s-18-49-35-92h88l35 47 56-53c2-2 4-5 8-8 0-8-4-12-11-12H209c-33-95-63-178-88-248h104v180l70-31c8-4 11-8 10-12 0-3-2-5-6-8l-28-12V487h42l33 41 50-50c2-3 4-6 4-8 0-6-4-9-9-8H271V319l122 32 5-20-127-41V134l4-89c0-9-7-18-19-25-12-8-24-12-37-12l6 132v132c-74-23-118-39-133-46-13-6-30-17-51-32L0 253l225 55v154H121l-29-22-51 41c26 12 42 26 49 45l72 209H70c-14 0-33-2-56-7L0 761Z"/></symbol><symbol id="辆_G" viewBox="0 0 1000 1000" data-size="21"><path transform="matrix(1 0 0 -1 37 967)" d="M330 835h498l37 57 59-67 2-4c1-8-2-13-10-13H707V640h98l35 37 49-41c6-6 9-11 9-14 0-4-10-14-31-27V105c2-33-2-56-12-70-9-12-29-23-60-35-8 25-22 42-43 51-20 8-48 17-84 29l4 18c46-11 79-17 98-20 19-2 33 0 41 6 7 5 11 13 9 25v505H707c-5-72-10-125-16-158 39-36 65-64 77-86 11-22 18-40 21-55 0-13-3-25-8-35-6-9-14-13-25-11-10 2-16 11-18 29 0 16-4 36-9 60-6 23-20 48-41 75-11-59-27-108-49-147s-53-77-92-113l-12 10c33 45 58 85 74 121 16 34 28 82 36 142 7 59 13 115 15 168H549c-4-57-8-105-12-144 27-22 47-41 59-55 11-14 17-26 17-37 1-10-1-20-6-29-5-10-13-14-23-12-10 0-16 10-18 29 0 19-2 33-5 43-4 9-14 24-30 43-6-38-16-75-31-113-16-37-40-74-72-111l-12 9c27 50 45 90 55 119 9 30 17 65 21 106 4 39 7 90 10 152h-94V146l4-89c0-12-6-22-19-30-12-6-24-10-36-11l4 128v537l49-41h94v168h-96c-8 0-25-3-53-8l-25 35m330-195v168H549V640h111M0 757h127c16 54 31 113 45 178 42-23 64-36 66-39 0-3 0-6-2-8s-7-4-13-6c-7-2-14-13-22-31-6-18-15-49-29-94h90l31 45 53-53c2-2 3-5 4-8 0-6-4-8-12-8H166c-29-87-53-168-74-240h88v170l62-25c5-2 7-4 8-6 1-5-1-8-4-10l-23-14V493h45l29 39 43-47c2-2 3-5 4-7-1-6-4-9-10-8H223V306l117 27 8-16-125-39V136l4-81c2-10-2-19-12-28-11-8-24-13-39-13l4 118v133c-46-15-76-26-92-34-16-6-33-16-51-31L4 257l176 41v172H98l-30-28-52 43c21 8 36 23 45 45l60 203H76c-14 0-35-2-62-7L0 757Z"/></symbol><symbol id="辇_G" viewBox="0 0 1000 1000" data-size="21"><path transform="matrix(1 0 0 -1 46 966)" d="M268 880v-72h54l28 41 52-51c2-2 2-4 2-6 0-8-4-12-11-12H268c-3-38-6-69-10-92h78l29 40 53-47c5-4 7-8 8-12 0-5-4-7-12-8H252c-10-38-24-71-43-98-20-26-47-51-82-74-35-22-73-43-115-62l-8 13c45 29 81 54 107 75 25 21 46 45 63 70 15 25 27 51 33 76H82c-14 0-36-2-66-8L0 688h213c4 21 7 52 10 92H115c-6 0-22-2-49-8l-17 36h174v125c52-15 80-24 82-28 2-3 2-6 0-9s-15-8-37-16m351-6v-68h110l27 41 58-51c2-2 2-4 2-6 0-8-3-12-11-12H617l-10-91h178l29 42 53-50c5-4 7-8 8-12 0-5-4-7-12-8H650c11-23 31-49 61-76 29-25 60-44 94-55 32-11 67-17 103-17v-22c-23 0-41-2-53-8-11-4-22-13-31-27-25 12-51 27-76 45s-49 40-70 68c-22 26-39 56-53 92h-23c-14-53-34-94-59-121s-65-51-119-74l-8 14c43 26 76 54 98 84 21 29 35 61 43 97h-34c-13 0-30-2-50-8l-24 36h114l9 91h-33c-16 0-37-2-64-7l-18 35h115v125c51-15 78-24 80-28 3-3 3-6 0-9-2-4-13-11-33-20M254 628l4 16c32-8 60-17 84-26 23-8 39-19 47-33 7-12 9-25 6-37-4-12-12-18-24-18-10 0-19 7-27 22-7 15-17 28-28 39-11 9-31 21-62 37M105 427h188c12 15 27 45 45 88 44-20 66-32 66-37s-2-8-6-8c-3 0-9-1-17-4-9-4-15-9-20-14-3-6-8-14-15-25h314l35 43 55-47c2-3 3-6 4-10 0-6-4-10-12-10H332c-28-45-54-86-78-121h197v100l72-24c8-4 12-6 12-7 0-3-2-6-6-10l-29-14v-43h172l33 41 61-53c1-1 2-4 2-7 0-4-3-6-8-6H500v-90h275l38 45 60-53c2-2 3-6 4-10 0-4-4-7-12-7H500v-42l2-67c0-8-7-15-20-23-11-8-23-12-35-12l4 94v50H94c-14 0-36-3-67-8l-15 33h439v90H262l-37-26-49 53c25 10 42 20 51 29l54 88h-93c-14 0-36-2-67-7l-16 31Z"/></symbol></svg>