<svg xmlns="http://www.w3.org/2000/svg"><symbol id="钇_G" viewBox="0 0 1000 1000" data-size="21"><path transform="matrix(1 0 0 -1 40 930)" d="M404 737h307l37 39 55-45c8-5 11-11 11-17s-10-12-31-18c-13-6-33-30-58-72-73-124-127-220-164-289-36-68-61-118-77-150-15-32-23-59-23-82-1-24 8-39 27-44 19-6 43-10 73-12h203c23-2 43 2 58 12 13 8 22 30 26 65 3 35 6 74 9 117h20c2-55 3-94 4-115 0-22 13-39 39-53-10-23-27-42-49-55-21-12-53-18-96-18H545c-37 0-66 6-88 18-21 10-36 27-43 49-8 24-6 53 6 88s29 74 53 119c23 46 103 191 240 436H469c-10 0-24-3-43-8l-22 35M111 548h188l37 47 45-43c14-10 19-18 15-24-1-6-4-8-7-7H229V368h80l37 51 56-57c6-8 4-14-6-19H229V103l134 93 14-15c-61-55-104-93-127-114-21-20-39-43-53-67l-60 53c12 8 26 19 43 34v256H90c-13 0-33-3-61-8l-17 33h168v153h-28l-23-6-18 33m147 277c4-2 7-4 8-6 2-6-1-10-8-13-16-4-28-14-35-30-17-29-30-54-39-76h125l39 45 56-57c2-1 2-3 2-5 0-6-2-9-6-8H172c-24-48-48-94-72-139-24-43-52-86-84-127l-16 6c49 89 89 173 121 250 31 78 53 143 68 195l69-35Z"/></symbol><symbol id="针_G" viewBox="0 0 1000 1000" data-size="21"><path transform="matrix(1 0 0 -1 40 959)" d="M438 589h199v330l74-27c4-1 7-2 8-4 4-4 4-8 0-12l-35-16V589h138l35 51 59-57c2-3 3-6 4-10 0-8-4-11-12-11H684V146l4-103c0-8-7-17-20-27-12-10-23-15-35-16l4 146v416H508c-12 0-29-3-53-8l-17 35m-331 0h213l32 45 54-57c1 0 2-2 2-6s-2-7-4-8H242V409h100l31 45 55-51c2 0 3-2 4-6 2-7-1-11-8-11H242V138l153 125 9-14C291 146 226 74 209 33l-53 53c18 10 31 24 39 40v260h-70c-14 0-36-3-66-8l-16 31h152v154h-45l-19-3-24 29m92 328 71-33c1-3 3-5 3-8s-2-7-7-10c-17 0-30-8-39-21-20-41-36-73-47-96h158l33 49 61-59c0-2 1-4 2-6 0-4-3-7-8-7H168c-18-39-40-82-66-129s-56-91-90-131l-12 8c52 89 94 173 127 252 31 76 55 140 72 191Z"/></symbol><symbol id="钉_G" viewBox="0 0 1000 1000" data-size="21"><path transform="matrix(1 0 0 -1 42 965)" d="M420 817h385l47 59 60-64c2-2 3-6 4-12 1-7-5-10-16-10H699V114c2-29-4-53-17-73-14-18-36-31-65-41-6 20-13 34-23 43-11 8-45 21-102 39l4 20c59-14 96-21 111-22 15 1 26 3 32 8 6 4 9 20 7 46v656H504c-12 0-31-3-57-8l-27 35M98 599h189l39 48 59-62c1-2 2-5 2-8 0-4-1-6-4-6H227V415h93l34 49 56-57c2 0 3-2 4-6 0-7-4-11-14-11H227V134l173 140 14-11C285 148 212 70 195 27l-58 47c19 16 32 32 39 50v266H90c-12 0-33-3-65-8L8 415h168v156h-33l-18-8-27 36m142 271c-12-4-23-16-31-33-16-33-29-59-39-80h135l39 49 56-61c2-2 2-4 2-6 0-6-2-8-6-8H162c-17-43-41-89-70-138s-56-90-78-123l-14 8c44 82 81 164 113 246 31 79 55 148 73 207 48-26 74-40 76-43 0-4-1-7-2-8-1-3-7-6-20-10Z"/></symbol><symbol id="钊_G" viewBox="0 0 1000 1000" data-size="21"><path transform="matrix(1 0 0 -1 60 970)" d="m566 819 80-33c4-2 6-4 6-8 2-4-10-11-37-21V390l4-98c0-10-6-20-17-27-12-8-25-12-39-12l3 135v431m223 110 82-37c6-2 9-6 10-12 1-3-13-11-41-22V92c2-25-7-45-26-61-17-15-37-25-58-31-2 21-14 37-35 47-20 10-52 21-96 35l4 20c48-11 82-17 101-20 17-1 32 0 43 4 10 3 15 10 16 21v822M109 589h241l37 51 52-47c14-10 19-18 16-24-2-6-4-8-8-7H266V403h125l37 53 60-59c6-7 4-14-6-19H266V134l170 125 11-16c-82-75-134-125-158-149-21-24-39-48-53-73l-62 47c12 9 25 21 41 37v273H86c-22 0-41-3-59-8l-17 33h205v159h-65l-23-6-18 33m166 316c5-2 8-4 8-6 2-5 0-10-8-13-18-4-31-14-39-30-13-31-31-68-52-109h193l39 45 57-57c1-2 2-4 2-6 0-5-2-8-6-7H172c-26-43-50-83-72-121-23-38-51-77-86-118l-14 8c44 72 85 153 125 240 39 86 66 156 82 209l68-35Z"/></symbol><symbol id="钋_G" viewBox="0 0 1000 1000" data-size="21"><path transform="matrix(1 0 0 -1 54 963)" d="M572 925c57-22 86-34 88-37 0-4 0-7-2-10-2-2-13-8-35-18V649c63-25 111-48 145-70 33-21 59-42 80-60 19-18 32-34 39-49 6-16 6-30 0-41-7-13-16-19-28-18-11-1-23 10-35 31-11 22-24 39-37 53s-30 31-51 51c-21 19-59 45-113 78V142l4-99c0-10-7-20-20-29-12-9-25-13-39-14l4 146v779M117 606h219l37 47 45-43c14-9 19-17 16-23-2-6-5-9-8-8H246V425h108l37 51 56-57c6-8 4-14-6-20H246V153l176 137 14-14c-87-82-142-136-166-160-25-23-43-46-57-71l-61 55c15 11 30 24 45 40v259H80c-12 0-31-2-59-7L4 425h193v154h-39l-23-6-18 33m135 286c5-2 7-4 8-6 2-6-1-11-8-14-16-4-27-14-35-29-18-33-31-61-41-82h178l39 45 56-57c2-2 2-4 2-6 0-6-2-8-6-8H166c-21-55-45-105-70-150-23-44-50-85-80-125l-16 6c47 86 86 171 117 256 31 84 54 152 69 205l66-35Z"/></symbol><symbol id="钌_G" viewBox="0 0 1000 1000" data-size="21"><path transform="matrix(1 0 0 -1 57 955)" d="m818 843 61-47c6-5 8-8 6-10-1-4-6-8-16-12-10-3-21-8-31-15-11-7-29-24-57-51-26-27-60-64-101-111 26-14 38-22 37-26 0-3-13-10-37-21V114c2-34-3-59-14-77-12-17-35-29-68-37-6 20-19 35-39 47-20 10-50 21-90 35l6 18c51-12 87-20 107-24 19-4 32-1 39 8s10 25 8 48v490l33-16c51 73 92 133 123 178H477c-10 0-22-2-36-8l-19 34h363l33 33M104 589h216l37 47 45-43c14-10 19-18 16-24-2-6-5-8-8-7H238V401h114l37 49 56-54c6-8 4-15-6-20H238V126l182 137 14-16c-93-84-151-137-174-159-22-24-39-47-53-70l-61 56c13 9 27 20 43 34v268H88c-12 0-33-3-61-8l-17 33h179v161h-44l-24-6-17 33m146 285c5-2 7-4 8-6 2-6-1-10-8-14-16-3-27-13-35-29-16-29-28-54-37-76h148l39 45 57-57c1-2 2-4 2-6 0-5-2-8-6-7H166c-21-48-44-94-68-139-24-44-51-86-82-127l-16 6c47 89 85 172 115 250 29 77 51 142 67 195l68-35Z"/></symbol><symbol id="钍_G" viewBox="0 0 1000 1000" data-size="21"><path transform="matrix(1 0 0 -1 29 948)" d="M412 550h195v346l81-32c5-2 7-4 7-6 3-1 3-4 0-9l-37-16V550h135l43 54 59-58c1-3 3-6 3-10 1-8-2-12-9-12H658V68h168l41 56 71-60c1-1 3-5 3-9 0-8-4-12-13-12H410c-14 1-34-3-60-10l-22 35h279v456H492c-13 1-31-2-53-9l-27 35m-303 2h204l37 47 39-43c13-10 19-18 15-24-2-6-4-8-8-8H230V376h116l37 51 56-57c6-8 4-14-5-19H230V100l174 106 12-14C331 127 277 83 254 63c-24-20-42-41-55-63l-58 55c12 8 26 18 43 31v265H78c-12 0-32-3-60-8L0 376h184v148h-34l-23-5-18 33m161 306c4-2 7-4 7-5 2-6 0-11-7-14-18-4-30-14-38-29-20-43-35-75-44-96h148l39 45 57-57c1-2 2-4 2-6 0-6-2-8-6-8H176c-16-33-35-72-59-117-23-43-55-92-97-144l-16 6c55 101 98 190 129 267 28 76 51 141 66 194l71-36Z"/></symbol><symbol id="钎_G" viewBox="0 0 1000 1000" data-size="21"><path transform="matrix(1 0 0 -1 24 964)" d="M805 832c-26-2-61-9-106-19V504h145l31 53 72-61c2 0 4-3 4-7 0-8-4-12-12-12H699V129l4-85c1-9-6-19-21-29-16-10-28-15-37-14l3 138v338H479c-13 0-30-4-51-12l-24 39h244v303c-62-12-132-22-210-29l-4 17c86 15 164 32 234 51s129 39 176 61c33-41 50-64 51-67 0-2-1-4-4-6-2-2-11-2-26 0-14 2-34 2-60-2M104 584h216l34 49 60-60c1-2 2-5 2-8 1-4-1-6-4-6H252V405h90l35 46 61-52c1 0 3-2 3-6 0-10-4-14-13-14H252V133l187 151 14-12C346 172 283 112 266 91s-32-43-45-66l-61 52c16 10 31 24 43 42v260H82c-12 0-29-2-53-8l-17 34h191v154h-31l-41-8-27 33m160 305c4-2 7-4 7-6 2-6 0-11-7-14-18-1-32-11-43-29s-25-47-43-86h135l35 49 58-60c2-2 2-4 2-6 0-6-2-9-6-8H166c-22-47-44-90-66-129-22-40-51-84-88-133l-12 8c38 72 76 152 113 242 37 87 66 158 86 213l65-41Z"/></symbol><symbol id="钏_G" viewBox="0 0 1000 1000" data-size="21"><path transform="matrix(1 0 0 -1 54 958)" d="m627 833 80-33c4-2 6-5 6-8 2-5-11-12-37-21V263l4-98c0-10-6-19-18-27-11-8-24-12-39-12l4 135v572m180 61 80-34c4-2 6-4 6-7 2-5-11-12-38-22V136l4-97c0-10-5-19-17-27-11-8-24-12-39-12l4 134v760m-346 7 80-35c8-4 11-8 8-12 2-3-11-9-37-17V501c2-109-11-203-37-281-28-78-87-152-178-220l-12 12c74 72 123 145 147 217 21 72 31 163 29 272v400M100 583h189l33 43 45-41c11-10 15-18 12-23-2-4-5-6-8-6H225V405h88l37 47 56-53c6-7 4-14-6-19H225V151l156 118 12-16c-71-63-120-107-145-131-24-23-43-46-57-71l-52 43c11 8 24 20 39 36v250H92c-13 0-33-3-61-8l-17 33h164v151h-37l-24-6-17 33m154 299c4-2 7-4 8-6 2-6-1-10-8-14-18-4-31-13-39-29-20-39-34-69-43-90h142l40 45 56-57c1-2 2-3 2-5 0-6-2-9-6-8H160c-21-44-43-86-64-127-22-41-49-83-80-125l-16 6c42 80 80 161 113 244 33 81 57 148 71 201l70-35Z"/></symbol><symbol id="钐_G" viewBox="0 0 1000 1000" data-size="21"><path transform="matrix(1 0 0 -1 57 961)" d="M113 597h203l38 47 39-43c13-10 18-18 15-24-2-6-4-8-8-8H227V403h107l37 51 57-57c6-7 4-14-6-19H227V120l193 125 12-16c-98-74-159-122-182-143-23-20-42-40-55-63l-58 51c13 8 27 18 43 31v273H90c-13 0-33-3-61-8l-17 33h168v166h-28l-23-6-16 34m641 240c-8-6-38-36-90-90-51-54-129-120-234-197l-10 13c88 84 157 154 207 209 49 53 83 101 103 145 45-33 68-51 69-55 0-4-1-6-2-8-3 0-8-1-16-5-8-2-17-6-27-12m31-234c-8-10-42-44-101-104-59-59-147-125-264-197l-10 13c99 77 179 146 238 209s99 115 122 157c43-32 64-49 64-53s-1-7-2-8c-2-1-8-1-18-2-9 0-19-6-29-15m100-204c1 0 2-2 2-7 0-2-5-4-16-6-14 3-43-26-86-86-42-59-94-115-156-166C566 83 480 38 369 0l-4 16c90 45 170 96 239 153 67 57 139 150 214 279l67-49M258 888c4-2 7-4 8-6 2-6-1-11-8-14-18-6-30-16-37-31-16-35-28-63-37-84h154l39 45 57-57c1-2 2-4 2-6 0-6-2-8-6-7H172c-25-56-50-106-74-151-24-43-51-86-82-127l-16 6c48 89 87 176 119 262 31 84 54 152 69 205l70-35Z"/></symbol><symbol id="钑_G" viewBox="0 0 1000 1000" data-size="21"><path transform="matrix(1 0 0 -1 31 967)" d="m736 854 35 30 53-53c4-3 5-6 4-10s-8-8-21-11l-24-14-64-242h74l25 31c42-33 62-51 61-55s-2-6-4-8c-1-1-11-6-31-15-15-41-31-89-51-143-20-53-46-105-78-156 21-24 42-45 62-62 21-18 44-32 69-42 24-10 55-17 92-22V61c-22 0-38 0-49-2s-24-13-39-34c-34 21-64 43-90 69-26 24-51 52-74 81-40-44-88-80-143-109-55-26-105-48-152-66l-6 16c48 26 95 52 142 80 46 26 90 64 131 114-32 49-56 103-74 162-16 59-33 135-49 229-4-105-15-190-35-256-18-67-46-127-84-182-39-52-92-103-160-153l-8 15c57 53 102 105 135 156 31 50 55 106 70 168 16 61 27 130 33 207s8 168 6 271h-27c-17 1-34-2-51-10l-25 37h347M545 694c5-37 16-84 31-140 14-58 29-114 47-168 17-55 37-101 61-137 21 31 42 74 62 129 19 53 35 103 49 152h-70l-32-31-52 55c11 4 23 11 35 23l62 250H545V694M98 599h179l37 47 41-43c13-10 17-18 14-24-2-6-4-8-8-8H217V433h70l37 48 55-54c6-8 4-15-6-20H217V157l164 129 12-14c-80-74-131-124-153-148-21-23-39-47-52-73l-59 43c11 8 24 20 39 34v279H96c-20 0-39-2-57-8l-18 34h147v138h-29l-24-6-17 34m146 300c5-2 7-3 8-5 2-6-1-11-8-14-15-3-27-12-35-27-20-41-34-73-43-94h145l39 45 56-57c2-2 2-4 2-6 0-6-2-8-6-8H156c-21-46-43-92-68-138-24-46-48-85-72-116l-16 6c32 60 66 137 102 231 35 93 58 166 70 219l72-36Z"/></symbol><symbol id="钒_G" viewBox="0 0 1000 1000" data-size="21"><path transform="matrix(1 0 0 -1 28 963)" d="M512 812h162l35 42 57-50c4-4 5-8 5-12s-11-12-35-23V147c0-27 2-43 6-47s16-6 35-6h61c17 4 28 11 33 20 4 9 7 26 10 51 1 23 2 59 4 107h17c0-55 2-91 6-107 2-16 14-32 35-49-9-25-20-41-31-50-12-7-30-13-55-17h-93c-23 0-42 4-57 14-14 7-21 27-21 59v662H504V575c43-26 74-49 94-68 17-20 29-37 35-53 5-15 6-30 2-45s-14-23-30-23c-14 0-23 11-27 33-3 21-8 41-15 59-6 17-27 43-61 76 2-121-2-211-12-270-8-58-29-111-64-158-33-46-91-88-172-126l-8 14c68 39 117 82 147 128 27 45 45 97 52 156 7 56 9 171 8 344v216l59-46M98 610h201l33 45 59-58s1-2 2-6c-1-5-2-7-4-8H211V433h94l35 43 51-51c2 0 3-2 4-6 1-8-1-12-8-12H211V147l164 102 8-14c-84-67-137-109-158-128-21-18-37-41-51-66l-55 55c17 9 31 25 43 48v263H78c-10 0-31-2-62-8L0 433h162v150h-21l-18-8-25 35m160 282c6-3 8-6 6-10 1-4-2-8-10-12-18-1-33-13-47-37-12-23-25-47-37-70h150l34 45 56-57c1-2 1-4 2-6 0-4-2-7-8-8H158c-21-45-45-88-70-129-24-40-49-76-74-109l-12 8c40 76 77 152 109 228 33 77 57 140 73 192l74-35Z"/></symbol><symbol id="钓_G" viewBox="0 0 1000 1000" data-size="21"><path transform="matrix(1 0 0 -1 48 963)" d="M117 579h205l35 43 59-57c1 0 1-2 2-5-1-5-2-8-4-8H252V396h90l35 46 59-54c2 0 3-2 3-6 0-8-3-12-11-12H252V136l152 133 14-16C299 142 232 64 219 20l-57 54c17 14 30 29 39 44v252H100c-14 0-36-2-67-8l-15 34h183v156h-33l-29-8-22 35m92 348 72-35c5-3 8-6 8-8 4-4 2-8-6-12-17-8-30-18-39-29-20-36-36-68-49-96h145l37 47 62-59c1-2 2-4 2-6 0-4-2-7-7-7H184c-28-58-55-108-82-151-26-41-55-84-88-127L0 454c51 86 96 173 135 262 37 88 62 158 74 211m479-47c1-3 3-5 3-8 1-4-4-8-15-12-18-4-31-13-39-29-20-35-37-71-53-107h223l29 48 60-48c6-4 8-8 8-12 0-3-10-12-31-27-12-282-20-444-25-489-4-44-10-79-18-106-12-41-47-70-103-90-5 21-16 36-34 47-15 10-50 21-105 35l4 20c84-18 137-23 158-16 23 8 37 27 41 58 6 29 10 56 12 82 2 24 8 181 17 470H570c-60-107-108-183-144-228l-16 8c49 91 90 174 123 250 31 74 55 138 71 193l84-39M547 556c45-37 77-67 98-90 19-22 32-41 39-59 6-17 6-34 0-49-6-16-17-23-32-21-14 0-23 10-27 29-3 18-8 39-16 63-5 23-30 62-72 117l10 10Z"/></symbol><symbol id="钔_G" viewBox="0 0 1000 1000" data-size="21"><path transform="matrix(1 0 0 -1 46 964)" d="m406 741 73-31c5-3 7-5 7-8 1-2 0-6-4-10l-25-13V136l4-95c-1-9-8-18-22-27-13-9-26-13-37-14l4 126v615m442 117 52-50c6-3 8-6 8-10 0-3-4-9-12-16l-21-15V115c3-25-1-49-10-70-8-18-29-33-64-43-8 19-18 34-30 43-9 10-42 24-99 43l4 17c62-11 97-18 107-21 10-2 20-1 30 2 10 4 14 16 13 36v666H664c-12 0-30-3-55-8l-21 33h225l35 45m-428 51c71-36 113-64 125-84s17-36 16-49c-2-11-7-21-14-29s-16-10-27-8c-12 2-20 12-24 30-3 18-9 36-19 54-10 17-32 42-65 74l8 12M102 608h175l37 47 40-43c13-9 18-17 15-23-2-6-4-9-8-8H209V431h72l37 50 57-56c6-8 4-15-6-20H209V140l141 113 11-12c-62-64-105-108-129-130-21-22-39-45-52-66l-59 51c12 8 25 18 41 30v279H72c-11 0-23-2-35-8l-21 34h146v150h-19l-24-6-17 33m146 286c5-2 7-4 8-6 2-6-1-11-8-14-16-4-27-14-35-29-20-39-34-69-43-90h119l39 45 57-57c1-2 2-4 2-6 0-6-2-8-6-8H158c-21-47-41-87-58-121-18-33-46-76-84-127l-16 6c43 78 80 159 111 241 31 81 54 148 69 201l68-35Z"/></symbol><symbol id="钕_G" viewBox="0 0 1000 1000" data-size="21"><path transform="matrix(1 0 0 -1 33 966)" d="M104 581h193l35 43 55-53c2-7 1-12-2-15-3-2-7-3-10-2H229V397h97l37 51 55-56c6-8 4-15-6-20H229V126l169 141 12-14c-82-80-133-131-154-153-21-23-38-47-51-73l-66 43c15 10 29 24 41 41v261H84c-12 0-33-3-61-8L6 397h174v157h-35l-24-6-17 33m566 313c4-4 5-7 4-8 4-4-9-10-37-18-20-80-41-158-63-234h254l39 51 63-61c2-3 3-5 4-8 0-6-4-8-12-8H793c-18-105-35-181-53-228-15-47-35-88-58-123 82-46 136-80 164-104 25-22 41-42 47-59 5-17 5-31 0-43-4-13-12-18-24-18s-21 9-29 26c-7 15-16 30-27 43-10 11-28 28-53 49-26 22-59 45-102 71-35-46-80-88-135-126-54-39-119-71-193-96l-4 16c67 35 123 69 170 101 47 30 88 73 123 128-70 41-131 72-181 94 23 70 50 160 80 269h-82c-14 0-34-2-61-7l-16 33h166c23 84 45 183 67 299l78-39M566 608c-25-86-53-171-84-257 53-24 105-49 157-77 25 39 46 86 62 143 15 55 29 118 43 191H566M246 878c5-2 7-4 8-6 2-6-1-10-8-14-16-4-27-13-35-29-16-37-28-66-37-88h156l39 45 57-57c1-1 2-3 2-5 0-6-2-9-6-8H162c-17-39-38-82-60-129-23-45-51-91-86-137l-16 6c49 97 87 184 115 262 28 77 47 142 59 195l72-35Z"/></symbol><symbol id="钖_G" viewBox="0 0 1000 1000" data-size="21"><path transform="matrix(1 0 0 -1 37 957)" d="M387 849h369l39 35 51-51c4-3 6-7 6-14 0-2-5-4-16-7-19 0-53-25-104-73-50-49-125-121-222-217h320l31 40 55-41c6-4 9-9 10-14 0-5-6-10-18-16l-17-13c-12-180-22-291-30-334-6-43-16-74-31-95-14-22-44-39-90-49-6 21-15 37-27 47-12 9-41 22-88 39l6 17c53-13 91-20 113-23s39 3 49 16c10 11 17 32 21 61 2 28 12 140 30 338h-90c-27-158-74-269-141-334C547 98 459 46 350 4l-8 14c99 52 178 107 236 165s100 162 125 312H602c-28-105-68-189-120-252-51-60-104-106-160-137l-9 14c44 35 89 82 134 141 45 58 79 136 104 234h-55l-37-27-49 56c28 7 50 17 69 32l267 265H457c-10 0-27-2-51-8l-19 36M98 577h179l37 47 41-43c13-10 17-18 14-23-2-6-4-9-8-8H217V411h70l37 49 55-55c6-8 4-14-6-19H217V136l164 129 12-14c-80-75-131-124-153-148-21-23-39-48-52-74l-59 43c11 9 24 20 39 34v280H96c-20 0-39-3-57-8l-18 33h147v139h-29l-24-6-17 33m146 301c5-2 7-4 8-6 2-6-1-10-8-14-15-2-27-11-35-27-20-41-34-72-43-94h145l39 45 56-56c2-2 2-4 2-6 0-6-2-9-6-8H156c-21-46-43-93-68-139-24-46-48-84-72-115l-16 6c32 60 66 137 102 230 35 93 58 166 70 219l72-35Z"/></symbol><symbol id="钗_G" viewBox="0 0 1000 1000" data-size="21"><path transform="matrix(1 0 0 -1 24 968)" d="M109 618h204l37 47 39-43c13-10 19-18 15-23-2-6-4-9-8-8H223V423h117l37 51 57-57c5-8 4-14-6-20H223V157l179 131 14-14c-90-76-146-127-170-151-23-25-42-49-55-72l-58 53c12 8 25 19 41 32v261H82c-12 0-29-2-51-7l-17 33h160v168h-24l-23-6-18 33m455 115 12 12c45-35 74-62 88-82 13-19 20-38 20-55 0-15-4-27-12-35s-18-10-29-6c-12 4-18 15-18 34-1 17-5 35-14 56-7 22-23 47-47 76m-66 88c11-164 29-278 55-342 25-63 56-122 93-177 28 44 53 102 77 174 23 70 45 185 64 345H498m277 28 30 39c47-28 71-43 72-45s1-5 0-8c-2-2-8-7-18-14-9-8-15-13-17-17-3-4-10-41-22-112-12-68-29-141-50-218-22-77-53-145-94-205 25-32 62-66 113-102 49-35 103-57 162-65V84c-32 0-53-4-62-12-11-8-22-15-34-23-41 29-76 57-107 83-29 25-62 58-100 99-51-58-105-105-162-141-56-35-121-65-197-90l-6 14c70 34 132 70 186 109 54 36 105 82 152 140-47 64-83 134-107 211-24 75-39 191-45 347h-14c-14 2-25-2-35-9l-25 37h380m-523 52c5-2 7-4 8-5 2-6-1-11-8-14-16-4-27-14-35-29-17-34-30-61-39-82h154l39 44 57-56c1-2 2-4 2-6 0-6-2-9-6-8H166c-21-47-44-94-68-139-24-43-51-85-82-127l-16 6c47 90 86 174 117 254 29 78 51 144 67 198l68-36Z"/></symbol><symbol id="钘_G" viewBox="0 0 1000 1000" data-size="21"><path transform="matrix(1 0 0 -1 35 966)" d="M402 839h401l39 49 60-57c2-2 4-5 4-8 0-8-4-11-13-11H771V497h59l39 49 59-57c1-2 2-4 2-8 0-7-3-11-10-11H771V142l4-93c0-9-6-18-19-26-12-7-24-11-37-11l4 122v336H564c-2-110-13-190-33-242s-52-96-97-134c-45-39-96-71-153-94l-8 14c47 30 90 62 131 98 40 37 68 82 84 137 17 55 26 128 26 221h-51c-22 0-47-3-74-8l-20 35h145v315h-24c-18 0-41-3-68-8l-20 35m321-342v315H564V497h159M98 597h179l37 47 41-43c13-10 17-18 14-24-2-6-4-8-8-8H215V431h72l37 48 55-54c6-8 4-15-6-20H215V155l166 129 12-13c-80-75-131-125-153-149-21-23-39-47-52-73l-59 43c11 8 24 20 39 34v279H96c-20 0-39-2-57-8l-18 34h147v138h-29l-24-6-17 34m142 300c5-1 7-3 8-5 2-6-1-11-8-14-15-3-27-12-35-27-17-41-30-73-39-94h145l39 45 56-57c2-2 2-4 2-6 0-6-2-8-6-8H156c-21-46-43-92-68-138-24-46-48-85-72-115l-16 5c32 60 66 137 102 231 35 93 58 166 70 219l68-36Z"/></symbol><symbol id="钙_G" viewBox="0 0 1000 1000" data-size="21"><path transform="matrix(1 0 0 -1 28 968)" d="M391 839h443l37 57 70-63c2-2 2-5 2-8 1-8-2-12-9-12H691V632h116l37 49 62-63c2-2 2-4 2-6 0-6-2-8-8-8H691V425h135l29 37 59-43c6-3 9-6 10-10 0-6-12-15-35-29-15-151-25-239-32-267-5-26-17-49-35-66-17-16-45-31-82-47-6 20-19 35-37 47s-48 24-90 37l8 20c35-10 63-17 82-22 20-4 37-5 53-4 14 2 25 9 35 20 10 9 17 23 22 40 3 16 12 103 27 259H516l-34-29-60 39 29 30v291l78-38c6-2 8-3 8-5 0-6-12-13-35-22V425h139v388H461c-14 0-29-3-45-11l-25 37M100 601h195l35 41 53-55c1-2 2-5 2-8 0-4-1-6-4-6H232V417h65l35 45 53-53c2-2 3-4 4-8 0-8-5-11-14-9H232V140l180 115 10-16c-75-52-127-93-156-123-30-27-55-53-75-79l-52 59c23 11 39 24 47 38v258h-86c-17 0-35-3-55-8l-18 33h159v156h-45l-26-6-15 34m97 336c50-23 76-36 78-40 0-4 0-7-2-9-2-1-8-4-19-8-12-3-24-15-35-37-12-22-26-47-41-76h133l31 45 60-57c2-2 2-4 2-6 0-6-2-8-6-8H166c-18-40-43-85-74-137-31-50-57-89-78-117L0 497c33 59 66 124 100 195 31 70 63 151 97 245Z"/></symbol><symbol id="钚_G" viewBox="0 0 1000 1000" data-size="21"><path transform="matrix(1 0 0 -1 32 964)" d="M395 837h425l39 51 61-55c3-3 6-6 8-10 2-8-3-11-14-11H691c-18-69-35-124-50-163l50-21c6-5 6-8 2-10 2-4-8-10-31-15V136l4-93c-1-9-7-18-20-27-10-9-23-15-39-16l4 144v433c-37-94-76-174-115-240-38-66-87-134-148-201l-16 11c54 76 98 146 131 209 33 64 66 139 98 225 31 85 56 162 74 231H473c-12 0-34-3-65-8l-13 33m318-299c60-51 105-90 137-119 31-29 52-53 64-72 11-19 18-36 22-51 2-16 0-29-6-41s-15-16-28-14-22 13-27 33c-6 20-14 39-23 59-10 18-26 42-47 72-22 29-57 69-106 121l14 12m-598 80h194l37 47 45-47c8-8 11-15 7-21-3-4-6-6-9-6H234V442h90l37 51 57-56c6-8 4-15-6-20H234V187l118 125 15-10c-60-80-98-131-113-153-14-19-28-46-43-81l-63 49c12 9 24 21 38 36v264H72c-12 0-24-3-37-8l-17 33h168v149h-30l-23-6-18 33m135 276c5-2 7-4 8-6 2-6-1-11-8-14-16-4-27-12-35-25-16-34-28-64-37-90h154l39 45 57-57c1-2 2-4 2-6 0-6-2-8-6-8H166c-21-47-44-93-68-138-24-44-51-86-82-127l-16 6c47 89 85 174 115 255 29 81 51 147 67 200l68-35Z"/></symbol><symbol id="钛_G" viewBox="0 0 1000 1000" data-size="21"><path transform="matrix(1 0 0 -1 29 966)" d="M109 587h200l37 47 41-43c12-10 17-18 13-24-2-5-4-8-7-7H229V411h101l37 51 57-57c6-8 4-14-6-19H229V146l171 140 14-14c-84-80-137-133-158-159-21-25-36-50-45-74l-66 45c11 8 23 18 37 31v271H84c-20 0-39-3-57-8l-17 33h172v149h-32l-23-6-18 33m270 55h205c6 71 9 168 8 291l86-36c3-1 6-3 8-5 0-3-1-6-2-10l-41-18c-3-93-6-168-10-222h174l37 54 66-62c2-2 3-6 4-12 0-6-4-8-12-8H678c19-146 41-248 66-304 25-57 53-105 84-143 31-37 68-63 113-79V72c-21 1-39 0-52-2-15-2-28-9-39-23-28 32-54 67-79 104-22 37-45 88-68 153-23 64-39 168-47 310h-25c-9-100-23-187-43-261-20-75-57-142-111-202C423 93 353 42 268 0l-6 16c74 47 136 101 185 161 48 58 81 123 98 193 17 68 30 150 39 244H451c-13 0-28-2-45-8l-27 36m184-383 7 12c41-19 71-38 88-57 18-20 29-37 31-53s0-29-7-38c-8-8-17-11-28-10-11 2-18 10-19 25s-6 33-16 54c-8 21-27 43-56 67M258 892c4-2 7-4 8-6 2-6-1-11-8-14-16-4-28-14-35-27-21-45-36-77-45-98h154l39 45 57-57c1-2 2-4 2-6 0-5-2-8-6-7H166c-20-36-42-76-66-121-24-44-52-86-84-127l-16 5c49 90 89 174 121 252 31 78 53 143 68 196l69-35Z"/></symbol><symbol id="钜_G" viewBox="0 0 1000 1000" data-size="21"><path transform="matrix(1 0 0 -1 35 953)" d="m848 884 62-59c2-3 3-6 4-10-1-4-4-7-10-7H521V599h260l24 35 52-33c10-6 14-11 14-16 0-4-10-14-31-29V399l4-95c0-10-6-18-18-24s-23-9-35-9v46H521V64h301l41 54 63-63c2-2 3-4 4-8 0-5-3-7-8-8H531L500 0l-62 53 35 31v790l56-41h282l37 51M521 343h270v230H521V343M107 581h190l37 47 41-43c12-10 17-18 14-23-2-6-5-9-8-8H232V392h110l37 48 57-56c5-6 3-12-6-18H232V116l178 121 12-15c-86-67-143-113-170-138-25-23-44-46-57-68l-52 54c12 6 26 17 43 32v264h-82c-21 0-40-2-57-8l-18 34h157v162h-38l-23-6-18 33m141 289c5-2 7-4 8-6 2-6-1-10-8-13-16-4-27-14-35-30-16-29-28-54-37-76h142l39 45 57-57c1-2 2-4 2-5 0-6-2-9-6-8H164c-21-48-44-93-68-137-23-43-50-84-80-123l-16 6c46 85 84 166 113 244 29 77 51 143 67 195l68-35Z"/></symbol><symbol id="钝_G" viewBox="0 0 1000 1000" data-size="21"><path transform="matrix(1 0 0 -1 30 958)" d="M111 565h168l34 43 52-56c2 0 2-2 2-6 1-5 0-7-4-8H223V382h78l27 43 57-51c2 0 3-2 4-6 0-8-5-12-14-12H223V110l152 125 10-15C277 116 213 43 191 0l-56 49c19 12 33 28 41 49v258h-74c-12 0-34-2-65-7l-17 33h156v156h-20l-17-8-28 35m88 340 72-37c8-4 12-8 10-10 0-3-4-6-11-9-24-5-40-15-49-32-17-32-32-63-45-95h107l37 49 55-61c1-2 2-4 2-6 0-4-2-7-6-8H166c-23-47-49-95-78-144-27-49-53-89-76-119l-12 9c44 86 84 172 119 258 35 84 61 153 80 205m186-183h242v193l82-33c6-3 8-7 6-10-1-2-4-4-10-8l-27-13V722h148l43 54 61-62c2-2 3-5 4-8 0-8-3-12-10-12H678V337h135v269l78-31c3 0 5-3 7-8s-9-12-33-19V370l4-72c0-9-8-16-23-22-15-5-26-8-33-7v43H678V92c0-21 3-33 10-37 6-5 16-7 31-8h95c27 1 43 8 49 21 6 12 10 22 12 30 1 7 3 48 8 122h17c2-35 4-65 6-90 2-23 13-42 33-58-8-25-19-43-33-52-13-8-38-13-72-16H715c-26-1-43 1-53 4s-18 11-25 23-10 30-10 53v228H496l-33-28-53 39c18 12 28 24 29 35v260l75-25c6-3 9-5 9-8 0-6-11-14-33-23V337h137v357H467c-14 0-36-2-67-7l-15 35Z"/></symbol><symbol id="钞_G" viewBox="0 0 1000 1000" data-size="21"><path transform="matrix(1 0 0 -1 38 973)" d="M104 606h185l37 47 63-58c1-3 2-6 2-10s-1-6-4-6H215V429h74l33 43 53-51c2 0 3-2 4-6 0-8-5-12-14-12H215V169l183 125 10-18c-101-85-163-138-183-159-22-21-38-44-49-68l-61 55c20 15 37 36 53 61v238H84c-12 0-33-2-64-7L2 429h166v150h-22l-15-8-27 35m76 334 70-31c5-2 7-4 8-6 4-6 2-11-6-13-12-6-23-18-35-36-22-41-37-72-45-93h135l37 49 64-61c2-2 2-4 2-6 0-6-2-8-6-8H162c-22-49-47-97-74-144s-53-84-76-112l-12 8c42 82 80 164 113 248s55 153 67 205m443 6 82-27c10-3 14-7 12-14l-6-4-33-23V470l4-98c0-9-9-18-26-27-15-8-28-12-37-12l4 131v482m-57-252c-9 0-28-31-54-91-26-61-62-127-108-200l-17 8c35 82 62 152 82 211 19 59 33 102 41 129 49-20 75-33 78-37 2-4 1-8-2-12-4-4-10-6-20-8m168 51c49-27 88-51 116-72 26-22 46-45 60-70 14-26 18-46 12-61-6-14-14-21-26-21-10-1-18 4-25 15-6 9-12 26-19 49-8 21-22 43-41 66s-47 50-84 80l7 14m79-267c47-30 70-49 70-55 0-3-1-6-2-10-26-4-42-10-49-19-6-8-25-32-59-71-33-39-72-79-117-119-44-39-96-76-156-112-61-37-147-67-260-92l-6 16c106 33 192 72 258 114 64 44 121 91 172 142 48 51 98 120 149 206Z"/></symbol><symbol id="钟_G" viewBox="0 0 1000 1000" data-size="21"><path transform="matrix(1 0 0 -1 59 959)" d="m430 716 56-35h133v238l80-31c6-3 8-6 6-8 0-3-3-6-8-10l-29-14V681h123l27 41 55-39c6-4 9-9 10-14 0-1-9-10-26-27V438l4-95c2-8-4-16-15-24-11-7-23-12-37-13v58H668V138l4-97c0-8-7-17-20-27-13-9-26-14-37-14l4 134v230H479v-25c0-9-6-18-18-27-12-10-23-15-35-14l4 125v293m49-324h140v261H479V392m189 261V392h141v261H668m-564-80h187l33 41 61-52s1-2 2-6c-1-5-2-7-4-8H236V390h69l31 47 55-53c2-2 3-5 4-8 0-8-4-12-12-12H236V116l135 123 14-15C279 121 219 48 203 6l-57 51c14 7 28 20 42 37v270h-84c-14 0-36-2-67-8l-16 34h167v158h-42l-19-6-23 31m148 309c10-6 9-12-2-18-18-6-31-17-37-33-20-41-35-72-43-94h137l35 45 54-56c1-2 2-4 2-6 0-5-2-7-7-8H156c-16-43-37-89-62-137-24-47-51-90-82-129l-12 8c47 93 85 179 115 260 30 80 51 146 65 199l72-31Z"/></symbol><symbol id="钟_H" viewBox="0 0 1000 1000" data-size="21"><path transform="matrix(1 0 0 -1 41 955)" d="M146 902c31-9 60-20 85-32 5-4 7-7 7-11 0-6-4-11-12-14-15-4-29-6-41-6-9-30-18-58-28-83h140l43 48c23-18 45-35 66-51 5-3 8-7 8-11 0-9-5-13-15-13H146c-10-27-21-54-34-81-6-13-12-26-18-37h168l43 48c23-17 45-34 66-51 5-3 8-6 8-10 0-9-5-14-15-14H227V424h70l43 48c23-18 45-35 66-51 5-3 8-7 8-11 0-9-5-14-15-14H227V138c10 7 20 14 29 20 33 24 59 46 79 65l9-19c-15-20-32-41-51-62-20-23-40-45-62-67-3-32-7-49-12-49s-24 24-59 72c7 3 13 6 20 10v288h-54c-46-1-78-3-95-6l-19 46c28-8 66-12 114-12h54v160H78c-2-5-5-9-8-13-13-22-30-46-51-71L0 514c21 28 39 59 54 90 16 36 31 74 46 113 15 40 27 81 36 122 5 20 8 41 10 63m295-159 60-42h132v131c0 35-2 61-6 78 38-4 70-12 95-22 8-3 12-7 12-14 0-6-4-11-12-13-13-6-27-10-42-11V701h143v1l33 41c25-15 42-29 54-42 5-4 7-9 7-13 0-5-13-16-38-31V397c12-9 24-18 34-27 3-3 5-5 5-7 0-3-1-6-4-9-2-2-4-3-7-3H680V92c0-15 0-25 1-30V33c0-22-10-33-30-33-17 0-25 6-25 18 0 13 1 30 3 52 3 22 4 42 4 59v222H492v-27c0-8-5-11-15-11-6 0-14 1-24 5-8 6-12 14-12 24 0 12 1 27 3 46 3 14 4 46 4 94v192c0 27-2 50-7 69m51-367h141v298H492V376m188 0h151l2 2v296H680V376Z"/></symbol><symbol id="钠_G" viewBox="0 0 1000 1000" data-size="21"><path transform="matrix(1 0 0 -1 57 961)" d="m416 759 49-43h139v207l76-26c4-2 6-5 6-7-1-4-12-12-34-24V716h143l25 39 59-39c5-4 8-8 8-12s-11-15-32-31V100c2-28-3-49-15-65-11-14-32-26-63-35-7 25-20 42-37 51-16 8-45 19-86 33l6 16c46-10 76-16 90-18s27-2 41 0c14 1 20 9 18 25v581H652c0-69-6-122-15-160 54-47 90-82 107-105 16-22 25-41 27-59 3-15 1-29-5-41-7-10-16-15-28-13-11 2-18 13-21 35-4 20-11 42-20 66-8 23-30 55-66 96-8-37-18-69-31-94s-28-49-45-72c-17-24-47-52-92-84V151l4-88c0-12-7-22-20-32-13-8-25-11-35-11l4 129v610m47-481c27 27 51 57 72 90s37 74 49 123c12 48 19 114 21 197H463V278M100 589h171l32 47 54-59c1-2 2-4 2-8s-2-6-4-6H203V419h72l38 51 54-57c2 0 3-2 4-6 0-8-4-11-12-11H203V134l151 121 11-14C256 142 195 74 184 35l-63 43c16 14 27 30 35 46v272H64c-13 0-28-3-43-8L6 419h150v144h-13l-18-7-25 33m160 291v-4c0-5-4-8-12-10-12-6-22-19-31-37-18-36-31-64-41-86h107l35 47 55-57c1-2 1-4 2-5 0-6-3-9-8-8H162c-19-49-44-99-72-149-27-50-53-90-76-117l-14 8c49 87 89 172 119 254 30 80 54 148 72 205l69-41Z"/></symbol><symbol id="钡_G" viewBox="0 0 1000 1000" data-size="21"><path transform="matrix(1 0 0 -1 44 974)" d="m436 892 56-41h287l47 39 53-55c2-3 3-5 4-8 0-4-11-14-33-29V397l4-78c0-9-7-18-20-27-14-8-28-12-43-14l6 123v424H490V397l4-78c0-11-8-22-23-31-14-10-28-16-41-16l6 129v491m173-157 79-27c4-1 7-3 7-8s-11-14-35-27V509c0-98-10-175-29-231-18-55-55-105-111-150C463 84 377 42 262 0l-6 16c118 56 201 107 248 151 45 43 74 92 88 146 12 56 18 121 17 196v226m67-482c53-20 92-37 117-53 25-14 49-29 72-45 22-16 37-33 43-50 5-15 6-29 2-41-4-9-12-15-23-15-11-1-22 7-33 23-10 18-27 40-49 64-22 25-67 60-137 103l8 14M115 616h184l33 43 64-56c1 0 2-2 2-6 0-5-2-7-3-8H225V437h78l33 48 60-54c2-1 4-4 4-8 0-8-4-12-11-12H225V163l152 94 8-18C265 153 197 92 182 55l-53 49c17 11 32 27 45 47v260H96c-14 0-36-2-67-8l-15 34h160v152h-22l-11-8-26 35m76 332 73-31c6-2 7-6 6-12 0-4-6-6-18-8-10-5-19-17-25-35-24-41-39-72-47-93h134l36 44 58-56c1-2 2-4 2-6 0-5-2-7-8-8H170c-20-47-43-96-70-144-26-49-55-94-88-135L0 474c53 97 94 187 123 271 29 82 52 150 68 203Z"/></symbol><symbol id="钢_G" viewBox="0 0 1000 1000" data-size="21"><path transform="matrix(1 0 0 -1 59 965)" d="m416 868 61-41h304l39 45 57-49c6-2 7-6 4-11-4-5-14-13-31-26V102c0-28-5-49-14-65-10-15-29-27-59-37-6 19-15 33-29 41-12 8-39 20-82 33l6 16c34-7 58-13 72-16 15-2 28-2 39 0 10 2 15 11 16 26v702H467V165l4-101c2-7-3-17-16-29-12-11-27-17-43-19l4 139v713m342-228c-6-3-12-8-18-16s-13-21-23-41-26-51-47-94c36-56 60-99 72-129 11-27 18-50 20-70 2-18 0-32-6-43-7-10-15-14-26-12-9 2-17 15-23 39-5 24-10 49-16 75-5 26-19 60-41 101-48-86-99-160-152-222l-12 11c49 80 96 164 143 250-40 63-83 121-127 176l12 8c50-47 93-96 131-147 25 60 46 116 64 168 42-22 64-35 66-39s2-6-2-8c-3-1-8-4-15-7M96 595h179l32 41 48-55c2 0 2-2 2-6 1-4 0-7-3-8H217V415h72l35 45 51-53c2 0 3-2 4-6 0-7-5-11-14-11H217V147l140 118 14-14C264 152 202 82 186 41l-55 43c21 17 34 33 39 48v258h-65c-11 0-33-3-64-8l-18 33h147v152h-29l-18-7-27 35m140 281c-7-5-15-13-23-25-18-38-31-67-41-88h123l37 45 53-57c1-2 2-4 2-6 0-4-2-7-6-8H162c-18-40-41-86-68-138-28-51-55-97-82-137l-12 8c43 93 80 179 111 259 32 80 56 147 73 202 45-22 69-34 72-37 2-4 1-7-2-8-2-3-8-6-18-10Z"/></symbol><symbol id="钢_H" viewBox="0 0 1000 1000" data-size="21"><path transform="matrix(1 0 0 -1 40 952)" d="M145 903c31-9 60-21 85-33 6-3 8-6 8-10 0-6-4-11-13-15-15-4-28-6-41-6-8-30-17-58-26-83h127l43 48c24-17 45-34 66-51 6-3 9-7 9-10 0-9-5-14-16-14H146c-11-27-22-54-34-80-7-14-13-26-19-37h157l43 48c23-18 45-35 65-51 6-3 9-7 9-11 0-9-5-14-15-14H215V424h70l43 48c24-17 45-34 66-51 6-3 9-7 9-10 0-9-5-14-16-14H215V140c8 7 17 15 27 21 32 25 57 47 75 67l11-20c-15-20-31-41-49-63-19-24-39-47-60-69-3-32-7-49-12-49s-24 24-60 71c8 4 15 8 21 12v287h-42c-47-1-78-3-95-7l-20 47c28-9 67-13 115-13h42v160H78c-2-4-5-8-8-12-13-23-31-47-52-72L0 514c21 28 38 59 53 91 17 36 32 73 46 112 15 41 27 82 36 122 5 21 8 42 10 64m277-10 58-42h346l32 42c24-16 43-30 55-42 5-6 7-11 7-15 0-5-13-16-39-31V90c0-23-4-40-13-51-9-10-20-18-34-24-14-8-25-11-34-11-1 15-6 26-13 34-9 10-18 16-28 19-15 8-34 13-56 14v25c39-10 75-15 107-15 11 0 17 2 20 5 4 4 6 13 6 26v711H472V12c0-8-5-12-15-12-6 0-14 2-24 6-8 6-11 14-11 24 0 11 1 27 2 46 2 14 4 45 4 94v653c0 27-2 50-6 70m293-147c30-4 54-10 71-17 8-2 12-6 12-12s-5-10-14-13c-12-4-21-6-29-8-12-65-25-118-38-156-7-23-16-46-26-67 19-28 36-53 50-75 23-39 40-70 51-93 5-13 7-24 7-34 0-27-9-40-27-40-3 0-8 6-14 16-3 19-16 51-39 95-12 27-27 56-46 87-3-9-7-17-11-24-21-44-43-80-64-108-23-29-51-62-85-97l-13 19c28 34 50 64 67 92 17 23 34 52 49 85 11 21 22 46 31 74-3 8-8 15-12 21-33 56-72 113-116 171l19 18c34-41 70-88 108-141 7-8 14-17 19-25 11 36 22 75 31 116 9 42 16 81 19 116Z"/></symbol><symbol id="钣_G" viewBox="0 0 1000 1000" data-size="21"><path transform="matrix(1 0 0 -1 27 968)" d="M94 599h191l37 47 41-43c13-10 17-18 14-24-2-6-5-8-8-8H223V407h62l37 51 57-57c6-7 4-14-6-19H223V136l129 95 13-13c-56-54-97-92-123-114-25-25-43-47-53-67l-54 55c11 8 25 18 41 31v259h-71c-20 0-39-3-56-8l-18 33h145v164h-41l-24-6-17 34m748 250c-10 2-43-4-100-18-57-12-142-27-256-43V616h274l33 43 57-49c5-4 7-7 7-11 0-2-10-8-31-18-16-85-33-150-51-197-15-49-39-98-72-147 31-34 67-64 106-91 38-27 84-44 136-52V76c-29 1-50-2-64-8-13-5-24-13-33-23-34 25-61 47-82 66-22 17-51 48-88 91-30-37-74-73-131-108S430 31 367 8l-4 15c55 28 105 57 151 88 45 30 91 72 138 126-17 28-30 48-37 63-41 75-67 171-78 289h-51v-67c-2-127-15-229-39-306-21-76-73-148-154-216l-10 14c74 80 119 172 135 274 15 102 21 195 20 279v278l52-35c121 18 229 55 324 109 42-38 64-59 67-63 2-3 1-6-2-9-4-5-9-6-14-4-6 2-13 4-23 6M563 589c16-121 54-227 113-318 24 35 44 83 60 142 17 59 29 117 37 176H563M250 903c5-2 7-4 8-6 2-5-1-10-8-13-16-5-27-14-33-28-16-33-29-62-39-87h121l39 44 57-56c1-2 1-4 1-6 0-6-1-8-5-8H166c-22-43-45-86-68-129-22-43-49-84-82-125l-16 6c48 90 88 174 119 252 29 76 51 139 67 190l64-34Z"/></symbol><symbol id="钤_G" viewBox="0 0 1000 1000" data-size="21"><path transform="matrix(1 0 0 -1 25 958)" d="M758 399c43-29 66-45 66-48 1-3 1-6 0-8-2-2-8-5-17-8-10-4-20-12-30-25L652 18c-6-10-13-15-23-16s-20-1-29-2l136 339H498c-12 0-27-3-47-8l-17 33h300l24 35M551 591l12 10c46-38 77-66 91-84 12-21 19-38 22-51 0-14-3-26-10-37-6-11-16-15-29-12-13 2-20 13-22 33s-6 39-13 59c-9 17-26 45-51 82m123 293c6-2 9-4 10-6 4-8-7-14-34-18 21-63 47-119 79-168 31-49 64-91 99-125 35-33 76-56 121-68v-16c-27-2-45-4-54-7-8-4-20-12-36-24-27 25-52 53-76 84-21 29-47 68-76 117-27 49-51 112-72 188-30-67-65-135-106-205-41-69-91-134-148-196l-14 10c48 72 92 143 131 213 37 70 74 154 109 252l67-31M107 562h184l37 46 41-43c13-9 17-17 14-23-2-6-5-8-8-8H225V382h80l37 51 56-57c6-8 4-14-5-20H225V126l158 117 10-15c-75-68-124-113-149-136-23-24-42-46-55-69l-54 47c13 8 27 20 43 37v249H80c-20 0-39-2-57-7L6 382h172v152h-30l-23-6-18 34m145 314c5-2 7-4 8-6 2-6-1-10-8-14-16-3-27-13-35-29l-45-105h144l38 45 58-57c1-2 2-4 2-6 0-6-2-8-6-8H162c-21-49-44-95-66-140-22-44-49-88-80-133l-16 6c45 93 83 183 115 271s54 158 67 211l70-35Z"/></symbol><symbol id="钥_G" viewBox="0 0 1000 1000" data-size="21"><path transform="matrix(1 0 0 -1 51 975)" d="M115 618h203l32 45 62-59 4-5c-2-5-4-8-6-8H244V448h94l33 43 63-51c2-2 3-4 4-7 0-7-4-10-12-10H244V169l156 127 10-16C293 174 227 100 211 59l-57 46c20 14 34 31 41 50v268h-84c-13 0-35-3-66-8l-16 33h166v143h-41l-19-4-20 31m156 293c6-2 8-5 8-8 1-4-2-7-9-11-14-5-24-10-30-16-23-45-39-78-49-100h157l39 49 62-60c1-2 2-4 2-6 0-5-2-7-8-8H180c-24-45-49-92-76-141s-57-93-92-131l-12 8c53 94 97 181 131 262 33 79 58 147 74 201l66-39m241-10 58-43h229l27 43 65-37c5-2 7-6 7-11s-10-16-31-34V111c0-26-4-48-13-66-9-16-32-29-69-39-2 16-8 29-17 39s-43 23-102 41l4 18c60-12 97-18 109-20 12-1 22 1 30 4 6 4 9 18 7 40v258H561c-8-82-23-143-45-186s-52-80-90-110c-39-31-87-61-143-90l-6 14c47 31 90 67 131 107 39 38 67 84 82 140 16 53 23 124 22 213v427m49-488h255v201H561V413m0 229h255v189H561V642Z"/></symbol><symbol id="钦_G" viewBox="0 0 1000 1000" data-size="21"><path transform="matrix(1 0 0 -1 33 967)" d="M113 599h200l35 45 56-57c1-2 2-5 2-8 0-4-2-6-4-6H236V413h108l33 47 57-53c2 0 3-2 4-6 0-7-4-11-12-11H236V147l182 139 14-14c-98-86-157-139-178-157-20-19-37-42-49-68l-57 53c16 7 30 20 41 38v252H82c-14 0-28-3-43-8l-16 31h166v160h-33l-19-4-24 30m157 297c5-3 8-6 9-10 0-5-4-8-11-10-13-4-25-14-34-29-19-37-33-69-43-94h133l33 45 61-55c1-2 1-4 2-6 0-6-3-8-8-8H180c-23-47-50-97-80-150-30-51-59-93-86-125l-14 8c56 97 100 186 133 267s56 147 70 200l67-33m371 7c4-2 7-4 7-6 2-3 0-7-7-11-20-8-34-20-41-35-16-36-32-75-47-118h240l33 39 55-46c10-10 15-17 15-20 0-5-4-7-13-8-20-6-38-17-55-35-15-17-43-55-82-111l-16 10 73 146H541c-35-78-75-148-119-211l-16 8c45 92 78 171 102 238 21 66 40 130 56 192l77-32m29-308c4 0 7-2 10-6 0-5-2-8-6-10l-16-12c17-95 36-173 57-234s49-110 86-148c36-40 81-67 133-80V88c-20 1-38-1-53-4-14-4-27-12-41-23-31 30-59 64-86 100s-50 82-68 137-34 142-47 264c-8-111-21-196-37-256-19-60-49-114-92-162C466 97 391 49 283 0l-8 16c84 47 146 92 186 133 40 43 70 94 90 155 17 59 30 163 39 312l80-21Z"/></symbol><symbol id="钧_G" viewBox="0 0 1000 1000" data-size="21"><path transform="matrix(1 0 0 -1 55 958)" d="m785 429 10-16c-167-96-257-150-272-162-14-12-29-26-44-43l-49 55 355 166M631 876c1-4 2-7 2-8 0-3-3-6-10-10-15-2-28-11-39-29-17-37-34-73-51-107h260l31 47 59-49c4-3 7-6 8-10-1-4-12-14-34-29-3-280-8-444-13-491-4-46-10-79-18-96-6-20-15-37-29-53-13-16-38-29-74-41-6 23-18 41-35 53-18 10-52 23-102 41l6 16c47-12 81-20 101-24 19-4 34-5 45-4 11 0 22 6 32 18 9 8 17 38 25 88 7 49 12 219 16 508H523c-48-94-91-167-128-218l-16 9c47 93 85 175 113 244 28 68 48 129 61 184l78-39M529 608c37-24 65-45 84-62 18-16 31-31 39-47s9-31 4-45c-6-14-15-21-29-21-14-1-23 8-25 27-3 17-10 35-20 55-9 19-30 47-62 84l9 9m-425-29h187l33 43 55-55c1-2 2-4 2-7 1-4-1-6-4-6H238V397h80l39 47 57-52c2 0 3-2 4-6 0-8-5-12-14-12H238V132l141 101 12-13C279 129 215 63 197 21l-52 51c16 14 33 30 48 48v254h-86c-21 0-43-3-64-8l-18 31h168v157h-45l-23-4-21 29m150 297c4-2 7-4 8-6 2-8-2-12-12-14-15-6-26-16-33-31-18-37-32-66-43-88h142l39 49 61-58c1-2 2-4 2-6 0-6-2-9-6-8H164c-21-48-46-97-74-149-27-51-54-93-78-125l-12 8c48 91 87 178 119 260 31 81 54 147 69 197l66-29Z"/></symbol><symbol id="钨_G" viewBox="0 0 1000 1000" data-size="21"><path transform="matrix(1 0 0 -1 48 963)" d="M373 247h287l41 53 57-57c2-2 3-4 4-8 0-8-5-13-14-13H443c-14 0-31-3-50-8l-20 33m289 649c2-4 3-6 4-6 0-7-6-11-18-14-23-10-48-43-76-98h155l31 43 55-37c5-4 9-8 9-13 0-3-2-6-8-10l-25-22v-88c1-56-6-95-21-117-15-21-39-39-75-53-5 18-15 32-29 41-14 11-39 21-74 32l4 15c42-9 73-14 92-15 17-3 31 2 41 13s15 36 13 73v115H500V407h309l35 43 52-47c6-3 8-6 8-9 0-4-11-15-35-32l-10-144c-4-82-15-136-33-161-17-25-45-44-82-57-6 23-15 40-29 49-14 10-43 22-86 37l2 18 66-18c41-10 69-8 84 6 15 12 26 52 32 122l9 172H514l-34-37-58 45 29 29v398l55-43h39c18 50 33 99 47 149l70-31M98 581h201l41 51 53-59c3-1 5-4 5-10 0-3-3-5-9-5H236V407h67l35 47 55-53c2 0 3-2 3-5 0-8-4-12-13-12H236V120l127 86 10-14c-64-52-106-89-127-112-19-21-34-41-43-59l-51 51c16 13 29 26 39 40v272h-86c-11 0-33-3-64-8l-18 31h168v151h-56l-16-8-21 31m164 299c4-4 6-7 6-8 2-4-1-8-8-10-15-2-28-11-39-27-22-42-37-74-47-96h133l37 53 60-61c2-2 2-3 2-5 0-6-2-9-6-8H164c-21-47-45-92-70-135-24-43-51-85-80-125L0 468c41 76 76 148 104 215 27 66 56 144 87 234l71-37Z"/></symbol><symbol id="钩_G" viewBox="0 0 1000 1000" data-size="21"><path transform="matrix(1 0 0 -1 54 962)" d="M604 888c5-2 7-4 7-6 4-6 4-11-2-14-8-2-17-6-27-14-10-5-19-18-27-37-8-17-20-43-35-80h279l27 39 59-41c4-4 7-7 8-11 0-4-12-15-36-34-11-259-18-412-21-457-1-45-5-84-10-115-4-29-13-54-27-73-14-17-39-32-76-45-7 20-19 35-37 47-18 10-48 20-90 31l4 20c71-17 116-23 136-20s33 19 39 48c6 30 10 66 14 107 2 43 9 202 22 477H510c-38-80-76-148-115-205l-14 8c36 80 66 156 90 228 23 72 41 132 52 180l81-33m-59-280c45-19 70-31 76-35 5-3 7-6 6-10-1-3-9-6-22-7-12-3-31-32-56-86-26-56-54-114-84-174l197 25c-16 45-36 84-60 117l11 10c39-36 69-67 88-95 20-28 29-51 29-71 0-19-2-34-7-43-7-9-16-13-28-11-11 1-18 9-19 23s-4 31-10 51c-63-11-111-22-145-33-33-10-61-24-83-41l-40 56c16 3 32 12 47 26 23 58 44 114 63 168 17 53 29 97 37 130M98 587h177l30 43 54-57c2 0 2-2 2-6 1-4 0-7-4-7H223V407h74l33 45 53-53c2 0 3-2 4-5 2-8-1-12-10-12H223V147l134 106 10-14c-86-79-135-125-144-139-11-15-23-34-37-57l-49 47c15 11 28 27 39 48v244H90c-12 0-33-3-65-8L8 407h168v153h-39l-18-8-21 35m164 307c9-5 13-10 11-14 0-4-5-8-17-12s-20-10-24-17c-3-6-11-19-23-38-9-19-20-41-33-64h138l34 45 58-57c2-2 2-4 2-6 0-4-2-7-6-7H166c-20-42-43-86-70-131-28-44-56-85-84-121l-12 7c45 81 84 161 117 241s58 148 74 205l71-31Z"/></symbol><symbol id="钪_G" viewBox="0 0 1000 1000" data-size="21"><path transform="matrix(1 0 0 -1 29 959)" d="M375 712h416l37 55 65-67c2-2 3-4 3-8 0-5-5-8-15-7H457c-14 0-36-3-66-8l-16 35m174-152h131l27 37 59-35c5-4 7-8 7-12 0-5-2-8-5-10l-30-21V102c0-10 6-15 20-16h90c9 1 17 6 21 16 4 9 7 31 10 67l2 94h21c2-69 4-110 8-121 3-14 14-26 31-36-3-14-11-28-23-42-10-11-31-19-64-23H736c-31 4-47 24-48 61v430H537V401c1-97-4-166-16-205-11-40-35-78-70-112-34-36-81-64-138-84l-8 14c54 30 93 60 119 90 25 30 41 64 51 104 8 39 12 104 11 193v202l63-43m-14 341 8 12c33-17 59-33 76-47 18-13 29-26 35-37 6-12 10-23 12-33 1-10 0-20-4-29-4-8-10-14-17-18-6-5-14-5-24-2-10 4-16 12-17 24-1 11-4 27-10 46-4 19-24 47-59 84M100 591h193l37 47 41-43c12-10 17-18 14-24-2-6-5-8-8-8H227V421h74l37 51 57-57c5-8 3-14-6-19H227V122l158 125 13-16c-74-71-123-117-144-139-22-23-39-46-53-69l-60 47c11 8 23 19 35 32v294H84c-20 0-39-3-57-8l-17 33h166v142h-39l-20-5-17 33m150 293c5-2 7-4 8-6 2-6-1-10-8-14-16-4-27-13-35-29-16-29-28-55-37-76h142l39 45 57-57c1-2 2-4 2-6 0-6-2-8-6-8H166c-21-47-44-93-68-138-24-44-51-86-82-127l-16 6c47 89 85 172 115 250 29 77 51 142 67 195l68-35Z"/></symbol><symbol id="钫_G" viewBox="0 0 1000 1000" data-size="21"><path transform="matrix(1 0 0 -1 33 969)" d="M549 935c58-34 95-60 109-79 14-20 22-37 24-50 0-15-5-26-14-34-8-8-18-11-29-7-12 3-19 12-20 27-2 13-6 29-14 49-5 18-27 46-64 84l8 10M383 728h437l39 56 71-62c2-2 3-6 4-12 0-7-4-10-12-10H570V538h194l31 41 60-45c8-4 12-8 12-12 0-3-13-14-41-31-8-194-12-304-13-332-2-27-8-50-18-67-8-18-20-31-35-41s-34-18-57-24c-6 28-19 46-41 55-20 10-51 22-92 33l6 17c70-12 115-19 135-21 19 0 32 5 39 13 5 9 10 29 14 61 2 31 5 140 9 328H570c-2-96-12-174-31-235s-53-115-101-161C389 70 329 31 260 0l-4 18c45 24 93 62 144 112 49 50 82 110 100 180 16 68 23 166 20 293v97h-55c-14 0-36-2-67-8l-15 36M111 620h192l33 45 45-41c12-10 17-18 14-23-2-6-5-9-8-8H223V433h109l37 50 57-56c6-8 4-15-6-20H223V159l172 121 11-11c-82-73-136-120-160-143-22-22-40-44-55-65l-56 56c11 7 24 16 39 29v261H80c-20 0-39-2-57-8L6 433h168v160h-22l-23-6-18 33m139 283c5-2 7-4 8-6 2-5-1-10-8-13-16-4-27-14-35-30-16-29-28-54-37-76h138l39 45 57-56c1-2 2-4 2-6 0-6-2-9-6-8H166c-21-48-44-94-68-139-24-43-51-86-82-127l-16 6c47 89 85 173 115 250 29 78 51 143 67 195l68-35Z"/></symbol><symbol id="钬_G" viewBox="0 0 1000 1000" data-size="21"><path transform="matrix(1 0 0 -1 26 962)" d="M105 597h198l37 47 41-43c12-10 17-18 14-24-2-6-5-8-8-8H236V427h61l37 51 57-57c5-8 4-14-6-20H236V157l170 123 12-11c-83-77-136-127-160-151-22-22-39-44-53-65l-59 51c12 7 26 17 42 30v267H78c-20 0-39-2-57-7L4 427h184v142h-42l-23-6-18 34m360-4c6 27 10 60 12 97h17c8-76 9-129 4-160-6-31-16-53-29-66s-26-19-39-18c-14 2-22 7-26 16s-2 18 4 27 16 22 30 39c13 16 22 37 27 65m131 332c56-22 86-34 88-37 2-2 2-4 0-6-2-3-13-8-32-16 0-84 4-150 10-197 6-46 12-98 18-156 26 27 54 60 84 97 29 37 52 73 68 106 47-32 70-50 68-55 0-4-2-7-5-8-4 0-10-2-18-4-9 0-27-13-55-41-27-25-73-66-136-123 22-102 46-175 72-220 23-43 50-80 80-112 29-28 65-52 109-71V64c-25 2-43 2-52 0-9 0-23-7-43-23-39 39-73 83-100 132s-50 103-68 164c-18 60-32 160-41 299-6-171-22-285-47-344-26-59-61-110-106-154C445 93 369 48 264 0l-10 16c96 49 166 99 211 149 45 51 76 107 94 168 18 60 30 164 37 313v279m-346-39c5-2 7-4 8-6 2-6-1-11-8-14-16-4-27-13-35-29-16-29-28-55-37-76h170l39 45 56-57c2-2 2-4 2-6 0-6-2-8-6-8H166c-21-47-44-93-68-138-24-44-51-86-82-127l-16 6c47 89 85 172 115 250 29 77 51 142 67 195l68-35Z"/></symbol><symbol id="钭_G" viewBox="0 0 1000 1000" data-size="21"><path transform="matrix(1 0 0 -1 23 965)" d="m881 444 66-52c4-2 6-5 6-8 0-4-6-8-17-12l-184-19V128l4-89c0-8-6-16-18-23-10-8-23-13-39-16l4 126v219l-299-32c-17-5-33-11-47-17l-23 37 369 39v559l82-35c6-5 7-8 4-8 0-3-2-6-6-10l-31-14V378l96 12 33 54M459 825l8 14c41-20 74-38 99-55s40-35 45-53c6-17 4-31-4-41-7-9-17-13-29-11-12 1-19 9-23 25-5 14-12 29-22 47-8 16-33 40-74 74m-18-217 10 10c55-28 92-51 112-68 17-18 29-35 35-53 4-16 3-29-4-39-6-10-16-16-30-16-11 0-19 9-23 28-3 15-12 35-27 58-14 23-38 50-73 80m-334-2h198l37 47 41-43c12-9 17-17 13-23-1-6-4-9-7-8H238V425h100l37 49 57-55c6-8 4-14-6-20H238V149l170 118 12-14c-82-70-135-116-158-139-22-22-39-44-53-65l-61 55c12 7 26 17 41 30v265H94c-20 0-39-2-57-7l-17 33h169v154h-41l-23-6-18 33m141 290c5-2 7-4 8-6 2-6-1-11-8-14-16-4-27-14-35-29-16-30-28-55-37-76h154l39 44 57-56c1-2 2-4 2-6 0-6-2-9-6-8H164c-21-47-44-94-68-139-23-43-50-83-80-119l-16 6c46 83 84 164 113 242s51 143 67 196l68-35Z"/></symbol><symbol id="钮_G" viewBox="0 0 1000 1000" data-size="21"><path transform="matrix(1 0 0 -1 30 939)" d="m777 823 59-43c3-2 6-6 8-11 0-6-13-16-37-30L787 53h53l37 50 59-56c2-2 3-5 3-10 0-6-3-9-11-10H389c-21 1-47-2-78-7l-16 33h195l22 364h-47c-13 1-27-3-45-10l-20 37h114l19 311h-53c-14 0-31-3-50-8l-16 33h328l35 43M539 53h201l10 364H559L539 53m22 391h189l8 311H582l-21-311M96 554h209l35 41 51-55s1-2 2-6c-1-4-2-7-4-8H217V378h97l32 47 54-53c2 0 4-2 4-6 0-8-4-13-11-13H217V106l144 122 12-14C266 116 203 44 186 0l-59 45c21 14 35 31 43 52v256H98c-14 0-36-3-67-8l-15 33h154v148h-31l-18-7-25 35m152 291c2-2 4-5 6-8 0-4-4-8-12-12-14-6-27-19-39-41-12-20-24-45-37-74h141l35 45 54-55c1-2 2-4 2-6 0-4-2-7-7-7H154c-21-47-45-93-70-137-23-44-47-83-70-115l-14 7c40 80 77 159 109 239 32 79 55 145 71 197l68-33Z"/></symbol></svg>