<svg xmlns="http://www.w3.org/2000/svg"><symbol id="铿_G" viewBox="0 0 1000 1000" data-size="21"><path transform="matrix(1 0 0 -1 31 951)" d="M670 341c6-2 7-6 4-12 0-1-2-2-6-4l-31-13v-67h146l33 43 57-51c2 0 3-2 4-6 0-7-4-11-12-11H637V37h191l39 51 63-61 4-4c0-7-4-11-12-11H393c-14 0-36-2-67-8l-15 33h277v183H457c-14 0-36-3-66-8l-16 33h213v125l82-29M518 901l76-29c4-2 6-4 6-8 2-2-10-9-36-19V452l4-60c-2-10-8-18-19-24-12-6-24-8-35-8l4 94v447m-133-86 76-29c4-2 6-4 6-8 2-2-9-11-35-25V530l4-72c-2-10-9-20-20-27-10-8-21-12-35-12l4 113v283m193-416c63 49 108 94 135 135-37 63-63 147-78 252h-26l-15-4-20 30h237l25 35 53-37c6-4 9-9 7-14 0-2-11-11-35-25-27-105-61-184-101-239 21-27 39-45 53-54 13-10 29-21 46-32 19-9 45-18 79-27v-14c-14 2-28 0-45-6-16-3-28-11-36-23-18 16-39 34-62 57-22 21-43 45-63 70-33-43-82-83-144-119l-10 15m82 387c20-102 45-176 76-221 27 36 55 109 84 221H660M109 569h155l33 45 41-41c12-10 17-17 14-23-2-4-5-6-8-6H205V394h66l36 44 50-50c6-8 4-15-5-20H205V104l133 122 12-14c-59-67-98-112-118-134-18-21-37-47-56-78l-55 41c14 10 27 22 39 37v290H94c-20 0-39-2-57-8l-17 34h140v150h-8l-25-6-18 31m143 293c5-2 7-4 8-6 2-5-1-10-8-13-16-5-27-14-35-28-12-29-24-57-37-84h101l33 41 51-52c2-2 2-4 2-6 0-6-2-9-6-8H170c-22-49-44-94-66-135s-52-88-90-138l-14 9c35 64 72 142 111 237 37 93 61 166 73 218l68-35Z"/></symbol><symbol id="销_G" viewBox="0 0 1000 1000" data-size="21"><path transform="matrix(1 0 0 -1 66 958)" d="M98 573h173l32 41 54-54c1 0 2-2 2-6-2-5-4-7-5-8H211V399h70l35 45 49-50c2-2 3-5 4-8 0-8-4-12-12-12H211V126l144 109 12-15C253 125 188 59 172 21l-51 45c16 13 29 27 41 44v264h-60c-14 0-36-3-67-8l-15 33h142v147h-21l-20-4-23 31m160 303c5-2 8-4 8-6 2-4-2-8-12-12-22-7-39-22-49-45-8-21-23-52-43-93h125l35 47 55-57c1-2 1-4 2-6 0-4-3-7-8-8H150c-9-27-28-65-54-113-26-49-54-92-84-131l-12 8c42 81 80 164 113 248 33 83 57 151 71 203l74-35m158-227 53-37h131v305c53-16 81-25 84-29 2-4 1-7-2-8-3-2-14-9-34-20V612h118l33 39 53-35c5-2 7-6 7-12 1-4-8-13-27-27V80c1-21-5-38-16-51-10-11-30-21-60-29-4 22-14 37-29 45s-40 18-75 31l6 16c37-8 61-13 74-16 14-2 26-2 36 0 9 2 15 11 15 27v173H465V142l4-91c0-8-7-17-20-28-13-9-26-14-37-15l4 118v523m49-347h318v133H465V302m0 158h318v127H465V460m-67 367 8 10c31-16 59-35 84-57 25-21 40-41 45-58s3-30-4-39c-7-10-16-14-27-12-12 2-20 13-24 33-3 18-12 37-25 59-14 19-33 41-57 64m409 18c35-24 54-39 58-43 3-3 3-7 2-10 0-2-6-4-17-6-12-2-26-12-41-27-16-16-50-55-102-115l-16 11c43 62 82 125 116 190Z"/></symbol><symbol id="锁_G" viewBox="0 0 1000 1000" data-size="21"><path transform="matrix(1 0 0 -1 58 971)" d="m402 692 55-37h133v287l80-25c4-3 5-7 4-10-2-2-14-8-37-19V655h127l33 39 53-45c4-2 5-3 5-5 0-5-10-12-31-22V370l4-88c1-8-4-15-15-23-11-7-24-11-40-14l4 125v258H449V358l4-87c0-9-6-17-19-26-12-8-24-13-36-14l4 131v330m188-123 76-27c5 0 7-4 6-12 0-2-12-8-35-17 0-56-5-116-14-180-8-62-23-111-45-146-19-35-53-67-99-97-47-31-124-61-229-90l-6 18c78 25 143 54 194 87 50 32 85 67 105 105 18 37 31 83 37 139 6 52 9 126 10 220m55-338c56-21 97-39 125-54 25-15 48-30 70-45 19-14 32-28 39-44 6-14 7-27 4-39-4-11-12-18-24-20-9 0-20 9-31 26-10 17-26 37-49 62-21 24-68 58-140 101l6 13M383 870l12 12c39-28 68-51 87-69 19-17 32-35 38-54 3-18 1-31-6-41s-17-14-28-12c-11 1-18 12-21 31-3 18-10 37-22 57-11 19-32 45-60 76m297-170c60 74 99 135 119 184 42-28 64-44 66-49s0-8-4-10c-3 0-10-1-21-2-11 0-26-11-45-35-20-22-54-55-102-98l-13 10M102 593h183l31 43 55-57c1 0 1-2 2-6-1-4-2-7-4-8H213V421h76l31 43 55-51c2 0 4-3 6-8 0-6-5-9-14-9H213V149l129 104 10-14C254 151 197 88 180 49l-51 47c17 13 29 27 37 42v258h-64c-14 0-36-3-67-8l-15 33h146v144h-21l-20-3-23 31m138 306c5-2 9-5 10-11 0-4-5-8-14-12-17-4-30-14-37-29-13-31-26-62-37-92h119l35 45 55-57c1-2 1-4 2-6 0-4-3-7-8-8H150c-17-49-39-98-64-148-25-49-50-90-72-121l-14 8c42 88 77 175 107 260 29 83 50 151 63 203l70-32Z"/></symbol><symbol id="锂_G" viewBox="0 0 1000 1000" data-size="21"><path transform="matrix(1 0 0 -1 29 951)" d="m408 856 59-37h326l35 41c40-35 61-54 63-58 0-3-1-7-4-10-4-2-14-8-30-18V515l4-84c0-10-4-19-13-26-9-8-22-13-39-17v49H654V269h137l33 48 63-56c2-2 3-5 4-8 0-8-4-12-12-12H654V55h180l35 49c45-36 69-57 70-65 3-6 3-10 0-12-1 0-8-1-19-2H363c-14-2-25-5-33-9l-19 39h294v186H463c-14 0-36-2-67-8l-15 36h224v168H457v-20c0-8-6-16-19-25-13-8-24-12-34-12l4 115v361m49-392h148v146H457V464m197 146V464h155v146H654m-197 28h148v154H457V638m197 154V638h155v154H654M104 563h185l33 45 41-41c13-9 17-17 14-23-2-4-5-6-8-6H217V392h80l35 45 51-51c6-8 4-15-6-20H217V112l138 106 14-14C297 138 251 96 232 76c-17-19-35-45-52-76l-53 53c15 8 29 21 43 41v272H92c-20 0-39-2-57-8l-17 34h152v146h-25l-24-6-17 31m148 303c5-2 7-4 8-6 2-6-1-10-8-13-16-5-27-14-35-28-12-29-24-57-37-84h117l39 45 57-56c1-2 2-4 2-6 0-6-2-9-6-8H170c-22-49-44-94-66-135s-52-88-90-138l-14 9c35 63 72 142 111 237 37 93 61 166 73 218l68-35Z"/></symbol><symbol id="锃_G" viewBox="0 0 1000 1000" data-size="21"><path transform="matrix(1 0 0 -1 29 958)" d="M389 446h410l37 47 60-56c2-2 4-5 4-8 0-7-4-10-11-10H656V261h121l39 45 59-59c1-2 2-4 2-8s-3-6-8-6H656V57h180l37 47 65-57c1 1 3-1 3-4 2-8-2-13-9-14H418c-14 1-36-2-66-8l-16 36h271v176H490c-13 0-36-2-66-7l-16 35h199v158H459c-14 1-31-3-53-10l-17 37m47 418 54-41h274l31 35 49-37c8-4 11-8 11-13 0-4-9-12-29-24V626l4-76c0-10-6-20-17-29-12-8-24-12-36-12v56H484v-29c0-8-6-17-19-25-13-7-24-10-33-10l4 131v232m48-271h293v203H484V593m-380-24h193l33 45 41-41c12-10 17-17 14-23-2-4-5-6-8-6H215V392h86l35 45 51-51c6-8 4-15-6-20H215V112l144 117 14-15C299 142 252 96 232 76c-17-19-33-45-50-76l-57 55c13 8 27 20 43 37v274H88c-20 0-39-2-57-8l-17 34h154v152h-23l-24-6-17 31m148 311c5-2 7-4 8-6 2-6-1-10-8-14-16-4-27-14-35-31-12-29-24-57-37-84h123l39 45 56-57c2-2 2-4 2-5 0-6-2-9-5-8H170c-22-49-44-94-66-135-22-42-52-88-90-139L0 456c35 63 72 142 111 236 37 94 61 168 73 223l68-35Z"/></symbol><symbol id="锄_G" viewBox="0 0 1000 1000" data-size="21"><path transform="matrix(1 0 0 -1 34 971)" d="m352 899 54-43h100l27 41 55-41c6-2 9-5 10-11 0-3-11-12-32-28V251l59 14 2-18c-137-47-219-76-246-86-28-10-51-23-68-41l-36 59 75 21v699m46-691 120 31v188H398V208m0 246h120v172H398V454m0 199h120v176H398V653M92 612h150l31 45 53-58c1 0 2-2 2-6 1-5-1-7-4-8H203V440h49l27 41 53-48c2-2 3-5 4-8 0-9-5-12-14-10H203V198l110 84 11-13c-86-81-140-140-162-179l-51 46c16 14 32 30 47 49v230H98c-12 0-34-3-65-8l-17 33h142v145h-21l-18-8-27 35m84 330 60-35c4-2 7-4 10-8 3-2 1-5-4-9-17-4-32-16-43-36-13-35-26-66-37-93h88l29 41 51-53c1-2 2-4 2-6 0-4-2-7-6-8H150c-17-41-39-84-64-127-23-43-48-82-72-115L0 503c41 78 76 157 105 238 30 81 53 148 71 201m691-228 57-43c4-2 7-6 8-12 0-2-12-10-36-25-7-225-12-356-13-391-2-35-4-64-6-88-2-23-8-42-18-59-9-17-32-35-68-55-10 22-23 37-41 47s-47 22-88 34l4 18c35-10 68-17 100-20 30-1 49 7 56 24 6 17 10 43 12 76 2 32 8 176 18 429H740l-6-128c-7-170-39-290-95-358C584 96 521 42 449 0l-6 16c75 56 129 113 164 169 36 54 58 124 69 209 10 83 15 168 17 255h-37c-21 0-38-2-51-7l-21 35h109l4 261 71-29c9-4 15-8 15-12s-12-13-35-27l-6-193h96l29 37Z"/></symbol><symbol id="锅_G" viewBox="0 0 1000 1000" data-size="21"><path transform="matrix(1 0 0 -1 40 963)" d="M105 608h176l32 43 60-54c1 0 1-2 2-6-3-7-5-10-8-10H219V435h68l31 43 55-51c2 0 3-2 4-6 1-8-2-12-10-12H219V157l125 96 10-14c-74-67-118-109-133-128-15-17-28-37-39-60l-51 45c21 13 34 31 39 53v260h-68c-14 0-36-2-67-8l-17 34h152v146h-22l-27-8-16 35m86 319 65-28c5-2 8-5 8-7 4-6 0-11-12-14-12-6-23-18-33-35-20-31-34-59-43-82h138l36 43 58-53c1-2 2-4 2-6 0-4-2-7-8-8H164c-21-47-44-90-66-129-22-37-51-78-86-121l-12 8c44 78 83 156 115 236 33 78 59 143 76 196m272-22 58-43h249l33 41 56-43c6-4 8-7 8-11s-12-13-35-26V675l4-78c1-9-4-17-16-26-12-8-25-13-39-15v47H674c-3-46-7-90-14-133h168l33 37 49-45c6-2 9-6 10-12 0-4-12-12-37-25V78c-1-21-6-38-16-51-8-9-29-19-62-27-2 17-15 32-37 45-22 14-47 24-77 31l4 18c49-12 80-19 92-22 10-2 21-2 33 0 13 0 19 9 18 26v346H656c0-19-7-48-19-88 45-21 80-44 105-70 23-25 35-47 37-64 2-18 0-30-8-37-5-8-13-11-23-8-10 1-18 10-21 27-4 16-13 35-26 59-12 23-36 48-72 74-18-36-37-68-59-96-19-28-54-60-105-95l-6 11c34 37 61 67 78 92 18 25 33 55 47 88 13 34 22 70 27 107H445V146l4-89c0-9-4-17-13-26-9-7-22-11-40-13l4 131v364l55-43h160c4 41 7 85 10 133H514v-18c0-9-2-15-6-20-10-9-26-15-49-17l4 94v263m51-277h267v209H514V628Z"/></symbol><symbol id="锆_G" viewBox="0 0 1000 1000" data-size="21"><path transform="matrix(1 0 0 -1 37 962)" d="M553 837c6-2 7-6 4-12 0-2-3-5-8-8-12-4-22-10-29-19-6-8-18-35-36-82h135v209l82-31c5-2 8-4 8-6 2-5 1-8-2-10l-37-16V718h115l33 47 61-61c1-3 1-4 2-4 0-4-3-7-8-8H670V505h154l37 49 61-59c2-2 3-4 4-8 0-4-4-7-12-8H443c-13 0-35-2-66-7l-16 33h258v185H475c-16-43-39-92-71-148l-17 8c22 61 40 118 54 172 15 53 27 101 38 142l74-27M445 401l59-43h260l29 41 59-39c7-4 11-8 11-13 0-4-12-15-37-32V109l4-62c0-7-6-16-19-26-13-9-24-14-34-15v68H496V41c0-9-6-18-19-27-12-9-24-14-36-14l4 115v286m51-301h281v233H496V100M111 593h180l33 45 41-41c13-10 17-18 14-24-2-4-5-6-8-6H221V405h80l35 45 51-51c6-7 4-14-6-19H221V128l162 131 12-14c-81-80-130-130-149-149-17-20-35-45-53-75l-56 53c9 6 21 16 37 31v275H96c-20 0-39-3-57-8l-18 33h153v162h-22l-23-5-18 31m141 289c5-2 7-4 8-6 2-6-1-10-8-14-16-4-27-13-35-27-12-29-24-57-37-84h117l39 45 57-57c1-2 2-4 2-6 0-5-2-8-6-7H170c-22-49-44-94-66-135-22-42-52-88-90-139L0 462c35 63 72 142 111 236 37 93 61 166 73 219l68-35Z"/></symbol><symbol id="锇_G" viewBox="0 0 1000 1000" data-size="21"><path transform="matrix(1 0 0 -1 37 953)" d="M104 565h166l33 45 41-41c12-9 17-17 13-23-2-4-4-6-7-6H217V390h76l35 45 51-51c6-8 4-15-6-20H217V126l138 107 12-13c-65-65-107-106-127-124-18-18-37-41-56-71l-55 47c12 8 25 20 41 37v255h-68c-21 0-39-2-57-8l-18 34h143v150h-25l-24-6-17 31m253 36h125v164c-31-10-68-19-111-26l-4 16c100 32 175 65 227 98 26-32 41-49 43-53s1-7-2-8-10-1-22 0c-9 2-37-4-82-18V601h133v304l76-27c10-4 9-10-2-18l-27-17V601h113l37 46 57-56c2-2 3-5 4-8-1-5-2-7-4-8H711c1-57 1-101 2-133s5-71 14-119c31 55 62 119 93 194 47-24 71-38 71-43 0-7-2-10-6-10-5-1-12-2-22-4-9-2-22-16-37-43-14-25-43-72-86-141 12-37 28-72 47-105 20-33 35-55 47-66 12-10 20-15 23-13 4 2 9 14 16 36 5 23 14 62 25 117l20-4c-6-47-10-86-14-117-4-29-4-52 2-67 4-14 9-25 16-34 4-5 5-11 4-17-3-4-7-6-14-6-6 1-19 6-37 16-18 7-37 21-59 41-21 20-41 44-58 73-18 29-35 65-51 109-39-47-90-96-152-145l-12 10c60 61 109 119 148 172-13 55-21 104-23 147-1 41-3 92-4 152H531V403l98 47 10-13-110-67V102c3-36-2-60-15-75-12-13-30-22-55-27-8 23-20 38-37 45-16 8-39 16-70 25l3 18c47-10 79-16 98-18 20 0 29 13 29 39v234c-30-18-50-31-60-41-10-8-20-20-31-37l-39 54 130 63v193h-58c-14 1-29-2-45-10l-22 36m397 232c39-16 68-33 88-49 17-15 27-30 31-43 2-13 0-25-6-35-6-9-15-13-25-12-10 2-16 9-20 22-2 11-8 25-17 43-9 17-28 38-57 62l6 12m-502 35c5-2 7-4 8-6 2-6-1-10-8-13-16-5-27-14-35-28-12-29-24-57-37-84h99l35 39 53-50c1-2 2-4 2-6 0-6-2-9-6-8H170c-22-49-44-94-66-135-22-42-52-88-90-139L0 448c35 63 72 142 111 237 37 93 61 166 73 218l68-35Z"/></symbol><symbol id="锈_G" viewBox="0 0 1000 1000" data-size="21"><path transform="matrix(1 0 0 -1 26 966)" d="M389 702h236v119c-61-8-129-12-203-13l-2 17c77 11 152 24 225 37 72 13 126 28 164 45 32-35 48-54 48-58s0-7-2-10c0-2-5-2-15 0s-27 3-53 2-64-5-115-14V702h144l36 51 62-59c2-2 3-4 4-7 0-8-4-12-12-12H711c23-39 45-67 64-86 20-19 41-36 65-51 22-14 58-23 107-29v-16c-25 0-41-4-49-12-7-5-17-15-29-29-21 14-43 31-64 49-20 18-39 39-59 64-17 24-37 60-58 110h-16v-88l4-76c0-8-7-16-20-24-11-8-23-12-35-13l4 111v90c-33-46-67-87-102-121-33-34-78-71-132-110l-12 12c46 43 84 81 113 115 28 33 53 67 76 104h-97c-14 0-36-3-67-8l-15 35m338-264 23 28 47-37c5-4 8-8 8-12s-10-10-30-18l-35-91h88l27 31c42-31 62-48 61-51-2-2-5-4-8-6-2 0-12-7-27-19-11-82-22-137-33-165-12-30-24-49-35-59-12-9-32-19-63-31-8 23-18 39-31 47-14 8-45 21-94 39l8 17c44-11 74-19 90-23 13-4 27-6 41-6 11 0 23 10 37 29 13 19 25 76 35 171h-88l-27-29-57 37 35 31 33 92H584c-1-123-27-215-80-275C452 78 381 32 289 0l-4 18c76 33 137 79 182 137 45 57 68 143 70 258h-43c-13 0-30-3-51-8l-19 33h303M104 599h181l33 43 53-55c0-1 1-3 4-8-2-4-4-7-6-8H213V425h74l31 45 55-51c2 0 3-3 4-8 0-8-4-12-12-12H213V163l158 121 10-13C266 165 199 92 180 51l-57 51c16 12 31 26 45 42v255H92c-14 0-36-2-67-7l-15 33h158v146h-22l-19-8-23 36m138 302c5-2 8-5 8-7 2-7-3-12-14-16s-22-14-31-31c-18-35-31-65-39-88h125l35 47 57-57c0-2 1-4 2-6 0-4-3-7-8-8H154c-17-44-39-90-66-138-25-48-50-89-74-121l-14 9c42 86 78 168 107 248s51 147 67 200l68-32Z"/></symbol><symbol id="锉_G" viewBox="0 0 1000 1000" data-size="21"><path transform="matrix(1 0 0 -1 24 954)" d="M551 755c1-4 2-7 2-8 0-2-2-4-6-8-22-3-37-20-47-51-8-29-21-64-37-103 36-31 61-55 74-70s24-32 31-51c6-18 6-32 0-43-5-12-13-18-23-18s-18 4-22 14c-4 7-7 20-9 37-2 15-7 31-14 49-8 16-22 37-43 64-23-66-49-119-76-160l-14 4c37 90 74 217 112 381l72-37m109-473h133l35 47 63-55c4-2 5-4 5-7 0-8-3-12-11-12H660V47h186l39 53 60-61c4-1 6-4 6-8 2-8-2-11-12-11H416c-14 0-37-2-68-8l-14 35h277v208H477c-14 0-36-3-67-8l-15 35h216v625l78-29c6-2 10-4 10-6 2-4 2-8-2-10l-37-21V282m213 489c2-4 3-7 4-8 0-3-3-6-8-10-19-1-34-18-43-51-8-32-19-68-35-109 43-31 74-59 94-82 20-24 32-45 37-61 3-15 2-28-4-37-6-10-14-16-23-16-10 0-17 6-22 18-4 10-8 23-12 37-2 13-9 30-19 51-11 21-29 46-55 74-46-107-81-174-103-203l-14 8c49 111 93 250 133 418l70-29M104 550h187l33 45 41-41c13-10 17-18 14-24-2-4-5-6-8-6H221V378h72l35 45 51-51c6-8 4-14-6-19H221V102l146 98 12-13c-72-59-117-97-135-115-17-17-37-41-58-72l-53 47c12 7 25 18 41 33v273H80c-20 0-39-3-57-8L6 378h168v146h-29l-24-5-17 31m150 312c4-2 7-4 8-6 2-5-1-10-8-13-16-5-27-14-35-28-13-35-26-66-39-93h121l39 45 56-57c2-2 2-4 2-6 0-6-2-8-5-8H170c-22-49-44-93-66-134-22-42-52-88-90-139L0 433c35 62 72 142 111 240 39 97 63 172 75 224l68-35Z"/></symbol><symbol id="锊_G" viewBox="0 0 1000 1000" data-size="21"><path transform="matrix(1 0 0 -1 30 958)" d="M852 839c-17 1-61-5-133-16-73-11-184-25-332-41l-2 18c134 21 232 40 295 56 62 14 121 31 177 51 34-39 51-60 51-64 0-2 0-4-2-6 0-2-6-2-15 0-11 1-24 2-39 2M432 724c54-37 88-67 99-88 13-22 15-40 8-55-6-16-16-23-29-23-14-1-22 9-24 31 0 19-6 37-15 55-9 15-26 39-51 72l12 8m166 31c46-41 74-74 84-100 8-25 9-45 2-60-8-14-19-20-34-18-14 2-21 12-21 29 1 17-1 36-4 55-3 18-16 46-39 84l12 10m234 27 66-35c2-6 2-10-2-14-4-2-9-4-15-5-6-3-13-6-20-10-6-4-19-20-39-47-19-26-43-57-72-92l-16 8c24 43 41 75 53 98 10 21 25 54 45 97M391 433h322v129l74-28c7-2 9-6 8-12-1-4-12-11-33-19v-70h82l37 45 53-55c2-3 4-6 5-10-1-4-3-7-5-8H762V82c2-21-5-39-22-53-15-13-35-23-58-29-4 18-16 32-36 43-20 12-50 23-89 33l6 20c39-9 69-15 89-20 20-4 36-3 47 2 11 6 15 16 14 29v298H473c-14 0-36-2-67-8l-15 36m70-110 10 12c44-27 75-49 92-64 16-17 27-34 31-51 2-17-1-30-8-39-8-9-18-12-31-10s-19 12-20 29c0 18-5 37-14 55-8 17-28 40-60 68M104 577h203l33 45 41-41c12-10 17-18 14-23-2-4-5-6-8-6H232V386h73l35 45 51-51c5-8 4-14-6-20H232V115l135 89 12-14c-66-53-108-89-127-108-18-18-37-41-57-70l-52 56c13 4 27 14 43 30v262h-77c-20 0-39-2-56-7l-18 33h151v166h-41l-24-6-17 31m148 305c5-2 7-4 8-6 2-6-1-10-8-14-16-4-27-13-35-27-12-29-24-57-37-84h129l39 45 56-57c2-2 2-4 2-6 0-5-2-8-6-7H170c-22-49-44-94-66-135-22-42-52-88-90-139L0 462c35 63 72 142 111 236 37 93 61 166 73 219l68-35Z"/></symbol><symbol id="锋_G" viewBox="0 0 1000 1000" data-size="21"><path transform="matrix(1 0 0 -1 30 967)" d="M418 435h189v115l81-29c6-3 9-6 7-10 0-3-2-5-7-8l-30-16v-52h90l33 43 55-51c1-2 2-5 2-8 1-7-3-10-10-10H658v-97h84l33 42 57-50c2-2 3-5 4-8 3-7-1-10-10-10H658V185h162l35 50 59-58c2-2 4-5 6-8 0-8-4-12-12-12H658v-47l4-75c-1-8-8-15-21-23S615 0 602 0l5 110v47H467c-12 0-31-2-59-8l-23 36h222v101h-95c-14 1-32-2-55-10l-25 36h175v97H500c-14 0-33-2-59-8l-23 34m195 461c2-2 4-4 4-6 1-2 0-5-4-8-15-2-27-8-35-18-6-8-17-21-31-41h197l37 37 59-52c6-4 8-7 6-8 2-4-4-8-18-12s-25-12-35-23c-10-12-25-28-43-47-18-20-43-45-76-76 23-20 51-36 84-49 32-13 62-22 90-28 26-6 57-9 91-9v-18c-23-2-39-6-48-14-10-6-19-17-26-33-47 17-88 35-123 55-36 19-68 42-97 68-27-21-60-45-102-70-41-23-98-49-170-76l-8 13c65 32 114 59 147 82 33 22 68 49 105 81-40 40-73 84-97 130-34-54-76-111-125-170l-14 8c35 62 66 119 92 172 25 53 48 103 68 151l72-39m-84-98c26-44 63-87 112-131 43 40 80 84 111 131H529M111 583h160l32 39 54-53c2 0 2-2 2-6 1-4 0-7-4-7H225V411h72l29 41 57-51c2 0 3-2 4-5 0-9-5-12-14-10H225V134l142 133 14-18C271 143 209 70 193 29l-62 45c17 14 33 30 47 50v262H92c-13 0-31-3-57-8l-17 33h160v145h-32l-17-8-18 35m141 299c6-2 9-6 8-12-3-2-8-4-16-8-19-6-32-17-39-35-17-36-30-64-39-86h131l37 41 57-53c1-1 2-3 2-5 0-5-2-8-6-8H156c-18-47-40-95-66-143-24-48-50-90-78-127l-12 8c44 92 79 178 107 258s51 148 69 205l76-35Z"/></symbol><symbol id="锌_G" viewBox="0 0 1000 1000" data-size="21"><path transform="matrix(1 0 0 -1 39 965)" d="m766 759 39 53 66-61c2-3 3-6 4-10 0-6-4-10-12-10H477c-14 0-36-2-67-7l-15 35h371m-291-53c64-47 101-82 111-103s13-38 10-51c-3-14-8-24-16-30-8-5-16-7-25-5-10 2-16 11-18 29-2 17-8 38-17 62-10 24-28 52-57 86l12 12m273 4 57-33c9-6 13-11 13-14 2-4-2-8-9-10-15-4-30-15-45-35l-88-133h142l37 51 63-57c2-2 3-5 4-9 0-8-4-12-12-12H660V296h123l33 53 63-59c2-1 3-5 4-10 0-8-4-11-12-11H660V126l4-81c0-10-6-20-19-29-14-9-27-15-38-16l4 120v149H482c-13 0-35-3-66-8l-16 35h211v162H455c-14 0-36-3-66-8l-24 35h281c45 85 79 160 102 225M537 917l6 14c45-20 75-37 92-53 15-16 25-31 27-43s1-22-2-31c-4-10-10-17-17-20-9-2-16-2-22 0-6 3-12 11-16 26-3 13-8 27-13 43-5 13-23 35-55 64M94 587h174l37 49 56-63c1 0 2-2 2-6s-2-7-4-7H213V413h68l32 43 54-51c2 0 4-2 6-8 1-6-3-9-12-9H213V149l115 92 12-15C240 138 184 73 170 31l-59 49c18 14 35 33 53 58v250H82c-14 0-36-3-66-8L0 413h164v147h-33l-20-4-17 31m144 307c5-3 8-6 8-8 1-3 0-6-4-10-24-8-39-20-45-35-16-37-28-67-37-90h111l36 47 54-59c1-2 2-4 2-6 0-4-2-7-8-7H146c-16-46-37-94-62-143s-49-88-72-115l-12 8c38 84 72 167 102 250 28 80 51 147 68 203l68-35Z"/></symbol><symbol id="锍_G" viewBox="0 0 1000 1000" data-size="21"><path transform="matrix(1 0 0 -1 23 972)" d="M514 446c8-2 11-6 7-13 0-1-11-6-35-16 2-98-2-170-11-217-9-46-27-84-55-114-28-31-80-59-154-86l-6 16c54 26 95 54 123 84 26 28 42 68 49 120 6 49 7 133 6 252l76-26m80 32 70-24c10-4 15-6 16-8 2-4 1-8-2-11l-37-16V128l4-79c0-9-7-18-20-28-14-10-25-14-35-13l4 120v350m156-12 82-28c1-3 1-6 2-7 0-2-2-5-6-8l-31-12V102c0-23 4-36 12-38 7-1 15-3 23-3h31c17 4 26 19 28 44 2 23 4 63 5 123h20l4-81c4-33 15-55 33-63-9-25-20-41-33-49-14-8-28-12-43-12h-51c-18 0-33 2-45 6-11 4-20 13-27 26-3 9-4 26-4 49v362M572 743c41-19 63-31 65-35 2-3 2-7 0-10-2-2-8-4-18-4-8 0-23-11-47-33-23-19-59-55-107-105l336 7c-30 41-61 75-94 104l10 12c43-24 79-49 109-76 29-26 46-48 51-67 5-17 3-32-4-43-6-10-14-15-25-14-12 2-20 10-24 24s-10 27-15 39c-153-8-248-14-288-18-38-3-70-11-97-23l-31 61c18 1 41 9 66 25 36 43 74 95 113 156m258 33 35 51 63-56c2-2 3-5 4-8 2-8-2-12-12-12H461c-10 0-31-3-63-8l-19 33h451M549 923l10 12c31-16 56-30 76-41 17-13 30-26 39-40 8-13 10-27 6-41s-14-21-30-21c-13-1-22 7-25 21-3 15-8 29-16 43-5 15-26 37-60 67M102 589h187l33 41 33-37c13-10 17-18 14-24-2-4-4-6-8-6H223V415h84l35 45 51-51c5-8 3-14-6-19H223V159l138 112 14-14c-70-67-114-111-133-131-17-18-35-44-53-77l-54 53c13 9 27 21 41 36v252H84c-20 0-39-3-57-8l-17 33h166v148h-33l-24-5-17 31m148 320c5-2 7-4 8-6 2-6-1-10-8-13-16-5-27-14-35-28-16-37-29-70-41-97h107l39 45 57-57c1-2 2-4 2-6 0-6-2-8-6-8H164c-19-46-41-90-64-133-23-42-51-86-86-132l-14 9c33 59 68 137 107 235 39 97 64 173 75 226l68-35Z"/></symbol><symbol id="锎_G" viewBox="0 0 1000 1000" data-size="21"><path transform="matrix(1 0 0 -1 31 961)" d="M463 644h285l31 39 51-49c2-2 3-4 4-6 0-7-4-10-12-10h-82V435h28l25 37 43-43c2-2 3-5 4-8 0-8-4-12-12-12h-88V214l4-51c0-12-4-22-14-31-9-8-23-12-41-12l4 100v189h-97c2-86-7-149-26-189-17-40-52-79-105-116l-10 9c41 42 68 81 82 118 12 37 17 96 16 178h-43c-15 0-28-2-39-8l-16 34h98v183h-32c-13 0-28-2-42-8l-16 34m230-209v183h-95V435h95M391 755l70-31c4-3 6-6 6-8 0-3-1-6-4-10l-25-14V138l3-95c0-10-6-19-19-27-12-9-24-13-35-14l4 126v627m482 115 57-43c5-2 8-6 8-10s-5-7-14-11l-20-20V109c3-25 0-48-9-68-8-18-26-31-53-41-8 20-20 33-35 41-14 8-39 20-77 33l6 16c41-10 67-16 77-18h29c12 1 17 13 15 37v699H672c-12 0-30-3-55-8l-21 33h252l25 37m-439 53c58-35 93-61 107-78 12-19 19-33 20-45 0-11-4-20-12-28-7-7-15-10-26-7-9 1-16 9-19 25-5 16-12 33-22 51-9 17-28 41-56 70l8 12M109 587h159l33 45 37-41c12-10 17-18 14-24-2-4-5-5-8-5H219V409h49l35 45 49-51c5-7 3-14-6-19H219V159l115 96 12-14c-52-54-88-92-108-113-20-20-39-46-56-77l-53 51c9 5 23 17 43 34v248h-65c-20 0-39-3-56-8l-18 33h139v153h-22l-23-6-18 31m143 299c5-2 7-4 8-6 2-6-1-11-8-14-16-4-27-13-35-27-12-29-24-57-37-84h84l35 43 53-55c1-2 2-4 2-6 0-6-2-8-6-8H170c-22-48-44-93-66-134-22-42-52-88-90-139L0 466c35 63 72 142 111 236 37 93 61 166 73 219l68-35Z"/></symbol><symbol id="锏_G" viewBox="0 0 1000 1000" data-size="21"><path transform="matrix(1 0 0 -1 34 969)" d="m389 782 70-31c5-3 8-5 8-8 0-2-1-6-4-10l-25-13V151l3-94c0-10-6-19-19-28-14-8-26-13-37-13l4 126v640m37 145c62-35 97-61 107-78s14-31 12-43-6-21-12-26c-6-6-13-9-23-8-11 0-18 10-22 28-2 18-9 36-19 54-9 17-26 38-51 61l8 12m293-250 60-33c4-4 6-7 6-8-2-6-12-17-31-32V310l4-51c0-6-5-14-18-24-11-7-22-12-33-13v41H570v-34c0-9-6-18-17-25-11-6-22-10-33-12l3 79v412l53-43h119l24 37M570 290h137v156H570V290m0 182h137v142H570V472m295 398 59-43c5-2 8-6 8-10 0-3-11-12-34-27V113c3-25 0-48-9-68-9-18-29-33-61-45-8 20-19 33-31 41s-43 21-92 37l6 16c53-10 84-16 94-18h29c12 1 17 13 16 37v695H658c-12 0-30-3-54-8l-22 33h258l25 37M104 610h156l33 45 41-41c12-10 17-17 14-23-2-4-5-6-8-6H217V433h58l36 45 50-51c6-8 4-15-6-20H217V161l125 86 12-14c-65-54-106-90-124-107-16-16-31-38-44-65l-57 50c12 6 25 16 41 31v265H98c-21 0-39-2-57-8l-18 34h147v152h-25l-24-6-17 31m142 293c5-2 7-4 8-6 2-5-1-10-8-13-16-5-27-14-35-28-12-29-24-57-37-84h105l39 45 57-56c1-2 2-4 2-6 0-6-2-9-6-8H164c-21-49-43-92-64-131-21-37-49-81-86-131L0 495c31 55 66 130 105 225 37 93 61 166 73 218l68-35Z"/></symbol><symbol id="锐_G" viewBox="0 0 1000 1000" data-size="21"><path transform="matrix(1 0 0 -1 35 971)" d="m434 757 60-41h168c34 68 68 139 102 215 45-24 68-37 70-41 2-2 2-5 0-8-2-2-8-4-20-6-9-2-23-14-41-35-18-22-46-63-85-125h83l30 43 60-43c4-3 6-5 6-8 0-4-10-14-31-29V503l4-74c-1-9-6-16-16-22s-23-10-39-11v35h-64V146c0-28 4-46 11-52 8-5 19-8 34-8h62c14 2 24 8 29 18 4 7 8 17 10 30 2 12 4 56 6 133h16c4-51 7-86 9-106 2-21 12-37 32-48-12-28-26-47-41-54-14-6-34-10-59-14h-90c-23 3-39 9-51 19-10 11-15 31-15 62v305h-82c0-119-20-209-61-270C492 101 408 48 279 0l-6 12c122 58 198 119 229 182 30 62 44 141 43 237h-61v-10c0-7-6-14-19-22-12-6-24-9-35-9l4 113v254m48-303h303v238H482V454m-27 469 8 10c42-22 74-43 96-65 19-19 30-39 33-58 1-19-2-32-10-39-8-10-16-14-25-12-10 1-17 10-20 25-2 15-6 33-14 55-7 21-30 49-68 84M100 604h171l36 49 62-60c1 0 1-2 2-6-1-5-2-7-4-8H211V435h74l39 50 59-56c2 0 3-2 4-6 0-8-4-12-12-12H211V153l150 112 12-12C262 154 197 88 180 55l-55 45c18 11 31 24 39 38v273H86c-14 0-36-2-66-8L4 435h160v144h-21l-20-4-23 29m152 305c5-2 8-5 8-8 2-4-1-9-8-13-16-4-29-14-39-30-16-31-29-61-41-89h137l35 46 54-56c1-2 2-4 2-6 0-5-2-7-7-8H160c-19-44-40-87-62-131-23-42-52-84-86-127L0 497c31 51 63 115 94 191 29 76 60 161 92 254l66-33Z"/></symbol><symbol id="锑_G" viewBox="0 0 1000 1000" data-size="21"><path transform="matrix(1 0 0 -1 57 963)" d="M785 890c8-5 11-9 10-14 1-3-3-5-10-8-19-2-38-12-55-31-16-18-37-41-62-70h102l27 37 53-35c4-4 7-8 7-12s-8-12-25-24V562c0-13-6-21-19-26-10-4-20-6-30-6v32H633V413h168l27 33 53-39c6-4 7-8 2-13l-28-22V271c0-45-6-77-19-96-12-18-33-30-63-37-7 17-17 31-29 41-12 8-34 17-66 27l4 16c38-9 64-14 78-16 13-1 25 2 35 8 8 8 13 29 14 64v108H633V122l4-85c0-9-5-17-18-25-14-8-26-12-37-12l4 126v228c-43-63-94-123-154-179-59-55-118-97-178-126l-6 14c55 39 111 86 168 143 55 57 100 117 135 180H430l-24-28-52 43 31 26 23 201 45-39h133v150H436c-13 0-25-2-38-6l-27 34h266c32 45 65 97 97 158l51-35M633 739V589h150v150H633m-47-326v149H447l-19-149h158M445 927c34-17 61-33 82-49 20-16 32-31 36-45 3-12 3-23-2-35-6-11-15-16-26-16-12 0-20 8-25 24-5 15-12 31-22 47-8 15-25 35-52 62l9 12M92 603h162l31 39 55-51s1-2 2-6c-1-5-2-7-4-8H199V421h61l27 39 49-47c2 0 3-2 4-6 0-8-4-11-12-11H199V179l133 93 12-15c-99-80-158-140-178-179l-51 46c17 13 30 26 37 39v233H82c-14 0-33-3-59-8L0 421h152v156h-21l-20-4-19 30m142 281c6-3 8-5 8-8 4-5 0-10-12-16-12-4-21-11-27-21-16-31-29-57-39-80h104l31 41 55-53c0-2 1-4 1-6 0-4-2-7-7-8H152c-20-45-42-89-66-130-22-42-47-82-74-120l-12 8c39 80 74 158 105 237 30 76 53 140 71 191l58-35Z"/></symbol><symbol id="锒_G" viewBox="0 0 1000 1000" data-size="21"><path transform="matrix(1 0 0 -1 27 971)" d="m793 837 53-41c8-4 11-9 11-14 1-3-10-12-33-27V513l4-73c1-9-4-17-15-23-12-6-25-10-38-12v30H598c22-75 45-129 68-163 66 41 124 79 174 116 37-28 54-45 51-51-2-5-8-7-18-6s-27-2-51-10c-23-8-71-30-144-66 24-31 49-55 72-74 21-20 47-37 76-53 29-14 69-24 119-32V78c-19 1-37-2-52-8-14-5-26-15-38-31-37 24-74 51-111 83-38 31-70 68-98 113-26 43-51 110-74 200h-82V100l143 83 10-14c-83-61-131-99-145-114s-29-34-45-55l-55 47c21 12 36 25 43 41v747l57-43h260l35 45m-303-70V626h285v141H490m0-164V458h285v145H490m53 328 8 11c31-11 58-24 80-37 21-11 35-25 41-41 6-15 5-28-2-39-6-10-16-15-29-15-12 0-20 7-24 21-2 13-8 27-15 43-8 14-28 33-59 57M121 595h164l33 45 41-41c13-10 17-18 14-24-2-4-5-6-8-6H223V415h82l35 45 51-51c5-8 4-14-6-19H223V142l158 125 12-14c-80-77-129-123-147-140-16-17-33-41-53-70l-56 45c11 7 24 18 39 33v269H92c-20 0-39-3-57-8l-17 33h158v154h-14l-23-6-18 32m131 297c5-2 7-4 8-6 2-6-1-11-8-14-16-4-27-14-35-27-12-30-24-58-37-84h123l37 43 55-55c1-2 1-4 1-6 0-6-1-8-5-8H170c-22-48-44-93-66-134-22-42-52-88-90-139L0 472c35 63 72 142 111 236 37 93 61 166 73 219l68-35Z"/></symbol><symbol id="锓_G" viewBox="0 0 1000 1000" data-size="21"><path transform="matrix(1 0 0 -1 19 967)" d="M430 864h355l31 39 55-39c5-4 8-8 8-11 2-5-9-14-31-28V673l4-92c-1-10-8-18-20-23-12-7-23-10-33-10v43H506c-16 0-32-3-49-10l-25 35h367v104H539c-16 0-30-3-43-8l-27 33h330v94H496c-13 0-28-3-45-8l-21 33M289 16c57 18 117 43 182 74 62 30 108 59 138 87-57 63-93 120-109 172h-18l-19-8-25 33h312l23 27 61-45c6-3 8-7 6-11 0-2-4-5-12-8-6-1-14-3-25-8-16-19-35-44-59-72-21-30-45-57-72-80 17-15 41-30 70-45 29-13 61-24 96-34 34-11 76-15 125-14V64c-37-3-61-8-70-15-8-7-15-16-20-26-64 24-114 46-148 67-34 19-62 39-84 59-36-28-85-57-149-86-63-27-129-48-197-63l-6 16m234 333c23-54 61-103 114-149 52 54 92 104 117 149H523m321 154 33 35c40-33 60-53 61-59 0-4-5-7-14-9-18-2-35-10-51-24-16-11-33-29-51-52l-17 7 43 77H463c-3-28-8-49-16-65-7-16-16-25-27-29-10-5-20-4-27 2-9 5-12 12-10 21 0 8 6 17 17 28 10 9 20 23 30 41 8 18 13 42 17 72h18c2-11 2-26 0-45h379M111 608h174l33 45 41-41c13-9 17-17 14-23-2-4-5-6-8-6H227V429h58l35 43 47-49c6-8 4-14-6-20H227V147l162 149 13-14c-88-94-139-149-154-165-14-17-29-41-45-72l-62 45c11 6 24 18 39 36v277h-78c-21 0-39-2-57-7l-18 33h153v154h-28l-23-6-18 31m141 291c5-2 7-3 8-5 2-6-1-11-8-14-16-5-27-14-35-27-12-30-24-58-37-84h133l39 44 56-56c2-2 2-4 2-6 0-6-2-8-6-8H170c-22-49-44-94-66-135s-52-87-90-138l-14 9c35 64 72 142 111 237 37 93 61 166 73 219l68-36Z"/></symbol><symbol id="锔_G" viewBox="0 0 1000 1000" data-size="21"><path transform="matrix(1 0 0 -1 37 964)" d="m818 886 55-41c6-2 9-6 10-12 0-2-11-10-31-25V706l3-62c0-5-3-10-11-16s-22-10-41-12v33H469V530h363l25 35 61-37c5-4 8-9 8-15 0-2-11-12-33-30V231c1-73-2-121-10-143s-20-40-35-57c-16-14-34-24-55-31-6 23-18 40-37 51-20 10-50 19-90 29l4 20c39-8 68-13 88-16 19-2 36-1 51 2 13 2 22 12 27 29 6 15 8 44 6 85v305H469c-7-102-18-177-33-225-16-49-38-95-65-138S307 58 260 20l-10 9c51 58 87 113 109 165 23 52 39 108 49 166s14 125 12 202v332l57-47h310l31 39m-349-63V673h334v150H469m31-390 51-39h123l35 35 43-35c8-4 12-9 12-14 0-4-10-12-30-26v-82l4-85c1-11-5-19-17-26-13-8-24-12-33-12v43H547v-37c-1-9-6-18-16-25s-21-10-35-10l4 119v194m47-217h141v154H547V216M111 603h172l33 44 41-41c13-9 17-17 14-23-2-4-4-6-8-6H219V427h90l35 45 51-51c5-8 3-14-6-20H219V171l119 96 12-14c-49-50-84-87-106-109-20-22-39-48-56-80l-53 51c11 3 25 14 39 32v254H86c-20 0-39-2-57-7l-17 33h162v150h-22l-23-6-18 32m141 291c5-2 7-4 8-6 2-6-1-11-8-14-16-5-27-14-35-27-12-32-24-61-37-88h111l39 45 57-57c1-2 2-4 2-6 0-6-2-8-6-8H170c-22-48-44-93-66-134-22-42-52-88-90-139L0 470c35 62 72 142 111 238 37 94 61 167 73 221l68-35Z"/></symbol><symbol id="锕_G" viewBox="0 0 1000 1000" data-size="21"><path transform="matrix(1 0 0 -1 21 968)" d="M561 839h300l37 45 55-55c2-2 3-4 4-8 0-6-5-8-14-8h-70V102c2-30-6-53-25-71-16-14-34-24-53-31-6 23-20 41-43 53-27 11-55 21-82 29l6 18c46-10 78-16 95-18 18-3 32-1 42 4 9 6 13 20 13 40v687H658c-23 0-49-2-80-7l-17 33m50-213h88l30 33 41-37c5-2 9-6 9-12 0-2-9-9-29-23V358l2-50c0-8-4-15-12-20-8-6-21-10-37-14v69h-96v-63c0-8-4-14-13-19-7-6-18-11-33-14l2 76v344l48-41m-4-260h96v235h-96V366M496 876l57-41c2-4 2-7 0-8-1-4-5-8-14-14-8 1-16-7-23-23-24-65-51-137-82-215 26-40 46-72 60-97 13-26 24-51 31-77 8-24 12-45 12-62s-2-32-6-45c-4-14-11-26-23-37s-29-20-53-28c-5 12-12 22-21 30-8 7-24 13-47 19l2 16c35-8 60-10 76-6s25 19 25 45c0 25-4 51-10 76-5 24-12 46-19 67-7 19-23 52-51 99l69 248h-96V132l2-81c0-9-5-17-14-26-10-7-21-13-35-15l2 103v777l49-41h90l19 27M88 597h131l33 45 41-41c12-10 17-18 14-24-2-4-5-6-8-6H184V417h43l35 45 51-51c5-8 3-14-6-19H184V151l119 90 11-13c-59-55-99-91-119-109-18-17-35-41-50-70L94 98c11 5 26 17 45 36v258H84c-20 0-39-3-57-8l-17 33h129v154h-16l-23-6-12 32m131 304c4-2 7-4 8-5 2-6-1-11-8-14-16-5-28-14-35-28-12-29-24-60-36-91h90l30 39 50-51c2-2 2-4 2-6 0-6-2-8-6-8H139c-16-49-34-93-53-134-18-41-41-89-70-143l-16 6c27 68 51 136 74 203 23 66 49 155 78 268l67-36Z"/></symbol><symbol id="锖_G" viewBox="0 0 1000 1000" data-size="21"><path transform="matrix(1 0 0 -1 28 969)" d="M416 802h223v136l78-31c4-2 5-6 4-11 0-2-2-4-6-6l-27-12v-76h144l33 45 55-51c2-2 4-5 6-8 2-8-2-12-12-12H688v-91h105l35 44 59-52c1 0 2-2 2-6 0-8-3-12-8-12H688v-92h160l35 43 56-48c2-2 4-5 4-8 0-8-4-12-11-12H482c-13 0-35-3-66-8l-16 33h239v92H531c-13 0-34-2-60-8l-22 34h190v91H490c-13 0-33-2-58-7l-16 33m55-295 50-35h268l33 37 47-41c6-2 9-6 10-12-1-5-10-13-27-25V80c0-15-4-29-12-43-8-12-27-25-59-37-4 21-16 36-37 45-19 10-47 20-82 31l6 16c31-7 58-13 80-16 23-2 38-1 45 4 8 6 11 20 10 42v78H520v-74l3-75c0-10-6-19-19-28-12-9-25-15-37-15l4 118v381m49-281h283v103H520V226m0 128h283v92H520v-92M117 618h182l33 45 41-41c12-10 17-18 14-23-2-4-5-6-8-6H217V427h84l39 45 55-51c5-8 3-14-6-20H217V142l158 113 12-14c-78-68-126-111-145-130-17-19-36-43-54-72l-57 49c12 8 25 20 41 34v279H78c-10 0-23-2-41-7l-17 33h152v166h-20l-23-6-12 31m137 281c4-2 7-3 8-5 2-6-1-11-8-14-16-5-27-14-35-27l-39-90h129l39 45 56-57c2-2 2-4 2-6 0-6-2-8-6-8H170c-22-49-44-93-66-134-22-42-52-88-90-139L0 474c35 62 72 142 111 238s63 170 75 223l68-36Z"/></symbol><symbol id="锗_G" viewBox="0 0 1000 1000" data-size="21"><path transform="matrix(1 0 0 -1 36 959)" d="M273 231c90 68 158 124 204 168v49l37-19c47 45 82 79 105 103H459c-14 0-33-2-59-8l-19 34h176v158h-77c1 0-14-3-44-8l-16 33h137v178l78-29c4-2 7-5 8-8 0-2-2-4-6-6l-33-16V741h62l27 41c33-32 50-50 51-54s2-7 2-8c0-3-4-4-12-4H604V558h37c48 54 88 105 117 154 28 47 53 89 72 127l57-39c6-2 9-6 9-12 0-4-7-8-19-10-12 0-23-6-31-17s-26-36-53-74c-25-40-59-83-102-129h143l35 45 55-53c2-2 3-4 4-6 2-8-1-12-8-12H672c-34-34-74-72-121-115h207l23 31 51-37c4-4 6-6 6-8 0-4-8-11-24-23V132l4-91c1-6-4-14-15-23-12-9-24-13-35-14v68H523V35c0-8-5-15-15-23S486 0 473 0l4 120v233c-44-34-109-79-196-135l-8 13M523 97h245v138H523V97m0 164h245v131H523V261M117 587h166l26 39 54-51c1 0 2-2 2-6s-2-7-4-7H227V413h82l31 45 49-51c2 0 3-2 4-6 0-7-4-11-12-11H227V108l156 94 10-14C303 126 249 86 232 68c-16-17-29-37-39-60l-54 47c19 14 33 27 41 40v295h-76c-14 0-36-3-67-8l-16 31h159v149h-20l-19-4-24 29m164 289c2-3 4-5 4-8 2-4-2-8-12-12-20-3-35-15-44-35-9-19-20-41-34-68h108l31 43 53-53c0-2 1-4 2-6 0-4-3-7-8-8H182c-20-42-43-87-71-134-25-48-58-94-99-139l-12 8c58 96 104 181 137 256 31 73 56 136 74 189l70-33Z"/></symbol><symbol id="锘_G" viewBox="0 0 1000 1000" data-size="21"><path transform="matrix(1 0 0 -1 30 967)" d="M396 776h118v159l74-30c4-2 6-4 6-6 4-2-7-9-31-23V776h156v157l80-32c4-2 5-5 4-11 0-2-12-8-35-18v-96h72l31 41 57-46c1-2 2-5 2-8 0-8-4-12-12-12H768v-41l3-45c0-8-7-17-19-25-12-9-24-12-37-10l4 76v45H563v-51l3-43c0-8-7-15-21-23-12-8-24-12-35-12l4 74v55h-39c-14 0-34-3-61-8l-18 33m-39-242h192c17 39 36 87 56 145 47-24 71-39 73-43 2-5 1-8-2-10-2-1-8-3-18-8-9-4-16-8-21-14-4-3-16-27-35-70h242l35 51 59-59c1-2 1-4 1-5 1-8-2-12-9-12H592c-22-43-45-89-71-137l24-14h226l34 38 49-43c7-4 11-9 11-14 0-3-10-10-31-22V122l4-75c1-8-7-15-22-22-13-5-24-7-31-7v70H545V37c1-8-5-16-16-23-10-7-22-12-37-14l4 92v239c-45-87-109-170-191-251l-12 10c58 75 106 147 145 216 38 67 72 135 103 203h-96c-14 0-35-3-62-10l-26 35m188-421h240v220H545V113M107 604h192l33 45 41-41c12-9 17-17 14-23-2-4-5-6-8-6H229V431h89l30 45 56-51c6-8 4-15-6-20H229V169l126 113 14-11c-64-73-105-120-123-139-16-18-33-44-51-77l-56 43c13 7 28 22 45 44v263h-80c-20 0-38-2-55-8l-18 34h153v148h-36l-23-6-18 31m145 293c5-1 7-3 8-5 2-6-1-11-8-14-16-5-27-14-35-27-12-30-24-58-37-84h105l39 45 57-57c1-2 2-4 2-6 0-6-2-8-6-8H170c-22-49-44-94-66-135s-52-87-90-138L0 478c35 63 72 141 111 236 37 93 61 166 73 219l68-36Z"/></symbol><symbol id="错_G" viewBox="0 0 1000 1000" data-size="21"><path transform="matrix(1 0 0 -1 20 956)" d="M404 747h139v164l84-33c2-2 3-4 4-6 0-2-2-4-6-8l-33-15V747h137v162l74-25c5-2 8-5 8-10 0-2-2-4-6-6l-26-15V747h55l33 45 53-51c2-2 3-5 4-8 2-7-1-11-8-11H779V554h82l37 50 59-56c2-2 3-5 4-8 0-8-5-12-14-12H449c-6 0-24-2-54-7l-16 33h164v168h-70c-14 0-30-3-47-8l-22 33m188-193h137v168H592V554m-123-82 58-45h264l31 39 59-45c4-4 6-7 6-8 0-4-10-12-30-23V128l6-79c0-8-6-16-17-24-11-5-24-9-39-9v66H521V35c1-8-6-15-21-23-14-8-25-12-35-12l4 94v378m52-364h286v143H521V108m0 170h286v121H521V278M107 583h172l35 43 57-57c1 0 1-2 2-6-1-4-2-7-4-7H225V409h72l35 45 49-53c2 0 3-2 4-5 0-8-4-12-12-12H225V134l150 133 10-12C275 140 213 63 197 21l-60 47c15 15 27 28 37 40v276h-69c-13 0-35-3-66-8l-16 33h151v147h-24l-17-8-26 35m90 326 69-37c5-2 8-6 9-12 0-4-4-6-13-7-9-2-16-6-22-12s-14-18-25-37c-11-20-20-40-27-61h107l35 45 55-57c0-2 1-3 2-5 0-5-3-8-8-8H176c-22-45-47-93-76-143-28-49-57-92-88-127l-12 8c49 91 90 176 123 256 33 78 58 144 74 197Z"/></symbol><symbol id="锚_G" viewBox="0 0 1000 1000" data-size="21"><path transform="matrix(1 0 0 -1 25 960)" d="M416 731h127v186l78-20c5-1 8-2 8-3 2-3 1-6-2-10l-33-20V731h140v182l80-25c5-2 8-4 8-6 0-3-2-7-6-10l-33-16V731h74l36 43 48-50c2-2 4-3 6-4 4-8 2-13-8-14H783v-47l4-66c0-10-6-18-17-26-13-7-26-11-40-11l4 105v45H594v-45l4-76c0-8-6-16-18-23s-25-10-41-10l4 103v51h-57c-13 0-32-3-54-8l-16 33m23-183 59-43h324l37 39 59-47c2-3 3-5 4-8 0-4-11-14-31-31V116l4-83c0-6-3-12-10-17-5-6-20-11-45-16v63H490V33c0-10-6-17-19-23-14-6-26-9-35-10l3 124v424m51-460h147v188H490V88m198 0h152v188H688V88M490 302h147v177H490V302m198 177V302h152v177H688M94 569h179l30 39 56-50c1-1 2-4 2-8 0-5-2-7-4-8H219V397h58l34 43 56-50c2 0 3-2 4-6 0-8-4-12-12-12H219V112l135 117 9-15C262 114 202 44 186 2l-55 39c17 20 30 40 39 61v270h-70c-14 0-36-3-67-8l-15 33h152v145h-33l-18-8-25 35m176 321c5-3 7-6 7-8 1-3-2-7-9-10-18-4-34-18-49-39-16-35-30-67-43-96h127l35 47 58-56c1-2 2-5 2-8 0-5-2-7-7-8H162c-19-42-43-86-70-133-28-47-53-86-76-119l-16 8c41 81 80 163 117 248 35 84 61 152 78 205l75-31Z"/></symbol><symbol id="锛_G" viewBox="0 0 1000 1000" data-size="21"><path transform="matrix(1 0 0 -1 21 972)" d="M674 692c6-2 9-4 10-5 2-5 1-8-4-10l-30-20v-95h71l31 42 55-50c2 0 3-2 4-6 0-8-4-12-12-12H650v-76l4-35c0-12-6-22-19-31-13-8-25-12-37-12l4 84v70h-90c-14-1-32-4-55-10l-27 36h172v156l72-26M328 321h141v158l72-29c3-1 6-2 8-4 2-5 1-8-2-9l-31-20v-96h209v147l68-28 8-3c6-5 6-8 0-10l-28-16v-90h75l35 47 55-51c3-2 5-5 5-9 0-8-5-12-15-12H773V144l4-85c0-11-7-21-21-30-14-8-26-13-35-13l4 115v165H516c-6-53-18-96-36-131-17-34-42-65-76-93-33-24-80-49-140-72l-6 16c46 21 84 45 115 72s53 57 68 91c13 33 22 72 26 117h-57c-12-1-34-4-66-10l-16 35M111 606h151l33 45 41-41c12-9 17-17 14-23-2-4-5-6-8-6H219V429h68l35 45 51-51c6-8 4-14-6-20H219V171l123 88 12-14c-53-49-91-85-114-107-21-20-41-46-58-75l-53 42c15 12 29 24 43 37v261H82c-20 0-39-2-57-7L8 429h164v152h-20l-23-6-18 31m256 211h184c23 49 40 92 51 127l66-29c10-8 8-14-6-18-10-3-18-10-25-19s-19-29-33-61h212l41 53 61-58c2-3 4-6 6-8 2-8-1-12-12-12H709c10-25 27-53 53-82 25-30 51-55 76-74 25-20 66-33 121-41v-18c-23 1-40 0-51-4s-22-13-33-27c-23 16-47 34-70 57-22 20-43 46-65 78-21 31-41 68-58 111h-90c-39-65-77-117-113-156-38-39-88-81-151-127l-10 13c45 41 84 81 118 120 33 37 68 87 105 150h-92c-12 1-32-3-60-10l-22 35m-113 86c4-2 7-4 8-6 2-5-1-10-8-13-16-5-27-14-35-28-13-33-26-63-39-89h105l35 43 57-55c1-2 2-4 2-6 0-6-2-8-6-8H170c-22-49-44-94-66-135s-52-87-90-138L0 478c35 62 72 141 111 238 39 96 63 170 75 222l68-35Z"/></symbol><symbol id="锜_G" viewBox="0 0 1000 1000" data-size="21"><path transform="matrix(1 0 0 -1 22 973)" d="m455 456 55-35h125l29 33 45-39c5-2 8-6 8-12 0-2-9-9-28-21V272l4-64c0-10-6-18-19-25-12-6-22-10-31-12v47H500v-41c1-8-5-16-16-24-11-7-22-12-33-13l4 115v201m45-60V243h143v153H500M369 538h486l38 45 58-53c2-2 3-5 4-8 0-6-4-9-12-9H828V94c1-22-4-41-15-55-12-14-30-27-57-39-4 20-16 35-37 45-20 10-50 19-90 29l4 20c46-10 78-15 96-16 15-1 28 1 39 4 9 4 13 20 11 48v383H451c-13 0-36-3-66-8l-16 33m250 404c54-19 82-31 84-35 3-4 1-8-4-11l-27-12c-5-39-11-73-16-102h147l39 43c30-31 49-49 54-53 4-3 6-7 4-11 0-3-5-4-13-4H650c-3-15-6-26-9-33 44-12 80-24 107-36 27-9 49-21 65-35 15-14 23-29 23-45s-6-26-18-31c-12-4-24 2-37 20-11 17-28 35-51 54s-56 37-99 55c-20-37-49-67-86-90-35-22-78-39-129-51l-6 14c39 18 78 41 117 70 37 27 62 63 75 108H484c-13 0-30-3-50-10l-20 35h191c9 44 13 98 14 160M98 610h187l37 47 41-43c13-10 17-17 14-23-2-6-5-9-8-8H223V444h72l37 49 55-55c6-7 4-14-6-19H223V169l166 129 11-14c-80-74-130-123-152-146-21-22-39-48-53-75l-58 46c11 9 24 20 39 35v275h-72c-21 0-40-3-57-8l-18 33h147v139h-37l-24-6-17 33m142 301c5-2 7-4 8-6 2-6-1-10-8-13-15-3-27-12-35-28-17-41-30-72-39-93h145l39 44 56-56c2-2 2-4 2-6 0-6-2-9-6-8H156c-21-46-43-92-68-139-24-46-48-84-72-115l-16 6c32 60 66 137 102 231 35 93 58 166 70 218l68-35Z"/></symbol><symbol id="锝_G" viewBox="0 0 1000 1000" data-size="21"><path transform="matrix(1 0 0 -1 25 959)" d="m457 911 55-43h246l31 39 53-47c4-4 6-6 6-7 0-4-11-14-32-30V655l4-76c0-6-4-14-13-21-9-8-22-13-39-14v43H506v-18c0-7-6-15-18-23-11-7-23-9-35-8l4 94v279m49-297h262v104H506V614m0 131h262v96H506v-96M404 481h414l32 41 54-48c2-2 4-5 4-8 2-8-2-12-10-12H766V349h88l31 45 60-53c2-3 4-5 4-8 0-7-4-10-11-10H766V94c2-28-3-48-14-63-10-13-27-23-51-31-6 18-17 32-35 43-18 12-45 23-80 35l4 16c29-8 54-14 74-18 18-4 33-5 43-4 11 3 16 20 14 52v199H451c-14 0-37-2-68-8l-16 34h354v105H486c-13 0-35-3-66-8l-16 35m86-177c39-26 66-48 80-67s20-36 18-50c-2-16-7-27-14-32-6-5-13-7-21-6-7 2-13 6-16 14-4 7-6 17-8 31 0 14-4 28-11 41s-20 34-39 61l11 8M113 595h164l34 45 41-41c12-10 16-18 13-24-2-4-4-6-8-6H221V421h86l35 45 51-51c5-8 3-14-6-19H221V147l144 104 12-14c-74-64-120-105-137-123-17-16-35-39-52-69l-57 47c13 11 27 23 43 36v268h-72c-21 0-39-3-57-8l-18 33h147v148h-20l-23-6-18 32m139 289c5-2 7-4 8-6 2-6-1-10-8-14-16-4-27-13-35-27-12-29-24-57-37-84h129l39 45 56-57c2-2 2-4 2-6 0-6-2-8-6-7H170c-22-49-44-94-66-135-22-42-52-88-90-139L0 464c35 63 72 142 111 236 37 93 61 166 73 219l68-35Z"/></symbol><symbol id="锞_G" viewBox="0 0 1000 1000" data-size="21"><path transform="matrix(1 0 0 -1 18 969)" d="m430 897 52-35h315l27 39 59-41c4-4 6-6 6-7-1-5-10-15-28-32V599l4-86c1-9-4-16-15-22-10-6-23-10-37-12v36H668V399h168l35 45 63-52c4-6 5-10 2-12-1-4-2-6-2-6H707c22-49 45-90 70-123 25-31 53-57 84-76 32-20 66-34 104-43v-15c-24 1-42-1-55-6-12-5-25-12-39-21-41 32-71 62-90 89-19 25-36 50-49 74-13 23-30 64-48 121h-16V140l4-99c0-11-7-20-20-27-12-9-24-13-37-14l4 138v216c-23-39-49-74-76-107-27-32-61-64-100-98-37-31-84-63-138-96l-8 13c55 41 99 80 133 115 32 34 58 63 78 86 17 22 40 58 68 107H469c-14-1-36-4-67-10l-15 35h232v116H480v-16c0-6-5-12-17-18s-24-9-37-9l4 123v302m50-355h139v133H480V542m188 133V542h145v133H668m-188 27h139v133H480V702m188 133V702h145v133H668M107 608h176l33 45 41-41c13-9 17-17 14-23-2-4-4-6-8-6H217V429h80l35 41 51-47c6-8 4-14-6-20H217V161l144 127 12-14c-70-80-115-130-135-150-18-18-36-41-54-69l-53 50c12 6 25 17 39 33v265h-63c-20 0-39-2-56-7l-18 33h137v154h-27l-18-6-18 31m147 295c4-2 7-4 8-6 2-5-1-10-8-13-16-5-27-14-35-28-13-31-26-60-39-87h111l39 44 57-56c1-2 2-4 2-6 0-6-2-8-6-8H170c-22-49-44-94-66-135s-52-87-90-138l-14 9c35 63 72 142 111 239 39 94 63 167 75 220l68-35Z"/></symbol><symbol id="锟_G" viewBox="0 0 1000 1000" data-size="21"><path transform="matrix(1 0 0 -1 31 961)" d="m441 888 59-41h264l27 39 57-39c6-4 9-8 9-12 1-4-10-14-33-29V597l6-76c1-13-4-23-16-32-9-6-23-11-41-15v48H492v-3c0-10-2-17-8-20-10-8-26-14-48-16l5 120v285m51-340h281v127H492V548m0 152h281v121H492V700m160-217c54-19 82-31 84-35 4-6 2-10-6-13l-29-10V257c50 34 106 81 166 139 40-32 59-50 59-55-2-4-4-6-6-6-3 1-10 1-22 0-10-1-29-8-56-22-26-13-72-41-141-82V92c0-23 4-35 12-37s16-2 23-2h88l22 2c13 4 22 11 27 23 4 9 8 58 12 148h17l4-63c1-57 11-87 32-89-5-15-12-29-22-41-8-10-23-17-45-21l-31-2H734c-19 0-35 2-46 6-13 4-22 10-28 19-4 8-7 26-8 53v395m-228-19 72-24c6-2 9-3 10-5 4-4 3-8-2-12l-33-14v-92h80l29 37 45-48c2-2 3-4 4-6-1-6-2-9-4-8H471V88l136 63 10-15c-64-39-105-68-123-85-17-17-32-34-43-51l-56 41c15 10 25 22 29 33v390M104 571h189l33 45 41-41c13-10 17-17 14-23-2-4-5-6-8-6H225V403h70l35 45 51-51c6-7 4-14-6-19H225V130l134 103 12-13c-66-63-108-103-125-122-17-20-34-43-51-71l-54 45c11 8 23 20 37 37v269H92c-20 0-39-3-57-8l-17 33h160v143h-32l-25-6-17 31m148 317c5-2 7-4 8-6 2-6-1-11-8-14-16-4-27-14-35-27-12-29-24-57-37-84h119l39 45 57-57c1-2 1-4 1-6 0-6-1-8-5-8H170c-22-48-44-93-66-134-22-42-52-88-90-139L0 468c35 63 72 142 111 236 37 93 61 166 73 219l68-35Z"/></symbol><symbol id="锠_G" viewBox="0 0 1000 1000" data-size="21"><path transform="matrix(1 0 0 -1 30 963)" d="m480 905 63-45h244l33 41 65-45c2-3 3-5 4-8 0-4-11-14-34-31V606l6-67c0-7-6-14-19-19-12-6-24-10-37-12v41H535v-15c0-8-8-15-21-22-15-6-27-10-37-10l3 78v325m55-329h270v108H535V576m0 135h270v121H535V711M432 481l64-53h344l35 41 59-45c7-8 7-14 0-19l-30-22V118l6-76c0-7-6-15-19-21-14-7-26-9-37-8v74H482V33c1-8-6-16-21-24-14-6-25-9-35-8l6 124v356m50-367h372v129H482V114m0 158h372v129H482V272M98 590h187l37 47 41-43c13-10 17-18 14-23-2-6-5-9-8-8H223V424h72l37 49 55-55c6-8 4-14-6-19H223V149l166 129 11-14c-80-74-130-123-152-146-21-23-39-48-53-76l-58 47c11 8 24 19 39 34v276h-72c-21 0-40-3-57-8l-18 33h147v139h-37l-24-6-17 33m142 301c5-2 7-4 8-6 2-6-1-10-8-14-15-2-27-11-35-27-17-41-30-72-39-94h145l39 45 56-56c2-2 2-4 2-6 0-6-2-9-6-8H156c-21-46-43-93-68-139-24-46-48-84-72-115l-16 6c32 60 66 137 102 230 35 93 58 166 70 219l68-35Z"/></symbol><symbol id="锡_G" viewBox="0 0 1000 1000" data-size="21"><path transform="matrix(1 0 0 -1 42 971)" d="M516 565v-3c0-6-5-12-16-18-10-6-21-10-35-12l4 104v273l56-43h237l29 37 63-45c3-4 5-6 5-7 0-4-12-14-37-30V644l4-71c1-8-4-17-15-25-12-8-24-13-36-14v31H516m0 24h259v109H516V589m0 133h259v121H516V722M336 304c59 62 123 144 193 246l57-28c4-1 6-3 6-5 1-6-2-9-10-10-9-3-18-8-27-16l-32-33h299l30 43 54-41c8-4 11-9 10-14-1-4-12-12-33-25l-12-180c-6-91-19-151-41-180-21-29-55-49-101-61-3 18-14 32-32 43-17 12-45 23-82 33l6 20c80-24 133-26 158-6 26 19 41 70 45 153l12 192h-63c-7-49-29-103-64-163-35-59-77-110-125-150C536 84 471 46 387 8l-6 13c75 47 131 86 168 119 36 33 71 74 103 123 34 48 59 105 77 172h-92c-31-69-69-129-116-182-44-52-107-97-187-137l-8 16c65 41 117 86 158 135 41 48 76 104 104 168h-92c-55-63-104-110-148-141l-12 10M102 603h189l31 46 61-58s1-2 2-6c-1-5-2-7-4-8H217V440h86l31 43 55-48c2-2 3-5 4-8 0-8-4-12-12-12H217V155l137 119 11-15C262 158 203 88 189 49l-60 45c15 13 29 30 43 50v271h-61c-13 0-35-3-66-8l-16 33h143v137h-27l-20-4-23 30m146 308c5-2 8-5 8-8 0-4-3-7-8-11-18-5-31-15-37-32-18-39-31-70-39-93h125l33 45 59-55c0-2 1-4 2-6 0-5-3-7-8-8H160c-18-45-41-92-68-139-26-46-52-87-78-123L0 493c46 84 84 167 113 250 30 80 51 147 65 199l70-31Z"/></symbol><symbol id="锢_G" viewBox="0 0 1000 1000" data-size="21"><path transform="matrix(1 0 0 -1 30 969)" d="m396 892 51-39h397l31 39 59-39c4-4 5-7 5-8 0-5-9-14-29-28V146l4-97c1-9-4-16-16-24-10-7-22-11-37-13v92H445V37c0-9-6-17-17-25-12-8-24-12-35-12l3 124v768m49-764h416v699H445V128m252 646c5-2 8-4 8-7 1 0 0-3-4-8l-27-12V644h58l34 43 54-49c2-2 4-5 4-8 0-8-6-12-15-12H674V472h37l27 31 45-27c8-5 12-10 12-14s-8-12-24-24V312l4-69c2-8-2-15-13-23-11-7-23-10-37-10v51H582v-45c-1-8-6-16-16-24-9-5-21-9-35-11l4 101v225l47-35h45v146h-84c-14 0-28-2-43-8l-16 34h143v156l70-26M582 286h143v162H582V286M105 597h166l34 45 41-41c12-10 17-18 13-24-2-4-4-6-7-6H221V417h68l35 45 51-51c6-8 4-14-6-19H221V157l121 106 12-14c-63-64-102-107-118-129-14-18-28-43-43-75l-58 45c11 9 24 21 39 36v266H92c-20 0-39-3-57-8l-17 33h156v154h-26l-25-6-18 32m151 306c4-2 7-4 8-6 2-5-1-10-8-13-16-5-27-14-35-28-14-39-28-72-41-99h97l36 41 56-53c1-2 2-4 2-6 0-6-2-8-6-8H170c-22-46-44-90-66-130-22-42-52-88-90-139L0 472c36 63 74 144 113 242 39 97 63 172 75 224l68-35Z"/></symbol><symbol id="锣_G" viewBox="0 0 1000 1000" data-size="21"><path transform="matrix(1 0 0 -1 34 963)" d="m426 897 56-39h354l31 36 59-45c4-4 6-7 6-8-1-4-12-15-34-31V671l4-65c2-7-2-15-13-23-10-8-24-12-41-12v37H477v-7c0-10-5-18-16-24s-24-8-39-8l4 106v222m51-263h87v197h-87V634m138 0h98v197h-98V634m149 0h84v197h-84V634m-125-61c1-2 2-4 2-6 0-4-3-7-8-9-16-7-26-12-31-16-5-2-26-27-63-76h262l33 35 53-53c6-4 9-8 9-11 0-2-5-6-17-12-14-5-25-14-35-28-42-66-80-119-114-160-32-39-80-80-144-123C521 74 423 36 291 0l-4 18c126 43 218 86 277 128s106 85 141 128c33 43 66 98 102 164H523c-68-92-128-160-181-203l-10 12c48 59 96 123 143 193 44 71 76 125 95 164l69-31M488 376l10 14c37-22 66-43 88-61 21-17 35-33 41-47 6-13 6-27 0-41-5-14-14-21-27-21-14-1-23 8-26 25-2 17-9 35-19 55-11 17-33 43-67 76M117 599h164l33 39 53-51c1-2 2-5 2-8 1-4-1-6-4-6H232V423h75l29 47 51-53c2 0 3-2 4-6 0-8-5-12-14-12H232V144l164 97 10-13C286 142 215 82 193 47l-48 51c18 9 33 23 43 42v259h-86c-12 0-34-2-65-7l-17 31h168v150h-26l-17-8-28 34m98 328 64-43c5-2 7-5 8-8 0-4-4-7-12-8-15-4-29-16-41-37-10-19-22-42-37-66h98l37 47 53-57c1-2 2-4 2-6 0-6-2-8-6-8H186c-25-49-52-97-81-144-28-47-58-91-91-131L0 476c55 93 100 178 135 255 33 76 60 141 80 196Z"/></symbol><symbol id="锤_G" viewBox="0 0 1000 1000" data-size="21"><path transform="matrix(1 0 0 -1 39 936)" d="M750 784c-30-2-70-9-121-19V620h164l31 49 61-55c2-2 3-4 4-8 0-7-4-11-12-11H771V425h55l33 45 59-53c2-2 3-4 4-6 0-8-4-12-12-12H771V214h43l34 51 54-57c2-3 4-5 4-8 0-8-4-12-11-12H629V43h152l35 48 57-56c2-1 3-4 4-8 0-7-4-11-12-11H432c-14 0-36-4-67-10l-15 37h230v145H408c-13 0-32-2-54-7l-16 33h88v185h-41c-14 0-28-2-43-7l-16 33h100v168h-28c-13 0-29-3-46-8l-20 35h248v135c-87-10-152-16-197-20l-2 18c117 20 205 38 264 55 58 16 102 32 132 48 41-39 62-60 63-64 2-3 1-7-2-10-2-2-10-2-24 0-13 3-35 4-64 2M473 214h107v185H473V214m156 185V214h96v185h-96m96 26v170h-96V425h96m-145 0v170H473V425h107M90 538h154l31 45 57-57c1-2 1-4 2-7-1-4-2-6-4-6H203V358h43l31 45 43-41c9-8 14-13 14-17 2-8-1-12-8-12H203V110l113 90 8-13C234 103 182 41 166 0l-47 53c16 13 27 27 35 42v238h-52c-14 0-36-3-67-8l-15 33h134v155h-21l-18-8-25 33m72 334 67-35c5-2 7-5 5-8 0-4-4-8-11-10-15-8-25-19-32-33-15-32-26-59-31-80h96l35 45 57-57c0-2 1-4 2-6 0-5-3-8-8-7H146c-20-52-42-98-66-139-22-40-45-76-68-107l-12 7c37 72 70 149 100 231 28 80 49 146 62 199Z"/></symbol><symbol id="锥_G" viewBox="0 0 1000 1000" data-size="21"><path transform="matrix(1 0 0 -1 25 964)" d="M580 892c4-3 6-6 6-8 1-5-3-8-10-10-19-6-32-16-39-31-6-15-23-50-49-104h348l37 51 68-64c2-2 2-4 2-6 0-5-2-7-7-8H715V552h80l33 49 67-61s1-2 1-6-2-7-7-8H715V356h84l35 45 62-54c2-1 2-4 2-8 0-5-2-7-7-8H715V138h129l37 50 64-62c2-3 4-5 4-8 0-5-2-7-8-7H494V35c0-8-6-15-19-23S451 0 441 0l4 128v533c-25-51-63-105-113-164l-12 10c53 94 93 173 121 238 26 65 49 126 67 184l72-37m86-536v170H494V356h172m0 196v160H494V552h172m-39 367c49-25 82-47 100-65 15-16 23-31 25-44 2-14-1-26-8-36-8-10-17-15-29-13-12 1-20 10-24 27-2 16-7 31-15 47-6 16-26 40-59 74l10 10m39-781v191H494V138h172M100 587h166l31 39 45-51s1-2 2-6c-1-4-2-7-4-7H227V421h72l35 43 49-49c2-2 3-5 4-8 0-8-4-11-12-11H227V138l156 131 13-16C279 146 212 72 195 33l-56 53c13 8 26 20 39 36v274h-71c-13 0-35-3-66-8l-16 33h153v141h-35l-20-6-23 31m93 342 71-33c5-3 8-6 9-10 0-6-4-10-13-12-18-5-31-15-37-31-21-47-37-81-49-102h131l35 45 55-57c0-1 1-3 1-5 0-5-2-8-7-8H162c-16-35-37-77-64-125-26-49-55-90-86-123l-12 8c48 86 89 169 121 250 33 80 57 147 72 203Z"/></symbol><symbol id="锦_G" viewBox="0 0 1000 1000" data-size="21"><path transform="matrix(1 0 0 -1 47 975)" d="m674 927 10-6c4-7 0-11-12-14-12-2-22-8-31-15-8-8-24-32-51-73h197l29 35 51-35c8-4 12-8 12-13 0-4-12-14-35-30V606l4-78c0-7-6-15-18-23-12-7-23-9-35-8v29H662V415h154l30 35 52-41c5-2 8-6 8-10s-10-13-31-27V171c1-22-3-41-12-56-7-15-26-29-56-43-6 18-15 32-26 39-10 8-35 18-76 29l4 15c47-9 76-13 86-11 10 0 18 1 23 3 6 3 8 13 8 32v209H662V151l4-112c-1-8-7-17-20-25-12-9-24-14-37-14l4 151v237H449V216l4-82c-2-13-8-23-17-30-10-8-23-13-38-16l4 114v248l53-35h158v111H492v-7c0-4-4-9-12-16-5-6-19-10-41-12l4 119v244l53-35h65c28 67 45 111 50 131l63-23M492 552h303v109H492V552m0 135h303v107H492V687M96 606h189l33 41 53-52c1 0 1-2 2-6-1-5-2-7-4-8H223V421h66l27 43 53-51c2 0 3-2 4-6 0-8-4-11-12-10H223V144l142 109 12-14c-64-55-109-96-135-122-23-27-43-53-58-78l-49 45c19 14 33 32 41 52v261h-61c-13 0-36-2-66-7l-16 31h143v160h-37l-26-6-17 31m158 309c5-3 8-5 8-8 1-4-2-9-10-13-18-7-31-18-39-34-16-37-31-72-47-105h137l35 41 55-51c0-2 1-4 2-6 0-4-3-7-8-8H154c-13-31-31-67-52-107-21-39-51-88-90-146l-12 7c36 73 69 143 98 211 27 66 58 149 91 248l65-29Z"/></symbol></svg>