<svg xmlns="http://www.w3.org/2000/svg"><symbol id="镏_G" viewBox="0 0 1000 1000" data-size="21"><path transform="matrix(1 0 0 -1 46 967)" d="M549 855c-22-6-59-17-110-35V588l106 84c-16 33-35 62-59 87l10 10c40-25 68-47 84-66 16-20 27-37 31-53 5-16 5-28 0-37-6-10-13-16-23-16-11 0-17 6-20 18-2 10-7 21-13 35-51-42-84-73-100-92-14-17-29-37-43-58l-53 41 32 27v307l52-32c62 28 112 54 149 81 31-28 47-45 47-49-1-5-2-7-4-8s-8-1-18 0h-23c-9 0-24-4-45-12M400 461l53-36h346l25 36 61-39c5-4 4-10-4-18l-22-16V131l4-76c0-7-4-15-11-23-6-6-20-12-41-18v78H449V36c0-8-6-16-17-24-10-8-22-12-36-11l4 124v336m49-344h162v135H449V117m211 0h151v135H660V117M449 277h162v123H449V277m211 123V277h151v123H660m16 404h-33c-14 0-32-2-53-5l-20 29h252l32 37c33-26 50-41 52-45s2-7 0-8c-1-2-10-10-27-23V621c-3-44-13-74-31-92-17-16-36-27-57-35-4 21-14 35-31 43s-39 15-69 23l4 18c34-8 58-13 75-14 15-2 29-1 41 4 11 4 18 22 21 53v183H721c-2-86-19-154-51-205-32-50-88-94-168-131l-8 14c67 42 113 86 139 131 25 43 39 107 43 191M105 601h149l31 43 39-39c13-10 17-17 14-23-2-4-5-6-8-6H211V416h66l36 45 50-51c6-8 4-14-6-20H211V136l148 116 14-16c-76-68-124-114-143-136-17-21-33-44-46-68l-59 41c12 8 25 21 41 41v276H84c-20 0-39-2-57-8l-17 34h156v160h-18l-25-6-18 31m114 299c4-2 7-4 8-6 2-6-1-10-8-13-16-5-28-14-35-28-12-30-24-60-36-92h120l33 39 51-50c1-2 2-4 2-6 0-6-2-9-6-8H139c-19-49-37-94-57-133-18-40-40-80-66-121l-16 6c24 55 48 115 72 182 24 63 50 152 80 265l67-35Z"/></symbol><symbol id="镐_G" viewBox="0 0 1000 1000" data-size="21"><path transform="matrix(1 0 0 -1 28 973)" d="M100 608h170l35 41 50-54c1 0 2-2 2-6 0-5-2-7-3-8H209V433h62l32 41 51-49c1-2 3-5 3-8 0-8-3-12-11-10H209V159l117 104 14-12C246 163 191 98 174 57l-59 47c22 13 37 30 45 51v252H76l-47-8-15 34h146v148h-21l-14-8-25 35m136 305c6-3 8-5 8-8 0-4-4-9-12-13-14-6-24-17-31-32-14-35-25-64-33-88h100l31 45 58-54c1-2 2-4 2-6 0-5-2-7-7-8H156c-15-48-37-96-64-145-25-49-52-93-80-130l-12 7c47 95 84 184 111 266 27 81 45 146 55 195l70-29m604-107 37 47 62-55c2-3 4-6 4-10s-4-7-13-8H447c-13 1-33-2-58-9l-24 35h475m-352-65 59-33h187l34 31c34-26 52-43 54-51 0-2-9-9-27-19v-66l4-49c0-8-7-15-20-20-11-4-23-8-35-10v36H539v-12c0-9-4-16-12-22s-23-9-45-9l6 87v137m51-156h205v98H539v-98m-8-191 51-34h104l35 32 37-34c8-4 12-9 12-15 0-3-8-10-24-22v-82l6-58c0-8-6-16-18-24-12-6-25-10-39-11v39H582v-14c0-9-4-16-12-22-8-5-23-10-45-13l6 78v180m51-186h113v129H582V208m-31 727 6 11c30-10 56-21 78-33 21-12 35-25 43-39 6-12 6-25 0-37s-15-18-26-16c-11 0-19 6-23 18-4 10-10 23-18 37-6 14-26 33-60 59M391 505l58-39h377l29 41 51-37c6-2 9-6 10-12 0-5-8-14-25-27V109c0-29-4-52-12-70-10-16-29-29-59-37-6 27-18 45-37 53-17 6-43 15-78 27l4 18c45-10 74-16 88-18 13-1 23-1 31 0 8 2 11 12 10 29v329H443V126l4-83c2-8-4-17-17-27-14-9-28-15-43-16l4 122v383Z"/></symbol><symbol id="镑_G" viewBox="0 0 1000 1000" data-size="21"><path transform="matrix(1 0 0 -1 32 976)" d="M102 612h160l31 39 55-50c4-2 6-5 6-8-3-5-6-7-8-8H217V440h56l32 43 54-50c2 0 4-2 4-6 0-8-4-12-11-12H217V161l164 127 10-14C267 168 197 94 182 53l-51 45c15 13 27 31 35 51v266H82c-14 0-36-3-66-8L0 440h166v145h-29l-18-8-17 35m373 151c41-20 69-39 86-55 15-16 21-31 17-47-4-15-12-24-25-25s-21 6-26 19c-3 15-8 29-15 43-7 13-22 31-45 55l8 10m-92 54h418l39 47 60-54c2-3 4-6 4-10 0-5-4-7-11-8H459c-10 0-30-3-61-8l-15 33m166 135c39-12 68-27 88-45 20-17 28-36 25-54-3-19-12-28-27-28-15-1-24 7-28 24-4 15-9 28-15 39-7 10-24 28-51 54l8 10m21-377c43-19 73-38 88-56 16-19 22-36 18-51-4-17-13-26-26-28-13 0-22 7-25 22-4 14-10 31-20 49-8 18-22 36-42 54l7 10m147 192c13-4 31-13 54-26 10-5 14-10 14-15 1-2-2-4-10-6-11-4-24-11-37-20-21-26-41-52-60-78h168l33 33 43-41c7-6 12-11 14-17 0-2-4-5-12-8-18-3-31-9-41-16-23-21-44-45-63-70l-13 8 41 86H449c0-34-6-59-17-76-13-19-25-28-37-28s-21 5-28 16c-6 10 0 23 18 39 17 15 28 31 33 49 4 15 8 33 12 52h15v-27h205c27 52 49 100 67 145m92-340 37 45 60-57c2-2 4-5 4-8 0-4-4-7-14-8H561c-3-25-6-53-10-84h183l26 39 54-41c6-4 10-9 10-15 0-3-11-10-33-22-4-86-14-147-29-184-16-37-48-61-96-74-3 11-7 21-14 29-6 8-15 16-29 23-14 6-32 13-55 20l6 17c41-11 76-17 106-17 23 4 39 24 47 57l9 59 4 82H545c-8-39-20-75-37-107-18-32-44-63-78-93-35-30-92-59-170-88l-6 18c68 30 120 64 156 103 35 38 60 79 74 124 14 44 22 96 24 154h-47c-13 0-36-2-68-7l-18 35h434M168 940l70-31c5-1 8-4 8-10 0-3-4-7-12-11-16-4-27-15-33-32-18-35-31-64-39-85h135l35 44 55-56c0-2 1-4 2-6 0-5-3-7-8-8H150c-17-49-39-98-64-146-25-49-50-89-72-121l-12 7c40 90 74 175 102 256 27 80 48 147 64 199Z"/></symbol><symbol id="镒_G" viewBox="0 0 1000 1000" data-size="21"><path transform="matrix(1 0 0 -1 17 937)" d="M477 351h302l26 33 50-35c8-2 12-6 12-12 0-2-8-10-23-24V33h29l35 48 55-52c2-2 3-5 4-9 0-8-4-12-12-12H373c-12 0-29-2-53-8l-17 33h125v341l49-23m-2-318h70v292h-70V33m117 0h78v292h-78V33m125 0h78v292h-78V33m-41 628h131l39 55 66-59c2-2 3-6 4-10 1-7-3-11-10-11H445c-14 0-37-3-68-8l-22 33h290c41 65 78 136 111 213 51-23 75-38 74-45-1-6-3-10-8-10-4 0-11-4-23-9-10-4-24-18-43-41-19-24-46-60-80-108M455 837l10 12c53-34 88-59 105-75 18-15 28-31 30-46 2-17-1-29-8-38s-16-13-28-11c-11 0-19 9-23 29-4 18-12 36-23 57-13 18-34 42-63 72M117 546h149l31 43 39-39c12-10 17-18 14-24-2-4-5-5-8-5H221V382h60l28 41 50-51c6-4 4-10-5-16H221V104l148 118 12-14C307 137 261 92 242 74c-17-19-34-42-49-68l-52 41c11 9 22 21 33 36v273H98c-21 0-39-2-57-7l-18 33h151v139h-16l-23-6-18 31m401 21c44-26 66-41 66-45 0-1-1-4-2-7 0-3-6-4-18-4-10 0-31-17-62-51-31-35-87-92-168-170l-12 10c77 91 142 180 196 267m152-19 10 15c48-17 92-39 133-64 39-26 66-49 82-68 13-19 18-36 15-51-4-16-13-24-25-24s-24 10-35 28c-10 17-28 39-53 66-24 28-67 60-127 98M244 839c5-2 7-4 8-6 2-6-1-10-8-14-15-4-27-13-35-27-12-29-24-59-37-90h125l39 45 57-57c1-2 2-3 2-5 0-6-2-9-6-8H162c-21-49-43-94-64-135-22-41-50-86-84-135L0 417c31 61 66 139 104 234 36 96 60 170 72 223l68-35Z"/></symbol><symbol id="镓_G" viewBox="0 0 1000 1000" data-size="21"><path transform="matrix(1 0 0 -1 28 970)" d="M109 595h192l31 43 39-39c12-10 17-18 14-24-2-4-5-6-8-6H215V425h80l31 43 51-49c6-8 4-14-6-20H215V144l103 89 12-13c-45-52-77-88-96-111-17-22-33-46-48-72l-57 45c12 8 25 20 41 37v280H86c-20 0-39-2-57-7l-17 33h158v144h-18l-25-6-18 32m717 56 35 43 53-48c2-2 4-5 6-8 0-8-4-12-12-12H660c-41-43-81-80-119-111 46-42 79-78 98-110 51 35 108 86 172 151 28-24 44-39 48-43s6-7 4-10c-2-4-8-6-19-6-12 0-30-8-53-23-23-14-44-28-61-41 15-60 32-108 51-145 19-36 41-64 67-86 24-22 56-37 95-45v-15c-18 1-34 0-48-4s-26-12-36-25c-29 28-52 56-70 83-16 26-30 57-43 94-14 35-25 78-35 129l-59-31c26-57 41-99 45-125 5-27 7-54 6-80-1-28-4-53-10-78-5-25-17-46-35-64-15-16-38-29-66-41-10 23-22 38-35 47-14 8-40 18-78 31l5 18c55-14 92-20 110-18 17 2 31 8 41 18 8 8 13 23 17 48 4 23 6 48 4 74 0 25-8 62-21 111-43-49-94-98-153-146-59-49-119-87-179-115l-6 16c58 34 115 78 170 130 54 51 104 105 150 162-6 16-17 34-35 57-33-36-70-69-111-100-39-31-86-61-141-88l-8 12c46 31 88 64 125 97 37 34 73 72 108 114l-34 35c-44-33-87-59-128-78l-8 12c103 71 174 134 211 189H473c-15 0-34-3-57-8l-16 33h426m20 143 27 33 47-35c10-8 15-14 14-20 0-3-4-6-12-7-16-2-32-10-49-24-16-13-33-32-51-56l-15 7 43 79H463c-3-23-8-42-16-57-8-14-18-24-31-27-12-5-22-4-31 1-9 6-11 14-8 24 1 9 8 18 19 27 12 9 21 22 28 37 7 14 14 37 21 71h18v-53h383M545 927l8 13c47-17 79-31 97-43 18-11 30-23 36-35s7-23 2-33c-4-10-11-16-20-19s-16-2-22 3c-5 4-10 12-15 22-6 9-14 21-24 37-9 14-30 33-62 55m-293-28c5-2 7-3 8-5 2-6-1-11-8-14-16-5-27-14-35-27-14-32-28-65-41-100h95l40 45 56-57c1-2 2-4 2-6 0-6-2-8-6-7H168c-22-49-44-94-66-135-22-42-51-86-88-133L0 470c35 58 71 138 109 238 39 98 64 173 75 227l68-36Z"/></symbol><symbol id="镔_G" viewBox="0 0 1000 1000" data-size="21"><path transform="matrix(1 0 0 -1 26 973)" d="m855 806 34 31 47-45c9-8 13-14 11-18 0-2-4-4-9-7-22-5-40-12-53-22-12-10-31-27-59-53l-13 10 48 78H469c0-21-4-41-12-60-6-19-16-32-27-39-12-9-22-12-32-10-9 1-16 6-19 16-4 9-2 17 6 25 6 7 15 16 25 25 9 9 18 24 26 43 5 20 9 43 11 67h22v-41h386M516 302h195v181H516V302m207 345c-40-7-109-21-207-41v-97h287l37 47 62-59c5-6 4-10-4-14H760V302h86l35 49 58-57c8-12 6-18-7-18H387c-13 0-30-2-51-7l-16 33h145v369l53-41c143 39 229 70 259 92l49-59c1-6 0-10-4-10-2-2-9-2-21 2-13 2-39 0-78-8M566 933l10 13c41-16 70-30 88-43 18-12 29-24 35-37 5-12 3-25-4-37s-18-17-31-16c-12 2-19 11-23 28s-10 31-18 43c-8 10-27 26-57 49M291 18c100 63 185 135 256 217 40-32 60-50 60-54 0-5 0-8-2-10-1 0-10-1-25-2-14 0-39-16-76-47C469 94 400 53 299 0l-8 18m395 184 7 16c57-22 101-41 133-59 29-18 51-37 65-55 13-20 17-38 11-53-4-15-13-24-25-26-12 0-23 9-31 28-8 18-26 40-53 67-25 27-61 55-107 82M109 601h178l31 43 39-40c13-9 17-17 14-23-2-4-4-6-8-6H221V421h84l35 45 51-51c5-8 4-14-6-19H221V146l152 97 12-14c-78-60-126-99-145-117-17-15-34-35-49-61l-56 49c11 7 25 18 39 32v264H78c-20 0-39-3-57-8L4 421h170v154h-24l-23-6-18 32m135 295c5-2 7-4 8-6 2-6-1-11-8-14-15-5-27-14-35-27-12-30-24-58-37-84h117l39 45 57-57c1-2 2-4 2-6 0-6-2-8-6-8H162c-21-49-44-93-66-135-22-41-49-82-82-123L0 491c31 53 65 127 104 221 36 93 60 166 72 219l68-35Z"/></symbol><symbol id="镕_G" viewBox="0 0 1000 1000" data-size="21"><path transform="matrix(1 0 0 -1 30 965)" d="m459 337 53-31h228l30 33 44-35c10-5 14-9 14-14 0-4-8-12-25-23V132l4-83c0-9-7-17-20-26-14-7-25-11-35-11v60H510V37c0-10-7-17-20-23-11-7-23-12-35-14l4 110v227m51-239h242v182H510V98m168 483c4-4 5-6 4-8-1-4-12-10-34-15 26-37 55-71 88-100 34-29 66-53 98-72 31-20 66-32 105-37v-18c-29 0-50-3-60-8-9-6-18-13-27-23-28 21-54 43-79 66-23 24-46 49-70 76s-47 61-68 102c-28-38-63-80-104-127-41-46-102-99-183-160l-10 12c62 57 113 111 154 160s82 110 123 185l63-33m-188-12c-27-30-59-60-95-90l-10 12c29 36 56 70 80 102 23 31 45 66 66 103 44-23 65-37 65-43 0-5-3-8-8-9-4 0-11-2-20-6-9-3-18-7-25-14-6-6-23-24-53-55m184 100 6 16c47-20 86-39 117-59 29-20 49-39 58-57 11-17 13-32 8-45-4-11-12-17-25-17-14 0-24 10-31 29-9 20-22 39-39 59-18 19-49 44-94 74m158 98 29 37 47-47c10-6 15-12 16-18 0-2-5-5-14-8-20 0-38-7-55-19-15-12-31-29-50-49l-16 8 41 72H449c0-42-4-70-13-86-8-15-19-26-32-31-11-5-21-3-29 4-7 6-10 13-10 21 0 9 5 17 16 26 9 8 17 19 25 35s16 46 24 92h17l2-37h383M537 919l10 12c40-19 70-35 90-51 17-16 28-29 33-41 4-13 3-24-2-33-4-10-10-16-18-18-7-3-15-2-23 2-9 5-14 13-16 25s-6 26-13 41c-7 14-27 35-61 63M96 575h142l32 39 54-51c1-1 2-4 2-7 0-4-2-6-4-6H195V401h73l31 39 55-44c1 0 3-2 3-6 0-8-3-12-11-12H195V142l121 95 12-13c-72-73-115-118-129-136-13-20-27-40-41-63l-54 55c16 9 31 23 44 42v256H59c-14 0-28-3-43-8L0 401h148v149h-21l-14-2-17 27m138 305c6-2 8-4 8-6 2-6 0-10-8-12-14-4-24-13-31-27-14-30-29-66-47-109h106l29 43 55-53c0-2 1-4 2-6 0-6-3-9-8-8H145c-16-35-32-69-47-101-16-34-44-80-84-139L0 474c35 67 68 146 102 236 32 88 54 156 66 205l66-35Z"/></symbol><symbol id="镖_G" viewBox="0 0 1000 1000" data-size="21"><path transform="matrix(1 0 0 -1 31 965)" d="M346 866h492l29 41 59-47c2-2 4-4 6-7 0-9-4-13-12-14H732V729h82l30 34 56-35c2-4 4-7 4-8 1-4-8-13-27-26V581l4-57c1-7-5-14-16-19-10-5-21-7-35-8v33H445v-27c0-9-6-16-17-22s-22-9-33-9l1 93v200l49-36h100v110H426c-12 0-33-3-65-8l-15 35m99-308h100v144H445V558m147 0h96v144h-96V558m140 0h98v144h-98V558m-44 171v110h-96V729h96M410 438h352l29 41 53-52c1-2 2-5 2-8 0-6-4-9-12-8H473c-13 0-28-2-45-8l-18 35m-74-126h506l35 46 55-56c4-2 6-5 6-8 0-7-4-10-12-10H662V94c2-31-4-54-17-69-14-12-34-20-59-25-5 23-16 40-33 49-18 8-42 17-73 25l6 18c69-14 107-20 116-18s13 15 11 37v173H418c-14 0-37-2-68-8l-14 36M111 587h157l31 43 39-39c12-10 17-18 14-24-2-4-5-5-8-5H215V405h56l36 45 50-51c6-7 4-14-5-19H215V151l115 100 14-14c-54-55-91-93-110-115-17-18-35-41-52-69l-53 39c12 8 25 22 39 40v248H82c-20 0-39-3-57-8L8 405h160v157h-16l-23-6-18 31M244 20c91 67 170 141 236 221l53-45c6-6 4-10-6-13-9 0-19-3-29-8s-35-23-74-55C385 90 327 51 252 4l-8 16m467 188 4 18c49-17 90-34 123-51 33-16 55-33 64-49 11-14 15-30 12-46-4-15-12-23-23-25-13-1-23 7-32 23-7 18-22 38-43 58-21 21-56 45-105 72M252 896c5-2 7-4 8-6 2-6-1-11-8-14-16-5-27-14-35-27-12-30-24-58-37-84h97l34 41 52-53c2-2 2-4 2-6 0-6-2-8-6-8H170c-22-49-44-93-66-135-22-41-52-87-90-138L0 476c35 63 72 142 111 236 37 93 61 166 73 219l68-35Z"/></symbol><symbol id="镗_G" viewBox="0 0 1000 1000" data-size="21"><path transform="matrix(1 0 0 -1 22 943)" d="m457 550 47-31h262l23 29 55-35c2-3 3-6 4-8 0-4-9-14-28-29v-92l4-71c0-5-4-12-13-19-10-6-23-10-38-12v51H668V202h121l33 43 59-49c2-2 3-4 4-8 2-7-1-11-10-11H668V35h184l39 49 62-61c1-2 2-5 2-9s-4-6-12-6H418c-12 0-33-2-64-8l-18 35h283v142H502c-12 0-33-3-64-8l-18 33h199v131H504v-20c1-7-5-16-16-25-9-8-21-13-35-14l4 94v182m47-192h269v133H504V358m113 524 80-33c7-4 7-8 2-12l-6-4-29-14V636h199l33 33 53-49c4-2 6-6 6-10-1-2-6-5-16-7-13 0-33-12-58-36l-37-33-12 8 41 68H445c0-35-6-60-17-76-10-13-22-21-37-23-15-1-24 4-28 15s0 22 14 32c13 9 23 21 31 37 8 15 14 41 18 76h17l2-35h172v246m-193-43c36-20 66-40 90-61 21-20 34-38 39-54 2-16 0-28-6-37-6-11-14-15-24-14-10 2-17 10-21 23-5 15-11 31-20 49-7 18-30 46-68 84l10 10m445-49c7-3 9-6 8-10 1-4-3-6-12-8-15 2-35-9-58-33-24-23-52-51-84-82l-14 12c36 46 72 100 107 162l53-41M111 540h155l31 43 39-39c12-10 17-18 14-23-2-4-5-6-8-6H223V374h72l35 45 51-51c6-8 4-14-6-19H223V106l158 104 12-14C313 133 263 93 244 76c-18-17-35-40-51-68l-48 49c12 9 22 21 31 36v256H90c-20 0-39-3-57-8l-17 33h160v141h-24l-23-6-18 31m139 311c5-2 7-4 8-6 2-6-1-11-8-14-16-5-27-14-35-27-13-34-26-65-39-92h129l35 41 53-53c1-2 2-4 2-6 0-6-2-8-6-7H166c-21-49-44-94-66-135-23-42-51-86-86-133L0 429c33 58 68 136 107 234 39 96 64 170 75 223l68-35Z"/></symbol><symbol id="镘_G" viewBox="0 0 1000 1000" data-size="21"><path transform="matrix(1 0 0 -1 24 959)" d="m432 897 56-35h260l29 35 47-33c8-4 12-10 12-15 0-2-10-11-31-26V712l4-65c0-7-6-15-18-23-11-6-22-10-33-10v33H480v-9c0-7-6-15-19-22-11-6-22-8-33-8l4 102v187m48-226h278v72H480v-72m-119-61 55-35h402l30 35 48-41c6-3 10-6 10-9 0-2-10-12-31-30v-80l4-66c0-10-7-18-20-26-12-6-22-9-31-7v37H410v-16c0-6-6-12-15-18-9-4-21-7-38-7l4 105v158m49-199h108v141H410V411m153 0h105v141H563V411m152 0h113v141H715V411M227 14c97 24 171 47 222 68 50 20 92 40 125 62-45 38-88 87-127 148h-39l-19-4-20 29h352l31 32 55-49c6-4 9-9 9-14 0-2-3-4-11-6-7-2-14-4-22-6-6 0-21-13-45-41-22-25-54-54-97-87 33-17 70-30 111-40 40-9 71-14 92-16 19-2 54-4 107-6V66c-27-2-47-5-60-11-12-6-24-17-37-34-48 12-92 27-133 43-40 17-78 36-114 56-41-26-88-49-142-69-53-20-131-37-235-51l-3 14m250 280c33-48 75-90 127-127 48 34 89 77 123 127H477m3 473h278v72H480v-72M100 589h150l31 43 39-39c13-10 17-18 14-24-2-4-5-6-8-6H203V415h59l31 45 49-51c6-8 4-14-6-19H203V136l158 103 12-15c-81-62-131-103-150-121-17-17-34-38-51-62l-51 45c12 8 24 18 35 30v274H96c-20 0-39-3-57-8l-18 33h135v148h-15l-24-5-17 31m138 295c5-2 7-4 8-6 2-6-1-10-8-14-15-4-27-13-35-27-12-31-24-61-37-88h129l35 45 57-57c1-2 2-4 2-6 0-5-2-8-6-7H156c-21-49-43-94-66-135-22-41-47-81-76-119l-14 9c27 51 59 124 98 219 36 94 60 168 72 221l68-35Z"/></symbol><symbol id="镙_G" viewBox="0 0 1000 1000" data-size="21"><path transform="matrix(1 0 0 -1 32 954)" d="m428 899 52-31h346l24 31 50-35c8-4 12-8 12-13 0-4-10-13-31-28V673l4-70c2-11-3-20-14-28-10-8-23-12-37-12v30H477v-12c0-6-7-12-20-18-12-6-23-9-33-9l4 127v218m49-281h154v100H477V618m203 0h154v100H680V618M477 743h154v100H477V743m203 100V743h154v100H680m-24-307c-12-1-62-25-150-72h211c41 23 74 49 99 76 42-29 62-47 61-53 0-4-2-7-6-8h-16c-8 0-29-7-62-23-33-15-66-32-100-51-33-19-101-52-205-99l330 19c-18 20-45 43-80 69l10 9c68-30 113-54 133-74 19-19 29-36 31-51s-1-27-8-35c-6-8-13-10-23-8-8 2-14 9-20 22-5 13-14 29-27 49l-154-18V90c2-25-4-45-18-61-13-13-34-23-62-29-4 16-13 28-26 37-12 9-39 19-80 31l6 16c51-12 85-17 104-16 17 0 26 6 27 18v198c-55-3-96-6-123-10-28-3-52-10-72-21l-36 60c27 2 54 7 80 16 97 46 168 85 213 115-101-8-160-13-175-15-17-2-36-8-57-18l-35 53c21 2 41 8 58 17 47 26 94 59 141 100 41-18 62-29 63-33 0-5-2-7-6-8s-13-2-26-4M510 229c41-21 62-33 62-37s0-6-2-7c-1-3-10-6-27-10-16-3-46-22-90-57-43-34-98-71-166-112l-8 12c60 49 103 87 131 114 28 25 61 58 100 97m211-11 6 13c43-15 80-31 111-46 30-17 55-35 72-55 18-18 27-37 26-56s-8-30-22-33c-13-3-24 4-33 22-10 18-26 40-47 67-22 25-60 55-113 88M109 571h190l31 43 39-39c13-10 17-17 14-23-2-4-5-6-8-6H229V399h72l35 45 51-50c6-8 4-15-6-20H229V132l146 111 12-14c-73-67-118-109-137-125-18-17-34-41-49-73l-56 49c12 9 24 19 37 30v264H88c-20 0-39-3-57-8l-17 33h168v147h-32l-23-6-18 31m143 301c5-2 7-4 8-6 2-6-1-10-8-13-16-5-27-14-35-28-12-29-26-61-41-96h133l37 45 56-56c2-2 2-4 2-6 0-6-2-9-6-8H168c-22-49-44-94-66-135s-51-86-88-134l-14 9c35 61 71 140 109 239 39 97 64 171 75 224l68-35Z"/></symbol><symbol id="镚_G" viewBox="0 0 1000 1000" data-size="21"><path transform="matrix(1 0 0 -1 41 979)" d="m613 958 82-31c2-2 4-5 4-8 0-2-2-4-8-6l-27-16V745h158v141l78-33 4-6c0-5-3-8-8-10l-25-14v-64l4-51c0-8-6-16-18-21-9-7-21-10-35-10v43H469l-26-28-58 41 29 28v135l76-34c2-2 2-4 2-6 0-3-10-10-31-19v-92h152v213M377 659l53-39h91l32 39 51-35c5-2 7-6 7-12 0-4-8-14-25-31V125c1-25-5-44-18-57-11-11-26-20-45-27-7 14-18 25-33 35s-36 18-62 26l6 17c35-7 59-12 72-14 13-1 22 0 27 4 6 5 8 14 6 27v164H422c-7-65-22-117-45-158-23-40-64-85-123-134l-14 10c61 64 99 122 115 172 16 49 23 106 22 170v299m45-334h117v119H422V325m0 145h117v125H422V470m246 189 53-35h115l23 35 51-39c5-2 8-6 8-12 0-4-8-11-25-23V119c0-35-6-58-18-70-12-11-29-21-53-31-2 11-10 23-25 35-14 10-38 21-72 33l5 18c39-10 66-16 81-18 13-1 23 0 29 4s8 17 6 39v171H713c-3-71-12-126-27-166-17-39-53-84-110-134l-15 12c54 61 85 117 95 169s14 111 12 175v303m45-334h133v121H713V325m0 147h133v127H713V472M96 601h142l32 39 54-51c1-2 2-5 2-8 0-4-2-6-4-6H193V427h75l31 39 55-45c1 0 3-2 3-6 0-8-3-12-11-12H193V179l120 97 13-13c-72-71-115-116-129-134-13-20-27-40-41-63l-54 49c21 13 37 31 46 52v236H59c-14 0-28-2-43-7L0 427h148v148h-21l-14-2-17 28m138 304c6-2 8-4 8-6 2-5 0-9-8-11-14-5-24-14-31-28-14-30-29-66-47-109h106l29 43 55-53c0-2 1-4 2-6 0-6-3-8-8-7H145c-16-36-32-69-47-102-16-34-44-80-84-139L0 499c35 68 70 147 104 236 32 88 55 157 68 207l62-37Z"/></symbol><symbol id="镛_G" viewBox="0 0 1000 1000" data-size="21"><path transform="matrix(1 0 0 -1 38 974)" d="M686 759c4-2 7-4 7-6v-8l-31-14v-23h104l23 33 55-35c4-4 6-8 6-12 0-2-10-9-30-23v-59h22l33 35 45-44c1-2 3-4 4-6 0-7-4-10-12-10h-92v-39l2-59c1-8-4-13-15-17-12-5-22-7-32-8v25H662v-72h117l28 33 54-37c6-2 8-6 8-12 1-2-8-9-27-23V96c0-33-5-55-16-67-11-9-26-19-45-27-7 24-20 39-39 45-18 6-37 13-56 19l3 18c32-7 54-12 69-14 13 0 23 2 29 6 7 5 9 16 8 33v85H662v-89l4-54c0-9-6-17-20-26-11-8-23-12-35-11l4 90v90H480v-79l4-74c0-9-6-18-19-25-12-9-24-13-35-14l4 109v337l48-31h133v72H500c-15 0-30-2-45-6l-25 32h185v72H477c-12 0-26-3-41-8l-20 33h199v71H496c-14 0-25-3-31-8l-24 33h174v76l71-25m-24-76v-71h113v71H662m0-96v-72h113v72H662M480 220h135v78H480v-78m182 78v-78h133v78H662m-182 25h135v69H480v-69m182 69v-69h133v69H662M539 937l8 11c37-12 64-23 80-31s27-19 35-31c7-12 7-24 2-37-4-13-13-19-25-18-12 0-20 6-24 18-4 9-10 22-19 39-11 14-30 30-57 49m272-118 33 43 62-54 2-6c0-5-2-7-8-8H408V608c3-160-5-283-23-369-19-85-69-165-151-239l-9 14c64 76 103 153 117 231s21 192 19 340v275l49-41h401M92 608h160l31 43 39-39c13-9 17-17 14-23-2-4-5-6-8-6H182V440h64l35 45 51-50c8-8 7-15-2-20H182V183l146 121 12-14c-72-72-117-119-135-141-17-19-34-42-49-67l-54 35c11 7 23 19 35 36v262H74c-20 0-39-3-56-8L0 440h137v143h-14l-18-6-13 31m127 293c4-2 7-4 8-5 2-6-1-11-8-14-16-5-28-14-35-28-12-29-24-60-36-91h114l33 39 51-51c1-2 2-4 2-6 0-6-2-8-6-8H139c-19-49-35-90-51-123-14-32-36-74-67-127l-15 6c28 67 52 129 72 188 20 58 44 143 74 256l67-36Z"/></symbol><symbol id="镜_G" viewBox="0 0 1000 1000" data-size="21"><path transform="matrix(1 0 0 -1 22 975)" d="M100 608h177l36 43c39-37 58-58 58-62s-2-6-6-6H213V423h80l31 45 49-51c2 0 3-2 4-6 0-8-5-12-14-12H213V155l150 117 12-13c-79-71-125-115-139-131-13-14-28-36-45-67l-56 43c11 9 22 23 33 40v255H82c-12 0-33-2-64-7L0 423h168v160h-31l-20-6-17 31m152 303c8-6 10-10 6-12 0-3-4-6-12-9-16-4-29-15-41-34-12-30-24-60-37-91h133l33 45 57-55c1-2 2-4 2-6 0-5-2-7-6-8H160c-21-47-45-95-70-144-24-50-45-90-65-119l-15 7c39 88 73 172 103 252 28 81 50 150 67 207l72-33m166-328 55-35h310l28 37 60-43c4-3 6-5 6-8-1-4-12-13-33-29V378l4-70c2-9-3-19-14-28-10-8-23-12-39-13v31h-78V142c-1-27 4-43 13-48 10-4 25-6 45-8h65c15 3 26 8 33 16 6 8 10 17 12 26 2 10 6 58 11 143h16c4-59 7-97 10-114 3-18 14-33 33-44-16-33-32-52-49-58-15-4-33-7-52-10H752c-34 3-57 9-68 19s-16 31-16 62v172h-86c-6-88-35-153-86-194C447 61 362 27 242 0l-2 18c110 31 185 68 227 108 40 38 62 96 66 172h-66v-16c-1-8-6-14-16-19-10-4-22-8-37-12l4 125v207m49-260h328v84H467v-84m0 110h328v89H467v-89m332 388 39 49 60-57c2-1 4-3 4-5 1-8-4-12-15-12H455c-14 0-36-3-66-8l-16 33h426m8-64c4-2 6-5 6-8 0-6-3-10-10-10-16-4-30-13-41-27-12-14-30-37-53-70h121l41 50 61-56c2-3 3-5 4-8 0-8-4-12-12-12H451c-21 2-43 0-66-8l-16 34h309c17 24 39 72 66 142l63-27m-327 19 10 10c33-17 57-33 71-47 13-12 21-24 23-37 2-12 0-23-6-33-6-9-14-13-25-12-12 2-18 10-20 26-2 13-8 28-15 45-9 14-21 30-38 48m55 162 8 12c52-16 86-30 102-43 14-11 22-23 25-35 2-12-1-23-8-31-7-9-16-13-27-12-11 2-18 10-22 24-4 13-11 26-21 39-11 11-29 27-57 46Z"/></symbol><symbol id="镝_G" viewBox="0 0 1000 1000" data-size="21"><path transform="matrix(1 0 0 -1 24 972)" d="M672 640c25 47 47 91 64 134l55-25c11-6 14-12 8-16-16 0-31-7-45-23-12-14-31-37-55-70h123l30 39 50-37c6-2 9-6 10-12 0-4-10-14-31-29V98c1-27-5-47-16-61-10-12-29-23-58-33-4 23-16 38-36 47-17 8-43 17-78 27l4 18c71-15 112-19 123-14s16 23 14 56v476H434V153l4-114c0-7-6-16-18-25S395 1 383 0l4 155v524l54-39h231M459 495h139v106l66-26c4 0 6-2 6-4 3-2 3-6 0-9l-27-16v-51h89l30 37 45-47c2-1 3-2 4-4 0-7-4-11-12-11H643v-96h41l25 33 49-35c5-8 4-14-4-18l-16-13V235l4-56c0-9-4-16-13-22s-20-10-34-13v50H547v-31c0-7-6-14-18-21-11-7-21-10-29-10l4 101v172l47-31h47v96h-80c-14 0-30-3-47-8l-12 33m88-275h148v129H547V220m308 590 34 44 58-52c7-12 5-18-6-18H439c-13 0-33-2-62-8l-16 34h494m-363-51 8 12c31-15 55-28 72-40 16-11 26-24 30-37 2-12 0-23-6-33-8-8-17-12-26-10s-16 10-19 24c-4 13-10 27-18 41-8 13-21 27-41 43m67 174 5 11c43-14 75-27 96-39 20-11 31-25 33-41 2-14 0-25-7-33-6-9-15-13-26-12-12 2-19 10-23 26-5 13-12 26-22 39-8 11-27 27-56 49M105 595h157l31 43 39-39c12-10 17-18 14-24-2-4-5-6-8-6H217V425h53l35 41 49-47c5-8 3-14-6-20H217V149l133 104 11-14c-63-56-104-96-125-119-20-21-37-47-50-79l-57 45c12 8 25 21 41 38v275H76c-20 0-39-2-56-7L2 425h168v144h-24l-23-6-18 32m141 299c5-2 7-4 8-6 2-6-1-11-8-14-16-5-27-14-35-27-12-30-24-58-37-84h99l38 41 52-53c2-2 2-4 2-6 0-6-2-8-6-8H164c-21-47-43-91-64-134-23-41-51-86-86-135L0 478c33 60 68 138 105 232 37 93 61 166 73 219l68-35Z"/></symbol><symbol id="镞_G" viewBox="0 0 1000 1000" data-size="21"><path transform="matrix(1 0 0 -1 25 973)" d="M699 841c-10-18-19-40-29-67h154l37 43 53-52c1-4 2-7 2-10 0-5-3-7-8-8H656c-18-45-47-98-86-158l-15 8c29 68 52 127 70 175 17 47 34 98 51 153 47-23 70-36 70-39 0-2-1-5-2-8-1-2-6-4-15-6-8-2-18-12-30-31m-330 86 10 11c35-21 60-41 76-58 14-18 23-34 25-49 3-14 2-25-3-35-5-9-12-14-20-16s-16-1-21 4c-6 3-10 14-12 31-3 17-8 34-16 51-7 17-20 37-39 61m141-186 23 39 51-47c2-4 3-5 4-5 0-8-4-12-12-12H408V563h74l26 30 53-33c6-4 9-8 7-12 0-2-9-10-29-24l-12-255c0-59-7-102-21-129-14-26-37-44-70-52-4 16-12 28-24 36-12 9-31 20-58 31l5 16 51-14c31-8 51-4 59 14 6 16 11 48 13 98l12 269h-86c-8-146-25-254-53-322-26-68-82-136-167-204l-10 11c73 71 120 138 142 203 22 63 37 170 43 320v170h-19c-8 0-18-3-30-8l-21 33h217m152-58c38-16 58-26 61-30 2-2 3-4 2-7-2-2-7-5-14-8-7-2-12-7-16-14-4-8-9-21-17-41h129l33 43c37-37 56-57 56-61s-2-7-7-7H752c-1-79-4-136-10-172h98l33 41 53-49c2-2 3-5 4-8 0-8-4-12-12-12H760c13-55 25-97 37-125 12-27 29-55 51-84 22-27 56-49 101-67V66c-21 1-37 0-47-2-10-1-21-7-33-19-30 32-53 65-68 99-16 33-30 63-39 91s-16 69-22 123h-4c-7-60-30-121-66-181C635 117 570 58 477 0l-10 14c76 55 131 111 164 169 32 56 53 115 62 175h-86c-13 0-28-2-43-7l-19 35h152l8 78 2 94h-41c-20-44-44-86-72-127l-14 9c25 53 43 98 53 135 10 35 19 71 29 108M86 620h164l31 43 39-39c13-10 17-18 14-23-2-4-5-6-8-6H186V444h70l33 43 47-50c6-6 4-12-6-18H186V206l103 92 12-14c-47-49-79-84-96-103-17-21-34-45-49-72l-51 37c12 8 24 22 36 42v231H76c-20 0-39-3-56-8L2 444h139v151h-16l-21-6-18 31m139 293c4-2 7-4 7-6 2-6 0-10-7-13-16-5-28-14-36-28-11-26-24-54-37-86h94l33 39 51-50c1-2 2-4 2-6 0-6-2-9-6-8H143c-19-46-37-86-55-121s-42-75-72-119l-16 6c28 59 54 118 78 177 24 58 51 141 82 248l65-33Z"/></symbol><symbol id="镟_G" viewBox="0 0 1000 1000" data-size="21"><path transform="matrix(1 0 0 -1 40 963)" d="M699 835c-11-26-24-52-37-78h151l35 45 52-53c2-3 2-6 2-10s-2-7-7-8H648c-19-40-47-84-84-132l-15 7c30 56 54 106 72 149 17 42 38 99 63 172 44-20 66-31 66-35s-1-7-2-8c-1-2-6-4-16-6s-21-16-33-43m-322 80 10 10c32-18 57-35 74-53 17-16 27-31 31-47 3-13 1-25-4-35-4-8-11-14-19-16-9-2-16-1-22 4-4 4-8 14-9 32-1 16-6 33-16 50-9 15-24 34-45 55m146-160 30 37 49-45c2-3 3-4 3-4 0-8-3-12-11-12H426V571h74l20 28 46-34c8-3 11-7 10-11 0-3-10-9-27-20l-8-252c-2-70-10-117-23-140-12-23-34-37-65-44-4 16-10 28-19 36-9 6-25 15-49 25l6 14 37-10c29-6 47-4 52 8 6 10 12 47 16 111l8 266h-78c-7-142-22-247-45-315-22-66-65-133-131-202l-12 10c52 72 88 139 108 202 19 61 31 166 35 313v175h-14c-8 0-17-2-29-7l-18 31h203m73-145h222l22 30 51-36 7-7c4-7 0-12-13-16-15-3-28-10-39-21-13-11-30-32-51-63l-14 6c9 21 22 49 37 84h-72V390h68l30 35 51-47c1 0 1-2 1-6s-2-7-7-8H746V104c17-8 36-14 57-18 21-3 47-3 76-2h41V66c-24 0-39-3-45-9-5-6-11-15-20-28-47 6-87 17-121 34-32 16-56 42-72 77s-29 75-41 121c-12-67-29-119-53-155-22-34-52-70-91-106l-12 10c44 50 77 105 98 165 19 58 31 154 35 287 41-16 63-25 68-29 4-4 2-9-6-14l-17-6c-6-37-11-76-14-117 17-43 31-77 41-102 9-24 20-44 33-60v453h-39c-14-1-31-4-53-10l-15 33M94 587h148l31 41 40-37c12-10 16-18 13-24-2-4-4-5-8-5H197V415h57l31 41 51-47c6-8 4-14-6-19H197V159l121 100 12-14c-59-58-97-98-113-117s-31-42-47-69l-55 41c12 7 25 19 39 36v254H74c-20 0-39-3-56-8L0 415h154v147h-17l-26-6-17 31m133 299c4-2 7-4 7-6 2-6 0-11-7-14-16-4-28-13-36-27-11-30-24-63-37-98h82l34 39 50-51c2-1 2-3 2-5 0-6-2-9-6-8H145c-19-46-37-86-55-121s-42-75-72-119l-16 5c28 60 54 119 78 178 24 58 51 145 82 260l65-33Z"/></symbol><symbol id="镠_G" viewBox="0 0 1000 1000" data-size="21"><path transform="matrix(1 0 0 -1 32 963)" d="M576 351c-41-32-108-72-201-120l-10 16c97 58 184 128 262 209 34-23 53-38 55-43 0-4-1-6-2-8-2 0-10 0-24-2-12-2-39-19-80-52m12-267C520 51 437 23 340 0l-2 16c100 35 185 72 258 112 71 41 135 91 191 150 35-29 53-47 55-52 0-4-2-7-6-8-5-2-11-3-20-2-7 0-30-13-68-41-39-29-92-60-160-91M354 886h189l33 31 47-39c5-4 8-8 8-12s-10-12-29-23V700l3-78c0-10-5-18-17-25-11-7-22-10-33-10v100c-48-33-80-56-96-69-15-12-30-27-45-47l-43 43 184 98v148H422c-22-2-37-4-47-7l-21 33m259-647c-60-45-139-86-238-124l-6 17c123 58 231 135 322 230 33-23 50-37 51-43 1-4 0-6-4-7-4 0-11-1-21-2-9-2-43-26-104-71m63 340c2-4 2-6 0-8 0-4-9-8-26-9 34-37 62-64 86-81 24-15 50-31 80-46 29-14 69-23 120-26v-17c-20 0-36-4-47-12-13-7-23-15-32-26-24 10-48 24-74 42-23 17-47 36-70 56-22 20-49 52-80 96-45-42-90-80-135-113-45-34-92-62-141-84l-7 13c33 23 72 54 117 92 44 37 94 87 150 150l59-27M389 821l7 10c33-14 57-25 73-35 13-11 23-22 29-33 5-11 6-22 2-34-4-10-12-15-23-15-12 0-20 6-24 17-4 12-8 24-14 36s-23 30-50 54m242 65h160l31 33 49-37c5-4 8-8 8-12 1-4-9-12-27-23V647l3-48c0-10-5-19-17-26-11-6-22-10-33-10v145c-36-20-64-37-84-51-20-13-39-30-55-51l-41 43 180 82v129H699c-21-2-37-4-47-7l-21 33m14-63 7 10c26-12 45-23 59-35 13-11 22-22 27-33 4-11 4-21-2-32-4-9-11-14-21-13-10 0-16 7-20 21-4 12-8 24-13 35-5 12-17 28-37 47M96 585h142l32 39 54-51c1-2 2-4 2-8 0-3-2-5-4-5H195V411h73l31 39 55-45c1 0 3-2 3-6 0-7-3-11-11-11H195V151l121 96 12-14c-74-69-118-113-131-131-13-20-27-41-41-63l-52 53c16 9 31 23 44 42v254H59c-14 0-28-3-43-8L0 411h148v149h-21l-14-2-17 27m138 305c6-2 8-4 8-6 2-6 0-10-8-12-14-4-24-14-31-27-14-30-29-67-47-110h114l29 43 55-52c0-2 1-4 1-6 0-6-2-9-7-8H145c-16-35-32-69-47-102-16-34-44-80-84-138L0 483c35 68 70 147 104 237 32 87 55 156 68 207l62-37Z"/></symbol><symbol id="镡_G" viewBox="0 0 1000 1000" data-size="21"><path transform="matrix(1 0 0 -1 16 972)" d="M348 886h511l37 49 59-54c2-3 3-6 4-8 0-8-4-12-12-12H758v-94h99l26 35 53-35c4-2 7-6 7-11 0-2-9-9-27-20v-66l4-53c0-9-6-16-18-22-10-4-21-7-33-7v23H449v-10c1-4-4-10-15-17-12-6-24-10-38-12l4 78v149l45-32h116v94H430c-14 0-34-3-61-8l-21 33m101-250h112v106H449V636m156 0h108v106H605V636m153 0h111v106H758V636m-45 131v94H605v-94h108M447 556l43-25h313l27 35 53-41c4-3 6-5 6-8 0-4-9-11-26-21V357l4-55c1-6-4-13-15-21-12-7-25-10-38-10v39H680v-95h193l35 44 59-52c1-2 2-5 2-8 0-7-3-10-10-10H680v-69l4-84c0-7-7-15-20-24-14-8-26-12-37-11l4 115v73H428c-12 0-33-2-65-8l-17 34h285v95H496v-6c0-7-6-14-17-21-12-7-24-10-36-10l4 84v199m49-222h318v76H496v-76m0 99h318v74H496v-74M84 605h199l31 41 40-37c12-10 16-18 13-23-2-4-4-6-8-6H211V433h72l35 45 51-51c6-7 4-14-6-19H211V170l141 111 13-14c-74-71-120-116-136-136-16-19-32-42-49-72l-55 47c12 9 25 21 39 36v266H86c-20 0-39-3-57-8l-17 33h152v147h-39l-23-6-18 31m143 307c4-2 7-4 7-6 2-6 0-10-7-14-16-4-28-13-36-27-13-35-26-68-39-100h141l33 39 51-50c1-2 2-4 2-6 0-6-2-9-6-8H143c-19-45-37-85-55-119-18-35-42-75-72-119l-16 5c28 59 54 118 78 176 23 58 51 145 84 262l65-33Z"/></symbol><symbol id="镢_G" viewBox="0 0 1000 1000" data-size="21"><path transform="matrix(1 0 0 -1 21 966)" d="M398 628h137c24 53 45 109 65 170 43-20 63-31 62-35-2-5-4-7-6-8-2 1-7-1-13-4-7-2-17-12-32-31-13-19-32-50-54-92h56l32 31 43-41c1-2 3-5 3-8-2-4-4-6-7-6H553V339h54v193l53-17c4-2 6-4 6-6s-6-9-20-20V376l4-64c1-10-2-18-9-24-8-6-15-10-20-12-6 0-10-1-14-2v41h-56c-4-50-16-93-37-128-21-36-47-68-80-97-34-30-73-58-120-84l-9 10c43 33 78 62 105 88 25 24 47 54 67 88 19 34 31 75 35 123h-49l-24-27-48 29 23 22v203l55-20c5-1 8-4 10-7 0-4-9-9-26-16V339h61v265h-51c-16 1-29-2-41-9l-24 33m32 168c28-27 49-49 60-65 11-15 16-29 14-41-2-11-6-19-12-23-4-3-10-4-17-4s-11 6-14 18c-2 11-4 23-6 37-2 13-14 37-35 72l10 6m392-31c4-2 6-4 6-6 4-3 3-6-2-10-16-5-28-16-37-33-8-16-22-47-43-94h121l26 29 41-37c7-6 11-10 11-13 0-2-2-5-6-8-13-2-24-6-31-12-6-6-17-19-31-39-13-20-28-41-45-64l-12 7 49 114H738c-17-46-35-80-52-102l-12 10c23 56 55 152 94 287l54-29m-47-338c12-82 28-145 47-192 19-45 39-80 61-103 19-24 44-42 74-54V64c-18 3-31 2-39-1-7-2-17-8-31-20-20 24-37 49-51 75-13 27-26 59-39 96-12 37-24 93-35 168-9-93-24-160-45-203s-48-77-80-103c-32-27-74-53-127-76l-8 14c51 28 92 58 123 91s53 69 64 107c12 38 21 75 28 113 4 37 11 104 19 199 43-18 65-30 67-33v-6c-2-2-11-8-28-19v-39m71 429 35 43 58-52c2-4 4-6 4-6 0-7-2-10-7-10H383V573c0-144-10-256-29-338-20-82-62-156-125-221l-12 9c44 56 76 128 96 216 18 86 27 209 25 371v286l51-40h457M92 612h138l28 37 35-33c12-10 17-17 14-23-2-4-5-6-8-6H186V437h50l28 37 49-43c5-8 3-15-6-20H186V183l99 86 14-10c-50-54-82-90-98-110-14-19-28-42-43-67l-51 40c12 9 24 21 36 37v252H80c-20 0-39-2-57-8L6 437h137v150h-12l-22-6-17 31m135 287c4-2 7-3 7-3 2-6 0-11-7-14-16-4-28-14-36-29-11-26-23-54-35-84h80l34 39 50-51c2-2 2-4 2-6 0-6-2-8-6-8H146c-17-49-35-90-52-123-17-34-43-76-78-127l-16 6c35 66 63 129 86 188 21 58 47 140 76 246l65-34Z"/></symbol><symbol id="镣_G" viewBox="0 0 1000 1000" data-size="21"><path transform="matrix(1 0 0 -1 13 972)" d="M94 624h164l37 47 62-59c1 0 2-2 2-6s-2-7-4-7H209V437h62l38 48 54-54c2 0 4-3 4-8 0-7-4-10-12-10H209V175l154 109 10-15c-90-77-141-123-154-139-12-14-26-32-41-54l-53 48c18 14 31 29 39 45v244H94c-14 0-36-3-67-8l-15 32h152v162h-39l-18-4-13 29m150 285c5-2 8-5 8-8 0-4-4-7-12-11-13-4-24-13-33-26-15-31-28-60-39-88h96l29 43 51-52c0-2 1-4 2-6 0-5-3-7-8-8H156c-19-45-41-86-64-123-22-37-47-75-76-115l-16 7c41 71 77 146 109 227s55 146 71 195l64-35m260-556h258v103H504V353m0 126h258v98H504v-98m-149-15c30 31 57 64 83 99 25 36 46 69 64 100 17 29 35 66 55 111H441c-13 0-35-2-66-7l-16 33h209c28 56 45 101 53 135l65-36c5-2 9-5 9-7 6-5 0-10-19-14-11-4-22-18-33-41l-20-37h193l36 45 54-47c8-4 12-9 12-14 1-6-3-10-10-10H688c24-54 56-101 95-140 21 31 43 66 67 103 35-23 54-37 56-41 0-4 0-6-2-8-2 0-9-1-21-3-11-2-22-8-33-18-12-10-28-27-49-53l33-25c47-33 94-53 141-59v-15c-16 0-30-2-41-6-10-4-20-14-30-30-39 22-70 45-93 71V401l3-66c0-12-4-22-13-31-9-8-21-13-37-14v37h-96V94c2-24-4-43-18-59-12-14-35-25-68-35-3 15-6 26-10 33-4 5-13 10-27 16-12 5-35 12-70 21l4 18c49-8 85-13 107-16 23-2 33 13 31 43v212H506v-12c-2-8-8-15-18-21-9-6-22-10-37-12l4 106v148c-24-29-55-57-92-82l-8 10m34 265 7 12c35-17 58-32 69-43 10-11 15-22 15-33s-2-20-7-27c-7-7-14-9-22-8s-13 8-15 21c-2 12-5 24-10 36-6 10-18 24-37 42m76-572c-27-25-74-62-141-112l-10 14c62 54 123 122 184 206 39-28 58-45 57-49-2-5-5-7-10-8-6 0-14-2-24-6-9-3-28-18-56-45m267 98c49-24 88-44 116-61 27-16 48-33 62-50 13-16 17-32 14-48-2-15-10-24-24-26-11 0-21 7-29 24-8 15-19 33-35 53-16 22-53 53-111 94l7 14M607 771c-35-71-68-127-99-168h248c-39 48-69 104-92 168h-57Z"/></symbol><symbol id="镤_G" viewBox="0 0 1000 1000" data-size="21"><path transform="matrix(1 0 0 -1 22 976)" d="M551 952c52-21 79-34 80-37v-8c-1-2-12-6-33-13V696h84v248c46-17 72-28 78-31 5-4 6-8 2-12-4-3-15-8-33-15V696h136l33 41c36-36 54-54 55-56 0-7-6-10-17-10H396c-13 0-31-3-54-8l-16 33h225v256m189-359c-13-12-30-31-49-59h135l35 41c37-35 55-54 55-58 0-5-4-8-12-8H660c1-36 0-69-4-98h145l35 39c37-33 56-51 57-53 1-7-2-11-10-11H654c-2-30-6-61-11-94h216l36 45 52-51c2-2 4-4 4-8 0-7-4-11-12-11H680c21-46 48-82 80-110 30-26 60-46 90-57 29-13 64-21 105-26V55c-24 0-40-4-49-10-8-5-17-14-27-25-63 31-113 70-150 114-36 44-61 88-75 133h-19c-26-80-65-139-117-177-54-39-123-69-209-90l-6 18c71 23 131 52 177 87 46 33 82 87 108 162H432c-14 0-36-3-67-8l-15 33h246c6 33 11 64 13 94H496c-12 0-34-3-66-8l-22 33h201c4 31 6 64 4 98H434c-14 0-30-3-49-8l-22 33h303c27 47 49 90 64 129 40-19 60-30 63-33s3-7 0-10c-4-2-10-4-18-6-7-2-19-10-35-21m-254 60 10 10c29-16 51-28 65-37 13-8 23-19 29-31s6-24 0-35c-6-13-14-18-26-16-11-1-19 8-23 25-3 16-8 29-16 39-7 10-20 25-39 45m-97 221 7 12c30-16 55-32 75-47 19-16 31-30 37-43 4-14 3-26-2-37-7-13-16-18-27-16-13 1-20 10-22 26-2 15-8 31-19 48-10 16-27 35-49 57m359-150c45 64 79 120 104 168l60-41c5-5 4-10-4-14-15-2-26-6-33-12-6-6-18-17-35-35-18-16-43-41-76-76l-16 10M94 612h181l32 41 39-37c12-10 17-17 13-23-2-4-4-6-7-6H195V433h73l35 45 51-51c5-8 3-15-6-20H195V149l129 88 12-13c-65-56-106-91-121-105-16-15-34-38-55-68l-53 51c13 7 28 18 43 32v273H72c-19 0-37-2-54-8L0 433h150v154h-15l-24-6-17 31m136 305c5-2 8-4 8-6 2-6 0-10-8-14-15-3-27-12-35-25-13-32-26-65-39-98h106l39 45 54-56c2-2 2-4 2-6 0-6-2-9-5-8H146c-18-46-36-86-54-121s-42-75-72-119l-16 6c28 59 54 118 78 177 23 59 51 145 82 258l66-33Z"/></symbol><symbol id="镥_G" viewBox="0 0 1000 1000" data-size="21"><path transform="matrix(1 0 0 -1 36 971)" d="M564 890c-13-5-31-24-52-57h168l25 27c38-30 59-45 61-45 5-5 5-9 2-11-1-3-6-5-16-8-10-1-22-5-33-14-12-6-32-26-61-60h135l31 35 49-39c4-3 6-6 6-10s-9-12-25-25V575l3-78c0-10-4-18-13-25-10-7-22-11-37-14v29H451v-11c0-8-6-14-17-18-11-5-22-7-34-8l4 96v156c-18-21-42-45-72-70l-10 14c26 27 59 71 100 132 40 61 72 116 96 164 43-19 65-31 68-35s3-6 2-8c0-2-8-5-24-9M451 513h153v78H451v-78m197 0h159v78H648v-78M451 616h153v80H451v-80m197 80v-78h159v78H648m-195 26h178l49 86H494c-19-21-40-45-60-75l19-11m-94-311h477l31 41 57-45c2-2 3-4 4-8 0-7-4-11-12-11H441c-13 0-35-3-66-8l-16 31m84-51 47-35h268l27 33 55-41c4-2 6-4 6-5-1-4-10-12-28-24V120l4-73c1-8-3-15-11-22-9-7-22-13-40-15v58H490V25c0-5-6-11-17-17-11-5-22-8-34-8l4 124v236m47-266h281v87H490V94m0 112h281v94H490v-94M90 583h158l31 39 35-35c13-10 17-18 14-24-2-3-4-5-8-5H191V421h75l31 43 47-49c6-8 4-14-6-19H191V130l147 129 12-12c-77-79-123-129-139-147-14-20-29-43-45-71l-55 41c14 9 26 21 35 37v289H74c-20 0-39-3-56-8L0 421h146v137h-13l-26-6-17 31m133 311c4-2 7-4 7-6 2-6 0-11-7-14-16-5-28-14-35-27-12-30-24-61-36-92h108l33 39 51-51c1-2 2-4 2-6 0-6-2-8-6-8H145c-18-48-36-93-53-134-18-41-43-87-74-137l-16 6c27 64 53 130 76 197 24 66 49 155 76 268l69-35Z"/></symbol><symbol id="镦_G" viewBox="0 0 1000 1000" data-size="21"><path transform="matrix(1 0 0 -1 16 962)" d="m738 913 71-33c6-5 8-8 5-10 0-2-2-5-7-8-13-4-21-8-26-11-4-4-11-21-21-49-9-28-24-69-45-123h148l32 47 60-57c1 0 1-2 2-6s-3-6-10-8h-99c-6-90-14-164-24-224-10-59-29-122-56-190 13-27 31-53 52-76 20-22 41-40 65-55 22-13 50-25 84-36V59c-17 0-31-2-45-4-13-2-26-10-39-24-24 19-46 40-67 63-19 22-43 59-74 110-30-47-64-87-103-120-40-34-86-62-137-84l-6 14c44 30 84 60 119 90 33 32 68 80 104 143-20 40-34 86-43 137s-15 109-20 176c-11-30-24-53-39-71l-12 8c54 125 98 264 131 416m67-260H703c-6-17-14-37-25-58 9-73 18-133 27-180 7-47 20-88 37-123 17 40 30 87 39 143 8 55 16 128 24 218M561 788l35 47 50-53c2-2 4-4 4-6 0-7-4-11-11-11H395c-14 0-36-3-67-8l-15 31h248m-209-70 43-37h134l30 35 45-33c5-2 9-6 9-12 1-3-6-9-21-20v-88l4-60c0-8-6-14-18-20-11-4-22-5-33-5v33H396v-20c-5-12-12-18-21-19-9-3-18-4-27-4l4 84v166m44-182h149v119H396V536m165-90 37-29c7-6 11-10 11-14 0-2-4-5-13-7-18-7-32-15-43-26-12-8-30-21-53-41v-49l152 35 6-15-160-49V92c2-19-2-35-12-49-8-11-26-22-54-31-4 21-18 37-41 47-22 9-41 16-59 21l4 18c53-13 86-20 100-20 13 1 19 8 17 22v137c-32-8-56-15-72-21-16-7-32-17-49-31l-37 52 158 32v82l31-14 45 59H398c-9-1-21-4-35-10l-23 35h195l26 25M396 913l8 12c38-16 64-30 78-43s22-26 24-39c1-14-2-24-10-31s-16-10-25-8c-10 2-16 9-18 23-2 13-6 26-14 37-5 11-20 28-43 49M82 591h154l32 41 39-37c12-10 17-18 13-24-2-4-4-6-7-6H195V407h49l29 41 49-47c6-7 4-14-6-19H195V147l88 59 12-14c-38-31-67-56-86-76-18-17-33-38-45-61l-51 43c12 4 25 16 39 34v250H92c-20 0-39-3-57-8l-17 33h134v158h-29l-23-5-18 31m137 299c4-2 7-4 8-6 2-6-1-11-8-14-16-4-28-14-35-27-12-30-24-61-36-92h92l33 39 51-51c2-2 2-4 2-6 0-5-2-8-6-7H139c-17-43-36-84-57-123-19-39-42-75-66-110l-16 6c21 43 45 97 70 162 26 63 53 151 82 264l67-35Z"/></symbol><symbol id="镧_G" viewBox="0 0 1000 1000" data-size="21"><path transform="matrix(1 0 0 -1 41 966)" d="M418 677h164v129l66-24c4 0 6-2 6-6 0-2 0-4-2-5l-25-14v-80h100l31 43 55-51c1-3 3-6 3-10s-4-6-13-6H627v-78h94l19 29 41-31c9-4 13-8 14-11-1-3-10-10-27-20V425l3-55c0-8-4-16-13-23-8-8-18-12-31-12v27H627v-54c24-10 50-21 78-32 27-12 47-25 59-39 11-14 15-28 13-43-2-13-9-20-19-21-11-1-21 8-31 27-10 17-25 33-45 49-20 15-38 28-55 39V167l4-89c0-8-7-15-20-21-12-8-23-11-33-10l4 126v140c-33-42-63-78-92-107-29-27-59-53-90-76l-9 12c28 29 56 59 84 91 26 32 57 75 91 129h-76v-15c0-9-6-16-17-22-12-6-22-9-30-8l4 106v185l45-33h90v78H477c-15 0-30-2-45-7l-14 31m209-125V386h100v166H627M332 745l64-29c7-2 9-6 6-12l-25-16V132l4-91c0-12-7-21-20-29S337 0 328 0l4 120v625m531 151 47-42c10-7 9-14-2-19l-19-14V104c1-26-2-45-10-59-9-13-29-25-61-37-4 17-11 31-23 41-12 8-39 18-82 31l4 16c43-7 72-12 88-14 15-1 26 0 33 4 6 3 9 11 8 26v723H605c-11 0-27-3-46-8l-16 31h291l29 38m-478 25c58-30 94-54 105-72 13-18 18-32 18-43-2-13-6-22-12-28s-14-7-23-6c-8 2-15 10-20 26-4 15-10 30-17 45-8 15-28 37-59 66l8 12m105-535h92v166h-92V386m6 129 10 6c24-25 40-43 49-57 8-14 11-26 9-35-1-11-4-18-9-22s-10-6-16-4c-6 0-11 11-14 34-2 20-11 46-29 78m178 0c32-14 47-24 47-30-1-4-4-6-10-6s-14-6-23-19c-10-13-25-34-43-63l-12 6c19 41 33 78 41 112M90 603h140l32 41 37-38c12-9 17-17 14-23-2-4-5-6-8-6H191V427h47l30 39 46-45c6-8 4-14-5-20H191V149l118 90 11-13c-55-53-91-88-107-106-14-16-29-38-45-65l-57 43c13 7 25 18 37 32v271H98c-21 0-39-2-57-7l-18 33h125v150h-17l-24-6-17 32m133 294c4-1 7-3 7-5 2-6 0-11-7-14-16-5-28-14-35-27-12-26-24-54-36-84h80l34 39 50-51c2-2 2-4 2-6 0-6-2-8-5-8H143c-19-49-38-94-57-135-18-41-41-88-70-142l-16 6c27 68 53 136 76 203 24 66 50 152 80 260l67-36Z"/></symbol><symbol id="镨_G" viewBox="0 0 1000 1000" data-size="21"><path transform="matrix(1 0 0 -1 33 972)" d="m430 427 50-39h286l25 36 57-45c4-5 6-8 6-10 0-4-11-13-32-26V114l4-65c0-7-4-15-13-23-9-6-21-11-38-14v67H477V36c0-8-7-16-20-24-12-8-22-12-31-11l4 103v323m47-323h298v120H477V104m0 146h298v111H477V250m336 515 33 43 56-51c2-1 4-4 4-7 0-7-4-10-11-10H721V496h115l35 45 59-53c2-3 3-6 4-10s-2-7-10-8H416c-14 0-35-2-62-7l-20 33h197v244h-74c-14 0-37-3-68-8l-16 33h287c37 71 68 131 92 180l61-37c3-4 5-8 3-12-2-2-6-4-13-6-7 0-16-6-28-15-11-9-41-45-89-110h127M578 496h96v244h-96V496M381 685l10 10c31-24 54-45 70-63 15-16 24-30 27-42s2-24-4-36c-5-10-14-15-27-15-13-1-20 8-21 25-2 17-7 34-14 51-6 17-20 41-41 70m457 12c43-27 64-43 62-47-1-4-4-7-9-8-4 0-11-2-20-6-8-4-17-11-27-23-11-11-39-44-86-98l-12 10c35 61 66 119 92 172M465 924l8 11c43-24 72-44 88-60 15-17 25-31 29-43 4-13 3-24-2-33-5-11-14-15-27-14-12 0-20 8-24 23-4 16-10 32-17 47-7 14-25 37-55 69M104 609h173l32 41 39-37c12-10 17-18 13-23-2-4-4-6-7-6H209V431h70l35 45 51-51c6-7 4-14-6-19H209V138l152 116 12-14c-80-76-129-123-146-140-18-17-32-38-43-62l-59 41c12 8 25 19 39 35v292H86c-12 0-27-3-45-8l-18 33h141v153h-23l-20-6-17 31m125 297c4-2 7-4 7-6 2-6 0-10-7-14-17-4-30-14-40-31-6-23-15-51-27-82h113l34 39 50-51c2-2 2-4 2-5 0-6-2-9-6-8H154c-21-56-41-104-60-145-18-41-44-88-78-142l-16 5c25 55 52 121 80 198 27 76 53 167 76 273l73-31Z"/></symbol><symbol id="镩_G" viewBox="0 0 1000 1000" data-size="21"><path transform="matrix(1 0 0 -1 41 969)" d="m402 595 47-28h147v120l70-26c4-1 8-2 12-4 2-6 1-10-2-11l-31-20v-59h130l30 34 41-32c8-4 11-7 11-11 4-2-3-11-23-26v-68l4-51c1-10-5-17-16-23-10-7-21-10-33-10v37H645v-88h166l27 31 43-35c8-4 12-8 12-13 0-1-9-8-26-22v-70l6-53c-1-8-8-16-21-21-13-7-23-10-32-10v43H645V94l3-59c1-9-6-17-21-25-14-6-25-9-33-10l2 100v79H418v-16c0-8-6-16-18-21-11-7-23-10-35-10l6 76v148l49-27h176v88H447v-14c0-6-4-11-13-17-10-7-22-10-36-10l4 72v147m45-153h149v100H447V442m198 100V442h144v100H645M418 204h178v100H418V204m227 100V204h175v100H645m33 437c64-16 111-31 140-45 28-13 47-27 59-41 10-12 14-25 12-39-4-12-11-19-22-21-10-2-21 6-35 23-12 17-29 34-51 51-22 18-58 37-109 59l6 13m150 74 26 32 50-35c11-8 15-15 14-20 0-4-4-7-12-8-21-2-39-12-56-29l-41-41-14 8 39 70H422c-1-25-2-44-4-55s-8-22-18-33c-7-12-17-18-29-19-12-2-21 2-27 11-5 10-2 21 8 33 9 11 18 23 27 38 6 13 12 41 17 86h20l2-38h410M537 925l6 13c43-13 72-25 86-35 13-7 22-17 27-29 4-10 4-20 0-29-4-8-10-14-17-18-8-4-16-4-24 2-6 5-10 14-13 25s-8 21-16 32c-8 9-24 22-49 39m-27-176c40-22 61-35 62-39 0-4-2-7-6-8s-11-2-21-4c-9 0-28-13-57-37-27-23-76-57-146-103l-8 13c70 61 129 121 176 178M102 601h142l31 41 39-38c13-9 17-17 14-23-2-4-4-6-8-6H205V425h68l36 45 50-51c6-8 4-14-5-20H205V161l133 98 12-14c-69-61-112-101-129-121-17-18-32-40-45-67l-53 43c12 7 23 19 35 36v263H82c-20 0-39-2-57-7L8 425h150v150h-15l-24-6-17 32m121 298c4-2 7-3 7-5 2-6 0-11-7-14-16-5-28-14-35-27-12-30-24-61-36-92h98l33 39 51-51c1-2 2-4 2-6 0-6-2-8-6-8H143c-19-48-38-93-57-134-18-41-41-85-70-131l-16 6c27 60 53 124 76 191 24 66 50 155 80 268l67-36Z"/></symbol><symbol id="镪_G" viewBox="0 0 1000 1000" data-size="21"><path transform="matrix(1 0 0 -1 21 955)" d="M650 653h170v160H650V653m-33-158h90v115l72-29c6-1 8-3 8-4 2-3 1-6-2-10l-31-15v-57h84l29 35 57-41 4-8c0-3-10-10-30-21V343l4-55c1-8-4-16-15-23-10-8-22-13-35-14v39h-98V108l129 8c-18 31-39 61-65 88l10 12c35-26 63-51 84-74 20-22 33-41 39-58 5-16 8-29 8-41-1-10-4-19-10-25-4-7-11-10-23-8-12 0-18 8-20 25 0 16-6 37-15 65-176-21-274-34-293-39-18-4-35-12-53-22l-35 59 197 8v184h-92v-23c0-7-4-13-11-20-8-6-21-10-38-10l4 96v197l47-35m-2-182h92v159h-92V313m139 159V313h98v159h-98M305 835h168l21 27 53-31c5-3 8-6 8-10s-9-12-26-25V677l4-82c0-9-6-16-17-22-12-6-23-10-32-10v41h-88l-11-185h72l25 35 55-39c2-1 3-4 4-10-1-4-10-11-27-23-10-115-19-192-26-233-6-40-15-71-27-92s-38-40-78-57c-8 21-18 36-31 43-13 8-36 18-69 29l6 16c29-8 55-13 78-16 22-2 39 1 51 10 12 10 21 36 27 79 6 45 13 123 22 235h-78l-22-30-47 33c9 8 17 19 22 34l13 226 41-31h88v182H357c-13 0-24-3-33-8l-19 33m300 37 57-35h143l29 35 49-37c4-3 6-5 6-8 0-4-8-12-24-25V698l4-68c0-10-6-18-17-24-11-5-21-9-32-11v35H650v-12c2-10-2-18-13-25-12-8-24-12-35-12l3 78v213M98 591h142l30 41 39-37c12-10 17-18 13-24-2-4-4-6-8-6H199V401h51l25 34 39-39c6-8 4-15-5-20H199V144l131 99 12-15c-67-62-108-100-125-116-16-15-30-35-43-61l-55 43c12 10 24 20 35 32v250H76c-20 0-39-3-56-8L2 401h152v164h-15l-24-5-17 31m123 283c4-2 7-4 8-6 1-6-1-10-8-14-16-4-28-13-35-27-12-22-24-49-36-80h92l33 39 51-51c1-2 2-4 2-6 0-5-2-8-6-7H141c-19-49-37-94-57-135-18-41-41-84-68-129l-16 6c25 59 50 122 74 189 24 66 50 151 80 256l67-35Z"/></symbol><symbol id="镫_G" viewBox="0 0 1000 1000" data-size="21"><path transform="matrix(1 0 0 -1 32 942)" d="M623 868h22c9-44 21-88 35-133 39 33 76 71 111 114l45-41c2-2 3-4 4-6 0-3-3-5-10-8-16 4-35-3-59-20-22-16-50-35-85-56 9-33 25-67 46-100 45 39 84 80 118 121l45-43c3-4 3-6 0-8 0-1-4-2-12-3-10 0-22-5-37-14-33-18-67-39-104-65 12-17 31-35 59-54 27-20 49-33 64-39 16-6 39-12 71-18v-17c-17 1-32 1-45-2-15-3-28-12-39-28-38 24-73 54-108 92-36 37-62 82-80 135-18 51-31 115-41 193m-68-27 54-41c5-3 6-7 2-10 0-3-4-6-13-10-7-4-16-13-28-29-28-79-63-145-103-197-39-53-82-100-129-141l-8 12c45 54 83 105 115 154 32 47 61 115 88 203H406c-15 0-28-2-39-8l-19 34h181l26 33M365 733c31-22 54-40 69-54 13-14 20-28 21-41 0-13-3-22-8-28-6-6-13-7-23-6-10 0-16 8-18 24-2 15-8 29-15 43-6 14-18 31-36 53l10 9m324-152 47-47c2-2 2-4 2-6 1-6-2-8-9-7H523c-12-1-24-4-37-10l-21 35h193l31 35m53-129 53-33c6-4 9-8 10-12-1-4-10-11-28-23v-74l4-61c0-12-6-21-17-27-12-6-24-9-35-8v23H477v-2c0-9-5-18-14-25-9-6-22-9-39-8l4 76v176l49-35h244l21 33M477 263h252v131H477V263m275-104c-9 0-22-13-39-39-16-25-35-52-55-83h149l35 45 58-55c2-2 4-6 4-11 0-4-4-6-13-6H371c-12 0-34-3-66-10l-20 37h350c31 70 54 127 70 173 42-20 64-33 66-37s2-7-1-8c-4-2-10-4-18-6m-297 29 10 8c36-23 60-43 72-60 12-16 18-32 18-47-1-13-4-23-10-30-6-6-14-10-24-10-8 0-13 4-15 12-2 6-4 19-6 38-1 20-16 50-45 89M90 546h170l31 41 39-37c12-10 17-18 14-24-2-4-5-5-8-5H195V370h67l35 45 51-51c6-8 4-14-6-19H195V104l145 112 14-14C275 133 229 89 213 70s-31-43-47-70l-57 43c12 8 25 21 39 39v263H78c-20 0-39-3-57-8L4 370h144v151h-17l-24-6-17 31m137 305c4-2 7-4 7-6 2-6 0-11-7-14-16-5-28-14-36-27-13-35-26-69-39-100h106l33 39 51-51c1-2 2-4 2-5 0-6-2-9-6-8H143c-19-46-37-86-55-121-18-36-42-75-72-120l-16 6c28 60 54 119 78 178 23 58 51 145 84 262l65-33Z"/></symbol><symbol id="镬_G" viewBox="0 0 1000 1000" data-size="21"><path transform="matrix(1 0 0 -1 25 975)" d="M922 378H455v-18c-3-6-10-13-21-19-10-7-20-10-30-10l4 104v164c-30-43-62-78-95-106l-10 10c37 49 67 94 92 135 24 41 47 87 68 138l58-31c4-3 4-6 0-10 0-2-4-4-13-6-5-1-9-4-14-7-4-3-14-16-31-39h359l32 35 46-41c2-3 4-7 4-10 0-5-2-7-8-8H676v-70h125l27 37 49-47c1-2 2-4 2-8-2-4-5-6-8-6H676v-68h127l31 37 47-47c-1 0 0 0 2-2 2-7 1-11-2-11H676v-73h164l35 39 49-46c1-4 2-8 2-12l-4-4m-467 23h174v73H455v-73m174 96v68H455v-68h174m0 92v70H455v-70h174M500 940l66-25c5-3 6-6 2-10 0-2-7-8-23-19v-45h146v109l75-27c3-2 4-5 2-8 0-2-10-8-30-18v-56h98l33 43 61-53c2-2 3-5 4-8-1-4-6-7-16-8H738v-33c0-9-6-16-17-21-14-4-24-6-30-6v60H545v-15c-2-9-8-16-18-22-4-4-13-6-27-6v43h-78c-18 0-37-2-57-7l-17 33h152v99m80-160 6 10c28-8 50-18 66-29 16-10 26-20 30-30 2-9 1-19-2-29-4-8-11-13-22-14-10 0-17 6-21 18-2 10-7 21-14 33-8 12-22 26-43 41M96 608h162l31 41 39-37c12-9 17-17 14-23-2-4-5-6-8-6H199V438h76l34 41 50-46c6-8 4-15-5-20H199V175l135 99 12-13c-69-59-112-98-127-117-16-19-31-42-47-70l-55 41c13 7 25 19 37 36v262H76c-20 0-39-3-56-8L2 438h152v145h-17l-24-6-17 31m656-300 23 25 57-43c5-8 2-14-10-18-17 0-35-11-52-35-55-49-95-82-122-99 22-13 51-25 86-34 35-8 69-14 102-18 32-3 70-3 113-2V63c-21 0-39-2-53-8-13-7-24-17-31-32-27 4-54 10-82 18s-56 18-84 29c-28 13-56 28-86 45-52-30-104-54-154-72-51-17-115-31-193-43l-4 16c86 22 150 42 193 60 42 18 83 40 125 64-47 37-84 85-111 142h-59c-12-2-21-4-29-6l-20 32h391m-258-26c30-47 70-88 119-123 32 22 76 63 135 123H494M227 905c4-2 7-4 7-6 2-5 0-10-7-13-16-5-28-14-36-28l-39-93h118l33 39 51-51c1-2 1-4 1-6 0-6-1-8-5-8H143c-19-45-37-86-55-121s-42-75-72-119l-16 6c28 59 54 118 78 178 23 58 51 143 84 255l65-33Z"/></symbol><symbol id="镭_G" viewBox="0 0 1000 1000" data-size="21"><path transform="matrix(1 0 0 -1 32 963)" d="M389 864h384l40 47 54-55 2-3c0-8-4-12-12-12H645v-92h201l27 33c41-30 62-47 63-51 0-2-5-5-14-7s-20-7-33-14c-14-6-34-23-61-53l-10 8 34 61H645V585l3-88c0-10-6-19-19-27s-26-12-39-12l4 135v133H408c-2-24-6-43-13-59-8-14-20-23-36-29-14-6-25-4-33 6-8 9-4 21 12 35 16 11 27 25 35 41 6 13 12 37 18 72h15l4-43h184v92H471c-13 0-35-3-67-8l-15 31m21-224h139v-26H410v26m0-96h143v-25H410v25m279 96h139v-26H689v26m0-96h139v-25H689v25m-294-82 52-39h330l30 39 58-43c4-2 6-4 6-6 0-4-10-14-31-29V134l4-87c0-6-5-13-14-22-10-7-22-11-37-13v64H441V37c0-8-4-16-13-23-10-9-22-13-37-14l4 132v330m46-362h151v145H441V100m202 0h150v145H643V100M441 271h151v126H441V271m202 126V271h150v126H643M80 585h172l33 39 53-51c1-2 2-4 2-8 0-3-1-5-4-5H203V409h74l26 43 49-49c2-2 3-4 3-7 0-10-4-14-13-12H203V147l133 116 14-10C250 151 191 81 174 41l-55 49c18 10 31 24 39 44v250H84c-12 0-33-3-64-8L2 409h156v151h-33l-18-8-27 33m149 309c4-2 7-4 7-6 2-5 2-8-2-10-19-7-33-19-43-37-16-33-29-63-39-88h98l31 43 53-53c1-2 2-4 2-6 0-6-2-8-6-8H143c-22-50-43-93-65-128-20-36-42-70-66-102l-12 8c35 66 68 139 98 219 29 79 50 146 64 201l67-33Z"/></symbol><symbol id="镮_G" viewBox="0 0 1000 1000" data-size="21"><path transform="matrix(1 0 0 -1 34 963)" d="m420 536 53-31h287l25 29 45-33c8-4 12-8 12-14-1-2-10-9-28-21v-69l4-46c0-7-5-13-15-20-8-6-20-10-35-12v28H637c19-43 45-90 78-141 45 39 82 76 111 111l49-41c2-5 1-9-2-11-2-1-8-2-18-2-8 0-19-4-33-12s-46-29-95-61c19-26 41-47 64-62 21-12 41-23 61-30 18-8 45-13 80-16V64c-32 0-52-3-61-9-10-6-20-14-31-26-30 18-61 41-92 71-29 28-55 62-76 100-20 37-41 88-63 153-18-32-50-73-97-122V92l125 69 9-17c-51-36-87-63-109-81-21-16-39-37-53-63l-60 47 41 31v116c-61-52-127-94-199-128l-6 16c74 47 135 93 181 138 45 43 82 85 110 127h-82v-10c0-3-6-9-18-16-10-6-21-9-35-11l4 91v135m49-166h299v109H469V370M330 593h483l35 41 47-47c3-3 5-6 5-10 2-6-2-10-11-10H398c-12 0-28-2-48-7l-20 33m68 320 49-29h342l27 31 45-35c6-5 10-11 12-16 0-4-10-12-29-25v-84l4-76c0-9-6-16-18-22s-23-10-33-10v30H445v-18c0-6-6-12-19-17-12-5-22-8-31-8l3 117v162m47-211h86v156h-86V702m133 0h86v156h-86V702m133 0h86v156h-86V702M96 585h142l32 39 54-51c1-2 2-4 2-8 0-3-2-5-4-5H195V411h73l31 39 55-45c1 0 3-2 3-6 0-7-3-11-11-11H195V151l121 96 12-14c-74-69-118-113-131-131-13-20-27-41-41-63l-52 53c16 9 31 23 44 42v254H59c-14 0-28-3-43-8L0 411h148v149h-21l-14-2-17 27m138 305c6-2 8-4 8-6 2-6 0-10-8-12-14-4-24-14-31-27-14-30-29-67-47-110h106l29 43 55-52c0-2 1-4 2-6 0-6-3-9-8-8H145c-16-35-32-69-47-102-16-34-44-80-84-138L0 483c35 68 70 147 104 237 32 87 55 156 68 207l62-37Z"/></symbol><symbol id="镯_G" viewBox="0 0 1000 1000" data-size="21"><path transform="matrix(1 0 0 -1 51 963)" d="m379 901 53-35h357l27 37 57-37c4-4 6-6 6-8 0-4-10-11-29-23v-88l4-64c1-8-3-16-14-24s-23-12-37-12v38H426v-18c0-10-5-18-14-23-10-6-22-9-37-8l4 92v173m47-193h95v133h-95V708m142 0h94v133h-94V708m141 0h94v133h-94V708M461 458h98v98l60-20c5-1 8-2 8-4 2-3 1-6-2-10l-21-11v-53h89l26 31 49-33c2-4 3-6 3-8 0-3-8-10-25-21v-63l4-54c1-8-5-15-16-20-9-5-20-8-33-10v32h-97V196l107 6c-16 21-33 39-53 55l10 10c27-14 49-26 64-38 15-11 28-23 38-35 9-12 14-23 15-33 2-10 0-19-6-27-4-8-11-12-23-12-10 0-16 7-20 22-3 13-8 27-15 43-179-20-278-32-297-38-20-5-38-13-55-23l-31 55 221 11v120H459v-6c1-6-3-12-10-18-8-6-20-10-37-12l4 78v125l45-21m-2-123h100v100H459V335m145 100V335h97v100h-97m-77 207c6-2 9-5 10-8 0-6-4-10-14-12-15-6-26-16-33-31h317l31 37 53-39c4-4 7-8 7-12s-11-14-33-27V216c2-54 0-92-6-114-4-23-13-43-29-61-14-16-35-30-64-41-4 20-15 34-32 43-17 8-45 20-84 33l4 16c26-5 48-10 69-14 19-2 37-3 54-2 16 1 28 13 36 37 7 23 9 53 5 91v361H473c-17-25-38-54-63-87-25-34-57-71-97-110l-12 8c39 55 73 107 103 158s51 95 65 133l58-25M90 599h160l31 41 39-37c13-10 17-18 14-24-2-4-5-6-8-6H193V421h49l29 33 36-43c6-4 5-10-2-15H193V149l145 106 12-14c-75-67-121-109-137-127-16-14-31-33-47-57l-53 50c10 6 21 17 33 33v256H86c-20 0-39-3-57-8l-17 33h134v152h-17l-22-6-17 32m135 295c4-2 7-4 7-6 2-6 0-11-7-14-16-5-28-14-36-27-11-26-24-55-37-86h118l33 39 51-51c1-2 1-4 1-6 0-6-1-8-5-8H143c-19-45-37-86-55-121s-42-75-72-119l-16 6c28 59 54 118 78 178 24 58 51 140 82 248l65-33Z"/></symbol><symbol id="镰_G" viewBox="0 0 1000 1000" data-size="21"><path transform="matrix(1 0 0 -1 22 967)" d="M719 784c33-18 51-29 52-33s0-7-3-8c-5-2-10-4-16-6-7-2-13-6-20-11-5-6-21-24-46-53h128l30 41 56-47c2-1 4-5 4-10 0-6-4-8-11-8H703v-82h86l22 32 50-32c6-4 8-7 8-11s-10-13-29-28v-72h27l28 39 48-47 2-4c1-7-2-11-9-11h-96v-55l4-61c0-9-6-18-18-25-12-6-23-8-31-8v29h-65c19-44 42-82 69-111s53-51 76-64c23-14 49-23 80-27V94c-17 1-33-1-47-6-13-4-26-11-37-22-29 25-51 45-64 60s-28 36-45 62c-16 27-33 68-53 125h-6V112l4-69c0-12-6-21-18-27-11-9-24-13-37-14l4 112v199h-86V122l4-77c0-10-6-20-19-29-12-9-24-13-35-14l3 114v151c-28-48-60-94-97-139-37-44-84-86-141-128l-8 12c49 51 90 96 123 135 32 41 64 96 98 166h-45c-9 0-18-2-27-7l-20 31h117v98h-58c-16 0-33-3-53-8l-17 31h128v88h-60c-12 0-24-2-33-6l-20 27h113v82h-50c-15 0-34-2-57-7l-16 31h260c26 45 45 82 59 111m-63-217v82h-86v-82h86m-86-21v-90h86v90h-86m133 0v-90h92v90h-92M570 433v-96h86v96h-86m133 0v-96h92v96h-92M473 772l6 12c28-9 50-18 66-27 15-10 26-20 33-29 7-11 8-21 2-32-6-10-14-15-23-15-10-1-17 4-20 15-2 10-9 22-19 35-11 12-26 26-45 41m353 41 33 51 59-56c4-6 6-9 6-8-1-6-4-9-10-8H396V622c0-168-12-294-37-377-24-84-86-166-185-245l-8 12c82 85 134 165 156 241 22 74 31 189 28 346v257l52-43h424M539 923l8 12c31-14 56-26 74-36 16-9 27-20 31-31 5-10 5-21 0-31-6-10-13-14-23-14-11 0-18 4-22 14-2 8-9 19-19 35-10 15-26 32-49 51M80 604h154l34 40 52-51c2-2 2-5 2-8 1-4 0-6-4-6H189V431h59l29 41 51-47c2 0 3-2 4-6 0-8-5-12-14-12H189V202l110 84 10-12c-64-60-102-100-116-119-13-20-26-40-39-61l-49 38c16 14 30 31 41 53v222H70c-11 0-29-2-52-8L0 431h146v148h-33l-13-6-20 31m152 274c5-2 8-4 8-6 1-6-2-10-10-12-15-4-27-13-35-27-16-30-29-56-39-78h102l31 39 49-49c1-2 2-4 2-6 0-6-2-8-6-8H146c-20-37-39-70-56-99-18-29-44-67-78-113L0 530c31 51 63 116 96 194 33 77 58 141 76 191l60-37Z"/></symbol><symbol id="镱_G" viewBox="0 0 1000 1000" data-size="21"><path transform="matrix(1 0 0 -1 32 951)" d="m797 767 35 46 53-52c2-1 3-2 4-4 4-9 1-14-10-16H453c-14 0-36-2-66-8l-16 34h426m-92-34c38-13 58-23 61-29 2-4 0-7-6-8-4 0-12-5-24-13-9-9-27-32-52-69h140l35 49 59-57c2-2 3-5 4-7 0-7-3-10-8-10H438c-22 2-44-1-67-8l-16 33h303l47 119m-230-9 7 11c30-15 51-30 65-43 14-12 21-23 23-33 2-8 0-17-6-25-5-9-13-13-23-12s-16 9-18 22-6 26-13 39c-8 11-20 25-35 41m70 166 8 11c34-14 60-27 78-39 17-11 28-24 33-39 6-15 5-28-2-37s-16-13-27-12c-12 2-20 11-24 28s-10 32-19 45c-10 13-26 27-47 43m258-338 56-37c4-3 6-6 6-8 0-5-10-13-31-26V360l4-78c0-10-6-19-18-27-10-7-21-11-33-14v31H461v-5c0-6-6-12-18-18-10-5-21-7-33-8l4 108v205l53-35h310l26 33M461 300h326v84H461v-84m0 109h326v84H461v-84m332-201 10 12c43-26 75-48 95-67 20-18 32-34 36-49 4-14 3-27-2-38-6-10-15-15-26-13-10 0-17 8-23 23-5 13-11 28-20 48-6 17-29 45-70 84m-275-21V89c0-21 3-34 9-38s18-7 36-10h123c17 0 29 3 35 8 6 4 11 12 15 21s6 22 6 38c0 15 1 41 4 79h18l4-47c0-36 13-59 37-72-10-23-22-40-35-50S740 2 719 0H547c-27 2-47 8-59 18-10 10-15 27-15 50v173l72-25c3-2 6-5 8-8 0-4-1-7-2-8-3 0-14-5-33-13m-120 27h18c-1-57-4-96-10-117s-14-38-25-52c-12-12-24-19-35-20-13 1-21 6-26 16-4 9 0 20 12 33 12 11 23 23 33 36s21 48 33 104m186 41 10 10c30-18 53-36 68-53 15-18 24-32 26-43 0-12-3-22-8-29-6-7-14-9-24-8-8 1-13 8-15 19-2 12-6 26-12 41-5 14-20 35-45 63M90 571h185l32 41 39-37c12-10 17-17 13-23-2-4-4-6-7-6H193V390h88l35 45 51-51c6-8 4-15-6-20H193V136l135 117 14-14c-71-73-114-119-131-138-18-19-35-44-53-76l-54 47c14 9 29 23 44 42v250H82c-20 0-39-2-57-8L8 390h140v156h-17l-24-6-17 31m135 283c4-1 7-3 7-5 2-6 0-11-7-14-16-5-28-14-36-27-11-26-24-55-37-86h129l33 43 55-55c1-2 2-4 2-6 0-6-2-8-6-8H143c-19-45-37-86-55-121s-42-75-72-119l-16 6c28 59 54 118 78 178 24 58 51 140 82 248l65-34Z"/></symbol><symbol id="镲_G" viewBox="0 0 1000 1000" data-size="21"><path transform="matrix(1 0 0 -1 24 970)" d="M90 620h156l31 41 39-37c13-10 17-18 14-23-2-4-4-6-8-6H191V433h73l31 39 47-45c6-8 4-15-6-20H191V169l149 92 12-14c-77-57-124-92-143-107-18-16-36-37-55-64l-49 46c18 10 32 23 41 39v246H74c-20 0-39-2-56-8L0 433h146v162h-15l-24-6-17 31m437 121c6-2 8-4 4-8 0-4-4-6-13-7-9 0-22-16-39-47h91l24 23 43-37c6-5 5-10-2-16-4-3-10-6-18-9-6-4-15-21-27-51-13-29-31-65-57-106-25-41-60-80-105-117-43-36-90-66-141-92l-6 12c47 35 89 69 127 104 37 35 67 71 90 109 22 36 46 89 74 156H459c-38-56-81-109-131-158l-8 10c29 41 55 79 78 115 22 35 47 85 75 150l54-31m127 4c12-31 20-53 24-64h146l22 19 49-41c5-7 5-12-2-15-25-6-45-19-63-40-18-20-41-44-68-74 15-19 31-35 47-47 15-10 33-21 52-33s49-21 90-27v-18c-24 0-41-2-51-6-9-2-20-9-33-23-25 16-49 35-74 59-23 23-49 54-76 93-26 39-53 110-82 211l19 6m170-88H688c12-39 32-78 60-115l76 115M709 456l47-45c1 0 2-2 2-6 0-6-3-8-10-8H563c-13 0-27-3-43-9l-18 37h180l27 31m127 361 33 36 47-41c10-7 15-13 16-20 0-3-4-5-12-8-22 0-39-8-53-21-21-19-40-35-54-51l-14 8 41 72H422c-2-29-7-51-14-66-8-16-17-26-29-32-12-4-22-5-29-2-7 4-10 10-10 20-1 10 4 19 14 29 9 10 18 22 27 35 8 12 14 41 17 86h20l2-45h416M549 929l8 11c37-13 62-25 76-35 13-9 21-19 25-29s4-21 0-31c-2-10-8-17-17-20-10-3-18-1-24 6-6 6-11 15-13 27s-7 23-16 34c-9 9-22 21-39 37M434 610l7 10c28-8 49-18 61-31 12-12 16-24 12-35-3-10-8-16-16-18-6-1-12 2-16 8-3 4-8 13-13 27-6 12-18 25-35 39m-53-70 8 10c22-11 39-23 50-37 12-15 16-28 12-39-2-10-8-16-15-18-7-1-12 2-16 8-4 4-9 14-14 29-4 16-12 31-25 47m19-221h368l29 37 51-46c4-2 6-5 6-8 0-7-4-10-12-10H645V92c1-31-4-54-18-69-14-13-31-21-51-23-4 23-15 38-33 45-18 8-45 18-80 27l6 18c73-14 113-20 119-18s9 15 8 37v183H459c-14 0-27-3-39-8l-20 35m20-187c-38-34-87-71-149-112l-9 15c68 55 134 125 197 208 37-27 57-43 59-47 0-4-1-6-2-8-2-2-9-3-20-3-12 0-37-18-76-53m287 101c48-16 89-35 125-56 35-21 57-38 66-51 8-12 13-22 16-32 0-9-1-18-2-26-2-7-6-13-12-19-5-4-13-4-23 0-9 4-16 14-22 29-5 16-19 34-41 56-20 23-57 53-113 88l6 11M229 903c4-2 7-4 7-6 2-5 0-10-7-13-16-5-28-14-36-28-11-22-24-48-37-80h94l33 39 51-50c1-2 2-4 2-6 0-6-2-9-6-8H146c-18-46-36-86-54-121s-42-75-72-119l-16 6c28 59 54 118 78 177 23 58 51 139 82 243l65-34Z"/></symbol><symbol id="镳_G" viewBox="0 0 1000 1000" data-size="21"><path transform="matrix(1 0 0 -1 37 967)" d="m826 812 33 42 59-50c1-2 2-5 2-8 1-5-1-7-4-8H713V687h100l25 33 45-37c5-2 8-6 8-12 0-2-8-9-24-20v-52l4-65c0-8-4-15-12-21-7-5-20-9-39-14v35H416c0-51-3-105-8-164-4-58-21-123-49-193-28-69-75-128-142-177l-10 12c56 51 96 111 119 180 24 69 37 136 41 204 4 65 5 154 4 265v188l53-37h402M418 558h103v105H418V558m148 0h100v105H566V558m147 0h107v105H713V558m-47 129v101H566V687h100m-145 0v101H418V687h103m149-161c34-13 57-22 66-27 6-6 6-10-2-14l-19-7V362c41 30 85 69 133 117 32-24 47-39 47-44 0-6-2-9-6-8-3 0-11-2-26-6-13-3-32-12-56-27-24-14-55-32-92-53v-43c0-20 4-31 12-33 7-2 15-3 23-2h63l21 2c16 4 25 11 29 21 4 11 8 46 12 104h16c2-48 5-77 11-86 4-8 12-16 24-24-4-13-12-25-24-35-9-8-23-14-41-17l-31-4h-82c-19-1-35 0-47 4-10 3-17 10-23 21-5 10-7 27-8 51v226m-182-4 61-15c4-2 7-4 8-6 2-4-7-10-26-18v-84h47l26 34 42-45c2-2 4-4 4-6 0-6-2-9-4-8H531v-94l110 47 7-14c-32-18-61-34-85-48-26-15-46-32-61-51l-47 43c18 9 29 21 33 37v228M94 606h152l31 41 39-37c13-9 17-17 14-23-2-4-4-6-8-6H197V425h63l29 39 47-45c6-8 4-14-6-20H197V175l106 94 13-14c-50-53-84-89-99-108-16-17-31-40-47-69l-55 40c13 9 25 21 37 37v244H74c-20 0-39-2-56-7L0 425h152v156h-17l-24-6-17 31m463 317 7 12c43-15 71-27 84-38 13-9 22-19 26-29s4-19 0-29c-2-10-8-16-18-20-10-3-17-1-23 6-7 6-11 15-14 28-1 11-6 22-15 33-8 9-24 21-47 37M453 188h18c0-39-3-70-10-94-6-24-14-43-25-57-10-14-22-21-36-23-12-3-21-2-27 4-6 5-8 12-6 21 1 10 8 18 20 25 9 7 21 19 35 38 11 16 21 45 31 86m318-7 10 11c48-27 81-50 98-70 16-16 23-33 23-52 0-15-4-26-11-33-9-6-17-7-26-4-8 4-13 15-17 31-3 18-10 36-22 54s-30 39-55 63m-234-2 12 8c27-36 45-62 53-80 7-19 11-35 11-46 0-13-5-23-13-32-8-8-17-9-28-6s-16 14-13 34c2 18 3 36 2 54-2 16-10 38-24 68m113 4 12 7c37-33 59-57 68-72 10-14 15-28 16-42 0-12-4-23-12-33-7-8-16-11-25-8-10 4-16 14-16 29 0 16-2 32-5 49-5 15-17 38-38 70M229 897c4-1 7-3 7-5 2-6 0-11-7-14-16-5-28-14-36-27-11-26-24-55-37-86h94l33 39 51-51c1-2 2-4 2-6 0-6-2-8-6-8H146c-18-45-36-86-54-121s-42-75-72-119l-16 6c28 59 54 118 78 178 23 58 51 140 82 248l65-34Z"/></symbol><symbol id="镴_G" viewBox="0 0 1000 1000" data-size="21"><path transform="matrix(1 0 0 -1 30 976)" d="m373 703 53-27h361l26 25 41-33c7-2 11-6 11-11 0-2-8-8-21-18V516l4-51c0-8-5-14-16-19-10-6-21-10-35-12v27H420v-4c0-4-6-9-18-13-11-4-22-6-33-6l4 72v193m47-216h377v164H420V487m-61 326c32 45 60 90 86 135l65-32c2-6 0-9-6-11l-24-6c-5-3-15-9-29-20-12-10-33-31-62-64 39-24 64-41 76-51 12-9 19-20 23-33 5-12 4-22-4-30-5-8-13-11-23-9-9 0-15 7-20 21-3 14-10 27-19 39-9 13-29 33-63 61m340 8c39 41 71 83 96 125l60-32c3-5 2-9-3-11-10-2-17-4-22-6s-16-8-33-18c-16-10-38-29-67-56 28-13 51-25 69-38 19-11 29-24 31-37 3-11 1-20-4-27-6-6-13-9-23-8-9 2-15 9-20 22-4 12-12 24-25 37-12 13-31 29-59 49M453 278l6 7c27-7 48-17 62-29 15-10 25-20 28-31 4-10 3-20-2-27-4-10-11-13-20-12-7 0-12 5-15 15s-7 20-14 30c-5 10-19 25-45 47m186-18 4 8c29-8 52-16 68-25 16-8 25-18 29-30 4-10 3-19-2-27-4-9-11-13-19-12-8 0-14 5-18 16-2 9-6 18-13 27-6 7-23 22-49 43m-34 330c35 20 61 37 79 53l60-25c3-4 1-8-4-12-12 0-21-1-27-2-7-3-14-6-22-10-8-3-21-10-39-21 20-6 37-13 51-20 14-5 24-12 29-21 6-8 8-16 6-24-2-6-6-10-11-12-7-2-13 0-20 4-6 4-16 10-27 18-11 6-34 17-69 35-45-21-95-40-150-57l-8 12c48 21 88 41 119 61-28 13-68 28-121 45l4 17c54-13 104-27 150-41M381 424l58-17c4-1 6-4 6-8s-6-10-19-18V91l94 56 9-14c-26-20-50-40-74-59-23-19-41-40-53-63l-54 43c21 10 32 22 33 35v335m381 10 60-24c10-3 14-7 12-11-2-3-12-8-31-16v-76c4-72 11-123 23-152 10-28 20-48 29-60 10-10 17-14 22-12 4 2 8 11 12 26 3 13 9 49 19 106l20-2c-6-66-10-108-12-128 0-19 2-33 6-43 4-7 9-15 14-21 4-6 5-11 2-16-4-4-11-5-20-4-8 0-22 6-39 18-18 12-35 26-51 43-15 18-29 44-41 79-12 33-20 92-25 178v115m-190 14 63-20c4-1 7-3 8-8-1-4-10-10-28-17V89l92 50 8-13c-22-17-45-35-69-52-21-17-41-38-58-63l-47 39c20 12 31 24 31 37v361m-117-53 4 8c29-8 52-17 68-26 16-8 26-17 30-29 4-10 3-20-2-27-5-9-11-13-20-12-8 0-14 5-17 16-2 9-7 18-14 27-6 7-22 21-49 43m188-10 3 8c30-8 53-16 69-25 15-8 25-18 29-30 4-10 3-19-2-27-4-9-11-13-19-12-8 0-14 5-18 16-2 9-6 18-14 27-5 7-22 22-48 43M533 819c31 45 60 90 86 134l61-31c2-6 0-10-6-12-9-1-16-3-22-5-4-3-13-9-27-20-12-10-33-31-62-64 39-24 64-41 76-51 11-9 19-20 23-33 5-12 3-22-4-30-6-8-13-11-23-9-9 0-15 7-20 21-4 14-10 27-19 39-9 13-30 33-63 61M96 596h142l32 39 54-51c1-2 2-4 2-8 0-3-2-5-4-5H193V422h75l31 39 55-45c1 0 3-2 3-6 0-7-3-11-11-11H193V162l123 96 12-14c-74-69-118-112-131-131-13-20-27-41-41-63l-52 51c16 9 31 23 44 42v256H59c-14 0-28-3-43-8L0 422h148v149h-21l-14-2-17 27m138 305c6-2 8-4 8-6 2-6 0-10-8-12-14-4-24-14-31-27-14-30-29-67-47-110h106l29 43 55-52c0-2 1-4 2-6 0-6-3-9-8-8H145c-16-35-32-69-47-102-16-33-44-80-84-138L0 494c35 68 70 147 104 237 32 87 55 156 68 207l62-37Z"/></symbol><symbol id="镵_G" viewBox="0 0 1000 1000" data-size="21"><path transform="matrix(1 0 0 -1 31 980)" d="M559 476c5-4 7-8 5-12-2-2-5-4-9-6-4 0-9-1-14-2s-15-10-31-27h152l29 27 57-45c3-6 1-10-4-12-4 0-14-2-29-3-14-1-40-18-78-51h138l32 33 45-31c7-4 11-9 11-14 0-4-9-10-29-20v-56l4-31c2-14-3-24-14-30-10-6-21-9-35-11v37H680V92c0-14 3-24 9-29 6-6 19-8 40-8h93c20 0 33 2 39 8 6 5 10 13 14 23 2 10 4 25 6 45 1 19 2 39 4 61h17c2-22 4-45 6-69 2-25 12-41 30-47-5-15-12-27-22-35-10-9-21-16-33-20-12-3-26-5-41-5H711c-20 0-35 2-47 5-10 5-18 12-23 22s-8 25-8 45v134h-18c-17-55-53-101-107-138-53-35-121-63-205-84l-6 18c76 28 137 58 182 91 44 32 74 70 89 113H441v-18c1-8-4-14-15-19-12-6-24-10-35-12l4 74v80c-23-15-45-32-69-49l-8 12c30 29 60 61 92 94 31 30 61 68 90 113l59-21M441 245h131c5 16 8 41 8 76H441v-76m186 76c0-27-2-52-6-76h168v76H627m-18 24 47 60H488c-23-19-43-36-58-51l9-9h170m12 324c37-8 61-14 70-20 4-5 2-10-5-13l-18-6v-39c43 12 93 32 150 60 32-23 47-37 45-43 0-5-2-8-6-7-2-1-11 0-25 2-14 0-35-3-62-8-28-6-62-14-102-24v-21c-1-11 6-16 21-16h133c14 0 25 1 33 4 8 2 13 9 16 22 4 11 8 41 12 91h15c2-45 6-72 10-82 4-8 13-15 28-19-4-13-11-24-20-33-8-8-18-14-29-18-10-3-26-4-47-4H701c-19-1-36 1-49 4-12 4-20 10-25 18-4 9-6 24-6 45v107m-223-10 55-17c16-6 19-12 8-18l-18-10v-11h71l27 31 47-41c6-7 6-13 0-16H443v-51l147 32 6-16c-57-18-99-31-125-41-28-10-50-23-67-41l-41 47c16 7 28 15 35 25v127m172 276c11-7 9-12-4-16-17-1-37-17-58-49h160l29 35 63-43c0-6-2-9-6-11-5 0-14-2-27-6-15-4-38-22-69-53h104l29 31 39-29c8-4 12-9 12-14 0-2-9-8-26-19v-39l4-39c0-8-6-15-15-20-9-6-20-10-34-12v24H471v-6c-15-8-32-12-51-12l4 55v70c-20-19-39-37-59-53l-11 10 78 102c23 32 48 72 76 119l62-25m-99-237h300v71H471v-71m156 94 37 55H488c-11-15-23-28-35-39l14-16h160m74-602 8 10c34-12 58-23 72-33 14-8 22-19 24-31 2-11 0-20-6-29-6-7-14-11-24-9-9 2-15 8-17 19-2 12-7 23-14 32-8 10-22 24-43 41M96 601h142l32 39 54-51c1-2 2-5 2-8 0-4-2-6-4-6H193V427h75l31 39 55-45c1 0 3-2 3-6 0-8-3-12-11-12H193V167l123 96 12-14c-74-69-118-113-131-132s-27-40-41-62l-52 50c16 10 31 24 44 42v256H59c-14 0-28-2-43-7L0 427h148v148h-21l-14-2-17 28m138 304c6-2 8-4 8-6 2-5 0-9-8-11-14-5-24-14-31-28-14-30-29-66-47-109h106l29 43 51-53c0-2 1-4 2-6 0-6-3-8-8-7H145c-16-36-32-69-47-102-16-34-44-80-84-139L0 499c35 68 70 147 104 236 32 88 55 157 68 207l62-37Z"/></symbol><symbol id="镶_G" viewBox="0 0 1000 1000" data-size="21"><path transform="matrix(1 0 0 -1 21 975)" d="M758 554c4-2 5-5 4-8 0-2-2-4-6-6l-18-10v-21h84l35 43 53-51c2-2 3-3 4-2 3-8 2-13-4-14H738v-68h55l29 35 49-45c1 0 3-2 4-8 2-3-1-5-8-5H738v-75h116l33 39 60-46c2-1 4-4 4-8 0-5-4-7-10-8H605c25-41 56-79 92-113 54 35 93 65 119 91 34-23 51-37 53-41 2-2 2-4 0-5-2-3-8-4-19-4s-22-1-34-4c-12-4-46-20-103-51 29-20 55-35 80-44 25-10 53-18 82-23 29-4 57-8 84-10V72c-20 1-37-2-51-8-12-4-25-14-41-29-47 21-86 41-115 59-27 17-55 40-82 67-26 27-55 68-86 125-9-10-34-33-74-70V74l150 64 10-13c-83-47-132-76-149-88-15-10-29-23-41-37l-46 41 31 23v115c-46-43-115-87-209-134l-8 16c78 50 136 91 174 124 36 31 74 68 113 111H391c-13 1-36-3-69-10l-17 33h189v75h-33c-13 0-36-3-68-10l-18 33h119v68h-82c-14 1-37-2-68-9l-18 33h168v66l67-17c3-3 5-6 3-10 0-2-1-4-5-6l-22-10v-23h158v64l63-19M537 319h158v75H537v-75m0 98h158v68H537v-68m303 400 35 51 63-58c1-1 3-2 3-4 1-8-2-12-9-12H416c-14 0-36-3-66-8l-16 31h506m-436-58 41-30h98l18 28 44-29c4-3 6-6 6-8 1-2-6-8-21-18v-41l4-47c2-6-3-13-14-21-10-7-21-10-31-10v21H445v-5c0-5-4-10-13-16-9-5-19-7-32-8l4 59v125m41-133h104v82H445v-82m106 314 8 10c42-16 70-30 84-43 13-11 20-23 21-35 1-11-3-20-10-27-6-6-14-8-25-6s-18 11-22 25c-3 15-9 27-17 37-7 10-20 23-39 39m107-181 41-30h106l17 28 45-29c4-3 6-6 6-8 1-2-6-8-21-18v-56l3-42c1-7-4-15-15-23-10-6-20-8-29-6v29H699v-7c0-4-4-8-11-12-9-5-20-7-34-8l4 74v108m41-133h112v82H699v-82M96 599h170l31 39 55-51s1-2 2-6c-1-5-2-7-4-8H205V415h63l31 43 51-49c2 0 3-2 4-6 0-7-4-11-12-11H205V153l141 100 11-16C252 154 189 92 168 51l-45 45c21 19 33 35 37 48v248H90c-14 0-36-3-67-8L8 415h152v158h-21l-20-4-23 30m84 339 62-37c5-2 8-5 8-7 2-6-2-10-12-12-14-5-25-14-33-28-16-33-29-62-39-87h94l31 46 55-56c0-2 1-4 2-6 0-5-3-7-8-8H156c-20-49-44-97-72-146-26-50-50-90-72-119l-12 7c45 89 82 174 111 254 30 80 52 147 69 199Z"/></symbol></svg>