<svg xmlns="http://www.w3.org/2000/svg"><symbol id="闯_G" viewBox="0 0 1000 1000" data-size="21"><path transform="matrix(1 0 0 -1 98 967)" d="m496 739 53-37c3-2 6-6 8-10 0-4-11-13-34-27l-27-236h57l33 33 49-47c4-5 7-8 8-10 0-4-5-9-14-13-10-1-16-8-20-20l-9-115c-8-64-20-104-36-121-15-16-28-27-39-32-11-6-24-11-39-16-7 19-17 33-29 42-11 8-42 19-92 35l4 18c44-10 75-16 92-18 15-3 31-3 49 0 15 4 25 14 31 29 5 17 10 43 14 78l9 131H289l-27-33-55 47 29 18c13 104 22 169 26 195l62-26c5-3 8-6 8-9 1-2-1-5-4-8-15-5-25-12-29-22l-20-136h170l28 248H213c-14-1-27-4-39-10l-22 37h319l25 35M107 282h295l36 45 54-53c2-2 3-3 4-5 0-8-4-12-12-12H189c-13 0-35-3-66-8l-16 33M4 802l80-33c5-2 7-4 8-6 0-4-1-8-4-12l-33-20V130l4-85c0-9-8-18-24-25C21 12 10 8 0 10l4 118v674m730 90 63-47c4-3 7-6 8-10 0-4-5-9-14-14-14-6-21-17-21-33V102c1-29-4-51-18-67-12-14-32-25-61-35-6 20-15 33-27 41-10 8-37 20-80 33l2 16c38-7 66-11 84-14 16-2 27-1 35 4s12 14 12 27v716H359c-11 0-27-4-46-10l-32 38h424l29 41M78 935c60-30 98-53 113-71 15-17 21-34 20-49-1-16-4-27-10-33s-14-8-25-8c-10 0-16 10-20 28-4 16-10 32-17 49-9 16-32 40-69 72l8 12Z"/></symbol><symbol id="闰_G" viewBox="0 0 1000 1000" data-size="21"><path transform="matrix(1 0 0 -1 100 967)" d="M133 667h404l33 49 61-55c2-2 3-4 4-8 0-7-4-11-12-11H398V464h112l31 47 57-55c2-2 3-4 4-6 2-8-1-12-8-12H398V233h163l37 51 60-56c2-2 3-5 4-8 0-9-4-13-12-14H180c-14 0-36-2-67-6l-15 33h252v205h-98c-14 0-36-2-66-7l-16 33h180v178H209c-10 0-30-3-61-8l-15 33M4 800l84-43v-6c-1-2-2-4-4-6l-31-16V144l4-95c1-8-6-17-22-28C20 12 8 8 0 8l4 139v653m730 82 59-47c5-3 7-6 8-10 0-4-4-8-12-13l-23-18V102c0-26-7-47-22-65-14-17-37-29-70-37-4 21-13 36-26 43-11 8-44 20-99 37l6 16c56-11 93-18 109-20 15 0 27 2 37 6 9 4 14 12 14 25v710H355c-12 0-30-2-54-7l-24 33h426l31 39M66 935c60-26 99-49 116-67 17-17 25-34 25-49 1-15-3-27-10-35-8-6-16-9-25-8-9 0-16 9-22 28-4 16-11 32-21 49-8 15-31 39-70 70l7 12Z"/></symbol><symbol id="闱_G" viewBox="0 0 1000 1000" data-size="21"><path transform="matrix(1 0 0 -1 92 960)" d="M117 659h227v117l86-35c4-2 6-4 6-6 1-4 0-7-4-9l-37-16v-51h146l41 51 59-57c2-2 3-4 4-7 0-8-4-12-12-12H395V526h111l35 47 55-52c2-2 3-5 4-8 0-8-4-12-12-12H395V396h156l29 37 61-41c4-4 7-8 7-12 0-3-12-12-37-27v-45c0-32-4-56-9-73-7-15-16-29-28-41-11-11-28-22-51-33-8 19-21 33-39 43-17 8-37 16-60 24l4 17c22-4 42-8 60-12 17-4 33-4 49 0 15 4 24 27 26 69v68H395V194l3-86c0-20-8-35-25-45-15-11-26-15-33-14l4 122v199H186c-21 0-38-2-51-8l-20 34h229v105H240c-13-1-34-4-60-10l-22 35h186v108H199c-13 0-36-3-66-8l-16 33M4 798l78-43c5-2 8-4 8-6 0-3-1-6-4-10l-31-17V155l4-102c0-10-8-20-24-30-14-7-25-11-35-11l4 137v649m740 82 65-47c5-2 7-6 7-12 0-4-4-8-13-11l-24-20V100c2-26-4-47-19-65-16-17-35-29-59-35-8 18-18 31-31 41-12 8-44 21-96 37l4 20c52-11 85-18 102-20 15 0 27 3 37 8 8 4 13 13 13 26v701H357c-11 0-30-2-54-7l-22 33h432l31 41M74 921c63-24 103-45 121-65 18-18 27-35 28-50 0-17-3-29-10-37-7-9-15-12-25-10-10 1-17 10-22 27-6 17-14 34-23 51-10 17-36 41-77 72l8 12Z"/></symbol><symbol id="闲_G" viewBox="0 0 1000 1000" data-size="21"><path transform="matrix(1 0 0 -1 109 963)" d="m4 798 78-37c4-3 6-6 6-10-1-4-3-7-8-8l-27-12V151l4-100c0-8-7-17-20-28C25 16 13 10 0 8l4 128v662m109-217h237v170c52-20 80-31 84-35 2-3 1-7-2-14l-36-12V581h133l35 49 59-53c2-2 3-6 4-10 0-7-5-11-14-11H396V450c42-17 83-38 124-60 39-24 68-45 87-65 18-19 26-39 24-58-2-18-10-28-24-32-13-2-26 8-37 32-10 21-33 48-68 82-33 30-68 56-106 78V228l4-94c0-9-6-17-19-25-12-9-24-14-35-15l4 128v318c-32-76-67-143-104-199-37-57-86-115-148-176l-14 12c61 76 107 142 139 197 31 55 60 115 88 182H195c-11 0-33-3-64-8l-18 33m604 297 58-47c4-4 6-8 6-12 0-2-4-6-11-11l-20-14V94c0-21-7-39-20-55-12-15-35-28-68-39-6 20-16 35-29 45-14 10-46 22-96 37l4 18c57-13 99-19 127-20 25 2 36 17 33 44v686H336c-12 0-30-3-55-8l-21 33h422l35 43M72 927c46-20 80-39 102-59 19-17 30-36 33-55 2-18-1-31-8-39-6-9-15-13-25-11-10-1-16 8-20 25s-12 36-25 57c-12 21-33 45-65 70l8 12Z"/></symbol><symbol id="闳_G" viewBox="0 0 1000 1000" data-size="21"><path transform="matrix(1 0 0 -1 98 975)" d="m369 798 80-35c2-4 2-7 2-8 1 0 0-2-4-6-12-2-23-6-33-14-9-7-26-43-51-105h223l37 45 59-55c2-1 3-2 4-4 0-8-3-12-10-12H352c-32-69-67-134-106-197-40-63-92-127-156-191l-12 12c49 62 91 125 127 187 35 62 66 125 94 189H191c-14 0-37-2-68-7l-18 33h204c15 35 35 91 60 168m127-289c6-5 5-9-2-14-10 0-19-2-27-8-8-4-24-29-47-74-24-44-63-103-117-180l254 28c-11 25-37 64-78 115l11 10c37-26 67-51 88-76s35-48 43-69c8-19 8-36 0-49-6-12-16-17-27-15-13 0-20 8-22 23-2 14-4 28-8 41-65-10-125-21-179-31-55-10-92-23-112-41l-39 57c18 5 34 13 47 23 39 68 71 126 94 174 21 47 39 89 53 127l68-41M4 796l76-33c5-2 8-4 8-6 2-3 1-6-2-10l-31-18V149l4-102c0-10-8-19-24-27C21 11 10 7 0 6l4 138v652m736 119 57-49c5-2 8-6 8-12 0-3-11-12-34-27V96c3-26-2-47-15-61-14-12-33-23-59-35-7 18-18 31-33 41-16 8-46 19-90 31l4 20c49-10 82-15 98-16 15 0 27 3 35 10 8 6 12 16 12 31v728H352c-12 0-30-3-55-8l-22 33h430l35 45M64 950c58-25 96-47 114-66 15-18 24-34 27-49 1-16-3-27-10-35-6-9-13-12-23-10-10 1-18 10-24 27-5 15-13 32-23 49-9 15-32 39-68 72l7 12Z"/></symbol><symbol id="间_G" viewBox="0 0 1000 1000" data-size="21"><path transform="matrix(1 0 0 -1 100 971)" d="m215 687 56-43h208l31 39 53-45c3-4 5-7 5-8 0-5-9-15-29-31V319l4-82c-1-11-6-21-16-29-8-8-21-12-39-14v65H264v-33c0-15-6-26-18-34-12-6-23-9-35-9l4 121v383m49-403h224v160H264V284m0 186h224v148H264V470M4 810l76-36c5-2 8-3 8-5 2-4 2-8 0-12l-33-14V159l4-98c-1-13-8-23-20-32-10-6-23-11-39-13l4 141v653m730 66 59-45c5-3 8-6 8-10s-4-8-12-13l-23-16V102c2-26-5-47-20-65-14-15-37-27-68-37-6 20-16 34-30 43-12 8-44 20-97 37l4 16c56-11 93-17 109-20 15-2 27 0 37 6s15 14 16 25v705H346c-12 0-28-3-49-8l-22 33h426l33 39M72 942c58-32 96-57 114-74 16-17 24-34 25-51 1-15-3-27-10-35-6-6-13-9-23-8-9 0-17 10-22 28-5 16-12 32-21 49-10 15-33 42-71 80l8 11Z"/></symbol><symbol id="间_H" viewBox="0 0 1000 1000" data-size="21"><path transform="matrix(1 0 0 -1 98 952)" d="M0 797c33-5 61-12 82-22 7-4 11-9 11-15 0-7-3-11-9-13-10-6-21-10-32-11V91c0-17 0-29 2-35V22C54 7 44 0 24 0 9 0 2 9 2 27c0 8 1 17 3 30 1 13 1 25 1 34v628c0 35-2 61-6 78m111 106c20-13 38-27 54-40s30-24 41-35c10-12 18-22 22-32 3-7 5-15 5-24 0-13-1-22-4-29-6-8-13-12-20-12-5 0-10 2-14 5s-8 10-10 22c-5 16-11 31-20 46-8 15-18 29-29 42-9 14-23 29-41 44l16 13m199-52c26-6 63-9 113-9h288l33 41c25-15 43-29 54-42 4-5 6-9 6-13 0-5-13-15-38-31V90c0-23-5-40-15-51-9-10-21-18-36-24-15-8-28-11-38-11-2 15-7 26-15 34-10 10-20 16-30 19-19 8-41 13-65 14v25c45-10 84-15 120-15 14 0 23 2 27 5 4 4 6 13 6 26v703H423c-53 0-84-2-95-8l-18 44M207 646l61-30h234l34 32c33-23 50-39 50-47s-10-17-30-26V268c0-15 0-25 1-30 0-5 1-10 1-16 0-13-11-22-34-26-9 0-14 3-14 9v47H256v-47c0-6-4-11-12-15-10-3-19-5-25-5-8 0-12 4-12 13 0 3 0 7 1 13 1 16 1 29 1 41v326c0 32-1 54-2 68m49-366h254v144H256V280m0 172h254v136H256V452Z"/></symbol><symbol id="闵_G" viewBox="0 0 1000 1000" data-size="21"><path transform="matrix(1 0 0 -1 103 962)" d="m4 802 78-43c5-2 8-4 8-6 0-3-1-6-4-10l-31-17V157l4-102c0-10-8-20-24-30-14-6-25-10-35-11l4 137v651m719 66 64-47c5-2 8-6 8-11 0-4-5-8-14-12l-23-20V102c2-26-5-47-20-65-15-17-37-29-66-37-8 18-18 31-31 41-12 8-45 22-100 39l4 20c59-12 97-19 113-22 15 0 28 3 37 8 9 4 13 13 14 26v690H346c-12 0-30-3-55-8l-21 33h421l32 41M59 925c60-24 99-45 117-65 17-17 26-34 27-48 1-16-2-28-10-36-6-8-15-11-25-9-10 1-18 10-23 27-6 15-13 31-22 49-10 15-34 39-72 70l8 12m498-334 37 47 56-55c2-3 4-5 4-8 0-6-4-10-11-10H504c-17-72-44-140-80-203 31-17 58-36 82-54 22-18 42-37 60-59 18-21 26-41 24-59-1-15-8-25-22-29-13-2-26 7-37 27-10 20-27 43-52 71-25 26-49 51-75 72-33-43-72-82-117-117-45-33-104-65-178-96l-4 18c51 27 100 60 147 97 45 37 84 77 117 121-59 43-123 83-191 120l6 15c71-30 138-64 201-103 32 62 54 122 66 179H205c-14 0-32-2-55-7l-15 33h422M299 749l8 12c43-24 73-43 91-59 18-15 28-30 30-45 0-14-3-25-10-33-6-9-14-13-25-12-11 2-19 11-22 28-4 15-10 31-19 48-8 15-26 36-53 61Z"/></symbol><symbol id="闵_T" viewBox="0 0 1000 1000" data-size="21"><path transform="matrix(1 0 0 -1 70 962)" d="M51 404V40c5-27-2-40-20-40-5 0-12 2-21 5C3 10 0 17 0 26c0 11 1 26 2 45 4 15 6 46 6 94v568c0 26-3 49-8 68 36-11 61-19 75-23 15-4 21-11 21-21-1-10-16-18-45-24V404m312 301c19-14 32-25 42-35 9-9 17-18 24-26 6-9 13-19 20-32s2-27-14-42h155l43 49c21-17 41-35 59-52 5-3 8-6 9-10 1-3 2-7 1-10s-6-5-15-5H564c-24-73-53-133-85-182 27-20 52-41 76-62 23-22 41-39 54-52 13-14 21-25 25-34 5-9 6-19 5-30-2-11-8-18-18-23-11-4-20-2-27 6-7 9-18 23-33 44-15 22-32 41-49 59-17 17-36 37-57 60-16-21-31-38-46-52-72-65-162-111-269-139l-8 17c119 45 206 97 262 159 10 13 20 26 30 41-26 22-49 42-71 58s-55 37-99 65l11 11c62-29 101-49 117-58 16-10 38-25 64-44 26 43 48 96 67 157H233c-29 0-52-2-70-5l-19 45c28-8 66-13 113-13h156c-4 9-8 21-12 36-3 15-8 30-16 43s-19 29-34 46l12 10m461 84V90c0-23-5-40-14-51-8-11-19-19-34-25-13-7-24-10-34-10 0 15-2 26-8 32-5 8-15 15-29 21-16 7-33 11-53 13v24c36-11 69-16 98-16 12 0 21 2 25 5s6 12 6 26v696H374l-52-4-19 46c26-7 53-12 81-15h386l31 36c23-10 40-22 52-35 4-5 6-9 6-13 0-6-11-17-35-31M116 925c30-15 53-30 70-46 15-13 27-25 35-37 4-8 7-16 7-26 0-21-8-32-23-32-4 0-9 1-13 3-2 3-6 9-10 19-11 22-21 41-31 54-12 16-28 32-47 48l12 17Z"/></symbol><symbol id="闶_G" viewBox="0 0 1000 1000" data-size="21"><path transform="matrix(1 0 0 -1 100 967)" d="M316 491h104l29 33 55-41c4-2 6-5 6-9-1-4-12-12-33-24V257c0-29 2-46 5-49 5-4 11-6 20-6h64c17 3 28 10 34 20 5 9 9 25 11 47 2 21 3 44 4 68h18c1-31 4-59 8-82 2-22 11-35 25-41-7-16-16-28-27-37-10-9-28-14-53-16h-80c-24-1-42 3-55 12-13 8-20 28-19 62v231H307v-63c-4-75-24-132-61-174-35-39-92-71-170-95l-8 15c65 26 113 58 143 96 30 37 46 93 49 168v117l56-39M61 923l9 12c52-26 89-48 110-67 21-18 33-35 35-51 2-15 0-29-6-41-8-11-18-17-31-17-12 0-20 9-24 27-4 17-11 35-23 55-12 19-35 47-70 82m513-303 43 47 53-53c8-6 11-11 10-15 0-4-5-6-14-6H178c-28 0-50-3-67-8l-15 35h478M295 772l10 12c44-19 75-38 91-55 18-16 28-31 30-44 2-14-1-26-8-38-7-10-16-15-27-13-12 1-20 10-24 27-3 16-8 31-15 45s-26 37-57 66M4 786l78-43c5-2 8-4 8-6s-1-6-4-9l-29-18V146l4-105c0-10-8-19-24-27C21 5 9 1 0 0l4 140v646m723 86 64-47c5-2 8-6 10-12 0-3-5-7-14-11l-23-20V105c2-24-4-45-18-62-14-14-38-29-72-43-10 18-20 32-31 43-10 10-46 25-108 45l4 19c66-13 107-21 123-23 15 0 27 3 37 8 9 4 13 13 14 27v687H352c-12 0-30-3-55-8l-22 33h420l32 41Z"/></symbol><symbol id="闷_G" viewBox="0 0 1000 1000" data-size="21"><path transform="matrix(1 0 0 -1 99 963)" d="m4 790 78-43c5-2 8-4 8-6s-1-6-4-10l-31-17V167l4-104c0-10-8-20-24-30-14-8-25-12-35-12l4 140v629m726 88 65-47c5-2 8-6 8-12 0-4-5-7-14-11l-23-20V102c2-25-3-46-16-63-13-15-38-28-74-39-8 18-18 30-30 37-9 7-42 20-99 39l4 20c60-12 99-19 115-22 15 0 27 3 37 8 9 5 13 14 14 27v703H326c-12 0-30-3-55-8l-21 33h449l31 41M55 927c64-26 105-48 123-67 15-17 24-34 27-48 1-16-3-28-10-36-6-8-13-11-23-9-10 1-18 10-24 27-5 15-13 31-23 49-10 15-36 39-78 72l8 12m138-403h18c0-66-2-109-6-128-4-21-10-40-16-57-5-18-15-33-29-45s-26-16-37-14c-10 2-18 8-21 18s2 21 13 31 22 22 31 35c10 14 18 28 24 41 6 15 14 54 23 119m133 8V296c0-24 5-37 16-41 12-4 26-6 45-6h45c19 2 31 6 37 12 5 5 10 12 13 21 2 9 4 24 6 43 1 20 2 54 2 102h18l10-98c3-34 15-53 37-57-7-18-18-33-34-44-15-10-33-17-54-20h-74c-28-1-54 3-79 10-23 6-35 29-37 70v309l75-30c7-3 11-6 9-9-2-4-4-7-7-8-5-2-14-8-28-18m0 199 10 10c36-20 66-41 90-62 23-22 37-40 43-55 4-15 3-28-2-39-7-12-16-18-28-18-10 0-17 8-21 22s-12 32-23 55c-11 21-34 50-69 87m197-189 12 10c47-51 78-90 92-117 14-26 21-49 23-71 0-20-4-34-13-43-10-8-20-11-30-8-9 2-14 16-15 41-2 23-7 47-14 73-8 24-26 63-55 115Z"/></symbol><symbol id="闸_G" viewBox="0 0 1000 1000" data-size="21"><path transform="matrix(1 0 0 -1 103 965)" d="m188 716 54-37h274l27 35 57-39c2-5 3-8 4-10 0-5-10-14-30-27V411l4-76c0-8-6-16-17-23-11-6-22-10-34-12v47H404V192l4-87c0-7-6-15-19-25-14-10-26-15-35-16l3 132v151H234v-34c0-7-5-15-17-23-11-8-22-12-33-14l4 120v320m46-342h123v127H234V374m170 127V374h123v127H404m-170 27h123v123H234V528m170 123V528h123v123H404M4 786c54-23 82-37 84-41 2-3 1-6-2-10-2-3-14-8-35-15V134l4-95c0-7-7-16-22-25C19 5 8 1 0 0l4 134v652m719 82 64-47c5-2 7-6 8-11 0-4-5-8-14-12l-23-18V107c0-24-5-45-18-62s-36-29-66-37c-8 20-18 34-31 43-12 7-43 18-94 33l4 20c56-12 93-18 109-20 16-1 27 1 35 6 8 4 12 13 12 26v688H320c-12 0-30-3-54-8l-24 35h449l32 37M53 931c58-24 95-43 113-59 17-16 26-31 27-47 2-16 0-28-7-37-6-9-15-13-26-12-10 2-17 11-21 28s-12 33-24 49c-11 15-35 37-70 66l8 12Z"/></symbol><symbol id="闹_G" viewBox="0 0 1000 1000" data-size="21"><path transform="matrix(1 0 0 -1 104 965)" d="M98 624h463l35 49 58-55c2-2 4-4 4-8 0-6-4-9-12-9H396V495h122l27 31 55-35c5-4 7-8 7-12 0-3-9-12-29-27V239c0-17-4-33-14-47-8-13-26-25-54-35-8 23-18 37-31 43s-30 12-51 18l2 15c34-5 56-8 66-9 10-2 19 0 27 5 7 4 10 14 8 28v213H396V169l4-91c0-8-5-17-17-27s-24-15-37-16l4 136v299H217V282l4-72c0-10-7-20-20-29s-25-13-35-12l4 105v256l47-35h133v106H176c-13 0-32-3-57-10l-21 33m185 150 6 12c31-12 56-25 74-39 17-12 28-25 32-37 3-12 3-23-2-35-4-12-12-18-24-18-11 0-18 7-21 22-4 13-10 28-18 45-8 13-23 30-47 50M0 806l78-43c4-2 6-4 6-6-1-3-2-6-4-10l-31-14V47c0-8-6-15-18-22-15-4-26-7-31-7v788m725 76 60-47c5-2 7-6 8-12 0-4-5-8-14-11l-23-20V111c1-24-4-47-16-66s-35-34-68-45c-9 20-20 33-33 41-14 8-45 18-94 31l6 18c53-10 87-16 103-18 15 0 27 2 37 6s14 14 14 29v710H314c-12 0-30-2-54-7l-24 33h457l32 39M66 931c52-28 86-50 102-67 16-16 23-32 23-49 1-15-2-26-9-33-8-6-17-9-26-8-8 2-13 12-17 30-4 17-11 34-22 50-10 18-29 40-58 65l7 12Z"/></symbol><symbol id="闺_G" viewBox="0 0 1000 1000" data-size="21"><path transform="matrix(1 0 0 -1 94 967)" d="M168 649h186v139l72-29c4-3 7-6 8-10l-6-6-24-10v-84h96l33 47 55-52c2-2 3-5 4-8 0-8-4-12-12-12H404V513h157l35 43 50-51c2-2 4-4 4-6 0-8-4-12-11-12H184c-14 0-32-2-55-8l-16 34h241v111H244c-21 0-40-3-55-8l-21 33m2-283h182v110l78-30c4-2 5-6 2-9 0-1-2-2-6-4l-24-14v-53h112l33 43 47-49c2-2 3-4 4-7 0-8-4-12-12-12H402V196h176l33 45 53-53c2-1 3-3 4-5 0-8-4-12-12-12H162c-14 0-32-3-55-8l-15 33h260v145H246c-14 0-32-3-55-8l-21 33M4 829l74-37c4-2 6-4 6-6l-4-8-27-17V157l4-87c0-9-6-18-18-27C29 33 16 27 0 25l4 146v658m744 49 57-45c4-3 7-6 8-10 0-4-4-8-12-13l-24-18V104c1-26-5-47-17-65-13-17-35-30-69-39-2 16-11 28-29 37-16 10-47 24-92 41l2 16c60-14 96-21 108-22 11 0 22 3 33 8 9 5 14 14 14 27v706H367c-12 0-30-2-54-7l-24 35h428l31 37M80 935c56-32 93-56 109-73 17-15 26-32 28-49s-1-29-8-37c-8-6-16-9-25-9-11 0-18 9-22 27s-12 34-21 51c-9 16-32 42-69 78l8 12Z"/></symbol><symbol id="闻_G" viewBox="0 0 1000 1000" data-size="21"><path transform="matrix(1 0 0 -1 100 959)" d="M107 685h456l37 50 62-56c2-2 3-5 4-8 0-8-4-12-12-12H527V296l59 8 33 52 59-46c10-9 10-15 0-20l-151-18v-87l4-87c0-10-6-20-19-30-12-9-24-13-35-13l3 122v92l-343-38c-12 0-22-3-30-9l-17 29 137 14v394h-51c-14 0-32-2-55-8l-14 34m166-414 207 21v100H273V271m0 146h207v113H273V417m0 139h207v103H273V556M4 778l80-35c2-2 4-4 6-8 0-4-2-7-6-9l-31-18V128l4-85c-1-8-8-16-22-23C21 12 10 8 0 8l4 114v656m732 100 59-49c4-4 6-8 6-12 0-2-11-11-31-25V104c0-21-3-41-10-61-8-17-30-31-67-43-7 20-18 35-33 47-15 10-42 21-80 31l2 18c57-12 96-18 117-18 14 1 21 9 22 22v712H355c-11 0-29-3-54-8l-22 33h420l37 41M45 919c46-20 81-39 103-59 21-19 34-37 38-52 2-17-1-29-8-37-7-10-15-14-26-12-9-1-16 8-21 25s-14 35-27 55c-14 19-36 42-69 68l10 12Z"/></symbol><symbol id="闼_G" viewBox="0 0 1000 1000" data-size="21"><path transform="matrix(1 0 0 -1 96 964)" d="m76 917 10 12c53-27 86-48 100-63 13-13 22-28 27-43 2-13 1-26-6-37-8-12-18-17-29-15-12 0-20 9-24 27-3 17-8 33-15 47-7 13-28 37-63 72m76-162c26-15 47-30 63-45 15-16 25-29 31-41s8-23 6-35c-1-11-5-20-14-28-8-5-16-7-25-5s-14 11-16 27c0 15-4 31-9 49-5 15-20 38-45 68l9 10M86 517h98l35 41 54-39c6-5 8-10 8-14 0-1-12-11-37-27V269c29-28 53-45 72-53 18-9 47-15 86-20h174l129 16v-18c-16 0-30-4-43-9-14-4-26-16-37-36H426c-56 6-93 15-113 28s-40 29-59 49c-18 19-32 26-43 21-12-6-22-16-31-31-8-16-20-38-35-67l-53 39c26 22 62 51 107 86v217h-53c-17 0-31-2-41-6l-19 32m428 224c0-2 1-5 2-8 0-1-12-8-36-21V601h81l35 45 58-51c2 0 4-3 6-8 2-8 0-12-8-12H479c0-80-14-145-41-195s-73-96-139-139l-12 16c53 45 89 87 109 127 18 39 30 103 36 191h-71c-13 0-35-2-66-8l-16 34h151v173l84-33m-39-285 7 12c56-30 96-56 120-78 22-22 37-41 43-57 3-16 3-31-2-43-5-13-13-19-26-18-12 0-20 8-25 24s-13 35-26 58c-12 23-43 57-91 102m261 426 65-47c5-2 8-6 8-12 0-4-4-8-12-11l-24-20V105c3-25-2-46-15-64-12-16-36-29-72-41-9 17-19 30-32 39-11 8-45 22-101 41l4 20c60-12 99-19 115-22 15 0 27 3 37 8 8 4 13 14 14 27v702H336c-12 0-30-2-55-7l-21 33h445l31 41M4 819l78-43c5-2 8-4 8-5 0-3-1-6-4-10l-29-18V149l4-100c0-10-8-19-24-28C21 13 9 8 0 8l4 136v675Z"/></symbol><symbol id="闽_G" viewBox="0 0 1000 1000" data-size="21"><path transform="matrix(1 0 0 -1 95 961)" d="M230 620h131v156l73-29c5-1 7-3 7-4 2-3 2-6-2-10l-31-15v-98h119l30 35 56-45c2-4 4-6 4-7 0-4-10-11-29-22V460l4-53c0-10-5-18-16-25-10-8-21-13-35-14v41H408V237l153 8c-24 27-48 51-73 72l8 12c37-18 68-38 94-60 25-22 41-41 49-59 7-18 11-31 9-41 0-10-3-19-9-25-4-6-12-9-24-8-11 0-18 8-19 23-2 16-11 39-26 70-226-25-349-41-369-46-17-5-35-12-53-22l-35 57 248 15v176H229v-43c0-6-4-13-12-19-8-7-20-10-37-10l4 113v205l46-35m-1-187h132v164H229V433m179 164V433h133v164H408M4 794l74-37c5-2 7-4 8-6 3-3 1-7-4-10l-31-17V159l4-104c0-9-7-19-22-28C19 18 8 14 0 14l4 143v637m742 92 57-43c4-3 7-6 8-10 0-4-5-8-14-14l-24-17V102c0-26-6-47-19-65-14-15-35-27-63-37-3 21-14 36-31 43-15 6-49 18-101 35l2 16c59-10 97-16 113-18 14-2 27 0 37 6 9 4 14 12 14 25v714H344c-13 0-31-2-55-8l-23 34h449l31 39M80 923c55-34 91-60 109-78 18-19 27-37 28-55 0-18-3-30-10-37-8-7-16-9-25-8s-15 11-20 31c-4 20-12 37-21 53-11 16-34 43-69 82l8 12Z"/></symbol><symbol id="闾_G" viewBox="0 0 1000 1000" data-size="21"><path transform="matrix(1 0 0 -1 99 956)" d="m70 899 10 12c50-22 84-41 102-57 17-15 27-31 31-46 2-15 1-28-6-39-8-13-18-18-29-16-13 0-21 9-26 27-3 18-8 33-15 47-8 14-30 39-67 72m153-170 56-39h205l28 38 54-40c8-3 12-8 12-13-1-3-10-10-27-22v-76l4-74c0-9-5-16-16-22-10-5-23-9-39-11v37H273v-18c0-8-6-15-19-21-14-7-25-10-35-10l4 100v171m50-195h227v129H273V534m-85-97 56-40h276l29 38 55-39c7-4 11-9 11-14 0-3-10-10-27-22v-99l4-82c0-9-5-16-16-22-10-6-23-10-39-11v50H238v-35c0-8-6-15-19-21-14-7-26-10-35-10l4 115v192m50-213h299v146H238V224m492 664 65-47c5-2 8-6 8-12 0-4-4-8-12-12l-23-19V105c2-24-4-45-18-62-14-15-37-29-70-43-9 17-19 30-32 39-11 10-43 24-93 41l4 20c55-12 91-19 107-22 15 0 27 3 37 8 9 4 13 13 14 26v709H332c-12 0-30-2-55-8l-21 34h443l31 41M4 798l78-43c5-2 8-4 8-6 0-3-1-6-4-10l-29-17V144l4-101c0-10-8-19-24-27C21 7 9 3 0 2l4 136v660Z"/></symbol><symbol id="闿_G" viewBox="0 0 1000 1000" data-size="21"><path transform="matrix(1 0 0 -1 87 970)" d="m4 823 76-27c10-5 13-10 8-16l-33-15V146l4-105c0-10-8-19-24-27C21 5 10 1 0 0l4 140v683m754 84 60-43c6-2 8-6 8-11 1-4-10-15-33-32V104c2-26-2-47-12-65-10-16-31-29-64-37-3 18-13 31-28 39-14 8-46 21-97 37l4 20c49-11 81-18 97-20 15-2 28 0 37 6 9 5 13 14 14 27v730H354c-12 0-30-3-55-8l-22 35h450l31 39M59 940c63-25 105-47 125-66 17-18 26-34 27-49 0-15-4-26-12-33s-16-9-25-8c-10 1-18 10-24 26-5 13-12 29-21 46-10 15-36 40-78 73l8 11m312-148c50-16 77-27 80-31s4-7 2-8c-2-2-14-8-33-18V589h129v137c50-20 76-32 78-36 2-3 1-6-2-9-3-2-12-7-27-14v-61l4-44c0-10-6-18-18-24s-23-10-35-10v35H240l-25-31-55 41c17 13 26 24 26 31v129l74-29c4-3 6-6 6-10 0-3-11-10-32-21v-84h137v203m229-479c0-10-6-19-18-27s-23-14-35-15v50H234V214c0-26 4-41 12-45s19-6 33-6h268c21-1 36 2 45 8 7 4 13 11 19 21 4 10 7 24 10 41 2 16 4 47 6 92h21c2-21 3-47 4-78 2-29 13-51 34-64-8-16-18-30-30-41-11-12-38-20-80-24H268c-31 0-52 6-63 18-10 9-16 29-17 60v188l48-35h311v107H244c-24 1-47-3-68-10l-22 37h389l31 32c41-30 60-46 57-49-2-3-4-7-6-10s-12-10-29-21v-75l4-47Z"/></symbol><symbol id="阀_G" viewBox="0 0 1000 1000" data-size="21"><path transform="matrix(1 0 0 -1 105 960)" d="m4 794 84-35c6-3 8-6 6-10 0-4-1-6-4-8l-35-17V146l4-91c0-11-6-22-18-32C27 16 14 10 0 8l4 139v647m726 100 53-47c4-4 6-8 6-12s-4-9-14-14l-19-13V96c2-26-5-47-22-63-15-15-35-26-60-33-8 20-18 33-29 41s-40 20-86 33l4 14c54-10 89-16 105-18 15 0 25 2 31 6 5 4 7 13 8 26v723H344c-12 0-30-2-55-8l-21 34h423l39 43M88 921c55-33 89-59 103-76 15-17 21-32 20-45-1-14-4-24-10-29-6-7-13-10-23-10-11 0-18 9-22 27-2 16-8 33-17 49-8 16-28 40-61 74l10 10m221-215c5-4 7-6 4-6 0-4-3-8-10-10-16-2-30-10-41-25-18-35-40-77-67-125l47-19c15-5 19-10 14-14 1-4-9-10-27-18V239l5-80c0-10-5-19-17-27-11-9-24-14-39-16l6 127v279c-34-54-71-104-110-148l-11 10c48 74 87 142 115 205 26 60 47 113 62 158l69-41m74-166v211c51-20 77-31 80-33 2-3 3-6 2-10-2-2-14-8-37-18V546l160 23 21 45c39-26 59-40 61-43 1-2 1-5 0-8-2-1-5-3-8-5l-230-36c3-36 6-65 9-85 4-22 11-45 22-71 32 43 58 86 78 129 41-24 62-38 63-43 0-4-2-6-6-8-4 0-11-2-20-6-8-2-19-13-33-31s-35-44-65-78c20-29 39-51 57-64 17-14 31-26 43-36 12-8 20-11 24-7 3 4 6 15 9 35 2 19 6 49 12 92l18-2c0-45-1-76-2-94s0-33 4-43c1-9 5-18 11-27 6-10 9-17 10-20 0-3-2-5-6-8-2-2-10-3-21-2-12 0-26 4-41 12-15 7-37 22-67 45-30 21-58 51-84 88-49-49-105-90-170-123l-6 13c55 40 107 88 157 145-12 27-20 53-26 76-5 21-10 57-15 108l-43-8c-15-6-24-11-28-14l-29 29 96 16m97 193 6 12c27-14 50-26 69-37 17-12 29-25 35-39 4-14 4-25 0-35-5-10-12-15-22-14-9 0-17 6-23 18-4 11-9 23-14 37-4 12-21 31-51 58Z"/></symbol><symbol id="阁_G" viewBox="0 0 1000 1000" data-size="21"><path transform="matrix(1 0 0 -1 92 974)" d="m246 401 53-21h199l25 29 53-33c8-5 12-9 12-14 0-4-10-13-29-29V224l5-67c0-8-4-15-13-23-8-9-22-14-41-17v48H295v-14c1-7-3-16-12-25-8-7-23-11-43-13l4 101v187h2m49-213h215v168H295V188m10 485c13-38 48-80 103-127 37 31 76 73 115 127H305m70 99c6-3 8-7 6-11-2-3-7-5-14-8-6-2-13-7-21-14-9-6-21-20-37-43h207l29 33 57-50c4-4 6-7 5-8 3-4-2-8-15-12s-21-8-26-13c-3-5-15-18-35-40-19-20-49-48-92-85 31-21 63-37 96-49s61-20 84-24c24-4 52-7 86-8v-15c-24-4-42-8-55-12-11-3-22-12-33-27-31 11-66 27-105 49-39 18-73 39-104 60-39-27-84-51-135-74-50-22-112-44-185-67l-6 16c56 22 107 44 154 67 47 21 94 50 143 85-40 45-72 90-96 135-30-43-68-90-115-138l-12 9c35 49 65 95 90 139 24 43 45 87 65 133l64-28M6 813l84-33c6-4 7-9 4-13-4-5-17-11-37-20V130l4-85c1-9-6-18-22-27C24 10 11 5 0 2l6 136v675m742 81 61-47c4-2 7-6 7-12 0-4-4-8-13-12l-22-19V100c2-25-4-46-19-63-15-16-35-29-63-37-8 21-19 36-33 43-13 7-46 18-98 33l2 18c63-12 101-18 116-18 13 0 24 1 33 6 6 4 9 12 10 25v722H355c-12 0-30-3-54-8l-24 33h440l31 40M76 948c58-32 96-56 113-74 17-16 26-33 28-49s-1-28-8-37c-7-8-16-12-27-10-10 2-18 12-24 30-4 17-11 33-19 50-8 15-32 41-71 79l8 11Z"/></symbol><symbol id="阂_G" viewBox="0 0 1000 1000" data-size="21"><path transform="matrix(1 0 0 -1 94 956)" d="M385 587c6-2 8-6 6-12 0 0-3-2-8-4-9 0-17-2-26-8-7-5-23-20-46-42-22-22-47-49-77-83l180 14c29 35 54 70 74 108 47-25 70-39 69-43-2-4-5-7-10-8-4-1-12-3-24-8-10-4-25-18-44-41-20-24-45-53-77-86-31-34-68-66-111-98-44-31-102-64-174-99l-8 13c53 30 103 64 151 104 47 38 94 83 140 137-53-6-93-12-121-18-27-4-52-15-76-31l-35 56c23 6 39 11 47 16s25 28 53 68c27 41 48 73 62 98l55-33m181 62 38 45 54-50c4-2 6-4 6-6 2-8-3-12-14-12H205c-12 0-33-3-62-8l-20 31h443M326 778l8 10c35-19 60-34 74-43 14-10 23-21 28-33 3-11 3-22-2-33-6-11-15-15-28-14-12 2-19 10-21 23-2 14-8 28-18 41-8 14-21 30-41 49m147-500c33-15 64-30 93-43s49-29 61-47c10-16 13-31 10-44-2-15-10-22-24-22-11-1-21 8-29 25s-21 36-39 55c-18 18-47 39-88 63-47-41-98-79-154-114-56-32-112-58-168-77l-4 14c63 30 122 65 178 104 54 39 99 79 136 120 37 39 75 83 112 132 41-30 61-47 60-50-2-5-4-8-8-8s-9-1-17-4c-7-3-14-6-22-10-7-3-20-14-37-33-17-18-38-38-60-61M4 812l80-40c5-1 8-3 8-5 2-3 2-6 0-8l-37-20V147l4-98c-2-9-9-18-20-26C29 16 16 11 0 8l4 143v661m738 70 63-47c5-2 8-6 8-12 0-3-5-6-14-10l-20-15V100c3-25-4-46-21-63-16-17-37-29-65-37-8 20-17 35-27 43-8 8-43 20-105 35l3 18c68-13 108-19 120-20 11 0 21 3 31 8s15 13 15 26v702H359c-11 0-30-3-54-8l-22 33h430l29 45M86 911c62-32 102-56 119-72 18-16 27-30 27-43 0-14-3-24-9-31-7-8-15-11-26-8-9 1-16 10-21 27-5 16-13 31-22 45s-35 37-76 70l8 12Z"/></symbol><symbol id="阃_G" viewBox="0 0 1000 1000" data-size="21"><path transform="matrix(1 0 0 -1 96 963)" d="m55 915 9 12c54-19 90-36 108-51 17-15 27-30 31-45 3-15 1-28-6-39-8-12-17-18-29-16-12 0-20 8-23 26-4 17-11 33-22 49-10 15-33 37-68 64m121-162 54-39h315l35 37 49-39c8-4 12-9 12-14 0-2-10-11-30-25V280l4-109c1-9-4-16-15-22-10-5-23-9-37-11v47H225v-36c0-8-7-15-20-21-13-7-24-10-33-10l4 147v488m49-541h338v475H225V212m11 342h135v127l67-26c5-2 9-4 9-6 1-5-1-9-6-11l-23-10v-74h41l33 39 51-47c2-2 3-4 4-6 0-8-3-12-8-12H418v-68c45-20 74-35 88-47s23-23 27-35c5-10 5-20 2-31-4-11-12-16-21-16-10 0-18 6-24 18-6 13-13 27-23 41-8 13-24 29-49 47v-84l4-71c0-8-7-17-20-25-11-9-23-13-35-14l4 106v103c-43-78-86-135-131-170l-10 10c27 37 51 76 73 115 21 37 40 78 56 121h-56c-13 0-29-2-49-7l-18 33m500 334 65-47c5-2 8-6 8-12 0-4-4-8-12-12l-24-19V102c3-25-2-46-15-63S724 9 695 0c-8 18-19 30-31 37-12 8-41 22-88 41l6 18c51-12 84-19 100-22 15 0 25 3 31 8s9 13 10 26v713H344c-12 0-30-2-55-8l-21 34h437l31 41M4 790l78-43c5-2 8-4 8-6s-1-6-4-10l-29-17V142l4-101c0-10-8-19-24-27C21 5 9 1 0 0l4 136v654Z"/></symbol><symbol id="阄_G" viewBox="0 0 1000 1000" data-size="21"><path transform="matrix(1 0 0 -1 97 969)" d="m72 927 10 11c56-29 92-51 107-66 16-14 25-29 28-45 2-15 0-28-6-39-8-12-18-17-29-16-12 0-20 10-24 28-4 17-10 33-17 49-8 14-30 40-69 78m160-584h122v95H232v-95m168 95v-95h127v95H400m-168 26h122v99H232v-99m168 99v-99h127v99H400m-29 28 68 103H283c-23-29-53-59-88-90s-68-56-99-76l-10 14c49 42 91 86 127 131 35 42 64 86 88 131 41-24 62-37 64-41s-2-7-10-10c-7-3-13-4-17-4s-16-10-37-29h146l26 25c36-31 54-49 54-53 1-4 0-6-4-7-2-1-8-2-19-4-10-2-24-10-43-24-18-13-37-36-59-66h110l29 31 55-35c5-5 8-8 8-10l-6-6c-4-4-11-9-22-17V380l4-72c0-8-6-15-17-22-10-8-22-12-36-14v45H400V208c2-20 20-31 53-33h100c30 1 48 10 54 27 7 17 11 35 14 55 1 17 2 39 2 64h22c0-33 1-61 3-84 2-21 10-36 24-43-5-15-13-29-26-41-11-11-37-18-76-21H441c-30 2-50 9-62 19s-21 26-25 47v119H232v-23c-3-9-10-16-21-22-10-4-21-7-31-7l4 113v213h187M4 808l78-43c5-2 8-4 8-6 0-3-1-6-4-10l-29-18V161l4-100c0-10-8-19-24-28C21 25 9 20 0 20l4 135v653m730 93 65-47c5-1 8-5 8-11 0-4-4-8-12-12l-24-19V104c3-25-2-46-15-63-13-16-34-29-63-41-8 17-19 30-31 39-12 8-43 22-94 41l6 18c55-12 90-19 106-22 15 0 25 3 31 8s9 15 10 31v720H342c-12 0-30-3-55-8l-21 33h437l31 41Z"/></symbol><symbol id="阅_G" viewBox="0 0 1000 1000" data-size="21"><path transform="matrix(1 0 0 -1 98 970)" d="m188 649 50-39h176c24 45 50 106 80 182 46-20 70-31 72-35 2-2 2-5 0-8-2-2-8-5-19-8-10-2-24-14-41-37-16-23-39-55-67-94h84l28 37 60-43c4-2 6-5 6-7 0-4-10-13-29-26v-93l4-59c0-7-5-14-16-22-10-5-22-9-37-11v37h-72V253c0-29 4-47 12-53 7-6 18-8 33-8h66c14 2 24 8 29 16 4 9 8 20 10 33 2 12 4 45 6 100h16c4-48 7-78 9-90s12-23 28-35c-10-27-22-44-37-51-14-6-34-10-59-14h-94c-22 2-39 9-50 22-11 10-16 30-16 62v188h-78c1-80-14-145-45-194-30-46-99-92-207-135l-6 15c100 56 161 108 184 158 21 48 31 100 29 156h-63v-24c1-8-4-17-15-25-12-8-24-12-35-12l4 114v173m46-199h305v135H234V450m-7 324 7 12c39-19 68-38 86-55 18-16 28-32 30-48 0-15-3-26-10-34-6-6-14-9-24-7-7 2-13 9-17 23-3 14-9 29-16 45-6 14-25 35-56 64M4 790l78-35c1-2 1-4 2-6 0-3-2-6-6-10l-25-13V157l4-98c0-8-8-17-24-28C19 23 8 18 0 18l4 139v633m738 119 55-43c4-2 7-6 8-12 0-3-5-7-14-11l-18-16V104c1-25-3-45-11-61-8-15-30-29-67-43-9 22-22 37-39 45-15 8-43 18-84 29l4 20c46-10 78-16 96-18 17 0 30 1 39 6 8 4 12 12 12 25v734H350c-13 0-31-3-55-8l-24 35h434l37 41M66 940c56-25 93-46 110-64s25-34 25-49c1-15-2-28-10-37-5-8-14-12-25-10-12 2-20 12-23 30-4 16-11 33-22 50-10 16-31 39-62 69l7 11Z"/></symbol><symbol id="阆_G" viewBox="0 0 1000 1000" data-size="21"><path transform="matrix(1 0 0 -1 96 955)" d="m61 897 9 12c53-27 86-47 100-62 14-14 23-28 27-43 3-14 1-26-6-37-7-13-17-18-29-16-12 0-19 9-23 27s-9 34-16 47-28 37-62 72m460-201 55-37c8-4 12-8 12-13-1-4-10-12-27-24V507l3-65c2-9-3-19-15-29-13-8-26-12-39-14v24H262V183l150 89 10-15c-54-40-93-70-119-92s-48-45-67-69l-54 48 31 25v531l53-41h226l29 37m-259-62v-78h248v78H262m0-106v-78h248v78H262m52 264c43-14 73-29 88-47 17-16 24-32 20-49-5-16-14-24-27-25-14 0-23 6-26 17-2 12-6 25-14 40-5 13-22 31-48 54l7 10m2-443 6 15c57-15 105-33 145-52 53 37 96 70 129 99l49-43c1-8 1-12-2-12-5-1-11-1-20 0-8 2-22-2-43-9s-51-22-88-45c50-24 85-44 108-61 21-17 35-34 41-49 5-15 5-28 0-39-4-10-12-15-24-15-11 0-20 8-27 23-8 14-22 31-41 51-20 19-46 39-78 60-32 20-84 45-155 77M4 804l78-43c5-2 8-4 8-6 0-3-1-6-4-10l-29-17V146l4-101c0-10-8-20-24-29C21 9 9 5 0 4l4 136v664m734 84 63-47c5-2 8-6 8-12 0-4-4-8-12-12l-22-15V104c2-25-4-46-17-63-14-16-33-30-59-41-8 16-19 29-31 39-11 9-42 22-92 39l6 18c51-11 85-18 102-20 15 0 25 3 31 8s9 15 10 30v707H324c-11 0-30-2-54-8l-22 34h459l31 41Z"/></symbol><symbol id="阇_G" viewBox="0 0 1000 1000" data-size="21"><path transform="matrix(1 0 0 -1 87 973)" d="M191 685h143v123l78-28c6-2 8-6 6-11 0-1-2-2-6-4l-29-12v-68h39l31 43 57-49c1-2 2-5 2-8 0-7-3-10-10-10H383V550h45c64 65 111 130 140 195l69-41c4-6 4-10 0-12-6 0-13-1-20-2-8 0-23-15-47-43-22-28-49-60-80-97h94l35 41 59-51c1-1 2-3 4-4 0-8-3-12-10-12H465c-41-39-79-72-115-99h152l39 37 57-43c2-3 3-5 4-8 0-4-10-12-30-25V165l4-58c0-5-6-13-15-21s-21-13-38-16v56H281v-26c0-9-6-17-19-26-13-8-24-13-33-13l3 98v176c-58-43-110-72-154-88l-6 14c52 31 105 70 160 117v78l53-31c55 41 94 74 117 99H197c-12 0-34-2-66-7l-16 33h219v111h-84c-12 0-25-2-41-8l-18 32m90-534h242v118H281V151m0 143h242v107H316l-35-25v-82M4 829l76-27c10-5 13-10 8-16l-33-15V151l4-104c0-10-8-19-24-27C21 11 10 7 0 6l4 140v683m754 84 60-43c6-2 8-6 8-12 1-4-10-14-33-31V102c2-26-2-47-12-65-10-16-31-29-64-37-3 18-13 31-28 39-14 8-44 20-91 35l4 20c44-10 75-16 91-18 15-2 28 0 37 6 9 5 13 14 14 27v738H330c-12 0-30-3-55-8l-21 35h473l31 39M59 946c63-25 105-47 125-66 17-18 26-34 27-49 0-15-4-26-12-33s-16-9-25-8c-10 1-18 10-24 25-5 14-12 30-21 47-10 15-36 39-78 73l8 11Z"/></symbol><symbol id="阈_G" viewBox="0 0 1000 1000" data-size="21"><path transform="matrix(1 0 0 -1 94 963)" d="m84 915 10 12c52-28 86-50 101-67 14-15 23-31 28-47 2-14-1-28-8-39-8-12-18-17-29-15-12 0-19 9-22 27-4 17-10 34-18 51-7 17-28 43-62 78m68-342 51-33h100l27 31 43-39c5-2 7-6 8-11 0-4-8-10-24-18v-86l4-57c1-7-4-15-15-23-11-9-22-13-33-14v35H197v-23c0-9-4-16-13-22-8-4-20-7-36-9l4 115v154m45-189h116v131H197V384M90 222l306 52 4-19c-101-26-166-43-195-51-28-8-55-21-80-41l-35 59m556 472 59-58c1-2 2-5 2-8 3-4 1-6-6-6H475c2-49 5-92 11-131 6-37 14-76 26-117 34 69 58 132 72 189 45-22 68-35 70-39s0-7-4-9c-4-1-11-4-19-8-9-3-19-18-31-45-12-26-36-70-71-133 14-30 28-53 41-68 14-16 26-28 35-37 10-9 16-11 20-8 4 4 8 13 12 29 2 16 8 51 17 106l20-2c-5-50-7-85-8-104 0-18 1-33 4-45s7-23 14-35c5-12 9-19 9-23s-3-7-7-8c-4-3-18 0-41 8-22 7-47 25-77 54-28 28-50 58-66 92-41-59-108-117-201-176l-10 12c99 80 162 148 189 205-15 40-27 83-35 127-7 44-13 100-17 166H188c-28 1-48-3-61-10l-23 35h320v145l76-37c7-4 7-9 0-14l-29-12v-82h140l35 47m-132 88 6 12c32-12 56-24 72-37 13-14 21-26 23-37 0-11-2-20-8-28-6-6-13-9-21-7-8 1-14 8-18 21-4 11-9 23-17 37-8 12-20 25-37 39M4 796l78-43c5-2 8-4 8-6 0-3-1-6-4-10l-31-17V146l4-101c0-10-8-19-24-27C21 9 10 5 0 4l4 136v656m736 88 65-47c5-2 8-6 8-12 0-4-4-8-12-12l-24-19V104c3-25-2-46-15-63-14-16-33-30-59-41-8 17-19 30-31 39-12 8-43 22-94 41l6 18c51-12 85-19 102-22 15 0 26 3 33 8 6 5 9 15 10 30v703H361c-11 0-30-2-54-7l-22 33h424l31 41Z"/></symbol><symbol id="阉_G" viewBox="0 0 1000 1000" data-size="21"><path transform="matrix(1 0 0 -1 98 960)" d="M713 474c-22-2-37-6-47-12-10-5-18-12-23-22-35 19-64 39-86 61V345l4-63c0-8-5-15-16-21-10-5-20-9-31-10v37H393v-94c1-14 6-22 15-25 8-3 22-4 41-4h125c17 2 28 14 33 35 4 21 8 56 10 104h16c2-30 5-55 8-75 2-19 9-35 23-46-8-21-19-35-33-43-12-8-29-13-53-16H422c-24 0-42 5-55 16-14 9-21 27-21 52v96H227v-19c0-6-6-12-18-18-10-7-20-10-29-10l4 104v154c-34-26-71-51-112-74l-8 13c41 30 81 65 122 106 39 40 70 78 93 113h-95c-14 0-34-2-61-8l-21 32h191c20 39 36 76 49 111 46-20 70-31 72-35s1-8-2-12c-4-2-12-4-23-8-12-3-28-22-47-56h226l32 45 60-49c2-2 3-5 4-8 0-8-4-12-12-12H461c19-38 43-68 72-92 27-24 55-42 84-54 29-13 61-19 96-20v-17M227 313h119v75H227v-75m166 75v-75h121v75H393m-166 23h119v78H227v-78m166 78v-78h121v78H393m-47 24v88l68-22c5 0 8-2 8-6 2-2 1-6-2-10l-27-13v-37h146c-47 46-81 94-101 144H326c-28-43-64-86-109-129l8-15h121M4 815l82-35c1-2 1-4 2-6 0-2-2-5-6-9l-31-18V146l4-99c0-9-7-17-22-26C20 13 9 8 0 8l4 126v681m736 67 57-47c5-2 8-6 8-12 0-4-5-8-14-11l-23-18V100c2-28-5-49-20-65-14-15-35-27-62-35-10 18-21 31-32 39-12 7-41 18-86 33l2 18c54-12 88-18 102-18s25 3 35 8c9 5 14 14 14 27v710H367c-12 0-30-2-54-7l-24 33h420l31 39M84 921c52-27 87-49 104-65 16-16 26-32 27-48 0-16-3-28-8-36-6-8-14-11-23-9-11 1-18 10-22 27-3 15-10 31-21 49-10 17-32 41-65 70l8 12Z"/></symbol><symbol id="阊_G" viewBox="0 0 1000 1000" data-size="21"><path transform="matrix(1 0 0 -1 104 968)" d="m61 925 9 12c54-26 88-45 102-59s23-27 27-41c3-12 1-25-6-37-6-13-15-18-27-16-12 0-20 8-23 26-4 17-10 33-18 46s-29 36-64 69m146-160 53-37h232l33 37 55-41c5-4 7-7 8-8 0-4-10-16-29-35V581l4-59c-1-11-6-21-16-29-8-8-22-12-41-14v38H258v-12c-1-9-7-16-20-22-11-5-23-8-35-7l4 101v188m51-221h248v60H258v-60m0 88h248v68H258v-68m-88-154 59-40h291l31 36 54-45c4-4 6-7 4-8 0-5-8-12-25-22V257l4-84c-1-9-6-17-16-26-8-7-21-12-41-13v47H221v-14c0-14-7-25-20-33-12-7-23-10-35-10l4 127v227m51-270h310v90H221v-90m0 117h310v86H221v-86M4 802l80-43c5-2 8-4 8-6 0-3-1-6-4-10l-31-17V147l4-100c0-10-8-19-24-27C21 11 9 7 0 6l4 136v660m715 101 64-47c5-2 8-5 8-11 1-4-3-8-10-12l-23-20V105c2-25-4-46-18-64-13-16-34-29-60-41-9 18-19 31-32 39-12 10-43 24-91 41l6 18c51-13 85-19 101-20 15 0 26 3 33 8 6 4 9 15 10 31v720H322c-11 0-30-3-54-8l-22 33h442l31 41Z"/></symbol><symbol id="阋_G" viewBox="0 0 1000 1000" data-size="21"><path transform="matrix(1 0 0 -1 97 973)" d="m74 935 10 11c50-31 84-56 102-76 16-17 27-34 31-49 2-14 0-27-6-39-8-13-18-19-29-17-12 0-20 9-24 29-4 18-10 35-19 53-8 17-30 47-65 88m244-217c-9-5-35-18-78-39v-98h45l33 41 49-51c1-2 2-4 2-6 1-5-1-8-4-7H240V450h295v108h-53c-15-1-31-4-46-10l-24 35h123v105h-72c-14 0-28-3-43-9l-24 35h129l30 37 54-43c4-5 6-8 6-10 0-4-10-13-31-25V499l4-86c0-10-7-17-20-23s-24-9-33-8v45h-78V220c-1-16 2-26 8-30 6-3 15-5 29-5h67c21 0 35 5 41 17 3 9 7 24 9 43 3 19 6 53 8 102h18l6-63c1-21 3-37 7-47 3-10 11-19 26-27-6-12-13-22-20-31-5-7-12-15-21-22-8-6-24-10-47-13H461c-20 3-33 11-41 23-7 10-10 25-10 45v215h-68c-5-49-14-93-28-131-13-39-39-76-78-111-37-34-88-61-150-81l-6 15c50 22 91 51 125 87 34 35 56 68 66 100 10 30 18 71 24 121h-55v-22c1-9-5-18-17-25-12-8-24-12-35-12l3 117v250l51-29c29 23 55 46 76 68 37-22 55-35 55-39-1-4-2-6-4-7-2 0-8-1-19-2-12 0-23-3-32-8M4 825l78-43c5-2 8-4 8-6s-1-5-4-9l-31-18V149l4-100c0-10-8-19-24-28C21 13 10 8 0 8l4 136v681m730 80 65-47c5-2 8-5 8-11 0-4-3-8-10-12l-24-20V105c2-25-3-46-17-64-14-16-34-29-61-41-8 18-19 31-31 39-12 10-44 22-96 37l6 18c55-10 90-15 106-16 15 0 26 3 33 8 6 4 9 15 10 31v722H340c-12 0-30-3-55-8l-21 33h439l31 41Z"/></symbol><symbol id="阌_G" viewBox="0 0 1000 1000" data-size="21"><path transform="matrix(1 0 0 -1 95 966)" d="m80 921 10 12c56-28 92-49 107-65 16-15 25-31 28-47 2-13 0-26-6-37-8-12-18-17-30-15-11 0-19 9-23 27-4 17-10 33-18 49-7 13-30 39-68 76m524-399 27 30 49-45c4-2 6-6 6-12 0-4-5-6-14-6-10 0-24-8-41-21-18-13-35-30-53-51l-15 8 42 72H189c-2-35-7-60-15-76-9-14-19-24-31-27-12-4-22-3-30 3s-10 13-8 22 8 18 18 25c7 8 16 20 25 35 8 16 14 45 18 88h18l4-45h275c23 40 49 92 78 157 41-20 63-32 64-35 2-4 0-7-3-8-4-2-9-4-16-6-7-1-18-10-33-27-15-19-36-45-63-81h114M203 659l10 8c30-20 51-37 60-51 10-12 14-23 14-35 1-12-2-21-10-29-6-9-13-12-23-10-11 2-16 10-16 23 0 14-2 26-4 36-2 9-12 29-31 58m141 6 10 8c30-20 50-37 60-51 9-12 14-23 14-35s-3-22-10-29c-6-9-14-12-23-10-11 2-16 10-16 23-1 14-2 26-4 35-2 10-12 30-31 59m-186 37c104 12 188 23 252 33 65 9 121 21 170 34l45-51c3-8-1-12-10-12-15 5-30 8-43 8s-51-4-113-12c-63-8-163-14-301-17v17m303-308H275c-15 0-30-2-43-6l-19 33h246l29 29c41-32 61-50 61-54s-1-7-4-8c-2-2-9-4-20-6-9-2-19-12-29-29-8-17-23-41-45-73 61-19 103-39 127-58 23-19 35-36 37-51 2-16-2-26-10-31-7-7-15-8-23-2-8 3-16 11-25 25-8 13-24 27-47 43-24 16-52 31-84 47-55-66-153-120-293-159l-8 17c130 49 217 102 262 160-47 19-93 37-137 52l6 16c43-8 94-22 152-41 24 30 41 62 53 96M4 813l78-42c5-2 8-4 8-6 0-3-1-6-4-10l-31-18V153l4-98c0-10-8-19-24-28-14-8-25-13-35-13l4 133v666m734 86 65-46c5-2 8-6 8-12 0-4-3-8-10-12l-24-19V105c2-25-4-46-17-64-14-16-34-29-61-41-8 18-19 31-31 39-12 10-46 22-102 37l6 18c59-10 96-15 112-16 15 0 26 3 33 8 6 4 9 15 10 31v716H373c-12 0-30-3-55-8l-21 33h410l31 41Z"/></symbol><symbol id="阍_G" viewBox="0 0 1000 1000" data-size="21"><path transform="matrix(1 0 0 -1 100 972)" d="m55 933 9 11c53-26 86-47 100-62 14-14 23-28 27-43 3-14 1-26-5-37-8-13-18-18-30-16-11 0-19 9-23 27-3 18-9 34-16 47s-28 37-62 73m373-225c0-24 4-57 11-98h124l41 45 56-56c2-4 3-6 4-6 0-5-3-7-8-8H449c4-14 15-30 33-49 16-17 31-31 45-41s28-17 41-21c13-5 22-6 26-4 3 2 6 8 10 17 3 7 8 30 15 67h16v-75c0-21 3-35 10-42 5-6 9-12 9-18 1-5-1-8-6-10-5-1-14-1-25 0-12 1-30 7-55 16-25 10-47 21-66 35-20 13-39 31-59 55-19 21-33 45-43 70H232V485l123 51 10-15c-63-31-101-52-115-63-14-10-31-25-49-45l-49 45c13 7 24 15 32 25v268l50-39c68 10 123 19 166 29 43 9 92 24 149 43 34-28 53-44 55-49 1-4 1-7-2-9-4-2-11-2-22 0-10 2-27 2-51 0-23-2-57-8-101-18m-37-98c-6 39-10 71-12 94-53-4-102-10-147-16v-78h159M221 429l50-24h221l26 30 54-39c2-4 4-7 4-8 0-5-8-12-23-22V229l4-85c-1-12-6-21-16-29-8-7-21-11-39-13v45H270v-17c0-13-6-24-18-32-12-6-23-9-35-10l4 126v215m49-254h232v86H270v-86m0 113h232v90H270v-90m459 609 64-46c5-2 8-6 8-12 0-4-3-8-10-12l-23-19V105c2-25-4-46-18-64-14-16-34-29-61-41-8 18-18 31-31 39-12 10-44 22-95 37l5 18c55-10 90-15 106-16 15 0 26 3 33 8 6 4 9 15 10 31v714H328c-12 0-30-3-55-8l-21 33h445l32 41M4 815l78-43c5-1 8-3 8-5 0-3-1-6-4-10l-31-18V157l4-98c0-10-8-19-24-28-14-8-25-13-35-13l4 133v664Z"/></symbol><symbol id="阎_G" viewBox="0 0 1000 1000" data-size="21"><path transform="matrix(1 0 0 -1 94 966)" d="M305 497c-14-4-39-14-76-31V366h58l27 43 59-53c1-2 2-4 2-7 1-6-1-9-4-8H229V210h308v129h-64c-16 0-32-2-49-6l-20 31h133v108h-72c-13 0-24-2-33-6l-24 31h119l32 33 46-37c5-2 8-6 8-10s-9-11-29-23V259l2-86c0-10-6-18-18-26-11-6-22-9-31-9v47H229v-20c0-10-6-18-18-25-10-8-22-12-33-12l4 117v274l43-32c37 24 68 47 93 69 30-26 45-41 47-45s2-6-2-6c-3-1-10-1-21-2-10 0-22-2-37-6m23 291c47-21 70-34 70-37 0-4 0-7-2-8 0-2-7-4-21-8-12-2-31-19-55-50h176l29 27c36-33 53-52 53-55 1-2-1-4-4-6-4 0-11-2-23-5-11-4-26-13-45-28-20-15-48-42-84-80l-16 12c26 35 54 71 84 109H297c-46-58-104-114-174-168l-12 14c47 47 86 92 119 135 33 42 66 91 98 148M4 802l76-43c4-2 6-4 6-6-1-3-2-6-4-10l-31-14V144l4-93c0-8-7-17-20-28-12-8-23-13-35-13l4 116v676m744 84 57-47c4-2 7-6 8-12 0-4-4-8-12-14l-24-13V100c2-25-6-46-21-63-14-17-39-29-74-37-9 20-18 35-28 43s-41 20-91 35l3 18c57-13 94-19 110-20 15 0 28 1 39 6 9 4 14 12 14 24v715H332c-12 0-31-2-55-8l-23 34h461l33 39M68 933c53-28 88-50 106-67 17-16 26-32 27-49 2-15 0-26-8-33-7-8-16-12-25-10-8 2-16 11-22 28-4 15-11 31-21 49-10 17-31 41-64 70l7 12Z"/></symbol><symbol id="阏_G" viewBox="0 0 1000 1000" data-size="21"><path transform="matrix(1 0 0 -1 86 972)" d="m59 933 9 11c53-26 86-47 100-62 14-14 23-28 27-43 2-14 0-26-7-37-8-13-18-18-30-16-11 0-18 9-21 27-4 18-9 34-16 47s-28 37-62 73m279-313 33 43 53-55c6-10 1-15-14-13H238V489h71l23 28 53-34c5-4 4-9-4-15l-22-18V274c-2-50-10-86-25-105-14-20-35-33-63-41-6 20-15 34-27 43-12 6-30 14-55 23l4 16 49-14c29-5 49-1 59 12 9 13 13 33 13 61v197h-76c-8-84-22-153-43-207-19-55-60-111-123-167l-9 13c48 60 80 114 95 164 15 48 26 97 31 144 6 47 8 108 6 182h-58c-14 0-30-3-47-8l-16 33h264M193 772l6 12c31-17 55-33 71-47 15-13 25-27 29-41 4-12 3-24-2-37-5-12-13-17-26-15-11-1-19 7-23 25-2 18-8 35-18 53-9 17-22 34-37 50m299-298 10 9c27-17 50-35 68-54s28-36 30-51c2-16-1-28-8-37s-16-12-28-10c-9 2-15 10-17 23-1 12-4 26-10 42-4 14-19 41-45 78m-64-196 4 16c52-11 95-24 131-39 35-14 58-29 70-45 12-15 17-30 15-45 0-14-7-23-19-27-11-5-22 2-33 21-11 20-26 37-45 51-18 14-59 36-123 68m-51 108c39 67 70 131 92 189 21 59 41 129 58 211l67-31c4-4 3-8-2-12l-24-12c13-58 30-107 51-146 20-38 37-65 53-80 16-14 37-27 64-39v-14c-28 3-52-4-72-21-27 34-49 68-64 101-14 33-30 86-49 158-28-82-53-145-76-189-24-42-51-83-82-121l-16 6M4 798l78-43c5-2 8-4 8-6 0-3-1-6-4-10l-31-17V138l4-97c0-10-8-19-24-27C21 5 10 1 0 0l4 132v666m752 103 64-47c6-1 8-5 8-11 1-4-2-8-10-12l-23-19V109c2-25-4-46-18-64-13-16-34-29-60-41-9 17-19 30-31 39-13 10-47 22-102 37l6 18c58-10 96-15 111-16 15 0 26 3 33 8 6 4 9 15 10 31v714H350c-12 0-30-3-55-8l-22 33h452l31 41Z"/></symbol><symbol id="阐_G" viewBox="0 0 1000 1000" data-size="21"><path transform="matrix(1 0 0 -1 95 973)" d="m4 800 78-29c5-2 8-4 8-6 2-4 2-7 0-10l-33-20V149l4-92c-1-9-8-17-22-26-14-8-27-11-39-11l4 118v662m74 146c57-26 93-48 110-66 15-18 22-34 21-49 0-14-4-25-12-31-6-6-14-9-25-8s-18 9-22 25c-2 17-7 33-17 49-9 16-29 39-63 69l8 11m660-41 65-45c5-2 8-6 8-9 0-4-12-16-36-36V102c2-26-4-47-19-65-16-15-41-27-76-37-8 21-18 36-30 43-9 8-41 20-93 35l2 16c60-10 99-16 115-18 15 0 27 2 37 6 8 4 13 12 14 25v734H363c-11 0-30-3-54-8l-22 35h428l23 37M244 800c51-30 82-54 94-72s16-32 12-43c-3-12-8-20-14-24-5-4-12-6-22-4-8 1-13 9-15 26-2 15-7 29-14 43-8 13-24 35-49 64l8 10m317-35c5-6 9-10 9-12 0-3-4-6-13-10-16-2-28-8-36-15-8-8-35-38-80-90h102l27 29 47-35c6-4 9-8 10-12 0-4-10-12-31-25V444l4-68c0-10-7-19-20-25-12-7-22-10-31-10v33H410v-96h180l31 47 55-54c1-2 2-4 2-6 0-8-3-12-10-12H410v-80l2-81c0-10-6-18-19-24-12-5-24-9-36-9l4 110v84H188c-15 0-38-3-69-8l-14 33h256v96H223v-12c0-9-4-17-12-23-6-7-20-10-41-10l4 96v252l55-39h181c37 58 69 111 96 160l55-33M223 399h138v94H223v-94m187 94v-94h139v94H410m-187 26h138v91H223v-91m187 91v-91h139v91H410Z"/></symbol><symbol id="阑_G" viewBox="0 0 1000 1000" data-size="21"><path transform="matrix(1 0 0 -1 104 958)" d="M119 665h238v127l73-27c4 0 6-2 6-6 0-3-2-6-6-10l-28-16v-68h159l31 43 53-51c1-2 3-6 3-10 0-3-3-5-11-5H402v-79h137l22 30 43-31c7-4 11-8 11-12 0-3-8-9-23-20v-99l4-63c0-10-5-19-14-27-10-8-21-12-35-12v31H402v-41c52-18 95-35 127-50 32-16 55-32 71-47 16-17 22-32 19-45-2-14-10-22-21-24-12 0-24 9-37 28-15 19-34 39-57 58-24 19-57 40-102 63V157l4-73c0-8-6-17-17-27-10-9-22-13-35-14l3 108v186c-44-63-84-111-119-147-33-35-78-72-136-112L92 90c45 36 86 76 123 122 37 44 72 94 105 148H217v-11c0-8-5-16-16-24-12-6-22-10-31-10l4 104v172l45-28h138v79H201c-13 0-36-3-66-8l-16 31m98-281h140v156H217V384m185 156V384h145v156H402m-162-29 8 6c25-18 43-34 55-47 11-14 17-26 17-37 0-10-2-18-7-24-5-4-12-6-20-4-7 1-12 11-16 32-2 19-14 44-37 74m237 10c37-17 54-28 52-34 0-4-6-8-15-9-9-2-20-11-34-26-12-14-29-32-50-55l-12 6c23 39 43 78 59 118M4 776l78-33c1-2 2-4 2-6-2-4-5-6-8-8l-27-15V118l4-79c-1-12-8-21-22-27C19 4 8 0 0 0l4 124v652m725 106 54-41c5-3 7-6 8-10 0-4-5-8-14-14l-15-13V100c2-26-5-47-20-65-13-15-32-27-56-35-6 20-15 33-28 41s-45 20-97 35l3 16c59-11 94-18 106-20 11 0 21 3 31 8 9 4 14 12 14 25v712H344c-13 0-31-2-55-7l-23 33h433l30 39M64 915c60-35 98-61 114-78 15-16 23-31 25-47 2-14-1-25-8-33s-16-12-25-12c-10 0-16 9-20 27-4 16-10 33-19 51-9 16-33 43-74 80l7 12Z"/></symbol><symbol id="阒_G" viewBox="0 0 1000 1000" data-size="21"><path transform="matrix(1 0 0 -1 96 975)" d="m61 938 9 12c53-26 86-47 100-62 14-14 23-28 27-43 3-14 1-26-6-37-7-13-17-18-29-16-12 0-19 9-23 27s-9 34-16 47-28 37-62 72m134-148 59-43h254l35 41 53-45c4-4 6-6 6-8 0-4-9-13-28-27V536l4-86c0-10-6-18-17-25-13-6-25-10-38-12v27H246v-19c-1-8-8-16-21-24-15-6-26-9-34-9l4 109v293m51-324h277v72H246v-72m0 97h277v67H246v-67m0 92h277v67H246v-67M123 312h211c6 37 11 75 16 115 43-12 66-20 70-24 3-2 3-4 2-6-1-1-11-8-31-19l-12-66h180l35 42 54-48c2-3 4-6 4-10 1-5-4-7-15-8H373c-18-59-51-105-98-141-46-33-103-58-170-75l-3 16c68 29 120 60 156 93 35 32 58 68 70 107H193c-13 1-29-3-47-10l-23 34m324 97 6 12c35-12 59-23 72-31 12-8 19-18 22-30 2-11 0-20-6-27-6-8-14-12-23-10-8 2-14 9-18 22-2 11-7 21-14 31-7 9-20 20-39 33m-70-154 6 14c64-18 112-34 144-47 31-13 53-27 67-43 11-17 15-32 11-45-3-11-11-17-23-19-12 0-23 8-35 25s-27 33-47 48-61 38-123 67m357 660 65-47c5-2 8-6 8-12 2-3-1-7-8-11l-24-20V104c3-26-2-47-15-63-14-18-32-31-55-41-8 16-21 29-37 39-15 9-46 20-92 33l6 18c49-10 81-15 98-16 15 0 26 3 33 8 6 5 9 16 10 33v734H307c-12 0-30-3-55-8l-22 33h473l31 41M4 823l80-43c5-2 8-4 8-6s-1-5-4-9l-31-18V159l4-96c0-10-8-19-24-28C21 27 9 22 0 21l4 132v670Z"/></symbol><symbol id="阓_G" viewBox="0 0 1000 1000" data-size="21"><path transform="matrix(1 0 0 -1 81 974)" d="m213 765 57-36h109v100l84-23c4-5 6-8 6-10s-2-4-6-6l-33-18v-43h111l29 34 61-39c2-4 3-7 4-8 0-5-11-13-33-26v-44l3-45c1-8-4-16-15-24-12-8-24-12-37-12v28H430v-78h209l31 39 57-47c2-2 3-5 3-8 0-8-3-12-11-12H174c-14 0-36-2-67-8l-15 36h287v78H260v-4c0-8-5-16-16-24-12-7-23-11-35-11l4 84v127m47-147h119v86H260v-86m170 86v-86h123v86H430M207 458l55-35h283l27 33 57-39c4-2 6-4 6-6 0-4-9-12-28-25V276l4-39c0-8-6-15-17-23-13-8-26-13-39-14l4 82v115H256V271l4-47c0-8-7-17-20-26-13-8-26-11-37-11l4 84v187m254-100c6-2 7-7 4-13 0-2-11-7-33-16-4-45-13-84-26-115s-41-59-82-86c-39-25-101-48-187-67l-4 15c68 23 120 47 156 71 35 25 59 51 72 79 13 25 21 77 22 156l78-24m-18-125c57-19 98-35 123-48 26-14 43-30 51-47 7-16 7-29 0-38-8-9-16-13-25-12-11 1-22 10-33 27-12 17-28 34-47 52-18 18-43 35-76 53l7 13M4 808l76-28c10-4 13-9 8-15l-33-16V146l4-105c0-10-8-19-24-27C21 5 10 1 0 0l4 140v668m66 140c64-25 106-47 125-66 18-18 27-34 28-49 0-15-4-26-12-33s-16-9-25-8c-10 1-18 10-24 25-5 14-12 30-21 47-10 15-36 39-78 73l7 11m700-21 60-43c5-2 8-6 8-12 1-3-11-12-33-27V111c2-25-2-47-12-64-10-16-31-29-64-37-2 17-9 28-20 35s-40 18-86 33l4 20c44-10 72-15 84-16 11 0 21 1 31 2 9 2 13 10 14 23v753H342c-12 0-30-2-55-7l-21 35h472l32 39Z"/></symbol><symbol id="阔_G" viewBox="0 0 1000 1000" data-size="21"><path transform="matrix(1 0 0 -1 96 965)" d="M293 542h162v123l-141-10-1 16c126 19 227 44 302 74 33-29 49-47 49-53 0-5-1-8-2-9s-7 0-19 4c-12 1-30 1-53 0-22-3-52-8-90-14V542h98l31 39 53-47c2-2 3-4 4-6 0-6-4-9-12-9H500V386h76l22 29 43-33c5-4 9-8 9-12 0-2-7-10-23-23V229l4-58c1-8-5-16-16-24-11-6-22-9-31-9v45H383v-37c-1-9-6-16-16-22-10-7-21-11-33-11l4 105v199l45-31h72v133h-82c-14 0-36-3-66-8l-14 31m90-334h201v154H383V208M279 616l16-6c-43-136-68-213-76-228-6-16-12-33-18-51-4-18-5-41-2-70 4-30 7-57 10-82 2-26-1-42-8-49-6-6-13-10-21-12-9 0-16 4-22 14-4 10-4 30 2 62s7 63 4 94c-2 18-8 29-18 33-7 4-29 9-64 16l2 16c37-4 62-4 76 0 11 1 22 15 31 43 10 25 39 98 88 220M148 749l6 10c21-9 40-18 57-28 18-9 31-19 41-29 9-10 14-21 14-31 0-11-3-19-8-25-5-7-11-10-20-10-8 0-13 6-17 17-2 11-8 24-18 39s-28 34-55 57M82 624l6 10c23-13 43-24 58-33 15-10 27-20 38-30 9-10 14-21 15-33 0-12-2-21-8-27-6-7-13-9-21-8s-14 8-18 19c-2 10-7 23-15 40-8 14-26 35-55 62M4 802l74-37c5-2 7-5 6-8-1-2-2-4-4-6l-29-18V140l4-87c0-9-7-18-20-28-12-8-23-13-35-13l4 126v664m732 88 65-41c5-3 8-6 8-10s-5-9-14-14l-24-17V102c2-26-4-47-19-65-14-15-35-27-61-37-7 21-17 36-29 43-12 8-43 20-92 35l2 16c57-10 92-16 106-18 11 0 23 2 33 6 9 4 14 12 14 25v716H352c-13 0-31-2-55-8l-24 34h440l23 41M80 931c49-21 82-40 100-57 17-16 26-31 27-47 2-14-1-25-8-33-8-7-15-9-23-8-8 2-15 11-20 27-4 15-11 32-23 49-10 16-30 35-61 57l8 12Z"/></symbol><symbol id="阕_G" viewBox="0 0 1000 1000" data-size="21"><path transform="matrix(1 0 0 -1 97 968)" d="m80 925 10 12c52-28 86-51 101-69 15-15 23-31 26-47 2-15 0-28-6-39-8-12-18-17-29-15-12 0-20 9-24 27-3 17-8 34-15 51-8 17-28 43-63 80m264-182 54-39c6-4 8-8 8-12 0-2-4-4-11-7-2-2-13-8-32-18-43-77-86-136-131-178-43-41-97-77-164-107l-7 14c64 40 115 80 152 119 36 38 72 95 107 172H170c-22 0-38-3-49-8l-23 33h220l26 31m99-260 36 41 54-50c2-2 2-4 2-6 0-7-2-10-8-10H404c0-35-2-70-8-105h149l37 48 63-56c1-2 3-4 3-6 1-7-2-10-9-10H393c-21-77-56-132-108-166-51-33-112-59-183-77l-6 16c64 24 119 53 164 88 44 35 72 81 84 139H188c-14 0-28-3-43-8l-16 32h219c6 27 9 62 7 105h-54c-10 0-24-3-41-8l-22 33h205m-56-207 6 16c46-13 87-26 121-39 32-13 57-26 74-39s27-26 29-39c2-12 1-22-2-31-4-8-11-13-21-14-10 0-20 6-30 17-10 12-19 24-27 36-7 9-22 22-45 39-21 15-56 33-105 54m13 496 20 4c13-37 28-74 45-109 33 37 60 70 82 100l49-38c5-4 4-9-4-13-13 2-27-2-43-12s-41-27-72-53c9-22 25-45 46-68 38 39 69 76 94 109l49-41c5-5 3-9-4-11-10 0-19-2-29-6-9-4-41-26-98-67 27-25 53-45 78-58 26-12 57-22 94-30v-15c-24-1-41-3-51-8-10-4-21-10-35-19-27 21-53 42-76 64-24 21-49 51-76 92-27 40-50 100-69 179M145 655l7 10c41-18 67-34 77-49 9-13 13-25 11-35s-6-18-11-23c-5-6-12-8-20-6-8 1-12 8-14 19-2 10-6 22-11 35-5 12-18 28-39 49M4 815l80-43c5-1 8-3 8-5 0-3-1-6-4-10l-31-18V153l4-94c0-10-8-20-24-30C21 23 9 19 0 18l4 129v668m728 81 65-47c5-2 8-6 8-12 2-4-1-8-8-12l-24-19V104c3-26-2-47-15-65-14-16-32-29-55-39-8 16-21 29-37 37-15 10-46 22-92 35l6 18c49-10 81-15 98-16 15 0 26 3 33 8 6 5 9 16 10 33v714H357c-11 0-30-3-54-8l-22 33h420l31 42Z"/></symbol><symbol id="阖_G" viewBox="0 0 1000 1000" data-size="21"><path transform="matrix(1 0 0 -1 98 961)" d="m74 911 10 12c57-24 95-44 113-61 18-15 29-31 32-47 1-15-1-28-8-37-7-10-16-15-28-13-11 0-19 9-23 27s-10 33-20 47c-9 14-35 38-76 72m65-211h209v119l70-25c5-3 8-5 8-8 1-4 0-6-4-8l-26-13v-65h133l32 43 56-51c2-2 3-4 4-5 2-5-2-8-12-10H396v-90h184l35 45 55-49c2-3 3-6 4-10 0-6-5-10-14-10H385c-44-31-92-64-145-99l276 10c-28 21-54 39-78 52l7 14c50-16 86-29 108-41 21-12 37-24 47-37 9-12 11-25 7-37-3-13-10-20-19-22-10-1-18 3-24 12-5 7-15 20-29 37-79-4-144-8-195-12-52-3-100-12-145-27l-33 55c20 3 41 10 65 19 37 30 65 55 86 76H166c-14 0-33-2-59-7l-23 31h264v90H209c-14 0-31-3-51-8l-19 31m37-301 56-31h288l25 29 51-33c5-4 8-8 8-13 0-4-9-11-28-22V167h29l36 45 52-53c2-2 4-6 4-10 2-4-2-7-11-7H143c-14 0-28-3-43-8l-22 33h98v232m47-232h74v176h-74V167m119 0h68v176h-68V167m113 0h72v176h-72V167m275 730 65-46c5-2 8-6 8-12 2-4-1-8-8-12l-25-19V105c2-25-3-46-16-64-12-18-29-31-53-41-8 15-21 28-37 39-16 12-46 24-90 37l4 18c49-10 82-16 98-18 15 0 26 3 33 8 6 5 9 16 10 33v714H355c-11 0-29-3-54-8l-22 33h420l31 41M4 776l78-43c5-2 8-4 8-5 0-3-1-6-4-10l-31-18V140l4-95c0-10-8-19-24-27C21 9 10 5 0 4l4 130v642Z"/></symbol></svg>