<svg xmlns="http://www.w3.org/2000/svg"><symbol id="鲥_G" viewBox="0 0 1000 1000" data-size="21"><path transform="matrix(1 0 0 -1 31 972)" d="m584 827 55-37c4-4 6-6 6-8-1-6-10-14-28-25V247l4-70c1-12-5-22-17-30-12-5-23-9-32-11v64h-99v-58c2-10-4-19-18-27s-24-11-31-11l4 104v619l51-37h82l23 37M473 228h99v250h-99V228m0 275h99v262h-99V503m166 174h136v267l75-37c6-1 9-4 7-10 0-3-12-10-37-19V677h32l27 41 53-49c2-3 4-5 6-8v-8c-1-2-2-2-4-2H820V78c2-21-4-38-17-51-12-11-28-20-49-27-4 23-16 40-37 49-22 8-48 17-78 25l4 20c61-14 99-19 113-16 14 4 21 12 19 24v549h-68c-14 0-32-2-55-7l-13 33m4-137 11 6c28-29 49-55 65-80 15-24 23-45 23-63 1-17-3-30-12-39-8-10-17-13-27-10-10 4-15 16-15 38 0 19-4 42-12 68-9 25-20 52-33 80M229 899c3 0 5-3 3-9 0-4-3-7-11-8-10-3-20-12-30-28-9-14-20-34-31-60h111l24 33 57-47c4-4 5-8 2-9 0-5-9-10-26-16-12-5-23-14-35-27-10-15-29-43-59-86h90l22 29 50-35c4-4 6-7 6-8 0-4-11-14-33-29V364l4-74c1-8-5-16-16-23-11-6-22-10-33-12v49H129v-32c0-10-6-19-18-27-11-8-22-12-31-10l4 100v307c-24-43-48-77-72-102L0 550c42 69 76 138 102 207 25 68 44 125 56 170l71-28M129 329h76v135h-76V329m121 0h74v135h-74V329M129 489h76v127h-76V489m121 127V489h74v127h-74m-125 26h90l56 127H150c-15-36-32-71-48-104l23-23m250-426 6-18c-154-52-242-83-264-94-22-10-39-22-51-36l-39 64 348 84Z"/></symbol><symbol id="鲦_G" viewBox="0 0 1000 1000" data-size="21"><path transform="matrix(1 0 0 -1 21 974)" d="M584 235c-12-3-39-30-82-80-42-48-85-91-131-130l-12 12c67 72 127 155 182 249 42-19 64-31 66-35s2-7-2-8c-2-2-9-4-21-8m176 45c58-33 97-58 117-76 19-18 33-34 43-49 8-14 13-27 14-38 0-10-1-19-4-27s-8-14-16-18c-8-2-16-1-21 2-6 4-11 14-14 30-3 15-14 39-33 71-20 30-51 61-94 92l8 13m-307 82h205v147l71-30c11-2 13-7 3-15l-27-14v-88h115l35 47 59-56c2-2 3-5 4-8 0-6-4-9-12-8H705V82c2-19-3-36-14-51S661 6 637 0c-8 25-20 40-35 47-16 6-41 14-77 25l4 18c65-16 102-22 112-18 11 5 17 12 17 22v243H535c-14-1-33-4-56-10l-26 35m207 547c10-4 11-10 4-15-16-4-27-12-35-24s-18-29-29-53h193l29 34 61-49c4-4 5-8 2-12-1-4-6-6-16-6-14-2-33-19-56-53-24-31-57-70-100-117 21-19 45-36 72-49 26-13 52-24 78-31s57-12 94-15v-18c-18 0-34-2-49-6-14-3-27-12-39-27-25 10-53 23-82 41-28 18-62 44-103 78-36-34-76-63-120-86-43-23-85-45-128-64l-6 15c49 26 91 50 125 74 32 22 67 50 103 86-40 47-70 96-92 147-24-47-56-96-95-147l-14 10c27 48 53 100 78 154 24 55 43 108 59 159l66-26m-72-117-8-14c26-49 60-95 102-138 38 39 76 89 113 152H588M279 915c4-4 6-8 4-12s-8-7-17-9c-12-4-24-15-36-32-11-15-24-37-39-64h120l29 33 55-49c3-4 5-8 3-11 0-4-9-8-25-12-12-6-24-16-37-30-12-13-33-43-65-91h77l27 33 59-37c2-3 3-5 4-8 0-4-8-12-24-23V366l4-82c0-8-6-17-18-25-11-8-22-12-33-12v45H141v-18c0-7-6-16-18-25-11-8-22-13-33-14l4 106v308c-24-37-51-72-82-105L0 556c41 62 80 128 117 197 37 68 67 133 88 195l74-33M141 317h89v135h-89V317m136 0h90v135h-90V317M141 478h89v134h-89V478m136 134V478h90v134h-90m-138 26h105l69 134H174c-19-31-42-67-69-107l34-27m287-422 6-20c-166-48-266-79-299-94-33-14-57-30-70-47l-43 69 406 92Z"/></symbol><symbol id="鲧_G" viewBox="0 0 1000 1000" data-size="21"><path transform="matrix(1 0 0 -1 38 972)" d="M709 788c-20-6-42-22-66-49-24-25-61-63-112-113l182 6c21 17 52 55 92 111l68-39c8-8 5-14-8-19-20-1-39-8-56-22-18-14-55-49-112-105-56-57-110-104-160-141l285 21c-13 27-36 60-68 98l12 10c54-44 91-78 109-104 18-24 27-45 29-62s0-30-8-39c-7-11-16-14-25-10-10 2-16 11-19 27-4 16-11 36-20 59l-125-16V88c2-25-5-45-19-59-15-12-34-22-57-29-5 21-14 36-27 43-14 8-41 20-83 33l6 16c53-13 88-20 106-20 16 1 25 7 25 20v305c-51-5-84-12-99-19-15-5-31-12-49-22l-39 69c26 2 45 8 54 17 49 39 108 96 178 170-68-6-112-11-133-17-20-4-41-12-62-24l-39 61c19 1 37 8 52 19 37 39 79 97 125 174l67-19c11-6 10-12-4-18M352 25c76 99 136 194 181 287l59-36c6-4 5-9-2-15-9-2-16-5-22-8-4-2-24-26-60-72-35-45-83-100-143-165l-13 9m400 279 12 11c70-58 114-101 132-128 17-27 27-50 28-69 2-17-1-29-8-38-7-8-16-11-27-10-11 2-18 13-22 32-4 18-12 41-21 67-10 25-41 70-94 135m78 556c-15 0-57-6-127-17-68-12-153-26-254-43l-4 19c80 17 159 35 235 55 76 18 131 35 164 49 33-34 51-53 52-57 2-4 2-6-1-8-2-2-10-2-24 0-12 2-25 2-41 2m-551 51c4-4 6-8 4-12s-8-7-17-9c-12-4-24-15-36-32-11-15-24-37-39-64h120l29 33 55-49c3-4 5-7 3-11 0-4-9-8-25-12-12-6-24-16-37-29-12-13-33-44-65-92h77l27 33 59-37c2-3 3-5 4-8 0-4-8-12-24-23V362l4-82c0-8-6-17-18-25-11-8-22-12-33-12v45H141v-17c0-8-6-17-18-26-11-8-22-13-33-14l4 106v309c-24-38-51-73-82-106L0 552c41 62 80 128 117 197 37 68 67 133 88 195l74-33M141 313h89v135h-89V313m136 0h90v135h-90V313M141 474h89v134h-89V474m136 134V474h90v134h-90m-138 26h105l69 135H174c-19-32-42-68-69-108l34-27m287-422 6-20c-166-48-266-79-299-94-33-14-57-30-70-47l-43 69 406 92Z"/></symbol><symbol id="鲨_G" viewBox="0 0 1000 1000" data-size="21"><path transform="matrix(1 0 0 -1 61 945)" d="m547 886 76-26c5-2 7-6 8-11-1-2-12-9-33-20V714l4-37c0-10-7-20-22-31-14-11-27-15-37-14l4 86v168m-459-8 8 12c33-14 58-26 76-36 17-9 29-21 37-35 8-12 10-25 6-39-4-13-13-20-26-19-11 0-19 8-23 23-4 16-12 31-23 47-12 14-30 29-55 47M23 778l6 12c37-10 65-19 82-29 16-10 27-22 34-35 4-14 4-26 0-36-5-9-12-14-22-15-9-1-16 6-21 21-6 14-14 28-24 41-10 12-29 26-55 41m707-144c-11 0-27-4-46-12-18-6-59-21-123-45-64-21-116-37-157-47-41-8-105-17-193-27v18c66 8 139 24 219 48 79 23 170 63 273 121 37-25 55-41 57-46 0-4-1-7-4-8-4 0-13-1-26-2m-326 62c-25-33-56-68-93-105l-12 12c23 36 46 72 68 107 22 34 41 69 57 103l60-35c5-7 3-12-5-13-10-2-19-5-26-10-6-6-23-26-49-59m287 114c47-22 84-41 114-59 28-18 48-37 60-57 13-17 17-33 12-47-6-13-14-20-25-19-12-1-22 8-30 25s-19 35-33 55c-14 19-49 49-105 90l7 12m-375 9 16-9C232 672 178 595 170 577c-9-18-13-35-12-51 2-15 4-27 6-35 1-8 2-19 2-31s-3-20-8-25c-4-7-12-10-21-8-9 1-15 8-20 19-4 11-4 23 0 37 4 13 6 24 6 32 0 7-2 17-6 27-4 9-12 16-23 20-12 3-37 9-76 15l3 18c52-4 84-4 96 0 12 2 23 9 33 23 11 13 67 80 166 201m65-322c9-4 10-10 2-16-8 0-22-5-41-17h178l39 29 60-43c5-6 3-10-4-13-23-4-45-13-66-26-20-12-45-31-74-58h179l22 31 58-35c10-8 10-15 0-20l-21-16V165l6-57c-1-8-8-15-22-20-13-5-24-8-33-8v38H215v-14c0-7-6-14-18-18-11-6-23-9-35-10l2 77v172c-47-32-94-58-143-78l-7 14c52 32 100 66 144 101 43 34 97 84 162 149l61-14M215 144h205v78H215v-78m254 78v-78h195v78H469m-254 25h205v80H215v-80m254 80v-80h195v80H469m-262 26h238l75 87H314c-29-25-65-54-107-87M0 33h771l38 53 64-61c2-2 3-5 4-9 0-5-5-8-14-8H82C70 8 49 6 18 0L0 33Z"/></symbol><symbol id="鲩_G" viewBox="0 0 1000 1000" data-size="21"><path transform="matrix(1 0 0 -1 20 975)" d="M488 608h301l27 32 51-37c2-3 4-6 6-10 0-7-4-10-12-10H570c-26 0-47-3-62-8l-20 33m356-170 35 45 55-46c2-4 3-8 4-12 0-7-5-10-16-10H756V138c-1-21 2-36 8-44 4-8 11-12 19-12 8-1 20-2 35-2h32c19 0 32 8 39 24 4 13 7 35 9 65 2 27 2 54 2 80h20c1-45 4-78 8-100 3-20 14-36 33-45-6-20-16-36-29-47-13-12-34-18-63-18h-76c-23 0-40 3-51 8-10 4-17 12-23 23-7 11-10 32-10 64v281h-98c2-63-2-122-13-178s-37-101-80-135C474 67 414 33 338 0l-6 14c78 44 133 83 166 118s53 77 59 127c6 49 7 101 6 156h-55c-22-1-39-4-53-10l-19 33h408m15 342 30 33 54-44c8-5 12-10 12-14s-4-7-14-8c-20-4-38-14-54-27-17-15-35-35-57-63l-14 8 47 92H525c0-16-2-35-4-55-1-20-8-37-19-51-10-13-22-20-33-19-12-1-20 4-26 14-6 8-4 18 8 31 12 11 22 26 29 45 8 17 14 50 20 99h18c2-17 3-31 3-41h338M602 942c41-20 70-37 87-50 19-15 29-30 32-45 2-17-1-30-8-39-7-10-16-14-27-12-12 2-19 9-20 21-3 13-8 29-16 49-7 20-27 41-58 65l10 11m-323-25c4-4 6-8 4-12s-8-8-17-9c-12-4-24-15-36-32-11-15-24-37-39-64h120l29 33 55-49c3-4 5-8 3-12 0-3-9-7-25-11-12-6-24-16-37-30-12-13-33-43-65-91h77l27 33 59-37c2-3 3-5 4-8 0-4-8-12-24-24V368l4-82c0-8-6-17-18-25-11-8-22-12-33-12v45H141v-18c0-7-6-16-18-25-11-8-22-13-33-14l4 106v308c-24-37-51-72-82-105L0 558c41 62 80 128 117 197 37 68 67 133 88 195l74-33M141 319h89v135h-89V319m136 0h90v135h-90V319M141 479h89v135h-89V479m136 135V479h90v135h-90m-138 26h105l69 134H174c-19-31-42-67-69-107l34-27m300-411 6-19c-166-49-265-80-299-95-33-13-56-29-70-47l-43 70 406 91Z"/></symbol><symbol id="鲪_G" viewBox="0 0 1000 1000" data-size="21"><path transform="matrix(1 0 0 -1 17 954)" d="M426 853h359l24 29 56-35c4-4 6-8 6-12 0-5-10-13-29-25V683h47l29 39 45-43c2-3 3-6 4-10 0-8-4-12-12-12H844v-99l4-73c0-9-6-18-18-25-12-9-24-14-37-16v49H572c-8-40-19-80-33-121l31-18h231l31 38c37-30 57-46 59-49 1-2 2-5 2-8 0-4-10-12-30-25V120l4-63c2-8-2-16-13-26-11-8-24-11-40-11v74H578V37c0-9-6-17-17-25-13-8-26-12-40-12l4 86v257c-32-99-89-188-173-269l-14 14c89 108 150 243 183 405h-29c-16 0-33-2-51-4l-19 28h105c9 52 16 99 20 140h-70c-11 0-29-2-55-8l-24 34h149l10 144h-73c-13 0-25-2-35-8l-23 34m183-26-9-144h193v144H609m-11-170c-5-54-11-101-20-140h215v140H598m-22-539h238v211H576V118M219 876c4 1 6-1 6-6 4-4 1-8-8-12-15-4-24-11-28-21-3-10-11-28-23-55h119l20 28 58-39c4-4 5-8 4-12 0-4-9-8-25-12-12-9-24-20-35-33-9-14-28-44-57-90h78l33 37 55-45c2-2 3-5 4-8 1-4-9-12-27-25V343l3-82c0-9-4-16-13-22-9-5-22-8-39-10v40H121v-30c1-10-4-18-16-25-9-7-22-10-37-10l4 119v285c-21-39-41-70-58-91l-14 9c33 62 64 129 94 202 27 71 46 131 56 179l69-31m-98-582h86v144h-86V294m135 0h88v144h-88V294M121 464h86v135h-86V464m135 135V464h88v135h-88m-137 25h106l60 133H154c-17-35-37-73-58-113l23-20m248-436 6-17c-156-56-246-89-269-99-23-9-40-21-51-35l-41 67 355 84Z"/></symbol><symbol id="鲫_G" viewBox="0 0 1000 1000" data-size="21"><path transform="matrix(1 0 0 -1 43 962)" d="m600 858 50-37c4-2 6-6 6-11 0-4-8-12-25-24V491l4-78c0-10-7-18-20-25-11-7-21-10-29-10v47H480V153l106 61c-16 40-35 74-55 101l12 10c42-43 71-78 86-103 15-24 23-45 25-65 2-17 0-31-8-41-6-7-15-10-27-10-10 2-15 12-15 32 0 17-3 37-8 58-53-33-87-56-102-70s-29-32-41-56l-55 48c18 11 31 24 40 37v707l42-35h96l24 31m-120-56V634h106v168H480m0-194V450h106v158H480m379 245 47-38c5-4 8-9 8-13s-10-12-31-24V300c2-26-1-47-8-63s-22-28-45-37c-5 15-12 28-21 37-8 7-26 16-53 26l2 15c29-4 50-7 62-7 13-1 19 3 20 13v512h-98V124l4-89c0-9-6-17-19-25-13-6-24-9-34-10l4 130v728l47-39h84l31 34m-630 44c3 0 5-3 3-9 0-4-3-7-11-8-10-3-20-12-30-27-9-15-20-35-31-61h111l24 33 57-47c4-4 5-7 2-9 0-5-9-10-26-16-12-5-23-14-35-27-10-15-29-43-59-86h90l22 29 50-35c4-4 6-7 6-8 0-4-11-14-33-29V362l4-74c1-8-5-16-16-23-11-6-22-10-33-12v49H129v-31c0-11-6-20-18-28-11-8-22-12-31-10l4 100v307c-24-43-48-77-72-102L0 548c42 70 76 139 102 207 25 68 44 125 56 170l71-28M129 327h76v135h-76V327m121 0h74v135h-74V327M129 487h76v127h-76V487m121 127V487h74v127h-74m-125 26h90l56 127H150c-15-36-32-71-48-104l23-23m250-426 6-18c-154-52-242-84-264-94S78 80 66 66l-39 64 348 84Z"/></symbol><symbol id="鲬_G" viewBox="0 0 1000 1000" data-size="21"><path transform="matrix(1 0 0 -1 35 955)" d="M518 306h138v140H518V306m187 140V306h147v140H705m-187 24h138v142H518V470m187 142V470h147v142H705m135 28 27 33 53-37c6-2 9-6 10-12 0-5-10-13-30-25V86c0-23-5-41-15-55-9-12-27-23-55-31-4 18-14 31-27 41s-33 20-61 31l4 16c33-8 57-14 74-18 20 0 31 8 32 24v188H705V146l4-83c1-8-7-16-21-26-14-9-26-14-36-14l4 117v142H518V128l3-83c0-8-6-17-19-27-14-10-26-14-37-14l4 119v562l52-45h319m10 265 52-45c8-6 10-10 8-13 0-4-6-7-15-8-16-2-34-10-55-24l-82-56-47-37c10-11 13-23 10-37-2-15-8-24-18-28-8-4-15-4-23 2-7 3-11 12-14 26-3 13-12 29-27 46-16 17-38 36-67 55l6 12c42-13 82-31 119-57l104 104H504c-10 0-22-3-35-8l-31 31h373l39 37m-623-27c3 1 5-1 5-6 4-4 2-8-7-12-14-4-24-11-30-21-4-10-11-28-23-55h121l20 28 58-40c4-3 5-7 4-11s-9-8-25-12c-12-9-24-20-36-33-9-14-28-44-56-90h80l31 37 57-45c2-2 3-5 4-8 0-4-10-12-30-25V345l4-82c0-9-4-16-13-22-8-5-21-8-37-10v40H129v-30c1-10-5-18-16-25s-23-10-35-10l4 119v287c-21-39-44-74-68-105L0 517c37 69 70 140 100 212 27 72 46 132 58 180l69-31m-98-582h88v144h-88V296m135 0h90v144h-90V296M129 466h88v135h-88V466m135 135V466h90v135h-90m-137 25h105l61 133H160c-16-33-35-71-56-112l23-21m285-451 6-18c-187-55-292-88-314-98-23-10-40-21-51-34L12 90l400 85Z"/></symbol><symbol id="鲭_G" viewBox="0 0 1000 1000" data-size="21"><path transform="matrix(1 0 0 -1 30 971)" d="M443 800h203v137l77-28c6-2 9-5 9-8 2-4 0-7-5-9l-28-14v-78h119l39 51 61-59c2-3 3-5 4-8 0-8-4-12-12-12H699v-89h78l36 41 54-51c2-2 3-4 4-6 0-8-4-12-12-12H699v-90h139l37 45 61-50c2-3 3-6 3-10 0-8-5-12-15-12H518c-14 0-36-3-67-8l-15 35h210v90h-87c-14 0-36-2-67-8l-15 36h169v89H525c-13 0-35-2-66-7l-16 35m53-289 55-37h238l27 33 53-35c5-2 8-6 8-12 1-5-9-13-27-25V82c0-21-5-38-14-51-10-10-27-20-53-29-6 21-17 37-35 47-16 10-38 19-66 29l4 16c31-7 52-12 62-14 12-2 23-3 35-4 12 0 18 9 18 26v124H547V119l4-80c0-8-7-17-22-25-13-9-26-14-37-14l4 117v394m51-260h254v82H547v-82m0 107h254v90H547v-90M279 909c4-4 6-8 4-12s-8-7-17-9c-12-4-24-15-36-32-11-15-24-37-39-64h120l29 33 55-49c3-4 5-7 3-11 0-4-9-8-25-12-12-6-24-16-37-29-12-13-33-44-65-92h77l27 33 59-37c2-3 3-5 4-8 0-4-8-12-24-23V360l4-82c0-8-7-17-20-25-11-8-22-12-33-12v45H143v-17c0-8-6-17-18-26-12-8-23-13-35-14l4 106v309c-24-38-51-73-82-106L0 550c41 62 80 128 117 197 37 68 67 133 88 195l74-33M143 312h86v134h-86V312m134 0h88v134h-88V312M143 472h86v134h-86V472m134 134V472h88v134h-88m-138 26h105l69 135H174c-19-32-42-67-69-108l34-27m287-422 6-20c-166-48-266-79-299-94-33-14-57-30-70-47l-43 70 406 91Z"/></symbol><symbol id="鲮_G" viewBox="0 0 1000 1000" data-size="21"><path transform="matrix(1 0 0 -1 32 968)" d="M445 780h194v157l80-30c4-2 6-5 6-8 0-2-2-3-6-5l-30-18v-96h100l33 47 61-55c1-1 2-4 2-7 0-7-4-10-12-10H689V632h139l37 47 59-55c2 0 3-2 4-6 0-8-4-12-12-12H504c-14 0-36-2-66-7l-16 33h217v123H527c-11 0-33-3-64-8l-18 33m86-287c-29-27-70-64-123-111l-12 14c54 58 107 125 161 199l58-32c7-5 6-10-4-13s-19-7-25-10c-7-4-25-19-55-47m170 98c47-15 86-30 117-45 31-14 53-29 67-47 13-16 19-31 15-47-2-15-9-24-21-25-12-3-24 6-33 25-10 18-24 35-41 53-18 15-55 39-112 72l8 14m-56-139c3-2 5-5 5-8l-5-6c-10-2-19-7-26-13-6-7-15-18-25-33h154l27 35 59-45c6-5 8-8 6-10 0-4-7-8-22-12-14-9-31-32-50-66-19-35-47-74-84-117 23-18 46-33 70-47 24-11 50-22 78-32 27-8 62-14 104-18V63c-23-1-39-4-49-8-11-4-23-13-37-28-36 15-67 31-94 49s-61 42-102 73c-37-29-83-57-136-85-54-25-116-46-186-64l-6 16c71 28 130 56 178 82 47 24 88 52 123 83-36 45-63 93-80 144-49-64-86-107-111-129l-12 8c23 33 51 78 86 135 33 57 58 103 76 140l59-27m-69-84-13-23c14-35 44-81 89-139 43 45 77 99 102 162H576M229 897c3 0 5-3 3-9 0-4-3-7-11-8-10-3-20-12-30-27-9-15-20-35-31-61h111l24 33 57-47c4-4 5-7 2-9 0-5-9-10-26-16-12-5-23-14-35-27-10-15-29-43-59-86h90l22 29 50-35c4-4 6-7 6-8 0-4-11-14-33-29V362l4-74c1-8-5-16-16-23-10-6-21-10-33-12v49H129v-31c0-11-6-20-18-28-11-8-22-12-31-10l4 100v307c-24-43-48-77-72-102L0 548c42 70 76 139 102 207 25 68 44 125 56 170l71-28M129 327h76v135h-76V327m121 0h74v135h-74V327M129 487h76v127h-76V487m121 127V487h74v127h-74m-125 26h90l56 127H150c-15-36-32-71-48-104l23-23m250-426 6-18c-154-52-242-83-264-94-22-10-39-22-51-36l-39 64 348 84Z"/></symbol><symbol id="鲯_G" viewBox="0 0 1000 1000" data-size="21"><path transform="matrix(1 0 0 -1 21 968)" d="M426 774h103v147l78-31c4-2 6-4 6-6s-2-4-8-6l-25-16v-88h188v153l72-30c4-1 7-3 8-5-1-2-2-5-4-8l-26-14v-96h28l35 45 57-52c1-3 3-6 3-10 0-6-4-9-13-8H818V286h43l35 47c40-34 60-55 61-62 0-7-4-10-12-10H506c-16 0-39-3-68-8l-18 33h109v463h-41c-14 0-28-3-43-8l-19 33m154-347V286h188v141H580m0 152V452h188v127H580m0 170V604h188v145H580m-70-647C473 68 429 34 377 0l-12 14c31 27 67 62 106 105 39 42 66 79 82 109l62-40c2-3 2-7-2-11-2-2-8-5-15-8-8-3-16-6-24-10-6-4-27-24-64-57m222 108c47-23 88-45 122-64 33-19 56-37 68-52 12-17 17-33 14-49-2-16-10-25-24-27-13-2-24 5-33 23-8 18-22 39-43 63-20 20-57 52-111 94l7 12M227 905c3 1 5-1 5-6 4-3 2-7-7-11-14-5-24-12-30-22-4-10-11-28-23-54h121l20 27 58-39c4-4 5-8 4-12s-9-8-25-12c-12-9-24-20-36-33-9-14-28-43-56-90h80l31 37 55-44c2-3 3-6 4-8 0-4-9-13-28-26V372l4-82c0-8-4-16-13-21-9-6-21-9-37-10v39H129v-29c1-10-5-19-16-26-9-6-21-10-35-10l4 120v287c-26-49-49-83-68-102L0 548c38 66 72 136 102 209 27 71 46 131 58 180l67-32m-98-582h88v145h-88V323m135 0h90v145h-90V323M129 493h88v135h-88V493m135 135V493h90v135h-90m-137 25h105l61 133H160c-16-33-35-70-56-111l23-22m283-451 6-17c-186-56-290-89-312-99-23-10-40-22-51-35l-41 66 398 85Z"/></symbol><symbol id="鲰_G" viewBox="0 0 1000 1000" data-size="21"><path transform="matrix(1 0 0 -1 15 958)" d="M350 854h277l29 40 49-47c1-2 2-3 2-4 1-9-3-13-10-14h-74V272l63 26 9-14-72-39V126l4-83c1-10-5-20-18-29-11-9-23-14-35-14l4 124v98c-80-39-126-63-137-71-11-7-25-19-41-36l-45 52 75 29v633h-22c-13-2-27-4-41-8l-17 33m125-642 103 41v166H475V212m0 230h103v186H475V442m0 209h103v178H475V651m375 159 58-43c6-6 7-11 4-14s-14-10-33-22c-8-78-18-154-29-228-12-72-32-141-59-207 14-29 29-55 43-78 14-22 31-42 53-61s50-36 84-50V94c-18 0-34 0-49-2-14 0-26-6-37-18-33 37-57 68-71 93-12 23-26 51-43 82-25-72-66-138-123-200l-11 12c44 63 82 140 113 233-24 62-41 131-51 205-10 73-15 156-13 248h-16c-8-2-16-4-24-8l-17 33h197l24 38m-137-63c4-104 9-182 16-232 5-50 19-108 41-174 15 50 28 107 39 172 9 62 17 140 25 234H713M227 890c3-1 5-4 3-10 0-4-3-7-11-8-10-3-20-12-30-27-9-15-20-35-31-61h112l23 33 57-46c4-5 5-8 2-10 0-5-9-10-26-16-12-4-23-14-35-27-10-15-29-43-59-86h90l22 29 51-35c3-4 5-7 5-8 0-4-11-14-33-29V354l4-74c1-8-4-15-16-23-10-6-21-10-33-12v49H127v-31c0-11-6-20-18-28-11-8-22-11-31-9l4 99v307c-23-43-47-75-70-96L0 546c41 66 74 133 100 201 25 68 44 125 56 170l71-27M127 319h76v135h-76V319m121 0h74v135h-74V319M127 479h76v127h-76V479m121 127V479h74v127h-74m-125 26h90l57 127H148c-15-36-31-71-48-104l23-23m250-426 6-18c-154-52-242-83-264-94-22-10-39-22-51-35l-39 63 348 84Z"/></symbol><symbol id="鲱_G" viewBox="0 0 1000 1000" data-size="21"><path transform="matrix(1 0 0 -1 35 965)" d="M547 501v186h-86c-15 0-30-2-45-6l-23 33h154v211l76-33 6-6c0-4-2-7-6-10l-27-14V138l4-85c0-9-6-17-18-26-11-6-24-10-39-11l4 126v119h-72c-15-1-32-4-51-10l-18 35h141v190h-70c-17 0-30-2-39-6l-20 31h129m142 430 79-35 3-6c0-4-2-7-7-10l-26-14V712h86l31 43 61-53v-8c-1-6-3-9-8-9H738V503h73l35 43 52-53c2-2 2-5 2-8 0-6-2-8-7-7H738V284h94l37 51 59-61c1-2 2-4 2-7-1-6-4-9-10-8H738V116l4-73c1-10-4-20-15-29-12-9-26-13-41-14l3 126v805m-460-39c3-1 5-4 3-10 0-4-3-7-11-8-10-3-20-12-30-27-9-15-20-35-31-61h111l24 33 57-47c4-4 5-7 2-9 0-5-9-10-26-16-12-4-23-14-35-27-10-15-29-43-59-86h98l22 29 50-35c4-4 6-7 6-8 0-4-10-14-31-29V356l4-74c0-8-5-15-16-23-12-6-23-10-35-12v49H131v-31c0-11-7-20-20-28-11-8-22-11-31-9l4 99v307c-24-43-48-77-72-102L0 542c42 70 76 139 102 207 25 68 44 125 56 170l71-27m-98-571h78v135h-78V321m123 0h78v135h-78V321M131 481h78v127h-78V481m123 127V481h78v127h-78m-129 26h90l56 127H150c-15-36-32-71-48-104l23-23m273-426 6-18c-170-52-265-83-287-94-22-10-39-22-51-35l-39 63 371 84Z"/></symbol><symbol id="鲲_G" viewBox="0 0 1000 1000" data-size="21"><path transform="matrix(1 0 0 -1 21 959)" d="m498 876 59-37h252l23 33 63-37c5-4 9-8 9-12s-10-11-31-21V591l6-76c1-11-5-20-16-28-9-6-23-11-41-15v47H549v-10c0-10-3-16-8-20-10-8-27-13-49-15l6 125v277m51-332h273v119H549V544m0 144h273v125H549V688m148-209c50-19 76-31 78-35 4-6 2-10-5-13l-24-10V263c33 31 80 86 139 164 38-30 56-47 54-53-1-4-3-6-5-6-3 0-10 0-20-2s-27-15-53-37c-26-21-64-53-115-96V90c0-23 4-35 12-37s15-2 23-2h80c14 1 24 12 30 33 5 19 9 67 13 145h20l2-68c0-49 11-79 33-91-4-13-12-27-23-41-12-11-26-19-43-21H779c-19 0-35 2-47 6-11 2-20 7-25 17-6 10-10 28-10 55v393m-203-25 65-21c5-2 9-4 9-6 4-4 4-8-2-12l-25-12v-80h59l29 37 45-48c2-2 3-4 4-6-1-6-2-9-4-8H541V86l137 56 10-14c-70-38-114-65-133-79-18-13-35-29-53-49l-47 53c19 7 32 18 39 33v368M273 886c4-4 6-8 4-12-2-5-7-8-17-10-13-4-24-12-33-25-8-13-20-33-36-61h120l29 34 55-49c3-4 5-8 3-12 0-4-9-8-25-12-12-6-24-15-37-29-12-13-33-44-65-92h77l27 33 59-37c2-2 3-5 4-8 0-3-8-11-24-23V347l4-82c0-9-6-17-18-26-11-8-22-11-33-11v44H141v-17c0-8-6-16-18-26-11-8-22-13-33-13l4 105v309c-24-37-51-72-82-106L0 536c41 63 80 128 117 197 37 68 65 130 82 186l74-33M141 298h89v135h-89V298m136 0h90v135h-90V298M141 458h89v135h-89V458m136 135V458h90v135h-90m-138 25h105l69 135H174c-19-31-42-67-69-107l34-28m287-422 6-19c-166-48-266-80-299-95-33-14-57-29-70-47l-43 70 406 91Z"/></symbol><symbol id="鲳_G" viewBox="0 0 1000 1000" data-size="21"><path transform="matrix(1 0 0 -1 38 966)" d="m518 905 60-41h221l27 35 63-41c2-3 3-5 4-8 0-4-11-14-34-29V606l6-67c0-8-6-15-19-21-12-6-24-10-37-12v39H568v-15c0-8-6-15-19-22-14-6-26-10-35-10l4 80v327m50-332h241v119H568V573m0 146h241v117H568V719m-84-240 51-37h295l27 35 61-43c4-4 6-7 6-8-1-4-10-12-28-25V127l6-89c0-7-6-14-19-21-14-7-26-9-37-8v90H535V33c1-8-6-16-21-24-14-6-26-9-35-8l5 102v376m51-354h311v133H535V125m0 162h311v127H535V287M270 901c3-4 5-8 3-12-2-5-7-8-17-10-13-4-23-13-31-27-8-12-19-33-34-61h120l29 34 55-49c3-4 5-8 3-12 0-4-9-8-25-12-12-6-24-15-37-29-12-13-33-44-65-92h77l27 33 59-37c2-2 3-5 4-8 0-3-8-11-24-23V360l4-82c0-9-7-17-20-26-11-8-22-11-33-11v44H143v-17c0-8-6-16-18-25s-23-14-35-14l4 105v309c-24-37-51-72-82-106L0 549c41 63 80 128 117 197s63 131 78 188l75-33M143 311h86v135h-86V311m134 0h88v135h-88V311M143 471h86v135h-86V471m134 135V471h88v135h-88m-138 25h105l69 135H174c-19-31-42-67-69-107l34-28m287-422 6-19c-166-48-266-80-299-95-33-14-57-29-70-47l-43 70 406 91Z"/></symbol><symbol id="鲴_G" viewBox="0 0 1000 1000" data-size="21"><path transform="matrix(1 0 0 -1 31 953)" d="m441 876 57-37h344l29 41 61-39c4-4 6-7 6-8 0-5-10-14-30-27V146l4-89c1-8-3-16-12-24-8-7-21-13-39-19v80H488V43c0-9-5-18-13-25-7-6-19-12-37-18l3 140v736m47-756h373v693H488V120m30 518h130v152l69-25c4-2 6-3 6-4 4-4 5-7 2-10l-30-16v-97h51l31 39 49-45 6-6c3-8-1-12-10-12H695V464h35l24 31 43-33c6-4 9-8 10-12 0-2-7-10-22-21V296l4-53c-2-8-8-15-19-23-12-8-23-12-34-12v47H607v-27c0-10-3-18-11-24s-22-10-41-14l4 112v193l50-31h39v150h-56c-13 0-33-2-61-8l-13 32m89-358h129v158H607V280M229 878c3-1 5-4 3-10 0-4-3-6-11-8-10-2-20-11-30-27-9-14-20-34-31-61h111l24 34 60-41c5-5 6-8 2-10 0-5-8-10-25-16-14-8-27-19-39-33-10-14-29-43-59-86h98l22 29 54-35c4-4 6-6 6-8-1-3-12-13-33-29V343l4-74c0-8-6-16-18-24-11-6-22-10-33-12v49H131v-31c0-10-7-20-20-27-11-9-22-12-31-10l4 99v307c-24-43-48-77-72-101l-12 9c39 70 72 139 100 207 25 69 44 125 56 170l73-27m-98-570h80v134h-80V308m127 0h76v134h-76V308M131 468h80v127h-80V468m127 127V468h76v127h-76m-133 25h90l56 127H150c-15-36-32-70-48-103l23-24m273-426 6-17c-170-52-265-84-287-95-22-10-39-21-51-35l-39 67 371 80Z"/></symbol><symbol id="鲵_G" viewBox="0 0 1000 1000" data-size="21"><path transform="matrix(1 0 0 -1 39 962)" d="M586 827c-23-8-51-20-82-37V638h55l31 39 47-51c1-2 2-4 2-6 0-6-1-8-4-8H504V458h289v152h-57c-16 0-33-2-50-6l-20 34h127v146h-68c-14 0-30-2-47-6l-20 34h127l29 37 53-45c4-4 6-8 6-12 0-5-10-12-29-21V503l4-76c0-10-7-18-20-24-14-6-25-8-35-7v35h-64V119c0-17 3-27 11-31s17-6 28-6h46c16 2 27 8 34 20 6 10 9 25 11 44 3 18 6 54 8 107h20c1-33 2-57 4-72s4-29 5-43c3-13 12-23 26-31-6-15-12-27-18-35s-13-15-23-21c-9-5-25-10-49-14h-72c-28 1-46 5-55 10-8 6-14 14-19 21-4 9-7 22-8 39v324h-71c-3-80-15-146-35-198-19-51-49-95-92-131C439 65 380 31 303 0l-6 14c64 35 114 70 150 105 35 32 61 71 78 118s28 112 32 194h-53v-24c1-10-5-18-18-25-12-8-24-12-37-12l4 119v356l45-30c31 16 70 45 119 86 31-30 47-47 47-50-1-4-2-7-4-8-2 0-8-1-19-2-12 0-30-5-55-14m-357 70c3 0 5-3 3-9 0-4-3-7-11-8-10-3-20-12-30-27-9-15-20-35-31-61h111l24 33 60-41c5-4 6-8 2-10 0-4-8-9-25-15-14-9-27-20-39-33-10-15-29-43-59-86h102l21 29 55-35c4-4 6-7 6-8-1-4-12-14-33-29V362l4-74c0-8-6-16-18-23-11-6-22-10-33-12v49H131v-31c0-11-7-20-20-28-11-8-22-12-31-10l4 100v307c-24-43-48-77-72-102L0 548c39 70 72 139 100 207 25 68 44 125 56 170l73-28m-98-570h82v135h-82V327m129 0h78v135h-78V327M131 487h82v127h-82V487m129 127V487h78v127h-78m-135 26h90l56 127H150c-15-36-32-71-48-104l23-23m273-426 6-18c-170-52-265-83-287-94-22-10-39-22-51-36l-39 68 371 80Z"/></symbol><symbol id="鲶_G" viewBox="0 0 1000 1000" data-size="21"><path transform="matrix(1 0 0 -1 23 960)" d="m789 542 57-47c2-1 3-4 4-10-2-2-6-5-12-7l-33-20-65-129c-6-10-16-15-31-14-10 4-18 6-23 8l76 156H535c-12 0-23-2-35-7l-27 33h281l35 37M607 688l10 10c39-26 65-49 76-68 13-20 19-36 18-49-1-14-7-23-16-29-8-7-17-8-27-4-10 3-14 12-14 25s-2 28-8 45c-5 18-18 41-39 70m96 188c11-4 11-10 2-18l-21-11c21-38 45-75 70-110 23-34 51-65 82-91 31-28 70-48 117-61v-16c-27 1-45 0-55-4-9-3-22-10-37-21-29 25-52 50-70 74-18 22-37 50-59 84-21 33-43 78-66 135-34-65-70-125-107-182-38-56-80-110-127-160l-14 12c39 56 76 114 111 174s71 135 108 226l66-31M484 274c-2-60-4-101-7-123-3-20-8-38-14-55-5-16-14-30-27-41s-26-16-40-14c-12 3-19 9-21 20-3 9 2 19 14 29 9 9 19 20 29 32 8 12 15 25 21 41 7 14 15 51 26 111h19m313-9c47-28 80-53 99-75 20-22 34-41 42-56 5-15 7-28 5-38-2-11-5-20-11-26s-14-9-24-7c-10 1-16 11-19 29-4 17-12 39-24 65-11 26-37 58-76 96l8 12M607 372c51-42 82-73 96-92 14-18 21-35 20-51-2-16-7-27-14-33-8-4-18-6-27-4-10 2-16 13-18 34 0 18-4 36-14 54-7 17-26 45-54 84l11 8m-27-139V76c0-10 2-19 6-25 3-6 14-9 33-10h110c9 1 16 4 21 10 4 6 7 13 10 23 2 9 4 20 6 33v91h21l4-80c3-30 14-51 33-61-11-26-24-42-37-47-12-6-25-9-39-10H600c-24 1-41 6-51 16-11 9-16 24-16 45v231l69-27c5-2 8-5 9-8 0-4-2-7-6-8-3-3-12-8-25-16M279 888c4-4 6-8 4-12-2-5-8-8-17-10-12-4-24-14-36-31-11-16-24-37-39-64h120l29 33 55-49c3-4 5-8 3-12 0-4-9-8-25-12-12-5-24-15-37-29-12-13-33-43-65-92h77l27 34 59-38c2-2 3-5 4-7 0-4-8-12-24-24V339l4-82c0-9-6-17-18-26-11-7-22-11-33-11v45H141v-18c0-8-6-16-18-25-11-9-22-13-33-14l4 105v309c-24-37-51-72-82-105L0 528c41 63 80 129 117 198 37 67 67 132 88 195l74-33M141 290h89v135h-89V290m136 0h90v135h-90V290M141 450h89v135h-89V450m136 135V450h90v135h-90m-138 25h105l69 135H174c-19-31-42-67-69-107l34-28m287-422 6-19c-166-48-266-80-299-95-33-13-57-29-70-47L20 98l406 90Z"/></symbol><symbol id="鲷_G" viewBox="0 0 1000 1000" data-size="21"><path transform="matrix(1 0 0 -1 37 975)" d="m451 903 59-43h324l33 41 49-41c6-2 9-6 10-11 0-4-10-13-30-26V113c2-20-2-38-13-54-10-15-31-28-65-39-5 18-17 33-35 44-17 12-45 24-84 36l6 19c48-11 82-17 102-19 19-2 31 0 37 5 4 6 6 14 6 25v703H498V503c1-135-16-240-51-315-34-72-85-135-154-188l-10 14c63 62 107 128 133 196 24 68 36 166 35 293v400m90-211h104v129l70-23c2-2 3-4 4-6v-6l-28-15v-79h43l30 39 43-46c2-2 3-4 4-6 0-8-2-12-6-12H691V556h57l31 37 47-45c2-2 3-4 4-6 0-8-4-12-14-12H586c-12 0-27-4-47-9l-18 35h124v111h-34c-22 0-41-3-56-8l-14 33m20-213 50-35h94l27 34 45-34c6-2 8-6 8-11 1-4-6-11-21-22V288l4-68c0-8-7-15-20-20-12-4-22-6-31-6v49H607v-33c0-9-5-16-17-22-11-4-22-7-33-9l4 70v230m46-210h110v150H607V269M229 923c3-1 5-4 3-10 0-4-3-6-11-8-10-2-20-11-30-27-9-14-20-35-31-61h111l24 34 60-41c5-5 6-8 2-10 0-5-8-10-25-16-14-8-27-17-39-29-10-12-29-39-59-82h98l22 29 54-35c4-4 6-7 6-8-1-4-12-13-33-29V396l4-75c0-8-6-15-18-23-11-6-22-10-33-12v49H131v-31c0-11-7-20-20-28-11-8-22-11-31-9l4 99v307c-24-43-48-77-72-102L0 581c39 70 72 137 100 203 25 66 44 121 56 166l73-27m-98-563h80v135h-80V360m127 0h76v135h-76V360M131 521h80v126h-80V521m127 126V521h76v126h-76m-133 26h90l56 119H150c-15-30-32-62-48-96l23-23m273-426 6-18c-170-52-265-84-287-95-22-9-39-20-51-34l-39 67 371 80Z"/></symbol><symbol id="鲸_G" viewBox="0 0 1000 1000" data-size="21"><path transform="matrix(1 0 0 -1 49 967)" d="m180 935 66-32c6-3 8-6 6-9-2-4-7-7-14-8-13-4-25-15-35-32-8-16-19-37-33-62h107l24 33 56-47c4-4 6-7 4-9 0-4-9-8-25-12-12-4-22-12-29-24-7-11-26-43-57-93h78l29 33 51-39c2-4 3-7 4-8 0-5-10-13-29-25V362l4-76c0-10-4-19-12-25s-20-11-35-14v49H123v-29c0-13-4-23-12-32-7-6-19-9-35-11l4 123v279c-12-30-35-66-68-107l-12 7c35 61 70 133 105 215 36 82 60 147 75 194m-57-616h88v141h-88V319m131 0h86v141h-86V319M123 483h88v133h-88V483m131 133V483h86v133h-86m-131 24h104l54 129H158c-19-37-39-73-58-110l23-19m289-434 4-16c-188-48-294-75-318-83-24-7-43-17-57-31L6 134l406 72m393 572 35 45 58-49c2-2 4-4 4-7 0-8-4-12-11-12H475c-14-1-36-4-67-10l-15 33h412M480 673l57-39h221l31 33 47-43 4-8c0-4-10-12-29-21V478l3-75c0-10-3-19-11-27-8-7-20-11-37-14v45h-94V105c2-29-3-52-16-68-11-15-30-27-56-37-7 25-17 40-32 47-13 6-37 16-70 27l4 16c31-8 55-14 72-18 15-2 28-2 37 0 11 2 15 15 14 37v298h-98v-11c1-12-4-22-15-30-12-6-24-10-35-10l3 118v199m47-242h239v179H527V431m28 494 8 10c36-16 65-32 85-49 22-16 34-30 36-43s1-24-4-33c-6-10-15-15-26-14s-18 7-21 19c-3 13-9 27-16 43-6 15-27 38-62 67m-45-606 62-31c2-4 2-6 2-8s-2-4-8-6c-13-2-24-7-31-17-6-8-21-29-45-65-24-34-69-89-136-165l-14 12c70 87 127 180 170 280m199-11 10 7c58-52 99-95 125-128 24-35 38-61 39-78 2-17-1-30-8-39-6-7-14-11-25-9-11 0-18 11-22 31-4 18-14 42-27 73s-43 78-92 143Z"/></symbol><symbol id="鲹_G" viewBox="0 0 1000 1000" data-size="21"><path transform="matrix(1 0 0 -1 21 973)" d="M688 675c1 0 3-3 3-8 0-4-3-7-11-8-14-2-32-19-55-53v-2h225l37 45 52-48 12-12c1-8-2-12-10-12H727c17-27 39-53 64-76 23-22 47-39 70-53 24-11 56-21 98-29v-14c-27-2-45-6-53-9-8-4-19-14-31-30-23 18-45 37-64 57-18 19-36 41-55 64-20 23-39 53-59 90h-92c-58-76-126-146-205-211l-9 14c54 58 107 124 158 197h-70c-14 0-32-2-55-8l-16 35h156c26 38 43 69 53 94l71-23m5-209c9-4 14-8 14-12 1-9-5-13-16-12-20-3-54-24-103-62-50-39-102-73-156-104l-8 14c47 36 87 70 121 102 32 31 66 66 101 105l47-31m131-154c35-28 55-45 59-49 2-4 1-8-2-12-4-5-13-6-26-4-12 1-40-17-84-53-43-34-101-70-173-106-71-37-146-67-225-88l-4 18c78 30 158 70 238 118 81 49 153 107 217 176M623 946c43-22 66-35 68-39 3-4 3-6 0-8-2-2-7-3-17-5-9-1-27-15-55-43-27-27-64-66-111-116l303 16c-26 29-61 59-106 90l6 12c51-21 91-41 121-61 29-20 47-37 55-53 6-15 8-28 6-39-4-10-9-17-16-21-6-4-12-5-20-2-7 1-13 6-17 15-5 9-10 22-16 37-140-13-228-23-263-29-35-4-64-13-86-29l-37 68c13 2 24 4 33 6 8 2 23 18 47 47 23 30 58 81 105 154m152-582c8-6 12-10 12-13 0-4-4-6-12-6-5 0-13-1-23-4-9-4-43-28-104-70-59-43-138-84-238-124l-6 16c63 33 119 67 168 104 50 35 102 80 157 134l46-37M211 894c4 0 6-2 6-6 4-4 1-8-8-12-14-5-23-12-29-22-4-9-12-28-24-54h117l20 27 59-39c3-4 5-8 3-12 0-4-9-7-25-11-12-10-23-22-35-36-9-14-28-44-57-91h80l32 37 54-45c2-3 4-5 4-8 1-4-8-12-27-25V333l4-59c0-8-5-15-14-21-8-5-21-9-37-10v39H111v-29c1-10-4-18-15-25-12-7-24-10-35-10l3 119v277c-18-35-35-62-50-82l-14 8c26 55 54 120 84 197 29 76 49 139 61 188l66-31M111 308h86v144h-86V308m133 0h90v144h-90V308M111 478h86v134h-86V478m133 134V478h90v134h-90m-133 26h104l55 136H146c-15-33-35-72-58-117l23-19m284-424 5-18C230 130 135 92 113 82 93 72 77 61 64 47l-44 55 375 112Z"/></symbol><symbol id="鲺_G" viewBox="0 0 1000 1000" data-size="21"><path transform="matrix(1 0 0 -1 16 962)" d="m451 581 49-37h72v137c-50-4-106-7-168-10l-2 17c85 12 150 22 196 32 45 8 90 19 134 35l36-55c4-8 1-12-10-13-12 6-28 9-47 7-18 0-49-4-94-11V544h67l31 35 47-37c4-2 6-6 6-12 0-2-9-8-26-17V376l4-80c-3-10-8-18-16-24-5-4-17-7-35-9v50h-78V125l104 13c-8 24-24 52-47 84l14 9c41-35 69-65 85-89 15-23 24-42 26-58s1-29-4-41c-5-10-12-15-22-16-7 0-14 2-19 6-4 4-7 13-8 26s-6 33-16 58C627 98 553 82 508 70c-43-9-70-21-82-35l-35 61 181 21v196h-74v-44c0-11-6-20-18-28-11-8-22-12-33-12l4 120v232m47-242h74v180h-74V339m119 180V339h78v180h-78m203 373 57-39c5-3 8-8 8-14 0-5-13-14-39-27V540c-1-100 2-174 8-225 5-48 13-92 23-130 9-39 18-65 27-76 7-12 14-6 20 17 3 23 10 74 19 152h20l-4-131c-2-53-2-86 0-98 1-11 4-20 8-26 2-5 1-11-2-17-5-6-13-6-26 0-11 4-27 17-46 39-20 21-36 53-49 95-15 43-26 91-33 146s-10 139-10 252v287H434c-15 0-29-2-43-8l-24 36h426l27 39m-591 5c3 0 5-3 3-9 0-4-3-7-11-8-10-3-20-12-30-27-9-15-20-35-31-61h111l24 33 60-41c5-4 6-8 2-10 0-4-8-9-25-15-14-9-27-20-39-33-10-15-29-43-59-86h98l22 29 54-35c4-4 6-7 6-8-1-4-12-14-33-29V362l4-74c0-8-6-16-18-23-11-6-22-10-33-12v49H131v-31c0-11-7-20-20-28-11-8-22-12-31-10l4 100v307c-24-43-48-77-72-102L0 548c39 70 72 139 100 207 25 68 44 125 56 170l73-28m-98-570h80v135h-80V327m127 0h76v135h-76V327M131 487h80v127h-80V487m127 127V487h76v127h-76m-133 26h90l56 127H150c-15-36-32-71-48-104l23-23m273-426 6-18c-170-52-265-83-287-94-22-10-39-22-51-36l-39 68 371 80Z"/></symbol><symbol id="鲻_G" viewBox="0 0 1000 1000" data-size="21"><path transform="matrix(1 0 0 -1 32 967)" d="m484 493 57-43h283l30 37 54-41c4-2 6-4 6-6-1-3-10-13-27-29V122l4-79c0-6-5-13-16-22-10-7-22-11-37-13v55H533V37c1-8-4-16-15-23-10-9-23-13-38-14l4 118v375m49-407h131v161H533V86m182 0h123v161H715V86M533 272h131v153H533V272m182 153V272h123v153H715M441 667c39 74 75 152 108 232 41-20 64-32 66-37 3-3 3-6 2-9-2-3-8-4-19-4-10-1-24-17-43-49s-48-76-86-131c45-35 74-63 88-82 13-20 21-37 23-53 0-15-4-27-12-35-7-8-16-12-25-10-8 2-15 11-20 28-3 17-10 37-19 58-9 22-29 52-63 92m166 10c33 65 64 138 92 219 45-21 69-33 71-38 2-3 3-6 1-9-1-2-8-4-19-6-10-1-23-14-39-39-16-24-42-67-78-129 41-35 68-63 82-82 13-19 20-36 21-51 0-16-4-27-11-35-8-9-17-12-26-10-8 2-15 12-19 29-4 18-10 37-18 59-7 21-26 52-57 92m159 2c35 65 68 136 99 213 43-26 66-41 69-45 2-4 3-7 2-10-2-3-9-4-20-4-10-1-22-11-37-31-14-19-42-59-84-121 41-35 70-63 88-84 17-21 27-39 29-55 1-16-2-27-10-35-7-9-16-12-27-10-10 1-16 10-20 27-2 17-9 38-21 61-11 23-34 55-68 94M279 901c4-4 6-7 4-11-2-5-8-8-17-10-12-4-24-14-36-31-11-16-24-37-39-65h120l29 33 55-48c3-4 5-8 3-12 0-4-9-8-25-12-12-6-24-16-37-29-12-13-33-44-65-92h77l27 33 59-37c2-2 3-5 4-8 0-4-8-11-24-23V353l4-82c0-9-6-17-18-26-11-8-22-12-33-12v45H141v-17c0-8-6-17-18-26-11-8-22-13-33-13l4 105v309c-24-37-51-73-82-106L0 542c41 62 80 128 117 197 37 68 67 133 88 196l74-34M141 304h89v134h-89V304m136 0h90v134h-90V304M141 464h89v135h-89V464m136 135V464h90v135h-90m-138 25h105l69 135H174c-19-31-42-67-69-108l34-27m287-422 6-19c-166-49-266-80-299-95-33-14-57-29-70-47l-43 70 406 91Z"/></symbol><symbol id="鲼_G" viewBox="0 0 1000 1000" data-size="21"><path transform="matrix(1 0 0 -1 24 972)" d="m508 763 70-28c3 0 4-4 2-9 0-2-8-8-23-18v-61h197v124l76-30c4 0 5-4 4-10 0-1-10-6-29-15v-69h54l37 45 51-56c2-1 4-4 4-8s-6-6-15-6H805v-68c-1-10-7-19-20-26-15-4-26-6-31-6v100H557v-74c-2-11-7-18-16-22-8-4-20-5-33-5v101h-28c-13 1-31-3-52-10l-18 35h98v116m189 158c6-2 9-4 10-6 3-5 1-8-4-10l-23-15v-77h138l34 43 54-50c2 0 4-2 4-6 0-8-4-12-12-12H680v-45l4-29c0-12-7-22-20-31-12-8-25-12-37-12l4 70v47H510c-14 0-32-3-55-8l-27 33h203v131l66-23M467 524l54-31h264l26 35 56-39c4-2 6-5 6-8 1-3-8-10-27-21V310l4-69c0-8-5-16-16-25-10-8-23-13-41-14l4 104v164H516V308l4-71c0-9-7-19-20-29-12-8-25-12-37-12l4 106v222M381 16c68 35 121 70 158 103s63 73 76 120c13 45 20 108 22 188l68-28c10-4 12-9 6-15l-27-8c-1-46-10-94-26-145-15-51-43-94-82-127C538 68 476 34 391 0l-10 16m303 178 7 14c57-25 102-47 135-64s53-35 59-52c6-18 5-31-2-41-8-11-16-15-26-14-9 1-19 11-29 27-8 16-21 34-41 53-18 17-53 43-103 77M229 892c3-1 5-4 3-10 0-4-3-7-11-8-10-3-20-12-30-27-9-15-20-35-31-61h111l24 33 60-41c5-4 6-7 2-9 0-5-8-10-25-16-14-9-27-20-39-33-10-15-29-43-59-86h98l22 29 54-35c4-4 6-7 6-8-1-4-12-14-33-29V356l4-74c0-8-6-15-18-23-11-6-22-10-33-12v49H131v-31c0-11-7-20-20-28-11-8-22-11-31-9l4 99v307c-24-43-48-77-72-102L0 542c39 70 72 139 100 207 25 68 44 125 56 170l73-27m-98-571h80v135h-80V321m127 0h76v135h-76V321M131 481h80v127h-80V481m127 127V481h76v127h-76m-133 26h90l56 127H150c-15-36-32-71-48-104l23-23m273-426 6-18c-170-52-265-83-287-94-22-10-39-22-51-35l-39 67 371 80Z"/></symbol><symbol id="鲽_G" viewBox="0 0 1000 1000" data-size="21"><path transform="matrix(1 0 0 -1 16 968)" d="M387 765h95v115l73-27c2-3 3-6 4-8-1-4-10-11-28-20v-60h80v168l77-34c3-2 5-5 5-7s-10-8-31-18V765h104v172l74-34c4-1 6-4 6-9 0-2-11-9-32-20V765h41l36 45 54-53c2-2 4-5 4-8 0-8-4-12-11-12H814v-99l4-59c2-10-4-19-17-29-14-9-26-13-35-12v45H662v-20c-2-10-8-17-19-21-10-4-22-6-36-6l4 94v107h-80V472h287l36 41c37-32 58-51 64-59-1-6-5-10-10-10H689v-97h155l39 47 49-49c9-6 15-12 15-18 1-6-2-8-9-8H725c13-33 31-62 52-88 20-25 47-48 80-70 34-20 71-32 112-37v-17c-31 1-52-2-61-9-8-8-15-17-23-28-20 14-41 32-65 54s-46 48-66 78c-20 31-39 70-55 117h-10V136l4-93c1-11-6-22-21-31-14-8-26-12-37-12l4 118v201h-10c-41-73-87-133-137-179-50-45-110-84-179-119l-10 14c60 38 114 81 162 130 45 48 81 100 109 154h-78c-14 0-36-2-66-7l-16 35h225v97h-98l-25-31-63 45c16 7 26 18 29 31v248h-37c-9 0-23-2-41-8l-17 36m379-159v131H662V606h104M229 896c3-1 5-4 3-10 0-4-3-7-11-8-10-3-20-12-30-27-9-15-20-35-31-61h111l24 33 60-41c5-4 6-8 2-10 0-4-8-9-25-15-14-9-27-20-39-33-10-15-29-43-59-86h98l22 29 54-35c4-4 6-7 6-8-1-4-12-14-33-29V360l4-74c0-8-6-15-18-23-11-6-22-10-33-12v49H131v-31c0-11-7-20-20-28-11-8-22-12-31-10l4 100v307c-24-43-48-77-72-102L0 546c39 70 72 139 100 207 25 68 44 125 56 170l73-27m-98-571h80v135h-80V325m127 0h76v135h-76V325M131 485h80v127h-80V485m127 127V485h76v127h-76m-133 26h90l56 127H150c-15-36-32-71-48-104l23-23m273-426 6-18c-170-52-265-83-287-94-22-10-39-22-51-36l-39 68 371 80Z"/></symbol><symbol id="鲾_G" viewBox="0 0 1000 1000" data-size="21"><path transform="matrix(1 0 0 -1 27 953)" d="M410 845h449l30 39 52-45c2-2 4-5 4-8 0-8-4-12-11-12H486c-13 0-32-2-56-7l-20 33m94-86 57-35h234l25 33 55-41c4-3 6-5 6-8-1-4-10-12-27-25V579l3-53c0-7-5-15-15-23s-22-12-37-14v39H553v-7c0-21-5-34-16-40-10-4-23-7-37-7l4 103v182m49-205h252v144H553V554m-100-92 53-39h342l27 37 61-41c2-2 3-4 3-6 0-4-9-14-29-29V104l4-63c-1-6-6-13-16-21-8-8-20-12-37-14v60H502V37c-1-8-6-16-16-23-9-9-22-13-37-14l4 116v346m49-372h154v149H502V90m203 0h156v149H705V90M502 265h154v132H502V265m203 132V265h156v132H705M223 874c4 1 6-1 6-6 3-4 1-8-8-12-14-4-24-11-30-21-3-10-11-28-23-55h121l20 28 58-39c4-4 5-8 4-12s-9-8-25-12c-12-9-24-20-35-33-10-14-28-44-57-90h80l31 37 55-45c2-2 3-5 4-8 0-3-9-12-28-25V341l4-82c0-9-4-16-13-22-9-5-21-8-37-9v39H125v-30c1-9-5-18-16-25s-23-10-35-10l4 119v285c-23-43-45-76-64-99L0 517c36 67 69 137 98 209 27 71 47 131 58 179l67-31m-98-582h88v145h-88V292m135 0h90v145h-90V292M125 462h88v135h-88V462m135 135V462h90v135h-90m-137 25h106l58 133H156c-16-33-35-70-56-111l23-22m283-451 6-18C227 98 122 65 100 55 77 45 61 33 49 20L8 86l398 85Z"/></symbol><symbol id="鲿_G" viewBox="0 0 1000 1000" data-size="21"><path transform="matrix(1 0 0 -1 18 955)" d="m648 911 79-33c3-3 5-6 3-10 0-2-3-4-9-6l-22-13V646h174l31 35 45-45c4-4 6-7 6-10s-4-7-14-10c-10-2-25-12-45-29l-54-57-12 8 43 80H498c-2-37-10-64-25-82-14-17-28-26-41-25-15 0-24 6-28 17-4 12 0 24 14 35 14 10 25 22 35 38 9 13 16 46 22 97h19l4-52h150v265m-164-66c35-26 61-49 79-69 17-20 27-39 29-56 1-18-2-30-10-37-8-9-18-11-29-8-10 3-17 14-20 33-2 19-8 37-15 55-9 17-24 41-45 72l11 10m368 4 56-43c5-6 7-10 6-12l-12-6c-20-4-41-17-62-39-22-21-50-49-84-82l-14 10c37 50 74 107 110 172M486 479h272l35 47 62-56c2-2 4-5 4-8 0-7-4-10-11-10H568c-13 0-35-2-66-8l-16 35m-80-160h446l39 53 70-60c2-3 3-6 4-8-1-8-6-12-16-12H639l35-25c5-2 8-5 8-10 0-4-5-7-16-8-20-8-40-23-61-47-20-22-60-63-121-122l344 18c-36 47-68 84-96 110l12 14c49-34 84-61 106-80 21-19 38-38 50-58 11-19 15-35 12-49-2-14-6-23-14-27-5-6-13-8-23-6s-16 8-18 19c-2 13-8 31-19 55-137-13-233-23-285-31-53-8-84-18-94-29l-45 68c29 4 51 15 65 32 48 49 91 108 130 176H488c-13 0-36-3-66-8l-16 35M207 860c4 1 6-1 6-6 4-3 1-7-8-11-14-5-23-12-29-22-4-9-12-28-24-54h118l23 27 59-37c3-4 5-8 3-12 0-4-9-8-25-14-12-9-23-20-35-33-9-13-28-43-57-90h80l32 38 54-45c2-3 4-6 4-8 1-4-8-13-27-26V327l4-82c0-8-5-16-14-21-8-6-21-9-39-10v39H111v-29c0-10-6-19-17-26-12-6-24-10-35-10l4 120v287c-14-23-30-48-49-74l-14 9c25 49 53 110 82 182 27 72 47 131 59 180l66-32m-96-582h86v145h-86V278m135 0h86v145h-86V278M111 448h86v135h-86V448m135 135V448h86v135h-86m-135 25h106l54 133H143c-16-33-34-70-55-111l23-22m291-443 6-18C223 86 118 51 96 41S57 20 45 8L4 72l398 93Z"/></symbol><symbol id="鳀_G" viewBox="0 0 1000 1000" data-size="21"><path transform="matrix(1 0 0 -1 25 972)" d="m492 915 61-41h222l30 39 60-47c4-4 6-6 6-8 0-4-10-13-31-27V620l4-68c0-11-5-19-14-26-10-5-23-8-41-7v44H545v-9c0-10-6-19-18-26-10-6-23-9-39-11l4 82v316m53-324h244v115H545V591m0 140h244v116H545V731M414 472h424l33 45 59-53c1-2 2-5 2-8 0-8-3-12-10-12H686V312h125l33 48 58-60c2-3 2-5 2-8 0-6-2-8-6-8H686V102c72-9 138-12 197-8l66 2V76c-23-4-41-8-54-12-12-3-21-15-26-33-21 0-55 3-99 8-46 4-84 12-114 24-30 9-56 23-80 41-22 17-47 53-74 108-18-55-47-99-86-134-38-34-77-60-119-78l-8 16c59 36 104 77 135 124 30 47 51 128 60 244l73-26c4-2 7-4 7-5 1-6-2-11-9-14-16-7-26-20-30-39-2-18-7-39-15-65 23-33 43-59 60-78 18-18 41-31 69-40v327H480c-13 0-31-4-54-9l-12 37M248 907c7 0 9-4 8-11 0-4-7-7-20-8-11-2-22-12-31-30-8-17-19-39-35-64h121l23 33 63-49c4-4 5-7 4-9-1-4-9-8-26-12-11-4-24-14-37-29s-35-46-66-92h84l29 33 59-39c2-4 3-7 4-8 0-4-11-16-32-35V339l2-61c0-6-5-13-17-19-11-6-22-10-33-12v41H129v-21c0-10-7-19-20-26-13-6-24-9-33-8l4 96v311c-14-22-37-53-68-92L0 558c40 67 76 136 107 207 32 70 55 130 71 179l70-37M129 313h86v139h-86V313m135 0h84v139h-84V313M129 478h86v132h-86V478m135 132V478h84v132h-84m-139 26h104l62 133H158c-19-36-40-71-62-108l29-25m301-418 4-18c-198-59-308-93-330-102-23-9-39-21-51-34L8 132l418 86Z"/></symbol><symbol id="鳁_G" viewBox="0 0 1000 1000" data-size="21"><path transform="matrix(1 0 0 -1 21 941)" d="m479 882 58-45h234l26 43 64-41c4-4 6-7 6-8 0-4-10-14-29-31V567l4-72c0-10-5-19-18-29-11-8-24-12-37-12v43H529v-21c0-10-6-19-19-26-12-8-24-12-35-12l4 114v330m50-360h258v139H529V522m0 165h258v125H529V687m-97-274 56-35h321l29 41 49-39c8-4 11-9 11-14 0-3-8-12-25-27V39h6l29 39 45-45c2-1 3-4 4-8 0-7-4-11-12-11H400c-13 0-32-2-56-8l-16 33h104v374m48-374h86v314h-86V39m133 0h84v314h-84V39m131 0h80v314h-80V39M232 835c7 0 10-4 8-12 0-4-6-6-19-8-12-2-22-11-32-29-9-17-22-39-37-64h123l24 33 62-49c4-5 6-8 4-10 0-4-9-8-25-11-12-4-24-14-37-30-14-15-36-45-67-92h84l30 34 58-39c2-4 3-7 4-8 0-4-10-16-31-35V267l2-61c0-6-6-13-18-19-10-6-21-10-33-12v41H115v-22c0-9-6-18-19-25s-24-9-33-8l3 96v314c-15-29-33-54-54-76L0 505c31 51 63 113 94 185 30 73 52 133 66 182l72-37M115 241h84v139h-84V241m133 0h84v139h-84V241M115 405h84v133h-84V405m133 133V405h84v133h-84m-139 25h104l62 133H141c-18-37-38-74-61-111l29-22m297-417 4-18C229 75 126 43 104 33 81 24 64 13 53 0L12 68l394 78Z"/></symbol><symbol id="鳂_G" viewBox="0 0 1000 1000" data-size="21"><path transform="matrix(1 0 0 -1 20 961)" d="M418 444h443l34 45 58-54c1-3 2-6 2-8 0-6-3-9-8-8H650c22-55 47-109 75-162l109 111 59-35c3-4 3-8 0-12 0-4-7-6-22-6-27-7-72-33-135-76 21-31 41-56 61-76 19-20 38-35 57-46 15-12 50-23 105-35l2-18c-24 0-42-3-55-9-11-6-23-16-35-30-40 30-78 69-115 117-35 46-63 93-82 140-20 48-36 93-49 137h-84V86l148 63 12-15c-74-40-121-68-140-83-20-15-36-32-47-51l-55 51c14 6 25 17 35 33v335h-10c-15-2-29-7-41-14l-25 39m72 479 61-41h260l29 41 62-45c2-4 4-7 4-8 1-4-10-14-33-29V597l4-65c0-8-7-17-20-25-14-8-25-12-33-12v43H539v-19c0-10-6-19-18-26-11-6-23-10-35-10l4 116v324m49-361h123v146H539V562m170 0h115v146H709V562M539 731h123v125H539V731m170 125V731h115v125H709m-477 36c4 0 6-2 6-6 4-4 2-8-8-12-14-5-23-12-27-21-4-10-13-28-25-55h121l19 27 59-39c4-4 5-8 4-12-1-3-9-7-26-11-11-9-23-20-35-34-9-13-28-43-56-89h78l33 37 55-45c2-3 3-5 4-8 0-4-9-12-28-25V358l4-82c0-8-4-15-14-21-8-5-21-9-39-10v39H137v-29c0-10-6-18-18-26-12-6-23-9-35-9l4 119v285c-26-48-51-87-74-119L0 515c40 80 75 156 104 228 26 72 46 132 60 180l68-31m-95-582h84v144h-84V310m133 0h87v144h-87V310M137 479h84v135h-84V479m133 135V479h87v135h-87m-137 26h105l59 132H166c-15-33-34-70-57-111l24-21m283-452 6-17c-186-55-290-88-313-99-22-9-39-21-50-35l-41 67 398 84Z"/></symbol><symbol id="鳃_G" viewBox="0 0 1000 1000" data-size="21"><path transform="matrix(1 0 0 -1 38 946)" d="m463 856 55-39h277l33 37 53-44c2-4 3-7 4-8 0-4-11-14-31-30V495l3-86c1-10-4-18-15-25-12-7-24-11-35-14v49H512v-16c0-7-7-15-20-23-11-6-22-9-33-8l4 100v384m49-414h127v159H512V442m174 0h121v159H686V442M512 626h127v168H512V626m174 168V626h121v168H686m-65-414c37-36 63-67 78-92 14-25 19-47 16-64s-8-28-16-34-16-7-25-3c-8 1-12 11-12 31 0 19-2 41-8 64s-20 53-43 90l10 8m188-90c35-36 61-67 80-92 16-24 26-45 31-62 4-18 5-32 4-43-3-9-7-17-14-25-6-6-14-8-23-5-10 2-16 13-18 32s-6 43-12 74c-5 29-25 66-58 109l10 12m-237-18V95c0-26 5-42 16-46 12-3 29-6 51-8h54c21 2 36 6 43 12 6 4 10 11 12 21 3 10 5 25 8 44 3 20 6 51 8 94h15l4-92c2-27 13-44 33-52-3-19-13-35-29-47-14-9-38-16-72-21h-82c-31 0-57 5-78 14-20 9-31 33-32 70v247l73-31c6-5 9-8 8-10-1-1-2-3-4-4-3-2-12-6-28-14m-109 10c0-65-2-107-6-125s-8-35-14-51c-5-13-13-25-23-36-10-10-22-15-35-13-14 0-22 6-24 17-2 10 0 19 8 29 8 7 17 17 27 29 10 10 18 21 24 35 6 12 15 50 27 115h16M236 864c4 0 6-4 4-10 0-3-4-6-11-7-10-3-20-12-30-28-10-14-21-34-35-60h115l24 33 56-47c5-4 6-8 2-10 0-4-8-9-25-15-12-5-23-14-35-28-10-14-30-43-59-86h90l22 30 50-35c4-4 6-7 6-8 0-4-12-14-33-30V329l4-74c1-8-5-16-16-24-10-5-20-9-31-11v49H127v-32c0-10-6-19-18-27-9-9-19-12-29-10l4 100v306c-24-43-48-76-72-101L0 515c43 69 78 138 105 207 28 68 49 125 61 170l70-28M127 294h84v135h-84V294m127 0h80v135h-80V294M127 454h84v127h-84V454m127 127V454h80v127h-80m-129 25h98l56 127H154c-18-35-37-70-56-103l27-24m258-425 6-18c-162-52-254-84-276-95-22-9-39-21-50-35L23 97l360 84Z"/></symbol><symbol id="鳄_G" viewBox="0 0 1000 1000" data-size="21"><path transform="matrix(1 0 0 -1 31 963)" d="m441 892 55-30h68l26 34 49-32c6-4 9-8 9-13 0-2-8-9-25-20V718l4-69c-1-8-6-15-16-21-9-7-21-11-35-14v43h-88v-35c0-8-6-17-19-25-12-8-22-12-31-12l3 127v180m47-211h88v158h-88V681m-4-141h284l37 43 52-49c2-2 4-4 4-8 0-7-4-11-11-11H566c-13 0-35-3-66-8l-16 33m-80-135h436l37 45 57-49c2-2 3-5 4-9 0-8-3-12-10-12H604l-34-92h211l28 37c41-29 61-47 60-54 0-2-4-6-12-12l-19-12c-14-73-25-123-35-147-9-24-22-43-39-59-16-14-43-27-82-41-7 16-16 29-28 39-11 9-41 22-88 39l6 16c37-9 67-15 90-20 24-4 43-4 59 0 13 6 25 18 35 37 8 17 19 67 35 152H572l-29-30-49 43c17 10 29 22 37 36l22 68h-67c-12 0-34-3-66-8l-16 33m274 485 52-30h92l22 30 51-32c5-4 9-8 9-13 0-2-9-9-29-20v-97l4-73c0-8-6-15-18-23s-23-12-33-12v37H725v-25c0-8-7-14-20-20-12-6-22-9-31-9l4 84v203m47-209h103v156H725V681M229 899c3 0 5-3 3-9 0-4-3-7-11-8-10-3-20-12-30-28-9-14-20-34-31-60h111l24 33 60-41c5-4 6-8 2-10 0-4-8-9-25-15-14-9-27-20-39-33-10-15-29-43-59-86h98l22 29 54-35c4-4 6-7 6-8-1-4-12-14-33-29V364l4-74c0-8-6-16-18-23-11-6-22-10-33-12v49H131v-32c0-10-7-19-20-27-11-8-22-12-31-10l4 100v307c-24-43-48-77-72-102L0 550c39 69 72 138 100 207 25 68 44 125 56 170l73-28m-98-570h80v135h-80V329m127 0h76v135h-76V329M131 489h80v127h-80V489m127 127V489h76v127h-76m-133 26h90l56 127H150c-15-36-32-71-48-104l23-23m273-426 6-18c-170-52-265-83-287-94-22-10-39-22-51-36l-39 68 371 80Z"/></symbol><symbol id="鳅_G" viewBox="0 0 1000 1000" data-size="21"><path transform="matrix(1 0 0 -1 19 964)" d="M650 606c6 21 8 60 6 120h24c4-82 4-136 0-163-3-27-9-46-20-58-10-13-21-19-35-18-14 0-21 4-23 14-3 7-2 16 3 25 6 9 14 21 24 34 10 11 17 27 21 46m-13 229c-14 2-45-3-94-14V624h12l29 37 41-43c1-2 2-4 2-8 1-7-3-11-10-11h-74V493c33-23 57-41 72-53 14-12 25-25 33-39 9-14 13-27 12-39-2-11-6-20-14-25-7-5-15-6-23-4-6 2-12 10-16 23-2 12-7 28-17 49-10 22-26 43-47 65V144l4-85c-1-10-8-19-22-28-14-6-25-9-33-10l4 121v308c-12-36-29-74-51-115-21-41-47-81-76-119l-12 8c32 56 59 117 82 185 25 66 43 129 55 190h-21c-15 0-34-3-57-8l-14 33h94v188c-51-8-90-14-119-18l-2 16c108 27 189 56 242 87 33-33 49-51 49-54 1-4-1-7-4-8-2-2-10-2-25 0m93 94 71-26c8-4 12-7 12-11s-12-12-36-24V571c30 41 60 91 92 151 43-24 65-39 65-45 0-5-2-7-6-8-4 1-11-1-20-4-8-2-21-14-41-35-19-20-49-50-88-90 11-84 24-153 39-207 13-53 32-102 55-146 23-43 53-74 90-91V80c-21 1-36 0-45-2-10-1-22-8-35-19-29 48-51 94-65 137-13 41-24 82-31 121-6 38-14 80-21 125-4-69-21-143-51-220-29-78-83-152-162-222l-14 12c64 72 107 137 131 196 21 57 35 109 43 154s14 108 17 190v377m-501-35c3-1 5-4 3-10 0-4-3-7-11-8-10-3-20-12-30-27-9-15-20-35-31-61h111l24 33 57-47c4-4 5-7 2-9 0-5-9-10-26-16-12-5-23-14-35-27-10-15-29-43-59-86h90l22 29 45-37c4-4 5-7 5-8 0-4-9-14-27-27V358l4-74c1-8-5-15-16-23-9-6-20-10-31-12v49H127v-31c0-11-6-20-18-28-9-8-19-11-29-10l4 100v307c-24-43-48-77-72-102L0 544c42 70 76 139 102 207 25 68 44 125 56 170l71-27M127 323h80v135h-80V323m123 0h76v135h-76V323M127 483h80v127h-80V483m123 127V483h76v127h-76m-125 26h90l56 127H150c-15-36-32-71-48-104l23-23m250-426 6-18c-154-52-242-83-264-94-22-10-39-22-51-35l-39 63 348 84Z"/></symbol><symbol id="鳆_G" viewBox="0 0 1000 1000" data-size="21"><path transform="matrix(1 0 0 -1 29 971)" d="M541 466h246v103H541V466m0 127h246v97H541v-97m6 123h224l36 35 45-37c5-4 9-8 9-12s-8-12-25-25V524l4-68c0-12-5-21-16-29-10-7-23-11-37-14v27H541v-2c0-11-5-19-14-23-10-6-23-8-39-8l4 92v246l55-29m51-334c-7-2-18-12-34-29h200l27 33 57-45c6-5 7-7 6-8 1-6-3-10-14-12s-22-11-33-25-24-30-39-49c-15-18-37-42-67-72 22-18 46-33 74-45 27-11 54-20 80-26 27-6 56-10 86-12V72c-15 2-30 0-43-6-13-5-26-15-39-31-37 16-70 33-99 51-29 16-59 37-92 63-26-20-66-45-119-75-52-26-126-51-221-74l-6 18c96 31 166 60 209 86 43 24 78 47 106 71-37 38-71 84-102 137-40-56-86-109-139-157l-11 10c31 42 60 82 86 119 23 37 49 82 76 137 39-14 60-22 62-25 3-2 4-5 2-8-2-2-6-4-13-6m-43-53c27-45 64-89 111-131 38 40 72 84 102 131H555m31 567c-7-2-15-11-25-26-9-14-18-29-28-45h293l39 47 61-60c0-2 1-3 2-4-1-6-2-9-4-8H520l-24-41c-31-46-55-76-70-92l-14 10c37 62 76 150 117 265 52-15 77-26 76-31 0-5-1-8-3-10-3 0-8-2-16-5m-357 11c3 0 5-4 3-10 0-3-3-6-11-7-10-3-20-12-30-28-9-14-20-34-31-60h111l24 33 60-41c5-5 6-8 2-10 0-4-8-10-25-15-14-8-25-18-35-30-8-11-26-38-55-78h90l22 29 54-35c4-4 6-6 6-8-1-3-12-13-33-29V384l4-74c0-8-6-16-18-24-11-6-22-10-33-12v49H131v-31c0-10-7-20-20-27-11-9-22-12-31-10l4 99v307c-24-43-48-77-72-101l-12 9c39 70 72 137 100 202 25 64 44 119 56 164l73-28m-98-558h80v134h-80V349m127 0h76v134h-76V349M131 509h80v127h-80V509m127 127V509h76v127h-76m-133 25h90l56 115H150c-15-28-32-58-48-91l23-24m273-426 6-17c-170-53-265-85-287-95s-39-21-51-35l-39 67 371 80Z"/></symbol><symbol id="鳇_G" viewBox="0 0 1000 1000" data-size="21"><path transform="matrix(1 0 0 -1 29 943)" d="M607 763h174l28 39 58-41c4-3 6-5 6-8-1-4-10-12-27-25V530l4-80c-1-7-6-14-16-21-10-8-23-13-39-14v35H518v-13c0-11-6-20-18-28s-24-12-37-12l4 124v273l47-31h62c14 25 29 66 47 123 48-15 72-24 72-28v-7c0-3-6-6-15-10-8-4-18-12-30-24-9-11-24-30-43-54m-89-285h277v117H518V478m0 144h277v113H518V622m-98-277h394l34 47 58-55c2-2 4-5 4-8 0-6-4-10-12-10H682V196h109l35 43 55-54c4-4 6-7 6-10 0-4-3-6-8-6H682V35h156l37 46 66-58c2-9 0-15-7-15H438c-14 0-36-2-67-8l-16 35h276v134H525c-13 0-35-3-66-8l-16 35h188v123H490c-13 0-32-2-54-7l-16 33M229 847c3-1 5-4 3-10 0-4-3-7-11-8-10-3-20-12-30-27-9-15-20-35-31-61h111l24 33 60-41c5-4 6-7 2-9 0-5-8-10-25-16-14-8-27-20-39-33-10-15-29-43-59-86h98l22 29 54-35c4-4 6-7 6-8-1-4-12-13-33-29V312l4-75c0-8-6-15-18-23-11-6-22-10-33-12v49H131v-31c0-11-7-20-20-28-11-8-22-11-31-9l4 99v307c-24-43-48-77-72-102L0 497c39 70 72 139 100 207 25 68 44 125 56 170l73-27m-98-571h80v135h-80V276m127 0h76v135h-76V276M131 437h80v126h-80V437m127 126V437h76v126h-76m-133 26h90l56 127H150c-15-36-32-70-48-104l23-23m273-426 6-17C234 93 139 62 117 51 95 41 78 29 66 16L27 83l371 80Z"/></symbol><symbol id="鳈_G" viewBox="0 0 1000 1000" data-size="21"><path transform="matrix(1 0 0 -1 25 961)" d="M672 868c-14-4-35-27-65-70h196l27 37 55-47c2-3 3-5 4-8 0-4-10-12-30-25V575l4-70c1-9-4-18-15-27-13-11-26-16-39-16v31H678v-41c23-49 45-94 64-133 43 41 84 83 121 127 37-28 57-44 59-49 2-4 1-7-2-9-3-1-10-2-22-2-11 0-28-8-50-24-22-13-53-34-94-60 25-43 49-77 70-102 22-26 43-45 63-56 19-12 40-21 62-28v-14c-27 0-47-1-58-4-12-2-24-10-36-26-41 42-74 88-99 140-26 49-52 113-78 191V92c0-31-6-53-18-65-11-11-30-20-56-27-5 16-12 28-22 37s-35 20-76 33l6 18c41-10 71-15 92-16 20 1 28 14 25 38v383H512v-12c-1-7-8-14-22-21-13-7-24-10-33-10l4 121v260l45-33h72c18 46 33 88 47 125 43-20 66-31 68-35 2-3 2-6 0-8 0-2-7-6-21-12M512 519h297v117H512V519m0 142h297v111H512V661M402 390h121l28 31c35-24 53-37 53-41 0-2-1-4-2-6-2-3-7-6-14-10-6-4-14-23-25-56-10-32-30-75-59-127-29-53-75-105-137-156l-10 14c43 47 80 99 110 157 30 57 50 113 60 168h-56c-16 0-32-2-47-8l-22 34M217 888c4 0 6-2 6-6 4-4 1-8-8-12-12-4-20-12-26-21-3-10-11-28-23-55h119l20 27 56-35c4-4 6-8 4-12 0-3-9-9-25-17-14-12-26-24-35-35-8-11-26-39-55-86h76l35 37 53-45c2-3 3-5 4-8 1-4-8-12-27-25V354l4-82c-1-8-6-15-16-21-9-5-21-8-37-10v39H123v-29c1-10-5-18-16-25s-24-10-37-10l4 119v277c-15-36-36-70-60-103L0 519c33 74 63 147 92 220 27 72 47 132 58 180l67-31m-94-582h84v144h-84V306m133 0h86v144h-86V306M123 476h84v134h-84V476m133 134V476h86v134h-86m-137 26h106l56 133H154c-15-34-35-71-58-114l23-19m287-440 6-17C229 117 126 81 104 72c-23-9-40-21-51-35l-41 67 394 92Z"/></symbol><symbol id="鳉_G" viewBox="0 0 1000 1000" data-size="21"><path transform="matrix(1 0 0 -1 23 964)" d="M486 472v443l65-25c11-4 13-10 8-18l-30-14V132l4-89c1-9-4-18-15-25-10-8-22-13-36-16l4 134v304c-33-35-53-59-60-72-6-12-15-28-26-49l-45 37 131 116M357 745l14 6c29-37 49-66 61-88 9-22 15-39 15-51 0-11-2-22-8-31-5-8-13-12-23-12s-16 4-20 14c-4 8-5 19-3 31 2 11 0 26-6 45-4 19-14 48-30 86m184-359h250v170l66-28c6-1 8-4 8-9s-10-12-29-22V386h33l29 41 51-53c2-2 3-5 4-8 0-4-4-6-12-6H836V98c1-31-3-53-12-67-8-12-25-23-51-31-2 18-12 32-31 43-17 12-41 21-70 29l4 16c37-7 62-11 76-14 13-2 23-1 31 2 9 5 11 21 8 48v236H623c-14 0-34-2-60-7l-22 33m57-63 11 8c33-25 57-47 73-66 14-18 22-36 25-53 1-17-2-30-10-39s-17-11-29-8c-10 2-16 11-16 27 0 15-4 32-9 49-5 18-20 45-45 82m-49 272c53 95 101 207 146 334 45-20 68-33 69-37 0-4-1-6-4-6-4 0-10-2-18-6s-27-37-56-100h154l27 26c35-35 53-54 55-57 0-2-1-4-2-6-3-2-10-4-22-6-11-2-25-18-41-49-16-29-44-70-86-121-39-51-107-107-205-168l-9 14c83 65 145 124 185 178 39 53 71 107 96 164H672c-16-27-32-55-49-84 25-14 45-25 59-33 13-9 21-20 23-34 3-12 1-22-6-31-6-8-13-11-23-10-10 2-16 12-20 30-4 17-17 38-41 62l-52-70-14 10M158 923l65-31c4-1 5-4 4-10 0-3-4-5-12-8-12-2-22-10-29-25-8-15-19-38-32-69h94l29 32 51-41c4-4 5-8 4-12-1-2-8-6-21-12-12-5-25-16-38-33-11-16-31-47-58-94h72l24 31 54-37c2-2 3-5 4-8 1 0-6-8-21-25V356l2-85c0-6-3-12-8-18s-18-10-39-14v45H113v-31c1-10-4-18-15-25-10-7-21-10-32-10l2 113v289c-14-29-33-57-56-82l-12 8c34 54 66 119 96 195 28 74 49 135 62 182m-45-615h75v140h-75V308m119 0h71v140h-71V308M113 472h75v125h-75V472m119 125V472h71v125h-71m-119 23h78l59 137H145c-18-37-36-73-55-108l23-29m248-414 4-21C206 129 117 96 98 86c-19-9-34-19-45-31l-35 62 343 89Z"/></symbol><symbol id="鳊_G" viewBox="0 0 1000 1000" data-size="21"><path transform="matrix(1 0 0 -1 38 970)" d="M283 18c59 80 101 159 125 237 24 77 41 193 49 348v240l63-43h294l28 39 53-39c5-2 7-6 7-12 0-3-8-11-25-25v-69l4-91c1-11-7-20-22-28-13-8-25-12-35-13v46H508c0-37-3-74-8-113l31-19h301l29 37 57-37c4-2 6-5 6-10 0-4-9-14-28-29V72c2-20-2-36-13-47S857 6 838 0c-8 16-18 27-29 35-12 7-32 15-61 24l6 17c41-8 64-13 70-13 4 0 9 1 16 3 6 2 9 10 8 24v188h-77v-88l4-54c0-9-6-16-19-23-13-8-24-11-33-11l4 86v90h-77V177l4-70c0-9-6-17-19-23-13-8-24-12-33-12l3 97v109h-70V146l4-93c0-8-8-16-23-24-15-9-26-13-34-11l4 118v269c-6-74-25-144-58-211-32-65-75-127-131-186l-14 10m252 288h70v142h-70V306m115 142V306h77v142h-77m121 0V306h75v142h-75M510 636h314v136H510V636m74 291 6 13c40-15 70-29 90-41 19-12 31-25 35-39 4-12 4-22 0-31-5-8-10-14-16-17s-12-4-19-2c-8 1-15 8-20 21-4 12-10 25-17 39-6 13-26 32-59 57m-355-26c3 0 5-4 3-9 0-4-3-7-11-8-10-3-20-12-30-28-9-14-20-34-31-60h111l24 33 57-47c4-4 5-8 2-10 0-4-9-9-26-15-12-5-23-14-35-28-10-14-29-42-59-85h90l22 29 50-35c4-4 6-7 6-8 0-4-11-14-33-29V366l4-74c1-8-5-16-16-23-11-6-22-10-33-12v49H129v-32c0-10-6-19-18-27-11-8-22-12-31-10l4 100v307c-24-43-48-77-72-102L0 552c42 69 76 138 102 207 25 68 44 125 56 170l71-28M129 331h76v135h-76V331m121 0h74v135h-74V331M129 491h76v127h-76V491m121 127V491h74v127h-74m-125 26h90l56 127H150c-15-36-32-71-48-104l23-23m250-426 6-18c-154-52-242-83-264-95-22-9-39-21-51-35l-39 64 348 84Z"/></symbol><symbol id="鳋_G" viewBox="0 0 1000 1000" data-size="21"><path transform="matrix(1 0 0 -1 14 950)" d="M508 407h131v119l64-24c5-1 8-2 8-4 2-3 1-6-2-9l-23-14v-68h115l27 35 59-45c2-4 3-7 4-8 0-3-10-10-30-21V268l4-29c1-10-4-19-15-26-10-8-22-12-36-13v29H686V91l164 6c-24 27-55 55-92 85l8 12c50-24 88-45 113-65 25-19 43-37 53-55 9-18 13-32 13-41 0-10-3-18-7-24s-12-9-24-8-19 8-23 22c-5 15-14 34-28 56-242-24-375-39-398-44-21-4-40-12-57-22l-35 66 266 8v142H506v-16c0-6-4-13-12-19-8-7-20-10-37-10l4 66v188l47-31m-2-155h133v131H506V252m180 131V252h128v131H686M393 494c99 34 181 74 246 120-78 62-132 132-162 211h-34l-31-4-16 29h403l31 33 55-41c6-4 9-8 8-14 0-1-13-8-39-21-28-43-53-79-77-107-21-30-45-57-72-82 25-12 49-22 72-30 22-8 50-17 86-25 35-6 72-10 110-12v-21c-30-1-49-4-59-10-10-7-18-16-25-27-61 21-104 38-129 50-24 11-53 27-88 49-73-49-164-86-274-111l-5 13m109 331c38-76 94-138 166-186 56 53 100 115 133 186H502m92-18 8 8c30-13 52-25 66-37s21-24 23-35c3-12 1-22-5-30-8-8-16-10-24-8s-14 8-17 20c-4 12-9 23-14 33-5 11-17 27-37 49m-365 66c3 0 5-4 3-9 0-4-3-7-11-8-10-3-20-12-30-28-9-14-20-34-31-60h111l24 33 60-41c5-4 6-8 2-10 0-4-8-9-25-15-14-9-27-20-39-34-10-14-29-42-59-85h98l22 29 54-35c4-4 6-7 6-8-1-4-12-14-33-29V338l4-74c0-8-6-16-18-23-11-6-22-10-33-12v49H131v-32c0-10-7-19-20-27-11-8-22-12-31-10l4 100v307c-24-43-48-77-72-102L0 524c39 69 72 138 100 207 25 68 44 125 56 170l73-28m-98-570h80v135h-80V303m127 0h76v135h-76V303M131 463h80v127h-80V463m127 127V463h76v127h-76m-133 26h90l56 127H150c-15-36-32-71-48-104l23-23m273-426 6-18c-170-52-265-83-287-95-22-9-39-21-51-35l-39 69 371 79Z"/></symbol><symbol id="鳌_G" viewBox="0 0 1000 1000" data-size="21"><path transform="matrix(1 0 0 -1 34 958)" d="M33 821h209v94l67-25c7-4 9-8 7-12-1-4-10-10-27-20v-37h117l33 39 55-47c1 1 1 0 2-3 1-8-3-12-10-12H289v-57h109l30 33 45-37c2-2 3-4 4-8 0-7-4-11-12-11H289v-59h149l25 35c29-22 47-37 53-45 4-7 1-12-10-13H219l-10-45h172l15 23 51-29c6-4 8-8 6-12 0-2-8-8-25-15-6-22-13-40-20-55-8-14-18-25-31-35-12-9-33-17-63-26-3 18-10 30-21 36-11 7-28 15-51 25l4 14c33-9 55-14 67-16 12-3 22-2 31 2 10 2 17 7 23 16 6 6 12 22 18 48H203c-18-43-41-79-68-107-28-27-71-55-129-82l-6 14c39 25 72 52 100 82 26 28 44 57 54 86 11 27 17 52 20 76H80c-14 0-32-3-55-8l-15 31h232v59h-80c-14 0-36-3-66-8l-16 31h162v57H105c-13 0-31-3-56-8l-16 31m408-363c88 34 158 68 209 102-33 36-59 86-78 150l-49-51-13 8c17 21 38 54 62 98 23 41 43 83 61 127 44-20 67-32 68-36 2-3 1-6-2-7-3-2-8-4-15-6-8-1-16-6-24-16s-27-36-55-78h221l33 45c39-34 60-54 63-61 2-5-2-9-12-11h-99c-28-68-63-122-104-162 21-14 43-26 66-36 24-8 47-15 71-21 23-4 52-7 88-8v-17c-15 1-29 0-43-4-13-4-25-16-37-36-27 10-56 23-86 40-31 17-62 37-92 58-59-39-136-70-231-94l-2 16m153 266c17-54 45-101 82-139 26 23 54 70 84 139H594M418 438c9-4 10-9 2-15-9 0-22-5-39-14h178l25 22 61-43c4-6 3-11-4-14-24-3-43-10-59-21-16-10-39-26-68-47h179l22 31 58-35c10-8 10-15 0-20l-21-15V147l6-55c-1-8-8-15-22-22-13-5-24-7-33-7v39H254V88c0-7-6-14-18-20-11-5-23-9-35-9l2 77v135c-47-32-94-58-142-79l-8 14c52 33 100 66 144 102 43 33 100 81 170 144l51-14M254 126h203v64H254v-64m252 64v-64h197v64H506m-252 26h203v64H254v-64m252 64v-64h197v64H506m-260 26h238l75 80H354c-30-26-66-53-108-80M8 31h806l38 53 64-61c2-1 3-3 4-7 0-6-5-8-14-8H90C78 8 57 6 25 0L8 31Z"/></symbol></svg>