<svg xmlns="http://www.w3.org/2000/svg"><symbol id="鸵_G" viewBox="0 0 1000 1000" data-size="21"><path transform="matrix(1 0 0 -1 40 959)" d="M281 884c2-4 4-6 4-6 0-7-6-11-17-14-18-4-43-34-77-90h139l29 38 49-34c6-4 9-8 10-13 0-3-3-6-8-10-15-8-23-14-23-18V581c-2-38-11-66-26-84-14-18-35-29-62-35-3 17-12 30-28 39-14 9-39 18-74 27l4 16c41-9 70-14 86-16 17-2 30 2 39 10 9 7 13 25 14 55v156H121V394h233l25 33 59-33c5-4 7-7 7-10 0-4-10-14-31-30l-10-191c-2-58-13-98-35-120-21-23-43-37-68-43-2 13-11 26-28 39-17 12-43 24-78 33l4 18 51-12c42-10 70-10 84 0 13 10 21 37 25 81l12 211H131l-27-37-61 41 31 37v404l53-41h43c17 50 31 97 43 143l68-33m41-608 4-13-152-49c-76-23-119-44-129-63L0 206l322 70m514 473 29 33 43-41c8-8 12-13 12-17s-4-6-12-6c-18-4-36-14-54-30-19-15-41-37-69-66l-14 6 61 96H525c0-16-4-36-9-59-6-21-14-37-24-47s-21-15-33-17c-10-1-19 3-25 13-8 8-6 18 5 30 10 9 22 23 36 43 13 18 23 54 29 107h17c3-17 4-32 2-45h313m8-275c12-7 15-13 8-20-2-3-9-3-20-2-12-1-27-8-47-21-73-63-138-114-195-153V122c-1-29 4-45 14-50 9-4 21-7 37-8h132c31 1 49 12 55 32 4 19 7 36 10 53 0 17 2 47 6 90h17c0-41 1-77 4-107 4-28 14-44 30-48-6-16-16-29-30-41-11-11-33-18-64-22H656c-29 0-51 2-66 6-16 3-27 12-35 28-8 15-12 36-12 65v484l78-31c5-2 8-4 8-8 0-3-2-6-6-9l-33-14V300c74 68 142 140 205 215l49-41M588 919c40-18 70-35 90-53 19-17 29-34 31-49 2-16 0-29-6-39-6-9-15-13-29-11-13 0-20 7-22 23-1 15-6 32-15 51s-28 41-57 66l8 12M174 702c23-10 45-22 66-37 22-16 33-31 33-45s-2-25-7-33c-6-9-14-11-24-8-8 2-13 9-15 22-3 11-10 25-20 41s-23 32-41 48l8 12Z"/></symbol><symbol id="鸶_G" viewBox="0 0 1000 1000" data-size="21"><path transform="matrix(1 0 0 -1 59 964)" d="M0 573h781l41 43 57-53c2-4 3-7 4-9 0-6-4-9-12-8H76c-12-1-30-5-55-10L0 573m61 203 35 6c49 37 95 86 138 147l59-35c6-6 5-11-2-14-23 1-48-11-74-33s-55-46-86-73l137 4c37 31 71 63 101 96l59-45c2-8-2-12-12-12-8 2-18 2-27-2-8-2-30-15-65-41-33-24-84-59-154-107l248 6v-20c-118-6-193-11-227-15-33-4-64-13-91-26l-30 53c20 1 41 4 63 8 30 18 68 46 113 84-35-4-64-8-88-12s-45-12-62-23l-35 54m375 0 35 6c37 33 76 80 117 141l60-33c6-6 6-11-2-14-22 0-43-8-62-25-18-18-45-42-80-73l152 4c33 28 63 56 92 86l53-47c2-8-1-11-8-11-8 0-16-1-25-2-8-2-28-14-59-36-30-19-86-58-168-117l268 22v-20c-130-16-211-26-243-31-31-4-58-12-82-25l-35 54c20 2 39 6 57 12 30 16 72 47 125 94-39-2-72-6-100-12-27-5-49-13-66-25l-29 52m-82-320h261l30 33c40-25 60-39 60-43 1-4-1-6-4-8-4-1-12-6-23-13-3-35-6-63-10-82-4-20-12-35-25-47-13-11-30-18-51-22-2 10-10 20-24 30-11 9-35 19-70 31l6 16c35-8 59-13 70-14 11-2 20-2 28 0 5 1 11 6 15 14 4 7 8 34 12 80H230V253h514l31 33 55-39c5-4 7-8 6-12s-12-10-33-19c-6-55-13-96-20-124-8-28-17-48-29-61-12-11-32-21-61-31-11 20-22 33-31 39-10 5-37 14-82 27l6 20c41-10 72-16 92-18 17-2 31 1 41 8 9 9 16 25 21 50 5 26 11 60 16 102H244l-27-32-63 37 28 22v230l52-29h90l47 84c35-10 54-16 57-19 2-5 2-8 0-10-2-1-6-2-12-4-4-2-10-5-18-8-6-4-21-18-44-43M0 144h555l39 43 56-49c2-2 4-5 4-8 0-7-4-11-11-11H82c-14 1-36-2-66-8L0 144m340 242 6 11c40-9 70-20 90-31 19-12 30-23 33-35 2-12 0-23-6-31s-14-12-24-12c-9 1-17 7-23 20-5 11-12 23-21 35-8 11-27 25-55 43Z"/></symbol><symbol id="鸷_G" viewBox="0 0 1000 1000" data-size="21"><path transform="matrix(1 0 0 -1 53 962)" d="M6 790h185v133l67-26c5 0 8-1 8-5 5-6-4-14-28-24v-78h69l27 37 45-45c1-2 2-4 2-6 0-7-4-11-12-11H238v-71l116 22 3-16-119-33v-98c0-17-4-32-13-45-9-12-26-23-51-33-6 22-18 37-37 45-18 6-37 13-59 22l4 15c30-6 52-10 66-13 15-3 26-2 34 2 6 1 9 11 9 27v62h-3c-81-17-131-35-151-54L0 651l191 34v80H64c-13 0-28-3-43-8L6 790m287-277-4 15c42 21 78 41 107 61 27 21 51 43 73 64-26 12-55 22-88 30l6 15c36-6 67-11 95-17 11 22 20 48 26 78l-45-4c-16-1-28-4-37-10l-26 33 108 6v141l74-26c8-2 10-7 6-13 1-1-11-6-33-16v-86l119 6 29 37 51-41c4-2 7-6 8-10 0-4-2-7-6-9l-26-18c0-23 1-47 4-70 4-24 11-45 22-63 10-17 23-32 41-43 17-10 29-6 33 14 4 19 9 52 16 98h17v-81c0-18 2-33 6-44s10-21 18-28c8-6 9-11 6-17-4-7-20-8-47-4-28 3-55 13-82 31-27 16-48 45-63 88-13 41-18 86-13 135l-133-6c-5-31-15-61-32-90 27-8 47-16 61-25 13-8 22-18 27-30 4-11 4-22 0-31-4-8-11-13-21-14-9 0-17 6-26 20-8 14-28 29-60 47-22-26-50-48-84-67-33-20-75-39-127-56m117-43h207l29 33c41-25 61-40 61-43 1-4-1-7-4-8-4-2-12-6-23-14-3-41-6-72-10-91-4-20-12-35-25-47-13-11-30-18-51-22-2 13-10 24-24 32-12 7-34 16-66 27l6 16c32-6 54-10 66-12 11-2 20-2 28 0 5 1 11 6 15 13 4 8 8 38 12 90H254V255h494l31 33 55-39c5-4 6-8 6-12-1-4-12-10-33-19-6-55-13-96-20-124-8-28-17-48-29-61-12-12-32-23-61-33-11 20-22 33-31 39-10 5-41 16-92 33l6 20c48-12 82-19 102-22 17-2 31 1 41 8 9 9 16 25 21 50 5 26 11 60 16 101H268l-28-31-58 37 23 22v242l53-29h123l45 86c38-12 58-20 60-24s2-8 0-10c-2 0-6-1-11-3-5-1-10-2-16-4-6-3-22-18-49-45M4 146h543l39 42 57-48c2-2 3-5 3-8 0-8-3-12-11-12H86c-14 0-36-2-66-8L4 146m332 251 6 12c46-10 79-21 97-33 20-12 31-23 34-35 2-13 0-23-6-31s-14-12-24-12c-9 1-17 7-23 19-5 12-12 24-22 36-8 11-29 26-62 44Z"/></symbol><symbol id="鸸_G" viewBox="0 0 1000 1000" data-size="21"><path transform="matrix(1 0 0 -1 49 960)" d="M0 817h395l46 49 55-56c2-2 4-5 6-8 0-8-4-12-12-12H279l-70-150h186l31 35 53-39c4-4 7-8 7-12s-9-12-29-25V128c1-25-4-45-16-60-10-13-27-23-50-31-10 22-22 36-36 43-13 8-35 16-66 24l4 14c50-6 83-10 98-11 14 0 20 8 19 23v482h-74V280l4-68c0-9-5-18-18-27-11-10-24-15-37-14l4 109v332h-68V253l4-65c0-9-7-19-20-29-14-10-25-14-35-13l4 111v355H96V161l4-89c0-9-7-17-20-25-14-9-25-12-35-12l4 118v528l51-41h88l33 150H70c-14 0-33-3-56-8L0 817m467-566h224l39 51 53-55c2-2 3-4 4-8 0-8-4-11-12-11H549c-14 0-37-3-69-8l-13 31m262 641c0-2 1-4 1-6s-5-5-15-8-32-31-67-86h133l28 39 50-39c4-3 6-7 6-14 0 0-2-3-8-7l-19-18V616c-1-62-10-103-27-123-18-20-40-35-65-45-5 14-12 25-21 33-9 6-34 16-75 30l4 15c48-9 80-13 96-11s27 11 31 27c5 15 9 40 10 74v153H584V399h223l35 43 53-41c5-4 7-7 5-11 0-4-10-12-31-24-2-116-5-190-8-220-2-30-8-59-19-85-13-27-41-47-86-61-7 15-16 27-27 35-12 10-46 22-102 37l4 18c70-12 114-17 133-16 19 2 32 9 39 22 6 11 11 33 13 63 2 29 4 102 6 217H592l-22-29-62 37 27 27v420l47-39h43c17 55 29 98 37 129l67-29M627 704c42-21 70-39 84-53 12-12 19-25 21-39 1-12-2-22-9-31-6-8-14-10-24-8-8 2-13 10-15 24-3 13-8 27-16 41-8 13-23 31-47 54l6 12Z"/></symbol><symbol id="鸹_G" viewBox="0 0 1000 1000" data-size="21"><path transform="matrix(1 0 0 -1 54 956)" d="M244 786V591h113l34 45 56-53c2-2 4-5 4-8 0-8-4-12-12-12H244V405h65l31 39 56-41c4-2 6-5 6-7 0-5-8-14-25-28V136l4-56c0-8-6-16-18-23-9-8-21-12-35-12v67H113V55c0-7-6-16-19-26-13-8-23-11-31-9l3 104v320l51-39h80v158H70c-13 0-32-2-54-7L0 591h197v189c-68-10-125-17-172-19l-2 15c79 16 147 32 206 47 56 15 104 31 144 49 33-35 50-55 51-60 0-8-7-10-22-6-15 2-31 3-47 2-15-1-52-8-111-22M113 138h215v242H113V138m295 109h262l35 49 61-55c2-2 3-4 4-8 0-7-4-11-12-11H490c-13 0-36-3-66-8l-16 33m281 637c2-4 2-7 2-8 0-5-7-8-19-10-11-2-31-30-63-84h137l27 35 51-37c6-2 9-7 10-13 0-2-5-7-14-14l-19-12c1-81 0-138-4-174-4-33-14-60-29-78-14-17-34-31-61-41-5 15-13 27-25 37-11 9-36 21-75 34l4 17c49-13 80-19 96-17 14 0 25 5 31 15 7 10 12 27 14 51 3 23 3 80 2 172H527V397h272l31 43 57-43c4-3 6-7 6-11-1-4-10-13-28-26-8-121-13-195-17-222-4-26-11-52-22-77-10-23-37-43-80-61-6 18-16 32-29 43-14 10-45 23-94 39l4 18c66-17 109-24 129-24 17 2 29 10 35 24 4 11 8 29 12 53 3 24 8 96 13 217H537l-23-33-65 41 31 27v414l47-37h55c18 55 31 98 37 129l70-27M582 718c42-22 70-41 84-55 13-12 20-25 22-39 1-12-1-21-8-29-8-8-17-11-26-8-8 1-13 8-17 21-2 12-7 26-14 41-8 14-24 33-49 57l8 12Z"/></symbol><symbol id="鸺_G" viewBox="0 0 1000 1000" data-size="21"><path transform="matrix(1 0 0 -1 34 958)" d="M275 874c6-5 4-10-4-16-19-4-35-21-46-52-22-52-47-110-77-174l41-16c6-2 10-4 10-8 6-4-2-10-25-19V128l4-89c0-7-7-16-20-25-12-9-23-14-33-14l4 124v465C94 513 55 446 12 388l-12 8c52 102 96 201 131 294 34 94 58 166 72 219l72-35m-72-205h154v227l75-26 6-6c0-6-3-10-8-11l-26-12V669h61l33 43 51-51c1-2 2-5 2-8 0-7-4-11-12-11H404V540c39-22 68-41 86-57 18-15 30-31 35-46 6-14 6-28 0-41-4-12-13-18-25-18s-21 9-25 27c-5 17-11 33-20 49-7 16-24 35-51 59V142l4-91c0-10-6-19-19-28-12-9-24-15-35-15l3 130v373c-23-58-45-109-66-155-21-45-51-95-90-148l-13 8c24 53 46 101 66 146 19 43 37 89 55 139 17 47 31 94 43 141h-82c-11 0-26-3-45-8l-22 35m246-430h260l31 43 53-47c2-2 3-5 4-7 0-8-4-12-12-12H520c-14 0-30-3-49-8l-22 31m301 631c-12-2-32-28-61-78h118l27 33 45-41c6-4 9-8 10-13-1-2-6-6-16-12l-16-14V601c-2-63-11-104-29-123-16-18-36-30-60-38-3 13-10 25-22 38-11 11-32 20-62 27l4 17c44-9 70-14 80-15 9-3 18 2 27 14 9 9 14 36 16 80v164H619V388h225l27 37 55-43c4-4 6-8 6-12s-10-12-30-21c-7-107-13-175-17-203-3-28-8-54-16-80-8-24-33-45-74-60-4 21-14 34-29 41-16 8-46 18-90 31l4 18c57-12 95-17 113-16 17 3 28 10 33 22 5 11 10 30 14 57 3 28 8 95 14 203H627l-35-31-49 43 27 22v429l43-33h49c22 53 33 94 35 123 45-12 69-19 73-23 2-4 3-8 1-12-2-3-9-7-21-10m-78-160c30-18 52-35 66-51 13-14 20-28 20-43 0-13-3-24-10-31-8-7-16-9-23-6-9 2-14 10-16 24-1 11-4 25-10 41-4 13-17 32-37 56l10 10Z"/></symbol><symbol id="鸻_G" viewBox="0 0 1000 1000" data-size="21"><path transform="matrix(1 0 0 -1 22 971)" d="M227 837h168l37 47 54-55c2-3 4-6 4-10 0-6-4-9-11-9H332c-29-1-55-4-78-10l-27 37m0-229h171l40 51 58-58c2-2 3-5 4-10 0-7-4-10-12-10h-82V140c2-36-4-62-19-77-14-14-32-25-53-34-6 22-18 39-35 49-16 10-39 20-70 29l5 17c28-7 51-12 71-15 18-2 32-1 43 4 9 4 13 19 11 44v424h-74c-14 0-26-3-37-8l-21 35m3 274c6-4 8-8 4-12 1 0-6-2-21-8-14-4-34-21-61-52-25-31-70-77-134-139L4 681c66 84 121 164 166 240l60-39m20-231c5-4 7-6 6-7 2-3-1-6-8-10-10 2-23-2-37-12-16-26-31-51-45-74V146l4-76c0-11-7-20-20-27-12-8-25-12-39-12l4 107v345c-41-56-76-96-103-119l-12 8c33 53 67 107 104 164 35 56 63 108 85 154l61-39m197-377h291l35 47 51-50c2-2 3-5 4-8 0-8-4-12-12-12H529c-13 0-36-3-66-8l-16 31m291 637c2-2 2-4 2-6-2-4-10-8-21-11-12-2-34-30-67-86h161l27 35 51-39c5-3 9-7 9-14 0-2-4-6-13-12l-22-13c-6-86-10-145-11-176-2-30-10-55-24-74-12-19-27-33-47-43-12 14-25 26-37 37-12 10-41 21-88 33l8 16c51-13 84-18 100-16 13 2 24 8 33 18 8 11 12 27 12 46s2 79 5 178H572V411h293l31 39 53-41c5-4 7-8 6-12 0-3-12-11-35-23-4-115-8-191-12-228-4-34-12-63-23-87-11-22-38-41-80-59-7 18-16 31-28 41-11 10-47 22-109 35l4 18c73-14 118-20 137-18 17 1 30 9 39 22 7 11 12 33 15 65 2 33 4 108 8 223H582l-27-32-57 34 25 25v426l47-31h57c22 58 36 103 43 134l68-31M635 729c41-18 69-33 84-44 13-12 21-24 23-36 2-11 0-20-8-25-6-6-13-9-21-8-9 2-15 9-20 22-4 13-9 25-17 37-8 10-24 25-49 43l8 11Z"/></symbol><symbol id="鸼_G" viewBox="0 0 1000 1000" data-size="21"><path transform="matrix(1 0 0 -1 32 973)" d="m223 942 64-21c12-5 15-11 8-16 0-2-3-4-8-4-8-4-16-11-25-23-20-28-35-53-45-74h140l30 39 51-35c5-3 9-8 9-14 0-2-9-9-29-20V104c1-23-5-39-16-49-8-10-28-24-60-41-12 31-26 49-41 52-7 7-31 16-72 28l5 17c44-9 72-15 84-17 12 0 24 0 36 2 11 2 17 9 17 21v362H162c4-145-8-251-37-318C98 95 60 42 12 0L4 12c39 52 68 114 88 186 17 73 25 168 23 283H76c-21 0-40-3-56-7L0 507h115v336l49-39h29c16 52 26 99 30 138m-59-437h207v273H164V505m68 221c45-41 71-73 77-94 4-20 3-35-2-45-6-9-13-14-22-16-8 0-15 1-21 4-7 2-9 11-8 28 1 15-1 31-6 48-4 18-14 41-29 71l11 4m-2-295c33-35 54-63 63-82 10-19 15-34 16-45-1-10-4-20-10-32-6-10-16-15-29-13-12 1-18 12-18 31 1 20-1 39-4 59-5 19-14 45-27 78l9 4m217-168h268l35 47 51-51c2-2 3-5 4-8 0-8-4-12-12-12H529c-13 0-36-2-66-8l-16 32m264 652c1-2 2-4 2-6-3-4-10-8-22-12-11-1-33-29-66-85h176l27 35 47-39c6-3 9-8 10-14 0-2-5-6-14-12l-17-10c-6-82-10-140-12-171-2-30-10-55-24-75-11-18-31-32-58-43-5 15-13 27-26 38-11 9-39 20-84 33l4 15c51-12 84-17 100-15 14 2 23 8 29 17 6 12 10 28 12 47 1 20 4 76 8 170H557V423h289l31 39 53-41c4-4 6-8 6-12s-12-12-36-23c-4-115-7-194-11-235-4-37-12-68-24-92-11-21-38-40-80-59-6 18-15 31-27 41-11 10-44 22-98 35l4 18c65-14 107-20 125-18 17 2 29 10 37 24 5 12 10 36 14 71 3 35 6 111 10 226H563l-24-31-57 33 26 26v418l47-31h45c22 58 36 103 43 134l68-31m-84-174c34-18 58-33 72-45 14-11 22-23 24-35s-1-20-8-25c-8-7-16-9-24-8-7 1-13 8-17 21s-10 26-18 38c-8 10-20 24-37 42l8 12Z"/></symbol><symbol id="鸽_G" viewBox="0 0 1000 1000" data-size="21"><path transform="matrix(1 0 0 -1 48 969)" d="M291 890c1-2 1-4 2-6 0-4-4-7-12-8l-25-18-12-15c54-24 94-45 119-63 24-17 39-34 47-49 6-15 7-29 4-41-4-11-12-17-23-17-11-1-20 6-28 19-6 15-19 35-39 61-19 25-49 50-88 74-35-70-71-131-107-185-35-54-74-102-117-145L0 507c42 58 84 126 125 203 41 76 74 148 98 217l68-37M102 589h187l33 43 53-49c2-2 3-5 4-8 0-8-5-12-14-12H184c-12 0-34-2-65-7l-17 33M92 450l56-37h141l31 39 47-35c8-4 12-8 12-14 0-3-10-12-29-27V179l5-79c2-8-4-17-19-28-14-8-25-13-35-13v61H143V78c0-8-6-15-18-23-10-8-23-13-37-16l4 116v295m51-304h158v242H143V146m238 107h291l35 49 57-55c2-2 3-4 4-8 0-8-4-11-12-11H463c-14 0-35-3-63-10l-19 35m256 685 64-31c1-2 1-4 2-6-1-2-6-4-15-7-10-2-34-34-73-94h164l28 35 47-39c5-3 9-7 9-14 0-2-4-6-11-13l-20-10c-6-87-10-147-14-180-2-32-10-57-25-74-14-18-33-31-59-41-2 14-9 27-21 37-10 10-37 21-82 35l4 18c50-13 82-18 97-16 15 1 26 7 32 16 5 9 8 24 9 45 2 19 6 78 14 175H535V397h272l35 45 54-45c6-3 8-7 6-11 1-4-10-12-33-24-8-119-14-193-15-220-3-27-10-53-22-79-10-24-37-45-80-63-8 18-18 31-29 41-12 10-46 23-102 39l4 20c70-17 113-24 131-24 15 1 27 9 35 22 6 11 11 31 16 57 2 28 7 100 13 217H537l-27-31-59 49 31 21v426l57-37h53c23 60 38 107 45 138m-45-222c46-20 76-35 90-47 11-11 19-22 21-33 1-10-1-18-6-26-4-7-11-11-21-11-11-1-18 5-22 19-4 13-9 26-17 37-7 11-24 27-51 49l6 12Z"/></symbol><symbol id="鸾_G" viewBox="0 0 1000 1000" data-size="21"><path transform="matrix(1 0 0 -1 33 962)" d="m830 806 35 50 65-60c1 0 2-3 4-8 2-6-1-8-8-8H611V671l4-57c0-11-8-21-21-29-14-9-26-13-37-12l4 98v109H398V661l4-43c0-12-6-22-19-31-13-8-26-12-39-12l4 84v121H109c-6 0-25-2-56-8l-14 34h791M402 913l6 12c33-9 59-18 76-28 16-9 27-21 34-35 6-12 7-24 2-37-7-10-16-15-28-15-12 2-19 9-23 23-3 14-8 25-16 35-7 11-24 26-51 45M229 735c39-25 59-41 60-47 0-3-2-6-6-7-4-2-10-3-19-4-10-2-34-18-73-49-39-29-99-70-179-123L0 517c86 67 162 140 229 218m441-35 6 16c45-10 86-22 123-35 35-12 64-24 88-37 21-12 35-26 41-43 4-16 3-28-2-38-6-9-14-14-24-13-8 0-17 7-27 21-10 13-24 28-43 43-18 14-38 27-61 39-21 12-55 28-101 47M506 599c2-2 3-4 4-6 1-4-2-8-10-12-8-2-16-4-23-6-6-2-25-21-55-58h236l24 31c41-24 61-37 62-41s-1-7-4-8c-2-2-10-8-23-20-2-41-6-72-12-93-4-22-12-39-23-51-12-12-28-21-47-25-5 13-12 23-22 29-9 6-32 14-66 23l6 18c35-9 58-13 70-14 10 0 18 2 23 6 6 3 10 12 14 25 4 14 7 45 10 94H283V286h490l26 39 58-43c5-4 7-8 6-11 0-4-10-13-31-26-6-66-12-114-19-143-8-32-19-53-32-65-12-11-32-23-60-37-12 23-24 36-35 41-12 5-40 14-84 27l3 20c43-10 75-16 94-18 18 0 33 4 47 12 13 10 22 28 27 56 4 28 8 70 12 125H289l-27-34-57 45 31 30v234l45-21h117c21 45 38 81 49 107l59-25M383 448l8 12c48-18 81-33 97-45 15-12 24-24 26-37 0-12-3-22-10-27-7-6-14-8-22-6-8 1-15 8-19 21-5 12-12 23-22 33-7 11-27 27-58 49M59 163h533l35 45 61-49c1-2 3-4 3-8 0-7-3-11-11-11H141c-14 0-36-3-67-8l-15 31Z"/></symbol><symbol id="鸿_G" viewBox="0 0 1000 1000" data-size="21"><path transform="matrix(1 0 0 -1 45 973)" d="M234 776h166l34 43 48-50c5-5 8-8 8-10 0-6-2-9-4-8h-99V341l101 41 8-18c-139-67-213-106-225-115-11-10-24-20-37-29l-33 58 137 49v424h-41c-10 1-22-3-35-10l-28 35m198-521h250l37 49 52-53c2-3 4-5 4-8 0-8-4-12-11-12H514c-14 0-36-2-67-7l-15 31m300 664c7-4 10-8 8-12 0-2-6-4-19-8-14-2-36-35-67-97h123l32 37 46-43c6-3 10-9 10-16 0-2-6-6-15-11l-16-10c-2-87-5-147-8-180-2-32-11-56-25-72-15-16-31-26-51-31-4 13-12 24-25 33-13 8-37 17-75 25l4 18c51-9 82-12 92-10 11 0 20 6 25 18 6 11 9 25 10 43 0 16 2 73 4 171H576V413h244l30 43 54-45c5-4 7-8 6-10 0-4-10-13-31-25-3-122-6-197-10-227-3-28-8-53-15-73-8-17-21-32-38-45-17-11-39-21-64-31-6 21-16 36-31 45-16 8-55 21-117 41l5 21c74-17 123-27 149-29 25 0 41 7 49 20 7 13 13 34 17 63 2 29 4 104 6 227H584l-25-34-57 45 25 24v410l51-31h49c18 62 29 110 35 144l70-27M615 741c41-26 69-47 82-62 13-14 20-28 20-41 0-14-3-24-10-32-6-7-14-9-23-5-10 3-16 11-18 23-1 12-4 25-10 39-6 12-22 35-49 70l8 8m-394-47 17-7-74-344c-4-20-10-47-16-80 0-30 1-57 4-82 2-26 6-51 10-77 4-28 3-49-2-63-6-12-15-18-29-18-14 1-22 8-26 20-3 14-3 35 0 62 4 27 8 52 10 74 2 21 0 42-4 62-6 14-22 26-48 35L2 290l2 16 78-4c23 0 39 19 49 58l90 334M41 890l6 11c37-10 68-21 94-33 23-10 41-23 52-37 11-13 18-26 20-39 0-12-3-21-8-29-6-7-14-10-21-10-9-1-16 4-22 14-4 9-10 20-16 33-5 12-14 23-25 35-10 11-37 29-80 55M0 653l6 16c39-12 70-23 92-35 20-11 35-23 45-37 7-14 11-26 9-37 0-11-4-19-9-26-7-6-14-8-22-6-8 0-15 7-19 22-5 13-10 25-14 33-5 8-14 19-27 31-13 11-33 24-61 39Z"/></symbol><symbol id="鹀_G" viewBox="0 0 1000 1000" data-size="21"><path transform="matrix(1 0 0 -1 37 973)" d="M14 835h347l37 45 49-49c2-3 4-6 6-10 3-8 1-11-6-11H256V169l205 39 4-23c-135-30-233-53-293-70C111 98 68 80 43 61L0 122l207 37v651H84c-12 0-29-4-53-12l-17 37M6 228c29 101 51 190 66 267 14 76 25 139 33 190l71-24c6-6 5-12-2-15-14-6-24-16-29-30-6-13-16-53-30-117 29-37 49-68 61-94 12-24 17-45 15-62s-6-28-13-33c-6-5-14-6-24-2-8 1-11 9-11 25 0 14-2 33-6 59-4 25-14 54-30 86-23-96-52-181-87-256l-14 6m271 66c18 78 34 152 47 223 13 69 21 129 26 179l72-25c6-7 5-12-2-16-14-4-24-13-27-27-5-14-14-45-28-94 32-31 56-60 73-88 16-27 24-49 23-66-2-16-7-27-14-33-6-6-15-8-25-6-9 2-14 11-16 27 0 16-4 35-11 59-8 23-20 52-36 86-22-98-44-172-66-223l-16 4m170-39h256l35 47 51-51c2-2 3-5 4-8 0-8-4-12-12-12H529c-13 0-36-2-66-7l-16 31m272 660c1-2 2-4 2-6-3-4-10-8-22-12-11-1-34-29-66-85h156l27 35 53-39c6-3 9-8 10-14 0-2-5-6-14-12l-21-13c-6-86-10-145-12-176-3-30-11-55-25-74-12-19-32-33-59-43-5 14-13 26-25 37-12 9-40 21-84 33l4 16c50-13 84-18 99-16s25 8 31 17c6 12 10 28 12 47 1 19 4 78 8 178H557V415h277l31 39 55-41c4-4 6-8 6-12s-12-11-35-23c-4-115-8-192-12-231-4-35-12-65-24-88-11-22-39-41-82-59-6 18-15 31-27 41-11 10-44 22-98 35l4 18c65-14 107-20 125-18s31 10 39 24c8 11 13 34 16 67 1 33 4 107 8 223H566l-27-32-57 34 26 25v426l47-31h45c27 58 44 103 50 134l69-31M615 733c37-15 64-30 80-43 14-12 22-24 24-37 0-11-3-20-10-25-8-7-16-9-23-8-9 1-15 9-20 22-4 13-10 25-18 37-7 10-22 24-43 43l10 11Z"/></symbol><symbol id="鹁_G" viewBox="0 0 1000 1000" data-size="21"><path transform="matrix(1 0 0 -1 57 958)" d="M20 774h209v139l70-29c8-4 10-8 6-12 0-2-2-4-6-6l-22-10v-82h106l35 43 55-50c2-2 3-4 4-6 0-8-4-12-12-12H277V636h135l24 25 52-49c7-4 3-9-11-15-16-3-30-10-43-22-14-12-32-27-53-47l-12 8 45 74H96c0-25-4-47-12-64-8-16-18-26-27-31-9-6-17-9-22-10H20c-4-1-9 2-14 10-6 7-6 15 0 23 5 8 17 20 37 35 18 14 29 48 33 104h20v-41h133v113H82c-12 1-25-3-41-10l-21 35m376-287c8-8 10-12 8-13 0-4-4-6-11-6-16-2-32-10-49-24l-71-66v-2c14-6 21-10 22-12 3-4-7-11-27-21v-30l175 34 8-18-183-43V94c0-24-6-43-18-59-10-13-29-23-55-31-3 19-12 33-27 41-14 8-41 19-80 33l4 16c66-16 103-21 113-16 10 4 15 14 16 29v167c-50-9-87-19-110-29-22-8-43-17-62-27l-37 56 209 32v95l35-17 60 88H139c-10 0-22-3-35-8l-24 33h238l26 31v-2l52-39m18-244h248l39 51 53-55c2-2 3-4 4-8 0-7-4-11-12-11H496c-14 0-37-3-68-8l-14 31m301 643c0-2 1-4 2-6-1-2-6-5-16-8s-32-31-66-86h133l27 39 51-39c4-2 6-7 6-14 0 0-3-3-8-7l-20-18V616c0-62-10-103-27-123-18-20-39-35-65-45-5 14-12 25-21 33-9 6-33 16-74 30l4 15c47-9 79-13 95-11 17 2 27 11 32 27 5 15 8 40 9 74v147H559V399h234l35 43 53-41c6-4 8-7 6-11 0-4-11-12-32-24-2-116-5-190-7-220s-9-59-20-85c-12-27-41-47-86-61-6 15-15 27-27 35-12 10-46 22-102 37l4 18c70-12 114-17 133-16 19 2 32 9 39 22 7 11 11 33 14 63 2 29 4 102 6 217H566l-21-29-63 37 28 27v414l47-39h54c17 55 30 98 37 129l67-29M613 704c43-21 71-39 84-53 12-12 19-25 22-39 0-12-3-22-10-31-6-8-14-10-23-8s-14 10-16 24c-3 13-8 27-16 41-8 13-23 31-47 54l6 12Z"/></symbol><symbol id="鹂_G" viewBox="0 0 1000 1000" data-size="21"><path transform="matrix(1 0 0 -1 47 963)" d="M0 823h428l35 47 58-55c2-2 2-3 2-5 1-8-2-12-9-12H82c-13 0-36-3-68-8L0 823m53-99 41-34h92l25 30 41-32c6-1 9-5 10-11 0-4-7-12-22-24V104c2-30 0-49-8-57-5-9-18-18-37-26-4 16-9 27-17 32-7 4-22 10-45 17l4 16c14-1 26-3 37-4 9-2 15 0 19 6s6 16 4 30v547H96V140l4-87c0-9-7-18-20-28-14-6-24-10-31-11l4 122v588m244 4 49-38h88l23 32 45-34c6-1 9-5 10-11 0-4-8-12-24-24V107c2-30 0-50-8-60-7-10-21-19-41-27-3 13-8 22-15 29-7 6-24 14-51 21l4 16c18-1 31-3 39-4s15 1 22 4c6 3 9 12 7 28v551H340V142l4-91c0-10-7-19-20-28-13-7-24-11-31-11l4 126v590m53-217 11 6c30-43 49-75 57-96 8-22 12-39 12-51s-3-21-8-29c-4-9-12-13-24-12-10 1-15 10-15 25-1 15-2 34-4 55 0 19-10 53-29 102m-241 11 12 6c27-43 44-75 51-95 5-23 8-39 8-51s-3-22-8-29c-5-10-12-13-22-12s-15 10-15 25c-2 15-2 33 0 55 0 19-9 53-26 101m409-281h181l31 39 47-49c2 0 4-2 4-5 0-5-4-8-11-8H600c-15 0-37-3-69-8l-13 31m240 662c10-6 13-10 8-13 0-2-5-4-16-6-10-2-31-33-64-94h117l25 31 45-35c6-4 8-8 6-14 0-1-4-5-12-11l-17-12c0-90-1-152-2-187-2-34-11-59-26-77-13-15-29-26-47-31-2 14-11 25-27 35-14 10-33 18-57 24l4 15c39-7 64-11 75-11 7-1 15 4 23 13 7 10 12 26 14 47v188H627V399h199l26 32 46-35c6-4 8-7 6-10 0-4-8-11-25-20-4-131-7-209-8-234-2-23-8-47-17-71-11-23-36-43-75-61-8 17-19 30-33 39s-42 18-84 27l4 18c63-15 101-21 115-20 13 3 24 10 32 22 6 11 11 32 13 61 3 30 5 105 8 227H637l-33-31-49 43 27 17v420l41-33h43c17 60 29 106 37 137l55-24m-72-181c28-24 48-43 60-59 11-16 15-30 14-43 0-12-4-21-12-27-6-7-13-8-19-4-6 2-10 9-12 19-2 11-4 23-6 38-1 13-12 36-33 68l8 8Z"/></symbol><symbol id="鹃_G" viewBox="0 0 1000 1000" data-size="21"><path transform="matrix(1 0 0 -1 68 973)" d="M74 696h221v139H74V696M51 282h262v117H51V282m0 141h262v123H51V423m344-168h248l35 47 51-51c1-2 3-5 3-8 0-8-3-12-11-12H477c-14 0-36-2-67-7l-15 31m263 660c2-2 2-4 2-6-2-4-10-8-21-12-12-1-34-29-67-85h157l27 35 51-39c6-3 9-8 9-14 0-2-4-6-13-12l-22-13c-6-86-10-145-11-176-2-30-10-55-24-74-12-19-31-33-58-43-5 14-14 26-26 37-12 9-40 21-84 33l4 16c51-13 84-18 100-16 14 2 24 8 31 17 6 12 10 28 12 47 1 19 4 78 7 178H504V415h269l32 39 52-41c5-4 7-8 6-12 0-4-11-11-35-23-4-115-8-192-12-231-3-35-11-65-23-88-11-22-38-41-80-59-7 18-16 31-27 41-12 10-44 22-98 35l4 18c65-14 107-20 125-18 17 2 30 10 39 24 7 11 12 34 15 67 2 33 4 107 8 223H514l-28-32-56 34 25 25v426l47-31h45c22 58 36 103 43 134l68-31M555 733c41-18 69-33 84-45 13-11 21-23 23-35 2-11-1-20-8-25-6-7-13-9-21-8-9 1-15 9-20 22-4 13-9 25-17 37-8 10-24 24-49 43l8 11M25 897l55-37h201l32 34 48-34c8-4 12-8 12-13 0-4-10-13-29-26v-95l4-53c0-10-6-18-18-26-12-6-23-9-35-9v33H74v-14c0-7-6-14-17-21-12-6-24-9-36-8l4 96v173M4 604l47-35h254l29 34 45-36c5-2 8-5 8-11 0-5-9-13-28-26V86c0-21-4-38-13-51-8-10-26-21-53-31-5 21-16 36-33 43-18 6-47 15-86 25l4 16c43-8 71-12 86-12h35c8 1 13 11 14 28v155H51V149l4-88c0-8-6-17-18-28-12-8-24-13-37-13l4 120v464Z"/></symbol><symbol id="鹄_G" viewBox="0 0 1000 1000" data-size="21"><path transform="matrix(1 0 0 -1 55 961)" d="m102 419 48-31h186l25 35 59-37c4-3 6-5 6-8 0-4-9-12-28-25V157l4-89c0-7-4-15-13-23-10-7-22-12-37-14v69H148V66c2-11-2-21-13-29-12-8-24-12-37-12l4 122v272m46-295h204v238H148V124m6 641c-6-11-13-26-23-45h101v199l71-29c6-3 9-6 10-10 0-1-3-5-10-10l-24-14V720h78l38 43 60-57c1-3 1-4 2-4 0-4-3-7-8-8H279V519h112l35 43 54-53c2-2 4-5 4-8 0-5-4-7-11-8H70c-13 0-32-2-54-8L0 519h232v175H119c-16-46-43-94-80-144l-16 6c22 48 41 95 57 140 15 45 27 90 37 137 44-16 69-27 74-31 4-5 4-9 0-14-17-6-30-14-37-23m274-516h260l31 43 52-47c2-2 4-5 4-8 0-8-4-11-11-11H498c-14 0-30-3-49-8l-21 31m258 629c-12-2-32-28-61-78h129l27 33 45-41c6-4 9-8 10-14-1-2-6-6-16-11l-15-14c0-90-2-152-6-188-3-33-12-58-28-74-14-15-33-26-56-33-3 12-10 25-22 37-11 11-32 20-62 27l4 18c44-9 71-14 80-16s17 2 25 12c7 10 11 26 14 47 1 23 2 86 2 189H555V405h248l27 37 55-43c4-3 6-7 6-11 0-5-10-12-30-22-7-122-13-198-17-226-3-28-8-54-16-79s-33-45-74-61c-4 21-14 35-29 41-16 8-46 18-90 31l4 18c57-12 95-17 113-16 17 3 28 10 33 22 5 11 10 31 14 57 3 28 8 103 14 227H563l-36-31-48 43 27 21v420l43-33h49c21 53 33 94 35 123 44-12 68-20 72-24 3-3 3-7 2-11-3-4-10-7-21-10m-86-141c35-22 60-41 74-56 13-15 19-29 19-43 1-14-2-24-9-32-8-7-16-9-24-5-8 2-14 9-15 23-1 12-4 25-10 41-5 14-20 35-45 63l10 9Z"/></symbol><symbol id="鹅_G" viewBox="0 0 1000 1000" data-size="21"><path transform="matrix(1 0 0 -1 39 961)" d="M439 257h260l31 43 53-47c2-3 3-5 4-8 0-8-4-12-12-12H510c-14 0-30-2-49-7l-22 31M12 618h125v160c-30-9-70-21-119-35l-4 16c106 45 174 79 201 103 34-28 50-45 49-50-2-4-6-6-12-6h-20c-7 0-24-5-48-14V618h105v291l78-25c7-6 9-11 6-14-3-2-15-8-37-19V618h94l33 41 51-53c1-2 2-3 2-5 0-6-1-9-4-8H336c2-48 4-89 6-121 1-32 4-69 10-112 29 39 60 91 93 157 41-24 63-39 65-45 1-6-2-9-10-10s-16-5-25-10c-9-4-20-15-34-33-11-18-39-52-82-102 10-39 26-82 47-127 22-44 39-74 53-88 14-17 23-23 29-20 6 2 12 12 18 29 5 17 14 49 27 97l18-4c-7-41-12-72-16-95-4-22-4-38-2-48s4-19 8-28c4-7 5-13 4-19-2-5-7-7-14-8-6 1-17 4-35 10-17 5-38 20-60 43-23 22-43 55-63 96s-36 80-49 119c-28-31-66-66-115-103l-10 14c45 44 84 89 115 134-5 35-10 71-13 110-4 37-8 92-12 164H184V450l82 45 9-14-93-64V122c2-31-2-53-12-67-8-13-24-24-47-34-8 26-19 42-33 47-12 6-34 14-67 24l4 15c37-5 65-11 84-15 21-2 29 11 26 38v258c-37-30-60-47-67-53-7-5-18-16-31-33L0 349l137 78v166H78c-14 0-28-3-43-10l-23 35m367 223c36-14 64-28 84-41 17-14 29-28 33-41 3-15 1-27-4-37-6-10-14-14-25-12-12 1-20 10-24 25-3 14-8 27-15 39-6 13-24 31-55 55l6 12m338 37c-12-2-32-28-61-78h129l28 33 44-41c6-4 10-8 10-14 0-2-6-6-15-11l-16-14c0-90-2-152-6-188-3-33-12-58-27-74-15-15-33-26-57-33-3 12-10 25-21 37-11 11-32 20-63 27l4 18c44-9 71-14 80-16s18 2 25 12 12 26 14 47c1 23 2 86 2 189H586V405h248l27 37 55-43c5-3 7-7 6-11 0-5-10-12-29-22-8-122-14-198-18-226-3-28-8-54-16-79s-33-45-74-61c-4 21-14 35-29 41-16 8-46 18-90 31l4 18c57-12 95-17 113-16 17 3 28 10 33 22 6 11 10 30 14 57 3 28 8 103 14 227H594l-35-31-49 43 27 21v420l43-33h49c21 53 33 94 35 123 44-12 68-20 72-24 3-3 4-7 2-11s-9-7-21-10m-86-141c35-22 60-41 74-56 13-15 20-29 20-43s-3-24-10-32c-8-7-16-9-24-5-8 2-13 9-15 23-1 12-4 25-10 41-5 14-20 35-45 63l10 9Z"/></symbol><symbol id="鹆_G" viewBox="0 0 1000 1000" data-size="21"><path transform="matrix(1 0 0 -1 33 965)" d="M275 868c6-6 4-12-7-15-12-3-24-8-36-16-61-74-124-141-189-199l-12 11c69 80 130 166 184 258l60-39M139 446l52-41h159l25 35 53-39c4-4 6-6 6-7-1-5-8-12-22-22V151l4-53c1-13-5-23-16-32s-24-13-37-13v83H188V76c0-9-6-18-18-27s-24-14-35-16l4 146v267m49-287h175v223H188V159m136 549c8-6 6-12-6-18l-19-7-16-22c51-22 89-40 115-55 25-13 45-29 61-46 16-18 23-34 20-49s-10-24-22-28c-12-2-21 4-29 20-9 15-23 34-43 57-20 22-57 51-112 86-22-34-58-83-109-147-49-64-101-118-154-162L0 349c46 54 92 113 139 175s90 135 129 219l56-35m-15 193c52-21 91-41 117-60 25-18 41-35 49-53 6-17 7-32 2-45-7-12-16-17-28-17-11 0-19 7-23 23-4 14-16 33-35 57-18 22-48 50-90 84l8 11m142-636h260l31 43 53-47c2-3 3-5 4-8 0-8-4-12-12-12H521c-13 0-29-2-48-8l-22 32m258 621c-12-2-32-28-61-78h165l27 33 45-41c6-4 9-9 10-14-1-2-6-6-16-12l-16-13c0-90-2-151-6-184-2-32-11-56-27-72-14-15-33-26-57-33-2 12-9 24-21 37-11 11-32 20-63 27l4 18c37-9 63-15 77-16 11-2 21 2 29 12 6 9 11 24 14 45 1 19 1 81 1 185H586V413h260l27 37 55-43c4-4 6-8 6-11 0-5-10-12-30-22-6-127-9-205-11-234-2-27-8-53-18-79-8-25-33-45-74-61-4 21-14 35-30 41-15 8-45 18-89 31l4 18c57-12 95-17 113-16 17 2 29 10 35 24 5 12 10 31 14 57 1 26 4 103 7 233H594l-35-32-49 43 27 22v420l43-33h41c22 52 33 93 35 123 45-12 69-20 73-24 2-4 3-8 1-11-2-4-9-7-21-10m-76-143c35-22 60-41 74-56 13-15 20-29 20-43s-3-25-10-32c-8-7-16-9-24-6-8 2-13 10-15 24-1 12-4 25-10 41-5 14-20 34-45 62l10 10Z"/></symbol><symbol id="鹇_G" viewBox="0 0 1000 1000" data-size="21"><path transform="matrix(1 0 0 -1 75 966)" d="m4 780 70-33c3-1 6-4 8-10 0-2-3-4-8-8l-21-13V155l4-110c-1-9-6-17-16-25C33 12 20 6 0 2l4 149v629m381 80 54-39c2-2 4-4 4-8 1-3-2-8-9-13l-18-12V105c1-28-2-50-10-66-8-15-26-28-54-39-8 19-17 33-28 41-10 8-35 20-76 33l4 16c46-10 75-16 86-18 10 0 17 2 23 6 7 5 9 14 8 27v699H260c-13-1-28-4-45-10l-27 35h173l24 31M43 897c43-22 72-38 88-48 14-9 23-21 29-34s6-26 0-37c-6-9-14-15-23-17-10-1-18 6-24 21-5 15-12 30-21 43-10 13-29 33-59 61l10 11m21-310h125v141l65-30c6-2 9-4 10-6 0-5-2-9-6-11l-26-10v-84h41l34 41 48-49c2-2 4-4 4-6 0-8-2-11-7-11H232v-84c34-15 59-30 77-45 17-14 28-28 33-41 3-14 2-26-4-36s-14-15-24-13c-9 2-16 11-19 29-5 18-12 33-22 47-9 13-23 26-41 39V249l4-82c0-8-6-17-17-25-11-9-22-13-33-14l3 117v186c-17-34-33-65-48-92-16-26-38-57-67-94l-13 10c29 49 56 101 80 158 23 56 41 106 52 149h-62c-13 0-29-3-49-8l-18 33m368-330h201l31 43 53-47c2-3 3-5 4-8 0-8-4-12-12-12H502c-14 0-30-2-49-7l-21 31m242 631c-12-2-32-28-61-78h117l28 33 45-41c6-4 9-9 10-14-1-2-6-6-16-12l-16-13V618c-2-63-11-103-29-121-16-16-37-27-61-35-2 12-9 23-21 35-11 9-32 18-63 25l4 18c39-9 65-14 78-16s23 2 32 14c7 10 11 37 13 80v164H551V405h211l27 37 55-43c4-3 6-7 6-11 0-5-10-12-30-22-4-107-7-178-11-215-3-35-8-66-16-90-8-25-33-45-74-61-4 20-14 33-30 41-15 8-45 18-89 31l4 18c57-12 95-17 113-16 17 3 28 10 33 22 5 11 10 34 14 69 3 35 6 107 7 215H559l-36-31-52 41 31 23v430l43-33h41c21 52 33 93 35 123 44-12 68-20 72-24 3-4 4-8 2-12-2-3-9-6-21-9m-78-160c30-19 52-36 66-51 13-15 20-29 20-43s-3-24-10-31c-8-8-16-10-24-6-8 2-13 9-15 23-1 12-4 26-10 41-5 14-17 33-37 57l10 10Z"/></symbol><symbol id="鹈_G" viewBox="0 0 1000 1000" data-size="21"><path transform="matrix(1 0 0 -1 41 961)" d="M400 892c9-5 11-10 8-14 1-2-2-4-10-6-16-4-33-18-50-41-18-24-37-49-59-74h96l19 27 51-29c5-4 8-8 8-12s-9-10-25-19v-88l3-69c0-7-6-15-19-23-12-7-24-10-33-10v31H273V423h131l22 29 53-37c6-4 7-8 1-14l-25-19v-98c1-40-5-68-17-86-13-17-32-30-57-37-5 15-12 26-22 33s-31 17-62 28l4 15c30-6 52-9 66-11 13-3 24-2 31 3 8 6 12 29 10 69v98H273V136l4-91c1-10-5-20-17-29-14-10-26-15-37-16l4 128v193c-22-41-52-86-90-134C99 140 57 97 10 59L0 70c41 48 78 95 111 142 34 46 70 107 110 184H111l-23-28-53 43 31 26 24 195 43-39h94v136H92c-13 0-26-1-39-5l-26 33h239c25 46 50 99 76 160l58-25M273 729V593h116v136H273m-46-306v142H127l-18-142h118M119 921c35-20 59-37 74-49 13-12 22-25 26-39 3-14 2-25-4-35-6-11-14-16-26-16-10 0-17 8-21 26-4 17-8 31-14 43-3 11-18 31-45 58l10 12m369-664h203l32 43 52-47c2-3 4-5 4-8 0-8-4-12-11-12H559c-14 0-30-2-49-7l-22 31m237 621c-12-2-32-28-61-78h125l27 33 45-41c6-4 9-8 10-14-1-2-6-6-16-11l-15-14V618c-2-62-12-103-29-123-17-17-37-30-61-37-3 12-10 25-21 37-12 11-32 20-63 27l4 18c45-9 72-14 82-16s19 2 27 14c7 10 12 37 14 80v154H590V405h240l27 37 55-43c5-3 7-7 6-11 0-5-10-12-29-22-6-107-11-178-14-213-3-34-8-64-16-89-8-24-33-44-74-60-4 21-14 34-29 41-16 8-46 18-90 31l4 18c57-12 95-17 113-16 17 3 28 10 33 22 6 11 10 34 14 67 3 34 7 105 10 213H598l-35-31-49 43 27 21v420l43-33h53c21 53 33 94 35 123 44-12 68-20 72-24 3-3 3-7 2-11-3-4-10-7-21-10m-77-149c30-18 53-35 67-50 13-15 19-29 19-43 1-14-2-24-9-32-8-7-16-9-24-5-8 2-13 9-15 23-1 12-4 25-10 41-5 14-17 33-37 57l9 9Z"/></symbol><symbol id="鹉_G" viewBox="0 0 1000 1000" data-size="21"><path transform="matrix(1 0 0 -1 36 959)" d="m191 599 71-26c6-4 4-10-6-15l-20-12V407h30l25 31 39-41c1 0 2-1 2-5 0-5-3-8-8-8h-88V188l125 28 6-18c-147-45-234-72-262-81-28-10-48-21-62-35L0 138l74 15v330l65-25c9-5 11-10 4-16l-24-15V161l72 16v422M45 794h187l30 37 43-41c4-3 6-6 6-10 2-8-2-11-12-11H102c-12 0-26-3-41-8l-16 33M16 640h316v277l68-31c6-3 8-5 8-8 0-2-10-10-29-24V640h70l33 43 47-51c2-2 4-5 4-8 2-8 0-12-8-12H379c4-125 10-211 17-259 8-47 19-92 34-135 15-41 29-71 43-90 13-18 23-28 29-28 5 0 9 10 14 28 3 18 7 44 13 80h20c0-20-1-43-4-68-3-23-3-44-2-62 0-15 3-29 10-39 6-10 9-18 10-23 0-8-5-12-14-12-23 4-48 19-74 47-37 41-67 91-88 147-20 57-33 114-39 170-7 56-12 138-16 244H98c-15 0-37-2-69-8l-13 36m382 203c23-8 44-18 63-30 19-11 31-24 35-37 4-12 3-23-2-33-6-8-12-13-19-14-8 0-14 2-18 8-5 6-8 14-10 24s-8 21-15 31c-9 11-22 24-39 39l5 12m65-578h262l31 43 53-47c2-3 3-5 4-8 0-8-4-12-12-12H533c-13 0-30-2-49-8l-21 32m271 609c-11-2-32-28-60-78h125l27 33 45-41c6-4 9-8 10-14-1-2-6-5-16-11l-15-14V614c-2-62-12-103-30-123-16-17-36-30-60-37-3 12-10 25-22 37-11 11-32 20-62 28l4 17c45-9 72-14 82-15 9-3 19 1 27 13 7 10 12 37 14 80v155H600V401h240l27 37 55-42c4-4 6-8 6-12 0-5-10-12-30-22-5-107-10-178-13-213-3-33-8-63-16-88s-33-45-74-61c-4 21-14 35-29 41-16 8-46 18-90 31l4 18c57-12 95-17 113-16 17 3 28 10 33 22 5 11 10 34 14 67 3 34 6 105 10 213H607l-35-31-49 43 28 21v420l43-33h52c22 53 34 94 36 123 44-12 68-20 72-23 3-4 3-8 2-12-3-3-10-7-22-10m-76-148c30-19 52-36 67-51 13-15 19-29 19-43 1-14-2-24-10-31-7-8-15-10-23-6-9 2-14 9-16 23 0 12-4 26-9 41-5 14-17 33-38 57l10 10Z"/></symbol><symbol id="鹊_G" viewBox="0 0 1000 1000" data-size="21"><path transform="matrix(1 0 0 -1 42 954)" d="M27 729h123v168l79-25c1-3 3-5 3-8 0 0 0-2-2-4l-31-17V729h108v163l74-22c7-4 10-8 8-12-1 0-2-2-4-4l-30-13V729h43l30 43 49-48c2-2 3-5 3-8 0-7-3-10-9-10H355V540h63l35 43 55-51c1-2 2-4 2-6 0-6-3-9-10-9H82c-14 0-36-3-66-8L0 540h150v166h-50c-14 0-34-3-59-8l-14 31m172-189h108v166H199V540M98 456l45-41h209l25 35 49-35c8-4 12-8 12-14-1-3-10-10-28-21V130l4-83c0-9-6-18-19-26-13-7-25-11-34-11v86H146V37c0-7-6-16-19-25-13-7-24-11-33-10l4 112v342m48-338h215v129H146V118m0 153h215v121H146V271m315-26h236l39 51 53-55c2-2 3-4 4-8 0-7-4-11-12-11H543c-14 0-37-3-68-8l-14 31m262 633c0-2 1-4 2-6-1-2-6-4-16-8-10-2-31-26-63-72h133l28 39 50-39c4-3 6-7 6-14 0 0-2-3-8-7l-19-18V616c-1-62-10-104-27-125-18-21-39-37-65-47-5 14-12 26-21 35-9 8-34 18-75 32l4 15c48-9 80-13 96-11s25 11 29 27c6 15 9 40 10 74v153H584V399h236l35 43 55-41c6-4 8-7 6-11 0-4-10-12-31-24-3-116-5-190-8-220-1-30-9-59-22-85-12-27-41-47-85-61-7 14-16 25-28 35s-45 22-101 37l4 18c69-12 113-17 132-16 19 2 32 9 39 22 7 10 11 31 14 63 2 29 4 102 6 217H592l-22-29-64 37 27 27v420l49-39h41c15 45 26 83 33 115l67-29m-98-174c42-21 70-39 84-53 12-12 19-25 21-39 1-12-2-22-9-31-6-8-14-10-24-8-8 2-13 10-15 24-3 13-8 27-16 41-8 13-23 31-47 54l6 12Z"/></symbol><symbol id="鹋_G" viewBox="0 0 1000 1000" data-size="21"><path transform="matrix(1 0 0 -1 39 959)" d="m90 575 53-37h244l25 33 59-39c4-2 6-4 6-6 0-4-11-13-32-29V161l4-85c0-6-4-13-13-21-10-8-23-13-38-16v65H137V47c0-9-5-17-14-26-10-7-22-11-37-11l4 116v449m47-447h109v189H137V128m158 0h103v189H295V128M137 343h109v170H137V343m158 170V343h103v170H295M0 741h160v174l74-27c8-6 6-12-5-18l-20-14V741h113v170l73-29c8-6 7-12-4-18l-20-11V741h67l31 43 52-53c2-2 4-3 4-5 1-7-3-10-11-10H371v-57l4-37c1-10-5-18-18-25-12-8-25-12-39-12l4 62v69H209v-61l4-43c0-9-7-18-20-25-13-8-26-12-37-12l4 82v59H70c-15 0-31-3-47-8L0 741m469-500h238l31 43 53-47c2-2 3-5 4-8 0-7-4-11-12-11H539c-14 0-30-3-49-8l-21 31m260 633c-12-2-32-28-61-78h125l27 33 45-41c6-4 9-8 10-14-1-2-6-5-16-11l-15-14V614c-2-62-12-103-30-123-16-17-36-30-60-37-3 12-10 25-22 37-11 11-31 20-62 28l4 17c45-9 72-14 82-15 10-3 19 1 27 13 7 10 12 37 14 80v155H602V401h232l27 37 55-42c5-4 7-8 6-12 0-5-10-12-29-22-6-107-11-178-14-213-3-34-8-64-16-88-8-25-33-45-74-61-4 20-14 33-29 41-16 8-46 18-90 31l4 18c57-12 95-17 113-16 17 3 28 10 33 22 6 11 10 33 14 67 3 34 6 105 10 213H609l-35-31-49 43 28 21v420l43-33h45c21 53 33 94 35 123 44-12 68-20 72-23 3-4 3-8 2-12-3-3-10-7-21-10m-77-148c30-19 52-36 67-51 13-15 19-29 19-43 1-14-2-24-9-31-8-8-16-10-24-6-8 2-14 9-16 23 0 12-3 26-9 41-5 14-17 33-37 57l9 10Z"/></symbol><symbol id="鹌_G" viewBox="0 0 1000 1000" data-size="21"><path transform="matrix(1 0 0 -1 39 965)" d="M14 782h183c17 37 32 84 45 139 49-19 74-30 76-33 2-2 2-5 2-8 1-3-4-6-15-10s-20-12-28-23c-7-10-17-32-29-65h150l38 49 58-55c2-2 3-5 4-9 0-8-4-12-12-12H234c-29-65-66-132-111-201l23-16h108v111c48-19 72-31 72-35s0-6-2-8c-2 0-10-3-25-11v-57h86l23 27 53-33c4-4 6-6 6-8s-9-9-26-23V321l2-74c1-7-4-14-15-21-11-6-22-10-33-12v41h-96V80c51 22 111 50 181 85l12-16c-46-26-92-53-138-83-47-28-77-50-88-66l-45 47 33 19v189h-98v-16c1-8-4-15-15-23-9-8-21-12-34-12l2 109v221c-26-41-59-80-97-115L0 431c36 48 71 101 104 158 30 56 58 111 84 166H90c-14 0-31-3-53-8l-23 35m142-502h98v108h-98V280m143 108V280h96v108h-96m-143 25h98v100h-98V413m143 100V413h96v100h-96m-6 185 6 14c56-20 99-35 129-47 29-12 51-24 64-37 14-14 20-27 18-41-1-14-7-22-20-25-11-4-23 3-35 21s-31 36-57 55c-23 18-58 38-105 60m184-441h226l31 41 53-47c2-3 3-5 4-8 0-8-4-12-12-12H547c-14 0-30-2-49-7l-21 33m252 629c-12-2-32-28-61-78h125l27 33 45-41c6-4 9-9 10-14-1-2-6-6-16-12l-15-13V626c-2-63-12-104-30-123-16-18-36-30-60-37-3 12-10 25-22 37-11 11-31 20-62 27l4 18c45-9 72-14 82-16s19 2 27 14c7 10 12 36 14 80v154H594V413h240l27 37 55-43c5-4 7-8 6-11 0-5-10-12-29-22-6-107-11-178-14-213-3-34-8-64-16-89-8-24-33-45-74-60-4 21-14 34-29 41-16 8-46 18-90 31l4 18c57-12 95-17 113-16 17 3 28 10 33 21 6 12 10 35 14 68 3 34 6 105 10 213H602l-36-32-48 43 27 22v420l43-33h53c21 52 33 93 35 123 44-12 68-20 72-24 3-4 3-8 2-11-3-4-10-7-21-10m-77-149c30-18 52-35 67-50 13-15 19-29 19-43 1-14-2-25-9-32-8-7-16-9-24-6-8 2-14 10-16 24 0 12-3 25-9 41-5 14-17 32-37 57l9 9Z"/></symbol><symbol id="鹍_G" viewBox="0 0 1000 1000" data-size="21"><path transform="matrix(1 0 0 -1 43 973)" d="m47 897 58-41h225l27 40 57-40c6-3 9-7 10-11 0-4-11-14-33-30V632l5-76c1-11-4-20-15-28-10-6-24-11-41-15v58H98v-4c0-22-3-35-8-39-11-8-27-13-49-15l6 138v246m51-300h242v93H98v-93m0 119h242v115H98V716M33 489l69-23c5-2 9-4 9-6 4-4 4-8-2-12l-29-13v-82h57l29 37 45-49c2-2 3-4 4-6-1-6-2-9-4-8H80V119l133 64 10-16c-69-44-112-74-127-89-16-14-30-30-41-49L0 88c18 8 29 17 33 29v372m231 20 68-24c6-2 9-4 10-6 4-3 3-7-2-11l-29-14V353h60l29 37 45-49c2-2 4-4 4-6 0-6-2-9-4-8H311V142l119 66 11-16c-58-45-95-74-111-88s-31-30-45-51l-55 58c18 8 29 18 34 29v369m174-254h255l36 47 50-51c2-2 4-5 4-8 0-8-4-12-12-12H520c-14 0-36-2-67-7l-15 31m263 660c1-2 2-4 2-6-2-4-10-8-21-12-12-1-34-29-67-85h156l28 35 51-39c5-3 9-8 9-14 0-2-4-6-13-12l-22-13c-6-86-10-145-11-176-2-30-10-55-24-74-12-19-31-33-59-43-4 14-13 26-25 37-12 9-40 21-84 33l4 16c51-13 84-18 100-16 13 2 23 8 29 17 6 12 10 28 12 47 1 19 4 78 7 178H539V415h285l31 39 53-41c5-4 7-8 6-12 0-4-12-11-35-23-3-115-7-192-10-231-4-35-12-65-23-88-12-22-39-41-82-59-7 18-16 31-28 41-11 10-43 22-97 35l4 18c65-14 106-20 125-18 17 2 29 10 37 24 7 11 12 34 15 67 2 33 4 107 8 223H549l-26-32-58 34 23 25v426l49-31h53c22 58 36 103 43 134l68-31M578 733c42-17 70-31 84-41 14-9 22-21 24-35 2-11-1-21-8-29-6-8-14-10-24-8-10 1-17 9-21 22-3 13-9 25-16 35-6 10-21 24-47 45l8 11Z"/></symbol><symbol id="鹎_G" viewBox="0 0 1000 1000" data-size="21"><path transform="matrix(1 0 0 -1 43 966)" d="M205 802h166l27 41 63-33c4-3 6-6 6-8 0-4-10-15-29-31V515l3-80c0-14-5-24-17-30-12-4-24-8-35-9v46H234c-22-44-50-80-86-109-35-28-68-46-99-55l-4 14c29 16 57 36 82 62 23 26 44 55 62 88h-78v-17c1-7-4-15-15-22-10-7-22-11-37-11l4 101v344l44-35h71c16 42 30 86 43 131l62-26c7-6 7-10 0-13-6-3-12-6-19-10s-14-12-22-24c-8-11-21-31-37-58m-94-334h90c12 29 22 75 29 138H111V468m166 138c-7-63-18-109-31-138h143v138H277m-166 26h119v144H111V632m166 144V632h112v144H277M0 261h244v140l72-29c5-2 8-4 8-6 1-2 0-6-4-10l-29-15v-80h96l31 45 57-55c2-1 3-3 4-4 0-8-4-12-12-12H291V126l4-87c0-7-6-16-18-25S253 0 240 0l4 116v119H82c-14 0-36-2-66-7L0 261m484-2h204l31 43 52-47c2-3 4-5 4-8 0-8-4-12-11-12H555c-14 0-30-2-49-7l-22 31m209 621c-11-2-32-28-60-78h144l28 33 45-41c5-4 9-9 9-14 0-2-5-6-15-11l-16-14V620c-2-55-12-92-29-111-16-18-37-30-61-37-2 12-9 24-21 37-11 11-32 20-63 27l4 18c41-10 67-16 78-18 13-2 23 2 32 14 7 12 11 35 13 70v154H563V407h263l28 37 54-43c5-4 7-7 6-11 0-5-10-12-29-22-6-107-11-178-14-213-3-34-8-64-16-89-8-24-33-45-74-60-4 19-13 33-29 41s-46 18-90 31l4 18c57-12 95-17 113-16 17 3 28 10 34 22 5 11 9 34 13 67 3 34 7 105 10 213H570l-35-31-49 43 28 21v420l43-33h48c22 52 34 94 36 123 44-12 68-20 72-24 2-4 3-7 2-11-3-4-10-7-22-10m-72-143c33-17 59-35 76-52 17-18 26-34 26-47 0-14-3-24-10-32-8-7-16-9-24-5-7 1-13 9-17 25-2 15-7 30-14 45-8 14-23 32-47 57l10 9Z"/></symbol><symbol id="鹏_G" viewBox="0 0 1000 1000" data-size="21"><path transform="matrix(1 0 0 -1 41 971)" d="m96 890 49-36h82l21 30c32-28 48-42 49-43-1-4-10-13-27-26V138c1-18-2-33-10-44-8-12-24-22-47-30-1 18-9 30-22 38-13 6-35 13-66 20l6 14c39-10 64-15 74-14 11 0 18 3 22 10 2 4 3 13 3 27v260h-95c-3-100-16-180-39-240C72 119 44 69 12 29L0 33c27 44 51 99 70 165 19 65 28 156 26 274v418m134-450v182h-93V440h93m-93 204h93v189h-93V644m215 244 48-35h98l27 31c32-29 47-44 47-45 0-4-9-13-29-26V132c2-30-2-52-12-66-9-11-26-23-51-35-2 18-11 30-27 37-14 7-37 13-70 20l6 14c41-6 68-10 82-10 13 0 21 4 25 10 2 6 3 16 4 28v287H391c-2-98-15-180-37-246-23-65-57-122-104-171l-12 8c39 49 69 110 88 180 19 71 28 165 26 282v418m148-450v182H393V438h107M393 642h107v189H393V642m162-366h158l31 41 47-48c2 0 3-2 4-6 0-5-4-7-12-8H637c-15 0-37-3-69-8l-13 29m232 643c11-6 13-10 8-14 1-2-5-4-16-6-9-2-31-31-64-87h101l26 31 45-35c6-4 8-9 6-14 0-2-4-6-12-12l-18-11c0-94 0-159-2-194-2-33-10-58-25-76-14-16-29-26-47-31-3 13-12 25-27 35s-33 17-57 23l4 14c39-8 64-13 76-14 9 0 18 6 26 16 5 9 9 25 11 49 1 21 1 86 0 193H658V415h182l25 31 47-35c6-3 8-6 6-10 0-4-8-9-25-17-4-125-7-200-8-225-2-24-8-48-18-71-10-24-35-44-74-61-8 17-20 30-33 39-14 9-42 18-84 28l4 17c62-15 101-21 117-19 15 2 26 10 33 21 7 10 11 29 14 56 2 25 5 100 8 223H668l-31-34-49 43 27 18v426l41-33h39c17 56 30 99 37 130l55-23m-88-182c29-23 49-43 61-58 10-16 15-30 15-43 0-14-4-24-11-30s-13-7-20-3c-6 1-10 9-12 21-2 10-5 23-7 37s-13 37-34 68l8 8Z"/></symbol><symbol id="鹐_G" viewBox="0 0 1000 1000" data-size="21"><path transform="matrix(1 0 0 -1 42 971)" d="M188 778h144l27 34c45-32 69-50 71-55s1-8-4-10c-6-2-16-6-31-12-14-6-34-23-59-52-23-30-53-63-90-100l-16 10 102 158H172C119 668 66 599 14 542L0 552c45 66 84 131 117 195 33 65 59 121 78 168 49-21 74-34 75-39 0-4-1-7-4-8-4 0-10-2-18-8-8-4-16-11-23-23-8-12-21-31-37-59M88 493V335h39l39 37 41-47c2-2 3-5 4-8 0-5-3-8-8-7H88V153h266v157h-51c-15 0-31-3-49-8l-22 33h122v168h-67c-8-2-20-5-37-8l-21 33h115l27 37 55-41c4-3 6-7 6-11 0-3-10-10-30-22V183l4-83c2-12-4-22-17-30-14-7-26-11-35-11v67H88V55c0-9-6-18-18-26-11-8-23-11-35-11l4 155v367l45-23c18 12 45 36 82 72 38-24 56-37 55-41-2-4-5-7-8-8-4 0-10-1-18-2-6 0-17-4-31-12-14-6-39-17-76-33m363-234h248l35 47 53-53c2-3 3-5 4-8 0-8-4-12-12-12H533c-14 0-37-2-68-7l-14 33m248 650c1-2 2-4 2-6s-6-5-19-7c-12-3-36-32-73-86h168l30 41 52-41c6-4 9-9 10-14 0-3-4-7-12-14l-23-19c-4-84-7-145-8-182 0-35-10-61-27-78-16-16-37-29-65-39-5 12-14 23-25 33-12 9-39 19-80 31l4 18c49-11 80-15 94-14 11 2 23 7 35 16 11 9 17 26 17 51 1 24 4 85 8 183H549V399h269l32 43 60-41c6-4 8-7 6-11 0-5-10-13-31-26-7-101-11-170-14-207-3-35-10-65-21-91-10-24-37-46-82-66-11 18-22 31-34 41-9 10-39 22-88 33l4 18c62-13 103-17 121-14 18 2 30 10 36 24 6 11 11 32 15 63 3 31 7 101 14 209H557l-24-35-64 43 29 27v438l47-37h37c22 56 36 100 45 132l72-33M590 724c45-19 75-36 92-51 15-14 23-27 25-41 1-14-3-24-10-31-6-7-13-10-23-8s-16 10-18 23-9 27-19 43-28 33-53 53l6 12Z"/></symbol><symbol id="鹑_G" viewBox="0 0 1000 1000" data-size="21"><path transform="matrix(1 0 0 -1 46 968)" d="m375 792 33 45 57-51c2-2 3-5 4-8 0-6-4-9-12-9H82c-13 0-34-3-62-8L0 792h375M96 724l47-34h189l29 34 45-32c6-4 9-8 10-13 1-3-8-11-27-26v-66l4-53c0-8-6-15-18-21-11-6-22-10-33-12v31H141v-15c0-8-5-15-16-22-10-6-21-10-33-10l4 65v174m45-166h201v107H141V558m17 367 8 12c33-16 59-30 76-43 17-12 28-26 31-41 5-14 4-26-3-36s-16-15-28-13c-12 0-18 7-19 21-2 14-8 29-18 47-10 16-25 33-47 53m215-432 55-39c6-6 5-12-4-16-19-1-40-11-63-29-21-15-48-39-82-70v-47l176 35 4-17-182-47V105c2-31-2-56-13-72-12-13-30-25-55-33-4 21-16 36-37 45-22 8-46 16-72 23l4 20c29-7 54-12 74-14s34-1 43 2c9 4 13 16 11 37v140c-39-7-74-16-105-27-31-10-55-22-70-36l-36 57 211 39v100l41-22 63 73H88c-10 0-22-3-35-8l-24 31h315l29 33m12-234h297l31 43 53-47c2-3 3-5 4-8 0-8-4-12-12-12H455c-14 0-30-2-49-7l-21 31m312 621c-11-2-32-28-60-78h144l28 33 45-41c5-4 9-9 9-14 0-2-6-6-15-11l-16-14V620c-2-55-12-92-29-111-17-18-37-30-61-37-2 12-10 24-21 37-11 11-32 20-63 27l4 18c40-10 67-16 78-18 13-2 23 2 31 14s12 35 14 70v154H563V407h257l28 37 54-43c5-4 7-7 6-11 0-5-10-12-29-22-6-107-11-178-14-213-2-34-8-63-15-89-9-24-34-45-75-60-4 21-13 34-29 41-16 8-45 18-90 31l4 18c57-12 95-17 113-16 17 3 28 10 34 22 5 11 9 34 13 67 4 34 7 105 10 213H570l-35-31-49 43 28 21v420l43-33h52c22 52 34 94 36 123 44-12 68-20 72-24 2-4 3-7 2-11-3-4-10-7-22-10m-88-143c34-17 59-35 77-52 16-18 25-34 25-47 1-14-3-24-10-32-8-7-15-9-23-5-8 1-14 9-18 25-2 15-6 30-14 45-7 14-23 32-46 57l9 9Z"/></symbol><symbol id="鹒_G" viewBox="0 0 1000 1000" data-size="21"><path transform="matrix(1 0 0 -1 22 974)" d="M146 649h120v112l60-22c10-2 15-6 16-10 4-3-6-12-29-25v-55h80l35 32 43-37c4-3 7-6 8-10 0-4-8-13-24-26v-95h10l21 29 30-37c2-3 3-6 4-10 0-4-4-7-12-8h-53v-88l2-66c0-12-6-21-18-29-11-8-22-12-33-12v49H301l-10-47c38-27 72-51 102-74 27-23 46-44 58-63 12-17 17-33 16-48 0-13-4-23-12-31-7-6-16-8-27-6-10 2-17 12-20 30-2 15-8 34-19 55-11 22-46 61-104 117-6-33-25-76-55-130C201 91 160 44 107 0l-9 12c47 55 82 107 105 157s40 107 51 172h-33c-17 0-33-3-51-10l-27 35h115c3 37 6 78 8 121h-57c-12 0-25-2-41-8l-18 34h116v111h-47c-15 0-29-4-43-12l-30 37m167-25V513h93v111h-93m0-137c-1-43-4-84-8-121h101v121h-93m95 315 35 43 53-55 2-6c0-4-3-7-8-8H131V624c0-154-5-273-14-357-8-83-41-167-101-251L0 25c44 86 69 169 74 247 7 77 9 186 8 329v242l59-41h267M209 937l8 11c33-13 58-26 74-37 15-11 25-24 31-39 6-14 5-26-2-37-6-12-15-18-27-16-12 0-20 7-23 22-2 13-7 27-14 41-6 14-22 32-47 55m246-696h283l35 47 53-53c2-2 3-5 4-7 0-8-4-12-12-12H537c-14 0-37-3-68-8l-14 33m268 666c0-2 1-4 2-6 0-2-7-5-20-7-12-3-36-32-72-86h168l29 41 53-41c6-4 9-9 10-14 0-3-4-7-12-14l-24-19c-3-84-6-145-7-182-1-35-10-61-28-78-15-16-37-29-64-39-6 12-15 23-26 33-12 9-39 19-80 31l4 18c49-10 80-15 94-14 12 2 23 7 35 16s18 26 18 51c0 24 3 85 8 183H584V394h273l32 43 60-41c6-4 8-8 6-12 0-5-10-13-31-26-7-99-11-166-14-201-2-33-10-63-21-89-10-24-37-47-82-66-11 18-22 31-34 41-9 10-39 21-87 33l3 18c62-13 103-17 122-14 17 2 29 10 35 24 6 13 11 34 15 63 3 29 7 96 14 201H592l-24-35-60 43 25 27v442l47-37h31c19 56 32 101 39 132l73-33m-82-178c45-18 75-35 91-50 15-14 24-28 26-41 0-14-3-24-10-32-6-6-14-9-23-7-10 2-16 9-18 23-3 12-9 27-19 43s-28 33-53 53l6 11Z"/></symbol><symbol id="鹓_G" viewBox="0 0 1000 1000" data-size="21"><path transform="matrix(1 0 0 -1 27 969)" d="m196 917 6 12c32-11 57-22 74-33 18-10 29-22 35-36 7-14 7-27 0-39-6-11-15-17-27-17-12-1-20 8-24 25-2 17-7 31-17 43-8 12-24 27-47 45M73 829h19v-51h362l35 35c34-33 53-52 55-56s1-7-2-8c-2-2-9-4-20-6-10-2-22-10-37-21-14-12-33-32-57-61l-15 10c11 27 26 55 45 84H92c-2-31-6-57-13-76-8-18-20-30-35-35-16-6-28-4-36 5-7 10-8 20-1 32 5 9 13 19 21 27 7 8 15 21 25 39 11 18 17 45 20 82m221-205 52-37h69l29 33c40-29 61-45 61-49s-1-6-4-8c-4-1-13-7-26-17V380c0-39-4-65-13-76-10-12-23-20-39-26-2 15-8 26-18 32s-28 13-55 19l4 14c31-5 51-6 59-4 7 1 12 6 15 15 3 8 4 27 2 57v152h-91V117c48 22 104 47 168 75l11-19c-49-27-90-50-123-68s-60-42-82-72l-53 51 34 27v513m-149-37h59l23 29c33-25 50-40 51-43 0-4-1-6-2-8-2 0-8-7-19-19-12-91-27-166-43-227-17-58-40-113-69-164C117 108 77 57 24 4L12 16c37 50 69 99 94 147s46 102 63 162c17 61 29 139 35 235h-69c-16-51-31-87-45-110 28-19 45-34 53-43 7-8 12-19 14-35 0-14-4-24-12-31-8-8-17-11-27-8-10 2-14 14-12 35 3 20-5 41-23 65-20-44-42-82-67-114L5 329c18 39 38 89 60 150 21 61 42 135 63 221 45-17 68-28 70-31s1-7-2-10c-3-2-8-4-16-8-7-4-12-9-15-17-4-8-11-24-20-47m334-332h252l35 47 53-53c2-3 3-5 4-8 0-8-4-12-12-12H561c-14 0-37-2-68-7l-14 33m260 650c1-2 1-4 2-6 0-2-7-5-20-7-11-3-35-32-72-86h168l29 41 53-41c6-4 9-9 10-14 0-3-4-7-12-14l-23-19c-4-84-7-145-8-182-1-35-10-61-27-78-16-16-38-29-65-39-6 12-14 23-25 33-13 9-39 19-80 31l4 18c48-10 80-15 93-14 12 2 24 7 35 16 12 9 18 26 18 51 1 24 3 85 8 183H612V407h238l32 43 60-41c6-4 8-8 6-12 0-4-10-13-31-25-4-109-7-182-8-217-2-33-9-63-20-89-9-24-37-46-82-66-10 17-21 31-33 41-10 10-39 22-88 33l4 18c62-13 102-17 121-14 18 2 29 10 35 24 7 13 11 34 14 63 1 29 4 102 8 217H620l-24-35-68 43 33 27v426l47-37h20c18 56 32 101 39 132l72-33m-82-177c45-19 75-36 92-51 15-14 23-28 25-41 1-14-3-24-10-32-6-6-13-9-23-7s-16 9-18 23c-2 12-9 27-19 43s-28 33-53 53l6 12Z"/></symbol><symbol id="鹔_G" viewBox="0 0 1000 1000" data-size="21"><path transform="matrix(1 0 0 -1 27 969)" d="M61 821h181v114l61-22c8-2 11-6 10-12 0-2-3-4-8-5l-16-10v-65h100l23 37 59-45c5-4 8-9 8-13 0-3-10-11-30-22v-74h28l23 35 39-43c2-2 3-4 4-8 0-7-4-11-12-11h-82v-24l4-91c0-8-6-17-19-26-13-8-24-13-34-14v28H289V142l4-95c0-8-6-17-18-27-11-10-24-15-37-16l4 130v416H131c-16 0-31-2-47-6l-21 33h179v100H100c-15 0-37-3-69-8l-21 35h232v90H117c-12 1-23-1-35-4l-21 31m228-27v-90h111v90H289m0-117V577h111v100H289m121-190 70-25c4-2 6-5 6-8 3-3-7-10-29-21V122l4-58c-2-9-9-18-20-27-9-8-21-12-35-12l4 99v363m-267-25c3-1 5-3 7-4 2-3 2-6 0-10l-25-17v-35c0-73-3-125-8-159-5-32-16-69-33-109C68 89 45 47 14 2L0 14c21 49 38 92 51 128 10 35 17 67 21 97 5 28 7 84 6 168v84l65-29m-24-313c21 73 38 163 51 270l55-16c5-4 5-9-2-17-8-4-13-10-14-18-1-6-7-31-20-76-12-44-30-93-54-148l-16 5m186 250 11 8c30-45 51-81 61-107s15-48 14-67c-1-17-6-30-14-37-7-6-16-8-27-6-11 3-15 15-14 38 1 21 0 44-4 70-5 25-14 58-27 101m191-144h233l35 47 52-53c2-3 4-5 4-8 0-8-4-12-11-12H578c-14 0-37-2-68-7l-14 33m240 650c1-2 2-4 2-6s-6-5-19-7c-11-3-34-32-69-86h157l29 41 53-41c6-4 9-9 9-14 0-3-3-7-11-14l-24-19c-4-84-6-145-8-182 0-35-9-61-27-78-15-16-37-29-64-39-6 12-15 23-26 33-12 9-39 19-80 31l4 18c49-10 80-15 94-14 12 2 23 7 35 16s18 26 18 51c0 24 3 85 7 183H613V407h233l33 43 60-41c6-4 8-8 6-12 0-4-10-13-31-25-6-112-11-185-14-219-2-32-9-61-21-87-10-24-37-46-82-66-11 17-22 31-33 41-10 10-39 22-88 33l4 18c62-13 101-17 119-14 17 2 29 10 37 24 6 12 11 32 16 61 2 27 7 100 13 219H621l-23-35-65 43 30 27v426l46-37h24c13 56 23 101 31 132l72-33m-90-177c45-19 76-36 92-51 15-14 24-28 26-41 0-14-3-24-10-32-6-6-14-9-24-7-9 2-15 9-17 23-3 12-9 27-20 43-9 16-27 33-52 53l5 12Z"/></symbol><symbol id="鹕_G" viewBox="0 0 1000 1000" data-size="21"><path transform="matrix(1 0 0 -1 50 967)" d="M0 700h133v233l68-34c10-4 11-9 4-15l-27-14V700h49l29 35c30-28 46-44 49-48 2-4 2-7 0-8 0-3-4-4-12-4H178V501h17l28 31 43-41c4-2 5-6 4-12 0-2-8-7-24-15V251l4-53c0-8-5-16-14-25-7-8-19-13-35-14v74h-99v-62c2-14-2-25-12-33-9-7-21-11-37-14l4 125v283l48-31h28v174H66c-12 0-28-3-48-8L0 700m102-443h99v221h-99V257m214 631 53-39h80l30 37 44-35c6-2 10-6 10-12 0-4-8-13-25-26V119c2-25-2-46-12-62-10-15-27-28-53-37-4 14-13 26-27 37-14 9-39 21-76 35l4 15c34-7 60-13 78-15 17-2 29 0 33 4 5 4 7 14 6 28v281H361c4-105-13-188-50-250C273 95 221 44 152 0l-9 14c64 52 110 108 138 167 28 58 40 142 35 252v455m45-457h100v183H361V431m0 209h100v183H361V640m174-362h158l32 41 46-48c2 0 4-2 4-6 0-5-4-8-11-8H617c-14 0-37-3-68-8l-14 29m227 633c10-6 13-10 8-14 0-1-5-3-16-5-10-2-31-32-65-88h108l25 31 49-35c6-4 8-9 6-14 0-2-4-6-12-12l-17-11c0-88-1-149-2-184-2-33-11-58-28-76-15-16-32-26-48-31-3 13-12 25-28 35-14 10-33 17-56 23l3 16c40-9 65-13 77-14 9 0 17 5 25 16 6 10 10 25 12 47v183H639V417h177l30 31 47-35c5-3 7-6 5-10 0-4-8-9-25-17-4-135-6-215-8-240-2-24-8-48-17-72-11-23-35-43-75-60-8 17-19 30-33 39-13 8-41 17-84 27l4 18c63-15 101-22 115-20 12 3 22 10 30 22 6 11 11 29 13 55 3 26 6 105 8 239H648l-31-34-53 43 28 18v416l45-33h33c16 56 27 99 35 131l57-24m-82-172c31-23 52-43 62-58s15-28 16-39c0-12-4-21-12-26-8-6-16-8-21-4-6 2-10 8-12 18-3 10-5 21-8 35-1 14-12 36-33 66l8 8Z"/></symbol><symbol id="鹖_G" viewBox="0 0 1000 1000" data-size="21"><path transform="matrix(1 0 0 -1 19 969)" d="m88 884 53-41h218l30 39 60-41c4-3 6-5 6-8 0-4-10-14-31-31V661l4-74c0-9-6-16-18-22-12-5-23-9-35-11v27H137v-8c0-4-5-10-18-17-12-8-23-12-35-12l4 94v246m49-278h238v92H137v-92m115-156c37-17 57-28 59-31 2-2 1-5-2-8-3-2-8-4-16-4s-18-13-29-39c30-16 54-29 72-39 15-8 27-19 37-33 9-12 11-25 8-37-3-13-11-20-22-22-9-1-18 5-25 18-6 13-14 27-25 43-12 15-30 33-55 53-31-53-65-103-104-149l-13 8c37 69 62 118 76 148 13 30 26 60 39 92M137 724h238v93H137v-93M66 380c39-10 61-16 65-20 4-2 6-4 6-7s-9-8-26-16V175h159l35 43c34-31 52-49 54-53 3-5 4-8 2-10s-8-4-19-4H123l-29-34-51 46 23 22v195m90 107h248l30 37c44-27 66-43 66-46-1-2-2-4-4-6 0-1-10-7-29-20l-10-254c-5-67-15-112-31-134-16-20-40-36-72-48-4 19-16 33-36 43-17 7-41 17-72 29l4 17c39-9 70-15 92-17 21-2 37 4 49 17 9 13 17 52 21 117l6 240H135c-43-46-84-88-123-127L0 347c34 44 66 86 96 127 28 40 49 74 62 101 43-19 65-32 65-37 0-4-2-8-6-10-4 0-11-2-20-6-9-3-23-15-41-35m336-244h252l35 47 53-53c2-2 3-5 4-8 0-7-4-11-12-11H574c-14 0-37-3-68-8l-14 33m252 662c1-2 1-4 2-6 0-2-6-5-19-7-12-3-36-32-73-86h168l30 41 52-41c6-4 9-9 10-14 1-3-3-7-10-14l-23-19c-4-84-7-145-8-182-1-35-10-61-27-78-18-16-40-29-67-39-6 12-14 23-25 33-12 9-39 19-80 31l4 18c49-10 80-15 93-14 12 2 24 7 36 16 11 9 17 26 17 51 1 24 3 85 8 183H590V407h273l32 43 60-41c6-4 8-8 6-12 0-4-10-13-31-25-7-109-11-182-14-217-3-33-10-63-21-89-10-24-38-46-82-66-11 17-22 31-34 41-9 10-39 22-88 33l4 18c62-13 103-17 121-14 18 2 30 10 36 24 5 13 11 34 15 63 3 29 7 102 14 217H598l-24-35-64 43 29 27v426l47-37h47c19 56 32 101 39 132l72-33m-82-177c45-19 76-36 92-51 15-14 23-28 25-41 1-14-2-24-9-32-6-6-14-9-24-7s-16 9-17 23c-3 12-10 27-20 43s-27 33-53 53l6 12Z"/></symbol><symbol id="鹗_G" viewBox="0 0 1000 1000" data-size="21"><path transform="matrix(1 0 0 -1 48 959)" d="m47 884 53-41h78l19 35 47-33c6-4 9-9 10-14 0-3-8-10-24-21V685l4-51c0-8-4-16-11-24-8-6-21-9-37-11v47H92v-34c0-8-6-17-18-25-11-8-22-12-31-12l4 84v225m45-215h94v150H92V669M70 540h260l29 39 53-47c2-2 3-4 4-6 0-7-4-11-12-11H152c-13 0-35-3-66-8l-16 33M0 431h393l29 37 51-43c2-2 3-5 4-8 0-8-4-12-12-12H229l-36-101h137l27 29 49-39c4-2 6-6 8-12 1-3-3-6-10-10l-23-13c-13-71-22-120-27-148-6-28-17-51-32-68-15-15-41-28-76-39-2 17-10 31-23 41-14 12-44 25-90 41l6 16c35-10 64-17 88-22 21-4 39-4 52 0 13 5 22 17 28 36 6 20 15 74 29 162H191l-29-27-49 45c17 8 30 17 39 29l26 80H82c-12 0-34-2-66-8L0 431m283 445 53-33h72l26 29 45-33c5-4 9-8 9-12 0-2-9-9-27-19V692l4-54c0-8-3-16-10-24-7-5-20-10-39-15v47h-88v-16c0-11-6-19-17-26-12-5-23-9-32-11l4 94v189m45-207h88v150h-88V669m117-416h244l32 43 52-47c2-3 4-5 4-8 0-8-4-12-11-12H516c-14 0-30-2-49-7l-22 31m272 621c-12-2-32-28-61-78h137l27 33 45-41c6-4 9-8 10-14-1-2-6-5-16-11l-15-14V614c-2-62-12-103-30-123-16-17-36-30-60-37-3 12-10 25-22 37-11 11-31 20-62 28l4 17c45-9 72-14 82-15 10-3 19 1 27 13 7 10 12 37 14 80v155H584V401h232l28 37 54-42c5-4 7-8 6-12 0-5-9-12-29-22-6-107-10-178-14-213-2-34-7-64-15-88-9-25-33-45-75-61-3 21-13 35-29 41-15 8-45 18-90 31l4 18c58-12 95-17 114-16 16 3 28 10 33 22 5 11 10 34 13 67 4 34 7 105 10 213H592l-35-31-49 43 27 21v420l43-33h51c21 53 33 94 35 123 44-12 68-20 72-23 3-4 4-8 2-12-2-3-9-7-21-10m-72-146c29-19 52-36 66-51 13-15 19-29 19-43 1-14-2-24-9-31-8-8-16-10-24-6-8 2-13 9-15 23-1 12-4 26-10 41-5 14-17 33-37 57l10 10Z"/></symbol><symbol id="鹘_G" viewBox="0 0 1000 1000" data-size="21"><path transform="matrix(1 0 0 -1 51 968)" d="M430 267h258l33 41 53-45c2-2 3-5 4-8 0-8-4-12-12-12H512c-13 0-35-2-66-8l-16 32m284 642c1-2 1-4 1-6-1-4-9-9-23-15-12-6-32-35-60-88h152l27 35 53-37c6-2 9-6 10-12 0-2-5-6-14-12l-23-13V651c-1-58-8-98-22-119-14-20-33-35-58-45-7 15-16 28-28 37-12 10-36 19-72 28l4 15c41-8 69-11 84-9 13 0 25 5 33 17s12 37 12 76v125H573V423h242l25 35 55-37c5-4 7-8 6-12 0-4-8-12-25-23-4-116-8-192-12-227-4-34-10-63-20-87-9-21-35-41-78-58-6 17-15 30-27 41-12 10-40 22-84 37l4 15c55-12 91-18 109-17 19 2 31 10 37 23 6 11 10 33 12 66 1 30 4 103 8 218H583l-28-31-56 33 25 26v406l47-31h35c20 54 33 99 39 137l69-28m-94-168c38-18 64-35 78-51 14-15 21-30 23-43 1-12-2-21-9-27s-14-9-22-8c-8 2-15 9-19 22s-9 28-16 45c-8 15-22 32-43 50l8 12M114 544l53-39h164l31 35 45-35c5-2 8-6 10-12 0-2-9-10-26-21V94c2-21-2-38-13-51-10-12-28-22-53-29-6 16-14 28-24 37-8 6-31 15-68 27l4 16c29-6 51-10 64-12 13-3 23-3 32-2 7 1 11 10 9 27v130H163V124l4-83c-1-9-7-18-20-25-12-8-24-13-37-16l4 124v420m49-281h179v95H163v-95m0 121h179v97H163v-97m-57 527 61-37h175l32 33 43-33c6-4 9-8 9-14 1-2-8-10-27-25V614h33l26 32c30-27 46-42 49-45 1-4 1-7 0-8-2-2-10-5-24-10-12-3-35-24-68-62l-10 7 27 63H79c-1-31-6-55-16-70-8-14-19-22-31-24-12-1-22 3-27 12-5 8-2 17 7 29 9 10 18 22 26 35 8 12 15 39 21 80h16l4-39h27v297m49-297h78v127h-78V614m125 0h70v237H155v-86h74l26 31 41-31c5-2 9-6 9-12 0-2-8-8-25-18V614Z"/></symbol><symbol id="鹙_G" viewBox="0 0 1000 1000" data-size="21"><path transform="matrix(1 0 0 -1 56 975)" d="M395 888c-14 2-57-4-129-18V759h70l35 45 59-55c1-2 2-4 2-6 0-8-3-12-10-12H266v-29c33-6 63-14 91-21s47-19 55-34 9-28 4-37c-4-7-10-13-18-17-6-3-13-2-19 2-7 2-13 9-20 23-5 12-16 23-31 33-16 10-37 20-62 30v-96l4-51c0-10-7-19-22-27-14-9-25-12-35-10l4 92v82c-31-37-63-71-96-102-32-30-68-60-109-90L0 491c46 47 83 88 113 123s62 74 98 117H88c-12 0-29-2-53-7l-17 35h199v103c-67-10-130-19-190-25l-2 16c151 33 268 65 352 97 33-35 49-54 49-58s-2-7-6-8c-2-1-10 0-25 4m150-20c0-57-1-97-2-121-1-23-8-43-22-59-12-15-25-23-39-23-13-1-22 4-25 14-5 7-3 15 4 25 5 9 16 24 31 43 16 20 27 60 33 121h20m236-76c-31-16-62-32-93-49 17-49 37-86 58-113s41-47 61-59c17-12 45-23 82-33v-17c-29 1-50 0-63-6s-23-15-29-26c-20 21-37 41-53 61-14 17-29 43-47 76-17 31-32 75-45 133-7-65-27-119-58-162-30-43-76-77-141-102l-8 14c53 35 90 70 110 105 20 33 34 70 43 110 7 39 11 112 11 220l84-33c6-4 8-8 8-14 1-1-12-8-39-19v-57l16-58c35 25 76 60 123 105 41-21 62-34 64-37s2-6 0-10c-2-2-8-4-19-4-10 0-32-9-65-25M369 478h277l30 33c40-26 60-40 60-43 1-4 0-7-4-8-3-2-11-7-23-14-4-26-8-49-12-68-2-20-9-37-23-49s-31-20-51-25c-1 13-8 24-21 33-12 9-36 19-71 31l6 16c35-8 59-13 70-14 11-2 20-2 26 0 6 1 11 7 15 16 4 7 8 29 12 66H236V271h539l28 33 52-39c5-4 7-8 6-12 0-4-9-10-27-20-10-62-18-107-25-133-6-27-15-47-26-61-12-14-32-27-60-39-12 20-22 33-32 39-9 5-37 14-82 27l6 20c42-10 72-16 90-18s31 1 39 8c7 6 13 24 20 53 5 28 11 67 19 116H250l-27-31-63 37 28 21v225l52-19h102l31 97c39-13 60-22 63-25 2-5 2-8 0-10-2-1-6-2-12-4-5-2-10-4-16-8-5-3-18-20-39-50M18 159h550l39 43 57-49c2-2 3-4 4-7 0-8-4-11-12-11H100c-14 0-36-2-67-8l-15 32m316 242 6 12c40-10 70-20 90-31 19-12 30-24 33-35 2-13 0-23-6-32-6-7-14-11-23-11-10 0-18 7-24 19-4 12-12 24-21 35-8 11-26 26-55 43Z"/></symbol><symbol id="鹚_G" viewBox="0 0 1000 1000" data-size="21"><path transform="matrix(1 0 0 -1 36 960)" d="M127 901c56-27 90-49 102-66 11-17 16-32 15-45 0-14-4-23-12-29-6-6-13-9-21-8-7 1-12 5-16 14-2 7-4 16-7 27-2 10-8 23-18 39s-27 35-51 57l8 11m326-25c6-3 8-6 6-10 0-4-7-8-20-12-12-1-28-16-48-42-19-28-37-56-57-84h117l35 41 55-49c2-2 3-4 4-6 0-8-5-12-14-12-299 0-455-1-468-2-14-1-28-4-42-10L0 728h305c25 44 54 105 86 181l62-33M145 690c39-19 58-31 58-35 1-4-1-6-4-8-2 0-6-1-11-3-6 0-11-2-14-6-3-2-14-22-33-59-18-35-42-83-73-142l104 5c16 41 31 86 47 137l60-29c5-6 4-11-4-14-9-1-18-6-25-15-7-10-18-32-33-67-16-36-36-80-61-133-24-52-54-111-90-175l139 9c-6 33-19 69-41 108l12 8c30-35 50-64 60-86 9-23 15-43 16-61 1-17-3-29-10-36-6-8-13-10-23-6-8 3-12 10-12 22 1 9 1 21 0 36-66-12-106-20-121-24-14-3-28-12-43-26L4 144c17 4 29 11 35 19 9 6 28 39 57 100 27 60 50 114 70 162-64-9-105-22-123-39l-29 49c21 5 34 13 39 25 27 56 58 133 92 230m226-3c39-20 59-32 59-36s-1-6-4-7c-2-1-6-2-12-4-6 0-10-2-14-6-2-3-13-24-35-63-19-37-43-87-74-148l115 2c21 56 39 109 55 160l64-29c5-6 4-11-4-14-11-1-21-7-29-16s-19-33-35-72c-16-37-34-80-55-129-22-49-48-103-80-164l145 18c-7 24-22 60-45 107l12 8c32-43 54-76 66-100 10-23 15-45 16-64 0-19-3-32-10-38-6-8-14-10-24-6-7 3-11 12-11 27 0 13-1 30-2 50-69-16-110-25-125-29-14-7-28-16-43-29l-39 50c17 4 27 10 29 18 9 5 27 39 55 101 26 61 45 105 54 133-72-6-117-17-134-35l-30 49c21 5 34 14 39 25 27 59 59 139 96 241m121-442h233l31 43 53-47c2-2 3-5 4-8 0-7-4-11-12-11H563c-14 0-30-3-49-8l-22 31m254 631c-12-2-32-28-60-78h117l27 33 45-41c6-4 9-8 10-14-1-2-6-5-16-11l-15-14V606c-2-62-12-103-30-123-16-17-36-30-60-37-3 13-10 25-22 37-11 11-32 21-62 28l4 17c45-9 72-14 82-15 9-3 19 2 27 13 7 10 12 37 14 80v165H623V394h217l27 37 55-43c4-4 6-8 6-12 0-5-10-12-30-22-7-106-13-176-17-208-3-32-8-60-16-85s-33-45-74-61c-4 21-14 35-29 41-16 8-46 18-90 31l4 18c57-12 95-17 113-16 17 3 28 10 33 22 5 11 10 33 14 63 3 31 8 101 14 209H631l-35-31-51 43 29 21v430l43-33h41c22 53 33 94 35 123 45-12 69-20 73-24 2-3 3-7 2-11-3-4-10-7-22-10m-78-160c30-18 52-35 66-51 13-14 20-29 20-43 1-14-3-24-10-31-8-7-15-9-23-6-9 2-14 10-16 23-1 12-4 26-10 41-4 14-17 33-37 57l10 10Z"/></symbol><symbol id="鹛_G" viewBox="0 0 1000 1000" data-size="21"><path transform="matrix(1 0 0 -1 27 958)" d="m193 569 59-37h176l25 33 55-35c4-2 6-6 6-11 0-4-10-11-30-22V157l4-77c0-10-6-19-17-27-12-8-24-12-35-12v61H240V59c1-9-4-17-15-26-10-8-22-12-36-12l4 125v423m47-443h196v117H240V126m0 143h196v109H240V269m0 132h196v106H240V401m237 475 54-41c5-3 7-6 8-10 0-2-10-10-31-23v-86l4-61c1-11-2-21-10-29-8-7-22-12-41-16v41H145c0-116-6-220-18-314-14-94-51-188-113-280L0 66c46 95 74 188 84 281 10 91 14 194 12 308v217l60-33h293l28 37m-332-64V679h134v133H145m181 0V679h133v133H326m172-567h260l31 43 53-47c2-2 3-5 4-8 0-7-4-11-12-11H568c-13 0-30-3-48-8l-22 31m250 627c-12-2-32-28-60-78h140l27 33 45-41c6-4 10-8 10-14 0-1-6-5-15-11l-16-14V614c-2-62-12-103-29-123-17-17-37-30-61-37-3 12-10 25-21 37-11 11-32 20-63 28l4 17c44-9 71-14 80-15 10-3 19 1 27 13 10 10 15 37 16 80v153H637V401h220l28 37 54-42c5-4 7-8 6-12 0-5-9-12-29-22-8-107-14-178-18-213-2-34-7-64-15-88-9-25-33-45-74-61-4 20-14 33-30 41-15 8-45 18-90 31l4 18c58-12 95-17 114-16 17 3 28 10 33 22 5 11 10 34 14 67 3 34 7 105 13 213H645l-36-31-48 43 27 21v418l43-33h29c22 53 33 94 35 123 45-12 69-20 73-23 2-4 3-8 2-12-3-3-10-7-22-10m-66-148c30-19 52-36 66-51 13-14 20-29 20-43s-3-24-10-31c-8-8-16-9-24-6-8 2-13 10-15 23-1 12-4 26-10 41-5 14-17 33-37 57l10 10Z"/></symbol><symbol id="鹜_G" viewBox="0 0 1000 1000" data-size="21"><path transform="matrix(1 0 0 -1 36 969)" d="m436 729 23 24 55-49c7-6 9-12 4-16-16-1-30-6-43-13-15-6-41-28-80-65l-14 8 57 86H318V567c0-20-5-36-17-48s-26-21-43-26c-6 16-16 28-31 35-16 7-38 17-67 28l4 15c35-9 63-14 82-15 20-3 29 4 27 19v117c-35-37-76-72-125-103-48-31-96-54-142-68l-6 13c47 23 89 49 127 78s71 60 98 92H68c-7 0-20-3-37-8l-21 33h426m-10 172c41-32 62-51 64-56 1-4 0-7-4-8-2-1-7-1-15-2-7 0-22-3-45-8-22-4-59-23-110-55 6-9 6-18 0-27-4-8-11-12-21-10-8 0-14 6-20 16-5 8-13 19-23 31-9 11-24 24-45 37l8 12c47-18 77-33 92-45l74 63H117c-10 0-21-3-35-8l-25 33h341l28 27m15-390c39 13 77 30 112 51 34 18 64 39 90 60-28 33-54 83-79 150l-48-50-14 7c17 23 36 53 57 90 20 37 39 77 56 119 45-19 67-31 69-35s1-6-2-7c-4-2-9-4-16-6-8-1-16-6-23-16-9-10-24-31-45-62h232l33 44c39-33 60-54 63-60 2-6-2-10-12-12H813c-30-66-68-122-114-166 22-17 45-32 71-43 23-12 46-19 70-23 23-4 53-7 88-8v-18c-15 2-29 0-43-4-13-3-25-15-37-35-28 10-57 24-88 41-31 18-61 39-90 65-35-23-68-42-100-57-29-15-71-30-125-43l-4 18m145 275c29-66 57-112 82-139 25 24 57 70 94 139H586M373 462h262l29 33c40-25 61-40 61-43 0-4-1-6-4-8-4-2-12-6-24-13-2-35-6-63-9-82-4-20-13-36-26-47-12-11-29-18-51-22-2 10-9 20-23 30-12 9-35 19-70 31l5 15c36-7 59-12 71-13 11-2 20-2 27 0 6 1 11 6 16 13 4 8 8 35 11 81H256V259h508l31 33 55-39c4-4 6-8 5-12 0-4-11-10-33-19-6-55-13-96-21-124s-18-49-31-65c-13-12-34-23-63-33-12 20-22 33-31 39-10 5-37 14-82 27l6 20c41-10 71-16 91-18 18-2 33 1 45 8 10 8 18 26 24 54 5 27 10 62 15 103H270l-28-31-62 37 27 22v230l53-29h86l35 107c42-9 64-16 66-19 2-5 2-8 0-10-2-1-6-2-11-4-4-2-10-4-18-8-7-4-22-26-45-66M49 147h531l39 43 57-48c2-2 3-5 4-8 0-7-4-11-12-11H131c-14 1-36-2-67-8l-15 32m305 243 5 11c41-9 71-20 90-31 20-12 31-23 33-35s0-23-5-31c-6-8-14-12-24-12-10 1-17 7-23 20-5 11-12 23-22 35-8 11-26 25-54 43Z"/></symbol></svg>