<svg xmlns="http://www.w3.org/2000/svg"><symbol id="齃_P" viewBox="0 0 1000 1000" data-size="22"><path transform="matrix(1 0 0 -1 46 960)" d="M129 815h20c25 51 41 86 46 105l67-39c-31-11-61-33-90-66h133l35 35 47-47-28-15 4-211-50-20v27H129v-19l-47-16v293l47-27m0-66h184v46H129v-46m0-75h184v55H129v-55m0-70h184v51H129v-51M86 440h109v66H86v-66m152 0h110v66H238v-66M86 346h109v74H86v-74m152 0h110v74H238v-74m114-90 35 36 54-55H332c1-86 2-156 4-210L281 0c3 15 4 39 5 73 1 24 1 55 0 91-1 41-1 66-1 73H172C172 120 118 42 8 3L0 15c81 47 121 121 121 222-36 0-66-4-90-12L0 256h352M90 526h250l31 35 47-47-23-19c1-77 2-135 4-176l-51-24v32H86v-20l-47-23v265l51-23m744 45-49-20v43H551v-31l-48-19v359l50-27h222l34 31 44-47-21-20 2-269M551 747h234v109H551V747m0-133h234v113H551V614m332-296-5-134C874 77 846 16 794 2c-9 47-41 70-98 70v15h81c32 0 50 27 57 81 0 38 0 76 1 115 1 73 2 127 2 163H548c-17-28-39-57-64-87-9-12-32-38-69-79l-10 12c85 115 133 204 145 267l67-47c-21-12-39-28-56-47h272l30 36 44-51-22-24-2-108M768 165c-19-33-41-50-67-50H548c-6 0-13 3-21 8s-13 10-16 16c-7 12-10 51-11 119v118l69-36-24-27v-47c69 40 113 75 132 106l41-67c-43-12-101-30-173-54v-43c0-23 1-36 2-39 4-8 16-12 35-12 26 0 51 0 74 1h27c18 2 28 11 31 27 1 4 1 34 1 89h13c1-73 14-109 40-109Z"/></symbol><symbol id="龎_P" viewBox="0 0 1000 1000" data-size="22"><path transform="matrix(1 0 0 -1 48 945)" d="M0 8c50 103 84 203 103 301 15 78 22 174 22 287 0 57 0 102-1 134-2 95-3 145-3 148l55-31h593l43 43 63-63H176l-4-221-4-157c-3-21-6-43-9-66-13-78-30-145-51-201C85 121 52 61 8 0L0 8m297 241h125v78H297v-78m0 98h125v82H297v-82m136 352 36 35 54-55h-90l47-35c-23-10-41-24-55-43-4-6-15-27-34-63h50l35 36 55-55H308c-28 0-54-4-78-12l-31 31h176c13 39 28 87 43 141-118 0-149 1-94 1-38 0-69-5-94-13l-31 32h234m-171-36c52-25 78-49 78-72 0-15-10-27-30-36-4 1-11 11-18 30-13 34-25 59-38 75l8 3m82-553c32-3 55-5 70-4 5 5 8 16 9 34 1 12 1 29 0 52 0 16-1 29-1 38H297V51l-53-19 2 448 59-31h105l31 35 55-55-27-12V121c0-41-19-69-59-82-12 32-34 52-66 59v12m-43 706c55-25 82-45 82-59 0-18-5-32-16-43l-9-4c-5 1-14 14-26 40-13 29-25 49-35 58l4 8m394-568h-94V128c0-25 11-40 32-46 9-3 30-4 62-4v170m51-170c56-1 84 6 84 20 6 12 9 27 9 47 0-40-1-24-1 49h20c2-33 5-53 7-61 5-18 18-34 39-47-24-31-58-47-101-47H633c-52 0-78 21-78 63v440l50-27h133v94H609l-35-35-51 43 32 19-4 176 82-27-32-24v-47h125l40 39 62-58H601v-67h129l39 35 47-46-31-12c1-49 3-92 4-129l-51-8v27H601v-99h156l35 35 51-55H601V268h164l31 31 55-51H746V78Z"/></symbol><symbol id="㮝_P" viewBox="0 0 1000 1000" data-size="22"><path transform="matrix(1 0 0 -1 46 958)" d="M370 161h158v227H370V161m81 684-31-15c-57-74-103-130-139-168l-13 15c14 16 36 52 67 109 33 61 50 100 50 117l66-58m42 44c70-52 108-88 114-107 4-14 6-27 6-40 0-25-8-38-24-38-13 0-25 16-35 47-15 48-40 91-75 129l14 9m-30-238c57-33 91-54 101-63 41-31 62-62 62-93 0-29-6-43-19-43-6 0-13 7-20 21-12 22-26 44-42 64-11 14-28 33-51 57-17 18-31 30-41 36-45-92-112-170-200-235l-12 16c48 46 91 100 129 162 43 68 69 131 78 189l64-50-24-12-25-49m110-536-45-35v61H370V95l-49-23v363l51-27h159l30 35 43-55-31-19V115m77 788 58-43h103l42 41 55-68c-21-11-39-30-53-57-9-26-19-51-29-75l-56-138c77-88 123-164 137-227 2-17 2-31 1-41 2-63-26-114-86-154-8 38-41 64-98 78v20c34-6 64-9 89-8 15 8 26 19 35 35 3 18 3 39 0 64-11 75-47 151-109 229l74 282H699V37l-49-27v893M160 23 120 0l-1 440C87 355 49 278 6 209l-6 12c53 112 93 257 119 434H50l-29-12-21 31h119v121c0 17 0 40 1 71v51l75-32-35-35V674h20l39 51 40-70h-99v-94c63-30 92-57 89-82-5-35-11-52-20-52-5 0-11 7-17 21-10 24-27 52-52 86V23Z"/></symbol><symbol id="䀘_P" viewBox="0 0 1000 1000" data-size="22"><path transform="matrix(1 0 0 -1 71 945)" d="m254 121-51-22v54H51V91L0 68c0 41 1 104 2 189 2 99 2 162 2 189-2 191-3 317-4 378l55-31h148l31 39 51-62-35-24 4-625M51 586h152v188H51V586m0-203h152v184H51V383m0-211h152v192H51V172m359 665c-29 3-56 0-82-8l-28 21h178l35 35 55-48H459V487h7l36 31 54-47h-97c0-104-13-190-38-259-28-77-78-148-150-212l-10 15c56 71 96 142 118 214 21 66 31 147 31 242-8 1-15 2-23 2-20 0-39-4-55-13l-32 27h110v350M728 42l-55-27 2 228c2 101 2 177 2 228-10 1-20 2-30 2-23 0-43-4-59-13l-32 27h121v350h-43l-31-12-31 25h172l35 39 59-52H724V487h31l40 35 62-51H724l4-429Z"/></symbol><symbol id="䀹_P" viewBox="0 0 1000 1000" data-size="22"><path transform="matrix(1 0 0 -1 66 947)" d="m254 120-51-22v54H51V90L0 67c0 58 1 121 2 189 2 86 3 149 2 189-2 214-3 340-4 378l55-31h148l31 39 51-62-35-24 4-625M51 585h152v188H51V585m0-203h152v184H51V382m0-211h152v192H51V171m479 527c-3 59-4 124-4 196l81-35-27-28V698h148l45 47 65-63H580c1-58 1-102 1-132 1-56 5-99 14-129 24-84 41-136 52-156 20-34 34-57 42-71 46-76 106-120 179-131V51c-37-8-62-22-76-43-71 51-124 116-159 194-29 64-49 146-61 246-11-98-30-173-56-227-32-67-86-123-160-168-40-24-82-42-125-53l-4 12c91 45 159 96 204 154 48 62 78 141 90 237 6 48 9 141 9 279l-68 2c-66 2-114-3-143-14l-31 28h242m-16-328c-20-21-31-35-32-42-38 52-60 102-66 150-6-31-22-63-48-98-25-35-52-61-79-80l-17 8c31 27 60 70 86 129 26 58 39 108 39 150-6 1-12 1-19 1-17 0-33-3-48-10l-23 25h91l27 29 41-37-28-12-12-70c21-66 50-110 88-132v-11m340-6c-23-26-35-40-36-42-37 38-61 89-73 154-3-27-15-57-36-90-19-30-41-54-65-73l-23 7c11 10 21 24 30 42 26 51 43 88 52 110 16 42 24 81 24 118-6 1-12 1-19 1-17 0-33-3-48-10l-23 26h91l27 29 45-37-28-12-16-80c11-36 23-62 35-77 11-16 32-34 63-55v-11Z"/></symbol><symbol id="𥉉_P" viewBox="0 0 1000 1000" data-size="22"><path transform="matrix(1 0 0 -1 67 942)" d="M0 41c0 60 1 125 2 195 2 88 3 153 2 195-2 227-3 361-4 402l58-31h114l43 39 54-59-39-23 4-645-51-26v73H51V68L0 41m51 566h132v175H51V607m0-215h132v195H51V392m0-211h132v191H51V181m440 418c49 64 89 159 122 285l68-39c-28-22-51-52-68-90h123l29 39 56-62-29-12c-23-55-53-105-89-149 55-50 109-81 163-93v-12c-35 0-56-12-63-35-58 44-100 81-126 113-52-52-114-97-186-133l-10 13c85 58 142 107 171 148-26 42-49 84-68 124-19-33-47-68-82-105l-11 8m104 113c39-59 66-96 82-112 31 47 54 94 68 139l-138-1-12-26M428 65c54 46 98 116 130 210l55-51c-19-10-49-36-89-79-51-54-80-85-88-92l-8 12m362 121c36-29 54-55 54-79 0-8-3-17-9-28s-12-17-19-17c-3 0-13 16-29 48-20 37-30 57-31 58l-50 71 8 8 76-61M327 599c-21-41-47-83-80-125l-16 8c91 153 142 284 152 394l74-47c-27-22-49-50-66-85-15-38-29-72-41-102l37-32-18-15V57l-45-43c0 21 1 52 2 95 1 40 2 72 2 95l-1 395m138-379-41-31v492l64-39-23-24V220M640 0v320c-18 1-36 2-51 2-35 0-60-5-75-13l-30 28h156c-1 52-2 93-4 125l70-43-25-19v-63h70l29 39 60-56H681V24L640 0Z"/></symbol><symbol id="𥳐_P" viewBox="0 0 1000 1000" data-size="22"><path transform="matrix(1 0 0 -1 57 956)" d="M258 868c-31-27-52-48-63-62h176l47 47 66-67H238c22-13 44-25 66-37 31-20 47-37 47-52 0-12-3-24-9-37-7-14-15-22-26-22-5 3-8 7-11 12-1 2-2 7-4 15-8 20-21 42-38 64l-48 57h-28C141 729 84 670 15 607l-15 4c38 44 67 83 89 119 20 34 42 79 66 135 9 22 15 36 17 43l86-40m379 8c-26-22-47-45-63-70h188l50 51 75-71H644c28-15 45-24 51-27 23-10 41-17 53-23 24-12 37-26 37-43 0-37-12-55-35-55-19 23-31 40-36 51-11 16-26 33-46 51-17 16-34 31-51 46h-59c-37-47-73-83-107-108l-12 3c36 47 61 89 76 125 24 58 37 93 39 105l83-35M314 357c-16 3-34 0-54-9l-28 25h138l25 30 48-46h-82V229h12l39 35 53-51H361c0-82-57-141-172-178l-3 10c41 21 72 42 91 64 25 29 37 63 37 104-11 2-22 2-32 2-25 0-44-3-58-11l-28 25h118v128M609 81l-43-22v154c-6 1-13 1-19 1-17 0-32-3-47-10l-28 25h94v128c-8 1-22-2-42-9l-28 25h130l35 32 53-48H609V229h31l39 32 59-48H609V81M87 0c2 120 3 234 3 341s-1 207-3 300l60-27h183l35 27 55-36-31-19c0-64 2-114 4-152l-55-19v25H143V16L87 0m56 535h195v62H143v-62m433-80h199v65H576v-65m-54-43c0 4 1 42 3 114 0 2-1 20-2 56-1 17-1 36-1 56l62-24h180l35 27 54-36-27-19V63c0-16-9-30-26-43-14-10-30-17-48-20-23 28-64 46-125 55l4 14c60-7 94-11 102-11 11 0 21 1 31 2 7 8 11 16 11 23v357H576v-11l-54-17m54 123h199v62H576v-62m-433-80h195v65H143v-65Z"/></symbol><symbol id="𧻓_P" viewBox="0 0 1000 1000" data-size="22"><path transform="matrix(1 0 0 -1 35 952)" d="M219 726c0 20-1 50-2 89-2 40-2 70-2 90l78-47-27-23V726h62l39 39 59-59H266V534h74l43 43 66-62H242l63-43-27-20V351h70l39 39 59-59H278V140c75-44 186-66 332-66 147 0 254 4 320 12V70c-42-7-63-25-63-54l-158 3c-67 1-117 2-150 2-58 1-107 7-147 18-135 36-230 104-283 206C106 145 67 63 12 0L0 8c36 68 61 138 76 210 12 61 18 135 18 222l82-39c-26-8-39-50-39-128 16-28 47-63 94-106v348c-106 0-137 0-93 1-36-1-66-5-91-13l-31 31h203v172c-55 0-94-4-117-12l-31 32h148m362-290 35 43 48-59h-83c-13-120-62-212-149-277l-13 11c77 82 116 171 116 266-42 0-72-4-91-12l-26 32h117v203c-37 0-66-4-85-12l-26 31h163l32 35 45-54h-83V436m208-301-48-20c1 139 2 243 3 313-23 0-45-4-64-12l-26 31h90v204c-23 0-45-4-64-12l-26 31h163l32 39 51-58H789V447h51l34 43 54-62H789V135M625 811l-91-157-16 4c45 122 68 196 68 219l74-55-35-11m207-4c-44-73-70-119-79-137h-23c41 97 65 166 71 207l60-51-29-19Z"/></symbol></svg>