<svg xmlns="http://www.w3.org/2000/svg"><symbol id="𬼀_J" viewBox="0 0 1000 1000" data-size="21"><path transform="matrix(1 0 0 -1 107 868)" d="M419 344c-17 0-37 13-59 39-49 59-120 106-211 142l12 27c93-22 167-50 220-84 48-30 71-57 71-82 0-13-4-23-11-32-6-6-13-10-22-10M18 0 0 25c182 69 333 170 453 304 102 114 180 250 232 406 67-23 100-42 100-57 0-6-5-12-16-16-10-4-23-6-39-6-79-184-181-329-306-435C317 130 182 56 18 0Z"/></symbol><symbol id="𬼁_J" viewBox="0 0 1000 1000" data-size="21"><path transform="matrix(1 0 0 -1 77 930)" d="M114 786c4-57-6-104-27-140-14-22-29-34-47-34-10 0-20 5-29 13-7 7-11 15-11 23 0 10 5 20 14 30 40 42 61 99 65 173l25-4c2-8 4-20 7-36h556l41 50c49-50 73-81 73-94 0-5-4-9-12-10l-44-6c-37-71-84-148-142-232-3-5-3-10-1-15 2-4 6-6 12-6h150l39 43c42-31 63-51 63-61 0-5-3-9-8-12l-23-15c-5-194-34-320-86-378-23-26-45-45-64-55-22-13-48-19-78-20 0 20-9 34-28 43-17 7-67 19-149 34v28c81-12 146-18 194-18 35 0 63 17 84 50 41 62 63 174 65 336H570c-14 0-24 5-29 16-4 8-4 16 1 24 52 96 95 187 128 273H114Z"/></symbol><symbol id="𬼂_J" viewBox="0 0 1000 1000" data-size="21"><path transform="matrix(1 0 0 -1 57 886)" d="M410 773c62-31 93-51 93-61 0-5-4-9-11-13-6-3-14-4-22-4s-15 0-20 1c-91-152-188-296-291-434 43 23 78 34 105 34s51-5 73-15c21-9 44-25 70-46 59-49 108-89 147-118 44-34 83-50 116-50 30 0 62 10 95 31 29 18 58 38 86 60 11 9 18 13 23 13 8 0 12-5 12-15 0-7-8-20-26-37-23-23-56-50-99-81-35-25-75-38-119-38-42 0-89 23-140 70-56 51-110 103-160 155-27 29-56 43-85 43-15 0-33-5-54-16-17-9-32-20-45-32-14-14-35-40-61-78-16-24-32-36-46-36s-26 5-37 16c-9 8-14 17-14 26 0 11 9 23 28 38 19 16 33 27 41 35 14 14 26 28 34 41 133 200 235 371 307 511Z"/></symbol><symbol id="𬼃_S" viewBox="0 0 1000 1000" data-size="21"><path transform="matrix(1 0 0 -1 42 934)" d="m327 772-20-1-63-1-63-2-64 1-65 2-1 9 129 16 124 16 121 16 58 9 167 30 5 1 1-6 59-48 2-15-24 12-26-5-59-8-118-13-60-5-42-4h3l15-10-15-10V650l-1-15h211l31 25 57-47-26-20V120h-62v493H389l-4-59-13-90-20-84-28-76-35-71-43-61-50-55-57-47-65-40L4 0 0 9l64 39 57 44 51 49 42 54 36 61 29 66 22 73 15 79 9 85 1 54H64v22h263v137M685 36l-14 1-14 2-12 4-12 7-11 9-8 10-7 12-4 13-2 12v14h62v-7l1-5 2-4 2-2 5-1 5-1 7-1h169l30 131h11L885 99l17-13 13-19-13-18-18-13H685Z"/></symbol><symbol id="𬼄_J" viewBox="0 0 1000 1000" data-size="21"><path transform="matrix(1 0 0 -1 72 929)" d="M114 787c3-57-6-104-27-141-14-22-29-33-47-33-10 0-20 4-29 12-7 8-11 15-11 24s5 19 14 30c39 41 61 99 65 173l25-4c2-8 4-21 7-36h566l41 46c54-47 81-75 81-85 0-8-5-12-13-13l-51-9c-44-51-87-94-130-129-5-4-6-9-2-15 2-4 7-6 14-6h90l41 43c35-34 55-54 60-60 11-11 17-20 17-25 0-7-5-11-14-12l-46-6c-41-37-86-82-137-135-5-5-5-10-3-14 3-5 7-7 14-7h115l39 43c42-31 63-51 63-61 0-5-3-9-8-12l-23-15c-6-122-33-210-79-266-22-26-44-45-64-56-22-12-49-18-78-18 0 20-10 34-28 43-18 7-67 18-149 34v28c81-12 145-18 194-18 38 0 66 14 84 41 35 53 54 130 58 232H612c-15 0-24 5-29 15-3 9-3 17 3 25 42 60 84 119 126 176H593c-15 0-25 5-31 15-5 9-5 17 1 25 60 72 99 129 117 171H114Z"/></symbol><symbol id="𬼅_S" viewBox="0 0 1000 1000" data-size="21"><path transform="matrix(1 0 0 -1 34 935)" d="m788 95 10 30 9 34 7 37 7 42 5 46 6 50 4 53 3 58 3 61 1 54h-48v-2l-66-27 24 291H633l2-116-2-117-7-109-11-98-15-89-20-79-23-69-29-60-33-48-37-37-7 7 28 41 24 50 21 58 18 68 15 77 9 87 7 96 3 107-1 115-4 116H471v21h283l32 26 58-47-27-16-6-2-14-224h47l31 26 58-46-27-16-1-1v-39l-3-63-4-58-3-55-6-51-6-48-7-43-9-41-9-38-9-33-61 21m-446 0 10 30 8 34 8 37 7 42 6 46 5 50 4 53 3 58 3 61v54h-47v-2l-66-27 24 291H182l2-117-3-118-7-108-10-99-16-89-19-80-24-68-28-59-33-48L7 0 0 7l27 41 25 49 20 57 19 68 13 77 11 86 6 96 4 107-1 117-5 117H20v21h288l32 26 57-47-26-16-7-2-13-224h46l32 26 57-46-26-16-1-1v-39l-3-63-4-58-4-55-5-51-6-48-7-43-9-41-9-38-10-33-60 21m446 0 61-21-6-12-6-12-8-10-8-11-10-8-11-6-12-6-13-3-13-2-13-1v31L644 50v15h105l7 1 6 1 5 2 4 1 3 2 3 3 6 8 3 5 2 7m-446 0 60-21-6-12-5-12-8-10-8-11-11-8-10-6-12-6-13-3-14-2-12-1v31l-95 16v15h95l7 1 5 1 5 2 4 1 4 2 3 3 6 8 3 5 2 7Z"/></symbol><symbol id="𬼆_J" viewBox="0 0 1000 1000" data-size="21"><path transform="matrix(1 0 0 -1 109 946)" d="M482 265c85 68 153 141 204 221 61-33 92-56 92-69 0-5-6-9-19-12-12-3-26-3-41 0-57-67-119-127-186-178 12-9 29-23 52-43 20-18 36-37 49-57 11-18 17-34 17-47 0-12-4-22-10-30-7-8-15-12-24-12-15 0-31 12-46 37-23 36-54 74-93 114C353 106 199 43 13 0L0 25c167 49 312 117 435 205-53 49-110 92-170 131l14 20c69-31 137-70 203-116m-15 384c90 71 164 151 223 242 61-33 92-56 92-69 0-5-6-9-18-12-13-3-27-3-42 0-66-78-135-144-206-197 9-8 16-14 20-17 42-37 63-68 63-93 0-12-3-22-10-30-6-8-14-12-23-12-14 0-28 12-44 37-16 24-36 49-62 76-114-74-255-130-423-169l-13 25c149 44 281 105 395 184-43 39-98 81-164 126l14 20c63-27 129-64 198-111Z"/></symbol><symbol id="𬼇_G" viewBox="0 0 1000 1000" data-size="21"><path transform="matrix(1 0 0 -1 40 958)" d="m325 873 52-51c6-6 9-11 9-14 0-4-3-6-9-6-25 5-65-4-119-26-20-9-39-16-57-22V456l148 20 29 40 59-36c8-5 11-8 10-10-2-2-9-4-20-4l-226-31V111c-3-46 22-68 75-67 108-4 244-4 408-2 26 0 42 1 48 1 57-1 93 0 107 4 15 3 23 15 26 35 5 30 8 69 9 117h13c3-52 5-86 6-104 1-20 10-36 26-48-19-28-45-42-76-42-83-3-173-4-272-4-99-1-195-1-289 1-52 0-86 8-101 22-17 12-26 38-25 79v327l-70-9c-22-5-37-12-44-22L0 431l156 20v288c-43-13-90-23-143-31v15c109 30 191 60 247 89 17 8 32 16 45 26 9 6 12 16 11 29l9 6m-48-713-7 11c147 114 235 281 264 503 15 94 22 161 20 201-2 5-9 15-20 29-2 1-3 2-4 4l7 9 100-37c3-3 4-5 3-7s-3-3-7-3c-1-1-4-2-7-4-13-7-22-11-27-12-1-18-2-35-3-51 31-184 71-326 118-424 39-83 90-132 152-148l-3-14c-31 4-52 3-61-2-6-2-13-8-21-17-77 64-135 191-174 381-13 54-22 95-25 121-29-265-131-445-305-540Z"/></symbol><symbol id="𬼈_J" viewBox="0 0 1000 1000" data-size="21"><path transform="matrix(1 0 0 -1 59 947)" d="M720 92H164V0h-59v418c69-4 103-13 103-28 0-8-15-17-44-27V117h245v411H11L0 553h409v212c-101-18-220-36-357-54l-13 25c307 52 524 105 650 158 49-25 74-45 74-58 0-7-8-10-22-10-9 0-21 1-35 4-59-16-137-34-232-53V553h280l56 72c29-27 53-52 72-76l-10-21H474V117h246v301c68-3 102-12 102-28 0-9-15-19-44-29V22h-58v70Z"/></symbol><symbol id="𬼉_K" viewBox="0 0 1000 1000" data-size="21"><path transform="matrix(1 0 0 -1 56 941)" d="M150 80c1-31 2-47 2-48-1-11-8-21-20-28-8-3-14-4-17-4-5 0-8 5-9 14v408l49-10c16-6 24-11 24-16 0-3-10-9-29-19V100l274 1v453H0v20h424v208c-127-12-239-15-337-9l-2 12c105 2 212 11 319 27 125 18 224 41 295 70l37-36c9-8 13-14 13-18 0-10-15-9-45 1-88-19-167-33-236-41V575l289-1 34 41c10 12 16 18 19 18s11-5 23-16l56-50-7-13H468V339h175l26 41c6 9 11 14 15 14 3 0 10-4 20-10l57-48-11-19H468V101h256l39 42c8 9 13 14 15 14 4 0 10-4 19-13l57-52-6-11-698-1Z"/></symbol><symbol id="𬼊_S" viewBox="0 0 1000 1000" data-size="21"><path transform="matrix(1 0 0 -1 43 963)" d="m243 376-4-59-9-54-12-50-18-46-22-41-27-36-31-31-35-26-39-19L3 0 0 9l37 22 31 25 29 28 23 30 20 34 15 38 12 41 9 45 4 50v54h63m420 10H243v-10h-63v10H2v21h178v308l63-32h420l31 26 58-47-25-21V407h72l53 52 62-52v-21H727V93l1-5 1-5 1-2 5-2 5-1h108l30 131h11L879 78l18-13 13-19-13-19-19-12H747l-14 1-12 2-13 4-13 6-9 9-9 11-7 12-4 12-2 14-1 13v287M482 154l-6 16-10 17-11 15-13 17-33 31-19 17-45 32 3 9 28-9 26-10 26-12 22-12 21-15 19-15 17-16 14-19 14-18 12-21-1-23-18-17h-23l-18 17-5 16m181 508H243V407h420v255M482 475l-6 15-10 17-11 15-13 17-33 31-19 17-45 32 3 9 28-9 26-10 26-11 22-13 21-15 19-14 17-17 14-18 14-19 12-21-1-23-18-17h-23l-18 17-5 17M182 927l59-24 13-13-20-7-3-9-12-30-16-31-18-29h578l52 52 63-52v-21H170l-31-41-28-32-30-31-34-31-37-31-7 7 57 73 46 68 20 31 16 32 13 29 11 27 9 28 5 25 2 10Z"/></symbol><symbol id="𬼋_S" viewBox="0 0 1000 1000" data-size="21"><path transform="matrix(1 0 0 -1 27 941)" d="m694 432-1-27h105v209H694V432M356 84l-2 3-3 2-1 1-10 8-2 2-2 2-6 5-7 6 7 13 9 28 9 43 6 56 6 67 4 79H225v-1l-9-63-13-60-16-54-21-49-24-44-30-39-32-32-36-27L4 10l-4 8 32 28 28 30 25 33 21 38 19 42 15 46 11 52 9 56 4 56H40v22h125l2 48v162H60v21h107v182H52v21h310l32 27 57-48-25-15 3-103 1-117-1-107-2-94-4-82-6-70-7-59-10-47-12-38-17-31-15 13m-33 29 48-42-18-17-10-8-11-7-11-6-11-4-12-4-13-2-13-2h-12v32l-84 15v16h84l15 1 7 2 7 2 12 5 6 4 10 9 6 6m-94 518V468l-3-47h138l2 72v138H229m569 197H694V636h104v192m-436 6H229V652h137l-1 63-2 78-1-1v42m270-429v209H456v22h176v192H501v22h297l31 26 58-48-27-20V636h10l33 36 42-36v-22h-85V353l-62-32v63H692l-1-16-7-58-12-55-16-51-20-47-25-41-28-37-32-32-36-27-40-20-5 8 33 28 28 30 25 34 21 36 18 40 14 43 11 48 8 50 3 56v11H489v21h143Z"/></symbol><symbol id="𬼌_J" viewBox="0 0 1000 1000" data-size="21"><path transform="matrix(1 0 0 -1 39 949)" d="M431 488H103l-12 25h340v81H105l-11 25h337v74H25l-9 25h415v82c-113-9-224-14-330-15l-10 25c126 6 250 18 373 37 99 15 183 32 252 51 46-27 70-46 70-58 0-6-7-8-19-8-8 0-21 1-39 5-77-13-157-24-240-32v-87h313l51 64c28-24 51-47 70-70l-11-19H488v-74h247l39 44c41-32 61-52 61-61 0-4-3-8-10-12l-24-16V346h-56v33H488v-54c26-28 41-43 45-47 25-22 50-41 77-59 54 39 96 78 124 115 45-28 68-47 68-59 0-8-8-11-23-11-6 0-15 1-29 3-29-23-67-44-113-65 73-43 162-77 267-103-18-14-34-35-47-63-146 48-269 129-369 245V81c0-54-31-81-94-81-1 18-12 31-32 39-14 5-42 11-83 18v27c35-5 74-7 116-7 24 0 36 11 36 35v267H103l-12 25h340v84m57 0v-84h257v84H488m0 25h257v81H488v-81M13 20 0 44c124 47 223 122 297 223H54l-10 25h250l35 40c43-35 65-58 65-69 0-4-3-8-10-11l-32-12C275 139 162 66 13 20Z"/></symbol><symbol id="𬼌_S" viewBox="0 0 1000 1000" data-size="21"><path transform="matrix(1 0 0 -1 59 949)" d="m756 328 15-24 23-25 1-18-20 8-60-32-61-26-20-9-17-6 45-30 44-24 45-24 48-20 84-32-61-50-51 22-47 25-47 28-44 31-42 33-40 35-37 39-35 41-28 38V32L389 0v404H100v22h289v95H0v20h389v68H100v22h289v67H16v22h373v80l-118-11-63-5-63-4-66-2-2 9 65 14 416 75 108 21 1-5 59-48 1-16-23 12-27-5-110-15-115-13-1-87h263l53 52 62-52v-22H451v-67h200l32 25 57-47-26-20v-48h52l43 48 52-48v-20H714V384l-63-31v51H451v-63l51-50 38-35 39-32 24-17 35 30 118 91M25 63v3l-4 11v3l-5 18-3 8-1 2-1 3 141 40 148 44 76 20 4-9-35-19-106-51-104-45-84-32-6-20-15 12-5 12m-14 48 19-60-29 57 10 3m190 135-13 21-9 11-22 24-39 37-16 13 4 7 19-7 19-7 34-16 30-16 14-9 24-20 11-11 6-23-12-21-23-5-21 11-6 11m450 275H451v-95h200v95m0 88H451v-68h200v68Z"/></symbol><symbol id="𬼍_J" viewBox="0 0 1000 1000" data-size="21"><path transform="matrix(1 0 0 -1 50 947)" d="M561 496h-86l-9 25h95v147c69-1 103-9 103-25 0-10-15-21-45-32v-90h20l43 61c34-32 55-54 64-67l-15-19H619V286h45l43 61c23-22 43-44 59-67l-10-19H619V0h-58v261H460l-9 25h110v210M252 261H149l-9 25h112v210h-86l-9 25h95v147c69-1 103-9 103-25 0-10-15-21-45-32v-90h20l43 61c34-32 55-54 64-67l-15-19H310V286h26l43 61c23-22 42-44 59-67l-10-19H310V0h-58v261m286 446c-24-50-61-102-112-156l-19 16c35 48 62 99 81 154 15 40 31 98 47 173 61-13 91-26 91-39 0-8-13-14-41-19-13-45-25-80-36-104h251l38 49c42-31 62-52 62-62 0-4-3-9-11-14l-23-14v-63c0-309-10-488-29-539-19-49-59-75-119-79 0 19-6 32-17 40-12 9-34 16-65 20v27c28-3 54-5 78-5 47 0 73 20 79 61 11 78 16 236 16 476v78H538m-384 66c74 23 142 56 202 100 45-28 67-48 67-60 0-5-7-8-20-8-7 0-17 1-30 3-67-26-143-47-228-63V500c0-220-41-386-123-499L0 16c57 115 86 276 86 484v307c26-11 48-22 68-34Z"/></symbol><symbol id="𬼎_K" viewBox="0 0 1000 1000" data-size="21"><path transform="matrix(1 0 0 -1 51 929)" d="M757 457c6-6 9-12 9-16 0-3-3-7-8-9l-17-8V26c0-5-7-11-19-17-9-5-15-8-20-8-4 0-6 4-6 13 1 17 1 27 1 30H194c1-14 1-22 1-23-1-3-8-8-21-14-9-5-15-7-19-7-5 0-8 4-8 12 0 3 1 9 1 19 2 9 2 17 2 22l-3 441 47-30h171c11 30 17 57 21 80l49-14c10-2 15-6 15-11 0-9-12-14-37-16-4-10-9-24-17-39h299l6 14c3 6 6 9 11 9 3 0 8-3 14-8l31-22M697 63v379H194V63h503m-65 296c6-6 9-11 9-14 0-7-14-10-40-10-26-37-59-75-98-114 47-26 75-46 84-62 10-15 15-28 15-38 0-8-3-12-9-12-7 0-17 6-30 18l-87 68C399 137 316 94 228 68l-7 13c81 27 157 71 228 133-41 27-80 49-115 64-34-33-72-63-114-91l-10 9c86 65 148 145 186 241l38-16c10-8 15-13 15-17 0-5-8-7-23-7-2-1-6-7-12-16-5-9-8-14-10-16h155l13 21c7 9 13 13 16 13 2 0 7-2 15-7l29-33m-77-13H389c-15-23-29-40-42-51l124-60c41 45 69 81 84 111M272 659c19-5 38-16 57-34 12-12 19-27 22-43-2-28-10-42-22-42-8 0-17 8-25 23-21 38-41 63-61 76l-29-26c-59-43-129-73-210-90l-4 15c66 25 140 66 220 125-4 8-33 29-88 65l7 10c21-8 53-25 96-50 40 47 68 91 84 131H91v21h516l18 11c7 5 12 7 16 6 0 0 5-2 14-7l30-17c7-5 11-9 11-13 0-8-13-14-41-17-5-32-13-58-23-79h191l11 13c6 10 10 15 13 15 1 0 6-4 14-13l27-17c7-6 10-10 10-14 0-6-8-13-26-20-19-83-35-131-48-143-15-16-44-27-89-33-7-2-13-2-17-2-11 0-16 3-16 9 0 1 0 3 1 7s2 7 2 9c0 5-2 10-6 13l-53 29 3 12 85-27c12-4 21-5 27-5 26 0 50 48 70 146H621c-7-15-13-24-17-27-3-3-12-5-25-8-5-1-9-2-12-2-5 0-7 2-7 5 0 4 4 15 14 33 11 18 24 57 40 115H393c8 0 12-3 12-8 0-12-15-18-46-21-24-46-53-90-87-131Z"/></symbol><symbol id="𬼏_G" viewBox="0 0 1000 1000" data-size="21"><path transform="matrix(1 0 0 -1 20 973)" d="M222 702c-1 15-9 30-26 45l8 11 82-37c6-3 10-5 11-7 1-3 0-5-4-7-15-3-25-8-30-16V515h63l33 41 60-45c8-6 12-10 12-13s-4-4-12-3H263V125c0-23-6-40-17-53-12-13-38-25-79-35-2 21-10 35-25 42-9 6-31 13-65 22l4 16 21-4c85-21 125-6 120 45v337H103l-29-28-47 35c15 9 24 20 28 33l35 279c-3 16-8 30-17 43l13 12 39-44c60 17 109 34 146 50 5 1 8 3 11 4 21 9 36 16 45 21 10 6 13 14 8 24l10 6 63-53c6-4 9-8 9-11s-3-6-9-8c-22 7-49 5-80-4-69-21-134-38-197-49L96 515h126v187m186-295-11 8c45 83 79 164 101 241 23 76 36 135 40 176 1 9 2 19 4 32 3 24 4 37 4 38 0 5-4 15-13 28l6 9 76-25c9-6 11-10 5-13-14-3-23-9-27-17-12-69-27-135-46-198h97l28 29 46-40c3-3 5-6 4-7 0-2-2-3-7-4-6-2-12-5-17-9-6-4-10-19-13-44-3-27-10-67-22-119-12-58-29-111-51-159-50-116-129-216-236-301l-6 13c97 101 165 198 202 291 19 43 35 93 48 150 13 55 22 115 29 180H540c-14-45-31-88-52-129 25-19 43-37 55-54 15-22 22-44 21-65-2-21-9-32-21-35-11-3-17 6-18 28 0 19-5 40-15 61-7 15-18 30-32 46-20-39-43-76-70-111m321 538 85-36c5-1 7-3 8-5 1-1 1-3-2-5-14-6-24-13-29-21V580c51-27 88-51 111-73 27-27 44-51 52-72 6-21 7-37 3-49-5-11-14-16-26-14-12 1-19 12-21 34-3 22-14 46-31 72-15 23-45 50-88 81V141l2-96c0-13-4-23-13-30-8-6-20-11-37-15 3 26 5 88 7 187v701c1 10-9 25-30 45l9 12M183 397c4-3 4-6-1-9-10-1-20-7-29-18-13-32-26-61-39-86C83 223 48 174 9 136l-9 7c41 65 71 126 92 184 17 42 24 65 23 70 0 8-3 15-9 20l6 8 71-28m134 17c3-3 8-8 14-13 23-21 40-39 51-55 21-28 36-57 45-87 19-57 15-86-14-89-11 1-19 16-23 45-3 22-11 50-24 84-1 2-1 4-2 5-7 20-26 53-56 100l9 10Z"/></symbol><symbol id="𬼐_S" viewBox="0 0 1000 1000" data-size="21"><path transform="matrix(1 0 0 -1 38 946)" d="m851 724 62-52v-22H740v-94h46l43 48 53-48v-21H740V425h27l52 53 63-53v-21H740V294h69l52 52 63-52v-22H740V31L677 0v272H509v22h168v110H572v21h105v110H572v21h105v94H535v22h263l53 52M173 488H31v21h142v141H16v22h262l53 52 63-52v-22H236V509h31l43 47 52-47v-21H236v-48l-4-65v-5l59 17 85 21 4-9-79-39-74-33-2-13-12-56-16-52-19-48-25-41-28-37-31-30-36-26L18 7l-5 8 33 26 27 28 25 33 21 35 18 40 14 44 10 48 5 32-105-44-10-4-5-20-15 12-5 12v1l-4 11-1 1v2l-3 10v1l-5 14-2 4-1 3 161 48 2 27v109m654 405v-6l64-53 2-16-25 14-37-3-154-10-77-5-77-4-30-2V78l-62-31v757l-211-14-76-5-76-2-1 9 75 14 74 11 151 22 75 10 230 27 149 16 6 1M10 304l21-59-31 56 10 3Z"/></symbol><symbol id="𬼑_G" viewBox="0 0 1000 1000" data-size="21"><path transform="matrix(1 0 0 -1 21 973)" d="M225 544c15 45 30 96 43 153 1 7 4 18 7 32 20 94 28 141 24 140-6 12-12 21-18 28l6 9 87-29c8-3 12-5 12-8 1-3-2-5-9-6-17-2-28-8-35-19-21-117-50-227-85-329-3-9-5-17-8-25 7-13 17-32 29-57l9-18c48-108 72-196 73-265-2-35-11-53-26-54-15-3-23 14-25 52-5 41-11 78-18 111-9 41-24 86-45 137-1 5-4 11-8 20-3 9-6 15-8 19-11-32-19-55-26-69C157 251 94 143 14 43L2 52c67 109 119 210 156 301 11 27 27 72 48 133-9 18-24 45-43 80-3 6-6 10-7 13-37 69-89 147-156 235l14 13c3-3 7-8 12-14 71-86 121-153 150-201 16-25 32-50 47-75l2 7m563 378c11-6 14-10 8-13-13-1-24-7-31-18-8-25-17-49-27-71h127l25 34 62-43c5-3 7-6 6-8s-5-3-12-3H793c13-11 23-19 30-26 19-19 29-40 32-61 2-20-5-30-21-31-11 0-16 8-17 23 0 15-5 31-14 48-4 11-16 26-36 47h-39l-5-11c-17-35-40-67-67-97l27-11c9-3 11-6 6-11-11-3-20-8-27-17v-51h87l31 38 68-49c5-3 8-6 7-7s-5-2-13-2H662V467h152l32 39 66-49c6-3 9-6 8-8-1-1-6-2-14-2H441c-17 1-32-4-45-13l-33 33h254v115H508c-18 1-33-4-45-13l-33 33h187v61c1 10-7 24-24 41l8 10 41-17c29 49 54 105 77 169 8 24 12 40 11 47 0 7-4 15-13 25l6 7 65-23m-65-538c-1 16-10 31-26 44l8 11 86-21c6-1 10-4 11-7s0-5-4-7c-11-3-21-9-30-16v-53h75l31 39 68-49c5-3 7-6 6-8-1-1-5-2-12-2H768V86c0-21-6-37-17-50s-37-25-78-36c-2 21-9 34-22 40s-38 13-74 21l4 18 33-8c77-23 114-8 109 45v199H460c-17 1-32-4-44-13l-34 33h341v49M538 920c10-5 13-9 8-12-14-1-25-7-32-18-9-28-19-52-29-73h96l25 34 62-43c5-3 7-6 6-8s-5-3-12-3H523c11-9 20-17 27-26 33-53 35-84 5-94-8 0-13 8-14 25 0 17-3 33-10 49-3 9-12 24-27 46h-29l-6-15c-1-2-2-5-4-8-4-9-9-19-16-30-22-36-50-71-84-105l-8 8c33 49 55 86 66 111 15 31 28 63 39 95 12 33 18 54 17 61 0 7-4 15-13 25l6 7 66-26m-63-652 6 11c43-18 72-35 88-50 18-17 30-31 36-44 12-33 7-51-15-55-9 0-15 9-20 26-4 16-11 32-22 47s-35 37-73 65Z"/></symbol><symbol id="𬼒_S" viewBox="0 0 1000 1000" data-size="21"><path transform="matrix(1 0 0 -1 36 965)" d="m413 97-70 113-34 51-44 63V21L223 0v271l-12-22-23-36-25-33-25-32-28-28-28-25-30-23-31-17-6 8 47 51 22 29 21 30 41 65 19 36 17 39 16 40 16 42 9-3v296H33v21h190v115l-28-6-77-15-41-8-43-6-2 9 39 16 299 111h1l5 2 2-9 49-41 1-17-22 11-11-5-93-23-58-14 21-5 9-11-9-7v-97h99l53 53 62-53v-21H265V376l7-4-7-18v-1l31-25 43-42 43-47 63-80 21-28 4-25-14-19-23-4-20 14m251 570h-84l-6-15-13-29-16-28-19-27-19-24-9 5 31 87 8 30 8 30 6 31 6 32 4 32 2 33 1 30 1 16 63-16 15-11-18-10-3-16-6-35-8-34-9-33-10-27h75v242l63-11 15-11-15-9V688h59l53 52 62-52v-21H727V541l-4-80-2-15h88l52 53 63-53v-20H720l11-42 14-45 15-42 15-39 19-37 20-33 22-32 24-28 27-25 41-34-57-43-31 30-27 33-24 34-21 37-19 40-15 42-11 44-9 46-4 42-13-57-20-63-27-58-32-50-37-45-43-39-48-32-52-23-5 9 46 32 41 35 35 40 30 44 25 50 21 54 15 59 11 65 3 31H507v20h154l2 20 1 75v126M22 374l-7 18v1l-2 4-1 3-2 4 13 4 100 31 5 2v111H18v20h110v84l53-10 12-10-12-9V339l-53-26v102l-17-15-25-19-24-18-7-5-4-22-17 10-2 6v1l-10 20v1m279 277 53-10 13-11-13-9v-95l94 81 4 4 23-33 14-17 1-18-19 8-43-20-47-19-18-6-9-2V397l1-4 2-4 1-2 2-1 4-1 4-1h70l31 131h10l-9-131 18-13 13-19-13-19-19-13h-89l-14 2-12 2-13 5-12 7-9 9-7 10-6 12-4 12-2 13v259M10 404l24-58-34 54 10 4Z"/></symbol><symbol id="𬼓_G" viewBox="0 0 1000 1000" data-size="21"><path transform="matrix(1 0 0 -1 21 959)" d="M238 92v157H93c-17 1-32-4-44-13l-33 33h107v191H94c-15 1-29-4-40-13l-33 33h102v188H77c-18 1-33-4-44-13L0 688h238v126c-69-10-133-17-193-22l-4 16 80 15c13 3 30 6 53 11 79 17 126 27 139 32 31 9 50 16 57 21 9 5 14 14 16 26l10 4 42-55c6-6 9-11 9-14s-3-4-9-5c-18 3-39 2-63-2-31-7-58-13-83-17-5-1-9-2-13-3V688h111l35 38 67-48c5-4 7-7 6-8-1-2-5-3-12-2h-90V480h10l27 32 53-43c5-3 8-6 7-7-1-2-6-3-13-2h-84V269h33l25 28 45-39c5-3 8-6 7-7-1-2-5-3-12-2H279V92h82l32 41 65-47c7-5 9-8 8-11-2-2-8-3-19-3H135c-16 1-31-3-44-12L58 92h180m624 288 60-47c4-4 6-7 6-9 0-3-2-4-6-5-20 2-40-3-59-16-10-7-40-26-89-56-7-5-12-8-15-10 9-17 21-34 34-51 17-25 39-49 66-70 26-18 59-34 99-49l-1-15c-18 0-32 1-42 2s-22-5-35-19c-35 27-65 58-92 92-25 32-49 73-70 124-21 53-36 112-46 178h-78V82l146 69 10-15-113-71c-35-21-57-43-67-65l-51 47c16 8 27 18 32 29v353c-15 1-28-4-37-13l-30 33h76v399c2 13-4 27-19 42l11 14 43-34h197l31 39 67-49c5-4 7-7 6-9-1-1-4-2-11-1H603V727h165l32 39 66-49c5-3 8-5 7-6s-6-1-13 0H603V588h169l32 40 67-50c5-3 7-5 6-6s-5-1-13 0H603V449h246l32 38 67-48c5-4 7-7 6-9-1-1-5-2-12-1H694c21-77 36-127 46-149 3-8 7-16 11-25 1 1 3 3 6 5 28 22 48 38 60 49 21 17 33 31 38 42 3 7 2 14-2 21l9 8m-583 80V269h80v191h-80m0 20h80v188h-80V480m-119-20V269h78v191h-78m78 208h-78V480h78v188Z"/></symbol><symbol id="𬼔_G" viewBox="0 0 1000 1000" data-size="21"><path transform="matrix(1 0 0 -1 13 980)" d="M605 782V99c0-17-4-33-11-47-8-15-33-25-74-31-1 31-31 51-90 62l1 14c52-7 84-11 97-11 14 0 23 2 28 6 5 7 7 30 6 69v324H436c-2-132-16-229-41-291-23-63-72-127-147-194l-8 12c107 106 159 264 154 473h-2c-12 1-24-3-35-13l-33 33h71v291c0 16-7 32-22 47l12 12 44-42h21l15 38c17 46 24 72 21 77l-11 24 8 7 66-28c11-7 14-12 7-14-15 1-26-5-33-18-5-9-13-22-23-39-13-21-23-37-29-47h74l29 41 51-41c6-4 9-8 9-11s-3-5-9-8l-20-12m51-356 37-32h137l33 35 46-43c5-4 6-7 5-10s-4-6-10-7l-18-8V121l4-51c5-26-11-40-47-43v68H707V57c2-23-15-38-50-43 3 25 6 73 7 145v217c-2 16-9 29-20 39l12 11M16 815v15c91 13 163 28 215 45 3 1 6 2 11 3 26 5 40 16 42 32l6 2 47-47c5-5 7-10 6-13s-4-5-10-6c-12 8-31 8-58 1-21-5-42-10-62-14V467h59l30 31 45-41c5-3 7-6 6-8-1-1-5-2-12-2H213V115c-1-22-7-39-17-51-11-15-34-26-69-35-2 21-11 34-26 39l-9 3c-7 3-21 8-41 13l4 17c49-10 80-12 93-6 15 5 23 22 22 50v302H77c-17 1-32-3-44-12L0 467h170v359c-38-5-89-9-154-11m645 63 53-35h84l29 34 60-42c4-4 5-7 4-10s-5-5-10-6l-25-12V585c-3-54 9-78 35-72 16 0 27 5 34 16h5c9-8 20-17 33-27 12-9 15-15 8-16-38-7-66-11-83-10-32 1-52 8-61 19-10 10-15 33-14 68v260h-92c4-105-2-183-18-235-15-54-45-101-90-140l-4 12c31 41 51 86 60 136 5 25 8 55 9 90 1 33 1 80 0 141-3 15-11 28-26 40l9 11M438 570c-1-23-1-45-1-65h125v288H438V570m269-196V115h136v259H707M291 742l65-28c10-6 12-11 5-14-13-2-24-6-33-13-25-57-56-114-92-172l-9 5 24 59c29 69 43 113 44 134-1 7-4 14-9 22l5 7M28 716l9 11c29-35 48-60 57-75 10-19 18-38 23-55 6-18 8-35 5-51-3-17-10-24-20-23-12 0-18 12-17 35 0 17-4 41-13 72-8 25-23 54-44 86m417-302 7 10c50-37 76-70 79-99 5-35-2-53-23-55-9 1-14 12-16 31-2 22-6 40-12 53-5 14-16 34-35 60m5 307 8 10c45-34 70-65 73-92 9-36 1-54-22-55-9 1-14 11-15 30-1 18-4 35-9 51s-17 35-35 56Z"/></symbol><symbol id="𬼕_S" viewBox="0 0 1000 1000" data-size="21"><path transform="matrix(1 0 0 -1 32 962)" d="m153 412-2-70-5-65-7-58-11-52-14-46-16-39-20-32-22-25L29 8 3 0 0 8l20 14 16 20 16 24 12 31 11 36 9 43 6 49 5 56 2 63-1 69v483l57-10 15-11-15-9V412M849 33l-6 10-8 11-10 9-11 11-12 10-14 11-33 22-19 9 2 10 22-6 21-4 20-5 18-6 17-7 31-16 14-10 13-11 11-11 5-24-14-20-23-4-20 12-4 9M640 151l46-43 4-18-22 4-23-18-34-19-18-10-41-18-45-16-4 8 38 29 46 40 35 37 9 12 4 6v1l5 5M245 53V37l-47-23v846l47-23h139l43 47 52-47v-22H368V601h42l29 26 55-48-26-17V279l-58-29v61h-42V74h26l43 47 51-47V53H245m66 258h-66V74h66v237m247 186 62-31h177l31 26 58-48-27-20V172l-62-32v32H620l-62-32v357m239-234H620v-71h177v71m0 91H620v-71h177v71M410 579H245V332h165v247m387-135H620v-70h177v70m-234 82-53-26v188l53-26h289l28 26 56-47-27-19v-96l-57-29v29H563m62 115h-62v-93h62v93m114 0h-62v-93h62v93m113 0h-60v-93h60v93M311 815h-66V601h66v214m218-95v20h148v81H499v22h178v81l63-11 16-11-16-8v-51h63l52 52 63-52v-22H740v-81h53l43 48 52-48v-20H529Z"/></symbol><symbol id="𬼖_J" viewBox="0 0 1000 1000" data-size="21"><path transform="matrix(1 0 0 -1 101 919)" d="M72 774h589l52 64c28-24 53-47 73-70l-11-19H61V101c0-22 8-35 25-38 24-5 128-8 310-8 130 0 243 4 339 13 4 0 9 1 15 1 3 1 5 1 6 1 13 0 23-4 32-13 7-8 11-18 11-30 0-9-6-15-17-18-7-2-21-4-40-5-33-3-132-4-296-4C194 0 58 4 38 13 13 23 0 50 0 94v711c36-15 60-25 72-31m41-351-10 25h502l57 68c27-23 52-47 74-73l-12-20H113Z"/></symbol><symbol id="𬼗_J" viewBox="0 0 1000 1000" data-size="21"><path transform="matrix(1 0 0 -1 58 944)" d="M118 122v687c26-10 51-22 74-35 217 23 391 61 523 114 46-30 69-52 69-64 0-6-6-9-18-9-9 0-22 2-39 6-63-17-151-33-264-48-96-12-190-22-283-28V143c84 28 169 63 256 103l6-27C320 149 199 90 77 41c1-27-5-41-17-41C45 0 25 29 0 87c32 8 71 20 118 35m556-94c-92 0-146 5-163 15-16 10-24 32-24 67v618c69-1 103-10 103-26 0-9-14-19-43-30V121c0-18 6-29 18-32 13-4 43-6 91-6 59 0 95 3 110 10 23 11 39 82 46 211l26-9v-34c-1-72 3-119 13-143 6-14 17-21 33-21-1-34-16-54-44-60s-83-9-166-9Z"/></symbol><symbol id="𬼘_J" viewBox="0 0 1000 1000" data-size="21"><path transform="matrix(1 0 0 -1 42 925)" d="M584 301V93c0-19 8-31 23-34 17-3 48-5 95-5 70 0 109 11 118 31 11 24 19 87 25 188l26-10c0-94 3-151 10-171 5-17 17-26 35-26-2-31-15-51-39-58-23-5-82-8-179-8-87 0-139 7-154 20-12 11-18 32-18 63v193C345 197 190 135 62 91c-3-26-9-39-19-39-7 0-14 7-20 20-6 12-13 34-23 66 25 7 47 13 66 18v536c64-1 96-9 96-25 0-9-13-18-40-27V172c41 14 72 24 92 30v637c65 0 97-7 97-21 0-7-14-15-41-25V221l93 33v438c63-1 95-9 95-25 0-8-13-17-39-27V275l107 40v534c66-2 99-11 99-27 0-9-14-18-41-29V338c79 32 135 55 168 69l21 76c35-9 66-19 93-30l-1-24c-82-38-176-81-281-128Z"/></symbol><symbol id="𬼙_J" viewBox="0 0 1000 1000" data-size="21"><path transform="matrix(1 0 0 -1 39 939)" d="m201 264 178 103v511c69-1 104-9 104-24 0-9-14-19-41-30V404l109 63v289c67-1 101-10 101-27 0-9-14-19-43-29V501l123 71 13 88c38-8 73-19 105-31l-1-22-240-138V349c0-19 6-29 18-32 13-4 38-6 75-6 32 0 56 3 70 10 24 12 39 54 46 127l26-9c-1-50 0-82 3-93 4-19 14-28 31-28-1-29-14-47-39-54-20-6-64-8-133-8-71 0-114 5-131 15-16 10-24 32-24 67v97l-109-63V101c0-19 6-32 18-37 16-5 69-8 159-8 93 0 149 3 169 9 21 8 36 25 45 51 8 25 14 63 18 113l25-7c1-62 5-104 12-124 5-17 17-24 35-23-2-35-20-56-55-63C829 4 749 0 628 0 506 0 435 4 415 13c-24 10-36 36-36 80v243L201 233v-83h-56v382H11L0 557h145v194c63-1 95-9 95-23 0-9-13-18-39-29V557h46l46 71c25-27 46-52 62-77l-13-19H201V264Z"/></symbol><symbol id="𬼚_J" viewBox="0 0 1000 1000" data-size="21"><path transform="matrix(1 0 0 -1 60 939)" d="M59 478V313c0-15 5-25 14-29 10-5 35-7 73-7 56 0 87 7 95 22 11 18 18 60 22 124l26-10c0-59 1-93 2-100 3-15 14-23 31-23-1-30-14-48-41-54-25-7-69-10-129-10-65 0-107 5-127 14-17 9-25 28-25 58v409c66-3 99-12 99-26 0-9-13-18-40-27V509c78 35 143 74 196 119 43-29 64-49 64-62 0-7-6-10-19-10-9 0-20 1-31 4-57-31-127-59-210-82m501 0V313c0-15 5-25 14-29 11-5 35-7 73-7 56 0 87 7 95 22 11 18 18 60 22 124l26-10c0-59 1-93 2-100 3-15 14-23 31-23-1-30-14-48-41-54-25-7-69-10-129-10-65 0-107 5-127 14-17 9-25 28-25 58v409c66-3 99-12 99-26 0-9-13-18-40-27V509c78 35 143 74 196 119 43-29 64-49 64-62 0-7-7-10-19-10-9 0-20 1-31 4-57-31-127-59-210-82M597 0C476 0 405 4 385 13c-24 10-36 36-36 80v786c69-1 103-9 103-25 0-9-14-19-41-30V101c0-20 6-32 18-37 16-5 69-8 159-8 85 0 137 3 157 9 21 8 36 25 45 51 8 25 14 63 18 113l25-7c1-62 5-104 12-124 5-17 17-24 35-23-2-35-20-56-55-63C786 4 710 0 597 0Z"/></symbol><symbol id="𬼛_K" viewBox="0 0 1000 1000" data-size="21"><path transform="matrix(1 0 0 -1 60 955)" d="m386 911 67-15c23-6 32-12 27-17-4-4-18-9-42-15v-85h197l48 42 59-43c17-13 24-22 20-27-6-7-30-10-72-10-118-95-280-172-484-231 27-31 61-52 101-64 47-15 119-21 218-19 34-2 90 2 170 11 79 9 140 17 182 26l3-12c-20-10-36-21-46-31-10-9-17-20-21-33h-93c-71-1-126-1-163 1-60 0-113 3-159 9-66 12-115 27-146 48-28 18-57 50-88 98l-53-72-55-76-5-7c-4-8-8-12-11-11-5 1-14 9-26 25-9 14-14 23-14 27s4 8 12 11l17 9c19 10 40 26 66 49 26 24 51 51 75 81l16-6-15-21 26-31c175 69 322 149 441 239H147l-107-2-10 26 102-6h259v86l-5 46M815 56c1-10-11-19-37-28-26-8-63-14-109-17l-36-1c-88-5-153-7-195-8-66-2-136-2-209 0-42 1-76 7-102 19-23 9-38 22-44 39-6 15-4 30 7 46 12 17 29 31 54 43 37 20 100 44 189 73 68 22 161 48 279 76H86l-74-1-11 22 91-4h525l32 26 50-36c14-11 18-18 13-22-5-3-20-6-47-9l-153-38c-80-22-140-41-180-54-68-22-124-44-168-66-32-18-44-34-34-49 10-14 40-23 90-27 72-3 142-3 211-2 80 1 153 5 217 11 43 5 71 17 86 37 12 16 28 57 49 124l3 8 12-4-26-124c0-3 2-6 6-9 2-1 7-3 14-5s11-5 15-7c5-3 8-7 8-13Z"/></symbol><symbol id="𬼜_J" viewBox="0 0 1000 1000" data-size="21"><path transform="matrix(1 0 0 -1 63 930)" d="M428 442v144c-5-3-12-9-22-16s-17-12-21-15l-17 19c59 57 106 113 140 168H287c-58-80-145-154-261-224l-15 18c68 51 121 100 160 149 38 47 74 105 108 176 60-17 89-33 89-47 0-8-15-14-45-17-8-13-14-23-19-30h204l44 46c46-39 69-63 69-73 0-5-5-10-15-13l-32-8c-36-42-80-82-131-121 59 0 88-8 88-24 0-10-15-20-45-30v-86l209 56 37 58c45-32 68-53 68-64 0-4-3-9-10-14l-26-17c-1-87-3-147-7-179s-11-56-22-73c-18-27-49-40-93-40-1 22-12 36-33 43-15 6-36 11-63 15v27c39-5 75-7 108-7 23 0 37 13 43 38 6 26 9 89 9 187l-220-59V138h-58v275l-202-54V106c0-20 7-33 20-38 24-7 107-11 248-11 120 0 198 3 235 8 26 4 42 12 48 23 12 23 21 60 25 112l27-10c-1-14-1-26-1-37 0-25 4-44 13-58 8-14 19-20 33-20-3-31-15-50-34-57C807 6 696 0 507 0 320 0 214 8 191 23c-17 11-25 37-25 78v242L12 302 0 327l166 45v148c71-2 107-10 107-24 0-8-16-18-47-29v-79l202 54Z"/></symbol><symbol id="𬼝_K" viewBox="0 0 1000 1000" data-size="21"><path transform="matrix(1 0 0 -1 44 941)" d="M902 641c6-4 8-9 6-14-3-4-12-6-25-6H402c25-10 35-17 30-21-3-3-14-4-35-4l-10-1-84-57-74-50 207 20c69 6 144 13 223 20-15 19-28 34-39 43-12 13-23 24-34 33l9 8c43-21 77-42 102-62 32-25 50-49 55-73 5-29 3-47-6-54-8-9-18-3-30 15l-8 14c-8 15-14 26-18 32-7 13-14 22-18 29l-158-27c-38-6-97-14-177-26l-198-29c-5-18-10-27-17-27-6 0-12 8-19 27l-24 51c16 0 36 1 62 3 19 1 38 2 56 3l18 19 69 59c22 21 41 39 56 55H90l-79-7-11 30 75-3h354v99H182l-70-3-10 25 69-3h258v65l-6 58 66-22c26-8 36-16 29-23-4-3-17-8-38-13v-65h192l44 51 66-49c6-6 8-11 5-15s-11-6-23-6H480v-99h309l46 48 67-48M666 408l45-36c18-14 24-24 18-30-6-7-22-11-48-11-98-39-178-74-240-104-83-42-150-83-202-124-25-20-36-34-32-43 3-10 20-15 50-16 79-2 161-3 245-2 102 1 187 4 256 9 28 2 51 14 67 34 18 23 40 72 66 146l10-2c-17-72-25-116-26-133-1-20 6-33 21-36 6-1 10-4 12-8 3-6 5-12 4-18-2-6-6-11-13-15-9-5-20-8-34-9-81-6-180-9-296-10-86 0-191 1-313 3-57 1-94 12-110 35-19 24-6 51 39 83 55 40 122 81 200 122 54 29 130 66 229 111H158l-81-5-14 25 81-5h479l43 39Z"/></symbol><symbol id="𬼞_S" viewBox="0 0 1000 1000" data-size="21"><path transform="matrix(1 0 0 -1 51 947)" d="m750 30-86 39-75 55-65 68-2 3-30-19-68-39-72-36-77-32-79-27-82-23L27 0l-2 9 83 29 79 30 75 34 72 35 68 39 64 41 30 21-23 36-42 96-20 70H147v21h258l-5 18-11 72H17v20h368l-4 30-4 44H147v21h229l-5 69v26H0v20h372l1 102v12l63-15 15-11-15-9v-79h346l53 53 63-53v-20H435v-25l4-70h223l31 26 58-47-26-21v-53h51l43 47 53-47v-20H725V440l-63-32v32H477l13-48 38-88 18-28 38 32 54 49 48 51 3 5 44-46 5-17-19 4-40-40-59-49-45-35 56-59 65-47 75-34 51-14 29 122h10l-9-130 4-1 20-12 6-25-13-19-24-6-95 25m-88 521H452l10-59 9-31h191v90m0 94H440l3-38 6-36h213v74Z"/></symbol><symbol id="𬼟_J" viewBox="0 0 1000 1000" data-size="21"><path transform="matrix(1 0 0 -1 73 953)" d="M260 476v-44h-56v286c22-9 43-19 63-29h343l37 42c42-31 63-51 63-60 0-5-4-10-11-15l-23-15V438h-57v38H260m0 25h359v163H260V501m-83 280h560l50 66c26-24 48-48 66-72l-10-19H165c-35-50-84-103-146-157L0 614c82 85 140 182 174 291 64-14 96-28 96-42 0-8-15-15-44-21-17-19-33-39-49-61m381-395 46 42c35-21 60-43 75-68 0-6-5-10-15-13l-35-10c-187-72-323-125-407-161-53-24-80-44-82-61 0-26 17-41 50-46 54-8 135-12 244-12 161 0 254 6 279 17 23 11 41 73 54 188l27-10v-29c0-63 4-102 11-120 6-16 19-24 38-24-3-35-21-56-54-63C740 5 624 0 441 0 270 0 168 7 135 22c-41 18-61 48-61 90 0 38 37 73 113 105 72 31 197 79 373 144H109l-10 25h459Z"/></symbol><symbol id="𬼠_S" viewBox="0 0 1000 1000" data-size="21"><path transform="matrix(1 0 0 -1 34 930)" d="m666 0-43 2-38 6-31 10-27 17-19 26-8 30 4 31 11 32 18 34 27 34 48-39-22-31-15-25-7-20-1-12 1-7 5-6 11-7 20-6 29-5 37-1h188l31 131h11L885 63l18-13 13-19-13-19-18-12H666M214 0l-42 2-36 6-31 10-26 16-19 25-8 30 3 31 10 30 17 33 24 34 50-38-20-30-13-24-7-19-1-12 1-7 5-6 10-6 19-6 28-5 36-1h180l30 131h11L424 63l18-13 13-19-13-19-18-12H214m164 556 58-47-27-16-21-9-232-305-50 38 224 292H102v21h244l32 26m458 0 59-47-27-16-21-9-239-301-48 39 228 287H549v21h256l31 26M566 860l61-19 14-13-18-8-5-22-11-41-12-40-7-19h229l52 52 64-52v-21H579l-16-34-17-36-21-34-22-31-24-29-28-28-8 6 36 67 16 32 15 34 12 35 12 36 10 37 9 39 7 39 6 50m-449 0 61-19 13-13-18-8-4-22-11-41-12-39-7-20h215l53 52 63-52v-21H131l-15-34-17-36-20-33-21-32-24-29-26-28-8 6 33 66 16 33 26 69 11 36 10 37 8 39 6 39 5 35h-1l3 15Z"/></symbol><symbol id="𬼡_K" viewBox="0 0 1000 1000" data-size="21"><path transform="matrix(1 0 0 -1 79 929)" d="M69 743c112 14 213 30 305 46 111 20 217 43 320 69l35-30c14-10 18-17 14-21s-17-4-38 2c-40-9-81-16-122-23-49-8-90-14-123-17 11-6 16-11 15-15-2-5-11-7-29-8V563h279l49 45 59-40c7-4 10-8 8-12-2-5-9-7-22-7H446V385c0-20-8-36-26-50-20-16-48-28-86-34l-9 35c-1 4-14 11-40 20-23 11-47 19-71 26l1 12c24-4 51-8 80-11 23-2 48-4 75-7l10 2c6 1 11 2 14 3s5 4 5 10v158H109L6 543l-6 25 90-5h309v194c-62-9-118-15-168-19l-156-9-6 14m101-34c42-20 70-37 85-52 13-12 19-27 19-46 0-18-4-29-13-34-9-4-16 1-22 16-11 25-25 47-40 66-11 15-24 28-39 41l10 9m535 27c20-10 29-19 27-25s-17-7-43-3l-48-52-49-50-28-29-13 3 16 27c23 34 39 59 49 76l47 77 42-24M675 46c13 0 24 4 33 12 9 9 15 21 19 37l27 132c3 1 5 2 6 2l4-2V85c0-9 1-16 4-22 2-6 7-12 13-16 8-7 12-12 11-17-1-6-6-10-17-14-5-6-14-9-24-12-8-3-20-4-34-4H99C83 0 71 4 63 11c-6 7-9 18-9 34v282l-6 51 61-11c13-2 19-5 18-10-1-3-10-9-27-17V60c0-6 1-10 4-13 4-4 9-6 15-6l556 5Z"/></symbol><symbol id="𬼢_G" viewBox="0 0 1000 1000" data-size="21"><path transform="matrix(1 0 0 -1 18 949)" d="m804 485 38 51 74-58c5-5 7-8 5-11-2-2-8-3-18-2H671c14-97 43-169 88-218 23-25 41-38 56-39 12-1 21 14 27 43l20 88 17-2c-1-14-4-34-7-60-9-68-9-105 0-111 8-10 10-17 6-21-10-10-32-8-65 5-35 13-66 37-91 71-47 57-78 138-93 244H464V198c19 8 46 19 81 34 46 19 82 35 109 46l8-14c-11-7-28-17-53-31-30-17-55-31-76-43-33-19-55-33-68-42s-24-21-32-34l-45 59c11 3 21 11 31 24v638c-1 13-9 27-23 44l9 8 43-30h317l34 40 51-48c5-4 6-7 5-10s-4-6-11-7l-17-9V697l4-43c4-26-12-40-49-43v45H657c1-63 4-120 11-171h136M31 781 0 812h283l37 43 55-53c7-7 10-13 10-17-1-4-5-6-12-6-23 5-44-19-63-72-22-64-51-159-88-284-3-12-6-21-7-26-18-59-38-120-60-183-17-52-25-87-22-106 1-38 37-60 106-66 21-2 77-3 168-4 91 0 205 1 343 3 98-2 150 16 157 55 7 34 11 75 12 123h16c-1-86 9-133 28-142-8-28-29-49-63-64-16-5-63-10-142-13H295c-64 0-111 4-141 12-66 18-85 73-56 165 3 9 9 28 18 56 13 39 23 70 31 95 5 16 16 54 34 113 53 179 89 295 106 350H61c-13 1-23-3-30-10m433 56V676h318v161H464m0-181V485h162c-7 52-11 109-13 171H464Z"/></symbol><symbol id="𬼣_G" viewBox="0 0 1000 1000" data-size="21"><path transform="matrix(1 0 0 -1 15 969)" d="m383 660-20-13V143c-1-29 4-48 13-57 8-11 26-17 53-19 58-5 179-6 364-4 51 2 84 8 99 19 14 13 22 40 24 83l7 77h14l3-69c0-45 10-73 29-86-17-29-42-47-75-53-37-5-128-8-273-8-96 0-162 1-197 4-45 3-73 11-85 25-13 11-20 37-19 78v531H215c-1-65-4-134-9-205-8-113-31-207-69-284C98 98 55 39 8 0L0 10c41 49 81 122 119 218 33 85 51 230 55 436h-67c-25 0-41-6-49-19l-39 39h155c1 13 1 33 1 60v146c-2 13-11 25-26 36l7 12 85-31c5-1 8-2 9-4s0-4-3-7c-14-4-24-11-31-20V684h85l34 40 56-50c4-6 1-11-8-14m284 201c-2 13-9 23-21 32l5 12 82-25c13-5 16-10 9-13-14-3-24-9-30-16 5-103 4-188-5-255-3-25-8-49-13-72h152l31 40 67-50c5-3 6-6 5-8-1-1-4-2-11-2H689c-35-143-131-254-286-332l-5 15c129 79 212 185 247 317H475c-17 0-32-4-44-12l-33 32h252c6 21 10 44 13 68 10 73 11 163 4 269m43-433 5 12c59-36 102-66 127-91 25-23 43-46 55-68 11-19 15-37 11-53-4-15-12-22-24-20-13 4-20 15-22 33-5 21-18 46-39 75-14 21-52 59-113 112M481 839l7 9c16-6 34-14 54-23 5-3 8-4 10-5 15-9 30-21 43-35 11-16 15-30 13-42-3-14-11-21-24-21-12-1-19 7-21 22-2 13-8 27-19 42-15 17-36 35-63 53m-32-138 8 11c31-13 51-23 61-30 16-11 28-21 36-31 9-13 12-25 10-38s-9-19-21-20-19 5-21 18c-5 15-13 29-24 42-14 20-30 36-49 48Z"/></symbol><symbol id="𬼤_K" viewBox="0 0 1000 1000" data-size="21"><path transform="matrix(1 0 0 -1 55 932)" d="m765 787 45-30c9-7 13-14 11-19s-9-11-22-19V492l1-16c0-8 0-12-2-15s-9-8-20-14c-13-4-21-6-24-4-2 2-2 9-1 22l1 22H569l1-24c1-11 0-17-2-21s-9-8-19-14c-14-5-23-7-26-4-2 2-2 11-1 24l2 35v234l-4 69 54-29h165l26 30m-197-50V503h186v234H568m79-365 51-35c15-11 20-18 14-24-6-4-22-8-48-10-67-20-140-46-219-78-82-34-168-71-256-114-33-16-45-31-36-45 11-13 41-21 91-24 68-4 146-5 234-4 93 2 174 7 241 14 44 5 74 17 89 37 12 15 29 59 49 130l2 4 13-5-28-125c0-4 2-7 6-10 2-1 7-3 15-6 8-2 13-5 16-7 5-3 8-7 9-12 0-11-14-20-40-29-27-8-64-13-111-16-93-6-173-9-238-11-83-2-165-2-248 0-43 1-78 7-104 19-24 10-39 23-45 40-5 15-3 31 8 48s30 32 56 43c44 22 106 49 186 80 87 36 173 68 255 95H115l-11 22 93-5h417l33 28M78 740h106l23 63 23 62 39-21c21-11 31-18 30-24s-14-8-41-7l-31-73h146l36 29 45-35c16-12 22-20 17-25-6-4-21-6-47-6-9-27-21-55-36-82-14-25-31-50-52-77 34-14 61-28 79-42 23-17 37-35 43-54 5-17 2-28-8-33s-23 0-40 17c-14 15-28 28-40 39-19 17-38 31-57 42-26-30-66-61-121-91-57-31-119-57-187-76l-5 8c66 23 126 53 180 90 39 28 73 58 103 91-21 12-40 22-58 30-24 10-49 18-75 25l-6-13-6-11c-4-8-7-14-11-17-6-5-16-9-29-10s-20 2-19 8c0 5 6 16 19 33l36 63c17 30 31 58 44 84h-70l-67-4-10 21 47-4m144-13-67-127c28-6 53-11 76-18 25-6 48-14 70-23 19 26 36 53 51 82 12 26 23 55 32 86H222Z"/></symbol><symbol id="𬼥_K" viewBox="0 0 1000 1000" data-size="21"><path transform="matrix(1 0 0 -1 62 932)" d="M636 331H83v-20h522c-33-13-122-42-266-87-124-39-213-71-269-95C27 103 5 78 5 55 5 18 56 0 159 0h623c63 0 95 10 95 31 0 3-5 7-16 12-10 5-17 13-21 24l21 130-10 5-36-119c-3-20-13-33-28-40-8-5-25-8-51-10-50-4-117-6-200-6-100 0-230 3-389 9-61-3-92 5-92 26 0 9 9 20 28 34 130 54 329 122 599 202 24-3 41-4 52-4 15 0 23 3 23 9s-5 14-16 25l-18 21c-9 7-18 10-25 10-6 0-13-2-21-5l-41-23m228 56-5-12c-17 1-31-5-42-16-11-13-18-20-20-20-6 0-18 6-37 17-142 69-244 143-309 221V366c0-3-7-9-19-16-8-5-14-7-18-7s-6 2-8 7v18c1 15 1 25 1 30l-1 112c-83-67-208-129-374-185l-5 13c160 65 286 143 379 234l-222 5v-33c-1-4-9-11-23-22-6-3-12-5-15-5-4 0-6 2-7 7-1 4-1 11 0 21 0 16 1 26 1 32v127l-4 45 56-30h215v47H0v19h407v28l-5 51 56-13c20-7 30-13 30-19 0-7-12-14-37-20v-27h286l31 33c11 13 18 20 20 20s10-7 24-20l48-43-5-9H451v-47h225l11 15c9 11 15 16 16 16s7-4 19-13l27-25c10-9 15-16 15-20 0-5-11-13-32-23v-86c0-21 0-32-1-34 0-2-8-7-22-14-7-3-12-5-15-5-4 0-6 5-6 13v34H476c82-78 211-141 388-190M688 598v100H451V598h237m-281 0v100H184V598h223Z"/></symbol><symbol id="𬼦_K" viewBox="0 0 1000 1000" data-size="21"><path transform="matrix(1 0 0 -1 55 925)" d="M882 31c0-17-21-27-64-31H137C57 0 18 17 18 52c0 33 31 60 95 82l538 178H45v20h638l24 17c10 7 15 10 17 10s7-3 16-10l34-21c14-11 21-18 21-22 0-6-12-9-37-9-11 0-26 1-44 2L129 104C82 90 59 74 59 57c0-19 31-29 92-29h588c25 0 43 5 53 14 11 8 20 25 26 50l29 113 11-4-15-109c-3-21 3-35 16-41 15-6 22-13 23-20M450 703H257l1-57c94-42 148-78 160-109 4-8 6-16 6-25 0-20-6-30-17-30-8 0-16 9-25 25-29 43-71 83-124 122l-1-189v-63c-1-7-9-14-23-23-6-3-11-4-13-4-4 0-7 3-8 8-1 6-1 16 0 32 1 26 1 47 1 62v152C155 537 88 478 12 425l-12 7c46 34 85 74 119 118 35 44 66 95 93 153H34v21h180v80l-3 47 50-15c13-5 20-10 20-16 0-4-8-10-24-19v-77h87l21 34c11 13 17 20 20 20s11-7 23-20l41-37 1-18m395-73-7-12H670V446h107l25 29c10 15 18 22 22 22 3 0 11-6 24-19l42-41-10-11H433v20h192v172H481v21h144v159l-6 42 53-11c18-3 27-8 27-15s-10-14-29-21V639h59l22 31c10 14 17 20 22 20 6 0 15-5 28-17l44-43Z"/></symbol><symbol id="𬼧_K" viewBox="0 0 1000 1000" data-size="21"><path transform="matrix(1 0 0 -1 99 951)" d="M697 203c-4-31-6-59-7-84 0-15-1-32-1-51 28-11 40-23 35-34-5-12-22-21-51-27-20-2-55-4-106-6-194-1-300-1-319 1-25 3-43 10-55 22-12 11-18 28-18 49v117l-1 46 55-21c23-8 33-14 29-19-3-5-15-10-38-15V87c0-11 4-21 13-29 10-7 23-12 41-15 161 0 254 0 278 1 28 2 50 5 66 10s28 19 38 40c11 24 22 61 32 110l9-1M242 609v-96l315 31v65H242m0 86v-73h315v73H242m-1 87 1-75h315l-1 75H241m322 43 43-26c16-10 22-19 19-25-3-5-13-9-31-12l1-192c30 29 58 57 84 85 27 29 48 54 63 76 42-26 61-40 59-44-3-4-15-5-35-3-24-22-50-46-78-72-30-28-61-56-93-83l1-245c-2-27-9-47-23-61-12-12-32-21-60-25-4 13-14 23-31 30-12 6-35 12-70 17l1 12c59-4 98-4 118 1 18 4 27 13 27 27l-1 212c-77-59-154-110-232-154-92-49-182-86-271-111l-4 10c86 29 173 70 261 121 84 50 163 106 238 168L47 455c-1-24-5-34-12-31-9 4-21 25-35 64l202 19-1 264-3 49 43-25h135l36 108 33-14c17-6 25-11 23-16-2-4-12-6-30-5l-43-73h137l31 30Z"/></symbol><symbol id="𬼨_S" viewBox="0 0 1000 1000" data-size="21"><path transform="matrix(1 0 0 -1 31 956)" d="m204 546-5 16-11 29-5 14-15 28-16 26-4 4-39-59-26-35-28-32-31-30-6 6 62 109 38 75 17 39 16 40 29 83 12 43 3 9 58-27 12-15-19-5-16-40h155l31 27 58-47-27-16-8-4-23-61-32-79-37-75-39-69-42-65-38-51h204l26 26 53-48-27-15V48l-52-27v47H224V32L160 0v307l-40-40-56-46-58-40-6 7 52 48 48 50 46 55 14 19v55l29-15 40 59 37 65 34 69 31 73 29 77 20 61H221l-22-48-20-40-22-39-2-3 21-13 14-10 13-10 13-13 11-14 21-29 10-17 9-17-1-24-18-16-24 1-17 17-3 17m318-27-80-35-7 20 87 38v246l53-11 13-10-13-9V564l95 41v303l62-10 16-10-16-10V633l111 48v12l31 27 58-48-27-16V442l-1-42v-63l-1-21v-13l-2-12-60 15v60l1 35v211l1 46-111-48V210l-62-31v404l-95-41V99l2-6 2-3 1-2 2-1 4-2h4l5-1h280l30 132h11L906 84l19-13 13-18-13-19-20-13H602l-14 1-14 3-11 5-12 7-10 9-8 11-6 11-3 12-2 13v426m-90-157H224V90h208v272m409-56 60-15-4-13-4-12-7-11-9-11-10-9-11-6-11-6-13-4-13-2-13-1v31l-52 16v15h52l7 1 5 1 5 1 3 2 3 2 2 2 3 3 2 4 3 6 2 6Z"/></symbol><symbol id="𬼩_S" viewBox="0 0 1000 1000" data-size="21"><path transform="matrix(1 0 0 -1 46 960)" d="m173 396-3-56-6-54-8-50-10-47-13-42-17-38-18-34-23-31-24-24L23 0l-5 7 18 26 16 28 14 30 13 33 11 36 8 41 6 43 4 48 2 51v53h63M0 396v22h110v246H26v22h224l5 18 35 98 39 107h-1l6 12 55-32 9-16-19-3-36-66-27-43-28-44-16-22-7-9h65l53 52 63-52v-22H330V418h25l43 47 53-47v-22H330V34L268 3v393H0m498 108-75-27-7 19 82 30v270l64-11 15-11-15-8V550l84 31v335l62-10 17-10-17-10V604l105 39v11l32 26 57-47-26-16V404l-1-29v-54l-1-8-62 9v13l1 17v269l-105-39V218l-62-31v372l-84-31V106l1-3 1-5 2-2 5-2 4-1 7-1h264l30 132h11L877 92l19-13 12-18-12-19-20-13H582l-14 1-12 2-13 4-12 7-10 9-9 11-7 11-4 13-2 13-1 13v391m314-182 62-9-3-14-5-13-6-12-7-10-9-10-11-7-13-6-11-4-14-2-13-1v32l-53 15v16h53l6 1 6 1 4 1 3 1 2 2 2 2 4 7 2 4 1 6M268 664h-95V418h95v246m-154 84-3 16-5 17-5 16-7 16-8 15-9 16-21 30-13 15 6 7 34-21 17-12 14-13 14-15 13-16 11-16 10-19 9-18 8-21-4-23-20-15-23 4-15 19-3 18Z"/></symbol><symbol id="𬼪_S" viewBox="0 0 1000 1000" data-size="21"><path transform="matrix(1 0 0 -1 39 964)" d="m215 656 62-10 16-11-16-9V488h34l51 53 64-53v-21H277V310h99l53 52 63-52v-21H277V31L215 0v289H0v21h215v157H97l-10-23-14-24-13-24-17-24-17-22-7 4 38 131 13 54 13 55 5 25 2 12 59-24 13-13-18-6-23-65-15-35h109v168M696 21l-39 2-35 6-30 11-27 16-19 23-11 28-2 32 5 32 12 33 17 35 56-30-15-30-8-25-3-19 1-14 3-10 6-7 12-7 19-7 25-4 33-2h165l31 131h10l-9-131 18-13 12-18-12-20-19-12H696m62 536-32-27H510v-21h206L567 239l56-30 149 277 17 7 26 16-57 48M590 920l58-24 13-14-18-6-25-73-34-87-1-2h202l52 53 63-53v-21H573l-30-59-22-38-24-37-25-36-28-32-7 6 36 75 35 79 15 40 29 85 25 89 13 55M415 655l-6 19-6 18-11 31-72-21-45-12-82-17-71-14-33-6-29-4-6-1-11-17-11 15v5l-1 2v22l-1 7v7l-1 1v19h11l23 37 120 158 13 17 5 7 46-44 5-19-20 4-104-102-65-58 21 1 31 1 35 3 78 7 135 14 22 2-16 30-21 38-14 17 7 7 37-28 17-16 15-15 28-36 12-19 11-20 10-20 8-21-2-23-19-16-23 3-16 19-4 18M29 709l3-63-13 63h10Z"/></symbol><symbol id="𬼫_J" viewBox="0 0 1000 1000" data-size="21"><path transform="matrix(1 0 0 -1 73 930)" d="M214 198c-14 0-26 10-35 32-12 30-37 60-75 89l14 20c83-32 125-68 125-107 0-23-9-34-29-34m453 0c-14 0-26 10-35 32-12 30-37 60-75 89l14 20c83-32 125-68 125-107 0-23-10-34-29-34M451 655c-14 0-26 11-35 32-12 30-38 61-78 93l13 21c87-34 130-71 130-112 0-23-10-34-30-34m175 66c-14 0-26 9-36 27-19 35-49 65-90 91l12 21c95-32 142-66 142-104 0-24-9-35-28-35M162 0C78 0 30 5 16 16 5 26 0 45 0 75v322c62-3 92-12 92-27 0-8-12-16-36-24V80c0-13 5-21 13-24 6-3 36-4 91-4 63 0 104 1 124 4 15 2 23 7 27 13 11 15 18 57 22 126l25-9c0-60 2-95 7-106 4-12 14-18 28-18-1-24-8-40-21-48-7-6-23-9-48-10-75-3-129-4-162-4m460 0c-89 0-141 5-154 16-11 10-16 29-16 59v322c61-3 92-12 92-27 0-8-12-16-36-24V80c0-13 4-21 13-24 5-3 38-4 99-4 62 0 104 1 124 4 14 2 23 7 27 13 10 15 18 57 23 126l24-9c0-60 2-95 7-106 4-12 14-18 28-18-1-24-8-40-21-48-8-6-24-9-48-10-75-3-129-4-162-4M387 464c-105 0-165 6-178 17-11 8-17 28-17 58v317c63-3 95-12 95-26 0-8-13-17-38-25V544c0-12 4-20 12-24 5-3 47-4 124-4s126 1 148 4c15 2 24 7 28 13 13 18 23 59 30 125l26-9c0-61 2-96 6-105 4-11 13-17 27-17-1-25-8-41-20-48-8-5-24-9-50-11-39-3-103-4-193-4m-52-197c-15 0-26 9-35 26-17 35-44 64-80 89l12 21c88-30 132-64 132-102 0-23-10-34-29-34m458 0c-15 0-27 9-36 26-17 35-44 64-80 89l12 21c88-30 132-64 132-102 0-23-9-34-28-34Z"/></symbol><symbol id="𬼬_G" viewBox="0 0 1000 1000" data-size="21"><path transform="matrix(1 0 0 -1 18 940)" d="M31 782 0 813h307l37 43 55-53c7-7 10-13 10-17-1-4-5-6-12-6-27 5-50-18-67-69-33-95-68-199-104-314-23-74-43-135-60-183-9-26-14-45-17-58s-4-28-3-44c-5-39 30-63 104-70 18-5 185-5 500 0 97-2 150 16 157 55 5 37 9 87 11 150h16c-3-106 7-162 29-169-9-29-30-50-63-64-16-6-63-10-142-13L306 0c-62 0-112 6-149 18-53 17-69 70-48 159 3 14 13 44 29 91 9 25 15 45 20 60 6 18 20 62 43 132 48 147 85 257 110 332H61c-13 1-23-3-30-10m412 89 31-30h227l37 39 47-44c4-3 5-7 4-10s-4-5-10-6l-18-9V693l4-62c3-24-12-38-45-43v44H491v-21c2-25-14-39-48-43 3 24 6 60 7 107v148c1 7-5 18-18 32l11 16m201-335 37-34h134l31 40 51-48c5-3 6-5 5-7s-4-4-11-5l-18-9V310l4-95c3-25-12-39-45-43v67H696v-34c1-22-15-36-48-43 3 25 6 61 7 109v217c1 8-6 19-23 33l12 15m-302 4 36-38h132l34 40 47-48c4-3 6-5 5-7s-5-4-11-5l-18-9V317l4-79c1-20-2-31-9-33-5-1-17-3-36-6v41H390v-47c1-22-15-36-48-43 4 31 6 70 7 117v225c1 8-5 19-18 33l11 15m149 283V650h229v173H491m205-339V257h136v227H696m-306 0V258h136v226H390Z"/></symbol><symbol id="𬼭_S" viewBox="0 0 1000 1000" data-size="21"><path transform="matrix(1 0 0 -1 35 958)" d="m224 289 34-6 115 90H21v21h378l21 16 2-4 16 14 57-47-26-17-63-26v2l-84-38-41-15 5-1 16-9-16-10V84l-1-14-2-13-4-12-7-12-8-11-11-8-12-7-12-4-13-3h-14v31l-84 16v16h95l4 1 1 2h1l1 1 1 2 1 4 1 4 1 7v205m309 252-67-28-9 18 76 32v232l64-11 15-11-15-8V590l80 32v293l62-10 16-10-16-10V648l98 40v12l31 27 59-48-27-16-1-36V361l-1-11-3-13-5-12-7-12-9-9-9-9-11-8-12-5-13-4-13-2-13-1v32l-42 15v16h42l7 1 5 1 4 1 4 1 3 2 3 3 4 7 4 7v304l-98-39V217l-62-31v414l-80-34V105l1-3 1-4 1-1 1-1 1-1 2-1 2-1 5-1 6-1h251l30 132h11L899 91l18-13 13-18-13-19-19-13H617l-13 1-13 2-13 4-12 7-9 9-10 11-6 11-4 13-3 13-1 13v429M97 712l63-31h190l31 25 57-47-26-20V479l-62-32v53H160v-36l-63-32v280m253-53H160V521h190v138M0 763v20h224v131l62-10 16-10-16-10V783h108l52 53 63-53v-20H0Z"/></symbol><symbol id="𬼮_S" viewBox="0 0 1000 1000" data-size="21"><path transform="matrix(1 0 0 -1 34 955)" d="m189 292-3-43-5-41-9-38-12-34-14-32-17-29-20-25-22-22-25-16L34 0l-5 8 20 19 17 22 16 22 13 24 10 26 9 29 6 32 5 34 1 37v39h63M32 904l63-31h302l29 26 55-46-26-19V578l-58-29v29h-30V350h17l52 52 63-52v-21H367V40L305 9v320H189v-37h-63v37H0v21h126v228H95v-63l-63-32v421m805-552 7-2-7 2M305 578H189V350h116v228m-92 139H95V600h118v117m184 0H276V600h121v117M213 853H95V738h118v115m184 0H276V738h121v115m500-517-3-14-5-11-7-11-9-11-9-9-11-7-12-5-13-4-13-2-13-1v32l-42 16v15h49l4 1 5 1 4 2 5 4 3 4 3 4 2 5 1 3v27l1 23v260l-108-43V202l-63-32v421l-93-36V95l1-7 1-5 1-4 4-3 2-1 4-1 5-1h279l30 132h11L901 73l18-12 13-19-13-19-19-12H597l-13 1-13 3-12 4-12 6-11 9-8 10-6 13-3 11-2 13-1 14v437l-78-30-8 19 86 34v233l57-11 15-9-15-10V577l93 36v297l63-10 15-10-15-10V639l108 42v11l31 27 58-48-27-16V347l-2-11Z"/></symbol><symbol id="𬼯_K" viewBox="0 0 1000 1000" data-size="21"><path transform="matrix(1 0 0 -1 51 945)" d="M478 755c7-8 11-14 11-20 0-7-10-13-32-16V513c0-35 0-53 1-53-2-5-9-10-22-14-8-3-13-5-16-5s-5 2-6 4c1 2 1 9 1 23H112c0-13 0-20-1-22 0-1-7-4-20-9-9-4-15-6-18-6-4 0-7 3-7 10 0 3 1 9 1 17 1 8 1 17 1 24v266l-5 46 54-29h94c16 33 33 75 50 125l36-14c16-7 24-12 24-18 0-7-11-12-34-13-9-15-28-41-57-80h177l15 20c7 8 11 12 13 12 3 0 8-5 16-14l27-28m419-500-31-133c-1-5-2-10-2-14 0-9 5-15 15-18s15-9 17-18c-4-21-31-32-83-34-48-1-113 0-197 4-82 4-124 32-124 84 0 33 16 81 47 145 65 124 150 301 256 533H525v20h262l19 21c6 7 10 10 12 10 4 0 8-2 14-8l35-33c5-7 8-14 8-18 0-11-14-15-42-13L697 492c-67-129-115-226-142-291-11-27-17-49-17-65 0-34 27-52 80-54 47-2 96-3 147-3 26 0 42 2 49 6 8 4 14 16 21 35l53 141 9-6m-396 87-4-13H282v-50c74-39 120-66 140-81 19-13 34-30 43-51 6-28 2-44-13-48-9 0-19 9-29 27-11 21-30 45-58 70-27 26-55 47-83 64V62c0-32 1-46 1-41-1-7-8-13-21-17-9-3-15-4-18-4s-5 2-6 5c0 2-1 9-1 18 1 15 1 26 1 32v216C182 182 105 106 6 45L0 55c36 24 76 62 117 115 42 53 73 106 94 159H26v20h212v66l-5 46 50-11c17-6 26-12 26-18s-9-12-27-17v-66h130l21 29c9 10 14 16 14 16 3 0 10-6 22-18l32-34m-87 329v74H112v-74h302m0-93v72H112v-72h302m1-89v68H113v-68h302m-1-42v-2 2Z"/></symbol><symbol id="𬼰_S" viewBox="0 0 1000 1000" data-size="21"><path transform="matrix(1 0 0 -1 41 958)" d="m33 818 58-29h134v126l63-11 16-9-16-10v-96h79l52 53 63-53v-20H91V475l-2-68-4-63-4-60-6-54-7-49-8-46-11-41-11-36-14-32L8 0 0 4l7 28 6 32 6 37 4 40 4 45 3 48 3 54 1 58v62l-1 67v343m480-288-73-28-7 19 80 32v231l62-11 16-10-16-9V578l84 33v293l64-9 15-11-15-10V637l101 41v11l32 27 58-48-26-16-1-36V351l-1-12-4-13-5-12-7-11-8-10-10-10-11-7-12-5-13-3-12-2-14-1v31l-42 16v15h42l7 1 6 1 4 1 4 1 2 2 5 6 5 10 1 2v304l-101-41V206l-64-31v414l-84-33V95l1-4 2-5 2-2 5-2 5-1 7-1h259l31 132h10l-9-132 18-13 13-18-13-19-19-12H597l-14 1-14 2-12 3-12 7-11 9-8 11-6 12-5 12-2 13v442M319 112l64-52V38H115v22h152l52 52m-181 36 1-3-1 3m125 467-28-6-25-5-24-1V427h85l-4 55-4 81v52M150 109l-19 39h-3v5l-7 14 7 2v476l50-25 70 31 64 35 41 24 14 12 4 2 14-21 26-28 1-18-19 8-35-18-24-9-9-3 1-69 4-80 6-59h20l53 52 63-52v-21H338l9-56 12-58 17-50 20-42 21-34 15-16 24 104h11l-10-125 15-10 14-19-3-24-19-15-24 2-39 29-33 35-28 43-23 50-18 55-15 63-11 68h-87V177l8 1 37 2h87l2-9-22-7-21-7-73-24-29-12-4-2-6-21-15 11Z"/></symbol><symbol id="𬼱_K" viewBox="0 0 1000 1000" data-size="21"><path transform="matrix(1 0 0 -1 58 925)" d="m878 743-4-14H569v-73h171l12 19c5 6 9 10 11 10 1 0 7-4 18-11l26-23c7-7 11-13 11-16 0-4-9-9-27-15V421c0-45-10-75-31-89l-11-7c-9-4-16-7-20-7s-7 6-9 17-8 19-20 22l-66 12v10l65-6c9-1 15-1 20-1 10 0 17 3 21 9 5 6 7 20 7 40v39H569v-50c0-29 0-45-1-47 0-1-7-5-21-11-8-4-13-5-16-5s-5 1-6 5c0 3-1 9-1 17 1 14 1 24 1 29v62H353V357l-20-10c-10-5-16-7-20-7-2 0-4 2-4 6-1 2-1 8 0 18 0 13 1 23 1 31v246l-3 39 43-24h175v73H272v22h253v56l-1 43 47-7c19-3 28-7 28-14 0-6-10-14-30-24v-54h211l18 27c8 12 13 18 16 18 2 0 9-5 22-14l42-39m6-708c0-19-21-31-62-35H164c-42 0-74 5-96 15-22 9-33 20-33 34 0 28 36 52 107 69l522 124H54v20h622l24 20c10 7 15 11 16 11 3 0 9-3 17-10l34-26c14-11 21-19 21-25s-9-9-26-9c-9 0-21 0-35 2L157 86c-45-10-68-22-68-34 0-13 30-20 90-20h563c31 0 53 4 66 11 12 6 20 20 25 40l23 96 14-2-12-97c-1-13 3-22 11-26 9-4 13-10 15-19M272 733 131 472c-11-28-17-51-17-69 0-13 4-27 13-44 8-11 12-22 14-35-1-26-9-40-25-40-14 0-22 10-24 30v72c-3 28-18 51-47 66L7 466l3 5 41-5c25-3 45 8 60 34l154 238 7-5m475-166v69H569v-69h178m-222 0v69H353v-69h172m222-88v68H569v-68h178m-222 0v68H353v-68h172M208 778c5-6 7-13 7-21 0-13-5-20-14-20-6 0-13 5-20 15-28 35-61 63-99 83l4 9c32-11 55-18 66-24 23-11 42-25 56-42m-94-160c4-7 5-14 5-19 0-11-4-17-14-17-5 0-12 3-18 10-25 40-54 68-87 84l7 9c29-11 50-20 62-27 24-13 39-26 45-40m628 169c5-8 6-16 5-23s-4-10-9-10c-6 0-13 4-21 14-26 31-50 52-71 62l5 10c49-13 79-31 91-53Z"/></symbol><symbol id="𬼲_S" viewBox="0 0 1000 1000" data-size="21"><path transform="matrix(1 0 0 -1 31 956)" d="m397 528 64-52v-21H282V308h62l43 47 52-47v-21H282V138l63-20 80-16 94-11 106-5 120-1 134 6 3-70-136-1-124 3-110 10-97 16-83 21-71 29-57 34-42 41-26 46-1 7-9-34-14-40-15-38-19-34-20-31-25-27L7 0 0 7l18 28 15 30 15 32 12 33 10 37 9 38 6 41 5 44 2 48 1 50v11l62-13 16-11-17-10-2-31-6-50-5-24 14-31 30-35 34-25v286H20v21h325l52 52M882 23l-1 10v17l-1 15v16l-1 4v6l59 2-56-72v2M672 160l-42 2-37 6-32 11-27 17-20 25-9 30 1 31 10 33 15 34 23 36 52-35-19-32-13-25-6-21-1-13 3-9 5-7 13-8 19-6 29-4 36-2h183l31 131h10l-9-131 17-13 13-19-13-19-18-12H672m-66 190-52 35 156 226H514v21h210l32 26 57-47-26-15-19-8-162-238M69 894l64-33h215l31 27 58-47-27-22V584l-62-31v31H133v-37l-64-31v378m468 18 60-22 12-14-18-7-19-63-11-32h207l51 52 64-52v-21H553l-10-25-17-38-18-36-20-33-21-32-24-30-24-29-8 5 31 68 30 69 12 35 25 75 10 39 8 40 8 41 2 10M348 716H133V604h215v112m0 125H133V737h215v104Z"/></symbol><symbol id="𬼳_K" viewBox="0 0 1000 1000" data-size="21"><path transform="matrix(1 0 0 -1 53 945)" d="M874 71c0-19-21-31-62-35H279c-40 0-72 5-94 15-23 9-35 20-35 34 0 29 37 54 109 76l394 117H171v20h494l24 20c10 8 15 11 16 11 3 0 10-3 19-10l32-26c14-10 21-19 21-24 0-7-8-10-26-10-9 0-21 0-35 2L273 129c-45-15-68-29-68-41 0-13 30-20 90-20h436c32 0 54 4 66 11s21 20 25 40l24 96 13-2-11-97c-2-13 2-22 10-26 10-4 15-10 16-19m20 723-6-21H104V529c0-129-4-229-14-301C76 139 49 63 12 0L0 8c30 58 49 134 56 227 4 46 6 138 6 278v187l-5 120 56-26h324v39l-4 57 47-10c21-4 32-10 32-19 0-8-11-14-32-18v-49h315l18 31c8 13 12 20 13 20 3 0 11-5 23-15l45-36m-39-146-4-13H659V404c0-31 1-46 1-45-2-7-9-13-20-16-8-2-13-3-16-3-7 0-11 5-11 14 0 3 1 9 1 19 1 10 1 19 1 28v234H493v21h122v59l-4 37 44-10c21-5 32-11 32-16 0-7-10-13-28-19v-51h109l15 25c8 12 13 18 15 18s10-6 22-18l35-33m-375 1-6-14H322V383c0-5 1-10 1-17 1-6 1-10 1-12 0-8-7-14-22-18-7-1-12-2-16-2-6 0-10 4-10 12 0 2 1 7 1 15 1 9 1 16 1 22v252H136v21h142v52l-5 44 46-10c17-4 26-9 26-14 0-6-8-12-23-18v-54h70l16 21c11 13 18 19 20 19 0 0 8-6 21-17l31-30m392-248c0-19-29-28-87-28-32 0-51 4-58 11-8 8-11 29-11 63v85l-5 72 43-6c23-3 34-8 34-14 0-5-10-12-29-21V447c0-17 1-27 5-32 3-5 11-7 25-7 20 0 34 11 42 33l28 80 10-6-16-76c-1-4-1-8-1-10 0-7 3-11 9-14 7-3 11-7 11-14m-452 55c0-27 0-39 1-38-2-7-10-13-25-18-4-2-8-3-10-3-5 0-9 3-11 9 1 3 1 19 1 50v100l-7 47 45-8c22-4 32-8 32-13 0-4-8-12-26-25V456m138 102c-3-47-11-84-24-112s-34-54-63-78l-11 12c36 38 55 97 55 177 0 15-1 30-1 47l40-7c22-4 33-8 33-14s-10-14-29-25m-337 4c-2-83-27-153-77-209l-11 10c31 46 47 102 47 169 0 20-1 44-3 72l44-7c19-4 29-8 29-14s-10-13-29-21m154-153v-3 3Z"/></symbol><symbol id="𬼴_G" viewBox="0 0 1000 1000" data-size="21"><path transform="matrix(1 0 0 -1 29 963)" d="m363 925 81-33c9-3 11-7 6-11-11-3-20-9-26-17V669h96v185c1 10-7 24-25 41l8 10 80-33c9-4 11-7 6-10-11-4-20-10-26-18V669h7l29 34 54-45c5-3 7-6 6-7s-5-2-12-2h-84V401h35l28 35 59-45c5-3 7-6 6-8-1-1-5-2-12-2H350c-17 0-32-4-44-13l-33 33h108v248h-5c-17 0-32-4-44-13l-33 33h82v204c1 10-7 24-26 41l8 11m-61-434c4-5 3-9-4-10-8-1-15-8-22-21-18-114-47-206-87-277C147 112 87 53 9 6L0 22c123 101 196 218 219 353v2c-3-1-8-1-15-2-12-2-20-3-25-4-2 0-5 0-10-1-56-4-95-18-116-42l-41 55c15 5 30 11 45 17 34 43 68 94 101 155 3 5 6 11 11 19 7 12 11 21 14 27-7-1-15-2-24-4-4-1-7-1-10-2s-8-1-14-2c-49-5-79-18-92-39L2 610c17 5 27 8 31 9 5 1 14 13 27 35 12 21 30 54 53 100 28 57 47 99 57 126-1 15-4 26-10 32l8 8 70-44c6-5 6-9 0-12-10 1-20-1-29-8-58-109-107-191-148-246l131 11c15 31 24 56 29 77 2 12-1 21-8 27l10 10 61-41c3-2 5-4 5-6s-2-4-5-7c-9 2-19 0-30-7-53-122-111-217-173-285l142 8 1 2c9 58 12 89 8 92-1 1-2 3-3 6-4 7-8 13-11 18l8 6 76-30m327 109h218l27 36 63-46c5-3 6-6 5-8-1-1-4-2-11-2H821V100c0-29-6-51-17-66-10-11-37-23-81-34 1 18-4 30-14 36-11 8-33 16-67 24l3 18c3-1 9-2 16-3 46-9 75-11 88-7 19 7 28 32 29 76v436h-72c-17 0-32-4-44-12l-33 32m-205 49V401h96v248h-96m-57-301 72-36c11-6 14-11 8-14-5-1-11-3-19-6-7-2-12-3-15-4-49-79-108-150-177-215l-8 13c48 65 86 120 113 167 21 38 31 59 30 64 0 5-3 11-10 18l6 13m139-30 11 11c47-35 80-63 99-86 1-2 3-4 5-7 15-21 24-36 28-46 6-17 8-33 5-48-2-14-9-22-21-23-13-1-21 9-23 30-2 22-9 44-22 66-13 25-40 60-82 103m156 526h159l29 36 62-46c5-3 7-6 6-8-1-1-5-2-12-2H739c-19 0-34-4-44-12l-33 32Z"/></symbol><symbol id="𬼵_S" viewBox="0 0 1000 1000" data-size="21"><path transform="matrix(1 0 0 -1 39 974)" d="m46 541 58-29V50h673l43 48 53-48V29H104L46 0v541m434-174 58-28h156l32 26 57-48-26-20V122l-63-31v31H538l-58-29v274m-320 0 58-28h159l28 26 56-48-26-17V122l-58-29v29H218l-58-29v274m534-50H538V143h156v174m-317 0H218V143h159v174M266 649l63-32h269l31 27 58-47-27-22V418l-62-32v32H329l-63-32v263m332-52H329V438h269v159m224-2-73 35-69 41-34 22-31 25-30 25-27 28-23 26H399l-10-12-41-38-46-36-50-33-56-32-59-27-65-24-69-22-3 9 64 31 60 32 55 32 50 34 45 35 41 36 13 15H33v20h314l34 42 25 41 22 42 3 6 53-33 10-16-20-2-17-28-31-43-7-9h339l53 53 62-53v-20H557l80-48 66-35 35-17 71-28 38-13 76-24-61-53-40 16Z"/></symbol><symbol id="𬼶_G" viewBox="0 0 1000 1000" data-size="21"><path transform="matrix(1 0 0 -1 38 932)" d="M526 605c6-3 10-5 11-7 1-3 0-5-4-6-12-3-22-9-30-16V204c-2-27-9-46-21-59-11-13-40-25-85-36-2 19-10 32-25 40-15 7-47 18-97 32l2 18 55-12c46-11 77-13 94-6 17 6 26 23 26 51v349c-3 20-12 37-28 51l8 10 49-19 259 184H150c-11-1-21-5-32-13l-33 33h642l37 37 84-72c3-7 0-10-9-9-15 3-32 1-49-6-57-27-151-82-284-165l20-7M0 33h780l48 59 88-66c7-5 9-9 7-11s-9-3-20-2H77C60 14 44 9 31 0L0 33Z"/></symbol><symbol id="𬼷_G" viewBox="0 0 1000 1000" data-size="21"><path transform="matrix(1 0 0 -1 126 960)" d="M386 88c-1-23-7-41-18-54-11-12-38-23-82-34-2 19-10 33-25 42-25 11-58 22-101 33l3 16 57-13c85-22 126-7 121 45v513c-1 16-10 31-26 45l8 10 40-17 8-4c89 63 173 128 251 197H65c-11-1-21-6-32-14L0 887h627l38 33 56-57c3-7-1-10-10-9-13 3-33-4-58-21-90-62-176-120-257-174l13-5c6-3 10-5 11-7 1-3 0-5-4-7-11-2-21-7-30-15V88m95 493c36-15 73-34 112-58 56-35 96-65 119-91 26-29 38-58 36-86-2-15-10-22-23-22-15 3-29 17-40 43-15 32-44 67-87 106-40 37-81 67-123 92l6 16Z"/></symbol><symbol id="𬼸_J" viewBox="0 0 1000 1000" data-size="21"><path transform="matrix(1 0 0 -1 244 942)" d="M273 613c57 79 106 169 147 272 61-24 91-43 91-57 0-10-15-15-45-16-57-83-111-151-163-205 18-5 27-11 27-18 0-10-15-19-46-28V92c0-62-36-92-110-91 0 18-9 32-27 41-19 8-62 18-128 29v27c57-7 114-11 170-11 23 0 34 10 34 29v503c21-2 38-4 50-6m-106 7c-12 0-24 13-35 38-30 74-74 138-132 191l16 20c60-38 108-78 143-121 28-35 42-64 42-88 0-27-11-40-34-40Z"/></symbol><symbol id="𬼹_G" viewBox="0 0 1000 1000" data-size="21"><path transform="matrix(1 0 0 -1 65 950)" d="M428 664c-1 15-9 30-25 45l8 10 44-20 249 162H115c-10-2-21-6-33-14l-33 33h660l42 29 56-59c2-4 2-6 0-7-1-2-4-3-8-2-9 4-25 3-47-2-84-44-174-94-272-150l7-3 9-4c6-3 10-5 10-7 1-2-1-4-5-6-10-4-20-9-30-16V367c0-22-6-39-18-52-10-12-37-24-80-34-2 20-10 34-25 41-32 12-65 23-97 33l4 15 54-13c84-24 124-10 119 44v263m276-443 8 12c48-34 82-59 101-77 21-21 37-42 47-63 22-47 19-75-11-83-14-1-24 11-31 37-6 24-18 50-36 79-16 28-42 59-78 95m-242 0 10 12c80-63 126-114 136-153 11-43 2-65-26-67-11 1-18 13-22 37-3 24-12 49-26 77-16 29-40 60-72 94m-338 10c-2-96-17-158-45-188C49 6 25 0 7 25 0 36 7 50 27 66c18 12 35 30 49 53 12 22 23 59 32 112h16m128-10 10 10c34-38 55-67 65-89 10-24 17-45 19-63 5-43-6-65-34-65-12 2-18 13-17 34 2 20 1 45-3 74-3 31-16 64-40 99Z"/></symbol><symbol id="𬼺_J" viewBox="0 0 1000 1000" data-size="21"><path transform="matrix(1 0 0 -1 53 950)" d="M482 423h295l45 52c48-42 72-68 72-79 0-6-4-10-12-12l-35-8c-55-58-125-116-209-173l-19 19c64 57 117 116 158 176H482V86c0-54-34-83-103-86-1 19-10 32-26 39-17 8-53 16-109 24v26c59-5 106-8 142-8 25 0 38 10 38 31v229C313 218 177 121 14 52L0 75c156 79 288 187 395 323H132c-12-58-25-110-40-156l-60 6c19 55 35 124 50 207 32-15 53-25 63-32h279v124H85l-13 25h657v138H85l-11 25h428c31 43 58 98 82 164 61-19 92-34 92-45 0-7-15-13-45-16-30-39-61-74-92-103h182l37 44c39-27 58-46 58-55 0-4-3-8-8-14l-22-18V502h-57v45H482V423M330 744c-16 0-28 11-35 33-13 39-40 72-80 99l12 19c93-38 139-75 139-113 0-25-12-38-36-38Z"/></symbol><symbol id="𬼻_S" viewBox="0 0 1000 1000" data-size="21"><path transform="matrix(1 0 0 -1 38 957)" d="M430 523v22h189v152H478v21h141v122H421v21h354l52 53 64-53v-21H683V718h30l32 37 42-37v-21H683V545h1l30 28 41 46 32 48 25 51 17 52 2 7 58-25 12-15-20-5-15-40-32-54-39-52-40-41h95l32 36 42-36v-22H731l-38-30-61-41-69-37-11-5 6-3h238l31 27 58-48-27-21V36L796 5v42H558V31L495 0v385l-93-34-91-26-3 9 88 36 79 36 20 12v20l21-9 31 16 63 40 50 38H430m-89 53 3 4 1-1 27 24 58-48-26-16-16-6-33-50-41-53-48-55-8 4 29 67 43 99 4 10H230V88l-1-13-1-13-4-13-7-12-9-11-11-8-11-7-13-4-13-2-14-1v31L73 51v15h73l7 1 4 1 5 2 2 2 2 5 1 5 1 6v467H0v21h341m455-354H558V68h238v154m0 164H558V243h238v143M199 616l-8 15-19 29-11 14-26 28-31 27-18 14 4 9 43-16 19-9 19-11 17-11 22-17 67 100 25 35H26v21h288l7 10 2-2 23 18 58-47-26-16-24-10-57-55-51-45-24-19 13-14 13-16 13-16 3-25-16-18-23-2-20 15-6 14Z"/></symbol><symbol id="𬼼_S" viewBox="0 0 1000 1000" data-size="21"><path transform="matrix(1 0 0 -1 38 961)" d="m833 21-22 23-13 12-34 22-42 24-25 12-26 12 3 9 28-5 27-4 26-7 24-7 22-8 20-8 20-10 16-10 17-13 15-12 7-23-12-21-23-7-21 11-7 10M555 151l42-46 3-18-21 6-16-12-39-21-45-22-26-10-26-9-59-18-4 9 96 62 39 28 30 26 13 13 8 8 5 4M158 577H0v22h322l3 2v1l29 23 57-48-26-15-14-6-32-52-39-57-47-59-8 5 52 132 19 52h-95V87l-1-14-2-13-4-13-7-12-9-11-10-7-12-7-13-5-13-2h-13v31L63 50v15h81l4 1 3 1 1 2h1l1 1 2 5 1 5 1 7v490m287-52 64-31h255l31 27 58-48-27-21V176l-62-32v32H509v-16l-64-32v397m319-251H509v-78h255v78m0 100H509v-78h255v78m0 99H509v-78h255v78m-201 92-5 11-5 11-12 21-16 21-18 21-5-15-16-39-18-35-23-33-25-29-29-26-32-22-5 7 23 29 20 30 20 30 16 32 12 34 11 35 8 38H359v21h107l3 20 3 41-1 33h-92v21h92v100l63-11 16-10-16-9v-70h18l32 37 42-37v-21h-93l-3-37-6-45-3-12h37l33 36 42-36v-21H517l-2-11-4-13 17-6 14-6 14-6 12-8 24-19 20-21 9-13 3-23-16-19-24-2-19 16-2 10m166 236h-77v21h77v100l62-11 16-10-16-9v-70h28l33 37 42-37v-21H791v-5l-3-42-6-40-2-7h36l43 47 53-47v-21H776l8-14 25-36 26-32 14-14 28-25 15-9 14-9 19-13-58-45-16 16-16 16-15 18-12 19-11 19-10 21-9 21-7 24-3 20-7-20-16-32-19-27-22-23-24-21-28-16-30-10-4 8 23 19 20 21 17 21 15 23 12 26 10 27 6 27h-75v21h79l2 15 2 36v43m-431 78 6 8 2-2 23 19 58-47-27-15-20-9-40-44-48-47-42-36 16-18 24-34 1-23-15-19-24-1-19 15-5 17-8 15-18 30-11 14-24 29-28 30-17 12 5 9 40-17 19-10 18-11 17-12 16-13 2-3 52 84 22 36 10 18 3 3H24v22h274Z"/></symbol><symbol id="𬼽_J" viewBox="0 0 1000 1000" data-size="21"><path transform="matrix(1 0 0 -1 59 936)" d="M469 522V0h-64v522H11L0 547h745l59 76c30-28 56-55 79-82l-11-19H469M74 774l-10 25h597l57 73c28-26 54-52 77-79l-11-19H74Z"/></symbol><symbol id="𬼾_J" viewBox="0 0 1000 1000" data-size="21"><path transform="matrix(1 0 0 -1 55 948)" d="M552 357v121c70-4 105-14 105-29 0-9-15-19-46-29v-63h158l54 64c30-26 53-49 68-69l-13-20H611V202h158l54 64c30-27 53-50 68-69l-13-20H611V0h-59v177H320V3h-59v174H9l-9 25h261v130H9l-9 25h261v119c72-2 108-11 108-26 0-9-16-19-49-30v-63h232m0-25H320V202h232v130m172 210c-204-24-411-42-619-54-6-22-13-33-20-33-16 0-29 32-40 95 86 0 151 0 195 1 28 45 53 92 76 142H16L4 718h745l56 63c29-24 54-47 74-69l-12-19H402c-43-54-84-102-123-141 145 2 283 7 415 16-35 27-80 56-135 87l14 19c110-39 183-73 219-103 35-29 52-54 52-75 0-25-11-38-34-38-10 0-22 10-36 29-12 17-29 35-50 55M137 818l-12 25h519l53 54c31-23 56-43 74-60l-11-19H137Z"/></symbol><symbol id="𬼿_J" viewBox="0 0 1000 1000" data-size="21"><path transform="matrix(1 0 0 -1 48 928)" d="M198 476h118l33 35c35-26 53-44 53-52 0-4-2-7-7-10l-20-13V234h-53v41H189v-60h-53v287c31-12 52-20 62-26m-9-25V300h133v151H189m-28 138c-36-54-84-108-142-163L0 443c86 98 143 203 171 317H32l-10 25h716l58 72c28-24 54-49 77-76l-11-21H181c56-17 85-32 85-44 0-4-5-8-14-12-8-3-18-5-30-6-13-29-28-57-45-84h280l39 47c42-33 63-54 63-64 0-4-4-8-11-13l-26-15c0-27-1-63-2-109 17-34 39-65 64-93 58 52 110 111 156 177 49-28 74-50 74-65 0-7-7-11-21-11-5 0-14 1-27 3-38-37-92-79-161-125 73-69 169-122 289-158-22-18-38-37-47-59-81 31-151 73-210 125-51 45-91 96-118 152-5-143-16-234-31-273-18-45-56-68-114-68-1 20-13 35-37 45-20 8-54 14-102 19v27c57-5 112-8 166-8 14 0 24 5 31 13 6 8 11 21 14 40 13 80 20 209 21 388H161M18 0 7 25h759l58 74c20-17 47-43 81-78L894 0H18Z"/></symbol><symbol id="𬽀_G" viewBox="0 0 1000 1000" data-size="21"><path transform="matrix(1 0 0 -1 36 981)" d="m2 390-2 14c147 28 246 77 295 149 7 10 13 20 19 30H172l-38-32-41 36c14 8 25 17 32 29l24 98c3 8 1 22-7 42l13 8 36-44h164c4 29 6 61 7 97H126c-11 2-24-3-37-14l-34 30h307v88c-9 20-15 30-20 31l4 10 81-28c5-1 7-3 8-6 1-2-1-4-5-8-9 0-18-4-26-12v-75h164v73c1 10-9 25-30 45l9 11 87-35c9-3 11-7 6-11-14-4-24-10-29-20v-63h145l36 36 46-40c5-4 7-7 6-10-1-2-4-4-10-6l-19-8v-70l4-57c2-18-14-30-47-36v62H611V603h235l29 36 43-35c6-4 9-7 9-11 0-2-3-5-9-8l-19-13c-11-42-20-68-27-78-7-11-14-20-23-26-10-6-31-14-64-24-3 14-8 24-17 28-9 5-30 13-65 23l4 15c59-14 95-18 109-11 16 2 30 30 42 84H611v-32l2-56c1-24-16-39-52-45 3 26 6 66 7 118v15H360c-6-12-13-24-21-36-49-80-161-133-337-157m578-173 10 12C750 155 831 87 832 24c-3-14-10-21-20-23-11-1-23 12-34 38-7 14-16 29-27 43-337-24-516-39-537-43-21-5-39-14-54-28l-39 63c20 0 38 3 55 11 49 44 104 99 164 165H78c-17 0-32-4-44-13L1 270h820l32 38 66-49c5-3 8-5 7-7-1-1-5-2-13-2H401c-84-82-150-139-198-172 94 4 271 11 531 22-6 7-12 13-19 19-30 28-75 60-135 98M369 603h199v101H395c-5-38-14-71-26-101M191 704l-26-101h159c13 29 22 63 29 101H191m377 113H404c-1-35-3-67-7-97h171v97m43 0v-97h161v97H611M157 393h546l32 38 66-49c5-3 8-5 7-7-1-1-5-2-13-2H234c-17 1-32-3-44-13l-33 33Z"/></symbol><symbol id="𬽁_G" viewBox="0 0 1000 1000" data-size="21"><path transform="matrix(1 0 0 -1 24 950)" d="m540 868 77-33c8-3 10-7 5-11-10-2-19-8-26-18V507h41l14 31 52-39c5-4 8-7 7-9s-5-3-12-3H596V154l103 41 5-16-140-69c-60-27-96-46-108-56-11-9-20-22-27-40l-55 51 62 25v521c1 10-6 23-21 37l8 11 71-29c8-3 10-7 5-11-10-2-19-8-26-18V105l84 33v678c1 12-8 25-28 41l11 11m303-251 65-46c4-3 6-6 6-9 0-2-2-3-6-5-19 5-38 2-58-9-2-1-6-3-11-7-9-5-36-20-80-46V111c0-38 6-61 17-67 10-6 21-10 32-10 8 0 17-1 27-1 5 0 12 1 23 1 2 1 4 1 5 1 18 4 28 15 31 35 5 34 8 87 10 159h14c1-34 3-71 6-112 1-10 1-16 1-20 1-18 10-31 26-41-21-34-42-51-65-53-20-3-58-3-113 0-35 7-53 37-53 90v752c-1 17-11 31-28 43l7 12 97-39c3-2 4-3 3-5 0-1-1-2-4-4-14-3-26-8-36-16V519c15 13 28 24 41 34 37 29 48 48 35 58l8 6M269 370l6 8c44-59 72-120 83-184 7-32 7-56 0-73-7-18-15-25-25-22-10 4-14 22-12 56 1 9 1 17 0 25-57-11-122-24-197-40-32-6-54-17-66-35l-35 60c17 2 31 8 43 19 27 72 45 125 56 157 11 33 20 63 27 91 4 21 6 37 7 49 0 6-3 13-9 19l8 7 68-27c4-2 6-4 7-8 0-3-2-5-5-5h-4c-9 2-16-1-23-7-27-88-63-185-107-291l229 29v1c-2 20-6 41-12 63-10 38-23 74-39 108M0 536h306l29 34 53-40c7-5 10-9 8-12-1-2-8-2-19-2H69c-11 2-23-2-36-12L0 536m38 241h214l25 32 51-38c7-5 10-9 8-11-1-2-8-3-19-3H115c-17 1-32-3-44-13l-33 33Z"/></symbol><symbol id="𬽂_G" viewBox="0 0 1000 1000" data-size="21"><path transform="matrix(1 0 0 -1 28 980)" d="m255 75 480 23c-23 21-66 43-129 67l1 13c65-13 116-31 155-53s63-45 72-69c10-23 8-39-7-49-15-7-27 1-36 23-7 16-17 30-29 44l-2 2-314-20c-85-5-145-10-179-16-26-4-45-13-58-28l-35 65c22 0 43 6 64 17 60 38 115 79 164 121H137c-18 0-33-4-45-12l-33 32h776l24 37 70-47c5-3 7-6 6-8-1-1-5-2-12-2H467c-45-38-115-84-212-140M97 863l57-35h670l40 48 72-54c7-5 10-9 8-11-1-2-8-3-19-3H157c1-48 1-91-1-127s-6-75-12-117C133 473 86 395 3 331l-3 10c59 64 93 140 104 228 5 40 9 79 10 115s1 79 0 128c-3 14-11 28-26 40l9 11m615-130c-1 16-9 31-26 45l8 11 82-38c6-2 10-4 11-6s0-5-4-7c-9-2-19-7-30-16v-54h68l32 39 66-49c5-2 8-5 7-7-1-1-6-2-13-3H753V470c2-48-27-73-87-76 1 25-32 46-98 62v13l64-13c23-3 41-4 55-4 15 1 24 18 25 50v146H472c-17 1-31-3-44-12l-33 32h317v65m-356 61 75-42c3-2 4-4 4-6-1-2-3-3-6-4-10 0-21-4-32-12-18-24-36-47-55-70V468l2-36c2-22-15-37-52-43 3 25 6 67 7 125v102l-3-3c-35-33-79-67-133-103l-8 9c57 48 105 97 143 146 39 49 59 79 61 91 2 13 0 24-7 32l4 6M197 343h507l30 41 63-50c5-3 6-6 5-8s-4-3-10-3H274c-19 0-33-4-44-12l-33 32m201 609 4 12c103-22 154-54 155-96 0-15-6-24-19-26-12-2-22 6-29 23-7 16-18 31-34 44-15 12-41 27-77 43m42-361 3 12c50-10 86-28 109-54 12-12 18-25 17-39-2-14-9-21-22-23-11 1-20 9-26 25-8 19-17 33-27 41-12 12-30 24-54 38Z"/></symbol><symbol id="𬽃_J" viewBox="0 0 1000 1000" data-size="21"><path transform="matrix(1 0 0 -1 49 948)" d="M415 739v158c70-2 105-12 105-28 0-9-15-18-44-27V739h275l55 75c29-27 55-54 77-80l-11-20H28l-10 25h397M15 71 0 92c139 107 232 244 277 411H30l-10 25h252l40 49c42-36 63-59 63-70 0-5-3-9-9-12l-26-14c-26-86-69-167-129-244C163 175 98 120 15 71m577 528c67-2 100-11 100-25 0-8-14-18-41-29V131c0-15 5-25 14-29 9-3 30-5 64-5 47 0 74 10 81 29 12 30 19 82 22 158l26-9c0-80 3-128 10-145 5-15 16-22 34-22-1-33-14-52-39-58-23-6-65-9-125-9-72 0-115 6-128 17-12 9-18 29-18 60v481M365 1c0 18-9 32-27 41-19 8-62 18-128 29v27c58-8 114-11 170-11 23 0 34 10 34 29v556c71-6 107-16 107-30 0-10-15-19-46-28V92c0-62-37-92-110-91Z"/></symbol><symbol id="𬽄_G" viewBox="0 0 1000 1000" data-size="21"><path transform="matrix(1 0 0 -1 36 975)" d="M2 743h784l44 53 84-60c7-5 9-8 7-11-2-2-8-3-19-2H79c-17 1-33-4-46-13L2 743m327 196 4 11c85-23 137-55 158-94 21-41 15-66-18-76-15-1-24 10-27 32-6 24-18 46-37 65-19 22-45 43-80 62m407-403 64-65c5-4 7-7 7-9 0-3-2-4-7-5-18 6-40 1-65-14-13-9-56-34-128-75-22-12-39-22-51-29 25-45 55-85 89-121 33-35 67-63 103-84s69-35 98-44c21-5 48-11 80-16l2-15c-6-1-14-2-24-3-11-1-24-2-38-4-15-1-27-12-36-31-41 21-80 44-115 70-36 27-69 59-99 96-67 79-119 180-156 305-11-85-28-150-50-196-33-68-88-128-165-181C170 63 89 25 2 0L0 16c79 29 153 69 223 122 69 52 119 111 151 178 30 64 47 173 51 326-3 11-10 22-22 33l7 11 90-31c15-5 19-9 13-13-18-3-31-8-40-16-2-29-4-58-7-85 24-68 50-128 78-181 63 40 109 71 136 93 30 23 46 40 48 51 3 12 2 21-2 26l10 6m-532-16h17c2-57 0-99-7-126-7-31-17-54-30-69-13-17-27-26-41-28-15-2-25 3-30 15-7 11 0 24 19 39 19 12 35 29 48 51 12 19 20 59 24 118Z"/></symbol><symbol id="𬽅_K" viewBox="0 0 1000 1000" data-size="21"><path transform="matrix(1 0 0 -1 53 949)" d="M419 387v298H0v20h777l32 44c5 8 9 13 10 13 2 0 8-4 18-12l57-47-8-18H466v-76c201-19 305-51 311-96 2-7 3-14 3-19 0-13-5-19-14-19-11 0-26 8-43 25-63 43-148 72-257 88V398c3-12 3-19 1-21-3-5-10-9-21-12-13-2-22-2-24 0-2 3-3 7-3 14l1 6-1 2m309-69 14 21c7 8 10 12 11 12 3 0 10-5 19-14l29-28c12-11 17-19 17-24 0-6-12-11-36-14V21c0-4-8-7-21-9-7-3-13-4-16-4-4 0-6 1-7 5v17c1 13 1 22 1 29H174V15c-1-4-9-8-24-12-7-2-12-3-14-3-4 0-5 2-6 6-1 2-1 10 0 23 1 17 1 33 1 46v227l-7 51 59-35h545m11-238v218H174V80h565M470 755c-5-22-14-33-26-33-7 0-13 6-17 17-18 54-59 103-122 150l9 9c57-30 97-55 120-76 26-23 38-46 36-67Z"/></symbol><symbol id="𬽆_J" viewBox="0 0 1000 1000" data-size="21"><path transform="matrix(1 0 0 -1 54 949)" d="M257 578h152l39 47c42-36 63-58 63-67 0-5-4-9-11-12l-27-13c-6-29-13-54-20-76 15-41 37-82 66-123 108 70 191 142 250 218 52-34 78-58 78-72 0-9-16-12-48-11-64-51-151-104-263-158 87-112 206-191 356-237-22-17-40-36-53-58-107 42-193 98-258 168-58 61-105 139-141 233-37-100-92-184-166-253C207 101 121 47 15 0L0 23c132 69 234 156 305 263-3-1-6-2-9-2-15 0-25 8-31 23-18 44-49 85-92 121-44-61-95-114-153-159L2 287c111 109 184 242 219 398 67-9 101-20 101-33 0-11-16-19-47-23-5-17-11-34-18-51m-11-25c-19-40-38-74-57-103 53-27 91-52 114-75 15-15 22-31 22-48 0-5 0-9-1-11 43 72 73 151 90 237H246m159 186v158c70-2 105-11 105-28 0-9-15-18-44-27V739h275l55 75c29-27 55-54 77-80l-11-20H18L8 739h397Z"/></symbol><symbol id="𬽇_J" viewBox="0 0 1000 1000" data-size="21"><path transform="matrix(1 0 0 -1 42 945)" d="M299 304c-4-5-10-7-18-7-14 0-24 10-31 31-10 34-38 69-82 107-41-69-91-130-150-181L0 272c100 111 166 248 199 412 59-17 89-32 89-45 0-9-14-15-43-19-3-14-8-29-14-46h139l36 47c40-35 61-57 61-66 0-5-3-9-9-12l-24-14c-31-147-79-259-141-334C232 121 139 56 15 0L0 21c140 76 240 170 299 283m7 15c31 63 54 140 70 230H222c-7-18-21-49-42-93 85-35 128-76 128-122 0-5-1-10-2-15m111 418v154c67-1 100-9 100-24 0-9-14-17-43-26V737h282l52 68c27-25 51-50 71-74l-11-19H18L7 737h410m145-369c104 63 181 128 234 195 49-33 73-56 73-68 0-7-8-11-24-11-2 0-10 1-25 2-51-47-137-98-258-152V110c0-15 5-25 14-29 9-3 48-5 117-5 48 0 81 3 100 9 15 5 24 12 28 22 12 30 19 83 22 158l26-9c0-80 3-128 10-145 5-15 17-22 37-22-1-33-14-52-39-58-23-6-92-9-206-9-87 0-137 6-150 17-12 9-18 29-18 60v567c67-2 100-10 100-25 0-8-14-18-41-29V368Z"/></symbol><symbol id="𬽈_J" viewBox="0 0 1000 1000" data-size="21"><path transform="matrix(1 0 0 -1 52 934)" d="M202 25v602c31-13 54-23 68-31h349l39 47c41-32 61-53 61-63 0-4-3-8-9-13l-24-18V25h82l59 74c26-27 50-54 70-81L887 0H11L0 25h202m60 430h364v116H262V455m0-25V315h364v115H262m0-140V174h364v116H262m0-141V25h364v124H262m154 573v146c71-1 106-9 106-26 0-9-16-18-47-27v-93h271l55 75c30-28 55-54 75-79l-11-21H25l-8 25h399Z"/></symbol><symbol id="𬽉_J" viewBox="0 0 1000 1000" data-size="21"><path transform="matrix(1 0 0 -1 41 950)" d="M259 483v-38h-58v291c23-10 46-21 68-34h389l40 46c43-31 64-52 64-63 0-5-3-9-9-13l-26-16V452h-58v31H259m0 124h410v70H259v-70m0-25v-74h410v74H259m230-282c101 30 181 61 240 92H49l-10 25h717l46 39c52-40 78-65 78-74 0-5-6-9-19-11l-52-7c-98-33-191-59-280-79 6-3 8-7 8-10 0-8-14-14-41-19V81c0-54-35-81-104-80-1 20-15 35-42 44-18 5-54 11-108 19v28c67-6 119-9 155-9 25 0 38 10 38 31v197c29-5 47-9 54-11m-50 486v116c71-1 106-10 106-27 0-8-16-17-47-26v-63h291l55 75c30-28 55-55 75-79l-11-21H8l-8 25h439Z"/></symbol><symbol id="𬽊_J" viewBox="0 0 1000 1000" data-size="21"><path transform="matrix(1 0 0 -1 33 949)" d="M501 260h312l55 63c24-22 47-45 67-69l-11-19H504V79c0-53-33-79-100-79 0 20-11 34-32 43-15 6-53 13-116 23v27c69-7 119-11 152-11 24 0 37 9 37 28v125H11L1 260h441v79c8-1 20-3 37-6 12-2 22-3 28-4 83 26 150 53 201 83H104l-10 25h625l49 35c49-39 74-63 74-72 0-6-5-9-14-10l-57-6c-70-26-145-49-224-68 2-3 0-6-5-9-16-11-30-18-41-21v-26M264 500v-37h-58v272c23-10 46-21 68-34h389l40 46c43-31 64-52 64-63 0-5-3-9-9-13l-26-16V470h-58v30H264m0 25h410v65H264v-65m0 90h410v61H264v-61m175 169v113c68-1 102-8 102-22 0-8-14-17-43-25v-66h310l50 65c28-25 51-49 69-70l-9-20H10L0 784h439Z"/></symbol><symbol id="𬽋_J" viewBox="0 0 1000 1000" data-size="21"><path transform="matrix(1 0 0 -1 59 950)" d="M683 514c-36-70-89-134-158-190l-16 16c47 53 83 108 109 165 22 50 39 107 50 171 63-12 95-26 95-41 0-9-13-15-41-19-8-30-17-55-27-77 63-26 111-55 143-86 23-23 35-44 35-63 0-23-11-35-34-35-12 0-24 11-37 34-26 44-66 86-119 125m-479-4c-41-76-104-140-188-194L0 335c103 90 167 204 192 341 62-15 93-30 93-45 0-8-13-14-40-18-9-30-19-57-29-78 58-28 101-58 129-91 19-24 29-46 29-66 0-24-11-36-33-36-14 0-24 10-32 30-15 41-50 87-105 138m211 236v153c69-2 103-10 103-26 0-10-15-19-46-28v-99h281l55 68c29-25 54-49 74-73l-11-20H35l-12 25h392M176 91h240v596c67-1 100-9 100-23 0-9-14-19-43-30V91h241v234c67-3 100-12 100-26 0-9-14-19-43-30V13h-57v53H176V0h-57v319c66-1 99-9 99-25 0-9-14-18-42-28V91Z"/></symbol><symbol id="𬽌_J" viewBox="0 0 1000 1000" data-size="21"><path transform="matrix(1 0 0 -1 41 950)" d="M428 302C318 183 181 89 15 22L0 45c162 78 292 178 392 302H22l-10 25h209v163H62l-11 25h170v135c72-2 108-11 108-27 0-9-16-19-49-29v-79h148v135c70-1 104-10 104-26 0-10-15-20-45-31v-78h142v137c71-4 106-14 106-30 0-9-16-18-47-28v-79h78l47 63c26-26 48-49 64-71l-11-17H688V372h110l48 62c26-25 47-47 64-68l-10-19H500c112-118 251-200 418-245-24-22-41-42-49-62-161 63-288 157-382 282V0h-59v302m-148 70h148v163H280V372m207 0h142v163H487V372m-58 382v146c71-1 106-10 106-26 0-9-15-18-47-27v-93h271l55 75c30-28 55-54 75-79l-11-21H38l-8 25h399Z"/></symbol><symbol id="𬽍_J" viewBox="0 0 1000 1000" data-size="21"><path transform="matrix(1 0 0 -1 49 951)" d="M725 60H175V0h-58v272c66-3 99-12 99-27 0-8-13-17-41-27V84h239v248H33l-10 25h391v153c65-3 98-12 98-26 0-8-13-17-41-27V357h285l52 68c25-24 47-49 67-75l-10-18H471V84h254v187c66-4 99-13 99-28 0-9-14-18-42-28V0h-57v60M421 788v113c65-1 98-8 98-22 0-8-14-17-41-27v-64h295l52 65c28-24 54-48 77-73l-10-17H13l-9 25h417M184 557H9l-9 25h184v137c66-2 99-9 99-21 0-9-14-18-42-29v-87h72l51 70c25-25 47-50 66-76l-11-19H241V411h-57v146m460 0H480l-9 25h173v137c66-2 99-9 99-21 0-9-14-18-42-29v-87h83l51 70c25-25 47-50 66-76l-11-19H701V411h-57v146Z"/></symbol><symbol id="𬽎_S" viewBox="0 0 1000 1000" data-size="21"><path transform="matrix(1 0 0 -1 61 965)" d="m415 428-15-9 4-46 13-59 3-5 336 9 52 54 64-50v-21l-444-13 10-25 31-46 39-39 11-8 67 35 55 34 50 36 35-47 3-3 1-20-19 8-38-25-60-32-43-20 44-22 69-23 78-18 55-7 30 128h10l-9-131h2l21-12 7-23-11-20-23-8-93 12-85 18-75 26-67 33-23 16-87-29-73-21-76-18-81-15-84-11-87-7-2 9 86 17 81 20 78 20 74 23 70 25 57 23-36 37-37 55-22 53L1 275l-1 21 354 11-12 57-5 70v17l62-13 16-10m209-88-13 15-19 16-12 9-28 18-34 19-20 8 3 10 20-5 21-2 20-3 35-9 15-4 16-6 14-6 12-6 12-8 11-22-8-22-23-11-22 9M18 403l54-31-18-15-25 3-14 20 3 23m2-1-2 1 7 10 7 10 13 21 11 25 5 13 7 29 1 15h10l3-15 3-16h703l3 2 1 3 2-1 25 22 59-47-26-16-23-9-45-51-23-24-11-13-8 5 8 16 5 15 21 57 7 20H88l1-10v-16l-2-15-2-15-3-16-4-15-6-15-13 8-11 6-1 1-20 10-7 5m169 355 64-31h356l33 26 57-47-26-21V553l-64-32v32H253l-64-32v236m420-52H253V573h356v132M399 931l64-11 16-11-16-9v-80h294l53 53 62-53v-21H1v21h398v111Z"/></symbol><symbol id="𬽏_S" viewBox="0 0 1000 1000" data-size="21"><path transform="matrix(1 0 0 -1 40 959)" d="m762 369 10-17 31-32 1-17-20 8-112-50-46-19-22-8 24-21 42-32 45-29 48-25 50-21 93-30-60-53-58 22-54 27-49 31-47 36-44 38-38 43-36 48-32 50-27 55-6 16-23-21-41-32-42-31-39-25V94l106 42 117 50 5-8-73-51-66-41-81-45-23-12-19-8-5-21-15 12-3 8-1 3-3 12-2 6-4 13-5 15-1 3 10 2v171l-32-16-47-19-49-18-51-14-51-11-2 9 48 20 90 45 43 25 42 25 41 27 39 30 37 31 36 33 36 37 14-15 6 3 18-29 5-6 2-4 43-63 35-45 37-40 3-2 23 18 145 100 4 3M237 72l19-60-28 57 9 3m288 458 38-19 30-14 32-13 34-10 36-10 39-8 41-7 43-6 46-4 56-5-63-63-47 8-46 9-43 11-41 14-37 15-36 16-32 20-29 20-25 24-18 22h-89l-22-25-50-37-63-31-77-26-92-17L0 384v10l106 19 88 25 71 30 54 34 33 28H11v21h141v163l64-32h215l4 19 5 40h-1l2 16 62-19 15-12-19-8-5-28-3-8h207l32 26 58-47-26-21v-89h31l53 53 62-53v-21H525m-98 131H216V551h155l20 24 20 41 15 42 1 3m271 0H485l-6-19-20-48-26-43h265v110M11 774v21h415v124l62-11 16-11-16-8v-94h300l52 53 63-53v-21H11Z"/></symbol></svg>