<svg xmlns="http://www.w3.org/2000/svg"><symbol id="𭀿_G" viewBox="0 0 1000 1000" data-size="21"><path transform="matrix(1 0 0 -1 16 973)" d="m267 634 70-40c5-4 4-7-3-10-11-1-19-3-22-6-3-2-10-17-22-45-6-13-10-23-13-30l-25-54h120l24 30 46-35c4-3 6-6 6-9 0-2-2-4-6-5-9-3-15-7-19-13s-11-23-20-52c-7-26-24-64-50-114-12-21-23-39-33-52 12-7 21-13 27-17 31-23 51-43 60-60 13-21 13-38 2-50-13-12-27-6-42 17-20 30-44 57-71 81-17-19-37-39-60-58C185 67 117 29 34 0l-6 12c83 43 147 87 191 132 17 16 32 33 46 50-5 3-10 7-15 11-23 16-59 36-106 59 28 69 49 124 64 165h-91c-17 1-28-4-34-14l-30 34h163c2 4 5 11 8 20 3 7 5 12 6 15 27 73 39 114 38 122-2 7-5 13-9 19l8 9m354-210 7 11 33-15 9-5 97 121H527c-13 1-25-3-37-13l-32 33h314l31 27 49-47c3-2 3-4 2-7s-4-4-8-4c-15 0-30-5-45-15-30-20-66-55-109-105l18-7c7-3 10-6 11-8s0-4-4-6c-13-5-23-10-30-16v-53h146l36 40 64-48c7-5 10-9 8-11-2-1-8-2-19-1H687V92c-1-23-6-40-16-52-9-10-36-21-81-32-2 19-10 32-25 39-16 7-44 16-85 27l4 16 41-10c43-8 74-10 93-6 17 6 27 23 28 52v169H482c-17 0-32-4-44-13l-33 33h241v64c-1 13-9 28-25 45m347 187v-15c-33-1-55-3-66-5-9-1-21-9-34-24-31 13-70 33-116 61s-88 60-125 96c-38 36-75 73-111 112l-23 23c-40-49-87-99-142-148C240 611 123 543 2 508l-2 13c114 53 220 124 317 212 46 43 93 95 141 158l-7 7c-8 6-15 11-22 14-21 12-48 17-83 16l1 18c41 3 74-3 98-17s54-38 89-72c73-72 140-127 202-164 56-33 106-56 150-67 19-5 46-10 82-15M264 232c7-4 14-8 22-12 14 19 26 38 36 58 19 37 38 88 57 151H244l-73-155c25-11 56-25 93-42Z"/></symbol><symbol id="𭁀_G" viewBox="0 0 1000 1000" data-size="21"><path transform="matrix(1 0 0 -1 21 978)" d="m496 956 75-40c11-7 13-12 7-15-14 1-27-5-40-18-15-24-31-47-47-68h343l32 39 66-49c5-4 8-7 7-8-1-2-6-3-13-2H586V692h184l31 38 67-48c5-4 7-7 6-8-1-2-5-3-12-2H586V568h241l31 39 66-49c5-4 8-7 7-8-1-2-6-3-13-2H586v-44l2-44c1-24-16-39-53-44 3 41 5 89 6 145v234h-65l-5-7c-54-69-111-124-172-165l-8 11c81 83 142 160 183 231 15 25 23 43 24 55 1 10-2 19-9 28l7 8M324 450v7l63 34c6 4 10 5 12 4 3-1 3-4 2-9-1-11 1-20 7-25 69-59 128-117 176-172 55-62 98-105 131-129 52-39 105-65 158-79 33-9 61-15 84-17V50c-22-1-40-2-55-4-20-5-35-16-45-33-43 15-86 40-131 75-55 43-110 100-165 170-25 33-51 62-77 88-88-120-189-213-303-279C124 36 65 13 6 0L0 14c56 21 109 46 158 77 117 75 214 171 289 290-28 27-52 47-71 61-6 6-23 9-52 8m-38 503 66-38c11-6 14-11 7-14-13 1-27-4-40-17-23-32-46-63-69-92l-20-22V499l1-54c1-24-16-39-53-45 3 25 6 74 7 145v176C126 662 67 617 8 586l-8 11c101 81 183 165 244 252 25 36 38 58 40 66 3 10 0 20-7 29l9 9Z"/></symbol><symbol id="𭁁_S" viewBox="0 0 1000 1000" data-size="21"><path transform="matrix(1 0 0 -1 26 976)" d="m562 420-15 12-9 6-10 6-23 13-26 13V316l-40-20 56-9 16-11-16-9v-20h300l32 33-13-3h-13v32l-84 15v16h91l4 2 3 1 3 1v1l1 2 2 3v4l1 7h63v-13l-3-13-4-13-7-12-9-10-7-6 55-47v-20H521l82-38 75-30 82-28 87-25 46-11 43-12-62-55-92 32-43 17-81 37-73 42-34 23-31 24-25 23V31L433 0v197l-49-34-38-22-41-22-44-19-47-18-49-17-52-14-53-12L3 29l-3 9 105 40 94 41 82 43 37 24 34 24 21 17H18v20h415v46l-16-9v165l-15-14-18-18-21-16-22-14-24-13-25-12-26-10-5 7 21 19 38 35 18 18 16 17 13 18 12 18 11 18 6 13H263v21h154v51l-62-3h-83l-1 10 26 6-17 4-33-29-53-40-15-11 19-3 16-10-16-10V315l-63-31v213l-61-34-34-15-34-13-5 7 138 110 49 43 42 44 16 18 6 6 44-46 4-16 53 11 101 21 55 13 43 12 12 4 6 2 1-8 54-44 2-15-23 10-19-4-42-6-25-3-28-2-11-1v-55h25l53 53 62-53v-21H479v-33h1l16 1 16-1h13l15-1 13-2 12-1 23-6 12-3 13-20-4-23-18-15-25 4-4 5m100 205 64-11 15-10-15-9V386l-64-32v271m160 31 63-10 15-11-15-10V361h-63v295m18 18-44 14-42 18-82 40-39 24-37 24-35 26-34 30-22 22-44-34-36-25-41-25-44-23-48-22-51-21-53-20-58-18-62-17-65-16-3 9 120 50 106 48 90 50 40 25 36 26 23 18H259v21h174l52 53 63-53v-21h-27l57-31 76-38 79-33 82-27 43-12 44-8 45-12-61-57-46 15m-196 81 63-53v-21H210v21h382l52 53Z"/></symbol><symbol id="𭁂_S" viewBox="0 0 1000 1000" data-size="21"><path transform="matrix(1 0 0 -1 26 972)" d="M611 185H39v21h572v72l63-10 15-10-15-10v-42h95l52 53 63-53v-21H674V84l-1-14-2-12-4-14-7-12-9-10-10-8-12-7-13-4-13-3h-13v31L485 47v16h116l3 1 1 1 1 1 1 1 1 2 1 3 1 5 1 7v101M334 54l-11 21-14 22-17 19-33 32-13 9 4 8 16-5 15-4 16-6 15-5 13-8 14-8 13-9 11-9 23-21 5-25-13-19-24-5-20 13m12 347-51 24-2 1-1 4-6 8-8 11-11 12-33 25-20 13-6 8 15 14 35 42 19 26 8 12 1 3H158V265l-62-32v423l62-32h138l4 4 2 4 1-1 24 19 58-46-27-16-24-11-13-11-25-18-30-20-17-9-18-9-8-5 17-7 22-7 19-8 17-7 15-8 12-8 10-11 9-12 4-17-2-19m450-129-10 8-23 18-45 25-36 19-21 8 2 8 22-2 21-2 40-5 19-5 33-10 16-6 15-7 14-8 11-20-5-23-21-12-24 6-8 8m60 153 42-37v-22H546l3-5 32-32 1-17-19 7-30-11-40-14-42-12-23-5-24-5-49-6-1 8 84 43 71 40 14 9H345v22h478l33 37m-568 3 58-27-6-11-8-11-9-10-9-10-9-6-12-7-12-4-12-4-13-2-14-1v31l-53 17v15h61l6 1 5 2 5 1 8 6 4 4 3 4 7 12m152 223 63-31h236l32 26 57-46-26-22V419l-63-31v31H503l-63-31v263m299-170H503v-41h236v41m0 59H503v-37h236v37m0 60H503v-38h236v38m101 66-44 15-42 17-82 40-39 24-37 24-35 27-34 29-22 22-44-34-36-25-41-25-44-23-48-22-51-21-53-20-58-18-62-17-65-15-3 8 120 50 106 48 90 50 40 25 36 27 23 17H259v22h174l52 52 63-52v-22h-27l57-31 76-38 79-32 82-28 43-11 44-9 45-12-61-57-46 15m-175 64 42-36v-21H210v21h423l32 36Z"/></symbol><symbol id="𭁃_S" viewBox="0 0 1000 1000" data-size="21"><path transform="matrix(1 0 0 -1 26 980)" d="m863 63-17 15-17 18-15 19-13 21-12 21-9 18V31L718 0v157l-23-28-19-20-21-17-20-15-24-13-24-8-5 7 19 18 31 36 14 19 26 41 12 22 9 24 10 24 2 5H596l14-12-26-15-8-3-4-14-15-33-21-30-22-28-28-25-31-22-33-17-37-16-41-12-43-7-3 8 39 18 36 19 31 19 29 22 23 21 2 3-19-3-19 15 1 2v3l-1 4-3 5-5 6-6 6-15 13-9 6-32-23-24-12-24-10-5 7 19 18 18 18 30 36 13 18 12 19 9 19 8 19 6 20 1 1H299v22h253l20 27-14-4-18-4-19-2-18-4-3 9 17 8 57 38 27 19 17 14H494v21h64v235l62-31h161l32 26 58-47-26-21V484l-51-25h40l32 36 42-36v-21H642l7-12 23-25 1-18-21 8-13-6-31-11-30-8 29-29v-22H477l-9-21-12-23-5-9h70l32 25 40-32v18h125v89l62-10 16-11-16-9v-59h30l43 47 52-47v-21H780v-17l29-37 29-34 16-15 31-24 15-10 17-8 22-13-58-46-18 15M261 165l-4 5-13 11-8 6-29 18-5 3V43l-62-31v175l-20-21-17-16-20-14-20-14-22-13-22-11-6 6 34 37 28 36 13 17 11 17 9 18 9 18 5 13H16v20h124v84l62-10 16-10-16-10v-54h17l44 48 51-48v-20H202v-37l10 1h13l24-1 22-3 20-5 9-3 13-21-5-23-20-13-23 5-4 5m257 75h-81l-9-11-17-19-15-15h11l11-1 11-1 9-2 10-3 9-3 9-6 8-7 3-23 16 25 13 26 10 28 2 12M319 481l-1 1 1-1m505-125-20 22-20 16-37 24-16 6 3 9 17-3 16-1 15-2 15-3 14-3 13-4 13-4 12-5 22-12 10-21-7-22-21-11-24 8-5 6m-43 128H620l-50-25h211v25m-474 5-1 1 1-1m474 50H620v-34h161v34m0 52H620v-31h161v31m0 51H620v-31h161v31m61 61-45 14-42 15-42 18-40 19-39 20-37 22-35 24-34 26-22 20-46-31-37-23-40-21-44-21-48-19-50-19-54-18-58-16-62-14-64-12-3 8 120 45 106 44 47 23 84 45 37 22 15 13H259v20h174l52 53 63-53v-20h-23l90-42 77-32 40-13 41-13 41-11 43-9 91-19-61-58-45 13m-177 67 42-38v-20H210v20h423l32 38M322 480l-8-11-7-10-9-9-10-8-11-6-11-6-12-4-13-3-12-2-13-1v32l-53 16v15h53l7 1 6 1 6 1 6 2 5 2 5 4 5 3 9 9-12 10-30 20-20 12-23 10 1 1-2-1-4 8 15 12 41 36 22 22 4 5H117V373l-63-32v352l63-31h154l5 4 4 6 2-1 21 17 58-47-26-16-43-18-26-14-32-14-37-14-5-2 16-3 22-5 38-10 15-5 14-5 11-6 10-9 7-15 65 65 36 40 48 60 16 24 48-42 6-17-21 2-22-25-41-37-12-10 18-2 15-11-15-10V373l-64-32v190l-34-22-25-15-20-9-1-5Z"/></symbol><symbol id="𭁄_J" viewBox="0 0 1000 1000" data-size="21"><path transform="matrix(1 0 0 -1 78 944)" d="M483 714c28 50 53 109 76 175 61-18 91-34 91-48 0-9-15-15-44-18-20-31-50-67-91-109h180l50 67c28-27 50-51 67-74l-10-18H453V352h265l55 73c28-28 52-54 71-78l-11-20H453V0h-61v327H98c-11-33-24-68-38-106L0 239c43 110 79 233 107 371 63-13 95-25 95-38 0-9-14-16-43-23-17-74-35-140-53-197h286v337H43l-9 25h449m-176 6c-14 0-24 9-30 27-16 47-45 87-87 120l13 20c95-42 142-85 142-128 0-26-12-39-38-39Z"/></symbol><symbol id="𭁅_G" viewBox="0 0 1000 1000" data-size="21"><path transform="matrix(1 0 0 -1 40 982)" d="m551 964 89-35c8-3 10-7 5-11-13-4-23-11-29-20V639c79-37 141-73 186-108 53-43 89-82 108-117 18-41 14-64-13-70-12-1-25 14-38 47-11 29-38 65-81 110-43 41-97 81-162 119V140l3-95c1-23-17-38-55-45 3 25 6 87 7 185v723c1 10-9 25-29 45l9 11M309 410l10 9c42-45 71-80 86-103 18-26 33-54 45-84 11-30 15-54 12-73s-13-29-28-30c-13 1-21 18-24 53-2 15-5 30-9 45-36-6-94-15-174-27-73-15-114-25-121-29-6-4-14-11-24-22l-30 63c15-1 30 3 44 10 55 116 99 234 131 355 1 14-4 27-14 38l8 7 87-34c3-3 5-6 5-7s-2-2-6-3c-16-4-28-11-35-21-36-105-85-218-148-339 85 9 175 19 270 32-4 13-9 25-14 37-14 32-38 73-71 123M160 884l80-37c3-2 5-4 4-6 0-2-2-3-5-3-19-2-29-7-30-14C138 648 72 526 9 457l-9 7c31 52 61 112 90 181 24 54 42 100 54 137s18 60 17 67c0 6-3 15-9 27l8 8m124-11 10 9c57-59 96-105 117-137 29-43 50-83 63-118 11-34 17-59 17-75-1-22-10-33-27-34-13-1-23 19-30 62-7 42-24 87-51 136-26 47-59 99-99 157Z"/></symbol><symbol id="𭁆_J" viewBox="0 0 1000 1000" data-size="21"><path transform="matrix(1 0 0 -1 69 947)" d="M205 684h200v209c68-3 103-11 103-26 0-10-15-20-44-31V684h205l52 69c26-25 49-50 68-74l-12-20H464V443h270l57 72c28-26 52-51 71-75l-12-22H18L7 443h398v216H194c-33-65-73-123-122-175l-21 15c68 96 116 217 143 362 62-13 93-27 93-42 0-9-14-16-41-22-10-36-24-74-41-113M818 20c-14 0-31 15-49 46-66 111-152 212-258 303l18 18c118-80 208-157 270-230 36-44 54-78 54-103 0-23-12-34-35-34M17 0 0 18c116 89 204 210 264 362 63-21 95-38 95-49 0-8-16-12-48-13C236 177 138 71 17 0Z"/></symbol><symbol id="𭁇_J" viewBox="0 0 1000 1000" data-size="21"><path transform="matrix(1 0 0 -1 51 952)" d="M603 546v200H365l-9 25h247v133c68-1 102-9 102-25 0-9-15-18-44-28v-80h101l50 68c25-24 48-48 68-73l-11-20H661V546h119l50 68c25-24 48-48 68-73l-11-20H661v-87c0-54-16-91-47-112-24-15-60-23-108-24-54-1-96 10-125 32-29 21-43 52-43 92 0 43 19 76 57 98 31 17 74 26 127 26h81m0-25h-80c-38 0-69-11-93-34-20-19-30-40-30-64 0-30 11-55 33-72 19-16 43-24 72-24 30 0 55 12 75 36 15 20 23 44 23 71v87m-94-336 10 24c128-27 223-59 285-96 35-22 52-43 52-62 0-24-11-35-33-35-9 0-22 7-39 22-63 54-154 103-275 147M21 0 8 25c110 36 210 97 297 185 53-25 79-45 79-59 0-8-10-12-30-12-2 0-5 0-11 1s-11 1-15 2C242 77 139 30 21 0m204 316v565c66-1 99-9 99-24 0-9-13-18-41-28V316h-58M62 388v435c66-1 99-9 99-24 0-9-14-18-41-28V388H62M11 234 0 259h754l54 69c27-25 50-50 69-75l-12-19H11Z"/></symbol><symbol id="𭁈_J" viewBox="0 0 1000 1000" data-size="21"><path transform="matrix(1 0 0 -1 53 949)" d="M580 520H373l-9 25h216v147c-50-7-116-13-197-18l-9 22c72 9 140 21 206 35v168c68-1 102-9 102-25 0-8-15-18-44-28V746c65 17 117 36 158 55 36-30 54-49 54-57 0-6-6-9-19-9-8 0-17 1-29 4-50-17-104-29-164-38V545h138l50 68c26-24 48-48 68-73l-11-20H638V323h-58v197M823 15c-9 0-22 7-39 22-62 52-154 100-275 142l10 23c128-26 223-57 285-93 35-20 52-40 52-60 0-22-11-34-33-34M21 0 8 24c111 35 210 95 297 180 53-25 79-44 79-58 0-7-10-11-30-11-1 0-10 1-26 2C242 75 140 29 21 0m241 321v575c66-2 99-10 99-25 0-8-13-18-41-28V321h-58M89 393v435c66-1 99-9 99-24 0-8-14-18-41-28V393H89M11 239 0 264h754l54 69c27-25 50-50 69-75l-12-19H11Z"/></symbol><symbol id="𭁉_J" viewBox="0 0 1000 1000" data-size="21"><path transform="matrix(1 0 0 -1 49 945)" d="M492 777h232l47 56c25-21 46-41 62-60l-13-21H492V651h188l31 39c38-30 57-48 57-53 0-4-3-8-9-12l-19-14c-1-27-2-57-5-90h59l41 56c18-16 37-36 58-60l-13-21H733c-5-52-14-91-26-118-22-51-62-76-122-75 0 15-7 25-22 31-13 6-39 12-77 18v28c46-5 83-7 113-7 29 0 50 13 61 39 8 18 14 46 19 84H357l-10 25h334c3 29 5 64 6 105H492v-46h-55v311c63-1 95-10 95-25 0-8-13-17-40-28v-61M835 15c-7 0-16 3-25 11-71 64-169 120-296 169l12 21c125-28 222-63 290-103 36-21 54-42 54-61 0-25-12-37-35-37M17 0 2 23c115 43 213 109 296 197 53-28 79-48 79-61 0-9-11-13-32-13-9 0-16 0-22 1C236 82 134 33 17 0M9 255l-9 25h787l51 63c25-23 46-45 64-67l-10-21H9m247 125v431c63-1 95-9 95-25 0-8-13-17-40-28V380h-55m-156-60v561c64-1 95-9 95-25 0-8-13-17-40-28V320h-55Z"/></symbol><symbol id="𭁊_G" viewBox="0 0 1000 1000" data-size="21"><path transform="matrix(1 0 0 -1 42 966)" d="m200 417-2 12c77 25 131 49 162 72 45 31 82 71 112 120 28 47 42 77 43 90 0 11-3 20-10 28l8 8 84-38c3-3 4-6 3-7 0-1-2-2-5-2-13-2-26-7-38-16l-1-2c24-37 47-68 70-93 31-32 54-53 70-64 13-10 33-21 60-33 26-12 49-20 68-23 30-5 61-9 92-11v-15c-27-2-48-4-63-7-15-1-26-10-31-27-38 11-74 26-109 46-34 21-66 49-97 85-25 31-49 70-71 119-41-83-89-141-143-173-55-33-123-56-202-69m223 514 83-38c3-3 4-5 4-7-1-2-3-3-6-4-10-2-20-6-30-12-4-6-9-15-16-28-11-20-20-34-26-43h344l32 36 62-60c4-6 0-9-11-8-7-1-15-2-24-5-5 0-18-9-40-26-7-5-22-19-45-41-21-19-36-33-45-40l-14 11 89 113H419c-11-16-23-31-34-46-30-40-72-79-127-118l-10 10c42 46 77 88 105 126 21 33 39 63 52 90 13 30 20 47 21 51 2 8-2 19-11 32l8 7m100-571 6 12c118-62 212-137 283-225 34-44 51-80 51-109-1-18-10-27-27-28-13 0-23 12-30 36-9 27-32 66-69 116-49 67-121 133-214 198m-128-32c3-2 4-5 2-9-2-3-5-5-10-4-20-1-35-7-44-18-42-56-86-106-132-150C162 97 95 48 10 0L0 11c128 90 223 186 286 289 14 21 22 37 24 50 0 5-4 11-11 18l9 11 87-51M293 848l12-9-94-142c-45-66-70-103-75-112-12-19-14-51-6-98s0-72-24-74c-23-2-32 19-26 62 7 45 9 71 5 79-10 11-34 19-71 24l3 18c47-11 81-1 104 30 53 68 111 142 172 222M22 884l4 14c68-13 112-35 133-65 22-29 25-50 9-63-15-13-27-10-34 9-8 20-19 38-34 55-16 18-42 35-78 50Z"/></symbol><symbol id="𭁋_K" viewBox="0 0 1000 1000" data-size="21"><path transform="matrix(1 0 0 -1 53 934)" d="M835 337c6-8 9-14 9-20 0-9-12-13-36-11V129c0-33-2-56-6-67-4-14-13-24-28-30L720 9c-9-3-16-4-21-4-4 0-7 2-7 6 0 1 1 4 1 9 2 4 2 8 2 10 0 9-4 15-13 19l-98 29 3 8 121-17c5 0 10-1 16-1 26 0 39 20 39 58l3 34c-23 1-35 2-36 2-8-1-15-5-19-15-5-9-9-13-14-13-7 0-21 6-42 17-82 43-148 94-196 154-22-47-64-87-126-121s-125-54-190-59l-6 12c56 6 111 27 167 64 56 38 93 80 113 126H123V69c0-35 1-52 2-48-3-7-10-13-23-17-8-3-12-4-15-4s-6 2-8 6c-1 3-1 10 0 21 1 17 1 30 1 39l-6 317 61-36h295c4 19 9 44 15 77l-15 20 21 25c11 9 16 13 18 13s8-4 17-13l35-33c8-7 12-12 12-17 0-10-13-16-40-17 0-3-5-21-14-55h249l26 27c10 9 15 14 17 14s9-5 19-13l45-38M677 681c9-7 13-13 13-18 0-8-10-12-30-12 0-39-5-71-14-94-13-28-34-48-63-60l-30-14c-7-3-13-4-16-4-6 0-9 5-11 17-1 12-6 21-15 25l-81 14 3 9 105-7c53-4 80 40 79 132H391c-16-53-56-102-121-148-56-40-120-66-192-81l-4 11c72 21 132 53 180 95s78 83 91 123H215v20h398l12 17c4 6 7 9 8 9 4 0 11-5 20-14l24-20m86-354H472c26-36 65-69 119-99s112-50 175-58l-3 157m127 302c-6 1-10 1-14 1-13 0-22-5-25-15-6-12-11-18-15-18-7 0-19 4-34 12-45 23-85 51-120 87-39 39-65 77-78 114H354v20h231l19 24c8 9 12 13 13 13 4 0 11-4 20-13l25-25c7-6 11-12 11-16 0-8-13-12-40-13 16-35 47-67 93-98 51-35 107-56 169-61l-5-12M306 807c17-9 26-16 26-22s-13-9-40-11c-31-44-75-86-132-126-49-35-100-64-154-86l-6 11c56 26 107 61 154 104 51 46 89 95 116 147l36-17Z"/></symbol><symbol id="𭁌_G" viewBox="0 0 1000 1000" data-size="21"><path transform="matrix(1 0 0 -1 18 979)" d="M869 487V257c1-67-2-113-10-138-7-25-19-46-36-63-17-16-50-29-101-40 2 25-13 43-44 52-13 5-38 12-77 20l4 16c69-12 109-18 121-18 12-1 25 0 40 2s28 13 41 32c13 18 19 57 19 116v262H625c0-5 0-12-1-21 0-9 0-15-1-20-4-95-25-182-63-260C523 122 457 58 364 7l-8 14c77 51 132 111 165 182s53 149 58 236c4 87 6 178 5 273h-70c-18 1-33-3-44-12l-33 32h423l31 39 67-49c5-3 7-6 6-8-1-1-5-2-12-2H629c0-47 0-85-1-112 0-31-1-58-2-82h184l31 37 47-37c6-4 9-7 9-10s-3-6-9-8l-19-13M195 958l87-35c9-3 11-7 6-10-14-5-24-12-29-21V590h74l31 39 67-49c5-3 8-6 7-8-1-1-6-2-13-2H259V375h125l31 39 67-49c5-3 7-6 6-8-1-1-5-2-12-2H259V139l2-94c1-24-16-39-52-45 3 25 6 87 7 185v170H78c-18 1-33-4-44-13L0 375h216v195h-97c-17 1-31-3-44-12l-34 32h175v312c1 10-9 25-30 45l9 11m174-100 74-41c11-7 14-11 7-14-15 1-29-4-42-15-36-67-70-125-102-172h-17l37 82c31 76 46 118 45 126-1 9-5 18-10 27l8 7m202 85 9 12c52-29 86-52 102-67 18-17 31-36 39-58 11-40 3-60-24-61-11 1-18 12-20 31-2 20-10 41-23 62-17 24-44 51-83 81M33 825l9 9c67-51 105-98 114-141 6-37-2-57-23-59-9 1-15 11-17 32-1 20-7 41-16 63-7 19-30 51-67 96Z"/></symbol><symbol id="𭁍_G" viewBox="0 0 1000 1000" data-size="21"><path transform="matrix(1 0 0 -1 31 976)" d="m644 705 83-34c9-3 11-7 6-10-14-6-24-13-30-21V529h124l27 42 50-41c6-4 9-8 9-11s-3-6-9-8l-19-12V221c0-17-4-32-12-46-7-14-32-24-74-31 0 21-6 34-19 40-9 5-27 11-56 18l2 14c45-6 73-9 85-8 11 1 20 3 26 7 5 4 7 27 7 70v224H703V141l3-96c0-13-5-23-14-30-10-6-23-11-40-15 4 37 6 100 6 187v322H522V186c0-13-4-23-12-30-9-7-21-12-36-15 3 26 5 78 7 156v177c-37-43-77-81-119-113l-10 10c41 41 83 95 124 160-3 9-8 18-13 26l15 12 12-14c39 69 67 136 85 201H474c-18 0-33-4-44-12l-33 32h184c1 1 1 2 1 3 1 1 1 2 1 3 25 81 35 125 32 134s-9 17-20 25l9 10 81-30c7-3 11-5 11-7 1-2-2-4-9-7-12-2-21-6-26-13-10-42-21-81-34-118h213l33 42 57-48c7-5 9-9 7-12-2-2-8-3-18-2H620c-26-83-60-158-101-227h139v121c1 13-7 28-23 43l9 12M242 391l11 9c36-42 63-76 80-102 14-20 27-47 39-82 10-29 13-53 10-70-3-19-12-28-26-28-13 1-21 18-23 51-1 17-5 34-10 52-10-2-28-5-54-10-29-5-52-9-69-12-65-13-106-22-121-29-6-4-14-11-24-22l-30 60c15 0 30 4 44 11 46 100 84 214 115 343 1 14-4 27-14 38l8 7 83-31c4-1 6-3 6-5-1-2-3-4-7-5-15-3-26-10-34-21-35-113-79-223-132-330 117 13 192 21 223 26v2c-1 2-2 5-3 10-2 8-4 14-6 18-11 29-33 69-66 120M133 899l79-31c3-3 5-5 5-6s-2-2-5-3c-12-2-22-7-30-16C130 670 73 544 10 463l-10 7c33 69 59 132 79 187s35 101 45 140c10 40 14 63 13 68-1 7-5 16-12 26l8 8m101-16 10 7c39-47 72-92 97-136 23-39 40-80 51-123 10-40 14-68 11-83s-11-24-24-25c-13-2-21 19-25 64-4 42-17 89-40 140-23 49-49 101-80 156Z"/></symbol><symbol id="𭁎_S" viewBox="0 0 1000 1000" data-size="21"><path transform="matrix(1 0 0 -1 37 928)" d="m357 94-5 27-2 9-52-25-131-54-80-30-2-1-7-20-14 12-1 9-1 1-2 7-1 4-1 3-1 3v3l-2 4-1 5-2 5v3l-1 4-1 2-1 5h-1v3l22 5 44 10 59 294 16 95 10 58 61-22 12-13-17-7-30-123-40-139-31-88-20-50 154 39 58 14-8 32-16 57-28 89-9 30 9 5 19-27 16-26 29-56 27-57 21-56 19-58-5-23-20-14-23 4-14 19-6 29m27-82v21h97v809l64-31h220l32 26 57-47-26-21V33h24l32 37 42-37V12H384M48 73l16-61-27 58 11 3m717 205H545V33h220v245m0 256H545V299h220v235M147 803l59-23 14-13-19-6-9-33-14-52-16-49-37-92-42-82-23-38-25-35-27-32-8 6 35 75 33 81 30 87 13 47 12 47 24 112m252-372-21 37-21 39-18 41-17 44-14 48-14 48-12 53-9 56-5 57 8 1 37-106 36-95 18-43 21-41 20-36 23-34 22-31 24-28 2-3-56-41-24 34m366 359H545V555h220v235Z"/></symbol><symbol id="𭁏_S" viewBox="0 0 1000 1000" data-size="21"><path transform="matrix(1 0 0 -1 45 964)" d="m422 352 63-11 16-11-16-9V193h284l52 53 64-53v-20H485V31L422 0v173H13v20h191l58 77 31 45 14 25 6 9 48-41 6-18-21 2-25-24-29-27-32-24-34-24h196v159m-220 4v-62l-63-32v399l63-31h493l32 26 57-48-25-20V325l-64-31v62H202m215 126H202V378h215v104m278 0H480V378h215v104M417 608H202V504h215v104m278 0H480V504h215v104M198 895l59-28 12-13-20-6-7-18-17-35-20-34-21-32-24-31-26-28-30-26-30-25-33-21-36-19-5 8 56 53 48 55 21 30 18 30 16 31 15 32 13 34 9 34 2 9m615-279-34 20-32 21-30 24-27 25-25 27-21 29-19 31-16 32-8 30H271v21h251l52 53 64-53v-21h-25l37-44 23-25 24-22 52-40 29-18 31-16 33-15 68-27-59-50-38 18Z"/></symbol><symbol id="𭁐_J" viewBox="0 0 1000 1000" data-size="21"><path transform="matrix(1 0 0 -1 53 956)" d="M562 280V0h-58v306H370V0h-59v237c-44-48-92-89-145-124-38-24-88-51-151-82L0 53c122 72 219 156 292 253H111l-10 25h210v89H10L0 445h311v79H122l-9 25h198v98H135l-9 25h577l50 57c31-25 53-46 67-64l-10-18H562v-98h146l37 46c40-31 60-51 60-60 0-5-3-9-9-13l-23-16V267h-56v39H575c77-77 183-142 319-194-20-16-36-36-47-60-119 64-214 140-285 228m-192 51h134v89H370v-89m192 0h155v89H562v-89M370 445h134v79H370v-79m192 0h155v79H562v-79M370 549h134v98H370v-98M197 787h550l54 63c24-20 49-42 74-68l-12-20H182c-38-61-93-122-163-183L1 595c46 52 83 102 110 150 30 50 54 106 72 167 61-13 92-27 92-42 0-10-15-16-44-20-8-17-19-38-34-63Z"/></symbol><symbol id="𭁑_G" viewBox="0 0 1000 1000" data-size="21"><path transform="matrix(1 0 0 -1 24 974)" d="m166 947 92-34c3-1 5-2 5-4s-2-4-5-5c-13-4-23-12-30-24V728c0-41 0-82-1-122h53l32 40 66-50c5-3 7-6 6-8-1-1-4-2-11-2H227v-86c0-39-1-73-4-104h84l33 39 66-49c5-3 7-6 6-8-1-1-5-2-12-2H222C214 205 143 80 8 0L0 10c118 100 178 222 180 366H84c-19 0-34-4-44-12L7 396h174c1 23 2 48 3 75 1 13 1 28 1 45v70h-77c-19 0-33-4-44-12l-33 32h154v294c-4 13-13 25-26 35l7 12m153-83 63-32c10-5 12-10 7-14-15-1-25-7-30-16-31-57-63-115-98-175l-15 7 47 104c17 40 26 71 27 92-1 5-3 14-8 27l7 7M29 822l7 9c24-18 45-37 62-56 15-18 25-37 30-58 5-19 6-34 3-45s-10-17-19-16c-11 2-18 13-21 34-2 17-7 38-16 63-10 21-25 44-46 69M503 89h201v719h-72c-18 1-33-4-44-13l-34 33h270l31 39 66-49c5-3 8-6 7-8-1-1-6-2-13-2H749V89h98l31 38 67-48c5-3 7-6 6-8-1-1-5-2-12-2H580c-17 1-32-4-44-13l-33 33m89 570 16-4-49-165c-22-76-42-140-61-192-13-36-21-66-24-90-3-26-3-54 0-85 6-58-4-88-29-91-20 0-26 28-18 84 7 56 7 88-1 97-12 11-38 18-77 19v18c33 0 54 1 65 2 13 1 22 4 25 8 11 15 22 35 33 58 25 61 65 175 120 341M405 907l6 11c51-26 85-54 102-85 17-37 15-60-8-67-10-1-17 8-20 25s-10 34-21 52c-8 16-28 37-59 64m-26-267 5 11c47-21 77-46 92-77 16-35 13-56-10-65-9-2-15 5-17 22-1 16-8 33-19 50-12 19-29 39-51 59Z"/></symbol><symbol id="𭁒_G" viewBox="0 0 1000 1000" data-size="21"><path transform="matrix(1 0 0 -1 24 969)" d="m114 912 37-33h273l28 29 40-40c4-4 6-7 5-10s-5-5-11-6l-12-9V654l4-65c1-12-2-21-8-28-6-6-19-10-39-12v41H158v-16c-7-21-23-33-49-35 3 34 5 67 6 98v231c-3 15-7 26-12 33l11 11m704-31c-1 15-9 30-25 45l8 11 86-37c6-3 9-5 10-7 1-3 0-5-4-7-11-3-21-9-30-16V489c-1-23-7-41-18-54-10-13-31-23-64-30-3 17-12 29-27 37s-43 18-85 29l4 16 41-10c43-9 71-11 84-6 12 5 19 22 20 51v359M951 54l-1-19c-35 0-58-1-69-3-10-2-21-10-32-23-79 42-142 98-190 168-34 49-67 119-99 210-3 9-6 15-7 20l4 6 68-16c13-5 10-13-10-24-1-1-2-1-3-1-5-1-6-5-4-12 37-119 109-209 217-270 27-13 65-25 116-34 5-1 8-1 10-2M418 347c3-3 4-5 3-6 0-1-2-2-5-3-16-3-30-10-43-20C299 177 177 71 6 0L0 14c89 53 154 101 196 143s76 83 101 122c25 42 37 67 36 74 0 11-4 22-11 34l8 8 88-48M158 772v-72h273v72H158m0-90v-72h273v72H158m0 177v-69h273v69H158m456-5 85-35c9-3 11-7 6-10-14-5-24-12-29-21V660l2-61c2-24-15-39-50-45 3 25 6 62 7 112v132c1 10-9 25-30 45l9 11M198 556l59-34c5-2 7-5 8-9 0-3-2-6-7-7-20-1-37-9-52-24-43-45-98-82-163-113l-4 11c13 8 29 20 49 36 11 8 19 14 24 18l11 11c22 21 37 35 44 44 17 19 25 32 26 38 2 7 1 15-2 23v1l7 5m132-28 7 12c42-11 70-20 84-28 18-7 34-18 49-33 13-12 19-24 20-37 2-12-2-20-11-24-11-5-20 2-29 20-9 16-23 32-43 47-17 13-43 28-77 43Z"/></symbol><symbol id="𭁓_G" viewBox="0 0 1000 1000" data-size="21"><path transform="matrix(1 0 0 -1 24 974)" d="m635 948 85-35c9-3 11-7 6-11-13-4-22-11-28-21V748h149l30 34 68-44c5-3 7-6 6-8-1-1-5-2-12-2H698V588h141l27 33 46-31c5-4 8-7 8-10s-3-6-8-8l-20-13V72c0-17-4-32-12-43-8-12-31-21-69-27 0 29-29 47-88 52v16c53-7 86-11 99-11 23-5 33 20 31 76v145H698V144l4-85c1-23-16-38-53-45 3 25 5 83 6 173v93H502V136l2-91c1-23-15-38-48-45 3 26 6 86 7 181v396c-5 15-12 27-21 36l16 14 36-39h161v140H479c-17 1-32-4-44-13l-33 33h253v143c1 11-8 26-29 45l9 12M244 400l14 6c28-33 55-67 80-102 16-26 29-53 39-82s13-53 10-70c-3-18-12-27-26-28-13 1-21 18-23 51-1 16-4 32-8 47-7-1-18-3-35-6-35-6-64-11-87-15-73-15-114-25-121-29-6-4-14-11-24-22l-30 60c15 0 30 4 44 11 51 105 91 216 120 331 1 14-4 27-14 38l8 7 83-31c3-3 5-6 5-7s-2-2-6-3c-16-4-27-11-34-21-35-103-80-209-137-318 99 10 172 19 221 26l-1 6c-1 2-2 5-3 8-3 9-5 15-6 20-17 37-40 78-69 123m454 28V298h155v130H698m-43 0H502V298h153v130m43 140V446h155v122H698m-196 0V446h153v122H502M138 870l78-33c3-1 5-3 4-5 0-2-2-3-5-4-12-1-22-7-30-16C133 641 74 515 9 434l-9 7c33 70 60 132 80 187 21 54 37 100 47 138 9 31 13 54 14 70-1 8-5 16-11 24l8 10m103-16 10 7c39-47 71-92 98-135 27-49 45-90 53-122 11-40 15-68 12-83-3-16-11-24-23-25-13-3-22 19-27 64-4 42-18 88-42 139-22 48-49 100-81 155m526 56 6 10c41-13 70-32 88-58 19-36 17-58-6-65-11-1-17 5-20 19-3 13-8 28-17 44-10 17-27 33-51 50Z"/></symbol><symbol id="𭁔_J" viewBox="0 0 1000 1000" data-size="21"><path transform="matrix(1 0 0 -1 55 952)" d="M691 334H464v-77h298l57 70c27-25 50-51 71-77l-10-18H10L0 257h409v77H188v-38h-57v325c31-13 54-24 68-32h482l38 46c42-31 63-51 63-60 0-4-3-8-9-12l-26-17V300h-56v34m0 25v94H464v-94h227m0 119v86H464v-86h227M409 359v94H188v-94h221m0 119v86H188v-86h221m136 181H327v-30h-56v149H35l-9 25h245v100c67-2 100-10 100-24 0-8-15-18-44-29v-47h218v101c63-3 95-11 95-24 0-8-13-17-39-27v-50h141l50 67c28-25 50-49 67-71l-13-21H601V634h-56v25m0 25v94H327v-94h218M814 13c-10 0-20 5-29 13-61 56-149 105-262 146l14 22c100-21 180-47 238-77 47-24 70-47 70-69 0-23-10-35-31-35M40 0 25 22c121 52 216 112 283 181 49-29 74-49 74-61 0-8-9-12-27-12-1 0-9 1-26 2C259 83 163 39 40 0Z"/></symbol><symbol id="𭁕_J" viewBox="0 0 1000 1000" data-size="21"><path transform="matrix(1 0 0 -1 37 949)" d="M416 625v-38h-54v311c64-3 96-11 96-25 0-9-14-18-42-28v-74h91l43 58c23-22 42-43 58-64l-12-19H416v-96h91l29 36c35-28 53-46 53-53 0-4-3-8-9-12l-17-11c-1-115-9-192-25-233-19-50-52-75-99-75 0 14-6 25-17 31s-32 12-62 17v26c36-3 63-5 83-5 25 0 42 13 51 40 12 33 18 104 18 214h-96M119 287v318c-29-53-63-102-99-147L0 473c72 114 126 254 162 420 60-13 90-26 90-39 0-9-13-16-39-22-15-53-34-104-56-153 36-7 54-16 54-26 0-9-13-17-39-25V287h575v162H630l-10 25h127v149H631l-11 25h127v148H618l-13 25h132l39 49c42-33 63-54 63-63 0-5-3-9-9-13l-24-16V287h34l40 74c19-28 35-55 47-80l-11-19H8l-8 25h119m180 216h74l35 53c19-20 35-40 49-60l-10-18H299v-94h-54v367c60-2 90-10 90-23 0-8-12-17-36-26V503M847 10c-9 0-22 8-39 25-62 58-152 114-270 167l13 22c115-33 205-70 270-111 39-24 58-46 58-67 0-24-11-36-32-36M18 0 3 22c116 49 216 119 300 210 51-29 77-51 77-64 0-8-9-12-27-12-7 0-16 1-28 3C236 87 134 34 18 0Z"/></symbol><symbol id="𭁖_G" viewBox="0 0 1000 1000" data-size="21"><path transform="matrix(1 0 0 -1 19 976)" d="m267 523 11 8c47-63 87-133 118-211 3-9 8-22 15-40 16-43 26-73 31-91l228 160v201H503c-17 0-32-4-44-13l-33 33h300l25 113v1H565l-28-33-43 43c11 5 21 13 29 25l66 181c6 15 3 30-8 43l7 9 69-36c8-5 9-9 3-13-11-1-20-6-29-14l-21-52-1-1h163l27 38 47-39c4-3 6-6 7-8 0-2-2-3-6-4-15-5-24-14-27-25l-52-228h95l32 40 53-46c7-5 9-9 7-12-2-2-8-3-18-2H713v-90c5-17 10-33 16-49 8-27 18-52 29-75 6 7 15 16 28 28 17 18 30 31 37 39 19 19 31 33 35 42 3 7 2 15-2 24l10 7 58-49c5-5 7-8 6-11s-4-4-10-3c-17 1-31-3-44-10-15-11-52-39-110-84 6-13 13-25 20-36 22-37 46-67 71-90 30-27 65-45 104-52l-2-13c-20 2-36 1-47-3-12-3-23-10-32-21-46 37-81 77-104 118-25 41-46 89-63 145V87c-1-23-7-40-17-52-9-12-37-24-82-35-2 22-10 36-25 43-13 6-36 13-69 20l4 17 25-5c43-9 74-11 93-6 18 6 27 23 28 51v205l-91-76c-40-34-63-55-69-64-8-11-13-23-15-38l-53 40c1-4 2-8 3-11 8-40 10-68 7-83-4-15-13-23-26-24-14-1-22 21-24 65-2 39-14 92-36 159-30 94-63 171-99 230m515 297H603l-44-120h195l28 120M145 543l80-29c3-1 5-3 5-5s-2-3-5-4c-12-2-21-8-28-17C154 322 92 175 9 47l-9 6c33 71 66 153 98 246 18 55 32 102 41 141 7 32 10 55 11 69-2 7-6 16-13 25l8 9M9 658h340l40 48 73-54c7-5 9-9 8-11-2-3-8-4-19-3H86c-17 1-32-4-43-13L9 658m132 261 7 11c84-43 128-95 131-154-2-29-12-45-29-48-12 0-19 11-21 33-6 41-14 70-24 87-11 19-32 43-64 71m308-438 6 10c39-19 67-38 86-56 18-18 28-38 30-59 2-24-4-37-18-40-14-4-22 5-24 26-3 19-10 38-19 57-11 18-32 39-61 62Z"/></symbol><symbol id="𭁗_J" viewBox="0 0 1000 1000" data-size="21"><path transform="matrix(1 0 0 -1 43 950)" d="M467 200c-20-69-79-121-178-156C217 19 130 4 28 0L18 23c113 7 206 29 278 66 70 36 110 82 121 138H12L1 252h418v90H92l-11 25h638l47 50c26-21 46-40 61-58l-11-17H475v-90h319l49 54c26-21 48-41 64-62l-11-17H481c31-37 73-70 127-97 30 27 55 55 76 85 43-21 65-35 65-42 0-9-13-13-39-13-15-15-34-32-58-50 74-28 159-43 254-45-22-27-36-47-41-61-102 12-188 37-259 75-34-22-70-40-108-55l-16 17c32 17 62 37 90 59-42 27-77 60-105 100M209 626h485l28 32c-52 51-91 109-116 175H383l-12 24h222l35 42c37-29 56-48 56-56 0-4-4-8-11-10l-32-13c51-89 142-157 272-204-17-16-30-36-41-59-31 14-61 32-91 53l-25-21V422h-56v26H202v-30h-56v201c-43-36-87-65-133-88L0 549c120 84 206 185 256 304 56-20 84-36 84-49 0-8-14-12-42-12-31-52-73-101-124-148l35-18m-7-25V473h125v128H202m498-128v128H569V473h131M517 601H379V473h138v128M279 728h252l38 42c20-16 38-32 54-49l-10-18H289l-10 25Z"/></symbol><symbol id="𭁘_G" viewBox="0 0 1000 1000" data-size="21"><path transform="matrix(1 0 0 -1 32 974)" d="M837 539c-15 14-37 30-64 47l4 13c45-17 77-34 96-50 19-14 33-30 41-49 9-16 11-31 7-46-4-14-11-21-22-20-12 2-18 9-18 20-1 11-5 26-13 47-1 1-2 3-3 5l-192-18c-26-3-68-6-126-10-58-5-90-8-96-9-15-5-33-13-53-24l-32 59 257 12v122H479v-11c0-13-3-23-9-29s-18-11-35-14c3 24 5 51 7 82v129c1 7-5 18-18 32l11 16 36-35h152v88c1 11-7 24-24 41l8 10 78-33c9-3 11-7 6-11-12-3-21-9-27-17v-78h129l38 34 42-42c5-4 6-7 5-10s-4-6-11-7l-18-5v-68l6-71c-1-13-6-21-14-24-9-5-19-8-29-8v31H664V518l185 8-12 13m-695-56 2 13c31-7 56-10 74-10 19-1 37 3 52 12 16 9 27 30 34 62 3 13 4 25 4 34 1 8 0 21-1 38-1 12-3 24-6 35-1 6-3 11-4 16l-1 1c-22-28-56-60-103-96-51-37-113-69-187-96l-6 14c74 37 133 74 178 112 41 34 76 69 105 104l-2 6c-1 3-4 8-8 15-3 5-5 9-6 12-8 13-16 25-25 36-5-3-13-8-23-14-5-3-8-5-11-6-54-32-110-55-167-68l-1 14c51 20 99 44 145 73 6 3 14 9 24 16 5 3 9 6 12 8l-11 10c-23 22-58 43-103 62l8 12c55-21 92-38 111-53 2-2 5-5 9-8s7-6 8-7c5 5 13 11 23 19 11 9 18 15 23 19 23 23 37 37 41 43 3 7 4 15 1 25l9 4 55-40c5-9 4-14-4-15-13 2-27-3-44-15-23-21-50-42-80-63 9-10 18-21 26-32 49-67 66-142 50-227-11-56-47-98-107-126-3 27-34 47-94 61M13 306h810l36 46 68-51c7-5 9-8 8-11-2-3-8-4-17-4H90c-16 1-31-3-46-12l-31 32m651 484V656h148v134H664m-185 0V656h144v134H479M292 253l72-64c5-3 7-6 6-8 0-3-3-4-8-5-22 5-41 1-58-12C238 105 144 50 21 0l-2 14c97 55 164 101 203 137 39 34 61 56 65 66 4 11 3 20-3 28l8 8m276-31 4 13c78-25 139-54 183-86 46-35 74-64 84-85 12-25 12-42-1-53-12-11-29 0-52 32s-51 62-83 91c-33 29-78 58-135 88M351 415l2 13c35-2 64-7 88-15 20-6 36-15 48-26 14-11 21-24 22-38-1-19-9-29-23-31-7 0-14 6-20 17-20 41-59 67-117 80Z"/></symbol><symbol id="𭁙_G" viewBox="0 0 1000 1000" data-size="21"><path transform="matrix(1 0 0 -1 25 992)" d="m445 520 1-40v-1h416l28 34 60-55c1-3 1-6-1-7-1-1-4-1-9 0-26-2-54-18-85-49-7-7-12-13-16-17l-13 10 47 64H446v-10c-3-52-19-81-47-86-13-1-21 3-24 13-4 10-2 19 7 26H226c0-3 0-7-1-13-4-48-8-79-11-94C190 177 122 79 11 0L3 10c122 113 182 244 181 392H77c-19 0-34-4-44-12L0 422h185c0 8 0 19 1 34 1 47 1 89 1 125v30h-83c-19 0-33-4-44-12l-33 32h160v295c-4 13-13 25-26 35l7 12 92-34c3-2 5-4 5-5s-2-3-5-4c-13-4-23-12-30-24V753c0-42 0-83-1-122h55l32 40 66-50c5-3 7-6 6-8-1-1-4-2-11-2H229v-82c0-51-1-86-2-107h80l33 39 59-44c4 5 8 11 11 18 7 13 13 41 19 85h16m33 231 34-31h261l29 32 41-42c5-4 6-7 5-10s-4-6-11-7l-17-9v-62l4-46c1-21-13-31-41-32v35H522c-1-13-5-23-12-29-6-6-17-10-32-13v4c4 29 6 51 7 68v90c1 11-5 23-19 36l12 16m-29-400h314l31 39 67-49c5-3 7-6 6-8-1-1-5-2-12-2H684V101c0-22-5-39-15-52-9-12-36-23-79-33 3 30-33 51-109 64l4 18 38-10c82-23 122-8 120 45v198H526c-17 1-32-3-44-12l-33 32m73 349V599h261v101H522M396 827h431l32 38 66-49c5-3 8-6 7-7s-5-2-13-2H473c-17 0-32-4-44-13l-33 33m-78 61 68-30c10-7 12-12 7-14-15 0-26-6-32-17-16-31-42-79-78-144-9-15-15-26-19-33l-16 6 44 106c21 54 30 85 29 92-1 3-3 9-6 16-1 5-3 8-4 11l7 7M32 849l8 9c25-19 47-39 64-60 16-20 26-40 31-61 4-19 4-34 1-47-4-10-11-15-22-15-12 2-19 14-20 36-2 22-7 44-16 65-9 22-25 46-46 73m522 124 6 10c71-29 111-58 118-87 9-35 1-52-24-52-11 2-17 11-18 26-1 17-7 32-18 46-12 15-33 34-64 57Z"/></symbol><symbol id="𭁚_G" viewBox="0 0 1000 1000" data-size="21"><path transform="matrix(1 0 0 -1 12 980)" d="M889 468V125c1-42-2-71-11-87-8-18-30-31-67-38-1 21-12 36-33 43-21 6-50 14-88 24l2 16c71-15 115-22 131-21 15 1 23 18 23 49v101H579v-70l4-95c1-23-17-38-54-44 3 25 6 86 7 184v309c-3 14-10 26-21 35l16 14 40-43h260l31 38 47-40c5-4 8-8 8-11s-3-5-8-8l-20-13M274 959l80-33c9-3 11-7 6-10-11-3-21-9-28-18V707h20l32 35 58-46c5-3 8-5 7-7-1-1-6-2-13-2H332V419h56l31 39 67-49c5-3 7-6 6-8-1-1-5-2-12-2H84c-16 1-31-3-44-12L7 419h130v268h-21c-17 1-32-4-44-13l-33 33h98v197c1 11-7 25-24 41l8 10 80-33c9-3 11-7 6-10-13-3-22-9-29-18V707h113v201c1 10-7 24-25 41l8 10m305-477V362h267v120H579m0-136V228h267v118H579m240 574c3-1 4-3 3-4 0-1-1-3-4-4-11-1-22-7-34-17V777c23 9 47 21 73 35 6 3 11 6 14 7 29 16 43 26 42 31-1 2-1 5-1 8-1 3-1 6-1 8l5 6 53-48c5-3 7-6 7-9 0-2-2-4-7-5-21 4-52-2-95-19-8-3-14-6-18-7-17-7-41-15-72-26v-78c-1-27 2-42 8-47 6-11 25-17 58-18 14-1 27 0 38 2 15 3 23 13 26 32 3 23 4 55 4 96h12l4-41c4-39 15-61 33-67-13-28-25-44-36-48-10-7-35-10-75-9-26 0-45 1-58 4-27 5-43 15-49 29-6 9-9 29-8 60v238c-2 14-9 27-21 38l7 10 92-39M178 419h113v268H178V419m397 240c-43-20-69-32-76-37-11-6-21-17-32-34l-44 45 175 58v99h-88c-17 1-32-4-44-13l-33 33h165v92c1 9-8 24-29 45l8 12 87-36c5-1 7-3 8-5 1-1 1-3-2-5-13-5-23-12-29-21V661l2-56c2-23-15-37-52-43 3 20 5 55 6 106l-22-9M139 365l71-22c5-2 8-5 8-8s-3-5-8-6c-12-3-20-9-24-18-19-44-38-86-58-125C101 131 61 78 9 27l-9 9c44 60 76 112 95 157 24 55 40 97 47 127 1 15-2 27-9 36l6 9m147-28 10 11c52-53 90-104 115-154 23-41 34-73 33-95-1-29-9-43-26-44s-26 13-26 44c-1 19-7 46-19 79-17 51-46 104-87 159Z"/></symbol><symbol id="𭁛_G" viewBox="0 0 1000 1000" data-size="21"><path transform="matrix(1 0 0 -1 16 969)" d="m117 542 81-25c3-1 5-2 5-4s-2-4-5-5c-12-2-21-8-27-17C136 331 82 193 9 77l-9 6c25 57 51 131 79 222 15 49 27 95 36 137 5 30 7 53 8 68-3 8-7 16-14 23l8 9m116-6 12 8c45-63 77-127 97-192 1-3 3-8 5-15 21-61 34-103 37-126 6-34 7-61 3-80-5-15-13-23-26-24-15 2-22 24-21 65-2 43-12 95-29 154-18 77-44 147-78 210M9 636h291l36 41 66-47c7-5 9-8 8-11-2-2-8-3-19-3H86c-17 1-32-4-43-13L9 636m107 256 7 11c83-46 124-96 123-149-2-29-12-45-29-48-12 0-19 11-21 33-5 42-13 70-22 85-11 22-31 45-58 68m408-255-10 10c25 31 47 64 66 99 19 37 33 69 44 98 11 35 17 55 16 62s-5 15-11 25l8 6 77-33c1-3 2-5 1-6s-2-1-5-1c-14-2-24-10-31-23-1-2-2-5-4-9-9-23-16-39-21-50h163l28 34 59-49c3-3 5-5 4-7s-3-4-7-5c-8-1-15-3-21-7-7-6-18-17-31-34-21-35-50-69-87-102 20-15 39-26 57-33 25-11 48-18 69-22 22-5 47-9 75-11v-14c-22 0-38-1-47-4-11-5-20-13-27-24-42 13-79 31-110 52-14 7-29 18-46 33-62-47-138-82-229-103l-7 15c89 31 159 69 211 112-6 6-12 13-18 21-20 24-40 58-59 102-2-4-5-10-10-18-2-4-4-7-5-9-25-38-55-73-92-105M378 433l-32 31h95l34 36 43-44c5-4 7-7 6-10s-4-5-10-6l-20-7V132c2-1 5-2 9-3 2-1 3-1 4-2 18-8 34-17 49-27 3-2 6-5 11-9 13-11 25-20 36-26 25-14 60-21 103-21h187c27 1 52 1 75 2V32c-16 2-31 0-46-5-13-3-23-12-30-27L781 1c-85 0-140 7-165 20-27 13-54 32-81 57-28 26-51 34-68 24-30-17-53-50-69-99l-48 35c33 34 62 60 88 78 6 4 12 8 17 11v317h-41c-12 1-24-3-36-11m168 32h167v63c1 11-7 23-25 37l9 12 75-27c9-3 11-7 6-11-14-6-24-13-30-20v-54h94l27 36 56-43c5-2 7-4 6-6s-5-3-12-3H748v-94h77l25 36 58-43c5-2 7-4 6-6s-5-3-12-3H748v-97h115l25 32 57-39c5-3 7-5 6-7-1-1-5-2-12-2H748v-58l4-56c0-13-4-23-11-30-8-6-19-11-34-14 2 15 4 52 5 112 1 11 1 20 1 26v20H604c-17 0-32-4-44-13l-33 29h186v97h-69c-17 0-32-5-45-14l-33 30h147v94h-88c-19 0-34-4-45-12l-34 28m148 246c11-15 24-29 39-43 36 35 68 77 97 127H644c0-2-1-3-2-4 20-35 37-62 52-80M370 840l8 12c4-3 10-7 17-12 29-21 48-35 56-43 17-15 28-31 35-47 8-16 10-30 5-42-5-11-12-17-22-16-12-1-19 9-22 30-4 20-10 38-19 53-19 24-38 46-58 65Z"/></symbol><symbol id="𭁜_G" viewBox="0 0 1000 1000" data-size="21"><path transform="matrix(1 0 0 -1 21 971)" d="m475 942 76-33c8-3 10-7 5-11-15-7-25-14-29-20V613h27l26 33 50-38c7-5 10-9 8-12-1-3-7-4-17-3h-94v-50c20-15 38-32 55-51 29-33 42-61 41-83-1-19-9-28-24-29-7 0-13 9-17 27-4 22-13 45-28 70-6 11-15 23-27 38V336l4-95c3-13-1-23-11-30s-22-12-35-14c3 20 5 82 7 186v120c-22-69-55-140-98-212l-12 10V161h160l20 35 63-43c13 34 23 70 29 108 14 93 21 180 21 259v148c0 41 0 81 1 118-1 15-9 31-22 47l9 8 42-30c47 13 92 28 133 46 7 3 16 9 25 16 6 5 7 13 4 25l9 6 51-42c7-5 10-10 11-13 0-4-3-6-9-5-19 2-44-3-77-15-36-14-82-26-138-35V670c0-32 0-60-1-85h152l24 34 63-42c5-3 7-6 6-8s-5-3-12-3H846V99l2-56c3-24-12-38-44-43 3 25 6 73 7 145v421h-98v-50c-1-88-11-181-30-279-19-97-61-175-125-234l-14 10c32 40 57 83 76 128H403l-41-45-48 45c18 13 28 26 31 40v649c0 15-8 27-23 36l8 11 79-30c6-6 6-10-1-13-1-1-3-2-5-3-10-3-17-8-21-13V304c47 101 78 198 93 289h-17c-16 0-30-4-43-13l-32 33h109v275c1 11-7 25-25 42l8 12M182 402l12 9c52-62 85-121 99-178 10-31 13-54 9-69-3-17-12-26-25-25-14 0-21 16-22 48 0 3 0 8-1 15 0 7 0 13-1 16-2-1-5-1-8-2-16-4-36-8-60-12-73-15-114-25-121-29-6-4-14-11-24-22l-30 60c15 0 30 4 44 11 30 79 59 186 86 319 1 14-4 27-14 38l8 7 79-31c4-1 6-3 6-5-1-2-3-4-7-5-19-4-31-11-34-21-6-20-14-48-24-84-26-95-51-169-75-222 47 5 94 10 143 17 12 1 21 2 27 3-5 43-27 97-67 162M98 831l71-26c3-1 5-3 5-5s-2-3-5-4c-12-2-21-8-27-19C105 606 60 484 8 411l-8 6c31 85 52 147 61 187 17 56 28 98 32 126 8 42 11 65 10 69-1 6-5 14-12 23l7 9m69 28 11 7c77-111 121-200 132-269 7-41 9-69 5-83-4-15-12-23-24-23-13-1-21 20-23 65 1 69-32 170-101 303m413-21 59-35c10-7 12-12 6-15-16-2-27-10-33-23-3-5-6-12-11-22-29-59-48-97-59-114l-12 6 20 52c20 53 31 92 34 116-2 9-5 18-10 28l6 7m-180-28 9 9c20-23 36-48 49-74 13-27 20-48 20-63-1-27-6-40-17-41-12 0-18 11-19 33-3 49-17 95-42 136Z"/></symbol><symbol id="𭁝_G" viewBox="0 0 1000 1000" data-size="21"><path transform="matrix(1 0 0 -1 29 983)" d="M149 892c-12 1-24-4-37-14l-35 30h279l37 36 39-39c5-5 5-9 0-12-2-2-3-3-4-3l-15-10v-62h16l24 26 48-35c7-5 9-8 8-8 0-1-6-1-18-1h-78v-33l4-41c-1-28-16-44-45-46v29H220c-8-28-18-53-31-75h180l33 33 44-38c5-4 5-9-2-13-2-2-3-3-4-3l-12-9v-41l5-75c1-20-13-32-44-35v59H188v-33c2-24-13-39-46-43 1 6 2 14 3 24 1 8 3 20 4 35v85c-33-34-80-69-141-103l-6 11c101 74 161 148 179 221h-35c-17 0-32-4-44-13l-33 29h117c5 25 9 50 11 75H77c-14 0-29-4-46-14L0 818h198c1 22 2 47 1 74h-50m665-657 38 46 76-51c7-6 9-9 7-11-3-3-9-4-20-4H95c-17 0-33-4-46-13l-31 33h270v114H168c-18 0-33-4-46-13l-32 33h198v63c1 10-7 23-25 41l8 10 80-33c9-4 11-7 6-11-11-2-20-8-26-17v-53h254v59c1 10-7 24-24 41l8 11 80-34c8-4 10-7 6-10-11-3-20-9-27-18v-49h103l36 43 72-49c7-5 9-8 7-10-3-3-9-4-20-4H628V235h186m-10 734 63-37c4-3 6-6 6-10s-2-5-6-5c-21 0-37-6-48-17-20-21-44-44-72-69h68l29 37 64-43c7-4 10-7 8-8-1-2-8-3-19-2H717v-94h75l32 37 61-43c7-4 9-7 8-8-2-2-8-3-19-2H717V605h119l35 39 61-45c7-4 10-7 9-8-2-2-8-3-19-2H717v-39l2-57c1-25-17-40-54-45 3 25 6 63 7 113v28H539c-18 0-33-4-44-13l-34 29h211v100h-81c-17 0-32-4-44-13l-33 29h158v94h-98c-16 0-31-4-44-12l-33 28h220c31 32 60 69 85 110 2 4 0 11-5 22l7 6M331 349V235h254v114H331M188 616v-86h201v86H188m115-410 71-35c11-6 15-10 14-13-2-3-10-5-24-6-13-2-27-8-44-20-23-16-51-33-83-51C194 55 132 29 51 3l-5 12c140 71 226 125 258 162 2 6 0 13-6 19l5 10m268-27 5 15c66-20 114-37 145-53 35-18 62-36 81-52 20-17 32-34 37-52 4-19-1-30-16-34-13-3-26 6-39 26s-35 43-66 69c-28 24-77 51-147 81M372 725v75H235c-1-27-5-52-11-75h148m0 167H239c0-27-1-52-2-74h135v74m217 45c44-26 65-51 64-76-2-14-9-22-21-24-11-1-18 6-23 21-5 18-12 32-21 42-13 15-34 31-63 48l5 12c22-6 42-13 59-23Z"/></symbol><symbol id="𭁞_S" viewBox="0 0 1000 1000" data-size="21"><path transform="matrix(1 0 0 -1 26 959)" d="m813 93 52-35-8-11-7-9-10-9-10-8-11-6-11-5-12-5-13-2-12-2-13-1v31L653 47v16h113l6 1 12 3 5 3 6 3 5 4 4 4 5 6 4 6m-657 61-29-43-16-19-36-39-19-19-22-16L12 2 6 9l44 65 25 42 22 42 17 43 11 28 56-30 9-15-19-4-15-26m709-96-28 18-7 5-15 11-2 1 6 11 6 14 6 19 5 21 4 25 4 27 2 31 1 33 1 25-1 42H564l-16-23-42-50 31-5 16-11-16-10V110h142l52 53 64-53V89H537l-62-31v178l-20-16-27-21-30-18-5 7 62 78 19 25 34 54 14 27 13 28 12 30 7 16h-22l-63-31v304l63-31h247l32 26 57-47-26-21V436l-63-32v42H597l19-10 12-16-21-4-21-42-8-12h269l32 27 58-48-27-16v-52l-2-36-2-33-4-31-5-27-5-26-7-23-9-21-11-18M320 95l-6 13-7 15-8 14-9 13-20 27-24 25-15 12 5 9 35-15 17-9 17-10 14-10 15-13 14-13 24-30 11-16 1-24-15-18-24-2-19 16-6 16m409 77-12 20-15 20-16 20-10 10-3 4-16-28-14-20-15-19-18-17-18-16-21-12-20-12-6 8 15 16 13 19 24 36 9 20 9 19 7 21 6 20 5 23 3 18 2 15 60-23 14-13-21-7-1-6-9-24-1-2 7-2 27-11 13-7 24-15 12-8 10-10 11-10 5-22-12-22-23-5-21 12-4 10M0 257v21h83v467H9v22h74v141l63-11 16-9-16-10V767h128v141l64-11 16-9-16-10V767h28l24 31 31-31v-22h-83V278h13l33 37 42-37v-21H0m274 163H146V278h128v142m0 163H146V441h128v142m505-26H532v-90h247v90m0 110H532v-90h247v90m-505 78H146V604h128v141m447 174 63-11 16-11-16-8v-70h68l43 47 52-47v-21H784v-73l-63-32v105H605v-73l-62-32v105H380v21h163v100l62-11 16-11-16-8v-70h116v100Z"/></symbol><symbol id="𭁟_S" viewBox="0 0 1000 1000" data-size="21"><path transform="matrix(1 0 0 -1 98 948)" d="m0 896 63-31h651l32 27 58-47-27-22V53l-63-32v654H362V92l-62-31v667l62-33h350l2 4v146H63V31L0 0v896Z"/></symbol><symbol id="𭁠_J" viewBox="0 0 1000 1000" data-size="21"><path transform="matrix(1 0 0 -1 49 923)" d="M199 800h487l37 47c43-35 65-58 65-68 0-4-2-7-7-10l-27-16V584h44l44 58c26-23 46-45 61-65l-10-18H754V360h44l44 58c25-23 46-45 61-65l-10-18H754V86c0-56-34-83-103-82-1 21-12 36-33 44-18 7-52 15-103 23v27c44-6 93-9 146-9 14 0 24 3 28 8 5 5 7 14 7 27v211H467V51h-57v284H187V0h-59v335H10L0 360h128v199H10L0 584h128v250c32-14 56-26 71-34m-12-25V584h223v191H187m280 0V584h229v191H467m229-216H467V360h229v199M410 360v199H187V360h223Z"/></symbol><symbol id="𭁡_J" viewBox="0 0 1000 1000" data-size="21"><path transform="matrix(1 0 0 -1 48 939)" d="M401 656h286l37 47c43-35 65-58 65-68 0-4-2-7-7-10l-27-16V480h44l44 58c25-23 46-45 61-65l-10-18H755V296h44l44 58c25-23 46-45 61-65l-10-18H755V86c0-56-34-83-103-82-1 21-12 36-33 44-18 7-52 15-103 23v27c44-6 92-9 146-9 14 0 24 3 28 8 5 5 7 14 7 27v147H188V0h-59v271H11L1 296h128v159H11L1 480h128v210c32-14 56-25 71-34h166c8 29 15 58 21 87 1 6 2 14 4 27 2 10 3 18 4 23H12L0 818h780l52 61c28-24 51-46 70-68l-10-18H474c-24-51-48-96-73-137m-213-25V480h509v151H188m509-176H188V296h509v159Z"/></symbol><symbol id="𭁢_J" viewBox="0 0 1000 1000" data-size="21"><path transform="matrix(1 0 0 -1 49 941)" d="M410 590v134H12L0 749h410v134c68-2 101-10 101-24 0-8-14-17-42-26v-84h311l52 61c28-24 51-46 70-68l-10-18H469V590h248l42 50c42-34 63-55 63-65 0-4-3-9-9-12l-26-18V84c0-56-35-84-104-83-1 20-12 33-31 41-16 6-50 13-100 21v27c45-5 89-8 131-8 29 0 44 11 44 32v451H469V46h-59v519H180V3h-59v621c25-10 49-21 72-34h217m93-227-10 25h112l44 58c25-23 46-45 61-65l-10-18H503m-292 0-10 25h88l44 58c25-23 46-45 61-65l-10-18H211Z"/></symbol><symbol id="𭁣_J" viewBox="0 0 1000 1000" data-size="21"><path transform="matrix(1 0 0 -1 48 939)" d="M468 636h87c27 50 47 100 61 148 58-16 88-29 88-41 0-9-14-14-42-15-19-30-44-61-73-92h98l37 47c43-35 65-58 65-68 0-4-2-7-7-10l-27-16V470h44l44 58c25-23 46-45 61-65l-10-18H755V296h44l44 58c25-23 46-45 61-65l-10-18H755V86c0-56-34-83-103-82-1 21-12 36-33 44-18 7-52 15-103 23v27c44-6 93-9 146-9 14 0 24 3 28 8 5 5 7 14 7 27v147H468V51h-57v220H188V0h-59v271H11L1 296h128v149H11L1 470h128v200c32-14 56-25 71-34h211v157H12L0 818h780l52 61c28-24 51-46 70-68l-10-18H468V636m0-25V470h229v141H468m229-166H468V296h229v149M188 611V470h223v141H188m0-315h223v149H188V296m102 343c-13 0-23 11-29 35-8 29-30 58-64 87l14 19c77-32 115-66 115-102 0-26-12-39-36-39Z"/></symbol><symbol id="𭁤_G" viewBox="0 0 1000 1000" data-size="21"><path transform="matrix(1 0 0 -1 31 977)" d="M598 574h207l31 38 45-40c6-4 9-7 9-10s-3-6-9-8l-20-13V140c1-47-2-79-9-96-10-18-32-31-67-39-1 22-12 37-33 44-29 10-59 19-88 27l2 15c71-14 112-20 125-19 18 2 27 18 27 48v434H608V150l4-95c2-23-16-38-53-45 3 44 5 106 6 185v338c0 9-1 18-3 27-36-54-75-98-118-133l-8 10c46 53 83 107 112 162l-9 12 14 16 6-7c21 42 38 84 53 127l2 8h-68c-17 1-32-4-44-13l-33 33h152c8 23 14 43 18 59 14 51 19 80 16 86-1 1-1 2-2 4-5 9-10 17-15 22l7 7 90-36c3-1 5-3 4-6s-4-5-7-5c-17 0-28-7-33-21-3-10-7-25-12-45-7-28-14-50-20-65h167l31 38 67-49c5-3 7-5 6-7-1-1-5-2-12-2H658l-2-6c-26-66-51-118-74-157l16-18m-423 0h172l30 41 51-41c5-4 8-7 8-10s-3-5-8-8l-20-13V92c0-17-4-33-13-48s-34-26-75-34c-5 25-17 40-35 45l-66 23 3 14c3-1 8-2 15-3 53-11 83-16 90-15 15 0 25 2 30 7 7 9 11 33 10 70v403H179V140l7-95c1-21-18-36-55-45 3 25 6 86 7 181v356c-36-57-75-104-116-139L9 412c50 59 89 117 118 176-1 1-2 3-3 6-3 7-6 11-9 14l16 15 8-10c19 43 35 87 49 134H77c-17 1-32-4-44-13L0 767h193c1 3 2 8 4 14 3 9 5 15 6 20 6 21 11 44 14 68 4 25 5 41 4 46-1 1-2 3-3 5-4 9-8 16-13 21l6 7 85-35c3-2 5-4 5-6s-2-4-6-5c-11 1-21-5-32-20-7-37-15-76-26-115h108l40 48 67-55c7-5 10-9 8-11-1-2-8-3-19-2H231c-18-59-40-114-66-163l10-10Z"/></symbol><symbol id="𭁥_G" viewBox="0 0 1000 1000" data-size="21"><path transform="matrix(1 0 0 -1 17 962)" d="m101 750 39-42h118v154H105c-18 1-33-4-44-13l-34 33h380l35 42 68-49c7-5 10-8 8-11-1-2-8-3-19-2H303V708h93l30 42 50-41c6-4 9-8 9-11s-3-5-9-8l-19-13V344h26l30 39 59-45c7-5 10-9 8-12-1-2-8-3-19-2H457V112c0-17-4-32-12-47-9-15-30-26-62-32-3 21-18 36-44 47-5 2-12 5-20 8-13 5-25 9-38 11l1 14c71-11 105-15 103-14 8 0 15 2 20 6s8 28 7 71v148H151V144l4-95c1-23-18-38-56-45 3 25 6 87 7 185v135H77c-17 1-32-4-44-13L0 344h106v355c-3 18-9 31-20 40l15 11m803 74c-9-1-16-4-21-9-5-6-9-23-13-50-6-32-16-83-31-153-15-74-38-149-68-225-12-29-25-58-40-85 28-58 56-103 83-134 31-34 58-59 81-75 17-11 40-23 71-36l-2-14c-23 4-40 6-51 6-10 0-22-7-37-20-47 37-95 95-142 176-1 2-3 5-5 10-7 11-14 26-23 43-19-28-40-56-63-85C588 108 517 50 431 0l-10 12c77 54 140 113 191 177 28 35 53 72 74 110-25 60-46 119-62 177-24 93-42 211-55 352-9-1-17-4-23-10l-31 31h304l33 36 55-49c3-3 5-5 5-7-1-2-3-4-8-5m-71 5H588c11-65 26-143 46-236 20-92 45-174 76-246 8 17 16 35 23 53 45 115 78 258 100 429M303 344h109v165H303V344M151 509V344h107v165H151m152 179V527h109v161H303m-152 0V527h107v161H151Z"/></symbol><symbol id="𭁦_J" viewBox="0 0 1000 1000" data-size="21"><path transform="matrix(1 0 0 -1 108 931)" d="M66 817h618l37 46c42-34 63-55 63-63 0-4-3-8-10-13l-23-16V81c0-54-34-81-101-81 0 19-10 32-31 40-15 6-50 14-103 22v25c54-5 98-8 133-8 18 0 30 3 36 8 4 4 7 12 7 24v681H59V1H0v849c30-12 52-23 66-33m167-635v-70h-56v301c28-12 50-22 66-31h102v124H116l-10 25h239v120c-65-9-131-16-200-21l-10 23c141 15 267 47 378 95 26-17 44-29 51-36 7-6 11-12 11-18 0-12-17-13-52-5-28-9-69-19-122-28V531h135l50 57c24-19 45-40 63-64l-10-18H401V382h108l32 39c39-29 59-48 59-57 0-5-3-9-8-12l-22-14V134h-55v48H233m0 25h282v150H233V207Z"/></symbol><symbol id="𭁧_G" viewBox="0 0 1000 1000" data-size="21"><path transform="matrix(1 0 0 -1 53 973)" d="m14 761 38-40h138v186c-4 8-12 17-23 28l8 10 85-30c5-1 8-3 9-6 0-3-2-4-6-5-13-3-23-10-31-20V721h122l31 37 47-40c5-4 8-7 8-10s-3-6-8-8l-20-13V176c1-41-3-70-11-88-8-17-31-30-68-38-2 22-13 36-33 43-22 7-51 15-88 25l2 15c71-14 115-21 132-20 15 2 23 19 23 50v538H232c-1-38-2-72-5-103-1-5-1-8-1-11 0-2 0-5-1-8 0-8-1-14-2-18 19-17 41-39 64-66 2-3 4-5 5-6 18-23 32-47 41-71 10-27 13-49 9-66-5-18-14-26-26-24-14 2-21 16-21 42-1 25-9 54-22 85-14 26-32 53-54 82v-2c-8-42-22-81-42-117-31-54-67-96-110-127l-8 8V152l4-96c0-13-5-23-14-30-10-6-23-11-39-15 3 26 5 88 6 187v517c-3 15-8 26-16 34l14 12m45-60V302c39 44 69 91 91 141 19 46 31 98 35 156 2 23 3 57 4 102H59m819-203c11-5 13-10 6-14-11 0-22-5-34-15C751 230 594 73 379 0l-5 15c174 80 300 198 378 354 24 46 44 89 59 129 3 8 0 17-8 28l7 8 68-36M630 940l85-35c9-3 11-7 6-11-14-5-24-12-30-21V450l2-55c2-24-14-38-49-43 3 24 5 72 6 144v387c1 11-8 26-29 45l9 12m-30-220c3-7 1-11-5-11-10 1-19-6-28-21-45-121-87-205-128-251l-12 10c34 63 64 135 89 217 8 31 12 50 12 59s-3 16-10 22l9 8 73-33m130 50 6 11c65-45 112-89 139-133 13-20 20-41 19-63 1-20-6-30-20-30-15 0-24 10-27 29-4 17-11 36-21 55-9 18-19 36-31 54-13 19-34 45-65 77Z"/></symbol><symbol id="𭁨_J" viewBox="0 0 1000 1000" data-size="21"><path transform="matrix(1 0 0 -1 103 931)" d="M332 436H112l-10 25h244v287c61-1 92-8 92-21 0-8-13-16-38-25V461h161l45 58c23-20 43-42 59-65l-13-18H409c63-94 148-168 258-223-21-17-35-34-42-53-98 64-173 144-225 242V55h-54v294c-57-84-135-155-235-216l-18 19c103 74 183 169 239 284M59 792V1H0v849c29-12 51-23 66-33h628l37 46c42-34 63-55 63-63 0-4-3-8-10-13l-23-16V81c0-54-33-81-101-81 0 19-10 32-31 40-15 6-49 14-103 22v25c54-5 98-8 133-8 18 0 30 3 36 8 5 4 7 12 7 24v681H59m197-290c-15 0-26 11-31 34-12 50-40 96-84 138l19 15c42-25 74-53 98-82 20-25 30-48 30-68 0-25-11-37-32-37m211-9-21 11c38 59 69 126 92 201 56-17 84-32 84-45 0-9-13-14-40-16-29-55-67-105-115-151Z"/></symbol><symbol id="𭁩_J" viewBox="0 0 1000 1000" data-size="21"><path transform="matrix(1 0 0 -1 59 950)" d="M278 585c113 2 249 7 406 16-40 35-87 69-143 101l13 19c186-75 279-140 279-196 0-22-11-32-32-32-11 0-22 6-33 20-19 22-38 44-58 64-152-19-347-35-586-48-7-24-15-35-22-35-14 0-26 29-35 89 78 0 137 0 177 1 35 53 65 105 88 156H10L0 765h404v134c68-3 103-11 103-25 0-9-15-17-45-26v-83h292l52 74c29-27 55-54 77-80l-11-19H417c-47-58-94-109-139-155m433-230h43l52 64c32-23 57-47 77-70l-11-19H711v-95h43l52 64c34-27 60-50 77-70l-11-19H711V83c0-50-34-74-102-73 0 16-8 28-24 36-20 10-56 18-109 25v28c47-6 95-9 144-9 21 0 31 9 31 29v91H234V0h-59v210H10L0 235h175v95H10L0 355h175v137c21-8 44-17 70-29h397l37 41c41-28 62-47 62-56 0-4-3-9-9-14l-21-17v-62m-60-120v95H234v-95h417m0 120v83H234v-83h417Z"/></symbol><symbol id="𭁪_J" viewBox="0 0 1000 1000" data-size="21"><path transform="matrix(1 0 0 -1 43 953)" d="M477 200V38h-57v162H213V0h-57v200H9l-9 25h156v87H9l-9 25h156v136c27-12 50-23 68-33h459l37 42c43-31 64-51 64-60 0-4-4-9-12-14l-23-15v-56h60l47 62c22-23 41-45 57-68l-11-19H749v-87h60l47 62c22-22 41-45 57-68l-11-19H749V97c0-32-10-54-31-67-16-11-40-17-73-18-1 29-47 50-137 61v27c53-7 103-10 150-10 23 0 34 10 34 32v78H477m0 137h215v78H477v-78m0-25v-87h215v87H477m-57-87v87H213v-87h207m0 112v78H213v-78h207M296 555c144 3 279 8 403 16-38 30-84 62-140 94l13 19c186-75 279-138 279-189 0-22-11-33-32-33-11 0-21 7-33 20-16 20-36 41-59 65-152-19-347-35-585-48-7-24-14-35-22-35-14 0-26 29-35 89 79 0 138 0 177 1 30 45 58 95 85 149H28l-10 25h754l52 54c34-24 60-44 77-60l-11-19H430c-39-49-84-98-134-148M136 828l-10 25h546l52 54c33-23 58-43 77-60l-11-19H136Z"/></symbol><symbol id="𭁫_J" viewBox="0 0 1000 1000" data-size="21"><path transform="matrix(1 0 0 -1 43 948)" d="M213 200V0h-57v200H9l-9 25h156v97H14l-9 25h151v146c27-12 50-23 68-33h459l37 42c43-31 64-51 64-60 0-4-4-9-12-14l-23-15v-66h55l47 62c22-22 41-45 57-68l-11-19H749v-97h60l47 62c22-23 41-45 57-68l-11-19H749V97c0-32-10-54-31-67-16-11-40-17-73-18-1 30-47 50-137 61v27c53-7 103-10 150-10 23 0 34 10 34 32v78H213m0 147h479v88H213v-88m0-25v-97h479v97H213m416 322H452v-38h-57v158H233V566h506l49 61c27-23 49-45 67-67l-11-19H233v-36h-57v259H16L4 789h172v107c64 0 96-8 96-22 0-9-13-18-39-29v-56h162v107c64-1 96-9 96-23 0-8-13-18-39-28v-56h177v107c64-1 96-9 96-23 0-8-13-18-39-28v-56h104l49 60c27-23 49-45 67-65l-12-20H686V606h-57v38m0 25v95H452v-95h177Z"/></symbol><symbol id="𭁬_G" viewBox="0 0 1000 1000" data-size="21"><path transform="matrix(1 0 0 -1 31 975)" d="M729 910c1-2 2-4 1-5s-3-1-6-1c-12 1-23-6-32-21-8-27-22-65-42-112h184l31 38 67-49c5-3 7-5 6-7-1-1-5-2-12-2H641c-3-7-8-18-14-34-12-31-22-52-29-65-5-9-12-23-23-40-3-5-5-8-6-11l3-3h233l31 38 45-40c6-4 9-7 9-10s-3-6-9-8l-20-13V125c1-40-2-69-10-87-9-17-31-30-66-38-1 22-12 36-33 43-20 7-49 15-88 25l2 15c71-14 115-21 131-20s24 17 23 49v130H579V141l4-95c1-24-16-39-51-45 3 44 5 106 6 185v371c-33-44-72-82-116-114l-8 10c48 51 87 102 118 154-2 9-7 15-14 20l15 15 12-14 10 19c17 34 32 69 44 104h-68c-17 1-32-4-44-13l-33 33h153c2 5 5 13 8 23 7 17 12 31 15 40 17 51 23 79 20 84-3 7-7 16-14 26l8 6 85-40M176 595h172l30 41 51-41c5-4 8-7 8-10s-3-5-8-8l-20-13V91c0-17-4-33-13-48s-34-26-75-34c-5 25-17 40-35 45l-66 23 3 14c3-1 8-2 15-3 53-11 83-16 90-15 15 0 25 2 30 7 7 9 11 33 10 70v425H180V148l7-95c1-21-18-36-55-45 3 25 6 86 7 181v350c-35-55-74-102-117-141L9 412c51 59 92 122 123 187-4 11-9 21-16 30l16 15 13-17c16 36 30 74 41 113H77c-17 1-32-4-44-13L0 760h191c4 13 8 27 12 41 6 21 11 44 14 68 4 25 5 41 4 46-1 1-2 3-3 5-4 9-8 16-13 21l6 7 85-35c3-2 5-4 5-6s-2-4-6-5c-11 1-21-5-32-20-8-45-17-86-28-122h102l40 48 67-55c7-5 10-9 8-11-1-2-8-3-19-2H229c-16-51-35-98-57-141l4-4m403-17V424h241v154H579m0-172V260h241v146H579Z"/></symbol><symbol id="𭁭_J" viewBox="0 0 1000 1000" data-size="21"><path transform="matrix(1 0 0 -1 97 949)" d="M59 594V0H0v653c31-14 55-25 72-34h287v279c67-2 101-11 101-26 0-9-14-17-42-26V619h284l39 48c44-30 65-51 65-62 0-4-3-9-10-13l-26-17V105c0-62-37-93-111-92-1 21-14 35-38 44-21 8-57 15-107 23v28c54-7 107-10 159-10 25 0 38 11 38 33v463H59m140 55c-16 0-28 13-36 39-18 57-55 107-111 149l15 18c63-30 109-62 138-98 20-26 30-49 30-68 0-27-12-40-36-40m338-14-20 15c43 63 81 134 113 215 58-26 88-46 88-61 0-10-16-14-46-14-35-55-80-107-135-155M258 344c-15 0-27 9-35 29-16 40-48 76-95 107l12 20c100-37 150-78 150-121 0-24-11-35-32-35M144 142c-11 0-28 25-50 77 85 29 161 65 229 106l13-21c-48-40-106-80-176-121-3-28-8-41-16-41m480 10c-14 0-26 10-37 31-25 47-67 87-127 120l11 19c59-19 105-42 140-70 28-23 42-44 42-64 0-24-10-36-29-36M465 346l-14 17c56 48 100 96 134 145 47-31 70-54 70-68 0-7-6-10-17-10-7 0-17 1-28 4-53-37-102-66-145-88M325 53c0 18-8 31-24 38-21 8-44 15-70 20v27c37-5 71-7 100-7 19 0 29 11 29 32v402c64-5 96-15 96-28 0-7-13-15-39-23V136c0-31-8-52-23-65-15-12-38-18-69-18Z"/></symbol><symbol id="𭁮_G" viewBox="0 0 1000 1000" data-size="21"><path transform="matrix(1 0 0 -1 22 981)" d="M515 484c5-7 4-10-2-11-9 1-18-5-29-16-1-3-1-7-2-12-3-24-6-41-8-51h313l32 38 47-40c5-4 8-8 8-11s-3-5-8-8l-20-12V138c1-40-2-69-11-87-8-17-30-30-67-38-1 21-12 36-33 43s-50 15-88 25l2 15c71-14 115-21 131-20 15 1 23 17 23 49v249H471c-3-15-7-30-12-44 60-17 108-34 145-51 39-19 66-41 81-68 15-31 10-50-13-57-12-1-23 8-34 28-10 21-28 42-54 61-23 17-67 41-131 71-12-35-30-65-54-88-48-46-115-81-201-106l-4 12c73 33 129 68 167 105 35 36 56 82 65 137H148V147l4-103c1-23-17-38-54-44 3 25 6 77 7 154v231c-3 19-9 32-20 40l15 11 37-42h292c8 45 12 73 11 85-1 6-7 13-17 22l8 7 84-24M205 961l80-32c5-4 4-8-3-11-11-2-19-6-26-13-6-5-16-20-29-46l-22-42h139l27 32 51-41c5-4 8-7 8-10 1-2-1-4-5-5-14-3-25-16-34-39-2-7-4-12-5-15-21-52-47-96-78-132 3-2 7-5 14-8 6-3 17-10 34-21 55-37 69-67 44-90-11-7-24 0-39 19-11 13-29 32-56 55-4 3-9 7-16 12-4 2-7 4-8 5-61-57-153-101-276-131l-5 17c109 36 190 81 245 134l-9 6c-31 21-79 43-145 67 31 51 54 92 68 125H77c-14 1-26-3-37-12L7 817h161l6 12c1 3 3 6 5 11 20 43 31 73 32 90-1 6-5 13-13 20l7 11m502-188 1-1 92 95H529c-11-1-21-6-32-13l-33 33h330l42 29 49-58c3-7 0-10-9-9-19 1-35-3-47-12-4-3-10-7-18-13-29-20-56-40-81-61l6-2c6-3 10-5 11-7 1-3 0-5-4-7-10-3-20-8-30-15v-25h138l35 39 62-45c7-5 10-9 8-11-1-3-8-4-19-3H713V546c-1-26-7-44-20-55-12-11-37-21-75-30 3 20-5 33-23 39-19 7-49 16-90 26l2 18 46-9c45-10 75-12 90-5 17 6 25 23 25 52v105H488c-17 1-32-4-44-13l-33 33h257v35c-1 16-11 31-28 45l8 11 39-17 20-8m-580-89c65-23 113-42 143-58 39 45 67 102 86 171H195l-68-113Z"/></symbol><symbol id="𭁯_J" viewBox="0 0 1000 1000" data-size="21"><path transform="matrix(1 0 0 -1 43 949)" d="M477 200V32h-57v168H213V0h-57v200H9l-9 25h156v99H15l-9 25h150v148c27-12 50-23 68-33h459l37 42c43-31 64-51 64-60 0-4-4-9-12-14l-23-15v-68h53l47 62c22-22 41-45 57-68l-11-19H749v-99h60l47 62c22-23 41-45 57-68l-11-19H749V93c0-31-9-52-28-65-15-10-37-15-66-16-1 15-9 27-26 35-14 8-38 14-71 19v27c36-5 69-7 100-7 23 0 34 10 34 29v85H477m0 149h215v90H477v-90m0-25v-99h215v99H477m-57-99v99H213v-99h207m0 124v90H213v-90h207M162 760H20l-7 25h149v102c64 0 95-7 95-21 0-9-13-19-39-29v-52h168v112c64-1 95-9 95-22 0-8-13-17-40-25v-65h178v112c64-1 96-8 96-22 0-8-14-16-41-25v-65h109l46 59c23-20 43-41 61-63l-7-21H674V628h-55v32H441v-36h-55v136H218V571h511l49 59c27-23 49-44 67-65l-11-19H218v-31h-56v245m457-75v75H441v-75h178Z"/></symbol><symbol id="𭁰_G" viewBox="0 0 1000 1000" data-size="21"><path transform="matrix(1 0 0 -1 32 971)" d="M425 822V137c0-16-4-32-12-47-8-14-32-24-73-30-3 19-18 34-45 45s-54 18-79 22l2 14c73-11 116-16 129-16s21 2 26 5c5 4 8 28 7 71v632H67V154l3-95c1-21-18-36-55-45 3 25 6 87 7 185v634c-3 19-11 34-22 45l13 12 38-37h313l30 41 50-41c6-4 9-7 9-10s-3-5-9-8l-19-13M364 0l-2 14c62 17 115 38 159 61 154 86 269 201 345 345H682c-27-27-57-57-90-88 66-23 101-54 105-93v-5c0-19-6-29-18-29-3 0-8 7-14 21-20 47-48 79-84 98-39-31-74-55-106-71l-3 12c97 78 183 173 256 286 0 2-1 6-3 11-1 5-2 8-3 11l7 7 63-34c7-5 11-9 11-12 0-1-1-2-4-3h-2c-1 0-2 0-4 1h-5c-15 0-36-19-63-58-12-17-21-28-26-34h164l29 25 40-52c3-2 4-4 4-6 0-1-2-2-6-3-18-5-31-16-40-33C761 160 585 37 364 0M141 574l33-35h83l31 36 43-40c5-4 6-7 5-10s-4-6-11-7l-18-8V349l4-39c3-25-11-40-43-43v59h-91v-40c1-23-15-38-46-45 3 25 6 65 7 119v164c0 13-4 28-13 43l16 7m346-101v14c147 69 261 173 344 313H635c-4-5-10-13-19-24-17-23-30-39-41-49 59-17 89-44 91-80v-4c0-15-6-23-19-23-7 0-12 6-15 19-9 31-32 57-68 76-29-31-58-55-87-73l-5 10c79 76 142 165 189 267 1 3 0 7-3 12-1 2-2 4-3 5l6 6 57-33c7-4 10-8 10-11 0-2-2-3-5-4h-6c-15 0-32-16-51-48-7-11-13-20-17-26h178l25 28 49-38c3-5 5-9 5-11 0-3-2-5-7-6-14-3-26-12-37-29-27-41-67-87-119-138-71-77-157-128-256-153m-310 50V342h91v181h-91M90 680h176l32 37 61-43c6-3 8-5 6-7-2-1-8-2-17-3H167c-17 1-32-4-44-13l-33 29Z"/></symbol><symbol id="𭁱_S" viewBox="0 0 1000 1000" data-size="21"><path transform="matrix(1 0 0 -1 98 938)" d="m0 877 63-31h651l32 26 58-48-27-20V90h-63v734H63V32L0 0v877M777 90l-1-14-2-13-4-12-7-12-8-11-11-8-12-7-12-4-14-2-13-1v31L588 53v15h105l6 1 5 1 5 1 2 3 2 4 1 5v7h63m-660 22v22h237v103H157v22h197v85l64-10 16-11-16-10v-54h80l53 53 63-53v-22H418V134h121l53 53 62-53v-22H117m9 298 29-56-24-1-19 14-2 24 16 19m29-56-19 36v1l-5 8v1l-1 1-1 3-2 3-1 3 7 2 8 4 7 4 8 7 7 8 7 10 7 13 7 14 5 16 2 18h10l1-20 2-17-1-18-1-16-4-16-4-15-6-14-10-13-10-13-13-10m456 37-2 9-3 11-3 12-6 11-16 26-20 27-13 14 6 8 15-11 17-9 15-10 13-9 13-11 12-11 10-11 9-12 8-13 7-14-3-23-19-16-23 3-16 20-1 9m-161 10 1 9-1 9-2 10-2 9-5 12-4 11-14 25-10 11 6 8 13-10 13-8 12-8 12-10 10-10 8-11 8-10 8-12 5-13 4-14-7-22-21-12-23 7-12 22 1 7m-104-29-23-7-21 12-7 22 2 8 3 9 1 8 1 9v9l-2 10-2 12-3 11-4 11-7 11 7 6 10-9 11-9 9-9 8-10 8-11 7-11 5-11 4-13 2-13 2-13-11-22M112 553v21h238v102H152v20h198v84l62-10 16-11-16-10v-53h81l53 53 62-53v-20H412V574h121l53 53 63-53v-21H112Z"/></symbol><symbol id="𭁲_J" viewBox="0 0 1000 1000" data-size="21"><path transform="matrix(1 0 0 -1 48 949)" d="M275 175c-27-30-62-59-106-87l-15 20c54 43 97 98 128 163 44-18 66-31 66-40s-13-13-40-14c-3-5-9-13-17-22 68-21 102-46 102-74 0-19-8-28-24-28-10 0-20 7-28 21-14 23-36 43-66 61m330 4c-28-29-62-55-102-79l-15 20c56 45 99 97 128 156 44-18 66-31 66-40s-13-13-40-14c-3-4-6-8-10-14-5-6-8-10-9-11 69-20 104-44 104-72 0-16-7-24-22-24-10 0-19 6-28 20-15 20-39 39-72 58M145 475h600l34 37c44-34 66-56 66-64 0-5-3-9-9-13l-23-14V88c0-58-34-86-101-85 0 18-8 32-25 39-12 5-40 12-84 20v26c41-4 78-6 109-6 28 0 42 9 42 29v339H469V21h-57v429H140V0H82v485c-21-9-44-18-69-27L0 479c110 48 176 112 198 191H10L0 695h203c3 13 4 28 4 46v30H64l-9 25h152v102c61-1 91-8 91-22 0-8-12-17-37-26v-54h77l38 48c21-17 40-35 55-54l-12-19H261v-29c0-17-1-32-3-47h98l38 49c13-9 31-26 54-49h150c1 13 2 23 2 30v46H466l-13 25h147v102c60-1 90-8 90-22 0-8-12-16-35-25v-55h94l40 51c24-21 44-41 58-59l-10-17H655v-49c0-12-1-21-1-27h138l43 46c25-19 45-36 61-53l-12-18H672c53-60 130-101 232-124-17-14-30-33-40-55-97 32-169 88-216 168-23-89-92-146-208-174l-12 21c94 36 149 91 166 164H254c-1-5-5-17-11-35 108-29 161-64 161-106 0-21-10-31-30-31-10 0-19 6-28 19-26 40-64 73-112 99-24-47-68-87-131-120 12-5 26-12 42-21m130-128c-27-31-62-60-106-87l-15 20c54 43 97 98 128 163 44-18 66-31 66-40s-13-13-40-14c-3-6-9-13-17-22 68-21 102-46 102-75 0-18-8-27-24-27-10 0-20 7-28 21-14 23-36 43-66 61m331-1c-27-28-61-54-103-79l-15 20c56 45 99 97 128 156 44-18 66-31 66-40s-13-13-40-14c-8-11-14-19-19-24 69-20 104-44 104-72 0-16-7-24-22-24-10 0-19 6-28 20-16 21-39 40-71 57Z"/></symbol><symbol id="𭁳_J" viewBox="0 0 1000 1000" data-size="21"><path transform="matrix(1 0 0 -1 64 919)" d="M197 359V111c0-25 8-40 22-45 18-6 97-9 236-9 163 0 257 3 281 10 19 5 32 20 37 44 7 33 14 85 21 156l27-8c0-79 3-131 8-155 6-23 20-34 42-33-2-34-19-54-50-60C780 4 667 0 483 0 306 0 205 5 179 14c-28 11-42 39-42 85v544c11-4 35-16 73-34h412l35 45c44-34 66-55 66-65 0-3-3-7-8-11l-24-16V301h-58v58H197m0 25h436v200H197V384m-86 405h638l41 49c49-49 73-80 73-93 0-6-4-9-12-10l-38-6c-19-21-51-46-95-77l-18 15c25 37 42 70 52 97H114c3-57-6-104-27-140-14-23-29-34-47-34-10 0-20 4-29 13-7 7-11 15-11 23 0 9 5 19 14 30 40 41 61 99 65 173l25-4c2-8 4-20 7-36Z"/></symbol><symbol id="𭁴_J" viewBox="0 0 1000 1000" data-size="21"><path transform="matrix(1 0 0 -1 51 918)" d="M240 152v-52h-58v447c25-11 47-21 68-32h392l38 45c41-31 61-51 61-61 0-5-4-9-11-15l-24-18V106h-58v46H240m0 200h408v138H240V352m0-25V177h408v150H240M126 787h644l40 49c49-48 74-78 74-90 0-6-4-10-12-11l-36-7c-22-30-43-54-62-72l-18 11c8 30 13 61 17 95H128c4-50-3-93-23-131-15-28-33-43-54-43-10 0-19 4-28 12-7 7-11 15-11 24 0 10 8 23 24 38 36 33 55 88 58 165l26-5c1-7 3-19 6-35m32-162-10 24h476l50 60c28-23 52-45 72-65l-11-19H158M13 0 0 25h765l58 71c31-28 56-53 76-77L886 0H13Z"/></symbol><symbol id="𭁵_S" viewBox="0 0 1000 1000" data-size="21"><path transform="matrix(1 0 0 -1 42 943)" d="m390 549 63-52v-21h-90V113h-62v363h-70l-3-73-8-67-12-62-15-56-19-51-23-47-26-40-29-33-34-27L24 0l-4 8 29 27 25 30 23 35 18 39 18 43 13 48 10 54 7 59 5 64 1 69H49v21h288l53 52m-5-520-14 1-14 2-12 5-12 7-11 8-8 11-6 11-5 13-2 14v12h62v-6l1-4 2-5 2-2 5-2 5-1h448l31 131h10L857 93l19-13 13-19-13-19-19-13H385m352 173-44 75-19 31-29-40-37-40-40-37-45-30-47-26-53-21-4 9 47 30 42 31 38 34 33 36 30 40 26 42 7 14-18 21-24 26-50 46-27 21 5 9 32-13 32-17 30-20 30-24 8-7 14 39 14 52 11 56 1 10 61-21 13-12-18-7-10-40-18-57-24-53-5-7 11-10 26-34 28-37 50-82 2-24-15-18-24-2-18 15-22 42M569 759l61-21 14-12-20-8-4-20-12-39-13-37-7-15h138l52 52 63-52v-21H579l-16-32-18-33-21-30-22-27-24-26-28-23-7 7 36 57 16 31 15 30 12 32 12 32 11 35 9 36 8 37 7 47m-206-42 64-52v-21H148v21h163l52 52m-349-7 33-53-24-4-20 14-3 24 14 19m0 0 31-51 2-2 16 15 14 16 10 19 9 21 7 22 2 23 2 26v13h711l-38-72-19-37-13-19 7-6 76 71 34 36 2 2 22 9 26 16-58 47-26-21-1 1-2-4-3-2H106l-5 53H91l-4-31-5-27-6-24-7-22-7-19-8-16-10-13-10-10-11-8-9-6Z"/></symbol><symbol id="𭁶_J" viewBox="0 0 1000 1000" data-size="21"><path transform="matrix(1 0 0 -1 56 935)" d="M252 613h379l34 39c40-28 60-46 60-53 0-5-4-10-11-15l-20-14V332h-56v34H242v-38h-56v313c18-6 40-16 66-28m-10-133v-89h396v89H242m0 25h396v83H242v-83M133 823h636l41 48c49-48 74-77 74-88 0-6-5-10-16-12l-31-6c-13-22-34-49-62-80l-21 12c8 24 14 57 20 101H134c2-48-7-90-25-127-14-27-29-40-47-40-25 0-37 12-37 36 0 9 6 20 19 34 34 38 54 91 59 158l24-2 6-34m435-559V111c0-17 4-28 13-32s38-7 86-7c78 0 121 9 130 25 7 16 14 54 19 113l27-7c0-48 3-80 8-96 5-15 17-23 37-23-1-34-17-53-48-58-29-5-76-8-142-8-87 0-139 3-155 10-22 8-33 28-33 61v175H373c-12-94-55-162-128-203C193 32 116 11 13 0L0 24c101 17 174 44 222 81s77 90 88 159H35l-10 25h728l48 58c28-20 52-41 72-64l-12-19H568M167 690l-9 25h463l45 52c26-22 47-40 63-57l-11-20H167Z"/></symbol><symbol id="𭁷_J" viewBox="0 0 1000 1000" data-size="21"><path transform="matrix(1 0 0 -1 55 935)" d="M259 358v-45h-56v429c23-9 45-18 64-28h365l35 42c41-29 61-49 61-60 0-5-4-9-11-13l-19-12V322h-56v36H259m0 25h383v91H259v-91m0 116h383v82H259v-82m0 107h383v83H259v-83M123 821h644l40 49c49-49 74-78 74-90 0-6-4-10-12-11l-36-7c-22-30-43-54-62-72l-18 11c8 29 13 61 17 95H125c5-50-3-94-23-131-15-29-33-43-54-43-10 0-20 4-28 12-7 7-11 14-11 23 0 11 8 24 24 39 36 33 55 88 58 165l26-5c1-8 3-19 6-35M810 9c-12 0-28 10-48 30-63 64-142 115-237 154l11 22c102-27 181-57 237-91 47-28 71-55 71-80 0-23-11-35-34-35M25 0 11 22c105 46 200 112 284 199 55-25 82-44 82-58 0-9-11-14-34-14-7 0-13 0-19 1C237 83 137 33 25 0M10 250 0 275h762l55 68c29-25 53-49 73-73l-12-20H10Z"/></symbol><symbol id="𭁸_S" viewBox="0 0 1000 1000" data-size="21"><path transform="matrix(1 0 0 -1 42 957)" d="m428 798 62-11 16-11-16-8v-76h137l53 53 62-53v-20H490v-89h210l32 25 58-46-26-21V294l-64-31v42H490v-95h279l52 53 63-53v-22H490V31L428 0v188H44v22h384v95H218v-16l-64-32v357l64-31h210v215m272-362H218V325h482v111m0 126H218V457h482v105M11 696l39-50-25-5-20 11-5 24 11 20m815 155 4 3h1l27 23 58-48-26-16-18-6-39-52-27-32-49-54-8 6 12 22 45 98 14 34H109v-18l-2-31-3-27-6-26-8-24-11-21-14-20-15-16-19 23-4 6-5 7-5 6-3 4-3 4 11 8 10 10 11 14 10 16 9 21 7 23 7 26 6 30 5 33 5 36 10 1 4-37 2-26h718Z"/></symbol><symbol id="𭁹_G" viewBox="0 0 1000 1000" data-size="21"><path transform="matrix(1 0 0 -1 38 955)" d="m417 346 86-33c9-3 11-7 6-11-11-3-21-9-28-18v-76h201l31 38 66-47c5-3 8-5 7-7-1-1-6-2-13-2H481V33h318l31 38 66-48c5-3 8-6 7-8-1-1-5-2-12-2H77C60 14 45 9 33 0L0 33h436v157H187c-18 1-33-4-44-13l-34 31h327v86c1 11-8 25-27 41l8 11m2 351 86-33c9-3 11-7 6-11-11-3-21-9-29-17v-98h196l31 40 66-49c5-3 8-5 7-7-1-1-5-2-12-2H482V374h303l31 38 67-49c5-3 8-5 7-7-1-1-6-2-13-2H106c-17 1-32-4-44-13l-33 33h408v146H206c-17 1-32-4-44-13l-33 31h308v107c1 11-7 25-26 41l8 11m504 147c1-3 1-6-1-7-1-1-4-1-9 0-29-1-50-9-65-25l-69-59-12 10 64 84H100c0-2 0-5-1-10 0-4 0-7-1-10-3-37-13-67-31-88-19-21-36-25-52-10-8 10-6 21 6 34 14 14 26 29 37 45 13 16 23 48 31 96h14c0-11 0-24-1-37h719l44 43 58-66m-634-37 70-50c5-3 7-6 7-9 0-2-2-4-7-5-17 9-57-5-118-43-14-8-25-14-32-18-41-23-110-46-205-71l-2 14c147 57 241 108 280 155 1 8 0 15-3 21l10 6m278-36 3 13c75-15 128-29 159-41 32-11 59-25 82-41 41-31 48-56 23-77-11-5-25 4-44 27s-42 42-69 59c-25 15-76 35-154 60Z"/></symbol><symbol id="𭁺_J" viewBox="0 0 1000 1000" data-size="21"><path transform="matrix(1 0 0 -1 55 938)" d="M227 377c44-16 78-33 104-53 35-25 52-48 52-70 0-24-11-36-32-36-14 0-25 10-34 31-18 39-48 73-90 102V0h-56v320c-50-48-101-89-154-122L0 218c63 48 123 105 179 171 46 55 82 107 106 156H37l-9 25h144v164c65-3 97-12 97-27 0-8-14-17-43-26V570h56l35 42c41-37 62-60 62-68 0-4-3-7-8-10l-26-7c-35-54-74-103-118-150M112 826h651l38 49c53-47 80-77 80-89 0-6-6-10-17-12l-32-5c-17-14-45-32-82-52l-17 14c17 28 28 51 34 70H113c2-61-8-108-30-142-11-18-25-27-40-27-10 0-20 4-29 13-8 7-12 15-12 24 0 8 5 17 14 28 39 41 61 96 66 166l24-2c1-8 3-19 6-35m550-331H397l-13 25h278v196c62-2 94-10 94-25 0-8-13-18-38-29V520h73l44 61c21-21 40-44 56-67l-10-19H718V86c0-55-31-82-93-81 0 17-7 29-19 36-18 10-51 18-101 25v27c49-4 89-6 119-6 25 0 38 10 38 29v379M546 234c-19 0-30 12-32 35-4 56-28 109-71 157l15 15c43-27 76-57 98-89 18-27 27-53 27-77 0-27-12-41-37-41Z"/></symbol><symbol id="𭁻_J" viewBox="0 0 1000 1000" data-size="21"><path transform="matrix(1 0 0 -1 62 936)" d="M154 329c-36-48-82-91-138-128L0 222c125 104 188 235 188 392v103c22-7 44-16 67-26h373l34 39c40-28 60-46 60-53 0-5-4-10-11-15l-20-14V484h-56v34H236c-7-39-18-74-32-106l18-12h490l37 42c40-29 60-48 60-56 0-4-4-9-10-15l-20-17V0h-59v57H213V0h-59v329m90 337v-60c0-23-1-44-4-63h395v123H244m-31-291V247h224v128H213M720 82v140H494V82h226m0 165v128H494V247h226M437 82v140H213V82h224M125 825h636l41 48c49-48 74-77 74-88 0-6-5-10-16-12l-31-6c-13-22-34-49-62-80l-21 12c8 23 15 57 20 101H126c2-48-6-90-25-127-14-27-30-40-47-40-25 0-37 12-37 36 0 9 6 20 19 34 34 38 54 91 59 158l24-2 6-34Z"/></symbol><symbol id="𭁼_J" viewBox="0 0 1000 1000" data-size="21"><path transform="matrix(1 0 0 -1 49 942)" d="M275 726h358l38 43c39-31 58-50 58-58 0-4-3-8-10-13l-21-14V444h-58v27H266v-33h-58v315c25-9 47-17 67-27m-9-25v-88h374v88H266m374-205v92H266v-92h374M427 119v251H50l-10 25h698l52 64c27-22 51-45 73-69l-12-20H484V252h198l48 59c27-23 49-44 67-65l-12-19H484V106c55-9 117-14 185-14 71 0 148 4 233 13-16-22-28-44-35-67H703c-150 0-259 16-327 49-56 27-102 74-139 140C187 124 113 48 15 0L0 17c107 77 177 184 208 322 63-12 95-24 95-38 0-8-14-14-42-19-4-10-7-18-10-25 25-36 51-65 77-85 29-24 62-42 99-53M138 837h636l41 48c49-47 74-77 74-88 0-6-5-10-16-12l-31-6c-13-22-34-49-62-80l-21 12c8 24 15 57 20 101H139c2-48-6-90-25-127-14-27-30-40-47-40-25 0-37 12-37 36 0 9 6 20 19 34 34 38 54 91 59 158l24-2 6-34Z"/></symbol><symbol id="𭁽_S" viewBox="0 0 1000 1000" data-size="21"><path transform="matrix(1 0 0 -1 41 958)" d="m784 86 33-55-21-10-11-5-11-4-23-6-12-3-11-1-13-1-11-1v31L599 48v15h105l17 1 8 1 8 1 9 3 16 5 15 8 7 4M51 67l31-54-24-3-19 14-3 25 15 18m0 0 23-41 3-5 5-8 17 13 15 16 13 17 10 19 8 20 4 21 3 23v22l-2 25-4 26h-8l-4-26-5-22-6-20-8-18-9-15-8-13-11-11-11-9-13-8-12-6m747-4 19-32 18 14 14 17 10 18 10 23 8 24 5 26 5 30 4 33 2 46v1l26 15-58 48-31-26H488v141h237v-21l63 32v189l26 21-58 47-31-26v-5H488v100l16 10-16 10-62 11V678H184v5l-63 31V420l42 21h263V300H11v-22h818v-25l-2-33-3-30-4-25-5-22-5-19-6-16-7-10-7-7-6-5 3-4v-1l11-17v-1M261 76l61-13-12-19-24-6-20 14-5 24m0 0 4 10 3 11 2 11 1 13-1 13-1 13-2 15-8 31-8 16 8 5 12-15 10-12 11-14 9-15 7-14 5-16 5-16 3-15 1-17V63l-61 13m177 27-1 11-3 12-3 13-5 11-7 13-16 25-10 13-13 12 5 8 32-17 15-9 13-10 13-11 11-13 10-14 8-14 8-15 6-16-6-24-19-14-24 6-14 21v12m174 28-4 10-5 10-15 22-10 11-21 21-14 12-15 10 3 8 18-6 17-4 17-7 16-7 14-8 14-9 13-10 11-11 12-12 9-14 1-23-15-19-24-1-19 16-3 11M426 656V462H184v194h242m299 0V462H488v194h237M15 769l30-56-24-2-19 15-2 23 15 20m30-56-16 28-4 8-5 12-5 8 10 4 10 5 10 9 9 11 9 13 7 15 7 19 6 21 5 24 3 25 9 1 4-27 1-15h724l3 3 3 4 1-1 24 20 58-47-26-16-25-10-47-42-29-22-17-12-15-14-7 7 12 17 54 88 2 4H106v-13l-2-23-2-20-7-21-9-18-11-17-13-15-17-13Z"/></symbol><symbol id="𭁾_G" viewBox="0 0 1000 1000" data-size="21"><path transform="matrix(1 0 0 -1 42 976)" d="M912 63V47c-43-3-70-14-81-35-74 15-125 31-152 47-36 20-70 44-103 73-29-23-59-42-90-58-70-35-148-57-234-66l-3 13c98 27 167 51 208 72 34 18 65 39 92 64-51 53-92 116-123 190h-9c-17 1-30-3-37-10l-32 30h343l31 24 40-42c8-8 8-13 0-16-21-1-35-13-44-37-7-14-31-46-71-97-12-15-26-30-43-45 50-38 99-63 146-76 27-8 55-13 86-14 8-1 18-1 29-1h47M307 781c5-4 4-8-3-11-11 1-21-4-31-13-20-45-42-88-65-128V98l2-55c2-23-15-38-50-43 3 24 6 72 7 144v422c-44-63-96-115-157-157L0 421c87 85 156 181 207 288 21 45 30 71 27 78-2 7-5 15-10 22l8 11 75-39m119-10c-11 3-23-2-37-15l-35 33h349l32 36 44-44c5-3 7-5 6-7s-4-4-10-5l-19-8V610l5-60c0-17-14-28-42-32v43H427c-14 3-29-2-44-14l-33 32h369v88H475c-14 3-29-2-44-14l-34 32h322v86H426m488 102c4-4 1-6-10-6-18 1-35-9-51-32-3-5-11-15-23-31-7-9-13-16-16-21l-13 5 38 87H142c-2-14-4-27-7-39-8-35-21-59-38-74-21-15-38-15-51 0-5 11-2 20 11 28 13 10 26 27 40 51 14 25 24 62 31 111h15c1-21 1-40 0-57h693l30 28 48-50M556 197c2-3 6-7 12-12l6-6c47 47 88 103 122 168H446c22-41 59-91 110-150M342 518c1-11 1-26 1-44h475l25 26 50-41c1-5 1-8 0-9-1-2-5-3-10-2-17 3-41-20-72-68-5-7-8-12-11-16l-17 4 37 86H342c0-2 0-5-1-9 0-5 0-8-1-10-6-45-24-70-53-77-14-3-23 1-28 12s-1 19 11 25c11 7 23 18 35 35 11 16 19 45 22 88h15Z"/></symbol><symbol id="𭁿_S" viewBox="0 0 1000 1000" data-size="21"><path transform="matrix(1 0 0 -1 42 957)" d="m306 280-5 13-7 13-16 27-19 27-12 14-1-343-62-31v350l-10-11-33-31-37-31-38-27-5 7 59 70 54 70 10 14v8h4l33 51 21 37 20 37 17 39 6 16H77v21h215l31 26 58-47-26-16-11-5-33-60-49-76-18-23h2v-21l15-6 17-10 16-11 15-11 13-11 13-13 22-26 9-15 1-24-15-18-24-1-18 16-4 12M736 44l-55 20-51 26-45 29-12 11-52-35-55-30-61-24-64-18-69-11-1 9 65 22 60 24 53 29 50 32 40 32-28 32-29 43-22 46-17 50-7 50h-58v20h314l32 27 58-47-26-16-11-5-17-40-32-55-37-50-41-46-5-4 44-23 47-20 50-15 104-21-62-59-60 17m-49 337H446l18-42 24-44 26-39 30-35 30-27 9 9 35 44 30 47 25 52 14 35M492 631l-3-28-7-28-9-26-13-25-17-23-18-22-23-20-24-19-27-16-31-14-5 8 45 44 19 21 15 22 12 20 10 22 7 20 5 21 2 21v22h62m234-166h95l16 10 11 16-11 16-16 10 11 89h-11l-24-89h-71v-52m-84 264H492v-98h-62v150l62-31h150l31 25 57-46-25-21V531l1-3v-2l1-2 1-2 2-1 4-1 5-2 7-1v-52h-13l-13 1-12 4-11 6-11 7-9 10-7 12-4 12-2 12-2 14v186M11 695l39-50-25-5-20 11-5 24 11 20m815 155 4 4 1-1 27 23 58-48-26-15-18-7-39-52-27-32-49-54-8 6 12 22 45 98 14 34H109v-18l-2-31-3-27-6-26-8-24-11-21-14-20-15-16-18 23-2 2-8 11-5 7-6 7 11 8 10 10 11 14 10 16 9 21 7 23 7 26 6 30 5 33 5 36 10 1 4-37 2-26h718M212 688l-6 23-3 12-5 11-4 12-12 22-7 11-8 11-11 9 6 9 13-7 13-7 13-7 12-8 12-9 10-11 20-24 8-13 8-14-1-24-18-16-24 2-16 18Z"/></symbol><symbol id="𭂀_S" viewBox="0 0 1000 1000" data-size="21"><path transform="matrix(1 0 0 -1 29 941)" d="m813 51-51 26-48 29-44 36-41 38-36 43-32 47-27 50-23 55-16 50-45-35-37-27-40-27-43-26-8-4V102l68 24 69 22 36 10 77 19 4-9L346 54l-66-34-2-20-16 10-7 14-3 5-10 22-2 3-4 8-2 4 54 22h-29v183l-77-40-56-25-60-24-62-25-4 9 165 96 96 59 82 59 62 50H28v20h767l52 53 63-53v-20H505l25-45 31-49 32-45 33-38 109 110 45 50 43-46 4-18-19 5-37-30-60-41-44-27-24-13-6-2 27-26 39-31 42-29 45-24 48-20 91-28-61-54-55 22M234 66l28-56-37 52 9 4m-34 484v-16l-62-31v239l62-32h542l32 26 58-47-26-21V539l-64-31v42H200m139 139H200V570h139v119m202 0H402V570h139v119m201 0H604V570h138v119M20 711l33-53-24-4-20 14-3 24 14 19m86 171 4-30 1-13h742l31 26 57-47-26-16-7-2-5-20-10-31-13-32-8-16-8-14-8-17-8 3 3 16 1 18v17l1 16 1 32v4h-1v42H112l1-20-2-26-4-23-5-21-9-20-11-20-14-15-15-15-18 29-2 1v1l-2 3-5 8-5 7v1l-1 2v1l9 6 11 8 10 9 10 13 7 16 8 17 7 22 7 24 5 27 3 28 9 1Z"/></symbol><symbol id="𭂁_J" viewBox="0 0 1000 1000" data-size="21"><path transform="matrix(1 0 0 -1 58 934)" d="M415 438v-46h-55v341c17-6 40-16 68-30h217l37 42c40-30 60-51 60-61 0-4-2-8-7-11l-26-18V401h-55v37H415m0 25h239v98H415v-98m0 123h239v92H415v-92M252 305c-67-64-146-113-239-149L0 177c115 56 208 140 277 253 49-20 73-36 73-47 0-9-14-15-43-16-10-13-20-26-31-37h479l38 45c41-33 61-54 61-63 0-4-3-7-8-11l-28-17c-5-134-25-219-59-253-21-21-52-31-94-31-1 19-11 32-31 41-17 7-52 15-104 24v26c52-8 98-12 138-12 33 0 55 15 67 46 15 43 24 103 25 180H252M113 820h657l41 48c49-49 74-79 74-91 0-6-4-10-12-11l-41-7c-17-15-43-31-78-50l-17 16c14 22 27 45 37 70H114c-1-56-10-101-26-133-12-25-28-37-47-37-25 0-37 11-37 34 0 11 6 22 19 35 39 40 60 93 64 161l24-5c1-14 2-24 2-30M99 24c-24 0-36 11-36 34 0 11 10 22 29 34 43 26 72 69 87 129l23-6c0-67-16-120-47-159-18-21-37-32-56-32m67 357v358c62-1 93-9 93-23 0-8-11-17-35-27V381h-58m480-238c-13 0-24 9-33 28-13 29-42 58-86 90l12 17c92-29 138-63 138-102 0-22-10-33-31-33M485 92c-16 0-26 10-29 31-6 37-27 78-65 123l15 14c75-42 112-86 112-131 0-25-11-37-33-37M330 46c-18 0-27 14-27 41-1 53-11 99-32 139l18 9c53-51 79-99 79-144 0-30-13-45-38-45Z"/></symbol><symbol id="𭂂_K" viewBox="0 0 1000 1000" data-size="21"><path transform="matrix(1 0 0 -1 48 943)" d="M863 837c9-10 14-17 14-23 0-5-5-7-16-5-10 1-21 1-31-1l-71-56-12 9 40 57H562v-52c0-23 2-38 6-45 6-7 18-10 36-10h139c30 0 50 9 61 27l29 55 10-5-13-50c-1-8 3-15 11-21s13-13 13-20c-1-15-40-23-117-23H600c-56 0-83 24-83 73v71H362c-20-45-62-85-125-122-58-30-127-48-206-52l-3 11c65 5 124 26 179 62 53 36 88 69 104 101H113c-6-50-24-87-52-110-13-9-23-14-31-14-9 0-13 6-13 18 0 8 2 18 6 30 4 9 11 18 23 28 12 9 20 20 25 33 9 14 17 42 23 83l12 1c2-10 4-26 6-48h672l18 26c6 9 9 14 11 14 3 0 10-5 22-16l28-26M474 282h144v94H474v-94m-43 0v94H288v-94h143m472-3-7-18H661v-97h79l18 28c8 12 13 18 13 18 4 0 12-6 22-19l37-33-5-14H474V12c-1-4-9-6-23-8-8-3-13-4-15-4-4 0-6 2-6 5-1 2-1 8 0 16 0 14 1 24 1 33v90H92v20h153v97H0v21h245v94h-51v-17c-1-2-8-4-22-5-7-2-12-3-16-3-2 0-4 1-5 3 0 1-1 5-1 11 1 9 1 16 1 20v205l-3 52 53-25h502l14 21c4 7 7 10 8 10s5-2 13-8l25-22c11-10 16-17 16-21 0-6-8-9-24-10V389c0-13-1-21-2-22-1 0-8-3-22-8-7-2-12-3-14-3-4 0-6 7-6 20h-50v-94h150l22 31c9 11 13 16 13 16 3 0 10-6 22-19l35-31M431 164v97H288v-97h143m187 0v97H474v-97h144M431 396v87H194v-87h237m0 108v93H194v-93h237m280-108v87H474v-87h237m0 108v93H474v-93h237Z"/></symbol><symbol id="𭂃_G" viewBox="0 0 1000 1000" data-size="21"><path transform="matrix(1 0 0 -1 55 971)" d="m579 856 81-23c9-3 11-7 6-11-12-5-21-12-28-21v-64h102l28 31 59-41c5-4 7-7 6-9-1-1-5-2-12-1H677c34-67 81-113 140-140 31-13 56-21 73-23v-14c-3 0-7 0-12 1-22 1-36 1-42 0-9-1-19-9-28-22-77 59-129 125-156 198h-14V563l4-55c-3-14-8-24-15-30-9-5-21-10-35-13 3 23 5 55 7 94v158h-12c-31-93-97-164-200-213l-6 10c87 65 142 132 164 203h-30c-17 0-32-4-44-13l-33 33h161v70c1 11-9 23-29 37l9 12m-364-3 82-31c9-3 11-7 6-11-11-5-20-11-28-19v-55h56l28 31 58-41c5-4 7-7 6-9-1-1-4-2-11-1H275v-33c5-2 13-6 26-11 19-7 32-13 38-16 25-13 43-27 52-41 11-15 14-29 9-42-5-14-12-19-23-14-9 3-17 12-22 27-7 17-16 30-26 41-12 11-30 24-54 40V558l4-56c-2-13-7-23-15-29-10-6-22-11-35-14 3 24 5 57 7 98v105c-38-63-106-121-204-174l-6 10c93 71 159 144 200 219h-99c-17 0-32-4-44-13l-33 33h186v60c1 11-9 25-30 44l9 12M19 314h751l34 43 66-49c7-5 10-9 9-11-2-3-8-4-19-3H471V85c-1-25-6-43-16-53-10-11-33-21-70-32-2 21-10 35-25 41-15 7-43 16-85 28l2 17 43-9c43-9 71-11 86-6 14 4 21 21 22 50v173H96c-16 1-31-3-44-12l-33 32m85 628v-37h693l40 34 51-61c1-3 1-6 0-7-2-1-5-1-9 0-22 1-39-7-52-24-8-9-24-29-47-61l-15 7 41 92H103l-1-15c-4-50-21-82-52-95-14-6-24-4-31 6-7 9-3 20 10 31s24 24 35 39 18 45 22 91h18m61-514h445l34 38 67-45c7-5 9-8 8-11-2-2-8-3-19-2H242c-17 1-32-4-44-13l-33 33m69-194 64-50c5-3 7-6 7-8 0-3-2-4-7-5-14 1-26-1-35-6-15-8-40-23-75-45C153 97 92 63 4 18L0 32c145 93 222 151 233 174 0 7-2 14-7 20l8 8m342-30 2 14c61-9 115-25 162-48s77-46 90-68c13-23 13-39 1-48-13-10-27-4-41 19-15 22-43 47-83 74-42 27-86 46-131 57Z"/></symbol><symbol id="𭂄_S" viewBox="0 0 1000 1000" data-size="21"><path transform="matrix(1 0 0 -1 42 950)" d="m884 834-17-10-3-124-8-128-12-113-19-99-21-70 21-26 29-40 12-21 23-42 18-43 8-21-4-25-18-14-25 4-14 18-8 42-12 42-15 43-22 61-32-69-44-63-55-55-64-44-77-37-4 10 70 44 56 49 46 53 36 62 28 71 20 81 15 96 9 110 3 126 1 143v12l62-12 17-11M162 188l53-36 9-16h-21l-16-22-17-18-33-33-19-15-18-14-21-13L37 1l-5 8 31 32 29 34 26 34 23 37 17 34h-1l5 8M354 32l-7 15-18 29-10 16-38 49-14 18-17 18 7 7 40-25 18-13 35-26 29-27 13-14 22-29 3-25-15-18-23-2-20 14-5 13m119 64-5 5-6 5-1 1-1 2-2 2-2 3-4 4-2 2-6 7-2 1-1 2-3 3v2l-5 5-1 1-1 2 54 45h1-2v667l63-10 16-11-16-10V241l125 109 7-7-73-95-118-137h-1l3-20-17 5m-42 47 42-47-50 39 8 8M24 235v22h171v110l64-11 15-10-15-10v-79h57l53 53 63-53v-22H24M4 672l5 7 6 10 6 16 5 19 5 21 5 26 10 58 4 34 5 37h8l6-37 2-27h315l31 26 58-48-27-15-10-4-7-20-31-66-9-20 5-2-11-9-13-27-3 1V375l-63-32v63H153v-63l-63-31v426l63-31h153l31 26 34-27 7 49 4 34 3 25H73l1-18 1-29v-28l-1-23-3-23-3-19-5-19-5-15-54 32m302-121H153V427h153v124m374 53-5 22-12 44-15 43-26 62-10 21 8 6 33-33 16-19 26-40 23-44 10-23 9-24 8-25-5-24-19-13-24 4-13 19-4 24m-374 83H153V571h153v116M4 672l54-32-21-15-23 4-14 19 4 24Z"/></symbol><symbol id="𭂅_J" viewBox="0 0 1000 1000" data-size="21"><path transform="matrix(1 0 0 -1 56 930)" d="M171 269v-35h-55v207c30-10 52-18 66-25h511l35 36c40-25 60-42 60-50 0-4-3-8-9-12l-24-16V236h-55v33H171m382 25h147v97H553v-97m-51 0v97H361v-97h141m-193 0v97H171v-97h138M112 812h660l41 48c49-48 74-79 74-91 0-6-4-10-12-11l-41-7c-17-15-45-35-84-60l-17 16c18 26 32 53 43 80H112c0-35-8-69-25-100-14-26-31-39-50-39-9 0-18 4-26 12-7 7-11 15-11 23 0 10 5 19 15 28 40 36 63 83 70 143l23-2c1-9 3-23 4-40m297-212v63c-78-4-174-7-289-8l-7 23c105 4 203 10 296 18v77c62-3 93-10 93-22 0-8-13-15-40-23v-26c81 9 148 19 201 31 37-23 56-38 56-47 0-11-18-11-53-1-62-8-130-14-204-18v-67h183l42 43c31-20 53-37 68-52l-12-16H462v-61h289l46 51c24-16 48-36 71-59l-11-17H462v-52h-53v52H19l-9 25h399v61H120l-8 25h297M37 3C14 3 2 16 2 42c0 10 10 20 30 31 49 28 83 71 102 131l23-10c-7-63-24-113-52-149C83 17 60 3 37 3m801 20c-14 0-25 11-32 31-17 46-57 95-119 146l13 19c115-51 172-103 172-157 0-26-11-39-34-39m-325 84c-12 0-22 9-30 25-16 33-48 64-96 94l11 19c98-31 147-65 147-103 0-23-11-35-32-35M444 0c-96 0-153 3-171 10-21 8-32 29-32 61v157c64-1 96-9 96-23 0-9-13-17-40-25V87c0-16 6-26 17-29 16-5 54-7 113-7 72 0 118 2 140 5 16 3 28 8 36 17 14 16 23 49 28 98l26-10c0-45 3-73 8-84 4-9 13-13 26-13-1-32-16-50-45-55-31-6-98-9-202-9Z"/></symbol><symbol id="𭂆_K" viewBox="0 0 1000 1000" data-size="21"><path transform="matrix(1 0 0 -1 66 925)" d="M141 698c-4-21-11-31-20-31-8 0-14 9-16 27-3 20-14 43-32 69-17 26-36 47-58 63l6 7c44-27 74-49 89-66 21-21 31-44 31-69m104 10L116 313c-7-22-11-43-11-63 0-19 5-46 15-79 11-34 15-63 15-85-1-36-11-53-31-53-17 0-28 15-31 45-1 9-2 18-2 28 0 14 2 35 5 61s5 44 5 54c0 32-11 54-32 65L0 303l4 10 48-7c15-2 28 9 38 33l145 375 10-6m623 84-6-17H470c13-5 19-10 19-16 0-7-9-13-27-17l-56-270h310l18 27c6 8 11 11 14 11s9-4 19-12l35-35c8-9 12-15 12-19 0-5-11-10-35-18-2-153-15-261-37-324-21-62-61-95-120-98l-69-3c-17-1-25 3-25 11 0 3 1 8 2 14 2 6 3 10 3 13 0 6-3 11-11 14L405 93l5 12 184-40c9-2 18-3 26-3 38 0 64 19 77 57 21 56 34 167 39 333H400l-1-11c-2-14-4-22-6-26s-10-7-24-9c-16-2-24 1-24 8 0-7 5 10 14 49l64 312H235v20h517l22 32c9 15 15 23 18 23 5 0 12-4 21-13l55-45Z"/></symbol><symbol id="𭂇_G" viewBox="0 0 1000 1000" data-size="21"><path transform="matrix(1 0 0 -1 63 970)" d="m507 939 98-34c3-1 5-3 5-5s-2-4-5-5c-13-4-24-12-33-24V677h213l33 40 47-39c6-4 9-8 9-11s-3-5-9-8l-20-12V499c-1-177-10-292-27-343-17-53-38-89-65-109-28-19-62-31-103-35-3 14-10 25-22 33-30 15-63 25-99 31l2 16c67-13 112-19 133-19 43-2 76 22 99 72 25 50 37 157 37 321v191H572c-3-105-10-186-21-242-17-89-55-170-114-245C380 95 301 39 200 0l-2 11c174 104 277 243 309 418 9 50 15 126 18 228H412c-18 1-31-3-39-13l-35 33h188v222c-5 9-13 18-26 27l7 13M289 741l17-8c-17-41-43-103-79-188-29-69-47-111-53-126-19-48-32-85-38-112-7-26-6-72 3-139 9-69 1-103-23-104-24-2-32 32-24 102 7 71 6 112-3 125-9 14-39 24-89 29l2 17c50 0 80 4 91 12 12 9 26 30 42 62 2 5 7 16 16 34 55 111 101 210 138 296M18 847l6 13c94-25 144-65 149-122 3-25-3-41-18-46-14-5-23 5-27 31s-13 48-28 67-42 38-82 57Z"/></symbol><symbol id="𭂈_J" viewBox="0 0 1000 1000" data-size="21"><path transform="matrix(1 0 0 -1 60 923)" d="M377 112h166v735c70-5 105-14 105-28 0-9-15-18-45-27V112h178v517c66-4 99-14 99-29 0-8-14-17-41-27V0h-58v87H377V0h-59v629c65-3 97-11 97-25 0-9-13-18-38-28V112M0 298v26c17-2 30-4 40-4 25 0 44 12 58 34 59 97 120 221 184 375l23-18-154-387c-10-25-15-48-15-68 0-13 3-30 7-53 8-39 12-77 12-112 0-43-14-65-41-65-25 0-38 11-38 33 0 3 3 24 9 62 4 27 6 51 6 72 0 40-10 68-30 83-14 10-35 17-61 22m20 494 13 17c55-21 96-48 122-82 16-19 23-36 23-52 0-27-13-41-39-41-15 0-26 11-31 33-11 43-40 84-88 125Z"/></symbol><symbol id="𭂉_K" viewBox="0 0 1000 1000" data-size="21"><path transform="matrix(1 0 0 -1 68 932)" d="M654 297c-1-31-6-47-14-47-13-3-27 9-41 34l-22 30-11-17c-61-93-147-169-258-231l-9 10c101 67 179 145 233 236 7 10 13 21 20 33-26 28-57 55-95 82-9-16-19-31-29-46-48-67-113-125-193-175l-8 11c86 60 154 137 203 230-20 13-40 25-62 38l8 9 62-29c30 62 51 131 64 207h-84c-44-100-101-183-170-250l-13 12c101 109 164 253 189 430l52-12c15-5 22-10 22-16 0-7-10-14-29-22-11-35-25-75-42-122h351l15 22c6 8 10 12 12 12s8-5 15-13l34-31c6-8 9-13 9-17 0-6-10-12-31-18 2-180-4-314-17-402-12-87-30-148-55-183-21-29-54-49-98-59-8-2-14-3-19-3-11 0-16 5-16 16-1 12-4 19-9 22l-91 30 3 14 103-18c8-1 16-1 23-1 47 0 80 40 99 120 19 86 30 249 32 489h-66c3-15-6-23-28-25-17-104-45-196-84-274 25-20 40-46 45-76m-6 375h-75c0-12-7-19-22-23-22-76-49-142-79-199 45-22 79-40 103-54 35 79 59 171 73 276m-403 41L116 318c-7-22-11-43-11-63 0-19 5-45 15-79 11-34 15-62 15-85-1-35-11-53-31-53-17 0-28 15-31 45-1 9-2 19-2 28 0 15 2 35 5 61s5 44 5 55c0 31-11 53-32 64L0 309l4 9 48-6c15-2 28 8 38 32l145 375 10-6m-104-10c-4-21-11-31-20-31-8 0-14 9-16 27-3 20-14 44-32 70-17 26-36 46-58 62l6 7c44-27 74-49 89-66 21-20 31-43 31-69Z"/></symbol><symbol id="𭂊_G" viewBox="0 0 1000 1000" data-size="21"><path transform="matrix(1 0 0 -1 36 947)" d="m318 886 49-33h412l34 40 51-48c5-4 6-7 5-10s-4-6-11-7l-17-9V681l4-67c4-26-12-40-49-43v51H380c-4-111-12-208-24-291C337 199 285 89 201 0l-11 10c68 100 110 207 125 320 16 112 23 280 20 503-3 14-11 29-26 44l9 9m62-244h416v191H382c1-61 0-125-2-191m424-179 71-64c4-4 5-7 4-9s-4-3-11-4c-19 3-39 2-59-2-100-43-196-79-287-110V127c2-29 8-49 19-59 9-9 29-15 60-16 26-2 79-3 160-4l58 1c31 7 48 20 51 41 5 31 9 84 12 157h14l2-108c-1-35 9-57 29-67-19-36-44-55-75-58-16-4-50-5-103-4-81-1-146 1-193 8-50 3-76 42-79 115v364c-1 15-11 30-29 45l8 10 102-38c4-4 4-7-1-9-11-1-23-7-35-17V296l32 14c154 67 236 110 247 129 1 7-1 13-5 18l8 6M266 720l17-8c-52-164-87-270-105-318-19-47-32-84-38-111-7-26-6-73 3-140s1-101-23-103-32 32-24 102c7 69 6 110-3 125-9 14-39 24-89 29l2 17c48-1 78 3 91 12 12 9 26 29 42 62 15 33 58 144 127 333M0 872l6 14c94-25 144-66 149-122 3-26-3-41-17-46-15-5-24 5-28 30-4 27-13 49-28 67-15 19-42 38-82 57Z"/></symbol><symbol id="𭂋_G" viewBox="0 0 1000 1000" data-size="21"><path transform="matrix(1 0 0 -1 40 966)" d="m354 408 47-54h346l44 46 53-54c5-4 6-7 5-10s-4-6-11-7l-17-9V136l4-84c-1-21-17-36-49-44v71H402V45c1-24-17-39-52-45 3 26 6 64 7 115v226c1 20-5 38-19 53l16 14m48-309h374v235H402V99m145 832 90-33c9-3 11-7 6-11-13-5-23-11-31-20V731h202l34 41 64-47c7-5 10-9 8-11-1-3-8-4-19-3H612V520h163l34 41 64-47c7-5 10-9 8-11-1-3-8-4-19-3H399c-17 1-32-4-44-13l-33 33h245v191H365c-18 1-33-4-44-13l-34 33h280v146c1 12-8 26-28 43l8 11M254 712l17-8c-13-41-29-93-48-157-26-85-42-137-49-154-19-48-31-85-38-112-7-26-6-72 3-139 9-68 2-103-23-104-24-2-32 32-24 102 8 69 7 110-3 125-9 14-39 24-89 29l2 18c48-1 78 3 91 11 11 7 25 28 42 62 6 12 22 54 47 127 28 78 52 145 72 200M30 862l6 14c95-25 144-66 149-122 3-26-3-41-18-46-14-5-23 5-27 30-4 27-13 49-28 68-17 21-45 39-82 56Z"/></symbol><symbol id="𭂌_G" viewBox="0 0 1000 1000" data-size="21"><path transform="matrix(1 0 0 -1 47 972)" d="m544 944 87-33c9-4 11-7 6-10-13-4-23-10-30-18V689h173l34 40 52-48c5-4 6-8 5-10-1-4-4-6-11-7l-18-9V428l5-67c1-16-3-26-11-32-9-6-22-10-39-11v59H607V117l213 19c-1 1-2 3-4 6-3 6-6 10-8 12-22 32-54 71-97 116l8 11c51-40 89-72 116-98 24-27 43-54 56-81 13-30 18-54 14-73-5-20-14-29-27-28-15 2-25 19-29 53-2 20-8 40-17 60-142-16-248-29-317-39-54-7-104-14-150-22-47-8-76-21-89-39l-43 70 329 29v264H374v-41c0-14-5-24-14-30-9-8-22-13-39-15 3 26 5 87 8 184v208c-5 15-11 29-19 41l15 12 41-47h196v204c1 9-7 23-26 41l8 10M374 669V397h188v272H374m423 0H607V397h190v272m-536 35 18-7c-28-86-62-178-103-277-4-11-7-19-9-23-22-59-35-96-39-111-7-27-6-74 3-141 9-66 2-100-23-102S75 74 83 143c9 70 8 112-3 126-9 15-36 25-80 29l2 18c42-2 69 2 82 12 12 7 26 27 43 61 33 65 77 170 134 315M31 854l6 14c94-25 144-66 149-122 3-26-3-41-17-46-15-5-24 5-28 30-3 26-13 49-28 68-17 20-45 39-82 56Z"/></symbol><symbol id="𭂍_K" viewBox="0 0 1000 1000" data-size="21"><path transform="matrix(1 0 0 -1 54 922)" d="M28 792c43-28 75-52 96-73s32-39 32-53c-1-23-8-37-20-42s-20 1-25 19c-5 17-14 35-27 56-16 27-36 55-63 83l7 10M2 331c31-7 52-9 63-7 15 3 27 14 38 33l77 170 100 222 13-3-79-210-81-208c-13-31-18-60-18-86 1-15 5-36 13-60 3-13 5-22 7-28 2-10 4-20 5-30 0-20-4-36-10-49-6-12-13-19-23-21-9-2-17 1-24 9-8 9-13 22-15 39-1 9-1 20 1 33 1 6 3 17 7 33 7 31 9 55 7 70-3 24-15 45-38 62L0 321l2 10m419 517 70-14c22-5 29-10 21-17-7-6-20-11-40-14V497h39l43 41 55-37c8-5 10-10 6-14-3-4-10-7-20-7H472V168c12 5 24 9 36 15 8 2 19 7 35 15l62 26 5-10c-38-23-84-49-137-77-67-35-128-66-185-93-1-21-3-34-9-38-6-6-15 3-27 28l-21 41c10 3 21 7 33 12 12 4 23 9 34 15v502l-5 44 61-14c24-6 34-12 31-17-2-3-16-9-41-18V116l38 15 44 16v656l-5 45m267-9c22-5 33-10 33-15-2-6-13-11-33-16V480l52 59 80 85 40-41c10-13 14-22 12-26-3-6-17-5-43 5-10-8-23-17-38-27-8-6-22-15-42-27l-61-43V102c0-10 0-16 2-19 4-5 11-7 23-8h6c18 0 31-1 40-1 15 0 27 1 36 2 16 5 28 21 37 49 6 18 14 52 23 104l15-4-14-149c26-11 38-20 36-28-2-9-17-15-46-17l-33-1c-28 0-50-1-64-1-25 0-44 0-57 1-20 1-33 6-41 16-7 8-10 23-10 45v702l-2 56 49-10Z"/></symbol><symbol id="𭂎_J" viewBox="0 0 1000 1000" data-size="21"><path transform="matrix(1 0 0 -1 51 951)" d="M598 686c33 69 60 140 82 215 64-23 96-42 96-56 0-10-15-15-46-17-21-40-53-88-97-142h128l49 64c27-24 49-48 66-69l-11-20H590V497h148l50 64c24-24 45-47 63-69l-11-20H590V299h189l54 68c24-24 46-48 65-73l-11-20H590V0h-61v274H255l-9 25h283v173H317l-9 25h221v164H301l-9 25h306m-130 14c-19 0-31 13-35 39-6 47-30 94-72 141l16 17c86-52 129-104 129-155 0-28-13-42-38-42M0 312v26c17-3 30-4 40-4 25 0 44 11 58 34 53 89 109 218 169 387l23-18-139-399c-10-28-15-51-15-68 0-13 3-31 7-53 8-40 12-77 12-113 0-43-14-64-41-64-25 0-38 11-38 33 0 3 3 23 9 62 4 26 6 50 6 72 0 40-10 68-30 83-14 10-35 17-61 22m20 494 13 17c55-21 96-48 122-82 16-19 23-37 23-52 0-27-13-41-39-41-15 0-26 11-31 33-11 42-40 84-88 125Z"/></symbol></svg>