<svg xmlns="http://www.w3.org/2000/svg"><symbol id="𭅿_K" viewBox="0 0 1000 1000" data-size="21"><path transform="matrix(1 0 0 -1 83 953)" d="M626 460c44-24 75-45 92-64 19-20 29-42 30-65-2-13-8-21-19-23-11-1-18 5-22 18-6 20-16 40-29 60-17 25-37 48-61 69l9 5m-385-22c0 4 0 9-1 15 0 3 0 8-1 15v6l51-7c20-4 29-8 27-11 0-3-11-6-31-10v-95c0-8 2-13 7-16s16-6 31-9c23-2 53-3 89-3 39 0 72 2 98 5 17 5 29 16 37 32 5 11 12 35 21 70l3 8h11l-6-98c22-9 32-15 30-21-2-5-18-10-48-15-48-5-92-7-131-8-43-1-81 0-115 3-30 2-50 8-60 15-8 6-12 16-12 31v93m-85 31c2-39-5-76-20-111-12-28-27-49-45-63-8-6-15-6-22-1-9 6-12 19-10 36 0 5 2 10 5 15 3 2 8 7 14 13 16 13 29 24 37 35 13 20 23 45 31 76h10m204 22c39-17 67-31 84-42 21-13 31-26 33-40-4-15-10-24-17-27-8-5-16 1-24 16l-3 4c-10 14-19 25-27 35-13 14-31 29-52 46l6 8m407-249c15-9 19-15 12-19-4-3-13-4-29-4V106c0-16-7-30-20-39-15-11-39-17-73-19-5 12-14 21-26 27s-38 14-77 23l2 3 52-2c17-1 29-2 36-2 9-1 18-2 25-3 11 0 19 1 23 4 6 2 9 6 9 12v122H429c8-2 14-5 16-7 4-3 5-5 4-6-2-2-10-4-23-7V37l1-10c2-7 2-11 0-13-3-5-10-9-23-12-13-2-22-2-24 0-2 3-3 7-3 14l1 5v211H146l-83-4-9 18 81-4h556l36 24 40-24M374 882c15-8 20-13 14-16-6-2-17-1-35 3l-72-15c9-3 8-6-3-10-6-3-15-5-25-7v-87h78l39 30 50-27c8-5 11-8 7-10-3-2-8-4-17-4H253l-1-51 22-7c36-13 61-22 74-30 21-12 32-26 32-41-1-9-4-16-11-19s-15 1-24 12c-7 9-18 21-34 35-15 11-35 24-59 38l1-128v-13c1-6 1-11-1-13-2-4-9-8-20-10s-17-1-20 1c-1 0-2 5-1 12l1 8v134c-27-27-56-51-85-74-38-29-78-54-121-75l-6 7c36 21 73 50 110 85 39 39 73 80 101 124l1 5H69c-9 0-17-1-23-3l-12 16c7-1 17-1 29-2h149v94c-27-4-54-8-81-11l-95-8-4 6c65 9 123 20 175 31 51 12 95 26 133 41l34-21m219 15c24-5 35-9 33-13-1-3-12-6-33-8v-74c-2-27-3-50-6-69 31 18 62 37 93 57 28 21 58 44 88 68l37-22c17-9 24-15 22-19-2-3-15-3-39 0l-103-52c-41-19-74-34-100-43l-2-14c33-44 72-80 115-109 37-24 82-45 134-63l2-8c-11 2-23 0-36-6-13-5-21-11-25-17-42 27-78 54-109 83-34 32-62 66-85 102-14-46-40-83-79-112-43-32-107-58-191-79l-7 9c63 18 112 39 146 61 35 22 60 49 75 80 15 28 24 65 27 109 2 31 1 81-2 148l45-9m-102-81c1-36-2-67-8-91-5-29-16-51-30-67-8-8-16-11-25-8-9 5-14 16-15 35 1 5 3 10 6 14 2 2 5 5 10 8 11 10 20 20 26 30 10 19 19 46 24 81l12-2Z"/></symbol><symbol id="𭆀_S" viewBox="0 0 1000 1000" data-size="21"><path transform="matrix(1 0 0 -1 66 946)" d="m102 871 62-32h589l53 53 62-53v-21H164V497l-2-70-6-66-9-60-11-58-14-53-17-47-20-44-22-38-27-34L7 0 0 6l20 32 18 36 16 39 13 42 12 47 9 51 7 55 5 58 2 64v441M522 19l-52 2-45 6-38 13-32 19-21 30-8 35 6 36 15 36 25 39 32 42 48-42-29-37-21-31-9-25-4-17 3-11 5-8 15-9 26-8 38-6 46-2h244l31 131h10L797 81l18-13 13-18-13-20-18-11H522m108 505 58-47-27-16-22-9-187-217-48 42 175 200H320v21h279l31 26M358 784l59-25 13-14-20-6-23-66-14-30h304l52 51 63-51v-22H363l-12-27-22-37-22-37-51-67-28-31-31-28-7 6 63 104 37 73 30 75 14 40 12 41 9 42 3 9Z"/></symbol><symbol id="𭆁_J" viewBox="0 0 1000 1000" data-size="21"><path transform="matrix(1 0 0 -1 53 939)" d="M348 484v-44h-56v286c22-9 43-19 63-29h343l38 42c42-31 62-51 62-60 0-5-3-10-11-15l-23-15V446h-57v38H348m0 25h359v163H348V509M177 812h582l53 67c29-25 53-48 73-71l-10-21H168V576c0-256-48-448-145-576L0 15c71 126 106 313 106 561v265c33-13 57-22 71-29M566 29c-138 0-222 4-252 13-39 11-58 31-58 62 0 27 24 58 71 93 54 40 150 96 288 168H240l-11 25h401l35 33c42-32 63-53 63-63 0-7-4-10-13-11l-29-4c-126-57-234-117-324-181-28-21-42-37-42-50 0-14 10-23 31-27 29-6 93-9 191-9 129 0 207 6 232 18 24 11 40 65 49 162l25-10c1-70 4-112 10-125 5-11 17-17 35-17-2-33-17-52-46-59-50-12-143-18-281-18Z"/></symbol><symbol id="𭆂_J" viewBox="0 0 1000 1000" data-size="21"><path transform="matrix(1 0 0 -1 49 943)" d="M321 712h407l37 44c40-29 60-49 60-59 0-4-3-8-8-12l-25-19V450h-56v30H309v-35h-56v297c29-13 52-23 68-30m-12-25v-75h427v75H309m427-182v82H309v-82h427M171 790V579c0-128-10-236-30-323C119 160 80 75 23 0L0 16c73 128 110 315 110 562v267c22-8 45-18 70-30h600l51 71c27-25 51-50 72-75l-10-21H171M574 32c-138 0-222 4-252 13-38 11-58 31-58 62 0 27 24 58 71 93 54 40 150 96 289 168H249l-12 25h401l35 33c42-32 63-53 63-63 0-7-4-10-13-11l-29-4c-126-57-234-117-324-181-28-21-42-37-42-50 0-14 11-23 31-27 29-6 93-9 191-9 130 0 207 6 232 18 24 11 40 65 50 162l24-10c1-70 5-112 10-125 5-11 17-17 35-17-2-33-17-52-46-59-49-12-143-18-281-18Z"/></symbol><symbol id="𭆃_J" viewBox="0 0 1000 1000" data-size="21"><path transform="matrix(1 0 0 -1 52 937)" d="M712 506H568c7-55 16-101 27-139h177l47 57c27-23 48-44 63-63l-11-19H603c33-99 84-174 154-225 17-13 30-19 40-19 19 0 36 47 50 141l26-14c-5-51-7-89-7-114s10-40 31-44c-6-35-22-52-49-52-35 0-75 17-120 52-81 60-139 149-177 268H338V114c73 12 154 30 242 52l9-28C462 96 345 62 237 38c-5-25-12-38-19-38-14 0-31 30-51 91 33 2 70 7 112 14v610c20-8 44-20 72-36h353l37 45c39-30 59-49 59-58 0-4-3-9-10-13l-21-15V468h-57v38m0 25v123H338V531h374m-374-25V360h205c-12 40-21 89-28 146H338M189 806h547l54 69c28-23 54-48 77-73l-10-21H178V541c0-144-16-262-49-355C105 116 69 54 21 0L0 16c45 71 76 147 93 228 16 76 24 175 24 297v300c15-7 38-19 72-35Z"/></symbol><symbol id="𭆄_J" viewBox="0 0 1000 1000" data-size="21"><path transform="matrix(1 0 0 -1 43 945)" d="M467 574v91H251l-11 25h227v96c66-5 99-14 99-28 0-8-14-16-42-25v-43h210l36 44c39-30 59-50 59-58 0-4-4-8-10-13l-21-15V394h-55v30H246l-12 25h233v100H167c-4-237-52-417-144-539L0 25c71 126 106 313 106 561v265c33-13 57-22 71-29h592l53 67c29-25 53-48 73-71l-10-21H168V574h299m57 0h219v91H524v-91m0-125h219v100H524V449M383 313v-21c0-101-29-174-88-220-42-32-105-56-189-72L93 22c105 28 172 71 202 130 20 38 29 83 29 136v80c24-9 46-19 67-30h189l36 39c41-28 61-46 61-56 0-4-2-7-7-10l-27-16V122c0-17 6-28 19-33 12-4 34-6 67-6 51 0 82 10 91 29 10 20 17 59 22 117l27-9c0-56 3-91 10-105 5-11 16-16 34-16-1-31-15-50-41-57-29-7-75-11-138-11-57 0-96 5-118 14-19 8-29 27-29 58v210H383Z"/></symbol><symbol id="𭆅_G" viewBox="0 0 1000 1000" data-size="21"><path transform="matrix(1 0 0 -1 28 965)" d="m282 738 45-40h133l17 41c15 35 23 58 22 71 0 1 0 2-1 3-3 9-6 17-9 23l8 7 68-27c11-8 13-13 7-15-15 1-26-3-32-11-5-9-14-23-25-42-13-23-23-40-30-50h265l37 38 48-46c5-4 6-7 5-10s-4-6-11-7l-17-8V430l5-128c-1-12-5-20-13-25-7-4-19-8-35-12v66H650V127c0-34 5-54 16-59 11-7 58-9 142-7 33 2 51 11 54 27 5 33 8 74 10 123h12l4-73c0-34 9-55 28-63-11-20-22-33-32-38-7-5-22-9-45-11-20-1-75-2-166-3-47 4-69 40-66 109v199H492c-3-59-15-113-37-161-23-40-58-75-103-105-48-31-110-50-186-57l-2 12c73 23 129 47 168 72 35 28 63 58 82 91 19 41 31 91 35 148H332v-34c0-14-4-24-12-31-8-6-20-10-37-13 2 13 4 53 5 118 1 12 1 21 1 27v290c-2 15-8 28-19 39l12 11m50-231V351h437v156H332m0 171V523h437v155H332M98 930l46-44h694l32 39 67-49c5-4 7-7 6-9-1-1-5-2-12-1H152V706c-1-75-1-132-1-170-1-116-12-214-31-294C99 166 61 85 8 0L0 14c44 97 73 184 86 262 14 79 21 172 22 281 0 37 0 92 1 164v150c0 16-8 32-23 47l12 12Z"/></symbol><symbol id="𭆆_J" viewBox="0 0 1000 1000" data-size="21"><path transform="matrix(1 0 0 -1 46 954)" d="M277 698c-58-77-145-137-263-180L0 536c92 44 164 100 217 168h-97c-3-13-7-27-12-42l-55 9c17 53 29 102 36 145 55-6 83-14 83-24 0-9-12-16-34-20-2-10-6-24-11-43h150v104H55l-11 25h316l41 47c25-19 45-37 60-54l-12-18H330V729h35l42 49c24-17 45-36 63-55l-12-19H330V549c0-36-27-55-80-55 0 13-7 24-20 31s-33 13-62 18v22c31-3 59-4 83-4 17 0 26 7 26 22v115m363-60c-31 28-61 62-88 102-22-31-48-60-80-87l-19 15c53 64 89 144 108 239 61-7 91-16 91-27 0-7-13-15-40-22-9-23-16-41-23-54h217l43 50c24-20 43-39 58-58l-10-17h-98c-21-54-49-100-84-138 56-30 119-49 191-58-16-16-30-34-41-55-72 16-134 43-186 80-59-50-138-84-236-104l-12 23c86 27 155 64 209 111m30 30c29 33 50 70 64 111H576l-9-15c32-39 67-70 103-96M179 480h588l46 51c24-17 47-36 70-57l-11-19H172V329C172 191 121 82 19 0L0 16c76 89 114 193 114 313v177c19-6 41-15 65-26Z"/></symbol><symbol id="𭆇_J" viewBox="0 0 1000 1000" data-size="21"><path transform="matrix(1 0 0 -1 37 949)" d="M664 585h-34c-19-80-47-151-83-215l-22 10c40 108 64 240 72 395 63-9 94-21 94-34 0-9-13-16-38-22-5-43-11-80-17-109h175l34 44c42-42 62-67 62-77 0-4-4-8-11-11l-29-10c-24-58-53-111-86-160l-22 10c25 62 44 122 55 179h-94v-77c1-189 70-336 205-441-22-17-39-36-50-57-88 85-142 198-163 341-12-91-40-166-85-224-37-49-90-92-159-127l-15 20c87 58 146 132 177 224 23 65 34 150 34 255v86M310 270H173l-8 24h145v148H193l-8 25h125v132c-42-6-84-10-125-12l-8 25c49 6 93 15 133 25v135c62-6 92-15 92-27 0-9-12-17-38-25v-69c40 11 77 23 111 37 35-24 52-41 52-51 0-9-14-10-43-4-39-11-79-19-120-26V467h53l42 60c21-21 41-44 57-67l-13-18H364V294h75l46 66c22-23 43-47 61-72l-13-18H364V5h-54v265M166 836h617l50 62c26-21 50-44 71-67l-13-20H160V614c0-153-11-277-34-372C105 153 70 75 23 7L0 22c67 133 101 330 101 591v252c27-10 48-20 65-29Z"/></symbol><symbol id="𭆈_G" viewBox="0 0 1000 1000" data-size="21"><path transform="matrix(1 0 0 -1 28 964)" d="m765 522 9 10c88-59 131-108 128-147 1-22-6-34-20-37-15-3-23 6-24 27-1 2-1 5-2 9-1 11-3 20-5 26-23-3-55-6-98-11l-54-6V87c-1-23-7-40-16-51-7-11-33-23-78-34 4 30-30 51-102 63l4 17 31-7c46-11 77-13 94-6 17 6 26 23 26 51v269c-2 0-5 0-8-1-5-1-11-1-17-1-27-2-55-5-86-8-13-1-34-9-62-24l-32 51c29 9 43 14 44 16 1 1 8 7 21 18 11 9 21 17 29 24 31 27 68 61 109 103 3 3 7 8 12 13 5 6 9 10 12 13-8-1-19-2-34-3-13-1-30-3-51-4-56-1-91-13-104-35l-38 52c16 5 27 10 33 15 10 9 23 22 38 40 39 45 72 88 101 130-1 8-4 15-10 22l8 8 69-37c3-3 5-5 5-7 0-3-2-5-5-6-13 1-24-1-32-8-39-44-91-94-154-151l196 9c19 22 34 44 46 65 1 16-2 27-7 34l7 8 74-47c3-2 4-4 5-6-1-2-2-4-5-5-13 1-24-1-33-8-85-93-174-175-267-248l319 23c-13 25-39 55-76 88M526 317l70-43c11-7 14-12 7-15-15-1-26-3-35-6-61-99-122-167-183-204l-7 9c45 45 81 91 109 138 30 49 43 77 39 83-2 9-6 18-11 28l11 10m233-30 7 12c62-34 106-71 132-112 15-21 23-43 23-66 0-24-8-37-23-39-15-1-23 10-24 33-4 59-42 117-115 172M98 927l46-44h694l32 39 67-49c5-4 7-7 6-9-1-1-5-2-12-1H152V708c-1-73-1-128-1-166-1-116-12-214-31-294C99 172 61 91 8 6L0 20c44 97 73 184 86 262 14 79 21 172 22 281 0 37 0 90 1 159v146c0 16-8 32-23 47l12 12m64-568-10 11c49 72 86 129 110 170 29 50 57 103 84 158 22 49 33 80 34 93 0 2-2 7-7 15-2 5-4 8-5 10l7 7 76-32c6-7 5-12-3-14-9-2-18-6-28-12-23-55-49-109-78-163V79l2-36c0-14-5-24-14-30-6-5-18-9-36-13 3 24 5 66 7 126v313l-1 28c0 34 0 55-1 64-42-63-88-120-137-172Z"/></symbol><symbol id="𭆉_J" viewBox="0 0 1000 1000" data-size="21"><path transform="matrix(1 0 0 -1 52 955)" d="M275 633c48-10 89-24 122-41s49-33 49-48c0-19-8-28-25-28-12 0-24 6-35 18-27 31-64 55-111 74V502h-50v109C168 550 98 500 14 461L0 480c80 47 148 108 204 182H28l-11 25h208v118H48l-11 25h188v80c56-2 84-9 84-22 0-7-11-15-34-24v-34h88l41 47c25-19 45-37 60-54l-12-18H275V687h118l41 47c25-19 45-37 60-54l-12-18H275v-29m393 127c-9-64-30-117-64-161-29-37-70-71-123-100l-20 17c86 64 136 144 150 241H494l-10 25h130c2 24 2 43 2 56v72c59-4 89-12 89-25 0-7-11-16-32-25v-22c0-12-1-30-2-53h115l31 38c38-28 57-48 57-59 0-5-3-9-8-12l-21-11c-1-79-9-136-24-172-17-40-48-61-93-61-1 13-7 23-20 29-11 5-33 11-65 16v27c26-4 52-6 80-6 27 0 44 12 51 34 12 40 18 91 18 152H668M182 480h598l46 51c25-17 48-36 70-57l-11-19H175V329C175 191 124 82 22 0L3 16c76 89 114 193 114 313v177c20-6 41-15 65-26m-30 211c-14 0-23 8-26 25-5 25-18 46-39 65l11 16c28-9 51-21 67-36 13-13 19-26 19-39 0-21-11-31-32-31m168-1-19 10c12 22 25 55 39 98 48-13 72-24 72-34 0-8-12-13-35-15-17-22-36-42-57-59Z"/></symbol><symbol id="𭆊_S" viewBox="0 0 1000 1000" data-size="21"><path transform="matrix(1 0 0 -1 42 968)" d="m890 190-42 16-1 1-16 6 6 16 4 20 3 25v27l-5 30-9 29-15 31-20 30-27 28-36 30-6 5 59 142 28 76 9 25H675V31L612 0v779l63-31h151l31 26 58-47-26-16-10-4-26-52-28-49-32-50-18-26-20-25-15-18 43-15 37-27 31-31 21-34 15-36 9-35 3-35v-31l-3-28-6-25m-699-19-3 14 50 9 7 2v531h-58v21h295l53 53 64-53v-21h-89V31L447 0v222l-56-28-57-23-81-30-25-9-4-1-7-21-14 14-1 4-1 4v1l-10 34v4m-83 744 63-31h625l52 53 63-53v-21H171V526l-3-73-6-67-9-65-11-59-15-56-18-50-20-46-25-41-27-34L7 6l-7 7 21 34 20 37 17 40 14 45 12 49 10 53 8 57 4 62 2 66v459m723-702 59-23-5-12-7-11-9-11-9-10-9-7-12-6-12-5-12-4-13-2-13-1v31l-53 16v17h60l6 1 5 1 5 1 3 3 3 2 4 4 3 4 3 6 3 6m-643-28 15-61-26 58 11 3m259 195H308V210l12 3 91 22 32 7h4v138m0 174H308V401h139v153m0 173H308V574h139v153Z"/></symbol><symbol id="𭆋_G" viewBox="0 0 1000 1000" data-size="21"><path transform="matrix(1 0 0 -1 43 961)" d="M557 554c9-3 13-5 13-8 1-3-3-7-11-10-17 1-31-10-43-32-3-4-8-13-17-28-7-12-12-20-14-23h312l34 38 66-49c7-4 9-7 8-8s-8-2-19-1H473c-26-37-57-75-92-113h304l35 29 42-36c5-4 6-7 5-10s-5-6-12-7l-18-9V166l6-102c4-26-11-40-45-43v59H373V54c1-25-13-41-43-46 1 26 3 49 5 68v193c-65-58-137-106-218-145l-8 15c91 59 160 114 209 163 43 43 78 87 105 131H245c-17 0-32-5-45-14l-33 34h268c31 50 47 81 50 94 1 10-2 19-11 27l8 11 75-31M373 301V99h325v202H373M71 920l40-39h698l33 41 63-48c7-5 10-9 9-11-1-3-7-4-18-3H124V745c1-92 1-164 0-217-1-116-8-215-23-297C86 150 55 73 10 0L0 8c34 83 56 167 66 251 9 85 14 182 15 290 1 47 1 115 0 204v108c0 16-7 32-21 47l11 12m545-98 85-27c9-3 11-7 6-12-14-5-24-12-30-20v-75h87l31 37 67-46c6-3 8-5 6-6-2-2-7-3-16-4H677l3-99c1-25-17-40-52-44 6 23 9 52 10 87v56H413l3-92c1-23-16-39-50-46 4 33 6 64 7 93v45H261c-16 1-31-4-44-13l-34 32h190v73c1 10-9 25-29 45l9 12 84-36c8-3 10-7 5-11-13-5-23-11-29-20v-63h225v84c1 10-9 23-30 39l8 11Z"/></symbol><symbol id="𭆌_K" viewBox="0 0 1000 1000" data-size="21"><path transform="matrix(1 0 0 -1 61 935)" d="M837 728c12-11 17-20 15-27-3-7-14-12-33-13-3-131-14-220-33-268-20-48-57-76-109-85-4 18-12 31-24 39-14 10-37 19-68 24l3 18 21-5c41-10 68-14 79-13 12 2 27 12 46 29 15 17 26 51 34 102 5 47 8 107 6 182H663c-2-85-18-154-49-207-30-54-80-97-148-130l-8 10c54 30 93 70 118 120 27 53 40 122 39 207h-38l-49-2-18 23 69-2h181l25 37 52-39m-461-45h42l40 41 50-37c9-8 12-13 9-16-4-5-11-7-20-7H376v-71h39l42 43 52-38c9-8 12-13 9-17-3-3-10-5-20-5H376v-72l145 18 4-11-149-40v-63l1-17c1-11 1-18 0-21-3-6-9-12-21-17-13-8-22-9-25-4-2 2-2 9-1 23l2 27v60l-72-21-1-9c-1-23-2-35-4-37-4-5-12 5-23 30l-26 58 126 17v79h-23l-85-4-13 23 82-2h39v71h-26l-85-3-15 25 65-3h61v36l-5 53 47-14c18-7 28-13 29-18 1-6-8-12-27-19v-38M879 48c-14 0-27-5-41-16-11-8-19-18-25-30-70 20-129 50-177 90-46 38-80 84-102 138-28-71-76-128-143-169C328 23 255 3 172 0l-5 12c85 12 156 41 213 86 58 41 96 92 113 153H288l-67-5-13 25 64-2h224c3 13 5 29 7 45 1 11 1 27 2 49l1 11 46-4c27-1 39-5 36-12-3-5-15-13-36-21l-2-24-3-20-2-24h183l49 50 60-48c6-6 7-11 2-15-3-3-10-5-20-5H541c28-54 67-96 118-127 57-35 129-54 215-58l5-18m-66 821 52-32c10-6 14-11 12-16s-9-8-22-8H139V582c0-135-10-250-31-343C88 139 55 61 10 4L0 9c29 54 52 129 67 224 13 79 20 158 20 236v333l-5 67 57-41h634l40 41M547 637c51-37 88-74 109-111 21-35 25-69 13-100-6-12-13-16-22-13s-15 14-18 33c-4 20-12 44-25 74-19 43-41 79-66 110l9 7Z"/></symbol><symbol id="𭆍_K" viewBox="0 0 1000 1000" data-size="21"><path transform="matrix(1 0 0 -1 63 931)" d="m873 805-7-16H139V638C139 302 97 90 13 1L0 5c39 53 65 133 79 238 12 83 18 209 18 376v170l-5 49 52-29h618l30 39c8 9 13 14 15 14 3 0 9-4 19-13l47-44m-41-157-8-14H685v-68c-2-4-9-9-22-14-8-3-13-5-17-5l-5 6c-1 2-1 8 0 17 0 14 1 24 1 32v32h-86v19h86v90l41-11c15-5 22-11 22-17s-7-12-20-18v-44h62l24 31c6 6 9 9 10 9 2 0 7-3 16-9l35-36m-312-1-6-13H403v-64c-1-6-7-12-19-19-7-3-13-5-16-5-4 0-7 2-8 6v82H226v19h135v56l-2 33 44-11c17-3 26-8 26-13s-9-12-26-22v-43h30l25 31c5 5 8 8 10 8s6-3 12-8l40-37m297-451-5-15H543V63c0-27-1-42-2-45-1-4-7-8-20-14-6-3-11-4-13-4-5 0-8 5-9 15 1-13 1 4 1 48v118H224v20h276v105H328c-1-8-2-16-3-23-1-6-8-12-19-16-6-2-10-3-12-3-6 0-9 4-9 13v231l-6 50 46-22h382l11 11c7 7 11 11 13 11s7-4 16-10l27-23c8-6 12-11 12-14 0-2-9-9-28-20V326c0-24-1-37-1-38-1-6-8-13-21-18-7-5-13-7-15-7-4 0-6 14-6 43H543V201h188l23 30c6 10 11 14 13 14s6-4 12-14l38-35M715 432v84H328v-84h387m0-106v85H328v-85h387Z"/></symbol><symbol id="𭆎_K" viewBox="0 0 1000 1000" data-size="21"><path transform="matrix(1 0 0 -1 63 924)" d="m873 791-10-13H109V585c0-158-4-266-11-325C86 174 57 87 12 0L0 8c33 65 53 147 61 246 4 56 6 166 6 330v195l-3 46 51-27h651l24 32c10 12 16 19 18 19 1 0 7-5 18-15l47-43M479 674c7-7 10-12 10-15 0-4-8-9-24-16V239c0-22 0-34-1-36-1-1-8-5-22-12-9-3-15-4-17-4-1 0-2 10-2 32H226c0-13 0-20-1-22-1-1-8-4-22-9-8-4-13-6-15-6s-4 1-4 5c-1 3-1 10-1 19 0 16 1 28 1 36v422l-3 40 47-24h185l12 12c8 9 14 14 17 14 2 0 6-3 14-9l23-23m24-611c3-27-4-41-19-41-8 0-16 8-23 22-24 49-59 85-104 108l5 10c85-31 132-64 141-99m-216 91c12-6 18-12 18-18 0-9-14-13-40-13C215 70 163 31 107 6l-5 10c61 37 112 90 150 158l35-20m136 379v127H226V533h197m0-148v128H226V385h197m0-146v126H226V239h197m448 305-7-14H748V98c0-22-2-37-5-45-4-11-13-19-27-26l-32-14c-9-3-16-4-22-4-7 0-11 6-13 18-1 13-7 21-17 25l-76 21 5 7 85-11c11-1 20-2 27-2 22 0 33 12 33 36v427H512v20h194v160l-5 44 44-10c19-4 28-9 28-15s-8-13-25-20V550h33l16 25c14 10 19 15 15 15 3 0 12-5 25-15l34-31M631 328c0-22-5-33-16-33-10 0-16 10-19 30-6 35-29 73-69 115l7 8c38-28 62-49 71-60 17-19 26-38 26-60Z"/></symbol><symbol id="𭆏_J" viewBox="0 0 1000 1000" data-size="21"><path transform="matrix(1 0 0 -1 37 952)" d="M630 586c-19-80-47-151-83-215l-22 10c40 108 64 240 72 395 63-9 94-21 94-34 0-9-13-16-38-22-5-43-11-80-17-109h175l34 44c42-42 62-67 62-77 0-4-4-8-11-11l-29-10c-24-58-53-111-86-160l-22 10c25 62 44 122 55 179h-94v-77c1-189 70-336 205-441-22-17-39-36-50-57-88 85-142 198-163 341-12-91-40-166-85-224-37-49-90-92-159-127l-15 20c87 58 146 132 177 224 23 65 34 150 34 255v86h-34m-299-15H188l-8 25h205c25 58 46 121 61 190 57-17 85-32 85-43 0-9-12-15-37-20-16-35-43-77-79-127h47l39 55c20-22 37-42 50-62l-13-18H385V447h38l39 55c21-22 37-42 50-62l-13-18H385V307c51 11 97 22 138 34l8-25c-48-19-98-36-149-51-6-66-24-121-54-164-29-41-71-74-125-101l-16 20c78 55 125 131 139 228-37-11-70-19-99-26-4-27-10-40-19-40-15 0-29 27-42 83 80 14 135 24 164 30 1 6 1 17 1 31v96H213l-9 25h127v124M166 842h617l50 62c26-21 50-44 71-67l-13-20H160V615c0-154-11-278-34-372C105 153 70 75 23 8L0 23c67 132 101 329 101 591v257c36-16 58-25 65-29m124-235c-15 0-24 13-27 39-6 43-23 83-51 118l16 14c65-41 98-84 98-131 0-26-12-40-36-40Z"/></symbol><symbol id="𭆐_J" viewBox="0 0 1000 1000" data-size="21"><path transform="matrix(1 0 0 -1 34 945)" d="M162 822h624l51 68c26-23 49-47 70-72l-11-21H153V581h174v106H205l-13 25h233l40 49c26-22 46-41 60-57l-12-17H381V581h93l43 50c26-23 46-42 58-58l-11-17h-79V0h-55v166c-82-26-157-45-224-58-5-24-12-36-19-36-12 0-26 27-42 83 27 2 55 5 85 9v392h-78c-1-69-4-120-7-155-9-94-25-174-46-241C80 101 55 48 22 1L0 13c61 132 92 323 92 574v265c27-10 50-20 70-30m123-266V452h145v104H285m0-129V318h145v109H285m0-134V171c54 7 102 16 145 25v97H285m401-32c-31 63-57 135-76 217-10 43-20 99-28 168h-45l-12 25h261l34 43c44-34 66-55 66-64 0-4-3-8-9-11l-24-13c-19-145-54-267-108-367 51-81 113-146 186-197-22-15-41-33-55-54-63 54-117 121-161 199C662 126 594 59 511 7l-16 21c80 66 144 143 191 233m26 56c40 93 66 202 80 329H613c14-81 28-144 43-190 14-45 33-92 56-139Z"/></symbol><symbol id="𭆑_S" viewBox="0 0 1000 1000" data-size="21"><path transform="matrix(1 0 0 -1 29 977)" d="m772 30-20-10-12-5-11-3-23-7-12-2-23-2-12-1v32L554 48v15h105l18 1 8 1 8 2 17 4 16 6 7 4 8 5 4 6 2 9 3 11 2 15 2 18 1 20v38H523l-11-28-24-36-28-33-34-27-39-23-44-19-49-14-55-9-2 9 50 19 44 21 38 23 32 24 27 27 20 29 16 31 11 33 5 38v29H218v20h593l43 48 52-48v-20H543l-4-37-9-35h225l31 26 58-48-26-15-1-25-1-23-2-21-2-18-3-18-6-15-7-14-10-13-14-11M96 437l62-32h654l52 53 64-53v-21H158V246l-3-35-6-32-7-32-10-28-14-25-15-24-19-19-21-18-23-13-25-9-5 8 18 17 16 18 14 18 11 20 9 20 8 24 5 24 3 27 2 28v222m198 79 5 1 3 1 3 2 1 1h1l1 4v4l1 7h62v-14l-3-12-4-13-7-12-8-10-11-9-11-6-13-4-13-3-14-1v32l-94 16v16h101m455 62 45-17 50-17 98-24-61-56-58 17-52 21-48 24-43 26-17 13-40-24-55-25-60-22-67-15-72-12-1 10 69 20 61 24 56 26 49 28 26 20-19 18-26 34-21 37-13 40-5 22-26-19-28-16-29-15-6 8 45 45 38 44 18 21 29 45 13 25 10 23 10 25 3 6 55-32 11-15-20-3-21-34-17-24-20-22v-1h202l52 52 64-52v-21H823l-15-49-25-49-30-42-38-41-8-6 42-21M7 720v21h120v139H55v20h284l53 53 62-53v-20h-83V741h25l32 37 42-37v-21h-99V536h-62v133l-45-34-33-23-34-20-35-20-37-17-39-17-40-13-42-12-4 8 108 64 34 21 61 46 28 24 46 44H7m752 66H590l-22-21-11-9 12-25 21-31 24-29 28-26 23-19 16 15 30 36 22 39 18 42 8 28m-450 94H189V741h120v139M771 32l-2 5 2-5Z"/></symbol><symbol id="𭆒_J" viewBox="0 0 1000 1000" data-size="21"><path transform="matrix(1 0 0 -1 49 953)" d="M209 586v-32h-56v299c26-10 48-20 65-30h121v78c60-1 90-8 90-21 0-8-12-16-35-23v-34h130v82c61-1 92-8 92-22 0-8-12-16-37-25v-35h129l36 42c41-30 61-50 61-59 0-4-2-7-7-10l-25-16V557h-57v29H209m370 135h137v77H579v-77m0-25v-85h137v85H579m-55-85v85H394v-85h130m0 110v77H394v-77h130M339 611v85H209v-85h130m0 110v77H209v-77h130m-25-299h375l38 46c43-33 65-54 65-63 0-6-3-10-10-14l-26-16V256c41-25 62-43 62-54 0-7-7-10-21-10-2 0-10 1-24 2-26-18-58-36-95-54 53-29 128-51 224-66-23-19-38-38-46-57-99 26-174 57-224 95-51 37-95 90-132 160H301V101c84 10 166 24 248 42l8-25C438 82 323 54 212 34c-5-23-11-34-18-34-13 0-27 29-43 87 42 3 72 5 91 7v365c17-7 41-19 72-37m-13-25V297h397v100H301m397-125H534c28-47 66-85 113-116 31 25 61 55 91 90h-40v26M166 514h593l49 56c28-22 51-42 69-61l-11-20H156V351C156 195 111 80 19 4L0 21c65 82 98 192 98 330v192c10-3 33-13 68-29Z"/></symbol><symbol id="𭆓_S" viewBox="0 0 1000 1000" data-size="21"><path transform="matrix(1 0 0 -1 32 968)" d="m733 86 34-53-21-12-22-9-11-4-25-5-10-2-13-1h-12v31L548 47v16h122l9 1 8 2 7 2 8 3 9 3 15 8 7 4M90 484l62-31h654l52 53 64-53v-20H152V273l-3-38-4-37-8-35-11-31-13-28-15-27-19-22-21-21-24-14L9 8l-5 8 18 18 15 21 14 20 12 22 9 24 7 25 6 29 3 30 2 33v246M767 33l-18 28-1 2h-1v1l-1 2-2 2-2 3-1 3-1 1-1 2-3 5-3 4 1 3 3 7 4 10 2 14 3 18 2 20 1 24v46H518l-12-32-23-41-28-36-34-31-39-27-44-22-50-17-55-10-2 9 50 20 44 23 38 26 32 27 26 30 20 34 16 35 12 39 6 42 1 36H212v21h593l43 46 52-46v-21H537l-4-43-9-42h225l31 26 58-46-25-16v-4l-1-28-1-26-2-23-3-21-4-19-5-17-7-15-10-14-13-12m49 496-53 18-48 21-44 24-20 12-41-22-55-21-62-18-66-14-73-9-2 9 70 20 63 20 57 24 50 25 23 15-14 13-28 30-21 33-15 35-5 21-28-18-27-14-30-12-5 8 7 6H270v-16l22-6 42-13 36-13 32-15 28-16 11-21-6-23-22-10-23 6-9 9-21 20-27 20-63 42V544l-63-31v158l-13-15-22-22-24-20-25-19-27-17-30-15-30-12-32-11-4 9 52 38 46 40 20 19 36 43 15 23 13 23H8v21h199v77H39v21h168v68l63-10 16-11-16-9v-38h42l52 53 64-53v-21H270v-77h79l52 53 63-53v-8l45 41 36 40 16 20 14 19 13 21 18 38 5 10 54-35 9-16-21-1-18-28-19-21-15-17h204l52 53 64-53v-20H813l-16-44-25-43-31-39-37-33-4-3 37-16 46-15 51-13 103-23-63-56-58 15m-68 270H578l-24-20-9-7 11-19 21-26 24-25 28-23 25-17 18 14 29 32 25 34 16 37 6 20Z"/></symbol><symbol id="𭆔_J" viewBox="0 0 1000 1000" data-size="21"><path transform="matrix(1 0 0 -1 43 953)" d="M309 568c42-10 63-19 63-27 0-7-10-13-31-17-3-6-7-15-14-27h106l31 36c37-28 56-47 56-57 0-6-3-10-10-12l-23-8c-24-44-55-85-91-123l9-6c29-18 70-31 122-39 51-7 123-11 215-11 62 0 119 2 172 7-14-18-23-36-26-54H746c-112 0-196 6-254 19-46 9-82 25-110 46l-14 11c-53-47-120-87-201-122l-15 21c73 38 134 81 184 131-26 27-46 56-60 86-33-39-67-71-101-95l-18 18c59 54 105 123 137 207h-38v241c22-7 42-15 58-22h398l32 32c37-24 56-41 56-51 0-4-2-7-7-10l-19-12V569h-53v15H309v-16m-14-121c15-28 37-57 66-86 31 37 55 74 71 111H312c-6-10-12-18-17-25m14 162h412v58H309v-58m0 83h412v54H309v-54m25-497h369l31 32c37-24 56-41 56-51 0-4-2-7-7-10l-19-12V0h-53v38H329V0h-53v220c26-9 46-17 58-25m-5-25V63h382v107H329m292 325v-30c0-40-11-76-34-108-19-27-46-47-80-61l-16 14c54 39 81 91 81 153v80c6-2 16-6 30-12 11-5 19-9 25-11h77l28 34c36-26 54-43 54-51 0-4-3-8-9-12l-19-12V376c0-10 8-16 26-16 23 0 37 8 42 24 5 18 8 43 9 76l25-8c0-38 2-63 8-75 3-7 10-11 22-11-1-22-10-36-27-41-17-4-44-7-80-7-33 0-53 4-60 12-8 8-11 21-11 40v125h-91M165 843h619l52 62c27-22 50-44 69-66l-10-21H158V590c0-273-45-469-136-589L0 13c67 130 100 323 100 579v279c21-8 43-17 65-28Z"/></symbol><symbol id="𭆕_S" viewBox="0 0 1000 1000" data-size="21"><path transform="matrix(1 0 0 -1 34 957)" d="m828 53-41 37-37 41-32 45-3 5-22-33-44-48-48-41-54-35-58-24-4 8 52 34 46 38 41 44 37 48 30 52-25 55-19 59-13 61-10 67-2 32-35-55-25-30-8 5 45 108 27 78 22 82 18 86 8 45 2 10 59-21 14-13-18-7-6-26-13-45-14-44-14-42-13-30h134l52 52 64-52v-21h-74l-12-82-19-83-22-76-28-69-20-38 16-24 32-38 35-33 38-30 65-39-59-45-45 32M92 888l53-27h667l52 53 63-53v-21H145V520l-3-74-5-69-8-64-9-60-13-55-14-50-18-44-20-40-24-33L6 3 0 8l18 32 16 35 14 39 13 44 10 48 8 54 7 57 4 63 2 68v440m429-783V93l-2-14-4-13-7-11-9-11-11-9-11-6-13-5-14-2-12-1v33l-53 15v16h58l5 1 4 1 1 1 2 2 1 2 1 3 1 5 1 5h62M224 483l63-31h172l31 26 58-47-27-21V105h-62v85H287V56l-63-33v460m235-168H287V212h172v103m325 263H662l-13-28-15-31 12-49 17-63 21-57 23-53 10-18 26 75 19 72 14 79 8 73M459 431H287v-95h172v95m76 361 58-47-27-20V523l-63-32v254H237V523l-52-26v295l52-25h266l32 25m-90-196 52-47v-22H248v22h153l44 47m0 107 52-48v-20H248v20h153l44 48Z"/></symbol><symbol id="𭆖_S" viewBox="0 0 1000 1000" data-size="21"><path transform="matrix(1 0 0 -1 47 954)" d="m107 887 64-32h620l53 52 62-52v-21H171V507l-3-70-6-68-10-62-10-58-15-54-18-49-21-44-24-39-27-35L7 0 0 7l21 33 19 36 17 40 14 43 13 48 10 51 7 55 4 61 2 64v449m480-703 43-47 3-19-20 5-42-28-45-26-25-10-54-22-30-10-30-7-4 7 98 66 41 30 35 29 15 15 10 11 5 6M294 796l62-11 16-11-16-8V554l66 99 5 7 47-42 5-18-22 4-19-18-74-64-8-5v-74l-2-56-7-54-3-20 21-17 17-15 28-31 13-16 12-15 9-17 9-16 8-16-4-24-19-15-23 3-16 18-2 14-3 15-5 14-6 16-16 33-20 37-7 12-15-58-15-43-20-40-21-36-27-32-28-27-31-24-7 8 23 29 22 32 17 32 16 36 14 37 9 41 9 44 5 48 3 50v406M791 62l-9 12-20 26-12 11-27 25-30 23-17 11 4 9 40-11 18-7 18-8 34-17 17-12 29-23 14-14 5-24-12-21-23-5-21 11-8 14m20 738 51-48v-21H695l-20-29-30-36-23-22-12-11-8-6h147l31 26 58-48-26-20V220l-63-32v32H556v-17l-63-31v486l63-31h27l4 5 12 28 18 41 12 30H450v21h317l44 48m-62-450H556V240h193v110m0 126H556V370h193v106m-567-52 54-33-19-14-25 3-13 19 3 25m53 204-8-1-1-29-1-28-3-25-3-24-4-20-5-20-6-17-7-16-7-12-8-12 54-33 8 19 6 21 4 20 2 23 1 22-1 25-2 25-5 26-14 56m514-23H556V496h193v109Z"/></symbol><symbol id="𭆗_G" viewBox="0 0 1000 1000" data-size="21"><path transform="matrix(1 0 0 -1 43 978)" d="m333 608 4 12c28-5 48-9 59-10 17-3 31-2 40 2 17 6 25 24 24 55v32H266c-29-59-89-107-180-142l-4 12c71 40 119 83 143 130h-59c-18 1-33-4-44-13l-33 31h144c6 13 10 26 13 40 1 5 3 12 4 21 2 9 3 16 4 21h-85c-18 1-33-4-44-13l-33 31h164c4 27 7 54 8 82H155c-17-2-29-7-35-15l-30 34h360l26 33 44-31c6-4 9-8 9-11s-3-6-9-8l-20-9V674c1-44-10-75-34-92-15-13-37-20-66-23-3 14-8 24-15 29s-25 11-52 20m-68-123 36-32h385l34 31 41-35c5-4 6-7 5-10s-4-6-11-7l-18-8v-55l6-53c5-27-10-41-45-42v29H309v-11c2-13-13-22-46-28 4 23 6 59 7 109v76c-1 7-6 16-16 28l11 8M163 130h351v8c0 13-8 28-25 45l7 8 53-19c31 15 68 34 111 58H298c-11-1-21-6-32-14l-33 30h442l30 24 43-48c2-6-1-9-9-8-13 3-25 2-37-2-47-15-90-31-128-48l4-2c7-3 10-6 11-7 1-2 0-4-4-6-1-1-3-1-5-2-12-4-20-8-25-12v-5h251l34 39 66-47c7-3 9-6 7-7s-8-2-18-1H555V73c-1-18-6-31-16-38-9-11-34-20-74-28-1 13-8 23-21 28-5 1-16 4-34 9s-33 10-45 13l3 16 40-8c37-7 64-9 81-5 15 3 24 16 25 37v17H241c-18 0-33-6-44-17l-34 33m540 518 4 13c37-11 67-17 89-18 16-1 28 2 35 7 7 6 12 16 14 29 2 12-2 26-11 41-9 13-20 26-35 38-19 13-38 25-58 38 23 33 47 68 73 106H627V653l5-62c0-13-4-24-12-31s-20-11-37-14c3 20 5 71 7 153v212c-2 12-7 23-16 33l13 11 31-33h192l26 28 51-44c4-7 1-11-8-14-8 2-16 1-23-4l-40-40c-21-20-36-35-47-46 38-21 66-40 83-58 17-19 28-38 31-56s1-33-5-46c-7-15-17-27-30-35-16-9-34-15-55-18-1 12-5 21-13 26-10 7-36 18-77 33m-577-85 34-33h630l30 28 62-37c5-4 8-7 7-8-1-2-6-3-13-3H170v-80c3-93-7-173-30-239C118 125 74 61 8 0L0 9c53 67 89 131 107 190 19 64 27 143 24 237v81c-3 14-7 26-13 37l8 9m183-193v-51h389v51H309m0 67v-51h389v51H309m-24 318c-3-13-7-26-11-38h186v82H293c-1-5-2-12-4-21-1-10-3-18-4-23m18 144c-1-29-4-56-8-82h165v82H303Z"/></symbol><symbol id="𭆘_K" viewBox="0 0 1000 1000" data-size="21"><path transform="matrix(1 0 0 -1 47 958)" d="M706 107v36H359v-36h347m165 461c7-5 10-9 10-13 0-5-11-10-33-16-6-35-17-60-33-75-13-18-38-33-74-43-11-3-19-4-25-4-9 0-14 4-14 12v5c0 7-4 13-12 15l-44 18 4 9 49-11c15-3 27-4 37-4 26 0 43 9 53 26 10 19 16 43 19 74H467s1-4 1-11c-1-5-8-10-22-13-8-5-13-8-16-8-5 0-7 3-8 9-1 3-1 7 0 14 1 8 1 14 1 18l-3 241 47-22h88l13 53 34-13c16-6 25-12 25-16 0-3-10-6-31-8l-17-16h152l18 17c7 6 11 9 13 9 3 0 9-3 18-9l24-18c8-6 11-10 11-14 0-3-7-8-23-13v-85c0-12 0-19-1-21-1-1-7-4-20-8-7-2-12-3-16-3s-6 2-7 6v16H467v-38h312l22 15c8 8 13 12 15 12 4 0 10-3 19-9l34-25-10-11H467v-33h336l10 14c8 8 12 12 13 12 3 0 10-6 23-16l22-19m29 289-5-11H122V563c46 33 85 74 118 125 34 51 60 102 77 153l46-19c15-5 22-10 22-16s-12-10-34-13c-24-40-48-76-73-108 16-7 24-12 24-16 0-5-6-10-18-18V439c0-19 0-30-1-32 0-1-8-4-23-10-7-2-12-3-15-3s-5 2-6 8c1 13 1 23 1 33v216c-28-35-66-68-113-98l-5 5v-13c0-143-7-250-20-323C85 136 55 64 12 5L0 11c34 54 56 127 67 220 8 65 11 166 11 304v313l-3 46 51-30h649l33 36c9 11 14 16 16 16 3 0 9-5 19-14l57-45M706 268v39H359v-39h347m0-56v39H359v-39h347M316 107v203l-3 34 41-21h127l13 37H245v21h256l20 53 34-13c17-7 25-12 25-17 0-2-10-5-31-7l-10-16h200l21 14c8 10 13 15 15 15 4 0 11-4 22-14l40-24-6-12H528l-20-37h183l10 11c9 6 13 10 14 10 2 0 6-3 13-7l34-23c6-3 9-7 9-10 0-4-7-8-22-12V107h59l20 23c9 10 14 16 16 16 3 0 10-5 21-14l41-28-7-12H257c0-5 1-8 2-9-2-11-7-20-16-27-8-3-13-4-15-4-6 0-9 4-9 13v221l42-10c15-5 22-10 22-14s-9-10-27-21l1-134h59m390 52v34H359v-34h347m42 576v38H467v-38h281m0-51v34H467v-34h281M439 75c13-7 20-12 20-16 0-6-14-7-41-5-53-20-119-36-197-49l-6 11c85 19 151 44 197 76l27-17m362-39c12-9 17-18 17-26 1-7-3-10-12-10-8 0-17 3-28 10-41 27-92 49-152 66l4 10c98-18 155-34 171-50M409 528c-3-42-15-71-37-87-12-7-24-10-34-10-9 0-13 2-15 7-1 6 2 13 10 21 12 6 23 13 34 19 13 9 23 26 29 50h13m116-56c1-17-5-25-19-25-12 0-18 8-20 24-2 22-10 42-24 59l11 4c15-12 26-22 33-29 12-12 19-24 19-33m108 22c0-2 1-5 1-8 0-9-5-13-14-13-8 0-14 4-18 12-11 22-29 39-56 51l9 6c48-17 74-33 78-48m104 13c2-3 3-8 3-13 0-8-4-12-11-12-8 0-15 5-21 15-8 16-26 32-53 48l5 7c45-17 71-31 77-45Z"/></symbol><symbol id="𭆙_J" viewBox="0 0 1000 1000" data-size="21"><path transform="matrix(1 0 0 -1 44 945)" d="M286 268C215 172 125 93 15 31L0 52c143 98 248 221 314 368H17L4 445h321c16 37 29 78 40 123 60-11 90-22 90-34 0-8-14-13-42-17-6-20-15-45-26-72h400l52 62c27-22 51-45 72-68l-13-19H376c-12-29-30-62-54-100h322l37 47c47-35 70-58 70-70 0-6-4-10-13-13l-30-11c-42-55-92-102-150-141 91-37 206-56 346-58-20-17-35-38-44-61-134 10-251 40-351 88-52-29-119-52-199-71C243 14 175 4 107 0L95 24c141 12 261 47 362 104-62 38-119 84-171 140m16 23c54-50 121-95 200-134 60 40 107 86 142 138H305l-3-4m-50 334c46 78 86 167 119 265 63-19 95-36 95-51 0-10-16-16-49-17-31-59-74-124-129-195 148 8 283 19 406 32-36 36-83 71-139 106l13 20c86-34 156-75 211-124 37-33 55-61 55-84s-11-34-33-34c-13 0-23 7-32 22-14 23-32 46-53 70-182-29-373-53-574-71-7-25-15-38-23-38-14 0-28 31-41 93l174 6Z"/></symbol><symbol id="𭆚_S" viewBox="0 0 1000 1000" data-size="21"><path transform="matrix(1 0 0 -1 80 970)" d="M319 461V294h230v167H319M52 616l-1 11v4l-1 4v2l39 1 113 96 106 98 97 104 5 4 44-44 4-20-19 5-58-55-76-63-39-31-78-55-40-27-19-10 46 2 196 7 137 4 71 2 71 1h31l-69 53-100 68 4 8 41-14 38-16 35-17 61-33 27-17 24-18 22-18 18-17 17-19 5-23-13-21-23-5-21 13-10 16-13 17-17 18-12 11-114-15-140-16-262-25-104-10-9-17-11 15-1 12-1 6v6l-1 13v5m-2 21 5-63-16 62 11 1m206-343v167H39v20h646l52 53 64-53v-20H612V294h112l52 52 64-52v-22H612V31L549 0v272H317l-3-24-10-44-18-40-23-36-30-31-35-28-41-23-46-18-49-13L6 6l-2 9 52 18 46 21 39 22 33 25 27 27 22 28 16 32 10 32 7 36v16H0v22h256Z"/></symbol><symbol id="𭆛_G" viewBox="0 0 1000 1000" data-size="21"><path transform="matrix(1 0 0 -1 25 975)" d="M603 911c3-2 4-3 3-5 0-1-1-2-4-4-11-2-21-8-32-17V732c44 22 86 44 126 65 47 26 71 42 72 50s0 16-3 23l8 6 64-54c5-3 7-6 7-9 0-2-2-3-7-5-17 2-32 0-45-7-5-2-18-9-41-19-19-8-34-14-45-20-39-17-84-35-136-53v-77c1-37 6-61 16-71 11-9 30-15 57-17 10 0 23-1 39-1h67c30 0 56 2 79 5 34 5 53 19 56 43 3 30 7 69 10 119h15l2-74c1-35 10-57 28-66-13-34-37-54-71-58-19-4-55-6-107-6-57-1-106 0-146 2-60 4-90 44-90 122v265c-1 16-11 31-28 43l6 12 100-39M434 531l86-34c5-1 7-3 8-5 1-1 1-3-2-5-11-2-21-8-28-18v-50h216l33 41 80-49c5-3 7-6 6-8-2-2-8-3-17-4H498V284h332l36 40 76-49c7-4 10-7 8-9-1-2-8-2-19-2H77c-17 1-32-3-44-13L0 284h453v115H210c-17 1-31-3-44-12l-34 32h321v60c1 11-8 25-27 41l8 11m146-343 4 14C737 154 819 93 829 19c-3-11-11-17-24-18s-25 10-36 34c-5 9-10 18-17 28-37-2-92-4-163-8-101-4-174-8-220-11-35-2-73-4-114-6-9 0-16-1-19-1-19 0-44-9-75-27l-42 68c29 0 53 4 71 12 65 26 136 71 215 134 3 14 2 22-2 24l8 7 70-49c3-2 5-5 5-7s-2-3-6-4c-13 3-27 1-44-5-65-40-140-80-225-120 179 2 355 6 528 10-12 12-21 22-27 28-34 28-78 55-132 80M474 602l2-17c-59-16-134-34-226-53-11-3-24-7-41-11-20-4-33-8-38-11-16-7-28-17-36-29l-47 53c13 4 31 7 52 11v342c-1 16-9 30-23 42l6 11 81-30c11-3 14-7 9-13-10-2-19-8-28-16V772h190l37 45 68-51c7-5 10-9 8-11-1-2-8-3-19-3H185V553c55 10 152 27 289 49Z"/></symbol><symbol id="𭆜_S" viewBox="0 0 1000 1000" data-size="21"><path transform="matrix(1 0 0 -1 52 962)" d="m67 62-2 14v1l35 2 83 86 70 79 69 83 69 87 35 49 48-41 6-18-19 2-62-72-76-82-77-76-80-69-35-26 59 4 197 12 208 8 72 2h36l-48 49-92 80-36 29 5 7 42-19 74-43 62-45 27-22 46-46 20-24 15-23 3-25-15-18-24-3-19 16-10 20-14 22-17 22-8 11-45-8-71-10-274-33L93 17 83 0 71 15v6l-1 4v4l-1 7v4l-1 8v4l-1 8v2m-2 15 6-62-15 61 9 1m345 711H27v22h383v114l64-11 15-11-15-8v-84h261l53 52 64-52v-22H474V686l-7-55-3-7 17-17 35-31 35-28 36-25 39-23 40-19 42-17 44-14 46-12 98-17-61-59-53 13-50 17-46 19-44 23-41 25-39 28-36 33-32 35-29 38-7 11-8-23-26-46-35-39-45-34-52-28-61-25-68-18-77-14-85-8-1 9 83 19 72 21 64 23 54 28 45 29 36 32 26 35 17 38 10 40 3 43v102M293 606l-14 17-8 10-10 10-37 29-15 11v1l-13-20-19-22-22-24-23-20-27-19-28-17-30-15-33-14-5 8 53 44 22 21 20 22 19 21 16 22 13 22 11 23 9 23 7 24 3 8 57-28 12-14-21-5-14-30 16-3 18-4 16-5 15-6 14-6 26-14 13-8 11-8 7-24-10-21-23-7-21 10-5 8m503-40-8 10-21 24-32 24-60 41-15 8-13-16-17-15-18-16-19-13-21-11-21-10-23-9-5 10 19 13 16 16 28 31 13 17 10 17 10 17 9 18 7 19 5 15 4 13 56-30 11-15-21-4-13-25-9-11 39-11 24-8 43-19 19-8 18-10 14-11 15-11 12-12 5-24-12-20-24-5-20 13-5 8Z"/></symbol><symbol id="𭆝_S" viewBox="0 0 1000 1000" data-size="21"><path transform="matrix(1 0 0 -1 32 973)" d="m155 237-3 12-5 13-11 27-8 14-20 28-8 11-25-34-20-25-24-23-24-23-7 6 47 83 27 55 24 55 9 27 19 63 58-27 11-16-19-4-3-8h108l32 26 58-47-26-15-7-4-13-46-21-66-26-60-28-54-33-50-35-43-40-38-42-31-46-25L5 0 1 9l43 26 39 30 35 35 33 38 30 43 12 24-20 2-16 18-2 12M604 78v-2 2M280 58l-2 7 2-7m-2 392H163l-17-37-34-54-3-5 14-7 16-10 14-12 14-12 23-25 11-15 9-14 6-11 14 32 20 58 18 61 10 51M76 584l-1 10v5l-1 3v2l36 1 148 156 96 107 63 78 46-43 5-18-20 3-52-57-71-69-71-65-74-60-38-28-4-3h3l67 3 69 4 71 3 299 15 80 3 42 1-45 59-50 57-84 81 5 8 35-19 34-21 32-23 32-25 29-27 27-30 28-30 25-32 23-34 24-36 2-23-15-19-24-2-19 14-18 35-33 54-49-8-79-11-152-19-144-17-141-13-112-11-10-18-12 16-1 13v14l-1 15v1m-2 20 4-63-15 62 11 1M617 25l-1 2 1-2m-328 0-1 2 1-2m330-7-25 57 10 3 11 2 80 280 38 154 3 8 59-24 13-15-19-5-43-133-34-93-36-87-19-39-19-39-2-2 99 17 57 7 30 4 30 3h4l-11 41-19 56-32 89 9 5 20-26 19-27 31-54 14-27 11-27 22-53 16-54-5-23-20-14-24 6-13 18-4 26-5 26-5 21-59-23-160-53-8-19-14 14m-328 0-26 57 9 3 12 2 63 232 47 196 3 14 60-24 13-15-19-4-41-133-33-94-33-86-19-40-18-39-2-2 16 3 26 4 50 10 55 7 28 4 29 3h4l-4 14-7 27-18 56-30 89 9 5 19-27 18-26 30-54 26-54 9-27 10-26 9-28 7-26-6-23-20-14-23 6-14 19-3 26-8 46-56-23-102-35-48-17-7-19-15 13Z"/></symbol><symbol id="𭆞_J" viewBox="0 0 1000 1000" data-size="21"><path transform="matrix(1 0 0 -1 43 949)" d="M364 687c-99-6-170-9-213-10-7-23-15-35-22-35-14 0-25 29-32 87h184c32 45 62 102 90 169 56-20 84-37 84-51 0-8-15-13-44-14-22-32-54-67-96-104 123 0 239 2 346 7-28 26-64 54-109 84l12 19c86-35 149-73 191-115 21-20 31-40 31-58 0-22-10-33-29-33-14 0-27 12-40 34-9 15-20 30-32 44-81-8-181-16-298-23 47-17 71-32 71-45 0-9-17-14-51-15-7-15-16-30-26-47h390l52 65c29-25 52-49 70-71l-13-19H595c91-95 197-165 319-210-19-17-34-37-44-61-137 72-240 162-309 271H366c-43-70-96-128-158-176 71-31 107-64 107-99 0-24-11-36-34-36-17 0-27 10-32 31-7 29-28 59-61 88-47-33-104-65-173-95L0 291c133 71 233 159 301 265H29l-10 25h297c22 39 38 74 48 106m119-402c2-1 18-6 48-17 18-6 32-11 43-16 32 45 57 90 77 136 51-27 76-46 76-58 0-9-14-13-42-11-22-23-51-49-86-77 139-56 208-106 208-148 0-21-10-32-30-32-10 0-25 10-44 29-56 57-139 113-250 166V72c0-48-33-72-100-71 0 20-9 33-28 41-14 6-46 14-95 22v27c47-5 91-8 132-8 22 0 34 10 34 29v363c65-3 97-12 97-25 0-9-13-18-40-28V285M68 132c114 35 224 81 329 137l11-23c-81-58-170-110-268-156-2-28-8-42-17-42-14 0-32 28-55 84Z"/></symbol><symbol id="𭆟_S" viewBox="0 0 1000 1000" data-size="21"><path transform="matrix(1 0 0 -1 30 948)" d="M101 77v-5 5m748 413-31 26-27 26-25 28-23 29-19 29-17 31-14 32-2 7V417l-63-31v287l-21-27-27-32-29-29-31-27-35-26-35-23-37-21-40-16-5 7 66 53 30 27 28 28 27 29 24 30 22 31 20 33 19 33 5 11H471v20h157v122l63-11 16-10-16-10v-91h105l53 53 62-53v-20H691v-1l30-48 18-26 41-49 25-24 25-21 27-22 83-51-58-46-33 24m-457 99-39 32-45 32-42 25V417l-63-31v256l-24-32-25-27-26-25-28-25-30-21-31-21-33-17-6 7 52 52 47 52 41 56 18 28 18 31 15 30 9 21H19v20h184v122l63-11 15-11-15-9v-91h63l52 53 63-53v-20H266v-54l16-2 20-5 20-4 19-6 18-7 19-7 35-18 16-9 12-21-5-23-21-12-23 6M101 68l1-5-1 5m4-53L90 77l11 1h5l111 122 93 112 95 126 2 4 48-42 7-17-20 2-92-108-70-71-69-64-35-29-35-26-12-8 30 1 62 3 61 3 63 3 130 6 134 6 69 2h54l-28 53-18 32-42 60-44 57-24 28 6 7 31-21 30-22 27-26 26-28 26-29 47-64 41-71 19-38V18L813 0h-24l-18 17-33 76-58-11-69-10-198-25-249-26-38-4-10-17-11 15Z"/></symbol><symbol id="𭆠_K" viewBox="0 0 1000 1000" data-size="21"><path transform="matrix(1 0 0 -1 62 959)" d="M746 571c16-10 23-18 21-24-3-7-13-11-30-12l-10-37-45-180-47-183c30 5 59 10 87 13l88 9c-10 21-20 42-31 64-11 21-24 41-37 60l6 10c31-27 59-60 84-100 25-39 40-73 43-102 1-18 1-33-1-45-1-11-4-17-8-18-4-2-8 0-12 6-4 8-7 17-9 29-3 10-6 22-11 36-4 12-9 26-15 43l-134-33c-47-11-89-23-126-34-4-16-7-25-10-27-5-3-10 3-15 19l-15 53 98 15 91 457 38-19m-83 340c16-5 23-11 23-17-1-6-8-11-22-14-4-35-7-66-10-91l-11-88h162l24 42 36-35c8-7 11-12 9-16s-8-5-18-5H640c-22-151-53-286-91-405C510 162 466 68 416 0l-5 8c42 84 78 174 108 271 37 123 64 259 83 409h-84l-40-3-3 18 39-2h90l10 107 8 111 41-8M265 649c20-6 27-14 19-23l-15-12c-12-4-21-5-26-4l-11-28-26-82h148l35 45 30-40c7-9 9-15 7-18-2-2-8-3-18-3H204l-85-270C102 151 64 90 6 28l-6 9c44 53 75 112 91 178l80 269H83l-38-4-2 23 36-3h94l29 81 23 83 40-15m37-230c17-10 24-19 21-24-2-6-12-9-29-9l-43-114c-19-46-36-87-51-122l73 14 40 6c14 3 25 4 33 6-6 13-12 25-17 35-3 6-9 15-18 27l-16 24 6 9c28-28 50-52 65-72 22-29 37-57 45-84 2-15 2-29 1-41-1-10-4-17-8-21-5-4-9-3-13 1-5 5-9 13-11 24-3 13-6 26-10 38-4 16-10 29-16 40L137 85c-2-15-5-24-8-26-5-3-9 4-13 22l-12 55 81 13 16 51 33 104 37 134 31-19m128 444c11-9 16-16 14-19-3-4-13-4-29-1l-7-7-53-46c-21-19-40-35-55-48 26-15 50-30 70-45 31-22 52-42 63-59 11-24 13-39 5-43-6-4-15 3-27 21-15 18-34 36-58 56-26 21-50 39-74 54-39-30-80-55-125-78-37-18-84-38-140-57l-2 8c36 14 74 33 114 56 53 28 98 57 135 87-24 15-53 31-85 48-36 18-63 30-80 36l2 9 90-34c39-18 69-31 89-41 9 6 26 20 49 43 28 25 54 53 80 84l24-24Z"/></symbol><symbol id="𭆡_J" viewBox="0 0 1000 1000" data-size="21"><path transform="matrix(1 0 0 -1 52 951)" d="M199 556h491l36 31c41-25 62-43 62-51 0-3-2-6-5-8l-28-18V237h-57v41H467V177h301l54 71c29-26 54-51 74-75l-11-21H467V0h-59v152H8l-8 25h408v101H187v-51h-57v358c21-7 44-17 69-29m-12-25v-95h221v95H187m280 0v-95h231v95H467m231-120H467V303h231v108M187 303h221v108H187V303M87 657c40 79 71 160 94 245 61-17 92-33 92-48 0-8-14-14-42-17-28-58-65-117-112-178 79 4 153 11 222 19-18 26-43 54-75 82l16 16c54-29 95-59 121-88 20-23 30-44 30-62 0-24-11-36-32-36-13 0-24 12-32 35-5 13-8 21-11 26-86-18-184-35-296-51-5-20-11-30-18-30-13 0-25 27-36 83 36 1 62 2 79 4m499 170H452l-10 25h332l32 38c37-27 55-45 55-54 0-3-2-6-7-9l-21-14c-1-63-6-115-15-154-8-35-28-56-58-64-12-4-23-5-33-5 0 15-7 25-20 32-12 4-33 9-61 14v21c42-3 67-4 76-4 24 0 38 8 43 26 8 29 13 78 15 148H641c-5-113-67-192-187-235l-14 18c92 50 141 122 146 217Z"/></symbol><symbol id="𭆢_J" viewBox="0 0 1000 1000" data-size="21"><path transform="matrix(1 0 0 -1 63 955)" d="M291 423H10L0 448h291v86H122l-9 25h178v91H140l-9 25h598l45 52c31-21 55-41 72-59l-10-18H592v-91h150l37 46c40-31 60-51 60-61 0-4-3-8-9-12l-23-16V273h-56v33H592V96c53 11 94 21 124 29-15 28-38 58-67 89l14 17c102-63 153-121 153-174 0-27-12-40-35-40-19 0-32 14-39 43-4 15-8 27-13 38-44-20-103-43-176-68-6-20-13-30-19-30-12 0-24 26-37 79 9 1 21 3 37 6v221H350V101c25 5 45 9 62 13-10 33-27 65-51 98l12 16c72-54 108-108 108-161 0-27-10-40-29-40-17 0-28 14-32 43l-2 14c-46-18-99-36-160-54-6-20-12-30-19-30-12 0-24 26-37 79 27 3 56 7 89 12v215H111l-10 25h190v92m301 0v-92h159v92H592m-58 0H350v-92h184v92m-184 25h184v86H350v-86m242 0h159v86H592v-86M350 559h184v91H350v-91M197 785h550l54 73c29-27 54-53 74-78l-12-20H182c-38-61-93-122-163-183L1 593c46 52 83 102 110 150 30 50 54 106 72 167 61-13 92-27 92-42 0-10-15-16-44-20-8-17-19-38-34-63Z"/></symbol><symbol id="𭆣_S" viewBox="0 0 1000 1000" data-size="21"><path transform="matrix(1 0 0 -1 45 965)" d="m574 372 64-10 15-10-15-10V31L574 0v372M336 265h2l-8-44-13-39-15-36-21-34-23-29-28-25-31-22-34-15-37-13-41-7-3 9 36 16 32 19 28 20 23 22 21 24 16 27 14 29 10 31 7 35 4 38v101l63-10 16-10-16-10v-74l-2-3M209 718l63-11 16-10-16-9V467l-1-14-1-13-5-12-7-13-8-10-11-9-11-6-13-4-14-2-13-2v32l-84 16v15h84l6 1 5 1 5 1 2 2 2 5 1 5v258m599 61 7 11 2-2 22 18 57-48-26-16-41-16-10-7-41-25-33-16-16-11-6 7 13 14 58 70H666l-4-51-8-45 6-18 11-29 15-26 16-24 21-22 23-21 26-18 31-18 34-15 73-28-60-50-41 19-38 22-33 23-28 26-24 28-20 30-15 31-9 33-1 13-7-20-24-47-31-41-36-36-42-30-47-23-53-17-58-10-1 8 53 21 47 23 40 27 35 30 28 34 22 37 17 42 13 46 6 51 1 45h-63l-44-36-25-17-28-15-6 8 41 44 33 43 14 21 14 21 11 22 10 21 8 22 5 16h-1l5 13 57-28 11-16-20-4-15-28-14-24-18-21-16-21h245M91 636l55-32 11-15-22-3-9-15-12-15-12-16-14-15-29-26-18-13-35-22-6 8 14 14 22 34 20 31 7 15 8 16 12 31 3 11 2 4v1l3 7m323-134-5 12-5 12-14 26-20 27-23 28-15 13 5 8 17-10 19-8 17-9 15-11 28-23 12-12 11-14 10-14 9-14v-25l-18-16h-23l-18 17-2 13m-24 222-5 8-6 10-5 6-14-3-36-7-71-10-102-15-63-8-10-1-10-18-12 15v8l-1 3v12l-1 3v11l-1 2v13l-1 5v6l25 1 62 64 34 38 49 61 2 2 45-44 5-19-20 4-44-41-41-33-43-30-2-2 23 1 103 2 72-2 37-1-21 21-31 27-18 13 4 8 20-9 21-7 36-15 16-8 14-8 13-9 12-8 11-9 9-10 4-23-13-21-24-3-20 13-2 7M52 764l4-63-15 62 11 1Z"/></symbol><symbol id="𭆤_J" viewBox="0 0 1000 1000" data-size="21"><path transform="matrix(1 0 0 -1 48 948)" d="M115 523c31 55 52 106 65 151 54-13 81-26 81-39 0-7-13-13-39-18-20-30-45-61-75-93 61 3 107 5 138 8-7 19-16 35-27 48l16 15c42-27 65-53 71-76 31 34 59 69 83 105 58-12 86-24 86-37 0-9-14-15-44-18 27-24 58-47 93-70-1 2-2 5-3 9-3 9-5 16-7 21 5 0 14 0 27 1 9 0 16 0 21 1 21 48 37 98 50 152 55-17 83-32 83-45 0-8-13-13-39-15-23-38-43-68-60-90 46 2 97 5 154 11-9 16-23 34-41 54l18 17c71-50 107-92 107-128 0-23-11-34-32-34-16 0-26 11-31 34-2 12-6 23-10 33-77-18-141-31-192-38-1-6-2-9-3-11 87-53 187-96 299-129-20-16-36-36-47-59-155 62-290 151-405 267-69-83-146-151-232-203 68-31 102-63 102-97 0-24-11-36-34-36-17 0-27 10-32 31-8 29-28 58-60 87-57-33-118-60-182-83L0 272c118 52 220 121 307 206-7 5-12 13-15 26-65-13-135-24-210-32-6-20-12-30-19-30-12 0-24 26-37 79 10 0 26 1 48 1 18 0 31 1 41 1m375-297V72c0-48-33-72-100-71 0 20-9 33-28 41-14 6-45 14-95 22v27c48-5 92-8 132-8 23 0 34 10 34 29v332c36-2 62-5 79-10 16-4 22-9 18-15-6-11-19-21-40-28V254c2-1 18-6 49-17 17-6 31-12 42-16 32 45 58 90 77 136 51-27 76-46 76-58 0-9-14-13-42-11-22-23-50-49-86-77 139-56 208-105 208-148 0-21-10-32-30-32-10 0-24 9-44 29-55 58-139 113-250 166M254 747c33 44 63 94 91 150 58-16 86-30 86-42 0-8-16-13-47-16-26-30-57-61-94-91 141 3 262 8 362 14-32 27-70 52-115 73l14 19c87-29 150-60 191-92 29-24 43-46 43-68 0-21-11-31-32-31-11 0-23 9-35 27-10 16-24 32-41 49-194-23-364-38-508-47-8-22-16-33-23-33-13 0-24 29-34 87 63 0 110 0 142 1M75 101c114 35 224 81 329 137l11-23c-81-58-170-110-268-156-2-28-8-42-17-42-14 0-32 28-55 84Z"/></symbol><symbol id="𭆥_J" viewBox="0 0 1000 1000" data-size="21"><path transform="matrix(1 0 0 -1 41 916)" d="M580 223c98-71 211-123 338-154-22-17-38-37-50-60-134 46-243 104-327 176C450 104 326 43 172 0l-13 22c137 50 250 118 339 203-35 39-67 81-96 128-32 50-56 94-73 132-8-31-13-53-17-65-21-78-61-157-118-236C143 112 85 52 20 3L0 22c129 123 214 261 257 414 30 110 47 217 50 323H26l-9 25h284l38 48c42-37 63-61 63-71 0-4-3-8-8-11l-27-14c-5-80-15-151-29-212h355l39 48c43-34 64-56 64-68 0-5-4-9-11-13l-27-14c-43-94-103-179-178-254m-45 38c77 76 131 155 162 238H356c48-92 108-172 179-238Z"/></symbol><symbol id="𭆦_G" viewBox="0 0 1000 1000" data-size="21"><path transform="matrix(1 0 0 -1 25 931)" d="M756 793c-1 0-2 0-5-1-9-1-16-3-22-4-11-2-24-16-41-43-17-25-43-59-79-101-23-27-56-59-99-98 7-3 17-8 30-15 20-10 35-17 46-22 75-33 152-56 233-71 35-6 79-8 131-7v-19c-17 0-34-1-53-4s-32-13-41-32c-54 8-101 18-141 31-40 12-96 36-169 72-31 16-55 29-71 40-47-36-102-68-164-97-65-29-168-56-309-83l-2 18c119 30 212 62 281 95 63 30 116 61 157 93-31 24-56 47-75 70-48 51-93 117-136 197h-66l-18-16-39 36h565l33 29 59-54c3-3 5-6 4-9-1-2-4-4-9-5M373 651c33-34 65-61 96-80 34 29 67 61 98 97 38 44 72 92 103 144H250c46-73 87-127 123-161m15-197 86-34c9-3 11-7 6-10-11-3-21-9-28-18V259h237l34 47 76-53c7-5 9-8 7-10-2-3-8-4-19-4H452V33h363l36 47 76-52c7-5 9-9 7-11-2-3-8-4-19-4H90C73 14 57 9 44 0L13 33h394v369c1 10-8 24-27 41l8 11Z"/></symbol><symbol id="𭆧_G" viewBox="0 0 1000 1000" data-size="21"><path transform="matrix(1 0 0 -1 23 974)" d="m0 568 195 25v1c-4 83-6 153-5 211s0 92-2 101c-1 9-8 19-22 30l6 12 94-37c6-3 9-6 10-8s-1-4-6-5c-11-3-19-7-26-11-6-4-9-39-9-106 0-66 1-126 3-179v-4l155 19 23 39 63-37c8-5 11-8 9-9-1-2-7-3-18-4l-231-28c3-75 9-134 18-177 6-28 13-54 21-79l6-18c1 2 3 5 5 9 3 4 4 7 5 9 41 75 65 131 72 168 2 9-2 18-11 28l6 10 71-42c13-9 15-14 7-16-16 1-28-5-37-16-23-61-50-116-81-165-3-4-7-10-12-18-3-5-6-8-8-11 9-21 17-37 25-48 18-29 39-52 63-68 18-11 29-7 32 13l25 127h16c-13-112-12-173 3-183 8-7 11-13 8-19s-11-9-22-8c-22 1-43 7-64 17-20 9-38 22-55 39-23 23-43 53-60 91-30-36-66-69-107-100-45-33-95-62-150-87L8 44c51 31 97 65 139 102 41 36 77 74 107 114-15 36-27 73-35 112-11 55-19 122-23 201L84 558c-21-5-36-12-43-21L0 568m294 259 4 13c67-21 105-45 113-73 14-37 9-57-16-62-10 1-17 10-22 27-3 19-9 34-18 46-8 13-28 29-61 49M954 62V51c-43 5-70-4-80-26-63 45-120 111-171 196-2 4-6 10-11 18s-8 14-11 18C618 155 530 69 419 0l-4 15c102 88 182 183 241 286-24 49-44 101-61 156-26 85-45 190-58 314h-2c-10 1-22-5-37-16l-36 36h340l31 35 56-46c4-5 6-8 6-10s-2-3-5-3c-14-6-24-11-31-16-5-3-12-29-20-76s-23-106-46-179c-20-68-45-128-75-180-1-1-2-4-4-7-1-3-3-5-4-7 3-5 6-9 9-13 59-98 113-162 161-193 17-11 42-22 74-34M628 500c20-59 39-109 58-149 19 36 36 78 52 126 29 83 53 181 70 294H563c11-81 32-172 65-271Z"/></symbol><symbol id="𭆨_G" viewBox="0 0 1000 1000" data-size="21"><path transform="matrix(1 0 0 -1 25 930)" d="M756 792c-1 0-2 0-5-1-9-1-16-3-22-4-11-2-24-16-41-43-17-25-43-59-79-101-23-27-56-59-99-98 7-3 17-8 30-15 20-10 35-17 46-22 75-33 152-56 233-71 35-6 79-8 131-7v-19c-17 0-34-1-53-4s-32-13-41-32c-54 8-101 18-141 31-40 12-96 36-169 72-31 16-55 29-71 40-47-36-102-68-164-97-65-29-168-56-309-83l-2 18c119 30 212 62 281 95 63 30 116 61 157 93-31 24-56 47-75 70-48 51-93 117-136 197h-66l-18-16-39 36h565l33 29 59-54c3-3 5-6 4-9-1-2-4-4-9-5M373 650c33-34 65-61 96-80 34 29 67 61 98 97 38 44 72 92 103 144H250c46-73 87-127 123-161M209 303l77-34c8-3 10-7 5-10-10-3-19-9-26-18V32h191v364c1 11-7 25-24 41l8 10 80-33c9-3 11-7 6-10-11-3-20-9-27-18V242h184l31 39 67-47c5-4 7-7 6-9s-5-3-12-3H499V32h334l32 39 66-49c5-3 8-6 7-8-1-1-6-2-13-2H90C73 13 58 9 46 0L13 32h213v219c1 10-7 24-24 41l7 11Z"/></symbol><symbol id="𭆩_G" viewBox="0 0 1000 1000" data-size="21"><path transform="matrix(1 0 0 -1 20 958)" d="M565 650c103-37 192-59 268-64 34-2 70-3 107-3l1-19c-56-3-82-16-78-39-109 15-203 39-283 71-33 13-64 28-95 45-125-65-278-107-460-128v16c95 21 177 42 247 64 57 19 108 40 152 63 6 3 12 6 19 10-25 15-49 31-72 49-56 42-102 90-137 144h-50c-13 1-26-3-37-11l-32 31h567l31 37 60-49c9-11 9-16 1-17-19 0-34-6-45-17-4-3-11-10-21-21-22-23-43-43-63-61-33-29-72-58-118-86 12-6 25-11 38-15m-87-103c8-3 13-6 14-9s-1-5-6-7c-13-1-24-7-33-16-5-9-11-21-20-34-7-11-13-19-16-26h399l34 42 65-49c7-5 10-9 8-11-1-2-8-3-19-2H405c-40-58-87-110-140-156V139l4-95c1-23-18-38-55-44 3 25 5 86 6 184v60C160 200 89 161 7 126l-7 10c93 54 166 104 220 151v15c-3 15-10 28-19 40l15 11 35-37c37 35 73 74 106 119H110c-17 1-32-4-44-13l-33 33h335c1 2 3 5 6 10 1 2 2 4 3 5 5 9 10 21 17 34 13 25 19 39 18 40 1 7-3 16-12 29l8 9 70-35m84-132 86-33c9-3 11-7 6-11-11-3-20-8-28-17v-91h154l32 43 69-49c7-5 9-9 8-11-2-3-8-4-19-3H626V86h218l35 46 72-53c7-5 10-8 9-11-1-2-6-3-16-2H359c-17 1-32-4-44-13l-33 33h299v157H418c-16 1-31-3-44-12l-33 32h240v101c1 10-8 24-27 41l8 10m120 444H261c51-51 98-91 142-121 26-19 52-36 79-50 27 15 50 31 69 46 44 35 88 76 131 125Z"/></symbol><symbol id="𭆪_J" viewBox="0 0 1000 1000" data-size="21"><path transform="matrix(1 0 0 -1 46 948)" d="M582 469v-93h-59v93H339v-49h-57v389c22-9 45-20 67-32h174v119c67-2 100-10 100-25 0-9-14-18-41-28v-66h182l39 47c43-31 64-52 64-63 0-4-3-8-8-11l-26-17V428h-57v41H582m0 169h194v114H582V638m0-25V494h194v119H582m-59-119v119H339V494h184m0 144v114H339V638h184m-55-514C340 56 188 15 12 0L0 25c156 23 295 65 417 128-63 41-126 97-190 168H97l-11 25h559l38 41c45-37 68-60 68-68 0-5-4-8-13-11l-30-10c-53-53-116-102-190-146 107-41 237-66 390-76-20-18-35-38-43-60-159 21-291 57-397 108m-6 54c72 42 133 89 181 143H266c61-59 127-107 196-143M149 813V376H90v490c67-2 100-11 100-25 0-9-14-18-41-28Z"/></symbol><symbol id="𭆫_J" viewBox="0 0 1000 1000" data-size="21"><path transform="matrix(1 0 0 -1 44 945)" d="M275 237C207 149 120 81 15 31L0 52c124 75 218 176 284 303H17L4 380h293c16 33 29 65 39 97 59-11 88-22 88-33 0-7-14-13-40-18-5-11-12-26-21-46h424l52 62c27-22 51-45 72-68l-13-19H350c-13-26-29-52-48-80h342l38 39c46-35 69-57 69-66 0-5-4-8-13-11l-30-9c-40-32-94-66-162-101 109-33 229-51 358-53-20-17-35-37-44-61-147 15-270 44-369 86C389 52 261 19 107 0L95 24c133 20 247 54 342 101-54 28-108 65-162 112m211-88c68 35 121 69 158 101H302c60-41 121-75 184-101M167 511h579v353c67-2 100-10 100-25 0-9-13-18-41-28V442h-59v44H167v-44h-59v422c67-2 100-10 100-25 0-9-14-18-41-28V511m285 174c-44 22-101 43-170 63l10 24c87-17 151-34 192-50l5-2c30 32 53 67 69 104H278l-13 25h291l38 41c44-34 66-56 66-66 0-5-3-9-10-11l-33-13c-22-39-48-73-76-102 76-34 114-66 114-95 0-20-9-30-27-30-12 0-29 9-50 27-23 20-49 40-79 59-76-63-174-106-293-129l-11 24c103 29 188 72 257 131Z"/></symbol><symbol id="𭆬_J" viewBox="0 0 1000 1000" data-size="21"><path transform="matrix(1 0 0 -1 95 938)" d="M275 352h16l29 35c37-25 56-43 56-53 0-5-3-9-8-12l-20-13c-12-90-25-175-41-254h-55l6 33H57V3H0v860c27-11 50-22 69-33h134l36 45c40-30 59-49 59-60 0-4-2-8-8-12l-23-16c-11-80-20-138-27-175h11l29 35c37-25 56-43 56-52 0-5-3-10-8-13l-20-13c-13-93-24-165-33-217m-55 0c11 65 22 143 33 235H57V352h163m42-239c15 86 25 158 31 214H57V113h205M57 612h127c8 41 17 105 28 193H57V612m598-25H390l-9 25h274v193H390l-11 25h267l36 46c42-30 63-51 63-63 0-3-3-7-8-11l-24-17V535h-58v52M538 199c-52 68-91 143-116 225h-53l-12 25h316l34 47c44-36 66-60 66-71 0-5-3-8-10-11l-29-11c-36-80-78-148-128-205 53-49 120-93 203-133-21-11-39-28-54-50-80 50-141 98-184 145C508 98 426 45 326 0l-17 21c95 55 171 115 229 178m31 36c48 59 84 122 106 189H450c16-38 35-74 57-107 15-25 35-52 62-82Z"/></symbol><symbol id="𭆭_S" viewBox="0 0 1000 1000" data-size="21"><path transform="matrix(1 0 0 -1 53 954)" d="m752 5-62 14-60 22-57 35-32 28-44-15-71-23-75-19-79-15-82-12-84-9-88-4-1 9 87 15 83 16 78 18 76 21 71 23 68 25 25 11-30 40-38 75v2H180v-64l-63-31v350l63-32h207l-7 91-1 17 63-10 16-11-14-9 5-78h230l31 27 58-47-26-22V262l-20-11 13-22 17-18 1-19-19 8-43-26-61-31-25-11 5-5 48-29 50-20 53-11 24-3 30 130h11L815 63l22-9 10-23-10-22-23-9-62 5m-73 257H507l21-44 35-46 41 20 57 34 18 11v25M404 370H180v-88h250l-22 68-4 20m275 0H468l27-86 1-2h183v88m-291 95H180v-74h220l-11 66-1 8m291 0H451l13-74h215v74m-54 34-10 13-8 7-28 22-38 23-16 7 2 9 17-3 18-1 15-2 28-5 27-7 13-4 21-12 11-22-8-22-22-10-22 7m118 55-84 19-77 23-72 26-65 31-18-10-73-34-78-30-85-26-90-23-98-19-3 9 95 29 89 31 80 32 74 34 62 33-16 9-53 39-48 42-40 45-30 47H80v22h552l5 7 2-2 24 20 58-47-27-15-19-9-26-31-45-46-53-42-51-34 29-11 70-22 75-17 80-15 140-18-63-63-88 16M616 861H228l32-32 44-37 49-35 53-31 39-19 21 13 53 40 45 41 40 44 12 16Z"/></symbol><symbol id="𭆮_S" viewBox="0 0 1000 1000" data-size="21"><path transform="matrix(1 0 0 -1 32 966)" d="m677 389 4 6 2-2 25 22 58-48-27-15-16-7-30-41-48-53-56-47-63-42-7-4 36-16 69-25 74-20 80-16 138-18-62-63-88 16-83 21-78 26-72 30-66 34-2 2-85-36-83-28-90-22-97-17L7 16l-1 9 101 21 93 24 86 28 79 32 57 27-16 10-53 44-49 50-41 53-32 53H90v22h587m-14-22H245l34-39 47-46 50-41 56-38 35-19 33 19 56 42 48 46 42 50 17 26m159 254-51 16-47 17-8 3 36-29-26-21V479l-64-32v42H263v-15l-63-32v215l-70-19-63-13-66-11-1 9 121 41 107 44 47 23 43 25 39 25 36 27 32 27 28 30 44-45 1-3 78-43 38-18 41-17 42-15 45-15 96-24 99-21-61-58-54 15m-160 7H263V511h399v117M481 806l-17-16-37-28-41-26-44-23-48-22-51-20-14-4 34-18h399l26 21-53 24-41 23-37 24-36 27-31 28-8 10h-1M303 933l39-49 2-20-19 7-29-17-25-14-57-26-30-11-33-11-34-10-35-9-38-5-3 8 98 48 55 30 49 31 41 31 15 12-1 1 5 4m501-151-33 26-40 25-45 24-109 53 2 10 32-5 32-6 30-7 27-7 52-18 24-10 44-21 21-12 13-21-5-23-21-13-24 5Z"/></symbol><symbol id="𭆯_J" viewBox="0 0 1000 1000" data-size="21"><path transform="matrix(1 0 0 -1 40 948)" d="M251 343C247 191 185 78 65 2L48 22c48 41 84 85 107 134 25 53 38 115 40 187h-84v-82H56v349c64-1 96-8 96-23 0-8-14-18-41-28V368h84v304H11L0 697h239c29 58 55 124 77 199 63-19 94-36 94-51 0-9-15-15-45-18-20-34-51-78-93-130h53l48 60c25-21 46-44 65-67l-10-18H251V368h87v244c63-3 95-11 95-26 0-8-13-18-40-28V277h-55v66h-87m271 217h246l39 47c40-35 60-58 60-68 0-3-3-6-8-10l-27-15c-24-105-61-199-112-283 49-61 115-114 200-161-23-15-40-35-50-58-77 52-137 110-181 173C625 100 543 38 444 0l-14 23c79 40 155 111 227 211-33 53-59 108-77 164-15 45-26 91-33 137h-25v-36c0-230-62-396-187-497l-17 19c98 105 147 265 147 479v336c30-16 51-28 64-36 120 19 208 43 265 71 43-29 65-49 65-60 0-6-7-9-21-9-10 0-22 2-35 4-78-16-171-28-281-35V560m56-25c16-90 52-175 108-257 41 73 70 159 87 257H578M153 711c-17 0-28 13-34 38-11 43-38 83-81 121l17 19c90-46 135-92 135-139 0-26-12-39-37-39Z"/></symbol><symbol id="𭆰_G" viewBox="0 0 1000 1000" data-size="21"><path transform="matrix(1 0 0 -1 12 962)" d="M625 778c3-2 4-4 3-5 0-1-1-2-4-3-10-3-20-8-31-17V583l99 39v245c2 11-8 26-28 45l9 12 84-35c8-3 10-7 5-11-13-5-23-12-29-21V639l98 39 34 42 45-46c4-3 6-5 5-8s-4-5-10-8l-19-16c1-100 0-174-3-222-2-50-7-84-15-103-9-21-29-36-61-45 0 22-21 36-63 41v13c51-9 80-3 87 19 5 11 9 40 12 87 2 20 2 48 2 83 1 34 1 82 0 145l-112-44V291l2-56c2-23-14-37-49-43 4 25 6 73 6 145v264l-99-39V141c1-38 6-61 16-69 10-7 28-13 55-16 30-3 65-5 103-4 46-1 79 1 100 5 33 5 51 18 53 39 6 31 9 84 11 157h14l2-108c2-35 12-57 31-67-19-33-43-51-72-56-17-4-60-6-128-5-55-1-103 1-143 7-55 5-83 43-83 115v407c-21-9-32-18-34-27l-36 20 70 27v197c-1 15-10 29-27 43l5 11 95-39M99 284l6 11c46-12 91-30 135-53 11-5 21-11 31-18 2 3 4 7 8 12 1 1 2 1 2 2 28 43 53 88 73 135H142c-12 1-23-3-31-12l-32 31h265l28 31 54-40c4-3 5-5 4-8 0-2-3-3-7-3-15-2-31-19-48-52-14-29-35-63-63-103-2-3-5-7-8-12 2-1 4-3 6-4 12-9 25-19 39-31 30-25 49-50 58-76 8-26 4-42-13-49-16-5-28 7-38 38-7 29-32 61-75 96-24-27-55-56-93-87C138 52 88 21 39 0l-6 12c48 30 95 65 139 106 26 23 53 50 81 83-39 28-90 56-154 83m21 464h261v102H161c-11 1-24-3-38-14l-35 34h278l33 35 48-44c5-3 7-6 6-9s-5-5-11-6l-20-8V676l4-75c2-19-13-30-45-35v45H171c-18 1-33-3-46-12l-34 32h290v102H200c-18 1-34-4-46-13l-34 28M89 556c2-13 3-26 3-38h328l24 29 63-50c3-3 3-6 1-7-2-2-5-2-11 0-17 2-31-1-41-9-13-10-31-26-54-49l-11 4 36 62H91c0-1 0-4-1-7 0-3 0-6-1-7-5-32-17-58-36-79-18-18-33-20-46-7-7 11-5 21 7 30 11 7 23 21 36 42 13 19 21 47 23 85l16 1Z"/></symbol><symbol id="𭆱_S" viewBox="0 0 1000 1000" data-size="21"><path transform="matrix(1 0 0 -1 36 953)" d="m822 79-44 53-35 53-32-41-46-46-50-37-53-30-57-20-4 9 51 28 47 35 43 40 38 45 35 53 4 7-13 24-27 67-23 72-15 76-11 80-1 14-9-83-16-105-20-93-25-81-29-69-34-57-37-43-42-30-6 8 33 36 29 45 26 56 22 67 19 78 16 91 12 101 8 116 5 126 1 127h-74v20h274l31 26 58-46-26-16-10-5-54-243h54l31 26 59-47-27-15-5-3-16-66-25-82-29-75-33-68-12-20 10-16 38-51 43-45 60-52-58-42-49 48m-401 4-5 1 5-1m357 768H646l-5-129-1-21 6-67 14-82 18-77 20-72 27-66 24-51 25 60 25 71 20 79 14 70h-56l-2-6-68-17 71 308M379 96l-5 2 5-2m-10 4 3 11 3 15 4 18 2 19 2 22 4 50 1 29v31l1 22H114l-4-64-65-27 22 323H0v20h68v200l63-10 15-11-15-10V569h63v263H16v21h304l53 52 63-52v-21H257V711h78l32 37 42-37v-21H257V569h99l53 53 64-53v-20H131l-7-100h189l43 47 53-47v-21H122l-6-89h273l31 26 58-48-27-15v-8l-1-31-1-31-2-27-4-49-3-22-2-20-4-18-5-16-5-13-6-11-7-11-9-10-10-9-11-6-12-5-13-4-12-2-13-1v31L226 55v15h105l7 1 6 1 4 2 4 1 3 2 6 6 2 5 3 5 3 7Z"/></symbol><symbol id="𭆲_G" viewBox="0 0 1000 1000" data-size="21"><path transform="matrix(1 0 0 -1 27 974)" d="m127 664 37-30h606l34 38 49-46c5-3 6-5 5-7-1-3-4-5-11-6l-18-12v-87l5-76c2-19-14-30-48-35v45H178v-10c2-23-15-38-50-43 3 24 6 64 7 119v104c-2 13-9 25-20 35l12 11m547-309 27 32 68-55c5-5 3-9-7-12-21-3-46-21-75-55-3-4-6-7-8-9-19-22-43-45-72-70-21-17-44-32-68-47 2-1 5-2 9-4 12-6 21-10 28-12 93-37 181-58 264-63 33-2 68-3 105-3l1-19c-56-2-82-15-77-38-111 16-204 39-278 70-39 16-70 31-93 44-37-19-84-38-140-57-57-18-112-32-165-41C142 7 78 3 0 2v15c87 7 166 21 238 41 83 24 141 44 173 59 1 1 4 2 7 3 17 8 30 14 37 19l-27 18c-19 13-34 23-43 30-57 44-103 93-137 148h-75c-10 1-22-4-36-15l-37 35h574m4-20H271c51-50 100-92 146-125 26-18 52-34 78-49 15 9 29 18 43 28 41 30 88 79 140 146M576 618H391V464h185v154m-224 0H178V464h174v154m263-154h171v154H615V464m153 484 69-56c6-6 9-11 9-14s-3-5-9-6c-22 8-50 9-84 2-85-9-165-17-240-24s-211-12-409-14v17c129 5 248 13 356 26 31 4 71 9 120 15 29 3 61 7 97 11 37 5 58 10 65 14 8 5 14 13 17 25l9 4m-30-91 73-41c11-7 13-12 7-15-15 1-29-3-42-11-44-61-79-106-106-135l-14 10 34 55c31 53 48 86 50 100 0 10-2 20-7 30l5 7m-568-47 2 11c53-19 89-47 109-85 15-38 10-62-15-73-12-1-19 10-22 32-3 25-11 46-22 63-13 20-31 37-52 52m264 9 8 10c27-22 45-40 52-54 8-15 14-29 17-41 5-36-5-55-28-57-12 1-17 11-16 28 1 19 0 37-4 54-4 18-14 38-29 60Z"/></symbol><symbol id="𭆳_S" viewBox="0 0 1000 1000" data-size="21"><path transform="matrix(1 0 0 -1 50 971)" d="m78 56-1 6 1-6m657 407 52-47v-21H100v21h592l43 47m57-3-45 32-42 36-38 39-19 23-39-33-46-36-50-33-54-29-5 8 47 37 45 39 41 39 37 40-22 34-28 50-24 53-19 56-13 56h-50v21h303l33 26 57-47-26-17-11-3-11-32-26-49-28-47-31-45-37-43-6-8 21-22 37-33 40-29 43-26 73-38-59-47-48 28M89 490l-63-31v462l63-32h239l53 52 62-52v-21H266v-97h86l31 27 58-47-26-22V597l-63-32v53h-86V512h95l43 47 53-47v-22H89m113 128H89V512h113v106m150 133H89V639h263v112m415 120H528l24-48 26-51 29-47 31-44 16-21 34 46 26 44 23 46 20 47 10 28m-565-3H89v-97h113v97M79 43v-3 3m2-28-8 30-2 5 1 1-7 26 42 2 98 80 50 47 20 22 32 38 4 7H0v21h777l52 53 64-53v-21H337l33-25 6-18-20 1-22-22-22-20-52-41-64-42-37-21-7-4 114 5 131 6 137 4 71 2h100l-43 36-59 44-71 48 4 8 42-15 38-17 35-17 63-36 27-18 25-19 23-19 19-20 17-20 5-24-13-20-23-5-21 14-11 17-14 19-18 19-9 11-114-15-139-15-325-33-40-4L93 0 81 15Z"/></symbol><symbol id="𭆴_J" viewBox="0 0 1000 1000" data-size="21"><path transform="matrix(1 0 0 -1 58 949)" d="M587 642v105H397l-11 24h201v127c62-2 93-9 93-22 0-8-13-17-38-27v-78h136l44 60c23-23 42-46 58-67l-10-17H642V642h110l32 40c40-31 60-50 60-58 0-3-2-6-6-9l-24-16V402h-55v33H425l-10 24h344v158H428l-10 25h169M90 604h37c15 62 24 123 29 183H10L0 812h274l51 68c26-24 49-49 69-74l-11-19H228c-16-54-38-115-68-183h125l36 46c42-33 62-54 62-63 0-4-2-8-8-12l-26-18V1h-56v68H80V1H24v636c18-7 40-18 66-33m-10-25V365h213v214H80m0-485h213v246H80V94m511 44c-21 19-41 44-62 75-23 34-43 72-60 112h-77l-8 25h330l36 42c41-31 62-52 62-65 0-5-3-9-8-11l-28-10c-29-63-67-118-113-164 52-31 126-55 221-72-15-13-31-32-48-57-84 24-154 56-209 96C556 51 475 15 384 0l-14 22c91 25 164 64 221 116m32 33c45 50 77 101 95 154H502c27-60 68-112 121-154Z"/></symbol><symbol id="𭆵_K" viewBox="0 0 1000 1000" data-size="21"><path transform="matrix(1 0 0 -1 25 937)" d="m896 468-6-23H515v34h82l28 202h-84v34h89l21 155 29-24c12-11 18-20 18-30s-8-22-24-35l-10-66h97l11 30c7 16 11 25 13 25 3 0 7-5 13-13l17-34c6-12 9-23 9-33 0-6-6-18-19-36V479h20l22 20c12 11 19 17 21 17 3 0 6-5 11-15l17-33m-125 11v202H658l-29-202h142M514 378v19h300l13 17c5 7 9 10 12 10 1 0 6-4 15-11l25-21c7-6 11-12 11-17s-9-11-26-21c-36-80-85-148-145-202 76-54 153-86 230-94l-3-12c-15-1-24-7-27-18s-8-16-14-16c-5 0-13 2-23 6-70 29-132 67-186 113C636 74 560 31 469 0l-11 12c81 32 153 79 217 139-54 57-94 120-120 189l12 8c32-68 76-126 130-175 58 56 100 125 125 205H514m-189 87v170h-77V465h77m0-190v169h-77V275h77M204 465v170h-74V465h74m0-190v169h-74V275h74m267 206 20-21-5-16H368V275h16l23 32c7 8 11 12 13 12 3 0 10-4 19-12l41-36-5-15H248V66h114v87l-3 48 44-11c18-4 27-9 27-15 0-7-8-15-25-25V61c0-23 1-33 1-31-2-4-8-9-19-16-9-4-15-6-19-6s-6 3-6 10v29H83c1-12 1-19 0-21s-7-5-20-11c-9-4-14-6-17-6-4 0-7 4-8 12v49l-1 134 46-12c19-4 28-10 28-16 0-8-9-16-28-26V66h121v190H21v19h66v169H0v21h87v170H27v20h177v139c-36-5-93-8-173-11l-1 14c62 2 128 11 198 26s126 32 167 50l29-26c8-7 12-13 12-18 0-6-6-9-16-9-6 0-13 2-21 4-34-5-85-13-151-25V655h113l21 29c8 11 13 16 14 16 4 0 12-5 24-15l39-33-5-17h-86V465h35l21 30c8 11 12 17 14 17 1 0 13-10 33-31Z"/></symbol><symbol id="𭆶_J" viewBox="0 0 1000 1000" data-size="21"><path transform="matrix(1 0 0 -1 37 949)" d="M167 711h587l35 38c38-29 58-48 58-56 0-4-3-7-8-10l-22-16V557h-55v27H156v-31h-54v161c-27-20-52-38-77-52L9 681c70 55 123 128 159 216 59-16 88-31 88-44 0-6-15-12-45-16-5-7-14-19-26-36h591l55 69c29-25 54-50 74-74l-9-20H165c-16-18-31-33-45-46 14-4 30-10 47-19m-11-24v-78h164v78H156m216 0v-78h166v78H372m218 0v-78h172v78H590M236 533h450l35 37c41-28 61-47 61-56 0-3-2-6-7-9l-25-15V283h-57v20H226v-32h-56v290c26-11 48-20 66-28m-10-25v-40h467v40H226m467-180v47H226v-47h467m0 72v43H226v-43h467M413 104c-59 25-119 64-180 117H103l-13 25h582l34 32c49-33 73-54 73-65 0-5-5-9-14-10l-34-6c-55-37-116-69-183-95 110-25 236-36 379-34-20-14-35-33-46-58-148 5-282 28-401 69C328 33 172 6 11 0L0 24c143 14 281 41 413 80m58 18c61 22 126 55 196 99H275c61-44 127-77 196-99Z"/></symbol><symbol id="𭆷_J" viewBox="0 0 1000 1000" data-size="21"><path transform="matrix(1 0 0 -1 29 946)" d="M302 515c14 11 30 25 46 42 41-22 62-37 62-44 0-9-14-12-40-10-44-37-100-71-167-102h195l29 34c17-11 32-23 43-35 9-8 13-15 13-18 0-4-3-8-10-12l-17-11V0h-54v50H174V0h-55v365c-31-12-67-25-108-37L0 348c96 36 178 77 247 125v165H132l-9 25h207l37 45c24-20 41-38 52-52l-10-18H302V515M174 300h228v76H174v-76m0-25v-82h228v82H174m0-107V75h228v93H174m583 118c43-76 105-149 185-219-17-11-35-27-52-48-64 58-118 130-161 214C674 140 593 63 487 1l-17 20c104 78 181 168 230 272-51 116-87 270-108 461h-48l-9 25h259l38 49c41-35 62-56 62-65 0-5-3-9-9-12l-25-15c-16-189-50-339-103-450m-32 64c39 105 64 240 76 404H624c21-172 55-307 101-404M252 759v133c61-1 92-8 92-21 0-9-12-17-38-26v-86h142l29 38c41-35 62-58 62-68 0-5-4-9-11-12l-25-10c-11-20-31-44-59-73l-20 11c14 35 24 64 28 89H108c2-35-1-63-8-86-9-27-26-40-50-40-22 0-33 10-33 31 0 8 5 17 16 28 27 28 42 69 45 123l22-2c1-6 3-16 6-29h146m109-162 11 19c99-32 149-69 149-112 0-22-9-32-27-32-11 0-21 8-30 25-22 40-56 73-103 100M28 433l-13 18c58 45 103 98 136 159 45-22 68-39 68-49 0-9-12-12-36-10-33-44-85-83-155-118Z"/></symbol><symbol id="𭆸_G" viewBox="0 0 1000 1000" data-size="21"><path transform="matrix(1 0 0 -1 33 975)" d="m670 427-18-14V108c-1-23 7-37 22-40 15-4 42-6 81-6 55 0 90 4 104 11 13 8 21 38 23 91l5 92h15l2-88c0-45 10-73 30-83-14-25-29-42-46-49-17-8-43-12-78-13-34 0-78 1-132 3-47 4-71 29-71 75v330H388c-5-36-13-73-25-110C312 158 193 51 6 0L0 11c169 65 276 172 321 319 9 31 17 65 24 101H170c-17 1-30-4-39-14l-29 34h246c2 14 4 28 5 41 3 29 4 56 2 80-2 9-9 20-22 33l8 12 90-39c2-3 3-6 3-7-1-1-2-2-5-2-9-2-19-8-29-17-2-44-5-78-9-101h197l34 40 57-50c4-6 1-11-9-14M149 950l39-44h490l34 40 51-48c4-4 6-8 5-11s-5-5-11-6l-18-9V697l4-110c5-26-12-40-49-43v76H197v-44c1-24-16-39-51-45 3 47 5 122 6 226v141c-3 15-8 29-17 41l14 11m48-310h497v246H197V640Z"/></symbol><symbol id="𭆹_G" viewBox="0 0 1000 1000" data-size="21"><path transform="matrix(1 0 0 -1 21 976)" d="m149 454 38-37h554l34 35 51-44c4-4 6-7 5-10s-5-5-11-6l-18-9V139l4-83c1-15-3-25-11-31-7-6-20-10-38-12v65H195V45c0-14-5-24-14-31-8-5-21-10-38-14 3 25 5 55 7 89v321c-3 11-9 22-16 33l15 11m46-57V98h562v299H195m140 513v7l62 32c6 3 10 4 12 3s2-4 1-9c-2-10-1-19 3-28 64-53 123-114 178-182 51-60 93-104 128-133 26-22 52-40 77-55 26-14 52-25 77-32 26-8 54-14 85-18v-14c-22 0-41-1-56-3-16-2-29-13-40-32-49 22-92 49-130 80-43 34-98 93-164 178-31 41-62 78-93 110-34-55-74-106-119-154-57-63-116-112-176-149-57-35-116-64-177-85l-3 16c49 24 101 55 156 92 51 35 105 83 160 143 45 49 87 106 124 173-11 10-29 25-53 44-2 2-4 3-5 4-13 8-28 12-47 12Z"/></symbol><symbol id="𭆺_G" viewBox="0 0 1000 1000" data-size="21"><path transform="matrix(1 0 0 -1 44 947)" d="m15 864 30-35h166l34 40 51-48c5-4 6-7 5-10s-4-5-11-6l-17-9V436l4-109c4-26-12-40-49-43v64H63v-73c1-24-16-39-52-45 3 26 6 101 7 226v355c-3 16-9 30-18 41l15 12m48-56V368h165v441H62l1-1m235-273h271v290H418c-17 1-32-3-44-12l-33 32h404l40 49 72-55c7-5 10-9 8-11-1-3-8-4-19-3H614V535h178l40 48 72-54c7-5 10-9 8-11-1-3-8-4-19-3H614V140l2-95c1-23-17-38-54-45 3 25 6 87 7 185v330H375c-17 1-32-4-44-13l-33 33Z"/></symbol><symbol id="𭆺_V" viewBox="0 0 1000 1000" data-size="20"><path transform="matrix(1 0 0 -1 63 973)" d="M561 518V32c-8-11-16-19-24-24-7-5-18-8-32-8v518H325c-9 0-21-2-34-5s-24-6-33-8l-22 38h268v335H381l-15-3c-10-2-20-4-31-6s-17-3-18-4l-23 36h410l52 45 68-68H561V543h191l47 45 74-70H561m-324 28H53v-52c1-13-3-23-10-30s-21-12-43-15v435l64-45h110l39 49 56-56-32-38V546M64 814l-11-11V568h132v246H64Z"/></symbol><symbol id="𭆻_G" viewBox="0 0 1000 1000" data-size="21"><path transform="matrix(1 0 0 -1 31 903)" d="m15 751 42-48h175l35 40 50-48c5-4 6-7 5-10s-4-6-10-7l-18-9V287l4-110c4-26-12-40-49-43v100H63V112c1-23-16-38-52-44 3 25 6 76 7 154v477c-3 15-9 29-18 41l15 11m48-497h186v429H63V254M279 33h526l42 51 84-56c7-5 9-9 7-11-3-3-9-4-20-4H356c-18 1-33-4-46-13l-31 33m68 720h407l42 53 80-59c6-5 8-8 6-10-3-3-9-4-19-4H424c-17 1-33-4-46-13l-31 33m30-340h355l36 47 76-53c7-5 9-8 7-10-2-3-8-4-19-4H454c-18 1-33-4-46-13l-31 33Z"/></symbol><symbol id="𭆼_K" viewBox="0 0 1000 1000" data-size="21"><path transform="matrix(1 0 0 -1 41 932)" d="m801 385 36 23c10 7 15 10 17 10 4 0 12-4 24-12l40-26-7-8H464v-88c210-40 320-78 332-114 2-7 3-13 3-19 0-12-5-18-15-18-11 0-25 8-42 24-51 46-143 84-278 115V16c0-5 0-7 1-6-1-3-10-5-26-8-8-1-13-2-15-2-3 0-5 1-6 4 0 1 0 5 1 13s1 16 1 24v331H0v13h801m-3 436c11-10 16-18 16-23 0-7-10-12-31-14V500c-2-5-10-8-23-12-7-2-12-3-15-3s-5 2-7 4v15c2 10 2 18 2 22H203v-46c-1-3-9-7-22-10-9-3-14-4-17-4s-4 1-5 5v16c1 14 1 25 1 34v286l-4 54 51-30h522l17 23c5 6 8 9 9 9s6-5 17-15l26-27m-58-273v263H203V548h537Z"/></symbol><symbol id="𭆽_K" viewBox="0 0 1000 1000" data-size="21"><path transform="matrix(1 0 0 -1 53 896)" d="M780 750c11-11 17-19 17-24 0-7-11-11-31-13V428c-2-4-10-8-24-11-7-2-12-3-14-3-4 0-6 1-7 4s-1 7 0 14c1 10 2 18 2 23H186v-47c-2-4-9-7-23-11-8-2-14-3-17-3-2 0-4 1-4 4-1 2-1 8 0 18 0 13 1 24 1 33v285l-4 56 50-31h522l18 23c5 7 8 10 8 10 1 0 7-6 18-17l25-25m-57-274v262H186V476h537M894 15l-7-15H0v20h419v383l-4 51 53-16c21-5 31-11 31-17 0-7-12-14-37-21V244h255l26 33c8 11 12 16 13 16 2 0 10-7 21-20l35-36-8-13H462V20h338l25 33c9 10 13 15 14 15 3 0 10-5 20-16l35-37Z"/></symbol><symbol id="𭆾_K" viewBox="0 0 1000 1000" data-size="21"><path transform="matrix(1 0 0 -1 42 932)" d="M739 605v119H478V605h261m-304 0v119H160V605h275m274-341c-7 3-13 5-18 5-2 0-7-2-13-6-7-4-15-7-26-8l-9-1c-23-3-75-5-156-7-80-2-154-3-223-3-57 0-106 4-148 12-6 1-11 1-15-2-5-2-7-5-7-8 0-4 3-8 10-12 15-7 31-14 48-21l52-21c8-2 15-4 21-4 4 0 12 3 22 9 10 7 22 10 34 10 43 0 114 2 212 5 98 4 162 6 191 6v-85c-1-12-2-37-4-75 0-19 1-33 3-42 2-11 6-16 12-16 15 0 25 19 31 57 6 37 9 77 9 119v22c0 5 3 12 9 21s9 15 9 18c0 4-4 7-11 10l-33 17M354 396c-94 22-191 66-290 133l7 11c88-52 186-92 297-119 34 42 56 95 67 160H160c0-6 0-12 1-18s2-10 2-10c0-7-9-12-26-15-8-2-13-3-15-3-4 0-6 1-7 3 0 2-1 7-1 14 1 9 1 16 1 21v164l-3 36 59-26h264v77l-5 40 47-10c26-5 39-10 39-13 0-4-13-10-38-17v-77h250l13 15c8 8 12 11 13 11 2 0 7-2 15-7l28-18c12-7 17-13 17-17 0-3-10-6-30-7V584c0-21 1-31 1-29-1-4-9-6-23-9-7-3-12-4-15-4-5 0-8 3-8 10v29H478c-11-66-36-122-75-166 71-15 160-27 267-35 73-5 156 3 246 22l-3-8c-15 0-25-12-31-37-1-5-1-9-1-9-2-3-6-9-13-20-5 0-17 1-35 3-137 0-287 15-450 46-33-18-82-36-147-54-61-17-138-27-230-32l-6 18c176 11 294 40 354 87Z"/></symbol><symbol id="𭆿_S" viewBox="0 0 1000 1000" data-size="21"><path transform="matrix(1 0 0 -1 79 944)" d="M353 267 2 243l-2 22 353 23v141l-66-4-78-5-83-3-88-2-1 10 390 54 124 19 106 20 47 9 1-6 58-47 2-16-24 12-26-5-100-13-118-12-66-5-15-1V292l310 21 48 56 66-49 2-20-426-29V77l1-5 2-5 1-1h1l1-2 4-1h348l31 131h9l-9-131 18-13 13-19-13-18-18-13H423l-13 3-13 4-11 7-11 7-9 12-7 11-4 13-1 13-1 14v183M160 888l64-32h421l32 26 57-47-26-21V596l-63-32v52H224v-62l-64-32v366m485-53H224V638h421v197Z"/></symbol><symbol id="𭇀_G" viewBox="0 0 1000 1000" data-size="21"><path transform="matrix(1 0 0 -1 37 962)" d="m15 856 40-47h169l34 40 51-48c5-4 6-7 5-10s-4-5-11-6l-17-9V461l3-156c5-26-11-40-48-43v106H63V259c1-24-16-39-52-45 4 34 6 83 7 148v441c-3 16-9 30-18 41l15 12M925 55V39c-11 0-25-1-42-2-3-1-6-1-7-1-13-1-27-10-41-26-73 33-141 85-203 154-1 2-4 5-7 8-24 28-41 50-50 65-27-33-54-61-81-84C427 92 339 41 229 0l-4 12c98 53 172 103 223 149 40 36 74 73 102 110-15 24-30 52-45 84-28 69-50 131-66 186-19 59-35 149-48 269l23 3c19-96 38-176 56-239 17-63 42-126 73-190 13-26 25-50 37-72 27 41 54 97 83 168 24 61 50 171 79 330 1 15-8 28-26 40l11 14 93-38c5-1 9-3 10-5s-1-4-4-7c-12-3-23-9-34-20-17-92-36-172-56-241-19-68-48-137-86-206-14-25-29-50-46-73 11-16 21-30 31-43 30-35 67-69 111-102 42-30 75-48 98-55 32-9 59-16 81-19M63 789V388h178v401H63m429 124 8 10c45-29 78-60 99-95 21-37 28-72 19-103-4-14-13-21-26-20-11 1-17 14-17 39-1 52-29 108-83 169Z"/></symbol><symbol id="𭇁_J" viewBox="0 0 1000 1000" data-size="21"><path transform="matrix(1 0 0 -1 65 945)" d="M200 60V0h-59v366c26-11 49-21 67-31h442l36 42c44-32 65-53 65-61 0-5-2-8-7-11l-26-18V0h-59v60H200m0 24h459v226H200V84m42 377c18 59 37 127 56 205H100l-9 25h213c16 64 31 130 45 199 65-16 97-31 97-45 0-10-15-17-47-21-15-66-25-110-31-133h221l35 43c43-31 64-51 64-60 0-4-3-8-9-12l-24-16V461h95l52 66c27-25 50-49 68-72l-11-19H13L0 461h242m65 0h291v205H362c-32-120-50-188-55-205Z"/></symbol><symbol id="𭇂_G" viewBox="0 0 1000 1000" data-size="21"><path transform="matrix(1 0 0 -1 58 959)" d="m15 837 42-48h179l35 40 50-48c5-4 6-7 5-10s-4-6-10-7l-18-9V373l4-110c4-26-12-40-49-43v100H63V198c1-23-16-38-52-44 3 25 6 76 7 154v477c-3 15-9 29-18 41l15 11m48-68V340h190v429H63m353 77-35 35h388l36 37 49-45c5-4 7-7 6-10s-4-5-10-6l-20-9V682l6-63c-1-13-6-21-15-26-11-5-23-8-36-8v48H475l-27-207h344l33 38 58-53c3-6 1-10-6-11l-23-10c-2-77-5-136-9-179-5-41-14-78-25-110-13-31-31-53-53-67-22-15-48-26-79-34-2 17-11 31-27 41-29 14-61 24-96 31l2 17c42-9 79-15 110-19 36-2 64 6 83 25 19 21 31 57 37 110 6 43 10 110 12 201H453l-26-33-50 36c12 6 21 17 26 33l29 204c-3 21-9 39-19 53l17 12 42-58h313v208H453c-12 1-24-4-37-15Z"/></symbol><symbol id="𭇃_S" viewBox="0 0 1000 1000" data-size="21"><path transform="matrix(1 0 0 -1 58 944)" d="m778 74 64-53V0H295v21h431l52 53M542 889l63-10 16-11-16-10V724l-5-99-1-7h153l53 52 63-52v-21H598l15-62 19-62 20-59 23-54 25-48 29-45 30-41 33-36 36-32 57-40-58-44-42 34-39 39-33 43-30 48-27 51-22 55-19 58-13 63-10 66-1 16-2-15-18-86-23-78-30-71-38-64-42-56-50-47-56-40-61-30-4 7 53 39 49 44 42 49 35 56 32 60 24 69 19 74 12 82 5 57H279v21h261l1 10 1 96v165M0 774l63-32h135l31 27 58-47-25-22V226l-64-32v63H63v-63L0 162v612m198-52H63V278h135v444Z"/></symbol><symbol id="𭇄_S" viewBox="0 0 1000 1000" data-size="21"><path transform="matrix(1 0 0 -1 42 929)" d="M672 778H478v22h324l52 52 63-52v-22H734V84l-1-13-2-12-3-13-7-13-9-10-11-8-12-7-12-4-13-2-14-2v32L546 48v15h111l5 2 4 1 3 2 1 2v3l1 5 1 6v694m-338 6H0v21h338l53 52 63-52v-21h-57V90l-1-14-2-13-4-12-6-12-9-11-11-8-12-7-13-4-13-2-13-1v31L208 53v15h105l6 1 5 1 5 2 2 2 1 1 1 4 1 4v701M50 670l62-31h89l31 26 58-47-25-21V280l-64-31v63h-89v-63l-62-32v453m151-52h-89V333h89v285Z"/></symbol><symbol id="𭇅_S" viewBox="0 0 1000 1000" data-size="21"><path transform="matrix(1 0 0 -1 59 949)" d="m749 34-65 32-60 37-53 42-13 13-31-26-62-42-69-35-73-31-80-24-3 10 75 33 69 36 62 40 56 44 26 25-43 55-32 58-24 60-18 67-8 65h-70v21h176v383l63-10 16-11-16-10V708h178l53 53 62-53v-20H572V514h136l31 26 59-47-27-15-8-4-17-52-31-68-38-64-43-59-37-38 8-7 50-35 56-30 61-25 111-33-62-55-72 26M0 794l63-32h159l31 26 58-47-27-21V245l-62-31v62H63v-62L0 182v612m704-301H414l19-59 25-61 29-55 34-48 41-44 1-2 33 39 37 55 31 60 25 65 15 50M222 741H63V298h159v443Z"/></symbol><symbol id="𭇆_J" viewBox="0 0 1000 1000" data-size="21"><path transform="matrix(1 0 0 -1 67 911)" d="M199 487v-51h-58v373c25-10 48-21 70-33h437l37 45c43-33 65-53 65-62 0-4-3-7-8-10l-27-19V435h-58v52H199m0 25h458v239H199V512m-22-263h229v185c66-3 100-12 100-27 0-9-14-18-41-28V249h232l50 64c26-22 50-45 71-70l-11-19H465V25h276l56 67c26-23 49-47 70-72L855 0H10L0 25h406v199H163c-32-52-70-98-115-138l-19 17c66 81 113 182 141 302 61-15 92-29 92-42 0-9-15-15-43-18-12-34-26-66-42-96Z"/></symbol><symbol id="𭇇_S" viewBox="0 0 1000 1000" data-size="21"><path transform="matrix(1 0 0 -1 60 949)" d="m821 13-28 16-32 29-34 43-35 59-31 80-28 102-23 126-1 19H451V99l170 72 32 11 5-8-55-41-81-52-102-60-3-21-17 11-5 12-3 6-1 3-3 5-6 14-2 4-2 3-4 9 14 6v714l63-11 8-5 133 51 101 43 61 30v1-1l5 2 5-11 41-36v-17l-20 8-71-28-58-19 3-168 11-117h80l53 53 63-53v-22H672l22-132 27-95 29-72 29-52 28-34 17-16 26 113h10l-9-130 24-14 6-23-13-20-22-7-25 8M374 67l26-55-36 51 10 4M0 754l63-31h149l31 26 58-47-27-21V168l-62-31v63H63v-63L0 105v649m212-52H63V221h149v481m382 75-25-6-36-9-37-7-38-5-7-1V509h156l-10 114-3 154Z"/></symbol><symbol id="𭇈_K" viewBox="0 0 1000 1000" data-size="21"><path transform="matrix(1 0 0 -1 90 946)" d="M703 319c12-11 18-19 18-24 0-7-12-11-36-13V18c-1-5-8-8-22-10-9-3-15-4-17-4-3 0-5 1-5 4-1 2-1 8 0 16 0 13 1 23 1 32v16H178V48c0-22-1-34-1-35-1-2-8-5-23-9-7-3-12-4-14-4-4 0-6 2-6 6-1 2-1 9 0 18 0 15 1 27 1 38v242l-5 59 58-35h443l15 20 12 12c2 0 7-4 16-12l29-29M642 92v215H178V92h464M388 773v119l84-26 1-10-35-17v-59c107 24 207 56 302 94l37-72-6-8-37 20c-3-1-9-3-19-5l-26-7-127-35c-30-9-71-18-124-28v-92c80 16 166 45 260 88l40-68-9-8-35 11-37-12c-87-26-160-43-219-53v-89c148 30 259 65 333 103l48-62-5-8-35 8c-94-30-208-55-341-76l1-74-9-13-35-12-7 7v87l-206-22c-64-6-124-10-181-12l-1 19c132 7 261 22 388 45v92c-190-21-305-32-347-32l-1 19c140 9 256 25 348 49v98c-117-16-238-24-361-24l-2 18c158 11 279 27 363 47Z"/></symbol><symbol id="𭇉_G" viewBox="0 0 1000 1000" data-size="21"><path transform="matrix(1 0 0 -1 46 970)" d="M309 487h128v399c-1 15-9 29-24 42l7 11 80-31c11-2 15-6 10-12-11-3-20-8-28-16V572c63 46 116 90 160 131 48 45 73 72 75 79s2 16-1 27l8 7 66-45c11-7 14-12 7-15-18 3-35-3-52-18-82-77-170-141-263-192v-59h292l31 39 66-49c5-3 8-6 7-8-1-1-6-2-13-2H584c1-2 2-5 4-10 17-45 33-84 46-115 30-71 68-129 113-173 27-25 51-45 74-59 22-15 51-28 87-39V56c-21 1-37 1-46 1s-21-8-35-24c-95 63-165 150-212 261-21 53-39 111-53 173h-80V92c34 23 79 55 134 97l8-10c-18-21-46-48-84-83-27-25-45-44-54-57-5-6-13-19-24-39l-53 45c13 8 22 18 28 30v392h-51c-17 1-32-4-44-13l-33 33M15 882l40-47h156l34 40 51-48c5-4 6-7 5-10s-4-6-11-7l-17-8V386l4-110c3-26-13-40-49-43v88H63v-81c1-24-16-39-52-45 3 26 6 78 7 155v479c-3 16-9 30-18 41l15 12m48-541h165v474H63V341Z"/></symbol><symbol id="𭇊_J" viewBox="0 0 1000 1000" data-size="21"><path transform="matrix(1 0 0 -1 54 929)" d="M681 521H202v-60h-59v385c27-13 50-24 67-34h463l41 47c40-31 60-51 60-61 0-4-3-10-11-16l-23-18V469h-59v52m0 25v241H202V546h479M412 336v141c67-4 100-12 100-25 0-8-13-17-41-26v-90h293l55 68c29-25 54-49 73-73l-12-20H12L2 336h410M823 18c-11 0-26 11-43 32-66 78-156 141-272 191l11 21c60-15 118-35 174-61 45-21 81-42 107-62 37-28 56-55 56-80 0-27-11-41-33-41M13 0 0 21c119 59 217 139 293 239 55-30 83-52 83-67 0-8-8-12-25-12-3 0-11 0-23 2C248 107 143 46 13 0Z"/></symbol><symbol id="𭇋_G" viewBox="0 0 1000 1000" data-size="21"><path transform="matrix(1 0 0 -1 90 943)" d="m68 382 41-34h558l28 30 47-38c5-4 6-7 5-10s-4-5-11-6l-17-9V173l3-127c-1-21-16-31-47-32v68H119V43c2-23-15-37-51-43 3 25 6 73 7 145v186c1 11-5 23-19 37l12 14M13 882l37-36h570l34 40 49-48c5-4 6-7 5-10s-4-5-11-6l-17-9V684l4-51c5-26-11-40-47-43v49H62v-92c-2-47 12-71 43-71 16-2 119-3 308-3h187c81-1 126-1 136 0 17 3 27 16 30 39 5 36 9 86 11 151h13c1-68 3-111 5-130 3-17 11-28 25-33-9-47-41-67-96-60-15 1-26 1-34 0-85-1-164-1-235-1H267c-110 1-175 3-196 6-34 5-51 38-52 100v278c-2 21-8 36-19 46l13 13m106-553V102h556v227H119m250 497V659h268v167H369m-307 0V659h268v167H62Z"/></symbol><symbol id="𭇌_K" viewBox="0 0 1000 1000" data-size="21"><path transform="matrix(1 0 0 -1 63 921)" d="m66 374 45-25h215l35 32 35-30c15-13 21-23 17-30-2-4-9-7-20-9l-1-1V74c0-20-1-33-3-38-3-8-10-14-23-17-11-3-17-2-19 2s-3 13-1 27l1 26H114V48c1-16 1-26-1-29-2-6-8-11-16-15-13-4-21-3-24 3-2 4-3 12-3 23l1 8v271l-5 65m48-285h232v245H114V89m428 295c18-6 24-11 21-16-4-2-14-6-32-10V229c45 16 89 38 131 65 43 29 80 60 109 94l35-29c15-12 21-21 19-26-2-4-12-4-29 0-37-25-77-48-119-67-48-23-96-39-146-51V98c2-8 4-13 8-17 7-8 17-13 32-13 13-2 44-3 91-4 48 0 80 2 95 4 21 6 36 17 46 36 11 22 23 64 34 125l13-3c-2-31-5-58-7-81-2-24-4-46-6-66 25-13 37-23 36-29 0-8-16-13-47-16-19-2-65-3-138-3-69 0-114 1-136 2-26 2-44 7-54 18-8 8-12 21-12 38v275l-2 39 58-19M181 812h577l36 32 43-32c17-14 25-24 23-31-1-6-15-10-41-11-11-94-32-162-63-203-26-34-67-60-124-76l-9 36c-6 7-23 17-52 32-26 13-56 27-92 42l6 12c70-23 117-36 142-40 36-6 62 0 78 18 18 14 32 38 43 72 13 37 21 80 23 132H453c13-7 18-14 15-20s-14-9-31-9c-35-95-86-169-155-224-67-54-159-96-277-125l-5 15c110 33 195 77 256 133 59 57 102 134 130 230H194l-101-5-12 26 100-4Z"/></symbol><symbol id="𭇍_K" viewBox="0 0 1000 1000" data-size="21"><path transform="matrix(1 0 0 -1 54 944)" d="M398 328c7-6 10-12 10-17 0-7-9-10-26-10V83c0-35 0-54-1-57s-9-7-25-13c-9-3-14-4-15-4-5 0-7 4-7 12 0 6 1 14 4 27H111c2-16 1-26-2-30-2-6-9-11-22-15-6-2-10-3-12-3-4 0-6 5-7 14v323l-4 41 51-31h210l13 16c6 7 9 10 11 10s6-3 14-9l35-36m494 129c-3-21-42-32-119-33-63-1-101 4-115 17-13 14-20 32-20 53v211H389c-15-75-54-139-118-192-63-54-151-90-265-110l-6 9c193 46 307 144 342 293H55v20h288c2 24 3 78 2 164l60-11c20-3 30-8 30-15 0-6-13-15-39-25-2-57-3-95-3-113h232l23 29c6 6 9 10 10 10 3 0 9-4 18-10l33-31c6-7 10-12 10-16 0-7-13-13-38-18V547c0-33 2-52 6-58 7-11 29-17 65-17 27 0 45 3 53 8 8 7 17 19 26 38l32 102 10-6-18-93c-1-7-1-12-1-16-2-11 3-20 17-26 14-5 21-12 21-22M338 69v258H111V69h227m554-10c4-16-13-26-51-30H611c-48 0-79 6-91 18-13 11-19 32-19 62l-1 60-64-18-3 13 67 22-1 221 48-11c20-8 30-14 30-19 0-4-11-12-32-23V205c47 21 90 44 129 69 39 26 75 58 107 97l37-21c15-8 22-14 22-18 0-6-15-9-46-9-29-26-64-52-105-75-39-23-87-46-144-66v-57c0-25 3-41 9-48 7-8 23-13 50-13h162c21 0 37 3 47 7 13 6 22 19 27 38l30 97 13-4-21-95c-2-12 2-21 11-26 10-7 16-15 19-22Z"/></symbol><symbol id="𭇎_S" viewBox="0 0 1000 1000" data-size="21"><path transform="matrix(1 0 0 -1 77 949)" d="M651 521H0v20h750l43 48 53-48v-20H714V84l-1-13-2-13-4-13-7-12-9-11-10-8-12-6-13-5-12-2-14-1v31L525 48v15h112l4 1 4 1 1 1 1 2 2 5 1 5 1 6v437m-534-61 63-32h216l33 26 57-47-26-21V176l-64-32v63H180v-63l-63-32v348m279-53H180V228h216v179M133 898l63-31h421l32 27 58-48-26-21V627l-64-31v42H196v-16l-63-32v308m484-52H196V658h421v188Z"/></symbol></svg>