<svg xmlns="http://www.w3.org/2000/svg"><symbol id="𭄯_S" viewBox="0 0 1000 1000" data-size="21"><path transform="matrix(1 0 0 -1 23 957)" d="m710 81 23-59-10-3-11-4-23-7-23-4-11-2-11-1-23-1v32L516 48v15h105l26 1 28 5 9 3 8 2 18 7m3-8-3 8 16 8 13 10 13 13 11 18 9 20 8 24 7 28 4 32 2 37 1 29-308-2-12-42-24-46-31-41-40-37-47-32-55-29-61-24-69-20-77-15-3 9 74 26 65 26 56 30 49 30 39 33 31 34 24 36 16 38 5 24-341-3v20l345 3 2 39v58l63-11 16-9-16-10v-28l-5-39 304 2 31 27 58-47-27-16v-15l-2-40-5-39-7-33-11-31-13-27-17-25-19-21-23-18-26-13-9 25v1l-7 15v1l-4 8v1M302 446l5 1 3 1 2 2h1v1l1 2 1 3 1 5v7h64l-1-14-2-14-5-12-6-12-9-11-10-8-12-6-13-4-13-3h-13v31l-95 16v15h101m534-1-51 22-47 22-41 27-12 9-21-14-47-27-50-22-55-18-61-12-2 8 56 24 51 23 45 28 40 28 11 10-23 23-25 33-21 37-14 39-3 22-25-19-27-16-29-14-6 8 43 44 39 44 31 44 13 22 12 24 11 23 12 30 55-31 11-15-20-3-20-33-17-23-18-23-1-1h192l53 52 63-52v-21H838l-16-47-21-45-27-42-32-39-14-13 37-19 44-19 47-14 98-26-62-55-56 17M7 669v21h123v150H56v20h294l52 53 63-53v-20h-85V690h27l32 37 42-37v-21H380V468h-64v148l-45-38-69-46-74-40-40-17-41-16-44-13-3 9 111 67 66 47 60 50 27 27 23 23H7m765 78H610l-21-20-12-10 13-24 20-31 24-29 26-27 27-20 19 21 24 36 21 38 15 40 6 26m-456 93H193V690h123v150Z"/></symbol><symbol id="𭄰_K" viewBox="0 0 1000 1000" data-size="21"><path transform="matrix(1 0 0 -1 60 940)" d="M869 645c9-6 13-13 10-19-2-6-10-13-23-21 0-95-6-187-18-275-10-76-23-140-38-192-12-41-27-70-45-85-22-15-52-23-89-26 1 10 2 18 1 22-2 9-6 16-12 23-4 4-10 7-16 11-5 2-11 4-20 7l-15 7 4 16c54-19 89-26 106-22 21 6 37 30 49 72 13 40 23 98 31 173 11 92 16 190 16 295H656c-13-175-48-315-102-420C507 119 441 51 355 7l-3 5c76 48 136 130 181 246 41 105 66 229 77 373H505l-13 19h119c3 57 4 108 3 153l-3 43 62-15c12-3 17-8 16-15 0-7-9-12-25-16 0-52-2-102-5-150h136l20 30 54-35M497 824c2-6 0-11-7-15s-16-7-28-7V535l1-13c1-9 0-15-1-18-3-6-10-11-22-15-13-5-22-7-25-5s-4 7-3 15l1 7H300V389h113l41 36 46-35c7-6 8-11 4-13-3-4-10-5-20-5H300v-46c36-14 67-30 93-46 25-16 45-32 59-48 10-14 16-27 18-39 1-10-1-19-5-24-5-5-12-6-20-2-9 4-18 12-26 25-10 18-25 36-45 56-23 23-48 44-74 62V44c1-10 1-17-1-22-3-6-10-12-21-17-13-4-21-5-24-2-2 2-2 6-1 14l1 9v280c-31-44-67-85-109-122-40-36-87-69-140-100l-5 9c47 36 89 73 125 114 42 48 79 103 113 165H79l-58-2-4 20 58-1h178v117H143l-1-9c0-7 0-11-2-14-3-4-9-8-19-12-14-3-22-2-25 2-2 2-3 7-1 15l2 9v329l-1 55 61-41h246l33 36 48-36 13-16M143 679h110v139H143V679m0-152h110v133H143V527m156 0h114v133H299V527m23 291c0-6-2-11-8-13-3-2-8-2-15 0V679h114v139h-91Z"/></symbol><symbol id="𭄱_G" viewBox="0 0 1000 1000" data-size="21"><path transform="matrix(1 0 0 -1 12 967)" d="m346 794 41-53h99l31 40 49-48c5-4 6-7 5-10s-4-5-10-6l-18-9V233l4-64c1-16-2-27-9-32-7-6-19-10-34-12v53H387V93c1-13-3-23-11-30-7-6-19-11-34-14 3 25 5 84 6 176v514c-1 13-7 28-18 43l16 12m497 134 61-49c4-4 5-7 4-10-1-2-4-3-10-4-16 1-42-2-78-10 10-151 19-257 26-318 4-39 11-91 21-158 2-11 3-20 4-25 9-60 19-108 30-144 12-39 25-69 38-90 13-22 25-37 36-45l-5-17c-10 4-20 6-30 5-9 0-18-4-27-13-21 43-38 94-51 155-12 49-24 128-37 235-11 79-19 215-26 408-7-1-17-4-31-9-9-3-16-5-21-6V89c31 21 53 35 64 41-12 19-29 37-52 54l4 14c41-22 70-44 87-67 14-21 21-42 22-65 1-21-5-33-17-34-14-2-21 7-22 28-2 17-6 34-11 51-25-20-47-41-68-63-12-14-20-27-25-39l-50 49c16 6 27 14 34 24v743c-21-4-42-8-65-12V691c5-225-3-382-24-473-23-90-68-163-135-218l-6 13c63 73 100 153 112 239 14 95 20 239 17 431v147c-3 9-9 20-18 33l13 16 35-46c74 22 119 37 136 45 27 12 43 20 48 23 6 3 9 11 9 25l8 2M288 708V460c0-93-1-166-3-220-2-76-14-133-35-171-17-30-44-48-80-55-2 12-10 23-25 33-13 8-29 16-49 25l1 15c40-11 69-16 86-15 39 7 60 64 63 171 2 66 3 136 3 211v265h-92V615c3-151-14-286-50-405C82 132 49 64 9 7L0 17c33 72 59 142 77 211 28 109 42 235 42 378l-1 113H92c-17 1-30-4-38-14l-32 34h96v144c-2 12-10 25-23 40l5 11 81-30c8-3 10-7 5-12-10-3-20-10-29-20V739h75l31 37 44-37c5-4 8-8 8-11s-3-6-8-8l-19-12m99 13V197h117v524H387Z"/></symbol><symbol id="𭄲_G" viewBox="0 0 1000 1000" data-size="21"><path transform="matrix(1 0 0 -1 42 972)" d="M221 94C115 66 61 41 59 18L12 77l214 51v252H119c-20 1-35-4-46-13l-35 33h334l22 29 59-39c6-3 8-6 8-8-2-1-6-2-14-2H267V137l206 50 5-12-257-81M88 801l3-40h341l25 29 57-48c1-3 1-6-1-7s-6-1-10 0c-18 3-46-20-82-67-9-11-16-19-21-25l-15 2 49 96H91l-1-20c-2-34-12-61-30-82-22-21-40-23-53-6-7 11-2 21 14 31 14 11 27 28 37 52 8 25 13 53 14 85h16m73-147 57-33c11-7 13-11 7-14-10 1-19-1-28-6-67-81-126-137-178-168l-10 8c39 37 73 75 102 112 31 42 47 66 49 72 0 7-2 14-7 23l8 6m142-19 4 10c33-13 62-32 88-56s43-45 53-64c18-43 13-67-13-72-11 1-19 11-24 32-4 19-17 44-37 75-22 30-45 55-71 75M161 924l4 10c85-31 127-69 127-116-1-21-8-32-22-33-14 0-22 9-24 28-4 19-11 38-23 56-12 19-33 37-62 55m455 19 84-27c5-1 8-2 10-4 0-2-1-4-4-7-11-3-20-9-27-20V780c0-12 1-25 1-40v-54h153l33 40 45-39c6-4 9-8 9-11s-3-5-9-8l-19-12V491c-1-191-7-305-18-344-11-40-24-69-38-88-15-19-48-34-99-46-1 26-15 43-42 52-14 5-43 13-86 22l3 16c74-13 117-20 127-21 12-1 26 0 42 3 17 2 32 21 44 57 13 36 21 145 24 327v197H679c-1-64-4-131-9-202-10-115-33-209-69-284C563 104 492 44 388 0l-8 12c95 48 163 122 204 223 36 89 54 233 55 431h-81c-19 1-32-3-39-13l-35 33h155c-1 21-1 42-1 64v145c-2 11-11 23-28 36l6 12Z"/></symbol><symbol id="𭄳_J" viewBox="0 0 1000 1000" data-size="21"><path transform="matrix(1 0 0 -1 56 948)" d="M403 200c36 8 60 13 71 16l5-26C346 145 210 109 71 82c-5-27-12-40-20-40-15 0-29 30-43 91 39 6 67 10 85 13v517c15-7 36-17 63-33h185l32 40c39-30 58-50 58-60 0-5-2-8-8-11l-20-12V200m-55-12v133H149V153c85 14 152 26 199 35m0 158v122H149V346h199m0 147v112H149V493h199m303 126c-5-137-25-251-60-342C546 161 466 68 351 0l-17 21c107 81 179 182 214 303 24 84 39 180 43 290H470l-10 25h132c0 12 1 31 1 57v197c65-1 97-9 97-25 0-8-13-17-38-26V699c0-25 0-43-1-55h133l41 52c42-32 63-54 63-66 0-5-3-9-8-12l-26-17c-1-292-16-466-46-521-25-45-63-67-113-67 0 18-8 31-25 39-16 8-54 17-112 27v28c49-8 95-12 138-12 38 0 61 19 70 57 19 87 29 242 29 467H651M135 760H7l-7 25h135v110c63 0 95-7 95-22 0-8-14-17-41-26v-62h115v109c60-1 91-8 91-22 0-7-13-16-37-25v-62h63l41 56c24-20 44-41 60-62l-12-19H358v-84h-54v84H189v-84h-54v84Z"/></symbol><symbol id="𭄴_J" viewBox="0 0 1000 1000" data-size="21"><path transform="matrix(1 0 0 -1 50 948)" d="M291 391V281h111l44 52c23-18 42-37 59-58l-11-19H291V146c62 9 133 22 211 38l5-27C352 115 206 84 67 63c-5-26-12-39-20-39-13 0-27 30-42 88 83 7 159 15 230 25v119H39l-9 25h205v110H119v-45H65v342c25-10 46-20 62-30h276l35 40c36-27 54-44 54-52 0-4-3-9-10-14l-17-13V356h-54v35H291m0 25h120v98H291v-98m0 123h120v94H291v-94M119 416h116v98H119v-98m0 123h116v94H119v-94m565 79c-4-170-31-304-80-402C564 134 497 62 405 0l-17 20c101 86 168 189 201 307 21 77 33 173 37 286H519l-10 25h118v255c65-2 98-10 98-24 0-8-13-17-40-26V643h120l38 48c39-33 58-52 58-60 0-4-3-8-8-12l-22-16c-1-305-17-484-49-537-23-38-56-57-100-57 0 17-10 30-30 39-15 7-47 15-98 24v28c47-8 86-12 118-12 40 0 64 21 73 61 18 87 27 224 28 412v57H684M234 763v134c65-1 98-10 98-27 0-9-13-17-40-24v-83h135l47 56c33-29 55-50 66-64l-10-17H9l-9 25h234Z"/></symbol><symbol id="𭄵_K" viewBox="0 0 1000 1000" data-size="21"><path transform="matrix(1 0 0 -1 52 945)" d="m516 175-10-13H314V35c-1-6-6-12-16-17-9-6-15-9-19-9-7-3-10 16-8 57v96H0v20h94v123H33v21h238v76H114c1-9 1-15 1-15-1-4-6-7-14-11-8-3-15-5-20-5-7 0-11 10-11 28v144l-5 47 49-30h257l11 14c8 9 13 13 15 13s8-4 16-11l18-18c8-9 12-16 12-21 0-2-2-5-6-9l-15-10V402c-1-6-6-11-16-15-9-5-16-7-21-7s-8 7-7 22h-64v-76h87l15 20c8 9 13 14 16 14 2 0 8-5 18-14l36-31-7-10H314V182h111l17 22c9 12 16 18 19 18 2 0 7-4 16-11l39-36m368 469c8-8 12-13 12-17 0-5-10-9-30-13-2-198-8-341-17-429-6-49-14-85-25-107-11-23-27-38-48-46l-35-14c-13-5-22-7-26-7-5 0-8 5-9 16s-7 19-18 24l-76 19 4 12 94-12c6 0 11-1 16-1 23 0 40 8 51 24s20 42 25 79c17 118 24 271 20 459H687c3-335-90-546-280-631l-10 9c90 51 153 127 192 230 36 97 55 227 56 392H531v20h114c0 15 0 42-1 81-3 41-5 73-5 98l-2 51 47-11c19-4 29-9 29-15 0-7-10-13-29-17l4-187h119l16 19c9 8 13 13 14 13 3 0 7-3 14-9l33-30m-367 4-7-13H16v20h107l38 121H51v21h116l28 94 38-15c17-7 25-12 25-18s-11-13-32-21l-14-40h128l15 18c8 10 14 15 17 15s9-3 17-8l22-20c8-8 12-15 12-20 0-4-9-11-26-21V655h28l15 29c6 9 10 14 12 14s9-5 22-14l43-36M378 423v117H114V423h264m-24 232v121H205l-39-121h188m-83-473v123H137V182h134Z"/></symbol><symbol id="𭄶_S" viewBox="0 0 1000 1000" data-size="21"><path transform="matrix(1 0 0 -1 57 961)" d="m467 445 58-22 14-13-18-7-15-49-22-51h275l31 26 59-47-27-15-2-1v-9l-4-34-4-32-7-28-8-26-10-25-13-21-13-20-17-16-18-14-7 11-2 3v2l-3 3-7 11-1 1v1l-1 1-1 2-1 2-5 9-3 4-1 3-2 2 11 7 10 9 9 13 8 15 7 18 7 22 6 23 4 27 3 31 2 21H475l-31-51-41-51-48-46-53-40-60-34-66-27-72-20L24 0l-2 9 76 23 67 28 61 31 53 35 47 41 40 44 33 49 12 22H82v21h341l5 10 21 59 16 64 2 9M692 96l34-55-22-12-11-5-10-3-24-6-12-2-11-2-12-1-12-1v32L507 57v15h105l17 1 9 1 8 2 8 2 8 2 16 7 7 4 7 5M293 510v-14l-3-13-4-12-7-12-8-11-11-9-11-5-13-5-13-2-14-1v31l-84 17v15h91l5 1 3 1 3 1 2 4v8l1 6h63m88 199 4 4 27 22 49-39 16 42 9 31 9 30 8 29 6 29 4 28 3 21h-1l3 16 60-20 14-12-19-8-10-38-8-28h169l51 52 64-52v-21h-96l7-1-18-60-21-53-27-50-24-32 21-19 35-23 39-20 42-16 89-25-62-56-51 19-46 22-42 28-39 30-20 21-12-13-42-34-46-30-50-23-55-18-60-12-2 9 55 22 50 24 44 28 40 31 35 34 13 17-13 18-25 42-21 47-13 44-28-55-19-30-22-30-23-29-8 4 28 68 1 5-9-6-17-8-24-30-35-39-27-27-13-13-8 6 9 16 35 80 11 29 1 1h-83V510h-63v122l-20-19-23-20-27-20-27-17-29-17-33-16-32-13-35-12-4 9 84 60 48 41 41 42 17 22 12 16H38v21h196l-7 7-2 9-3 8-5 9-12 20-17 21-20 23-14 10 5 8 16-8 15-4 15-7 14-7 24-16 12-8 10-9 5-4 53 69 20 27H64v21h291l6 9 2-1 24 18 57-47-26-16-23-10-24-20-29-26-33-23-18-11-9-5 1-2 1-24-9-11h106m305 86H546l-5-12-4-10 28-58 26-40 27-36 5-5 16 24 20 45 17 50 10 42Z"/></symbol><symbol id="𭄷_G" viewBox="0 0 1000 1000" data-size="21"><path transform="matrix(1 0 0 -1 13 977)" d="M406 80h93v313c2 14-3 29-16 44l9 9 27-26h295l29 28 41-36c5-4 7-7 6-10s-4-6-10-7l-17-9V80h33l22 31 48-41c5-3 8-6 7-8-1-1-5-2-12-2H483c-17 1-32-4-44-13l-33 33m344 0h77v320h-77V80M612 400h-77V80h77v320m107 0h-76V80h76v320M444 733h272l29 56c39 73 58 114 58 121s-3 15-8 23l10 3 50-27c11-7 13-12 7-15-14 1-25-5-32-19-30-50-61-97-93-142h113l27 37 59-47c5-3 8-6 7-8-1-1-6-2-13-2H521c-16 1-31-3-44-12l-33 32m145-68 51-31c11-7 14-11 7-14-11 1-20-1-28-6-23-31-50-63-83-97-31-33-63-61-95-82l-4 10c73 81 123 146 150 195 0 4-2 10-6 19l8 6m131-27 5 10c93-35 151-78 172-131 9-24 6-40-8-47-13-7-23 1-29 23-4 19-19 44-45 75-25 29-56 52-95 70M519 931l7 10c77-48 117-99 120-154 0-20-7-31-20-33-13-1-20 9-21 32-1 22-10 47-26 76-15 27-35 50-60 69m-351 22 84-38c8-3 10-7 6-11-11-3-22-8-35-15V764c0-11 0-23-1-35h119l35 39 44-48c5-4 6-7 5-10s-4-5-11-6l-21-10V527c2-164-1-276-8-336-7-56-23-94-50-113-27-22-55-34-84-36 1 28-28 49-87 64l4 15c29-7 59-12 91-16 21-1 40 5 55 18 17 14 28 47 33 100 5 61 8 168 8 320v166H222c-3-195-25-350-66-463C120 142 71 60 8 0L0 12c51 71 93 157 124 256 38 119 58 266 61 442H93c-13 1-26-3-37-12l-32 32h161v174c-5 17-14 29-25 36l8 13Z"/></symbol><symbol id="𭄸_K" viewBox="0 0 1000 1000" data-size="21"><path transform="matrix(1 0 0 -1 53 947)" d="M848 270c11-14 16-24 16-29 0-8-11-12-35-12-1-39-12-82-33-126-23-45-56-74-100-86L653 6c-7-2-12-3-15-3-7 0-11 3-12 8v17c-1 7-4 12-9 15l-96 45 4 10 112-36c9-4 19-5 27-5 28 0 54 16 79 47 28 45 41 95 41 150H439C414 111 274 27 21 0l-2 13c223 31 349 111 378 241H86v20h313c3 11 4 25 4 39v45l47-13c16-5 25-10 25-15 0-6-10-13-28-18 0 8-1-4-4-38h335l12 22c6 9 9 14 11 14s9-4 18-11l29-29M420 789l-4-14H199c15-5 23-9 23-13 0-2-7-6-22-13 0-14-2-33-6-58h130l10 11c5 5 9 8 11 8 3 0 8-1 14-4l27-25c9-6 13-10 13-13s-9-8-27-16c1-83-5-146-18-190-14-38-37-64-72-79l-15-5c-8-1-14-2-18-2-5 0-8 2-8 6v6c0 8-5 13-14 15l-66 15 4 12 68-6c22 0 38 3 48 11 11 7 20 21 29 40 15 36 21 101 17 195H191c-10-66-29-123-55-170-27-47-68-93-124-138l-12 9c88 78 138 192 149 344 2 19 3 39 1 60H27v20h156v74l-2 25 43-7c16-3 24-6 24-10 0-9-7-15-21-19v-63h95l19 23c8 12 14 18 16 18 4 0 11-5 22-15l41-32m472-386c-19 0-33-2-41-7-1 0-3-3-5-11-3-7-6-11-10-11-5 0-13 4-24 12-54 32-100 75-139 129s-63 106-72 155c-24-5-57-10-99-15V427l191 38 5-12-308-85c-7-15-12-22-15-22-5 0-11 5-19 16l-16 41 118 17v236l-5 41 50-23c38 4 82 15 132 31 51 17 92 37 123 59l38-30c16-9 24-16 24-19s-7-5-20-5c-7 1-17 3-29 5-52-16-103-30-153-42 5-17 19-47 42-91 61 17 120 44 176 81l33-23c14-10 21-16 21-19 0-4-14-5-40-3-52-17-113-34-181-51 32-41 65-74 97-97s75-42 128-57l-2-10m-5 388-3-15H472c-22-31-49-61-81-89l-11 7c48 54 82 120 101 199l41-10c21-6 32-11 32-16 0-8-10-13-31-14-10-19-22-38-35-56h300l25 29c6 9 10 13 12 13s8-4 18-13l44-35Z"/></symbol><symbol id="𭄹_J" viewBox="0 0 1000 1000" data-size="21"><path transform="matrix(1 0 0 -1 72 956)" d="M740 583c36-24 54-40 54-49 0-3-2-6-7-9l-23-15V296h-56v31H172v-35h-56v285c19-7 40-16 61-26h523l26 29c-9-1-17-2-22-2 0 16-8 27-24 34-15 7-42 13-82 18v25c53-4 88-6 106-6 30 0 47 12 53 37 7 29 11 61 13 96H602c-16-63-46-113-89-148-40-32-94-55-162-69l-12 21c60 18 106 43 138 75 29 30 50 69 63 118H413l-10 25h143c5 26 9 60 11 101 64-3 96-11 96-26 0-6-13-14-39-23-2-21-5-37-7-49h155l35 42c39-29 59-48 59-57 0-5-3-8-8-12l-22-15c-5-68-15-114-29-139-13-22-32-36-57-43m-568-57v-71h241v71H172m296 0v-71h240v71H468m240-96H468v-78h240v78m-536-78h241v78H172v-78m-66 290c73 55 138 119 195 191 47-19 71-35 71-48 0-8-9-12-28-12h-19c-46-44-104-87-173-128 80 5 140 10 180 14-9 13-25 27-48 41l16 16c70-23 105-50 105-81 0-20-9-31-26-31-15 0-25 8-29 22-2 6-3 9-4 10-95-18-190-33-285-43-6-19-14-29-23-29-13 0-23 25-31 75l99 3m14 159c27 32 52 69 74 111 32-11 53-19 62-23 11-7 17-13 17-20 0-8-16-13-47-14-27-25-54-48-82-68 21-14 32-30 32-47 0-21-9-32-28-32-13 0-24 8-33 23-18 30-49 56-91 76l13 19c32-5 59-14 83-25m317-583c-29-60-75-108-138-144C228 34 133 9 14 0L0 24c119 14 213 45 280 93 36 26 66 58 89 98H42l-11 25h351c12 27 20 55 26 84 59-10 89-21 89-33 0-7-13-13-39-18-4-13-7-23-10-30h297l36 41c38-29 57-47 57-55 0-4-3-8-9-12l-24-15c-7-89-31-145-71-170-23-13-52-20-87-21 0 17-12 29-35 37-20 6-61 15-123 26v25c63-10 119-15 169-15 35 0 58 13 70 38 12 27 20 59 23 96H437Z"/></symbol><symbol id="𭄺_S" viewBox="0 0 1000 1000" data-size="21"><path transform="matrix(1 0 0 -1 36 963)" d="m810 378-54 25-48 29-43 32-15 14-39-30-55-33-61-26-16-6 56-23 13-13-20-7-12-40-20-38h273l31 26 58-47-26-15-2-1v-5l-4-30-5-26-7-25-7-24-10-20-13-20-14-16-16-15-19-12-2 4-4 8-12 23-1 1v1l-3 6-1 3-2 3-2 4-2 3 10 7 10 8 7 9 8 13 7 15 7 17 5 20 4 22 3 27 1 15H484l-31-46-41-45-48-39-53-33-60-28-66-23-73-16L34 0l-2 10 75 20 69 24 60 27 54 31 47 35 40 38 34 42 8 14H92v21h340l6 10 21 50 16 53 1 7-48-15-73-14-2 8 69 26 61 27 56 31 49 34 32 30-24 28-27 41-20 45-14 47-4 28-25-22-28-22-30-19-6 7 43 53 39 53 18 26 16 29 27 57 11 30 10 30 2 7 57-29 12-14-20-5-21-44-18-29-18-29-8-9h209l53 52 62-52v-22H812l-16-58-25-58-30-53-37-49-16-15 51-33 44-21 50-21 96-29-62-54-57 23M631 67l8 1 9 1 8 2 17 4 9 3 8 3 16 7 29-56-10-5-11-5-12-3-11-4-11-3-11-3-23-3-13-1h-11v31L517 52v15h114M372 479l-3 8-7 8-8 10-12 11-29 21-40 24V379l-62-31v192l-14-19-23-26-25-23-25-23-27-20-30-18-31-15-32-11-4 9 51 41 46 44 40 47 17 27 16 27 15 28 3 7h-77v-15l-62-32v215l62-31h100v61H7v22h204v88l62-11 16-11-16-9v-57h88l53 53 63-53v-22H273v-61h99l32 26 58-48-26-20v-95l-64-31v31h-99v-40l30-6 21-6 21-6 17-7 17-7 15-8 13-9 12-10 10-12 3-24-16-18-23-3-19 15-2 5m375 267H575l-19-22-14-15 14-32 21-40 25-38 28-35 22-21 14 17 30 44 25 49 17 53 9 40m-536-16H111v-93h100v93m161 0h-99v-93h99v93Z"/></symbol><symbol id="𭄻_S" viewBox="0 0 1000 1000" data-size="21"><path transform="matrix(1 0 0 -1 63 961)" d="m155 203-76-24-11-4-6-20-14 13-3 9v2l-3 12-1 1-2 10-1 3-3 12-1 2-1 6-1 2v2l64 14 31 6 28 7v119H30v21h125v107l64-10 15-11-15-9v-77h12l53 52 64-52v-21H219V268l33 6 62 11 33 4 2-9-29-14-58-25-43-15V84l-1-13-2-13-4-12-7-13-9-11-9-8-13-6-13-4-13-3-13-1v32L62 48v15h80l4 1 3 1 2 1 1 2 1 2 1 3 1 5v125m555 142 58-26 12-14-19-5-37-95-38-83-31-54-9-12h100l53 51 62-51V34H326v22h306l13 49 41 145 20 82h-1l5 13M479 126l-4 26-4 26-5 24-6 23-14 45-15 42-10 20 8 5 17-16 16-17 14-20 13-20 12-23 11-24 9-26 8-26 8-28 6-30-6-22-20-13-24 7-13 21-1 26M32 229l16-61-27 59 11 2m328 142v22h203v106l63-11 16-9-16-10v-76h86l53 52 63-52v-22H360m44 204-57 26 5 12 3 14 4 16 3 16 2 18 2 19 1 21v21l-3-1v42H242l-13-46-20-49-24-46-29-40-32-37-36-32-40-26-43-21-5 9 36 29 33 31 30 33 25 36 22 39 17 43 16 46 7 31H23v21h166l8 53 4 57 1 13 63-17 14-11-17-8-5-42-10-45h117l32 26 58-47-25-15 1-24v-24l-1-24-2-21-2-22-4-20-5-19-5-17-7-18m-57 26 57-26-6-12-7-10-8-10-10-10-10-8-11-5-12-5-13-4-13-1-12-1v31l-106 16v15h106l7 1 5 1 6 1 5 2 4 3 4 2 3 4 4 4 3 6 4 6m165 253 62-31h210l32 27 58-47-26-22V558l-64-33v64H574v-16l-62-31v312m272-51H574V609h210v194Z"/></symbol><symbol id="𭄼_G" viewBox="0 0 1000 1000" data-size="21"><path transform="matrix(1 0 0 -1 33 982)" d="M0 655h108l15 115c-1 7-6 15-14 24l10 6 28-24h203l37 36 41-44c4-4 5-7 4-10s-4-5-10-6l-18-9v-88h48l19 27 56-37c5-2 7-3 6-4s-5-2-12-2H404v-63c0-15 0-26-1-33h19l23 27 43-31c6-3 9-6 9-9 0-2-3-3-9-3h-85c-2-33-8-55-17-66-11-16-36-28-76-36 1 14-8 25-25 34-9 5-32 13-70 24l1 12c25-6 52-12 81-18 5-1 9-2 10-2 19-3 36 2 50 16 9 9 14 21 15 36H137l-30-36-43 39c16 11 27 22 32 33l10 76H76c-18 0-33-5-44-16L0 655m591 284 64-35c11-8 13-13 7-15-14-1-25-4-33-10-15-27-27-48-36-61h234l27 33 60-41c5-4 7-7 6-9s-5-3-12-3H807c-29-84-62-149-100-195 46-63 100-102 163-119 22-4 43-6 62-5l2-15c-21-3-36-6-45-9-13-6-21-14-22-23-70 21-132 69-185 144-53-63-127-109-221-138l-8 9c89 40 158 92 207 155-35 47-66 107-92 182-27-37-58-69-92-96l-8 7c41 47 72 92 95 135 23 44 32 71 28 80-2 5-5 10-8 16-1 2-1 3-2 4l10 9M395 443l86-33c8-3 10-7 6-11-11-3-23-8-36-15-1-4-2-10-3-18-2-9-3-17-4-22h275l32 36 53-46c5-3 6-7 5-10s-4-5-11-6l-21-10-4-53c-9-117-37-189-83-216-23-12-54-20-93-25 5 27-31 51-107 74l4 16c48-15 88-24 121-27 46-7 76 15 91 64 11 28 19 71 24 130v53H438c-27-97-78-173-151-228C235 56 149 24 30 0l-3 17c93 27 166 58 217 94 74 51 123 122 148 213H156c-14 1-27-4-38-13l-28 33h308c3 13 6 31 8 54-2 14-7 25-16 32l5 13M155 760l-12-105h229v105H155m-14-121-12-96h243v96H141m439 159c35-73 69-129 103-168 31 41 58 97 81 168H580M138 964l61-33c10-8 12-13 6-14-13-1-24-4-32-10-3-6-9-15-16-26-5-8-9-14-11-17h240l25 34 60-37c5-5 6-8 5-10s-4-3-11-3H136c-41-55-81-97-121-125l-8 7c37 41 69 83 97 127 26 43 37 69 34 79-4 10-7 17-9 21l9 7m62-345v11c33-2 57-7 71-15 15-11 25-21 29-32 3-12 0-21-8-26-9-6-16-3-20 8-7 12-14 21-21 26-14 10-31 19-51 28m2 123 2 11c29-7 51-15 66-24 15-10 25-21 29-34 3-14 0-23-9-27-10-5-17-2-20 9-6 15-12 26-18 34-7 9-24 20-50 31Z"/></symbol><symbol id="𭄽_S" viewBox="0 0 1000 1000" data-size="21"><path transform="matrix(1 0 0 -1 42 970)" d="m693 63 18 2 17 3 15 6 16 7 8 5 31-55-10-6-12-5-21-8-23-7-11-2-13-1-23-2v32L580 48v15h113m105-32-31 55 3 3 2 8 4 12 4 16 3 20 3 22 2 26 1 30 1 21H462l-9-30-25-50-35-42-43-33-53-26-60-20-69-16-78-10L3 8 1 18l86 17 74 20 66 21 53 24 44 26 34 31 25 34 16 40 3 13H50v22h356l3 13 3 59v12l63-12 15-11-17-11-4-45-2-5h323l31 26 58-48-26-15v-8l-4-60-3-25-4-24-4-20-7-18-8-16-10-15-15-12M427 422l-8-10-10-9-10-7-10-7-11-6-12-5-12-4-11-3-13-2h-13v31l-42 16v16h42l7 1 8 1 13 3 6 2 5 3 11 8 8 9 2 14 1 12 1 15v18l1 19v37H249V374l-63-32v156l-25-31-46-43-25-20-27-17-28-17-31-13-4 8 67 66 38 44 33 46 14 26 13 27H82l-4-20-67-21 35 206 49-36h91v91H13v20h136l-6 1-15 20 1 6v6l-1 7-1 6-2 8-4 9-15 27-8 8 6 8 9-7 12-5 21-11 8-6 8-7 8-7 7-8 7-10 4-8-3-24-16-13h90l-4 2 7 12 9 26 15 35 14 32 2 6-1 1 6 8 49-39 8-17-24 2-1-2-26-26-10-7-10-10-21-16-5-7h85l31 27 57-47-26-22v-89l-62-32v32H249v-88h131l32 26 58-47-27-16h-1v-42l-1-19-1-16-1-14-1-12-1-11-3-9-7-13m371-28-54 25-49 28-44 32-10 10-22-18-48-33-53-29-58-22-64-18-2 9 57 26 53 31 48 31 42 35 16 18-29 33-26 41-21 44-14 47-3 28-27-23-28-21-30-19-6 7 64 79 36 53 17 27 15 29 12 28 12 30 10 30 3 7 56-29 11-14-19-4-6-14-33-61-20-28-7-9h212l53 53 62-53v-20H799l-16-56-21-56-29-50-33-47-21-25 47-30 45-21 49-20 97-29-62-54-57 22m-64 366H561l-21-24-14-13 15-33 21-40 25-37 28-33 28-25 19 24 26 45 21 47 18 51 7 38m-548-77h-85l-15-88h100v88m166 111H249v-91h103v91m73-370-3 2 3-2Z"/></symbol><symbol id="𭄾_K" viewBox="0 0 1000 1000" data-size="21"><path transform="matrix(1 0 0 -1 51 947)" d="M576 106c-13-3-21-5-24-6-5-3-10-8-13-14-3-7-5-10-8-11 0 1-13 6-41 13-15-29-35-51-58-65l-17-8c-9-4-16-5-19-5-6 0-9 4-9 12 0 9-3 15-9 18l-69 35 3 12 66-16c6-1 13-2 18-2 25 0 42 13 53 37-23 13-60 37-112 72-53-71-125-126-215-165l-8 9c82 39 149 98 200 177-8 7-25 23-49 48-55-75-122-128-202-156l-5 10c71 32 133 89 185 170-25 30-42 54-52 72-24-33-54-66-91-97l-10 10c58 55 101 133 129 234l32-20c13-7 20-14 20-20 0-8-10-12-29-14-6-13-15-30-26-49h262l13 17c4 6 7 8 8 8 3 0 8-3 15-10l21-22c5-6 8-11 8-16 0-4-8-9-22-13-2-76-4-123-4-141-4-31-10-56-16-77 34-9 59-15 76-16l-1-11m310 542c8-7 11-12 11-16 0-5-9-10-29-13 1-198-3-341-13-430-5-48-13-84-24-106-11-23-27-38-48-46l-35-15c-13-4-22-6-26-6s-7 5-8 16-8 18-20 24l-53 19 4 12 72-12c6 0 11-1 16-1 23 0 40 8 51 24s19 42 25 79c10 118 15 271 15 459h-93C730 311 659 99 517 0l-10 9c62 53 108 128 136 223 28 96 43 231 45 404H576v20h112c1 24 1 54 0 89 0 35-1 82-3 141l46-11c20-4 30-9 30-15 0-7-10-13-30-17V656h78l16 19c8 8 12 13 13 13 3 0 8-3 15-9l33-31m-324 56c5-6 7-11 7-15 0-5-10-9-32-9l-53-66-8 5 35 81H115c2-157-3-277-14-362C83 214 54 117 13 46L0 52c51 101 74 269 70 502 0 50-1 112-4 187l49-21h143v140l-4 35 55-11c11-3 16-7 16-13s-8-12-23-17v-32h147l14 22c6 8 10 11 12 11l12-9 37-33-5-11H302v-82h203l13 17c5 7 8 11 10 11s6-4 11-12l23-32m-41-213c-2-9-13-14-32-16H331c-29 0-50 2-62 7-15 9-22 25-22 48v63l-117-10-2 17 119 12v47l-2 31 47-8c14-3 21-7 21-12 0-6-8-11-22-17v-38l106 11 12 23c4 8 7 12 9 12s6-3 14-11l30-25-4-13-167-15v-39c0-23 2-37 7-43 5-7 17-10 36-10h88c17 0 28 1 32 2 11 3 17 12 21 25l17 71 12-1-8-69c0-11 4-18 13-22s13-11 12-20m-83-123c-28-75-55-130-79-163 21-14 55-33 103-59 12 20 17 94 17 222h-41m-113 0c-9-32-24-65-45-98 15-14 32-29 52-46 21 29 41 77 62 144h-69m-120 0-5-10c12-15 31-36 57-65 15 33 25 58 27 75h-79Z"/></symbol><symbol id="𭄿_J" viewBox="0 0 1000 1000" data-size="21"><path transform="matrix(1 0 0 -1 43 945)" d="M511 88H172V28h-55v367c-29-36-62-70-98-102L0 312c79 86 137 183 173 290 54-14 81-26 81-37 0-9-12-14-36-17-11-21-24-43-39-67h106c14 38 23 77 28 116 56-14 84-28 84-40 0-8-12-14-36-17-9-17-23-37-42-59h103l42 55c24-20 44-40 60-60l-11-20H338v-93h64l36 51c21-18 39-37 54-56l-12-20H338v-97h64l37 49c22-19 40-37 53-54l-12-20H338V113h92l45 55c19-17 37-36 53-55 33 53 59 114 77 182 25 87 37 192 38 314H29l-8 25h140v106H58l-8 25h111v125c60-3 90-11 90-24 0-7-12-15-36-24v-77h119v124c61-2 91-10 91-23 0-8-12-16-37-25v-76h40l40 57c20-21 37-41 51-62l-11-20H388V634h56l46 55c25-23 44-41 56-55h97v256c65 0 98-9 98-25 0-9-13-18-39-28V639h116l36 48c40-31 60-52 60-62 0-5-3-9-8-12l-24-16v-62c-1-245-10-394-26-447-14-48-48-73-104-77-1 18-11 31-30 39-19 6-49 12-90 19v28c37-6 74-9 112-9 35 0 56 17 62 52 13 79 20 237 20 474H702c-1-137-16-250-44-337C623 165 561 72 470 0l-20 19c22 21 42 44 61 69M172 456v-93h112v93H172m0-118v-97h112v97H172m112-225v103H172V113h112m-69 627V634h119v106H215Z"/></symbol><symbol id="𭅀_J" viewBox="0 0 1000 1000" data-size="21"><path transform="matrix(1 0 0 -1 42 944)" d="M702 615c-2-294-70-498-205-615l-20 18c110 118 165 315 166 592h-83l-12 25h95v254c65-1 97-10 97-25 0-8-12-16-38-25V640h114l39 49c41-32 61-54 61-64 0-5-3-9-9-13l-25-17v-54c0-284-14-447-40-487-17-28-47-43-90-46-1 18-12 31-34 40-17 6-46 13-86 20v26c55-7 92-11 112-11 36 0 57 18 62 54 12 83 19 242 20 478H702M315 720h177l38 43c40-35 60-59 60-70 0-5-3-8-8-9l-32-7c-18-25-38-47-61-66 2-1 5-4 9-8 3-4 5-7 7-9l-10-17H353l-13 25h86l31 37 14-12c11 20 20 42 28 68H315V439h-54v256H89c0-30-5-56-15-79-11-26-25-40-42-40-21 0-32 10-32 29 0 10 6 21 18 34 27 28 41 67 43 115l23-3c1-6 3-17 4-31h173v87H62l-10 25h383l44 56c26-22 47-43 64-63l-10-18H315v-87M150 106c19 47 35 96 46 148H22l-9 25h448l49 58c24-20 45-41 64-63l-13-20H271c-28-55-56-104-86-145 66 5 142 15 229 30-19 26-45 50-76 73l15 17c46-16 83-37 113-64 26-25 39-47 39-68 0-13-4-23-10-30-6-6-13-9-22-9-12 0-23 10-31 30-2 7-6 16-12 26C316 84 198 63 76 49c-6-20-12-30-19-30-13 0-25 27-35 80 57 2 100 5 128 7M95 577l-8 25h61l33 42c19-16 35-32 47-49l-9-18H95M51 477l-10 25h94l37 47c20-16 37-33 52-51l-10-21H51m302 0-11 25h104l36 45c21-17 38-34 51-51l-10-19H353M83 365l-10 25h328l43 55c25-22 45-42 60-61l-13-19H83Z"/></symbol><symbol id="𭅁_J" viewBox="0 0 1000 1000" data-size="21"><path transform="matrix(1 0 0 -1 43 950)" d="M143 189v-35H88v383c16-8 37-18 63-33h282l34 38c41-26 61-45 61-55 0-4-2-7-7-9l-25-17V163h-56v26H143m0 25h297v75H143v-75m0 100h297v71H143v-71m0 96h297v69H143v-69m13 396h105v94c66-2 98-10 98-24 0-7-14-15-42-24v-46h113l29 37c39-28 58-48 58-58 0-4-3-7-8-10l-19-11V638h-54v31H317v-75h153l44 56c26-22 46-42 61-62l-10-19H13l-8 25h256v75H148v-35H95v202c28-12 48-22 61-30m161-25v-87h119v87H317m-56 0H148v-87h113v87m438-160c-2-293-70-498-205-615l-20 18c110 118 165 315 166 592h-73l-12 25h85v254c65-1 97-9 97-25 0-7-12-16-38-25V646h114l39 50c41-33 61-54 61-65 0-5-3-9-9-13l-25-17v-54c0-284-13-446-40-487-17-28-47-43-90-46-1 18-12 31-34 40-17 7-46 13-86 20v26c55-7 92-11 112-11 36 0 57 18 62 55 12 82 19 241 20 477H699M13 0 0 23c72 36 134 83 188 141 47-24 71-42 71-55 0-11-16-13-48-7C159 62 93 28 13 0m442 31c-12 0-22 6-29 18-21 37-56 69-106 95l12 20c103-25 154-58 154-100 0-22-10-33-31-33Z"/></symbol><symbol id="𭅂_J" viewBox="0 0 1000 1000" data-size="21"><path transform="matrix(1 0 0 -1 46 945)" d="M444 550H112v-33H58v353c24-9 45-19 65-29h312l36 40c39-31 59-50 59-57 0-5-2-9-8-12l-24-16V519h-54v31m0 25v111H300V575h144m0 136v105H300V711h144M246 575v111H112V575h134m0 136v105H112V711h134m-29-436h101v232c61-2 92-10 92-24 0-8-12-16-37-25v-47h62l38 54c25-24 43-44 57-61l-12-18H373V275h96l44 58c23-24 42-46 57-65l-12-18H10L0 275h162v111H40l-10 25h132v96c61-2 92-10 92-24 0-8-12-17-37-25V275m490 342c-1-165-23-298-66-400-38-92-96-164-173-216l-17 19c132 115 199 313 200 592H541l-12 25h122v254c64-2 96-11 96-25 0-9-13-18-40-27V642h104l37 49c40-33 59-54 59-62 0-5-3-9-8-13l-23-18c-1-298-11-471-29-518-14-38-48-61-102-69 0 17-10 30-31 38-14 5-42 11-86 18v27c34-5 69-7 107-7 37 0 59 18 65 55 13 85 20 243 20 475H707M24 0 6 18c66 58 117 126 152 202 55-21 82-38 82-52 0-9-14-14-43-14C152 92 94 41 24 0m295 209 15 18c97-38 146-81 146-130 0-23-11-35-32-35-14 0-25 11-34 32-20 47-52 85-95 115Z"/></symbol><symbol id="𭅃_J" viewBox="0 0 1000 1000" data-size="21"><path transform="matrix(1 0 0 -1 43 947)" d="M511 88H172V28h-55v370c-27-31-60-64-98-98L0 319c64 67 115 134 153 202 37 66 65 137 84 215H34l-10 25h217v134c67 0 100-8 100-23 0-10-14-19-43-30v-81h132l49 66c24-23 45-47 63-71l-10-20H256c44-11 66-21 66-31 0-9-12-15-37-19-22-71-57-140-103-205h104c13 37 22 72 26 104 35-9 57-16 68-21 10-5 16-10 16-16 0-8-13-14-37-17-12-18-25-35-39-50h112l42 55c24-20 44-40 60-60l-11-20H338v-93h74l36 51c21-18 39-37 54-56l-12-20H338v-97h74l37 49c22-19 40-37 53-54l-12-20H338V113h92l45 55c19-17 37-36 53-55 33 53 59 113 77 182 25 87 37 192 38 314H512l-11 25h142v256c65 0 98-9 98-25 0-9-13-18-39-27V639h116l36 48c40-32 60-52 60-62 0-5-3-9-8-12l-24-16v-62c-1-245-10-394-26-447-14-48-48-73-104-77-1 18-11 31-30 39-19 6-49 12-90 19v28c37-6 74-9 112-9 35 0 56 17 62 52 13 79 20 237 20 474H702c-1-137-16-250-44-337C623 165 561 72 470 0l-20 19c22 21 42 44 61 69M172 456v-93h112v93H172m0-118v-97h112v97H172m0-122V113h112v103H172M56 675h13c10-28 20-42 31-42 12 0 44 16 95 47l11-16c-38-44-58-67-59-69-14-19-28-28-43-28-17 0-32 9-44 26-10 14-14 27-14 42 0 13 3 27 10 40m324 44c7 2 16 3 28 3 17 0 34-6 51-18 15-11 22-21 22-32 0-13-7-24-22-31-37-19-80-35-128-48l-10 18c56 36 85 60 85 72 0 7-10 16-31 25l5 11Z"/></symbol><symbol id="𭅄_S" viewBox="0 0 1000 1000" data-size="21"><path transform="matrix(1 0 0 -1 50 917)" d="m733 92 50-39-8-10-8-9-11-8-10-6-11-6-11-5-12-5-13-2-12-2h-13v31L569 47v16h119l7 2 7 2 5 3 6 3 6 4 5 4 5 5 4 6M213 835l59-23 13-14-18-6-9-30-18-50-11-26h583l31 26 57-48-26-16-1-69-2-88-5-80-6-73-7-66-9-57-12-51-14-44-15-36-20-31-12 10h-1l-7 6-1 1-14 11-3 3-12 8 14 20 13 30 11 39 10 46 9 54 9 63 5 71 5 79 2 86 1 84H221l-23-47-25-45-27-45-31-42-33-40-35-39-40-37-7 7 60 86 27 43 24 44 43 89 18 46 16 46 12 47 11 49 2 9m373-573-41 41-18-14-62-39-71-35-80-32-85-29-93-25-3 10 90 34 82 36 73 37 66 38 58 41 9 8-40 34-119 86 3 8 38-13 35-14 33-16 61-35 27-18 44 47 34 45 25 47 11 28H239v22h431l31 26 58-48-27-15-11-5-15-34-33-52-41-49-43-41 39-32 22-22 9-22-11-23-22-8-22 10-18 23Z"/></symbol><symbol id="𭅅_J" viewBox="0 0 1000 1000" data-size="21"><path transform="matrix(1 0 0 -1 78 943)" d="M445 377c-51-49-119-94-202-135l-15 18c75 48 136 98 181 150-37 33-81 64-131 95l14 20c54-27 102-54 144-83 41 51 72 97 92 139H263l-10 25h274l34 36c39-32 59-53 59-62 0-4-3-7-8-9l-28-12c-35-58-71-107-107-147 69-51 104-89 104-114 0-19-9-29-27-29-9 0-24 13-45 39-19 24-41 46-64 69M126 555c-36-45-71-82-107-111L0 461c100 110 172 252 217 425 65-17 97-32 97-46 0-8-15-15-46-20-10-29-22-59-36-91h506l40 50c43-33 65-54 65-63 0-5-3-9-9-13l-27-19c-1-316-11-511-29-585-21-64-67-97-140-99 0 18-7 31-22 39-19 10-65 21-138 33v27c84-9 142-14 172-14 35 0 58 14 68 41 20 57 30 223 31 499v79H220c-24-47-52-93-84-136 56-5 84-14 84-27 0-8-12-17-37-26V215h386l48 61c27-24 49-46 66-67l-13-19H183V96h-57v459Z"/></symbol><symbol id="𭅆_S" viewBox="0 0 1000 1000" data-size="21"><path transform="matrix(1 0 0 -1 91 955)" d="m656 93 53-34-7-11-9-10-8-9-11-8-10-5-12-6-12-5-12-2-13-2-12-1v31L497 47v16h112l7 1 7 2 5 1 6 3 5 3 5 4 4 4 4 6 4 6m53-34-53 34 13 23 12 33 10 42 10 52 8 61 7 69 5 77 5 87 2 95 1 93H201l-19-50-48-98-28-47-30-45-33-43-35-41-8 6 27 46 49 94 23 48 19 49 18 48 16 50 14 52 11 52 11 52v11l61-21 13-14-18-7-9-35-15-54-11-33h520l31 26 57-46-26-16-1-78-2-96-4-88-6-80-7-70-8-64-10-54-12-48-14-39-18-33M266 486H135v21h131v141l62-10 16-11-16-9V507h142v141l63-10 16-11-16-9V507h28l43 48 52-48v-21H533V323h31l52 52 64-52v-21H533V135l-63-32v199H321l-1-10-9-34-12-32-16-30-18-26-22-24-24-19-28-17-30-11-5 8 24 20 20 21 18 22 14 22 12 25 9 26 7 28 5 30v1H129v21h137v163m62 0V368l-3-38-1-7h146v163H328Z"/></symbol><symbol id="𭅇_S" viewBox="0 0 1000 1000" data-size="21"><path transform="matrix(1 0 0 -1 42 962)" d="m792 93 54-33-16-21-10-9-9-8-11-6-12-6-12-4-11-3-14-2-13-1v31L634 47v16h112l7 1 12 3 5 3 4 3 5 4 5 4 4 6 4 6m54-33-54 33 3 9 6 23 5 37 5 49 3 60 5 70 2 82 3 94 2 103 2 105H203l-32-46-29-39-33-37-32-37-34-33-36-32-7 7 82 116 52 79 24 41 46 85 41 88 3 7 55-33 10-17-20-2-39-70-26-43-10-14h610l31 26 58-46-26-16v-1l-1-89-3-104-2-93-3-83-4-72-5-61-5-51-6-40-7-31-9-24M402 714l64-11 15-10-15-9V557h188l53 52 64-52v-22H466V394h183l32 26 57-47-26-21V121l-63-32v21H198l-42-21v336l63-31h183v320m247-341H219V131h430v242Z"/></symbol><symbol id="𭅈_S" viewBox="0 0 1000 1000" data-size="21"><path transform="matrix(1 0 0 -1 41 959)" d="m747 93 51-37-8-10-9-10-10-8-9-7-11-6-12-6-11-4-13-3-12-1-14-1v31l-62 16v16h70l7 1 7 1 6 2 5 3 6 3 4 4 6 4 9 12M432 531l63-10 16-11-16-10v-64h151l32 26 57-47-26-21V172h-63v243H495V35L432 3v412H280V123l-63-31v376l63-32h152v95M747 93l15 23 12 34 13 43 11 52 10 61 7 70 7 79 4 87 3 96 1 93H225l-23-50-26-50-28-49-31-48-33-45-37-43-40-41-7 6 61 95 27 47 25 49 23 48 20 50 19 50 15 52 14 52 14 64 59-22 13-14-19-7-9-35-17-55-13-32h598l31 26 58-48-26-15-1-79-3-97-4-90-6-80-9-72-10-64-11-56-15-48-16-41-20-33-10 7h-1l-2 1-1 1-3 2-2 2-24 18-1 1h-1l-1 1-2 2-3 2m-115 57 5 1 3 1 3 2 1 1 1 2 1 3v12h63v-14l-3-13-4-12-6-13-8-11-11-7-12-7-13-4-13-3h-14v31l-52 16v15h59M173 545v21h263v134l62-11 17-9-17-10V566h148l52 52 64-52v-21H173Z"/></symbol><symbol id="𭅉_G" viewBox="0 0 1000 1000" data-size="21"><path transform="matrix(1 0 0 -1 34 969)" d="M460 687V432c-5-135-13-220-23-256-11-36-26-63-45-81-17-17-53-32-106-45-3 15-8 25-16 32-25 14-56 27-95 40l5 15c47-15 83-24 108-28 55-8 91 19 108 80 9 27 17 111 23 251v267h-63c-7-65-15-130-25-197-11-70-37-145-79-225-42-79-114-154-217-226L23 73c93 80 158 158 197 235 37 75 60 146 69 213 9 62 15 124 18 186h-53c-11-64-27-127-49-190-24-68-50-121-78-160-29-38-65-78-108-119l-14 8c52 67 89 120 110 160s40 86 56 137c14 49 26 103 35 164h-66c-3-7-6-18-11-32-3-9-6-15-7-20-25-61-61-120-108-179l-14 8c69 132 113 247 132 345 9 44 12 70 9 77s-7 16-13 26l7 5 90-35c1-3 2-5 1-6s-3-2-6-2c-11-1-22-8-32-20-17-66-31-115-42-147h255l35 40 51-49c5-4 6-7 5-10s-4-6-11-7l-21-14m67 189 52-35c67 13 113 23 137 30 12 4 27 9 46 14 45 10 67 25 64 45l9 4 48-51c6-5 9-10 9-13s-3-5-9-6c-17 5-44 2-80-8-58-14-129-25-214-34V656c0-19 0-37 1-54h250l25 33 61-43c5-4 7-7 6-8-1-2-5-3-12-2H789V151l2-95c1-23-17-38-54-45 3 25 6 87 7 185v386H590c-1-88-4-169-10-242-9-139-55-253-139-340l-10 15c65 111 100 222 106 333 3 38 4 82 5 132 1 49 2 110 1 185v160c-3 13-11 27-26 40l10 11Z"/></symbol><symbol id="𭅊_J" viewBox="0 0 1000 1000" data-size="21"><path transform="matrix(1 0 0 -1 74 942)" d="M424 193h171l44 56c23-19 44-40 62-61l-12-20H223v-66h-56v308c43 0 67-1 72-2 14-1 20-5 20-11 0-5-3-11-10-18s-16-12-26-16V193h145v300H114l-10 25h327c31 63 53 126 68 190 57-20 86-36 86-48 0-11-13-17-40-19-16-33-44-74-82-123h132l50 61c24-22 46-44 64-67l-12-19H424V374h132l43 53c22-17 43-36 62-58l-12-20H424V193M210 726C162 636 98 556 18 486L0 502c95 108 161 236 198 383 66-11 99-24 99-40 0-9-15-17-45-23-8-25-18-49-30-71h528l39 50c42-33 63-55 63-66 0-5-3-9-8-12l-25-16c-1-356-16-568-46-635-21-48-66-72-136-72-1 20-14 34-40 42-18 7-56 14-114 22v26c67-7 122-10 165-10 40 0 65 13 76 38 24 56 37 258 38 608H210m98-195c-18 0-29 11-32 35-5 39-23 77-55 113l15 15c70-40 106-81 106-124 0-26-11-39-34-39Z"/></symbol><symbol id="𭅋_K" viewBox="0 0 1000 1000" data-size="21"><path transform="matrix(1 0 0 -1 72 936)" d="m791 771 53-39c10-9 14-16 11-22-1-5-12-10-31-18 9-102 12-202 10-299-2-95-8-176-20-243-9-49-28-86-54-109S699 5 652 0v5c1 8 1 15-1 18-2 7-6 12-12 16-14 7-29 13-46 20-24 9-44 16-61 22l6 13c78-24 131-33 159-30 30 4 52 25 67 63 13 39 22 115 25 227 4 115 1 237-8 368H230c-24-42-56-90-98-144C84 516 42 469 7 439l-7 6c44 47 88 107 132 179 45 75 86 157 123 247l56-29c18-9 24-16 18-20-3-2-16-5-39-7l-7-1-43-75h530l21 32m-172-98 61-27c9-7 11-12 6-15-5-7-12-10-22-10H278l-60-1-5 20 66-3h305l35 36m-7-122 52-29c11-7 16-13 14-17-3-4-11-6-25-6V366l1-12c2-5 1-10-1-14-2-5-9-10-22-15-14-4-23-5-27-3-2 2-3 6-3 13l1 5v8H290v-8c1-9 1-15 0-19-3-5-10-9-19-12-16-2-26-2-31 1-2 2-2 6-1 13v220l55-21h282l36 29M290 365h311v141H290V365m362-206 63-35c8-5 8-10 1-16-5-2-12-4-22-4H190l-2 20 83-4h113c-6 5-10 11-12 19-3 7-4 16-4 27 0 20-8 45-21 76-12 29-27 59-46 89l5 4c26-23 50-50 72-80 23-30 37-56 42-77 2-13 2-25 0-34-2-10-6-18-12-24h58c12 27 26 59 40 97 11 28 24 65 40 112l45-15c24-9 34-16 31-20-4-4-17-4-36-1l-1-2-55-91-47-80h129l40 39Z"/></symbol><symbol id="𭅌_K" viewBox="0 0 1000 1000" data-size="21"><path transform="matrix(1 0 0 -1 51 945)" d="m470 720-3-13H361V254l36 1 26 35c8 9 13 13 15 13s9-6 21-17l38-41-6-11H1v20h102v453H23v21h80v113l-4 49 47-11c19-6 28-12 28-19 0-6-9-12-28-20V728h171v118l-4 44 50-10c18-3 27-8 27-15 0-6-10-13-29-20V728h15l24 30c4 11 8 16 10 16 5 0 13-5 26-17l34-37m412-38c10-10 15-17 15-22 0-6-10-11-30-14 2-220-3-366-16-438-19-107-58-170-120-190L693 4c-8-3-15-4-19-4-5 0-8 3-8 9v13c0 10-5 17-15 20l-76 28 5 12 86-19c7-2 13-2 20-2 70 0 112 71 127 214 9 84 13 215 11 395H560c-32-73-75-137-127-191l-12 10c79 99 129 232 150 401l52-20c16-6 23-12 23-17 0-8-12-13-37-18-17-70-32-118-44-145h250l16 23c5 7 7 11 8 11 2 0 8-5 15-13l28-29M317 411v138H146V411h171m0 158v138H146V569h171m0-315v136H146V254h171m-140-54c14-6 21-12 21-18s-11-11-34-15c-16-34-38-66-68-97S36 16 6 0L0 9c27 19 54 49 81 88 27 43 45 83 53 122l43-19m597 221-4-16H491v20h196l24 33c7 8 11 13 12 13 2 0 9-5 20-15l31-35M426 54c0-28-6-41-19-41-8 0-15 9-20 29-13 50-46 101-99 153l10 9c55-47 88-77 101-91 17-19 25-39 27-59Z"/></symbol><symbol id="𭅍_J" viewBox="0 0 1000 1000" data-size="21"><path transform="matrix(1 0 0 -1 48 948)" d="M364 280c-49-48-107-88-173-121l-14 20c53 29 101 67 144 112-21 6-44 11-68 15l13 21 76-12c27 33 48 66 63 97h-87c-38-47-82-89-132-125l-16 18c69 62 121 137 156 227 51-11 76-22 76-32 0-7-12-12-36-15-9-16-19-32-30-48h455l36 43c40-31 60-51 60-60 0-3-4-8-11-13l-22-14c-7-193-26-310-57-350-20-26-53-39-99-39-1 18-11 32-30 41-12 5-36 12-74 19v26c35-5 72-8 109-8 32 0 53 14 63 41 18 49 29 146 33 289H603c-24-56-50-102-78-139 28-8 50-16 66-23l18-8c29 47 50 94 63 142 51-8 77-17 77-27 0-7-12-14-35-19-15-40-36-78-62-116 38-19 57-38 57-56 0-15-8-23-24-23-10 0-22 5-34 14-15 10-27 17-34 21-50-59-107-107-173-143l-16 21c58 38 109 85 151 143-33 16-61 28-83 37-61-71-139-126-233-165l-16 20c85 45 153 99 204 162-29 10-59 19-87 27m25 26c19-4 48-11 87-20 28 40 49 82 65 126h-77c-12-20-20-34-24-40-15-24-32-46-51-66m360 228H187c0-242-56-420-168-534L0 14c86 121 129 296 129 527v233c15-5 37-15 67-28h246v68H61l-9 25h728l52 58c27-21 51-43 72-65l-10-18H492v-68h249l35 40c36-26 55-44 55-54 0-3-2-6-6-9l-23-15V499h-53v35m0 25v71H492v-71h257m0 96v66H492v-66h257m-307-96v71H187v-71h255m0 96v66H187v-66h255Z"/></symbol><symbol id="𭅎_K" viewBox="0 0 1000 1000" data-size="21"><path transform="matrix(1 0 0 -1 63 944)" d="m449 760-3-16H236V641h104l16 16c9 9 14 13 15 13 2 0 7-4 15-12l32-28c6-7 10-12 10-16 0-3-4-6-12-10l-24-12V369c0-23-1-36-1-38-2-5-8-11-19-18-9-4-15-6-17-6-3 0-5 14-6 42H236V235h116l18 26c8 11 13 16 16 16 2 0 9-5 19-15l30-35-7-12H236V22c0-5-7-11-19-17-9-3-15-5-18-5-5 0-8 5-9 14 1-13 1 5 1 52v149H0v20h191v114H97c-2-17-2-26-2-27-2-4-9-8-22-13-7-3-11-4-13-4-4 0-7 4-7 13v306l-6 52 47-35h97v103H8v21h183v78l-1 43 46-9c21-4 32-9 32-15 0-7-11-14-32-20v-77h129l20 25c7 9 11 13 13 13 1 0 7-4 17-12l34-31M349 505v115H97V505h252m0-136v115H97V369h252m512 356c9-8 13-14 13-19 0-1-11-11-32-28 0-66-1-131-1-197-2-79-7-139-15-178-10-52-33-83-68-93-17-5-29-8-36-8-9 0-13 6-14 17 0 11-5 18-14 21l-63 22 4 14 104-18c24-2 40 18 47 60 10 59 14 189 13 391H529c-39-94-77-163-112-206l-13 9c29 45 56 105 81 179 26 75 42 141 47 197l46-12c16-4 25-9 25-16 0-8-12-13-35-15-9-41-19-79-31-115h251l18 20c6 7 9 11 10 11 4 0 10-4 19-13l26-23m12-656c-5-19-52-28-140-28H595c-48 0-78 5-91 16-16 12-25 37-25 76l-2 461 51-31h127l16 18c6 8 10 12 12 12 3 0 11-5 23-15l23-19c10-8 15-15 15-20 0-3-9-9-26-17V320c-2-6-10-11-25-15-5-2-10-2-13-2-6 0-8 4-7 13l2 20H522V134c0-29 6-46 17-53 7-5 25-7 55-7h128c34 0 56 2 67 6 18 7 30 24 36 51l21 95 14-3-13-97c-3-20 1-32 11-37 11-5 16-12 15-20M675 356v187H522V356h153Z"/></symbol><symbol id="𭅏_G" viewBox="0 0 1000 1000" data-size="21"><path transform="matrix(1 0 0 -1 13 976)" d="m570 628 39-35h108l34 37 42-46c5-3 6-6 5-8s-4-3-11-4l-17-9V452l3-80c-1-21-13-31-38-32v28H618V140c0-35 5-57 16-64 11-9 30-14 57-17 26-3 64-5 114-4 11-1 30 1 56 5 33 5 52 18 55 39 5 29 9 80 12 154h11l2-109c1-35 12-57 32-66-16-28-41-44-74-48-18-5-45-7-82-6-70-4-122-2-156 6-58 5-86 41-83 108v438c-2 15-7 29-16 43l8 9M222 951l71-30c5-3 8-5 9-7s-1-4-4-5c-6 1-13-4-22-14-1-33-3-63-6-90h119l28 38 58-49c5-3 7-6 6-7 0-1-3-2-10-2H268c-3-41-7-76-12-106h107l28 39 59-45c5-3 7-6 6-8-1-1-4-2-11-2H255c-1-4-2-10-3-19s-3-15-4-19c-5-24-12-47-21-70h205l28 38 59-49c5-3 7-6 6-7s-5-2-12-2H346c17-29 32-51 44-65 21-30 44-54 71-71 17-11 29-18 36-21 11-4 28-8 53-11v-12c-13-3-23-5-31-6-7-1-16-10-26-25-46 25-88 66-125 121-13 20-28 50-44 90H219c-12-29-27-55-45-80-36-51-92-100-169-147l-5 12c75 65 126 122 155 170 2 5 6 12 11 21 5 11 9 19 12 24H93c-15 0-28-4-39-13l-30 33h163c11 26 20 57 28 93l3 15h-74c-16 1-29-3-39-12l-30 28h145c5 29 8 65 10 106H113c-15 0-28-4-39-13l-30 33h187c1 21 3 55 4 102-3 14-10 25-20 33l7 11m689-215V451c1-68-1-115-7-140-5-25-17-45-35-60-19-15-48-27-89-36-2 16-10 29-24 40-25 12-50 20-74 24l2 15c42-8 80-13 113-14 23-3 41 7 52 30 14 25 21 65 21 119v318H620c-23-57-64-114-122-170l-7 10c59 79 100 161 123 245 15 51 21 79 18 85-3 7-7 16-14 26l8 6 86-38c1-3 2-5 1-6s-3-2-6-2c-12 1-22-6-31-21-16-43-31-82-46-115h225l33 39 43-39c10-8 10-14 0-19l-20-12M222 486l76-34c7-3 8-7 4-11-11-5-20-12-26-21v-64h69l22 31 55-37c5-3 7-6 6-8-1-1-4-2-11-2H276V212h108l28 38 59-45c5-3 7-5 6-7-1-1-5-2-12-2H276V98l3-55c1-24-14-38-45-43 3 24 5 72 6 144v52H109c-15 1-28-4-39-13l-29 29h199v128h-73c-15 1-28-4-39-16l-29 32h141v74c1 11-8 25-26 44l8 12m396 91V384h117v193H618Z"/></symbol><symbol id="𭅐_J" viewBox="0 0 1000 1000" data-size="21"><path transform="matrix(1 0 0 -1 65 948)" d="M179 701h351c34 60 61 125 81 195 63-20 94-38 94-52 0-9-15-14-45-15-25-42-57-85-95-128h184l51 66c26-23 48-46 68-70l-13-21H168V528c0-233-49-409-147-528L0 16c71 124 107 295 107 511v207c24-9 48-20 72-33m191-391c137 55 254 131 352 229 48-31 72-54 72-67 0-7-6-10-19-10-8 0-18 1-28 4-113-83-239-145-377-187V119c0-17 6-28 17-32 16-5 71-7 166-7 114 0 181 5 201 14 25 11 40 70 47 176l27-10c0-68 3-112 9-132 5-19 16-28 33-27-1-34-20-55-56-62-52-9-138-13-259-13-130 0-204 6-222 17-15 9-23 30-23 63v506c67-4 100-13 100-28 0-8-13-17-40-26V310m2 402c-16 0-27 12-34 36-13 49-41 90-83 124l14 19c48-19 85-42 110-70 21-23 31-47 31-70 0-26-13-39-38-39Z"/></symbol><symbol id="𭅑_J" viewBox="0 0 1000 1000" data-size="21"><path transform="matrix(1 0 0 -1 53 937)" d="M292 212c115 34 219 86 311 155 47-29 71-50 71-61 0-7-8-11-24-11-5 0-14 1-27 3-101-54-211-93-331-117V85c0-15 6-24 17-27 15-4 81-6 199-6 98 0 157 2 175 6 16 3 27 13 32 32 6 22 12 58 16 108l25-9c0-54 4-89 11-106 7-13 20-19 39-19-1-32-15-51-44-56-31-5-123-8-277-8-130 0-205 6-226 17-16 9-24 30-24 63v273c-60-55-133-103-220-143L0 232c122 69 215 151 277 247H41l-8 25h259c21 35 40 75 57 121H103l-9 25h264c22 70 38 144 49 223 66-11 99-23 99-37 0-9-15-17-44-24-11-60-24-114-40-162h270l48 63c28-25 50-47 67-68l-11-20H536c24-42 54-82 91-121h124l51 63c26-21 50-43 71-67l-12-21H651c70-67 151-121 243-163-19-13-35-31-48-54-102 58-186 130-253 217H342c-27-40-56-76-88-108 51-6 76-15 76-27 0-11-13-19-38-25V212m65 292h218c-26 36-50 77-72 121h-90c-14-39-33-80-56-121m-94 163c-18 0-28 8-32 25-11 49-41 93-91 131l13 19c48-18 86-41 113-69 22-23 34-45 34-67 0-26-13-39-37-39m301-7-18 13c35 53 65 114 92 183 57-26 86-46 86-60 0-9-15-13-44-13-34-44-73-85-116-123Z"/></symbol><symbol id="𭅒_J" viewBox="0 0 1000 1000" data-size="21"><path transform="matrix(1 0 0 -1 58 935)" d="M476 437H26l-10 25h351v110H130l-10 25h247v102H64l-10 25h377c30 46 53 95 70 146 58-17 86-31 86-42 0-8-13-14-41-17-29-35-56-64-82-87h161l48 61c24-23 43-44 57-64l33 51c54-27 80-47 80-60 0-8-10-12-29-12-8 0-15 1-21 1-63-89-132-167-207-234h172l55 71c27-26 50-51 70-76l-11-20H558c-75-64-152-117-232-160v-82c141 36 259 88 353 155 43-31 64-53 64-66 0-7-6-10-17-10-6 0-16 2-31 5-106-52-229-88-369-109v-75c0-21 7-33 19-37 14-5 71-7 170-7 85 0 143 2 173 7 22 4 36 18 43 43 8 31 14 74 18 129l27-10c1-68 5-111 10-128 5-14 17-22 37-22-1-35-17-56-50-63C736 4 658 0 537 0 396 0 315 6 294 18c-17 10-26 31-26 62v171c-77-39-161-75-253-107L0 168c107 44 196 86 268 127v67c32-14 52-24 62-30 48 30 97 65 146 105m29 25c42 38 79 74 111 110H424V462h81m133 136c36 44 62 78 78 101H424V597h123l43 52c20-18 36-35 48-51M317 732c-17 0-29 10-35 29-10 33-34 61-71 84l11 20c43-10 77-25 100-44 19-16 28-33 28-51 0-25-11-38-33-38Z"/></symbol><symbol id="𭅓_K" viewBox="0 0 1000 1000" data-size="21"><path transform="matrix(1 0 0 -1 62 944)" d="m522 218-4-15H275V12c-1-4-8-7-22-10-7-1-12-2-16-2-5 0-8 3-8 10 0 1 1 7 1 16 1 10 1 19 1 28v149H0v20h231v115H121v-31c-1-3-9-6-23-9-8-3-13-4-16-4s-5 2-6 5v20c1 13 2 25 2 35v255l-6 50 54-33h105v106H26v21h205v92l-2 44 44-11c20-5 30-10 30-17s-9-12-28-15v-93h125l25 31c7 11 11 16 12 16s7-4 15-13l45-39-5-16H275V626h99l19 20c6 8 10 12 10 12 1 0 5-4 12-12l22-25c10-12 15-20 15-26 0-5-8-11-25-18V359c0-28 0-42 1-41-2-4-10-7-23-10-9-4-15-5-17-5-3 0-5 3-5 9 0 9 1 17 1 26H275V223h150l26 35c9 12 14 17 15 17s6-5 13-15l43-42M876 63c-3-13-33-20-90-20H609c-35 0-56 5-62 14s-9 33-9 73v748l53-17c15-7 22-13 22-17s-10-11-32-22V443c83 60 156 147 218 259l37-31c12-10 18-18 18-24 0-7-13-11-39-11-71-90-149-162-234-216V129c0-27 2-42 6-46s20-6 48-6h135c19-2 32 0 40 5 4 4 8 14 11 29l31 126 12-5-14-122c-2-17 2-27 11-30 10-4 15-9 15-17M384 491v114H121V491h263m0-132v111H121V359h263Z"/></symbol><symbol id="𭅔_J" viewBox="0 0 1000 1000" data-size="21"><path transform="matrix(1 0 0 -1 99 933)" d="M71 801h575l50 65c28-25 51-48 69-70l-12-20H60V92h613l56 67c29-25 53-49 73-73l-12-19H60V0H0v833c25-10 49-21 71-32m182-329c111 42 209 100 295 175 49-33 73-55 73-65 0-7-8-11-24-11-5 0-14 1-27 3-93-56-198-101-317-133V308c0-20 5-31 15-34 15-5 60-8 135-8 76 0 127 2 153 6 17 2 30 14 37 35 10 29 17 68 22 117l26-10c0-61 3-99 10-114 5-13 15-19 30-19-1-28-12-47-34-56s-99-13-231-13c-114 0-180 6-198 18-16 10-23 33-23 69v402c67-4 100-13 100-26 0-8-14-17-42-27V472Z"/></symbol><symbol id="𭅕_S" viewBox="0 0 1000 1000" data-size="21"><path transform="matrix(1 0 0 -1 85 956)" d="m719 912 63-52v-21H63V68h651l53 53 62-53V47H63V31L0 0v892l63-32h603l53 52M412 474H106v21h306v214H161v20h445l53 53 63-53v-20H476V495h204l52 53 63-53v-21H476V186l-1-14-2-14-5-12-6-12-9-11-11-8-11-7-13-4-13-2h-13v31l-84 15v16h90l5 1 3 1 1 2h1l1 1 1 2 1 3 1 5v295Z"/></symbol><symbol id="𭅖_G" viewBox="0 0 1000 1000" data-size="21"><path transform="matrix(1 0 0 -1 62 943)" d="M28 820c-3 16-10 34-21 54l12 12 44-48h691l33 40 66-47c7-5 10-9 8-11-1-2-7-2-18-2H72V61h709l29 34 56-38c7-6 11-10 11-13s-4-4-11-3H86L52 0 0 40c16 15 26 28 28 40v740m183-126h456l31 38 61-44c5-2 7-4 5-6s-7-4-15-4H500V450h248l28 40 62-45c6-3 8-6 6-7-2-2-6-4-15-5H500V228l1-90c0-22-17-36-50-41 3 23 5 80 7 172v164H218c-19 0-34-4-44-13l-29 30h313v228H282c-17 0-31-4-43-14l-28 30Z"/></symbol><symbol id="𭅖_S" viewBox="0 0 1000 1000" data-size="21"><path transform="matrix(1 0 0 -1 53 965)" d="m784 931 63-52v-22H63V68h715l53 52 64-52V47H63V31L0 0v910l63-31h668l53 52M658 803l63-53v-21H478V496h200l51 52 64-52v-21H478V128l-64-31v378H112v21h302v233H167v21h438l53 53Z"/></symbol><symbol id="𭅗_S" viewBox="0 0 1000 1000" data-size="21"><path transform="matrix(1 0 0 -1 41 960)" d="m802 920 63-53v-21H63V53h739l52 51 64-51V31H63L0 0v898l63-31h686l53 53M229 176v-37l-64-32v651l64-32h482l31 26 58-47-27-21V154l-62-31v53H229m209 268H229V196h209v248m273 0H501V196h210v248M438 705H229V466h209v239m273 0H501V466h210v239Z"/></symbol><symbol id="𭅘_J" viewBox="0 0 1000 1000" data-size="21"><path transform="matrix(1 0 0 -1 99 936)" d="M73 806h572l50 66c28-25 52-49 70-71l-12-20H61V87h615l54 68c27-24 51-49 72-74l-12-19H61V0H0v837c23-7 48-18 73-31m298-580v183H168l-12 25h215v153H143l-11 25h454l44 58c26-22 48-44 66-66l-10-17H430V434h128l45 60c25-24 46-47 61-68l-9-17H430V226h191l47 62c25-24 47-46 65-68l-12-19H118l-11 25h264m56 392c-17 0-30 10-38 31-17 43-49 77-95 103l12 19c50-12 89-30 117-55 23-20 35-40 35-59 0-26-10-39-31-39Z"/></symbol><symbol id="𭅙_S" viewBox="0 0 1000 1000" data-size="21"><path transform="matrix(1 0 0 -1 61 955)" d="m770 909 62-53v-20H63V67h700l52 53 64-53V47H63V31L0 0v889l63-33h654l53 53m-73-441-25 44-8 13-84-13-107-15-40-5 52-9 16-10-16-10V357h157l51 53 64-53v-20H485V164h210l53 53 63-53v-21H98v21h325v173H151v20h272v133h-3l-51-6-50-5-96-11-26-3-9-17-12 15-1 5v13l-1 2v14l-1 2v13l-1 4v10l32 1 141 155 43 51H125v22h547l53 52 63-52v-22H470l-61-62-53-50-52-46-55-41-9-6 75 3 50 2 52 2 161 5h75l-25 33-33 38-57 56 5 9 26-11 25-13 46-30 41-36 18-20 36-44 17-23 2-23-14-20-23-3-20 15m-525 58 4-63-15 62 11 1Z"/></symbol><symbol id="𭅚_K" viewBox="0 0 1000 1000" data-size="21"><path transform="matrix(1 0 0 -1 103 925)" d="m615 701 46-26c12-7 17-13 16-17-2-6-14-9-37-9-75-87-151-153-230-198-65-38-150-70-256-99l-5 11c101 32 187 73 258 122 65 45 126 104 182 175H414l-32-22-33-24c36-18 61-31 75-39 18-12 27-23 27-34 0-12-4-19-13-21s-17 2-25 13c-10 13-19 24-28 33-14 13-30 26-47 37-29-19-54-34-76-45-26-14-52-27-79-37l-3 11c52 30 100 62 143 98 52 45 91 91 117 137l37-16c21-8 31-14 30-16-1-3-13-4-36-4l-27-32-19-24h163l27 26m-41-215c16-6 24-11 24-15-1-5-14-9-40-11-5-4-10-9-17-15-4-4-10-9-20-17l-19-18h164l31 24 40-29 1-1c13-10 18-17 17-20-2-5-16-9-43-11-74-78-159-136-253-172-83-31-199-55-346-69l-2 11c135 17 246 46 334 86 90 40 165 96 226 170H487c-11-9-24-18-39-29-9-5-22-14-40-25l-19-14 11-5c32-13 53-22 63-29 16-9 24-18 24-26 0-13-5-21-15-25-10-3-19 2-26 14-6 10-13 19-20 26-11 11-26 24-47 40-27-11-59-24-96-37-33-10-66-19-98-28l-5 10c84 32 150 63 199 94 53 33 105 78 157 135l38-14m213-381c8-5 10-10 6-14-4-5-12-8-25-8H51V63l1-20c1-9 1-16-1-19-3-6-10-12-21-17C17 1 8 0 5 3 3 7 2 14 3 25l2 17v758l-5 52 82-47h583l45 41 58-36c11-7 15-13 10-19-4-4-13-6-25-6H51V99h645l41 41 50-35Z"/></symbol><symbol id="𭅛_S" viewBox="0 0 1000 1000" data-size="21"><path transform="matrix(1 0 0 -1 77 958)" d="m719 554-28 19-25 22-25 23-23 26-22 27-20 29-18 32-9 17-33-51-25-34-26-33-27-29-29-29-29-26-31-24-33-19-5 7 49 56 46 60 24 31 42 69 38 73 16 35h-1l4 8H63V68h667l52 52 64-52V47H63V31L0 0v895l63-32h619l52 53 63-53v-20H535l50-31 9-16-19-2-12-21 42-49 47-46 25-20 24-17 26-17 25-13 56-26-60-49-29 18m-23-87 58-48-26-21V271h-64v148H563V109l-63-31v341H375v21h289l32 27M220 91l-24-8-21 11-8 22 4 30v27l-1 23-4 22-5 19-7 15-4 1 2 4-8 14-13 15-15 14-18 12 3 8 23-5 22-8 20-13 2-2 103 204 60 108 9-4-106-283-16-51-5-18-1-12-3 1 3-5 9-25 6-30 2-31 1-35-10-20m508 180-1-13-2-13-5-13-6-11-9-11-11-9-11-7-13-4-14-2h-12v31l-53 15v16h53l5 1 5 1h3l2 1 2 3 1 1 1 3 1 5v6h64M174 521l-3 8-5 9-7 9-7 9-9 8-23 19-14 10-15 8 3 8 17-5 17-2 17-3 14-5 15-6 13-7 12-7 12-9 11-9 8-11 3-24-14-19-24-2-19 15-2 6m434 70 53-47v-22H430v22h135l43 47M236 711l-7 17-4 7-7 10-7 9-19 18-23 19-15 7 3 10 17-5 15-3 16-4 15-5 13-5 13-7 13-8 21-17 10-10 4-24-15-20-23-3-20 14Z"/></symbol><symbol id="𭅜_K" viewBox="0 0 1000 1000" data-size="21"><path transform="matrix(1 0 0 -1 97 925)" d="M787 105c8-5 10-10 6-14-4-5-12-8-25-8H51V63l1-20c1-9 1-16-1-19-3-6-10-12-21-17C17 1 8 0 5 3 3 7 2 14 3 25l2 17v758l-5 52 82-47h583l45 41 58-36c11-7 15-13 10-19-4-4-13-6-25-6H51V99h645l41 41 50-35m-57 530 40-49c9-12 11-20 6-23-4-3-15-3-34 0l-85-77-8 6 62 94H578c12-3 17-8 15-14-3-6-8-8-15-8 7-97 32-176 75-236 38-56 89-94 153-116v-11c-17-2-31-5-42-11s-18-14-21-24c-48 44-84 87-108 128-33 56-55 127-68 213-12-85-35-153-68-203-41-59-103-109-186-150l-6 8c72 43 126 93 161 150 41 69 65 160 69 274h-32c-12-27-27-56-46-88-24-37-48-66-71-88l-7 9c30 39 56 87 78 144 18 48 37 113 57 195l38-17c15-8 22-15 19-21-2-3-11-7-28-12l-9-27c-5-16-9-29-12-37-5-16-10-30-14-40h201l19 31m-365 86c13-3 18-7 16-14-3-5-10-9-22-11v-90h29l28 36 39-34c6-6 7-11 4-14-2-3-7-5-16-8h-84V223c1-7 1-10-1-12-2-3-7-7-15-11-11-6-17-6-20-2-2 2-2 9-2 22l2 28H200v-53c1-10 1-16-1-19-2-6-9-11-19-16-10-6-16-7-19-4-1 2-1 10 0 24 0 8 0 15 1 21 1 8 1 17 1 26v359h-44l-39-3-9 24 59-2h33v135l45-18c13-6 18-11 15-17-4-3-11-6-23-10v-89h123v128l42-13M200 586V436h123v150H200m0-167V266h123v153H200Z"/></symbol><symbol id="𭅝_J" viewBox="0 0 1000 1000" data-size="21"><path transform="matrix(1 0 0 -1 82 942)" d="M601 358c-20-48-48-91-85-130 19-6 40-15 65-26 57-27 86-50 86-70 0-16-9-24-26-24-11 0-24 6-40 18-32 24-73 46-124 68-74-52-192-82-353-89l-10 24c139 12 244 40 313 86-45 18-93 33-143 45-2-3-7-9-14-20-6-7-11-13-14-18l-44 20c29 39 54 77 77 116H96l-9 25h138c-7 4-12 12-15 24-7 29-25 53-53 73l11 16c67-21 101-50 101-86 0-13-4-22-12-27h46c20 34 40 76 60 124 49-13 73-25 73-35 0-9-13-14-39-17-10-23-22-47-36-72h87c23 38 41 76 55 115 51-16 77-29 77-38 0-10-13-15-38-16-20-23-40-43-59-61h196l48 54c27-19 51-39 72-59l-12-20H601m-61 0H347c-14-24-30-49-48-76 62-11 117-24 165-38 35 38 61 76 76 114M257 520v-23h-54v266c23-9 43-18 61-27h321l34 40c38-28 57-46 57-54 0-4-3-8-10-13l-18-12V492h-54v28H257m0 122h337v69H257v-69m0-25v-72h337v72H257M65 821h611l47 63c27-22 51-45 72-68l-12-20H59V74h660l50 64c25-23 48-46 68-70l-11-19H59V0H0v851c26-11 48-21 65-30Z"/></symbol><symbol id="𭅞_S" viewBox="0 0 1000 1000" data-size="21"><path transform="matrix(1 0 0 -1 78 950)" d="m735 899 64-52v-21H63V68h665l52 53 64-53V48H63V31L0 0v879l63-32h621l51 52M119 226l-6 27 22 2 22 4h1v339h-48v20h139v106H133v21h219l43 47 52-47v-21H313V618h64l43 48 53-48v-20h-74V149l14 9 40 32 35 36 32 40 24 39-20 43-16 48-12 50-8 54-1 23-8-13-21-28-22-24-8 6 26 59 24 61 20 65 18 68 6 36 6 36 2 10 60-22 14-13-19-7-16-55-11-35-14-34-9-21h115l43 47 53-47v-21h-59l-10-66-17-68-20-62-26-57-14-26 11-18 28-30 30-27 33-23 61-33-59-47-40 26-35 30-32 35-29 37-1 1-16-22-38-40-43-33-47-26-50-21-4 9 6 4-39-20v148l-46-19-50-17-48-16-46-13-7-19-14 12v4l-2 7v2l-2 9v2l-2 11v1m-6 27 12-63-21 61 9 2m223 114H222v-99l33 4 26 4 28 4 27 3v84m287 224h-98l-11-23-15-25 11-38 15-51 19-46 20-42 5-9 1 1 20 54 15 60 12 63 6 56M336 482H222v-93h114v93m0 116H222v-94h114v94Z"/></symbol><symbol id="𭅟_J" viewBox="0 0 1000 1000" data-size="21"><path transform="matrix(1 0 0 -1 47 956)" d="M497 579c-84-39-162-65-234-78l-9 23c67 19 132 45 196 79-53 25-101 44-143 57l10 23c69-16 130-33 181-53 40 25 78 52 113 83 43-18 65-33 65-44 0-5-5-9-14-11-8-3-19-3-32-2-24-16-51-32-80-49 63-32 94-59 94-81 0-15-8-23-23-23-8 0-19 6-32 17-21 18-52 38-92 59M139 718H10L0 743h521c31 55 56 111 76 168 60-23 90-41 90-55 0-9-16-14-46-15-15-22-43-55-82-98h224l53 70c26-24 49-49 70-75l-11-20H195V517c0-17 7-27 19-30 15-4 88-6 219-6 109 0 214 4 313 11 6 1 12 1 16 1 22 0 33-12 33-35 0-9-7-15-23-18-32-6-125-9-278-9-198 0-306 4-324 10-21 7-31 28-31 62v215M746 32c-58 0-93 5-106 13-14 9-21 28-21 57v291c64-3 96-11 96-26 0-8-13-16-39-25V115c0-14 4-22 13-26 7-2 27-4 61-4 37 0 59 9 66 26 11 27 17 77 20 148l27-10c0-67 2-111 8-131 4-14 16-22 33-22-1-26-12-43-32-52-20-8-62-12-126-12M20 0 6 23c71 33 120 74 145 123 19 36 28 82 28 136v103c65-1 97-8 97-23 0-8-12-17-37-26v-54c0-93-26-163-78-210C129 43 82 19 20 0m378 56v312c63-1 95-8 95-22 0-8-13-17-39-27V56h-56m-57 691c-16 0-27 12-34 36-11 41-36 76-75 106l13 18c88-36 133-76 133-122 0-25-12-38-37-38Z"/></symbol><symbol id="𭅠_J" viewBox="0 0 1000 1000" data-size="21"><path transform="matrix(1 0 0 -1 65 947)" d="M296 510V381c0-112-27-200-82-263C169 65 102 26 13 0L0 22c157 65 235 186 235 362v187c13-5 37-17 73-36h88v144H22l-12 25h386v189c71-1 106-9 106-24 0-9-16-19-47-30V704h270l58 75c28-25 55-52 79-81l-12-19H455V535h84l41 51c43-35 65-58 65-67 0-4-4-8-11-13l-26-15V122c0-15 5-25 14-29 9-3 34-5 75-5 44 0 70 11 78 31 12 30 19 83 22 158l26-9c0-79 3-128 10-145 5-15 17-22 37-22-1-32-14-51-39-57-23-6-75-9-156-9-59 0-95 6-108 17-12 9-18 29-18 59v399H296Z"/></symbol><symbol id="𭅡_J" viewBox="0 0 1000 1000" data-size="21"><path transform="matrix(1 0 0 -1 54 949)" d="M200 469v-42h-58v372c29-11 51-21 66-28h141c13 41 23 84 30 128 63-11 94-24 94-38 0-7-13-13-39-17-19-29-37-53-53-73h310l39 47c41-33 62-54 62-64 0-3-2-6-6-9l-27-19V437h-58v32H200m216 169v108H200V638h216m56 0h229v108H472V638m-56-25H200V494h216v119m56 0V494h229v119H472m-60-259c-93-9-195-14-305-17l-8 25c214 11 401 37 561 78 43-24 65-40 65-50 0-5-7-8-20-8-10 0-22 2-35 5-61-11-128-20-199-28V250h289l57 68c29-25 54-49 74-73l-12-19H471V0h-59v226H10L0 250h412v104Z"/></symbol><symbol id="𭅢_G" viewBox="0 0 1000 1000" data-size="21"><path transform="matrix(1 0 0 -1 46 982)" d="m170 958 92-34c3-2 5-4 5-5s-2-3-5-4c-13-4-23-12-30-24V731c0-44 0-86-1-125h78l32 40 66-50c5-3 7-6 6-8-1-1-4-2-11-2H231v-87c0-39-1-73-4-104h99l33 39 66-49c5-3 7-6 6-8-1-1-5-2-12-2H226c-3-33-7-62-12-87C191 173 124 80 14 7L6 17c103 93 159 188 170 285 1 6 1 8 1 6 3 28 6 50 7 67H77c-19 0-34-4-44-12L0 395h185c1 23 2 48 3 75 1 13 1 28 1 45v71H86c-19 0-33-4-44-12L9 606h180v305c-4 13-13 25-26 35l7 12m169-89 68-33c10-7 12-12 7-14-15 0-26-5-32-16-1-2-3-5-5-9-29-52-62-109-99-170l-16 7 48 107c21 51 31 82 31 93-2 8-5 17-9 28l7 7M25 832l7 9c27-18 49-37 67-57 17-19 28-39 33-60 5-19 6-34 3-46-3-11-10-17-21-16-12 1-19 13-22 35s-9 43-18 64-26 45-49 71m433-86 38-45h150v206c1 10-8 25-29 45l9 11 89-35c9-3 11-6 6-11-14-4-24-11-30-20V701h127l34 40 51-48c5-4 6-7 5-10s-4-6-11-7l-17-9V459l4-92c5-27-12-41-49-43v52H691V139l3-95c1-23-17-38-54-44 3 43 5 104 6 184v192H506v-28c1-24-16-39-52-45 4 34 6 86 7 156v234c-3 16-9 30-18 41l15 12m233-350h144v285H691V396m-45 285H506V396h140v285Z"/></symbol><symbol id="𭅣_G" viewBox="0 0 1000 1000" data-size="21"><path transform="matrix(1 0 0 -1 23 963)" d="m549 906 40-36h213l36 37 47-45c5-4 6-7 5-10s-4-6-11-7l-18-9V560l5-88c0-11-3-18-9-22-5-4-17-8-37-13v50H594V147c1-33 6-52 16-59 11-7 30-11 57-12 34-1 59-2 75-2 39 1 71 3 96 6 33 5 52 18 55 39 5 31 9 83 12 158h15l1-110c1-34 12-56 33-65-13-21-24-34-33-40-7-5-21-10-42-16-15-4-55-7-121-10-61-1-112 0-152 4-39 6-57 43-53 112v707c-2 9-8 21-17 37l13 10M313 562c0-36 4-58 12-65 12-7 33-11 64-11 42-1 66 7 72 24 3 10 5 21 6 33 0 5 0 17 1 38 1 23 1 41 1 56h12c3-37 5-67 6-90 1-19 9-32 24-39-9-31-25-48-48-53-13-3-30-4-50-4-35 0-59 0-72 1-15 1-26 3-33 6-22 10-33 41-33 93v326c0 16-6 29-19 39l7 10 82-33c2-1 3-3 3-4 0-2-1-3-4-4-9-1-20-7-31-17V694c39 26 66 46 83 60 24 19 38 33 42 42 4 8 3 15-3 22l12 8 55-54c3-3 5-5 5-8 0-2-2-4-5-5-17 5-33 3-47-6-7-5-24-16-49-31-3-2-5-3-6-4-23-15-52-31-87-48V562m376 288h-95V507h95v343m37-343h94v343h-94V507m-508-52 78-35c8-3 10-7 5-11-11-4-20-11-27-20v-83h153l28 39 59-49c5-3 7-6 6-8-1-1-4-2-11-2H274V99l2-56c1-23-14-37-45-43 2 25 4 73 5 145v141H69c-15 1-28-3-39-12L0 306h236v92c1 11-7 26-26 45l8 12M108 884c10-3 13-8 8-13-9-3-17-8-24-16V732h73l27 38 58-46c5-4 8-7 7-9s-4-3-11-3H92V496c19 8 51 22 96 41 21 9 38 17 50 22l7-16c-76-43-126-72-151-87-13-11-22-22-27-33l-40 50c10 4 19 12 27 24v364c-1 16-8 30-21 42l5 11 70-30Z"/></symbol><symbol id="𭅤_S" viewBox="0 0 1000 1000" data-size="21"><path transform="matrix(1 0 0 -1 32 961)" d="m243 923 56-31 10-16-22-4-20-29-18-24-20-22-11-11-4-4h169l31 27 59-48-27-21V404l-63-31v63H272l-5-23-14-33-15-31-18-29-21-26-24-23-27-21-23-14h157v179l64-11 15-10-15-10V236h45l52 53 63-53v-21H346V31L282 0v215H0v21h116l-3 4 22 25 19 24 17 26 15 26 11 27 11 28 8 31 1 9h-94v-63l-62-32v472l62-31h78l6 11 3 15 13 42 11 40 4 20 5 13m299-384-67-28-9 18 76 33v231l63-11 16-11-16-8V588l80 32v293l62-10 16-10-16-10V646l97 41v11l31 27 58-48-27-16V359l-1-11-4-13-5-12-7-11-8-10-10-9-11-8-11-5-13-4-13-2-13-1v32l-42 15v16h42l6 1 6 1 4 1 4 1 5 5 3 3 2 4 2 4 1 3v10l1 18v276l-97-39V215l-62-31v414l-80-34V104l1-4 1-4 1-1v-1l1-1 3-1 2-1 6-1 6-1h248l31 132h10L905 89l19-13 13-18-13-19-19-13H626l-14 1-12 2-13 4-12 7-11 9-8 11-6 11-5 13-2 13-1 13v429m-317 54H123V457h98v1l3 33 1 35v67m62 0v-69l-4-39-6-28h106v136h-96m-62 168H123V614h102v147m158 0h-96V614h96v147Z"/></symbol><symbol id="𭅥_G" viewBox="0 0 1000 1000" data-size="21"><path transform="matrix(1 0 0 -1 17 980)" d="M448 596V194c1-39-2-68-9-87-7-17-28-29-63-37-1 22-10 36-26 42-18 6-34 12-47 19l2 15c41-10 68-15 82-14 15 2 23 18 23 49v428H90V177l5-96c0-14-5-24-14-30-8-6-20-11-36-15 2 24 4 86 6 186v394c-5 15-11 26-19 35l14 12 31-34h147v127H72c-16 0-30-4-41-13L0 776h224v128c1 7-7 21-25 41l8 10 73-33c8-3 10-7 6-11-10-3-18-8-25-17V776h144l29 38 61-47c5-3 7-6 6-8s-4-3-10-3H261V629h133l30 39 43-40c10-9 10-16 0-20l-19-12m37-140-12 7c24 47 46 105 66 172 17 62 30 124 40 187 9 63 12 98 9 106-3 7-7 16-13 26l8 6 94-36c1-3 2-4 1-5s-3-2-6-2c-11 0-22-7-32-21-1-3-2-8-3-15-13-75-24-128-34-159h113l34 38 49-48c3-3 4-5 4-7-1-2-3-3-7-4-9-3-16-7-20-11-1-2-3-10-5-23-2-9-3-16-4-21-3-17-6-34-9-53 23-209 61-360 114-453 13-23 25-41 37-54 12-15 31-28 56-40l-1-10c-17 3-37 4-59 2-6-1-15-5-28-12-2-1-4-1-5-2-77 137-120 303-129 499l-6-27c-20-84-43-152-68-203C611 168 516 71 384 0l-9 11c114 80 198 176 251 289 27 56 49 122 66 197 15 72 26 140 33 205H597c-2-7-5-16-9-28-3-13-6-23-8-29-25-72-57-135-95-189m-367-21h126c33 68 50 108 53 119 0 1 0 2-1 3-3 8-7 15-10 21l8 7 64-30c10-7 12-12 6-14-13-1-26-5-37-13-8-11-19-27-34-48-15-22-25-37-31-45h38l22 28 52-37c3-3 4-6 3-7s-5-1-11 0H259V311h65l24 28 50-37c3-3 4-6 3-7s-5-1-11 0H259V195l1-55c1-15-3-25-11-31-5-4-16-8-31-13 2 24 4 72 6 145v54h-53c-17 0-31-4-43-13l-32 29h128v108h-30c-17 0-32-4-43-13l-33 29m12 135 4 9c18-9 34-20 49-34 11-12 20-23 26-34 5-13 7-25 5-38-1-14-7-21-17-21-9 1-14 9-16 26-1 14-5 29-12 44-9 19-22 35-39 48Z"/></symbol><symbol id="𭅦_S" viewBox="0 0 1000 1000" data-size="21"><path transform="matrix(1 0 0 -1 34 971)" d="m584 575 60-23 12-13-18-7-12-35-4-11h160l52 52 63-52v-21H745V286h71l52 53 64-53v-21H745V32L682 0v265H498v21h184v179h-68l-19-45-12-24-14-24-13-22-16-21-17-20-8 4 7 26 31 97 13 50 11 52 5 27 2 10m-496 0 59-23 14-14-19-6-12-35-4-11h166l53 52 62-52v-21H252V286h74l53 53 63-53v-21H252V32L188 0v265H0v21h188v179h-70l-9-21-23-48-13-24-30-44-18-19-7 4 32 98 20 75 6 27 5 26 5 26 2 10m175 366 55-30 11-15-19-3-20-36-3-5h388l53 52 62-52v-21H498V656h236l53 53 63-53v-20H498V409l-62-32v259H88v20h348v175H274l-16-24-19-25-40-46-22-20-24-20-25-18-7 7 52 74 30 49 14 24 12 25 22 51 8 22h-1l5 11Z"/></symbol><symbol id="𭅧_S" viewBox="0 0 1000 1000" data-size="21"><path transform="matrix(1 0 0 -1 40 964)" d="M298 386V229h-63v157h-17l-2-32-5-41-7-38-11-34-12-31-16-28-19-26-20-20-23-16V68h225l52 52 63-52V47H103V31L39 0v386H0v21h98v366H24v22h74v123l63-10 16-11-16-9v-93h127v123l63-10 15-11-15-9v-93h15l32 36 42-36v-22h-89V407h19l43 47 52-47v-21H298m319 89-4-60-6-57-9-53-13-51-16-49-19-45-22-42-25-39-30-35-33-31-6 7 23 36 22 38 18 40 17 41 13 44 11 47 8 47 6 51 2 54v57h63m-63 298-47-17-30-10-33-9-3 9 128 83 64 46 36 31 38-50 2-19-20 8-25-17-23-13-24-12V528h114v400l64-11 16-11-16-10V528h30l43 47 52-47v-20H795V48l-64-31v491H617v-33h-63v33H435v20h119v245M319 149h67l15 11 11 16-11 15-15 11 10 90h-10l-26-90h-41v-53m-21 80v-12l1-4 1-2 1-1 1-2 2-2 4-2 5-1 6-1v-53h-13l-12 3-13 3-11 6-10 8-10 10-6 11-5 12-3 13-1 14h63M156 386h-53V152l16 25 11 23 10 26 6 28 5 32 4 33 1 37v30m132 135H161V407h127v114m0 134H161V541h127v114m0 118H161v-96h127v96Z"/></symbol><symbol id="𭅨_G" viewBox="0 0 1000 1000" data-size="21"><path transform="matrix(1 0 0 -1 26 945)" d="m329 590 33 37 46-45c4-4 6-7 5-10s-4-6-9-7l-20-9V32h20l32 41 45-39h181v235H542c-17 0-32-4-44-13l-32 32h196v549c1 10-6 24-23 41l7 11 88-31c5-2 7-4 7-6 0-3-2-5-7-7-14-5-24-11-29-18V288h107l29 44 66-53c5-3 7-6 6-8-1-1-5-2-12-2H705V34h143l35 45 59-54c5-3 7-5 6-7s-4-3-11-3H541c-17 1-32-3-44-13l-10 10H77C60 13 45 9 33 0L0 32h88v529c2 14-4 28-17 42l14 12 30-25h78l15 129H97c-18 1-33-4-44-13l-33 33h191l12 99c1 10-6 24-20 41l8 10 72-33c9-3 11-7 6-11-11-2-20-8-27-17l-12-89h105l35 41 66-47c7-5 10-9 8-11-1-3-8-4-19-3H248l-17-129h98M128 32h216v130H128V32m0 405V313h216v124H128m0-140V178h216v119H128m0 273V453h216v117H128m594-181-7 10c19 38 36 79 52 122 16 44 28 83 37 118 8 36 11 58 8 65-1 4-4 11-9 20-1 3-2 5-3 6l7 6 77-33c3-5 2-8-3-8-11 0-21-7-31-21-2-7-5-16-8-29-3-12-9-33-18-63 25-17 47-37 64-60 19-26 30-52 31-78 0-24-6-36-18-37-12-2-19 6-21 24-1 14-7 36-17 67-10 24-25 47-46 69-1-3-3-8-5-15-2-6-6-16-12-30-21-50-47-94-78-133m-287 1-7 10c13 24 32 64 55 120 21 57 34 98 39 122 9 36 12 58 9 65s-7 16-12 26l6 6 79-34c2-5 1-7-4-7-11-1-21-8-30-21-5-18-13-44-25-79-3-8-5-14-6-18 19-11 38-28 57-52 19-28 30-54 31-78s-6-37-20-40c-12-2-18 6-18 25-1 18-7 41-16 68-9 21-22 42-40 62-1-3-3-8-6-15-2-5-5-13-10-25-23-49-50-94-82-135Z"/></symbol><symbol id="𭅩_J" viewBox="0 0 1000 1000" data-size="21"><path transform="matrix(1 0 0 -1 49 954)" d="M386 537h119l33 34c36-29 54-48 54-55 0-5-3-8-9-11l-19-11V354h-52v32H378v-38h-52v213c27-10 46-18 60-24m-8-25V411h134v101H378M84 406c54 97 101 205 141 324 48-19 72-35 72-49 0-9-13-14-39-14-32-83-79-169-141-259 38 3 80 7 125 14-8 32-23 60-47 86l13 15c65-40 98-86 98-138 0-23-10-34-31-34-16 0-25 11-27 34l-1 11c-64-19-121-33-171-42-6-20-12-30-19-30-14 0-25 26-34 79 14 0 34 1 61 3m580 10c51 92 97 197 138 314 48-19 72-35 72-49 0-9-13-14-39-14-36-86-81-168-136-248 35 2 76 6 122 13-12 28-28 54-49 76l13 15c37-22 65-48 84-77 17-24 25-49 25-72s-10-34-31-34c-16 0-25 11-27 34-1 10-3 22-6 34-62-19-121-34-177-44-6-20-12-30-19-30-14 0-25 26-34 79 15 0 36 1 64 3M417 216H12L0 241h417v106c67-3 100-11 100-24 0-8-14-17-42-27v-55h302l54 67c27-24 51-49 72-74l-12-18H475V0h-58v216M85 695c25 55 47 121 65 198 55-24 82-42 82-53 0-8-14-13-41-14-24-54-52-104-84-148 30-26 45-52 45-76s-10-36-30-36c-14 0-23 7-27 21-17 52-46 93-87 125l14 18c28-13 49-25 63-35m577 0c25 54 46 120 65 198 55-24 82-42 82-53 0-8-14-13-41-14-23-53-51-103-84-149 28-26 42-51 42-75s-10-36-30-36c-14 0-23 7-27 21-15 52-41 94-77 125l14 18c26-14 44-26 56-35m-326-12-12 25h161l36 38c22-16 39-30 52-44l-11-19H336m2-81-9 25h155l37 40c22-17 40-33 53-48l-12-17H338m3 239-11 25h152l40 43c21-18 37-35 49-50l-9-18H341m-41-79-10 25h226l41 40c20-15 37-30 52-45l-10-20H300Z"/></symbol><symbol id="𭅪_S" viewBox="0 0 1000 1000" data-size="21"><path transform="matrix(1 0 0 -1 43 967)" d="m189 924 63-11 16-11-16-8v-91h63l52 52 64-52v-21H252V661h79l31 27 58-48-26-21V346l-63-32v64h-79V226h79l52 52 63-52v-22H252V31L189 0v204H0v22h189v152h-74v-64l-62-31v409l62-31h74v121H16v21h173v121m537-821 52-34-7-10-7-10-10-9-10-8-11-7-11-4-12-5-12-3-13-2-13-1v32l-95 16v15h103l7 1 11 4 5 2 5 4 5 3 9 10 4 6m52-34-12 9-3 1-37 24 5 15 5 11 8 32 7 41 7 51 2 15H581l-2-7-68-16 32 133H415v20h133l26 106H473v20h247l51 53 64-53v-20H639l-27-106h174l43 48 53-48v-20H607l-21-90h176l31 26 58-46-27-16-3-1-4-33-7-49-9-41-4-17-6-15-6-14-7-13M331 509H115V398h216v111m0 131H115V530h216v110m299 295 63-11 16-11-16-10v-37l-4-42h104l53 52 62-52v-21H687l-2-8 6-15 15-26 16-24 15-20 19-18 19-15 8-5 58 94-1 1 6 7 47-42 6-17-22 2-31-28-25-18-16-12 13-7 25-8 70-19-61-55-33 12-29 16-26 17-24 21-20 23-18 26-14 28-10 29-3 14-10-29-19-39-24-36-30-31-33-26-38-23-42-18-47-13-3 10 41 21 36 24 32 25 15 16-19 7-53 61-18 21-9 9-11 9 5 8 13-5 13-5 13-5 13-5 26-12 26-14 24-16 7-15 20 35 13 34 8 38 3 21H436v21h193l1 42v69Z"/></symbol><symbol id="𭅫_S" viewBox="0 0 1000 1000" data-size="21"><path transform="matrix(1 0 0 -1 54 957)" d="m830 913 63-53v-20H458V479h334l26 26 52-47-25-16V26L792 0v458H458V38l-47-23v44H0v21h411v378H77v-62l-53-27v537l53-10 14-10-14-9V479h334v406l47-25h319l53 53M513 401l57-29h132l27 26 52-46-26-16V145l-53-27v58H570v-64l-57-28v317m-402-1 64-31h126l29 27 55-47-27-19V159l-57-28v39H175v-16l-64-31v277m190-51H175V190h126v159m401 3H570V196h132v156M542 813l63-31h124l33 27 57-48-26-21V564l-64-32v53H605v-36l-63-32v296m-218-10 56-47-26-19V569l-58-29v40H164v-16l-53-26v265l53-27h132l28 27m-28-47H164V601h132v155m433 5H605V606h124v155Z"/></symbol><symbol id="𭅬_G" viewBox="0 0 1000 1000" data-size="21"><path transform="matrix(1 0 0 -1 21 974)" d="m539 258 51-40c4-3 6-6 6-9 0-2-2-3-6-4-11 1-21-2-29-8-4-3-13-11-28-23-12-11-22-19-29-26-19-16-43-34-71-55l23-21c7-5 9-9 8-11s-8-3-19-3H77c-17 1-32-3-44-12L0 78h88v529c2 14-4 28-17 42l14 12 30-25h82l15 130H97c-18 1-33-4-44-13l-33 33h195l12 98c1 10-6 24-20 41l8 10 69-33c9-3 11-7 6-11-11-2-20-8-27-17l-12-88h80l35 41 66-47c7-5 10-9 8-11-1-3-8-4-19-3H249l-17-130h77l33 37 46-45c4-4 6-7 5-10s-4-6-9-7l-20-9V78h6l32 41 17-15c24 22 46 44 65 65 27 29 44 49 49 62 3 9 3 16-2 21l8 6m213 155 6 10c82-37 122-76 121-119 0-19-6-30-18-32-11-2-18 6-21 24-1 10-5 20-10 30l-131-9V83c-1-23-6-40-15-50-10-11-36-22-78-33-2 21-10 34-25 40-12 5-36 12-72 21l4 17 30-7c47-11 77-14 91-9 17 5 25 21 25 48v202c-42-3-75-7-100-10-24-3-42-11-55-23l-30 60c21-1 45 3 70 12 39 30 77 62 115 97 16 14 30 27 41 38l-73-11c-70-6-112-18-125-36l-32 54c20 0 39 7 57 20 56 57 88 92 95 104 12 15 13 29 4 40l7 5 58-34c4-7 2-11-7-12-7 0-14-3-21-8-33-33-72-71-118-113l176 12c8 8 14 15 19 21 27 31 35 49 24 56l5 6 59-36c3-4 3-7 2-9s-5-3-10-4c-8 0-15-2-22-7-103-99-178-164-225-195l246 7-3 6c-13 19-35 39-64 61M471 817h186v83c1 10-6 22-21 37l7 11 75-30c8-3 10-7 6-10-10-3-19-9-26-18v-73h120l27 35 54-45c5-3 8-6 7-8-1-1-6-2-13-2H698V693h177l25 32 56-49c1-3 1-6 0-7-2-1-5-1-9 0-21 3-52-26-94-88l-13 2 41 90H483v-20c-3-47-15-75-36-86-12-7-21-6-28 4-7 9-5 19 6 29 11 11 19 23 25 36 7 14 13 44 18 89h13v-3c1-10 2-20 2-29h174v104H545c-15 1-29-3-42-13l-32 33M128 78h196v130H128V78m0 405V359h196v124H128m0-140V224h196v119H128m0 273V499h196v117H128m624-375 4 11c107-47 162-93 167-138 3-24-2-38-15-42s-21 4-26 25-16 43-34 66c-16 19-48 45-96 78Z"/></symbol><symbol id="𭅭_S" viewBox="0 0 1000 1000" data-size="21"><path transform="matrix(1 0 0 -1 47 964)" d="m151 929 64-11 15-10-15-10v-95h68l32 37 42-37v-21H215V677h51l29 26 55-47-26-18V330l-58-28v50h-51V236h35l53 52 63-52v-21H215V31L151 0v215H0v21h151v116h-48v-38l-64-31v425l64-31h48v252M812 92v214h-81V77h60l7 1h5l3 1 2 1 1 1 1 3 1 3 1 5M266 504H103V372h163v132m550 51v208h-82V534h68l5 1 3 1 2 1 1 1v1l1 2 1 3 1 5v6M266 656H103V524h163v132M875 99l-1-14-2-14-5-12-6-11-8-12-11-8-12-7-13-3-12-3h-14v31l-69 13-54-27v274h-81V63l-64-31v274h-74V54l-63-32v336l63-31h113l15 29 4 10 6 10 9 21H369v22h236v1l2-1h179l52 52 63-52v-22H635l21-15 8-18-24 1-10-9-19-14-10-8-10-6-2-1h223l32 26 57-47-26-21V99m5 456-1-14-2-13-5-12-7-12-8-11-10-9-12-5-13-4-13-3-13-1v32l-71 13-54-27v274h-82V521l-63-32v274h-79V510l-57-29v332l57-30h116l21 40 10 20 5 11H370v21h237l1 2 2-2h180l53 53 63-53v-21H639l20-15 7-18-24 1-9-9-29-22-11-7-1-1h224l33 27 57-47-26-22V555Z"/></symbol><symbol id="𭅮_S" viewBox="0 0 1000 1000" data-size="21"><path transform="matrix(1 0 0 -1 38 969)" d="m669 487-18-10-17-11-2-1h148l32 26 57-47-25-21V234l-64-31v52H678l-7-15-14-20-15-18-18-16-20-15-23-13-24-10h-2 130v101l63-10 16-10-16-10v-71h35l53 52 62-52v-21H748V31L685 0v127H419v21h107l23 15 18 17 17 15 14 17 10 16 9 16 4 11h-84v-16l-62-31v289l62-32h76l3 4 8 19 4 9 4 9 7 17 3 8 4 11h-2l5 9 50-39 8-17-27 1-11-9M34 72v4l-3 9-1 10-3 15-1 2 133 21 52 8 34 103 13 43v3l1 2 3 8 55-31 11-16-21-3-36-58-22-29-16-18 73 10 39 5 40 4 2-9-38-14-74-26-71-20-101-29-43-9-8-20-14 14-4 21m-8 40 12-61-22 59 10 2m106 79-1 34-2 10-3 20-2 11-2 9-5 8 8 6 7-7 9-7 8-7 8-9 14-20 7-10 10-25 6-13-6-23-19-14-23 6-14 20v11m498 156h-93v-71h90l1 1 2 18v52m63 0v-35l-1-2-4-25-2-9h94v71h-87M63 490l63-32h156l31 26 58-46-26-22v-84l-63-31v31H126l-63-31v189m219-52H126v-84h156v84m348 6h-93v-77h93v77m150 0h-87v-77h87v77M58 498l-13 5-1 1-5 2-13 5-2 1-2 1-1 1-5 2-14 5H1l-1 1 6 10 5 12 6 12 4 13 3 15 3 16 3 16 2 19 2 18-1 20 9 2 6-20 7-18 1-5h307l32 26 58-48-26-15-12-5-16-33-22-40-18-26-7-13-9 3 4 15 2 15 5 45 3 14 1 15 4 25H60l3-10 1-18 1-18v-17l-1-17-2-16-4-16M0 522l58-24-18-17H17L0 498v24m769 225 3 4h1l28 21 57-46-26-16-16-7-13-19-29-35-31-32-22-18 34-16 37-12 40-9 93-18-63-59-47 12-44 16-40 17-36 22-20 14-40-21-41-19-44-13-47-10-49-6-1 9 45 15 42 18 40 20 36 20 24 17-5 5-25 29-18 30-15 34-7 32h-42v-25h-62v192l62-32h108v77l63-10 16-11-16-9v-47h118l5 4 1 3 1-1 26 21 57-48-26-16-32-13-3-1-25-20-18-12-8-7-7 5 6 9 4 11 3 10 4 10 4 9 3 9 1 6H699v-93h70m-241-46-3-29-4-28-8-27-9-24-12-24-13-20-16-18-18-15-19-13-22-11-5 8 15 17 13 16 11 18 8 18 8 19 5 20 4 21 3 22 1 25-1 25h62M280 590l53-48v-21H80v21h157l43 48m478 136H583l14-23 20-25 23-24 24-21 12-8 30 29 25 31 22 32 5 9M70 694v22h107v95H22v20h155v100l63-10 16-11-16-10v-69h64l52 53 63-53v-20H240v-95h26l43 47 52-47v-22H70m566 146H528v-93h108v93Z"/></symbol><symbol id="𭅯_J" viewBox="0 0 1000 1000" data-size="21"><path transform="matrix(1 0 0 -1 90 947)" d="M205 365C193 206 130 84 17 0L0 19c98 97 147 235 147 413v243c23-10 46-21 68-32h185v251c67-2 101-11 101-26 0-9-15-18-44-28v-61h249l49 63c26-24 48-47 65-69l-12-19H457V643h251l37 47c43-34 65-56 65-66 0-4-2-7-7-10l-29-18V298h-58v67H205m2 25h509v108H208v-65c0-20 0-34-1-43m1 133h508v95H208v-95Z"/></symbol><symbol id="𭅰_J" viewBox="0 0 1000 1000" data-size="21"><path transform="matrix(1 0 0 -1 76 943)" d="M202 346C183 193 121 78 17 0L0 19c98 97 147 240 147 430v226c24-11 47-22 68-32h220v244c68-1 102-9 102-24 0-9-14-18-43-27v-52h237l49 64c26-24 48-47 67-70l-10-19H494V643h224l37 46c44-34 65-56 65-65 0-4-2-8-7-10l-29-18V281h-58v65H202m3 25h231v114H208v-35c0-27-1-53-3-79m289 0h232v114H494V371M208 510h228v108H208V510m286 0h232v108H494V510Z"/></symbol><symbol id="𭅱_G" viewBox="0 0 1000 1000" data-size="21"><path transform="matrix(1 0 0 -1 19 973)" d="m543 391 76-41c2-7 1-12-4-15-12 2-23-1-33-9-21-34-45-69-74-106-33-41-66-76-101-104l-12 11c38 47 72 93 101 138 31 47 47 78 48 91 0 7-3 15-8 25l7 10m223-21 8 12c63-37 111-82 144-137 35-66 39-108 11-125-17-5-27 7-32 37-7 33-22 70-46 111-24 37-52 71-85 102M473 864l2 9c82-16 157-40 226-71 3 3 6 8 11 13s14 14 25 26c33 39 51 62 52 68s-2 14-9 23l9 8 69-49c5-3 7-6 6-9 0-2-3-3-8-4-14-1-26-5-37-12-25-29-52-56-80-82 64-32 107-61 128-86 23-25 29-46 18-62-12-15-27-11-44 11-20 25-44 47-71 67-11 9-29 21-55 37-3 3-6 5-8 6-77-65-163-118-258-159l-4 12c53 32 106 68 159 109 25 19 49 39 70 58l-12 6c-43 24-106 51-189 81m204-292c-1 16-10 31-25 44l8 11 86-37c7-3 10-5 11-8 1-2-1-4-4-6-10-1-20-6-31-15v-77h142l27 39 62-45c8-4 11-7 9-10-2-2-9-3-20-4H722V86c-1-24-6-42-17-54-11-13-37-23-80-32-3 18-11 31-23 39-7 4-25 11-56 21-5 2-9 3-12 4l4 16 41-8c65-19 98-4 98 47v345H530c-17 1-32-4-44-13l-33 33h224v88M176 946l84-33c8-4 10-8 5-11-11-4-21-10-29-17V753h122l27 36 66-45c5-3 7-6 6-8s-5-3-12-3H236V561h156l27 35 61-45c5-3 6-6 5-8-1-1-4-2-11-2H77c-18 0-33-4-44-12L0 561h194v334c1 10-8 24-26 41l8 10m62-477v-68c58-32 102-71 132-116 32-53 36-86 11-100-15-6-26 4-33 31s-21 57-42 88c-23 30-45 55-68 75V122l4-71c0-13-5-22-15-29-9-7-22-12-38-15 3 25 5 77 7 156v316c1 9-8 23-25 41l8 11 78-34c9-4 11-7 6-10-11-4-19-10-25-18Z"/></symbol><symbol id="𭅲_J" viewBox="0 0 1000 1000" data-size="21"><path transform="matrix(1 0 0 -1 123 901)" d="M61 724V111c0-25 7-40 22-45 18-6 103-9 255-9 164 0 257 3 281 10 20 5 32 20 37 44 7 33 14 85 21 156l27-8c0-78 3-130 8-155 6-23 20-34 42-33-2-34-19-54-50-60C663 4 550 0 366 0 176 0 68 5 42 14 14 25 0 54 0 99v684c19-8 44-20 74-34h495l41 52c46-35 69-58 69-69 0-4-3-8-8-11l-32-19V367c0-40-9-67-27-81-16-12-44-19-85-21-1 20-13 34-37 43-21 8-56 16-104 23v27c61-9 113-13 156-13 25 0 38 11 38 33v346H61m134-90 15 18c72-30 126-66 162-108 25-29 37-56 37-79 0-13-4-23-11-30-6-6-14-9-23-9-15 0-27 12-36 36-24 68-72 125-144 172Z"/></symbol><symbol id="𭅳_J" viewBox="0 0 1000 1000" data-size="21"><path transform="matrix(1 0 0 -1 68 941)" d="M437 637V0h-59v637H10L0 662h763l39 44c42-32 63-53 63-63 0-5-3-9-8-12l-26-14c-4-47-9-82-16-106-6-21-16-41-28-58-24-32-59-49-106-49 0 19-11 33-32 40s-48 13-82 18v28c45-5 82-8 110-8 42 0 67 12 76 36 11 34 18 73 20 119H437m281-407c-10 0-23 9-39 26-49 54-119 98-209 132l11 24c41-8 83-21 125-38 36-14 65-29 86-43 38-26 57-48 57-68 0-22-10-33-31-33M448 684c-15 0-27 11-37 33-27 57-73 105-138 145l13 20c61-19 111-46 148-79 33-30 50-57 50-81 0-25-12-38-36-38Z"/></symbol><symbol id="𭅴_J" viewBox="0 0 1000 1000" data-size="21"><path transform="matrix(1 0 0 -1 98 936)" d="M377 537V0h-59v537H85c-9-28-19-57-30-87L0 464c50 147 84 283 101 407 64-9 96-21 96-35 0-9-15-17-44-24-4-26-9-53-15-82h445l54 64c33-26 58-49 74-69l-11-20H132c-8-40-21-87-39-143h610l39 44c42-32 63-53 63-63 0-5-3-8-8-12l-26-14c-4-47-9-83-16-106-6-22-16-41-28-58-24-33-59-49-106-49 0 19-11 32-32 40-21 7-48 13-82 18v28c46-5 82-8 110-8 42 0 67 12 76 36 11 33 18 73 20 119H377m281-397c-10 0-23 8-41 25-54 50-123 87-207 113l7 25c86-11 157-32 215-62 38-20 57-41 57-65s-10-36-31-36Z"/></symbol><symbol id="𭅵_J" viewBox="0 0 1000 1000" data-size="21"><path transform="matrix(1 0 0 -1 60 936)" d="M288 317c-5-4-12-6-21-6-13 0-23 10-30 30-13 37-40 71-80 103-37-59-83-113-137-162L0 301c109 121 180 280 213 477H30l-9 25h371l53 69c27-26 49-50 68-74l-11-20H277c-14-68-29-126-46-174h154l37 47c41-33 62-55 62-65 0-4-3-8-10-12l-25-14c-37-130-83-235-138-316C244 146 151 65 32 2L15 24c113 72 204 170 273 293m10 19c39 73 70 154 92 243H222c-15-41-32-78-51-111 85-39 128-80 128-121 0-5 0-9-1-11m305 431V0h-59v823c27-12 50-22 67-31h172l39 50c39-31 58-51 58-61 0-4-3-9-9-14l-22-17V229c0-55-32-85-95-89-1 21-11 35-30 43-20 8-46 14-79 20v26c50-5 86-8 109-8 27 0 40 10 40 31v515H603Z"/></symbol><symbol id="𭅶_G" viewBox="0 0 1000 1000" data-size="21"><path transform="matrix(1 0 0 -1 36 979)" d="m239 529 89-33c8-3 10-7 5-11-12-3-22-10-30-20V357h135l31 39 67-49c5-3 7-6 6-8-1-1-5-2-12-2H303V135l250 36 2-16-194-34c-55-11-118-24-188-38-31-6-49-10-56-11-25-5-46-17-65-35L15 92l245 37v208H107c-16 1-31-3-44-12l-33 32h230v118c1 11-9 25-29 43l8 11M43 765h215v138c1 9-8 24-29 43l8 11 89-34c8-3 10-7 5-10-12-3-22-10-30-20V765h119l32 39 66-49c5-3 8-5 7-7-1-1-6-2-13-2H301V574h170l31 39 67-49c5-3 7-6 6-8-1-1-5-2-12-2H78c-18 1-33-4-44-13L0 574h258v172H120c-17 1-32-4-43-13l-34 32m856 43V329c1-40-3-69-12-88s-32-32-70-39c5 27-30 49-105 65-6 2-11 3-14 4l2 16c71-14 115-21 130-20 16 1 24 17 24 48v507H654V140l4-95c1-23-17-38-56-45 3 25 6 87 7 185v649c-3 19-9 32-19 41l14 10 40-44h194l30 40 50-42c6-3 9-7 9-10s-3-5-9-8l-19-13Z"/></symbol><symbol id="𭅶_K" viewBox="0 0 1000 1000" data-size="21"><path transform="matrix(1 0 0 -1 70 944)" d="M297 874c26-4 35-10 28-17-5-5-17-11-36-16V695h93l41 43 62-43c7-4 9-8 6-11-3-4-11-6-23-6H289V493h131l44 45 60-45c8-5 10-9 8-12s-11-4-25-4H299c19-6 26-11 20-16-4-3-14-7-30-10V287h85l43 42 60-43c7-4 10-8 6-10-2-4-10-5-23-4H289V57h120l45 49 62-50c7-5 10-9 7-12-3-2-11-4-24-4H87l-76-5L0 60l72-3h169v215H133l-68-3-11 21 68-3h119v190H100l-69-5-10 22 71-1h149v185H106l-67-2-11 23 67-4h146v148l-4 47 60-16m496-85 46-30c17-11 24-20 21-26-2-6-12-11-32-15V265c0-27-9-48-26-64-14-13-32-21-55-25-3 14-14 25-33 34-21 11-42 18-65 23v10c49-6 84-8 104-4 17 3 25 12 25 26v479H622V64l2-24c1-9 1-15-1-18-3-4-10-9-22-15-15-6-25-7-29-4-2 3-2 9-2 20l1 10v703l-6 49 57-26h140l31 30Z"/></symbol><symbol id="𭅷_K" viewBox="0 0 1000 1000" data-size="21"><path transform="matrix(1 0 0 -1 65 951)" d="M734 319c15-13 19-21 12-26-4-3-13-5-27-5V139c0-21-6-38-19-51s-36-22-67-25c-5 16-13 28-24 35-11 8-35 19-72 30l2 5 48-3c16-1 27-2 33-3 9 0 17-2 24-4 10 0 17 2 21 5 5 4 8 9 8 16v160H422c14-6 20-12 18-17-2-2-9-5-21-8V48l1-13c2-8 2-14 0-17-3-6-10-11-23-15-11-3-18-3-21 0-2 3-3 9-3 18l1 8v275H159l-76-6-9 26 75-5h515l33 30 37-30M421 888c25-6 35-12 28-19-5-4-17-8-37-12v-72h84l37 36 56-36c6-4 9-8 7-11-3-4-10-6-22-6H412V641h75c38 38 76 79 113 123 35 42 71 89 107 139l35-21c19-12 26-20 21-24-4-5-16-6-35-5l-95-111-94-101h190l41 42 59-43c6-5 8-9 6-11s-10-4-23-4H525c-26-24-49-46-70-63-24-20-49-39-76-59v-25c55 10 108 22 158 36 65 18 117 36 157 57l34-34c12-11 15-19 10-22-6-4-19-2-41 5-39-12-90-23-152-34-59-11-114-18-166-23v-42c0-7 2-12 7-16 8-6 24-10 49-11 43-3 99-3 168-2 84 1 143 5 175 13 11 4 21 15 29 33 8 19 16 49 24 92l10-1-5-88-1-29c27-7 39-15 34-23s-25-14-59-19c-45-5-110-9-196-10-89-2-164 0-225 6-21 2-36 7-44 14-8 8-12 22-12 41v56c-53-29-107-55-161-76-54-22-109-40-166-55l-3 11c59 20 115 43 169 68 55 27 109 56 161 88v22l-3 41 48-30 1-1 48 40c17 15 31 28 44 40H87l-77-5-10 23 72-2h292v127H171l-68-4-10 22 67-1h204v73l-4 46 61-16Z"/></symbol><symbol id="𭅸_K" viewBox="0 0 1000 1000" data-size="21"><path transform="matrix(1 0 0 -1 70 942)" d="M758 319c14-13 18-21 12-26-4-3-13-5-28-5V139c0-21-6-38-18-51-14-13-36-22-68-25-5 16-13 28-23 35-12 8-36 19-72 30l2 5 47-3c17-1 28-2 34-3 9 0 16-2 23-4 10 0 18 2 21 5 6 4 8 9 8 16v160H445c15-6 21-12 19-17-3-2-10-5-22-8V48l1-13c2-8 2-14 0-17-2-6-10-11-22-15-12-3-19-3-22 0-2 3-3 9-3 18l1 8v275H183l-77-6-8 26 75-5h515l33 30 37-30M161 885l51-22h423l27 18 41-20c18-11 23-19 17-23-4-2-13-4-28-4V634c1-7 0-12-2-15-3-3-10-7-21-11-11-2-18 0-21 4-1 2-1 6-1 14v10H466c8-3 10-6 6-10-4-2-12-4-24-8v-79h302l44 37 57-35c8-4 11-7 7-9-3-4-9-5-17-5H448V389c1-6 1-10-1-12s-9-5-18-8c-14-3-22-3-26 0-2 2-3 7-3 14l1 6v138H78l-64-3-14 16 63-1h338v97H211v-12c0-6-1-11-2-14-3-5-9-8-19-11-13-3-21-2-24 1-3 2-3 8-2 18l1 7v219l-4 41m50-123h437v88H211v-88m0-112h437v98H211v-98Z"/></symbol><symbol id="𭅹_J" viewBox="0 0 1000 1000" data-size="21"><path transform="matrix(1 0 0 -1 47 943)" d="M160 306c-39-38-83-71-133-99l-17 19c98 72 175 167 230 287-66-55-138-98-216-131l-14 20c94 47 174 108 241 183-2-1-5-1-10-1-13 0-22 7-27 22-12 31-32 56-61 75-40-46-85-86-137-121L0 578c95 81 164 184 207 308 57-9 86-21 86-35 0-8-14-14-41-18-10-20-19-37-28-52h136l39 43c41-33 62-54 62-63 0-5-4-9-11-11l-28-14c-40-80-100-154-180-222 53-13 79-25 79-38 0-8-14-14-41-17-6-11-16-26-29-46h138l40 47c40-32 60-53 60-63 0-4-4-8-11-12l-24-12c-41-81-86-147-134-197C246 98 145 39 18 0L5 22c99 37 186 95 260 173-5-1-10-2-13-2-13 0-22 8-27 24-10 34-32 63-65 89m18 17c72-29 107-61 107-94 0-3 0-8-2-15 40 45 77 103 111 174H233c-19-26-37-47-55-65m93 285c40 48 71 97 93 148H209c-18-25-31-44-40-56 69-22 103-49 103-81 0-5 0-9-1-11m310 186h180l35 43c42-30 62-52 62-65 0-4-2-8-7-9l-26-13V387c0-56-33-84-99-84-1 20-10 33-26 40-15 6-43 12-83 19v25c40-4 77-6 113-6 25 0 37 10 37 28v361H571V120c0-17 5-28 16-31 10-4 44-6 101-6 48 0 78 2 93 6 12 5 22 13 27 27 13 37 20 87 23 147l26-7v-23c0-61 4-100 12-116 6-13 19-18 37-17-2-33-16-53-42-59-30-8-85-12-164-12-96 0-152 8-168 22-13 11-19 33-19 66v711c18-8 41-19 68-34Z"/></symbol><symbol id="𭅺_J" viewBox="0 0 1000 1000" data-size="21"><path transform="matrix(1 0 0 -1 59 945)" d="M373 415H153V172c76 18 145 39 208 61-19 37-46 74-79 111l16 16c105-77 158-146 158-205 0-28-12-42-35-42-17 0-28 14-33 44-3 13-7 29-14 48-94-40-197-78-308-115-4-26-10-39-19-39-13 0-29 30-47 89 37 7 69 13 95 19v619c11-5 35-17 71-36h67v148c64-1 96-8 96-22 0-9-13-19-40-30v-96h77l35 46c39-31 59-52 59-61 0-4-2-7-6-10l-25-18V368h-56v47m0 25v134H153V440h220m0 159v118H153V599h220m219 188V0h-59v843c27-11 49-22 67-31h185l39 50c38-31 58-51 58-61 0-4-3-9-9-14l-22-17V249c0-55-32-85-95-89-1 21-11 35-30 43-15 6-44 12-89 20v26c50-5 90-8 119-8 27 0 40 10 40 31v515H592Z"/></symbol><symbol id="𭅻_K" viewBox="0 0 1000 1000" data-size="21"><path transform="matrix(1 0 0 -1 59 934)" d="m488 579-8-13H137V464c0-106-9-191-26-257C93 134 61 66 14 4L0 13c63 79 95 229 95 448v101l-11 31c-30-29-52-48-67-57l-8 11c40 30 77 76 111 136 35 60 59 121 74 185l47-20c15-8 22-14 22-18s-12-8-34-11c-10-22-23-50-41-85h172l13 15c7 7 10 11 11 11s6-5 14-14l23-32c6-7 10-12 10-15 0-5-11-8-32-8l-99-105h106l24 25c7 8 11 12 11 12 2 0 9-5 19-16l28-28M463 81c-1-12-15-20-41-23-5-1-22-1-52-1h-97c-28 0-50 9-66 28s-24 47-24 84v262l-5 48 51-27h117l14 17c6 6 9 9 8 9 1 0 5-4 12-10l30-25c11-9 17-16 17-20 0-6-11-11-33-14V282c0-31-11-51-31-60l-29-13c-8-3-14-5-18-5-3 0-5 6-6 17-2 11-9 19-21 23l-51 22 5 8 57-11c8-2 15-2 20-2 15 0 24 6 28 18 2 7 3 19 3 37v116H225V158c0-45 16-67 48-67h75c31 0 50 12 58 35l35 92 9-4-18-87c-3-13 2-22 13-27 12-6 18-12 18-19M360 714H177c-18-32-42-66-73-101l40-27h135l81 128M882 82c-2-13-17-21-45-25-7-1-25-1-56-1h-87c-28 0-51 10-71 30-18 18-26 40-26 66v389l-5 43 55-21h118l13 18c7 7 10 10 11 10s6-4 15-11l24-24c11-10 17-17 17-22s-11-10-33-13V377c0-42-11-67-31-76l-28-12c-9-3-15-5-19-5s-6 6-8 17c-2 12-9 20-21 25l-52 21 5 10 64-13c9-2 16-2 21-2 13 0 21 6 25 18 1 6 2 17 2 36v146H639V144c0-37 18-55 53-55h43c26 0 43 2 53 6 14 6 26 19 35 38l31 91 7-3-11-92c-2-15 2-25 12-28 11-4 18-10 20-19M551 741h252l19 25c7 8 11 12 13 12 4 0 10-5 19-15l26-29-5-13H544V469c1-246-32-403-99-469l-11 7c46 49 69 202 68 459v250l-3 54 52-29Z"/></symbol><symbol id="𭅼_J" viewBox="0 0 1000 1000" data-size="21"><path transform="matrix(1 0 0 -1 46 948)" d="M394 438V163c47 16 93 33 137 51-13 30-35 69-67 117l19 14c92-90 138-169 138-238 0-28-11-43-34-43-16 0-25 15-28 45s-10 57-18 81c-74-43-148-80-221-110-1-27-5-40-12-40-12 0-29 28-50 84 15 4 42 11 82 22v706c19-8 39-18 61-30h120l35 44c37-30 55-51 55-61 0-4-2-8-7-11l-23-16V390h-53v48H394m0 25h134v160H394V463m0 184h134v150H394V647M219 352c10 34 18 68 24 103 55-16 82-30 82-42 0-7-13-13-39-16C246 228 161 95 30 0L11 19c91 78 157 179 198 301-49-19-99-36-153-51-5-21-11-32-19-32-12 0-24 27-37 81 29 3 51 5 66 7 59 100 115 222 168 366 53-20 79-38 79-54 0-9-14-14-41-14-45-97-103-195-174-294 39 5 79 13 121 23M89 645c30 68 55 151 76 250 61-19 92-36 92-51 0-10-14-15-42-16-30-72-65-140-104-203 33-32 49-60 49-86 0-23-10-35-30-35-14 0-24 12-31 35-13 44-45 89-94 134l15 17c23-12 46-27 69-45m616 142V2h-56v837c26-10 48-19 66-27h99l37 47c38-32 57-52 57-61 0-5-3-9-8-12l-24-16V224c0-46-25-71-76-75-1 28-23 46-67 56v24c22-3 42-5 60-5 19 0 29 9 29 27v536H705Z"/></symbol><symbol id="𭅽_J" viewBox="0 0 1000 1000" data-size="21"><path transform="matrix(1 0 0 -1 40 948)" d="M546 468H419V189c49 12 90 23 123 34-14 39-36 81-64 124l19 15c85-84 128-159 128-224 0-28-11-43-34-43-16 0-26 15-29 45-3 20-6 38-11 54-67-30-134-55-199-76-3-25-9-37-16-37-11 0-25 28-42 84 8 1 31 5 70 12v673c18-7 38-17 60-29h116l36 43c38-31 56-51 56-60 0-4-2-7-7-10l-25-16V409h-54v59m0 25v144H419V493h127m0 169v134H419V662h127m-454 6c-22-31-46-60-73-87L0 596c60 77 108 177 143 300 53-8 80-20 80-33 0-8-14-14-41-18-9-24-17-42-22-54h88l33 35c38-25 57-44 57-55 0-5-4-9-11-12l-24-9c-27-79-72-156-133-232 52-8 78-19 78-33 0-8-14-14-41-18-8-22-15-40-22-54h83l33 35c38-25 57-44 57-55 0-5-4-9-11-12l-24-9C270 209 174 85 36 0L18 18c69 54 125 114 168 180-1 0-3-1-6-1-13 0-21 8-24 22-7 31-21 55-42 71-22-30-47-59-75-87l-19 15c61 76 109 175 146 295-42-51-86-93-131-126l-20 16c54 49 103 108 146 175h-3c-13 0-21 7-24 22-6 28-20 51-42 68m13 20c49-21 76-44 80-71 30 55 52 105 64 149H149c-12-25-27-51-44-78m68-300c-11-24-27-50-46-79 51-22 78-48 80-77 29 52 50 103 62 156h-96m559 423h93l36 43c40-33 59-54 59-62 0-5-3-9-10-13l-22-14V244c0-36-10-59-31-70-15-6-30-10-47-11 1 28-22 45-69 53v25c18-3 37-5 56-5 23 0 34 10 34 29v521H723V9h-55v828c26-9 48-18 64-26Z"/></symbol><symbol id="𭅾_K" viewBox="0 0 1000 1000" data-size="21"><path transform="matrix(1 0 0 -1 55 949)" d="M734 319c15-13 19-21 12-26-4-3-13-5-27-5V139c0-21-6-38-19-51s-36-22-67-25c-5 16-13 28-24 35-11 8-35 19-72 30l2 5 48-3c16-1 27-2 33-3 9 0 17-2 24-4 10 0 17 2 21 5 5 4 8 9 8 16v153H422c14-6 20-12 18-16-2-3-9-6-21-10V48l1-13c2-8 2-14 0-17-3-6-10-11-23-15-11-3-18-3-21 0-2 3-3 9-3 18l1 8v268H159l-76-6-9 33 75-5h515l33 30 37-30M403 783l45-28h168l13 102-10 15 32 27 47-31c11-7 15-14 12-18-3-3-14-6-32-7l-15-88h138l31 26 36-26c15-11 22-19 22-24-2-6-12-10-33-12V443c0-24-6-43-20-57-16-16-42-27-79-33-3 17-10 30-22 39-13 8-37 17-73 24l-2 11c23-1 41-3 55-4 22-1 43-2 62-2 12 0 21 2 26 5 6 3 9 10 9 20v53c-13-1-24-3-34-6-11-4-20-9-24-14-20 22-41 54-62 96-25 49-42 95-51 136-14-62-37-113-69-153-28-35-69-65-121-92v-62c1-12 1-20-1-25-4-7-13-12-26-14-10-2-16-1-18 2-1 1-1 5-1 12l2 14v329l-5 61m258-43c6-51 25-99 56-144 30-42 62-71 96-87v231H661M452 481c44 26 81 66 110 119 24 47 42 93 52 140H452V481M112 856h104l36 33 51-29c9-6 11-10 8-14-4-5-10-7-20-7H128l-51-1-14 21 49-3m-64-71h231l40 36 47-34c9-5 11-10 8-13-3-4-9-6-20-6H63l-50-2-13 20 48-1m45-84h133l39 34 48-31c9-4 12-9 8-13-3-5-10-7-20-7H109l-51-2-13 21 48-2m6-75h124l41 35 46-32c9-4 12-9 8-12-4-4-10-6-19-6H114l-51-2-13 19 49-2M72 450h203v82H72v-82M20 574l49-27h195l29 24 41-27c17-11 21-20 14-25-4-3-11-4-24-4v-80c1-11 0-17-2-21-3-4-11-9-23-13-12-2-19-1-23 4-2 2-3 8-2 18l1 10H72v-15c0-9-1-16-3-19-4-5-11-8-22-10-11-3-18-2-21 2-2 3-4 9-4 19l2 8v107l-4 49Z"/></symbol></svg>