<svg xmlns="http://www.w3.org/2000/svg"><symbol id="𭍝_S" viewBox="0 0 1000 1000" data-size="21"><path transform="matrix(1 0 0 -1 85 941)" d="m0 882 63-31h677l32 26 58-48-26-20V47l-64-31v52H63V31L0 0v882m740-53H63V89h677v740M142 165v5-5m1-15v-2 2m1-29-7 31-3 3 2 2-6 27h27l148 180 51 71H80v20h296v177H129v21h247v139l62-11 16-10-16-10V653h131l53 52 63-52v-21H438V455h181l52 53 63-53v-20H382l32-29 5-18-19 2-55-60-80-79-59-52-19-14h1l48 1h49l102 2h51l53 1h108l13-1-18 30-15 21-34 41-57 61 6 8 27-13 24-14 24-16 22-18 21-19 21-21 18-22 18-24 18-23 15-27 1-23-15-19-24-2-18 16-11 24-13 24-1 1-75-11-53-7-104-11-101-10-49-5-48-5-26-2-11-17-10 16Z"/></symbol><symbol id="𭍞_J" viewBox="0 0 1000 1000" data-size="21"><path transform="matrix(1 0 0 -1 95 933)" d="M260 199v-50h-54v344c23-7 45-17 65-28h237l33 36c38-29 58-48 58-55 0-3-3-6-7-10l-21-15V149h-54v50H260m0 149h257v92H260v-92m0-25v-99h257v99H260m125 363C325 586 229 503 97 438l-14 20c66 40 125 88 175 146 46 51 78 104 99 158 52-16 78-29 78-39 0-8-12-12-35-15 43-50 89-90 139-120 44-27 97-50 158-69-17-15-30-34-40-56-65 31-119 65-162 101-39 33-75 74-110 122M60 71V0H0v853c28-12 51-23 69-32h640l39 46c41-34 62-54 62-63 0-5-3-9-8-12l-25-17V0h-60v71H60m0 25h657v700H60V96Z"/></symbol><symbol id="𭍟_G" viewBox="0 0 1000 1000" data-size="21"><path transform="matrix(1 0 0 -1 83 967)" d="m16 934 40-45h687l34 40 51-48c5-4 6-7 5-10s-4-6-11-7l-17-8V165l4-103c5-27-12-41-49-43v80H64V45C65 21 48 6 12 0c3 25 6 87 7 185v694c-2 16-8 30-19 43l16 12m48-815h696v750H64V119m249 528 14-4-60-183c-18-59-32-100-41-125-6-17-6-47-1-91 6-43-1-65-21-66s-26 19-19 59c7 41 6 66-2 74-9 9-28 20-55 31l4 17c37-18 64-6 81 36 11 24 37 90 79 199 9 23 16 41 21 53M168 792l6 12c12-5 29-14 52-25 5-3 9-5 12-6 19-9 34-21 43-35 9-13 13-26 12-38-2-13-7-19-16-20-9-3-18 5-25 24s-17 35-31 48c-8 7-25 19-50 37 20-14 19-13-3 3m-56-176 5 12c33-12 57-22 72-30 17-8 29-19 37-34 8-13 10-25 7-34-4-11-10-16-19-16s-16 7-20 21c-5 15-13 28-25 40-7 8-26 22-57 41m177-354h196v435h-84c-17 1-31-3-44-12l-32 32h282l32 39 65-49c5-3 8-6 7-8-1-1-6-2-13-2H528V262h109l32 38 65-48c5-3 8-6 7-8-1-1-6-2-13-2H365c-16 1-30-3-43-13l-33 33Z"/></symbol><symbol id="𭍠_J" viewBox="0 0 1000 1000" data-size="21"><path transform="matrix(1 0 0 -1 63 948)" d="M327 152v-38h-54v237c28-11 47-19 59-25h193l31 34c36-25 55-42 55-50 0-3-2-5-5-7l-21-14V117h-54v35H327m0 25h204v124H327V177M163 51V0h-58v448c26-10 48-20 66-30h526l34 40c41-29 62-49 62-59 0-4-2-7-6-10l-27-17V0h-58v51H163m0 25h539v317H163V76m242 441v102H111l-10 25h304v94H57l-9 25h357v133c69 0 104-7 104-23 0-10-16-19-46-28v-82h240l53 65c26-23 49-47 70-72l-11-18H463v-94h195l50 57c24-21 46-42 65-64l-11-18H463V517h285l54 64c28-24 52-47 73-70l-11-19H10L0 517h405Z"/></symbol><symbol id="𭍠_S" viewBox="0 0 1000 1000" data-size="21"><path transform="matrix(1 0 0 -1 48 968)" d="m125 473 63-33h542l32 27 57-47-26-22V31L730 0v31H188L125 0v473m605-53H188V53h542v367m-429-57 62-31h187l31 25 59-46-27-21V142l-63-32v42H363v-15l-62-33v259m249-52H363V173h187v138M0 547v20h420v106H121v20h299v106H84v20h336v117l63-11 16-11-16-9v-86h221l52 53 63-53v-20H483V693h204l43 48 52-48v-20H483V567h325l43 48 52-48v-20H0Z"/></symbol><symbol id="𭍡_S" viewBox="0 0 1000 1000" data-size="21"><path transform="matrix(1 0 0 -1 43 964)" d="m0 835 58-29h344l29 26 55-47-26-18V61l-58-30v61H58V28L0 0v835m670 70-16-9 6-186 9-90 128 21 43 60 70-42 3-20-242-40 6-59 24-138 13-45 13 36 21 69 20 74 2 9 58-24 13-15-19-6-17-56-26-71-27-65-15-29 28-65 33-59 31-39 26-21 28 118h10L883 81l21-9 10-22-10-23-21-8-29 5-33 17-37 31-38 47-38 67-10 23-9-16-35-48-37-43-39-39-42-30-44-23-5 8 37 31 35 35 32 40 31 44 29 48 24 49-35 124-26 142-6 58-117-19-3 21 118 18-9 98-6 209v13l63-13 16-11M402 785H58V112h344v673M116 641l59-30h107l29 27 55-47-26-19V275l-58-28v60H175v-63l-59-29v426m166-50H175V328h107v263m511 166-6 14-16 27-8 14-11 13-24 27-14 13-16 13 5 8 38-16 18-9 16-9 16-11 15-13 13-13 13-13 13-15 9-16 2-24-15-18-25-1-17 15-6 14Z"/></symbol><symbol id="𭍢_G" viewBox="0 0 1000 1000" data-size="21"><path transform="matrix(1 0 0 -1 83 967)" d="m16 934 40-45h687l34 40 51-48c5-4 6-7 5-10s-4-6-11-7l-17-8V165l4-103c5-27-12-41-49-43v80H64V45C65 21 48 6 12 0c3 25 6 87 7 185v694c-2 16-8 30-19 43l16 12m48-815h696v750H64V119m227 695 65-49c4-3 6-6 5-7 0-2-2-3-7-4-5 1-17-1-34-5 1 0 0 0-3-1-19-24-38-46-59-67 17-26 33-54 46-84 17-36 28-83 31-141 4-58 0-113-13-164-14-51-49-85-104-101 2 20-27 37-87 51l2 12c33-7 58-12 73-14s31 2 48 12c16 8 28 30 37 66s13 75 10 118c-3 50-7 83-12 100 0 1 0 1-1 2 0 1 0 1-1 2-17-32-39-62-65-90-37-39-75-70-113-91l-3 10c32 29 64 63 95 101 31 41 55 82 70 123-1 2-3 5-5 10-1 3-2 6-3 7-7 17-15 35-26 53-41-38-91-71-148-99l-2 10 60 45c21 18 46 42 75 72l-3 5c-19 30-45 65-78 105l9 8c39-40 68-73 88-100 8 7 15 14 20 21 28 31 40 49 36 54-3 10-6 17-11 22l8 8m95-300h123v222h-62c-17 1-31-4-43-13l-32 32h237l35 43 62-49c7-5 10-8 9-11-2-2-8-3-19-2H549V514h66l27 38 58-45c7-5 9-8 8-11-2-2-8-3-18-2H549V244h88l35 43 62-49c7-5 9-8 8-11-2-2-8-3-18-2H425c-17 1-31-4-42-13l-32 32h158v250h-50c-15 1-29-3-41-12l-32 32Z"/></symbol><symbol id="𭍣_S" viewBox="0 0 1000 1000" data-size="21"><path transform="matrix(1 0 0 -1 85 941)" d="m0 882 63-31h677l32 26 58-48-26-20V47l-64-31v52H63V31L0 0v882m740-53H63V89h677v740M490 163l17 2 7 2 14 5 8 4 7 3 14 9 39-49-21-14-11-6-10-5-12-5-12-3-11-2-25-3h-13v31l-93 15v16h102m-88 247-15-51-11-26h208l31 26 58-46-27-16v-1l-1-25-3-22-3-20-5-20-5-17-6-15-8-14-9-14-10-10-5 6-2 2-10 11-3 5-1 1-1 1-1 2-4 5-3 4-9 12 2 2 4 5 2 7 4 10 4 13 3 15 3 17 2 20 2 22v14H367l-21-45-26-38-28-32-31-26-34-23-39-16-42-12-46-8-3 9 42 18 37 18 32 21 27 23 24 27 21 29 19 34 15 40 15 45 8 33H87v21h289v92l62-9 16-11-16-10v-62h174l52 52 64-52v-21H402m167 350 3 4 1-1 28 23 57-48-26-15-15-6-13-22-31-37-35-33-39-30-45-27-49-22-52-20-59-15-63-12-66-8-2 10 65 18 58 19 54 22 49 22 33 19-17 7-3 5-5 7-6 8-9 9-23 16-46 30-4 3-22-13-26-15-31-12-31-12-33-10-5 9 81 55 44 36 19 17 15 18 28 35 12 21 51-37 8-17-22 1-1-2h173m-10-22H377l-19-17-22-17-13-10 15-2 18-4 18-3 30-10 14-5 13-6 11-7 10-7 8-23-1-1 12 8 32 29 28 32 23 34 5 9Z"/></symbol><symbol id="𭍤_K" viewBox="0 0 1000 1000" data-size="21"><path transform="matrix(1 0 0 -1 104 932)" d="M779 808c9-12 14-21 14-26 0-6-12-10-35-13V65c0-28-1-43-1-45-1-3-8-6-23-8-7-3-13-4-16-4s-4 1-5 4c-1 2-1 8 0 16 1 11 1 21 1 28H47c0-30 0-45 1-43-1-4-9-7-24-10-9-2-14-3-16-3-3 0-5 2-6 5-1 2-1 9 0 20 1 14 1 26 1 36L0 858l51-31h653l22 24c7 8 11 12 11 12 1 0 5-5 13-15l29-40M714 77v730H47V77h667m-91 577-6-18H491l40-18c17-9 25-17 25-23 0-7-12-11-35-12l-81-126h159l26 35c8 10 13 15 15 15s7-5 17-14l38-40-5-18H398V310h153l27 33c9 11 13 16 15 16 1 0 7-5 16-16l37-38-7-15H398V102c0-4-8-7-22-11-8-3-14-4-16-4-4 0-6 2-6 5v16c1 11 1 21 1 30v152H131v20h224v125H73v22h352l66 179H153v20h202v85l-2 51 49-15c17-5 25-10 25-16s-10-13-29-21v-84h127l25 36c8 11 12 17 13 17s8-6 20-17l40-38M322 500c-6-25-15-38-28-38-10 0-17 10-19 31-4 49-18 91-44 127l10 8c56-48 83-90 81-128Z"/></symbol><symbol id="𭍤_U" viewBox="0 0 1000 1000" data-size="23"><path transform="matrix(1 0 0 -1 93 916)" d="M0 823c11 0 22-3 33-9 11-5 24-13 37-23h657l32 41c11-4 22-10 32-18 11-7 18-15 22-24l-28-28V23C768 8 753 0 738 0v42H47V23C32 8 16 0 0 0v823M47 54h691v725H68l-21-14V54m150 242-18-5-11 16h201v109H145l-17-4-12 16h471l30 40c17-7 31-16 42-27s18-19 22-25H416V307h119l31 40c17-7 30-16 41-27s18-19 22-24H416V146c-15-16-31-24-47-24v174H197m-12 293-17-4-12 16h391l30 40c17-7 31-16 41-27 11-11 18-19 22-25H185m320-1c13-3 26-8 39-14 13-5 22-11 27-18l-26-17c-7-23-19-42-35-59s-33-29-51-37l-3 2c11 13 20 31 29 55 9 25 16 54 20 88m-280-1c41-27 68-48 82-65 15-16 22-29 22-40 0-5-1-11-4-16s-6-9-10-13c-4-3-8-6-12-8s-7-3-10-3c-9 0-13 6-13 17v6c0 14-6 31-18 52s-26 44-42 67l5 3m119 113c34-11 57-21 69-30 13-8 19-16 19-25 0-5-1-11-4-16s-6-9-10-13-8-7-12-10-7-4-9-4c-7 0-10 4-10 12v7c0 10-5 22-14 35-9 14-21 28-34 41l5 3Z"/></symbol><symbol id="𭍥_J" viewBox="0 0 1000 1000" data-size="21"><path transform="matrix(1 0 0 -1 63 948)" d="M153 430h588l38 48c42-33 62-54 62-63 0-5-3-10-10-14l-25-16V0h-56v39H142V0H85v461c31-13 54-24 68-31m199-25v-94h179v94H352m-55 0H142V63h155v342M750 63v342H586V63h164M352 192h179v94H352v-94m179-25H352V63h179v104M405 540v96H111l-10 25h304v85H57l-9 25h357v126c69 0 104-8 104-24 0-10-16-19-46-28v-74h240l53 65c26-23 49-47 70-72l-11-18H463v-85h195l50 57c24-21 46-42 65-64l-11-18H463v-96h285l54 64c28-24 52-48 73-70l-11-19H10L0 540h405Z"/></symbol><symbol id="𭍦_J" viewBox="0 0 1000 1000" data-size="21"><path transform="matrix(1 0 0 -1 90 934)" d="M309 461H114l-11 25h258v119c55-4 82-13 82-25 0-7-10-14-30-22v-72h164l45 58c23-21 43-43 60-65l-11-18H364c-2-33-4-61-8-84h169l31 35c36-32 55-51 55-58 0-3-3-6-7-9l-22-14c-2-77-13-130-32-156s-49-38-91-37c-1 18-9 30-26 37-12 5-37 11-73 18v24c44-8 80-12 108-12s45 11 52 32c5 20 9 58 13 115H350c-28-110-105-185-230-226l-12 21c70 33 121 76 154 129 29 50 45 111 47 185m-53 187H104l-11 25h163v83c64-3 96-11 96-24 0-8-14-16-42-25v-34h163v86c64-3 96-11 96-24 0-8-14-17-42-27v-35h77l43 57c23-21 43-43 60-65l-11-17H527v-84h-54v84H310v-82h-54v82M728 69H59V0H0v854c29-11 52-21 70-30h649l39 44c41-32 61-52 61-60 0-5-3-9-10-14l-22-15V0h-59v69m0 25v705H59V94h669Z"/></symbol><symbol id="𭍧_G" viewBox="0 0 1000 1000" data-size="21"><path transform="matrix(1 0 0 -1 91 971)" d="m16 940 34-39h677l35 40 50-48c5-4 6-7 5-10s-4-6-10-7l-18-9V156l4-108c5-27-12-41-49-43v78H63V45C64 21 47 6 12 0c3 25 5 87 6 185v700c-1 16-7 30-18 43l16 12m47-837h681v778H63V103m549 369V208c0-16-4-30-13-41-11-11-35-20-72-27-1 19-10 32-29 38-18 6-38 11-59 15l3 17c43-7 75-11 96-12 15 1 24 2 28 4 5 3 8 27 7 70v28H252V180c2-23-13-37-46-42 3 23 6 71 7 144v210c3 7-1 16-12 27l12 11 30-29h315l29 30 45-30c6-4 9-7 9-10s-3-5-9-8l-20-11M409 810c1 11-7 24-25 41l8 11 76-34c6-1 9-3 10-5s0-4-4-5c-11-3-19-9-26-18v-74h135l23 35 67-41c3-3 5-5 4-7-1-1-5-2-10-3H448V597h179l29 36 61-43c4-3 5-5 4-6s-4-2-10-3H178c-17 1-32-4-44-13l-33 29h137v139c1 11-7 24-25 41l8 11 74-33c6-1 9-3 10-5s0-4-4-5c-11-3-19-9-26-18V597h134v213m164-416H252v-80h321v80m-321 14h321v77H252v-77Z"/></symbol><symbol id="𭍨_S" viewBox="0 0 1000 1000" data-size="21"><path transform="matrix(1 0 0 -1 55 954)" d="m0 833 58-29h307l22 26 47-47-27-11V45l-42-22v42H58V29L0 0v833m627 74 62-11 16-9-16-10V538h98v293l64-11 15-9-15-10V506l-64-31v42h-98V98h122v309l63-11 16-9-16-10V56l-63-32v53H499V40l-52-26v393l52-11 14-9-14-9V98h128v419H526v-16l-57-29v359l57-11 14-9-14-10V538h101v369M365 783H58V87h307v696M104 632l57-29h90l29 26 55-47-26-19V257l-58-29v60h-90v-62l-57-30v436m147-50h-90V310h90v272Z"/></symbol><symbol id="𭍩_S" viewBox="0 0 1000 1000" data-size="21"><path transform="matrix(1 0 0 -1 86 938)" d="m0 876 58-28h679l33 26 57-48-26-20V44l-64-31v52H58V28L0 0v876m737-50H58V86h679v740M179 432l-2-47-4-44-5-42-7-38-8-36-10-34-11-30-14-26-15-24-17-20-8 5 9 23 8 26 7 26 5 30 6 31 3 35 4 37 1 40 1 42-1 46h58m467-321-42 26-36 38-29 52-10 22-5-8-35-41-37-35-39-29-42-23-45-15-3 7 37 26 36 28 33 31 30 37 28 40 22 37-18 60-19 89-16 101-12 98H179V432h-58v270l58-29h263l-9 121v12l63-8 16-9-15-11 9-105h60l53 53 63-53v-21H509l10-90 14-98 16-72 11 24 19 60 20 73 58-26 13-13-19-6-15-47-25-62-26-56-15-25 26-60 23-42 26-27 19-12 28 124h11l-10-131 22-10 9-22-9-22-23-9-46 8M226 461l62-32h77l31 26 58-47-26-21V251l-63-31v42h-77v-37l-62-32v268m139-53h-77V282h77v126m29 174 52-47v-21H214v21h137l43 47m171 147v4l-2 5-2 7-5 6-20 24-9 9-10 7 4 8 12-5 12-3 13-3 9-3 20-8 9-3 8-4 7-6 8-6 3-25-15-18-23-3-20 14 1 3Z"/></symbol><symbol id="𭍪_K" viewBox="0 0 1000 1000" data-size="21"><path transform="matrix(1 0 0 -1 104 931)" d="M779 807c9-12 13-21 13-26 0-6-11-10-34-12V64c0-28-1-43-1-44-1-3-8-6-23-8-7-3-13-4-16-4s-4 1-5 5c-1 2-1 7 0 15 1 12 1 21 1 29H47c0-30 0-45 1-44-1-4-10-7-25-10-8-2-13-3-15-3-3 0-5 2-6 5-1 2-1 9 0 19 1 15 1 28 1 38L0 857l51-31h652l23 25c6 7 10 11 10 11 1 0 5-5 13-15l30-40M714 78v728H47V78h667M582 750c10-10 16-18 16-23 0-6-9-9-27-11v-83c0-24 0-36-1-38 0-2-7-4-21-8-9-3-14-5-17-5-2 0-4 2-5 5v13c1 9 1 17 1 23H232v-33c-1-3-9-6-24-11-7-2-12-3-15-3-2 0-4 1-5 4v13c1 10 1 19 1 25v126l-3 41 50-31h284l14 22c6 8 9 12 10 12 3 0 8-4 17-14l21-24m-54-106v90H232v-90h296m128-131-6-15h-99V242l53 7 5-16-58-14v-50c0-8 0-16 2-25 1-10 2-15 2-18 0-8-8-16-25-23-7-3-12-4-14-4-5 0-8 2-8 5-1 5-1 14-1 27 0 20 1 35 1 45v32l-332-74c-4-23-9-34-16-34-6 0-13 7-19 21l-23 47 98 17v313H116v21h434l24 29c10 12 16 18 19 18 4 0 11-4 21-14l42-39m-148-95v80H259v-80h249m0-104v84H259v-84h249m0-80v59H259V192l249 42Z"/></symbol><symbol id="𭍫_G" viewBox="0 0 1000 1000" data-size="21"><path transform="matrix(1 0 0 -1 64 972)" d="m15 944 39-43h730l34 39 50-47c4-4 5-7 4-10s-4-6-10-7l-18-9V159l4-105c1-15-3-25-10-30-8-6-21-10-39-12v66H62V43c0-13-4-22-13-29C40 8 28 3 11 0c3 25 5 89 7 194v697c-1 12-7 26-18 42l15 11m784-63H62V97h737v784M436 610h237l24 33 51-42c5-3 6-5 5-7-1-1-4-2-10-2H609V250c-1-20-6-35-15-46-7-12-22-21-44-26-3 23-28 39-75 48l1 17 20-6c33-7 54-8 63-3 8 3 12 18 13 45v313h-77c-13 1-25-3-34-12l-25 30m-327-9h233l23 34 51-43c4-3 6-4 5-5s-4-2-9-2H288V252c0-19-5-35-14-47-7-11-22-20-45-26-3 24-28 40-75 49v17l20-6c33-7 55-9 64-5 9 5 13 21 14 47v304h-85c-10 1-21-4-33-13l-25 29m439-125c2-7 1-11-4-11-9 1-16-3-21-12-42-82-86-145-131-189l-9 8c33 47 63 101 89 162 12 27 18 43 17 47 0 5-2 12-7 21l6 6 60-32m-321 9c3-5 1-8-5-8-9 1-16-2-21-9-34-87-70-151-107-194l-9 9c33 61 57 116 73 163 7 23 11 39 12 48-1 8-4 15-9 20l6 5 60-34m407-3 7 12c47-35 79-66 96-93s26-50 25-69c0-19-6-31-18-34-15 0-23 10-24 29 0 13-6 36-19 67-10 24-32 53-67 88M459 763h177l23 33 53-43c3-3 5-5 4-6s-4-2-9-2H518c-13 1-25-3-34-11l-25 29m-321-7h176l25 33 50-42c4-3 6-5 5-7-1-1-5-2-10-2H196c-15 1-26-3-34-12l-24 30m167-255 8 9c60-38 89-78 87-119-1-19-7-29-17-30s-16 7-17 25-6 36-14 55c-5 14-20 34-47 60Z"/></symbol><symbol id="𭍬_K" viewBox="0 0 1000 1000" data-size="21"><path transform="matrix(1 0 0 -1 104 932)" d="M714 77v730H47V77h667m65 731c9-12 14-21 14-26 0-6-12-10-35-13V65c0-28-1-43-1-45-1-3-8-6-23-8-7-3-13-4-16-4s-4 1-5 4c-1 2-1 8 0 16 1 11 1 21 1 28H47c0-30 0-45 1-43-1-4-9-7-24-10-9-2-14-3-16-3-3 0-5 2-6 5-1 2-1 9 0 20 1 14 1 26 1 36L0 858l51-31h653l22 24c7 8 11 12 11 12 1 0 5-5 13-15l29-40M529 248v62H231v-62h298m0 83v56H231v-56h298m0 77v60H231v-60h298M337 201c10-8 15-14 15-18 0-3-4-4-11-4 0 0-7 0-22 1-80-42-155-70-224-85l-6 12c93 26 166 65 219 115l29-21m291-83c1-5 2-9 2-13-3-8-8-12-13-12-6 0-16 6-30 17-40 37-95 68-165 94l10 13c67-24 109-39 125-45 43-18 67-36 71-54m-46 356c8-9 13-15 13-18 0-4-8-9-23-16V248c2-18 3-28 1-32s-10-10-23-17c-5-1-9-2-12-2-8 0-11 10-9 30H231c0-12 0-19-2-21-2-5-10-9-22-13-7-3-12-5-14-5-4 0-7 5-7 14 0 14 1 30 1 48l-2 263 41-24h294l11 11c5 7 9 11 10 11 2 0 7-4 16-12l25-25m87 85-9-14H114v20h245v58H196v20h163v61H166v20h193v43l-4 34 46-12c19-6 28-11 28-15s-9-12-27-22v-28h119l18 27c7 10 12 16 14 16s8-4 17-11l51-40-5-12H402v-61h93l22 31c6 8 10 12 12 12s8-5 20-13l42-37-6-13H402v-58h168l22 25c10 12 17 17 20 17s8-3 16-11l41-37Z"/></symbol><symbol id="𭍭_S" viewBox="0 0 1000 1000" data-size="21"><path transform="matrix(1 0 0 -1 85 941)" d="m0 882 63-31h677l32 26 58-48-26-20V47l-64-31v52H63V31L0 0v882m740-53H63V89h677v740M567 151l-21 25-27 22-33 24-36 23-20 11 2 9 47-10 21-6 40-15 19-8 17-10 17-10 15-12 15-11 8-24-10-21-22-8-23 10-9 11M302 280l38-51 2-18-20 8-41-25-43-21-47-20-24-7-52-15-4 10 105 70 37 27 45 37-1 1 5 4m-193 5v22h164v99H153v21h120v92l63-11 17-10-17-10v-61h105v92l64-11 16-10-16-10v-61h23l43 47 53-47v-21H505v-99h47l52 52 64-52v-22H109m332 121H336v-99h105v99M240 528v-15l-63-32v320l63-31h297l32 26 58-47-26-21V519l-64-33v42H240m117 113H240v-91h117v91m180 0H421v-91h116v91M357 749H240v-88h117v88m180 0H421v-88h116v88Z"/></symbol><symbol id="𭍮_S" viewBox="0 0 1000 1000" data-size="21"><path transform="matrix(1 0 0 -1 44 964)" d="m0 835 58-29h290l28 26 56-47-27-18V61l-57-30v61H58V28L0 0v835m764 70-15-9 2-179h30l53 52 62-52v-22H752l10-148 14-138 7-36 18 82 13 78 1 10 61-21 15-12-19-7-13-61-19-73-22-68-14-35 11-50 22-61 20-42 24 100h11L882 84l2-3h-2l21-9 9-22-9-23-22-8-29 8-25 22-24 33-24 49-16 47-26-44-32-43-35-36-36-30-39-21-5 8 31 29 29 33 28 37 25 43 24 49 17 43-11 42-19 112-16 141v1l-24-20V317l-64-31v42h-74v-63l-63-32v363l63-32h74l32 27 56-47-9 151H430v22h258l-2 199v13l62-13 16-11M454 91l-1 1-7 18-1 4-5 15-1 2-3 11-1 3 71 21 131 44 58 18 5-9-52-34-50-31-73-37-46-22-2-1-5-20-16 11-2 6m-19 54 21-60-31 57 10 3m-87 640H58V112h290v673M101 641l57-30h86l29 27 55-47-26-19V275l-58-28v60h-86v-63l-57-29v426m143-50h-86V328h86v263m366-48h-74V349h74v194m187 267-4 24-3 12-6 22-4 11-9 21-6 9 6 7 9-8 11-6 11-6 10-10 8-10 9-11 16-23 13-28-3-24-18-15-24 3-14 19-2 13Z"/></symbol><symbol id="𭍯_K" viewBox="0 0 1000 1000" data-size="21"><path transform="matrix(1 0 0 -1 97 920)" d="M52 76h670v715H52V76M0 835l53-28h651l35 34 50-35c19-13 23-22 12-28-7-5-16-7-30-7V56c1-13 1-21 0-25-4-6-12-11-22-15-13-3-21-2-25 3-2 3-3 12-2 26l1 16H52l-1-20c0-11 0-19-2-22-3-6-9-11-20-16C16 0 8 1 5 7c-2 3-3 12-2 27l1 15v716l-4 70m400-271H249v-97h151v97m0-116H249v-95h151v95m188 116H454c9-11 12-18 9-22s-10-6-22-7h-3v-68h150v97m0-116H438v-95h150v95M315 665c-9-11-20-22-31-33-6-7-17-17-31-29l-15-16 8-1h161l70 79H315m322-83c15-14 21-24 16-31-2-3-9-6-21-9l-5-1V339c1-10 0-17-1-21-1-6-6-11-14-16-11-6-18-6-22-2-2 3-3 10-3 23v10H249v-7c1-8 0-13-1-17-2-5-6-9-14-14-13-6-20-7-23-3-2 2-3 9-2 21l1 13v238c-40-31-74-54-104-67l-4 10c26 15 62 46 108 92 44 44 86 96 126 155l29-16c15-8 22-14 22-19 0-6-12-10-36-12l-21-24h146l33 41 45-43c10-10 13-18 8-23-6-5-18-7-39-5l-86-67h141l26 29 33-33M198 319c-2-34-13-68-31-101-18-32-39-58-63-75-13-4-20-2-23 5-3 9 0 27 9 53 0 7 4 12 10 16 3 3 8 6 16 11 17 7 30 15 39 24 15 15 26 37 33 67h10m167-147c-6-10-11-15-16-14-6 1-11 11-14 30-3 20-6 37-11 50s-16 34-33 63l4 7c37-33 60-59 70-76 9-18 9-38 0-60m338 8c-2-17-6-26-13-27-7-2-13 5-19 22-7 20-18 38-33 56-16 19-36 37-62 52l5 12c44-15 74-28 88-41 21-17 32-41 34-74m-188 0c-5-17-11-23-19-19-7 5-11 15-12 32-1 21-5 38-10 51-6 13-19 35-37 65l6 6c33-28 54-50 64-68 13-21 15-44 8-67Z"/></symbol><symbol id="𭍰_K" viewBox="0 0 1000 1000" data-size="21"><path transform="matrix(1 0 0 -1 113 921)" d="m690 182-5-14H326v-17c0-22 0-34-1-36 0-1-8-4-23-9-7-2-11-2-14-2s-5 1-6 4v17c1 15 1 26 1 34v358c-31-47-57-78-78-93l-9 8c20 21 51 68 93 141 34 66 60 130 78 194l39-23c16-9 24-16 24-21 0-4-12-8-34-11-21-48-41-87-60-115h126c14 41 31 95 50 162l38-18c18-8 27-15 27-21s-11-11-33-14c-17-32-37-69-62-109h117l23 25c8 9 12 13 13 13 2 0 8-4 15-11l36-35-7-12H507V462h58l26 27c9 9 14 13 14 13 3 0 9-5 18-14l31-32-6-14H507V328h57l22 26c7 9 12 13 15 13 2 0 8-4 17-13l33-32-5-14H507V188h94l25 28c9 9 14 13 16 13s8-5 17-15l31-32M210 679c0-19-5-29-15-29-9 0-18 9-25 26-15 28-40 53-76 75l8 8c39-16 65-28 77-35 21-13 31-28 31-45m-51-177c-2-17-7-25-14-25-10 0-17 8-23 24-10 26-30 52-60 78l7 9c34-17 56-30 68-40 16-14 23-29 22-46m112 186L155 304c-4-14-6-27-6-39 0-19 9-41 25-67 16-25 25-47 25-64 2-30-5-45-20-45-13 0-22 12-30 37l-10 85c-6 38-21 61-43 68l-42 14 1 13 40-5c13-2 25 11 34 36l131 353 11-2m193-226v115H326V462h138m0-134v114H326V328h138m0-140v120H326V188h138m297 600c9-11 13-19 13-25s-11-10-34-12V63c0-27 0-42-1-43 0-3-8-6-22-8-8-3-13-4-16-4-2 0-4 1-5 5v15c1 11 1 21 1 28H46c0-30 0-44 1-43-1-4-9-7-24-10-8-2-13-3-15-3-3 0-5 2-6 5-1 2-1 9 0 19 1 15 1 27 1 38L0 837l50-30h638l20 24c7 7 10 11 11 11 0 0 5-5 13-15l29-39M697 76v711H46V76h651Z"/></symbol><symbol id="𭍱_S" viewBox="0 0 1000 1000" data-size="21"><path transform="matrix(1 0 0 -1 58 958)" d="m0 917 63-31h733l31 26 58-47-27-21V36L796 5v42H63V31L0 0v917m796-52H63V68h733v797M123 178l-2 14v2l-1 2 109 12v87h-90v20h90v100H124v21h188l43 47 52-47v-21H292V315h17l43 48 52-48v-20H292v-80h2l30 2 32 2 33 2 33 1 1-10-30-11-62-18-89-23-85-19-5-1-8-20-13 14-2 12-1 7-1 2v5l-1 6-1 2-1 7-1 1v2m-3 18 11-62-21 60 10 2m310-30v21h116v108h-83v20h83v104H445v21h188l43 47 53-47v-21H608V315h17l44 48 52-48v-20H608V187h39l43 47 53-47v-21H430M161 530v22h229v99H219v21h171v89H186v20h375l43 48 52-48v-20H453v-89h74l44 48 52-48v-21H453v-99h132l43 47 53-47v-22H161Z"/></symbol><symbol id="𭍲_S" viewBox="0 0 1000 1000" data-size="21"><path transform="matrix(1 0 0 -1 22 957)" d="m591 533 63-10 16-10-16-10V334l-4-53-4-49-8-44-11-41-13-37-15-32-19-27-21-24-24-16-26-11-5 8 18 17 16 21 13 23 12 26 9 30 8 33 6 38 3 42 2 46v249m183 0 64-10 16-10-16-10V35L774 3v530M434 867l57-47-26-21V53l-64-32v53H53V37L0 11v856l53-26h348l33 26M332 690l-16 19v25l-2 17-3 16-3 13-10-6 2-124h23l33 38 42-38v-20h-97l7-109 8-83 4 17 11 67 61-20 9-10v328H53V231l5 1 20-57-25 45V95h348v35l-14-7-26 8-20 17-19 27-18 37-7 20-11-18-25-31-26-28-28-20-30-15-5 8 22 21 21 26 18 28 19 31 16 36 10 26-7 32-15 85-10 90-6-4V357l-57-28v28h-49v-36l-48-24v265l48-24h49l28 26 33-27-6 93H56v20h181l-3 145v12l64-12 5-4 5 5 6-6 9-4 8-5 8-6 14-13 13-17 6-9 6-9-3-25-20-14-23 2M78 175l-2 6v1l-1 3-1 1-1 2-1 2-2 6-1 3-1 4-2 3v3l-1 3-1 2-5 15-1 3 16 5 72 20 61 17 22 6 21 7 4-8-73-50-53-30-17-9-11-5-6-23-15 12-1 1m323 312-14-6-8-39-16-54-15-50-10-22 10-36 14-45 4-6 21 88h10l-9-126 1-1 5-5-7 1 14-6v307m-218 31h-49V379h49v139m686 26-25 24-25 29-23 30-22 33-20 36-20 39-17 41-14 39-29-68-23-45-47-83-28-39-28-38-31-36-34-33-6 6 70 119 42 83 36 87 17 45 14 45 13 47 3 9 57-26 12-15-18-5-9-26 54-88 46-66 24-28 24-24 25-23 24-18 44-30-59-44-27 23Z"/></symbol><symbol id="𭍳_G" viewBox="0 0 1000 1000" data-size="21"><path transform="matrix(1 0 0 -1 91 969)" d="m16 936 34-39h677l35 40 50-48c5-4 6-7 5-10s-4-6-10-7l-18-9V172l4-108c5-27-12-41-49-43v58H63V45C64 21 47 6 12 0c3 25 5 87 6 185v696c-1 16-7 30-18 43l16 12M63 99h681v778H63V99m177 719 6 12c2-1 5-2 8-4 26-11 44-21 54-28 15-10 27-23 36-39 7-12 9-24 7-37-5-11-9-16-14-16h116l17 31c12 21 23 41 32 61 1 2 2 3 2 4 2 8 1 16-4 24l9 8 52-35c10-7 12-12 5-14-15 2-25 0-31-7-17-18-37-42-61-72h134l28 29 35-37c7-8 5-13-5-16l-15-7V561l5-48c1-12-2-21-7-28-4-5-16-8-36-11v38H197v-4c0-7-4-15-12-24l-3-3c-6-5-15-10-27-13 0 3 0 8 1 15 1 13 2 44 3 93v118c-1 15-6 27-15 37l10 10 31-35h147c-8 1-13 8-15 21-2 11-9 25-21 44-10 14-29 30-56 47m-40-353 30-33h321l27 33 41-39c3-3 5-6 4-8-1-3-4-5-9-6l-15-11V237l3-43c1-12-1-22-6-29-4-4-15-7-34-10v60H246v-26c1-10-5-19-17-27-6-5-15-10-28-13 2 23 4 60 6 112v158c-3 16-8 28-17 35l10 11m413 222H423V531h190v156m-416 0V531h190v156H197m49-371v-83h316v83H246m316 97H246v-82h316v82m-46 257 53-31c4-3 6-5 7-7 0-2-2-4-5-5-9-1-18-3-26-6-11-12-26-29-47-52-15-16-26-28-33-36l-11 9 25 37c24 37 37 58 38 64 1 7-2 14-8 21l7 6m-269-14 7 9c19-8 36-18 50-29 9-6 18-17 27-34 0-1 0-2 1-4 2-15 2-26 1-33-1-11-6-16-13-15-10 0-16 7-17 21-3 17-8 29-13 38-6 13-20 29-43 47Z"/></symbol><symbol id="𭍴_K" viewBox="0 0 1000 1000" data-size="21"><path transform="matrix(1 0 0 -1 100 921)" d="m723 555-4-12c-11 0-19-6-25-17-5-11-9-17-13-17-7 0-19 4-35 12-46 19-94 48-144 85-50 39-90 75-121 110-89-94-197-167-326-220l-7 11c61 31 122 71 181 119 60 49 104 96 132 143l47-20c13-5 19-10 19-14s-9-8-27-12c38-40 89-77 154-112 65-34 121-52 169-56m-179 6-7-15H201v20h251l24 28c7 10 12 14 12 14 4 0 11-5 23-17l33-30m100-95c10-9 15-16 15-20s-8-8-25-12v-73c0-18 0-27 1-26-2-3-9-7-24-10-7-2-12-4-14-4-4 0-6 3-6 7-1 6-1 14 1 25H445c1-13 1-20 0-21 0-3-7-6-18-11-9-3-15-5-18-5-4 0-7 3-8 7 1-5 1 3 1 24v114l-4 40 50-27h133l11 15c6 7 10 11 11 11 2 0 7-3 15-10l26-24m22-327c1-22-4-34-16-34-10 0-19 9-27 27-18 30-53 57-105 82-47-56-95-94-146-112l-10 6c37 21 71 51 102 92 32 41 52 82 61 121l43-22c19-9 28-16 28-21 0-6-14-10-42-14-10-16-19-28-27-36 59-25 92-38 99-41 25-15 39-31 40-48M356 477c12-10 17-16 17-20 0-5-8-9-25-15v-75c0-14 0-21 1-20-2-3-9-7-22-11-10-3-17-5-19-5-3 0-4 2-3 6 0 16 1 23 1 21H148c0-16 0-25-1-26 0-1-7-4-21-7-8-2-13-4-16-4-2 0-4 3-5 8 1-12 1-3 1 25v113l-3 40 49-27h142l12 15c6 7 9 11 9 11 2 0 8-3 17-10l24-19m-1-338c2-22-3-34-14-34s-20 9-28 27c-17 30-52 57-105 82-46-56-95-94-146-112l-9 6c36 21 69 51 101 92s53 82 62 121l43-22c18-9 27-16 27-21 0-6-14-10-42-14-10-15-19-27-26-36 58-25 91-38 97-41 26-15 39-31 40-48m237 233v82H445v-82h147m-286 6v82H148v-82h158m482 410c9-11 13-19 13-25s-12-10-34-12V63c0-27-1-42-1-43-1-3-8-6-22-8-8-3-14-4-16-4-3 0-5 1-5 5-1 2-1 7 0 15 0 11 1 21 1 28H46c0-30 0-44 1-43-1-4-10-7-25-10-7-2-12-3-14-3-3 0-5 2-6 5-1 2-1 9 0 19 1 15 1 27 1 38L0 837l50-30h664l20 24c8 7 11 11 12 11s5-5 13-15l29-39M724 76v711H46V76h678Z"/></symbol><symbol id="𭍵_G" viewBox="0 0 1000 1000" data-size="21"><path transform="matrix(1 0 0 -1 91 971)" d="m16 940 34-39h677l35 40 50-48c5-4 6-7 5-10s-4-6-10-7l-18-9V156l4-108c5-27-12-41-49-43v78H63V45C64 21 47 6 12 0c3 25 5 87 6 185v700c-1 16-7 30-18 43l16 12m47-837h681v778H63V103m136 563 32-30h320l29 29 33-35c3-3 5-6 4-8-1-3-5-5-10-6l-13-5v-95l3-102c-1-12-4-20-9-23-7-5-17-7-31-8v28h-64v-83h125l28 39 59-49c4-1 5-3 3-5s-6-3-13-4H493v-76l2-51c0-13-3-21-10-26-3-3-12-7-27-12-3-1-6-1-8-2 4 43 6 87 6 132v35H339c0-2-1-5-2-10s-1-8-2-11c-11-39-33-71-67-96-33-22-72-39-118-50l-4 12c37 15 70 32 97 52 22 18 40 44 54 77 2 8 4 17 6 26H166c-15 1-27-3-38-11l-24 30h202c4 27 6 55 5 83h-73c-1-7-5-16-13-26-5-5-15-8-30-11 3 15 5 45 7 88v162c1 11-3 21-12 32l9 10m39-46v-55h319v55H238m0-138v-55h319v55H238m0 69v-55h319v55H238m223 294 56-23c9-3 11-7 6-13-11-3-20-7-26-10-3-9-8-18-15-27-3-4-6-7-7-9h129l21 33 51-40c6-5 8-9 7-10-1-2-7-2-17-1H519c3-2 8-5 14-10 3-2 6-4 7-5 10-11 17-22 20-31 4-13 4-24 0-31s-10-11-17-10-11 7-12 18-4 23-9 34c-4 11-12 22-23 35h-31c-18-32-43-62-76-90l-12 9c25 32 45 63 60 92 12 21 20 39 25 55 0 6-3 15-9 27l5 7m-245-2 52-24c9-4 10-8 5-13-9-1-18-5-27-10-3-6-7-13-12-21-3-5-6-9-8-12h109l21 31 45-35c6-7 8-11 7-13s-7-2-16-1H273c11-7 21-15 29-24 11-15 17-28 17-39-1-15-6-23-14-24-10-1-16 6-17 19-1 14-4 25-9 34-1 1-2 2-3 4-8 12-15 22-22 30h-39c-29-48-61-83-94-106l-8 11c32 38 56 71 72 100 1 3 4 7 7 12 13 26 21 41 23 46 3 10 1 19-7 26l8 9m132-432c-1-6-1-15-2-27-1-25-3-43-4-56h114v83H348Z"/></symbol><symbol id="𭍶_J" viewBox="0 0 1000 1000" data-size="21"><path transform="matrix(1 0 0 -1 40 950)" d="M346 137v-28h-54v175c28-11 47-19 59-25h192l32 34c36-25 55-42 55-50 0-3-2-5-5-7l-21-14V112h-54v25H346m0 25h204v72H346v-72M182 51V0h-58v374c27-10 49-19 66-28h525l35 35c41-29 62-48 62-54 0-4-2-7-6-10l-27-17V0h-58v51H182m0 25h539v245H182V76m55 532v-56c0-8 0-14-1-18h88l40 38c24-15 43-30 57-44l-11-19H233c-1-5-2-12-5-19 43-11 78-24 103-40 21-14 31-28 31-41 0-22-9-33-28-33-9 0-20 9-35 28-19 26-46 48-79 65-30-62-98-106-204-131L3 362c101 34 159 83 174 147H11L0 534h181v74h-69c-20-25-44-48-72-68l-19 13c32 32 59 80 81 143 55-6 82-15 82-26 0-9-13-15-40-16l-13-21h164l37 37c20-13 39-28 56-45l-10-17H237m363-69v89c64-3 95-10 95-21 0-9-12-16-38-21v-47h103l47 37c19-13 39-28 58-46l-12-16H657v-93h143l49 38c18-11 39-25 61-44l-11-20H402l-14 26h212v93H452l-12 25h160M118 806c88 24 155 50 201 78 41-17 61-31 61-40 0-12-17-15-52-10-59-21-129-38-210-50v-21c0-10 4-15 12-17 8-3 38-4 90-4 66 0 105 3 116 8 10 6 19 27 26 64l25-5c0-31 2-49 7-54 4-5 12-7 25-7-1-25-15-38-40-41-33-5-85-7-158-7-71 0-116 3-134 8-15 7-23 19-23 39v153c62-1 93-9 93-23 0-8-13-15-39-21v-50m579-95c53-24 128-45 224-62-16-12-30-28-43-49-89 22-163 50-222 83-56-34-136-62-239-86l-9 24c78 23 147 53 205 89-46 33-85 74-118 122h-54l-9 25h309l37 35c42-33 64-53 64-60s-3-11-10-13l-32-9c-27-34-62-67-103-99m-47 25c41 30 72 63 95 96H528c35-39 75-71 122-96Z"/></symbol><symbol id="𭍷_S" viewBox="0 0 1000 1000" data-size="21"><path transform="matrix(1 0 0 -1 44 962)" d="m755 901-15-8 3-180h48l53 52 63-52v-22H743l11-165 16-139 5-32 9 26 21 72 17 77 2 10 60-22 12-14-17-7-17-60-24-74-28-68-17-33 17-65 22-56 21-37 2-3 26 108h10L881 77l21-9 10-22-10-23-21-8-27 6-27 17-26 30-26 46-25 64-2 7-43-57-42-43-46-36-48-28-50-21-5 9 46 28 41 34 38 38 35 43 32 49 25 47-4 17-20 113-17 143-2 32-23-16V340l-58-29v29h-68v-63l-53-26v352l53-27h68l30 27 51-45-7 133H464v22h216l-3 199v13l62-13 16-11M439 33 382 4v40H52V28L0 2v865l52-26h330l29 26 55-48-27-17V169l6 3 25-59-31 48V33M313 686l-14 19v26l-2 9-2 16-4 21-7-4 2-130h17l33 37 42-37v-21h-91l6-112 8-77 10 66 2 10 60-20 9-9v339H52V206l2 1 23-58-25 41V64h330v38l-16-6-26 8-19 18-17 27-18 39-5 17-9-15-23-33-25-28-27-23-29-15-5 8 21 22 19 26 18 29 16 33 16 37 9 28-7 35-14 87-9 92-3-2V339l-57-29v29h-44v-37l-47-24v272l47-25h44l29 27 28-25-4 95H53v21h171l-3 150v13l62-13 5-3 5 4 6-6 8-5 7-5 15-13 7-8 13-17 5-10 5-10-3-24-19-14-24 4m136-524-4 10 68 24 150 60 27 10 5-8-46-37-46-32-90-53-22-11-2-1-4-20-15 9v1l-17 38v1l-1 3v1l-3 4v1m-377 0-13 33v1l-1 1-2 4v2l-1 1v2l-1 1 32 9 53 16 56 19 22 7 20 7 4-8-52-39-33-23-49-29-9-6-5-22-16 11-1 3-1 1-1 3v1l-2 4v1m310 313-13-6-9-41-14-57-16-52-8-23 9-39 15-47 2-4 18 84h11l-10-124 3-4 5-5-8 2 15-7v323m-210 30h-44V359h44v146m435 50h-68V361h68v194m205 239-7 23-4 13-10 23-5 10-13 23-6 10-9 9 6 8 11-7 13-6 12-6 12-9 10-9 21-21 10-11 16-26v-23l-16-18h-24l-17 17Z"/></symbol><symbol id="𭍸_K" viewBox="0 0 1000 1000" data-size="21"><path transform="matrix(1 0 0 -1 95 930)" d="M353 537H188v53h165v-53m0-16v-58H188v58h165m0-73v-55H188v55h165M132 324l45-28c27 3 54 9 81 17 27 9 56 23 88 40l32-31c9-11 12-18 9-22-4-3-18-1-40 7-32-8-62-14-91-18s-55-6-79-8v-44h123l37 29 36-26c9-5 11-10 8-14-3-3-10-5-21-5H177v-64h454v64h-94l-93-2-8 21 88-3h107v59H522l-92-2-13 20 97-3h103l29 29 42-32c11-8 15-14 13-18s-12-5-28-6V142c1-8 0-14-2-17-3-5-9-8-20-11-10-3-17-3-19 0-1 1-2 6-2 16l1 13H177v-7c0-9-1-16-3-19s-8-7-18-12c-11-3-19-3-21-1-2 3-2 9-2 20l1 12v131l-2 57M33 488l1-2c29 20 50 35 63 45 17 11 32 23 46 36V358l-1-8c0-12 1-20 3-22 3-4 11-4 23-1 10 4 16 8 19 13 1 4 1 10 1 18v18h499c10 0 16 1 18 5 3 3 1 7-6 13l-59 39-46-41H400v56h225c11 0 17 2 19 5s0 7-8 12l-55 35-44-37H400v58h216c10 0 16 2 19 6 3 3 0 8-8 13l-54 33-45-37H400v36c11 1 18 4 23 8s3 7-6 10h257c10 0 16 1 19 4 4 5 2 10-7 14l-54 40-46-43H378c8 11 16 21 23 29l32 30c20 1 32 4 35 8 2 3-3 9-17 15l-52 17c-5-15-10-28-16-40-3-8-7-18-12-30l-14-29H188v1l30 29 22 20c23-1 35 2 35 8 0 5-6 11-19 18l-45 22c-22-36-45-68-67-95-32-36-68-72-111-107v-13m515 299c18-5 24-9 17-13-3-3-11-5-25-9l-7-4v-39h85l33 47 61-43c8-6 11-11 8-14-4-4-10-6-19-6H533v-25l1-16c1-9 1-16-1-19-4-4-12-8-23-12-11-2-17-2-19 0s-3 7-2 17l1 14v41H325v-28l-1-10c0-12-1-20-4-24-2-6-9-10-20-13-11-2-17-2-19 1-2 1-4 6-4 15l1 14v45H140l-66-2-13 21 64-3h153v37l-5 39 65-14c21-5 26-9 16-14-6-2-15-5-29-9v-39h165v39l-4 37 62-11m185 71 57-37c14-13 21-23 20-29-2-7-12-12-30-15V66c1-3 2-6 2-11 2-11 3-19 1-23-3-7-11-13-23-19-15-6-25-8-30-6-1 1-2 6-1 13v50H53V53c0-9 0-16-2-20-2-5-8-12-19-20C19 3 9 0 5 5c-3 2-4 9-4 21l1 2v784l-2 51 58-36h645l30 31M53 812V90h676v722H53Z"/></symbol><symbol id="𭍹_S" viewBox="0 0 1000 1000" data-size="21"><path transform="matrix(1 0 0 -1 39 980)" d="m818 448 63-10 15-10-15-10V84l-1-14-2-12-4-14-7-12-9-10-10-9-12-6-13-4-12-3h-14v31l-73 16v16h84l4 1 1 1v1l1 1 1 2 1 3 1 5 1 7v364M229 205l19-10-19 10m441 206 63-11 16-10-16-9V121l-63-32v322M430 231v63l-27-19-18-11-21-10-41-16-46-11-3 8 20 12 51 39 29 26 24 27H285v20h145v31l-25-1h-29l-30 1-32 2v4l-17-11-26-11-16-14-29-20-17-10-36-20-21-10-9-5 20-8 25-8 21-8 19-8 16-9 15-10 11-12 8-14 4-19-1-3h147v36l2-1m-205-24 2-1-2 1m346 197-2-1-19-3-43-4-14-1v-36h33l45 45M8 960l62-31h763l31 26 58-47-26-21V485l-63-31v31H70L8 454v506m225-52H70V506h643l-11 6-28 14-37 14-97 30-29 8 2 10h57l53-4 13-1v14H390l44-36 2-16-23 10-14-5-48-10-26-5-53-9-55-5-29-3-30-1h-30l-1 8 56 21 104 32 56 19h-81l-63-32v240l34-18v121m600 0H237l59-30h306l31 26 57-47-26-21v-38l-51-26h23l31 27 58-47-27-22V597l-35-18 5-1 20-3 19-3 17-5 16-4 16-18v-24l-17-15h94v402M636 651H262v-33h374v33m0 50H262v-29h374v29m0 51H262v-29h374v29m-34 46H296l-42-21 8-5h340v26m0 59H296v-38h306v38M223 208l4-2v1l-2 7-6 10-11 10-30 27-21 14-24 14h-1l-5 8 17 15 54 59 24 29H63V37L0 5v448l63-31h170l3 2 3 6 2-2 25 20 54-46 24 7 107 26 46 12 39 12 12 4h1l5 2 1-7 52-44 2-16-22 10h-3l59-49v-20H538l33-11 17-7 16-8 14-9 14-10 14-11 6-23-11-22-23-7-21 11-6 10-8 10-9 10-22 21-30 20-29 18v-84l-38-19 36-6 16-11-16-10v-5h42l53 52 63-52v-21H491v-1l52-36 35-20 36-17 38-16 30-14-59-49-20 13-20 13-35 28-30 31-14 17-13 18V35L428 3v114l-26-21-19-15-22-14-22-11-24-11-25-9-25-8-4 9 41 30 37 32 15 15 16 17 26 34 7 10H276l-11-18-9-9-9-8-11-8-11-6-12-5-13-3-12-2-13-1v32l-53 16v16h60l6 1 5 2 10 4 4 2 8 8 4 5 4 7Z"/></symbol><symbol id="𭍺_K" viewBox="0 0 1000 1000" data-size="21"><path transform="matrix(1 0 0 -1 53 913)" d="M886 288c-13 4-22 6-26 5-6 0-12-4-18-11-7-13-13-20-18-20s-14 6-28 18c-61 50-123 111-185 181-63 75-113 152-150 228-55-112-133-213-234-302C148 319 75 268 7 232l-7 10c87 55 166 121 237 197 97 99 163 199 198 298l-7 26H183v20h216l20 29c9 9 14 13 16 13s7-3 15-10l39-31c9-8 14-15 14-19 0-7-11-11-32-12 26-80 81-166 163-257 86-94 172-159 260-197l-8-11m8-272-6-16H0v21h425v169H93v20h332v128l-6 55 52-14c17-5 26-10 26-16 0-7-10-14-29-21V210h243l26 37c8 10 12 15 13 15 2 0 8-5 20-15l42-41-6-16H468V21h316l30 36c9 12 14 18 15 18 3 0 9-6 20-17l45-42Z"/></symbol><symbol id="𭍻_J" viewBox="0 0 1000 1000" data-size="21"><path transform="matrix(1 0 0 -1 60 926)" d="M406 25v155H91l-10 25h325v130c65-3 98-11 98-25 0-8-14-17-41-27v-78h217l53 60c25-21 47-43 67-66l-11-19H463V25h290l57 63c28-24 52-47 71-69L869 0H11L0 25h406M28 276l-16 19c46 41 78 85 96 133 15 41 22 92 22 153v265c64-3 96-11 96-26 0-8-13-16-38-26V586c0-80-13-144-40-193-25-47-65-85-120-117m287 39v538c66-6 99-15 99-29 0-8-14-17-41-26V315h-58m104 469c35 10 60 15 73 15 10 0 15-3 15-9 0-9-7-18-20-26 9-30 18-64 28-103 31 85 85 127 163 127 55 0 100-16 134-49 34-32 51-76 51-130 0-135-89-224-268-267l-6 20c73 27 127 61 160 101 32 39 48 88 48 146 0 54-17 93-50 118-24 17-54 26-89 26-37 0-68-19-93-56-22-33-33-70-33-113 0-15 1-27 2-35l-51-8c-11 76-32 157-64 243Z"/></symbol><symbol id="𭍼_J" viewBox="0 0 1000 1000" data-size="21"><path transform="matrix(1 0 0 -1 40 949)" d="M278 348v551c68-2 102-10 102-25 0-9-14-19-43-30V370c31 12 53 20 67 26l9-25c-25-13-51-26-76-38V82c0-28-10-49-29-63-17-12-39-19-66-19-1 22-13 37-36 46-16 6-43 12-83 17v28c35-3 74-5 117-5 25 0 38 11 38 33v186c-63-31-134-61-211-92-2-29-8-44-17-44-15 0-31 30-50 91 13 3 41 11 86 25v541c63-1 95-9 95-23 0-9-13-19-38-29V303c1 0 46 15 135 45m312 202v332c71-1 107-10 107-26 0-9-16-19-47-29V550h101l54 73c29-27 54-53 74-78l-13-20H650V95h139l57 76c28-27 53-54 75-81l-11-20H380l-11 25h221v430H417l-11 25h184m236-345c-18 0-30 14-36 43-10 50-34 100-71 148l14 17c83-59 125-114 125-166 0-28-11-42-32-42Z"/></symbol><symbol id="𭍽_G" viewBox="0 0 1000 1000" data-size="21"><path transform="matrix(1 0 0 -1 41 963)" d="M260 479c4-3 4-6-1-8-11-1-23-7-35-17v-75l224 48v103c1 10-9 25-29 45l8 11 89-35c9-3 11-7 6-11-13-4-23-10-29-20v-84l241 52 26 48 72-40c4-4 2-9-7-14l-24-15c-3-116-14-191-33-224-19-47-64-73-135-78 4 24-28 48-96 73l6 13c5-1 14-3 26-7 25-8 45-13 59-17 28-7 50-6 66 4 17 10 29 27 38 49 7 18 12 45 16 80 4 46 6 83 6 111l-261-56V219l3-69c1-23-18-38-55-44 3 26 6 77 7 154v146l-224-48V127c0-38 6-60 17-68s30-14 57-17c15-2 53-3 112-4h221c89 0 147 1 175 5 31 5 48 21 51 47 6 28 10 71 12 129h15l2-88c0-34 11-57 32-67-17-34-42-53-75-57-19-5-86-7-201-6-208-1-333 1-375 7-64 9-93 48-88 117v225L74 327c-15-5-27-13-37-25L0 331l179 38v94c-3 16-12 31-29 45l8 9 102-38m166 448 82-34c8-2 10-6 6-10-11-2-20-8-27-18v-81h219l31 39 67-49c5-3 7-6 6-8-1-1-5-2-12-2H487V630h309l31 39 66-49c5-3 8-6 7-8-1-1-5-2-12-2H111c-17 1-32-3-44-13l-33 33h408v134H193c-17 2-32-2-44-12l-33 32h326v91c1 11-7 25-24 41l8 11Z"/></symbol><symbol id="𭍾_S" viewBox="0 0 1000 1000" data-size="21"><path transform="matrix(1 0 0 -1 40 958)" d="m793 44-63 31-56 36-52 41-14 13-66-50-68-39-75-33-79-25-84-18-3 9 80 27 76 33 68 37 63 42 56 47 1 1-2 2-42 51-35 55-30 59-25 65-15 64h-62v21h210v194H355v22h221v188l64-10 15-11-15-9V729h162l52 52 64-52v-22H640V513h136l32 26 57-47-26-15-11-5-26-59-40-72-47-67-52-59-16-14 8-7 51-34 54-29 58-26 103-34-61-52-67 25M29 139l-4 10-1 3-2 8-1 2-4 14-4 14-2 5-1 3 96 28 61 18v369H15v21h152v267l62-9 17-11-17-10V634h68l43 47 53-47v-21H229V265l167 53 3-8-86-46-117-57-105-45-41-16-6-20-15 13m-19 59 19-59-29 56 10 3m760 294H438l26-56 31-58 34-54 39-48 43-45 16 17 46 59 40 63 35 69 22 53Z"/></symbol><symbol id="𭍿_K" viewBox="0 0 1000 1000" data-size="21"><path transform="matrix(1 0 0 -1 61 934)" d="m879 479-3-17H695V14c-1-4-8-7-22-10-9-3-14-4-17-4-2 0-4 2-5 5v17c1 13 1 24 1 33v407H514c0-244-70-398-210-461l-8 8c116 69 174 220 176 453H302v20h170v293H352v20h413l22 33c9 12 13 18 15 18s8-6 17-17l34-38-3-16H695V482h98l24 34c8 10 11 15 12 15 3 0 10-6 19-17l31-35M345 284 60 163c0-23-4-34-12-34-7 0-14 7-23 22L0 194l130 39v316H7v20h123v247l-3 52 46-14c16-6 24-12 24-18 0-7-8-13-25-20V569h72l19 25c8 11 12 17 13 17 3 0 10-6 21-18l25-30-5-14H172V244l172 55 1-15m307 198v293H514V482h138Z"/></symbol><symbol id="𭎀_J" viewBox="0 0 1000 1000" data-size="21"><path transform="matrix(1 0 0 -1 56 940)" d="M422 593c39-4 59-11 59-22 0-9-13-18-40-27V414c75 31 143 72 203 123 42-30 63-51 63-64 0-6-6-10-17-10-7 0-17 2-32 5-64-36-137-64-217-86V273c0-18 5-29 15-32 12-4 47-6 106-6 45 0 73 3 85 9 19 9 32 59 39 148l25-9c0-58 2-95 6-111 3-16 12-24 26-24-2-27-15-45-38-53s-73-12-151-12c-87 0-138 6-153 18-11 9-16 27-16 53v281c-21-30-47-62-76-95l-20 15c79 107 134 249 165 424 63-12 95-25 95-39 0-8-14-15-43-21-10-39-21-78-35-117h311l41 51c43-35 65-58 65-68 0-4-3-9-9-13l-27-17c0-336-18-533-53-593-25-40-63-61-115-62-4 19-14 33-32 41s-57 19-117 31v25c57-8 104-13 143-13 49 0 78 23 87 69 19 98 28 272 28 524H462c-13-31-26-59-40-84m-291 19v258c68-2 102-10 102-24 0-8-15-18-44-29V612h41l43 67c21-23 39-47 55-72l-11-20H189V267c54 24 103 50 149 76l8-23C244 250 151 193 66 150c-2-27-8-41-17-41-14 0-30 27-49 81 42 14 85 31 131 50v347H12l-8 25h127Z"/></symbol><symbol id="𭎁_K" viewBox="0 0 1000 1000" data-size="21"><path transform="matrix(1 0 0 -1 57 932)" d="m142 818 51-30c88 6 173 15 255 28 77 11 159 27 246 48l41-38c12-9 16-15 13-17-5-4-19-2-42 5l-73-9c-16-2-40-5-70-7l-47-6c7-5 10-9 9-13s-9-8-24-10c1-16 3-37 7-64 2-16 6-36 11-59h233l51 46 61-41c8-7 11-12 8-16-3-3-9-5-17-5H522c28-78 70-139 124-185 43-36 97-65 162-86 10-2 20 4 29 19 10 19 20 56 32 109l16-4c-5-32-10-63-13-93-3-16-4-33-6-50 16-14 23-25 20-31-5-9-24-10-58-5-83 26-151 62-204 106-68 56-117 129-146 220H192V455l310 57 4-15L52 389c-5-24-11-38-16-40-4-2-10 6-19 26L0 415l146 31v307l-4 65m50-172h283c-4 11-7 25-9 42l-9 52-7 44-258-11V646M83 2 24 0 13 21l65-2h352v177H202l-62-2-9 22 64-4h235v168l46-8c20-3 31-8 31-15-1-5-11-11-31-15V212h208l39 44 48-36c7-7 11-12 10-17-1-4-6-7-15-7H476V19h311l33 41 50-33c12-6 17-12 15-18-2-5-8-7-19-7H83Z"/></symbol><symbol id="𭎂_G" viewBox="0 0 1000 1000" data-size="21"><path transform="matrix(1 0 0 -1 18 976)" d="m144 940 84-33c9-3 11-7 6-11-11-3-21-9-28-18V643h65l35 44 63-50c5-4 6-7 3-10-3-2-9-3-20-4H206V291l161 63 4-18-229-105c-51-24-81-47-92-69L1 213l162 62v348H78c-18 1-33-3-44-12L0 643h163v245c0 12-9 26-27 41l8 11m263-3 95-38c5-1 8-3 9-5s0-4-3-7c-8-2-19-8-33-19 1-120 0-232-4-336l-3-44c42-30 70-54 85-73 22-27 34-54 37-82 2-28-4-43-18-45-15-4-24 4-26 25-3 22-10 47-22 74-15 28-34 54-58 78-10-78-31-151-64-220-43-89-97-155-161-199l-4 14c60 58 109 136 146 233 36 99 52 233 47 402v191c-6 13-17 25-32 36l9 15m256 15 94-40c3-2 5-4 5-5 0-2-2-4-5-5-13-6-23-14-30-24l1-79V692c11-92 22-166 33-223 15-73 33-137 52-192 15-45 31-80 47-106 15-28 30-50 45-67 15-19 34-35 59-48V40c-20 4-36 5-48 4-11 0-23-5-35-14-28 41-54 89-78 146-23 58-43 128-59 209-9 40-17 93-24 158-13-151-43-260-90-329C559 111 472 39 370 0l-3 14c117 70 199 154 245 253 45 99 67 254 68 467l-1 174c-4 8-13 17-26 27l10 17Z"/></symbol><symbol id="𭎃_K" viewBox="0 0 1000 1000" data-size="21"><path transform="matrix(1 0 0 -1 50 937)" d="m813 686 40-42c11-13 16-21 13-26-4-4-17-7-41-7l-88-130-15 6 68 149H604c-2-29-5-54-7-76-2-27-5-53-9-77l44-10c19-6 29-11 29-16-1-5-10-9-29-15V74c0-8 0-14 2-17 3-5 10-8 21-8 14-1 41-1 81 0 43 0 69 1 77 3 13 4 23 21 32 51 4 19 9 54 17 105l12-2c-2-25-3-49-4-74-1-18-1-42-1-73 21-12 31-22 30-30s-15-13-41-15c-18-2-56-3-113-3-53 0-90 0-111 1-17 2-29 7-35 16-7 9-9 23-8 44v356l-4 53c-16-90-43-171-83-244C458 153 392 74 306 0l-8 13c96 91 165 190 205 297 34 87 54 196 60 326H420c0-54-4-96-11-126-6-24-15-44-28-59-14-12-26-16-33-11-8 6-10 22-8 49 2 6 4 12 7 19 2 3 5 8 10 13 12 19 21 38 28 57 9 34 15 81 17 142h13c1-10 2-20 3-32 1-6 1-14 2-25l1-12h142c2 32 2 68 2 109v113l43-7c22-3 33-8 33-15 0-6-10-13-31-20l-2-61-3-119h172l36 35M133 819l61-15c18-4 26-9 24-15-3-4-16-9-39-13V568h51l36 36 47-32c9-6 12-11 8-14-2-4-9-5-19-5H178V240l139 47 5-10L52 157c0-25-3-40-8-44-5-3-12 5-22 26L0 184l134 45v324H73l-58-5-14 20h133v210l-1 41Z"/></symbol><symbol id="𭎄_K" viewBox="0 0 1000 1000" data-size="21"><path transform="matrix(1 0 0 -1 56 945)" d="M874 814c10-13 15-21 15-25 0-6-9-9-27-11 0-310-5-501-14-573-14-105-41-165-81-179L721 9c-11-3-18-5-23-5s-8 3-8 8v9c1 2 1 4 1 5 0 9-3 15-11 18l-84 26 5 10 92-17h15c55 0 89 68 103 205 8 84 11 262 7 536H705c0-300-20-498-60-592S539 47 447 0l-8 9c82 51 140 121 173 210 34 90 50 285 50 585H559v20h252l12 23c7 10 12 15 13 15 3 0 8-6 17-18l21-30M594 579l-5-15-174-25V302c0-18 7-31 20-37s25-9 36-9h24c11 0 20 1 28 4 12 5 21 15 27 30l34 111 14-3-16-105c-2-12 3-22 15-27 12-6 18-13 18-24-2-15-39-23-113-23h-50c-53 0-80 21-80 64v250l-99-13-4 22 103 14v284l-3 50 47-14c19-6 28-12 28-18s-9-12-29-18V563l68 9 20 42c4 9 9 13 14 13 3 0 10-4 22-12l55-36m-260 50-6-19H187V296l139 46 4-14L56 211c1-25-3-38-12-38-5 0-12 8-21 25L0 241l143 44v325H9v21h134v213l-2 46 47-11c17-4 26-9 26-15 0-5-9-12-27-20V631h56l25 31c9 13 15 20 15 20 3 0 9-6 20-17l31-36Z"/></symbol><symbol id="𭎅_J" viewBox="0 0 1000 1000" data-size="21"><path transform="matrix(1 0 0 -1 50 946)" d="M544 614H423V501c0-124-16-229-49-314-28-73-70-136-125-187l-21 16c52 63 89 136 111 218 19 72 28 161 28 267v358c36-16 60-28 72-35h338l48 63c26-24 48-47 65-69l-10-19H423V639h365l48 63c26-24 48-47 65-69l-10-19H600V503l-1-51h157l35 44c41-30 61-49 61-59 0-4-3-7-8-11l-24-16c-2-176-14-287-36-332-20-39-55-59-103-59 0 19-10 32-30 40-13 7-41 14-84 22v27c32-6 68-10 107-10 32 0 53 12 62 35 17 43 26 141 27 294H598C586 234 520 94 402 7l-18 20c107 99 160 258 160 477v110m-407 20v257c68-2 101-9 101-23 0-8-14-18-44-28V634h42l44 65c22-23 41-46 57-71l-11-19H194V278c44 17 84 33 121 49l8-25C205 236 118 191 62 167c-2-26-8-39-17-39-16 0-31 31-45 91 45 11 91 24 137 39v351H7l-7 25h137Z"/></symbol><symbol id="𭎆_S" viewBox="0 0 1000 1000" data-size="21"><path transform="matrix(1 0 0 -1 49 932)" d="M0 0v21h420v194H68v20h352v152l62-11 16-11-16-9V235h237l52 53 63-53v-20H482V21h305l53 52 62-52V0H0m481 479-1 17v1l25 1 96 187 27 57 13 29 3 6 53-34 10-16-20-1-40-68-57-82-41-55-20-22h14l33 1 34 2 36 1 74 3 78 2h12l-18 29-25 40-47 64 6 6 23-15 22-17 39-34 34-36 14-19 28-39 11-19 2-24-16-18-24-1-18 15-8 20-8 19-8 13-55-13-75-14-72-12-67-10-32-5h-10l-10-18-12 15v9l-1 9v6l-1 1v12l-1 2v5m-466 0-2 17v1l21 1 67 103 34 57 29 57 25 56 2 5 55-32 10-16-20-2-41-66-40-56-46-53-24-27-27-26 20 1 34 1 36 2 37 1 77 3 82 2h13l-16 29-27 40-46 64 6 6 23-15 22-17 38-34 35-36 15-19 28-39 11-19 1-24-15-18-25-1-17 15-8 20-9 19-7 14-60-14-79-14-75-12-69-10-33-5H39l-10-18-11 15-1 3v6l-1 9v12l-1 3v11m465 18 4-62-14 62h10m-467 0 5-62-16 62h11m827 366 62-52v-22H0v22h787l53 52Z"/></symbol><symbol id="𭎇_K" viewBox="0 0 1000 1000" data-size="21"><path transform="matrix(1 0 0 -1 45 921)" d="M502 827c19-5 27-10 25-14s-14-9-37-14V618c-2-22-10-39-25-51-13-10-36-18-69-25l-10 29c-2 4-12 8-30 14s-45 13-80 20l3 14 13-1c29-4 49-8 62-10 18-2 35-3 51-4 15 0 25 2 32 5 5 4 8 8 8 14v167l-4 53 61-16m-38-368c-78-58-156-101-235-129-78-28-150-46-215-54l-5 15c109 25 212 65 310 120 120 67 223 151 309 252l46-35c17-14 25-23 21-27-3-5-17-4-41 2L464 459M330 776c16-12 23-20 22-25-2-7-17-9-45-7-43-49-89-93-138-132-47-37-101-72-161-103l-8 12c59 37 109 77 152 119 47 45 92 100 138 166l40-30m265 28c88-35 159-67 214-98 60-35 93-65 97-89 5-38 4-63-4-74-8-12-20-8-35 12-27 39-57 74-91 105-47 41-109 83-187 127l6 17m140-537 48-35c9-6 12-12 11-16-1-5-7-7-16-7H484V20h320l39 41 46-37c8-7 12-12 10-16-1-3-7-5-19-5H90L44 0 32 21h405v188H174l-54-3-8 23 55-4h270v182l45-9c19-4 29-9 29-15s-9-12-27-19V225h212l39 42m-48 128-9-12c51-39 93-75 124-110 19-20 38-43 56-69 15-21 27-29 37-21 7 6 10 21 10 46 0 23-20 49-61 78-30 20-82 49-157 88Z"/></symbol><symbol id="𭎈_J" viewBox="0 0 1000 1000" data-size="21"><path transform="matrix(1 0 0 -1 74 935)" d="M433 541v97H273l-9 25h169v106c64-1 97-9 97-23 0-8-14-17-41-28v-55h91l43 55c21-20 40-40 56-61l-11-19H489v-97h138l43 54c21-20 40-40 56-61l-10-18H234l-9 25h208m5-281v99c19-1 36-3 51-6 30 18 58 38 83 61H276l-10 25h318l33 35c38-35 57-57 57-67 0-5-5-9-15-11l-36-6c-34-18-66-34-96-46 8-4 12-8 12-12 0-8-15-15-45-22v-50h135l46 59c21-21 39-43 54-65l-10-19H497V93c0-50-32-74-96-73 0 20-10 34-29 41-14 5-39 11-75 18v24c50-6 87-9 111-9 22 0 33 10 33 30v111H222l-10 25h226M192 798V505c0-115-11-209-34-283C132 135 85 62 19 0L0 19c87 111 131 273 131 485v353c27-10 51-22 73-34h544l39 47c43-33 64-55 64-65 0-5-3-9-8-12l-26-17V84c0-54-36-80-107-79-1 20-12 35-32 44-17 7-47 14-91 21v28c52-6 98-9 137-9 22 0 34 11 34 34v675H192Z"/></symbol><symbol id="𭎉_G" viewBox="0 0 1000 1000" data-size="21"><path transform="matrix(1 0 0 -1 41 976)" d="M490 905c-15-3-24-10-26-20-9-51-22-103-37-154h123l29 36 54-47c6-5 5-10-3-13-8-1-13-3-16-7-5-7-9-20-10-40C573 381 459 161 262 0l-9 12c185 181 288 414 309 699H421c-35-108-78-200-129-277l-13 10c59 121 102 249 128 383 9 53 12 82 10 87-2 6-7 14-14 23l8 8 72-28c6-1 9-3 10-5s0-4-3-7m178 46 86-35c9-3 11-7 6-11-13-5-23-12-29-20V631c56-29 95-54 118-75 33-26 55-57 65-92 9-40 2-61-22-64-13 1-21 16-25 45s-18 59-41 88c-21 27-53 53-95 79V155l2-95c1-24-16-39-52-45 3 25 6 87 7 185v694c1 11-9 26-29 45l9 12m-534-2 78-34c9-3 11-7 6-10-11-3-19-9-25-18V645h47l29 42 62-48c7-5 10-9 9-11-2-3-8-4-19-3H193V293l133 54 5-15-219-114c-38-22-59-40-62-55L0 211l151 63h1v351H86c-16 1-31-3-44-12L9 645h143v252c1 10-8 24-26 41l8 11m233-415 4 12c25-13 46-27 61-41 16-13 28-29 35-47 7-17 9-33 6-48-4-14-11-21-21-21-12 0-18 8-18 24 0 14-5 33-15 56-10 22-27 44-52 65Z"/></symbol><symbol id="𭎊_S" viewBox="0 0 1000 1000" data-size="21"><path transform="matrix(1 0 0 -1 49 928)" d="M0 0v21h420v152H68v21h352v120l62-9 16-11-16-10v-90h237l52 53 63-53v-21H482V21h305l53 52 62-52V0H0m425 845h-1l5 10 52-35 9-16-22-1-13-15-20-20-11-10-24-20-9-6h334l31 27 57-48-26-21V348l-62-32v64H178v-64l-63-31v479l63-32h196l4 6 6 14 24 52 10 23 7 18m300-295H178V400h547v150m0 161H178V570h547v141Z"/></symbol><symbol id="𭎋_S" viewBox="0 0 1000 1000" data-size="21"><path transform="matrix(1 0 0 -1 36 951)" d="m858 556 63-52v-22H753V31L690 0v482H496v22h310l52 52M417 792l62-30 168 63 64 28 53 26 22 13 7-15 36-33 1-18-19 8-22-10-60-21-67-20-38-11-40-8-43-9-44-8-17-2V498l-3-65-6-63-8-58-11-55-14-50-16-46-20-42-22-38-26-31-29-28-7 7 20 32 17 35 16 37 13 41 12 44 8 49 7 51 4 56 2 61v357M221 267l157 52 5-8-82-46-148-74-95-41-8-3-6-19-15 12-7 21-1 2v1l-8 27-2 5-1 3 92 28 56 18v369H15v21h143v267l63-9 16-11-16-10V635h39l52 53 63-53v-21H221V267M10 199l19-59-29 56 10 3m854 541 64-52v-22H489v22h323l52 52Z"/></symbol><symbol id="𭎌_S" viewBox="0 0 1000 1000" data-size="21"><path transform="matrix(1 0 0 -1 36 965)" d="m520 930 60-22 14-13-19-7-18-72-15-45-9-26h280l52 53 63-53v-21H660V520h121l53 52 62-52v-22H660V294h132l52 52 63-52v-22H660V31L598 0v724h-72l-17-45-19-46-45-90-25-45-29-44-8 5 54 143 30 91 13 46 12 45 10 46 9 45 7 39 2 16M29 140l-8 23v1l-4 13-4 14-3 8 62 18 95 28v369H15v21h152v267l62-9 17-11-17-10V635h48l53 53 63-53v-21H229V266l167 53 3-8-86-46-117-57-105-45-41-16-6-20-15 13m-19 59 19-59-29 56 10 3Z"/></symbol><symbol id="𭎍_G" viewBox="0 0 1000 1000" data-size="21"><path transform="matrix(1 0 0 -1 44 957)" d="M495 723c-17 0-29-4-35-13l-29 33h153c3 19 5 39 7 61 3 37 5 61 4 72 1 11-6 20-19 28l6 10 85-25c4-7 3-11-2-12-9-4-17-9-23-15-1-43-5-83-11-119h147l30 42 50-40c5-4 8-8 8-11 0-4-3-7-8-9l-20-12v-12c-1-63-4-112-7-147-3-42-10-75-19-98-7-18-20-34-39-47-19-11-45-19-77-24 0 14-5 25-14 33-10 6-32 14-66 25l2 17c22-7 51-12 86-17 27-2 47 5 60 21 11 10 18 40 23 89s7 105 7 170H628c-25-170-116-292-274-367l-6 12c135 88 212 206 232 355h-85m-90-343 86-33c9-3 11-7 6-11-11-3-21-9-28-18v-84h245l36 48 74-55c7-5 9-8 7-11-2-2-8-3-19-2H469V32h328l36 46 73-53c6-5 8-9 6-11s-8-3-19-2H77C61 13 46 9 31 0L0 32h424v182H154c-18 1-33-3-45-12l-32 32h347v94c1 11-8 24-27 41l8 11M282 566l5 10c36-13 64-28 85-47 19-20 31-40 37-61 5-21 2-34-11-39-13-6-22 1-29 22-1 2-1 5-2 8s-2 6-3 7c-18-3-44-6-77-10-71-9-114-15-130-16-47-7-77-17-92-32l-25 71c25-3 45 2 60 17 57 53 105 103 145 150-15-1-36-4-65-7-33-3-53-5-60-6-31-5-55-14-73-27l-22 61c25-1 45 6 60 20 39 45 82 105 129 180 7 9 7 22 0 39l8 7 65-43c5-5 3-9-5-11-5 1-13-2-24-9-2-1-4-2-5-3-59-77-109-138-152-184 3 0 8 0 16 1 57 3 106 5 148 6 18 22 36 45 54 69 9 11 10 23 3 36l7 7 70-42c4-5 2-9-5-12-8 2-19-2-34-11-75-89-156-171-244-247 45 5 124 11 236 20-16 30-39 55-70 76Z"/></symbol><symbol id="𭎎_J" viewBox="0 0 1000 1000" data-size="21"><path transform="matrix(1 0 0 -1 50 944)" d="M419 591v134H120l-9 25h308v138c67-2 100-10 100-24 0-8-14-17-41-27v-87h193l50 64c26-23 49-47 69-71l-11-18H478V591h286l52 67c29-26 53-51 72-73l-11-19H571c48-45 102-81 160-108 44-19 101-38 169-56-18-14-33-32-45-54-76 29-137 60-182 90-49 34-94 76-136 128H371C293 464 175 388 16 337L0 359c126 51 226 120 301 207H28l-11 25h402m-1-393H73l-10 25h355v143H188l-9 25h412l49 54c29-27 49-47 62-61l-11-18H479V223h252l55 69c27-25 52-50 74-76l-10-18H479V0h-61v198Z"/></symbol><symbol id="𭎏_S" viewBox="0 0 1000 1000" data-size="21"><path transform="matrix(1 0 0 -1 30 971)" d="M452 32 389 0v920l63-31h355l51 52 64-52v-22H681V630h132l31 26 57-48-26-20V283l-62-32v63H681V53h142l53 52 63-52V32H452m165 282H452V53h165v261M52 105l-6-20-15 12-8 24-10 29-1 3-1 3 57 18 85 29v380H17v21h136v274l64-11 15-10-15-9V604h31l53 52 62-52v-21H217V227l106 38 43 14 4-8-78-47-107-57-97-46-36-16m-41 51 20-59-31 56 11 3m802 452H452V335h361v273M617 867H452V630h165v237Z"/></symbol><symbol id="𭎐_S" viewBox="0 0 1000 1000" data-size="21"><path transform="matrix(1 0 0 -1 36 928)" d="M12 0v21h420v152H80v21h352v120l62-9 16-11-16-10v-90h236l53 53 63-53v-21H494V21h305l53 52 62-52V0H12m1 389-3 9 146 31v232H13v21h143v174l63-10 15-10-15-10V682h37l53 52 62-52v-21H219V441l69 14 87 16 3-10-82-32-148-52-102-33-7-19-14 13-3 9-1 8v1l-3 12v1l-3 8v1l-2 9v2m-3 9 15-60-25 58 10 2m419 458 63-31h304l31 27 58-48-27-21V584l-62-31v62H492V433l1-4 1-4 1-1v-1l1-1 3-1 3-1 5-1 6-1h354l30 132h11l-10-132 18-13 13-18-13-19-19-13H513l-14 1-13 2-12 4-12 7-11 9-9 11-5 11-5 13-2 13-1 13v417m367-52H492V637h304v167Z"/></symbol><symbol id="𭎑_S" viewBox="0 0 1000 1000" data-size="21"><path transform="matrix(1 0 0 -1 41 950)" d="m688 708-16-10-4-94-3-30 13-97 14-78 7-24 86 127 38 62 2 4 50-39 8-17-21 2-35-44-35-38-58-54-30-24 7-24 21-62 26-54 29-47 32-40 36-32 40-26 23-13-59-47-46 35-40 42-34 49-29 54-23 62-19 68-13 74-6 52-6-43-21-87-26-77-33-68-38-59-43-48-49-37-54-26-4 9 46 33 41 41 35 49 31 56 26 65 21 75 17 83 11 93 5 102 1 113v12l63-12 16-11M327 851l63-33h404l52 53 63-53v-20H390V494l-2-70-4-66-6-60-8-58-9-51-11-47-14-42-15-38-17-33-20-26-9 5 11 30 9 33 8 37 8 41 5 47 5 50 4 56 2 59 1 65-1 68v357M24 162l-1 4-1 1-1 3-7 18v1l-2 4-1 3-1 1 97 37 15 6v372H18v21h104v267l63-9 16-11-16-10V633h16l43 47 53-47v-21H185V269l114 47 4-7-61-46-86-56-52-31-47-26-2-1-5-21-16 11-10 23m-14 35 24-58-34 54 10 4m404 143 42-47-23-8-22 11-7 22 10 22m42-47-31 35-1 2-10 10 12 10 11 12 10 15 10 19 9 22 8 25 6 30 6 31 5 34 5 38 10 1 6-39 3-36v-34l-2-31-3-30-7-27-8-25-11-23-12-20-16-19Z"/></symbol><symbol id="𭎒_S" viewBox="0 0 1000 1000" data-size="21"><path transform="matrix(1 0 0 -1 35 959)" d="M732 383H381v21h351v131l64-10 16-10-16-10V404h28l43 47 53-47v-21H796V84l-1-13-2-13-5-13-6-12-9-11-10-8-12-7-13-4-12-2-14-1v31L606 47v16h112l5 1 3 1 2 1 1 1v1l1 1 1 4 1 5v305M27 142l-1 2-4 12-1 2v1l-3 13v1l-5 14-2 7 93 28 60 18v369H15v21h149v267l63-9 15-11-15-10V630h63l43 47 52-47v-21H227V261l162 53 4-8-124-67-112-52-97-41-10-3-6-20-15 12-2 7m-16 52 18-59-29 56 11 3m539-38-18 34-10 16-22 31-26 30-30 29-17 13 5 8 41-15 19-11 19-11 18-12 34-29 14-16 15-18 12-18 2-24-14-19-24-2-18 14M376 557v20h235v163H405v21h206v158l64-11 15-11-15-8V761h91l51 52 64-52v-21H675V577h159l43 48 53-48v-20H376Z"/></symbol><symbol id="𭎓_K" viewBox="0 0 1000 1000" data-size="21"><path transform="matrix(1 0 0 -1 53 936)" d="M762 499v145H451V499h311m57 313c10-13 15-21 15-25s-10-7-29-9V463c-1-3-8-7-22-10-10-2-15-4-17-4-3 0-5 1-5 3v10c0 7 1 13 1 17H628V329h170l19 30c7 11 12 16 15 16s11-6 23-17l39-36-8-12H628V66c0-35 0-51 1-49-1-6-9-10-22-12-6-3-11-5-15-5-5 0-8 2-9 7-1 4-1 11 0 21 1 18 1 31 1 38v244H342v19h242v150H451c0-20 0-29 1-28-1-3-9-6-22-9-9-2-14-4-16-4-4 0-6 2-7 5v19c1 14 1 25 1 34v303l-3 48 50-25h301l16 19c8 8 12 13 12 13 1 0 6-5 14-14l21-28m-57-149v139H451V663h311M359 549l-5-16H189V217l159 59 3-14L57 120c0-21-4-31-11-31-8 0-16 8-25 23L0 149l146 53v331H11v21h135l-2 318 46-14c21-6 31-12 31-18 0-7-11-15-32-24V554h86l24 31c7 10 11 15 12 15 2 0 7-6 15-16l33-35Z"/></symbol><symbol id="𭎔_S" viewBox="0 0 1000 1000" data-size="21"><path transform="matrix(1 0 0 -1 35 946)" d="m290 35-10 31v2l-1 2v3l60 14v577l57-11 14-10-14-9V104l41 12 18 6v771l59-11 14-10-14-10V538h38l32 36 42-36v-21H514V141l127 42 4-9-120-66-107-49-64-26-38-13-6-20-15 13-5 20v2m-11 38 16-60-26 57 10 3m372 818 64-11 15-10-15-10V512l34 39 35 43 54 74 17 26 2 4 49-40 7-17-19 2-30-36-43-45-44-40-22-17-23-15-17-10V119l1-7v-5l1-3h1l2-3 5-1 4-1 6-1h132l31 131h10L898 98l19-13 13-19-13-18-19-13H735l-12 1-13 2-13 4-12 7-10 9-10 10-6 12-4 13-2 12-2 14v772M33 118l-4 10h-1l-5 13v1l-1 3-3 9-6 14v2l-1 3-1 1-1 3 50 16 54 22 17 7v370H17v20h114v268l62-10 16-11-16-9V612h27l43 47 52-47v-20H193V246l85 35 38 15 5-8-65-46-93-55-81-45-25-13-4-1-4-21-16 11m-23 59 22-58-32 54 10 4Z"/></symbol><symbol id="𭎕_J" viewBox="0 0 1000 1000" data-size="21"><path transform="matrix(1 0 0 -1 51 960)" d="M275 266c-5-2-10-3-15-3-14 0-23 9-27 26-7 32-25 62-54 89-44-24-94-46-149-66l-15 20c124 61 217 134 280 218 49-27 73-45 73-56s-16-17-47-17c-34-31-72-59-114-84 57-27 86-58 86-95 0-8-2-15-6-21 50 44 93 91 129 140v141c65-1 98-9 98-25 0-8-13-17-39-26v-50c30-58 68-111 113-160 60 50 113 105 158 165 48-29 72-49 72-62 0-8-8-12-24-12-9 0-16 1-21 1-38-33-93-70-166-111 82-79 179-136 292-171-21-16-36-37-47-61-115 49-208 116-281 202-37 45-69 97-96 155V118c49 9 101 20 156 34l4-26C528 83 435 52 356 34c-4-23-10-34-18-34-16 0-31 30-46 90 43 6 85 12 124 18v209C309 212 176 132 15 78L0 98c105 45 196 101 275 168m141 497v157c65-1 98-9 98-25 0-8-13-17-39-26V763h214l51 63c25-22 47-45 67-69l-11-19H475V605h288l56 65c28-24 53-47 73-69l-10-20H19L8 605h408v133H105l-13 25h324Z"/></symbol><symbol id="𭎖_S" viewBox="0 0 1000 1000" data-size="21"><path transform="matrix(1 0 0 -1 31 950)" d="m427 495-2-72-4-68-6-62-9-58-9-52-12-47-14-43-17-37-18-31-22-25-5 5 12 28 12 31 11 38 9 42 7 45 6 51 5 57 3 60 1 68v70h52M876 22l-21 22-17 31-16 44-13 61-12 80-9 103-7 130v44l-24-16V202h-58v336h-64V41l-53-26v523h-66V149l-48-23v457l48-23h66v122H454v20h200l52 53 64-53v-20H635V560h64l29 26 53-45-2 111 2 179H427V495h-52v384l52-26h355l31 26 58-48-26-16-2-164 2-157 6-127 8-100 11-77 13-53 5-13 18 83h11L907 80l5-5h-2l22-12 6-23-13-20-23-7-26 9M757 202l-1-13-2-11-3-12-5-12-8-9-9-9-10-7-13-4-12-3-11-1v29l-42 15v14h42l4 1h3l3 2 3 2 1 3 1 2 1 6v7h58M13 190l-3 5v1l116 38 20 7v370H16v21h130v267l63-9 16-11-16-10V632h23l53 53 64-53v-21H209V265l142 51 4-8-75-46-103-57-119-57-7-2-4-20-16 11-2 7-1 1-1 3v1l-1 1-4 11v1l-1 3v1l-2 8v1l-2 3v1l-3 7v1l-1 2v1m-3 6 21-59-31 56 10 3Z"/></symbol><symbol id="𭎗_S" viewBox="0 0 1000 1000" data-size="21"><path transform="matrix(1 0 0 -1 49 950)" d="M0 0v21h420v210H68v21h352v163l62-11 16-10-16-9V252h237l52 53 63-53v-21H482V21h305l53 52 62-52V0H0m429 899 52-35 9-16-24-1-18-16-29-24-11-7-5-3h300l31 25 58-47-25-20V398l-64-31v63H199v-63l-63-31v492l63-31h186l3 4 25 55 8 20 3 9 1 5h-1l5 9m274-349H199v-99h504v99m0 112H199v-91h504v91m0 113H199v-91h504v91Z"/></symbol><symbol id="𭎘_S" viewBox="0 0 1000 1000" data-size="21"><path transform="matrix(1 0 0 -1 32 959)" d="M475 68V31L412 0v367l63-10 16-10-16-10V89h136v362H349v22h262v252H495l-22-43-21-35-22-32-25-31-26-30-8 6 51 105 28 69 23 69 8 36 8 35 6 35 2 10 60-22 13-13-18-7-4-17-12-38-14-36-14-35-3-6h254l52 53 63-53v-20H675V473h146l53 52 63-52v-22H675V89h131v284l63-11 16-10-16-10V47l-63-31v52H475M31 135l-9 23-9 30-1 3-1 3 87 28 52 17v370H16v21h134v267l64-9 15-11-15-10V630h28l53 53 62-53v-21H214V263l146 51 4-8-76-46-106-57-95-45-28-12-7-2-6-21-15 12m-20 59 20-59-31 56 11 3Z"/></symbol><symbol id="𭎙_J" viewBox="0 0 1000 1000" data-size="21"><path transform="matrix(1 0 0 -1 47 931)" d="M226 332v-47h-57v280c30-11 53-20 69-28h421l38 44c38-29 57-47 57-56 0-4-3-9-9-14l-20-16V292h-57v40H476V200h204l49 61c27-23 49-45 67-67l-11-19H476V25h290l54 68c29-26 54-51 73-74L883 0H20l-9 25h406v150H115l-11 25h313v132H226m0 25h442v155H226V357m279 298c37 76 64 145 80 206 63-21 94-38 94-53 0-9-15-14-45-15-30-50-62-96-97-138h246l53 70c26-24 49-49 70-75l-11-20H10L0 655h505m-174 20c-15 0-26 13-32 38-12 51-38 91-78 123l14 19c47-17 82-40 107-68 19-23 29-47 29-71 0-27-13-41-40-41Z"/></symbol><symbol id="𭎚_S" viewBox="0 0 1000 1000" data-size="21"><path transform="matrix(1 0 0 -1 25 949)" d="m843 882 63-53v-20H769V504h66l53 53 62-53v-21H769V31L705 0v483H531v21h174v305H564v20h227l52 53M445 14l-22-8-22 11-7 22 2 37v66l-4 28-5 24-3 11-6 1 3 9-10 20-11 18-11 16-16 13 4 9 22-7 22-12 15-13 92 245 56 133 9-3-82-301-20-75-6-29-4-21-2-15-4 1 4-13 8-32 6-35 3-38V35l-11-21M32 136l-4 10-6 16-2 8-8 18-1 2-1 3v1l74 27 43 17v371H17v21h110v267l63-9 16-11-16-10V630h24l43 47 53-47v-21H190V265l83 34 38 14 4-7-64-46-90-56-104-58h-4l-4-21-17 11m-22 58 22-58-32 54 10 4m388 349-2 10-4 10-6 10-7 11-7 10-19 20-12 12-14 8 4 10 16-6 16-5 15-6 15-7 13-8 13-8 11-11 11-11 9-12 9-13v-24l-17-17h-24l-18 17-2 10m51 251-5 11-5 9-6 11-7 11-19 20-10 11-12 9 4 8 14-6 16-4 14-6 26-14 13-9 11-10 11-12 10-10 9-13v-25l-16-17-24-1-18 16-6 21Z"/></symbol><symbol id="𭎛_J" viewBox="0 0 1000 1000" data-size="21"><path transform="matrix(1 0 0 -1 59 939)" d="M200 269c48 19 92 38 131 56l8-25C224 232 132 183 63 152c-3-27-9-41-18-41-16 0-31 31-45 91 49 13 97 28 143 45v350H13l-7 25h137v257c67-2 101-10 101-23 0-9-15-18-44-28V622h42l44 65c23-23 42-47 57-71l-11-19H200V269m400 509c-2-2-9-7-21-16V74c0-50-30-74-90-73-1 19-10 32-25 39-12 5-36 11-73 18v28c43-5 76-8 101-8 21 0 31 10 31 29v671H319l-9 25h204l35 45c23-21 39-36 48-45h191l36 46c38-31 58-51 58-60 0-4-2-7-6-10l-22-17V79c0-51-30-76-91-76-1 18-10 32-27 40-14 7-38 13-73 18v27c34-5 68-8 102-8 22 0 33 10 33 30v668H600M314 448l-19 15c66 74 115 159 147 256 49-18 73-33 73-45 0-7-12-11-37-12-39-77-93-148-164-214m301-6-20 15c59 85 100 174 123 267 51-19 76-35 76-47 0-7-11-11-32-12-43-92-92-167-147-223M285 144l-20 16c77 87 135 186 175 297 51-19 76-35 76-49 0-8-14-13-42-14-52-102-115-185-189-250m331 22-20 15c53 83 94 176 122 279 51-20 77-37 77-50 0-8-12-12-35-12-37-90-85-167-144-232Z"/></symbol><symbol id="𭎜_J" viewBox="0 0 1000 1000" data-size="21"><path transform="matrix(1 0 0 -1 47 949)" d="M486 347C433 235 350 136 238 51l-17 19c93 83 162 175 208 277H295l-11 25h156c16 38 31 81 44 129H298l-10 25h202c9 34 16 68 21 104H359l-11 25h167c5 35 9 69 12 101H320l-10 25h219c4 47 6 86 8 119 66-3 99-11 99-24 0-8-13-17-39-26-3-30-5-53-7-69h170l46 61c27-23 49-45 67-67l-11-19H587c-5-43-10-77-14-101h152l44 58c26-22 48-44 65-65l-10-18H569c-7-39-14-74-22-104h248l46 60c27-23 49-46 66-67l-10-18H540c-10-39-25-83-43-129h199v118c61-8 91-19 91-33 0-7-11-14-34-20v-65h39l44 62c23-22 42-44 59-67l-10-20H753V80c0-54-34-80-101-79 0 19-10 33-30 42-18 7-51 15-98 23v25c46-4 92-7 137-7 23 0 35 12 35 34v229H486m-356-95v352H8l-8 25h130v258c66-4 99-13 99-27 0-8-14-17-43-26V629h42l40 62c24-24 43-46 57-67l-11-20H186V273c57 24 102 43 134 59l7-24c-82-52-168-99-259-142-2-26-7-40-16-40-14 0-30 29-50 85 51 15 93 28 128 41m458-95c-16 0-27 10-32 31-8 37-29 71-62 102l13 15c77-33 115-70 115-112 0-24-11-36-34-36Z"/></symbol><symbol id="𭎝_G" viewBox="0 0 1000 1000" data-size="21"><path transform="matrix(1 0 0 -1 28 971)" d="m425 387 33-33h304l34 40 51-48c5-4 6-7 5-10s-4-6-11-7l-17-8V165l4-109c4-26-12-40-49-43v66H473V45c1-24-16-39-52-45 4 34 6 86 7 156v178c-3 16-9 30-18 41l15 12m48-53V99h306v235H473m-163 25-9 15c123 75 204 165 243 270H432c-17 1-32-4-44-13l-33 33h196c19 55 29 120 32 195H460c-17 1-32-4-44-13l-33 33h381l26 42 71-48c7-5 9-9 8-11-2-3-8-4-19-3H632c-3-73-14-138-33-195h225l30 43 71-49c7-5 9-9 8-11-2-3-8-4-19-3H674c11-21 21-39 31-54 37-53 75-91 114-116 33-20 74-34 125-42v-15c-21 1-41-1-60-6h-2c-9-1-17-9-23-23-73 44-130 100-170 168-17 25-30 54-41 88h-56c-44-121-138-216-282-285M150 941l86-33c8-3 10-7 6-11-11-3-21-9-29-18V623h47l32 43 63-47c7-5 10-9 8-12s-8-4-19-4H213V278l160 56 6-17-180-80c-69-31-109-50-121-59-11-9-21-21-29-36L0 203l168 59v341H81c-18 1-33-4-44-13L3 623h165v266c1 11-8 25-26 41l8 11Z"/></symbol><symbol id="𭎞_G" viewBox="0 0 1000 1000" data-size="21"><path transform="matrix(1 0 0 -1 30 949)" d="m408 696 38-45h317l34 40 51-48c4-4 6-8 5-11s-5-5-11-6l-18-9V489l4-98c4-26-12-40-49-43v39H456v-17c1-24-16-39-52-45 3 26 6 78 7 156v162c-3 15-9 29-17 41l14 12m48-289h323v224H456V407m278-94 80-45c11-7 14-12 7-14-15 0-29-3-40-9-26-58-60-129-103-213h157l31 39 67-49c5-3 7-6 6-8-1-1-5-2-12-2H373c-16 1-31-3-44-12l-33 32h352l45 102c35 86 50 133 47 142s-7 19-11 28l5 9M342 822h467l31 38 67-49c5-3 7-5 6-7-1-1-5-2-12-2H419c-17 1-32-4-44-13l-33 33m80-544 10 12c74-52 116-103 127-152 6-42-5-61-32-57-11 1-17 12-18 32s-7 42-16 66c-9 26-33 59-71 99M150 897l86-33c8-3 10-7 6-11-12-3-22-9-30-18V567h52l32 43 63-47c7-5 10-9 8-12s-8-4-19-4H212V206l161 56 6-17-180-80c-69-31-109-50-121-59-11-9-21-21-29-36L0 131l169 59v357H81c-18 1-33-4-44-13L3 567h166v278c0 11-9 25-27 41l8 11Z"/></symbol><symbol id="𭎟_S" viewBox="0 0 1000 1000" data-size="21"><path transform="matrix(1 0 0 -1 42 944)" d="m408 381 64-31h281l31 26 58-47-27-21V47l-62-31v52H472V31L408 0v381m345-52H472V89h281v240M27 137l-5 12-1 1-10 31-1 4 53 16 78 28v371H16v20h125v268l63-10 16-11-16-10V620h19l52 53 63-53v-20H204V253l137 52 4-9-72-46-131-72-85-41-6-3-5-20-15 12-4 11m-17 48 21-59-31 55 10 4m820 698 64-53v-20H713l-36-54-31-41V415l-63-31v255l-56-61-41-41-43-39-45-38-46-35-49-34-6 7 42 41 80 83 38 42 73 87 34 45 63 93 13 21H331v20h446l53 53m18-438-11 21-14 20-33 41-41 41-75 67 6 8 32-14 30-16 29-17 26-18 47-38 19-20 19-21 16-21 16-23 1-24-15-19-24-2-19 16-9 19Z"/></symbol><symbol id="𭎠_S" viewBox="0 0 1000 1000" data-size="21"><path transform="matrix(1 0 0 -1 35 924)" d="M303 0v21h280v208H350v21h233v160l63-10 16-10-16-10V250h117l52 53 64-53v-21H646V21h165l51 52 64-52V0H303M34 81l-11 23-4 14-6 15-2 3-1 4 47 16 51 21 15 6v372H17v20h106v268l64-10 15-11-15-9V575h18l43 47 53-47v-20H187V210l79 34 36 15 5-8-63-46-114-72-73-41-3-1-4-21-16 11m-24 59 24-59-34 55 10 4m632 655 2 2 2-2h161l52 53 63-53v-21H666l22-21 4-20-20 5-13-12-22-19 9-2 16-10-16-9V454l-63-31v246l-23-16-78-42-42-19-44-19-46-15-49-14-4 9 128 69 73 47 65 49 55 52 4 4H307v21h335m238-259-35 28-39 28-43 25-98 52 2 9 30-4 29-5 27-8 25-8 50-18 47-23 42-25 13-21-6-23-21-12-23 5Z"/></symbol><symbol id="𭎡_K" viewBox="0 0 1000 1000" data-size="21"><path transform="matrix(1 0 0 -1 47 945)" d="M840 367c10-10 14-17 14-21 0-7-9-12-28-14V78c0-33 0-50-1-52 0-2-8-5-21-9-9-4-14-5-16-5-4 0-6 18-6 55H465V14c-1-4-8-7-22-10-7-3-13-4-15-4-4 0-6 2-7 5s-1 10 0 21c1 27 1 45 1 55v278l-3 42 41-24h313l15 19c7 8 10 12 11 12s6-4 15-12l26-29m-475-68L57 173c0-21-4-31-12-31-7 0-15 7-24 21L0 199l148 47v321H5v21h143v247l-3 55 48-14c20-6 30-12 30-18 0-5-11-12-32-20V588h73l27 36c8 10 12 15 13 15 2 0 8-6 18-16l37-37-5-19H191V259l171 53 3-13m417-70v126H465V229h317m0-142v121H465V87h317m123 423-7-21H354v20h199v316l-4 48 50-11c15-3 22-8 22-16 0-7-8-14-25-20V691h110l26 27c8 12 12 18 13 18 3 0 10-5 22-16l42-29-7-19H596V509h205l26 34c8 12 13 19 14 19 3 0 11-7 23-19l41-33Z"/></symbol><symbol id="𭎢_J" viewBox="0 0 1000 1000" data-size="21"><path transform="matrix(1 0 0 -1 55 917)" d="M504 444c42 107 80 235 114 384 65-19 98-36 98-50 0-9-14-15-42-18-40-112-85-217-137-314 59 4 146 12 262 26-21 47-50 93-87 138l15 18c63-51 108-100 136-148 17-30 26-55 26-76 0-27-12-40-37-40-13 0-22 12-28 37-4 17-9 31-14 44-91-21-198-40-318-58-3-26-10-38-21-38-13 0-25 30-36 92 24 1 47 2 69 3M97 382v-62H43v502c21-9 43-20 67-32h229l36 43c38-31 57-51 57-59 0-4-4-9-11-14l-21-14V341h-52v41H97m149 221h102v162H246V603m0-25V407h102v171H246m-52-171v171H97V407h97m0 196v162H97V603h97m216-398v109c66-2 98-11 98-24 0-8-13-17-41-27v-58h217l53 60c25-22 47-43 67-66l-11-19H467V25h291l56 64c21-18 45-41 69-70L872 0H10L0 25h410v155H95l-10 25h325Z"/></symbol><symbol id="𭎣_G" viewBox="0 0 1000 1000" data-size="21"><path transform="matrix(1 0 0 -1 26 971)" d="m406 908 38-44h318l34 39 51-48c5-3 6-7 5-10s-4-5-11-6l-17-9V631l4-63c3-26-13-40-49-43v59H646V375h149l34 43 69-49c7-5 10-8 8-10-2-3-8-4-19-4H646V108c71-27 172-37 301-30V61c-43-1-66-12-69-35-89 0-161 8-216 25-55 16-104 48-146 95-35 40-60 80-77 121C404 152 331 63 220 0l-6 11c109 87 174 193 193 320 12 71 17 109 14 115-2 6-7 13-14 22l8 8 84-27c3-2 4-4 3-5 0-1-2-3-5-4-9-2-19-7-29-16-5-46-12-89-21-128 38-71 89-127 154-166v454H454v-11c1-24-17-39-52-45 3 26 6 75 7 148v179c-3 16-9 30-18 41l15 12m48-304h325v240H454V604M147 942l85-33c7-3 9-7 6-11-12-3-22-9-30-18V612h51l32 43 61-47c7-5 10-9 8-12-1-3-7-4-18-4H208V252l150 54 6-17-169-78c-67-31-107-50-118-59s-21-21-29-36L0 177l166 59v356H80c-18 1-33-4-44-13L3 612h163v278c0 11-9 25-27 41l8 11Z"/></symbol><symbol id="𭎤_J" viewBox="0 0 1000 1000" data-size="21"><path transform="matrix(1 0 0 -1 47 925)" d="M460 158v-58h-58v499c14-6 38-18 72-34h248l38 46c41-31 62-51 62-60 0-5-3-9-10-14l-23-17V107h-58v51H460m0 25h271v169H460V183m0 194h271v163H460V377M148 579v258c66-3 99-11 99-24 0-8-14-17-42-27V579h34l43 64c19-19 37-40 54-64 42 73 76 163 103 270 60-15 90-29 90-42 0-9-14-16-43-21-9-27-20-54-31-80h316l51 64c26-24 48-47 67-70l-9-19H443c-37-75-82-139-136-192l-18 16c8 11 19 28 32 49H205V213c50 16 97 32 142 49l6-28c-98-50-195-91-291-125-3-24-8-37-16-37-16 0-31 30-46 88 41 8 90 20 148 36v358H12l-7 25h143M279 0l-10 25h514l55 69c25-24 48-48 68-73L895 0H279Z"/></symbol><symbol id="𭎥_K" viewBox="0 0 1000 1000" data-size="21"><path transform="matrix(1 0 0 -1 37 940)" d="M425 752v-8h163v90l-5 47 60-17c22-7 29-14 22-20-5-5-16-9-33-13v-87h188l33 30 40-33c20-12 28-21 21-26-4-3-16-5-36-6l-9-1c-4-4-11-10-18-19-6-5-14-13-24-24l-42-47-8 6c2 5 7 15 15 30l23 45 15 30H427c-3-23-10-51-23-85-13-35-24-57-35-68-8-7-15-8-21-3-8 7-11 19-12 37 0 9 3 18 8 27 3 6 10 15 19 27 17 22 29 39 34 54 12 24 17 50 16 78h12v-44m165-133c-1 11-1 20-2 27-1 10-2 17-3 20l62-17c19-4 25-10 17-16-4-3-13-7-26-12l-3-1V458h184l35 43 51-40c9-5 11-10 7-15-3-3-9-5-17-5H644c48-87 95-156 138-209 44-52 91-95 143-130l1-8c-11-2-20-7-30-15-9-9-15-18-18-28-42 42-78 85-107 130-46 68-91 150-136 247V33c2-10 1-16-1-19-3-5-10-9-23-12-10-2-17-2-20 1-1 1-2 6-2 16l1 12-1 327c-38-56-83-112-137-167-56-58-112-105-169-143l-4 8c55 46 111 104 168 173 61 75 109 145 143 210v2H412c-15 0-28 0-39-1l-22-2-13 23c8-1 17-1 29-2 10-1 20-1 31-1h192v161M133 756c-1 9-1 16-1 21-1 11-2 19-4 26l67-17c19-5 26-10 22-15s-16-10-37-15V556h46l46 42 54-41c8-6 10-11 7-15s-9-6-20-6H180V214l96 30 78 26 5-10-88-38-94-39-120-51c-4-26-8-41-13-44s-12 6-23 27L0 156l133 41v339H10L0 557l65-1h68v200Z"/></symbol><symbol id="𭎦_K" viewBox="0 0 1000 1000" data-size="21"><path transform="matrix(1 0 0 -1 63 916)" d="M237 768c6-13 7-24 5-34-2-9-6-14-13-14-8 0-17 8-26 23-18 33-47 59-88 79l8 10c63-23 101-44 114-64m-97-156c2-7 3-13 3-19 0-17-6-25-16-25-9 0-18 8-25 24-16 32-43 57-81 77l3 12c67-22 106-45 116-69m177 123L165 461c-11-19-17-35-17-48 0-12 6-26 17-44 12-17 18-33 19-48 2-30-7-45-25-45-12 0-22 10-29 29-1 7-2 14-2 21s1 17 2 28c2 13 3 22 3 28 0 17-7 31-21 43-8 7-30 19-67 35l4 13c25-8 43-12 54-12 16 0 30 9 42 28l163 259 9-13M873 18l-7-18H0v20h415v142H84v20h331v73l-4 53 50-15c16-5 24-11 24-17 0-7-9-14-28-22v-72h234l25 32c10 14 16 21 16 21 2 0 9-5 20-16l39-39-6-18H457V20h318l24 34c9 13 14 19 14 19 2 0 10-6 22-18l38-37m-7 393-3-13c-21 9-37 8-47-2-9-10-14-15-16-15-4 0-15 8-31 25-81 67-138 142-173 226V338c0-24-1-37-1-39-1-2-8-4-21-7-8-3-14-5-16-5-3 0-5 1-5 4-1 3-1 9-1 19 0 14 1 25 1 32v249c-39-61-83-110-132-147-48-35-94-62-136-81l-8 10c52 27 103 69 153 126s85 110 105 158H327v20h226v106l-2 47 47-11c17-4 25-9 25-15 0-7-9-13-27-20V677h143l27 35c7 10 11 15 11 15 2 0 9-6 21-16l37-35-4-19H601c18-44 56-94 111-150 60-50 112-82 154-96Z"/></symbol><symbol id="𭎧_K" viewBox="0 0 1000 1000" data-size="21"><path transform="matrix(1 0 0 -1 52 944)" d="m4 589 11-25 66 5h46V206L0 156l21-36c11-21 20-31 26-28 6 2 10 13 10 33l134 72 117 68-5 12-134-55v347h128c10 0 16 2 17 6 2 3 0 8-6 14l-41 36-38-41h-60v234c20 4 31 9 32 14 2 5-7 9-27 13l-52 10 5-68V584H76l-72 5m875 154c11-12 17-20 17-25s-10-8-30-10c0-268 1-359 1-274 0-112-4-192-11-243-7-61-22-106-43-134-20-25-49-41-86-49l-38-7c-4-1-8-1-11-1-9 0-14 3-14 9 0 1 0 3 1 6v6c0 10-5 16-17 19L538 64l2 12 148-21c4-1 9-1 13-1 64 0 102 61 114 182 8 81 10 246 8 495H450c-23-53-53-104-89-152-35-48-70-86-104-112l-8 9c46 43 90 108 132 194 41 83 65 155 73 218l45-17c21-7 31-13 31-18 0-7-13-12-39-15-6-22-17-51-31-86h349l15 23c7 10 11 15 12 15 3 0 9-5 18-16l25-31M776 584c12-14 18-23 18-28 0-6-10-9-29-10V220c-2-4-9-7-24-10-8-3-13-4-15-4-3 0-5 1-5 2-1 2-1 5-1 10 0 8 1 14 1 17H484c0-24 1-35 1-34-1-4-9-7-23-9-9-2-14-4-17-4-2 0-4 2-5 4 0 3-1 8-1 16 1 13 1 22 1 28v332l-5 43 48-22h226l17 20c6 9 10 14 10 14 2 0 7-4 15-13l25-26m-55-168v152h-95V416h95m0-160v140h-95V256h95M583 416v152h-99V416h99m0-160v140h-99V256h99Z"/></symbol><symbol id="𭎨_K" viewBox="0 0 1000 1000" data-size="21"><path transform="matrix(1 0 0 -1 48 927)" d="M289 224c-44-33-121-65-231-98-7-24-14-36-22-36-6 0-12 7-17 22L0 157c29 7 66 15 110 26v329H16v20h94v195l-3 66 43-9c27-4 40-10 40-15 0-6-12-15-36-28V532h34l14 28c9 11 14 16 17 16 4 0 10-4 17-12l42-36-7-16H154V193c58 18 101 33 129 45l6-14m137 536c1-6 2-12 2-17 0-14-5-21-15-21s-19 8-26 26c-15 35-43 65-83 92l6 8c65-30 104-60 116-88m-66-238c3-8 4-15 4-21 0-13-4-20-12-20-9 0-16 8-23 24-16 40-42 73-80 99l5 10c62-31 97-62 106-92m123 296L371 341c-8-30-12-57-12-82 0-31 7-62 20-95 15-39 23-63 24-71 2-19-1-34-7-44-5-11-12-16-20-16-18 0-29 14-31 42l-12 155c-6 36-20 56-43 60l-44 10v12l34-2c18-1 31 2 39 7 9 7 17 21 22 41l132 465 10-5M903 35l-7-13c-19 12-33 18-41 18-5 0-10-2-15-6-13-10-20-14-23-14-5 0-17 12-34 37-68 127-113 262-134 404-13-109-44-203-90-281C512 101 454 41 384 0l-10 9c63 45 116 113 159 203 34 71 60 161 77 271H429v21h184c7 55 9 141 6 260-45-11-88-18-128-21l-4 16c54 11 105 23 156 36 50 13 94 33 131 59l33-25c9-8 14-15 14-19 0-6-5-8-16-8-7 0-15 0-25 2-48-20-87-32-117-33 3-113 0-202-7-267h141l24 39c10 14 15 20 16 20 3 0 9-6 20-18l41-42-4-20H666c14-80 44-162 90-247 41-90 90-157 147-201Z"/></symbol><symbol id="𭎩_K" viewBox="0 0 1000 1000" data-size="21"><path transform="matrix(1 0 0 -1 45 924)" d="M410 708h137v95l-2 45 59-19c15-4 19-10 12-16-4-4-13-8-25-13v-92h143l38 43 52-40c9-5 11-10 8-14-3-3-9-5-19-5H591V556h217l39 46 55-42c8-6 10-12 7-17-2-3-9-5-18-5H647l25-7c20-6 29-11 28-14 0-3-9-7-26-12l-4-3v-89c0-7 1-12 4-15s9-5 18-5h106c12 2 21 13 27 35 5 15 12 44 20 89l9-1-2-109c16-10 25-18 25-25 1-9-10-15-31-20-17-2-49-3-95-3-45 0-72 1-82 2-16 4-27 11-33 21-4 6-5 17-5 33v75l-4 48H517c11-7 17-12 16-16-1-3-12-6-34-7-21-50-48-95-82-135-33-40-68-73-106-98l-4 9c36 36 66 74 89 111 25 39 45 84 62 136H345l-64-4-11 25 60-3h217v136H424l-64-4-10 23 60-3m-25-491h159v117l-4 47 63-18c13-5 16-10 11-16-3-4-11-9-23-14l-3-2V217h128l36 40 51-36c8-7 10-12 6-16-2-3-8-5-18-5H588V20h221l36 46 54-43c8-5 11-10 8-13-2-5-8-7-17-7H300l-63-3-11 22 60-2h258v180H398l-63-3-12 23 62-3m-59 237-5-16H173V146l144 54 5-12L54 62c1-21-2-31-10-31-6 0-13 8-23 23L0 89l131 43v306H13v20h118v217l-3 51 47-13c15-4 22-9 22-16 0-6-8-13-24-21V458h65l23 28c7 10 11 15 11 15 2 0 9-6 21-17l33-30Z"/></symbol><symbol id="𭎪_S" viewBox="0 0 1000 1000" data-size="21"><path transform="matrix(1 0 0 -1 47 937)" d="M598 297v-1l-4-43-8-41-12-37-15-35-19-33-22-28-27-25-28-22-32-18-36-14-4 9 29 22 25 23 23 24 18 26 16 27 13 28 9 31 6 34 4 35v38h64m162 468 53-34 10-16-21-2-31-47-51-67-20-22h43l53 53 63-53v-20H753V355h23l53 52 64-52v-21H753V33L690 2v332h-92v-37h-64v37H410v21h124v202h-96v20h247l5 14 32 79 7 18 7 18 19 48 5 11m-411 55 62-31h379l53 53 62-53v-21H411V479l-3-67-4-62-5-59-7-54-9-49-11-44-13-41-14-36-17-31-19-25-8 5 9 28 8 32 8 35 7 40 6 44 4 48 4 53 2 57v467M34 151l-4 8-6 16-1 1-4 12-3 7-3 8-3 5 108 39 17 7v348H18v20h117v252l63-10 16-10-16-10V622h31l42 48 52-48v-20H198V277l52 20 76 25 4-9-101-61-170-91-4-2-4-20-16 10-1 2m-24 57 25-59-35 54 10 5m680 349h-92V355h92v202m-163 60-2 16-3 13-4 15-5 14-5 14-15 28-9 13-9 12 5 8 14-10 16-9 13-10 13-13 11-13 12-13 17-32 8-17 6-18-4-23-20-14-23 4-14 20-2 15Z"/></symbol><symbol id="𭎫_K" viewBox="0 0 1000 1000" data-size="21"><path transform="matrix(1 0 0 -1 48 939)" d="M899 42c-20 2-35-2-46-12-12-9-18-14-20-14-6 0-15 5-26 14-49 48-89 103-122 163-37 67-67 152-89 257h-11c-20-28-51-67-96-116V111l177 42 5-9c-98-39-207-76-325-113-3-21-10-31-21-31-8 0-14 7-20 22l-21 46c39 8 93 19 162 35v199c-56-43-121-79-195-109l-5 10c56 31 109 68 160 113s90 90 117 134H325v21h245v117H380v21h190v110H348v20h222v96l-5 44 47-9c21-4 32-9 32-16s-10-14-30-20v-95h159l20 30c6 9 10 14 13 14 4 0 10-4 19-12l47-37-13-15H614V609h122l18 28c4 8 9 12 14 12 3 0 8-3 15-10l40-36-10-15H614V471h183l20 31c6 9 10 14 13 14s10-5 21-13l43-36-10-17H612c21-82 48-151 81-208 58 38 105 85 142 142l27-31c9-10 13-18 13-23 0-9-11-10-33-4-33-32-80-65-140-98 21-37 49-70 84-101 35-36 74-60 118-73l-5-12M326 323c-81-39-171-76-269-110-6-23-13-34-22-34-6 0-12 7-17 21L0 245c60 14 102 24 126 31v312H15v21h111v203l-4 65 43-7c27-4 40-10 40-16s-12-15-35-27V609h45l16 28c7 11 12 16 15 16s9-4 18-11l43-36-7-18H170V287c23 7 74 23 151 50l5-14Z"/></symbol><symbol id="𭎬_K" viewBox="0 0 1000 1000" data-size="21"><path transform="matrix(1 0 0 -1 56 935)" d="M521 440c-2-22-11-33-27-33-10 0-17 9-19 28-2 44-20 87-54 127l9 4c62-52 92-94 91-126m347-39-5-16H598V249h126l22 32c8 11 12 17 14 17s7-5 15-14l37-38-6-17H598V15c-2-5-9-8-23-11-7-3-12-4-14-4-4 0-6 2-6 6-1 2-1 9 0 20 0 16 1 29 1 39v164H373v20h183v136H307v20h329l72 173 43-19c13-6 20-11 20-16 0-7-12-10-35-12l-86-126h136l22 30c6 10 10 15 10 15 2 0 7-4 15-12l35-37m20 194-7-17H288v20h268v125H383v20h173v80l-3 46 46-12c15-4 23-9 23-15s-8-12-24-19v-80h110l23 32c8 11 12 17 13 17 2 0 8-5 17-14l35-38-6-17H598V598h198l24 35c8 12 13 17 14 17s8-6 20-18l34-37m-562-55-5-16H173V232l154 54 5-12L54 147c1-20-2-30-10-30-6 0-13 8-23 23L0 175l131 43v306H13v20h118v217l-3 51 47-13c15-4 22-9 22-16 0-6-8-13-24-21V544h65l23 28c7 10 11 15 11 15 2 0 9-6 21-17l33-30Z"/></symbol></svg>