<svg xmlns="http://www.w3.org/2000/svg"><symbol id="𭛌_J" viewBox="0 0 1000 1000" data-size="21"><path transform="matrix(1 0 0 -1 43 945)" d="M112 635h105v176H13l-9 25h204l36 48c39-32 59-53 59-61 0-4-3-8-8-11l-23-15V562h-55v48H100c-3-49-10-107-21-174h129l32 40c38-31 57-50 57-58 0-4-2-7-7-10l-21-14c-1-197-14-315-37-352-18-28-50-42-96-42-1 18-11 32-30 41-14 7-42 14-84 22v27c42-7 81-11 119-11 32 0 51 12 56 36s9 61 12 111c-55-34-109-62-160-82-2-19-7-29-15-29-10 0-21 22-34 64 66 16 136 42 211 76 3 61 4 113 4 156H75c-2-10-5-26-9-47l-56 11c17 93 29 190 36 290 27-11 49-21 66-30m309-512V83h-56v303c32-12 54-22 68-28h313l32 37c40-29 60-48 60-56 0-3-2-6-6-9l-24-16V87h-55v36H421m191 134h141v76H612v-76m0-25v-84h141v84H612m-54-84v84H421v-84h137m0 109v76H421v-76h137M427 525v-31h-54v274c23-8 45-17 65-26h299l33 35c37-28 56-46 56-54 0-3-2-5-4-7l-24-16V495h-54v30H427m184 122h133v70H611v-70m0-25v-72h133v72H611m-52-72v72H427v-72h132m0 97v70H427v-70h132M342 811l-11 25h449l46 54c25-20 47-40 65-59l-13-20H342m-10-383-11 25h480l41 55c22-21 40-41 55-61l-11-19H332M293 18l-12 25h528l46 59c23-21 42-42 59-64l-11-20H293M18 338l10 19c45-14 77-28 95-42 18-13 27-28 27-45 0-19-9-29-28-29-11 0-20 8-27 23-12 28-38 52-77 74Z"/></symbol><symbol id="𭛍_J" viewBox="0 0 1000 1000" data-size="21"><path transform="matrix(1 0 0 -1 62 949)" d="M331 259c1 4 1 11 1 21v154c62-1 92-8 92-20 0-8-11-16-34-25V281c0-151-88-244-265-281l-11 22c62 19 112 47 149 85 34 34 55 75 64 122-81-33-170-60-269-83-5-25-11-38-19-38-12 0-25 28-39 83 31 4 54 7 69 10v282c6-3 16-7 29-13 15-7 24-11 27-12 89 23 166 55 232 95 40-27 60-46 60-56 0-7-7-10-20-10-8 0-18 1-31 3-71-25-151-44-241-59V210c61 11 130 27 206 49m356 478v89H158l-10 25h528l40 46c42-33 63-55 63-64 0-3-2-7-8-10l-27-17V555h-57v42H159l-10 25h538v90H183l-10 25h514M567 458V7h-58v504c32-12 54-21 68-28h200l38 44c41-31 62-51 62-60 0-4-3-8-10-12l-24-17V176c0-49-31-73-93-73 0 18-10 30-28 38-16 6-45 12-87 19v26c32-5 70-7 112-7 26 0 39 10 39 30v249H567Z"/></symbol><symbol id="𭛎_G" viewBox="0 0 1000 1000" data-size="21"><path transform="matrix(1 0 0 -1 42 960)" d="m432 915 47-35h295l34 39 50-48c5-3 6-7 5-10s-4-5-11-6l-18-10V691l4-78c1-16-2-27-9-33-8-5-21-9-38-11v61H493v-57c6-257-55-448-184-573l-10 10c107 133 157 324 151 574v272c-4 15-13 32-27 50l9 9m359-55H493V650h298v210M0 216h281v323H102c-17 0-32-4-44-13l-33 33h256v292H71c-11 1-23-3-35-14L3 871h263l35 38 45-46c5-4 7-7 6-10s-4-5-9-6l-19-8V287l6-129c0-21-16-32-49-33v71H77c-17 1-32-4-44-13L0 216m613 283V308c19 12 47 31 83 58 10 7 17 13 22 16 42 32 64 51 65 58 4 10 4 18 0 23l8 6 67-50c5-3 7-6 7-8 0-3-2-4-7-5-23 6-55-5-95-34-33-24-83-53-150-88V165c0-37 5-60 16-70 11-9 30-14 57-14 10 0 23 0 39-1h21c5 0 17 1 35 2 11 1 19 1 26 2 31 3 49 17 52 42 4 29 8 67 12 114h14c2-46 3-77 3-92 0-16 9-29 28-39-9-19-20-34-33-43-11-8-24-14-40-18-17-3-46-5-87-5h-67c-17 1-32 1-45 2-55 10-80 49-74 118v345c-2 14-12 28-30 43l7 10 93-32c4-4 4-7-1-9-13-4-21-11-26-21Z"/></symbol><symbol id="𭛏_K" viewBox="0 0 1000 1000" data-size="21"><path transform="matrix(1 0 0 -1 61 915)" d="m879 493-4-15H0v20h503l40 91H198c-6-14-9-22-9-23-3-5-11-8-23-8-14 1-20 5-20 10 0 4 4 12 12 26l103 236 41-20c10-6 15-11 15-15 0-6-11-10-35-12l-13-38h325l10 13c9 11 14 16 17 16 2 0 9-4 20-14l24-27c5-7 8-12 8-15 0-5-5-8-14-10-8-2-17-4-25-5l-89-205h228l28 33c9 9 14 14 15 14 2 0 10-5 23-14l40-38M599 725H260l-53-117h343l49 117m158-340c9-8 14-15 14-20 0-8-11-13-31-13V225c0-21 0-31-1-33-1-4-9-9-22-15-7-2-11-2-13-2-5 0-7 9-7 26H190c1-19 1-30 0-31-2-5-10-10-24-15-6-2-10-3-13-3-4 0-6 4-6 10v216l-3 40 49-30h494l15 19c8 7 13 11 15 11s7-4 15-12l25-21M879 13l-8-13H11v20h298l-29 57c-11 24-28 49-50 75l7 7c37-28 61-48 74-60 18-19 28-37 28-53 0-9-3-17-8-26h227l65 159 39-17c16-6 24-13 24-19 0-8-12-12-35-15L575 20h209l23 25c9 10 14 16 16 16s7-5 18-13l38-35M697 221v147H190V221h507Z"/></symbol><symbol id="𭛐_K" viewBox="0 0 1000 1000" data-size="21"><path transform="matrix(1 0 0 -1 63 936)" d="M717 831c7-9 11-16 11-19 0-4-7-10-19-18V640c0-30 0-47-1-49s-7-7-20-15c-7-4-12-7-15-7s-5 14-5 40H184v25h484v74H195v28h473v73H186v25h467l14 19c8 12 13 18 15 18 0 0 6-6 15-17l20-23m94-379-7-13H632l30-16c12-6 18-12 18-17 0-8-11-11-33-10-4-6-13-21-25-44l87-46c27-17 40-35 39-52s-6-25-16-25c-8 0-16 7-24 22-16 27-48 55-97 84-28-40-64-78-108-112l-9 10c27 26 51 56 71 90 21 35 37 74 49 116H280l32-23c7-8 11-14 11-18 0-7-11-10-35-8-4-4-12-14-22-32l86-42c30-18 44-38 40-58-3-14-8-21-16-21-7 0-15 6-23 18-30 40-63 70-99 88-43-51-93-93-149-127l-8 10c35 27 66 59 94 95 29 37 52 76 71 118H78v20h340v67l-5 36 42-9c23-5 34-11 34-19s-9-15-27-23v-52h244l22 24c9 11 15 17 16 17 6 0 14-5 26-15l41-33m64-267-8-14H463V54c1-9 2-15 2-19 0-10-8-21-25-31-8-3-14-4-16-4-5 0-8 4-8 13 0 6 2 19 5 41v117H0v20h421v82l-4 30 44-13c18-5 27-10 27-15 0-4-8-10-25-16v-68h314l25 30c7 9 12 14 14 14s8-5 16-14l43-36Z"/></symbol><symbol id="𭛑_G" viewBox="0 0 1000 1000" data-size="21"><path transform="matrix(1 0 0 -1 41 977)" d="m152 660 37-37h493l34 32 51-38c5-3 6-5 5-7s-4-3-11-4l-17-10V448l4-45c2-23-14-35-49-38v31H496c109-87 249-131 422-133v-13c-44 2-70-8-79-29-156 23-278 82-366 175h-46c-38-43-86-79-144-107l66-20c5-1 9-3 11-6 1-2 0-4-3-5-7 1-15-5-25-16 3-73-18-127-63-160C225 47 144 21 26 4l-2 14c93 21 162 47 207 79 41 29 60 82 56 159-5 13-11 22-20 26-71-31-157-54-258-67l-3 13c177 39 301 95 371 168H199v-25c2-15-15-25-52-28 3 17 6 54 7 111v151c1 17-5 33-17 47l15 8m497 190-23-139h159l31 41 66-52c5-2 8-3 7-4s-6-2-13-2H77c-17 1-32-5-44-17L0 711h587l12 68H248l-22-31-37 33c11 7 22 19 31 35l27 87c2 15-3 29-14 40l8 11 64-29c5-1 9-3 10-5s0-4-3-7c-15-5-25-11-32-18l-3-14h321l29 35 46-39c4-3 6-5 7-7 0-2-2-3-5-4-9 0-18-5-26-16m-400-56h352l12 72H273l-24-72m450-292H470v-88h229v88m-273 0H199v-88h227v88m44 16h229v87H470v-87m-44 87H199v-87h227v87m124-317 88-27c8-3 10-6 5-11-11-3-21-8-28-15V83l3-53c1-15-17-25-55-30 3 24 6 61 7 110v132c0 11-10 22-29 35l9 11Z"/></symbol><symbol id="𭛒_K" viewBox="0 0 1000 1000" data-size="21"><path transform="matrix(1 0 0 -1 63 930)" d="M831 160c-10 7-15 10-16 10s-6-5-15-15l-19-28H452v72h199v-35c2-6 5-10 9-10s9 2 16 4c11 6 17 11 18 16 1 2 1 15 1 39v146l13 6c5 3 7 6 7 9 0 4-4 10-13 20l-21 22c-9 9-14 14-16 14s-7-5-16-14l-17-22H452v63h296l9 14-49 41c-14 9-21 13-22 13-3 0-7-5-13-17l-19-30H452v15c22 10 32 17 32 23 0 5-9 12-27 21l-53 15 4-41v-33H111v-21h297v-63H211l-51 26 5-42V167c1-8 3-13 7-13 3 0 9 2 16 6 13 5 19 9 20 11s1 11 1 28h199v-72H0v-20h408V63c0-42 3-63 8-63 3 0 7 2 14 5 12 6 20 11 22 16v86h417l6 13-44 40m10 431c-13 12-20 18-22 18s-6-5-12-16l-12-17H90c1 9 1 20 0 33H73c-2-33-9-58-18-75-4-6-13-16-30-30-11-9-18-22-20-38-1-7-2-13-2-19 0-18 5-27 15-27 7 0 17 6 27 18 26 32 41 71 44 117h718l-30-73 11-3 48 54c2 1 10 3 24 7 9 3 14 6 14 10 0 5-5 13-15 23l-18 18M452 306v67h199v-67H452m0-87v67h199v-67H452m-243 87v67h199v-67H209m0-87v67h199v-67H209m511 608c8-8 11-13 11-16s-6-8-19-15V666c0-25 0-39-1-41s-8-6-22-13c-7-4-12-6-15-6s-5 12-5 35H160v20h509v63H173v23h496v61H163v21h490l15 16c8 10 13 15 15 15 1 0 6-5 16-14l21-19Z"/></symbol><symbol id="𭛓_S" viewBox="0 0 1000 1000" data-size="21"><path transform="matrix(1 0 0 -1 32 944)" d="m881 379 49-40 7-18-21 2-23-31-39-44-41-41-43-38-45-35-47-33-49-31-50-27-53-23-54-20-4 9 50 29 46 29 46 33 44 33 42 35 40 37 38 39 37 41 35 45 35 49m-756 82-3-65v-3h108v210H125V461M468 99l-1-13-2-14-5-12-6-12-9-11-10-8-12-7-13-4-13-2-13-1v31L278 62v16h112l5 1 2 1 2 1 1 1 1 1 1 2 1 3 1 5v6h64m375 538 48-41 6-18-19 2-48-56-67-65-35-29-37-30-38-27-40-25-41-23-42-20-6 8 74 58 67 60 33 31 61 65 28 35 53 71 3 4m-439-34H293V393h111v210m410 286 47-41 6-19-19 3-43-48-31-31-63-57-68-53-37-26-37-22-39-22-6 8 97 88 60 60 55 61 52 64 24 32 2 3m-584-61H125V624h105v204m174 0H293V624h111v204M62 461v420l63-31h279l33 26 57-48-26-20V99h-64v273H293V94l-63-32v310H120l-2-38-7-58-7-51-11-49-13-43-15-39-16-35-20-29L7 7l-7 6 12 27 10 30 11 34 9 39 7 42 6 46 5 51 2 56 1 58-1 65Z"/></symbol><symbol id="𭛔_S" viewBox="0 0 1000 1000" data-size="21"><path transform="matrix(1 0 0 -1 32 948)" d="M276 359h-80v-15l-57-30v400l57-29h75l1 7-1 16v17l1 15 1 16v16l4 50-176 1V534H42v339l59-29h296l53 52 63-52v-21H339l-10-28-22-62-7-15-14-29-2-4h132l31 26 58-47-26-21V349l-63-32v42h-77V84l-1-13-2-13-4-13-7-12-9-11-10-7-12-7-13-5-12-2-14-1v31l-84 17v15h91l4 1 5 2 1 2 2 5 1 5 1 6v275m605 25 49-40 7-18-20 2-23-31-39-43-41-42-42-38-44-35-45-34-48-30-50-26-52-25-54-19-3 9 94 58 45 32 44 34 40 35 40 37 37 39 37 41 34 44 34 50M101 534l-3-72-3-69-5-64-7-59-8-55-11-52-10-46-13-41-16-37L8 8l-8 3 8 34 9 38 5 41 7 45 5 50 4 54 3 59 2 63v68l-1 71h59m80-257 57-27 12-15-20-5-13-31-12-23-14-24-29-44-16-20-16-20-19-18-19-17-7 6 44 89 18 46 17 47 8 23 5 21 4 12M454 89l-5 18-13 39-18 38-32 61-13 21 7 6 37-33 32-35 28-36 23-38 10-20 10-19-3-25-18-15-23 2-17 17-5 19m390 553 48-41 6-18-19 2-48-55-31-34-33-32-72-59-38-26-38-25-41-24-42-20-5 7 106 88 64 62 60 65 54 70 23 32 6 8M416 512H196V380h220v132m0 152H196V532h220v132m399 230 48-41 6-19-19 3-42-48-61-60-31-28-33-27-71-52-37-22-38-22-6 8 95 88 59 59 54 62 50 63 24 33 2 3Z"/></symbol><symbol id="𭛕_S" viewBox="0 0 1000 1000" data-size="21"><path transform="matrix(1 0 0 -1 23 981)" d="M911 84V71l-3-12-4-13-7-13-8-10-10-8-13-7-12-4-13-3-14-1v32L723 48v15h111l5 2 5 1 1 1v1l1 2 1 3 2 5v6h62m-80 682-55 10-50 13-46 13-42 15-37 17-34 18-27 18-22 22-9 12V795l41-23 28-12 31-13 37-11 40-10 44-9 49-9 53-7 58-7 53-6-62-62-59 10-54 11-51 13-46 15-41 15-37 17-32 19-29 20-21 23-2 2V656l22-12 26-13 28-13 32-13 36-10 40-11 45-9 50-9 54-7 57-6 54-7-62-62-60 10-55 12-50 13-47 14-42 16-37 16-33 19-28 20-21 23-9 13V438h340l31 26 58-47-27-21V84h-62v333H740V74l-63-31v374h-94V74l-63-31v374H409V74l-62-31v374h-95V74l-64-31v374h-86V38L38 6v459l-37-5-1 10 96 32 46 19 44 20 43 22 40 24 39 26 38 29 35 30 34 32 2 1 29-33v290l63-11 15-11-15-8v-11l22-13 54-23 31-11 37-11 40-9 45-9 49-8 54-7 58-6 54-6-62-62-60 10M442 646l-23-20-40-30-43-27-43-25-45-22-47-18-48-16-49-12-50-10-8-1 56-27h344v207l-4 1m-72 188 40-49 3-18-18 6-19-14-36-24-36-23-38-21-38-17-40-17-40-14-40-12-41-9-42-6-3 10 77 31 73 36 35 20 67 44 34 23 31 27 30 27h1m-41 126 40-49 2-19-18 6-47-32-33-20-34-18-34-16-35-15-36-12-36-11-37-7-39-6-2 10 101 45 64 36 60 39 28 21 56 47v1Z"/></symbol><symbol id="𭛖_S" viewBox="0 0 1000 1000" data-size="21"><path transform="matrix(1 0 0 -1 18 981)" d="M814 84v333h-98V74l-22-11h106l5 2 3 1h2l1 1 1 1 1 2v3l1 5v6M333 704l45-44 6-18-21 4-16-18-34-30-35-28-36-25-37-22-38-18-39-17-41-12-42-10-43-6-2 10 77 32 36 19 35 19 34 22 32 23 31 26 30 29 29 29 27 32 2 3m-37 129 44-46 4-18-20 4-43-37-30-23-30-20-33-19-31-17-33-13-34-12-34-10-35-6-2 10 60 31 58 35 55 40 52 46 26 26 24 27 2 2m-33 125 43-46 5-18-20 4-37-31-27-19-56-35-29-15-31-13-29-11-31-7-31-6-3 10 80 45 49 35 48 38 45 44 24 25M878 84l-1-13-2-12-5-13-6-13-9-10-10-8-12-7-13-4-12-3-14-1v32L688 48v13l-35-18v374h-84V74l-63-31v374h-79V74l-63-31v374h-87V73l-57-28v372h-63V36L100 7v460l57-29h239v524l63-11 16-11-16-8V438h89v524l63-11 16-11-16-8v-61h228l53 53 62-53v-21H611V734h228l53 53 62-53v-21H611V604h238l51 51 64-51v-22H611V438h203l32 26 58-47-26-21V84Z"/></symbol><symbol id="𭛗_S" viewBox="0 0 1000 1000" data-size="21"><path transform="matrix(1 0 0 -1 31 967)" d="m848 123-31 29-27 30-25 32-23 32-19 33-17 35-14 37-1 5V31L628 0v329l-20-29-27-36-29-34-31-32-35-29-35-27-38-24-40-21-5 7 66 59 29 31 28 32 27 33 24 34 21 35 21 37 20 39 6 18H471v20h157v140l63-11 16-10-16-9V442h105l53 53 62-53v-20H691v-2l30-57 19-31 20-29 46-55 26-26 27-25 30-23 49-34-57-44-33 27M391 235l-26 25-28 24-15 12-56 38V31L203 0v293l-23-33-25-32-54-58-30-25-32-24-33-20-6 7 51 57 24 28 23 31 41 62 18 34 33 71 11 27H19v21h184v139l63-11 15-9-15-10V439h63l52 52 63-52v-21H266v-64l16-2 21-6 20-6 20-8 36-18 18-9 18-11 17-11 10-22-7-23-22-10-22 7m8 517 30-43 8-9 1-18-19 7-60-33-40-19-42-17-42-15-44-12-45-11-46-8-49-5-49-3-1 10 47 12 89 27 42 16 41 16 39 18 73 40 34 23 29 20 4 4m467 2 25-35 13-15v-18l-17 7-22-13-39-20-40-19-41-16-43-16-44-11-45-11-47-8-47-6-50-2-1 9 93 26 43 14 84 31 39 18 72 40 35 22 28 21 4 2m-511 90 16-25 24-24 1-19-19 8-55-28-34-16-72-26-37-11-37-10-38-7-40-5-40-3-2 10 110 39 68 28 65 33 61 36 26 17 3 3m467 2 14-22 26-28 1-18-18 8-55-28-35-16-35-13-37-12-37-12-38-9-38-7-39-4-40-3-1 8 109 39 35 14 66 30 64 35 58 38m-506 88 15-24 25-25v-19l-18 8-48-24-31-14-32-12-33-11-33-10-33-8-35-7-35-4-37-2-1 9 128 50 60 27 56 31 48 32h1l3 3m468 1 14-23 26-27v-18l-18 8-49-24-30-14-33-12-33-11-32-9-34-8-34-7-37-4-35-2-2 9 98 37 31 13 59 27 56 30 27 17 26 18Z"/></symbol><symbol id="𭛘_K" viewBox="0 0 1000 1000" data-size="21"><path transform="matrix(1 0 0 -1 42 948)" d="m103 607 52-31h276l32 32 40-34c18-14 23-24 16-29-6-3-15-5-28-5V347c1-8 0-14-2-18-2-3-10-8-21-12-12-2-19-1-22 3-2 3-2 9-2 19l1 11H319v-74h158l42 45 58-41c9-6 11-11 8-15s-10-6-20-6H331l7-8c40-47 72-80 98-100 41-34 91-61 150-81l5-13c-14-2-27-6-39-13-13-6-22-13-29-21-44 30-83 64-117 103-31 37-60 80-87 129V49l1-13c1-8 1-14-1-17-2-6-9-11-21-16-13-3-20-3-24 1-2 3-2 10-2 21l1 6v184c-41-50-82-90-124-121S59 37 6 18L0 29c50 24 98 57 143 97 45 43 80 87 107 133H82c-10-1-18-2-25-3l-13 24c8-2 18-3 31-3 11-1 22-1 34-1h164v74H150v-11c1-7 1-12-1-15-2-5-8-9-17-13-14-5-23-4-27 2-1 2-2 9-1 20v220l-1 54m48-129h122v82H151v-82m294 82H321c15-6 22-11 20-16-3-4-10-7-22-9v-57h126v82M151 366h122v95H151v-95m294 95H319v-95h126v95m-80 396c15-12 22-20 21-25-2-5-14-5-38-1l-80-88 9-7c28-22 46-38 55-48 15-18 23-36 24-55-2-18-6-29-14-31-7-3-15 2-23 15-5 13-17 33-36 60-23 33-49 65-78 95l6 7 30-18 13-8 36 64 36 68 39-28m163-1c14-12 21-20 20-24-1-5-13-5-38-1l-73-88 11-8c27-22 45-38 54-48 15-17 23-35 23-54-1-14-6-22-14-24-9-4-17 3-25 18-9 17-21 34-35 52-25 35-50 65-77 93l7 7 32-20 10-6c10 15 21 34 31 56 8 16 20 41 36 75l38-28m-324 12c15-11 22-19 22-24-2-5-15-5-40 0l-82-100 10-6c28-22 46-38 55-49 16-17 24-35 24-55-2-17-6-28-13-32-9-4-17 2-24 16-4 14-16 34-36 61-23 33-49 65-78 95l6 7 35-21 8-5c16 26 29 48 38 65 14 25 26 51 37 78l38-30m680-241c17-14 25-24 21-29-3-5-16-3-38 6-30-38-68-77-115-118-52-45-104-82-154-112l-8 11c46 31 95 73 147 127 47 48 86 94 118 139l29-24m13-227c16-13 22-22 19-28-4-4-16-4-37 2-32-45-76-94-131-147-62-59-117-101-166-124l-4 10c48 32 99 77 153 136 53 58 98 116 135 175l31-24m-32 433c6-5 10-9 11-13 1-5-2-7-9-8l-19 1c-35-41-78-80-127-118-42-33-85-62-129-87l-4 10c38 27 80 62 125 105 48 48 88 94 119 139l33-29Z"/></symbol><symbol id="𭛙_S" viewBox="0 0 1000 1000" data-size="21"><path transform="matrix(1 0 0 -1 31 965)" d="m494 52-27 19-27 22-24 23-23 25-22 26-20 27-19 30-12 24V31L258 0v216l-28-32-27-29-28-27-31-24-32-22-34-19-36-18L4 31l-4 9 32 23 60 46 26 26 26 25 24 28 41 58 19 31 3 7H16v22h242v90H150v-15l-62-32v335l62-32h277l31 27 58-47-27-22V386l-62-32v42H320v-90h126l53 52 63-52v-22H320v-1l60-64 23-23 48-40 25-17 26-17 80-42-59-47-29 19m385 334 51-38 8-17h-21l-21-29-34-44-35-42-38-38-39-36-41-34-43-29-44-27-47-25-48-19-4 9 42 28 41 30 40 31 38 34 36 34 34 38 32 39 32 41 30 43 31 51m-33 258 50-39 7-17-19 1-42-55-58-65-31-31-65-56-36-25-36-23-38-21-5 7 62 59 58 59 54 63 26 33 47 69 26 41M258 512H150v-95h108v95m169 0H320v-95h107v95M258 632H150v-99h108v99m169 0H320v-99h107v99m393 264 50-40 7-17-20 1-37-47-25-30-57-58-29-28-30-26-33-25-33-23-34-22-6 8 82 87 51 59 48 61 64 96 2 4m-471 34 62-11 16-10-16-10v-83h45l53 53 63-53v-20H411v-87l-62-32v119H229v-87l-63-32v119H6v20h160v114l63-11 16-10-16-10v-83h120v114Z"/></symbol><symbol id="𭛚_S" viewBox="0 0 1000 1000" data-size="21"><path transform="matrix(1 0 0 -1 36 963)" d="M120 722V587l87 10v109l64-11 15-10-15-9v-72h16l47 59 68-46 2-20-133-14v-56h-64v49l-87-9V312l-3-41-5-40-7-37-8-35-10-32-12-30-13-29-16-26-18-22L8 0 0 6l21 49 8 26 8 28 7 30 5 31 5 32 2 35 2 37v500l62-31h117v184l63-11 15-11-15-9v-64h97l43 47 53-47v-21H300v-68h146l33 26 57-47-26-16-15-6-16-24-17-24-20-24-10-11-9-13-9 5 6 14 4 16 12 42 6 26 2 12v3H120m751-334 49-39 8-18-21 1-21-30-37-44-38-41-40-38-43-36-43-34-46-30-48-26-49-25-51-19-5 9 47 29 44 29 42 31 41 35 39 34 37 37 35 39 35 42 32 44 30 46 3 4M107 69l-2 10v2l-1 5v1l121 15v310l58-11 14-10-14-9V108l46 6v298l59-11 14-10-14-9V122l59 8 45 5 45 4 2-9-43-15-43-13-85-23-128-29-84-17-21-4-9-18-12 14-1 3v2l-2 12v3l-1 5v3l-3 15v1m-3 18 10-62-19 61 9 1m345 270 57-29 12-15-22-3-14-29-37-68-33-55-8 4 18 81 23 102 4 12M160 192l-2 29-1 14-3 15-8 30-9 32-6 15-8 15 8 6 12-13 13-12 11-13 11-14 18-29 8-16 7-16 6-16 6-17-6-23-21-13-23 6-13 20m675 453 49-40 8-17-21 1-15-20-60-68-31-32-34-31-34-28-36-27-37-26-39-23-40-21-5 8 34 30 66 58 30 30 59 63 28 33 52 69 20 33 6 8M291 443l-14 1-12 2-13 5-12 7-11 8-8 11-6 11-5 13-2 14-1 12h64v-10l1-3 1-2v-1l2-1 2-1 3-1 5-1h148l31 131h10l-10-132 17-12 14-19-14-19-17-13H291m518 454 47-41 7-16-19 1-40-48-58-60-61-55-67-51-36-23-37-22-5 8 117 117 54 60 72 94 20 29 6 7Z"/></symbol><symbol id="𭛛_S" viewBox="0 0 1000 1000" data-size="21"><path transform="matrix(1 0 0 -1 44 965)" d="m509 628 63-31h242l33 26 57-47-26-21V37L814 5v42H572V31L509 0v628M394 247l45-45 4-17-18 3-48-43-33-26-35-23-36-22-37-19-39-18-41-14-41-12-43-8-3 9 77 37 71 40 64 46 30 25 28 27 27 28 26 29 2 3M107 362l-3-49-3-45-6-45-8-40-9-38-11-36-11-31-14-28-17-26L8 5l-8 5 8 24 8 27 7 28 6 31 6 33 4 36 3 40 2 42 1 45v274l62-32h164l6 38 4 22 12 65 6 41 3 20 1 15 3 14H44v21h161v137l64-11 15-10-15-10V794h47l53 53 64-53v-21H308l57-21 14-14-20-7-6-20-23-62-18-41-10-20-17-30h47l53 52 63-52v-21H107V362m707-43H572V68h242v251m-475 63 48-41 7-18-21 2-31-32-51-42-26-19-30-17-30-17-32-14-33-13-36-11-3 9 87 59 49 40 44 43 39 44 14 20 5 7m-54 136 51-39 8-16h-22l-18-24-18-18-18-18-42-33-47-29-26-12-26-11-5 8 61 56 34 36 29 37 14 19 11 19 8 15 6 10m529 58H572V340h242v236m-665 37-2 33-1 15-4 31-2 15-4 16-2 14-6 14 8 5 10-13 10-12 9-13 10-14 8-15 6-15 13-34 5-17 5-19-6-23-21-12-23 6-13 22v16m365 315 61-19 15-13-20-7-8-35-9-30-13-31h256l53 53 62-53v-22H531l-17-36-35-60-19-30-23-32-9 5 39 102 19 61 9 30 7 28 5 26 4 27 2 20h-1l2 16Z"/></symbol><symbol id="𭛜_S" viewBox="0 0 1000 1000" data-size="21"><path transform="matrix(1 0 0 -1 31 961)" d="m298 751 52-36 7-18h-19l-44-61-29-38-33-37-27-32 29-4 16-10-16-10V31L171 0v495l-43-41-38-33-41-32-42-30-7 7 104 113 62 75 57 76 49 77 26 44m510 145 11-20 29-29 2-18-20 8-68-34-85-33V499h146l53 52 62-52v-21H677V31L613 0v478H319v21h294v250l-28-8-48-12-50-10-51-9-53-6-1 10 145 48 89 35 42 17 78 40 37 20 30 20 5 2m-529 27 45-45 5-18-19 4-32-31-52-45-57-44-62-42-34-20-35-19-5 8 136 129 47 49 42 47 15 20 6 7Z"/></symbol><symbol id="𭛝_J" viewBox="0 0 1000 1000" data-size="21"><path transform="matrix(1 0 0 -1 43 954)" d="M187 490c35-7 53-15 53-24 0-8-11-16-35-23V0h-56v436c-39-53-84-102-133-146L0 306c99 118 177 254 234 407 52-18 78-34 78-49 0-9-13-15-38-17-24-52-53-105-87-157M545 78v687H328l-11 25h475l44 53c41-46 61-74 61-84 0-5-5-9-14-12l-27-7c-26-51-53-97-80-137l-21 9c23 64 37 115 42 153H603V78h188l53 69c28-26 51-51 69-75l-11-19H274l-11 25h282M18 584 4 602c88 79 162 181 220 306 51-23 77-42 77-55 0-9-14-14-42-14-60-100-141-185-241-255Z"/></symbol><symbol id="𭛞_J" viewBox="0 0 1000 1000" data-size="21"><path transform="matrix(1 0 0 -1 49 947)" d="M562 489H292l-11 25h516l41 52c43-42 64-68 64-79 0-5-4-9-12-12l-29-9c-36-60-83-123-139-188l-22 16c39 59 74 124 104 195H621V91c0-56-34-83-101-82-3 20-13 34-28 41-17 7-53 15-108 24v27c52-6 101-9 147-9 21 0 31 10 31 31v366m-427-73c-33-48-71-93-113-134L3 298c83 102 151 230 204 384 53-18 80-34 80-46 0-10-15-15-43-16-18-45-39-89-63-132 32-5 48-13 48-22s-12-18-35-27V0h-59v416m451 244c54 48 97 94 130 140H353l-11 25h373l40 50c45-40 68-64 68-75 0-5-4-9-14-12l-33-10c-48-47-104-91-167-133 42-31 63-59 63-83 0-21-10-32-30-32-10 0-22 9-35 29-40 57-102 108-186 152l13 21c59-21 110-45 152-72M18 578 0 596c92 81 166 180 221 297 51-19 77-36 77-49 0-10-14-15-42-15-65-98-144-182-238-251Z"/></symbol><symbol id="𭛟_S" viewBox="0 0 1000 1000" data-size="21"><path transform="matrix(1 0 0 -1 26 960)" d="m254 751 53-35 9-16-19-2-38-60-54-76-24-33 27-4 16-10-16-10V31L145 0v488l-32-33-33-33-36-32-37-31-7 7 87 112 54 74 47 76 43 77 23 46m82-661v-2 2m-98 831 48-41 6-18-20 2-49-52-48-45-52-43-58-41-30-20-7 7 136 152 55 73 16 23 3 3M339 37v5-5m0-5-7 31-4 3 3 3-6 26 22 1 136 217 72 124 5 8H281v22h291l6 12 4-2v234H331v21h251v188l63-10 15-11-15-9V732h134l53 53 63-53v-21H645V467h185l52 53 63-53v-22H632l-52-79-56-80-89-115-32-38-33-37 68 2 53 3 55 1 111 4 116 3 60 1h21l-25 46-17 30-39 55-62 77 7 8 28-18 27-22 26-22 25-26 45-54 42-63 19-33 18-34V30l-16-18h-24l-18 16-14 34-15 33-86-14-115-15-56-6-213-23-31-3-9-16-12 14Z"/></symbol><symbol id="𭛠_J" viewBox="0 0 1000 1000" data-size="21"><path transform="matrix(1 0 0 -1 38 951)" d="M418 578v-57h-57v342c23-10 46-21 68-34h290l37 46c42-33 62-54 62-63 0-4-2-8-8-11l-25-16V528h-57v50H418m0 25h310v201H418V603M163 441c-44-52-93-99-147-140L0 320c107 103 196 231 266 385 50-23 74-41 74-53 0-9-13-14-40-15-28-49-59-97-94-144 33-6 49-13 49-23 0-8-11-16-35-23V4h-57v437m402-243c-65 62-121 137-166 225h-71l-11 25h406l35 43c44-36 66-59 66-68 0-4-4-8-11-12l-28-15c-43-77-91-144-144-198 78-57 172-99 283-127-22-17-39-36-49-58-105 41-195 91-270 149C525 91 416 37 278 0l-13 23c121 41 221 100 300 175m34 35c55 61 97 124 126 190H432c42-66 98-129 167-190M22 586 6 603c96 82 175 182 236 299 49-26 74-46 74-58 0-9-14-13-43-13-72-102-156-184-251-245Z"/></symbol><symbol id="𭛡_K" viewBox="0 0 1000 1000" data-size="21"><path transform="matrix(1 0 0 -1 68 948)" d="M853 816c7-8 10-14 10-17s-2-5-6-7c-9-5-15-7-15-8V172c0-61-1-96-3-106-3-15-16-28-37-39l-28-12c-6-3-11-4-15-4-5 0-8 5-8 14v10c0 14-6 22-18 26l-80 21 5 10 92-10c6-1 11-1 16-1 17 0 28 12 31 35 1 6 2 24 2 55v643H367V92c0-33 0-50-1-53-1-5-8-12-21-21-7-3-12-4-15-4-4 0-6 2-7 7v22c1 18 1 31 1 41v771l57-19h398l13 13c6 7 10 10 12 10s7-3 15-9l34-34M700 618c12-10 18-18 18-23 0-6-8-11-25-14V345c0-24 0-37-1-39-2-5-9-9-23-14-8-3-13-4-15-4-4 0-6 16-5 48H514v-34c-3-6-12-12-27-17-6-2-9-3-11-3-4 0-6 16-6 46v283l-4 41 51-30h122l10 15c7 7 11 10 13 10 1 0 6-2 15-8l23-21m-440 34c15-10 23-18 23-24 0-7-11-12-33-14-20-30-40-59-61-85 7-7 10-12 10-16 0-2-7-10-20-25V47c0-5 0-10 1-15 0-5 1-9 1-11 0-8-9-14-28-18-4-2-8-3-10-3-5 0-8 4-8 13 0 11 1 22 1 34v409C90 414 47 380 6 354l-6 7c98 84 173 188 226 312l34-21m389-297v246H514V355h135M254 877c15-9 22-16 22-22s-11-11-34-15c-61-82-137-153-228-212L4 638c50 42 89 79 116 111 37 42 69 91 96 147l38-19Z"/></symbol><symbol id="𭛢_K" viewBox="0 0 1000 1000" data-size="21"><path transform="matrix(1 0 0 -1 60 936)" d="M868 802c8-8 12-14 12-18 0-2-9-7-27-13V128c0-50-1-77-1-79-2-7-10-14-24-21-6-3-10-5-14-5s-6 6-6 17c0 3 0 11 1 24 0 13 1 24 1 33H359V38c-1-8-9-15-25-20-5-4-9-5-12-5s-5 3-6 10v32c1 22 1 42 1 57l-1 731 47-27h437l13 15c5 8 9 12 11 12s7-4 15-12l29-29m-58-685v679H359V117h451m-5 131-10-11c-10 7-19 10-25 10-5 0-12-2-20-7-8-9-14-13-16-13-3 0-10 8-21 25-52 60-95 151-128 274-27-125-92-230-195-316l-11 11c118 112 176 263 176 452 0 23-1 48-3 73l53-14c18-5 27-11 27-17 0-7-11-14-31-23 0-32-3-76-8-132 38-144 108-247 212-312M256 846c12-9 18-16 18-21s-9-9-27-12C175 708 100 624 21 561l-10 7c81 75 152 176 212 303l33-25m22-200c13-9 20-16 20-21 0-6-9-10-27-13-18-36-48-85-89-145 13-9 19-16 19-22 0-3-7-9-20-19V46c0-5 0-10 1-15 0-5 1-9 1-10 0-8-9-14-27-18-4-2-8-3-10-3-6 0-9 4-10 13 1-6 2 5 2 33v367c-37-44-81-87-130-128l-8 10c114 122 195 248 243 377l35-26Z"/></symbol><symbol id="𭛣_J" viewBox="0 0 1000 1000" data-size="21"><path transform="matrix(1 0 0 -1 42 955)" d="M451 664h-99l-9 25h329c35 82 61 152 77 211 60-19 90-36 90-51 0-9-14-14-43-15-30-55-61-103-92-145h99l46 64c24-24 46-47 64-70l-11-19H800c-24-166-67-298-127-396 61-69 142-134 243-193-22-16-39-34-49-55-93 65-168 133-224 204C576 134 473 60 334 0l-16 22c71 37 129 76 174 115 43 38 82 83 116 135-77 110-129 241-157 392m33 0c24-129 74-245 151-348 27 49 51 110 71 183 15 58 25 113 31 165H484M193 493c38-7 57-16 57-25 0-8-11-16-35-23V2h-56v444c-44-57-92-109-143-154L0 308c111 132 192 268 244 407 52-18 78-34 78-49 0-9-12-15-38-17-26-56-57-108-91-156m354 215c-16 0-26 11-31 34s-15 48-29 74c-14 25-30 46-48 63l13 17c86-45 129-96 129-153 0-24-11-35-34-35M18 586 4 604c100 89 176 191 230 306 51-23 77-42 77-55 0-9-14-14-42-14-56-92-140-177-251-255Z"/></symbol><symbol id="𭛤_K" viewBox="0 0 1000 1000" data-size="21"><path transform="matrix(1 0 0 -1 60 940)" d="M279 855c18-11 24-19 19-25-5-5-16-6-33-3-36-52-71-96-105-132-48-54-98-97-151-131l-9 9c45 34 89 80 131 136 36 50 70 107 104 171l44-25m24-204c15-11 22-19 18-25-3-4-13-7-29-7l-22-30c-19-28-34-48-43-61l-42-58c22-5 33-9 35-15 0-4-8-9-26-14V62l1-27c1-10 0-16-2-18-2-4-8-8-18-12-13-4-20-5-22-4s-2 7-2 18l2 26v396c-17-21-37-41-58-61-26-23-54-44-84-63l-11 6c54 45 102 97 144 156 31 44 71 109 118 195l41-23m43 177c16-1 35-2 56-2h376l34 29 47-35c15-10 23-18 22-24-1-7-13-11-38-11-12-113-26-188-41-226-20-49-56-75-108-78-2 18-8 31-18 39-13 8-52 20-118 35l4 10 37-7c58-8 94-12 108-12 23 0 39 5 50 18 9 19 17 50 23 94 8 44 13 95 16 152l-210 1c15-9 21-14 19-18-1-2-11-4-30-6-15-79-42-151-82-216-36-61-81-113-135-156l-8 9c46 47 83 100 112 158 32 66 55 142 67 229H405c-21-1-36-3-47-5l-12 22m75-408 48-26h296l33 27 41-30c17-13 24-22 19-27-3-4-13-6-30-6V107c1-26 1-42-2-48-2-9-10-15-21-19-12-2-20-1-23 5-2 4-2 16-2 34l1 28H471V72c0-17 0-28-2-32-2-5-8-10-18-13-13-5-22-5-25 1-3 3-4 10-3 21l1 11v292l-3 68m50-298h309v255H471V122Z"/></symbol><symbol id="𭛥_S" viewBox="0 0 1000 1000" data-size="21"><path transform="matrix(1 0 0 -1 45 964)" d="m442 586-4-81-6-77-12-73-15-66-18-62-23-57-26-51-30-46-36-40-39-33-5 7 30 39 25 43 24 46 20 51 17 54 13 60 11 64 7 70 4 74v78h63m198 226 63-32h116l33 27 57-47-26-22V66l-64-31v63H703V35L640 4v808m-428-53 55-32 9-16-18-3-32-61-47-75-23-34 26-4 15-11-15-9V40L119 9v479l-48-56-31-34-33-30-7 6 72 111 44 74 60 115 33 78 3 7m275-642 57-28-7-12-8-11-8-9-9-8-11-8-12-6-11-5-13-3-13-2-13-1v32l-74 15v17h81l7 1 5 2 5 1 5 3 9 7 6 9 4 6m0 0 57-28 9 25 8 32 5 40 5 46 4 56 4 64 1 72 2 81v89l-1 71 26 16-57 47-31-26h-77v174l16 10-16 10-63 10V702H271v-21h108v-95h63v95h77V506l-1-81-2-71-3-62-4-54-5-45-6-35-6-26-5-15m332 643H703V119h116v641M198 929l50-38 8-18-20 1-23-29-39-45-67-67-49-42-28-19-6 7 112 151 32 48 27 47 3 4Z"/></symbol><symbol id="𭛦_K" viewBox="0 0 1000 1000" data-size="21"><path transform="matrix(1 0 0 -1 56 944)" d="M809 92c9 0 19 1 32 2 8 0 19 1 34 2h11l2-13c-15-9-26-18-34-27-6-8-11-19-13-32l-40 3c-117 6-188 10-214 13-39 6-71 16-96 29-22 11-40 25-54 41-16 15-28 33-36 53-4-17-8-33-13-49-3-10-7-22-13-38l-8-23c-2-6-2-12-2-16 3-15 2-24-4-27s-17 4-33 19c-16 11-25 20-27 27s2 14 12 20c10 4 20 14 31 30 7 10 20 33 40 69l21 40 13-7-8-22 11-23c51 61 100 123 146 187 47 64 90 129 129 195H403l-72-4-13 25 85-3h128v147l-5 45-59-9-104-9-5 8c99 19 170 37 211 54 51 21 99 51 143 90l47-35c13-11 17-19 13-24-3-4-16-4-38 0-33-17-64-31-91-41-32-12-65-22-98-30l42-8c14-3 21-7 19-10-1-5-10-11-27-19V563h101l46 43 44-40c11-12 16-20 15-26-2-7-14-10-36-10-49-73-101-141-153-204S489 203 433 147c7-11 17-20 28-28 9-6 21-12 35-18 20-7 48-11 84-13 33-1 109 0 229 4M280 855c18-11 24-19 19-25-6-5-17-6-33-3-36-52-71-96-105-132-48-54-98-97-151-131l-10 9c46 34 90 80 132 136 36 50 70 107 104 171l44-25m24-204c15-11 22-19 18-25-3-4-13-7-30-7l-21-30c-19-28-34-48-43-61l-42-58c22-5 33-9 35-15 0-4-8-9-26-14V62l1-27c1-10 0-16-2-18-2-4-8-8-18-12-13-4-20-5-22-4s-2 7-2 18l2 26v396c-17-21-37-41-58-61-26-23-54-44-84-63l-12 6c54 45 102 97 145 156 31 44 71 109 118 195l41-23Z"/></symbol><symbol id="𭛧_J" viewBox="0 0 1000 1000" data-size="21"><path transform="matrix(1 0 0 -1 36 949)" d="M643 399c38-59 83-112 135-158 40-35 90-72 150-110-21-19-38-38-49-57-104 84-186 181-247 291V0h-59v317c-37-56-80-107-131-152-39-36-88-74-148-114l-13 21c118 99 211 208 278 327H320l-11 25h264v141H375l-9 25h207v134H354l-10 25h229v148c68-3 103-12 103-24 0-8-15-17-44-27v-97h147l48 62c24-23 45-46 63-68l-11-19H632V590h115l48 63c25-23 46-45 64-67l-12-21H632V424h162l51 66c25-23 47-47 66-71l-11-20H643m-479 39c-47-56-95-105-146-146L0 311c98 97 186 226 265 386 49-21 73-38 73-51 0-10-13-15-41-15-30-51-61-99-93-142 38-5 56-14 56-25 0-8-12-16-38-24V0h-58v438M30 579l-17 20c97 79 177 177 240 295 54-22 81-40 81-53 0-9-15-14-44-14-67-95-153-177-260-248Z"/></symbol><symbol id="𭛨_S" viewBox="0 0 1000 1000" data-size="21"><path transform="matrix(1 0 0 -1 40 962)" d="m830 671 4 3h1l27 23 58-48-26-15-17-7-27-37-41-50-50-56-8 6 12 23 53 118 7 15 1 3H701l-4-94-9-84 5-32 12-54 15-51 16-47 21-43 23-40 27-36 29-32 33-31 52-38-57-44-40 34-34 37-30 40-27 43-21 47-17 48-12 52-8 56-1 8-3-19-23-80-27-71-34-64-39-53-46-44-51-34-56-23-4 9 49 31 43 38 38 44 32 53 27 59 22 69 17 76 12 85 6 95 2 90h-59l-16-26-22-34-24-32-28-31-8 6 36 72 16 35 29 73 12 38 11 38 11 39 7 40 7 41 2 10 60-22 14-13-19-7-6-22-12-41-13-42-16-38-17-38-12-24h238m-591 83 54-33 10-17-20-1-35-61-52-76-24-33 27-4 16-10-16-10V35L136 4v485l-59-63-34-32-36-31-7 7 56 73 77 112 45 76 21 39 35 73 5 11m74-674 63-5-12-21-22-7-22 11-7 22m179 619L375 439l-56-109-11-20-25 28-24 22-7-6 16-27 21-47-2-3 4-3 11-28 7-26 5-28 3-27 1-27-1-29-4-29 63-5 1 33-3 33-5 32-8 30-9 29-8 18 11 23 44 106 34 90 34 105 34 121-9 4M224 925l48-40 7-18-19 1-47-52-45-45-50-43-55-41-30-20-6 7 109 128 53 72 35 51m142-222-5 13-11 26-17 26-9 12-23 26-14 10 5 8 34-13 16-9 14-10 15-10 14-11 12-14 11-14 11-14 10-16v-24l-18-17h-23l-18 17-4 14Z"/></symbol><symbol id="𭛩_J" viewBox="0 0 1000 1000" data-size="21"><path transform="matrix(1 0 0 -1 40 953)" d="M558 795H313l-12 25h470l52 67c27-24 50-48 69-72l-12-20H617V391h124l51 67c28-27 50-51 67-74l-12-18H617V57h180l57 70c25-23 47-47 65-72l-12-23H289l-13 25h282v309H330l-11 25h239v404M153 431c-41-49-86-94-136-135L0 315c103 105 188 235 254 391 52-21 78-39 78-52 0-9-14-15-42-17-29-54-60-104-92-148 31-7 46-15 46-23s-12-16-35-23V0h-56v431M23 582 7 600c94 89 168 192 220 307 51-22 77-41 77-55 0-9-14-14-42-14-60-96-140-181-239-256m659 129 18 14c52-36 92-75 121-118 23-33 34-60 34-82 0-25-12-38-35-38-17 0-29 13-36 41-14 56-48 117-102 183M329 451l-22 12c47 73 80 160 99 263 63-15 94-29 94-41 0-9-14-14-42-17-31-89-74-162-129-217Z"/></symbol><symbol id="𭛪_J" viewBox="0 0 1000 1000" data-size="21"><path transform="matrix(1 0 0 -1 50 947)" d="M505 698h278l36 43c40-31 60-51 60-60 0-5-3-9-8-13l-22-16V20h-56v61H500V20h-56v706c25-11 46-20 61-28m-5-25V504h293v169H500m293-568v177H500V105h293m0 202v172H500V307h293M135 416c-33-48-71-93-113-134L3 298c83 102 151 230 204 384 53-18 80-34 80-46 0-10-15-15-43-16-18-45-39-89-63-132 32-5 48-13 48-22s-12-18-35-27V0h-59v416m261 417h385l49 61c26-21 49-43 70-66l-11-20H384V491c0-198-46-362-138-490l-22 15c69 126 103 288 103 484v364c19-7 42-17 69-31M18 578 0 596c92 81 166 180 221 297 51-19 77-36 77-49 0-10-14-15-42-15-65-98-144-182-238-251Z"/></symbol><symbol id="𭛫_K" viewBox="0 0 1000 1000" data-size="21"><path transform="matrix(1 0 0 -1 57 933)" d="M873 594c8-9 12-16 12-21 0-7-7-10-20-10-7 0-15 0-25 2l-60-68-9 7 34 92H354c-3-50-16-86-37-106-9-9-17-13-24-13s-11 5-11 17c0 5 1 11 2 18 3 13 11 26 22 38s18 22 21 31c7 18 11 45 10 80l13 3c1-11 3-27 4-48h193v116H320v20h227v84l-3 30 50-12c17-7 26-13 26-17 0-5-10-12-31-20v-65h161l25 30c9 11 14 17 15 17 2 0 8-4 17-13l46-40-10-14H589V616h208l16 18c6 7 10 11 11 11 3 0 7-4 14-11l35-40m14-332-11-12H578V81c0-20-1-33-2-39-3-14-11-24-23-28L507 4c-9-2-14-3-18-3s-5 2-3 7c4 8 6 14 6 16 0 7-5 12-14 17l-90 29 1 9 93-18c14-4 24-5 31-5 9 0 16 3 18 10 3 7 4 20 4 39v145H250v19h285v61l-2 39 45-12 97 95H359v20h327l18 19c7 7 12 11 16 11 3 0 8-4 14-11l29-31c7-8 10-14 10-19 0-8-9-12-29-12-6 0-15 0-24 2l-125-76c9-6 14-11 14-14 0-5-10-12-31-21v-51h203l23 35c8 11 13 17 14 17 2 0 8-4 16-13l53-46M256 840c12-9 18-15 18-21 0-5-8-6-24-4-74-110-150-197-229-260l-9 8c80 74 151 175 211 302l33-25m22-199c13-9 20-17 20-22 0-6-9-10-27-13-18-36-48-85-89-145 13-9 19-16 19-22 0-3-7-9-20-19V46c0-5 0-10 1-15 0-5 1-8 1-10 0-7-9-14-27-18-4-2-8-3-10-3-6 0-9 4-9 13 0-6 1 5 1 33v361c-37-44-81-87-130-128l-8 10c114 122 195 248 243 377l35-25Z"/></symbol><symbol id="𭛬_S" viewBox="0 0 1000 1000" data-size="21"><path transform="matrix(1 0 0 -1 34 960)" d="m245 750 54-33 10-17-21-2-35-60-53-76-25-33 27-4 16-10-16-10V31L140 0v486l-62-64-34-32-37-31-7 7 85 112 52 74 46 75 41 78 17 34h-1l5 11m126 138 63-33h331l31 27 58-47-26-22V541l-63-32v63H628V367h152l53 53 63-53v-20H628V104l20-3 69-2 76 2 84 7 7-69-89-4-81 2-72 7-65 12-56 18-49 25-40 30-31 36-8 18-10-22-25-40-28-35-31-32-34-27-39-20-4 8 29 29 27 30 25 32 21 37 19 38 15 41 13 46 10 47 7 52 4 56 1 12 61-17 15-12-17-9-6-38-9-55-16-51-16-43 21-25 30-27 37-21 44-16 28-7v458H434v-37l-63-31v384m562-775-56-5v-7l1-2 1-13v-2l1-10 2-18v-2l1-10 1-5 49 74M765 835H434V593h331v242m-535 86 48-40 7-19-20 2-48-51-46-45-51-44-27-21-29-20-30-20-6 7 111 128 56 72 17 24 13 19 5 8Z"/></symbol><symbol id="𭛭_K" viewBox="0 0 1000 1000" data-size="21"><path transform="matrix(1 0 0 -1 53 954)" d="M891 380c-6-15-13-23-21-23s-18 13-29 41l-21 53-245-27V94c0-11 1-22 1-32 1-11 2-17 2-19 0-8-7-15-21-20-8-3-13-5-16-5-6 0-9 5-10 16 1-15 1 2 1 52v334l-247-24c-8-20-16-29-22-29s-11 7-15 22l-16 56c73 0 118 0 135 1 27 19 68 52 123 101-18 5-35 21-52 46-20 32-49 59-85 82l6 10c13-5 28-11 46-19 15 16 33 42 55 77 22 36 36 62 43 79-73-8-141-13-205-14l-4 12c227 18 388 48 483 89l37-34c13-10 19-18 19-23s-5-7-14-7c-10 0-27 3-49 9-70-16-152-26-246-30l33-28c9-8 14-14 14-18 0-7-13-10-40-9-26-30-63-67-111-109 35-19 58-32 69-42 13-11 19-22 19-34 0-7-1-16-4-26 80 66 142 125 186 177l37-34c14-12 21-20 21-25 0-6-13-9-39-8-133-102-238-176-314-223 215 7 354 14 418 20-20 34-45 68-77 103l6 7c59-47 98-83 119-108 22-24 33-46 33-66 0-6-1-13-3-21m-27-245c-4-21-11-32-20-32s-16 8-23 25c-21 58-76 121-167 191l6 8c88-50 145-88 171-114 22-22 33-48 33-78M442 309c15-8 23-14 23-19 0-6-12-10-34-11-74-96-143-163-208-203l-7 8c66 56 127 137 183 244l43-19M262 684c-47-86-87-151-118-196-42-59-90-111-144-156l11-6c30 19 58 41 84 64 21 20 41 39 58 60V45l-2-27c0-11 0-16 2-17s9 0 22 4c10 4 16 8 18 11 2 2 3 8 2 19l-1 26v389c18 5 26 11 26 15-2 5-13 10-35 15l42 56c9 14 24 35 43 63l22 30c16 0 26 3 29 7 4 5-3 13-18 24l-41 24m-27 206c-34-64-68-121-104-171C89 662 45 617 0 582l9-9c53 34 103 78 151 130 34 38 69 82 105 134 17-4 28-3 33 3s-1 14-19 24l-44 26Z"/></symbol><symbol id="𭛮_K" viewBox="0 0 1000 1000" data-size="21"><path transform="matrix(1 0 0 -1 59 949)" d="M260 652c15-10 23-18 23-24 0-7-11-12-33-14-20-30-40-59-61-85 7-7 10-12 10-16 0-2-7-10-20-25V47c0-5 0-10 1-15 0-5 1-9 1-11 0-8-9-14-28-18-4-2-8-3-10-3-5 0-8 4-8 13 0 11 1 22 1 34v409C90 414 47 380 6 354l-6 7c98 84 173 188 226 312l34-21m602 82c9-13 14-21 14-25 0-7-12-10-37-12l-62-96-10 4 34 118H384c-7-65-22-109-46-132-11-10-21-15-28-15-10 0-14 8-14 24 0 5 0 11 1 17 6 18 15 34 28 48s22 26 27 37c7 21 12 49 14 84l17-1c0-10 1-24 1-42h179v103l-3 51 47-13c20-6 30-12 30-18 0-5-10-12-31-19V743h189l18 25c7 9 11 13 12 13s6-5 14-16l23-31M254 877c15-9 22-16 22-22s-11-11-34-15c-61-82-137-153-228-212L4 638c50 42 89 79 116 111 37 42 69 91 96 147l38-19M883 74l-1-12c-22-10-34-22-36-35-2-9-10-15-25-15-97-4-182 6-256 30-76 36-146 88-210 157-24-36-43-85-58-147-3-13-8-20-15-20-5 0-10 6-14 17l-10 35c47 48 76 104 85 168 1 8 3 13 7 13 2 0 8-5 17-14 10-9 15-15 15-19 0-2-2-4-7-7-4-4-7-8-11-12l56-46c150 105 259 221 326 347H332v20h214v95l-5 48 47-9c16-3 23-8 23-16s-7-16-23-22v-96h158l18 19c6 6 11 10 13 10s8-4 16-11l26-33c6-6 8-11 8-15 0-10-14-15-43-16-79-123-196-234-353-333 72-56 149-88 232-96 20-2 39-3 58-3 60 0 114 6 162 18Z"/></symbol><symbol id="𭛯_S" viewBox="0 0 1000 1000" data-size="21"><path transform="matrix(1 0 0 -1 35 962)" d="m247 714 53-35 10-16-21-2-36-59-52-75-3-3h5V31L140 0v454l-29-31-33-33-35-33-36-30-7 7 85 110 55 79v1l21 32 44 75 21 39 21 44m147-233 62-31h294l31 27 58-48-26-21V95h-63v91H456V39L394 8v473M735 74l5 1 3 1 2 1 2 2 1 1 1 4v4l1 7h63l-1-14-2-13-4-12-7-12-9-11-11-9-11-5-13-4-13-3-13-1v32l-74 16v15h80m15 234H456V207h294v101m0 121H456V329h294v100M275 540v21h297v104H363v21h209v103H337v22h235v114l63-11 15-11-15-8v-84h119l53 51 62-51v-22H635V686h112l43 47 53-47v-21H635V561h200l43 47 53-47v-21H275m-45 374 51-38 8-17h-20l-33-43-48-58-54-56-60-53-31-25-33-23-7 6 101 122 67 89 59 96Z"/></symbol><symbol id="𭛰_S" viewBox="0 0 1000 1000" data-size="21"><path transform="matrix(1 0 0 -1 36 959)" d="M776 552H660v20h153l52 53 63-53v-20h-89V84l-1-13-2-13-4-12-7-13-9-11-10-7-12-7-13-4-13-3-13-1v32L650 48v15h112l4 1 5 2 1 2 2 5 1 5 1 6v468M209 743l56-32 9-16-19-2-31-59-46-75-23-33 25-4 16-10-16-10V36L117 5v471l-47-56-31-31-32-31-7 6 71 110 44 73 40 74 35 77 19 45m49-582v-1 1m-62 750 51-38 7-18-20 1-42-51-41-44-44-43-49-40-28-20-6 7 111 148 31 47 25 42h-1l6 9m654-55 52-47v-21H682v21h125l43 47M266 106l-20 62h8l58 87 39 64 36 72 34 79 7 18H246v22h189v220H277v21h158v168l63-11 16-10-16-9V751h36l53 53 63-53v-21H498V510h68l52 53 64-53v-22H495l-19-43-43-79-23-36-46-66-25-30-26-27-26-25-15-11 60 6 38 4 39 5 122 13 42 4 43 4 14 1-24 43-29 50-48 70 7 7 24-16 23-19 41-43 21-25 18-25 35-56 32-61v-25l-16-17h-25l-16 17-26 60-10 25-18-5-41-13-81-21-118-25-76-16-16-3-9-18-12 14m0 2v-2 2Z"/></symbol><symbol id="𭛱_K" viewBox="0 0 1000 1000" data-size="21"><path transform="matrix(1 0 0 -1 54 933)" d="M804 792H296v-20h237l-32-158H361l-52 35 4-43V63c0-30 2-45 4-45 3 0 9 3 19 8 16 6 23 13 23 22 0 2-1 12-3 28h446c-3-36-4-51-4-47 0-7 2-10 6-10 2 0 8 2 15 5 19 10 28 18 28 26 0-4-1 3-3 22v509c19 1 28 3 28 7 0 2-3 7-9 15l-24 19c-10 8-15 12-16 12-2 0-7-4-14-12l-7-8H517l56 128c25 4 37 9 37 15 0 5-8 10-26 15h301l7 12-38 38c-9 7-14 10-16 10-3 0-8-4-15-13l-19-27m-2-198V96H354v498h448M252 840c12-9 19-15 19-21 0-5-10-9-28-12C172 702 97 618 21 555l-9 8c78 74 147 175 207 302l33-25m22-199c13-9 20-17 20-22 0-6-9-10-26-13-19-36-49-85-90-145 13-9 19-16 19-22 0-3-7-9-20-19V46c0-5 0-10 1-15 0-5 1-8 1-10 0-7-9-14-27-18-4-2-8-3-10-3-6 0-10 4-10 13 0-6 1 5 1 33v361C96 363 55 320 8 279l-8 10c111 122 191 248 239 377l35-25m371-194H497l-53 35 4-57V238l-2-33c0-13 0-21 2-23 3-3 11-2 24 3 11 5 17 11 19 15 2 3 3 9 2 20l-1 27h169l-1-28c0-15 0-24 2-28 3-3 11-3 25 1 9 5 15 9 17 13 2 3 2 11 1 24l-1 39v151c16 0 25 3 26 9 2 6-3 13-16 21l-43 32-26-34m15-17V263H492v167h168Z"/></symbol><symbol id="𭛲_S" viewBox="0 0 1000 1000" data-size="21"><path transform="matrix(1 0 0 -1 38 961)" d="m316 752 51-38 7-18-20 1-45-62-32-38-33-37-29-31 30-4 16-10-16-10V31L183 0v498l-49-45-40-32-43-32-45-31-6 8 74 75 70 75 33 38 59 76 53 78 27 44M812 21l-49 17-46 23-42 26-30 24-35-22-50-26-55-22-59-18-62-11-3 9 59 22 54 24 49 27 45 29 24 20-12 12-33 40-28 45-25 50-18 47h-72l-2-40-4-42-7-40-9-37-9-35-14-32-15-29-17-26-20-22-21-18-7 6 13 24 11 25 10 26 9 28 8 30 4 33 5 34 2 38 1 39-1 43v183l64-32h347l43 48 53-48v-20H425V358h339l31 26 58-47-27-16-12-5-14-31-29-48-35-43-37-39-13-10 18-13 39-20 41-15 43-12 98-15-63-60-50 11m-55 316H509l24-36 31-43 33-38 34-34 15-13 18 16 31 39 28 41 23 43 11 25M414 913l64-31h285l31 25 58-47-27-20V563l-62-33v33H478l-64-33v383m349-197H478V583h285v133M297 923l44-45 5-19-21 4-60-53-57-44-62-43-70-41-36-19-6 8 145 129 50 49 66 72 2 2m466-63H478V736h285v124Z"/></symbol><symbol id="𭛳_J" viewBox="0 0 1000 1000" data-size="21"><path transform="matrix(1 0 0 -1 42 947)" d="M520 277H272l-10 25h261l2 37v86H322l-10 25h213v102c62-3 93-12 93-26 0-8-12-16-35-25v-51h154l44 55c25-21 45-42 61-61l-11-19H583v-86c0-9-1-21-2-37h199l48 60c24-21 45-43 63-65l-11-20H588c76-105 186-173 329-203-20-19-34-38-42-58-137 39-237 118-302 236C542 116 432 32 245 0l-13 24c170 42 266 126 288 253M135 416c-33-48-71-93-113-134L3 298c83 102 151 230 204 384 53-18 80-34 80-46 0-10-15-15-43-16-18-45-39-89-63-132 32-5 48-13 48-22s-12-18-35-27V0h-59v416M18 578 0 596c92 81 166 180 221 297 51-19 77-36 77-49 0-10-14-15-42-15-65-98-144-182-238-251m546 0c-18 0-28 11-29 33-3 45-22 86-58 125l15 15c73-41 109-85 109-134 0-26-12-39-37-39m-157-45c-17 0-26 9-29 29-7 47-31 93-72 136l15 18c82-48 123-97 123-145 0-26-13-38-37-38m264-17-22 13c46 80 82 164 110 252 60-27 90-48 90-62 0-9-15-13-44-13-36-64-80-128-134-190M289 747l-9 26c196 23 368 61 515 113 46-30 69-51 69-63 0-6-6-9-16-9s-23 2-40 7c-160-35-333-59-519-74Z"/></symbol><symbol id="𭛴_K" viewBox="0 0 1000 1000" data-size="21"><path transform="matrix(1 0 0 -1 57 933)" d="m886 526-6-13c-20 4-35 2-44-7-1-3-3-6-5-9-1-3-3-4-6-4-6 0-18 6-36 19-45 32-89 76-134 131-44 54-78 100-100 137-40-67-83-125-130-176-46-49-106-98-178-148l-10 10c119 79 215 205 290 379l58-18c16-4 23-9 23-14 0-6-11-15-34-27 32-47 74-95 126-144s114-88 186-116m-167 15-7-12H382v20h248l23 27c8 9 13 14 14 14 2 0 7-3 16-10l36-39m111-124c8-7 12-13 12-18 0-8-11-13-31-14V115c0-39-1-62-3-68-3-10-13-19-32-26-15-8-27-11-34-11-6 0-10 6-12 18 0 12-5 20-15 23l-58 14 1 11 66-6c8-1 15-2 19-2 13 0 20 6 24 16 1 5 2 16 2 32v142H653V105c0-20 0-33-2-38-2-7-7-13-17-15-7-2-11-2-14-2-4 0-7 3-8 11 0 2-1 15-1 39v158H495V107c0-24-1-39-2-43-2-7-9-12-20-16-6-2-10-3-13-3-5 0-7 4-8 12v201H342V65c0-26-1-41-2-44-1-5-8-11-19-16-8-3-13-5-15-5-5 0-7 4-7 11v410l-5 39 50-29h410l13 14c7 9 12 13 14 13 3 0 8-3 17-10l32-31m-61-139v133H653V278h116m-158 0v133H495V278h116m-159 0v133H342V278h110M261 840c11-9 17-15 17-21 0-5-9-9-27-12-74-105-151-189-230-252l-9 8c81 74 153 175 215 302l34-25m21-199c14-9 21-17 21-22 0-6-9-10-28-13-21-36-52-85-93-145 13-9 19-16 19-22 0-3-7-10-20-19V46c0-5 0-10 1-15 0-5 1-8 1-10 0-7-9-14-27-18-4-2-8-3-10-3-6 0-9 4-9 13 0-6 1 5 1 33v361c-37-44-80-87-129-128l-9 10c114 122 196 248 247 377l35-25Z"/></symbol><symbol id="𭛵_S" viewBox="0 0 1000 1000" data-size="21"><path transform="matrix(1 0 0 -1 27 961)" d="m277 751 52-35 9-18-20-1-41-60-27-38-57-70 29-4 15-10-15-10V31L158 0v491l-72-70-39-32-40-30-7 7 96 112 58 75 52 75 47 79 21 39 3 5m329-368H495v-16l-62-31v331l62-32h285l33 26 57-47-26-21V362l-64-31v52H670V84l-1-13-2-13-5-13-7-12-8-11-10-8-12-7-13-4-13-2-13-1v31l-84 16v16h90l5 1 5 2 2 2 1 5 1 5v305m-120-85 56-31 10-17-20-2-6-11-34-53-19-27-42-48-23-22-25-22-26-19-27-18-7 7 59 74 35 50 16 26 14 26 26 53 13 34M866 86l-26 47-30 45-66 87-18 22 6 8 25-15 23-17 44-36 40-42 36-44 34-48 2-25-15-19-24-2-19 15-12 24m-86 528H495V404h285v210M260 922l47-43 5-18-20 3-29-30-49-46-82-64-30-22-65-39-6 8 149 152 60 73 20 26m70-183v21h276v157l64-11 16-10-16-9V760h160l53 53 63-53v-21H330Z"/></symbol><symbol id="𭛶_K" viewBox="0 0 1000 1000" data-size="21"><path transform="matrix(1 0 0 -1 52 940)" d="M473 688c9 18 18 38 26 60 7 21 14 43 22 68H421l-106-3-6 21 95-3h104l32 26 40-29c12-8 16-14 14-18-4-5-13-8-29-8-9-25-18-49-28-70-10-22-21-44-32-64 25-15 44-29 57-42 14-13 24-26 27-39 1-15 0-26-4-33-7-8-17-5-31 12-9 11-19 23-32 35-11 12-24 24-39 37-19-27-43-52-70-74-24-22-54-43-89-65l-11 9c32 24 60 48 83 72 25 26 45 53 63 81l-94 72 8 10 100-55m-9-429c9 20 18 42 27 66 8 20 16 43 24 69H415l-61-3-7 21 51-3h104l33 33 43-32c13-10 17-18 13-24-4-4-15-7-31-8-8-23-18-47-29-70l-33-69c26-16 46-30 61-43 15-15 25-28 28-40 1-17 0-28-4-34-7-7-17-4-31 11-9 13-20 25-32 36-13 14-27 27-41 39-27-39-58-74-94-105-38-35-81-65-130-90l-8 12c46 30 86 62 119 96 34 34 62 71 84 112-13 11-27 23-42 34-14 12-29 23-45 33l8 11 93-52m232 571h87l31 26 40-29c13-8 17-14 14-18-2-5-11-7-26-7-12-30-23-57-33-80-12-25-25-48-38-68 23-15 41-29 53-41 14-14 22-27 26-39 2-16 0-27-4-34-6-7-17-4-32 12l-29 35c-12 14-24 26-36 37-20-24-42-47-66-68-25-20-53-39-83-58l-10 9c29 22 55 44 76 67 22 22 42 47 60 73l-45 36c-19 12-36 24-54 35l7 11c19-9 38-19 55-28 19-10 36-19 51-29 12 21 22 43 31 68 9 23 17 48 25 75h-83l-106-3-9 22 98-4m-41-420h135l34 33 41-31c14-9 18-17 14-23-4-5-14-7-31-7-13-38-27-74-44-107-19-36-40-69-63-99 20-22 44-43 71-61 24-17 52-32 83-45l1-18c-14 2-28 1-39-4-10-4-19-12-26-21-23 19-44 37-61 54-21 22-38 44-51 68-25-27-51-51-79-73-30-22-63-42-97-60l-9 11c35 22 67 46 95 69 27 25 51 52 72 79-17 30-31 63-43 99-12 37-21 78-27 122l-35-3-7 20 66-3m17-14h-26c5-39 15-74 28-107 12-31 27-60 46-86 18 28 34 59 48 91 13 31 25 65 35 102H672M279 855c18-11 24-19 19-25-5-5-16-6-33-3-36-52-71-96-105-132-48-54-98-97-151-131l-9 9c45 34 89 80 131 136 36 50 70 107 104 171l44-25m24-204c15-11 22-19 18-25-3-4-13-7-29-7l-22-30c-19-28-34-48-43-61l-42-58c22-5 33-9 35-15 0-4-8-9-26-14V62l1-27c1-10 0-16-2-18-2-4-8-8-18-12-13-4-20-5-22-4s-2 7-2 18l2 26v396c-17-21-37-41-58-61-26-23-54-44-84-63l-11 6c54 45 102 97 144 156 31 44 71 109 118 195l41-23Z"/></symbol><symbol id="𭛷_S" viewBox="0 0 1000 1000" data-size="21"><path transform="matrix(1 0 0 -1 35 962)" d="M443 68V31L381 0v421l62-31h397l32 26 58-48-27-20V47l-63-31v52H443M302 754l52-37 7-18h-20l-43-61-31-38-60-69 29-4 16-10-16-10V33L174 2v495l-44-41-40-33-41-32-43-30-6 7 104 112 64 76 57 76 51 77 26 45m308-533H443V89h167v132m230 0H674V89h166v132M610 368H443V241h167v127m230 0H674V241h166v127M444 759l64-31h268l32 26 57-48-26-20V505l-63-31v62H508v-62l-64-33v318m332-53H508V558h268v148M283 925l45-45 5-18-20 3-33-30-80-67-59-43-67-41-35-19-6 8 113 103 73 75 43 47 19 24 2 3m576-20 64-52v-22H382v22h426l51 52Z"/></symbol><symbol id="𭛸_S" viewBox="0 0 1000 1000" data-size="21"><path transform="matrix(1 0 0 -1 35 961)" d="m829 13-38 14-34 19-31 22-28 27-25 29-22 32-17 36-15 38-10 42 4 2h-13l-19-51-28-53-32-47-39-39-42-32-47-26-51-16-56-10-2 9 51 19 45 24 40 28 35 32 29 38 27 43 21 49 10 32H285v21h263l14 63 8 67 1 12 62-19 14-12-18-9-9-50-14-52h193l53 53 62-53v-21H620l20-34 21-33 22-29 23-26 25-21 26-19 28-15 30-13 32-9 84-15-63-59-39 12M114 456l-34-33-35-32-38-31-7 7 89 112 54 74 48 76 44 77 18 36h-1l6 10 53-35 9-17-20-1-13-22-52-77-53-70 28-4 16-10-16-10V32L146 1v488l-32-33m219 35-4 9v1l-1 5 44 9 25 6 47 9v106H336v21h108v121H324v21h120v110l64-11 15-9-15-10v-80h20l43 47 52-47v-21H508V657h22l33 37 42-37v-21h-97v-93l43 8 36 6 39 6 2-9-70-31-50-18v-95l-64-31v102l-78-28-6-20-13 12-3 7v1l-1 3v2l-4 12-1 3v1l-2 4v1l-3 10v2m479 28 58-24-6-13-7-10-7-11-9-9-11-8-11-6-11-5-13-3-13-3-13-1v32l-75 16v15h81l6 2 6 1 4 2 4 2 4 3 3 3 4 5 3 5 3 7m47-20-1 1h-2l-1 1-23 9-8 4-4 1-8 4 3 11 4 18 4 20 3 26 4 30 2 33 2 38 1 41 1 45v39h-63l-3-46-7-51-9-49-12-45-14-42-16-37-20-34-21-31-25-26-27-21-6 7 18 28 16 28 15 30 13 33 11 38 8 39 7 43 5 45 4 50v41h-68v21h194l31 26 58-47-26-16v-24l-3-88-1-39-2-35-4-31-3-28-5-24-5-21-6-19-11 4m-531 7 19-61-30 57 11 4m-86 416 47-41 6-18-20 2-73-75-51-44-54-43-31-19-31-20-7 7 118 129 59 72 34 47 3 3Z"/></symbol><symbol id="𭛹_S" viewBox="0 0 1000 1000" data-size="21"><path transform="matrix(1 0 0 -1 32 960)" d="m194 749 56-30 11-16-20-3-29-60-22-38-44-73 25-4 16-10-16-10V31L107 0v475l-41-52-28-32-31-32-7 6 87 148 39 75 35 76 33 85M852 88l-26 23-25 25-23 26-22 26-21 30-18 29-18 31-15 33-11 28V31L610 0v280l-9-15-27-36-28-32-32-30-35-28-36-27-39-24-41-21-45-19-5 10 40 26 36 27 34 29 31 29 28 29 26 31 24 33 21 33 17 34 6 12H385v21h225v126l63-10 15-11-15-9v-96h132l51 53 64-53v-21H687l60-71 46-48 48-43 25-21 71-48-58-44-27 22M274 698l63-10 16-11-16-9V157l-63-31v572m538-235-50 24-47 28-41 31-9 8-19-15-47-31-52-28-57-24-60-19-66-16-3 9 62 25 56 26 51 30 47 30 42 33 12 11-26 28-26 37-21 40-16 42-3 14-8-18-19-39-22-35-23-34-26-32-28-31-31-30-7 6 63 106 17 35 17 36 13 36 13 37 12 38 9 38 6 39 2 11 60-22 14-14-19-7-6-21-13-40-6-18h237l53 53 62-53v-20H791l29-17 11-16-19-3-17-31-30-45-36-43-24-23h1l39-25 44-21 48-20 90-31-61-53-54 24m-53 304H549l14-26 21-36 25-32 29-30 27-24 24 28 30 41 23 41 17 38m-538 98-38-52-39-43-42-45-47-41-26-21-7 7 102 150 29 48 26 47 4 5 50-37 8-18h-20Z"/></symbol><symbol id="𭛺_S" viewBox="0 0 1000 1000" data-size="21"><path transform="matrix(1 0 0 -1 35 971)" d="m519 601-136-16-3 20 139 17v105l63-11 16-11-16-9v-67l88 10 47 59 68-46 3-20-206-24v-70l1-2 1-2 1-2 2-1 4-2 5-1 7-2h222l26 90h10l-10-90 15-9 11-16-11-17-15-9H681l1-1-16-10v-58h129l31 27 58-48-27-21V162h-62v223H666V31L604 0v385H474V113l-63-31v356l63-32h130v69h-14l-13 2-13 3-11 6-10 8-9 9-7 12-5 11-2 14-1 13v48M221 768l54-33 10-16-20-2-33-61-47-76-24-33 26-4 15-11-15-10V49l-63-31v480l-51-59-32-32-34-30-7 7 75 110 47 74 41 76 37 78 17 39 4 7m621-10 3 4 1-1 27 23 58-48-27-15-18-8-34-40-20-22-10-9-9-12-7 5 5 12 3 15 13 39 4 13 7 22H375V422l-2-54-5-51-6-47-8-45-10-41-12-38-15-35-16-31-19-26-20-24-8 6 11 27 10 29 10 31 8 33 7 37 6 39 4 43 3 46v468l62-31h166v183l63-10 16-10-16-10v-49h132l43 48 52-48v-20H604v-84h238m15-596v-14l-2-12-4-14-7-11-8-10-11-9-12-7-12-4-14-3h-14v31l-51 16v16h51l7 1h5l3 1 2 2 2 1 1 1 1 4 1 4v7h62M206 938l50-39 8-17h-21l-43-52-65-66-49-43-26-21-29-19-6 7 117 151 33 48 31 51Z"/></symbol><symbol id="𭛻_K" viewBox="0 0 1000 1000" data-size="21"><path transform="matrix(1 0 0 -1 24 949)" d="M576 848c9-10 12-17 7-20s-18-2-39 4c-17-4-31-8-42-10-16-4-31-8-44-11 19-5 25-10 20-16-4-4-15-8-32-12V627h61l37 34 42-30c8-6 11-10 8-13-3-4-9-5-19-5H446v-87c39-33 66-58 83-76 22-26 33-49 33-69-1-22-7-34-19-35-11-2-19 7-23 25-5 20-13 40-24 62-13 23-30 47-51 73V76l1-16c2-9 1-15-1-19s-10-8-23-11c-11-2-18-2-21 0-2 1-2 6-2 14v427c-20-52-45-101-74-147-24-40-52-81-84-122l-11 8c31 51 61 109 91 174 35 77 62 147 80 209v20h-73l-95-4 17 20 64-2h87v171l-61-11c-26-4-48-7-66-9l-3 10c40 9 84 21 131 38 53 17 98 36 136 57l38-35m84-164c3-62 2-109-1-143-4-35-13-70-28-106-8-13-14-17-20-13-7 5-13 20-17 47 0 11 1 20 4 26 1 5 4 11 9 17 8 14 14 30 19 46 8 29 14 71 19 126h15m108 172c17-3 27-7 28-12s-8-10-26-15l-1-64c-2-57-3-99-3-125-2-43-3-82-5-116l45 79 61 116 46-20c11-6 14-11 12-15-3-5-14-7-33-8-17-26-38-57-65-93-25-34-47-63-68-88l-6-58v-3c28-97 54-170 77-219 33-69 74-121 121-157l1-14c-15 2-28 0-41-4-11-3-19-7-25-13-32 50-57 102-77 155-24 62-44 133-61 214-14-87-39-161-77-222-37-61-89-113-156-157l-7 11c66 53 114 108 143 166 30 58 51 141 64 247 4 39 7 94 8 162 1 77 0 164-4 261l49-8M133 449c-16-19-34-39-54-58-20-20-42-39-64-58l-6 7c34 35 70 79 106 134 41 64 76 130 105 198l46-26c19-9 25-16 19-20-4-2-15-4-34-4l-37-61c-14-22-26-40-35-52 22-8 31-15 26-19-3-4-12-6-26-6V36c0-14 0-22-2-25-3-4-10-8-23-10-11-1-19 0-21 2s-2 9-1 20l1 19v407m108 428c23-11 32-20 28-24-3-4-14-5-35-2-40-43-75-80-106-109-46-43-86-75-120-96l-8 7c38 35 75 72 110 112 42 49 74 93 95 133l36-21Z"/></symbol><symbol id="𭛼_S" viewBox="0 0 1000 1000" data-size="21"><path transform="matrix(1 0 0 -1 55 966)" d="m716 910 6 11 52-33 10-17-20-2-70-108-12-18-3-5h96l53 52 63-52v-21H646l-26-47-17-31-21-29-12-14-11-14-1-1h193l31 26 58-46-27-22V47l-62-31v52H489V31L427 0v613l62-32h54l3 8 33 117 3 11H353v21h312l8 33 5 19 23 74 16 46h-1M276 762l53-35 9-18-21-1-40-61-28-38-57-69 29-4 15-11-15-9V42l-63-31v491l-73-70-38-33-41-29-6 7 96 111 57 75 53 76 47 79 20 39 3 5m475-521H489V89h262v152m0 167H489V262h262v146m0 153H489V430h262v131M260 933l46-43 6-18-20 3-30-30-49-46-82-65-29-21-66-39-5 8 148 152 60 72 15 20 6 7m255-151-2 15-3 15-6 28-13 42-5 14-6 14 7 5 23-21 11-12 9-13 18-26 15-30 7-14 7-16-4-23-18-15-25 3-14 20-1 14Z"/></symbol><symbol id="𭛽_S" viewBox="0 0 1000 1000" data-size="21"><path transform="matrix(1 0 0 -1 51 960)" d="m243 750 54-33 10-17-20-1-36-61-25-38-51-71 26-4 16-10-16-10V31L138 0v486l-28-31-32-33-34-32-37-31-7 7 84 112 51 74 23 37 44 77 38 78 3 6m13-736v21h97v325l-39-35-29-22-30-22-7 7 108 137 36 50 30 47 13 24 3 4 49-38 9-18-20 1-24-29-40-47-46-47-9-8 53-26h321l33 26 57-47-26-21V35h27l33 37 42-37V14H256m219 303h-65V35h65v282m128 0h-71V35h71v282m128 0h-66V35h66v282m79 14-28 23-49 48-20 26-20 25-16 26-15 28-11 28-3 9H484v20h134l24 33 31-33v-20h-2l36-42 21-22 21-20 46-38 53-37 49-31-58-44-29 21M445 826l50-39 8-17-21 1-25-31-20-22-44-41-49-37-26-17-27-16-29-13-5 8 85 86 38 42 33 45 29 46 3 5m359-188-27 20-24 23-23 22-20 25-18 24-16 26-14 27-11 28-3 9H472v20h138l24 32 31-32v-13l42-48 20-21 19-19 23-19 22-17 50-34 50-29-59-45-28 21m-151 83 63-53v-22H433v22h168l52 53M228 921l48-40 7-19-20 2-47-51-46-45-51-44-55-41-31-20-5 7 110 128 55 72 17 24 13 19 5 8Z"/></symbol><symbol id="𭛾_S" viewBox="0 0 1000 1000" data-size="21"><path transform="matrix(1 0 0 -1 20 966)" d="m857 63-41 41-36 45-33 54-20-34-43-56-48-46-53-39-58-28-4 8 50 37 45 43 41 48 36 53 32 62-26 64-18 66-15 68-9 74-1 37-12-24-23-37-24-35-9 4 44 122 26 86 23 92 9 48 9 50 9 62 61-21 13-13-17-7-7-33-12-50-14-49-14-47-14-38h130l53 53 63-53v-21h-72l-12-91-17-93-24-85-27-78-21-44 18-29 32-44 34-39 38-33 61-41-59-45-44 36M206 758l55-31 10-16-19-2-31-62-22-38-46-71 25-4 16-11-16-9V40L115 9v477l-45-54-31-34-31-30-8 6 93 147 41 76 36 76 36 85m209-419-12-38-7-23-38-88-20-42v-1l9-18-19-1-29 18-5 3-20 12 106 152 28 40 7-3v123l-16-16h-24l-17 17-7 27-5 15-11 28-14 30-15 32-10 15 7 7 13-13 15-11 26-25 23-26 11-14 17-28 7-10v217H272v20h143v195l63-11 16-10-16-10V738h41l52 53 63-53v-20H478V461l74 150 10 23 2 6 52-36 9-17-20-1-30-43-28-36-27-31-15-15-27-23v-80l1 2 35-28 16-15 29-31 26-34 12-17 21-36v-24l-15-18h-24l-18 17-13 35-8 19-16 35-40 72-6 11V93l-1-13-2-14-4-12-7-12-9-11-10-9-12-6-13-4-13-2-13-1v31l-63 16v15h63l6 1 5 1 4 2 3 2 1 5 1 5 1 6v246M274 161l54-33-59 24 5 9m541 488H695l-28-66 12-56 18-71 20-65 23-60 9-18 26 82 18 82 14 88 8 84M192 929l51-38 8-18-21 1-21-29-38-45-42-45-46-43-25-21-28-19-7 7 92 127 48 71 25 43 4 9m330-108-1 13-5 23-4 12-7 22-5 10-4 11-7 9 6 7 10-7 11-7 10-8 10-9 18-20 9-12 7-12 8-13 7-15-4-23-18-15-24 2-15 20-2 12Z"/></symbol><symbol id="𭛿_K" viewBox="0 0 1000 1000" data-size="21"><path transform="matrix(1 0 0 -1 32 945)" d="M286 396h24l27 251 30-26h164l29 29 37-35c13-12 18-21 16-26s-13-8-31-9l-8-184h17l22 42 42-38c7-6 9-11 6-14-2-4-8-6-15-6h-73c-2-44-5-83-9-116-3-38-8-71-14-100l34-1 31 39 36-36c7-5 9-10 6-14-2-3-8-5-15-5l-95 1c-10-37-22-69-37-93s-34-42-58-54c-2 17-7 28-14 34-10 8-34 20-73 36l2 10c50-12 84-14 100-7 17 7 31 32 44 74H318l-3-27-1-16c-1-9-3-15-4-19-4-5-9-10-16-14-10-4-16-4-18-1-1 3-1 10 1 22l3 15 28 272h-10l-53-3-11 22 52-3m288 392 42-39c7-5 9-10 6-14-2-3-7-5-16-5H361l-1 5c-22-37-59-75-112-116l-9 9c10 5 29 27 57 64 28 39 57 102 88 189l32-22c17-11 25-19 23-23-1-3-11-5-27-4l-46-86h177l31 42M367 605l-22-208h193l1 32c2 36 3 64 3 84 1 33 2 64 3 92H367m32-36c24-13 45-29 63-49 18-21 30-41 35-61 6-18 4-31-5-39s-17-1-24 20c-4 14-12 32-24 54-15 26-31 49-49 69l4 6m3-223c19-15 36-33 52-52 16-22 27-45 33-69 4-17 2-29-6-37-9-9-16-4-21 14-5 22-13 42-22 63-10 22-23 46-39 71l3 10m332 527c17-9 25-16 24-19-1-4-11-7-28-9l-20-97c-7-31-15-59-22-86h173l28 41 39-37c8-6 10-10 7-14s-8-6-16-6h-49c5-7 7-12 6-14-2-1-7-2-16-2h-5c-12-91-24-165-36-222-14-65-31-120-50-166 18-34 41-66 68-96 27-28 60-56 100-84V50c-12 2-22 0-33-5s-19-14-25-25c-31 35-56 66-75 93-21 30-39 61-54 93-26-47-60-87-101-119-40-31-91-59-154-84l-4 11c58 24 107 57 148 99 37 37 68 82 94 135-15 38-29 83-41 137-11 50-22 114-35 192-8-19-17-40-29-62-9-20-21-42-35-68l-8 5c29 65 54 138 73 222 13 58 26 130 38 218l38-19M344 380l-24-216h195c4 25 8 55 12 91s7 77 9 125H344m404-96c20 52 35 112 46 179 6 50 13 111 19 183H682l-17-49c12-71 25-130 37-175 14-53 29-99 46-138M240 872c19-10 27-18 25-23-3-5-14-6-35-4-32-37-65-72-98-105-42-42-83-77-123-104l-9 9c39 35 76 74 111 116 35 43 66 87 92 131l37-20M123 438l-53-54-59-56-8 10c40 46 76 95 109 145 33 52 66 112 100 182l49-26c15-7 21-13 15-18-5-4-18-6-37-7l-37-58-32-48c19-9 26-16 21-21-3-3-12-5-26-7V42c1-12 1-20-1-23-3-6-11-12-24-16-11-3-17-3-19-1-1 1-2 7-1 17l3 24v395Z"/></symbol><symbol id="𭜀_K" viewBox="0 0 1000 1000" data-size="21"><path transform="matrix(1 0 0 -1 47 954)" d="M435 735h72l37 41 46-36c7-6 10-11 6-15-3-3-9-5-18-5H435v-97h57l25 30 41-30c19-15 28-25 27-32-1-6-10-9-27-9V380c2-8 1-13-1-16-2-5-9-9-19-12-14-4-22-4-26-1-2 2-2 8-2 19l2 17h-77V279h62l36 37 41-37c7-6 9-10 5-14-3-3-10-5-21-5H435V151l73 20c27 7 53 14 77 21l4-10-88-31-87-30-128-46c-3-18-7-28-12-30s-11 6-17 24l-16 47c12 2 27 5 45 9 11 2 27 5 48 8l55 9v118H251l-4 19 60-4h82v112h-77l1-22c1-10 0-16-1-20-2-4-7-9-15-13-14-7-23-9-26-7-2 1-2 4-1 11l1 6v276l-2 35 48-30h72v97H256l-4 20 46-5h91v87l-6-1c-24-4-43-7-55-8-22-3-39-5-53-5l-5 9c40 6 82 17 126 33 52 19 89 38 111 58l46-29c17-11 23-19 17-23-7-4-25-5-53-3l-26-8c-9-3-16-5-21-6-7-3-14-5-20-6 8-6 10-10 8-14-3-5-10-7-23-8v-76M312 515h77v92h-77v-92m77-113v99h-77v-99h77m123 99h-77v-99h77v99m-77 106v-91h77v91h-77m405 63 41-32c18-13 27-24 26-31s-11-12-31-15l-10-226c-3-72-8-128-14-170-6-40-13-71-23-93-9-20-22-36-37-47-11-6-29-15-55-26l-1-1c-5 18-12 31-20 41-9 14-26 27-50 40l9 11c36-10 61-15 76-14 19 0 33 8 42 24 9 15 15 43 18 83 3 32 6 87 9 164l5 240h-77v-57c0-145-27-265-80-359-52-91-124-152-217-184l-5 5c93 48 159 118 197 210 36 85 57 214 64 385h-41l-51-5-8 25 59-5h41v49c0 27 1 49 1 66 0 29-1 59-1 90l-1 61 52-15c27-6 39-13 38-19s-13-11-38-17l-10-215h61l31 37m-622 8-34-67-31-60c21-4 32-9 33-13 2-3-5-8-21-13V23C148 9 137 1 130 1c-8-1-11 5-11 17v483c-18-22-36-44-55-64-16-17-34-34-54-51-5-2-9-2-9-1-1 2 1 5 5 11 37 46 71 98 102 154 31 54 57 113 80 175l59-37 10-10h-39m12 201c14-9 20-15 18-19s-15-5-37-3c-28-37-56-70-84-99-32-31-68-59-107-84l-5 6c39 36 70 69 93 98 30 36 57 76 81 119l41-18Z"/></symbol><symbol id="𭜁_S" viewBox="0 0 1000 1000" data-size="21"><path transform="matrix(1 0 0 -1 40 964)" d="m166 712 57-29 11-16-19-4-27-58-18-38-20-36-4-7h7V31L91 0v433l-29-41-27-34-27-30-8 5 74 146 17 37v8h4l42 104 13 37 13 39 3 8M829 67l-31 41-28 46-20 41-11-23-34-56-39-47-43-39-46-29-5 8 38 36 35 42 31 48 27 54 25 62-21 67-14 65-9 68-6 74-1 26-23-50-20-36-9 4 31 121 20 87 16 92 7 47 12 96 2 17 61-20 14-13-17-7-5-32-11-50-11-49-12-48-11-38h93l43 47 52-47v-22h-50l-8-90-15-92-19-85-21-78-17-45 15-33 25-43 28-38 30-34 44-39-57-42-35 36M253 466l63-31h169l32 26 57-48-26-20V53l-63-32v53H316V37L253 6v460m232-217H316V95h169v154m0 164H316V270h169v143m312 237h-83l-9-29-16-40 25-124 17-65 19-61 1-3 16 67 13 82 11 89 6 84M184 525v21h110v186h-75v22h75v156l62-10 16-10-16-10V754h89v156l63-10 15-10-15-10V754h19l24 31 31-31v-22h-74V546h13l43 48 53-48v-21H184m261 207h-89V546h89v186M154 912l55-32 10-16-19-3-41-71-37-58-41-54-22-28-48-49-9 5 66 121 45 87 27 61 11 30 3 7Z"/></symbol><symbol id="𭜂_J" viewBox="0 0 1000 1000" data-size="21"><path transform="matrix(1 0 0 -1 26 957)" d="M313 608h89v294c58-1 87-8 87-21 0-7-13-16-38-27V608h82l31 39c35-29 53-48 53-56 0-3-3-6-8-10l-19-16V98c0-50-27-75-82-74 0 18-8 32-25 40-12 5-32 12-61 18v25c37-6 70-8 98-8 14 0 21 7 21 23v461H305V6h-50v580c-13-17-21-26-22-27l-17 18c38 61 72 148 100 261 50-18 76-33 76-46 0-9-13-15-38-18-20-56-45-107-73-150l32-16m362-47c-15-54-35-108-60-161l-23 11c45 120 75 288 91 503 55-11 83-22 83-34 0-8-12-15-35-21-7-67-15-122-24-165h141l43 58c22-21 41-43 57-65l-10-18h-68c-3-93-11-170-22-230-13-67-31-129-56-185 34-67 84-131 149-191-18-15-33-32-44-52-51 54-93 118-128 193-22-44-49-82-79-115-25-27-58-57-100-89l-13 20c72 73 128 154 168 243-33 84-57 183-70 298m16 58c7-61 15-112 25-152 12-54 29-105 49-153 31 89 48 208 50 355H702c-1-9-5-25-11-50M402 480h42l27 42c33-29 50-48 50-57 0-3-2-7-7-11l-18-15V181h-47v58h-52v-73h-48v339c25-10 42-18 53-25m-5-24V264h52v192h-52m-291-50c-27-45-55-86-85-122L2 299c76 112 134 246 172 402 44-11 67-24 67-38 0-9-10-15-30-18-17-53-37-105-61-156 25-6 38-14 38-22s-11-16-32-24V6h-50v400M16 588 0 604c68 86 119 184 154 292 47-19 71-35 71-48 0-8-12-12-35-13-42-96-100-178-174-247m580 65c-13 0-24 11-32 34-20 52-49 95-88 129l12 19c92-48 138-97 138-148 0-23-10-34-30-34Z"/></symbol><symbol id="𭜂_K" viewBox="0 0 1000 1000" data-size="21"><path transform="matrix(1 0 0 -1 50 944)" d="m900 634-4-13h-77c-3-90-9-159-17-209-12-69-32-134-62-195 43-88 95-148 156-181l-1-9c-19 4-33 1-41-9-4-7-7-10-9-10-3 0-8 4-17 12-45 46-82 98-111 157C675 108 612 50 527 2l-5 10c77 51 136 120 177 207-35 90-57 216-66 380-2-2-15-19-40-51l-13 7c18 32 36 87 56 165 13 50 23 105 27 165l45-12c16-4 24-9 24-16s-10-15-30-23c-14-66-31-131-52-192h172l16 27c3 7 7 11 11 11s9-4 16-11l35-35m-124-13H648c9-145 33-264 72-355 34 98 53 216 56 355m-185 17c1-28-4-41-16-41-8 0-16 8-25 26-22 42-59 83-112 122l7 10c50-25 84-43 101-55 29-21 44-41 45-62M345 743c12-6 18-12 18-17 0-6-11-11-33-16-47-79-90-134-129-167l-10 10c21 19 42 51 65 95 22 43 38 81 49 116l40-21m225-223c9-8 13-13 13-17 0-3-7-9-21-19V105c0-20-1-34-2-41-3-12-11-22-24-29l-26-17c-11-4-19-6-25-6s-10 6-10 17-5 19-15 22l-51 15 4 10 65-11c5 0 10-1 14-1 18 0 27 12 27 36v405H280V59c0-24 0-38-1-40 0-3-7-7-20-11-9-3-14-4-17-4-4 0-7 3-7 10 0 2 1 7 1 16 1 9 1 18 1 25v449l-4 47 50-26h96v302l-5 44 48-13c17-5 25-12 25-18s-8-12-24-18V525h84l13 17c7 7 12 11 13 11 2 0 6-4 15-11l22-22m-90-132c7-9 10-16 10-20 0-2-7-6-21-12V162c-2-3-9-8-22-14-8-4-13-6-17-6-5 0-7 3-7 10 0 2 0 6 1 12 0 6 1 10 1 14h-69v-14c1-6 1-10 1-13 0-2-8-8-25-18-6-3-12-5-16-5-2 0-4 2-4 5 0 2 0 8 1 17v231l-3 41 50-24h62l11 13c7 6 11 9 11 9 3 0 8-4 16-12l20-20m-55-190v180h-69V198h69M205 873c16-6 24-11 24-17 0-7-12-12-36-14C145 742 83 657 9 587l-6 7c55 60 110 159 165 295l37-16m16-187c15-8 22-13 22-18 0-6-10-10-29-13-12-30-36-75-71-134 3-4 4-7 4-10s-1-6-4-9l5-405c0-12 1-25 1-38 1-14 1-22 1-25 0-15-7-25-23-30-8-3-13-4-16-4-5 0-7 6-7 18v32c1 17 1 34 1 49l-5 362c-32-38-62-71-91-97l-9 10c72 74 134 185 187 333l34-21Z"/></symbol><symbol id="𭜃_K" viewBox="0 0 1000 1000" data-size="21"><path transform="matrix(1 0 0 -1 58 937)" d="M857 764c14-17 15-25 4-25-4 0-12 2-24 5-25-15-61-31-108-47-2-18-6-31-10-39 39-22 66-38 79-48 19-15 30-33 31-51 2-21-2-32-11-32-7 0-16 9-25 27-17 36-44 66-81 89-33-75-79-124-140-150l-9 9c95 44 139 168 133 371l42-13c18-6 27-11 27-16s-9-10-26-15c0-52-2-90-8-115 36 17 71 42 106 74l20-24m-234-14c1-53-5-92-19-118-6-12-13-18-19-18-9 0-13 10-14 29 2 11 8 23 21 38 12 15 19 38 20 71l11-2m-40 37c10-10 15-18 15-24 0-4-4-5-11-5-5 0-13 1-24 4-45-29-81-50-109-63-1-18-4-32-10-41 36-26 60-47 73-61 16-20 23-41 22-63-3-20-10-30-20-30-4 0-14 18-29 54-16 42-34 71-52 86-14-32-33-62-58-90-24-28-48-47-72-60l-8 9c54 35 90 87 107 154 15 51 20 123 18 216l43-9c17-4 26-9 26-15s-9-13-26-21c0-52-4-89-11-110 42 32 77 62 106 92l20-23m-247-18c-1-37-3-63-4-78-3-26-7-49-15-67-6-18-15-27-25-27-12 0-18 13-18 41 2 11 11 26 27 46 13 17 21 46 22 87l13-2m536-301c8-7 12-12 12-17 0-10-13-14-39-13l-42-60-11 5 25 71H287c-1-54-10-91-25-111-10-11-18-17-25-17-8 0-12 8-12 23 0 6 0 13 2 19 1 7 10 24 26 51 14 22 20 51 19 88h14c1-10 1-21 1-33h525l10 16c5 8 9 12 10 12 2 0 8-4 17-12l23-22m-48-144c9-8 13-14 13-19 0-6-10-11-28-15 3-85-6-149-28-192-21-43-56-69-107-80L626 8c-7-1-12-2-16-2-7 0-10 2-10 8 0 1 0 4 1 8 0 4 1 7 1 9 0 9-4 15-12 18l-71 31 4 9 103-26c8-2 16-3 23-3 23 0 44 7 63 21s32 31 39 53c10 33 16 93 16 179H539c-15-89-52-160-112-213-57-51-130-82-220-96l-4 10c82 15 149 48 199 100 51 52 82 118 94 199H270v19h229c3 18 5 54 5 108l44-11c17-5 26-10 26-15 0-6-9-11-26-15 0-31-2-54-5-67h211l16 18c6 7 10 10 10 10 3 0 8-4 16-11l28-25M212 854c15-7 22-13 22-18 0-7-11-12-34-14C153 725 88 639 7 566l-7 7c63 64 122 164 176 300l36-19m20-220c16-7 24-13 24-18 0-6-10-10-29-12-12-30-36-74-71-132 9-2 14-4 14-7s-5-6-14-11V95c0-12 1-24 1-37 1-14 1-22 1-25 0-14-7-24-22-29-8-3-13-4-16-4-5 0-8 6-8 18 0 3 1 13 1 31 1 17 1 33 1 48v317c-30-38-65-72-102-101l-9 9c80 76 145 186 196 332l33-20Z"/></symbol><symbol id="𭜄_S" viewBox="0 0 1000 1000" data-size="21"><path transform="matrix(1 0 0 -1 29 960)" d="m126 482-53-60-32-32-34-31-7 7 101 148 45 75 40 76 38 85 54-33 11-16-19-2-58-99-49-71 26-4 16-10-16-10V31L126 0v482M450 96l56-30-7-11-8-10-9-10-9-9-10-6-12-6-13-5-12-3-12-2-14-1v31l-62 17v15h70l6 1 11 4 5 2 5 3 3 4 4 5 4 5 4 6m365-73-31 21-28 22-27 27-14 16-30-24-39-24-42-22-44-18-49-15-3 10 43 23 40 24 36 26 32 27 29 29-25 40-17 35-13 38-9 36h-43v21h193l32 26 57-47-26-16-9-4-8-20-19-39-24-37-26-33 15-14 25-19 27-16 29-15 62-26-60-50-34 18M450 96l56-30 6 13 4 15 4 16 3 20 4 21 3 25 6 57 3 33v10h2l26 16-58 48-31-27h-97l15 137h92v-50l58 30v149l26 19-55 47-29-27h-55l27 28 33 36 29 39 28 42 25 44 14 26 12 6 26 15 12-41 19-44 22-42 25-40 29-38 12-12-17-18h-62l-53 27V525h53v74h62V441h57v139l10 8 45-35 42-27 59 46-65 36-37 24-34 26-22 19 87 70 12 10 2 2 22-3-5 17-47 42-5-6h1l-17-29-63-92-27 29-26 32 45 40 24 24 23 22 23-1-8 18-50 39-4-9-2-6-18-37-42-78-19 26-23 39-21 41-22 45-9-3 10-49 1-5-57 46-28-24h-1l-2-2H340v-21h190l-29-64-22-40-26-39-6-8-2 14-9 12-23 23-12 10-12 9-27 15-13 6-15 5-13 6-5-8 11-9 19-21 15-22 14-22 17-36 19-15 14 2-28-32-31-34-33-32-36-30-38-30 5-8 44 21 42 26 39 27 20 18h79V472h-94l-54 35-35-305 65 25 9 65h99l-2-21-5-62-3-25-3-24-4-19-3-17-3-14-3-8-2-6m321 198H636l38-60 21-29 21-25 17 27 18 33 14 35 6 19M667 525l-2-25-5-23-5-24-8-20-8-20-11-18-11-17-13-16-16-11-16-12-5 6 11 14 9 16 8 16 7 17 4 17 4 18 3 20 2 19v22l-1 21h53m143-160h-13l-12 2-13 3-10 6-10 7-9 10-7 10-4 13-3 13v12h57v-12l1-4 1-2v-2l2-3 6-3 6-2 8-1h42l21 68h11l-10-69 14-9 9-13-9-15-15-9h-63M210 920l50-38 7-19-20 1-45-51-43-45-47-43-51-42-29-20-7 7 120 151 48 72 14 24 3 3Z"/></symbol><symbol id="𭜅_M" viewBox="0 0 1000 1000" data-size="21"><path transform="matrix(1 0 0 -1 35 959)" d="M179 918c31-10 58-21 80-31 4-4 6-8 6-12 0-7-6-11-18-13-13-2-22-4-28-4-17-20-35-40-56-58-20-18-41-35-62-49-23-14-51-29-84-44L0 718c29 19 53 36 72 53 17 14 32 31 46 48 16 18 30 35 40 51 9 14 16 30 21 48m58-111c32-11 58-21 80-32 4-4 6-7 6-11 0-7-6-11-17-13-13-3-23-4-29-4-20-28-44-55-70-81-9-8-18-17-27-24 28-12 42-21 42-28 0-6-11-14-33-22v-72c0-21 2-37 4-47 2-9 2-16 2-23 0-21-12-32-38-33-11 0-16 6-16 19 0 18 0 30 1 36 0 9 1 21 1 33v67c0 4-1 16-3 37l-12-9c-30-20-66-40-107-60L4 551c37 24 69 46 95 67 20 19 41 40 60 63 20 22 38 44 52 64 10 18 19 39 26 62m223 107c57-8 85-17 85-25 0-11-14-17-43-18-8-16-16-31-23-43 15-6 29-12 41-18 16-8 28-15 37-21 9-5 16-9 20-13 3-4 6-7 8-10s3-6 3-9c-1-20-8-29-22-29-3 0-6 0-8 1-4 2-10 10-20 23-10 12-22 24-34 34-9 8-21 16-35 25-6-9-12-17-17-24-15-19-35-40-59-62-22-23-50-43-85-62l-15 21c31 22 57 44 77 66 23 25 41 50 55 75 17 29 29 59 35 89m254 0c57-8 85-17 85-25 0-11-14-17-43-18-8-17-15-31-22-41 25-10 47-20 67-28 22-11 39-19 53-27 12-7 21-13 28-17 4-5 8-9 11-14 2-4 3-8 3-12 0-19-7-29-21-29-5 0-9 1-13 3-4 3-14 12-28 27-14 17-31 31-49 43-16 12-37 24-61 37l-4-4c-11-15-26-30-43-47-15-17-35-32-61-46l-14 20c20 17 38 35 51 52 16 20 28 39 36 58 13 22 21 45 25 68M564 705c30-5 55-11 75-17 7-2 10-6 10-10s-3-7-8-9c-7-5-15-8-24-11v-42h125l37 40c20-15 40-29 58-44 4-3 7-6 7-9 0-10-4-14-13-14H617V486c4 0 8-1 11-1 27-3 60-5 101-5 34 0 67 2 100 6 35 4 68 9 98 16l3-18c-28-5-44-18-48-40-36-4-70-6-104-6-67 0-117 3-148 7-36 4-63 9-81 15s-36 15-56 26c-17 12-33 27-49 46-9 11-18 22-25 35-1-2-1-3-2-4-11-18-25-35-42-52-16-17-33-31-49-42-17-11-39-24-65-38l-15 20c21 14 38 27 52 38 11 11 23 23 35 36 11 13 22 29 33 46 10 17 19 34 27 54 6 18 11 34 13 49 32-5 56-12 73-19 8-2 12-5 12-10 0-6-5-10-14-13-12-4-22-7-31-8-4-12-9-23-13-31 11-20 22-36 35-49 13-12 28-22 45-31 14-7 30-13 47-18l10-2v134c0 34-2 61-6 78M102 405l59-42h283v59c0 21-1 37-5 48 34-5 61-13 82-23 8-3 12-8 12-14 0-7-3-11-11-13-7-4-17-8-30-12v-45h292l32 42c25-15 43-29 54-43 5-4 8-8 8-12 0-7-13-17-40-32V199c8-5 15-10 20-15 4-2 5-5 5-7 0-9-3-14-9-14H492V91c0-18 1-30 1-36V21c0-14-10-21-29-21-16 0-25 9-25 26l5 58v79H152v-28c0-9-5-13-16-13-6 0-14 2-24 6-7 6-10 14-10 23 0 5 0 11 2 20l4 42v129c0 24-2 45-6 63m50-216h292v147H152V189m340 147V189h297l3 4v143H492Z"/></symbol><symbol id="𭜆_S" viewBox="0 0 1000 1000" data-size="21"><path transform="matrix(1 0 0 -1 36 962)" d="m278 751 52-36 9-17-20-1-41-60-57-76-28-32 29-4 15-10-15-10V31L159 0v492l-38-37-36-34-38-32-41-30-6 7 96 112 58 75 53 76 47 78 21 39 3 5M864 47l-62 36-29 20-26 21-24 22-22 23-19 23-18 26-14 26-7 24V31L579 0v223l-19-22-29-27-30-27-33-24-34-22-37-22-38-19-40-17-43-16-4 9 74 48 33 24 61 50 54 53 24 28 21 29H364v21h215v100H479v-16l-62-32v268h-95v21h95v110l62-11 16-10-16-9v-80h80v105l62-10 16-11-16-10v-74h100v105l63-10 16-11-16-10v-74h21l52 53 64-53v-21H784V488l-63-31v42H621v-32l-62-31v173h-80V409h320l43 48 53-48v-20H643V289h152l52 52 63-52v-21H657l53-49 21-19 23-16 25-17 26-16 27-14 30-14 31-13 31-13-60-50M721 609H621v-89h100v89M261 922l47-43 5-18-20 3-54-52-51-45-56-43-30-22-66-39-6 8 127 128 65 72 39 51m435 2 63-11 15-10-15-9v-49h54l52 52 64-52v-22H759v-54l-63-32v86H567v-54l-62-32v86H335v22h170v79l62-11 17-10-17-9v-49h129v79Z"/></symbol><symbol id="𭜇_S" viewBox="0 0 1000 1000" data-size="21"><path transform="matrix(1 0 0 -1 23 955)" d="m221 738 54-32 10-17-19-1-34-60-47-74-24-33 27-3 15-11-15-10V31L124 0v473l-51-58-32-31-33-30-8 5 100 147 44 74 39 74 38 84m480-148-5 28-9 39-9 28-22-40-19-31-21-27-20-24v-22H457V379h60l32 36 42-36v-22H457V184l147 37 4-9-41-21-77-35-136-54-65-23-7-20-14 12v3l-2 5-3 12-3 11-3 12-4 13-1 3v3l48 10v325l57-11 14-10-14-9V157l42 11v373H275v22h124v188h-38l-20-53-11-26-13-26-12-22-14-21-10 3 10 50 12 54 12 58 18 96 4 31 3 14 59-21 14-14-18-7-13-49-14-46h112l53 53 63-53v-21H457V563h23l53 52 55-47 37 91 23 66 22 68 18 71 6 32h-1l4 14 59-23 14-15-20-6-5-17-3-9 123-4 31 25 57-47-26-15-11-5-23-53-33-68-34-65-34-60-35-57-37-53-7-10 15-7h130l32 26 58-48-26-20V74l-64-31v16H696l-32-16v323l-20-23-40-41-41-36-7 6 33 43 66 93 9 15v29l14-7 41 69 21 40-22 2-15 18-2 16M252 133l16-62-27 59 11 3m606 266H728V79h130v320M735 819l-15-43-31-68-3-8 10-7 10-9 10-11 9-11 16-25 8-15 8-15 5-11 48 101 47 118-122 4m-528 87 50-39 7-17-21 1-43-51-42-44-47-43-50-41-30-19-6 7 117 149 33 47 32 50Z"/></symbol><symbol id="𭜈_J" viewBox="0 0 1000 1000" data-size="21"><path transform="matrix(1 0 0 -1 26 956)" d="M448 583c19 53 33 108 44 166 55-13 82-27 82-40 0-8-11-12-35-14-18-39-38-77-60-112h54l37 54c19-19 35-40 49-60l-11-19H252l-12 25h208m224-24c-21-61-47-117-77-168l-21 13c58 129 93 298 104 508 60-7 90-18 90-33 0-7-12-14-35-20-7-59-15-114-25-164h140l43 58c22-21 41-43 57-65l-10-18h-70c-7-159-33-294-79-404 45-82 98-149 159-201-21-14-37-32-49-53-56 60-101 126-136 197C716 121 652 52 573 0l-17 19c70 55 130 139 181 251-16 45-29 88-38 129-10 43-19 96-27 160m18 59c5-50 13-98 24-144 14-59 29-108 46-147 28 85 45 199 51 343H703c-6-26-10-43-13-52M342 225V7h-53v509c28-11 49-21 63-28h130l31 40c36-29 55-48 55-57 0-3-2-6-6-9l-19-13V82c0-44-26-65-79-64 1 28-23 46-71 53v25c35-4 58-6 71-6 16 0 25 8 25 24v111H342m0 148h147v90H342v-90m0-25v-98h147v98H342m-217 81c-32-46-67-89-105-127L0 318c86 109 151 232 195 369 48-16 71-30 71-42 0-7-11-12-34-14-20-50-43-97-67-139 34-7 51-14 51-23 0-8-12-16-37-25V7h-54v422m272 352v130c63-1 94-8 94-21 0-7-13-15-39-24v-85h77l34 51c19-20 34-39 46-58l-10-18H257l-9 25h149M25 599 8 616c77 84 137 178 181 283 51-16 76-32 76-46 0-9-13-13-39-13-52-93-119-173-201-241m346-5c-15 0-23 11-24 33-1 33-15 67-43 100l13 15c60-34 90-70 90-111 0-25-12-37-36-37Z"/></symbol><symbol id="𭜉_S" viewBox="0 0 1000 1000" data-size="21"><path transform="matrix(1 0 0 -1 42 962)" d="m237 750 54-33 9-17-20-1-35-61-24-38-50-71 25-4 17-10-17-10V31L134 0v484l-26-29-32-33-34-32-35-31-7 7 81 112 50 73 65 115 38 78 3 6M835 24l-10 13-22 24-28 22-48 37-20 11 4 9 43-11 20-7 20-7 18-9 17-8 17-10 16-11 15-11 14-12 6-23-10-21-23-8-21 11-8 11M420 782V502h418l32 37 42-37v-21H685v-64h97l32 26 58-47-26-21V174l-64-31v31H523v-16l-62-31v321l62-31h99v64H420l-2-67-4-63-6-61-7-55-9-50-11-46-13-42-14-36-18-32-19-26-8 5 9 29 9 32 8 37 7 40 6 45 5 50 2 54 2 58v482l63-32h181v121l63-11 16-10-16-9v-91h138l52 52 63-52v-21H420m152-634 42-46 4-19-20 6-17-11-38-22-21-11-43-19-24-7-24-8-27-7-3 9 43 28 38 27 35 27 29 26 14 14 7 9 5 4m50 136h-99v-90h99v90m160 0h-97v-90h97v90M622 396h-99v-90h99v90m160 0h-97v-90h97v90m-80 363 64-11 15-11-15-8v-60h18l43 48 53-48v-21H766v-98l-64-31v31h-98l-63-31v129H427v21h114v90l63-11 16-11-16-8v-60h98v90m0-111h-98v-77h98v77M222 921l49-40 6-18-20 1-26-29-65-67-49-44-26-21-28-20-30-20-7 7 126 152 52 72 13 19h-1l6 8Z"/></symbol><symbol id="𭜊_J" viewBox="0 0 1000 1000" data-size="21"><path transform="matrix(1 0 0 -1 30 953)" d="M655 229v-41h-50v540c19-9 37-20 55-32h37c8 48 13 89 16 123H574l-11 25h279l41 62c28-30 47-53 57-68l-8-19H775c-12-38-30-80-53-123h113l31 45c34-31 51-51 51-60 0-4-2-7-7-10l-21-17V194h-50v35H655m0 327h184v115H655V556m0-25V409h184v122H655m0-147V254h184v130H655M338 708c-16-50-36-94-58-134l-20 11c30 83 47 175 53 275 51-12 77-25 77-37 0-8-10-15-30-21-4-24-9-47-15-69h54v164c55-4 83-13 83-27 0-9-12-17-35-26V733h34l38 62c19-22 36-45 51-68l-9-19H447V535h49l40 62c21-23 39-46 53-68l-9-19H252l-9 25h156v173h-61m11-302h137l31 43c33-28 50-47 50-57 0-4-2-8-7-12l-20-15V69h-48v54H344V54h-48v382c19-10 37-20 53-30m-5-25V148h148v233H344m-219 51c-32-46-67-88-105-127L0 321c86 109 151 232 195 369 48-16 71-30 71-42 0-7-11-12-34-14-20-50-43-96-67-139 34-6 51-14 51-23 0-8-12-16-37-25V10h-54v422M25 602 8 619c77 84 137 179 181 284 51-17 76-32 76-47 0-9-13-13-39-13-52-92-119-173-201-241M911 20c-9 0-19 9-29 27-21 42-56 82-107 118l10 19c51-19 90-43 119-71 22-20 33-40 33-59 0-23-9-34-26-34M529 0l-13 20c66 44 115 99 147 163 41-23 61-41 61-54 0-9-12-13-37-13-39-45-91-84-158-116Z"/></symbol><symbol id="𭜋_G" viewBox="0 0 1000 1000" data-size="21"><path transform="matrix(1 0 0 -1 30 954)" d="m751 575-7-47c-15-71-36-116-62-137-17-16-51-29-102-40 1 23-13 39-44 47-7 3-31 10-71 20 2 0 0 1-6 2l4 15c69-11 109-17 121-17 13-1 26 0 40 2 15 3 29 10 41 22 13 13 24 41 34 86l7 58H286l-37-30-39 38c14 6 24 15 31 26l43 97H77c-17 1-32-4-44-13L0 737h834l32 38 66-48c5-3 8-6 7-8-1-1-6-2-13-2H330l-47-111h408l31 39 49-39c5-3 8-7 8-10s-3-5-8-8l-20-13M138 867h551l32 40 65-50c5-3 8-6 7-8-1-1-5-2-12-2H215c-17 1-32-4-44-13l-33 33m195-593c3-2 4-4 3-5 0-1-1-3-4-4-11-1-22-7-34-16V134c1-42 6-67 16-74 11-7 27-12 46-13 20-2 52-3 95-4 89 1 144 3 164 7 31 5 48 18 51 39 3 31 7 72 10 124h16v-75c2-35 13-57 33-66-11-25-22-40-32-47-9-7-23-12-42-17-13-5-75-7-188-8-57 1-97 2-119 4-61 3-92 34-93 93v160c-3 16-12 31-29 45l7 10 100-38m412 16 8 11c95-59 147-118 155-178 3-26-4-41-19-44-16-4-26 5-29 28-2 21-11 47-27 77-14 30-43 65-88 106m-613 10c10-109-9-184-56-225-22-20-39-22-52-7-11 15-5 30 18 47 23 18 41 41 53 69 11 28 18 67 20 116h17m286 59 7 11c79-45 121-95 124-151 1-25-6-39-22-42-15-3-24 8-25 32-1 25-9 49-22 73-14 25-35 50-62 77Z"/></symbol><symbol id="𭜌_G" viewBox="0 0 1000 1000" data-size="21"><path transform="matrix(1 0 0 -1 39 975)" d="m834 533-14-238c-6-71-13-123-21-156-9-35-23-60-42-77-17-17-52-30-104-40-2 12-10 23-25 33-22 11-58 26-107 44l5 15c51-13 94-23 129-28 35-1 59 5 72 20 14 13 24 31 30 54s12 74 19 152l12 240H556c-1-13-4-32-7-57-1-6-1-10-2-13-15-89-44-174-88-254-45-81-116-152-211-211l-7 13c60 51 112 109 155 174 43 64 75 143 95 236 20 96 32 227 36 392H393c-18 0-33-4-46-13l-32 33h504l36 42 64-50c7-5 9-9 7-11-3-1-9-2-20-1H575c-3-101-9-187-17-260h212l38 41 53-50c4-4 5-7 4-10s-4-6-10-7l-21-13M133 949l89-35c8-3 10-7 6-11-14-5-24-12-30-20V140l3-96c0-13-5-23-14-30-10-6-23-11-40-14 2 25 4 87 6 186v707c1 10-8 25-29 45l9 11M69 713h16c7-51 8-94 4-129-4-33-16-58-35-75-20-17-35-19-44-7-10 11-7 27 9 46 17 19 29 39 37 62 7 21 11 55 13 103m146 43 4 14c30-21 56-40 78-59 21-19 36-38 46-58 8-19 10-35 5-46-7-13-15-19-24-17s-17 14-23 37c-5 21-15 42-29 63-12 18-31 40-57 66Z"/></symbol><symbol id="𭜌_U" viewBox="0 0 1000 1000" data-size="23"><path transform="matrix(1 0 0 -1 121 894)" d="M605 11c-1-1-3-1-4-1-2 0-3 1-4 3-5 25-33 40-84 46-7 1-11 4-11 8 0 6 2 9 6 9 14 0 27-1 39-3 12-1 23-2 32-2 15 0 27 1 36 3s16 5 21 9 8 9 10 14 4 11 6 18c4 13 7 32 10 56s5 54 7 90l12 198H488c-8-53-18-101-31-144s-30-82-51-117-47-66-78-95-69-56-114-82c-5-3-9-5-12-5-7 0-10 3-10 10 0 6 4 11 11 15 45 28 83 60 116 96s61 79 82 129c22 50 38 108 49 174 11 67 16 144 16 232H320c-12-1-23-2-34-4-11-1-20-2-29-2-1 0-2 2-5 6s-6 8-9 13-5 10-8 13c-3 4-4 6-4 5 0 3 1 4 4 4 11 0 23-2 36-5s26-5 39-5h331c7 1 15 7 24 16l21 31c3 3 5 4 6 4s4-1 8-4c38-34 57-55 57-64-1-4-5-7-12-8H507c-3-68-8-131-15-188h165c6 1 10 3 13 4l18 26c1 3 3 4 6 4 5 0 10-3 17-9s13-13 19-20 11-13 15-18 6-6 6-4c0-3-4-6-11-9s-11-5-12-6c-4-1-7-7-8-18s-2-28-3-50-2-49-4-82-6-71-11-115c-5-36-10-65-16-86s-13-36-20-45c-18-21-38-36-61-45M52 594h2c3 0 6-4 8-11 3-7 5-16 6-25 2-9 3-19 4-28s1-16 1-20c0-10-1-20-3-31s-5-21-9-30-9-16-14-23c-5-6-11-9-18-10-11 0-18 3-23 9-4 6-6 11-6 15 0 7 4 14 12 22 23 27 34 63 34 108v16c0 4 2 7 6 8m106 20c37-17 63-33 77-46 15-13 22-26 22-38s-3-21-10-28-12-10-15-10l-9 13c-6 9-13 19-21 30s-16 23-25 34-16 20-22 25V196c0-33 0-64 1-91s2-51 2-73c0-4-4-8-11-12s-17-10-28-17c-2-2-4-3-6-3s-3 3-3 8c0 38 1 72 2 103 2 31 3 60 4 85v475c-1 23-2 43-3 61s-1 34-1 48c0 5 1 7 3 7s3 0 4-1c20-6 36-11 47-16 12-5 18-9 18-12 0-1-1-2-4-4-2-2-4-4-7-6s-5-4-8-7c-2-2-3-4-4-5-4-10-6-32-6-65v-56c1 0 2 0 3-1Z"/></symbol><symbol id="𭜍_J" viewBox="0 0 1000 1000" data-size="21"><path transform="matrix(1 0 0 -1 59 929)" d="M249 459c96 90 185 194 268 312 52-24 77-41 77-50s-14-14-43-17c-76-90-162-171-258-244 69 1 152 4 247 10 69 4 121 8 156 12-32 31-69 60-110 86l12 21c79-36 141-72 185-109 27-22 40-45 40-67s-10-33-31-33c-12 0-23 9-35 27-11 17-24 34-39 51-159-23-338-41-537-53-5-24-11-36-19-36-12 0-25 29-38 88 23 0 65 1 125 2M28 589l-13 21c122 67 222 150 299 249 53-19 79-34 79-46 0-9-16-14-47-15-79-81-185-150-318-209m499-405c-15 0-25 10-30 29-12 43-46 87-100 134l14 17c101-47 152-94 152-142 0-25-12-38-36-38M36 31C12 31 0 43 0 67c0 11 8 22 23 31 63 38 102 99 117 185l24-8c-3-88-23-154-60-200-23-30-46-44-68-44m810 41c-16 0-27 13-35 39-20 62-68 122-142 182l14 19c133-65 200-131 200-198 0-28-13-42-37-42M467 0C352 0 288 5 273 16c-13 9-19 28-19 57v235c67-4 101-14 101-29 0-9-14-18-42-27V91c0-17 6-27 17-30 13-4 53-6 121-6 82 0 130 3 144 8 23 10 38 56 45 139l27-9c0-60 3-97 8-111 5-11 16-17 33-17-1-32-18-51-50-58-25-5-89-7-191-7Z"/></symbol><symbol id="𭜎_J" viewBox="0 0 1000 1000" data-size="21"><path transform="matrix(1 0 0 -1 59 931)" d="m397 317 14 17c101-47 152-95 152-142 0-25-12-38-36-38-15 0-25 9-30 29-12 43-46 87-100 134m-257-34 24-8c-3-88-23-154-60-200-23-30-46-44-68-44C12 31 0 43 0 67c0 11 8 22 23 31 63 38 102 99 117 185m529 10 14 19c133-65 200-131 200-198 0-28-13-42-37-42-16 0-27 13-35 39-20 62-68 122-142 182M144 793V465c0-19 5-30 16-33 13-3 90-5 234-5 188 0 311 4 372 13 3 1 8 1 15 1 26 0 39-14 39-41 0-10-7-16-20-18-41-7-175-10-401-10-184 0-282 6-296 19-12 10-18 31-18 61v392c68-1 102-9 102-24 0-8-14-17-43-27M254 73v235c67-4 101-14 101-29 0-9-14-18-42-27V91c0-17 6-27 17-30 13-4 53-6 121-6 82 0 130 3 144 8 23 10 38 56 45 139l27-9c0-60 3-97 8-111 5-11 16-17 33-17-1-32-18-51-50-58-25-5-89-7-191-7-115 0-179 5-194 16-13 9-19 28-19 57m-5 700-12 25h423l52 65c29-26 52-49 70-71l-11-19H249m-12-186-12 25h448l52 65c28-25 52-49 70-71l-11-19H237Z"/></symbol><symbol id="𭜏_S" viewBox="0 0 1000 1000" data-size="21"><path transform="matrix(1 0 0 -1 37 959)" d="m246 616-3 10-3 12-6 11-6 13-20 28-16 22V31L129 0v919l63-11 16-11-16-8V734l19-10 33-24 15-12 24-25 10-13 8-14 6-15-4-23-20-15-23 5-14 19v9m281-4 64-9 15-11-15-10V345l90 41 58 30 88 54 25 15 3 3 16-24 24-26 1-17-19 8-52-28-64-29-66-23-33-10-34-8-34-6h-3V103l1-5 1-3 1-2 2-2 2-1 3-1 4-1h252l32 131h9l-9-131 18-13 13-19-13-19-18-13H611l-12 1-14 2-13 5-11 6-11 9-9 11-6 11-5 13-2 14-1 12v504m-14 306 61-19 15-12-18-8-14-82-21-96-8-29h284l52 53 63-53v-21H522l-10-39-30-82-33-74-37-67-40-61-45-53-49-44-51-36-6 9 44 42 41 48 38 54 34 60 31 66 28 73 23 80 6 24H303v21h168l9 42 18 93 14 95h-1l2 16M10 522l44-45-23-8-22 9-9 22 10 22m0 0 44-45 9 14 8 16 5 16 5 20 3 21 3 25 1 26 1 29-2 65H77l-6-32-14-58-7-23-15-39-7-14-7-11-5-7-6-3Z"/></symbol><symbol id="𭜐_J" viewBox="0 0 1000 1000" data-size="21"><path transform="matrix(1 0 0 -1 35 948)" d="M766 80h54l49 67c26-26 46-50 61-73l-12-19H238l-9 25h192c16 120 30 251 43 392H305l-8 25h169c5 54 12 140 20 256H282l-9 25h477l52 67c28-26 51-50 69-73l-11-19H546c-8-116-15-202-20-256h173l36 45c43-32 64-53 64-63 0-3-2-7-8-10l-25-17V80m-59 0v392H524c-13-141-27-272-43-392h226M291 521c-19 0-28 15-28 44-1 55-15 112-43 169l19 12c59-68 88-128 88-182 0-29-12-43-36-43M31 407c-21 0-31 10-31 31 0 5 5 17 15 34 27 45 41 121 42 230l25-2c10-57 15-103 15-137 0-104-22-156-66-156M144 0v897c67-1 101-9 101-24 0-8-14-18-43-29V0h-58Z"/></symbol><symbol id="𭜑_J" viewBox="0 0 1000 1000" data-size="21"><path transform="matrix(1 0 0 -1 47 931)" d="M562 681v180c65-3 97-11 97-26 0-9-13-18-40-28V681h128l48 63c27-23 50-46 69-69l-10-19H619V431h162l54 68c27-24 51-49 72-74l-11-19H13L0 431h284v225H66l-10 25h228v176c66-3 98-11 98-25 0-8-13-17-41-27V681h221m0-250v225H341V431h221m-22-255c-14 0-25 10-33 30-19 46-56 92-111 137l14 18c110-50 165-99 165-147 0-25-12-38-35-38M50 36c-25 0-38 13-38 37 0 12 8 22 23 31 62 35 101 97 118 185l20-6c-1-85-19-152-54-200-23-31-46-47-69-47m810 41c-14 0-26 13-36 38-25 66-73 127-144 184l15 16c76-36 131-74 166-117 23-30 35-57 35-79 0-28-12-42-36-42M465 0c-99 0-157 5-175 14-15 9-23 29-23 59v247c66-5 98-14 98-27 0-8-13-17-41-27V90c0-17 7-28 19-32 12-3 46-5 101-5 108 0 169 7 182 20 15 15 25 57 30 125l25-9c0-52 3-86 8-102 5-12 16-18 32-19-2-33-18-52-47-58-28-7-98-10-209-10Z"/></symbol><symbol id="𭜒_S" viewBox="0 0 1000 1000" data-size="21"><path transform="matrix(1 0 0 -1 50 963)" d="m338 890 62-32h383l53 53 63-53v-21H400V517l-2-74-3-69-6-63-7-60-10-55-10-50-13-43-15-40-17-35-19-28-9 5 10 32 9 34 7 39 7 44 6 49 5 53 3 58 2 63 1 67-1 73v373m-87-266-1 10-4 11-6 11-8 14-8 14-24 31-5 5V39L132 8v919l63-11 16-11-16-9V742l20-11 17-11 17-12 15-12 13-12 11-13 11-13 8-14 6-15-4-24-20-14-23 5-14 18-1 10m224 91 63-32h223l31 26 58-47-27-21V388h-62v274H538V102l1-5 1-3 1-1 2-2 2-1 3-1 5-1h268l31 131h10l-9-131 18-13 12-19-12-19-19-13H559l-13 1-14 2-12 5-12 6-11 9-9 10-6 12-4 13-2 13-1 13v607m348-327-1-14-2-13-4-12-6-12-9-11-11-9-12-5-12-5-13-2-14-1v31l-104 17v15h111l4 1 4 1 2 1v1l1 1 2 2 1 3v5l1 6h62M10 530l43-46-23-7-22 8-8 23 10 22m68 187-7-32-13-57-7-24-8-21-7-18-8-14-7-11-6-7-5-3 11-13 30-32 2-1 10 14 7 16 6 17 5 20 3 21 3 25 2 25 1 29-3 66h-9Z"/></symbol><symbol id="𭜓_K" viewBox="0 0 1000 1000" data-size="21"><path transform="matrix(1 0 0 -1 73 929)" d="m783 796-10-15H85v22h581l24 37c9 12 15 18 20 18 3 0 11-4 22-14l51-48M648 460v195H197V460h451M91 285c-2-94-16-166-42-216-11-19-20-29-29-29C7 40 0 55 0 84c0 20 5 35 14 48 18 23 29 36 32 41 14 25 24 63 31 113l14-1M666 23C663 8 626 0 555 0H310c-37 0-61 7-74 20-11 12-17 40-17 84v188l-2 51 54-15c22-6 33-13 33-21 0-9-14-18-41-27V104c0-27 3-44 8-51 8-10 25-15 51-15h214c19 0 32 1 39 4 11 5 19 14 27 28l32 113 14-4-14-110c-2-9 4-16 16-19 13-4 19-13 16-27M512 262c-2-23-7-34-15-34-6 0-14 8-22 26-24 47-59 90-106 130l12 9c62-36 99-60 113-74 14-13 20-33 18-57m342-158c-8-26-15-39-23-39s-15 12-19 35c-15 63-51 129-110 200l12 6c65-61 106-103 122-127 14-22 20-47 18-75M712 665c8-8 12-13 12-16 0-4-11-9-33-14V447c0-7 1-14 1-22 2-8 2-13 2-14 0-6-8-13-24-18-8-3-14-4-18-4s-6 3-6 8c0 2 1 7 1 16 1 10 1 18 1 25H197v-21c2-7 2-12 2-15 0-2-9-7-28-16-7-4-12-6-16-6s-6 2-6 8c0 2 1 8 2 18 2 11 2 20 2 28v230l-4 41 51-28h439l13 18c6 9 10 13 13 13 2 0 7-4 14-12l33-31Z"/></symbol><symbol id="𭜔_K" viewBox="0 0 1000 1000" data-size="21"><path transform="matrix(1 0 0 -1 43 943)" d="M185 877c17-4 26-8 26-13s-11-12-31-23V58c1-4 1-9 2-15 1-11 1-18-1-21-2-5-8-10-19-15-14-6-22-7-25-4-2 3-2 13-1 30 1 9 1 16 2 21 1 10 1 20 1 29v804l46-10M70 682c13-48 14-104 5-168-10-64-24-100-44-107-12-3-21 8-26 33s-3 41 6 49l5 9c15 24 25 46 31 65 9 30 12 69 10 119h13m257-122c1-14 0-27-2-38-4-11-8-17-12-21-5-3-10-2-15 3-6 5-10 16-12 31-3 23-10 48-19 74-14 35-29 61-46 79l10 6c27-19 50-40 67-64s27-47 29-70m501 308 64-47c8-7 10-12 6-16-3-3-10-5-21-5H409l1-261c0-115-10-208-28-279-23-82-65-161-127-238l-11 8c49 78 81 157 98 235 14 68 20 159 19 274l-1 243c-1 13-2 26-3 38-2 15-3 28-5 39l56-42h368l52 51M648 745c24-5 36-11 36-17 1-6-11-12-36-17l-1-1c-2-15-3-26-4-33l-3-41c22-134 53-241 93-322 48-91 109-162 184-213l-1-19c-15 1-28-3-39-10-11-6-21-15-27-29-57 74-105 154-144 241-35 85-59 189-72 310-8-154-33-271-75-353S444 87 340 26l-7 10c59 41 103 80 132 118 30 38 54 83 71 133 18 51 30 115 38 192 9 70 16 163 21 278l53-12Z"/></symbol><symbol id="𭜕_K" viewBox="0 0 1000 1000" data-size="21"><path transform="matrix(1 0 0 -1 66 934)" d="m869 494-8-16H688V97c0-9 1-18 1-29 2-10 2-17 2-20 0-13-7-22-23-29-5-2-9-3-13-3-7 0-10 7-10 22 0 5 0 14 1 27v413H479c-3-127-15-217-37-269-31-76-93-139-185-191l-6 9c63 46 107 92 131 138 34 67 53 171 55 313H286v19h151v288H334v20h403l19 20c8 9 14 14 15 14 2 0 7-4 17-12l29-24-8-18h-91c1-2 2-5 2-7 0-8-11-14-32-16V497h102l18 23c8 10 14 15 16 15s8-5 19-14l26-27m-223 3v288H493c9-4 13-8 13-14 0-7-9-12-27-14V497h167m-364 78c-6-17-12-26-18-26-8 0-15 11-21 33-10 42-31 89-64 140l9 7c41-40 68-67 79-81 12-16 18-32 18-46 0-8-1-16-3-27M176 855c13-3 20-7 20-13 0-7-11-15-33-24V82c0-12 1-23 2-34 2-11 3-17 3-18 0-6-8-13-24-22-10-5-16-8-19-8-5 0-7 4-7 13 0 3 0 11 1 23s1 23 1 33l-5 799 61-13M61 660c5-87 2-156-12-206-11-25-20-37-28-37-10 0-16 15-19 45-2 18 0 32 7 43 12 20 18 34 20 41 10 26 16 64 18 114h14Z"/></symbol><symbol id="𭜖_S" viewBox="0 0 1000 1000" data-size="21"><path transform="matrix(1 0 0 -1 38 959)" d="m253 616-2 10-4 11-6 11-7 14-9 14-24 31-5 5V31L133 0v919l63-11 16-11-16-8V734l20-10 17-12 32-24 13-12 11-13 11-13 9-13 5-16-3-23-20-15-23 5-15 18v10m609-425-14 9-7 5-6 3-4 3-22 14 4 6 3 12 4 17 4 18 3 25 3 27 2 30 1 35 1 37 1 30H609V31L546 0v354l-23-49-25-48-27-46-31-44-32-40-34-38-37-35-40-31-7 7 32 38 31 39 28 40 26 42 26 44 22 45 21 48 18 50 18 52 9 34H383l-7-66-66-24 38 361 41-11 157 37v160l63-11 16-11-16-8V776l51 16 91 32 45 18 43 19 5-10 43-38 1-18-21 10-51-19-46-15-48-14-49-12-49-11-15-3V483h226l31 26 58-47-27-16v-15l-1-38-1-36-2-33-3-29-3-25-5-24-5-20-6-19-9-16m-53 34 53-34-7-10-8-10-9-9-10-9-11-7-11-4-12-5-12-3-13-2-13-1v32l-52 16v15h60l6 1 12 4 4 2 5 4 5 3 9 10 4 7M10 522l43-45-23-8-22 9-8 22 10 22m68 187-6-32-8-31-13-50-8-21-7-17-8-15-7-11-6-7-5-3 11-13 30-31 2-1 10 13 7 16 6 17 5 20 4 21 2 25 2 25 1 30-1 31-1 34H78m468 12-22-3-50-6-52-3h-5l6-5-16-5-22-216h161v238Z"/></symbol><symbol id="𭜗_K" viewBox="0 0 1000 1000" data-size="21"><path transform="matrix(1 0 0 -1 53 945)" d="m896 479-5-21H748V124c0-36-3-61-8-75-6-16-17-28-35-35L675 4c-8-3-14-4-19-4s-8 3-8 8v9c1 4 1 7 1 9 0 10-5 17-16 20l-90 26 5 12 102-17c9-1 16-2 21-2 16 0 26 7 31 21 2 6 3 20 3 42v330H429c-3-118-25-217-68-296C326 95 283 41 231 0l-9 10c43 41 80 96 111 165 34 75 51 170 52 283H261v21h124v322l-4 55 55-27h258l17 23c6 7 10 11 11 11s6-5 15-14l24-25c13-13 19-23 19-28 0-7-10-12-32-16V479h50l24 37c8 12 13 18 14 18 3 0 10-6 21-18l39-37m-191 0v329H429V479h276M184 877c14-3 21-8 21-14 0-8-11-16-33-24V84c0-12 1-23 2-34 2-12 3-18 3-19 0-5-9-12-27-22-9-5-15-8-18-8-4 0-6 4-6 13 0 4 0 12 1 24s1 23 1 34l-5 818 61-13m452-293c-1-29-8-43-22-43-11 0-20 12-28 37-17 55-52 105-105 150l13 10c50-34 83-60 102-77 27-27 40-52 40-77M58 680c4-40 5-75 5-105 0-46-4-82-14-107-9-26-18-38-28-38-9 0-16 15-19 47-2 18 0 32 7 44 10 19 17 33 19 42 9 26 15 65 16 117h14m225-95c-8-23-15-35-23-35s-13 12-16 35c-14 59-33 107-56 143l10 5c38-41 61-68 71-83 11-16 17-31 17-45 0-5-1-12-3-20Z"/></symbol><symbol id="𭜘_J" viewBox="0 0 1000 1000" data-size="21"><path transform="matrix(1 0 0 -1 63 929)" d="M372 670H23l-10 25h391v164c69-1 104-9 104-24 0-9-15-19-45-29V695h269l55 70c29-25 54-50 75-75l-12-20H454c-36-57-86-121-149-194 146 7 271 15 374 23-35 34-80 68-136 104l14 19c97-41 170-85 217-132 29-29 43-54 43-77 0-24-11-36-33-36-13 0-26 13-40 39-9 17-23 36-41 58-181-25-365-46-553-62-7-25-14-37-22-37-15 0-29 31-42 94 41 0 102 2 183 5 33 50 67 115 103 196M36 34C12 34 0 47 0 71c0 12 8 22 23 31 58 33 96 97 114 192l24-7c-1-89-20-159-58-209-23-29-46-44-67-44m801 32c-16 0-27 12-34 36-22 67-69 132-142 195l15 19c67-37 120-79 159-124 25-29 38-57 38-83 0-29-12-43-36-43M448 0c-98 0-154 4-169 12-17 9-25 29-25 60v250c65-3 98-12 98-26 0-9-14-18-42-28V92c0-18 7-29 20-33s49-6 108-6c87 0 137 3 150 9 18 8 32 54 41 137l25-8c1-61 5-98 11-111 5-11 15-17 29-17-1-32-17-51-48-56-24-5-90-7-198-7m68 194c-14 0-25 9-32 29-19 51-58 100-115 146l15 18c110-53 166-105 166-155 0-25-12-38-34-38Z"/></symbol><symbol id="𭜙_J" viewBox="0 0 1000 1000" data-size="21"><path transform="matrix(1 0 0 -1 43 945)" d="M332 505C268 373 162 279 14 223L0 245c126 66 214 152 262 260H14L1 530h419v175H67l-10 25h363v160c65-3 97-12 97-26 0-9-13-18-40-28V730h271l48 63c27-23 50-46 69-69l-10-19H477V530h305l54 68c27-24 51-49 72-74l-11-19H617c59-81 158-142 296-182-18-13-34-33-48-60-125 54-219 135-283 242H332M142 71c-11 0-20 5-28 15-5 8-8 16-8 25 0 10 6 19 19 27 57 33 100 92 128 177l25-7c-11-79-34-141-68-187-25-34-48-50-68-50m460-7c-19 0-30 16-33 47-5 59-30 121-74 187l17 14c84-77 125-145 125-203 0-30-12-45-35-45M348 0c0 19-9 33-27 42-16 7-41 14-75 20v25c42-6 77-8 107-8 19 0 29 11 29 33v337c66-2 99-10 99-24 0-8-14-17-41-26V73c0-49-31-73-92-73m452 91c-13 0-26 13-39 41-31 65-80 126-147 182l16 19c136-81 204-149 204-204 0-25-11-38-34-38Z"/></symbol><symbol id="𭜚_S" viewBox="0 0 1000 1000" data-size="21"><path transform="matrix(1 0 0 -1 51 959)" d="m231 616-1 10-3 12-5 12-6 12-19 29-13 18V31L121 0v919l63-11 15-11-15-8V732l34-20 15-12 14-12 23-26 9-13 8-14 7-15-5-22-19-15-24 5-14 19-1 9m473 266-16-10 3-138 3-62h89l52 53 63-53v-21H695l4-59 14-124 16-108 22-89 23-73 26-54 25-37 15-10 27 118h10L867 84l22-10 9-21-9-23-22-9-48 12-40 32-34 47-29 64-26 78-22 95-18 110-13 128-4 64H300v21h332l-4 59-3 162v12l63-12 16-11M269 63l-4 11-3 5-2 5-9 23-3 5-3 9 68 25 109 45 206 91 5-8-78-54-76-47-143-78-34-17-13-6-4-20-16 11m-24 58 24-58-33 53 9 5m268 251-36 35-40 32-43 30-71 38-25 13 3 8 28-3 28-4 28-7 26-10 27-11 49-26 47-31 23-19 9-21-8-23-23-10-22 9M30 469l-21 9-9 22 9 21 5 4 5 7 6 10 7 15 8 18 7 21 13 50 6 31 7 32h10l2-65v-29l-2-26-2-24-3-21-4-19-5-17-6-16-10-14-23-9m732 297-3 13-8 27-10 24-13 26-8 13-10 12 6 7 13-9 14-8 13-10 13-10 21-24 10-13 17-29 7-15-3-24-18-16-24 3-15 19-2 14Z"/></symbol><symbol id="𭜛_J" viewBox="0 0 1000 1000" data-size="21"><path transform="matrix(1 0 0 -1 34 948)" d="M394 804h362l36 47c42-35 64-57 64-66 0-4-2-7-7-10l-27-18V63h19l41 75c19-26 36-52 50-79l-11-21H234l-12 25h103v773c24-10 47-21 69-32m-12-25V63h89v716h-89m143 0V63h90v716h-90m144 0V63h97v716h-97M253 506c-14 0-21 13-21 39 0 62-11 118-34 170l19 9c49-59 73-116 73-171 0-32-12-47-37-47M30 406c-20 0-30 9-30 27 0 6 2 13 7 23 28 58 43 140 44 246l27-2c9-55 14-100 14-133 0-45-5-82-15-111-12-34-28-50-47-50M131 0v897c63-2 95-10 95-25 0-9-13-18-40-28V0h-55Z"/></symbol></svg>