<svg xmlns="http://www.w3.org/2000/svg"><symbol id="𭣻_J" viewBox="0 0 1000 1000" data-size="21"><path transform="matrix(1 0 0 -1 44 949)" d="M310 357h451l53 61c28-23 52-45 73-67l-13-19H700c-41-43-77-77-108-102-25-21-53-42-84-64 112-48 247-77 403-87-21-18-37-39-48-64-163 28-297 68-400 121C342 68 193 22 15 0L0 24c178 35 316 82 413 140-52 30-107 73-165 130-63-57-137-106-224-148L8 166c130 82 230 175 300 278 34-6 56-11 67-16 9-4 14-9 14-15 0-3-5-6-14-9-2 0-8-1-17-3-6-2-11-3-15-4-7-9-18-23-33-40m-23-25-20-20c57-48 120-89 188-122 44 29 80 55 106 79 22 20 43 41 63 63H287m54 272c4 17 6 35 6 54v6H92l-10 25h265v77H49l-10 25h308v107c64-3 95-11 95-23 0-7-12-16-38-26V661c0-139-91-226-275-261l-13 23c112 29 183 79 214 149-96-29-177-50-243-63-5-24-11-36-20-36-13 0-27 28-40 84 119 12 224 27 314 47m236 187h190l43 54c26-22 47-42 63-61l-10-18H577v-87h158l41 48c26-20 47-38 63-55l-12-18H577v-97h196l46 51c25-20 46-40 64-58l-11-18H577V414h-57v483c66-2 99-10 99-24 0-8-14-16-42-25v-57Z"/></symbol><symbol id="𭣼_K" viewBox="0 0 1000 1000" data-size="21"><path transform="matrix(1 0 0 -1 49 935)" d="m901 369-5-14c-20 3-33-1-38-13-4-11-8-17-12-17-5 0-12 2-23 6-67 28-126 66-178 115-80-62-163-106-250-133l-5 11c90 37 169 86 237 147-35 47-64 104-85 171-25-37-54-71-86-104l-10 9c32 33 61 77 85 131 29 60 48 124 58 191l42-15c18-5 27-12 27-19 0-8-12-13-35-16-12-46-30-89-52-130h215l19 28c7 10 11 15 12 15s9-4 23-13l47-34-8-16h-93c-32-83-71-149-118-198 66-59 144-93 233-102m0-352-5-17H8v21h211v143l-4 45 42-9c21-4 32-10 32-15 0-7-9-14-27-23V21h186v248H91v19h629l15 24c10 12 15 18 16 18s8-5 21-16l41-32-5-13H491V155h158l20 25c9 11 14 17 16 17 1 0 7-4 19-13l39-32-9-17H491V21h308l20 29c9 12 15 17 18 17 1 0 8-5 21-16l43-34M728 669H558c17-67 46-126 85-177 43 57 72 116 85 177M413 831c-13 10-20 16-22 16-3 0-8-4-16-12l-19-23H30v-22l69 1V610H6v-19h249C181 502 96 441 0 406l9-10c103 27 197 80 280 160V418c0-14-1-24-3-29-4-12-11-18-22-18l-109 17v-14l74-23c6-2 10-9 11-19 2-10 6-16 14-16 6 0 15 2 24 4l31 12c13 5 21 13 23 22 1 4 1 25 1 62v175h121l10 13-37 37c-11 11-18 16-21 16s-10-7-20-21l-15-25-38-1v181h108l7 14-35 26M143 610v181h146V610H143Z"/></symbol><symbol id="𭣽_G" viewBox="0 0 1000 1000" data-size="21"><path transform="matrix(1 0 0 -1 23 976)" d="M954 68V53c-44 7-74-2-90-27-53 38-101 80-143 127l-22 26c-25-28-55-56-91-85-56-44-121-75-195-94l-4 13c54 24 106 55 157 93 43 33 79 68 109 106-21 32-40 67-58 104-29 65-51 137-66 218h-6c-2 1-7-3-15-12l-37 32h176v344c1 10-8 24-28 43l8 10 84-33c9-3 11-7 6-11-13-4-23-10-30-19V764h125l30 38 59-45c7-5 9-9 8-11s-7-3-18-2H709V554h96l35 40 48-49c5-3 7-5 7-8 0-2-2-4-7-5-8-1-15-3-21-8-7-5-15-23-24-54-27-91-63-171-106-240-4-6-8-12-13-18 19-22 38-41 57-56 55-47 112-76 173-88M695 252c1-1 3-3 4-5 32 52 55 97 69 135 18 43 35 93 51 152H569c26-78 45-131 58-159 17-42 40-83 68-123M279 822l76-34c5-1 7-3 8-5 1-1 1-3-2-5-11-3-20-9-26-18l-8-69h70l31 38 67-48c5-4 8-7 7-8-1-2-6-3-13-2H325l-13-121h73l35 37 45-46c4-3 5-7 4-10s-4-5-10-6l-18-9V202l3-116c-1-20-14-31-40-32v57H213V65c3-24-11-38-43-43 3 25 5 70 6 137v377c1 11-5 24-18 37l12 15 35-38h67l13 121h-80c-12 1-24-3-36-12l-34 32h152l9 79c1 11-7 24-25 41l8 11m134 125 64-57c6-6 9-11 9-14s-3-4-9-5c-23 7-48 8-74 2-45-16-88-28-128-37-36-7-89-16-160-26V623c1-101-5-208-17-322C87 189 57 98 9 29l-9 9c35 81 56 176 63 285 7 107 10 203 9 290v204c-1 15-9 30-23 47l12 13 53-49c57 10 107 22 151 36 50 16 82 27 96 34s24 14 29 19c6 5 11 14 14 26l9 4m-9-691H213V131h191v125M213 409h191v121H213V409m191-16H213V272h191v121Z"/></symbol><symbol id="𭣾_J" viewBox="0 0 1000 1000" data-size="21"><path transform="matrix(1 0 0 -1 48 948)" d="M807 663c-11-84-24-153-38-208-16-60-41-120-73-181 50-74 120-142 209-203-21-15-38-34-51-57-75 62-138 131-189 209C604 130 511 56 388 2l-15 22c104 52 192 135 264 248-42 86-73 189-92 307-22-58-49-111-80-159l-24 14c62 122 102 275 119 461 63-12 94-24 94-36 0-8-12-15-37-22-10-49-21-99-35-149h219l42 62c25-24 46-47 62-69l-10-18h-88m-60 0H574c-3-10-6-22-11-35 23-121 57-222 102-304 42 91 69 204 82 339M266 310c21 18 43 39 67 63H43l-11 25h305l34 36c40-33 61-54 61-63 0-5-6-9-17-12l-27-6c-24-17-55-35-92-54 9-4 14-8 14-12 0-6-12-12-35-18v-23c78 14 151 29 217 45l3-26c-64-21-137-42-220-62V75c0-46-32-71-94-75-1 21-11 36-30 43-15 6-41 11-77 17v27c48-6 86-9 115-9 19 0 29 9 29 28v84c-41-9-93-21-157-34-7-24-14-35-21-35-11 0-24 29-40 87 63 6 135 15 218 28v85c2-1 18-4 48-11M122 465v-25H65v248c27-11 47-21 61-28h217l35 40c38-28 57-46 57-54 0-3-3-7-8-11l-20-15V445h-56v20H122m0 113h229v57H122v-57m0-25v-63h229v63H122m86 207v137c64-2 96-10 96-23 0-8-13-16-39-25v-89h110l45 60c25-23 46-45 62-66l-12-19H11L1 760h207Z"/></symbol><symbol id="𭣿_S" viewBox="0 0 1000 1000" data-size="21"><path transform="matrix(1 0 0 -1 39 962)" d="m811 46-48 31-43 37-39 41-3 5-45-43-52-40-57-33-60-26-65-18-3 9 60 27 55 32 50 36 45 42 42 47 2 3-34 55-26 55-22 59-16 64-11 63h-44v21h138v404l62-10 16-11-16-9V729h117l43 46 53-46v-22H697V513h99l31 26 59-47-27-15-8-4-20-57-30-72-35-67-40-59-14-17 9-10 37-34 41-29 43-24 46-21 34-14-61-49-50 26M362 506H0v21h289l5 23 4 24 39 167 3 14 58-27 11-15-19-5-36-79-20-42-33-60h70l53 53 62-53v-21h-61V86l-1-14-2-13-4-12-7-13-9-11-10-7-12-7-13-5-13-2h-13v31L236 49v15h111l5 1 3 1 1 2h1l1 1 2 5 1 5 1 7v420M67 439l63-32h103l33 27 57-47-26-22V168l-64-32v63H130v-63l-63-32v335m166-52H130V220h103v167m558 105H552l21-57 25-59 26-54 29-49 27-36 40 66 29 63 26 70 16 56m-652 97-5 38-5 35-3 17-12 49-5 14 9 5 10-13 12-12 9-15 19-31 15-37 6-19 7-20 6-22-6-23-20-12-24 5-12 20-1 21M31 767v20h182v138l63-11 16-11-16-8V787h67l53 53 62-53v-20H31Z"/></symbol><symbol id="𭤀_J" viewBox="0 0 1000 1000" data-size="21"><path transform="matrix(1 0 0 -1 39 950)" d="M323 678c46 36 89 80 128 133 38-31 58-53 58-65 0-9-14-11-40-6-45-35-93-65-146-91V548c0-15 4-25 12-27 7-4 22-5 45-5 25 0 42 5 50 17 11 18 17 53 18 105l25-10c0-44 1-71 5-82s13-17 26-17c0-25-9-41-27-50-17-8-49-12-96-12-50 0-81 5-93 15-11 8-16 27-16 57v351c59 0 88-8 88-22 0-9-13-18-37-28V678m252-102c-17-45-41-92-72-143l-19 16c31 70 55 141 70 212 14 61 25 141 36 240 61-12 91-25 91-39 0-8-13-15-38-22-13-70-25-125-36-163h206l44 64c23-25 43-48 59-71l-9-18h-80c-12-87-26-159-42-216-17-63-40-120-68-172 51-79 120-141 205-186-17-17-32-37-45-61-78 50-141 116-190 198C632 131 555 60 457 1l-12 22c90 67 161 149 213 247-17 36-32 77-46 122-13 44-25 106-37 184m18 51c24-133 55-235 91-305 41 93 68 203 83 330H601l-8-25M124 62V0H70v407c17-9 36-20 57-33h41c10 32 18 75 23 127 54-15 81-29 81-42 0-8-11-14-34-19-8-18-21-40-39-66h165l36 43c38-28 58-48 58-59 0-4-3-8-9-11l-24-16V0h-53v62H124m0 25h248v124H124V87m0 149h248v113H124V236m1 484h41l39 60c23-27 39-49 50-65l-9-20H125V535c41 10 83 22 126 35l3-24c-77-35-144-62-202-81-4-24-10-35-17-35-11 0-23 27-35 81 31 5 55 9 72 13v362c61 0 91-8 91-22 0-9-13-18-38-28V720Z"/></symbol><symbol id="𭤁_J" viewBox="0 0 1000 1000" data-size="21"><path transform="matrix(1 0 0 -1 39 951)" d="M117 525v-38H63v316c19-8 37-17 56-26h48c10 31 18 72 23 122 58-7 87-17 87-30 0-7-12-13-34-18-10-21-26-45-47-74h161l33 41c35-28 52-47 52-55 0-4-2-7-5-10l-21-16V492h-52v33H117m0 25h247v92H117v-92m0 117h247v85H117v-85m495-156v392c67-3 100-12 100-26 0-8-14-17-43-28V717h135l44 63c24-23 44-46 60-69l-11-19H669V511h100l37 44c40-32 60-54 60-64 0-4-3-7-7-10l-29-18c-32-103-72-188-119-254 58-61 128-109 211-143-22-15-38-33-49-54-75 39-140 91-195 155C613 94 524 38 409 0l-14 24c95 38 178 100 248 186-53 73-96 165-128 276h-59l-9 25h165m62-260c41 61 74 139 99 235H548c11-32 22-61 34-87 24-52 55-101 92-148M202 391v119c58-3 87-11 87-22 0-8-11-15-34-23v-74h123l37 49c23-19 40-38 52-55l-11-19H212c-1-38-4-66-7-85h156l31 37c36-27 53-45 53-52 0-4-2-8-8-12l-19-14c-1-76-10-133-26-170-15-34-44-50-86-50-1 23-28 40-82 51v25c35-7 64-10 86-10s36 15 43 44c8 33 12 75 14 126H200C177 146 116 62 16 5L2 25c99 74 150 187 154 341H14L0 391h202Z"/></symbol><symbol id="𭤂_J" viewBox="0 0 1000 1000" data-size="21"><path transform="matrix(1 0 0 -1 43 951)" d="M94 518v-38H40v336c19-8 38-17 56-26h82c11 32 19 70 23 112 58-7 87-17 87-30 0-7-11-13-34-18-4-7-19-29-47-64h162l32 41c35-28 53-47 53-55 0-4-2-7-6-10l-21-16V485h-52v33H94m0 25h281v102H94V543m0 127h281v95H94v-95m215-525c29-27 44-51 44-73s-10-33-30-33c-9 0-19 10-32 30-5 8-14 21-28 38C209 69 134 34 36 2L25 23c87 40 155 81 203 121-36 36-71 65-106 86-28-25-64-50-107-77L0 173c83 63 144 138 182 225H17L7 423h349l48 54c17-14 34-30 52-48 57 122 94 276 112 462 64-11 96-23 96-35 0-7-14-14-41-21-10-66-19-116-28-151h216l42 60c25-24 45-46 60-67l-10-18H803c-9-75-21-141-36-200-17-67-37-126-62-179 53-77 123-145 209-204-20-16-37-36-50-60-84 70-146 141-188 211C620 136 537 60 425 0l-16 21c102 71 181 158 237 260-41 80-70 173-89 279-26-66-58-127-98-185l-23 15 4 8H245c-15-32-31-61-49-86h152l38 41c39-33 58-53 58-62 0-4-4-8-11-11l-27-11c-31-51-63-92-97-124m-42 34c29 29 56 65 81 108H177c-7-9-19-22-35-39 47-20 88-43 125-69m479 480H588c-3-10-7-24-12-43 12-61 27-116 44-164 14-42 31-82 51-119 33 84 58 193 75 326Z"/></symbol><symbol id="𭤃_J" viewBox="0 0 1000 1000" data-size="21"><path transform="matrix(1 0 0 -1 39 949)" d="M114 169v-55H60v250c26-12 46-22 60-31h100l31 38c36-27 54-45 54-53 0-4-3-8-8-11l-19-13V129h-51v40H114m0 25h113v114H114V194m3 387v-48H64v234c22-9 42-19 59-29h92l33 40c37-28 55-47 55-56 0-4-3-8-7-11l-20-15V555h-52v26H117m0 24h107v108H117V605m707 60c-11-171-45-307-103-407 52-71 118-134 196-189-20-14-35-31-48-52-74 60-133 125-178 195C631 127 548 57 442 0l-19 19c96 61 175 142 237 245-44 81-77 179-97 295-25-52-45-91-60-117 5-4 13-11 23-22l-12-19h-95V92c0-35-10-58-31-69-15-8-37-12-64-12 0 26-33 43-99 52v25c41-4 76-6 105-6 22 0 33 9 33 28v291H11L0 426h423l41 47 16-12c55 120 93 266 113 437 65-12 97-24 97-37 0-8-14-15-43-21-8-48-20-98-35-151h208l43 59c23-23 43-44 59-65l-10-18h-88m-60 0H604c0-1-4-11-11-31-4-11-7-20-10-28 26-122 60-220 103-295 46 92 72 210 78 354M417 812V539c0-31-6-52-19-64-13-13-36-19-69-20-1 24-29 39-84 44v25c41-3 69-4 85-4 21 0 31 9 31 28v264H21l-10 24h398l42 57c25-22 46-42 62-62l-12-19h-84Z"/></symbol><symbol id="𭤄_J" viewBox="0 0 1000 1000" data-size="21"><path transform="matrix(1 0 0 -1 34 949)" d="M833 664c-11-171-45-306-103-406 52-71 118-134 196-189-19-14-35-31-48-52-74 60-133 125-178 195C639 127 555 56 446 0l-19 19c98 59 179 141 242 245-42 77-74 169-94 276-18-42-40-83-64-124l-23 13c59 126 99 282 119 469 65-12 97-24 97-37 0-9-14-16-41-21-9-54-21-104-34-151h200l43 58c23-22 43-44 59-65l-10-18h-88m-60 0H622c-8-26-17-51-26-75 21-107 54-200 99-279 46 92 72 210 78 354M205 289H18l-9 24h207v81c-51-8-98-14-143-18l-10 23c122 20 214 47 278 80 36-26 54-44 54-55 0-6-5-8-16-8-6 0-16 1-30 4-20-5-47-11-79-18v-89h114l42 55c22-21 41-41 56-59l-11-20H270v-49c59-19 103-40 134-64 26-20 39-38 39-56 0-23-9-34-28-34-10 0-19 6-27 17-26 39-65 76-118 108V1h-54v208C169 148 103 94 18 48L3 69c88 63 155 136 202 220M91 536h316l32 43c41-38 62-62 62-71 0-6-5-10-16-13l-20-6c-16-19-32-35-48-49l-19 12c7 19 12 38 14 59H92c-1-33-7-60-19-81-11-21-24-32-38-32-11 0-20 4-27 13-5 6-8 13-8 20 0 8 6 19 19 32 27 28 42 65 46 111l23-3c2-12 3-24 3-35m125 105v110H15l-8 25h209v123c62 0 93-7 93-21 0-8-13-16-39-25v-77h122l42 61c22-21 41-43 58-66l-10-20H270V641h96l43 59c22-21 41-43 57-65l-13-19H44l-9 25h181Z"/></symbol><symbol id="𭤅_S" viewBox="0 0 1000 1000" data-size="21"><path transform="matrix(1 0 0 -1 32 959)" d="M319 257H0v21h319v116l64-11 15-11-15-9v-85h42l53 52 62-52v-21H383V84l-1-14-2-12-5-13-7-13-8-10-10-8-12-7-13-4-13-2-13-1v31l-95 16v16h101l5 1 4 1 2 2 2 5 1 5v180M821 46l-50 32-45 36-41 41-6 7-49-44-56-40-60-33-64-26-68-18-3 9 63 27 59 32 54 37 49 41 44 48 2 2-36 55-27 55-24 59-18 64-12 63h-48v21h150v404l63-10 16-11-16-9V729h133l43 47 53-47v-21H698V514h109l32 26 57-47-26-15-10-4-19-58-33-72-37-66-42-60-15-16 9-10 40-33 43-29 46-25 85-34-61-50-55 25m-672 66-10 24-16 24-10 13-38 39-15 13 4 7 18-7 20-8 17-8 16-10 15-10 14-10 14-12 11-13 11-12 10-15 1-24-16-18h-24l-18 16-4 11m653 381H545l21-56 26-59 29-54 30-49 31-38 6 10 37 58 32 63 27 70 18 55m-698-89v-37l-62-31v378l62-32h116v79H0v21h220v131l63-11 16-9-16-10V782h120l53 52 64-52v-21H283v-79h126l31 26 58-47-26-21V383l-63-31v52H104m116 136H104V425h116v115m189 0H283V425h126v115M220 661H104v-99h116v99m189 0H283v-99h126v99m-23 164-16 27-35 41-9 8-9 6 4 9 11-5 13-2 11-3 11-4 12-4 22-10 21-13 11-8 7-22-10-22-23-9-21 11Z"/></symbol><symbol id="𭤆_S" viewBox="0 0 1000 1000" data-size="21"><path transform="matrix(1 0 0 -1 39 980)" d="m393 84-45 52-22 28-18 29-18 31-16 31-13 29V31L198 0v252l-28-41-24-31-25-30-26-26-29-25-29-23L7 57l-7 6 47 56 44 57 39 61 17 33 34 69 5 14H6v21h192v283l63-11 16-9-16-10V374h76l53 53 63-53v-21H261v-11l46-68 41-52 20-25 45-45 62-50-57-42-25 24m409-1-55 40-50 46-41 49-10-16-43-56-48-49-53-41-58-34-5 8 50 41 45 45 41 51 37 57 18 32-14 19-32 61-26 65-21 70-14 75-3 49-25-36-28-38-31-36-8 6 43 81 40 85 35 90 15 46 14 49 13 49 14 60 59-23 12-14-18-6-26-83-19-50-19-46-17-36h225l53 52 63-52v-21H809l-15-89-21-90-24-83-30-75-33-68 9-13 43-43 47-39 52-32 85-44-60-48-60 35m-57 589H564l-17-32-17-29 15-61 22-71 26-64 30-59 31-49 20 46 24 74 21 80 15 87 11 78m-380-57 55-33 10-16-21-3-32-50-39-54-14-18-31-36-8 5 50 124 21 56 4 14h-1l6 11M106 452l-12 49-11 33-6 17-14 33-8 17 8 5 12-13 15-13 13-14 11-14 22-31 18-33 16-34-3-24-20-15-23 3-16 19-2 15M1 668v21h80v209l58-10 14-11-14-9V689h62v272l58-11 13-11-13-8v-95h67l43 48 53-48v-21H259V689h84l52 53 63-53v-21H1Z"/></symbol><symbol id="𭤇_S" viewBox="0 0 1000 1000" data-size="21"><path transform="matrix(1 0 0 -1 32 975)" d="m729 25-34 20-71 37-44 20-12-7-54-27-62-21-70-18-79-12-86-7-1 9 84 18 75 20 65 22 58 25 30 18-68 24-72 24-32-51-70 7 104 166H180v21h222l87 138H165V284h-62v219l62-31h642l52 52 64-52v-21H523l26-23 9-18-21-2-59-95h286l52 52 64-52v-21H714l-9-43-21-47-31-41-29-28 60-22 38-16 37-19 35-19 13-20-3-23-21-14-23 4-31 21M165 284l-2-41-6-38-8-35-9-33-13-31-16-27-18-24-21-21-22-16L23 5l-4 8 17 19 16 21 12 21 12 24 9 25 8 27 6 30 3 32 2 35-1 37h62m485 8H464l-68-109 23-2 48-7 46-10 46-11 9-3 16 13 29 31 22 35 11 37 4 26M291 587l-1-13-2-13-5-13-7-12-7-11-11-8-12-7-13-4-13-2-13-1v31l-84 16v15h84l6 1 5 1 5 2 2 2 2 5 1 4v7h63m533-37-47 18-44 22-39 22-16 12-52-34-52-26-56-22-63-19-68-14-3 10 64 23 59 26 52 27 45 29 39 29-15 13-26 29-23 32-17 33-7 22-7-11-19-23-20-23-23-21-24-20-7 6 46 78 24 48 20 50 8 26 6 24 4 24 2 10 60-23 13-14-20-7-13-34-11-25-4-8h205l53 53 62-53v-22h-97l-14-43-23-44-29-41-27-29 39-18 41-16 45-14 92-24-62-55-51 17M386 771l4 6 2-2 25 22 58-47-27-17-20-7-17-20-47-45-12-10-14-9-13-11-7 7 9 12 43 84 8 16h-87V587h-63v116l-30-32-22-22-26-20-25-19-28-17-30-16-30-14-33-11-4 8 77 61 44 42 39 44 30 43H23v21h217l-7 8-8 9-21 19-13 9-45 30-20 8 3 9 20-5 20-2 19-3 18-5 32-12 16-7 11-6 69 73H50v22h303l11 13 2-3 20 16 57-48-26-15-43-18-21-13-48-26-24-11 12-9 8-23-5-10h90m363 46H578l-14-21-1-2 18-23 23-26 25-23 27-24 21-12 28 36 22 36 16 38 6 21Z"/></symbol><symbol id="𭤈_S" viewBox="0 0 1000 1000" data-size="21"><path transform="matrix(1 0 0 -1 34 965)" d="m814 61-53 41-48 45-43 50-10 15-36-45-56-55-62-47-68-37-75-28-4 9 69 37 61 43 56 49 49 54 41 59-32 63-26 65-20 70-14 74-4 46-22-33-29-38-31-35-8 6 43 81 39 85 18 44 15 45 15 47 14 47 11 50 10 46 2 15 61-23 12-13-18-7-9-32-16-51-17-49-19-48-15-35h217l52 52 63-52v-22H822l-16-92-23-93-30-86-36-78-26-41 21-28 42-43 45-39 51-33 82-43-59-48-59 36M337 254H0v20h337v97l63-10 16-10-16-10v-67h21l43 48 53-48v-20H400V102l-1-14-2-13-4-12-6-13-9-10-11-9-12-7-12-3-13-3h-14v31l-94 15v16h100l5 2 3 1 3 1 1 1 1 2 1 3 1 5v159M165 104l-6 28-8 25-18 48-7 11 7 7 10-9 11-8 11-9 11-9 18-23 18-26 16-30-3-23-18-16-24 2-16 18-2 14m594 545H584l-17-32-17-30 14-60 23-70 25-64 30-59 20-33 11 21 31 74 25 83 18 88 12 82M46 354l-1 11v6l-1 3v16l-1 2v13l-1 4v4h29l81 85 50 55 5 7H104v-38l-63-31v290l63-32h125v67H13v22h216v93l63-11 16-11-16-9v-62h123l43 47 53-47v-22H292v-67h123l32 26 58-46-26-22V560l-64-33v33H232l31-33 4-17-20 5-42-37-41-32-43-29-4-3h193l41-1 42-1 19-1-9 14-20 28-24 27-12 14-14 13 4 9 36-17 18-10 15-10 32-23 28-27 24-32 3-23-14-20-24-2-19 13-7 16-8 15-27-4-82-12-80-10-150-16-15-1-10-18-11 16v3m-4 59 4-61-15 60 11 1m187 233H104v-66h125v66m186 0H292v-66h123v66m-186 83H104v-62h125v62m186 0H292v-62h123v62Z"/></symbol><symbol id="𭤉_G" viewBox="0 0 1000 1000" data-size="21"><path transform="matrix(1 0 0 -1 48 973)" d="m48 422 25-31h240l27 33 44-40c5-4 7-7 6-10s-4-5-10-7l-17-9V120l4-60c4-25-11-39-44-42v66H84V43C85 19 70 5 37 0c4 32 6 65 7 99v283c0 7-3 18-9 33l13 7m277 514 53-49c5-5 8-8 8-11-1-3-4-4-9-5-15 4-33 3-55-2-35-8-70-15-104-21 3-57 9-107 18-150h85l30 38 56-46c5-4 8-7 7-9s-5-3-12-3H241c11-44 28-84 51-121 17-29 35-48 56-59 14-10 26 4 36 41l18 66 12-4-16-93c-4-22-2-37 7-44 8-11 10-17 5-20-5-7-23-7-53 1-35 10-66 34-91 72-30 49-52 102-66 161H69V499l143 55 5-11-96-53c-7-4-15-9-26-16-13-8-21-13-24-15-9-5-19-15-31-29L0 474c9 4 19 12 28 24v326c-2 13-9 28-21 43l10 11 37-35c70 14 142 31 216 51 19 6 31 11 36 14 6 7 10 15 12 26l7 2m301-41c1 12-7 25-22 40l8 11 80-31c3-1 5-4 5-7-1-3-3-4-7-5-11-2-19-8-26-18v-72h131l28 34 56-39c5-3 7-6 6-7-1-2-5-3-11-3H664V692h94l26 31 45-32c7-9 7-14 0-16-8 1-15-1-22-7-7-8-15-19-24-34-25-41-57-77-95-108 68-44 140-68 216-72v-14c-23-1-40-2-51-5-10-5-17-14-20-25-68 24-126 55-174 93-61-43-138-77-232-103l-4 13c81 31 151 69 208 114-45 42-81 92-107 149h-3c-14 1-24-4-30-14l-30 30h165v203m-7-461 80-34c8-3 10-7 6-10-13-4-23-10-29-18V81h124v204c1 9-9 24-30 45l8 11 84-35c9-3 11-7 6-11-13-5-23-12-29-20V101l4-48c0-13-5-23-14-30-9-6-18-11-29-15v53H528l-28-43-53 41c17 15 26 30 29 44v194c-3 13-10 25-22 36l7 9 79-35c10-4 12-8 7-12-13-3-24-8-32-17V81h122v301c1 10-8 24-26 41l8 11M84 232V104h239v128H84m0 139V248h239v123H84M69 827V698h127c-9 43-14 91-17 144-35-5-72-10-110-15m475-151c29-49 66-92 112-128 42 38 78 81 108 128H544Z"/></symbol><symbol id="𭤊_J" viewBox="0 0 1000 1000" data-size="21"><path transform="matrix(1 0 0 -1 47 949)" d="M108 289v-39H57v296c18-6 36-14 53-24h258l32 42c35-27 53-45 53-54 0-3-3-8-8-13l-19-18V257h-51v32H266v-98h119l44 60c24-24 44-46 60-67l-11-18H266V0h-51v166H9l-9 25h215v98H108m0 24h267v83H108v-83m0 108h267v76H108v-76m687 242c-9-75-21-142-36-200-16-67-37-126-62-179 53-77 123-145 209-204-20-17-36-37-50-60-83 70-146 141-188 211C612 139 529 64 417 4l-16 21c102 71 181 158 237 260-41 81-70 173-89 279-26-66-58-127-98-185l-23 15c68 128 112 295 132 501 64-11 96-23 96-35 0-7-14-14-41-21-10-66-20-116-28-151h216l42 60c25-24 45-46 60-67l-10-18H795m-57 0H580c-3-10-7-24-12-43 12-61 27-115 44-164 14-42 31-82 51-119 33 84 58 193 75 326m-457-50c18 44 32 92 42 145 51-19 77-36 77-49 0-8-12-13-36-14-11-22-29-49-53-82h81l41 59c22-23 41-44 56-65l-9-19H10L0 613h281m-65 174v110c58 0 87-7 87-22 0-7-13-16-37-25v-63h110l41 59c24-23 43-44 58-64l-10-20H29l-10 25h197m-47-169c-15 0-25 12-30 38-5 31-20 59-44 82l12 17c62-30 93-63 93-100 0-10-4-19-11-27-6-7-13-10-20-10Z"/></symbol><symbol id="𭤊_K" viewBox="0 0 1000 1000" data-size="21"><path transform="matrix(1 0 0 -1 42 957)" d="m254 913 64-15c22-5 30-10 25-14-3-5-17-10-40-17v-76h126l40 39 53-36c9-6 12-10 8-14-2-3-9-5-20-5H121l-68-4-12 22 64-2h152v77l-3 45M80 616h98l-1 19c-1 20-3 37-5 50-5 22-15 46-29 72l11 6c17-17 32-34 45-53s21-35 25-47c0-11-2-20-5-28-2-8-5-14-9-19h105l59 147 55-15c13-4 17-8 13-12-4-5-16-8-36-8l-35-54-39-58h98l46 43 55-39c9-6 11-11 7-16-3-3-9-4-19-4H95l-67-4-12 22 64-2m9-68 53-29h269l30 25 42-28c18-13 23-23 16-28-5-3-14-5-28-5V302c1-9 0-15-2-18-3-4-10-9-21-14-11-2-18-1-22 4-2 3-3 10-2 21l1 11H314c9-4 12-8 11-13-2-5-10-7-24-8v-92h176l41 41 53-38c9-6 11-11 8-14-3-4-9-5-19-5H302V46l1-12c1-9 1-15-1-18-3-4-10-7-22-10-12-2-20-1-23 2-2 2-3 8-2 19l1 13v137H80l-68-4-12 22 64-2h193v113H141v-14c0-9-2-15-4-19-3-5-9-10-18-14-13-4-22-4-26 1-2 3-3 11-1 22l1 10v204l-4 52m51-124h285v79H140v-79m0-102h285v86H140v-86M911 56c-14 3-27 3-38-1-10-4-17-10-22-19-34 30-62 61-86 93-26 31-48 64-66 99-34-51-77-94-129-131-52-38-115-70-188-97l-5 11c70 29 130 65 182 109 48 42 88 90 121 146-22 50-41 107-56 170-13 56-24 123-32 199-15-22-31-43-47-63-18-22-36-42-56-61l-6 10c39 45 73 100 103 166 26 59 49 126 68 200l42-19c22-9 31-16 29-22-4-6-15-8-36-8-11-29-22-58-35-86-14-32-30-63-47-93h216l39 40 46-36c8-6 10-10 7-14-3-3-9-5-19-5h-63c18-6 25-11 21-15-3-4-13-7-30-10-10-75-24-141-40-196-17-61-39-114-64-160 23-39 50-74 81-107 34-34 72-66 115-93l-5-7M606 644c10-71 21-131 34-181 15-61 34-115 59-162 23 49 41 102 54 161 12 55 20 116 23 182H606Z"/></symbol><symbol id="𭤋_J" viewBox="0 0 1000 1000" data-size="21"><path transform="matrix(1 0 0 -1 32 958)" d="M435 266c-30-65-62-115-97-150 64-27 96-53 96-78 0-19-7-29-21-29-6 0-15 4-27 12-32 22-62 42-90 59C231 33 136 7 10 0L0 24c110 11 195 37 253 79-35 19-79 37-130 54l-35-34-41 23c40 40 75 80 107 120H14l-9 25h169c22 29 43 59 63 90 46-17 69-30 69-41 0-9-14-14-44-16l-24-33h202l41 49c20-17 40-35 57-55l-9-19h-94m-61 0H219c-25-31-51-61-77-89 50-12 99-26 147-42 32 32 61 75 85 131M124 817h111v91c55-1 83-9 83-22 0-9-12-19-35-28v-41h110l31 39c34-27 52-44 52-53 0-4-2-8-6-10l-19-14V660h-50v18H283v-58h164l33 42c19-17 34-33 46-49l-9-18H283v-33c48-14 85-31 113-51 25-17 37-33 37-49 0-20-11-30-31-30-8 0-18 7-28 22-24 32-54 61-91 87V397h-48v132c-57-53-129-101-216-145L3 402c88 55 162 120 223 193H18l-8 25h225v58H116v-26H67v192c22-9 41-18 57-27m-8-25v-89h119v89H116m167 0v-89h118v89H283m293-70c9 50 17 114 23 193 65-6 98-16 98-31 0-8-14-16-42-23-7-49-16-96-27-139h189l44 63c24-23 44-46 60-69l-11-19H621c-21-67-47-128-77-181h238l37 44c40-32 60-53 60-64 0-4-2-7-7-10l-29-18c-30-96-71-180-124-252 60-61 132-109 216-145-21-14-38-32-49-54-77 42-144 95-200 159C627 108 554 51 467 5l-14 24c80 53 146 116 201 188-22 30-43 64-62 100-22 43-45 101-68 174h-37l-9 25h38c26 63 44 123 55 181h-83l-10 25h98m106-464c47 70 82 148 104 233H557c18-56 41-107 69-153 21-34 40-61 56-80m119 490c-15 0-24 9-30 27-12 34-32 62-61 85l11 19c36-13 63-28 83-45 19-16 28-32 28-48 0-25-10-38-31-38Z"/></symbol><symbol id="𭤌_G" viewBox="0 0 1000 1000" data-size="21"><path transform="matrix(1 0 0 -1 18 968)" d="m963 57-2-15c-42 9-70 2-83-20-49 42-96 97-141 164l-25 39c-24-35-52-67-83-95C571 78 505 35 432 0l-6 14c39 24 75 51 110 80-34 7-56 1-65-19-39 27-73 58-102 93-31 42-53 81-67 117-9 22-17 44-24 67-19-29-41-57-65-84V86c27 13 74 39 141 80l8-13c-51-37-99-71-145-103-3-3-9-9-17-18-5-7-10-12-13-15l-35 41c9 4 16 11 21 21v144C123 177 67 139 4 110l-4 12c102 73 182 155 241 247h-92c-1-13-4-22-9-27-5-6-16-11-33-14 3 25 6 52 7 82v81c-2 13-8 24-17 34l14 11 29-32h253l28 31 47-39c5-4 6-7 5-9s-4-3-11-4l-18-8v-60l2-39c0-21-12-31-37-31v24H297c17-45 40-89 68-134 26 16 46 29 61 40 29 20 43 34 44 41 0 1 0 2-1 3-1 7-2 12-5 15l11 7 54-51c4-3 6-6 6-8 0-3-2-4-6-5-19 7-57-6-114-39-11-6-24-13-38-20 51-67 106-103 166-109l-1-9c17 14 33 29 49 44 29 26 62 66 98 121-21 37-40 84-58 143-17 55-32 116-44 185-29-60-56-104-79-133l-11 8c47 95 85 191 113 286 25 89 35 135 30 138-3 11-9 21-17 32l7 11 96-42c6-7 6-11-1-14-11 1-24-4-41-16-19-71-37-128-55-171h214l33 42 61-48c7-5 9-9 8-11-1-3-7-4-17-3h-84c-12-141-35-252-70-335-13-30-26-54-37-72 4-5 11-15 20-28s15-22 19-28c57-86 119-137 187-152M75 897l33-36h317l37 37 43-45c5-4 6-7 5-9s-4-3-10-4l-18-9v-86l2-45c0-20-13-30-40-30v22H116v-1c3-26-12-41-45-44 4 32 6 62 7 91v110c-2 15-8 27-17 38l14 11m724-225H622v-1c-1-7-3-12-6-15l-11-25c11-52 25-105 42-159 11-43 28-89 52-138 2-3 5-9 10-17 1-3 3-6 4-8 4 9 9 17 14 25 37 75 61 187 72 338M149 385h260v103H149V385m208 323h87v137h-87V708m-34 137h-87V708h87v137m-121 0h-86V708h86v137M44 609h393l28 36 60-46c5-3 8-6 7-8-1-1-6-2-14-2H122c-17 1-32-4-44-13l-34 33Z"/></symbol><symbol id="𭤍_S" viewBox="0 0 1000 1000" data-size="21"><path transform="matrix(1 0 0 -1 50 969)" d="m109 67-3 14v3l-2 10v2l33 3 18 2v237l63-10 16-11-16-9V107l63 9v302H104v20h297l43 48 52-48v-20H345V288h38l32 37 42-37v-14l38 49 17 24 28 47 13 25 10 24 10 26 8 26 3 7 57-28 11-15-19-5-19-35-33-51-3-5h166l52 53 63-53v-20h-88l-15-51-22-52-27-46-32-42-12-10 41-26 40-18 43-17 90-27-62-54-50 20-48 21-42 25-39 29-12 11-32-24-50-28-55-24-59-17-65-13-2 10 61 22 55 25 48 27 43 30 26 23-20 22-23 37-18 39-12 41-2 23-21-19-25-17-27-17-6 7 11 14H345V125l114 16 50 5 2-9-93-31-86-23-79-20-107-24-10-2-10-18-13 14-1 6v2l-2 13v1l-1 10v2m-5 29 9-63-18 61 9 2m602 247H561l-18-22-13-11 12-27 20-35 21-31 25-29 18-16 11 12 26 39 21 42 15 45 7 33M16 442l27-56-23-1-19 15-1 25 16 17m22-45 5-11 17 11 13 14 11 15 8 16 7 19 4 18 1 21v10h698l-23-35-30-43-13-14 7-8 16 13 15 9 41 28 24 18 6 3 29 13 26 16-57 48-23-20-2 2-3-6-3-3H103l-2 12-3 22h-9l-2-22-6-21-6-17-6-16-7-12-8-11-9-9-10-6-9-5-10-4v-1l5-9 1-4 2-2v-1l3-6 1-1v-2l8-16 2-3m656 541 53-47v-22H476l-16-15-16-11-18-14-19-12-10-5h260l32 26 58-48-26-20V575l-64-31v31H253l-63-31v299l63-31h123l2 1 5 11 19 39 2 6H164v22h487l43 47m-37-252H253v-90h404v90m0 104H253v-84h404v84Z"/></symbol><symbol id="𭤎_G" viewBox="0 0 1000 1000" data-size="21"><path transform="matrix(1 0 0 -1 24 976)" d="m480 478 77-24c9-3 11-7 6-11-13-5-23-11-29-20v-36h238l30 39 63-41c7-5 9-9 8-11-2-3-8-4-19-3H534V232h75c5 7 12 17 21 30 10 13 17 23 21 29 12 21 16 36 13 43-2 6-6 11-11 15l7 6 77-32c7-6 8-10 1-13-14 1-26-2-36-9-21-19-44-42-69-69h170l31 37 64-43c5-4 8-7 7-8-1-2-6-3-13-2H564c95-90 212-140 352-150V50c-45 3-72-6-81-25-130 36-229 100-297 191h-4V98l3-56c2-23-15-37-51-42 3 24 6 72 7 144v72h-13C408 112 291 44 128 13l-4 13c142 41 244 105 307 190H259c-16 1-31-3-44-12l-33 28h311v139H283c-17 1-32-4-44-13l-33 29h287v46c1 10-6 21-22 33l9 12m111 474 71-28c5-1 7-3 8-5s0-4-3-6c-13-2-25-7-34-16-8-21-17-40-27-59h226l32 37 63-46c5-3 8-6 7-7-1-2-5-3-12-2h-81c-26-62-53-109-81-140-7-9-14-17-23-25 46-27 94-44 145-53 20-4 43-8 69-12v-15c-26 1-43-1-50-4-9-3-16-10-22-23-43 14-81 29-114 46-20 10-39 22-58 36-19-14-40-27-65-40-49-25-112-46-188-62l-4 12c61 21 111 43 150 64 27 14 53 31 78 51l-6 6c-2 3-4 6-5 7-29 29-57 71-83 127-31-49-63-86-94-113l-10 6c35 49 63 98 84 147 20 47 30 75 29 82 1 8-2 17-8 27l6 8m-352-1 87-36c8-2 10-5 6-10-14-5-24-12-30-21v-40h67l31 42 66-49c4-3 6-5 5-6s-5-2-11-3H302v-77h86l24 31 66-37c4-3 5-5 4-7-1-1-4-2-10-3H302v-36c33-7 58-14 73-20 37-15 63-34 80-59 15-25 12-41-9-48-13-3-25 5-34 26-10 21-27 38-50 52-21 13-41 23-60 31v-60l3-54c1-24-16-39-53-45 3 26 6 73 7 140v73h-19c-16-48-42-91-79-128s-82-68-137-92l-5 13c49 35 85 66 108 93 27 30 48 68 64 114h-85c-16 1-31-3-44-12l-33 28h230v77H149c-17 1-32-4-44-13l-33 29h187v50c1 9-8 24-29 45l9 12M124 535l38-30h623l31 36 66-46c5-4 8-7 7-8-1-2-6-3-13-2H172c3-140-7-244-30-311C119 105 74 47 8 1L0 11c56 59 92 123 109 190 7 32 13 73 17 123 3 51 4 104 3 159-1 14-6 28-15 41l10 11m545 178c12-15 23-27 34-34 4 4 7 7 10 9 33 36 59 80 79 132H597c-1-1-2-3-3-6-1-1-1-1-1-2 30-45 55-78 76-99M294 347l8 10c30-14 55-29 76-44 12-11 20-22 23-32 4-24-3-37-22-38-8 1-13 8-16 20-2 11-7 24-16 37-10 14-28 30-53 47Z"/></symbol><symbol id="𭤏_J" viewBox="0 0 1000 1000" data-size="21"><path transform="matrix(1 0 0 -1 40 959)" d="M595 432c-22-48-48-92-80-133l-22 14c57 104 94 224 111 360 61-11 92-24 92-38 0-8-14-15-41-20-10-41-19-73-26-96h175l42 58c24-23 43-45 59-66l-10-17h-85c-7-99-32-190-73-274 49-58 110-106 184-144-19-15-35-33-48-54-65 43-120 94-163 151C660 98 590 41 499 0l-15 20c79 46 144 113 194 199-37 60-64 131-83 213m17 40c21-80 51-148 90-206 27 66 42 142 48 228H620c-2-6-5-14-8-22M155 712h317v205c60-3 90-11 90-22 0-8-11-17-34-26V712h260l50 65c27-26 50-49 67-71l-11-19H143V512h188c5 26 11 55 16 87H192l-9 25h156l36 45c40-31 60-51 60-59 0-4-3-8-9-12l-23-15c-8-42-14-65-15-71h67l40 50c21-19 40-38 56-58l-11-17h-74V7h-55v145c-75-25-146-43-214-56-5-24-11-36-19-36-12 0-26 28-42 83 19 1 48 4 85 8v336h-78C141 268 101 108 22 8L0 24c57 103 85 256 85 460v260c22-8 46-19 70-32m120-554c59 9 105 17 136 24v80H275V158m0 129h136v90H275v-90m0 115h136v85H275v-85m415 423c-31-42-69-76-114-102l-21 14c49 44 89 104 118 182 55-19 83-35 83-48 0-9-15-14-45-14l-8-12c62-26 93-54 93-84 0-23-11-34-33-34-11 0-19 8-25 25-9 27-25 51-48 73m-516-81v163c60-3 90-10 90-22 0-8-11-17-34-26V744h-56m149 0v163c60-3 91-10 91-22 0-8-12-17-35-26V744h-56Z"/></symbol><symbol id="𭤐_S" viewBox="0 0 1000 1000" data-size="21"><path transform="matrix(1 0 0 -1 45 963)" d="m96 57 38-51-25-6-20 13-6 22 13 22m0 0 29-39 3-5 6-7 8 10 6 10 6 12 4 12 2 12 2 12v13l-2 12-2 12-1 14h-9l-1-13-10-20-5-9-6-7-6-7-6-5-6-2-6-3-6-2m699-13-50 32-44 36-39 43-4 5-16-17-47-43-53-37-56-31-61-24-3 10 55 32 49 36 45 40 41 43 21 26-33 59-24 57-16 60-13 66-4 64h-52v20h124v384l63-10 15-11-15-10V716h115l43 47 53-47v-21H678V521h86l31 27 58-47-27-16-6-3-13-49-23-69-28-63-33-58-30-42 9-11 37-34 41-29 46-24 84-35-60-50-55 26M37 773l63-31h106v184l64-11 15-10-15-9v-49h64l44 48 52-48v-21H270v-84h159l31 27 59-48-27-16-15-6-28-41-16-21-9-10-7-13-8 4 4 14 2 14 8 50 5 25H100V406l-2-53-3-35 38 45 26 35 22 33 22 36 50-39 6-16h71l4 4v3l2-1 25 20 58-46-26-16-63-26-31-14-4-1h84l29 26 55-48-26-18V152l-51-26h7l10-2 23-6 10-3 9-5 19-10 8-7 5-24-13-20-24-4-20 12-1 6-2 4-3 7-4 6-11 14-6 8-18 14-10 5 3 9 11-3v25H190l-57-29v198l-8-4-31-16-5-46-7-45-8-41-10-37-10-35-14-31-15-27L9 16l-9 5 8 26 6 28 7 30 4 35 5 36 3 40 3 43 2 46v49l-1 52v367M211 59l60-13-13-20-24-5-19 14-4 24m104-2 1 4v4l-2 6-2 7-4 7-12 17-7 8-11 6 5 8 11-5 12-2 21-8 10-4 9-5 8-5 7-7 7-8 7-10-3-23-19-15-24 3-16 19 2 3m-100 65-7-7 6-8 3-9 2-9 1-8v-7l-1-6-1-5-3-2-2-2h-2l7-2h3l29-7h3l12-3 6-1v10l-2 9-5 9-5 8-12 14-8 6-8 6-9 5-7 9m43 111h-68v-60h68v60m121 0h-68v-60h68v60m381 268H554l14-61 21-60 22-56 27-50 24-36 19 30 27 55 22 61 20 64 10 53M258 313h-68v-59h68v59m121 0h-68v-59h68v59m-57 79H220l-27-25-15-13-9-8 21-11h77l8 6 24 23 17 21 6 7m-69 145-2-12v-6l1-3 1-2 3-3 4-3 7-2 7-3v-36l-12-1-12 1-12 2-10 5-11 6-9 9-8 11-5 12-4 12-1 13v58h-88v21h88v95l63-11 16-11-16-8v-65h51l43 47 52-47v-21H253v-58m21-70h170l11 7 8 11-8 11-10 6 10 27h-11l-15-26H274v-36Z"/></symbol><symbol id="𭤑_S" viewBox="0 0 1000 1000" data-size="21"><path transform="matrix(1 0 0 -1 33 967)" d="m66 35-9 35v2l8 2v89l-29-9-32-8-4 9 54 33 11 8v7h11l45 35 37 36 25 29H2v21h147v69H55v20h94v68H34v22h115v73l63-11 16-10-16-9v-43h95v73l63-11 16-10-16-9v-43h20l43 47 52-47v-22H370v-68h20l32 37 42-37v-20h-94v-69h31l53 53 63-53v-21H269l31-62 18-29 21-25 5-6 60 100 3 7h-1l6 7 47-42 6-18-23 3-49-42-38-27 5-6 24-18 24-17 27-14 28-10 74-20-61-56-37 14-33 18-30 20-27 24-25 27-21 30-17 32-15 36-9 38-5 33-41-46-22-18-22-17-25-16-19-12V86l88 18 28 5 61 10 3-9-56-27-26-12-115-45-17-6-7-20-14 12-2 7-2 7-1 2-1 5-1 1v1m755 27-49 40-43 46-38 50-3 5-14-24-44-56-49-49-54-41-58-33-5 8 52 41 46 45 42 51 37 56 23 43-6 10-28 60-23 66-17 69-13 74-3 44-18-31-27-38-28-34-8 5 38 81 34 84 16 44 15 45 13 47 12 47 10 50 10 51 2 11 59-23 14-12-18-7-23-83-16-50-17-47-16-36h186l51 52 64-52v-22h-93l-14-88-18-89-26-84-29-75-28-60 15-23 38-42 41-40 46-33 49-28 27-14-60-47-54 36M57 72l16-60-27 58 11 2m714 577H617l-14-32-17-30 14-60 20-70 23-64 27-60 18-33 14 30 25 74 19 80 16 87 9 78M307 393h-95v-69h95v69m0 88h-95v-68h95v68M50 765l62-32h74l26 27 53-47-27-16v-94l-52-27v27h-74v-16l-62-32v210m383-5 57-47-26-22v-99l-63-31v42h-73l-53-27v184l53-27h73l32 27m-32-47h-73v-90h73v90m-215 0h-74v-90h74v90M8 797v20h220v117l63-11 16-11-16-10v-85h125l43 48 53-48v-20H8Z"/></symbol><symbol id="𭤒_S" viewBox="0 0 1000 1000" data-size="21"><path transform="matrix(1 0 0 -1 31 958)" d="m825 46-48 31-45 36-39 42-5 5-45-43-54-40-58-33-62-26-66-18-3 9 61 27 56 32 6 5H138V36L75 5v302l-24-27-22-20-22-19-7 6 54 96 21 42v9l4-1 17 40 18 49 56-30 11-15-21-4-14-26-13-21-1-2 6-1 8-5h112l3 10 5 19 15 50 2 5-1 1 6 10 51-38 8-17h-25l-22-22-8-6-16-12h127l43 47 53-47v-22H310v-72h57l43 47 53-47v-20H310v-76h57l43 46 53-46v-22H310V94h104l52 52 63-52V77l40 27 47 42 43 47 2 3-35 55-26 55-23 59-17 64-11 63h-46v21h143v404l62-10 16-11-16-9V729h123l44 46 52-46v-22H708V513h103l32 26 57-47-26-15-9-4-19-57-32-72-36-67-41-59-13-17 8-10 39-34 42-29 43-24 82-35-60-49-53 26M247 166H138V94h109v72m0 98H138v-76h109v76m560 228H560l20-57 25-59 29-54 29-49 28-36 41 67 31 63 26 70 18 55M247 356H138v-72h109v72M41 873l63-31h95l27 26 48-44v44l53-26h96l31 26 58-48-27-20V516l-62-33v33h-96l-53-27v329l-22-13V494l-53-26v48h-95v-17l-63-31v405m382-251h-96v-86h96v86m-224 0h-95v-86h95v86m224 99h-96v-78h96v78m-224 0h-95v-78h95v78m224 99h-96v-78h96v78m-224 0h-95v-78h95v78Z"/></symbol><symbol id="𭤓_J" viewBox="0 0 1000 1000" data-size="21"><path transform="matrix(1 0 0 -1 37 959)" d="M115 430h71v69c55-3 82-11 82-23 0-7-11-15-33-24v-22h74v69c54-3 81-10 81-22 0-7-11-15-33-23v-24h72l33 44c34-32 52-52 52-59 0-5-4-10-11-15l-20-13V268h-47v39H113C106 190 74 92 18 13L0 27c42 78 63 191 63 341v205c18-7 39-17 64-32h119v68c60-3 90-10 90-20 0-7-13-15-39-24v-24h137l43 45c30-24 49-42 59-52l-11-18H115v-86m0-25v-36c0-17-1-29-1-37h72v73h-71m120 0v-73h74v73h-74m122 0v-73h79v73h-79m325-116c-24 48-45 100-61 156-7 24-16 61-26 110-17-44-37-84-59-120l-20 14c50 117 82 273 94 468 59-6 89-17 89-31 0-9-13-16-38-23-6-57-13-108-22-154h179l42 66c22-25 42-49 58-73l-10-18h-79c-16-168-47-301-92-398 49-72 112-136 189-193-15-12-30-29-45-53-69 59-125 125-170 197-52-88-119-159-200-214l-13 20-6-3c-17-7-37-10-60-10-57 0-92 5-104 16-9 8-14 25-14 52v192c56-3 84-11 84-23 0-8-12-15-35-23v-62c37 20 67 41 89 62 36-23 55-39 55-49 0-5-5-8-13-8-5 0-15 1-29 4-30-14-64-25-102-35v-49c0-16 4-25 13-28 7-3 17-4 30-4 17 0 30 1 37 4 9 3 15 11 18 24 3 11 6 30 8 57l22-8c0-21 1-37 4-47 3-12 11-18 23-18-1-13-4-23-7-30 71 66 128 144 171 232m23 50c19 47 35 104 47 172 8 46 16 103 22 173H634c-6-25-13-50-21-76 20-104 50-193 92-269M80 662v-49H38v220c19-8 35-17 48-25h44c2 17 3 34 3 51H30l-8 25h178l31 34c18-12 35-24 50-38l-10-21h-98c-1-23-3-40-4-51h46l23 27c32-20 48-34 48-43 0-2-1-5-5-8l-19-16v-97c0-41-16-61-49-61 0 10-4 17-10 20-8 5-22 8-43 10v22c14-2 28-2 43-2 12 0 18 6 18 18v105h-56c-1-3-1-6-2-10s-2-7-3-9c35-21 52-40 52-58s-6-26-18-26c-7 0-13 6-17 19-6 21-14 37-23 49-12-29-36-58-74-86m0 30c25 26 40 56 46 91H80v-91m260-30v-49h-41v221c11-6 27-14 47-26h44c2 17 3 34 3 51H292l-8 25h177l30 34c18-12 34-24 50-38l-10-21h-98c-1-23-3-40-4-51h45l24 27c32-20 48-34 48-43 0-2-2-5-6-8l-18-16v-97c0-41-16-61-49-61-1 10-4 17-11 20-7 5-21 8-41 10v22c13-2 27-2 43-2 12 0 18 6 18 18v105h-57l-4-19c35-21 52-40 52-58s-6-26-18-26c-10 0-16 6-19 19-8 23-15 39-22 48-11-28-36-56-74-85m0 31c23 24 39 54 46 90h-46v-90M146 85v204c57-3 86-10 86-22 0-7-12-15-36-23v-49h23l37 44c18-20 31-37 40-49l-11-20h-89V90c38 4 72 10 101 16l3-24c-52-18-110-34-172-49-3-22-8-33-15-33-13 0-25 27-37 81 32 1 55 3 70 4Z"/></symbol><symbol id="𭤔_S" viewBox="0 0 1000 1000" data-size="21"><path transform="matrix(1 0 0 -1 47 976)" d="m415 473 64-10 15-11-15-10v-63h262l31 25 58-47-26-20V158h-63v199H479V32L415 0v357H153V110L90 79v331l63-31h262v94m389-315-1-13-2-13-4-13-7-12-9-10-10-9-12-7-13-4-13-2-13-1v31l-74 16v16h74l7 1 3 1 5 1 2 3 2 3 1 5 1 7h63m-57 259-90 28-83 32-74 36-50 29-72-37-82-34-90-30-99-24L1 397l-1 10 103 30 94 31 86 34 77 38 49 29-35 28-51 48-43 51-33 56-21 56H17v21h404v122l62-11 16-10-16-10v-91h289l53 53 63-53v-21H697l-32-64-41-57-49-53-57-48-19-12 25-13 72-31 80-26 87-24 143-28-61-58-98 23M628 808H237l30-44 38-48 45-44 50-41 52-32 35 26 51 47 42 50 33 52 15 34Z"/></symbol><symbol id="𭤕_J" viewBox="0 0 1000 1000" data-size="21"><path transform="matrix(1 0 0 -1 54 948)" d="M691 747c-31-37-58-66-83-87-29-26-64-53-106-80 101-41 231-70 390-89-20-15-34-33-43-53-167 28-299 66-394 112-112-65-259-112-441-144L0 430c160 33 295 82 406 147-34 21-72 48-114 83-33 27-64 56-93 87H30l-10 25h388v125c67-1 100-9 100-23 0-7-13-17-41-28v-74h276l53 63c26-22 50-45 71-70l-10-18H691m-76 0H239c67-59 138-107 211-144 54 37 93 69 119 94 11 11 26 27 46 50M481 278V67c0-41-33-63-100-67-1 19-12 33-31 42-18 7-51 15-99 24v25c47-6 92-9 138-9 22 0 34 10 34 31v165H23l-11 25h746l50 61c27-25 50-47 67-68l-12-18H481M213 402l-13 25h378l42 44c29-20 50-36 64-49l-12-20H213M806 32c-13 0-26 10-41 30-38 51-107 102-209 154l14 21c179-52 269-109 269-169 0-24-11-36-33-36M21 17 5 37c93 54 165 124 217 209 55-19 83-36 83-50 0-10-15-14-46-14C201 115 122 60 21 17Z"/></symbol><symbol id="𭤖_J" viewBox="0 0 1000 1000" data-size="21"><path transform="matrix(1 0 0 -1 50 950)" d="M709 364c-28-39-54-72-78-98-39-42-80-76-122-103 105-44 235-70 391-78-20-19-36-41-48-66-167 23-298 61-392 113C347 68 197 24 12 0L0 24c166 28 303 74 411 136-42 29-81 62-117 99-30 32-58 67-85 105H35l-10 25h388v101c66-3 98-10 98-23 0-7-13-15-41-24v-54h286l53 56c28-22 52-42 70-62l-12-19H709m-74 0H245c65-78 135-136 211-176 72 49 132 107 179 176M187 537v225c65-3 97-10 97-22 0-8-14-16-42-22V537h193v283H78l-10 25h639l53 54c20-14 43-33 69-57l-10-22H493V697h170l49 53c20-14 42-33 66-56l-11-22H493V537h258l55 54c23-16 45-35 67-57l-10-22H23l-9 25h173Z"/></symbol><symbol id="𭤗_J" viewBox="0 0 1000 1000" data-size="21"><path transform="matrix(1 0 0 -1 41 925)" d="M276 637H22l-10 25h169v187c64-1 96-9 96-23 0-9-13-19-40-30V662h92l45 54c1-1 13-12 35-32 11-10 20-19 26-28l-11-19h-86c-15-119-42-224-79-316 66-85 98-147 98-184 0-24-9-36-29-36-11 0-21 9-28 26-20 51-43 96-67 136C180 157 109 69 19 0L0 21c80 77 147 176 199 298-42 63-97 133-165 208l18 19c58-52 114-110 168-175 22 60 41 149 56 266M681 47h116l53 70c28-27 51-52 69-76l-11-19H315l-11 25h136v484c65-1 98-10 98-25 0-9-14-18-42-27V47h127v707H395l-12 25h397l52 68c27-24 51-49 72-74l-11-19H681V443h85l48 64c26-23 48-46 66-69l-11-20H681V47Z"/></symbol><symbol id="𭤘_J" viewBox="0 0 1000 1000" data-size="21"><path transform="matrix(1 0 0 -1 51 932)" d="M201 413c28-9 44-14 50-16h390l35 34c43-24 64-41 64-50 0-4-3-8-10-13l-23-15V68h-58v45H238V65h-58v342c-43-12-96-24-160-35L6 396c160 34 295 83 406 147-34 21-72 49-114 83-33 27-64 56-93 87H36l-10 25h388v125c67-1 100-8 100-23 0-7-14-16-41-27v-75h276l53 63c26-22 50-45 71-70l-10-18H697c-31-37-59-66-83-87-29-26-64-53-106-80 101-40 230-70 390-89-20-16-34-33-43-53-167 28-299 66-394 112-38-22-83-43-135-62-43-17-84-30-125-41m37-275h411v109H238V138m0 134h411v100H238V272m383 441H245c67-59 137-107 211-144 54 37 93 69 119 94 11 11 27 28 46 50M13 0 0 25h765l57 72c28-25 53-51 75-77L885 0H13Z"/></symbol><symbol id="𭤙_J" viewBox="0 0 1000 1000" data-size="21"><path transform="matrix(1 0 0 -1 36 942)" d="M524 662h-64l-10 25h192v197c66-3 98-12 98-26 0-8-14-18-42-29V687h116l46 64c29-29 50-52 63-70l-11-19h-74c-12-89-26-159-42-210-20-65-47-128-83-190 58-77 130-138 215-184-19-18-35-38-47-61-81 56-146 122-198 197C617 121 527 49 413 0l-17 23c104 59 189 140 255 243-65 121-108 253-127 396m34 0c8-55 21-111 40-169 23-70 50-130 81-180 48 95 80 212 96 349H558m-263-43c3-83 7-145 12-186h70l47 62c21-20 40-44 59-70l-10-17H310c10-72 27-133 53-183 19-38 32-57 38-57 13 0 26 41 39 122l23-15c-7-54-10-91-10-111 0-28 6-45 20-52-7-28-22-42-46-42-26 0-57 28-90 84-39 64-66 147-80 249H128V132c50 11 104 27 162 47l6-25c-73-35-152-66-236-92-4-27-10-40-17-40-11 0-25 29-43 87 26 3 51 7 73 12v738c14-5 37-16 67-32h224l35 43c37-33 56-53 56-61 0-4-3-8-8-11l-23-16V563h-53v56h-76m-54 0H128V428h125c-8 72-12 136-12 191m-113 25h243v158H128V644Z"/></symbol><symbol id="𭤚_S" viewBox="0 0 1000 1000" data-size="21"><path transform="matrix(1 0 0 -1 42 951)" d="m294 176-46 87-31 51-12-31-32-67-35-62-39-56-44-52L7 0 0 7l39 52 36 54 32 58 30 62 26 66 21 64-36 48-54 64-56 57 6 8 35-21 34-24 33-27 32-30 19-21 7 27 16 79 11 83 7 75H8v20h145v190l64-11 15-10-15-10V701h38l53 53 62-53v-20h-68l-11-82-16-86-19-81-19-61 31-38 28-41 27-42 27-45 2-23-15-19-24-2-19 15m188 122 63-11 16-11-16-9V86l1-7v-4l1-4 1-1 2-2 2-1 3-1 5-1h224l30 131h11L814 65l19-12 13-19-13-19-19-13H566l-13 1-13 2-14 5-11 6-10 8-9 11-7 12-4 13-3 12v226M350 80l50-36-20-13-24 5-12 21 6 23m0 0 46-33 4-3 9 18 8 18 7 20 5 19 3 22 2 21 1 23-1 23-2 23-3 25h-10l-4-25-5-21-6-22-6-19-13-35-18-30-9-12-8-12m496 61-4 17-4 16-7 15-7 17-9 16-21 32-12 17-13 14 4 8 38-22 17-13 15-14 14-15 14-15 12-18 11-18 8-19 8-19-5-24-18-15-24 4-14 19-3 17m-182 32-5 15-6 15-7 15-15 27-21 26-12 14-14 11 5 9 35-16 16-9 15-9 15-13 14-14 12-15 12-15 10-18 10-18-1-24-18-16-24 2-17 16-4 17M450 597l-2-40-5-40-5-38-7-38-9-35-11-34-13-32-13-30-18-30-18-26-8 4 17 61 8 32 7 32 6 33 4 34 3 34 2 37v38l-1 38h63m368 217-7 16-5 7-6 8-12 13-15 14-7 4 3 9 9-3h11l11-1 11-2 9-4 11-4 11-5 10-6 9-6 10-7 6-24-5-10 43-35v-21H748l8-64 13-83 14-72 8 23 10 43 8 44 4 46 2 11 62-18 14-13-18-8-6-29-12-46-14-46-17-43-18-38 11-32 19-36 18-23 1-1 28 119h11l-10-132 21-8 10-23-10-21-22-10-39 9-33 22-28 34-18 35-36-44-31-32-33-27-7 7 25 34 45 70 19 36-7 19-18 64-15 76-14 85-8 72H450V597h-63v213l63-32h233l-11 123 63-6 17-10-16-11 8-86 1-10h54l27 27-4 2-4 7M466 588l63-31h75l31 25 57-47-26-20V396l-62-32v32h-75v-16l-63-31v239m138-53h-75V417h75v118m15 177 53-47v-21H466v21h110l43 47Z"/></symbol><symbol id="𭤛_J" viewBox="0 0 1000 1000" data-size="21"><path transform="matrix(1 0 0 -1 44 946)" d="M192 298H30l-10 25h394v81c60-3 89-9 89-17 0-7-11-14-33-21v-43h291l53 51c32-23 56-42 73-57l-13-19H723c-42-41-79-73-110-95-20-15-51-35-94-60 109-35 240-57 392-64-21-18-37-40-48-64-161 21-294 54-398 99C347 55 196 17 15 0L0 24c161 22 298 60 411 114-73 38-147 92-219 160m42 0c77-61 153-105 227-134 37 20 70 39 100 60 23 16 52 41 86 74H234m141 255h130l31 33c36-26 54-42 54-48s-3-9-8-11l-19-12V403h-52v30H370v-30h-50v171c1-1 19-8 55-21m-5-23v-75h141v75H370m287-64c67 108 116 205 147 292 55-20 82-36 82-47 0-7-13-11-39-12-56-91-110-168-159-231 44 2 87 6 130 12-9 27-21 53-38 77l19 12c61-51 92-99 92-142 0-29-11-43-34-43-16 0-24 8-25 26-1 17-4 33-7 48-51-15-111-27-181-37-5-21-11-31-17-31-12 0-23 24-32 74 14 0 35 1 62 2m-586 0c67 112 114 209 141 292 52-20 78-36 78-47 0-7-12-11-37-12-52-89-103-166-153-231 41 2 82 6 122 12-7 25-19 49-35 73l18 11c55-48 83-93 83-135 0-27-10-40-30-40-15 0-23 8-24 25-1 18-3 33-6 43-51-15-108-27-170-36-5-21-11-31-17-31-11 0-21 24-30 74 14 0 34 1 60 2m595 260c25 47 45 102 61 165 57-19 85-35 85-46 0-8-13-12-39-13-30-50-60-92-88-124 27-27 40-51 40-73 0-23-11-34-33-34-12 0-19 8-21 25-8 40-31 80-70 120l15 15c19-11 35-23 50-35m-584 4c25 51 44 104 57 161 55-19 83-35 83-46 0-8-13-12-39-13-27-48-55-88-84-121 24-29 36-54 36-76 0-23-11-34-31-34-13 0-21 10-24 30-6 40-30 84-74 133l14 15c21-14 41-30 62-49m245 101-11 22h172l40 39c22-17 38-31 49-44l-9-17H327m-5-147-12 22h181l36 34c24-16 41-29 52-40l-11-16H322m2-75-9 23h175l37 35c22-16 40-30 53-42l-12-16H324m-38 148-10 22h234l39 37c21-14 39-29 55-45l-12-14H286Z"/></symbol><symbol id="𭤜_K" viewBox="0 0 1000 1000" data-size="21"><path transform="matrix(1 0 0 -1 55 931)" d="M559 447c-3-10-10-17-22-20s-33-5-65-5H355c-61 0-92 23-92 70v30l-141-15-3 20 144 17v62l-6 38 40-12c19-5 28-11 28-17 0-4-6-10-19-16v-50l95 11 18 28c6 10 10 15 12 15s7-4 16-10l38-29-7-17-172-19v-33c0-29 17-43 50-43h68c38 0 60 12 65 36l20 66 13-6-5-58c-2-13 4-22 18-25s22-9 24-18m16 215c8-9 12-16 12-21 0-7-6-10-17-10-6 0-14 1-24 4l-54-61-12 7 38 71H98V523c0-138-9-249-26-335C56 104 35 42 9 2L0 8c22 38 37 97 44 178 7 80 11 190 11 331v134l-3 49 52-29h159v145l-4 45 46-12c17-6 26-12 26-17s-8-9-25-15v-49h132l18 24c7 10 11 15 12 15 3 0 9-5 17-15l30-30-8-15H306v-76h198l18 25c6 7 9 11 9 11 3 0 9-6 19-17l25-28M705 67l-4-10c-17-2-25-9-21-22 0-12-6-19-20-21-3-1-15-1-35 0-120-2-207 4-259 17-51 14-99 43-144 86C174 66 114 31 42 12l-5 9c32 8 60 23 84 43 24 21 50 47 77 79-25 40-37 77-34 111-21-37-48-71-79-101l-7 9c29 40 53 84 70 132 18 49 33 99 44 149l49-23c12-6 18-11 18-15 0-6-12-10-35-11-6-15-11-28-16-40-5-10-8-17-10-21h78l12 18c6 8 10 12 12 12 4 0 10-4 19-12l28-26c8-8 12-14 12-20 0-7-10-11-31-13-26-67-57-118-92-153 58-58 160-85 307-83 49 2 103 6 162 11M284 313h-96c-1-9-6-23-14-42 5-46 18-84 39-112 16 17 31 40 44 69s22 57 27 85m413 369c0-29-6-43-17-43-8 0-16 8-24 25-17 37-42 65-75 84l7 12c70-33 107-59 109-78m193-303-3-17-102-28V68c0-7 0-16 1-25s2-14 2-16c0-8-9-16-26-24-5-2-10-3-13-3-6 0-9 6-9 19 0 3 1 11 1 23 1 12 1 21 1 29v252l-161-49v18l161 51v518l34-7c26-4 38-10 38-18 0-7-9-12-29-18V354l25 11 9 28c5 11 8 16 11 16 1 0 9-3 22-10l38-20m-194 78c-2-19-7-29-15-29-9 0-19 10-29 32-17 33-40 58-67 74l6 13c34-15 59-28 75-39s25-19 27-27c2-7 3-15 3-24m-243-95c18 2 27 6 27 12 0 5-9 11-27 17l-43 13V111l-1-13c-1-10-1-16 1-18 3-3 11-2 24 3 9 5 16 10 18 15 1 3 2 8 1 16v248m127-169c0-28-6-43-17-43-8 0-16 9-24 26-17 37-42 65-75 84l7 11c70-33 106-59 109-78Z"/></symbol><symbol id="𭤝_K" viewBox="0 0 1000 1000" data-size="21"><path transform="matrix(1 0 0 -1 73 948)" d="M772 236c6-6 9-10 9-12 0-3-3-5-9-7-11-4-17-7-20-8V64c0-22 0-33-1-35-1-3-9-8-23-14-6-2-10-2-12-2-6 0-8 14-7 43H532c0-24 0-36-1-37-2-6-10-11-25-16-6-2-10-3-12-3s-4 1-5 4c0 3-1 8-1 16 1 14 1 24 1 31v183l-4 41 51-30h161l17 20c8 6 13 9 15 9 1 0 7-3 16-11l27-27m0 615c6-7 9-11 9-14s-3-5-9-7c-11-4-17-7-20-9V684c0-23 0-34-1-36-1-3-9-8-23-14-6-2-10-3-12-3-6 0-8 14-7 43H532c0-23 0-35-1-36-2-6-10-12-25-17-6-3-10-4-12-4s-4 1-5 4c0 3-1 9-1 18 1 13 1 23 1 30v180l-4 41 51-32h161l17 20c8 7 13 11 15 11 1 0 7-5 16-13l27-25M366 245c5-6 8-11 8-14s-3-5-8-7c-12-5-19-8-20-8V75c0-21-1-32-1-33-2-3-10-9-24-17-5-1-9-2-11-2-7 0-9 15-7 43H130c0-22 0-35-1-37-2-5-10-10-24-15-6-2-11-3-13-3-3 0-4 1-5 4-1 2-1 8-1 16 1 14 1 24 1 31v179l-4 41 51-29h156l18 18c8 8 13 11 14 11 2 0 7-4 16-11l28-26m0 613c5-5 8-10 8-13 0-4-3-6-8-8-12-5-19-7-20-8V694c0-21-1-33-1-35-2-3-10-8-24-14-5-2-9-2-11-2-7 0-9 14-7 43H130c0-23 0-36-1-38-2-5-10-10-24-15-6-3-11-4-13-4-3 0-4 1-5 4s-1 9-1 17c1 13 1 24 1 31v174l-4 41 51-31h156l18 20c8 8 13 11 14 11 2 0 7-4 16-12l28-26m488-424-3-18-247-22v-95c-2-11-9-19-22-25-8-3-13-4-17-4-3 0-5 2-5 7-1 4-1 14 0 29 0 13 1 28 1 43v42L0 338v19l561 53v146l-3 81 52-15c19-6 29-12 29-18 0-5-12-14-35-27V414l144 13 16 31c6 14 11 21 14 21 1 0 10-3 29-11l47-34M709 75v150H532V75h177m0 619v144H532V694h177M303 88v143H130V88h173m0 618v139H130V706h173m-28-236c6-11 9-21 9-32 0-14-4-21-13-21-7 0-15 5-24 16-38 37-84 67-138 88l6 9c52-11 87-22 106-30 25-11 43-21 54-30m189 64c1-6 2-13 2-18 0-21-5-32-15-32-6 0-14 8-22 23-25 35-61 68-108 99l8 8c50-22 81-38 96-48 19-11 32-22 39-32Z"/></symbol><symbol id="𭤞_S" viewBox="0 0 1000 1000" data-size="21"><path transform="matrix(1 0 0 -1 30 964)" d="m762 924 62-11 17-11-17-8V333l18 5 31 56 62-32 4-20-115-30V31L762 0v296l-190-49-6 21 196 49v607M400 82v1-1m121 11-17 17v11l-37-17-37-14-5-2-3-7h115l3 11-19 1m-35 91-18-5-9-14-6-9-7-9-7-8 7-2h56l-1 5-2 6-3 8-7 16-7 7 4 5M306 329h-95v-72h95v72m156 0h-94v-72h94v72m-156 91h-95v-69h95v69m156 0h-94v-69h94v69m190 20-5 14-10 27-7 14-29 57-10 13 7 7 27-20 25-22 13-11 22-26 10-14 19-26 1-24-17-18-23-1-19 17-4 13m26 231-5 14-11 27-7 15-13 27-16 29-10 13 7 7 13-11 28-21 13-10 22-25 12-12 28-40 1-25-16-17h-25l-17 15-4 14M392 102v-7l1-4 1-4 1-1 1-1 2-2h1l-7 26v-7m1 39 18-2h4l1 8 3 33 1 19v13l-1 1 4 13 39-18v28H255l50-12 14-11-18-10-2-15-9-32-14-29-17-27-22-23-24-19-27-17-32-12-34-8-37-4-1 8 32 14 29 16 24 16 21 17 17 19 13 20 11 22 6 24 5 25 1 29 1 9h-31v-63l-63-31v331l63-32h70l1 1 2 11 2 9 3 17 1 9 1 7v1l1 1 1 8v9l1 2-2 1 5 11 16-8 9 10 10 11-19-1-19 17v6l-2 7-2 7-3 8-4 8-5 8-1 1V490l-62-31v114l-15-19-17-19-18-17-19-15-21-14-16-8-2-61-3-65-6-60-7-55-9-51-11-45-12-42-15-37-17-31L8 8l-8 5 10 29 8 32 7 37 7 40 6 45 4 50 3 54 2 57 1 64-1 67v352l62-32h176v121l64-11 15-10-15-10v-90h151l43 47 53-47v-21H109V499l18 22 14 19 23 38 10 20 17 43 8 26h-79v21h95v85l62-10 16-10-16-10v-55h20l23 32 33-32v-21h-76v-35l10-3 11-4 20-10 9-7 9-7 9-9 8-10v-13l8 14 10 20 10 19 9 21 6 21 1 3h-43v21h58v85l64-10 15-10-15-10v-55h19l32 37 42-37v-21h-93v-17l31-36 24-26 40-35 14-11 9-9-57-42-24 33-12 17-11 17-14 31v-99l-64-31v117l-16-18-18-18-19-16-19-14-5-3 18-10 10-15-27-4-22-22-17-15h165l32 27 58-48-27-21V236l-58-30 14-7 12-14h-3l6-4 9-3 17-9 8-5 15-11 8-7 15 66h10L568 81l19-13 13-18-13-20-19-12H412l-14 1-12 2-13 4-12 6-10 9-9 11-6 12-4 12-3 13-1 14v134l64-10 15-11-15-10v-64h1Z"/></symbol><symbol id="𭤟_J" viewBox="0 0 1000 1000" data-size="21"><path transform="matrix(1 0 0 -1 73 938)" d="M219 768c189 30 337 65 442 107 54-31 81-53 81-65 0-6-6-9-20-9-6 0-19 2-38 5-132-26-287-48-466-67v-77h480l57 55c26-23 47-43 62-59l-12-21H218V507h508l57 77c28-27 52-54 72-81l-12-21H575V13h-63v469H218c-2-115-18-210-49-286C138 118 87 52 18 0L0 20c102 105 153 262 153 470v310c18-8 40-19 66-32Z"/></symbol><symbol id="𭤠_J" viewBox="0 0 1000 1000" data-size="21"><path transform="matrix(1 0 0 -1 51 948)" d="M257 671v-37c1-103 16-198 46-286 27-79 65-146 112-202-22-15-40-34-54-56-38 66-65 133-83 202-14 52-22 110-26 174-7-94-24-171-50-232C162 137 100 61 17 4L0 24c87 76 145 176 173 300 19 84 28 182 28 293v54h-61c-28-85-67-160-116-225L2 458c61 108 102 254 122 437 66-9 99-21 99-35 0-8-14-15-43-23-9-51-20-98-33-141h226l39 53c42-41 63-66 63-75 0-5-3-8-11-11l-25-12c-34-78-71-146-110-204l-22 11c34 77 59 148 73 213H257m311 110c80 28 147 62 202 102 45-28 68-49 68-61 0-6-6-9-17-9-6 0-17 2-31 5-72-29-148-51-227-66V542h226l48 67c23-25 44-49 61-73l-11-19H754V17h-59v500H563v-43c0-210-67-368-200-474l-18 18c57 59 98 128 123 208 24 74 36 166 36 273v309c22-8 43-17 64-27Z"/></symbol><symbol id="𭤡_K" viewBox="0 0 1000 1000" data-size="21"><path transform="matrix(1 0 0 -1 58 926)" d="m783 267-5-20H486V61c0-32 1-46 1-44-1-5-8-9-22-12-10-3-16-5-18-5s-4 2-5 5v18c1 15 1 28 1 38v186H202C189 155 130 79 24 21L14 33c41 25 75 57 102 98 28 40 42 97 42 169v57l-5 50 54-26c155 6 297 30 425 73l39-30c10-8 16-14 16-19s-6-8-18-8c-9 0-21 2-34 5-153-22-297-36-433-41v-93h487l25 35c8 11 13 16 14 16 2 0 9-5 19-15l36-37M386 798l-5-18H217V545l170 45 2-14L56 459c-2-23-7-35-15-35s-16 9-23 28L0 493l174 42v245H21v21h285l16 27c7 11 12 17 13 17 3 0 8-5 18-16l33-31m499-288c1-17-34-26-105-28-49 0-79 5-88 17-8 12-12 28-12 48v260H509c2-99-12-175-40-228-29-53-73-96-131-128l-11 10c52 31 88 71 110 122 21 51 30 124 28 219l-5 48 53-23h164l12 17c5 5 8 8 9 8 2 0 7-4 16-10l25-21c9-9 14-16 14-18 0-4-10-8-29-14V571c0-17 2-29 7-35 6-6 22-9 50-9 22 0 36 2 44 5 9 3 15 12 20 27l19 83 14-2-14-84c-3-13 0-22 8-27 9-4 13-11 13-19Z"/></symbol><symbol id="𭤢_K" viewBox="0 0 1000 1000" data-size="21"><path transform="matrix(1 0 0 -1 35 933)" d="m375 595 55-37c8-6 10-10 7-14-4-4-11-6-22-6H298c18-6 26-13 22-19-3-5-12-9-27-12V37c1-10 1-16-1-19-3-5-9-10-20-14-13-4-21-4-24 0-2 3-3 10-2 22l1 13v499H139v-43c0-122-7-213-22-275C98 136 63 68 10 16L0 24c34 44 58 103 73 177 13 64 19 147 19 248v338l48-25c35 6 71 15 109 27 47 16 91 36 133 60l31-30c15-13 19-22 13-25-5-3-19-2-42 2-41-13-81-24-119-31-34-8-76-14-126-19V554h200l36 41m291-180c-9-95-42-177-98-245S431 48 326 6l-7 11c93 50 164 109 215 175 50 67 80 144 88 231H462v17h163c3 33 6 68 9 105 1 36 2 67 2 95H516c-9-20-18-39-28-59-8-18-18-38-29-59l-12 6c16 52 29 102 38 149 10 48 16 93 19 135l51-12c21-5 29-11 26-18-2-5-12-10-31-14-3-18-8-37-13-56l-14-48-2-8h115v210l48-9c17-2 25-6 24-10-1-6-10-10-26-13V656h116l50 51 58-46c7-6 10-10 10-14 0-2-3-5-9-7H682c0-41-2-78-5-111-2-32-5-61-8-89h141l48 51 59-47c6-6 9-10 9-12 0-3-2-6-7-9H680c26-79 60-147 101-203 43-59 93-104 150-136l-3-14c-17 2-32 1-45-5-13-5-23-14-31-27-33 33-62 72-87 118-41 73-74 159-99 259Z"/></symbol><symbol id="𭤣_J" viewBox="0 0 1000 1000" data-size="21"><path transform="matrix(1 0 0 -1 50 941)" d="M212 443v-46h-54v471c15-7 34-17 59-32h138l37 43c34-27 51-46 51-57 0-3-1-6-5-8l-25-17V413h-52v30H212m0 25h149v101H212V468m0 126h149v98H212v-98m0 123h149v94H212v-94M88 349h277l40 47c24-19 44-37 59-54l-10-18H265V1h-54v323H88v-37H32v507c61-2 92-10 92-23 0-8-12-16-36-25V349m481 184h224l47 65c25-26 46-49 61-71l-11-19H769V1h-57v507H569c-1-135-17-242-47-320-25-68-68-130-126-188l-19 18c51 66 86 139 106 219 19 74 28 167 28 281v293c29-11 51-20 67-27 75 21 150 54 225 98 40-29 60-50 60-63 0-5-5-8-15-9s-22 1-37 4c-68-24-149-43-242-59V533M303 257l17 16c65-43 97-84 97-124 0-25-11-38-33-38-14 0-22 11-26 33-5 37-23 75-55 113M20 28 0 43c38 59 67 135 89 229 55-20 82-36 82-49 0-8-13-14-39-17C108 142 71 83 20 28Z"/></symbol><symbol id="𭤤_S" viewBox="0 0 1000 1000" data-size="21"><path transform="matrix(1 0 0 -1 14 970)" d="m108 305 64-33h232l32 27 57-47-25-22V48l-64-31v31H172V32L108 0v305m538 149-2-64-6-61-10-57-13-51-15-49-20-43-21-40-27-34-29-30-32-22-6 7 23 29 22 32 17 34 17 40 14 41 9 45 9 50 5 54 3 58v61h62m235 485 8-13 35-35 1-18-20 9-38-15-23-9-55-15-31-8-31-7-36-7-36-7-9-1V593h210l53 53 64-53v-22H844V38L780 7v564H646V454h-62v408l61-30 101 41 78 34 40 22 17 10M404 252H172V68h232v184m80 25-40 36-68 52-106 73-7 5-14-18-24-28-27-26-28-23-30-23-32-19-33-18-34-16-37-11-4 9 61 43 28 21 51 47 23 24 22 27 20 27 19 29 19 34 51-36 9-16h-21l-8-13 37-13 60-27 55-28 52-31 46-32 11-21-7-23-21-11-23 6M98 908l62-31h223l31 26 58-47-27-21V513l-62-33v53H160v-62l-62-33v470m285-209H160V555h223v144m0 157H160V720h223v136Z"/></symbol><symbol id="𭤥_J" viewBox="0 0 1000 1000" data-size="21"><path transform="matrix(1 0 0 -1 34 944)" d="M125 290c50 22 99 53 145 94 39-24 59-42 59-54 0-10-14-12-41-6-57-27-112-47-163-60v-36c0-14 3-22 11-25 8-5 32-7 70-7 59 0 93 7 101 23 9 16 15 42 18 78l26-11c-1-38 2-61 7-71 4-8 13-12 26-12-1-28-13-45-36-50-17-4-62-6-133-6-65 0-105 4-119 13-15 9-23 30-23 62v126c-21-15-40-28-57-38L0 327c81 68 138 138 171 212 4-2 9-3 15-5 6-3 10-4 12-5v340c19-6 42-16 68-30h147l37 46c41-31 61-52 61-61 0-4-3-9-10-12l-24-16V525h-56v33H254v-32h-48c28-10 42-19 42-29 0-7-14-14-42-19-11-13-23-28-37-43h258l37 44c40-31 59-51 59-61 0-4-2-7-6-10l-24-16c0-141-8-240-23-298-14-51-55-80-121-87-2 18-10 30-25 37-16 8-49 17-100 26v26c47-5 90-8 128-8 37 0 59 16 65 47 13 53 20 145 20 275H145c-2-2-6-5-11-10l-9-9V290m129 524v-97h167v97H254m0-231h167v109H254V583m392 199c72 32 132 66 181 101 45-28 68-49 68-61 0-6-6-9-17-9-7 0-17 2-31 5-56-22-123-44-203-65v-94h163l48 57c29-28 50-49 61-63l-11-19H644V512h179l48 67c23-24 44-49 61-73l-11-19H811V17h-59v470H644v-13c0-127-12-225-35-295-23-69-61-128-115-179l-18 18c45 61 76 131 91 212 12 63 18 153 18 269v309c23-8 43-17 61-26M62 499v389c66-3 99-12 99-26 0-9-15-18-43-29V499H62Z"/></symbol><symbol id="𭤦_K" viewBox="0 0 1000 1000" data-size="21"><path transform="matrix(1 0 0 -1 59 935)" d="M479 809c7-8 10-14 10-18s-4-7-11-9c-13-2-20-4-21-4V674c0-5 0-10 1-16s1-9 1-11c0-9-7-16-21-22-6-3-11-4-15-4-5 0-8 3-8 9 1-15 1-7 1 25H71c2-12 2-20 0-22-1-3-7-8-17-13-9-2-15-4-18-4-4 0-7 3-8 9 1-7 1 4 1 32v141l-5 51 59-31h330l14 14c5 5 9 8 12 8 2 0 7-3 15-10l25-21m1-281c8-7 12-14 12-18 0-3-8-8-23-15 0-45 1-84 1-116 0-105-5-179-13-223-8-43-24-76-48-97l-19-14c-9-6-17-9-22-9s-11 5-16 16c-6 10-12 15-18 17l-69 15 3 9 59-6c9-1 15-1 21-1 27 0 48 17 61 51 15 76 21 201 19 376H113c-5-10-15-26-29-48l33-38h80v32l-5 40 33-6c20-4 31-10 31-17 0-6-6-11-17-16v-33h70l9 11c7 8 11 11 13 11 3 0 7-2 14-7l18-15c9-7 13-12 13-17 0-2-6-9-18-18v-97c2-13 3-21 2-23 0-5-6-10-15-14-3-2-6-3-10-3-14 0-21 10-19 30h-77V185l74 17c-10 18-19 32-27 40l8 7c51-38 81-70 88-96 2-22-4-34-17-34-7 0-13 6-17 17s-13 28-26 52L77 114c-2-21-8-31-16-31-7 0-14 7-21 21l-16 35 173 36v110h-81c2-17 2-26 1-28-2-7-8-12-19-17-8-3-13-5-17-5-5 0-7 4-8 11v206c-18-28-40-55-65-79l-8 10c58 68 99 154 123 257l29-11c21-7 31-14 31-21s-10-12-30-14c-5-14-15-34-29-61h284l13 15c8 8 13 12 15 12s8-4 18-12l26-20m-66 147v123h-87V675h87m-130 0v123h-83V675h83m-126 0v123H72V675h86m158-370v102h-77V305h77m-119 0v102h-81V305h81m685 272-9-14H770V21c-1-7-8-13-22-18-6-2-11-3-15-3s-6 5-6 14v549H594c-2-152-9-259-20-321-15-94-52-171-108-232l-14 7c67 84 100 230 101 439-4 81-10 203-17 367l54-24c68 8 135 31 203 70l30-22c11-7 17-14 18-19 0-4-7-6-21-7-4 0-11 1-19 1-71-22-141-35-211-39-1-46-1-113 2-201h207l15 30c8 8 12 12 14 12 3 0 9-4 19-11l35-36Z"/></symbol><symbol id="𭤧_J" viewBox="0 0 1000 1000" data-size="21"><path transform="matrix(1 0 0 -1 75 950)" d="M385 682H9l-9 25h385v193c74-2 111-10 111-25 0-10-16-21-46-31V707h271l55 71c28-25 53-51 75-77l-10-19H450c-1-8-1-19-1-36-1-13-1-22-1-29-2-40-7-82-14-127h245l40 49c42-33 63-55 63-64 0-5-3-9-9-13l-26-16c-4-172-20-292-46-359-20-51-62-75-125-74-1 20-16 35-45 45-19 7-61 16-126 27v28c72-10 130-15 175-15 41 0 66 16 75 49 21 70 32 176 33 318H429c-22-100-62-187-119-260C243 121 152 53 37 0L22 24c133 82 231 184 292 305 18 36 33 79 46 131H94l-11 25h282c12 57 18 122 20 197Z"/></symbol><symbol id="𭤨_S" viewBox="0 0 1000 1000" data-size="21"><path transform="matrix(1 0 0 -1 45 959)" d="M108 706H4v21h140v173l62-10 16-11-16-10V727h55l52 52 64-52v-21H171V564l-1-21h84l32 26 58-47-26-15 1-41 2-63v-58l-1-53-2-48-3-43-3-39-6-33-7-29-9-25-13 5-29 13-16 7 6 18 5 24 6 29 4 35 3 41 1 47 2 51-1 56-1 63-1 17-2-1v42h-84l-2-31-6-69-9-66-11-62-15-60-18-54-20-52-24-47-27-43L8 0 0 6l21 42 19 45 17 48 14 50 13 54 10 58 8 60 4 64 2 67v212m124-606 58-25-6-12-7-11-7-10-10-9-10-9-12-5-11-5-13-4-13-1-13-1v31l-84 16v15h84l7 1 6 1 5 1 5 2 8 5 3 4 4 5 3 5 3 6m267 818 57-27 11-16-19-4-23-51-18-32-20-31v-1h308l53 53 62-53v-21H473l-30-38-24-27-27-25-29-24-31-21-6 6 45 58 40 57 18 30 32 62 24 64 11 33 3 8Z"/></symbol><symbol id="𭤩_J" viewBox="0 0 1000 1000" data-size="21"><path transform="matrix(1 0 0 -1 46 948)" d="M818 149c-111-31-229-57-354-78-4-28-10-41-19-41-17 0-31 32-43 97 11 1 27 2 49 3 18 2 32 3 42 4 56 223 99 461 132 715 71-16 107-32 107-46 0-9-15-17-45-24-44-223-97-436-160-641 85 7 179 20 282 39-27 76-67 151-119 227l20 16c82-84 141-171 178-262 13-31 19-59 19-83 0-35-12-53-38-53-15 0-26 17-32 52-5 26-11 51-19 75M154 682H15L5 707h190v188c65-4 97-13 97-26 0-9-13-18-40-28V707h127l45 61c25-24 45-46 60-67l-12-19H211V581c0-27 0-46-1-59h134l35 43c37-29 55-48 55-58 0-4-2-8-7-11l-23-17c-1-165-9-289-25-374-7-39-20-65-40-80-17-13-42-19-76-19-1 30-28 49-82 56v28c34-7 63-10 89-10 28 0 45 14 52 44 18 81 27 205 28 373H209c-6-120-26-221-60-304C120 123 78 59 22 0L0 16c57 76 97 163 122 261 21 86 32 187 32 302v103Z"/></symbol><symbol id="𭤪_J" viewBox="0 0 1000 1000" data-size="21"><path transform="matrix(1 0 0 -1 46 942)" d="M221 671c12 50 17 85 17 106 0 14-5 28-15 41-11 14-27 25-46 32l11 22c38-9 68-23 90-39 19-14 28-29 28-43 0-12-2-23-6-32s-11-34-22-74c17 4 29 9 37 15 10 8 21 12 32 12 17 0 31-5 43-15 10-9 16-18 16-25 0-8-9-14-26-18-19-4-58-12-117-23-36-106-83-189-140-250 36 12 77 24 124 38 22 6 40 9 54 9 21 0 41-6 60-19 24-16 36-33 36-50 0-18-9-27-28-27-9 0-22-4-40-13-17-8-31-17-45-28-65-52-112-99-140-141-12-17-18-35-18-52 0-20 21-30 64-30 50 0 100 5 149 13 15 3 28 5 39 5 29 0 44-10 44-31 0-16-14-26-42-31-37-6-89-9-156-9-60 0-101 8-123 25-17 12-25 31-25 55s11 51 32 81c23 32 53 68 92 108 31 32 60 59 86 80 5 5 8 10 8 14 0 6-5 9-15 9-16 0-30-2-43-6-55-14-99-31-131-50-13-8-25-12-34-12s-18 4-25 13c-7 7-10 15-10 24s6 16 16 22c30 14 49 26 58 38 42 53 75 121 99 206-48-8-79-12-92-12-29 0-50 5-64 16-15 12-33 32-53 61l18 16c19-19 35-32 47-38 11-5 24-8 38-8 33 0 72 5 118 15m457 35c23 4 50 9 80 13 14 2 27 5 40 9 14 3 28 5 40 5 16 0 32-4 46-11 16-8 24-17 24-27 0-13-9-20-28-20l-72 1c-46 0-111-8-195-23 17-14 29-27 34-38 5-8 7-19 7-32 0-7-1-23-4-48 46-7 83-18 111-31 39-19 65-43 78-70 12-26 18-64 18-114 0-61-6-115-17-164-10-45-24-79-41-102-27-36-57-54-89-54-14 0-39 8-73 24-29 13-55 28-80 44l7 24c56-17 100-26 132-26 17 0 35 12 53 35 15 20 27 50 37 91 8 38 13 78 13 119 0 49-4 83-11 102-7 17-20 33-40 48-21 17-55 31-102 43-9-59-19-108-30-146-28-113-91-196-187-251l-18 19c82 66 134 148 157 247 15 65 24 115 28 151 3 32 5 56 5 72 0 24-6 41-17 51-16-4-35-11-57-20-12-5-23-8-33-8-19 0-43 19-72 57l14 16c18-12 33-19 45-19 17 0 51 6 102 16 5 1 12 2 20 4 8 1 14 3 17 3 1 13 5 33 12 60 8 29 12 47 12 53 0 19-27 35-82 50l4 25c53-7 94-17 122-28 18-7 27-19 26-36 0-8-4-23-13-46-12-33-20-55-23-68Z"/></symbol><symbol id="𭤫_G" viewBox="0 0 1000 1000" data-size="21"><path transform="matrix(1 0 0 -1 39 974)" d="m647 947 88-36c5-1 7-3 8-5 1-1 1-3-2-5-13-5-23-12-29-21V703h122l35 38 48-46c4-4 5-7 4-10s-4-6-10-7l-18-9V415l4-67c4-25-11-40-46-43v63H712V114l3-69c1-23-17-38-54-45 3 26 6 78 7 155v213H530v-39c1-24-15-39-50-44 3 41 5 93 6 154v256c-3 15-8 28-17 40l14 11 38-43h147v187c1 9-8 24-29 45l8 12M20 734h338l28 43 61-49c7-6 10-10 8-12-1-2-8-3-19-2H208c-1-60-3-110-6-150l-1-18h125l31 40 47-39c6-4 9-8 9-11s-3-5-9-8l-20-12-7-205c-7-83-14-139-21-166-7-26-19-47-38-64-17-15-42-28-76-37 1 12-9 25-29 40-26 12-50 21-71 27l2 14c39-11 70-17 94-19 29-2 51 10 64 35 15 24 24 78 28 163l9 222H199c-9-117-25-210-46-279C123 150 75 70 9 6L0 16c51 73 90 157 116 252 27 105 42 253 46 446H97c-17 1-32-3-44-12l-33 32m692-51V388h139v295H712m-182 0V388h138v295H530M141 925l4 12c76-23 120-55 132-95 10-37 3-58-20-63-11-1-18 9-20 28-3 20-10 40-23 59-13 20-37 40-73 59Z"/></symbol><symbol id="𭤬_K" viewBox="0 0 1000 1000" data-size="21"><path transform="matrix(1 0 0 -1 52 942)" d="m393 534 48-38c11-10 16-17 13-21-4-6-16-9-38-10 1-158-10-270-32-336C361 60 319 20 257 8c-2 21-7 36-16 45-12 11-40 25-82 43l3 8 11-1c46-13 79-19 98-18 32 1 53 14 65 39 13 27 22 69 28 125 6 57 9 135 9 236H236c-15-120-47-222-93-304C102 110 56 53 7 8L0 18c61 63 109 148 146 253 36 104 55 236 55 393h-91l-67-3-9 21 63-2h105v160l-5 44 62-17c21-4 27-10 19-15-4-4-14-8-30-12l-3-1V680h128l43 43 52-39c9-7 12-12 10-15s-9-5-19-5H256c15-6 22-12 19-17-1-3-10-7-28-10-1-22-2-46-4-70-1-20-3-43-6-66h120l36 33m470 33c0-2 1-6 1-10 1-5 1-8 1-9 0-3-1-5-3-7-1-3-4-5-8-7l-8-4c-14-4-23-5-27-1-2 3-3 9-3 19l1 6v17H565c0-31 0-61-1-91l-1-82h239l26 33 47-33c14-10 20-18 18-24-3-6-14-11-33-14V62l1-19c1-8 0-14-2-18s-8-7-18-10c-15-6-24-7-28-3-2 2-3 8-2 17l1 12v341H562c-6-83-16-153-32-210-17-61-42-119-75-172l-16 6c40 86 65 184 75 293 6 75 8 225 5 450l-1 119 49-8c23-3 34-7 34-11 0-6-11-11-34-18l-2-244h252l-1 280 58-16c16-4 23-8 22-14-2-5-13-9-33-12V567Z"/></symbol><symbol id="𭤭_S" viewBox="0 0 1000 1000" data-size="21"><path transform="matrix(1 0 0 -1 50 953)" d="m734 892 63-11 16-11-16-10V688h29l32 37 42-37v-21H797V36L734 5v42H533V31L470 0v667H366v21h104v204l63-11 16-11-16-10V688h201v204M118 712H4v20h153v174l63-10 15-11-15-10V732h91l43 48 52-48v-20H182V570l-1-21h95l32 26 57-47-25-15 2-41 2-63v-58l-1-53-2-48-4-44-4-38-7-34-7-30-9-25-4 2-11 5-41 18-2 1 7 19 6 23 6 30 3 35 3 41 3 47 1 51-1 56-2 63v17l-2-1v42h-96l-1-31-7-69-9-67-13-62-15-59-19-54-21-52-27-48-28-42L7 6l-7 6 23 43 21 45 19 47 16 50 13 55 11 57 7 60 6 64 3 67-1 70v142m134-607 58-26-6-11-8-11-8-10-10-9-9-8-12-6-12-4-13-4-12-1-14-1v31l-84 16v15h84l8 1 6 1 6 1 3 2 9 5 4 4 4 5 3 5 3 5m482 266H533V68h201v303m0 296H533V392h201v275Z"/></symbol><symbol id="𭤮_J" viewBox="0 0 1000 1000" data-size="21"><path transform="matrix(1 0 0 -1 39 948)" d="m619 438-107-28V115c0-16 4-26 13-30 12-5 57-8 135-8 82 0 133 3 153 8 24 7 41 50 49 131l25-9c0-49 2-80 6-94s14-20 30-20c-1-28-12-46-33-54-27-10-111-15-253-15-88 0-140 5-157 15-16 9-24 30-24 64v292l-80-21-14 24 94 25v147c61-2 91-9 91-22 0-7-12-16-35-27v-83l107 28v163c61-3 92-11 92-25 0-8-12-17-37-26v-98l100 27 34 50c41-29 62-48 62-57 0-4-2-7-6-10l-23-17V261c0-45-26-67-76-67 1 25-20 42-61 50v25c23-4 42-5 56-5 18 0 27 9 27 27v191l-113-30V154h-55v284M124 682H15L5 707h160v188c65-4 97-13 97-26 0-9-13-18-40-28V707h95l45 61c25-24 45-46 60-67l-12-19H181V581c0-27 0-46-1-59h104l35 43c37-29 55-48 55-58 0-4-2-8-7-11l-23-17c-1-165-9-289-25-374-7-39-20-65-40-80-17-13-42-19-76-19-1 30-28 49-82 56v28c34-7 63-10 89-10 28 0 45 14 52 44 18 81 27 205 28 373H179C169 277 117 111 22 0L0 16c83 128 124 316 124 563v103m314-47-17 18c65 66 112 146 141 238 49-20 73-36 73-49 0-9-12-14-37-17-38-75-92-138-160-190m224 7-17 18c63 63 108 140 136 231 49-20 73-36 73-49 0-9-12-14-37-17-37-71-88-132-155-183Z"/></symbol><symbol id="𭤯_J" viewBox="0 0 1000 1000" data-size="21"><path transform="matrix(1 0 0 -1 40 947)" d="M187 682v-87c0-33 0-57-1-73h93l35 44c38-32 57-53 57-62 0-3-2-6-6-9l-24-15c-2-214-13-349-34-404-16-44-49-65-99-65-1 20-9 33-23 41-12 6-32 13-61 20v26c30-7 58-10 86-10s44 13 50 40c19 80 28 203 28 369H185c-5-113-21-209-47-289C111 129 72 59 21 0L0 16c87 132 130 326 130 581v85H18l-8 25h153v187c66-3 99-12 99-26 0-8-14-16-43-24V707h85l42 62c26-24 47-46 63-67l-11-20H187M615 72v285H437l-11 25h189v261H493c-22-82-51-152-86-209l-26 10c47 118 76 254 88 407 63-16 94-30 94-44 0-8-13-15-39-23-8-40-16-79-24-116h115v226c63 0 94-7 94-21 0-8-12-17-36-27V668h110l46 59c23-21 43-43 61-66l-10-18H673V382h105l43 58c22-22 40-43 55-64l-11-19H673V72h131l49 66c27-26 50-49 67-71l-11-20H379l-11 25h247Z"/></symbol><symbol id="𭤰_G" viewBox="0 0 1000 1000" data-size="21"><path transform="matrix(1 0 0 -1 27 973)" d="M7 747h337l30 37 60-43c6-4 8-7 6-10-2-2-8-3-17-4H199c0-73-1-134-4-181h125l31 39 48-39c6-3 9-7 9-10s-3-6-9-8l-20-13-9-260c-6-60-12-102-19-127-8-26-20-47-37-62-19-16-45-28-80-37 0 13-8 26-25 40-6 2-14 5-24 10-24 10-40 16-49 19l2 15c47-13 79-19 94-20 28-2 49 7 63 27 15 18 24 60 27 126l12 280H194c-5-110-15-195-29-254C141 179 89 88 9 0L0 10c65 100 107 192 124 275 17 93 27 187 30 283l-1 159H84c-17 0-32-4-43-13L7 747m880-373-3-61c-1-9-1-22-2-40-2-50-5-85-9-106-6-41-19-75-39-103-18-27-49-45-92-56-11 21-37 38-77 50-25 7-47 14-64 20l2 16c85-19 138-26 158-20 21 5 37 19 50 41 13 23 21 74 26 155l5 122H547l-27-33-51 37c12 8 20 20 25 35l43 232c-1 15-7 27-18 35l6 11 75-27c9-3 12-7 7-12-10-3-20-8-29-16l-15-86h249l34 42 67-49c7-3 9-6 8-9-2-2-8-3-19-4H560l-23-136h289l30 38 54-43c4-4 6-7 5-10 0-2-3-4-8-5l-20-18M554 945l80-37c11-7 13-12 7-13-13-1-24-3-33-8-15-41-34-80-55-118h283l36 43 68-49c6-4 8-7 6-10-2-2-8-3-17-4H541c-2-2-3-4-4-6l-12-19c-33-48-70-93-113-136l-11 11c57 80 98 150 124 210 25 59 36 93 33 102s-7 17-12 24l8 10M409 253h282l31 40 61-47c7-5 10-8 8-11-1-2-8-3-19-2H486c-17 1-32-4-44-13l-33 33M135 931l4 12c45-16 78-31 97-46 18-14 30-30 36-49 5-17 5-32 1-44-5-12-13-19-22-20-10-1-17 9-20 30-3 18-10 38-22 60-15 20-39 39-74 57Z"/></symbol><symbol id="𭤱_K" viewBox="0 0 1000 1000" data-size="21"><path transform="matrix(1 0 0 -1 37 940)" d="M882 87c8 0 19 0 33 2h9l2-13c-14-9-24-18-30-27s-11-20-14-33l-35 3c-76 6-127 11-152 14-35 6-65 15-88 28-20 12-36 26-49 41-15 16-25 34-33 54-4-17-8-34-12-50l-12-37-8-23c-2-7-2-12-2-16 3-16 2-25-3-27-6-3-16 3-31 18-15 11-23 20-24 28-2 7 2 13 11 19 9 5 18 15 28 30 6 10 18 33 36 70l20 40 12-7-7-23 9-22 12 19c48 81 82 139 101 175 28 52 60 114 95 188H508l-38-4-13 24 51-3h91v148l-4 45-57-9c-12-1-32-4-59-7l-15-3-5 9c77 19 135 37 174 54 47 21 91 50 132 90l43-36c11-11 16-19 12-23-4-5-15-5-35 0-31-18-59-31-85-41-29-12-59-23-90-30l39-8c13-3 19-7 18-11s-9-11-24-18V555h91l43 43 40-40c11-11 16-20 15-25-2-7-13-11-33-11L692 352l-95-147-43-66c7-11 15-20 25-27 9-7 20-13 33-19 19-6 44-10 77-12l44-2 149 8M393 532l48-38c11-10 16-17 13-22-4-5-16-8-38-9 1-158-10-270-32-336C361 58 319 17 257 6c-2 21-7 36-16 44-12 12-40 26-82 43l3 9 11-2c46-12 79-18 98-17 32 1 53 14 65 39 13 27 22 69 28 125s9 135 9 236H236c-15-120-47-222-93-305C102 108 56 50 7 6l-7 9c61 64 109 148 146 253 36 105 55 236 55 394h-91l-67-3-9 20 63-2h105v161l-5 44 62-17c21-5 27-10 19-16-4-3-14-7-30-11l-3-1V677h128l43 43 52-39c9-6 12-11 10-14-2-4-9-5-19-5H256c15-7 22-12 19-17-1-4-10-7-28-11-1-22-2-45-4-69-1-21-3-43-6-66h120l36 33Z"/></symbol><symbol id="𭤲_G" viewBox="0 0 1000 1000" data-size="21"><path transform="matrix(1 0 0 -1 28 976)" d="m614 952 89-35c9-3 11-7 6-11-13-5-23-12-29-21V567h135l23 31 53-41c5-3 8-6 7-8-1-1-6-2-13-2H680V362h174l27 35 57-45c5-3 7-6 6-8-1-1-5-2-12-2H680V139l3-95c1-23-18-38-55-44 3 25 6 86 7 184v158H482c-17 1-31-3-44-12l-34 32h231v185H517c-17 1-32-3-44-12l-33 32h195v328c1 9-8 24-29 45l8 12m213-111 63-39c6-4 9-7 9-10s-3-5-8-6c-9 3-19 2-29-5-32-55-73-115-123-180l-13 10 53 90c32 71 48 108 49 113s-3 13-10 22l9 5m-394-21 6 10c80-55 122-110 127-165 1-27-5-41-20-44s-22 7-23 29-9 48-23 77c-13 29-36 60-67 93M7 747h329l30 37 58-43c6-4 8-7 6-10-1-2-7-3-16-4H195c0-73-1-134-4-181h122l30 39 47-39c6-3 9-7 9-10s-3-6-9-8l-19-13-9-259c-6-60-12-102-19-127-8-27-20-48-36-62-19-16-45-28-78-37 0 13-8 26-25 40-5 2-13 5-23 10-23 10-39 16-48 19l2 15c46-13 77-19 92-20 27-2 48 7 61 27 15 18 24 60 27 126l12 279H190c-5-110-15-194-29-253C138 180 87 89 9 1L0 11c65 100 105 192 121 275 17 93 27 187 30 282l-1 159H82c-17 0-31-4-42-13L7 747m126 187 4 12c45-16 78-31 97-46 18-14 30-30 36-49 5-17 5-32 1-44-5-12-13-19-22-20-10-1-17 9-20 30-3 18-10 38-22 60-15 20-39 39-74 57Z"/></symbol><symbol id="𭤳_S" viewBox="0 0 1000 1000" data-size="21"><path transform="matrix(1 0 0 -1 43 950)" d="m312 73-58 27 7 18 6 24 4 29 5 35 4 41 2 47v107l-1 63-1 17-2-1v42h-97l-1-31-6-69-10-67-13-62-15-59-19-54-22-52-26-48-29-42L8 0 0 6l23 43 22 45 18 48 16 49 14 55 11 57 7 60 6 64 3 67v212H4v21h154v173l63-10 15-11-15-10V727h71l53 52 63-52v-21H183V564l-1-21h96l32 26 57-47-25-15 2-41 2-63v-58l-1-53-3-48-3-44-5-38-6-34-8-29-8-26m-58 27 58-27-7-10-7-12-8-10-10-9-10-8-11-5-12-5-13-4-13-1-13-1v31l-84 16v15h84l7 1 7 1 5 1 4 2 9 5 3 4 4 5 7 11m501 458 60-21 14-14-17-6-7-34-35-155-27-102-29-101-17-50-13-37h115l53 53 62-53V17H353v21h320l6 42 43 257 24 157 7 48h-1l3 16M514 171l-4 51-5 48-6 45-7 44-7 42-16 78-19 72 9 4 19-32 17-35 15-37 13-40 13-42 11-45 10-47 8-48 8-52 6-53-8-23-20-11-23 8-11 21-3 52M388 625v21h215v198l62-11 16-11-16-9V646h99l51 52 64-52v-21H388Z"/></symbol><symbol id="𭤴_S" viewBox="0 0 1000 1000" data-size="21"><path transform="matrix(1 0 0 -1 46 950)" d="M118 706H4v21h153v173l63-10 15-11-15-10V727h70l53 52 63-52v-21H182V564l-1-21h95l32 26 57-47-25-15 2-41 2-63v-58l-1-53-2-48-4-44-4-38-7-34-7-29-9-26-1 1-3 1-6 3-4 2-7 3-9 4-14 7-12 5-2 1 7 18 6 24 6 29 3 35 3 41 3 47 1 51-1 56-2 63v17l-2-1v42h-96l-1-31-7-69-9-67-13-62-15-59-19-54-21-52-27-48-28-42L7 0 0 6l23 43 21 45 19 48 16 49 13 55 11 57 7 60 6 64 3 67-1 70v142m134-606 58-27-6-10-8-12-8-10-10-9-9-8-12-5-12-5-13-4-12-1-14-1v31l-84 16v15h84l8 1 6 1 6 1 3 2 9 5 4 4 4 5 3 5 3 6m335 216-108-33-7 20 115 35v279l63-11 16-10-16-9V357l122 38 36 66 75-32 7-20-240-73V88l1-5 1-3 1-2 1-2 3-1 3-1 5-1h148l30 131h11L844 73l18-12 13-19-13-20-19-12H671l-13 1-13 3-13 4-12 5-11 10-8 10-6 12-5 12-2 13-1 14v222M425 895l63-32h330l32 27 57-48-26-21V606l-63-32v64H488V527l-3-66-4-63-4-60-8-57-10-53-11-51-12-46-15-44-18-40-19-36-9 4 10 39 9 41 8 44 7 46 6 49 5 53 3 55 2 58 1 63-1 64v368m393-53H488V658h330v184Z"/></symbol><symbol id="𭤵_G" viewBox="0 0 1000 1000" data-size="21"><path transform="matrix(1 0 0 -1 26 975)" d="M0 384h844l31 38 67-47c5-3 7-6 6-8s-5-3-12-3H373c1-33-1-64-6-92h332l31 38 47-37c5-3 8-6 8-9s-3-5-8-8l-20-12v-37c2-85-16-140-55-165-20-15-52-27-95-35-1 19-16 32-43 41-12 5-38 13-78 25l4 16c69-15 110-21 125-20 18 0 32 1 43 3 36 11 55 49 56 114v66H364c-5-21-12-41-21-60-23-47-60-87-111-119C181 40 108 16 13 0L7 14c154 41 253 104 296 191 19 39 28 92 27 159H77c-17 1-32-2-44-11L0 384m679 524c-11-5-21-11-30-18v-97l123 31 22 35 52-30c3-5 0-9-7-12l-14-14v-89c0-23-5-44-16-62-9-18-33-32-72-43-3 23-27 38-70 47l1 13c52-11 84-12 96-4 15 10 23 31 23 64v79l-138-35V669l2-49c0-13-4-22-12-27-7-4-19-8-35-12 3 22 5 65 7 128v54l-119-30V609c0-33 5-54 16-63 10-7 28-12 54-14 10-1 22-1 36-2h56c67 0 115 2 142 5 33 6 50 20 52 42 3 17 7 53 11 110h14l2-77c0-32 9-52 27-60-12-17-21-28-28-33-9-7-22-12-39-16-27-4-84-6-171-6-48-1-92 0-131 3-56 7-82 43-79 106v120l-12-3c-14-3-26-10-36-20l-35 23 83 20v84c-1 13-9 25-24 35l7 10 87-30c2-2 3-4 3-5s-1-2-4-3c-10-3-20-8-31-16v-65l119 29v115c1 9-9 23-28 40l9 11 82-31c8-3 10-7 5-10m-490 38 78-33c8-4 10-7 6-10-12-5-21-11-27-18V774h58l30 38 58-48c5-3 7-6 6-8-1-1-5-2-12-2H246V571l159 46 6-15-148-52c-81-29-130-48-145-56-16-10-28-22-35-37l-51 54 173 48v195h-79c-20 0-35-4-45-11l-31 31h155v121c0 11-8 25-24 40l8 11m180-464 4 13c60-5 105-20 136-44 23-26 23-43 1-52-10 0-20 6-30 18-9 13-22 25-39 36-16 10-40 20-72 29Z"/></symbol><symbol id="𭤶_S" viewBox="0 0 1000 1000" data-size="21"><path transform="matrix(1 0 0 -1 39 954)" d="m369 182-4 23 80 11 10 2v580h-94v20h427l53 53 62-53v-20H796V267l123 15 3-9-126-33V31L733 0v225l-278-65-59-13-7-18-14 14-1 6v2l-2 9v4l-1 6-2 9v3M120 714H3v20h155v174l64-11 15-10-15-10V734h72l53 53 62-53v-20H183V572l-1-21h97l32 26 57-47-25-15 2-41 1-63 1-58-1-53-2-48-4-44-4-38-7-34-8-30-9-25-3 2-12 5-40 18-2 1 7 19 6 23 5 30 4 35 3 41 2 47 1 51v56l-1 63-1 17-2-1v42h-97l-2-31-6-69-10-67-13-62-15-59-19-54-22-52-26-48-29-42L7 8l-7 6 23 43 21 45 19 47 16 50 14 55 11 57 8 60 5 64 3 67v212m135-607 57-26-6-11-7-11-9-10-9-9-10-8-11-6-13-5-13-3-12-1-14-1v31l-84 16v15h84l8 1 6 1 10 3 4 3 4 2 4 4 4 5 4 5 3 5m110 98 10-62-21 60 11 2m368 209H519V227l214 31v156m0 190H519V436h214v168m0 194H519V624h214v174Z"/></symbol><symbol id="𭤷_S" viewBox="0 0 1000 1000" data-size="21"><path transform="matrix(1 0 0 -1 42 959)" d="M750 557H572v20h230l52 53 63-53v-20H813V71l-2-13-5-13-7-12-8-11-11-8-11-7-13-4-14-2-13-1v31l-63 16v16h69l5 1 5 2 1 1 1 1 1 1 1 4 1 5v479M535 749l56-30 12-16-20-3-29-60-42-77-22-34 25-4 15-10-15-10V31L451 0v473l-38-50-28-32-30-32-8 6 64 111 58 111 34 76 28 74 4 12m-424-40H4v20h143v174l64-10 16-11-16-10V729h59l52 53 63-53v-20H175V567l-1-21h87l31 26 58-47-26-15 2-41 2-63v-58l-1-53-2-48-3-43-5-39-5-33-7-29-9-25h-1l-2 1-11 4-1 1-27 12-16 7 6 18 6 24 5 29 4 35 3 41 3 47v107l-2 63v17l-2-1v42h-88l-2-31-6-69-9-66-11-62-15-60-18-54-21-52-25-47-27-43L8 3 0 9l21 42 21 45 17 48 15 50 13 54 10 58 7 60 5 64 3 67-1 70v142m127-606 58-25-6-12-7-11-9-10-8-9-11-9-11-6-12-4-12-4-14-1-13-1v31l-84 16v15h84l7 1 6 1 6 1 5 2 4 3 4 2 3 4 3 5 3 5 4 6m285 816 52-36 8-18h-20l-38-51-37-44-63-66-49-41-7 7 99 150 41 71 12 23 2 5m295-6 64-52v-21H604v21h162l52 52Z"/></symbol><symbol id="𭤸_S" viewBox="0 0 1000 1000" data-size="21"><path transform="matrix(1 0 0 -1 32 958)" d="m314 73-56 28 7 17 6 24 5 29 4 35 3 41 2 47 1 51v56l-1 63-1 17-2-1v42h-99l-1-31-7-69-9-67-13-62-16-59-19-54-22-52-27-48-29-42L7 0 0 6l23 43 22 45 18 48 17 50 14 54 10 57 9 60 6 64 3 67v212H4v21h156v173l63-10 15-11-15-10V727h75l52 52 63-52v-21H185V564l-1-21h98l31 26 58-47-25-15 2-41 2-63v-58l-1-53-2-49-4-43-5-38-6-34-8-29-10-26m-56 28 56-28-5-11-8-11-8-10-10-9-11-8-10-5-12-5-13-4-12-1-14-1v31l-84 16v15h84l7 1 7 1 5 1 5 2 8 5 4 4 4 5 7 12m195 532 64-31h307l32 26 58-48-26-20V315l-64-31v64H517V101l1-5 1-3 2-3 1-1 4-2h4l7-1h336l31 132h10L904 86l19-13 13-18-13-19-19-13H523l-12 3-13 4-12 7-10 8-9 12-6 11-5 12-2 14-1 13v526m186-53H517V368h122v212m185 0H702V368h122v212M489 915l62-19 13-12-18-8-11-38-10-30-11-31-2-3h302l53 52 63-52v-21H502l-19-38-38-64-22-31-26-32-7 5 45 106 12 32 11 32 17 60 5 29 5 27 2 20 2 16Z"/></symbol><symbol id="𭤹_K" viewBox="0 0 1000 1000" data-size="21"><path transform="matrix(1 0 0 -1 41 947)" d="m918 541-5-14c-8 4-16 6-23 6-8 0-14-3-19-9-4-5-8-8-10-8-4 0-10 3-18 10-96 91-167 186-212 287-30-74-64-136-102-185-24-33-60-71-107-115l-10 8c104 106 170 230 199 374l42-21c22-10 33-19 33-26 0-9-14-14-41-16 35-73 79-136 131-188 47-48 94-82 142-103m-179-45c-2-23-8-35-18-35-7 0-13 5-20 16-13 21-26 38-38 51-21 22-54 49-98 80l7 12c71-35 116-59 134-73 22-15 33-32 33-51m110-68-315-88c-2-27-9-40-19-40-7 0-14 9-22 26l-19 44 374 78 1-20M483 742l-7-12H218c-2-49-5-79-10-88h137l12 16c5 4 8 6 10 6 3 0 10-4 20-14l21-20c11-9 16-17 16-23s-9-11-28-14c-1-63-4-112-9-149-13-78-37-125-74-140l-11-6c-12-5-20-7-25-7-6 0-8 4-8 12v9c0 11-5 19-14 24l-72 21 5 11 73-13c7-1 14-1 20-1 30 0 50 21 60 63 13 16 18 85 15 205H203c-25-132-77-241-155-328l-9 10c94 125 139 268 137 426H48v21h159v78l-5 50 37-10c26-6 38-13 38-21s-9-15-27-24v-73h122l31 37c6 9 10 13 13 13s8-4 16-12l51-47m-84-392h-3c-17 0-26-3-26-8 0-4 5-9 14-14 24-23 36-41 36-54 0-3-2-8-6-15C330 166 202 86 29 20 10 10 0 4 0 1c0-1 1-1 3-1 4 0 14 3 31 8l212 72c57 33 116 69 175 108 107-44 216-94 328-151 20-10 33-15 40-15s13 5 18 13c3 5 5 9 5 13 0 12-15 27-43 45-35 22-62 35-81 38l-68 10c-43 11-104 34-183 69 14 16 24 30 28 42 18 27 27 43 27 46 0 6-7 15-22 24s-39 18-71 28Z"/></symbol><symbol id="𭤺_S" viewBox="0 0 1000 1000" data-size="21"><path transform="matrix(1 0 0 -1 40 970)" d="m451 364-40-48-44-47-8 5 70 107 43 72v10l5-2 40 72 23 50 14 30H429v22h134l18 45 17 47 13 47 3 8 58-27 12-15-20-5-11-28-20-49-11-23h165l53 52 62-52v-22H611l-28-52-28-49-44-68 24-12h97v127l62-10 16-11-16-10v-96h97l31 26 59-47-27-21V174h-63v237h-97V31L632 0v411h-97V128l-63-31v295l-21-28M323 95l-56 27 6 18 7 25 6 30 4 36 4 41 2 48 1 53v58l-2 63-1 19-2-1v42H188l-2-32-6-71-10-67-13-64-16-60-20-56-23-53-27-47-30-44L7 21l-7 5 24 44 22 46 20 49 17 52 15 54 11 58 8 63 6 64 3 68v217H3v21h163v177l63-10 16-11-16-10V762h83l52 52 63-52v-21H189V596l-1-22h104l31 27 58-47-25-16 2-42 1-64v-60l-1-54-2-48-3-45-5-39-7-35-8-31-10-25m-56 27 56-27-6-12-7-11-8-9-10-9-11-8-10-6-12-5-13-3-14-2-12-1v32l-84 15v16h84l7 1 6 1 6 2 4 1 9 6 4 2 4 5 3 5 4 7m509 31 5 1 3 1 2 1 1 1 1 1 2 4 1 5v7h63v-14l-2-13-5-12-7-12-8-11-11-8-12-6-12-5-14-2-12-1v31l-53 17v15h58M550 938l56-29 11-15-19-3-13-24h246l11 14 3-3 17 16 58-48-25-16-43-17-94-66-18-15-7 7 15 19 36 51 23 28 7 9H573l-24-36-39-49-46-47-26-23-29-21-7 7 59 82 32 52 27 49 20 48 6 19 4 11Z"/></symbol><symbol id="𭤻_S" viewBox="0 0 1000 1000" data-size="21"><path transform="matrix(1 0 0 -1 43 957)" d="M110 706H4v21h142v173l63-10 16-11-16-10V727h58l52 52 63-52v-21H174V564l-2-21h87l31 26 59-47-26-15 1-41 1-63 1-58-1-53-2-48-3-43-5-39-5-33-7-29-9-25h-1l-2 1-10 4-2 1-27 12-1 1-15 6 6 18 6 24 5 29 5 35 2 41 2 47 1 51v56l-1 63-1 17-2-1v42h-87l-2-31-6-69-9-66-11-62-15-60-18-54-20-52-25-47-28-43L8 0 0 6l21 42 20 45 17 48 15 50 13 54 10 58 8 60 4 64 2 67v212m126-606 58-25-6-12-7-11-8-10-9-9-10-9-12-5-12-5-12-4-13-1-14-1v31l-84 16v15h84l8 1 6 1 5 1 5 2 4 3 4 2 4 4 6 10 3 6m452 274V229h88l43 46 53-46v-22H688V44h95l52 53 63-53V23H373v21h95v216l63-11 16-11-16-9V44h94v330H404v22h224v208H442v20h338l43 48 53-48v-20H691V396h108l53 52 62-52v-22H688m224 346H490l-27-40-24-30-26-27-27-25-31-24-5 7 62 90 35 62 16 34 15 32 12 34 21 66 3 14 58-26 12-15-19-6-23-54-17-36-19-33-1-3h333l32 37 42-37v-20Z"/></symbol><symbol id="𭤼_S" viewBox="0 0 1000 1000" data-size="21"><path transform="matrix(1 0 0 -1 44 958)" d="M618 383h-84v-16l-63-31v331l63-32h232l31 26 57-47-26-21V373l-62-32v42h-84V84l-1-13-2-13-5-13-7-12-8-11-11-8-11-7-13-4-14-2-12-1v31L492 47v16h112l4 1 5 2 2 2 2 5 1 5v305M108 709H4v20h140v174l62-10 16-11-16-10V729h55l52 53 64-53v-20H171V567l-1-21h84l32 26 58-47-26-15 1-41 2-63v-58l-1-53-2-48-3-43-3-39-6-33-7-29-9-25-13 5-1 1-7 3-2 1-6 3-13 5-16 7 6 18 5 24 6 29 4 35 3 41 1 47 2 51-1 56-1 63-1 17-2-1v42h-84l-2-31-6-69-9-66-11-62-15-60-18-54-20-52-24-47-27-43L8 3 0 9l21 42 19 45 17 48 14 50 13 54 10 58 8 60 4 64 2 67v212m124-606 58-25-6-12-7-11-7-10-10-9-10-9-12-6-11-4-13-4-13-1-13-1v31l-84 16v15h84l7 1 6 1 5 1 5 2 8 5 3 4 4 5 3 5 3 6m285 194 56-29 11-15-21-4-17-37-16-27-34-51-18-24-21-22-20-22-24-20-24-18-7 7 48 73 28 50 14 26 11 25 11 26 19 50h-1l5 12M848 64l-21 47-11 24-24 44-68 108 6 7 22-16 20-16 20-18 36-39 18-21 31-45 28-48V67l-15-18-24-1-18 16m-82 550H534V404h232v210M389 739v21h229v157l64-11 15-10-15-9V760h114l52 53 63-53v-21H389Z"/></symbol><symbol id="𭤽_J" viewBox="0 0 1000 1000" data-size="21"><path transform="matrix(1 0 0 -1 38 948)" d="M610 297H479v-55h-55v287c29-13 51-23 65-31h121v136c62-2 93-10 93-23 0-8-12-16-37-24v-89h127l33 41c38-30 58-49 58-58 0-4-3-8-8-12l-21-15V256h-55v41H666V115c66 5 117 9 155 13-23 35-52 67-87 98l15 19c117-69 175-134 175-195 0-24-12-35-35-35-15 0-26 13-33 39-5 16-11 32-19 48-132-24-268-42-409-57-6-23-12-34-19-34-15 0-27 29-38 89 75 2 155 5 239 11v186m0 25v151H479V322h131m190 0v151H666V322h134M124 682H15L5 707h160v188c65-4 97-13 97-26 0-9-13-18-40-28V707h74l45 61c25-24 45-46 60-67l-12-19H181V581c0-27 0-46-1-59h104l35 43c37-29 55-48 55-58 0-4-2-8-7-11l-23-17c-1-165-9-289-25-374-7-39-20-65-40-80-17-13-42-19-76-19-1 30-28 49-82 56v28c34-7 63-10 89-10 28 0 45 14 52 44 18 81 27 205 28 373H179C169 277 117 111 22 0L0 16c83 128 124 316 124 563v103m392-5c26 56 51 129 75 220 61-19 91-34 91-46 0-9-14-14-42-17-27-55-57-107-89-156 67 4 116 7 149 9 41 4 72 7 93 8-24 34-57 67-96 99l15 18c124-65 186-126 186-184 0-24-11-35-32-35-14 0-25 12-35 36-7 16-14 29-21 40-132-22-255-38-369-47-7-22-14-33-21-33-11 0-21 28-30 84 24 0 66 1 126 4Z"/></symbol><symbol id="𭤾_S" viewBox="0 0 1000 1000" data-size="21"><path transform="matrix(1 0 0 -1 52 950)" d="M114 706H4v21h147v173l63-10 15-11-15-10V727h63l52 52 64-52v-21H177V564l-1-21h91l31 26 57-47-25-15 2-41 1-63 1-58-1-53-3-48-3-43-5-39-6-33-6-29-9-25h-1l-7 3-6 2-1 1-15 6-14 7-13 6h-1l6 18 7 24 5 29 4 35 3 41 2 47 1 51v56l-2 63-1 16h-1v42h-91l-2-31-6-69-9-67-13-61-14-60-19-54-21-52-25-47-28-43L8 0 0 6l22 43 20 45 19 47 14 50 14 54 10 58 7 60 5 64 3 67v212m527-57 62-10 16-10-16-10V397h89v200l62-10 17-11-17-10V377l-62-32v32h-89V96h111v211l64-11 16-11-16-10V54l-64-32v53H529V38L466 7v300l63-11 16-11-16-10V96h112v281h-94l-53-26v246l53-10 13-11-13-9V397h94v252M243 100l58-25-6-12-8-11-8-10-8-9-11-9-11-5-13-5-12-4-13-1-13-1v31l-84 16v15h84l7 1 6 1 6 1 5 2 4 3 3 2 3 4 4 5 3 5 4 6m162 790 53-27h350l31 27 57-48-26-21V680l-62-32v42H458V527l-2-66-4-63-5-60-8-57-8-52-11-51-13-47-14-44-17-39-20-37-7 4 11 38 10 41 9 44 8 47 7 48 5 53 4 56 2 58 1 63-1 64v363m403-48H458V711h350v131Z"/></symbol><symbol id="𭤿_S" viewBox="0 0 1000 1000" data-size="21"><path transform="matrix(1 0 0 -1 29 965)" d="m833 22-44 17-41 22-40 27-37 31-6 5-12-11-43-32-46-27-49-22-52-16-56-11-2 9 51 20 47 24 44 26 40 29 37 33 10 11-31 39-31 46-27 51-21 45-9-30-25-62-29-58-32-54-35-49-40-45-44-40-7 7 35 46 32 49 29 50 27 54 22 57 21 60 16 65 14 66v1H312v21h190l8 49 6 61H401v21h331l52 53 64-53v-21H578l-10-69-7-41h253l44 47 52-47v-21H556l-20-81-3-8h225l32 26 58-47-27-16-11-5-18-35-29-51-34-46-29-34 38-26 37-20 38-15 38-10 90-15-62-60-46 10M98 718H3v20h127v174l62-11 17-10-17-10V738h39l53 53 63-53v-20H160V555h72l32 26 57-47-25-15 3-104v-59l-1-52-2-48-2-43-5-38-4-33-7-29-7-24-41 15-18 7 6 18 5 24 4 30 3 35 3 41 2 47 1 50v57l-2 63-1 16h-1v42h-74l-1-31-5-69-8-66-11-62-14-59-15-55-20-51-22-47-26-44L8 12l-8 5 19 43 17 44 15 48 13 51 12 54 9 56 7 61 4 64 2 68v212m114-607 59-22-6-13-6-12-8-9-10-10-10-8-11-6-12-6-13-3-12-1-14-1v31L96 66v16h73l8 1 6 1 5 1 3 2 5 2 3 3 4 4 3 4 6 11m539 234H534l29-40 35-45 34-39 31-31 25 33 27 44 24 48 12 30m10 464 57-27 13-13-20-6-10-22-10-19-10-19-11-18-12-17-12-16-14-15-28-27-8 5 9 18 22 53 5 17 12 37 10 40 3 15 4 14M411 657l-3 14-3 13-8 27-24 55-9 13 7 6 13-11 12-9 24-22 20-25 10-13 8-14 16-28-3-23-18-16-24 3-16 18-2 12m154 36-4 35-3 10-2 12-5 22-4 13-5 10 8 5 8-9 9-8 9-9 25-29 20-34 5-12-3-23-19-15-23 2-15 20-1 10m267 237 3-9 48-41 1-16-22 9-59-18-52-12-52-11-53-9-52-7-55-5-55-3-54-1-57 2-56 4v9l164 20 53 9 53 9 51 11 50 13 97 29 42 15 5 2Z"/></symbol><symbol id="𭥀_S" viewBox="0 0 1000 1000" data-size="21"><path transform="matrix(1 0 0 -1 44 954)" d="M565 487h-84v21h236l5 12 6 19 26 70 21 52-1 1 6 9 51-36 9-18h-23l-69-89-14-15-4-5h50l43 47 52-47v-21h-89V309h20l44 46 51-46v-22H786V41L724 9v278h-97l-1-6-6-43-9-39-12-37-18-35-19-31-24-30-27-25-31-22-33-19-5 8 26 26 23 27 20 27 17 28 14 30 10 32 8 33 4 35 2 38v3H455v22h111l-1 14v164M114 713H4v20h147v174l63-11 15-10-15-10V733h63l52 53 64-53v-20H177V571l-1-21h91l31 26 57-47-25-15 2-41 1-63 1-58-1-53-3-48-3-43-5-39-6-33-6-30-9-24h-1l-13 5-1 1-12 5-17 8-13 5h-1l6 19 7 23 5 30 4 35 3 41 2 47 1 51v56l-2 63-1 16h-1v42h-91l-2-31-6-69-9-67-13-61-14-60-19-54-21-52-25-47-28-43L8 7l-8 6 22 43 20 45 19 46 14 51 14 54 10 58 7 60 5 64 3 67v212m129-607 58-24-6-13-8-10-8-10-8-9-11-9-11-6-13-4-12-4-13-1-13-1v31l-84 16v15h84l7 1 6 1 6 1 5 2 4 3 3 2 3 4 4 5 3 5 4 5m160 795 63-31h357l31 26 58-47-26-21V687l-63-32v32H466V534l-3-66-4-63-6-60-8-57-10-54-11-50-14-47-16-44-18-39-22-36-8 3 10 40 11 41 9 44 9 45 7 50 4 53 4 56 3 57v494m226-414V324l-1-1-1-14h97v178h-95m-57 56-2 12-3 11-3 13-8 25-18 42-9 12 7 7 36-31 22-23 18-24 16-26 6-14-4-24-19-14-23 3-15 19-1 12m251 306H466V707h357v142Z"/></symbol><symbol id="𭥁_S" viewBox="0 0 1000 1000" data-size="21"><path transform="matrix(1 0 0 -1 41 954)" d="m770 65-20 14-3 3h-1l-1 1-5 3-1 1-1 1-4 3-6 5-6 4-3 2 8 12 7 14 15 33 13 41 11 46 4 26 1 8H589l-11-35-23-50-28-45-31-40-36-36-40-31-45-25-48-20-4 9 42 28 37 30 34 34 29 36 25 39 21 43 16 47 14 49 10 54 4 44H346v22h247v126l63-11 16-11-16-9v-95h131l53 52 62-52v-22H617l-8-54-12-56h185v6l31 26 58-48-26-16h-4l-7-35-5-26-7-25-7-24-7-21-9-21-9-19-10-18-10-17M111 713H3v20h144v174l64-11 16-10-16-10V733h60l52 53 63-53v-20H175V571l-1-21h88l31 26 58-47-25-15 1-41 1-63 1-58-1-53-2-48-4-43-4-39-5-33-7-30-10-24h-1l-1 1-9 3-2 1-2 1-6 3-10 5-10 4h-1l-1 1-15 5 7 19 6 23 5 30 4 35 4 41 1 47 1 51v56l-1 63-1 17-2-1v42h-89l-2-31-5-69-10-66-11-62-15-60-18-54-21-52-25-47-28-43L8 7l-8 6 21 42 20 45 18 47 14 51 14 54 10 58 7 60 5 64 3 67-1 70v142m608-611 51-37-8-9-9-10-10-9-10-7-11-7-11-4-12-4-12-3-13-2-13-1v32L557 57v15h112l7 1 7 2 5 2 5 2 6 4 10 8 5 5 5 6m-481 4 58-24-6-13-6-10-9-10-8-9-11-9-11-6-13-4-12-4-13-1-13-1v31l-84 16v15h84l7 1 7 1 5 1 5 2 4 3 4 2 6 9 3 5 3 5m118 410 57-29-18-15-25 2-15 17 1 25m0 0 7 8 12 21 5 11 5 11 5 12 6 26 3 14v15l10 1 3-15 2-7h112-2l-12 21-1 26-2 13-2 13-3 12-6 25-9 25-7 10 7 7 10-9 12-9 10-10 19-22 16-26 7-14 5-15 5-15-5-24-12-8h124l3 8 4 17 2 17 4 16 4 16 3 15 4 15 9 38-1 1 4 13 57-30 11-14-21-5-21-35-36-56-11-14-2-2h136l2 1 29 25 58-47-25-16-17-7-9-14-24-35-19-23-10-11-7-11-9 4 5 13 3 14 12 56 4 12 3 14 1 4H420v-1l2-15 2-14v-16l-2-15-2-14-3-15-4-15-57 29m27 255v20h210v105l63-10 16-11-16-9v-75h100l53 53 62-53v-20H383Z"/></symbol><symbol id="𭥂_S" viewBox="0 0 1000 1000" data-size="21"><path transform="matrix(1 0 0 -1 33 958)" d="m633 68-2 8 7 2 6 4 4 4 5 7 6 8 4 11 4 14 2 16 2 19 1 10H363l-9-15-23-32-30-28-34-26-39-22-44-20-50-15L80 0l-3 9 50 22 44 24 39 23 33 25 28 25 21 26 18 29 10 28 8 29 2 20H26v21h399v83l63-10 16-11-16-9v-53h299l53 53 63-53v-21H392l-5-31-13-37h298l31 27 58-48-26-16h-2l-2-21-2-22-6-19-7-19-10-16-12-15-13-13-17-9-18-6-8 33v1l-4 15v2l-1 1v1m-2 8 15-61-11-2-22-5-22-3-22-2-34-2v32L431 49v15h124l9 1 29 3 10 2 9 2 9 1 10 3M194 916l64-10 15-10-15-10v-51h89l43 47 52-47v-22H258v-49h79l31 26 58-48-26-20V569l-63-31v31h-79v-63h98l43 48 53-48v-21H258v-91l-64-32v123H0v21h194v63h-79l-63-31v257l63-31h79v49H10v22h184v81m620-536-53 15-49 18-44 21-16 9-51-24-53-20-59-14-61-11-67-7-2 10 65 17 57 18 54 21 49 22 28 17-16 12-29 32-22 32-17 37-7 33h-57v22h305l2 2 1 2 29 22 57-48-26-15-16-6-14-24-31-39-36-35-29-22 26-10 45-12 50-10 108-15-63-61-58 11m-55 238H532l16-23 22-29 25-25 29-22 31-19 11 8 34 30 29 33 23 34 7 13m-565 41h-79v-69h79v69m143 0h-79v-69h79v69m239 135-4-23-8-20-9-20-14-17-16-16-18-13-22-13-23-12-55-19-4 8 25 15 21 17 33 31 12 16 9 13 6 14 4 14 1 12-1 13h63m228-120h91l13 10 10 13-10 15-12 9 9 68h-10l-23-68h-68v-47m-84 183H576v-63h-63v115l63-31h144l31 26 58-47-27-21V732l3-4 2-2 4-2 5-2 8-1v-47h-13l-13 1-11 3-12 6-11 7-8 9-7 12-5 12-3 12-1 14v107M194 742h-79v-62h79v62m143 0h-79v-62h79v62Z"/></symbol><symbol id="𭥃_S" viewBox="0 0 1000 1000" data-size="21"><path transform="matrix(1 0 0 -1 43 958)" d="M114 706H4v21h147v173l63-10 15-11-15-10V727h63l52 52 64-52v-21H177V564l-1-21h91l31 26 57-47-25-15 2-41 1-63 1-58-1-53-3-48-3-43-5-39-6-33-6-29-9-25h-1l-13 5-1 1-26 12-16 7h-1l6 18 7 24 5 29 4 35 3 41 2 47 1 51v56l-2 63-1 16h-1v42h-91l-2-31-6-69-9-67-13-61-14-60-19-54-21-52-25-47-28-43L8 0 0 6l22 43 20 45 19 47 14 50 14 54 10 58 7 60 5 64 3 67v212m663-305H382v21h315l7 17 11 40 18 53 20 61h-1l5 11 55-32 10-16-21-3-36-56-35-49-13-15-7-11h88l53 53 62-53v-21h-72V84l-1-14-2-12-4-13-7-12-9-11-9-8-13-6-13-5-12-2-14-1v31L651 48v15h113l5 1 2 1 2 1h1l1 4 1 3 1 5v323M243 100l58-25-6-12-8-11-8-10-8-9-11-9-11-5-13-5-12-4-13-1-13-1v31l-84 16v15h84l7 1 6 1 6 1 5 2 4 3 3 2 3 4 4 5 3 5 4 6m211 260 64-31h121l31 26 58-47-26-21V140l-63-32v53H518v-37l-64-31v267m185-52H518V182h121v126M532 468l-4 29-3 14-3 13-11 39-5 13-7 12 8 6 10-9 11-10 11-11 20-23 16-27 7-15 7-16 7-16-5-24-20-14-23 5-15 19-1 15m-74 447 61-19 13-13-18-8-2-8-9-30-10-30-14-33h317l53 52 63-52v-21H469l-20-38-17-31-21-33-23-31-26-32-8 5 46 106 25 64 17 60 6 29 5 27 3 20h-1l3 16m-47-310v22h205v106l63-10 16-10-16-10v-76h90l52 52 63-52v-22H411Z"/></symbol><symbol id="𭥄_K" viewBox="0 0 1000 1000" data-size="21"><path transform="matrix(1 0 0 -1 59 933)" d="m877 691-6-11H636c-20-43-45-86-76-129l-15 9c47 78 79 176 96 294l37-11c17-7 26-13 26-20 0-6-8-10-24-13-9-27-21-64-38-110h161l14 21c6 8 10 12 12 12 3 0 9-4 18-12l30-30m2-637-4-11c-8 1-15 2-21 2-13 0-22-4-27-11-4-7-6-11-8-11-3 0-9 4-19 12-74 55-131 137-173 244-19-99-60-186-123-259l-9 6c33 45 58 100 75 163 17 59 30 136 39 230l36-13c16-6 24-12 24-18s-8-10-23-13c-2-13-6-34-10-62 10-37 30-78 58-123v376h-88v20h197l11 16 11 11c3 0 9-4 20-13l24-25c9-8 14-14 14-19 0-7-16-13-47-16l-57-82-9 5 42 103h-76V386h67l13 22c7 8 10 12 11 12 3 0 8-4 15-11l33-29-8-14H736V146c35-45 83-75 143-92M579 693l-7-13H422c16-8 24-14 24-19 0-2-4-4-11-7-8-2-12-5-13-8l-3-140h73l9 15c6 7 11 11 13 11s6-3 13-9l23-23c8-12 13-20 13-23 0-4-9-8-26-14 0-152-4-251-13-298-14-74-47-121-98-142-12-4-20-6-25-6-4 0-6 4-6 11v2c0 12-5 20-13 25l-53 21 2 10 61-10c7-1 13-2 18-2 26 0 48 23 66 68 13 65 20 180 19 344h-77c-8-112-27-205-56-279-32-79-74-148-126-207l-9 9c62 75 105 169 128 281 16 79 24 209 24 390h-58v20h74v116l-5 40 42-6c20-6 30-13 30-20 0-6-8-13-24-18V700h73l13 20c7 8 11 11 11 11 2 0 7-3 16-11l28-27m-263-8-5-14H139c13-6 20-12 21-18 0-2-6-8-19-20 0-24-2-57-4-97h92l9 17c4 6 6 10 9 11 3 0 8-2 15-8l26-23c8-6 12-13 14-19 0-5-10-11-29-19-1-128-3-205-5-231-11-114-35-184-72-210l-12-9c-4-1-9-1-15-2-5 0-8 6-9 18 0 11-6 18-15 23l-64 16 4 10 66-8c6 0 11-1 14-1 20 0 34 9 44 29 5 12 9 31 13 58 11 78 14 188 8 329h-94c-7-115-19-208-36-280C80 161 50 94 9 35l-9 8c64 106 97 278 98 516 0 48-1 85-2 112H7v20h115v138l-2 36 42-10c16-3 24-9 26-15 0-5-8-10-23-17V691h54l17 29c9 14 14 21 17 21 4 0 11-5 21-15l42-41Z"/></symbol><symbol id="𭥅_S" viewBox="0 0 1000 1000" data-size="21"><path transform="matrix(1 0 0 -1 36 961)" d="m790 92 52-35-8-11-9-10-10-8-9-7-11-7-11-5-13-4-12-3-13-2h-13v31L628 47v16h120l6 2 6 2 6 3 5 3 4 4 5 4 10 11M106 712H4v20h138v174l63-10 16-11-16-10V732h51l53 53 63-53v-20H170V570l-1-21h81l32 26 58-47-26-15 2-41 1-63V298l-3-48-2-43-4-38-5-34-7-29-10-25-4 2-2 1-6 2-2 1-11 5-5 3-12 4-15 6 5 19 6 23 5 30 4 35 3 41 2 47 1 51v56l-2 63-1 17-2-1v42h-82l-1-31-6-69-9-66-11-62-15-60-17-54-20-51-24-48-27-43L9 6l-9 6 21 42 19 45 17 47 13 51 13 54 10 58 8 60 3 64 3 67-1 70v142m123-607 57-24-5-12-7-11-8-10-9-9-10-8-12-7-11-4-13-4-13-1-13-1v31l-84 16v15h84l7 1 6 1 5 1 5 2 4 3 4 2 3 4 4 5 3 5 3 5m613-48-35 24-1 1-3 1-1 1-3 2-1 1-1 1-7 4 7 12 6 14 6 19 5 21 4 25 3 27 2 31 2 33v27l-1-1v42H520l-21-28-23-27-1-1 28-5 17-10-17-9v-57l87 44 39 24 36 25 11 9 5 3 21-33 16-17 1-19-19 8-25-13-44-18-48-17-26-7-27-6-27-5v-25h-63v93l-42-37-29-23-30-19-6 8 67 80 22 27 37 56 17 28 29 59 7 15h-30v-16l-63-32v323l63-32h272l32 27 58-47-27-22V435l-63-32v42H557l18-11 10-16-21-3-24-43-7-9h291l31 27 58-48-25-15 1-14v-40l-2-36-3-33-4-30-4-28-7-27-7-22-8-22-12-18M524 74l-13 1-13 2-13 4-11 7-11 9-9 9-7 13-4 13-3 13v13h63l1-7 1-5 1-2 1-2v-1l1-1 2-1 3-1h6l5-1h179l30 131h11l-10-131 19-13 13-19-13-19-20-12H524m230 483H482v-91h272v91m0 111H482v-91h272v91m-63 254 64-11 16-11-16-8v-70h79l43 47 52-47v-21H755v-74l-64-32v106H559v-74l-63-32v106H321v21h175v100l63-11 16-11-16-8v-70h132v100Z"/></symbol><symbol id="𭥆_J" viewBox="0 0 1000 1000" data-size="21"><path transform="matrix(1 0 0 -1 39 948)" d="M561 495v-23h-45v155c15-5 32-12 52-21h126l25 27c31-21 47-36 47-44 0-4-2-7-6-9l-16-11v-95h-45v21H561m0 25h138v61H561v-61M456 413v-30h-50v328c19-6 40-16 61-27h332l29 37c37-31 55-51 55-59 0-3-2-6-6-9l-21-16V386h-49v27H456m0 25h351v221H456V438m61-95h237l31 37c35-28 52-46 52-54 0-4-2-7-7-10l-21-14V99h-49v28H503V97h-50v274c20-7 41-16 64-28m-14-25v-70h257v70H503m0-166h257v71H503v-71M124 682H15L5 707h160v188c65-4 97-13 97-26 0-9-13-18-40-28V707h58l45 61c25-24 45-46 60-67l-12-19H181V581c0-27 0-46-1-59h104l35 43c37-29 55-48 55-58 0-4-2-8-7-11l-23-17c-1-165-9-289-25-374-7-39-20-65-40-80-17-13-42-19-76-19-1 30-28 49-82 56v28c34-7 63-10 89-10 28 0 45 14 52 44 18 81 27 205 28 373H179C169 277 117 111 22 0L0 16c83 128 124 316 124 563v103m479 93v121c59-3 89-11 89-24 0-8-12-17-37-26v-71h157l42 60c25-23 45-44 61-64l-9-21H382l-7 25h228M359 24l-9 25h473l44 61c20-20 38-42 56-66l-8-20H359Z"/></symbol><symbol id="𭥇_S" viewBox="0 0 1000 1000" data-size="21"><path transform="matrix(1 0 0 -1 38 965)" d="m734 152-11 35-22-30-16-19-18-18-20-16-2 2V44l-64-31v126l-16-14-24 1-16 19-4 17-5 19-4 7-7-10-17-22-17-18-19-19-20-15-4 3V31L364 0v632l-28-18-24-11-5 6 52 61 5 6v19l12-6 33 43 45 68 17 29 50-39 8-17h-20l-24-30-39-43-20-19-12-10 14-7h153v181H313v20h484l53 53 63-53v-20H645V664h149l31 26 30-25-8 13-13 16-14 17-50 49-64 51 4 7 54-20 24-11 23-13 21-13 39-30 33-33 16-17 4-24-13-20-23-4-10 6-21-17V84h-63v229l-10-3-14-36-11-25-7-13 19-26 11-16 10-17v-24l-16-17h-24l-18 16m123-68-1-14-2-12-3-13-7-12-9-11-11-8-11-6-13-5-13-2-14-1v32l-52 16v15h59l4 1 4 1 1 1 1 1 2 3 1 2 1 6v6h63M101 731H4v22h130v177l63-10 16-11-16-10V753h43l53 52 62-52v-22H164V586l-1-22h75l33 27 57-48-25-15 3-108v-59l-1-54-2-49-3-44-4-39-5-35-7-30-9-25-58 23 7 19 5 24 4 32 4 36 2 42 3 48v111l-1 63-1 19-2-1v42h-76l-1-32-6-71-9-67-10-64-14-60-17-57-19-52-23-49-26-44L8 8l-8 5 20 44 17 46 17 48 12 52 12 56 10 57 7 63 4 65 2 70v217m116-623 58-23-4-12-7-11-8-11-9-9-10-8-11-7-13-5-12-2-13-3-13-1v32l-73 15v16h80l6 2 9 3 4 2 4 3 3 3 3 5 4 5 2 6m325 275-17 16-5 17-5 16-4 7-23-29-16-18-18-17-19-14-7 7 32 61 20 44 5 14-10 15-22 27-13 11 5 9 34-16 15-9 4-3 17 54 6 29 3 9 57-26v56H428V117l32 59 21 46 8 20-21 37-10 16-12 15 6 6 33-21 18-15 12 40 6 22h-1l4 13 57-26v68l-15-14h-24m210 0-18 16-5 17-5 16-3 6-6-7-15-21-16-18-18-17-19-14-2 3V119l27 57 20 45 6 16-12 23-19 30-12 15 7 7 31-22 15-11 4-3 6 18 11 48 4 13 58-26 3-3v243l-10-2-15-39-12-26-9-16 12-12 11-16 11-17 11-17-1-25-17-16h-23m-171-71-7-2-13-36-18-36 11-16 11-19 10-18 6-12v139m213 331H645V375l26 54 19 44 5 13-10 16-22 27-14 11 5 9 34-16 16-9 4-3 8 27 15 56 2 9 58-26 3-3v59m-213-75-7-1-14-39-13-26-8-16 12-12 11-16 11-17 8-14v141Z"/></symbol><symbol id="𭥈_G" viewBox="0 0 1000 1000" data-size="21"><path transform="matrix(1 0 0 -1 19 974)" d="M460 404H203c-2-37-6-71-12-102h141l31 36 42-35c7-4 10-8 10-11 1-3-2-5-8-8l-18-12-10-65c-8-46-15-80-22-102-5-20-16-38-33-55-11-13-37-23-77-31-3 26-28 46-74 60-4 1-7 2-9 3l4 15c37-10 63-16 78-18 14-3 27-3 38 0 13 3 23 14 31 34 11 23 19 62 26 117l6 52H187C166 177 106 83 8 0L0 11c103 102 156 233 161 393H95c-17 0-31-4-42-13l-32 33h358l27 36 60-47c5-3 7-6 6-7s-5-2-12-2m62 428c2 15-6 28-25 40l7 11 81-32c5-1 9-3 10-5s0-4-3-7c-13-3-23-9-31-17V694h133v201c1 11-7 24-24 41l8 11 77-31c4-1 6-3 7-5 1-1 1-3-2-5-10-3-19-9-26-18V694h133v133c0 11-10 26-30 44l9 12 83-35c9-3 11-7 6-11-14-5-24-11-29-20V714l3-41c1-20-13-35-42-44v45H567l-22-31-46 35c13 9 20 22 23 37v117m39-558h160v152h-65c-17 1-32-4-44-13l-33 33h253l28 33 58-43c5-4 8-7 7-8-1-2-5-3-12-2H764V274h104l27 35 59-45c5-4 7-7 6-8-1-2-5-3-12-2H764V80l1-36c2-23-15-37-51-43 3 25 6 66 7 125v128h-83c-16 1-31-3-44-12l-33 32m-58 339 52-36h315l28 35 56-45c5-4 8-7 7-8-1-2-5-3-12-2H560V432c4-186-55-330-178-432l-7 10c99 112 147 252 142 421v130c-3 15-12 29-25 40l11 12M81 656c1-19 1-36 1-52h195c20 43 33 74 38 92 9 27 14 43 14 48s-3 12-8 22l8 7 62-33c11-7 13-12 7-15-16 1-30-4-42-15-7-13-20-35-39-66-10-17-18-31-23-40h103l28 28 56-51c1-3 1-6 0-7-2-1-5-1-9 0-19 3-37-6-55-26-8-7-23-25-45-52l-11 5 41 83H82c-1-20-4-37-9-51-18-35-37-45-58-29-5 10-2 20 9 29 22 15 36 56 42 123h15M23 810h350l31 39 64-49c5-3 7-6 6-8-1-1-5-2-12-2H97c-15 1-29-3-42-12l-32 32m83-58 7 12c60-35 93-65 98-92 9-31 4-48-17-51-10 1-16 9-17 25-2 16-7 33-16 50-12 19-30 38-55 56m65 175 4 13c46-15 76-34 90-57 18-34 15-54-8-60-11 0-18 7-20 21-2 15-8 29-17 41-13 16-29 30-49 42m2-372 3 12c46-14 76-33 91-56 18-33 15-53-8-59-11 0-18 7-20 20-2 15-8 29-17 41-13 16-29 30-49 42Z"/></symbol><symbol id="𭥉_G" viewBox="0 0 1000 1000" data-size="21"><path transform="matrix(1 0 0 -1 17 974)" d="m759 947 72-31c11-7 13-12 6-15-16 0-32-9-48-26-29-41-53-70-72-88h109l25 33 59-39c5-3 7-6 6-8-1-1-5-2-12-2H661c-4-29-9-57-14-82h128l25 33 59-39c5-3 8-6 7-8-1-1-6-2-13-2H644c-8-34-17-62-26-83h243l25 33 59-43c5-3 8-6 7-8-1-1-6-2-13-2H738c9-11 18-23 27-35 29-39 64-70 105-93 27-17 59-26 95-29v-14c-35-1-54-10-58-25-66 36-117 81-154 134-3 6-9 15-17 28-9 15-16 26-21 34H608c-13-23-29-47-50-71-19-22-36-39-51-51h241l16 27 45-37c5-4 6-7 5-10s-4-5-11-6l-8-7V311l4-61c-1-19-15-29-42-31v22H516V64c20 6 54 17 102 34 25 9 44 16 58 21l8-10c-9-4-21-10-37-18-32-15-57-27-76-34-30-13-49-23-56-29-10-9-18-19-24-28l-41 43c9 3 18 11 28 22 1 1 1 1 1 2v359c-34-25-72-48-115-70l-6 12c87 61 146 112 177 154 1 2 3 5 5 8 11 17 20 31 25 40H450c-18 1-33-4-44-13l-33 33h202c8 16 14 32 19 47 1 3 2 7 4 13 3 10 5 18 6 23h-96c-16 1-31-3-44-12l-33 28h176c5 25 10 52 14 82H459c-17 1-32-4-43-13l-34 29h312l31 44c23 41 35 67 37 80 1 10-2 20-9 29l6 7M9 749h296l25 39 58-45c5-5 8-8 7-11s-6-4-13-3H166V563h121l31 40 43-39c6-4 9-8 9-11s-3-5-9-8l-20-14-6-263c-3-72-8-118-16-137-9-24-22-44-40-59-19-17-42-28-67-33-3 15-14 28-35 38-15 5-34 12-58 19-2 1-3 1-4 1l2 14c32-7 61-11 86-13 59-7 88 42 89 148l8 297H165c-3-126-10-217-20-273C128 176 83 88 9 5L0 15c63 96 99 189 108 278 10 91 16 187 17 289v147H87c-18 1-33-4-44-13L9 749m748-413H516v-75h241v75m-241 18h241v74H516v-74m333-86 47-40c5-3 7-6 7-9 0-2-2-3-7-4-19 1-36-5-52-18-14-11-42-29-83-55 1 0 2 0 3-1 1 0 2 0 3-1 62-27 98-51 109-73 10-22 10-37-1-45s-23-1-35 21c-13 21-41 44-83 69-44 25-111 45-201 60v11c70-1 133-12 188-33 3 2 6 5 11 8 15 11 31 24 48 39 37 32 49 54 38 65l8 6M108 929l4 12c55-14 95-38 120-72 27-48 25-77-7-87-11 0-17 10-20 29-2 19-10 39-23 58-10 19-35 39-74 60m355-13 6 10c60-23 97-47 110-71 13-31 9-49-14-54-11 0-17 7-20 22s-11 29-24 43c-14 14-33 31-58 50m148-375 4 10c35-15 59-33 72-55 11-26 7-42-13-47-9 0-15 7-18 22s-7 27-12 35c-6 11-17 23-33 35Z"/></symbol><symbol id="𭥊_G" viewBox="0 0 1000 1000" data-size="21"><path transform="matrix(1 0 0 -1 38 970)" d="m105 354 6 9c30-21 53-43 69-67 18-27 27-50 27-71-1-21-8-34-21-40-11-3-17 5-18 26-1 12-3 25-6 39-9-11-22-25-39-43-11-12-18-21-23-26-17-18-30-33-37-44-7-7-13-21-18-44L0 140c10 5 18 13 24 25v665c0 20-5 35-14 46l10 7 30-37h90l27 35 42-38c4-3 6-7 5-10s-5-6-10-7l-18-15V553l6-83c-2-3-4-8-6-13-3-6-5-10-7-11-5-5-14-7-26-8v40H58V181l98 87c-2 3-3 6-4 10-8 23-24 49-47 76m250 486c0-23 0-57-1-100-1-37-1-63-1-80-1-52-3-100-7-145h47l18 35 42-42c4-5 6-9 5-11s-4-3-9-2h-63V175c-1-48 6-71 21-68 19-2 29 7 30 27 4 26 6 74 7 143h14l1-96c2-31 9-49 21-54-3-13-8-24-14-32-5-6-10-11-15-15-15-9-38-11-69-6-19 6-29 37-29 92v329h-8C329 284 264 119 149 0l-11 10c103 136 161 298 175 485h-52l-19-25-31 33c1 1 3 4 5 7 7 9 12 17 13 24l11 171c1 11-4 23-13 35l6 9 51-23c7-5 8-9 3-12-2-1-5-3-8-5-4-3-7-5-9-6l-11-188h56c3 50 5 98 5 144v78c1 45 1 79 1 103h-40c-15-1-27-6-34-15l-24 34h139l25 36 53-47c3-3 5-5 4-6s-4-2-9-2h-80m197-314-5 15c66 33 121 72 164 118-23 30-42 63-56 100-26-44-55-79-87-106l-9 10c21 27 42 58 62 93 3 7 8 18 15 33 12 26 21 46 26 60 11 33 17 53 17 61-1 6-3 14-8 24l6 6 65-36c1-5-1-7-4-7-13-1-22-8-27-20-8-19-16-37-24-55h111l25 31 45-42c4-6 3-10-2-12-6-1-11-3-16-7-7-7-14-18-23-34-16-38-39-72-69-103 15-14 31-26 48-36s35-17 52-22c16-5 35-9 56-11v-14c-18 0-30-1-36-4-7-4-13-12-20-24-51 24-92 53-124 88-48-42-109-77-182-106m40-54h122v63c1 13-4 25-15 37l6 12 56-27c7-3 9-7 5-11-7-4-13-11-18-20v-54h56l26 36 52-44c4-2 6-4 5-6s-4-3-9-3H748v-94h46l23 36 50-43c4-2 6-4 5-6s-3-3-8-3H748v-97h70l25 32 54-39c3-3 4-6 3-7s-3-2-8-2H748v-58l4-56c1-9-4-19-14-30-4-4-14-9-30-14 4 37 6 83 6 138v20h-78c-13 0-24-4-33-13l-25 29h136v97h-48c-12 0-23-5-34-14l-24 30h106v94h-62c-14 0-25-4-34-12l-26 29m-130-34-25 31h76l25 34 43-36c4-3 6-7 5-10s-4-5-9-6l-20-12V138c1-1 3-1 4-2s3-2 4-3c14-8 27-17 38-27 3-2 6-6 11-11 11-11 19-19 26-24 17-12 44-20 81-23h61c35 0 62 0 81 1 21 0 41 1 60 2V37c-15 2-29 1-41-4-10-3-17-12-22-27l-82 1c-65 0-108 7-128 20-21 13-41 32-62 57-23 27-41 35-54 24-11-8-22-20-35-37-9-14-16-34-23-60l-38 35c7 7 16 18 29 31 21 23 36 38 45 45l5 5c2 3 4 5 6 6v316h-34c-8 1-17-3-27-11M58 655V498h95v157H58m95 171H58V673h95v153m525-24c-4-8-8-16-13-24 17-33 40-65 67-96 30 36 53 76 70 120H678m-235 8 6 8c32-25 52-43 60-54 13-15 22-30 28-47 5-15 6-28 3-41-4-11-10-17-19-17-11-1-17 10-18 31-3 20-8 38-14 53-11 18-26 40-46 67Z"/></symbol></svg>