<svg xmlns="http://www.w3.org/2000/svg"><symbol id="𭦛_J" viewBox="0 0 1000 1000" data-size="21"><path transform="matrix(1 0 0 -1 59 947)" d="M55 210V100H0v733c22-10 43-21 65-33h96l35 46c35-29 52-49 52-60 0-3-2-6-5-9l-20-17V135h-53v75H55m0 25h115v269H55V235m0 294h115v246H55V529m464-182H293l-9 25h415l43 57c26-22 48-43 65-63l-11-19H571V82c0-55-31-82-92-82 0 19-8 33-24 42-11 6-36 14-74 22v28c35-7 71-10 107-10 21 0 31 10 31 30v235m73 359h-84c-61-137-145-240-252-308l-19 18c90 72 160 169 210 290H264l-11 25h204c19 51 35 106 48 163 57-13 85-26 85-39 0-8-12-15-36-22-10-35-22-69-36-102h209l46 70c32-31 55-55 69-73l-10-22H622c66-100 153-174 261-223-20-17-34-36-43-57-102 61-185 154-248 280M805 69c-8 0-16 6-24 19-37 69-90 131-159 186l12 20c73-36 128-74 163-113 25-28 38-53 38-75 0-25-10-37-30-37M225 48l-18 17c72 59 126 134 164 224 52-20 78-36 78-49 0-10-14-14-42-14-49-74-109-133-182-178m191 449-11 25h185l39 46c24-18 44-35 61-52l-12-19H416Z"/></symbol><symbol id="𭦜_G" viewBox="0 0 1000 1000" data-size="21"><path transform="matrix(1 0 0 -1 28 975)" d="m57 919 35-37h234l34 38 49-46c5-3 6-6 5-9s-4-5-11-6l-17-9V633l3-56c0-20-14-30-43-31v38H104v-14c2-24-14-38-47-42 4 31 6 70 7 118v222c1 10-5 22-18 35l11 16m433-356h252l32 40 65-50c5-4 8-7 7-8s-5-2-13-2H684V346h130l31 38 67-49c5-3 7-5 6-7-1-1-5-2-12-2H684V99l1-54c1-24-16-39-50-45 3 25 5 74 6 145v181H530c-17 1-32-4-44-13l-33 33h188v197h-74c-16 1-31-3-44-12l-33 32M30 464h293l31 38 67-48c5-3 8-5 7-7-1-1-6-2-13-2H247V296h122l31 38 62-49c5-3 7-5 6-7-1-1-5-2-12-2H247V101l2-55c2-23-15-38-50-43 4 33 6 86 7 159v114H77c-17 1-32-4-44-13L0 296h206v149h-99c-17 1-32-4-44-13l-33 32m914 165v-13c-29 1-47 0-54-4-4-2-10-7-17-14-3-2-5-4-6-5-58 39-105 88-140 147-15 26-33 66-55 121-30-67-63-125-98-173-43-57-92-102-147-135l-9 14c85 74 151 165 199 273 18 43 27 68 26 75 1 7-4 15-14 25l8 9 74-26c9-5 11-10 6-15-11-1-21-5-30-12 0-1-1-2-2-4s-1-4-2-5c25-48 45-84 60-108 57-87 124-137 201-150m-840 99V604h242v124H104m0 135V744h242v119H104Z"/></symbol><symbol id="𭦝_G" viewBox="0 0 1000 1000" data-size="21"><path transform="matrix(1 0 0 -1 24 974)" d="m57 916 35-37h234l34 38 49-46c5-3 6-6 5-9s-4-5-11-6l-17-9V630l3-56c0-20-14-30-43-31v38H104v-14c2-24-14-38-47-42 4 31 6 70 7 118v222c1 10-5 22-18 35l11 16M30 461h293l31 38 67-48c5-3 8-5 7-7-1-1-6-2-13-2H247V293h122l31 38 62-49c5-3 7-5 6-7-1-1-5-2-12-2H247V98l2-55c2-23-15-38-50-43 4 33 6 86 7 159v114H77c-17 1-32-4-44-13L0 293h206v149h-99c-17 1-32-4-44-13l-33 32m921 109-2-13c-14 1-28 1-41 1-8-1-17-6-27-17-65 42-119 108-161 197-18 40-35 82-50 127-47-151-133-272-260-365l-9 12c99 96 170 201 211 314 2 7 5 16 9 27 11 36 16 56 15 59 0 10-3 19-9 28l7 8 79-35c4-5 3-8-2-9-11-1-21-6-29-15 22-52 40-91 55-116 55-103 126-170 214-203M104 725V601h242v124H104m575-568h1c36-32 60-63 71-94 11-33 5-53-16-58-11-1-20 11-27 38-6 24-22 52-47 84-25 30-61 63-108 98l6 12c40-22 73-43 100-64l137 217H540c-12 1-24-3-37-13l-32 33h309l45 45 52-62c3-3 3-6 1-8-1-1-5-2-11-1-12-1-21-4-26-9-5-4-23-27-54-69-7-10-20-27-38-50-31-40-55-72-74-96l4-3M104 860V741h242v119H104m498-208 8 9c59-45 92-86 99-123 7-41-1-62-24-63-12 1-19 13-20 35-1 25-5 45-12 62-7 18-24 45-51 80Z"/></symbol><symbol id="𭦞_G" viewBox="0 0 1000 1000" data-size="21"><path transform="matrix(1 0 0 -1 23 966)" d="M0 333h199v180h-94v-22c2-23-14-37-47-41 3 39 5 87 5 142v260c-1 15-7 27-18 38l12 11 40-36h222l33 38 47-45c5-4 6-7 5-10s-4-6-11-7l-16-7V585l4-86c2-17-13-28-44-34v48h-95V333h108l34 41 65-48c7-5 10-8 9-10-2-2-8-3-19-2H242V77l2-36c1-22-16-36-51-41 3 39 5 79 6 122v192H76c-18 1-32-4-43-13L0 333m623 599 83-33c7-3 9-7 5-11-10-3-19-9-28-18V714h80l34 41 66-47c7-5 9-9 8-11-1-3-7-4-17-3H683V480h130l32 39 63-45c7-5 9-9 8-11-2-3-8-4-18-3H750V158c1-43 5-67 13-72 10-6 22-10 35-11 3 0 6 0 11-1 7-1 13-1 20-1h7c37-2 58 7 62 26 3 10 6 22 7 37 1 7 1 28 2 63 1 19 1 34 2 45h13c1-11 1-27 2-47 1-34 2-55 2-62 1-19 10-32 27-39-13-32-30-50-53-54-19-7-55-8-106-4-26 1-43 4-51 8-9 3-17 12-25 25s-11 36-10 68v321h-91c-2-69-10-131-25-186-16-58-43-111-82-159-35-43-87-80-156-111l-6 14c45 29 85 62 120 99 32 37 57 82 74 136 19 55 29 124 32 207h-81c-16 1-26-4-31-13l-32 33h211v214H526c-1-4-4-10-7-18-3-9-5-15-7-19-13-37-36-77-68-119l-12 8c38 78 63 154 76 229 5 28 6 44 3 48-1 1-1 2-2 3-3 6-7 11-10 15l5 10 80-29c3-4 2-8-5-13-8 1-17-5-26-17-5-27-12-53-20-78h108v166c1 11-8 24-26 41l8 11M105 682V533h232v149H105m0 164V698h232v148H105Z"/></symbol><symbol id="𭦟_S" viewBox="0 0 1000 1000" data-size="21"><path transform="matrix(1 0 0 -1 64 960)" d="m654 85 32-56-22-9-12-5-10-4-12-3-11-3-12-2-11-2-13-1h-11v31L467 47v16h122l9 1 7 2 18 4 16 7 7 4 8 4m12-22-1 3-9 15-2 4 4 3 5 6 5 9 6 12 5 16 3 19 4 23 1 26 1 30v22H380l-15-36-28-46-35-40-42-34-49-31-55-23-61-19-69-12-2 10 64 22 57 25 48 28 42 31 35 34 27 36 20 40 14 44 8 47 1 41H0v21h775l43 48 53-48v-21H402l-4-49-11-48h301l31 27 57-47-26-16v-39l-2-29-4-26-4-25-7-21-7-21-11-17-14-15-15-13-7 12v1l-12 21h-1M94 459l-63-32v219l63-31h662l31 27 58-48-27-21V459l-62-32v32H94m178 135H94V479h178v115m242 0H336V479h178v115m242 0H577V479h179v115M129 921l63-31h465l31 26 58-47-26-21V656l-63-31v31H192l-63-31v296m528-155H192v-89h465v89m0 103H192v-82h465v82Z"/></symbol><symbol id="𭦠_J" viewBox="0 0 1000 1000" data-size="21"><path transform="matrix(1 0 0 -1 63 947)" d="M55 211V103H0v735c19-9 41-20 67-35h106l36 48c39-31 59-53 59-64 0-5-3-9-8-11l-25-15V138h-54v73H55m0 319h126v248H55V530m0-25V236h126v269H55m327 37v-48h-55v383c28-9 51-19 69-27h340l39 44c38-31 57-52 57-62 0-5-3-9-8-12l-24-17V505h-55v37H382m0 171h363v112H382V713m0-25V567h363v121H382m98-397h179v201c60-2 90-10 90-24 0-8-12-17-37-27V291h56l48 64c23-24 43-48 59-70l-10-19H715V7h-53v259H479c-6-72-30-130-72-174-38-40-92-70-162-92l-13 23c117 47 181 128 192 243H273l-8 25h160v114c-52-11-96-18-131-21l-9 24c116 23 206 52 270 89 39-22 59-38 59-49 0-6-7-10-19-10-8 0-18 2-29 4-38-12-66-20-86-25V291Z"/></symbol><symbol id="𭦡_K" viewBox="0 0 1000 1000" data-size="21"><path transform="matrix(1 0 0 -1 54 946)" d="M235 771c10-3 15-8 15-13 0-7-9-12-27-14V203c0-30-1-47-1-50-2-7-8-13-21-19-5-2-9-3-12-3-8 0-11 16-9 50H47c0-22-1-35-2-39-2-6-10-11-23-15-6-2-11-3-14-3-5 0-8 5-8 15 0 6 1 19 3 41L1 806l41-25h129l11 12c7 8 12 12 13 12 2 0 7-4 17-10l23-24M881 14c-11 6-19 8-26 8s-13-2-18-6c-5-6-9-8-10-8-5 0-12 10-21 29-39 76-66 192-81 349-14-93-38-169-74-229C617 97 566 46 499 4l-7 8c73 59 124 134 154 225 33 99 48 241 45 425h-47c-34-91-66-156-94-195l-12 6c28 46 51 110 67 192 16 74 25 150 27 227l51-13c17-5 25-10 25-16s-10-12-29-17c-8-48-19-103-32-164h155l14 16c8 7 13 11 16 11s10-6 21-17l26-28c8-9 13-16 13-21 0-8-15-13-44-15l-63-94-11 3 36 125h-76c-3-72-3-134 0-187 7-97 24-187 51-268 28-81 62-142 105-183l-9-10M577 578l-10-17h-99V21c-2-9-9-15-22-18-7-2-12-3-14-3-4 0-7 2-8 6-1 3-1 11 0 22 0 17 1 30 1 40v493h-86c-8-249-60-430-156-544l-10 7c47 71 79 155 98 254 18 100 27 224 27 371 0 50-1 113-3 189l48-20c29 0 62 4 99 13 37 10 69 22 95 36l23-20c9-9 13-16 13-21 0-6-11-8-33-4-61-13-127-19-196-19-2-10-3-84-5-221h145l18 31c8 10 13 15 15 15s7-3 14-10l46-40M180 202v273H47V202h133m0 294v265H47V496h133Z"/></symbol><symbol id="𭦢_S" viewBox="0 0 1000 1000" data-size="21"><path transform="matrix(1 0 0 -1 43 962)" d="m824 563 2-7 52-42 1-16-22 9-14-4-21-4-48-8-54-8-65-5-35-3-37-2h-9V352h223l53 52 63-52v-21H777V31L715 0v331H574v-64h-62v255l62-31 42 12 95 24 52 15 44 15 12 5 5 1M574 267l-3-39-7-38-9-34-14-32-17-29-20-26-24-22-26-20-29-15-32-11-4 9 25 19 24 21 18 21 17 23 13 24 10 26 8 27 5 29 3 32v35h62M301 99l48-41-9-9-9-9-10-8-10-7-11-5-12-5-12-4-12-2-13-2h-13v31l-84 16v15h84l8 1 14 2 7 2 12 6 11 8 11 11m0 0 33-28 13-11 2-2 11 18 10 26 10 32 7 38 1 44-6 47-16 50-27 51-40 50-47 35 35 26 23 21 21 22-49 39-15-20-38-41-51-40-61-41-72-41-39-21 3-9 44 11 41 15 39 15 35 16 34 18 30 18 8 5 33-41-18-18-45-39-24-19-55-36L0 216l4-9 39 9 37 11 35 12 33 14 64 31 56 34 26 19 13 11 18-43-49-53-57-50-31-24-70-45-76-43L0 69l4-9 45 11 43 15 42 16 39 18 38 21 36 21 34 23 32 25 25 20v-14l-4-37-8-31-10-25-9-17-6-7M146 925l64-31h461l32 26 58-47-27-21V612l-63-31v42H210v-63l-64-32v397m525-174H210V644h461v107m0 122H210V772h461v101Z"/></symbol><symbol id="𭦣_K" viewBox="0 0 1000 1000" data-size="21"><path transform="matrix(1 0 0 -1 58 938)" d="m817 552 43-34c9-8 13-14 11-18-3-6-11-8-26-8H676c38-49 68-83 90-103 33-28 73-48 118-57l-5-10c-19 1-33-2-43-8-6-4-12-11-19-21l-4-10c-40 30-72 61-97 93-26 31-50 70-74 116H470c-31-50-63-96-98-138-33-40-67-74-102-104l-10 9c28 26 58 61 91 107 30 43 56 85 76 126H324l-53-3-8 21 60-3h113c9 17 18 38 27 63l25 74h-38l-52-3-7 19h101c9 36 17 72 24 107 7 39 13 76 15 111l49-14c21-7 31-13 30-20-1-6-11-9-30-8-5-30-12-60-19-92-7-24-14-52-23-84h118l35 37 43-28c9-7 13-12 11-17s-8-8-19-8H609c8-25 16-49 27-74 10-23 20-44 31-63h106l44 45m-183-45c-9 23-16 44-23 64-8 25-15 50-19 74h-58c-9-28-18-53-27-76-10-26-19-47-28-62h155m29-100 41-34c13-13 19-21 17-27-2-4-12-8-31-10V215c0-29-9-53-27-69-14-12-33-19-57-21l-2 10c-2 12-6 21-11 26-8 9-24 17-48 25l1 11c40-13 67-18 79-14 13 4 20 18 20 42v132H470V88c0-15 3-27 10-35 6-6 16-11 30-13 28-2 56-2 86 1 28 2 51 6 68 9 27 4 47 16 60 37 12 20 29 69 50 146l10-2-3-16c-10-69-14-111-14-125 0-19 5-31 16-35 15-6 19-13 14-22-6-10-23-17-51-23-42-3-82-6-119-7-59-3-103-2-134 2-28 3-48 12-59 27-10 14-14 38-14 70v238l-3 60 48-26h164l34 33M452 837c21-10 29-18 26-23-4-4-14-7-32-8-26-61-48-108-67-141-25-45-54-81-85-111l-6 6c26 37 49 81 69 132 18 46 34 101 49 164l46-19m198 10c41-29 73-54 97-76s40-40 48-54c8-18 12-35 12-50 0-14-2-24-8-30-5-5-12-5-19 0-7 6-13 18-19 36-8 20-22 45-42 75-19 28-45 59-77 94l8 5m-409-66c12-7 16-14 13-20-3-4-11-9-24-15V267l2-30c2-10 1-16-1-20s-7-9-17-14c-13-5-21-6-24-3-2 2-2 10-2 23l1 26H45v-36l1-24c1-10 1-16-1-19-2-6-8-10-18-15-13-6-21-7-24-2-2 3-3 14-3 32l1 17v559l-1 50 52-33h128l21 31 40-28m-53-20H45V524h143v237m0-253H45V263h143v245Z"/></symbol><symbol id="𭦤_K" viewBox="0 0 1000 1000" data-size="21"><path transform="matrix(1 0 0 -1 53 951)" d="M413 574h326l39 41 54-36c8-7 10-12 7-16-3-3-10-4-21-4H604c7-6 9-10 7-12-2-3-10-6-24-9V369h137l46 46 52-45c7-5 10-9 8-12-2-2-7-4-17-4H587V113c39-17 81-29 125-35 45-5 100-5 164-1l1-10c-19-7-33-15-41-23-7-7-13-16-18-28-103 11-188 36-254 74-75 44-135 110-178 197-24-61-50-114-79-158-30-45-67-88-113-129l-10 6c54 59 96 123 127 191 26 61 53 147 79 259l44-10c20-4 30-9 29-14-1-6-12-9-33-12-6-22-13-43-20-64-6-19-13-39-20-58 25-37 50-69 74-96 27-28 55-52 83-69v426H428l-82-6-15 22 82-1M241 805c12-7 16-14 13-20-3-4-11-10-24-15V291l2-30c2-10 1-17-1-20-2-4-7-9-17-14-13-5-21-6-24-3-2 2-2 10-2 23l1 25H45v-36l1-23c1-10 1-16-1-20-2-5-8-10-18-14-13-6-21-7-24-2-2 3-3 14-3 32l1 17v559l-1 50 52-33h128l21 31 40-28m-53-20H45V548h143v237m0-253H45V287h143v245m184 299c-1-9-1-18-1-28 0-9 0-15 1-19h174v73l-2 45 60-13c25-7 34-14 26-20-5-4-17-8-38-13v-72h196l34 30 48-35c22-15 28-25 20-30-6-3-22-4-48-4l-49-44-25-24-11 9 19 36c9 17 17 32 24 45H371l-2-23c-1-19-3-34-6-43-4-16-12-32-24-48-10-12-18-18-25-16-9 1-13 13-13 37 0 8 1 15 5 23 2 5 7 11 14 20 11 15 19 28 24 40 9 21 14 45 14 74h14Z"/></symbol><symbol id="𭦥_S" viewBox="0 0 1000 1000" data-size="21"><path transform="matrix(1 0 0 -1 43 963)" d="m544 756 57-28 11-16-19-4-30-74-42-89-24-43-4-7 27-5 15-10-15-9V31L456 0v431l-32-51-28-37-29-36-8 5 79 167 38 86 34 90 34 101m215-245H549v21h210v220l63-11 16-10-16-9V532h15l32 36 42-36v-21h-89V85l-1-14-3-12-4-13-5-12-9-11-11-8-13-7-12-4-13-2-13-1v31l-63 16v15h63l6 1 5 1h3l2 2 2 2 1 5 2 4v433M299 835l57-29h210v121l63-11 16-10-16-10v-90h169l53 52 63-52v-21H356V486l-2-69-4-63-6-61-8-55-10-50-12-47-12-41-16-37-18-31-21-26-7 5 11 29 11 32 9 37 8 40 7 45 6 50 4 54 2 57 1 64v416M0 835l63-31h116l28 26 56-48-27-18V158l-57-28v59H63v-62L0 96v739m179-340H63V211h116v284m468-215-8 32-7 15-17 32-35 50-15 16 6 8 38-24 18-13 16-13 14-15 14-16 13-17 9-17 10-18 8-19-3-23-19-15-24 3-15 19-3 15M179 782H63V516h116v266Z"/></symbol><symbol id="𭦦_K" viewBox="0 0 1000 1000" data-size="21"><path transform="matrix(1 0 0 -1 46 938)" d="m743 462 28 26 40-26c15-12 21-20 20-25-1-7-11-11-32-13V98c0-25-6-45-18-59-13-16-35-28-66-35-4 18-11 31-22 40-9 7-31 16-63 26l-3 12 46-4c21-2 41-3 59-3 6 0 10 2 13 6 4 4 7 10 8 20v109H581V43c1-10 1-16-1-20-3-5-13-10-31-14-12-4-19-4-23 1-2 3-2 10-2 19l1 11v169H361V51l1-12c2-10 1-18-1-21-3-8-11-13-24-16-12-2-20-1-23 2-1 3-1 9-1 19l2 9v396l-3 62 48-28h383m-162-18v-96h172v97l-172-1m-219-96h163v97H362v-97m219-18V227h172v103H581m-56 0H361V227h164v103M255 818c4-4 9-10 15-19 0-4-10-8-30-12V234c0-7-12-14-37-20-4 0-6 4-6 12v35H45c0-39 0-60-1-63 0-2-7-6-21-11-3-2-8-3-14-4-3 0-5 1-6 5 0-6 0 1-1 23-1 17 0 32 1 47L0 850l53-24h135l15 20c6 6 10 9 11 9 3-1 8-5 15-11l26-26m-58-259v248H45V559h152m0-278v257H45V281h152m96 429h235v113H404l-50-2-5 20 49-2h316l36 37 45-33c14-11 20-19 17-25-3-4-12-7-27-8V710h23l46 46 43-33c11-9 14-16 10-21-4-4-13-7-27-7h-95V571l2-9c2-8 2-14 1-17-3-5-10-10-22-15-16-6-26-7-30-4-2 2-3 8-2 17l1 12v13H578V450l-50-5v123H413l-58-2-4 22 58-2h119v109H294l-1 15m284 113V710h158v113H577m0-128V587h157v108H577Z"/></symbol><symbol id="𭦧_K" viewBox="0 0 1000 1000" data-size="21"><path transform="matrix(1 0 0 -1 68 926)" d="M755 825c10-7 15-13 15-17 0-3-3-6-8-9-11-6-17-9-18-10V648c0-15 0-23-1-24-1-4-8-9-21-16-7-3-12-4-16-4s-6 6-6 19H167c1-9 0-15-1-17-1-1-8-5-20-11-8-4-14-6-16-6-4 0-7 3-8 10 1-4 1 12 1 47v165l-2 41 55-24h514l15 13c6 7 10 11 11 11l14-9 25-18m109-478-7-12-404-1v-57c25-38 61-75 110-109 52 21 104 56 154 104l23-30c9-11 13-19 13-25 0-11-12-13-36-4-42-19-89-38-141-58 31-21 67-37 110-51 47-15 92-23 133-22l-1-12c-20-2-33-12-39-29-2-10-7-16-13-16-10 0-30 7-61 20-100 45-184 116-252 211V109c0-35-2-58-5-67s-13-18-29-26L388 5c-9-3-17-5-22-5s-8 3-8 8v11c0 11-5 18-17 23l-75 19 3 11 98-15c6-1 11-1 15-1 19 0 28 11 28 33 0 5 0 12-1 19v97L112 73c3-25-1-38-12-38-7 0-14 9-23 27l-22 40 354 117v115H0v20h676v77H156v21h520v74H136v21h520l18 20c8 10 12 15 14 15 1 0 6-3 14-9l27-21c11-7 16-14 16-20 0-4-8-11-25-21V355h62l16 26c6 11 10 16 11 16s6-4 16-13l39-37M700 644v72H167v-72h533m0 92v71H167v-71h533M300 232c0-12-4-18-11-18-8 0-17 6-27 17-23 23-53 43-89 62l4 10c62-9 97-21 107-34s15-26 16-37Z"/></symbol><symbol id="𭦨_J" viewBox="0 0 1000 1000" data-size="21"><path transform="matrix(1 0 0 -1 54 939)" d="M658 800c-10-103-33-186-67-249-31-57-75-105-134-144l-18 19c97 86 149 211 158 374H467l-9 25h338l38 46c39-32 58-52 58-61 0-5-3-10-10-14l-22-16c0-147-12-242-35-283-18-35-52-51-101-50 0 17-9 30-26 39-11 6-37 13-79 22v26c33-7 67-10 101-10 36 0 57 15 64 45 14 55 21 132 21 231H658M558 383h223l37 42c40-31 60-51 60-59 0-4-3-9-11-14l-22-16V4h-57v68H548V4h-56v412c15-7 37-18 66-33m-10-25V97h240v261H548M127 72V0H73v440c24-9 46-20 65-31h182l37 48c38-32 56-51 56-59 0-5-3-9-9-14l-22-17V5h-53v67H127m0 25h202v143H127V97m0 168h202v119H127V265m178 411V555c0-15 4-23 12-27 5-2 19-4 41-4 24 0 39 6 44 18 7 16 13 45 15 87l25-8c0-42 2-68 7-78 3-9 10-13 22-13-2-23-12-38-31-46-13-5-39-7-77-7-50 0-80 4-91 12-12 7-18 22-18 46v141h-69c-4-70-23-125-55-165-25-31-62-59-113-84L0 447c45 32 77 67 97 104 19 36 30 77 31 125H27l-10 25h330l44 50c25-20 46-39 62-56l-10-19H305M76 801l-8 25h236l45 51c26-21 46-40 60-58l-10-18H76Z"/></symbol><symbol id="𭦩_J" viewBox="0 0 1000 1000" data-size="21"><path transform="matrix(1 0 0 -1 72 954)" d="M563 656h181l47 61c24-22 46-44 65-67l-11-19H634V529c0-15 4-24 13-27 5-2 23-3 53-3 35 0 55 5 60 17 8 15 14 44 17 87l25-8c0-42 3-67 10-78 5-9 15-13 31-13-2-23-14-38-34-46-16-5-53-7-111-7-54 0-87 4-99 12-13 7-19 22-19 46v122h-96c-6-70-28-123-66-159-29-29-75-53-136-72l-13 22c98 44 149 114 154 209H266l-10 25h249v105H318l-8 25h195v121c66-1 99-9 99-24 0-9-14-18-41-27v-70h121l48 62c25-23 46-46 63-69l-11-18H563V656M68 812h100l36 47c40-31 60-51 60-61 0-5-3-9-9-13l-25-16V142h-54v72H56V106H0v743c23-11 46-23 68-37m-12-25V535h120v252H56m120-548v271H56V239h120m458-4V99c0-15 4-23 13-26 5-3 23-4 53-4 43 0 67 6 73 19 8 20 14 52 17 95l25-8c0-46 3-75 10-87 5-9 15-14 31-14-2-23-13-38-34-45-16-5-58-8-124-8-54 0-87 4-99 12-13 7-19 22-19 46v156H479c-10-76-38-131-86-168-41-30-102-53-185-67l-13 22c143 36 218 107 223 213H268l-9 25h462l53 56c31-24 54-45 71-62l-13-19H634M340 361l-10 25h339l49 50c28-22 50-40 64-55l-13-20H340Z"/></symbol><symbol id="𭦪_S" viewBox="0 0 1000 1000" data-size="21"><path transform="matrix(1 0 0 -1 54 978)" d="m117 325 63-31h532l31 26 58-48-26-20V31L712 0v31H180L117 0v325m595-169H180V53h532v103m0 116H180v-95h532v95M5 370v21h389v221l63-9 16-11-16-10v-67h252l53 52 62-52v-21H457V391h335l43 47 53-47v-21H5m126 265v-36l-63-32v262l63-31h168v84H0v20h777l52 53 64-53v-20H594v-84h168l31 26 58-47-27-21V614l-62-31v52H131m168 142H131V656h168v121m231 0H362V656h168v121m232 0H594V656h168v121M530 882H362v-84h168v84Z"/></symbol><symbol id="𭦫_S" viewBox="0 0 1000 1000" data-size="21"><path transform="matrix(1 0 0 -1 49 974)" d="m374 651 40-45 6-18-22-1-7-11h396l53 53 62-53v-20H643l-8-37-25-42-35-36-2-1 46-10 47-12 45-15 42-14 39-18 16-18-2-24-18-16-24 2-3 1 49-39-27-21V31L720 0v31H182L119 0v328l-77-3-1 9 106 16 94 15 84 19 72 21 52 20-105 22-50 10-34-42-70 15 102 126H0v20h309l61 75H136l-63-31v213l63-32h168v74H5v21h777l52 52 63-52v-21H599v-74h168l31 26 57-47-26-21V651l-62-31v31H374m346-493H182V53h538v105m0 119H182v-98h538v98M521 408l-47-20-66-21-75-16-87-13-97-9-27-1 60-30h538l29 25-20 11-39 18-41 15-44 16-46 14-38 11m59 148H373l-70-88 43-1 59-3 58-6 38-6 39 30 24 28 14 28 2 18M304 780H136V673h168v107m231 0H367V673h168v107m232 0H599V673h168v107m-232 95H367v-74h168v74Z"/></symbol><symbol id="𭦬_K" viewBox="0 0 1000 1000" data-size="21"><path transform="matrix(1 0 0 -1 77 937)" d="M255 753c9-9 14-14 14-18s-10-9-30-13V203c0-27 0-42-2-47-1-4-8-10-19-16-5-2-9-3-13-3-8 0-11 15-10 47H48c1-32 2-47 2-45 0-9-2-15-6-18-3-3-10-5-22-9-8 0-12-1-11-1-4 0-6 2-7 5-1 4-1 14-1 29 1 25 2 45 2 60L0 786l54-24h133l11 17c9 8 14 12 15 12s6-3 15-10l27-28m-60-550v260H48V203h147m0 281v257H48V484h147m489 1v113H418V485h266m0-132v112H418V353h266m0-125v104H418V228h266m-218-61c19-9 29-16 29-21 0-6-14-10-43-11-60-53-134-95-223-125l-4 11c37 17 74 39 113 68 38 29 71 60 98 92l30-14M816 43c2-7 3-14 3-20 0-15-5-23-14-23-11 0-23 10-35 30-39 50-97 93-174 127l7 9c125-44 196-85 213-123m31 182-10-18H265v21l109-1v415l38-25h80l21 98H293v20h224l27 139 36-13c20-9 30-16 30-22s-9-9-29-10l-19-94h180l20 30c5 7 9 11 10 11 4 0 11-4 19-11l35-35-7-15H557l-22-98h140l11 12c7 8 12 13 14 13s7-4 16-12l23-23c10-7 15-14 15-18 0-5-9-10-27-15V228h33l20 28c5 8 9 13 11 13 5 0 11-5 20-13l36-31Z"/></symbol><symbol id="𭦭_K" viewBox="0 0 1000 1000" data-size="21"><path transform="matrix(1 0 0 -1 62 925)" d="M364 727h132l8 20c11 24 18 41 22 52 8 19 14 37 18 52l45-18c19-8 28-15 28-19 1-3-10-4-31-4-9-21-15-36-20-45-5-13-12-25-19-38h200l37 41 52-38c9-6 13-11 11-15-2-3-9-5-22-5H634c33-63 65-109 95-139 41-40 90-64 147-73l-1-11c-12-2-23-8-33-16-6-7-12-17-18-30-40 17-79 49-115 96-40 51-69 109-89 173h-81c-36-68-74-122-114-163-37-37-84-73-142-108l-4 7c45 36 86 77 121 122 36 44 65 91 87 142H379l-66-3-15 23 66-3m225-99c25-5 35-12 28-20-5-4-17-9-37-13V493h66l34 41 42-31c12-9 17-16 15-21-1-3-10-5-26-5H580V334h138l37 40 48-36c9-7 11-12 8-15-6-3-19-5-41-7H591c18-5 25-10 19-14-4-3-14-7-30-10V188h71l43 42 43-27c9-5 15-10 17-15 1-4 1-8-2-10-2-2-5-4-9-4-4-1-5-2-5-1H580V23h157l47 45 41-33c13-10 17-18 15-22-3-6-15-8-35-8H356l-58-5-10 25 53-4h192v152H424l-48-4-11 26 72-7h96v128H365l-69-4-10 25 73-3h174v143h-90l-44-2-11 23 44-5h101v104l-5 47 61-16M241 769c12-8 16-14 13-20-3-5-11-10-24-16V255l2-30c2-10 1-17-1-20-2-4-7-9-17-15-13-4-21-5-24-2-2 2-2 10-2 23l1 25H45v-36l1-23c1-10 1-17-1-20-2-5-8-10-18-14-13-6-21-7-24-2-2 3-3 14-3 32l1 16v560l-1 50 52-33h128l21 31 40-28m-53-20H45V512h143v237m0-253H45V251h143v245Z"/></symbol><symbol id="𭦮_K" viewBox="0 0 1000 1000" data-size="21"><path transform="matrix(1 0 0 -1 55 904)" d="M763 771c9-11 13-19 13-23s-8-7-24-10V574c0-32-1-50-2-53-1-8-8-14-21-21-5-2-9-3-12-3-7 0-10 14-9 41H177c0-10-1-16-1-17-3-6-11-11-24-15-6-2-10-3-12-3-5 0-7 4-7 11v247l-2 36 41-20h526l10 15c12 11 19 17 21 17s6-3 10-7l24-31m-55-104v89H177v-89h531m0-108v87H177v-87h531m-82-393H448v22h178v82H497v19h129v77H466v21h160v63l-2 33 45-11c18-6 26-11 26-17s-8-12-25-19v-49h130l15 22c10 9 15 13 17 13 3 0 9-4 19-13l31-29-7-14H670v-77h87l17 23c9 9 14 14 16 14 1 0 8-5 20-15l29-29-6-12H670v-82h139l11 16c11 16 18 24 19 24 2 0 8-6 17-16l34-32-9-14H670v-66c1-17 1-27 0-31-2-5-9-10-21-16-7-5-12-8-16-8-5 0-7 13-7 38v83m-439 0H0v22h187v82H42v19h145v77H10v21h177v63l-2 33 44-11c19-6 28-11 28-17s-9-12-27-19v-49h100l16 22c8 9 13 13 15 13 3 0 9-4 20-13l31-29-8-14H230v-77h73l16 23c9 9 14 14 16 14s8-5 19-15l31-29-7-12H230v-82h119l11 16c11 16 18 24 19 24 3 0 8-6 17-16l35-32-9-14H230v-66c2-17 2-27 0-31-1-5-8-10-19-16-9-5-14-8-18-8s-6 13-6 38v83M9 0v21h772l28 30c7 10 12 14 14 14s8-5 20-17l41-33-6-15H9Z"/></symbol><symbol id="𭦯_S" viewBox="0 0 1000 1000" data-size="21"><path transform="matrix(1 0 0 -1 31 960)" d="m397 528 64-52v-21H282V308h62l43 47 52-47v-21H282V138l63-20 80-16 94-11 106-5 120-1 134 6 3-70-136-1-124 3-110 10-97 16-83 21-71 29-57 34-42 41-26 46-1 7-9-34-14-40-15-38-19-34-20-31-25-27L7 0 0 7l18 28 15 30 15 32 12 33 10 37 9 38 6 41 5 44 2 48 1 50v11l62-13 16-11-17-10-2-31-6-50-5-24 14-31 30-35 34-25v286H20v21h325l52 52M882 23l-1 10v17l-1 15v16l-1 4v6l59 2-56-72v2M498 140l-2 2 2-2M69 894l64-33h215l31 27 58-47-27-22V563l-62-32v53H133v-37l-64-31v378m590-95-17-5-34-8-33-5-34-4h-3V563h132l-4 38-6 104-1 94m-311-83H133V604h215v112m0 125H133V737h215v104m155-711-38 52 11 5v636l55-28 98 37 59 26 57 30 57 33 9-17 32-32 1-18-20 8-22-11-32-14-48-19 2-111 5-103 4-41h66l53 52 63-52v-22H735l2-27 13-80 18-70 20-58 24-47 27-38 29-25 27 113h9l-9-127 11-6 17-18 1-23-17-18-24-1-48 26-42 37-35 47-29 55-23 66-18 75-12 84-4 35H538V214l155 74 6-8-70-59-62-46-46-33-2-22-16 10Z"/></symbol><symbol id="𭦰_S" viewBox="0 0 1000 1000" data-size="21"><path transform="matrix(1 0 0 -1 48 965)" d="m615 924 64-11 15-11-15-8V761h108l53 52 63-52v-21H679V614h113l31 26 59-47-27-21V89h-63v199H679V42l-64-32v278H502V31L439 0v646l63-32h113v126H409v21h206v163M0 448l63-31h247l31 26 57-47-25-21V50l-63-31v52H63V34L0 3v445M855 89l-1-13-2-13-4-13-7-12-8-11-11-8-12-7-13-4-13-2-13-1v31l-52 16v15h52l6 1 5 1 5 2 2 2 2 5 1 5v6h63M310 238H63V92h247v146m0 158H63V260h247v136m305 44H502V310h113v130m177 0H679V310h113v130M615 593H502V462h113v131m177 0H679V462h113v131M86 495h279l16 10 10 16-10 16-16 10 10 90h-10l-25-90H86v-52M1 931l63-11 16-11-16-9V735l93 34 60 23 60 26 54 27 4 2 6-11 40-37 1-17-20 8h-1l-63-24-65-20-33-9-32-8-33-5-33-5-35-3h-3V573l-1-7 1-4 1-3v-3l1-1 1-2 2-1 4-3 5-1 8-1v-52H72l-12 1-12 4-12 6-11 8-8 9-7 11-5 13-2 13-2 13v358m770-109-5 11-12 21-6 8-14 18-7 9-9 7-10 6 3 9 12-3 13-3 12-3 13-5 12-5 12-8 12-8 22-21 10-11 3-25-14-19-24-3-20 14-3 11Z"/></symbol><symbol id="𭦱_K" viewBox="0 0 1000 1000" data-size="21"><path transform="matrix(1 0 0 -1 75 939)" d="m850 204-5-15-115-11V50c0-5 1-11 2-17 2-6 2-9 2-11 0-6-8-12-24-17-9-3-14-5-18-5-5 0-7 4-7 12 0 1 0 7 1 17 0 10 1 19 1 27v118l-445-45-1 21 108 11v386h-60v20h463l19 25c10 12 16 18 18 18s9-6 20-18l26-30-5-15H730V199l43 5 12 21c7 14 12 21 15 21 1 0 6-3 14-11l36-31M248 771c5-5 7-10 7-13s-2-5-7-8c-7-5-11-7-12-8V182c-2-9-9-16-21-22-7-1-11-2-13-2-5 0-8 4-10 13v52H46c0-40 0-62-1-65-2-9-10-16-23-20-6-3-11-4-14-4-5 0-7 6-7 18 0 3 0 14 1 35 1 20 1 40 1 59L0 806l41-25h144l11 16c7 8 11 12 13 12s7-4 17-11l22-27m506 69c6-6 9-11 9-14 0-2-3-5-9-7-11-4-18-6-20-8V680c0-25 1-37 1-36-2-5-11-10-25-14-8-3-13-4-16-4-4 0-6 3-6 8 0 2 1 7 1 14 2 9 2 16 2 23H396v-20c1-6 1-10 1-12 0-7-9-14-28-21-7-3-12-5-14-5-4 0-6 4-6 10 0 1 0 7 1 16s2 19 2 27v172l-4 41 51-31h281l16 19c8 7 13 11 14 11 2 0 7-4 17-13l27-25m-63-149v136H396V691h295M192 244v257H46V244h146m0 277v240H46V521h146m495-87v113H392V434h295m0-132v112H392V302h295m0-107v87H392V164l295 31Z"/></symbol><symbol id="𭦲_S" viewBox="0 0 1000 1000" data-size="21"><path transform="matrix(1 0 0 -1 50 952)" d="m563 685 57-25 13-14-19-6-13-45-24-63-8-17h202l52 52 63-52v-21H560l-10-21-29-57-34-54-7-8 24-12h239l31 26 58-48-26-20V48l-63-32v52H504V32L441 0v299l-29-36-43-45-46-42-49-37-6 7 42 44 39 46 36 48 33 50 23 37v2l1-1 36 66 24 56H268v21h242l13 37 20 60 17 64h1l2 9M0 827l63-31h89l32 26 57-48-26-20V150l-63-31v63H63v-63L0 88v739m743-507H504V90h239v230M152 487H63V203h89v284m0 287H63V508h89v266m497 130 63-10 17-10-17-10v-99h73l53 53 62-53v-21H712V651l-63-31v134H504V651l-63-31v134H253v21h188v129l63-10 16-10-16-10v-99h145v129Z"/></symbol><symbol id="𭦳_S" viewBox="0 0 1000 1000" data-size="21"><path transform="matrix(1 0 0 -1 56 967)" d="m117 443 63-31h532l31 26 58-47-26-21V63l-63-32v64H180V31L117 0v443m595-196H180V115h532v132m0 144H180V269h532v122M13 528l-1 4v2l-1 1v5l108 13 35 5 30 3v103H95v-36l-64-31v266l64-32h89v104l63-10 16-11-16-10v-73h92l28 26 56-46-27-19V664l-57-28v28h-92v-95l9 2 33 4 34 4 19 1-22 24-12 14-17 11 5 8 17-8 18-7 17-8 15-8 13-8 13-10 10-10 10-12 7-13 6-14-6-23-20-13-23 6-13 20v14l-2 8-4 9-4 8-54-20-66-21-67-18-106-24-15-4-9-17-12 14v1l-1 4v2l-2 12v1l-1 3-2 11v7l-2 4v5m440 390 58-29h219l32 26 57-47-26-21V695l-63-31v53H511V543l1-5 1-4 2-4 2-2 2-1 2-2 6-1 7-1h302l25 90h10l-10-90 16-9 11-17-11-16-16-9H521l-12 2-12 4-12 5-9 8-8 10-7 11-5 12-2 13-1 13v368M11 540l10-62-21 60 11 2m173 271H95V686h89v125m155 0h-92V686h92v125m391 57H511V737h219v131Z"/></symbol><symbol id="𭦴_K" viewBox="0 0 1000 1000" data-size="21"><path transform="matrix(1 0 0 -1 60 949)" d="m400 599 68 161H359l-38-72-40-66 20-23h99m163 28 31-30c10-9 13-15 10-19-4-4-12-6-24-6V421l1-16c1-8 0-13-1-16-2-4-7-7-15-10s-13-2-15 1c-1 2-2 8-2 18v6h-76l12-4c15-7 21-13 18-17-1-3-9-6-23-11l-1-1V78c0-6 2-11 5-16 6-8 14-13 25-14 13-1 61-1 143-1 82 1 129 1 140 2 16 5 27 16 34 33 11 23 20 66 29 129l8-2-6-105-2-45c18-13 28-22 27-29s-13-12-35-15c-15-2-73-4-176-4-98 0-157 0-177 1-19 1-33 8-41 19-6 9-9 22-9 39v309l-1 25h-15c-11-112-31-199-63-258C333 86 284 37 217 0l-5 9c59 42 103 96 132 162 25 58 43 136 53 233H296v-9c0-10 0-15-1-18-2-4-7-7-15-10-7-2-12-1-15 2-2 3-3 11-2 23v203c-6-9-13-18-21-28-4-6-10-14-18-23l-4-6-4 6c38 65 65 117 83 157 29 63 53 129 71 196l33-18c16-8 23-14 22-20-2-6-11-9-28-9-4-11-9-23-15-36-4-9-9-21-16-38h94l27 28 33-33c10-12 14-20 12-24-2-5-13-7-33-7l-85-141h124l25 28M296 420h102c3 24 5 50 6 77 2 33 2 61 2 86H296V420m143 147c-1-23-3-47-5-73-2-28-3-53-5-74h119v163h-99c3-5 3-9 1-12-1-2-5-4-11-4m242 78c1 33 2 76 2 130s-1 92-2 113l35-9c17-5 26-10 25-15 0-3-8-8-23-14-1-47-2-82-2-106-1-37-2-70-3-98l94 3 23 33 37-38c10-10 15-17 14-22-1-6-12-9-30-10-6-100-11-175-16-226-5-67-12-119-21-158-9-43-21-75-36-96-15-22-35-35-58-38-1 17-5 29-11 36-8 10-28 22-60 35l3 9c34-9 56-13 69-14 18 0 31 5 38 16 17 27 31 82 42 166 9 75 15 173 17 292l-105-4c-7-135-25-240-52-316-30-85-80-153-148-203l-5 7c62 61 106 136 133 226 21 72 34 167 40 284l-95-4-8 15 103 6M211 802c12-7 17-14 13-20-3-4-11-10-24-15V288l2-30c1-10 1-16-1-20s-8-9-17-14c-13-5-21-6-24-3-2 2-2 10-2 23l1 26H45v-37l1-23c1-10 1-16-1-20-2-5-8-10-18-14-13-6-21-7-24-2-2 3-3 14-3 32l1 17v559l-1 50 52-33h98l21 31 40-28m-53-20H45V545h113v237m0-253H45V284h113v245Z"/></symbol><symbol id="𭦵_K" viewBox="0 0 1000 1000" data-size="21"><path transform="matrix(1 0 0 -1 60 938)" d="m754 614 42-32c8-7 12-13 10-18-2-3-8-10-21-19V391l1-18c1-6 0-11-2-13-1-4-7-8-17-13-13-6-20-7-23-4-2 2-2 9-2 20l1 16v29H501v-33c1-8 0-14-1-17-2-4-8-8-18-13-13-6-21-8-24-5-2 3-2 12-1 25l1 27v150l-2 71 51-31h224l23 32m-254-49V426h243v139H500m298 175 58-46c8-6 10-10 6-14-2-5-8-7-17-7H400c0-97-10-169-29-216s-59-95-120-144l-9 5c51 51 84 116 98 196 13 66 16 169 9 307l50-42c47 3 99 12 157 27 57 15 126 39 206 70l45-47c8-10 10-16 6-18-6-2-21 2-45 11-71-17-137-29-198-36l-170-21v-76h359l39 51M536 309c0 5 0 12-1 20 0 11-1 19-2 25l65-15c20-5 28-10 25-15-3-4-16-10-39-17V190h137l42 46 56-42c8-6 11-10 8-14-2-4-9-6-19-6H584V21h178l49 51 62-48c8-6 10-11 6-15-2-4-8-6-18-6H349l-64-3-11 22 60-1h202v153H383l-64-4-12 23 61-3h168v119M211 792c12-7 17-14 13-20-3-4-11-9-24-15V278l2-30c1-10 1-16-1-19-2-5-8-10-17-15-13-5-21-6-24-3-2 3-2 10-2 23l1 26H45v-36l1-24c1-10 1-16-1-19-2-6-8-10-18-15-13-6-21-6-24-2-2 3-3 14-3 32l1 17v559l-1 50 52-33h98l21 31 40-28m-53-20H45V535h113v237m0-252H45V274h113v246Z"/></symbol><symbol id="𭦶_G" viewBox="0 0 1000 1000" data-size="21"><path transform="matrix(1 0 0 -1 29 966)" d="m941 68-1-14c-45 6-71-1-78-20-114 103-178 255-193 456h-82V85c35 19 80 47 136 85l10-10-57-46C612 66 578 28 573 0l-57 58c7 2 17 9 29 20v748c-2 13-8 33-17 59l13 10 34-40h198l34 40 45-48c5-4 6-7 5-10s-4-6-11-7l-17-9V583l4-86c3-25-11-39-43-43v36h-97c9-67 23-128 42-182 25 21 44 38 55 49 28 26 42 42 43 49s0 14-3 20l8 6 57-44c5-3 7-6 7-9 0-2-2-4-7-5-15 3-27 2-36-5-1-1-3-2-6-4-19-13-36-26-53-39-7-6-21-16-40-30-7-5-13-9-16-12 4-11 9-22 14-33C805 144 866 83 941 68M14 867l33-35h128l38 36 43-44c5-4 6-7 5-10s-4-6-11-7l-17-9V302l2-126c1-19-13-29-41-29v77H56v-68c3-24-13-38-46-43 3 24 6 72 7 143v563c-2 14-8 26-17 37l14 11m180-346H56V244h138v277M56 539h138v273H56V539m383 171 59-36c5-3 7-6 7-9s-2-5-7-6c-11 0-19-3-24-10-19-31-43-67-74-108V103l2-56c1-23-16-37-51-43 4 33 6 81 7 145v341c-38-43-75-76-111-98l-8 11c59 60 106 119 143 176 35 56 53 89 54 99 1 9-1 18-6 26l9 6m148-44V510h203v156H587m0 169V684h203v151H587m-163 96 66-33c9-7 11-12 4-17-10 1-20-1-29-6-19-29-46-64-81-107-41-51-86-93-133-126l-6 13c36 37 71 79 106 128 28 38 48 67 59 87 9 17 14 28 14 33s-2 12-7 22l7 6Z"/></symbol><symbol id="𭦷_G" viewBox="0 0 1000 1000" data-size="21"><path transform="matrix(1 0 0 -1 37 971)" d="m503 750 37-40h139v194c-4 8-12 17-23 28l8 10 84-30c5-1 8-3 9-6 0-3-2-4-6-5-13-3-23-10-31-20V710h121l31 37 46-40c5-4 8-7 8-10s-3-6-8-8l-20-13V126c1-41-3-70-11-88-7-17-30-30-67-38-2 22-13 36-32 43-14 5-41 12-81 23 32-9 30-8-6 2l2 15c70-14 113-21 130-20 15 2 23 19 23 50v577H720c-1-60-3-107-6-142-1-13-3-24-4-33v-1c36-30 62-55 77-74 16-23 29-47 38-71 10-27 13-49 9-66-5-18-13-26-25-24-14 2-21 16-21 42-1 25-7 54-20 85-12 23-32 52-61 87-8-40-22-78-41-113-32-56-68-99-109-128l-9 10c40 47 70 94 91 143 20 48 32 100 35 155 2 27 3 71 4 130H547V142l4-96c0-13-5-23-14-30-9-6-22-11-38-15 3 26 5 88 6 187v516c-3 15-8 26-16 34l14 12M93 903l33-41h240l33 38 47-46c4-4 5-7 4-10s-4-6-10-7l-18-9V664l5-80c2-17-14-28-48-35v26H134c0-11-4-20-11-25-8-7-20-12-35-15 4 34 6 61 6 81v238c0 11-5 23-14 37l13 12m133-342 74-33c8-3 10-7 6-11-9-3-17-9-24-18v-75h90l29 40 59-51c5-3 7-6 6-8-1-1-4-2-11-1H282V275h71l29 42 58-48c5-4 7-7 6-8-1-2-4-3-11-2H282V119l181 26 1-16-302-56c-34-11-55-20-64-27-7-7-16-17-26-30L28 84l212 31v144h-92c-16 1-29-4-40-13l-30 29h162v129H107c-29-61-61-110-96-146l-11 8c31 50 54 97 70 140 16 39 24 64 25 77 0 8-2 17-7 27l6 8 67-35c3-1 4-3 4-5-1-1-2-3-5-4-12-1-22-8-30-21-1-4-4-10-8-17-3-5-5-9-6-12h124v85c3 11-5 24-22 41l8 11m-90 162h243v119H136V723m243-16H136V595h243v112Z"/></symbol><symbol id="𭦸_S" viewBox="0 0 1000 1000" data-size="21"><path transform="matrix(1 0 0 -1 36 958)" d="m831 61-35 43-31 48-19 39-13-27-34-56-38-45-43-37-46-26-5 9 38 32 35 39 31 47 27 55 24 63 1 4-8 22-20 68-15 76-13 82-8 90-3 92h-44v20h102v179l63-11 16-10-16-9V699h12l52 53 63-53v-20h-54l-9-100-13-100-17-92-22-83-16-45 13-29 28-48 31-41 31-34 34-25 18-13-58-44-39 36M402 916l63-19 14-10-18-9-19-87-11-42-7-21-11-33h93l31 27 58-48-27-21V49l-62-32v32H355V33L298 4v721l57-30h45l-1 36v66l2 86v16l1 17m104-546H355V69h151v301M0 829l63-31h124l29 26 55-48-27-18V152l-57-28v60H63v-63L0 90v739m187-340H63V205h124v284m599 190H666l15-90 17-86 18-80 21-72 7-21 15 67 12 89 11 98 4 95m-280-5H355V391h151v283M187 776H63V510h124v266Z"/></symbol><symbol id="𭦹_S" viewBox="0 0 1000 1000" data-size="21"><path transform="matrix(1 0 0 -1 39 955)" d="m854 208-13 18-17 18-42 37-7 6V31L712 0v330l-81 47 3 9 40-10 38-13v204H581v-73l-1-2-1-59-4-60-8-57-11-52-15-52-18-48-21-44-24-41-30-38-32-33-7 6 24 39 19 40 19 42 15 43 13 47 9 47 7 52 4 54 1 56-2 58h1l-1 2v341l63-31v-1l131 57 93 46 5 3 4-11 40-38 1-16-19 8h-1l-52-20-54-17-57-15-29-7-31-6-30-5h-1V588h215l53 53 62-53v-21H775V335l32-17 27-16 25-18 22-18 20-20 17-20 5-24-14-20-23-5-20 13-12 18M351 99l56-30-7-11-7-10-9-10-10-9-10-8-11-5-12-5-13-3-13-1-12-1v31l-95 16v15h95l7 1 6 1 10 3 5 3 9 6 4 5 3 5 4 7m0 0 56-30 10 24 10 27 7 29 6 34 4 36 4 39 2 43 1 45-1 50v24l26 16-58 47-31-26H160l32 60 7 15 20 2-11 17-29 16h155v-52l62 31v284l27 21-58 47-31-26H113l-62 31V520l62 32v15h34l-23-59-28-65-47-88-49-84 7-5 24 21 24 23 6 7V194h63v57l18 4 22 9 43 19 22 11 41 25 19 13 2 2 21-7-3 19-41 48h-1l-15-16-50-44-35-28-38-27-5-5v53l16 9-16 11-33 6 28 38 19 29 9 16h240v-42l1 1v-48l-1-44-2-41-3-36-4-34-6-29-6-25-8-23-7-16m-206 11-14 1-13 2-13 5-11 7-11 8-9 11-7 11-4 13-1 14-1 12h63v-6l1-4 2-5 2-2 5-2 4-1h144l31 131h10l-10-131 19-13 13-19-13-19-19-13H145m189 599V588H113v121h221m0 142V729H113v122h221Z"/></symbol><symbol id="𭦺_S" viewBox="0 0 1000 1000" data-size="21"><path transform="matrix(1 0 0 -1 63 967)" d="m460 288 17-42 21-38 27-32 34-29 38-23 46-20 51-16 59-12 65-8 55-5-61-63-72 12-63 16-57 23-50 26-42 32-36 38-26 41-19 46-7-21-26-42-34-37-43-32-51-29-59-22-67-20-75-14L2 8l-2 9 80 19 72 23 63 23 53 27 43 29 35 31 25 32 18 34 8 37 3 39v245l63-11 16-11-16-9V311l-3-23M306 537l3-9 45-40 1-16-21 9-7-2-17-5-20-4-42-8-23-3-49-5-28-2-17-1-9-5v-84h114l43 47 53-47v-21H122V227h120l43 47 52-47v-21H122v-63l-63-32v366l53-9 104 33 40 15 35 14 10 5 5 2m441-29 58-47-27-21V175l-63-32v63H521v21h194v114H521v21h194v99H521v21h194l32 26M120 935l64-32h464l32 27 57-48-26-21V570l-63-31v42H184v-16l-64-32v402m528-199H184V602h464v134m0 146H184V757h464v125Z"/></symbol><symbol id="𭦻_K" viewBox="0 0 1000 1000" data-size="21"><path transform="matrix(1 0 0 -1 68 913)" d="M242 730c5-5 7-10 7-13s-2-5-7-8c-7-5-11-7-12-8V135c-1-9-9-16-22-22-6-1-10-2-12-2-5 0-8 5-9 13-1 5-1 22 0 52H46c0-40 0-61-1-65-2-9-10-16-23-20-6-3-11-4-14-4-5 0-7 5-7 17 0 3 0 15 1 36 1 20 1 40 1 59L0 765l41-25h137l12 16c7 8 11 12 13 12s7-4 16-11l23-27M863 18 852 0H234v20h85v244l-4 53 48-20h335l18 20c6 8 9 12 11 12s7-4 15-13l29-30c5-5 7-9 7-13 0-7-9-12-28-15V20h27l21 31c6 11 11 16 13 16s8-4 16-13l36-36m-23 614c6-7 10-13 10-18 0-7-10-12-29-16-14-80-28-137-43-169-14-33-35-57-62-73l-27-11c-4-2-8-3-10-3s-4 5-8 16c-3 11-14 20-31 25l-59 18 4 12 79-19c35 1 60 15 74 42 17 30 31 93 43 188h-95c-2-8-4-17-6-24-2-4-8-6-21-8-8-2-13-2-15-2-5 0-7 1-7 5 0-1 2 11 8 35l35 148H484c-5-37-15-73-27-108h106l10 13c5 6 8 9 10 9s7-4 14-11l20-24c7-8 10-13 10-17 0-6-8-9-23-12-14-38-32-73-54-104 21-15 36-31 43-45 2-9 4-16 4-23 0-13-4-19-12-19-6 0-13 4-22 14-7 11-20 25-38 44-44-55-98-98-162-127l-6 8c60 32 108 78 146 140-16 17-41 37-75 61l8 7c34-16 62-30 84-42 16 25 31 61 46 107H450c-45-99-111-174-198-225l-8 6c110 78 172 195 189 348H308v21h368l12 15 12 12c2 0 7-4 15-12l25-28c5-6 8-11 8-15 0-7-9-12-27-14l-30-113h89l11 15c5 6 8 9 9 9 2 0 7-3 13-10l27-26M187 197v263H46V197h141m0 283v240H46V480h141M706 20v256h-87V20h87m-130 0v256h-86V20h86m-129 0v256h-85V20h85Z"/></symbol><symbol id="𭦼_G" viewBox="0 0 1000 1000" data-size="21"><path transform="matrix(1 0 0 -1 34 975)" d="m931 82-1-14c-33 5-60-3-81-23-23 17-47 39-71 68-17 18-41 62-74 131-27 57-47 143-58 257h-82V96c35 19 80 47 136 85l10-10-57-46c-64-48-98-86-103-114l-57 58c7 2 17 9 29 20v748c-2 13-8 33-17 59l13 10 34-40h208l34 40 45-48c5-4 6-7 5-10s-4-6-11-7l-17-9V594l4-86c3-25-11-39-43-43v36H670c10-74 25-139 45-195 15 12 38 33 68 62 28 26 42 42 43 49s0 14-3 20l8 6 57-44c5-3 7-6 7-9 0-2-2-4-7-5-15 3-27 2-36-5-1-1-3-2-6-4-19-13-36-26-53-39-19-15-42-32-69-51 3-8 7-16 11-24 26-54 48-89 65-106 23-25 42-41 55-50 20-12 45-20 76-24M14 876l36-33h107l37 38 45-46c5-4 6-7 5-10s-4-6-10-7l-18-9V288l3-127c0-21-15-32-44-32v83H62v-84c2-25-14-40-48-45 3 25 6 80 7 165v578c1 11-6 22-21 35l14 15m320 74 85-36c5-1 7-3 8-5 1-1 1-3-2-5-13-5-23-12-29-21V741c36-20 62-40 77-61 18-22 26-43 25-64 0-21-7-32-20-35s-20 7-21 29c-2 21-8 42-19 62-8 16-22 32-42 49V140l3-95c1-24-16-39-51-45 3 25 6 87 7 185v708c1 9-8 24-29 45l8 12m230-273V521h213v156H564M175 520H62V232h113v288M62 538h113v285H62V538m502 308V695h213v151H564M307 706c9-71 8-125-5-164-6-17-16-30-29-37-14-7-25-5-32 5-5 11-2 23 10 37 13 15 23 35 30 59 6 25 10 58 13 100h13Z"/></symbol><symbol id="𭦽_J" viewBox="0 0 1000 1000" data-size="21"><path transform="matrix(1 0 0 -1 64 948)" d="M524 400v127H331c3-43 0-77-10-100-9-21-22-31-41-31-23 0-35 10-35 31 0 9 5 19 14 28 27 27 41 67 42 121l24-3c1-5 2-12 4-21h272c23 53 41 110 54 173 56-21 84-38 84-51 0-8-12-13-36-16-19-35-43-71-72-106h147l33 44c41-36 61-60 61-71 0-6-4-10-13-12l-24-6c-13-19-31-41-56-65l-21 11c9 20 17 45 22 74H581V400h144l32 37c39-27 58-44 58-53 0-5-4-10-11-15l-19-13V173c0-51-27-75-81-74 0 18-7 31-21 38-11 5-29 10-55 15v25c27-3 50-5 68-5 21 0 32 10 32 31v172H581V0h-57v375H395V90h-57v338c11-4 33-13 64-28h122M170 207H56V100H0v728c18-7 42-17 71-32h90l38 47c38-31 57-51 57-60 0-5-3-10-10-15l-20-14V135h-56v72m0 24v268H56V231h114m0 293v247H56V524h114m354 233v139c66 0 99-8 99-24 0-8-14-18-42-29v-86h163l44 62c24-22 45-45 63-68l-11-19H281l-11 25h254m-69-194c-15 0-24 10-26 30-4 42-20 79-48 111l15 16c65-38 97-78 97-119 0-25-13-38-38-38Z"/></symbol><symbol id="𭦾_G" viewBox="0 0 1000 1000" data-size="21"><path transform="matrix(1 0 0 -1 47 978)" d="m14 863 37-45h143l34 40 46-48c5-4 6-7 5-10s-4-6-10-7l-17-7V267l4-66c5-25-11-39-46-42v86H58v-76c1-24-15-39-48-45 4 35 6 81 6 139v547c-2 16-7 30-16 41l14 12m403-105 28-30h245l38 35 39-44c4-3 6-5 5-7s-5-4-11-5l-18-9v-67l6-51c1-21-15-31-46-31v32H460v-11c3-24-13-38-47-43 3 24 6 62 7 113v74c-2 12-7 23-16 34l13 10m23-362 48-33h160l29 33 52-41c5-7 2-13-9-16l-19-13V108c-1-24 10-38 34-41 16-4 40-5 73-4s50 24 51 68l3 82h14l3-66c1-37 10-56 26-57-11-34-36-53-74-56-38-4-79-3-124 2-33 9-50 31-49 65v242H495c4-85-7-154-33-206C434 80 367 34 261 0l-4 9c85 42 140 88 164 138 25 49 35 115 32 198-3 15-10 28-22 40l9 11M58 525V265h152v260H58m0 273V543h152v255H58m402-88V599h243v111H460m-85-179c-1-5-1-13-1-23-1-9-1-17-1-22h423l30 36 56-59c3-3 3-4 2-5s-4 0-8 1c-20-3-40-14-59-34-10-8-25-25-45-52l-15 6 45 87H371v-6c-4-50-20-82-48-97-13-7-24-4-31 8-8 11-6 22 5 32 12 10 24 22 36 35 11 14 20 45 25 93h17m-57 293h447l31 39 66-47c5-4 8-7 7-9-1-3-5-4-12-3H395c-19-1-34-5-44-13l-33 33m154 119 4 12c64-14 105-33 124-56 12-15 15-28 10-40-5-13-14-19-25-18-10 1-18 9-23 24-5 16-12 29-23 40-10 10-32 23-67 38Z"/></symbol><symbol id="𭦿_S" viewBox="0 0 1000 1000" data-size="21"><path transform="matrix(1 0 0 -1 42 964)" d="m795 22-49 21-46 24-41 29-27 22-53-36-52-27-53-23-60-18-62-14-3 9 58 24 55 25 50 27 46 30 40 32 3 2-11 12-27 38-23 41-18 44-7 34-11-33-25-59-30-55-35-50-38-44-44-37-47-32-6 8 40 39 35 41 33 46 27 48 24 53 19 58 17 61 11 67 3 25H286v22h204l3 24 4 75v13l63-16 15-10-17-10-5-58-3-18h221l52 52 63-52v-22H546l-5-34-17-70v-2h212l32 26 57-47-26-15-12-6-16-31-30-46-34-42-34-36 16-11 39-22 43-18 45-15 94-24-61-56-54 17M0 835l63-31h136l32 26 58-48-26-20V158l-64-31v62H63v-62L0 96v739m729-508H524l19-34 23-37 27-34 29-31 12-9 32 39 28 39 25 44 10 23M199 495H63V211h136v284m0 287H63V516h136v266m101-80-4 4-3 4 6 3 6 6 7 8 6 10 6 14 6 17 6 18 10 45 3 26h8l3-26 2-16h201v114l62-10 17-11-17-10v-83h202l3 2v1h1l28 24 58-47-26-16-19-8-24-29-32-35-12-12-11-14-8 5 9 16 19 60 9 25 2 8H695V661h-63v134h-61l-12-39-18-38-20-34-23-32-26-28-30-23-31-22-35-16-38-12-39-9-3 9 35 17 32 20 29 20 25 23 22 24 20 27 18 28 13 31 12 34 4 20H364l1-12v-21l-1-21-2-17-5-18-5-17-8-14-12-14-16 20-1 1-15 20m416-122h-14l-12 2-12 4-12 6-11 9-9 10-5 11-5 13-3 12-1 14h63v-7l1-5v-3l1-1 1-2 1-1 5-2 5-2h130l27 110h10l-10-111 17-11 12-18-12-16-17-12H716M293 710l39-49-22-7-22 11-7 23 12 22Z"/></symbol><symbol id="𭧀_S" viewBox="0 0 1000 1000" data-size="21"><path transform="matrix(1 0 0 -1 93 964)" d="m110 387 63-32h446l31 27 58-47-26-22V36L619 5v42H173V31L110 0v387m509-192H173V67h446v128m0 140H173V216h446v119M63 397v-62L0 303v343l63-31h662l31 27 57-47-26-22V366l-62-31v62H63m178 198H63V419h178v176m241 0H305V419h177v176m243 0H546V419h179v176M532 701l-11 15-12 14-13 13-13 13-14 12-15 10-32 21-20-30-21-25-26-20-29-18-33-16-36-12-41-11-2 10 35 18 31 20 27 19 22 21 19 20 14 21 10 21 7 23 4 22v14H131V666l-63-31v294l63-32h541l31 27 58-48-27-21V666l-62-31v241H444l-3-22-7-31-4-10 16-1 21-6 19-7 20-9 18-10 19-11 17-13 16-15 16-16 7-24-12-20-24-7-20 12-11 15Z"/></symbol><symbol id="𭧁_S" viewBox="0 0 1000 1000" data-size="21"><path transform="matrix(1 0 0 -1 37 970)" d="m633 492 4-11 42-37 1-17-20 9-3-1-53-17-79-22-20-4-15-2V243h68l43 48 52-48v-20H490V66h347v157H698v20h139v152H692v20h145l31 26 58-46-27-22V34L837 3v42H490V29L433 0v421l56-11 26 16 69 39 44 24 5 3M155 939l63-10 16-10-16-10V761h95l29 26 54-47-26-18V272l-57-28v61h-95V42l-63-31v294H63v-64L0 210v583l63-32h92v178m0-415H63V325h92v199m158 0h-95V325h95v199m511 32-10-7-10-7-10-6-12-5-11-4-11-4-12-2-13-2-11-1-13-1v32l-84 15v16h84l17 1 15 3 8 2 15 7 6 4 7 4 4 3 3 3 3 9 8 30 8 45 5 28 5 52H609l-15-38-23-47-25-46-27-44-30-41-31-39-34-37-38-34-7 7 29 40 53 81 23 43 23 44 20 46 18 47 17 50 14 50 12 47 3 15 58-24 13-14-18-6-10-35-16-44h198l33 25 57-46-26-16-3-1-5-43-5-29-9-49-4-20-4-16-6-16-8-13-12-12M155 740H63V546h92v194m158 0h-95V546h95v194m473-135 2-1-2 1Z"/></symbol><symbol id="𭧂_J" viewBox="0 0 1000 1000" data-size="21"><path transform="matrix(1 0 0 -1 41 945)" d="M209 616v-36h-55v303c27-12 48-23 63-31h469l37 40c36-28 54-46 54-53 0-4-4-9-11-15l-17-14V585h-55v31h-89v-97h117l45 49c23-17 44-35 62-54l-11-20H605v-98h164l50 54c26-20 49-40 68-59l-11-20H607c85-65 188-113 311-142-21-16-36-35-46-56-125 49-225 115-300 198H354C274 270 160 195 13 148L0 171c126 54 219 121 280 200H38l-10 25h272v98H99l-9 25h210v97h-91m0 132h485v79H209v-79m0-25v-82h485v82H209m148-107v-97h192v97H357m192-220v98H357v-98h192M155 41c-23 0-34 11-34 34 0 11 10 22 29 32 48 25 80 66 96 124l24-9c-5-60-22-107-52-143-21-25-42-38-63-38m448 0c-15 0-26 12-32 36-13 52-42 100-87 146l16 18c92-58 138-112 138-161 0-26-12-39-35-39m178 12c-11 0-22 10-32 31-26 56-70 107-131 153l16 18c121-61 181-116 181-165 0-25-11-37-34-37M342 1c-1 27-27 46-78 56v25c26-5 55-7 85-7 19 0 29 9 29 29v226c60-2 89-10 89-24 0-8-11-17-33-26V66c0-44-31-66-92-65Z"/></symbol><symbol id="𭧂_S" viewBox="0 0 1000 1000" data-size="21"><path transform="matrix(1 0 0 -1 44 957)" d="m366 313 64-11 15-11-15-10V84l-1-14-3-12-4-13-6-12-9-11-11-8-11-7-13-4-13-2-13-1v32L240 48v15h112l4 1 3 1 3 2 1 1 1 1 1 3 1 5v236M121 105l32-53-23-3-20 14-3 23 14 19m0 0 24-37v-1l8-15 21 15 17 16 15 17 13 16 9 18 6 17 4 18v18l-2 15-4 16-9-1-1-15-5-13-6-12-8-11-9-11-10-9-13-10-15-10-16-10-19-11m647-16-7 12-20 26-12 14-31 29-37 31-21 15 5 9 48-20 22-10 20-9 20-12 17-12 31-25 12-14 13-14 3-24-15-20-23-2-20 14-5 12m-187-6-8 25-6 13-6 14-8 13-20 27-24 28-15 13 5 8 36-17 17-10 16-10 15-12 14-12 12-14 11-13 11-15 9-16-1-23-17-18-24 1-17 18m3 311 97-56 30-15 62-28 34-14 104-37-60-51-70 32-64 36-60 41-27 21-26 24-24 24-17 23H370l-32-37-27-26-31-23-32-24-34-22-37-22-39-18-42-19-45-15-47-14-4 9 121 69 35 22 32 25 31 23 27 26 25 24 19 22H13v20h262v107H86v22h189v100l63-10 16-11-16-10v-69h221v100l62-10 17-11-17-10v-69h109l43 47 53-47v-22H621V414h158l52 53 64-53v-20H584m-25 127H338V414h221v107M152 913l64-31h465l31 26 58-48-27-20V634l-62-32v42H216v-16l-64-31v316m529-158H216v-90h465v90m0 105H216v-84h465v84Z"/></symbol><symbol id="𭧃_G" viewBox="0 0 1000 1000" data-size="21"><path transform="matrix(1 0 0 -1 26 972)" d="M0 333h199v178h-94v-20c2-23-14-37-47-41 3 39 5 87 5 142v255c-1 15-7 27-18 38l12 11 40-37h222l33 38 47-45c5-4 6-7 5-10s-4-6-11-7l-16-7V585l4-86c2-17-13-28-44-34v46h-95V333h108l34 41 65-48c7-5 10-8 9-10-2-2-8-3-19-2H242V77l2-36c1-22-16-36-51-41 3 39 5 79 6 122v192H76c-18 1-32-4-43-13L0 333M948 74l-1-17c-52 5-82-6-90-33-79 41-145 90-196 147C593 106 497 51 373 6l-5 15c115 49 204 109 268 180-49 64-85 142-108 233-15 0-27-3-35-10l-32 30h305l29 33 50-43c5-4 7-7 7-10 0-2-2-3-6-4-20 1-40-21-59-66-23-63-55-117-96-163 73-73 159-115 257-127M105 840V693h232v147H105m0-163V531h232v146H105m708 149 71-38c11-7 13-11 6-13-13 0-26-5-38-14-22-38-54-89-97-153h97l30 30 59-53c3-5-1-7-10-7-19-2-37-12-53-31-3-4-6-7-8-9-3-3-7-8-13-17-9-15-18-27-26-36l-13 7 45 96H475c-5-67-18-105-41-116-13-7-23-4-30 8-6 11-2 23 11 37 15 15 23 29 26 42 7 15 11 45 13 92h19c0-12 0-26 1-43h257l21 35c46 97 67 146 63 147-2 12-5 21-10 27l8 9M553 434c24-77 60-144 109-202 46 57 82 124 107 202H553m245 509 66-53c5-6 8-11 8-14s-3-5-8-6c-27 9-55 9-86 0-105-27-216-44-331-49l-2 16c89 11 181 29 278 56 29 9 46 16 52 21 8 6 13 15 16 27l7 2M476 785l7 11c31-19 51-36 61-51 9-11 17-25 24-41s10-33 8-50c-3-16-9-25-19-27-11-1-18 8-21 25-1 17-5 36-11 55-6 22-22 48-49 78m147 30c57-41 85-85 82-130 0-23-7-36-21-37s-21 9-20 31c-1 23-4 43-10 61-5 19-19 41-42 66l11 9Z"/></symbol><symbol id="𭧄_G" viewBox="0 0 1000 1000" data-size="21"><path transform="matrix(1 0 0 -1 16 977)" d="M531 794h251l34 40 49-48c5-4 6-7 5-10s-4-6-11-7l-17-9V519l3-60c5-27-11-41-46-43v39H632c21-69 48-134 81-195 26 15 58 36 96 62 32 21 49 35 52 40 3 6 4 14 1 24l8 7 59-51c11-6 13-11 7-14-17 2-35 0-52-5-23-12-63-32-120-60-18-9-32-15-41-20 15-26 31-50 48-71 45-52 85-84 120-95 24-8 49-14 76-18V45c-31 0-50-1-59-4-7-2-17-10-28-24-135 79-224 225-268 438h-81V79c31 10 72 25 124 45 9 3 16 6 21 8l7-11-44-24c-13-7-31-17-52-28-15-9-30-17-46-25-15-9-31-24-47-44l-37 49c13 5 23 14 31 25v710c0 1 0 3-1 5-1 16-7 31-16 44l14 9 46-48M65 900l35-37h234l34 38 49-46c5-3 6-6 5-9s-4-5-11-6l-17-9V614l3-56c0-20-14-30-43-31v38H112v-14c2-24-14-38-47-42 4 31 6 70 7 118v222c1 10-5 22-18 35l11 16m466-284V475h268v141H531m0 158V634h268v140H531M36 442h293l31 38 67-48c5-3 8-5 7-7-1-1-6-2-13-2H247V274h122l31 38 62-49c5-3 7-5 6-7-1-1-5-2-12-2H247V98l2-55c2-23-15-38-50-43 4 33 6 86 7 159v95H77c-17 1-32-4-44-13L0 274h206v149h-93c-17 1-32-4-44-13l-33 32m76 267V585h242v124H112m0 135V725h242v119H112m464 96 4 14c70-24 112-52 125-85 11-35 4-54-23-57-11 3-17 13-20 31-3 19-12 36-28 53-16 18-35 33-58 44Z"/></symbol><symbol id="𭧅_S" viewBox="0 0 1000 1000" data-size="21"><path transform="matrix(1 0 0 -1 38 960)" d="m832 74-32 24-30 25-30 27-28 29-25 30-26 32-22 34-20 37-3 6V31L553 0v279l-12-17-27-37-31-35-31-32-34-29-36-26-37-25-41-20-42-18-4 8 36 26 66 56 32 29 28 30 26 33 25 35 22 35 22 38 6 16H278v20h275v132l63-11 16-10-16-9V366h158l53 53 63-53v-20H617l74-80 27-27 57-49 60-42 32-18 57-32-59-46-33 22M0 834l63-31h124l31 26 57-48-26-20V168l-62-31v51H63v-62L0 95v739m187-340H63V210h124v284m195 20v-63l-64-32v340l64-32h93v120H283v20h487l52 53 63-53v-20H693V727h93l32 26 58-47-26-21V482l-64-31v63H382M187 781H63V515h124v266m288-75h-93V535h93v171m156 0h-93V535h93v171m155 0h-93V535h93v171M631 847h-93V727h93v120Z"/></symbol><symbol id="𭧆_S" viewBox="0 0 1000 1000" data-size="21"><path transform="matrix(1 0 0 -1 45 976)" d="m758 308 49-40-26-21V31L718 0v31H186L123 0v320l63-31h532l25 21-81 13-82 16-74 17-59 18-1-1-72-17-81-13-89-13-98-9-105-7-1 10 104 17 95 17 87 18 78 20 14 3-49 23-43 26-35 30-22 27H17v21h404v55l62-11 16-10-16-9v-25h289l53 53 63-53v-21H701l-43-40-42-27-49-24-25-10 49-8 80-11 88-11 151-14-62-63-90 11m-40-155H186V53h532v100m0 115H186v-93h532v93M612 505H248l17-10 37-19 43-20 51-17 57-16h1l40 15 51 24 42 23 25 20M137 616v-15l-63-33v251l63-31h168v90H6v21h777l52 52 63-52v-21H600v-90h168l31 26 57-46-26-22V605l-62-31v42H137m168 152H137V637h168v131m231 0H368V637h168v131m232 0H600V637h168v131M536 878H368v-90h168v90Z"/></symbol><symbol id="𭧇_S" viewBox="0 0 1000 1000" data-size="21"><path transform="matrix(1 0 0 -1 38 964)" d="m820 63-40 41-36 45-33 54-21-34-44-55-47-47-53-38-58-29-4 8 50 37 46 43 40 48 36 54 32 61-26 65-18 65-14 68-9 74-2 38-12-24-23-38-24-35-8 5 44 121 26 87 23 92 8 47 17 101 2 11 60-21 14-12-18-7-7-34-12-49-14-49-14-48-14-37h131l53 52 63-52v-22h-72l-12-91-18-92-23-86-28-78-21-43 18-30 32-44 35-39 37-33 62-41-59-45-45 36M271 527l-4 22v5l-1 4-1 3v3l-1 2 18 2 72 200 15 49H253v22h212l53 53 63-53v-22H435l-33-69-60-115-37-61h2l71 11 54 11 58 9 9 1-7 20-15 38-19 39-11 21 7 6 34-33 15-16 14-17 12-17 12-18 11-19 9-18 8-19 7-19-3-24-19-14-24 4-14 19-3 17-3 17-5 17-36-17-21-8V371h30l43 48 52-48v-20H448V167l96 26 39 10 3-9-70-37-68-31v-1h-4L326 75l-28-11-7-1-5-21-15 13-2 8-1 1-2 8-1 3-3 11-1 1v1l-7 23v1l-1 2 116 32 17 3v202H261v20h125v168l-68-22-21-6-8-20-14 14v4l-1 2v3l-1 3v1l-1 5v1l-1 2v1m-18-413 18-59-29 56 11 3M0 836l63-31h92l33 26 57-48-26-20V159l-64-31v62H63v-62L0 97v739m155-340H63V212h92v284m623 153H659l-28-66 12-56 17-71 21-64 23-61 9-18 25 82 19 82 14 89 7 83m-514-83 11-61-22 59 11 2M155 783H63V517h92v266Z"/></symbol><symbol id="𭧈_G" viewBox="0 0 1000 1000" data-size="21"><path transform="matrix(1 0 0 -1 41 967)" d="m14 852 37-45h127l34 40 46-48c5-4 6-8 5-10-1-4-4-6-10-7l-17-7V256l4-66c5-26-11-40-46-42v86H58v-76c1-24-15-39-48-45 4 34 6 81 6 139v547c-2 16-7 29-16 41l14 12m530-257 6 12c3-2 7-4 13-7 17-8 38-20 63-34 8 50 13 107 15 171h-26c-13 0-24-3-32-11l-28 31h86v15c1 7 1 13 1 17v104c-3 14-10 27-21 40l7 9 72-29c4-6 4-9 0-10-9-2-15-6-20-11V757h69l30 39 40-36c7-10 6-16-2-18l-19-18V570c1-104 20-180 58-229 12-13 21-6 26 22l16 93 16-4c-9-73-14-115-13-125 1-12 4-19 9-23 5-6 8-13 7-21s-7-13-17-13c-7-2-19 1-36 8-3 1-9 5-17 11-1 0-1 1-2 2-55 50-83 144-84 280v166h-82c-2-82-8-146-18-194 21-16 40-35 55-57 12-20 18-39 18-55-1-16-7-25-18-27-11-1-20 10-27 34-9 24-22 45-38 65-24-96-80-178-168-247l-8 12c75 75 124 165 145 269-23 22-49 41-76 58M283 761h121v127c1 11-7 26-22 44l7 11 76-35c5-3 8-5 8-7 1-2-1-4-4-6-10-3-19-8-27-15V761h22l25 38 55-43c7-5 9-9 8-11-2-2-8-3-19-2h-91V604l98 49 6-14-104-63V342c-2-25-7-43-16-53-11-14-28-23-51-28-1 13-8 23-23 30-17 9-44 19-81 30l4 15 41-9c39-10 63-12 74-6 9 6 14 23 14 51v181c-37-23-59-38-68-44-10-8-18-21-23-37l-37 51 128 63v157h-44c-16 0-31-4-46-12l-31 30M58 514V254h136v260H58m0 273V532h136v255H58m702-579 8 12c45-34 76-61 94-80 19-22 31-42 36-61 11-40 3-59-22-59-9 1-16 13-20 36-5 23-14 46-27 69-14 23-37 51-69 83m-369-2c-1-51-6-87-13-107-8-23-18-42-29-56-32-36-55-43-68-22-6 12 0 25 17 37s33 29 48 51c14 20 24 53 30 97h15m228 4 10 8c47-52 74-99 82-141 5-36-5-55-29-55-11 0-16 13-17 38-1 24-4 48-10 72s-18 50-36 78m-141-6 12 8c34-58 52-100 55-126 6-43-4-65-29-65-11 2-16 11-15 29s2 38 1 61c0 22-8 53-24 93Z"/></symbol><symbol id="𭧉_K" viewBox="0 0 1000 1000" data-size="21"><path transform="matrix(1 0 0 -1 64 944)" d="m815 661 47-40c8-7 11-11 9-14s-7-5-17-5H324l-45-1-47-2-11 24 97-6h120v130h-79l-81-4-7 21 87-2h80v126l38-9c21-5 31-10 31-15s-9-10-27-14v-88h139v124l39-11c20-6 29-10 29-15-2-5-11-8-27-11v-87h87l35 38 49-35c7-6 9-11 6-14s-9-4-18-4H660V617h118l37 44m-33-117 37-31c17-13 23-23 21-28s-13-9-33-11V108c0-32-7-57-19-72-11-15-29-24-55-28-5 18-12 30-22 37-11 9-33 17-65 24v12c54-3 86-3 98-1 14 2 21 12 21 29v111H614V71l2-14c2-8 2-14 0-17-2-5-10-9-21-14-12-4-19-5-23-3-2 2-2 7-1 16l2 14v167H433V49l1-16c2-8 2-13 0-16-3-5-10-10-20-13-14-4-22-4-24-1-2 2-3 8-2 18l1 11v503l40-27h322l31 36m-144-52c3-3 3-6-1-9-5-3-12-5-23-8V373h151v119H638M433 373h140v120H433V373m186 245v129H480V618h139m146-262H614V237h151v119M573 238v117H433V238h140M211 795c12-8 17-14 13-20-3-4-11-10-24-16V281l2-30c1-10 1-17-1-20-2-4-8-9-17-15-13-4-21-5-24-2-2 2-2 10-2 23l1 25H45v-36l1-23c1-10 1-16-1-20-2-5-8-10-18-14-13-6-21-7-24-2-2 3-3 14-3 32l1 16v560l-1 50 52-33h98l21 31 40-28m-53-20H45V538h113v237m0-253H45V277h113v245m318 44c0-5-11-7-33-7-28-43-57-82-89-117-26-30-58-60-94-92l-14 9c35 36 63 69 86 100 27 36 56 83 88 141l34-16c14-8 22-13 22-18Z"/></symbol><symbol id="𭧊_K" viewBox="0 0 1000 1000" data-size="21"><path transform="matrix(1 0 0 -1 56 953)" d="m274 827 45-14c23-6 33-11 31-15-2-3-10-7-24-11l-9-4V639h69v219l-2 48 44-12c24-8 34-14 27-20-3-3-13-6-28-10l-2-1V639h68v137l-2 50 47-15c25-7 35-12 28-17-3-3-14-5-32-7V634l1-22c1-10 0-16-1-18-2-4-9-7-18-10-11-1-18 0-20 3-2 2-3 10-3 23l1 13H317v-12c0-10 0-17-2-21-3-5-9-9-19-12-11-2-17-2-20 0-2 2-2 8-1 18l1 20v161l-2 50m555-147 51-39c8-7 10-12 7-15-4-3-10-5-19-5h-51l8-9c5-6 7-10 6-12s-10-4-26-5c-13-75-26-138-41-190-17-62-38-114-63-158 20-41 44-78 74-110s65-61 106-86l-1-11c-13 0-26-3-38-8-11-4-21-12-29-22-28 30-53 61-75 94-23 36-42 72-58 111-34-52-77-95-129-129-55-36-121-65-198-86l-7 9c78 26 144 60 196 101 50 39 91 88 123 147-16 47-29 98-38 153-9 56-15 117-17 183-7-13-15-24-23-35l-23-29-11-15-10 8c27 41 52 93 75 157 27 73 44 145 52 215l49-24c21-6 29-12 26-17-2-5-16-9-41-12-6-27-14-57-25-92-12-35-26-72-41-111h165l26 42M681 289c20 42 37 92 51 149 13 51 26 112 38 184H626v-1c2-70 7-131 17-183 9-56 21-106 38-149m-196-59c0-12 2-20 4-25 3-5 8-8 17-8h22c10 0 19 7 26 20s14 36 20 66l15-4-13-73c12-12 16-21 12-29-5-9-18-13-39-13h-62c-14 0-24 4-31 11-8 7-12 18-12 33v203H337c-2-106-16-183-41-231-20-37-52-74-98-111l-4 8 1 2c37 42 63 81 76 116 22 60 28 150 19 272l50-38h89l24 36 46-40c9-9 13-16 11-21s-10-9-25-11V230M211 808c12-8 17-14 13-20-3-4-11-10-24-16V294l2-30c1-10 1-17-1-20-2-4-8-9-17-15-13-4-21-5-24-2-2 2-2 10-2 23l1 25H45v-36l1-23c1-10 1-16-1-20-2-5-8-10-18-14-13-6-21-7-24-2-2 3-3 14-3 32l1 17v559l-1 50 52-33h98l21 31 40-28m-53-20H45V551h113v237m0-253H45V290h113v245m377-8-7-16H248v22h221l12 21c4 7 8 10 11 10s8-3 15-10l28-27Z"/></symbol><symbol id="𭧋_K" viewBox="0 0 1000 1000" data-size="21"><path transform="matrix(1 0 0 -1 86 947)" d="M808 688c16-15 22-26 17-31-4-4-20-7-46-7-15-10-30-21-47-32-16-10-28-18-37-22l-7 7 49 67H323c0-18-3-40-10-65-5-20-11-38-17-51-17-29-31-38-43-27-11 12-10 33 2 63 14 17 25 38 33 60 11 29 16 59 16 90h9c3-12 6-22 7-28 3-9 4-18 4-26h153v175l-1 33 45-18c17-7 26-13 26-20-1-5-9-11-26-15V686h35l23 37 42 64 41 68 45-28c14-11 18-19 13-23s-17-5-35-1l-8-9c-22-24-39-42-50-53l-56-55h159l36 37 42-35m-399 81c6-12 9-24 9-37-1-11-3-20-8-26s-11-6-18 0c-8 6-15 19-22 39-4 14-10 28-18 43-12 22-25 40-39 57l4 7c24-14 44-29 62-46 15-15 25-27 30-37m304-211c17-15 23-26 19-33-4-5-15-7-32-7V394l2-25c1-10 1-16 0-19-2-5-9-10-20-14-17-6-27-7-31-3-2 3-2 11-1 24l2 22H375l1-22c1-9 1-16-1-20-3-5-9-10-21-15-16-4-26-5-29-2-2 3-2 11-1 24l2 24v185l-1 37 54-32h260l32 30 42-30m98-326c-4-28-6-52-8-71-4-34-6-61-7-83 23-10 33-18 31-26s-16-14-43-19c-22-2-55-3-100-4-42 0-74 1-97 2-20 3-32 8-38 15-7 8-10 24-10 47v264l58-14c16-5 23-10 20-15-2-4-12-9-29-13V101c0-10 1-16 3-19 4-5 12-7 24-8 13-2 32-2 60-2 29 1 49 3 58 5 14 4 25 20 35 47 6 18 15 52 25 105l1 4 17-1M464 352c18-5 27-10 26-15 0-6-11-11-33-17-10-95-40-168-92-218C321 57 254 23 164 0l-3 16c82 24 141 61 180 109 45 56 68 135 68 238l55-11m187 190H375V396h276v146M211 793c12-7 17-14 13-20-3-4-11-9-24-15V279l2-30c1-10 1-16-1-20s-8-9-17-14c-13-5-21-6-24-3-2 3-2 10-2 23l1 26H45v-36l1-24c1-10 1-16-1-19-2-6-8-10-18-15-13-6-21-7-24-2-2 3-3 14-3 32l1 17v559l-1 50 52-33h98l21 31 40-28m-53-20H45V536h113v237m0-252H45V275h113v246Z"/></symbol><symbol id="𭧌_J" viewBox="0 0 1000 1000" data-size="21"><path transform="matrix(1 0 0 -1 63 946)" d="M373 571v-46h-56v352c29-12 51-22 66-31h334l37 46c42-31 62-52 62-61 0-4-2-7-8-11l-26-17V529h-56v42H373m0 154h353v96H373v-96m0-25V596h353v104H373m144-379v228c63-1 95-9 95-25 0-7-13-16-39-24V321h187l46 59c24-21 45-42 63-65l-11-19H650V102c0-15 5-24 15-28 6-3 23-4 49-4 42 0 67 6 75 18 9 14 17 54 25 122l25-9c-1-10-1-20-1-32 0-37 2-61 8-72 4-9 13-14 28-14-2-27-12-44-30-51-20-7-61-11-123-11-61 0-97 5-110 16-12 9-18 27-18 54v205H486C482 136 385 37 195 0l-14 23c87 27 150 64 190 111 36 44 55 98 57 162H253l-11 25h275M65 807h96l34 46c35-31 52-50 52-60 0-2-2-6-5-9l-19-17V142h-53v75H55V107H0v733c29-13 51-24 65-33m-10-25V536h115v246H55m115-540v269H55V242h115m236 97c-16 0-26 13-31 39-7 36-28 70-63 104l15 17c77-40 115-81 115-123 0-24-12-37-36-37m256-2-20 13c31 47 56 100 77 159 51-23 76-41 76-54 0-8-13-13-39-14-25-35-56-70-94-104Z"/></symbol><symbol id="𭧍_K" viewBox="0 0 1000 1000" data-size="21"><path transform="matrix(1 0 0 -1 72 924)" d="M701 813c9-8 14-14 14-18s-9-7-27-10V566c-2-7-10-13-22-19-7-3-12-4-15-4-5 0-7 11-5 32H154c0-13 0-21-1-23-2-5-9-9-22-14-7-3-12-4-15-4s-5 3-7 10c1 3 1 25 1 67l-2 237 41-25h487l11 12c8 8 12 13 13 13s7-4 17-12l24-23M855 14l-5-14H250v21h271v97H329v22h192v105H379c1-17 2-25 3-25-1-9-9-17-26-24-7-3-13-5-15-5-3 0-6 3-8 8 1 2 1 18 1 48v232l-5 46 55-27h305l12 14c8 8 13 12 14 12 2 0 8-3 17-9l24-21c10-8 15-15 15-19 0-2-8-8-24-19V264c0-24 0-36-1-37-1-7-9-14-22-21-8-3-13-5-16-5-6 0-7 15-5 44H564V140h120l19 21c10 12 16 18 18 18 0 0 8-5 21-15l39-34-6-12H564V21h192l18 22c9 12 14 18 16 18 3 0 12-6 26-18l39-29M241 440c12-11 18-20 18-26s-9-11-26-13V115c0-34 1-50 1-48-1-5-8-8-22-10-9-3-14-4-17-4-2 0-4 1-5 5 0 2-1 8-1 16 1 16 1 27 1 34v12H49V76c0-27 0-40 1-39-1-4-10-7-25-11-7-2-12-4-14-4-4 0-6 2-7 5s-1 9 0 19c1 16 2 28 2 37L0 479l53-32h127l10 15c7 10 11 15 11 15 2 0 7-5 16-14l24-23m405 156v94H154v-94h492m0 114v93H154v-93h492M190 142v285H49V142h141m331 239v98H379v-98h142m0-114v94H379v-94h142m182 114v98H564v-98h139m0-114v94H564v-94h139M109 546v-2 2m224-344v-3 3Z"/></symbol><symbol id="𭧎_K" viewBox="0 0 1000 1000" data-size="21"><path transform="matrix(1 0 0 -1 79 941)" d="m843 203-8-18H572c56-71 146-121 269-150l-3-13c-20 1-33-2-37-10-5-8-7-12-8-12-5 0-13 3-25 9-94 42-165 101-214 176-14-49-45-89-94-121S346 10 265 0l-8 11c141 27 225 85 253 174H286v20h229c7 38 10 71 8 97l39-9c22-5 33-11 33-17 0-5-9-12-28-21-1-9-4-26-8-50h200l19 26c7 10 12 14 15 14s10-5 22-16l28-26m-36 141c3-30-2-44-16-44-6 0-11 6-17 19-3 8-9 21-17 39l-386-51c-7-21-15-31-22-31-8 0-15 10-21 29l-11 42 107 5 240 232 25-15c15-9 23-16 23-20 0-7-13-11-38-12L444 352l309 16c-8 17-27 42-57 76l8 8c34-25 57-44 70-57 14-14 25-31 33-51M564 664c14-10 21-17 21-21 0-6-11-9-33-8L435 525c34-23 51-48 51-75 0-18-5-27-14-27-7 0-14 7-21 22-20 45-54 82-102 113l7 10c26-11 47-23 65-34l117 148 26-18m40 51c2-6 2-12 2-18 0-15-4-23-13-23s-17 9-25 28c-5 29-30 64-73 103l10 9c60-39 93-72 99-99m163 149c13-11 20-20 20-26 0-5-5-8-15-8-7 0-18 2-32 5-60-5-153-11-278-20-3-7-13-11-30-13-25-59-74-118-146-179l-10 8c64 60 107 136 128 227l54-24c118 7 215 23 288 48l21-18m66-190c0-20-6-29-18-29-7 0-14 6-18 20-20 57-49 99-85 128l9 9c75-43 112-85 112-128M205 209v260H48V209h157m0 281v257H48V490h157m61 269c8-9 12-15 12-18 0-4-9-9-29-13V209c0-27-1-42-2-47-1-4-8-10-19-16-4-2-8-3-12-3-9 0-12 15-11 46H48c1-33 2-47 2-43 0-10-2-16-6-19-3-3-10-6-22-9-8 0-12-1-11-1-4 0-6 2-7 5-1 4-1 13-1 28 1 26 2 46 2 61L0 792l54-24h142l12 17c9 8 14 12 16 12 1 0 5-3 13-10l29-28Z"/></symbol><symbol id="𭧏_G" viewBox="0 0 1000 1000" data-size="21"><path transform="matrix(1 0 0 -1 62 967)" d="m14 840 37-45h143l34 40 46-48c5-4 6-7 5-10s-4-6-10-7l-17-7V244l4-66c5-25-11-39-46-42v86H58v-76c1-24-15-39-48-45 4 35 6 81 6 139v547c-2 16-7 30-16 41l14 12m510-257 52-55c5-4 7-7 7-9s-2-3-7-4c-17 4-37 1-60-9-5-1-12-4-22-8-31-13-60-23-87-30V304h79l31 39 66-49c5-3 7-6 7-8 0-1-3-2-8-2H407V113h387v177H692c-14 0-27-4-39-13l-33 33h174v172H684c-10 0-21-4-33-13l-34 33h164l36 36 44-44c4-4 6-7 6-9 0-3-3-5-10-7l-20-7V139l5-90c1-19-15-30-48-33v77H407V43c2-23-15-38-50-43 0 3 0 7 1 12 4 41 6 81 6 120v347c0 11-6 22-19 34l12 16 43-44c69 32 108 57 119 74-1 7-2 13-5 18l10 6M58 502V242h152v260H58m0 273V520h152v255H58m749 158 57-56c8-8 12-13 12-15 0-3-2-4-7-4h-3c-10 1-21 2-32 2-13 0-28-1-43-4-140-29-296-47-468-52v17c209 22 349 44 420 65 37 12 56 23 57 32 1 3 0 7-2 11l9 4m-14-118 67-47c7-4 11-8 11-11 0-2-1-3-4-4h-4c-12 0-23-4-34-11-13-23-52-77-116-160l-17 6 39 66c41 73 62 114 62 124v2c-1 4-4 10-8 19-1 4-2 7-3 9l7 7m-275-28 7 9c72-43 110-91 113-144v-5c-1-27-10-41-27-42-11 1-17 11-18 31 5 45-20 95-75 151m-179-29 7 9c71-43 109-92 112-145v-8c0-26-9-39-26-39-11 0-17 11-17 32 4 44-21 94-76 151Z"/></symbol><symbol id="𭧐_K" viewBox="0 0 1000 1000" data-size="21"><path transform="matrix(1 0 0 -1 71 947)" d="M857 45c0-18-19-27-57-27H666c-48 0-72 28-72 86v93h-73c-1-49-22-91-62-128-42-33-105-56-187-69l-7 14c75 13 129 37 162 72 31 41 46 78 46 111h-57v-30c-1-3-8-6-23-11-9-2-14-4-16-4-3 0-5 3-6 7-1 3-1 11 0 24 1 19 1 36 1 51v224l-2 50 51-27h270l18 23c6 7 9 11 10 11 2 0 7-4 13-12l26-32c8-9 12-16 12-21 0-6-9-11-27-13V229c0-31 0-49-1-51 0-2-8-5-23-9-10-3-16-4-18-4s-3 2-3 7c1 17 1 26 1 25h-61v-85c0-34 13-50 39-50h86c11 0 19 1 23 5 5 4 9 12 12 24l20 79 13-5-6-77c-2-13 3-21 14-24 12-2 18-9 18-19M261 718c9-9 13-15 13-18 0-4-9-9-28-13V214c0-28 0-43-1-46-1-5-8-11-20-18-6-1-10-2-12-2-9 0-12 16-11 46H46c1-32 2-47 2-46-2-15-10-26-25-31-6-2-11-3-14-3-4 0-7 5-8 14 1 1 1 31 1 88L0 751l52-24h142l11 17c8 8 12 12 14 12s7-3 16-10l26-28m594-176c-17-1-28-7-33-18-4-10-9-15-15-15s-12 1-21 4c-90 27-165 60-224 98-93-60-189-104-290-132l-5 12c106 37 196 85 271 144-44 39-77 81-100 126-40-48-93-91-159-130l-6 12c82 58 147 141 195 251l29-15c17-10 25-18 25-24 0-7-9-12-27-13-4-7-11-16-18-29h193l16 18c7 6 12 9 12 9 3 0 10-6 19-17l23-24c6-7 9-13 9-18 0-7-13-10-40-10-31-56-71-102-122-139 57-37 147-65 270-83l-2-7M202 214v242H46V214h156m0 263v229H46V477h156m497-260v70H416v-70h283m0 90v67H416v-67h283m0 88v66H416v-66h283M461 794c-2-2-6-8-12-19 25-45 62-85 113-122 48 41 83 88 106 141H461M1 131v-3 3Z"/></symbol><symbol id="𭧑_J" viewBox="0 0 1000 1000" data-size="21"><path transform="matrix(1 0 0 -1 40 943)" d="M163 552h-53v-28H60v345c23-11 44-21 62-31h235l34 43c38-29 56-48 56-57 0-5-3-9-10-14l-22-16V522h-50v30H221c-16-36-35-70-57-102h219l33 43c37-31 56-50 56-58 0-5-3-9-8-13l-20-17c-5-174-17-285-36-333-17-48-53-72-107-72-1 20-10 33-28 41-13 6-39 13-80 21v27c50-7 89-11 117-11 31 0 50 16 57 48 13 55 21 155 25 300H146c-18-23-41-46-69-70 40-2 60-10 60-22 0-7-10-15-30-23V176h174l29 30c21-15 37-27 48-38l-9-17H107V89H61v254c-17-14-33-26-48-35L0 329c73 60 127 134 163 223m-53 159h255v102H110V711m0-25V577h255v109H110m124-384c-26-47-60-86-102-116l-16 19c50 48 84 118 101 210 50-11 75-23 75-35 0-7-11-12-32-17-4-12-8-24-14-37 63-26 95-54 95-84 0-21-9-32-27-32-10 0-19 8-26 23-11 24-29 47-54 69m302-172c40 95 71 195 93 298H490l-8 25h163v216H503l-8 25h150v192c63-2 95-11 95-25 0-9-13-18-40-28V694h93l42 65c23-25 43-48 59-71l-10-19H700V453h117l45 68c24-25 44-49 59-72l-11-21H701c-40-106-84-205-134-297 94 8 174 19 240 31-28 52-64 103-109 153l15 18c77-59 133-121 168-185 20-34 30-61 30-83 0-26-10-39-31-39-13 0-22 9-27 27-9 29-20 56-32 82-84-25-184-48-300-67-6-26-13-39-20-39-12 0-23 33-32 99 14 0 36 1 67 2Z"/></symbol><symbol id="𭧒_G" viewBox="0 0 1000 1000" data-size="21"><path transform="matrix(1 0 0 -1 36 974)" d="M454 787h193v103c1 11-8 26-29 45l9 12 81-36c5-1 7-2 8-4s1-4-2-6c-14-5-24-12-30-21v-93h106l31 39 66-49c5-3 8-6 7-8-1-1-5-2-12-2H684v-98h93l34 37 45-46c5-2 6-4 5-6-1-3-5-5-11-6l-18-9V512l4-128c-2-21-15-33-39-36v33H684V269h134l31 39 67-49c5-3 7-6 6-8-1-1-5-2-12-2H684v-73l3-55c1-22-14-36-47-43 3 25 6 73 7 144v27H506c-16 1-31-3-44-12l-33 32h218v112H534v-14c3-28-11-44-42-47 3 24 6 72 7 144v184c1 10-5 22-19 36l12 16 29-31h126v98H531c-17 1-32-4-44-13l-33 33M14 858l33-35h117l38 36 43-44c5-4 6-7 5-10s-4-6-11-7l-17-9V293l2-126c1-19-13-29-41-29v77H56v-68c3-24-13-38-46-43 3 24 6 72 7 143v563c-2 14-8 26-17 37l14 11M253 35l-27 39c3 1 8 3 14 6 51 21 87 35 107 42 6 3 12 4 18 5v344h-49c-12 1-24-3-36-12l-31 32h100l34 36 45-44c5-4 7-7 6-10s-4-5-10-6l-20-8V126c15-3 28-9 39-18 32-22 63-38 92-47 30-10 75-15 136-16 53-1 94-1 123 0 37 0 82 2 134 5V35c-43 0-67-12-74-35-104 1-178 3-221 7-32 3-63 8-93 17s-62 25-97 50c-35 24-66 33-92 26-27-7-59-29-98-65M56 512V235h127v277H56m0 291V530h127v273H56m591-281H534V397h113v125m37 0V397h113v125H684m-37 131H534V536h113v117m37 0V536h113v117H684M285 847l5 12c61-32 99-64 112-95 12-39 5-61-20-66-11 1-17 12-19 33-3 23-9 42-20 57-10 17-29 37-58 59Z"/></symbol><symbol id="𭧓_G" viewBox="0 0 1000 1000" data-size="21"><path transform="matrix(1 0 0 -1 22 978)" d="M0 331h195v185h-90v-20c2-23-14-37-47-41 3 39 5 87 5 142v255c-1 15-7 27-18 38l12 11 40-37h214l33 38 47-45c5-4 6-7 5-10s-4-6-11-7l-16-7V590l4-86c2-17-13-28-44-34v46h-91V331h99l34 41 65-48c7-5 10-8 9-10-2-2-8-3-19-2H238V82l2-36c1-22-16-36-51-41 3 39 5 79 6 122v185H76c-18 1-32-4-43-13L0 331m503 427 28-30h226l38 35 39-44c4-3 6-5 5-7s-5-4-11-5l-18-9v-67l6-51c1-21-15-31-46-31v32H546v-11c3-24-13-38-47-43 3 24 6 62 7 113v74c-2 12-7 23-16 34l13 10m20-362 48-33h145l29 33 52-41c5-7 2-13-9-16l-19-13V108c-1-24 10-38 34-41 11-4 30-5 55-4 33 1 50 24 51 68l3 82h14l3-66c1-37 10-56 26-57-11-34-36-53-74-56-30-4-65-3-106 2-33 9-50 31-49 65v242H578c4-85-7-154-33-206C517 80 450 34 344 0l-4 9c85 42 140 88 164 138 25 49 35 115 32 198-3 15-10 28-22 40l9 11M105 845V698h224v147H105m0-163V536h224v146H105m441 28V599h224v111H546m-80-178c-1-5-1-13-1-23-1-9-1-17-1-22h391l31 34 53-52c3-3 5-6 4-8s-3-2-8-1c-20 1-38-8-53-25l-51-61-12 7 42 86H462v-6c-5-43-19-72-44-85-13-7-22-4-29 8-8 11-6 22 5 32 15 12 25 23 31 34 13 19 21 46 24 82h17m-48 292h401l31 39 66-47c5-4 8-7 7-9-1-3-5-4-12-3H495c-19-1-34-5-44-13l-33 33m142 119 4 12c61-14 101-33 120-56 11-15 14-28 9-40-5-13-13-19-24-18-10 1-17 9-22 24-5 16-12 29-22 40-10 10-32 23-65 38Z"/></symbol><symbol id="𭧔_S" viewBox="0 0 1000 1000" data-size="21"><path transform="matrix(1 0 0 -1 34 967)" d="m491 84-1-14-2-13-5-13-6-11-8-12-11-7-12-7-12-4-14-3h-13v31L302 47v16h116l4 1 1 1 1 1 1 1 1 2 1 3 1 5v7h63M18 84l-6 20v2h-1v3l155 32 80 14 82 14 41 5 42 5 2-10-79-28L63 60l-16-5-7-20-14 13v1l-4 11v2l-1 1v8l-3 11v2m824-35-54 25-64 24-75 23-158 42V84h-63v240l63-11 16-10-16-9V177l33-2 48-3 44-6 43-6 39-8 39-7 35-8 35-10 60-21 17-17V64l-19-16-23 1M11 109l15-60-26 57 11 3m797 120-44 21-44 23-32 20v-4l49-41 1-17-21 10-11-4-60-13-20-4-21-5-63-13-22-3-23-4-2 9 77 42 96 43 14 6-88 61-41 34-39 35-38 37-21 23-43-44-39-35-43-33-46-32-49-32-52-30-2-1h1l25-4 22-3 20-4 19-4 16-5 16-5 13-6 12-7 12-8 7-23-11-21-22-7-23 10-1 4-4 7-8 7-10 8-13 8-32 18-42 21-14 6-37-20-60-26-62-26-4 9 112 67 52 35 48 34 45 34 41 34 38 35 35 35 31 37 29 36 2 3 47-42 6-18-20 3-2-4 111-76 42-27 86-47 42-21 43-18 43-17 81-27-60-52-45 18M38 914l64-32h154l31 26 59-47-27-21V484l-63-31v53H102v-64l-64-31v503m810-351-26 19-22 22-23 23-19 24-19 27-16 28-15 31-2 4V514l-62-32v228l-30-40-24-26-26-25-28-21-28-20-32-15-33-13-4 8 51 43 25 22 21 24 21 25 18 27 18 29 29 61 5 11H452v21h192v114l62-11 17-11-17-10v-82h76l53 52 63-52v-21H706v-8l48-64 20-24 21-20 20-20 22-17 22-15 24-14 50-25-60-48-25 18M256 688H102V526h154v162m0 173H102V710h154v151Z"/></symbol><symbol id="𭧕_S" viewBox="0 0 1000 1000" data-size="21"><path transform="matrix(1 0 0 -1 46 965)" d="M759 335v150H646V320h92l7 1h4l4 2 1 1 2 1 1 2 1 4 1 4M667 65l-14 1-12 2-13 5-13 6-10 9-8 11-7 11-4 13-3 14v12h63v-5l1-5 1-5 2-2 2-1 3-1 5-1h153l32 131h9l-9-131 18-13 13-19-13-19-18-13H667M0 801l63-32h105l31 26 58-47-27-21V195l-62-31v63H63v-63L0 132v669m168-306H63V248h105v247m338-10h-93l-9-29-12-35-5-12 19-19 20-25 17-27 17-30 7-16-1-12 8 24 14 60 11 65 7 56m-249 82 42-46-23-8-22 9-7 23 10 22m-89 181H63V516h105v232m165-77 1-15v-23l-2-24-3-20-4-20-6-17-9-17-11-14-11 11-2 3-3 2-6 7-1 1-1 2-4 5-2 2-8 9-2 1-2 3 7 4 7 7 7 11 7 14 7 15 6 20 5 22 6 25 4 27 3 29 10 1 3-31 2-20h487l33 27 57-47-26-16-17-7-26-37-22-27-24-28-12-16-8 4 8 19 11 35 6 16 5 16 9 28 3 13H333m311 260 62-11 16-10-16-10v-60h68l53 52 63-52v-22H706v-67l-62-31v98H502v-67l-63-31v98H255v22h184v91l63-11 16-10-16-10v-60h142v91m178-589-1-14-3-13-4-12-5-12-9-11-11-9-12-6-12-4-14-2-13-1v31l-92 14V149h-63v328l-13-7-5-3-6-48-16-67-20-64-23-59-27-51-32-48-35-41-38-36-44-30-46-23-5 9 40 30 36 34 31 37 28 42 26 46 21 51 6 17-15-13-24 3-15 17-3 16-3 15-10 44-14 41-16-34-17-29-18-26-20-23-23-19-7 6 26 51 11 28 11 29 11 30 10 34 9 35 7 37 7 39 5 41 3 11 60-21 13-14-17-6-13-52h89l31 26 44-36v41l63-31h113l31 26 58-47-26-21V342Z"/></symbol><symbol id="𭧖_S" viewBox="0 0 1000 1000" data-size="21"><path transform="matrix(1 0 0 -1 47 961)" d="m771 28-53 40-30 18-32 17-20 9-28-21-48-28-56-21-63-17-69-11-77-6-1 9 74 16 67 20 57 21 50 26 40 27 6 5-39 14-70 23-19-42-70-1 78 167H265v21h212l41 86 52-36 10-15-19-4-14-31h243l53 53 62-53v-21H730l-5-42-17-48-25-43-14-14 41-16 34-17 32-17 32-20 28-21 11-23-8-22-22-10-22 7-24 21M0 835l63-31h107l32 26 58-48-27-20V158l-63-31v62H63v-62L0 96v739m668-542H537l-53-112 29-2 43-5 41-8 20-6 22 29 17 36 10 38 2 30M170 495H63V211h107v284m248-95v-15l-63-31v207l63-32h136v86H439v-15l-63-32v156h-96v20h96v139l63-31h115v71l62-10 17-11-17-9v-41h114l32 26 57-48-25-20v-66h21l33 37 42-37v-20h-96V605l-64-32v42H616v-86h132l31 27 58-48-26-21v-97l-63-32v42H418m136 108H418v-87h136v87m194 0H616v-87h132v87M170 782H63V516h107v266m384-58H439v-87h115v87m176 0H616v-87h114v87M554 830H439v-86h115v86m176 0H616v-86h114v86Z"/></symbol><symbol id="𭧗_G" viewBox="0 0 1000 1000" data-size="21"><path transform="matrix(1 0 0 -1 26 975)" d="m47 898 41-40h252l31 39 51-48c5-3 6-7 5-10s-4-5-11-6l-17-10V624l4-64c1-15-3-25-11-31s-19-10-34-12v45H95v-16c1-13-3-23-12-29-9-7-21-11-36-14 3 19 5 65 7 138v205c1 11-5 23-19 37l12 15m352-501 60-36c11-7 13-12 7-14-12 2-24-1-37-10-34-43-73-87-116-130v-90l144 26 4-16-270-60c-43-9-75-18-97-26-23-7-40-19-49-38L0 63l150 26v367c1 9-7 23-25 41l8 10 74-33c12-3 15-7 10-11-14-3-24-9-30-17V95l89 15v344c1 9-9 23-29 41l12 10 74-33c9-3 11-7 6-11-11-3-20-9-26-17V233l32 47c29 42 47 70 52 83 1 8-1 17-6 27l8 7M95 702V582h263v120H95m263 136H95V718h263v120M3 380l10 8c32-31 54-54 66-71 17-25 28-44 33-59 6-19 7-34 3-46-4-13-12-19-24-17-11 1-17 12-18 35-1 21-8 44-20 70-11 24-28 51-50 80m729 262c-1 16-10 31-25 45l8 11 82-37c6-3 10-5 11-7 1-3 0-5-4-7-9-2-18-7-29-16V511h58l31 38 67-49c5-3 8-5 7-7-1-1-6-2-13-2H775V87c-1-23-7-40-17-52-9-13-36-24-80-35-2 21-10 35-25 41-15 7-43 15-85 26l4 17 41-9c46-11 77-13 93-6 17 6 26 23 26 51v371H520c-17 1-32-4-44-13l-33 33h289v131m214 116c1-3 1-6 0-7-2-1-5-1-9 0-23 2-44-10-62-37l-48-60-14 7 51 100H503c1-9 1-18 1-26 1-50-10-79-32-88-14-6-24-4-30 6-7 9-5 20 5 32 11 12 18 24 22 37s9 44 14 92h16c1-12 2-23 3-33h354l31 34 59-57M508 419l10 12c46-31 76-57 91-76 16-22 25-40 27-54 6-37-2-56-25-58-11 1-18 12-20 33s-7 41-16 59c-7 15-29 43-67 84m94 519 9 11c64-27 101-55 111-82 15-33 11-53-13-59-12-1-20 7-24 25-3 15-10 32-21 50-9 12-29 30-62 55Z"/></symbol><symbol id="𭧘_K" viewBox="0 0 1000 1000" data-size="21"><path transform="matrix(1 0 0 -1 70 947)" d="M239 775c4-5 6-10 6-14 0-5-6-10-18-15V249c0-29-1-44-1-46-3-6-10-12-22-16-4-2-8-2-11-2-9 0-13 14-9 42H46c0-22 0-34-1-36-2-5-10-11-23-15-6-2-11-3-13-3-5 0-7 4-8 12 1-12 1 2 1 42L0 809l41-24h132l13 11c7 8 12 13 13 13 2 0 7-4 15-12l25-22m-55-264v254H46V511h138m0-263v242H46V248h138m667 176-7-20H377v-83h408l11 16c4 7 8 11 12 11 2 0 8-4 16-12l26-24c6-7 9-12 9-16 0-7-9-14-28-20-10-80-22-140-36-180-16-46-38-74-66-83l-25-8c-10-3-17-5-21-5-7 0-11 6-12 17-1 10-7 18-16 22l-62 17 2 14 72-10c8-2 15-2 22-2 30 0 52 18 68 53 17 39 29 103 36 190H377c0-26 0-38 1-34-1-5-9-9-24-12-7-2-12-3-14-3-3 0-6 2-7 5-1 2-1 9 0 19 1 16 1 29 1 38v426l-7 45 55-18h139l44 127 43-12c19-5 28-10 28-17 0-8-14-14-40-18l-51-80h150l17 20c5 6 9 9 11 9 3 0 8-3 16-10l20-16c9-8 13-14 13-19 0-6-6-12-20-20V555c0-10 0-20 1-31 1-10 1-16 1-17 0-10-8-17-23-23-7-2-13-3-16-3-4 0-6 3-7 7v23H377v-86h394l9 20c7 13 12 19 15 19s11-5 24-16l32-24M750 172c3-21-1-31-14-31-6 0-12 5-18 14-9 27-32 51-68 73l7 10c55-19 86-41 93-66m-124-27c3-23-2-34-15-34-7 0-14 7-19 22-11 33-31 63-61 90l9 9c54-30 83-59 86-87m-132-32c1-28-7-42-24-42-11 0-17 10-19 30 1 15-2 34-10 56-7 23-16 42-28 57l10 9c45-39 69-75 71-110m-153 97c-4-79-17-135-40-169-8-14-17-20-27-20-11 0-17 8-17 26 0 4 0 10 2 16 5 13 13 25 24 37s19 23 25 32c7 18 13 44 17 78h16m367 435v101H377V645h331m0-114v93H377v-93h331Z"/></symbol><symbol id="𭧙_K" viewBox="0 0 1000 1000" data-size="21"><path transform="matrix(1 0 0 -1 63 943)" d="m602 889 59-19c18-4 24-10 16-16-4-4-13-8-26-13l-2-1V705h99l27 43 54-40c7-6 10-10 7-14s-9-6-18-6H648V519h123l29 45 58-42c8-6 10-11 7-14-2-4-8-6-17-6H467l-61-3-10 22 58-2h154v169H488c-12-22-24-44-36-64-14-22-28-42-41-61l-11 7c25 41 46 87 64 137 16 46 30 97 42 154l41-18c17-7 25-14 23-19-2-4-12-8-31-11-6-17-12-34-18-50-9-20-17-40-26-59h113v135l-6 50m-89-701h220v196H513V188m-45 242 46-30h205l27 30 36-32c13-13 17-22 11-27-3-4-10-6-20-6V170c1-12 1-21-1-25-3-8-9-13-18-16-11-3-17-2-19 3-2 3-2 11-2 24l1 15H513v-19c0-11-1-18-2-21-2-5-7-9-14-12-12-4-19-4-22 1-3 3-4 11-3 23l1 9v207l-5 71M280 868c28-15 46-27 57-37 19-17 29-36 30-58 0-16-4-26-13-28s-16 5-22 22c-8 19-18 36-29 51-8 10-22 25-42 46l-1 1 5 11 15-8m-55-193c40-14 69-29 88-44 17-15 26-34 27-56 0-13-3-21-10-25-6-4-13 1-21 16-8 13-18 29-32 46-17 20-35 38-56 55l4 8m16-270h71l24 43 41-38c12-12 16-22 12-28-4-5-13-8-30-9V150c1-4 6-11 14-21 12-12 27-24 46-34 25-13 48-23 70-31 40-9 85-13 135-13 16 0 46 3 90 9 44 5 97 14 157 27l4-12c-17-10-29-21-37-32-5-8-10-18-13-29-135-9-232-6-291 9-90 19-156 59-198 121L237 42v-3c3-18 4-29 2-33-2-6-10 0-24 17l-28 37 133 97v231h-68l-55-3-6 21 50-1m-30 394c12-7 17-14 13-20-3-4-11-9-24-15V285l2-30c1-10 1-16-1-20s-8-9-17-14c-13-5-21-6-24-3-2 2-2 10-2 23l1 26H45v-37l1-23c1-10 1-16-1-19-2-6-8-11-18-15-13-6-21-7-24-2-2 3-3 14-3 32l1 17v559l-1 50 52-33h98l21 31 40-28m-53-20H45V542h113v237m0-253H45V281h113v245Z"/></symbol><symbol id="𭧚_G" viewBox="0 0 1000 1000" data-size="21"><path transform="matrix(1 0 0 -1 20 972)" d="m593 420-32 33h135c2 36 3 75 3 118v130h-44c-12 1-23-2-34-11l-31 31h109v179c-3 12-11 23-24 33l8 11 73-28c7-3 12-5 13-7s0-4-5-7c-10-4-18-9-24-14V721h72l29 36 46-39c5-4 7-7 6-10s-4-4-10-5l-18-13V453h20l21 30 47-40c5-3 6-6 5-8-1-1-4-2-11-2H761c16-103 46-195 90-277 11-21 28-45 52-70 1-2 2-3 3-4 3-2 7-5 12-9 15-13 29-20 41-23l-2-13c-13 3-26 4-38 3-9-1-19-8-30-21-87 108-136 246-148 414h-6C724 239 661 95 544 0l-8 11c96 107 149 247 158 422h-58c-16 0-30-4-43-13M73 911l32-36h190l25 29 48-34c4-5 6-8 5-11s-5-6-11-7l-16-10V657l5-54c-1-11-5-19-11-24-7-5-17-9-32-11v38H114v-14c0-14-4-23-11-26-7-4-18-7-34-10 3 24 5 64 7 119v187c-2 15-8 27-18 38l15 11m100-384c-9-1-17-7-23-16-9-23-19-46-30-67h191l25 38 47-35c6-4 9-8 9-11s-3-6-9-8l-18-12v-84c0-79-2-135-7-166-3-33-11-64-24-93-12-17-28-31-47-41-14-7-33-12-57-15 1 12-3 23-12 33-17 11-39 20-66 27l2 16c14-4 37-9 68-16 7-2 13-3 17-4 36-3 59 13 70 48 12 31 18 102 17 213v92h-42C261 263 179 141 39 60l-9 13c118 90 189 208 214 353h-42c-31-110-91-194-180-251l-8 12c75 69 125 148 148 239h-51C82 375 48 329 9 290l-9 10c44 61 80 127 107 200 7 21 10 34 8 38-1 1-2 4-5 9-1 3-2 5-3 6l7 7 62-24c3-5 2-8-3-9m284 414 82-36c5-1 7-3 8-5 1-1 1-3-2-5-14-6-24-13-29-21V716c35-20 61-40 76-61 17-21 26-42 25-63 0-21-7-32-20-35s-20 7-21 29c-1 21-7 42-18 61-7 15-21 31-42 49V144l4-94c1-24-15-39-49-45 4 37 6 99 6 184v695c1 10-8 25-28 45l8 12m283-367c0-44-1-84-4-121h90v248h-86V574M114 734V626h194v108H114m0 121V750h194v105H114m313-172c9-71 8-125-5-164-6-17-16-30-29-37-14-7-25-5-32 5-5 11-2 23 10 37 13 15 23 35 30 59 6 25 10 58 13 100h13Z"/></symbol><symbol id="𭧛_J" viewBox="0 0 1000 1000" data-size="21"><path transform="matrix(1 0 0 -1 61 941)" d="M565 465v-76h180l32 38c36-29 54-48 54-57 0-5-2-8-6-11l-22-17V124h-52v30H565V89c0-17 5-27 14-31 13-6 44-8 94-8 44 0 80 1 106 5 15 2 26 9 33 23 7 16 12 44 15 85l24-9c0-42 2-67 6-75 4-9 11-13 21-13-3-28-13-46-32-53-23-9-75-13-156-13-88 0-141 6-156 17-14 11-21 32-21 65v72H337v-46h-50v311c25-10 46-20 62-30h164v76H366v-31h-50v186c-22-24-46-47-73-70l-18 17c82 86 144 192 185 316 55-11 82-22 82-35 0-7-13-13-40-18-2-5-6-12-10-20-5-11-8-16-9-18h155l33 41c39-34 59-56 59-67 0-4-4-8-13-11l-25-7c-16-18-41-40-73-67h156l35 46c37-31 55-51 55-60 0-5-3-9-9-13l-22-16V436h-50v29H565m0 25h169v72H565v-72m0 97h169v69H565v-69m-199-97h147v72H366v-72m0 97h147v69H366v-69m199-300h186v77H565v-77m0-25v-83h186v83H565m-52-83v83H337v-83h176m0 108v77H337v-77h176m25 394c20 28 37 57 49 86H420c-23-39-41-67-53-83l6-3h165M66 771h82l38 45c37-31 56-51 56-61 0-5-2-9-8-12l-22-15V124h-55v55H56V83H0v720c24-10 46-21 66-32m-10-25V498h101v248H56m101-542v269H56V204h101Z"/></symbol><symbol id="𭧜_S" viewBox="0 0 1000 1000" data-size="21"><path transform="matrix(1 0 0 -1 37 963)" d="m833 64-63 45-30 26-28 25-26 28-26 30-23 31-21 33-4 8V31L550 0v254l-42-52-30-31-33-28-34-27-36-24-38-22-41-18-42-15-4 9 72 49 33 25 31 26 29 29 27 30 26 30 22 34 21 34 6 10H271v21h279v119l62-11 16-10-16-9v-89h163l52 53 64-53v-21H615l45-44 56-49 57-43 61-38 32-17 61-29-60-48-34 19M0 784l63-31h106l32 26 58-48-27-20V157l-63-32v53H63v-63L0 83v701m169-321H63V199h106v264m646 464 63-10 16-11-16-10V482l-1-12-2-14-4-13-7-11-9-11-10-9-12-7-13-4-13-2-13-1v32l-63 15v16h63l6 1 5 1 5 2 2 2 1 1v4l1 5 1 5v445M552 537l-18 35-10 17-22 31-13 15-23 25V433l-63-32v180l-18-28-20-29-21-27-24-26-25-25-27-22-7 7 54 86 16 28 28 59 12 30 11 30 10 31 3 15H265v21h138v91l-29-6-33-5-36-5-37-5-2 10 184 71 71 30 15 7 4 2 4-9 45-40v-16l-21 8-5-2-45-13-26-7-26-6V731h42l53 53 62-53v-21H466v-29l24-12 20-10 17-13 18-13 31-30 28-37 12-19 1-25-15-17-24-2-18 17-8 17M169 731H63V484h106v247m486 152 63-11 15-10-15-9V534l-63-31v380Z"/></symbol><symbol id="𭧝_S" viewBox="0 0 1000 1000" data-size="21"><path transform="matrix(1 0 0 -1 42 959)" d="m78 424 64-31h235l31 26 59-48-27-20V47l-63-31v52H142V31L78 0v424M766 99l58-22-5-13-6-10-8-11-9-10-11-8-11-6-11-5-13-3-14-3-12-1v32L618 55v15h112l6 1 6 2 4 2 4 2 3 3 4 3 3 5 6 11m58-22-58 22 5 16 5 20 5 23 4 28 5 29 7 71 4 41 4 79H649l-8-66-67-23 35 273h-76v21h79l27 210h-91v21h213l52 53 63-53v-21H703l-27-210h124l53 52 62-52v-21H673l-22-163h155l31 26 58-47-27-15-1-1-1-23-3-45-3-41-4-39-3-35-5-32-5-29-6-26-6-23-7-20M377 225H142V89h235v136m0 146H142V245h235v126M105 799H81l-9-24-9-20-10-19-11-17-13-16-12-15-8 6 6 17 8 37 5 20 7 42 3 22 3 24 2 25 1 20 2 17 61-19 14-11-17-9-8-33-7-25v-2h71l43 47 52-47v-20h-86V673l-1-11h22l33 37 42-37v-20h-99v-10l-6-40-1-5 23-17 24-21 22-24 18-23 9-13 1-23-17-19-23-1-19 17-3 12-8 25-12 25-14 27-7 12-3-8-10-34-15-30-19-28-20-25-23-20-26-16-28-11-5 7 21 20 19 20 16 23 13 23 11 26 9 27 7 29 4 34 2 35v6H0v20h105v137m172 62 64-31h107l32 26 58-47-26-21V477l-64-32v63H341v-36l-64-33v422m171-52H341V529h107v280Z"/></symbol><symbol id="𭧞_S" viewBox="0 0 1000 1000" data-size="21"><path transform="matrix(1 0 0 -1 53 965)" d="m788 646 58-48-26-21V436l-63-32v52H614V341h192l31 26 58-47-26-16-3-1-1-7-6-57-4-26-3-23-4-21-4-20-5-16-5-17-6-13-2 1-28 12-27 13 3 10 4 10 8 33 4 19 7 46 6 55 2 18H614V31L551 0v233l-25-34-28-35-30-32-32-30-35-28-35-23-38-22-40-17-5 8 34 26 32 27 31 29 28 29 28 31 24 32 23 35 22 37 19 38 8 16H382l-6-41-66-21 38 256 50-36h153v120H327v21h430l31 27m-17-517 57-26-6-12-7-11-8-10-10-9-10-7-12-6-11-5-12-4-14-2-12-1v31l-53 17v16h59l6 1 6 2 5 1 4 2 4 3 4 4 4 4 6 12M0 837l63-31h131l33 26 57-48-26-20V160l-64-31v62H63v-62L0 98v739m194-340H63V213h131v284m357-41H403l-18-115h166v115m206 142H614V478h143v120M194 784H63V518h131v266m265-84-3 12-3 12-4 11-11 24-15 24-10 13-8 7h-7l-7-17-15-27-16-28-17-25-20-25-21-23-24-20-7 6 29 53 25 53 11 27 10 28 8 28 7 28 6 30 7 40 60-22 13-13-18-7-13-43-9-22h101l43 47 53-47v-21H428l9-5 13-8 13-9 12-10 21-23 18-26 7-14-3-23-18-17-24 3-16 18-1 11m275 0-2 12-3 12-4 11-5 12-7 12-15 24-9 13-7 7h-9l-21-38-16-25-18-24-19-22-22-19-22-18-7 6 28 49 25 48 11 25 9 26 9 26 8 27 6 29 4 28 2 10 60-23 14-12-20-7-13-41-9-24h105l43 47 53-47v-21H703l9-5 14-8 12-9 13-10 11-12 9-11 10-13 8-13 7-14-2-23-19-17-23 3-16 18-2 11Z"/></symbol><symbol id="𭧟_J" viewBox="0 0 1000 1000" data-size="21"><path transform="matrix(1 0 0 -1 33 947)" d="M140 290v-31H86v215c19-8 38-17 56-28h254l33 38c37-28 56-45 56-51 0-4-3-8-9-13l-21-17V263h-54v27H300V74c0-49-29-74-89-74-2 21-12 35-29 43-9 4-31 8-65 14v25c39-4 72-6 98-6 20 0 29 9 29 28v186H140m0 25h261v106H140V315m-8 311v-35H78v287c29-11 49-21 62-27h260l38 43c36-28 54-46 54-54 0-5-3-9-10-14l-19-15V596h-55v30H298v-89h151l48 57c18-16 38-35 61-58 26 102 46 220 60 354 60-8 90-20 90-35 0-9-13-17-40-23-4-35-10-72-18-110h104l36 48c37-35 55-59 55-69 0-4-2-7-6-10l-26-18c-14-95-31-180-53-255 40-140 98-252 175-338-22-17-39-36-52-57-59 88-105 205-137 351C691 213 598 89 468 1l-12 22c92 80 163 180 213 302 41 99 71 223 91 372H646c-29-143-75-265-137-366l-20 15c25 52 45 108 61 166H19L8 537h236v89H132m0 127h276v73H132v-73m0-25v-77h276v77H132M463 86c-14 0-24 8-29 23-17 45-48 87-93 126l12 17c96-44 144-87 144-129 0-25-11-37-34-37M17 37 0 53c48 51 84 116 110 195 53-21 79-38 79-51 0-9-13-13-39-13C119 127 74 78 17 37Z"/></symbol><symbol id="𭧠_J" viewBox="0 0 1000 1000" data-size="21"><path transform="matrix(1 0 0 -1 57 949)" d="M623 418c19-57 44-108 74-152 30 35 56 74 78 116 45-24 68-41 68-52 0-7-8-11-22-11-7 0-12 0-17 1-22-22-52-46-91-74 40-48 98-90 173-127-21-18-36-36-45-56-113 69-189 173-230 312V74c0-49-30-74-89-74 0 27-27 47-80 58v25c24-4 53-6 86-6 19 0 29 8 29 24v317H409l-12 25h160v84H364v-46c0-207-51-367-152-480l-19 15c77 116 115 272 115 467v324c19-6 42-16 67-29h173v121c65-1 98-9 98-23 0-9-14-18-42-28v-70h164l46 59c25-23 46-45 62-66l-8-18H364V552h193v81H416l-11 25h152v91c60-5 90-15 90-29 0-7-12-14-36-21v-41h103l32 39c38-27 57-46 57-56 0-3-2-5-6-8l-22-14v-67h26l35 53c18-19 33-39 46-60l-9-18h-98V389h-53v29h-99m99 25v84H611v-84h111m0 109v81H611v-81h111M55 212V102H0v733c29-13 51-24 65-33h96l34 46c35-31 52-51 52-60 0-3-2-6-5-9l-19-17V137h-53v75H55m0 25h115v269H55V237m0 294h115v246H55V531M379 73c-11 0-27 23-50 70 65 22 132 53 201 94l11-23c-58-47-107-82-147-105-2-24-7-36-15-36m102 173c-13 0-22 10-27 30-9 32-31 62-66 92l12 16c39-16 68-34 88-54 17-17 25-34 25-50 0-23-11-34-32-34Z"/></symbol><symbol id="𭧡_S" viewBox="0 0 1000 1000" data-size="21"><path transform="matrix(1 0 0 -1 57 967)" d="m197 455 64-31h361l32 26 58-47-26-21V31L622 0v31H261L197 0v455m425-232H261V53h361v170m0 180H261V244h361v159M12 520l-1 2v1l-1 2 48 7 55 88 23 40-20-4-20 13-5 12-13 22-15 23-17 21-21 23-11 9 5 9 13-7 16-5 15-6 5-3 7 10 28 64 15 43 8 21-1 1 5 11 55-33 9-17-22-2-35-46-36-38-14-11-8-9 10-6 25-19 24-20 10-11 3-15 22 46 12 30 13 37 56-31 11-15-20-3-22-42-35-60-21-28-44-54-24-26-8-7 61 9 22 2 21 3 17 1-5 13-14 37-5 12-7 11 7 6 10-9 11-8 12-9 9-9 11-11 18-23 9-12 14-27-2-24-17-16-25 2-15 18-2 13-3 12-1 4-34-15-66-24-72-23-8-19-14 13-2 5v2l-2 14v1l-2 9v1l-2 5v3l-1 1v1l-2 10v4m399 400h-1l3 15 60-24 13-13-24-8-15-26-11-18-13-17h97l31 25 57-46-26-21V501l-62-32v42H363v-16l-63-31v396l63-31h47l1 2v89M10 525l13-61-23 59 10 2m605 15-1 4v1l47 7 56 86 16 28 6 10-19-4-21 13-5 11-6 11-13 22-8 11-27 33-11 11-12 10 5 8 14-7 15-5 15-6 7-4 7 12 38 91 11 34v1l4 11 55-33 9-17-23-2-23-31-22-26-25-24-14-13-7-8 22-14 13-9 23-21 11-10 3-16 21 47 12 28 14 36 55-30 11-15-20-3-21-41-36-58-20-27-44-54-25-25-6-6 37 5 45 5 22 2 15 1-8 25-15 36-7 11 7 6 10-9 11-7 11-9 11-10 19-20 8-12 9-13 8-11 7-14-2-24-18-16-23 1-17 18-2 12-3 13-1 4-13-7-41-16-68-23-47-15-3-1-7-18-14 12-1 2v1l-2 9v1l-1 5v2l-3 13v1l-1 2v1l-1 3v5l-1 4v1l-1 1v2l-1 1v3m-1 5 12-60-22 58 10 2m-94 118H363V532h157v131m0 145H363V685h157v123Z"/></symbol><symbol id="𭧢_S" viewBox="0 0 1000 1000" data-size="21"><path transform="matrix(1 0 0 -1 43 967)" d="m212 241 59-22 13-14-20-7-3-10-10-20 7-10 22-19 33-18 41-16 55-12 22-3v187H26v21h777l43 48 52-48v-21H494v-84h204l53 53 63-53v-21H494V81l57-5 89-3 98-1 112 3 2-68H738l-101 4-91 8-80 11-69 15-57 18-46 25-34 27-22 31-9-13-20-25-24-22-27-22-31-19-32-18-37-14L18 0l-4 9 35 21 58 44 26 22 20 21 18 23 15 22 10 24 8 22 8 33M852 13l-1 6v44l-1 12 60 2-58-70v6M181 596l62-32h422l31 27 58-48-26-21V358l-63-32v32H243l-62-32v270m484-143H243v-74h422v74m0 90H243v-68h422v68m-650-7 29-57H21L2 493l-2 24 15 19m411 398v-64H26v-20h400v-53H194l-62 31V660l62 31h232v-55H104l-4 40-10-1-2-25-6-22-6-21-7-16-7-16-8-12-9-9-10-9-10-5-10-4 4-8 2-5 3-5 1-1 3-5 2-5 14-28 17 13 13 15 11 16 9 18 6 20 4 20 1 22v11h710l-34-55-21-32-13-15 7-7 16 13 45 32 45 38 28 11 26 15-58 48-24-20-2 2-2-5-4-3H488v55h232v-31l62 31v64l27 20-58 48-31-26H488v53h400v20l-53 48-43-48H488v33l16 9-16 11-62 11m0-159v-62H194v62h232m294 0v-62H488v62h232Z"/></symbol><symbol id="𭧣_S" viewBox="0 0 1000 1000" data-size="21"><path transform="matrix(1 0 0 -1 28 980)" d="m197 374 63-31h425l32 26 57-47-26-21V36L685 5v42H260V31L197 0v374m488-186H260V67h425v121m0 134H260V210h425v112M30 430l17-62-24 4-15 19 4 23 18 16m9-31 5-20v-1l3-9 20 9 18 10 17 11 13 13 12 15 9 14 6 17 3 17 1 16v17l-10 1-4-16-7-12-9-11-9-9-9-8-11-6-12-6-13-4-15-4-17-3v-3h1v-2l8-26m814 1-4 9-8 10-10 11-26 22-35 26-21 13-23 14 3 9 26-8 24-7 24-8 20-8 19-7 16-10 16-9 14-10 12-11 10-12 2-25-15-18-24-2-19 15-1 6m-270 14v6l-3 7-5 9-6 9-9 11-25 23-15 12-19 10 4 10 20-8 20-6 18-7 16-7 15-7 13-8 12-10 10-11 9-11 6-14-5-24-20-13-23 5-14 20 1 4m-258 8 62-12-13-20-23-5-21 13-5 24m-32 88 15-9 14-7 14-7 13-8 10-7 9-10 8-11 7-13 3-13 1-15-20 4-27 5-15 3 3 3 2 4 1 6-1 6-2 8-3 9-7 11-17 22-13 10 5 9m-37 247h1l-1-7h64l53 53 63-53v-21H252l-3-13-10-28 31-13 19-9 36-20 17-9 15-11 28-22 13-12 6-24-11-21-23-6-21 12-7 10-9 13-21 26-26 26-45 43-6 4-13-31-20-33-23-29-27-25-30-23-33-17-37-16-39-10-4 9 34 20 31 20 28 23 22 22 21 25 15 27 14 28 10 30 6 34H0v21h193l1 14v114H37v21h268l52 53 63-53v-21H258V761l-2-4m395 130H454v20h341l53 53 62-53v-20H714v-90l-3-34h62l52 52 64-52v-21H709l10-21 14-26 16-23 18-22 18-19 22-19 22-16 25-15 27-14 62-26-59-49-33 18-30 18-27 22-24 23-22 25-18 27-13 28-12 30-6 25-13-37-21-35-25-32-31-29-34-25-39-22-43-16-48-14-4 10 43 21 38 25 34 24 27 26 22 28 18 28 14 31 9 33 2 18H477v21h173l1 34v90Z"/></symbol><symbol id="𭧤_S" viewBox="0 0 1000 1000" data-size="21"><path transform="matrix(1 0 0 -1 53 955)" d="M275 430v21h256v95h-94v20h94v126l64-10 15-10-15-10v-96h15l34 38 42-38v-20h-91v-95h10l37 35 35 38 31 39 2 1 46-43 6-18-20 4-22-24-34-32h94l43 47 53-47v-21H662l-15-12 9-4 18-13 17-16 8-9 15-20 6-10-1-24-7-8h21l32 27 57-47-26-22V47l-63-31v51H505V31L441 0v280l-45-22-56-25-59-22-5 9 106 62 59 39v25l21-10 61 45 42 34 17 15H275m458-242H505V89h228v99M0 837l63-31h115l32 26 58-48-27-20V160l-63-31v62H63v-62L0 98v739m733-543H505v-84h228v84M178 497H63V213h115v284m492-183-9 10-3 20-5 19-2 10-9 28-4 9-42-33-47-32-46-30 2-1h165m135 220-30 21-27 21-25 24-46 50-21 28-18 29-17 30-12 29h-50l-16-31-28-44-31-42-34-39-37-36-41-33-43-30-48-27-5 8 40 34 38 36 35 37 31 38 28 39 26 41 22 44 3 5H297v21h211l8 18 16 48 14 48 2 8 58-25 12-14-18-5-11-33-21-45h178l53 53 62-53v-21H624l38-40 46-46 24-21 51-37 28-16 27-15 56-28-59-47-30 18M178 784H63V518h115v266Z"/></symbol><symbol id="𭧥_S" viewBox="0 0 1000 1000" data-size="21"><path transform="matrix(1 0 0 -1 59 963)" d="m802 21-12 12-14 13-16 12-39 23-23 13-52 24-30 13 2 9 32-4 32-5 28-7 25-7 26-9 22-8 21-11 19-11 18-12 16-13 8-24-11-21-22-8-21 11-9 10M488 158l41-49 2-18-19 6-20-12-44-23-50-22-57-21-32-9-35-9-3 10 109 64 44 29 36 27 15 14 13 13M0 834l63-31h128l32 26 57-48-26-20V157l-63-31v62H63v-62L0 95v739m366-291 64-31h294l31 26 58-48-26-20V182l-63-32v32H430v-16l-64-31v408m358-258H430v-82h294v82M191 494H63V210h128v284m533-106H430v-82h294v82m0 102H430v-81h294v81M191 781H63V515h128v266m478-11 58-10 14-11-14-9v-73h41l52 52 63-52v-21H727v-83l-58-30v113H483v-83l-57-30v113H270v21h156v103l57-10 15-11-15-10v-72h186v103M551 927l52-11 13-11-13-9v-65h119l52 53 63-53v-20H603v-78l-52-26v104H315v20h236v96Z"/></symbol><symbol id="𭧦_S" viewBox="0 0 1000 1000" data-size="21"><path transform="matrix(1 0 0 -1 31 961)" d="m408 523 53-47v-21H282V308h62l43 47 52-47v-21H282V138l63-20 80-16 94-11 106-5 120-1 134 6 3-70-136-1-124 3-110 10-97 16-83 21-71 29-57 34-42 41-26 46-1 7-9-34-14-40-15-38-19-34-20-31-25-27L7 0 0 7l18 28 15 30 15 32 12 33 10 37 9 38 6 41 5 44 2 48 1 50v11l62-13 16-11-17-10-2-31-6-50-5-24 14-31 30-35 34-25v286H20v21h345l43 47M882 23l-1 10v17l-1 15v16l-1 4v6l59 2-56-72v2M607 178l-1-14-2-13-4-12-6-12-10-11-10-9-12-6-13-4-13-2-13-1v31l-105 16v15h105l6 1 5 1 5 2 2 2 1 1v4l2 4v7h63m248-60-29 28-27 40-27 53-4 16-26-37-30-36-32-32-35-27-37-20-4 7 28 29 27 31 26 33 24 37 23 41 16 34-19 78-16 101-12 120v4h-94V451l80 39 5-8-48-44-37-29V178h-63v188l-41-25-23-13-1-1-4-20-16 9-5 12-4 10-1 3-6 13-1 1-5 14-1 2-1 3v1l43 17 66 29v197H437v22h107v150l-25-7-26-5-26-4-27-3-2 10 90 44 40 24 37 24 34 25 27-38 11-12 1-18-20 8-24-13-22-11-5-1V640h93l-6 111v171l63-14 15-11-15-8V753l6-113h36l53 52 63-52v-22H764l11-115 14-82 18 60 17 70 59-26 13-13-19-6-13-42-20-57-23-53-11-24 22-67 22-46 16-26 26 107h10l-10-130 24-15 7-23-13-21-23-5-36 14M435 375l24-59-34 55 10 4M69 894l64-33h215l31 27 58-47-27-22V563l-62-32v53H133v-37l-64-31v378m279-178H133V604h215v112m476 38-7 28-4 14-15 38-13 24-9 11 7 7 12-8 12-8 12-8 23-22 19-26 9-14 18-32-3-24-18-15-24 2-16 18-3 15m-476 87H133V737h215v104Z"/></symbol><symbol id="𭧧_K" viewBox="0 0 1000 1000" data-size="21"><path transform="matrix(1 0 0 -1 53 949)" d="M225 605h46v243l-4 47 56-17c20-5 26-11 16-18-7-4-16-8-28-10V605h28l31 40 49-40c8-5 10-10 7-14-3-3-9-5-19-5h-96V69l1-14c1-10 1-17-1-20-3-4-10-8-21-12-10-2-16-2-18 0-1 2-2 8-2 16l1 13v534h-32l-34-4-11 25 31-2m217 84 49-30h107v94H454l-62-4-11 26 58-3h159v85l-5 41 58-17c17-4 23-8 18-13-3-2-11-6-24-10l-6-3v-83h156l35 41 49-40c8-5 10-10 8-13-4-5-10-7-20-7H639v-94h90l28 29 38-31c16-13 21-22 15-28-4-3-12-5-26-5V396c1-9 1-15-1-19-2-5-9-9-19-14-11-2-17 0-20 4-2 3-2 10-2 21v12H639l1-8v-12c0-9 0-15-1-19-4-5-11-9-23-12-10-2-15-2-17 1-2 1-2 6-1 15v35H487v-15c0-9 0-16-2-20-1-4-6-9-13-12-13-4-21-4-26 1-2 3-2 10-2 22l1 10v252l-3 51m46-148h110v98H488v-98m254 98H639v-98h103v98M488 422h110v98H488v-98m254 98H639v-98h103v98M415 256h243v49l-4 67 48-18c20-9 28-15 25-20-3-3-11-5-25-8l-3-1v-69h107l31 39 49-35c8-7 10-13 7-16-3-5-9-8-18-8H699V77c0-21-8-38-22-50-15-12-37-21-69-27-1 16-7 27-19 35-13 9-29 16-49 22l-1 12c12-2 26-3 44-4 22-1 40-1 55-1 8 2 13 4 15 7 4 4 5 9 5 16v149H430l-63-4-11 27 59-3m25-35c20-13 39-31 57-53 21-25 32-48 34-66 0-18-6-28-16-30-12-2-21 6-26 24-2 12-7 27-13 44-10 22-23 46-41 71l5 10m247 670c32-13 56-23 70-33 18-12 29-26 33-43 1-13-2-21-9-23-7-3-15 4-24 19-9 10-19 21-30 32-15 15-30 27-45 38l5 10m-489-95c12-7 16-14 13-20-3-4-10-9-23-15V282l1-30c2-10 1-16-1-20-1-4-6-9-15-14-13-5-20-6-23-3-2 2-2 10-2 23l1 26H43v-36l1-24c1-10 1-16-1-19-2-6-8-11-18-15-11-6-19-7-22-2-2 3-3 14-3 32l1 17v559l-1 50 49-33h92l20 31 37-28m-50-24H43V539h105v233m0-254H43V284h105v234Z"/></symbol><symbol id="𭧨_K" viewBox="0 0 1000 1000" data-size="21"><path transform="matrix(1 0 0 -1 55 952)" d="m308 500 36-28h73l24 25 28-27c14-11 18-18 11-23-3-3-9-5-19-5V266c1-10 1-17-1-22-2-6-8-12-19-17-8-3-13-2-15 3-2 3-2 10-1 20l1 13h-81v-19c0-11 0-18-1-21-2-6-6-10-13-14-10-5-17-5-19 0-2 3-3 9-1 19l1 10v210l-4 52m37-221h81v177h-81V279M230 626l41-23h98v258l-2 42 51-14c16-5 23-9 22-13-2-4-13-10-34-19V603h93l27 29 32-29c11-12 16-19 14-24-1-6-10-9-28-9V113c1-25-3-44-12-57-11-14-29-25-55-33-4 17-10 29-20 37-8 6-29 14-61 24l3 10c17-2 31-3 43-4 17-1 31-2 44-3 7 0 12 2 16 6 3 4 5 10 6 19v475H271V56c1-11 1-19 0-23-4-7-11-12-22-15-8-2-13-2-15 2-2 2-3 8-1 16l1 11v522l-4 57m602 40 40-34c7-6 9-11 6-14-3-4-8-6-16-6h-46c6-4 9-8 8-13-2-5-10-7-23-7-9-79-21-146-34-202-13-59-30-110-50-154 22-36 47-68 76-96 28-28 61-51 98-72l-1-14c-13 2-25-1-36-7-10-6-18-15-23-26-26 27-50 55-71 85-22 32-41 64-58 98-23-41-50-78-83-111-32-32-70-63-116-93l-6 10c46 34 84 69 114 105 31 37 56 78 75 123-19 45-36 94-49 147-13 54-22 114-28 179-7-15-14-30-22-45l-24-42-9 7c23 49 43 104 58 167 18 71 31 152 40 244l43-14c13-4 20-9 21-14 0-5-8-9-25-12-10-48-19-88-28-122-9-39-19-74-30-105h168l31 38M325 827c13-7 19-13 19-18 0-6-9-9-27-10-24-54-46-99-68-135-22-37-47-70-74-100l-8 6c23 34 45 72 63 114 19 41 40 94 62 161l33-18m119-3c43-25 71-44 86-57 19-15 32-33 39-54 4-19 3-33-4-43s-16-6-26 15c-11 20-21 38-31 53-19 26-43 50-70 75l6 11m184-212-8-21c7-67 16-126 29-180 13-53 29-100 50-142 15 43 27 93 38 150 11 53 20 118 28 194l-3-1H628M188 803c11-7 15-14 12-19-2-4-10-10-22-15V296l2-30c1-10 1-17-1-20-2-4-7-9-16-14-12-5-18-6-20-3s-3 11-2 23l1 25H40v-36l1-23c1-9 0-16-1-19-2-4-8-9-18-14-10-6-17-7-20-2-1 3-2 14-2 32l1 16v553l-1 49 46-33h87l20 31 35-28m-47-19H40V549h101v235m0-250H40V292h101v242Z"/></symbol><symbol id="𭧩_J" viewBox="0 0 1000 1000" data-size="21"><path transform="matrix(1 0 0 -1 75 948)" d="M68 802h98l35 46c36-31 55-51 55-60 0-3-2-6-5-9l-20-17V137h-56v75H58V102H0v733c31-14 54-25 68-33m-10-25V531h117v246H58m0-540h117v269H58V237m447-12v68c58-1 87-9 87-22 0-8-10-15-31-21v-25h187l45 50c23-19 43-38 58-55l-10-20H561V0h-56v200H265l-11 25h251M395 789v107c61 0 91-7 91-21 0-7-12-15-36-25v-61h172v107c62 0 93-6 93-20 0-7-13-15-38-24v-63h68l43 58c22-21 43-41 61-63l-10-20H677V663h-55v101H450V663h-55v101H281l-10 25h124m111-192v123c60-2 90-10 90-24 0-7-12-15-36-24v-75h157l43 59c25-23 45-44 60-64l-10-20H295l-10 25h221m144-174c-28-54-64-96-107-126l-18 14c55 59 92 138 112 235 54-19 81-34 81-45 0-8-14-14-42-17-7-19-12-32-16-41 91-41 137-80 137-116 0-21-10-32-31-32-12 0-20 6-26 19-18 37-48 74-90 109m-248-7c-29-59-71-110-124-153l-20 16c67 73 111 162 134 267 53-16 80-30 80-43 0-9-13-14-40-16-7-19-13-36-19-49 71-30 106-61 106-92 0-21-10-32-30-32-12 0-21 8-27 24-11 28-31 54-60 78Z"/></symbol><symbol id="𭧪_G" viewBox="0 0 1000 1000" data-size="21"><path transform="matrix(1 0 0 -1 51 955)" d="m344 913 43-41h372l22 28 48-35c5-3 6-7 5-10s-4-5-11-6l-16-12V650l5-86c-1-12-5-20-13-24-11-5-21-7-31-7v43H603V447h152l27 35 64-45c5-3 7-6 6-8-1-1-5-2-12-2H603V286h200l27 34 63-44c5-3 6-6 5-8-1-1-4-2-11-2H369c-17 0-32-4-44-13l-34 33h271v141H397c-17 0-32-4-43-13l-34 33h242v129H395v-30c0-11-4-21-12-29-6-6-17-11-34-14 3 24 5 61 7 110v250c-3 13-10 27-21 42l9 8M14 867l37-45h143l34 40 46-48c5-4 6-7 5-10s-4-6-10-7l-17-7V271l4-66c5-26-10-40-44-42v86H56v-76c1-24-14-39-46-45 4 35 6 81 6 139v547c-2 16-7 30-16 41l14 12m381-15V596h167v256H395m373 0H603V596h165v256M56 529V269h156v260H56m0 273V547h156v255H56m684-609 6 10c45-25 78-51 101-77 22-26 34-51 35-74 0-22-6-35-18-38-13-3-20 5-22 24-2 20-10 43-23 70-11 23-38 52-79 85m-378 3h14c1-42-5-81-18-117-13-35-28-58-47-69-20-10-34-9-42 3-8 13-2 24 17 33 19 10 35 28 48 54 13 25 22 57 28 96m81-1 7 7c37-29 62-57 75-85 13-27 18-50 16-70-3-19-11-29-23-32-12-1-18 8-19 29 0 21-3 43-8 66-5 22-21 50-48 85m155 4 7 7c38-29 63-57 76-85 11-27 16-51 14-70-3-19-10-29-21-32-12-3-18 7-19 29 0 21-3 43-8 66-5 22-21 50-49 85m92 596 50-31c11-8 13-13 7-15-12 1-21-1-27-5-24-42-49-77-74-106l-12 7 26 46c21 49 30 74 29 75 0 7-2 15-6 24l7 5m-278-7 6 10c31-19 52-38 63-57 15-21 22-41 22-59 0-20-6-30-18-31-12-2-18 7-18 27-1 19-6 39-14 58-9 17-22 35-41 52Z"/></symbol><symbol id="𭧪_K" viewBox="0 0 1000 1000" data-size="21"><path transform="matrix(1 0 0 -1 74 903)" d="m4 718-4 63 51-28h111l37 28 36-28c15-13 21-23 16-28-3-5-13-8-29-8V202c0-12-1-19-2-23-4-5-11-9-22-14-11-2-19 0-22 5-2 3-2 11-1 23l1 16H49l1-47c0-17 0-29-1-33-2-5-9-10-20-14-13-4-22-4-25 2-1 3-2 9-1 20l1 10v571m45 17V494h127v241H49m0-258V225h127v252H49m794-213c9-6 12-10 9-13-4-3-10-5-20-5H347l-66-4-10 21 61-1h199v127H373l-66-3-12 20h237v109H368v-19c0-10 0-17-1-20-1-4-6-8-13-11-15-5-24-4-28 1-2 3-2 11-2 22l1 8v247l-3 66 47-26h345l26 26 39-28c17-12 21-21 14-27-5-4-12-6-23-6V501c-4-7-11-12-22-17-12-2-19-2-21 2s-3 10-2 19v10H572V406h136l37 38 50-36c8-6 10-11 7-14-3-4-9-5-20-5H573V262h181l38 40 51-38M833 54c-2-16-7-25-15-29-9-1-17 6-22 21-6 23-14 43-24 61-14 27-32 53-54 77l10 5c40-29 68-55 85-79 13-18 20-37 20-56m-160-2c-1-16-7-25-16-27-10 0-17 8-21 25-5 15-11 32-17 49-13 28-27 55-43 81l7 5c35-35 58-61 71-79s19-37 19-54M502 35c-8-15-16-21-23-18-9 2-14 13-17 33 0 14-1 29-3 45-3 23-9 51-20 86l11 4c23-32 39-61 48-87 10-27 11-48 4-63M335 188c1-27-3-56-10-86-7-29-17-54-30-75-8-15-17-24-28-25-12-2-18 8-17 30 0 9 2 16 5 22 2 3 6 8 14 13 12 13 21 26 27 38 12 21 20 49 26 83h13m197 343v111H368V531h164m0 127v110H368V658h164m40-127h153v111H572V531m153 127v110H578c13-4 18-9 15-14s-10-8-21-9v-87h153Z"/></symbol></svg>