<svg xmlns="http://www.w3.org/2000/svg"><symbol id="𮗉_S" viewBox="0 0 1000 1000" data-size="21"><path transform="matrix(1 0 0 -1 38 951)" d="m807 18-14 11-18 12-19 12-24 10-15 7-23-14-39-19-45-16-49-11-55-7-59-3-1 10 57 12 51 15 46 17 38 18 29 19-65 25-9-20-72-3 53 116H457v21h126l36 82 54-36 10-16-19-4-12-26h147l53 53 62-53v-21H813l-11-34-19-36-24-32-4-3 20-7 24-9 22-11 21-11 17-11 11-22-8-22-21-11-23 7-11 11m-465 9-14 11-15 10-18 11-21 10-13 6-25-16-39-20-42-16-48-11-50-8L1 0 0 10l53 13 48 16 42 17 37 19 31 21h1l-44 17-18 6-15-27-70 4 65 113H1v21h142l53 94 50-40 8-16-20-4-19-34h106l52 53 64-53v-21h-82l-12-34-20-35-23-32h-2l39-13 19-9 20-10 17-11 9-21-6-23-22-10-22 7-10 9m406 182H644l-36-77 9-1 36-5 35-6 11-3 20 23 15 26 12 28 2 15m-458 0h-87l-45-76 14-1 33-4 30-5 5-1 19 21 16 26 12 27 3 13M24 302l40-49-23-7-21 12-6 22 10 22m66 28 1-7v-11l-1-12-4-13-6-12-7-11-9-11-1 2-2 3-2 2-3 3v1l-1 1-2 2-1 2-6 5v1l-2 2-2 3-3 3v1l-2 2-2 3-1 1-2 2-1 1-3 4-1 1-2 2-1 2 8 4 7 4 12 8 5 4 4 6 3 7 3 7 2 10-2 8 9 4 4-10 2-2h124v62l64-11 15-9-15-10v-32h99l3 2 1 2 1-1 26 22 58-47-26-16-31-12-12-10-19-12-11-5-9-4-10-7-5 7 7 7 5 11 5 9 11 27 2 5H90m377-18 45-45-23-9-22 9-9 22 9 23m51 23 2-5 2-10 1-10v-11l-2-12-3-10-6-10-45 45h4l4 1 4 1 3 4 3 4 3 7 3 7 1 10 2 9-3 11 9 3 4-11 2-2h140v63l63-10 17-11-17-9v-33h126l4 3v2l2-1 26 23 58-48-27-16-27-11-19-18-18-15-9-6-7-9-7 5 4 9 6 23 3 10 6 19 2 9H518M386 667l26-40 1-10h395l44 47 51-47v-21H644l-10-32-26-32-21-16 31-5 47-9 44-9 41-12 40-11 17-17 1-24-17-18-23-1-36 15-80 26-44 13-47 11-38 7-49-15-66-15-76-12-85-8-97-5-107-2-1 10 106 11 95 14 84 15 72 16 31 10-132 21-39-36-66 25 92 85H1v21h307l53 50H137l-63-32v180l63-31h168v50H6v20h797l43 47 52-47v-20H600v-50h168l31 26 57-47-26-21v-75l-62-32v32H386m195-71H378l-67-62 36 1 59-2 57-4 37-3 9 3 36 22 23 20 12 20 1 5M305 763H137v-75h168v75m231 0H368v-75h168v75m232 0H600v-75h168v75m-232 71H368v-50h168v50Z"/></symbol><symbol id="𮗊_K" viewBox="0 0 1000 1000" data-size="21"><path transform="matrix(1 0 0 -1 60 936)" d="M531 513c8-7 12-13 12-16 0-1-7-6-22-14V307c-1-5-8-10-22-16-9-3-15-5-17-5-3 0-4 11-3 32H326c1-7 2-15 1-22-1-3-8-7-20-10-7-2-11-3-14-3-5 0-8 4-9 12v200l-4 43 52-20h14l31 78 41-11c8-4 13-8 13-12 0-7-11-13-32-17l-33-38h105l13 15c7 7 11 11 14 11-2 0 2-4 13-11l20-20m61-283-7-12H364c15-5 22-9 22-14 0-4-8-10-25-16l-9-30h132l16 14c4 4 7 6 8 6 2 0 6-4 13-11l20-21c8-9 12-15 12-19 0-6-11-9-32-11-9-54-35-89-76-104l-23-9c-9-2-14-3-18-3s-6 3-6 8v8c0 7-4 13-13 15l-59 17 4 12 77-11c48-7 75 23 80 89H345C312 70 266 24 206 1l-6 8c71 46 111 116 120 209H218v20h163v43l-1 32 38-6c18-3 27-7 27-13 0-5-7-12-22-23v-33h86l12 20c8 10 14 14 16 14 3 0 12-5 25-16l30-26M479 428v70H326v-70h153m0-90v70H326v-70h153M229 567c8-7 12-13 12-17 0-7-11-10-32-10-29-36-60-68-93-96-32-27-67-49-102-67l-5 10c60 39 122 106 185 202l35-22m7-143c11-7 17-12 17-16 0-7-9-11-27-11-4-3-11-11-19-22-8-10-15-18-19-23 4-5 6-9 6-12s-5-9-14-18V18c-2-5-10-10-25-15-5-2-9-3-12-3-4 0-7 2-7 5-1 2-1 8 0 16 0 11 1 19 1 24v248c-28-34-70-71-126-111l-9 10c43 34 86 80 130 140 30 43 54 81 69 113l35-21m636-5-7-16h-67c-14-98-41-179-82-243 51-58 106-95 165-110l-3-12c-19 1-32-4-40-14-8-9-13-14-16-14-4 0-11 2-21 8-43 35-80 74-110 116C646 82 587 38 512 2l-6 9c71 44 126 94 166 150-40 65-63 136-68 213-20-31-40-58-59-80l-11 8c50 75 91 165 122 269l36-15c18-7 27-14 27-19 0-7-12-12-36-16-16-38-32-71-47-98h146l22 31c5 8 9 12 10 12 3 0 10-4 20-12l38-35m-119-16H622c5-85 28-157 69-215 36 62 56 134 62 215m116 418-5-13H570v-80h164l10 15c7 7 11 11 13 11s7-4 14-11l21-19c7-7 10-12 10-16 0-3-6-9-17-17v-97c-1-4-8-8-19-15-8-3-14-4-17-4-4 0-6 2-7 5v20H109v-10c0-5 0-8-1-9-1-4-8-7-20-10-14-4-21-4-21 2 0 7 0 17-1 31v107l-3 41 48-24h184v80H0v20h771l25 34c4 6 7 9 9 9s7-3 14-10l50-40m-342-93v80H337v-80h190m0-109v89H337v-89h190m-232 89H109v-89h186v89m447 0H570v-89h172v89Z"/></symbol><symbol id="𮗋_S" viewBox="0 0 1000 1000" data-size="21"><path transform="matrix(1 0 0 -1 40 962)" d="m513 322 63-31h219l32 26 58-46-27-22V36L795 5v42H576V31L513 0v322M291 608l63-10 16-11-16-9v-52h28l33 37 42-37v-21H354v-77l-63-32v32h-24v-63h89l33 27 57-48-26-21v-96l-64-32v32h-89v-77h87l53 52 64-52v-21H267V37L204 6v123H0v21h204v77h-87l-63-32v201l63-31h87v63h-24l-64-32v109H18v21h98v82l64-10 15-11-15-9v-52h111v82m504-445H576V68h219v95m0 108H576v-86h219v86m-591 73h-87v-96h87v96m152 0h-89v-96h89v96m112 164v20h186v85l63-10 15-11-15-10v-54h67l53 53 62-53v-20H789l48-28 11-15-25-4-10-13-32-38-27-28-16-15-3-4h90l43 48 53-48v-20H450v20h271l7 12 31 70 11 28 6 22 1 5h-1l3 8H468m115-108-2 11-1 12-3 11-3 10-4 11-9 22-6 11-10 9 7 8 11-8 11-7 12-8 11-8 9-9 10-12 9-12 7-11 7-13 6-15-5-23-20-14-23 5-14 20v10M291 505H180v-56h111v56m538 419 63-52v-21H613v-69h153l31 27 58-48-26-21V635l-63-32v158H613V643l-62-32v52H367l-63-31v129H146V635l-63-32v210l63-31h158v69H31v21h745l53 52M551 761H367v-76h184v76m0 90H367v-69h184v69Z"/></symbol><symbol id="𮗌_K" viewBox="0 0 1000 1000" data-size="21"><path transform="matrix(1 0 0 -1 43 940)" d="M251 513v-57h44l35 37 48-35c8-8 10-14 7-18-4-3-11-5-20-5H251v-79h56l36 37 47-35c9-5 12-12 8-18-3-5-10-7-20-7H250v-68h113l33 27 41-35c9-13 13-21 10-25-2-4-13-6-31-6 0-83-10-138-30-164-22-37-56-57-102-60l-1 2c0 12-4 21-10 26-10 9-26 17-48 25v9c26-4 47-7 64-7 24 1 42 8 54 20 12 13 21 31 25 54 5 23 9 60 10 113H104v-8c2-9 2-16 0-19-3-6-12-10-26-13-9-2-14-2-15 0-2 2-2 7-1 16l1 15v312l-3 42 46-35h205l35 35 49-33c8-6 11-11 7-18-3-3-9-5-19-5H262c10-5 13-10 9-13-3-4-10-7-20-7M56 186c4-28 5-59 3-93-2-35-7-59-17-72-8-14-18-16-27-6C4 24 0 38 2 55c0 7 2 13 7 19l8 21 17 37c6 17 10 35 11 55l11-1m62 10c22-32 36-61 42-85 7-26 4-47-7-62-8-11-17-16-25-15-7 1-9 10-6 27 0 17-1 34-2 50-1 22-5 49-12 83l10 2m74 22c23-22 39-45 50-69 11-23 15-41 10-54s-11-21-21-25c-10-3-14 6-12 26-2 15-4 30-8 44-5 22-14 46-25 71l6 7m89 17c22-17 38-36 49-58 12-22 16-41 11-55-7-11-14-17-21-17s-10 8-10 22c-4 19-7 34-10 45-5 16-14 36-26 58l7 5m-72 221v77H104v-77h105m0-21H104v-79h105v79m0-102H104v-68h105v68m204 25 79-2h67c-2 3-2 7-2 13-4 15-9 31-17 48s-23 37-45 62l6 7c36-19 62-37 77-53s23-33 24-50c-2-13-7-21-15-27h103l61 143 39-23c20-13 27-22 23-29-1-3-13-4-33-4l-72-87h112l37 39 51-39c6-5 8-10 6-14-3-3-9-5-20-5h-69c5-6 6-10 3-13-2-2-10-5-21-7V94c0-30-8-51-25-65-12-11-35-21-68-29-5 20-13 34-24 40-11 7-34 14-69 22v12l49-4c21-2 40-3 56-3 13 1 22 3 26 7 5 4 8 12 9 23v240H503l-76-1-14 22m66-118-4 52 41-27h107l28 27 36-29c14-11 21-19 18-23-2-2-9-4-22-5l-5-1v-86c0-13-1-21-3-25-3-6-11-11-22-15-9-3-15-3-17 1-2 3-2 8-1 15l1 8H521V98c-3-6-9-10-18-14-13-3-21-3-24 2-1 4-1 13 0 27v127m42 5v-93h115v93H521M362 804v-47h177v64H379c3-2 3-5-1-8-3-4-8-7-16-9m177-147v79H362v-79h177m-222 0v79H149v-79h168m-168-21v-12c-2-6-8-11-18-17-5-3-10-6-14-7-3-1-7-1-12-1-2 0-4 2-4 6-1 2-1 6 0 12l2 13v105l-4 54 53-32h165v64H90l-65-2-3 25 67-3h702l39 39 46-36c7-9 9-15 7-18-3-3-10-5-19-5H599c4-3 5-6 2-9-3-5-8-9-16-11v-44h166l33 33 43-35c14-11 20-19 16-25-3-4-12-7-27-9v-74c2-10 2-16 0-19-2-4-7-8-17-11-13-4-22-5-26-4-2 1-2 4-2 8l1 4v11H149m623 21v79H585v-79h187M500 524h120v42l-6 47 68-16c19-4 24-10 15-18-7-5-17-9-29-12v-43h103l40 40 55-39c9-5 11-9 8-12-3-7-10-10-20-10H516l-68-5-10 27 62-1Z"/></symbol><symbol id="𮗍_K" viewBox="0 0 1000 1000" data-size="21"><path transform="matrix(1 0 0 -1 43 938)" d="M313 511h42l41 40 45-38c8-6 9-10 5-13-2-3-8-5-18-5H313V105c0-30-7-52-21-65-14-14-43-26-86-36-2 17-8 29-18 35-12 9-40 18-83 29l3 12c62-7 104-9 127-5 20 3 30 12 30 26v316c-42-66-85-124-128-174-44-48-88-87-131-116l-6 10c51 45 96 94 135 147 43 62 81 132 113 211H66l-48-3-6 21 35-3h53v308l-57-3-6 24 81-5h233l31 41 40-37c8-7 10-12 7-15-2-2-8-4-19-4h-80c6-2 8-6 5-9s-10-6-22-10V511m-48 308h-98c6-2 7-6 2-9-4-3-12-6-24-9V510h120v309m261-137h251v137H526V682m-50 184 52-31h238l32 29 41-27c17-12 22-22 16-27-3-3-14-5-31-6V371l1-20c2-10 2-16 0-19-2-5-10-9-21-13-13-2-21-2-25 2-2 3-2 9-1 18l1 10h-68c19-8 28-14 26-19-1-4-10-7-26-9V109c0-9 1-16 3-19 4-4 12-6 24-7 9-1 22-2 39-1 18 0 32 1 41 4 13 3 23 17 33 42 5 16 13 46 23 92l7 31 15-2-16-157c23-10 34-18 33-26-2-8-17-14-45-18-24-2-51-3-81-4s-54 0-73 2c-19 3-31 7-37 15-7 7-11 23-12 45v243H526v-15c2-8 2-13 0-17-2-5-8-9-17-13-16-4-26-4-30 2-1 2-2 10-1 22l1 13v452l-3 73m50-338h251v138H526V528m0-162h251v146H526V366m76-55c26-6 37-12 33-18-5-5-18-9-39-13-19-77-50-138-93-182S400 21 322 0l-5 13c67 30 118 67 154 111 36 45 64 112 87 200l44-13Z"/></symbol><symbol id="𮗎_S" viewBox="0 0 1000 1000" data-size="21"><path transform="matrix(1 0 0 -1 38 955)" d="m468 892 62-33h252l32 27 58-47-26-22V319l-64-32v64h-42V119h-62v232h-38l-6-46-11-52-15-47-19-43-23-39-27-34-30-31-34-25-38-19-41-15-4 9 35 22 31 26 26 27 25 30 19 32 17 37 13 40 9 43 7 47 3 38h-47v-64l-62-31v636m-274 18 64-11 15-10-15-9V679h78l53 52 63-52v-22H258V415h73l31 26 58-47-26-21V71l-63-31v31H121V34L58 3v443l63-31h73v242H0v22h194v231M762 35l-14 1-14 2-12 5-12 7-11 8-8 10-6 12-5 13-2 13v13h62v-6l1-5 2-4 2-2 5-2 5-1h107l31 130h10l-9-130 18-13 12-20-12-18-19-13H762M331 394H121V92h210v302m451 125H530V371h252v148m0 157H530V539h252v137m0 163H530V697h252v142Z"/></symbol><symbol id="𮗏_S" viewBox="0 0 1000 1000" data-size="21"><path transform="matrix(1 0 0 -1 38 969)" d="m180 581 62-31h442l31 26 57-47-26-21V180l-62-33v64H578V94h-62v117H385l22-10 12-14-21-6-6-15-22-31-28-29-33-24-38-20-43-19-49-16-54-12-59-9L1 0 0 9l62 16 56 17 50 19 44 19 38 20 30 22 26 24 19 23 14 24 6 18H242v-64l-62-31v465M600 9l-14 2-14 2-12 4-12 5-11 10-8 10-7 13-4 12-2 13v14h62v-7l1-5 2-5 2-2 2-1 3-1h5l7-1h263l31 131h10L894 72l18-12 13-19-13-20-18-12H600m84 310H242v-88h442v88m0 105H242v-84h442v84m0 105H242v-84h442v84M345 776l56-29 11-15-21-4-6-10-20-29-24-24-29-22-33-20-36-17-40-14-44-12-48-9-51-7-2 9 48 18 44 16 40 18 36 18 31 19 25 20 22 21 16 22 13 21 12 30m191-3 64-10 15-10-15-10v-48l-1-7 1-4v-3l1-5 1-1 2-2 3-2 6-1 7-1h207l25 89h10l-10-90 15-10 11-15-11-16-15-11H607l-12 2-12 4-12 6-10 8-9 10-7 10-5 13-3 13-1 13v78M59 730l28-56-24-1-18 15-2 24 16 18m2-3-2 3 10 4 10 5 10 7 8 8 8 11 7 11 7 15 6 17 6 18 2 21 10 1 3-37h300l20 12 38 27 53 40H341l1-2 1-19-21 8-13-8-34-17-37-16-18-7-20-7-20-5-20-5-4 8 18 11 32 24 58 46 39 37 21-28h256l6 5 9 10 3-3 17 15 58-47-27-17-62-26v2l-9-4-37-15-42-15-17-4h331l3 2 3 8 3-3 22 19 57-48-26-16-36-14-11-8-23-17-43-26-15-11-7 7 13 14 36 53 13 18H147v-4l-1-18-3-19-7-18-9-16-11-15-13-13-16-11-2 1-2 5v1l-1 2-1 2-20 40v1Z"/></symbol><symbol id="𮗐_K" viewBox="0 0 1000 1000" data-size="21"><path transform="matrix(1 0 0 -1 46 944)" d="M63 319h18v192l-4 56 47-23h96v177h-96c-14-38-27-70-39-96-17-39-36-74-56-105l-6 5c12 23 28 70 49 140 25 81 43 156 55 224l44-11c21-5 31-11 30-17 0-6-13-12-36-18l-13-40-21-67h209l43 44 60-42c8-5 10-9 7-12-2-4-8-5-17-5H258c17-6 26-12 24-18-1-4-7-7-18-9V544h60l38 43 56-41c8-5 10-10 7-13s-9-5-19-5H264V319h92l41 49 56-44c9-6 12-11 9-14-3-4-9-6-17-6H264V34c0-8 0-13-1-16-3-6-10-10-21-14s-18-4-20 0c-2 3-3 9-3 19l1 8v273H77l-64-3-13 22 63-4m157 209h-96V319h96v209m311 160h241v138H531V688m-51 185 53-31h228l32 29 41-27c17-13 22-22 17-28-4-2-15-4-32-5V378l1-21c2-9 2-15 0-18-2-5-9-9-21-13-13-2-21-2-25 2-2 3-2 9-1 18l1 9h-68c20-7 28-13 26-18-1-4-10-7-26-9V116c0-10 1-16 3-19 4-4 12-7 24-7 10-1 23-2 39-1 18 0 32 1 41 4 13 3 24 17 33 42 6 15 13 46 23 92l7 31 15-2-16-157c23-10 35-19 33-26-2-8-17-14-45-18-24-2-51-4-81-4-30-1-54 0-73 2s-31 7-37 14c-7 8-11 23-12 46v242H531v-14c2-8 2-14 0-17-2-5-8-10-17-13-16-4-26-4-30 2-2 2-2 10-2 22l2 13v452l-4 73m51-338h241v138H531V535m0-162h241v146H531V373m75-56c26-5 38-11 34-17-4-5-17-10-39-13-19-77-50-138-93-183-43-43-103-76-181-97l-5 13c67 29 118 67 154 111 35 45 64 112 87 200l43-14Z"/></symbol><symbol id="𮗑_G" viewBox="0 0 1000 1000" data-size="21"><path transform="matrix(1 0 0 -1 19 960)" d="m852 517 55-54c5-3 7-6 7-8s-2-4-7-5c-21 5-37 1-50-12-13-12-45-37-96-76 27-20 52-42 73-67 21-23 34-46 39-67 4-19 1-32-10-39s-24 5-39 38-37 65-66 94c-30 31-79 70-148 118l4 14c59-35 103-61 130-80 27 27 50 50 67 69 33 35 43 58 31 69l10 6M559 676V540h225v136H559M158 529V391h222v138H158m401 300V692h225v137H559M158 687V545h222v142H158m0 162V703h222v146H158m347 31 41-31h217l38 37 45-46c5-3 6-7 5-10s-5-5-11-6l-17-9V645l4-120c-1-21-15-31-43-32v27H559V234c41 17 90 41 149 74l11-14c-33-23-64-43-95-60-30-19-50-33-60-42-6-5-14-14-25-27-2-3-4-5-5-6l-45 49c11 4 21 12 31 25v596c-2 12-10 27-23 44l8 7m-395 39 43-50h210l35 40 50-48c5-4 6-8 5-11s-4-5-10-6l-18-9V484l6-109c4-27-13-41-51-43v39h-38V155c-1-38 4-61 15-69s31-13 58-16c25-3 111-5 256-6 92 1 151 3 176 7 33 5 51 18 54 39 5 31 9 84 12 157h15c2-67 3-111 3-131 0-19 10-34 31-44-17-34-44-53-79-57-19-5-86-7-200-8-156 0-256 3-299 10-63 9-92 47-87 116v218h-55c-9-85-21-150-37-195C176 91 107 32 0 0v13c83 41 137 96 163 166 15 34 27 98 34 192h-39v-15c1-24-16-39-52-45 3 25 6 65 7 118v438c-3 15-9 29-18 41l15 11Z"/></symbol><symbol id="𮗒_S" viewBox="0 0 1000 1000" data-size="21"><path transform="matrix(1 0 0 -1 35 953)" d="m496 892 63-33h234l32 27 58-47-27-22V319l-63-32v64h-36V119h-63v232h-32l-6-46-10-51-14-48-18-43-21-39-26-34-29-30-33-26-36-19-39-15-4 9 33 22 29 26 25 27 22 29 19 33 15 37 13 40 9 43 6 47 3 38h-41v-64l-63-31v636M16 60l-6 24 80 18 112 22v217H39v21h305l52 52 63-52v-21H265V136l49 10 101 16 53 7 3-10-196-61L46 29l-7-18-14 12-2 8-1 3v2l-2 9v2l-4 12v1m-6 24 15-61L0 82l10 2m768-49-13 1-13 2-13 5-11 7-11 8-9 10-7 12-4 13-3 13v13h63l1-6v-5l2-3 1-1 1-1v-1l2-1 4-1 3-1h98l30 130h11L900 99l18-13 13-20-13-18-19-13H778m15 484H559V371h234v148m-680-68-19 41-22 38-22 33-34 46-13 14 6 8 17-9 18-9 4 10 6 22 20 58 32 79-1 1 6 10 52-36 9-17h-21L75 634l-20-28 22-17 32-30 31-37 14-19 15-21 2-24-15-19-23-2-20 14m124 30-9 19-21 36-22 34-13 18-27 34-16 17 6 7 40-23 3-2 51 108 8 16 7 16 10 22h-1l6 10 52-36 7-17h-21l-54-67-30-34-17-18-7-8 23-17 33-32 29-34 14-19 13-20 2-23-16-19-23-2-19 15-8 19m145-15-15 36-8 17-8 17-23 35-25 33-6 3 1 2-27 30 5 7 22-11 12-7 66 118 20 38 4 10 51-38 7-18-21 1-61-67-33-34-19-17-1-1 14-10 18-14 17-15 16-17 14-17 14-18 13-19 10-21v-23l-16-18h-24l-17 18m411 210H559V539h234v137m0 163H559V697h234v142m-392 67 63-52v-22H18v22h331l52 52Z"/></symbol><symbol id="𮗓_J" viewBox="0 0 1000 1000" data-size="21"><path transform="matrix(1 0 0 -1 47 958)" d="M403 210c-24-79-72-135-144-167C205 19 124 4 15 0L4 24c110 11 191 33 242 65 43 27 75 68 95 121H241v-38h-58v358c30-12 52-22 65-28h402l35 40c41-31 62-52 62-61 0-4-3-8-9-11l-24-14V175h-57v35H553V109c0-16 6-26 17-29 16-5 51-7 105-7 60 0 100 2 118 8 23 7 38 51 45 131l26-11c0-51 2-82 7-94 5-13 16-20 32-20-1-28-14-45-38-52-25-7-81-11-167-11-92 0-148 3-168 10-22 8-33 28-33 61v115h-94M241 477v-61h416v61H241m416-242v68H241v-68h416m0 93v63H241v-63h416m-39 271h190l35 45c42-37 63-61 63-74 0-6-4-10-12-12l-33-9c-18-26-41-52-71-79l-19 13c20 39 34 70 40 91H94c4-48-3-89-22-122-11-19-24-29-38-29-9 0-17 4-25 12-6 6-9 13-9 20 0 9 4 18 12 28 32 40 49 89 50 148l25-4c2-7 3-16 4-28h71v314c66 0 99-7 99-21 0-8-14-17-42-28V599h77v314c66 0 99-7 99-21 0-8-14-17-42-28V599h208v89H395l-9 25h175v83H395l-9 25h175v94c66 0 99-7 99-21 0-8-14-17-42-28v-45h104l44 58c24-21 45-42 62-64l-10-19H618v-83h104l44 58c24-21 45-42 62-64l-10-19H618v-89Z"/></symbol><symbol id="𮗔_K" viewBox="0 0 1000 1000" data-size="21"><path transform="matrix(1 0 0 -1 76 920)" d="M333 377c14-14 21-23 21-29 0-7-10-11-31-12V53c-1-5-9-9-23-11-8-2-13-3-16-3-4 0-6 4-6 11 0 1 1 5 1 11 1 5 1 16 1 31H48V17c-3-5-11-9-26-11-6-2-10-3-12-3-4 0-6 2-7 5-1 2-1 9 0 19 1 13 1 25 1 36v296l-4 57 61-32h38l37 165H77c0-25 0-36 1-34-1-4-9-8-22-12-9-3-14-4-17-4s-5 2-6 5v17c1 14 1 24 1 33v232l-6 55 56-29h168l21 21c7 5 10 8 9 8 1 0 5-4 12-12l28-31c9-10 14-17 14-23 0-7-11-12-32-12V573c0-33 0-49 1-48-2-5-10-10-25-12-6-3-11-4-13-4-4 0-7 3-7 11 0-8 1 1 1 29h-73l-74-165h141l19 25c8 8 12 12 13 12 2 0 8-5 18-14l28-30m-72 192v222H77V569h184m19-457v252H48V112h232m568-64c-1-19-25-28-74-28h-86c-30-2-50 1-62 10s-17 33-15 73v231h-67c21-10 31-19 31-26 0-6-8-10-25-14-10-96-40-165-90-209S345 13 265 0l-4 11c73 15 133 48 179 100 47 53 69 127 68 223h-53v-38c-1-5-9-8-22-10-8-2-13-4-16-4s-4 2-5 6c-1 3-1 9 0 19 1 15 1 27 1 37v455l-5 38 49-28h250l15 19 9 12c1 0 6-4 15-12l29-25c11-9 16-16 16-21 0-6-10-11-30-12V357c0-31 0-46 1-44-2-4-9-8-23-11-8-3-13-4-15-4-4 0-7 2-7 8 0-12 1-3 1 28h-61c17-9 25-17 25-22-21-6-30-11-28-15V96c0-26 13-38 37-38h49c17 0 30 4 37 13 6 7 10 19 15 36l25 99 10-3-14-102c-3-17 2-28 14-33 13-4 19-11 21-20M718 657v132H455V657h263m0-151v131H455V506h263m0-152v132H455V354h263Z"/></symbol><symbol id="𮗕_S" viewBox="0 0 1000 1000" data-size="21"><path transform="matrix(1 0 0 -1 39 943)" d="m348 228-7 17v1l-4 10-3 7v3l-2 4 20 4 19 5 7 2v467h-42V345l-58-29v50h-7V98l2-5 2-2 5-2 5-1h574l19 77-48-36-38 34-33 39-30 45-14 26-31-46-35-41-37-35-40-27-6 8 33 33 29 39 27 42 25 47 12 27-11 29-18 58-16 64-10 67-7 72-2 65h-55V144l-63-32v173l-135-65-5-21-16 11-3 11-3 6v1m-16 42 22-60-32 56 10 4m178 161h-74V295l38 8 22 3 14 1v124m-232 92H113V387h165v136m507 152H640l11-62 16-69 18-65 19-58 15-34 25 80 17 68 14 75 10 65m-275-77h-74V451h74v147m-232 83H113V544h165v137m232 67h-74V618h74v130m-232 85H113V702h165v131m-70-725v258h-48v-45l-4-51-7-49-9-45-14-41-17-37-21-33-25-27-27-21L5 0 0 8l22 23 20 26 17 28 13 30 12 34 8 38 6 41 3 45v48l-2 37-49-24v552l63-32h165l30 27 54-48-26-19v-44h219l44 46 51-46v-22h-77v-53h215l31 27 58-47-26-16-5-3-12-57-19-77-20-71-24-64-25-56 5-11 26-42 30-37 31-30 43-34 9 42h10l-9-131 18-13 13-19-13-19-19-13H292l-14 1-13 2-13 5-12 7-11 8-7 11-7 11-5 13-2 14v12Z"/></symbol><symbol id="𮗖_J" viewBox="0 0 1000 1000" data-size="21"><path transform="matrix(1 0 0 -1 47 958)" d="M403 210c-24-79-72-135-144-167C205 19 124 4 15 0L4 24c110 11 191 33 242 65 43 27 75 68 95 121H241v-38h-58v358c30-12 52-22 65-28h402l35 40c41-31 62-52 62-61 0-4-3-8-9-11l-24-14V175h-57v35H553V109c0-16 6-26 17-29 16-5 51-7 105-7 60 0 100 2 118 8 23 7 38 51 45 131l26-11c0-51 2-82 7-94 5-13 16-20 32-20-1-28-14-45-38-52-25-7-81-11-167-11-92 0-148 3-168 10-22 8-33 28-33 61v115h-94M241 477v-61h416v61H241m416-242v68H241v-68h416m0 93v63H241v-63h416m-39 271h41c24 58 44 116 59 175 57-13 85-26 85-40 0-8-11-13-35-16-20-37-46-77-78-119h118l35 45c42-37 63-61 63-74 0-6-4-10-12-12l-33-9c-18-26-41-52-71-79l-19 13c20 39 34 70 40 91H94c3-48-4-89-22-122-11-19-24-29-38-29-9 0-17 4-24 13-7 6-10 13-10 19 0 9 4 18 12 28 32 40 49 89 50 148l25-4c2-7 3-16 4-28h71v314c66 0 99-7 99-21 0-8-14-17-42-28V599h77v314c66 0 99-7 99-21 0-8-14-17-42-28V599h208v197H395l-9 25h175v94c66 0 99-7 99-21 0-8-14-17-42-28v-45h104l44 58c24-21 45-42 62-64l-10-19H618V599m-138 9c-15 0-24 10-26 31-3 45-20 87-50 126l17 15c61-46 92-91 92-135 0-25-11-37-33-37Z"/></symbol><symbol id="𮗗_K" viewBox="0 0 1000 1000" data-size="21"><path transform="matrix(1 0 0 -1 48 942)" d="M313 568H152V424h161v144m61 174 38 31 45-32c16-13 24-22 22-27-2-7-19-10-50-8l-70-100-15 7 42 114H80c-3-36-9-68-18-96-8-23-17-40-26-51-7-11-15-13-22-7-9 6-14 21-14 43 1 6 3 12 8 17l9 14c10 13 18 27 23 41 12 25 22 57 31 98h11l-1-44h126v100l-5 45 65-15c18-5 27-10 27-14-1-4-15-9-42-17v-99h122m-61-333H151V259h162v150M105 89v448l-3 74 52-28h146l30 28 43-29c16-11 24-20 23-26-2-7-14-10-37-10V130l83 12 2-13L72 44c2-20 0-32-4-37-4-7-13 1-27 23L20 76l85 13m208 32v122H152V95l161 26m226 537V521h253v137H539m0 152V673h253v137H539m0-306V362h253v142H539m77-194c18-8 27-14 26-19-1-4-11-7-30-10-5-74-26-133-63-177-37-43-87-77-151-101l-5 9c54 29 97 66 128 113 30 47 46 113 48 199l47-14m73 34H539l-1-19c-1-8-2-13-3-15-1-4-5-7-13-11-16-7-27-10-30-6-2 2-2 10-2 24l1 18v448l-3 74 51-31h240l33 28 40-28c15-9 20-17 14-25-4-5-13-8-27-8V344c2-9 2-15 0-17-3-5-10-9-22-13-13-3-21-3-24 1-2 3-2 10-1 19l1 10h-53c15-8 21-15 19-19s-10-7-25-10V93c0-9 1-15 2-17 3-3 11-6 24-8l22-2c10 0 19 1 28 3 13 5 24 19 33 44 5 15 12 45 22 90l7 29h15L872 76c22-10 33-18 31-26s-17-14-44-17c-22-3-45-4-68-4l-54 4c-19 1-32 5-39 14-6 8-9 23-9 44v253Z"/></symbol><symbol id="𮗘_J" viewBox="0 0 1000 1000" data-size="21"><path transform="matrix(1 0 0 -1 53 955)" d="M209 206v-40h-57v345c25-10 47-20 67-30h462l36 41c37-26 56-43 56-52 0-4-3-9-8-14l-19-17V176h-56v30H565v-92c0-16 5-26 16-30 12-4 42-6 90-6 82 0 127 9 136 26 11 20 18 63 22 129l26-8c0-67 4-107 11-120 5-8 14-12 28-12-1-28-12-46-34-53s-87-11-195-11c-72 0-115 4-130 10-18 7-27 27-27 58v109H388c-27-71-76-123-146-156C183 23 105 6 9 0L0 25c175 19 285 79 327 181H209m0 25h481v60H209v-60m0 85h481v57H209v-57m0 82h481v58H209v-58m157 272h12l33 36c33-25 49-41 49-48 0-5-2-8-7-11l-17-14c-3-31-7-73-15-128l-53 4 6 37H110v-62H56v399c22-8 43-17 62-26h139l33 36c32-25 48-41 48-48 0-4-2-8-6-11l-19-14c0-8-3-27-8-57h13l32 36c33-24 49-41 49-48 0-4-2-8-7-11l-17-14c-3-22-6-41-9-56m-51 0c3 13 6 36 8 68H110v-68h205m-205-25v-74h266c5 32 7 57 8 74H110m0 187v-69h144c4 24 6 47 8 69H110m482-43h184l45 56c24-20 45-41 64-63l-10-18H579c-26-51-56-95-91-131l-19 14c47 71 80 158 98 263 58-14 88-27 88-40 0-8-13-14-39-19-7-22-15-43-24-62m-65-249-13 25h260l44 50c17-15 35-33 54-55l-11-20H527m37 116-13 25h187l44 50c19-17 37-35 54-55l-11-20H564Z"/></symbol><symbol id="𮗙_S" viewBox="0 0 1000 1000" data-size="21"><path transform="matrix(1 0 0 -1 39 943)" d="m50 886 63-32h162l33 27 57-48-26-20V334l-64-31v63h-4V108h-63v258h-18l-4-48-9-51-12-49-15-45-16-40-21-36-22-32-27-27-28-21L5 0 0 8l23 23 21 26 19 28 15 31 14 34 12 38 9 41 8 46 5 50 2 41h-15v-63l-63-32v615M292 24l-14 1-13 2-13 5-12 7-11 8-7 11-7 11-5 13-2 14v12h63V98l2-5 2-2 5-2 5-1h574l31 131h10l-9-131 18-13 13-19-13-19-19-13H292m396 92 18 2-15 28 7 23 5 15 10 36 4 8h66v-64l64 31v295l26 22-58 47-32-27h-40l4 46 8 53 11 48 12 40 16 37 19 30 20 27 24 21 29 18 31 15-1 9-37-5-35-13-33-20-30-26-25-34-23-40-18-45-16-49-11-57-7-55h-29l6 9h-62l6-9h-83l-64 31V133l64 31v64h184l-1-2-42-52-14-17-5-6-5-4-5-1 57-30m-57 30 57-30-61 20 4 10m-11 226V248H519v124h101m163 0V248H683v124h100M275 523H113V387h162v136m345-11V393H519v119h101m163 0V393H683v119h100M414 858v-3 3M275 681H113V544h162v137m227-91 60-18-64 7 4 11M275 833H113V702h162v131m301-111 8 3-8-2v-1m112-606-1 5 1 6v-11m-92 663-1 7-1 5-1 4-1 1-2 1-1 1-3 1-5 1h-92l-33-1-15-1h-3l-1-2-4-10-7-21-5-13v-4l16 11 23-5 14-19v-10l1-10 1-15 4 2 43 36 20 19 7 7 5 7-2 2 5 5 38-46v47m-182 81h12l28 1 34 1h20l20 1h72v-3h1l12-5 13-5 10-9 9-11 6-12 4-12 2-13 1-14V541h-62v171l-21 7-5-49-2-22-2-17-2-17-1-13v-2l17-21-18-6-19 6h-3l-38 12 3 6 10 17 44 104-20-7-33-12-20-6-8-4 2-14 10-33 7-9-7-7-9 9-10 7-9 7-9 10-9 9-14 21-6 10-12 24 3 17h-4v14l-10 34-4 18h-1l-11 21 8 23 21 11Z"/></symbol><symbol id="𮗚_J" viewBox="0 0 1000 1000" data-size="21"><path transform="matrix(1 0 0 -1 35 946)" d="M549 360v-46h-56v562c24-11 46-22 66-34h228l36 47c39-31 59-51 59-60 0-4-2-8-7-11l-24-17V315h-57v45h-48V106c0-14 3-23 10-26 5-3 17-4 36-4 30 0 48 9 53 27 7 23 13 70 18 140l26-11v-24c0-51 2-83 7-97 5-15 16-23 34-22-1-29-12-47-32-54-18-6-51-10-97-10-50 0-82 5-95 15-11 8-16 27-16 56v264h-44c-2-102-23-180-63-235C544 71 477 29 381 0l-14 23c105 43 171 107 199 190 14 39 22 88 24 147h-41m0 25h245v138H549V385m0 163h245v127H549V548m0 152h245v117H549V700M94 371c-26-45-51-79-76-102L0 282c58 90 98 192 121 305 56-11 85-23 85-36 0-7-13-14-37-20-8-23-17-46-29-71l3-1h109c10 34 18 73 23 118 55-11 83-22 83-33 0-6-11-12-33-16-8-17-23-40-43-69h89l40 52c18-16 35-35 51-58l-10-19H300v-82h63l38 49c19-18 35-36 47-55l-11-19H300v-87h64l37 47c20-19 36-36 46-53l-10-19H300v-89h91l38 52c21-20 38-39 49-56l-12-21H148V40H94v331m56 63-2-1v-81h99v82h-97m-2-107v-87h99v87h-99m0-112v-89h99v89h-99m-18 402v111H41l-8 25h97v139c62-1 92-8 92-21 0-8-12-17-37-26v-92h96v139c60-2 90-10 90-23 0-8-12-17-36-26v-90h38l39 56c19-20 35-41 48-62l-11-19H335V617h40l43 57c23-22 41-43 56-63l-10-19H19l-9 25h120m55 0h96v111h-96V617Z"/></symbol><symbol id="𮗛_K" viewBox="0 0 1000 1000" data-size="21"><path transform="matrix(1 0 0 -1 58 958)" d="M151 820h31l32 38 34-29c9-9 12-16 8-20-3-4-9-6-18-6h-87v-39l1-16c1-10 0-17-2-20-3-6-10-10-21-13s-17-3-19-1c-2 1-2 6-1 14l2 18v59H71l-59-4-12 23 57-4h54v49c-1 10-2 18-3 25-1 11-2 19-3 22l49-11c19-5 26-10 24-16s-11-10-27-15v-54m193 48c-2 10-3 18-3 25-1 11-1 19-2 22l54-11c17-5 23-10 20-16s-12-10-29-15v-53h42l35 37 40-33c7-6 9-11 7-14-3-4-8-5-17-5H384v-41l1-19c1-9 1-15 0-18-3-6-10-10-21-14-10-2-17-2-19 1-2 2-3 7-2 16l1 16v59h-50l-7 17h57v46m263-199h198v135H607V669m-43 181 45-32h186l28 30 36-27c14-12 18-21 13-26-3-3-12-5-27-6V364l1-19c2-9 2-16 0-19-2-5-8-9-18-13-11-2-18-2-21 1-2 3-3 9-1 19l1 10h-59c17-7 25-14 23-19-1-4-9-8-23-10V107c0-9 1-15 3-18 3-4 10-6 21-7 14-1 20-2 19-1-1 0 2 1 11 4 11 3 20 17 27 41 5 15 11 45 21 90l6 31 12-2-13-154c20-10 29-18 29-26-2-7-16-13-40-17-20-2-37-3-50-4-12-1-27 0-43 2-17 3-28 7-33 15-6 7-9 21-10 43v239H607v-15c2-8 2-14 0-16-2-5-7-9-15-13-13-4-22-3-26 2v477l-2 72m43-332h198v136H607V518m0-159h198v144H607V359m65-53c22-6 31-11 28-18-3-5-14-10-33-14-12-58-34-109-67-151S515 40 442 0l-4 13c50 30 90 66 122 109 31 44 56 109 74 195l38-11M96 410l-45 25 4-57V77l-2-9c-1-9-1-14 1-16 2-3 9-4 21-2 11 2 18 7 22 13 2 4 2 11 1 21l-1 10v118h123V85l-1-10c-1-10 0-16 2-18 2-4 9-5 21-1 16 4 26 8 29 12 1 4 2 11 0 20v125h140v-74c-1-8-4-14-8-17-2-4-7-6-12-6-17 0-35 1-54 3-13 1-27 3-42 4l3-11c29-9 49-17 58-23 10-8 16-20 20-37 28 6 48 16 61 32 11 12 16 30 16 53v238c19 2 29 6 29 11 2 4-5 12-19 24l-36 23-26-23H96m315-16v-72H271v71l140 1m-313 0h122v-72H98v72m313-88v-79H271v79h140m-191-79H97v79h123v-79M6 577h217v-72H111l-54 2 6-20 52 1h108v-94l45 4v90h126v-11l-1-11c-2-9-1-14 3-16 3-3 12-2 26 4 12 4 19 8 21 13 2 3 1 8-1 14l-2 10v86h87c13 0 21 2 25 7 3 4 0 10-9 18l-41 31-42-42h-20v63c13 2 21 5 24 9 2 5-2 13-15 23l-41 30-33-34H101l-46 2 5-19 46 2h117v-76H5l1-14m388 90v-76H268v76h126m-1-90v-71H268v71h125Z"/></symbol><symbol id="𮗜_J" viewBox="0 0 1000 1000" data-size="21"><path transform="matrix(1 0 0 -1 47 959)" d="M403 210c-24-79-72-135-144-167C205 19 124 4 15 0L4 24c110 11 191 33 242 65 43 27 75 68 95 121H241v-38h-58v358c30-12 52-22 65-28h402l35 40c41-31 62-52 62-61 0-4-3-8-9-11l-24-14V175h-57v35H553V109c0-16 6-26 17-29 16-5 51-7 105-7 60 0 100 2 118 8 23 7 38 51 45 131l26-11c0-51 2-82 7-94 5-13 16-20 32-20-1-28-14-45-38-52-25-7-81-11-167-11-92 0-148 3-168 10-22 8-33 28-33 61v115h-94M241 477v-61h416v61H241m416-242v68H241v-68h416m0 93v63H241v-63h416M134 599v279c30-13 49-22 57-25 37 19 68 40 92 62 35-22 52-39 52-50 0-7-7-10-20-10-1 0-8 1-20 2-37-13-73-23-107-30v-53h45l34 42c20-18 36-35 46-50l-10-17H188v-60h37l36 42c20-18 36-35 46-50l-9-17H188v-65h525v65h-92l-13 25h105v60h-93l-11 25h104v59h-99l-10 25h99l37 43c41-31 61-50 61-59 0-4-3-8-10-13l-24-16V599h41l35 45c42-37 63-61 63-74 0-6-4-10-12-12l-33-9c-18-26-42-52-71-79l-19 13c20 39 34 70 40 91H94c3-49-4-90-22-122-11-19-24-29-38-29-9 0-17 4-24 13-7 6-10 13-10 19 0 9 4 18 12 28 32 40 49 89 50 148l25-4c1-7 3-16 4-28h43m392 129h19l28 39c14-11 30-27 48-46l-10-18h-87c-5-36-12-61-21-74-13-18-36-27-68-27 0 11-4 19-13 24-9 6-25 11-49 16v24c30-5 52-8 68-8s26 7 30 19c1 3 2 8 3 14 1 5 2 9 3 12H313l-8 25h175c1 11 2 24 3 39h-92l-8-27-45 7c16 53 29 110 36 172 45-7 67-14 67-21 0-8-9-14-27-17l-4-25h79l28 41c25-22 42-37 52-47l-8-19H405c-2-8-4-21-8-39h80l26 30c34-21 51-35 51-40s-3-9-9-13l-16-10-3-31Z"/></symbol><symbol id="𮗝_S" viewBox="0 0 1000 1000" data-size="21"><path transform="matrix(1 0 0 -1 32 961)" d="m499 892 64-33h236l31 27 58-47-27-22V319l-62-32v64h-37V119h-63v232h-33l-6-46-10-51-14-48-18-43-22-39-26-34-29-30-32-26-36-19-40-15-4 9 33 22 29 26 26 27 22 29 19 33 15 37 13 40 9 43 7 47 1 38h-40v-64l-64-31v636M313 555l63-10 16-11-16-10V381l48 61 12 18 4 6 43-47 4-19-22 6-56-37-30-18-3-2v-40l-4-41-6-39-4-17 21-12 14-10 28-19 11-11 20-22 9-12 8-12-1-24-18-17-23 1-17 18-2 9-3 10-4 11-11 24-16 25-19 26-12-40-16-32-17-29-20-28-23-24-27-22-28-16-6 8 20 23 19 26 17 26 13 26 12 28 9 30 7 31 4 33 2 34v284M198 103l-2 9-4 10-4 12-6 12-17 25-17 23-12-37-15-32-17-29-20-28-23-24-27-22L6 6l-6 8 21 23 18 26 17 26 13 26 11 28 10 30 7 31 4 33 2 34v38h63l-4-41-6-39-4-19 17-9 16-10 13-9 14-11 22-22 10-11 8-13 7-13-2-23-19-16-23 3-17 18v9m585-68-13 1-14 2-13 5-12 7-10 8-8 10-7 12-5 13-2 13v13h63v-6l1-5 2-4 2-2 4-2 5-1h98l31 130h10L905 99l19-13 13-20-13-18-19-13H783M218 298l51-38-22-12-22 6-13 20 6 24M8 298l51-38-22-12-22 6-13 20 6 24m205 625 62-11 17-11-17-8V780l117 75 11 9 8-15 34-34 1-17-19 8-57-20-37-12-42-11-16-4v-20l-4-34-8-32-2-4 32-7 21-6 19-6 18-6 31-13 13-7 11-7 11-9 6-23-12-21-22-6-22 11-2 6-5 7-7 8-9 9-13 9-29 22-37 23-9 5-7-14-19-28-22-24-26-23-31-18-5-3 20-3 16-11-16-10V382l28 38 16 21 7 11 3 5-1 1 6 6 30-29 6 1 3-10 6-6 4-19-2 1 2-6 5-18 4-19 2-17v-18l-1-16-4-17-5-16-6-15-7 6-3 2-10 6-1 1-16 12-3 2-11 9 7 6 5 9 6 8 5 11 4 13 4 14 2 17 2 18v12h-2l-26-19-40-27-19-10v-41h-63v220l-25-9-43-11-2 9 37 20 34 21 28 20 23 22 20 21 15 22 11 22 8 23 3 25 1 25v184M51 436l6-21 7-19 5-18 4-19 2-17v-18l-1-16-4-17-5-16-6-15-7 6-3 2-10 6-1 1-16 12-2 2-12 9 7 6 6 9 5 8 5 11 4 13 3 14 3 17 2 18v19l-2 21 10 2m748 83H563V371h236v148m0 157H563V539h236v137M66 742l35-53-24-3-19 13-4 24 12 19m35-53-17 26-2 5-3 3-10 16-3 3 10 5 9 4 6 5 6 6 6 6 3 8 3 11 1 12v14l-5 14 9 4 7-15 8-13 6-14 4-15 1-14-2-16-6-15-8-14-11-14-12-12m698 150H563V697h236v142Z"/></symbol><symbol id="𮗞_S" viewBox="0 0 1000 1000" data-size="21"><path transform="matrix(1 0 0 -1 30 968)" d="m803 30-14 2-13 2-12 4-12 6-11 10-9 9-6 12-4 13-3 14-1 12-4 316h-27l-4-44-8-52-10-49-13-48-16-44-18-42-20-39-24-37-26-33-25-23V0H0v21h94v376l63-31h211l31 27 58-48-26-21V21h18l32 37 36-30 33 62 16 37 16 40 12 40 10 43 9 45 6 47 4 49 1 39h-39v-63l-58-29v599l58-30h218l32 27 58-47-27-22V398l-63-31v63h-26l4-315v-6l1-5 2-2 1-4 3-1 4-1 4-1 7-1h75l30 131h11L908 94l19-13 12-18-12-20-19-13H803m-435 88H157V21h211v97m0 113H157v-91h211v91m0 114H157v-92h211v92m68 400 52-48-26-15V435l-53-26v26H115l-52-26v336l52-26h294l27 26m367-158H585V451h218v136M409 697H115V456h294v241m-68-20 55-48-26-18v-92l-57-29v29H205l-53-26v184l53-27h108l28 27m-28-48H205v-89h108v89m490 110H585V608h218v131m0 148H585V761h218v126M5 776v21h225v137l64-11 16-10-16-10V797h130l43 48 53-48v-21H5Z"/></symbol><symbol id="𮗟_J" viewBox="0 0 1000 1000" data-size="21"><path transform="matrix(1 0 0 -1 87 949)" d="M222 523h494l42 50c42-34 63-56 63-65 0-5-3-9-9-13l-26-17V107c0-56-35-84-104-83-1 19-11 33-31 41-16 6-50 13-100 21v27c46-5 90-8 131-8 29 0 44 11 44 32v101H487V44h-57v194H199C181 148 129 69 44 0L24 20c52 58 87 113 104 163 15 43 22 100 22 171v202c25-9 49-20 72-33m265-151V263h239v109H487m-57 0H209v-19c0-32-2-62-6-90h227v109m-221 25h221v101H209V397m278 0h239v101H487V397M254 776h453l50 65c26-24 49-48 68-71l-12-19H240C179 641 105 552 18 486L0 505c102 101 181 232 237 394 62-13 93-27 93-41 0-9-16-15-48-20-4-11-13-32-28-62m-15-148-11 25h425l48 57c24-20 45-41 64-63l-12-19H239Z"/></symbol><symbol id="𮗠_J" viewBox="0 0 1000 1000" data-size="21"><path transform="matrix(1 0 0 -1 102 950)" d="M473 242V44h-58v198H191C169 136 111 55 18 0L0 20c95 75 143 186 143 332v220c-34-37-74-72-120-105L6 486c120 107 208 245 265 414 63-11 95-24 95-37 0-10-17-18-50-24l-18-41h236l39 45c45-36 68-60 68-72 0-6-4-9-10-11l-31-7c-40-36-79-68-117-96 17-13 25-26 25-40 0-21-9-31-28-31-13 0-24 6-33 17-29 38-74 71-137 98l14 21c56-15 101-32 135-49 32 35 56 68 75 100H285c-33-64-70-119-111-166 6-3 14-8 22-13 10-7 16-11 18-12h477l42 50c42-33 63-54 63-64 0-5-3-9-8-12l-28-17V103c0-34-11-60-34-78-18-14-43-21-73-21-3 21-11 36-25 43-14 8-42 15-84 22v27c50-5 90-7 118-7 26 0 39 12 39 35v118H473m-277 25h219v139H202v-55c0-29-2-57-6-84m277 0h228v139H473V267M202 431h213v126H202V431m271 0h228v126H473V431Z"/></symbol><symbol id="𮗡_K" viewBox="0 0 1000 1000" data-size="21"><path transform="matrix(1 0 0 -1 63 947)" d="M132 641h86l62 129H158c-21-43-41-78-61-105l35-24m-51-1c-10-13-21-26-34-41s-26-29-40-40l-7 9c33 41 63 92 91 153s51 119 67 174l50-23c25-11 33-20 23-27-6-4-18-6-37-7l-28-54h105l35 30 47-35c13-11 16-19 11-24-6-5-22-7-46-7l-78-107h97l35 30 39-26c20-14 27-24 20-31-5-4-15-7-31-9V95c0-24-8-44-25-59-16-15-37-24-64-26-3 17-10 29-21 37-13 10-40 22-82 36l5 9 24-2 48-8 26-3c15-1 25 0 31 1 6 3 10 9 10 16v196H127c-3-44-15-94-34-150C74 85 50 39 22 3l-11 7c24 47 43 100 56 159 14 60 21 128 21 204l-3 214-4 53m51-16V482h86v142h-86m220-142v142h-88c15-6 21-11 18-16-2-4-10-7-22-9V482h92m0-18h-92V308h92v156m-220 0-1-95c-1-36-2-56-4-61h88v156h-83m668 137-8-13h-18c-13-151-52-270-117-357 35-51 65-90 91-117 37-37 79-64 125-82l-4-9c-20 3-35 0-45-8-9-9-15-14-18-14-5 0-11 4-20 11-57 45-108 106-153 183C564 110 480 45 381 0l-7 10c102 58 181 132 237 223-45 97-74 200-89 307-26-52-55-97-84-135l-10 7c30 46 58 110 86 193 28 84 47 162 57 235l44-8c17-6 25-12 25-19 0-9-10-15-30-18-11-53-30-116-57-188h151l19 32c7 11 12 17 15 17s10-4 23-12l39-43m-71-13H545c-1-4-5-11-10-22 15-101 48-198 99-294 51 80 82 185 95 316Z"/></symbol><symbol id="𮗢_S" viewBox="0 0 1000 1000" data-size="21"><path transform="matrix(1 0 0 -1 34 965)" d="m162 339-2-37h91v173h-89V339M464 92l-1-13-2-14-4-12-7-12-9-11-9-9-13-6-13-4-12-2-14-1v31L275 55v15h105l7 1 5 1 3 1 1 1 1 1 1 1 1 1 1 4v5l1 6h63m413 296 49-40 7-18-20 2-23-31-38-43-41-42-42-38-45-35-45-34-48-30-50-26-52-25-53-19-4 9 94 58 45 32 44 34 40 35 40 37 37 39 37 41 34 44 34 50m-476 87h-88V302h88v173m439 171 48-42 7-17-20 2-48-55-31-34-33-32-72-59-38-26-38-26-41-23-42-21-5 8 106 88 64 62 60 65 55 69 22 33 6 8m-589 18h-89V496h89v168m150 0h-88V496h88v168m411 233 47-41 6-18-19 3-42-48-61-60-31-28-33-27-71-52-37-22-38-22-6 8 95 88 59 59 54 62 50 63 25 33 2 2m-485-76H213l-43-76-31-48 23-12h98l7 9 36 68 13 33 11 26M100 339v306l-33-39-29-31-31-29-7 6 88 143 12 21v1l28 53 34 75 29 73h-1l5 13 56-32 11-15-19-3-18-38h106l32 26 58-48-26-15-15-6-8-13-11-16-24-32-14-14-13-14-16-14-16-12h123l32 26 57-47-26-21V92h-63v189H158l-3-32-7-41-8-38-11-37-13-32-15-32-17-26-21-23L42 0l-7 6 13 25 12 26 10 27 9 30 7 32 6 33 5 36 3 39 1 41-1 44Z"/></symbol><symbol id="𮗣_G" viewBox="0 0 1000 1000" data-size="21"><path transform="matrix(1 0 0 -1 27 984)" d="m686 458 5 10c73-53 111-106 115-159 1-27-5-42-20-45-14-3-21 7-22 29-1 18-4 32-7 43l-140-21c-52-9-87-24-104-45l-39 51c19 5 34 15 45 31 35 71 70 151 106 241 0 12-4 24-12 35l6 7 78-38c6-6 5-10-2-12-9 3-20-1-31-10-31-70-72-152-125-246 18 1 82 9 193 22 9 1 15 1 19 2-1 2-1 5-2 9-1 2-2 4-3 5-12 31-32 61-60 91m224 247V372c1-89-6-158-21-208-11-45-30-79-57-104-24-21-57-36-100-44-1 9-9 22-24 37-19 11-48 23-89 38l3 14c45-15 83-24 116-27 57-3 95 33 112 108 10 36 16 103 17 202v334H563c-6-13-13-26-20-38-27-49-57-91-90-124l-8 10c27 42 49 81 66 116 19 36 37 84 54 144 18 65 25 97 22 98-1 1-1 2-2 4-3 8-6 15-10 20l9 5 77-34c2-7 0-10-6-10-11 2-20-2-26-13-18-62-37-115-56-158h282l37 40 49-49c5-4 6-8 5-11s-4-4-10-5l-26-12M382 480H278V332h104v148m-249 0v-89c0-21 0-40-1-59h107v148H133m145 16h104v155H278V496m-39 155H133V496h106v155M97 688l27-18v1h134c27 53 50 98 68 135H174c-14-27-28-50-41-70-9-15-21-31-36-48m301 120c3-4 4-7 3-8s-4-2-11-1c-21-1-43-22-65-62-10-17-24-39-42-66h84l31 38 47-40c6-4 9-8 9-11s-3-5-9-8l-20-13V132c1-35-2-62-11-79-8-18-30-31-67-39-1 22-10 36-26 41-15 5-35 12-60 21l2 16c48-11 80-16 95-15 16 1 24 18 24 49v190H278v-41l2-94c1-23-15-38-48-45 3 26 6 75 7 148v32H131c-3-51-9-97-18-137C100 121 66 61 12 0L0 8c45 75 72 140 80 195 7 57 11 122 11 197 1 76 1 110 1 103v152c0 9-2 16-6 20-22-23-48-48-78-73l-8 10c51 58 87 105 106 140 20 35 38 73 55 113s23 64 20 71-7 16-14 26l8 5 82-41c1-2 2-4 1-5s-3-2-6-2c-11-1-22-8-32-21-5-9-11-22-19-38-7-15-13-27-17-34h139l28 27 47-45Z"/></symbol><symbol id="𮗤_S" viewBox="0 0 1000 1000" data-size="21"><path transform="matrix(1 0 0 -1 33 965)" d="m150 339-2-37h77v173h-75V339M424 92l-1-13-2-14-5-12-7-12-8-11-10-9-12-6-13-4-13-2-13-1v31L234 55v15h106l6 1 5 1 4 2 2 2 2 5 1 5v6h64m200 373-3-57-6-54-11-53-11-49-17-46-19-44-23-41-26-37-29-33-34-30-7 6 25 36 21 37 20 38 17 40 13 42 11 45 9 46 5 48 3 52v54h62m92 365 1-19-19 8-50-28-24-12-43-18 43-8 16-10-16-10V517h118v383l64-10 15-11-15-9V517h12l53 52 64-52v-21H806V55l-64-32v473H624v-31h-62v31H439v21h123v235l-20-7-29-10-31-9-33-8-3 9 130 80 45 29 39 30 14 12 5 3 37-51M360 475h-73V302h73v173M225 664h-75V496h75v168m135 0h-73V496h73v168m-66 157h-98l-39-75-21-36-9-13 23-12h85l6 9 24 51 14 33 11 33 4 10M88 339v300l-25-32-27-31-28-30-8 6 60 107 28 56v2l1-1 24 53 32 75 25 73 5 13 56-30 11-14-18-4-18-39h92l31 26 58-48-27-15-12-6-7-13-33-47-27-29-13-14-15-12h107l33 26 57-47-26-21V92h-64v189H147l-3-32-6-41-8-38-10-36-13-33-13-31-16-26-18-24L39 0l-8 6 12 24 10 26 10 28 7 29 6 32 5 34 4 36 3 39v85Z"/></symbol><symbol id="𮗥_S" viewBox="0 0 1000 1000" data-size="21"><path transform="matrix(1 0 0 -1 48 964)" d="m138 339-2-37h70v173h-68V339M385 92l-1-13-2-12-4-12-5-11-8-11-9-8-10-6-12-5-12-2-12-1v28l-81 15v14h85l4 1 3 1 1 2 1 1 3 6v6l1 7h58m196 248-178-32-4 20 182 32v161l-163-30-4 21 167 30v187l-65-19-48-13-50-10-3 8 176 79 78 39 70 40 59 37 5 3 12-20 28-29 1-18-19 8-58-31-78-33-41-17-21-8 18-2 15-11-15-9V554l87 16 43 61 72-40 4-21-206-37V372l137 24 42 62 72-41 3-21-254-44V106l1-4v-3l1-2 1-1 1-1 5-1 4-1 7-1h178l30 131h10L873 92l19-13 12-18-12-20-19-13H665l-14 2-12 2-13 4-12 7-10 9-9 10-7 12-4 13-2 13-1 12v228M327 475h-68V302h68v173M206 664h-68V496h68v168m121 0h-68V496h68v168m-63 157h-83l-17-36-38-74-9-16 21-10h75l5 9 7 17 7 17 19 49 5 16 5 17 3 11M79 339v297l-19-29-26-31-26-30-8 6 69 142 32 74 28 75 24 78 2 8 58-28 12-14-20-4-16-40h78l32 26 57-48-26-15-13-5-15-29-10-15-22-30-26-29-14-13h97l28 26 56-47-26-18V92h-58v189H134l-3-32-5-40-8-38-9-36-10-33-13-30-15-27-16-24L36 0l-7 5 10 25 9 26 9 27 6 29 6 32 5 34 3 36 2 40 1 41-1 44Z"/></symbol><symbol id="𮗦_K" viewBox="0 0 1000 1000" data-size="21"><path transform="matrix(1 0 0 -1 39 948)" d="m799 696 31 33 54-43c14-13 20-22 16-26-3-4-17-6-42-5L750 527l-12 4c9 13 20 36 35 68 17 32 30 59 40 81H551c-10-25-26-56-48-92s-40-64-57-85l-10 9c29 49 55 107 79 174 23 66 40 133 51 201l51-22c15-8 22-14 21-20-2-5-12-9-31-12-9-31-18-56-25-76s-15-41-23-61h240m-127-82c21-4 29-9 26-14-2-6-12-11-31-18l-1-44-2-66c20-103 53-191 100-264 47-72 100-120 159-145V51c-14-2-30-6-46-15-13-6-22-13-27-19-42 42-79 95-112 158-32 64-59 141-82 232-11-105-42-190-94-256C510 86 444 35 362 0l-7 12c96 51 166 121 208 212 44 91 63 224 57 398l52-8m-540 29h86l62 128H158c-21-42-41-77-61-104l35-24m-51-1c-10-13-21-26-34-41s-26-29-40-40l-7 9c33 41 63 91 91 153 28 61 51 119 67 173l50-22c25-11 33-20 23-27-6-4-18-6-37-7l-28-54h105l35 30 47-35c13-11 16-19 11-24-6-5-22-7-46-7l-78-107h97l35 30 39-27c20-13 27-23 20-30-5-4-15-7-31-9V97c0-24-8-44-25-59-16-15-37-24-64-26-3 17-10 29-21 37-13 10-40 22-82 36l5 9 24-2 48-8 26-3c15-1 25 0 31 1 6 3 10 8 10 16v196H127c-3-44-15-94-34-150C74 87 50 41 22 5l-11 7c24 47 43 100 56 159 14 60 21 128 21 204l-3 214-4 53m51-16V484h86v142h-86m220-142v142h-88c15-6 21-11 18-16-2-4-10-7-22-9V484h92m0-18h-92V310h92v156m-220 0-1-95c-1-36-2-56-4-61h88v156h-83Z"/></symbol><symbol id="𮗧_S" viewBox="0 0 1000 1000" data-size="21"><path transform="matrix(1 0 0 -1 30 965)" d="m148 339-1-37h74v173h-73V339M418 92l-1-13-2-14-5-12-6-12-8-11-11-9-12-6-13-4-13-2-13-1v31L229 55v15h105l6 1 5 1 5 2 2 2 2 5v11h64m58-74 4-3 19 3-11 19 7 20 13 52 6 30 10 69 2 20 2-15 13-49 20-44 29-37 40-29 49-22 59-12 70-5 82 3-6 69-77-6h-63l-50 7-40 14-31 17-26 26-17 28 23 25 34 41 33 44 31 47 30 50 59 106 28 57 44 102 11 3 26 16-57 48-31-26H703v201l16 9-16 11-63 11V686H459v-22h345l-37-99-49-112-51-103-53-95-41-68-14 34-16 50-10 42 1 20-9 1-2-6h-3l1-11-31-102-19-65-20-52-9-22-8-17-9-15 6-3 12-7 4-2 26-12 3-2m-51 26 55-29-60 19 5 10m463 0-1 7v10l-2 9v6l-1 3v8l55 6-49-75v2l-1 12v3l-1 4v5M354 475h-71V302h71v173M221 664h-73V496h73v168m133 0h-71V496h71v168m-65 157h-96l-38-75-21-36-9-14 23-11h83l6 9 24 51 7 16 12 33 6 17 3 10M86 339v300l-23-32-27-31-28-30-8 6 77 143 9 17v5l1-1 40 90 29 77 15 47 57-30 11-14-19-4-8-21-9-18h90l31 26 58-48-27-15-12-5-18-30-22-31-12-14-27-29-15-12h105l33 26 57-47-26-21V92h-64v189H146l-3-32-7-41-8-38-10-36-12-33-13-31-16-26-18-24L38 0l-7 6 11 24 10 26 9 27 7 29 7 33 5 34 4 36 2 39 1 41-1 44Z"/></symbol><symbol id="𮗨_J" viewBox="0 0 1000 1000" data-size="21"><path transform="matrix(1 0 0 -1 34 949)" d="M100 604c-25-32-52-62-81-90L0 530c43 48 81 108 114 179 29 61 51 123 66 188 57-6 86-15 86-28 0-8-13-15-39-23-6-20-11-32-13-37h108l35 44c40-37 60-59 60-65 0-4-3-7-9-10l-23-10c-26-45-54-85-83-121h101l37 45c37-30 56-49 56-59 0-4-3-8-9-11l-25-15V84c0-52-33-78-99-77 0 20-8 33-24 41-16 7-41 13-76 19v26c41-5 79-8 113-8 21 0 32 10 32 29v179H308V130h-54v163h-99C149 176 113 78 47 0L24 15c51 80 76 186 76 317v272m36 51 14-5c4-1 8-2 10-3h109c26 52 45 98 57 137H204c-21-51-44-94-68-129m172-195V318h100v142H308m-54 0h-98V318h98v142m-98 25h98v137h-98V485m152 0h100v137H308V485m374-250H503l-10 25h189v163c59-1 89-9 89-23 0-8-11-16-33-25V260h80l50 66c24-24 46-48 65-73l-11-18H738V0h-56v235m-77 587h192l34 41c40-31 60-51 60-61 0-3-2-5-6-8l-24-16v-99c0-52-29-78-88-78-1 16-8 27-19 33-12 7-38 14-77 22v25c33-5 66-7 97-7 21 0 31 9 31 29v94H593V552c0-17 4-28 13-32 13-5 53-7 121-7 49 0 81 1 97 4 13 2 23 6 29 13 13 15 23 49 28 100l25-9v-32c-1-27 1-45 5-53 4-7 11-11 21-11-1-30-15-47-41-52-28-6-80-9-157-9-112 0-174 8-186 25-7 11-11 29-11 55v308c30-12 53-22 68-30Z"/></symbol><symbol id="𮗩_S" viewBox="0 0 1000 1000" data-size="21"><path transform="matrix(1 0 0 -1 28 965)" d="m150 339-2-37h77v173h-75V339M459 38l-12 32 92 29 35 722h-96v22h318l53 53 62-53v-22H637l-9-188h143l32 26 57-48-26-15h-1l-6-79-3-92 1-82 5-71 9-58 12-48 14-36 17-25 4-1 25 114h11L912 88l4-1 21-13 6-23-12-21-24-6-39 13-33 26-25 38-19 45-14 55-9 65-5 75-1 84 3 95 6 91H627l-23-494 78 22 34 7 36 8 3-8-64-34-203-91-5-21-14 12-3 8-1 1v1l-6 15v1m-35 54-1-13-2-14-5-12-7-12-8-11-10-9-12-6-13-4-13-2-13-1v31L234 55v15h106l6 1 5 1 4 2 2 2 2 5 1 5v6h64m23-22 22-58-32 55 10 3m233 250-1 21-3 20-4 20-4 19-5 18-13 36-6 19-9 16 8 6 29-28 13-16 11-17 21-38 9-22 6-21 7-24 4-23-7-24-20-11-23 6-12 22-1 21M360 475h-73V302h73v173M225 664h-75V496h75v168m135 0h-73V496h73v168m-66 157h-98l-39-75-21-36-9-13 23-12h85l6 9 24 51 14 33 11 33 4 10M88 339v300l-25-32-27-31-28-30-8 6 60 107 28 56v2l1-1 24 53 32 75 25 73 5 13 56-30 11-14-18-4-18-39h92l31 26 58-48-27-15-12-6-7-13-33-47-27-29-13-14-15-12h107l33 26 57-47-26-21V92h-64v189H147l-3-32-6-41-8-38-10-36-13-33-13-31-16-26-18-24L39 0l-8 6 12 24 10 26 10 28 7 29 6 32 5 34 4 36 3 39v85Z"/></symbol><symbol id="𮗪_K" viewBox="0 0 1000 1000" data-size="21"><path transform="matrix(1 0 0 -1 34 947)" d="M630 546v102h-99V363h88c4 22 7 51 9 85 1 21 2 54 2 98m45 326c23-4 35-9 36-15 1-7-10-13-31-17V666h84l33 32 46-31c17-10 24-18 20-23-2-7-14-12-36-14V363h7l42 42 49-40c8-5 10-10 6-13-3-6-9-8-19-8H681c25-75 56-136 93-183 38-47 87-85 148-116l-4-12c-14 0-27-3-39-11-7-3-14-9-23-19-41 35-79 79-112 132-32 53-59 122-80 205-15-82-49-151-102-208C508 75 443 31 365 0l-6 11c73 38 129 84 169 136 41 54 70 119 88 197H410l-5 21 51-2h25v280l-3 49 53-26h99v155l-4 60 49-9m5-224v-74c0-49-1-85-3-108-1-44-3-79-8-103h111v285H680m-548-8h86l62 129H158c-21-43-41-78-61-105l35-24m-51-1c-10-13-21-26-34-41s-26-29-40-40l-7 9c33 41 63 92 91 153s51 119 67 174l50-23c25-11 33-20 23-27-6-4-18-6-37-7l-28-54h105l35 30 47-35c13-11 16-19 11-24-6-5-22-7-46-7l-78-107h97l35 30 39-26c20-14 27-24 20-31-5-4-15-7-31-9V94c0-24-8-44-25-59-16-15-37-24-64-26-3 17-10 29-21 37-13 10-40 22-82 36l5 9 24-2 48-8 26-3c15-1 25 0 31 1 6 3 10 9 10 16v196H127c-3-44-15-94-34-150C74 84 50 38 22 2L11 9c24 47 43 100 56 159 14 60 21 128 21 204l-3 214-4 53m51-16V481h86v142h-86m220-142v142h-88c15-6 21-11 18-16-2-3-10-7-22-9V481h92m0-18h-92V307h92v156m-220 0-1-95c-1-36-2-56-4-61h88v156h-83Z"/></symbol><symbol id="𮗫_J" viewBox="0 0 1000 1000" data-size="21"><path transform="matrix(1 0 0 -1 47 957)" d="M315 580c86 13 158 26 217 38l5-26c-140-35-289-67-447-97-5-27-12-40-20-40-16 0-31 30-47 90 79 7 157 16 234 27v88H80l-10 25h327l44 50c19-14 41-32 66-54l-12-21H315v-80M167 339c-37-26-77-48-119-68l-16 21c107 61 190 139 249 235 53-9 79-19 79-30 0-7-14-13-44-18l-17-20h214l31 30c41-28 62-47 62-58 0-6-5-10-14-11l-34-6c-21-16-41-30-62-41h237l37 40c42-27 63-46 63-57 0-4-3-8-8-11l-26-15V104c0-42-18-69-54-80-16-5-34-7-55-8-1 18-12 31-33 38-19 7-56 14-112 21v26c56-7 109-10 158-10 26 0 39 12 39 36v40H215C194 91 134 35 35 0L20 22c98 44 147 115 147 214v103m56 43c4-2 10-5 16-9h217c23 24 40 44 50 61H277c-12-12-30-29-54-52m-3-190h230v70H223v-27c0-15-1-29-3-43m286 0h236v70H506v-70m-283 95h227v61H223v-61m283 0h236v61H506v-61m29 495c-11 41-18 85-22 132 64-2 96-10 96-25 0-7-12-15-35-24 2-29 6-56 13-80h189l43 52c17-13 37-32 61-58l-12-19H595c22-71 52-127 89-166 25-28 52-51 82-70 23-14 39-21 49-21 20 0 34 43 42 130l27-15c-4-40-6-69-6-88 0-32 9-51 28-55-3-30-17-45-43-45-22 0-50 8-82 25-59 30-107 68-145 114-44 55-76 118-95 188H8l-8 25h535m200 20c-13 0-22 7-29 22-10 22-34 42-72 59l9 19c82-13 123-36 123-69 0-21-10-31-31-31Z"/></symbol><symbol id="𮗬_J" viewBox="0 0 1000 1000" data-size="21"><path transform="matrix(1 0 0 -1 47 950)" d="M538 63V0h-57v437c23-9 46-19 69-30h229l39 47c42-34 62-55 62-64 0-4-2-7-6-10l-26-18V0h-57v63H538m0 25h253v140H538V88m0 164h253v130H538V252M75 602c-16-20-33-39-51-57L5 561c69 95 118 207 149 335 61-5 91-14 91-25 0-8-13-16-40-24-1-4-4-10-8-21-2-7-4-13-6-17h84l36 42c36-32 54-53 54-63 0-4-3-7-9-10l-25-10c-21-39-49-79-81-121h87l36 44c36-30 54-49 54-58 0-4-2-7-6-10l-24-17V83c0-49-30-73-91-73 0 18-10 31-28 38-15 5-39 11-72 17v25c35-4 70-6 104-6 23 0 35 8 35 25v174H128C121 169 85 75 21 1L0 16c50 83 75 190 75 321v265m37 52 19-7h89c22 41 42 87 58 137h-98c-18-43-40-86-68-130m17-346h77v149h-77V308m0 174h77v140h-77V482m129-174h87v149h-87V308m0 174h87v140h-87V482m277 213c97 40 181 91 252 153 46-29 69-50 69-61 0-10-17-13-50-8-80-43-170-80-271-111v-84c0-14 4-22 13-26 10-4 48-5 114-5 63 0 104 2 123 6 14 3 23 9 28 19 10 19 17 58 21 119l25-9c0-52 4-86 13-101 6-12 17-18 35-19-1-31-13-50-37-57s-92-10-203-10c-102 0-161 6-175 19-11 9-16 28-16 57v322c66-1 99-9 99-24 0-8-13-18-40-28V695Z"/></symbol><symbol id="𮗭_J" viewBox="0 0 1000 1000" data-size="21"><path transform="matrix(1 0 0 -1 36 954)" d="M528 540v-50h-55v373c23-10 45-21 65-31h229l37 46c42-32 63-53 63-63 0-3-3-7-8-10l-28-18V504h-56v36H528m0 152h247v115H528V692m0-25V563h247v104H528M75 613c-16-20-33-39-51-57L5 572c69 95 118 207 149 335 61-6 91-14 91-26 0-7-13-15-40-24-1-3-4-10-8-20-2-8-4-13-6-18h84l36 42c36-32 54-53 54-63 0-3-3-6-9-9l-25-11c-23-41-50-81-81-120h87l36 44c36-30 54-50 54-58 0-4-2-7-6-10l-24-17V94c0-49-30-73-91-73 0 18-10 31-28 38-15 5-39 11-72 17v25c35-4 70-6 104-6 23 0 35 8 35 25v173H128C121 180 85 86 21 12L0 26c50 83 75 190 75 322v265m37 52 19-7h89c22 41 42 86 58 136h-98c-18-42-40-85-68-129m17-347h77v150h-77V318m0 175h77v140h-77V493m129-175h87v150h-87V318m0 175h87v140h-87V493m406-335C595 93 511 40 412 0l-15 23c86 40 163 97 232 170-30 32-57 71-82 117-14 25-30 63-48 113h-65l-11 25h344l35 45c43-35 65-56 65-66 0-5-3-9-10-12l-29-15c-29-76-71-145-128-207 57-42 133-78 228-108-24-16-41-35-52-57-87 37-157 80-212 130M532 423c31-82 73-147 127-196 52 64 89 129 111 196H532Z"/></symbol><symbol id="𮗮_J" viewBox="0 0 1000 1000" data-size="21"><path transform="matrix(1 0 0 -1 26 952)" d="M722 693V528h102l43 60c24-23 42-45 55-65l-11-20H722V311h110l46 61c24-21 45-43 63-65l-12-21H722V11h-59v275H458l-9 25h214v192H503l-10 25h170v165H547c-26-49-55-94-89-133l-19 13c49 77 89 187 118 330 58-9 87-19 87-31 0-8-13-16-39-24-11-44-26-88-46-130h286l45 59c25-23 44-45 58-65l-12-19H722M163 528h204l36 46c37-29 56-48 56-58 0-5-2-9-7-12l-22-16V88c0-53-31-79-92-78-1 27-32 46-93 55v25c34-5 68-7 102-7 19 0 29 10 29 29v144h-89V127h-52v129h-87C138 150 104 64 45 0L24 14c48 74 72 179 72 315v229c18-6 40-16 67-30m213-141h-89V281h89v106m0 25v91h-89v-91h89m-141 91h-84v-91h84v91m-85-222h85v106h-84v-62c0-20 0-35-1-44m27 485h195l43 60c23-23 42-45 55-65l-11-20H168c-13-34-27-65-42-94h205l43 60c23-23 42-45 55-65l-11-20H112c-26-46-57-90-93-131L0 505c40 56 72 120 98 191 19 52 37 118 55 198 58-9 87-19 87-31 0-8-13-16-39-24-7-23-15-48-24-73Z"/></symbol><symbol id="𮗯_S" viewBox="0 0 1000 1000" data-size="21"><path transform="matrix(1 0 0 -1 36 964)" d="m468 848 55-28 177 56 136 48 3-9 49-41 1-17-22 11-13-5-70-18-71-16-71-14-36-4-35-5-36-3h-5V485l-3-63-5-61-8-56-11-55-13-51-15-47-20-44-21-40-25-36-27-32-8 6 19 36 15 38 15 41 14 43 10 46 8 49 7 53 4 54 2 59v423M137 339l-2-37h70v173h-68V339M383 92l-1-13-2-12-3-12-6-11-7-11-10-8-10-6-12-5-12-2-12-1v28l-81 15v14h86l3 1 2 1h2v2l1 1 1 2 1 4 1 6 1 7h58m207-11-5 10 9 3v549l49-24 149 97 38 27 4 3 17-24 23-26v-18l-19 9-35-19-47-22-24-11-23-10-4-1 10-66 15-76 11-49 59 53 28 26 29 31v1l5 5 42-48 2-19-21 6-27-16-33-20-37-18-21-9-20-8-2-1 17-69 20-60 21-55 24-48 24-44 28-39 32-38-56-42-30 42-27 45-24 50-20 55-18 59-16 64-11 68-10 74-5 78-1 63-33-11-21-4V109l28 6 45 9 25 4 27 5 2-9-23-11-82-41-45-24-2-1-4-23-17 10-2 5v1l-1 2-1 2-4 10-3 8-1 1-2 4-1 1v2l-5 10v1m-5 10 25-57-35 53 10 4M325 475h-67V302h67v173M205 664h-68V496h68v168m120 0h-67V496h67v168m-62 157h-82l-35-74-21-36-9-16 21-10h75l5 9 7 17 7 17 19 49 5 16 5 17 3 11M79 339v298l-19-30-25-31-27-30-8 6 69 142 32 74 13 37 27 77 13 47 58-28 12-14-19-4-16-40h77l31 26 58-48-26-15-13-5-15-29-11-15-22-30-12-15-13-14-14-13h96l29 26 55-47-26-18V92h-58v189H134l-3-32-6-40-7-38-10-36-9-33-13-30-15-27-16-24L36 0l-7 5 10 25 9 25 9 28 6 29 6 32 4 34 4 36 2 40 1 41-1 44Z"/></symbol><symbol id="𮗰_K" viewBox="0 0 1000 1000" data-size="21"><path transform="matrix(1 0 0 -1 35 946)" d="m427 814 70-2h290l38 41 55-39c8-5 11-10 7-14-3-3-9-5-19-5H670c13-5 18-10 17-14-2-4-13-7-33-9l-15-127h129l28 26 46-27c15-13 21-21 18-25-2-4-13-7-35-10l-14-173h12l40 43 57-39c8-4 11-9 9-13-2-5-8-8-19-8H479l-65-6-16 25 64-2h101l27 192h-70l-67-5-11 23 72-1h78l18 150H503l-63-3-13 22m354-186H637l-26-192h154l16 192M479 280l-6 52 49-24h252l26 24 39-27c17-13 22-22 15-28-6-4-14-6-24-6V61c0-18-1-29-3-34-2-6-10-11-21-15-11-3-17-2-19 4-2 2-2 10-1 22l1 22H524V42c0-12 0-21-2-24-1-5-8-9-19-13-13-3-21-3-24 1-2 3-3 10-1 19l1 12v243m45 11V74h262v217H524M132 638h81l62 129H158c-21-43-41-78-61-105l35-24m-51-1c-10-13-21-26-34-41s-26-29-40-40l-7 9c33 41 63 92 91 153s51 119 67 174l50-23c21-11 27-20 18-27-6-3-17-6-32-7l-28-54h99l36 31 46-36c13-11 18-19 12-24s-22-7-46-7l-78-107h92l35 30 38-26c21-14 27-24 21-31-5-4-15-7-31-8V92c0-24-8-44-25-59-16-15-38-24-65-26-2 17-9 29-20 37-13 10-41 22-82 36l5 9 24-2 48-8 25-3c15 0 26 0 32 1 6 3 9 9 9 16v196H127c-3-44-15-94-34-150C74 82 50 36 22 0L11 7c24 47 43 100 56 159 14 60 21 128 21 204l-3 214-4 53m51-16V479h81v142h-81m209-142v142h-82c15-6 21-11 18-16-3-3-10-7-22-9V479h86m0-18h-86V305h86v156m-209 0-1-95c-1-36-2-56-4-61h83v156h-78Z"/></symbol><symbol id="𮗱_K" viewBox="0 0 1000 1000" data-size="21"><path transform="matrix(1 0 0 -1 30 948)" d="m881 429 49-43c9-8 12-14 8-18-2-3-8-4-16-4H793V43c1-2 1-5 1-7 2-7 2-13 0-17s-9-9-21-14-20-4-23 2c-2 3-2 11 0 22l1 14v321H611c-2-93-16-164-41-214-30-64-82-110-158-138l-3 9c59 29 101 73 128 132 24 53 37 123 39 211h-85l-65-3-8 21h158c1 20 1 42 1 66 0 14 0 38-1 70v12c42-10 65-17 69-23 3-5-7-11-29-19v-24c-1-19-2-33-2-41 0-15-1-28-2-41h140v118l-4 41 50-17c17-8 25-14 24-17-2-3-11-6-29-8V382h51l37 47M694 882c21-5 28-11 22-17-4-5-14-9-28-14V750h149l31 43 50-43c6-4 8-8 6-11-3-4-10-6-21-6H724l81-68c45-37 73-60 84-69 10-9 20-25 28-48 4-22 2-36-6-42-10-7-21 0-35 21-9 13-15 21-18 24-2 4-10 14-22 29-50-8-94-15-132-21-38-5-79-11-124-18l-91-19-3-8c-4-17-7-27-10-30-6-5-12 2-19 23l-19 50 82 7 71 169H484l-62-6-9 25 59-2h173v96l-3 52 52-16m-63-168c-17-30-32-56-46-80-16-25-32-48-48-69l33 3c67 4 117 8 150 11 32 4 68 8 107 12l-73 87-47 55h-59c11-10 12-17 4-19-4-2-11-2-21 0m-220-78c10-13 11-22 4-29-3-4-8-6-16-7V98c0-23-6-42-20-57s-32-24-56-27l-1 14c0 13-3 22-10 28-11 11-36 22-75 34l6 9c9-2 19-4 32-7 8-1 18-2 31-4l15-3c10-2 17-1 22 1s8 7 10 13v194H139c-4-38-15-81-34-129C84 108 58 62 28 26l-7 7c27 42 48 93 62 155 12 54 18 115 20 184l-6 220c0 13-1 21-1 25 0 7-1 11-1 13-10-12-22-24-37-38-18-14-35-27-51-40l-7 7c42 34 81 84 119 151 31 56 56 115 74 176l44-23c26-12 34-20 26-25-5-4-18-6-38-7l-1-1-8-13-22-41h77l36 28 45-33c15-11 20-19 15-23-5-5-21-7-48-6l-73-110h92l35 32 38-28M184 758c-13-22-24-41-34-55-11-18-23-34-36-48l29-23h86l52 126h-97m169-140h-82c15-5 21-11 18-16-3-4-11-7-22-8V477h86v141m-128 0h-82V477h82v141m128-157h-87V307h87v154m-129 0h-81v-93c-1-33-2-54-2-61h83v154Z"/></symbol><symbol id="𮗲_J" viewBox="0 0 1000 1000" data-size="21"><path transform="matrix(1 0 0 -1 27 949)" d="M73 601c-16-22-33-44-51-66L1 551c72 104 120 220 146 347 58-6 87-16 87-29 0-8-12-15-37-20l-15-42h81l36 42c35-34 53-53 53-59 0-5-4-8-10-11l-21-10c-22-42-49-84-80-124h79l36 42c36-30 55-48 55-56 0-3-1-5-3-6l-26-18V78c0-35-13-56-39-64-12-4-29-6-50-6-1 17-10 29-26 36-15 5-38 11-70 17v26c42-6 75-8 99-8 21 0 31 9 31 28v174H126C118 170 83 77 21 2L0 17c49 80 73 190 73 330v254m34 52c7-2 14-5 21-8h85c26 53 43 98 53 137h-94c-16-40-38-83-65-129m20-347h72v149h-71V347c0-19 0-33-1-41m124 0h76v149h-76V306M128 480h71v140h-71V480m123 0h76v140h-76V480m420 241c-24-56-52-108-83-157 78 3 148 6 211 11-18 30-41 60-70 89l16 17c55-33 96-68 124-106 19-26 28-49 28-68 0-24-10-36-31-36-16 0-27 11-34 35-5 14-11 29-18 44-87-14-199-28-337-41-6-21-13-31-20-31-15 0-26 27-34 83 40 0 84 1 132 2 18 48 34 100 47 158H414l-10 25h220v150c64-1 97-10 97-24 0-9-14-18-41-28v-98h145l41 60c23-21 43-43 61-66l-10-19H671m84-258c59-2 89-10 89-23 0-9-12-17-36-24V82c0-18 10-27 29-27 17 0 29 9 34 28 9 31 15 76 18 135l25-13c-1-14-1-30-1-46 0-43 3-70 8-82 4-9 12-13 25-13-1-25-8-41-22-47-12-7-39-10-81-10-37 0-61 3-71 10-11 7-17 25-17 53v393M627 48v386c57-3 86-11 86-24 0-8-12-16-34-25V48h-52M402 0l-16 20c77 59 116 158 116 296v134c60-3 89-11 89-23 0-7-11-15-35-25v-86c0-154-51-259-154-316Z"/></symbol><symbol id="𮗳_K" viewBox="0 0 1000 1000" data-size="21"><path transform="matrix(1 0 0 -1 62 937)" d="M391 632c7-8 11-14 11-20s-9-10-28-14V138c0-37-1-59-2-67-3-15-8-24-17-29l-36-20c-9-6-17-9-22-9s-8 6-10 18c-1 13-6 21-14 25l-72 20 5 11 90-14c17-2 27 3 31 16 3 5 4 19 4 42v148H114c-6-59-18-113-37-162S37 31 14 4L4 11c24 34 43 84 56 149 13 66 19 141 19 227v197l-8 23c-17-24-38-47-62-71l-9 8c36 47 65 98 88 153 23 56 41 115 54 176l49-15c11-5 16-10 16-14 0-5-9-10-27-15-5-16-10-30-17-42h101l14 20c7 9 12 13 14 13 3 0 10-5 21-16l28-26c7-7 11-14 11-18 0-9-14-14-40-16l-78-107h85l15 19c8 9 13 14 15 14s9-5 19-16l23-22M271 767H154c-18-47-34-81-48-105l30-25h78l57 130m60-299v149h-84V468h84m-126 0v149h-84V468h84m126-169v149h-84V299h84m-126 0v149h-84c1-55 0-105-3-149h87m656 147c10-15 15-24 15-28s-10-8-30-11c0-131-2-211-5-241-10-86-42-137-95-152L717 3c-7-2-13-3-17-3-5 0-8 2-8 7 0 1 1 4 1 8 1 3 1 6 1 7 0 9-5 14-14 17l-67 19 2 13 70-12c9-2 17-3 26-3 51 0 81 46 89 137 2 31 4 112 4 244H524c-13-21-28-41-45-61l-40-33c-16-16-33-30-50-42l-8 12c42 42 76 84 102 126 27 43 45 84 55 123h-44v-44c-1-6-8-9-21-11-8-3-13-4-16-4s-5 2-6 5v18c1 13 1 25 1 36v227l-4 47 53-29h243l18 22c7 7 10 11 9 11 2 0 7-4 15-13l25-25c9-11 14-18 14-23 0-6-10-10-30-11V576c0-31 0-45 1-43-1-5-9-9-23-11-8-3-14-4-16-4-3 0-4 1-5 3-1 3-1 8-1 15 1 11 1 20 1 26H593c11-9 17-15 17-18 0-5-11-8-33-11-14-30-28-55-42-77h261l15 22 11 11c3 0 8-5 17-16l22-27M752 694v93H494v-93h258m0-113v93H494v-93h258m-61-261 5-28c-6-1-17 0-35 5l-157-40-1-67c1-10 4-18 12-25 7-5 18-9 32-11 20 0 41 1 61 1 35 2 56 3 64 3 19 4 33 15 44 32 11 20 22 52 34 97l8-2-3-25c-3-23-5-40-6-51-2-18-3-32-3-43 19-9 28-17 27-24 0-8-12-12-34-15-16-3-52-4-108-4-34-1-70-1-108 0-24 3-40 9-48 18-8 8-11 21-11 39v91l-2 38 47-13v-18c64 26 113 50 148 71l34-29Z"/></symbol><symbol id="𮗴_K" viewBox="0 0 1000 1000" data-size="21"><path transform="matrix(1 0 0 -1 43 950)" d="M383 646c9-10 13-17 13-22s-9-10-28-14V134c0-41-1-64-4-70-4-11-18-24-44-38l-18-8c-9-5-16-7-21-7s-8 7-9 21c0 14-6 23-16 27l-57 16 6 14 71-10c8-1 14-1 19-1 13 0 21 4 24 11 4 6 5 20 5 40v155H102C83 177 52 90 10 21L0 27c48 87 71 229 71 425v170l-5 26c-12-19-29-40-50-63L6 596c25 29 53 74 86 133 32 60 57 117 75 170l35-15c18-8 27-15 27-20 0-6-10-12-32-16-6-11-17-28-33-52h97l9 12c5 6 10 9 13 9s8-2 14-7l23-23c9-8 14-15 14-20 0-8-15-13-45-17l-69-97h104l8 13c5 7 9 10 11 10s7-3 14-9l26-21M259 775H153c-15-26-35-58-62-97l24-25h90l54 122m65-291v149h-87V484h87m-131 0v149h-78V484h78m131-179v159h-87V305h87m-131 0v159h-78c1-40-2-94-10-159h88m698 159-6-19H771V326c-2-7-11-13-26-16-4-1-8-1-10-1-4 0-7 2-7 7l1 25h-96v-97h117l22 30c10 11 15 17 17 17s7-4 15-13l31-39-6-16H633v-87h160l20 30c13 10 18 16 17 16 3 0 8-5 17-14l36-37-8-15H633V55c2-11 3-19 3-24 0-12-8-21-24-27-6-3-11-4-13-4-6 0-9 4-9 13v103H384v20h206v87H426v21h164v97H478v19h112v85H415v22h175v89H478v20h112v61l-3 44 38-13c25-10 37-17 37-22s-10-12-29-20v-50h89l12 16c7 8 11 12 14 12 2 0 7-4 15-12l31-30c7-7 11-12 11-16 0-7-11-13-34-21v-58h37l16 25c7 11 12 17 15 17 2 0 9-5 19-15l33-30m-163 3v89h-95v-89h95m0-107v85h-95v-85h95m185 421-8-14H764c0-17 0-38 2-63-2-5-9-11-22-16-10-6-16-8-18-8-6 0-8 5-8 16 0 4 0 13 1 30 0 17 1 30 1 41H519c0-48 1-72 1-74-2-5-9-11-22-15-9-4-15-5-18-5-4 0-6 6-6 18 1 41 1 66 1 76h-94v21h94v63l-2 43 46-10c16-5 25-10 25-16s-9-13-25-20v-60h39l19 29c3 8 6 12 10 12 3 0 6-3 12-10l35-31h86v65l-2 41 44-10c17-5 26-10 26-17s-8-13-24-19v-60h51l23 28c6 11 10 16 12 16 0 0 7-6 20-17l43-34Z"/></symbol><symbol id="𮗵_K" viewBox="0 0 1000 1000" data-size="21"><path transform="matrix(1 0 0 -1 56 948)" d="m789 562 32 37 54-46c13-13 17-22 11-29-6-5-23-8-51-8-12-11-28-25-47-41-19-15-36-28-53-39l-6 10c8 10 18 23 30 40 12 19 24 38 36 59H280l34-14c19-9 27-16 26-20-2-5-13-9-31-12l-10-11c-4-6-7-11-10-13-4-5-9-10-15-16h269l37 43 59-43c15-11 19-20 11-25-6-6-21-9-45-10l-106-61h214l32 27 52-26c13-10 17-17 12-23-6-5-17-8-34-9V76c0-22-8-40-25-54-17-11-41-19-71-22v6c0 6-1 11-1 15-2 5-6 10-12 13l-84 29 2 12c57-10 96-12 117-7 18 5 28 16 28 33v64H209c-12-30-27-56-46-78-23-25-56-48-97-68l-7 12c48 36 81 78 98 125 18 49 26 119 22 211-22-14-45-27-70-40s-53-25-83-35l-5 10c55 32 96 60 124 85 44 39 85 92 121 158H98c-2-35-6-65-13-89-9-30-23-52-41-66-8-6-16-7-23-4-7 2-12 6-16 13-4 9-5 18-3 27 2 10 7 19 17 28 16 18 29 37 38 55 13 26 21 56 24 91h11c1-6 2-12 4-19 1-5 2-12 3-19h690M225 346v-73h214v73H225m263-90v-74h241v74H488m8 90c15-6 22-10 21-15-2-4-12-9-29-15v-43h241v73H496m-271-90c-2-16-4-29-5-38-2-10-4-22-6-36h225v74H225m-1 107h254l66 78H261c-10-11-20-22-32-31-10-12-21-22-34-30l29-17m546 473c13-10 18-17 17-21-1-3-15-4-41-1l-142-61-11 10c25 15 49 31 71 47 25 17 49 35 69 52l37-26m-27-202c1-11-2-19-8-27-6-7-13-5-22 8-11 17-26 34-46 51-27 23-60 42-99 57-13-32-30-60-52-84-21-22-48-44-82-68l-8 8c51 48 85 94 103 139 18 43 28 102 32 178l43-7c21-6 30-10 30-13-2-4-12-8-31-13-5-28-9-51-13-69-4-22-9-41-16-58 55-15 95-30 120-45 27-15 43-34 49-57M476 872c3-46 4-81 1-106-3-24-10-47-22-68-9-11-17-15-24-13-9 2-16 15-20 38 0 2 1 5 2 8 1 2 4 5 8 9 11 11 19 23 23 35 11 24 16 56 17 97h15m-85-52c11-7 15-12 13-14-2-3-16-4-40-3-15-7-34-17-56-28-13-5-32-13-57-24l-2-1-6-21c-2-6-5-13-7-20l25-11c34-16 57-28 67-35 14-10 24-24 29-41 5-21 2-33-8-35-11-3-20 3-27 17s-19 30-35 47c-18 19-37 35-56 46-11-25-26-48-44-69-17-20-37-38-62-56l-9 10c41 30 69 70 85 119 14 48 21 113 19 194l38-6c22-4 33-7 33-12-1-5-11-10-30-15-2-21-3-37-3-49-1-16-3-31-5-44 16 13 32 26 49 38 18 14 34 27 48 39l41-26m-236 45c2-38 0-70-5-96-5-32-15-58-31-78-8-7-16-6-23 1-7 9-11 21-11 36 0 3 1 6 3 9 1 1 2 3 6 6 11 9 20 20 26 31 11 22 19 52 26 92l9-1Z"/></symbol><symbol id="𮗶_K" viewBox="0 0 1000 1000" data-size="21"><path transform="matrix(1 0 0 -1 39 949)" d="m554 834 24 32 44-32c9-8 13-14 11-21-1-4-9-9-22-16V618c2-7 2-12 0-15-2-4-8-9-20-14-13-5-21-6-24-3-2 2-2 8-1 18l1 28h-81v-22c1-9 1-15-1-18s-8-7-19-12c-15-5-23-7-25-4-1 2-1 9-1 22l1 24v171l-2 63 53-22h62m13-16h-82V649h82v169m232 16 25 32 42-32c11-8 15-14 13-21-1-4-8-9-21-16V618c1-7 1-12-1-15-2-4-8-9-19-14-14-5-22-6-25-3-1 2-1 8 0 20v26h-84v-22c1-9 1-15 0-18-3-3-10-7-21-12-14-5-22-7-24-4-2 2-3 10-1 22l3 28v167l-5 63 53-22h65m14-16h-84V649h84v169m-55-361c21-6 32-13 31-20 0-6-9-12-26-15V176l41 6 39 61 62-43c10-6 14-11 12-16-2-3-8-7-19-10l-135-15V43c1-9 1-15 0-19-3-6-10-12-23-17-15-6-24-7-26-2-2 2-3 10-2 23l2 17v109l-255-27-75-10-16 22 81 4 265 27v254l-2 49 46-16M412 340c35-12 67-27 97-44s51-33 64-46c9-9 15-21 16-37 1-11-1-19-6-25-5-5-12-6-20-2-9 5-18 14-27 27-13 20-30 40-52 61-20 21-46 40-75 58l3 8m103 100c41-14 74-28 97-43 24-15 41-28 49-38 8-17 13-31 15-42 0-14-2-23-8-28-7-5-14-4-22 1-10 7-18 20-25 38-12 17-24 32-35 45s-36 32-73 58l2 9m301 79 37 35 44-31c21-17 29-29 25-35s-21-9-52-9l-65-87-10 4 28 107H438c-1-17-3-34-7-52s-10-34-18-48c-10-14-20-21-30-23-8-2-14 0-19 6-5 8-7 17-7 26 1 10 5 18 12 26 20 18 34 36 44 53s16 42 19 72h10l-2-44h376M132 645h63l61 129h-98c-21-43-41-78-61-104l35-25m-51-1c-10-12-21-26-34-41s-26-28-40-40l-7 10c33 40 63 91 91 152s51 119 67 174l50-22c21-11 27-21 17-28-6-3-16-5-31-7l-28-53h81l36 30 46-35c12-11 16-19 11-25-6-4-21-6-46-6l-78-108h74l35 30 39-26c20-14 27-24 20-30-5-4-15-7-30-9V99c0-24-9-43-26-58-16-15-38-24-65-27-2 17-9 30-20 37-14 10-41 22-82 37l5 8 23-2 49-7 25-3c15-1 26-1 32 1 6 3 9 8 9 15v197H127c-3-44-15-94-34-151C74 90 50 43 22 7l-11 7c24 47 43 100 56 160 14 59 21 127 21 204l-3 213-4 53m51-15V487h63v142h-63m172-142v142h-63c14-6 19-11 17-16-3-4-10-7-21-10V487h67m0-19h-67V312h67v156m-172 0-1-94c-1-36-2-57-4-62h65v156h-60Z"/></symbol><symbol id="𮗷_J" viewBox="0 0 1000 1000" data-size="21"><path transform="matrix(1 0 0 -1 69 940)" d="M127 318h163l37 45c40-33 59-54 59-63 0-5-3-9-9-13l-24-15V2h-55v64H119V2H63v349c24-10 45-21 64-33m-8-25V91h179v202H119m434 474V0h-58v828c22-10 46-22 70-36h195l39 51c42-35 63-57 63-66 0-4-3-8-9-12l-26-17V241c0-60-35-89-104-88-2 14-5 24-10 29-5 7-18 13-36 18-16 5-46 12-91 20v28c60-7 108-10 146-10 25 0 38 11 38 32v497H553M65 546l-9 25h224l46 58c22-21 41-43 58-66l-11-17H65m13 251-9 25h202l47 58c23-21 43-43 60-65l-11-18H78M66 421l-10 25h225l46 58c23-22 42-43 58-64l-13-19H66M7 671l-7 25h325l49 60c23-22 44-44 62-67l-10-18H7Z"/></symbol><symbol id="𮗸_S" viewBox="0 0 1000 1000" data-size="21"><path transform="matrix(1 0 0 -1 43 946)" d="m21 320 63-31h174l31 26 58-47-27-21V68l-62-31v31H84V31L21 0v320m499 179-4-68-8-64-12-60-15-57-19-52-24-48-27-43-30-39-36-33-39-28-6 8 31 34 27 37 24 39 21 43 17 46 15 50 10 52 7 58 4 61v64h64m170 325H520V499h-64v378l64-32h170l32 26 57-47-26-21V142l1-6v-5l1-3 2-2v-1l1-1 2-1 4-1 4-1h83l31 131h10l-10-131 18-13 13-19-13-19-18-12H774l-13 1-14 2-12 4-11 7-11 8-9 11-7 12-4 12-3 14v695M258 268H84V89h174v179m0 205 62-53v-21H21v21h184l53 53m0 136 62-52v-22H21v22h184l53 52m47 147 63-53v-20H0v20h252l53 53m-47 137 62-53v-21H21v21h184l53 53Z"/></symbol><symbol id="𮗹_G" viewBox="0 0 1000 1000" data-size="21"><path transform="matrix(1 0 0 -1 21 973)" d="m589 941 80-27c9-3 14-7 15-11-10-3-21-9-32-20v-94c1-47-1-96-5-149h178l31 39 63-49c5-3 8-6 7-8-1-1-5-2-12-2H676c13-94 30-175 49-244 37-116 74-195 110-236 34-42 75-71 123-86V36h-7c-38 4-62-3-71-20-47 43-83 89-109 140-29 57-52 117-69 179-20 69-35 164-45 285h-12c-3-40-7-82-13-126-16-113-44-208-85-285C504 127 426 57 314 0l-10 13c98 61 171 140 219 236 40 82 66 206 79 371H464c-15 1-29-3-42-12l-32 32h214c2 38 4 78 5 120v133c-2 13-11 25-27 36l7 12m-489-6 4 10c46-17 79-36 99-57 19-23 28-45 26-67-1-21-9-33-22-35-15-2-23 9-24 32-2 23-9 44-20 63-14 18-35 36-63 54M41 474h240l24 33 60-43c5-3 6-6 5-8-1-1-4-2-11-2H112c-11 0-24-4-37-12l-34 32m-7 141h249l24 34 60-43c5-3 7-6 6-8s-5-3-12-3H104c-12 0-24-4-36-13l-34 33M0 756h310l29 38 63-49c5-3 7-5 6-7-1-1-5-2-12-2H78c-19 0-34-4-45-13L0 756m289-450H113V140h176v166M68 367l38-41h163l34 41 51-49c5-4 7-8 6-11s-5-5-12-6l-17-9V139l4-40c1-16-2-27-11-32-8-6-20-10-35-12v65H113V66c1-14-4-25-14-32-9-5-20-10-35-13 3 25 5 66 7 123v170c-4 15-10 29-19 42l16 11Z"/></symbol><symbol id="𮗺_G" viewBox="0 0 1000 1000" data-size="21"><path transform="matrix(1 0 0 -1 37 974)" d="M628 822H281c44-45 91-81 142-110 4-2 9-5 15-9 7-3 13-6 16-8 21 11 45 26 71 44 35 23 70 50 103 83m280-230 3-17c-30-2-48-5-54-9-8-5-12-14-12-28-59 9-127 24-204 45-65 18-125 41-182 70-42-23-101-49-178-76-76-26-165-47-268-64v18c61 14 127 33 199 58 73 25 134 50 185 75 5 4 12 8 21 11-52 30-102 74-151 131-55-62-118-110-191-144l-8 12c47 36 84 67 112 94 29 27 54 57 77 88 23 32 35 51 36 58 2 8 0 17-7 28l8 5 69-34c5-3 7-5 6-8 0-2-3-3-8-4-13-1-23-5-30-13-11-17-22-32-35-46h333l32 27 54-48c3-3 5-6 4-8 0-2-2-3-7-4-6 10-46-15-121-75-23-17-54-37-93-60 26-12 60-24 102-35 87-25 164-39 230-44 17-1 43-2 78-3m-530-22 4 13c42-3 74-15 95-34 23-31 22-50-3-57-7 0-16 7-26 21-7 10-12 17-16 22-9 10-27 22-54 35M132 379h544l26 31 62-39c5-4 8-7 7-8s-5-2-13-2H207c-17 1-32-4-44-13l-31 31m0-86h545l25 31 63-38c5-4 7-7 6-9-1-1-5-2-12-2H207c-17 1-32-5-44-17l-31 35M0 467h823l32 32 63-40c5-4 8-7 7-9s-5-3-13-3H76c-18 1-33-4-44-13L0 467M220 76h472v112H220V76m-52 165 42-35h466l34 39 49-40c5-4 6-8 5-11s-4-5-11-6l-18-9v-70l5-57c2-17-14-29-48-35v41H220V42c2-23-15-37-51-42 3 24 6 55 7 93v102c-1 12-8 24-20 35l12 11Z"/></symbol><symbol id="𮗻_S" viewBox="0 0 1000 1000" data-size="21"><path transform="matrix(1 0 0 -1 49 962)" d="m576 446-4-67-1-7h131v294H576V446M21 325l63-31h174l31 26 58-48-27-20V52l-62-31v52H84V36L21 5v320m237-53H84V94h174v178m0 206 62-53v-21H21v21h184l53 53m0 136 62-52v-22H21v22h184l53 52m47 147 63-53v-20H0v20h252l53 53m-47 136 62-52v-21H21v21h184l53 52m255-514v283H403v22h110v236l63-11 16-11-16-8V688h126v236l64-11 15-11-15-8V688h14l53 52 63-52v-22H766V372h20l52 53 63-53v-20H766V31L702 0v352H568l-4-35-11-57-17-53-20-49-25-42-28-38-33-32-37-25-40-20-5 8 33 27 29 30 26 34 21 36 19 41 14 45 11 49 8 53 2 28H394v20h119v11Z"/></symbol><symbol id="𮗼_S" viewBox="0 0 1000 1000" data-size="21"><path transform="matrix(1 0 0 -1 47 959)" d="m820 188-28 37-26 42-24 45-23 47-21 53-18 57-18 60-7 30V31L593 0v495l-15-39-24-60-29-56-29-52-31-47-34-43-36-37-40-33-6 7 31 39 28 42 28 44 25 48 24 51 23 55 20 60 20 63 17 67 11 52H365v22h228v241l62-11 16-10-16-9V678h113l52 51 63-51v-22H655v-20l36-98 24-57 23-51 26-48 24-45 26-40 28-35 27-31 28-27 9-8-56-42-30 34M21 331l63-31h174l31 26 58-48-27-20V58l-62-32v53H84V42L21 11v320m237-53H84V100h174v178m0 205 62-52v-21H21v21h184l53 52m0 137 62-53v-21H21v21h184l53 53m47 147 63-53v-21H0v21h252l53 53m-47 136 62-52v-21H21v21h184l53 52Z"/></symbol><symbol id="𮗽_J" viewBox="0 0 1000 1000" data-size="21"><path transform="matrix(1 0 0 -1 58 950)" d="M433 617c54-3 81-10 81-21 0-7-13-14-39-21V435c67 38 124 87 174 145 49-34 74-57 74-69 0-6-6-9-19-9-9 0-20 1-32 4-63-47-129-81-197-104V248c0-19 6-31 17-35s38-6 79-6c38 0 63 2 73 7 12 5 21 20 27 45 7 25 12 64 17 119l25-10c0-73 3-117 10-133 5-12 14-17 26-17-1-24-10-40-26-49-20-11-70-16-150-16-76 0-121 7-137 22-11 11-17 31-17 59v358c-21-37-46-73-74-107l-21 15c66 106 111 239 135 400 66-11 99-24 99-39 0-9-15-16-44-22-9-40-20-79-35-118h311l36 46c39-34 59-54 59-62 0-4-3-8-8-12l-22-16V571c0-253-4-404-13-454C829 44 785 9 711 10c-1 18-12 32-32 40-17 7-49 14-97 23v27c62-8 108-12 138-12 37 0 58 17 63 52 8 61 13 207 14 438v118H469c-13-33-25-59-36-79M116 316h131l35 43c40-31 59-51 59-59 0-5-3-10-10-15l-22-16V0h-55v64H110V0H53v346c25-10 46-20 63-30m-6-25V89h144v202H110M71 795l-6 25h163l44 56c24-21 44-42 60-63l-11-18H71M55 543l-7 25h191l42 57c23-22 42-43 58-64l-11-18H55m1-124-8 25h192l42 55c24-22 43-42 57-61l-13-19H56M9 669l-9 25h283l46 59c24-22 44-44 60-66l-10-18H9Z"/></symbol><symbol id="𮗾_K" viewBox="0 0 1000 1000" data-size="21"><path transform="matrix(1 0 0 -1 54 943)" d="m38 817 49-2h146l39 39 48-37c10-4 13-8 9-13-4-4-10-6-19-6H102l-50-2-14 21M0 692l48-1h237l40 40 52-38c9-5 12-10 9-14s-10-5-22-5H63l-50-2-13 20m40-129h195l37 39 50-38c9-4 12-9 9-13-4-4-11-6-20-6H103l-50-2-13 20m4-125 48-1h146l37 40 50-38c11-4 14-9 9-13-3-5-10-7-20-7H106l-50-2-12 21m45-170V79h177v189H89m-48-8-4 56 49-33h169l27 30 41-33c18-12 23-21 16-25-5-3-13-5-25-5V60c0-15 0-25-1-29-4-5-12-10-24-13s-20-2-22 3c-2 3-2 11-1 25l1 17H89V42c0-14-1-22-3-26-3-5-10-8-23-10-12-3-18-2-21 2-1 2-2 9-2 18l1 8v226m551 572-6 55 65-21c21-6 27-13 21-20-3-3-12-6-27-9l-6-3V620h154l38 42 51-39c10-6 13-11 9-15-4-3-11-4-23-4H639V42c1-13 1-22 0-27-3-6-10-10-22-13-13-2-21-1-25 2-2 2-2 8-1 17l1 14v569H438l-67-3-13 21 66-2h168v212m73-353c36-34 66-68 91-102s46-70 63-108c7-15 16-21 29-20 9 8 15 22 15 40-3 27-23 60-60 99-37 38-81 72-132 101l-6-10Z"/></symbol><symbol id="𮗿_S" viewBox="0 0 1000 1000" data-size="21"><path transform="matrix(1 0 0 -1 49 965)" d="m161 203 64-31h460l32 25 57-47-26-20V31L685 0v31H225L161 0v203m524-53H225V53h460v97m22 138 42-37v-21H161v21h514l32 37m0 80 42-37v-20H161v20h514l32 37m142 94 52-47v-21H9v21h797l43 47m-147 86 52-47v-22H156v22h503l43 47m118 42-10-6-10-6-12-5-11-4-11-4-12-2-11-2-13-2-11-1h-12v32l-104 15v16h121l8 1 8 3 9 1 8 3 15 6 14 8 3 5 5 13 5 18 3 24 4 28 3 34 2 38 1 43 1 38H633l-4-38-11-45-17-42-23-39-29-34-34-32-40-27-44-23-50-19-56-15-3 9 51 25 44 25 39 27 32 29 28 30 21 31 16 34 10 35 6 39 1 30H429v20h384l31 27 57-47-26-17v-22l-4-84-3-35-4-32-5-27-5-24-7-21-10-17-17-15M15 605l-2 13v7h-1v7l-1 3v3l31 3 67 5 33 3v193H15v21h235l53 52 62-52v-21H205V655l103 8 45 3 45 2 2-10-88-22-122-27-139-28-10-2-9-17-12 13-1 6v3l-1 1v3l-2 13v1l-1 2v1m-4 33 9-63-20 61 11 2m806-43-19 31 1-1 1-1 1-2v-1h1l9-16 1-1 2-3 3-6Z"/></symbol><symbol id="𮘀_S" viewBox="0 0 1000 1000" data-size="21"><path transform="matrix(1 0 0 -1 39 962)" d="m834 145-28 34-27 35-24 37-23 38-19 40-19 42-14 42-3 9V31L614 0v370l-10-21-26-46-27-44-30-40-33-38-35-35-37-32-40-28-6 7 32 36 31 36 28 37 27 40 25 40 22 44 21 45 18 47 17 49 9 32H428v21h186v215H393v21h221v168l63-10 15-11-15-9V756h119l52 53 63-53v-21H677V520h77l53 52 62-52v-21H677v-12l31-61 43-75 23-36 25-34 26-31 28-31 29-30 40-36-57-42-31 34M21 331l64-31h176l31 26 58-48-27-20V58l-62-32v53H85V42L21 11v320m240-53H85V100h176v178m0 205 62-52v-21H21v21h187l53 52m0 137 62-53v-21H21v21h187l53 53m48 147 62-53v-21H0v21h256l53 53m-48 136 62-52v-21H21v21h187l53 52Z"/></symbol><symbol id="𮘁_J" viewBox="0 0 1000 1000" data-size="21"><path transform="matrix(1 0 0 -1 39 943)" d="M633 288V125c0-20 6-32 18-37 16-5 43-8 83-8 38 0 63 2 75 5 16 5 27 14 31 28 7 22 13 66 17 132l26-7c1-77 3-118 6-124 7-15 18-21 32-20-1-18-8-32-19-44-8-9-18-15-28-17-25-6-69-9-131-9-69 0-114 4-134 13-24 10-36 36-36 80v171H455v-74h-57v530c29-13 52-24 69-34h106v176c67-1 101-10 101-25 0-9-14-19-41-30V710h128l38 46c42-33 63-54 63-63 0-5-3-9-10-13l-27-17V227h-57v61H633m0 228h135v169H633V516m0-25V313h135v178H633m-60-178v178H455V313h118m0 203v169H455V516h118M115 64V0H59v350c25-12 47-24 67-37h121l37 43c38-30 58-50 58-59 0-4-3-9-10-13l-21-15V0h-55v64H115m0 25h141v200H115V89M75 795l-7 25h156l46 58c24-23 45-44 62-65l-11-18H75M60 544l-9 25h182l46 58c24-23 44-45 59-66l-11-17H60m0-125-9 25h183l46 58c23-22 42-43 58-64l-12-19H60M9 669l-9 25h265l49 60c26-24 47-46 63-67l-10-18H9Z"/></symbol><symbol id="𮘂_J" viewBox="0 0 1000 1000" data-size="21"><path transform="matrix(1 0 0 -1 53 939)" d="M110 64V0H53v350c22-10 44-21 65-34h132l35 45c39-33 58-54 58-64 0-5-3-9-9-12l-23-14V3h-54v61H110m0 25h147v202H110V89m379 725h262l39 44c37-29 56-49 56-59 0-5-3-9-9-12l-23-14V522h-55v41H481v-52h-56v340c24-11 45-23 64-37m-8-25V588h278v201H481m174-595c66-53 146-94 239-124-16-13-32-32-47-58-86 38-162 86-226 145C549 90 458 38 349 1l-14 23c95 39 178 96 249 170-57 64-105 139-143 225h-57l-11 25h353l37 45c39-33 58-54 58-65 0-5-3-9-10-13l-23-13c-31-68-75-136-133-204m-40 35c54 62 92 125 115 190H475c40-74 87-137 140-190M58 544l-10 25h196l44 57c22-21 41-43 57-65l-11-17H58m14 251-10 25h171l47 58c23-23 43-44 59-65l-11-18H72M59 419l-11 25h193l46 58c23-22 42-43 58-64l-12-19H59M9 669l-9 25h284l49 60c26-24 47-46 63-67l-10-18H9Z"/></symbol><symbol id="𮘃_S" viewBox="0 0 1000 1000" data-size="21"><path transform="matrix(1 0 0 -1 103 956)" d="m134 203 63-31h403l31 25 57-47-26-20V31L600 0v31H197L134 0v203m466-53H197V53h403v97m18 138 42-37v-21H137v21h448l33 37m0 80 42-37v-20H137v20h448l33 37m125 94 52-47v-21H1v21h699l43 47m-131 86 53-47v-22H132v22h437l43 47M456 892l63-33h179l31 27 58-47-26-22V661h-63v178H519V549l-63-32v375M12 646l-1 3v2l33 4 28 4v187l35-6 24 8 55 14 112 27 79 20 5 2 1-7 55-46 2-15-23 11-22-4-30-5-29-4-29-4-30-3-28-3-29-2-30-2h-43l4-3-15-9V665l7 2 66 7 68 7 34 2v6h63l-6-30-13-28-17-25-25-20-29-17-33-14-39-12-43-9-48-6-54-3-2 10 52 13 45 14 39 14 34 16 27 15 21 17 14 17 9 15 1 4-25-8-65-17-66-17-98-21-11-3-9-19-12 15v1l-3 15v4l-1 1-1 11-1 2v3l-1 1v2l-2 11v5m672-5 4 1 3 1 2 1h1l1 2 1 3 1 5 1 7h63l-1-14-2-12-4-13-6-12-10-10-9-9-13-6-13-5-13-2-13-1v31l-63 17v16h70M11 651l9-59-20 57 11 2m300 167 63-10 16-11-16-9v-99h-63v129Z"/></symbol><symbol id="𮘄_K" viewBox="0 0 1000 1000" data-size="21"><path transform="matrix(1 0 0 -1 59 919)" d="M435 580h149v204H435V580m358 204H646c10-4 15-8 14-11-1-4-10-7-26-10V580h159v204m-416 46 61-31h344l31 31 49-31c19-14 25-23 18-29-6-4-19-7-40-7V92c0-28-7-48-20-60s-39-21-79-26l-5 25c-3 7-8 13-15 18-11 7-32 17-61 28v11l15-1c19-4 33-6 42-6 13-3 23-4 31-4 16 0 27 1 33 3 8 2 12 8 12 16v262H634V62l1-22c0-11 0-18-2-21-3-3-11-8-25-13-12-5-20-5-23 0-2 3-3 12-2 26l1 19v307H430l-1-18c-4-85-12-145-24-180-17-53-53-104-108-154l-7 8c42 51 70 104 82 160 8 37 12 108 12 210v374l-7 72m53-455h154v189H435l-5-189m363 189H634V375h159v189M49 677h203l34 41 51-36c8-6 11-10 8-13-3-4-9-6-20-6H63l-49-3-14 21 49-4m28-126h132l37 40 49-36c9-4 12-8 8-12-4-5-10-7-20-7H93l-49-2-15 20 48-3m4-124h132l36 41 49-37c9-4 12-8 8-12-4-6-10-8-20-8H97l-51-1-14 20 49-3m-6 375h139l36 38 49-35c9-4 12-8 8-12-4-5-10-7-21-7H92l-50-2-14 20 47-2M27 309l47-33h143l29 29 51-33c12-10 15-17 9-21-4-4-14-5-30-5V53c1-13 0-22-3-25-2-5-9-10-21-15-12-2-20 0-23 5-2 3-3 12-2 26l1 14H77V38c0-13-1-22-3-26S64 5 53 3C42 0 35 0 31 4c-1 2-2 8-2 17l1 10v223l-3 55M77 74h151v186H77V74Z"/></symbol><symbol id="𮘅_K" viewBox="0 0 1000 1000" data-size="21"><path transform="matrix(1 0 0 -1 46 941)" d="m38 815 49-2h135l39 39 48-37c9-4 11-9 7-14-3-4-9-6-18-6H102l-50-2-14 22M0 690l48-1h225l40 40 51-38c9-5 12-10 9-15-3-3-10-5-20-5H63l-50-2-13 21m39-129 50-1h135l37 39 50-37c8-5 11-9 7-14-3-4-9-6-19-6H103l-50-2-14 21m5-125 48-2h135l37 40 49-37c10-5 12-9 8-14-3-4-9-7-18-7H106l-50-2-12 22m45-171V76h165v189H89m-48-8-5 57 50-33h155l30 29 41-32c16-13 21-21 13-26-4-3-11-5-22-5V57c0-15-1-24-2-28-4-6-12-10-25-14-11-3-19-2-21 3-2 3-2 12-1 25l1 18H89V39c0-13-1-22-3-26-3-5-11-8-23-10S45 1 42 5c-2 3-3 9-3 19l2 8v225m574 609c20-6 31-12 31-18-1-7-14-11-40-13v-1c32-73 73-137 124-192 53-55 112-94 178-116l-2-15c-19 1-33-1-44-8-9-6-18-15-25-26-46 34-91 80-134 137-42 57-78 124-106 201-24-73-60-141-109-202-48-62-102-113-162-156l-8 11c54 48 103 106 145 172s77 147 103 242l49-16m75-374 36 44 52-36c9-5 13-10 12-15-1-6-7-9-17-9H631c12-5 16-10 14-15-3-4-13-8-30-10V296h129l38 46 63-46c4-4 6-7 6-11-2-3-8-6-18-6H615V42c1-9 1-16-1-19-2-5-10-10-22-16-13-5-20-7-22-6-2 2-2 8-2 21l2 36v221H434l-65-2-15 20 86-1h130v180h-83l-64-2-16 20 91-2h192Z"/></symbol><symbol id="𮘆_S" viewBox="0 0 1000 1000" data-size="21"><path transform="matrix(1 0 0 -1 38 953)" d="m157 170 64-31h482l32 26 58-47-26-21V31L703 0v31H221L157 0v170m546-52H221V52h482v66m6 122 42-37v-20H173v20h503l33 37m0 70 42-38v-20H173v20h503l33 38m173 74 42-37v-21H0v21h850l32 37m-157 70 52-47v-21H146v21h536l43 47m-464 86 40-48-19-14-11-7-10-5-12-5-12-3-11-4-12-2-13-1h-13v31l-84 16v16h84l17 1 15 3 14 5 7 3 7 4 13 10m592-39-24 32-8 10-44-10-53-9-100-15-92-13-83-10-53-6-9-17-12 16v12l-1 1v17l-1 5v12l-1 4v12l73 1h27l139 260 49 96 53-35 9-16-20-1-93-152-48-71-47-61-18-19 77 3 47 2 50 2 52 2 53 1h37l-30 31-83 75 5 8 55-24 24-14 45-29 38-31 33-33 15-16 5-24-14-20-22-4-21 11-9 17m-481 41 3-63-14 62 11 1m-107 2 4 6 3 8 5 9 4 13 4 14 3 16 4 38 1 10H108l-2-8-69-13 48 178 44-39h160v82H31v21h258l31 26 58-47-26-21v-81l-63-31v31H135l-21-76h180l31 26 58-48-27-15h-1l-1-22-4-20-3-21-5-17-5-17-7-16-9-13-8-14-12-11-4 5-36 43 4 4Z"/></symbol><symbol id="𮘇_K" viewBox="0 0 1000 1000" data-size="21"><path transform="matrix(1 0 0 -1 48 932)" d="m777 720-382 2v-21h175V90c-53 25-103 64-148 119 19 38 37 144 56 317 5 3 12 6 18 9 7 4 10 8 10 12 0 5-8 11-25 17l-41 14c-19-205-40-333-63-384-27-61-69-123-126-186l8-8c57 51 108 116 153 193 56-76 122-126 198-150 45-14 119-21 223-22 27-1 40 3 40 13 1 12 10 21 29 28l1 13c-52-6-104-10-157-10-55 0-100 4-133 12v348h209l5 13-36 39c-6 7-12 10-17 10-3 0-7-3-13-10l-20-31H613v255l165-1-55-136 9-7 100 119c32 0 48 4 48 12 0 6-6 15-18 28l-26 30c-10 11-17 17-20 17s-10-6-18-16l-21-27m-460 99-5-12H49v20h181l18 25c6 8 9 12 11 12s7-3 16-10l42-35m24-142-6-13H0v22h249l18 30c7 10 11 14 11 14 3 0 8-4 17-13l46-40m-27-128-7-13H41v21h188l16 27c8 9 12 14 14 14s7-4 15-11l40-38m1-134-5-12H41v21h189l18 27c6 10 9 15 11 15s8-4 16-13l40-38m-19-120c6-8 9-14 9-18s-3-7-8-10c-5-4-10-7-16-11V103c0-31 1-46 1-44-1-6-9-11-24-16-6-2-10-3-13-3-4 0-7 15-7 44H81c-1-27-2-42-3-45-1-5-8-10-19-16-8-2-12-3-14-3-5 0-8 17-8 51v223l-4 41 52-30h143l10 15c7 7 11 11 12 11 2 0 7-3 16-10l30-26m-58-190v179H81V105h157Z"/></symbol><symbol id="𮘈_J" viewBox="0 0 1000 1000" data-size="21"><path transform="matrix(1 0 0 -1 44 951)" d="M583 372H446v-51h-53v297c61-4 91-12 91-27 0-7-12-16-38-28V396h139c1 10 1 24 1 43v242c65-2 97-11 97-27 0-8-14-16-42-26V439c0-19 0-33-1-43h147v224c61-3 91-12 91-27 0-7-13-17-38-28V323h-53v49H647c52-149 140-252 265-310-20-15-37-33-49-56-112 67-188 175-230 326-14-90-47-163-100-219C487 65 426 28 347 0l-15 21c149 66 233 183 251 351m-466-46h122l35 42c39-33 59-54 59-62 0-6-4-10-10-13l-24-14V10h-54v64H111V10H54v345c25-9 46-19 63-29m-6-25V99h134v202H111m472 456v146c66-3 99-11 99-25 0-8-14-17-41-27v-94h154l45 58c25-24 45-46 60-67l-10-16H375l-12 25h220M57 554l-10 25h183l47 58c24-23 44-45 59-66l-11-17H57m15 251-9 25h145l51 58c24-24 44-45 58-65l-11-18H72M57 429l-10 25h184l47 58c23-22 42-43 58-64l-13-19H57M10 678 0 703h263l50 61c25-23 46-45 62-66l-10-20H10Z"/></symbol><symbol id="𮘉_S" viewBox="0 0 1000 1000" data-size="21"><path transform="matrix(1 0 0 -1 56 957)" d="m17 320 62-31h153l32 26 57-47-25-21V68l-64-31v31H79V31L17 0v320m792 593 63-10 16-10-16-10V84l-1-13-2-13-5-13-6-12-8-11-10-8-13-7-13-4-12-2-14-1v31l-63 16v16h70l5 1 4 2 2 1v1l1 1 1 4 1 5v835M450 515v-11h67v315h-67V515M232 268H79V89h153v179m438 567 63-11 16-11-16-8V205l-63-32v662M229 473l64-53v-21H20v21h158l51 53m0 136 64-52v-22H20v22h158l51 52m54 142 53-48v-20H0v20h240l43 48m-54 142 64-53v-21H20v21h158l51 53m164-389v315h-77v21h206l53 53 64-53v-21h-65V504h26l24 31 31-31v-21h-81V30L517 2v481h-68l-2-46-5-72-7-66-11-62-13-53-15-49-19-43-22-37-23-31-27-22-6 7 18 27 17 31 14 37 13 42 11 46 8 54 7 58 4 64 3 70-1 45h-93v21h93Z"/></symbol><symbol id="𮘊_J" viewBox="0 0 1000 1000" data-size="21"><path transform="matrix(1 0 0 -1 38 948)" d="M525 494h161l46 60c26-23 48-45 65-66l-11-19H520c-6-32-15-68-26-108h206l39 46c40-30 60-49 60-58 0-4-3-8-9-13l-26-19c0-20-3-51-6-93h40l48 66c25-24 46-47 64-70l-12-21H756c-5-43-12-77-22-101-7-19-19-37-35-56-20-23-50-35-89-35-1 18-11 31-30 41-16 8-43 14-79 18v28c44-5 80-8 109-8 17 0 30 2 38 6 9 4 17 11 24 22 12 18 21 46 26 85H326l-11 25h387c4 38 6 75 6 112H487l-22-68-56 14c36 104 61 204 74 301-39-46-90-88-154-125l-15 19c91 69 157 151 197 246H351l-9 25h179c17 44 31 93 40 148 63-11 95-22 95-34 0-9-14-15-42-19-9-35-20-66-31-95h207l47 62c25-22 46-45 65-67l-11-20H687c53-81 132-141 237-181-21-17-37-35-47-51-98 51-173 129-224 232h-81c-22-49-47-90-75-124 52-8 78-17 78-28 0-8-13-14-39-19-2-14-6-33-11-58M100 316h125l35 42c39-31 59-52 59-61 0-4-2-7-7-10l-25-17V0h-54v64H96V0H40v346c15-6 35-15 60-30m-4-25V89h137v202H96M52 544l-11 25h168l41 50c21-18 39-37 55-57l-11-18H52m4 251-9 25h165l41 53c22-19 41-39 58-60l-10-18H56m-6-376-9 25h168l41 49c23-19 41-37 55-55l-12-19H50M7 669l-7 25h243l45 52c25-21 45-40 60-58l-10-19H7Z"/></symbol><symbol id="𮘋_S" viewBox="0 0 1000 1000" data-size="21"><path transform="matrix(1 0 0 -1 38 963)" d="m12 331 62-32h127l31 26 59-47-26-21V48l-64-32v52H74V32L12 0v331m424-229 56-27-6-12-7-10-8-11-9-9-11-7-11-6-12-5-13-3-12-2-13-1v31L284 56v15h106l6 1 7 1 5 2 5 1 5 3 3 3 4 3 4 5 7 12m143 793 63-32h173l32 27 57-47-25-22V455l-64-31v63H642V99l1-7v-5l1-3 1-2 1-1h1l1-1 3-2 5-1h205l32 132h9l-9-132 17-13 14-18-14-19-17-12H649l-12 3-13 3-12 7-10 8-9 11-7 13-4 11-2 14-1 14v796M447 136l12 55 8 73 2 84-4 91-1 7-11-21-41-71-22-34-26-31-26-30-28-29-31-25-7 7 65 97 18 33 36 68 28 72 13 39 10 38 6-2-16 78-8 23-17-20-30-34-31-30-33-26-34-23-6 7 27 31 51 64 24 35 30 49-6 19-45 90-54 85 7 6 71-76 50-83 13 27 21 44 18 47 18 49h1l3 7 56-30 10-16-18-3-14-31-23-47-25-44-25-42-12-17 20-50 27-104 5-1-3-8 15-88 6-96 1-88-5-76-11-63-14-47-3 1-6 3-47 23 11 34M201 278H74V90h127v188m4 205 53-46v-21H18v21h144l43 46m610 360H642V508h173v335M205 627l53-47v-21H18v21h144l43 47m28 160 63-53v-21H0v21h181l52 53m-28 138 53-47v-22H18v22h144l43 47Z"/></symbol><symbol id="𮘌_S" viewBox="0 0 1000 1000" data-size="21"><path transform="matrix(1 0 0 -1 43 955)" d="M520 50v1-1M18 331l62-31h158l32 26 57-48-26-20V58l-63-32v53H80V42L18 11v320m376 482 58-28 91 27 74 25 71 26 65 30 32 16 6-13 39-36 1-16-19 8-71-27-36-12-37-10-38-9-39-9-40-7-41-5-41-3-12-1V468l-3-62-5-57-7-55-8-51-12-48-14-44-15-41-19-37-21-32-24-27-8 6 15 31 12 34 12 37 10 40 9 43 6 46 5 49 3 53 2 55-1 60v345M238 278H80V100h158v178m-3 205 64-52v-21H20v21h164l51 52m0 137 64-53v-21H20v21h164l51 53m45 147 64-53v-21H0v21h228l52 53m-45 136 64-52v-21H20v21h164l51 52M535 14l-2 4 2-4m-32 50 17 6v576l45-23 99 43 55 26 52 29 48 29 9-16 33-33 1-17-19 7-76-33-59-20-24-7 12-70 17-76 13-51 86 69 39 36 8 8 2 3 1 2h1l40-49 2-19-20 7-47-27-60-28-21-8-28-10 20-67 21-60 23-55 25-48 28-44 29-39 31-34 7-6-57-42-32 41-30 46-27 50-23 56-20 58-17 65-15 68-10 73-7 79-2 69-27-7-33-7-30-5V91l109 33 67 18 4-9-87-49-92-48-27-15-4-21-17 10-33 54Z"/></symbol><symbol id="𮘍_S" viewBox="0 0 1000 1000" data-size="21"><path transform="matrix(1 0 0 -1 45 962)" d="m17 307 62-33h153l32 27 57-47-25-22V37L232 6v42H79V31L17 0v307M736 72l4 1 4 2 2 1 1 1 2 2 1 3v5l1 7h62V80l-2-14-4-11-7-12-9-12-11-8-11-6-13-4-13-3h-14v31l-73 16v15h80M424 631l62-31h265l31 26 58-47-27-21V329h22l33 37 42-37v-20h-97V94h-62v215H486V42l-62-31v298h-97v20h97v302M232 254H79V68h153v186m355 325H486V329h101v250m164 0H650V329h101v250M229 463l64-52v-21H20v21h158l51 52m0 141 64-52v-21H20v21h158l51 52m245 321 56-28 13-14-20-4-23-57-19-37-20-33-2-4h319l52 53 64-53v-20H445l-29-41-25-31-28-27-29-26-31-24-6 7 45 61 41 63 18 31 33 68 13 35 13 36 14 45M272 757l64-53v-20H0v20h221l51 53m-43 141 64-52v-22H20v22h158l51 52Z"/></symbol><symbol id="𮘎_J" viewBox="0 0 1000 1000" data-size="21"><path transform="matrix(1 0 0 -1 37 936)" d="M418 316h104l37 45c39-33 59-54 59-63 0-5-3-9-9-13l-24-15V0h-55v64H410V0h-56v349c24-10 45-21 64-33m-8-25V89h120v202H410M259 85C187 65 119 49 57 37 51 15 44 5 37 5 23 5 11 34 0 92c18 0 46 2 83 5 58 130 107 270 145 419 57-21 85-39 85-54 0-9-13-14-40-15-46-129-99-245-159-347 61 6 107 12 138 18-10 46-26 85-48 118l17 18c42-43 71-83 87-119 13-31 20-59 20-86 0-25-12-37-35-37-16 0-26 12-29 37 0 8-2 20-5 36M85 443c29 80 52 163 68 247 56-21 85-39 85-54 0-9-13-14-40-15-25-70-57-137-95-201 3-4 8-12 17-26 16-29 24-54 24-74 0-24-11-35-32-35-14 0-23 11-27 35-8 50-32 106-73 168l16 17c27-28 46-49 57-62M856 93c-67-22-132-40-196-56-6-22-13-32-20-32-14 0-26 29-37 87 15 0 38 2 69 5 70 155 122 295 155 420 57-21 85-39 85-54 0-9-13-14-40-15-42-115-98-231-169-348 50 6 99 14 146 24-12 45-28 81-46 109l17 18c42-43 71-83 87-119 13-30 20-59 20-86 0-25-12-37-35-37-17 0-26 12-29 37-3 21-5 37-7 47M679 459c28 75 49 154 65 236 57-21 85-39 85-54 0-9-13-14-40-15-24-67-54-131-89-192 13-16 21-28 25-36 16-29 24-54 24-74 0-23-11-35-32-35-14 0-23 12-27 35-8 51-32 107-73 168l16 17c21-22 36-39 46-50M431 740v133c72-2 108-11 108-25 0-10-16-19-49-29v-79h297l54 68c28-24 52-48 72-72l-12-21H23l-7 25h415m-85-160-9 25h174l46 58c22-21 41-43 58-66l-11-17H346m1-143-10 25h171l46 58c23-22 42-43 58-64l-13-19H347Z"/></symbol><symbol id="𮘏_G" viewBox="0 0 1000 1000" data-size="21"><path transform="matrix(1 0 0 -1 35 972)" d="m77 933 4 10c48-17 83-42 104-75 23-43 22-70-5-81-13-1-21 7-22 26s-8 40-21 61c-14 23-34 42-60 59M41 482h182l24 32 60-43c5-3 7-6 6-7s-5-2-12-2H111c-13 1-25-4-36-13l-34 33m0 142h182l24 33 60-43c5-3 7-6 6-8-1-1-5-2-12-2H111c-13 1-25-4-36-13l-34 33M0 763h267l23 33 57-43c5-3 7-6 6-8-1-1-5-2-12-2H77c-15 1-30-3-44-13L0 763m96-625h146v176H96V138M52 379l35-45h144l28 34 45-40c9-8 8-14-4-19l-17-9V151l4-51c5-27-10-41-45-43v61H96V76c2-25-14-40-48-45 3 25 6 59 7 101v194c-3 15-9 29-17 41l14 12m459-31 11 9c41-48 72-94 91-137 19-45 24-79 14-104-5-11-13-16-22-15s-14 15-15 44c-1 3-1 7-2 12v13l-104-15c-33-6-59-12-79-17-13-4-24-12-32-24l-47 52c19 3 32 12 41 28 23 38 54 110 92 216 9 27 8 45-3 55l7 7 70-33c3-3 5-5 5-7s-2-3-6-4c-11-5-21-10-30-15-47-105-86-186-118-243 49 5 116 11 201 18 0 1 0 3-1 5-3 15-7 27-10 36-13 35-34 74-63 119m-57 595 76-34c9-3 11-7 6-10-11-3-20-9-27-18V718h53l23 35 63-45c5-4 8-6 7-7-1-2-6-3-13-3H509V498h71l23 34 63-45c5-3 7-6 6-7s-5-2-12-2H402c-17 1-31-4-44-13l-33 33h145v200h-50c-16 1-31-3-44-12l-33 32h127v173c1 11-7 24-24 41l8 11m447-135V303c1-39-2-67-10-82s-29-28-64-37c-1 19-11 31-30 37-18 7-36 12-54 17l2 15c47-9 78-13 93-12 16 1 24 17 24 48v533H725V140l5-95c1-23-16-38-51-45 3 25 6 87 7 185v652c-5 14-12 25-20 34l15 12 39-41h126l31 37 43-40c6-4 9-8 9-11 0-2-3-4-9-7l-19-13Z"/></symbol><symbol id="𮘐_J" viewBox="0 0 1000 1000" data-size="21"><path transform="matrix(1 0 0 -1 45 947)" d="M320 41V0h-56v201c27-8 50-16 69-24h372l33 34c40-27 61-44 61-51 0-4-3-8-9-12l-21-15V0h-56v41H320m0 25h393v86H320V66m132 601c-20-96-95-156-225-182l-12 22c102 32 160 85 176 160H192V461c0-115-14-208-42-280C124 114 80 54 18 0L0 18c67 78 108 170 123 277 6 45 10 100 10 164v245c-22-9-57-22-105-39l-16 18c62 25 115 52 157 80 41 27 81 60 119 100 30-12 50-20 58-25 14-7 20-14 20-20 0-7-16-11-47-12-49-36-103-66-162-92 11-4 28-12 50-22h244v202c65-2 98-11 98-26 0-8-14-17-42-26V692h234l46 47c26-18 49-36 68-53l-12-19H602v-62c0-15 11-23 32-24 14-1 36-1 64-1 41 0 65 4 71 11 7 8 12 26 16 54l1 4 24-8c0-26 3-42 8-48 4-5 13-7 26-7 0-26-11-42-35-47-18-4-58-6-120-6-63 0-102 3-117 9-16 6-24 22-24 48v77h-96M304 465l-10 25h353l45 40c25-16 47-32 64-46l-12-19H304m-19-154-12 25h393l46 40c25-15 47-31 67-48l-15-17H285m0-77-12 25h392l48 39c24-15 46-31 66-47l-15-17H285m-71 154-15 25h547l50 49c27-19 50-38 67-55l-12-19H214m674 315c-10 0-20 3-29 11-45 37-84 62-116 77-35 16-78 31-127 45l13 21c49-9 94-20 134-33 46-16 82-32 106-48 27-19 40-35 40-48 0-17-7-25-21-25Z"/></symbol><symbol id="𮘑_S" viewBox="0 0 1000 1000" data-size="21"><path transform="matrix(1 0 0 -1 43 953)" d="m684 906 63-10 16-10-16-10V669h78l31 26 58-48-26-15v-63l-1-82-3-75-2-67-4-61-4-53-6-45-6-40-7-32-8-26-1 1-18 7-2 1-37 15 5 19 7 27 5 36 6 43 3 52 3 59 3 66 2 74 1 81 1 78h-79l-3-82-7-90-11-85-15-77-19-71-23-63-27-57-32-49-35-40-40-33-6 8 31 38 27 43 23 49 22 54 16 62 15 68 11 75 7 82 4 89v79h-98v22h98v237M13 329l63-31h139l32 26 58-48-27-20V56l-63-32v53H76V40L13 9v320m776-217 58-24-6-12-7-12-8-9-9-9-10-8-11-7-12-5-13-4-13-1-13-1v32L640 67v16h112l6 1 6 2 5 2 2 2 8 6 3 5 7 11m-477 11-11 32 44 14v706l63-31h91l32 26 58-48-26-20V241l46 14 4-9-50-35v-3h-6l-52-28-89-43-75-33-5-19-15 12-1 1-1 3-2 4-1 4-1 3-1 2-2 8v1m-11 32 20-58-31 55 11 3m-86 121H76V98h139v178m284 116h-91V189l81 27 10 4v172m-278 84 52-47v-21H18v21h160l43 47m278 131h-91V413h91v194m-278 5 52-47v-21H18v21h160l43 47m278 210h-91V628h91v194m-248-57 63-53v-21H0v21h198l53 53m-30 131 52-47v-21H18v21h160l43 47Z"/></symbol><symbol id="𮘒_S" viewBox="0 0 1000 1000" data-size="21"><path transform="matrix(1 0 0 -1 49 964)" d="m19 313 63-31h163l31 27 58-48-26-21V47l-63-31v31H82V31L19 0v313m795-195-28 28-27 29-25 30-22 33-21 34-18 37-17 38-13 40-8 31V36L571 5v338l-27-53-25-42-28-39-29-37-32-35-34-33-36-29-38-26-6 7 61 68 27 35 26 37 24 38 23 38 20 41 19 42 16 44 8 26H324v20h247v126h-99v-36l-64-32v410l64-32h272l32 26 58-47-26-21V551l-64-32v52H635V445h141l52 53 64-53v-20H645l60-97 23-31 23-29 25-28 26-25 26-25 74-53-57-45-31 26M245 261H82V68h163v193m-2 215 64-52v-22H21v22h169l53 52m0 146 64-52v-21H21v21h169l53 52m501 238H472V593h272v267m-456-80 64-52v-21H0v21h235l53 52m-45 148 64-53v-21H21v21h169l53 53Z"/></symbol><symbol id="𮘓_S" viewBox="0 0 1000 1000" data-size="21"><path transform="matrix(1 0 0 -1 42 962)" d="m451 917 59-26 12-14-19-6-30-94-42-110-23-52-5-12 27-5 15-10-15-10V31L366 0v524l-30-60-27-47-29-45-9 5 78 201 36 107 33 109 30 109h-1l4 14m233 7 60-20 14-12-19-8-16-60-13-40-16-41-11-28h144l31 26 58-48-26-20V68l-63-31v64H596V37L532 6v740l64-31h73l1 13 2 43 5 62 1 21 2 20 2 39 2 11M15 326l62-31h146l31 26 58-48-27-20V53l-62-32v53H77V37L15 6v320m208-53H77V95h146v178m604 132H596V121h231v284m-608 74 62-53v-21H19v21h147l53 53m608 214H596V426h231v267m-608-78 62-52v-22H19v22h147l53 52m41 147 63-53v-21H0v21h208l52 53m-41 136 62-52v-21H19v21h147l53 52Z"/></symbol><symbol id="𮘔_K" viewBox="0 0 1000 1000" data-size="21"><path transform="matrix(1 0 0 -1 47 940)" d="m39 814 49-2h95l39 39 48-37c9-4 11-8 7-14-3-3-9-5-19-5H104l-50-2-15 21M0 689l50-1h180l41 40 50-38c9-5 11-10 8-15-3-3-9-4-19-4H64l-49-2-15 20m40-129 51-1h94l37 39 49-37c9-4 12-9 8-13-3-4-10-6-20-6H104l-49-2-15 20m4-125 50-2h94l37 40 49-37c10-4 12-9 8-13-3-5-9-7-18-7H108l-50-2-14 21m47-171V76h123v188H91m-50-7-3 56 49-33h115l29 29 41-32c17-12 22-21 14-25-4-4-11-5-22-5V56c0-15-1-24-2-28-4-5-12-10-25-14-11-2-19-1-22 3-1 4-2 12-1 26l1 17H91V39c0-14-1-23-4-27S76 5 64 3C53 0 45 1 42 5c-1 2-2 8-2 18l1 8v226m761 482 31 46 58-43c5-5 7-9 5-13-1-3-6-5-14-6H609c-13-28-30-57-51-89-21-31-41-55-59-72l-9 7c22 31 44 72 66 125s41 116 56 187l66-27c15-9 20-15 14-19-6-5-19-7-39-7-6-18-12-33-16-44-5-11-11-26-20-45h185m-73-167 33 38 50-38c12-10 16-18 11-23-6-5-20-7-42-5-45-54-81-101-108-139s-54-79-80-122c-18-32-17-54 1-66 16-8 42-12 78-11h52c31-1 52 4 64 14 12 11 25 38 37 80l25 85 12-2-18-133c-2-6 0-10 4-15l23-20c4-3 7-7 8-11 0-13-11-23-34-29-20-3-53-4-99-3h-84c-50 0-87 8-111 26-26 23-24 59 6 105 23 39 51 81 85 128 33 48 61 89 86 123h-90l-77-2-12 21 75-1h105M369 855c30-6 56-15 78-25 22-11 38-25 48-41 7-12 11-23 12-33 0-9-2-15-7-18-5-4-10-4-16-1-7 3-15 10-21 20-11 18-22 33-33 42-17 17-38 33-65 46l4 10m-44-202c23-5 45-14 67-25 20-11 36-22 47-33 6-10 10-20 11-31 1-12-1-20-5-25-4-6-9-7-16-3-9 4-17 14-25 31-6 11-16 24-30 38s-31 28-51 41l2 7m72-256 34 32 38-31c19-15 27-26 24-34-2-7-14-11-34-14V158c17-27 46-51 88-70 42-20 103-29 182-29 73 2 132 9 175 23l1-11c-21-7-34-14-38-22-4-9-7-20-9-33l-144-4c-61 0-114 13-161 37-46 25-83 55-109 91l-75-94c2-19 1-31-3-37-4-4-13 1-25 16l-28 39 100 83v233l-100-2-3 19h87Z"/></symbol><symbol id="𮘕_K" viewBox="0 0 1000 1000" data-size="21"><path transform="matrix(1 0 0 -1 52 925)" d="m38 814 49-2h117l38 39 49-37c10-4 13-8 9-14-4-3-11-5-21-5H102l-50-2-14 21M0 689l48-1h209l40 40 51-38c8-5 11-10 7-15-2-3-9-4-20-4H63l-50-2-13 20m40-129 49-1h117l36 39 51-37c9-4 12-9 9-13s-11-6-22-6H103l-50-2-13 20m4-125 48-2h118l36 40 51-37c9-4 12-9 8-13-4-5-10-7-21-7H106l-50-2-12 21m45-171V76h146v188H89m-48-7-4 56 49-33h139l29 29 40-32c17-12 22-21 15-25-4-4-12-5-25-5V56c0-15 0-24-2-28-3-5-11-10-22-14-13-2-21-1-24 3-1 4-1 12-1 26l1 17H89V39c0-14-1-23-3-27-3-4-10-7-23-9-12-3-18-2-21 2-1 2-2 8-2 18l1 8v226m746 417v127H440V674h347M440 498l-1-4c48 10 103 27 165 52 66 26 113 51 141 77l47-28c12-6 18-11 18-14-1-4-13-6-38-7-25-11-46-21-63-28-17-8-37-16-60-23 19-7 25-13 21-18-3-3-13-7-32-11v-97l130 21 26 47 47-28c11-8 16-13 15-14 0-3-7-6-20-9l-198-32V250l145 26 36 46 53-30c8-4 12-7 12-12s-6-7-19-8l-227-37V78c0-5 2-9 7-14 7-8 18-12 35-14l42-1 51 2c24 8 40 18 48 33 13 20 26 63 37 129l10-2-7-89-3-60c26-13 38-24 38-30-1-7-17-11-48-14-21-2-58-3-113-4l-77 1c-25 2-43 7-54 18-8 9-12 22-12 39v155l-192-30c-23-72-56-131-98-175l-9 9c36 56 62 117 76 184 15 66 23 158 25 277l-1 156c0 74-3 141-9 203l52-32h338l30 25 50-31c9-8 12-14 8-17-4-4-13-6-29-6V659c1-8 1-13 0-16-1-4-5-9-14-12-16-4-26-4-30 0-3 3-4 10-4 21l2 7H440V498m-1-20c-1-41-3-80-5-114l158 26v118c-30-7-57-14-82-18l-71-12m-6-129c-6-51-15-96-28-134l187 27v131l-159-24Z"/></symbol><symbol id="𮘖_S" viewBox="0 0 1000 1000" data-size="21"><path transform="matrix(1 0 0 -1 45 946)" d="m627 887 63-32h130l33 27 57-48-26-16-9-4-23-59-40-87-33-59-18-30-15-22 42-20 33-31 27-36 19-40 14-40 8-40 4-39-1-37-3-33-6-27-60 18 6 21 5 26 3 32v33l-5 35-8 36-12 35-19 34-24 33-30 33-7 3 32 99 29 91 17 57 6 27 1 7H690V31L627 0v887M529 71l-8-10-8-10-9-8-11-8-10-7-11-5-12-4-13-3-12-1-14-1v31L316 61v15l-20-25-29-28-33-20-5 7 24 27 20 30 20 34 16 38 13 43 12 46 9 51 6 57 3 58h-90v21h91v212h-77v21h77v183h-82v22h235l31 26 58-48-26-15 2-104 1-118V488l-2-93-3-83-4-70-4-58-7-47-10-37-13-29M10 325l63-31h123l32 26 58-48-26-20V73l-64-31v31H73V36L10 5v320m186-53H73V94h123v178m627-40 60-18-4-13-6-12-8-10-8-10-10-9-11-7-12-5-12-3-14-2-13-1v31l-53 15v16h53l7 1 6 1 5 1 3 2 7 4 4 8 3 5 3 6M201 472l52-47v-21H17v21h140l44 47m308 155h-93V463l-3-48h95l1 74 1 105-1 33m-308-19 52-46v-22H17v22h140l44 46m305 223h-90V648h93v64l-2 78-1-1v42m-258-86 42-37v-20H0v20h216l32 37m-47 148 52-48v-21H17v21h140l44 48m276-787 5 13 7 29 7 42 5 57 4 68 2 79h-95l-8-64-9-59-14-54-17-50-19-45-23-38-6-7h113l7 1 6 1 6 2 5 3 5 3 5 4 5 4 5 6 4 5m52-35-3 2 3-2Z"/></symbol><symbol id="𮘗_S" viewBox="0 0 1000 1000" data-size="21"><path transform="matrix(1 0 0 -1 38 961)" d="m581 468 64-11 15-11-15-9V331h10l43 47 53-47v-21H645V210h61l53 53 63-53v-21H645V31L581 0v189H403v21h178v100H475v21h106v137M21 331l63-31h171l31 26 58-48-27-20V58l-62-32v53H84V42L21 11v320m234-53H84V100h171v178m581-16-29 33-28 35-25 39-24 40-21 43-20 46-5 17H546l-15-37-32-67-37-60-40-54-45-46-48-39-7 7 40 46 37 49 34 55 31 60 26 65 7 21H326v21h178l10 30 20 78v2H407v21h131l13 60 6 40H364v21h196l4 28 9 95 1 12 63-17 14-12-17-8-11-78-4-20h126l53 52 62-52v-21H615l-10-51-11-49h129l43 47 52-47v-21H658l42-88 12-22h72l53 52 62-52v-21H724l23-42 25-38 26-36 27-33 28-30 29-27 42-36-58-42-30 31M255 483l62-52v-21H21v21h181l53 52m391 163h-58l-28-95-5-15h121l-19 61-11 49m-391-26 62-53v-21H21v21h181l53 53m57 142 52-48v-21H0v21h269l43 48m-57 141 62-52v-21H21v21h181l53 52Z"/></symbol><symbol id="𮘘_K" viewBox="0 0 1000 1000" data-size="21"><path transform="matrix(1 0 0 -1 52 940)" d="m420 523-75-2-6 20 57-3h75v216l-4 41 43-11c16-4 24-9 24-14 0-6-7-10-22-12V537h112v303l-4 41 45-11c22-6 33-11 32-16 0-6-10-10-31-14V717h103l38 37 42-33c6-6 8-11 5-14-4-3-10-5-20-5H666V537h122l38 38 44-35c7-6 9-10 6-13-3-2-10-4-22-4H688c9-4 13-9 10-13-2-4-11-8-27-13V233c29 39 55 73 76 103 27 41 52 81 73 120l39-24c19-10 26-17 23-22-3-4-15-5-36-4-30-49-56-88-78-118-32-44-67-81-103-113-44-39-93-72-147-100-62-30-131-55-209-75l-3 11c73 23 137 51 192 82 36 21 80 53 132 94v336H420m133-86c19-12 26-20 23-24s-15-4-37-1c-21-51-49-102-82-153-32-48-63-88-94-119l-13 5c31 34 60 77 88 129 29 58 54 120 73 186l42-23M49 698h203l35 41 50-36c8-6 11-10 8-14-3-3-9-5-19-5H63l-49-3-14 21 49-4m29-126h131l37 40 49-36c9-4 12-9 8-13s-10-6-19-6H93l-49-2-14 20 48-3m3-124h132l36 41 49-37c9-4 12-9 8-13-4-5-10-7-19-7H97l-51-1-13 20 48-3m-5 375h138l36 37 49-34c9-4 12-9 8-13s-10-6-20-6H92l-50-2-13 20 47-2M28 330l47-33h142l29 29 51-33c12-10 15-18 9-22-4-3-14-4-30-4V74c2-13 1-22-3-25-2-5-9-10-21-15-12-2-20 0-23 5-2 3-3 12-2 25l1 15H78V59c0-13-1-22-3-26s-10-8-22-10c-11-2-18-2-21 1-1 3-2 9-2 18l1 10v222l-3 56M78 95h150v186H78V95m702 181-9-12c22-31 39-60 49-87 6-17 12-42 18-75l3-16c4-25 13-39 27-40 14 0 24 18 28 56 3 25-8 55-34 89-21 30-48 59-82 85Z"/></symbol></svg>