<svg xmlns="http://www.w3.org/2000/svg"><symbol id="寃_T" viewBox="0 0 1000 1000" data-size="22"><path transform="matrix(1 0 0 -1 47 969)" d="M906 767c-5 0-10-3-15-10l-63-15-55-55h-23l23 47 24 23v24H94v-24l-31-85H0v39l55 54c15 47 23 73 23 78h16v-31h328v31l-24 47-23 24v23c31-6 63-32 94-78 5-14 10-21 15-21v-5l-15-13v-8h351l28 31h4l31-31 8-15c5-15 10-22 15-22v-8M750 132l-23-23h-16l-16 16c-3 44-21 83-54 117v23h23l63-62 23-47v-24m156 55c0-6-3-11-8-15l-15-63c-5-3-8-5-8-8 1-2 7-6 16-12V31H477l-24 19v262h-15c-57-141-94-211-110-211C242 52 161 18 86 0H16v15c105 22 184 52 235 88 52 35 93 94 124 178v31H195c-7 0-15-3-23-8-16-5-32-7-47-7v234h8l13-16c5 8 55 32 151 71 31 18 52 52 62 101H188v31h468v32h24l54-51v-4l-23-23c-8-42-21-84-39-125-8-11-31-22-70-32h-24v32h-31v31c26 0 52 2 78 8 5 6 11 9 16 11v90H430c-39-67-63-101-71-101l-93-47c-52-13-78-21-78-24h-16v-15h516v31l62-24 16-15v-24h-32V367l32-27v-28H516V93h304c26 21 42 42 47 63l39 31M672 343v125H438V343h234m-281 71v54H188V343h187v24l16 47Z"/></symbol><symbol id="寘_T" viewBox="0 0 1000 1000" data-size="22"><path transform="matrix(1 0 0 -1 39 969)" d="M922 783c-5 0-11-3-16-10l-62-15-55-55h-23l23 47 24 23v24H625v-16c11 0 21-3 31-8l47-46v-24H313v-62h421v-63H273l-23 20v199H94c0-5-8-31-24-78-13-11-21-16-23-16H23L0 727c41 23 73 73 94 148h15v-47h344l-39 78-23 32c49-11 83-32 101-63 5-15 8-31 8-47h320l32 31h7l39-31 8-15c5-15 11-22 16-22v-8M734 500h-31V188h-62v31H305l-28-31h-43v375h24l31-32h359l29 32 42-24 15-16v-23M844 20c-13-9-20-16-20-20-4 0-8 3-11 8-47 21-105 41-172 62-26 5-52 8-78 8v31h85c55-13 94-20 118-23l47-16 31-27V20m15 105H344v-8l31-31V63h-31c-47-13-73-21-78-24-65-13-98-20-98-23H47v15h23c50 13 84 21 102 24 83 26 125 42 125 47 11 13 16 20 16 23H94v375c3-5 21-11 54-16h40v-23l-32-27V156h571l58 63h4l70-67v-27M609 789v8H328c0-3 5-11 16-24v-7h-31v-32h242l54 55m32-351v62H297v-62h344m0-94v62H297v-62h344m0-94v63H297v-63h344Z"/></symbol><symbol id="寧_T" viewBox="0 0 1000 1000" data-size="22"><path transform="matrix(1 0 0 -1 54 969)" d="m797 617-24-23h-7c-2 0-10 5-24 15-8 37-42 84-101 141h39c33-18 72-52 117-102v-31m94 184c-5-2-11-5-16-12l-47-16-55-54h-23l31 54v40H94v-16c-13-31-21-52-24-63l-27-31H0v39l55 55c15 47 23 73 23 78h16v-31h328c0 5-3 10-8 15-13 42-20 63-23 63v16h23l47-47c5-16 8-32 8-47h344v31h23l55-51v-23M516 680l-20-24h-4c-10 5-20 21-31 47l-70 78h31c31-7 63-31 94-70v-31m156-78c-5-3-11-11-16-24v-15H273l-23 19v184h78v-16l-15-31v-94h277c1 5 5 11 12 16 13 41 20 62 23 62v16h16c0-26 2-52 7-78l16-32c5-3 8-5 8-7m78-59c0-14-3-28-8-43-5-8-8-16-8-23V336l-19-23h-43v46H172v-46h-63v250c-5 0-10 2-15 7-16 5-32 8-47 8v39c34 19 63 42 86 71l23 62h16v-23c-13-45-21-73-24-86-7-24-20-42-39-55v-23c11 0 21-3 32-8l23-24h524v32h42c9-13 16-20 20-20m78-309H469V39c0-8-21-21-63-39h-15l-63 39c-15 5-31 8-47 8v16h110v7l15 16v148H47v32h672v7l31 32c0 5 5 8 16 8h7l55-55v-24M672 391v109H547V391h125m-188 0v109H359V391h125m-187 0v109H172V391h125Z"/></symbol><symbol id="寳_T" viewBox="0 0 1000 1000" data-size="22"><path transform="matrix(1 0 0 -1 31 969)" d="M938 781c-47 0-84-10-110-31h-31v8l31 31v24H516v-16c15 0 31-3 47-8 5-7 10-11 15-12v-4c-11-13-21-20-31-23h-16v-16h196l27 32h4l55-51v-20c0-3-31-21-94-54h-16c0-2 5-10 16-24 21-5 41-21 62-47v-47l-19-23h-4c-42 52-63 83-63 94l-23 23v24c11 0 21 2 31 7l16 16v39h-78V484h-63v141h-23c-42-52-63-83-63-94l-54-31 23 47 16 16c13 36 20 62 23 78v31h8c23-13 42-21 55-24 5-5 10-7 15-7v62h-70l-55-55-47-23H281v-47h71l46 16h24v-31h-16c-33-15-54-23-62-24l-117-23h-39l39-47h453l28 31 42-23 16-16v-23h-32V125h-62v31H234v-47h-62v391h-47v-31H98c-1 5-5 10-12 15l-16 63c-5 5-7 11-7 16h156v62h-94v31h94v78h-94v32h188l31 39v8H109c0-21-2-42-7-63-13-26-21-39-24-39l-52-23h-5L0 711v16c18 23 41 41 70 54 26 47 39 84 39 110h16v-47h313c-11 31-32 63-63 94h31c39-16 63-32 71-47 5-16 7-32 7-47h368l27 31h4l31-31 24-63M859 20c-14-9-21-16-21-20-3 0-7 3-10 8l-62 31-141 47c-63 13-94 20-94 23h-15v16h117c55-13 94-21 117-23 31-8 63-21 94-39h15V20M391 98c-5-1-11-5-16-12L156 16H47v15c120 19 209 53 266 102 0 5 3 8 10 8l52-24 16-15v-4m109 683v32H375v-8l47-47v-24H281v-78h8l63 63 62-63h8c2 0 10 5 23 16l55 109m172-406v63H234v-63h438m0-94v63H234v-63h438m0-93v62H234v-62h438Z"/></symbol><symbol id="寿_T" viewBox="0 0 1000 1000" data-size="22"><path transform="matrix(1 0 0 -1 47 961)" d="m906 398-19-23H688V39c0-8-21-21-63-39h-16c-47 33-83 51-109 54-11 13-16 21-16 24 16 0 31-3 47-8 8-5 16-8 24-8h70v313H297l-30 15h-15c-11-32-35-69-72-109-79-87-132-135-157-141H0c146 135 240 271 281 407H0v31h297v15l31 63H109v31h219v16l16 31v47H63v31h296v110l63-16h31v-24l-31-27v-43h242l47 47h47l55-55v-23H406v-16l-15-31v-47h211l46 47h47l55-55v-23H375v-16l-31-62h414l47 47h47l54-55v-23H328v-16l-62-125h359v109h47l31-15h16v-32h-31v-62h70l58 62h4c13-18 32-31 55-39l31-31M469 125h-47c-21 73-52 125-94 156h39c47-31 73-52 78-63l24-46v-47Z"/></symbol><symbol id="将_T" viewBox="0 0 1000 1000" data-size="22"><path transform="matrix(1 0 0 -1 39 969)" d="M906 805c-96-154-270-271-523-352h-39v16c219 70 375 177 469 320v24H523l-23-24v-8c57-7 104-31 141-70v-55h-47c0 11-3 21-8 32l-86 78h-16l-93-71-47-23h-31c0 2 31 31 93 86 11 5 21 8 32 8 0 10 2 20 7 31 28 18 62 62 102 133 0 5 5 8 16 8h7l39-40v-23c-3 0-10 5-23 16h-8v-16l-15-31h242l47 15h23c0-10 3-20 8-31l23-23M531 664c-49-34-83-63-101-86-11-26-21-42-32-47l-70 71v7c16 0 32 3 47 8l156 71v-24m391-289H781V51c-10-7-20-16-31-28-37-13-55-20-55-23h-7c0 8-5 21-16 39-63 23-94 41-94 55 16 0 32-3 47-8 8-5 16-8 23-8h71v297H313v31h406v172c3-5 21-10 54-15h40v-47h-32V406h24l58 63h4l55-51v-43M141 586l-24-23h-15l-16 15c-11 94-21 146-31 156-8 24-21 42-39 55v24c52-27 94-84 125-172v-55m422-414h-47c-21 72-53 125-94 156h39l102-97v-59M297 898l-24-23h-7V16h-63v359c-15 0-62-34-140-102-11-18-16-31-16-39H16v16L0 281v32l78 23 125 70v532c8 0 31-5 70-16h24v-24Z"/></symbol><symbol id="尢_T" viewBox="0 0 1000 1000" data-size="22"><path transform="matrix(1 0 0 -1 54 953)" d="m891 54-39-39H477l-24 24v586h-31c-17-179-51-304-102-375C237 132 136 49 16 0v23c191 107 303 261 336 461 13 83 21 125 23 125v16H0v31h375v250c5 0 31-6 78-16h31v-31h-46V656h265c34 11 63 31 86 62l39-39c11-5 21-7 31-7v-47H516V78h277c7 10 16 20 27 31l16 78c13 10 20 16 23 16V93h8l24-23V54Z"/></symbol><symbol id="屠_T" viewBox="0 0 1000 1000" data-size="22"><path transform="matrix(1 0 0 -1 54 961)" d="M719 343h-39c-23 39-42 63-55 71v8h31l47-24 16-16v-39m172 94H594c-31-41-83-73-156-94v-15h296v31l63-23 16-16v-23h-32V0h-62v47H391V0h-63v265h-31l-106-47h-50v16c167 46 292 114 375 203H188v31h234v110H234v31h188v94H156V504c-13-82-20-141-23-176l-16-94C80 114 54 46 39 31L0 0v15c22 18 41 70 55 157l15 93c8 45 14 89 18 132 3 29 5 44 6 44v481h23l28-32h621v32l62-24 16-16v-15l-31-27v-83l31-27v-27H516c0-11-3-21-8-31l-24-24v-39h102l47 47h15l47-47 32 31c5 10 7 21 7 32h47l32-16h15v-31h-47c0-11-3-21-8-32L656 468h90l56 63c26-8 56-31 89-70v-24M750 734v125H156V734h594m-78-164v8H484V468h86l102 102m47-367v94H391v-94h328m0-125v94H391V78h328Z"/></symbol><symbol id="屮_T" viewBox="0 0 1000 1000" data-size="22"><path transform="matrix(1 0 0 -1 102 945)" d="M797 765h-31V359c-5 0-21-5-47-16h-16v47H445l-15-15-16-94c-13-77-57-142-133-195C233 51 155 22 47 0H0v15c109 23 187 52 234 86 60 54 94 93 102 117 8 16 21 63 39 141v31H47v422h70l24-19v-28h-32V422h266v468h94v-23l-31-27V422h265v390h70l24-19v-28Z"/></symbol><symbol id="屮_H" viewBox="0 0 1000 1000" data-size="21"><path transform="matrix(1 0 0 -1 77 956)" d="M60 782c33-5 60-13 82-23 7-4 11-9 11-14 0-6-3-11-9-13-9-7-19-12-32-12V462c0-17 1-29 2-35v-18h278c0 4 1 8 2 12 7 46 11 95 11 146v178c0 67-3 123-10 166 33-4 62-11 85-18 10-2 14-7 14-15 0-5-4-9-14-14-9-4-18-8-28-11V567c0-65-3-117-11-158h317v298c0 35-2 61-6 79 33-5 61-13 82-23 8-4 12-9 12-15s-4-10-10-12c-10-7-20-10-31-10V419c0-17 0-29 2-35v-33c0-15-10-23-31-23-15 0-22 9-22 27 0 7 1 15 2 26H436c-1-3-2-6-2-9-11-50-28-94-51-132-21-39-48-73-80-100-45-37-88-66-128-87C125 30 71 12 14 0L0 20c84 24 147 51 189 81 41 25 77 55 106 90 26 28 48 64 65 106 13 25 22 53 28 84H111c-5-7-13-10-25-10-16 0-24 9-24 27 0 8 1 18 2 31s1 24 1 33v241c0 35-2 61-5 79Z"/></symbol><symbol id="岍_T" viewBox="0 0 1000 1000" data-size="22"><path transform="matrix(1 0 0 -1 39 961)" d="M922 453H781V0h-62v453h-63v31h63v344h-63v31h141v8l47 47c0 5 3 8 8 8l54-51v-43H781V484h8l63 63 70-67v-27m-313 0H500c0-6-3-11-8-16l-15-140-16-79-31-93c-11-6-21-21-32-47L320 0h-23v7c29 24 52 53 70 86l16 47 15 32 16 78c10 45 16 87 19 128 3 29 4 44 5 44v31h-94v31h94v344h-94v31h140v8l47 47c0 5 3 8 8 8l70-67v-4l-19-23h-90V500l39 31h16l54-55v-23M344 711l-24-24h-7V172c-5 0-21-5-47-16h-16v47H0v547c3-6 21-11 55-16h39v-23l-31-28V234h62v672c8 0 31-6 70-16h24v-31h-31V234h62v516c3-6 21-11 55-16h39v-23Z"/></symbol><symbol id="峀_T" viewBox="0 0 1000 1000" data-size="22"><path transform="matrix(1 0 0 -1 110 961)" d="m766 836-24-24h-8V609h-62v47H16v203h70l23-19v-4l-31-28V687h266v235l62-16h32v-31h-32V687h266v172h70l24-19v-4m15-383h-31V0h-62v78H63V0H0v515h23l28-31h293v141h94v-24l-32-27v-90h297v31l63-23 15-16v-23m-93-156v156H406V297h282m0-188v156H406V109h282M344 297v156H63V297h281m0-188v156H63V109h281Z"/></symbol><symbol id="嵃_T" viewBox="0 0 1000 1000" data-size="22"><path transform="matrix(1 0 0 -1 39 961)" d="M906 765H383l-24 24v8h250v46l-31 63v16l70-47 24-53c-1-2-7-8-16-18v-7h133l47 46h16l54-54v-24m-93-320-20-23h-8c-5 9-9 14-10 15-3 0-6-3-9-8-63-49-146-83-250-101h-47v15c104 28 166 52 187 71 16 21 42 41 78 62 0 5 3 8 10 8l53-23 16-16m109 86H438V320c-13-55-21-94-24-117 0-16-21-63-62-141L281 0v23c19 13 32 32 39 55l32 94c13 78 20 117 23 117v320h8l47-47h117l-55 110-39 39v23c23 0 62-32 117-94 16-47 24-73 24-78h94v16l78 164c0 5 1 8 4 8s7-3 11-8l47-16c5-7 11-11 16-11v-4c-3-8-21-21-55-39 0-5-29-42-86-110h102l47 47h15l55-55v-23m-47-219c-130-83-271-135-422-156v31c94 0 209 55 344 164 0 5 5 8 16 8 5 0 20-5 46-16h16v-31m31-156c-21 0-41-3-62-8L672 54 547 23c-27-7-54-13-82-17-18-3-27-5-27-6h-16v31h39c60 12 94 20 102 23 42 14 99 40 171 78 33 17 64 43 94 79 0 4 5 7 16 7h23l39-39v-23M328 711l-23-24h-8V140h-47v63H0v547c5-6 21-11 47-16h31v-23l-31-28V234h78v672h55l23-24v-7h-31V234h78v516c5-6 21-11 47-16h31v-23Z"/></symbol><symbol id="嵫_T" viewBox="0 0 1000 1000" data-size="22"><path transform="matrix(1 0 0 -1 47 946)" d="m594 774-20-24h-90c0-26-2-52-7-78-7-5-11-10-12-15h-43v93H313v32h109v23l-16 47v39h94v-24l-31-27v-58h23l43 46h4l55-50v-4M906 24 887 0h-28c0 8-5 32-15 71v23L711 47h-23c0-10-3-20-8-31L664 0h-23v16l-32 74c29 20 52 47 71 82 55 105 84 168 86 188l-78-24c-11-18-16-31-16-39h-47v24c-10 32-15 48-16 51v10c44 76 73 136 86 181 13 104 21 156 24 156v31h-94v32h94c0 5 3 10 8 15h7v94h79v-24l-32-27v-58h39l32 31h15l39-39v-24H781v-15c-13-36-20-62-23-78-5-11-8-21-8-32h47v-31c-8 0-21-5-39-16-49-109-83-164-102-164v-23h94l31 16h16c0 5 5 31 16 78v31h31l47-24c10-13 15-20 15-23-7 0-20-5-39-16-54-130-125-249-211-359h32c57 14 93 21 109 23 11 5 21 8 31 8l-23 47-24 24v23c73-52 115-104 125-156V24M609 477 445 203c-22-36-45-65-70-86V94h70l47 16h24v15l-32 63h24c34-36 63-83 86-141V24L574 0h-27c0 3-5 21-16 55v23L398 32h-23V0h-27c-1 6-5 11-12 16l-16 47c-5 4-7 8-7 10s2 4 7 5l63 94 86 172c-3 0-21-5-55-16h-23v-31h-28c-2 6-5 11-11 16-13 39-21 58-24 58v12l24 24c21 36 41 83 62 140 13 52 21 78 24 78v16c2 0 20-5 54-16h24v-31h-32c-31-94-73-167-125-219 8 0 42 5 102 16h39v23l31 102h8c24-13 42-21 55-24 5-6 10-9 15-11v-4M313 680l-24-23h-8V125h-47v32H0v562c5-5 21-10 47-16h31v-23l-31-27V188h62v703h55l24-20v-4l-32-27V188h78v515h79v-23m62-602v16h-16V78h16Z"/></symbol><symbol id="嵮_T" viewBox="0 0 1000 1000" data-size="22"><path transform="matrix(1 0 0 -1 39 969)" d="M859 718H445l-23 20v199l62-15h32v-32h-32v-31h231l56 63c26-8 55-32 88-71v-23H484v-63h375v-47m63-531H328v406h70l24-19v-27h-31V218h406v16h-47v47H516c0-11-3-21-8-31l-16-16h-39v438h24l31-32h250l28 32 42-24 16-16v-23h-31V250h7l32 31 70-66v-28M906 23 887 0h-4c-45 52-115 93-211 125v15h55l70-23 109-63V23M313 703h-32V172c-5 0-21-5-47-16h-15v47H0v562c3-6 21-10 55-15h39v-24l-31-27V234h46v672h94v-24l-31-27V234h47v516h70l24-20v-27m265-586-19-24h-4c-3 2-7 7-12 16h-4C469 52 383 15 281 0h-47v15c105 28 167 52 188 71 37 20 63 41 78 62 0 5 3 8 10 8l53-24 15-15m172 414v78H516v-78h234m0-109v78H516v-78h234m63-188v16h-16v-16h16m-63 78v78H516v-78h234Z"/></symbol><symbol id="嵼_T" viewBox="0 0 1000 1000" data-size="22"><path transform="matrix(1 0 0 -1 39 961)" d="M891 781H359v31h235l-24 78-23 32h39l47-47c5-21 8-42 8-63h132l47 47h32l39-39v-39M578 578h-47c-21 67-52 124-93 172h23l94-94 23-47v-31m344-47H406V320c-13-55-20-94-23-117l-31-94c-42-52-63-84-63-94L273 0h-23v23l23 24 32 62 15 63c7 29 13 58 18 87 3 20 5 30 6 30v320l54-47h243c73 57 114 125 125 203h7c24-13 42-20 55-23 5-7 11-11 16-12v-27c-23 0-42-11-55-31 0-5-29-42-86-110h102c6 0 20 21 43 63h4l70-67v-27M906 31H406v31h219v125H469v31h156v141H500c0-11-18-42-55-94l-39-31c47 104 73 187 78 250h79v-31h-32c0-16-3-32-8-47-5-5-7-11-7-16h109v125c8 0 31-5 70-15h24v-32h-31v-78h70l58 63h4l71-67v-4l-20-23H688V218h54l59 63h4l54-51v-43H688V62h101l59 63h4l54-51V31M297 695l-24-23h-7V140h-47v32H0v562c5-5 21-11 47-16h31v-23l-31-27V203h62v703h55l24-20v-4l-32-27V203h63v515h78v-23Z"/></symbol><symbol id="巡_T" viewBox="0 0 1000 1000" data-size="22"><path transform="matrix(1 0 0 -1 54 954)" d="M828 844c-8 0-21-5-39-16 0-26-44-125-133-296v-24c76-96 115-156 117-180 12-23 23-65 32-125 5-20 8-37 8-51v-5l-24-22h-39c-11 139-52 271-125 397 0 4 3 7 8 10l31 93 16 32c21 68 41 146 62 234l8 8c0 6 2 8 5 8l58-32h15v-31m-187 0h-32c-29-104-73-208-132-312-5-2-8-5-8-8 86-102 135-198 148-289 5-10 8-21 8-32v-54l-23-24h-16l-16 16-31 156c-8 41-37 115-86 222 0 9 3 19 8 28l47 141 55 219h7c23-13 42-21 55-24 5-7 11-11 16-12v-27M188 703h-47c-13 48-32 84-55 110-34 18-52 31-55 39v23c52-12 104-51 157-117v-55m281 172c0-3-5-10-16-23-10-5-20-8-31-8l-39-125-86-172c-5-14-11-21-16-21v-5c65-66 114-151 149-255 5-9 8-17 8-24v-93l-24-24h-16l-15 16c-3 104-42 230-117 378 0 9 2 19 7 28l16 47 16 31 70 258v24l78-32h16M891 86c-31-34-47-52-47-54-30-11-94-21-192-32h-50c-34 0-68 3-102 8-127 0-250 55-367 164C81 105 55 69 55 63L0 16c0 15 34 83 102 203l39 141v125H16v31h140v47h8c8-13 31-32 70-55v-23h-31c0-47-3-84-8-110l-15-78c-6-30-19-59-39-88v-10c47-50 104-88 172-113l93-15c31-5 56-8 74-8h81c147 13 242 20 283 23 16 6 31 8 47 8v-8Z"/></symbol><symbol id="巢_T" viewBox="0 0 1000 1000" data-size="22"><path transform="matrix(1 0 0 -1 63 961)" d="M750 843c-26 0-62-13-109-39-11-13-16-21-16-23l94-39 15-16v-54h-39c-10 4-20 20-31 46l-70 71v15l70 71c13 26 21 39 24 39 0 5 2 8 7 8l55-51v-28m-234 0c-19 0-34-3-47-7l-94-39v-16c47-8 83-31 109-70v-55h-46c-21 60-53 104-94 133l86 86c13 26 21 39 23 39 0 5 3 8 8 8l55-51v-28m234-269c0-15-3-29-8-43-5-8-8-16-8-24V312c-5 0-20-5-46-15h-16v31H547v31h125v63H570l-23 23v8h125v78H570l-23 23v8h125v8l16 16c0 4 5 7 15 7h24c13-13 20-19 23-19M266 843c-37 0-84-16-141-46v-16l94-39 31-61-23-25h-8l-39 31c0 8-28 42-86 102 41 29 73 73 94 133h7c8-13 32-32 71-55v-24M875 47h-31c0-11-3-22-8-32L820 0c-7 0-15 2-23 7-99 13-209 83-328 211V0h-63v203c-67-45-104-74-109-86-52-26-78-42-78-47C125 30 52 7 0 0v31c135 26 250 94 344 203H0v31h406v360c3-6 21-11 55-16h39v-23l-31-28V265h250c34 10 63 31 86 63l39-39c10-5 20-8 31-8v-47H500c63-83 188-136 375-156V47M359 328H211c-8 0-16-3-23-8-37-14-55-21-55-23h-8v296l58-31h10c26 10 45 42 57 94l63-24 15-15v-24c-15 0-31-3-47-7-52-37-83-55-93-55v-78h54l47 47h16l54-55v-23H188v-63h54l47 47h16l54-55v-23Z"/></symbol><symbol id="巢_U" viewBox="0 0 1000 1000" data-size="23"><path transform="matrix(1 0 0 -1 103 893)" d="M369 569c11 0 22-3 33-9s24-15 39-26l-29-19V263h259l28 38c15-7 28-15 38-26 10-10 17-18 21-24H419c17-19 38-38 64-56s55-34 88-49c33-14 68-26 106-36 38-9 77-16 118-19v-5c-13-3-24-8-33-14s-18-14-27-23c-35 9-68 19-101 32s-63 28-91 45-53 35-76 55c-22 21-40 43-55 67V22C398 7 384 0 369 0v195c-19-19-41-36-68-52s-56-31-88-44-66-25-102-36C76 53 40 44 3 37l-3 3c37 9 72 21 107 34 35 14 68 30 99 48s58 38 83 59c25 22 45 45 61 70H63l-18-4-12 16h336v306m-265-41c9 0 19-3 29-8s21-11 33-20c24 5 46 12 65 19s34 16 45 25c11-4 22-10 32-18 11-8 18-16 23-25h-22c-13-2-31-4-56-6-24-1-51-2-81-3l-25-17v-45h79l26 35c15-6 27-14 36-24 9-9 16-17 19-22H147v-75h79l26 34c15-5 27-13 36-23 9-9 16-17 19-23H147v-17c-14-15-28-22-43-22v235m408-196-18-4-11 16h151v75H523l-17-5-12 16h140v63H518l-18-4-12 16h136l29 38c11-3 21-9 30-16 10-7 17-15 21-23l-27-27V315c-14-15-28-22-43-22v39H512M68 682c45-7 81-15 109-22 29-7 51-15 66-23s26-16 31-24c6-7 9-14 9-21 0-9-2-16-5-21s-8-7-13-7c-8 0-18 6-30 18-7 7-16 14-29 22s-27 16-44 25-35 17-55 26-40 18-61 27c34 9 66 23 96 40 30 18 52 39 66 64 11-3 21-7 31-12s17-10 21-15l-13-8c-15-16-40-30-73-42s-69-21-106-27m461 8c41-9 74-17 100-26s46-17 60-25c15-8 25-16 30-24 5-7 8-14 8-21 0-9-2-17-6-22-3-5-8-8-13-8-8 0-17 6-27 19-6 7-15 14-27 23-11 9-25 18-40 27s-32 19-51 28c-18 10-37 20-56 29 32 8 62 20 89 37s48 36 61 59c11-3 21-7 31-12s17-10 21-15l-13-8c-15-15-37-27-68-38-30-10-63-18-99-23m-225-1c42-9 76-17 103-26 27-8 47-16 62-24s26-16 31-23 8-14 8-21c0-10-2-18-6-23-3-5-7-8-12-8-9 0-18 6-29 19-6 7-15 15-27 24s-26 18-42 27-33 19-52 28l-57 27c30 9 57 21 82 38s44 36 56 59c11-3 21-7 31-12s17-10 21-15l-13-8c-13-15-34-27-63-38-28-11-59-19-93-24Z"/></symbol><symbol id="巽_T" viewBox="0 0 1000 1000" data-size="22"><path transform="matrix(1 0 0 -1 47 969)" d="m875 572-23-25H523l-23 23v352h8l47-47h226v31l63-23 15-16v-23h-31v-71l31-27v-27H563V594h230c1 5 5 10 12 15 13 42 21 63 23 63v16h16c0-21 3-42 8-63 13-28 20-42 23-42v-11m-437 0-24-25H86l-23 23v368h7l47-47h227v31l62-24 16-15v-24h-31v-86l31-27v-27H125V594h227c7 0 20 20 39 62v16h15v-24l32-76m468-369H16v31h250v141H78v31h188v94h93v-23l-31-28v-43h235v94h93v-23l-31-28v-43h90l56 63c26-8 55-32 88-71v-23H625V234h137l55 63c26-8 56-31 89-70v-24M844 16h-39c-76 67-157 114-242 140v16h39c75-13 156-52 242-117V16m-469 93c-21 0-41-2-62-7C297 73 208 39 47 0H0l250 117 47 47c0 5 4 8 11 8l51-24 16-15v-24m391 641v94H563v-94h203m-438 0v109H125V750h203m235-516v141H328V234h235Z"/></symbol><symbol id="帨_T" viewBox="0 0 1000 1000" data-size="22"><path transform="matrix(1 0 0 -1 39 961)" d="M578 718h-47c-5 68-31 125-78 172l63-23c31-47 51-73 62-78v-71M922 78c0-6-5-21-16-47V15H695l-23 20v371h-78V261c-8-12-21-47-39-105C527 93 461 41 359 0h-31v15c49 10 104 52 164 125 23 47 42 105 55 172v94h-47v-63h-62v375h23l27-31h184l70 172c5 20 8 41 8 63l63-24 15-16v-23h-31l-24-62c-39-47-62-84-70-110h78v31l63-23 15-16v-23h-31V461l31-28v-27H734V78h110l23 78c14 11 22 16 24 16V78h31M375 695l-23-23h-8V222c-5-2-11-5-16-11l-47-16c-4-5-8-8-11-8-9 10-16 21-20 31v16h-31v31h62v422h-78V0h-62v687H63V211l-20-24H0v563h23l28-32h90v204h47l31-16h15v-31h-31V718h94v32h23l55-51v-4m391-258v219H500V437h266Z"/></symbol><symbol id="帽_T" viewBox="0 0 1000 1000" data-size="22"><path transform="matrix(1 0 0 -1 47 969)" d="M906 859h-31V563h-62v-16c10 0 20-3 31-8l31-31-23-24h-8V39l-20-23h-43v47H469c0-11-3-21-8-32l-16-15h-39v531h-8l-23 23v352h23l32-31h390l29 31 42-24 15-15v-24M359 711l-23-23h-8V258c-15-23-41-42-78-55 0 11-3 21-8 31l-15 16h-24V23L184 0h-43v703H63V203c-5 0-21-5-47-15H0v593l70-47h71v204h47l31-16h15v-31h-31V734h78v32h24l54-51v-4m454 55v93H438v-93h375m0-125v93H438v-93h375m0-55v23H438v-46h-32v-16c11 0 21-3 32-8l23-23h336c0 7 5 31 16 70m-32-211v109H469V375h312m0-141v110H469V234h312m0-140v109H469V94h312M266 281v422h-63V281h63Z"/></symbol><symbol id="幩_T" viewBox="0 0 1000 1000" data-size="22"><path transform="matrix(1 0 0 -1 54 961)" d="M891 812H656v-94h-62v94H375v31h219v79h70l24-20v-27h-32v-32h117l47 47h16l55-54v-24m0-172H766v-78h-32v-15h63v31l62-24 16-15v-24h-31V172h-63v31H578v-16c11 0 21-3 31-8l16-15v-24L422 23 328 0v15c73 19 146 73 219 164v24h-78v-31h-63v406c3 0 11-6 24-16h8v78h-79v32h79v93h70l23-19v-4l-31-27v-43h23l47 46h8c0-10 3-21 8-31l23-23v-24H500v-78h-47v-15h250v93h-62v32h62v93h47l31-15h16v-32h-31v-46h39l43 46h4c7 0 20-21 39-62v-16m0-640h-39c-60 60-115 94-164 101-11 13-16 21-16 24h31l94-24 62-31 32-31V0M344 711l-24-24h-7V226c0-8-21-21-63-39h-16v31h-15l-31 16V0h-63v703H63V211l-20-24H0v578h23l28-31h74v188c3-5 21-11 55-16h39v-24l-31-27V734h78v31h23l55-50v-4m437-274v78H469v-78h312m0-109v78H469v-78h312m0-94v63H469v-63h312m-531 31v438h-62V265h62Z"/></symbol><symbol id="幩_P" viewBox="0 0 1000 1000" data-size="22"><path transform="matrix(1 0 0 -1 54 961)" d="M891 812H656v-94h-62v94H375v31h219v79h70l24-20v-27h-32v-32h117l47 47h16l55-54v-24m0-172H766v-78h-32v-15h63v31l62-24 16-15v-24h-31V172h-63v31H578v-16c11 0 21-3 31-8l16-15v-24L422 23 328 0v15c73 19 146 73 219 164v24h-78v-31h-63v406c3 0 11-6 24-16h8v78h-79v32h79v93h70l23-19v-4l-31-27v-43h23l47 46h8c0-10 3-21 8-31l23-23v-24H500v-78h-47v-15h250v93h-62v32h62v93h47l31-15h16v-32h-31v-46h39l43 46h4c7 0 20-21 39-62v-16m0-640h-39c-60 60-115 94-164 101-11 13-16 21-16 24h31l94-24 62-31 32-31V0M344 711l-24-24h-7V226c0-8-21-21-63-39h-16v31h-15l-31 16V0h-63v703H63V211l-20-24H0v578h23l28-31h74v188c3-5 21-11 55-16h39v-24l-31-27V734h78v31h23l55-50v-4m437-274v78H469v-78h312m0-109v78H469v-78h312m0-94v63H469v-63h312m-531 31v438h-62V265h62Z"/></symbol><symbol id="庰_T" viewBox="0 0 1000 1000" data-size="22"><path transform="matrix(1 0 0 -1 39 969)" d="m922 398-20-23H703V0h-62v375H531v31h110v157h-94v31h109v15l24 47c13 54 21 83 23 86v24h55l23-20v-27h-31c0-11-3-21-8-31-3 0-21-31-54-94h70l58 62h4l71-66v-4l-20-23H703V406h86l59 63h4l70-67v-4m0 422-20-23H125V473c-13-82-21-141-23-176-11-57-21-104-32-141C44 89 28 52 23 47 10 36 3 31 0 31v24c21 71 35 125 39 164 15 130 23 195 24 195v461h7l47-47h352l-24 63c-13 21-31 31-54 31v16h31l86-47 23-63h242l59 63h4c23-29 52-52 86-71M484 375H328v-74c-13-47-21-79-23-98-8-63-63-125-164-187v23c58 49 92 93 101 133 12 52 20 78 24 78v125H141v31h140v157H180l-24 23v8h125c0 5 3 10 8 15 13 53 21 79 24 79v78h70l23-20v-4l-39-39-54-109h39l46 47h16l55-55v-23H328V406h39l31 32c5 10 8 20 8 31 37-14 63-32 78-55v-39Z"/></symbol><symbol id="庰_P" viewBox="0 0 1000 1000" data-size="22"><path transform="matrix(1 0 0 -1 39 969)" d="m922 398-20-23H703V0h-62v375H531v31h110v157h-94v31h109v15l24 47c13 54 21 83 23 86v24h55l23-20v-27h-31c0-11-3-21-8-31-3 0-21-31-54-94h70l58 62h4l71-66v-4l-20-23H703V406h86l59 63h4l70-67v-4m0 422-20-23H125V473c-13-82-21-141-23-176-11-57-21-104-32-141C44 89 28 52 23 47 10 36 3 31 0 31v24c21 71 35 125 39 164 15 130 23 195 24 195v461h7l47-47h352l-24 63c-13 21-31 31-54 31v16h31l86-47 23-63h242l59 63h4c23-29 52-52 86-71M484 375H328v-74c-13-47-21-79-23-98-8-63-63-125-164-187v23c58 49 92 93 101 133 12 52 20 78 24 78v125H141v31h140v157H180l-24 23v8h125c0 5 3 10 8 15 13 53 21 79 24 79v78h70l23-20v-4l-39-39-54-109h39l46 47h16l55-55v-23H328V406h39l31 32c5 10 8 20 8 31 37-14 63-32 78-55v-39Z"/></symbol><symbol id="庳_T" viewBox="0 0 1000 1000" data-size="22"><path transform="matrix(1 0 0 -1 39 969)" d="m828 711-23-23h-8V391h-16l-26-16-28 31H281l-47-23c-3-5-6-8-9-8-11 13-18 20-22 20v355h24l27-31h496v31h39l39-35v-4m94 109-20-23H125V461c-13-92-21-156-23-195l-16-78C74 128 53 76 23 31 10 21 3 16 0 16c0 10 3 20 8 31 10 37 20 84 31 141 13 143 21 214 24 214v473h7l47-47h352l-24 63c-13 21-31 31-54 31v16h31l86-47 23-63h242l59 63h4c23-29 52-52 86-71m-16-578-19-23H656V0h-62v219H156v31h172v125h31l32-16h15v-15l-15-31v-63h203v125h70l24-19v-28h-32v-78h117l59 63h4l70-67v-4M734 578v110H531V578h203m0-140v109H531V438h203M469 578v110H266V578h203m0-140v109H266V438h203Z"/></symbol><symbol id="庶_T" viewBox="0 0 1000 1000" data-size="22"><path transform="matrix(1 0 0 -1 31 961)" d="m938 304-20-23H188v31h171v203H258l-24 24v8h125v171l63-15h31v-31h-31V547h203v156h94v-24l-31-27V547h23l59 62h3l40-39c10-5 20-8 31-8v-47H688V312h101l59 63h4c13-19 31-32 54-39l32-32M906 27 883 0h-16l-15 15c-13 80-42 146-86 196v23c67-36 114-105 140-207m16 746-20-23H172V453c-13-74-21-126-24-156l-15-79c-14-66-35-118-63-156L23 0H0v7c3 0 21 34 55 102 15 51 25 98 31 141l23 156v422h8l47-47h352c0 5-3 11-8 16-8 46-21 83-39 109v16l54-32 40-84c-2-2-7-8-16-17v-8h226l59 62h4c23-29 52-52 86-70M672 23 652 0h-27l-23 156-24 78 39-31 55-110V23M469 50c-1-1-4-2-8-3-11-27-21-42-31-47h-24v187l-15 31v16c3 0 10-5 23-16l39-78V62c5 0 11-2 16-6v-6M281 164C263 83 229 29 180 0h-39v39l47 47c10 4 20 7 31 7 0 11 3 21 8 32 10 5 20 20 31 47 5 20 8 41 8 62h15v-70m344 148v203H422V312h203Z"/></symbol><symbol id="廊_T" viewBox="0 0 1000 1000" data-size="22"><path transform="matrix(1 0 0 -1 47 969)" d="M891 664c-11-13-21-20-32-23h-15v-16l-86-172c-5-3-8-7-8-10 73-57 114-111 125-162V164c-31-39-63-63-94-70h-31c0 10-3 20-8 31l-23 23c-16 5-32 8-47 8v8c11 13 17 21 17 24 2 0 9-5 22-16h78l39 39v47c0 8-3 16-8 23-5 26-21 63-47 110l-54 52c0 3 3 7 8 10l70 188v15H656V16h-23L594 0v266h-31l-94-47h-16l86-94 16-47c5-4 8-8 8-12-3 0-11-6-24-19h-8L375 227l-62 23v16h39c15-12 33-23 54-32 15-5 22-10 22-15h5l90 94h24l39-32h8v453l70-46h149v46c36-13 62-31 78-54v-16m15 117H359c0-3 5-10 16-23 11-5 21-8 31-8v-31c-10 0-20-3-31-8-52-39-78-63-78-70h168l24 31 42-24 16-15v-24h-31V352l-24-24h-15l-32 31H266V109h31l94 24c10 5 20 8 31 8v-32L297 55c-16-5-32-8-47-8V16h-23c-11 5-21 20-32 47l-7 1v15l15 30v579l39-32h8l39 32 55 93H125V461c-13-92-21-156-23-195l-16-78C74 128 53 76 23 31 10 21 3 16 0 16c0 10 3 20 8 31 8 27 18 74 31 141l24 195v476h7l47-46h367v39c0 7-2 15-7 23-13 37-21 55-24 55v8h24c21-17 36-36 44-56 7-17 10-40 10-69h231l55 62c26-8 56-31 89-70v-24M453 516v93H266v-93h187m0-125v93H266v-93h187Z"/></symbol><symbol id="当_T" viewBox="0 0 1000 1000" data-size="22"><path transform="matrix(1 0 0 -1 54 938)" d="M891 562h-39c-11 6-21 21-32 47L625 797c65-19 127-53 188-102 46-37 72-71 78-101v-32M516 836l-24-24h-8V484c-5 0-20-5-46-15h-16v406c2-5 21-11 55-16h39v-23m-203-86c-16 0-32-3-47-8-16-60-105-125-266-195v31c125 52 198 125 219 219l62-16h32v-31M828 0H78v31h656v188H141v31h593v172H86l-23 23v8h671v8l16 15c0 5 3 8 10 8l53-23 15-16v-23h-31V55l31-28V0Z"/></symbol><symbol id="㞁_T" viewBox="0 0 1000 1000" data-size="22"><path transform="matrix(1 0 0 -1 39 961)" d="M875 797h-31V515h-63v47H500c0-10-3-20-8-31l-15-16h-39v344h23l31-31h297l28 31 42-23 16-16v-23m-31-657H477l-24 20v324h94v-23l-31-28v-43h211l46 47h16l55-55v-23H516V187h328v-47m78-116L898 0H273l-23 23v602h70l24-20v-27h-31V62h527c1 5 5 10 12 16 13 36 20 62 23 78v31c3 0 10-5 23-15l16-94c5-18 8-36 8-54M422 687H219V547c-13-73-21-126-24-157l-15-78c-11-53-42-126-94-219-20-35-41-61-63-78H0c3 0 31 52 86 157l31 93c8 34 18 92 31 172l24 219v31H39l-23 24v7h156v204c5-5 21-11 47-16h31v-16c-13-32-21-52-23-62-5-8-8-16-8-24v-86h86l47 47h31l39-39v-39m359 16v94H500v-94h281m0-110v79H500v-79h281Z"/></symbol><symbol id="㠯_T" viewBox="0 0 1000 1000" data-size="22"><path transform="matrix(1 0 0 -1 188 961)" d="M625 78H63V0H0v922l63-16h31v-24l-31-27v-27h449l24 31 42-23 16-16v-23h-31V586l31-28v-27H63V375h480l24 31 42-24 16-15v-24h-31V132l31-27V78M500 562v235H63V562h437m31-453v234H63V109h468Z"/></symbol><symbol id="㡢_T" viewBox="0 0 1000 1000" data-size="22"><path transform="matrix(1 0 0 -1 39 969)" d="M734 781H500v32h156v7l16 16c0 5 2 8 5 8l42-24 15-15v-24m110 121c0-14-3-28-8-43-5-7-8-15-8-23V641h-62v218H469V641h-63v281h24l27-31h324v31h43c9-13 16-20 20-20M734 688H500v31h156v8l16 15c0 5 2 8 5 8l42-23 15-16v-23m188-52c0-15-3-29-8-42-5-8-8-16-8-24V445l-23-23h-16l-31 31H625l39-47c5-16 8-31 8-47h133l43 47h4l54-50v-28H547v-23c-11-34-16-52-16-55h289l28 31h4l54-50v-4l-23-24c-11-21-21-62-31-125-8-23-21-42-39-55-42-13-63-20-63-23h-16c0 15-2 31-7 47-19 11-32 16-39 16v15h109v24l16 46v71H539l-16-16-15-47c-23-39-42-62-55-70-21-18-62-41-125-70h-31c49 21 104 73 164 156 13 52 20 78 23 78v78H367l-23 24v7h265v55l-39 39H398l-31-31h-39v234h24l27-31h480v31h43c9-14 16-20 20-20m-578 91-24-24h-7V242c0-8-21-21-63-39h-16v31h-15l-31 16V16h-63v703H63V227l-20-24H0v578h23l28-31h74v188c3-5 21-11 55-16h39v-24l-31-27V750h78v31h23l55-50v-4m500-243v110H734V484h110m-172 0v110H563V484h109m-172 0v110H391V484h109M250 281v438h-62V281h62Z"/></symbol><symbol id="㡼_T" viewBox="0 0 1000 1000" data-size="22"><path transform="matrix(1 0 0 -1 39 969)" d="m922 805-20-24H156V473c-6-47-14-106-23-176C117 185 73 91 0 16v15c13 16 32 63 55 141l15 78c9 46 16 90 20 131l4 45v433h8l46-46h321c0 5-3 10-8 15-11 40-22 65-31 78l-24 32c54-16 83-32 86-47 16-47 24-73 24-78h273l59 62h4l70-66v-4M859 22 836 0h-23c-99 31-167 73-204 125h-15c-16-13-63-31-141-55L258 31h-86v16l266 55 140 54-62 164v24H297c0-11-3-21-8-31l-16-16h-39v375h24l27-31h168v15l-15 32v78h93v-24l-31-27v-74h234v31l63-24 16-15v-24h-32V320l-19-23h-43v47H563l54-125c14-11 22-16 24-16 36 34 62 52 78 55l20 23 42-23 16-16v-23c-16 0-32-3-47-8l-78-39v-24l31-31 63-31c3-5 6-8 9-8l53 94v16h31v-16c-13-42-20-73-23-94-5-3-8-7-8-11 1-1 3-3 8-4l16-32c5-3 7-6 7-9M719 500v109H516v-62l15-31v-16h188m0-125v94H531l16-63v-31h172M469 500c0 11-3 21-8 31-5 26-8 52-8 78H297V500h172m31-125c0 5-3 11-8 16l-15 62-16 16H297v-94h203Z"/></symbol><symbol id="𡧈_T" viewBox="0 0 1000 1000" data-size="22"><path transform="matrix(1 0 0 -1 63 953)" d="M875 703c-21 0-41-3-62-8l-71-70h-23l23 31 39 78H94c0-21-3-47-8-78-3-21-22-42-55-63h-8L0 617v39h31c0 11 3 21 8 31 11 5 21 21 31 47l16 63c13 10 20 15 23 15v-47h313v39c0 8-3 16-8 24-8 36-21 62-39 78h23l63-63 23-52c-1-3-6-9-15-18v-8h320l27 32h28c0-11 3-22 8-32l23-23v-39M719 562H86l-23 24v7h531v8l47 47c0 5 2 8 7 8l71-66v-28m109-117-19-23H234l-46-110v-15h460c13 10 21 20 24 31v15h8c7-13 31-31 70-54v-16c-11-13-21-20-31-23h-16v-32c-13-58-20-94-23-109-23-55-42-83-55-86L563 0l-63 39c-15 5-31 8-47 8v31h47c2 0 10-6 24-16h9c5 0 9 3 14 8l47 16 8 7 15 32c14 52 22 78 24 78v62H125v32c15 26 31 62 47 109v16H23L0 445v8h688v8l46 46c0 5 3 8 8 8 14-18 32-31 55-39l31-31Z"/></symbol><symbol id="𡬘_T" viewBox="0 0 1000 1000" data-size="22"><path transform="matrix(1 0 0 -1 39 961)" d="M906 765h-62v-23l47-43v-27H734v-63h-46v172c5-5 20-11 46-16h32v-31h-32v-31h79v8l-16 15v12c10 16 15 25 16 27v32H469v-24c-5-21-11-31-16-31-15-6-31-8-47-8V586l-35-39h-43v31c-11 0-21 2-31 8l-24 23c-2-1-6-7-11-16h-4c-23 16-42 42-55 79h24l117 39c5 6 10 9 15 11v121H234v32h125v7l24 24 55-55v-8h-32v-62h8l31 31c5 16 8 32 8 47h16v-31h156v31l-31 55v8h23l63-63c5-11 8-21 8-31h132l32 31h7c2 0 10-5 24-16l23-46v-32m-281-47h-31V593h-47v63h-94v31h94v78c2 0 21-5 55-15h23v-32m-312 16h-24l-16 16-39 78h24l55-51v-43M922 22 898 0H680l-24 23v211h-23l-16-16-15-62c-11-43-39-82-86-117L414 0h-55v15c91 21 146 53 164 94l40 125h-32v-31h-62v406h23l31-31h235l28 31 42-23 16-16v-23h-31V218h-16l-26-15-25 31h-27V62h117c26 31 39 63 39 94h31c0-31 3-63 8-94 5-13 8-26 8-40M94 757l-20-23h-8c-1 5-5 10-11 16-8 36-21 62-39 78h39l39-35v-36m125 94-24-23h-7V586l-36-39h-43v31H63v31H31c0 11-3 21-8 31L0 664v23l117 31h24v125H0v32h141v7l15 16c0 5 3 8 8 8l55-51v-4m219-500-24-23h-8L258 484h-8c-73-68-146-115-219-141H0v16c94 29 167 93 219 195 0 5 5 8 15 8 5 0 21-5 47-15h16v-32h-31v-15c67-13 125-53 172-118v-31m-141 24L109 257l-93-23v16l93 39 110 133 62-24c11-13 16-20 16-23m62-94c-15 0-31-3-46-8-39-55-125-104-258-148H16v15c78 19 146 53 203 102 41 44 62 72 62 86h32l31-16h15v-31m79-94C287 72 146 10 16 0c156 59 270 135 343 226 0 5 5 8 16 8 5 0 21-5 47-16h16v-31m390 531v16h-15v-16h15m-78-250v79H531v-79h219m0-109v78H531v-78h219M359 609v63l-62-24-16-16v-23h78m391-344v63H531v-63h219M141 609v78l-63-31H63v-47h78Z"/></symbol><symbol id="𡷤_T" viewBox="0 0 1000 1000" data-size="22"><path transform="matrix(1 0 0 -1 54 945)" d="M813 593H563c0-10-3-21-8-31l-16-15h-39v328l55-32h179v32l63-24 16-15v-24h-32V648l32-27v-28m78-296H641C562 135 453 36 313 0h-32c145 91 225 153 242 187l55 110H313v31h296l32 133v23H430c-8 0-16-3-24-8-16-5-31-8-47-8v344h71l23-19v-4l-31-28V515h211c13 10 20 21 23 32v15h8l70-70c-10-14-20-22-31-24h-15v-31l-32-109h117l59 62h4l55-50v-43m0-297h-39c-42 52-63 83-63 93L672 203h39c75-45 136-95 180-149V0M313 718h-32V125h-47v31H0v609h31l32-15h15v-32H47V187h62v703h55l24-23v-8h-32V187h78v578h32l31-15h16v-32m406-93v187H563V625h156Z"/></symbol><symbol id="𡷦_T" viewBox="0 0 1000 1000" data-size="22"><path transform="matrix(1 0 0 -1 78 969)" d="m844 836-24-24h-7V429c0-7-21-20-63-39h-39l-23 24c-42 12-63 20-63 23h-16v16h125v8l16 15v352H516V328c-5 0-21-6-47-16h-16v594h8l47-47h258v31h23l55-50v-4m-438-39h-31V601l-20-23h-42v47H63v-32c-11 0-21-3-32-7-10-13-15-21-15-24h78v-23l-31-28v-27h15c47 13 83 21 110 23 47 11 83 21 109 32 10 5 19 8 28 8l50-24 16-16-20-23h-8l-7 16c-3 0-7-3-12-8l-94-24H125c-5 0-21-5-47-15H63v-63h328v-62H23L0 347v227c10 5 15 9 16 11v4c-10 6-15 10-16 12v258h23l28-31h43c0 10 3 20 8 31 5 26 7 52 7 78 5-6 21-11 47-15h32v-32h-32c0-21-10-42-31-62h199l26 31 41-23 15-16v-23m391-563h-31V0h-63v47H47v234h47l31-16h16v-31h-32V78h266v234c8 0 31-5 70-15h24v-32h-31V78h265v203h47l31-16h16v-31M313 734v63H63v-63h250m0-78v47H63v-47h250Z"/></symbol><symbol id="𢆃_T" viewBox="0 0 1000 1000" data-size="22"><path transform="matrix(1 0 0 -1 47 969)" d="M906 828H719v-39l39-39h47l31 31h4l35-38v-12c-10-17-15-27-16-28v-39l32-27v-28H766v-93h109v-47H742l-23 19v293h-31l-57 16-37-35v-28h43l24 32 27-16h15c0-15-3-31-8-47-5-8-7-16-7-23V461l-20-23h-27v31h-63l-55-31h-7v62c-5 0-11-3-16-8-78-23-125-41-141-54h-15v-32h-31l-32 78v16h32v203h62v-15l-16-32V500h47v250h63v-16l-16-31v-47c3 0 11 5 24 16 5 11 7 21 7 31 2 0 10-5 24-15h8v58c-13 9-21 16-24 20-5 21-8 41-8 62H328v31h156v79h47l32-16h15v-31h-31V789l-31-31v-8h15l32-16c0 5 5 32 15 79v31h16l31-16h31v110l63-16h31v-31h-31v-32h101l43 47h4l39-35v-43m0-525-23-22h-24c-5 0-31 29-78 86-21 5-41 21-62 47v24c95-45 147-74 156-86 13-17 20-30 23-39 5-3 8-7 8-10m0-240c-10 0-20-3-31-8L840 0c-4 0-8 3-12 8-106 28-188 62-245 101l-20-23c-68-26-105-42-110-47-52-13-78-20-78-23h-62v15l93 24 141 78-86 86h-8l-31-24-78-39h-31v16c62 25 104 53 125 84 0 3-3 7-8 10-9 26-21 42-34 47l-99-47h-16l117 109 24 63h70l24-20v-4c-31-15-63-41-94-78v-16l23-23c5-11 8-21 8-31h16c0 10 3 20 8 31 14 5 41 42 80 109 2 0 14-5 37-15h15v-32h-31v-31h102c13 11 21 21 23 31v16c37-13 62-32 78-55l-54-54c-34-63-63-104-86-125 78-31 166-52 265-63V63M297 711l-24-23h-7V234h-16l-62-31c0 11-3 21-8 31-13 11-21 16-24 16V23L137 0h-28v703H47V203H0v563l55-32h54v204h32l31-16h16v-31h-32V734h55l27 32h4l55-51v-4m516-70v78h-47v-78h47m-172 15v47h-78v-47h78m0-78v47h-78v-47h78m0-78v47h-78v-47h78m-125 16v109h-63V516h24c1 1 5 6 12 15h5l14-15h8m156-258v39H555l-55-51v-19l31-32c23-7 42-20 55-39 34 28 63 62 86 102m-453 23v422h-63V281h63Z"/></symbol><symbol id="𪎒_T" viewBox="0 0 1000 1000" data-size="22"><path transform="matrix(1 0 0 -1 39 961)" d="M922 765H156V457c-6-47-14-106-23-176C117 169 73 75 0 0v15c13 16 32 63 55 141l15 78c9 46 16 89 20 131l4 45v418h23l28-31h339l-23 78-23 47h23l62-63c5-21 8-42 8-62h258l59 62h4l70-66v-28M906 54c0-7-21-20-62-39H719l-63 24-31 31v211H391v-63c21 0 62-18 125-54l31-60v-5l-22-21c-3 0-6 2-9 8-11 0-42 31-94 93l-47 24c0-21-3-42-8-63-23-55-41-84-54-86L203 0h-47v15c76 21 126 53 149 94 13 39 21 59 23 59v168l-31 27v137h-16c0-11-3-21-8-32l-78-78h-39l55 63 70 140H172v32h125v125l62-16h32v-23l-32-28v-58h24l47 47h15l55-55v-24H359v-46c63-8 104-32 125-71v-39h-39c-26 21-42 42-47 63l-39 31V359h-31v-16c21 0 42-10 63-31h218c2 0 10 5 24 16l23 47v140h-15c0-13-21-41-63-86l-62-23 86 109 39 78h-94v32h109v125c3-6 21-11 55-16h39v-23l-31-28v-58h54l47 47h16l55-55v-24H719v-31l62-23c31-16 63-42 94-78v-55h-23c-27 41-63 83-110 125h-23V375c-5 0-21-5-47-16h-16v-16c11 0 21-3 32-7l31-32v-15l-31-28V101l23-23h109l16 15 16 79c13 10 20 15 23 15V78h8l23-24Z"/></symbol></svg>