<svg xmlns="http://www.w3.org/2000/svg"><symbol id="切_T" viewBox="0 0 1000 1000" data-size="22"><path transform="matrix(1 0 0 -1 54 945)" d="m891 820-24-23h-8V394c-13-82-20-141-23-176-26-94-42-140-47-140-17-37-52-63-107-78-2 1-8 6-18 15-5 10-8 21-8 32-3 0-21 5-54 15h-24v31c5 0 21-5 47-15h78c34 20 52 41 55 62l15 63 16 109 24 375v125H578c0-26-3-52-8-78-5-13-7-26-7-39V465c-13-64-21-110-24-137C502 187 414 78 273 0h-23v31c3 0 42 26 117 78 47 42 83 105 110 188l15 78c14 130 22 195 24 195v242H297v31h516v8l15 16c0 5 5 8 16 8h8l39-39v-16M344 312c-37-60-125-115-266-164-10-18-15-31-15-39H39l-16 16-23 52c1 2 7 8 16 18l109 23v360H16v31h109v281c8 0 31-5 70-15h24v-32h-31V609h23l59 63h3l71-67v-27H188V250l140 62h16Z"/></symbol><symbol id="喫_T" viewBox="0 0 1000 1000" data-size="22"><path transform="matrix(1 0 0 -1 47 961)" d="m578 570-15-16-94-31c-57-11-104-21-141-31-10-18-15-31-15-39h-28c-1 5-5 10-12 15-13 42-20 63-23 63v16h125v109H266v31h109v94H266v31h109v110c5-5 21-11 47-16h31v-16l-15-31v-47h39l43 47h3l55-51v-27H438v-94h23l47 47h15l40-39v-39H438v-94c21 0 41 3 62 8 11 5 21 8 31 8h47v-8m328 266-23-24-16-140-15-110c-5-32-15-69-32-109l-23-24-47-23h-47c0 8-5 21-15 39-11 5-21 8-32 8v31c8 0 32-5 71-16h31l15 16 16 47 16 78 15 172c5 15 8 31 8 47H719v-90c-13-45-21-78-24-98 0-16-21-62-62-140-60-52-94-78-102-78 0-3 5-11 16-24 15-6 31-8 47-8v-15l-31-63h195l58 63h4l39-39c11-6 21-8 32-8v-47H563c-31-100-72-164-125-195-61-36-131-65-211-86h-55v15c52 3 125 31 219 86 57 45 94 94 109 149v31H281v31h235v86c-2 2-7 7-16 15v7c85 63 134 147 148 252 12 88 20 132 24 132v24h-78v31h234v8l16 15c0 5 2 8 5 8l42-23 15-16v-15M891 15h-39L719 148l-78 39v31c104-39 187-94 250-164V15M250 297H63v-63H0v609h8l47-46h117v31l62-24 16-15v-24h-31V351l31-27v-27m-94 31v437H63V328h93Z"/></symbol><symbol id="喳_T" viewBox="0 0 1000 1000" data-size="22"><path transform="matrix(1 0 0 -1 39 946)" d="M922 0H234v31h125v453h-15l-63-31h-31v16c115 36 198 124 250 265H281v32h266v125l62-16h32v-31h-32v-78h149l58 62h4l71-66v-4l-20-24H609v-39l188-94c30-15 66-45 109-93v-32l-19-23h-4l-70 70-180 133h-24V453h141v31l63-23 15-16v-23h-31V31l55 47h15l55-55V0M266 250H63v-63H39L0 172v609h8l47-47h133v32l62-24 16-16v-23h-32V312l32-54v-8m281 203v219L406 523c-26-10-42-20-47-31l36-39h152m187-141v110H422V312h312m0-140v109H422V172h312m0-141v110H422V31h312M172 281v422H63V281h109Z"/></symbol><symbol id="嗂_T" viewBox="0 0 1000 1000" data-size="22"><path transform="matrix(1 0 0 -1 47 969)" d="M891 781h-32l-23-63c-68-94-104-140-109-140h-24v23l24 24c10 26 20 42 31 47 5 26 21 62 47 109 5 15 8 31 8 47h31l31-16h16v-31m-63 117-15-16c-68-21-146-41-235-62-91-14-137-21-137-23H328c0 2 5 9 16 23 182 26 312 62 390 109 0 5 2 8 6 8l73-31h15v-8M641 617l-24-24h-15l-16 16c-5 42-21 84-47 125l-39 47c55-16 83-32 86-47l55-94v-23m-219-24h-47l-39 110-39 39v23c29-6 62-31 101-78l24-47v-47m484-296H625V62h156v172h47l31-16h16v-31h-31V23L824 0h-43v31H328v203h47l31-16h16v-31h-31V62h172v235H266c0 26 39 83 117 171l39 110h8c23-14 41-22 54-24 5-6 11-10 16-11v-4c-11-13-21-21-31-24h-16v-31h258l59 63h3l40-40c10-5 20-7 31-7v-47H625V328h125l47 23 25 24c42-13 70-32 84-55v-23m-640-32H63c0-10-3-20-8-31l-16-16H0v594h23l28-31h137v31l62-23 16-16v-23h-32V328l32-55v-8m297 63v125H430c-76-68-115-102-117-102-11-13-16-20-16-23h266m-391-31v453H63V297h109Z"/></symbol><symbol id="嘆_T" viewBox="0 0 1000 1000" data-size="22"><path transform="matrix(1 0 0 -1 47 946)" d="M906 750H750c0-26-3-52-8-78-7-5-11-10-12-15h-42v70l15 15v8h-94v32h94v109c8 0 31-5 70-16h24v-8l-31-31v-54h7l63 62 70-66v-28m-312 24-20-24H469v-93h-47c0 7-5 31-16 70v23H297v32h109v15l-15 31v63c3-5 21-10 54-16h39v-8l-31-31v-54h8l62 62 71-66v-4m312-571H563c-6-36-53-85-141-148-33-23-100-41-203-55v32c26 0 83 18 172 54 57 34 94 73 109 117H281v32h235v15l31 78H313v32h234v78H375v-31c-11 0-21-2-31-8-3-5-7-8-10-8-11 13-18 19-21 19v231h23l27-31h418v31l63-24 15-15v-24h-31v-86l31-27v-27H609v-78h125l47 23 26 24c41-13 69-32 84-55v-24H594c0-20-3-41-8-62-5-11-8-21-8-31h195l59 62h4l39-39c11-5 21-8 31-8v-47m0-164-23-23h-8c-78 70-146 115-203 133-11 13-16 20-16 23 105-12 188-51 250-117V39M266 297H63c0-15-3-31-8-47-7-5-11-10-12-15H0v578h8l47-47h133v31l62-23 16-16v-23h-32V352l32-27v-28m500 172v109H609V469h157m-219 0v109H375V469h172M172 328v407H63V328h109Z"/></symbol><symbol id="嘆_P" viewBox="0 0 1000 1000" data-size="22"><path transform="matrix(1 0 0 -1 47 946)" d="M906 750H750c0-26-3-52-8-78-7-5-11-10-12-15h-42v70l15 15v8h-94v32h94v109c8 0 31-5 70-16h24v-8l-31-31v-54h7l63 62 70-66v-28m-312 24-20-24H469v-93h-47c0 7-5 31-16 70v23H297v32h109v15l-15 31v63c3-5 21-10 54-16h39v-8l-31-31v-54h8l62 62 71-66v-4m312-571H563c-6-36-53-85-141-148-33-23-100-41-203-55v32c26 0 83 18 172 54 57 34 94 73 109 117H281v32h235v15l31 78H313v32h234v78H375v-31c-11 0-21-2-31-8-3-5-7-8-10-8-11 13-18 19-21 19v231h23l27-31h418v31l63-24 15-15v-24h-31v-86l31-27v-27H609v-78h125l47 23 26 24c41-13 69-32 84-55v-24H594c0-20-3-41-8-62-5-11-8-21-8-31h195l59 62h4l39-39c11-5 21-8 31-8v-47m0-164-23-23h-8c-78 70-146 115-203 133-11 13-16 20-16 23 105-12 188-51 250-117V39M266 297H63c0-15-3-31-8-47-7-5-11-10-12-15H0v578h8l47-47h133v31l62-23 16-16v-23h-32V352l32-27v-28m500 172v109H609V469h157m-219 0v109H375V469h172M172 328v407H63V328h109Z"/></symbol><symbol id="噑_T" viewBox="0 0 1000 1000" data-size="22"><path transform="matrix(1 0 0 -1 39 961)" d="M891 390H672v32h109l32 39v7h-32v63H641V281h-63v250H422c0-16-3-32-8-47-7-5-11-11-12-16h-43v375l63-31h78c3 0 10 5 23 16l40 86c0 5 5 8 15 8 5 0 21-5 47-16h16c0-3-31-31-94-86v-8h246l24 31 42-23 16-16v-23h-31V461l47-43v-28m-344 0H336l-23 24v8h125v7l31 32c0 4 5 7 15 7h8l55-54v-24m375-203H641V0h-63v187H297v31h281v32h63v-32h164l54 55v8H695l-23 23v8h109v8l47 47c0 5 3 8 8 8l70-67v-4l-31-27v-4l47-43v-43M547 304l-20-23H328v31h94v8l47 47c0 5 3 8 8 8l70-67v-4m-266-39H63v-31c-5 0-21-5-47-16H0v594l70-47h133v32l63-24 15-16v-23h-31V320l31-27v-28m500 407v109H422V672h359m0-110v78H422v-78h359M188 297v437H63V297h125Z"/></symbol><symbol id="噴_T" viewBox="0 0 1000 1000" data-size="22"><path transform="matrix(1 0 0 -1 63 953)" d="m859 820-19-23H594v-94h-63v94H297v31h234v78h71l23-20v-4l-31-27v-27h117l47 47h8l62-24 31-31m16-180H750v-78h-31v-15h47v31l62-24 16-15v-24h-31V140h-63v47H484v-15c11 0 21-3 32-8 10-13 15-21 15-24-16 0-31-3-47-8-47-54-110-90-187-109L203 0h-31l219 117 62 70h-78v-47h-62v438h23l16-16h7v78H250v32h109v93h47l32-15h15v-32h-31v-46h23l43 46h4l39-35v-43H422c0-26-3-52-8-78-5-6-8-11-8-15h282v93h-94v32h94v93l62-15h31v-32h-31v-46h39l43 46h4l39-35v-43m0-617L852 0h-8c-78 73-146 114-203 125v31c107-30 170-53 187-70l47-47V23M250 265H63v-47c-5 0-21-5-47-15H0v625h8l47-47h117v31l62-23 16-16v-23h-31V328l31-55v-8m500 157v93H375v-93h375m0-94v62H375v-62h375m0-110v79H375v-79h375m-594 79v453H63V297h93Z"/></symbol><symbol id="噴_P" viewBox="0 0 1000 1000" data-size="22"><path transform="matrix(1 0 0 -1 63 953)" d="m859 820-19-23H594v-94h-63v94H297v31h234v78h71l23-20v-4l-31-27v-27h117l47 47h8l62-24 31-31m16-180H750v-78h-31v-15h47v31l62-24 16-15v-24h-31V140h-63v47H484v-15c11 0 21-3 32-8 10-13 15-21 15-24-16 0-31-3-47-8-47-54-110-90-187-109L203 0h-31l219 117 62 70h-78v-47h-62v438h23l16-16h7v78H250v32h109v93h47l32-15h15v-32h-31v-46h23l43 46h4l39-35v-43H422c0-26-3-52-8-78-5-6-8-11-8-15h282v93h-94v32h94v93l62-15h31v-32h-31v-46h39l43 46h4l39-35v-43m0-617L852 0h-8c-78 73-146 114-203 125v31c107-30 170-53 187-70l47-47V23M250 265H63v-47c-5 0-21-5-47-15H0v625h8l47-47h117v31l62-23 16-16v-23h-31V328l31-55v-8m500 157v93H375v-93h375m0-94v62H375v-62h375m0-110v79H375v-79h375m-594 79v453H63V297h93Z"/></symbol><symbol id="圖_T" viewBox="0 0 1000 1000" data-size="22"><path transform="matrix(1 0 0 -1 71 969)" d="m859 883-23-24h-8V23L809 0h-43v63H63c0-16-3-32-8-47-7-5-11-11-12-16H0v938h8l47-47h726v31h39l39-35v-4M766 94v765H63V94h703m-47 453H359c0-3-5-11-15-24-11-5-21-7-31-7v-16h292l25 31 42-23 16-16v-23h-32V125h-62v31H219v-31h-63v406c-5 0-10 3-15 8-16 5-31 8-47 8v31h250c0 5 3 11 8 16 13 36 20 54 23 54v8h-86l-27-31h-43v203l54-31h258v31l63-23 15-16v-23h-31v-55l31-27v-28H438l-32-62v-16h180l59 63h3l71-67v-27M516 688v78H281v-78h235M328 531v16H156v-16c21 0 42-10 63-31h47l47 31h15m266-343v281H219V188h375m-47 62H328v-8l-23-23h-24v219l63-32h117l31 32 24-24c10-5 20-8 31-8v-23l-31-27v-36l31-27v-43m-78 31v94H328v-94h141Z"/></symbol><symbol id="圗_T" viewBox="0 0 1000 1000" data-size="22"><path transform="matrix(1 0 0 -1 71 969)" d="m859 883-23-24h-8V23L809 0h-43v63H63c0-16-3-32-8-47-7-5-11-11-12-16H0v938h8l47-47h726v31h39l39-35v-4M766 94v765H63V94h703m-47 453H156v-16c21 0 42-10 63-31h383l28 31 42-23 16-16v-23h-32V125h-62v31H219v-31h-63v406c-5 0-10 3-15 8-16 5-31 8-47 8v31h281v63H250v-32h-23l-24 20v74c57 8 125 52 203 133 0 5 2 8 6 8l41-24 16-15v-24c-16 0-32-3-47-8l-141-70v-15c26 0 52 2 78 7 13 5 26 8 39 8h149v8l-16 16v23c47-8 84-31 110-70v-32l-20-23h-4l-47 47h-7c-11 0-42-5-94-16h-31v-78h179c14 11 22 21 24 31v16h23l55-51v-27M594 188v281h-94V188h94M453 406v63h-94v-63h94m0-109v78h-94v-78h94m0-109v78h-94v-78h94m-140 0v281h-94V188h94Z"/></symbol><symbol id="型_T" viewBox="0 0 1000 1000" data-size="22"><path transform="matrix(1 0 0 -1 47 929)" d="m875 820-23-24h-8V332c-11-7-21-16-31-28l-47-15c-4-5-8-8-12-8-1 0-3 3-4 8l-31 31c-21 5-42 8-63 8v31h125v500c3-5 21-11 55-16h39v-23m-187-47-24-23h-8V421h-62v375h94v-23M906 0H0v31h422v140H109v32h313v109h-47v234h-78v32h78v203h-62v31h156v16c5 13 10 20 15 23 0 5 3 8 8 8l55-51v-27H438V578h39c13 10 20 20 23 31v16h23c8 0 21-21 40-63v-16H438V328h23c34-11 53-16 55-16v-31h-32v-78h157c33 10 62 31 86 62l39-39c10-5 20-8 31-8v-47H484V31h274l58 62h4c13-18 32-31 55-39l31-31V0M266 546H156c0-36-4-68-13-97-7-24-21-54-41-90l-47-63H31v24l24 23c10 16 20 42 31 78l16 110c5 5 7 10 7 15H16v32h93v203H47v31h125l16 31v16h23c8 0 21-21 39-63v-15h-78c0-16-3-32-8-47-5-8-8-16-8-24V578h24l43 47h4l39-36v-43Z"/></symbol><symbol id="型_P" viewBox="0 0 1000 1000" data-size="22"><path transform="matrix(1 0 0 -1 47 929)" d="m875 820-23-24h-8V332c-11-7-21-16-31-28l-47-15c-4-5-8-8-12-8-1 0-3 3-4 8l-31 31c-21 5-42 8-63 8v31h125v500c3-5 21-11 55-16h39v-23m-187-47-24-23h-8V421h-62v375h94v-23M906 0H0v31h422v140H109v32h313v109h-47v234h-78v32h78v203h-62v31h156v16c5 13 10 20 15 23 0 5 3 8 8 8l55-51v-27H438V578h39c13 10 20 20 23 31v16h23c8 0 21-21 40-63v-16H438V328h23c34-11 53-16 55-16v-31h-32v-78h157c33 10 62 31 86 62l39-39c10-5 20-8 31-8v-47H484V31h274l58 62h4c13-18 32-31 55-39l31-31V0M266 546H156c0-36-4-68-13-97-7-24-21-54-41-90l-47-63H31v24l24 23c10 16 20 42 31 78l16 110c5 5 7 10 7 15H16v32h93v203H47v31h125l16 31v16h23c8 0 21-21 39-63v-15h-78c0-16-3-32-8-47-5-8-8-16-8-24V578h24l43 47h4l39-36v-43Z"/></symbol><symbol id="城_T" viewBox="0 0 1000 1000" data-size="22"><path transform="matrix(1 0 0 -1 31 961)" d="M938 16h-47c-39 15-63 31-71 47-39 41-62 83-70 125h-23C677 115 591 52 469 0v31c109 39 187 115 234 229v18c-21 31-40 100-55 206l-23 164v55H406V531h117l43 47h4l55-51v-27h-78V195c0-7-21-20-63-39h-15l-47 39c-11 5-21 8-31 8v31c5 0 20-5 47-15h23l23 23v258h-78v-31l-23-141C359 183 302 79 211 16h-23c59 73 93 125 101 156 15 37 25 73 31 109l24 137v363h8l46-47h227v188h47l31-16h16c0-3-5-10-16-23-10-5-20-8-31-8V734h148l24 20v27c-8 0-21 5-39 16-19 47-42 83-71 109h39l63-62c5-21 8-42 8-63h8l15 16 71-66v-28H688V570c7-29 20-94 39-195 5-15 7-31 7-47h8l16 16 15 47 16 31c11 37 21 84 31 141l12 15c4 0 8-3 12-8l47-15c5-7 10-11 15-12v-27h-31c-18-83-52-167-102-250-5-2-7-5-7-8 23-49 52-94 86-133h39c0 8 5 31 15 70v24h32c0-16-3-32-8-47-5-8-8-16-8-24V63l16-32V16M313 313 78 180c-10-19-15-32-15-39H31v15L0 214l16 13 109 23v375H16v31h109v266h94v-24l-31-27V656l54 47h16l55-55-20-23H188V281l78 39 23 24h24v-31Z"/></symbol><symbol id="城_P" viewBox="0 0 1000 1000" data-size="22"><path transform="matrix(1 0 0 -1 31 961)" d="M938 16h-47c-39 15-63 31-71 47-39 41-62 83-70 125h-23C677 115 591 52 469 0v31c109 39 187 115 234 229v18c-21 31-40 100-55 206l-23 164v55H406V531h117l43 47h4l55-51v-27h-78V195c0-7-21-20-63-39h-15l-47 39c-11 5-21 8-31 8v31c5 0 20-5 47-15h23l23 23v258h-78v-31l-23-141C359 183 302 79 211 16h-23c59 73 93 125 101 156 15 37 25 73 31 109l24 137v363h8l46-47h227v188h47l31-16h16c0-3-5-10-16-23-10-5-20-8-31-8V734h148l24 20v27c-8 0-21 5-39 16-19 47-42 83-71 109h39l63-62c5-21 8-42 8-63h8l15 16 71-66v-28H688V570c7-29 20-94 39-195 5-15 7-31 7-47h8l16 16 15 47 16 31c11 37 21 84 31 141l12 15c4 0 8-3 12-8l47-15c5-7 10-11 15-12v-27h-31c-18-83-52-167-102-250-5-2-7-5-7-8 23-49 52-94 86-133h39c0 8 5 31 15 70v24h32c0-16-3-32-8-47-5-8-8-16-8-24V63l16-32V16M313 313 78 180c-10-19-15-32-15-39H31v15L0 214l16 13 109 23v375H16v31h109v266h94v-24l-31-27V656l54 47h16l55-55-20-23H188V281l78 39 23 24h24v-31Z"/></symbol><symbol id="埴_T" viewBox="0 0 1000 1000" data-size="22"><path transform="matrix(1 0 0 -1 47 953)" d="M875 625H445l-23 19v262h94v-24l-32-27v-43h258l31 31c5 11 8 21 8 32h24l70-67v-27H484v-94h391v-62M906 0H344v328c-73-52-167-94-281-125v-31H39l-16 15-23 47v31h109v8l16 16v304H0v32h125v281h94v-24l-31-27V625h23l59 62h3l55-51v-43H188V297l132 46h24v157h70l24-20v-27h-32V31h367l55 55v7h-47v47H531V93h-62v485h8l46-47h274v31h39l39-35v-4l-31-27V86l62-59V0M781 422v78H531v-78h250m0-125v93H531v-93h250m0-125v93H531v-93h250Z"/></symbol><symbol id="堍_T" viewBox="0 0 1000 1000" data-size="22"><path transform="matrix(1 0 0 -1 47 961)" d="M828 125h-23c-26 31-42 62-47 93l-39 39v24l47-24 62-62v-70m78-82-23-28H633l-24 24v304h-15c-5-70-52-146-141-226 0-3-73-42-219-117h-46v15c93 34 166 73 218 117 68 44 115 115 141 211H422c0-10-3-21-8-31l-16-15h-39v343c-3 0-10-5-23-15-5-11-8-21-8-32H188V297l78 23 47 23h31c-73-68-167-114-281-140v-31H39l-16 15-23 47v31h109v8l16 16v304H0v32h125v281h94v-24l-31-27V625h23l47 47h8l54-47h8v31l94 39c41 28 73 73 94 133v31H359v31h422v8l16 16c0 5 5 8 16 8h7l39-40v-31l-23-23-16-94-15-47-24-23c-41-13-62-21-62-24h-16c0 8-5 21-15 39l-63 24v15h141v32l15 62v47H586c-23-70-62-125-117-164l-94-39v-16h16l31-15h391v31l62-24 16-15v-24h-32V398l32-27v-28H672V78h152c2 5 5 10 12 15l23 71v23h16v-31l31-113M797 375v218H641V468l-16-62v-31h172M594 547v46H422V375h137c1 5 5 9 11 15 13 94 21 146 24 157Z"/></symbol><symbol id="報_T" viewBox="0 0 1000 1000" data-size="22"><path transform="matrix(1 0 0 -1 39 969)" d="M922 47c-5 0-21-5-47-16h-16V0c-59 31-103 73-132 125L625 23 578 0v23l102 102c13 26 21 39 23 39 0 3-3 5-8 8-40 63-66 130-78 203l-15 94-16 15h-23V23L543 0h-43v938l55-47h203l33 31 53-24 15-15v-16l-31-27V695l31-27v-27H563V516h257l32 31h15l39-42c-7 0-31-69-70-208l-70-130 47-50c31-26 62-42 93-47l16-15v-8M469 234H250V16h-62v218H0v32h188v140H31v32h78v70c0 8-2 16-7 23-8 31-21 63-39 94v16H0v31h188v125H31v31h157v110h93v-24l-31-27v-59h70l47 47h16l55-55v-23H250V672h86l59 62h3l71-66v-8c-5-1-11-5-16-12-15-5-31-7-47-7 0-2 5-10 16-24v-8c-8 0-21-5-39-15-55-89-84-133-86-133v-23h39l47 46h15l55-54-19-24H250V266h102l58 62h4l55-51v-43m297 438v187H563V672h203m47-234v46H609c31-136 73-229 125-281l55 141 24 94M313 586v55H78c8 0 31-42 70-125 5-26 8-52 8-78h86c39 55 63 104 71 148Z"/></symbol><symbol id="堲_T" viewBox="0 0 1000 1000" data-size="22"><path transform="matrix(1 0 0 -1 39 954)" d="m891 805-24-23h-8V446l-39-39h-47l-23 23-47 16c-10 13-15 21-15 23h109v328H594V344c-5 0-21-5-47-16h-16v547h8l47-47h227v32h23l55-51v-4M453 360H82c-1 5-5 10-12 15-13 170-21 254-23 254v215l55-31h70l31 78v16h31l32-16h15v-31c-21 0-41-10-62-32h-16v-15h172v31l63-23 15-16v-23h-31V594c-11 0-21-2-31-8-3-5-7-8-10-8l-26 32H109v-16l-15-31h62v-24l-31-31v-8h195l59 63h4l70-67v-27H125v-62h328v-47M922 0H0v32h422v140H94v31h328v141h70l24-19v-4l-32-28v-90h200l55 63c26-8 56-31 89-70v-24H484V32h289l59 62h4c13-18 31-31 55-39l31-31V0M359 719v63H109v-63h250m0-78v47H109v-47h250Z"/></symbol><symbol id="墬_T" viewBox="0 0 1000 1000" data-size="22"><path transform="matrix(1 0 0 -1 39 946)" d="M922 0H23L0 23v8h422v94H109v31h313v110h23c55 13 94 20 118 23 26 13 39 20 39 23l23 63-94-55-187-54h-63v15l141 39 187 102c0 5-5 21-15 47v15c0-3-52-31-156-86l-71-23h-54v16c109 28 187 72 234 132v16l-20 23h-7c-9-13-16-20-20-23l-47-16-31-15c-55-13-83-21-86-24h-23c0 3 5 11 15 24l188 86v15H266v32h343v7l32 32v23H406v31h250l32 55v8H391v31h312v31h24l39-35v-27h-32c-10-52-31-104-62-156h101l59 62h4l39-39c11-5 21-8 31-8v-47H609l-46-23c-11-13-16-21-16-24 13 0 41-21 86-62 5-11 8-21 8-31l47 23 83 86 42-23c10-13 15-21 15-24-5 0-42-20-109-62h-16v-32c47-13 83-31 110-54 15-6 31-31 46-75v-5l-23-22h-39c0 11-3 21-8 31L672 422V289c-16-13-32-32-47-55-26-10-42-15-47-15h-15l-40 31h-7v-31h-32v-63h172c34 11 63 32 86 63l39-39c11-5 21-8 32-8v-47H484V31h289l59 63h4c13-19 31-32 55-39l31-32V0M313 820c-11-12-21-20-32-23h-15v-16l-78-146c47-31 83-76 109-135V394c-5-1-21-16-47-43-41-13-62-20-62-23h-16c0 5-5 21-16 47v16c-10 0-20 2-31 7-11 13-16 21-16 24h47c2 0 11-5 27-16h10l26 16h15c0 10 3 20 8 31 5 3 8 7 8 10 0 7-3 14-8 21-11 53-21 85-31 94l-55 51c0 4 3 8 8 12 26 73 42 125 47 156 5 5 8 10 8 15H94V203c-5 0-21-5-47-16H31v704c39-16 63-31 71-47h101c3 0 11 5 24 15 5 11 7 21 7 32 37-13 63-32 79-55v-16m187-570v16h-31v-16h31Z"/></symbol><symbol id="壮_T" viewBox="0 0 1000 1000" data-size="22"><path transform="matrix(1 0 0 -1 31 969)" d="M938 47H344v31h250v485H406v31h188v344l62-16h32v-31h-32V594h102l58 62h4c13-18 32-31 55-39l31-31-19-23H656V78h133l59 63h4c13-19 31-32 54-39l32-32V47M156 617l-19-23h-8c-1 5-5 10-12 15-26 94-42 146-47 157l-39 78 55-47c18-21 41-62 70-125v-55m172 274h-31V0h-63v375c-78-55-124-94-140-117-11-5-21-8-31-8v-47H31v16L0 276c89 37 167 80 234 130v532h71l23-20v-27Z"/></symbol><symbol id="売_T" viewBox="0 0 1000 1000" data-size="22"><path transform="matrix(1 0 0 -1 47 961)" d="M891 781H484V672h157c33 10 62 31 86 62l39-39c10-5 20-8 31-8v-47H141v32h281v109H47v31h375v110l62-16h32v-31h-32v-63h262l56 63c26-8 56-32 89-71v-23m15-277c-5-1-10-5-15-12l-47-16-78-70v16l31 62v31H94c0-26-3-52-8-78l-16-31c-13-11-21-16-23-16H23L0 414v19c3 0 21 17 55 51l15 47c5 26 8 52 8 78h16v-62h711l31 31h16l54-55v-19m0-473c-5 0-21-6-47-16H703l-94 24-31 31v305H281V250c-13-37-20-63-23-78-39-68-63-102-70-102C133 30 83 7 39 0H0v15h16c31 13 52 21 62 24 29 12 63 41 102 86l39 101v227c39-16 62-32 70-47h274l39 31h31l39-39v-16l-31-27V101l23-23h156l16 15 23 94v31h16v-93l31-55V31Z"/></symbol><symbol id="壷_T" viewBox="0 0 1000 1000" data-size="22"><path transform="matrix(1 0 0 -1 47 954)" d="M875 782H469V672h164l58 63h4c13-19 32-32 55-39l31-32v-23H125v31h281v110H31v31h375v94c8 0 32-5 71-16h23v-31h-31v-47h250c34 10 63 31 86 62l39-39c10-5 20-8 31-8v-46m31-758L883 0H31L0 24v8h297v109H125v234h23l28-31h137v63H125v31h188v78H109v-31c-13-47-20-73-23-78l-27-32H16v63c7 0 20 5 39 15l31 63c5 21 8 42 8 62h15v-31h719v31h24l54-50v-28c-16 0-31-3-47-8-7-23-31-52-70-85H578v-63h141v31l62-23 16-16v-23h-31V196l31-28v-27H578V32h180l58 62h4c13-18 32-31 55-39l31-31m-93 492H578v-78h102c6 0 20 21 43 62h4l43-47h27v24l16 39m-297-78v78H375v-78h141m187-266v141H516v94H375v-40l31-27v-27H188V172h121l25 31 41-23 16-16v-23h-32V32h157v187h7l47-47h133Z"/></symbol><symbol id="夆_T" viewBox="0 0 1000 1000" data-size="22"><path transform="matrix(1 0 0 -1 63 945)" d="m875 195-20-23H469V0h-63v172H47v31h359v78H125v31h281v78h-8l-15-15H141v31c59 0 111 2 155 8 45 5 81 8 110 8v125c-5 0-10-3-15-8l-94-32-63-15c-91-14-136-22-136-24H0v32c59 0 106 2 141 7 43 7 90 17 140 32 11 7 42 20 94 39h16v15c-81 26-146 73-196 141-26-37-73-73-140-109H31c109 78 177 166 203 265h32l31-15h16v-32c-11 0-21-3-32-7-10-13-15-21-15-24h336l43 47h3l55-51v-27L547 632c-11-5-21-7-31-7v-32h39c91-18 177-31 258-39 15-5 31-7 46-7v-8c-13-8-31-32-54-71-13 0-26 3-39 8-164 34-271 63-321 86h-23v-31h78v-24l-31-27v-43h23c45 13 73 21 86 24 27 13 42 20 43 23h12l70-31h16v-8l-16-16c-57-7-125-20-203-39h-31v-78h179l59 63h4l55-51v-43H469v-78h273l59 62h4l70-66v-4M609 781H242l-23-20v-19c17-23 43-44 78-63 76-42 123-62 141-62 3-6 7-8 11-8 33 20 68 52 106 94 3 15 21 41 54 78Z"/></symbol><symbol id="多_T" viewBox="0 0 1000 1000" data-size="22"><path transform="matrix(1 0 0 -1 39 945)" d="M703 773C583 567 349 418 0 328c0 3 5 10 16 23 156 52 270 104 343 156-10 13-20 21-31 24-13 15-20 31-23 47l-86 78-172-94H31v16c45 8 87 31 125 70l149 149c7 33 20 61 39 85 0 5 5 8 15 8h16c5 0 21-5 47-15h16v-16c-8 0-21-5-40-16l-39-62h250v31h32l47-23 15-16m219-315C724 177 464 24 141 0c0 3 5 10 15 23 209 60 334 104 375 133 0 2-5 10-15 23l-16 8c-22 57-51 104-88 141h-11c-52-32-138-73-260-125h-32l282 164 148 148c5 16 8 32 8 47h86l23-23v-8c-10 0-20-3-31-8l-47-55h242l43 47h4l55-52v-5M578 750H336l-70-67v-19l101-102c5-10 8-20 8-31h23c107 72 167 145 180 219m235-313H539c-44-47-73-70-86-70l-31-39c8 0 42-26 101-78l24-63 109 55 157 195Z"/></symbol><symbol id="夢_T" viewBox="0 0 1000 1000" data-size="22"><path transform="matrix(1 0 0 -1 54 961)" d="M875 797H609v-78h-62v78H359v-78h-62v78H47v31h250v94l62-16h32v-31h-32v-47h188v94l62-16h32v-31h-32v-47h149l58 63h4l55-51v-43m-109-82c0-15-3-29-8-43-5-8-8-16-8-24V500h-62v31H211l-27-31h-43v234l54-31h508v31h43c9-13 16-19 20-19m125-290c-5 0-11-4-16-11l-62-16-94-85v23l23 23 39 79H422c0-3 5-11 16-24v-8c-11 0-21-3-32-8l-47-54h227l43 47h4l55-51v-27L484 117 359 55 234 23 94 8c-5-5-11-8-16-8v31c31 0 63 3 94 8 39 7 91 22 156 47 25 9 40 19 47 29 0 3-3 7-8 10-28 63-62 104-101 125h-16l-31-23-141-71H47v16c109 26 208 115 297 266H94v-24l-24-70-31-31H23L0 336v20c3 0 21 17 55 50 13 37 21 63 23 78v32h16v-47h695l31 31h8c34-21 52-42 55-62 5-3 8-7 8-10v-3M688 563v109H578V563h110m-172 0v109H391V563h125m-188 0v109H203V563h125m266-250H336l-23-24c-11-5-21-8-32-8l32-39 125-101 46 39c11 5 21 8 32 8 0 10 2 20 7 31 39 31 63 63 71 94Z"/></symbol><symbol id="奢_T" viewBox="0 0 1000 1000" data-size="22"><path transform="matrix(1 0 0 -1 31 969)" d="M938 625c-8 0-21-5-40-16-5-11-7-21-7-31l-141 62h-16l32-39v-8c-21 0-42-3-63-7-67-57-104-86-109-86v-16h168l55 63c26-8 56-32 89-71v-23H594v-16c10 0 20-3 31-8l31-31v-16l-23-23h-8l-39 31c-5 21-21 42-47 63 0-8-34-32-101-71l-63-23v-16h328v32l63-24 15-15v-24h-31V0h-62v47H313V0h-63v297L23 234H0c0 2 5 10 16 23 167 44 312 104 437 180v16H31v31h344v109H188v32h-16c-11-11-63-32-156-63l203 133 94 102H55l-24 23v8h313l47 94v15l62-31h16v-31c-11 0-21-3-31-8l-32-39h352l58 62h4l39-39c11-5 21-8 32-8v-46H625c63-83 167-136 313-157v-15m-297-32v16h-16v-16h16m93 47c-99 94-148 146-148 157H391L266 679c-52-23-78-41-78-54h187v109h70l24-19v-4l-31-28v-58h70l58 62h4l75-78h3l24 23c21 5 41 8 62 8m-109-47H438V484h70c55 37 94 73 117 109m63-375v94H313v-94h375m0-140v109H313V78h375Z"/></symbol><symbol id="姘_T" viewBox="0 0 1000 1000" data-size="22"><path transform="matrix(1 0 0 -1 31 969)" d="m938 461-20-23H797V16c-5 0-21-5-47-16h-16v438h-78v31h78v281h-62v31c26 0 52 3 78 8l8 8 15 31c13 63 21 94 24 94v16h31l31-16h16v-31c-8 0-21-5-39-16-23-52-42-83-55-94h24l58 63h4l55-51v-43H797V469h8l62 62 71-66v-4M641 773l-20-23H516V484h7l47 47 55-50v-43H500V320C474 182 406 81 297 16v23c31 23 52 52 62 86-10 0-20 3-31 8l-86 86h-23c0-16-13-42-39-78C112 68 65 26 39 16H16c93 85 156 167 187 245L94 320c-16 5-32 8-47 8v47c0 11 3 21 8 31 7 26 20 83 39 172v31H63v-31H16v31L0 656h109v55l16 109v118h31l32-16h15v-16c-13-31-20-52-23-62-5-8-8-16-8-24v-78l-16-47v-23h125v125c3 0 21-5 55-16h23v-23l-31-27v-43h39l16 15h8v-27c-5-2-11-5-16-12-15-5-31-8-47-8v-47c-7-45-14-97-23-156l-16-78-31-94c-5-5-8-10-8-15 8 0 42-26 102-78 5-21 7-42 7-63 17 5 30 20 39 47l32 94c13 65 21 97 23 97v75c-26 0-52 2-78 7-11 13-16 21-16 24h94v281h-62v31h78c0 11 3 21 8 32l23 93v32h55l23-20v-27h-31c-11-47-32-84-63-110h24l58 63h4l71-67v-4M266 523v118c-11 0-21-3-32-8-57-14-86-22-86-24-26-151-41-229-46-234-5-11-8-21-8-31l78-24 47-23v23l47 203Z"/></symbol><symbol id="姬_T" viewBox="0 0 1000 1000" data-size="22"><path transform="matrix(1 0 0 -1 39 961)" d="M922 31H406c0-5-3-11-8-16h-7v625h-47l-31-15h-16c0-52-3-94-8-125l-16-94-31-125c-5-11-8-21-8-31 11 0 21-3 32-8l78-78v-55h-47c0 11-3 21-8 31l-86 78C190 145 130 73 23 0H0c78 67 135 145 172 234v23l-16 16-62 31c-21 5-42 8-63 8 0 10 3 21 8 31l55 227v23H63v-31H16v31L0 640h109v63l16 125v94h31l32-16h15l-23-78-16-125c-5-21-8-42-8-63 3 5 21 11 55 16h39v109h70l24-19v-4l-31-27v-59c2 0 10 5 23 16h23c2 0 10-5 24-16h8v250l54-47h328l63 63c23-29 52-52 86-71l-20-23H750V578h63v31l62-23 16-16v-23h-32V367l32-27v-28H750V62h23c13 18 32 31 55 39l24 24 39-39c10-6 20-8 31-8V31M797 343v204H641v31h47v250H453V62h235v250h-63v31h172M250 586v23h-86l-16-16c-26-151-41-229-46-234-5-8-8-16-8-24l15-15 94-23v31c7 31 15 68 24 109 13 99 21 149 23 149m344-321h-63v328c5 0 21-5 47-15h16V265Z"/></symbol><symbol id="娛_T" viewBox="0 0 1000 1000" data-size="22"><path transform="matrix(1 0 0 -1 31 969)" d="M859 609H594v-46h-63v343l63-31h179l29 31 42-23 15-16v-23h-31V664l31-27v-28m79-289-20-23H656C593 151 520 65 438 39c-39-13-71-26-94-39h-16l195 156c34 37 63 84 86 141H328v31h297v24l31 117H438l-32-16h-15v375h93v-23l-31-28V500h203v31l63-23 15-16v-39h-31v-23l-31-102h148l47 47h16l55-55M922 31h-39c-26 21-42 42-47 63L703 234c31-3 83-31 156-86 31-23 52-52 63-85V31M375 656h-23c-34-10-53-15-55-15v-47c-7-45-15-97-24-156l-15-79c-14-41-22-62-24-64v-18c5-14 21-26 47-35l63-62v-55h-39c-11 5-21 21-32 47l-70 62C190 161 130 89 23 16H0c65 62 115 124 148 187 13 42 21 63 24 63v15L55 328H31v24l63 257H47v-31H16v24C5 635 0 653 0 656h94v24l15 47v117c0 10 3 20 8 31 5 21 8 42 8 63 3 0 21-5 55-16h23v-31h-31v-63c-11-99-16-156-16-172 3 5 21 11 55 16h39v109h78v-23l-31-27v-59h8l15 16h55v-32m391-15v203H594V641h172M234 508v117h-70c-26-31-42-83-47-156-13-54-20-83-23-87v-26c2-3 6-9 15-20l79-39c0 11 2 21 7 31l16 63c7 29 13 58 18 87l5 30Z"/></symbol><symbol id="娧_T" viewBox="0 0 1000 1000" data-size="22"><path transform="matrix(1 0 0 -1 31 961)" d="M578 718h-47c-5 65-31 125-78 180v24l102-94 23-47v-63M938 37l-24-22H711l-23 24v367h-79v-31c-13-63-20-104-23-125-24-74-63-128-117-164C389 31 326 3 281 0c86 36 167 114 242 234 13 52 21 78 24 78v94h-63v-78c-10 0-20-3-31-8-3-5-7-8-10-8-10 13-17 20-21 20v324c-3 0-21-6-55-16h-23v-23c-13-65-21-115-24-149-12-69-22-116-31-140l-16-47c-5-8-7-16-7-24l78-74v-43h-39l-59 63h-27L94 54 31 15v24l117 117c3 12 21 41 55 89 0 12-47 37-140 75-10 11-15 18-16 20v17c13 34 21 56 23 65l39 156v15H63v-31H35c-1 5-5 10-12 16L8 640c-5 5-8 11-8 16h125c0 11 3 42 8 94l15 156 8 8c0 5 5 8 16 8h39l23-24-23-23c-11-26-21-83-31-172-5-16-8-32-8-47h62l55 31h8v94h31l31-16h16v-31h-31v-62c3 0 21 5 54 15h24v47l55-31h211v15c13 21 31 63 54 125 5 26 8 52 8 79 8 0 31-5 70-16h24v-31c-8 0-21-5-39-16-8-31-42-83-102-156h110v31l62-23 16-16v-23h-32V461l32-28v-27H750V78h105c7 10 16 20 28 31 13 52 20 78 23 78v16h16V101c1-5 7-20 16-44V37M797 437v235H484V437h313M297 601v24h-16l-31-16h-78v-16c-8-16-21-72-39-171l-24-71v-23c16 0 31-3 47-8l78-39v23c19 63 32 117 39 164 13 89 21 133 24 133Z"/></symbol><symbol id="婦_T" viewBox="0 0 1000 1000" data-size="22"><path transform="matrix(1 0 0 -1 31 961)" d="M859 625H445l-23 23v8h344v78H422v31h344v78H445l-23 24v8h344v7l15 16c0 5 3 8 10 8l53-24 15-15v-24h-31V679l31-27v-27m79-110c-11 0-21-3-32-8l-78-70c0 8 5 31 16 70v24H672v-8l16-16v-23h-32v-78h125v31h24l54-51v-4l-23-23h-8V97c-5-2-10-5-15-11l-47-16c-4-5-8-8-12-8-1 1-3 3-4 8l-31 31c-16 5-32 8-47 8v31h39c1-2 5-7 12-15h5c1 5 8 9 22 15h16v235H656V0h-62v375H469V78c-11 0-21-3-31-8-3-5-7-8-10-8-11 13-18 20-22 20v355h24l27-31h137v125H406l-31-94v-15h-62v39l39 39 39 109h15v-47h446c13 10 20 21 23 31v16h8l55-55v-39M375 660c-5-2-11-6-16-12-15-6-31-8-46-8v-54l-24-164-16-79-15-46c-5-8-8-16-8-24v-39c11 0 21-3 31-8l63-62v-55h-39c-16 31-42 62-78 94-8-23-63-83-164-180L16 0v23c99 83 156 157 172 222-5 7-21 17-47 28l-16 16-70 23H31v24l47 203v54H63v-31H16v31L0 640h94v32l15 62v188c8 0 32-5 71-16h23l-23-31-16-94c-5-16-8-32-8-47v-78h110v94h78v-24l-31-27v-27h39l15 15h8v-27m-109-35c-16 0-31-3-47-8-26-6-52-8-78-8v-31c-13-63-21-105-24-125-13-54-20-83-23-87v-26c2-3 6-9 15-20l94-39c0 11 3 21 8 31 9 31 15 55 19 70 6 26 10 49 12 71l16 156c5 5 8 10 8 16Z"/></symbol><symbol id="嬈_T" viewBox="0 0 1000 1000" data-size="22"><path transform="matrix(1 0 0 -1 31 969)" d="M906 688H383l-24 23v8h219v94H438v31h140v94h70l24-20v-4l-31-27v-43h43l55 62c26-7 56-31 89-70v-23H641v-94h121l55 62c26-7 56-31 89-70v-23m32-649c0-8-21-21-63-39h-62l-94 23-31 32v226H500v-70c-26-89-52-136-78-141C349 31 297 8 266 0v31l93 39c25 11 52 50 79 118v148l-21 23h-5c-2 0-14-5-37-15h-16v-31h-27c-1 5-5 10-12 15-13 42-21 63-23 63v15h125v125h-78v32h78v93l62-15h32v-32h-32v-46h8l63 62 70-66v-28H484V422h71l47 16h23v-32h94v125h-63v32h63v93l62-15h32v-32h-32v-46h8l63 62 54-51v-43H781V406h39c7 0 21 21 43 63h4l71-67v-27H609v31c-5 0-10-3-15-8l-47-15c-63-14-94-22-94-24h-15v-15h15l63-31h187v31h39l39-35v-20l-31-27V86l23-23h79l15 15c14 52 22 78 24 78v16h15V78h8l24-23V39M359 680l-15-16c-16-5-32-8-47-8v-23c-8-29-21-94-39-195l-47-141c-5-8-8-16-8-24 29-13 63-41 102-85l23-63h-62c0 11-3 21-8 31l-78 78c-5 0-21-26-47-78C86 114 50 73 23 31H0v24l70 70c16 16 40 58 71 125v31h-16l-47 24c-21 5-41 8-62 8 0 10 2 20 7 31 11 47 21 83 32 109l23 117v39H47v-31H16c0 8-5 31-16 70v24h94c0 11 3 21 8 31 13 115 20 172 23 172v31h55l23-23v-8h-31v-47l-24-140c-5-5-7-11-7-16h47l31 16h15c0 2 5 20 16 54v24c3 0 21-5 55-16h23v-31h-31v-31h62v-8m-125-86v47c-7 0-31-5-70-16h-23c-31-159-52-250-63-273v-24l78-31h16v23c21 56 34 100 39 133l23 141Z"/></symbol><symbol id="嬾_T" viewBox="0 0 1000 1000" data-size="22"><path transform="matrix(1 0 0 -1 39 961)" d="m922 632-24-23h-7V172h-16l-26-16-21 31v16H719v-16c10 0 20-3 31-8 11-13 16-21 16-23-11 0-21-3-32-8C659 52 609 3 586 0h-39c67 47 114 104 141 172v31h-16v-31h-63v484h-31v8c13 7 32 30 55 70l15 47 16 31 16 78 15 16h71v-31h-32c0-6-5-21-15-47v-16h94c0 10 2 21 7 31l16 16 70-66v-28c-16 0-31-3-47-8-41-33-72-72-93-117h78v32h39l39-36v-4M906 15h-43c-2 5-5 11-11 16-19 63-42 104-71 125h39l86-82V15M609 765H453V640h55l27 32h4l31-32c5-2 8-3 8-3v-14l-15-30V445l31-27v-28H453v-62c16 0 42-13 78-39 16-6 32-31 47-75v-5l-23-22c-28 47-62 83-102 110V0h-47v265c-55-84-114-146-179-187h-24c73 62 135 166 188 312h-63c0-10-3-20-8-31l-15-16h-24v329c-5 0-10-3-15-8-16-5-31-8-47-8V531c-13-73-21-125-24-156l-15-78c-5-16-8-32-8-47 10 0 20-3 31-8l31-31v-55h-46c0 11-3 21-8 31l-16 16h-23C136 140 89 77 0 15v24l39 39 70 140v47l-86 32H0c0 12 3 27 8 46 7 24 20 97 39 219v47c-3 0-11-5-24-16h-7v16L0 640v32h63v109c0 15 2 31 7 47 5 31 8 63 8 94h55l23-20v-4l-23-23h-8V742l-16-47v-23h63v109h55l23-20v-19l-31-27v-28h78c0-10 3-20 8-31l15-16h86v125H266v32h140v125c5-5 21-11 47-16h31v-31h-31v-78h55l47 46h15l39-39v-39m188 16h-86c-26-21-42-42-47-63l-39-39 39-39h55c3 0 10 5 23 16 23 41 42 83 55 125m31-281v109H672V500h156m0-125v93H672v-93h156m0-141v109H672V234h156M516 422v187h-63V422h63m-110 0v187h-78V422h78M172 593v47c-5 0-21-5-47-15h-16v-39c-6-42-14-92-23-149l-16-78c-5-15-7-31-7-47h15c23-10 35-15 37-15h5c3 4 7 9 13 15l15 78c13 135 21 203 24 203Z"/></symbol><symbol id="嬾_T" viewBox="0 0 1000 1000" data-size="22"><path transform="matrix(1 0 0 -1 39 961)" d="m922 679-24-23h-7V172h-16l-26-16-21 31v16H719v-16c10 0 20-3 31-8 11-13 16-21 16-23-11 0-21-3-32-8C659 52 609 3 586 0h-39c67 47 114 104 141 172v31h-16v-31h-63v546h24l27-31h8c1 5 5 10 12 16 13 38 21 58 23 58v67h-94v31h219l16 31v16h23l55-51v-27H766v-16l-63-125h141v31h39l39-35v-4M906 15h-43c-2 5-5 11-11 16-19 63-42 104-71 125h39l86-82V15M609 765H453V640h55l27 32h4l31-32c5-2 8-3 8-3v-14l-15-30V445l31-27v-28H453v-62c16 0 42-13 78-39 16-6 32-31 47-75v-5l-23-22c-28 47-62 83-102 110V0h-47v265c-55-84-114-146-179-187h-24c73 62 135 166 188 312h-63c0-10-3-20-8-31l-15-16h-24v329c-5 0-10-3-15-8-16-5-31-8-47-8V531c-13-73-21-125-24-156l-15-78c-5-16-8-32-8-47 10 0 20-3 31-8l31-31v-55h-46c0 11-3 21-8 31l-16 16h-23C136 140 89 77 0 15v24l39 39 70 140v47l-86 32H0c0 12 3 27 8 46 7 24 20 97 39 219v47c-3 0-11-5-24-16h-7v16L0 640v32h63v109c0 15 2 31 7 47 5 31 8 63 8 94h55l23-20v-4l-23-23h-8V742l-16-47v-23h63v109h55l23-20v-19l-31-27v-28h78c0-10 3-20 8-31l15-16h86v125H266v32h140v125c5-5 21-11 47-16h31v-31h-31v-78h55l47 46h15l39-39v-39m219-234v125H672V531h156m0-156v125H672V375h156m0-141v109H672V234h156M516 422v187h-63V422h63m-110 0v187h-78V422h78M172 593v47c-5 0-21-5-47-15h-16v-39c-6-42-14-92-23-149l-16-78c-5-15-7-31-7-47h15c23-10 35-15 37-15h5c3 4 7 9 13 15l15 78c13 135 21 203 24 203Z"/></symbol><symbol id="㛮_T" viewBox="0 0 1000 1000" data-size="22"><path transform="matrix(1 0 0 -1 31 977)" d="M938 781c-21 0-42-3-63-8l-62-54v31l31 55v8H484v-24c-10-34-15-53-15-55h-63v39c31 19 52 53 63 102h15v-31h157v31l-32 63v15c31-8 63-31 94-70v-16l-15-15v-8h164l27 31h27c0-11 3-21 8-31l24-24v-39m-63-203h-23l-94 125c-34 18-52 31-55 39v24c57-24 104-53 141-86l31-55v-47M656 727c-89-91-167-146-234-164 83 73 135 145 156 218h8c8-13 31-31 70-54m282-289c-8 0-21-5-40-16-5-11-7-21-7-31-97 36-167 93-211 172-86-94-178-157-274-188v31c34 0 104 57 211 172l24 63h39l39-35v-20l-16-16v-7l156-86 63-16 16-16v-7M891 47c-11 0-21-3-32-8L822 0c-3 0-6 3-9 8l-63 31-86 86c-9-15-33-34-70-55C526 33 474 9 438 0v31l62 24c83 51 125 83 125 96l-94 177v16h-47v31h297l24 31h8c0-10 2-20 7-31l24-23v-24h-31c-15-51-33-87-55-109l-55-55v-16l110-62 78-23V47M391 676c-5-2-11-5-16-12-15-5-31-8-47-8v-47c-7-45-14-97-23-156l-16-78-31-94c-5-7-8-15-8-23l94-90v-59h-47c0 11-3 21-8 32l-62 62c-24-39-63-83-118-133-18-3-41-21-70-54H0v15c94 54 157 125 188 214l-32 28-125 55c0 11 3 21 8 31l55 235v15H70l-27-31H16v16L0 625v31h94c0 5 3 11 8 16 13 123 20 188 23 195v55h78v-24l-23-23-16-125c-5-41-8-67-8-78h125v109h78v-23l-31-27v-43h39l16 15h8v-27m375-332H563l23-63c15-31 41-62 78-93 49 52 83 104 102 156M266 523v118h-8l-16-16h-86l-54-234-16-47c-5-5-8-11-8-16 34 0 65-10 94-31 14-5 21-10 21-16h8c0 5 3 11 10 16 23 70 42 145 55 226Z"/></symbol><symbol id="㛼_T" viewBox="0 0 1000 1000" data-size="22"><path transform="matrix(1 0 0 -1 39 961)" d="m922 554-24-23h-7V172h-63v46H672V0h-63v218H453v-46h-62v406h27l25-31 41 23 52 55 42-24 16-15v-24h-31l-110-31V406h24l46 47h16l55-55v-23H453V250h156v422H383l-24 23v8h250v109H430l-24 24v7h344v8l31 31c0 5 5 8 16 8h23l55-54v-24H672V703h101l59 62h4l39-39c11-5 21-8 31-8v-46H672V250h156v125H703v31h125v125H703v31h125l24 31h31l39-39M344 695l-16-16c-21-5-41-7-62-7V558c-7-32-15-78-24-136-7-45-17-92-31-141-5-8-8-16-8-25l125-120v-35l-19-23h-4c-47 41-84 83-110 125h-23l-39-94L23 0H0c68 73 115 145 141 218v24c-17 21-36 36-56 44-17 7-40 11-69 11l47 296v47H47v-31H16v16L0 656v31h78v141c0 10 3 20 8 31 5 20 8 41 8 63 3 0 21-5 54-16h24l-24-31h-7V757l-16-46v-24h94v141c3 0 21-6 54-16h24v-15l-16-32v-62h63v-8m-125-70v31h-71c-10-5-20-21-31-47-5-49-16-117-31-203l-16-63c-5-10-7-21-7-31h15c31-13 52-20 63-23 3-5 7-8 11-8 1 5 5 11 12 16l16 62 15 94c7 43 13 86 18 128 3 29 5 44 6 44Z"/></symbol><symbol id="𡓤_T" viewBox="0 0 1000 1000" data-size="22"><path transform="matrix(1 0 0 -1 39 961)" d="M891 812h-32V562h-62v47H688v31h109v78H688v32h109v62H672v31h125v8l16 16c0 5 3 8 9 8l53-24 16-15v-24m-360 31-125-31h-31v-78h55l43 47h4c7 0 20-21 39-63v-15H375v-63h55l43 47h4c7 0 20-21 39-62v-16H375c0-11-3-21-8-31l-15-16h-39v297h27l25-31 73 39 15 15c0 5 5 8 16 8 5 0 21-5 47-15h15v-32m391-390c-8 0-21-6-39-16-5-10-8-20-8-31h-8c-11 10-17 15-18 16-2 0-14-5-36-16h-16V125h-63v47H453v-32h-62v313h-24l-47-16h-54v16c103 28 165 51 187 70 59 49 93 93 102 133 12 52 20 78 23 78v188h47l31-16h16v-31h-31v-63c-5-46-11-83-16-111v-49c11-36 52-79 125-129 68-26 125-39 172-39v-31M844 23 820 0h-7c-53 29-84 52-94 70l-63 23v16h55l102-39 31-31V23M313 343c0-24-78-73-235-148-10-18-15-31-15-39H39l-16 16-23 46v32c26 0 52 2 78 7 11 5 21 8 31 8v328H0v32h109v281l63-16h31v-31h-31V625h23l47 47h16l39-40v-39H172V281l125 62h16M547 62c-21 0-42-3-63-8-41-23-104-41-187-54v31h23l71 23c36 21 62 42 78 63 0 5 3 8 10 8l52-24 16-15V62m203 399v7c-89 53-136 105-141 157-57-81-125-135-203-164l24-24h289l31 24m-16-102v47H453v-47h281m0-78v47H453v-47h281m0-78v47H453v-47h281Z"/></symbol><symbol id="𡚨_T" viewBox="0 0 1000 1000" data-size="22"><path transform="matrix(1 0 0 -1 39 953)" d="m922 70-39-39H508l-24 23v852h47l32-16h15v-31h-31V562h195l59 63h4c23-29 52-52 86-71l-20-23H547V93h277c7 11 16 21 28 32l23 70v23h31v-46c-2-3-6-13-15-28v-13l31-26V70M438 695l-16-16c-16-5-32-7-47-7v-24c-1-5-14-80-39-226-7-43-17-80-31-110l-24-52c42-29 84-66 125-112v-35c-13-10-20-16-20-20-3 0-7 3-11 8-15 5-41 31-78 78l-31 16c-3 5-7 8-10 8C175 94 103 26 39 0H16c67 41 135 125 203 250L55 312H31l78 281v32H63v-32H16v32L0 672h125c0 15 3 30 8 46 13 96 20 146 23 149v39h78v-24l-23-23-23-172h125c0 16 2 32 7 47 5 26 8 52 8 78 3 0 21-5 55-15h23v-32h-31v-62h63v-8m-250-23v15h-16v-15h16m125-102v86h-16l-31-16h-94l-39-172c-11-26-21-63-31-109-5-8-8-16-8-24l15-15 94-31c8-5 16-8 24-8 25 29 40 60 46 94l40 195Z"/></symbol><symbol id="𡛪_T" viewBox="0 0 1000 1000" data-size="22"><path transform="matrix(1 0 0 -1 39 969)" d="M906 563 766 461l-110-55h-47v16l94 39 141 164 47-23 15-16v-23m16-235L703 195l-94-23v16c27 0 85 34 172 101 25 19 51 51 78 94 0 5 3 8 8 8l55-55v-8m0-273-24-24H523l-23 24v539h70l24-24v-7h-31V94h261c7 10 16 20 28 31 13 63 20 94 23 94v15h16V109h7l24-23V55m-47 758c-11 0-21-3-31-8 0-28-67-83-203-164h-32v15c11 0 21 3 32 8 10 13 15 21 15 24H500v-16l-16-31V445c-13-55-20-94-23-117l-16-62C416 149 345 60 234 0v23c87 71 142 162 164 274l16 78c10 46 16 90 19 131 3 30 4 45 5 45v137h-63v-32c-3 0-21-5-55-15h-23V523c-13-55-21-94-24-117-10-47-20-83-31-109-5-8-8-16-8-24 47-23 74-52 79-85v-32h-40l-62 63h-8c0-16-13-42-39-78C97 68 50 26 23 16H0c78 66 135 146 172 240l-47 49c-63 25-94 42-94 51v26l47 212H47v-31H16v15L0 609v32h94v54l15 110v133c8 0 32-5 71-16h23l-23-31c-11-42-21-105-32-188-5-15-7-31-7-47h86l15 16h8v125c5 0 11-3 16-8l62-16 16-15v-8h-31v-78h31v8l-16 15v24h110v203h70l23-20v-4l-31-27V719h23l59 62h4l62-62c5-11 8-21 8-31 63 20 115 83 157 187l46-31h16v-31M250 586v39l-117-31c-9-42-19-84-28-125-18-78-27-120-27-125 31 0 63-11 94-31h31c0 15 3 31 8 46l16 79c7 48 14 97 23 148Z"/></symbol></svg>