<svg xmlns="http://www.w3.org/2000/svg"><symbol id="媵_T" viewBox="0 0 1000 1000" data-size="22"><path transform="matrix(1 0 0 -1 31 953)" d="m516 757-24-23h-15l-16 16-31 93-39 47 62-23c31-47 52-73 63-78v-32m422-335c-11 0-21-3-32-8l-15-16v-12c10-16 15-25 15-27v-31H734c0-16-2-32-7-47l-47-94c-5-4-8-7-8-10 10-13 62-38 156-76l47-47V15h-55l-39 39c-34 13-83 42-148 86-3 0-5-3-8-8-26-21-62-41-109-62L281 0c0 3 5 10 16 23 94 23 188 62 281 117v8l-15 16c-50 12-84 20-102 23h-39l31 117v24H352l-24 23v8h141c0 11 3 21 8 31 13 50 20 84 23 102v39c5-5 21-11 47-16h31v-23l-23-24-24-109h172v94h55l23-20v-27h-31v-47h39l55 55v8h-31l-79 140v16H508c-34-50-84-104-149-164l-46-24v24l101 101 39 63h-86l-23 23v8h125c16 39 31 63 47 70v8H391v31h140v24l47 164h55l23-20v-4c-17-12-30-30-39-54l-39-110h102c10 5 20 21 31 47l39 141c8 0 31-6 70-16h24v-31c-23 0-42-11-55-31l-70-110h23l59 63h4l70-66v-4l-20-24H563c-16-39-32-62-47-70v-8h289l31 31c5 10 8 21 8 32 36-13 62-32 78-55v-39H750l94-102c16-10 41-20 78-31l16-16v-7M328 836l-23-24h-8V54c-14-23-42-41-83-54-21 31-56 52-105 62v16h125v328l-86-63c-5-10-7-21-7-31-2 0-10 5-24 16h-8v-24c-13-55-20-94-23-117C63 96 44 41 31 23V0H0c0 5 3 9 8 15l15 63 16 94c7 44 13 88 18 131 3 29 5 44 6 44v543l54-31h133v31h23l55-50v-4m-94-227v219H125V656c15 0 31-3 47-8l62-39m454-281H516l-32-102v-23c26 0 52-3 79-8 17-5 34-8 51-8 3 1 9 7 19 16l55 125M234 437v125h-46l-24 63-16 15h-23V406h31l63 31h15Z"/></symbol><symbol id="糣_T" viewBox="0 0 1000 1000" data-size="22"><path transform="matrix(1 0 0 -1 39 969)" d="m922 477-24-24H773l-15 16c-5 26-8 52-8 78h-16c0-11-2-21-7-31-37-42-73-73-110-94h-23l70 78c11 26 21 42 31 47l24 70v24h-94c0 15 3 31 8 47l15 93c5 8 8 16 8 24 0 3-3 5-8 8-5 10-7 20-7 31h109v94c5-5 21-11 47-16h31v-31c8 0 21-5 39-16l24-62h-94c0-16-3-32-8-47-5-8-8-16-8-24v-70h47c0 11 3 21 8 31l16 16c23-16 41-42 54-78h-93v-16l-16-31v-94h62v23c11 34 16 52 16 55h16c0-21 2-41 7-62 13-13 21-20 24-20v-19m-297 39c-9 0-40-18-94-55-21-14-31-32-31-55h-16c0 11-2 21-7 32l-24 21v12c10 17 15 27 16 29v63h-16c-5-45-31-84-78-118l-62-23c52 31 94 104 125 219h-94v47l15 93v63h94v78h31l47-24 63-62v-23h-94V672h8l47 47 39-35v-43h-63v-8l16-16-31-27v-90l93 47h16v-31M344 797h-31c-8-52-32-104-71-156h-23c0 5 3 10 8 15 13 39 20 59 23 59v129c5 0 11-3 16-8l62-16 16-15v-8m531-453h-31V16h-16L802 0h-3c0 5-3 11-10 16-5 15-8 31-8 47H484V16c-10 0-20-3-31-8-3-5-7-8-10-8-10 13-17 20-21 20v386h23l28-31h324v31l62-23 16-16v-23M109 648l-19-23H63v102c0 7-3 15-8 23-13 42-21 63-24 63v15l39-31c11-16 21-42 32-78 5-8 7-16 7-24v-47m219-101H203V23L184 0h-43v438h-32c0-31-2-63-7-94-39-135-63-203-71-203v-16H0c0 5 3 11 8 16l15 47c13 56 23 113 32 171 5 37 8 78 8 125h7l16-15h55v78H16v31h125v360h47l31-16h15v-31h-31V578l55 47h15l55-55v-23m0-344h-47c0 16-3 32-8 47-2 63-20 125-54 188v31c16 0 33-21 54-63l55-109v-94m500 664v24h-31v-47h8l23 23m-94-195v141h-31v-24c-13-49-20-83-23-101-5-5-8-11-8-16h62M531 859v16h-15v-16h15m-78-168v122h-31v-24c-13-44-21-73-24-86-5-10-7-20-7-31h39l23 19m328-457v110H484V234h297m0-140v109H484V94h297Z"/></symbol><symbol id="糨_T" viewBox="0 0 1000 1000" data-size="22"><path transform="matrix(1 0 0 -1 31 961)" d="M938 23 914 0h-16l-15 15c-14 42-22 63-24 63v15c-5 0-10-3-15-7-63-24-125-43-188-55h-31V0h-27c-1 5-5 9-12 15-13 42-21 63-23 63v15h140v188h-62c0-11-3-21-8-31l-16-16h-39v344l55-31h70v109h-47v-31h-62v250l54-32h180v32l63-24 15-15v-24h-31V711l31-28v-27H766V547h74l24 31 42-24 16-15v-24h-31V336l31-28v-27H766V109h78v39l-31 27v43l54-46c19-22 42-63 71-125V23M359 812h-31l-23-78-63-109h-23v7c14 20 22 33 23 40 14 52 22 78 24 78v93h70l23-23v-8m204-219H422c0-5-3-10-8-15h-8V445l-15-16v-7h70l31 31h16l39-35c-18-85-31-182-39-293l-16-63c-13-26-20-39-23-39L422 0h-47c0 10-3 20-8 31l-39 47h24c35-11 54-16 58-16 15 5 26 21 35 47l24 211v70H344c0 24 2 58 6 100 5 47 7 80 8 99 1 25 1 52 1 83h8l47-47h55v218H367l-23 24v8h125v7l15 16c0 5 3 8 10 8l53-24 16-15v-24h-32V648l32-27v-28m-438 55-23-23H86l-16 15c-7 83-20 146-39 188l39-31 55-110v-39m203-117H203V0h-62v406h-32c-5-73-31-166-78-281H0c0 5 3 9 8 15l15 47 16 78c7 48 15 98 24 149v39h15l31-16h32v94H31v31h110v360h70l23-20v-27h-31V562h8l62 63 55-51v-43m16-289-35-39h-8c-2 5-5 10-12 15-11 57-21 104-31 141l-39 78h23c26-41 42-62 47-62l55-110v-23m469 445v125H656V687h157m15-375v203h-62V312h62m-125 0v203h-62V312h62Z"/></symbol><symbol id="紀_T" viewBox="0 0 1000 1000" data-size="22"><path transform="matrix(1 0 0 -1 47 953)" d="m906 39-23-24H445l-23 24v633h70l24-20v-4l-32-27v-90h297v312H406v32h375v7l16 16c0 5 3 8 10 8l52-24 16-15v-24h-31V554l31-27v-27H484V78h325c6 10 15 20 27 31l23 94v31h16V93h8l23-23V39M344 328h-47c0 10-3 20-8 31l-16 16c-7 0-15-3-23-8-94-26-146-42-156-47-11-18-16-31-16-39H51c-2 5-5 11-12 16l-16 46c-5 4-7 7-7 10s2 5 7 6c53 83 84 125 94 125l55 94c-5 0-31-6-78-16H63v-31H39l-16 16-23 46c13 11 52 84 117 219l24 94h15c31-14 52-22 63-24l15-15v-8h-46c-27-83-74-167-141-250h39l117 23c34 55 52 94 55 118l13 15 57-31h16v-31h-47c-29-74-73-147-133-219l-86-86v-23l172 31h31l-47 86v8h24l62-63 24-47v-62m47-177-24-26h-15l-16 15c-5 26-21 62-47 110l-23 23v24c33-11 62-32 86-63l39-83M266 70l-20-23h-27c0 10-3 20-8 31-11 47-21 83-31 109-8 0-21 21-39 63h23l47-47 55-94V70M125 23 105 0h-7c-1 5-5 9-12 15C73 95 44 161 0 211v23c73-52 114-104 125-156V23Z"/></symbol><symbol id="絣_T" viewBox="0 0 1000 1000" data-size="22"><path transform="matrix(1 0 0 -1 31 961)" d="M938 437H797V0h-63v437h-78v31h78v219h-93v31h-8l-16-15H516V484h7l47 47 71-66v-4l-20-24H500V332c-13-46-21-79-23-98C450 125 393 47 305 0h-24c89 80 138 168 149 265l15 141c5 11 8 21 8 31H328v31h125v235h-94v31h94l47 164v24h78v-24c-8 0-31-39-70-117l-24-24v-23h24l58 63h4l75-79h89l47 164v24h71l23-24v-7c-8 0-21-5-39-16-13-37-42-84-86-141h47c0 11 3 21 8 32l31 31 70-66v-28H797V468h8l62 63 71-66v-28M359 297h-46c0 15-3 30-8 46-11 10-18 15-20 16l-168-47H94v-31H66c-1 5-5 11-11 16l-16 46c-5 4-8 7-8 10s3 5 8 6c0 15 21 41 63 78l86 141c-5 0-32-6-79-16H78v-31H51c-2 5-5 11-12 16l-16 46c-5 2-7 5-7 9 0 2 2 4 7 7 5 0 42 68 110 203l23 94c8 0 32-6 71-16h23v-31c-23 0-42-11-55-31-18-52-62-125-132-219 5 0 41 5 109 16h47l47 125v15l62-31h16v-31c-8 0-21-6-39-16-97-167-167-271-211-312h70l78 15h39l-31 78v16l86-78 23-47v-62m0-162-23-26h-16l-15 16c-13 67-42 125-86 172h23c65-51 104-105 117-162M234 62h-46c0 10-3 21-8 31-3 60-21 104-55 133v24h23c21-37 42-63 63-78l23-47V62M125 44l-16-29V0H82c-1 5-5 9-12 15-10 57-20 104-31 141L0 218h23l47-46c26-47 42-84 47-110 5-6 8-12 8-18M94 359v16H78v-16h16Z"/></symbol><symbol id="絣_P" viewBox="0 0 1000 1000" data-size="22"><path transform="matrix(1 0 0 -1 31 961)" d="M938 437H797V0h-63v437h-78v31h78v219h-93v31h-8l-16-15H516V484h7l47 47 71-66v-4l-20-24H500V332c-13-46-21-79-23-98C450 125 393 47 305 0h-24c89 80 138 168 149 265l15 141c5 11 8 21 8 31H328v31h125v235h-94v31h94l47 164v24h78v-24c-8 0-31-39-70-117l-24-24v-23h24l58 63h4l75-79h89l47 164v24h71l23-24v-7c-8 0-21-5-39-16-13-37-42-84-86-141h47c0 11 3 21 8 32l31 31 70-66v-28H797V468h8l62 63 71-66v-28M359 297h-46c0 15-3 30-8 46-11 10-18 15-20 16l-168-47H94v-31H66c-1 5-5 11-11 16l-16 46c-5 4-8 7-8 10s3 5 8 6c0 15 21 41 63 78l86 141c-5 0-32-6-79-16H78v-31H51c-2 5-5 11-12 16l-16 46c-5 2-7 5-7 9 0 2 2 4 7 7 5 0 42 68 110 203l23 94c8 0 32-6 71-16h23v-31c-23 0-42-11-55-31-18-52-62-125-132-219 5 0 41 5 109 16h47l47 125v15l62-31h16v-31c-8 0-21-6-39-16-97-167-167-271-211-312h70l78 15h39l-31 78v16l86-78 23-47v-62m0-162-23-26h-16l-15 16c-13 67-42 125-86 172h23c65-51 104-105 117-162M234 62h-46c0 10-3 21-8 31-3 60-21 104-55 133v24h23c21-37 42-63 63-78l23-47V62M125 44l-16-29V0H82c-1 5-5 9-12 15-10 57-20 104-31 141L0 218h23l47-46c26-47 42-84 47-110 5-6 8-12 8-18M94 359v16H78v-16h16Z"/></symbol><symbol id="緇_T" viewBox="0 0 1000 1000" data-size="22"><path transform="matrix(1 0 0 -1 47 969)" d="M906 734H766v-16c10 0 20-3 31-7l62-63v-70h-39l-62 109-47 47H594v-16c13 0 41-21 86-62l23-53-23-25h-24c-7 0-31 36-70 109l-47 47H422l70-78 24-47v-23l-24-24h-15l-32 31c-5 26-21 62-47 110l-23 23c-15 5-31 8-47 8v31c16 0 32 2 47 8 31 39 52 94 63 164l78-31h15v-31h-47c0-11-2-21-7-32l-71-78h141v16l83 156 58-31h15v-31c-10 0-20-3-31-8l-94-102h141v16l83 156 57-31h16v-31c-11 0-21-3-31-8l-94-102h59l40 47 42-23 15-16v-39m0-258-23-23h-8V15h-62v32H469V15h-24L406 0v531h8l47-47h367v31h39l39-35v-4M344 320l-24-23h-15l-16 15c-5 21-8 42-8 63-5 0-10-3-15-8l-164-55H78c0-10-3-20-8-31l-15-16h-4c-2 5-5 11-12 16-13 40-20 62-23 64v18c18 12 52 58 101 137l39 78c-7 0-31-6-70-16H63v-31H16v23C5 589 0 609 0 613l102 184c15 67 23 104 23 109h47l31-16h16v-31c-8 0-21-5-39-16-13-47-63-125-149-234h39l118 23c2 0 10 13 23 40l23 93 63-31h16v-31h-32C203 546 125 431 47 359h16c21 8 83 21 187 39 5 7 11 11 16 11v3c0 3-3 7-8 10l-39 70v8h23c37-52 63-83 78-94l24-47v-39m0-188-20-23h-8c-6 11-15 21-27 31-5 26-21 62-47 110l-23 23v24c41-13 83-53 125-118v-47M234 86l-19-24h-43l-24 125c-7 0-20 21-39 63h24c37-32 63-63 78-94l16-47c5-8 7-16 7-23M109 37 86 15H47v71c0 7-3 15-8 23-8 31-21 62-39 94v15C73 152 109 93 109 43v-6m704 244v172H672V281h141m-204 0v172H469V281h140M813 78v172H672V78h141m-204 0v172H469V78h140Z"/></symbol><symbol id="縂_T" viewBox="0 0 1000 1000" data-size="22"><path transform="matrix(1 0 0 -1 39 946)" d="M922 625c-21 0-42-16-63-47-26-10-41-15-46-15V438l31-55v-8H484v-47h-62v297l-55-47h-8v24c49 55 78 99 86 133l24 93c3 0 21-5 54-15h24v-31h-31c-21-76-53-126-94-149l16-16 46-23h282v31h31v8c-29 23-52 52-70 86-13 37-21 63-24 78v31H594v32h109v7l16 16c0 6 3 8 8 8l39-35v-28h-32v-39c42-75 105-124 188-148v-16M906 86l-19-23h-8c-1 6-5 11-12 15-18 83-41 146-70 188h23l32-31 54-94V86M703 196l-19-24h-4c-11 6-21 21-32 47-7 31-20 63-39 94h24l70-67v-50M828 39 789 0H508l-24 24v289l63-16h31v-31h-31V63h164c37 30 55 66 55 109h31V78h8l23-23V39M344 305l-24-23h-15l-16 15c-5 21-8 42-8 63L78 297H63v-31H31v23c-10 36-15 55-15 59 67 77 114 141 140 191v24c-10 0-20-3-31-8-21-5-41-8-62-8v-31H35c-1 6-5 11-12 16L8 578c-5 4-8 8-8 12 3 0 10 7 23 20 11 26 21 42 32 47 35 78 57 140 66 186 3 14 4 30 4 48h47l31-16h16v-31c-8 0-21-5-39-16L63 594h31l94 23 39 71c5 16 7 31 7 47h32l47-24c10-12 15-20 15-23-23 0-42-10-55-31-55-110-125-209-210-297h46l141 23c5 7 11 11 16 11v3c0 4-3 7-8 10l-39 70v8h23c37-52 63-83 78-94l24-47v-39m94-100c-7-30-15-60-22-90-9-28-28-50-57-68h-7l-24 24v15c29 19 52 53 70 102 5 26 8 52 8 78h16c0-11 3-21 8-31 5-4 8-8 8-13v-17m-110-80h-47l-39 110-39 39v23c29-5 63-31 102-78l23-47v-47M219 90l-24-27h-15l-16 15c-11 63-21 105-31 125l-24 24v23h24c55-50 83-104 86-160M94 16H47c0 26-3 52-8 78L0 219c41-21 73-62 94-125V16m719 594v15h-16v-15h16m-63-203v156H484V407h266Z"/></symbol><symbol id="繅_T" viewBox="0 0 1000 1000" data-size="22"><path transform="matrix(1 0 0 -1 31 977)" d="M688 875c-16 0-32-3-47-8l-63-47c31-15 63-41 94-78v-15l-24-24h-31l-15 16c-3 33-21 62-55 88l55 99c5 16 7 32 7 47h8c8-13 32-31 71-55v-23M578 672c-15 0-31-3-47-8l-78-16-15-15v-86h39c13 11 20 21 23 31v16h31c0-11 3-21 8-31l24-24v-23H438V406h39l43 47h3c8 0 21-21 40-62v-16H445c-7 0-15-3-23-8-16-5-32-8-47-8v344h23l30-31h5c2 0 14 5 36 16h15v15c-15 0-31 3-46 8-47 71-74 106-79 106 0 3 3 7 8 11 23 31 42 63 55 94v16h39l23-24c11-5 21-8 32-8v-8l-16-15-47-16c-41-23-62-41-62-54 13 0 41-21 86-63 5-15 7-31 7-47h8l29 31 42-23 15-16v-23m360-563c-11 0-21-2-32-7l-37-39c-3 0-7 2-10 7-78 28-146 83-203 164V0h-62v219c-47-49-126-94-235-133l-62-16c-5-5-11-7-16-7v31l125 39c68 34 125 83 172 148H344v32h250v359h54c12-11 19-16 21-16h9c14 11 23 16 25 16h78c0 2 5 10 16 23 11 5 21 8 31 8v16h-31l-24 62-23 24v39c15 36 31 62 47 78v16h23l24-24c10-5 20-8 31-8v-31c-31 0-63-10-94-31v-31c11 0 21-3 32-8l46-47v-31l-31-32v-7c11 0 21-3 31-8l16-16v-23h-31V359h-16l-26-15-21 23v8h-93v31h93v110h-93v31h93v94h-78l-31-16h-16V313h203c0 10 3 20 8 31l16 15 55-50v-28H672l78-86c21-18 83-41 188-70v-16M344 352l-24-24h-15l-16 16c-5 21-8 41-8 62L78 344H63v-31H31v23c-10 35-15 55-15 59 18 11 52 57 101 136l39 78c-10 0-20-2-31-7-21-5-41-8-62-8v-31H35c-1 5-5 10-12 15L8 625c-5 4-8 8-8 12 3 0 10 6 23 19 11 26 21 42 32 47 35 78 57 140 66 186 3 14 4 30 4 49h47l31-16h16v-31c-8 0-21-5-39-16L63 641h31l94 23c2 0 10 13 23 39l23 94 63-31h16v-32h-32L164 531 63 406h46l141 24c5 7 11 10 16 10v3c0 3-3 7-8 10l-39 70v8h23c37-52 63-83 78-93l24-47v-39m-16-196h-47l-39 110-39 39v23c29-5 63-31 102-78l23-47v-47m-109-35-24-27h-15l-16 15c-11 63-21 104-31 125l-24 24v23h24c55-51 83-104 86-160M94 47H47c0 26-3 52-8 78L0 250c41-21 73-62 94-125V47Z"/></symbol><symbol id="罺_T" viewBox="0 0 1000 1000" data-size="22"><path transform="matrix(1 0 0 -1 63 953)" d="m875 93-39-46c-5-11-8-22-8-32-9 0-20 2-31 8-143 36-252 85-328 149V0h-63v172h-23c-73-57-159-97-258-118C57 39 23 31 23 31H0c0 2 5 10 16 23 104 23 208 63 312 118v15H0v31h406v266l16 30v15c-1 0-3 1-8 2l-55 55v15l79 74v28H219l47-55v-8c-42 0-84-11-125-31 0-13 26-31 78-55 5-2 10-10 15-24 6-14 11-21 16-21v-4l-23-21h-24c-5 0-31 29-78 86-11 5-21 8-31 8v23l94 94v8H94v-31H31v234h24l27-31h699v31h43c9-14 16-20 20-20 0-14-3-29-8-43-5-7-8-15-8-23V672h-62v31h-47l47-55v-8h-32l-109-31v-16h16c31-13 52-21 62-23l47-45v-5c0-4-5-15-16-31v-16l32-22v-15c-10-19-15-29-16-30V250h8l28 31c26-8 56-31 89-70v-24H516v-15l125-40c27-9 90-19 187-31 16-5 32-8 47-8M375 265H188v-8l-24-23h-39v250l39-31h39l110 54c0 5 3 8 10 8l36-35v-27h-31l-140-31v-47h85l30 31h5l51-24 16-15v-24H188v-46h85l30 31h5l51-24 16-15v-24m391 469v109H578V734h188m-250 0v109H344V734h172m218-516v16h-46v31H531v32h157v46H531v32h157v47H531v31h157v8l15 15v16L594 597v4l94 94v8H484l47-55v-8h-31l-109-31v-31c15 0 31-3 47-8 18-10 31-22 40-38 5-9 9-22 12-39 3-13 6-20 10-22v-12l-31-26V218h265M281 734v109H94V734h187m157-250v16h-16v-16h16Z"/></symbol><symbol id="羕_T" viewBox="0 0 1000 1000" data-size="22"><path transform="matrix(1 0 0 -1 54 969)" d="M703 859c-2 0-10 5-23 16h-8c-5-11-42-31-109-62h-16v23c41 21 73 52 94 94 0 5 2 8 5 8l42-24 15-16v-39m-344-21-23-25h-8c-5 0-31 28-78 85-11 5-21 8-31 8v32h15c31-13 52-21 63-24 26-18 42-31 47-39 10-23 15-35 15-37m532-291H438l46-73v-10l-23-26h-8c-2 0-10 5-23 15l-39 94H39l-23 23v8h406v78H94v32h328v78H55l-24 23v8h703v8l47 47c0 5 3 7 8 7 13-18 32-31 55-39l31-31v-23H484v-78h180l59 62h4c13-18 31-31 54-39l32-31-20-24H484v-78h258l59 63h4c13-19 31-32 54-39l32-32v-23m0-453h-32c0-11-2-21-7-31-12-10-19-15-21-16-180 31-296 93-347 187V55c-14-23-42-42-83-55-2 1-8 7-18 16-5 10-8 20-8 31-11 0-21 3-31 8l-31 39h7l16-16h86v313H16v31h734v8l31 31c0 5 5 8 16 8h23l55-55v-23H484V285c3 0 21-17 52-51 5 8 56 32 152 71 33 18 62 41 85 70l55-55v-7c-15 0-31-3-47-8-52-34-125-63-218-86 57-63 166-94 328-94V94M391 234c-11 0-21-2-32-7-10-31-82-84-218-157L16 39c-5-5-11-8-16-8v32h23c39 18 73 31 102 39 0 5 26 20 78 46l94 102H31v31h258c8 0 16 3 24 8v8h44c1-1 2-3 2-8l32-31v-24Z"/></symbol><symbol id="翺_T" viewBox="0 0 1000 1000" data-size="22"><path transform="matrix(1 0 0 -1 39 969)" d="M766 594h-47c0 26-3 52-8 78l-39 109h31c0-10 3-20 8-31 23-15 42-41 55-78v-78m156 258-24-24h-7V51c-11-7-21-16-32-28L813 8c-4-5-8-8-12-8l-35 39c-47 16-73 24-78 24v15h140v360l-86-79c-5-15-8-31-8-46h-39l-54 50v4c104 68 156 105 156 110 11 5 21 7 31 7v360H695l-23 23v8h156v8l16 15c0 5 5 8 15 8h8l55-54m-266 0-23-24h-8V55c-14-23-42-42-84-55-15 31-55 52-119 63v31h16l31-16h94v344l-63-55c-11-5-21-8-31-8v-62h-24l-62 62h-8v-46H219v-16l-16-31v-32h86l59 63h4l70-66v-4l-20-24H203c-13-43-32-84-55-125-17-31-51-52-101-62 63 62 94 124 94 187H0v31h141v8l15 16v55H16v31h140v94H16v31h140v78H78c0-11-3-21-8-31l-15-16H16v359h23l27-31h90c0 5 5 31 16 78v32h70l24-24v-8c-8 0-21-5-39-15l-39-63h117l23 24 47 15c8 5 16 8 23 8h165l23 31h16l54-54m-93-375v367H391c0-16-3-32-8-47-5-8-8-16-8-24V516h-31v-8l47-47v-23H219v-94h39l58 62h8l39-47c53 13 120 53 200 118M313 734v63H78v-63h235m0-78v47H78v-47h235m0-78v47H78v-47h235m0-74v43h-94v-78h54l40 35m218 74h-39l-23 20v74l-47 94v15c57-36 93-83 109-140v-63Z"/></symbol><symbol id="者_T" viewBox="0 0 1000 1000" data-size="22"><path transform="matrix(1 0 0 -1 31 961)" d="M891 359h-39c-8 24-42 63-102 118l-62 23v16h46c53-19 105-53 157-102v-55m47 204H500l-47-24c0-11-42-42-125-94l20-23h324v31h39l39-35v-4l-23-23h-8V16h-16L677 0l-21 31v16H359c0-11-2-21-7-31L336 0h-39v422h-24L94 320 0 297v16c156 52 291 135 406 250H31v31h375v156H125v31h281v141c8 0 32-5 71-16h23v-31h-31v-94h54l59 63h4l59-63h3c53 52 79 83 79 94 13 11 20 16 23 16h16l47-39v-8h-47c0-11-3-21-8-31L531 594h262l56 62c26-7 56-31 89-70v-23M625 742v8H469V594l156 148m31-492v141H359V250h297m0-172v141H359V78h297Z"/></symbol><symbol id="聠_T" viewBox="0 0 1000 1000" data-size="22"><path transform="matrix(1 0 0 -1 31 969)" d="M938 407H813V32c-5 0-21-5-47-16h-16v391h-62v31h62v250h-62v31c15 0 31 3 46 8 42 50 73 114 94 195h31l32-15h15v-32c-7 0-20-5-39-15L766 719h93c0 11 3 21 8 31l16 16 55-51v-27H813V438h46c0 11 3 21 8 31l16 16 55-51v-27m-282 0H531v-94c-23-111-52-189-86-234-23-31-51-52-86-63 13 11 32 42 55 94l16 15 39 125v133l15 16v8c-26 0-52 3-78 7-10 13-15 21-15 24h93v250c-26 0-52 3-78 8-10 13-15 20-15 23h78l70 156c5 16 8 32 8 47h47l31-15h16c0-2-5-10-16-24-11-5-21-8-31-8-16-52-53-104-110-156h86c13 11 21 21 24 31v16h31c0-11 3-21 8-31l23-24v-23H547V438h23c13 11 21 21 24 31v16h31c0-11 3-21 8-31l23-24v-23M438 844H328V16c-5 0-21-5-47-16h-15v282c-68-26-125-52-172-78H78v-47H55l-16 15-39 78c21 0 42 3 63 8 5 7 10 11 15 12v574H16v31h297v8l46 47c0 5 3 8 8 8l71-66v-28M266 704v140H141V704h125m0-204v172H141V500h125m0-187v156H141V282l101 31h24Z"/></symbol><symbol id="聰_T" viewBox="0 0 1000 1000" data-size="22"><path transform="matrix(1 0 0 -1 31 985)" d="M938 129c-13-9-20-15-20-19h-43c-5 83-31 146-78 187h23c68-52 105-104 110-156 5-4 8-8 8-12M734 303c-13-10-19-17-19-21h-43l-24 62c-29 31-52 47-70 47v16h55c47-31 73-52 78-63l16-31c5-3 7-7 7-10m172 510h-31V360h-62v78H469v-78h-63v484h-93V16c-5 0-21-5-47-16h-16v282l-47-24-125-39c0-10-3-20-8-31l-15-16-16 16-39 78h63v578c-16 0-32 3-47 8-11 13-16 20-16 23h266c0 3 5 11 15 24 23 8 42 21 55 39l39-39c52-23 83-41 94-55h31c31 21 52 62 63 125h7c23-12 42-20 55-23 5-7 11-11 16-12v-27c-16 0-31-3-47-8l-47-55h281v31l63-23 15-16v-23M859 71l-39-39H523l-23 23v289c8 0 31-5 70-15h24v-32h-31V94h183c7 11 16 21 27 31l16 63c13 11 21 16 24 16 0-27 2-53 7-79l39-35V71M453 282c0-5-3-11-8-16-10-46-20-83-31-109l-43-47h-43v43l86 82c5 15 8 31 8 47h31m360 453v78H625v-16c11 0 21-3 31-8 11-13 16-20 16-23h-31v-16h86l27 32h4l47-47h8m-94-16H602l-24-19v-28c11 0 21-3 31-8l47-39c3 0 11 5 24 16l39 78m94-250v250C703 579 604 500 516 485v31c10 0 20 3 31 8l62 47v23c-12 37-31 63-57 78-2 0-14-5-36-15h-16c41 31 73 83 94 156H469V469h344M250 688v156H125V688h125m0-203v172H125V485h125m0-172v141H125V282l102 31h23Z"/></symbol><symbol id="育_T" viewBox="0 0 1000 1000" data-size="22"><path transform="matrix(1 0 0 -1 63 961)" d="M875 781H391v-8l15-16v-23h-8l-15 16c-8-13-31-32-70-55l-125-55v-15h257c91 13 157 20 196 23l15 16v8c-16 0-41 15-78 46h-15v32h23c81-34 156-94 227-180v-31l-24-24h-8c-7 0-31 26-70 78-5 11-8 21-8 32-10 0-20-3-31-8l-78-16-125-15c-60-8-119-14-176-18-39-3-59-5-59-6h-46v-8l39-39h414v32h23l55-51v-4l-24-24h-7V54l-40-39h-54c-16 16-42 32-78 47h-16v16h125v187c-5 0-11-3-16-8-62-18-166-41-312-70h-31v-31h-47v47h-16l-39-94L47 0v23c58 59 92 113 101 164 12 65 20 98 24 98v277h-16v-31h-27c-1 5-5 11-12 16l-15 62c-5 5-8 10-8 16 63 18 125 52 187 101l47 55H0v31h422v24l-47 46c-11 5-21 8-31 8v32l109-47 16-16c5-14 10-21 15-21v-5l-15-13v-8h258l46 47h47l55-55v-23M625 281v203H234v-62h32c67-13 114-21 140-24l63-16 47-42v-4l-24-24h-8c-104 47-187 72-250 78v-86l-15-47v-23h70l297 47h39Z"/></symbol><symbol id="脃_T" viewBox="0 0 1000 1000" data-size="22"><path transform="matrix(1 0 0 -1 39 961)" d="m922 39-24-24H430l-24 24v601h-23l-31-31h-8v23c115 102 177 198 187 290h16c31-13 52-21 62-24 5-7 11-11 16-12v-4c-5-10-21-21-47-31-10-13-15-20-15-23h164l31 31h15l55-55v-23c-21 0-41-3-62-8-63-70-94-114-94-133h156v32l63-24 15-16v-23h-31V414l31-28v-27H469V78h371c1 5 5 10 12 15 13 37 20 63 23 79v31h31c0-37 3-73 8-110 5-18 8-36 8-54M344 867l-24-24h-7V54l-16-15-47-24h-47v32c-5 0-21 5-47 15h-15v31c5 0 20-5 47-15h39l23 23v321l-47-24-62-55c0 5-5 21-16 47v16h-16c0-54-2-95-7-125C84 179 63 101 39 47 31 20 18 5 0 0v23c21 71 35 125 39 164 15 130 23 195 24 195v540l54-32h149v32h23l55-51v-4m375-70H555L422 664v-8h16l31-16h172c0 12 2 22 7 32l71 125m94-407v219H672V390h141m-204 0v219H469V390h140m-359 63v406H125V687c47-8 83-32 109-70v-39h-46c0 10-3 20-8 31l-55 47V422h23l102 31Z"/></symbol><symbol id="脾_T" viewBox="0 0 1000 1000" data-size="22"><path transform="matrix(1 0 0 -1 39 969)" d="M922 844h-31V484h-63v32H469l-63-32h-15v438l54-47h391l28 31 42-23 16-16v-23m0-563H688V16c-5 0-21-5-47-16h-16v281H438c0-10-3-20-8-31l-86-78v23c58 70 94 157 109 258h55l23-23v-8h-31v-24l-31-85h156v140h47l31-15h16v-32h-31v-93h117l58 62h4l55-51v-43M344 867l-24-23h-7V70l-36-39h-74v32c-2 0-21 5-55 15h-23v16h125v328c-49-21-83-52-102-94-13 11-20 21-23 31v16h-16v-23c-10-47-18-92-23-133-3-21-18-73-47-156-9-27-22-42-39-47 0 10 3 20 8 31l15 62 16 94c10 57 16 110 20 161l4 54v520h7l47-47h149v31h23l55-51v-4m484-148v125H672V719h156m0-172v141H672V547h156M609 719v125H453V719h156m0-172v141H453V547h156M250 656v203H125V688c21 0 42-3 63-8l46-24h16m0-195v133l-62 23c-16 23-42 42-79 55V406l94 24c26 10 42 20 47 31Z"/></symbol><symbol id="舁_T" viewBox="0 0 1000 1000" data-size="22"><path transform="matrix(1 0 0 -1 39 961)" d="M828 515H500v32h234v125H523l-23 23v8h234v140H523l-23 24v8h234v7l16 16c0 5 3 8 10 8l53-24 15-15v-24h-31V570l31-27v-28M422 859h-31l-149-31h-86V703h117l32 31c5 11 8 21 8 31h23l70-66v-27H156V531h117l59 62h4l70-66v-27H156v-32H94v407h27l24-32h5l6 8 125 31 63 32c0 5 3 8 7 8 3 0 5-3 8-8l47-16c5-7 11-11 16-12v-27m500-594H719V0h-63v265H516v32h140v156h47l31-16h16v-31h-31V297h86l58 62h4l55-51v-43m-469 24-19-24H266c0-6-3-10-8-15l-16-78C193 73 128 15 47 0H0v15c70 16 125 53 164 110l39 101v39H16v32h187v140h70l24-19v-28h-31v-93h54l59 62h4l70-66v-4Z"/></symbol><symbol id="䌁_T" viewBox="0 0 1000 1000" data-size="22"><path transform="matrix(1 0 0 -1 39 953)" d="M906 828H703V718h70l32 32h31c13-13 20-19 23-19 0-15-2-29-7-44-5-8-8-16-8-23V453c-5 0-21-6-47-16h-16v63H422c0-11-3-21-8-32l-16-15h-39v297h24l27-32h90v110H297v31h484v8l32 31c0 5 5 8 15 8h24l54-55v-23m16-477-20-23H734c-5-50-31-104-78-164l157-78 46-47V0h-39c0 3-39 31-117 86l-70 39c-3 0-5-3-8-8C524 52 438 13 367 0h-54v15l93 24 172 86v7l-15 16-47 16c-31 5-63 8-94 8v15c31 57 52 104 62 141H367l-15 15h-8c0-10-3-21-8-31-13-10-21-15-23-15h-8l-16 15c-5 16-8 32-8 47l-179-47H78c0-10-3-20-8-31l-15-16-16 16-23 47v23c29 12 63 57 101 133l39 78h-47c-39-15-62-31-70-47h-8v16L8 578c-5 3-8 7-8 10 73 93 114 194 125 302h70l24-19v-4l-39-39c-45-94-84-167-117-219h125l46 117v24l79-32h15c-2-16-21-31-55-46-75-146-145-251-210-313l171 31h32v24l-24 23-23 47h23c55-41 84-83 86-125h172c0 11 5 42 16 94v31h47l31-16h15v-31c-7 0-20-5-39-15l-15-47c-5-6-8-11-8-16h141v78h70l23-19v-4l-47-47v-8h55l59 63h4l70-67v-4M328 148l-19-23h-8c-7 10-16 20-28 31-10 37-20 63-31 78l-39 39v24l47-24 78-78v-47M219 78h-43c-2 5-5 10-12 15-3 47-21 105-55 172l55-47 55-93V78M94 39 74 15h-8c-1 5-5 11-11 16L23 156 0 203v31l39-31L94 93V39m547 679v110h-78V718h78m140-187v156h-78V531h78m-140 0v156h-78V531h78m-141 0v156h-78V531h78m172-250v47H531c0-32-10-63-31-94v-47c11 0 42-5 94-15h31v15l47 94M63 593v16H47v-16h16Z"/></symbol><symbol id="䌴_T" viewBox="0 0 1000 1000" data-size="22"><path transform="matrix(1 0 0 -1 39 976)" d="m906 836-19-24H406v-62h438v-55c-1-2-7-7-16-15v-6l31-22v-16c-10-18-15-28-15-31v-14c5-6 10-18 15-37v-23H391v-8l-24-23h-39v187h31v8l-15 16v101h-63v31h266v55l-31 27v28c33-11 62-32 86-63 5-16 7-31 7-47h149l47 47h8l62-23 31-31m16-782-24-23h-78l-23 23v164h-31v-15c-13-37-21-63-24-78l-15-32-86-78v24l23 23 39 94h-94V23L590 0h-27v156h-63v31h63v78h-47v32h47v62h-63v31h31c0 10-3 21-8 32l-15 78c-5 5-8 9-8 15 26-10 42-20 47-31l23-47c5-3 8-6 8-8-1-2-6-6-15-11v-28h62v16h-31c0 5 3 11 8 16l23 70v23h39l24-19v-4l-16-16v-8h117l27 32h4l32-32c5-1 7-2 7-2v-13c-10-20-15-30-15-31V78h31v94h16c0-27 2-53 7-79 13-13 21-19 24-19V54M281 328h-47v47L94 343H63c0-10-3-21-8-31l-16-15-16 15-23 55 23 55c34 36 63 83 86 140H63v-31H16c0 15-3 31-8 47-5 6-8 12-8 18 0 4 3 8 8 13l47 94c36 119 54 187 54 203h71l23-24v-7c-8 0-21-5-39-16L47 632v-23h94l47 125v16h31l31-16h16v-31h-32c-31-84-93-188-187-313h55l78 16h39l-47 86v8h23c34-29 63-63 86-102v-70m203 117-23-23h-8V35c-5-2-10-6-15-12-37-13-55-20-55-23h-8c0 15-3 31-8 47-18 10-31 15-39 15v16h78v140h-31v-46l-39 31h-8c0-32-3-57-8-78-8-34-18-60-31-78l-39-32v16c14 33 22 54 23 62 14 65 22 98 24 98v293c5 0 21-5 47-16h54l24 24c0 5 3 8 8 8l54-51v-4M266 172h-47c0 36-16 83-47 140h23c39-32 63-63 71-94v-46m-63-47-15-32V78h-24l-23 19v75l-47 93v16l54-47 55-109M94 54 70 31H55L31 54v118L0 234v16l39-32c26-47 42-83 47-109 5-8 8-16 8-23V54m703 625v8H359l24-31h383l31 23m-16-117v63H391v-63h390m16-219v94h-31v-94h31m0-93v62h-31v-62h31M641 406v16h-16v-16h16m78-219v16l-16 26v11c10 14 15 23 16 25v39c-10 12-15 19-16 21v10c11 14 16 22 16 24v78c-21 0-42 10-63 31v-39l32-27v-43h-79v-62c2 0 10 5 24 15 5 10 8 21 8 31 3 0 10-5 23-15l24-63h-79v-78h24c13 10 20 21 23 31v16c3 0 11-5 24-16 5-10 8-21 8-31h31M406 343v94h-62v-78c16 0 31-3 47-8 5-5 10-8 15-8m0-74v28c-21 0-41 10-62 31v-78h39l23 19Z"/></symbol><symbol id="䍙_T" viewBox="0 0 1000 1000" data-size="22"><path transform="matrix(1 0 0 -1 71 977)" d="M813 935c0-15-3-29-8-44-5-8-8-16-8-23V657h-63v47H156v-16h47v-31h-31v-16l-16-31h477l58 62h4c13-18 32-31 55-39l31-31v-23H125C104 522 63 475 0 438v23c29 24 52 53 70 86l55 157H78c0-11-3-21-8-32l-15-15H16v297h23l27-32h684v32h39l16-16c5-1 7-2 8-3m46-622H672v-78l-16-31v-16h8l44 47c26-8 56-32 89-71v-23H641c0-26-16-62-47-109L500 0v16c-5 13-11 21-16 23-41 13-62 21-62 24h-16v16h157l31 54v8H78v39c0 8 3 16 8 24 13 39 20 58 23 58v51H0v31h125c0 16 3 32 8 47 13 68 20 104 23 109v32l63-32h414l28 32 42-24 16-15v-24h-31V344h27l56 63c26-8 55-32 88-71v-23M734 735v156H563V735h171m-234 0v156H313V735h187m-250 0v156H78V735h172m391-274v8H344v-15c49-11 83-32 101-63 5-15 8-31 8-47h172v102l16 15M391 344v39l-24 24c-5 10-8 20-8 31h-31v31H203v-23c-13-45-20-73-23-86-5-5-8-11-8-16h219m234-39v8H172l-31-117v-24h250c0 5-3 11-8 16l-16 47c-8 0-21 21-39 62h24l78-78c5-15 8-31 8-47h148l16 16h7v101l16 16Z"/></symbol><symbol id="䏕_T" viewBox="0 0 1000 1000" data-size="22"><path transform="matrix(1 0 0 -1 54 961)" d="M891 453H641V78h117l58 62h4l55-51V47H375v31h203v375H344v31h234v328H391v31h343v8l47 47c0 5 3 8 8 8l55-51v-43H641V484h132c7 0 21 21 43 63h4l71-67v-27M344 851l-24-23h-7V54l-16-15-47-24h-47v32c-5 0-21 5-47 15h-15v16h93v8l16 15v289l-78-31h-16v-31h-23c-2 1-6 6-13 15h-5l-13-15-16-110L55 93 16 15V0H0c0 15 3 31 8 47l31 156c13 143 21 215 24 215v504l54-47h141l31 31 55-51v-4m-94-211v203H125V687l109-47h16m0-218v156c-15 0-31 2-47 8l-70 70h-24V484l-15-62v-32l125 32h31Z"/></symbol><symbol id="䐋_T" viewBox="0 0 1000 1000" data-size="21"><path transform="matrix(1 0 0 -1 37 951)" d="m782 472-39-8c-65-13-164-27-298-41-4-23-9-34-17-34-7 0-12 6-16 19l-17 53c72 36 132 115 180 234l57-25c14-7 21-13 21-19 0-8-7-14-23-16l-24-3c-37-63-87-118-151-163 102 2 206 9 312 22-19 23-40 45-63 67l11 14c45-29 78-54 98-74 28-27 42-54 42-80 0-21-8-31-24-31-5 0-9 1-12 4-5 4-12 20-21 48-3 10-8 20-16 33M474 334l52-12c29-6 43-13 43-21 0-11-8-18-25-22l-21-5V117c0-27 6-42 16-46 12-4 54-7 127-7 32 0 53 2 63 4 15 4 25 12 30 25 5 15 10 49 15 101l18-3v-77c0-13 2-23 7-29l17-17c5-4 7-8 7-13 0-24-55-35-166-35-82 0-129 1-142 5-25 8-37 28-37 59v172c0 38-2 64-4 78m-63-66h22v-35c0-55-8-99-23-130-14-30-33-45-57-45-7-1-13 1-17 5-7 5-11 12-11 21 0 8 3 15 8 21 1 2 10 8 25 18 34 24 52 72 53 145m377 17 21-17c41-36 69-64 85-86s25-44 24-65c0-23-10-35-30-35-13 0-22 10-27 31-7 38-18 68-32 90-16 26-33 49-53 69l12 13m-187 98c31-25 53-44 67-58 32-32 48-62 48-88 0-9-3-18-10-24-5-4-10-6-16-6-13 0-22 14-27 41-5 29-30 70-74 123l12 12m259 197c-43 34-77 69-103 107-24 33-45 84-65 153h-89v29h64l31 33 41-29c9-6 14-13 14-19 0-7-10-14-29-23 35-99 102-165 203-199v-16c-28 0-50-12-67-36M481 862l65-25c16-7 23-13 23-20 0-8-10-14-32-16l-16-2c-24-57-45-100-63-127-23-37-52-72-86-106l-16 15c40 52 68 100 86 143 17 41 30 88 39 138M257 398H114c-2-71-8-128-15-169C86 161 59 92 18 22L0 35c25 59 43 115 52 170 10 68 16 133 16 196v410c0 28-3 56-6 84l54-38h130l33 38 40-28c15-9 21-17 21-23-1-11-14-20-38-30V83c0-45-26-73-77-83-1 22-8 37-21 45-10 6-36 14-78 21l4 21c55-9 87-13 98-13 19 0 29 9 29 26v298m0 26v200H114V424h143m0 226v179H114V650h143Z"/></symbol><symbol id="𣍟_T" viewBox="0 0 1000 1000" data-size="22"><path transform="matrix(1 0 0 -1 86 961)" d="M828 902c0-14-3-28-8-43-5-7-7-15-7-23V641h-63v218H94V656H31v266h24l27-31h684v31h43c9-13 15-20 19-20M703 742l-23-23H188l-32 23v8h407v8l46 47c0 5 3 8 8 8 14-19 32-32 55-40l31-31m16-156-24-23h-7V55l-36-39h-58v31h-24c-33 11-51 16-54 16v15h109v203h-16c-33-14-53-21-62-23l-258-55h-23v-31h-47v47C193 154 146 94 78 39L0 0v31c75 38 119 86 133 141l15 62c8 30 14 59 18 88 3 20 5 30 6 30v289h23l28-32h418v32h23l24-24c10-5 20-8 31-8v-23m-94-270v262H234v-94h94l141-39c52-26 78-42 78-47v-39h-31l-110 55c-36 11-62 21-78 31-52 13-78 21-78 24h-16V344l-15-63v-31h23c75 13 135 21 180 23l187 32c5 6 11 10 16 11Z"/></symbol><symbol id="𣎓_T" viewBox="0 0 1000 1000" data-size="22"><path transform="matrix(1 0 0 -1 47 961)" d="M906 718H641l-63-140v-16h-15v55c14 19 22 32 23 39l16 62 23 141v47h31l32-16h15v-23l-23-24-16-62c-5-11-8-21-8-31h117l59 62h4l70-66v-28m0-640-39-47c-5-11-8-21-8-31-13 0-28 2-46 7-69 12-105 23-110 32-52 60-78 93-78 101h-31c-8-42-32-83-71-125h-23c29 47 52 105 70 172l24 164v55h78v-31h-31c0-37-3-74-8-110-5-20-8-39-8-60 11-38 32-65 63-80v422h-94v31h219v8l15 15c0 5 5 8 16 8h8l54-55v-23h-47c0-16-13-42-39-78l-39-31v23l32 102h-79V328h39l47 47h16l55-55v-23H734V78h172M578 726l-19-23H422V547h58l25 31 42-24 16-15v-16l-24-23h-8V277c-13-64-20-110-23-137l-16-62-15-31-47-47h-71c0 21-10 41-31 62h94v8c13 18 20 31 23 39l16 78c13 177 20 266 23 266v62h-62v-23c-13-65-21-115-24-149l-15-78c-12-60-33-112-63-156-13-11-21-16-23-16v24c21 56 34 101 39 133 15 90 22 136 23 136v200c0 13 3 26 8 39 5 26 8 52 8 78h-78v31h94v102c0 7-3 15-8 23-5 15-8 31-8 47l39-31 39-114c-1-3-6-9-15-19v-8h23l47 47h15l55-55M297 851l-24-23h-7V54l-36-39h-74v32c-10 0-20 2-31 7-11 13-16 21-16 24h94v328c-29-16-52-42-70-78-14 10-22 20-24 31v16H94v-32c-13-73-21-125-24-156L39 62 16 15V0H0c0 10 3 30 8 62l15 94c11 63 18 121 21 175l3 59v532h8l47-47h117v31h23l55-51v-4m-94-211v203h-94V672l79-32h15m0-199v137c-15 0-31 2-47 8l-62 54V406h23l71 23c5 7 10 11 15 12Z"/></symbol><symbol id="𣎜_T" viewBox="0 0 1000 1000" data-size="22"><path transform="matrix(1 0 0 -1 31 953)" d="m938 54-40-39H539l-23 24v179H406c0-10-3-21-8-31l-15-15h-39v437l54-31h118v109H406v-31c-10 0-20-3-31-8-3-6-7-8-10-8-10 13-17 20-21 20v246l54-31h430v31l63-24 15-15v-24h-31V742l31-27v-28H703V578h125v31l63-23 15-16v-23h-31V195l-20-23h-42v46H703v-62h-62v687h-63V78h281l32 78v16h15V78h8l24-24M328 851l-23-23h-8V54l-35-39h-74v32c-5 0-21 5-47 15h-16v16h109v328l-46-31h-16v-47h-47v31h-16v-31c-11-54-19-96-23-125-3-23-19-75-47-156C30 20 17 5 0 0v23c14 48 22 76 23 86l16 94c9 50 15 99 19 146 3 33 4 49 5 49v508h23l27-31h137v31h23l55-51v-4m485-133v125H703V718h110m-297 0v125H406V718h110m297-296v125H703V422h110m0-172v140H703V250h110M516 406v141H406V406h110M234 640v203H125V687h16l93-47m282-390v125H406V250h110M234 437v156h-7l-16-15-78 78h-8c0-21-5-83-16-188v-62h24l101 31Z"/></symbol><symbol id="𥾆_T" viewBox="0 0 1000 1000" data-size="22"><path transform="matrix(1 0 0 -1 31 961)" d="m938 39-24-24H617l-23 24v289c-11 0-21-3-31-8-63-14-94-21-94-23h-16v-32h-8l-15 16-16 62c-4 0-7 1-8 2 0 5 3 9 8 14h8v453l62-15h32v-32h-32V375h110v547c5-5 21-11 47-16h31v-16l-16-31V390h32l93 24c4 5 8 8 13 8 0-3 6-11 19-24v-8l-141-47h-16V78h196l15 15 16 32c5 26 8 52 8 78h15v-78l32-55V39M359 336l-23-24h-16l-15 16c-5 15-8 31-8 47L94 320c-11-18-16-31-16-39H47v16l-16 31v31c0 5 39 62 117 172l24 47c-11 0-21-3-31-8-26-5-52-8-78-8v-31H31v16c-10 23-15 36-15 39 47 73 93 177 140 312 0 5 3 8 8 8l47-16h23v-31c-7 0-20-5-39-16-39-96-83-167-132-211v-23h31c58 13 94 21 109 23 34 55 52 94 55 118 11 10 17 15 18 15l52-23 16-16c-11-13-21-20-31-23h-16C255 603 182 494 78 375l172 31h31l-23 47-24 23v39l86-78c8-23 21-42 39-55v-46m32-227h-43c-1 5-5 10-12 16l-16 62c-23 55-41 83-54 86v24l101-94 24-47v-47M266 62h-47l-39 141-39 39v23l54-31c39-47 63-83 71-109V62M141 44l-16-29V0H98c-1 5-5 9-12 15-13 94-42 167-86 219h23c37-31 63-63 79-94 10-16 20-42 31-78 5-6 8-12 8-18Z"/></symbol><symbol id="𦈨_T" viewBox="0 0 1000 1000" data-size="22"><path transform="matrix(1 0 0 -1 39 961)" d="M922 515H781V23L762 0h-43v515h-47v32h47v281h-47v31h141v8l31 31c0 5 5 8 15 8h8l55-55-20-23H781V547h39c13 10 21 20 24 31v15h23l55-50v-28m-281-15H531V382c-13-55-20-94-23-117C474 124 424 36 359 0c13 23 23 63 28 119 7 66 13 107 18 124 11 38 33 57 64 57v153l15 31v16h-93v31h93v297h-78v31h125v8l32 31c0 5 5 8 15 8h8l55-55v-4c-5-2-11-5-16-11-26-6-52-8-78-8V547h8l31 31 55-51v-27m-250-71-24-23h-8V117l-19-24h-43v47H16v328c3-5 21-10 54-15h39v-24l-31-27V172h78v375H31v31h125v172H94c-13-48-31-84-55-110L0 609v16c33 55 56 112 70 172 17 72 25 109 24 109v16h78v-32h-31v-23l-24-70c-5-5-8-11-8-16h118l62 62h16l70-70-20-23H219V578h54l59 62h4l55-50v-43H219V172h78v296c2-5 21-10 55-15h39v-24Z"/></symbol><symbol id="𦉇_T" viewBox="0 0 1000 1000" data-size="22"><path transform="matrix(1 0 0 -1 39 953)" d="M859 617c-29-24-52-53-70-86-5-10-8-21-8-31h-31l31 109v31h78v-23m-187-8c-8 0-21-5-39-16-39-62-63-93-70-93l31 132v24h31l31-16h16v-31m250-344H813V0h-63v265h-62v32h62v156h-31v31h109l16 31v16h23c8 0 21-21 39-63v-15h-93V297h23c13 10 20 20 23 31v15h24c8 0 21-21 39-62v-16m0 407H469v-79l-24-265-15-94c-12-73-38-140-78-203L313 0v23l15 16v8h-47v78H16v328c3-6 21-11 54-16h39v-23l-31-28V156h78v375H31v31h125v172H94c-13-47-31-83-55-109L0 593v16c33 60 52 102 55 125 12 77 20 122 23 133v39h78l-23-31-24-110h133l59 63h4l70-67v-27H219V562h39l58 63h4l71-67v-27H219V156h62v297c8 0 32-6 71-16h23v-23l-31-28V109h15v31c7 31 15 68 24 110 14 130 21 195 23 195v461h8l47-47h383v31l62-23 16-16v-23h-31V726l31-27v-27M703 312l-78-31h-16v-24c-13-50-20-83-23-101-21-63-42-104-63-125L453 0c33 35 51 60 55 78l39 172c-3 0-11-5-24-16-5-11-7-21-7-31h-24c-8 0-21 20-39 62v16c8 0 31 5 70 16h24v23l16 47v86c-16 0-32 2-47 8-11 13-16 20-16 23h125v16c5 13 11 20 16 23 0 5 2 8 7 8l40-35v-43h-79V328h47l32 15h15v-31m125 391v125H469V703h359Z"/></symbol><symbol id="𦋙_T" viewBox="0 0 1000 1000" data-size="22"><path transform="matrix(1 0 0 -1 31 961)" d="m875 851-23-23h-8V586l-16-16-47-23h-47v31c-5 0-20 5-46 15h-16v16h94v8l15 15v211H656c0-3 5-10 16-23 26-11 42-21 47-31-37-21-63-42-78-63v-15l31-28v-35l-20-23h-4l-58 62h-4l-23-23-125-55c0 2 5 10 15 23 5 0 42 26 110 79-27 39-63 62-110 70v31c42-13 84-31 125-55 3-5 7-7 10-7l29 31 24 62H359c0-3 5-10 16-23 11-5 21-8 31-8v-31c-10 0-20-3-31-8-21-18-31-31-31-39-5-14-11-21-16-21v-5l47-40v-59h-23l-47 47c-5 11-8 21-8 31l-78-55-47-23h-31v16c10 0 20 2 31 7 52 37 83 63 94 79-26 39-63 62-110 70v31l94-39 31-23c3 0 11 5 24 15 7 23 20 41 39 55v23H125V554l-20-23H63v391h7l47-47h680v31h23l55-51v-4m31-829L883 0H430l-24 23v383h55l16-16c5 0 7-1 7-1v-7c-10-9-15-14-15-15V62h375c0 10 3 21 8 31 5 21 7 42 7 63h32c0-31 2-63 7-94 5-13 8-26 8-40m32 306h-32v-16l-19-31c-4 0-8 3-12 8l-47 15-104 55-13-16h-8V93h-62v32H516v31h125v78H531v31h110v94H531v31h110v8l15 16-39 39H344c-42-11-84-32-125-63h-16v-8l22-23 72 39 23 24 55-55v-8c-8 0-42-5-102-16h-39v-78h55c13 10 21 21 24 32v15h31c0-10 3-20 8-31l23-24v-23H234v-78h71c13 11 21 21 23 31v16h31c0-11 3-21 8-31l24-24v-23H234V93h-62v282l-47-24L0 312v31c89 21 167 53 234 94v16H23L0 476v8h266c29 5 62 31 101 78 5 10 8 21 8 31h31l47-23c11-14 16-21 16-23-16 0-32-3-47-8l-47-55h398l59 63h4c13-19 31-32 55-40l31-31v-23H656v-16c47-29 105-52 172-70l94-16 16-15v-8Z"/></symbol><symbol id="𦌾_T" viewBox="0 0 1000 1000" data-size="22"><path transform="matrix(1 0 0 -1 54 961)" d="M875 453H375v-15c11 0 21-3 31-8l24-24h320v32l63-24 15-16v-15l-31-27v-20l31-27v-28H563c0-10-3-20-8-31l-71-70v-71h63c37 13 63 21 78 24 4 5 8 8 13 8 0-2 6-10 18-24v-8L484 39 445 0h-4c-1 5-5 11-11 16-13 36-21 54-24 54v8c0 3 5 11 16 24v39h-39l-16-16h-8v31c57 11 104 52 141 125h-55l-27-31h-43v188l-31 15h-16v31h453l-15 32v15H406v-31h-54l-32 31h-7L109 320c-10-5-20-7-31-7v-16c16 0 63 5 141 16h47v23l-32 27v28l47-24 63-62v-71h-24c-13 11-21 21-23 32v15c-8 0-31-5-70-15h-24V16h-62v234c-5 0-21-5-47-16H78v-15l-15-31c5 0 20-5 46-16h16v-31c-8 0-21-5-39-16C73 78 44 42 0 16v15l23 47c13 55 21 83 24 86v24c0 6-5 31-16 74v26l86 87 39 63h-31l-47-24-23-23H31v23c-10 35-15 55-15 59 45 43 94 119 146 230l57-31h15v-31h-46c0-11-3-21-8-32-68-62-102-104-102-125h117c42 53 63 84 63 94l15 16 24-24c10-5 20-7 31-7v-32h16v172h23l31-31h360l23 23v39H102l-28-31H31v219l55-31h711v31h43c9-14 16-21 19-21 0-14-2-28-7-42-5-7-8-15-8-23V703h-31v-15h31c0-16-3-32-8-47-5-8-8-16-8-24V500c11 0 21-3 31-8l16-15v-24m16-390c-8 0-21-5-39-16-5-11-8-21-8-31-60 5-125 51-196 140l-39 94h8l75-78c53 26 97 52 130 78h16l37-39v-23h-8l-12 15c-3 0-7-3-11-8l-110-39h-15c5-18 21-31 47-39 26-10 62-20 109-31l16-16v-7m-547 54-20-23h-4c-21 10-41 41-62 94-19 10-32 15-39 15v31h8c23-13 41-20 54-23l63-59v-35m437 649v93H594v-93h187m-15-203v78h-94v-78h94M531 766v93H344v-93h187m94-203v78h-94v-78h94m-141 0v78h-78v-78h78M281 766v93H94v-93h187m453-453v62H438v-62h296Z"/></symbol><symbol id="𦓚_T" viewBox="0 0 1000 1000" data-size="22"><path transform="matrix(1 0 0 -1 39 969)" d="M922 828h-31V648l-20-23h-43v31H453v219l63-16h31v-31h-31V688h125v250l62-16h31v-31h-31V688h125v187l63-16h31v-31m0-445-24-24h-7V55l-39-39h-24l-70 31c-3 0-16-5-39-16h-16v344h-62V31h-63v344h-62V16h-16L474 0c-10 13-17 20-21 20v418l63-32h70l16 16c13 55 20 83 23 86v23H422v32h406l16 31v15h23l55-50v-28H688l-40-93-23-32h219v32h23l55-51v-4M406 656H94V402C81 302 73 231 70 188 60 131 50 84 39 47L23 16C10 5 3 0 0 0c0 11 3 21 8 31l15 94c9 51 15 100 19 146l5 49v539h8l33-31h18l175 55c25 7 40 18 47 31 0 5 1 8 4 8 4 0 8-3 12-8l47-16c5-6 10-9 15-11v-28h-31c-66-21-113-34-141-39l-86-15c-20-4-30-7-31-8H94V688h179l63 62h16l54-55v-39m16-567-24-42c-13-11-20-16-23-16H164l-39 39v477l55-31h148v31l63-24 15-15v-24h-31V352l31-28v-27H188V94h132l16 15 16 32 15 62c14 11 22 16 24 16V109h7l24-20m406-11v297h-62V78h62M313 328v156H188V328h125Z"/></symbol><symbol id="𦔣_T" viewBox="0 0 1000 1000" data-size="22"><path transform="matrix(1 0 0 -1 31 969)" d="M938 141H781l-39-94-23-24-71-23h-23v47c-5 0-21 5-47 16h-15v31h7l16-16h117c0 5 5 21 16 47v16H570C518 68 456 26 383 16h-39v15c47 13 83 32 109 55l47 55H344c0 10 3 20 8 31 13 55 20 83 23 86v23c-8 0-31-5-70-15h-24c0 26-13 62-39 109l-39 31V23L184 0h-43v344h-16c0-31-18-89-55-172-15-35-39-61-70-78 52 109 94 229 125 359v47H16v31h125v94H16v31h125v78H0v16h23c50 13 84 21 102 23 5 5 11 8 16 8v157l62-16h31v-24l-31-27v-58h16l62 31 47-24 16-15-20-24h-8c-5 10-7 15-8 16-3 0-7-3-11-8-16-11-42-21-78-31l-16-16v-86h8l62 63 55-51v-43H203v-94h24l58 63h4l63-63h7v24l16 47v257h8l47-46h195c0 10-3 20-8 31l-15 62c-5 5-8 11-8 16h94v-16l-16-31v-62h109v7l-23 24c-8 36-21 62-39 78h43l55-63c2 2 9 7 19 16h16l70-70-20-24H688c7-67 31-125 70-172 10 5 20 21 31 47l16 16c5 15 8 31 8 47h31l47-24c10-13 15-21 15-23h-47c0-11-2-21-7-31l-55-55v-16l35-39h27c0 21 11 42 32 63v15h15V500l16-31v-16h-63l-31 16h-15v-8l31-31v-16l-31-27v-59h7l47 47 71-66v-28H797c0-26-3-52-8-78-5-10-8-20-8-31h24l58 62h4l71-66v-27M641 719v39l-20 23H438v-62h121l24 31 50-31h8m172-250c-18 31-43 52-74 62 0-7-38-31-114-70-15-5-31-8-47-8v-15h180l23 23c11 5 21 8 32 8m-63-156v93H641v-15l-16-32v-46h125m-31 254c0 3-3 7-8 11l-47 94c-5 15-8 31-8 47h-15c0-11-3-21-8-31-14-11-22-16-24-16V563c-11-27-21-43-31-47l-78-32c0 11-3 21-8 32l-39 47h94c0 10 5 41 16 93v32H438v-40l-24-117-47-93-31-32h-23l31 55v39H203v-39c73-44 114-93 125-148h63c0 13 2 29 5 50 5 25 7 42 8 50 1 16 2 35 2 56h24l31-31h86l109 70 63 59m15-325v39H609v-23l-31-86h141v23l15 47M578 383v23H453v-15l-15-32v-46h125c0 7 5 30 15 70m-15-102H422v-31c-11-47-16-73-16-78h102c23 26 42 62 55 109Z"/></symbol><symbol id="𦖨_T" viewBox="0 0 1000 1000" data-size="22"><path transform="matrix(1 0 0 -1 63 969)" d="M859 891h-31V535c-11-7-21-16-31-27l-63-16c-5-5-10-8-15-8v16c-5 13-11 21-16 23-41 13-62 21-62 24h-16v16h141v375h70l23-20v-27m-187-24-24-23h-7V633l-20-24h-43v297c3-5 21-10 55-15h39v-24m-141-39H297v-62h141v31h23l55-51v-4l-24-23-15-78-28-32h-58v32c-16 0-31 2-47 7-11 13-16 21-16 24h94v62H297V609c67-10 125-31 172-62l31-53v-5l-21-20c-3 0-7 3-10 8-47 49-105 83-172 101V453h-63v141C167 526 89 479 0 453c120 83 198 167 234 250v31H125V594H63v203l54-31h117v62H16v31h218v79h71l23-20v-27h-31v-32h117l47 47h16l54-54v-24m344-687h-16l-31-16H656V16c-5 0-21-5-47-16h-15v125c-11 0-21-3-31-8L141 94H16v15c26 0 52 3 78 8 13 5 25 8 39 8h55v281H63v32h671l16 31v15h23l55-50v-28H656V141h8l16 15h86l39 47h8l46-31h16v-31M594 344v62H250v-62h344m0-94v63H250v-63h344m0-94v63H250v-78h250l63 15h31Z"/></symbol><symbol id="𦞧_T" viewBox="0 0 1000 1000" data-size="22"><path transform="matrix(1 0 0 -1 39 961)" d="m922 853-24-87-15-172-16-78c-23-31-52-52-86-63h-31c0 11-3 21-8 31-34 16-52 31-54 47h39c5-2 19-6 42-15h18c2 1 8 6 18 15l15 32c13 78 21 117 24 117v148H734c0-15-2-31-7-47-5-7-8-15-8-23V652c-8-12-21-47-39-105l-71-70-62-24 78 86v8h-47v47c0-5-47-31-140-78h-16v-32h-24c-10 5-20 21-31 47-5 0-7 2-8 3v14c10 19 15 29 16 30v297h23l32-31h8c41 7 83 31 125 70 0 5 3 8 9 8l53-24c11-18 16-31 16-39h195l31 32h16l39-38m-31-478h-32V16h-15L817 0h-3c0 5-3 11-9 16-5 21-8 41-8 62H438V16c-11 0-21-3-32-8-3-5-7-8-10-8-10 13-17 20-21 20v418h23l28-32h387v32l62-24 16-16v-23M344 867l-24-23h-7V70l-36-39h-74v32c-5 0-21 5-47 15h-15v16h109v312h-31l-55-31c-5-11-8-21-8-31h-31v31h-16v-31c-11-54-19-96-23-125-3-23-19-75-47-156-9-27-22-42-39-47 0 10 3 20 8 31l15 62 16 94c10 57 16 110 20 161l4 54v504h23l27-31h153v31h23l55-51v-4m328-160v121c-16 0-32 3-47 8-11 18-16 31-16 39h-7c-8-8-32-21-71-39l-78-16-15-15V578h15c37 13 62 21 78 24 11 5 21 7 32 7v39l-32 28v27c34-15 63-41 86-78 5-21 8-42 8-62h16c0 9 2 25 7 46 11 65 19 98 24 98m125-441v109H641V266h156M250 656v203H125V703h16c31-18 62-31 93-39 5-5 11-8 16-8m547-547v125H641V109h156M578 266v109H438V266h140M250 457v129c-29 34-63 63-102 86h-23V492l-16-47v-23h32l93 23c5 7 11 11 16 12m328-348v125H438V109h140Z"/></symbol><symbol id="𦞵_T" viewBox="0 0 1000 1000" data-size="22"><path transform="matrix(1 0 0 -1 31 961)" d="M859 781h-31V500h-62v47H469v-32c-11 0-21-3-31-8-3-5-7-7-10-7-11 13-18 19-22 19v324h24l31-31h47l15 16c13 52 21 78 24 78v16c2 0 21-5 55-16h23v-31c-11 0-21-3-31-8l-47-55h230l25 31 42-23 15-16v-23m79-609c0-3-5-11-16-24-11-6-21-8-31-8v-31c-37 11-63 32-80 63h-7l-15-16H656V15c-5 0-21-5-47-15h-15v156H453v31l-125-62h-15c0-26-3-52-8-78l-47-32h-55v16c-5 12-10 20-15 23-16 5-32 8-47 8v31h23c35-10 55-15 59-15h6l21 23v305l-78-39c-11-18-16-31-16-39h-31v31h-16v-31c-11-54-19-96-23-125-3-23-19-75-47-156C30 20 17 5 0 0v23c22 73 35 127 39 164 15 143 23 215 24 215v504h23l27-31h153v31h23l55-51v-4l-31-27V140h23c41 26 93 73 156 141l55 109H352l-24 24v8h266v109c3-5 21-11 54-16h40v-23l-32-27v-43h149l58 62h4l55-51v-43H672v-23c37-81 125-146 266-195M766 703v78H469v-78h297m0-125v94H469v-94h297m-47-333-47 83v15h-16V187h8l55 58M250 640v203H125V687h16c31-18 62-31 93-39 5-6 11-8 16-8m344-453v156c-3 0-11-5-24-15L453 187h141M250 441v129c-29 34-63 63-102 86h-23V476l-16-47v-23h32l93 23c5 7 11 11 16 12Z"/></symbol></svg>