<svg xmlns="http://www.w3.org/2000/svg"><symbol id="虐_T" viewBox="0 0 1000 1000" data-size="22"><path transform="matrix(1 0 0 -1 54 961)" d="M891 675c-5-1-11-5-16-11l-47-16-78-70 31 94v15H422c0-15-3-31-8-47-5-8-8-15-8-23v-55h39c86 13 146 21 180 24l33 39h3c31-11 56-32 73-63h-31l-62-15H406v-63h375v-62h-47v-16c11 0 21-3 32-8l47-47v-23H297V203h351c13 18 32 31 55 39l24 23 39-39c10-5 20-8 31-8v-46H297V62h387l55 63c26-8 56-32 89-71V31H234v359h24l31-31h367l63 55v8H367l-23 19v90H172v16c26 0 52 2 78 7 13 5 26 8 39 8h55v125H125V390c-13-73-21-125-23-156l-16-78c0-16-21-63-63-141C10 5 3 0 0 0c0 10 3 20 8 31l31 125c13 117 21 176 24 176v433h7l47-47h258v204h70l24-20v-4l-31-27v-28h179c14 19 32 32 55 39l23 24 39-39c11-6 21-8 32-8v-47H438v-94h351l31 32h16l55-55v-20Z"/></symbol><symbol id="虜_T" viewBox="0 0 1000 1000" data-size="22"><path transform="matrix(1 0 0 -1 47 969)" d="M906 719c-21 0-41-3-62-8l-63-55v32l32 54v8H453v-8l16-15-31-28v-27h179l59 62h4l39-39c10-5 20-7 31-7v-32H531c-10 0-20-3-31-8-21-5-41-7-62-7v-16h390v-47H395c-1 5-5 11-12 16-5 15-8 31-8 47H156v15c19 0 73 5 164 16h55v78H125V422c-13-73-21-125-23-156l-16-78C74 128 53 76 23 31 10 21 3 16 0 16c0 10 3 20 8 31 15 55 26 102 31 141l24 175v465h7l47-47h289v157c8 0 32-5 71-16h23v-31h-31v-16h195l59 63h4c23-29 52-52 86-71l-20-23H469v-63h351l28 32h27c0-11 3-21 8-32l23-23v-39m-62-508c-11-13-21-21-31-23h-16v-79c-5-31-31-62-78-93h-16c-15 15-41 31-78 47h-16v31c5 0 21-5 47-16h39l39 39v86H508C461 117 390 62 297 39l-63-16L125 8c-5-5-11-8-16-8v31c89 8 167 32 235 71 41 18 73 52 94 101H141v31h312c0 5 5 21 16 47v16H320l-27-31h-43v281h23l28-31h418v31h43c9-13 15-20 19-20 0-14-3-28-8-43-5-7-7-15-7-23V289c15-21 41-41 78-62v-16M703 422v62H547v-62h156m0-94v63H547v-63h156m63-74v27c-2 0-10-5-24-15h-8l-39 31H539l-23-24v-39h226l24 20M484 422v62H313v-62h171m0-94v63H313v-63h171Z"/></symbol><symbol id="虧_T" viewBox="0 0 1000 1000" data-size="22"><path transform="matrix(1 0 0 -1 23 969)" d="M953 594H656l-31-133v-23h230l25 31 42-24 16-15v-16l-24-23-31-219c-5-33-15-69-31-109l-24-24-47-23h-47c0 23-10 41-31 54-11 5-21 8-31 8v16h55c5-2 19-7 43-16h23c1 5 5 11 12 16l15 47 16 78 16 156c5 11 7 21 7 31H563l31 157v31h-78v31h93l47 164v24H547v31h250v8l47 46c0 5 3 8 8 8l39-39c10-5 20-8 31-8v-46H719v-16c-8-16-21-63-39-141-5-10-8-20-8-31h137l55 63c26-8 56-32 89-71v-23M578 70l-19-23H234c0-11-2-21-7-31L211 0h-39v328l-70-62-16-78c0-16-21-63-63-141C10 36 3 31 0 31c0 11 3 21 8 32l31 125c13 117 21 175 24 175v434l70-47h117v188h70l24-20v-4l-31-27v-28h85l59 63h4l70-66v-4l-19-24H313v-78h179l31 31h8c3 0 11-5 24-15l23-47v-31c-21 0-41-3-62-8l-39-39h-24v15l31 63H297c0-3 5-11 16-24v-7h-32v-47l63 23 26 24 52-24 16-16-20-23H281v-47h235v-47H238c-2 5-5 11-11 16-5 26-8 52-8 78-3 0-11-5-24-16h-23l-31 24v8h78v78h-94V422l-16-63v-31h16c0 11 3 21 8 31 5 0 21 26 47 79l15 62c13 11 21 16 24 16 5 0 21-5 47-16h15v-31c-7 0-20-5-39-16l-23-47h140l-39 78-23 32c49-11 83-32 101-63 5-15 8-31 8-47h24c6 0 20 21 43 63h4l70-67v-27H391v-78h23l47 47h16l54-55v-23H391v-78h23l47 46h16l54-54v-24H391V78h54l59 63h4l70-67v-4M328 297v78h-94v-78h94m0-109v78h-94v-78h94m0-110v78h-94V78h94Z"/></symbol><symbol id="虩_T" viewBox="0 0 1000 1000" data-size="22"><path transform="matrix(1 0 0 -1 23 961)" d="M938 656c-21 0-42-3-63-8l-39-39h-23c0 5 2 10 7 16 13 36 21 54 24 54v8H672V578h23l47 47h31l40-39-20-24H672v-78h250v-62H633l-24 19v106h-78v15h24c33 10 51 16 54 16v109h-93V367c-13-55-21-94-24-117-21-89-41-146-62-172-23-48-52-73-86-78v23l23 24 47 93c11 36 21 83 31 141l16 172c5 57 8 156 8 297h23l28-32h121v204h70l23-20v-4l-31-27v-43h102l58 62h4l71-66v-27H703v-79h149l27 32h27c0-11 3-21 8-32l24-23v-39m15-586c-5-3-10-10-15-23V31H758l-24 19v325c5-6 21-11 47-16h32v-16l-16-31V93h74c1 5 5 11 12 16l15 78c13 10 21 16 24 16v-86c13-19 20-32 23-39 5-3 8-6 8-8M172 797h-31c-5-63-52-126-141-188 41 46 73 124 94 234 3 0 21-5 54-15h24v-31m500-461-24-24-15-109c-12-81-59-144-141-188h-39c0 10 23 31 70 63 11 26 21 41 32 47l15 47c13 65 21 97 24 97v90h78v-23M438 672c-68-5-146-32-235-79v-15h141v31h39l15-16c5-1 8-2 8-3 0-15-3-29-8-43-5-8-7-16-7-24V265h-63v63h-78V54c-21-26-41-42-62-47-3-5-7-7-10-7-11 10-18 20-22 31v16c-5 0-21 5-47 15H94v16h94v250h-63v-47H63v281H39c-2-1-6-6-13-15h-5L0 570v8c29 0 55 2 78 8 29 6 61 19 94 39h16v297l62-16h31v-24l-31-27V672h23l47 46h24c3 0 10-5 23-15h8c-26 73-52 125-78 156h23l78-78c8-23 21-42 40-55v-54M375 93h-47c0 53-16 105-47 157h24c39-32 62-63 70-94V93M172 218c-8 0-21-5-39-15-5-37-42-84-110-141H0c63 78 94 145 94 203h31l31-15h16v-32m156 250v79H125v-79h203m0-109v78H125v-78h203Z"/></symbol><symbol id="蚈_T" viewBox="0 0 1000 1000" data-size="22"><path transform="matrix(1 0 0 -1 39 969)" d="M922 500H813V16c-5 0-21-5-47-16h-16v500h-78v31h78v313h-62v31h156v8l31 31c0 5 3 8 8 8l39-35v-43H813V531h23l43 47h4l39-35v-43m-266 0H547V395c-13-46-21-79-24-98C484 156 419 68 328 31c83 78 135 187 156 328v118l16 15v8H375v31h125v313c-26 0-52 3-78 8-11 13-16 20-16 23h172v8l31 31c0 5 3 8 8 8l39-35v-43h-93V531h7l47 47c8 0 21-21 39-62v-16M344 133l-20-24h-27c0 16-3 31-8 47-11 10-18 15-19 16h-18L63 109V78H16v24C5 135 0 153 0 156h16l31 16h78v203H78c0-15-3-31-8-47-6-5-10-10-11-15H16v453l54-32h55v204c8 0 31-5 70-16h24v-31h-31V734h78v32l62-24 16-15v-24h-31V430l31-28v-27H188V188c5 5 20 10 46 15h32l-24 63-23 31h23l78-78 24-47v-39m-94 273v297h-62V406h62m-125 0v297H78V406h47Z"/></symbol><symbol id="蚈_P" viewBox="0 0 1000 1000" data-size="22"><path transform="matrix(1 0 0 -1 39 969)" d="M922 500H813V16c-5 0-21-5-47-16h-16v500h-78v31h78v313h-62v31h156v8l31 31c0 5 3 8 8 8l39-35v-43H813V531h23l43 47h4l39-35v-43m-266 0H547V395c-13-46-21-79-24-98C484 156 419 68 328 31c83 78 135 187 156 328v118l16 15v8H375v31h125v313c-26 0-52 3-78 8-11 13-16 20-16 23h172v8l31 31c0 5 3 8 8 8l39-35v-43h-93V531h7l47 47c8 0 21-21 39-62v-16M344 133l-20-24h-27c0 16-3 31-8 47-11 10-18 15-19 16h-18L63 109V78H16v24C5 135 0 153 0 156h16l31 16h78v203H78c0-15-3-31-8-47-6-5-10-10-11-15H16v453l54-32h55v204c8 0 31-5 70-16h24v-31h-31V734h78v32l62-24 16-15v-24h-31V430l31-28v-27H188V188c5 5 20 10 46 15h32l-24 63-23 31h23l78-78 24-47v-39m-94 273v297h-62V406h62m-125 0v297H78V406h47Z"/></symbol><symbol id="蚩_T" viewBox="0 0 1000 1000" data-size="22"><path transform="matrix(1 0 0 -1 63 969)" d="M875 547H469V438h234v31l63-24 15-15v-24h-31V289l31-27v-28H469V109c7 0 31 5 70 16h55c7 0 31 5 70 16h24c0 13-21 31-63 54v8c73-8 146-52 219-133V39l-20-23h-4l-90 93h-3c-13 0-26-2-39-7l-79-16-109-16c-51-7-113-13-187-18-101-7-158-12-172-13-11-5-21-8-32-8V0H78c0 8-5 31-15 70v24h226l78 15h39v125H172v-31c-11 0-21-3-31-8-3-5-7-7-10-7-11 13-18 19-22 19v262h24l27-31h246v109H23L0 570v8h281l32 16h15c0 10 3 20 8 31l31 31c14 37 22 55 24 55v8H109v187l63-15h31v-32h-31V750h234v31l16 63v94h55l23-20v-4l-23-23h-8v-94l-16-31v-16h250v141h70l24-20v-4l-24-23h-7V680l-20-24h-43v63H438c0-16-3-32-8-47-24-40-42-63-55-70-9-5-20-8-31-8v-16h375l47 24 25 23c42-13 70-32 84-55v-23M688 266v140H469V266h219m-282 0v140H172V266h234Z"/></symbol><symbol id="蛢_T" viewBox="0 0 1000 1000" data-size="22"><path transform="matrix(1 0 0 -1 47 977)" d="M906 438H781V16c-5 0-21-5-47-16h-15v438h-63v31h63v235h-63v31c16 0 32 3 47 8 3 0 11 13 24 39l31 93c5 26 8 52 8 79 7 0 31-5 70-16h23l-39-47c-33-72-62-125-86-156h94c0 10 3 20 8 31l16 16 54-51v-27H781V469h39c13 11 21 21 24 31v16h31c0-11 3-21 8-31l23-24v-23m-281 0H500v-78c-8-16-21-63-39-141-37-98-84-166-141-203h-39c75 77 119 150 133 219l39 187v16h-78v31h78v235c-21 0-41 2-62 7-11 13-16 21-16 24h31c26 5 39 10 39 15l32 94c13 63 20 94 23 94v16h55l23-20v-4c-2 0-31-44-86-133l-23-62h78c0 10 3 20 8 31l15 16 39-35v-43h-93V563l-16-63v-31h39c13 11 21 21 24 31v16h23c8 0 21-21 39-62v-16M344 141h-39l-29 31h-5c-5-7-69-31-193-70-10-18-15-31-15-39H31L0 141v16h94l31 15h16v235H63v-32H47l-31-15v406l54-31h71v203c3 0 21-5 54-16h24v-8l-31-31V735h70l27 31h4l24-23c10-5 20-8 31-8v-8l-31-31V461l31-27v-27H188V188l62 16h31v46l-23 47-24 24v23c57-37 94-83 110-140v-63m-78 297v266h-78V438h78m-125 0v266H63V438h78Z"/></symbol><symbol id="蛢_P" viewBox="0 0 1000 1000" data-size="22"><path transform="matrix(1 0 0 -1 47 977)" d="M906 438H781V16c-5 0-21-5-47-16h-15v438h-63v31h63v235h-63v31c16 0 32 3 47 8 3 0 11 13 24 39l31 93c5 26 8 52 8 79 7 0 31-5 70-16h23l-39-47c-33-72-62-125-86-156h94c0 10 3 20 8 31l16 16 54-51v-27H781V469h39c13 11 21 21 24 31v16h31c0-11 3-21 8-31l23-24v-23m-281 0H500v-78c-8-16-21-63-39-141-37-98-84-166-141-203h-39c75 77 119 150 133 219l39 187v16h-78v31h78v235c-21 0-41 2-62 7-11 13-16 21-16 24h31c26 5 39 10 39 15l32 94c13 63 20 94 23 94v16h55l23-20v-4c-2 0-31-44-86-133l-23-62h78c0 10 3 20 8 31l15 16 39-35v-43h-93V563l-16-63v-31h39c13 11 21 21 24 31v16h23c8 0 21-21 39-62v-16M344 141h-39l-29 31h-5c-5-7-69-31-193-70-10-18-15-31-15-39H31L0 141v16h94l31 15h16v235H63v-32H47l-31-15v406l54-31h71v203c3 0 21-5 54-16h24v-8l-31-31V735h70l27 31h4l24-23c10-5 20-8 31-8v-8l-31-31V461l31-27v-27H188V188l62 16h31v46l-23 47-24 24v23c57-37 94-83 110-140v-63m-78 297v266h-78V438h78m-125 0v266H63V438h78Z"/></symbol><symbol id="蜎_T" viewBox="0 0 1000 1000" data-size="22"><path transform="matrix(1 0 0 -1 39 969)" d="M922 609h-39l-16 16c-7 21-21 42-42 63-5 0-9-3-12-8-136-26-230-42-282-47-26-11-42-21-47-31l36-39h308v31h24l54-51v-4l-23-23h-8V55l-16-16-46-23h-47v31c-5 0-21 5-47 16h-16v15h94v8l16 16v148H516c-8-47-32-104-71-172L359 0v23l24 24c41 78 62 125 62 141 13 78 21 117 24 117v265c0 8-3 16-8 24-13 40-21 62-23 64v18l85 90c13 7 42 62 86 164 0 5 1 8 4 8 4 0 8-3 12-8l47-16c5-7 11-11 16-12v-4c-11-13-21-20-32-23h-15c0-15-13-41-39-78L484 688h125c73 13 126 20 157 23 15 5 31 8 47 8-37 60-73 104-110 133v7h24c67-52 114-94 140-125l55-93v-32M391 102l-20-24h-27c0 3-5 21-16 55v23L78 78H63V47H31L0 125v16h109l32 15h15v203H94c0-15-3-31-8-46-7-5-10-11-12-16H31v453l55-31h70v203h94v-24l-31-27V719h78v31l62-23 16-16v-23h-31V414l31-27v-28H219V172h31l31 16h16v23l-24 23-23 47 47-23c41-37 73-73 94-110v-46m422 336v93H531v-93h282m0-157v125H531V305l-15-16v-8h297M281 391v297h-62V391h62m-125 0v297H94V391h62Z"/></symbol><symbol id="蜨_T" viewBox="0 0 1000 1000" data-size="22"><path transform="matrix(1 0 0 -1 31 969)" d="M938 94c0-3-5-11-16-24-11-5-21-7-31-7V16H758c-12 0-25 2-39 7-110 22-167 43-172 63l-94 117C427 104 370 37 281 0v31c11 0 21 3 32 8l31 31v20c-13 9-21 16-24 19-5 16-7 31-7 47L86 94H63V63H35c-1 5-5 10-12 15-13 37-20 55-23 55v8c15 0 31 2 47 7 8 5 16 8 23 8h71v235H78c0-21-3-42-8-63-6-5-10-10-11-15H16v437h7l32-31h86v203h93v-24l-31-27V719h55l29 31h5l52-23 15-16v-23h-31V445l31-27v-27H203V172l63 16h31v31l-24 47-23 23v24h23c50-47 84-105 102-172h16v15l31 86v117c8 0 31-5 70-15h24v-8l-32-31v-55l55-94 31-31h24v281H430l-24 24v8h344v93H375v32h375v93H430l-24 24v8h157v250h70l23-20v-4l-31-27v-59h86l59 63h3c24-29 53-52 86-71l-19-23H625V688h141v31l62-24 16-15v-24h-31v-93c2 0 10 5 23 15 11 26 21 42 31 47l71-66v-28H813v-70l31-27v-28H656V281h117l59 63h4l70-67v-27H656V102l24-24h101c13 0 52 5 117 16h40M266 422v266h-63V422h63m-125 0v266H78V422h63Z"/></symbol><symbol id="蜨_H" viewBox="0 0 1000 1000" data-size="21"><path transform="matrix(1 0 0 -1 43 956)" d="m21 736 53-38h72v123c0 35-3 61-7 78 39-4 71-12 95-23 8-3 12-7 12-13s-4-10-12-12c-13-8-27-12-42-13V698h73l35 32c34-23 51-40 51-49 0-7-10-15-30-24V395c5-6 10-10 14-13 3-2 5-4 5-7 0-8-3-13-9-13H192V148c2 1 3 1 3 1 28 8 58 16 92 27-3 10-6 17-10 23-11 21-25 43-42 65l13 18c27-22 48-44 65-67 13-18 22-35 29-53 6-12 9-25 9-38 0-23-9-34-26-34-4 0-7 2-11 6-3 4-6 12-10 25-4 12-7 23-10 33-26-15-50-26-72-34-28-12-55-23-79-32-25-9-50-16-77-23-7-24-14-36-18-36-5 0-21 28-48 82 38 4 72 9 103 15 13 3 27 6 43 9v227H71v-34c0-7-5-11-16-11-6 0-14 2-23 6-8 5-11 13-11 23 0 12 0 28 2 47 3 13 4 45 4 94v179c0 27-2 50-6 70m50-347h75v281H72l-1-4V389m121 0h79l3 6v275h-82V389m373 522c38-4 70-12 95-23 8-3 12-7 12-14 0-6-4-10-12-12-12-6-26-10-42-11v-48h153l42 49c23-18 45-35 66-52 5-3 8-7 8-11 0-8-5-13-15-13H618v-89h147l35 31c34-24 51-41 51-49 0-6-10-14-30-23V430c9-7 17-13 25-19 4-2 7-5 7-8 0-9-4-14-12-14H621V260h133l46 53c25-19 48-38 70-55 6-4 9-8 9-12 0-8-5-13-15-13H621V81c2-1 4-1 6-1 23-4 53-6 89-6 32 0 66 2 99 6 35 4 67 10 96 18l3-20c-31-6-49-21-55-47-29-4-58-7-86-7-63 0-110 3-139 9-33 5-58 11-74 20-17 8-34 20-53 36-16 16-31 37-46 63-6 10-11 21-16 34-3-10-6-18-9-25-10-21-19-38-28-53s-19-28-30-39c-10-14-21-26-34-35-12-13-26-24-43-34l-15 20c18 14 33 29 44 44 14 13 25 28 33 43 6 12 13 25 20 40 6 15 13 31 19 50 7 19 12 37 16 55 5 21 8 37 11 50 2 14 3 27 3 38 29-8 51-15 66-23 9-3 14-8 14-14s-3-10-9-12c-9-3-18-6-27-8-7-21-12-40-17-57 9-25 19-45 28-63 11-17 24-32 39-43 13-11 26-20 41-27 3-1 6-2 8-2v298h-70c-46-2-77-4-94-7l-18 46c28-8 65-12 112-12h260l9 8v102H484c-52 0-84-2-95-6l-18 42c27-6 65-9 113-9h290v106H503c-52 0-83-2-94-7l-16 42c24-5 61-7 110-7h68v145c0 35-2 62-6 79Z"/></symbol><symbol id="蝫_T" viewBox="0 0 1000 1000" data-size="22"><path transform="matrix(1 0 0 -1 47 969)" d="M891 458c-13-10-20-17-20-21h-43c0 5-5 21-15 47v16h-32v31l78-31 16-16c5-14 11-21 16-21v-5m15 89H672c-78-89-125-133-141-133v-8h246l25 31 42-23 15-16v-23h-31V15h-15L786 0h-3c0 5-3 9-10 15-5 16-7 32-7 47H516c0-15-3-31-8-47-7-6-11-10-12-15h-43v359h-23l-24-23-93-39 234 179 62 71H344v31h187v156H406v31h125v157c8 0 32-5 71-16h23v-31h-31V765h23c7 0 21 21 43 63h4l70-67v-27H594V578h39c84 78 145 166 184 265 31-10 56-31 74-62h-47c0-16-13-42-39-78-28-21-62-63-102-125h86l47 47h16l54-55v-23M375 116c-5-2-11-9-16-23V78h-27c-1 5-5 10-12 15l-15 47-13 16c-3 0-7-3-11-8l-62-31L63 62c0-10-3-20-8-31L39 15 23 31 0 78v31h23c45 13 73 21 86 23 5 7 11 11 16 12v231H63v-47H0v422l55-32h70v219l63-15h31v-32h-31V718h78v32l62-24 16-15v-24h-31V429l31-27v-27H188V156h15c31 12 52 20 63 23 5 7 10 11 15 12v20l-23 23-24 47h24c47-31 83-83 109-156 5-3 8-6 8-9m391 134v125H516V250h250m0-157v125H516V93h250M250 406v281h-62V406h62m-125 0v281H63V406h62Z"/></symbol><symbol id="蝹_T" viewBox="0 0 1000 1000" data-size="22"><path transform="matrix(1 0 0 -1 31 946)" d="M844 828h-31V438h-63v47H484v-47h-62v453h23l32-31h281l28 31 42-24 16-15v-24M938 0H320l-23 24v8h78v375h8l47-47h383v31l62-24 16-15v-24h-32V63h8l16 15 55-50V0M359 297H188V125l62 16h31l-39 78-23 31c52-15 94-62 125-140V63h-47v47L78 55C68 37 63 24 63 16H39c-8 0-21 21-39 62v16h16l31 16h94v187H78v-62H31v468h8l31-31h71v219c3 0 21-5 54-16h24v-8l-31-31V672h70l27 31h4l24-23c10-5 20-8 31-8v-31h-31V367l23-23 23-47m391 391v140H484V688h266m0-172v141H484V516h266m47-484v296h-78V32h78m-141 0v296h-78V32h78M266 328v313h-78V328h78M516 32v296h-78V32h78M141 328v313H78V328h63Z"/></symbol><symbol id="螆_T" viewBox="0 0 1000 1000" data-size="22"><path transform="matrix(1 0 0 -1 31 961)" d="M922 672H398l-23 23v8h313l54 156c5 20 8 41 8 63 5 0 11-3 16-8l62-16 16-16v-7c-8 0-21-5-39-16-13-40-42-84-86-133v-23h54l47 47h47l55-55v-23m-344 62h-47c0 11-3 21-8 31-2 45-20 84-54 117v24h23c34-29 63-63 86-102v-70M938 44l-16-29V0h-27c-1 5-5 9-12 15-5 26-8 52-8 78-5 0-11-3-16-7-41-8-83-21-125-39h-15V15h-31v16l-32 74c52 45 94 109 125 192h-31l-31-16h-16v-31h-31v15l-16 32v46l55 110 55 187c5-6 20-10 47-15h31v-32h-31c-31-104-73-187-125-250h125l23 79c13 10 20 15 23 15 5 0 21-5 47-15h16v-32c-8 0-21-5-39-15-107-177-167-266-180-266h86l47 16h23v15l-31 63h24c36-37 62-84 78-141 5-6 8-12 8-18M656 59l-15-28V15h-28c-2 5-5 11-11 16-5 21-8 41-8 62-5 0-11-3-16-7L469 47h-16c0-11-3-22-8-32L430 0l-16 15c-27 52-41 78-44 78-2-2-8-7-18-15h-16l-16 15c-5 16-7 31-7 47-11 0-21-3-32-8-18-2-83-20-195-54H63V47H35c-1 4-5 9-12 15-13 36-20 55-23 55v8c15 0 31 2 47 7 8 5 16 8 23 8h71v235H78c0-21-3-42-8-63-6-6-10-11-11-15H16v437h7l32-31h86v203h93v-24l-31-27V703h55l29 31h5l52-23 15-16v-23h-31V429l31-27v-27H203V156l63 16h31v31l-24 47-23 23v24h23c53-59 85-106 94-141 5-19 8-40 8-63 29 16 52 42 70 79l71 140c-2 0-21-5-55-15h-23v-32h-32v16l-15 31v55l23 23c26 68 42 104 47 110 13 49 20 83 23 101v39c5 0 11-3 16-8l63-15c5-7 10-11 15-12v-4l-39-39c-65-135-104-208-117-219h55l46 16h24c0 20 3 41 8 63l12 15 58-31h16v-31c-8 0-21-5-39-16-65-120-125-209-180-266 5 0 21 5 47 16h47c5 0 20 5 47 16h15v31l-31 55v7h23l32-31c26-47 41-83 46-109 5-6 8-12 8-19M266 406v266h-63V406h63m-125 0v266H78V406h63Z"/></symbol><symbol id="蟡_T" viewBox="0 0 1000 1000" data-size="22"><path transform="matrix(1 0 0 -1 39 969)" d="m875 711-20-23h-27c-11 52-31 104-62 156h-63c-10 0-20-3-31-8-21-5-42-8-63-8v-8l47-47v-46l-19-24h-4c-11 5-21 21-31 47l-24 78H453c0-26-13-62-39-109l-70-63 39 78 15 47c5 37 8 73 8 110h8c13-19 32-32 55-39 1-5 2-8 3-8 4 0 8 3 12 8l110 15 78 16 94 31v8h28l50-24 15-15v-4c-14-10-21-16-21-20-2 2-8 7-18 16h-15l-24-23 71-71 23-47v-23m-94-516-19-23h-28c0 11-2 21-7 31-8 47-21 83-39 110v15l70-62 23-47v-24m141 172-24-23-15-110-16-78c-13-64-36-103-70-117L703 0c0 15-3 31-8 47-18 11-31 16-39 16v15h94l39 47 16 31c13 65 21 98 23 98v105H453c-8-73-31-145-70-218L281 39c-36-13-54-20-54-23h-8v7l94 94v24l-16 31v16L78 117C68 99 63 86 63 78H39c-8 0-21 21-39 63v15h16c41 13 72 21 93 24 5 6 11 10 16 11v215H63c0-10-3-20-8-31l-16-16H0v407h23l28-32h74v204h70l24-20v-4l-31-27V734h78v32l62-24 16-15v-24h-31V477l31-28v-43H188V203l62 16h31c-10 47-31 83-62 109 55-15 83-31 86-47l39-78h8l15 16 39 140v266l-15 31v16h328v31h23l39-35v-43h-31c0-26-3-52-8-78-5-11-8-21-8-31h39l28 31h4l39-35v-43h-31c0-21-3-42-8-63-5-5-8-10-8-15h39l27 31h4l55-51v-4M672 125h-47v109l-31 55v8h23l16-16 39-78v-78m-94-23-19-24h-28v203c3 0 11-5 24-15l15-47c5-8 8-16 8-24v-93m-94 93c-15-55-31-94-46-117l-52-31h-5l-22 23v16c57 29 94 94 110 195h15v-86m219 438v8H469V516h195l16 15h8v86l15 16m63-149H469c0-7-5-31-16-70v-23h297v31l16 62m-516-46v265h-62V438h62m-125 0v265H63V438h62Z"/></symbol><symbol id="蠁_T" viewBox="0 0 1000 1000" data-size="22"><path transform="matrix(1 0 0 -1 31 977)" d="M938 828c-16 0-32-3-47-8-5-21-31-52-78-93v-16l85-86 24-47v-70c-16-23-42-42-78-55h-47c0 8-5 21-16 39-10 5-20 8-31 8v31h31c2 0 11-5 25-15h9l44 23 16 16c0 7-3 15-8 23-9 33-18 57-26 71-15 26-35 39-60 39v39l24 23 39 94H734V391h-23l-39-16v547l70-47h117c0 11 3 21 8 31l16 16 55-51v-43M625 453H352l-24 20v136h-47c-10-63-42-115-95-157-45-36-102-62-170-77v31c62 8 124 52 187 133v24h-23L63 531c0-10-3-20-8-31-13-11-21-16-24-16v16L0 574c21 22 42 36 63 43l93 102h-31l-31-16H78v-31H31c0 21-3 41-8 62-5 8-7 16-7 25 57 53 94 113 109 179h8c8-13 31-32 70-55v-24c-15 0-31-2-47-7l-78-86h117c8 0 21 21 39 62v16h24l23-24c11-5 21-7 32-7v-32h-47L156 648l-78-39v-15h63l62 15h31v47h32l54-31h8v266l63-32h15c0 11 3 21 8 32 5 21 8 41 8 62h31l31-15h16v-32c-11 0-21-3-31-8l-31-39h125v32h42c9-13 16-20 20-20 0-14-3-28-8-43-5-8-8-16-8-23V625h-62c0-3 5-10 16-23 10-5 20-8 31-8v-31h-39l-164-32v-31h234v-47M875 26 852 0h-8l-39 31c-2 16-22 42-59 78-4 0-8-2-12-7l-62-16-94-16-156-15-242-24h-39V0h-32v16L94 47v47h344v94H219c0-11-3-21-8-32l-16-15h-39v234h24l27-31h231v78h93v-24l-31-27v-27h234v31l63-23 16-16v-23h-32v-63l32-55v-7H500v-79h70l78 16h40v16h-32v31c5 0 11-3 16-8l62-16c47-21 84-41 110-62l31-60M547 766v62H391v-62h156m0-78v46H391v-46h156m0-55v23H398l-23-23v-8c11 0 21-3 31-8l16-15-31-32v-7h31l109 54 16 16m172-414v94H500v-94h219M219 563v15h-16v-15h16m219-344v94H219v-94h219Z"/></symbol><symbol id="衠_T" viewBox="0 0 1000 1000" data-size="22"><path transform="matrix(1 0 0 -1 31 961)" d="M906 797H680l-24 23v8h157v8l31 31c0 5 2 8 5 8l42-24 15-15v-39m-265-94H289l-23 19v200h70l23-24v-8h-31v-47h133l44 47h5l53-23 15-16v-39H328v-62h242c8 0 21 21 39 62v16h16c0-26 3-52 8-78 5-16 8-32 8-47m297-117-20-24h-90V54l-39-39h-47l-23 24c-21 5-42 8-63 8v31h110v484H641v31h187v8l31 31c0 5 5 8 16 8h8l55-54M219 859c-8 0-21-5-39-16C110 692 55 614 16 609v16l101 203c5 26 8 52 8 78 8 0 31-6 70-16h24v-31m469-672H391v-15h31v-32h-31c0-10-3-20-8-31-52-57-94-94-125-109h-24l86 109 39 78H250v328c5-6 21-10 47-15h31v-32h-31V218h258l39 39v8h-63v32H406v-32h-62v407l62-32h133l28 32 42-24 16-16v-23h-31V265h8l15 16 71-66v-28M625 23 605 0h-3c-45 60-84 104-118 132v24c57-18 104-52 141-102V23M250 656h-31l-39-94-24-31h32v-16l-16-31V0h-63v453h-7l-79-78H0c3 21 31 62 86 125 55 99 83 166 86 203 2 0 21-6 55-16h23v-31m281-125v78H406v-78h125m0-94v63H406v-63h125m0-109v78H406v-78h125Z"/></symbol><symbol id="衣_T" viewBox="0 0 1000 1000" data-size="22"><path transform="matrix(1 0 0 -1 31 953)" d="M938 93c-11 0-21-3-32-7l-42-39c-200 93-319 233-356 421l-24 118v39h16c8-68 31-146 70-235 6-6 10-10 13-15h5c8 0 70 52 185 156l24 62c37-10 63-31 78-62-11 0-63-39-156-117l-125-55c73-136 187-219 344-250V93m-16 633-20-23H453c-37-104-94-188-172-250V0h-62v390h-24l-23-23-141-70H0v15l94 39 156 117 102 141 39 94H39l-23 23v8h453c-11 52-32 104-63 156v16h24c36-52 62-84 78-94 5-26 8-52 8-78h257l59 63h4c13-19 31-32 55-40l31-31Z"/></symbol><symbol id="裗_T" viewBox="0 0 1000 1000" data-size="22"><path transform="matrix(1 0 0 -1 39 969)" d="M922 31H727l-24 20v387l63-16h31v-31h-31V94h156V31M203 781h-47c0 11-3 21-8 32-7 47-20 83-39 109v16l71-63 23-47v-47m688 0H594l-39-78c-68-78-102-125-102-140h70l211 23c16 5 31 8 47 8v23l-62 59v27c84-47 135-104 156-172v-62h-47l-23 78-15 16c-9 0-17-3-24-8l-63-16-219-31c-23-8-41-21-54-39h-4c-2 5-5 10-12 15-5 16-8 31-8 47-5 0-10-3-15-8-31-5-63-20-94-46l-31-39c10 0 20-3 31-8l62-63v-31l-19-23h-27c0 10-3 20-8 31-37 52-63 83-78 94h-24V23L184 0h-43v453c-42-47-84-73-125-78 109 73 198 187 265 344H0v31h297v8l23 23 39-35v-43h-31c-31-81-73-146-125-195v-39h16l31-16c0 11 3 21 9 30 6 10 26 42 59 95 34-15 56-31 65-47h8v32c7 0 20 5 39 15 44 57 83 125 117 203H352l-24 24v8h250c0 5-3 10-8 15-11 40-21 65-31 78l-23 32c49-11 83-32 101-63 5-21 8-42 8-62h148l32 31c5 10 8 20 8 31 36-13 62-32 78-55v-39M641 375h-32V31h-62v391h70l24-20v-27m-141 16h-31V227c-12-45-30-89-55-133-15-27-54-52-117-78h-31l101 93c11 16 21 42 31 79l24 187v63c2 0 21-5 55-16h23v-31Z"/></symbol><symbol id="裞_T" viewBox="0 0 1000 1000" data-size="22"><path transform="matrix(1 0 0 -1 39 969)" d="m922 70-39-39H648l-23 24v398h-78v-78c-18-104-52-187-102-250-55-57-114-94-179-109v31c59 21 103 52 132 94 53 93 79 145 79 156 13 83 20 125 23 125v31h-47v-62c-10 0-20-3-31-8-3-5-7-8-10-8-11 13-18 20-21 20v371h23l27-32h59v32c-26 57-52 104-78 140v16l117-109c16-47 24-74 24-79h70l15 16 47 94 16 62c13 11 20 16 23 16 5 0 21-5 47-16h16v-15h-31l-24-63-70-94h78v32l63-24 15-15v-24h-31V508l31-27v-28H688V94h132l16 15 23 47v78h16v-78l23-47 24-23V70M188 805l-20-24h-8c-1 5-5 11-12 16l-31 94-23 47h23c39-31 63-63 71-94v-39m187-274c-11 0-21-3-31-8-52-36-83-62-94-78l78-74v-35l-19-23h-4c-23 41-62 83-117 125V0h-63v438l-78-55-47-24c130 109 219 229 266 360H0v31h281v31h24l39-35v-43h-31l-71-140-54-55v-39h15c15-5 22-11 22-16h4c39 52 59 83 60 94 5 15 8 31 8 47l62-24 16-15v-24m359-47v219H453V484h281Z"/></symbol><symbol id="裺_T" viewBox="0 0 1000 1000" data-size="22"><path transform="matrix(1 0 0 -1 31 977)" d="M922 31H617l-23 20v621c3-5 21-11 54-16h40v-23l-32-27V94h266V31M188 820l-24-23h-16l-15 16-16 46-39 79h24l86-82v-36m750-195c-24 0-42-10-55-31-5-16-8-32-8-47h-31V172h-16l-26-16h-3c0 5-3 11-10 16-5 21-8 41-8 62h-93v32h93v109h-93v31h93v141h-93v31h93v8l32 31c-47 34-94 94-141 180h-78L438 648c-27-10-42-20-47-31v-23c5 0 20-5 47-16h23l49 47 53-23c10-13 15-21 15-24l-101-31h-24V406h24c13 11 20 21 23 32v15h23l55-51v-27H453V266h24c13 10 20 20 23 31v16h23l55-51v-28H453v-62c-10 0-20-3-31-8-3-5-7-8-10-8-11 13-18 20-21 20v418h-8l-16 15-39-39v-7c11 0 21-3 31-8 11-13 16-21 16-24-15 0-31-3-47-8l-78-78 55-54 23-47v-24l-19-23h-4c-16 0-42 42-78 125l-39 31V23L168 0h-43v469l-78-71-47-23v31c120 78 198 187 234 328H16v32h234v7l23 24 24-24c10-5 20-7 31-7v-24l-39-39c-29-70-62-125-101-164v-55h15c15-5 22-10 22-15h4l29 31 39 94c2 0 10-5 23-16h8c0 11 3 21 8 31 120 105 180 167 180 188H375v31h172l47 110v15c3 0 21-5 54-15h24v-32h-31c0-10-3-20-8-31l-24-23v-24h196l58 63h4l71-67v-27H719c10-34 31-63 62-86 78-42 125-63 141-63l16-15v-8m-94-31v15h-16v-15h16Z"/></symbol><symbol id="誠_T" viewBox="0 0 1000 1000" data-size="22"><path transform="matrix(1 0 0 -1 31 969)" d="M938 16h-47c-68 26-115 83-141 172h-23l-86-86c-11-13-63-42-157-86h-31v15c141 66 229 136 266 210 0 9-3 17-8 25-11 36-21 82-31 140-13 151-21 230-24 235v62H438V531h70l47 47h15l55-55v-23h-78V141h-47v359h-62c0-15-3-31-8-47-5-8-8-16-8-23V285c-8-25-21-78-39-160L328 16V0h-31c0 5 3 11 8 16l31 93 16 79c9 46 15 90 19 131l4 44v418h8l47-47h226v188h63c3-1 13-7 28-16h13c1 2 5 7 10 16h3c0-3 13-11 40-24l46-46v-39h-46l-24 62c-11 10-17 15-18 16-2 0-14-5-37-16h-15V734h101l47 47h16l55-54v-24H719V551c13-82 20-141 23-176 5-21 8-42 8-62h16l54 156 24 109h31l47-23c11-13 16-21 16-24-8 0-21-5-40-15-26-83-62-167-109-250-5-4-8-9-8-13l39-97 47-47c11 5 21 21 31 47l24 78h16c0-26-3-52-8-78-5-13-8-25-8-39V63l16-32V16M344 742l-24-23H31L0 742v8h141c0 13-3 28-8 47-11 63-23 110-39 141h31c0-12 3-23 8-32 22-38 40-61 55-70v-86h23l59 63h3l71-67v-4m-63-164H31v31h125v8l47 47c0 5 3 8 8 8l70-66v-28m0-140H31v31h125v8l47 46c0 5 3 8 8 8l70-66v-27m16-375H94c0-11-3-21-8-32L70 16H31v343h24l27-31h137v31l62-23 16-16v-23h-31V117l31-27V63m-94 31v203H94V94h109Z"/></symbol><symbol id="諭_T" viewBox="0 0 1000 1000" data-size="22"><path transform="matrix(1 0 0 -1 23 961)" d="M953 656c0-3-5-11-15-24-11-5-21-7-32-7v-32c-47 13-83 32-109 55-78 71-135 136-172 195 0-19-13-45-39-78-50-62-110-112-180-148-36-14-54-22-54-24h-8l195 188c37 78 55 125 55 141h8c23-13 41-21 54-24 5-7 11-11 16-12v-19c-1-3-7-7-16-14v-5c89-119 188-183 297-192m-187-47H484v31h172l32 47v16c36-14 62-32 78-55v-39m156-94c-8 0-21-5-39-15-34-99-63-167-86-203v-24c10-6 28-30 55-70 24-38 42-87 54-147 0-4-5-17-15-41V0h-47c0 10-3 20-8 31 0 62-23 147-70 254 0 8 2 18 7 27 3 0 21 68 55 203v32h70l24-24v-8m-109 0c-8 0-21-5-40-15l-85-211 70-133 15-47c5-8 8-16 8-23V47l-15-32V0h-47v15l-16 32v101c0 8-3 16-8 24l-39 105v12c0 7 3 15 8 23l31 94c13 67 21 103 24 109v32h70l24-24v-8M359 742l-19-24H0v32h156l-23 125-24 47h24c18-34 41-63 70-86v-86h24l58 62h4l70-66v-4m-62-195H70l-23 23v8h141l31 47v15c36-13 62-31 78-54v-39m359-55-23-24h-8V39L590 0h-59v31h-23c-34 11-52 16-55 16v15h110v156H445C412 104 362 31 297 0v23l16 16v8H109c0-11-2-22-7-32L86 0H47v328l55-31h148v31l63-24 15-15v-24h-31V101l19-23h28v15c14 35 22 56 23 63 14 78 22 117 24 117v274h23l27-32h137v32h24l23-24c11-6 21-8 31-8v-23M297 390H47v32h125v7l47 47c0 5 3 8 8 8l70-66v-28m266-15v109H453V375h110m0-125v93H453c0-21-3-41-8-62-5-11-7-21-7-31h125M234 78v187H109V78h125Z"/></symbol><symbol id="變_T" viewBox="0 0 1000 1000" data-size="22"><path transform="matrix(1 0 0 -1 31 961)" d="m938 567-24-20h-23c0 4-5 20-16 46v16c-11 0-21-3-31-8-49-13-83-20-102-23h-39c0-11-3-21-8-31l-15-16-16 16-23 46v24c5 10 20 20 47 31l62 70c-5 0-21-5-47-15h-15v-31h-32v23l-15 47c57 38 94 93 109 164h31l32-16h15v-31c-10 0-20-3-31-8l-94-101h94c0 21 10 41 31 62v16l47-31h16v-32L766 664l-63-24v-15h63l62 15h31c0 5-5 21-15 47v16c41-20 73-64 94-131v-5m-16-119-24-26h-15l-16 15-15 78-24 47c26-10 41-20 47-31l47-83M641 765H313v32h125v78l-16 31v16l55-47c15-48 23-74 23-78h23l32 31h8l62-24 16-15v-24m172-375h-47v78l-32 63v16c26-13 52-42 79-86v-71M609 672H344v31h156v8l16 15c0 5 5 8 15 8l63-23 15-16v-23m0-79H359v32h141v7l16 16c0 5 5 8 15 8l63-24 15-15v-24m-281-31h-47c0 10-3 21-8 31l-15 16c-14 0-26-3-39-8-68-13-105-20-110-23H78v-31H31v31l-15 44c47 23 83 55 109 96H78v-31H51c-2 5-5 10-12 16-13 36-20 54-23 54v8c18 0 41 15 70 47l39 94h31l32-16h15v-31c-10 0-20-3-31-8l-78-86h70l31 32c5 10 8 20 8 31l63-24 15-15c-21-5-62-42-125-110l-78-39v-15c16 0 32 2 47 7 8 5 16 8 23 8h102v24l-31 27v27l86-78 23-47v-31M906 47h-31c0-11-3-22-8-32-13-10-20-15-23-15L609 39 487 78l-49-24c-29-13-65-23-110-31L191 0H78v31c52 0 104 3 156 8l79 15 117 39h23v16c-15 0-41 13-78 39L258 265c-49-52-114-94-195-125H31v16c103 51 163 92 180 125l55 109c3 0 21-5 54-15h24v-32h-31v-31h359v16l16 26-32 25v89l-15 32v15h-47v-54l31-28v-27H414c-18-14-31-22-39-24-3-5-7-7-10-7-10 13-17 19-21 19v184l54-31h149v31c47-14 83-32 109-55l47-86v-94l31-15h16v-47c-11 0-21-3-31-8L563 109l140-23c68-6 136-8 203-8V47M297 422h-27c-1 4-5 9-12 15-8 47-21 83-39 110v15h8l70-70v-70m-94-32h-47c0 52-16 104-47 157h24l31-32 39-78v-47M94 343H70l-23 20v74L0 523v8h23c26-42 42-63 47-63l24-46v-79m437 94v78H406v-78h125m125-156H297v-24c57-62 125-104 203-125 4-5 8-7 12-7 71 52 119 104 144 156Z"/></symbol><symbol id="豕_T" viewBox="0 0 1000 1000" data-size="22"><path transform="matrix(1 0 0 -1 54 953)" d="M891 172c-11 0-21-3-32-8l-42-39c-156 68-256 157-301 266h-16V164L461 63l-39-40-47-15c-4-5-8-8-12-8l-35 55c-47 15-73 23-78 23v8c12 13 18 20 18 23 2 0 9-5 21-15h94l31 31c13 39 21 59 24 59v191c-21-3-63-31-125-86-117-65-209-104-274-117H0v16c125 25 271 115 438 269 0 4-3 8-8 12-13 52-21 78-24 78v16c-52-29-83-52-93-71-117-65-209-104-274-117H0c109 39 229 115 359 229 0 1-5 14-15 37v15c-16 0-32-3-47-8l-78-15C94 619 31 611 31 609H0v32h55c45 7 94 14 148 23 124 31 207 62 250 94 31 13 63 41 94 86H109v31h469v8l16 15c0 5 3 8 8 8l54-50v-28L469 711l-110-39c73-78 115-146 125-203h24c0 8 34 31 101 70l141 149h8l39-40v-23h-47c-42-78-125-135-250-172 32-55 74-105 125-148 77-65 166-104 266-117v-16Z"/></symbol><symbol id="㒻_T" viewBox="0 0 1000 1000" data-size="22"><path transform="matrix(1 0 0 -1 47 961)" d="m906 37-23-22H570l-23 24v195H375c0-21-3-42-8-62C318 87 253 38 172 23 107 12 74 4 74 0H0v15c125 23 209 52 250 86 26 8 52 52 78 133H203c0-15-3-31-8-47-6-6-10-11-11-15h-43v437h31v8l-16 15v290h8l31-32h524v32h39l15-16c5-2 8-3 8-3 0-15-3-29-8-44-5-8-7-16-7-23V625h-32v-16h16l31-18c0-15-3-29-8-44-5-8-7-16-7-24V187c-5 0-21-5-47-15h-16v62h-94V78h211l16 15 16 32c5 21 7 41 7 62h32c0-37 2-73 7-109 5-14 8-28 8-41M703 781v78H219v-78h484m0-94v63H219v-63h484m16-109v31l-16 31v16H219v-31c-11 0-21-3-31-8l-16-16 19-23h528m-16-110v79H203v-79h500m0-109v78H203v-78h500m0-94v63H203v-63h500Z"/></symbol><symbol id="䕫_H" viewBox="0 0 1000 1000" data-size="21"><path transform="matrix(1 0 0 -1 44 957)" d="m321 716 56-26h17c8 11 14 24 18 38 3 12 5 29 8 50 55-13 83-24 83-33s-15-15-46-16c-10-15-22-28-36-39h99l30 28c30-21 46-36 46-45 0-6-9-13-27-22V480c0-14 1-23 1-27 1-4 1-8 1-14 0-13-10-21-32-25-8 0-13 3-13 10v13H366v-6c0-7-3-12-11-15-9-3-17-5-23-5-7 0-11 4-11 12 0 2 1 6 1 14 1 13 1 26 1 39v179c0 30 0 50-2 61m45-253h160v47H366v-47m0 74h160v47H366v-47m0 75h160v50H366v-50M149 723c28-6 50-11 67-16 7-2 11-5 11-9 0-3-3-6-8-8-6-3-13-7-21-10v-76h17l30 29c17-12 32-24 46-35 4-3 6-6 6-8 0-9-3-13-10-13h-89V464c37 8 72 15 103 22v-18c-35-14-70-27-106-38-39-12-79-23-121-33-9-21-16-32-21-32-2 0-4 2-7 6-13 24-26 50-38 78 19 0 37 1 54 1v131c0 32-3 56-7 72 27-5 49-10 67-16 7-2 10-5 10-10 0-3-2-6-7-7-5-4-12-7-21-10V453c17 1 34 3 51 5v194c0 32-2 56-6 71m619-33 28 28c33-24 50-41 50-49 0-6-10-14-29-23v-66c6-3 10-6 14-10 3-2 5-4 5-7 0-9-3-14-8-14H662v-46c0-7 2-13 6-19 5-5 13-10 24-13 13-6 32-8 57-8h12c17 0 34 2 51 6 11 2 19 7 22 14 8 13 17 41 28 84l17-5c-2-26-3-43-3-53 0-11 6-21 17-30 9-8 14-15 14-22 0-4-2-8-6-12-5-4-13-9-25-13s-28-6-49-7c-22-2-44-3-66-3h-12c-16 0-32 2-48 5-13 1-25 4-37 9-10 3-19 8-26 14-7 5-11 11-13 20-3 9-5 19-5 29v168c0 16-1 32-2 46l52-23h98M662 577h103l6 3v79l-1 3H662v-85M289 369c-24-21-49-39-75-53-26-17-51-30-76-40-31-15-61-26-91-33l-11 20c46 18 83 36 113 55 32 17 56 34 74 50 17 17 33 35 47 54 22-13 43-26 60-37 2-2 3-5 3-10s-5-8-16-8c-8 0-18 1-28 2m325 38c37-8 74-19 112-33 37-14 64-26 81-36 19-10 32-18 39-25 8-9 14-17 18-24 3-4 4-10 4-17 0-15-7-22-20-22-4 0-9 2-16 6-6 4-13 10-21 18-16 12-30 22-43 31-17 10-37 21-61 32-25 14-60 31-104 50l11 20m-233-11c64-14 97-26 97-36s-19-16-55-18c-11-13-23-26-36-39h185l38 31c19-8 35-21 48-38 4-5 6-10 6-15 0-6-5-12-15-17-12-2-22-4-30-6-32-39-68-72-107-99 17-7 36-14 54-22 49-17 105-30 166-41 54-9 111-14 171-14V60c-28-4-48-19-59-45-73 13-133 26-182 40-50 15-97 34-141 55-17 8-32 15-45 23-4-1-6-2-6-3-56-34-118-61-186-82C211 26 120 10 14 0L0 25c112 12 198 28 257 49 60 20 116 46 166 76 4 3 9 6 14 8-12 7-21 13-30 20-29 19-58 42-86 71-1-1-2-1-3-2-35-27-75-50-117-71-46-21-92-39-138-55l-12 22c50 20 89 37 118 52 27 14 57 34 89 60 27 20 53 43 77 69 17 20 32 44 46 72m-41-132c28-24 60-46 95-65 10-6 20-13 31-19 34 26 67 59 98 96H356c-5-4-11-8-16-12M4 838c29-7 67-11 115-11h119l-10 87c29-3 55-7 77-11 8-2 11-5 11-8 0-4-4-9-12-13-9-5-18-9-25-11l6-44h51l40 43c23-16 44-32 63-47 5-2 7-6 7-10 0-9-5-14-14-14H288l7-48c0-6-3-10-9-13-8-4-16-7-24-7-7 0-12 4-13 10l-7 58H119c-47-1-78-4-95-7L4 838m474 0c28-7 66-11 113-11h24c7 33 12 62 15 87 30-3 57-9 82-19 4-2 6-5 6-10s-5-10-15-13c-10-2-21-4-31-5-2-15-5-28-9-40h126l44 49c25-17 48-34 70-52 6-3 8-7 8-11 0-9-5-14-15-14H657c-4-14-9-31-14-50-4-12-13-18-29-18-15 0-22 4-22 12l2 9c2 5 6 13 10 24 1 8 3 16 5 23h-18c-46-1-77-4-95-7l-18 46Z"/></symbol><symbol id="䗗_T" viewBox="0 0 1000 1000" data-size="22"><path transform="matrix(1 0 0 -1 31 969)" d="M859 625h-46l-24 78-23 24v23c31-8 62-31 93-70v-55m32-312h-94V0h-63v313h-93v31h93v172h-78v31h110v8l47 47c0 5 2 7 7 7l71-66v-27h-94V359h8l31 32 55-51v-27m47 453H703c-13-47-31-84-55-110l-39-31v16l47 93v32H438c-16-71-53-125-110-164V430l31-28v-27H203V188c8 0 31 5 70 15h24c-11 31-32 63-63 94h39c34-29 63-63 86-102v-70h-46v16l-20 31c-4 0-8-3-12-8L78 86C68 68 63 55 63 47H31L0 125v16h39c60 10 94 15 102 15v219H78c0-15-3-31-8-47-6-5-10-10-11-15H16v421h23l27-31h75v235l62-16h31v-31h-31V703h55l29 31h16l72-46v15l23 47c13 52 21 78 24 78v110h94v-24l-24-23-23-94h54l59 62h4l62-62c5-11 8-21 8-31h16v39l16 78v55h78l-47-125v-16h101l47 47h16l55-55v-23M625 313H516v-32l-24-93c-16-65-58-122-125-172h-23l39 47c26 47 42 83 47 109 14 68 21 104 23 109v32h-94v31h94v172h-62v31h109v8l47 47v4c-13 9-21 15-24 19-7 47-20 83-39 109v16l71-62 15-32c5-3 8-5 8-7v-4c-10-7-15-12-15-12v-31l62-59v-27h-94v-16l-15-31V344h7l47 47 55-51v-27M359 672h-31v-47h16v16l15 31m-93-266v266h-63V406h63m-125 0v266H78V406h63Z"/></symbol><symbol id="䗹_T" viewBox="0 0 1000 1000" data-size="22"><path transform="matrix(1 0 0 -1 31 961)" d="M938 782H813c0-2-5-21-16-55v-24h-31c0-2 5-10 15-23 11-5 21-8 32-8v-31c-16 0-32-2-47-8 0-18-31-51-94-101h133c7 0 20 21 39 62v16h8c23-13 41-21 54-24 5-6 11-10 16-11v-4c-26-5-73-52-141-141l-78-39v-16h156v8l-31 31v24c40-16 63-32 70-47l24-47v-47h-47v47l-141-31h-31v-31h-31v15l-31 78c10 0 20 3 31 8l94 102h-55c-13-10-21-21-23-32v-15h-32v15l-15 32v54l23 24c21 47 42 83 63 109 13 55 20 84 23 86v24h-94v31h110c0 8 5 32 15 70v24h55l23-20v-4l-31-27v-43h47c0 10 3 20 8 31l15 16 40-35v-43M859 24 836 0H508l-24 24v273h47l32-15h15c0 5-3 10-8 15-5 16-7 32-7 47-5 0-11-2-16-8l-125-39h-16v-31h-31v16l-31 78c10 0 20 3 31 7l109 118h-70l-27-32h-28v24c-10 36-15 55-15 58l39 43 70 118c0 2-3 5-8 7-13 24-21 43-23 55v24h-94v31h94v15l-16 32v62c3-5 21-10 55-15h39v-32h-31v-62h62c0 10 3 20 8 31l16 16 54-51v-27H484c0-21-2-42-7-63-5-4-8-9-8-13 5-5 21-14 47-26l15-16v-23c-16 0-31-2-47-8l-93-101h140c0 2 5 20 16 54v24l62-32h16v-31h-47c0-15-13-41-39-78-75-57-115-93-117-109h78l31 15h16c0 6-5 21-16 47v16c47-31 73-63 78-94v-39l-62-59V63h215c6 10 15 20 27 31l16 63c13 10 21 15 23 15V78h8l23-23V24m79 92-24-22h-39c0 5-8 42-23 109l-39 63h23c49-34 83-83 102-146v-4m-204 33-19-24h-4c-21 21-42 63-63 125l-23 24v23h8l101-101v-47m-296 11c-13-45-21-77-24-97-3-10-10-21-23-31l-16-8c-3-5-7-8-10-8h-3c0 6-3 11-10 16-5 16-8 31-8 46h-16c-13 6-20 11-23 16-5 16-8 31-8 47L141 71 63 47V16H35c-1 6-5 11-12 16C10 74 3 94 0 94v16h109v7l16 16v227H78v-63c-10 0-20-2-31-8-3-4-7-7-10-7-11 13-18 19-21 19v418l54-31h55v219c8 0 31-5 70-16h24v-31h-31V688h58l25 31 42-23 15-16v-23h-31V422l31-55v-7H188V141l78 31h15c-10 32-31 63-62 94h23l94-94 16-47c5-3 7-6 7-9-1-1-6-4-15-10V78h8l31 32 15 47c5 31 8 62 8 93h16c0-15 3-31 8-47 5-7 8-15 8-23v-20m62 325v15h-16v-15h16m-266-94v266h-46V391h46m-109 0v266H78V391h47Z"/></symbol><symbol id="䘵_T" viewBox="0 0 1000 1000" data-size="22"><path transform="matrix(1 0 0 -1 31 977)" d="M859 493 734 368l-46-24v24l54 54 63 94h54v-23M188 797h-24l-16 16c-39 94-62 141-70 141h24l86-82v-75m718-664-19-23h-4L781 211c-26 11-42 21-47 32-41 13-62 21-62 23h-16v16h39c39-8 94-32 164-71l47-47v-31m32 617H813v-86l31-27v-27H414l-23 23v8h359v94H367l-14 15h-8l-1-7c-11-5-21-8-31-8l-71-156c-8 0-21-21-39-63v-31h39l31 31 40 94c36-11 62-32 78-63-16 0-31-3-47-8-37-36-63-54-78-54v-31c18 0 41-16 70-47l23-52-23-26h-8c-8 0-31 31-70 93l-55 47V16c-10 0-20-2-31-8-3-5-7-8-10-8-11 13-18 20-21 20v434l-78-71-63-39v24c109 70 198 197 266 382H0v32h281v31h24l43-47h402v109H406v32h344v7l16 16c0 5 3 8 9 8l53-24 16-15v-24h-31v-93h7l47 47 71-71v-8M516 386l-24-26h-8c-7 0-31 31-70 94-34 18-53 31-55 39v23c63-29 104-52 125-70l32-60m140 153-23-23h-8V67c-5-1-11-5-16-12-39-13-58-20-58-23h-12c-22 31-61 47-117 47l23 31h32c35-11 55-16 60-16 2 2 8 7 18 16h8v469c2-5 20-10 54-16h39v-24M516 274c0-5-52-42-157-110-10-23-15-41-15-54h-24l-54 51v27c62 15 145 52 250 109v-23Z"/></symbol><symbol id="䚾_T" viewBox="0 0 1000 1000" data-size="22"><path transform="matrix(1 0 0 -1 39 969)" d="M922 469H672V78h117l59 63h4l54-51V47H406v31h203v391H391v31h218v328H406v31h360v8l47 47c0 5 2 8 7 8l55-51v-43H672V500h117l59 63h4l70-67v-27M375 719H0v31h172c0 11-3 21-8 31-8 39-21 84-39 133v24c3 0 31-37 86-110 5-26 8-52 8-78h23l59 63h4l70-67v-27m-31-117-20-24H31v31h188v8l47 47c0 5 2 8 7 8l71-66v-4m0-141-20-23H31v31h188v8l47 46c0 5 2 8 7 8l71-66v-4m15-398H94V16c-11 0-21-3-31-8-3-5-7-8-10-8-11 13-18 20-22 20v339h24l31-31h172l34 31 52-23 15-16v-23h-31V117l31-27V63m-93 31v203H94V94h172Z"/></symbol><symbol id="䛇_T" viewBox="0 0 1000 1000" data-size="22"><path transform="matrix(1 0 0 -1 39 961)" d="M922 484c-8 0-31-5-70-16h-86c-5 0-21 5-47 16l-31 47v375h46l32-16h15v-8l-31-31V554l16-15v-8h156v-47M375 757l-23-23H31L0 757v8h156v55c0 8-3 16-8 23-13 42-20 63-23 63v16c47-37 70-63 70-79 5-26 8-52 8-78h24l58 63h4c13-19 32-32 55-39l31-32m188 118h-32c0-52-3-104-8-157l-15-78-16-47c-8-24-42-63-101-117l-94-39H63l-32 24v7h188l31 47v16c34-11 63-32 86-63l78 79 31 62 16 63c13 90 20 136 23 136v90l-15 16v8l62-16h32v-31M844 62H484c0-15-2-31-7-47-7-6-11-10-12-15h-43v406l55-31h289v31l62-24 16-15v-24h-31V117l31-28V62M328 578H55l-24 23v8h172v8l47 47c0 5 3 8 8 8l70-67v-27m0-516H94c0-15-3-31-8-47C79 9 76 5 74 0H31v359h24l27-31h168v31l63-23 15-16v-23h-31V117l31-28V62m422 31v250H484V93h266m-516 0v204H94V93h140Z"/></symbol><symbol id="𦾱_T" viewBox="0 0 1000 1000" data-size="22"><path transform="matrix(1 0 0 -1 39 977)" d="m922 852-20-23H688c0-21-3-42-8-63-5-11-8-21-8-31h-47c0-3 5-11 16-24 10-5 20-7 31-7v-32h-24l-101-31v-16c5 0 31-8 78-23l31-31v-16l-23-23h-16L516 633v4l101 98 16 78c5 6 8 11 8 16H492l-23 23v8h172c0 8 5 31 15 70v24c3 0 21-5 55-16h23v-31h-31v-47h86l59 62h4l70-66v-4m0-648H656c89-76 167-115 235-118 5-6 10-10 15-11v-4l-23-24c-5-10-8-20-8-31-5 0-11 3-16 8-93 37-145 63-156 78-41 44-62 73-62 86h-16V16h-62v141l-47-39c-71-39-125-63-164-71h-39v16c73 6 145 53 218 141H297v31h266v297l62-16h31v-31h-31V235h180l23 23v8h-47v47H672v31h109v47h-93v31h93v63h-93v31h93c0 3 5 10 16 23v8c-11 0-21 3-31 8-16 37-42 63-78 78v4l93 90c0 5 5 8 16 8l62-55v-8h-31l-109-31v-16c5 0 31-8 78-23 31-48 52-73 62-74 0-15-2-29-7-43-5-8-8-16-8-24V282c10 0 20-3 31-8l47-47v-23M547 516h-31l-125-31v-47h39l29 31h5l52-23 15-16v-23H391v-78h39l29 31h5l52-24 15-15v-24H398c-7 0-15-3-23-8-15-4-31-7-47-7v265l39-31h47l24 23c-31 53-63 84-94 94v16l70 70c5 11 8 21 8 31 37-10 63-31 78-62h-23l-86-31v-32c15 0 31-2 47-7l23-24c5-10 8-20 8-31h8l15 16 55-55v-8m-94 336-19-23H266v-32l15-31v-16c-5 0-21-5-47-15h-15v-31h-31V579l54 46h16l39-39v-39H188V391l101 31h24v-15c-5 0-42-21-110-63h-15V55c-14-23-42-42-84-55h-4c-5 8-18 21-37 39-16 5-32 8-47 8v32h109v234c-5 0-21-5-47-16H63v-31H31v16L0 360h109v8l16 15v164H16v32h109v171h47l31-15h16v70l-16 16v8H16v31h187c0 7-5 31-15 70v24h93v-24l-31-27v-20l23-23h47l63 62 70-66v-4m391-586v16h-16v-16h16Z"/></symbol><symbol id="𧃒_T" viewBox="0 0 1000 1000" data-size="22"><path transform="matrix(1 0 0 -1 47 969)" d="M422 828H250v-8l16-15v-47l-20-24h-27v16l-31 78H0v31h188v8l-16 16v31l19 24h59v-32l-16-31v-16h55l59 63h4l70-66v-28m484-250H797v-94h-16l-26-15-25 31H609v-62h149l31 31h16l39-41v-11c-11-15-16-24-16-26l31-55v-8H734v-15h32v-32h-47v-31h101c13 11 21 21 24 31v16h8l39-39v-39H703l-23-63-24-31 141-39c21-6 42-22 62-47V23L838 0h-5l-83 39-141 39h-15c-14-17-66-36-156-55-42-7-86-14-133-23h-39c0 3 5 10 15 23l94 16 117 39h24v16h-16l-31 15h-94v39l63 63v8h-86l-24 23v8h141v16l31 62h-86c-18-13-31-20-39-23-3-5-7-8-10-8-10 13-17 19-21 19v153h23l28-31h152v62h-94c-10 0-20-3-31-8-21-5-42-8-63-8v94h-62c0-3 5-10 16-23v-8c-13 0-32-5-55-16-29-58-83-125-164-203h86l47 16h23v23l-31 28v27l47-24c33-29 51-52 54-70 5-3 8-6 8-8-5-3-10-10-15-23v-16h-47v32c-11 0-21-3-32-8L94 266H78v-32H47v16l-31 78c15 0 31 3 47 8 47 60 70 94 70 102l23 23v23c-3 0-21-5-54-15H78v-31H47v15l-31 63h31l70 140 24 94h7c24-13 42-21 55-23 5-7 11-11 16-12v-27h-31c0-11-3-21-8-32-50-58-84-104-102-140h16l31 15h78c0 5 5 21 16 47v16h31l31-16h16v31h62v125h24l27-31h137v63c11 0 21 2 31 7l16 16v39H469v31h140c0 2 5 21 16 55v24c3 0 21-5 55-16h23v-31h-31v-32h101l59 63h4l70-66v-4l-19-24H656v-15l-15-32c-5-14-11-21-16-21v-5c1-1 7-4 16-9v-4l-32-31v-8h137l25 31 42-23 15-16v-23h-31v-63h47c0 11 3 21 8 32l15 15c8 0 21-21 39-62v-16M313 141h-47l-39 93-24 24v23l47-23 63-63v-54m-79-39-23-24h-16l-15 16-32 94-39 46h39c34-29 63-62 86-101v-31M125 31H78L55 141c-8 23-21 41-39 54v24l86-78 23-47V31m609 578v63H609v-63h125m0-78v47H609v-47h125m-187 78v63H422v-63h125m219-250v47H609v-47h157M547 531v47H422v-47h125m125-234v31H563v-8l15-15v-24h-47v-31h125v16l16 31m-125 62v47H406v-47h141m94-168v28H508l-31-31-39-63h132l71 66Z"/></symbol><symbol id="𧙧_T" viewBox="0 0 1000 1000" data-size="22"><path transform="matrix(1 0 0 -1 39 969)" d="M922 453H766V16h-63v437H547c-13-187-73-333-180-437h-23c23 31 52 83 86 156l31 94c13 65 20 97 23 97v90H359v31h141v344h-94v31h375v8l32 47c0 5 2 8 7 8l71-66v-28H766V484h23l59 63h4l70-66v-28M203 781h-47c0 5-8 42-23 110l-24 23v24l71-63 23-47v-47m188-234c-12 0-23-3-32-8-35-20-61-41-78-62v-16l78-74v-59h-39l-62 110-55 46V23L184 0h-43v438h-8c-37-42-73-73-110-94H0c117 119 177 187 180 203l70 141v31H16v31h250v8l15 15c0 5 5 8 16 8h8l39-39v-15l-39-39c-55-99-83-149-86-149v-39h15c15-5 22-11 22-16h5c36 42 58 84 67 125l47-23 16-16v-23m312-63v344H563V648l-16-109v-55h156Z"/></symbol><symbol id="𧢮_T" viewBox="0 0 1000 1000" data-size="22"><path transform="matrix(1 0 0 -1 47 961)" d="M531 859H281v31h133c18 13 31 21 39 24 0 5 5 8 16 8l47-24 15-16v-23m-93-180c-5-3-11-11-16-23v-16h-24l-23 20v90c-5 0-11 2-16 7v8h24l15-15 32-63c5-3 8-6 8-8M266 859H31v31h125v8l16 16c0 5 5 8 16 8l62-24 16-16v-23M906 39l-23-24H758l-24 24v304h-31v-31c-13-57-20-94-23-109-11-37-21-63-32-78-53-57-94-94-122-110-6 0-28 5-65 16H352l-24 23v289H188v-7l15-16-31-27v-59h39l43 47h4l55-51v-27H172V93l101 32h24V93l-63-23-15-16-47-15c-11-19-16-32-16-39h-27c-1 5-5 9-12 15l-15 47c-5 2-8 4-8 6v13c10 17 15 27 15 28v234H78v-23c-13-70-20-125-23-164-8-42-21-84-39-125V15H0v71l16 140v321c0 15 3 46 7 93 5 47 8 110 8 188 5 0 21-6 47-16h102l29 31 25-15h16v-16l-16-31V679l39-39c5-16 8-31 8-47h149l23 20v168H344V640h-16l-31-15v203c2 0 10-6 23-16h125l29 31 26-15h16c0-16-3-32-8-47-5-8-8-16-8-24V632l47-42v-28H375v-78h94v31h43c9-14 15-20 19-20 0-15-3-29-8-42-5-8-7-16-7-24V312h-63v31h-47c0-3 5-10 16-23v-8h-31v-62h70l43 47h4l39-36v-43H391V78h109v62h16c0-21 2-42 7-62 7-6 11-11 12-16h4c53 36 84 83 94 141 13 78 21 117 23 117v23l-62-31h-16v610h8l47-47h195v31h39l39-35v-4l-23-24h-8V336l-20-24h-42v31h-32V62h94c0 8 5 31 16 70v24h15c0-16-3-32-8-47-5-10-7-19-7-28 0-2 5-13 15-31V39m-93 664v140H641V703h172m0-156v125H641V547h172m0-172v140H641V375h172M234 593v47h-7l-16-15h-23v156h-63l47-86v-31l-24-24h-15l-24 26v10l16 21c0 7-3 14-8 21-5 21-8 42-8 63H78V625H47v-8l23-24h164m219-218v78h-78v-78h78M313 484v78h-94v-78h94m0-109v78h-94v-78h94M156 484v78H78v-78h78m0-109v78H78v-78h78Z"/></symbol><symbol id="𧥦_T" viewBox="0 0 1000 1000" data-size="22"><path transform="matrix(1 0 0 -1 39 961)" d="M828 828H438v31h250v8l46 47c0 5 2 8 5 8 26-8 56-31 89-70v-24M344 719H0v31h156l-23 109-24 63 71-63c13-5 21-41 23-109h43l41 47 41-24 16-15v-39m578-86-20-24H563l-47-140v-16h265v31h24l39-37v-6l-24-82-15-125c-5-37-15-83-32-140-18-42-31-63-39-63L641 0v47c-2 0-21 5-55 16h-23v31c5 0 20-5 46-16h79c2 0 10 5 23 16l16 31 15 78 24 164v55H453c0 11 3 21 8 31 8 40 21 84 39 133v23H359v32h422v7l47 47c0 5 3 8 8 8 13-18 31-31 55-39l31-31m-609-31-24-24H63l-32 24v7h172v8l31 31c0 5 5 8 16 8h8l55-54m0-157-24-23H63l-32 23v8h172v8l31 31c0 5 5 8 16 8h8l55-55m15-382H94V16H31v328h8l31-31h180v31l63-24 15-15v-16l-31-27V117l31-27V63m-94 31v187H94V94h140Z"/></symbol><symbol id="𧲨_T" viewBox="0 0 1000 1000" data-size="22"><path transform="matrix(1 0 0 -1 54 969)" d="M891 484h-94V16h-63v468h-78v32h78v312h-78v31h157l15 32v15h31c0-10 3-20 8-31l24-23v-24h-94V516c2 0 10 5 23 15 5 11 8 21 8 32h31c0-11 3-21 8-32l24-23v-24M641 828H531V500h32c0 11 2 21 7 31l16 16 39-35v-43H516V344c-13-47-32-105-55-172-42-73-84-125-125-156h-23c13 36 31 62 54 78l63 125 15 62 24 141v47c-26 0-52 3-78 8-11 13-16 20-16 23h94v328h-63v31h157l15 32v15h24c7 0 20-21 39-62v-16m-235-94c-16 0-31-2-47-7L234 602l55-55c5 0 21-42 47-125 5-8 8-16 8-24V164L305 63c0-11-39-32-117-63 0 11-3 21-8 31-47 31-71 52-71 63h94l47 23c13 19 21 32 23 39 13 80 21 125 24 133v39C208 235 109 172 0 141v31c135 52 229 135 281 250v62C229 422 135 370 0 328c104 67 187 136 250 208 0 3-3 7-8 11l-15 31-13 16c-3 0-7-3-11-8L39 500H0c0 3 5 10 16 23l93 40c0 10-2 20-7 31-3 54-21 104-55 148-16 5-32 8-47 8 109 55 187 115 234 180 0 5 4 8 11 8l52-24c11-13 16-20 16-23-16 0-32-3-47-8l-63-63 55-54c5-11 8-21 8-32h23c13 11 21 21 24 32v15c7 0 31-5 70-15h23v-32m-156-46h-31l-24 93-28 32c-3 0-7-3-11-8l-78-39H63c41-31 72-84 93-157 31 5 63 32 94 79Z"/></symbol><symbol id="𧲨_P" viewBox="0 0 1000 1000" data-size="22"><path transform="matrix(1 0 0 -1 54 969)" d="M891 484h-94V16h-63v468h-78v32h78v312h-78v31h157l15 32v15h31c0-10 3-20 8-31l24-23v-24h-94V516c2 0 10 5 23 15 5 11 8 21 8 32h31c0-11 3-21 8-32l24-23v-24M641 828H531V500h32c0 11 2 21 7 31l16 16 39-35v-43H516V344c-13-47-32-105-55-172-42-73-84-125-125-156h-23c13 36 31 62 54 78l63 125 15 62 24 141v47c-26 0-52 3-78 8-11 13-16 20-16 23h94v328h-63v31h157l15 32v15h24c7 0 20-21 39-62v-16m-235-94c-16 0-31-2-47-7L234 602l55-55c5 0 21-42 47-125 5-8 8-16 8-24V164L305 63c0-11-39-32-117-63 0 11-3 21-8 31-47 31-71 52-71 63h94l47 23c13 19 21 32 23 39 13 80 21 125 24 133v39C208 235 109 172 0 141v31c135 52 229 135 281 250v62C229 422 135 370 0 328c104 67 187 136 250 208 0 3-3 7-8 11l-15 31-13 16c-3 0-7-3-11-8L39 500H0c0 3 5 10 16 23l93 40c0 10-2 20-7 31-3 54-21 104-55 148-16 5-32 8-47 8 109 55 187 115 234 180 0 5 4 8 11 8l52-24c11-13 16-20 16-23-16 0-32-3-47-8l-63-63 55-54c5-11 8-21 8-32h23c13 11 21 21 24 32v15c7 0 31-5 70-15h23v-32m-156-46h-31l-24 93-28 32c-3 0-7-3-11-8l-78-39H63c41-31 72-84 93-157 31 5 63 32 94 79Z"/></symbol></svg>