<svg xmlns="http://www.w3.org/2000/svg"><symbol id="令_K" viewBox="0 0 1000 1000" data-size="21"><path transform="matrix(1 0 0 -1 59 946)" d="m480 857-2-14-25-6c65-86 131-155 198-208 68-53 145-95 231-126l-3-15c-23-3-42-16-59-41-86 50-157 103-214 159S494 734 441 822c-58-95-120-172-185-231-65-58-148-111-249-159l-7 11c101 67 181 133 238 198s109 149 154 251l88-35M100 379v22h548l28 31h13l54-46v-15l-24-13V149c0-28-7-48-21-60-13-12-40-22-81-30l-10 7v30l-86 30 3 13 81-7c21-2 35 1 41 8s9 23 9 46v193H436V29l-7-12-50-17-8 6 1 373H100m109 149v22l348-1 42 41h13l51-47v-15H209Z"/></symbol><symbol id="列_K" viewBox="0 0 1000 1000" data-size="21"><path transform="matrix(1 0 0 -1 67 931)" d="M0 776v23h433l43 45h13l55-51 1-17H257c-9-59-22-116-39-171h158l33 30h13l59-54-3-14-26-15c-14-52-31-101-52-147-21-45-41-84-61-117s-44-64-71-94c-27-29-50-53-70-72-20-18-44-36-72-55-27-18-48-31-62-38-14-8-32-18-54-29L2 11c63 45 114 88 152 127 39 40 78 91 118 153-16 6-29 16-38 30-20 32-35 54-45 65-9 11-26 26-49 44l6 12c61-19 101-37 119-53 19-15 29-36 32-61 40 79 71 164 92 255l-180-1c-26-56-51-101-76-134S71 375 22 330l-11 10c55 66 95 131 121 196 27 65 45 145 56 240H0m579 20 96-20v-13l-32-18V211l-8-15-47-15-9 10v605m190 65 96-19v-13l-33-20V119c0-29-2-49-5-60-3-12-11-23-24-32-14-10-38-19-71-27l-15 6v32l-87 28 1 16 88-5c20-1 33 2 39 10 7 9 10 25 10 50l1 724Z"/></symbol><symbol id="劣_K" viewBox="0 0 1000 1000" data-size="21"><path transform="matrix(1 0 0 -1 74 944)" d="m6 322-6 14c31 9 57 16 76 22 20 6 50 16 89 31 40 15 76 31 107 49 32 19 67 41 105 67 39 27 76 58 111 95s68 78 98 123l79-50-6-13-35-5c-50-53-82-86-95-99s-37-32-71-58l94-28-4-14-29-6c-6-27-10-49-12-66h206l27 24h18l57-53-3-14-30-10c-18-111-39-191-64-239-14-29-31-49-50-62S620 7 581 0l-13 6-8 28-109 46 5 11 104-14c2-1 8-1 17-1 41 0 70 19 89 57s37 114 56 227H501c-34-97-87-173-160-228C268 78 169 41 44 21l-3 15c109 30 194 71 256 123 63 52 107 119 134 202l-220-1v9c-69-19-138-35-205-47m242 62h188c6 31 11 68 14 109-65-43-133-80-202-109M8 537l-8 12c73 62 126 112 161 151s65 83 92 130l83-56-5-12-34-3c-43-47-84-86-123-116-38-29-93-65-166-106m280 96 3 13 96-6c19-1 30 1 34 6 5 5 7 16 7 31v210l96-18-1-15-31-15-1-179c0-28-8-49-23-62s-42-23-83-31l-10 7v26l-87 33m300 178 6 13c99-35 167-64 204-87 36-23 54-49 54-76 0-25-6-38-18-38-8 0-17 5-27 15l-23 23c-57 57-122 107-196 150Z"/></symbol><symbol id="咽_K" viewBox="0 0 1000 1000" data-size="21"><path transform="matrix(1 0 0 -1 67 931)" d="m0 794 69-29h84l30 29h14l53-44v-13l-28-17V279l-7-14-49-14-8 8v40H64v-45l-8-12-48-11-8 5v558m64-474h94v424H64V320m308 247h146c1 26 1 70 1 133l-1 94 93-19v-14l-29-13V567h80l39 42h13l49-49v-15l-183 1c-3-37-5-57-5-61 65-72 115-138 148-198 15-25 22-48 22-69 0-15-3-28-9-40s-13-18-20-18c-9 0-18 12-25 36-33 108-74 197-123 266-16-81-38-148-67-200s-69-99-121-140l-8 8c43 52 75 110 98 175s39 145 48 240H372v22m391 263 34 31h13l55-45v-13l-26-16-5-751-46-16-13 5v50H358V25l-11-14-47-11-8 6v853l71-29h400m12-21H358V97h417v712Z"/></symbol><symbol id="囹_K" viewBox="0 0 1000 1000" data-size="21"><path transform="matrix(1 0 0 -1 66 942)" d="m383 814 90-42-2-14-29-7c51-59 98-104 143-135s103-58 172-81l-5-15c-23-2-43-13-60-34-60 29-109 63-146 100s-77 88-120 153c-51-67-100-121-145-161-45-39-104-79-176-120l-9 11c73 57 129 109 170 158s80 111 117 187M145 447h417l31 32h14l56-45v-12l-26-17V254c0-19-4-34-13-43s-25-17-50-24c-3-1-15-4-36-10l-11 8v27l-67 30 1 13 76-5c24-3 36 6 36 27v148H400V118l-5-10-48-18-10 6-1 329H145v22m136 102v21h179l35 37h12l48-45v-13H281m487 309 32 27h15l53-42v-16l-25-19 1-759-8-12-44-17-12 7v22H64V25l-6-10L9 0 0 6v876l67-24h701m12-22H64V71h716v765Z"/></symbol><symbol id="寧_K" viewBox="0 0 1000 1000" data-size="21"><path transform="matrix(1 0 0 -1 55 945)" d="M143 223v22h524l44 49h15l62-55v-16H487V89c0-13-1-23-2-29s-5-13-12-22c-6-9-17-16-32-21-15-6-35-12-61-17l-11 6 1 29-106 35v13l113-7c31 0 46 13 46 40v107H143M82 860h16c2-16 3-35 3-58h328v87l96-14v-15l-32-15v-43h288l37 33h16l55-67-9-12h-33l-89-89-12 7 39 106H101C84 679 60 628 31 628c-7 0-14 5-21 15S0 663 0 674c0 13 11 32 34 55 27 29 43 73 48 131m79-134h14c-1-51-5-92-12-122-5-23-14-45-28-65-13-19-26-29-37-29-10 0-18 4-23 12s-8 18-8 30c0 17 4 29 13 36 31 25 51 44 58 57 8 13 16 40 23 81m95 14 92-14v-13l-28-16v-76c0-17 2-28 7-31s22-5 50-5h102c31 0 53 3 66 9s24 20 33 41l22 50 14-2-7-95 31-14v-14c-27-21-68-31-124-31H348c-41 0-66 4-76 13s-15 30-15 61l-1 137m92 6 5 10c8-1 19-3 32-6 85-16 128-41 128-76 0-21-7-32-21-32-11 0-21 6-32 18-23 27-39 44-49 51-9 7-30 19-63 35m273-28 8 8c71-28 126-61 165-99 14-14 21-30 21-48 0-31-8-46-23-46-11 0-21 8-32 25-30 47-52 79-66 94-13 16-38 38-73 66M139 514l67-28h438l30 31h14l57-46v-14l-30-16V328h30l43 52h15l58-58v-16H34v22h105v186m404-50V329h110v135H543m-171 0V329h108v135H372m-170 0V329h106v135H202Z"/></symbol><symbol id="嶺_K" viewBox="0 0 1000 1000" data-size="21"><path transform="matrix(1 0 0 -1 58 947)" d="m9 403-9 9c49 43 87 84 114 121 28 37 57 87 88 150l84-38v-14l-38-7c59-22 103-43 133-63 30-19 45-41 45-66s-6-37-19-37c-7 0-17 7-28 21-41 54-89 97-143 128-39-47-80-91-124-131h152l34 41h14l46-48v-14H86c-24-17-50-35-77-52m-9-58v22h325l27 32h16l48-42v-16l-27-18 1-182c0-21-5-37-16-46s-34-19-70-30l-11 7v24l-65 28 4 17 52-4c2-1 8-1 17-1 13 0 20 3 23 8s5 18 5 39v162H182V26l-9-12-43-14-10 6v339H0m112 537 87-16v-10l-23-15v-89h234v142l96-20v-12l-32-17v-93h247v133l96-19v-12l-31-16V714l-7-11-50-9-8 5v31H176v-23l-8-11-48-10-8 8v188M359 0l-8 11c77 32 146 77 207 136l64-53-9-10h-37C505 44 433 16 359 0m526 638H681l-52-85h120l26 29h15l53-42v-15l-23-18V152l-7-8-47-12-7 5v35H523v-25l-8-10-41-11-13 4v452l74-29h67l12 85H418v22h357l42 43h13l55-52v-13M759 194v96H523v-96h236m0 117v104H523V311h236m0 126v95H523v-95h236m-84-311 5 12c22-3 43-8 62-13 20-5 41-11 63-20 22-8 40-18 53-31s20-28 20-44c0-20-6-30-18-30-9 0-21 7-34 20-31 31-54 52-69 63-15 10-42 24-82 43Z"/></symbol><symbol id="年_K" viewBox="0 0 1000 1000" data-size="21"><path transform="matrix(1 0 0 -1 55 945)" d="M510 309h254l49 53h13l64-61v-15H510l-1-262-7-11-48-13-8 6v280H0v23h169v262l71-28h206v177H204C137 649 73 593 12 552L2 562c58 53 104 103 137 150s65 107 94 178l92-47-4-14-37-4-62-83h509l41 48h16l60-56v-14H510V543h156l45 48h15l62-55v-14H510V309m-277 0h213v213H233V309Z"/></symbol><symbol id="廉_K" viewBox="0 0 1000 1000" data-size="21"><path transform="matrix(1 0 0 -1 52 942)" d="m76 824 74-30h280v90l97-17v-14l-33-12v-47h286l41 44h16l58-53v-13H143V650c0-175-9-303-27-384S64 107 13 32L0 39c30 66 51 138 62 217 12 79 18 187 18 323 0 78-1 160-4 245m442-106-9-12-24 4-50-35 15-5v-13l-27-13v-83h124l1 68-50-12-17 18c73 28 141 68 204 121l46-52-9-11-25 6c-29-17-58-33-89-46l29-9v-13l-30-11v-59l111-1 40 54h16l64-61v-15H607v-69h72l35 37h14l62-51v-15l-28-17v-44h13l34 46h14l48-55-1-14H762l1-106-7-13-45-13-13 8v39l-88-1c25-47 54-85 85-115 31-29 81-60 149-91l-3-14c-25-7-43-20-56-38-57 36-117 106-178 210V38l-6-15-40-13-13 8-1 253H423V26l-6-13-51-13-7 8v175C310 107 246 51 168 14l-10 11c47 36 83 72 110 108 27 37 52 82 75 137l-155 1v22h171v63H155v23h204v67H193v23h166v69H187v23h172v78c-35-11-69-20-104-28l-7 15c89 36 161 83 218 141l52-49m29-180H423v-69h124v69m0-92H423v-67h124v67m0-90H423v-63h124v63m151 90h-91v-67h91v67m0-90h-91v-63h91v63Z"/></symbol><symbol id="念_K" viewBox="0 0 1000 1000" data-size="21"><path transform="matrix(1 0 0 -1 58 942)" d="m7 416-7 12c96 66 171 132 226 199s105 152 150 256l105-44-1-12-22-5c62-92 125-163 190-212s144-86 235-111v-11c-25-5-47-20-68-45-161 76-287 201-379 375l-11-5c-52-92-110-168-173-228S107 469 7 416m155 16v22h398l37 32h17l53-47-6-12-28-8-74-160-15-8-42-1-10 11 74 171H162m89 118v21h256l39 40h15l52-47v-14H251M96 238h18c1-8 1-22 1-42 0-39-5-75-14-106S81 36 70 22 50 1 41 1c-7 0-15 6-23 17C11 29 7 41 7 52c0 15 3 25 10 32 31 34 51 58 58 73s14 42 21 81m118 69 95-20v-11l-31-18V121c0-30 4-48 13-55s26-10 50-10h188c22 0 41 2 56 6 16 3 27 7 32 11s9 8 11 11l43 111 15-5-11-125 26-15V35C670 12 629 0 579 0H308c-39 0-65 7-77 21-11 14-17 36-17 65v221m154-5 8 10c47-25 79-45 97-61s27-34 27-54c0-13-3-24-9-33s-13-14-20-14c-11 0-26 22-43 65-10 26-30 55-60 87m335-69 7 10c79-44 128-76 147-96 15-17 23-34 23-52 0-12-3-22-8-31s-12-14-20-14c-9 0-16 4-22 13s-16 27-29 55c-13 25-46 63-98 115Z"/></symbol><symbol id="怜_K" viewBox="0 0 1000 1000" data-size="21"><path transform="matrix(1 0 0 -1 56 946)" d="M182 839V737c48-27 80-49 96-66 17-16 25-36 25-59 0-10-3-19-8-28s-10-13-16-13c-7 0-12 3-16 9s-10 18-18 35c-15 33-25 54-31 63-5 9-16 22-32 38l-6-695-52-16-7 8v878l95-20v-11l-30-21m53-345-8 12c71 57 126 113 165 169 40 56 76 128 109 217l87-32v-15l-28-6c51-80 99-139 144-178s106-73 183-104l-5-12c-18-3-31-7-38-12s-14-16-22-32c-65 44-116 86-151 125-35 40-76 103-125 188-42-73-87-134-136-183-48-49-106-95-175-137m31-91h469l25 26h16l57-36v-11l-26-19V180c0-39-3-63-10-72s-29-18-66-28c-2-1-6-2-12-3-5-2-10-4-13-5l-11 7v22l-87 28 2 10 95 2c18 1 29 3 32 8s5 19 5 44v189H537V27l-9-15-48-12-7 3-1 379H266v21M64 669h16c6-38 9-69 9-92 0-43-6-79-19-107-13-27-27-41-43-41-7 0-13 5-19 16-5 11-8 24-8 38 0 11 1 19 4 25s12 17 25 33c23 29 35 72 35 128m296-124v21h262l34 36h11l49-43v-14H360Z"/></symbol><symbol id="憐_K" viewBox="0 0 1000 1000" data-size="21"><path transform="matrix(1 0 0 -1 53 945)" d="M52 686h16c6-39 9-72 9-97 0-39-4-72-12-99-7-27-19-40-36-40-7 0-13 5-20 16-6 11-9 21-9 32s7 28 20 51c21 37 32 82 32 137m104 154V683c39-22 64-39 77-52s19-28 19-45c0-9-3-17-9-25-5-8-11-12-18-12-9 0-17 11-25 33-9 27-24 53-44 77l-7-642-48-15-10 8v876l93-17v-11l-28-18m142 16 4 8c85-31 128-66 128-103 0-10-3-19-9-27-5-8-11-12-18-12s-19 15-34 44c-14 27-38 57-71 90M175 34l-5 12c74 47 134 100 179 159-11 6-22 20-33 41-6 12-19 28-38 47-35-41-71-74-108-100l-8 8c41 47 73 92 95 135 23 43 45 101 67 176l81-31-4-12-25-8c-3-8-11-25-23-50h92l20 22 14-1 47-52-6-13-16-5c-36-80-79-145-129-195S258 73 175 34m270 356H343c-15-25-33-52-54-81 25-6 44-13 57-22 13-8 20-15 22-21 3-5 5-14 6-26 25 41 49 91 71 150m51 317v183l93-17v-13l-29-12V707h213l31 39h14l49-48v-12H594c54-65 148-113 281-144l-3-13c-19-7-35-22-47-43-64 23-114 48-149 75-35 28-71 70-108 125h-8l1-193-7-12-48-15-9 9v166c-49-43-92-76-129-97s-90-42-157-63l-4 12c62 31 109 59 141 84 33 26 66 62 99 109H215v21h281m147 12-18 6c25 45 49 96 74 154l82-42-6-13h-28L643 719m87-328h48l31 33h12l43-41v-14H730V198h69l32 36h13l49-44v-14H730l1-146-5-14-52-16-8 8v168H453v22h79v216l72-23h62v127l91-21v-13l-27-13v-80m-64-22h-71V198h71v171Z"/></symbol><symbol id="戀_K" viewBox="0 0 1000 1000" data-size="21"><path transform="matrix(1 0 0 -1 51 933)" d="m7 253-7 7c21 60 38 132 53 217l73-21-1-15-20-8c-18-51-34-88-47-113-13-24-30-46-51-67m28 215-23 93 115 4 74 207 85-50-3-16-36-5-99-136 97 4c-8 16-16 30-24 42l10 10c59-36 88-66 88-89 0-9-3-18-8-27s-11-13-18-13c-5 0-10 3-15 9-4 7-12 23-25 48l-58-16V275l-8-12-49-13-7 6v263l-73-24-13-27H35m103-240h17c-1-74-10-128-26-161C108 22 89 0 70 0c-7 0-14 5-21 14S39 32 39 43c0 13 2 22 6 29 5 7 17 21 37 42 24 25 43 63 56 114M29 729l6 9 38-19 61 146 75-48-5-10h-25l-89-97c26-14 39-31 39-52 0-10-3-19-8-28s-11-13-18-13c-10 0-20 13-31 39-8 20-22 44-43 73m182-272 9 7c55-37 83-72 83-105 0-12-3-23-10-32-6-9-13-13-21-13-16 0-26 19-29 57-2 25-13 53-32 86m48-189 97-18v-12l-31-23-1-107c0-31 18-47 55-47h195c23 0 40 4 49 12 10 7 18 22 24 45l21 79 15-5-7-128 25-13V37c-16-13-31-22-45-25-13-4-34-6-61-6H353c-63 0-94 21-94 63v199m42 456v22h205l36 34h15l38-41v-15H301m32-172v21h157l34 31h13l36-35v-17H333m0 254v22h142l34 34h13l37-43v-13H333m0-170v22h160l29 30h13l34-36v-16H333m161-164 27 25h15l48-35v-15l-18-14V325l-7-15-49-10-9 7v23H389c0-19-1-33-4-40l-54-8-5 14-1 206 69-30h100m-105-21v-99h112v99H389m-1-202 6 11c65-24 108-42 127-54 20-11 30-28 30-51 0-25-8-38-24-38-13 0-27 12-44 37-18 24-50 56-95 95m191 15-12 6c31 58 55 127 70 207l71-24-2-15-16-4c-21-50-39-86-54-108-14-22-33-43-57-62m54 230-33 92 108-5 92 198 86-58-5-11-42-5-98-122 81-3c-6 8-18 22-35 41l8 10c66-23 99-52 99-86 0-26-7-39-21-39-9 0-16 2-19 6-3 5-8 16-15 33l-10 20-49-13-1-258-6-14-51-19-7 9v270l-64-19-4-27h-14m-16 243 4 9 43-13 46 129 77-38-2-11-35-11-71-78c30-15 45-32 45-51 0-9-3-17-8-25-5-7-11-11-18-11-11 0-26 17-44 51-8 14-20 30-37 49m101-532 8 10c109-58 163-107 163-146 0-11-3-20-9-29s-13-14-20-14c-11 0-26 17-45 52-11 22-44 64-97 127m70 262 8 10c29-16 53-35 72-58 19-22 29-42 29-59 0-12-4-24-11-36s-13-18-20-18c-15 0-26 19-35 56-8 36-22 71-43 105Z"/></symbol><symbol id="捻_K" viewBox="0 0 1000 1000" data-size="21"><path transform="matrix(1 0 0 -1 54 943)" d="M102 0 92 5v28L14 63l4 15 79-4c27 0 40 13 40 39l-1 265-70-43v-31l-14-6-50 78 134 58v217H0v22h136v203l101-17v-14l-38-13V673h53l36 40h12l44-46v-16H199V462l127 60 5-15-132-87-1-335c0-27-4-44-13-51-8-8-36-19-83-34m218 228 17-3c-1-59-7-105-18-136-6-17-16-32-29-47s-23-22-32-22c-17 0-26 12-26 35 0 17 6 32 18 45 29 31 46 51 51 61 6 11 12 33 19 67m-88 290-7 10c74 56 131 110 172 162s77 117 108 196l100-30-4-14-15-3c43-63 87-112 132-147 45-34 103-62 173-84l-3-11c-21-5-42-19-62-43-57 30-105 66-144 107-38 41-77 99-116 173l-10-2c-46-77-92-137-138-182s-108-89-186-132m66-64v22h390l30 33h13l55-44-3-16-30-11-76-158-13-8h-49l-3 8 80 174H298m73 121v22h249l36 39h13l53-48v-13H371m28-298 96-22v-11l-31-17V92c0-22 16-33 48-33l118 1c30 0 49 12 56 35l23 72 15-1V69l31-17V39C728 18 686 8 629 8H477c-29 0-50 6-61 18-11 11-17 32-17 62v189m132-2 6 7c39-23 65-41 77-54 12-12 18-28 18-47 0-11-3-20-8-29s-11-13-18-13c-12 0-22 16-31 49-7 26-21 55-44 87m201-30 7 9c20-14 36-26 47-35 12-9 25-20 40-33s26-27 33-40 11-25 11-38c0-11-3-20-8-27-5-8-10-12-17-12-15 0-28 18-41 55-12 33-36 73-72 121Z"/></symbol><symbol id="撚_K" viewBox="0 0 1000 1000" data-size="21"><path transform="matrix(1 0 0 -1 54 942)" d="m200 247-8 9c88 65 160 134 215 205-9 1-27 18-56 50s-44 49-47 51c-21-26-45-51-73-74l-12 6c43 56 76 113 100 172s44 132 59 218l90-25-3-13-25-9-24-74h95l28 27h12l60-43-6-15-25-7c-16-78-41-146-74-204-33-57-73-107-121-149-48-41-110-83-185-125m262 306c-12 4-22 12-29 25-13 21-37 44-71 68-11-17-27-42-48-73 70-23 105-50 106-79 0-7 0-12-1-16 0 1 4 7 11 20 8 13 15 24 21 35 7 11 10 18 11 20m55 188H406c-8-23-21-51-38-84 44-9 73-18 87-29 15-10 22-24 22-43 19 44 32 96 40 156m-405-98H3v22h109v213l104-18v-13l-40-18V665h25l33 43h13l50-50v-15H176V442l121 46 7-13-128-72V83c0-23-4-39-13-48-8-10-25-19-50-26L81 0 71 7v27L1 67l1 14 72-7c2-1 7-1 14-1 16 0 24 10 24 31v267l-57-35v-27l-13-5-42 78 112 40v221m215-397 15-4c-3-61-12-110-26-145-7-19-19-35-35-50-15-15-29-23-42-23-17 0-25 13-25 38 0 12 2 21 6 28 5 7 16 16 33 28 33 25 58 68 74 128m225 320v22h75c7 68 11 139 11 214v71l92-21v-13l-31-12c-3-115-8-195-14-239h102l38 42h14l52-48v-16H685c24-67 51-121 82-160s72-72 123-101l-5-10c-19-1-40-12-61-33-41 38-73 75-94 112s-41 88-61 155c-25-68-57-124-97-167-39-43-94-81-164-116l-8 10c65 45 115 92 149 139 34 48 59 105 74 172l-71-1M416 213l10 8c61-65 92-114 92-149 0-11-4-23-12-34-7-12-15-18-23-18-17 0-27 21-30 63-2 37-14 80-37 130m152 4 9 9c10-8 18-14 23-17 69-53 103-97 103-132 0-12-3-23-10-34s-14-16-21-16c-14 0-27 22-38 65-8 30-30 72-66 125m167 548 8 10c38-15 65-30 82-43s26-28 26-47c0-9-3-18-8-27s-11-13-17-13c-9 0-18 11-27 33-13 30-34 59-64 87m-7-546 9 11 34-22c81-51 121-96 121-136 0-11-3-22-10-33-6-11-12-16-19-16-12 0-23 15-33 45-19 55-53 106-102 151Z"/></symbol><symbol id="殮_K" viewBox="0 0 1000 1000" data-size="21"><path transform="matrix(1 0 0 -1 50 938)" d="m14 363-14 8c42 67 72 134 89 201s29 139 34 218H13v23h269l38 45h12l52-53v-15H185c-13-77-24-134-33-169h102l31 32h14l58-54-3-14-26-8c-23-132-57-240-102-323C182 171 115 88 26 5L15 16c87 97 151 202 192 315l1 4c-4-2-7-3-9-3-10 0-18 4-25 12-6 9-14 25-24 48-10 21-30 47-61 78-26-42-51-78-75-107m249 235-118 1c-19-53-36-92-50-117 44-21 75-39 93-54 19-14 31-30 36-47 17 58 30 130 39 217m500-111 33 32h12l51-37v-15l-20-16V323l-6-7-47-14-9 5-1 23h-94c0-9-2-16-6-23l-48-11-10 4v216l67-29h78m13-22h-94V352h94v113m-270 22 29 30h15l48-39v-11l-20-17 1-119-7-9-47-14-8 6v16h-94l-1-15-8-8-41-10-11 6 1 209 64-25h79m11-22h-94V352h94v113m141 119 37 48h15l48-55v-14H444v23l214-2M522 272l-4-12-30-5c-10-23-22-46-36-69 43-18 72-33 87-46 15-12 22-28 22-48 0-23-8-35-24-35-12 0-21 7-27 22-14 32-24 52-29 60s-18 19-37 33c-28-41-55-73-81-96S302 30 257 6l-8 10c91 66 155 163 190 291l83-35m262-11-3-15-32-5c-10-22-23-47-38-75 56-21 95-40 117-57s33-37 33-61c0-23-7-35-20-35-15 0-32 16-49 47-18 32-48 62-91 91C662 97 614 47 557 0l-10 9c37 39 67 80 89 121 23 42 44 96 63 163l85-32M649 843l-4-15-34-6c39-57 80-103 123-138 43-34 98-64 165-89l-3-14c-15 0-27-2-34-7s-16-16-29-33c-55 38-100 76-134 115s-66 88-97 147c-31-65-66-118-103-159-37-40-90-81-159-123l-12 10c55 42 100 88 134 138 35 51 68 119 100 206l87-32Z"/></symbol><symbol id="漣_K" viewBox="0 0 1000 1000" data-size="21"><path transform="matrix(1 0 0 -1 53 944)" d="M587 247v123H483v-29l-7-9-47-14-10 9v346l69-19h99v102H385v22h202v110l93-15v-12l-29-20v-63h142l29 36h12l50-46v-12H651V654h116l20 25h14l50-40v-13l-20-16V351l-6-12-45-12-13 6v37H651V247h142l35 40h13l51-46v-16H651V103l-7-13-49-13-8 6v142H372v22h215m0 255H483V392h104v110m0 130H483V524h104v108m180-130H651V392h116v110m0 130H651V524h116v108M5 267l27-1c31 0 56 29 75 86l137 416 18-4-126-510c-5-18-7-35-7-51 0-28 6-60 19-95 9-24 13-43 13-57 0-13-5-25-14-35-9-11-20-16-32-16S93 5 85 16c-7 10-11 23-11 39 0 5 1 22 4 49 3 28 4 44 4 49 0 18-2 33-6 45-4 13-11 22-20 29s-17 11-24 14-16 6-29 9l2 17M0 593l5 13c43-13 76-25 97-37 22-11 35-21 39-29 5-8 7-19 7-33 0-9-3-18-8-26s-11-12-18-12c-11 0-24 13-41 40-21 31-48 59-81 84m47 254 6 11c55-17 91-32 110-47 19-14 28-33 28-56 0-26-7-39-22-39s-30 15-45 44c-16 29-42 58-77 87m235-447 35 29h13l54-45v-12l-24-15V152c31-35 64-58 101-71s91-19 162-19c87 0 177 6 270 18V69c-19-14-29-34-30-61-47-3-83-5-108-5-129 0-221 9-276 27-54 18-103 56-148 115l-87-97 6-32-13-11-63 65 121 84v224H191v22h91m-50 222 6 10c1 0 3-1 6-2s8-3 14-5 12-4 17-6c63-23 95-50 95-80 0-29-8-44-24-44-7 0-20 15-37 44-18 29-44 57-77 83m-12 214 6 10c55-20 91-36 107-48 16-11 24-26 24-45 0-30-8-45-24-45-8 0-20 14-37 43-19 33-44 61-76 85Z"/></symbol><symbol id="烈_K" viewBox="0 0 1000 1000" data-size="21"><path transform="matrix(1 0 0 -1 58 950)" d="M0 823v20l411 1 43 44h13l54-51 1-14H266c-13-45-27-88-41-127h176l28 28h15l54-50-2-15-28-11c-43-111-98-199-165-264S145 264 30 219l-7 13c106 61 187 123 243 188s102 150 137 254H215c-21-45-42-84-65-117 21-6 37-11 48-15 11-3 24-9 39-16s26-15 33-24 10-20 10-31c0-23-6-34-19-34-12 0-25 10-40 29-18 24-45 49-82 76-47-59-90-101-129-126L0 426c87 95 152 228 195 397H0m152-598h17c0-73-5-124-14-153-7-19-18-36-34-50C106 7 91 0 76 0 59 0 50 13 50 39c0 19 12 37 35 53 21 15 37 31 46 50s16 46 21 83m151-15 13 5c31-46 51-79 61-99s15-39 15-57c0-15-4-28-12-40-7-12-16-18-25-18-21 0-32 24-32 73 0 29-1 52-3 67-2 16-8 39-17 69m338 560V386l-5-12-53-13-7 8v447l96-17v-13l-31-16m203 81V338c0-32-6-54-18-67-11-12-38-23-80-34l-12 9v28l-84 33 2 13 90-7c16-1 26 0 30 5 5 5 7 15 7 32v549l98-20v-15l-33-13M717 210l8 10c61-35 103-63 125-84s33-43 33-66c0-13-4-24-11-35s-14-16-22-16c-15 0-32 25-49 75-13 35-41 73-84 116m-205-1 10 10c80-62 120-113 120-152 0-13-4-25-12-36s-16-17-25-17c-15 0-25 16-31 49-9 52-29 101-62 146Z"/></symbol><symbol id="煉_K" viewBox="0 0 1000 1000" data-size="21"><path transform="matrix(1 0 0 -1 51 944)" d="M282 789h251v99l99-18v-14l-34-14v-53h182l41 48h15l53-53-1-16H598V668h146l31 31h15l51-42v-17l-25-17V382l-7-11-48-14-10 8v33H605c47-77 92-137 135-180 43-42 95-79 158-112l-3-12c-9 0-17 0-23-1-5-1-13-4-22-10-9-5-18-13-26-24-49 38-91 79-124 124s-67 106-102 184l1-338-7-13-48-16-12 8v285c-45-61-90-110-135-149-45-38-102-75-171-111l-9 12c72 51 130 103 174 155 45 52 87 118 127 198H394v-36l-6-9-48-13-10 8v344l68-24h135v100H282v21m112-369h139v226H394V420m204 0h153v226H598V420M219 863v-12l-33-16c2-49 3-86 3-111 0-22-1-54-3-97l72 117 66-54-6-13h-32l-100-83c0-89-5-172-15-249 49-24 84-44 104-61 21-16 31-35 31-56 0-35-9-52-27-52-9 0-20 13-31 38-19 41-47 78-82 111-15-67-34-122-56-165-21-43-53-87-94-132l-9 9c51 81 83 159 96 233 13 75 19 182 19 323 0 100-2 197-5 290l102-20M52 701h16l9-51c5-39 8-73 8-104 0-29-5-56-16-80s-22-36-35-36c-7 0-15 6-23 19-7 13-11 25-11 38 0 11 5 24 14 39 14 24 23 47 28 69 5 23 9 58 10 106m617-77 74-39-3-13-29-3-87-131-15 6 60 180m-261-12 11 8c66-57 99-99 99-127 0-11-3-23-9-34s-12-17-19-17c-12 0-22 19-30 58-7 33-25 71-52 112Z"/></symbol><symbol id="獵_K" viewBox="0 0 1000 1000" data-size="21"><path transform="matrix(1 0 0 -1 52 948)" d="m507 389 85-11v-11l-21-13V87l166 38 5-15-216-82-3-25-13-3-40 71 37 10v308m70 506 69-37-4-13h-24c-3-3-9-9-19-18l-27-27c-8-8-12-12-13-12-18-16-27-27-27-33 0-5 6-12 19-22 37-29 55-52 55-69 0-10-3-19-8-27-5-7-10-11-17-11-9 0-18 12-28 37-7 17-20 41-38 72-6 8-9 15-9 20 0 7 2 14 7 21 16 27 37 66 64 119m195-275 25 29h13l50-39v-12l-21-15V403l-3-8-47-13-10 4v25H349v-18l-9-7-43-12-12 5v264l70-23h417m-161-22H349V433h336c-5 3-22 13-53 30-30 18-51 31-64 38-51-21-111-42-181-62l-7 13c53 23 99 46 137 69-45 18-91 34-137 48l4 11c46-7 86-13 120-20l51-10 56 48m108-165h60v165H631l48-34-6-14h-25l-33-18c73-23 110-50 110-81 0-6-2-12-6-18M4 813l9 10c35-27 71-60 110-98 43 55 79 107 110 157l72-52-5-13h-27c-37-42-76-85-119-129 68-113 102-240 102-379 0-123-24-211-71-262-19-21-46-36-83-47L88 6l-8 28L6 66l1 12 77-6c21-1 40 5 55 20s26 36 33 63 12 54 15 80c3 27 5 55 5 84 0 15-1 47-4 98l-2 43C133 371 79 301 24 248l-9 9c73 113 122 215 146 306-9 33-22 66-38 97L10 575 0 587c36 34 69 70 100 109-31 45-63 84-96 117m815-448v-13l-24-15c1-52 6-102 15-150 9-47 19-71 30-71 6 0 12 7 17 20l26 75 12-6-22-144 22-42-9-11c-26 3-47 11-62 22s-29 30-42 56c-17 33-29 70-36 109-7 40-12 102-15 187l88-17m-534 4 86-15v-14l-22-9V94l143 28 2-16-213-76-3-23-14-5-36 73 57 11v283m301-135 6 10c42-11 70-20 85-29s22-23 22-44c0-7-2-14-6-21-4-6-9-9-14-9-8 0-17 8-28 24-15 21-36 44-65 69m15 106 5 10c39-9 67-19 83-28 17-9 25-24 25-45s-6-31-19-31c-7 0-17 8-30 25-19 27-41 50-64 69m-235-19 6 9c40-9 68-18 84-28 16-9 24-22 24-38 0-24-8-36-23-36-7 0-15 8-26 24-17 24-39 47-65 69m-8-105 5 10c39-9 66-18 83-27s25-22 25-39c0-24-8-36-23-36-6 0-15 8-26 24-18 25-39 47-64 68m397 678 70-37-6-13h-22l-4-4c-3-2-6-5-10-9-4-3-9-8-14-13l-15-15-16-16c-5-5-10-9-14-14s-7-9-10-12c-2-3-3-6-3-7 0-5 6-12 19-22 37-29 55-51 55-68 0-8-3-16-10-25-6-9-12-13-18-13-7 1-16 13-25 36-7 18-19 42-38 72-6 8-9 15-9 20 0 7 2 14 7 21 15 25 36 65 63 119m-356 1 69-37-4-13h-24c-3-3-9-9-19-18l-27-27c-8-8-12-12-13-12-18-16-27-27-27-33 0-5 6-12 19-22 37-29 55-52 55-69 0-9-3-18-8-26s-10-12-17-12c-9 0-18 12-27 36-9 23-22 48-39 73-6 9-9 15-9 20 0 7 2 14 7 21 14 23 35 62 64 119Z"/></symbol><symbol id="玲_K" viewBox="0 0 1000 1000" data-size="21"><path transform="matrix(1 0 0 -1 52 938)" d="M134 768H9v22h263l40 40h17l46-46v-16H197V499h47l33 37h13l45-46v-15H197V211l170 57 6-14L64 102l-5-31-13-6-46 86 134 43v281H6v24h128v269M703 88l-82 37 1 12 52-7c15-2 27-3 38-3 19 0 30 3 34 8 5 5 7 19 7 42v196H575l1-344-9-15-46-14-10 6v367H302v23h443l29 28h14l52-42v-14l-22-14V162c0-35-5-57-15-67-9-9-39-21-89-36l-11 5v24M330 514l-9 10c53 50 96 101 128 153s62 118 91 199l90-35-3-15-26-8c45-67 89-119 132-155 43-35 98-65 163-90l-1-14c-16 0-28-2-35-7s-17-15-29-32c-58 40-105 80-141 121s-72 94-107 160c-37-69-74-124-111-166s-84-82-142-121m332 38 30 36h13l56-47v-14H404v25h258Z"/></symbol><symbol id="瑩_K" viewBox="0 0 1000 1000" data-size="21"><path transform="matrix(1 0 0 -1 58 935)" d="M60 545h18l4-45h704l30 30h13l55-63-8-14h-31l-81-82-11 6 39 100H84c0-42-6-73-17-94-13-22-26-33-39-33-7 0-13 4-19 12s-9 17-9 26c0 15 3 27 10 34 25 30 40 50 44 61 5 11 7 31 6 62m31-218v22h587l35 46h14l49-52v-16H462V193h210l35 40h13l48-49v-14H462V23h153c-11 11-17 19-18 23-7 23-13 39-18 46s-18 20-41 39l11 13c21-8 37-15 49-20s26-14 42-27 24-26 24-40c0-9-4-21-13-34h125l38 45h12l49-49V0H2v23h396v147H102v23h296v134H91m51 489h16v-44c0-101-20-151-61-151-17 0-26 11-26 34 0 9 2 17 7 22 27 33 44 56 49 68 6 13 11 36 15 71m-5-313-10 12c43 51 71 96 84 136 13 41 23 114 30 219l92-21v-13l-26-12c-3-29-7-61-12-97 33 29 67 67 104 112l63-53-7-14h-34l-135-82-8-25c8-5 18-9 29-14 28-12 46-20 54-24 9-3 19-9 32-17s20-16 23-23 5-15 5-26c0-27-10-40-30-40-9 0-15 4-20 13-23 37-39 60-47 68-7 9-25 23-53 43-37-58-82-105-134-142m357 303h15c6-33 9-61 9-86 0-69-16-104-49-104-8 0-15 3-21 8-6 6-9 13-9 21 0 13 9 34 28 61 15 23 24 57 27 100m2-298-11 11c35 49 59 95 71 136 12 42 21 111 26 207l91-16v-15l-24-15c-3-23-8-53-16-91 34 28 73 64 118 109l65-50-5-12h-35l-151-82-6-19c8-4 19-9 33-15 47-20 79-36 96-49s25-29 25-48c0-10-3-19-8-26s-12-11-19-11c-11 0-22 8-31 23-19 33-34 55-45 65-10 11-29 23-58 37-12-29-26-52-41-70s-40-41-75-69Z"/></symbol><symbol id="璉_K" viewBox="0 0 1000 1000" data-size="21"><path transform="matrix(1 0 0 -1 49 929)" d="M623 752v106l90-22v-13l-30-16v-55l91 1 39 46h13l57-53v-16H683v-90l77-1 31 28h15l55-38v-15l-20-18V333l-5-11-51-12-7 6-1 39h-94V255h90l43 51h14l59-60v-14H683V115l-5-10-47-12-9 9 1 130H425v23h198v100h-95v-42l-5-7-53-14-6 5v365l66-22h93v90H428v22h195m0-135h-95V507h95v110m0-132h-95V378h95v107m154 132h-94V507h94v110m0-132h-94V378h94v107M332 375l33 30h15l50-43v-18l-19-11V151c49-35 94-58 134-70 40-11 95-17 164-17 61 0 125 4 192 13l-1-14c-25-18-41-39-46-63h-30C701 0 614 8 564 25c-49 17-109 58-178 123L271 34l1-29-11-4-55 66 142 81v205H243v23l89-1M218 761l40 42h12l51-47v-16H177V493l41 1 33 43h15l50-50v-17H177V250l110 29 2-13L57 157l-2-26-12-5-43 80 113 30v234H20v23h93v245H6v23h212m71 56 5 10c50-13 83-25 99-36 17-11 25-26 25-47 0-26-9-39-27-39-11 0-19 5-25 14 0 1-4 10-13 27-13 27-35 50-64 71m-14-229 4 9c47-13 80-26 99-37s28-27 28-48c0-11-3-20-9-29-5-8-12-12-19-12-11 0-22 10-33 30-21 37-45 66-70 87Z"/></symbol><symbol id="秊_G" viewBox="0 0 1000 1000" data-size="21"><path transform="matrix(1 0 0 -1 32 971)" d="M738 883c-70-2-152-8-246-17V762h313l41 41 64-51c2-2 3-4 4-8 1-6-3-9-12-9H541c42-39 86-71 131-94 45-22 85-36 121-43 34-7 74-12 119-16v-17c-35 0-58-3-70-10-11-6-20-18-28-33-43 17-78 33-107 47-28 13-61 35-98 64-37 28-70 62-97 102h-20V598l4-66c1-11-6-20-21-28-14-8-26-11-37-11l3 109v133h-13c-45-54-108-104-188-151S83 506 10 489l-4 13c76 29 146 65 209 108 62 41 111 83 148 125H117c-12 0-33-3-64-8l-22 35h410v98c-113-6-218-9-316-8v16c211 13 416 39 615 76l47-49c2-5 3-8 4-10-3-4-6-6-10-6l-43 4m-27-433c-26-3-100-12-221-28V270h340l39 47 63-53c2-1 3-5 4-10 0-8-4-11-12-11H490V113l4-67c1-11-6-21-21-31S445 0 434 1l4 114v128H86c-14 0-36-3-66-8L0 270h438v146c-139-13-259-23-360-29v18c108 11 236 29 383 52 146 24 242 45 287 65 34-39 50-61 49-69 0-6-8-7-24-3-15 2-35 2-62 0Z"/></symbol><symbol id="秊_K" viewBox="0 0 1000 1000" data-size="21"><path transform="matrix(1 0 0 -1 65 938)" d="M414 334h-34l-194-4-85-2v20c249 14 444 43 584 86l52-85-14-7-27 16c-57-8-131-15-220-20V229h284l41 45h13l56-53v-15H476V32l-4-15-52-17-9 9 1 197H15v23h397l2 105m-1 337v101c-82-5-165-8-250-8-40 0-69 0-88 1v14c235 9 420 34 553 77 1 1 21 7 58 20l50-79-15-7-30 15c-18-5-89-14-214-28V671h287l38 41h13l56-46v-17H502c92-85 214-137 366-156l-1-15c-31-6-56-25-77-57-72 31-131 63-176 96s-91 75-137 128V431l-4-17-51-15-10 11 1 188C316 507 181 432 7 373l-7 15c88 39 160 80 216 122s105 88 147 139H3v22h410Z"/></symbol><symbol id="簾_K" viewBox="0 0 1000 1000" data-size="21"><path transform="matrix(1 0 0 -1 49 948)" d="M586 512h156l36 40h13l55-44v-17H586v-58h98l24 25h18l47-35v-14l-16-13v-52h31l35 38h14l54-47v-13H757l-1-87-6-11-46-13-12 5v21h-97c42-42 84-73 126-94 43-21 103-39 180-55l-4-17c-15-3-26-7-33-12s-16-15-29-32c-59 20-106 44-143 72-36 29-71 69-106 121V28l-10-15-43-12-11 5v231H407l-1-211-9-10-45-13-9 6v142c-40-32-78-58-114-77-36-20-87-43-154-69l-8 12c69 37 121 71 157 101 37 31 72 70 107 119H205v21l136 1 1 63H164v22h178v69H205v20h137v58H192v21l150 1v44c-13-5-36-11-71-18l-8 13c65 25 116 57 153 98l59-45-8-9-24 2c-1-1-4-2-9-5s-11-6-18-9-11-4-12-5v-68h120v40l-51-12-8 13c65 25 116 57 153 98l59-45-8-9-24 2c-25-13-45-22-60-27l1-59M16 677l-7 11c36 32 65 62 87 91s45 68 68 116l83-28-8-15-22-3-20-24h145l35 36h14l44-44v-14H247c25-17 43-31 52-40 10-9 15-20 15-31 0-9-3-18-10-27-6-9-12-13-18-13-12 0-23 16-33 49-7 20-18 41-34 62h-38c-25-27-47-48-67-64-20-15-53-36-98-62m505-354H408v-65h113v65m0 90H408v-69h113v69m0 78H408v-58h113v58m171-168H586v-65h106v65m0 90H586v-69h106v69m193 243H160l1-19c0-211-12-356-35-433C104 131 66 63 11 0L0 8c37 63 63 130 76 199 14 70 21 170 21 300 0 45-1 111-3 200l71-29h265v52c-23-15-48-28-77-39l-8 10c37 29 67 58 88 85 22 27 44 64 66 109l81-29-7-15-27-4-24-27 247 1 36 36h15l54-44v-15H621c31-21 51-36 58-43 8-7 12-17 12-29 0-9-3-18-8-25s-11-10-18-10-12 3-15 8c-5 5-12 19-21 40-6 13-19 32-40 59h-79c-20-22-40-40-59-55l73-16v-15l-30-11v-24h289l36 43h15l53-51v-14l-2 1Z"/></symbol><symbol id="練_K" viewBox="0 0 1000 1000" data-size="21"><path transform="matrix(1 0 0 -1 51 946)" d="M760 568v55H638V406h122v142l-16-3c-25-48-56-89-92-124l-12 7c29 54 48 111 59 170l61-30m-300 19 9 9c66-58 99-101 99-130 0-27-9-41-26-41-13 0-23 12-29 37-12 51-30 92-53 125m-9-181h122v217H451V406m-202-73 11 4c47-57 71-106 71-145 0-13-3-24-10-34-6-9-13-14-20-14-15 0-22 14-23 42-1 47-11 96-29 147M21 712l38-11c33 66 61 127 82 183l78-46-6-13-27-2L79 692c35-17 53-41 53-70 0-9-2-17-7-24s-10-11-15-11c-9 0-16 5-21 14-20 37-32 58-37 65s-16 19-35 36l4 10M0 463l64 3c84 132 148 241 193 328l80-50-7-14h-34L93 466l172 19c-15 24-28 43-39 58l10 8c24-15 41-26 50-33 9-6 20-14 31-24 12-10 20-20 23-29 4-9 6-20 6-32 0-11-3-22-10-31-6-9-13-13-21-13-11 0-21 16-32 49-1 5-4 13-9 22l-62-17V33l-11-14-43-11-10 7v412l-94-22-11-30H32L0 463M16 75 3 81c23 74 36 163 37 268l86-24-2-14-22-9c-11-60-23-104-34-133s-28-60-52-94m288-9-10 12c64 47 115 92 153 136s75 101 112 170H450v-25l-6-7-46-11-13 9v316l67-21h121v103H344v22h229v121l102-20v-15l-37-15v-71h155l36 43h14l55-53v-12H638V645h118l26 24h16l47-40v-12l-21-18V368l-6-9-45-13-13 6v32H640c46-68 86-119 120-154 35-34 79-67 133-99l-2-14c-17-3-30-8-38-13s-17-14-26-27c-40 32-74 66-101 103s-56 90-88 159V24l-8-11-48-13-9 5v270c-38-44-74-79-109-106-34-27-87-61-160-103Z"/></symbol><symbol id="羚_K" viewBox="0 0 1000 1000" data-size="21"><path transform="matrix(1 0 0 -1 54 951)" d="M0 674v21h211l69 199 83-37-3-14-29-5-100-143h77l39 46h13l55-53v-14H226V530h53l40 45h14l47-48c36 53 65 109 87 166 23 58 46 128 69 209l100-35v-13l-19-5c58-139 149-246 274-323l-3-12c-21-2-36-5-45-10-9-4-18-12-29-25-53 51-95 102-126 153-30 51-60 120-89 207l-5 2c-48-113-85-189-111-230h127l29 40h13l50-49v-13H472c-45-67-96-124-155-171l-11 9 65 82H227l-9-168 188 21 2-13-197-50c-17-70-37-125-62-164S82 52 23 1L13 9c44 55 75 100 93 136 18 37 32 84 41 141l-96-21-8-26-14-4-24 89 148 14c4 52 7 109 8 171H26v21h135v144H0m33 196 7 9c45-19 77-36 94-51 18-15 27-33 27-52 0-28-9-42-27-42-10 0-22 16-36 49-12 29-34 58-65 87m339-446v22h334l32 32h14l52-44v-14l-24-18V184c0-24-7-42-21-53-13-11-39-19-78-26l-8 9v26l-80 33 3 12 78-7c2-1 7-1 15-1 17 0 26 11 26 33v214H561l1-394-5-12-53-18-7 5v419H372Z"/></symbol><symbol id="聆_K" viewBox="0 0 1000 1000" data-size="21"><path transform="matrix(1 0 0 -1 50 949)" d="M381 430h389l33 33h16l49-41v-14l-23-16V155c0-21-5-37-14-47s-26-19-51-26c-15-4-29-8-43-13l-10 8v31l-68 27 2 13 79-6c15-1 26 1 31 7 6 6 9 18 9 35v224H605l-1-378-4-13-49-16-11 5v402H381v22m-14 92-8 8c53 55 94 109 123 160s57 121 85 208l95-36-3-13-29-10c39-65 78-115 117-151 40-35 91-66 153-92l-3-14c-23-3-43-16-62-38-52 31-94 68-125 111s-63 97-95 163c-39-75-77-134-114-178-37-43-81-83-134-118m91 28v22h216l42 47 11 1 57-55v-15H458M354 852l39 43h12l53-52v-15H350l-4-811-54-17-6 6v267L59 191l-4-28-15-4-40 91 83 14v565H21v23h333m-68-23H147V663h139v166m0-189H147V473h139v167m0-190H147V274l139 24v152Z"/></symbol><symbol id="聯_K" viewBox="0 0 1000 1000" data-size="21"><path transform="matrix(1 0 0 -1 55 944)" d="M0 814v22h278l34 37h11l47-43v-16h-86l-7-793-46-21-10 6v299L55 219l-2-27-13-4-38 82 43 12v532H0m221-489v131H109V295l112 30m0 152v160H109V477h112m0 181v156H109V658h112m189-384h73c4 58 6 99 6 122v89l94-21v-14l-31-11v-63c0-97-18-175-55-232C461 87 401 39 316 1l-9 10c53 35 92 70 118 107 27 37 45 82 55 135h-70l-1-33-6-13-50-17-6 7-1 267 95-14v-14l-31-13V274m106 523 79-56-6-15-32-1-143-147 100 6c-10 15-22 30-36 45l9 8c65-32 98-63 98-94 0-25-10-38-29-38-9 0-14 5-16 14-4 13-10 27-17 43l-165-48-8-25-12-1-24 84 74 5 128 220m-178-48 8 10 28-13c35 52 64 99 88 141l63-51-7-10h-19l-105-89c28-16 42-33 42-51 0-21-5-31-15-31-11 0-24 13-37 38-10 17-25 36-46 56m258-167 49 3c67 87 121 161 160 221l65-64-6-12-25-1-161-144 131 4c-7 9-19 23-36 42l8 9c2-1 12-7 29-16 53-28 80-55 80-81 0-9-3-18-9-27s-12-14-18-14c-8 0-15 7-20 20-9 23-17 41-25 53l-175-54-3-23-17-4-27 88m24 190 8 10 24-13 83 119 66-48-6-11h-27l-97-69c33-19 49-39 49-58s-7-29-21-29c-9 0-18 10-28 31-11 23-28 46-51 68m173-498v194l94-18v-11l-29-17V237l-5-13-50-14-10 7v36h-85V27l-3-8-54-12-7 5v475l96-23v-14l-32-11V274h85Z"/></symbol><symbol id="蓮_K" viewBox="0 0 1000 1000" data-size="21"><path transform="matrix(1 0 0 -1 53 945)" d="M14 806h282v84l93-16v-14l-29-13v-41h187v82l92-19v-13l-27-14v-36h177l41 43h13l51-51v-14H612v-61l-4-10-55-10-6 8v73H360v-71l-4-12-53-12-7 7v88H14v22m679-261 25 22h15l50-38v-13l-19-14 1-184-4-12-54-14-7 5v20H571v-84h217l41 42h13l50-50v-14H571V105l-5-10-51-10-8 6v121l-295-1v22h295v84H378c0-6-2-14-5-23l-48-14-11 6v282l66-23h127v81H246v22h261v56l89-16v-14l-25-11v-15h191l37 38h13l50-47v-13H571v-81h122M378 427v-89h129v89H378m0 97v-75h129v75H378m322-97H571v-89h129v89m0 97H571v-75h129v75M3 308v22h111l35 29h13l54-45v-12l-24-15V167c33-37 72-62 117-74s120-18 226-18c122 0 237 5 344 15V79c-18-15-28-34-29-58-54-3-104-4-149-4-203 0-337 12-402 35-47 17-90 51-130 101L70 44l5-36-13-8L0 65l127 91v152H3m19 204 5 13c57-12 96-23 115-34 20-11 30-27 30-48 0-25-7-39-20-40-5 0-12 5-21 15-22 26-39 44-51 55s-31 24-58 39m8 166 5 12c57-12 96-23 115-34 20-11 30-27 30-48 0-25-7-39-20-40-5 0-12 5-21 15-22 26-39 44-51 55s-31 24-58 40Z"/></symbol><symbol id="裂_K" viewBox="0 0 1000 1000" data-size="21"><path transform="matrix(1 0 0 -1 54 947)" d="M506 827H287c-15-28-31-53-47-74h139l28 22h15l53-52-4-13-30-9c-49-79-103-142-164-187-60-45-141-83-242-115l-5 12c88 41 158 84 210 131s99 110 141 188H223c-11-12-29-31-56-58 35-19 59-35 70-47 12-11 18-24 18-38 0-22-7-33-21-33-9 0-18 11-27 34-12 27-31 50-56 70-47-41-89-72-127-94l-9 10c48 38 85 74 112 109s56 83 86 144H38v23h360l40 44h16l52-51v-16m386-480H468c29-50 71-96 127-139l161 121 65-60-7-11-46 3-156-67c55-35 101-59 138-72s83-22 138-27V81c-17-7-28-14-35-20-7-7-14-18-23-34-95 33-173 73-232 122S486 264 440 347h-24c-30-32-69-69-116-111V106l241 55 1-14L220 33l-6-29-14-4-46 76 81 18v111C176 164 100 128 7 96l-7 13c71 33 131 68 180 103 50 36 100 81 150 135H5v23h391v140l102-17v-15l-38-19v-89h323l39 40h14l55-49 1-14M623 775V521l-7-12-50-10-8 7v323l97-23v-14l-32-17m12-313 3 10h73c19 0 31 4 36 12 5 9 8 25 8 48v361l97-22v-14l-33-16V494c0-28-6-48-18-60-11-11-37-23-77-34l-10 7v21l-79 34Z"/></symbol><symbol id="說_K" viewBox="0 0 1000 1000" data-size="21"><path transform="matrix(1 0 0 -1 45 946)" d="m418 312 1 273c-12-16-37-42-75-78l-12 9c33 46 58 88 75 126s35 90 53 156l87-35-2-14-34-11c-25-51-50-94-74-129l46-17h251l30 28h11c-28 42-56 110-83 205H471v23h205l30 35h12l50-47-4-14-38-11c23-59 47-106 73-141 27-35 63-69 109-102l-4-12c-17-2-28-5-35-8s-15-9-26-20c-2 3-6 8-13 15-6 8-11 14-15 19l-19-10V347l-7-7-40-9-11 5v31h-26V115c0-13 2-20 6-23 5-3 12-5 23-5h50c25 0 40 11 47 34l30 93 15-3-6-115 32-18V62c-25-18-49-27-72-27H726c-31 0-51 5-62 16-10 11-15 32-15 64v252h-75c-1-32-3-61-7-87-4-25-11-52-21-81s-24-54-41-77-39-45-68-66c-28-21-61-40-100-56l-7 12c123 72 183 190 180 355h-31v-38l-6-17-43-9-12 9m-87-44V78l-10-12-40-8-10 5v37L96 99V46l-8-16-45-12-11 12v329l61-33h168l27 26h15l54-48v-15l-26-21m-59-146v182H96V122h176m210 269h255v179H482V391m-84 330v-17H0v22h293l38 48h11l56-53m-51-129v-15H46v23h204l34 43h14l49-51m-4-133v-13H55v23h189l36 43h13l50-53m0 380v-13H55v23h187l36 43h13l52-53Z"/></symbol><symbol id="輦_K" viewBox="0 0 1000 1000" data-size="21"><path transform="matrix(1 0 0 -1 53 948)" d="M485 180v-69h301l42 49h15l50-56V89H485V24l-7-10-47-14-10 4v85H0v22h421v69H229v-20l-8-13-47-13-9 6v256l69-23h187v61H36v22h385v72l93-16v-14l-29-15v-27h263l41 47h14l56-52v-17H485v-61h178l28 28h15l53-40v-15l-26-15V176l-4-9-48-15-13 6v22H485m183 86H485v-64h183v64m-439 0v-64h192v64H229m439 85H485v-63h183v63m-247-63v63H229v-63h192M36 799l173 1c3 51 4 82 5 93l93-18v-14l-28-10-8-52h66l36 37h13l42-44v-15H268c0-1 0-2-1-4s-1-6-2-11-1-9-2-14c-5-25-10-47-16-66h100l39 40h14l39-47v-15H242l-5-9c75-25 123-44 143-58 21-15 32-36 32-62 0-23-6-34-18-34-5 0-12 5-20 15-30 38-53 64-70 78-16 14-41 29-75 45-30-50-59-87-87-111-27-23-67-46-119-68l-7 13c46 28 80 55 103 82s44 63 62 108L3 660v22h185c9 27 15 58 20 95H36v22m437 0h126l2 33 6 63 89-18v-13l-27-10c-1-15-4-33-8-55h105l39 46h13l50-51v-17H659c-5-31-12-62-22-95h156l38 45h12l50-51v-16H647c31-30 64-52 97-66 33-13 83-25 149-35v-12c-21-9-37-26-50-51-93 31-165 84-218 159-18-32-37-56-57-73-19-17-51-36-95-58l-9 10c32 25 55 46 68 62 14 16 27 37 40 64H455v22h123c8 30 14 62 18 95H473v22Z"/></symbol><symbol id="轢_K" viewBox="0 0 1000 1000" data-size="21"><path transform="matrix(1 0 0 -1 53 948)" d="M337 335h224v89l92-19v-15l-32-17v-38h153l41 45h15l48-48v-18H629c41-60 79-105 115-136 37-31 86-59 147-85l-3-14c-16-3-28-6-35-11s-16-15-27-30c-35 23-66 48-93 77-26 29-46 54-60 77-13 23-31 55-52 96V25l-4-9-45-14-11 9v230c-45-50-85-89-122-116-36-27-86-55-150-84l-8 9c67 47 117 88 152 124s69 83 104 140H337v21M82 632h44v111H0v20h126v132l88-18v-13l-27-15v-86h46l36 47h14l41-47v-20H187V632h43l26 23h13l47-45v-11l-23-15V349l-4-14-43-13-13 7v26h-46V233h59l43 46h9l47-51v-16H187V22l-5-8-48-14-8 9v203H0v21h126v122H79v-20l-7-13-44-13-10 5v341l64-23m-3-256h47v104H79V376m154 0v104h-46V376h46M79 502h47v108H79V502m154 0v108h-46V502h46m66-30 26 4 54 113c-19 2-30 10-35 24-9 24-15 40-20 47s-17 21-36 41l9 11 35-14c21 56 41 115 61 176l77-33-3-14-23-2-94-138c17-9 28-17 33-25 6-8 9-20 10-36l48 115 56-37v99l46-18h15l19 107 72-29-3-15h-22l-42-63h30l25 25h16l43-37v-12l-19-13V461l-4-11-49-14-7 8v24h-59v-24l-6-10-48-12-7 5v250h-19L353 481l70 6c-7 13-14 27-21 42l10 7c49-29 73-55 73-78 0-27-7-40-21-40-13 0-21 11-25 32 0 1 0 2-1 3-1 2-1 4-2 6s-1 4-2 6l-89-36-20-21-26 64m318 18v129h-59V490h59m0 150v123h-59V640h59m62 63 8 9 23-9 58 172 81-39-3-11h-28l-91-134c35-21 53-43 53-66l50 118 63-37-5-12h-16L736 493l92 11-30 54 9 7c35-23 57-40 68-52 11-11 16-25 16-42 0-11-3-21-9-31-6-9-12-14-19-14-8 0-15 13-21 38-1 2-3 9-8 21l-100-43-18-20-30 64 26 7 52 101c-12 3-21 7-27 12-5 6-12 18-20 37-10 21-23 41-38 60Z"/></symbol><symbol id="連_K" viewBox="0 0 1000 1000" data-size="21"><path transform="matrix(1 0 0 -1 57 943)" d="M508 671v92H232v21h276v102l92-15v-13l-29-16v-58h190l39 39h17l51-45v-15H571v-92h141l26 31h17l59-45v-11l-29-24V361l-4-11-48-16-12 6v31H571V266h214l35 40h13l53-49v-14H571V122l-6-12-50-10-6 4-1 139H234v23h274v105H367v-28l-7-13-49-16-9 4v372l60-19h146m0-156H367V393h141v122m0 135H367V537h141v113m213-135H571V393h150v122m0 135H571V537h150v113M881 97l3-12c-21-13-34-34-38-62-67-3-141-5-224-5-124 0-216 9-277 26S228 95 175 146L67 37l3-30-13-7L0 63l128 83v210H4v21h118l32 33h14l51-43v-15l-26-20V168c36-37 78-63 125-77 48-13 119-20 213-20 95 0 211 9 350 26M28 635l4 12c8-1 17-2 27-5 89-19 133-47 133-85 0-27-6-40-19-40-9 0-18 6-28 18-20 27-37 46-51 57-13 12-35 26-66 43m16 234 4 12c47-7 86-18 115-33 30-15 45-34 45-57 0-27-6-40-19-40-9 0-18 6-28 18-20 27-37 47-51 58-13 11-35 25-66 42Z"/></symbol><symbol id="鍊_K" viewBox="0 0 1000 1000" data-size="21"><path transform="matrix(1 0 0 -1 43 960)" d="M914 89V77c-16-1-28-5-36-12s-16-20-25-39c-64 62-106 107-126 134-20 28-46 77-79 147V30l-8-16-45-14-12 9 1 302c-35-50-84-100-146-150S312 69 245 35l-4 12c133 99 234 207 305 324h-85v-39l-7-14-40-12-13 9 1 345 70-26h112v120H374v22h210v143l96-17v-13l-32-18v-95h136l41 42h11l58-51v-13H648V634h115l30 28 12-1 53-42v-14l-22-19V358l-10-16-39-11-15 9v31H660c34-78 69-138 106-179s87-75 148-103M17 350l9 10c76-63 114-114 114-153 0-13-4-24-11-33s-14-13-20-13c-12 1-24 24-37 69-9 28-27 68-55 120m748 200-2-14-31-8-63-135h103v219H648V425l50 165 67-40M461 393l123-1v220H461v-32l42-38c40-35 60-67 60-96 0-12-3-22-9-31s-13-13-22-13-15 4-20 12c-4 8-9 25-15 51-3 15-15 40-36 75V393M228 859l-10-18c66-31 111-55 136-74 25-18 37-41 37-69 0-9-3-18-8-26-5-7-10-11-17-11-11 0-22 11-34 33-15 27-28 46-41 58-12 12-40 33-83 63-2-3-6-9-11-18-5-8-8-14-11-18-34-56-58-94-71-114l-2-3c-2-3-5-6-9-11-3-5-7-10-12-15h176l32 34h14l50-45v-11H240l-17-21V470h62l35 38h12l51-50v-10H223V174l120 33 3-17L68 62l-6-42-12-1-49 93 163 44v292H0v22h164v144H71l-49-58-10 8c41 69 71 124 90 165 19 42 44 105 74 188l81-37-1-11-28-10m18-658-10 7c29 72 50 138 63 198l80-47-4-16-31-4c-25-48-57-94-98-138Z"/></symbol></svg>