<svg xmlns="http://www.w3.org/2000/svg"><symbol id="了_K" viewBox="0 0 1000 1000" data-size="21"><path transform="matrix(1 0 0 -1 111 922)" d="M0 805h645l43 38h16l74-66-10-15-41-3-257-211 17-5v-12l-33-16V113c0-39-8-66-23-80-15-15-48-26-98-33l-9 8v31L223 78l2 13 95-11c15-1 25-2 30-2 13 0 22 2 27 6 6 4 9 9 10 15 1 7 2 19 2 36v435l62-12c71 75 133 150 185 224H0v23Z"/></symbol><symbol id="例_K" viewBox="0 0 1000 1000" data-size="21"><path transform="matrix(1 0 0 -1 62 932)" d="m187 864 88-35-4-14-29-6c-30-71-59-130-87-179l27-11v-14l-22-16V26l-6-10-50-16-8 8v539c-18-26-39-53-64-80-7-7-14-15-20-22l-12 8c44 65 79 126 105 183s53 133 82 228m417-306-24-4c-32-123-78-226-138-308-60-81-142-153-246-216l-9 11c54 46 97 88 130 127s67 87 100 144c-11 3-20 6-25 11s-13 18-25 38c-13 22-34 42-64 61l5 12c54-16 88-30 102-41 15-11 23-29 24-54 40 85 67 166 81 241H376c-35-79-87-155-155-227l-12 9c45 63 78 126 99 187s41 136 58 223H266l-1 22 286 1 41 41h13l48-47v-17H442c-22-71-35-113-40-126-4-13-10-27-17-43h126l27 25h13l57-56-4-14m93 122V187l-7-10-48-12-9 7v555l90-19v-13l-26-15m150 98V112c0-33-6-56-18-68s-39-22-81-30l-10 5 1 30-93 31 2 15 84-7c21-2 34 1 41 8 7 8 10 24 10 47v684l93-23v-14l-29-12Z"/></symbol><symbol id="僚_K" viewBox="0 0 1000 1000" data-size="21"><path transform="matrix(1 0 0 -1 53 947)" d="m164 890 90-34-4-18-27-3c-26-79-54-152-85-218l31-11v-12l-25-16V25l-7-11L89 0l-9 6v501c-19-29-41-61-64-94l-16 7c27 52 52 106 73 162 21 57 37 105 48 144s26 94 43 164m31-872-9 10c73 62 134 132 183 211l80-54-9-13h-34c-36-38-68-67-97-88-28-21-66-43-114-66m-20 414-8 11c75 53 136 108 184 165-17 9-34 24-49 47-17 24-40 46-70 65l7 11c52-11 87-21 106-31s31-26 38-49c27 45 46 81 56 107H216v21h228c9 25 19 64 30 115l94-25-2-13-29-12-26-65h275l37 49h14l56-54 1-16H596c24-43 52-81 85-112 47 37 85 72 116 105l62-57-9-11-31 5-120-61c63-50 126-86 189-109l-2-13c-26-5-47-19-62-41-21 13-50 36-87 67l-1-247-5-15-47-15-12 7v22H567l1-192c0-25-6-44-19-55s-39-22-80-32l-15 8v28l-81 35 2 14 79-4c20-1 33 1 40 7s10 19 10 39l-1 152H389l1-15-7-14-43-15-15 7v276c-41-32-91-62-150-90m214-15V304h283v113H389m0 122V439h283v100H389m183 219h-69c-19-43-37-77-52-101-15-23-37-52-67-86l11-10h269l17 15c-48 58-84 119-109 182m82-557 7 14c79-30 132-55 161-75 29-19 43-42 43-68 0-31-6-46-19-46s-30 15-52 46c-29 39-75 82-140 129Z"/></symbol><symbol id="六_K" viewBox="0 0 1000 1000" data-size="21"><path transform="matrix(1 0 0 -1 55 888)" d="M10 0 1 10c65 52 117 105 157 159s83 130 129 227l85-49-4-14-33-4c-52-83-101-148-148-195S81 43 10 0m395 566v209l100-24v-15l-36-17V566h285l53 61h15l68-69v-14H0v22h405m140-200 9 10c107-69 192-140 255-212 31-35 46-67 46-98 0-39-10-59-29-59-11 0-26 22-45 65-21 51-52 99-91 145s-88 96-145 149Z"/></symbol><symbol id="劉_K" viewBox="0 0 1000 1000" data-size="21"><path transform="matrix(1 0 0 -1 53 948)" d="m45 843 62-20c48 25 91 49 128 73l56-44-6-13-34 1c-35-12-82-25-141-39V607l119 50c-11 25-29 56-53 93l10 9c27-19 47-34 59-43s23-20 32-33 14-26 14-39c0-11-3-22-9-31s-12-14-19-14c-10 0-19 12-26 37L62 535v-32l-14-5-46 72 43 18v255M8 271l-8 12c61 40 112 80 151 120 40 40 83 93 129 159l74-33-5-14-16-3c31-8 64-19 101-33s61-24 70-31c20-15 30-33 30-53s-5-30-16-30c-7 0-15 4-25 12-39 34-69 57-88 70s-50 30-95 53c-47-53-92-96-134-130h191l35 32 11-1 40-39 1-14H317l1-80h117l38 36h11l46-46v-13H317l1-127 41 4 44 116 75-32-6-15-32-4-51-63 178 23 3-14L67 29 62 2 46 0 8 81l159 17-9 15c-11 31-20 52-25 61s-16 26-33 49l11 8c65-37 98-68 98-93 0-9-5-21-14-36l59 8-1 135H59v23h195l-1 80H148c-41-27-87-52-140-77m224 260-11 10c46 44 79 87 98 129 20 42 31 93 32 152h-55v23h188l25 24h15l54-44-1-15-25-13c-2-37-4-65-6-85-1-19-4-39-7-60-3-20-7-35-12-44-4-9-10-19-19-28-8-9-17-16-28-21-10-5-23-9-40-14l-15 6v25l-53 23 3 12 44-4c25-2 42 8 53 29 11 22 16 64 17 126 0 2 1 22 2 59h-77c-7-69-22-124-47-163s-70-82-135-127m458 220-5-536-48-15-11 7v597l94-24v-13l-30-16M656 93l86-5c23-1 37 0 44 5s11 16 11 35v755l97-24v-14l-33-15V110c0-32-7-54-20-67s-42-24-86-33l-9 6-1 29-90 35 1 13Z"/></symbol><symbol id="寮_K" viewBox="0 0 1000 1000" data-size="21"><path transform="matrix(1 0 0 -1 60 945)" d="m5 336-5 13c81 43 148 89 203 139-17 5-32 17-47 37-19 26-42 46-69 60l6 12 32-8c23-5 40-10 51-13s22-9 33-18 17-19 17-32c0-11 0-18-1-21 41 40 76 80 104 120H90v22h248c18 29 38 64 61 107l88-37-6-12-31-4-39-54h346l38 44h14l56-48v-18H499c33-40 71-75 112-104 35 28 71 59 106 92l62-66-10-11-29 9-105-40c72-40 154-69 245-86v-15c-15-3-27-7-34-13-7-5-14-17-23-34-58 25-107 52-148 79V243l-8-8-48-16-8 6v29H475V83c0-21-7-37-21-49-13-12-38-23-74-34l-9 5v20l-87 41 4 13 78-9c10 0 17 0 22 1s10 4 15 9 8 12 8 22v152H264v-19l-8-8-45-15-11 4v224C144 399 79 365 5 336m606-60v91H264v-91h347m0 194H264v-81h347v81m-342 22h321c-41 34-79 78-115 133h-75c-47-57-91-101-131-133m9-287 65-45-9-13-32-3C233 94 135 50 9 11L3 24c68 30 120 57 157 81 37 25 77 58 118 100M104 789h307v101l98-18v-14l-34-16v-53h293l28 27 14-1 56-59-7-12h-33l-83-72-14 7 42 88H104c-6-47-15-84-28-111-12-27-25-40-40-40-9 0-16 4-21 12s-7 17-7 28c0 13 3 24 10 32 31 35 49 59 55 72s10 38 12 75l17-1 2-45m439-614 5 13c35-11 60-18 75-21 77-17 133-36 169-57 25-14 37-34 37-60 0-25-6-38-18-38-8 0-19 6-33 19-46 45-124 93-235 144Z"/></symbol><symbol id="尿_K" viewBox="0 0 1000 1000" data-size="21"><path transform="matrix(1 0 0 -1 53 940)" d="m712 851 34 29h13l60-42v-13l-29-22V674l-7-8-48-15-9 7v32H177v-65c0-65-2-119-5-164-3-44-9-93-20-148-10-55-27-106-50-154-23-47-54-92-91-135L0 31c47 81 77 166 91 257 15 91 22 208 22 351v239l67-27h532m14-140v118H177V711h549M87 49l-7 11c83 64 144 127 183 188 40 61 69 138 88 231H192v21h159l31 28h13l58-56-4-14-29-10c-29-97-70-175-121-235S178 98 87 49m385 625 101-20v-15l-37-15V519c21-46 40-85 57-117 67 53 129 107 184 162l74-64-9-13-38 6-202-110c41-68 82-123 125-165 43-41 99-80 166-115l-4-12c-19-1-34-3-44-8-10-4-22-13-36-26-66 46-118 98-157 155-38 58-77 140-116 246V88c0-28-7-48-22-59S469 8 422 0l-11 7v26L310 69v13l131-7c12 0 20 3 24 10 5 7 7 22 7 43v546Z"/></symbol><symbol id="惡_K" viewBox="0 0 1000 1000" data-size="21"><path transform="matrix(1 0 0 -1 63 930)" d="M1 361v21h272v123H156v-30l-9-12-45-12-10 7v251l71-24h110v117H20v21h722l33 37h17l52-44v-14H555V685l123-1 32 32h13l51-45v-12l-23-13V493l-10-13-42-10-13 7v28H555V382h199l38 38h16l54-44v-15H1m489 441H338V646l-12-13-41-11-11 6v34H156V526h112l26 24h16l46-37v-14l-18-19v-98h152v170l73-26h123v136H555v-23l-7-10-49-10-9 11v172M228 312l94-23v-13l-31-17V110c0-35 21-53 62-53h197c33 0 57 4 70 11 13 8 24 24 32 48l25 78 15-6-5-118 26-22V31c-17-13-34-22-51-25-17-4-41-6-74-6H329c-67 0-101 28-101 84v228M95 257h15c2-19 3-34 3-46 0-28-3-54-8-77S94 93 87 79c-7-13-15-25-24-34-8-9-15-16-21-19-6-4-11-6-14-6C9 20 0 36 0 68c0 13 2 22 5 27 4 5 16 17 37 36 27 25 44 67 53 126m292 33 9 13c50-13 85-26 106-41 21-14 32-32 32-53 0-11-2-21-7-30s-10-13-16-13c-11 0-21 8-32 25-20 29-34 48-41 55-7 8-24 23-51 44m339-50 9 9c93-56 139-107 139-152 0-11-4-23-12-34-7-11-15-17-24-17-10 0-19 12-26 36-10 33-20 59-30 77s-29 45-56 81Z"/></symbol><symbol id="戮_K" viewBox="0 0 1000 1000" data-size="21"><path transform="matrix(1 0 0 -1 55 941)" d="m8 277-8 11c64 45 114 89 151 130s70 92 101 153l78-39-4-12-32-6-9-10 47-20c2-1 9-3 21-8 13-5 23-9 31-12s19-8 32-14 25-12 34-18 18-13 27-20 16-14 21-22 7-16 7-24c0-28-6-42-17-42-7 0-17 6-29 18-32 33-55 56-70 68-14 12-41 31-80 56l-34 22c-39-51-78-91-115-120S72 308 8 277M33 0l-9 12c93 25 171 54 234 88 64 34 125 79 182 134l65-53-10-10-30 1c-65-50-130-88-196-114C203 31 124 12 33 0m333 320 68-59-10-10-33 2c-53-40-103-69-148-88-45-18-115-37-208-58l-7 12c87 31 153 59 198 86 46 27 93 66 140 115M45 205l-7 10c61 27 108 52 143 77s73 60 113 105l59-59-6-8-30 4c-54-40-100-69-138-87-37-17-82-31-134-42m745 372 27 41 14 2 58-41v-16l-239-21c10-91 27-172 51-245 33 47 64 100 95 159l71-46-8-12-21-4-113-150c14-31 30-60 48-87s30-40 36-40c7 1 14 12 20 33l20 70 12-5 1-136 28-46-8-12c-14 0-25 0-34 1-8 1-20 4-35 10s-29 15-41 27c-12 11-26 29-43 52-16 23-32 52-48 86-47-48-93-86-137-115S446 27 383 2l-11 11c73 41 129 78 168 111s78 75 117 127c-33 89-54 184-63 287l-182-18v22l179 17c-9 84-14 190-15 318l90-17v-13l-26-18c-1-13-1-35-1-66 0-63 4-130 11-200l140 14M677 792l7 8c53-21 88-38 107-51s28-30 28-52c0-27-8-41-23-41-9 0-24 17-44 51-13 22-38 50-75 85m-164 23V632c0-18 0-29 1-34 0-3 0-5 1-6 0-9-6-17-18-23s-23-9-33-9-15 5-15 15v80c-48-40-90-69-126-87l-7 17c45 29 89 72 133 129v71c-47-55-99-99-158-132l-8 18c57 37 104 91 141 164H287v22h164c9 11 15 17 18 19 3 3 8 4 13 4 7 0 19-11 38-34 9-11 14-18 14-20 0-3-7-7-21-11m-251-4V603c0-8-2-13-5-16s-11-7-24-13c-9-3-15-5-20-5-12 0-18 5-18 15l3 76c-48-41-109-77-184-110l-7 17c73 35 137 88 191 161v65c-40-39-101-77-184-116l-9 15c78 45 136 94 175 146H15v22h178c18 15 31 22 38 22 9 0 17-5 24-15l20-22c8-9 12-16 12-19s-8-8-25-15Z"/></symbol><symbol id="料_K" viewBox="0 0 1000 1000" data-size="21"><path transform="matrix(1 0 0 -1 53 948)" d="m10 159-9 9c51 69 88 130 113 182s46 115 64 189H0v21h190v335l103-18v-14l-39-20V604c47 67 92 138 136 213l76-54-6-14-38-5-168-175v-9h101l35 44h15l55-51v-14H254v-63l34-18c43-22 72-41 89-57s25-35 25-56c0-27-7-40-20-40-15 0-31 18-48 55-13 27-40 58-80 94V25l-5-11-49-14-10 7v375C137 297 77 222 10 159m12 609 9 9c49-32 83-58 102-78s28-41 28-63c0-13-3-25-10-36s-14-16-23-16c-13 0-25 23-37 69-9 36-32 74-69 115m345-495 343 97v525l98-21v-14l-34-19V385l16 10 21 55 10 4 68-39 4-14-119-40V33l-5-15-51-15-9 7 1 337-337-93-6 19m116 271 8 10c51-19 87-36 106-51 20-15 30-33 30-54 0-11-3-21-10-30-6-9-13-13-21-13-12 0-24 13-36 38-17 40-43 73-77 100m23 229 6 10c20-6 35-11 45-14 11-3 23-8 38-15 15-6 27-12 34-18 7-5 14-12 19-21 6-9 9-18 9-28 0-11-3-21-8-31-5-9-11-14-18-14-9 0-22 14-39 41-24 37-53 67-86 90Z"/></symbol><symbol id="暈_K" viewBox="0 0 1000 1000" data-size="21"><path transform="matrix(1 0 0 -1 54 943)" d="m738 376-23-18V182l-5-10-54-8-5 8v25H473v-78h294l38 48h17l54-53V98H473l1-77-3-10-57-11-7 9 1 89H4v21h404v78H234v-23l-6-10-53-10-7 7v270l73-24h167v64H99v21h309v88H90c0-11-1-22-2-35s-4-29-8-50c-3-20-10-37-20-50-9-13-21-20-36-20-16 0-24 12-24 35 0 19 5 34 16 45 25 26 40 45 45 58s8 37 9 72h17c1-9 2-21 3-34h707l23 29h15l56-64-9-16-33-1-76-63-11 8 35 86H452l53-10v-15l-32-15v-48h171l35 43h15l53-48v-16H473v-64h170l25 25h16l54-41v-15M408 219v73H234v-73h174m0 94v73H234v-73h174m65-94h178v73H473v-73m0 94h178v73H473v-73M174 626v256l72-24h385l31 27h17l51-41v-16l-23-17V645l-9-14-43-7-12 10v30H238v-29l-9-8-46-10-9 9m64 59h405v66H238v-66m0 87h405v65H238v-65Z"/></symbol><symbol id="杻_K" viewBox="0 0 1000 1000" data-size="21"><path transform="matrix(1 0 0 -1 57 934)" d="m701 809 34 34h13l57-48-4-15-29-18-16-302h22l33 45h13l53-55v-12H755L735 59h48l39 46h12l51-56V37H301v22h100l35 379H333v22h105l30 326H341v23h360m-169-23-30-326h190l16 326H532m-32-348L465 59h207l19 379H500M141 644v224l99-20v-14l-35-16V644h44l40 51h12l59-59v-15H205V499c78-39 117-82 117-129 0-11-3-21-8-30s-10-13-16-13c-13 0-23 11-30 32-12 33-22 56-29 70-7 15-19 30-34 45l-1-449-8-12-48-13-7 7v398c-39-87-80-157-123-212l-10 7c67 135 109 276 127 421H0v23h141Z"/></symbol><symbol id="柳_K" viewBox="0 0 1000 1000" data-size="21"><path transform="matrix(1 0 0 -1 63 938)" d="M787 775H678l-6-752-48-15-10 9v811l68-30h97l30 31h13l52-50v-12l-22-15V337c0-36-4-60-11-71s-24-20-52-27l-33-8-8 5v28l-56 27 1 13 56-5c13-1 22 1 29 7 7 7 10 17 10 32l-1 437M134 1l-7 7v414C88 345 49 287 11 247l-11 9c53 98 94 227 121 387H7v23h120v210l100-17v-15l-35-20V666h27l37 37h12l44-44v-16H192V516c43-17 72-32 88-46 17-14 25-32 25-53 0-11-3-21-9-30s-12-13-19-13c-9 0-19 12-30 36-12 28-30 55-55 82V30l-5-15-53-14m198 817 63-25c45 23 85 48 122 75l61-47-6-11-34 3c-45-17-92-30-141-41V338l84 27c2 31 3 54 3 70 0 14 0 39-1 76s-1 62-1 76v43c0 55 0 95 1 118l90-25v-15l-26-11V473c0-123-23-220-70-292C431 110 361 49 266 0l-7 11c67 47 117 96 150 145s56 111 69 185l-163-87-2-30-15-4-42 83 76 22v493Z"/></symbol><symbol id="樂_K" viewBox="0 0 1000 1000" data-size="21"><path transform="matrix(1 0 0 -1 53 942)" d="M5 37 1 50c75 31 140 66 194 104s111 89 172 154L0 309v22h411v107l98-17v-16l-34-18v-56h306l42 52h15l55-58v-17H505c57-65 112-112 164-139 53-27 123-47 212-58V99c-25-8-41-15-49-21s-15-17-22-33c-78 25-143 59-194 100-51 42-96 97-134 166h-7V28l-3-14-53-14-8 8v243c-62-55-123-99-182-130S96 62 5 37m8 450 73 2c41 78 81 160 121 247l74-40-5-13-29-4-137-190 121 9c-2 5-9 24-20 55l10 7c46-41 69-78 69-111 0-24-8-36-23-36-12 0-21 16-27 49l-4 16-173-45-10-24-15-1-25 79m2 210 6 10 29-11c33 63 61 121 83 173l74-32-3-15-31-6L69 689c40-22 60-44 60-67 0-32-9-48-26-48-8 0-17 12-26 35-11 29-32 59-62 88m303 107 68-31h24l19 111 76-26v-15l-31-7-39-63h60l30 30h15l55-47v-16l-25-12-1-282-5-13-49-10-10 8v20H383c0-12-2-22-5-30l-51-9-8 9-1 383m65-176h122v122H383V628m0-154h122v131H383V474m216 28 71 1c55 99 96 180 125 241l82-44-8-13-32-1-97-129-42-54 120 6c-3 10-11 28-24 54l9 6c51-43 76-77 76-103 0-25-8-38-24-38-13 0-22 14-28 41l-1 7c-1 5-3 10-4 15l-164-47-11-26-15-2-33 86m6 216 6 11 32-10c31 55 57 105 78 150l69-44-5-12h-28l-99-102c41-23 62-47 62-71 0-29-8-44-23-44-11 0-20 9-27 27-11 35-33 66-65 95Z"/></symbol><symbol id="流_K" viewBox="0 0 1000 1000" data-size="21"><path transform="matrix(1 0 0 -1 54 939)" d="m200 29-8 10c97 85 145 211 145 378v62l93-15v-14l-29-15c-3-57-10-107-20-151-9-44-20-79-32-106-11-27-26-50-45-71-18-21-34-36-49-46s-33-21-55-32m83 716v23h224v110l93-16v-12l-29-17v-65h202l38 44h13l60-53v-14H521l50-33-6-14-41 3-118-124 303 22c-23 26-51 52-85 78l8 11 43-19c97-42 145-86 145-133 0-10-2-19-7-27-4-8-9-12-15-12-11 0-27 16-48 47-3 5-12 17-26 35l-393-66-15-26-14-1-30 84 106 7 107 168H283M489 52v431l90-17v-13l-26-15V66l-7-7-49-14-8 7m157 430 89-15v-15l-26-15V132c0-21 3-33 9-37 6-3 24-5 53-5 28 0 49 20 62 59l26 82h14L859 94l32-12V69c-12-15-24-24-37-28-13-5-32-7-57-7h-69c-31 0-53 5-65 14-11 9-17 27-17 54v380M114 351l160 480 14-5-142-571c-6-24-9-45-9-63 0-20 6-48 17-84 8-25 12-44 12-58 0-13-5-24-14-34-9-11-20-16-31-16s-21 6-29 17c-7 11-11 25-11 41 0 5 1 16 3 33 3 21 4 40 4 59 0 20-2 36-6 48-3 13-10 22-19 29s-18 12-26 15-20 6-36 9l3 17c2 0 7 0 16-1s14-1 15-1c20 0 35 6 46 17s22 34 33 68M0 596l5 13c6-3 25-9 56-18 62-19 93-47 93-85 0-9-3-18-8-26s-11-12-18-12c-10 0-24 14-42 41-17 27-46 56-86 87m60 252 6 11c24-7 42-13 55-18s27-11 43-20c17-8 29-18 36-29s11-23 11-38c0-27-7-40-22-40s-30 15-45 44c-14 27-42 57-84 90Z"/></symbol><symbol id="溜_K" viewBox="0 0 1000 1000" data-size="21"><path transform="matrix(1 0 0 -1 52 934)" d="m292 813 64-23c53 24 104 50 151 78l58-53-9-13-38 8-162-43V557l140 41c-11 22-29 48-54 78l8 10c46-19 78-39 96-59 16-18 24-34 24-47 0-11-4-21-11-30s-15-14-23-14c-4 0-7 2-10 6-3 5-8 14-16 29-1 3-2 4-3 5l-211-97v-24l-15-3-43 75 54 15v271M791 23l-9 5v42H356V34l-6-11-49-12-9 7v409l72-23h406l27 27h14l60-44v-13l-25-22V43l-6-9-49-11M531 239H356V92h175v147m0 144H356V260h175v123m251-144H595V92h187v147m0 144H595V260h187v123m-313 52-9 10c63 48 107 98 130 151 24 53 38 121 42 206h-61v22h230l25 19h16l54-47v-16l-30-18c-11-93-20-156-27-187-4-19-8-34-12-46s-10-25-19-40c-9-14-21-26-36-35s-33-15-55-19l-14 6-6 24-73 42 6 12 59-12c9-1 17-2 23-2 15 0 29 9 40 28 12 19 21 43 27 74s10 57 13 80 5 46 6 70l3 45H700c-10-92-31-166-64-221s-88-103-167-146M7 268l33-3c17-1 31 5 44 19 13 15 24 37 33 67l123 408 13-3-107-503c-5-21-7-39-7-54 0-27 6-57 19-91 9-22 13-41 13-57 0-13-5-25-14-35-9-11-20-16-32-16s-22 5-30 16c-7 10-11 23-11 39 0 5 1 22 4 49s4 43 4 48c0 19-2 34-6 46-3 12-10 21-20 28-9 7-18 11-26 14-7 3-19 7-36 11l3 17M5 609l34-11c41-12 71-25 88-40 18-14 27-31 27-52 0-9-3-18-8-26s-11-12-18-12c-3 0-14 9-33 28-18 19-37 40-58 62-20 22-32 35-37 38l5 13m42 239 6 11 42-13c69-21 103-51 103-92 0-27-7-40-21-40-15 0-31 15-46 44-15 27-43 57-84 90Z"/></symbol><symbol id="燎_K" viewBox="0 0 1000 1000" data-size="21"><path transform="matrix(1 0 0 -1 50 943)" d="m216 411-8 13c76 47 134 94 175 142 41 49 75 112 102 189H257v22h234c9 37 17 73 23 108l93-30-2-15-31-9-17-54h236l43 48h10l53-55v-15H636c28-55 53-97 76-125 41 37 77 71 106 104l61-56-8-10-29 4-117-57c25-25 48-45 71-60s57-31 102-50l-1-12c-25-7-45-21-59-42-29 20-50 35-62 44V285l-7-12-51-13-7 4v36h-98V73c0-23-5-39-15-46s-38-16-83-27l-11 9-1 26-86 28 2 15 76-4c2-1 8-1 17-1 15 0 24 2 29 7 5 4 7 12 7 23v197H443v-19l-7-9-51-12-8 4 1 238c-49-34-103-64-162-91m214 137 14-8h265l8 11c-27 35-48 66-61 93s-27 64-42 111h-64c-16-45-32-82-49-110-16-28-40-60-71-97m13-226h268v86H443v-86m0 108h268v88H443v-88M240 3l-7 10c43 35 77 70 102 103s53 81 83 144l83-44-5-13h-29c-29-47-60-84-91-111S300 36 240 3m462 220 8 11c70-37 119-67 147-90 28-22 42-48 42-79 0-29-10-44-29-44-12 0-25 14-39 43-24 49-67 102-129 159M307 717l8 9c43-13 72-25 87-36s23-24 23-41c0-31-9-46-27-46-9 0-21 14-34 41-11 21-30 46-57 73m-96 128v-12l-33-16 2-111-2-98c27 35 55 75 84 118l65-54-6-13h-32c-37-32-74-60-111-83-1-94-7-177-16-249 51-25 86-45 106-61s30-35 30-56c0-35-9-52-27-52-9 0-20 13-31 38-18 41-46 78-83 111-13-68-29-123-48-166S63 54 26 8l-11 8c41 72 67 145 79 220 13 75 19 161 19 258 0 103-2 227-5 370l103-19M52 682h16l9-51c5-39 8-73 8-104 0-29-5-56-16-80s-22-36-35-36c-7 0-15 6-23 19-7 13-11 25-11 38 0 11 5 24 14 39 14 24 23 47 28 69 5 23 9 58 10 106Z"/></symbol><symbol id="琉_K" viewBox="0 0 1000 1000" data-size="21"><path transform="matrix(1 0 0 -1 53 943)" d="M0 754v24h268l28 36h14l46-43v-17H190V535h43l27 34 14-1 41-42v-14H190V290l144 39 5-13L65 194v-24l-15-7-43 82 119 30v237H10v23h116v219H0m468-345-27-16c-5-107-25-187-61-242S278 46 181 0l-8 12c77 49 130 99 159 150s44 121 44 210l-1 68 93-16v-15M338 715v24h211v146l103-21v-16l-39-12v-97h171l36 46h15l57-55v-15l-295 1-113-173 271 3c-37 37-72 69-105 95l8 10c68-28 119-54 153-79 35-25 52-51 52-80 0-11-3-22-9-31-5-9-12-13-20-13-9 0-16 6-22 17-5 9-19 30-43 63l-365-42-11-25-16-3-30 88 111-1 66 170H338m246-325V54l-10-11-41-17-13 7-1 403 92-19v-13l-27-14m145-4V109c0-9 2-16 7-21s11-7 16-8c6-1 15-1 28-1 18 0 30 3 37 10s14 22 20 43l24 83 13-4-10-129 29-13V55c-18-21-49-32-94-32h-63c-27 0-46 5-56 14s-15 27-15 52v351l94-23-1-14-29-17Z"/></symbol><symbol id="留_K" viewBox="0 0 1000 1000" data-size="21"><path transform="matrix(1 0 0 -1 76 943)" d="m87 813 58-23c65 23 143 55 233 96l53-59-11-15-30 8c-101-21-180-39-239-52V515l189 61c-21 34-45 65-74 93l9 11c56-31 95-58 117-79 23-21 34-44 34-69 0-12-3-23-10-34-6-10-12-15-19-15-2 0-4 1-7 2-2 1-4 3-7 6l-6 9c-1 3-3 6-6 11s-5 10-7 13c-1 3-4 8-7 15s-5 12-6 15L64 424l-4-34-14-7-46 90 87 26v314m582-450 32 32h13l59-46v-16l-26-16V30l-8-14-49-14-7 6v38H201V21l-10-11-44-10-10 8v379l72-24h460M402 195H201V68h201v127m0 146H201V217h201v124m64-146V68h217v127H466m-5 22h222v124H461V217m-15 606h307l24 23h14l56-48v-14l-29-14c-3-104-7-178-14-222-7-47-19-80-36-98-16-18-44-31-85-39l-17 5-8 28-87 41 4 11 70-11c13-2 22-3 26-3 17 0 31 5 42 16s19 30 24 55 8 47 9 64c1 18 3 45 4 82 1 14 1 24 1 31v15c1 7 1 15 1 26 1 11 1 21 1 30H626c-5-101-26-183-64-248-37-65-97-122-178-172l-9 10c58 48 102 105 132 170 31 66 48 146 51 240H446v22Z"/></symbol><symbol id="療_K" viewBox="0 0 1000 1000" data-size="21"><path transform="matrix(1 0 0 -1 53 947)" d="M15 0 6 7c19 31 33 58 43 81s21 63 33 121c13 58 22 129 28 213l-48-53 2-42-9-4-54 71 109 59c2 39 3 69 3 88l-8 313 65-26h275v66l90-14v-14l-28-12v-26h276l34 47h18l58-55v-14H170V675c0-64 0-112-1-143s-2-71-5-121c-3-49-7-89-14-118-6-29-15-62-26-99S98 123 80 92 40 31 15 0M0 672l7 7c65-43 98-82 98-115 0-9-3-19-8-28s-11-13-17-13c-11 0-21 21-31 62-7 27-24 56-49 87M150 17l-7 9c61 39 107 72 136 97s57 56 83 93l71-51-7-14-25 4c-71-53-155-99-251-138m43 659v22h231c15 35 28 69 38 102l85-31-5-13-28-8-23-50h289l30 40h16l51-48v-14H564c35-41 76-82 125-121 41 41 73 77 96 110l64-55-9-11-30 6-99-63c51-31 110-58 177-79v-12c-17-3-29-6-36-11s-16-14-26-29c-44 24-78 45-102 64V254l-10-14-43-11-11 5v20h-96V85c0-26-7-45-21-56-14-12-41-22-81-29l-12 8v23l-69 34v12l73-5c31-2 46 10 46 36v146H386v-14l-9-10-45-13-10 8v244c-22-22-63-52-124-89l-9 9c48 40 87 78 118 113-15 11-27 27-36 46-13 27-31 50-53 67l6 10 20-7c33-12 56-24 69-35s20-27 22-47c28 43 54 89 79 140H193m472-164 4 5c-57 56-101 109-134 159h-53c-43-73-78-127-107-162l20-2h270m-5-126H386V276h274v110m0 104H386v-82h274v82m-45-312 5 11c39-11 67-19 86-25 19-5 41-13 66-24s46-22 63-34c18-13 27-30 27-51 0-29-6-44-19-44-11 0-26 11-46 32-48 50-109 95-182 135Z"/></symbol><symbol id="硫_K" viewBox="0 0 1000 1000" data-size="21"><path transform="matrix(1 0 0 -1 54 948)" d="m10 353-10 7c27 46 51 96 70 151 20 55 34 102 43 141 9 40 19 93 30 158l-127-1v23l241-1 36 45h14l49-49v-18l-147 1c-17-103-41-192-70-267h91l31 34h13l54-49v-14l-26-20-1-330-4-13-49-14-10 6v44h-93l-1-34-8-12-46-14-10 6v308c-18-31-41-60-70-88m228 169h-93V209h93v313M192 0l-7 15c71 41 120 88 147 141s40 128 40 227v69l94-20v-13l-29-16-1-37c-1-45-6-86-15-121s-19-64-32-88c-13-23-30-45-52-65s-44-36-65-49-47-27-80-43m394 770h167l34 44h14l53-53v-12H532l65-32-5-14-41-4-94-149 271 7c-21 32-53 66-96 103l8 10c69-34 117-62 143-85 26-22 39-47 39-74 0-29-9-43-28-43-9 0-16 5-22 15l-36 61-347-60-10-21-13-2-28 96 102-3 72 195H310v21h212v126l91-18v-14l-27-16v-78m-70-324 92-16v-11l-28-18 1-337-10-12-46-15-9 5v404m146 3 93-19v-15l-29-17V144c0-34 9-51 28-51h46c16 0 28 13 36 38l25 79 13-2-11-115 28-16V64c-21-18-49-27-83-27h-65c-31 0-53 5-64 15s-17 29-17 57v340Z"/></symbol><symbol id="禮_K" viewBox="0 0 1000 1000" data-size="21"><path transform="matrix(1 0 0 -1 52 938)" d="m735 326 28 33h13l53-45v-13l-21-19v-98l-8-12-49-10-7 5v12H465c0-5-2-12-7-20l-50-11-8 6v193l65-21h270m9-22H465V201h279v103m86 418-1-216-9-12-46-9-8 6v24H436v-17l-8-13-51-9-5 7v310l64-25h68v108l87-18v-14l-24-16v-60h65v98l85-17v-14l-21-16v-51h58l26 33h17l54-41v-15l-21-23m-394-87v-98h68v98h-68m131 0v-98h65v98h-65m129 0v-98h70v98h-70M436 748v-91h68v91h-68m131 0v-91h65v91h-65m129 0v-91h70v91h-70M300 36h204c-3 3-8 17-15 44-4 19-16 42-36 67l8 9c63-25 95-52 95-81 0-10-3-23-10-39h92l58 133 79-34v-12l-36-6-66-81h118l39 50 13 1 52-59V14H300v22m34 368v22h451l42 51h13l55-57v-16H334M122 532l-26-11c-1-8-1-21-2-39v-41C91 288 63 161 10 60L0 66c9 35 13 53 13 55 15 84 22 191 21 322l-1 121 89-17v-15M3 638h250l43 51h13l55-58v-15H201l-1-592-8-10-47-14-9 7v609H3v22m18 181h191l40 47h13l52-55v-14H21v22m219-257 91-19v-16l-27-12V128l-5-13-51-17-8 6v458Z"/></symbol><symbol id="紐_K" viewBox="0 0 1000 1000" data-size="21"><path transform="matrix(1 0 0 -1 51 948)" d="m73 375 86-34-3-15-25-4C101 222 61 131 12 50L0 55c20 49 35 94 44 135s19 103 29 185M0 490l93 4c79 113 144 212 196 298l81-48-6-13-33 1-211-241 178 6-38 77 8 9c75-66 113-118 113-156 0-11-3-21-9-30-6-8-13-12-21-12-13 0-25 19-35 58-5 15-9 26-11 32l-75-15 1-439-8-12-46-9-10 6-1 445-110-19-6-22-13-7-37 87m271-143 11 6c37-29 67-61 91-94 25-33 37-62 37-85 0-13-3-24-10-34-6-10-13-15-21-15-15 0-26 17-31 51-6 43-32 100-77 171M784 77h18l31 43h14l51-52V55H297v22h161l20 377h-94v22l96-1 15 311H360v22h364l24 26h12l57-48v-15l-28-13-3-282h13l36 37h13l50-45v-14H786l-2-377m-259 0h197l3 377H544L525 77m21 399h177l3 310H563l-17-310M177 896l81-41-8-13-34-2L89 700c51-17 77-40 77-67 0-7-3-15-8-24s-11-13-17-13-13 6-22 19c-16 25-29 43-40 53-10 10-28 24-54 42l5 12 43-15c28 47 63 110 104 189Z"/></symbol><symbol id="蓼_K" viewBox="0 0 1000 1000" data-size="21"><path transform="matrix(1 0 0 -1 54 949)" d="m33 390-3 13c7 3 23 10 47 20s39 16 46 19 19 9 38 17c19 9 33 16 42 21s22 12 38 21c17 9 32 19 47 29s32 21 49 33l-1 88h-25c-65-69-158-122-281-159l-5 12c54 29 93 52 117 69 24 18 51 44 81 78H40v21h288l26 23h18l49-37v-14l-20-18V457l-3-11-56-13-5 7v58c-58-35-105-59-140-71-35-11-90-24-164-37m398 98-5 13c43 20 79 40 106 61s59 50 95 89H453v21h282l28 25h14l54-42v-15l-23-16V444l-3-12-56-10-7 9v82c-64-41-137-67-218-79l-4 11c84 29 158 74 222 134l1 72-35 1c-50-54-92-91-125-110s-83-37-152-54M94 1v13c69 5 134 14 193 25 60 11 109 22 146 33 38 11 75 25 112 42 37 18 63 32 79 42 17 10 37 23 62 40l76-59-13-15-24 5c-39-17-66-29-83-35C488 31 323 0 147 0c-25 0-42 0-53 1m9 81v14c106 17 191 38 256 63s130 61 194 108l71-57-8-12-36 3c-77-41-152-71-223-89-71-17-156-27-254-30M4 215l-4 14c105 29 189 63 253 101s120 82 168 133l77-36-5-15-31-7c63-49 125-85 188-109 63-23 143-41 242-53v-11c-20-11-34-19-41-26s-13-17-20-32c-87 23-159 50-215 81-55 31-112 77-170 137-79-55-150-95-213-120S93 228 4 215m104-42-3 14c73 20 131 41 175 62 45 21 94 53 148 95l67-56-13-13-23 9c-58-33-113-57-165-74-52-16-114-28-186-37m483 724 101-22v-15l-40-16v-36h133l39 43h12l52-48v-17H652v-63l-5-12-48-10-8 6v79H462v22h129v89m-239-89 36 43h15l48-46v-19H289v-66l-5-12-48-11-8 3v86H0v22h228v89l101-20v-15l-40-16v-38h63Z"/></symbol><symbol id="遼_K" viewBox="0 0 1000 1000" data-size="21"><path transform="matrix(1 0 0 -1 58 947)" d="M231 768v21h234c17 39 29 74 38 105l90-26-6-14-26-6-31-59h256l29 40h12l47-46v-15H587c22-36 51-72 88-109 28 27 57 59 88 96l56-51-4-11h-33l-90-47c57-45 120-82 191-110l-5-10c-14-3-24-7-30-12-5-5-12-14-21-29-26 16-57 38-92 66l-1-190-7-12-44-13-13 8v27h-83V198c0-27-7-46-21-57-13-11-40-20-79-27l-12 6v22l-65 30 4 12 73-7c12-1 21 1 27 7 7 7 10 18 10 33v154H419c0-11-2-21-5-31l-49-12-12 8v222c-39-37-82-71-127-101l-10 10c55 50 101 98 137 143-9 7-20 20-35 40-17 23-39 44-67 62l6 11c51-11 85-23 100-35 15-11 23-27 23-48 27 35 53 77 78 128H231m176-160 12-14h256l7 6c-42 47-81 103-117 168h-45c-33-58-71-111-113-160m263-216v75H419v-75h251m0 97v84H419v-84h251M421 328l64-44-5-12-30-5c-58-50-123-86-196-109l-9 9c44 29 77 53 100 74s49 50 76 87m205-35 4 13 43-9c103-21 154-54 154-101 0-19-6-29-19-29-5 0-23 13-54 38-21 17-55 41-100 70-10 6-19 12-28 18M881 97l3-12c-21-13-34-34-38-62-67-3-141-5-224-5-124 0-216 9-277 26S228 95 175 146L67 37l3-30-13-7L0 63l128 83v210H4v21h118l32 33h14l51-43v-15l-26-20V168c36-37 78-63 125-77 48-13 119-20 213-20 95 0 211 9 350 26M28 635l4 12c8-1 17-2 27-5 89-19 133-47 133-85 0-27-6-40-19-40-9 0-18 6-28 18-20 27-37 46-51 57-13 12-35 26-66 43m16 234 4 12c47-7 86-18 115-33 30-15 45-34 45-57 0-27-6-40-19-40-9 0-18 6-28 18-20 27-37 47-51 58-13 11-35 25-66 42Z"/></symbol><symbol id="醴_K" viewBox="0 0 1000 1000" data-size="21"><path transform="matrix(1 0 0 -1 53 948)" d="M80 70V23l-9-10L22 0l-9 7 1 659 67-24h33v164H0v21h314l37 39h13l43-45v-15H259V642h50l31 25h14l43-38v-14l-16-12V27l-9-10-48-14-7 6v61H80m0 21h237v156H81L80 91m1 178 236-1v113h-71c-19 0-32 4-38 12-6 9-9 24-9 47v180h-25c-3-69-11-120-22-155s-32-73-63-114l-8 8v-90m0 351V374c21 51 32 133 34 246H81m119 22v164h-25V642h25m59-22V463c0-13 4-22 11-25s23-4 47-4v186h-58M797 54l37 45h12l47-51V32H411v22l262-1 53 148 69-39-3-13-26-3-69-93 100 1M419 464h378l36 42h13l45-50v-13H419v21m82 75v-19l-8-13-48-12-10 8v321l65-22h50v93l88-11v-14l-27-16v-52h43v88l85-10v-14l-24-14v-50h49l28 27h14l48-42v-11l-21-18V539l-7-9-47-16-10 6v19H501m0 21h49v107h-49V560m0 128h49v93h-49v-93m110-128h43v107h-43V560m0 128h43v93h-43v-93m104-128h54v107h-54V560m0 128h54v93h-54v-93m35-313 27 24h14l50-37v-12l-23-15 2-98-8-9-50-17-9 5v21H527c0-11-1-20-3-26l-53-12-9 9-1 190 65-23h224M527 258h226v95l-225 1-1-96m-12-70 13 9c32-24 52-41 61-52 9-10 13-23 13-38 0-11-3-22-9-31-5-9-11-14-18-14-13 0-24 20-32 61-5 23-14 44-28 65Z"/></symbol><symbol id="鈴_K" viewBox="0 0 1000 1000" data-size="21"><path transform="matrix(1 0 0 -1 53 944)" d="m757 393 25 26h14l60-38v-13l-20-15V171c0-27-6-48-18-61s-36-25-72-37l-12 7v24l-81 35 4 11 74-3c28-1 42 12 42 39l-1 186H610V22l-11-12-43-10-11 7 1 365H383v20l374 1m-398 87-13 10c65 72 113 136 144 193 32 57 58 125 79 205l94-27v-14l-23-10c40-78 78-139 115-184 37-44 83-85 139-122l-5-9c-25-2-48-13-68-33-41 43-76 88-105 136-29 49-59 114-92 196-28-64-62-121-101-172s-94-107-164-169m326 59 30 39h13l45-47v-13H467v21h218M18 410v21h172v138h-82c-36-40-69-71-98-93l-10 9c45 60 80 118 105 174 26 56 52 130 77 223l97-32-2-12-29-7-7-17c45-17 87-36 126-59 24-15 40-27 47-36 8-9 12-21 12-36 0-37-7-56-21-56-9 0-18 7-28 22-29 41-52 70-70 88-17 19-42 38-73 58-34-78-71-146-111-204h179l35 42h12l48-51v-13H255V431h62l39 45h14l48-53v-13H255V235l88 136 75-51-4-12h-28L255 203v-48l179 40 4-15L77 49l-3-31-15-3-49 94 180 34v267H18m2-73 8 8c45-30 75-53 89-70 15-16 22-36 22-59 0-14-3-26-10-37-6-11-13-16-22-16-10 0-19 13-26 40-3 9-10 29-23 59-12 31-25 56-38 75Z"/></symbol><symbol id="阮_K" viewBox="0 0 1000 1000" data-size="21"><path transform="matrix(1 0 0 -1 76 931)" d="M226 550h505l47 50h15l54-57v-15H632V142c0-18 3-30 10-35s18-7 33-7h44c19 0 33 4 42 12s17 23 23 46l27 100 15-4-12-147 27-16V77c-27-23-61-35-104-35h-84c-57 0-86 21-86 64v422H450c0-51-1-88-2-113s-3-57-8-96-13-69-24-90-26-46-45-73-45-50-76-70-69-39-113-57l-7 13c57 34 101 68 131 103s51 77 63 126c13 49 18 112 17 189l-1 68H226v22m97 265h321l42 46h14l56-55-1-15H324l-1 24M0 857l70-30h136l36 34h15l54-52-4-15-26-5-116-218c79-85 119-163 119-236 0-93-47-145-142-154l-10 5-5 29-53 32 4 11 54-8c3-1 11-1 22-1 21 0 38 8 50 25s18 40 18 70c0 68-28 143-85 226l71 236H66L61 14 9 0 0 6v851Z"/></symbol><symbol id="陸_K" viewBox="0 0 1000 1000" data-size="21"><path transform="matrix(1 0 0 -1 74 944)" d="M398 587H232v22h252l1 126H295l1 24h188v129l98-17v-15l-32-17v-80h140l34 35h13l49-42v-17H549l1-126h202l36 39h13l50-47v-14H634v-90c0-19 3-30 8-35s18-7 38-7h34c22 0 37 2 44 7 8 5 16 18 24 38l24 58 13-3-12-99 32-17v-12c-25-19-55-28-91-28H637c-45 0-67 18-67 53v135h-99c-19-56-43-101-71-135s-67-66-117-96l-10 10c66 70 108 144 125 221M0 875l69-29h125l28 23h14l58-54-7-14-27-7-99-213c36-37 61-70 76-101 15-30 23-64 23-101 0-47-12-82-35-105s-57-36-101-41l-12 6-8 29-40 21V25l-5-11L8 0 0 7v868m64-50V310l40-6c12-1 19-2 20-2 52 0 78 34 78 103 0 58-21 116-64 175l60 245H64m481-577h138l35 42h14l53-51v-12H545V54h195l42 44h14l55-54V32H174v22h306v173H265v21h215v164l98-21v-14l-33-16V248Z"/></symbol><symbol id="隸_K" viewBox="0 0 1000 1000" data-size="21"><path transform="matrix(1 0 0 -1 53 947)" d="M22 46 9 52c17 41 30 78 38 110 9 32 19 85 32 159l85-36-2-14-24-9C111 179 72 107 22 46M0 358v22h313l39 40h14l51-49v-13H239V113c0-19 0-32-1-40-1-9-3-18-6-29s-8-18-15-22c-7-5-17-9-30-13s-29-7-49-9l-9 6v23L62 60l3 12 65-5c10 0 17 0 22 1s9 4 14 9 8 13 8 24v257H0m3 384v21h171v120l95-15v-12l-30-15v-78h93l33 34h14l41-40v-15H239V631h69l33 34h10l44-43v-13H18v22h156v111H3m15-255v22h282l34 38h14l44-46v-14H18m250-189 9 10c45-29 75-51 91-68 17-16 25-34 25-55 0-10-3-20-10-30s-13-15-20-15c-11 0-22 16-31 47-10 35-31 72-64 111m149 311v22h166v111H443v21h140v130l91-17v-14l-26-15v-84h99l27 25h15l46-37v-13l-18-10v-97l26 37h11l40-46v-13h-77V458l-12-14-40-7-12 5v24H641c23-65 48-118 75-160 43 39 82 79 119 122l55-52-7-13-29 6-127-82c46-71 102-133 167-185l-4-14c-24-1-45-12-64-31-43 54-77 105-102 152s-50 110-76 189V92c0-29-6-49-18-60s-38-19-77-26l-11 7v23l-67 28 3 14 70-4c11-1 20 2 26 9s9 17 9 30v114L433 88V55l-13-6-57 71 220 129v217H429v24h154v119H417m336 0H648l-1-119h105l1 119m0 133H648V631h105v111M423 405l6 10c51-19 86-35 104-48 19-13 28-29 28-46 0-25-6-37-19-37-7 0-15 5-23 15-27 39-45 63-53 72-7 9-22 20-43 34Z"/></symbol><symbol id="零_K" viewBox="0 0 1000 1000" data-size="21"><path transform="matrix(1 0 0 -1 54 942)" d="m8 225-8 13c101 55 182 109 242 161s113 112 160 179l80-32-4-13-19-4c33-32 63-58 92-79 29-20 73-41 130-63 58-22 128-41 210-57l-6-18c-15-3-27-6-34-11-7-4-15-13-25-28-100 33-178 69-235 106-56 37-107 83-152 137C318 387 174 290 8 225m114 337h156l30 31h15l43-41v-11H122v21m0 100h160l31 31h14l39-37v-15H122v21m399-100h157l28 31h12l47-39v-13H521v21m0 100h152l29 31h16l41-37v-15H521v21M413 763v65H97v21h617l34 35h14l49-45v-11H476v-65h321l30 27h18l46-52-6-12-26-5-80-94-12 5 40 110H476V605l-9-11-44-11-10 10v149H97c0-33-4-61-11-85s-15-41-24-50-17-14-24-14-13 5-19 14-9 19-9 28c0 12 9 29 26 50 21 27 34 67 37 121h16l8-43h316m244-490H433V20l-8-11-46-9-10 8-1 265H170v24h485l23 23h14l54-33v-11l-23-20V147c0-33-4-55-12-64s-33-20-76-33l-10 6v22l-74 30 3 11 71 1c21 0 32 16 32 48v105M329 401h145l28 27h12l43-34v-17H329v24Z"/></symbol><symbol id="靈_K" viewBox="0 0 1000 1000" data-size="21"><path transform="matrix(1 0 0 -1 57 930)" d="M73 750h15l3-23h320v64H88v22h660l37 46h14l48-54v-14H476v-64l313 1 32 22h14l49-56-5-14-31-3-63-54-10 5 22 76-321 1-1-163-5-15-47-10-12 7v181l-316-1c-3-54-10-92-21-113-15-27-29-40-43-40-8 0-15 4-22 13-6 9-9 18-9 29 0 15 9 31 28 49 25 24 40 60 45 108M5 0v22h406v241H37v22h737l37 43h14l40-52v-13H476V22h310l39 49h14l47-56V0H5m94 32-11 9c33 44 56 78 69 101 13 24 30 62 50 115l83-35-5-15h-25l-23-34 32-13c39-15 64-29 75-40 12-11 18-25 18-43 0-26-8-39-24-39-9 0-21 11-35 32-28 43-54 71-78 86-42-51-84-93-126-124m126 445 20 23h14l51-33v-14l-17-16 1-107-5-10-51-11-8 8v30h-90v-16l-9-11-44-11-12 6v181l64-20 86 1m5-24h-90v-84h90v84m-98 102v23h163l31 30h13l34-38v-15H132m0 73v23h164l29 30h11l37-39v-14H132m387 0v23h160l30 29h13l34-37v-15H519m0-73v23h165l26 30h14l32-38v-15H519m-3-526-10 9c27 33 48 63 63 92s34 72 56 130l76-33-3-14h-20c-6-11-16-27-31-47 58-22 94-39 107-50s20-27 20-50c0-22-8-33-24-33-9 0-18 7-28 22s-38 45-85 92c-45-56-85-95-121-118m-28 424h-90v-84h90v84m-8 23 22 25h13l53-34v-14l-17-16V325l-7-8-42-7-15 10v27h-89v-16l-9-11-41-11-12 6v181l61-20h83m256-23h-90v-84h90v84m-5 24 20 24h13l53-34v-14l-17-16v-89l-5-13-48-13-11 8v16l-90 1v-16l-9-11-41-11-12 6v181l61-20 86 1Z"/></symbol><symbol id="領_K" viewBox="0 0 1000 1000" data-size="21"><path transform="matrix(1 0 0 -1 56 945)" d="m11 539-11 9c75 87 135 201 180 342l93-33-5-15-32-11c53-23 93-43 118-62 26-18 39-39 39-62 0-29-10-43-29-43-7 0-13 3-17 10-29 45-51 76-66 91-17 17-36 34-57 49-35-64-68-116-99-155S56 580 11 539m289-56 29 27h15l54-54v-13l-32-14 1-213c0-20-4-35-11-44s-22-17-43-24c-14-4-27-8-40-13l-8 5v25l-61 37 3 12 55-6c2-1 6-1 11-1 14 0 22 3 25 9s4 22 4 48v197H183V26l-8-12-46-14-10 5-1 456H4v22h296M108 610h167l36 42h15l48-49v-15H108v22M318 10l-6 12c82 39 156 91 223 156l67-53-7-12-35-2C463 60 383 26 318 10m500 619V212l-6-14-47-13-11 6v25H517c0-10-2-19-7-26l-48-14-8 8-2 530 68-28h42l23 125H395v21h379l38 46h12l55-54v-13H655l-69-125h160l28 29h20l54-53v-13l-30-20m-64-258H517V238h237v133m0 158H517V394h237v135m0 135H517V551h237v113m-67-504 7 12c71-19 121-37 150-54s44-39 44-66-8-40-25-40c-9 0-18 7-29 21-24 32-46 56-65 73s-47 35-82 54Z"/></symbol><symbol id="類_J" viewBox="0 0 1000 1000" data-size="22"><path transform="matrix(1 0 0 -1 34 945)" d="M283 414c-8 8-7 10 3 8 55-13 82-34 82-63 0-13-5-20-15-23-11-3-20 5-27 23-11 24-25 42-43 55m429-226c138-42 207-89 207-141 0-18-6-27-19-27-8 0-17 9-28 27-26 42-80 85-164 129-7 8-6 12 4 12M142 688c-10 0-21 10-31 31-19 39-45 70-78 94-13 10-12 15 3 15 86-34 129-70 129-109 0-21-7-31-23-31m113-418c-2-19-5-36-8-51 105-26 157-60 157-102 0-18-7-27-20-27-10 0-21 9-31 27-24 39-60 69-110 90-26-78-91-141-195-187-13-3-15 1-8 11 107 65 162 145 164 239H17v23h187v117l67-12c21-13 15-22-16-27v-78h86l51 51 62-47c16-13 16-22 0-27H255m8 382h90l43 43 55-39c15-13 15-22 0-27H263v-47c107-26 160-60 160-102 0-18-6-27-19-27-11 0-20 9-28 27-13 29-50 58-113 86V453c-34-31-51-32-51-4v114C150 497 83 444 13 402c-10-2-13 2-8 12 81 68 146 139 196 215H21v23h191v239l67-12c20-13 15-22-16-27V652m551-125v114H540V527h274m0-312H540v-27c-33-32-50-33-50-4v511l58-31h51l23 141H415L310 688c-16-8-20-6-12 7l90 168 59-35h363l51 51 62-47c16-13 16-22 0-27H685l-67-141h184l24 31 54-39c16-13 11-22-15-27V195c-34-31-51-32-51-4v24M341 12c115 57 199 116 254 176l63-40c7-10 5-16-8-19h-39C507 59 418 16 345 0c-10 0-12 4-4 12m473 347H540V238h274v121M540 504V383h274v121H540Z"/></symbol><symbol id="類_K" viewBox="0 0 1000 1000" data-size="21"><path transform="matrix(1 0 0 -1 49 930)" d="m22 0-8 10c49 45 85 87 108 128s36 89 41 142H0v21h166c3 29 4 74 4 133l90-17v-16l-25-9-5-91h125l33 39h12l46-44v-16H227l-6-42c77-26 126-47 148-63 22-15 33-37 33-66 0-21-8-32-23-32-11 0-23 10-38 30-28 35-70 72-125 111-21-52-44-93-71-123C119 66 78 34 22 0m-5 807 10 9c67-37 100-72 100-106 0-11-3-20-9-28s-13-12-21-12c-12 1-20 9-25 26-15 50-33 87-55 111m153 53 91-18v-13l-27-15V697c37 46 66 86 87 119l63-51-6-12h-31l-113-83v-8h91l34 37h13l49-46v-13H234v-30l77-27c30-10 51-21 62-32 12-11 18-27 18-48s-7-31-21-31c-9 0-22 11-39 32-25 33-58 60-97 82l-1-120-8-10-47-13-7 6-1 104c-48-49-98-89-151-119L9 444c39 37 68 66 86 89s40 58 66 107H7v22h163v198M335 13l-6 12c52 25 95 49 129 74 35 25 73 59 115 102l64-51-6-12h-31c-55-34-100-59-135-76s-78-33-130-49m91 794h376l37 40h11l51-47v-14H673l-58-112h163l25 25h14l53-42v-14l-23-12 1-304 4-113-6-11-53-13-10 4v31H542v-22l-7-13-47-15-13 7 1 125v394l67-27h44l17 112H426v21m357-295H542V396h241v116m0 140H542V533h241v119m0-277H542V246h241v129m-88-207 6 11c79-26 131-48 157-67 27-18 40-40 40-67 0-24-8-36-23-36-9 0-20 8-32 25-39 53-88 97-148 134M276 414l7 12c65-21 97-44 97-71 0-7-3-16-8-25s-10-14-15-14-12 8-21 25c-15 29-35 53-60 73Z"/></symbol><symbol id="龍_K" viewBox="0 0 1000 1000" data-size="21"><path transform="matrix(1 0 0 -1 58 941)" d="M19 764h164v115l91-18v-15l-27-17v-65h102l31 36h17l43-45v-13h-99l39-24-6-13-28-4-64-94h85l34 36h16l52-43v-15H0v22h122l-6 22c-2 31-4 51-7 62s-10 28-22 51H19v22m243-157 31 135H116c2-3 5-6 9-10 21-23 34-40 41-51 7-10 10-23 10-38 0-8-4-20-11-36h97m45-115 32 31h13l55-41v-14l-26-21V81c0-20-6-35-17-46s-34-22-71-33l-10 5v29l-74 34 5 11 59-7c3 0 7 0 10-1 15 0 24 2 28 5 5 3 7 13 7 28v117H133V19l-6-8-47-9H70v527l70-37h167m11-247v104H133V245h185m0 126v99H133v-99h185m158 511 94-20v-15l-30-12v-40h215l37 42h13l54-49v-15H540v-87h201l30 25h14l53-38v-13l-23-21V520l-10-11-43-10-11 7v22H540v-91h172l32 36h14l47-45v-13H540v-94h168l32 37h15l53-44v-15H540V193h168l36 42h14l53-47v-17H540V96c0-16 3-27 8-32 6-6 18-9 36-9h174c31 0 53 17 64 51l25 74 18-2-9-118 28-14V30C854 10 807 0 744 0H563c-37 0-61 5-72 15-10 9-15 32-15 67v492l64-24h211v114H540v-25l-9-8-47-10-8 3v258Z"/></symbol></svg>