<svg xmlns="http://www.w3.org/2000/svg"><symbol id="倫_K" viewBox="0 0 1000 1000" data-size="21"><path transform="matrix(1 0 0 -1 56 944)" d="m204 886 89-39-4-15-29-6-27-60c-21-50-41-90-58-121l25-12v-14l-31-16V26l-7-13-46-13-11 6v516L11 411l-11 8c47 81 84 153 112 217 29 65 59 148 92 250m-16-416-8 11c71 61 129 122 174 182s89 135 132 225l88-31-2-15-31-10c44-65 93-118 146-158 54-40 121-74 201-101l-1-13c-24-4-45-20-62-47-74 43-133 86-176 129-43 44-83 102-122 173-47-77-95-140-145-191-49-50-114-101-194-154m133-177V26l-7-13-47-13-10 8v501l71-28h419l27 26h15l55-46v-15l-24-15V92c0-33-5-54-14-63s-33-19-72-29l-11 6 1 27-63 28 1 15 62-7c11-1 19 1 24 7 5 5 8 14 8 27v190H646V51l-5-15-48-15-11 8v264h-99V39l-6-13-47-13-11 5-1 275h-97m97 165-97-1V316h97v142m164 0h-99V316h99v142m174 0H646V316h110v142M373 602l219-1 36 40h12l49-46 1-16H373v23Z"/></symbol><symbol id="利_K" viewBox="0 0 1000 1000" data-size="21"><path transform="matrix(1 0 0 -1 62 942)" d="m227 617 1 161c-45-5-100-8-166-11-9-1-25-2-48-3l-3 16c165 21 300 56 405 104l61-66-12-12-41 10-132-28-1-171h119l45 55h13l59-62v-16H292V477c56-24 98-47 127-70 29-22 44-45 44-69 0-32-9-48-27-48-9 0-22 15-39 46-23 42-58 80-105 113l-1-423-9-13-43-13-12 10v406c-31-58-63-106-94-143S61 197 10 154L0 165c57 66 101 129 132 189s60 140 88 240H4v23h223m441 165-1-535-8-14-43-13-13 8v603l94-19v-11l-29-19m179 50V133c0-23-1-39-2-49-1-9-4-20-11-31s-17-20-31-25c-14-6-34-12-60-17l-15 8v25l-95 34 3 17 112-10c15 0 25 3 28 9 4 7 6 20 6 39l1 749 92-22v-13l-28-15Z"/></symbol><symbol id="匿_K" viewBox="0 0 1000 1000" data-size="21"><path transform="matrix(1 0 0 -1 79 926)" d="m0 832 70-30h604l50 49h15l61-55v-16H65V74h648l52 57h17l60-63V52H65V26l-7-12L7 0 0 9v823m95-399v24h216c19 30 38 71 58 123l84-37-3-13-32-7-36-66h316l46 50h15l58-58v-16H367c-31-41-56-73-75-94l5-3h281l29 32h13l57-39v-15l-26-17V160l-6-14-51-12-8 8v27H303v-35l-6-11-49-10-10 7v171c-39-32-84-62-136-89l-7 10c47 37 85 71 112 100 28 30 59 70 92 121H95m491-241v122H303V192h283M102 618v22h159v104l92-15v-11l-28-18v-60h164v100l92-16v-13l-28-18v-53h104l43 43h15l51-49v-16H553v-79l-5-13-51-8-8 11v89H325v-79l-7-10-49-11-8 6v94H102Z"/></symbol><symbol id="吏_K" viewBox="0 0 1000 1000" data-size="21"><path transform="matrix(1 0 0 -1 53 943)" d="M0 727v22h411v136l103-22v-16l-38-20v-78h289l51 56h13l65-63v-15H476V613h208l34 33h14l53-44v-15l-27-17V382l-7-13-44-14-13 9v46H476c-3-59-7-103-12-132-5-28-15-59-29-93 67-41 133-70 198-86 65-15 152-23 259-23V63c-15-7-26-14-32-21-6-8-11-20-14-37-99 7-181 20-246 41s-129 54-194 99c-48-44-103-77-165-100S100 7 5 0L2 15c99 15 175 38 227 67 53 29 96 64 131 104-35 33-67 74-96 121-31-41-50-70-57-89-8-19-15-28-20-28s-11 5-18 14-12 18-17 27-7 14-7 15c0 5 4 11 12 16 29 19 51 34 65 46 15 12 27 27 36 45 7 14 13 21 18 21s10-3 17-10c7-6 11-11 11-16 0-1-2-4-6-7-3-3-7-7-12-11l-6-5c41-47 75-81 103-100 15 37 23 85 26 146l2 39H191v-58l-6-11-47-15-11 7-1 306 70-26h215v114H0m411-136H191V432h220v159m283-159v159H476V432h218Z"/></symbol><symbol id="吝_K" viewBox="0 0 1000 1000" data-size="21"><path transform="matrix(1 0 0 -1 60 938)" d="m1 318-1 13c93 23 169 47 229 72s119 58 177 98c-51 42-98 96-141 163-44-58-69-98-75-120-6-18-11-27-16-27-8 0-19 8-32 23s-20 27-20 36c0 6 7 13 20 20 23 13 47 31 70 55 24 24 40 46 49 67H1v22h415v135l97-18v-13l-33-18-1-86h266l43 53h13l61-60v-15H671c-27-51-53-91-77-120-23-29-56-61-99-96 100-51 228-83 384-98l-1-13c-20-7-36-25-48-55-155 31-282 75-380 131-80-45-161-80-244-106l54-30h377l30 30h11l58-43v-14l-24-17 1-236-8-15-49-12-8 4v31H249V22l-8-10-47-12-9 6v350c-66-18-127-31-184-38m593 400H286c11-9 16-15 16-20 0-3-2-5-6-6-3-1-9-5-19-12 35-41 64-71 85-90s48-38 81-58c33 29 60 56 79 80 20 24 44 59 72 106m54-408H249V81h399v229Z"/></symbol><symbol id="履_K" viewBox="0 0 1000 1000" data-size="21"><path transform="matrix(1 0 0 -1 58 947)" d="m67 891 70-23h567l26 26h13l57-35v-14l-24-17V711l-7-7-47-10-10 4v13H131V595c0-49 0-88-1-115s-3-64-7-112-10-89-18-124c-7-35-19-74-35-118C55 83 36 41 13 2L0 7c25 74 43 143 52 207 10 64 15 144 15 240v437m645-44H131V733h581v114M311 451l-11 9c55 70 100 152 136 246l75-33-4-16-24-3-14-18h310l34 38h13l51-46v-14H457c-57-75-106-129-146-163m397 98 29 27h14l55-40v-13l-24-20V342l-10-7-44-14-10 5v20H543l62-27-4-13-29-2-28-29h169l26 23h16l49-62-7-9-30-6c-42-35-72-60-89-73l-24-19c31-19 61-34 92-43s77-19 137-29V45c-15-5-25-9-32-14s-15-16-24-31c-49 12-87 25-116 38-28 13-62 34-102 63-49-28-93-49-132-62-39-14-92-27-157-39l-4 13c57 17 103 34 139 51 37 17 77 42 120 73-22 22-46 53-73 92-52-44-110-81-174-110l-8 10c47 32 84 63 113 94s58 72 89 123h-30v-17l-10-13-44-11-10 4v259l71-19h209m10-181v68H492v-68h226m0 90v69H492v-69h226M528 253l-6-8c29-33 58-61 87-84 36 29 68 60 96 92H528M272 581l73-44-4-10-27-4-54-73 28-9v-12l-20-16V33l-6-12-47-18-11 5v387c-14-18-36-40-66-67l-11 9c63 87 112 168 145 244m-19 126 70-41-4-12-29-5c-49-56-97-103-143-142l-10 9c48 64 87 128 116 191Z"/></symbol><symbol id="崙_K" viewBox="0 0 1000 1000" data-size="21"><path transform="matrix(1 0 0 -1 59 943)" d="m9 322-9 13c169 78 296 187 381 328l107-40-3-14-10-3c57-55 116-98 179-127s138-49 227-60l-1-14c-15-3-26-7-33-14s-15-19-24-37c-84 28-154 60-211 97-56 37-110 87-162 150l-26-4c-66-71-129-127-188-166S102 356 9 322m311-144H166V25l-7-14-47-11-10 9v339l68-22h546l31 30h13l53-41v-11l-28-20V89c0-25-6-43-17-52-11-10-34-19-71-27l-11 6-1 25-75 26 3 16 80-5c9-1 16 2 21 9s7 17 7 30v61H574V64l-6-13-48-13-10 6v134H384V58l-8-12-48-11-8 5v138m0 128H166V199h154v107m64 0V199h126v107H384m190-107h147v107H574V199M235 402v21h293l34 39h13l50-44v-16H235m173 294v190l95-20v-14l-31-18V696h271v170l96-24v-13l-32-19V658l-7-14-45-12-12 8v35H143v-28l-6-11-50-15-8 7v250l96-20v-13l-32-20V696h265Z"/></symbol><symbol id="律_K" viewBox="0 0 1000 1000" data-size="21"><path transform="matrix(1 0 0 -1 63 943)" d="M472 643v112H275v22h197v107l96-19v-14l-32-14v-60h137l27 30h16l58-42v-16l-29-16v-90h29l33 40h16l51-48v-13H745V461l-7-9-45-8-12 8v28H536V356h145l36 42h14l52-49v-14H536V212h209l38 45h15l58-52v-14H536V19l-9-10-43-9-12 6v185H199v21h273v123H243v21h229v124H282v21h190v121H296l-3-8-27-4c-27-42-56-83-87-124l25-11v-14l-25-11V19l-7-10-48-9-9 8v408c-28-26-63-54-106-85l-9 11c79 77 153 188 222 334l60-33h190m209-21H536V501h145v121m0 133H536V643h145v112M219 886l80-52-5-14h-35c-42-51-79-90-110-119s-73-60-124-94l-9 11c46 42 83 82 112 119s59 87 91 149Z"/></symbol><symbol id="慄_K" viewBox="0 0 1000 1000" data-size="21"><path transform="matrix(1 0 0 -1 53 943)" d="M163 834V707c73-42 109-80 109-113 0-9-3-18-8-26-5-7-11-11-18-11-11 0-22 16-34 48-9 24-26 51-49 81l-3-667-55-19-7 9v877l95-20v-11l-30-21m30-790-7 12c72 43 129 83 171 121 43 38 86 88 131 149l-274 1v21h300v134l100-19v-13l-35-22v-80h202l44 43h16l53-49v-15l-304-1c38-63 79-111 122-144 44-33 104-62 180-85l-2-17c-20-3-34-7-42-12s-16-14-25-27c-67 33-118 69-154 109s-66 95-90 164V25l-8-15-48-10-10 10 1 242c-50-51-97-91-141-120S269 74 193 44m625 604V483l-6-12-48-13-10 8v24H356c0-13-2-23-6-32l-50-16-8 9v266l67-20 81-1v121H238v22h541l43 43h17l53-51v-14H657V696h89l25 24h17l53-36v-15l-23-21M440 511v164h-84V511h84m154 164h-91V511h91v164m-91 21h91v121h-91V696m249-21h-95V511h95v164M61 706h16c5-41 8-70 8-89 0-50-6-91-18-122-11-31-24-47-39-47-7 0-13 6-19 17-6 12-9 25-9 39 0 8 2 15 5 22 23 36 36 61 41 75 5 15 10 50 15 105Z"/></symbol><symbol id="易_K" viewBox="0 0 1000 1000" data-size="21"><path transform="matrix(1 0 0 -1 63 932)" d="M279 419h490l32 29h16l57-52-4-16-30-12c-3-39-6-70-9-93-2-23-5-48-9-76-4-27-8-48-13-63-4-14-10-30-18-47-7-17-16-29-25-37s-21-16-34-24c-13-9-28-15-45-19s-36-7-59-9l-9 6-5 29-79 36 3 12 67-8c15-1 24-2 28-2 39 0 67 9 83 26s29 52 40 105c10 48 17 112 20 193H653c-43-99-96-179-161-239S341 48 233 9l-8 12c91 48 164 101 217 158 54 57 99 130 135 218H459c-44-80-94-144-150-191-55-47-131-89-227-126l-6 12c83 46 146 91 190 134s84 100 120 171H262c-47-47-87-83-122-108S61 240 7 216l-7 11c68 46 123 92 164 138 42 46 80 103 114 171h-61v-24l-7-8-49-13-8 5v367l72-28 410-1 30 28h15l54-43v-13l-28-19V528l-4-11-51-13-9 7v25H290l72-40-5-15-33-3c-17-23-32-43-45-59m363 255H217V558h425v116m0 138H217V696h425v116Z"/></symbol><symbol id="李_K" viewBox="0 0 1000 1000" data-size="21"><path transform="matrix(1 0 0 -1 57 944)" d="M483 276h269l46 51h14l67-58v-15H483V94c0-28-5-48-16-59-10-11-31-21-64-28l-31-7-12 7v26l-99 48 3 12 98-15h7c3-1 5-1 6-1 2-1 3-1 4-1 26 0 39 13 39 38v140H0v22h418v96l54-12 96 121H214v22h356l38 36h18l63-61-7-17-44-5-143-103 19-4v-14l-31-17v-42M7 414l-7 13c87 50 158 100 213 149 56 49 109 109 159 180H0v21h410v111l103-24v-15l-39-17v-55h277l41 50h17l66-55v-16H486c60-66 119-118 176-155s132-70 223-100l-4-12c-29-3-50-17-64-44-74 37-137 76-188 118-51 43-102 99-155 169V533l-6-8-51-13-7 6v175c-60-63-121-115-182-158-61-42-135-82-221-121Z"/></symbol><symbol id="林_K" viewBox="0 0 1000 1000" data-size="21"><path transform="matrix(1 0 0 -1 56 944)" d="m567 886 101-19v-15l-37-19V673h142l41 46h15l54-54v-16H633c35-102 71-182 108-239s86-111 147-160l-5-11c-31 0-56-9-77-28-43 53-78 107-103 162s-49 120-72 193V27l-7-12-47-15-10 9v450c-41-63-78-113-113-150s-79-73-133-108l-10 9c72 72 126 140 162 203s66 142 89 237H428v22l139 1v213M405 650H248V546c46-18 79-35 100-51s32-36 32-59c0-34-9-51-28-51-11 0-26 20-44 61-10 23-30 48-60 75l-1-489-8-15-44-15-10 10-1 431c-35-55-64-96-87-124s-53-58-89-90l-8 12c82 102 141 238 178 408H1v24h183v214l99-22v-12l-35-18V673h52l39 42h16l50-50v-15Z"/></symbol><symbol id="栗_K" viewBox="0 0 1000 1000" data-size="21"><path transform="matrix(1 0 0 -1 55 935)" d="M478 349h290l51 54h13l58-61-1-16-398-1c62-64 123-115 183-152 61-37 133-69 216-95l-4-15c-29-6-49-20-62-43-76 35-139 74-190 116-50 42-102 100-156 173V25l-5-9-45-16-14 9v274c-62-66-123-119-182-158S98 50 8 17L0 32c85 44 154 87 206 130 53 43 105 97 157 164H5v23h409v118l94-19v-14l-30-13v-72m293 96-50-12-9 6v36H202v-31l-9-11-46-14-10 7 1 283 68-23h118v114H9l1 23h769l41 46h15l54-54 1-16H582V686h123l30 26h14l53-46v-13l-26-19V460l-5-15m-59 218H582V498h130v165m-194 0H388V498h130v165m-194 0H202V498h122v165m194 137H388V686h130v114Z"/></symbol><symbol id="梨_K" viewBox="0 0 1000 1000" data-size="21"><path transform="matrix(1 0 0 -1 60 946)" d="m26 768-3 16c73 10 134 23 184 38 51 15 109 38 174 69l67-44-6-13h-43l-105-35V693h103l39 42h15l52-50v-16H295l-1-50c60-23 99-42 116-55 18-13 27-30 27-50 0-32-8-48-23-48-11 0-21 7-30 21-23 35-38 57-46 66s-23 23-44 40l1-212-9-10-50-16-5 12-1 218c-38-51-72-90-102-119S58 406 8 373l-8 11c49 47 87 90 116 129 29 40 59 92 90 156H5l-1 24h226v94c-69-13-137-19-204-19m458-459h276l43 48h15l61-56-1-15H495c57-57 113-100 168-127s126-48 212-61V83c-29-11-51-29-67-54-74 26-135 55-182 88s-94 81-142 142V31l-5-17-54-14-6 12v214c-67-57-130-102-190-133S96 35 9 13L4 27c83 33 152 69 206 106s110 88 169 153H9v23h410v129l99-24v-15l-34-18v-72m129 478V488l-6-12-48-16-10 9-1 369 94-20v-13l-29-18m183 43V442c0-31-4-50-13-58-8-7-37-19-86-34l-13 7v28l-84 34 2 12 80-8 34-1c10 0 15 12 15 37v428l96-26v-13l-31-18Z"/></symbol><symbol id="泥_K" viewBox="0 0 1000 1000" data-size="21"><path transform="matrix(1 0 0 -1 53 938)" d="m337 857 70-27h336l33 32h15l57-50v-13l-25-14V596l-7-8-48-13-9 5v28H401c-2-70-6-129-11-177s-14-98-28-149-35-98-62-140c-27-41-62-81-104-119l-10 8c47 58 80 117 101 177 21 61 35 129 41 206s9 195 9 354v89m64-227h358v178H401V630m98-73 95-20v-15l-31-16V365c98 32 184 72 258 120l59-64-9-11-33 5c-98-36-190-60-275-72V120c0-21 3-35 10-40s23-8 48-8h120c27 0 43 1 50 2 15 3 26 19 33 47l21 84 12-2 8-114 29-25V49c-27-22-67-33-121-33H628c-56 0-92 4-107 12s-22 31-22 70v459M7 268l33-3c16-1 29 4 40 15 11 12 23 34 36 66l171 438 14-3-155-528c-5-15-7-31-7-48 0-29 6-61 19-97 9-24 13-43 13-57 0-13-5-25-14-35-9-11-20-16-32-16s-22 5-30 16c-7 10-11 23-11 39 0 5 1 22 4 49s4 43 4 48c0 19-2 35-6 47-3 13-10 22-20 29-9 7-18 11-26 14-7 3-19 6-36 9l3 17M0 612l5 13c25-8 44-14 57-19s28-11 45-20c17-8 29-17 36-28s11-23 11-36c0-9-3-18-8-26s-11-12-18-12c-3 0-14 9-33 28-18 19-37 40-58 62-20 22-32 35-37 38m60 253 6 10c33-9 57-17 74-24 17-6 33-16 48-30s23-31 23-50c0-27-7-40-21-40-15 0-31 15-46 44-14 25-42 55-84 90Z"/></symbol><symbol id="淋_K" viewBox="0 0 1000 1000" data-size="21"><path transform="matrix(1 0 0 -1 53 946)" d="m634 892 98-19v-12l-34-19V660h99l35 39h12l49-49v-14H694c10-41 20-77 29-107s22-65 37-106c15-40 34-78 56-114 23-35 48-68 77-99l-8-9c-7 3-13 4-18 4-15 0-33-9-54-28-29 57-52 109-67 156s-31 113-48 196l-1-504-6-8-49-14-8 7v434c-26-61-53-112-81-153-28-40-67-85-118-135l-11 10c60 79 105 153 136 222s55 152 74 248l-70 1v22h70v233m-87-255-131-1v-86c83-48 124-93 124-134 0-29-8-43-24-43-11 0-24 18-38 54-9 23-29 55-62 97l1-504-7-8-51-12-6 4v405c-45-66-77-112-98-138s-51-61-92-105l-10 8c56 76 98 148 126 215s50 150 65 247H244v24h109v232l103-18v-12l-40-19V660h42l30 37h13l46-40v-20M4 275l33-3c17-1 31 5 44 19 13 15 24 37 33 67l154 496 13-4-139-590c-4-17-6-35-6-52 0-28 6-59 18-94 9-24 13-43 13-57 0-13-5-25-14-35-9-11-20-16-31-16-12 0-22 5-30 16-7 10-11 23-11 39 0 6 1 18 3 36 3 21 4 42 4 62 0 18-2 33-6 45s-11 21-20 28-18 12-26 15c-7 3-19 7-35 11l3 17m1 357 34-11c41-12 71-25 88-40 18-14 27-31 27-52 0-9-3-18-8-26s-11-12-18-12c-3 0-14 9-33 28-18 19-37 40-58 62-20 22-32 35-37 38l5 13m55 239 6 11c24-7 43-13 56-18s28-11 43-20c16-8 28-18 35-29s11-23 11-38c0-27-7-40-22-40s-30 15-45 44c-13 25-41 55-84 90Z"/></symbol><symbol id="淪_K" viewBox="0 0 1000 1000" data-size="21"><path transform="matrix(1 0 0 -1 53 948)" d="M783 248H675V75l-8-9-41-16-13 6v192h-96V56l-8-10-43-14-11 5v211h-98V32l-7-13-50-15-8 3-1 465 67-33h415l28 35h17l59-45v-15l-28-18V80c0-26-5-43-15-51-10-9-34-18-72-29l-14 8v28l-64 29 1 12 62-6c1-1 5-1 14-1s15 3 18 8 4 14 4 27v143M675 417V271h108v146H675m-158 0V271h96v146h-96m-62-146v146h-98V271h98M264 542l-7 10c61 54 109 105 144 154s70 113 103 190l96-29v-13l-18-7c45-63 90-112 136-146s105-62 176-84l-4-14c-17-1-30-4-39-9s-20-14-34-29c-57 33-104 68-141 107s-76 92-116 161c-47-75-90-132-130-171s-95-79-166-120m107 15v22h271l35 44h15l54-51v-15H371M128 358l172 483 14-5-151-572c-7-29-11-53-11-72 0-18 6-44 17-78 8-23 12-42 12-58 0-13-5-25-14-35S148 6 136 6c-11 0-20 6-28 18-8 11-12 25-12 41 0 5 1 15 3 32 3 21 4 40 4 59s-2 34-6 47-11 22-20 29-18 12-26 15c-7 3-19 7-35 11l3 17c12-1 22-2 31-2 20 0 35 5 44 16 10 11 21 34 34 69M0 602l5 13c9-3 27-9 56-18 62-19 93-48 93-85 0-9-3-18-8-26-5-7-11-11-18-11-10 0-24 14-42 42-19 28-47 56-86 85m60 253 6 11c62-23 102-40 119-51s26-29 26-54c0-27-7-40-21-40-15 0-31 15-46 44-15 27-43 57-84 90Z"/></symbol><symbol id="溺_K" viewBox="0 0 1000 1000" data-size="21"><path transform="matrix(1 0 0 -1 50 945)" d="M273 859h179l30 31h13l56-47v-12l-23-16V630l-7-10-47-14-10 7v38H355l-31-152 142 1 31 33h15l55-43-2-15-23-13c-7-177-16-288-25-333-11-54-31-90-62-107-16-9-38-17-67-22l-13 7-5 30-84 39 2 14 97-10c25 0 42 7 52 22 11 15 17 39 20 71 1 7 2 18 3 35 2 17 4 30 5 39-37-34-72-61-104-81-31-20-75-42-131-65l-8 13c61 39 109 76 143 109 35 34 69 78 104 133l3 52c-44-40-82-70-114-91s-76-43-131-68l-9 14c53 34 94 66 125 96s64 70 99 119H320l-7-32-8-11-53-8-9 8 59 269 62-31h100v164H273v22M7 272l33-3c17-1 32 5 45 19 13 15 23 37 32 67l136 468 13-3-120-562c-5-21-7-39-7-55 0-27 6-57 19-91 9-22 13-41 13-57 0-13-5-25-14-35-9-11-20-16-32-16s-22 5-30 16c-7 10-11 23-11 39 0 5 1 22 4 49s4 43 4 48c0 19-2 35-6 47-3 13-10 22-20 29-9 7-18 11-26 14-7 3-19 6-36 9l3 17M5 623l34-11c41-12 71-25 88-40 18-14 27-31 27-52 0-9-3-18-8-26s-11-12-18-12c-3 0-14 9-33 28-18 19-37 40-58 62-20 22-32 35-37 38l5 13m42 239 6 11 42-13c69-21 103-51 103-92 0-27-7-40-21-40-15 0-31 15-46 44-14 25-42 55-84 90m558-3h179l30 31h13l56-47v-12l-23-16V630l-7-10-47-14-10 7v38H687l-31-152 142 1 31 33h15l55-43-2-15-23-13c-7-177-16-288-25-333-11-54-31-90-62-107-16-9-38-17-67-22l-13 7-5 30-84 39 2 14 97-10c25 0 42 7 52 22 11 15 17 39 20 71 1 7 2 18 3 35 2 17 4 30 5 39-39-35-75-63-107-83-31-20-74-41-128-63l-8 13c61 39 109 76 143 109 35 34 69 78 104 133l2 52c-42-38-79-68-111-89s-76-44-133-70l-9 14c53 34 94 66 125 96s64 70 99 119H652l-7-32-8-11-53-8-9 8 59 269 62-31h100v164H605v22Z"/></symbol><symbol id="燐_K" viewBox="0 0 1000 1000" data-size="21"><path transform="matrix(1 0 0 -1 52 946)" d="m142 0-8 13c57 37 101 70 132 99s64 65 98 110c-15 4-26 14-31 29-7 23-13 38-17 44-3 7-12 17-26 31l-53-54-13 9c29 40 51 76 67 109 17 33 36 81 58 143l80-30-4-15-29-7-30-52h96l24 22h15l53-55-6-14-24-5c-45-90-97-163-154-220S237 48 142 0m320 409H354c-10-17-26-39-48-67 5-3 13-7 23-14 26-15 42-27 49-34s11-19 13-34c25 41 48 91 71 149m-229 90-7 10c55 34 99 66 132 95s70 69 111 119H247v21h268v146l97-14v-13l-33-15V744h51l61 147 77-40-4-13-30-5-81-89h150l33 39h13l47-48v-12H602c46-39 90-68 131-89 42-21 93-37 152-49v-13c-17-3-27-7-32-10s-14-13-28-30c-58 25-105 51-140 78s-70 63-106 109V498l-7-9-46-14-11 5v200c-51-47-96-83-135-108s-88-50-147-73m103 383 8 9c42-18 71-33 87-46 16-12 24-28 24-48 0-13-3-24-9-34-5-9-12-14-19-14-11 0-18 6-22 18-11 34-20 56-27 66-6 11-20 27-42 49m420-651h53l27 31h13l46-38v-14H756V24l-8-11-48-11-8 8 1 200H472v21h98v222l66-24h57v130l88-19v-12l-25-15v-84h37l28 30h15l40-38v-12H756V231m-63 178h-58V231h58v178M217 871v-13l-32-16 2-123-2-102 73 103 66-54-6-13h-32l-101-68c-1-95-8-188-23-279 51-25 86-45 106-61s30-35 30-56c0-35-9-52-27-52-9 0-20 13-31 38-19 42-47 79-83 111-10-53-24-99-43-137-19-37-49-82-91-135l-12 9c45 75 75 149 88 224 14 75 21 160 21 255v102c0 66-2 161-5 286l102-19M52 708h16c11-67 17-118 17-155 0-29-5-56-16-80s-22-36-35-36c-7 0-15 6-23 19-7 13-11 25-11 38 0 11 5 24 14 39 14 24 23 47 28 69 5 23 9 58 10 106Z"/></symbol><symbol id="率_K" viewBox="0 0 1000 1000" data-size="21"><path transform="matrix(1 0 0 -1 69 941)" d="M0 221v23h391v117l89-24v-13l-25-15v-65h290l41 51h15l61-58v-16H455V24l-9-12-49-12-7 7 1 214H0m65 125-3-41-12-5-48 80c89 42 180 88 272 139l6-13-131-98-84-62M14 768h383v114l96-20v-11l-31-18v-65h258l43 50h14l62-58v-15H419l45-28-6-11-34-4-97-80c40-21 60-43 60-66 0-25-7-38-21-38s-27 13-38 40c-11 25-29 50-54 74l5 11 30-11 75 113H14v23m52-77 6 10c14-7 26-13 37-18 62-29 93-61 93-94 0-11-3-20-9-29s-13-13-20-13-12 3-17 10c-5 6-15 25-31 58-11 24-31 49-59 76m137-296 77 6 169 201 49 60 67-47-6-12-30-1-213-199 229 18c-11 16-27 37-48 62l8 9c83-43 124-82 124-119 0-29-8-43-23-43s-29 17-42 51l-9 21-301-62-8-25-17-3-26 83m392 116 7 9c29-13 53-25 72-35s39-22 62-37 40-30 51-45c12-15 18-30 18-45 0-28-8-42-25-42-6 0-12 4-19 12-7 9-17 25-32 49-19 31-63 76-134 134m15 37-10 10c59 55 112 108 158 159l66-55-6-12-34 4c-43-28-101-63-174-106Z"/></symbol><symbol id="理_K" viewBox="0 0 1000 1000" data-size="21"><path transform="matrix(1 0 0 -1 56 914)" d="M345 785v-18H200V507h49l32 36h14l43-45v-13H200V224l159 59 8-13L64 109l-1-28-17-6-46 80 136 49v281H11v22h125v260H4v23h244l33 38h15l49-43m20 40 67-24h324l30 27h17l52-42v-15l-31-17-1-340-8-13-45-12-11 7v27H629V243h104l43 50h16l60-56v-16H629V23h137l48 53h15l59-61V0H278v23h287v198H342v22h223v180H428v-21l-7-12-47-14-10 5 1 444m394-204v157H629V621h130m-194 0v157H428V621h137m0-174v151H428V447h137m194 0v151H629V447h130Z"/></symbol><symbol id="璘_K" viewBox="0 0 1000 1000" data-size="21"><path transform="matrix(1 0 0 -1 46 937)" d="m471 452-4-13-24-3-23-44h89l27 26h18l47-42h123v114l90-22v-13l-30-12v-67h8l34 38h12l50-47v-13H784V198h8l34 41h12l52-51v-12H784V27l-3-13-51-14-6 7v169H513v22h93v156c-9 0-21-3-36-8-41-100-87-174-137-221C384 78 311 36 216 0l-8 11c53 27 96 54 129 83s65 65 95 110c-13 2-25 10-34 24-13 21-29 38-48 49-38-49-80-90-125-122l-9 10c43 45 76 89 100 134s47 107 69 184l86-31m253-98h-58V198h58v156m-217 15h-97c-21-37-37-62-48-74 6-1 12-3 19-6 26-9 43-17 51-24s13-19 16-36c30 63 50 109 59 140M374 830l6 7c77-28 116-60 116-95 0-31-9-47-26-47-11 0-24 17-39 52-11 28-30 56-57 83m186-147v191l94-18v-15l-34-12V683h49l76 168 81-41-7-13h-27L692 683h100l34 44h15l53-50v-16H631c38-35 77-62 117-80s93-33 160-45l-3-12c-25-7-43-23-54-47-48 15-89 34-123 59-33 25-69 62-108 111V474l-3-13-49-17-8 7v181c-54-53-104-94-151-125-46-30-102-58-167-84l-5 13c61 34 109 67 146 99s74 74 113 126H296v22h264m-353 88 40 45h14l48-50v-17H165V495h24l38 44h13l46-50v-16H165V242l106 30 4-11L56 150v-30l-14-3-42 86 101 25v245H23v22h78v254H9v22h198Z"/></symbol><symbol id="痢_K" viewBox="0 0 1000 1000" data-size="21"><path transform="matrix(1 0 0 -1 54 942)" d="m0 663 6 8c41-23 67-40 78-52 12-12 18-28 18-49 0-13-2-23-7-30s-10-11-16-11-12 4-18 12c-5 8-9 19-12 34-4 24-20 53-49 88m118 144 72-25h259v101l97-21v-13l-33-19v-48h253l44 50h12l63-57v-15H185V545c0-50-1-92-3-126-1-34-5-72-12-113s-16-77-28-108-29-64-50-99S44 31 13 0L2 8c43 67 73 129 90 188s28 133 31 224l-66-66v-31l-11-4-45 75 122 56c0 95-1 182-2 261-1 17-2 49-3 96m38-696-7 11c49 53 89 105 118 156 30 51 56 113 79 185H204v22h150v123c-9-2-36-6-80-11s-66-8-67-8l-3 12c116 32 212 70 288 114l62-56-7-9-38 6c-13-5-43-17-91-34V485h68l38 40h14l46-46v-16H418v-79c51-17 87-32 107-47 21-14 31-33 31-58 0-9-2-16-7-23-5-6-10-9-15-9-8 0-24 17-47 50-13 17-36 38-69 61V32l-12-13-41-13-11 6v312c-65-95-131-166-198-213m529 481V204l-10-10-45-14-9 11v454l92-22v-14l-28-17M652 79l3 12 108-13c20 0 30 20 30 59v576l98-23v-14l-34-19V123c0-43-5-70-16-80-10-11-42-22-96-35l-9 7v26l-84 38Z"/></symbol><symbol id="立_K" viewBox="0 0 1000 1000" data-size="21"><path transform="matrix(1 0 0 -1 55 899)" d="M0 0v22h480c73 204 126 377 159 520l99-48-4-15-37-5-60-146L505 22h251l51 59h13l69-65V0H0m482 609h253l44 53h15l62-61v-14H47v22h370v188l97-17v-15l-32-16V609m-329-92 13 8c65-93 101-147 108-162l21-45 20-46c2-5 6-14 13-29 7-14 13-28 20-43 7-14 10-22 11-24L315 62c-14 21-22 34-24 39-2 6-4 22-6 48-4 49-18 106-41 173s-53 132-91 195Z"/></symbol><symbol id="罹_K" viewBox="0 0 1000 1000" data-size="21"><path transform="matrix(1 0 0 -1 54 944)" d="m429 686 95-39-2-13-31-5-43-89h131l40 146 88-41-4-13-32-5-70-87h154l46 47h17l47-55v-13H639V390h94l42 44h14l46-51v-15H639V235h101l43 46h15l47-52v-15H639V73h147l41 42h16l49-49V51H442V24l-8-11-45-13-11 5v433c-19-27-35-47-50-62-14-14-39-36-76-65l-9 10c45 50 81 100 106 150 25 51 52 122 80 215m146-167H442V390h133v129m0-305H442V72h133v142m0 154H442V235h133v133M71 527l15 1c3-43 5-74 5-93 0-34-6-65-19-92-12-27-26-41-41-41-7 0-14 5-21 15-7 11-10 21-10 32 0 10 10 28 29 55 19 25 33 66 42 123m753 282V681l-7-12-49-11-9 7v31H132v-29l-12-11-42-13-10 3v234l68-22h608l33 30h16l58-48v-12l-27-19m-529 27H132V717h163v119m64 0V717h166v119H359m400-119v119H589V717h170M189 605l-4-590-52-13-8 6 1 647 96-20v-14l-33-16m16-72 9 7c59-36 89-70 89-101 0-11-4-22-11-32-7-9-14-14-22-14-13 0-21 15-26 45-4 25-17 56-39 95Z"/></symbol><symbol id="臨_K" viewBox="0 0 1000 1000" data-size="21"><path transform="matrix(1 0 0 -1 63 935)" d="M343 779H196V585h39l28 26h13l52-45v-13l-22-20-1-197-4-16-49-14-10 5v36h-46V134h40l31 31h15l44-39v-14H65V51l-7-12-46-15-11 8-1 797 72-28h179l34 32h14l44-41v-13M131 347H65V134h66v213m111 217H65V368h177v196M131 779H65V585h66v194m180-176-9 9c30 37 54 72 71 106 18 34 39 85 62 153l88-36-4-14-29-7c-15-28-32-54-49-77h324l36 41h12l54-49v-14H428c-39-45-78-82-117-112m107-298h82l25 27h13l52-40v-13l-20-16 1-234-5-8-49-14-11 6v38H406V21l-7-11-50-10-7 9v321l76-25m88-21H406V72h100v212m172 342 28 27h16l54-41v-15l-24-19V422l-7-11-46-18-11 6v31H495v-28l-6-11-50-11-8 6v265l76-26 171 1m10-22H495V452h193v152m164-340 1-228-6-13-48-15-11 7v36H680V30l-7-9-48-16-9 4-1 319 71-23 100 1 26 26h15l47-40v-13l-22-15M680 72h108v212H680V72Z"/></symbol><symbol id="藺_K" viewBox="0 0 1000 1000" data-size="21"><path transform="matrix(1 0 0 -1 68 947)" d="M279 74V37l-5-10-50-10-8 6v269c-23-19-51-38-86-59l-8 9c36 36 64 68 83 96 20 29 44 71 72 127l81-38-4-12-29-5-39-44 121-1 24 91 76-31-4-13-23-3-48-44 132 1 37 38h13l52-44v-16H456v-63h104l35 33h12l45-39v-16H456v-69h95l38 35h14l46-41v-15H456V95h123l41 39h11l53-45V74H279m0 270v-63h112v63H279m0-85v-69h112v69H279m0-90V95h112v74H279m27 536 33 25h12l50-39v-13l-21-19V474l-6-12-49-11-9 4v37H107l-3-477L49 4l-6 8v724l71-31h192m10-21H107v-67h209v67m0-88H107v-82h209v82m440-104H551c0-9-1-16-4-22l-51-11-8 8v259l72-21h185l31 27h12l54-42v-13l-21-15V83c0-31-6-51-17-60S766 7 723 0l-10 8-1 22-72 27 1 14 72-7c29-3 43 11 43 41v387m-205 22h205v82H551v-82m205 170H551v-67h205v67M341 813l36 43h15l48-46v-19H278v-49l-5-12-48-14-8 6v69H0v22h217v81l97-18v-15l-36-16v-32h63m419 0 39 43h12l52-48v-17H631v-52l-5-11-48-11-8 7v67H461v22h109v81l97-18v-15l-36-16v-32h129Z"/></symbol><symbol id="裏_G" viewBox="0 0 1000 1000" data-size="21"><path transform="matrix(1 0 0 -1 29 978)" d="M0 843h828l37 43 69-47c6-8 5-14-4-20H80c-21 0-40-4-55-9L0 843m359 99 4 14c49-8 82-16 98-23 16-8 25-17 29-28 5-11 3-22-4-31-6-9-14-13-25-12-11 2-18 6-22 14-1 6-7 15-17 27-9 12-29 25-63 39M166 794l53-27h486l31 31 53-35c4-4 6-7 6-8 0-5-10-13-29-26V620l4-55c0-7-5-14-14-21-10-7-22-10-37-10v28H492v-69h272l33 31 55-41c2-2 3-2 3-2 4-9 2-14-5-13H492v-74h346l35 39 65-49c1-2 3-6 3-12-2-3-6-4-13-4H86c-14 0-36-2-66-8L4 394h435v74H166c-14 0-32-3-55-8l-15 33h343v69H217v-10c0-11-7-19-22-26-14-5-25-8-33-7l4 68v207m51-207h222v64H217v-64m275 64v-64h227v64H492m-275 26h222v64H217v-64m275 64v-64h227v64H492m2-408c4-3 6-6 6-10 0-1-12-6-35-15 29-36 66-71 109-104 68 53 116 95 145 127l54-41c2-5 2-8 2-10 0-1-4-2-11-4-13-2-26-6-39-13-37-20-81-44-131-73 54-35 108-60 162-75 52-15 108-23 168-25V70c-37-2-61-7-72-15-12-9-21-17-26-26-41 13-81 28-119 45-39 18-83 45-131 81-47 37-90 86-129 145-37-24-76-49-117-74V82l170 54 8-15c-88-37-143-62-164-74-22-11-42-26-61-47l-49 53c32 13 47 29 47 47v98c-70-39-159-75-265-108l-6 14c107 44 195 89 263 135 68 45 122 82 161 114l60-20Z"/></symbol><symbol id="裏_K" viewBox="0 0 1000 1000" data-size="21"><path transform="matrix(1 0 0 -1 55 944)" d="M730 682V523l-4-13-48-15-12 9v11H467v-73h249l37 45h15l56-54v-14H466v-81h310l40 42h9l50-51v-14H501c36-45 59-73 69-84s23-24 39-39c51 36 96 71 134 105l67-56-7-12-39 4-135-57c48-31 90-55 126-70 37-15 82-29 135-41V50c-18-5-31-11-39-17-7-7-15-18-23-33-85 36-152 75-201 118-48 43-99 109-154 197h-21l-41-26-27-18-87-56V109l280 51 4-13L184 30l-6-27-11-2-45 81 111 17v90c-73-27-149-48-227-62l-6 11c118 47 194 79 229 96s75 44 120 80l-334 1v22h387l1 83H153v22h250v73H210l1-10-5-11-52-11-7 9-1 266 68-27h442l31 27h17l49-41v-15l-23-20m-327-72H210v-71h193v71m0 98H210v-75h193v75m263-98H467v-71h199v71m0 98H467v-75h199v75M403 812v76l97-18v-12l-33-16v-29l270-1 49 59h13l64-64v-16H0l1 21h402Z"/></symbol><symbol id="裡_K" viewBox="0 0 1000 1000" data-size="21"><path transform="matrix(1 0 0 -1 57 943)" d="m9 325-9 10c52 56 94 110 127 162 33 53 69 122 106 209H4v22h121v157l94-18v-13l-29-17V728h44l30 27h16l50-51-1-16-28-9c-36-67-77-136-124-205v-38l38-19 81 126 65-52-6-12-33 1-86-75c59-37 89-69 89-94 0-31-10-46-30-46-13 0-27 18-41 54-13 33-39 64-77 91l-1-379-8-16-44-15-12 10v400c-43-39-77-68-103-85m743 502 31 27h15l54-40v-16l-25-20V423l-4-13-50-12-10 10v37l-129-1V278h106l42 43h15l53-50-1-16H634V84h143l39 43h15l55-52V61H298v23h272v171H381l-1 23h190v166H445v-41l-7-13-49-13-8 12v463l67-25h304M570 627H445V468h125v159m0 177H445V649h125v155m194-177H634V468h129l1 159m-1 177H634V649h129v155Z"/></symbol><symbol id="輪_K" viewBox="0 0 1000 1000" data-size="21"><path transform="matrix(1 0 0 -1 58 944)" d="M0 742v21h131v125l91-17v-13l-27-14v-81h77l33 30h15l41-37v-14H195V634h53l26 23h14l46-34v-14l-18-15V303l-8-10-48-11-8 7v31h-57V203h68l34 34h12l47-43v-13H195l1-160-10-14-43-7-11 8-1 173H0v22h131v117H76v-23l-7-8-50-15-8 8v375l66-23h54v108H0m131-401v140H76V341h55m0 161v109H76V502h55m121-21h-57V341h57v140m0 130h-57V502h57v109m86-111-11 9c59 61 103 117 134 168s62 120 95 209l94-33v-15l-26-8c33-65 69-117 107-156s89-76 152-111l-5-13c-16 1-28-1-36-6-8-4-16-12-25-25-48 38-88 79-119 124s-61 104-91 178c-51-88-97-155-138-202-40-46-84-86-131-119m443-44 26 28h18l50-41v-14l-22-18V93c0-27-5-45-15-56s-30-20-60-27l-10 5v27l-50 23 3 10 44 1c11 0 17 3 20 9s4 19 4 40v135h-81l1-206-3-7-53-18-9 6v225h-73V50l-5-10-49-14-10 5-1 229h-67V26l-8-12-46-12-10 5v476l69-28 337 1m-275-22h-67V281h67v153m138 0h-73V281h73v153m145 0h-81V281h81v153M442 566h218l32 29h14l40-35 1-15H442v21Z"/></symbol><symbol id="里_K" viewBox="0 0 1000 1000" data-size="21"><path transform="matrix(1 0 0 -1 60 892)" d="m667 757 28 26h17l55-42v-14l-26-22 1-345-8-13-48-13-9 6v23H470V207h227l40 43h15l54-52v-13H470V22h297l40 47h15l57-55V0H0v22h405v163H73v22h332v156H196v-22l-8-10-46-16-11 6v462l69-26h467M405 546H196V384h209v162m0 190H196V567h209v169m272-190H470V384h207v162m0 190H470V567h207v169Z"/></symbol><symbol id="隆_J" viewBox="0 0 1000 1000" data-size="21"><path transform="matrix(1 0 0 -1 72 952)" d="M183 799H60V299h117c11 27 17 54 17 80 0 27-5 56-16 85-10 25-34 62-71 109 27 60 52 135 76 226M75 826h108l28 41 60-44c12-8 18-16 18-23 0-11-7-17-22-19l-16-2c-33-73-71-142-112-205 36-40 61-70 74-89 14-21 26-48 35-81 5-17 7-31 7-42 0-44-10-79-30-105-13-17-30-30-52-39-11-5-19-7-25-7-7 0-12 6-13 18-1 14-3 22-5 25-3 8-27 16-70 23V10L0 0v873l75-47m556-56H450c-6-9-12-18-17-26 37-39 70-68 98-89 36 35 69 73 100 115m-165 28h172l35 39 68-48c8-5 12-13 12-22s-11-15-32-17l-14-1c-29-33-71-74-124-124 92-57 183-93 272-108l-5-20h-6c-15 0-27-3-35-10-5-5-12-15-19-28-38 11-80 30-127 55-49 27-89 54-120 80-37-29-81-56-132-82-53-27-105-48-156-64l-6 17c37 16 65 30 85 43 81 51 136 92 167 122-31 31-57 64-80 97-51-68-106-123-166-165l-15 15c29 27 51 52 66 73 36 51 67 104 94 159 11 22 23 54 36 95l73-26c15-5 23-12 23-21s-9-14-27-17l-19-2-9-19-11-21m101-444v-56h110l35 46 79-56v-18H567v-77h81l42 51 73-51v-27H567V65h167l43 55 77-57V38H224l-15 27h295v101H343l-14 27h175v77H366c-44-56-80-95-107-117l-15 10c21 26 41 59 61 98 23 47 42 93 57 138l62-25c13-5 19-11 19-20 0-8-8-13-24-16l-7-1c-8-13-16-26-25-39h117v104l68-5c19-1 29-6 29-15 0-7-7-15-21-22l-13-6m57 96 39 43 74-49v-21H320l-15 27h319Z"/></symbol><symbol id="隆_K" viewBox="0 0 1000 1000" data-size="21"><path transform="matrix(1 0 0 -1 77 935)" d="m0 844 65-27h123l27 25h16l52-54-4-12-29-10-96-206c59-79 89-151 89-217 0-40-9-71-27-93-17-21-46-37-86-46l-11 6-8 26-47 22 1-231-7-13L6 0 0 12v832m64-49V279l33-3 24-1c43 0 64 31 64 92 0 59-19 124-56 193l58 235H64M495 53v110H311v21h184v87H363c-33-55-78-107-135-157l-11 9c30 37 53 75 70 112 17 38 38 96 63 173l84-34-3-15-26-4-31-61h121v122l96-23v-15l-32-12v-72h134l27 37h16l46-45v-15H559v-87h112l31 34h14l42-39v-16H559V53h191l35 39h13l48-46V31H200v22h295m-57 817 82-41-5-15-30-3-20-26h180l27 20h15l51-62-7-14-33-2c-35-49-73-92-114-127 42-25 79-44 111-55 33-11 82-22 148-34l-1-12c-22-6-38-21-48-46-55 15-98 30-131 45-32 15-71 37-117 68-46-31-88-56-126-73s-93-37-165-59l-7 14c52 22 95 44 129 65s76 53 126 95c-30 33-59 71-86 115-55-53-112-98-171-135l-8 8c49 49 88 93 117 132s57 87 83 142m198-109H448l-15-18c37-46 72-82 103-107 42 42 75 84 100 125M376 434v21h223l36 43h10l56-49v-15H376Z"/></symbol><symbol id="隣_G" viewBox="0 0 1000 1000" data-size="21"><path transform="matrix(1 0 0 -1 57 968)" d="m201 896 55-53c4-5 7-9 8-14-2-3-7-6-16-10-8-2-18-10-31-25-27-59-59-135-98-227 27-19 55-45 84-78 27-31 44-60 51-88 6-26 9-47 8-62 0-14-4-28-12-43-8-16-18-30-31-43-13-12-33-25-63-37-4 18-13 30-25 37-13 6-37 14-72 23l4 18c18-4 35-7 48-8 12-1 27 0 45 2 18 3 33 11 45 25 12 15 16 37 12 67-5 30-17 60-37 90-20 29-48 62-84 99l86 258H49V146l4-105c0-9-6-18-18-25C23 8 12 4 0 4l4 138v754l51-42h119l27 42m494-387 63-20c5-2 8-4 8-6s-3-5-8-9l-20-10v-57h53l27 33 47-39c2-2 3-4 4-7 0-7-4-10-12-10H738V235h59l33 39 53-50c0-3 1-6 2-8 0-3-3-4-8-4H738v-93l4-82c0-9-8-17-21-25-12-8-22-12-30-12l4 117v95h-88l-31-25-43 41c11 4 20 11 26 19l27 100 57-28c3 0 5-3 5-7 0-2-2-4-3-6l-28-8-19-63h97v149h-62c-20 0-37-3-53-8l-17 31h132v102M348 899c52-25 87-46 103-64 16-16 24-31 24-43s-3-21-10-29c-8-6-16-8-26-6-8 1-15 10-19 25-5 16-11 31-20 45-7 13-27 33-58 61l6 11m277-148c40 53 73 105 98 156 40-26 60-41 60-45s-2-6-6-8c-4 0-10-1-19-5-10-2-50-38-119-108l-14 10M238 233c38 59 68 111 90 157 21 45 40 89 57 134l62-25c0-2 2-4 4-6-2-4-6-6-13-8-16-8-32-29-47-62h80l27 27 47-33c5-3 8-7 8-10 0-4-8-10-24-19-26-94-53-160-80-200-27-39-60-75-99-106-40-31-84-58-131-80l-8 12c48 33 88 64 121 93s63 67 88 115c25 46 45 105 59 177H377c-7-12-17-28-31-48 30-23 50-40 60-51 7-12 12-24 14-35 1-12-3-22-10-30-6-7-14-10-23-7-9 1-13 9-14 23-1 12-3 23-8 35-4 11-14 27-31 49-22-35-51-71-86-109l-10 7m348 653V716h178l35 39 58-45c2-2 4-5 4-8 0-8-4-12-11-12H635c13-20 29-40 49-60 19-19 45-38 76-57 29-18 71-29 127-33v-18c-32 0-52-3-61-7-8-5-15-14-19-28-24 10-46 23-67 39s-43 37-66 65c-22 27-43 60-65 99h-23V585l4-63c0-11-7-22-20-31-13-8-26-13-37-13l4 93v117h-16c-37-57-78-103-121-138-43-36-91-67-144-92l-8 12c54 36 100 75 137 115 36 41 63 76 80 105H318c-7 0-24-2-48-7l-16 33h283v221c53-14 80-23 82-26v-6c-1-2-12-8-33-19Z"/></symbol><symbol id="隣_K" viewBox="0 0 1000 1000" data-size="21"><path transform="matrix(1 0 0 -1 67 944)" d="m353 510 82-30-4-12-22-4-23-40h65l21 22h12l41-39h153v112l92-18v-14l-28-15v-65h37l24 28h13l46-38v-11H742V236h35l26 31h13l46-43v-10H742V30l-5-8-45-17-14 4v205H472v22h67v150h-11l-3-7-16-5c-33-93-74-169-121-229C341 86 282 37 212 0l-10 11c39 29 70 58 93 86s52 70 87 126c-15 3-25 7-30 11-5 5-12 13-19 26-5 8-12 19-21 34-33-47-66-83-97-108l-11 8c61 77 111 182 149 316m102-107h-80c-14-29-29-58-44-87l20-14c15-10 25-18 30-24s8-16 11-29c21 39 42 90 63 154m223-17h-75V236h75v150M508 888l94-15v-12l-29-23V725h43c31 50 57 97 79 142l77-45-6-14h-30l-95-83h132l28 34h12l52-42v-14H573v-13c43-33 86-58 127-77s93-35 156-49l-2-13c-19-7-36-19-51-38-72 25-149 76-230 154V495l-5-10-50-9-10 5v156c-42-36-81-64-116-84s-84-42-147-65l-9 14c65 34 113 64 145 90 33 27 67 64 103 111H260v22h248v163m-184-37 6 9c41-13 70-26 89-39s29-29 29-50c0-8-3-16-8-24-5-7-10-11-16-11-9 0-22 16-40 48-12 21-32 44-60 67M0 871l67-25h114l29 24h17l52-51-7-14-27-7-97-202c41-57 69-103 84-137s22-70 22-109c0-41-9-74-27-97s-48-40-89-52l-11 5-8 23-47 28 5 13 31-2c7-1 15-1 23-1 19 0 35 9 47 27 13 19 19 42 19 71 0 75-24 151-72 230l59 230H63L56 12 10 0 0 5v866Z"/></symbol><symbol id="離_K" viewBox="0 0 1000 1000" data-size="21"><path transform="matrix(1 0 0 -1 58 947)" d="M269 762h116l31 36h16l44-44v-13H0v21h205v126l92-17v-15l-28-17v-77M18 377l70-27h102l43 112H114v-33l-5-7-53-17-6 6-1 311 92-13v-12l-27-14V483h241v239l87-13v-12l-23-16V438l-7-12-49-15-8 4v47H249l63-35-1-12-33-4-32-61h131l19 21h13l52-35v-12l-19-13V101c0-29-8-50-23-65s-41-26-78-34l-9 6v21l-68 31 4 12 64-2c15-1 27 3 34 11 8 8 12 20 12 37v211H236l-77-133 145 16c-18 31-37 56-56 75l8 8c42-23 72-44 91-61s28-37 28-58c0-8-2-16-7-23s-10-11-15-11c-9 0-17 8-24 24l-17 34-161-64-4-26-16-5-37 86 40 5 51 133H83V24l-6-13L24 0l-6 9v368m107 132-9 9c5 5 15 15 29 28s27 26 38 37c11 12 21 22 28 30-19 17-44 36-73 56l7 10c25-11 53-25 85-42 21 27 42 57 61 91l60-31-7-16-22-2-58-62c28-18 46-32 55-41s14-23 14-40c0-19-5-28-14-28s-21 10-36 31c-13 17-29 34-48 49-33-27-70-54-110-79m407 385 95-31-3-13-30-10c-18-46-40-98-65-155l18-14h103c35 79 63 151 84 217l76-44-4-15-29-4-102-154h117l31 38h12l48-47v-12H717V491h65l29 36h12l46-44v-14H717V302h65l29 34h12l46-46v-10H717V111h73l30 40h15l48-48V89H554V32l-6-12-51-14-7 5v609c-16-33-33-64-51-91l-13 6c47 114 82 234 106 359m121-614h-99V111h99v169m0 189h-99V302h99v167m0 181h-99V491h99v159Z"/></symbol><symbol id="鱗_K" viewBox="0 0 1000 1000" data-size="21"><path transform="matrix(1 0 0 -1 53 948)" d="m246 787 29 29h15l51-54-5-13-26-5-96-108h76l28 35h15l53-35v-13l-25-30V332l-6-12-49-12-9 6v20H97v-14l-12-12-43-9-9 9v297l-22-25-11 12c42 76 80 161 113 254l18 49 83-28-2-16-26-7-32-57h92M79 650l26-14h87l64 130H146c-2-3-5-9-9-17-27-49-47-82-58-99m86-293v114H97V357h68m0 135v122H97V492h68m132-135v114h-68V357h68m0 135v122h-68V492h68M33 247h17c12-58 18-105 18-141 0-23-4-44-12-61-8-18-17-27-28-27-7 0-13 5-19 15S0 53 0 64c0 12 2 23 7 32 2 4 5 10 8 17 3 8 5 13 6 15 1 3 3 6 5 11 3 5 4 8 4 10s0 5 1 8c1 4 2 8 2 11v12c1 4 1 9 1 16 0 29 0 46-1 51m229 11 8 10c47-22 77-39 90-51 13-11 20-26 20-44 0-25-7-37-20-37-6 0-13 7-21 22-16 31-28 52-35 61-7 10-21 23-42 39M273 0l-10 13c49 32 88 62 115 90 28 29 55 65 82 110-11 3-19 14-24 34-5 18-16 35-33 50-17-17-35-34-55-50l-12 9c21 27 39 58 56 92 17 35 30 64 39 89s20 59 33 103l80-27v-14l-26-7c-7-16-20-42-39-78h62l25 26h11l45-43-2-11-20-13c-37-99-80-175-128-230S358 41 273 0m270 392h-75c-14-26-30-52-49-77 29-13 48-23 56-31s11-19 10-33c20 38 39 85 58 141M378 505l-11 8c40 35 72 68 95 99 24 31 51 74 81 128H373v22h191v134l91-16v-14l-28-12v-92h45l66 134 74-48-5-13h-28l-81-73h83l40 42h15l49-52v-12H636c38-48 74-83 107-106s84-46 151-69v-13c-17-3-30-6-37-11-7-4-16-13-25-28-45 26-82 53-111 80-29 28-60 67-94 117V519l-5-10-49-11-8 8v168c-35-43-64-76-89-98-24-22-57-46-98-71m17 375 7 9c39-11 68-22 88-33 21-11 31-27 31-47 0-9-3-17-9-26s-12-13-18-13c-7 0-16 8-26 24-17 28-29 46-36 53-7 8-19 19-37 33m401-668-1-185-7-14-47-9-9 9v199H548v22h79v180l68-16h37v124l94-17v-13l-30-14v-80l10 1 28 31h13l38-38v-15h-89V234l13 1 30 34h15l40-42v-15h-98m-64 165h-45V234h45v143M86 243l11 8c57-55 85-99 85-134 0-13-3-26-10-37-7-12-14-18-22-18-15 0-23 21-23 64 0 33-14 72-41 117m89 4 12 8c39-35 64-61 76-78 13-17 19-35 19-55 0-9-3-18-9-25-5-7-10-10-15-10-11 0-19 10-24 30-9 42-16 67-21 76-4 9-17 27-38 54Z"/></symbol><symbol id="麟_K" viewBox="0 0 1000 1000" data-size="21"><path transform="matrix(1 0 0 -1 54 941)" d="m5 812 76-28h102v88l85-14v-11l-22-10v-53h91l30 33h12l49-43v-12H72V645h54v104l83-20v-11l-23-13v-60h42v104l88-13-1-14-26-13v-64h40l28 22h16l47-36v-11l-19-14V460l-4-6-52-12-8 3v36H72v-50c0-89-4-162-12-220-7-58-23-120-47-185L0 29c9 62 13 139 13 232v90c0 24 0 46-1 66L6 729c-1 28-1 56-1 83m121-310v121H72V502h54m102 0v121h-42V502h42m109 121h-48V502h48v121M50 115l44 16v314l83-23v-12l-22-13v-80h31l23 28h14l26-28v128l87-20v-11l-24-13V269l57 73 41-47-7-14-16 6-75-39v-87l-1-22c0-7 12-11 35-11 13 0 23 9 30 28l15 39 11-1-8-71 28-13V97c-18-17-38-25-60-25h-68c-11 0-20 1-26 3-6 1-10 5-13 10-3 6-4 11-5 16s-1 14-1 25v35L105 69V41l-10-6-45 80m105 31 94 33v116h-94V146m213 40-9 7c35 49 61 93 78 132s33 93 49 161l75-23-3-13-23-5-15-40h55l20 19h15l43-43-8-15-21-8c-23-84-54-152-91-203S440 53 364 0l-8 8c57 51 106 111 149 181-7 5-15 20-25 44-7 16-17 30-31 41-27-34-54-63-81-88m209 197h-66c-9-23-25-54-49-91 26-7 44-14 53-23 9-8 14-21 14-38 23 52 39 103 48 152m48 85v161c-27-37-53-68-80-91-26-23-67-51-124-86l-8 8c42 34 75 66 98 96 24 30 50 72 77 127H397v22h135c-5 9-13 28-22 57-5 18-15 37-32 56l8 8c39-26 63-45 74-56s16-25 16-43c0-7-2-14-6-22h55v176l91-19v-11l-27-18V705h32l55 139 81-43-6-11h-24l-81-85 54 1 28 29h13l46-39v-13H696c30-38 59-68 86-89s62-40 105-58l-3-15c-13-1-23-4-29-8-5-4-12-13-19-27-25 15-48 35-67 58s-40 53-63 88l-17 26V481l-6-13-49-8-9 8m197-235 25 30h12l33-39v-13h-70V34l-10-15-45-15-10 9v198H584v22h70v193l66-21h37v90l88-20v-12l-23-14v-44l23 25h14l33-29v-18h-70V233m-65 150h-42V233h42v150Z"/></symbol></svg>