<svg xmlns="http://www.w3.org/2000/svg"><symbol id="什_K" viewBox="0 0 1000 1000" data-size="21"><path transform="matrix(1 0 0 -1 54 943)" d="m9 405-9 9c58 73 104 143 137 210s70 155 110 262l93-49-6-14-35-5-79-156 24-11v-13l-26-20V25l-7-11-47-14-10 9-1 547C107 498 59 448 9 405m236 164h308v312l99-21v-14l-35-17V569h162l43 53h14l56-58v-18H617V28l-7-13-46-13-11 8v536H246l-1 23Z"/></symbol><symbol id="兀_G" viewBox="0 0 1000 1000" data-size="21"><path transform="matrix(1 0 0 -1 50 922)" d="M566 772V138c0-27 4-42 14-46 9-3 24-6 43-8h162c16 2 28 6 35 12 6 6 10 15 14 28 3 13 5 63 8 150h17c4-70 8-113 14-128 4-16 13-28 27-38-11-26-24-44-39-53-13-8-34-13-60-16H592c-28 0-47 6-59 18s-17 33-17 61v654H309V515c0-151-28-264-82-338C173 104 99 45 6 0L0 16c89 58 154 122 195 190 39 68 60 167 63 297v269H57c-8 0-18-3-30-7L4 798h752l37 47 62-59c2-8 0-13-5-14H566Z"/></symbol><symbol id="兀_H" viewBox="0 0 1000 1000" data-size="21"><path transform="matrix(1 0 0 -1 36 936)" d="M14 826c28-8 67-12 115-12h646l53 57c27-19 52-38 76-56 7-3 10-8 10-14 0-9-6-14-18-14H592V125c0-8 3-15 9-21 3-7 13-12 27-14 15-3 45-4 91-4 37 0 71 2 103 5 12 1 20 6 26 14 6 6 11 16 15 31 7 21 13 71 18 151l15-4c-2-48-3-95-3-140 0-13 2-22 5-27 7-8 15-14 24-19 4-4 6-8 6-15 0-2-2-5-5-8-4-6-13-11-27-14-15-7-38-11-67-12-33-3-62-5-88-5-48 0-83 1-106 4-22 1-39 3-51 9-14 5-24 12-30 21-5 8-7 15-7 21v689H342c0-68-2-130-6-184-5-68-14-123-25-164-10-54-23-102-41-144-19-45-38-85-59-119-26-37-56-70-91-99C89 48 52 22 10 0L0 18c60 37 104 73 133 109 28 33 53 72 76 117s40 95 51 149c13 43 23 98 29 163 5 54 8 132 8 231H129c-47-1-78-2-94-4l-21 43Z"/></symbol><symbol id="兀_U" viewBox="0 0 1000 1000" data-size="23"><path transform="matrix(1 0 0 -1 41 916)" d="M317 755H139c-8 0-18 0-29-1-11 0-24-1-38-2-13-1-27-2-40-5l-18 46c17-4 34-7 53-9s37-3 55-4h50c15 1 28 1 38 1l582-1 34 46c2 3 5 5 10 5s14-7 27-21l36-37c3-3 4-6 4-11s-3-7-9-7H591V125c0-31 18-47 53-47h139c34 0 54 18 59 53l18 137 16-1 2-92c1-21 3-39 7-52s12-25 23-34c6-5 9-9 9-12 0-4-4-8-12-13-7-5-16-9-27-13l-33-9c-11-2-20-3-27-3H605c-41 0-62 27-62 80v636H366v-34c0-159-10-274-29-346-29-109-91-203-186-282C77 31 30 0 10 0L0 11c35 0 86 41 154 124 60 73 99 132 117 177 31 78 47 199 47 364v62c0 9 0 14-1 17Z"/></symbol><symbol id="凞_J" viewBox="0 0 1000 1000" data-size="21"><path transform="matrix(1 0 0 -1 42 946)" d="M0 489h58l109 241 19-8-72-244c-3-11-5-28-5-51 0-10 3-29 9-58 4-19 6-34 6-46 0-20-5-36-16-48-7-7-16-11-26-11-12 0-22 5-29 15-7 9-10 22-10 39 0 12 1 25 4 40 5 25 7 43 7 54 0 17-5 30-15 39-7 6-20 11-39 15v23m124-275h16c3-13 4-28 4-44 0-53-11-96-33-129C92 14 71 0 47 0 36 0 27 4 20 11c-6 6-9 13-9 22 0 7 3 14 8 20 1 1 8 7 23 18 24 19 42 41 55 68s22 52 27 75m74 39v629l66-38h146l38 48 70-55v-20H375V684h66l19 32 51-35c11-7 16-14 16-20 0-7-3-11-9-12l-20-4V462l-57-11v44h-65V339h61l39 47 62-49v-26H255v-50l-57-8m57 242V339h66v156h-66m0 28h186v134H255V523m0 294V684h66v133h-66m20-603 11 9c73-56 109-110 109-161 0-33-12-50-35-50-8 0-15 3-20 10s-10 27-17 62c-12 45-28 88-48 130m198 0 8 13c105-55 157-110 157-165 0-14-4-25-13-33-7-6-14-9-22-9-10 0-18 7-23 20-20 55-56 113-107 174m417 255-12-85v-7c1-9 7-17 18-25 3-3 7-5 11-7 2-1 5-3 9-6-9-16-18-27-28-32-18-9-40-14-65-14H624c-33 2-49 21-49 58v526l70-33h136l21 38 59-40c7-5 10-9 10-14s-4-9-12-11l-18-5V527l-60-11v51H635V373c0-10 1-16 2-18 1-3 6-4 13-4h152c11 0 21 4 28 12 9 9 16 25 23 48l18 58h19M635 595h146v222H635V595m61-377 10 11C829 160 891 98 891 42c0-13-4-23-13-31-7-6-15-9-25-9-12 0-22 9-29 26-27 56-70 119-128 190M9 856l10 9c37-22 61-38 72-47 26-22 39-48 39-78 0-25-10-38-31-38-5 0-10 2-13 5-5 5-13 21-23 49-8 21-18 42-30 62-10 15-18 28-24 38Z"/></symbol><symbol id="凞_U" viewBox="0 0 1000 1000" data-size="23"><path transform="matrix(1 0 0 -1 77 914)" d="M273 787h144l36 41 60-47v-21H384V637h40l25 33 42-31c9-7 15-13 18-16s5-6 5-9-2-6-6-8-12-4-23-7V429l-54-7v33h-47V313h39l36 41 61-46v-21H260v-35l-54-7v571l67-29m158-177H260V481h171v129m-98 150h-73V637h73v123m0-447v142h-73V313h73m269 12c0-3 1-5 3-6s7-1 14-1h126c5 0 9 1 14 2s10 5 15 12 10 19 15 34c5 16 11 39 16 68l17-2-5-70c0-1 0-3-1-5v-4c0-11 3-19 8-22s12-7 21-10c-2-10-5-18-8-25s-7-12-14-16c-6-3-15-6-26-8-11-1-25-2-43-2H611c-15 0-26 1-35 2-9 2-15 5-20 9-4 4-7 9-8 16s-2 17-2 28v492l65-28h113l27 36 41-31c9-7 15-13 18-16s5-6 5-9-2-6-6-9c-3-2-10-4-20-6V488l-56-7v46H602V325m131 438H602V553h131v210M14 801c20-6 37-14 51-23s26-19 35-30c9-10 16-20 20-31 5-11 7-20 7-29 0-12-3-21-10-28s-15-10-25-10-17 4-20 12c-3 9-7 20-10 33s-9 28-16 44c-7 17-20 33-39 50l7 12m171-135-74-226c-3-7-4-15-5-23 0-7 0-15-1-22v-9c0-9 1-18 3-26 3-7 5-15 8-23s5-16 7-25c3-9 4-18 4-29 0-13-4-24-13-31-8-7-16-11-25-11s-17 3-24 9c-6 6-9 13-9 22 0 5 0 10 1 17s1 15 2 22c1 8 1 16 2 23s1 14 1 19c0 7-1 15-2 23-1 9-3 16-7 23s-10 13-19 18c-8 5-19 7-34 7v17h60l110 231 15-6m440-460c40-16 73-32 99-48s47-31 62-46c16-15 27-28 33-41 7-13 10-24 10-33 0-12-3-21-10-28S805 0 796 0c-11 0-19 2-24 6s-9 10-13 18c-4 7-8 17-13 28s-12 24-22 39-24 31-42 49c-17 18-40 37-69 58l12 8m-472-7c1-5 1-10 1-15v-13c0-28-4-53-12-74-7-21-17-39-29-53-11-14-24-24-37-31S52 2 41 2s-19 3-25 8c-5 5-8 12-8 20 0 7 3 13 8 18 6 5 13 11 22 16s19 11 29 17c11 7 21 15 30 25 10 11 18 23 25 38s12 34 14 57l17-2m297 2c45-29 77-57 94-83 17-25 26-46 26-63 0-12-3-21-10-28s-14-11-23-11c-15 0-24 4-27 12s-6 20-9 35-8 34-16 56-24 47-48 75l13 7m-163-3c23-28 39-53 48-75 9-21 14-40 14-56 0-17-4-29-11-38s-15-14-25-14c-1 0-4 0-7 1-3 0-6 1-9 3-3 1-5 4-8 7-2 3-3 8-3 15s1 16 2 26c2 10 3 22 3 36 0 12-1 25-4 40-2 15-7 32-14 50l14 5Z"/></symbol><symbol id="切_K" viewBox="0 0 1000 1000" data-size="21"><path transform="matrix(1 0 0 -1 58 933)" d="m474 566-293-51V327c0-22 2-37 7-45s15-12 32-12h66c21 0 35 3 43 9 8 7 15 21 22 42l31 94 14-3-11-133 27-21v-15c-29-19-67-28-116-28h-94c-32 0-55 7-68 20s-19 37-19 70v199L1 485l-1 21 115 21v338l96-18v-14l-30-16V537l179 32 32 53 12 1 68-41 2-16M222 2l-7 11c81 43 143 90 187 141 45 51 78 118 99 201 22 83 33 190 33 322v80H350v23h432l35 28h13l53-45v-14l-25-15c1-34 1-91 1-171 0-79-1-143-3-193-1-50-5-97-10-140s-11-77-19-101-20-45-35-64-33-33-52-42-43-17-72-23l-11 6-6 32-108 42 3 13 103-12c4-1 10-1 18-1 41 0 70 15 86 46 19 37 30 80 35 131s7 136 7 255v133c-1 29-1 66-1 112H600c-1-45-2-81-3-109-1-27-2-60-5-99-3-38-6-69-10-94s-9-53-16-85-15-59-25-80c-9-21-21-45-35-71-13-25-29-47-47-66-18-18-39-37-62-56s-49-37-78-52-62-30-97-43Z"/></symbol><symbol id="刺_K" viewBox="0 0 1000 1000" data-size="21"><path transform="matrix(1 0 0 -1 63 937)" d="M246 8v259c-34-49-68-90-101-122S67 77 9 38L0 49c63 59 112 113 146 163 35 50 68 116 100 197v155H121V341l-9-10-46-17-10 5v294l65-25h125v119l-234 1v22h234v143l99-17v-15l-34-15-1-96h133l38 47 13-1 57-53v-15H311V588h121l31 28h13l53-45v-15l-26-11V418c0-25-6-43-17-53s-34-19-71-27l-12 6v26l-74 27 3 15 72-6c13-1 22 1 27 6s7 16 7 33v119H310l1-228 46-21c57-25 97-48 120-69s35-45 35-72c0-24-6-36-19-36-10 0-20 7-29 20-33 47-58 79-74 96s-43 37-80 61V28l-8-13-44-15-12 8m354 230 1 510 87-18v-13l-24-16 1-435-9-16-46-15-10 3m32-145 3 14 106-6c14-1 24 3 31 11s11 20 11 37v720l92-22v-14l-27-17V126c0-33-6-56-19-69s-40-26-83-37l-12 5v33L632 93Z"/></symbol><symbol id="嗀_G" viewBox="0 0 1000 1000" data-size="21"><path transform="matrix(1 0 0 -1 26 969)" d="M80 452h262l29 31 51-41c4-2 6-4 6-7-1-5-6-8-16-8H146c-11 0-27-3-46-8l-20 33M16 804h214v134l71-27c4-2 7-4 8-8 0-2-3-6-8-9l-24-8v-82h131l31 39 53-45c2-1 4-3 6-8 0-6-4-10-12-10H277V677h100l29 37c37-27 57-43 61-47 2-8-2-13-12-14H127c-14 0-31-2-53-6l-19 30h175v103H96c-26 0-45-2-57-8l-23 32m406-227 27 33 53-41c6-8 3-13-12-15-13-5-26-12-37-22-10-8-23-23-39-45l-16 6 28 61H80c0-28-4-48-12-61-5-12-13-20-23-25-9-6-17-8-25-6s-13 8-16 17c-4 10-1 19 10 28 9 7 17 16 25 27 8 10 15 37 22 80h17v-37h344m353 322 55-35c2-4 3-8 4-10 0-1-10-10-29-27V628c-1-18 4-27 15-27h47c10-1 20 2 29 7 6 5 10 7 14 6 21-21 32-32 33-31 0-8-5-14-17-18-10-3-24-5-43-5h-74c-7-1-18 2-34 7-11 11-17 25-17 43v235H621v-73c0-65-8-117-25-156-16-40-53-79-112-119l-9 12c46 45 74 86 84 123 9 37 13 88 13 152v115l51-31h127l25 31m39-378 53-40c11-7 9-14-4-19-9-4-18-12-25-24-36-106-74-186-115-238 26-35 58-65 95-89 36-23 80-38 133-45V49c-25 0-43-1-55-4-11-4-24-14-37-29-35 21-64 43-86 64-21 22-47 51-78 87-29-33-62-62-99-87-35-23-85-50-149-80l-8 14c54 31 100 62 137 93 37 29 69 59 94 91-24 41-43 81-59 121-15 41-28 87-39 139h-23c-14-2-22-4-26-6l-21 31h281l31 38m-216-61c23-96 56-172 97-229 35 47 68 123 98 229H598M90 368l55-31h214l30 35 49-35c7-4 11-9 11-14 0-2-11-11-33-29V151l4-69c0-8-5-16-14-23-10-8-23-13-39-16v68H139V59c0-8-7-16-20-24-12-8-23-11-33-10l4 128v215m49-228h228v168H139V140Z"/></symbol><symbol id="嗀_H" viewBox="0 0 1000 1000" data-size="21"><path transform="matrix(1 0 0 -1 34 954)" d="M14 828c28-6 67-10 115-10h92v10c0 35-2 62-4 80 29-5 54-10 73-15 6-5 9-10 9-14 0-3-2-6-6-8-7-4-16-7-25-10v-43h111l43 43c21-16 40-31 57-45 6-3 9-7 9-11 0-11-4-16-13-16H268v-92h82l39 39c19-15 37-29 52-42 6-2 8-5 8-8 0-12-4-18-13-18H174c-46-1-76-2-92-4l-21 43c28-6 66-10 113-10h47v92h-92c-47-1-78-1-94-2l-21 41m50-207h14v-39h332l26 29c20-15 39-30 57-46 2-1 3-2 3-4 0-6-6-10-18-12-9-2-17-4-25-6-8-9-16-20-26-33-9-11-19-22-31-31l-11 7c7 12 13 24 18 37 5 11 8 21 11 32H77c-1-11-1-21-3-30-2-18-7-33-12-44-4-11-8-19-14-26-4-6-8-10-13-13-4-2-9-3-14-3-14 0-21 5-21 14 0 5 3 12 8 19 16 19 27 35 34 49 6 11 11 25 16 42 3 14 5 33 6 58m14-152c28-8 65-12 111-12h114l39 43c22-14 41-29 58-45 7-2 10-4 10-8 0-11-4-17-14-17H189c-44-1-76-2-93-4l-18 43m-8-104 49-37h236l24 26c32-21 49-36 49-43 0-8-9-17-28-28V119c11-6 20-14 27-21 3-2 5-5 5-8 0-9-3-14-8-14H121V18c0-10-7-14-21-14-6 0-12 2-20 6-6 6-10 14-10 23 0 11 1 26 2 45 4 15 6 46 6 94v125c0 25-2 48-8 68m51-261h229l4 3v186l-1 8H123l-2-8V104m422 789 49-36h119l43 43c21-16 40-31 58-45 5-3 8-7 8-11v-4c0-4-2-7-6-9-1-2-3-3-5-3-7-3-15-6-24-10V637c0-19 1-33 2-43 1-7 3-13 6-16 3-4 7-7 15-9 9-3 19-5 29-5 9 0 18 1 28 3 7 2 13 6 17 11 4 3 8 4 11 4 10 0 19-2 26-6 5-4 7-13 9-25 0-3-1-6-2-7-2-4-3-6-5-7-7-3-15-5-26-7-17-3-34-5-51-5-22 0-41 2-55 5-12 2-20 4-25 7-6 3-10 8-14 15-5 9-8 18-10 28-1 10-2 24-2 41v207H595l-3-6c0-41-2-76-4-106-5-33-11-62-18-85-7-26-16-45-24-59-11-22-29-46-54-72l-17 18c15 17 26 37 33 58 8 20 15 41 21 63 6 23 9 53 12 89 3 33 5 63 6 91-1 28-2 52-4 74m-82-414c25-7 62-10 109-10h186l43 39c25-17 44-33 58-48 7-4 10-8 10-13 0-4-6-10-17-17-10-7-23-12-39-16-25-68-47-121-69-161-15-27-28-48-40-65 12-13 26-24 41-34 33-27 66-48 99-62 28-15 58-25 90-31V47c-39 0-62-12-69-35-44 21-80 43-107 68-31 23-59 48-83 75-20-21-42-40-65-57-28-21-56-39-85-55-30-16-64-31-101-43l-8 18c46 18 80 36 101 52 22 13 48 31 79 56 19 18 37 38 53 60-29 35-54 71-73 110-22 44-42 93-61 146-20 0-33-1-38-3l-14 40m80-36c18-49 35-89 52-118 21-35 43-66 66-94 5-6 9-11 13-15 16 25 30 55 45 90 19 38 35 84 47 137H541Z"/></symbol><symbol id="嗀_U" viewBox="0 0 1000 1000" data-size="23"><path transform="matrix(1 0 0 -1 41 942)" d="m915 71-4-15c-3 1-7 1-12 1-7 0-14-2-21-5s-12-6-17-9-8-7-11-10l-4-5c-5 0-16 5-33 14-16 9-34 21-54 34s-40 27-60 42c-19 15-35 29-47 40C589 97 490 44 355 0l-8 15c136 55 230 111 281 168-28 33-53 68-74 106s-38 79-53 123l-24-2c-12-1-20-3-24-4l-18 40c22-3 44-6 66-8s44-3 65-3h207c16 23 27 34 32 34 3 0 7-2 13-7 7-5 13-10 20-17s12-13 17-20c5-6 8-10 8-13 0-8-4-17-12-27-8-9-17-19-27-28s-20-18-29-26c-9-7-14-12-15-15-29-50-63-95-102-134 60-53 139-90 237-111M704 804H583v-15c0-141-38-247-113-316l-9 7c53 65 80 158 80 279v48c0 22-2 39-5 50l33-16c3-1 7-4 12-7l15-9h101l23 26c1 1 3 2 6 2s7-2 13-6c7-4 13-9 20-14s12-11 17-16 7-9 7-12c0-2-2-5-7-8-4-3-9-5-14-8-5-2-9-4-13-7-4-2-6-4-6-5V601c0-17 2-28 5-33 4-5 14-8 30-8 5 0 10 0 14-1h24-2c9 0 17 2 24 5 7 4 13 8 18 13s10 9 13 12c4 4 8 6 11 6 2 0 5-1 9-4 5-3 9-6 13-10 5-3 8-7 11-11s5-7 5-10c0-25-37-37-110-37h-14c-19 0-34 1-46 2-11 2-20 5-27 9-7 5-11 11-14 18-2 8-3 18-3 30v222m-438-47v-86h98l30 39c2 3 5 5 10 5 3 0 7-3 12-8 6-5 14-13 24-22l21-21c1-1 2-3 2-5 0-6-3-9-9-9H173l-55-3H95c-13 1-24-1-33-6l-18 43c9-3 18-5 29-7 11-1 23-2 36-3l69-3h48v86h-75c-16 0-31 0-46-1s-28-2-39-3-21-2-28-3-12-1-14-2L7 790c25-5 47-8 68-9l74-3h77l-1 71c0 17-2 29-5 34 56-9 84-19 84-28 0-1-2-3-6-6-4-2-8-4-13-7s-9-5-13-7-6-4-6-5v-52h127l29 40c3 3 6 5 9 5 4 0 23-17 56-50 3-3 4-6 4-10s-3-6-10-6H266M86 545v-24c0-76-23-114-68-114-12 0-18 8-18 23 0 2 2 6 5 12 4 6 8 13 13 20s11 15 16 23c5 9 10 17 13 24 12 26 19 54 21 84l16-1 2-25h315l23 26c3 3 5 4 8 4 2 0 6-2 11-7 6-5 12-10 17-17 6-6 11-12 15-19 5-6 7-10 7-13s-2-5-5-6-8-3-15-6c-6-2-14-5-23-10s-20-12-33-22l-17-13-9 7 35 54H86m138-120-56-3h-23c-13 1-24-1-33-6l-17 43c9-3 18-5 29-7 11-1 22-2 35-3l69-3h89l26 33c2 3 5 5 9 5s21-15 51-45c2-2 3-4 3-6 0-5-3-8-10-8H224M143 92V50c0-20-11-30-34-30-7 0-10 7-10 20 0 3 1 45 3 124l2 80v16c0 8 0 16-1 25 0 9 0 19-1 29l-3 45 26-15 26-19h190l25 29c3 4 6 6 9 6 3-1 6-4 10-7l36-33c5-5 7-10 7-13s-2-6-6-9-9-6-14-9-9-5-13-8c-4-2-6-3-6-4v-82c0-5 0-14 1-25s1-22 1-35c1-13 1-25 2-36s1-19 1-24c0-19-10-28-29-28h-5c-6 0-9 5-9 15v30H143m208 212H143V113h208v191m168 108c35-91 79-159 132-206 47 50 90 119 127 206H519Z"/></symbol><symbol id="塚_J" viewBox="0 0 1000 1000" data-size="21"><path transform="matrix(1 0 0 -1 48 932)" d="M117 277v308H14L4 612h113v246l80-7c16-1 24-7 24-18 0-6-5-11-16-16l-27-12V612h27l36 49 65-54v-22H178V293c39 12 76 25 111 38l5-17c-77-45-151-85-220-121l-5-24c-1-9-6-13-13-13-5 0-10 4-15 13L0 247c39 9 78 19 117 30m37-108-7 18c97 49 174 97 231 146-5 15-13 31-24 48-9 14-18 25-26 34-25-11-49-20-70-29l-9 15c72 41 124 72 155 94 42 31 81 65 117 103H330l-9 27h441l46 54 71-62v-19H620c5-71 21-138 49-201 47 48 89 95 126 142l65-48c9-7 13-13 13-19 0-7-5-11-14-11h-7l-25 3c-17-10-56-33-118-70l-30-17c31-61 66-112 105-154 33-35 70-67 110-98l-7-13c-7 1-11 1-13 1-19 0-34-5-44-14-3-3-7-9-12-17-66 65-118 141-157 228-38 87-60 176-66 269-36-28-68-52-97-71 97-91 145-201 145-331 0-67-14-114-43-141-14-13-33-23-58-31-10-3-18-5-23-5-8 0-12 8-13 25 0 7-2 12-5 15-6 7-36 15-91 25v17h150c15 34 23 76 23 125 0 18-2 40-7 65C454 163 315 81 159 26l-6 15c87 47 162 93 223 137 89 66 151 121 184 164-5 15-12 32-21 50-40-30-71-52-93-67 10-16 15-30 15-43s-5-25-15-34c-7-6-14-9-22-9-9 0-14 4-17 12-2 5-4 12-7 22-1 4-3 10-6 17-35-23-80-48-135-75-37-19-72-34-105-46m192 254c25-17 49-36 70-58 26 22 56 50 90 83-11 15-22 30-33 43-49-29-92-52-127-68m2 439h19c4-13 7-26 8-38h402l30 39 81-66c10-8 15-15 15-21 0-5-2-9-6-12-5-3-10-5-17-4h-3l-36 2-102-80-12 10 54 105H376c0-31-5-57-16-78-15-27-33-41-56-41-21 0-31 11-31 33 0 10 6 20 18 31 23 20 38 40 47 59 7 15 10 36 10 61Z"/></symbol><symbol id="塚_U" viewBox="0 0 1000 1000" data-size="23"><path transform="matrix(1 0 0 -1 62 903)" d="m353 805 9-35h380l26 34 62-53c9-7 14-13 14-18 0-4-3-7-9-10-6-2-18-4-35-5-11-11-24-22-37-33s-25-21-34-28l-18 8c4 11 9 23 16 38s13 29 16 41H363c0-16-2-30-7-43-4-12-9-22-16-30s-14-14-22-19c-8-4-16-6-23-6-9 0-17 3-22 9s-8 13-8 21c0 9 4 17 11 23 8 7 16 14 25 22s18 18 25 30c8 12 12 28 12 48v6h15M0 261c14 3 30 6 48 9s37 7 58 12v264H8l-5 26h103v229l59-7c17-2 26-6 26-11 0-8-8-14-25-19V572h21l38 49 64-55v-20H166V297l127 32 5-17c-15-7-32-16-53-26s-42-20-64-30-43-20-64-29c-20-9-36-16-49-21-3-11-5-19-6-24s-5-7-10-7c-3 0-7 2-10 6s-6 11-11 20L0 261M179 58c38 20 79 45 123 74 44 30 86 62 125 96-7 19-17 42-31 69-31-21-62-42-95-61s-64-35-94-48l-9 16c27 15 55 33 86 56s62 48 92 73c-11 19-25 39-40 58l10 10c9-9 18-17 27-25s18-16 25-23c20 19 38 37 55 56s31 36 42 52c-5 7-9 13-14 18s-9 11-14 16c-30-22-62-43-96-63-33-20-68-38-105-53l-9 16c24 14 47 29 69 45s43 32 62 48c19 17 37 33 53 49s30 31 42 45H313l-6 27h424l40 49 72-54v-22H600c16-74 36-137 61-189 15 21 30 42 45 62 15 21 27 40 36 57l55-21c7-3 14-6 19-9 6-3 9-6 9-9 0-5-3-9-10-10-6-1-14-2-23-3-13-12-31-27-52-44s-44-32-69-45c25-52 55-97 88-134s72-71 116-101l-5-12c-13 0-25-2-35-6-9-4-18-12-26-23-30 25-57 52-81 82-23 30-44 64-63 103s-35 84-49 133-26 106-36 169h-12c-13-12-26-24-41-37-14-13-29-26-45-39 24-17 45-38 62-61s31-48 42-75 20-54 25-82 8-55 8-82c0-67-12-119-37-154-24-35-54-52-90-52-2 0-4 1-7 2-2 1-3 4-3 7 0 9-1 17-2 22s-4 10-9 13-12 5-23 7c-10 3-24 6-42 9v17h114c13 9 24 27 31 52 7 26 11 56 11 91 0 9 0 19-1 29-1 11-2 21-3 32-9-10-20-20-32-31s-25-21-38-32c1-3 1-7 1-10 1-3 1-6 1-9 0-11-3-20-8-27-5-6-11-9-19-9-6 0-11 1-14 4s-5 9-8 16c-39-27-81-54-126-80-45-25-87-46-127-61l-9 16m365 294-9 27c-3 9-7 19-10 28-11-13-25-26-42-41-16-15-34-30-55-45 17-19 30-38 40-55 15 15 29 29 42 44s25 29 34 42Z"/></symbol><symbol id="宅_K" viewBox="0 0 1000 1000" data-size="21"><path transform="matrix(1 0 0 -1 65 925)" d="m446 359 315 49 27 56 16 3 66-47-5-18-419-64V120c0-29 4-47 13-54s34-10 73-10h162c30 0 52 4 65 12 14 8 24 23 30 44l32 107 15-4-8-146 34-17V37C833 12 793 0 744 0H499c-45 0-76 6-92 18s-24 34-24 67l1 243L3 268l-3 22 384 59-1 176c-105-27-211-47-320-61l-5 18c233 53 421 121 565 205l75-64-10-14-47 7c-56-22-121-46-195-72V359m13 362h286l38 33h14l63-60-6-16-41-5-87-86-14 5 40 108H98c-1-21-3-38-5-51-1-13-4-28-8-46-3-17-9-31-16-40s-15-13-25-13c-8 0-16 6-24 17-7 12-11 22-11 31 0 10 9 25 26 44 14 15 24 30 29 46 5 17 9 43 12 79l15 1 6-47h299v128l96-18v-16l-33-20v-74Z"/></symbol><symbol id="度_K" viewBox="0 0 1000 1000" data-size="21"><path transform="matrix(1 0 0 -1 56 942)" d="M10 2 0 9c36 77 60 153 72 228 13 76 19 179 19 308 0 31-2 114-5 249l73-25h263v114l105-18v-15l-40-18-1-63h279l42 50h15l66-57v-15H154V598h173v114l96-14v-14l-32-18v-68h180v114l96-14v-14l-32-18v-68h115l41 46h14l59-52v-17H635l-1-147-6-13-47-14-10 7v26H391c0-13-2-23-6-30l-50-15-7 6-1 180H154c-5-159-16-276-33-349S67 79 10 2m381 455h180v118H391V457M80 0l-2 14c95 21 165 41 212 59 47 17 94 40 141 68-33 27-59 52-78 75s-42 58-71 104h-90v21h452l30 31h17l65-55-5-14-40-8c-51-59-112-112-183-159 56-23 107-40 152-49 46-9 109-15 190-19V55c-24-13-39-31-46-54-76 10-138 22-187 37s-102 37-160 67c-62-29-122-52-180-67C240 23 167 10 80 0m559 320H303c35-43 64-75 86-95 22-19 50-39 85-59 35 22 64 43 85 63 22 20 49 50 80 91Z"/></symbol><symbol id="廓_K" viewBox="0 0 1000 1000" data-size="21"><path transform="matrix(1 0 0 -1 53 948)" d="M504 819h265l44 52h16l64-58v-15H123V546c0-121-8-224-25-309C82 152 54 73 13 2L0 7c18 51 32 112 41 181 12 91 18 199 18 324v340l71-33h310v77l94-18v-12l-30-14v-33M127 171l188 27v63l50-9 55 73H166v22h254l31 29h18l62-51-6-11-32-3-108-68 20-5v-12l-25-11v-8l157 28 3-16-160-48V79c0-29-4-46-13-53-8-7-35-16-81-26l-9 5v29l-71 29 4 13 69-7 16-1c13 0 20 12 20 37v48l-133-35-5-27-15-3-35 83m18 469v22h170v103l90-18v-13l-25-11v-61h105l35 41h14l49-48v-15H145m285-81 28 28h16l51-43v-16l-21-13v-91l-7-9-47-13-10 7v19H263v-19l-7-7-49-12-9 4 1 193 70-28h161m10-21H263v-87h177v87m168 190 71-28h111l27 32h16l60-56-4-14-28-9c-45-72-89-136-130-191 109-98 163-187 163-268 0-40-10-70-31-91-21-20-52-35-94-46l-13 7v27l-73 36 3 11 77-7c19 0 35 6 46 19s17 31 17 52c0 43-10 84-30 125s-49 86-86 135c23 58 50 130 80 216H672V28l-10-14-43-12-11 5v721Z"/></symbol><symbol id="拓_K" viewBox="0 0 1000 1000" data-size="21"><path transform="matrix(1 0 0 -1 56 945)" d="M522 745H312v21h455l44 55h17l61-61v-15H593c-11-79-22-137-33-174-10-37-28-83-54-138l7-4h253l33 31h18l54-49v-14l-30-22V55l-5-12-47-17-12 5v39H510V23l-8-8-50-15-7 9 1 324c-33-45-62-79-86-104s-58-54-103-88l-8 11c82 84 144 171 185 260s71 200 88 333M777 92v316H510V92h267M8 87l93-8c5-1 12-1 20-1 13 0 21 4 25 11s6 20 6 38v250l-86-51-1-28-12-5-53 82 152 62v209H1v22h151v222l101-23v-13l-37-18V668h59l44 54h12l57-61v-15H216V458l151 57 6-13-157-92V120c0-33-1-54-3-62-1-8-7-16-16-23-15-11-46-23-93-35L94 7v27L5 76l3 11Z"/></symbol><symbol id="晴_U" viewBox="0 0 1000 1000" data-size="23"><path transform="matrix(1 0 0 -1 86 924)" d="M60 737h105l21 30 44-32c9-7 15-12 18-15s4-6 4-9-2-6-6-8c-3-2-10-4-20-7V164l-56-8v63H57V110l-57-7v659l60-25m-3-26V496h113v215H57m113-466v225H57V245h113m221 173h264l26 37 46-33c10-7 16-13 18-17 3-3 4-7 5-10 0-3-2-6-7-8-4-2-12-5-25-8V72c0-8-1-16-3-24-1-8-5-15-10-22s-13-12-24-17c-10-5-23-8-40-9-5 0-8 2-10 5s-4 7-5 12-3 9-4 13-2 7-4 9c-5 3-15 7-30 10-14 3-26 5-35 7v18h106v151H385V7l-57-7v449l63-31m103-167v140H385V251h109m165 140H546V251h113v140m168 120v-20H258l-6 26h238v83H307l-6 27h189v77H290l-6 27h206v116l60-8c10-1 18-3 24-5 7-1 10-5 10-10s-3-10-10-13-15-5-24-7v-73h140l41 47 69-53v-21H550v-77h105l38 44 65-50v-21H550v-83h160l41 50 76-56Z"/></symbol><symbol id="暴_K" viewBox="0 0 1000 1000" data-size="21"><path transform="matrix(1 0 0 -1 51 941)" d="M15 398v22h279v97H86v22h208v96l93-17v-14l-28-13v-52h176v99l93-17v-15l-28-11v-56h117l38 43h13l55-50v-15H600v-97h185l40 46h13l57-54v-14H591c45-51 90-89 135-114 45-24 102-42 172-53v-13c-17-5-29-10-36-16-7-5-15-17-25-34-63 24-115 53-156 87-40 35-78 82-115 143H368c-52-56-105-101-158-135S88 196 4 164l-4 14c69 36 122 69 161 100s79 71 119 120H15m520 22v97H359v-97h176M160 28l-48 83c104 25 201 49 291 73l5-13L179 64l-4-31-15-5m76 822h434l31 31h13l60-47v-14l-31-21V628l-5-10-51-10-9 9 1 27H231l-1-29-6-11-50-9-8 10v274l70-29m443-184v74H231v-74h448m0 96v66H231v-66h448M247 275l4 10c4 0 7 0 10 1 79 0 118-18 118-55 0-18-5-27-16-27-7 0-17 6-32 19-22 19-50 36-84 52M368 32l-79 35 2 14 77-7c11 0 18 0 22 1 5 0 10 1 15 3s9 5 10 10c2 5 3 12 3 21v274l95-18v-15l-30-17V102c0-35-5-57-15-66-10-10-40-22-89-36l-11 6v26m126 164-6 10c44 31 83 64 116 97l56-54-7-11-36 3c-41-19-82-34-123-45m-4-35 2 12c87-7 152-18 197-35s68-42 68-76c0-19-7-29-20-29-8 0-24 8-47 24-46 32-80 54-102 65s-55 24-98 39Z"/></symbol><symbol id="洞_K" viewBox="0 0 1000 1000" data-size="21"><path transform="matrix(1 0 0 -1 62 945)" d="m817 885 59-43v-14l-24-17V121c0-35-6-58-17-70s-38-26-81-43l-17 10v25L632 74v13l100-2c23-1 38 2 45 7s10 16 10 31v709H346V41l-13-10-43-11-7 6v861l71-32h420l29 30h14M399 692v23h242l33 39h14l49-48v-14H399m242-139 24 24h16l49-43v-12l-23-16-1-227-6-12-49-17-9 6v51H485v-33l-6-10-50-14-8 7v320l79-24h141m1-223v201H485V330h157m-530 22 126 373 14-6-109-460c-5-25-8-45-8-61 0-24 6-54 18-90 8-24 12-43 12-58 0-13-5-25-14-35S131 0 118 0c-10 0-19 6-27 18-7 11-11 25-11 40 0 5 1 16 3 33 3 21 4 40 4 59s-2 34-6 47-11 22-20 29-18 12-26 15c-7 3-19 7-35 11l3 17c12-1 22-2 31-2 19 0 34 6 45 17 11 12 22 35 33 68M5 626l6 13c9-3 27-9 56-18 61-19 92-48 92-85 0-9-3-18-8-26s-11-12-18-12c-2 0-12 10-31 29-18 19-37 40-58 61s-34 34-39 38m60 253 7 10c24-7 43-13 56-18 14-5 29-11 44-19s26-18 33-29 11-23 11-38c0-27-7-40-21-40-15 0-31 15-46 44-15 27-43 57-84 90Z"/></symbol><symbol id="炙_K" viewBox="0 0 1000 1000" data-size="21"><path transform="matrix(1 0 0 -1 57 944)" d="m3 405-3 13c154 43 282 94 384 154s192 135 270 226H396C283 717 157 657 16 619l-4 11c87 34 158 70 213 108s110 88 164 150l78-34-5-14-26-5-20-15h244l35 25h14l54-63-6-12-33-1c-52-52-98-93-137-122C433 533 238 452 3 405M23 0l-4 13c67 21 123 43 168 66s85 52 120 87c36 35 62 79 79 130s25 112 25 183v42l98-19v-12l-25-12-5-47c13-73 40-136 79-187 63 76 120 156 171 240l87-54-5-12-32-2c-63-63-132-126-207-189 37-43 80-77 127-102 48-25 110-45 187-60l-1-11c-23-9-42-25-55-49-104 35-184 81-241 140s-96 134-119 223c-9-39-18-71-27-97-9-25-24-53-45-84-21-30-46-55-76-76s-70-41-121-60C151 31 92 14 23 0m217 450 16 1c3-35 5-59 5-74 0-39-7-75-20-109-13-33-26-50-41-49-8 1-15 6-22 17-6 11-9 24-9 38 0 11 1 19 4 24s11 15 24 29c23 25 38 66 43 123m-26 217 8 9c18-8 31-14 40-19 9-4 20-10 33-19 13-8 22-17 27-26 6-9 9-20 9-31 0-13-3-24-9-33s-13-13-21-13c-12 0-24 17-35 50-9 27-27 54-52 82m135 77 7 9c48-17 80-31 96-44s24-29 24-50c0-11-3-20-9-28-5-8-12-12-19-12-9 1-19 13-30 34-15 29-38 60-69 91Z"/></symbol><symbol id="狀_K" viewBox="0 0 1000 1000" data-size="21"><path transform="matrix(1 0 0 -1 43 961)" d="m656 834 8 13c23-9 40-17 51-22 12-5 25-12 39-20 15-8 25-15 32-22s12-15 17-24 7-18 7-29c0-13-3-24-8-34s-11-15-18-15c-11 0-26 20-46 59-16 33-43 64-82 94m-40-238-2-49 21-89c45-172 134-306 268-401l-5-13c-2 1-6 1-11 1-13 0-32-10-58-30-67 65-117 133-151 203-33 70-58 158-73 264-6-32-11-57-15-74-3-17-9-42-18-75s-19-61-30-85c-11-23-24-50-41-79-16-29-36-56-60-81-23-25-50-49-79-71l-11 14c117 113 185 302 202 565H326v27h229v298l94-17v-17l-28-14v-83c0-48-1-104-4-167l188 1 39 48h16l53-57v-19H616M251 922l99-22v-15l-34-21-9-846-48-18-8 7v389h-90c-7-81-20-150-37-207-17-56-44-115-81-178l-17 7c24 63 41 120 50 172 10 52 17 121 20 206H0v22h251v205l-117 1-17-26-63 20 8 24v231l92-23v-18l-28-10V646h125v276Z"/></symbol><symbol id="猪_J" viewBox="0 0 1000 1000" data-size="21"><path transform="matrix(1 0 0 -1 46 951)" d="M323 816c-37-47-74-89-109-126 33-61 57-120 71-177 15-66 23-130 23-192 0-117-17-203-50-258-25-42-57-63-96-63-8 0-12 1-13 3-2 3-3 11-3 24 0 10-3 17-9 20-5 5-33 13-83 23v21h141c19 36 31 69 36 99 6 39 9 85 9 137 0 43-3 90-10 139-27-42-60-84-101-126-40-41-80-74-119-99L0 257c82 79 152 177 211 296-10 29-23 62-38 98-49-43-98-80-149-109L8 561c54 41 102 86 143 135-29 51-68 101-117 149l12 15c52-37 98-79 137-125 40 54 73 106 100 155l67-46c8-6 12-11 12-16 0-6-8-10-23-11l-16-1m16-59h171v144l83-9c13-1 20-6 20-13s-7-14-21-21l-19-8v-93h66l39 50 73-57c21 33 43 69 64 110l67-44c8-5 12-10 12-15 0-6-7-10-22-13l-16-2c-51-81-103-152-156-213h86l38 45 83-60v-13H676l-14-15c26-6 45-14 58-25 15-13 23-28 23-45 0-8-3-16-9-23s-13-10-20-10c-9 0-16 5-22 15-3 5-8 16-14 34-5 13-16 26-31 38-39-41-75-76-108-104h200l22 37 55-34c13-9 19-17 19-24 0-6-4-11-13-15l-11-5V25l-66-10v45H516V10L453 0v347c-41-25-80-47-116-65l-14 19c46 29 89 60 130 93v59l40-23c37 33 74 71 112 115H309l-11 28h212v157H347l-8 27m400-27H573V573h54c29 35 66 88 112 157m6-347H516V257h229v126m0-153H516V87h229v143Z"/></symbol><symbol id="猪_U" viewBox="0 0 1000 1000" data-size="23"><path transform="matrix(1 0 0 -1 73 923)" d="M633 511c-21-23-44-46-68-69-23-22-49-44-77-66h215l24 30 41-32c9-7 15-13 18-17 3-3 4-7 4-10s-2-5-6-8c-3-2-11-4-22-7V20l-59-8v40H487V7l-58-7v333c-35-24-72-46-110-67l-10 14c42 28 82 58 120 90v31l24-10c43 38 83 78 120 120H286l-5 26h197v145H326l-5 26h157v137l57-7c11-1 19-3 24-5 6-2 9-5 9-9 0-5-3-10-9-13s-14-5-23-7v-96h66l40 48 72-53c9 17 18 34 26 50 9 17 16 33 23 48l51-28c19-11 28-19 28-24 0-3-2-6-5-9-3-2-8-3-17-3h-9c-3 0-7 0-11 1-18-32-39-65-63-99-24-33-51-67-81-102h84l41 49 73-55v-20H633M487 350V233h216v117H487M703 78v129H487V78h216M536 682V537h59c43 51 78 99 105 145H536M0 239c18 15 36 34 55 55 19 22 38 45 56 70s34 51 49 77c15 27 28 52 38 76-8 31-19 62-32 95-21-19-44-38-69-56s-51-34-79-49L8 519c25 19 49 40 72 63s46 48 67 73c-14 25-30 49-47 72s-37 45-58 64l11 10c23-17 44-35 63-55 19-19 37-40 52-63 21 26 39 52 56 77 17 26 31 50 42 72l50-32c16-9 24-16 24-21 0-7-7-10-20-10h-8c-3 1-6 1-9 1-13-19-28-40-46-63-18-22-39-44-62-67 34-58 58-119 73-182s22-123 22-182c0-43-4-82-11-116s-18-63-31-87c-13-23-28-41-46-54-17-13-36-19-56-19-2 0-5 1-8 2s-4 3-4 6c0 9-1 17-2 22s-4 10-9 14c-5 3-12 6-21 9s-22 6-37 10v17h108c16 16 29 44 38 83 9 40 14 87 14 141 0 41-3 84-9 127-12-17-26-36-42-56-16-19-33-38-51-57-18-18-37-35-56-52s-37-31-55-42L0 239m637 258c28-5 48-15 60-29 13-13 19-26 19-38 0-8-2-15-7-20-4-5-11-8-20-8-8 0-13 3-16 8s-5 12-7 20-5 17-10 27c-4 11-12 21-24 31l5 9Z"/></symbol><symbol id="益_U" viewBox="0 0 1000 1000" data-size="23"><path transform="matrix(1 0 0 -1 81 894)" d="M283 402c15-10 23-18 23-23 0-6-6-9-17-9h-9c-3 1-7 1-11 1-11-12-24-25-39-40-15-14-31-28-49-43l61-27h351l23 29 40-30c9-7 15-12 17-15 3-2 4-5 4-9 0-3-1-5-3-7-2-1-6-3-13-4V26h44l43 52 72-57V0H27l-6 26h146v250c-23-17-47-34-73-51-25-16-53-30-83-43L0 195c23 17 45 35 67 55 23 21 44 42 64 63s38 42 55 63 31 41 43 59l54-33m84-376h89v209h-89V26m-54 0v209h-87V26h87m288 209h-91V26h91v209m-82 522 24 31 49-35c7-5 11-10 11-13s-2-5-5-7c-3-1-15-4-34-7 34-36 73-67 117-93s87-45 130-57l-3-14c-12-3-23-8-32-16s-14-18-17-29c-21 11-42 23-63 36s-41 29-61 46-39 37-57 58c-17 22-33 47-47 74H288l-7 26h238m-231-70c7-5 13-9 18-12s7-7 7-10c0-6-6-9-17-9h-10c-3 1-7 1-10 1-11-13-25-28-42-43-16-15-34-31-55-47-20-15-42-30-66-45-23-14-48-27-74-38l-11 13c21 15 41 32 61 51 21 19 40 39 58 58 19 20 36 40 51 59s28 37 39 53l51-31m311-96v-20H263l-6 26h250l31 39 61-45m-72-134 27 34 48-35c8-5 12-10 12-13s-2-6-5-7-13-3-30-6c18-19 37-37 58-54 21-16 43-31 66-45 23-13 45-25 68-36 23-10 45-18 67-25l-2-14c-26-4-43-18-50-43-21 11-42 24-64 38s-44 30-65 48-40 38-59 59c-19 22-35 46-50 73H300l-7 26h234Z"/></symbol><symbol id="礼_G" viewBox="0 0 1000 1000" data-size="21"><path transform="matrix(1 0 0 -1 33 958)" d="M86 827h291l29 33 59-41c2-4 3-6 4-7 0-8-4-12-12-12H174c-14 0-37-3-69-8l-19 35M18 589h425l34 41 60-49c2-3 3-5 4-8 1-8-3-11-10-11H305V100c0-28-6-49-18-65-12-14-33-25-62-35-4 21-14 38-30 49-16 10-47 23-91 39l5 17c67-19 108-28 123-27 16 2 23 16 22 42v442H78c-14-1-26-4-37-10l-23 37m322-145 12 12c57-53 99-98 125-133 25-36 39-64 41-86 2-20-1-34-8-43s-16-13-28-11c-11 2-20 13-27 35-6 22-16 52-31 90-16 37-44 83-84 136m-141-11c5-3 7-6 8-8 3-3-1-7-10-10-11-2-20-8-25-18-6-8-24-41-53-97-29-57-64-112-105-164l-14 8c31 54 59 109 82 166 21 54 39 105 55 154l62-31m389 482 86-29c2-4 3-7 4-8-1-2-2-4-4-6l-35-18V105c0-21 3-33 9-35 8-2 17-3 28-4h142c24 4 37 15 41 32 4 15 6 31 8 48v125h22c3-67 7-112 13-135 6-22 16-38 32-46-9-21-20-37-34-49-13-11-37-18-70-21H670c-18 0-33 1-47 3-12 4-21 13-27 26-6 12-9 33-8 64v802Z"/></symbol><symbol id="礼_U" viewBox="0 0 1000 1000" data-size="23"><path transform="matrix(1 0 0 -1 93 912)" d="M384 770v-22H36l-6 27h239l41 49 74-54m140 45c11-1 18-3 23-4s8-4 8-9c0-8-11-17-33-28V96c0-3 1-6 3-8 3-1 9-2 20-2h148c9 0 16 1 21 2 6 2 11 7 16 14s9 18 14 33 10 36 17 63l8 33 18-2-6-90c0-2 0-4-1-6v-4c0-13 3-22 8-27 6-4 14-8 25-12-3-12-6-22-10-30-4-7-10-13-17-18s-17-8-30-9c-13-2-29-3-49-3H538c-19 0-34 1-45 3s-19 6-24 11-9 11-10 20-2 21-2 35v723l67-7M405 581v-22H228V8l-60-8v559H6l-6 26h284l43 53 78-57m-302-92c9-1 16-3 20-4 5-1 7-4 7-8 0-6-11-13-32-20V329c0-57-5-107-14-150-9-42-29-79-60-110L10 80c13 30 22 67 25 111s5 90 5 137v170l63-9m256 0c16-2 24-5 24-10 0-9-7-14-22-16V156l-58-6v345l56-6Z"/></symbol><symbol id="神_J" viewBox="0 0 1000 1000" data-size="21"><path transform="matrix(1 0 0 -1 40 953)" d="M894 697V263l-65-13v54H682V8l-64-8v304H477v-62l-63-15v542l73-40h131v176l82-9c14-1 21-6 21-14 0-7-7-14-20-19l-19-8V729h135l25 39 62-35c10-6 15-12 15-18 0-5-5-9-14-13l-11-5m-65-365v170H682V332h147m0 197v173H682V529h147M618 702H477V529h141v173M477 502V332h141v170H477M280 634l41 49 69-56v-20H226V12L162 2v605H12L0 634h280m-10 200 37 48 70-58v-17H56l-12 27h226m66-334V165l-59-16v393l64-7c13-1 19-6 19-15 0-7-4-11-11-14l-13-6m-238 2V349C97 234 70 145 15 84L0 94c28 56 42 144 41 265v185l67-9c11-1 16-5 16-12 0-6-4-11-13-15l-13-6Z"/></symbol><symbol id="神_U" viewBox="0 0 1000 1000" data-size="23"><path transform="matrix(1 0 0 -1 73 924)" d="M442 682h124v166l58-6c11-1 18-3 23-6 5-2 8-4 8-6 0-5-3-10-9-13-5-3-12-5-21-8V682h131l26 37 46-33c10-7 17-13 20-17 3-3 5-7 5-10s-2-6-7-9c-5-2-13-5-25-8V241l-60-7v48H625V8l-59-8v282H437v-64l-59-8v502l64-30m-5-27V502h129v153H437m188 0V502h136v153H625m-59-346v166H437V309h129m195 0v166H625V309h136M325 775v-20H39l-6 26h189l38 46 65-52m29-186v-21H199V23l-57-8v553H5l-5 26h247l40 50 67-55m-46-85c9-1 16-2 19-3s5-4 5-7c0-7-8-13-23-17V150l-53-6v367l52-7m-216-2c16-2 24-6 24-12 0-5-10-11-29-18V369c0-52-5-102-14-149S46 130 18 91L3 101c7 18 12 38 16 60 4 23 7 46 9 69 3 23 4 47 5 71s1 47 1 68v140l58-7Z"/></symbol><symbol id="祥_J" viewBox="0 0 1000 1000" data-size="21"><path transform="matrix(1 0 0 -1 43 954)" d="m761 703 51 56 79-62v-21H651V507h87l49 54 74-60v-21H651V304h130l50 60 83-66v-21H651V10L584 0v277H380l-19 27h223v176H415l-19 27h188v169H388l-19 27h268c33 53 65 121 94 204l69-35c11-6 16-12 16-18 0-9-7-14-20-16l-19-2c-49-63-86-107-109-133h93M266 830l49 52 73-58v-22H50l-15 28h231m150 50 12 14c39-19 70-41 94-66 20-22 30-44 30-66 0-13-4-24-12-32-7-8-14-12-23-12-7 0-12 3-17 8s-12 25-21 59c-14 37-35 68-63 95M287 634l39 45 73-56v-16H228V22L163 4v603H14L2 634h285m50-140V166l-58-15v387l68-12c10-1 15-6 15-13s-5-12-15-15l-10-4m-236-1V362c0-71-6-126-19-165S47 120 16 83L0 93c18 35 30 71 37 107 5 32 8 81 8 148v193l69-10c10-1 15-6 15-13 0-6-5-12-14-17l-14-8Z"/></symbol><symbol id="祥_U" viewBox="0 0 1000 1000" data-size="23"><path transform="matrix(1 0 0 -1 76 922)" d="M847 275v-20H615V7l-65-7v255H362l-5 26h193v166H409l-5 26h146v156H379l-5 26h229c6 13 13 27 21 43s16 32 24 49 15 34 22 50c7 17 13 32 18 46l52-24c11-5 19-10 24-13 6-3 9-7 9-11 0-6-3-10-10-11-6-1-15-1-26-1-13-20-30-42-50-65s-38-44-54-63h79l51 52 72-57v-21H615V473h83l41 51 66-55v-22H615V281h112l45 58 75-64M400 837c44-15 76-34 95-59 19-24 29-46 29-67 0-13-3-22-10-29-6-6-14-9-23-9-10 0-17 4-20 13l-12 36c-4 15-11 31-20 49s-24 36-46 54l7 12m-67-66v-20H39l-6 26h193l41 48 66-54m31-185v-21H205V21l-63-9v553H11l-6 26h251l42 52 66-57M94 499c9-1 15-3 19-5 5-1 7-4 7-7 0-4-2-7-7-10s-13-6-24-9v-87c0-51-5-102-16-153-10-51-30-97-59-138L0 100c7 20 12 42 16 65 4 24 7 48 9 73 3 25 4 49 5 74s2 48 2 69v127l62-9m220-1c17-2 26-6 26-12 0-9-8-14-25-17V156l-57-7v355l56-6Z"/></symbol><symbol id="福_J" viewBox="0 0 1000 1000" data-size="21"><path transform="matrix(1 0 0 -1 53 940)" d="M434 54V19L374 0v437l69-43h355l20 36 58-41c9-7 14-13 14-18 0-6-5-11-15-16l-14-7V20L798 3v51H434m0 313V247h142v120H434m0-148V81h142v138H434M798 81v138H640V81h158m0 166v120H640V247h158M521 684h206l19 37 66-41c8-5 12-10 12-17 0-6-5-11-16-15l-14-5V483l-57-13v36H502v-34l-59-12v261l78-37m216-27H502V533h235v124m37 166 41 56 79-60v-23H385l-12 27h401M265 627l40 54 78-62v-20H213V15L149 3v596H13L2 627h263m-28 201 37 49 73-56v-20H41l-11 27h207m85-340V156l-58-13v394l72-9c11-1 17-6 17-13s-5-13-15-18l-16-9m-227-6V342c0-59-8-113-25-160-11-31-28-65-51-100L0 90c12 37 21 72 26 104 7 42 10 96 10 162v178l69-8c13-1 20-7 20-16 0-8-4-14-12-18l-18-10Z"/></symbol><symbol id="福_U" viewBox="0 0 1000 1000" data-size="23"><path transform="matrix(1 0 0 -1 79 910)" d="M417 369h329l25 36 45-32c10-7 17-13 20-16s5-7 5-10-2-6-7-9c-5-2-13-5-25-8V15l-58-8v36H412V8l-56-8v399l61-30m-5-143h140v116H412V226m191 116V226h148v116H603M552 69v131H412V69h140m199 131H603V69h148v131M480 642h204l26 38 46-33c10-7 17-13 20-17 3-3 5-6 5-9s-3-6-8-9c-5-2-13-5-25-8V435l-60-7v35H476v-31l-58-8v250l62-32m208-152v126H476V490h212M332 762v-20H33l-6 26h197l40 51 68-57m502-2v-21H376l-6 26h348l41 51 75-56M364 579v-21H197V12l-60-9v555H5l-5 26h256l38 55 70-60m-64-83c17-2 25-6 25-11 0-7-8-13-24-18V144l-57-9v368l56-7m-205-3c8-1 14-3 18-4s6-4 6-7-2-6-7-9-12-6-22-10v-89c0-51-5-102-15-153-9-51-28-97-56-139L5 92c6 20 11 42 15 66s7 48 9 73 3 50 4 74c1 25 2 48 2 69v128l60-9Z"/></symbol><symbol id="笠_K" viewBox="0 0 1000 1000" data-size="21"><path transform="matrix(1 0 0 -1 53 922)" d="M0 0v22h317c-9 13-17 40-23 80-6 39-24 90-53 154-10 21-25 49-45 82l12 7c51-53 91-104 121-154s45-90 45-121c0-19-9-35-28-48h201c42 119 79 230 110 335l97-53-5-14-36-3L569 22h196l49 56h14l64-62V0H0m61 370v21h361v139l102-20v-14l-38-16v-89h259l43 53h18l58-60v-14H61m332 156-10 9c43 51 75 97 98 138s48 98 74 171l93-35-4-13-30-8c-17-28-32-53-43-76h216l40 47h14l52-54v-15H637c37-33 64-60 81-81s26-41 26-60c0-10-4-19-11-27-7-7-15-11-24-11-15 0-26 14-35 43-19 63-41 108-64 136l-50 1c-22-37-44-66-66-87-21-21-55-47-101-78m-379 0-10 9c41 46 74 90 97 132s48 101 75 177l93-35-4-13-30-8c-1-1-15-27-43-76h160l40 47h14l52-54v-15l-219 1c15-16 25-27 30-32 25-25 41-45 49-58s12-27 12-42c0-13-3-24-10-34s-15-15-26-15c-20 0-33 23-40 70-3 26-16 63-39 110h-36c-22-36-44-65-66-87-21-21-54-47-99-77Z"/></symbol><symbol id="粒_K" viewBox="0 0 1000 1000" data-size="21"><path transform="matrix(1 0 0 -1 56 948)" d="m169 896 90-18v-15l-26-16V569h66l33 43h14l50-50v-14H233v-94c51-28 88-53 111-75s35-49 35-80c0-9-3-18-8-27-5-8-11-12-17-12-9 0-16 7-23 22-24 51-40 82-48 94s-25 30-50 53l1-404-9-11-45-14-10 5-1 354C122 281 68 220 9 177l-9 10c43 55 76 107 97 156 22 49 44 118 66 205H5v21h164v327M18 811l9 8c75-71 113-128 113-171 0-14-3-27-10-38s-14-16-23-16c-12 0-20 9-24 28-10 48-18 81-25 100s-20 49-40 89m234-211-8 6 82 220 80-46-5-11-31-5c-25-39-64-93-118-164m63-536h299c47 184 86 367 115 548l101-43-3-15-38-9L642 64h141l35 46h15l54-50V44H315v20m319 602h139l35 49h14l59-55v-16H368v22h202v229l95-21v-14l-31-14V666M418 548l11 8c90-147 135-262 135-343 0-19-4-37-12-52s-17-22-27-22c-20 0-30 26-30 77v12c0 86-26 193-77 320Z"/></symbol><symbol id="糖_K" viewBox="0 0 1000 1000" data-size="21"><path transform="matrix(1 0 0 -1 53 947)" d="m15 173-10 9c33 58 58 114 76 167s35 122 50 205H0v20h134v316l100-14v-14l-36-19V574h50l33 39h14l43-46v-13H198v-88c43-21 74-40 91-58 18-17 27-38 27-61 0-9-3-18-9-26-5-7-11-11-18-11-12 0-22 9-29 27-12 29-20 48-25 55-4 7-16 23-37 48V25l-7-9-45-15-11 6-1 337C95 275 56 218 15 173M1 794l10 7c61-59 91-111 91-157 0-15-3-26-8-34-5-7-12-11-19-11-14 0-23 9-26 26-7 44-13 73-17 87-4 15-14 42-31 82m340 28 72-34h153v105l98-16v-15l-33-17v-57h156l39 41h12l54-49v-14H407c1-26 1-70 1-132 0-49 0-83-1-104h157v99H423v22h141v102l99-14v-12l-34-17v-59h101l31 30 14-1 47-42v-16l-23-12v-79h13l28 39h12l42-48v-14h-95V369l-8-9-47-14-10 7v22H629v-73l-7-10-51-11-7 5v89H409v22h155v111H407c0-32 0-59-1-80s-4-54-11-97c-6-43-15-81-27-114s-30-69-55-109c-24-40-53-75-88-106l-12 8c53 80 88 157 105 230 17 74 26 179 26 316 0 66-1 155-3 266m393-425v111H629V397h105m0 133v99H629v-99h105M402 282l67-29h285l27 31h13l55-42v-14l-24-16V38l-5-6-50-14-9 7v38H468V19l-7-8-47-11-10 5-2 277m66-197h293v146H468V85M265 825l71-43-4-13-26-4c-22-45-51-98-87-157l-13 7c16 64 36 134 59 210Z"/></symbol><symbol id="茶_K" viewBox="0 0 1000 1000" data-size="21"><path transform="matrix(1 0 0 -1 55 944)" d="m6 311-6 10c95 58 171 116 227 173 57 57 111 132 163 225l101-48-4-11-21-5c61-71 123-127 186-167s142-74 237-101v-13c-16-3-28-7-36-13s-17-17-26-34c-82 38-151 80-207 127S505 566 443 649c-73-91-141-161-204-209S99 349 6 311m262-21 78-55-6-13-34-2c-43-48-85-87-127-118-41-30-93-59-156-88l-7 10c56 40 102 79 139 118s74 88 113 148m-117 82h257v153l93-23v-15l-29-14V372h131l39 45h11l56-51v-15H472l1-322-6-13-48-16-11 8v343H151v21m393-118 7 13c96-41 163-75 200-100 38-25 57-54 57-87 0-29-7-44-22-44-14 0-32 14-53 41-53 66-116 125-189 177M355 787l36 43h15l48-46v-19H292v-69l-5-12-48-14-8 6v89H14v22h217v101l97-18v-15l-36-16v-52h63m409 0 39 43h12l52-48v-17H635v-72l-5-11-48-11-8 7v87H465v22h109v101l97-18v-15l-36-16v-52h129Z"/></symbol><symbol id="行_K" viewBox="0 0 1000 1000" data-size="21"><path transform="matrix(1 0 0 -1 51 946)" d="m228 446-4-428-54-18-8 10 1 407c-49-39-100-74-153-103l-8 10c64 51 116 101 156 151s82 117 127 202l83-48-7-13-32-2c-2-3-4-6-7-9-39-55-71-97-98-128l22-9v-10l-18-12M7 600l-7 10c59 48 106 92 141 132s70 90 105 149l78-50-6-12-31-1c-47-57-89-101-128-133-39-31-89-63-152-95m314-66v22h462l42 52h13l59-60v-14H714V135c0-49-7-80-21-94-13-14-50-27-110-40l-11 7v29l-93 39 1 13 103-7c7-1 15-1 24-1 17 0 29 5 34 14 6 9 9 26 9 49v390H321m51 267v22h345l40 48h14l52-56v-14H372Z"/></symbol><symbol id="見_K" viewBox="0 0 1000 1000" data-size="21"><path transform="matrix(1 0 0 -1 61 933)" d="m368 327 49-16-2-16-25-7c-13-43-28-78-44-107-15-29-37-56-66-83-29-26-66-47-111-63S68 7 2 0L0 15c52 11 97 26 135 45 39 19 68 36 89 53s38 39 53 64c15 26 24 46 28 61 5 15 10 36 16 62l6 27h-68v-26l-7-11-49-16-9 9v583l73-34h379l28 25h16l55-47v-15l-31-18 1-459-5-13-49-15-10 6v31h-95V134c0-27 16-41 49-41h114c30 0 51 4 63 11 13 7 23 22 30 45l29 92 13-4-9-137 32-19V68c-17-13-32-22-47-26-14-4-35-6-62-6H575c-55 0-83 28-83 85v206H368m-109 24h392v142H259V351m0 163h392v145H259V514m0 166h392v131H259V680Z"/></symbol><symbol id="識_K" viewBox="0 0 1000 1000" data-size="21"><path transform="matrix(1 0 0 -1 52 943)" d="M0 696v21h213l38 38h13l11-10h137v141l92-19v-12l-32-18v-92h58l33 39h14l52-47v-13H291l17-16v-12H0M21 7v333l67-31h93l31 31h17l46-48v-17l-21-13V40l-10-14-42-12-13 7v49H86V31l-7-17L32 0 21 7m65 84h103v197H86V91M28 461h151l29 36h16l43-41v-16H28v21m0 127h148l32 36h12l47-42v-15H28v21m5 236v21h143l29 35h14l45-43v-13H33m201-315v22h132c-13 10-19 28-20 55-1 29-11 61-29 94l9 9c55-39 82-80 82-124 0-11-5-23-14-34h87l37 169 82-35-3-12-28-8-61-114h138l-2 158 2 195 91-15v-16l-32-12c0-20 0-47-1-82l-1-118 1-110h80l39 49h13l58-59v-12H705c5-99 15-178 28-237 23 40 43 85 61 135l14 39 80-41-6-15-32-5c-28-69-58-130-89-182 9-19 19-37 30-53 11-15 19-26 26-33s11-10 14-10c6 0 13 10 22 30l25 54 12-6-15-123 21-30-9-13c-65 5-123 52-172 140-49-44-92-76-127-96-35-21-79-38-130-52l-6 12c51 25 93 51 126 77 33 27 69 64 110 113-23 82-36 181-41 296H234m366-123v-18l-28-12V118l-7-12-45-15-12 9v25H381V94l-8-15-45-12-11 7v366l62-33h127l28 26h16l50-47M381 146h127v116H381V146m0 137h127v103H381V283m361 468 7 10c73-32 109-65 109-100 0-22-8-33-25-33-11 0-19 5-24 16-17 38-27 61-32 68-5 8-16 21-35 39Z"/></symbol><symbol id="輻_K" viewBox="0 0 1000 1000" data-size="21"><path transform="matrix(1 0 0 -1 52 946)" d="M0 783h161v109l91-18v-12l-25-17v-62h72l37 42h13l47-48v-15H227V640h62l25 27h16l47-37v-12l-20-17 1-292-7-13-49-14-10 10v35h-65V206h62l39 46h14l48-51v-16H227l-1-162-8-10-48-13-8 7-1 178H0v21h161v121H94v-35l-5-10-53-13-6 7-1 388 65-24h67v122H0v21m227-165V493h65v125h-65m0-147V349h65v122h-65m-133 0V349h67v122H94m0 147V493h67v125H94m649 80 28 26h15l52-44v-12l-25-17 1-152-5-13-48-14-11 3v34H553v-29l-6-8-48-14-9 6-1 262 66-28h188m7-21H553V530h197v147M488 413h316l25 26h16l49-47v-13l-20-19-1-317-5-8-49-15-10 6v53H487V37l-5-11-51-14-9 8 1 417 65-24m321-21H680V263h129v129m-322 0V263h129v129H487m322-150H680V99h129v143m-322 0V99h129v143H487m-80 574h387l37 46h12l52-53v-15H407v22Z"/></symbol><symbol id="降_K" viewBox="0 0 1000 1000" data-size="21"><path transform="matrix(1 0 0 -1 70 951)" d="M63 847h157l34 26h13l50-61-7-15-24-8-129-220c1-2 5-6 11-13 7-7 12-13 17-18 39-42 64-76 77-101s19-54 19-89c0-89-48-145-145-170l-12 9-6 30-54 27V31l-8-18L8 0 0 6v863l63-22m1-23V265l65-5c27-2 49 7 65 28 17 21 25 49 25 86 0 33-6 63-19 90-12 27-34 61-66 100 33 86 62 173 87 260H64m253-420h258v118l96-17v-14l-31-16v-71h76l35 43h16l56-48v-17H640V222h110l43 50h15l52-55v-17H640V26l-8-13-50-13-8 8 1 192H238v22h132v160h-53v22m258-182v160H435V222h140m-92 600h193l30 35h15l60-51-8-14-29-5c-36-67-78-126-125-177 34-25 67-43 99-54s79-20 140-29v-12c-22-9-37-26-46-52-59 17-105 32-137 46-31 15-65 36-101 63-86-59-186-109-300-152l-7 14c111 55 200 115 265 178-47 57-77 100-92 127-49-68-107-127-173-178l-11 10c47 49 83 96 110 143s54 110 79 187l89-41-5-13-29-3-17-22m-10-22-25-47c33-41 72-78 119-110 39 39 73 92 103 157H473Z"/></symbol><symbol id="﨎_G" viewBox="0 0 1000 1000" data-size="21"><path transform="matrix(1 0 0 -1 21 970)" d="M8 794h346l27 35 49-43c2-2 3-4 4-6 0-6-4-9-12-9h-94c-15-75-36-134-60-178 37-33 62-59 76-78 13-20 21-36 23-49 2-12 0-22-6-31-4-8-11-12-21-12-10-1-18 8-26 25-7 16-16 33-25 51-10 16-25 35-45 57-31-43-62-79-94-108-31-28-67-52-107-74l-8 12c35 26 67 54 94 84 27 29 56 68 86 117-40 35-86 70-139 105l8 12c59-29 107-58 146-88 20 37 37 88 51 155H64c-20-3-32-6-37-8L8 794m133 135 7 11c38-16 63-31 77-44 14-12 22-25 25-38 3-11 1-22-4-31-6-8-14-12-25-10s-19 10-22 26c-4 13-8 25-13 37-7 11-22 27-45 49m461-33c1-2 2-5 2-8s-3-6-10-8c-14-4-24-8-30-12-3-4-17-26-41-66h329l31 39 62-49c2-2 2-5 2-8 0-6-2-8-8-8H723v-88h90l31 36 56-45c2-2 4-5 4-8 0-5-2-7-8-8H723v-86h91l34 37 58-49c2 0 2-2 2-5 0-5-2-8-8-8H723v-90h140l32 39 60-47c2-3 3-6 4-10 0-4-3-7-8-7H516v-12c0-10-6-18-18-24-12-4-23-7-35-7l4 105v221c-37-49-71-87-100-114l-10 8c27 39 57 86 90 143 32 56 60 114 86 174l69-35m-86-434h156v90H516v-90m0 115h156v86H516v-86m156 111v88H516v-88h156m-49 252c37-17 63-33 78-46 16-12 25-24 28-36 2-11 1-21-4-29-7-9-16-13-28-12-11 2-18 9-21 22-4 12-10 25-18 39s-22 31-43 53l8 9m61-580 33 34 60-57c5-8 4-12-4-14-6 0-13-2-21-6-9-4-19-11-31-23s-33-31-65-59c-31-27-75-59-131-95 56-22 108-39 157-50 47-9 88-16 123-20 34-4 85-6 154-6V47c-27-5-47-9-59-14-11-3-22-13-31-31-37 3-72 8-105 16-32 6-71 17-116 31-44 14-98 37-160 69-56-32-131-59-222-83C174 15 85 3 0 0v18c87 7 173 24 256 48 83 26 146 51 189 76-29 18-60 42-93 72-32 29-66 70-102 121h-51c-24 0-42-4-54-12l-28 37h567m-405-25c28-35 57-66 88-94 31-25 70-51 115-78 33 19 67 43 102 72 35 30 68 63 100 100H279Z"/></symbol><symbol id="﨎_U" viewBox="0 0 1000 1000" data-size="23"><path transform="matrix(1 0 0 -1 110 890)" d="M476 765c12-3 24-8 35-13 12-5 21-11 26-17l-24-16c-3-12-7-24-12-35-4-11-9-21-14-32h201l28 38c15-7 28-15 38-26 10-10 17-18 21-24H637v-91h28l28 37c15-7 28-15 38-25s17-18 21-24H637v-86h28l28 37c15-7 28-15 38-25s17-18 21-24H637V335h57l28 38c15-7 28-15 38-26 10-10 17-18 21-23H487v-29c-14-14-28-21-43-21v310c-27-32-55-56-84-72l-3 3c25 21 49 54 70 97 22 43 38 94 49 153M160 249l-17-5-12 16h430l29 38c10-7 20-16 29-29 10-13 17-26 21-40l-26-16c-20-19-45-38-75-55-29-17-62-33-99-48 50-16 103-30 158-41s113-18 174-21v-5c-13-3-24-8-33-14s-18-14-27-23c-58 10-113 22-166 37-52 15-101 32-147 51-58-21-121-40-188-56C144 23 75 10 3 0L0 2c66 11 130 26 191 44 61 19 118 40 171 63-42 19-79 40-111 63-31 23-58 47-79 74l5 3h-17M91 618c9-27 19-53 31-78 13-24 27-47 42-70 14 27 27 55 38 85 12 31 22 63 29 97H39l-17-4-12 16h252l28 37c15-7 28-15 38-25s17-18 21-24h-68c-23-81-56-150-98-209 25-31 52-57 81-78 30-21 61-34 93-40v-6c-13-3-24-8-33-14-9-5-18-13-27-22-25 15-48 34-70 56-22 23-43 49-62 79-24-32-50-60-78-83-27-23-55-43-84-59l-3 3c27 17 53 40 78 68 26 28 50 60 71 97-27 49-48 106-63 171l5 3m86-369c24-23 54-46 91-67s80-40 128-57c36 18 68 37 97 58s54 43 73 66H177m310 86h106v104H487V335m0 214h106v91H487v-91m0-98h106v86H487v-86m77 329c35-19 58-35 70-48 13-13 19-24 19-33 0-5-1-10-4-15s-6-9-10-13c-4-3-8-6-12-8-3-2-6-3-8-3-7 0-10 5-10 15v9c0 11-5 24-15 41s-22 35-35 52l5 3m-425 1c29-17 48-32 58-43 11-11 16-21 16-28 0-5-1-9-4-14-3-4-6-8-10-12-4-3-8-6-13-8-4-2-7-3-10-3-7 0-11 3-11 10 0 3 0 5 1 8s2 6 2 9c0 10-3 22-10 35-6 14-14 29-23 44l4 2Z"/></symbol><symbol id="﨏_G" viewBox="0 0 1000 1000" data-size="21"><path transform="matrix(1 0 0 -1 23 946)" d="M14 597h150v295l76-38c5-1 8-3 8-5 2-1 1-4-2-10l-35-16V597h57l31 39 55-45c1-3 3-6 3-10 0-8-3-12-11-12H211V253l131 55 8-16C188 207 100 159 86 147c-12-11-23-26-35-44L0 169l164 66v334H76c-8 0-21-2-41-7l-21 35m488 293c50-24 76-38 78-43 1-5-1-7-4-8-4 0-12-2-23-6-11-2-30-21-57-59-27-37-71-89-133-158l-11 12c56 78 106 165 150 262m-66-508 48-29h266l23 37 51-32c8-4 12-8 12-13 0-4-8-13-23-26V144l3-97c0-9-5-18-17-26-12-5-24-9-35-11v70H484V37c0-8-6-17-19-25-11-7-22-11-33-12l4 122v260m48-278h280v223H484V104m194 770 8 12c45-26 85-51 119-76 34-26 56-49 66-71 11-19 13-37 8-52-6-15-16-21-29-20-13 0-22 9-28 27-6 17-19 40-39 69-19 29-54 66-105 111m2-164c2-5 3-8 4-10-1-4-13-10-38-17 27-52 55-95 84-131 29-35 62-65 98-90 37-25 78-42 125-49v-17c-32 0-52-2-60-6s-20-13-36-26c-37 26-68 53-93 82-24 29-45 57-65 84-17 28-41 73-70 135-31-59-70-115-117-170-48-55-108-107-180-158l-10 12c68 63 124 127 168 189 45 61 81 128 110 203l80-31Z"/></symbol><symbol id="﨏_J" viewBox="0 0 1000 1000" data-size="21"><path transform="matrix(1 0 0 -1 44 934)" d="m440 410 43-21h202l30 35 67-63c5-3 7-7 7-11 0-3-3-7-9-10l-12-7V36l-63-8v49H479V5l-63-5v386c-33-31-70-62-111-91l-17 14c67 69 116 128 147 176 41 63 76 137 107 223l90-23c14-3 21-9 21-16 0-2-1-4-2-6-1-1-8-3-19-6l-13-3c2-4 8-15 19-33 56-93 147-174 273-244l-12-16c-22 1-44-9-67-30-54 45-93 82-118 111-53 61-92 126-117 195-47-91-99-166-157-227m16 457 80-30c13-5 20-11 20-19 0-7-6-11-19-13l-21-3c-44-77-97-144-160-203l-21 11c47 68 87 154 121 257M329 597v-20H187V253l152 33 2-15c-53-25-145-62-274-111l-10-14c-7-11-12-16-16-16-5 0-10 6-14 17L2 217l121 23v337H8l-8 27h123v263l73-8c19-2 28-7 28-15 0-7-5-13-16-16l-21-7V604h33l39 55 70-62m150-235V105h226v257H479m167 494c67-34 120-69 159-105 41-38 62-74 62-107 0-15-5-27-14-35-5-4-11-6-18-6-14 0-25 9-34 27-18 37-43 77-76 122-18 25-48 54-90 89l11 15Z"/></symbol><symbol id="﨏_U" viewBox="0 0 1000 1000" data-size="23"><path transform="matrix(1 0 0 -1 95 902)" d="M367 350c11 0 22-3 33-9 11-5 24-13 37-23h196l31 41c11-3 22-9 32-17 11-7 18-15 22-24l-28-29V23C673 8 658 0 643 0v42H413V23C398 8 382 0 367 0v350m46-297h230v254H434l-21-14V53M130 776c12 0 24-3 36-10 13-7 27-16 42-27l-31-20V526h4l31 40c17-7 30-16 41-27s18-19 22-25h-98V231l86 24v-12L33 128c-1 1-5 6-12 13S7 165 0 191l16-5 114 32v296H73l-17-4-12 16h86v250m378-107c13-3 26-8 39-14 13-5 22-11 27-18l-26-17-4-10c13-27 29-52 48-76s39-46 62-65 48-34 74-47 53-21 81-26v-6c-13-3-25-8-36-15-10-6-20-14-29-24-44 22-84 53-120 94s-65 91-87 150c-27-59-65-110-114-153-48-43-100-75-157-98l-3 3c26 14 51 31 76 52s48 46 69 73c22 27 41 57 58 90s31 69 42 107m-86 126c13-3 26-8 38-14 13-5 22-11 27-18l-25-17c-16-48-40-90-73-126s-68-63-106-80l-3 3c30 21 58 54 84 97s45 95 58 155m162 9c36-31 66-57 89-80s42-43 55-60c14-17 24-31 29-43 6-11 9-21 9-29 0-11-4-19-12-26-7-6-13-9-18-9-11 0-20 12-27 37-3 11-8 24-16 39s-18 32-30 50c-11 18-24 37-39 57-15 21-30 41-45 61l5 3Z"/></symbol><symbol id="﨑_G" viewBox="0 0 1000 1000" data-size="21"><path transform="matrix(1 0 0 -1 25 972)" d="m422 468 55-37h107l27 33 53-35c6-4 9-8 10-12 0-4-9-12-28-23V288l4-84c0-11-6-20-19-27s-24-10-33-10v57H469v-45c2-9-4-17-18-26-12-9-23-13-33-11l4 129v197m47-221h129v158H469V247M350 546h322c32 66 59 131 80 195l70-35c3-6 4-10 2-12s-8-4-15-6c-8 0-14-1-18-5-4-3-12-14-23-34-13-18-36-53-69-103h151l35 41 58-49c2-2 4-4 6-8 0-6 0-9-2-9H811V76c-3-22-12-38-26-49S752 7 727 0c-3 21-13 38-32 49-18 12-50 27-97 43l4 17c78-24 124-34 138-31 16 3 23 12 22 27v416H420c-22-1-39-4-51-10l-19 35m23 242h424l39 43 62-51c7-8 6-14-3-19H453c-21 0-40-3-55-8l-25 35m148 145 8 11c41-17 71-35 92-52s32-32 33-45c2-13 0-24-8-34-7-8-17-11-29-9s-19 11-23 25c-2 14-9 29-20 47-10 17-27 36-53 57m-72-207 8 11c43-25 74-47 92-66 17-18 28-35 33-53 2-16-1-29-8-39-8-10-17-14-29-10-10 4-18 16-22 35-3 19-10 37-19 55-10 17-28 39-55 67M160 942l72-27c11-4 12-10 2-18l-29-9V255l80 19v459l74-27c6-5 6-9 0-14l-29-11V276l4-74c0-8-5-15-14-23-9-9-21-13-35-14v88c-90-25-148-45-176-59-27-13-47-29-60-47L0 202c17 10 28 21 33 33v506l72-31c10-3 10-9 0-16l-27-9V224l82 21v697Z"/></symbol><symbol id="﨑_J" viewBox="0 0 1000 1000" data-size="21"><path transform="matrix(1 0 0 -1 59 950)" d="M173 831V250h59v477l71-6c13-1 19-6 19-15 0-6-5-12-15-18l-15-9V505h323c33 105 54 180 65 227l70-27c10-4 15-10 15-17 0-10-7-17-21-20l-17-3c-24-45-50-91-77-138l-14-22h115l48 55 82-65v-18h-92V88c0-28-7-49-22-62-11-11-26-18-45-22-10-3-17-4-22-4-4 0-7 1-8 4-1 2-2 9-3 21-2 15-15 26-39 32-15 3-31 6-48 7v20h123v393H292V175l-60-15v63H56V110L0 94v631l66-8c13-1 19-5 19-12 0-8-5-14-15-19l-14-6V250h58v630l70-7c7-1 12-4 16-9 2-2 3-4 3-6 0-7-5-13-16-19l-14-8m263-462V223h125v146H436m0-173v-51l-59-17v305l65-36h113l27 36 53-37c9-7 13-13 13-19 0-5-5-10-14-15l-14-6V173l-59-13v36H436M329 746l-14 27h219v126l84-7c10-1 15-6 15-14 0-7-6-12-18-16l-13-5v-84h125l41 53 82-65v-15H329m93-13c59-61 89-115 89-162 0-17-5-29-15-38-7-7-16-10-25-10-7 0-12 2-16 7-3 5-7 25-11 62-5 40-18 82-38 127l16 14Z"/></symbol><symbol id="﨑_U" viewBox="0 0 1000 1000" data-size="23"><path transform="matrix(1 0 0 -1 109 889)" d="M213 600c11 0 23-3 34-10 12-6 25-15 40-26l-29-20V172c-15-15-30-22-45-22v45L68 86 45 55C26 62 11 74 0 91l23 23v440c11 0 23-3 34-10 12-6 25-15 40-26l-29-20V146l47 21v594c11 0 23-3 34-10 12-6 25-15 40-26l-29-19V187l53 23v390m156 70 4-3h301l30 39c16-7 29-15 39-26 11-11 18-19 22-24H651c11-3 20-8 29-13s16-9 20-14l-25-17c-9-20-22-38-40-53-17-15-36-26-57-33l-3 3c13 11 24 28 35 49 11 22 20 48 25 78H387c32-26 54-47 66-63s18-29 18-39c0-6-2-12-7-19-4-7-8-11-11-12h239l29 39c16-7 29-15 39-26 11-11 18-19 22-24H678V45c0-11-6-22-19-31S632 0 617 0c0 5-10 16-29 32s-46 32-82 48l6 6c21-9 40-16 56-19 17-3 31-5 42-5 15 0 23 2 23 5v445H310l-17-5-12 16h144c-3 5-4 9-4 12v4c1 1 1 3 1 4 0 13-5 30-16 49-10 20-22 41-35 64h-43l-18-5-12 16h66l5 3m-41-243c11 0 21-3 31-8 11-5 22-13 35-22h97l30 39c11-3 21-9 31-17 10-7 17-15 21-23l-27-28V194c-15-15-30-22-45-22v40H373v-18c-15-15-30-22-45-22v255m45-203h128v161H393l-20-13V224m109 554c33-13 56-25 68-35s18-19 18-27c0-5-2-11-5-16s-6-9-10-13c-3-3-7-6-11-9-4-2-7-3-9-3-7 0-10 4-10 12v4c1 1 1 3 1 4 0 10-5 22-14 36-9 15-20 29-33 44l5 3Z"/></symbol><symbol id="﨓_G" viewBox="0 0 1000 1000" data-size="21"><path transform="matrix(1 0 0 -1 23 971)" d="m484 942 75-25c4-2 5-5 5-8 0-2-10-8-31-17v-84h192v127l80-22c2-3 3-6 4-10 0-2-12-7-36-17v-78h90l32 35 54-47c2-1 3-3 4-8 0-4-4-6-14-6H773v-66c-1-12-8-20-21-26-12-5-22-8-27-7v99H533v-80c0-10-7-17-19-21-6-4-16-6-30-6v107h-86c-13 0-30-4-48-10l-18 36h152v134m32-447h250v170l74-21c4-3 6-6 6-10-1-5-12-11-33-20V495h42l26 41 62-47c2-2 4-6 4-10 0-6-4-9-11-9H813V96c1-22-3-41-14-59-11-17-31-29-63-35-2 19-15 34-37 45-21 10-49 19-82 29l4 18 90-18c18-2 31-1 41 4s15 22 14 52v338H602c-15 0-38-3-69-8l-17 33m66 125c5-4 5-8 2-14l-20-5c-5 0-13-5-23-14-10-8-31-37-62-88V132l3-91c0-9-7-18-21-27-14-10-25-13-33-10l4 138v298c-34-38-69-72-108-103l-10 10c34 39 67 83 100 132 31 49 66 109 104 180l64-39m-21-207c57-35 93-63 107-84s19-40 14-55-14-23-28-23-24 16-31 47c-12 36-35 71-70 103l8 12M12 683h170v257l80-33c11-6 11-11 2-17l-34-12V683h63l33 33 59-41c8-10 7-16-4-20H230v-64c30-20 55-38 75-55 19-15 32-33 39-53 7-18 8-33 2-45s-15-17-28-15c-11 1-20 12-25 33-6 20-14 38-23 57-10 18-23 36-40 54V128l2-87c0-9-6-18-19-27-12-9-24-14-35-14l4 128v346c-24-60-49-114-77-162-25-49-56-95-93-137L0 187c23 37 48 83 74 136 24 54 45 109 65 166 17 56 31 112 41 166H82c-14 0-31-2-51-8l-19 36Z"/></symbol><symbol id="﨓_J" viewBox="0 0 1000 1000" data-size="21"><path transform="matrix(1 0 0 -1 37 957)" d="M165 631H11L0 659h167v252l72-10c20-3 30-8 30-16s-5-14-16-18l-21-8V659h39l44 54 72-67v-15H232V508c82-33 123-68 123-106 0-13-5-22-14-28-5-3-10-5-16-5-7 0-14 3-19 8-4 3-12 15-24 35-16 27-33 49-50 66V9l-65-9v437c-4-8-12-23-23-44-35-66-74-125-119-176L7 233c38 58 70 122 97 192 31 81 52 150 61 206m163-354-16 9c59 113 105 247 137 401l72-36c13-6 20-12 20-17 0-7-8-11-23-13l-11-1c-13-35-29-74-48-115l23-6c8-2 12-6 12-11s-4-9-13-13l-16-8V19l-61-9v382c-19-37-45-76-76-115m170 484H336l-10 26h172v123l69-8c13-1 20-5 20-12s-3-11-10-14l-18-7v-82h119v126l73-9c11-2 17-6 17-12s-5-11-14-16l-14-7v-82h57l55 61 74-67v-20H740v-82l-62-8v90H559v-83l-61-8v91m30-272-8 26h232v170l77-9c13-1 19-6 19-13 0-5-5-11-16-16l-18-9V515h10l41 57 61-66v-17H814V76c0-22-11-40-34-55-13-8-26-12-37-12-4 0-7 1-9 2-2 2-5 10-8 23-3 11-9 18-16 20l-65 18v20h107v397H528m25-81c90-41 135-86 135-137 0-11-3-21-8-30-7-11-15-17-25-17-9 0-16 9-22 27-19 55-48 103-88 145l8 12Z"/></symbol><symbol id="﨓_U" viewBox="0 0 1000 1000" data-size="23"><path transform="matrix(1 0 0 -1 105 907)" d="M415 814c21 0 50-14 85-41l-33-24v-63h119v128c21 0 50-14 87-41l-34-24v-63h41l34 45c28-12 51-31 69-58H639v-90c21-3 47-17 79-41l-32-24V395l34 46c29-12 52-31 70-58H686V58c0-12-6-24-18-35S643 7 628 7c0 4-2 9-7 16-4 7-10 14-18 22-7 8-17 16-28 24s-23 16-36 23l8 8c13-9 25-16 36-19s20-5 27-5 13 1 17 3 6 4 6 6v298H467l-20-13-12 25h198v180c-15-14-31-21-47-21v119H467v-92c-13-14-27-23-41-26 18-7 31-15 39-24l-28-20c-11-48-28-90-49-126 7-3 15-7 22-12 8-5 16-10 25-17l-35-22V27C383 9 366 0 350 0v331c-19-21-38-38-58-51l-3 4c23 25 44 60 61 103v10h4c17 47 30 103 39 168l22-6v114h-99l-20-12-13 25h132v128m-303 0c19 0 48-14 85-41l-33-24V581h14l35 44c27-11 49-30 68-58H164v-60c41-41 70-74 86-98 17-24 25-43 25-58 0-6-2-12-5-17s-6-10-11-14c-4-4-8-7-13-10-4-2-7-3-9-3-7 0-11 3-14 9-2 6-5 16-8 29-3 14-9 32-16 53s-19 47-35 77V27C146 9 129 0 112 0v354c-17-50-35-92-52-126s-36-62-57-85l-3 3c52 85 87 226 105 421H45l-20-11-13 25h100v233m380-465c32-32 54-57 67-75s20-33 20-44c0-5-2-11-6-16-3-5-8-9-13-13l-15-9c-5-2-10-3-13-3-9 0-14 5-14 15 0 3 1 7 2 12s2 10 2 15c0 23-12 61-35 114l5 4Z"/></symbol><symbol id="﨔_G" viewBox="0 0 1000 1000" data-size="21"><path transform="matrix(1 0 0 -1 18 972)" d="M838 896c9-6 14-11 14-14 0-5-3-7-10-8-16-2-31-16-47-43l-80-137h107l32 37 60-44c8-10 6-17-6-20H715c14-27 34-55 60-82s52-50 79-68c25-20 62-34 111-43v-16c-27 0-47-3-59-8-11-6-21-13-29-23-28 19-52 41-72 64-20 22-41 48-63 80-20 31-38 63-54 96H578c-29-61-64-113-105-158-41-44-89-82-143-115l-10 11c45 38 83 78 116 119 32 42 60 90 84 143h-82c-20 2-38-1-53-8l-22 35h325c44 98 76 175 93 233l57-31m-412 9 10 10c54-40 89-70 103-92 14-21 19-39 16-54-3-14-8-24-16-30s-18-7-27-2c-9 4-14 14-16 30-2 13-6 30-14 50-7 18-26 47-56 88m144 30 14 9c45-41 74-72 86-93 10-22 15-40 14-55-3-16-8-26-16-31-8-7-16-8-25-4-10 3-16 13-18 31-3 15-6 33-10 55-4 21-19 50-45 88m155-459-69-16V360h119l30 34 56-43c2 0 4-2 4-6 0-7-4-10-11-10H656v-94h196l31 37 56-47c2-2 2-4 2-7 1-5-2-8-9-8H656V92c0-25-4-45-13-61-10-14-28-24-55-31-6 19-18 33-35 41-18 8-46 18-84 27l4 18c39-8 66-13 82-16 15-2 27-2 37 0s13 17 12 43v103H406c-12 0-29-3-51-8l-17 33h266v94H480c-12 0-32-3-60-8l-18 33h202v94c-59-8-116-16-172-21l-4 15c81 16 146 31 195 47 47 15 87 30 121 45 27-31 42-49 45-53s3-8 2-9c-2-2-8-2-20 0-9 1-25 1-46-2M6 683h164v257l80-33c11-6 12-11 2-17l-33-12V683h51l31 37 54-45c9-10 8-16-3-20H219v-64c28-20 52-37 72-53 17-16 29-33 37-53 7-17 7-32 2-43-5-10-14-15-27-13-12 1-20 11-26 31-5 18-12 36-21 55-8 17-20 35-37 52V128l2-87c0-9-7-18-20-27-12-9-23-14-35-14l4 128v344c-21-59-44-112-68-160-26-49-56-94-90-135L0 187c23 37 47 83 70 136 22 54 41 109 59 166 16 56 29 112 39 166H76c-14 0-31-2-51-8L6 683Z"/></symbol><symbol id="﨔_J" viewBox="0 0 1000 1000" data-size="21"><path transform="matrix(1 0 0 -1 27 961)" d="M650 383h35l45 50 77-58v-20H650V249h121l56 61 77-68v-21H650V91c0-22-5-38-15-48-19-21-39-32-60-32-8 0-13 9-16 26-2 13-8 21-18 24l-63 16v22h109v122H349l-11 28h249v106H429l-12 28h170v100c-48-8-99-14-154-17-26-31-52-59-78-83-3-19-12-29-27-29-11 0-23 10-34 29-22 39-43 68-62 89V9l-65-9v437c-27-52-50-92-67-120-21-33-46-66-75-100L7 233c71 109 123 242 158 398H17L0 659h167v252l81-12c15-2 22-7 22-14 0-6-6-11-17-16l-21-10V659h35l50 60 43-42h319c39 89 69 170 92 244l82-49c9-5 14-11 14-17 0-9-6-13-18-13h-22c-21-30-49-68-86-115l-39-50h99l48 60 78-68v-20H728c17-37 44-74 81-111 40-38 85-69 136-92l-8-13c-19-5-35-12-46-21-6-6-14-16-23-30-81 69-139 158-174 267H545c-27-60-59-114-96-163 57 16 102 32 135 47 24 11 56 29 95 53l51-55c9-9 13-16 13-21 0-7-4-10-12-10-5 0-10 1-15 2l-17 5-49-11V383M387 649v-18H232V505c65-25 104-55 118-88 51 71 89 148 115 232h-78m147 237 9 12c25-14 47-31 65-50 30-33 45-64 45-93 0-15-4-26-12-35-7-7-15-10-24-10-7 0-13 3-17 10-3 5-9 24-17 58-9 37-26 73-49 108m-147-26 9 14c75-40 113-85 113-134 0-14-4-25-12-34-7-7-15-11-23-11-6 0-10 2-13 7-3 4-8 18-16 42-15 41-34 80-58 116Z"/></symbol><symbol id="﨔_U" viewBox="0 0 1000 1000" data-size="23"><path transform="matrix(1 0 0 -1 110 899)" d="M127 799c11 0 22-3 33-9s24-15 39-26l-29-18V563h23l28 37c15-6 28-14 38-25 10-10 17-18 21-24H170v-65c37-41 62-74 75-97 14-23 21-40 21-52 0-11-4-20-12-26-7-5-13-8-18-8s-10 3-13 9c-3 7-6 16-10 29-3 13-8 28-15 47s-16 40-28 64V22C156 7 142 0 127 0v406c-15-62-34-115-56-160S26 166 3 141l-3 3c23 36 45 89 65 158 21 69 36 152 46 249H39l-17-4-12 16h117v236m229-634-17-4-12 16h180v92H402l-17-5-12 17h134v84c-18-1-37-3-56-4s-39-2-58-3l-3 3c50 7 96 16 137 27 42 11 73 25 94 41 11-4 22-10 32-18 11-8 18-17 23-26h-22c-11-3-26-6-44-9-17-3-37-5-60-7v-88h57l28 37c16-7 29-15 39-25s17-18 20-24H550v-92h103l28 37c16-6 29-14 39-25 10-10 17-18 21-24H550V49c0-11-5-22-16-31-10-9-21-13-34-13 0 5-7 14-21 27s-34 25-59 36l5 5c11-5 20-9 29-11 9-1 16-2 23-2 10 0 17 1 22 4s8 5 8 7v94H356m-52 392-17-5-12 17h296c21 21 41 50 59 87s32 80 41 129c13-3 25-8 36-13 12-5 21-11 26-17l-24-16c-11-38-28-72-50-101s-46-52-73-69h108l28 37c15-7 28-15 38-25s17-18 21-24H566c-1-1-2-1-3-1s-1 0-1-1l-2 2H304m126-31c12-3 24-8 35-13 12-5 21-11 26-17l-24-16c-15-25-39-48-70-67s-64-33-100-42l-3 3c29 13 55 33 80 59s44 57 56 93m145-2c35-12 63-23 85-33 23-10 40-19 53-28 13-8 22-16 27-23s8-14 8-20c0-11-3-19-9-25-5-6-10-9-14-9-3 0-7 1-11 4s-8 9-11 16-9 14-18 23c-8 9-18 19-30 29-12 11-25 21-40 31-14 11-28 21-43 31l3 4M456 784c39-34 65-61 79-81s21-36 21-48c0-11-4-20-13-27-9-6-15-9-20-9-10 0-15 9-15 28 0 7-2 15-5 25-3 11-7 22-12 34s-11 24-18 37-14 26-22 39l5 2m-123-30c43-33 73-59 88-78s23-34 23-45-4-19-13-26c-8-7-14-10-18-10-10 0-15 8-15 24-1 14-8 33-22 57-13 25-29 50-47 75l4 3Z"/></symbol></svg>