<svg xmlns="http://www.w3.org/2000/svg"><symbol id="敏_J" viewBox="0 0 1000 1000" data-size="22"><path transform="matrix(1 0 0 -1 43 947)" d="M315 441c-16-2-30 12-43 43-15 26-35 45-58 55-13 8-13 13 0 16 72-19 113-45 121-78 2-21-4-33-20-36m-51-168c-18 32-43 55-74 71-16 10-13 15 8 15 73-20 115-52 125-93 5-21 0-33-16-36-15-5-30 10-43 43m450-19c59-73 126-130 199-172-26-3-46-16-59-39-55 39-109 98-164 176C607 112 508 39 393 0c-18 0-21 5-8 16 123 54 217 132 282 234-47 91-80 220-98 387-34-65-68-117-102-157-13-7-16-5-11 8 80 128 131 263 152 407l74-24c21-16 12-26-27-31-18-65-42-123-70-172h207l50 51 63-47c16-13 16-22 0-27h-98c-13-175-44-305-93-391M440 594c16-13 11-22-16-28V418h40l43 43 54-39c16-13 16-22 0-27H424l-11-204h27l43 43 55-39c15-13 15-22 0-27H409c-8-57-17-94-27-109-8-19-21-33-40-43-10-6-24-9-43-12-10 0-15 5-15 16 2 10-3 18-16 23l-62 23c-8 8-7 12 4 12l70-12c16-2 33 0 51 8 13 16 22 47 27 94H120l-8-63c-39-26-56-26-51 0l31 290H3v23h93l16 219 55-35h199l23 27 51-35M233 871c21-10 10-21-31-31-16-37-33-69-51-98h242l51 51 63-47c15-13 15-22 0-27H139C95 646 53 591 14 555c-10-8-14-6-11 8 73 101 129 212 168 332l62-24m453-582c37 78 60 197 71 356H592c16-141 47-260 94-356M159 578l-12-160h227v160H159m-16-183-19-204h238l12 204H143Z"/></symbol><symbol id="既_J" viewBox="0 0 1000 1000" data-size="22"><path transform="matrix(1 0 0 -1 69 953)" d="M51 174V34C17 3 0 1 0 30v789l59-31h43l27 121 55-20c28-13 24-22-12-27l-43-74h98l23 31 55-39c15-13 10-22-16-27V456c-34-32-51-33-51-4v39H51V346h156l51 51 66-55c8-10 5-16-8-19H51V198h172l50 51 67-55c8-10 5-17-8-20H51m551 325c-8-29-16-55-24-78l47-12c21-13 16-22-16-27V112c0-10 6-16 16-16h129c26 0 40 9 43 28l23 121c6 5 9 5 12 0V124c0-13 5-22 16-28 18-7 18-19 0-35-8-8-32-12-71-12H605c-31 0-46 16-46 47v274C454 174 315 52 141 3c-19-3-21 4-8 19 203 73 341 232 414 477H324v23h78v289h-50v24h347l51 50 63-46c15-13 15-23 0-28H625v-70c0-50-7-123-20-219h122l50 51 63-47c15-13 15-22 0-27H602m-51 23c15 91 23 172 23 242v47H453V522h98M51 764V651h187v113H51m0-136V514h187v114H51Z"/></symbol><symbol id="暑_J" viewBox="0 0 1000 1000" data-size="22"><path transform="matrix(1 0 0 -1 50 961)" d="M544 353c-5 2-10 9-15 19-13 21-34 39-63 55-47-26-95-51-144-74h222m121 281c-33-31-50-32-50-4v24H423v-75h82l43 43 67-46c59 46 113 95 160 144l35-35c31-31 22-43-27-35-84-68-171-130-262-188h258l50 51 63-47c16-13 16-22 0-27H490l-12-4c70-13 105-33 105-59 0-13-2-21-7-23h93l24 31 54-39c19-13 13-22-15-27V44c-34-31-51-32-51-4v39H298V33c-34-32-51-33-51-4v293c-91-39-168-64-230-75-16 0-17 6-4 16 112 36 190 66 234 90v35l43-16c37 19 77 41 121 67H21v23h351v94H87v23h285v75H208v-32c-34-31-50-32-50-4v313l58-31h391l23 27 51-35c18-13 13-22-16-27V634M451 462c44 26 91 58 140 94H423v-94h28M208 876v-86h407v86H208m407-199v90H208v-90h407M298 329V228h383v101H298m383-226v101H298V103h383Z"/></symbol><symbol id="梅_J" viewBox="0 0 1000 1000" data-size="22"><path transform="matrix(1 0 0 -1 25 950)" d="M671 493c2-20-4-32-20-35-16-2-30 12-43 43-16 26-35 45-59 55-13 8-13 13 0 16 73-19 114-45 122-79m-4-230c5-21 0-33-16-35-16-5-30 9-43 43-18 31-43 55-74 70-16 11-13 16 8 16 73-21 114-52 125-94M296 564c83 96 140 209 171 340l71-32c34-15 26-26-24-31-15-28-31-55-47-78h282l58 59 75-55c15-13 15-22 0-27H456c-39-76-90-138-153-188-13-5-15-1-7 12m625-360c15-13 15-22 0-27H772c-2-36-9-68-19-94-8-20-21-37-39-50-11-8-24-12-40-12-13 0-19 8-19 23 0 8-7 16-20 24l-66 27c-5 10-4 16 4 16l78-20c8-2 17-4 27-4 13 0 23 7 28 20 8 18 13 41 15 70H424l-11-86c-39-21-56-21-51 0l35 309H257v23h140l27 242 51-39h266l23 35 63-50c21-13 12-26-28-39l-7-149h35l51 51 62-47c16-13 16-22 0-27H788l-12-199h31l51 50 63-47M350 697c16-13 16-23 0-28H202V564c81-21 121-51 121-90 0-16-8-23-24-23-7 0-15 7-23 23-13 26-38 51-74 74V33c-34-32-51-33-51-4v445c-31-73-77-143-137-211-10-8-14-5-11 8 93 169 143 302 148 398H22v24h129v215l66-12c21-13 16-22-15-28V693h35l51 50 62-46m399-94H467l-19-180h293l8 180M448 400l-20-199h297l12 199H448Z"/></symbol><symbol id="海_J" viewBox="0 0 1000 1000" data-size="22"><path transform="matrix(1 0 0 -1 27 949)" d="M647 250c5-23-1-38-19-43-13-3-25 7-36 27-23 42-50 72-82 90-13 8-11 12 4 12 78-16 123-44 133-86m0 227c5-24-1-38-19-43-16-6-29 6-39 35-19 31-41 56-67 74-10 5-9 9 4 12 65-16 106-42 121-78m-375 31c-15-5-21 0-15 15 96 123 166 248 210 375l63-31c26-13 19-23-20-31-13-23-27-46-43-66h329l50 50 67-47c15-13 15-22 0-27H456c-50-88-111-168-184-238m-55 269c0-20-7-31-23-31-13 0-25 11-35 31-13 29-39 54-78 75-18 10-17 15 4 15 88-15 132-45 132-90m-74-250c0-23-8-35-23-35-13 0-25 16-35 47-11 29-33 53-67 74-18 13-17 20 4 20 81-21 121-56 121-106m129 211c16 13 22 9 20-11L159 297c-11-34-9-83 4-149 8-41 10-74 8-97-6-26-19-39-39-39-29 0-42 14-40 43 11 78 13 136 8 175-8 21-21 36-39 43l-47 8v16h90l168 441m524-355c-3-81-8-151-16-211h35l51 51 62-47c16-13 16-22 0-28H780c-8-57-22-96-43-117S695 0 674 0c-7 0-13 7-15 20 2 15-5 24-24 27l-50 12c-19 7-19 13 0 15h54c32 0 51 2 59 4 13 5 22 29 27 70H401l-12-62c-39-21-57-21-54 0l47 297H257v23h125l31 246 47-31h285l27 31 47-31c31-21 27-36-12-47l-8-168h28l51 51 62-47c16-13 16-22 0-27H796m-364 0-27-211h324c8 60 13 130 16 211H432m313 23 8 192H460l-24-192h309Z"/></symbol><symbol id="渚_J" viewBox="0 0 1000 1000" data-size="22"><path transform="matrix(1 0 0 -1 31 959)" d="M480 33c-33-32-50-33-50-4v347c-81-65-158-114-231-148-15-5-17-1-4 12 151 104 278 213 379 328H273v23h215v145H336v23h152v168l59-12c26-5 23-15-8-31V759h63l50 51 67-51c31 44 57 85 78 121l51-35c31-21 24-31-20-31-78-102-137-176-176-223h149l54 55 71-51c15-13 15-22 0-27H633c-11-11-21-21-31-32 49-13 83-32 101-58 11-21 9-35-4-43-13-5-23 0-31 16-23 41-48 67-74 78-39-42-77-78-114-110h266l27 28 43-28c29-18 25-31-11-39V68c-34-32-51-33-51-4v35H480V33m0 246h274v117H480V279M125 525c-18-8-31 1-39 27-13 44-34 78-63 102-13 10-10 14 8 11 50-18 85-44 106-78 13-31 9-52-12-62m70 234c-18-5-31 3-39 24-13 44-35 75-66 93-11 8-9 12 4 12 57-13 95-38 113-74 8-29 4-47-12-55M156 99c13-52 3-81-31-86-31 0-43 27-35 82 2 18 4 59 4 121 0 24-15 38-43 43l-51 8v19h86l203 500c10 13 16 12 16-3L148 314c-18-52-15-124 8-215m324 23h274v133H480V122m114 469c34 39 70 87 109 145H539V591h55Z"/></symbol><symbol id="漢_J" viewBox="0 0 1000 1000" data-size="22"><path transform="matrix(1 0 0 -1 38 947)" d="M650 684v78H451v-78h199M56 859c-5 8-3 12 8 12 86-29 129-62 129-101 0-24-9-36-28-36-10 0-18 7-23 20-26 55-55 90-86 105M5 637c-5 8-2 11 8 11 78-36 117-75 117-117 0-23-9-35-27-35-11 0-18 8-24 24-18 49-43 88-74 117m235 74c15 10 22 9 19-4L138 301c-10-29-10-68 0-117 3-19 5-37 8-55 2-26 5-48 8-66 0-37-13-55-39-55-21 0-33 17-36 51 3 18 6 46 8 86v82c-2 18-11 30-27 35L5 273v20h86l149 418M849 12C719 53 620 129 552 238 516 100 393 21 185 0c-11 3-12 7-4 12 185 47 292 125 320 234H220v24h289c3 13 5 33 8 62H267v23h254c2 27 4 53 4 79H357v-32c-34-31-51-32-51-4v219l59-35h160v78h-74v-31c-34-31-51-33-51-4v137H255v23h145v106l66-12c21-13 16-22-15-27v-67h199v110l66-12c21-13 16-22-15-28v-70h82l50 51 63-47c15-13 15-22 0-27H701V633c-34-31-51-33-51-4v31h-74v-78h164l23 27 55-35c15-13 10-22-16-27V414c-34-29-51-30-51-4v24H576c0-26-2-52-4-79h187l43 40 55-40c15-10 15-18 0-23H568c-3-29-5-49-8-62h242l51 46 62-43c16-13 16-22 0-27H572c60-86 175-148 347-187-39-16-62-32-70-47M525 457v102H357V457h168m51 102V457h175v102H576Z"/></symbol><symbol id="煮_J" viewBox="0 0 1000 1000" data-size="22"><path transform="matrix(1 0 0 -1 36 943)" d="M578 523c-5 6-9 12-12 20-13 23-32 43-58 59-37-29-72-55-106-79h176m-58 90c62-18 95-39 97-62 3-16-1-25-12-28h43l24 32 55-39c15-13 10-23-16-28V238c-34-31-51-32-51-4v36H352v-51c-34-31-51-33-51-4v238c-81-52-173-99-278-140-20 0-23 6-7 19 96 47 191 102 285 164v55l47-24c49 37 92 71 129 102H39v23h344v98H176v23h207v114l66-12c21-8 16-17-15-27v-75h54l43 43 55-39c16-13 16-22 0-27H434v-98h70c81 76 152 150 215 223l54-55c16-15 2-21-43-15-49-50-105-101-167-153h226l59 59 74-55c16-13 16-22 0-27H539l-19-16M691 59c0-24-10-36-31-36-10 0-18 8-23 24-16 52-45 101-86 148-8 16-4 20 12 12 85-60 128-109 128-148M207 207c5 16 10 16 16 0 5-65-3-116-24-152-21-34-45-51-74-51-16 0-23 9-23 27 0 13 9 28 27 43 42 34 68 78 78 133m559-12c93-41 140-84 140-129 0-20-8-31-23-31-8 0-16 7-24 20-20 44-54 88-101 133-5 7-3 10 8 7M660 500H352v-90h308v90M449 47c0-31-10-47-31-47s-31 18-31 55c0 41-11 84-32 129-7 18-3 22 12 11 55-49 82-99 82-148m-97 340v-94h308v94H352Z"/></symbol><symbol id="爫_J" viewBox="0 0 1000 1000" data-size="22"><path transform="matrix(1 0 0 -1 132 686)" d="M17 253c-16 2-17 7-4 15 310 39 520 76 629 110l66-51c21-24 6-28-47-12-231-31-446-52-644-62m23-75c-7 11-5 15 8 12 52-21 91-43 117-66 32-29 47-56 47-82 0-21-6-32-19-32-16 0-29 15-39 43-13 39-51 81-114 125m235 36c-11 10-8 14 8 11 52-21 91-43 117-66 31-29 47-56 47-82 0-21-8-31-24-31-15 0-27 11-35 35-13 41-51 86-113 133m461-12c13-16-2-22-43-20L540 10c-20-10-26-6-15 12l140 227 71-47Z"/></symbol><symbol id="琢_J" viewBox="0 0 1000 1000" data-size="22"><path transform="matrix(1 0 0 -1 29 932)" d="M641 385C510 229 366 124 207 69c-13 0-16 5-8 16 180 91 323 214 430 371-3 28-9 56-20 82-20-24-46-48-78-74 21-19 32-37 32-55s-10-27-28-27c-5 0-10 5-15 15-6 13-13 26-24 39-70-47-134-82-191-105-16 0-20 5-12 15 62 32 121 71 176 118-16 18-35 35-59 50-8 11-5 15 8 12 29-8 55-19 78-35 42 39 70 70 86 94-10 23-27 44-51 62-49-39-107-71-172-98-15 0-19 6-11 16 106 57 185 130 234 219H398v23h364l58 59 75-55c15-13 15-22 0-27H688c5-104 19-203 42-297l122 148 50-39c21-28 11-36-31-23L738 467c42-138 110-247 203-328-23-10-45-26-66-47-128 125-199 356-215 692h-19c-32-47-63-87-94-121 94-78 141-184 141-317 0-135-17-228-51-277-21-31-55-53-102-66-15-3-23 5-23 23 0 10-8 20-24 27l-58 28c-11 10-9 15 4 15l74-15c23-5 41-4 55 4 15 7 28 19 39 35 28 36 41 125 39 265M31 510h125v247H20v23h246l50 51 63-47c16-13 16-22 0-27H207V510h59l43 43 54-39c16-13 16-22 0-27H207V245l168 39c21-5 22-12 4-20L70 163c-5-29-14-37-27-24L0 206l156 27v254H31v23Z"/></symbol><symbol id="碑_J" viewBox="0 0 1000 1000" data-size="22"><path transform="matrix(1 0 0 -1 37 944)" d="M371 790c16-13 16-22 0-27H242c-21-91-43-163-66-215l19-12h86l24 32 54-39c16-13 11-22-15-28V275h336v183l66-11c21-13 16-23-16-28V275h75l50 51 63-47c16-13 16-22 0-28H730V33c-33-32-50-33-50-4v222H344V142c-34-31-51-33-51-4v55H188V76c-34-32-51-33-51-4v379c-37-68-76-124-117-168-16-11-20-7-12 11 96 159 155 315 176 469H43v23h230l43 43 55-39m106-152h136v113H477V638m187-23c0-37-5-75-16-114h168v114H664m0 23h152v113H664V638m16 242c21-5 11-15-28-31l-35-74h188l23 31 55-39c15-13 10-22-16-27V451c-34-32-51-33-51-4v31H641c-32-73-95-137-192-192-13-2-15 2-8 12 73 63 123 123 149 180H477v-51c-34-31-51-32-51-4v383l58-31h114l19 121 63-16M477 501h121c10 39 15 77 15 114H477V501M188 216h105v297H188V216Z"/></symbol><symbol id="社_J" viewBox="0 0 1000 1000" data-size="22"><path transform="matrix(1 0 0 -1 28 942)" d="M17 107C4 94 0 96 5 115c37 75 55 170 55 285v164l58-12c27-5 24-16-7-31V415c0-127-32-230-94-308m336 105c-34-31-51-32-51-4v356l59-12c26-5 23-16-8-31V212M236 33c-34-32-51-33-51-4v597H1v24h289l55 54 70-50c19-13 19-22 0-28H236V33M52 786v24h203l47 47 63-43c18-13 18-22 0-28H52m758-671 58 58 71-55c10-13 6-22-12-27H353v24h238v429H411v24h180v324l70-12c27-5 20-15-19-31V568h137l50 50 63-46c16-13 16-23 0-28H642V115h168Z"/></symbol><symbol id="祈_J" viewBox="0 0 1000 1000" data-size="22"><path transform="matrix(1 0 0 -1 71 944)" d="M14 107C4 96 0 98 3 111c33 78 50 174 50 289v164l55-12c24-5 22-16-4-31V415c0-125-30-227-90-308m309 105c-34-31-51-32-51-4v356l51-12c23-5 23-16 0-31V212M217 33c-33-32-50-33-50-4v597H3v24h257l51 54 63-50c15-13 15-22 0-28H217V33M46 786v24h183l43 47 55-43c18-13 18-22 0-28H46m617-218H467V466c0-153-58-288-175-402-19-11-22-7-12 12 91 122 137 252 137 390v375l54-47c92 26 179 60 262 102l70-55c11-13-7-17-54-12l-282-58V591h262l55 59 66-55c13-13 13-22 0-27H714V48c-34-31-51-32-51-4v524Z"/></symbol><symbol id="祉_J" viewBox="0 0 1000 1000" data-size="22"><path transform="matrix(1 0 0 -1 35 936)" d="M17 107C4 94 0 96 5 115c37 75 55 170 55 285v164l58-12c27-5 24-16-7-31V415c0-127-32-230-94-308m336 105c-34-31-51-32-51-4v356l59-12c26-5 23-16-8-31V212M236 33c-34-32-51-33-51-4v597H1v24h289l55 54 70-50c19-13 19-22 0-28H236V33M52 786v24h203l47 47 63-43c18-13 18-22 0-28H52m625-660h109l59 59 74-55c16-13 16-22 0-27H310v23h137v516l70-12c29-10 22-21-20-31V126h129v754l71-12c28-10 22-20-20-31V505h106l50 51 63-47c15-13 15-22 0-27H677V126Z"/></symbol><symbol id="祐_J" viewBox="0 0 1000 1000" data-size="22"><path transform="matrix(1 0 0 -1 35 952)" d="M17 107C4 94 0 96 5 115c37 75 55 170 55 285v164l58-12c27-5 24-16-7-31V415c0-127-32-230-94-308m336 105c-34-31-51-32-51-4v356l59-12c26-5 23-16-8-31V212M236 33c-34-32-51-33-51-4v597H1v24h289l55 54 70-50c19-13 19-22 0-28H236V33M52 786v24h203l47 47 63-43c18-13 18-22 0-28H52m262-644c127 141 215 309 262 504H431v23h148c19 71 32 151 39 242l75-19c26-5 21-16-16-31-10-71-23-134-39-192h168l51 51 62-47c16-13 16-22 0-27H634c-16-60-34-115-55-164l16-24h199l24 32 54-39c16-13 11-23-15-28V87c-34-31-51-32-51-4v35H583V52c-34-31-50-32-50-4v348c-60-112-128-201-204-266-13-8-18-4-15 12m269 293V142h223v293H583Z"/></symbol><symbol id="祖_J" viewBox="0 0 1000 1000" data-size="22"><path transform="matrix(1 0 0 -1 41 924)" d="M17 107C4 94 0 96 5 115c37 75 55 170 55 285v164l58-12c27-5 24-16-7-31V415c0-127-32-230-94-308m336 105c-34-31-51-32-51-4v356l59-12c26-5 23-16-8-31V212M236 33c-34-32-51-33-51-4v597H1v24h289l55 54 70-50c19-13 19-22 0-28H236V33M40 786v24h203l47 47 63-43c18-13 18-22 0-28H40M771 99h23l51 51 63-47c15-13 15-22 0-27H329v23h118v754l58-35h203l24 31 54-39c16-13 11-22-15-27V99m-51 695H497V579h223v215m0-472H497V99h223v223m0 234H497V345h223v211Z"/></symbol><symbol id="祝_J" viewBox="0 0 1000 1000" data-size="22"><path transform="matrix(1 0 0 -1 35 928)" d="M17 117c-13-13-17-10-12 8 37 76 55 171 55 285v164l58-11c27-6 24-16-7-32V426c0-128-32-231-94-309m324 106c-34-32-51-33-51-4v355l59-11c26-6 23-16-8-32V223M224 43c-34-42-51-43-51-4v598H1v23h270l47 55 70-51c18-13 18-22 0-27H224V43M52 797v23h184l47 47 62-43c18-13 18-22 0-27H52m461-274h-51v-58c-34-31-51-33-51-4v394l59-39h270l23 32 55-39c15-13 10-23-16-28V488c-34-31-51-32-51-4v39h-70V148c0-10 5-15 16-15h129c23 0 37 13 42 39l24 109c5 5 9 5 12 0V160c0-13 5-22 15-27 16-8 16-20 0-35-8-8-31-12-70-12H677c-31 0-47 16-47 47v390h-66v-78c0-192-100-330-301-414-23-2-26 4-8 20 172 81 258 212 258 394v78m238 24v246H462V547h289Z"/></symbol><symbol id="禍_J" viewBox="0 0 1000 1000" data-size="22"><path transform="matrix(1 0 0 -1 45 924)" d="M17 107C4 94 0 96 5 115c37 75 55 170 55 285v164l58-12c27-5 24-16-7-31V415c0-127-32-230-94-308m320 105c-34-31-51-32-51-4v356l59-12c26-5 23-16-8-31V212M228 33c-34-32-51-33-51-4v597H9v24h274l54 54 71-50c18-13 18-22 0-28H228V33M52 786v24h203l47 47 63-43c18-13 18-22 0-28H52m836-664c0-28-9-52-27-70-16-16-30-23-43-23-16 0-24 6-24 19 0 11-6 20-19 28l-63 15c-13 5-13 11 0 16h98c18 0 27 9 27 27v340H439V36c-34-31-51-32-51-3v492l55-28h43v344l58-35h184l23 31 55-39c16-13 10-22-16-27V497h36l23 32 55-39c15-13 10-23-16-28V122m-316 71v-71c-34-31-51-32-51-4v274l58-24h110l23 32 55-39c16-13 10-22-16-28V158c-34-32-50-33-50-4v39H572m129 152H572V216h129v129m-94 340 58-24h75v122H536V497h71v188m51-47V497h82v141h-82Z"/></symbol><symbol id="禎_J" viewBox="0 0 1000 1000" data-size="22"><path transform="matrix(1 0 0 -1 45 954)" d="M17 107C4 94 0 96 5 115c37 75 55 170 55 285v164l58-12c27-5 24-16-7-31V415c0-127-32-230-94-308m336 105c-34-31-51-32-51-4v356l59-12c26-5 23-16-8-31V212M236 33c-34-32-51-33-51-4v597H1v24h289l55 54 70-50c19-13 19-22 0-28H236V33M52 786v24h203l47 47 63-43c18-13 18-22 0-28H52m602-27V658h136l24 31 54-39c16-13 11-22-15-28V224c-34-31-51-33-51-4v20H490v-32c-34-31-51-32-51-4v489l58-35h106v257l70-11c29-11 22-21-19-32v-89h132l51 50 63-47c15-13 15-22 0-27H654m148-226v101H490V533h312m0-129v105H490V404h312m0-141v117H490V263h312m43-113c44-29 66-59 66-90 0-18-7-27-23-27-13 0-25 9-35 27-34 55-90 100-168 137-11 10-8 14 8 11 62-13 113-32 152-58m-230 15c10-15 0-20-32-15C500 79 417 34 333 13c-10 5-10 10 0 16 112 60 188 119 227 179l55-43Z"/></symbol><symbol id="穀_J" viewBox="0 0 1000 1000" data-size="22"><path transform="matrix(1 0 0 -1 33 954)" d="m288 517 35 35 47-31c15-13 15-22 0-28H124v24h164m379-305C576 129 466 72 339 40c-13 0-16 6-8 16 127 44 232 108 312 191-36 58-64 124-82 200h-90v23h313l23 31 63-47c15-7 6-15-28-23-44-78-92-142-144-191 49-52 128-105 234-157-31-10-50-27-58-50-73 44-142 104-207 179m-90 649 58-32h82l28 36 62-43c21-16 12-26-27-32V618c0-10 5-15 16-15h35c23 0 37 9 43 27l23 86c5 5 9 5 12 0v-86c0-13 5-22 15-27 19-8 19-20 0-35-7-8-31-12-70-12h-78c-31 0-47 16-47 47v203H628v-74c0-78-32-153-94-223-11-8-16-5-16 8 39 60 59 129 59 207v137M280 259c94-26 141-57 141-94 0-15-8-23-24-23-10 0-21 10-31 31-21 26-50 48-86 67V33c-34-32-51-33-51-4v211C167 164 96 104 18 60c-15-3-18 3-8 16 84 62 154 135 211 218H34v24h195v82c-52-11-96-17-133-20-15 3-15 8 0 16 84 18 158 44 223 78l47-27c13-8 8-13-16-16-26-8-49-14-70-20v-93h105l51 50 63-46c15-13 15-23 0-28H280v-35M53 533c32 20 50 56 55 105 5 10 10 10 16 0v-31h289l35 27 55-47c20-15 11-26-28-31l-74-74c-16-11-19-7-12 11l39 90H124c-8-73-29-109-63-109-18 0-27 9-27 27 0 13 6 24 19 32m20 132v24h156v78H30v23h199v125l67-11c20-13 15-22-16-28v-86h125l43 43 55-39c15-13 15-22 0-27H280v-78h90l39 39 55-43c7-11 5-17-8-20H73m508-218c23-73 52-132 86-176 44 44 86 103 125 176H581Z"/></symbol><symbol id="突_J" viewBox="0 0 1000 1000" data-size="22"><path transform="matrix(1 0 0 -1 55 955)" d="M569 488c70-15 109-40 117-74 3-21-4-32-19-35-16-3-30 12-43 43-16 26-35 44-59 55-13 7-12 11 4 11m-74 24c15-13 5-22-31-28l-20-113h305l58 59 75-55c15-13 15-22 0-27H483c81-141 215-228 402-262-33-8-58-29-74-63-172 76-288 184-347 325h-24C404 181 263 65 18 0 3 0 0 5 10 16c211 75 336 186 375 332H22v23h367l24 168 82-27m-8 386c21-13 16-22-16-27v-86h286l35 35 86-70c26-23 17-33-28-27-21-3-45-12-74-28l-47-39c-10-8-15-5-15 8l50 98H577V574c0-10 5-15 15-15h168c13 0 23 10 28 31l19 82c6 5 9 5 12 0v-90c0-10 7-19 20-27s13-17 0-28c-13-10-29-15-47-15H573c-31 0-47 15-47 47v203H362C341 572 237 457 49 418c-13 0-15 5-7 16 161 54 250 164 265 328H135c-2-55-13-94-31-117-13-16-27-24-43-24-15 0-23 9-23 27 0 16 8 30 23 43 31 34 47 80 47 137 8 16 16 16 24 0 2-15 3-30 3-43h286v125l66-12Z"/></symbol><symbol id="節_J" viewBox="0 0 1000 1000" data-size="22"><path transform="matrix(1 0 0 -1 46 963)" d="M186 794h184l43 43 54-39c16-13 16-22 0-27H260c50-34 75-67 75-98 0-23-11-35-32-35-15 0-24 10-27 31-3 34-14 68-35 102h-70c-47-65-99-120-157-164-10-3-14 1-11 11 83 89 148 192 195 309l70-35c34-24 22-33-35-27l-47-71M171 48c-34-31-51-32-51-4v551l58-43h36l39 98 46-24c27-13 21-22-15-27l-47-47h148l24 31 55-39c18-13 13-22-16-27V329c-34-31-51-32-51-3v15H171v-90h203l43 43 54-39c16-13 16-22 0-27H171v-74h218l43 43 55-39c16-13 16-23 0-28H171V48m539 621c0-23-9-35-28-35-15 0-24 9-27 27-3 42-17 79-43 110h-66c-42-55-84-99-125-133-16-8-20-4-12 12 65 70 121 165 168 285l58-31c29-16 23-26-19-32l-55-78h223l51 51 62-47c16-13 16-22 0-27H632c52-37 78-70 78-102m172-90c15-13 10-22-16-27V197c0-29-9-51-27-67-11-10-24-15-40-15-10 0-15 5-15 15 0 13-8 22-24 28l-50 11c-11 5-11 11 0 16h78c18 0 27 9 27 27v352H620V33c-34-32-51-33-51-4v593l59-35h175l24 31 55-39M171 365h226v74H171v-74m0 164v-67h226v67H171Z"/></symbol><symbol id="練_J" viewBox="0 0 1000 1000" data-size="22"><path transform="matrix(1 0 0 -1 35 956)" d="M560 462c0-23-7-36-20-39-13-2-22 9-27 35-8 34-22 62-43 82-10 13-8 17 8 12 49-23 77-53 82-90m164 125 43-27c23-16 18-24-16-24l-74-113c-13-13-17-10-12 8l59 156M861 72c-91 70-167 157-227 261V33c-34-32-51-33-51-4v297C495 211 387 120 259 52c-18-5-21 0-8 16 131 86 233 186 309 300H431v-35c-34-31-51-32-51-4v325l59-28h144v102H361v23h222v153l71-12c28-10 22-21-20-31V751h168l51 51 62-47c16-13 16-22 0-27H634V626h156l24 32 54-40c16-13 11-22-15-27V345c-34-31-51-32-51-4v27H634c68-111 167-196 297-253-29-8-52-23-70-43M33 743c-19 16-16 21 7 16 21-8 39-18 55-31l78 191 59-39c18-21 10-27-24-19L107 720c26-23 39-46 39-66 0-19-7-28-20-28s-24 13-35 39c-8 21-27 47-58 78m89-386c19-13 11-22-23-28-13-88-39-171-78-250C5 61 0 64 5 87c31 89 48 184 51 285l66-15m188-121c-16 52-34 92-55 121-10 13-8 17 8 11 31-20 56-46 74-78 16-26 24-48 24-66s-7-27-20-27-23 13-31 39m35 199c0-24-8-35-23-35-13 0-21 9-24 27-2 13-5 26-8 39l-82-15V33c-34-32-50-33-50-4v414L56 427c-5-36-16-43-31-19L1 470l102 4 156 309 59-40c15-13 5-20-32-23L122 474l164 8c-7 26-20 49-39 70-13 13-10 17 8 12 24-13 44-33 63-59 18-26 27-49 27-70m238-43v211H431V392h152m219 0v211H634V392h168Z"/></symbol><symbol id="縉_J" viewBox="0 0 1000 1000" data-size="22"><path transform="matrix(1 0 0 -1 39 940)" d="M348 439c5-29-2-46-20-51-18-3-29 5-31 23-3 21-7 40-12 55l-82-15V33c-34-32-51-33-51-4v418l-93-12c-11-37-23-40-36-12L0 478l125 4 141 281 66-35c18-16 8-25-31-27L148 482l129 4c-7 21-18 40-31 58-8 11-5 15 8 12 55-34 86-73 94-117m-106-86c47-42 72-86 74-133-2-31-13-48-31-51-13-2-21 13-23 47 0 39-11 82-32 129-5 10-1 13 12 8m-133-8c29-8 25-19-11-35-13-99-41-181-82-246-8-8-12-5-12 8 31 101 44 198 39 289l66-16m-4 344c21-18 34-38 40-59 5-23 1-38-12-43-18-10-33-2-43 24-18 52-44 91-78 117-11 8-9 12 4 12 26-8 50-21 74-39l70 187 63-27c26-16 17-25-28-28l-90-144m258 39c-13 10-10 14 8 12 70-55 106-114 106-176 0-21-8-31-24-31-13 0-22 10-27 31-16 75-37 130-63 164m371-500H465V103h269v125m0-149H465V36c-34-31-51-32-51-3v390l59-31h254l23 27 51-35c15-13 10-22-16-27V48c-34-31-51-32-51-4v35m0 172v117H465V251h269m67 500 54-27c24-13 17-22-19-27L734 533c-10-6-14-3-11 7l78 211M563 493h74v301h-74V493m125 0h109l51 51 62-47c16-13 16-22 0-27H344v23h168v301H355v24h403l51 50 62-46c16-13 16-23 0-28H688V493Z"/></symbol><symbol id="繁_J" viewBox="0 0 1000 1000" data-size="22"><path transform="matrix(1 0 0 -1 35 952)" d="M285 673c8-8 12-15 12-23 0-11-5-16-16-16-10 0-18 8-23 24-11 13-22 23-35 31-11 5-9 8 4 8 23-3 43-11 58-24m-70-82c23-2 43-10 58-23 8-8 12-16 12-24 0-10-5-15-15-15-11 0-19 7-24 23-10 13-22 24-35 31-10 6-9 8 4 8m297-74c8-10 5-17-8-20H387c0-5-2-15-4-31-5-34-18-56-39-66-26-13-39-12-39 4 0 13-8 22-24 27l-35 8c-8 5-8 9 0 12h59c21 0 32 9 35 27l4 19H121l-8-35c-28-21-44-21-47 0l32 141H0v23h102l23 125 43-23h187l28 19 47-39c10-13 1-20-28-23l-4-59h47l32 32 46-36c8-10 6-17-7-19H398c-2-34-5-61-7-82h43l31 31 47-35m269 234c-21-78-49-139-86-183 65-47 144-80 235-98-34-16-58-32-71-51-62 26-125 67-187 121-44-44-104-83-180-117 13-18 0-21-39-8l-105-78c23-13 35-28 35-47 0-13-7-19-20-19-8 0-17 6-27 19-39 34-79 60-121 78-13 8-12 12 4 12 49-8 88-19 117-35l105 117 39-23c73 39 128 81 165 125-45 49-80 107-106 172-16-21-35-43-59-67-13-5-16-1-11 12 47 60 82 135 105 227l51-16c29-13 26-22-8-27l-51-90h235l43 43 54-39c16-13 16-22 0-28H781M664 591c26 42 48 95 66 160H555c31-67 67-121 109-160m4-254c141-36 211-75 211-117 0-16-8-23-24-23-7 0-15 4-23 11-13 11-31 25-55 43l-277-19V33c-34-32-51-33-51-4v199l-293-16c-10-39-24-41-43-8l-35 55h363l188 168 43-23c21-19 12-26-27-24L461 255l301 12c-37 23-71 43-102 59-10 7-8 11 8 11M20 693c49 60 89 133 121 218l54-23c26-13 21-22-15-27l-39-55h257l43 43 55-39c16-13 16-22 0-27H129c-34-42-66-76-98-102-10-3-14 1-11 12M793 64c-68 49-137 83-207 101-13 8-12 13 4 16 172-26 258-60 258-102 0-18-8-27-24-27-13 0-23 4-31 12M70 36c97 40 179 89 246 149l43-27c37-21 28-32-27-32C241 77 155 42 74 21c-15 0-17 5-4 15m55 485h223c2 21 5 48 7 82H145l-20-82m23 105h207l4 78H164l-16-78Z"/></symbol><symbol id="署_J" viewBox="0 0 1000 1000" data-size="22"><path transform="matrix(1 0 0 -1 45 954)" d="M559 443c73-26 108-50 105-71-3-15-6-24-12-27-10-5-20 0-31 16-23 36-47 60-70 70-11 10-8 14 8 12m179 175c-78-65-135-110-172-136h223l51 51 62-47c16-13 16-22 0-28H539c-49-36-116-76-199-121h332l23 28 51-36c18-13 13-22-16-27V44c-33-31-50-32-50-4v20H324V33c-34-32-51-33-51-4v265c-78-36-162-66-253-90-19 0-20 6-4 16 127 42 278 121 453 238H8v24h359v94H121v23h246v98l67-12c20-8 15-18-16-31v-55h98l47 47 70-55c28 26 56 54 82 82l55-35c18-16 7-22-32-20M418 482h82c23 15 64 47 121 94H418v-94m-94-168V212h356v102H324m0-125V83h356v106H324m395 695 23 27 51-35c18-13 13-22-16-27V704c-34-31-50-32-50-3v15H148v-35c-33-31-50-33-50-4v238l58-31h563m-156-23V740h164v121H563m-200 0V740h149v121H363m-215 0V740h165v121H148Z"/></symbol><symbol id="者_J" viewBox="0 0 1000 1000" data-size="22"><path transform="matrix(1 0 0 -1 29 952)" d="M634 482c3-16-1-28-12-35h36l23 31 55-39c15-13 10-22-16-28V60c-34-31-51-33-51-4v27H337V33c-34-32-51-33-51-4v355c-85-52-174-94-265-125-18 0-21 7-8 20 125 57 216 108 273 152v59l43-32c53 34 105 75 157 121H52v24h352v137H118v23h286v148l66-11c21-13 16-22-16-28V763h71l51 51 74-59c36 44 67 86 93 125l71-54c28-21 12-28-51-20-65-83-126-151-184-203h223l59 58 74-54c16-13 16-22 0-28H560l-24-19c58-18 90-44 98-78m-31-35c-5 0-11 7-16 23-13 34-34 60-62 78-47-39-93-73-137-101h215m-94 156c44 42 87 87 129 137H454V603h55M337 283h332v140H337V283m0-176h332v152H337V107Z"/></symbol><symbol id="臭_J" viewBox="0 0 1000 1000" data-size="22"><path transform="matrix(1 0 0 -1 61 957)" d="M547 422c70-18 105-42 105-70 0-19-7-28-23-28-11 0-18 5-24 16-13 26-33 48-62 66-8 5-7 11 4 16m109 8H457c-5-39-12-77-19-114h316l51 51 62-47c16-13 16-22 0-27H477c86-115 217-193 394-234-23-13-40-32-51-55-153 47-276 143-367 289h-19C402 155 272 57 43 0c-16 0-17 5-4 16 190 62 303 155 340 277H0v23h387c8 39 13 77 15 114H227v-39c-34-32-51-33-51-4v461l58-39h133l16 105 70-19c24-11 16-21-23-32l-35-54h250l23 31 55-39c15-13 10-22-16-28V406c-34-31-51-32-51-4v28m-429 23h429v102H227V453m429 125v90H227v-90h429M227 691h429v94H227v-94Z"/></symbol><symbol id="艹_J" viewBox="0 0 1000 1000" data-size="22"><path transform="matrix(1 0 0 -1 49 668)" d="M262 169H0v24h262v152l66-12c21-13 16-22-15-27V33c-34-32-51-33-51-4v140m340 0V44c-34-31-51-32-51-4v305l66-12c21-13 16-22-15-27V193h175l51 50 63-46c15-13 15-23 0-28H602Z"/></symbol><symbol id="艹_J" viewBox="0 0 1000 1000" data-size="22"><path transform="matrix(1 0 0 -1 49 668)" d="M633 169V44c-34-31-51-32-51-4v129h-94v24h94v152l66-12c21-13 16-22-15-27V193h144l51 50 63-46c15-13 15-23 0-28H633m-336 0V33c-34-32-51-33-51-4v140H0v24h246v152l67-12c20-13 15-22-16-27V193h23l51 50 63-46c15-13 15-23 0-28H297Z"/></symbol><symbol id="著_J" viewBox="0 0 1000 1000" data-size="22"><path transform="matrix(1 0 0 -1 47 956)" d="M635 357c-7 0-15 5-23 15-16 24-35 41-59 51-7 8-6 13 4 16 68-13 102-31 102-55 0-18-8-27-24-27m-312 11c42 27 81 53 117 79H14v23h356v117H104v24h266v129l70-12c29-11 22-21-19-31v-86h50l51 50 63-46c15-13 15-23 0-28H421V470h54c86 65 163 134 231 207l58-47c16-15 0-21-47-15-54-47-114-95-179-145h222l59 59 74-55c16-13 16-22 0-27H507c-37-29-88-62-153-98h309l27 35 63-43c20-15 11-26-28-31V48c-34-31-51-32-51-4v35H335V33c-34-32-51-33-51-4v277c-96-49-186-85-270-105-13 2-14 7-4 15 102 39 193 83 274 133v35l39-16m351-140v98H335v-98h339M335 103h339v101H335V103m214 680H311V677c-34-31-51-32-51-4v110H14v23h246v109l71-11c28-11 22-21-20-32v-66h238v113l71-11c28-11 22-21-20-32v-70h164l59 59 74-55c16-13 16-22 0-27H600v-86c-34-32-51-33-51-4v90Z"/></symbol><symbol id="褐_J" viewBox="0 0 1000 1000" data-size="22"><path transform="matrix(1 0 0 -1 38 946)" d="M719 290c18-10 32-23 43-39 5-15 1-28-12-39-16 0-30 11-43 31-26 32-52 54-78 67-29-47-64-85-106-113-10-6-14-2-11 11 54 58 97 132 129 223l54-20c32-13 26-22-15-27-8-10-21-30-39-58 31-8 57-20 78-36M8 396c107 104 191 206 254 305H20v23h144v176l66-12c21-13 16-22-15-27V724h47l19 23 55-31c23-13 17-22-20-27-18-29-52-72-101-129v-70l39-12c34 55 56 95 66 121l47-23c18-13 11-21-23-24l-78-78c62-23 95-47 97-70 3-24-5-36-23-36-8 0-18 11-31 32-16 26-47 51-94 74V33c-34-32-51-33-51-4v476C102 445 52 404 16 380c-13-5-16 0-8 16m281-121c99 88 182 186 250 293h-66v-28c-34-31-51-32-51-4v344l58-35h258l24 31 54-39c16-13 11-22-15-27V544c-34-31-51-32-51-4v28H555l39-20c18-8 10-15-24-23-10-13-24-30-43-51h313l23 31 55-39c16-13 10-22-16-27v-74c0-110-7-191-23-243-13-36-31-62-55-78-26-18-48-26-66-23-11 2-16 10-16 23s-5 21-15 24l-55 11c-11 6-11 10 0 12h82c26 0 44 5 55 16 28 18 43 94 43 226v118H512c-21-27-38-45-51-55l27-8c3-10-4-17-19-20V165h226l32 36 46-32c16-10 16-19 0-27H469v-31c-34-37-51-38-51-4v246c-29-31-66-63-113-94-16-2-21 3-16 16m461 547H473V716h277v106m0-129H473V591h277v102Z"/></symbol><symbol id="視_J" viewBox="0 0 1000 1000" data-size="22"><path transform="matrix(1 0 0 -1 42 939)" d="M17 107C4 94 0 96 5 115c37 75 55 170 55 285v164l58-12c27-5 24-16-7-31V415c0-127-32-230-94-308m344 105c-34-31-51-32-51-4v356l58-12c27-5 24-16-7-31V212M236 33c-34-32-51-33-51-4v597H1v24h278l54 54 71-50c15-13 15-22 0-28H236V33M52 786v24h203l47 47 63-43c18-13 18-22 0-28H52m582-433h-51C557 178 449 61 259 1c-16 0-18 6-8 16 164 70 258 182 282 336h-51v-43c-34-31-51-33-51-4v570l59-31h250l27 35 62-43c21-15 12-26-27-31V329c-34-31-51-32-51-3v27h-66V130c0-10 5-15 16-15h109c26 0 40 9 43 27l23 121c6 5 9 5 12 0V142c0-13 5-22 16-27 18-8 18-20 0-36-8-7-32-11-71-11H681c-31 0-47 15-47 47v238M482 540h269v118H482V540m269-23H482V376h269v141M482 822V681h269v141H482Z"/></symbol><symbol id="謁_J" viewBox="0 0 1000 1000" data-size="22"><path transform="matrix(1 0 0 -1 41 944)" d="M516 189c52 54 87 126 105 215l59-20c18-8 14-16-12-23-13-24-26-46-39-67 60-15 96-36 109-62 8-21 3-35-15-43-16-3-28 5-35 23-16 31-38 54-67 67-34-47-66-80-98-98-13-5-15-3-7 8m-8 219c-16-19-31-36-47-51l51-16c21-13 15-22-16-27V150h207l31 31 55-31c13-11 12-18-4-24H496V68c-34-32-51-33-51-4v273c-49-44-96-77-140-97-13-3-16 0-8 7 104 84 181 176 230 278h-47v-20c-33-31-50-32-50-4v371l58-27h227l23 31 55-39c16-13 10-22-16-27V513c-34-31-50-33-50-4v16H547l35-20c18-10 13-18-16-23-13-18-26-35-39-51h305l23 31 55-39c16-13 11-22-15-27v-98c0-109-15-185-43-226-24-34-51-56-82-67-16-5-24 2-24 20 0 15-9 24-27 27l-63 12c-10 8-9 13 4 15l43-3c29-3 48-4 59-4 15 0 31 11 47 35 23 36 35 105 35 207v94H508M0 712v24h258l43 43 54-39c16-13 16-23 0-28H0m47 137h160l43 43 55-39c15-13 15-22 0-27H47v23m-4-352h176l43 43 54-39c16-13 16-22 0-27H43v23m-4 114h180l43 43 54-39c16-13 16-23 0-28H39v24M94 44c-34-31-51-32-51-4v364l55-32h117l23 32 55-39c16-13 10-23-16-28V83c-34-31-50-32-50-4v36H94V44m386 778V697h247v125H480M94 349V138h133v211H94m386 324V548h247v125H480Z"/></symbol><symbol id="謹_J" viewBox="0 0 1000 1000" data-size="22"><path transform="matrix(1 0 0 -1 29 940)" d="M695 665v71H516v-71h179m67 211c21-8 15-17-16-27v-90h43l59 59 74-55c16-13 16-22 0-27H746V626c-34-31-51-32-51-4v20h-66v-82h148l24 31 54-35c16-13 11-22-15-27V400c-34-29-51-30-51-4v12H629v-86h164l51 46 62-42c16-13 16-23 0-28H629v-90h121l51 47 62-43c16-13 16-22 0-27H629V76h168l58 54 75-51c15-13 15-22 0-27H328v24h250v109H383v23h195v90H355v24h223v86H434v-28c-34-28-51-30-51-4v203l58-19h137v82h-62v-31c-34-32-51-33-51-4v129H344v23h121v129l66-12c21-8 16-17-15-27v-90h179v129l67-12M223 314H113V111h110v203m74 156c16-13 16-22 0-27H43v23h156l43 43 55-39M0 685v23h227l43 43 54-39c16-13 16-22 0-27H0m789-149H629V431h160v105M289 329c16-13 10-22-16-27V64c-33-31-50-33-50-4v27H113V33C79 1 63 0 63 29v339l50-31h98l23 31 55-39m8 258c16-13 16-22 0-27H43v23h156l43 43 55-39M55 786v24h125l43 43 54-39c16-13 16-22 0-28H55m379-355h144v105H434V431Z"/></symbol><symbol id="賓_J" viewBox="0 0 1000 1000" data-size="22"><path transform="matrix(1 0 0 -1 49 959)" d="M714 715c7-11 5-17-8-20H479V582c70 31 125 63 164 94l55-39c10-16-4-21-43-16-83-47-180-86-289-117h316l24 27 51-35c15-13 10-22-16-27V160c-34-31-51-32-51-4v24H288v-32c-34-31-51-32-51-3v312c-78-29-150-48-215-59-21 0-22 6-4 16 73 18 146 43 219 74v43l55-19c34 8 79 24 136 51v132H182v24h438l39 39 55-43M565 152c104-20 177-43 219-66 36-18 55-38 55-59 0-18-7-27-20-27-10 0-21 4-31 12-60 49-136 92-227 129-10 5-9 9 4 11m-148-35c15-15 0-21-47-15-97-45-188-75-274-90-18 0-19 5-4 15 105 32 194 75 270 129l55-39M288 402h402v78H288v-78m23 231c8-13-4-17-35-12-65-57-134-104-207-141-18-5-21 0-8 16 97 68 160 126 192 176l58-39m-23-328h402v74H288v-74m0-102h402v78H288v-78m207 703c21-13 15-22-16-27v-66h313l31 31 74-55c21-18 12-26-27-23-18-3-34-11-47-24l-55-54c-15-8-21-6-15 7l46 94H139c0-39-9-73-27-101-10-19-27-28-51-28-15 0-23 8-23 24 0 7 9 19 27 35 34 28 51 71 51 129 2 10 6 10 12 0 2-11 5-22 7-35h293v105l67-12Z"/></symbol></svg>