<svg xmlns="http://www.w3.org/2000/svg"><symbol id="並_P" viewBox="0 0 1000 1000" data-size="22"><path transform="matrix(1 0 0 -1 58 930)" d="M552 597V224h164v249l82-43-28-32 4-217-58-36v59H552V31h188l62 66 82-85H113L31 0 0 31h304v204c-114-45-177-80-187-105l-39 62c12 11 19 28 19 51v140c0 2-1 5-2 9-2 3-2 6-2 8v69l90-39-31-28V208c68 23 119 39 152 47v342H134c-29 0-55-4-78-12l-31 31h281c-5 32-21 70-48 115-24 39-49 72-77 100l8 16c39-20 74-44 106-72 45-38 67-72 67-100 0-18-7-38-21-59h180c75 129 113 210 113 243l86-59c-33-15-66-42-99-81-11-12-36-47-77-103h152l59 55 74-74H552m-55 0H359V31h138v566Z"/></symbol><symbol id="侀_P" viewBox="0 0 1000 1000" data-size="22"><path transform="matrix(1 0 0 -1 57 960)" d="M660 128c38-4 58-6 59-6 28-1 47-1 58-1 21-1 32 28 32 85v695l78-39-32-31V147c0-64-27-102-82-116-13 38-51 65-113 78v19m91 179-47-31v441l86-39-39-35V307M187 42l-54-31c1 258 2 452 4 581-57-92-99-152-125-179l-12 7c42 60 82 140 120 240 36 94 61 181 75 260l86-39-35-23c-28-75-54-142-78-203l47-24-31-27 3-562m308 442-34 34h67v288h-10l-29-12-37 37h115l43 43 67-67H575V518h4l47 51 62-70H575l1-457-48-31v488h-5l-28-15M334 803c-22-10-46-16-72-19l-3 11c79 28 132 63 158 106l41-59c-19-5-45-16-77-31V518h14l32 31 39-50h-85c0-111-12-202-36-273-29-86-80-161-152-226l-12 11c59 63 100 139 124 228 19 70 29 157 29 260-29 0-55-4-78-12l-32 31h110v285Z"/></symbol><symbol id="充_P" viewBox="0 0 1000 1000" data-size="22"><path transform="matrix(1 0 0 -1 55 959)" d="M428 761h314l55 55 74-75-446-1c-47-89-124-168-230-237h484c-18 21-40 44-68 68-10 9-36 29-76 61l8 16c149-78 228-132 238-164 2-9 4-18 4-28 0-37-13-55-38-55-8 0-18 12-31 36-10 17-18 32-25 47l-137-8V128c0-14 5-25 15-33 10-9 22-13 36-13h149c29 0 46 14 50 43 8 57 12 111 12 160h20c8-66 13-116 15-149 12-19 25-36 39-50-22-36-60-54-113-54H590c-60 0-90 27-90 82v358l-137-8c-16-136-45-235-88-295C227 101 141 45 19 0l-7 16c82 41 142 83 180 124 42 46 74 110 96 193 10 40 16 82 16 127-82-7-134-16-156-27l-35 74c39 4 87 35 146 93 51 50 88 97 112 142H66l-35-12-31 31h382l37 158 88-57-45-27-34-74Z"/></symbol><symbol id="全_P" viewBox="0 0 1000 1000" data-size="22"><path transform="matrix(1 0 0 -1 45 940)" d="m492 827-35-20c125-179 276-278 453-297v-15c-38-4-63-24-74-59-175 66-306 185-395 356C346 612 201 484 8 409l-8 15c188 95 324 247 410 457l82-54M777 31l55 58 70-78H113C84 11 58 7 35 0L4 31h406v214l-67 2c-65 2-113-2-144-13l-31 31h242v198l-67 2c-66 2-115-3-147-13l-31 31h441l47 47 58-67H465V265h140l51 55 62-75H465V31h312Z"/></symbol><symbol id="冀_P" viewBox="0 0 1000 1000" data-size="22"><path transform="matrix(1 0 0 -1 47 955)" d="M340 656c3 8 4 31 4 70-86-19-133-29-141-30-67-15-115-34-144-56l-36 63c76 11 183 26 321 43v58H160c-28 0-55-4-78-12l-31 32h293c-2 11-4 40-4 86l82-39-27-28V738c0-5 1-15 2-28s2-24 1-31l-58-23m555 66c-17-31-44-47-83-47H590c-42 0-64 25-64 76v26c1 23 1 32 1 27 0 3 0 8-2 14-1 7-2 11-2 14v78l86-36-31-23v-47c105 35 171 66 199 94l47-59c-19 0-42-4-67-11-22-7-44-13-66-20-26-8-64-16-113-23-1-47 12-71 39-71h188c6 0 12 2 18 7s9 11 9 17c8 20 12 46 12 78h15c3-25 6-43 7-55 3-22 13-35 29-39M246 519h188v78H246v-78m238 0h196v78H484v-78M246 414h188v85H246v-85m238 0h196v85H484v-85M59 12c154 78 242 134 265 167H109c-28 0-54-4-78-12L0 199h289v97c-30 2-57 3-80 3-51 0-84-5-100-14l-31 31h211v78h-43v-27l-55-20c2 39 2 84 2 134 0 51 0 106-2 167l55-31h426l31 35 55-51-28-23V456c0-6 1-15 2-27 1-11 2-20 2-26v-25l-54-27v43h-47v-78h109l43 43 63-63H633v-97h160l47 47 66-67H336l55-57c-17-2-30-3-39-4-47-23-72-34-74-35C183 40 111 12 62 0l-3 12m507 148c159-33 244-59 254-78 9-17 13-32 13-45 0-14-6-21-19-21-11 0-28 10-52 31-39 35-105 67-200 97l4 16M437 341l25-45H339v-97h243v97h-55l-24-10-31 31h110v77H339v-78l68 1 30 24Z"/></symbol><symbol id="况_P" viewBox="0 0 1000 1000" data-size="22"><path transform="matrix(1 0 0 -1 45 926)" d="M466 507h273v281H466V507m-53-58c0 37 0 72 1 103 1 63 2 98 2 104 0 34 0 66-1 96-1 60-2 92-2 95l57-39h259l41 43 53-55-34-23c0-126 1-230 4-313l-54-15v44h-56V124c0-9 4-17 12-24s17-10 26-10h86c21 11 33 27 35 50 4 43 6 80 6 113h20l4-84c2-30 15-54 38-71-19-22-31-35-37-40-13-10-30-15-50-15H706c-50 0-75 19-75 58v387h-69c0-63-2-112-7-146-14-108-66-195-155-262-35-26-83-53-146-80l-5 12c139 84 219 177 242 280 11 48 16 114 16 196h-41v-24l-53-15M255 684l55 55 74-74H147c-29 0-55-4-78-12l-32 31h218m159-333 4-16C183 265 58 219 43 198L0 269l414 82Z"/></symbol><symbol id="勇_P" viewBox="0 0 1000 1000" data-size="22"><path transform="matrix(1 0 0 -1 102 949)" d="M465 355c-19-12-32-33-39-63h277l32 36 62-55-31-16c-15-77-30-129-43-157-26-55-65-89-117-100-11 47-43 76-98 90l4 16c59-8 98-12 117-12 21 0 36 15 47 46 14 41 25 85 31 133H422c-30-62-59-106-86-133C271 75 159 31 0 8v16c103 29 175 56 217 79 72 41 122 97 151 170H121c-28 0-54-4-78-12l-31 31h359c11 52 17 85 16 98l78-35m235-8v106H457v-51l-50-16v67H184V347l-55-19c1 51 2 109 2 174s-1 137-2 216l55-31h230c-11 41-40 74-89 98l3 15c59-12 101-28 125-47 65 35 117 65 157 90H184c-29 0-55-4-78-12l-31 32h546l47 35 67-74c-62-11-96-18-102-20-70-25-127-47-172-66 3-23 0-40-8-51h243l23 31 55-43-24-19c1-114 2-209 4-285l-54-24M184 472h223v86H184v-86m273 0h243v86H457v-86M184 578h223v89H184v-89m273 0h243v89H457v-89Z"/></symbol><symbol id="勺_P" viewBox="0 0 1000 1000" data-size="22"><path transform="matrix(1 0 0 -1 75 955)" d="M0 410c59 80 109 165 152 254 51 109 83 191 94 246l98-47c-26-13-48-34-64-64-19-36-33-63-42-81h520l31 39 62-54-35-28c-1-32 0-88 2-168 1-74 1-132 1-173-2-63-7-119-14-167C790 73 744 17 668 0c-9 43-60 75-152 98v16c47-13 92-19 134-19 32 0 56 5 69 15 14 11 24 36 31 75 4 21 7 49 9 85l3 107c2 84 4 191 4 322H230C163 585 90 485 12 398L0 410m285 140c63-45 100-71 110-79 49-40 74-75 74-104 0-11-4-24-11-40-8-18-17-27-25-27-9 0-18 13-27 39-19 54-62 121-129 200l8 11Z"/></symbol><symbol id="啕_P" viewBox="0 0 1000 1000" data-size="22"><path transform="matrix(1 0 0 -1 64 958)" d="M235 433c0-15 1-30 4-46v-67l-55-24v71H55V222L0 203c0 31 1 81 2 148 1 79 2 128 2 148L0 808l59-35h117l27 35 59-43-27-23V433M55 386h129v367H55V386m539-280c30-5 69-7 117-8 30 0 50 18 59 53 5 18 8 48 8 89l4 142c2 64 3 184 3 360H414c-43-65-87-122-133-172l-15 8c27 35 59 90 94 164 37 77 59 135 66 175l94-50c-33-17-64-52-94-106h352l35 35 58-54-31-20-4-334c-1-53-2-97-3-134-3-70-10-120-22-149-17-43-52-78-104-105-12 51-50 80-113 86v20m-59 234V218h130l42 47 56-66H391l-24-32-54 43 31 20c-1 75-3 132-4 172l82-39-31-24V218h98v215c-29 2-56 3-79 3-53 0-90-5-109-15l-31 32h219v128h-71c-26-30-56-62-90-97l-11 8c64 86 104 163 121 230l82-47c-29-9-57-33-86-74h164l43 39 62-59H535V453h133l43 39 59-59H535v-75h117l43 39 59-57H535Z"/></symbol><symbol id="喙_P" viewBox="0 0 1000 1000" data-size="22"><path transform="matrix(1 0 0 -1 70 945)" d="m223 296-55-15v86H55V238L0 214v582l55-31h109l28 31 54-43-27-27 4-430M55 386h113v360H55V386m667 339 50 47 59-66H680l1-109h62l50 47 62-66H543l-45-67c38-35 70-75 94-121 68 37 124 80 168 129l54-66c-26-4-53-12-81-23-28-13-54-25-76-36 27-75 50-128 69-158 34-54 79-88 133-104v-10c-40-5-63-18-71-40-43 47-76 95-99 143-18 38-35 91-52 161l-33-15c16-50 23-91 21-123-7-147-51-230-132-248 4 29-25 55-86 79l4 15c30-10 62-16 95-19 28-2 49 23 61 75 8 32 12 69 12 111-62-69-172-129-328-179l-8 16c77 35 136 66 178 93 58 38 107 84 146 137-13 31-23 54-29 70-67-67-152-119-254-156l-4 15c111 66 189 127 233 184-6 16-18 33-36 51-48-41-102-77-160-106l-13 12c82 51 139 111 173 180l-61 2c-59 2-102-3-127-14l-34 31h372v109H418c-29 0-53-4-73-11l-33 31h315v105l-68 2c-71 2-120-2-148-13l-32 31h231l42 39 61-59-32-15-1-89 42-2Z"/></symbol><symbol id="喝_P" viewBox="0 0 1000 1000" data-size="22"><path transform="matrix(1 0 0 -1 60 952)" d="M235 436c0-15 1-30 4-46v-67l-55-24v71H55V225L0 206c0 31 1 81 2 148 1 79 2 128 2 148L0 811l59-35h117l27 35 59-43-27-23V436M55 389h129v367H55V389m728 314c1-71 2-116 2-134l-58-20v43H405v-31l-59-19c4 27 6 67 6 119 0 30-1 74-3 131s-3 94-3 109l64-27h305l37 31 59-47-29-20 1-135m-378 42h322v109H405V745m0-133h322v113H405V612m448-188c-1-52-2-88-3-108-4-93-9-153-14-180C819 56 785 11 732 0c-10 47-53 70-130 70v15h108c31 0 52 12 65 35 10 18 15 44 16 79v83c1 72 2 126 3 162H405c-51-59-109-118-175-176l-13 12c107 114 171 206 193 277l87-47c-29-14-54-29-75-47h367l35 36 57-51-28-24M697 163c-23-33-52-50-87-50H405c-17 0-31 6-43 18s-18 26-17 43l1 12c-2 98-4 161-4 188l92-36-33-27v-47c93 40 152 75 175 106l55-67c-78-17-155-35-230-54 0-6 0-14-1-25s-1-19-1-24c0-18 4-29 12-36 8-6 21-9 40-9h130c19 0 30 3 36 10 5 6 9 20 10 40v67h17c6-73 23-109 53-109Z"/></symbol><symbol id="嗢_P" viewBox="0 0 1000 1000" data-size="22"><path transform="matrix(1 0 0 -1 52 935)" d="M395 686h305v129H395V686m0-171h305v152H395V515M336 31h98v312h-98V31m149 0h97v312h-97V31m148 0h102v312H633V31M395 835h301l23 31 59-43-28-23 4-340-54-27v62H395v-43l-55-23v441l55-35m-59-473h391l31 35 55-50-27-24V31h15l39 47 55-66H286c-29 0-55-4-79-12l-31 31h110l-4 366 54-35M0 827l55-27h145l27 31 59-47-32-19 4-461-54-28v71H55v-75L0 249v578m55-461h149v414H55V366Z"/></symbol><symbol id="塚_P" viewBox="0 0 1000 1000" data-size="22"><path transform="matrix(1 0 0 -1 43 951)" d="M793 808H383c0-34-3-59-9-75-10-25-29-38-58-38-12 0-18 5-18 16 0 7 5 17 14 31 26 38 42 82 47 132h16l4-46h410l31 35 63-67c-39-4-81-34-125-90l-16 8 51 94M316 359l8-16C167 251 75 189 47 156L4 218c38 11 82 30 133 55v320c-47 0-82-4-106-12L0 613h137v183c0 23-3 58-8 106l86-43-28-28V613h51l43 47 51-67H187V296l129 63m-74-121c60 32 118 70 173 113 64 49 112 98 144 145-15 17-29 34-43 50-69-46-141-81-215-105l-4 15c121 59 204 123 250 192-77 0-106 0-85 1-33-1-60-5-83-13l-31 31h386l47 47 59-66H629l-98-86c45-39 79-76 102-113 80 43 133 82 160 117l51-67c-37 0-85-14-145-43 26-65 53-116 82-152 35-45 79-81 133-109v-16c-36 0-61-11-74-31-75 73-127 173-156 301l-39-16c39-87 59-166 59-236 0-47-11-87-33-122-25-38-59-63-101-75-5 38-38 68-97 90v16c41-11 78-18 113-20 23-1 40 16 52 51 9 26 13 53 12 81-1 32-3 56-5 71-96-96-230-173-403-230l-4 16c72 29 143 67 213 113 81 53 140 106 178 159-13 40-28 75-43 106-88-99-201-175-340-231l-4 16Z"/></symbol><symbol id="墳_P" viewBox="0 0 1000 1000" data-size="22"><path transform="matrix(1 0 0 -1 49 957)" d="M621 793c3-7 4-31 4-74l-59-19c3 19 4 50 4 93-93 2-154-2-183-11l-32 31h215v101l75-31-24-23v-47h125l43 43 55-63H621M426 223h351v86H426v-86m-55-70c2 28 3 76 3 145s-1 157-3 265l55-31h344l27 35 58-47-27-20V270c0-3 1-7 2-13s2-10 2-13v-64l-55-23v46H426v-31l-55-19m55 277h351v82H426v-82m0-102h351v83H426v-83m86-209C435 65 366 26 305 1l-8 12c89 56 154 114 195 175l59-63-39-6m144 57c61-26 105-45 133-57 24-11 39-21 46-32s10-29 8-56c0-21-8-31-22-31-5 0-21 15-47 46-30 36-46 55-49 57-17 15-43 36-77 61l8 12M133 782c0 3 0 7-2 12-1 6-2 11-2 13v92l90-39-32-24V598h59l43 47 51-67H187V250l145 63 8-20C161 201 65 139 51 107L0 184c33 9 77 24 133 47v347c-44 0-78-4-102-11L0 598h133v184m347-204-55-19c3 27 4 50 4 70-34 2-64-2-89-11l-31 31h120c-2 11-4 42-4 94l67-28-16-23 1-45h44l37 23 34-43H477l3-49m212 70c-1 7-2 21-2 40 0 15 0 33 1 55l75-28-24-23v-43h59l47 43 54-63H742c3-8 4-26 4-54l-55-16c1 3 2 5 2 7v12c0 7-1 14-1 19v31c-30 0-54-4-71-11l-26 31h97Z"/></symbol><symbol id="奄_P" viewBox="0 0 1000 1000" data-size="22"><path transform="matrix(1 0 0 -1 45 947)" d="M250 346h180v122H250V346m230 0h180v122H480V346M250 206h180v121H250V206m230 0h180v121H480V206m172 281 24 35 70-47-31-23V264c0-8 0-20 2-35 1-14 2-26 2-34v-28l-59-24v43H480V97c0-19 3-33 9-41 7-9 19-13 38-13h274c13 6 21 12 25 18 9 15 14 66 14 153h19c2-30 4-60 5-91 5-37 21-60 46-69-25-36-57-54-98-54H484c-36 0-54 27-54 82v104H250v-62l-63-27c6 26 8 83 8 169v229c-36-26-99-55-187-86l-8 16c79 36 146 77 199 122 54 46 103 106 149 178H148c-28 0-54-3-78-11l-31 31h320c30 57 47 106 51 148l94-43c-20-6-46-41-78-105h316l59 58 70-78H519c123-130 251-195 383-195v-16c-43-12-66-28-70-50-62 20-124 54-186 104-58 48-107 100-146 157h-86c-71-104-140-178-207-222l43-16h402Z"/></symbol><symbol id="奔_P" viewBox="0 0 1000 1000" data-size="22"><path transform="matrix(1 0 0 -1 43 957)" d="M484 507c1-59 2-109 4-152l-62-16c3 19 4 75 4 168-133 0-165 0-95 1-49-1-78-5-89-12l-31 31h215c-1 56-2 107-4 152l86-39-28-23v-90h110l43 43 62-63H484m-19 336-39-66h320l51 51 70-71H535c51-67 106-116 165-147 57-30 129-49 214-56v-15c-49-12-78-29-86-51-155 68-260 158-316 269h-94C322 614 185 513 8 453l-8 15c179 88 296 184 352 289l-83 2c-89 2-150-2-183-13l-31 31h308c27 53 43 98 47 137l82-51-27-20m17-591H289c-8-45-18-78-29-99-19-35-53-67-102-97C115 29 71 10 27 0l-4 16c35 14 71 34 106 60 40 30 67 59 82 88 9 17 15 46 19 88-30 2-57 3-80 3-51 0-83-5-99-14l-31 31h210l-1 148 93-39-32-31-1-78h73l45 49 75-69m155 21v143l86-39-31-31v-74h89l47 47 67-67H692V24L638 0l-1 252c-17 2-32 3-45 3-32 0-56-5-71-15l-31 33h147Z"/></symbol><symbol id="婢_P" viewBox="0 0 1000 1000" data-size="22"><path transform="matrix(1 0 0 -1 41 954)" d="M187 649c-38-143-68-250-89-321 46-14 88-29 125-46 40 95 71 218 93 367H187m59 195c-17-29-35-88-55-176h125l32 32 50-47-27-24c-15-62-29-124-44-186-18-71-37-131-57-181 79-38 116-70 113-95-4-27-11-40-20-40-6 0-15 6-27 18-31 30-61 55-90 74C183 126 104 54 8 1L0 13c94 77 162 153 203 230-81 44-133 70-156 78 39 145 68 255 86 328-48 0-82-4-102-12L0 668h137c27 111 42 191 47 239l89-43-27-20m227-180h144l4 156H473V664m195 156c-3-14-4-31-5-51-1-15-1-33 0-54 1-25 1-41 1-51h133v156H668M473 491h117c15 43 23 94 23 153H473V491m187 153c0-52-7-103-23-153h160v153H660M629 0c0 26 1 65 2 117 1 51 2 90 2 116-159 0-197 1-114 2-42-1-79-5-111-14l-33 31 258 1c-1 67-3 125-4 172l90-47-35-20V253h105l55 54 74-74H684c0-37 0-70 1-101 1-61 2-95 2-101L629 0m148 840 35 39 67-51-35-23c1-143 3-261 4-353l-51-31v51H633c-44-101-120-174-227-219l-8 11c85 51 146 120 184 208H473v-35l-51-28c1 55 2 120 2 196 0 77-1 164-2 262l55-27h300Z"/></symbol><symbol id="嬨_P" viewBox="0 0 1000 1000" data-size="22"><path transform="matrix(1 0 0 -1 42 953)" d="M407 906c63-36 95-69 95-98 0-9-3-19-10-31s-14-18-21-18-12 8-17 24c-11 38-31 76-59 116l12 7m3-676c0-109-23-164-70-164-23 0-34 5-33 16 0 6 6 14 17 24 30 28 53 69 71 124h15m160 66c61-35 95-59 102-74 2-6 3-12 3-20 0-11-2-21-7-30-6-11-14-17-24-17-8 0-14 8-19 24-13 42-34 78-63 109l8 8m219-47 73-48c32-21 48-42 48-63 0-7-3-16-9-29-5-12-11-19-17-19-5 0-14 12-27 36-16 29-24 44-25 45l-51 67 8 11m23-178c-23-31-57-47-101-47H543c-49 0-74 19-74 58v97c0 5-1 13-2 23-2 10-2 18-2 23v59l82-46-27-24V110c0-31 18-47 54-47 72 0 111 0 117 1 29 4 48 20 55 49 3 11 4 38 4 82h16c4-51 6-81 7-89 1-9 5-16 13-23 9-7 17-11 26-12M82 316l117-39c32 88 59 212 82 371H164L82 316m125 523c-13-50-26-107-39-172h109l24 31 54-42-27-24c-25-149-53-273-86-371 58-26 87-54 87-82 0-4-2-13-6-26-4-12-8-19-11-19-4 0-10 6-19 18-17 23-41 47-70 70C158 127 86 53 8 0L0 12c83 76 143 152 180 229-23 15-46 28-71 38l-74 29c37 129 64 243 82 340-42 0-74-4-94-12L0 667h121c26 116 39 196 39 239l82-43-35-24m498 67c63-36 95-69 95-98 0-9-4-19-10-31-7-12-14-18-21-18s-12 8-17 24c-11 38-31 76-59 116l12 7M484 718c-33 2-70-2-109-11l-31 31h191l39 39 54-59H500l46-42c-17-5-42-24-75-55-5-4-28-27-69-70l105-4c12 15 23 32 32 50l54-50c-23-10-57-35-100-73-53-46-83-73-91-80 67 3 118 5 153 4-8 18-16 35-24 51l12 8c44-39 66-67 66-86 0-9-4-18-13-29-8-10-16-15-24-15-5 0-7 3-6 9-5 9-7 25-7 47-40-8-70-14-89-17-44-9-75-19-92-30l-35 66c30 7 60 24 88 51 9 9 32 35 69 78-63-12-101-25-114-39l-35 62c27 4 54 26 82 66 22 31 39 64 51 98m297 6c-39 2-79-2-119-11l-31 31h193l39 39 54-59H797l46-42c-17-5-42-23-75-55-4-4-27-27-69-70l105-4c12 15 22 31 32 50l54-50c-23-11-57-35-100-73-53-47-83-73-91-80 67 3 118 5 153 4-8 18-16 34-24 51l12 8c44-38 66-67 66-86 0-9-4-18-12-28-9-11-17-16-25-16-5 0-7 3-6 9-5 9-7 24-7 47-40-8-70-14-89-17-44-8-75-18-92-30l-35 66c30 7 59 24 88 51 9 9 32 35 69 78-63-12-101-25-114-39l-35 62c27 4 54 26 82 66 22 32 39 64 51 98Z"/></symbol><symbol id="廒_P" viewBox="0 0 1000 1000" data-size="22"><path transform="matrix(1 0 0 -1 37 960)" d="M531 374c14 19 25 39 32 59H367l-7-78h101l31 31 47-47-27-19c-7-51-12-87-16-110-9-51-18-85-26-102-14-30-39-54-75-72-12 36-41 62-86 78l4 14c23-9 46-15 70-18 21-3 37 7 47 30 7 16 14 48 22 96 5 34 10 67 13 99H356C332 197 257 89 133 12l-8 12c128 104 192 240 192 409-52 0-71 0-57 1-28-1-45-6-53-13l-31 32h168v78c-55 0-86-4-94-12l-31 31h125v78c-60 0-80 0-60 1-30-1-48-5-57-12l-32 31h149c-3 13-4 47-4 101l78-39-23-23v-39h78l35 35 59-55H395v-78h62l35 35 51-54H395v-78h90l39 35 43-43c15 38 30 84 45 139 16 62 25 110 25 142l86-39c-25-17-44-45-59-86h145l47 43 58-59h-90c-15-152-47-272-97-359 69-95 136-147 199-155V55c-40 0-68-14-82-43-68 64-115 123-141 175C631 108 538 45 426 0l-4 16c117 63 203 134 258 214-30 61-51 145-63 250-28-47-52-84-74-113l-12 7M176 773h582l59 58 78-78H172l-2-127c-1-65-1-109-2-134-9-82-20-159-31-231-5-33-22-77-50-130C63 86 38 46 12 12L0 20c78 133 118 312 118 537 0 37-1 79-2 125-2 69-3 112-3 130l63-39m246 148c71-31 107-59 109-82l1-18c1-19-11-32-35-37-4-1-8 3-12 12-30 58-54 97-71 118l8 7m207-414c29-117 53-195 74-234 34 72 59 175 75 308H656l-27-74Z"/></symbol><symbol id="廙_P" viewBox="0 0 1000 1000" data-size="22"><path transform="matrix(1 0 0 -1 56 955)" d="M779 679c0-42 0-82 1-118 1-71 2-110 2-117l-57-17v38H320v-28l-56-20c0 29 0 55 1 80 1 49 2 76 2 80 0 29 0 57-1 83-2 52-2 79-2 82l60-26h398l43 33 47-47-33-23m-459-79h176v95H320v-95m229 0h176v95H549v-95M320 488h176v91H320v-91m229 0h176v91H549v-91m-80-359c-80-36-136-61-166-75-36-16-88-34-156-54l-2 13c141 65 233 121 275 168l49-52m231 6c96-31 145-61 145-89 0-30-4-45-12-45-11 0-31 15-61 45-41 41-103 79-186 112l3 13 111-36M410 910c51-14 84-33 98-58 7-13 11-24 11-33 0-10-4-20-11-30-7-4-14-7-20-7-9 0-19 9-30 26-7 13-14 25-21 38-18 24-31 42-39 53l12 11M164 764c-4-88-7-149-9-183-2-57-2-99-3-128-2-50-7-93-14-128C115 217 72 115 11 19L0 27c38 81 65 160 81 237 15 72 23 155 24 250l4 297 55-27h597l51 50 67-70H164m236-439V217h231v108c-10 1-20 2-29 2-23 0-43-4-58-12l-27 32h114v97l76-30-23-24v-43h73l37 37 54-59H684V217h107l40 40 57-62H234c-24 0-46-3-66-10l-27 32h206v108c-23 1-44 2-63 2-41 0-68-4-80-12l-27 32h170c-2 14-3 31-2 50 1 28 2 45 2 50l76-30-23-23-2-47h41l29 27 42-49H400Z"/></symbol><symbol id="彩_P" viewBox="0 0 1000 1000" data-size="22"><path transform="matrix(1 0 0 -1 44 957)" d="M297 463c1-179 2-322 4-428L237 0c0 50 0 124 2 224 1 99 2 174 2 224-46-103-122-198-227-285L0 174c104 109 177 230 220 364h-83c-31-1-58-5-81-12l-34 31h219v250c-86-13-151-22-194-27l-4 15c113 27 173 42 180 44 97 27 157 52 179 74l55-67c-71-9-125-18-160-27V596c63 87 98 140 105 160l76-62-46-12c-48-36-93-73-135-113v-12h93l49 47 73-66H297v-55c81-45 124-77 131-98 2-6 3-13 3-21 0-33-12-49-35-49-9 0-17 11-24 33-11 33-36 72-75 115M76 733c35-16 60-30 75-41 27-21 41-44 41-70 0-11-3-21-10-30-6-9-14-13-24-13-9 0-17 8-23 25-16 45-38 84-67 117l8 12m836-422c-20-9-50-30-89-64-49-43-78-68-88-75C613 82 501 27 400 7v12c145 58 262 137 352 237 51 57 83 96 98 118l62-63m-70 508c-21-7-55-31-104-72-39-34-69-60-88-77-51-44-94-79-132-105l-8 8c145 135 229 237 254 308l78-62m23-258c-27-14-55-33-83-57-33-29-58-51-75-66-75-65-139-113-193-146l-12 7c23 17 45 36 65 56l60 62c64 66 123 136 176 210l62-66Z"/></symbol><symbol id="徭_P" viewBox="0 0 1000 1000" data-size="22"><path transform="matrix(1 0 0 -1 43 958)" d="M297 858c-35-17-81-55-138-116C96 675 47 632 12 612l-8 8c56 61 96 108 121 141 39 51 71 103 94 156l78-59M195 19 137 0c3 148 4 300 4 456C88 394 43 347 8 315l-8 8c42 57 85 122 130 195 59 94 92 161 101 199l78-58c-27-8-65-54-114-137V19m547 452 43 43 67-62H609V319h188l51 47 66-67H609V78h157l-4 175 90-36-32-27c1-64 3-119 4-163L766 4v54H406l-27-35-55 31 24 28c-1 70-2 128-4 174l90-35-32-27V78h153v221H367c-28 0-54-4-78-11l-31 31h297v133c-47 0-83 1-108 1-47-1-83-5-110-13l-31 31h436M543 774c83-69 121-114 114-135-5-14-8-25-10-32-6-11-15-16-26-16-15 0-24 6-27 18-14 61-35 113-63 157l12 8M297 541c56 66 84 166 84 302l85-37c117 29 221 66 310 110l64-55c-175-36-307-62-395-78-21-105-66-188-136-251l-12 9m434 249c90-69 131-116 124-143-7-23-18-40-35-49-15 0-26 16-34 49-6 25-15 48-26 69l-40 67 11 7Z"/></symbol><symbol id="恵_J" viewBox="0 0 1000 1000" data-size="22"><path transform="matrix(1 0 0 -1 65 944)" d="M133 265c5-20 7-42 7-65 0-33-7-62-20-86-13-23-29-40-49-52-11-7-23-10-35-10-11 0-20 4-27 11-6 6-9 13-9 22s4 17 12 25c4 5 13 12 28 22 47 28 72 72 77 133h16M19 716 5 744h393v144l71-10c22-3 33-8 33-15 0-9-6-15-17-18l-22-8v-93h275l46 51 86-60v-19H463v-95h215l22 36 65-39c11-7 17-12 17-15 0-7-6-11-17-14l-15-4V307l-66-8v37H176v-37l-65-9v367l74-36h213v95H19m157-253v-99h222v99H176m0 130V491h222v102H176m287-130v-99h221v99H463m0 28h221v102H463V491m186-287v-92c1-20 3-33 8-38 4-5 12-8 23-11-5-24-18-41-39-51-13-7-42-11-85-12H319c-30 0-52 4-67 12s-22 24-23 48v227l68-7c18-2 29-5 32-8 2-2 3-4 3-7 0-5-4-9-13-13l-25-12V77c0-7 2-11 5-13 3-3 9-4 20-4h238c13 0 24 3 31 9 10 8 19 27 26 57l21 79 14-1M369 312c45-9 83-26 114-49 24-18 36-38 36-61 0-9-3-17-10-24-6-7-13-10-22-10-6 0-12 2-18 6s-17 20-33 47c-15 25-39 51-72 78l5 13m326-47c46-21 85-44 117-71 37-31 56-62 56-93 0-14-6-25-17-33-9-5-18-8-27-8-11 0-20 5-25 14-1 3-7 19-18 48-22 53-55 96-98 131l12 12M562 880c55-3 97-15 125-38 19-15 28-32 28-49 0-11-4-19-11-25-6-5-13-7-20-7s-14 3-21 8c-2 1-13 16-34 43-15 19-40 35-73 49l6 19Z"/></symbol><symbol id="惘_P" viewBox="0 0 1000 1000" data-size="22"><path transform="matrix(1 0 0 -1 45 949)" d="M328 8c3 161 4 312 4 454s-1 274-4 397l59-28h428l39 40 55-59-35-20V144c0-78-29-125-86-140-6 41-39 68-98 82v16c52-7 80-11 84-11 20 0 33 4 39 11 7 7 10 21 10 42v668H383V32L328 8m125 765c59-35 90-61 93-80 3-6 5-14 5-24 0-27-8-43-24-48-6 1-21 23-44 66l-42 78 12 8M82 675c3-14 4-36 4-64 0-90-17-135-52-135-9 0-17 4-24 11-7 8-10 17-10 26 0 7 6 18 18 35 15 21 25 38 32 52 11 25 17 49 16 75h16M137 0c3 216 5 399 5 549s-2 266-5 349l89-39-35-31V722c84-35 123-70 117-105-3-21-9-33-19-36l-19 7c-16 24-27 43-34 58-19 27-34 47-45 60V179c0-16 1-36 4-60V24L137 0m388 593V317h191l39 39 59-59H525l-31-31-43 43 27 12v272h-29l-26-12-31 32h236c32 72 53 132 62 179l74-43c-16-5-29-12-39-23-3-3-11-14-27-35-32-44-50-70-55-78h67l59 39 54-59H525m242-199c-15-3-26-10-34-20-37 26-62 55-74 86-11-19-29-41-56-65-30-26-54-39-73-39l-6 19c77 41 115 96 115 165-10 1-26-1-47-5l-23 19h68l23 20 52-22-25-9-12-62c17-31 47-58 92-81v-6Z"/></symbol><symbol id="愈_P" viewBox="0 0 1000 1000" data-size="22"><path transform="matrix(1 0 0 -1 57 939)" d="M887 632c-45-11-67-28-66-51-161 34-287 109-379 226-81-69-149-121-205-156-76-48-154-83-233-105l-4 9c152 67 272 155 361 265-28 2-53 3-75 3-52 0-89-5-111-15l-26 30h221l28 41 98-49-39-15c103-80 188-128 254-144 76-19 135-28 176-28v-11m-273 2H297c-12-3-23-7-35-12l-31 29h269l51 43 63-60m152-88-31-24V307c0-42-21-73-63-93-12 36-40 58-86 66l4 16c18-5 40-8 67-8 19 0 28 18 28 53 0 5 0 13-1 23s-1 17-1 22l-3 199 86-39m-160-16-28-23c0-53 1-106 4-160l-58-20c1 27 2 65 1 113l-1 129 82-39m86-340 8 12c34-14 65-34 93-57 37-31 54-60 51-87-4-23-12-34-27-35-8-1-27 22-57 69-35 55-58 88-68 98M450 538l-28-16V319c0-42-21-72-62-90-6 35-32 57-78 67l3 15c28-3 46-4 52-4 18 0 29 5 33 15 3 8 5 29 5 63H200V245l-55-20c3 55 4 133 3 235 0 25-1 69-3 133l62-36h153l35 36 55-55m-71-324 8 15c101-35 148-74 141-117-3-20-13-31-28-34-15-2-29 10-43 38-18 35-44 68-78 98M696 47c-19-31-44-47-75-47H313c-44 0-66 17-67 51l-1 101c-1 17-2 47-2 89l82-35-28-24V78c0-26 17-39 51-39h234c19 0 32 6 39 19 4 7 7 24 10 49 0 11 1 29 2 52h16c1-7 3-21 6-41 1-14 3-29 6-45 5-12 16-21 35-26M137 182C137 63 107 4 47 5c-18 1-27 8-27 22 0 8 14 27 42 56 31 33 50 66 59 99h16m238 297v59H200v-59h175m0-78v62H200v-62h175Z"/></symbol><symbol id="慎_P" viewBox="0 0 1000 1000" data-size="22"><path transform="matrix(1 0 0 -1 42 958)" d="M139 4c3 125 4 263 4 415s-1 317-4 495l86-43-32-28V730c69-32 105-50 110-55 19-19 26-38 23-58-1-7-4-15-9-22-6-9-12-14-18-14l-18 13c-7 9-13 18-17 27-17 34-41 65-71 93V187c0-2 1-6 2-11s2-8 2-10V24L139 4M80 545c0-10-4-25-13-44-9-22-19-31-30-29l-21 4C5 486 0 496 0 507c0 12 8 29 25 51 26 35 39 76 39 125h16V545m473 244c-3 11-4 25-5 42-1 11-1 26 0 44 1 21 1 35 1 42l82-43-28-19v-66h165l58 46 70-66H603V660h106l35 39 59-51-32-24V234h32l47 55 66-75H353c-28 0-54-4-78-11l-31 31h149c-3 301-4 454-4 461l62-35h102v109l-69 2c-69 2-119-3-150-14l-31 32h250M443 520h278v120H443V520m0-135h278v116H443V385m94-260c-30 0-65-9-105-28-21-9-53-27-96-54-24-15-55-29-92-43l-8 12c31 17 72 44 123 82 60 45 96 80 108 105l70-74m102 58c41-11 71-20 92-25 39-11 69-23 91-36 36-21 55-49 56-84 1-17-5-28-17-30-15-3-37 11-66 43-36 40-89 79-160 116l4 16m-196 51h278v131H443V234Z"/></symbol><symbol id="慠_P" viewBox="0 0 1000 1000" data-size="22"><path transform="matrix(1 0 0 -1 40 953)" d="M920 51c-44-7-70-22-78-43-37 30-74 84-113 163C679 112 597 56 483 4l-4 12c101 61 176 130 226 206-31 87-47 209-47 367-17-52-46-113-86-183l-11 4c28 76 52 156 72 241 23 98 36 180 37 247l98-43c-34-34-64-105-90-211h129l43 43 62-63h-58c0-155-33-292-98-410 48-84 103-134 164-151V51M213 556c-5 39-9 69-12 88-6 35-12 63-19 86l8 4c16-21 32-42 49-63 18-27 27-52 27-75 0-10-3-21-9-33-7-14-16-21-25-21-7 0-13 5-19 14M88 703c0-4 0-20 1-46 1-24 1-44 0-60-1-20-2-34-5-41-2-7-8-19-19-35-10-17-18-26-24-25-13 1-21 2-22 2-7 2-13 6-17 13-1 5-2 9-2 14 0 14 9 33 26 56 26 35 41 76 46 122h16m121 152-35-27V175c0-15 0-39 2-70 1-30 2-54 2-69L123 0c0 21 1 52 2 93 1 42 2 73 2 94v531c0 9 0 26-1 50-1 21-1 38-1 50 1 23 0 52-2 88l86-51m594-231H674c16-130 36-249 59-355 46 106 70 224 70 355m-475-23-27-12-32 32h124v101h-51l-29-11-37 31h117c-1 38-3 92-4 164l82-39-31-24V742h28l35 39 59-59H440V621h73l35 35 54-55H328m75-125c0 4 1 8 1 13 0 26-17 59-51 98l6 6c34-17 53-26 56-29 26-15 40-30 41-44 1-11-8-25-27-44h61l36 39 48-59H428l-12-97h86l35 35 55-51-27-15c-8-54-15-93-19-117-10-61-18-96-24-105-11-18-35-30-71-35-8 30-27 53-58 69l4 16c16-9 34-15 54-20 27-6 43 25 51 94l12 109H412c-31-125-95-235-191-327l-12 8c58 67 100 134 127 203s41 146 41 233c-13 1-25 2-36 2-28 0-49-5-65-14l-32 32h159Z"/></symbol><symbol id="憎_P" viewBox="0 0 1000 1000" data-size="22"><path transform="matrix(1 0 0 -1 42 958)" d="M917 678c-26 0-47-10-62-30-82 59-137 133-165 224 1 0-19 0-58 1-38 1-65 1-80 0-28-1-45-4-50-7l-24 21c45 1 113 1 204 0l36 28 42-36c-10-8-19-14-27-17 23-51 59-96 110-136 9-7 18-13 25-18l48-20 1-10M527 831c-41-45-104-111-189-198l-11 10c35 41 62 81 83 120 6 11 14 28 25 50 9 19 16 36 19 52l73-34m317-181-19-20 3-233-55-23v37H441v-28l-51-14c0 30 0 58 1 84 1 24 2 52 3 83 0 28 0 78 1 150l46-17h322l21 22 60-41m-34-337-31-20c-1-57 0-142 2-253l-53-25v61H479V33L429 8v347l57-27h239l34 30 51-45M204 730V175c0-17 1-42 2-75 1-34 2-59 2-76L150 0c0 23 1 58 2 105s2 82 2 105c0 378-1 610-4 696l89-43-35-28v-89c54-21 88-43 102-67 11-19 16-34 15-43-5-33-16-48-31-47-11 1-21 14-31 39l-20 54c-8 14-20 30-35 48M91 691c0-7 1-22 1-44v-70c-1-25-2-41-5-46-19-33-37-50-56-50-10 0-19 5-26 15l-3 15c-2 10 7 28 27 51 31 35 46 78 46 129h16m682-145v107H632V546h141m-189 0v107H441V546h143m144-335v98H479v-98h249m0-120v104H479V91h249m44 334v107H631V425h141m-189 0v107H440V425h143Z"/></symbol><symbol id="舘_J" viewBox="0 0 1000 1000" data-size="22"><path transform="matrix(1 0 0 -1 42 954)" d="M475 729c-5-37-12-63-21-76-16-24-34-36-53-36-8 0-15 3-20 8-6 6-9 13-9 22 0 6 2 12 6 17 1 1 12 12 34 33 21 21 35 55 40 103h23l1-43h122v149l85-9c9-1 14-5 14-12s-4-11-12-13l-26-7V757h135l28 43 74-57c13-10 19-18 19-23 0-9-6-13-19-13h-22l-77-55-13 5 14 72H475M465 0v644l68-27h191l20 32 67-37c7-4 11-9 11-15 0-7-4-12-11-14l-19-6V398l-55-6v25H527V304h231l26 38 64-40c9-5 14-10 14-15s-5-9-14-12l-19-5V35l-61-7v66H527V9l-62-9m62 277V122h241v155H527m0 314V445h210v146H527M0 562c92 118 150 233 173 346l72-36c9-4 13-8 13-13s-4-9-13-12l-15-5-2-5c40-13 75-32 106-56 32-26 48-52 48-78 0-11-4-20-13-27-7-7-15-10-24-10-8 0-15 7-22 21-12 25-27 50-46 74s-38 43-57 56c-4-7-8-15-13-22-35-62-74-118-117-169-28-32-54-57-77-74L0 562m26-161-11 27h162v121H68l-10 28h119v134l68-14c11-2 16-6 16-13 0-5-4-10-13-15l-12-6v-86h29l35 49 64-54v-23H236V428h64l43 50 63-56v-21H26M62 2v356l67-39h151l27 36 60-50c7-5 10-10 10-15 0-7-5-11-15-13l-12-2V29l-61-11v53H125V13L62 2m63 289V99h164v192H125Z"/></symbol><symbol id="贈_J" viewBox="0 0 1000 1000" data-size="22"><path transform="matrix(1 0 0 -1 21 942)" d="M496 337V232h262v105H496m0-234h262v105H496V103m313-59c-34-31-51-32-51-4v39H496V33c-34-32-51-33-51-4v355l59-23h242l24 31 54-39c16-13 11-22-15-27V44M563 505c0-18-8-27-24-27-13 0-21 10-23 31-3 39-12 74-28 106-2 10 0 13 8 7 18-13 34-31 47-54 13-24 20-45 20-63m242-82H453v-15c-34-32-51-33-51-4v211c-20-26-49-55-86-86-13-6-15-2-7 11 75 92 134 190 175 297l55-27c21-13 13-22-23-27-16-32-36-66-59-102h348c-37 47-63 100-78 160H551v24h164l23 27 43-35c16-13 7-22-27-28 42-99 111-169 207-211-29-10-48-24-59-42-15 13-31 27-47 42V415c-33-31-50-32-50-4v12m-121 55c-11-8-13-5-8 8 18 47 34 96 47 148l47-23c20-11 16-19-12-24-29-47-54-83-74-109m121 180H645V447h160v211m-211 0H453V447h141v211M219 216c-8 11-5 14 8 12 78-50 117-96 117-141 0-23-8-35-24-35-13 0-22 11-27 31-13 45-38 89-74 133m-28-19c21-13 12-23-27-28C120 109 70 59 16 17 3 14 0 20 8 33c49 52 91 117 125 195l58-31m-74 617V654h129v160H117m0-539v-39c-34-32-51-33-51-4v640l59-35h113l28 31 47-39c15-13 10-22-16-27V255c-34-31-51-32-51-4v24H117m0 195h129v160H117V470m129-23H117V298h129v149Z"/></symbol><symbol id="辶_J" viewBox="0 0 1000 1000" data-size="22"><path transform="matrix(1 0 0 -1 45 924)" d="M910 47c-23-16-40-31-51-47H410c-86 0-165 46-238 137L66 43c6-36-3-43-27-20L0 63l137 78v312H0v24h129l27 31 55-39c13-13 5-22-23-28V160C242 85 314 47 402 47h508M63 848c98-21 148-60 148-118 0-18-7-27-20-27-10 0-24 14-43 43-20 34-52 64-93 90-8 8-6 12 8 12Z"/></symbol><symbol id="逸_J" viewBox="0 0 1000 1000" data-size="22"><path transform="matrix(1 0 0 -1 39 947)" d="M680 367c73-21 114-52 125-94 5-20 0-32-16-35-16-5-30 9-43 43-18 32-43 55-74 71-16 10-13 15 8 15m-465 59c28-18 25-31-12-39V172c65-57 176-86 332-86h387c-16-5-30-21-43-47H531c-161 0-278 40-351 121L82 59C100 9 94 0 63 31L8 86l144 82v234H0v24h145l27 27 43-27M94 883c49-18 84-38 105-59 18-18 28-36 28-54 0-21-8-32-24-32-13 0-23 9-31 28-16 41-43 76-82 105-11 11-9 14 4 12M51 668c39-13 70-30 94-51 18-15 27-32 27-51 0-20-8-31-24-31-13 0-24 12-35 35-13 34-36 63-70 86-13 11-10 15 8 12m484 211c18-13 8-22-31-27-18-29-34-54-47-75h176l27 39 67-46c15-16 5-23-32-20l-86-125h141l23 31 55-39c16-13 11-22-15-27V410c-34-31-51-32-51-4v32H574c-41-149-136-248-285-297-16-6-19-2-12 11 131 65 213 161 246 286H387v-55c-34-31-51-33-51-4v238c-37-36-74-68-113-94-16-2-19 3-8 16 109 102 193 224 250 367l70-27m-94-125c-20-34-44-68-70-102l24-27h191l51 129H441m-54-293h144l16 141H387V461m195 0h180v141H598l-16-141m59-59c26-7 23-17-8-27V211c0-10 5-16 15-16h161c26 0 40 9 43 28l23 121c5 5 9 5 12 0V223c0-13 5-22 15-28 19-7 19-19 0-35-7-8-31-12-70-12H629c-31 0-47 16-47 47v219l59-12Z"/></symbol><symbol id="難_J" viewBox="0 0 1000 1000" data-size="22"><path transform="matrix(1 0 0 -1 28 951)" d="M327 676v82H190v-82h137m62-227v110H284V449h105m-254 0h98v110h-98V449m243 188c-34-32-51-33-51-4v19h-43v-70h94l23 27 55-35c15-13 10-22-16-27V414c-34-31-51-32-51-4v16H284c0-24-1-50-4-78h113l39 35 55-39c8-11 5-17-8-20H276c0-21-5-48-16-82h153l43 43 58-43c13-10 12-18-4-23H257c140-55 210-108 210-160 0-26-7-39-23-39-8 0-14 3-20 11-44 71-102 128-175 172C215 120 138 52 18 0 3 0 0 4 10 12c102 54 166 123 192 207H38v23h172c7 24 13 51 15 82H61v24h168c3 20 4 47 4 78h-98v-31c-33-29-50-30-50-4v222l58-31h90v70h-43v-19c-34-31-51-33-51-4v129H30v23h109v117l67-11c21-13 15-22-16-28v-78h137v114l66-12c21-11 16-20-15-28v-74h50l51 51 63-47c15-13 15-22 0-27H378V637m86-137c-11-8-16-5-16 8 68 75 122 204 164 387l74-32c26-18 17-27-27-27-13-37-33-83-59-141h117c24 68 46 137 67 207l70-35c21-18 12-26-27-23-29-50-59-99-90-149h86l51 51 62-47c16-13 16-22 0-27H757V508h54l43 43 55-39c15-13 15-22 0-28H757V313h50l51 50 63-47c15-13 15-22 0-27H757V102h66l51 50 62-47c16-13 16-22 0-27H608V39c-34-31-51-32-51-4v578c-28-49-60-87-93-113m242 172h-98V508h98v164m0-188h-98V313h98v171m0-195h-98V102h98v187Z"/></symbol><symbol id="響_J" viewBox="0 0 1000 1000" data-size="22"><path transform="matrix(1 0 0 -1 33 971)" d="M922 322c16-13 16-23 0-28H39v24h266c0 15-3 31-8 47-3 10-9 20-20 31H152v23h289v102l71-12c28-10 22-21-20-31v-59h199l51 51 63-47c15-13 15-22 0-27H648l-46-78h207l50 50 63-46m-606 74c39-34 47-60 24-78h238l16 78H316M129 736c0-24-9-35-27-35-8 0-15 5-20 15-21 39-44 70-70 94-11 13-8 18 8 16 26-11 49-24 70-40l74 137 51-35c10-16 0-21-31-16l-82-93c18-13 27-28 27-43m766 129c13-16 5-23-24-20l-90-129c97-55 145-107 145-156 0-39-21-70-63-94-23-10-35-8-35 8 0 13-8 22-23 27l-47 16c-11 8-8 12 8 12l70-8c26 0 39 13 39 39 0 39-38 88-113 148l62 149H707V490c-34-32-51-33-51-4v429l59-35h105l24 24 51-39M273 224v-55h418v55H273M691 87v59H273V87h418m67 153c15-13 10-23-16-28V48c-34-31-51-32-51-4v20H273V33c-33-32-50-33-50-4v250l58-32h403l23 28 51-35M371 501c-29-31-43-32-43-4v407l51-32h27l28 79 46-20c21-8 19-14-7-20l-39-39h93l24 24 43-31c15-13 10-23-16-28V689c-29-29-43-30-43-4v12H371v-63h164l31 31 47-35c13-10 12-17-4-19H371v-47h160l32 31 50-31c19-13 17-21-4-24H371v-39m-94 149C217 540 133 456 23 396c-18-5-20-1-7 12 73 54 134 117 183 187L66 568c-10-37-20-42-31-16L0 611h94l133 226 54-39c13-15 2-21-35-15L113 611l102 11 39 86 55-43c10-15 0-20-32-15m258 125H371v-55h164v55m0 74H371v-51h164v51Z"/></symbol><symbol id="頻_J" viewBox="0 0 1000 1000" data-size="22"><path transform="matrix(1 0 0 -1 41 947)" d="M424 355C328 178 191 68 14 23c-13 0-14 6-4 16 180 63 306 189 379 379l63-43c15-21 6-27-28-20M858 43c-47 49-107 92-180 129-7 5-6 9 4 12 52-13 91-25 117-36 73-28 110-61 110-97 0-18-7-28-20-28-7 0-18 7-31 20m8 617c16-13 10-22-16-27V199c-34-31-51-32-51-4v24H546v-28c-34-31-51-32-51-3v507l58-27h47l20 141H424v23h372l50 51 63-47c15-13 15-22 0-27H674l-50-141h168l23 27 51-35m-320-15V539h253v106H546M7 516v23h109v246l66-12c21-13 16-22-15-27V539h78v356l66-12c21-13 16-22-15-28V699h66l43 43 55-39c15-13 15-22 0-27H296V539h82l43 43 54-39c16-13 16-22 0-27H284V289c0-21-5-36-16-47-8-8-21-14-39-19-15-6-23-2-23 11 0 8-5 15-16 20l-47 16c-5 5-5 9 0 11h63c18 0 27 9 27 28v207H7m792-118v118H546V398h253m0-156v133H546V242h253M7 184c49 101 79 199 89 293l67-24c18-13 10-22-24-27-18-89-58-172-121-250-10-8-14-5-11 8M319 16c117 39 206 93 266 164l47-24c20-18 14-26-20-23C518 65 422 21 323 0c-16 3-17 8-4 16Z"/></symbol><symbol id="𤋮_J" viewBox="0 0 1000 1000" data-size="22"><path transform="matrix(1 0 0 -1 48 942)" d="m42 878 62-39h261l40 45 71-53v-19H278V677h76l22 31 55-39c7-5 10-10 10-15s-3-9-10-11l-19-6V452l-54-10v39h-80V325h96l41 49 74-61v-16H98v-46l-56-7v634m181-201v135H98V677h125M98 650V509h260v141H98m0-169V325h125v156H98m24-251c5-20 7-41 7-62 0-49-9-89-26-119C84 16 62 0 35 0c-9 0-18 4-25 11S0 27 0 36s4 18 13 27c3 3 10 9 23 19 18 15 31 28 38 38 14 21 24 58 31 110h17m147-4c25-16 47-34 67-53 38-38 57-75 57-111 0-17-5-31-14-41-5-5-12-8-21-8-10 0-18 4-23 13-4 6-8 24-13 55-5 34-26 79-63 134l10 11m205 5c104-56 156-114 156-174 0-15-4-26-13-34-6-6-13-9-20-9s-12 2-17 7c-5 4-10 17-17 38-11 33-28 67-53 100-5 7-14 19-27 36-5 6-12 15-21 27l12 9m401 250-7-108c-1-10 1-17 4-21 12-7 22-13 31-18-13-37-41-56-83-57H566c-24 0-39 3-46 9-7 5-10 17-11 36v318l64-34h197v203H501l-10 27h262l24 40 62-40c13-8 19-14 19-19 0-7-5-11-15-14l-12-4V538l-61-9v50H566V351c0-6 0-10 1-12s7-3 17-3h177c25 1 41 6 49 15 5 6 11 18 16 35l31 95h18M697 236c23-10 51-27 84-50 68-48 102-94 102-138 0-14-5-25-15-34-7-7-16-10-25-10-6 0-11 2-15 5-7 4-14 18-21 43-16 51-56 108-121 173l11 11Z"/></symbol></svg>