<svg xmlns="http://www.w3.org/2000/svg"><symbol id="𫟠_G" viewBox="0 0 1000 1000" data-size="21"><path transform="matrix(1 0 0 -1 31 965)" d="M719 930c60-32 90-48 90-51s-3-4-8-4c-16 0-30-8-43-23-8-8-26-33-55-75-18-23-31-40-39-50h113c3 0 13 10 32 31 5 8 14 6 27-4 16-11 32-26 51-47l-16-16c-13-7-19-13-19-15V363c-6-13-26-21-63-23v58H637V258h172l43 62 86-78-4-8H637l4-203c-16-15-37-26-63-31v234H371l-39-4-19 28h265v140H430v-54c-32-13-52-18-63-16 3 68 4 137 4 207v227c3 2 26-9 70-35h200c36 72 62 140 78 203m-274-4c63-44 102-81 118-110 5-41-12-66-51-74-5 3-9 12-12 28-8 57-30 105-66 144l11 12m133-223H465c-26 0-38-9-35-27V574h148v129m211 0H637V574h152v129M430 551V418h148v133H430m207 0V418h152v133H637M105 891c73-37 119-68 137-94 18-24 12-50-19-78-16-11-29 0-39 31-21 55-50 98-86 129l7 12m75-266c41-23 66-42 74-55l-16-11c-15-13-23-21-23-24V195l125 133 12-8c-6-10-15-23-28-39-73-112-117-181-133-207l-54 35c15 19 23 41 23 67v379H70l-54-8-16 31h148c3 0 10 11 20 31l12 16Z"/></symbol><symbol id="𫟡_G" viewBox="0 0 1000 1000" data-size="21"><path transform="matrix(1 0 0 -1 37 965)" d="M539 930c57-24 94-50 109-78 13-24 3-51-31-82h176c3 0 10 10 23 31 8 8 25 2 51-16 29-15 47-34 55-55h-12c-47 3-94-23-140-78l-12 8c18 37 34 65 47 86H410c5-75-15-113-62-113-26 2-37 14-32 35 3 3 8 9 16 20 36 44 52 83 47 117l8 4 15-39h196c-8 10-13 26-16 46-3 37-19 72-51 106l8 8m234-282 82-66v-8H453l-47-11-15 35h347l35 50m71-160 82-66v-8H648l4-316c0-58-34-90-101-98-3 0-4 3-4 8-3 36-33 62-90 78v12c104-19 150-15 137 11v305H387l-55-12-12 36h485l39 50M465 348c39-21 65-38 78-51h-4c-18-3-38-20-59-51-49-73-110-131-183-176l-12 8c89 89 149 179 180 270m230-12c123-73 189-126 200-160 7-44-4-71-36-78-7 0-15 7-23 23-31 68-81 137-148 207l7 8M78 895c76-32 123-67 141-106 8-31-7-57-43-78-11 3-18 14-24 35-10 52-36 99-78 141l4 8m110-250c31-24 53-43 66-59 3-3-4-9-20-20-10-7-15-13-15-15V199l144 121 12-7c-68-68-124-135-168-200-10-13-17-19-19-19-32 21-49 35-51 43l4 8c13 23 19 44 19 62v367H63l-47-11-16 35h145l15 19c16 21 25 30 28 28Z"/></symbol><symbol id="𫟢_G" viewBox="0 0 1000 1000" data-size="21"><path transform="matrix(1 0 0 -1 27 959)" d="m797 539 78-59-39-27 4-230c-11-19-31-30-63-35v289H488c-23 0-35-13-35-39V195c-31-21-52-28-62-23l4 363 74-39h297l31 43M582 422c34-11 66-21 98-31l-12-16c-16-13-23-21-23-23 0-8-2-21-4-39-6-58-12-98-20-122C585 95 470 31 277 0l-4 16c144 44 230 88 258 132 39 53 56 144 51 274m63-231c135-33 222-65 261-93 29-45 25-77-11-98-6 0-15 8-28 23-62 63-139 112-230 149l8 19M90 898c73-39 120-74 140-105 13-26 13-53 0-82-26-26-44-23-54 8-8 57-38 113-90 168l4 11m78-296 70-51-35-31V184l117 117 16-12c-70-94-124-167-160-219l-55 43c16 21 24 47 24 78v344H63l-47-8-16 32h133l35 43m691 316 86-70-4-4H719v-90h97c16 29 29 49 39 62l71-54-43-35v-63c0-34 2-66 8-98-24-13-43-19-59-19v27H387v-23c-13-13-32-21-55-24 0 11 1 32 4 63v133c-3 36-4 61-4 74l35-20c24-13 35-20 35-23h98v90H328l-43-8-19 31h543l50 51m-195-74H555v-90h109v90M500 734h-82c-23 3-34-7-31-31V598h113v136m164 0H555V598h109v136m55 0V598h113v136H719Z"/></symbol><symbol id="𫟣_T" viewBox="0 0 1000 1000" data-size="21"><path transform="matrix(1 0 0 -1 33 961)" d="M209 147c33 8 73 21 121 39l6-19c-40-22-80-41-120-58-40-18-91-36-154-56l-2-15c-2-8-4-13-8-16-4-4-7-4-11-2-4 3-7 8-10 14L0 95c16 2 31 4 46 7v324c0 14 0 24-1 30 0 7-1 15-3 25l58-14c11-3 18-6 21-8 2-3 4-6 4-10s-1-7-3-9c-3-2-7-4-13-6l-20-8V111c22 6 46 13 74 21v454H85v-23c0-9-4-15-12-17-9-3-16-3-22-2-5 2-9 4-10 6-2 2-2 6-2 13s0 17 1 29 1 22 2 28v220c-1 10-1 17-1 21l-3 27 47-35h172l27 32 35-24c6-3 10-7 14-11s6-8 7-11c0-4-1-8-4-12-4-5-14-10-30-17V626l20-15c9-7 11-14 7-21-2-3-4-4-7-4H209V397h27l43 43 55-46c4-3 6-7 7-10s0-7-2-10c-2-4-6-5-9-5H209V147M85 614h177v211H85V614m724 85 28 35 36-25c6-5 11-9 15-13 3-4 5-7 5-10 0-4-1-7-4-10-3-4-11-9-24-15V541l16-12c4-2 4-6 1-11s-6-7-9-7H749v-12c0-4-3-9-7-14-5-5-12-7-23-6-11 0-18 3-20 7-2 5-4 10-4 14-1 5 0 13 2 26 2 17 3 34 4 50v52l1 103 59-32h48m-60-161h70v135h-70V538M497 699l28 35 36-25c6-4 11-9 14-13 4-3 6-7 6-10 0-4-1-7-4-10-3-4-11-9-24-15V541l15-12c4-3 5-7 2-11-3-5-6-7-9-7H436v-12c0-4-2-9-6-14s-11-7-22-6c-11 0-18 3-20 7-2 5-4 10-4 14-1 5 0 13 2 26 2 17 3 30 3 38s1 29 1 64v103l59-32h48m-61-161h71v135h-71V538m485-143H492V87c29 6 53 12 70 18 18 5 42 14 74 27l11-15c-24-18-47-33-68-45-22-11-49-23-82-37l-5-22c-3-8-6-12-11-12-4-1-9 3-13 12l-32 63 8 2v317h-14c-18 0-42-2-73-6l-19 42c39-6 70-8 92-8h176v361H458c-24 0-48-1-72-5l-19 42c39-5 70-8 91-8h148v32c0 30 0 48-1 56s-1 15-2 23l69-14c24-5 36-13 36-23 0-11-7-17-23-21l-31-6v-47h143l48 50 59-53c4-3 6-6 7-8 2-1 2-4 1-8-2-7-7-10-14-10H654V423h165l48 49 59-51c6-6 9-12 8-17-2-6-7-9-13-9M684 228c46 29 78 54 98 74 20 22 37 43 51 63l50-37c6-5 11-9 13-11 3-3 4-8 2-14-2-5-13-7-32-4l-15 1c-24-19-47-36-68-48-21-13-50-27-87-41 28-32 53-55 75-71 23-15 44-27 64-35 20-9 49-19 87-31l-6-17c-33 2-55-9-64-33-42 21-82 48-119 79-38 31-65 68-83 110-17 42-31 85-43 127l19 6c18-51 38-90 58-118Z"/></symbol><symbol id="𫟤_G" viewBox="0 0 1000 1000" data-size="21"><path transform="matrix(1 0 0 -1 23 975)" d="M617 590c5-5 5-8 0-8-10-3-22-8-35-16V328l86 51c86 49 131 79 137 90 8 10 9 18 4 23l7 8 67-43c8-8 8-14 0-19-5 2-13 2-24 0h-11c-97-53-185-97-266-133V160c0-34 4-56 12-66 8-11 30-16 66-16 31-2 59-4 82-4 29 0 57 3 86 8 31 3 48 16 51 39 5 26 9 72 12 137h15v-98c3-31 15-51 35-58-18-34-44-54-78-59-15-3-56-4-121-4-49 0-95 1-137 4-44 8-66 46-66 113v418c0 16-9 30-27 43l4 12 101-39m336 117c3-8 0-10-8-8-21 0-53-17-97-51-16-10-28-19-35-27l-12 12 74 82H488v-16c-2-52-18-84-47-97-13-6-23-3-31 7-5 11-1 23 12 36 16 15 26 35 31 58 8 24 12 50 12 78h15c3-5 4-13 4-23 3-11 4-18 4-24h375l32 32 58-59M555 914v12c99-37 151-80 156-129 0-24-8-37-23-39-16 0-25 10-28 31 0 21-10 42-31 63-18 23-43 44-74 62m-360-19c8 15 6 29-7 43l7 11 67-35c10-3 13-6 8-12-13-2-24-9-32-19l-39-121h137l31 39 67-51c10-5 7-8-8-8H191l-82-258h133v141c3 8-6 22-27 43l8 12 90-35c5-3 7-6 7-8l-4-4c-13-5-22-12-27-20V484h70l28 36 54-43c6-6 8-10 8-12H289V313l164 58 4-16-168-74V113l4-70c0-23-18-38-55-43v35c3 44 4 82 4 113v114c-68-32-109-51-125-59-13-8-27-21-43-39l-51 47 219 82v172H113l-35-35-39 43c16 7 27 18 35 31l74 238H78c-18 0-34-5-47-15L0 762h152l43 133Z"/></symbol><symbol id="𫟥_G" viewBox="0 0 1000 1000" data-size="21"><path transform="matrix(1 0 0 -1 21 965)" d="M609 926c29-11 56-25 82-43 0-3-5-7-15-12-8-5-12-9-12-12l-8-62h133l51 51 74-71-4-4H656l-8-109h98c3 0 9 8 20 24l15 19c39-29 64-49 74-62 0-3-13-12-39-28V230h24l43 47 74-66v-4H391l-39-4-24 27h121v465c0 6 18-4 55-27 8-3 39-4 94-4l7 109H438l-40-7-15 31h222l4 129m-78-285c-21 2-30-4-27-20v-58h254v78H531m-27-102v-82h254v82H504m0-105v-86h254v86H504m0-110v-94h254v94H504m31-129c39-31 61-52 67-62-3-3-7-4-12-4-18 0-37-5-55-16C496 87 417 49 297 0l-8 16c122 70 204 130 246 179m129-11c122-37 198-66 227-86 23-42 19-72-12-90-5 0-13 6-24 19-44 55-110 103-199 145l8 12M184 930c57-24 86-37 86-39 0-3-4-6-12-8-13-8-22-20-28-35-5-13-11-30-19-51-5-16-10-29-16-39h94l43 47 63-63-4-8H188l-79-250h94v176c52-26 78-40 78-43 3-2 0-8-8-15-10-13-15-23-15-28v-90h35l39 43 70-66H258V313l133 23 4-20-137-39 4-234c-13-21-33-34-59-39v258c-75-21-130-41-164-59-3 0-9 7-19 20-8 15-15 32-20 50l20 4c49 3 110 11 183 24v160h-86c-2 0-9-8-19-23-6-6-12-8-20-8-5 2-19 18-43 47l12 11c13 11 21 19 23 24 11 31 32 105 63 222H82l-47-11-31 35h137c20 73 35 130 43 172Z"/></symbol><symbol id="𫟦_G" viewBox="0 0 1000 1000" data-size="21"><path transform="matrix(1 0 0 -1 21 961)" d="M789 914c55-31 82-48 82-51l-8-4c-23-5-39-15-47-31-15-29-41-66-78-113h86l51 51 74-67-4-8H730c-7-10-19-23-35-39-15-15-27-28-35-39 50-36 80-80 90-133 49 42 91 88 125 137 42-41 60-62 55-62h-8c-13 0-26-4-39-12-8-5-20-13-35-23-42-29-72-49-90-59 2-5 4-9 4-12 99-73 149-121 152-144-5-42-25-64-59-67-5 3-7 12-7 28-8 57-35 109-82 156 7-96 2-171-16-223-16-49-46-75-90-78 5 31-18 56-70 74-8 3-13 4-16 4l4 12c3 0 7-1 12-4 65-13 100-12 105 4 21 23 30 83 28 180-65-84-145-149-239-196l-4 12c105 81 181 163 231 246 0 3-1 8-4 16 0 18-4 34-12 47-60-71-127-123-203-157l-8 8c86 60 149 124 188 192-11 13-22 24-35 35-34-34-82-65-145-94l-8 8c68 49 127 110 176 183h-94l-50-11-28 35h219c34 57 61 124 82 199m-648 8c47-18 76-33 89-43 0-3-6-5-19-8-5-3-10-5-16-8l-31-121h94l35 51 66-66-4-4H156c-10-60-32-141-66-243h78v157l86-39-31-20v-98h23l35 40 59-55v-8H223V301l125 35 7-16c-33-15-78-34-132-54V27c-19-15-39-24-63-27 5 91 8 174 8 250-73-29-119-49-137-62L0 250l168 39v168H94l-39-31-43 51c21 10 34 22 39 35 23 75 41 146 54 211H59l-43-8-16 27h113c19 89 28 149 28 180m285-352 66-50-35-20V152c57-34 116-53 176-58 62-8 170-5 324 8V86c-39-5-60-22-62-51-3-5-36-8-98-8-60 0-133 11-219 32-29 7-58 23-90 46-26 19-45 27-58 24-21-8-45-40-71-98l-58 39c44 37 78 63 101 78v360h-23l-39-16-27 35h78l35 43m113 340c65-36 104-69 117-97 5-24-1-45-19-63-21-10-34-4-39 20-11 57-33 101-67 132l8 8m-180-78c63-39 97-72 102-98 8-23 1-45-20-66-18-16-30-9-35 20-5 44-23 91-54 140l7 4Z"/></symbol><symbol id="𫟧_T" viewBox="0 0 1000 1000" data-size="21"><path transform="matrix(1 0 0 -1 28 943)" d="M604 764H428c-25 0-49-2-73-5l-19 41c46-5 76-8 92-8h378l52 53 61-56 5-5c3-4 3-7 2-11-2-6-6-9-12-9H650V187c0-12-2-24-6-36-5-12-14-22-29-30-14-9-27-14-40-16-1 5-3 11-4 17-2 7-4 12-8 17-5 6-12 11-22 16-11 4-33 10-67 16l4 22c3 0 18-3 45-7 28-4 46-6 54-6 8-1 14 1 19 6 5 4 8 12 8 22v556M156 157c11 16 22 33 32 51 9 18 16 33 20 44 5 11 9 25 14 43 4 17 7 31 9 42s5 31 8 59H108c-6-2-14-3-23-3-8 0-14 1-17 3s-4 4-5 6c0 2 2 6 5 9 2 2 6 8 15 19l22 29c34 43 67 95 99 156h-93c-20 0-44-2-72-6l-19 42c38-6 68-9 91-9h93l33 33 47-40c6-6 8-12 7-17-1-6-5-10-13-12l-25-7c-3-6-18-27-43-63l-39-57-21-28-20-28h107l31 32 44-32c7-5 11-11 10-17 0-6-3-10-10-12l-24-9c-2-6-3-10-3-13l-7-40c-2-10-7-24-13-42-7-17-12-30-16-39s-12-22-22-38-18-27-23-33c-5-7-14-16-27-30 3-2 8-7 16-14 7-7 17-14 29-22 11-8 24-16 39-24 14-8 41-15 82-23 40-8 88-12 144-14 57-3 131-3 222-2 92 0 171 2 235 6V40c-15-2-26-6-34-11-8-6-13-11-14-16l-3-13c-25 0-59 0-101 1-41 0-99 1-172 1s-137 3-190 9c-54 6-96 14-126 25s-53 22-69 33c-16 12-29 22-38 30-9 9-16 16-22 19-5 4-11 7-20 8-9 0-41-21-97-64V45c0-7-1-11-2-13-1-3-4-4-9-5-4-1-9 3-15 11L0 86c14 7 40 20 77 39 37 18 63 29 79 32m-44 730c41-25 74-49 98-71 26-23 37-45 36-67-1-10-4-17-10-22-5-5-10-8-17-8-6 0-12 2-16 7-2 2-4 4-5 7-2 4-5 13-10 27-6 14-12 28-20 42-8 13-19 27-35 43l-23 21-9 8 11 13Z"/></symbol><symbol id="𫟨_J" viewBox="0 0 1000 1000" data-size="21"><path transform="matrix(1 0 0 -1 45 946)" d="M248 465c-6-3-11-6-15-7l-20-5V150c25-22 52-38 79-48 39-15 100-23 185-23h432V65c-13-8-22-14-26-17-5-5-11-15-17-29H502c-80 0-135 5-165 14s-64 28-102 58c-17 14-32 30-47 48L85 37l-5-18C77 6 73 0 68 0c-1 0-8 6-20 19L0 72c61 27 111 53 148 76v318H16L3 495h136l29 47 67-45c14-9 21-16 21-21 0-1-1-3-2-6h262v122l64-4c19-1 28-6 28-13 0-5-3-8-9-11l-19-8v-86h172l51 60 83-64v-24H583c26-49 56-92 91-130l131 112 56-41c6-4 9-8 9-13 0-7-5-11-16-11h-28l-134-64c54-51 125-92 212-125l-5-15c-14-2-25-5-32-8-11-5-21-16-30-33-65 34-124 85-178 152-41 52-74 111-98 176-15-17-44-45-87-83V199l169 32 2-16-281-90-6-21c-1-5-5-7-11-7-3 0-5 2-7 6l-47 69 123 17v128c-72-46-133-79-183-98l-7 18c104 57 190 126 257 205H261l-13 23m-3 150-15 27h285v107H317l-12 26h210v117l60-10c25-5 38-11 38-19 0-7-7-12-21-16l-12-3v-69h119l49 57 79-65v-18H580V642h188l46 54 82-66v-15H245M58 837c46-15 79-29 98-42 46-30 69-61 69-93 0-25-12-38-35-38-11 0-19 4-25 11-1 2-9 18-24 47-18 35-48 67-91 98l8 17Z"/></symbol><symbol id="𫟩_J" viewBox="0 0 1000 1000" data-size="21"><path transform="matrix(1 0 0 -1 33 949)" d="M450 557c19 32 32 61 41 86H300l-16 28h216l1 4c14 48 23 85 28 111 5 27 9 65 12 112l85-21c11-3 17-7 17-12 0-6-6-11-19-15l-16-5c-17-81-31-139-43-174h179l45 57 78-66v-19H633c21-37 40-66 57-86h99l46 62 86-67v-23H714c52-54 125-103 220-148l-9-14h-7c-31 0-53-12-64-37-41 29-87 70-137 123-20 23-38 48-54 76H496c-18-28-42-57-73-87h237l18 22 55-49c5-4 7-8 7-12 0-5-2-8-7-11l-11-6V267l-56-8v39H460V195c0-7 2-12 5-15 3-5 14-7 33-7h228c15 0 25 3 30 8 7 6 14 21 22 45l21 67h17l-6-74c0-14 2-23 6-27 4-5 14-11 30-20-12-37-45-55-98-54H502c-65 1-98 18-99 52v199l67-43h196v89H394c-45-39-97-76-156-110l-12 16c69 53 117 94 144 124 24 27 45 55 64 84H260l-12 28h202m63 0h135l-2 3c-15 29-28 56-37 79l-1 4h-54c-17-42-30-71-41-86M85 37l-5-18C77 6 73 0 68 0c-1 0-8 6-20 19L0 72c61 27 110 52 148 76v318H24l-14 29h129l29 47 67-45c14-9 21-16 21-21 0-7-8-13-23-17l-20-6V150c26-22 52-38 79-48 38-15 99-23 184-23h446V65l-10-5c-11-7-19-14-24-21-2-4-5-11-10-20H502c-81 0-136 5-165 14-31 9-65 28-102 58-17 14-32 30-47 48L85 37M61 857c46-15 79-29 99-42 46-30 69-61 69-93 0-25-12-38-37-38-9 0-17 4-23 11-1 2-9 18-24 47-18 35-48 68-91 99l7 16m270-2c42-21 70-38 85-53 11-11 21-24 28-40 6-14 9-26 9-35 0-16-6-28-18-35-5-3-10-4-15-4-7 0-14 2-21 7-6 5-12 21-18 50-9 39-29 72-58 97l8 13m326-165c31 60 59 121 86 182l72-33c12-6 18-12 18-18 0-9-6-13-18-13h-24L669 682l-12 8Z"/></symbol><symbol id="𫟪_J" viewBox="0 0 1000 1000" data-size="21"><path transform="matrix(1 0 0 -1 43 957)" d="M537 526v74H411v-32l-61-11v297l70-33h81l14 93 67-19c9-3 13-6 13-11s-4-8-11-11l-17-5-33-47h172l22 33 55-35c14-9 21-17 21-24 0-5-5-10-14-13l-11-3V574l-64-11v37H598v-74h188l23 31 65-48c12-9 18-16 18-22 0-5-6-8-18-9l-34-3-81-58-10 11c2 4 4 8 7 12 15 27 25 46 30 58H332c-3-25-9-46-20-63-10-15-23-23-38-23-9 0-16 3-22 9-5 6-7 12-7 19s3 14 8 21c1 1 11 10 30 27 17 17 25 39 26 67h18l5-29h205M411 697v-69h304v69H411m0 97v-70h304v70H411m222-324 13 11c21-30 50-58 88-85 47-32 100-54 157-67v-19c-17-1-28-3-34-6-7-3-16-11-25-22-65 36-116 75-152 118-21 26-36 49-47 70M386 108v232c-25-21-46-37-62-48-15-10-41-25-78-44l-11 15c74 53 139 123 194 211l48-32c11-7 17-13 17-18 0-7-7-11-20-11h-19c-21-26-39-46-52-59l58-25h205l19 25 61-45c6-4 9-8 9-11 0-4-3-7-9-8l-13-4V127l-59-10v40H444v-41l-58-8m58 194V182h230v120H444M912 70c-15-6-25-12-30-17s-9-15-13-29l-385 1c-78 3-136 14-175 32-30 13-72 43-125 90L81 43V22C81 7 77 0 69 0c-5 0-9 3-14 10L6 83c17 9 44 22 82 39 23 11 39 19 48 25v334H13L0 508l129 1 28 36 65-42c7-5 11-10 11-15 0-6-5-10-14-12l-16-3V165c26-25 53-43 80-54 39-16 92-25 160-27l470-1-1-13M29 868c37-9 66-18 85-27 29-13 50-33 64-59 5-9 8-20 8-31 0-15-5-26-14-33-5-5-11-7-18-7s-12 2-15 5c-8 7-18 21-29 42-19 35-47 67-84 96l3 14Z"/></symbol><symbol id="𫟫_G" viewBox="0 0 1000 1000" data-size="21"><path transform="matrix(1 0 0 -1 25 945)" d="M578 652H324c0-67-1-119-4-156h121l39 43 12-8c39-31 59-49 59-54l-12-8c-21-13-30-21-27-24-11-179-21-284-32-312-20-37-56-63-105-78v4c5 36-25 61-90 74v12c73-13 119-12 137 3 10-2 22 106 35 325H316C303 257 230 107 98 23L86 35c107 110 164 250 172 422 5 50 8 115 8 195h-98c-5-187-17-317-35-390-16-71-55-149-117-235L0 35c44 83 73 163 86 238 13 79 19 201 19 368 0 65-1 145-3 242l82-43h293l46 51 75-71v-4H207c-31 6-44-6-39-35V672h297l43 55 70-71v-4m281 235 90-71-11-3c-24-8-38-17-43-28-60-107-105-186-133-238 80-63 130-111 148-145 37-65 37-125 0-179-28-37-70-60-125-71 0 42-32 69-97 82l3 12c63-10 110-13 141-8 47 24 57 72 31 145-26 57-69 108-129 152l102 278H715c-24 0-35-12-35-36V39c-21-26-42-39-63-39v879l71-43h132l39 51Z"/></symbol><symbol id="𫟬_G" viewBox="0 0 1000 1000" data-size="21"><path transform="matrix(1 0 0 -1 36 955)" d="m184 648-24 36h176l4 129c-8 0-27-2-59-4-54-3-90-4-105-4-26 2-38-8-35-32V625c0-198-8-332-24-402C104 155 69 90 12 27L0 35c42 81 66 171 74 270 13 101 17 290 12 566l70-39c157 16 275 36 356 63 39-47 57-72 54-75h-7c-16 6-32 8-47 8-32-8-78-12-141-12l51-35c0-2-8-9-24-19-2-3-5-4-7-4l-4-74h86l47 50 70-66-4-8H387l-4-113h82c0 2 5 9 15 19l12 20c11-5 35-23 74-55-15-10-27-21-35-31l4-270c-13-13-31-20-55-23v316H293c-26 0-39-9-39-27V223c-11-11-29-17-55-20 0 31 2 106 4 223v152l74-31h51l4 113H223l-39-12m445 262 78-47h90l39 47 82-66c0-3-3-4-8-4-15-5-27-16-35-31-16-26-52-99-109-219 10-8 22-20 35-35 52-47 83-80 94-98 33-52 41-112 23-180-26-62-69-99-129-109 3 44-26 81-86 109l4 16c70-26 115-34 133-23 31 26 40 69 27 128-10 37-48 94-113 172-8 8-13 15-16 20l78 250h-82c-41 8-58-11-50-55V680c2-183 2-396 0-641-8-16-29-29-63-39 3 122 5 257 8 402v508M344 484c52-20 78-32 78-35 2 0-1-4-12-11-8-8-13-14-15-16 0-76-6-138-16-188 83-39 142-75 176-109 18-18 22-43 11-74-15-29-30-29-43 0-20 52-72 105-156 160-31-91-116-158-254-199l-8 11c105 53 171 107 200 165 31 57 44 156 39 296Z"/></symbol><symbol id="𫟭_G" viewBox="0 0 1000 1000" data-size="21"><path transform="matrix(1 0 0 -1 25 973)" d="m898 766-43-94c-5-13-14-34-27-63-13-26-23-45-31-58 47-34 81-63 101-86 19-18 32-42 40-70 7-24 11-51 11-82 0-58-19-99-58-125-19-11-49-20-90-28 2 31-31 54-102 67l4 19c86-29 142-32 168-12 26 13 38 42 35 86 3 39-4 73-19 102-13 31-52 71-117 121 26 65 56 148 89 250H672V47c0-24-17-39-51-47 3 10 4 39 4 86 3 31 4 57 4 78v637c-3 18-12 36-27 54l19 12 43-54h191l36 42 47-54c5-3 7-5 7-8 3-3 2-5-4-8h-3c-11-2-24-9-40-19M152 281l16-11h273l28 27 39-35c5-5 6-9 4-12l-8-4-16-8V55c0-24-13-34-39-32v36H184V43c2-26-12-40-43-43v35c2 34 4 61 4 82v121c2 8 1 19-4 32l11 11m465 55v-16h-8c-44 0-65-11-62-35-52 16-102 37-149 63-31 15-59 36-85 62-16-15-36-34-59-55-55-41-138-80-250-117l-4 20c86 36 142 64 168 82 52 34 91 65 117 94l-15 19c-34 37-63 80-86 129-34-52-77-98-129-137l-4 8c54 63 95 119 121 168 29 52 40 82 35 90 0 8-3 16-8 23l4 8 70-27 4-4c3-5 3-9 0-12-13 0-23-2-31-8-8-23-18-44-31-62h199l24 31 54-43c3-8 0-13-8-15-15 0-28-11-39-32-21-34-49-71-86-113-5-8-11-16-19-23 2-3 6-7 12-12 10-8 24-17 43-27 62-32 114-49 156-51 5-3 15-5 31-8h35M184 78h265v172H184V78m-71 762c0-16-1-31-4-47h411l31 35 58-55c3-7 0-11-7-11-21 5-39-3-55-24-11-8-27-27-51-58l-16 8 47 85H109c-7-59-23-97-46-113-14-5-24-2-32 8-5 10-2 20 8 27 13 11 24 25 31 43 11 21 20 55 28 102h15m90-231-8-11c21-34 48-69 82-106 8-10 19-22 32-35 5 5 11 13 19 23 11 13 18 23 24 28 23 31 45 65 66 101H203m-8 325 4 11c55-18 93-43 114-74 13-36 9-56-12-58-11 0-18 6-24 19 0 16-6 30-19 43-11 16-31 35-63 59Z"/></symbol><symbol id="𫟮_T" viewBox="0 0 1000 1000" data-size="21"><path transform="matrix(1 0 0 -1 30 949)" d="M692 435h132l48 50 59-52c3-3 5-6 7-8 1-2 1-5 0-9-1-6-6-8-12-8H677c-30-70-59-128-86-175-26-46-54-90-83-130 19 2 42 6 70 10 27 4 44 6 51 7l79 16c34 6 54 10 60 11 7 1 26 6 59 15-1 1-6 10-14 26-9 16-17 31-26 45l-27 38-9 14 15 11c24-26 40-43 47-52 8-8 21-25 38-49s29-40 34-49c5-8 11-20 17-33 6-14 11-25 13-34 3-9 4-18 3-28 0-10-3-19-9-26s-13-10-22-9c-9 2-15 6-18 13s-6 18-9 34c-3 15-11 41-26 78-38-16-76-29-113-39S618 77 521 57l-5-23c-1-4-4-7-10-11-5-3-11 3-18 18l-28 56c6 4 13 10 20 17s22 33 45 77c22 45 41 83 55 116s27 66 38 101h-90c-19 0-43-2-73-6l-19 42c40-6 70-9 92-9h118v173h-70c-29 0-53-2-73-6l-19 42c46-5 76-8 92-8h70v172h-81c-19 0-43-1-73-5l-19 42c40-6 70-9 92-9h234l49 50 59-52c3-3 5-6 7-8 1-2 1-5 0-9-2-6-6-9-13-9H692V636h78l48 49 59-52c3-3 5-6 7-8 1-1 2-4 1-8-2-6-6-9-13-9H692V435M242 263l44 44 54-47 7-7c1-2 1-5 0-9-2-6-6-9-12-9H203c-17 0-45-2-82-4l-19 43c26-7 60-11 101-11h39m50 430h56l33 37 41-27c13-8 20-16 20-23 0-5-2-9-6-13s-14-9-32-17V144c0-7 0-19 1-36s2-32 2-45c1-14 1-23 2-28 0-4 1-8 0-9-2-12-13-18-30-19-14-2-21 3-21 12v35H97V18c0-6-1-10-4-13-2-4-9-5-22-5-12 0-20 4-23 10-2 6-4 11-4 16 0 4 1 15 2 31l2 39 2 37v518c0 4-1 15-2 34s-2 29-2 30l-3 22 60-44h52v128h-43c-48 0-79-2-93-4L0 860c30-7 68-11 112-11h236l48 49 59-51c6-7 9-12 7-17-2-6-6-9-12-9H292V693m-46 0 1 128h-49V693h48m-91-28H97V370c8 12 18 31 30 57s20 53 23 81 5 48 5 62v95m91 0h-48v-54c0-20-1-35-2-47 0-12-3-30-7-54-3-24-10-47-22-70-11-23-31-53-62-93l-8 9V81l261 1v304h-70c-15 1-26 4-32 9-6 6-10 12-10 18-1 7-1 17 0 33v219m112-239v239h-66V431c0-3 4-5 13-5h53Z"/></symbol><symbol id="𫟯_J" viewBox="0 0 1000 1000" data-size="21"><path transform="matrix(1 0 0 -1 50 928)" d="m414 856 84-13c12-2 18-7 18-14s-6-12-18-15l-21-5v-83h285l47 59 90-66v-20H12L0 726h414v130M153 641l76-44h451l24 44 66-44c11-7 16-13 16-18s-7-10-20-14l-19-6V254l-63-12v40H477V169h230l47 50 82-59v-18H477V27h285l47 59 90-66V0H12L0 27h414v115H75l-12 27h351v113H215v-36l-62-15v410m62-332h199v118H215V309m262 118V309h207v118H477m-262 27h199v116H215V454m262 116V454h207v116H477Z"/></symbol><symbol id="𫟰_J" viewBox="0 0 1000 1000" data-size="21"><path transform="matrix(1 0 0 -1 58 947)" d="m389 64-11 28h404v183H414l-13 28h381v167H402l-13 27h196v383l79-9c17-2 26-7 26-14s-5-12-14-16l-27-11V497h118l27 41 70-44c9-6 14-12 14-18 0-5-4-9-12-12l-18-6V16L782 6v58H389m12 730c37-27 68-60 93-98 29-43 44-80 44-111 0-16-5-28-16-37-7-5-14-8-22-8-7 0-13 2-16 7-4 5-10 25-17 59-17 71-43 130-77 177l11 11m282-259c39 85 72 172 99 260l5 15 84-45c8-5 12-10 12-15 0-7-6-11-19-13l-29-4c-60-97-105-167-136-208l-16 10M414 141 67 30 57 12C53 4 49 0 45 0s-7 3-10 10L4 90l156 24v305H16L2 445h158v137H86c-19-27-43-59-71-96L0 496c43 79 76 149 99 210 16 43 35 106 58 188l92-27c9-3 13-6 13-11s-4-10-13-13l-28-9-1-5c51-13 93-33 125-60 31-25 46-49 46-73 0-11-4-19-11-26-5-5-10-7-16-7-7 0-15 5-24 14-3 3-12 18-28 43-36 47-69 79-99 95-23-52-59-121-110-207h165l36 48 76-58v-16H223V445h59l42 53 73-59v-20H223V123l188 34 3-16M32 373c57-55 86-110 86-165 0-33-12-49-37-49-19 0-28 11-28 34v45c-1 43-12 85-33 127l12 8m227-200 43 207 76-23c8-3 12-7 12-12s-4-8-11-11l-19-5-86-161-15 5Z"/></symbol><symbol id="𫟰_U" viewBox="0 0 1000 1000" data-size="23"><path transform="matrix(1 0 0 -1 79 918)" d="m224 136 166 26 1-16c-40-12-87-26-140-43-53-16-117-34-192-54-4-12-11-19-21-21L5 108c17 1 40 4 67 7 28 3 60 8 96 13v278H13l-6 22h161v131H68l-1 8c-9-9-19-17-28-25s-18-16-27-23l-12 9c18 19 35 41 52 66s33 52 48 79c15 28 29 56 40 84 12 28 22 54 29 78l98-12c-1-5-5-9-10-12-5-2-13-4-25-5 30-13 55-26 75-39 21-13 37-25 49-38 12-12 20-23 25-34s8-20 8-29c0-11-3-20-9-27-6-6-13-9-21-9-9 0-16 3-23 9-8 22-21 47-40 75-18 29-41 56-69 81-17-34-38-70-63-107s-53-73-85-107h179l35 48 71-50c-3-7-8-12-14-15s-15-5-27-5h-99V428h64l36 48 70-50c-3-7-8-12-14-15s-15-5-27-5H224V136m510 335 29 37 78-57c-8-8-21-14-40-18V21c0-1-5-5-14-11-9-7-23-10-44-10v53H375l-6 21h374v183H414l-7 22h336v171H399l-7 21h177v363l98-8c-1-8-4-14-10-17s-17-6-32-8V471h109m107 262c-2-5-5-9-8-11s-10-3-19-3h-6c-17-34-37-68-58-103s-42-64-63-88l-15 8c6 14 12 30 18 48 7 18 13 37 20 57s13 41 19 62c7 21 13 42 18 62l94-32m-434 27c38-31 64-61 78-90 15-29 22-54 22-75 0-17-4-31-11-42-7-10-16-15-25-15-8 0-17 5-26 14v11c0 15-1 32-4 49s-6 34-11 51c-4 17-9 34-16 49-6 16-12 30-19 43l12 5m-18-417c-1-5-4-9-9-11-4-2-11-3-22-3-13-28-27-56-43-84-15-28-31-52-46-71l-15 7c9 23 18 51 27 85 9 35 18 69 25 103l83-26M47 360c30-28 51-54 62-79 12-25 18-46 18-64 0-16-3-29-10-39-6-9-14-14-23-14-7 0-15 5-22 14v12c0 27-4 56-12 86-7 31-16 57-25 80l12 4Z"/></symbol><symbol id="𫟱_J" viewBox="0 0 1000 1000" data-size="21"><path transform="matrix(1 0 0 -1 44 953)" d="M683 375v-93h119l43 49 65-56v-21H683V61c0-13-5-24-16-32-5-5-19-11-40-18-9-3-17-5-24-8-5-2-9-3-12-3s-6 2-7 5c-1 2-2 10-3 25-1 17-15 27-40 31l-42 6v17h121v170H377l-12 28h255v93H499v-35l-56-10v324l65-34h285l23 36 60-41c9-6 14-11 14-15 0-6-5-11-14-16l-14-7V363l-58-9v21H683m-63 111H499v-83h121v83m0 27v79H499v-79h121m63 79v-79h121v79H683m0-106v-83h121v83H683m-65 320v100l74-8c13-1 20-6 20-15 0-7-5-12-16-17l-18-8v-52h130l35 45 68-55v-18H678v-72h95l35 45 68-55v-18H442l-18 28h194v72H404l-13 28h227M452 236c73-25 109-58 109-97 0-13-5-23-14-30-6-5-12-7-19-7s-13 3-19 8c-5 5-9 17-13 37-6 28-23 54-50 78l6 11m-58-90L67 40 57 22c-4-8-8-12-12-12s-7 3-10 10L4 100l156 24v305H16L2 455h158v137H86c-19-27-43-59-71-96L0 506c43 79 76 149 99 210 16 43 35 106 58 188l92-27c9-3 13-6 13-11s-4-10-13-13l-28-9-1-5c51-13 93-33 125-60 31-25 46-49 46-73 0-11-4-19-11-26-5-5-10-7-16-7-7 0-15 5-24 14-3 3-12 18-28 43-36 47-69 79-99 95-23-52-59-121-110-207h165l36 48 76-58v-16H223V455h59l42 53 73-59v-20H223V133l169 29 2-16M32 383c15-14 27-28 38-43 32-43 48-82 48-116 0-19-6-35-17-46-6-6-13-9-21-9-18 0-27 12-27 35v44c-2 37-13 80-33 127l12 8m229-197 41 204 76-23c8-3 12-7 12-12s-4-8-11-11l-19-5-86-161-13 8Z"/></symbol><symbol id="𫟲_G" viewBox="0 0 1000 1000" data-size="21"><path transform="matrix(1 0 0 -1 20 965)" d="M715 668c23 31 36 48 39 51 44-29 70-50 78-63 0-2-12-11-35-27-8-8-12-165-12-473-5-41 17-60 67-54 28-13 48 37 58 152h12c0-94 13-141 39-141-8-34-26-54-55-62-10-3-43-4-97-4-55 0-82 30-82 90v508H590c0-3-1-8-4-16v-16c3-312-89-517-273-613l-12 8c161 125 238 328 230 609v28h-82l-43-8-19 31h144v258c34-13 68-28 102-43 0-3-9-11-28-24-7-5-11-27-11-66 0-36-2-78-4-125h125M172 930c60-32 90-48 90-51l-8-8c-21-10-33-19-35-27-5-13-12-30-20-51-10-29-17-48-19-59h113l51 47 66-66v-4H172c-5-10-14-29-27-55-27-49-41-78-43-86h183l43 51 67-62v-8H234V395h75l35 43 62-59v-8H234V145l161 125 7-8C298 145 237 72 219 43l-63 47c13 15 20 39 20 70v211H74l-35-8-19 32h156v156H86c-18-31-43-69-74-113l-12 7c78 141 135 302 172 485Z"/></symbol><symbol id="𫟳_G" viewBox="0 0 1000 1000" data-size="21"><path transform="matrix(1 0 0 -1 39 945)" d="m852 737 3-309c-13-18-33-30-62-35v67H508V124c-5-42 12-60 51-55h218c42-16 64 47 67 188h15c-2-107 15-162 51-165 5 0 9-1 12-3-13-53-55-79-125-79H547c-73-10-106 23-98 98v711l71-43h257l36 47 85-66-46-20M164 893l98-47c0-2-4-6-12-11-16-8-25-16-27-24-8-15-19-41-32-78-5-8-7-13-7-16h117l47 47 66-66v-4H172c-18-36-43-82-74-137h183l43 51 74-70-3-4H242V378h59l51 54 78-74-4-4H242V100l156 121 12-7C314 115 249 44 215 3l-51 39c13 26 20 49 20 70v242H82l-43-8-12 32h157v156H86l-74-94-12 4c76 138 130 288 164 449m344-179V483h285v270H539c-23 2-34-11-31-39Z"/></symbol><symbol id="𫟴_G" viewBox="0 0 1000 1000" data-size="21"><path transform="matrix(1 0 0 -1 25 961)" d="m672 922 70-20v-4c3-2-4-9-19-19-11-11-8-55 7-133 16-75 89-144 219-207v-8c-36 3-67-6-94-27-112 88-173 228-183 418m105-402c29-16 50-37 63-63 2-3-3-8-16-16l-15-11c0-26-2-60-4-102-3-151-9-230-20-238-13-42-51-67-113-74 2 36-31 67-102 93l4 4c91-10 140-10 145 0 15 21 24 134 27 340H582C579 211 479 60 281 0l-8 16c170 80 252 226 247 437h-32l-47-4-19 28h316c21 28 34 43 39 43M523 875l82-39v-4c-15-10-24-19-27-27-49-149-118-267-207-356l-12 8c84 120 138 259 164 418m-367 47 90-47c0-3-5-7-16-12-13-10-20-18-23-23-5-13-14-35-27-67-8-13-13-23-16-31h137l39 51 66-66-4-4H156c-26-52-48-99-66-141h183l40 47 58-66v-4H215V398h86l39 47 62-62-4-8H215V141l168 109 8-8c-24-23-54-53-90-90-60-52-95-88-106-109l-54 43c13 16 19 35 19 59v230H82l-51-8-11 31h140v161H74c-21-39-41-73-62-102l-12 4c78 159 130 312 156 461Z"/></symbol><symbol id="𫟵_G" viewBox="0 0 1000 1000" data-size="21"><path transform="matrix(1 0 0 -1 32 959)" d="M801 598c-201-19-319-41-356-67-2 0-10 9-23 28-13 18-24 37-31 58l7 4c32 13 58 34 79 63 49 67 89 143 121 226 57-39 84-60 82-62l-8-4c-24-8-39-17-47-28-39-59-90-128-152-207l316 12c-8 31-29 68-62 109l11 8c68-47 115-95 141-144 8-47-8-74-47-82-10 2-18 14-23 35-3 23-6 40-8 51m-129-78c31-16 61-29 90-40l-12-11c-13-13-20-21-20-24V121c-2-26 13-38 47-35h28c39-18 61 34 66 156h16c-3-91 13-137 47-137 5-2 4-15-4-39-8-23-41-36-98-39h-82c-55-2-81 25-78 82v411m-172-8c10-5 25-11 43-16 36-13 53-19 51-19l-12-8c-16-13-23-22-23-28 5-221-90-368-286-441l-11 12c93 57 156 120 187 187 34 68 51 172 51 313M156 918l90-47c0-3-5-6-16-12-13-10-20-18-23-23-5-13-14-35-27-66-8-13-13-24-16-32h137l39 51 66-66-4-4H156c-26-52-48-99-66-141h183l40 47 58-66v-4H215V398h86l39 47 62-66-4-4H215V137l168 117 8-12c-13-13-30-28-51-47-78-73-128-123-149-152l-50 43c13 13 19 32 19 59v230H82l-51-8-11 31h140v157H74c-21-39-41-73-62-102l-12 4c78 159 130 313 156 461Z"/></symbol><symbol id="𫟶_G" viewBox="0 0 1000 1000" data-size="21"><path transform="matrix(1 0 0 -1 23 963)" d="M527 828h-58c-13 0-20-9-20-27V527h78v301m270 0h-55c-23 0-34-9-31-27V527h86v301M305 527h90c0 110-3 227-8 352l51-27h85c8 10 16 20 24 31 23-16 45-33 66-51 0-3-11-12-35-27V527h78v51c3 151 2 253-4 305l67-31h62c3 0 13 11 32 35 31-21 55-39 74-55-24-18-35-29-35-31V527h11l32 39 58-54v-8H852c5-263 5-405 0-426-26-36-58-57-94-62v4c0 39-29 66-86 82v7c73-7 113-7 121 0 8 6 9 137 4 395h-86c0-146-12-251-35-316-21-66-68-128-141-188l-12 8c58 68 93 131 106 191 18 55 27 156 27 305h-78c3-237 3-362 0-375-15-34-45-56-90-66 0 33-27 58-82 74v11c65-18 103-20 114-7 5 13 7 134 7 363h-78c-2-227-66-392-191-496l-12 8c99 127 149 290 149 488h-36l-31-12-23 35M168 926l82-47c-21-11-34-24-39-39-5-13-16-37-31-70-3-13-6-21-8-24h70l43 47 63-63-4-3H164c-13-26-36-73-70-141h129l39 43 62-63v-3H203V422h43l39 47 67-63-4-4H203V156l117 121 12-7c-10-16-25-37-43-63-57-81-92-131-105-152l-51 39c10 15 15 35 15 58v250H63l-51-11-12 31h148v141H78c-5-8-12-19-19-32-21-31-34-49-39-54l-12 7c78 154 131 301 160 442Z"/></symbol><symbol id="𫟷_G" viewBox="0 0 1000 1000" data-size="21"><path transform="matrix(1 0 0 -1 16 943)" d="M172 883c60-31 90-48 90-51l-8-8c-21-10-33-19-35-27-5-13-12-30-20-51-10-29-17-48-19-58h105l51 46 66-66v-4H172c-5-10-14-29-27-55-27-49-41-78-43-86h191l43 47 66-58v-12H234V348h79l35 43 62-59v-8H234V102l157 121 11-16C296 105 232 36 211 0l-59 51c19 15 26 36 24 62v211H74l-35-8-19 32h156v152H86c-18-29-43-65-74-109l-12 7c81 154 138 316 172 485m406 4c65-52 102-88 110-106 15-54 0-87-47-97-11 0-17 14-20 43-8 59-25 110-51 152l8 8m270-157 90-85-4-4H484l-46-12-28 35h383l55 66m-86-152 93-51-7-4c-19-7-30-23-35-46-6-16-20-64-43-145-37-115-64-200-82-258h140l55 59 86-70-4-8H414l-39-12-20 31h305c47 188 81 356 102 504m-274-27c58-112 94-206 110-281 10-66-6-103-47-114-21 0-30 28-28 82 6 115-11 216-50 305l15 8Z"/></symbol><symbol id="𫟸_G" viewBox="0 0 1000 1000" data-size="21"><path transform="matrix(1 0 0 -1 21 957)" d="m656 914 102-39c-26-21-39-35-39-43V668h117l39 47 74-63-4-7H719c10-282 65-460 164-536 10 6 28 52 55 141l7-8c-23-81-21-155 8-222 5-11 7-17 4-20-91 0-171 89-238 266-29 96-48 222-59 379H438l-47-8-24 31h293c0 107-1 189-4 246m125-47c5-2 12-5 20-8 49-26 79-45 90-58 7-39-4-65-36-78-7 0-14 7-19 23-13 42-34 80-63 113l8 8M586 547l70-67-4-7H543V180l141 43 4-12c-110-44-210-91-301-141-16-7-26-11-32-11-2 0-14 19-35 58 3 3 15 7 35 12 47 10 90 22 129 35v309h-50l-39-8-28 31h176l43 51M164 914l90-43c0-3-4-5-12-8-13-5-22-13-27-23-3-11-13-43-31-98-6-8-8-13-8-15h109l43 50 67-66-8-4H164c-10-31-32-78-66-141h164l51 51 62-66v-8H223V391h78l39 47 70-63v-8H223V137l148 113 8-16C272 120 214 52 203 31l-55 47c11 16 16 37 16 63v226H82l-51-8-19 32h152v152H86c-8-10-20-27-35-51-21-34-35-53-43-58l-8 7c81 151 135 309 164 473Z"/></symbol><symbol id="𫟹_G" viewBox="0 0 1000 1000" data-size="21"><path transform="matrix(1 0 0 -1 23 945)" d="m164 891 86-47c0-3-5-7-16-12-10-5-17-9-19-12-18-44-31-73-39-86h129l43 59 70-74v-8H168c-8-16-21-43-39-82-16-31-26-52-31-63h168l50 55 71-70-4-8H223V395h70l47 50 70-66v-8H223V109l172 161 11-12C276 102 208 18 203 8l-55 43c11 18 16 39 16 62v258H78l-43-12-23 36h152v148H86c-31-44-56-77-74-98l-12 8c78 138 133 284 164 438m352 0c54-21 82-34 82-39 0-3-6-8-16-16-8-5-12-9-12-12V652h145v235c60-21 90-34 90-39l-12-12c-13-10-20-17-20-20V652h40l42 55 75-70-4-8H773V344h51l51 58 78-74-4-8H438l-40-11-19 35h137v285h-59l-39-12-23 35h121v239m199-262H570V344h145v285M543 273c57-31 86-49 86-54h-8c-16-3-31-11-47-24C501 112 419 47 328 0l-8 8c115 99 189 187 223 265m141-7c99-55 166-102 203-141 26-42 22-77-12-105-5 0-14 11-27 35-42 75-101 142-176 199l12 12Z"/></symbol><symbol id="𫟺_G" viewBox="0 0 1000 1000" data-size="21"><path transform="matrix(1 0 0 -1 39 949)" d="m840 758 82-74-4-4H594c8-8 19-19 35-32 21-15 30-24 27-27l-8-4c-18-2-33-9-46-19-11-8-32-26-63-55-29-26-51-47-66-63l203 12c26 31 51 73 74 125 29-21 56-43 82-66l-8-4c-31-5-56-22-74-51-96-146-221-251-375-316l-8 11c125 84 224 177 297 282-117-19-191-39-223-63-2-2-9 0-19 8-8 10-18 31-31 62 23 6 41 12 54 20 60 57 106 117 137 180H457l-51-8-19 19H164c-29-70-49-114-62-132h164l43 46 66-66-4-4H211V387h70l47 47 63-67-4-4H211V121l148 102 8-8C258 108 198 43 188 20l-55 50c15 16 23 37 23 63v230H66l-46-11-20 35h156v148H90c-31-44-57-79-78-105l-12 4c68 122 120 276 156 461 60-27 90-41 90-43 0-3-1-4-4-4-15-8-27-24-35-47-8-21-19-50-35-86h113l47 47 59-59h390l59 55m-39-332c57-42 84-64 82-67-26-5-46-14-59-27-18-26-52-65-101-117 88-52 147-95 175-129 16-42 3-70-39-86-7 3-14 12-19 27-21 60-67 118-137 172C589 98 469 33 344 4l-8 12c224 104 379 241 465 410M559 898c80-49 122-88 125-117-21-52-43-62-67-31 0 3-1 8-4 16-2 39-23 80-62 125l8 7Z"/></symbol><symbol id="𫟻_G" viewBox="0 0 1000 1000" data-size="21"><path transform="matrix(1 0 0 -1 35 955)" d="m477 879 89-43-31-31c5-323-9-519-43-586-31-86-94-159-187-219l-12 12c91 86 146 179 164 281 23 91 30 286 20 586m359 4 94-43-39-35V51c-16-13-37-25-63-35l8 867m-180-24 90-46-35-28V90c-29-21-50-31-63-31l8 800m74-246c47-60 75-108 83-144-8-37-27-56-55-59-5 5-8 17-8 35 5 52-4 107-27 164l7 4m-167 0c46-70 69-118 66-144-8-39-25-58-51-55-5 3-8 16-8 39 6 52-1 104-19 156l12 4m-129-8c18-80 20-134 7-160-13-21-30-32-50-35-19 0-26 9-24 28 3 7 8 18 16 31 26 34 39 79 39 136h12M168 910l90-47h-8c-10 0-21-11-31-35-3-10-13-34-31-70 5 10 1 1-12-28h97l43 47 71-66H168c-31-65-56-111-74-137h160l43 43 74-66H223V402h43l47 43 62-62v-4H223V133l148 117 12-12c-16-15-35-36-59-62-73-76-117-124-133-145l-46 47c13 16 19 37 19 63v238H70l-50-12-16 35h160v149H82c-23-42-47-74-70-98l-12 8c73 141 129 290 168 449Z"/></symbol><symbol id="𫟼_G" viewBox="0 0 1000 1000" data-size="21"><path transform="matrix(1 0 0 -1 20 945)" d="M168 891c60-26 90-41 90-43l-12-12c-16-10-25-18-27-23-21-50-34-84-39-102h78l47 51 62-67-4-7H172c-5-11-12-24-20-40-23-46-41-82-54-105h144l43 47 67-67-4-3H211V367h43l51 47 58-62v-8H211V102l141 89 7-11C273 102 215 43 184 4l-51 43c15 21 22 40 19 58v239H86l-51-12-31 35h148v153h-11l-32-12-19 19c-5-7-14-20-27-39-24-31-41-53-51-66l-12 8c81 140 137 294 168 461m512-8 105-47-39-31c0-19-1-52-4-102v-86h67l50 55 75-70-4-8H738c0-52-4-98-11-137 114-94 173-169 175-227-2-33-14-53-35-58-8 0-14 9-19 27-19 76-60 153-125 231-19-117-78-213-180-285l-12 7c102 110 153 257 153 442h-82l-47-12-20 35h149c2 86 1 175-4 266M520 121c49-44 125-62 226-55 37 0 94 2 172 4 21 3 35 4 43 4v-4c-39-10-64-32-74-66-84 0-166 5-246 16-32 5-71 24-118 58-20 18-35 27-43 27-23 0-57-35-101-105l-51 55c39 26 81 49 125 70v332h-51l-35-8-15 31h86l42 47 71-58-39-31V125c2 0 5-1 8-4M402 813c89-60 131-109 125-145-2-26-18-42-47-47-13 0-19 9-19 27-3 53-25 103-66 153l7 12Z"/></symbol><symbol id="𫟽_G" viewBox="0 0 1000 1000" data-size="21"><path transform="matrix(1 0 0 -1 25 967)" d="M648 172c0-55 4-102 12-141-23-15-49-26-78-31 8 65 12 116 12 152v524H410l-55-12-31 35h270v141c-84-5-153-8-207-8l-4 16c221 18 367 47 437 86l51-79c-21 6-51 4-90-3-36-6-80-8-133-8V699h176l55 51 70-66-4-8H648V172m-175 23v71c2 41 4 65 4 70-71-34-114-63-129-86l-43 63c62 13 119 27 172 42v149h-94l-43-12-27 35h164c0 19-3 51-8 98l90-39-32-27V324c0-49 2-83 4-101-5-8-23-17-54-28h-4m379 86c23-5 36 30 39 106h15c-2-63 11-95 39-98-10-34-30-52-58-55H773c-41-2-61 20-58 67v222c0 26-1 59-4 98l86-35-31-35V434c54 28 96 59 125 93l47-66c-16 5-33 4-51-4-37-16-77-30-121-43V313c-3-24 6-34 27-32h59M160 930c44-16 77-29 98-39 0-3-3-6-8-8-18-5-31-16-39-31-8-21-22-54-43-98h105l43 51 71-67-4-4H156c-21-52-45-100-74-144h168l39 51 74-71-4-4H227V422h62l35 43 67-59v-4H227V156l148 90 12-8c-91-75-151-134-180-175-5-6-10-7-16-4-2 2-17 20-43 54 13 13 20 32 20 55v234H94l-51-11-27 31h152v144H70c-5-5-13-15-23-31-18-23-31-39-39-47l-8 8c78 141 132 285 160 434Z"/></symbol><symbol id="𫟾_G" viewBox="0 0 1000 1000" data-size="21"><path transform="matrix(1 0 0 -1 12 945)" d="M508 891c44-21 70-37 78-47l-4-4c-18-8-38-31-59-70h192c2 0 10 7 23 23l20 23c34-26 60-49 78-70-34-10-53-18-59-23-47-58-83-97-109-118 75-46 178-78 309-93v-8c-47-3-77-18-90-47 0-3-29 5-86 23-58 21-113 53-168 94-70-57-167-105-289-144l-8 15c122 55 210 108 262 160-39 32-75 69-106 114-39-60-81-114-125-160l-12 11c76 107 127 214 153 321m-332 0 86-47c0-5-3-9-8-12-11-3-20-9-27-19-16-40-30-75-43-106h86l46 59 71-75-8-7H172c-8-21-21-50-39-86-11-24-18-41-24-51h141l43 55 70-71-4-8H215V383h51l47 51 66-67-4-8H215V129c10 10 30 31 58 62l67 67 12-12c-11-13-24-30-39-51-71-91-111-151-122-179l-62 39c23 21 34 40 31 58v246H66l-43-11-23 35h160v140H94c-16-26-35-54-59-85-5-8-9-14-12-16l-11 8c62 101 117 255 164 461m422-477c57-18 86-29 86-31l-16-12c-8-8-12-13-12-16v-66h129l39 47 74-59-3-11H656v-98h90l39 43 74-59v-7H656V31h172l43 43 86-62-4-4H336l-47-8-23 31h336v114H492l-47-8-23 31h180v98H457c-47-63-89-110-125-141l-12 8c63 81 108 166 137 258 55-21 81-33 78-36 0-2-2-3-8-3-20-11-39-32-54-63h129l-4 125m-86 332c36-44 74-82 113-113 36 31 68 69 94 113H512m215-246 82-62-4-8H512l-47-8-24 31h247l39 47Z"/></symbol><symbol id="𫟿_G" viewBox="0 0 1000 1000" data-size="21"><path transform="matrix(1 0 0 -1 21 951)" d="M727 883c54-29 82-44 82-47s-4-5-12-8c-13-5-25-13-35-23-29-32-56-67-82-106h133l42 51 75-70-4-4H633c-8-58-15-98-20-121h133l43 50 70-66v-8H609c-10-52-20-91-31-117h258l35 51 70-67-3-7H570c-21-60-40-103-58-129h246l35 47 62-63v-8H680V47h140l55 47 82-63-4-4H441l-46-15-24 35h250v191h-70l-28-8-15 20C453 156 365 73 242 0l-15 12c153 112 250 238 289 379h-98l-43-16-23 39h171c16 55 25 94 28 117h-94l-27-8-24 32h149c10 60 15 100 15 121H441l-39-12-23 35h266c20 34 46 90 78 168 2 8 4 13 4 16m-250 0c44-26 76-55 97-86 18-47 7-72-35-74-5 0-9 9-12 27-10 47-31 89-62 125l12 8m-321 19c63-28 94-44 94-47 0-2-10-13-31-31-8-5-17-21-28-47-7-23-14-43-19-58h74l43 51 70-67-4-8H164c-29-67-51-113-66-136h129l39 43 74-63v-4H215V395h31l35 54 74-66-3-8H215V156l164 121 12-11c-29-32-67-69-114-114-62-57-96-92-101-105-3 2-21 18-55 47 0 2 3 6 8 11 21 19 31 37 31 55v215H78l-47-16-23 36h152v140H90c-21-34-47-69-78-105l-12 8c76 135 128 290 156 464Z"/></symbol><symbol id="𫠀_G" viewBox="0 0 1000 1000" data-size="21"><path transform="matrix(1 0 0 -1 8 971)" d="m887 914 78-70-4-4H480c-33 2-48-11-42-39V613c0-15-2-39-4-70v-55h136v145h-58l-32-8-19 31h109v157c52-21 78-33 78-36 0-2-7-10-23-23v-98h125l-4 157c50-19 78-32 86-40l-12-11c-13-11-19-17-19-20v-86h39l39 51 70-70v-4H801V488h51l54 59 78-78-4-4H496l-43-8-19 27c-3-138-16-238-39-300-21-60-66-120-133-180l-20 12c63 70 102 143 117 218 16 71 24 210 24 418v239l70-32h387l47 55m-47-492c2 0 25-16 66-47l-11-12c-11-8-16-13-16-15l8-321c-19-10-39-14-63-11v66H555V20C531 7 510 0 492 0l4 410c0 3 22-6 67-27h246c18 26 28 39 31 39M164 941c60-26 90-40 90-43 0-2-5-6-16-11-13-11-22-20-27-28-3-5-13-30-31-74-6-13-8-21-8-23h66l47 47 63-67-4-4H164c0-2-1-6-4-11-26-63-48-109-66-137h140l43 51 63-67v-8H207V426h39l51 47 58-63v-8H207V184l137 86 11-8c-80-76-134-133-160-172-5-5-9-8-11-8l-43 43c-6 5-4 10 4 16 7 7 10 18 7 31v230H82l-47-15-31 39h148v140h-15l-32-11-19 23c-5-8-14-22-27-43-21-31-37-52-47-62l-12 4c81 153 135 308 164 464m664-714H555V105h273v122m-4 132H582c-23 3-33-6-27-27v-86h269v113m-74 274H625V488h125v145Z"/></symbol><symbol id="𫠁_G" viewBox="0 0 1000 1000" data-size="21"><path transform="matrix(1 0 0 -1 20 938)" d="M480 328c118 5 215 11 293 16-15 18-36 36-62 54l8 8c57-18 101-41 133-70 18-29 9-50-28-63-5 3-11 10-19 20-6 16-12 27-20 35-159-18-268-36-328-55-5-2-13 2-23 12-8 13-17 31-28 55 0 2 5 4 16 4 21 5 39 13 55 23 46 31 84 65 113 102H430l-47-8-24 31h243v94H496l-55-8-27 31h188v86l86-35-36-23v-28h94l43 43 66-62-3-4H652v-94h161l46 47 71-66-4-4H633c2-3 9-8 19-16 13-13 19-19 16-19l-8-4c-23-3-42-9-55-20-52-36-93-64-125-82m16 543 90-39-35-31v-39h156v105l82-35-27-27v-43h43l50 51 71-67-4-4H762v-66c-21-18-39-26-55-24v90H551v-70c-11-11-29-17-55-20v90h-58l-47-12-24 32h129v109M797 27v180h-82V27h82M402 262l71-32h316l24 40 74-55-35-27V27h7l43 39 59-54-4-4H379l-55-8-19 27h97v235M668 27v180h-82V27h82m-133 0v180h-62c-11 0-16-6-16-19V27h78M184 875l93-43c0-3-4-5-11-8-19-10-30-19-36-27-2-8-9-27-19-59-8-15-13-28-16-39h86l35 47 71-62-4-4H184c-21-42-46-88-75-137h168l36 47 66-63v-7H234V383h71l35 47 58-67v-4H234V109l137 102 12-12c-16-13-37-32-63-58C245 70 202 29 191 16l-43 43c21 7 32 23 32 46v254H90l-51-11-12 35h153v137H94c-31-45-59-77-82-98l-12 8c29 36 64 97 105 183 50 117 76 205 79 262Z"/></symbol><symbol id="𫠂_G" viewBox="0 0 1000 1000" data-size="21"><path transform="matrix(1 0 0 -1 92 955)" d="M734 879c37-21 64-40 82-59 0-2-6-7-19-15s-20-13-20-16c3-463 4-700 4-711-5-31-38-57-97-78-3 44-39 76-110 94l4 8c104-16 151-12 141 11v696H363l-54-4-16 27h406c3 0 11 10 24 31l11 16M12 793c10-5 23-10 39-16 36-18 53-28 51-31 0-3-4-5-12-8-13-2-20-9-20-19V35C49 17 26 5 0 0c10 141 14 405 12 793m347-27c50-21 77-36 82-43 0-3-3-6-11-8-13-5-21-11-24-16 71-117 170-194 297-230l-4-16c-36 8-66-5-90-39-93 68-166 158-218 270-55-110-148-209-278-297l-15 15c135 112 222 233 261 364m110-653c10-39 1-62-28-70-5 0-13 8-23 23-36 60-96 115-180 164l8 12c52-18 96-38 133-58 39 52 81 104 125 156H230l-35-8-23 31h324l47 39c39-31 60-53 62-66l-7-4c-21-5-38-14-51-27-11-8-27-22-51-43-36-37-69-67-98-90 34-18 58-38 71-59M90 910c62-23 112-52 148-86 21-47 11-79-31-97-8 0-14 10-19 31-21 62-55 110-102 144l4 8m238-363c55-29 87-52 98-70 18-39 8-66-31-79-6 0-11 10-16 28-13 44-34 82-63 113l12 8Z"/></symbol><symbol id="𫠃_J" viewBox="0 0 1000 1000" data-size="21"><path transform="matrix(1 0 0 -1 63 936)" d="m0 871 75-39h108l20 39 67-48c10-7 15-14 15-19 0-7-8-11-24-11h-15L140 559c39-39 66-73 83-100 25-42 38-89 38-142s-14-91-42-113c-20-16-43-24-68-24-10 0-15 6-16 19-1 10-2 17-3 20-2 3-7 7-16 10l-38 13v16h97c11 25 16 56 16 91 0 55-26 125-78 210 28 95 50 177 66 246H62V16L0 0v871m332-4 76-43h314l20 43 63-44c10-7 15-13 15-18 0-6-6-11-17-14l-18-6V442l-63-12v39H394v-47l-62-16v461m62-371h328v141H394V496m0 168h328v133H394V664m63-238 70-11c13-2 20-6 20-11 0-6-6-10-17-13l-15-4V62h75v364l70-11c13-2 19-6 19-12s-5-10-16-12l-15-4V62h94l47 67 86-74V35H257l-11 27h211v364m-168-70 11 7c38-37 67-74 86-111 19-35 28-67 28-94 0-33-12-49-37-49-10 0-16 8-19 25-18 95-41 169-69 222m484 23 71-41c10-6 15-12 15-17 0-9-7-14-21-15l-22-1-117-192-20 8 94 258Z"/></symbol><symbol id="𫠄_T" viewBox="0 0 1000 1000" data-size="21"><path transform="matrix(1 0 0 -1 30 961)" d="m69 616 60-31h210l30 35 36-25c5-3 9-7 13-11s6-8 7-11c0-3-1-7-4-11l-15-9-12-7v-78l11-8c5-5 9-8 11-10 1-2 2-5 2-8-1-6-5-9-11-9H275v-93h57l39 40 56-42c6-6 9-11 7-17-2-5-6-8-12-8H275V190h81l39 39 56-42c6-5 9-11 7-16-2-7-6-10-12-10H275v-36c0-2 1-12 2-30l3-47c1-14 1-22 1-26 1-3 0-7-1-10-4-7-10-11-20-11-13-1-21 1-25 6-3 5-5 10-5 14v140H83c-6-3-14-5-24-6-9-1-15 1-17 6s-2 11-1 17l23 133c-6-1-13-2-19-2l-21 43c12-3 29-6 51-9 22-2 38-3 47-3h108v93H116v-15c0-3-2-6-6-10-4-3-9-4-16-5-15-1-24 1-26 7-3 6-4 12-3 18l2 20 1 28c1 14 2 22 2 24l-1 116m161-426v123H113L90 190h140M116 460h231v98H116v-98m42 358 5 31c1 6 3 20 5 42l4 31 52-8c26-4 38-11 37-21 0-7-10-13-28-16l-18-4-9-55h117l30 35 35-24c4-3 9-7 13-11 4-5 7-9 7-12 1-3 0-7-4-11 0-1-9-6-27-16v-89l39 39 56-41c7-5 9-11 7-17-1-6-6-9-12-9H91c-19 0-43-2-72-6L0 698c38-5 69-8 91-8h44l18 100h-36c-20 0-45-2-73-6l-19 42c37-6 67-8 92-8h41m25-128h147v100H201l-18-100m508-213c-21-5-48-10-79-16-31-7-58-12-79-17l-2-15c-2-8-6-14-12-17-7-2-13 4-19 20l-20 49c10 7 20 21 32 40s30 51 54 95c24 45 39 72 44 83 6 11 13 28 24 52h-96c-28 0-52-2-70-5l-18 42c42-6 72-9 88-9h145c-4 5-7 8-9 10-1 3-4 12-7 28-4 16-10 30-20 44-8 13-22 29-40 49l11 13c57-39 88-66 93-83s8-29 6-39c-1-9-6-16-15-22h128l46 50 57-52 5-5c3-4 3-8 2-12-2-6-6-9-12-9H693c-27-50-52-93-75-127s-55-79-96-133c56 2 117 7 185 12 14 24 26 47 37 70s25 53 42 92l55-28c13-7 20-14 20-21s-8-12-25-13l-20-2c-6-12-23-42-49-92-26-49-63-98-112-148-49-49-110-93-183-133l-9 19c42 28 81 59 119 93 37 34 73 80 109 137m47-247c6-4 23-15 52-34l28-19c12-8 30-23 55-44 24-21 38-39 44-54 6-14 8-26 5-35-1-6-6-13-15-22-8-9-19-4-33 14-3 3-7 11-14 23-6 12-15 27-28 45s-23 30-29 37c-7 7-18 18-35 33-17 16-32 29-44 38-37-36-76-71-117-104S505 44 422 16l-6 18c32 16 63 33 90 49 28 16 58 38 90 66s64 58 97 92 62 76 88 126 45 89 57 117l52-26c7-4 13-7 17-11 4-3 5-7 4-12-1-3-3-6-6-8-3-1-9-3-18-4l-20-3c-11-20-26-44-44-72-18-29-30-47-36-54-5-8-22-29-49-64Z"/></symbol><symbol id="𫠅_G" viewBox="0 0 1000 1000" data-size="21"><path transform="matrix(1 0 0 -1 18 977)" d="M156 953c60-21 90-32 90-35s-6-8-19-16c-11-5-16-10-16-15V770h66l39 54 79-70-4-8H211V609h59l43 59 78-74-4-8H211V445h102c2 0 7 7 15 20s13 19 16 19c39-26 62-44 70-54l-8-4c-15-13-23-21-23-24-3-54-9-101-20-140-8-37-32-61-74-74l-4 7c-10 32-35 52-74 63V39c-16-8-37-16-63-23l4 410H47l-31-16-16 35h156v141H82l-31-8-24 31h129v137H59l-32-12-27 36h156v183m176-527H211V270c73-11 108-7 105 11 8 24 13 72 16 145m406 519 82-47c-13-7-23-16-31-27v-55h35l47 59 86-74-4-8H789V648c-13-10-30-16-51-19v39h-62V551h121l31 39 74-55c-2-5-9-12-19-19l-12-8c0-55 1-106 4-153-21-10-40-18-59-23v39H676V242h156l51 67 82-82v-8H676V23c-13-13-33-20-59-23l4 219H457l-51-12-19 35h234v129H480v-27c-13-13-29-20-50-20v262l54-35h137v117h-55v-27c-15-13-33-21-54-24v176h-63l-43-8-23 31h129v125l82-39-12-11c-10-8-16-13-16-16v-59h172v129M566 793V688h172v105H566m110-266V395h140v132H676m-55 0H512c-24 6-34-5-32-31V395h141v132Z"/></symbol><symbol id="𫠆_G" viewBox="0 0 1000 1000" data-size="21"><path transform="matrix(1 0 0 -1 37 963)" d="M375 152c10-18 9-36-4-54-10-21-21-22-31-4-3 2-5 6-8 11-16 27-43 63-82 110C201 145 121 76 12 8L0 23c99 84 171 162 215 235-39 47-90 101-152 164l11 16c71-53 127-98 168-137 37 57 68 122 94 195H125l-66-12-28 36h176v171H90l-55-15-31 35h203v113c0 42-1 76-4 102l98-43-35-28V711h70l43 59 78-75v-4H266V520h54l35 43 71-67-39-23c-32-81-65-151-102-211 47-45 77-81 90-110m473 746 78-70-4-8H703c-18-36-44-82-78-136h160c16 26 26 39 31 39 39-24 63-42 71-55l-12-8c-18-13-27-23-27-31 0-65 1-160 4-285v-78c-11-16-32-24-63-24v418H570c-26 3-37-10-35-39V258c-13-16-35-25-66-28 5 86 9 249 11 489l63-35h59c13 46 22 92 27 136H484l-43-11-23 35h383l47 54M633 590l90-39-12-12c-13-13-20-21-20-23 0-107-7-196-23-266 125-68 202-120 230-156 13-42 6-69-23-82-10 0-22 10-35 31-42 65-102 128-180 187C634 132 531 55 352 0l-8 12c135 62 216 125 242 187 36 63 52 193 47 391Z"/></symbol><symbol id="𫠇_G" viewBox="0 0 1000 1000" data-size="21"><path transform="matrix(1 0 0 -1 29 953)" d="M859 262c13-63-2-88-46-74-29 65-62 128-98 191-50-73-113-134-192-184 50-78 154-122 313-132 13-6 25 2 35 23 8 13 18 49 31 109 3 13 6 22 8 28l12-4c-11-97-4-160 19-192 3-15-2-24-15-27-167 0-298 33-395 98-83 67-125 186-125 355v344H160c-18 2-26-7-23-27 0-243-8-411-24-504C100 172 68 83 16 0L0 4c36 70 60 147 70 230 11 86 16 232 16 438 0 91-1 152-4 183l70-35h239l35 47 78-66-43-20V461c0-107 17-190 51-250 78 70 136 141 176 211-42 65-93 134-153 207l12 12c52-52 107-111 164-176 31 68 52 147 62 238H563l-51-19-28 43h348l35 50 74-66v-8H832c-18-112-48-204-90-277 65-78 104-133 117-164M320 727c55-26 80-41 75-43l-4-4c-16-6-29-24-39-55-11-44-29-100-55-168 52-89 83-155 94-199 2-37-15-63-51-78-11 2-18 22-24 58-10 60-24 115-43 164-39-88-89-166-152-234l-12 8c55 78 101 169 137 273-23 71-53 151-90 242l12 8c16-34 38-77 66-129 16-34 28-57 36-70 28 86 45 161 50 227m305 179c68-41 104-70 109-86 8-26 2-49-19-70-18-18-30-14-35 12-6 54-28 100-67 136l12 8Z"/></symbol><symbol id="𫠈_G" viewBox="0 0 1000 1000" data-size="21"><path transform="matrix(1 0 0 -1 18 955)" d="M398 246c6-26-1-51-19-74-16-11-26 0-31 31-16 81-35 145-59 192-39-99-94-192-164-278l-12 8c63 107 112 217 149 332-21 47-60 112-117 195v-27c5-307-40-516-133-625L0 8c68 125 99 321 94 590 0 104-2 203-4 297l70-40h231c18 27 28 40 31 40 26-16 48-33 66-51-2 0-14-11-35-31-15-271-6-459 27-563 50 36 92 72 125 105v391c63-26 90-40 83-43 0-2-6-6-16-12-5-5-11-9-16-11V418c55 70 106 187 153 352 5 15 9 40 11 74 3 21 6 36 8 47 60-34 87-52 82-55 0-3-5-5-15-8l-16-8c-65-237-139-392-223-465v-62c-5-34 15-50 59-47h66c34-5 51 52 51 172h12c2-102 19-156 51-164-11-37-40-57-86-63H699c-67-5-99 29-94 102v16c-33-26-71-51-113-75 34-75 86-122 156-140 42-11 89-17 141-20 47 0 74 4 82 12 13 10 26 60 39 148h12c-5-91 6-147 35-168 5-2 8-5 8-7-11-19-55-30-133-36-70-2-138 6-203 24-78 21-139 74-184 160-21 42-34 107-39 195-8 84-10 227-8 430H188c-29 3-43-12-43-43V668l7 8c21-29 49-67 82-113 21-27 36-45 43-55 19 73 32 148 39 226l75-35c0-2-4-6-12-11-8-6-12-10-12-12-13-78-31-153-54-223 44-70 72-139 85-207m446 387c70-60 109-107 117-141-3-62-22-83-59-62 0 5-1 13-4 23-2 52-24 110-66 172l12 8m-313-8h8c18-76 22-137 12-184-5-26-18-41-39-46-32 0-46 10-43 31 2 5 6 12 11 19 32 37 49 97 51 180m94 285c70-39 111-70 121-94 0-54-14-75-43-62-13 49-42 99-86 148l8 8Z"/></symbol><symbol id="𫠉_J" viewBox="0 0 1000 1000" data-size="21"><path transform="matrix(1 0 0 -1 60 946)" d="M111 338v547l84-43h512l41 50 80-59v-18H475V703h173l42 50 76-55v-23H475V566h175l46 57 84-65v-20H475V414h296l25 44 71-48c8-6 12-12 12-17 0-7-4-11-12-14l-23-8c-2-50-9-102-20-157-16-79-42-136-78-169-19-17-39-29-62-38-12-5-21-7-28-7-3 0-5 0-7 1-3 2-6 12-8 30-2 12-9 20-22 23l-78 21v17h155c27 22 47 55 60 99 16 59 24 124 24 196H175v-38l-64-11m64 200V414h232v124H175m0 137V566h232v109H175m0 140V703h232v112H175M13 241 0 269h560l53 65 96-71v-22H13Z"/></symbol><symbol id="𫠊_G" viewBox="0 0 1000 1000" data-size="21"><path transform="matrix(1 0 0 -1 25 953)" d="M598 906c67-39 106-70 117-93 8-40-7-66-43-79-8 0-16 13-24 39-10 53-30 93-58 122l8 11m269-117 82-74-4-8H633c44-23 66-38 66-43 0-3-2-4-8-4-20-8-37-21-50-39-42-68-90-134-145-199l211 12c34 49 63 104 86 164 57-37 86-58 86-63 0-2-3-4-8-4-21-5-38-15-51-31-114-161-225-292-332-391l317 8c-29 60-64 113-106 160l8 8c112-75 177-142 195-199 0-57-20-86-62-86-8 3-14 21-20 55-2 21-5 35-7 43-191-11-309-28-356-51-3-3-5-4-8-4-15 21-27 40-35 59l8 3c16 11 30 21 43 32 55 49 129 138 223 265-107-15-175-34-204-54-2 0-9 4-19 11-8 8-17 24-27 47 13 8 28 25 46 51 65 96 106 180 121 250H484l-54-12-28 35h426l39 59m-547 70c29-18 52-40 71-66l-16-12c-16-10-25-18-27-23l-39-336h11l12 16c10 10 17 16 20 19 23-18 43-36 58-55l-12-7c-13-11-19-17-19-20-8-128-22-216-43-266-29-54-70-88-125-101-3 0-5 2-8 8-5 36-36 62-94 78l4 8c65-11 111-12 137-4 36 20 61 121 74 300H133c-5 0-12-5-20-15-8-8-13-12-15-12-26 18-42 33-47 43 0 3 2 4 8 4 10 10 17 25 19 43 5 18 17 108 35 269 58-23 86-37 86-42l-11-8c-16-8-25-16-28-24-5-41-14-120-27-234h113l51 375H102l-43-8-24 31h242c6 0 16 9 32 28l11 11m-35-550 4-12c-83-29-156-56-219-82-26-11-39-14-39-12-10 8-21 29-31 63l27 4c76 7 162 20 258 39Z"/></symbol><symbol id="𫠋_G" viewBox="0 0 1000 1000" data-size="21"><path transform="matrix(1 0 0 -1 19 959)" d="M590 918c57-23 94-46 109-66 5-26-4-50-27-71h160l51 55 78-74-4-4H750V629h78l31 43 75-59-36-23 4-152c-26-19-47-28-62-28v35H457c-3-195-60-343-172-445l-15 12c57 75 92 153 105 234 18 83 27 231 27 442 0 44-1 88-4 132l75-39h175c-5 3-9 12-11 28-8 41-26 75-55 101l8 8m-43-160h-47c-29 2-43-9-43-35 3-24 4-55 4-94h86v129m148 0h-90V629h90v129M547 605h-86c0-70-1-115-4-136h90v136m58 0V469h90v136h-90m235 0h-90V469h90v136M496 414l82-31-31-35v-59h31l35 39 55-55-4-7H547V105l101 59 8-8C578 99 533 56 520 27c-3-2-10 0-20 8s-22 20-35 35l4 4c18 11 27 26 27 47v293m195 8 82-43-31-31v-94c63 36 110 74 141 113 21-26 36-49 47-70 0-3-8-5-24-8h-27c-70-26-116-46-137-59V98c-5-19 13-26 55-24h62c29-10 49 35 59 137h8c0-81 12-122 35-125 3 0 1-9-4-27-3-21-31-33-86-36h-90c-65-5-95 17-90 67v332M270 855c10-7 33-26 70-54l-16-12c-15-10-25-18-27-23-8-71-17-181-27-332h7l8 11c11 16 17 24 20 24l58-51c0-3-6-8-19-16-11-7-16-14-16-19-23-169-42-271-55-305-18-42-54-64-109-66-3 0-4 4-4 11-5 32-34 54-86 67l-4 8c89-16 138-17 149-4 18 28 38 133 58 312H117l-23-23c-16 10-34 22-55 35 24 10 35 31 35 62 0 8 2 30 4 67 8 73 14 141 20 203l78-39c-3 0-5-1-8-4-21-16-31-35-31-59 0-7-2-26-4-54-11-102-17-155-20-160h102l35 359H82l-47-8-15 31h218c5 0 16 13 32 39m-20-550v-12c-76-26-141-52-195-78-13-5-21-8-24-8-21 34-31 55-31 63 3 0 16 1 39 3 73 8 143 19 211 32Z"/></symbol><symbol id="𫠌_G" viewBox="0 0 1000 1000" data-size="21"><path transform="matrix(1 0 0 -1 33 957)" d="M852 914c59-29 87-44 82-47l-16-15c-10-8-16-13-16-16 3-474 4-727 4-758-5-34-32-60-82-78v4c3 39-34 69-109 90v8c94-11 139-11 137 0 2 10 3 108 3 293 0 192-1 365-3 519M734 730c39-15 64-28 75-39 0-2-8-9-24-19l4-395c-13-10-30-18-51-23v289c0 70-1 133-4 187m-58 153 58-63v-7H578V707h39c5 5 11 10 16 16 10 10 21 11 31 4 10-8 24-21 39-39l-12-12c-10-5-15-9-15-12 0-21 1-49 4-86 0-49 1-77 4-82-13-8-32-14-55-19v31H395v-24c-13-7-29-11-47-11v257l54-23h43v106h-66l-43-12-23 35h320l43 47m-137-70h-55V707h55v106m-94-125h-35c-13 5-18-3-15-24V527h50v161m94 0h-55V527h55v161m90 0h-51V527h51v161m-4-219 59-59v-4H406l-39-8-19 32h242l35 39m47-94 58-59-3-7H543V90c-3-47-25-74-66-82-3 0-6 4-8 12-13 31-43 54-90 70l4 12c88-19 126-19 113 0v207H375l-47-8-19 31h332l31 43M402 273c50-28 75-45 75-50 0-3-3-4-8-4-18 0-37-12-55-35-3-3-6-8-12-16-34-44-69-78-105-102l-8 12c47 55 85 120 113 195m168-11c58-29 98-58 121-86 21-39 13-65-23-78-8 0-16 9-23 27-16 49-42 91-79 125l4 12M234 863c32-15 54-34 67-54-18-8-28-13-28-16l-35-355h16c3 2 8 9 16 19l7 12c24-13 42-31 55-55l-12-8c-13-8-19-14-19-19 0-3-2-12-4-28-13-158-25-248-35-269-16-37-51-63-106-78v4c-2 31-35 58-97 82l4 4h23c65-13 103-13 113 0 18-8 38 96 59 312H125c-3 0-10-6-23-19-8-8-17-10-28-4-10 7-21 18-31 31l8 8c10 8 15 13 15 15 3 11 11 112 24 305l86-55c-3-2-16-11-39-27l-20-230h74l36 367H74l-43-8-19 31h199c13 21 21 33 23 35m-7-550 3-8c-75-37-134-68-175-94-11-8-17-12-20-12-15 18-27 38-35 59l16 4c60 10 130 27 211 51Z"/></symbol><symbol id="𫠍_U" viewBox="0 0 1000 1000" data-size="23"><path transform="matrix(1 0 0 -1 78 918)" d="M245 273H95v-27c-1-4-5-8-12-12s-19-6-36-6v333l-33-38-14 10c11 17 22 37 33 60s22 47 32 73c10 27 19 54 28 83s16 58 23 87l82-24c-2-5-5-9-9-12-4-2-11-3-22-3-4-11-8-23-13-34-4-11-8-22-13-33h62l33 35 61-61c-3-3-8-5-13-6s-13-1-22-2c-9-13-21-30-34-51-13-20-25-38-37-54h55l21 30 60-50c-8-8-19-13-34-16V255c0-1-3-4-10-9-6-5-19-7-38-7v34M95 569V446h53v123H95m150 0h-53V446h53v123M95 424V295h53v129H95m97-129h53v129h-53V295m-22 296c6 17 12 37 18 59 7 22 13 42 18 59h-74c-9-19-18-38-27-55s-19-34-29-51l30-12h64m307-186V135l115 27c1-6 2-10 2-11 1-1 1-2 1-3-25-11-57-26-94-43s-81-35-131-55c-4-11-11-19-20-22l-31 68c-5-3-10-5-13-5-2 0-6 1-12 3-6 3-9 6-9 10 0 18-4 37-13 57-9 21-19 38-31 51l9 7c31-14 52-29 64-46s18-32 18-45c0-7-2-14-5-22 12 2 26 5 43 8s37 7 58 12v279H325l-6 21h109v130h-63l-6 20c-6-9-12-18-19-26-7-7-13-15-20-22l-13 8c12 19 24 40 35 64 11 25 22 50 31 76 10 27 19 53 26 80 8 27 14 52 19 75l91-7c-1-5-3-9-8-12s-13-5-24-6c45-38 75-71 92-99 17-27 25-50 25-68 0-13-3-24-9-31s-13-11-22-11-18 5-26 15c-3 23-10 50-21 82s-25 64-44 97c-13-34-29-70-48-108s-40-73-64-106h114l31 46 62-47c-3-7-8-13-14-16s-15-4-26-4h-50V426h18l34 49 63-52c-3-7-8-11-14-14-5-3-14-4-25-4h-76m-135-48c23-28 38-54 47-78 9-23 14-44 14-61s-3-31-9-41-13-15-21-15c-7 0-14 4-21 13 1 4 1 8 1 13v14c0 25-2 52-7 79-5 28-10 52-17 71l13 5M67 198c5-17 9-33 10-48 2-15 3-29 3-42s-1-26-3-39-5-24-10-34c-5-11-11-19-19-25C41 3 32 0 21 0 14 0 8 2 5 7c-3 4-5 9-5 14s1 11 4 16 7 11 12 16c11 11 19 28 25 50 7 22 10 45 10 69v12c0 5 0 9-1 14h17m117 11c25-19 43-39 52-58s14-35 14-50c0-13-3-23-9-30-5-7-12-11-19-11-8 0-15 4-20 11v11c0 10-1 20-3 31-1 11-3 22-6 33s-6 22-10 32c-3 10-7 19-11 26l12 5m-64-10c17-21 29-41 36-60s10-35 10-50c0-17-4-31-11-41-7-11-14-16-23-16-8 0-15 4-21 13 4 18 6 38 6 61 0 16-1 32-3 47-2 16-5 30-8 43l14 3m655 347 69-57c-4-7-9-12-15-15s-15-4-27-4h-96V23c0-1-1-3-2-5-1-3-4-5-8-8-3-3-9-5-16-7s-16-3-27-3v470h-95l-6 22h101v344l91-8c-1-7-4-12-9-16-5-3-15-6-29-7V492h32l37 54M596 349c-1-5-4-9-7-12s-11-4-22-5c-7-25-16-52-26-81-9-29-19-53-30-72l-17 5c2 12 4 25 6 39 3 15 5 30 7 46s4 32 6 49 4 33 5 48l78-17Z"/></symbol><symbol id="𫠎_T" viewBox="0 0 1000 1000" data-size="21"><path transform="matrix(1 0 0 -1 31 963)" d="m588 180 57-38c3-3 6-8 8-16 2-7-5-11-21-9l-28 2c-39-31-76-55-112-74S418 11 378 0l-7 18c41 18 75 37 101 58 27 20 46 37 59 50s28 31 44 54h-68v-14c-1-4-4-7-9-11-4-3-11-4-20-2-5 1-9 3-13 5-3 2-5 5-7 8-2 2-3 7-3 14s0 17 1 30c2 14 2 25 3 35s1 29 1 57v187c-1 17-1 28-1 32l-4 31 56-39h293l33 37 41-27c7-4 12-9 15-12s5-7 5-11c-1-5-3-9-7-13s-15-10-33-17V309c0-20 0-38 1-54 0-16 1-28 1-37 1-8 1-15 1-20v-14c0-13-3-21-8-23-5-3-12-4-19-5-8-1-14 0-17 3-4 2-5 5-5 8v13H588m-81 232h305v74H507v-74m0-102h305v73H507v-73m0-102h305v73H507v-73m208-51c18-6 51-18 100-37 48-19 76-35 85-48 9-14 14-25 15-34 1-10-2-17-9-23-7-5-13-8-20-6-5 0-10 3-15 8-5 4-11 9-16 15l-20 22c-14 13-33 28-58 44-25 15-49 29-72 40l10 19M52 640c-12-12-24-23-35-33L3 621c21 24 41 52 60 83 18 31 31 53 37 68s12 31 17 47 9 31 13 47c4 15 8 35 12 60l58-14c18-4 26-10 26-18 0-9-8-14-24-16l-15-2-19-58h90l32 31 37-27c8-7 13-12 16-15 3-4 4-8 4-12 1-4-1-7-4-9s-10-4-21-8l-15-4c-35-58-60-99-75-121h82l30 35 35-24c7-5 13-10 17-15 5-5 5-11 0-18-2-2-11-8-28-17V367c0-4 0-13 1-27s2-25 3-31c0-7 1-11 1-15-1-6-3-11-6-16-3-4-11-6-22-7-15-3-23 1-23 11l-1 19H98v-17c0-4-2-7-6-10-3-3-9-5-17-5-8-1-15 1-20 4-3 2-6 5-7 7-1 3-1 8-1 13 0 2 0 7 1 16 1 8 2 19 2 30 1 12 2 21 2 26v275m26 28 27-15h98c17 40 27 63 30 69l25 68H157c-14-29-28-52-40-69-12-18-25-35-39-53m20-175h88v132H98V493m134 132V493h89v132h-89m89-159h-89V329h89v137m-223 0V329h88v137H98M76 211h19c0-6 0-18-1-36 0-17-1-30-2-38 0-8-1-20-4-35-3-16-6-29-10-39-4-11-10-21-19-32S40 14 28 13c-10-2-18 1-22 6S0 30 1 36c0 5 3 11 8 17l15 15c13 14 23 27 28 40 5 12 10 27 14 45 5 17 7 29 8 34l2 24m81 6c5-13 10-28 15-44s10-31 14-45 6-29 7-45c0-15 0-25-1-30-3-7-7-12-12-16s-13-5-22-4c-9 2-13 9-13 22 0 2 1 6 1 12 1 6 2 14 3 24s2 18 2 25c0 3-1 13-2 28-1 14-2 23-2 26l-4 21-4 20 18 6m75 11c46-57 69-97 69-120 1-22-1-36-6-42-4-5-10-8-17-8-7-1-12 0-15 4-3 1-5 4-7 8-1 3-2 9-2 18 0 8-1 16-2 22-1 7-2 15-5 25-2 10-4 18-6 25s-5 14-8 22l-10 20-7 16 16 10m91 11c33-31 54-53 63-65 9-11 15-22 19-31s6-17 6-24c0-9-3-16-8-22s-11-9-17-9-11 1-14 4c-3 2-5 5-6 8-1 2-3 8-5 18-1 10-6 23-12 39-6 17-19 40-40 71l14 11m248 515v83h-76c-19 0-43-1-72-5l-20 42c40-6 71-9 92-9l325 1 45 50 65-51c5-5 8-11 9-18 1-6-3-10-11-10H758v-83h85l34 38 41-27c13-8 19-16 19-24 0-4-2-9-6-12-3-4-14-10-32-18l1-122c0-7-3-12-9-17-6-4-13-7-23-8s-15 3-15 10v19H475v-10c0-3-1-7-4-10s-8-5-15-7-12-3-15-3c-9 1-14 5-14 13v211l58-33h86m46 83v-83h96v83h-96m0-110V619h96v108h-96m-46-108v108h-96V619h96m187 108V619h95v108h-95Z"/></symbol><symbol id="𫠏_G" viewBox="0 0 1000 1000" data-size="21"><path transform="matrix(1 0 0 -1 21 959)" d="M418 258c-21-11-40-18-59-24v39H145v-54c-11-11-29-20-55-28 5 128 8 266 8 414-6-5-12-14-20-27-29-34-52-61-70-82l-8 8c89 128 148 266 180 414 8-3 18-8 31-16 39-18 56-28 51-31l-8-4c-13-5-21-10-24-15-15-29-29-54-42-75h113c2 0 9 9 19 28 8 10 21 8 39-8 21-13 37-26 47-39 0-3-2-4-8-4-36-13-80-56-132-129h82c13 26 20 39 23 39 31-18 55-34 70-47l-11-12c-11-7-16-13-16-15l4-332m215 652 97-39-39-35V664h110l39 59 86-75-4-3H723c39-227 117-377 234-450v-11c-44 5-73-4-86-28-3-2-27 17-74 59-44 44-74 187-90 430h-16V23C671 8 648 0 625 0l8 566c-52-195-140-350-262-464l-12 7c11 11 24 29 39 55 6 8 10 13 12 16-34-11-78-25-133-43C158 103 91 79 78 66c-2 0-18 19-47 55l16 4c81 10 206 35 375 74 75 115 131 263 168 446h-86l-47-12-23 31h199v246M305 754H180c-24-39-46-76-67-109l28-20h97c3 5 8 14 16 27 39 73 56 107 51 102M145 445V297h85v148h-85m214 0h-78V297h78v148M172 605c-21 3-30-6-27-27V469h85v136h-58m187 0h-78V469h78v136Z"/></symbol><symbol id="𫠐_G" viewBox="0 0 1000 1000" data-size="21"><path transform="matrix(1 0 0 -1 21 963)" d="m770 914 93-43-35-31V672h12l47 51 70-71-4-4H828V266c0-118 1-196 4-235-18-15-39-22-62-19v86H574V27c-10-13-31-22-62-27 5 83 8 173 8 270v378h-28l-47-7-23 31h98v234l97-47-43-27V672h196v242M574 648V418h196v230H574m0-250V113h196v285H574M188 926c52-29 78-44 78-47l-4-4c-13-5-24-14-32-27-5-11-14-25-27-43-5-11-10-20-15-28h113c2 0 10 9 23 28 5 8 15 8 28 0s30-24 50-47c0-3-4-5-11-8-19-5-34-14-47-27-21-21-45-50-71-86-7-8-13-15-15-20h90c2 0 7 7 15 20l16 15c16-5 38-19 66-43 0-5-6-11-19-19-8-8-12-13-12-16l4-316c-10-11-29-18-55-24v39H137v-35c-16-13-35-21-59-23 3 117 5 252 8 406-34-36-59-62-74-78l-12 8c76 112 138 237 188 375m117-172H176c-21-34-46-70-74-109l39-28h89c45 73 69 119 75 137m58-160h-90V465h90v129m-140 0h-59c-21 2-30-8-27-31v-98h86v129m0-153h-86V297h86v144m140 0h-90V297h90v144m67-250 4-11C288 138 176 104 98 78c-11-5-17-8-20-8-18 21-32 43-43 67 3 2 18 5 47 8 102 10 217 26 348 46Z"/></symbol><symbol id="𫠑_G" viewBox="0 0 1000 1000" data-size="21"><path transform="matrix(1 0 0 -1 21 961)" d="m621 922 90-35-27-24V508h132v125h-50l-32-8-23 31h105v117h-54l-32-11-23 35h98l35 43 58-51-31-23 4-289c-16-11-34-19-55-24v31H684V383h82l39 47 78-55c0-3-8-8-24-16-13-5-22-10-27-15-39-68-83-127-133-176 65-44 151-72 258-82V74c-47-2-77-22-90-58-75 28-146 67-211 117C578 73 466 29 320 0l-4 12c128 49 228 101 301 156-44 49-83 113-117 191l-59-15-27 39h215v101H500v-31c-13-13-33-22-59-27v390l71-27c34 21 58 42 74 63l43-36-8 106m-445 0c57-31 82-48 74-51 0-3-3-5-8-8l-19-19c-19-18-32-38-39-59h101l35 39 63-62-8-4c-36-21-79-64-129-129h59l27 43 74-51-35-31 4-293c-26-21-44-29-55-24v28H129v-31c-29-16-48-23-59-20 3 57 6 108 8 152v203L8 531l-8 8c89 146 147 274 176 383m453-117c-16-3-40-11-74-24-11-2-19-5-24-8-23-7-35-18-35-31v-82h47l35 35 43-50-4-8H496V508h133v297M527 359c42-67 84-121 125-160 47 47 86 100 118 160H527M398 207l8-19C263 141 151 100 70 66c-18-7-26-10-23-7L0 117c55 5 163 29 324 71 31 7 56 14 74 19M289 762H172c-13-29-35-65-67-110l47-23h63l74 133m31-305h-74V324h74v133m-117 0h-74V324h74v133m117 152h-74V480h74v129m-117 0h-55c-13 0-19-7-19-23V480h74v129Z"/></symbol><symbol id="𫠒_G" viewBox="0 0 1000 1000" data-size="21"><path transform="matrix(1 0 0 -1 18 969)" d="m160 918 82-39-8-4c-15-3-24-9-27-20-10-18-21-44-31-78h90c2 0 9 8 19 24 5 5 14 2 28-8 15-8 31-20 46-35l-4-4c-26-5-63-51-113-137h71c2 0 7 7 15 20 5 8 12 10 20 8 7-3 24-17 50-43l-11-12c-13-11-20-17-20-20l4-300c-18-11-35-19-51-24v47H129v-51c-16-8-33-13-51-15l4 375c-16-26-40-56-74-90l-8 8c73 119 126 252 160 398m469-723v106H512v-35c-13-11-32-17-55-20l4 313 70-28h254l28 35 66-50-31-32 4-199c-11-8-29-14-55-19v35H688V195h148l59 55 70-74-4-4H688l3-141c-7-13-28-23-62-31v172H438l-36-12-35 35h262m-35 743c54-21 88-42 101-63 8-21 2-43-19-66h117l51 46 70-66-4-4H758c5-2 10-6 15-12 32-18 47-30 47-35 0-2-2-4-7-4-29-13-62-50-98-113h121l39 43 74-62-4-4H469l-39-12-35 35h175c-5 5-9 17-11 35-8 45-26 81-55 110l8 7c49-28 83-56 101-82 8-26 0-49-23-70h101c0 3 3 8 8 16 29 78 44 127 47 148H469l-35-8-28 32h239c-3 5-6 13-8 23-5 31-22 63-51 94l8 12m203-532H512v-86h285v86m0 106H547c-26 2-38-7-35-28v-58h285v86M270 754H164l-59-117 24-20h94c20 44 36 90 47 137m105-578 4-24c-99-20-193-44-281-70-29-10-46-16-51-16-13 16-24 36-31 59 2 3 14 4 35 4 88 10 196 26 324 47M199 449h-70V316h70v133m51 0V316h70v133h-70m-51 145h-43c-23 2-32-8-27-31v-90h70v121m121 0h-70V473h70v121Z"/></symbol><symbol id="𫠓_J" viewBox="0 0 1000 1000" data-size="21"><path transform="matrix(1 0 0 -1 53 952)" d="M164 262v554l82-37h119l32 125 78-20c12-3 18-9 18-16 0-8-7-13-20-15l-21-4-55-70h239l33 48 71-45c7-5 11-10 11-16 0-5-5-10-14-13l-15-6V500l-63-8v30H227v-84h531l38 51 84-57v-21H227v-91h562l27 42 67-46c7-5 11-10 11-14s-5-8-14-12l-16-7c-11-93-25-159-42-196-18-39-44-65-78-76-23-7-40-11-52-11-9 0-15 7-16 20-1 11-2 18-3 20-4 5-21 10-51 17l-32 8v15l150-2c27 36 45 107 56 214H227v-23l-63-7m63 373v-86h432v86H227m0 118v-90h432v90H227M12 163 0 191h540l46 65 85-69v-24H12Z"/></symbol><symbol id="𫠔_J" viewBox="0 0 1000 1000" data-size="21"><path transform="matrix(1 0 0 -1 41 963)" d="m26 648-8 17c89 65 159 151 209 260l63-24c9-3 14-8 14-15 0-6-6-11-19-14l-21-5c-5-8-10-17-16-26h119l23 34 64-44c6-4 9-9 9-15s-7-10-21-12l-17-3c-49-79-114-152-193-217l65-29h64l18 110 73-13c15-3 23-7 23-11 0-7-9-12-26-15l-16-3-52-68h231l28 36 58-31c8-5 12-10 12-17 0-6-4-10-12-13l-11-4V362l-61-11v17H279v-45h448l42 56 85-63v-20H279v-50h518l29 34 66-43c9-5 13-11 13-16 0-7-7-12-21-15l-20-3c-12-44-21-74-26-91C815 37 770 0 704 0c-5 0-8 2-9 6-1 2-2 8-4 17-2 13-13 22-32 25l-31 5v19h121c22 21 41 70 58 147H279v-16l-63-7v376c-32-22-65-41-99-56-41-19-78-34-109-43l-8 18c101 45 182 98 242 159-5 8-11 17-17 28-13 29-35 49-64 60-50-41-95-71-135-90m335 166H230c-21-26-38-46-52-61 27 1 50-4 69-15 15-9 27-23 36-44 37 43 63 83 78 120m-82-363v-56h347v56H279m0 77v-50h347v50H279M138 231h23v-15c0-57-8-103-24-137-12-27-30-46-54-57-10-5-20-7-31-7-23 0-34 10-34 31 0 11 9 23 26 36 53 35 84 85 94 149m111-46 16 6c44-47 66-87 66-118 0-15-5-27-14-36s-19-14-31-14c-18 0-27 12-27 37 0 4 0 16 1 35 1 6 1 12 1 19 0 21-4 45-12 71m148-3 14 14c29-14 51-29 67-45 26-26 39-50 39-72 0-11-4-21-13-29-5-5-12-8-20-8-11 0-18 4-23 13-3 4-7 16-12 35-9 32-26 63-52 92m178 4 10 14c70-24 105-52 105-85 0-11-4-19-11-25-6-5-12-7-19-7-13 0-26 13-38 38-13 26-28 48-47 65m318 587-1-74v-6c0-15 2-24 6-28 3-3 10-6 19-9-5-33-35-49-91-50H571c-23 0-39 4-49 12-8 7-12 20-12 39v231l72-13c12-3 18-7 18-13 0-7-6-13-18-16l-15-4v-72c91 37 165 75 223 112l51-37c8-6 12-11 12-15 0-7-8-10-24-10h-22c-86-31-166-55-240-72v-70c0-9 2-15 5-18s11-4 22-4h179c23 0 41 3 52 10 14 8 26 27 36 56l17 51h15Z"/></symbol><symbol id="𫠕_J" viewBox="0 0 1000 1000" data-size="21"><path transform="matrix(1 0 0 -1 46 955)" d="M821 176H313v-13l-55-10v268l55-31h106l22 72H284v-25l-57-9v206c-23-24-45-46-68-65l-10 14c43 48 86 118 129 210H142V482c-1-117-12-208-33-271C86 140 55 79 16 26L0 38c23 49 42 102 56 160 14 59 21 138 21 235v422l76-36h290v90l79-10c14-1 21-5 21-12 0-5-5-10-14-14l-21-8v-46h261l41 52 81-56v-22H526l37-14c12-5 18-9 18-14 0-6-5-10-15-11l-19-3-31-30h205l34 41 66-47v-20H529v-51h136l31 36 65-45v-17H529v-52h136l33 41 63-47v-20H529v-52h219l41 46 70-50v-22H459l40-14c12-5 18-10 18-15 0-6-6-10-18-12l-16-2-31-29h232l26 35 54-37c10-7 15-12 15-17 0-7-5-12-15-14l-16-3V243l-56-9v29H313v-62h503l22 26 58-35c7-4 11-8 11-12 0-5-4-8-11-11l-18-6c-13-67-23-108-32-123-9-17-26-28-49-33-18-5-33-7-44-7s-17 4-16 11v4c1 1 1 3 1 4 0 6-1 11-3 15-1 3-8 6-21 9l-32 6v21h110c11 18 21 53 29 106M504 793H318l24-9c12-5 18-11 18-16s-6-9-18-12l-21-4c-7-10-14-20-22-31h181l24 72m-27-98H284v-51h193v51M284 488h193v52H284v-52m0 78h193v52H284v-52m408-277v75H313v-75h379M214 169c1-13 1-23 1-29 0-47-6-80-19-101-12-20-28-30-47-30-11 0-21 4-28 11-6 6-9 13-9 21 0 4 1 7 2 9 3 5 15 15 34 30 17 12 30 32 40 59 3 9 5 19 6 30h20m86-18c47-28 71-59 71-93 0-11-4-21-12-28-6-6-14-9-24-9-13 0-21 4-24 12-2 4-3 12-3 25s-1 23-2 32c-1 13-8 31-19 52l13 9m119 3c22-5 42-14 59-26 27-18 40-38 40-59 0-13-5-24-14-33-6-5-14-8-25-8-9 0-15 3-18 8-3 4-6 12-9 24-5 25-12 43-20 55-5 7-12 17-23 28l10 11m138 7c37-5 63-11 79-18 15-7 26-18 34-33 3-5 5-11 5-18 0-10-4-18-11-25-6-5-12-8-19-8-12 0-23 9-33 28-8 15-16 26-23 33-6 7-19 17-38 30l6 11Z"/></symbol><symbol id="𫠖_G" viewBox="0 0 1000 1000" data-size="21"><path transform="matrix(1 0 0 -1 29 961)" d="m621 922 82-35c-2-3-6-5-12-8-23-13-49-46-78-98h164l32 47 70-62-43-28c-8-156-16-238-23-246-14-23-46-41-98-54-3 46-37 75-102 85l8 16c3 0 8-1 16-4 75-18 117-15 125 8 5 10 9 42 11 94 3 47 6 88 8 125H566c-18 0-28-8-31-24V391h297l31 47 78-71-43-23c-7-172-20-268-39-289-31-34-65-52-101-55 5 36-29 68-102 94l4 11c78-18 126-22 145-11 15-3 28 88 39 273H547l-27-31-67 43 31 35v399l51-32h51c16 52 27 99 35 141m-23-219c52-15 83-34 93-55 13-18 15-35 4-50-15-19-28-19-39 0-8 31-28 63-62 97l4 8m136-410 79-78-4-8H504l-51-8-27 31h254l54 63M195 918c63-23 94-36 94-39s-3-7-8-12c-13-8-21-19-23-35-5-49-12-96-20-141h98l51 55 74-74-4-4H234C193 447 118 262 12 113l-12 8c94 182 152 365 176 547H74l-27-4-20 27h153c15 107 21 183 15 227m75-344c54-23 82-38 82-43 0-2-4-5-12-8-16-5-25-15-27-31-32-114-72-222-122-324l168 23c-2 26-15 64-39 114l8 4c52-58 87-107 106-149 2-34-12-55-43-62-8-3-15 9-20 35-3 18-5 31-8 39-101-29-164-51-187-67-24 21-38 38-43 51l4 4c15 8 28 28 39 59 39 99 70 217 94 355Z"/></symbol><symbol id="𫠗_U" viewBox="0 0 1000 1000" data-size="23"><path transform="matrix(1 0 0 -1 88 921)" d="M327 512c23 18 44 40 64 65 21 26 39 53 56 82s32 59 45 90 23 60 30 89l97-21c-1-5-4-8-8-10s-12-4-23-5c26-52 60-98 101-139s86-73 135-98l-1-12c-11-3-20-10-27-20-6-9-11-20-14-31-46 34-87 76-123 125s-64 104-84 165c-23-61-55-117-98-169-42-51-90-94-145-128l-5 9V74c0-1-4-5-12-11s-22-9-41-9v50H53V29c0-1-1-2-2-4-1-3-3-5-7-7-3-3-9-5-16-7S12 8 0 8v611l57-27h77v249l93-8c-1-7-4-13-9-16s-14-5-28-7v-82h79l35 50 69-52c-3-7-8-12-15-15-6-3-15-4-27-4H190V592h76l25 32 69-50c-5-8-16-13-33-16v-46m-53 58H53V181c18 28 35 58 50 89 16 32 30 65 41 99-13 19-27 38-41 56-13 19-26 35-39 49l12 8c17-13 32-25 45-36 14-11 27-23 39-34 7 23 13 44 18 65 6 21 11 42 14 61l82-26v58M53 125h221v383c-5-8-13-12-24-12-4 0-7 0-9 1-6-18-13-37-21-58-7-21-16-42-26-64 23-28 39-53 48-74s14-39 14-53c0-11-2-19-6-25-4-5-9-8-15-8-5 0-12 3-20 9-3 15-9 32-17 49-7 17-16 35-27 54-15-30-32-59-51-88s-39-55-62-79l-5 7v-42m651 153H599c6-21 14-41 25-62 11-20 25-40 42-59s38-38 62-55c25-17 54-33 87-47l-3-11c-13-2-24-6-32-11-8-6-13-17-16-33-29 16-54 35-75 56s-38 44-52 67c-14 24-25 48-34 73-8 25-14 49-19 72h-1c-5-25-14-50-25-74s-27-47-48-70c-20-22-45-43-76-63-30-19-67-37-111-53l-10 13c36 18 66 37 91 57s46 41 63 62c17 22 30 44 39 67 10 23 17 47 22 71h-95v-26l-2-3c-1-2-4-4-8-7-3-2-9-4-16-6-7-1-16-2-27-2v258l58-26h98v87h-96l-6 21h180l31 42 59-45c-3-7-8-11-14-14-5-3-14-4-25-4h-72v-87h104l23 29 68-47c-6-7-16-12-30-14V261c0-1-4-5-13-11-8-5-22-8-41-8v36m-271 22h98c2 13 3 25 4 38s1 27 1 40v66H433V300m271 144H593v-65c0-27-2-53-6-79h117v144Z"/></symbol><symbol id="𫠘_J" viewBox="0 0 1000 1000" data-size="21"><path transform="matrix(1 0 0 -1 33 949)" d="M389 323H288V30l-59-9v302H126c-9-69-23-128-40-176C71 104 46 55 13 0L0 10c46 115 70 250 71 406v290l72-32h176c52 93 87 165 106 215l69-36c11-6 17-12 17-17 0-6-7-10-21-12l-17-2c-9-9-37-43-84-100-17-19-32-35-45-48h38l23 36 59-45c9-7 13-12 13-16 0-5-4-10-13-13l-16-5V362c0-81 7-139 22-176 17-41 49-71 97-89 54-19 131-29 231-29 7 0 23 0 47 1l40 116 15-2-5-74c-1-29 11-44 38-45-3-14-9-24-18-31-12-9-24-15-37-18-19-4-42-6-71-6-169 0-283 27-343 81-25 23-43 53-53 89-11 37-18 85-22 144m-2 194v131h-99V517h99m0-26h-99V349h99v142M134 648l-2-3V517h97v131h-95m-2-157v-21c0-54-1-94-4-121h101v142h-97m440 215h99v191l83-9c10-1 15-6 15-15 0-6-5-10-14-12l-24-5V706h105l19 32 60-44c7-5 10-10 10-14 0-7-5-11-15-13l-16-3V205l-58-10v34H570v-67l-59-10v591l61-37m-2-450h101v199H570V256m0 226h101v197H570V482m161-226h105v199H731V256m0 423V482h105v197H731M50 853c41-16 74-36 98-60 19-20 29-41 29-64 0-22-10-33-30-33-7 0-13 2-17 7-3 3-10 18-19 45-17 37-40 69-69 94l8 11m156 39c63-53 95-102 95-145 0-13-4-24-12-32-7-6-14-9-23-9-8 0-14 3-19 9-3 5-8 26-14 63-5 28-18 63-40 104l13 10Z"/></symbol><symbol id="𫠙_T" viewBox="0 0 1000 1000" data-size="21"><path transform="matrix(1 0 0 -1 35 959)" d="m134 349-19 42c39-5 70-8 92-8h83l39 39 56-42c6-5 8-11 7-17-1-4-3-7-4-7-2-1-5-1-12-1H207c-16 0-40-2-73-6m184-127c36-25 57-44 63-56 8-12 11-23 11-31s-3-15-7-20c-5-6-10-9-17-8-7 0-11 2-14 7-3 4-5 11-7 21-1 9-4 18-9 26-4 9-12 23-25 41-6-14-13-30-21-45-9-16-22-37-40-63l-14 9 15 36c5 13 9 23 13 31 3 9 7 19 10 31s8 30 13 55 8 42 8 50l2 23 52-11c15-4 22-10 20-17-2-8-7-12-16-13l-21-2c-3-14-5-24-7-31l-6-22-3-11M170 648H91c-19 0-43-2-72-5L0 685c41-6 70-9 87-9h14v92c0 21-1 38-2 51-1 12-1 22-2 28l49-12c23-6 35-13 36-22s-8-16-25-20l-11-3V676h95v164c0 23 0 40-1 51-1 12-2 21-2 27l48-12c24-6 36-13 36-22 1-8-7-15-24-20l-12-3v-64h84l40 42 54-45c7-6 9-11 8-16-2-7-6-10-13-10H286v-92h129l43 43 51-46c4-3 6-5 7-7s2-5 1-9c-2-6-7-9-13-9H307l42-10c13-4 19-9 17-17 0-3-2-5-4-6-2-2-7-3-15-4l-14-2c-3-13-7-25-10-36s-6-20-8-28c9-6 17-11 24-17 8-5 18-14 31-26 13-13 19-26 19-41-1-14-4-23-9-28-4-4-10-6-16-4-6 1-10 4-13 9-3 6-6 13-8 21-3 8-6 18-10 28-3 10-7 16-9 19l-15 19c-14-30-23-49-26-55-4-7-15-25-34-54l-16 11c6 9 10 18 13 24 4 8 8 19 13 35s9 28 12 38 7 26 11 46c4 21 7 35 8 43s3 20 5 35H181l47-11c9-3 14-7 14-12 0-6-6-10-16-12l-18-4c-6-18-11-37-18-58 7-5 14-9 20-14 6-4 14-12 22-22 9-10 14-20 14-30 1-10-1-18-6-23s-11-6-16-5c-6 1-11 6-14 13l-5 21c-3 11-10 23-22 37-7-19-15-35-24-51-8-15-20-35-36-59l-16 10c5 11 12 25 20 44 9 19 17 45 24 80 8 35 13 57 15 67 1 10 3 20 4 29m32-410c33-22 51-41 53-56 3-15 1-25-5-31-7-6-12-9-18-7-4 1-8 3-10 8-2 4-4 10-6 18-2 9-5 17-9 24l-10 13-4 5c-9-26-17-46-24-60-7-13-19-32-37-56l-16 8c15 31 27 58 33 82 7 25 12 43 14 55 2 11 4 25 6 41 3 16 4 26 4 30l2 19 55-11c16-4 23-9 21-17s-7-12-17-13l-20-2c-4-18-8-35-12-50M35 593l51-12c24-6 36-13 36-22 1-8-7-15-24-20l-12-4V70h329v441c0 15-1 31-2 46s-2 26-2 32l49-12c23-6 34-12 35-19s-1-12-5-15-10-5-19-8l-11-3V69c0-3 0-10 1-20s2-17 2-19c1-3 1-6 0-9-2-14-11-21-27-21-14 0-21 8-21 22v21H86c-7-7-17-10-28-8-13 0-19 8-19 23v456c0 19 0 35-1 49s-2 24-3 30m693-409c41-43 78-73 111-89s63-27 91-34l-2-19c-20 1-35 0-43-5-8-4-15-13-21-25-14 7-37 22-70 44-32 23-64 53-95 91-30-30-60-55-91-76S536 29 486 9l-7 18c45 22 82 47 111 73 29 27 55 54 77 81-24 34-42 65-54 91-12 27-23 51-31 73-8 21-14 37-17 46l-8 28-4 12c-6-1-13-1-20-2l-14 39c20-5 57-8 108-8h164l35 38 43-30 15-11c5-5 8-9 8-14-1-5-3-9-7-12-4-2-10-5-19-7l-19-5c-17-48-34-89-51-123-16-34-39-71-68-112M578 433c10-31 20-57 30-78s24-47 42-77c19-30 34-51 46-63 5 6 9 14 15 22 5 9 10 15 12 20 3 4 9 15 18 33 10 18 18 36 27 54 8 17 17 47 29 89H578m-11 476 56-42h124l33 37 41-26c13-9 20-17 20-24-1-5-2-9-6-13-4-3-14-9-32-17l-1-215c0-10 2-18 7-24s16-9 32-9c3 0 8 1 15 2s16 3 27 7c11 3 21 2 31-5 4-3 9-8 12-13 3-6 4-11 3-17-2-4-5-8-11-12-6-3-18-6-37-8s-35-2-48-2c-23 1-41 5-52 11-12 6-19 14-22 24s-4 23-4 39v237H619l-1-58c0-16-1-34-2-55-2-21-5-44-10-70s-13-48-23-65c-11-16-20-29-28-39-8-9-24-24-47-46l-12 15c31 34 51 69 59 104 8 36 13 67 15 91 1 25 2 45 2 61v58c-1 7-1 17-2 30 0 12 0 20-1 24l-2 20Z"/></symbol><symbol id="𫠚_U" viewBox="0 0 1000 1000" data-size="23"><path transform="matrix(1 0 0 -1 80 917)" d="m769 697 70-57c-5-7-17-12-37-15-1-84-3-160-6-228-2-67-5-126-10-176-4-50-10-91-17-122s-15-51-25-62c-12-13-25-22-40-27-14-6-34-9-60-10 0 11-2 19-7 26-5 6-12 11-21 15s-19 7-32 8c-13 2-27 4-43 5v17c10-1 21-1 32-2 12-1 24-1 35-2 12 0 23 0 33-1h26c10 0 17 1 20 2 3 2 8 6 13 11 7 8 14 27 19 56 6 30 11 69 14 117 4 48 7 104 9 169 3 65 5 137 6 216H530c-8-20-16-39-25-58-8-19-17-37-27-54l45-21h88l22 29 65-47c-2-3-6-6-12-9-5-2-12-4-19-5V235c0-1-4-5-13-10-8-5-20-8-35-8v42H519v-51c-1-3-6-7-13-11s-19-6-36-6v320c-7-11-14-22-21-32s-15-19-22-28l-14 7c12 21 23 46 34 74 11 29 20 59 28 92 9 33 16 67 23 102 7 36 12 72 16 108l92-20c-1-5-4-9-8-12s-12-5-23-6c-10-47-23-92-38-137h202l30 38M619 483H519V280h100v203m-270 44 81-7c-1-5-4-9-7-12s-11-5-22-6V42c0-1-1-2-2-4s-4-4-8-6c-3-3-9-5-16-7s-15-3-26-3v63H85V24c0-1-1-2-2-4-1-3-4-5-8-7-3-3-8-5-15-6-7-2-15-3-26-3v525l80-8c-1-5-3-9-7-12-3-2-11-4-22-5V106h264v242c-3-5-8-10-14-13-5-3-14-4-25-4h-77v-26c36-14 61-29 74-46s20-32 20-45c0-7-2-14-6-19s-9-7-14-7-11 3-18 8c-4 14-11 30-22 47-11 18-22 33-34 46V149c0-1-3-5-8-10s-17-8-35-8v135c-22-35-51-66-86-94l-11 16c18 21 34 44 48 68 14 25 26 50 36 75H97l-6 22h99v169l73-5c-1-5-3-9-7-12s-12-5-23-6V353h37l26 31 53-34v177m-237-36c23-16 39-32 48-47s13-29 13-40c0-9-2-17-6-22s-9-7-14-7c-7 0-12 3-17 9 0 15-4 33-11 52s-15 35-24 48l11 7m256 154 73-52c-4-7-9-12-15-15s-15-4-27-4H5l-5 22h70v179l88-7c-1-7-4-12-9-15s-14-5-27-7V596h77v237l91-8c-1-7-4-12-9-15s-14-5-28-8v-77h58l36 46 68-49c-4-7-9-12-15-15s-15-4-27-4H253V596h78l37 49m-25-170c-1-3-3-5-5-6s-6-2-11-2h-3c-7-11-17-26-29-45-12-18-24-34-36-49l-11 5c3 9 7 18 10 29 4 11 8 23 11 34 4 11 7 22 10 32 3 11 6 20 8 27l56-25Z"/></symbol><symbol id="𫠛_T" viewBox="0 0 1000 1000" data-size="21"><path transform="matrix(1 0 0 -1 34 957)" d="m296 648 38-8c15-4 22-10 20-17-1-8-7-12-16-13l-21-1c-6-28-11-49-15-64 22-17 40-32 54-46s20-31 17-50c-1-6-3-11-7-15-4-5-9-6-15-5-5 0-10 3-13 9s-7 16-11 31-9 28-17 37l-10 13-4 5c-9-20-15-34-20-43-4-9-17-30-40-65l-17 11c6 10 13 24 23 43 9 18 17 43 24 73 6 31 10 51 11 60l4 26c0 6 1 12 2 19H183l28-5c16-4 23-9 21-17-1-8-7-12-16-14l-18-3c-7-19-13-38-18-57 8-5 14-10 20-15s13-12 21-21 13-18 15-28 0-18-7-25c-6-6-12-8-17-7-4 1-8 4-9 8-2 4-4 11-8 22-3 11-5 18-6 20-1 3-7 9-17 21-2-7-5-16-9-27-5-11-21-39-50-83l-16 10c17 33 29 61 35 84 7 23 13 46 18 71 5 24 8 41 8 49l1 7 1 10H91c-19 0-43-2-72-5L0 685c27-4 57-7 91-10v90l-2 59v12l-2 7 50-12c23-6 35-12 35-19 1-7-1-12-5-15-5-3-11-6-19-8l-11-3-2-111h91v160c0 21 0 38-1 51-1 12-2 22-2 28l48-12c23-6 35-13 36-23 1-8-7-15-24-19l-12-3v-61h76l41 42 55-45c6-5 8-10 7-16-1-3-3-5-6-6-3-2-5-3-7-3H271v-93h114l42 41 52-43c3-3 6-5 7-7s2-5 1-9c-2-6-6-9-13-9H296M35 596l49-12c23-6 35-13 36-22 1-8-7-15-24-20l-12-3V75h304v439c0 23 0 41-1 52s-2 20-2 26l49-11c23-6 35-13 35-20 1-7-1-12-5-15s-11-5-19-7l-11-4V102c0-2 1-16 3-40 2-25 3-38 3-41-2-12-10-18-22-20-6-1-12-1-18 1-5 2-9 4-10 6s-2 6-2 12v26H84c-7-7-15-10-26-8-13 1-19 9-19 23v457c0 15 0 31-1 46s-2 26-3 32m86-243-19 42c8-1 21-3 36-6 16-2 35-3 55-3h78l39 39 56-42c6-5 9-11 8-16-2-6-7-9-17-9H193c-23 0-48-2-72-5m181-127c24-18 42-33 54-44 13-11 19-26 19-44 0-8-3-15-7-21-5-6-11-9-19-8-7 1-11 4-14 8-2 4-4 14-6 29-3 15-14 35-35 60-4-15-11-30-18-44s-21-35-40-65l-17 12c6 10 12 21 18 33s13 30 19 52c7 23 12 40 14 50 1 10 4 23 6 38 3 16 4 25 5 28l2 22 51-11c15-4 22-9 20-17-1-8-7-12-16-12l-21-2c-7-31-12-52-15-64m-117 16c33-23 51-42 54-57s1-25-6-31c-6-6-12-8-17-7s-8 4-10 8-4 10-6 18c-3 8-6 15-9 21-4 6-8 13-14 21-8-22-16-42-25-58-8-17-20-36-37-58l-16 8c5 11 11 22 17 34s12 30 18 53 11 41 12 52c2 11 5 24 7 40s3 25 4 29l1 19 55-11c16-4 23-9 21-17-1-8-7-12-16-13l-21-1c-4-19-8-35-12-50m536-28V72h100l48 48 55-51c7-6 9-11 8-16-2-6-6-9-13-9H551c-19 0-44-2-72-5l-20 42c39-6 69-9 92-9h123v142h-72c-29 0-53-2-73-6l-19 42c46-5 76-8 92-8h72v128H543c-4-8-7-13-9-16l-17-31c-4-8-13-19-25-35s-23-30-34-40l-15 12c12 21 21 37 27 48 5 11 13 30 24 56 10 27 19 52 26 76 6 25 13 50 18 76l67-22c11-4 16-9 16-16 0-6-5-11-14-13l-28-7c-8-22-16-41-25-60h120v70c0 15-1 31-2 46s-1 26-2 32l55-11c27-5 40-13 41-22s-7-16-24-21l-21-7v-87h82l44 48 57-51c6-5 8-9 8-13-1-3-2-6-5-8-2-2-4-3-7-3l-179-1V242h65l46 44 52-47c6-5 9-11 9-17 0-5-4-8-12-8H721m105 643 29 36 36-24c5-4 9-8 13-12s6-8 7-11c1-4-1-7-4-11-1-1-10-7-28-16l1-154c0-7 1-21 2-43l2-33c1-17 1-28 1-33 1-4 0-8-1-10-4-6-11-9-21-10-4-1-10 0-19 3-8 2-12 7-12 15l1 14H562v-12c0-5-3-10-8-14-6-5-14-6-26-5-9 0-15 2-17 6s-3 8-3 14c0 5 0 13 1 26 2 22 3 39 3 50 1 11 1 23 2 35l1 165c-2 18-3 28-3 32l-4 30 60-38h258M562 727h271v102H562V727m0-131h271v103H562V596Z"/></symbol><symbol id="𫠜_G" viewBox="0 0 1000 1000" data-size="21"><path transform="matrix(1 0 0 -1 19 963)" d="M887 406c-16-15-35-26-59-31v35h-58V113c-3-23 9-34 35-31h54c34-13 55 38 63 152h12c-3-70 6-116 27-136 3-3 0-13-8-32-5-18-25-28-58-31H773c-39 0-58 20-58 59v316h-70c-6-133-25-224-59-273C555 87 486 42 379 0l-8 16c156 75 231 207 223 394h-59v-31c-23-18-42-29-55-31 6 62 8 228 8 496l51-31c50 28 86 61 109 97l67-58c-3-3-9-4-20-4-15 0-28-3-39-8-2 0-5-1-8-4-46-21-79-34-97-39-11-3-16-9-16-20V625h39l43 43 63-59-4-7H535V434h293v164h-43l-55-8-27 31h125v160h-51l-58-8-28 32h125l32 43 74-63-43-23c0-185 3-304 8-356M66 531l79-43-12-8c-11-5-16-9-16-11V113l246 32v378l78-39c0-2-5-7-15-15-8-5-12-9-12-12V86c-26-16-43-21-51-16v55C207 94 111 66 74 43L39 94c18 8 29 21 31 39 0 166-1 299-4 398m168 395 86-47-35-31v-90h35l43 51 63-67v-8H285V605h67l43 51 74-66-4-8H59l-47-8-12 31h98v211l78-39-31-23V605h89v321m63-403c0-2-4-5-12-7-15-8-25-19-27-32 0-2-1-7-4-15-3-18-7-37-12-55 5-5 13-13 24-23 33-32 54-54 62-67 18-39 14-69-12-90-13-5-23 8-31 39-10 47-26 86-47 118-18-76-53-145-105-207l-16 7c63 115 95 239 98 372l82-40Z"/></symbol><symbol id="𫠝_J" viewBox="0 0 1000 1000" data-size="21"><path transform="matrix(1 0 0 -1 45 943)" d="m317 759-10 9c27 32 50 69 69 110l44-22c11-6 16-10 16-13 0-6-5-9-14-9l-16-2c-7-6-12-11-17-15-23-22-47-41-70-58h75l22 34 55-42c9-7 14-13 14-17 0-6-5-10-14-13l-15-6V594c0-27-13-45-38-54-11-5-24-7-39-7-6 0-9 4-9 13 0 4-1 7-3 10-1 2-10 7-25 13l-31 11v13h88v143H107V541l-57-12v264l61-34h117v124l65-4c11-1 17-4 17-10 0-5-6-11-17-17l-11-6v-87h35m-48-185 73-26c5-2 8-6 8-11 0-6-5-10-16-10l-23-1c-9-10-15-18-20-22h240l39 40 72-53c7-6 11-11 11-15 0-6-4-10-11-10l-47-5-58-30h132l19 35 74-45c6-4 9-7 9-11s-3-7-9-9l-17-7V273l-64-11v21H468v-38h259l28 27 57-39c7-5 10-10 10-14s-3-7-9-10l-16-8V84l-65-6v17H468V75c0-8 1-13 3-15 4-4 11-6 22-6h298c20 0 36 25 49 73l16 56h19l-3-83-1-14c0-10 13-20 39-31-8-26-19-41-32-45-17-7-39-10-65-9H499c-33 0-54 3-64 9-19 9-29 26-29 50v35H162V52l-65-8v228l68-27h241v38H208v-16l-58-9v143c-3-2-6-4-9-5-40-25-83-47-130-67L0 347c113 60 203 136 269 227m412-263v33H468v-33h213m0 61v32H468v-32h213m-178 59 26 45H260c-4-4-9-8-15-13-18-16-32-26-42-32h300m-295-27v-32h198v32H208m0-60v-33h198v33H208m524-221v30H468v-30h264m0 58v36H468v-36h264m-326-58v30H162v-30h244m0 58v36H162v-36h244M95 872c64-23 96-50 96-82 0-10-3-17-10-22-5-4-10-6-17-6-9 0-15 3-19 10-1 1-4 9-9 24-8 21-24 43-48 66l7 10m372-326c37 16 75 37 114 63 19 13 35 25 46 37-27 25-51 52-72 80-21-28-40-50-58-67l-14 13c38 52 70 123 95 215l76-23c5-2 8-5 8-11s-3-10-9-11l-23-4-34-56h179l46 58 73-64v-17H777l25-10c9-4 13-8 13-12 0-8-7-13-22-15l-25-5c-21-25-43-49-67-71 23-16 58-32 104-48 30-11 62-21 95-29l-6-14c-23-3-39-16-47-38-32 12-64 27-97 45-11 6-32 19-64 40-7 4-14 8-23 14-27-20-61-39-100-57-31-14-61-25-90-31l-6 18m104 200c18-20 31-33 40-40 3-3 12-10 27-20 3-3 9-8 18-14 37 40 60 69 69 87H579l-8-13M159 572v158l54-26h78l18 26 46-35c6-5 9-9 9-13 0-5-3-9-9-11l-11-4v-64l-48-8v15h-89v-30l-48-8m48 66h89v39h-89v-39Z"/></symbol></svg>