<svg xmlns="http://www.w3.org/2000/svg"><symbol id="𫝀_J" viewBox="0 0 1000 1000" data-size="21"><path transform="matrix(1 0 0 -1 46 900)" d="M11 0 0 27h216l84 401H115l-13 27h204c27 129 48 243 65 344l86-21c15-3 23-10 23-20 0-9-9-17-27-22l-19-5-60-276h270l35 45 64-47c9-6 13-11 13-15 0-5-5-10-15-14l-23-9V27h40l50 69 99-79V0H11m273 27h368v401H368L284 27Z"/></symbol><symbol id="𫝁_J" viewBox="0 0 1000 1000" data-size="21"><path transform="matrix(1 0 0 -1 69 932)" d="M577 351V9l-65-9v351H371c-4-49-12-88-25-119-25-57-64-105-117-142C184 58 128 29 61 3l-8 16c63 35 111 66 144 94 70 62 107 141 111 238H172v-74l-67-11v380l76-46h129v172H13L0 799h716l54 64 91-77v-14H577V600h126l29 46 70-53c7-5 10-10 10-15 0-3-3-7-10-10l-21-11V301l-65-8v58H577M172 573V379h138v194H172m201 0V379h139v194H373m0 199V600h139v172H373m204-199V379h139v194H577Z"/></symbol><symbol id="𫝂_J" viewBox="0 0 1000 1000" data-size="21"><path transform="matrix(1 0 0 -1 50 942)" d="m801 883 98-70v-19H12L0 821h750l51 62M18 640l12 10c69-68 104-126 104-174 0-31-13-46-38-46-5 0-9 2-12 6-2 3-6 17-11 42-19 80-38 134-55 162m108 45 11 10c29-23 54-48 73-74 27-37 40-70 40-100s-12-45-37-45c-5 0-8 1-11 4s-8 18-13 43c-19 75-40 129-63 162m222 34 82-17c8-2 12-6 12-12 0-5-4-9-12-12l-19-6c-22-128-40-217-54-267-36-126-86-223-151-291-36-37-81-71-134-102l-9 15c96 72 165 169 207 291 25 67 44 140 57 219 7 45 14 106 21 182m145 0 76-5c11-1 17-5 17-12 0-5-5-10-14-15l-17-7V535h211l47 59 82-67v-19H739V12L676 0v508H555c0-53-3-123-8-208-7-115-69-215-186-299l-9 11c65 68 106 133 121 194s21 155 20 282v231Z"/></symbol><symbol id="𫝃_J" viewBox="0 0 1000 1000" data-size="21"><path transform="matrix(1 0 0 -1 46 946)" d="m568 603 114 197 71-33c10-5 15-9 15-14 0-9-6-15-17-16l-31-3-125-131h141l21 37 72-38c9-5 13-10 13-16s-4-11-13-14l-23-9V70c0-25-13-44-39-56-20-9-36-14-47-14-7 0-12 2-15 7-1 2-3 13-6 33-1 5-8 9-23 11l-70 10v19h141v495H480V26l-56-5v554H159V12l-59-5v627l57-31h267v203H17L0 834h765l41 57 101-64v-21H480V603h88M296 231c70-29 105-61 105-98 0-13-4-22-11-27-6-5-12-7-18-7-5 0-11 3-16 8-3 3-9 15-19 36-12 24-30 46-53 66-18-27-35-51-51-71-10-12-29-32-58-59l-11 15c57 79 96 161 115 245l66-27c11-5 16-10 16-15 0-6-5-10-16-11l-24-3c-7-15-15-33-25-52m326 0c70-27 105-59 105-98 0-13-4-22-11-27-6-5-12-7-18-7-5 0-11 3-16 8-3 3-9 15-19 36-13 25-30 47-53 66-14-23-31-47-51-71-9-11-29-31-58-59l-11 15c57 79 96 161 115 245l66-27c11-5 16-10 16-15 0-7-5-10-16-11l-23-3c-9-19-18-36-26-52M296 462c70-27 105-59 105-98 0-13-4-22-11-27-6-5-12-7-18-7-5 0-11 3-16 8-3 3-9 15-19 36-12 23-30 45-53 66-13-21-30-45-51-70-9-12-29-32-58-59l-11 15c57 79 96 161 115 244l66-27c11-4 16-9 16-15s-5-10-16-11l-24-2c-7-16-15-32-23-49l-2-4m326 0c20-7 39-17 56-28 33-21 49-45 49-70 0-10-3-18-8-25-5-6-12-9-21-9-5 0-11 3-16 8-3 3-9 15-19 36-12 25-30 47-53 66-11-18-28-41-51-70-9-11-28-31-58-59l-11 15c57 79 96 161 115 244l66-27c11-4 16-9 16-15s-5-10-16-11l-23-2c-9-20-18-38-26-53M148 784c97-39 146-85 146-139 0-11-3-19-9-25-6-7-13-10-22-10-17 0-30 14-40 41-21 55-49 95-84 120l9 13Z"/></symbol><symbol id="𫝄_J" viewBox="0 0 1000 1000" data-size="21"><path transform="matrix(1 0 0 -1 31 955)" d="M529 567c30-108 65-192 106-253 75-112 175-197 302-254l-8-15c-17-1-31-4-41-9-11-6-22-18-35-35-112 75-198 166-257 273-32 61-60 141-85 241-43-117-97-212-161-285C260 129 147 52 11 0L0 20c47 21 103 56 167 104 59 44 114 104 167 180 43 63 79 134 108 213 23 65 47 151 71 260l80-32c11-5 16-10 16-17s-7-12-21-16l-21-6c-16-65-27-108-34-127-2-5-3-9-4-12M44 318l-15 16c133 150 220 342 261 576l94-36c6-3 9-7 9-12s-4-9-11-12l-27-10c-28-89-55-161-81-216-33-71-77-139-133-205-35-43-68-76-97-101Z"/></symbol><symbol id="𫝅_J" viewBox="0 0 1000 1000" data-size="21"><path transform="matrix(1 0 0 -1 43 950)" d="m464 406-2-13c-22-116-71-204-147-265-40-33-86-60-137-81C137 30 79 15 5 0L0 21c73 20 132 43 177 68 123 73 195 178 216 314l-247-23-9-17c-6-11-13-17-20-17s-14 10-22 29l-29 71 162 4c21 29 45 68 72 116 25 46 46 90 64 133H18L0 727h416v173l82-7c13-1 20-5 20-12 0-5-5-11-14-16l-16-9V727h261l48 66 98-69v-25H445l2-1c15-5 22-11 22-18 0-6-5-10-15-11l-25-4c-50-73-107-144-170-215l143 4c7 33 11 74 13 125l85-14c15-3 22-8 22-17 0-6-5-11-14-14l-25-8c-3-31-6-54-9-71l267 6c-9 10-24 25-45 44-42 38-76 66-103 85l9 15c64-26 122-58 173-97 37-28 63-55 79-82 11-19 17-34 17-47s-5-24-14-33c-7-7-14-10-21-10-9 0-19 10-30 30-15 27-31 51-47 73l-273-27 2-3c32-60 72-114 120-162 53-51 119-95 197-130 27-13 63-27 108-44l-7-16c-37-3-62-18-74-43-87 43-150 82-189 117-65 60-115 127-148 200-9 18-19 43-31 75Z"/></symbol><symbol id="𫝆_J" viewBox="0 0 1000 1000" data-size="21"><path transform="matrix(1 0 0 -1 35 951)" d="M925 511c-17-1-29-4-38-9-12-7-23-20-32-39-184 99-317 226-398 383-68-94-134-170-197-228-53-48-102-86-145-115-23-15-57-35-104-59L0 463c72 44 145 106 218 186 39 42 72 83 100 124 18 26 44 69 78 128l91-19c11-2 17-6 17-12 0-5-4-8-11-11l-11-3c35-51 72-95 110-130 98-89 211-155 338-199l-5-16m-679 64h277l43 56 87-61v-23H259l-13 28m562-179H508c-10-52-20-93-31-123-30-79-82-147-155-205-32-25-67-48-105-68l-15 18c85 54 149 130 191 228 19 47 30 97 32 150H87l-8 28h581l56 63 92-66v-25Z"/></symbol><symbol id="𫝇_J" viewBox="0 0 1000 1000" data-size="21"><path transform="matrix(1 0 0 -1 40 957)" d="m416 914 94-25c8-2 12-5 12-10s-5-9-14-11l-30-7c135-129 282-216 442-263v-16c-29-4-52-21-67-50-159 90-290 195-393 315C345 694 194 575 9 492l-9 14c89 53 165 109 230 167 72 65 134 146 186 241m199-254 74-58v-19H482V477h217l25 39 65-43c9-5 13-11 13-16s-5-9-14-12l-21-7V246l-62-11v39H482V12L419 0v274H197v-47l-63-16v305l75-39h210v106H244l-12 27h340l43 50M197 301h222v149H197V301m285 149V301h223v149H482m98-262 7 15c99-31 149-67 149-107 0-11-2-20-6-27-6-9-14-14-23-14-7 0-14 5-21 16-29 49-64 88-106 117Z"/></symbol><symbol id="𫝈_G" viewBox="0 0 1000 1000" data-size="21"><path transform="matrix(1 0 0 -1 23 961)" d="M398 883h8l8-47h399c2 0 7 5 15 16 8 15 14 23 20 23 52-39 79-66 82-82-3-3-9-4-20-4-44-3-91-30-140-82l-16 12c52 62 72 94 59 94H418c-3-47-10-77-23-90-32-37-59-37-82 0 0 7 6 18 19 31 39 39 61 82 66 129m149-78c49-29 74-46 74-51 0-3-4-5-12-8-13-5-22-12-27-19-3-6-8-17-16-36-10-23-19-41-27-54h246l47 54 78-70v-8H527l-97-191h156v152c68-21 99-34 94-39 0-2-7-8-20-15-10-6-15-11-15-16v-82h121l43 58 82-74-8-8H645V238h175l43 59 90-74-4-4H645V31c-19-18-40-28-63-31l4 219H340l-35-12-28 31h309v160H438c-6 0-14-6-24-19-8-11-14-16-19-16-19 16-37 35-55 59 0 2 4 5 12 8 13 5 23 13 31 23 10 16 32 59 66 129 8 13 13 23 16 31h-78l-51-8-20 32h161c36 83 59 139 70 168M234 922c6-3 13-7 24-12 52-28 77-44 74-47 0-2-3-4-8-4-15-5-27-15-35-31-29-62-59-121-90-176 29-15 43-24 43-27s-2-5-8-8c-15-13-23-28-23-47V223c0-94 1-157 4-188-13-15-37-27-70-35 5 52 7 115 7 188v386c-44-67-91-125-140-172l-12 8c128 190 206 361 234 512Z"/></symbol><symbol id="𫝉_J" viewBox="0 0 1000 1000" data-size="21"><path transform="matrix(1 0 0 -1 44 957)" d="m411 914 88-27c9-3 13-7 13-12s-4-9-13-12l-14-4c135-115 277-192 426-230v-16c-28-4-50-21-67-50-151 81-278 176-381 285-55-65-112-121-173-168h218l39 47 75-55v-19H294l-10 22c-47-35-97-66-150-95-51-27-93-47-126-60l-8 13c21 13 45 27 74 44 85 51 152 104 203 158 49 52 94 112 134 179m-61-363H184l-12 27h498l26 39 63-43c7-5 11-11 11-16s-5-9-14-13l-17-6V313l-63-12v35H356c-12-28-25-52-39-73l33-13h332l26 31 59-38c7-5 11-9 11-12 0-5-4-8-11-11l-16-5V20L688 8v47H344V16L282 0v219c-43-44-91-82-144-114C85 72 43 49 14 36L4 51c14 10 37 26 69 47 69 52 117 93 143 122 34 37 61 75 80 116H168l-11 27h151c9 24 18 52 25 83H90l-11 27h259c6 26 10 52 12 78m-6-469h344v141H344V82m23 281h309v83H393c-5-23-14-50-26-83m32 110h277v78H412c-5-33-9-59-13-78Z"/></symbol><symbol id="𫝊_J" viewBox="0 0 1000 1000" data-size="21"><path transform="matrix(1 0 0 -1 50 954)" d="M755 433H366v-47l-59-8v338l71-31h146v79H264l-15 28h275v115l83-10c13-2 20-6 20-13s-6-12-17-16l-27-9v-67h167l48 58 92-65v-21H583v-79h167l21 35 69-41c7-4 11-9 11-14s-5-9-16-13l-17-6V414l-63-8v27M366 550v-90h158v90H366m0 108v-81h158v81H366m217-198h172v90H583v-90m0 198v-81h172v81H583M0 382c29 43 50 81 65 112 59 122 97 256 115 401l78-22c13-4 19-9 19-16 0-5-6-10-18-14l-18-7c-21-72-44-140-67-204l27-7c12-3 18-7 18-14 0-6-5-11-15-15l-20-8V14L121 0v518C86 454 50 405 13 370L0 382m235-97-15 27h431v91l73-9c14-2 21-7 21-14s-6-12-18-16l-16-6v-46h62l42 52 85-58v-21H711V72c0-21-4-34-11-41-7-6-18-12-31-17-15-6-29-9-40-9-9 0-14 7-16 21-1 10-2 16-4 18-3 3-12 6-27 10l-58 15v15h127v201H235m109-37c43-15 73-30 92-47 28-25 42-50 42-75 0-11-4-19-11-26-5-5-10-7-16-7-5 0-10 2-15 6s-13 19-24 46c-14 36-39 66-75 90l7 13Z"/></symbol><symbol id="𫝋_G" viewBox="0 0 1000 1000" data-size="21"><path transform="matrix(1 0 0 -1 16 973)" d="m766 445 78-54-12-8c-16-11-23-17-23-20l4-160c-11-10-30-17-59-19v35H430v-28c-13-13-33-19-59-19 3 60 4 147 4 262l63-28h296l32 39M242 945c47-18 77-36 90-54l-8-4c-21-13-34-26-39-39-26-68-53-132-82-192 11-8 24-17 39-27 11-8 16-13 16-16l-24-15c-5-3-7-190-7-563-26-23-47-35-63-35 3 65 5 266 8 602-44-81-98-153-160-215l-12 8c133 197 214 381 242 550m586-58c16-8 40-30 74-67l-7-4c-27-10-41-20-43-31-32-62-60-105-86-129 47-31 108-51 183-58v-12c-39-3-69-17-90-43-57 23-102 49-136 78-42-31-101-57-176-78l-8 12c68 34 119 67 152 101-33 34-61 87-82 160l-23-3-20 31h223c3 0 10 9 24 27l15 16M453 383c-15 0-23-13-23-39V242h324v141H453m0-176c50-26 77-49 82-70 5-26-6-45-35-55h137c18 42 30 83 35 125l86-39c0-3-5-5-16-8-15-5-26-12-31-19-5-8-12-16-20-24-7-10-18-22-31-35h180l47 47 82-66-4-4H332l-59-12-19 35h238c-8 0-12 8-12 23 3 32-9 63-35 94l8 8m4 711c55-23 82-36 82-39l-16-16c-7-8-11-13-11-15V559c-8-13-26-24-55-32v391m418-375 74-55-4-8H355l-54-11-28 35h567l35 39M336 848c49-24 74-38 74-43-18-13-27-24-27-32V590c-8-13-25-24-51-31l4 289m293-28c21-52 52-97 94-136 36 41 62 87 78 136H629Z"/></symbol><symbol id="𫝌_J" viewBox="0 0 1000 1000" data-size="21"><path transform="matrix(1 0 0 -1 45 954)" d="M570 761v147l81-7c11-1 16-5 16-13 0-6-5-11-16-14l-21-7V761h98l49 64 98-74v-17H630V442c0-30-14-53-42-68-19-10-33-15-44-15-10 0-15 10-15 31 0 6-1 10-2 11-3 2-12 6-27 11l-41 11v22h111v289H363l-15 27h222M0 309h759l52 65 99-68v-25H14L0 309m260 48v550l79-7c11-1 16-5 16-13 0-5-5-10-16-14l-20-7V370l-59-13m-152 48v469l79-7c11-1 16-5 16-13 0-5-5-10-16-14l-20-7V419l-59-14m241 5c41 91 70 181 87 270l73-23c14-4 21-9 21-16s-5-11-14-14l-20-4c-25-61-48-107-68-140-15-23-34-51-59-83l-20 10m354 273c98-73 147-146 147-217 0-19-5-32-15-41-7-5-14-8-22-8-9 0-17 4-22 12-4 7-9 26-15 58-15 68-44 130-89 185l16 11M17 19c63 31 115 62 156 93 41 32 86 75 134 129l67-47c7-5 11-9 11-14 0-8-6-11-17-10l-29 3c-51-41-97-73-137-96C157 52 100 26 29 0L17 19m518 215c80-20 138-39 174-56 89-43 133-88 133-133 0-13-4-23-12-30-7-5-13-8-20-8-13 0-28 12-47 37-27 36-59 67-94 94-31 23-78 50-142 79l8 17Z"/></symbol><symbol id="𫝍_J" viewBox="0 0 1000 1000" data-size="21"><path transform="matrix(1 0 0 -1 95 936)" d="m0 871 76-43h623l28 43 69-43c9-5 13-11 13-16s-5-10-16-14l-23-9V76c0-20-10-37-29-51S701 4 678 4c-10 0-16 5-19 16-4 17-15 28-34 33l-59 13v20h141v715H62V16L0 0v871m191-117 12 8c39-25 67-47 83-66 17-21 26-41 26-60 0-16-5-28-14-37-6-6-14-9-24-9-7 0-11 3-14 8-2 3-4 11-7 22-7 29-18 58-33 87-9 19-19 34-29 47m321 12 70-40c8-5 12-10 12-15 0-8-6-13-19-14l-20-1-101-129h85l43 58 82-66v-19H418V395h90l39 50 70-58v-19H418V203h125l43 59 82-67v-19H113l-12 27h86v246l80-11c10-1 15-5 15-12 0-5-5-10-14-13l-22-7V203h113v337H117l-12 27h320l87 199Z"/></symbol><symbol id="𫝎_T" viewBox="0 0 1000 1000" data-size="21"><path transform="matrix(1 0 0 -1 43 945)" d="M658 330V102c0-9 1-15 3-19s6-8 12-11c7-3 21-5 41-6l33-2 31 2c20 1 33 2 41 4 7 1 14 5 19 12 5 6 9 18 12 36 3 17 6 31 7 42l3 35 2 20 21-3-2-89c0-12 1-21 3-26 2-6 6-11 12-16l11-8c5-5 8-10 8-14-1-10-10-18-28-24-17-6-40-11-68-13-28-1-55-2-81-1-46 0-76 4-92 11-15 7-25 14-29 23-5 8-7 18-7 29v246H495c-1-11-1-21-2-30s-5-32-14-68c-8-37-29-72-64-106-34-35-64-58-89-71S255 24 189 0l-9 22c84 29 142 61 173 95s52 63 64 88c11 25 18 45 21 62s5 30 6 41l2 22h-96v-30c0-10-7-15-20-15-13-1-22 1-26 5-3 4-5 9-6 14 0 6 0 14 1 24l2 49 2 44v392c0 6-1 17-2 32-2 15-3 30-5 45l62-42 399-1 29 41 40-28c8-6 13-10 15-13 3-3 4-7 4-11 1-5-1-9-5-13 0 0-5-4-15-9l-14-8V396c0-4 1-14 2-31 0-17 1-30 1-39 0-8 0-14-1-18-3-7-7-11-12-13-4-1-11-2-19-2-14-1-20 3-20 12v25H658m-308 28h412v136H350V358m0 165h412v136H350V523m0 164h412v133H350V687M203 445l13-9c-3-8-6-15-9-21-3-5-10-22-22-49-12-28-25-57-39-88-13-31-28-61-43-90s-23-45-24-46l-8-18c6-15 8-29 5-41s-9-15-18-8-25 25-47 55L0 146c36 39 67 79 93 119 27 41 49 77 69 109 19 32 32 56 41 71M41 867c52-32 92-59 118-80 27-22 40-45 39-70 0-5-2-12-6-22-4-9-12-12-24-9-6 1-11 3-15 8s-11 18-19 41c-9 22-23 43-43 62s-41 36-61 53l11 17Z"/></symbol><symbol id="𫝏_T" viewBox="0 0 1000 1000" data-size="21"><path transform="matrix(1 0 0 -1 44 962)" d="m698 790 56-29c5-4 8-7 9-11 0-4-1-7-3-9-3-3-6-4-10-4l-35-2c-36-30-59-50-70-58 76-30 115-53 116-71 2-18 0-30-7-38-6-7-13-8-22-3s-23 16-44 33-51 35-90 52c-32-18-67-33-103-46-37-11-84-22-141-33l-9 18c65 18 109 32 132 42 24 10 50 23 77 38-18 9-44 20-78 32-33 13-62 22-86 28l10 21c38-8 102-26 192-54 38 30 68 61 91 94H365c-25 0-49-2-72-5l-20 42c40-6 70-9 92-9h207c-12 24-21 41-28 51s-20 23-41 40l11 15c38-15 62-27 74-37 11-10 18-18 19-23 2-5 2-12 0-19-1-7-2-11-3-13l-9-14h166l47 55 71-56c4-3 7-9 7-16 1-7-4-11-15-11H698m39-354c-36-23-64-38-86-48-21-9-56-20-103-34-47-13-104-20-169-23l-4 21c4 0 17 2 39 5 21 4 40 7 54 10 15 3 44 12 86 27 43 16 76 32 101 49 26 18 47 35 64 51l36-25c15-11 23-19 26-23s3-9 1-13-10-4-24-1l-21 4m100-274c-56-34-99-57-130-70-32-14-66-25-103-36-36-11-72-20-108-27-35-7-94-14-177-20l-3 20c7 1 13 2 17 2l45 6c58 7 123 23 196 48 74 24 127 48 160 70 34 23 63 46 87 70l42-34c17-13 23-22 20-28s-11-8-23-5l-23 4M228 441l15-11c-5-6-7-11-9-13-1-2-8-18-23-48-14-30-29-59-45-85l-45-76c-14-25-22-38-23-40l-28-39 5-29c1-4 0-8-2-14-1-6-6-6-16-2-4 2-11 9-20 21L0 149c32 30 55 53 69 70 15 16 38 46 71 90 32 44 62 88 88 132M25 866c51-26 92-50 123-71s45-41 44-60-4-31-9-36c-6-5-12-8-18-7-7 1-13 4-17 8-4 5-10 16-18 34s-19 34-35 49c-15 16-26 25-31 30-5 4-21 16-48 36l9 17m808-269 71-56c4-4 7-8 7-12 1-3 0-7-2-10-3-3-6-4-12-4H328v-75c0-13-1-33-2-59-2-26-3-47-4-64-2-16-4-34-7-53-3-20-7-41-13-63-5-23-12-45-21-65-8-21-22-44-42-69s-35-42-45-48L169 0l-13 16c26 26 48 52 65 80 17 27 29 60 37 98s13 67 15 88c3 20 5 44 6 72 1 29 2 54 2 77 1 23 0 50-1 79 0 30-1 47-1 53l-2 13 56-35h454l46 56m-52-294c-46-28-91-51-137-70s-97-33-155-42c-57-9-99-14-125-15l-2 19c41 4 100 17 178 38 77 22 152 65 224 128l35-25c14-9 22-16 24-19 3-3 4-8 4-14s-7-7-22-4l-24 4Z"/></symbol><symbol id="𫝐_J" viewBox="0 0 1000 1000" data-size="21"><path transform="matrix(1 0 0 -1 57 951)" d="M885 674H13L0 702h508c35 57 67 123 96 200l74-37c11-5 17-12 17-19 0-9-7-14-22-15l-28-3c-27-35-64-77-112-126h207l56 61 89-70v-19M70 28v569l78-39h167l27 39 66-46c9-5 13-11 13-17 0-7-6-12-19-15l-16-3V59l-62-14v77H133V41L70 28m63 122h191v181H133V150m0 380V359h191v171H133m33 342 5 12c58-12 102-30 132-55 28-23 42-47 42-70 0-11-4-20-11-27-6-5-13-8-21-8-11 0-23 11-34 32-28 49-66 88-113 116m357-748v458l77-10c13-1 20-7 20-16 0-8-6-14-17-18l-18-6V138l-62-14m211 495 86-6c13-1 20-6 20-15 0-8-6-14-18-17l-21-7V81c2-43-29-69-94-80l-3-1c-8 0-12 3-11 10l2 20c1 9-10 16-31 23l-45 15v13h115v538Z"/></symbol><symbol id="𫝑_J" viewBox="0 0 1000 1000" data-size="21"><path transform="matrix(1 0 0 -1 43 951)" d="m52 250-14 28h348c10 19 19 44 26 75l-38-15-6 17c108 50 174 121 197 212-13 12-39 30-76 55l8 18c12-5 19-8 20-9 25-10 44-19 58-28 5 26 10 67 13 122h-96l-14 28h111v148l81-12c15-2 22-7 22-15 0-5-5-10-16-13l-24-7c-1-28-2-62-3-101h75l27 37 58-44c8-6 12-11 12-15 0-7-4-11-12-14l-24-10c-1-21-1-38-1-53 0-87 15-150 46-189 12 21 21 39 26 54l22 59 19-11-12-89c-1-9-2-20-2-32 0-23 10-43 30-59-3-5-9-9-18-13s-17-6-26-6c-27 0-55 20-85 61-36 49-54 123-54 223v73h-81c-7-73-14-123-22-151 57-41 86-75 86-103 0-9-3-17-10-24-5-4-10-6-16-6-3 0-7 1-10 3-1 1-15 20-44 57-5 6-13 14-24 24-13-29-36-59-67-90-25-23-53-43-86-60l34-11c17-5 26-12 26-19s-6-11-17-13l-27-4-19-50h263l24 39 63-44c9-6 14-12 14-17s-6-9-17-12l-17-5c-2-7-11-36-27-89-20-67-56-110-107-129-20-7-34-11-43-11-3 0-5 1-8 2-3 2-7 11-11 28-1 9-11 16-30 20l-57 12v18h147c32 15 58 68 77 160H440c-28-61-70-111-127-150-55-37-121-67-198-88C94 7 73 3 52 0l-5 15c56 18 100 35 132 50 57 29 102 63 137 102 17 19 36 47 58 83H52M13 700 0 725h211v65H41l-12 27h182v81l77-6c14-1 21-6 21-14 0-5-4-9-11-12l-25-10v-39h81l39 43 68-50v-20H273v-65h109l37 36 66-44v-17H357l50-22c6-3 9-6 9-10 0-5-4-8-13-9l-24-3-53-59h69l29 38 66-45v-19H272v-76h89l39 39 61-47v-18H272V350l-61-10v129H49l-10 26h172v76H16L5 597h124c-2 6-4 21-6 45-1 20-9 39-22 58H13m116 0c15-11 25-18 31-23 16-14 24-28 24-41s-6-26-19-39h127c15 40 27 74 34 103H129Z"/></symbol><symbol id="𫝑_U" viewBox="0 0 1000 1000" data-size="23"><path transform="matrix(1 0 0 -1 78 919)" d="m24 532-6 22h112l-7 6c0 15-4 30-11 47s-16 31-27 42l6 5H6l-6 22h184v69H43l-6 21h147v72l87-8c0-5-2-10-7-13s-13-5-24-6v-45h66l35 43 68-45c-3-7-8-12-14-15s-15-4-27-4H240v-69h101l35 42 68-46c-3-7-8-11-14-14-5-3-14-4-26-4h-99l55-21c-1-3-4-6-7-9-3-2-7-3-14-3h-5c-1 0-3 0-4 1-7-9-16-20-27-33-10-12-20-24-30-35h68l34 41 68-45c-3-6-8-11-14-14s-15-4-26-4H240v-76h85l32 38 65-42c-3-6-8-11-14-14-5-3-14-4-27-4H240v-93c0-1-4-5-11-11s-22-9-45-9v113H40l-5 22h149v76H24m814-63-13-95c12-16 18-28 18-37 0-5-2-9-7-14-4-5-10-7-19-7s-18 2-28 7c-9 5-17 12-24 20-13 16-24 35-32 57s-14 47-18 76-7 61-9 96c-1 35-2 74-3 117h-89c-3-46-10-90-21-131 28-15 47-31 58-47s16-30 16-42c0-17-8-25-24-25-5 0-11 2-16 6-5 5-11 10-17 16-5 6-11 13-18 20-6 7-12 14-19 20-15-32-36-62-63-89-26-27-61-53-105-76l73-15c-2-6-6-10-12-12-5-2-14-3-25-3-3-9-5-18-8-27s-6-17-9-26h261l30 35 70-55c-8-8-20-12-35-12-7-44-15-81-24-110s-20-52-33-69-30-29-49-36-42-11-69-11c0 7-1 14-3 20-1 5-5 10-12 15-6 4-16 8-29 11s-30 6-53 9l1 16c8-1 18-1 29-2 12-1 24-1 35-2 12 0 23 0 33-1h24c13 0 24 3 33 9 9 7 17 17 24 30 7 14 14 32 19 53 5 22 11 48 16 78H415c-13-27-29-53-50-77-20-23-46-45-77-65s-68-38-111-54S84 11 27 0l-7 18c47 11 89 23 125 38s67 32 93 50c27 19 49 39 67 60 18 22 33 45 44 70H55l-7 22h310c8 22 14 45 19 69l-11-5-11 14c50 29 88 60 115 94s48 71 61 111c-31 23-60 41-89 54l5 11c37-7 69-16 94-25 4 17 7 35 9 52 2 18 4 37 5 56H442l-6 22h120c1 11 2 23 2 35v90l94-7c-1-6-3-11-7-14s-13-5-26-6c-1-17-1-34-2-51 0-16-1-32-2-47h80l26 34 72-55c-7-7-18-11-34-14-1-13-1-26-2-39v-36c0-48 2-90 7-125s14-62 27-79c2-4 4-6 5-6s4 4 7 11 7 16 10 25c3 10 6 19 9 28s6 14 7 17l9-3m-585 85c5 14 9 30 14 49s10 36 14 51H98c28-11 47-23 58-36s16-26 16-37c0-13-4-22-13-27h94Z"/></symbol><symbol id="𫝒_J" viewBox="0 0 1000 1000" data-size="21"><path transform="matrix(1 0 0 -1 59 942)" d="M13 230 0 258h407v133l78-5c15-1 23-5 23-11s-6-12-18-17l-19-8v-92h295l47 50 69-59v-19H471V13L407 0v230H13m80 148v490l76-8c13-2 20-6 20-13 0-4-4-9-13-14l-19-10V388l-64-10m256 27v465l72-29h311l27 44 61-44c9-6 13-12 13-17 0-7-4-12-13-15l-20-7V414l-66-9v46H414v-37l-65-9m65 228V479h320v154H414m0 181V661h320v153H414Z"/></symbol><symbol id="𫝓_U" viewBox="0 0 1000 1000" data-size="23"><path transform="matrix(1 0 0 -1 88 919)" d="M302 578c-3-7-8-12-14-15s-15-4-26-4h-97V27c0-1-1-2-2-5s-4-5-8-8-10-6-18-8c-7-3-17-4-30-4v557H6l-6 21h107v258l96-9c-1-7-4-12-9-15s-15-6-29-8V580h32l36 51 69-53m505 125c-5-7-17-12-34-14-4-48-10-86-17-115s-17-51-28-66-25-24-41-29-34-7-55-7c0 17-5 28-16 34-10 6-31 11-62 15v16c7 0 14 0 23-1 9 0 19 0 28-1 10-1 19-1 27-2h19c11 0 20 2 27 7s13 14 18 27 9 30 12 51c4 22 8 49 12 82H540c-10-27-23-53-38-78-15-24-35-47-58-68s-50-41-81-58-68-32-110-45l-7 16c67 25 118 58 154 97 37 39 64 85 81 136H306l-7 22h188c5 18 9 37 12 56s6 39 7 60l96-14c-1-7-5-11-11-14-5-2-14-3-26-4-4-29-10-57-18-84h166l28 32 66-51m-7-323c-2-3-4-5-7-7-3-1-7-2-12-2s-10 1-17 3c-26-25-54-50-84-73-29-23-58-42-86-57l-11 11c19 21 41 47 65 79 25 32 48 65 69 100l83-54m-508 44c33-8 60-18 82-29s40-22 53-34c14-12 24-24 29-36 6-11 9-22 9-32 0-11-3-21-9-28-5-7-12-10-21-10-8 0-17 3-26 10-5 13-11 26-20 40s-19 28-30 41-23 26-36 38-25 22-38 31l7 9m284-222c47-11 86-23 117-38 32-15 57-30 76-45s33-30 41-45c9-15 13-28 13-39s-3-19-8-25c-5-7-13-10-22-10-8 0-16 2-23 7-9 16-21 33-36 50s-31 34-49 51-37 32-57 47-39 27-57 37l5 10m-81-21c-23-18-52-40-85-66s-73-55-119-87c-2-12-8-21-17-26l-52 73c12 4 27 10 46 18s41 17 64 27c23 11 48 22 75 34 27 13 55 25 83 38l5-11Z"/></symbol><symbol id="𫝔_J" viewBox="0 0 1000 1000" data-size="21"><path transform="matrix(1 0 0 -1 50 952)" d="m723 840 90-66v-19H477V633h273l47 59 86-67v-19H637V461h43l43 51 74-59v-19H121l-11 27h140v145H28l-12 27h398v122H106l-12 27h320v121l84-13c12-2 18-7 18-14s-6-12-18-15l-21-5v-74h199l47 58M313 461h262v145H313V461m496-78 90-66v-20H594V110c0-11 2-19 5-23 4-3 13-5 27-5h163c11 0 19 2 23 5 5 3 8 10 11 19l29 97h16v-93c0-15 10-25 31-32-13-35-33-52-59-51H594c-25 0-41 5-50 14-8 7-12 22-12 45v211H358c-13-71-29-123-50-155-36-53-94-91-174-115C99 17 55 8 4 0L0 20c87 20 153 47 196 80 53 41 84 106 95 197H12L0 324h762l47 59Z"/></symbol><symbol id="𫝕_J" viewBox="0 0 1000 1000" data-size="21"><path transform="matrix(1 0 0 -1 46 942)" d="m801 883 90-66v-20H172V531c-1-142-14-251-41-326C106 134 67 65 12 0L0 16c23 39 41 73 53 104 25 69 41 140 48 213 6 59 9 125 9 198v336l74-43h567l50 59M278 727l75-39h362l20 39 60-41c9-7 14-12 14-17 0-6-4-11-13-14l-18-6V399l-63-12v55H519c34-81 77-150 128-205 60 46 123 102 190 169l59-55c5-4 7-9 7-14 0-6-5-9-16-9h-31c-10-6-27-16-51-29l-54-30-59-33-29-16c57-58 139-110 244-157V43c-36-5-59-19-70-43-97 64-170 131-221 201-45 64-85 144-121 241H340V109c71 11 157 26 258 47l8-15C505 103 380 66 231 31l-7-18c-3-9-9-13-18-13-7 0-13 4-18 13l-43 69 79 10 54 7v628m62-258h375v192H340V469Z"/></symbol><symbol id="𫝖_J" viewBox="0 0 1000 1000" data-size="21"><path transform="matrix(1 0 0 -1 33 955)" d="M179 311c-8-51-22-100-43-145C106 102 69 47 26 0L12 12c47 71 79 145 97 222 13 55 19 120 19 197v154c-44-41-84-74-119-97l-9 12c57 55 108 115 153 180 46 67 91 144 134 229l80-32c11-4 16-10 16-17s-8-12-23-15l-24-5-23-33h247l32 41 65-51c8-7 12-13 12-19 0-8-7-13-22-14l-25-2c-12-41-22-68-30-80-13-24-39-41-79-50l1-1h271l43 54 80-58v-24H189v-75h542l29 39 56-45c12-9 18-16 18-20 0-7-5-11-15-14l-17-5V275l-63-8v44H608V9l-60-9v311H422V9l-60-9v311H179m5 28h178v161H189v-70c0-22-2-52-5-91m29 292h270c-5 3-8 8-9 17-1 16-5 25-11 27l-63 16v15h129c9 12 19 37 30 74H294c-23-31-58-74-105-131l24-18m209-131V339h126v161H422m317-161v161H608V339h131m-480-62 69-33c7-4 11-8 11-13 0-7-6-11-19-14l-21-4C240 130 173 64 98 15L87 31c35 31 66 66 93 103 33 47 60 94 79 143m377-11 17 12c36-38 64-65 84-81 35-29 76-51 121-68 15-6 40-14 75-24l-3-15c-32-5-55-22-70-50-26 13-60 38-101 75-52 49-93 100-123 151Z"/></symbol><symbol id="𫝗_J" viewBox="0 0 1000 1000" data-size="21"><path transform="matrix(1 0 0 -1 43 942)" d="M594 318c31 17 62 35 92 56H270l-15 28h465l33 28 89-63c7-5 10-10 10-13 0-2-2-4-5-6s-6-3-9-2l-3 1-52 1-164-46c-1-6-7-11-18-16l-15-6v-36h189l53 65 85-71v-22H586V82c0-21-4-36-13-45s-23-17-42-24c-16-5-27-8-34-8s-11 5-12 16c-1 13-3 21-6 24s-11 5-24 7l-90 14v18h158v132H207l-14 28h330v84l62-9c3 0 6 0 9-1M114 864l72-40h580l47 60 83-69v-19H582l-57-75h204l29 44 66-46c7-5 10-10 10-14 0-5-5-9-15-12l-17-5V460l-62-12v23H365v-32l-62-10v330l72-38h114l22 75H179V482c0-89-4-154-12-197C146 176 95 81 14 0L0 13c38 55 66 113 85 174 17 57 27 139 29 247v430m251-365h375v89H365v-89m0 194v-77h375v77H365Z"/></symbol><symbol id="𫝘_T" viewBox="0 0 1000 1000" data-size="21"><path transform="matrix(1 0 0 -1 63 955)" d="M552 642c-2-39-3-71-5-98-2-26-4-53-7-81-4-28-9-56-16-85-6-28-17-61-31-100s-33-75-56-109c-24-33-54-64-89-91-35-28-77-54-128-78l-7 17c36 22 71 47 103 74 34 28 64 64 92 109 27 44 47 90 59 136s20 86 25 120c5 33 8 64 9 94l5 92H390c-19 0-43-2-73-5l-19 42c39-6 70-9 92-9l115 1 3 162c0 13-1 27-2 44s-1 28-2 34l54-12c16-4 27-7 32-10 6-3 9-8 9-15 1-7-7-13-23-18l-21-5c0-46-1-72-1-80l-1-100 205-1 49 50 58-53c3-3 6-5 7-7 2-2 2-5 1-9-2-6-6-9-13-9H552m26-159c-1 27-1 45-2 55 0 9-1 17-2 23l53-12c18-4 29-7 34-10s7-6 7-11c1-4-1-9-5-13-5-4-11-7-18-8l-20-6V94c0-9 1-15 2-19 2-4 6-8 12-11 6-2 31-4 75-5 27-1 46-1 57 1 12 2 20 5 26 9 5 5 10 11 13 19s5 21 8 39l6 44 4 29 16-3-2-89c0-9 1-16 3-21s5-9 9-13l13-12c6-8 8-14 5-21-6-11-20-18-44-22s-64-6-120-5c-41 0-70 1-89 4-18 3-30 10-35 22s-7 24-7 37l1 406M209 760l35 39 40-27c9-6 14-10 16-13 3-2 4-6 4-10-1-6-2-10-6-13-3-3-14-10-34-19V306l34-25c7-5 9-11 9-17-1-7-3-10-8-10H55v-36c0-8-2-15-6-21-4-5-13-7-28-6-10 1-16 4-18 9s-3 10-3 16c0 3 1 11 2 22 1 12 3 28 4 50s2 39 2 52v396c-1 17-2 30-3 36-1 7-2 18-5 31l59-43h150M55 283h160v451H55V283Z"/></symbol><symbol id="𫝙_T" viewBox="0 0 1000 1000" data-size="21"><path transform="matrix(1 0 0 -1 33 945)" d="M312 766c3 4 6 9 10 14s11 19 21 40 19 44 28 69l63-24c10-4 17-8 20-12 3-3 3-7 2-12-2-4-8-7-18-8l-27-1c-11-13-19-22-24-28l-33-31-7-7h417l33 37 40-27c8-5 13-9 16-12 2-3 3-7 3-12 1-4-1-8-4-12s-14-9-33-17l-1-302c0-13-3-26-7-37s-13-21-28-30c-14-9-28-15-41-17-3 16-6 27-10 33s-11 11-23 16c-11 5-33 11-67 18l4 22c56-8 89-12 98-12s16 2 21 5c4 4 6 12 6 22v299H170V345c0-8-7-12-21-12-13 0-21 3-23 9-2 7-3 12-3 17v38c0 2 1 11 2 27s2 41 2 76v244c0 17-1 28-2 34s-3 16-6 31l58-43h135m-6-87 57-30h212l29 35 36-24c5-3 9-7 13-12 4-3 7-7 7-11 1-3 0-7-4-11 0-1-10-6-27-16v-86l21-17c7-6 9-11 6-16-3-4-5-7-8-7H353v-11c0-15-11-22-34-20-9 1-15 4-17 8-2 5-2 11-2 18 0 4 1 13 1 25 1 13 2 27 3 41 2 14 2 24 2 30v104m47-167h230v109H353V512M920 5H91C67 5 42 3 19 0L0 42c45-6 76-9 91-9h303v264c-1 27-2 45-2 55-1 10-2 18-2 23l57-11c26-6 40-12 41-18 0-7-2-12-6-16-5-4-10-7-18-9l-20-5v-89h246l47 56 62-50c8-6 13-11 14-13 2-3 3-6 2-10-2-6-7-10-15-10H444V33h358l51 58 64-51c11-9 17-15 17-19 1-3 0-7-2-10-2-4-6-6-12-6Z"/></symbol><symbol id="𫝚_U" viewBox="0 0 1000 1000" data-size="23"><path transform="matrix(1 0 0 -1 93 919)" d="M564 202c-4-7-9-12-15-15s-15-4-28-4H402V18c0-2-4-5-13-10-8-5-19-8-33-8h-8v183H195l-6 22h159v112h-60v-27c0-1-3-4-9-9s-19-8-39-8v358l53-27h55v88H233l-3 16c-8-8-20-14-37-18V280c0-1-4-5-13-11s-22-9-40-9v72H51v-92c-1-5-6-9-13-14s-19-7-38-7v534l57-26h74l26 34 72-53-1 5h120v124l97-8c-1-8-5-14-11-17s-17-6-32-9v-90h34l38 48 71-50c-4-7-9-12-15-15-5-3-14-4-26-4H402v-88h46l26 34 72-52c-7-8-20-14-38-18V304c0-1-4-5-13-10-8-5-21-8-38-8v31h-55V205h50l38 48 74-51M349 583h-61V478h61v105m108 0h-57V478h57v105M288 457V339h61v118h-61m112-118h57v118h-57V339M51 353h89v352H51V353m745 387c-4-7-9-12-15-15s-15-4-28-4H561l-6 22h126l39 51 76-54m-79-269c-2-10-14-16-35-17-5-24-12-50-20-77-7-27-16-54-25-82s-18-56-29-85c-10-28-21-55-32-81l164 18c-7 32-17 64-30 95-12 31-25 59-38 82l14 5c47-47 80-91 98-132 19-41 28-76 28-105 0-21-4-37-11-48-7-12-15-18-24-18-8 0-16 4-24 13 0 13-1 27-2 42s-4 31-7 46c-25-8-54-17-87-28-33-10-72-22-116-35-4-10-11-16-22-19l-36 75c9 1 20 2 32 3s25 3 40 4c7 26 13 54 20 83s13 59 18 89 10 60 15 89 8 57 11 84h-89l-6 22h173l40 52 76-55c-4-7-9-12-15-15s-15-4-27-4h-59l5-1Z"/></symbol><symbol id="𫝛_T" viewBox="0 0 1000 1000" data-size="21"><path transform="matrix(1 0 0 -1 57 964)" d="M531 537v-11c0-7-2-14-6-19-4-6-13-8-27-7-15 1-22 9-21 24 0 4 0 10 1 19s2 25 4 48 2 38 2 45v201c0 17-1 30-2 37-1 8-2 17-4 29l61-43h253l34 37 41-26c13-9 19-17 19-24 0-5-2-9-5-12-2-2-13-9-31-19l-1-178c0-4 1-20 3-49 2-28 3-46 4-54 1-7 1-13 1-17-1-13-9-20-24-21-14-1-22 1-26 5-3 5-5 9-5 12v23H531m0 27h271v72l-270 1-1-73m0 101h271v71H531v-71m0 99h271v69H531v-69m-269-56v-74c0-6 1-27 4-63 2-36 4-55 4-57-1-13-9-20-24-20-13-1-21 1-25 6-4 4-6 9-6 14l1 184c-15-19-30-37-46-55s-37-37-63-58c-26-20-58-41-96-62L0 539c26 17 52 40 79 68 27 29 49 54 66 78 16 23 31 49 46 78h-68c-26 0-50-1-73-5l-19 42c43-6 73-8 92-8l93-2v59c0 16-1 31-2 47-1 15-1 25-2 31l53-11c16-4 27-8 32-11 6-3 9-7 9-14 1-6-7-12-24-18l-20-7v-76h78l45 50 59-52c6-6 8-12 7-17s-6-8-12-8H262v-34c17-9 29-16 36-20 7-3 17-9 30-17 13-7 24-14 32-20 9-5 22-16 39-31 17-16 25-30 23-43-1-13-6-21-14-26-9-5-16-4-22 2s-13 15-19 26c-7 12-18 26-33 44s-39 39-72 64M827 83c-1-14-2-25-5-33s-10-17-21-28-28-18-49-22c-1 6-3 11-4 18-1 6-4 12-8 18-4 5-11 10-21 14-9 4-32 10-68 16l4 23c54-8 86-13 96-13s18 1 22 6c5 4 8 12 8 22v317H157V28c0-19-10-27-31-26-14 1-21 9-21 24 0 4 1 11 2 23 2 11 3 28 4 50 2 21 2 39 2 51v277c0 17-1 30-2 38-1 9-3 18-5 27l58-43h607l34 37 41-26c13-9 19-16 19-24 0-5-2-9-6-13-3-3-14-9-32-17V83M602 269l33 37 41-26c6-4 12-10 17-16s4-13-4-21c-3-3-14-9-32-17v-64l15-12 8-5c2-3 3-6 3-9-1-7-4-11-11-11H317v-17c0-15-11-22-33-20-10 1-15 4-17 9s-3 11-2 17c0 13 1 21 2 27l2 30c1 19 2 32 2 38v91l57-31h274m7-28H317v-87h292v87m6 117 44 46 61-49c7-5 9-11 8-16-2-6-7-9-13-9H314c-22 0-46-2-72-5l-20 42c40-6 70-9 92-9h301Z"/></symbol><symbol id="𫝜_U" viewBox="0 0 1000 1000" data-size="23"><path transform="matrix(1 0 0 -1 92 919)" d="m745 128 71-52c-4-7-9-12-15-15s-15-4-28-4H562V23c0-3-4-7-12-12-7-5-18-8-31-8h-9v568c-5-7-9-14-14-21-5-6-10-12-15-17l-7 5v-14c8-3 13-6 16-9 3-2 4-5 4-9 0-9-4-17-12-23-8-5-22-8-43-8-17 0-30 0-40 1-9 1-16 3-21 7s-8 10-9 19-2 21-2 37v147h-50c-3-23-7-45-12-67s-12-43-21-64-21-41-36-60c-14-19-31-36-52-52l-13 14c28 32 47 67 58 105 11 39 18 80 21 124h-56l-4 17c-8-5-16-7-24-8V288c0-1-4-5-12-11-7-6-20-9-37-9v61H48v-87c-1-5-6-9-13-13s-18-6-35-6v533l53-25h67l25 33 71-51c-1-3-3-4-5-5h52c1 21 2 41 2 61 1 21 1 42 1 63l88-6c-1-5-3-10-7-13-3-3-11-5-24-6-1-16-1-32-2-49 0-17-1-33-2-50h41l24 31 64-53c-6-6-16-10-31-12V534c0-7 0-12 1-13s2-1 4-1c7 0 12 0 14 1s4 3 6 6c1 3 3 7 5 13s4 13 6 20 4 15 6 23 4 15 5 22h10v-49c16 34 31 76 45 127 15 51 26 102 34 154l89-23c-1-5-4-9-9-12-4-3-12-4-23-5-7-26-16-52-26-78-9-25-20-50-31-73l20-8h59c9 28 19 59 28 92s17 64 23 92l91-26c-3-8-13-12-28-12h-6c-10-22-23-46-38-72s-31-51-48-74h48l37 48 70-51c-4-7-9-12-16-15-6-3-15-4-26-4h-82V457h19l34 47 68-50c-4-7-9-12-16-15-6-3-15-4-27-4h-78V272h15l36 47 67-50c-3-7-8-12-14-15s-15-4-27-4h-77V79h24l36 49M633 272v163h-71V272h71m0 344h-71V457h71v159m-71-366V79h71v171h-71M48 351h81v358H48V351m337 8 38 49 72-52c-3-7-8-12-14-15s-15-4-27-4h-96v-44c25-7 45-15 62-24s30-18 40-28c10-9 17-19 21-29 5-10 7-19 7-27 0-11-3-20-9-27-5-7-12-10-21-10-8 0-15 3-22 10-3 21-13 42-28 65s-32 42-50 57V20l-2-3c-1-3-4-5-8-7-3-3-9-5-16-7s-16-3-27-3v247c-41-67-95-125-163-174l-11 15c34 34 64 72 89 115 26 43 47 88 64 134h-92l-5 22h118v115l92-8c-1-7-5-12-10-15s-15-6-29-7v-85h27Z"/></symbol><symbol id="𫝝_J" viewBox="0 0 1000 1000" data-size="21"><path transform="matrix(1 0 0 -1 43 940)" d="M726 693H233v-30l-55-10v222l68-30h468l21 35 61-39c7-5 10-9 10-12 0-4-4-8-12-11l-10-4V682l-58-9v20M233 818v-98h217v98H233m493 0H503v-98h223v98M87 666l78-34h611l44 54 86-62v-19H147V444h149v70H196l-15 27h234l31 42 69-50v-19H354v-70h92l38 45 76-56v-16H441V8l-54-8v121L204 73l-6-17c-4-11-9-17-16-17-6 0-11 5-16 15l-28 64 77 7v292h-68c0-59-2-103-6-133C129 187 87 94 14 4L0 15c35 63 58 119 70 168 10 39 16 100 17 183v300m182-536 118 13v76H269v-89m0 186v-70h118v70H269m0 27h118v74H269v-74m354 237 73-27c7-2 11-6 11-11s-4-9-13-12l-21-7c-9-25-21-52-34-79h148l43 51 84-59v-19h-98c-17-81-49-158-96-230 48-51 112-92 192-121l-6-17c-17 0-30-2-39-5-9-4-19-12-30-25-51 31-100 74-148 128C632 86 566 38 489 3l-10 15c79 53 140 109 184 169-29 49-52 107-69 174-29-51-65-98-108-142l-12 11c71 93 120 210 149 350m130-163H627c-5-10-11-20-16-29 15-63 40-117 77-164 31 53 53 118 65 193Z"/></symbol><symbol id="𫝞_T" viewBox="0 0 1000 1000" data-size="21"><path transform="matrix(1 0 0 -1 41 953)" d="m289 472-18 42c34-6 61-9 83-9h125l34 36 39-35c12-10 17-18 15-25-2-5-6-9-13-10l-24-3-78-73c6-8 10-15 11-22 2-6 1-11-2-15l-5-7h30l30 33 32-30c8-7 13-12 16-16 3-3 4-7 3-11-2-5-8-9-18-11l-17-3c-22-30-44-59-65-86l-11 10c10 26 17 43 19 49l11 37h-45V88c0-12-1-24-4-33-4-10-8-18-13-23s-13-10-24-17c-10-6-21-11-31-13-1 5-2 11-3 17s-3 12-6 17c-3 6-8 11-16 16-7 5-24 10-51 15l6 20c19-2 37-4 54-6 17-3 28-2 34 3 6 6 9 14 9 26v191c-18-42-36-77-52-105-17-29-36-53-56-73-21-21-42-39-63-56l-13 15c9 8 20 19 32 33 12 13 29 38 50 74 22 37 38 70 48 99l12 35h-21c-24 0-48-1-72-5l-19 42c37-6 68-8 91-8l95-1c-3 2-5 4-7 5-1 2-6 10-17 25-10 15-38 32-85 53l8 18c30-9 49-15 57-18l28-13 20-9 45 67-123-1c-14 0-28-1-43-2l-12-2-10-2m334-283c-27-1-52-2-73-5l-19 42c38-6 68-9 92-9h38c2 19 3 30 4 34l1 41 51-9c18-4 28-9 29-15 1-7-1-12-6-16l-13-5-16-6-3-24h91l31 33 43-33c9-7 12-13 11-17-2-4-6-8-11-11l-18-8c-5-22-11-45-16-70s-12-46-20-64-21-29-39-35c-17-6-36-10-56-12 0 9-1 17-3 23-1 7-4 12-7 15-3 4-18 12-44 25l3 19c36-11 58-17 66-18 9 0 17 1 25 5 9 3 16 17 24 41 7 24 11 41 13 51l5 28H705c-6-16-16-44-32-83-15-39-70-74-164-106l-4 18c21 11 43 25 65 41s41 36 55 59c15 23 23 40 26 50l6 21h-34m8 376 51-20c11-4 18-7 22-10s5-6 5-11c-1-8-10-13-27-13h-15l-12-18h131l40 45 50-47c6-6 8-11 7-16-2-6-6-9-11-9h-34c-21-29-39-51-54-67-14-15-32-30-51-45 37-11 65-18 82-21 18-3 50-6 96-9v-17c-17 0-29-3-36-9s-13-14-18-27c-15 4-31 9-47 13-17 5-30 8-39 11-8 3-33 13-73 31-31-16-58-27-79-34-21-8-50-15-86-24l-8 18c60 23 105 45 138 68-20 24-37 47-52 68l14 12c24-23 47-43 69-60 33 26 60 56 84 92H636c-25-33-56-61-94-84l-8 14c28 29 49 57 63 85s23 47 26 57l8 27m-37 207h240l25 31 42-30c12-9 17-16 16-22-1-3-2-6-5-8s-15-6-35-14c-13-17-30-39-51-65l-16 9c7 19 16 44 26 73H594v-73s1-9 2-27l1-41c0-6-1-13-4-19-2-5-11-8-27-6-8 1-14 2-16 5-1 3-2 6-2 11v150H319c-1-10-2-18-4-26-1-7-3-16-7-27-3-11-7-19-11-25-3-6-7-10-13-14-6-3-12-5-17-5-6 0-12 2-17 6-4 4-6 8-6 13 0 6 2 10 4 13 3 3 9 11 20 23s18 24 22 37c4 14 8 33 13 58h15v-27h230v66H428c-47 0-78-1-94-4l-19 43c29-7 67-11 113-11h318l39 40 56-42c6-5 9-11 7-17s-6-9-13-9H594v-66m-236-59c57-3 92-5 107-6 14-1 25-6 32-14 6-8 10-14 10-19s-1-9-4-13-7-6-14-7c-6 0-15 2-28 9-12 6-25 11-39 16-13 5-35 10-67 16l3 18m276-86c20-2 47-5 80-11 33-5 53-10 60-15s12-10 15-16c3-5 4-12 3-20 0-8-6-12-17-12-5 0-13 3-26 10s-26 14-41 20c-15 8-41 17-79 27l5 17M152 770l34 37 40-26c8-5 13-9 15-12 3-4 4-8 4-13 0-4-1-8-5-12-4-5-15-10-33-18V345l19-16c9-8 11-15 5-21-2-3-3-4-5-4H55v-50c0-11-10-15-31-11-12 2-18 7-20 15-1 1-1 3-1 7 1 3 1 8 0 15 0 7 1 16 2 28v6c1 3 1 19 2 48 0 30 1 46 1 48v316c0 30-1 50-3 60l-4 19-1 8 59-43h93M55 332h106v412H55V332m459 306 4-14c-20-11-45-23-75-34-29-12-47-19-52-21l-4-13c-2-10-7-15-12-15-6 0-11 6-16 18l-17 49c13 2 31 4 53 7s40 6 53 8c14 2 35 7 66 15m238 36c-23-5-46-9-72-13-25-4-42-7-50-8l-5 15c37 16 62 27 74 33s27 16 45 29l38-39c6-6 9-12 8-15-2-3-4-6-8-7 0 0-10 2-30 5Z"/></symbol><symbol id="𫝟_J" viewBox="0 0 1000 1000" data-size="21"><path transform="matrix(1 0 0 -1 41 939)" d="M559 28v148H311l-11 28h259v125H416v-54l-64-10v402l67-36h350l25 43 62-50c7-5 10-11 10-17s-4-10-13-11l-19-4V298l-65-10v41H625V204h113l41 51 90-60v-19H625V28h137l54 66 102-74V0H248l-13 28h324M416 468V357h143v111H416m0 135V495h143v108H416m209-135V357h144v111H625m0 135V495h144v108H625M90 158l-1-13c-2-11-7-17-14-17-4 0-8 3-13 8L3 201l130 45v329H13L0 603h133v245l86-12c11-2 16-6 16-11s-5-10-14-15l-22-11V603h31l39 46 65-57v-17H199V267l122 44 7-16c-43-25-122-71-238-137m813 546H287l-12 27h283v146l77-9c15-2 22-8 22-17 0-7-5-13-16-17l-18-7v-96h145l44 53 91-59v-21Z"/></symbol><symbol id="𫝠_J" viewBox="0 0 1000 1000" data-size="21"><path transform="matrix(1 0 0 -1 46 923)" d="M408 28v348l66-19h238l18 29 59-30c11-6 16-13 16-20 0-5-5-10-16-13l-16-4V28h11l42 61 81-68V0H254l-13 28h167m57 0h249v84H465V28m0 191v-79h249v79H465m0 110v-82h249v82H465m-90-33L80 166v-15c0-12-4-18-11-18-5 0-10 4-16 11L0 211l130 36v308H15L2 583h128v250l84-9c11-1 16-6 16-13 0-5-4-10-12-14l-24-11V583h33l47 51 69-58v-21H194V265l175 48 6-17m118 462H298l-10 28h482l50 60 84-67v-21H690V646h80l26 35 62-40c11-7 16-13 16-18s-5-9-16-13l-15-6V403l-63-15v38H413v-33l-59-14v297l66-30h73v112m-80-140V454h80v164h-80m135 0V454h86v164h-86m0 140V646h86v112h-86m142-140V454h90v164h-90Z"/></symbol><symbol id="𫝡_J" viewBox="0 0 1000 1000" data-size="21"><path transform="matrix(1 0 0 -1 46 941)" d="m759 670 25 40 70-51c6-4 9-8 9-13s-6-8-17-11l-23-5V386c0-26-7-43-20-52-11-7-23-11-36-13-21-3-32-5-34-5-5 0-8 5-9 16 0 12-1 20-4 24-1 3-9 6-24 9l-35 8v18h102v81H586V323l-60-9v276c-26-40-60-78-101-114l-15 13c54 62 100 143 139 244H437l-8 28h130c11 33 22 73 31 120l79-22c12-3 18-9 18-17 0-7-6-13-18-17l-25-9c-11-25-18-44-23-55h153l44 55 87-62v-21H609c-6-13-17-34-33-63h183m4-27H586v-60h177v60M586 500h177v55H586v-55M104 813h89l25 39 69-54c8-7 12-13 12-19 0-5-6-9-17-11l-19-4c-34-55-72-108-113-159 4-3 8-7 11-10 39-34 64-62 76-83 20-35 30-72 30-111 0-41-13-69-40-82-20-10-39-15-58-15-4 0-7 1-10 2-3 2-5 8-5 18 0 7-1 12-4 17s-11 10-24 13c-12 3-20 6-24 7V224l-61-8v636l63-39m-2-28V382h88c7 17 10 34 10 52 0 28-6 56-18 84-9 20-27 47-55 82 25 55 47 117 66 185h-91M12 0 0 28h418v102H118l-10 28h310v87l72-5c16-1 24-5 24-13 0-5-5-10-15-15l-15-8v-46h215l44 59 86-65v-22H484V28h284l48 63 91-69V0H12m267 825 8 15c32-9 60-24 85-46 28-25 42-48 42-70 0-12-3-22-10-29-6-7-14-11-23-11s-17 3-23 10c-3 3-10 22-22 57-13 35-32 60-57 74m-81-540 138 65v198h-99l-14 28h104l23 33 57-44c12-9 18-16 18-19s-5-7-15-12l-15-7V360c17-16 33-28 50-36 32-16 78-24 138-24h322l-1-17c-25-5-43-20-53-44H616c-81 0-141 15-182 46-25 19-47 40-65 65L262 239v-13c0-9-4-13-11-13-5 0-10 5-16 14l-37 58Z"/></symbol><symbol id="𫝢_J" viewBox="0 0 1000 1000" data-size="21"><path transform="matrix(1 0 0 -1 49 935)" d="M607 589v279l81-8c13-1 19-6 19-13 0-6-5-11-15-14l-24-10V589h118l41 53 75-58v-22H668V12L607 0v562H413l-16 27h210M0 333c37 63 72 152 104 265 23 84 39 175 50 272l88-31c9-3 13-8 13-16 0-7-5-11-16-14l-27-7c-9-41-19-81-30-121h141l13 30 68-42c15-10 23-18 23-24 0-7-7-13-20-17l-21-6c-34-187-85-330-153-427C169 102 106 38 45 3l-9 15c95 87 165 194 211 320-5-1-8-1-10-1-5 0-10 1-14 3-5 3-14 15-27 37-19 33-51 65-94 94-28-58-57-107-86-146l-16 8m174 320c-18-55-39-110-64-165 47-14 78-26 95-37 24-15 40-31 47-48 2-5 5-13 8-26 7 19 16 51 27 95 15 64 26 124 32 181H174m533-200c37-7 70-21 97-42 25-19 43-41 54-67 5-10 7-20 7-31 0-10-3-18-9-25s-14-10-23-10c-7 0-13 4-18 12-4 5-14 26-30 61-16 32-44 62-83 91l5 11Z"/></symbol><symbol id="𫝣_J" viewBox="0 0 1000 1000" data-size="21"><path transform="matrix(1 0 0 -1 49 935)" d="M607 440v172H453l-16 28h170v228l81-8c13-1 19-6 19-13 0-6-5-11-15-14l-24-10V640h81l41 53 76-58v-23H668V440h118l41 53 75-58v-23H668V11L607 0v412H413l-16 28h210m100-114c37-7 70-21 97-42 25-19 43-41 54-67 5-10 7-20 7-31s-4-20-11-27c-6-5-13-8-21-8-7 0-13 4-18 12-4 5-14 26-30 61-16 33-44 63-83 91l5 11M0 333c37 63 72 152 104 265 23 84 39 175 50 272l88-31c9-3 13-8 13-16 0-7-5-11-16-14l-27-7c-9-41-19-81-30-121h141l13 30 68-42c15-10 23-18 23-24 0-7-7-13-20-17l-21-6c-34-187-85-330-153-427C169 102 106 38 45 3l-9 15c95 87 165 194 211 320-5-1-8-1-10-1-5 0-10 1-14 3-5 3-14 15-27 37-19 33-51 65-94 94-28-58-57-107-86-146l-16 8m174 320c-18-55-39-110-64-165 47-14 78-26 95-37 24-15 40-31 47-48 2-5 5-13 8-26 7 19 16 51 27 95 15 64 26 124 32 181H174Z"/></symbol><symbol id="𫝤_J" viewBox="0 0 1000 1000" data-size="21"><path transform="matrix(1 0 0 -1 46 955)" d="M803 42c-31 1-55-13-71-42-133 49-233 124-301 226-21-68-67-123-140-164C233 30 168 9 95 0L83 19c77 15 143 44 198 86 51 41 82 86 95 136H105l-10 25h286c4 23 6 61 6 115H238l-13 26h329l42 49 70-59v-16H452c-2-56-5-94-10-115h193l52 54 78-61v-18H450c29-40 78-78 147-114 76-37 145-60 208-71l-2-14M0 311c3 2 7 4 10 6 91 47 172 115 242 205H29l-15 26h257c24 35 45 71 64 109H98l-13 29h264c26 55 49 129 69 223l87-21c11-3 16-7 16-14 0-8-5-13-14-15l-20-6c-21-61-44-116-69-167h262l48 60 86-68v-21H529c29-46 60-82 91-109h128l51 64 90-72v-18H649c76-67 162-117 258-150l-7-15c-19-3-33-8-43-15-9-7-18-18-26-33-43 23-90 57-141 103-32 29-64 66-97 110H321C236 421 133 347 10 299L0 311m405 346c-21-38-43-74-66-109h233c-28 40-51 76-68 109h-99M111 879c33-7 67-23 102-48 43-31 65-61 65-90 0-12-5-22-16-31-7-6-15-9-24-9s-17 4-22 13c-1 2-5 12-12 29-21 53-53 94-98 122l5 14m439-168c39 55 76 116 111 181l68-45c10-7 15-13 15-18 0-6-6-9-17-9h-18L563 699l-13 12Z"/></symbol><symbol id="𫝥_U" viewBox="0 0 1000 1000" data-size="23"><path transform="matrix(1 0 0 -1 71 918)" d="M587 379c15-63 40-120 74-170 18 15 37 34 58 56s40 44 57 66l70-60c-3-1-5-3-8-4-2-1-5-2-8-2-5 0-11 2-19 5-22-17-45-32-69-45s-47-24-68-33c46-60 107-106 183-137l-2-10c-26-2-43-17-52-45-63 37-114 85-153 145-29-13-63-29-104-48s-89-40-146-64c-1-6-4-11-8-14-4-4-8-7-12-8l-40 85c9 1 19 3 30 5 12 2 25 5 40 8v633l69-30h81v123l99-9c-1-7-4-13-11-16-6-3-17-6-32-8v-90h90l27 36 78-55c-8-9-21-15-39-18V366c0-1-5-5-14-11s-24-9-43-9v33H587m-120 21h248v136H467V400m248 291H467V558h248v133M467 379V119c27 5 55 11 84 18s60 13 92 20c-18 31-33 64-46 101-12 37-22 77-29 121H467m-70-89c-4-7-9-12-15-15-5-3-15-4-28-4H218l-5-36c27-6 49-13 67-22s32-18 43-28c11-9 19-19 24-28s7-18 7-26c0-9-3-17-8-23s-12-9-20-9c-9 0-17 3-24 9-7 17-20 36-38 56-17 21-36 38-55 53-5-22-11-43-20-63-9-19-20-38-35-55s-33-32-55-47-48-28-79-40L10 29c27 15 50 31 68 48s32 36 43 55c11 20 20 41 25 64 6 23 10 48 13 75H5l-5 22h161c2 34 3 71 3 112l92-7c-1-5-3-10-7-13s-12-5-24-6c-1-15-1-30-2-45-1-14-2-28-3-41h59l40 51 78-54M8 444h154v114H35l-6 21h133v99H19l-6 22h215c7 20 13 42 20 67s13 48 18 68l87-27c-2-9-10-13-24-13h-5c-1 1-3 1-4 1-9-13-20-29-32-47-12-17-24-34-36-49h34l36 46 69-49c-3-7-8-12-14-15s-15-4-27-4H218v-99h62l35 46 69-48c-3-7-8-12-14-15s-15-4-27-4H218V444h82l37 48 70-50c-3-7-8-12-15-15-6-3-15-4-26-4H14l-6 21m65 385c35-13 60-28 73-44s20-31 20-45c0-11-3-20-10-27s-14-11-23-11-18 4-26 13c0 18-4 37-13 57-9 21-19 38-30 51l9 6Z"/></symbol><symbol id="𫝦_G" viewBox="0 0 1000 1000" data-size="21"><path transform="matrix(1 0 0 -1 41 959)" d="M430 852c5 0 31-13 78-39h262c10 15 20 29 31 42 39-23 67-42 86-58 0-3-9-12-28-27-7-6-9-174-4-504-15-19-36-26-62-24v547H535c-31 3-45-10-43-39V273c-18-15-39-26-62-31 2 240 2 443 0 610m175-137c60-21 90-33 90-35l-11-12c-8-8-12-13-12-16 0-132-5-244-16-336C648 165 520 60 270 0l-4 12c226 83 338 186 336 308 10 73 11 205 3 395m-312-55h-98c-26-133-48-246-66-340 21-7 51-24 90-50 36 72 61 199 74 378v12m387-441c114-39 190-77 226-114 16-18 16-44 0-78-15-20-31-17-47 12-33 60-96 116-187 168l8 12M352 645c0-6-2-15-4-28-19-185-46-308-82-371 41-29 65-49 70-62 23-55 16-84-23-86-6 0-14 10-24 31-21 31-39 55-55 70C190 132 115 70 8 16L0 27c99 73 165 141 199 203-2 3-5 6-8 8-41 34-82 63-121 86 29 102 51 214 67 336H63l-32-8-15 32h121c2 13 5 32 8 58 15 94 23 153 23 176 65-34 98-52 98-55l-8-4c-18-7-28-15-28-23-5-16-10-43-15-82-8-31-13-55-16-70h94c3 26 4 46 4 62 31-8 58-19 82-35 0-3-3-5-8-8-8-8-13-18-16-31l-3-27Z"/></symbol><symbol id="𫝧_G" viewBox="0 0 1000 1000" data-size="21"><path transform="matrix(1 0 0 -1 27 955)" d="M316 727c47-19 76-32 86-39 0-3-2-6-7-8-8-8-13-17-16-28-3-7-5-17-8-27-3-8-4-13-4-16-15-135-44-251-86-347 58-29 90-59 98-90 5-47-4-73-27-78-6 0-13 9-24 27-18 39-42 70-70 94C195 118 113 47 12 0L4 16c88 60 159 136 211 230-24 16-72 43-145 82 19 60 39 158 63 293 2 8 4 14 4 20H59l-36-12-23 35h141c2 10 6 33 11 66 13 86 21 145 24 176 65-23 96-38 94-43 0-2-3-6-8-11-19-13-30-30-35-51-6-18-15-64-28-137h114c2 26 3 47 3 63m481-188 70-59-35-31v-70c0-31 3-70 8-117-21-16-42-22-63-20v63H531c-28 2-41-9-39-35V105c-2-33 13-49 47-46h231c67-21 104 41 109 187h12c0-94 18-147 54-160-13-55-77-81-191-78H535c-75-8-109 22-101 90v269l66-39h277v149H465l-39-8-35 31h379l27 39M617 910l90-43-31-23V637h133v195l82-47-32-23v-43c0-18 2-43 4-74v-51c-8-11-26-20-54-28v47H496l-27-35-59 43c16 16 22 30 20 43v168l82-43-28-27V637h133v273M313 641H191c-7-50-30-153-66-309 13-5 49-21 109-47 34 73 60 190 79 352v4Z"/></symbol><symbol id="𫝨_G" viewBox="0 0 1000 1000" data-size="21"><path transform="matrix(1 0 0 -1 29 959)" d="M281 741c29-8 56-21 82-39 0-3-1-4-4-4-10-8-17-18-19-31-3-3-5-9-8-20v-23c-23-177-51-301-82-371 55-37 85-67 90-90 5-37-5-60-31-71-8 3-17 13-28 32-15 34-32 62-51 86C173 129 99 63 8 10L0 22c83 68 147 142 191 223-2 2-6 5-11 8-39 36-75 62-106 78l63 324H66l-31-8-19 31h125l35 243c57-29 84-45 82-47l-8-4c-10-5-17-12-20-20l-35-172h86v63m285 47 90-55c0-3-4-4-11-4-19-5-32-14-40-27 0-3-1-7-3-12-8-13-15-29-20-47h203l35 51 75-70v-4H570l-86-192h129v153l90-43-31-24v-86h90l43 59 74-74-4-8H672V257h156l35 54 78-74-3-4H672V22C641 7 620 0 609 3l4 230H410l-47-8-19 32h269v148H488l-35-35-62 51c2 0 5 1 7 3 19 8 34 23 47 43l63 153h-78l-43-8-24 31h153c28 60 45 108 50 145M277 635v20h-86l-70-324c18-8 47-25 86-51 31 86 55 203 70 352v3m559 250 98-82c0-2-10-4-28-4-31-2-51-6-58-11-13-8-30-25-51-51-11-13-20-23-27-31l-16 8c31 62 47 97 47 105H449c0-47-10-78-31-94-18-15-34-19-47-11-18 10-22 23-12 39 3 2 6 5 8 7 42 37 61 76 59 118h8c5-8 9-20 11-36h356l35 43Z"/></symbol><symbol id="𫝩_G" viewBox="0 0 1000 1000" data-size="21"><path transform="matrix(1 0 0 -1 35 965)" d="M301 754c5-3 17-7 35-12 34-10 51-17 51-19 0-3-4-7-12-12-10-10-17-21-20-31 0-6-1-12-3-20v-12c-19-187-47-320-86-398 26-21 47-39 62-55 68 81 123 180 164 297h-90l-31-4-19 28h148c16 39 27 78 35 117h-70l-24-8-23 31h121c8 34 14 69 20 106H422l-20-12-27 31h188c0 5 1 12 3 20 6 36 11 79 16 129l90-43-8-8c-13-8-21-16-23-24-3-7-8-32-16-74h156l51 59 70-74v-4H621c-5-19-13-54-23-106h140l43 47 71-66v-4H590c-8-42-20-81-35-117h258l42 54 75-74v-4H547c-3-5-7-13-12-23-18-47-34-81-47-102h227v117c8-2 18-7 31-15 37-16 55-25 55-28l-12-7c-13-11-19-17-19-20v-47h31l43 47 70-62-4-8H770V74c5-34-23-58-82-74-8 42-47 70-118 86l4 12c110-24 156-20 141 11v235H477c-29-52-73-106-133-160 15-19 26-34 31-47 5-32-4-51-27-59-6 0-15 9-28 27-23 37-49 69-78 98C198 130 128 68 31 16l-8 7c76 60 136 132 180 215-39 34-85 61-137 82 32 128 54 237 67 328H63l-36-7-27 31h137c10 68 18 141 23 219 3 15 4 26 4 31 57-24 86-37 86-39 0-3-4-5-12-8-10-8-17-16-19-23-3-16-8-49-16-98-5-42-9-69-12-82h106c2 18 4 45 4 82m-78-481c39 105 62 230 70 375H188c-19-117-40-224-63-320 49-23 82-42 98-55m265 28c47-26 80-52 98-78 21-47 10-78-31-94-8 0-15 12-20 35-8 50-25 93-51 129l4 8Z"/></symbol><symbol id="𫝪_G" viewBox="0 0 1000 1000" data-size="21"><path transform="matrix(1 0 0 -1 23 957)" d="M301 746c5-3 17-6 35-12 34-10 51-17 51-19 0-3-4-7-12-12-10-10-17-21-20-31 0-5-1-12-3-20v-11c-24-201-53-334-86-399 62-44 93-74 93-90 6-34-5-53-31-58-5 0-10 4-15 11-16 32-40 62-71 90C198 122 128 60 31 8l-8 8c76 60 136 131 180 214-39 34-85 62-137 83 19 72 38 165 59 277 3 23 5 40 8 51H63l-36-8-27 31h137c10 78 19 158 27 238v12c57-23 86-36 86-39s-4-5-12-8c-10-8-17-17-19-27-3-8-5-25-8-51-10-62-18-104-23-125h109c2 18 4 46 4 82m129-164 70-35h266c2 0 7 6 15 19l12 16c36-21 60-39 70-55l-11-11c-16-11-24-17-24-20l8-269c-23-13-44-21-63-24v320H520c-27 3-38-7-36-31V215c-15-13-36-21-62-24 0 37 2 167 8 391m168-113c62-18 93-29 93-31 0-3-3-7-11-12-13-11-20-20-20-28-2-72-12-135-27-187 104-34 187-69 250-106 34-31 35-62 4-93-5-3-19 6-39 27-63 68-137 119-223 152C581 90 474 26 305 0l-4 12c127 47 209 99 246 156 42 62 58 163 51 301M223 266c39 104 62 229 70 375H188c-19-118-40-224-63-321 49-23 82-41 98-54m590 629 74-71-4-4H660V664h168l51 51 74-67-4-7H430l-43-12-24 35h239v156H445l-39-11-19 35h379l47 51Z"/></symbol><symbol id="𫝫_G" viewBox="0 0 1000 1000" data-size="21"><path transform="matrix(1 0 0 -1 25 969)" d="M301 758c5-3 17-7 35-12 34-10 51-17 51-19 0-3-4-7-12-12-10-11-17-21-20-31 0-6-1-12-3-20v-12c-24-200-53-333-86-398 52-37 84-69 97-98 86 91 150 192 192 301H422l-55-12-19 35h250v250H465l-47-7-23 27h203v188l93-51-39-28V750h129l47 55 70-71-3-4H652V480h43c29 66 55 137 78 215l79-39c0-5-4-10-12-15-16-8-27-19-35-32s-19-30-32-50c-20-29-39-55-54-79h97l55 55 78-70v-8H684c20-62 53-124 97-184 39-54 93-93 160-117v-11c-44 5-76-4-97-28-45 37-82 84-114 141-31 57-53 124-66 199h-12V27c-13-10-34-19-62-27l8 418c-45-109-119-204-223-285l4-4c3-29-8-48-31-59-6 0-13 11-24 32-23 41-51 76-82 105C198 134 128 72 31 20l-8 7c76 60 136 132 180 215-39 34-85 61-137 82 19 73 38 166 59 278 3 23 5 40 8 50H63l-36-7-27 31h137c10 78 19 157 27 238v12c57-24 86-37 86-39 0-3-4-5-12-8-10-8-17-17-19-27-3-8-5-25-8-51-10-63-18-104-23-125h109c2 18 4 45 4 82m-78-481c39 105 62 230 70 375H188c-19-117-40-224-63-320 49-23 82-42 98-55m211 414c57-49 89-83 97-101 13-42-1-69-43-82-8 0-13 13-15 39-8 57-24 104-47 141l8 3Z"/></symbol><symbol id="𫝬_G" viewBox="0 0 1000 1000" data-size="21"><path transform="matrix(1 0 0 -1 16 973)" d="M297 758c34-8 62-20 86-35 0-3-3-7-8-12-10-5-17-13-20-23l-3-32c-13-140-42-268-86-383 60-28 92-49 97-62 19-16 25-39 20-70-5-16-12-24-20-24-5 0-11 4-19 12-24 39-58 74-102 105C188 148 113 78 20 23L8 31c88 73 152 149 191 227-39 21-86 41-140 62 36 133 61 248 74 344H66l-46-12-20 32h137c21 125 30 211 27 257l94-58-12-4c-16-8-25-16-27-24l-24-171h102v74m312 187c58-21 85-34 82-39 0-2-9-10-27-23v-63h125c10 13 21 25 31 35 3 0 26-16 71-50l-32-32 4-132c-18-13-36-20-54-20v39H664v-97h191l43 42 71-58-4-8H422l-35-12-35 36h257v97H477v-35c-21-10-41-16-59-16l8 246 66-35h117v125M293 664H188c-16-101-41-213-75-336 32-8 65-19 102-35 44 104 70 228 78 371m129-168 62-35h293l32 27c18-5 41-21 70-47-11-7-21-15-31-23l4-207c-16-16-37-25-63-27v254H500c-21 2-30-10-27-36V199c-11-8-28-15-51-23v320m183-105c58-21 86-33 86-36 0-2-3-6-11-11-16-11-24-18-24-24C667 148 547 42 297 0l-8 12c138 49 223 95 254 136 42 45 62 125 62 243m204 410H664V680h145v121m-200 0H508c-26 2-37-8-31-31v-90h132v121m67-606c127-41 196-70 207-86 26-41 26-75 0-101-5 0-13 8-24 23-44 58-106 108-187 153l4 11Z"/></symbol><symbol id="𫝭_G" viewBox="0 0 1000 1000" data-size="21"><path transform="matrix(1 0 0 -1 18 951)" d="M148 902c42-13 77-30 106-50 0-3-5-7-16-12-18-11-28-21-31-31-8-42-16-92-23-149h86c2 8 3 18 3 31 3 16 4 28 4 36l78-36c0-2-2-5-7-7-11-13-17-26-20-39-10-152-36-278-78-379 57-34 90-67 98-98 0-42-15-64-43-66-6 0-12 7-20 23-15 36-35 66-58 90C172 129 99 61 8 12L0 23c81 71 142 148 184 231-11 5-24 13-39 23-29 16-54 28-75 36l51 324H66l-35-12-23 35h117c16 91 23 172 23 242m594-507c8-3 22-8 43-16s31-13 31-16c0-2-2-5-7-8-13-7-21-16-24-27h70l40 51 70-63-4-11H777c-15-60-37-110-66-149 42-10 98-28 168-54 39-34 42-64 8-90-8 0-24 8-47 23-55 34-110 60-164 78C600 56 480 18 316 0l-3 16c143 36 244 75 304 117-21 8-57 18-109 31-31 8-56 14-74 20l58 121H387l-51-12-23 35h187c5 8 21 44 47 110l66-36c0-2-4-6-11-11-8-3-15-7-20-12-3-3-8-12-16-27-5-13-9-21-11-24h172v12c2 13 7 31 15 55m129 488c13-8 37-24 70-47-10-10-22-21-35-31 5-112 8-187 8-223-3 0-6-1-12-4-10-5-23-9-39-12v262H730c-13 0-19-8-19-23V563c-13-11-29-17-47-20 0 65 1 177 4 336l59-31h113c10 13 21 24 31 35M367 672v207l59-27h117c3 0 12 10 27 31 8-5 28-20 59-43 0-3-11-13-31-31 2-118 4-194 4-231-13-13-30-19-51-19l4 269H438c-16 3-25-5-28-23V570c-13-13-28-21-47-23l4 125M199 293c39 89 63 203 71 344h-90l-55-313 74-31m563 492 74-23c-16-16-23-29-23-39 0-68-6-120-16-157 49-18 92-41 129-70 26-36 23-64-8-82-8 0-16 8-23 24-24 44-58 82-102 113-18-58-69-107-152-149l-12 12c104 63 150 156 137 281 0 26-2 56-4 90m-305-8 74-19c0-3-2-5-8-8-10-13-15-23-15-31 0-76-5-132-16-168 37-8 74-24 113-47 19-26 16-50-7-70-6 0-15 7-28 23-26 34-54 60-86 78-13-55-63-104-152-148l-8 11c99 66 145 163 137 293 0 26-1 55-4 86m35-582c63-7 116-17 160-27 32 39 54 85 67 137H547l-55-110Z"/></symbol><symbol id="𫝮_G" viewBox="0 0 1000 1000" data-size="21"><path transform="matrix(1 0 0 -1 23 961)" d="m613 777 75-39-32-19v-51h94l39 43 59-59v-4H656v-78h86l20 35 66-46-27-24 4-195c-13-8-30-14-51-20v39h-98v-46c94-32 143-54 149-67 28-26 31-52 8-78-6 0-15 8-28 23-39 45-82 79-129 102V102c-13-13-28-21-47-24l4 227c-52-78-112-134-179-168l-8 8c75 75 130 147 164 214h-70v-35c-24-8-41-11-51-11l8 281 43-24h93v78H504l-31-11-32 31h172v109m-340-15c40-16 66-29 79-39 0-3-3-6-8-8-8-8-13-17-16-27 0-6-1-12-4-20-2-5-4-13-4-23-23-198-49-329-78-391 52-39 80-69 82-90 5-42-4-65-27-70-8 0-18 11-31 35-16 31-32 57-47 78C174 132 104 63 8 0L0 12c76 67 137 146 184 234-39 34-77 61-114 82l51 328H66l-31-11-19 31h109l31 246c52-29 78-44 78-47l-7-8c-11-5-17-10-20-15l-31-176h94c0 15 1 34 3 54v32m602 125 78-63-43-35V90c3-37-26-64-86-82-2 44-40 74-113 90v11c115-20 164-20 148 0v707H664l-39-11-31 35h246l35 47M371 773l78-46-31-28V43c-16-13-35-22-59-27l12 757M199 281c34 97 56 222 67 375h-90l-63-324c5-5 20-14 43-27 18-11 33-19 43-24m414 274h-66c-21 2-30-8-27-32V379h93v176M434 914c59-34 96-65 109-94 10-41-1-66-35-74-3 3-7 13-12 31-16 52-39 97-70 133l8 4m320-359h-98V402c13 26 28 67 43 121l55-35v67m0-75c-11 3-22-3-35-19-8-13-25-37-51-70-5-6-9-9-12-12h98v101m-215 40c24-19 42-40 55-63 8-34-2-52-28-55-5 6-7 16-7 32-3 31-12 58-28 82l8 4Z"/></symbol><symbol id="𫝯_J" viewBox="0 0 1000 1000" data-size="21"><path transform="matrix(1 0 0 -1 46 954)" d="M551 466h145l3 108H582l-9 25h126l5 97H581l-8 25h132l3 100H575l-7 25h127l29 44 59-38c11-7 17-14 17-21 0-5-4-10-13-13l-17-5-14-347h31l28 48 73-60c13-11 20-21 20-28 0-9-8-14-23-14h-36l-83-69-12 10 39 86H94c-2-73-23-109-62-109-21 0-32 10-32 29 0 7 2 13 5 19 1 1 10 10 28 27 12 9 22 34 30 76 2 11 4 22 5 33h17l7-48h64l-12 400 63-34c13 5 32 16 59 33 25 16 40 27 46 33l38-36c7-7 11-13 11-18 0-7-4-10-11-9h-3l-24 4c-47-15-87-25-119-32l3-87h44l30 44 61-47v-21H207l4-100h55l31 50 53-53v-19H211l5-108h147l6 204 72-7c13-1 19-6 19-14 0-4-4-7-11-10l-23-8-5-165h74v263h-74v-30l-58-6 6 215 69-7c13-1 19-5 19-12 0-8-6-13-19-16l-14-3v-30h49l33 29 57-34v-18H424l-3-65h66l29 36 49-31c9-5 13-10 13-15s-4-9-13-12l-14-5V466M414 192H18L6 218h408v69l56-5c31 22 61 46 89 71H202l-13 28h376l25 34 81-54c13-8 19-15 19-20 0-2-1-4-4-6-1-1-7-2-18-4h-1l-2 1-33 1-130-62c5-3 8-7 8-10 0-5-4-8-13-10l-24-7v-26h295l49 60 84-66v-20H473V60c0-15-3-26-9-33-8-9-23-17-46-22-12-3-22-5-29-5-9 0-13 5-14 15-1 8-3 15-6 20-4 7-14 12-31 15l-60 13v16h136v113Z"/></symbol><symbol id="𫝰_J" viewBox="0 0 1000 1000" data-size="21"><path transform="matrix(1 0 0 -1 48 940)" d="m414 879 79-11c13-1 19-6 19-14 0-5-4-9-13-12l-22-6v-63h309l31 43 75-68c7-7 11-14 11-21 0-8-8-12-24-12h-35l-97-71-12 12 43 90H315l51-19c9-3 13-8 13-14 0-5-6-9-19-11l-20-3c-9-9-17-19-24-28h212l23 36 62-56c10-9 15-15 15-20s-5-7-16-8l-22-2-97-43h203l15 31 60-36c10-6 15-11 15-15s-5-7-15-10l-17-5V375l-58-12v31H477v-63h270l15 32 60-36c9-5 14-10 14-15s-5-8-14-10l-17-5V113l-58-12v31H477V74c0-9 2-15 5-17s8-3 17-3h306c11 1 19 7 22 19l29 102h16V82c0-15 10-25 31-32-15-33-34-50-59-50H469c-37 1-55 17-55 50v82H157V97L98 86v277l65-32h251v63H203v-27l-58-12v164c-51-35-88-59-110-70l-11 15c49 36 90 70 123 102 50 47 97 107 141 180H111c-5-49-13-83-24-100-11-19-27-28-47-28-9 0-17 2-24 6-11 7-16 17-16 30 0 7 6 15 17 23 46 32 69 77 69 135h27c1-9 1-15 1-20 0-4 0-10-1-19h301v106M203 421h211v51H203v-51m274 51v-51h219v51H477m-274 27h211v52H203v-52m274 52v-52h219v52H477m-259 27h233l77 66H290c-24-24-48-46-72-66m-61-419h257v59H157v-59m320 59v-59h270v59H477m-320 27h257v59H157v-59m320 59v-59h270v59H477Z"/></symbol><symbol id="𫝱_J" viewBox="0 0 1000 1000" data-size="21"><path transform="matrix(1 0 0 -1 50 951)" d="M278 535c-31-10-68-20-112-30l-7 18c33 10 62 20 87 30 11 5 19 9 22 10v134l66-9c12-2 18-6 18-12 0-7-4-12-12-15l-15-5v-67l3 1c91 49 166 102 227 160l43-30c15-10 22-17 22-20 0-8-9-12-28-12h-22c-63-47-135-89-214-124h231c27 1 45 17 54 50l11 43h16v-49c1-23 11-36 32-39-7-35-28-53-64-54l-299 1c-31 1-51 7-59 19M14 224 0 252h754l53 60 86-67v-21H495V75c0-22-4-37-11-44-9-9-22-17-41-22-19-6-31-9-36-9-3 0-5 1-6 4-1 1-4 11-9 28-1 4-11 9-30 15l-43 14v18h111v145H14m109 537c-3-33-9-57-16-73-18-38-41-57-70-57-20 0-30 9-30 28 0 7 3 15 8 22 1 1 16 13 44 36 27 25 39 61 38 108h17l6-36h286v112l75-4c13-1 19-5 19-12 0-5-5-10-15-15l-15-8v-73h300l31 44 83-64c11-9 16-16 16-21 0-9-8-14-25-14h-43l-77-57-11 9 26 75H123m68-70c-1-67-17-116-48-147-13-13-27-19-44-19-19 0-29 8-29 23s10 28 29 37c29 13 51 37 67 71 5 11 8 23 9 35h16m-64-405v226l65-33h492l23 33 62-39c9-5 14-11 14-16 0-6-5-11-14-15l-18-7V304l-59-11v32H185v-27l-58-12m58 165v-98h130v98H185m190 0v-98h128v98H375m185 0v-98h132v98H560M313 756c85-12 127-34 127-67 0-9-3-16-10-22-5-5-11-7-18-7-8 0-16 4-24 13-2 2-10 12-24 31-9 13-28 26-56 39l5 13m355-52c43-15 80-33 112-56 39-28 58-55 58-82 0-12-4-21-12-28-5-5-11-7-18-7-8 0-15 3-22 10-2 3-9 17-22 44-24 43-58 79-102 108l6 11Z"/></symbol><symbol id="𫝲_J" viewBox="0 0 1000 1000" data-size="21"><path transform="matrix(1 0 0 -1 42 938)" d="M688 574c93-39 140-80 140-123 0-12-4-21-12-28-6-5-13-8-21-8-13 0-24 9-32 28-16 38-32 66-48 84-9 10-22 21-37 32l10 15M0 15c30 45 52 86 67 124 27 72 42 150 47 234 2 39 3 103 3 192v305l72-34h552l19 40 75-42c10-5 15-10 15-15 0-6-6-11-17-15l-15-4V590l-67-12v54H179l-2-174c-1-85-11-157-28-216C120 150 76 69 16 0L0 15m179 794V660h572v149H179M132 26c74 38 136 83 185 135 40 45 67 93 82 143 7 25 13 65 20 121H240l-17 27h199c2 43 3 96 3 161l85-14c13-2 19-6 19-13 0-5-5-9-16-13l-21-8-7-113h133l29 47 70-47c11-7 16-12 16-16 0-5-5-10-14-14l-17-8V109c0-5 2-9 5-12s13-5 30-5h58c12 0 21 5 27 16 7 12 14 31 20 57l19 92h18l-3-107v-3c-1-29 12-46 39-50-11-45-39-67-84-64H691c-18-1-32 6-42 20-5 7-8 22-8 44v328H483c-8-66-21-120-38-162C405 159 304 74 142 7l-10 19Z"/></symbol><symbol id="𫝳_J" viewBox="0 0 1000 1000" data-size="21"><path transform="matrix(1 0 0 -1 75 932)" d="m351 801-16 26h381l20 37 68-42c11-7 16-13 16-19 0-7-5-12-16-16l-14-5V563l-66-9v47H464l-18-176h298l25 38 61-38c13-8 19-15 19-20 0-6-5-11-14-15l-14-6v-54c0-80-8-148-24-205-15-53-42-90-79-110-19-10-35-15-46-15-4 0-7 3-8 8-2 17-5 27-9 32-3 5-12 9-25 12l-68 14v19h144c29 38 45 110 49 216l2 97H443l-5-58h-64l33 329 71-41h246v173H351M0 72v611l78-15c11-2 17-6 17-13s-4-11-13-13l-21-6V237h70v625l80-8c11-1 17-6 17-15 0-7-5-12-14-15l-17-5V237h69v449l73-12c10-2 15-7 15-16 0-7-5-11-15-13l-14-3V129l-59-11v91H61V86L0 72Z"/></symbol><symbol id="𫝴_G" viewBox="0 0 1000 1000" data-size="21"><path transform="matrix(1 0 0 -1 38 953)" d="m523 434 40-43h230l35 43 47-51c5-3 8-5 8-8s-4-5-12-8l-19-8V129l3-63c6-26-10-40-46-43v75H570V55c0-26-17-41-50-43 5 23 7 56 7 97v270c-2 16-7 30-15 43l11 12m47-317h239v254H570V117m215 774 67-43c5-3 7-7 7-12 0-3-2-5-7-8-19 3-38 0-59-8-57-15-113-28-168-39-47-8-98-14-152-19V598h355l27 35 63-43c5-3 6-5 4-8 0-3-3-4-8-4H473c2-164-12-288-43-371-32-89-81-158-149-207l-8 8c68 70 111 146 129 226 24 86 33 217 28 391v133c-3 18-12 35-28 51l12 11 47-39c29 5 72 13 129 24 13 2 22 5 27 8 13 2 30 6 51 11 26 8 47 15 62 20 6 2 12 5 20 8 10 5 17 7 20 7 7 8 10 17 7 28l8 4M82 672c16-3 18-7 8-12-8-2-16-8-24-15V203c24 3 55 9 94 20v629c0 13-9 27-27 43l8 11 82-35c7-3 9-6 4-12-11 0-20-5-28-15V230c31 8 63 16 94 24v391c3 13-7 28-27 46l7 12 79-35c10-3 13-7 7-12-13-5-23-11-31-19V285l4-97c3-21-10-36-39-43v89c-18-5-50-14-94-27-31-10-54-18-70-23-31-11-51-19-59-24-7-2-17-10-27-23L0 180c13 5 23 13 31 23v445c-2 16-10 30-23 43l4 12 70-31Z"/></symbol><symbol id="𫝵_G" viewBox="0 0 1000 1000" data-size="21"><path transform="matrix(1 0 0 -1 43 971)" d="M574 941c65-28 98-45 98-50 2-3 1-6-4-8-18-8-29-17-31-28-3-7-7-26-12-54 3 5 1-4-4-28h141l51 59 82-78-4-4H617l-27-113h148l39 51 71-67v-4H586c-13-52-23-88-31-109h242l39 51 74-71-4-4H707c47-15 73-28 78-39l-4-4c-13-7-19-15-19-23v-70h27l47 50 78-66-4-8H762V70c-5-31-35-54-90-70-3 0-5 3-8 8-13 44-53 73-121 86v15c120-20 173-19 160 4v211H469c-63-96-141-172-235-226l-11 11c125 102 213 227 265 375H387l-28-7-27 31h164c16 39 26 75 31 109h-97l-28-8-23 28h152c11 41 18 79 24 113H395l-32-8-19 31h215c10 86 15 142 15 168m-445-15 90-39-16-12c-10-8-15-13-15-16V289l66 16v281c0 34-3 79-8 137l90-43c-18-19-27-30-27-35V359c0-62 1-105 4-129-16-18-36-28-59-31v86c-133-55-203-87-211-97L0 234c10 13 16 28 16 43v305c-3 55-6 103-8 145l86-43c0-3-9-10-28-20V258l67 19v496c0 73-1 124-4 153m418-442c-21-52-43-97-67-136h223v136H547m-59-179c55-32 89-62 102-90 5-44-11-68-47-70-8 2-13 14-16 35-5 47-20 86-47 117l8 8Z"/></symbol><symbol id="𫝶_J" viewBox="0 0 1000 1000" data-size="21"><path transform="matrix(1 0 0 -1 39 950)" d="m449 900 82-11c11-2 16-6 16-12 0-7-7-13-20-16l-15-4v-75h261l51 63 90-70v-20H136V497c-1-123-9-218-26-285-15-60-36-112-61-155-9-16-21-35-36-57L0 13c29 64 49 137 60 219 9 64 13 152 14 265v321l70-36h305v118M195 669l67-35h103l21 35 57-38c9-6 14-11 14-16s-5-8-14-11l-14-5V345l-58-12v51H254v-66l-59-12v363m59-258h117v196H254V411m461 282 77-25c11-4 17-10 17-18 0-9-6-14-19-16l-21-4c-5-15-9-24-10-27-11-30-21-54-29-73 112-51 168-103 168-158 0-29-10-43-30-43-7 0-14 4-19 11-3 4-10 16-22 35-31 51-67 95-109 130-36-67-81-127-136-180l-11 9c64 98 112 218 144 359m54-391 86-67v-19H558V63h223l51 63 90-70V36H152l-12 27h356v153H238l-12 27h270v473l80-11c12-1 18-5 18-12s-7-12-20-15l-16-5V243h164l47 59Z"/></symbol><symbol id="𫝷_U" viewBox="0 0 1000 1000" data-size="23"><path transform="matrix(1 0 0 -1 81 918)" d="M442 338c-1-3-6-6-17-11-10-4-20-6-29-6h-8v47H250v-57c-2-4-5-7-9-10s-10-5-17-7c-7-1-16-2-27-2v330l57-27h125l26 33 72-51c-7-7-19-13-35-17V338m-192 51h138v185H250V389M144 683V481c0-37-1-76-3-118s-7-84-16-127c-9-42-22-83-39-124S45 34 14 0L0 10c20 35 36 71 47 109 11 39 20 78 26 118s10 80 11 121 2 82 2 122v254l68-30h257v132l100-9c-1-7-4-13-10-16s-17-6-32-9v-98h243l43 56 82-58c-4-7-9-12-15-15s-16-4-29-4H144m597-51 66-56c-5-7-16-11-35-12-19-39-42-73-69-104 5-3 13-8 24-15s22-15 33-25c11-9 21-20 29-33 9-12 13-25 13-38 0-19-8-28-24-28-8 0-16 3-24 10-7 7-15 16-24 26-9 11-18 22-28 34s-21 23-34 33c-25-23-54-43-86-61-31-18-67-34-107-47l-7 15c33 15 63 32 90 53s52 45 73 70c-17 12-36 23-55 34s-40 20-61 28l5 13c25-6 49-13 72-20s44-15 63-24c11 15 20 29 28 44 9 15 16 30 22 46H516l-6 21h195l36 36m20-520 77-55c-3-7-8-12-15-15-6-3-15-5-28-5H115l-6 22h330v132H197l-6 22h248v92l99-9c-1-7-4-13-10-16-5-3-16-6-31-9v-58h156l41 53 76-56c-3-7-8-12-14-15s-15-4-28-4H497V59h224l40 53Z"/></symbol><symbol id="𫝸_J" viewBox="0 0 1000 1000" data-size="21"><path transform="matrix(1 0 0 -1 46 951)" d="m631 393 75-38c6-3 9-7 9-14 0-8-6-12-19-12l-18-1c-46-45-81-79-105-100 70-77 171-130 302-157V51c-33-5-54-20-63-44-31 12-65 30-104 54-57 33-108 83-154 150-97-83-216-148-357-195l-11 18c65 30 115 56 150 78 69 42 136 96 202 163 39 40 70 79 93 118M422 901l82-11c11-2 16-6 16-13 0-6-5-11-16-14l-19-5v-71h254l47 59 90-66v-20H650l49-28c9-5 14-10 14-15 0-8-7-13-21-14l-19-2-119-132h212l51 62 90-70v-19H149V381c-1-117-16-203-44-257C82 79 51 38 14 0L0 14c29 41 51 88 66 143 13 47 20 122 20 224v231l74-43h364l99 191H63l-12 27h371v114M231 729l12 15c83-45 125-87 125-127 0-8-2-15-7-22-6-10-14-15-25-15-13 0-21 7-26 22-22 57-48 99-79 127m270-222 62-24c10-4 15-9 15-16s-5-11-15-12l-19-2c-72-70-132-122-179-157-60-43-121-79-183-108l-11 17c61 41 119 86 173 135 72 67 124 123 157 167Z"/></symbol><symbol id="𫝹_J" viewBox="0 0 1000 1000" data-size="21"><path transform="matrix(1 0 0 -1 44 944)" d="m407 887 90-28c10-3 15-8 15-13s-5-9-16-12l-22-5c105-115 251-202 437-259v-15c-31-10-51-28-59-55-153 71-285 176-397 316-63-78-132-145-207-201-53-38-106-70-160-97-19-9-46-22-80-38l-8 14c103 60 187 122 252 186 58 58 110 127 155 207m136-227 83-63v-19H278l-12 27h235l42 55m145-156 90-67v-19H133l-11 27h519l47 59M129 269h24c-1-75-9-132-26-170-9-21-23-36-42-46-14-7-27-11-38-11-9 0-17 2-25 7C12 55 7 63 7 73c0 9 8 19 24 30 65 41 98 97 98 166m125 35 77-7c11-1 17-6 17-13 0-6-5-11-14-15l-17-8V82c0-9 2-16 5-19s10-5 20-5h229c18 0 30 2 37 7s12 13 16 26l33 116h15V91c0-12 4-21 11-27 6-5 14-9 25-14-9-33-45-50-110-50H336c-35 0-59 10-72 29-7 11-10 29-10 53v222m137 40 12 15c91-53 137-101 137-144 0-26-12-39-35-39-11 0-20 7-25 21-27 66-56 115-89 147m313-55 11 15c125-73 188-141 188-202 0-30-13-45-40-45-9 0-17 3-22 9-4 5-12 23-25 54-32 73-69 129-112 169Z"/></symbol><symbol id="𫝺_T" viewBox="0 0 1000 1000" data-size="21"><path transform="matrix(1 0 0 -1 32 957)" d="M190 684h41l42 49 58-52 5-5c2-4 3-8 2-11-2-7-6-10-13-10H190V454c18 5 32 9 42 12 10 4 41 16 92 37l7-19c-14-8-27-16-39-23s-46-22-102-46V83c0-24-7-42-21-56S137 4 115 0c-1 5-2 11-4 17-1 5-3 11-7 16-3 5-9 10-19 14-8 5-27 10-56 16l3 21c12-2 22-3 28-3l24-2 26-4c22-2 34 8 34 29v291c-28-13-54-23-79-32l-5-23c-1-5-4-9-7-13-3-5-6-5-10-3-2 3-6 8-9 16L0 403c60 12 108 24 144 36v216H94c-25 0-49-1-73-5L2 692c39-5 70-8 92-8h50v151c0 16-1 32-2 47s-2 26-2 32l53-12c16-4 27-7 32-10 6-3 9-8 10-16 1-6-7-12-25-17l-20-5V684m603-258H624V114c0-11 2-21 6-30 5-8 16-13 35-13h144c4 0 11 1 23 2 11 1 18 3 22 5 3 2 7 6 10 12 3 5 5 16 8 32l14 98 18-2-2-87c0-16 0-26 2-30 3-5 6-9 11-14l13-12c4-4 6-8 7-12s0-8-3-13c-10-15-42-23-94-23H657c-53 0-79 19-79 57l-1 342H414c-1-11-2-23-2-38-1-15-2-31-4-47-1-17-4-35-8-53-3-19-11-43-24-73-12-30-41-72-88-128l-16 13c19 28 36 58 50 88s24 58 28 83c5 26 9 50 11 74 2 23 3 39 4 47 0 8 1 26 2 54l2 55c0 20 1 40 1 60v245c0 7-1 18-2 32 0 15-1 24-1 29l-2 19 56-36h363l33 36 41-26c13-8 19-15 19-22 0-6-1-11-5-15-3-3-14-9-33-17V248c0-13-2-26-6-38-4-11-14-21-28-30-15-9-28-14-41-16-1 5-2 11-4 17-1 7-4 13-8 18-4 6-11 11-22 15-9 5-32 11-67 17l4 22c45-8 75-12 89-13 15 0 25 2 30 6 5 5 7 12 7 22v158m0 27v172H624V453h169m0 201v168H624V654h169M577 453v172H417v-92l-2-67v-13h162m0 201v168H417V654h160Z"/></symbol><symbol id="𫝻_T" viewBox="0 0 1000 1000" data-size="21"><path transform="matrix(1 0 0 -1 34 961)" d="M215 474c61 28 103 47 125 59l7-16c-30-22-74-49-132-81V89c0-13-2-25-7-37-4-12-13-22-28-30-14-9-28-14-40-16-1 5-3 11-4 17-2 6-4 12-9 17-4 6-11 11-21 16-10 4-32 10-67 16l3 22c16-3 35-5 57-8 21-3 36-5 43-5 7-1 13 2 19 6 5 5 7 12 7 22v302c-15-8-34-17-56-28-21-10-35-17-42-20l-3-21c0-5-2-10-5-14s-6-6-9-4c-3 3-7 7-11 14L0 398c21 5 42 11 63 18 22 7 42 14 60 21l36 14 9 4v224h-63c-25 0-49-1-73-5l-19 42c38-5 69-8 92-8h63v137c0 16 0 31-1 46-1 16-2 26-2 32l53-12c16-3 28-8 37-13 10-5 11-10 3-17-8-6-15-10-23-12l-20-6V708h42l48 49 59-52c3-4 5-6 7-8 1-2 1-4 0-8-2-7-6-10-12-10H215V474m486 167 33 37 41-26c8-5 13-10 16-13 2-3 4-7 4-11 0-5-2-9-4-12-3-3-14-9-35-19V334c19-13 29-21 30-24 2-4 1-7-1-10s-5-4-10-4H581v-9c0-3-2-7-6-10s-9-5-16-5c-9-1-15 0-20 3-4 3-7 6-9 9-1 3-1 7-1 13l3 21 1 26c1 16 2 24 2 24l-1 303 60-30h107m7-28H581V323h127v290m130 227 34 37 41-27c13-8 19-16 19-24 0-4-2-8-5-11-2-3-14-9-33-20V156c0-16 0-34 1-55 1-22 1-38 1-49s1-19 1-24 0-8-1-10c-3-9-11-14-23-14-12-1-19 1-22 3-3 3-5 6-5 9v47H445V18c0-8-7-13-20-15-14-3-23-2-27 3-3 5-5 9-5 14 0 4 0 14 2 29 0 2 0 11 1 29l1 33c0 15 1 35 1 60v610c0 1 0 13-1 38-1 24-1 37-1 38l-3 25 56-42h389m8-28H445V90h401v722Z"/></symbol><symbol id="𫝼_U" viewBox="0 0 1000 1000" data-size="23"><path transform="matrix(1 0 0 -1 76 918)" d="m809 199-2-126c13-5 21-8 24-10s4-6 4-11c0-13-6-21-18-26-11-5-31-8-59-8H654c-16 0-29 1-39 3-9 1-17 5-22 11-5 5-8 13-10 24-1 11-2 26-2 45v187H466c-3-25-9-51-18-77-8-25-20-51-36-76s-37-49-62-72-55-44-92-63l-10 13c28 21 51 43 70 66s35 45 48 68 22 47 29 70c7 24 12 48 15 71H276l-5 21h142c2 22 3 43 3 63v97h-72l-6 21h266l39 51 74-54c-4-7-9-11-15-14s-15-4-27-4h-38V309h61l39 52 76-54c-3-7-8-12-15-15-6-3-15-4-28-4H637V100c0-15 1-24 2-27 2-3 8-4 19-4h94c13 0 23 11 29 32s13 54 20 98h8M472 373c0-20-1-41-3-64h112v160H472v-96m-290 24 129 25 3-14-132-52V91c0-11-1-22-3-32s-6-19-12-26c-5-8-13-15-24-20s-25-9-42-11c0 21-6 36-17 43S54 57 27 60v14h83c11 0 16 6 16 17v244c-11-5-24-9-37-14-13-4-26-9-39-14-5-11-12-18-21-20L0 366c13 1 31 4 52 7 21 4 46 9 74 14v231H7l-6 22h125v196l96-8c-1-7-3-13-8-17-4-3-15-6-32-9V640h31l36 51 68-54c-4-7-9-12-15-15-5-3-14-4-27-4h-93V397m591 350c-3-5-8-8-15-8h-7c-2 1-5 1-8 2-12-8-28-18-47-29s-36-22-53-31c9-14 19-28 28-41s20-25 31-37c14 15 29 31 44 48s28 32 39 45l62-51c-3-4-8-6-13-6s-10 1-17 3c-12-7-27-16-46-26s-37-20-55-29c20-20 41-38 63-54 23-16 46-29 69-40l-2-11c-24-4-41-20-50-47-60 39-110 91-149 156s-69 143-90 232l15 6c8-23 17-45 27-67s21-44 34-65c13 15 26 32 39 50 14 18 26 34 35 47l66-47M240 446c30 21 56 45 79 72s44 56 62 86c-4 0-8 1-13 2-4 1-8 4-12 7-5 16-14 33-28 51-13 18-27 33-42 44l7 8c37-8 63-19 80-32s27-26 30-38c19 39 34 79 45 119H298l-6 21h153l37 37 66-57c-3-4-8-7-13-8s-13-3-24-4c-11-31-24-62-40-93-15-30-34-59-56-87-21-28-46-54-74-79-28-24-59-45-94-64l-7 15Z"/></symbol><symbol id="𫝽_T" viewBox="0 0 1000 1000" data-size="21"><path transform="matrix(1 0 0 -1 38 954)" d="M720 532c-23-22-53-40-90-56-36-16-71-27-105-33l-4 18c68 24 125 58 170 101-17 20-31 39-44 58-12 20-23 43-34 69l17 8c19-29 34-50 44-62 11-13 25-27 42-43 18 23 31 45 38 65 8 19 19 52 32 99H635c-20-36-35-63-47-80-12-16-28-36-49-58l-13 12c21 32 38 63 51 95s24 62 32 93c9 30 15 50 16 60l6 28 73-24c9-4 14-9 14-16 1-7-5-11-18-14l-26-5c-2-5-4-10-5-12l-13-34-7-17h146l47 46 61-47c6-6 9-12 8-19-2-6-5-9-12-9h-64c-3-13-6-27-10-42-4-14-13-37-26-69-14-31-30-57-49-78 26-17 52-30 78-39 26-8 58-16 97-22v-15c-18-3-29-6-33-10-4-3-11-13-21-29-18 6-40 15-68 28-27 13-45 23-54 31l-24 18-5 4M395 905l73-23c10-4 14-9 13-16 0-7-5-11-15-13l-32-5c-6-18-13-40-21-66-9-26-15-46-19-59l-30-72 35-13c11-4 16-9 16-16-1-5-5-10-15-14l-23-9V129l2-21V85l3-25 1-19V26c0-12-4-19-11-21-7-3-14-5-21-5s-12 1-15 4c-4 3-5 7-5 12v570c-18-27-36-53-55-77l-16 14c25 41 47 90 66 145 20 56 31 87 33 96 2 8 8 28 16 62 10 33 15 52 16 57l4 22m472-714c-15-14-34-31-56-50-22-20-58-42-109-67-50-25-110-48-180-68l-6 17c129 53 211 98 247 135 36 36 65 70 87 100l60-42c9-7 14-13 13-17-1-5-4-8-9-10-5-1-9-2-13-1l-34 3M755 410c-32-28-62-48-88-61-26-12-65-27-117-44l-5 18c27 12 45 21 56 26 10 6 25 15 45 29 20 13 36 27 49 40s27 31 44 53l56-37c9-6 13-12 12-19s-8-10-21-8l-31 3m69-101c-41-35-82-63-123-83-41-19-88-37-143-52l-6 17c97 39 161 74 193 106s54 58 66 76l53-39c9-7 13-13 12-20-1-6-8-9-21-8l-31 3M441 720l53-12c16-4 27-7 32-10 6-3 9-8 10-15s-9-13-28-18l-17-5V278c-1-1 0-8 1-21l1-24 2-25 1-18 1-15c-1-17-11-26-32-25-10 0-16 2-18 5-2 4-3 7-3 10v477c0 21 0 38-1 50-1 13-1 22-2 28M91 667c-27-1-51-2-72-5L0 704c48-6 79-9 91-9h39v136c0 16 0 31-1 46-1 16-2 26-3 32l52-12c17-4 28-7 33-10s8-7 8-11c1-5-2-9-6-13s-10-7-17-8l-21-6V695h28l43 46 56-48c3-3 5-6 7-8 1-2 1-4 0-8-2-7-6-10-12-10H175V462c43 18 75 31 97 41l7-18c-10-7-17-13-22-16l-39-24-43-26V86c0-13-1-24-5-33-3-10-10-20-21-30S122 6 102 3c-1 5-3 11-4 17s-3 12-7 17-10 10-20 14c-9 5-27 10-52 15l3 23c40-7 65-10 77-11 11-1 19 1 24 6s7 12 7 21v291c-21-13-42-26-63-38l-6-23c-3-8-6-12-10-12-3-1-6 0-9 2-2 1-5 6-8 14L3 401c15 4 31 8 48 13 18 4 44 14 79 29v224H91Z"/></symbol><symbol id="𫝾_T" viewBox="0 0 1000 1000" data-size="21"><path transform="matrix(1 0 0 -1 36 966)" d="m612 595 24-9c14-4 21-9 21-13 1-4 0-8-3-11-2-3-6-5-10-5l-16-3-3-4c5-3 10-6 13-8l30-19c21-13 49-26 83-40s64-24 88-29c25-6 55-12 89-18l-2-18c-19-1-32-3-40-8s-15-14-21-26c-61 23-107 43-137 61-30 19-70 48-120 89-11-12-28-28-50-48s-46-38-73-54c-27-17-54-29-80-38-27-10-58-19-96-30l-6 19c59 19 109 43 149 72 41 29 70 54 89 75 18 21 30 36 37 46l5 9 6 10c-5 2-8 3-10 6-2 2-3 6-3 11l1 180H428c-20 0-44-2-73-5l-19 42c39-7 70-10 92-9h147v31c0 10 0 24-1 42 0 18-1 28-1 30l-2 6 52-11c28-6 42-12 43-19 0-7-2-12-6-16-5-4-10-6-17-8l-21-5v-50h157l47 54 61-47c10-8 16-16 17-24 1-7-5-11-17-11H624V689c0-1 0-10 1-29 1-18 2-29 2-34 1-4 1-7 1-9 0-9-2-14-4-15l-12-7M430 773l42-11c18-5 29-9 32-12 4-3 6-6 6-10 0-8-7-13-20-15l-17-4c-11-26-20-46-27-60 17-7 30-13 41-18 12-5 23-12 35-21 13-10 19-21 21-33s0-21-4-27-9-9-15-10c-5 0-10 2-15 6-4 4-10 12-17 25-7 12-14 22-22 30-7 9-18 18-32 28-8-12-16-24-24-37-9-13-14-22-17-26s-11-13-23-28c-12-14-24-26-36-36l-15 13c21 29 38 56 52 80 13 25 24 49 32 73 9 24 14 41 15 51l8 42m319-5 69-20c8-2 12-7 12-14 0-6-5-11-17-14l-22-5c-6-15-11-30-17-45 4-2 10-4 18-7 7-3 15-7 25-12 9-5 22-13 38-24 16-10 27-20 31-28 5-9 7-17 7-25s-1-14-5-19c-3-5-8-7-16-8-7 0-13 2-17 6-3 3-10 14-19 31-10 18-33 40-71 66-14-22-26-40-36-52-10-13-19-22-25-29-7-6-18-15-34-27l-11 13c12 15 22 29 31 42 9 12 16 25 22 38s11 28 17 45c5 17 8 29 10 35 1 6 5 23 10 53M540 454l68-25c11-4 16-10 16-19 0-8-6-12-20-13l-29-1c-7-14-15-28-24-43h190l33 39 46-30c10-7 16-12 20-16s6-9 5-13c-2-13-19-19-49-19-16-23-32-44-48-64-17-20-28-32-32-37l-39-37c16-13 31-25 46-38 14-13 21-28 20-45-1-8-5-15-12-23-7-7-17-5-31 7-3 2-9 9-19 21s-24 27-43 46c-27-21-53-39-79-54s-61-31-107-48c-45-17-92-31-140-42l-6 21c72 23 130 47 174 70 45 23 86 49 124 79-32 25-77 54-138 87-3-2-5-3-6-4l-23-19c-28-21-63-40-107-60l-10 18c50 30 87 58 111 85l-42 20 9 18c17-5 34-11 52-18 15 19 31 40 46 63s30 54 44 94m100-253c23 23 41 43 54 59s28 37 46 65H531c-14-17-28-32-42-47 49-22 99-48 151-77M186 418V90c0-8-2-19-7-31-4-13-12-22-23-29-11-6-26-12-45-16-1 6-3 13-5 23s-9 18-21 25c-12 6-35 12-69 19l3 22c47-8 77-13 88-14 12 0 20 2 25 6 5 5 8 12 8 23v279c-12-4-39-15-80-33l-1-23c-1-11-5-16-11-17-6 0-12 5-18 16L0 402c57 15 104 29 140 42v234h-37c-19 0-43-2-73-6l-19 42c38-6 68-8 92-8h37v148c0 18-1 34-2 48s-2 24-2 30l53-12c16-4 27-7 32-10 6-3 9-8 10-16 1-7-8-13-24-17l-21-5V706h33l49 49 53-52 5-5c2-3 3-7 2-11-2-6-6-9-13-9H186V459c16 6 29 10 37 13l48 19 42 16 8-19c-34-21-79-44-135-70Z"/></symbol><symbol id="𫝾_U" viewBox="0 0 1000 1000" data-size="23"><path transform="matrix(1 0 0 -1 98 899)" d="m340 255 11-4c23 19 43 40 61 65 19 25 33 54 43 86 13-3 25-7 36-12 12-5 20-11 25-18l-24-16c-7-15-19-32-35-49h124l29 38c10-7 20-17 29-30 10-13 17-26 21-40l-26-15c-19-31-44-62-77-93 40-19 67-36 82-49s22-25 22-34-2-16-6-21-8-7-13-7-11 2-17 6-13 10-22 17c-8 8-18 17-31 27-13 11-29 22-48 34-42-32-89-60-140-83S280 15 224 0l-2 3c50 16 98 37 144 64s87 59 124 95c-19 12-40 24-62 36-21 13-43 25-66 38-13-7-25-12-38-17-12-5-24-9-36-12l-3 3c19 9 39 21 59 36-1 1-3 1-4 1l-3 3 3 5m129 542c11 0 23-3 34-9s24-15 38-26l-28-19v-67h149l28 37c15-7 28-15 38-25s17-18 21-24H513V511l13-12c21 15 40 34 57 59s30 53 39 86c13-3 25-8 36-13 12-5 20-11 25-17l-24-16-12-21c21-5 38-10 51-15s24-10 31-15 12-10 15-15 5-10 5-15c0-11-3-20-8-27-5-6-10-9-13-9-2 0-5 2-9 7s-10 11-17 18c-7 8-15 17-26 26-11 10-24 20-40 31-13-15-29-29-48-41-18-11-37-21-58-28l5-7h-22c-1-1-1-1-1-2 15-14 33-27 54-40s44-24 69-35c25-10 52-19 80-26 29-7 58-11 88-13v-5c-13-3-24-8-33-14s-18-14-27-23c-50 13-96 32-138 56s-76 54-101 90c-15-18-33-35-55-50-21-15-45-30-72-43-26-13-54-24-84-34s-61-18-92-25l-2 2c27 8 54 18 81 30 27 13 52 27 75 42 24 16 46 33 65 52s36 40 49 61v154H278l-17-5-12 17h220v121m-368 0c11 0 22-3 33-9s24-15 39-26l-29-19V561l28 37c15-7 28-15 38-26 10-10 17-18 21-23h-87V373l65 26v-11l-65-44V46c0-11-5-21-15-30S108 3 97 3c0 5-6 16-19 33S48 71 25 88l5 6c15-11 28-19 39-24 11-4 19-6 24-6s8 1 8 4v247l-71-47c-1 1-2 2-4 3-2 2-5 5-8 9s-6 10-9 17-6 17-9 29l15-4 86 34v193H48l-18-5-11 16h82v237m272-554c29-11 55-21 78-30s44-18 63-26c30 33 54 69 72 108H445c-10-10-21-19-34-28-12-9-25-17-38-24m-16 401c13-3 25-8 36-13 12-5 20-11 25-17l-24-16c-1-3-3-7-5-11-1-3-3-7-5-10 23-5 39-11 46-18s11-14 11-21c0-13-3-23-10-30-6-7-11-10-15-10-3 0-5 2-7 5-1 3-4 8-7 13-3 6-6 12-11 19s-11 15-20 22c-19-30-44-56-74-77s-62-37-96-48l-2 3c33 19 65 46 94 81 29 36 51 79 64 128Z"/></symbol><symbol id="𫝿_J" viewBox="0 0 1000 1000" data-size="21"><path transform="matrix(1 0 0 -1 43 954)" d="m476 121 4 1c56 7 113 15 170 23l2-18c-93-26-206-53-339-82l-8-14c-3-6-7-9-11-9-3 0-8 4-13 13l-37 65c61 3 119 7 174 14v79H283l-11 28h146v78h-68v-31l-53-13v277l56-33h177l20 32 52-41c3-3 5-6 6-7 1-2 2-3 2-4l1-1v-1c-1-2-4-4-9-6l-10-3V275l-56-10v34h-60v-78h64l31 38 53-44v-22H476v-72m60 350h-60v-58h60v58m-118 0h-68v-58h68v58m-68-145h68v59h-68v-59m126 0h60v59h-60v-59m326 223V77c0-19-11-35-32-50-19-14-36-21-50-21-7 0-11 6-12 19-1 12-4 21-10 28-3 4-14 8-31 12l-36 7v18h106v459h-81l-9 28h152l48 61 67-61v-28H802M644 776l-15 27h148l46 60 70-64v-23H644m-321-49 13 10c18-13 35-31 50-52 16-22 24-43 24-62 0-15-4-26-12-34-5-6-12-9-19-9-12 0-19 10-21 29-3 22-8 46-16 71-6 19-12 35-19 47m155-150h60l30 44 73-54v-17H271l-14 27h198c5 14 14 41 26 81l18 60 4 18 1 4H282l-14 28h139v124l76-8c14-1 21-6 21-14 0-3-5-7-16-12l-21-10v-80h56l31 44 72-55v-17h-78c25-21 37-34 37-39 0-6-5-9-15-9h-18l-74-115M68 346v-17c0-12-3-18-9-18-5 0-10 4-16 13L0 387l116 41v224H18L7 678h109v229l73-9c20-3 30-8 30-16 0-6-5-11-16-14l-25-9V678h20l35 47 57-54v-19H178V450l100 38 8-18-108-60V72c0-21-8-38-24-51C137 7 118 0 99 0c-5 0-9 2-11 5-1 2-3 13-6 34-1 3-7 6-19 10L18 63v15h98v297l-48-29Z"/></symbol><symbol id="𫞀_J" viewBox="0 0 1000 1000" data-size="21"><path transform="matrix(1 0 0 -1 37 951)" d="M23 0 6 13c50 63 88 139 114 229 15 53 23 122 25 207 1 29 2 100 5 215H12L0 692h174v209l76-10c13-2 20-7 20-15 0-6-5-11-14-15l-15-6V692h72l41 48 68-56v-20H215c-1-45-2-92-4-141h95l18 38 63-43c8-5 12-11 12-16 0-7-5-11-16-14l-12-3c-3-121-6-203-10-248-9-105-32-169-69-193-27-17-49-26-67-26-5 0-9 2-11 5-1 3-2 11-3 24-1 8-3 13-6 16-3 2-9 4-20 6l-35 8v19h111c15 35 27 85 36 150 5 30 9 113 11 249h-97c-4-74-11-133-20-177s-23-87-44-130C110 111 68 48 23 0m290 4-7 20c77 25 144 64 201 118 31 29 54 61 70 94 7 15 15 36 23 65H416l-12 28h201c5 33 8 84 8 153h-76c-37-54-71-98-103-131l-16 13c49 70 90 162 123 275l67-27c11-5 17-11 17-19 0-7-6-11-17-11h-19c-9-19-20-43-35-72h207l40 56 76-65v-19H673c0-60-3-111-8-153h127l42 57 82-68v-17H677c43-97 126-177 249-242l-8-14c-15-1-26-4-33-9-11-8-21-17-29-28-101 81-166 173-197 278-21-71-61-130-122-177C469 57 394 22 313 4m281 897 75-28c12-4 18-9 18-15s-8-11-25-14l-18-4-104-131c73 0 163 2 272 6-20 29-42 52-66 71l16 16c37-19 65-36 85-52 37-29 55-60 55-95 0-15-5-26-15-33-6-5-12-7-19-7-5 0-9 1-12 4s-8 13-14 30c-5 14-12 28-19 42-106-19-216-36-329-51-8-20-17-30-26-30s-14 5-17 14l-27 86h87l83 191Z"/></symbol><symbol id="𫞁_J" viewBox="0 0 1000 1000" data-size="21"><path transform="matrix(1 0 0 -1 37 952)" d="M921 58c-15-2-28-6-37-11-9-6-17-17-26-32-101 67-175 157-220 272-24-71-64-132-120-183C466 58 407 23 342 0l-11 14c45 24 78 45 101 63 49 38 87 86 116 144 13 26 22 56 29 90H395l-13 25h197c3 19 5 54 5 107l75-12c11-2 16-6 16-13 0-5-5-9-14-12l-12-4-3-66h135l47 57 82-67v-15H652c37-61 75-109 112-142 47-41 101-74 161-97l-4-14M405 736l-13 26h254c32 67 53 114 64 141l64-37c11-6 16-12 16-18 0-7-5-10-16-10h-18l-74-76h74l48 52 71-62v-16H649V628h81l44 48 70-59v-15H649V491h117l47 52 73-64v-17H412l-13 29h188v111H438l-12 26h161v108H405m64 164c33-5 64-18 93-39 18-13 27-29 27-48 0-9-2-17-7-24-6-9-14-13-24-13-5 0-10 1-15 4-4 3-13 17-28 43-11 17-29 39-55 64l9 13M204 496c-8-103-19-179-32-228-13-45-38-100-76-163C72 66 45 31 16 0L0 13c27 39 45 67 54 83 25 44 44 93 59 146 17 61 26 130 27 205l3 217H17L5 692h162v208l77-9c13-2 19-7 19-15 0-6-5-11-14-15l-15-6V692h65l41 48 68-56v-20H207l-3-141h95l18 38 63-43c8-5 12-10 12-15 0-7-5-11-16-14l-11-3c-1-233-20-373-58-422-11-15-30-27-57-38-13-5-24-8-32-8-5 0-9 2-11 6-1 2-2 13-4 33-1 3-2 5-3 6 0 1-7 3-22 6l-35 8v19h111c31 72 46 175 46 309 0 19 0 50-1 91h-95Z"/></symbol><symbol id="𫞂_U" viewBox="0 0 1000 1000" data-size="23"><path transform="matrix(1 0 0 -1 95 879)" d="M291 668c-7-8-20-14-39-18V126c0-1-4-5-13-11s-23-9-44-9v65H57V83c0-2-4-6-13-12-9-5-20-8-35-8H0v654l67-29h119l28 37 77-57m-96-2H57V443h138v223M57 193h138v229H57V193M731 75l79-56c-3-7-8-12-14-15s-15-4-28-4H212l-5 22h273v345H308l-6 21h178v295H298l-6 22h371l41 52 79-55c-3-7-8-12-14-15s-15-4-28-4H537V388h109l41 52 77-54c-3-7-8-12-14-15s-15-4-27-4H537V22h153l41 53M608 306c27-11 50-23 69-36s33-25 44-38 19-25 24-37c5-11 7-22 7-31 0-12-3-22-9-29-5-7-13-11-22-11s-17 4-26 11c-4 13-10 26-17 41s-14 29-23 43c-9 15-18 29-28 42-9 14-19 27-28 38l9 7Z"/></symbol><symbol id="𫞃_J" viewBox="0 0 1000 1000" data-size="21"><path transform="matrix(1 0 0 -1 68 930)" d="m0 794 76-39h132l19 39 63-41c10-7 15-12 15-17-1-7-7-12-19-15l-16-5V153l-62-12v59H63v-98L0 86v708m63-566h145v241H63V228m0 269h145v230H63V497m289 340 12 7c39-37 71-72 95-106 43-63 65-119 65-168 0-28-11-42-34-42-9 0-15 3-19 8-3 5-7 17-12 37-31 117-67 205-107 264m422 23 74-44c11-6 16-12 16-19s-8-12-23-13l-24-2-168-266-19 8 144 336M364 508l75-39h300l19 39 63-41c11-7 16-12 16-16 0-7-6-12-17-15l-19-6V32l-62-12v66H426V16L364 0v508m62-394h313v327H426V114Z"/></symbol><symbol id="𫞄_J" viewBox="0 0 1000 1000" data-size="21"><path transform="matrix(1 0 0 -1 50 948)" d="m754 895 90-67v-19H67l-12 27h649l50 59M250 789l70-28c11-4 16-9 16-15 0-7-8-11-23-13l-16-2c-11-17-22-34-32-49 100-35 150-73 150-114 0-15-5-26-15-33-3-3-7-4-11-4-9 0-22 12-37 35-21 31-55 63-102 96-25-33-49-60-70-81-35-35-64-61-85-76l-9 15c67 73 121 163 164 269m332 0 65-26c14-6 21-11 21-16 0-7-8-12-23-14l-16-2c-11-19-22-36-33-53 113-35 170-75 170-118 0-15-5-25-14-32-3-3-7-4-12-4-9 0-23 12-42 35-33 39-72 71-116 98-45-61-93-112-144-153l-8 16c60 71 111 161 152 269m231-242 86-66v-20H12L0 488h766l47 59M164 410l76-39h432l20 39 63-41c10-7 15-12 15-16 0-7-6-12-18-16l-17-5V23l-63-11v43H227V16L164 0v410m63-328h445v122H227V82m0 149h445v113H227V231Z"/></symbol><symbol id="𫞅_G" viewBox="0 0 1000 1000" data-size="21"><path transform="matrix(1 0 0 -1 33 951)" d="M777 902c21-7 50-26 86-54 0-3-6-8-19-16-11-8-17-13-20-16l4-277c-15-13-36-19-62-19v31H457l-43-20-31 43h383v117H500l-51-11-19 35h336v121H480l-54-20-28 43h356c13 26 21 41 23 43m-66-386 86-32c0-2-9-9-27-19v-63h58l43 47 63-62v-8H770V74c-3-34-34-57-94-70v8c2 36-38 65-121 86v7c122-15 174-10 156 16v258H430l-47-12-24 35h352v114M465 336c70-50 105-83 105-102 0-41-17-65-50-70-8 3-13 16-16 39-8 47-25 89-51 125l12 8M305 887l78-71-47-15V86c0-37-30-60-90-70-3 0-4 4-4 11 0 29-30 54-90 75v3c94-18 136-15 125 8v270H152C152 208 105 81 12 0L0 12c47 73 76 169 86 289 10 70 12 264 4 582l66-39h114l35 43m-110-63c-34 3-48-9-43-35V625h125v199h-82m82-222H152V406h125v196Z"/></symbol><symbol id="𫞆_J" viewBox="0 0 1000 1000" data-size="21"><path transform="matrix(1 0 0 -1 41 935)" d="m448 592-46-8v280l77-34h268l26 40 59-40c11-8 17-15 17-22 0-6-4-11-13-14l-18-7V598l-61-10v36H459v-19l63-29c11-5 16-10 16-14 0-6-5-10-14-12l-21-3-41-75h261l44 55 91-63v-20H625l-15-130h158l47 65 94-68v-25H632c27-49 59-90 96-121 56-48 119-83 190-105l-4-10c-19-2-33-6-42-11-10-5-22-16-36-33-63 39-114 83-153 132-31 39-56 89-76 148h-3c-10-43-24-80-43-110-30-49-75-91-134-124-29-15-72-31-127-48l-9 17c72 33 127 67 164 102 36 36 66 90 90 163H325l-14 28h239c5 43 9 87 10 130H443c-23-36-52-73-85-110l-16 13c45 78 81 160 106 245m11 210V651h298v151H459M0 10c19 44 31 81 37 110 15 72 22 141 22 206v534l65-30h98l26 37 64-42c9-6 14-11 14-14 0-6-5-10-14-12l-17-5V75c0-27-13-45-39-56-18-7-31-11-40-11-5 0-8 2-11 5-1 2-2 11-3 27 0 6-5 10-15 13l-70 17v16h118v286H117c1-53-4-105-14-157-10-50-24-95-43-136-9-19-23-46-41-79L0 10m117 580V399h118v191H117m0 212V618h118v184H117Z"/></symbol><symbol id="𫞇_J" viewBox="0 0 1000 1000" data-size="21"><path transform="matrix(1 0 0 -1 40 945)" d="M365 870c18-9 40-26 66-51 33-32 50-62 50-89 0-31-10-47-31-47-9 0-16 3-21 9-3 4-11 30-23 77-7 27-23 56-50 89l9 12m132 19c9-3 19-9 30-16 33-22 55-41 67-56 19-23 28-45 28-65 0-11-4-21-12-29-5-5-11-7-18-7-9 0-15 3-20 8-4 4-13 27-28 70-8 25-26 53-55 86l8 9M290 12c29 47 48 88 59 123 19 63 28 131 28 205v350l75-39h177c36 67 59 113 70 140 16 38 29 71 38 99l70-40c12-7 18-14 18-23s-6-14-18-14h-18L655 651h65l39 45 58-43c9-7 13-12 13-17s-5-10-14-14l-20-8V319c0-67 10-124 29-169 7-14 15-25 25-32l51 116 11-8-18-101c-1-9-2-16-2-23 0-13 9-31 28-53-5-23-17-34-36-34-31 0-62 24-91 73-27 45-45 99-52 160-1 16-3 33-4 52H618V9l-57-9v300H435c-3-44-10-81-20-112-17-49-40-93-69-134-15-21-31-38-47-51l-9 9m148 461-1-144h124v144H438m0 149V501h123v121H438m180-149V329h117v144H618m0 149V501h117v121H618M0 21c19 49 33 94 42 135 15 69 23 164 23 284v431l62-35h98l23 37 63-42c11-7 16-13 16-20 0-6-5-11-16-14l-21-5V90c0-27-15-47-45-59-17-7-30-10-40-10-6 0-10 1-11 3-1 0-2 8-5 24-3 10-9 16-18 18l-46 14v18h105v257H123c-7-79-19-145-37-196C67 104 45 56 20 15L0 21m125 556-1-194h106v194H125m0 231V604h105v204H125Z"/></symbol><symbol id="𫞈_J" viewBox="0 0 1000 1000" data-size="21"><path transform="matrix(1 0 0 -1 49 949)" d="M526 750H364l-13 26h430l29 39 68-43c13-8 19-14 19-19 0-7-6-13-19-16l-23-6V611c0-67-5-143-14-230-15-132-38-213-69-242-12-11-26-21-43-28s-31-11-41-11-15 5-15 16c0 12-3 21-8 26-5 4-14 8-27 12l-57 16v18h144c42 85 63 213 62 382v180H587v-21c0-13-1-30-2-53-5-80-10-134-15-162-1-5-1-10-2-13 41-25 70-45 85-59 31-31 47-59 47-83 0-9-3-16-8-22s-12-9-19-9-14 4-23 12c-3 3-21 23-52 60-11 13-25 26-41 39-1-2-2-6-3-11-29-131-115-244-256-339l-12 14c123 105 196 231 220 378-19 13-39 27-59 41-22 14-52 29-90 45l8 16c67-20 116-38 147-53 3 19 6 49 9 90 3 51 4 95 5 130M4 244c43 65 82 144 116 236 25 69 39 126 43 171H13L0 678h169v220l92-10c13-1 19-6 19-14 0-7-6-12-17-16l-31-12V678h41l45 52 78-60v-19H232V539c39-13 71-31 97-53s39-46 39-72c0-13-4-23-13-31-5-5-11-7-18-7s-14 2-19 7c-4 3-14 24-31 62-15 31-33 55-55 71V7l-63-7v460C118 361 67 284 16 231L4 244M267 65h495l54 61 85-68V38H280l-13 27Z"/></symbol><symbol id="𫞉_J" viewBox="0 0 1000 1000" data-size="21"><path transform="matrix(1 0 0 -1 44 949)" d="M710 394V19L651 4v390h-92l-2-33c-3-54-15-106-36-157-20-46-52-89-96-128-24-21-52-41-83-59l-22 18c46 25 89 70 129 136 35 56 52 129 53 219v4h-81v-45l-58-10v349l58-26h81v135H328l-13 28h458l50 57 88-65v-20H710V662h82l21 34 70-43c7-5 10-9 10-12 0-4-3-7-10-10l-23-8V359l-63-12v47h-87m-212 27h4v214h-81V421h77m213 0h86v214h-87l1-214M559 635V421h94v214h-94m0 162V662h94v135h-94M0 255c31 51 59 111 84 180 31 86 51 157 58 213H34l-14 27h131v222l44-4c32-3 48-9 48-18s-6-16-18-21l-17-7V675h26l42 50 68-57v-20H208V512c85-37 128-73 128-107 0-12-4-22-11-31-6-7-14-11-23-11-6 0-11 3-16 8-3 4-10 20-21 49-6 17-18 35-36 53-5 5-12 9-21 13V11L151 0v450C98 354 52 284 15 241L0 255Z"/></symbol><symbol id="𫞊_J" viewBox="0 0 1000 1000" data-size="21"><path transform="matrix(1 0 0 -1 38 950)" d="m474 594-3-144c-3-88-13-158-30-209-32-91-82-169-149-235l-16 8c25 33 44 62 57 87 19 35 37 82 54 140 17 55 26 140 28 256v350l77-45c119 20 231 50 334 91l52-52c9-9 14-16 14-22 0-4-4-6-11-6-5 0-8 0-11 1l-35 9c-127-24-247-41-360-50V622h161v156l75-10c19-2 28-7 28-16 0-7-5-12-16-17l-25-11V622h102l46 52 78-59v-21H698v-1h-26l-6-138h112l28 42 72-38c15-8 22-15 22-22 0-5-6-9-17-13l-21-7v-20c0-105-11-196-34-272-17-57-40-93-70-107-23-11-40-17-53-17-3 0-5 2-7 5 0 1-3 8-8 23s-16 23-32 24l-53 5v20h129c17 19 32 55 43 108 13 60 20 122 20 185v56H662c-8-61-19-111-33-150-23-63-61-123-114-181-32-35-69-66-112-93l-14 13c61 45 111 108 150 187 43 91 66 217 67 377v14H474M158 899l75-9c19-3 29-8 29-16 0-7-6-12-17-17l-25-12V681h45l43 52 70-61v-18H220V534c42-20 75-38 99-55 29-21 44-42 44-64 0-13-5-24-14-32-6-6-13-9-20-9s-14 3-20 10c-2 2-14 24-37 66-13 21-30 39-52 52V9l-62-9v447c-52-89-99-157-141-202l-17 9c47 77 80 143 100 200 21 59 37 126 49 200H17L6 681h152v218Z"/></symbol><symbol id="𫞋_U" viewBox="0 0 1000 1000" data-size="23"><path transform="matrix(1 0 0 -1 76 917)" d="M657 91c13-4 26-7 40-9 15-1 30-2 45-2h106V67c-9-2-16-7-21-16s-7-19-8-31h-82c-28 0-54 3-77 10-23 6-43 17-61 32s-34 36-48 61c-14 26-26 59-36 98-7-38-17-76-32-115-14-38-35-73-64-106l-15 13c18 31 32 63 41 98s16 70 21 105 7 70 8 104 1 65 1 93l86-6c-1-5-3-10-7-13s-12-5-24-6c-1-17-2-35-3-55s-2-41-4-63c9-36 20-66 33-90 13-23 28-42 45-57v468H461l-5 21h196c5 16 11 33 16 52 6 19 12 39 17 58l15 57c5 19 9 36 13 52l90-26c-2-9-13-14-33-14-6-13-13-27-20-42s-15-30-23-46c-8-15-17-31-26-47-9-15-17-30-26-44h56l37 51 70-53c-4-7-9-12-15-15-5-3-14-4-26-4H677c-4-2-11-4-20-5V369h64l35 50 68-52c-4-7-9-12-16-15-6-3-15-4-26-4H657V91M457 599c-2-5-5-9-9-12-4-2-12-3-23-3-7-17-15-35-22-52s-14-34-23-51l30-12c-3-8-12-13-27-16V26c-3-7-8-13-16-18-7-5-20-8-38-8v388c-13-20-26-39-39-57s-27-34-41-49l-13 9c12 19 24 42 37 67s25 53 36 82c12 29 23 60 34 91 11 32 20 64 28 96l86-28m-278 0v-94c39-18 65-37 80-57s22-38 22-53c0-10-3-18-8-25s-12-10-19-10-14 4-21 11c-3 18-9 38-20 59-10 21-21 40-34 57V24c0-1-1-2-2-4-1-3-4-5-8-8-3-3-9-5-16-7s-17-3-29-3v412c-14-38-30-74-48-108-18-33-39-66-62-98L0 221c29 54 52 113 70 178 19 65 33 132 43 200H10l-6 21h120v213l94-8c-1-7-4-12-9-16-5-3-15-6-30-7V620h12l36 53 51-43c16 29 31 60 46 94s28 69 39 105l86-31c-5-10-13-15-24-15-4 0-7 0-9 1-22-44-47-86-76-126-28-39-57-72-88-97l-13 9c3 5 7 9 10 14s7 10 10 15h-80m318 224c36-25 61-50 74-74 14-24 21-45 21-64 0-15-3-27-10-36s-15-13-24-13-18 5-25 14c0 13-1 26-4 41s-6 30-11 45c-4 15-9 30-15 44-5 14-11 27-17 38l11 5Z"/></symbol><symbol id="𫞌_J" viewBox="0 0 1000 1000" data-size="21"><path transform="matrix(1 0 0 -1 43 948)" d="m222 719 67-55v-19H183V516c34-21 59-40 76-57 21-21 31-44 31-69 0-18-5-31-15-40-5-4-10-6-15-6-3 0-6 1-9 3-3 4-8 15-13 33-13 47-32 83-55 108V10L125 0v450C88 351 51 273 14 217L0 231c47 114 83 252 107 414H19L7 672h118v223l86-13c10-2 15-7 15-14s-5-12-15-14l-28-6V672l39 47m184 176 78-11c13-2 20-7 20-16 0-7-5-12-16-15l-20-5-62-98h61l25 39 63-41c9-6 14-12 14-18 0-5-5-10-15-13l-19-6V508l-59-12v28H363V398h121l20 40 59-44c7-5 11-10 11-15s-4-8-11-11l-16-5V113l-59-11v47H363V42l-59-11v747l69-28 33 145m-43-172V551h113v172H363m0-352V176h125v195H363m246 508 65-43h56l20 31 60-27c9-5 14-10 14-15s-4-9-11-12l-16-8V567c0-8 4-12 13-12h15c11-1 18 8 22 27l20 110h20V582c0-18 9-30 27-35-3-11-7-21-14-28-10-10-22-15-36-15h-83c-29-1-44 15-43 47v258h-70v-70c0-60-8-112-25-155-13-30-29-56-50-79-10-11-27-25-50-44l-11 16c32 41 53 84 64 127 9 35 13 78 13 128v147m199-398 63-47c11-8 16-15 16-20 0-8-8-13-23-14l-24-1c-30-80-62-145-95-196 39-47 94-91 165-133V51c-34-4-56-17-66-39-59 52-102 101-131 148-38-43-72-74-103-95-40-26-83-48-130-65l-8 20c85 41 156 104 213 189-29 56-55 127-79 213h-40l-12 27h231l23 32m-31-59H630c20-58 47-115 80-171 24 49 46 106 67 171Z"/></symbol><symbol id="𫞍_J" viewBox="0 0 1000 1000" data-size="21"><path transform="matrix(1 0 0 -1 32 954)" d="m288 36-14 27h119v398l65-28h266l30 38 49-31c14-9 21-17 21-24s-4-13-13-16l-22-9V63h17l51 57 78-66V36H288m166 27h272v103H454V63m0 131h272v94H454v-94m0 212v-89h272v89H454M304 822l-12 27h495l51 59 82-69v-17H687V710h100l28 36 58-40c13-9 19-15 19-18 0-4-6-8-19-12l-21-6V490l-60-11v46H392v-49l-60-9v275l62-32h85v112H304m88-139V552h87v131h-87m146-131h92v131h-92V552m0 270V710h92v112h-92m149-139V552h105v131H687m-372-58H205V522c37-24 61-43 73-57 19-21 28-42 28-63 0-13-4-23-13-31-7-6-14-9-21-9-13 0-22 13-27 38s-11 43-18 55c-5 9-12 20-22 33V11L143 0v421c-27-49-50-85-67-108-15-19-33-41-55-64L0 264c25 30 56 90 93 179 19 50 34 111 45 182H41l-15 28h117v251l82-12c14-2 21-7 21-16 0-7-6-12-18-15l-23-6V653h21l40 62 49-67v-23Z"/></symbol><symbol id="𫞎_J" viewBox="0 0 1000 1000" data-size="21"><path transform="matrix(1 0 0 -1 50 952)" d="m266 715 70-62v-20H200V524c34-20 58-36 73-49 24-21 36-43 36-65 0-9-3-18-8-26s-12-12-21-12c-5 0-9 1-12 4-5 4-9 14-14 30-10 34-28 65-54 94V8l-63-8v443c-33-73-75-145-125-216L0 238c55 101 99 233 130 395H12L0 660h137v239l78-11c13-1 20-6 20-15s-4-15-13-19l-22-10V660h27l39 55m551 156 82-66v-20H540c-15-25-31-50-47-74h207l23 35 62-34c8-4 12-9 12-16 0-5-3-10-8-14l-15-10V418h31l24 35 59-37c7-4 10-8 10-13s-3-9-10-12l-16-8V68c0-22-9-38-28-49S806 3 788 3c-9 0-14 6-16 17-3 15-12 24-26 27l-46 12v19h109v313H399V16L336 0v453l74-35h32v228c-39-43-87-85-145-126l-11 15c81 71 143 154 188 250H305l-12 27h192c9 18 20 48 35 91l81-24c11-3 17-7 17-12 0-6-5-10-15-13l-28-6c-7-13-14-25-19-36h218l43 59M500 418h215v74H500v-74m0 101h215v71H500v-71m0 98h215v67H500v-67m-23-277 62-32h124l25 32 54-36c5-3 8-7 8-12 0-4-4-8-11-11l-16-7V121l-55-8v39H532v-46l-55-12v246m55-161h136v102H532V179Z"/></symbol><symbol id="𫞏_J" viewBox="0 0 1000 1000" data-size="21"><path transform="matrix(1 0 0 -1 51 956)" d="M441 648c-45-65-95-121-150-168l-13 16c71 77 124 160 160 248H291l-13 27h171c11 27 26 74 44 141l84-23c9-3 14-7 14-14s-6-12-17-15l-24-6c-11-23-23-50-37-79l-2-4h259l51 55 76-59v-23H754V383h43l26 39 61-46c7-5 10-10 10-15s-5-10-15-14l-18-7V67c0-17-11-32-32-45-18-11-34-16-49-16-7 0-11 7-12 20s-6 22-15 27c-7 3-25 9-56 18v15h107v270H397V11L339 0v418l62-35h40v265m254-154H501V383h194v111m-194 27h194v98H501v-98m0 125h194v98H501v-98m-155 17v-23H202V500c77-35 116-73 116-114 0-21-9-32-28-32-13 0-22 8-27 24-11 31-21 53-30 66-6 9-16 20-31 35V14L141 4v425c-28-56-52-99-73-130-13-19-30-41-52-68L0 242c41 65 77 150 108 253 11 40 22 88 32 145H20L4 667h137v240l71-7c16-2 24-7 24-15 0-7-6-13-18-17l-16-5V667h35l41 49 68-53m190-377h121l20 33 52-38c10-7 15-12 15-15 0-5-5-10-15-13l-14-5V129l-55-12v33H530v-34l-54-12v213l60-31m124-27H530v-82h130v82Z"/></symbol></svg>