<svg xmlns="http://www.w3.org/2000/svg"><symbol id="一_G" viewBox="0 0 1000 1000" data-size="21"><path transform="matrix(1 0 0 -1 55 549)" d="M0 35h727l78 63 86-86H141C99 12 64 8 35 0L0 35Z"/></symbol><symbol id="一_H" viewBox="0 0 1000 1000" data-size="21"><path transform="matrix(1 0 0 -1 34 548)" d="M0 43c28-8 65-12 111-12h682l53 65c27-21 53-42 78-63 5-3 8-7 8-12 0-11-5-17-14-17H111C66 3 35 2 18 0L0 43Z"/></symbol><symbol id="一_T" viewBox="0 0 1000 1000" data-size="21"><path transform="matrix(1 0 0 -1 55 549)" d="M0 35h727l78 63 86-86H141C99 12 64 8 35 0L0 35Z"/></symbol><symbol id="一_J" viewBox="0 0 1000 1000" data-size="21"><path transform="matrix(1 0 0 -1 51 552)" d="M0 28h738l66 76 93-82V0H17L0 28Z"/></symbol><symbol id="一_K" viewBox="0 0 1000 1000" data-size="21"><path transform="matrix(1 0 0 -1 53 545)" d="M0 0v23h747l59 66h13l74-74V0H0Z"/></symbol><symbol id="一_V" viewBox="0 0 1000 1000" data-size="20"><path transform="matrix(1 0 0 -1 70 544)" d="M860 14H109c-11 0-25-2-40-6-15-3-28-6-40-8L0 38h719l65 49 76-73Z"/></symbol><symbol id="丁_G" viewBox="0 0 1000 1000" data-size="21"><path transform="matrix(1 0 0 -1 48 930)" d="M0 802h787l43 58 70-64c2-2 4-6 4-12s-6-10-15-10H494V116c1-27-6-51-21-71-16-20-41-35-77-45-4 20-13 35-25 47s-51 29-119 52l4 19c80-21 127-33 140-35 14-2 25 0 34 6 6 6 9 21 8 47v638H82c-14 0-36-2-66-7L0 802Z"/></symbol><symbol id="丁_H" viewBox="0 0 1000 1000" data-size="21"><path transform="matrix(1 0 0 -1 36 946)" d="M0 844c28-8 65-12 111-12h682l51 61c26-20 52-40 76-60 5-3 8-7 8-11 0-11-5-17-14-17H500V86c0-22-6-38-18-49-9-10-22-19-39-26-13-7-26-11-39-11l-1 13c-2 10-5 17-10 21-8 7-24 14-47 20-24 8-52 12-82 14v22c50-9 94-14 132-14 23 0 37 2 43 5 10 4 14 14 14 30v694H111c-45-1-76-2-93-4L0 844Z"/></symbol><symbol id="丁_T" viewBox="0 0 1000 1000" data-size="21"><path transform="matrix(1 0 0 -1 35 947)" d="M398 0v7c0 21-13 35-40 44-26 9-59 15-97 18v23c12-2 36-5 72-10 28-4 51-6 71-6s33 3 38 10c5 5 7 18 7 38v683H112c-38 0-69-2-93-4L0 846c30-8 67-12 112-12h691l46 61 70-57c8-6 12-12 12-17 0-9-6-14-17-14H500V131c0-39-2-63-5-73-9-28-42-48-97-58Z"/></symbol><symbol id="丁_J" viewBox="0 0 1000 1000" data-size="21"><path transform="matrix(1 0 0 -1 46 937)" d="M11 777 0 804h762l61 70 85-70v-27H502V96c0-32-5-52-15-61-9-7-26-16-52-26-17-6-30-9-39-9-7 0-10 5-10 15-1 19-3 30-7 34-3 4-14 7-32 10l-60 10v23h146v685H11Z"/></symbol><symbol id="丁_K" viewBox="0 0 1000 1000" data-size="21"><path transform="matrix(1 0 0 -1 54 912)" d="M0 736v24h755l55 64h13l69-74v-14H504V127c0-47-6-77-19-90-12-13-48-25-107-37l-10 7v30L254 83l3 13 106-8c6-1 17-1 33-1 20 0 32 4 37 11 5 8 7 28 7 61l-1 577H0Z"/></symbol><symbol id="丁_V" viewBox="0 0 1000 1000" data-size="20"><path transform="matrix(1 0 0 -1 99 987)" d="M407 99c-5-22-14-41-29-57-15-17-32-31-52-42 1 2 1 4 1 6 1 2 1 4 1 6 0 20-8 36-23 47s-32 20-52 25-38 9-53 11v21c15-5 32-9 49-11 17-3 34-4 51-4 13 0 26 3 39 9s20 17 20 34v752H73c1 0-3-1-11-3l-24-6c-8-2-12-3-13-4L0 921h664l59 53 78-78H434l-19-17V130c0-2-1-7-4-15-2-8-3-13-4-16Z"/></symbol><symbol id="丂_G" viewBox="0 0 1000 1000" data-size="21"><path transform="matrix(1 0 0 -1 25 945)" d="M0 837h828l47 53 70-61c2-3 4-5 4-8 1-8-2-11-10-11H412l-98-272h440l31 39 61-39c4-3 7-6 8-10 0-6-11-15-32-29-8-143-16-238-25-285-10-46-24-85-43-115-20-30-45-53-76-70-30-15-67-25-110-29-5 20-17 37-35 51-17 12-56 29-117 52l6 17c66-21 113-34 142-38 28-4 53-3 77 2 21 6 41 19 58 40 18 21 31 53 41 96 8 43 17 140 28 293H320l-31-39-62 52c18 12 33 23 43 34l84 250H72c-14 0-31-3-51-8L0 837Z"/></symbol><symbol id="丂_T" viewBox="0 0 1000 1000" data-size="21"><path transform="matrix(1 0 0 -1 32 953)" d="M303 824H110c-38 0-69-2-93-4L0 861c28-7 67-10 117-10h693l51 56 63-53c8-7 12-12 12-17 0-9-8-13-22-13H357L241 539h467l37 42 48-33c10-7 15-14 15-21 0-8-4-14-13-18l-28-13c-14-132-27-222-39-272-24-102-59-168-104-198-22-14-52-22-88-26 0 20-8 34-22 42-8 6-48 20-118 43l4 20c81-26 132-39 154-39 32 0 58 14 78 41 42 59 70 194 83 404H237c-13-5-23-8-31-8-16 0-24 4-24 13 0 4 1 8 4 14 0 1 2 5 6 13 4 7 6 11 6 13l105 268Z"/></symbol><symbol id="丂_J" viewBox="0 0 1000 1000" data-size="21"><path transform="matrix(1 0 0 -1 96 928)" d="m7 758-7 28h657l55 70 96-76v-22H320l-67-272h350l29 51 77-55c8-6 12-11 12-16s-7-10-20-13l-18-5-11-119c-11-116-21-193-32-232-12-44-37-72-75-84-26-9-46-13-60-13-5 0-8 1-11 2-3 2-4 7-4 14 0 20-13 33-38 40l-65 17v15l172-1c13 14 21 30 25 49 8 33 14 81 19 144l15 179H247l-26-92h-66c41 151 73 282 98 391H7Z"/></symbol><symbol id="七_G" viewBox="0 0 1000 1000" data-size="21"><path transform="matrix(1 0 0 -1 43 932)" d="M383 864c47-23 75-38 86-43 4-4 4-8 0-13l-35-16V499l359 76 31 71c58-36 87-56 90-61 1-6-2-10-10-14l-470-99V83c0-20 4-32 11-34 8-1 16-2 24-2h279c18 2 31 4 39 6 9 2 16 14 20 38 4 23 9 75 15 156h20c-1-55 0-94 4-119 4-26 15-41 35-45-6-24-16-42-29-54-14-11-26-18-36-21-9-3-25-5-46-8H467c-18 0-33 2-47 6-12 4-23 12-31 23-4 13-6 30-6 52v381L76 397c-13-3-26-9-37-17L0 411l383 78v375Z"/></symbol><symbol id="七_H" viewBox="0 0 1000 1000" data-size="21"><path transform="matrix(1 0 0 -1 33 914)" d="m802 557 40 66 85-56c4-2 7-6 7-10 0-8-5-12-13-14l-605-82V102c0-14 5-24 14-30 13-6 33-10 60-12 32-6 84-9 156-9 57 0 103 1 139 4 27 2 48 7 64 12 16 6 27 17 32 36 12 25 23 88 34 190l23-8c-5-56-8-112-8-166 0-10 2-17 7-21 3-5 9-10 20-15 13-6 20-14 20-24 0-8-6-15-19-21-17-10-38-17-63-20-32-7-69-11-111-12-47-4-93-6-138-6-65 0-115 2-149 6-44 4-73 10-88 15-16 6-28 14-37 27-7 10-10 22-10 35v370l-161-21-74-15-27 40 113 14 149 18v259c0 33-3 59-8 80 39-6 72-14 99-22 8-2 12-7 12-15 0-7-4-12-12-15-12-4-24-8-37-10V496l486 61Z"/></symbol><symbol id="七_T" viewBox="0 0 1000 1000" data-size="21"><path transform="matrix(1 0 0 -1 28 916)" d="m820 563 34 57 82-44c5-3 7-7 7-12 0-8-4-13-11-14l-576-78V137c0-28 4-47 10-57 13-22 75-33 183-33 112 0 207 9 283 26 6 1 11 2 18 2 12 0 22-4 29-11 7-6 11-13 11-22 0-10-4-17-11-21-11-6-43-11-95-15-62-4-113-6-155-6-135 0-218 4-249 12-33 9-54 24-63 46-6 14-9 33-9 57v349l-208-30-74-15-26 36 117 11 191 26v249c0 45-1 75-4 91l52-12c29-7 43-14 43-23 0-8-8-15-24-20l-19-6V503l464 60Z"/></symbol><symbol id="七_J" viewBox="0 0 1000 1000" data-size="21"><path transform="matrix(1 0 0 -1 61 896)" d="M17 433 0 461l313 34v297l80-7c19-2 28-8 28-17s-7-16-22-20l-18-5V502l324 37 61 77 107-61 4-26-496-56V96c0-13 2-21 6-24 5-5 14-8 27-8h291c13 0 22 4 28 13 10 13 17 32 22 55l29 127h20V124c0-25 4-40 11-47 1-1 7-4 16-9 4-1 9-4 14-7-4-17-13-31-28-42C802 7 768 1 714 0H439c-53 1-87 5-102 12-16 8-24 23-24 45v408L17 433Z"/></symbol><symbol id="七_K" viewBox="0 0 1000 1000" data-size="21"><path transform="matrix(1 0 0 -1 63 901)" d="m394 450 356 72 35 65 11 3 78-49 1-16-481-96V135c0-36 4-58 11-67 8-8 28-12 61-12h227c36 0 61 4 76 13s26 26 34 53l34 116 14-4-15-160 36-18V40c-17-17-36-27-57-32s-49-8-86-8H468c-22 0-38 0-47 1-9 0-21 1-35 4-13 2-23 5-28 10s-10 11-16 20c-5 9-9 21-11 34-1 14-2 31-2 51v295L4 349l-4 20 330 67v365l102-22v-15l-38-19V450Z"/></symbol><symbol id="七_V" viewBox="0 0 1000 1000" data-size="20"><path transform="matrix(1 0 0 -1 94 984)" d="M812 41c0-10-7-18-20-23-13-6-28-10-47-12-19-3-36-4-53-5-16-1-28-1-35-1H364c-19 0-36 6-51 18-15 11-22 27-22 47v395c-14-5-32-11-53-18s-43-14-66-23-45-18-66-27c-20-9-36-18-48-27L0 387l291 103v477l80-39c-1-1-2-5-5-12-2-7-5-14-8-23-3-8-5-15-8-22l-3-9V510l263 93 31 67 102-45-396-147V103c0-20 5-33 16-40s25-10 43-10h59l117-1h59c24 0 42 6 53 17s18 25 21 42 5 36 5 55v37l-2 74c-1 6-1 12-1 18v19l10-3c1-13 1-30 2-51 1-20 2-42 4-65 3-23 7-44 12-65s13-38 24-53 24-24 41-27c0-5 1-8 2-9Z"/></symbol><symbol id="丄_G" viewBox="0 0 1000 1000" data-size="21"><path transform="matrix(1 0 0 -1 21 923)" d="M518 39h318l45 52 72-60c4-2 6-7 6-13s-6-8-18-8H82C69 10 50 7 25 0L0 39h459v808l107-34c4-3 6-8 4-13 0-1-2-2-6-4l-46-18V39Z"/></symbol><symbol id="丄_H" viewBox="0 0 1000 1000" data-size="21"><path transform="matrix(1 0 0 -1 36 927)" d="M427 854c39-4 71-12 94-23 10-3 14-7 14-14 0-5-4-9-14-11-11-7-25-11-42-12V35h310l51 62c28-22 55-43 80-63 6-4 9-8 9-13 0-8-6-12-17-12H114C68 7 36 5 19 0L0 48c29-9 67-13 114-13h319v740c0 36-2 62-6 79Z"/></symbol><symbol id="丄_T" viewBox="0 0 1000 1000" data-size="21"><path transform="matrix(1 0 0 -1 38 922)" d="M484 785V31h308l56 59 68-59c5-5 8-10 8-15 0-8-5-12-14-12H112C74 4 43 3 19 0L0 43c33-8 70-12 112-12h325v736c-1 40-2 66-4 78l53-12c28-6 42-14 42-22 0-9-8-16-24-21l-20-5Z"/></symbol><symbol id="丄_J" viewBox="0 0 1000 1000" data-size="21"><path transform="matrix(1 0 0 -1 72 892)" d="M0 28h382l4 757 79-6c25-2 38-7 38-16 0-4-2-8-6-12-1-1-7-4-18-9l-24-10-4-704h239l59 70 106-80-1-18H9L0 28Z"/></symbol><symbol id="丅_G" viewBox="0 0 1000 1000" data-size="21"><path transform="matrix(1 0 0 -1 26 956)" d="M0 856h826l49 55 68-64c2-2 4-6 4-12 0-7-6-10-15-10H518V167l3-120c0-9-7-20-23-31-14-10-27-15-41-16l4 155v670H70c-13 0-28-2-43-8L0 856Z"/></symbol><symbol id="丅_T" viewBox="0 0 1000 1000" data-size="21"><path transform="matrix(1 0 0 -1 31 944)" d="M446 802H112c-38 0-69-1-93-4L0 842c30-8 68-12 112-12h690l52 59 76-59c6-4 8-9 8-14 0-9-4-14-14-14H493V130l5-78V21c0-14-12-21-36-21-11 0-16 6-16 17v785Z"/></symbol><symbol id="丅_J" viewBox="0 0 1000 1000" data-size="21"><path transform="matrix(1 0 0 -1 68 912)" d="M0 754h699l55 69 109-77v-21H456V9l-72-9v725H11L0 754Z"/></symbol><symbol id="丆_G" viewBox="0 0 1000 1000" data-size="21"><path transform="matrix(1 0 0 -1 54 935)" d="M0 817h768l45 53 74-64c8-11 5-17-10-20H459c-2-137-12-249-29-336-16-86-53-171-112-254C262 116 191 50 105 0l-9 14c81 68 144 139 189 212 42 72 72 147 90 226 16 78 25 190 27 334H84c-21 0-40-2-55-8L0 817Z"/></symbol><symbol id="丆_K" viewBox="0 0 1000 1000" data-size="21"><path transform="matrix(1 0 0 -1 63 928)" d="m744 799 47 57h14l70-64v-15l-392 1c-15-109-36-201-62-276s-62-148-108-221C238 164 144 70 32 0L20 12c62 51 113 101 153 151s77 109 112 178 61 137 79 202c19 65 33 144 43 235H0l1 21h743Z"/></symbol><symbol id="万_G" viewBox="0 0 1000 1000" data-size="21"><path transform="matrix(1 0 0 -1 40 935)" d="M10 815h787l47 55 72-60c2-3 3-6 4-10 0-8-6-12-18-12H393c-4-78-8-145-12-201h310l34 45 64-43c8-5 12-10 12-16-1-2-6-6-16-13-15-10-23-18-23-24l-6-242c-6-72-13-123-20-152-7-31-23-57-47-78-23-21-51-37-84-46-5 28-23 48-52 62-28 12-61 24-100 34l6 20c43-11 76-18 98-22 21-5 41-7 58-6 16 0 29 4 39 10 9 6 18 18 26 35 7 18 13 55 19 112l8 297H379c-6-69-20-136-41-202-22-66-59-131-111-195C174 101 100 47 4 0L0 18c81 54 145 110 191 167 45 54 78 115 98 181 20 64 33 129 37 196 3 66 6 141 8 226H92c-12 0-33-3-65-8l-17 35Z"/></symbol><symbol id="万_H" viewBox="0 0 1000 1000" data-size="21"><path transform="matrix(1 0 0 -1 34 950)" d="M8 848c28-8 66-12 113-12h672l55 64c26-20 52-41 76-62 5-4 8-8 8-12 0-12-5-17-14-17H413c-8-79-17-150-27-216-3-13-5-25-7-38h346l39 35c24-13 43-25 54-38 7-5 10-9 10-11 0-9-13-20-39-33-7-94-17-174-28-241-14-68-27-118-38-150-15-29-30-51-44-65-19-15-37-28-55-39-18-9-32-13-42-13 0 16-5 27-14 35-8 9-57 26-146 51l4 21c82-23 137-35 164-35 14 0 27 3 39 7 8 2 17 9 24 21 11 13 21 34 33 65 12 30 22 75 30 134 9 57 16 134 20 230H373c-11-43-24-83-38-118-21-62-45-117-72-164-28-48-61-91-101-129C119 74 69 35 12 0L0 16c63 47 112 92 147 137 38 43 68 89 92 136 23 44 44 90 62 138 16 51 30 110 43 178 8 56 14 124 20 204H121c-46-1-78-2-96-4L8 848Z"/></symbol><symbol id="万_T" viewBox="0 0 1000 1000" data-size="21"><path transform="matrix(1 0 0 -1 28 946)" d="M19 812 0 855c31-8 68-11 112-11h717l48 49 59-52c6-5 8-10 8-13 0-8-4-13-13-13H386c-2-21-5-54-9-99-5-63-12-114-20-154h376l33 37 41-26c13-9 20-17 20-24 0-9-13-19-38-30-3-105-16-208-38-307-13-60-28-102-44-128-19-29-40-51-64-64-16-8-36-15-60-20-4 21-13 35-27 42-19 10-53 21-103 35l4 21c66-18 110-27 132-27 35 0 59 12 73 36 41 69 66 212 76 429H351c-28-122-58-213-90-271C213 175 131 88 16 3L4 19c124 105 208 221 252 348 43 124 70 273 80 448H112c-37 0-68-1-93-3Z"/></symbol><symbol id="万_J" viewBox="0 0 1000 1000" data-size="21"><path transform="matrix(1 0 0 -1 64 908)" d="M7 18c112 81 190 175 235 283 27 65 45 143 54 236 4 41 7 104 9 189H12L0 754h725l52 61 95-67v-22H377c-1-26-2-43-2-51-2-51-5-100-10-145h285l25 42 76-55c10-7 15-12 15-17s-5-9-16-12l-28-8-6-128c-7-145-26-244-56-296-12-21-33-35-64-44-24-7-45-10-62-10-14 0-21 7-21 20 0 17-2 26-6 29-5 3-14 6-27 9l-67 12v20h191c25 50 41 139 46 268l6 142H361c-18-133-68-248-151-346C157 95 93 43 20 0L7 18Z"/></symbol><symbol id="万_K" viewBox="0 0 1000 1000" data-size="21"><path transform="matrix(1 0 0 -1 64 919)" d="M324 751H0v22h731l57 65h14l70-71v-16H392c-1-46-5-104-11-175l-4-33 271-1 36 38 13 1 64-61v-14l-30-19-16-138c-3-27-6-48-9-64-2-16-5-35-9-58-4-22-8-40-13-53-4-13-9-27-16-44s-14-30-23-40c-8-9-18-19-29-29-11-11-24-19-39-24-14-5-30-10-49-13-18-3-38-5-60-5l-12 6-5 33-103 48 5 13 85-16c20-3 38-5 53-5 23 0 43 3 58 9 16 6 30 16 42 29 12 14 22 34 29 61 8 27 15 58 20 94s10 82 15 138l8 91H372c-25-132-62-238-112-319S140 53 49 0l-9 10c99 84 170 183 213 296 44 113 68 262 71 445Z"/></symbol><symbol id="万_V" viewBox="0 0 1000 1000" data-size="20"><path transform="matrix(1 0 0 -1 101 987)" d="M653 615H352c-12-61-26-121-41-180s-35-115-60-168c-24-53-55-103-93-148S72 34 15 0L2 4c61 55 111 118 151 189s72 146 95 225 40 160 50 242 16 162 17 241H95c1 0-2-1-9-3-7-1-15-3-24-6s-18-5-25-8c-7-2-11-3-12-3L0 922h675l52 52 72-73H381c-3-44-7-88-10-132s-9-88-18-131l292-1 40 48 65-62-38-42c-1-31-2-65-4-103-2-37-5-75-10-114-4-39-10-76-17-113-7-36-16-68-27-97-3-8-7-19-14-33-6-15-12-25-17-31-17-21-41-38-70-53s-58-23-85-24c0 20-7 38-20 53s-29 27-48 38c-18 10-35 18-51 24v9c21-8 44-15 67-22s46-10 69-10c35 0 65 11 90 34 10 9 19 25 26 48 8 23 15 50 20 81 6 31 11 64 14 98 4 35 7 68 9 101 3 33 5 62 6 88s2 46 3 60Z"/></symbol><symbol id="丈_G" viewBox="0 0 1000 1000" data-size="21"><path transform="matrix(1 0 0 -1 40 961)" d="M0 681h504v242l88-31c4-3 6-6 6-10 2-4-13-11-43-20V681h248l41 54 64-62c2-2 3-5 4-8 0-8-4-12-12-12H555c1-73-4-149-16-226-12-76-34-136-66-178 48-40 106-72 173-98 68-24 124-38 168-44 43-3 79-7 106-11V78c-31 0-55-1-74-4-18-2-36-15-55-39-47 18-88 34-123 49-33 16-67 32-102 50-33 18-73 46-119 84-51-51-112-94-183-130S113 23 25 0l-5 16c87 31 164 66 232 106 66 38 121 80 164 125-46 48-80 96-103 143-24 47-51 112-83 197l18 4c33-78 63-139 88-182s59-88 103-135c26 43 43 99 53 168 9 69 13 139 12 211H88c-14 0-37-2-68-7L0 681Z"/></symbol><symbol id="丈_H" viewBox="0 0 1000 1000" data-size="21"><path transform="matrix(1 0 0 -1 28 959)" d="M35 693c28-9 65-13 111-13h379v74c0 68-2 122-7 164 31-4 58-9 81-16 8-2 12-7 12-15 0-5-4-10-12-15-8-4-16-7-25-11V680h201l53 60c26-21 50-40 71-59 8-4 11-8 11-13 0-9-6-14-17-14H574V547c0-80-8-142-24-187-14-41-31-78-53-110 33-27 73-54 122-81 57-33 114-58 171-76 48-19 99-33 153-42V39c-39 0-61-12-68-35-80 26-146 54-196 85-69 34-128 73-178 117-9 6-17 12-23 20-25-36-57-66-97-91-56-35-110-63-163-83C153 30 84 12 10 0L0 18c109 24 192 49 247 77 52 24 97 53 136 87 23 20 44 44 62 71-36 33-68 68-94 105-43 56-81 119-115 189l24 8c36-70 69-126 101-169 34-40 68-75 103-107 2 4 3 6 5 8 19 33 33 73 42 120 10 44 14 90 14 140v107H146c-44 0-76-2-93-4l-18 43Z"/></symbol><symbol id="丈_T" viewBox="0 0 1000 1000" data-size="21"><path transform="matrix(1 0 0 -1 36 962)" d="M443 200c-55-53-116-94-184-125C185 41 100 16 5 0L0 18c94 23 178 54 251 95 65 36 117 75 157 116-90 82-156 187-198 316l17 9c53-122 123-220 210-292 60 74 91 181 91 321v74H133c-45-1-76-2-94-4l-19 43c31-7 68-10 113-10h395v140c0 9-1 23-3 42-1 16-2 28-3 38 0 7-1 13-2 18l54-12c27-6 41-13 41-22 0-8-8-14-24-20l-15-6V686h210l50 57 64-52c12-10 18-17 18-21 0-9-5-13-16-13H576v-69c0-110-14-196-43-258-14-30-34-62-59-96 55-40 117-74 185-102 64-26 121-44 171-55 22-5 55-10 98-16l-2-19c-21 0-37-4-46-9-8-5-15-14-22-28-98 28-183 59-253 93-56 27-110 61-162 102Z"/></symbol><symbol id="丈_J" viewBox="0 0 1000 1000" data-size="21"><path transform="matrix(1 0 0 -1 65 936)" d="M0 18c51 18 90 32 116 43 95 39 174 98 239 177-40 48-71 91-92 130-19 35-42 88-69 158l18 8c27-57 53-104 78-141 23-33 53-69 90-108 30 65 46 182 47 351H31l-18 29h414v206l80-8c13-1 20-6 20-13 0-9-4-14-13-17l-24-9V665h229l55 64 95-72v-21H490c0-79-4-151-13-215-6-46-14-84-23-113-5-15-14-36-27-63 49-31 109-61 180-90 55-22 104-38 145-49 17-5 54-12 109-23l-2-15c-25-6-42-14-50-24-6-6-12-17-18-33-151 47-282 109-393 188-31-33-59-60-85-79-54-39-116-69-186-90C95 21 54 11 5 0L0 18Z"/></symbol><symbol id="丈_K" viewBox="0 0 1000 1000" data-size="21"><path transform="matrix(1 0 0 -1 64 948)" d="M0 652h429l-2 243 104-19v-14l-38-21V652l249-1 52 59 14-1 64-64v-17H493c0-169-16-299-48-391 55-46 114-81 176-106 63-25 144-45 243-60l-3-15c-25-9-43-27-55-54-87 20-160 44-219 72s-118 67-175 116c-25-31-55-57-88-80s-68-41-106-55-73-25-104-33S48 7 8 0L2 13c112 32 200 71 265 118 29 21 48 37 59 47 11 11 25 29 43 54-70 98-118 198-143 299-21-27-42-63-63-107-6-21-12-31-19-31s-16 9-29 27-19 28-19 31c0 5 4 10 11 15 17 13 30 22 39 29s21 19 36 36 27 34 34 51c7 15 12 22 17 22 3 0 9-3 18-10 9-6 14-12 14-17 0-3-7-12-22-25 41-111 93-201 156-272 20 77 30 179 30 308v40H0v24Z"/></symbol><symbol id="丈_V" viewBox="0 0 1000 1000" data-size="20"><path transform="matrix(1 0 0 -1 59 999)" d="M431 313c-9-23-25-48-49-76s-53-56-86-84-67-54-103-76c-36-24-71-42-105-56C55 7 25 0 0 1c26 10 55 25 87 45 32 19 64 42 97 68 33 25 64 52 93 81s54 59 75 89 34 59 41 87c-29 49-56 99-82 151-26 51-49 103-69 157l16 5c23-44 46-87 71-130s51-85 78-125c7 35 11 70 13 106 2 35 3 71 3 107l-2 57v28H153l-11-2c-7-2-15-3-24-5s-18-4-26-6c-7-2-12-2-13-2l-23 39h363v248l86-29c-1-1-3-6-6-15s-6-19-10-29c-3-11-6-21-9-29l-4-12V751h255l50 44 75-68H477c-2-62-4-123-5-184s-7-122-19-182c35-40 68-74 98-100s61-48 92-65 66-31 104-43 83-24 135-35c-12-3-26-7-41-11-15-6-29-12-42-20-13-9-22-20-28-32-29 3-60 14-93 32s-66 40-98 66-61 54-87 82-47 54-62 78Z"/></symbol><symbol id="三_G" viewBox="0 0 1000 1000" data-size="21"><path transform="matrix(1 0 0 -1 53 875)" d="M86 698h668l35 53 66-57c2-2 4-6 4-9 0-8-5-12-15-12H168c-14 0-36-3-66-8l-16 33m64-312h502l41 52 71-56c2-3 3-6 4-10 0-8-5-12-16-12H225c-14 0-34-2-59-7l-16 33M0 32h779l43 59 69-63c2-2 3-5 4-8 0-8-5-12-16-12H82C68 8 46 6 16 0L0 32Z"/></symbol><symbol id="三_H" viewBox="0 0 1000 1000" data-size="21"><path transform="matrix(1 0 0 -1 36 881)" d="M78 711c28-9 66-14 113-14h520l53 65c27-22 53-43 77-63 6-4 9-8 9-13 0-10-5-14-14-14H191c-46-1-78-2-95-4l-18 43m61-311c28-7 66-11 113-11h404l51 58c26-18 50-37 73-57 6-3 9-7 9-11 0-12-6-18-18-18H252c-46 0-76-2-92-4l-21 43M0 43c28-9 66-14 113-14h668l55 67c29-22 56-43 83-64 6-4 9-9 9-14 0-10-5-14-14-14H113C67 3 35 2 18 0L0 43Z"/></symbol><symbol id="三_T" viewBox="0 0 1000 1000" data-size="21"><path transform="matrix(1 0 0 -1 30 888)" d="M71 728c30-9 68-13 113-13h547l51 62 71-60c7-5 10-10 10-14 0-9-5-14-16-14H184c-35 0-67-1-95-4l-18 43m63-329c31-7 69-11 115-11h419l48 58 66-50c11-10 17-17 17-21 0-10-8-15-23-15H249c-39 0-70-1-94-4l-21 43M0 43c34-8 71-11 113-11h697l49 61 71-61c7-6 10-11 10-16 0-8-5-12-15-12H113C76 4 44 3 19 0L0 43Z"/></symbol><symbol id="三_J" viewBox="0 0 1000 1000" data-size="21"><path transform="matrix(1 0 0 -1 48 883)" d="M0 28h748l54 73 101-79V0H7L0 28m72 644-10 28h632l53 66 93-73v-21H72m67-315-8 27h498l49 63 91-68v-22H139Z"/></symbol><symbol id="三_K" viewBox="0 0 1000 1000" data-size="21"><path transform="matrix(1 0 0 -1 51 877)" d="M0 0v22h755l56 67h15l71-73V0H0m54 672v22l664 1 54 59h13l69-65v-17H54m46-321v22h560l53 58h13l65-63v-17H100Z"/></symbol><symbol id="三_V" viewBox="0 0 1000 1000" data-size="20"><path transform="matrix(1 0 0 -1 60 921)" d="M801 769H152c1 0-3-1-12-4-8-3-16-5-25-8s-13-4-14-5l-29 43h615l46 46 68-72M701 401H243c1 0-3-1-11-4-8-2-16-4-25-6-8-2-12-3-13-4l-27 38h421l45 45 68-69M879 14H82l-13-3c-9-3-18-5-27-7S28 1 27 0L0 39h761l51 47 67-72Z"/></symbol><symbol id="上_G" viewBox="0 0 1000 1000" data-size="21"><path transform="matrix(1 0 0 -1 46 903)" d="m775 536 67-64c1-4 2-7 2-10 0-6-3-9-8-8H471V33h326l39 56 66-60c4-2 6-6 6-11 0-6-6-10-17-10H82C68 8 46 6 16 0L0 33h418v773l90-34c4-3 5-8 4-13 0-1-2-2-6-4l-35-18V479h259l45 57Z"/></symbol><symbol id="上_H" viewBox="0 0 1000 1000" data-size="21"><path transform="matrix(1 0 0 -1 34 920)" d="M389 840c38-5 69-12 92-23 10-4 15-8 15-12 0-6-5-10-15-13-11-7-25-11-42-13V508h268l49 56c27-19 52-38 75-55 6-4 9-9 9-15 0-10-5-15-16-15H439V29h354l53 65c27-22 53-43 77-63 6-4 9-8 9-13 0-10-5-14-14-14H113C67 3 35 2 18 0L0 43c28-9 66-14 113-14h280v733c0 34-2 60-4 78Z"/></symbol><symbol id="上_T" viewBox="0 0 1000 1000" data-size="21"><path transform="matrix(1 0 0 -1 24 925)" d="m389 851 53-12c28-6 42-14 42-23 0-8-8-15-25-20l-19-5V529h287l50 57 74-57c5-5 8-10 8-15 0-9-5-14-16-14H440V32h380l56 59 67-59c6-5 9-11 9-15 0-9-5-13-14-13H112C74 4 43 3 19 0L0 43c30-8 68-11 112-11h281v741c-1 41-2 67-4 78Z"/></symbol><symbol id="上_J" viewBox="0 0 1000 1000" data-size="21"><path transform="matrix(1 0 0 -1 59 898)" d="M881 0H20L0 29h370v767l83-6c15-1 22-6 22-15 0-5-5-10-14-13l-22-8V461h209l62 71 88-75v-23H439V29h291l60 67 91-71V0Z"/></symbol><symbol id="上_K" viewBox="0 0 1000 1000" data-size="21"><path transform="matrix(1 0 0 -1 68 915)" d="M0 0v22h343v807l100-23v-14l-36-15V481h224l52 58h13l61-64v-17l-350 1V22l319 1 57 61h14l66-68V0H0Z"/></symbol><symbol id="上_V" viewBox="0 0 1000 1000" data-size="20"><path transform="matrix(1 0 0 -1 74 982)" d="M852 16H95l-16-4C69 9 59 7 48 5 38 2 32 1 31 0L0 39h361v924l93-28c-1-1-3-6-6-16-3-9-7-20-11-32s-8-22-11-31-4-13-4-12V508h205l57 56 82-78H422V39h290l56 55 84-78Z"/></symbol><symbol id="下_G" viewBox="0 0 1000 1000" data-size="21"><path transform="matrix(1 0 0 -1 56 936)" d="M0 813h775l41 59 69-64c2-2 3-6 4-12-1-7-6-10-16-10H451V583c65-18 123-39 176-62 52-24 86-46 102-67s22-40 19-57c-2-17-10-27-23-29s-27 9-43 33c-16 23-45 50-88 80-43 32-91 57-143 77V132l4-91c0-7-6-16-19-25-14-10-28-15-41-16l3 120v666H82c-14 0-36-2-66-8L0 813Z"/></symbol><symbol id="下_H" viewBox="0 0 1000 1000" data-size="21"><path transform="matrix(1 0 0 -1 36 949)" d="M0 850c28-8 65-12 111-12h682l51 60c26-19 52-39 76-59 5-3 8-7 8-11 0-12-5-17-14-17H469V642c53-20 100-41 139-63 47-26 83-49 109-70 27-18 46-33 55-46 12-9 20-19 23-30 4-9 6-17 6-23 0-12-4-17-12-17s-16 2-23 7c-8 4-22 14-40 31-24 26-50 51-79 73-26 24-57 47-90 70-28 16-57 33-88 50V59c1-11 2-20 2-28 0-21-11-31-32-31-14 0-21 5-21 14 0 15 1 33 2 54 1 22 2 42 2 59v684H111c-45-1-76-2-93-4L0 850Z"/></symbol><symbol id="下_T" viewBox="0 0 1000 1000" data-size="21"><path transform="matrix(1 0 0 -1 36 949)" d="M419 811H112c-38 0-69-1-93-4L0 850c29-7 67-10 112-10h684l47 58 68-52c12-9 17-16 17-22 0-9-5-13-14-13H468V626c74-26 142-57 206-92 54-30 88-53 103-70 16-16 24-33 24-49 0-19-9-29-27-29-8 0-16 3-24 9-4 2-14 13-29 31-38 45-86 85-143 121-17 10-53 29-110 57V132c0-24 1-48 4-71 1-12 2-22 2-28 0-22-11-33-33-33-10 0-17 3-20 9-1 2-2 19-2 53v749Z"/></symbol><symbol id="下_J" viewBox="0 0 1000 1000" data-size="21"><path transform="matrix(1 0 0 -1 47 944)" d="M13 791 0 819h748l58 68 100-77v-19H471V571c114-30 194-59 239-88 49-31 73-63 73-95 0-10-3-19-10-27s-14-12-23-12c-6 0-13 4-22 11-3 2-15 14-36 37-61 65-135 113-221 144V5l-70-5v791H13Z"/></symbol><symbol id="下_K" viewBox="0 0 1000 1000" data-size="21"><path transform="matrix(1 0 0 -1 60 925)" d="M467 771V591c105-33 176-60 212-82 36-21 54-48 54-79 0-33-6-49-18-49-11 0-29 14-53 42-47 55-112 104-195 147l-5-556-48-14-11 6v765H0v24l752-1 46 56h14l68-63v-16H467Z"/></symbol><symbol id="下_V" viewBox="0 0 1000 1000" data-size="20"><path transform="matrix(1 0 0 -1 77 992)" d="M443 903V33c-7-8-15-15-24-22S400 0 388 0l-3 1h-2v902H88c1 0-2-1-9-3-6-1-13-3-22-6-8-2-15-4-22-6s-10-3-11-3L0 928h722l47 56c13-12 27-25 41-38 15-13 26-28 35-43H443m346-504c-1-1-3-1-5-1-1 1-3 0-4-1-8 0-14 3-19 9s-8 13-10 21c-1 9-3 16-4 21-5 33-18 67-37 101-19 35-42 67-68 97s-52 54-79 73v6c18-8 38-19 61-32s47-29 70-47c24-17 46-36 66-57 21-20 37-41 49-63 13-22 19-44 19-66 0-13-3-25-10-37-6-11-16-19-29-24Z"/></symbol><symbol id="丌_G" viewBox="0 0 1000 1000" data-size="21"><path transform="matrix(1 0 0 -1 42 941)" d="M0 825h789l51 57 72-65c2-4 3-7 4-11 0-5-5-7-14-8H619V165l4-108c-1-11-8-21-21-32-15-10-28-15-39-13l3 147v639H330V595c2-175-28-305-90-391C179 119 104 51 16 0L8 16c77 57 142 126 195 206 51 79 76 203 74 373v203H82c-12 0-33-3-64-8L0 825Z"/></symbol><symbol id="丌_H" viewBox="0 0 1000 1000" data-size="21"><path transform="matrix(1 0 0 -1 32 931)" d="M0 814c28-9 65-13 111-13h690l49 60c27-21 53-40 78-59 5-3 8-8 8-13 0-9-5-14-14-14H654V90c0-14 1-23 2-28 2-13 2-22 2-29 0-22-10-33-29-33-17 0-25 6-25 18 0 13 0 30 1 52 2 23 2 43 2 59v646H357V494c0-55-4-102-12-142-9-43-25-83-47-121-23-43-50-80-81-110-36-34-87-70-153-109L47 33c58 35 103 69 134 100 28 28 50 57 68 86 15 26 29 62 43 106 10 40 15 96 15 169v281H111c-45 0-76-2-93-4L0 814Z"/></symbol><symbol id="丌_T" viewBox="0 0 1000 1000" data-size="21"><path transform="matrix(1 0 0 -1 24 936)" d="M19 781 0 824c30-8 67-11 112-11h703l52 58 76-58c6-5 9-10 9-15 0-9-5-13-15-13H667V141c0-5 1-21 3-46 2-13 2-30 2-53V31c0-14-12-21-35-21-12 0-17 6-17 17v758H325V568c0-107-6-188-17-243-17-78-52-146-105-204C167 81 116 40 50 0L38 16c64 48 109 90 135 126 45 61 74 130 88 204 10 54 14 126 14 217v222H112c-35 0-66-2-93-4Z"/></symbol><symbol id="丌_J" viewBox="0 0 1000 1000" data-size="21"><path transform="matrix(1 0 0 -1 65 925)" d="M9 18c53 27 94 54 125 81 45 39 76 84 94 134 21 55 31 139 31 253v264H10L0 778h710l56 72 105-76v-24H583l35-8c9-3 14-7 14-13s-4-10-12-13l-15-6V33l-65-10v727H309l30-8c9-2 13-6 13-12 0-5-5-10-15-13l-17-5V490c0-121-11-209-32-265-22-59-65-109-128-152C117 43 69 19 16 0L9 18Z"/></symbol><symbol id="丌_K" viewBox="0 0 1000 1000" data-size="21"><path transform="matrix(1 0 0 -1 63 939)" d="m745 819 49 59h12l68-67-1-15H638l-1-770-8-13-47-13-9 6v790H303v-84c0-128-9-233-27-315-17-81-47-152-88-213S87 64 10 6L0 16c90 88 152 179 187 273 35 95 52 221 52 380v127H7v23h738Z"/></symbol><symbol id="不_G" viewBox="0 0 1000 1000" data-size="21"><path transform="matrix(1 0 0 -1 37 944)" d="M16 831h789l41 57 76-69c2-2 3-6 4-9 0-3-5-6-16-8H545c-27-61-53-110-76-145l68-25c5-2 8-4 8-6 0-3-1-6-2-10l-29-17V149l4-102c0-12-8-23-24-33-16-9-29-14-39-14l4 159v481c-47-77-92-141-135-194-43-52-88-99-135-140-44-42-104-86-177-131L0 187c72 57 131 111 176 160 45 47 93 105 144 175 50 69 104 162 160 280H98c-14 0-36-3-67-8l-15 37m570-281c75-39 133-72 172-100 39-26 68-47 86-62 17-15 32-30 45-45 10-16 17-31 19-47s0-28-8-37c-7-10-17-14-29-12-12 1-21 9-29 25s-20 37-37 63c-18 23-43 51-76 82-32 29-83 68-151 119l8 14Z"/></symbol><symbol id="不_H" viewBox="0 0 1000 1000" data-size="21"><path transform="matrix(1 0 0 -1 39 944)" d="M14 840c28-8 67-12 115-12h656l51 61c27-20 52-40 76-60 7-3 10-7 10-11 0-11-6-17-18-17H545c-17-41-35-76-54-108-4-4-7-7-9-10v-90c62-24 113-49 156-75 52-31 91-58 119-81 29-22 49-41 59-56 13-11 22-23 26-34 2-12 4-21 4-29 0-11-4-17-10-17-8 0-16 3-25 9-9 3-24 16-44 38-26 31-54 59-85 85-30 28-62 55-98 82-31 19-64 39-102 59V90c0-14 1-23 2-28 2-13 2-22 2-29 0-22-9-33-29-33-17 0-25 6-25 18 0 13 0 30 2 52 1 23 2 43 2 59v484c-7-9-13-19-20-29-31-36-68-73-111-110-39-34-79-66-122-97-45-28-102-59-173-92L0 307c67 32 125 65 174 99s95 74 138 120c47 49 86 97 117 147 25 43 46 86 61 128H129c-47-1-78-2-94-4l-21 43Z"/></symbol><symbol id="不_T" viewBox="0 0 1000 1000" data-size="21"><path transform="matrix(1 0 0 -1 37 945)" d="M490 242c2-98 4-159 6-181 1-13 2-22 2-28 0-22-11-33-32-33-11 0-18 3-21 9-1 2-1 20-1 53v543C341 470 195 358 7 271l-7 21c118 61 220 137 307 227 53 56 99 117 137 184 10 17 26 51 48 101H125c-38 0-69-1-93-4l-19 43c30-8 67-11 112-11h667l51 59 75-59c5-4 8-9 8-16 0-8-5-12-14-12H554c-24-52-45-94-64-125V579c111-37 199-77 266-119 36-22 67-43 92-62 33-25 49-50 49-75 0-17-8-26-25-26-9 0-17 3-24 9-5 3-16 16-35 40-22 27-59 60-110 98-44 32-115 70-213 112V242Z"/></symbol><symbol id="不_J" viewBox="0 0 1000 1000" data-size="21"><path transform="matrix(1 0 0 -1 45 932)" d="M0 268c61 39 115 80 161 123 79 74 148 149 206 224 46 60 81 114 104 163H17L4 806h771l50 57 84-67v-18H528l40-30c5-4 8-9 8-14 0-7-6-12-18-13l-18-2-61-71 23-9c10-3 15-9 15-16 0-5-4-10-11-13l-15-8V13L423 0v584c-59-67-121-127-186-181-49-41-93-74-131-98-21-13-52-31-95-53L0 268m524 279c65-17 143-57 233-118 57-39 94-70 109-93 10-14 15-28 15-41s-4-23-12-30c-7-6-14-9-23-9-7 0-13 2-19 6s-16 16-31 36c-43 56-102 112-177 167-41 31-76 52-103 65l8 17Z"/></symbol><symbol id="不_K" viewBox="0 0 1000 1000" data-size="21"><path transform="matrix(1 0 0 -1 51 921)" d="M412 4v563c-62-74-121-134-177-181-55-46-126-94-212-143l-9 12c109 81 196 159 262 234 67 75 128 165 185 269H0v22h763l51 60 13 1 71-68v-15H494l66-31-5-15-30-2-70-92 61-18v-13l-40-22-4-549-52-16-8 4m148 544 5 13c79-39 154-81 226-128 39-26 65-48 79-65 15-17 22-35 22-55 0-29-5-43-16-43-12 0-33 17-62 51-71 82-156 158-254 227Z"/></symbol><symbol id="不_V" viewBox="0 0 1000 1000" data-size="20"><path transform="matrix(1 0 0 -1 84 981)" d="M455 570V32c-8-5-14-9-18-14-3-5-7-10-12-13s-13-5-26-5v518c-58-49-119-93-183-132S85 313 14 284L0 298c32 16 66 35 102 57 37 23 73 47 109 73 37 27 71 54 103 82 33 28 61 55 85 81l1 210 81-28c-4-9-8-21-13-36s-9-31-12-47c-3-15-3-28-1-38 32 35 59 74 81 115s44 83 67 124H181c-10 0-22-2-36-6-13-3-25-6-36-8l-17 35h607l53 49 80-70H603l81-41c-15-11-26-22-35-32s-17-20-24-31-15-23-25-38c-22-31-45-62-69-92s-49-59-76-87m377-232c0-11-3-20-9-27-5-7-14-11-25-11-6 0-12 2-17 5-5 4-9 8-13 13l-33 39-31 41c-21 27-47 51-80 74-32 23-62 44-91 62l7 10c15-5 34-12 57-21 24-9 49-21 76-34s53-28 77-44 44-33 59-51 23-37 23-56Z"/></symbol><symbol id="与_G" viewBox="0 0 1000 1000" data-size="21"><path transform="matrix(1 0 0 -1 43 968)" d="m309 937 80-32c4-6 5-10 2-13-3-2-16-6-39-12l-36-131h489l45 53 62-63c1-2 2-6 2-10s-3-7-8-7H309l-47-196h472l37 41 63-45c10-8 9-16-4-25-8-7-17-14-27-21l-10-205c-4-79-10-132-18-158-7-25-22-49-43-70-20-19-51-33-91-43-6 28-21 49-45 63-24 13-63 29-116 46l6 17c43-10 82-19 118-26 33-8 58-10 76-8 17 3 31 13 41 30 8 18 15 65 19 141l12 236H270l-30-37-70 55 43 27 96 393M0 308h572l43 52 67-56c2-3 3-6 4-10 0-8-3-12-10-12H82c-13 0-36-2-68-8L0 308Z"/></symbol><symbol id="与_H" viewBox="0 0 1000 1000" data-size="21"><path transform="matrix(1 0 0 -1 61 961)" d="M150 922c39-4 72-11 98-22 9-5 14-11 14-17s-5-10-14-13c-12-7-27-11-45-13V750h508l51 59c26-19 50-38 73-58 6-3 9-6 9-11 0-11-5-17-16-17H203V615c0-17 1-28 2-33 1-12 2-22 2-31v-4h572l39 35c24-12 41-25 53-38 5-5 8-8 8-11 0-10-13-21-39-33-7-92-16-172-28-238-15-67-29-116-42-147-15-28-31-50-47-64-19-15-39-28-61-39-18-8-33-12-45-12 0 16-5 28-15 36-15 10-89 28-223 54l4 21c122-26 203-39 242-39 17 0 32 3 44 7 11 2 21 9 29 20 11 13 23 34 36 64 12 30 23 74 33 132 11 57 18 132 22 226H194c-4-3-10-5-18-5-17 0-26 5-26 17 0 14 1 32 2 56 2 24 2 46 2 65v186c0 38-1 65-4 82M0 322c29-9 67-13 115-13h457l45 56c26-19 50-38 71-56 6-4 9-8 9-12 0-9-5-14-15-14H115c-47 0-78-2-94-4L0 322Z"/></symbol><symbol id="与_T" viewBox="0 0 1000 1000" data-size="21"><path transform="matrix(1 0 0 -1 53 969)" d="m164 938 54-12c27-6 41-13 41-22 0-8-8-15-24-21l-17-6V767h504l41 53 69-56c3-3 5-7 5-12 0-8-5-12-14-12H218V547h582l33 37 42-26c13-8 19-16 19-24 0-9-13-19-38-30-2-17-4-42-8-75-17-176-46-294-85-352-30-44-74-70-133-77-1 20-8 34-23 40-4 2-40 13-106 32l4 22c67-15 113-22 140-22 42 0 73 23 94 69 34 73 56 200 66 380H206c-4-3-10-5-18-5-16 0-24 8-24 23 0 3 0 17 2 42v8c1 27 2 49 2 65v229c0 20-1 39-4 55M19 279 0 322c31-8 68-11 112-11h476l51 55 56-51c11-9 16-16 16-20 0-8-5-12-16-12H112c-38 0-69-2-93-4Z"/></symbol><symbol id="与_J" viewBox="0 0 1000 1000" data-size="21"><path transform="matrix(1 0 0 -1 52 949)" d="M0 346h602c1 13 1 21 2 25 5 45 8 98 11 157H263l-21-102h-69c16 65 37 160 62 285 15 73 26 135 33 186l86-25c10-3 15-8 15-15s-6-13-17-16l-22-7-25-104h346l39 50 86-61v-17H298l-28-146h335l32 42 73-46c9-5 13-10 13-15 0-7-4-11-13-14l-28-8-11-169h82l46 66 97-69v-25H668c-20-128-46-214-79-258-15-21-36-38-63-49-17-7-33-11-48-11-6 0-10 1-12 3-3 3-4 9-5 18 0 19-3 30-9 34-5 5-12 8-21 9l-75 9v21h175c23 42 39 83 48 124 7 29 13 62 20 100H12L0 346Z"/></symbol><symbol id="与_K" viewBox="0 0 1000 1000" data-size="21"><path transform="matrix(1 0 0 -1 102 937)" d="m465 0-14 6-6 35-102 43 5 14 57-8c33-5 57-7 74-7 31 0 54 10 71 31s31 60 43 118c13 59 24 147 35 265l-412 1-4-32-7-9-54-9-9 8 81 417 97-28v-14l-41-14-21-106 426 1 42 46h14l56-53v-16H253l-32-169 395 1 34 33h14l63-54v-15l-34-14c-7-61-17-133-32-214s-31-137-49-168c-14-25-32-43-54-56-21-13-52-24-93-33M0 301v22h390l53 58h13l65-63v-17H0Z"/></symbol><symbol id="与_V" viewBox="0 0 1000 1000" data-size="20"><path transform="matrix(1 0 0 -1 86 1005)" d="M666 44c-13-13-29-22-47-29-17-7-35-12-53-15v2l1 6c0 16-5 30-15 42-9 12-21 22-36 31s-30 16-46 22c-16 5-30 10-43 14l3 13c24-6 48-13 72-21 25-8 49-12 74-12 19 0 37 7 55 21 18 13 30 28 37 45 2 4 4 14 7 31s5 38 8 63 5 52 8 80 5 55 7 81c3 26 5 48 6 67 2 19 3 33 4 40H208l-47-35-51 67 53 31 52 422c15-7 30-16 43-25 14-9 27-19 40-29l-38-45-16-124h447l52 54c7-5 16-13 28-24 13-10 25-20 36-30 12-10 19-18 21-25H242l-30-214h486l31 58c14-7 26-15 37-24s23-18 36-27l-40-49c-1-9-1-18-2-27s-1-19-2-28l-9-109c-1-23-3-49-6-77-2-27-6-55-12-83-5-28-13-54-24-78-10-24-24-44-41-60m-36 265H92l-10-2c-7-1-15-3-24-5s-18-4-25-6c-7-1-12-2-13-2L0 331h496l49 53c13-13 28-26 43-37 16-11 30-24 42-38Z"/></symbol><symbol id="丏_G" viewBox="0 0 1000 1000" data-size="21"><path transform="matrix(1 0 0 -1 48 968)" d="M0 886h785l47 51 70-59c2-2 2-5 2-8 1-8-2-12-9-12H461V638h279l35 45 67-51c7-6 8-12 2-18l-33-27V460c2-139-7-238-28-297-19-56-47-95-82-118-34-22-68-37-101-45-4 21-16 38-36 49-18 10-56 26-113 49l6 17c43-13 76-22 100-27 24-4 44-6 60-6s37 6 61 18c23 11 41 38 54 81 14 43 22 99 24 170H178l-45-41-61 50 37 30v355l86-33c10-6 9-12-2-20l-29-9V378h242v480H82c-14 0-33-4-57-9L0 886m461-276V378h295v232H461Z"/></symbol><symbol id="丏_H" viewBox="0 0 1000 1000" data-size="21"><path transform="matrix(1 0 0 -1 50 957)" d="M0 867c29-9 67-13 115-13h651l52 60c26-21 50-40 72-58 7-4 10-9 10-14 0-9-5-14-17-14H455V643h320l36 31c20-11 37-23 50-35 6-6 8-9 8-12 0-7-13-16-39-27-7-113-19-208-35-285-14-82-30-142-47-180-16-34-33-59-51-75-22-18-45-34-68-47-21-9-37-13-49-13 0 12-4 22-11 30-9 9-56 25-139 48l6 18c75-24 125-35 150-35 20 0 37 3 52 10 13 3 24 11 34 25 14 15 28 41 42 78 16 38 29 93 38 164 1 8 3 16 4 25H137c-6-6-13-9-22-9-17 0-25 7-25 23 0 8 0 19 2 33 1 13 2 24 2 35v203c0 35-2 60-4 77 32-5 58-11 79-20 7-3 11-8 11-14 0-7-3-11-9-13-8-7-18-10-30-10V389h267v439H115c-47-1-78-2-94-4L0 867m760-478c10 63 18 139 23 228H455V389h305Z"/></symbol><symbol id="丏_T" viewBox="0 0 1000 1000" data-size="21"><path transform="matrix(1 0 0 -1 46 956)" d="M91 553c0 100-1 158-5 176l54-12c28-6 42-14 42-23s-8-16-24-20l-20-6V412h267v417H112c-38 0-69-1-93-4L0 868c31-7 68-11 112-11h675l45 54 65-54c7-5 11-11 11-15 0-9-6-13-18-13H452V644h322l33 37 41-27c13-8 20-16 20-23 0-10-13-20-38-30-19-179-37-304-54-374-17-68-38-119-64-152-33-42-78-68-135-75 0 18-7 30-21 39-13 8-53 22-119 42l5 21c14-5 54-16 118-32 17-4 28-7 33-7 34 0 66 20 94 58 25 34 49 123 71 265H112c-14 0-21 7-21 22v145m669-141c12 99 18 167 20 206H452V412h308Z"/></symbol><symbol id="丏_J" viewBox="0 0 1000 1000" data-size="21"><path transform="matrix(1 0 0 -1 76 922)" d="m748 844 88-65v-19H461V603h272l27 40 68-42c13-8 19-15 19-21 0-7-6-12-19-17l-20-8c-1-15-4-52-8-110-9-128-22-221-38-280C733 55 687 0 623 0c-11 0-16 5-17 16-1 22-10 35-25 38l-81 16v18h162c26 40 44 94 54 161 6 39 11 82 14 128H191v-93l-62-11v407l77-11c11-2 17-6 17-13s-6-12-17-15l-15-6V404h207v356H12L0 787h703l45 57m-3-268H461V404h272c3 37 6 80 10 131l2 41Z"/></symbol><symbol id="丏_K" viewBox="0 0 1000 1000" data-size="21"><path transform="matrix(1 0 0 -1 61 947)" d="m763 849 46 44h11l58-51v-16H460V621h272l30 37h17l56-49v-15l-29-20v-70c0-127-3-225-10-292-6-67-20-116-42-147-25-35-66-56-125-65l-12 5-5 31-115 55 3 14 97-18c20-3 35-5 46-5 35 0 60 18 73 53 12 33 21 106 26 219H147l-17-29-70 43 13 28 18 310 98-25-2-14-36-13-16-278h261v450H0v23h763m-20-473v223H460V376h283Z"/></symbol><symbol id="丐_G" viewBox="0 0 1000 1000" data-size="21"><path transform="matrix(1 0 0 -1 45 958)" d="M0 866h803l39 51 64-61c2-2 4-3 4-5 0-8-4-12-12-12H488V663h221l41 51 61-61c4-2 6-6 5-9 0-5-2-8-7-8H488V450h252l31 43 69-51c4-2 6-5 6-9-1-2-4-5-10-8l-37-22c-7-91-14-164-22-216-8-51-22-89-43-115-19-24-55-49-107-72-6 30-20 51-43 63-21 10-59 25-111 44l9 17c50-13 88-22 114-26 25-4 49-4 70 0 20 2 35 14 45 34 9 21 18 59 25 115 7 57 12 115 14 176H195l-33-33-57 50c24 14 37 27 40 39l19 266c53-21 81-34 86-37 3-3 3-7 0-10-2-2-16-8-41-17l-20-231h247v389H82c-14 0-36-3-66-8L0 866Z"/></symbol><symbol id="丐_H" viewBox="0 0 1000 1000" data-size="21"><path transform="matrix(1 0 0 -1 50 957)" d="M0 867c29-9 67-13 115-13h651l52 60c26-21 50-40 72-58 7-4 10-9 10-14 0-9-5-14-17-14H455V643h217l51 60c26-21 50-41 73-59 6-4 9-8 9-13 0-9-6-14-16-14H455V436h320l36 31c20-11 37-23 50-35 6-6 8-9 8-12 0-7-13-16-39-27-7-73-18-136-32-187-14-53-28-93-44-118-14-23-30-39-48-48-19-13-40-24-60-32-19-5-35-8-48-8 0 12-4 22-12 30-9 9-61 25-156 48l6 18c85-24 143-35 171-35 17 0 32 2 46 7 11 2 21 7 30 16 13 8 25 24 38 48 15 24 26 59 34 104 13 43 22 101 28 174H106c-5-2-12-4-20-4-14 0-22 7-22 22 0 9 1 19 2 31 2 15 2 27 2 37v160c0 35-1 61-4 78 32-5 57-13 77-22 9-3 13-7 13-13s-3-10-9-13c-10-7-20-11-30-12V436h293v392H115c-47-1-78-2-94-4L0 867Z"/></symbol><symbol id="丐_T" viewBox="0 0 1000 1000" data-size="21"><path transform="matrix(1 0 0 -1 39 958)" d="M19 827 0 870c31-7 68-11 112-11h680l47 58 73-58c6-5 9-10 9-15 0-9-5-13-16-13H467V646h243l52 56 65-56c5-3 7-8 7-12 0-9-5-13-15-13H467V431h331l34 37 40-27c13-8 20-16 20-24 0-9-13-19-38-29-19-112-33-185-44-219-19-63-48-107-86-133-28-20-64-32-106-36 0 16-3 28-10 34s-31 15-71 27c-41 12-69 21-85 25l5 20c15-4 45-12 91-25 44-12 78-18 101-18 49 0 85 39 111 118 10 31 19 74 28 129 7 41 11 72 12 92H99c-1 0-3 0-7-1-1 0-2-1-3-1-13 0-19 4-19 12 0 4 0 8 2 14 9 32 15 58 19 77l27 161 4 47 3 18c0 1-1 4-1 7l53-11c28-7 42-14 42-22 0-11-8-18-25-21l-24-4-44-247h294v400H112c-38 0-69-1-93-4Z"/></symbol><symbol id="丐_J" viewBox="0 0 1000 1000" data-size="21"><path transform="matrix(1 0 0 -1 74 921)" d="M0 783h704l48 58 92-70v-16H460V590h154l48 56 84-65v-18H460V400h282l26 42 72-46c7-5 11-10 11-16s-5-11-14-14l-27-9c-11-88-24-153-37-196-21-69-48-115-79-136-23-17-47-25-71-25-7 0-11 6-14 18-3 11-6 19-11 23-5 5-13 8-25 11l-72 13v20h161c46 53 74 149 84 288H173l-11-74-66 3 53 378 80-23c13-3 19-8 19-14 0-7-6-12-19-17l-22-7-31-219h218v355H15L0 783Z"/></symbol><symbol id="丐_K" viewBox="0 0 1000 1000" data-size="21"><path transform="matrix(1 0 0 -1 84 944)" d="M0 837h708l46 50h15l62-55v-16H426V637h216l43 46h13l56-51v-16H426V429h293l38 35h15l57-57-3-14-29-15c-22-126-48-215-77-267-29-51-76-85-141-100-13-3-37-6-72-11l-12 6-5 36-99 41 4 15 112-17c12-1 18-2 19-2 65 0 110 23 137 69s50 132 69 259H136l-6-53-9-10-52-10-7 9 52 362 84-22v-13l-26-11-33-230h223v387H0v21Z"/></symbol><symbol id="丐_V" viewBox="0 0 1000 1000" data-size="20"><path transform="matrix(1 0 0 -1 80 983)" d="M720 46c-13-11-30-20-49-26s-38-10-58-13-39-5-56-7c0 23-3 40-9 52-5 12-14 22-26 29s-28 15-47 23l3 8c15-4 33-10 54-18s39-12 54-12c26 0 48 4 66 11s34 22 48 46c8 13 14 34 19 61s8 57 10 89c3 33 5 63 6 92s2 53 3 70H98c1 0-2-1-9-3-7-1-15-3-24-5s-17-4-24-6-11-3-12-3L0 474h131v330l74-38c-1-1-2-5-5-12-2-7-5-16-8-25s-5-16-7-23l-3-10V474h187v418H138l-13-4-27-6c-9-2-14-3-15-4l-31 38h604l47 50 72-74H428V696h192l48 51 74-76H428V474h301l38 56c11-11 24-21 37-32 14-10 26-21 36-32l-40-46c-1-18-3-40-5-67-1-27-4-55-7-86-3-30-7-60-12-89s-13-55-22-78-20-41-34-54Z"/></symbol><symbol id="丑_G" viewBox="0 0 1000 1000" data-size="21"><path transform="matrix(1 0 0 -1 44 896)" d="m689 792 69-57c6-6 10-10 12-13 0-5-17-18-49-39L688 35h107l41 56 70-64c4-1 6-4 6-7-1-8-6-12-16-12H82C70 8 48 6 16 0L0 35h295l31 349H170c-15 0-34-3-57-8l-25 37h240l24 301H176c-14 0-34-3-61-8l-17 35h548l43 51M348 35h285l21 349H377L348 35m31 378h275l16 301H404l-25-301Z"/></symbol><symbol id="丑_H" viewBox="0 0 1000 1000" data-size="21"><path transform="matrix(1 0 0 -1 28 928)" d="M121 820c24-6 60-9 108-9h417l51 44c22-19 41-39 56-58 3-4 5-8 5-12 0-6-7-12-20-18-9-4-18-8-27-11l-23-297h126l47 55c26-18 51-36 74-55 5-2 8-5 8-10 0-11-4-17-13-17H686L655 31h138l51 57c26-20 50-38 73-56 6-4 9-9 9-14 0-11-6-16-18-16H125C79 1 47 1 29 0L12 41c28-6 65-10 113-10h113l58 401H111c-45-1-76-2-93-4L0 471c28-8 65-12 111-12h189l46 326H229c-52 0-83-1-92-4l-16 39M287 31h314l36 401H343L287 31m60 428h292l29 326H391l-44-326Z"/></symbol><symbol id="丑_T" viewBox="0 0 1000 1000" data-size="21"><path transform="matrix(1 0 0 -1 29 929)" d="M328 792h-91c-38 0-69-2-93-4l-19 43c30-8 67-11 112-11h448l33 37 41-26c13-9 19-17 19-24 0-9-12-19-38-30l-28-333h102l52 53 69-53c5-4 8-9 8-14 0-10-5-15-15-15H710L681 32h90l51 58 73-58c6-4 9-9 9-14 0-9-6-14-17-14H155c-38 0-69-1-93-4L42 43c31-7 69-11 113-11h66l55 383H112c-38 0-69-1-93-4L0 454c31-7 68-10 112-10h166l50 348m47 0-48-348h336l29 348H375M627 32l32 383H323L269 32h358Z"/></symbol><symbol id="丑_J" viewBox="0 0 1000 1000" data-size="21"><path transform="matrix(1 0 0 -1 43 900)" d="M12 390 0 418h292l38 309H101l-9 27h529l35 46 76-53c9-7 14-13 14-18 0-6-4-10-13-13l-27-8-16-290h93l53 64 78-73v-19H688L672 28h82l59 65 82-71V0H34L23 28h219l47 362H12M311 28h294l17 362H356L311 28m48 390h263l16 309H397l-38-309Z"/></symbol><symbol id="丑_K" viewBox="0 0 1000 1000" data-size="21"><path transform="matrix(1 0 0 -1 53 915)" d="M316 772H70v22h540l34 35h15l64-53-3-13-32-17-23-321h97l53 63h12l66-68 1-17H665L637 21h125l53 57h12l63-64V0H12v21h234l36 382H0v22h282l34 347m-4-751h261l24 382H347L312 21m37 404h250l22 347H382l-33-347Z"/></symbol><symbol id="丑_V" viewBox="0 0 1000 1000" data-size="20"><path transform="matrix(1 0 0 -1 75 961)" d="M850 11H92c-9 0-19-1-31-4S38 1 29 0L0 35h234l25 394H154c1 0-4-1-14-3-9-2-19-4-29-6-10-1-16-2-17-3l-28 34h196v404h-88l-15-3c-10-2-20-4-31-6s-17-3-18-4l-28 37h499l43 43 55-65-43-37V451h86l51 47 64-69H628V35h100l55 44 67-68M578 855H344l-28-404h262v404m-9-426H314L285 35h284v394Z"/></symbol><symbol id="丒_G" viewBox="0 0 1000 1000" data-size="21"><path transform="matrix(1 0 0 -1 33 914)" d="m699 784 33 43 65-43c4-2 7-6 8-12 0-1-11-9-32-23-3-168-7-295-11-381-2-86-14-147-35-183s-62-61-122-77c-5 27-19 45-41 55-20 10-52 23-95 39l4 18c82-20 134-30 156-28 21 2 39 13 53 34 13 19 22 71 27 156 4 83 7 209 10 377H467c-6-113-18-199-35-258 56-34 97-63 123-86s42-45 49-64c5-20 3-36-4-47-9-12-19-17-32-14-11 2-22 13-31 33-10 20-24 41-43 63-17 21-43 45-76 70-25-69-65-134-119-195S173 147 84 103l-8 13c82 56 147 116 195 180 49 64 83 127 102 187-70 47-135 82-197 108l6 17c75-25 142-52 201-82 13 51 23 129 31 233H148c-20 0-37-3-50-8l-20 33h621M0 37h818l45 48 67-56c2-5 3-9 4-13 0-5-5-8-16-8H86C72 8 50 6 20 0L0 37Z"/></symbol><symbol id="丒_T" viewBox="0 0 1000 1000" data-size="21"><path transform="matrix(1 0 0 -1 33 918)" d="M646 31h147l55 64 76-62c7-5 10-10 10-15 0-9-5-14-16-14H112C74 4 43 3 19 0L0 43c30-8 67-12 112-12h525c-1 19-5 31-11 36-14 13-55 28-124 44l4 22c83-19 136-28 159-28 25 0 43 13 55 41 12 29 23 117 30 263 8 150 13 269 16 357H437c-5-105-15-195-30-271 76-50 114-91 114-122 0-7-3-13-7-18-5-7-12-10-19-10-12 0-28 14-49 41-14 19-31 38-52 59-27-85-67-158-121-217-52-59-121-110-208-155l-9 19c93 60 164 125 211 194 38 56 67 121 86 194-38 31-86 62-143 96l9 17c48-20 96-44 144-72 13 62 21 144 25 245H164c-29 0-54-1-75-4l-19 42c40-6 70-9 92-9h601l35 41 47-35c8-6 11-13 11-20 0-11-14-21-42-30l-2-72-4-96c-9-197-16-320-22-370-7-58-17-97-30-118-16-27-43-46-80-57-4-1-14-3-30-7Z"/></symbol><symbol id="丒_J" viewBox="0 0 1000 1000" data-size="21"><path transform="matrix(1 0 0 -1 65 916)" d="M0 27h712l57 74 100-78V0H9L0 27m67 93c121 94 214 199 281 315-31 27-64 51-99 72-19 11-50 28-93 52l8 15c71-22 141-52 209-91 22 47 38 82 47 104s24 65 46 129l83-46c7-3 10-8 10-14s-5-10-16-11l-25-2c-31-69-62-134-95-195 98-71 147-125 147-164 0-11-4-20-11-27-5-5-11-7-18-7-14 0-30 13-48 39-28 40-61 76-99 107-52-76-108-138-169-187-46-38-96-72-150-103l-8 14m5 641-9 26 628 1 30 43 73-51c7-5 10-10 10-16s-4-10-12-12l-26-7-9-275c-5-163-15-263-28-301-10-25-31-44-62-57-21-8-38-12-50-12-7 0-10 5-10 14 0 19-8 31-24 34l-91 20v17h171c18 41 29 142 33 301l7 275H72Z"/></symbol><symbol id="专_G" viewBox="0 0 1000 1000" data-size="21"><path transform="matrix(1 0 0 -1 46 965)" d="M80 741h279l47 191 76-27c9-2 13-6 14-12 0-4-3-7-8-8-23-4-37-16-43-37l-33-107h295l41 50 72-56c2-3 4-6 4-10 1-8-2-12-10-12H404l-41-146h430l41 52 70-58c2-3 4-6 4-10 0-8-4-12-13-12H355l-41-132h338l49 39c41-43 62-67 63-71 0-4-2-6-6-7-4-2-12-4-24-6-11-3-33-18-66-45-31-28-90-83-176-166 41-22 69-41 86-58 15-17 24-33 26-49 0-13-3-24-10-33-8-8-17-11-26-10s-19 9-29 26-24 34-43 50c-19 18-49 41-92 68-43 29-106 64-189 107l6 14c65-23 115-42 148-57 33-13 67-29 102-47 68 81 131 153 187 217H314l-35-31-56 59c19 9 36 19 50 29l32 103H82c-14 0-37-2-68-7L0 567h313l41 146H162c-12 0-33-2-64-8l-18 36Z"/></symbol><symbol id="且_G" viewBox="0 0 1000 1000" data-size="21"><path transform="matrix(1 0 0 -1 36 912)" d="m211 821 62-47h379l34 49 64-45c8-3 12-8 12-15 0-2-13-13-39-32V33h86l41 62 74-68c2-1 3-4 4-7-1-8-6-12-16-12H82C68 8 46 6 16 0L0 33h211v788m55-788h404v236H266V33m0 261h404v221H266V294m0 246h404v209H266V540Z"/></symbol><symbol id="且_H" viewBox="0 0 1000 1000" data-size="21"><path transform="matrix(1 0 0 -1 69 931)" d="m172 861 57-43h386l31 43c25-15 42-29 52-42 6-4 9-9 9-14 0-6-13-16-39-30V33h64l47 53c26-18 51-36 74-53 5-3 8-7 8-12 0-11-4-17-13-17H111C66 3 35 2 18 0L0 43c28-7 65-10 111-10h69v760c0 25-3 48-8 68m51-828h402v254H223V33m0 281h402v229H223V314m0 258h402v217H223V572Z"/></symbol><symbol id="且_T" viewBox="0 0 1000 1000" data-size="21"><path transform="matrix(1 0 0 -1 28 927)" d="m222 853 62-43h378l33 37 41-27c13-9 19-16 19-24 0-9-12-19-38-29V33h98l51 55 71-55c5-4 8-9 8-14 0-10-5-15-15-15H112C74 4 43 3 19 0L0 43c9-2 17-4 25-5 41-7 67-9 80-6 4 0 6 1 7 1h116v738c0 17-1 32-2 42-3 20-4 31-4 34v6m53-820h394v245H275V33m0 271h394v231H275V304m0 258h394v220H275V562Z"/></symbol><symbol id="且_J" viewBox="0 0 1000 1000" data-size="21"><path transform="matrix(1 0 0 -1 43 916)" d="M0 28h205v804l87-44h318l26 44 71-50c9-7 13-13 13-20 0-5-3-8-9-11l-25-9V28h69l50 66 108-78V0H15L0 28m271 233V28h347v233H271m0 28h347v224H271V289m0 471V541h347v219H271Z"/></symbol><symbol id="且_K" viewBox="0 0 1000 1000" data-size="21"><path transform="matrix(1 0 0 -1 52 905)" d="M678 724V22h89l51 58h15l63-62V0H0v22h213v785l69-27h322l27 30h15l61-48 1-14-30-24m-64 34H277V539h337v219m0-241H277V292h337v225m0-247H277V22h337v248Z"/></symbol><symbol id="且_V" viewBox="0 0 1000 1000" data-size="20"><path transform="matrix(1 0 0 -1 53 969)" d="M893 13H95c-10 0-22-2-35-5S35 2 25 0L0 35h210v900l-1 1h-1c0 1 0 1-1 1h3v-2c13-7 25-14 37-22 12-7 24-15 36-22h331l34 40 73-60-38-28V35h84l53 49 73-71M287 867l-17-9V595h352v272H287m335-295H270V293h352v279m0-302H270V35h352v235Z"/></symbol><symbol id="丕_G" viewBox="0 0 1000 1000" data-size="21"><path transform="matrix(1 0 0 -1 33 906)" d="M0 35h813l41 60 76-68c2-1 3-4 4-7 2-8-1-12-10-12H82C70 8 49 6 18 0L0 35m47 722h726l41 55 73-63c2-3 3-6 4-10 0-6-5-10-16-10H547c-20-31-49-74-88-126l76-24c3-3 4-7 2-14-1-2-14-6-39-13V208l4-104c0-10-8-19-23-27s-27-13-38-14l4 147v371c-66-85-132-159-199-221-64-61-143-119-236-173l-8 13c88 67 159 126 213 180 53 53 101 107 146 164s87 118 127 185H125c-10 0-31-2-62-7l-16 35m529-250 8 14c80-36 145-69 193-100 49-29 78-55 88-78 10-24 12-43 6-59-6-15-16-23-29-23-14-1-26 10-35 33-8 22-20 42-36 60-15 18-35 38-60 59-23 22-68 53-135 94Z"/></symbol><symbol id="丕_H" viewBox="0 0 1000 1000" data-size="21"><path transform="matrix(1 0 0 -1 31 920)" d="M16 796c28-8 66-12 114-12h651l49 56c27-20 52-39 75-58 6-3 9-7 9-11 0-10-5-14-17-14H548c-15-37-32-70-51-100-4-6-8-11-13-17 54-30 100-60 140-91 46-35 81-67 105-95 27-26 45-47 56-64 10-13 17-27 21-41 3-13 5-24 5-34 0-14-6-21-18-21-7 0-14 3-22 8-8 4-21 19-39 45-22 36-48 70-76 100-26 33-56 66-90 97-27 25-57 50-89 73V159c0-15 0-25 1-30v-28c0-23-10-34-30-34-17 0-25 6-25 18 0 13 1 31 3 53s4 41 4 58v371l-7-8c-31-35-66-69-107-103-38-30-78-59-119-87-43-25-99-52-168-83l-13 23c66 29 122 59 169 89 47 32 92 68 134 109 46 43 84 88 114 134 24 39 43 78 57 116H130c-46-1-78-4-95-7l-19 46M0 46c29-8 67-12 114-12h683l52 61c28-22 54-42 79-62 6-4 10-8 10-12 0-10-6-14-18-14H114C68 6 36 3 20 0L0 46Z"/></symbol><symbol id="丕_T" viewBox="0 0 1000 1000" data-size="21"><path transform="matrix(1 0 0 -1 29 920)" d="M468 32h335l54 63 77-62c5-4 8-9 8-14 0-10-4-15-14-15H112C74 4 43 3 19 0L0 43c29-8 66-11 112-11h341c-9 2-14 7-14 15v522c-75-79-145-139-209-181-49-31-113-65-194-103l-12 21c120 53 220 120 300 199 83 81 139 164 170 249H138c-38 0-69-1-94-4l-18 42c32-6 69-9 112-9h649l47 58 62-49c13-10 20-17 20-23 0-10-6-15-17-15H555c-18-39-40-79-68-121 117-54 218-117 301-189 69-60 103-101 103-124 0-9-3-17-8-23-6-7-12-10-20-10-9 0-19 4-29 13-5 4-18 21-42 52-73 97-175 183-305 260V154c1-8 1-24 2-47 1-11 1-17 1-18 0-14 0-23 1-25 0-5 1-9 1-11 0-10-8-17-24-21Z"/></symbol><symbol id="丕_J" viewBox="0 0 1000 1000" data-size="21"><path transform="matrix(1 0 0 -1 61 899)" d="M0 225c64 32 136 80 215 143 79 62 144 123 195 182v66l38-22c32 33 62 73 90 119H42l-14 28h701l49 58 84-68v-18H614l19-14c5-4 7-8 7-12 0-6-5-9-16-10l-23-2c-29-32-49-55-59-68s-29-33-58-60c91-30 174-71 248-122 75-53 112-94 112-125 0-9-3-17-10-23s-15-9-25-9c-7 0-13 1-17 4-9 6-21 19-35 38-71 90-165 162-281 216V72l-66-9v411C297 367 163 279 9 210l-9 15M21 28h712l53 63 92-75V0H38L21 28Z"/></symbol><symbol id="丕_K" viewBox="0 0 1000 1000" data-size="21"><path transform="matrix(1 0 0 -1 55 884)" d="M406 534v45l21-11c19 29 44 71 75 128H2v24h742l46 47h15l60-54v-17H545l58-34-7-15h-34c-11-18-19-29-22-32l-34-52-31-45c189-73 311-134 364-182 26-24 39-51 39-80 0-24-7-36-22-36-9 0-21 10-36 29-29 37-79 79-148 126-69 48-136 90-201 126V62l-7-13-46-15-12 6v391c-72-75-137-135-194-179S87 166 8 125l-8 9c92 67 167 129 226 186 59 58 119 129 180 214M3 0 2 24l762-1 51 53h13l61-60 1-16H3Z"/></symbol><symbol id="丕_V" viewBox="0 0 1000 1000" data-size="20"><path transform="matrix(1 0 0 -1 80 964)" d="M458 568V80c-8-5-14-9-18-14-3-5-7-8-12-11s-13-4-26-4v470C283 432 153 361 14 309L0 322c31 14 65 31 101 51 37 20 73 42 110 66 37 25 72 49 105 74s62 50 86 74v191l81-27c-3-7-7-18-12-32-5-13-9-27-12-41s-3-26-1-35c33 31 60 66 82 103s44 75 67 113H164c-11 0-23-2-36-5s-25-5-36-7l-17 33h629l57 48 77-69H607l82-38c-2-1-4-3-5-4s-3-2-4-3l-18-12c-1-1-2-2-4-3-1-1-3-3-5-4l-13-17c-9-11-19-23-31-38-11-15-22-28-32-41s-16-20-18-23c-16-19-33-37-50-55s-34-36-51-53m380-210c0-23-12-34-36-34-9 0-20 6-33 17-12 12-24 25-35 39-11 15-19 25-25 32-13 16-30 32-51 47-20 15-41 29-62 42s-41 25-59 35l7 9c13-4 32-10 55-19 24-8 50-18 77-30s53-25 78-40 45-30 60-47c16-17 24-34 24-51m1-342H120l-10-2c-7-2-15-4-25-6-9-2-18-4-25-5-7-2-11-3-12-3L24 37h673l54 50 88-71Z"/></symbol><symbol id="世_G" viewBox="0 0 1000 1000" data-size="21"><path transform="matrix(1 0 0 -1 37 950)" d="M0 610h164v231l86-39c4-3 5-5 4-8 0-2-1-5-2-8-2-2-14-8-37-17V610h203v284l86-32c2-2 3-6 4-11 0-2-13-9-39-20V610h217v289l84-33c7-4 9-8 3-12 0-1-12-8-37-19V610h88l33 51 61-55c12-13 11-21-4-23H736V321l4-82c0-10-7-18-19-25-12-8-24-12-35-12v67H469v-32c0-9-6-18-18-25-10-8-22-12-37-12l4 119v264H215V64h560l41 52 73-63c1-2 2-5 2-10 0-4-3-6-8-6H223L178 0l-57 64c18 8 33 18 43 30v489H84c-14 0-35-3-64-8L0 610m469-316h217v289H469V294Z"/></symbol><symbol id="世_H" viewBox="0 0 1000 1000" data-size="21"><path transform="matrix(1 0 0 -1 32 929)" d="M0 590c28-8 65-12 111-12h47v193c0 35-1 61-4 79 39-6 70-14 94-23 9-2 14-7 14-13 0-7-5-11-14-13-13-7-27-11-41-12V578h211v201c0 34-1 60-4 78 37-4 68-12 92-22 8-4 12-8 12-13 0-6-4-10-12-12-13-8-27-12-41-13V578h211v201c0 34-2 60-4 78 36-4 66-12 92-22 7-4 11-8 11-13 0-6-4-10-11-12-12-8-26-12-41-13V578h82l49 59c26-19 51-38 75-58 4-3 7-6 7-11 0-11-5-17-14-17H723V286l21-15c4-2 6-5 6-9 0-11-3-16-10-16H467c1-10 2-19 2-27 0-20-11-30-33-30-15 0-22 5-22 14 0 15 1 33 2 54 1 23 2 43 2 61v233H207V90c0-14 1-23 2-28 1-13 2-22 2-29h564l53 57c25-18 49-37 71-56 6-4 9-8 9-13 0-11-5-17-15-17H195c-4-3-9-4-15-4-17 0-26 6-26 18 0 13 1 30 2 52 2 23 2 43 2 59v422h-47c-45-1-76-2-93-4L0 590m465-315h211v276H465V275Z"/></symbol><symbol id="世_T" viewBox="0 0 1000 1000" data-size="21"><path transform="matrix(1 0 0 -1 24 928)" d="M19 547 0 590c35-7 72-11 112-11h51v192c0 37-1 63-4 78l53-12c28-6 42-14 42-23s-8-16-24-20l-19-4V579h211v200c0 37-1 63-4 77l53-11c28-6 42-14 42-23s-8-16-24-20l-20-6V579h211v200c0 36-2 62-5 77l54-11c28-6 42-14 42-23s-9-16-25-20l-19-6V579h104l46 53 65-53c7-5 10-10 10-16 0-8-5-12-13-12H727V271l22-16c3-2 4-6 4-11 0-8-2-13-7-13H469v-33c0-6-3-12-9-18-4-4-11-6-20-6-15 0-22 7-22 20 0 11 1 27 2 48s2 41 2 61v248H211V32h578l47 54 60-54c9-9 14-15 14-18 0-7-4-10-12-10H198c-4-3-10-4-15-4-16 0-24 6-24 19 0 12 1 31 3 59 1 17 1 34 1 51v422h-51c-38 0-69-1-93-4m450-287h211v291H469V260Z"/></symbol><symbol id="世_J" viewBox="0 0 1000 1000" data-size="21"><path transform="matrix(1 0 0 -1 47 940)" d="M16 585 0 613h160v255l85-10c16-2 24-6 24-13s-6-11-18-14l-24-6V613h161v266l86-7c15-1 22-6 22-15 0-7-6-12-18-15l-26-7V613h183v259l83-6c17-1 26-6 26-15 0-8-8-14-24-18l-21-6V613h63l50 57 93-66v-19H699V258l-64-8v79H452V220l-64-10v375H227V133h512l52 59 95-70v-17H227V11L160 0v585H16m436-228h183v228H452V357Z"/></symbol><symbol id="世_K" viewBox="0 0 1000 1000" data-size="21"><path transform="matrix(1 0 0 -1 53 918)" d="M0 557v25h155v253l97-20v-13l-33-15V582h164v253l91-20v-13l-26-15V582h166v253l92-20v-13l-28-15V582h88l52 55h13l62-62v-17H678V269l-7-15-48-13-9 7v36H448v-33l-5-13-48-15-11 7-1 328H219V96h530l51 51h13l58-59V73H219V27l-7-13-48-14-9 6v551H0m614-250v251H448V307h166Z"/></symbol><symbol id="世_V" viewBox="0 0 1000 1000" data-size="20"><path transform="matrix(1 0 0 -1 48 998)" d="m810 100 76-70H197L147 0l-47 74 51 33v523H83c-9 0-19-2-31-5s-23-6-32-7L0 654h151v321l80-39c-1-1-2-7-5-17s-6-21-9-33-5-23-8-32l-3-13V654h174v295l79-30c-1-1-2-7-5-17-2-10-5-21-8-34-3-12-5-23-8-33l-3-14V654h188v341l75-38c-1-1-2-7-5-16-2-9-4-20-7-31s-5-21-7-30l-3-12V654h110l49 49 69-73H676V350h1v-67l-55-15v58H451l-56-52-57 52 42 35v269H206V59h564l40 41M623 630H435V350h188v280Z"/></symbol><symbol id="丗_G" viewBox="0 0 1000 1000" data-size="21"><path transform="matrix(1 0 0 -1 27 960)" d="M705 558v330l88-31c6-6 5-10-4-14l-31-13V558h78l41 49 64-58c7-10 6-16-3-18H758V129l4-78c0-9-5-18-14-27-10-6-24-12-43-17v60H217V38c0-9-7-17-20-26-13-8-26-12-37-11l4 108v422H59c-8-1-19-4-34-10L0 558h164v324l76-31c10-6 12-11 6-15l-29-16V558h221v362l89-30c6-7 4-12-4-15l-33-12V558h215M217 94h221v437H217V94m273 0h215v437H490V94Z"/></symbol><symbol id="丗_T" viewBox="0 0 1000 1000" data-size="21"><path transform="matrix(1 0 0 -1 27 926)" d="M240 475h204v252c0 37-1 63-4 78l57-12c28-6 42-13 42-22 0-10-8-16-24-21l-21-5V475h203v302c0 36-1 61-4 75l59-12c28-6 42-13 42-22 0-10-8-16-24-21l-21-5V475h29l52 52 59-48c7-7 11-14 11-21s-5-11-14-11H749V32h64l51 58 73-57c6-4 8-9 8-16 0-9-4-13-14-13H113C76 4 44 3 19 0L0 43c31-7 68-11 113-11h75v415h-9c-36 0-67-1-95-3l-19 43c32-8 69-12 114-12h9v302c0 36-1 61-3 75l59-12c28-6 42-13 42-22 0-10-8-17-25-21l-21-5V475m0-28V32h457v415H494V226c0-43 2-77 5-103 1-10 1-18 1-24 0-15-9-23-27-23-9 0-17 3-23 9-4 4-6 7-6 11v351H240Z"/></symbol><symbol id="丗_J" viewBox="0 0 1000 1000" data-size="21"><path transform="matrix(1 0 0 -1 49 930)" d="M0 617h155v243l76-11c18-3 27-7 27-13s-6-12-19-19l-18-10V617h199v243l77-13c13-2 20-6 20-13 0-6-7-12-20-19l-16-8V617h196v243l68-9c23-3 34-9 34-18 0-5-7-11-22-18l-16-8V617h33l45 57 83-63v-20H741V18l-64-4v68H221V5l-66-5v591H13L0 617m221-508h199v482H221V109m260 0h196v482H481V109Z"/></symbol><symbol id="丗_M" viewBox="0 0 1000 1000" data-size="21"><path transform="matrix(1 0 0 -1 33 936)" d="M0 597c29-8 67-12 114-12h50v209c0 34-2 60-6 78 38-4 70-12 95-22 8-4 13-9 13-15 0-7-5-10-13-12-12-7-26-11-42-12V585h222v212c0 21-2 37-5 48 33-5 60-13 82-22 8-4 11-9 11-15 0-7-3-11-9-13-8-4-19-8-32-12V585h211v209c0 34-2 60-5 78 37-4 69-12 94-22 9-4 13-9 13-15 0-7-4-10-13-12-12-7-26-11-42-12V585h51l49 57c27-20 52-39 75-59 6-3 9-7 9-12 0-9-6-13-17-13H738V34h55l52 61c28-21 54-42 79-62 6-4 10-8 10-12 0-10-6-14-18-14H114C68 6 36 3 20 0L0 46c29-8 67-12 114-12h50v524h-50c-46-2-78-4-94-7L0 597M691 34v524H480V186c0-18 1-30 2-37v-33c0-14-10-21-30-21-15 0-23 9-23 26l4 58v379H211V34h480Z"/></symbol><symbol id="丘_G" viewBox="0 0 1000 1000" data-size="21"><path transform="matrix(1 0 0 -1 42 908)" d="M693 735c-39-4-89-11-152-21-61-10-158-22-291-37V466h516l41 56 66-66c2-3 3-6 4-10-1-4-4-7-10-8H605V35h196l43 56 68-62c2-2 3-5 4-9 0-8-5-12-14-12H82C68 8 45 6 14 0L0 35h197v724l59-53c117 20 213 37 287 53 75 15 140 34 195 56 42-44 62-69 61-72l-4-8c-3-2-7-2-14 0-6 2-12 4-19 6s-30 0-69-6M250 35h303v403H250V35Z"/></symbol><symbol id="丘_H" viewBox="0 0 1000 1000" data-size="21"><path transform="matrix(1 0 0 -1 28 929)" d="M771 793c-91-27-190-48-297-62-73-15-152-24-238-29l-4-13V479h518l51 56c26-19 50-38 73-56 6-3 9-8 9-14 0-9-6-14-18-14H662V33h143l52 61c28-20 53-40 78-60 5-4 8-8 8-13 0-11-4-17-13-17H111C66 3 35 2 18 0L0 43c28-7 65-10 111-10h75v660c0 24-1 41-2 51l44-23c125 15 241 37 349 65 75 22 131 45 167 71 34-18 60-34 78-47 7-4 10-9 10-13 0-7-5-11-14-12-3 0-8 1-16 4-7 3-17 4-31 4M232 33h379v418H232V33Z"/></symbol><symbol id="丘_T" viewBox="0 0 1000 1000" data-size="21"><path transform="matrix(1 0 0 -1 26 934)" d="M230 701V478h522l47 54 69-54c6-5 9-10 9-15 0-9-5-14-16-14H645V29h176l52 60 66-57c6-5 9-10 9-14 0-10-5-14-14-14H112C74 4 43 3 19 0L0 43c30-7 68-11 112-11h69v669c-1 31-3 49-5 52l58-25c134 23 236 45 307 66 78 23 138 48 178 74l55-55c6-5 8-10 8-14 0-8-4-11-12-11-4 0-19 4-44 12-14-4-25-8-32-9-99-30-178-50-235-60-50-9-127-19-229-30m0-672h366v418H230V29Z"/></symbol><symbol id="丘_J" viewBox="0 0 1000 1000" data-size="21"><path transform="matrix(1 0 0 -1 43 919)" d="M10 0 0 28h181v737l80-41c149 28 286 66 412 113l70-62c5-5 8-11 8-16 0-8-4-12-12-12-4 0-8 1-13 2l-30 9c-191-31-340-52-447-62V473h462l50 68 88-76v-20H630V28h143l53 71 87-74V0H10m239 445V28h315v417H249Z"/></symbol><symbol id="丘_K" viewBox="0 0 1000 1000" data-size="21"><path transform="matrix(1 0 0 -1 55 911)" d="M0 0v23l174 1 1 693 66-28c87 14 161 31 223 50 63 19 131 47 206 83l69-68-7-11-44 6c-75-24-144-42-206-53s-143-21-243-30V463h477l51 52h13l60-59v-17H636V24h116l58 63h12l67-70 1-17H0m239 24h332v415H239V24Z"/></symbol><symbol id="丘_V" viewBox="0 0 1000 1000" data-size="20"><path transform="matrix(1 0 0 -1 81 965)" d="M837 13H79l-15-3c-9-2-19-4-29-6-9-2-15-3-16-4L0 34h176v798l62-34c13 3 33 7 60 14s56 15 88 24c33 10 65 20 96 31s58 22 81 33 39 21 46 30l51-77c-23-1-46-4-69-9-23-4-46-8-69-13-3-1-6-1-9-2-3 0-5 0-8-1l-36-7c-3-1-5-1-8-2-3 0-6 0-9-1l-140-27c-3-1-6-1-9-2-3 0-5 0-8-1l-36-7c-3-1-5-1-8-2-3 0-6 0-9-1 0-1-1-5-3-13-2-7-4-15-7-22l-3-10V496h443l57 49 70-71H565V34h147l57 52 68-73M512 474H229V34h283v440Z"/></symbol><symbol id="丙_G" viewBox="0 0 1000 1000" data-size="21"><path transform="matrix(1 0 0 -1 42 940)" d="M0 823h797l43 57 72-63c2-2 3-5 4-9 0-9-6-13-18-14H479V632h269l37 41 55-43c6-3 9-6 10-10-1-6-12-16-34-31V103c2-23-2-42-13-58-10-16-32-31-65-45-8 27-21 46-41 55-18 10-54 23-109 40l4 17c66-13 106-21 121-23 15-1 27-1 37 2 10 2 15 12 16 29v486H477c-2-50-5-88-10-113 43-25 76-45 99-62 24-17 47-36 71-57 23-21 37-41 45-59 7-17 9-31 6-43-3-11-8-20-16-25-7-6-15-8-26-4-9 3-18 18-27 43-9 26-26 54-51 86-25 31-61 64-107 98-12-60-40-114-84-162-45-49-107-91-188-127l-5 15c48 28 99 71 154 129 54 57 84 151 90 281H162V142l4-101c1-8-6-15-21-21-16-6-28-10-38-10l4 136v531l55-45h262v162H82c-12 0-33-2-64-6L0 823Z"/></symbol><symbol id="丙_H" viewBox="0 0 1000 1000" data-size="21"><path transform="matrix(1 0 0 -1 34 948)" d="M0 850c28-10 65-14 111-14h686l49 60c27-20 53-40 78-59 5-3 8-8 8-13 0-9-5-13-14-13H479c-1-54-3-103-7-146-1-9-2-18-3-26h315l27 37c23-13 40-27 51-41 6-5 9-10 9-14 0-5-13-16-39-31V94c0-21-6-38-18-50-8-10-20-18-37-24-13-8-24-12-35-12 0 16-4 27-13 32-8 9-24 16-47 23-24 7-52 11-82 11v26c54-12 104-18 150-18 14 0 24 2 29 6 7 3 10 12 10 27v492l-1 4H467c-4-28-9-53-15-75-4-11-7-22-11-34 46-25 86-50 120-76 38-25 67-47 87-66 21-18 37-33 48-44 9-13 15-24 20-34 3-10 5-20 5-32-1-14-6-21-14-21-9 0-17 2-23 6-7 5-23 26-49 63-25 38-53 71-83 100-28 28-66 59-114 93-7-25-15-48-24-69-18-37-37-68-56-95-22-29-49-56-82-79-28-23-61-43-98-59l-10 18c53 29 92 58 118 87 24 26 45 57 65 92 20 36 36 75 46 116 11 30 18 66 23 109H135l-2-7V14c0-9-7-14-22-14-5 0-11 2-19 6-7 6-10 14-10 23 0 11 1 26 2 45 4 15 6 46 6 94v439c0 26-3 47-8 65l47-33h294c3 41 5 98 5 172H111c-45-1-76-2-93-4L0 850Z"/></symbol><symbol id="丙_T" viewBox="0 0 1000 1000" data-size="21"><path transform="matrix(1 0 0 -1 27 950)" d="M476 627c-4-28-10-54-17-77 91-52 154-94 190-125 57-50 85-90 85-120 0-18-8-27-25-27-7 0-14 3-21 10-4 4-14 19-32 46-26 41-57 78-93 113-14 12-50 42-109 88-25-70-60-126-105-169-40-38-99-74-177-106l-8 19c87 47 148 95 183 144 36 52 63 120 79 204H144V21c0-14-9-21-28-21S88 7 88 22c0 1 1 6 2 15 5 38 8 81 8 130v464c-1 28-4 50-8 67l57-45h282c5 39 8 93 9 162H112c-35 0-66-1-93-3L0 854c31-7 68-11 112-11h707l41 57 76-57c6-5 9-10 9-15 0-9-5-13-15-13H487c0-64-3-118-8-162h307l33 37 41-26c13-9 20-17 20-24 0-9-13-19-38-30V89c0-25-9-46-28-62-11-10-33-18-66-24-1 19-9 32-24 40-20 12-59 20-118 26v25c62-12 109-18 144-18 18 0 30 3 36 9 5 5 7 17 7 34v508H476Z"/></symbol><symbol id="丙_J" viewBox="0 0 1000 1000" data-size="21"><path transform="matrix(1 0 0 -1 51 944)" d="M11 801 0 829h764l45 59 89-64v-23H474V615h264l29 52 82-52c7-4 10-9 10-16s-6-12-17-15l-29-7V68c0-20-14-36-41-49-23-11-39-16-50-16-5 0-10 2-13 6s-5 14-8 30c-1 9-4 15-8 17-3 2-16 4-37 6l-44 4v23h135v498H472c-3-34-7-64-13-89 76-37 134-73 174-109 57-49 85-92 85-129 0-13-4-23-11-31s-15-12-26-12-23 12-34 36c-12 29-40 69-84 120-38 44-75 78-111 103-30-127-122-225-275-294l-8 17c71 43 127 95 166 156 44 69 68 146 71 232H151V10L86 0v653l82-38h240v186H11Z"/></symbol><symbol id="丙_K" viewBox="0 0 1000 1000" data-size="21"><path transform="matrix(1 0 0 -1 61 926)" d="M1 803h752l47 49h14l63-56v-16H461c-1-45-4-95-7-151h271l29 31h14l57-50v-13l-26-23V147c0-46-6-76-19-90-12-15-43-27-92-38l-11 8v33l-94 34 1 15 98-6c23-1 37 1 43 8 7 7 10 22 10 46v448H451c-5-37-12-68-19-93 77-33 137-64 180-93s65-60 65-94c0-29-7-44-20-44-11 0-24 11-37 32-43 67-108 127-195 179-32-68-70-123-115-164-44-41-104-78-179-109l-8 11c152 90 240 215 264 375H111V20l-7-10L57 0 47 6v661l75-38h268c4 40 6 81 6 123 0 13 0 23-1 28H0l1 23Z"/></symbol><symbol id="丙_V" viewBox="0 0 1000 1000" data-size="20"><path transform="matrix(1 0 0 -1 68 990)" d="M154 659V36c-5-7-11-14-19-23S118 0 109 0c-7 0-11 1-14 4v753l81-54h222v199H104l-11-3c-7-1-16-3-25-6-9-2-18-4-26-6-7-2-12-3-13-3L0 925h735l55 54 74-77H457l26-13-26-66V703h228l34 51 78-61-34-42V141c0-26-2-46-6-61-3-15-11-28-22-39s-27-24-49-39c0 20-5 36-16 47-10 11-23 20-39 27-16 6-33 11-50 15s-33 8-47 13v10c33-6 67-9 102-9 17 0 33 3 48 10s22 20 22 41v522H457c-1-47-5-94-12-141 21-13 43-30 68-49s48-41 71-65 41-49 55-75c15-26 22-52 22-79 0-9-3-20-9-32-6-11-15-17-26-17s-18 4-23 13c-7 10-13 24-19 43-5 19-10 34-13 45-11 39-27 76-50 111-22 35-48 65-79 92-8-54-24-105-47-152s-54-88-93-123c-39-34-85-59-139-76 61 37 108 82 141 135s57 112 71 175 22 128 23 195H172l-18-19Z"/></symbol><symbol id="业_G" viewBox="0 0 1000 1000" data-size="21"><path transform="matrix(1 0 0 -1 45 920)" d="m342 839 86-33c8-7 7-12-2-16l-35-14V35h150v806l84-31c5-2 8-6 8-12l-6-6-37-16V35h209l39 52 68-58c2-2 4-5 4-9 0-8-4-12-14-12H82C70 8 49 6 18 0L0 35h342v804m455-369c-36-60-97-149-184-268l-15 14c75 116 150 254 224 414 47-24 72-39 74-43 3-3 4-7 2-10 0-4-3-6-11-8-7-2-14-4-22-7s-31-34-68-92M70 614l12 10c42-46 78-94 107-145 28-50 47-91 55-123 8-31 10-57 6-78-3-20-9-32-20-37-9-5-18-5-27 0-8 5-12 18-14 39 0 21-2 45-7 73-6 27-18 64-36 111-17 45-42 95-76 150Z"/></symbol><symbol id="业_H" viewBox="0 0 1000 1000" data-size="21"><path transform="matrix(1 0 0 -1 41 901)" d="M319 802c38-5 70-13 95-24 8-2 12-7 12-12 0-7-4-11-12-13-12-7-26-11-42-13V33h160v687c0 34-2 60-6 78 38-5 70-13 95-24 8-2 12-6 12-12 0-7-4-11-12-13-13-7-27-11-42-13V33h207l48 57c27-20 52-40 76-59 5-3 8-7 8-11 0-9-5-13-16-13H115C68 6 36 3 19 0L0 46c29-9 67-13 115-13h210v691c0 34-2 60-6 78M73 587c41-55 73-110 98-165 21-37 37-78 50-122 9-31 14-59 14-84 0-9-2-18-6-28-8-7-15-11-21-11s-12 1-18 5c-6 6-9 14-9 24-10 89-24 156-41 201-15 48-42 104-81 169l14 11m710 30c33-12 63-23 88-33 3-5 5-10 5-14 0-7-6-11-18-13-15-3-25-4-31-4-14-52-29-102-46-151-17-45-34-87-52-124-18-35-41-72-69-109l-19 12c22 40 42 79 58 116 12 32 24 67 37 105 11 39 21 76 30 111 7 30 13 65 17 104Z"/></symbol><symbol id="丛_G" viewBox="0 0 1000 1000" data-size="21"><path transform="matrix(1 0 0 -1 39 932)" d="M12 35h761l41 52 71-58c2-3 3-6 4-9-1-8-6-12-16-12H92C78 8 56 6 25 0L12 35m324 778c2-2 3-5 4-9 0-2-11-10-33-24-9-82-17-152-26-209 53-36 91-64 115-86 23-22 38-43 43-62 5-20 4-37-3-51-6-13-17-20-32-21-14-1-23 12-27 39s-16 54-35 82c-20 26-42 50-67 72-18-109-48-198-91-266C141 211 82 149 8 93l-8 15c59 56 105 116 141 178 35 61 60 124 76 192 15 66 27 188 37 367l82-32m318 18c7-3 9-6 6-10 0-4-2-6-8-8l-19-11c17-158 37-272 58-342 20-69 47-131 80-186 33-53 83-87 151-103v-20c-32 2-57 2-74-2-16-3-30-11-41-23-43 44-78 98-106 160-27 60-45 115-56 166-12 51-24 151-36 299-11-161-28-275-50-344-24-67-57-127-100-179-43-53-112-104-207-154l-8 15c77 54 136 107 178 160 41 51 72 115 94 191 21 76 37 217 47 424l91-33Z"/></symbol><symbol id="东_G" viewBox="0 0 1000 1000" data-size="21"><path transform="matrix(1 0 0 -1 50 953)" d="M21 749h293c26 44 51 96 77 156l70-39c8-3 11-8 10-15 0-2-5-4-16-6-16-4-29-14-41-30-12-15-26-37-43-66h408l45 61 72-67c2-2 4-6 4-10 0-7-5-11-15-11H355c-47-86-99-174-156-264h252v174l88-28c8-2 11-7 10-13 0-3-14-10-43-22V458h193l41 55 71-69c1-2 2-4 2-6 0-5-3-8-8-7H506V104c2-25-5-47-20-67-13-17-35-29-66-37-5 19-16 34-33 45-18 10-50 23-96 39l4 20c83-22 131-29 143-22 10 8 14 20 13 34v315H205l-33-32-59 63c32 12 54 29 69 53 41 63 80 132 117 207H104c-14-1-36-4-67-10l-16 37m266-465c-12-10-42-40-90-90C150 146 88 94 12 39L0 55c63 50 119 107 170 173 50 64 84 113 101 146 47-32 71-50 73-55 2-4 2-7 0-9-3-2-10-4-22-6-11-2-23-9-35-20m311 67c91-55 152-95 181-120 30-25 51-50 65-76 13-26 17-47 11-63-5-17-15-26-29-26-13 1-25 12-35 34-8 20-21 44-39 71-16 25-33 48-53 68-17 19-55 51-113 96l12 16Z"/></symbol><symbol id="东_H" viewBox="0 0 1000 1000" data-size="21"><path transform="matrix(1 0 0 -1 44 956)" d="M0 787c29-7 67-11 115-11h158c4 9 6 17 8 25 14 45 23 82 28 110 35-4 67-11 93-18 5-4 7-8 7-12 0-7-6-12-17-15-14-3-28-5-43-7-9-29-19-57-28-83h457l49 55c27-19 52-38 75-57 6-3 9-7 9-12 0-9-6-14-17-14H310c-15-40-31-78-48-115-26-59-52-115-78-166h270v139c0 38-2 64-6 79 36-6 68-14 96-26 7-2 11-6 11-11 0-7-5-12-13-14-12-4-26-7-42-10V467h196l46 53c25-19 48-38 69-55 7-4 10-8 10-12 0-8-5-13-16-13H500V87c0-23-5-39-15-50-9-11-23-20-40-26-14-7-27-11-38-11-4 18-11 30-20 37-6 6-16 12-29 17-20 8-43 12-68 13v25c39-9 75-14 107-14 23 0 38 2 45 5 8 3 12 13 12 28v329H170c-2-3-4-8-5-12-5-9-14-14-28-14-17 0-25 5-25 14l3 12c6 8 19 30 40 69 29 54 54 105 75 153 13 29 24 58 33 86H115c-47-1-79-3-96-6L0 787m236-427c32-9 61-20 86-32 5-4 7-7 7-11 0-7-4-12-13-15-15-4-29-6-41-6-14-24-29-46-46-67-18-22-38-45-60-68-18-21-38-39-59-55-19-16-44-34-75-51L16 69c32 22 59 44 81 68 25 26 49 54 70 84 22 29 40 60 55 92 7 14 12 30 14 47m430-7c40-25 75-51 105-77 32-28 56-52 73-74 19-21 32-38 39-51 6-11 12-21 15-32 2-10 3-19 3-27 0-14-6-21-18-21-5 0-10 2-14 6-6 3-15 15-28 36-16 29-33 56-53 80-19 26-40 51-63 76-23 23-48 46-76 68l17 16Z"/></symbol><symbol id="丝_G" viewBox="0 0 1000 1000" data-size="21"><path transform="matrix(1 0 0 -1 45 932)" d="M0 35h791l45 60 70-66c2-2 4-5 4-9 0-8-4-12-14-12H82C68 8 45 6 14 0L0 35m21 472c21 2 38 8 51 17 57 84 97 149 121 194 22 45 41 90 57 135 57-25 84-40 82-45-1-5-4-8-10-10-4-1-11-3-21-8-10-4-24-19-41-47-18-27-39-57-63-90-23-32-59-80-109-144l205 10c33 50 63 105 92 166 47-26 70-41 70-47 1-5-3-8-10-10-6-2-12-4-19-6-7 0-24-19-51-59-25-39-59-87-102-146-43-58-98-124-166-197l305 35 4-18c-80-14-143-25-189-33-45-8-79-16-100-23-22-8-39-18-51-30l-47 67c16 1 30 4 41 8 11 3 32 22 61 56 29 33 80 106 152 217-66-8-114-14-144-20-30-4-57-14-82-31l-36 59m393-2c21 2 39 8 55 17 60 90 101 159 123 206 21 45 40 91 56 136 56-24 84-39 84-45s-2-9-5-11c-4 0-12-2-24-6s-25-20-41-47-36-57-60-92c-24-34-63-88-118-162l202 8c37 58 65 111 85 158 49-25 73-41 75-47 0-4-3-8-10-10-6-2-12-4-20-6-7 0-24-18-48-54-25-36-58-80-102-133-43-53-98-116-166-189l316 25 4-20c-88-11-155-20-201-27-45-7-76-14-92-21-16-6-30-15-43-26l-45 72c10 4 20 8 30 10 7 2 25 18 54 51 30 33 81 98 153 197-66-6-112-11-139-17-27-5-53-15-78-32l-45 65Z"/></symbol><symbol id="丞_G" viewBox="0 0 1000 1000" data-size="21"><path transform="matrix(1 0 0 -1 32 917)" d="m738 835 53-51c8-7 13-12 14-15 0-5-4-8-12-8s-18-2-31-6c-13-5-48-22-104-51l-99-58c18-73 39-129 60-170 88 54 152 104 194 150l58-51c12-13 9-20-8-21-8 0-19-1-31-2s-32-9-61-26c-27-15-74-39-140-70 12-29 34-64 68-105 35-40 72-72 112-96 38-24 80-39 125-47v-18c-25 0-45 0-63-2-16-1-30-11-43-29-60 37-122 100-185 188-53 88-89 183-110 287l-25-16c8-4 13-8 13-12 0-2-9-11-29-27V159c1-24-8-44-27-60-20-17-38-27-55-32-6 28-20 47-43 57-22 9-54 20-96 31l4 18c62-12 97-18 108-20 11-1 23-1 37 0 14 2 21 14 19 35v463l45-21 194 137H186c-14 0-30-3-47-8l-24 33h574l49 43M51 575h209l41 47 58-53c6-2 8-7 8-13 0-3-4-6-13-10-18-4-28-14-32-29-16-72-38-132-66-180-27-48-61-92-102-133-41-40-90-76-146-109l-8 15c70 52 123 104 160 155 35 50 61 93 76 131 14 36 28 87 41 154H121c-14 0-31-2-49-6l-21 31M33 35h729l41 52 68-58c2-2 3-5 4-9 0-8-5-12-14-12H115c-11 0-33-2-64-8L33 35Z"/></symbol><symbol id="丞_H" viewBox="0 0 1000 1000" data-size="21"><path transform="matrix(1 0 0 -1 32 925)" d="M121 824c24-6 60-10 108-10h443l39 36c23-19 42-38 57-57 2-4 3-8 3-12 0-5-5-9-15-10-22-2-34-3-37-3-37-28-75-53-115-76-24-17-48-32-72-45 7-3 11-7 11-12 0-4-5-7-15-10-9-4-19-8-28-12v-46c26-46 56-87 89-122 3-5 6-9 9-12 24 16 44 30 60 42 21 16 41 33 60 51 17 16 33 33 46 51 13 16 24 34 33 52 49-31 74-50 74-59s-7-13-21-13c-7 0-17 1-32 4-20-21-45-40-72-60-25-19-50-35-75-48-20-13-40-24-61-33 28-27 57-54 87-80 43-31 84-59 124-82 42-20 80-35 115-45v-18c-36 0-61-10-75-31-39 19-76 41-108 65-38 28-70 58-96 90-30 30-60 62-89 97-21 27-44 60-68 99V113c0-22-6-39-17-51-7-12-19-20-36-25-6-2-10-4-13-6h367l49 57c27-20 53-38 78-56 5-4 8-9 8-14 0-10-5-14-14-14H125C79 3 47 2 29 0L12 43c28-8 65-12 113-12h289c-1 4-1 7-1 10-3 7-7 13-12 17-8 9-22 17-43 23-22 6-47 9-75 11v25c45-12 85-17 121-17 19 0 32 2 37 6 8 5 12 14 12 29v443c0 34-3 68-10 104 28-8 53-16 74-25 26 18 50 36 72 54 25 21 51 47 79 78H229c-52 0-83-1-92-4l-16 39M43 586c25-5 61-8 107-8h186l35 35c21-15 38-28 52-41 4-5 7-9 7-11 0-5-5-10-13-16-11-5-19-9-24-10-39-76-76-136-113-181-36-42-74-82-114-118-42-36-93-71-152-105L0 146c64 43 116 83 155 121 38 36 71 75 100 116 27 41 56 96 89 166H150c-51 0-82-1-93-4l-14 41Z"/></symbol><symbol id="丞_T" viewBox="0 0 1000 1000" data-size="21"><path transform="matrix(1 0 0 -1 27 928)" d="M438 30h373l49 60 78-57c5-4 8-9 8-15 0-10-5-14-14-14H127C91 4 62 3 39 0h-7L14 41c30-7 67-11 113-11h299c-4 21-11 36-23 43-10 7-36 14-77 21l3 23c55-9 88-14 98-14 19 0 28 9 28 28v439c-1 43-4 81-9 114l74-26c45 32 96 77 152 136H233c-39 0-70-1-94-4l-18 43c31-7 69-11 112-11h444l37 33 50-48c8-8 11-14 11-20s-5-10-15-11l-38-3c-71-55-134-96-187-124 7-3 10-8 10-13s-3-9-10-11l-33-11v-55c21-36 52-77 94-123 73 51 123 92 152 123 20 23 40 50 59 79l61-46c7-5 10-11 10-16 0-8-6-12-20-12-8 0-18 2-31 4-50-46-123-94-220-145 117-118 231-190 339-217v-19c-35-1-59-11-73-31-132 59-256 177-371 352V111c0-40-21-67-64-81M56 546l-19 43c32-7 69-10 112-10h189l31 35 52-41c8-6 12-12 12-16 0-12-14-19-41-21-51-95-107-173-169-234-56-54-127-106-213-155L0 167c40 22 85 53 133 94 88 76 157 172 209 289H149c-38 0-69-1-93-4Z"/></symbol><symbol id="丞_J" viewBox="0 0 1000 1000" data-size="21"><path transform="matrix(1 0 0 -1 54 909)" d="M0 142c53 41 108 104 165 189 53 81 88 145 105 191H43l-17 28h244l30 41 65-51c7-6 11-11 11-16 0-7-5-11-15-13l-23-6c-46-90-100-170-162-239-53-59-108-107-164-142L0 142M70 0 57 28h646l54 67 85-67V0H70m72 749-16 28h501l42 40 66-48c15-11 23-20 23-25 0-9-7-13-22-13l-49-2-197-106c1-3 2-6 2-9s-3-6-9-7l-16-4c11-25 25-51 43-80 23-36 46-66 69-91 71 70 136 137 196 200l61-52c10-9 15-17 15-22 0-6-4-9-13-8h-2l-29 2-214-135c81-93 180-164 299-213l-5-16c-28-3-49-18-63-46-33 19-69 45-107 78-75 66-134 133-178 200-21 34-43 73-66 118V130c0-23-13-40-38-53-20-10-38-15-53-15-8 0-13 8-14 23-1 10-3 18-6 23-4 6-18 11-41 16l-39 8v21h127v501l51-16 141 111H142Z"/></symbol><symbol id="丞_K" viewBox="0 0 1000 1000" data-size="21"><path transform="matrix(1 0 0 -1 61 901)" d="m283 122 3 13 78-8c2-1 7-1 15-1 17 0 28 3 32 9 5 6 7 18 7 36v402l39-10 123 185H111v22h467l38 32 13-1 66-64-4-16-39-5-176-161 36-11v-14l-26-13c36-62 71-114 106-155 86 75 155 139 207 193l70-67-9-11-30 7-223-139c84-86 174-148 271-187l-2-13c-17-3-29-8-36-13s-17-16-28-33c-80 49-144 102-192 157-48 56-94 131-137 226V151c0-34-7-58-20-71s-42-24-87-33l-10 7v33l-83 35M8 79 0 90c79 58 138 113 179 166s77 123 109 208H16v23h268l39 38h15l51-65-3-15-30-7c-42-87-90-159-143-214S91 121 8 79M22 0l1 23h702l53 55h11l63-61 1-17H22Z"/></symbol><symbol id="丞_V" viewBox="0 0 1000 1000" data-size="20"><path transform="matrix(1 0 0 -1 56 978)" d="M477 629V172c0-23-6-41-17-53-11-13-26-22-43-29s-35-13-52-20c0 22-5 40-16 53s-24 23-41 31c-16 8-33 15-50 22v14c17-6 37-12 58-19 21-6 41-9 59-9 9 0 18 2 29 7s16 12 16 23v572l57-21c13 10 30 23 51 39s40 33 59 50 33 33 41 46H283l-10-3c-7-1-15-3-24-5s-18-4-25-6c-7-1-11-2-12-2l-21 39h428l39 55c5-17 13-29 25-37s25-14 38-19c13-4 25-9 34-15 10-6 15-15 15-27-1-3-4-5-9-7s-9-3-12-4c-15-3-29-4-42-4s-27-2-41-7c-23-7-44-16-62-27s-35-22-52-35c-16-13-34-26-54-41l19-10-15-14c-3-1-5-4-6-9s-1-8-1-11c0-17 3-37 8-61 6-23 13-47 20-70s14-43 19-60c27 25 54 50 81 76 27 27 51 55 72 84 12-11 25-24 38-39 14-15 22-30 25-47-3 4-8 6-16 6-10 0-24-4-42-13-17-8-36-18-55-30s-38-24-55-35-30-20-39-26c19-38 45-74 78-107s70-61 111-85 81-42 120-54v-10c-19-4-38-10-56-17s-37-13-56-20c-48 40-91 82-130 125-38 44-69 92-93 144-24 53-39 111-44 176l-4 3m-85-44-48-35c-22-85-60-162-115-231-54-68-122-120-203-156v9c65 51 120 110 164 177s74 141 91 222h-77c-9 0-19-2-30-5s-21-5-30-6l-20 37h152l40 52 76-64M887 16H88l-10-2c-6-2-13-4-22-6S39 4 32 3c-7-2-10-3-11-3L0 40h750l57 52 80-76Z"/></symbol><symbol id="丟_G" viewBox="0 0 1000 1000" data-size="21"><path transform="matrix(1 0 0 -1 42 959)" d="M76 874h631l39 45 67-55c1-2 3-4 3-8 0-6-3-9-11-9H477V642h207l41 43 62-55c1-2 2-5 2-8 0-4-3-7-8-8H477V409h322l43 45 68-55c2 0 4-2 6-7 1-7-2-10-10-10H88c-13 0-34-4-63-12L0 409h424v205H199c-13 0-36-2-66-8l-16 36h307v205H154c-13 0-31-3-52-10l-26 37m358-543c4-3 5-5 4-8 0-2-3-4-8-6-15-2-26-5-34-9-7-4-29-24-68-59s-94-85-164-149l545 16c-38 49-88 98-150 147l9 13c67-35 119-67 157-95 36-30 62-57 78-83 13-27 19-50 15-69-3-18-12-28-27-29-16 0-26 6-31 18-4 13-16 39-35 76-243-16-395-26-457-30-61-3-108-17-143-41l-55 81c17 3 40 8 69 14 52 50 99 99 140 149 39 48 67 84 82 105l73-41Z"/></symbol><symbol id="丟_H" viewBox="0 0 1000 1000" data-size="21"><path transform="matrix(1 0 0 -1 41 954)" d="M21 861c28-7 66-11 112-11h617l51 58c26-21 50-40 73-57 6-5 9-10 9-15 0-9-5-14-14-14H469V629h242l51 60c26-20 50-40 73-59 6-3 9-8 9-13 0-9-5-13-14-13H469V408h314l49 57c27-18 53-37 78-57 5-3 8-7 8-12 0-11-5-17-14-17H457c-42-55-88-109-139-160-41-44-83-87-127-129 50 5 95 10 137 14 55 4 114 11 179 19 59 8 127 19 204 32-9 14-20 27-31 40-29 34-67 72-116 116l8 11c45-30 84-62 119-93 36-30 63-55 83-76 19-21 33-37 44-50 8-15 13-28 16-40 4-11 6-23 6-34-1-17-7-25-18-25-8 0-15 3-22 10-7 6-21 29-44 69-9 18-18 34-27 48-72-16-136-29-191-39-60-12-119-21-175-29-51-9-105-17-162-24-8-26-15-39-21-39s-23 29-51 86c7 1 15 1 23 1 55 54 102 104 140 151 36 43 70 89 103 141H115c-47-1-78-2-94-4L0 418c29-7 67-10 115-10h307v196H172c-45-1-76-2-92-4l-19 43c28-10 65-14 111-14h250v193H133c-45 0-76-2-94-4l-18 43Z"/></symbol><symbol id="丟_T" viewBox="0 0 1000 1000" data-size="21"><path transform="matrix(1 0 0 -1 33 956)" d="m127 822-19 43c30-7 67-11 113-11h485l50 58 72-58c6-5 10-10 10-15 0-9-6-13-17-13H478V645h189l48 57 72-57c7-6 10-11 10-16 0-9-6-13-17-13H478V429h325l50 59 72-57c6-5 9-11 9-17 0-9-3-13-9-13H467c-47-67-91-126-133-178-23-29-67-75-130-140 141 11 313 29 515 57-38 50-86 101-146 153l10 15c55-39 111-85 170-139 61-56 92-101 92-134 0-9-2-16-7-23-6-8-13-12-21-12-12 0-26 17-42 49-13 27-28 51-43 73-164-37-334-66-511-87-2-4-2-7-3-8-5-18-11-27-17-27-7 0-13 6-18 18l-28 61c17 9 47 40 91 94 47 58 83 108 107 149 10 19 25 45 43 79H112c-38 0-69-1-93-4L0 440c31-7 68-11 112-11h319v187H263c-38 0-69-2-94-4l-18 43c30-7 67-10 112-10h168v181H221c-38 0-70-2-94-4Z"/></symbol><symbol id="丟_J" viewBox="0 0 1000 1000" data-size="21"><path transform="matrix(1 0 0 -1 79 933)" d="m9 403-9 28h370l1 168H85l-10 28h296v148H32l-10 27h645l54 64 93-72v-19H413l39-10c9-3 14-7 14-12 0-6-3-10-10-12l-18-6V626h184l51 61 86-68v-21H438V431h253l54 67 96-70v-25H370l34-17c10-5 15-9 15-13 0-6-6-10-19-12l-24-4c-45-80-97-165-155-254l447 23c-17 28-41 59-74 93-41 41-75 72-104 93l11 13c71-35 135-78 192-128 37-32 64-63 82-94 16-27 24-48 24-65 0-11-4-19-11-26-6-5-13-8-22-8-12 0-22 5-29 15-1 2-12 20-32 55-5 9-11 19-18 28-63-9-140-18-232-29-17-2-62-8-134-17-73-10-148-19-226-26l-8-16C82 5 76 0 71 0S60 6 53 19L10 99l175 3c53 111 95 212 124 301H9Z"/></symbol><symbol id="丟_K" viewBox="0 0 1000 1000" data-size="21"><path transform="matrix(1 0 0 -1 56 939)" d="m711 818 48 59h13l66-68v-14H472V603h208l48 59h13l65-67v-15H472V402h289l48 59h15l64-68v-13H418l12-9-3-11-33-8c-3-5-9-13-18-24-8-11-14-18-17-23l-77-107-69-92c147 7 320 21 517 44-42 51-91 99-147 142l9 14 76-44c82-46 137-83 164-111s41-62 41-101c0-29-6-43-19-43-15 0-35 20-61 60-4 7-18 26-42 57-90-16-166-28-227-37-61-8-181-22-361-43L75 34 60 2 47 0 17 97c75 5 127 8 158 8 64 93 116 185 157 275H0v22h408v178H101v23h307v192H51v23h660Z"/></symbol><symbol id="丠_G" viewBox="0 0 1000 1000" data-size="21"><path transform="matrix(1 0 0 -1 34 941)" d="m527 876 90-33c8-7 8-12 0-16l-35-14V552c100 59 184 116 252 172 39-37 58-58 57-63-2-5-4-8-6-10-3 0-10 0-22 2-11 0-39-10-84-31-43-22-109-54-197-96V272c0-20 4-31 12-33s15-2 23-2h166l18 2c19 3 32 11 39 26 5 13 10 70 14 170h17c2-69 5-114 10-135 4-20 15-34 33-43-8-20-18-35-27-45-9-9-22-15-39-20l-32-4H613c-19 0-36 2-49 6s-23 12-29 24c-4 10-7 26-8 51v607M12 37h804l39 48 73-60c2-2 3-5 4-9 0-5-5-8-16-8H98C84 8 62 6 31 0L12 37m15 573h286v272l85-35c7-4 10-6 8-6 1-7 0-10-4-10l-37-16V253l4-63c0-9-6-19-19-29-14-10-28-14-41-14l4 108v92c-133-53-209-89-229-108-20-18-32-30-37-37L0 271l313 105v207H98c-16 0-32-3-49-8l-22 35Z"/></symbol><symbol id="丠_T" viewBox="0 0 1000 1000" data-size="21"><path transform="matrix(1 0 0 -1 36 936)" d="M24 603c29-6 66-8 111-8h178v198c0 39-1 65-3 78l53-12c28-6 42-13 42-21 0-10-8-17-24-21l-21-5V274c26 5 50 12 72 19l4-19c-94-46-208-82-342-109l-6-22c-2-10-6-15-12-15s-11 3-13 9l-33 71c84 8 179 25 283 52v307H135c-37 0-68-2-92-7l-19 43m789 44 70-53c6-4 9-9 9-14 0-10-5-15-16-15H593V291c0-27 4-43 11-48 13-8 50-12 112-12 70 0 112 6 127 19 12 9 20 30 24 62 4 30 9 74 14 132l23-9c-6-57-9-106-9-146 0-17 4-30 11-39 1-2 7-7 17-17 3-2 4-6 4-10 0-10-10-18-32-24-27-8-90-12-187-12-65 0-110 5-135 16-10 4-18 12-24 24-4 8-6 28-6 60v501c0 38-1 65-3 80l53-12c27-6 41-13 41-23 0-7-8-14-24-20l-17-6V593h170l50 54M19 0 0 43c31-8 68-11 112-11h676l54 63 76-62c7-5 10-10 10-15 0-9-5-14-15-14H112C74 4 43 3 19 0Z"/></symbol><symbol id="両_G" viewBox="0 0 1000 1000" data-size="21"><path transform="matrix(1 0 0 -1 63 960)" d="M0 870h768l37 51 64-57c2-2 3-4 4-8 0-7-4-11-12-11H463V653h287l31 35 61-39c4-3 7-7 8-11 0-4-12-13-36-28V96c2-24-3-41-15-53-13-12-33-22-63-29-2 20-11 35-29 45-16 7-47 18-94 31l4 17c57-11 90-17 100-17 9 0 19 0 31 2 10 2 15 10 14 24v512H463V271h135v269l72-27c10-5 12-10 6-16l-28-10V288l4-53c0-6-6-13-15-21s-22-14-39-18v51H281l-35-41-57 45 30 29v268l76-27c8-2 9-7 2-14l-27-8V271h140v357H107V136l4-95c-2-9-9-18-23-27C74 4 63 0 53 2l4 136v558l60-43h293v192H94c-14 0-36-3-67-8L0 870Z"/></symbol><symbol id="両_H" viewBox="0 0 1000 1000" data-size="21"><path transform="matrix(1 0 0 -1 43 947)" d="M0 853c29-8 67-12 115-12h671l46 54c26-19 51-38 74-56 5-3 8-6 8-11 0-10-5-15-15-15H478V677h294l33 41c24-15 42-29 54-42 5-5 7-9 7-12 0-6-12-17-38-32V93c0-23-5-40-16-50s-24-19-41-25c-16-8-29-11-40-11-3 15-9 27-18 35-11 9-23 15-36 19-22 7-46 12-74 13v25c50-9 96-14 138-14 16 0 27 1 32 4 6 4 9 13 9 26v535H478V263h140v205c0 34-2 60-6 78 34-5 61-12 82-22 7-4 11-9 11-15s-3-10-9-12c-9-7-20-11-32-12V274c0-17 1-29 2-35v-34c0-15-10-22-29-22-15 0-23 9-23 27 0 6 1 15 2 26H284c-5-4-13-7-22-7-15 0-23 9-23 27 0 8 1 18 3 32 1 12 1 23 1 33v147c0 34-2 60-6 78 34-5 61-12 82-22 7-4 11-9 11-15s-3-10-9-12c-9-7-20-11-32-12V321c0-18 1-30 2-35v-23h139v387H118V11c0-7-5-11-15-11-7 0-15 2-24 5-8 6-12 14-12 24 0 11 1 27 3 46 3 14 4 45 4 94v481c0 26-2 49-7 69l59-42h304v136H115c-47-1-78-3-94-6L0 853Z"/></symbol><symbol id="両_T" viewBox="0 0 1000 1000" data-size="21"><path transform="matrix(1 0 0 -1 32 950)" d="M444 236v384H129V42c0-22-1-33-2-35-2-5-9-7-21-7-23 0-34 11-34 33 0 4 1 17 3 40 2 20 3 51 3 95v456c-1 30-3 52-8 65l63-43h311v168H112c-36 0-65-1-87-3l-6-1-19 43c31-8 68-13 112-13h693l49 60 76-58c4-3 7-8 7-14 0-9-5-14-15-14H492V646h303l38 43 42-28c15-10 23-19 23-25s-2-11-5-14c-4-3-14-8-33-18V90c0-31-10-53-32-66-16-10-37-18-62-24-3 19-7 31-14 39-7 6-21 11-42 15l-30 6c-15 3-30 6-47 8v22c13-1 32-4 58-7 38-6 66-8 84-8 24 0 37 10 37 32v513H492V236h155v188c-1 44-2 70-3 78l59-12c28-5 42-13 42-22 0-8-9-15-25-21l-22-7V282l2-39c0-17 1-30 2-39 1-8 2-15 2-20 0-16-11-24-32-24-16 0-25 5-25 15v34H264c-4-4-12-6-22-6-14 0-21 6-21 19 0 11 1 29 2 57 1 15 2 45 2 89v58c-2 44-3 70-4 78l55-10c28-5 41-12 41-21 0-11-8-18-24-21l-22-5V236h173Z"/></symbol><symbol id="両_J" viewBox="0 0 1000 1000" data-size="21"><path transform="matrix(1 0 0 -1 50 935)" d="M12 784 0 812h763l48 57 89-68v-17H475V636h279l31 45 72-56c6-5 9-10 9-15 0-7-5-11-14-13l-19-5V64c0-16-5-28-14-35-13-10-29-18-50-23-15-4-26-6-32-6-5 0-9 1-12 4-1 1-3 10-5 27 0 5-1 9-4 12-1 3-7 5-16 6l-59 11v19h124v530H475V255h112v269l78-7c14-1 21-6 21-13s-4-12-12-15l-23-8V171l-64-8v65H299v-77l-62-5v381l78-8c12-1 18-6 18-13s-4-12-12-15l-22-9V255h110v354H136V12L67 5v670l79-39h263v148H12Z"/></symbol><symbol id="両_K" viewBox="0 0 1000 1000" data-size="21"><path transform="matrix(1 0 0 -1 66 925)" d="M391 770H0v22h738l52 58h12l65-65v-15H456V608h265l32 30h13l59-47v-15l-30-21V132c0-49-6-80-17-93-11-14-40-27-88-39l-17 7v31l-96 34 2 16 102-7c20-1 33 2 40 9 7 8 10 24 10 47v450H456V246h114v214l91-22v-13l-27-17V187l-7-14-44-14-13 8v57H276v-51l-6-14-46-14-12 5v310l92-22v-15l-28-15V246h115v341H129V33l-7-14L76 4l-11 8v628l69-32h257v162Z"/></symbol><symbol id="丢_G" viewBox="0 0 1000 1000" data-size="21"><path transform="matrix(1 0 0 -1 34 948)" d="M781 812c-29 9-60 11-93 6-31-6-97-16-198-31V617h211l43 55 63-61c4-2 6-5 6-8 0-8-4-13-12-13H490V412h332l39 53 65-59c4-3 6-6 6-10 0-8-6-12-18-12H82c-14 0-35-3-62-9L0 412h436v178H201c-12 0-32-3-60-10l-22 37h317v164c-120-10-241-16-366-18v22c149 12 284 27 405 47 120 19 207 41 259 64l55-66c4-5 6-8 6-10-4-6-9-8-14-8M477 336c3-4 5-7 3-8 1-5-2-8-9-10-9 2-18 0-28-6-9-6-30-25-60-58-29-33-88-85-176-157l490 24c-34 43-77 91-131 144l10 14c60-40 110-76 149-109 38-34 62-63 72-85 10-23 12-43 6-61-6-16-16-23-30-23-14-1-25 9-33 29-6 22-15 45-29 69-239-17-385-29-438-38-52-8-88-19-107-35l-43 83c29 1 53 6 70 14 45 38 88 82 127 133 39 50 65 91 80 125l77-45Z"/></symbol><symbol id="丢_T" viewBox="0 0 1000 1000" data-size="21"><path transform="matrix(1 0 0 -1 33 962)" d="M478 809V645h189l48 57 72-57c7-6 10-11 10-16 0-9-6-13-17-13H478V429h325l50 59 72-57c6-5 9-11 9-18 0-8-3-13-9-13H451c-49-78-88-136-117-173-25-32-69-80-130-144 141 11 313 29 515 57-38 50-86 101-146 153l10 15c55-39 111-85 170-139 61-56 92-101 92-135 0-8-2-15-7-22-6-8-13-12-21-12-12 0-26 17-42 49-13 27-28 51-43 73-164-37-334-66-511-87-2-4-2-7-3-9-5-17-11-26-17-26-7 0-13 6-18 18l-28 61c17 9 45 40 86 94 58 76 106 152 142 227H116c-49 0-82-1-97-3L0 440c31-7 68-11 112-11h319v187H263c-38 0-69-2-94-4l-18 43c30-7 67-10 112-10h168v159c-70-8-146-13-226-16-49-3-82-4-101-5v22l19 2c276 19 474 58 594 118l50-41c13-10 19-18 19-23 0-8-5-12-14-12-3 0-7 0-14 2l-21 3c-84-19-171-34-259-45Z"/></symbol><symbol id="丢_V" viewBox="0 0 1000 1000" data-size="20"><path transform="matrix(1 0 0 -1 80 1000)" d="M284 44c-31-6-63-12-96-18S123 11 93 0L41 83l108 8c47 45 90 94 128 147 39 53 72 109 101 167H83l-14-3c-9-2-19-4-29-6-9-2-15-3-16-4L0 433h392v165H179c1 0-4-1-14-4s-20-5-31-8c-10-2-16-3-17-4l-19 42h294v181c-39-15-79-29-120-42s-83-21-124-26l-11 12c20 7 47 16 80 29 34 13 70 29 109 46 39 18 76 37 112 56 37 20 68 40 95 61s44 40 53 59l60-97c-39-15-77-30-116-46-38-15-77-30-116-44l61-34c-3-10-8-21-13-34s-9-24-10-35c-2-13-3-27-2-43 1-15 2-30 2-43h166l54 49 79-75H452V433h239l59 50 89-78H386l75-70-48-17c-33-43-69-82-109-119s-81-72-123-105c22 0 44 1 66 4 23 2 45 4 66 5 57 5 113 10 169 13s112 7 169 10c-17 27-37 53-60 77-23 25-47 47-72 67v12c15-7 33-16 54-27 22-11 44-23 67-38s45-31 65-48 36-35 49-54 19-37 19-56c0-5-1-11-4-20s-6-18-11-25c-4-7-9-11-15-11-5 0-12 4-19 13s-15 19-23 32c-7 12-14 24-21 35-6 11-11 19-14 24-127-17-254-38-382-63Z"/></symbol><symbol id="丣_G" viewBox="0 0 1000 1000" data-size="21"><path transform="matrix(1 0 0 -1 49 965)" d="M311 343H133l-33-37-57 43 27 23v305l57-35h197v212H59c-12-2-24-5-36-9L2 880h791l41 51 64-59c6-8 6-14-2-18H580V644h190l39 39 50-45c8-4 9-10 4-18l-25-17V349c2-15-2-26-12-34-10-7-23-12-39-15v43H580V142l4-81c0-12-6-22-18-32-11-8-25-15-41-21l4 132v714H375V563c3-149-13-258-47-326-33-67-78-117-135-151C137 51 74 23 6 0L0 16c64 31 119 64 166 99 46 35 79 73 102 114 22 41 36 79 43 114M123 616V370h191c8 47 12 129 10 246H123m457-246h207v246H580V370Z"/></symbol><symbol id="丣_T" viewBox="0 0 1000 1000" data-size="21"><path transform="matrix(1 0 0 -1 37 956)" d="M592 828V636h201l34 37 41-27c13-8 19-16 19-23 0-9-12-19-38-30V344l19-16c5-5 8-9 8-13 0-7-3-11-8-11H592v-96c1-32 2-56 2-73 1-32 2-56 4-72 1-13 2-22 2-28 0-22-11-33-33-33-11 0-18 3-21 9-1 2-1 20-1 53v764H357V454c0-95-9-165-26-209-32-83-88-146-168-191C131 36 84 18 21 0l-5 19c90 32 160 77 209 134 34 40 59 90 74 151H106c-12-2-20-4-25-4-14 0-20 4-20 11v357l57-32h192v192H112c-38 0-69-1-93-4L0 867c32-7 70-11 112-11h690l51 55 56-49c11-10 17-17 17-21 0-9-5-13-16-13H592m0-220V333h210v275H592M303 333c4 36 7 77 7 121v154H106V333h197Z"/></symbol><symbol id="丣_J" viewBox="0 0 1000 1000" data-size="21"><path transform="matrix(1 0 0 -1 55 941)" d="m9 782-9 26h728l60 73 102-76v-23H553V599h202l20 40 65-40c14-9 21-16 21-23 0-6-5-10-14-13l-22-7V296l-63-14-1 60-207-1 1-322-64-11v774H371V444c0-93-8-164-24-215-14-47-43-89-88-127-35-31-79-56-131-75-20-7-49-16-87-27l-9 20c73 26 132 58 175 97 47 41 78 91 91 150 5 19 8 43 9 74H124l-1-66-61-12v367l72-31h175l-1 183H9m114-413h186v203l-186-1V369m430 202V369h209v202H553Z"/></symbol><symbol id="两_G" viewBox="0 0 1000 1000" data-size="21"><path transform="matrix(1 0 0 -1 50 939)" d="M0 823h785l41 55 72-66c2-2 2-3 2-4 0-8-4-12-11-12H598l-2-106-4-64h144l39 47 57-49c6-5 9-9 10-14 0-4-12-12-35-25V108c0-32-6-55-18-69s-34-27-66-39c-8 25-22 43-41 53-20 10-52 21-96 35l6 16c54-11 92-18 111-20 20-1 33 0 41 5 10 6 14 15 12 27v483H590c-8-61-16-106-24-137 59-41 96-74 112-100 13-23 21-43 21-58 1-15-2-28-10-39-5-10-15-14-29-12-13 1-20 12-21 31-2 18-9 42-20 72-10 30-29 57-58 82-18-66-47-123-88-171-40-47-86-88-139-123l-10 9c46 43 84 84 114 125 27 39 48 80 64 121 14 41 27 108 39 200H355c-1-48-7-86-17-116 46-35 74-62 84-82 10-17 15-32 16-43-1-11-4-22-10-33-7-10-16-13-28-12-9 2-15 12-17 32-2 19-7 39-14 58-8 19-20 37-37 55-14-51-34-96-61-135-26-39-63-77-113-113l-12 10c43 43 79 92 108 146 27 55 45 132 53 233H139V151l4-85c0-11-7-21-20-31-14-10-27-15-39-15l4 124v523l58-41h161l6 170H74c-8 0-27-3-56-8L0 823m541-197 4 64 2 106H365l-8-170h184Z"/></symbol><symbol id="两_H" viewBox="0 0 1000 1000" data-size="21"><path transform="matrix(1 0 0 -1 40 959)" d="M0 873c29-8 67-12 114-12h671l50 58c27-21 53-40 78-58 5-5 8-10 8-14 0-9-6-13-17-13H627c0-59-2-111-5-157 0-8 0-16-1-23h172l31 36c24-14 42-28 53-42 5-4 7-8 7-12 0-5-13-16-38-32V97c0-23-5-40-15-50-8-11-21-19-37-26-15-7-27-10-37-10-3 15-9 26-18 35-12 9-24 15-37 18-23 8-48 13-77 14v25c53-10 100-14 142-14 14 0 23 1 27 4 4 4 6 12 6 26v504l-1 4H619c-2-35-6-64-11-88-3-17-6-32-8-46 23-19 44-39 63-57 22-21 39-39 51-55 13-13 23-25 29-36 5-9 8-19 10-29 3-7 4-15 4-23-1-22-8-32-23-32-5 0-9 2-13 6s-13 22-27 53c-15 31-31 59-48 83-13 19-30 40-51 62-4-18-7-34-11-48-11-40-23-74-36-102-15-31-33-59-53-85-19-25-41-46-65-62l-12 20c31 32 55 63 71 92 15 28 28 61 41 99 11 37 20 78 27 123 6 34 11 76 14 125H348c-4-32-7-59-11-82-1-10-2-21-4-31 19-16 35-33 49-50 17-18 30-33 39-46 10-12 17-23 22-32 4-7 7-15 9-23 2-7 3-14 3-22-1-20-8-29-22-29-4 0-7 1-10 4-3 5-9 21-20 47-11 27-23 51-36 72-11 18-24 37-38 56-4-23-10-46-17-67-12-38-25-70-38-98-16-31-35-59-57-84-20-24-42-45-68-63l-13 21c34 31 60 61 77 91 17 27 31 59 43 95 14 38 24 78 31 122 5 33 10 73 13 119H117V11c0-7-5-11-16-11-6 0-14 2-23 6-8 5-12 13-12 23 0 12 1 27 3 46 3 14 4 45 4 95v457c0 27-2 50-7 69l60-42h176c2 45 4 104 4 180H114c-47-1-79-4-95-7L0 873m573-219c2 45 3 105 3 180H357c0-57-2-109-5-154-1-9-2-18-2-26h223Z"/></symbol><symbol id="两_T" viewBox="0 0 1000 1000" data-size="21"><path transform="matrix(1 0 0 -1 63 954)" d="M317 506c83-49 124-92 124-130 0-9-3-17-8-23-5-7-10-11-17-11-12 0-22 12-29 34-13 39-38 75-74 108-12-56-33-109-64-158-28-45-69-90-123-135l-14 14c57 59 99 122 126 190 19 44 33 119 43 223H103V32c0-17-9-26-28-26-17 0-26 7-26 22 0 5 0 14 2 24 4 35 6 69 6 103v468c0 29-3 50-7 65l62-43h171c3 45 5 106 5 185H112c-38 0-69-1-93-4L0 869c31-7 68-11 112-11h647l48 49 59-52c5-4 8-9 8-12 0-9-4-13-13-13H583V645h168l38 43 41-28c16-11 24-19 24-26 0-6-2-10-6-13-3-3-14-9-32-18V83c0-46-25-74-75-83-4 23-12 38-23 45s-37 14-78 21l4 23c54-9 87-13 98-13 18 0 28 9 28 28v514H582c-1-19-4-55-10-108 36-32 69-67 100-105 21-26 36-46 46-61 13-21 20-42 20-61 0-21-8-31-24-31-13 0-24 12-33 37-8 24-19 49-31 73-5 10-22 38-50 84-19 23-30 36-33 40-15-72-38-133-69-182-32-49-77-96-137-142l-13 15c51 49 89 96 113 139 41 73 65 174 73 302H329c-3-40-7-77-12-112m218 139v185H336l-3-129-2-50v-6h204Z"/></symbol><symbol id="两_J" viewBox="0 0 1000 1000" data-size="21"><path transform="matrix(1 0 0 -1 52 943)" d="m8 792-8 27h744l57 67 94-75v-19H552l41-9c13-3 20-7 20-14 0-3-5-7-14-11l-19-9-2-126 175-1 28 46 64-42c15-11 23-19 23-26 0-5-5-10-15-13l-21-6V83c0-29-14-50-42-62-26-11-46-17-61-17-7 0-10 5-11 15-1 17-10 29-28 34l-55 17v15h132v511H577c-2-37-5-74-10-111 53-36 91-68 115-95 39-44 58-85 58-122 0-17-4-30-13-38-5-5-11-7-17-7-13 0-22 11-29 33-27 91-66 158-117 203-11-48-24-84-38-109-22-37-47-69-76-96-15-15-40-34-74-55l-13 14c52 43 89 89 111 138 28 59 42 141 42 245H339c-2-41-5-76-8-103 82-48 123-93 123-134 0-17-6-30-18-37-5-3-11-4-16-4-11 0-21 14-31 42-12 36-24 63-37 81-5 7-13 17-24 30-23-104-83-193-181-268l-11 13c38 41 65 75 81 104 22 39 38 85 48 138 7 33 11 79 13 138H118V11L55 0v649l75-26 148-1-1 170H8m508-169-2 169H317l34-9c15-4 23-9 23-16 0-6-5-10-14-13l-20-5V623h176Z"/></symbol><symbol id="两_K" viewBox="0 0 1000 1000" data-size="21"><path transform="matrix(1 0 0 -1 59 940)" d="m751 821 53 58h12l65-63v-18H595V644h138l31 35h13l58-44v-15l-26-24-1-489c0-35-7-60-20-73-13-14-42-25-85-34l-13 9v31l-92 31 2 17 98-8c19-1 32 2 37 9 6 7 9 22 9 45l1 488H593c0-47-4-94-13-141 93-67 140-127 140-180 0-13-4-25-11-37s-14-18-21-18c-14 0-24 18-31 55-11 53-39 105-82 156-15-77-36-137-62-180-25-43-66-88-123-133l-11 12c57 63 96 125 115 185 20 60 33 154 38 281H367c-3-32-7-71-14-118 86-49 129-95 129-138 0-11-3-22-9-32-5-9-11-14-18-14-9 0-20 19-33 56-14 41-39 78-74 109-17-70-40-127-69-170-28-43-69-85-124-125l-12 12c58 54 98 116 120 186s35 148 40 234H120V33l-7-14L66 5l-10 8v651l63-20h185v154H0v23h751m-383-23V644h165v154H368Z"/></symbol><symbol id="严_G" viewBox="0 0 1000 1000" data-size="21"><path transform="matrix(1 0 0 -1 36 943)" d="M55 837h744l33 49 66-55c2-3 4-6 4-10 0-8-4-11-13-11H602V530h214l41 53 69-62c1-4 2-7 2-10 0-5-3-7-8-8H170V370c-4-116-20-198-47-248C97 73 59 32 8 0L0 10c44 41 76 89 96 145 18 55 26 127 25 215v203l63-43h185v280H143c-15 0-38-3-69-8l-19 35m365-307h131v280H420V530M143 747l9 14c49-30 82-54 100-73 16-18 25-35 27-50 3-15 1-28-6-39-5-13-14-18-25-16s-18 12-21 29c-4 19-11 39-22 61-11 21-32 46-62 74m490-191c56 72 99 138 131 199 45-27 68-43 70-47 2-3 2-7 0-10-2-2-8-4-20-4-11 0-28-13-50-37-24-23-63-61-119-113l-12 12Z"/></symbol><symbol id="並_G" viewBox="0 0 1000 1000" data-size="21"><path transform="matrix(1 0 0 -1 39 959)" d="M561 657h201l41 49 68-57c2-2 3-3 4-5 1-9-2-13-10-14H598V35h207l41 43 72-53c2-2 3-4 4-5 0-8-4-12-12-12H70C57 8 38 6 16 0L0 35h326v595H115c-9 0-24-2-45-6l-21 33h480c63 110 105 197 127 262l82-37c5-6 6-10 2-12s-11-5-19-8c-8-1-22-14-41-39-18-25-58-80-119-166M381 35h162v595H381V35M182 903l9 12c56-36 98-66 125-92 26-25 41-47 47-64 4-18 4-32-2-43s-16-16-31-16c-14 1-22 9-25 26-4 15-13 37-28 66s-47 66-95 111M90 515l14 7c48-61 83-111 103-150 20-37 33-68 41-94 7-24 9-45 8-62-1-16-5-28-14-37-8-11-17-14-29-10-12 2-18 9-20 21s-4 32-7 59c-2 27-10 61-24 104-12 42-36 96-72 162m689-8c53-25 80-40 82-45s2-8-2-10c-2-1-6-2-13-4-6-2-12-4-18-8-6-3-25-33-58-89-32-56-70-118-114-186l-19 8c37 73 66 137 88 189 20 51 39 99 54 145Z"/></symbol><symbol id="並_H" viewBox="0 0 1000 1000" data-size="21"><path transform="matrix(1 0 0 -1 31 938)" d="M216 872c36-21 64-44 84-66 19-18 33-35 42-53 6-13 9-25 9-37 0-21-8-31-23-31-5 0-10 2-15 5-4 4-9 12-13 26-12 31-25 56-38 75-15 22-34 43-59 65l13 16m433 4c32-9 61-20 86-32 5-4 7-8 7-11 0-7-4-11-13-15-14-4-28-5-41-5-6-14-13-26-21-37l-27-36c-9-10-18-20-29-28-8-9-20-18-34-27l-18 13c13 13 24 27 33 42 10 17 20 33 29 51 9 19 17 37 23 56 3 9 5 19 5 29M23 663c29-8 67-12 115-12h635l46 52 71-54c6-3 8-7 8-11 0-9-5-14-15-14H598V34h207l49 56c26-20 51-39 75-58 6-3 9-7 9-11 0-10-6-14-17-14H114C68 6 36 3 20 0L0 46c29-8 67-12 114-12h210v590H138c-47-1-78-4-95-7l-20 46M371 34h180v590H371V34M107 493c38-42 67-85 89-128 19-29 34-61 46-95 8-25 12-46 12-66 0-8-2-17-7-26-7-9-14-13-20-13s-12 2-18 5c-6 6-9 15-9 24-8 69-20 122-36 159-13 36-36 80-70 130l13 10m671-4c34-11 63-23 88-34 4-4 6-9 6-13 0-7-6-12-18-14-15-3-25-4-32-4-11-37-25-72-40-106-15-32-30-61-46-87-17-25-37-51-61-78l-19 12c20 31 36 59 50 86 10 24 21 50 31 79 11 29 20 56 27 81 6 24 11 50 14 78Z"/></symbol><symbol id="並_T" viewBox="0 0 1000 1000" data-size="21"><path transform="matrix(1 0 0 -1 27 939)" d="M238 875c86-63 129-117 129-160 0-23-8-34-24-34-13 0-23 14-31 43-8 26-18 49-31 70-10 17-29 39-55 67l12 14m425 2 84-33c4-1 6-5 6-10 0-8-4-12-12-13l-38-5c-18-31-32-53-42-65s-34-36-71-71l-17 13c28 39 47 69 57 91 16 33 27 64 33 93M65 639l-18 43c30-8 68-12 112-12h623l47 55 72-60c4-3 6-6 6-11 0-8-5-11-15-11H606V32h208l50 58 73-58c6-4 9-9 9-14 0-9-5-14-15-14H112C77 4 46 3 19 0L0 43c31-7 68-11 112-11h203v611H159c-38 0-69-2-94-4M362 32h196v611H362V32M88 486c39-36 78-84 119-144 37-54 56-99 56-135 0-10-3-19-8-26-5-8-11-12-18-12-16 0-26 18-31 53-12 77-54 162-127 256l9 8m704 18 76-35c10-4 15-10 15-17 0-3-1-6-4-7-5-3-21-5-48-6-31-80-60-143-88-187-21-31-45-62-75-94l-18 14c58 74 106 185 142 332Z"/></symbol><symbol id="並_J" viewBox="0 0 1000 1000" data-size="21"><path transform="matrix(1 0 0 -1 44 928)" d="M0 28h329v573H42l-13 28h474c49 85 85 160 110 226l80-48c8-5 12-10 12-16 0-7-5-11-14-12l-27-4-128-146h210l46 64 85-71v-21H582V28h173l60 74 97-82-1-20H12L0 28m395 573V28h124v573H395M96 497c37-33 67-65 88-96 48-70 72-135 72-195 0-27-7-47-20-58-7-7-15-10-24-10-17 0-27 14-30 43-18 137-51 237-100 300l14 16m97 353c45-15 84-37 119-66s53-59 53-89c0-12-4-23-11-33-8-11-17-16-26-16-5 0-11 2-16 6s-14 22-27 55c-25 54-58 97-99 128l7 15m437-716c59 139 96 263 111 374l83-34c13-5 20-12 20-20 0-5-5-9-14-11l-21-6c-14-44-42-104-83-180-43-73-69-117-80-131l-16 8Z"/></symbol><symbol id="並_K" viewBox="0 0 1000 1000" data-size="21"><path transform="matrix(1 0 0 -1 51 919)" d="M44 623h484c27 62 54 134 83 215l90-45-5-17-31-1-112-152h178l51 51h11l59-58v-16H553V139c76 115 130 202 162 263 4 8 11 21 20 38 10 18 15 28 16 30l86-55-4-13-35-1-31-40c-31-39-102-124-214-253V24h219l53 55h11l62-63V0H0v24h309l-1 576H44v23M373 24h116v576H373V24M83 426l10 8c110-99 165-180 165-242 0-15-4-29-11-42s-15-19-22-19c-14 0-25 20-34 61-16 69-52 147-108 234m95 394 8 8c105-50 157-95 157-134 0-12-3-23-9-32s-13-14-20-14c-10 0-25 20-44 59-14 30-45 68-92 113Z"/></symbol></svg>