<svg xmlns="http://www.w3.org/2000/svg"><symbol id="缘_G" viewBox="0 0 1000 1000" data-size="21"><path transform="matrix(1 0 0 -1 33 970)" d="m510 940 72-31c4-2 5-6 4-12-3-1-11-4-25-7l-14-12-20-47h180l37 33 51-45c4-2 6-6 6-11 0-6-11-13-33-22l-51-197h97l34 49 58-53c2-3 4-6 6-10 0-8-4-12-12-12H621c-27-21-58-42-94-64 43-35 75-74 96-117 76 56 135 105 178 148l54-45c4-4 6-7 6-9 3-6-1-10-11-12-20 2-41-3-65-16-23-12-53-30-90-54 15-52 35-94 61-127 25-34 53-62 82-84 30-23 62-37 96-45v-18c-24 0-43-2-57-8-12-4-23-12-31-22-22 19-44 42-67 67-21 26-41 57-60 94-18 34-33 78-47 131l-41-24c12-48 19-84 21-105 2-22 2-47 2-74 0-28-2-51-8-70-4-19-13-39-27-58-12-17-36-34-72-51-8 23-22 39-41 47-18 8-41 16-70 25l3 18c51-10 84-15 100-16 16 1 29 6 39 16s17 22 22 36c4 16 7 38 9 68s-2 70-9 121c-32-39-78-85-137-136S320 78 211 29l-6 16c106 64 186 121 240 171 53 49 99 101 139 154 2 6-7 24-25 53-32-31-68-61-108-92-39-31-86-59-140-86l-8 12c45 32 86 65 123 97 35 32 70 67 105 106l-23 27c-59-32-126-60-201-86l-8 14c105 52 189 102 252 148H387c-6 0-24-2-55-7l-16 33h354l21 88H492l-27-24-53 53c17 8 29 18 37 29l61 205m187-238 28 104H520c-13-41-24-75-34-104h211M334 233l4-19c-149-49-233-78-252-88-18-9-32-19-43-28L6 163l328 70m-72 645c4-3 6-7 6-14-1-2-4-4-10-6-16 1-43-28-78-86-35-56-75-112-117-166l171 4c33 59 55 105 67 139 47-25 70-39 70-41v-8c0-4-4-6-12-8-7-2-15-7-23-15-8-7-33-43-76-110-43-64-96-134-158-211l252 34 3-20c-97-19-164-35-199-47-33-10-62-21-88-35l-43 68c11-2 29 4 55 18 33 40 80 111 141 213-61-9-103-16-125-22-22-3-43-11-63-23L0 608c16 2 31 10 45 24 13 14 37 53 72 117 35 65 61 120 76 166l69-37Z"/></symbol><symbol id="缙_G" viewBox="0 0 1000 1000" data-size="21"><path transform="matrix(1 0 0 -1 30 960)" d="m418 464 57-43h275l31 39 67-49c4-2 6-5 6-8-1-4-12-13-34-27V136l4-99c0-8-4-15-13-21-10-8-24-13-41-16v86H469V39c0-12-6-21-18-27-12-5-25-8-37-8l4 130v330m51-354h301v133H469V110m0 159h301v127H469V269M355 854h454l37 51 66-56c2-3 3-6 4-10 0-8-5-12-14-12H715V536h121l33 49 67-55c2-2 3-6 3-9 0-8-3-12-11-12H404c-11 0-32-3-62-8l-18 35h203v291h-89c-15 0-38-2-69-8l-14 35m221-318h90v291h-90V536M371 767c32-20 58-41 78-65 20-21 31-41 35-58 2-17 0-29-7-38-8-8-18-11-30-9-12 1-19 11-21 31-3 19-9 39-20 60-10 20-25 43-47 69l12 10m463-104c-18-24-45-57-80-98l-16 10c37 66 68 129 92 190 45-24 68-39 70-43 3-5 3-8 0-10-4-2-11-5-23-8-10-2-25-16-43-41M287 880c10-8 10-14 0-18-16-2-26-6-31-11-6-5-24-29-55-73-29-43-72-101-129-172l166 4c26 38 47 76 65 114l66-43c11-8 10-15-4-20-16-2-28-8-37-15-8-9-31-39-70-90S164 442 94 366l267 37 4-21c-133-28-213-46-238-55-25-8-50-19-72-35l-43 70c17 4 37 11 58 22 18 19 39 45 65 78 25 31 56 72 94 125-71-8-116-16-135-24-20-6-37-14-53-25L0 610c20 4 38 12 55 24 40 56 73 106 97 150 24 42 45 88 65 137l70-41m72-635 6-19-246-104c-22-10-43-25-62-44l-45 68 347 99Z"/></symbol><symbol id="缚_G" viewBox="0 0 1000 1000" data-size="21"><path transform="matrix(1 0 0 -1 24 965)" d="M332 792h260v139l74-32c6-4 8-7 6-9 0-2-10-8-29-18v-80h197l35 47 55-53c2-2 5-6 8-10 0-6-4-9-12-9H643v-86h146l29 37 49-41c6-5 9-9 10-14 0-4-10-12-29-23V479l6-68c-1-8-8-15-22-23s-25-12-35-12v45H643v-57c0-8-6-15-18-21-10-6-21-9-33-8v86H443v-51c0-9-4-18-11-27-9-8-23-12-43-12l6 100v291l56-41h141v86H414c-14 0-36-3-66-8l-16 33m111-346h149v92H443v-92m200 92v-92h154v92H643m-200 24h149v95H443v-95m200 95v-95h154v95H643m50 235 6 11c28-6 51-13 71-23 18-8 30-18 37-29 6-11 7-21 4-32-4-9-11-14-22-15-10 0-18 6-23 17-6 12-15 24-26 35-10 10-25 22-47 36M330 288h408v96l76-26c6 0 8-2 8-7 0-4-11-11-33-20v-43h65l33 45 60-55c2-2 4-4 4-7 0-6-4-9-12-8H789V94c1-21-3-39-12-55-8-14-32-27-72-39-2 19-12 34-31 45-20 10-45 19-76 27l4 18c39-10 68-16 87-18 18-2 31-1 40 2 7 5 11 23 9 54v135H412c-14 0-36-3-66-8l-16 33m111-47 10 10c41-27 69-51 82-70 12-19 17-35 16-49-1-13-5-23-14-28-8-6-15-8-23-4-9 2-14 10-16 22-1 12-4 27-10 47-4 17-19 41-45 72m-89-8 3-19c-150-37-235-61-253-70s-34-18-47-28l-37 65 334 52M182 909l68-37c4-2 6-4 6-8 2-3 0-6-6-10-18 0-43-29-76-85-32-56-70-112-113-168l154-4c31 58 53 105 64 140 47-28 71-43 71-45v-7c-1-3-6-6-14-8s-16-7-23-14c-6-8-28-40-65-96S160 446 96 372l230 29 2-19c-73-12-127-24-162-35-35-13-65-26-90-39l-39 64c10 3 24 9 41 20 37 42 79 103 127 183-47-1-81-4-101-10-19-3-40-10-63-21L0 603c16 0 31 7 47 23 14 15 37 55 70 119 31 65 53 119 65 164Z"/></symbol><symbol id="缛_G" viewBox="0 0 1000 1000" data-size="21"><path transform="matrix(1 0 0 -1 28 966)" d="m838 915 62-55c2-2 4-5 4-7 0-6-3-9-8-8H420V647h416l29 41 61-50c2-3 3-6 4-8 0-6-3-9-8-8H635c17-37 45-72 84-105 41 31 75 62 103 93 35-24 53-39 55-45 1-3-1-6-4-7-2-2-8-3-18-2-8 0-21-3-39-10-17-9-43-24-78-45 23-18 43-29 61-35 17-6 37-12 58-18 22-4 51-9 86-13v-18c-16 1-32-1-48-6-16-4-28-14-38-29-33 14-67 32-101 56-33 25-63 51-88 79-24 26-43 61-57 103h-60V442l107 51 10-14c-46-33-78-56-96-68-17-12-37-31-58-57l-51 57 39 20v191h-80c-2-92-9-177-20-254-9-76-29-140-58-193-28-52-67-101-119-148l-10 12c34 43 64 91 90 144 23 52 41 112 52 179s15 149 14 246v305l63-43h365l39 45M473 757h277l37 41 53-51c2 0 4-2 6-6-1-6-4-10-10-10H555c-14 0-34-2-61-7l-21 33m19-512 10 10c49-26 77-47 86-63 8-14 11-27 10-39-3-10-8-17-16-21-6-5-14-5-23-2-9 4-14 12-16 23-1 11-5 24-10 39-6 14-19 32-41 53m-84 55h307v96l68-28c7 0 9-4 8-14 0 2-10-2-29-13v-41h80l33 45 51-53c2-2 3-5 4-8 0-6-4-10-12-10H762V68c-2-19-12-34-30-45-15-11-31-19-48-23-5 23-16 38-34 45-18 8-43 16-74 23l6 20c59-12 95-17 109-14 16 3 24 11 24 22v178H467c-14 0-26-2-37-7l-22 33M264 899c9-7 9-13 0-17-16-4-26-9-30-14-4-4-21-27-50-70-28-41-67-97-118-166l159 2c24 39 45 77 62 115l63-35c11-8 9-14-4-20-15-4-26-11-33-19-7-9-30-39-69-92-39-51-90-113-152-187l219 41 3-20c-102-28-165-47-189-57-23-9-45-23-64-41l-45 71c19 5 38 13 56 25 18 21 37 45 59 72 19 26 48 68 86 125-57-4-98-11-121-19-24-6-43-14-59-24L0 636c17 4 33 10 49 17 41 62 70 111 88 149s36 81 54 131l73-34m47-595 7-20-213-96c-23-14-44-31-64-50L0 198l311 106Z"/></symbol><symbol id="缜_G" viewBox="0 0 1000 1000" data-size="21"><path transform="matrix(1 0 0 -1 30 965)" d="M355 798h233v133l78-30c6-2 9-4 10-5v-8l-41-16v-74h178l37 47 58-53c2-3 2-6 2-10 0-6-4-10-12-10H637v-87h115l27 41 55-36c6-3 9-8 10-13 0-4-10-14-30-30V237h28l39 49c37-36 57-56 58-60 2-4 0-8-3-12l-4-2H389c-6 0-21-3-43-8l-16 33h104v485l56-37h98v87H438c-14 0-36-2-67-7l-16 33m127-561h284v96H482v-96m0 119h284v88H482v-88m0 112h284v82H482v-82m0 105h284v88H482v-88M453 92C410 68 340 38 242 0l-8 18c84 37 176 94 274 169 37-30 56-47 56-53 0-5-1-7-5-8s-12-1-24-2c-12 0-39-11-82-32m225 79c64-18 113-35 148-51 33-14 57-30 70-46 13-15 17-30 14-45-2-13-10-21-21-23-13-2-24 4-34 19-8 16-24 34-48 53-24 20-69 46-135 79l6 14M277 860c10-7 10-13 0-17-13-3-23-6-29-10s-21-23-47-59c-26-35-72-92-138-171l187 13c21 35 39 72 55 110l66-36c9-7 7-14-4-19-15-4-27-11-35-20-6-10-28-43-66-97-37-55-93-122-166-201l263 41 6-20c-124-29-198-48-221-55-22-8-45-19-68-33l-45 68c18 6 33 14 47 22 22 21 43 47 64 76 22 29 53 76 94 141-74-11-122-20-142-28-22-5-41-14-57-25L0 608c16 2 31 10 47 22 46 58 80 105 101 142 20 35 41 77 63 125l66-37m59-658 6-19-215-53c-29-9-53-19-72-30l-41 61 322 41Z"/></symbol><symbol id="缝_G" viewBox="0 0 1000 1000" data-size="21"><path transform="matrix(1 0 0 -1 26 960)" d="M482 485h159v106l64-22c10-2 15-6 14-11 0-4-3-7-8-8l-22-10v-55h94l30 39 52-46c2 0 2-2 2-6 1-8-2-12-10-12H689v-88h65l33 39 55-47c2-2 3-4 4-6 0-6-5-9-14-9H689v-96h122l31 39 47-45c2-2 4-4 6-8 0-8-4-11-12-11H689v-45l2-61c2-9-3-17-17-24-13-8-26-12-39-12l6 104v38H535c-12 0-34-3-66-8l-22 33h194v96h-78c-14-1-34-4-59-10l-22 33h159v88h-77c-13 0-33-2-62-6l-20 31M314 860c32-27 54-48 69-64 12-14 21-29 29-43s11-27 10-37c-2-11-7-19-14-26-6-6-15-9-25-7-10 1-16 11-18 31-2 17-7 35-13 55-4 17-20 44-47 82l9 9m-84-359h114l31 39 49-37c8-6 13-10 14-14 0-2-12-11-36-27V140c29-24 57-43 84-56 26-13 59-20 100-21 60-6 144-4 250 5l111 14V64c-19-1-36-9-49-21-13-10-22-21-27-33H703c-64 0-112 2-142 8-32 4-59 13-81 27-22 12-42 27-60 45-18 17-31 25-39 24-8 0-20-8-37-22-18-14-39-44-65-92l-50 47c35 29 77 61 125 97v334h-59c-14-1-28-4-43-10l-22 33m415 391c1-1 3-2 3-4 5-2 4-6-3-12-13-4-23-10-28-18-4-5-13-19-27-41h160l31 34 55-47c6-5 8-7 6-8 0-4-6-8-18-12s-23-12-33-25-21-28-35-45c-14-18-31-35-53-53 23-17 50-31 80-41s54-17 74-19c20-3 47-6 82-8v-18c-21-2-37-4-48-8s-21-13-32-29c-33 12-64 25-93 39-28 14-57 33-86 59-41-30-77-53-108-69-30-15-74-33-133-54l-7 13c50 24 90 45 121 63 31 17 64 41 99 72-29 29-56 70-82 121-41-64-87-121-136-170l-14 10c34 44 65 92 92 143 26 50 49 102 66 156l67-29m-53-98c17-37 45-74 82-111 31 31 58 68 82 111H592m-348 66c5-2 7-6 6-9-3-5-7-8-14-10-15 0-34-20-54-61S122 676 63 591l132 4c25 49 47 93 67 133 44-28 66-42 66-43v-8c-1-3-7-7-19-10-11-2-26-18-45-49-65-105-125-196-182-273l209 33 2-20c-81-19-137-35-168-46-30-12-57-25-80-38l-35 67c23 2 41 12 54 29 8 8 24 31 47 70 24 39 49 82 77 131-47-2-81-8-100-15-18-7-35-16-51-28L2 593c19 5 37 17 53 37 54 87 95 176 123 266l66-36m55-621 4-15C170 169 95 136 78 124c-15-11-28-22-37-32L0 155l299 84Z"/></symbol><symbol id="缞_G" viewBox="0 0 1000 1000" data-size="21"><path transform="matrix(1 0 0 -1 34 969)" d="m408 731 59-39h267l32 37c41-27 62-42 64-46 1-4-10-14-33-30v-86h53l33 41 45-46c2-2 3-5 4-8 0-8-4-12-12-12H797v-76l4-51c0-6-5-14-16-23-10-9-23-12-39-10v25H633c9-43 31-94 66-152 30 23 76 70 141 141l58-45c4-6 4-10 0-12-3-1-11-2-23-4-11-1-28-8-51-22-21-13-59-39-113-76 21-27 41-49 59-64 17-15 38-30 62-45 23-12 55-22 96-28V82c-20 0-35-4-47-12-10-5-20-15-31-31-43 30-80 62-112 97s-60 76-84 123c-23 46-39 95-49 148-42-53-76-94-101-125V88l133 71 11-17c-69-46-112-76-127-89-15-14-31-32-48-53l-55 53c15 8 27 18 37 31v151c-32-29-66-57-101-84-36-25-71-47-106-67l-8 16c45 34 82 64 110 90 26 26 56 55 89 88 33 34 67 76 102 129h-82v-19c0-8-7-16-20-24-11-8-23-11-35-11l4 91v98h-27c-13 1-34-3-63-10l-19 35h109v164m51-298h287v109H459V433m0 134h287v100H459V567m359 239 39 50 61-60c2-2 3-4 4-6 1-8-5-12-16-10H398c-13 1-33-2-62-9l-20 35h502M527 927l8 11c45-16 74-29 88-39s22-21 23-33c3-11 1-22-5-33-8-10-18-15-30-14-12 2-19 10-21 24s-9 28-20 43c-9 13-24 27-43 41m-236-53c10-8 10-14 0-18-16 0-27-3-33-9-5-7-22-30-51-69s-74-97-135-175l151 1c28 43 50 84 66 122l74-39c11-8 10-15-4-20-17-1-30-5-37-14-6-7-33-41-80-99-47-59-97-116-152-170l234 23 4-21c-114-18-183-30-207-37-23-7-45-19-68-37l-39 64c19 5 35 11 49 20 21 23 40 44 56 62 14 18 45 60 94 125-67-6-108-12-123-20-16-5-30-13-43-23L8 603c19 3 37 12 53 27 42 64 74 116 95 156 21 39 41 80 61 125l74-37m57-633 6-19-247-100c-22-10-43-26-62-46L0 138l348 103Z"/></symbol><symbol id="缟_G" viewBox="0 0 1000 1000" data-size="21"><path transform="matrix(1 0 0 -1 35 976)" d="m826 802 37 47 63-55c2-3 3-6 4-10 0-4-5-7-14-8H408c-13 1-33-2-58-9l-24 35h500m-367-63 57-33h207l25 33c44-31 64-49 61-52-1-3-10-10-28-20v-64l6-45c-2-13-8-22-17-28-10-6-23-9-38-11v35H508v-10c0-6-3-12-8-18-10-8-25-13-47-15l6 88v140m49-160h224v102H508V579m-14-195 49-33h133l33 31 39-28c8-4 12-9 12-15 0-3-9-12-26-27v-84l4-51c0-9-6-16-17-22-12-8-24-11-35-11v37H543v-12c0-8-4-16-12-23s-22-12-43-14l6 84v168m49-180h143v123H543V204m-16 736 6 12c31-10 57-21 76-33 20-12 34-25 41-41 6-14 6-27 0-39-5-13-14-18-25-16-12 0-20 6-23 18-4 10-10 23-18 39-7 14-25 34-57 60M357 497l57-39h397l31 41 54-39c6-2 10-6 10-12 0-4-10-12-29-25V109c2-32-4-56-18-72-14-14-38-27-72-37-3 20-14 35-33 47-18 10-47 21-86 33l4 18c53-11 86-18 99-20 14-2 27-2 40 0 11 2 16 12 15 31v324H408V121l4-76c-2-9-8-18-19-25-12-8-26-14-41-18l5 126v369m-91 373c9-8 9-14 0-17-16-2-26-6-32-12-5-4-21-26-46-65-27-39-69-93-127-164l168 2c35 53 58 96 70 129l64-37c11-8 9-14-4-19-15-3-28-10-37-22-8-12-32-45-72-98-38-51-92-118-162-201l228 26 4-18c-101-22-164-36-189-43-26-6-49-18-70-33l-45 72c19 4 35 10 48 18 22 25 45 52 69 82 21 29 51 70 88 123-58-6-98-13-121-20-24-6-43-15-55-27L0 612c20 4 37 14 53 30 37 56 65 102 86 138 19 35 37 76 54 123l73-33m62-631 6-19-215-80c-22-11-43-25-62-42l-43 59 314 82Z"/></symbol><symbol id="缠_G" viewBox="0 0 1000 1000" data-size="21"><path transform="matrix(1 0 0 -1 29 967)" d="M320 222c30 82 45 206 43 373v240l59-45h410l41 51 57-61c4-2 6-6 6-9 0-4-3-6-10-6H412V595c-2-203-24-345-66-424C303 94 253 37 197 0l-8 12c58 56 102 126 131 210m153 476 62-41h254l25 39 61-45c2-4 3-6 4-7 1-4-9-14-27-30V413l3-78c0-9-6-16-19-22-12-5-23-8-33-9v35H686V212h113l29 47 59-55c2-2 3-4 4-6 0-8-4-11-12-11H686V53h162l33 45 57-53c1 1 3-2 3-8 1-6-2-9-9-10H441c-11 1-33-2-64-7l-18 33h276v134H518c-14 0-36-3-67-8l-15 33h199v127H525v-10c0-10-6-17-19-23-14-6-26-9-37-8l4 99v301m52-334h110v117H525V364m161 117V364h117v117H686m-161 26h110v125H525V507m161 125V507h117v125H686M291 212l4-18-186-76c-32-14-52-26-62-38L8 140l283 72m-39 650c7-2 10-6 8-11-2-4-9-7-20-10-12-1-29-20-51-57S125 681 63 585h146c32 58 54 105 66 143 42-27 64-41 67-45 2-4 2-8 0-12-4-2-11-4-20-6-8-2-19-12-31-29-68-115-137-210-205-283l217 31 2-18c-59-13-108-26-147-39-38-14-68-27-90-41l-45 67c12 1 27 9 45 21 39 42 83 106 133 191-45-5-80-11-103-17-22-5-43-13-65-26L0 585c25 3 46 18 63 43 62 113 103 204 123 273l66-39m316 61 8 12c39-18 67-34 84-49 18-17 28-30 29-39 2-10 2-19-1-26-3-8-8-13-14-17-5-3-13-4-22-2s-15 9-17 21c-2 11-7 24-14 39-6 15-23 35-53 61Z"/></symbol><symbol id="缡_G" viewBox="0 0 1000 1000" data-size="21"><path transform="matrix(1 0 0 -1 26 967)" d="m848 798 35 51 60-57c2-3 4-6 4-10 1-6-2-10-9-10H410c-14 0-37-2-68-7l-14 33h520m-444-67 69-27c6-2 9-4 9-6 2-6-7-14-29-25V507h360v215l74-32c2-2 3-5 4-7 0-3-10-10-30-22V558l4-75c1-7-4-15-15-23-11-7-23-10-37-10v33H459l-21-31-61 41c18 11 27 23 27 37v201m119 190 4 14c35-10 63-22 86-36 22-12 35-25 41-39 6-13 6-26 0-37-5-10-14-15-27-15-12-1-20 5-23 19-4 13-12 27-24 43-12 15-31 32-57 51M357 429l59-37h143c8 24 17 52 25 84 45-12 68-20 70-24 0-4 0-8-2-10-2-1-6-2-11-4-6-1-11-4-14-9-3-4-9-17-20-37h221l33 41 51-41c7-4 9-9 8-14 0-5-10-14-29-27V107c0-31-4-54-12-70-10-15-31-27-65-37-10 25-25 42-44 49-21 6-47 14-81 23l4 18c54-10 89-15 104-16 16 0 27 1 35 4s11 16 10 39v249H596c-25-47-54-94-86-140 66 5 132 13 197 21-18 29-37 55-57 78l10 10c39-27 69-51 88-72 19-22 30-41 33-59 3-17 2-30-4-37-6-8-13-12-23-12-11 1-17 7-20 20-2 11-7 28-15 51-83-14-135-25-156-32-22-6-47-15-77-29l-35 59c11 4 20 9 28 13 7 4 15 14 25 32 10 15 25 48 47 97H406V134l4-85c0-11-6-19-19-26s-25-11-37-11l3 120v297m282 244c22 19 49 49 80 88 34-25 50-40 49-45 0-6-3-9-8-8-5 0-12-2-22-6-9-4-19-10-29-19-9-8-22-19-39-32 39-30 62-52 70-66 7-13 10-24 8-33-3-8-7-14-14-18-5-2-12-3-19-2s-13 7-20 20c-6 11-13 22-21 33s-20 24-37 39c-43-36-91-67-143-92l-10 12c55 38 97 73 127 103-25 20-60 45-105 77l8 13c38-17 80-39 125-64M270 866c9-8 9-13 0-17-14-2-24-6-30-12-4-7-19-27-45-63-26-35-72-97-138-185l160 6c25 41 47 82 64 123l59-39c10-8 9-15-4-20-16-2-27-10-35-21-7-12-28-41-63-88-33-46-84-108-154-186l221 24 6-18c-88-18-145-30-170-37-24-7-47-18-69-33l-45 68c17 4 32 10 45 18 18 21 37 47 59 76 21 27 45 62 74 107-47-3-84-8-111-15-28-5-48-13-61-22L0 595c16 4 31 11 47 23 35 52 66 102 94 149 25 46 48 91 68 136l61-37m46-638 6-20-205-82c-28-12-51-28-68-46L4 138l312 90Z"/></symbol><symbol id="缢_G" viewBox="0 0 1000 1000" data-size="21"><path transform="matrix(1 0 0 -1 29 927)" d="M463 347h303l29 31 45-39c8-2 12-6 12-12-1-2-10-10-28-25V33h26l35 47 53-53c1-1 3-4 3-7 0-8-3-12-11-12H361c-11 0-33-2-64-8l-18 33h125v329l59-15M453 33h76v288h-76V33m125 0h80v288h-80V33m129 0h68v288h-68V33m-39 614h119l37 49 57-54c2-3 3-6 4-10 0-8-3-12-10-12H463c-14 0-37-2-68-8l-20 35h262c32 55 66 123 101 204l63-30c6-8 5-13-2-15-6-3-14-6-24-10-7-4-21-20-41-47-17-27-39-61-66-102M428 835l10 12c52-30 86-53 103-69 18-15 27-31 29-47s0-28-7-37-16-13-28-11c-12 0-19 9-23 29-4 17-12 36-24 57-12 18-32 40-60 66m95-258c45-26 68-41 69-45 0-4-1-6-2-8-2-1-9-2-20-3s-33-20-64-57c-32-37-88-91-168-160l-12 15c80 80 145 166 197 258m163-31 7 16c49-23 86-44 114-63 27-18 48-35 64-53 14-16 20-33 18-50s-10-26-24-28c-11-2-23 7-35 28-11 20-26 42-45 66-19 23-53 51-99 84M260 827c10-8 10-14 0-17-14-5-24-10-30-16-6-7-21-27-44-63-23-35-66-95-127-177l170 11c33 51 59 100 80 147l62-37c8-6 7-12-2-18-15-3-27-10-35-21s-34-45-78-104c-45-59-96-125-152-197l203 31 4-19c-94-24-151-39-172-47-22-6-43-18-63-35l-45 66c17 4 34 11 51 22 18 20 36 44 57 72 17 27 44 66 80 117-61-8-102-16-123-23-22-7-41-16-57-28L0 554c18 4 33 13 47 25 40 60 71 111 92 154 21 41 37 82 50 121l71-27m60-637 6-19-197-78C98 78 74 63 59 45l-45 61 306 84Z"/></symbol><symbol id="缣_G" viewBox="0 0 1000 1000" data-size="21"><path transform="matrix(1 0 0 -1 36 965)" d="M633 769h154l37 46 59-54c2 0 3-2 4-6 0-8-4-12-12-12H668V632h82l27 31 51-33c5-4 7-8 8-12 0-2-9-10-25-21V497h23l29 41 53-49c2 0 3-2 4-6 0-7-4-11-12-11h-97v-67l3-62c0-11-6-20-19-28-14-6-25-9-35-9v25h-61c22-54 43-94 65-121 21-25 45-47 74-64 27-17 57-28 90-35V94c-20 0-37-1-49-4s-25-12-41-26c-27 24-50 46-67 66-15 19-31 43-46 72-16 27-32 70-47 129h-10V113l4-72c0-8-7-16-20-23-13-8-26-12-37-14l4 109v218H516V107l4-70c-1-9-8-17-22-25-12-8-23-12-35-12l4 111v195c-48-73-93-131-137-174-44-42-90-77-139-105l-7 12c42 38 84 79 125 122 39 43 79 100 121 170h-34c-15 0-31-3-46-8l-24 33h141v116H355c-13 0-33-3-60-8l-22 33h194v109h-74c-14 0-26-2-36-5l-23 31h133v111h-76c-14 0-36-2-67-8l-15 34h295c42 63 74 117 93 162 46-22 71-34 73-37v-8c-1-4-8-7-20-8-12-2-25-10-39-24-12-14-38-42-78-85m-14-137v111H516V632h103m-103-26V497h103v109H516m152 0V497h92v109h-92M516 472V356h103v116H516m152 0V356h92v116h-92M400 911l8 12c41-16 72-31 94-47 19-15 31-30 35-45 5-14 3-25-4-35-6-11-15-15-27-14-12 0-20 8-24 24-3 15-10 31-19 47-9 15-29 35-63 58m-136-31c9-8 9-14 0-18-13-2-22-6-28-11s-25-31-56-79c-32-46-69-100-112-160l143 2c21 37 41 76 59 115l66-39c8-5 5-11-8-17-15-4-28-13-37-26-10-13-33-44-68-93S143 446 88 378l232 39 4-21c-94-24-154-40-181-49-27-10-54-22-80-37l-42 68c15 3 29 8 43 16 20 22 40 48 59 78 19 28 45 69 78 121-55-6-93-13-113-20-20-6-37-13-51-23L0 618c20 5 36 11 49 20 25 34 52 78 80 131 27 52 49 101 64 146l71-35m66-617 6-20-219-92c-20-11-41-25-62-42l-43 64 318 90Z"/></symbol><symbol id="缤_G" viewBox="0 0 1000 1000" data-size="21"><path transform="matrix(1 0 0 -1 31 967)" d="m844 792 31 35 53-53c11-8 11-15 2-21-21-2-38-6-51-12-12-6-33-22-65-49l-11 8 41 65H418c0-26-3-47-8-61-4-14-12-25-23-33-10-7-20-9-32-6-12 4-17 12-15 23-1 12 4 23 14 34 9 9 17 22 25 39 8 15 14 43 17 84h22v-53h426M479 278h185v188H479V278m91-93c8-8 6-14-6-18-11 1-21-1-29-4-8-4-40-26-96-63C384 61 328 27 271 0l-5 18c83 54 166 124 248 208l56-41m98 27c80-25 135-48 164-66 29-19 48-35 57-48s13-26 13-39c1-14-2-24-9-30-8-6-15-8-20-6-6 0-12 4-18 12-5 6-13 16-23 29-8 14-25 32-51 54-24 23-64 49-121 78l8 16m10 422c-47-6-114-16-199-30V493h310l41 49 61-61c5-8 4-13-6-15H715V278h121l39 49 57-56c9-12 7-19-8-20H363c-13 0-30-3-50-8l-16 35h129v385l54-35c103 21 192 47 266 76l53-58c2-8 0-12-6-12-7-1-16 0-27 4-12 3-41 2-88-4M521 921l6 14c28-7 52-16 75-28 22-10 38-21 48-33 10-10 16-20 18-29 2-10 1-19-2-26-4-6-8-11-14-15-6-3-13-4-21-2s-14 8-18 17c-4 8-8 17-13 28-6 9-15 21-26 33s-29 25-53 41m-265-55c10-8 10-13 0-17-14-4-24-9-29-16-4-7-20-32-47-74-26-41-63-97-114-166l159 8c13 25 29 56 46 93l63-39c8-8 7-14-4-19-12-3-21-8-29-16-8-7-28-34-61-80-32-45-81-106-148-184l267 41 4-21c-128-29-203-48-226-55-22-6-44-17-67-35l-49 68c19 6 36 14 49 22 18 21 37 46 59 74 21 28 49 70 86 127-59-7-101-14-125-21-23-6-42-14-57-24L0 599c18 4 35 11 53 23 33 53 60 101 82 145 19 42 36 86 51 130l70-31m86-650 4-20-221-76c-31-14-55-30-74-46L8 146l334 70Z"/></symbol><symbol id="缥_G" viewBox="0 0 1000 1000" data-size="21"><path transform="matrix(1 0 0 -1 43 953)" d="M357 858h442l41 47 56-54c8-10 6-17-5-20H711V712h74l29 37 53-37c4-2 6-4 6-6 1-4-8-12-27-23v-98l4-63c0-11-4-20-12-27-7-6-20-12-39-16v45H439v-19c0-10-5-18-17-26-12-7-24-11-35-11l4 101v176l47-33h93v119h-92c-13-1-31-4-56-10l-26 37m82-306h92v133h-92V552m139 0h86v133h-86V552m133 0h88v133h-88V552m-47 160v119h-86V712h86M395 431h351l33 37 55-49c2-2 3-4 4-6 0-6-4-8-12-8H471c-13 0-30-4-51-9l-25 35m-73-121h496l37 44 57-54c5-7 2-12-10-16H645V92c0-31-7-53-22-67-13-12-30-20-51-25-4 21-17 37-41 47-22 10-47 18-74 25l6 18c64-14 103-20 115-18s18 14 18 36v176H404c-13 0-36-2-66-8l-16 34m199-98c7-6 6-12-3-18-10 1-19 0-26-4-6-3-27-20-62-50-36-31-94-72-174-122l-12 15c81 59 154 131 219 214l58-35m178 33c45-23 84-47 117-70 34-24 55-43 65-59 9-13 14-25 14-36 0-10-1-17-4-23-4-7-9-11-16-14-6-2-12-1-20 2-7 4-14 14-21 29-8 16-21 36-41 62-20 24-55 56-104 95l10 14M264 870c9-8 9-14 0-17-12-2-22-6-30-12-6-5-23-29-50-74-28-46-67-104-118-174l159 6c27 53 48 99 64 136l66-35c11-8 10-14-3-19-17-4-28-11-34-20-4-8-25-41-62-98-35-55-86-120-152-195l232 31 2-21c-111-22-178-37-199-47-20-8-39-18-59-31l-47 66c17 5 33 11 49 20 18 21 36 45 57 74 19 27 45 66 76 117-61-7-102-14-121-21-20-6-37-14-53-24L0 593l39 13c42 57 74 109 96 157 21 45 41 91 58 140l71-33m103-633 6-17-242-96c-24-11-45-25-65-42l-43 65 344 90Z"/></symbol><symbol id="缦_G" viewBox="0 0 1000 1000" data-size="21"><path transform="matrix(1 0 0 -1 34 947)" d="m418 882 62-33h256l30 31 48-37c8-4 12-9 12-14 1-2-10-10-33-23v-96l4-74c2-8-4-16-18-24-13-6-26-9-37-9v21H469v-4c0-3-7-8-20-16-11-6-23-9-35-9l4 88v199m51-231h273v71H469v-71m-123-58 50-30h403l21 32 51-41c6-3 9-7 10-14 0-3-10-8-29-16v-99l3-55c2-10-3-18-15-25s-24-10-37-10v37H396v-14c0-5-6-12-19-19-14-6-25-9-35-8l4 90v172m50-196h102v141H396V397m149 0h105v141H545V397m154 0h104v141H699V397M223 20c84 17 153 37 207 58 52 22 95 44 131 68-48 35-86 81-114 138h-41l-23-6-20 34h342l27 29 63-47c8-8 7-14-2-18-16-4-25-7-29-11-5-4-19-18-43-41-24-24-53-50-88-78 34-19 68-32 101-40 33-7 61-12 84-14 22-2 60-5 114-10V63c-19 0-36-2-51-8-14-4-26-14-37-30-59 11-106 24-141 39-33 14-68 32-105 54-47-28-99-53-157-73-56-19-128-34-216-45l-2 20m248 266c35-47 76-86 123-117 44 35 82 74 113 117H471m-2 461h273v76H469v-76M270 864c9-8 9-13 0-17-14-4-24-9-30-14s-23-29-52-74c-30-44-71-103-124-178l165 8c31 54 54 99 68 137l66-38c9-7 7-14-4-19-13-4-23-10-29-18-6-7-31-41-74-103-43-63-98-131-166-205l197 29 4-19c-88-22-143-36-166-41-21-7-44-17-66-32l-41 59c17 4 34 11 50 21 20 22 41 47 63 77 21 29 51 73 88 130-66-11-108-20-127-27-20-5-36-12-49-21L0 581c20 4 37 14 53 29 33 51 62 101 88 151 23 48 42 92 56 133l73-30m80-652 5-20-238-86C87 96 64 82 49 64L2 124l348 88Z"/></symbol><symbol id="缧_G" viewBox="0 0 1000 1000" data-size="21"><path transform="matrix(1 0 0 -1 45 949)" d="M266 864c9-8 9-13 0-17-13-2-24-8-34-18-7-8-23-27-46-58-22-32-63-86-123-165l173 10c26 44 45 85 59 121l66-35c9-6 7-12-4-19-13-1-23-6-29-14-4-9-27-41-66-98S168 442 98 356l228 38 4-20c-100-23-162-40-187-49-26-8-50-19-73-35l-45 66c18 5 35 12 51 20 26 27 49 58 70 92 23 33 49 74 79 123-62-8-104-16-127-24-24-5-43-13-57-23L0 606c18 4 35 13 51 28 41 62 71 111 92 146 17 35 35 73 52 114l71-30m64-627 8-19-219-98c-22-12-43-26-62-44L8 138l322 99m53 660 55-35h349l26 34 50-40c8-3 12-8 12-13 0-3-10-13-31-28V667l4-70c1-11-4-20-16-28-10-7-23-11-37-11v33H434v-12c0-8-7-16-20-21-14-7-25-10-35-10l4 103v246m51-281h152v100H434V616m203 0h158v100H637V616M434 741h152v96H434v-96m203 96v-96h158v96H637m-51-293c-12 0-63-29-154-88l203 2c41 28 81 62 121 102 40-28 59-45 58-51 0-5-1-7-5-8h-16c-8 0-33-12-74-37-41-24-81-47-119-68-40-23-94-51-162-86l341 19c-16 14-40 31-72 51l8 14c64-24 111-45 139-65 27-19 42-37 46-53 4-15 4-27-2-35-6-9-15-13-25-12-10 2-18 10-23 24-6 14-20 31-41 53l-168-14V92c2-25-4-45-18-61-13-16-34-26-62-31-4 16-13 29-26 39-12 9-39 19-80 31l6 16c51-12 85-17 103-16 18 0 27 6 28 18v200c-55-4-98-9-129-14-31-3-61-10-90-21l-35 62c27 2 57 7 88 16 64 35 123 70 179 106-92-8-146-14-162-18s-33-10-50-18l-28 63c22 0 41 5 57 15 43 30 86 65 129 106 43-16 66-27 66-31 0-5-2-7-6-8s-12-1-25-2M451 226c44-26 66-40 67-43 0-4-1-7-2-8-2-2-9-4-22-6-14-1-43-18-88-51-45-30-105-65-177-104l-10 17c66 45 116 82 150 113 33 29 61 56 82 82m246-12 6 14c40-14 76-30 108-47 30-18 54-36 72-55 17-18 27-36 27-56 0-19-6-30-19-33-14-4-26 4-36 24-9 17-26 40-48 67-22 25-59 54-110 86Z"/></symbol><symbol id="缨_G" viewBox="0 0 1000 1000" data-size="21"><path transform="matrix(1 0 0 -1 41 957)" d="m340 890 43-28h137l21 30 45-30c5-4 8-8 8-11s-6-10-18-20V694l4-80c0-8-6-15-17-23-10-8-22-12-36-12l4 111v147H385V661l4-70c-1-8-8-16-22-26-13-8-24-11-31-9l4 99v235m92-106c42-14 64-23 66-27s2-7 0-8c-2-2-10-6-25-12 2-67 0-129-6-185 29-9 53-19 70-31 18-11 29-21 35-32 4-10 5-21 4-31-2-8-8-14-17-18-8-2-16 3-24 16-6 11-14 23-23 37-10 13-26 28-49 43-25-64-74-115-147-152l-9 12c37 31 66 61 88 91 21 30 33 67 35 112 1 44 2 106 2 185m201 102 43-28h131l21 30 45-30c5-4 8-7 8-11 0-3-6-9-18-20V675l4-65c0-8-6-17-17-25-10-7-22-10-36-10l4 94v164H678V675l4-65c-1-7-8-15-22-23-12-7-23-10-31-10l4 104v205m94-96c41-14 62-22 64-25 2-4 2-7 0-8-2-3-10-8-23-16 1-70-2-127-10-172 29-11 56-26 82-43 25-17 41-32 49-45 6-13 7-26 6-37-2-9-8-16-18-19-10-2-18 4-25 17-8 14-19 31-32 51-11 18-35 37-70 59-25-68-72-118-141-151l-9 12c36 29 64 59 84 88 17 27 29 62 35 103s9 103 8 186M543 386c-12-2-22-16-31-41h308l37 47 55-51c2-3 4-6 6-10 0-8-4-12-12-12H754c-26-62-59-116-98-162 53-16 93-30 121-43 26-11 47-23 61-36 14-12 21-25 19-41 0-15-5-23-17-25-10-1-24 6-43 21-18 14-40 30-67 47-26 17-61 33-103 48-40-32-91-59-154-81S332 10 238 0l-2 16c102 22 178 43 229 62 49 20 89 42 121 68-66 21-125 41-176 58 10 18 25 56 45 115H338c-14 0-36-2-67-7l-15 33h209c6 19 15 50 25 92l69-28c9-4 11-9 7-13-3-4-11-7-23-10m-88-172c57-16 109-30 158-43 29 30 59 79 90 148H500l-45-105m-127 2 6-18c-148-47-232-76-252-86-18-9-32-18-43-28L2 147l326 69m-74 664c4-2 5-6 4-12-1-2-4-4-10-6-16 0-41-28-76-84-35-54-73-109-115-164l154 6c19 35 35 68 47 100 44-27 67-42 68-45 1-2 1-4 0-6 0-2-4-4-10-6-5-2-13-6-23-14-8-5-31-35-70-91-38-55-88-120-151-194l198 30 3-20c-54-14-98-25-132-33s-63-22-88-41l-43 68c10 0 25 6 43 18 37 40 88 112 152 215-55-9-92-16-111-22-19-4-38-12-57-23L0 616c16 2 29 10 41 24 12 13 35 51 70 115 34 62 58 115 75 158l68-33Z"/></symbol><symbol id="缩_G" viewBox="0 0 1000 1000" data-size="21"><path transform="matrix(1 0 0 -1 43 964)" d="M385 833h17l6-43h416l26 35c40-35 61-54 62-58 2-4 1-7-2-8-2-3-10-4-21-4-13 0-25-5-37-14-12-10-28-27-49-51l-14 10c12 22 23 44 33 67H408c0-14-2-28-6-43s-11-26-23-34-22-11-31-7-13 11-14 21c0 9 5 18 16 25 9 8 17 19 23 34 6 13 10 37 12 70m150 84 10 12c43-20 72-37 88-53 14-14 21-27 19-39 0-12-4-22-9-27-6-7-14-10-24-8-8 1-14 8-17 21-2 12-6 25-12 39-6 13-24 32-55 55m-14-238c12-6 12-12 2-18-13-1-29-14-46-39-23-34-45-74-69-121l31-12c4-2 6-4 6-8 1-2-6-7-21-17V124l4-85c0-8-7-17-20-25-12-7-23-12-33-14l4 108v346c-31-53-70-107-117-164l-12 12c37 57 74 122 111 195 35 72 68 143 98 211l62-29m-25-45h305l35 47 59-51c1-3 3-7 3-10 0-6-3-10-11-10H703l-43-127h108l29 36 53-40c2-3 3-6 4-7 0-4-8-11-24-20V126l4-75c0-7-5-13-14-20-7-6-19-11-35-17v74H586V43c0-10-6-19-18-27-11-8-22-12-31-12l4 112v399l45-32h47l17 127h-70c-14 1-34-2-60-9l-24 33m90-524h199v164H586V110m0 188h199v162H586V298M248 868c4-2 6-6 6-10-2-4-7-7-14-9-11 0-29-20-52-59-24-40-67-102-129-186l158 2c22 37 40 73 54 110l63-41c4-3 4-6 0-10-1-1-4-3-10-4-9-1-22-11-39-31-60-88-125-171-197-248l201 27 2-15c-74-20-126-34-156-41-30-8-55-19-76-32l-38 61c21 1 40 10 57 25 8 10 24 30 47 59 21 29 49 70 82 123-55-9-94-16-115-22-22-5-41-14-57-25L0 603c21 7 39 21 55 41 52 85 95 170 129 255l64-31m76-642 6-16c-145-46-226-74-242-84s-31-20-43-28L8 153l316 73Z"/></symbol><symbol id="缪_G" viewBox="0 0 1000 1000" data-size="21"><path transform="matrix(1 0 0 -1 22 953)" d="M248 876c10-8 10-14 0-18-12-4-21-8-29-13-7-5-22-28-45-69-24-41-63-97-117-170l172 12c22 39 42 78 60 119l61-33c10-6 9-12-4-19-12-4-22-10-30-18-5-8-27-39-64-92-38-53-92-115-162-185l256 54 4-19c-129-40-202-63-221-69-19-5-40-16-63-33l-41 65c19 4 33 11 43 19 16 14 36 35 59 65 23 27 54 68 92 123-53-7-92-14-117-22-26-8-45-17-59-27L0 608c18 4 31 12 41 24 39 60 68 109 88 148 17 39 34 80 51 125l68-29m66-641 6-19-207-78c-21-13-43-27-66-42L8 157l306 78m262 108c-41-31-104-65-189-104l-10 16c90 49 174 113 252 193 32-24 49-39 51-45 0-5-1-8-2-9-3 0-10-1-22-2-11-2-38-19-80-49m26-267C527 45 432 20 314 0l-1 18c119 30 218 64 298 102 80 40 147 87 203 143 37-30 56-47 57-53 0-4-2-7-6-8-4-2-11-2-19-2s-32-12-73-37c-39-25-97-54-171-87M328 862h201l34 32 46-40c6-3 8-7 8-11 1-4-8-12-27-24V712l4-72c0-10-6-19-18-26-10-6-21-10-33-10v98c-59-47-100-79-121-96-20-16-39-37-57-62l-47 41 225 144v108H396c-21-2-37-5-46-8l-22 33m27-58 8 9c26-12 47-23 61-33 13-10 22-21 27-33 6-10 6-21 0-31-4-11-12-16-21-16s-15 5-20 16c-4 12-8 23-14 35-5 12-19 29-41 53m288-567c-67-41-161-82-282-125l-6 18c151 62 275 138 374 226 34-27 52-43 54-48 2-4 0-7-4-8-4-2-11-3-21-2-11 0-49-20-115-61m5 338c3-4 3-6 0-8 0-4-6-6-19-7 37-36 70-63 100-81 28-17 59-33 91-46 34-15 78-24 135-28v-17c-22-2-39-7-51-14-11-6-21-15-29-25-23 9-51 23-82 43-31 17-61 37-88 58s-59 53-94 96c-45-44-90-85-136-121-47-35-116-76-205-123l-8 13c76 47 136 92 181 133 45 39 94 92 147 158l58-31m-15 289h170l33 32 47-36c5-4 8-7 8-11s-9-12-28-24V657l4-49c0-9-6-18-17-25s-22-10-34-10v131c-48-37-78-60-89-70s-26-28-45-53l-43 43 177 105v110H701c-21-2-37-5-47-8l-21 33m6-58 7 9c26-11 45-23 59-35 13-10 22-21 27-33 4-10 4-21-2-31-4-10-11-15-21-14-10 0-16 7-20 22-3 11-8 23-13 35s-17 27-37 47Z"/></symbol><symbol id="缫_G" viewBox="0 0 1000 1000" data-size="21"><path transform="matrix(1 0 0 -1 36 963)" d="m379 669 49-27h328l29 31 45-35c6-4 9-9 10-14 0-3-8-10-24-21V450l4-64c0-13-6-22-19-28-13-5-24-8-33-7v29H625v-80h193l32 41 56-49c2-2 4-5 4-8 0-4-4-7-12-8H658c21-33 44-62 69-86s48-42 70-54c21-13 42-21 62-27 20-4 43-7 69-9V80c-16 0-30-2-43-6-13-2-27-13-43-33-35 22-65 43-88 64-24 20-45 44-65 74-19 28-37 61-52 97h-12V120l4-77c1-10-5-19-16-25-9-8-23-14-41-18l4 126v145c-34-43-78-86-133-129S311 57 211 16l-8 15c83 45 149 86 195 122 45 37 86 78 125 123H375c-11 0-32-2-62-7l-16 31h279v80H428v-4c-1-10-4-18-10-23-7-6-21-11-43-14l4 109v221m49-266h148v92H428v-92m197 92v-92h143v92H625m-197 24h148v99H428v-99m197 99v-99h143v99H625M332 778c37 50 68 100 92 149 42-22 64-35 66-39 1-5 0-8-4-10-2-1-7-1-17-2-8-1-20-8-35-22s-38-39-69-74c31-13 54-25 69-35s26-21 33-33c6-12 6-25 0-37-7-13-15-18-26-16-10 0-18 8-25 26-6 15-14 29-25 43-10 13-30 29-59 50m385-4c31 47 60 96 88 149 38-22 58-35 60-39 1-4 0-7-4-8-2-1-7-1-15-2-7-1-17-8-32-21-13-13-35-38-68-75 33-16 58-28 74-37 15-8 28-19 37-31s11-25 6-37c-4-13-11-19-23-20-10 0-20 8-29 26-10 17-22 32-36 45-13 13-33 30-58 50M254 876c10-8 10-14 0-18-16 0-29-9-41-25s-31-42-55-78c-23-35-55-81-95-139l156 6c17 29 34 62 51 98l60-41c10-8 9-15-4-20-15-2-29-10-41-25-12-14-35-45-70-94-35-47-81-103-137-166l240 18v-20c-105-16-170-27-193-33-23-5-48-14-74-27l-39 62c15 4 30 10 45 18 20 20 41 45 62 74 21 28 51 73 90 133-53-8-90-15-111-20-22-4-41-12-59-21L0 618c20 3 36 12 49 26 34 50 62 97 84 138 19 41 37 84 55 127l66-33m86-650 6-20-231-78c-31-15-53-29-66-42L8 146l332 80m183 564c37 47 65 92 84 135 43-22 65-35 67-39 0-5-1-8-4-10-2-1-8-1-18-2-7 0-18-6-31-18-12-9-33-31-64-64 30-18 53-31 68-41s25-22 31-35c4-13 4-25-2-37-6-13-15-18-25-16-10-1-18 8-24 25-5 16-13 31-23 45-10 13-29 32-59 57Z"/></symbol><symbol id="缬_G" viewBox="0 0 1000 1000" data-size="21"><path transform="matrix(1 0 0 -1 35 962)" d="m295 423 55-35h103l27 31 51-39c4-1 6-5 6-10 0-4-10-12-31-21V185l4-65c2-8-4-16-18-22-13-6-24-9-31-10v58H342v-46c0-8-6-16-18-24-11-8-22-11-33-10l4 111v246m47-254h119v193H342V169m357 426c52-20 78-32 78-35s0-6-2-8-12-8-31-18v-55c2-112-4-195-17-250 68-41 115-72 140-95 23-22 37-42 43-60 6-15 6-30 0-45-4-11-12-17-23-17s-22 13-33 39c-10 25-25 50-43 73-20 25-50 53-90 84-20-54-51-97-94-130-43-32-96-58-158-78l-6 18c70 33 123 68 160 106 37 36 59 85 66 145 8 59 12 130 10 212v114M588 704l43-31h43l25 150H598c-14 0-32-4-53-10l-24 36h307l41 48 57-54c2-3 3-5 4-8 0-8-4-12-12-12H754l-55-150h110l23 37 59-43c4-4 5-7 5-8 0-4-11-13-33-29V366l4-80c0-10-6-18-17-25-12-6-24-10-36-12l4 119v279H635V376l4-98c2-9-5-19-20-29-14-9-25-13-35-12l4 127v340M275 212l4-20-166-52c-36-13-60-27-74-42L2 157l273 55m-31 678c10-8 10-14 0-18-12-4-21-8-27-14-5-4-22-35-51-91s-61-109-96-161h121c14 28 26 57 36 88l58-33c7-6 6-12-4-17-10-2-17-6-23-12-4-6-18-30-41-72-24-43-65-105-123-184l177 18 2-18c-71-14-118-25-142-33-23-9-46-20-68-33l-42 62c18 4 36 11 53 22 14 16 31 43 51 78s38 72 57 111c-39-4-69-8-88-14-20-4-37-11-53-21L0 612c18 4 35 10 53 20 21 32 45 78 70 137 23 56 41 107 55 152l66-31m213 6c6-2 7-6 4-12 0-1-2-2-6-4l-31-14V720h60l32 39 50-47c2 0 4-2 4-6 0-8-4-12-11-12H424V521h43l31 41 57-47c2-3 3-6 4-8 0-8-4-12-12-12H340c-14 0-36-2-67-8l-15 34h119v173h-61c-13 0-31-2-52-7l-16 33h129v205l80-29Z"/></symbol><symbol id="缭_G" viewBox="0 0 1000 1000" data-size="21"><path transform="matrix(1 0 0 -1 21 973)" d="M258 888c10-8 10-14 0-18-14-4-24-8-29-14-6-4-24-30-53-78-30-46-67-100-113-162l167 4c17 27 34 57 49 88l59-39c10-8 9-14-4-20-15-2-28-9-39-23-10-14-30-40-61-78-29-39-78-97-148-174l228 18 2-20c-100-14-162-25-185-31s-46-16-68-31l-40 66c15 4 29 10 43 18 20 22 41 48 65 78 21 27 51 69 88 127-56-8-95-16-119-24-24-6-42-13-55-23L0 618c20 6 36 15 51 28 27 44 53 88 76 132 22 43 42 90 61 143l70-33m84-659 4-17-223-66c-32-16-56-31-72-44l-37 67 328 60m115 122h279v91H457v-91m0 115h279v97H457v-97m-213-37c44 41 85 84 125 129 39 45 68 83 86 115 18 29 37 66 59 111H396c-13 0-35-2-66-8l-16 34h209c28 56 45 101 53 136l65-35c5-2 9-5 9-8 6-4 0-9-19-13-11-4-22-16-33-36l-20-44h215l39 46 51-48c8-4 12-9 12-14 0-7-3-10-10-10H645c24-54 54-100 89-138 32 29 61 64 88 105 33-23 50-37 51-41 0-4-1-7-2-8-3-1-8-1-16-2-8 0-21-7-39-19-17-12-39-30-64-53l43-35c58-39 112-61 162-67v-17c-14 0-27-2-41-6-13-3-24-12-33-27-30 15-63 38-98 68V411l4-84c1-8-4-17-16-25-9-8-21-13-35-14v37H621V105c1-35-4-59-16-74-12-11-35-21-68-31-2 16-6 26-12 31-4 6-13 12-27 18-12 6-33 14-62 23l3 18c45-10 79-16 102-18 22-2 32 13 29 43v210H459v-13c-2-8-8-14-18-18-9-3-22-7-37-10l4 104v154c-40-38-92-81-156-127l-8 14m72 316 10 10c39-24 65-42 76-55 10-12 15-25 16-37 0-12-3-23-8-31-6-8-14-11-23-8-10 3-16 11-18 25-2 13-6 26-12 38-5 9-19 29-41 58m104-590c-25-25-84-71-176-137l-12 13c85 74 154 150 207 228 45-30 67-47 65-53-2-5-6-7-12-6-6 0-13 0-21-2-9-2-26-16-51-43m287 102c50-31 87-57 109-76 23-21 41-41 55-60s19-37 16-55c-4-17-13-27-26-29-13 0-23 9-29 26s-17 39-31 65c-15 25-49 64-104 117l10 12M564 780c-35-71-74-134-119-191h285c-31 33-53 62-66 88-12 24-29 59-49 103h-51Z"/></symbol><symbol id="缮_G" viewBox="0 0 1000 1000" data-size="21"><path transform="matrix(1 0 0 -1 28 963)" d="m797 292 58-37c6-2 8-6 8-12 1-1-8-8-27-21V100l4-61c0-10-5-18-16-23-10-8-22-12-37-14v64H465V33c2-7-3-14-14-21-11-8-24-12-39-12l4 105v187l45-35h309l27 35M465 92h322v139H465V92m-4 817 8 10c32-16 58-31 78-47 19-16 31-29 35-41s2-22-6-31c-6-9-15-13-25-12-9 1-16 10-22 25-4 14-11 29-21 45-10 14-26 31-47 51m-39-414 8 10c45-23 74-42 88-57 13-15 20-28 21-37 0-10-3-18-8-25-6-9-13-12-23-10s-16 8-18 18-8 24-17 43c-9 17-26 37-51 58m404 281 31 41 57-50c1-2 2-5 2-8 0-5-4-7-12-8H656v-94h108l29 39 55-47c1-2 2-5 2-9 0-5-3-8-10-8H656v-82h180l33 41 57-51c2-2 3-5 4-8 0-4-5-7-14-8H656V362h45c31 57 57 106 78 147 35-20 53-31 55-33 2 0 3-2 4-6 0-4-5-7-14-10-9-2-20-9-33-20-14-11-36-37-66-78h119l35 49 60-60c2-2 4-4 4-6 0-6-4-9-11-8H389c-13 0-31-3-55-8l-20 33h295v162H424c-13 0-35-2-67-7l-19 33h271v82H494c-14 0-37-3-68-8l-20 33h203v94H428c-15 0-35-3-63-8l-23 33h328c27 51 51 101 72 151 45-24 68-37 69-41 0-5-2-8-6-10-4-1-10-2-18-4-8-3-16-8-25-16-8-7-30-33-67-80h131M346 243l6-15c-148-57-228-90-243-100-13-9-28-19-43-30l-43 57 323 88m-82 629c4-2 5-6 4-12-2-2-5-4-10-6-17 0-44-27-80-80-37-52-78-107-123-164l177 10c21 26 37 54 49 86 43-25 65-40 67-43 0-3-1-6-2-10-3-2-8-4-16-4-6 0-14-5-21-13-6-6-28-32-65-76-37-43-88-103-152-180l224 37 4-18c-71-16-125-30-162-43-36-12-67-25-92-39l-45 63c12 3 30 12 57 25 35 41 85 106 151 198-69-12-112-21-131-26-20-4-39-12-59-23L0 612c15 2 29 10 43 26 14 13 39 52 76 115 35 61 61 113 76 154l69-35Z"/></symbol><symbol id="缯_G" viewBox="0 0 1000 1000" data-size="21"><path transform="matrix(1 0 0 -1 52 962)" d="M447 917c41-16 73-31 94-47 19-15 29-30 31-45s0-27-8-35c-5-8-13-12-23-10-8 2-15 8-20 18-3 10-9 23-17 41-8 15-29 37-65 66l8 12m293 8c43-24 65-37 65-41 2-6-3-10-14-12s-22-8-33-18c-10-8-35-37-76-85h127l27 37 55-37c4-4 5-7 5-8 0-4-8-13-25-26V556l4-77c1-13-5-24-18-31-11-6-24-10-37-11v54H422v-35c0-4-6-10-18-18-11-6-23-9-35-9l4 134v245l53-39h226c34 52 63 104 88 156M422 517h168v226H422V517m217 0h181v226H639V517m-211-94 52-31h266l25 39 59-43c4-4 6-7 6-8 0-5-10-14-31-27V118l4-77c-1-7-6-14-16-21-10-8-23-13-39-16v72H477V35c0-8-7-15-20-23-12-8-23-12-33-12l4 118v305m49-321h277v120H477V102m0 145h277v119H477V247m-36 441 10 10c37-23 64-43 80-60 15-16 20-32 18-47-2-16-7-26-14-29-8-4-15-5-23-2-8 2-13 9-14 23 0 13-4 28-12 45-7 15-22 35-45 60m217-132c33 52 59 103 78 150 41-19 63-31 65-35 0-5-1-8-4-10-2-2-8-4-18-6-9-2-22-11-37-27s-39-43-70-82l-14 10M264 882c9-8 9-14 0-18-14-2-24-6-30-11-5-5-20-27-43-67-21-38-64-102-128-191l156 8c28 50 51 95 66 136l67-35c10-6 9-12-4-19-15-1-26-6-34-16-7-10-31-47-72-109-39-63-90-131-152-206l242 38 4-22c-109-23-176-39-199-47s-46-21-69-39l-50 72c19 4 36 10 50 18 21 23 42 51 63 82 21 29 47 70 78 121-46-6-81-12-104-19-21-6-42-15-64-26L0 601c19 3 35 11 49 23 33 50 62 99 86 148 21 49 40 96 56 139l73-29m95-643 6-17-232-90c-22-12-43-27-63-44l-45 63 334 88Z"/></symbol><symbol id="缰_G" viewBox="0 0 1000 1000" data-size="21"><path transform="matrix(1 0 0 -1 34 945)" d="M328 841h488l34 43 50-49c12-12 11-18-2-20H395c-13 0-29-2-49-7l-18 33m43-444 61-37h351l26 36 52-40c4-3 6-7 6-11 1-4-8-13-27-28V173l4-57c2-9-3-18-14-27-11-7-24-12-39-15v25H420V89c-1-1-4-3-10-7-10-10-25-15-45-16l6 97v234m49-275h156v96H420v-96m207 0h164v96H627v-96M420 241h156v96H420v-96m207 96v-96h164v96H627M270 33h566l37 45 55-53c2-2 3-4 4-5 2-8-1-12-8-12H352c-15 0-38-2-69-8l-13 33m119 747 60-35h317l33 35 39-37c10-6 15-12 16-15 0-4-11-13-32-28V593l4-74c2-7-2-14-13-22s-24-14-40-16v26H438v-6c-4-10-11-18-20-22s-20-7-33-9l4 103v207m49-250h136v82H438v-82m185 0h150v82H623v-82M438 636h136v86H438v-86m185 86v-86h150v86H623M299 448h529l33 45 63-55 4-3c4-8 2-12-6-12H375c-15 0-34-3-57-8l-19 33m-41 408c10-7 10-13 0-17-13-2-22-6-28-12-4-4-21-28-50-72-28-43-71-98-127-166l189 10c18 33 35 68 49 105l68-39c9-8 8-14-4-19-15-2-27-9-35-20-8-10-33-44-74-102-40-56-92-123-156-199l226 29 4-19c-111-23-175-39-193-47-18-6-37-17-57-31l-47 64 43 20c20 23 43 54 71 92 27 37 58 85 93 142-60-8-102-15-125-23-23-7-43-15-60-26L0 593c13 3 27 11 43 25 34 47 64 93 90 139 23 44 43 88 60 133l65-34m66-689 6-20-215-75C92 59 70 45 51 29L10 93l314 74Z"/></symbol><symbol id="缱_G" viewBox="0 0 1000 1000" data-size="21"><path transform="matrix(1 0 0 -1 21 958)" d="m504 847 43-34h111v104l76-27c4 0 6-3 6-8 1 0 0-2-4-6l-29-14v-49h102l23 32 47-32c8-5 13-9 14-11-1-4-10-13-28-26v-56l4-47c1-8-5-16-17-24-12-6-23-9-34-7v27H707v-76h154l30 41 60-51c2-2 3-4 4-6 0-6-4-10-12-10H502c-14 0-36-4-66-9l-16 35h238v76H551v-6c0-8-5-16-14-23-8-7-21-10-37-10l4 66v151m47-153h107v94H551v-94m156 94v-94h111v94H707M525 542l43-29h219l22 29 45-31c7-5 11-9 11-14 0-4-8-12-25-23v-43l4-47c0-7-4-13-12-20-8-6-21-10-39-11v27H574v-70h219l27 27 45-33c8-2 11-6 10-12 0-5-8-12-23-21v-61l3-55c1-9-5-18-17-25s-24-10-33-10v45H574v-23c0-10-6-18-17-24-12-6-24-9-36-8l4 133v299m49-352h231v96H574v-96m0 215h219v82H574v-82M305 860c32-17 59-35 80-52s34-32 39-45c6-14 8-26 6-35 0-10-4-19-12-26-6-6-14-9-23-8-10 2-17 12-20 32-3 17-10 35-21 54-11 18-30 41-57 69l8 11m-55-355h109l32 39 47-37c7-6 11-11 11-14 1-2-10-12-33-27V124c22-17 45-32 70-44 26-10 61-17 106-21 60-3 143-2 250 4l115 11V53c-20-2-36-8-49-18-11-8-18-17-21-29H707c-62 1-109 4-141 10-30 2-59 13-86 31-26 17-45 32-56 43-12 12-24 17-35 17-12 1-28-9-49-31-20-19-39-45-57-76l-51 49c46 28 92 55 137 81v351h-58c-14 0-28-3-41-9l-20 33m66-291 4-20-201-68c-32-13-55-27-68-42L8 147l308 67m-72 644c10-7 10-13 0-17-12-5-20-10-25-16-6-4-24-32-55-84-30-51-64-103-103-156l162 4c22 44 41 86 54 125l69-33c10-8 9-15-4-20-11-1-20-5-28-14-7-8-29-41-66-97-36-57-89-127-160-209l223 35 3-20c-98-21-160-37-185-46-24-9-47-20-68-34l-41 67c17 4 33 11 46 19 16 15 38 41 65 78 27 35 55 77 82 125-63-7-104-14-123-19-20-6-39-14-55-24L0 579l41 24c29 41 55 87 80 140 25 52 45 102 61 149l62-34Z"/></symbol><symbol id="缲_G" viewBox="0 0 1000 1000" data-size="21"><path transform="matrix(1 0 0 -1 21 966)" d="m443 915 55-37h217l31 37 45-39c6-2 9-6 10-12 0-2-9-9-28-19v-96l4-57c0-5-6-12-17-19-10-7-22-10-35-10v27H492v-5c0-9-6-16-19-22s-24-10-34-10l4 75v187m49-199h233v137H492V716m160-76 51-36h113l28 34 49-37c5-4 7-8 7-12 1-3-8-11-27-22v-80l4-52c-1-8-6-16-16-24-8-6-19-10-33-10v36H697v-10c0-4-4-9-13-14-8-4-20-6-36-8l4 86v149m45-180h131v121H697V460m-47-70c2-2 4-4 4-6 0-3-2-7-6-10l-23-10v-39h189l41 47 59-55c2-2 3-4 4-5 0-8-4-12-12-12H668c16-29 36-57 62-82 25-26 55-48 90-67s80-30 137-31v-20c-27 0-47-4-59-10-10-6-21-16-33-29-47 29-85 56-113 81s-52 52-72 82c-19 27-31 52-37 76h-18V122l4-85c0-8-7-16-20-23-11-9-23-13-35-14l4 122v166c-47-57-98-107-152-152-55-44-112-79-170-107l-8 14c57 41 109 81 156 120 45 40 86 85 123 137H389c-14 0-36-3-67-8l-15 33h271v92l72-27M352 642l50-36h112l23 32 49-32c5-3 8-7 8-11s-8-12-24-24v-90l4-43c0-7-6-14-15-21-10-8-21-12-34-12v32H396v-16c0-7-4-13-13-20-10-5-22-9-35-11l4 89v163m44-182h129v123H396V460M258 901c10-7 10-13 0-17-14-1-24-4-29-10-4-6-20-30-47-72-26-43-63-100-112-170l147 2c27 49 48 93 62 131l63-37c10-8 9-15-4-20-16-2-26-8-31-18-7-8-26-39-57-91-32-53-81-125-148-217l216 15 2-17c-102-16-163-27-183-33-20-7-41-18-65-34l-43 63 45 18c18 21 39 52 65 93 23 41 47 82 70 125-57-8-96-15-115-21-20-4-39-13-55-26L0 632c20 4 37 12 53 23 36 57 64 107 84 151 19 41 36 83 51 127l70-32m105-646 6-20-250-89c-20-11-40-24-60-41l-45 62 349 88Z"/></symbol><symbol id="缳_G" viewBox="0 0 1000 1000" data-size="21"><path transform="matrix(1 0 0 -1 36 952)" d="m383 528 53-33h310l24 29 48-29c6-4 9-8 10-14 1-2-6-9-21-19v-59l4-41c-1-6-6-13-16-19-9-7-22-11-39-14v24H604c23-51 48-96 76-135 52 37 95 71 129 103l54-41c3-6 3-9 0-11-4-1-9-2-17-2-9 0-23-4-43-12s-56-26-108-53c24-24 48-45 75-62 24-16 49-29 74-38 24-10 52-17 84-22V63c-28 0-47-2-57-8-8-6-19-14-31-26-43 26-81 53-113 82-34 29-60 59-79 89s-41 78-66 143c-25-30-53-61-82-92V88l123 67 10-15c-55-38-93-65-113-81-21-17-39-36-55-59l-53 47 41 27v134C381 142 302 88 217 45l-8 18c62 40 121 84 178 133 56 49 101 101 136 157h-91v-10c0-3-6-9-18-16-12-6-23-10-35-10l4 90v121m49-152h324v96H432v-96M303 593h525l33 43 57-51c2-3 3-6 4-10s-5-7-16-8H389c-14 0-36-2-67-7l-19 33m72 295 53-30h342l31 32 43-36c7-5 11-10 13-15 0-4-10-13-31-26v-66l4-76c1-9-4-16-16-22s-24-9-37-9v27H424v-10c0-6-6-11-18-17-11-5-23-8-35-8l4 111v145m49-196h88v141h-88V692m137 0h80v141h-80V692m128 0h88v141h-88V692M246 878c10-8 10-14 0-18s-17-8-23-13-22-31-49-78c-26-47-61-103-108-168l157 2c24 52 43 96 56 132l65-33c10-6 9-12-4-19-13-2-23-9-31-20-8-12-28-45-61-101-33-58-82-125-146-204l228 36 4-20c-109-25-172-42-188-49-16-8-35-20-56-37l-49 70c14 2 27 8 39 18 41 45 86 113 135 205-55-6-94-12-117-19-24-6-42-14-55-24L4 599c16 4 31 13 47 25 29 47 54 94 76 141 21 45 39 91 53 138l66-25m96-635 4-17-241-80c-22-13-42-26-62-41L0 171l342 72Z"/></symbol><symbol id="缴_G" viewBox="0 0 1000 1000" data-size="21"><path transform="matrix(1 0 0 -1 32 955)" d="M504 884c2-2 3-4 4-6 2-3-5-8-24-16-7-2-26-34-56-95h103l32 35 44-30c8-3 12-8 12-13 0-3-10-11-29-22V577l4-45c0-12-4-21-12-27s-19-11-35-14v28H371c1-12-3-21-10-26-14-8-26-12-37-12l4 102v215l49-31h29c19 71 30 119 32 142l66-25M371 542h176v86H371v-86m0 109h176v92H371v-92m190-248 31 39 53-46c1-3 3-4 3-4 2-8 0-12-7-12H414l-8-78h108l25 31 47-31c6-3 9-7 10-10 0-3-9-10-26-21v-92c0-43-8-74-25-91-18-19-39-31-65-37-1 17-9 31-23 41-12 8-28 16-49 24l6 14 47-14c23-6 39-5 49 4s15 29 15 61v97H402c-11-65-34-118-68-160-33-42-80-81-141-118l-9 10c46 38 84 74 111 110 27 37 45 72 55 108 9 33 17 84 21 152h-21c-14 0-28-3-43-8l-16 31h270m234 473c4-2 7-4 8-6 3-4 2-8-4-12l-20-9c-6-8-15-26-25-57-9-29-26-73-51-133h152l30 41 49-51c1 0 2-2 2-5 0-5-2-8-6-8h-67c-8-81-18-155-31-221-14-66-35-125-64-176 13-27 30-52 50-76 19-23 38-42 57-57 19-13 39-23 61-32V61c-18 0-34 0-47-2-12 0-21-6-26-16-27 30-50 58-70 83-18 25-33 51-47 76-28-42-60-78-98-110-37-32-82-61-132-88l-8 12c47 35 85 66 115 92 29 26 64 69 104 129-18 45-30 92-36 143-5 49-11 121-17 217-28-60-51-100-70-121l-12 5c38 78 68 151 90 219 21 67 38 134 50 203l63-27m25-242H691c8-102 16-174 24-217 6-43 17-90 33-141 19 45 34 96 45 153 11 56 20 125 27 205M412 507l8 8c23-15 40-28 51-39 9-11 15-20 19-28 3-8 2-16-4-25s-13-13-23-12c-11 2-17 8-20 18-2 10-4 21-5 31-2 10-11 25-26 47M229 874c4-3 7-6 7-10s-2-8-7-10c-15-2-30-19-45-50-16-31-57-97-123-198l134 6c19 34 38 70 57 108l53-33c8-4 9-8 6-12 1-2-2-4-10-6-13-4-28-18-45-43-67-100-127-182-180-244l194 23 1-15c-65-12-112-24-142-36-29-9-53-20-70-31l-36 63c16 3 29 10 40 19 9 10 25 32 48 65 22 32 47 74 77 125-46-8-77-15-92-20-16-4-34-13-55-27L4 606c16 4 31 12 43 26 47 72 87 162 119 269l63-27m58-627 4-16c-122-37-192-60-209-70-17-8-34-17-51-29L0 188l287 59Z"/></symbol><symbol id="缵_G" viewBox="0 0 1000 1000" data-size="21"><path transform="matrix(1 0 0 -1 35 966)" d="m381 466 55-33h271l27 33 55-39c4-3 6-5 6-8 0-4-9-12-25-25V274l3-62c1-7-4-14-15-22-11-5-24-9-39-11l4 92v138H428V278l4-76c0-10-7-19-20-27-12-7-23-10-35-10l4 115v186m224-125c6-4 8-8 8-12 1 0-8-6-27-17l-10-57c-8-69-38-123-90-161-50-39-133-71-248-94l-4 16c96 31 164 62 205 93 41 30 67 64 79 101 11 35 17 86 17 152l70-21m-13-168c103-26 170-47 199-66s47-38 53-56c4-17 2-30-6-37-8-8-16-11-24-10-8 3-19 13-33 29-13 18-34 36-60 55-28 19-73 41-135 67l6 18M336 296l8-18-213-105c-35-19-59-38-74-57l-47 59 326 121M217 894c10-8 10-14 0-18-12-5-20-10-26-16-5-4-22-31-48-80s-56-99-90-150l127 4c19 41 35 81 47 121l60-35c11-8 9-14-4-18-10-2-19-8-27-19s-24-39-49-86-68-116-129-205l221 35 4-20c-98-23-158-39-182-49-23-8-45-19-66-33l-41 67c13 4 27 11 41 19 15 15 34 43 56 84 22 39 41 78 59 117-36-4-64-9-84-15s-37-14-53-24L0 638c12 1 23 6 35 13 27 43 49 86 67 127 16 41 33 90 50 145l65-29m178-34c9-4 9-9 0-15-5-1-12-5-22-14l-23-43h72v145l62-22c13-6 13-12 2-17l-21-12v-94h39l23 33 39-39c6-8 6-13-2-17h-99v-96h58l24 31 39-37c2-4 3-8 4-10 0-6-4-8-12-7h-72v-90l72 54 14-11c-57-50-91-90-102-120l-52 38 25 29v100h-53c0-46-13-84-37-116s-62-60-113-86l-8 14c38 29 66 57 84 84 18 25 29 60 31 104h-33c-11 0-22-2-33-6l-14 29h135v96h-82c-7-16-16-30-27-41l-14 4c17 52 31 104 43 156l53-24m269-6c10-6 9-11-2-15-5-3-12-10-21-22l-18-31h72v139l65-24c8-5 7-11-2-17l-20-14v-84h59l27 39 45-45c6-8 5-13-2-17H738v-96h104l27 35 45-45c2-2 3-4 4-6 0-5-4-8-12-7H779v-90c0-17 0-28 2-33 3-6 11-9 26-8h45c13 2 22 11 27 27 2 15 4 39 6 72h15c0-33 2-55 6-66 4-10 12-18 24-24-7-13-14-24-22-31-8-8-25-12-49-13h-60c-14 0-28 1-41 5-15 10-22 26-22 47v114h-50c-1-41-12-79-34-114-19-33-56-61-111-84l-8 14c43 32 72 62 86 90 14 27 22 58 24 94h-16l-18-6-15 29h101v96h-84c-8-22-19-40-31-55l-16 6c20 60 36 115 47 166l53-26Z"/></symbol><symbol id="缶_G" viewBox="0 0 1000 1000" data-size="21"><path transform="matrix(1 0 0 -1 40 954)" d="M252 759h449l41 51 65-57 6-8c0-8-2-12-6-12H498V493h311l41 53c46-42 70-64 70-67 2-5 0-10-6-13H498V104h240v278l84-29c4-6 4-11-2-16l-31-14V94l4-57c0-8-6-17-18-25-10-8-22-12-37-12v76H201l-33-49-64 49c21 12 33 24 35 36v278l80-28c2-2 3-6 4-9 0-2-11-9-34-20V104h256v362H115c-35 0-67-3-95-8L0 493h445v240H234c-35-56-83-119-142-187l-16 8c78 116 143 234 194 353 48-19 74-31 76-35s2-8 0-12c-4-2-9-4-16-6-8 0-18-9-31-25-12-16-28-39-47-70Z"/></symbol><symbol id="缶_H" viewBox="0 0 1000 1000" data-size="21"><path transform="matrix(1 0 0 -1 34 935)" d="M254 869c31-9 58-20 83-34 4-3 7-6 7-9 0-6-5-10-14-13-16-6-29-8-41-8-15-30-31-59-48-85-4-5-7-9-10-13h480l53 64c27-20 53-41 78-62 5-3 8-7 8-12 0-11-5-17-14-17H492V457h309l49 59c26-19 51-38 75-58 4-3 7-6 7-11 0-11-5-17-14-17H492V82h266v207c0 35-1 62-4 80 31-4 57-12 78-22 8-4 12-9 12-15 0-5-4-8-10-11-10-6-20-10-31-12V21c0-14-9-21-28-21-14 0-21 8-21 25 0 8 1 18 2 30H170c-5-3-12-4-20-4-14 0-21 8-21 25 0 7 1 18 2 31s2 24 2 34v148c0 35-1 62-4 80 31-4 57-12 78-22 8-4 12-9 12-15 0-5-4-8-10-11-10-6-20-10-31-12V82h265v348H111c-45-1-76-2-93-4L0 469c28-8 65-12 111-12h332v223H215c-10-15-21-31-33-46-20-26-40-48-60-68-19-20-44-43-75-66l-18 12c34 26 61 54 82 84 26 33 49 68 72 104 22 36 41 73 54 112 9 16 14 36 17 57Z"/></symbol><symbol id="缶_T" viewBox="0 0 1000 1000" data-size="21"><path transform="matrix(1 0 0 -1 30 962)" d="M494 735V490h331l48 50 59-52c5-5 8-9 8-13 0-8-4-13-13-13H494V81h299v236c0 32-1 57-4 73l53-12c28-7 42-14 42-22 0-10-8-17-24-21l-20-5V111c0-5 0-14 1-26 1-13 2-32 3-58v-6c0-14-10-21-29-21-14 0-22 5-22 14v39H142c-12-4-21-6-28-6-12 0-18 8-18 23v245c0 35-1 61-4 78l53-12c28-6 42-13 42-22s-8-16-24-20l-21-6V81h305v381H112c-38 0-69-1-93-4L0 501c31-7 68-11 112-11h335v245H221c-44-67-102-127-173-180l-11 13c59 59 106 120 142 183s59 120 70 173l74-32c10-5 15-9 15-14 0-8-6-13-20-14l-30-3c-5-12-10-21-13-27-10-24-23-48-36-71h495l48 49 60-52c5-4 7-9 7-12 0-9-4-13-13-13H494Z"/></symbol><symbol id="缶_J" viewBox="0 0 1000 1000" data-size="21"><path transform="matrix(1 0 0 -1 35 957)" d="M0 521h432v225H230c-21-39-40-72-59-99-17-23-42-53-73-88l-15 10c40 78 71 147 92 208 9 29 20 68 31 115 2 7 4 15 6 22l91-32c10-3 15-8 15-14 0-7-5-11-15-12l-25-3-35-81h443l43 62 95-70v-18H498V521h291l47 64 94-71v-21H498V133h241v300l89-9c9-1 13-4 13-10 0-5-4-10-11-14l-27-14V38l-64-9v77H197V11L130 0v433l85-9c17-2 26-6 26-13 0-5-9-11-26-18l-18-7V133h235v360H13L0 521Z"/></symbol><symbol id="缶_K" viewBox="0 0 1000 1000" data-size="21"><path transform="matrix(1 0 0 -1 55 944)" d="M0 437v21h404v228H195c-49-75-99-134-149-177l-12 9c43 55 77 109 100 164 24 55 48 123 73 206l98-37-3-12-33-10c-16-34-37-74-63-121h457l38 49h16l60-55v-16H468V458h306l40 53h17l59-61v-13H468V89h247v289l91-17v-10l-28-16 1-304-7-10-49-17-8 7v56H179V22l-7-9-50-13-8 7v370l93-16v-14l-28-15V89h225v348H0Z"/></symbol><symbol id="缶_V" viewBox="0 0 1000 1000" data-size="20"><path transform="matrix(1 0 0 -1 107 992)" d="M671 303V30c-5-10-11-17-20-21-9-5-18-8-29-9v84H195l-44-66-70 45 44 53v292l66-38c0-1-1-5-3-12s-4-16-7-25-5-16-7-23l-2-10V107h203v376H80c1 0-4-1-13-4s-18-5-27-8c-9-2-15-3-16-4L0 507h375v264H209c-17-43-38-85-63-127-25-41-54-79-87-112l-5 8c27 39 51 84 73 135s40 104 54 158c15 55 24 105 28 151l78-52-31-48c-8-13-14-27-19-44s-11-32-18-45h372l47 50 67-74H432c-1-1-2-4-4-9-1-5-2-8-2-9V507h242l51 52 67-76H426V107h196v295l71-39-22-60Z"/></symbol><symbol id="缷_G" viewBox="0 0 1000 1000" data-size="21"><path transform="matrix(1 0 0 -1 56 967)" d="m541 888 59-45h197l29 35 53-47c6-4 9-8 10-14 0-4-12-11-35-21V315c0-31-7-56-20-72-14-14-36-27-66-37-9 23-20 39-34 47-12 9-39 21-80 37l6 18c43-14 72-23 88-26 16-4 29-2 41 4 10 6 15 18 14 35v496H592V146l4-105c0-10-8-19-24-27-13-9-25-13-35-14l4 144v744m-320 15c4-2 6-4 6-6 0-4-3-7-8-9-18-9-31-21-39-37s-20-38-37-67h211l39 49 48-57c4-2 6-5 6-9 0-6-2-9-8-8H279V552h117l36 45 58-53c2-3 3-6 4-10 2-4 0-8-6-10H279V187l104 19v262l74-31c4-6 5-10 4-12 0-1-2-2-6-4l-23-14V214l4-61c0-9-7-18-20-27-12-8-22-12-31-11v70c-117-28-194-48-229-61-35-11-61-26-78-44l-43 56c22 10 33 21 35 35v291l65-27c12-5 17-10 13-14 0-1-9-9-29-22V155l110 22v347H80c-13 0-32-3-57-9L0 552h229v207h-96C91 683 55 625 23 587l-11 10c26 49 54 108 84 179 27 71 44 123 50 159l75-32Z"/></symbol><symbol id="缷_H" viewBox="0 0 1000 1000" data-size="21"><path transform="matrix(1 0 0 -1 44 956)" d="M143 911c30-10 57-20 80-32 4-3 6-7 6-11 0-6-6-11-18-13-12-3-22-4-28-4-10-30-21-57-33-83h236l43 48c23-17 46-34 67-51 5-4 7-7 7-11 0-9-5-13-14-13H296V538h149l43 47c22-18 44-34 66-50 5-3 8-7 8-11 0-9-5-14-15-14H296V112h133v220c0 35-2 61-6 79 33-5 60-13 82-23 8-4 12-9 12-14 0-6-4-11-10-13-9-7-19-12-31-12V119c0-18 0-30 2-36V49c0-14-10-21-29-21-16 0-24 9-24 26 0 8 1 18 3 30H111c-6-6-14-9-25-9-16 0-24 9-24 26 0 8 0 18 1 31 2 13 3 24 3 34v163c0 34-2 60-6 78 33-5 61-13 82-23 8-4 12-9 12-14 0-6-3-11-10-13-10-7-20-12-31-12V166c0-18 1-30 2-36v-18h135v398H114c-47-2-79-4-95-7L0 549c29-7 67-11 114-11h136v203H135c-12-24-25-46-38-65-17-23-37-46-61-70l-17 11c20 28 37 54 51 78 11 21 21 45 32 71s19 50 26 73c6 22 11 46 15 72m675-77 33 41c24-14 42-28 54-42 5-4 7-8 7-12 0-7-13-17-38-31V207c0-23-5-39-14-50s-20-19-34-25c-13-7-25-10-33-10-3 14-8 25-15 34-9 9-19 16-29 19-19 7-40 12-62 13v25c42-9 81-14 115-14 11 0 18 2 20 5 4 3 6 12 6 25v578H632V12c0-8-5-12-15-12-6 0-14 2-24 6-7 6-11 14-11 24 0 11 1 27 3 46 2 14 3 45 3 94v637c0 26-2 49-6 69l59-42h177Z"/></symbol><symbol id="缷_T" viewBox="0 0 1000 1000" data-size="21"><path transform="matrix(1 0 0 -1 43 964)" d="m819 818 34 37 41-26c13-9 19-17 19-24 0-9-12-19-38-30V258c0-47-25-75-75-84-4 23-11 38-23 46-11 7-37 14-78 21l4 23c54-9 87-14 98-14 18 0 28 10 28 28v512H573V135l2-45c2-37 4-58 4-63 0-18-12-27-34-27-8 0-14 2-16 5s-4 23-4 58v731c0 28-3 51-8 68l62-44h240m-561-81V509h119l40 39 55-42c6-4 8-8 8-12 0-9-4-13-13-13H258V109h126v215c0 33-1 57-4 72l53-11c28-6 42-13 42-22s-9-16-25-21l-19-5V163c0-5 0-14 1-26 2-24 3-45 3-63 0-15-10-22-30-22-14 0-21 5-21 14v15H84c-12-4-21-5-28-5-12 0-18 7-18 22v228c0 35-2 61-4 78l52-11c28-7 42-14 42-22 0-10-8-17-24-21l-20-6V109h127v372H91c-22 0-46-2-72-5L0 518c39-6 75-9 108-9h103v228H97c-24-42-52-84-84-129L0 618c52 89 91 193 119 310l65-25c10-4 15-9 15-15 0-7-5-11-15-13l-25-5c-20-47-35-82-47-105h243l40 39 55-42c5-4 8-8 8-12 0-9-4-13-13-13H258Z"/></symbol><symbol id="缷_K" viewBox="0 0 1000 1000" data-size="21"><path transform="matrix(1 0 0 -1 48 951)" d="m841 838 63-54v-14l-29-21V249c0-41-4-66-13-76s-35-21-80-33l-12 6v24l-72 25 5 18 73-4c16-1 26 2 29 7 4 6 6 19 6 38v532H621l-8-770-44-16-12 7v832l62-31h182l28 30h12m-697 63 90-36-3-14-38-9-31-75h250l38 43h15l58-49v-16H304V525h122l42 48h13l58-52v-18H304V150h137v282l98-21v-15l-36-20V92l-7-16-40-15-15 6v61H109V80l-7-13-42-14-14 6v378l98-20v-14l-35-22V150h133v353H0v22h242v220h-90c-43-69-82-120-117-154l-13 9c54 87 95 188 122 301Z"/></symbol><symbol id="缸_G" viewBox="0 0 1000 1000" data-size="21"><path transform="matrix(1 0 0 -1 35 948)" d="m180 896 72-34c7-6 10-9 8-11-2-4-4-6-6-6-24-8-39-20-47-35-8-14-21-39-41-77h189l40 47 60-56c4-3 6-6 6-8 0-6-3-9-8-8H277V481h141l31 47 63-54c2-2 3-5 4-8 2-5 0-8-6-10H277V96l102 8v282l80-26c5-3 5-6 2-9-2-4-12-11-31-20V126l4-69c0-9-6-18-18-26-10-7-23-11-37-13v68C266 68 191 53 154 41 117 31 88 18 68 0L27 64c26 8 39 19 41 32v298l77-32c1-2 3-4 3-8 0-2-9-9-29-21V74l108 16v366H82c-14 0-33-4-59-12L0 481h227v227h-73c-36-72-80-137-133-195l-13 8c44 69 82 141 113 214 29 72 49 125 59 161m320-157h291l41 51 59-59c2-2 3-4 4-7 0-7-4-10-12-10H711V76h121l33 50 61-62c2-1 3-3 4-5 0-8-4-11-12-10H529c-13 0-36-2-66-6l-16 33h213v638h-74c-14 0-36-3-66-8l-20 33Z"/></symbol><symbol id="缸_H" viewBox="0 0 1000 1000" data-size="21"><path transform="matrix(1 0 0 -1 32 939)" d="M125 879c32-12 60-24 83-36 5-4 7-8 7-11 0-6-7-10-21-12-13-4-23-6-30-6-13-35-26-70-40-102-3-7-6-12-8-17h169l43 47c22-17 44-33 65-48 5-4 7-8 7-12 0-9-4-14-11-14H236V484h92l43 47c22-17 44-34 65-50 5-3 7-6 7-10 0-9-4-14-11-14H236V109h90c1 12 2 22 2 30v154c0 34-1 60-4 78 31-4 57-12 77-22 9-4 13-9 13-13 0-6-4-10-11-13-9-7-18-11-28-12V70c0-14-10-21-29-21-15 0-22 8-22 25v8H81c-5-3-11-4-20-4-15 0-22 7-22 22 0 9 1 19 2 31 1 14 2 27 2 37v131c0 35-1 62-4 80 31-5 57-12 78-23 8-3 12-8 12-14 0-5-3-8-10-11-10-6-19-9-29-11V109h99v348h-78c-45-1-76-2-93-4L0 496c28-8 65-12 111-12h78v184h-88c-7-16-14-29-22-40-17-26-38-52-61-79L4 561c19 29 35 58 48 85 10 22 21 48 32 76 9 28 17 54 24 79 8 24 13 50 17 78m285-94c28-9 65-14 111-14h280l45 57c26-19 50-38 71-57 6-3 9-7 9-11 0-9-5-14-16-14H660V31h147l47 55c26-20 50-38 73-55 6-3 9-8 9-13 0-10-5-14-14-14H492c-46-1-78-2-96-4l-17 43c28-8 66-12 113-12h119v715h-90c-44-1-76-2-93-4l-18 43Z"/></symbol><symbol id="缸_T" viewBox="0 0 1000 1000" data-size="21"><path transform="matrix(1 0 0 -1 19 948)" d="M241 705V477h120l39 40 56-42c6-5 9-9 9-13 0-9-5-13-14-13H241V77h111v215c-2 43-4 68-5 73l53-12c28-6 42-13 42-22s-8-16-24-20l-20-6V131c0-5 0-13 1-26 2-22 3-42 3-61 0-16-10-23-29-23-14 0-21 4-21 13v15H92c-12-3-22-5-29-5-12 0-18 7-18 22v228c0 36-1 62-3 79l52-12c28-6 42-14 42-23s-8-16-24-20l-20-5V77h103v372H92c-22 0-47-2-73-5L0 486c39-6 70-9 92-9h103v228h-85c-24-42-52-85-84-129l-12 10c50 88 90 192 118 310l65-25c10-4 15-9 15-15 0-7-5-11-15-13l-26-5c-20-48-35-84-46-105h195l40 39 56-42c5-4 8-8 8-12 0-9-5-13-14-13H241M662 32v727h-68c-38 0-69-2-94-4l-19 43c32-8 69-11 113-11h221l48 49 59-52c5-5 8-9 8-13 0-8-4-12-13-12H708V32h125l54 55 64-55c7-7 11-12 11-16 0-8-5-12-14-12H559c-38 0-70-1-94-4l-18 43c31-8 68-11 112-11h103Z"/></symbol><symbol id="缸_J" viewBox="0 0 1000 1000" data-size="21"><path transform="matrix(1 0 0 -1 50 917)" d="M178 428H12L0 455h178v202h-62c-21-53-51-104-90-154l-18 9c47 101 78 208 94 322l70-20c19-6 28-12 28-17 0-6-7-11-22-16l-12-4-36-93h162l45 51 67-61v-17H241V455h80l43 55 78-66v-16H241V134h80v252l67-9c17-3 25-7 25-13s-5-11-16-15l-14-5V51l-62-9v65H106V13L42 0v386l64-9c19-3 29-8 29-14s-6-11-19-16l-10-3V134h72v294M382 3l-15 27h244v673H422l-13 27h335l50 57 82-67v-17H680V30h87l51 60 82-66V3H382Z"/></symbol><symbol id="缸_K" viewBox="0 0 1000 1000" data-size="21"><path transform="matrix(1 0 0 -1 54 921)" d="M667 739V30h111l37 51h15l61-59V8H381v22h222v709H417v22h354l34 50h13l56-57v-15H667M258 421V115h100v252l88-17v-15l-22-16-1-248-8-10-48-14-9 5v41H100V32l-8-13L44 0l-8 8v362l87-22v-15l-23-16V115h95v306H0v22h195v176h-87c-23-54-55-107-96-159l-11 8c27 56 48 112 61 167 14 56 27 125 40 207l87-23v-14l-27-8c-18-68-33-120-46-156h208l40 49h12l56-56v-15H258V443h103l37 43h14l52-52v-13H258Z"/></symbol><symbol id="缸_V" viewBox="0 0 1000 1000" data-size="20"><path transform="matrix(1 0 0 -1 56 997)" d="M411 302V33c-8-13-16-20-23-22s-16-6-28-11v66H134L92 12 33 52l34 39v292l70-30c0-1-1-4-3-11-1-6-3-13-6-22-3-8-5-15-7-21l-2-9V90h91v380H88c1 0-3-1-11-3-7-2-15-4-23-6-7-2-11-3-12-4l-19 36h187v257h-73c-17-29-37-62-58-97s-44-64-69-87l-10 3c36 65 67 134 94 205s44 144 51 219l75-72-40-63c-2-3-5-11-10-22s-9-23-14-35-9-22-13-29h184l40 44 65-66H260V493h90l45 47 67-70H260V88h100v305l71-31c-1-1-3-6-6-17-3-10-7-20-10-29l-4-14M887 66H514l-13-3c-9-2-18-4-27-5-9-2-14-3-15-4l-21 36h188v575h-86c1 0-3-1-12-3-8-2-16-4-25-6-8-2-12-3-13-4l-19 36h265l48 44 67-67H676V90h102l43 45 66-69Z"/></symbol><symbol id="缹_G" viewBox="0 0 1000 1000" data-size="21"><path transform="matrix(1 0 0 -1 31 963)" d="M156 206h18c-2-60-8-102-18-128s-21-44-33-55S98 5 84 2C72 0 61 2 53 8c-9 4-13 12-12 23s7 19 16 26c9 6 19 12 29 19 9 7 19 18 31 33s25 48 39 97m133-10 12 8c39-35 67-63 86-85 17-23 24-45 21-64-2-19-8-32-15-37-9-6-18-8-28-4s-15 14-15 31c0 18-3 36-10 55s-24 51-51 96m217 0 12 8c45-35 76-65 93-89 18-25 25-46 22-62-3-15-8-26-16-32-8-5-17-7-27-3-11 3-16 13-16 29s-4 33-11 53c-7 19-26 51-57 96m219 2 9 12c66-46 110-80 131-103 20-22 30-43 30-62-1-16-6-28-14-35-8-5-18-6-29-2-12 4-19 13-22 27-4 16-12 35-25 59-15 23-41 57-80 104M229 786h486l35 45 59-51 5-8c1-7-1-11-5-11H492V599h340l39 45 63-55c2-3 3-5 4-8s0-6-6-10H492V286h244v227l82-30c4-5 4-10-2-15l-31-14V310l4-59c-2-8-12-16-29-22-10-5-18-7-24-5v37H197l-33-39-60 43c20 13 31 26 33 39v205l78-28c2-2 3-5 4-9 0-2-11-9-33-20V286h255v285H82c-13 0-34-2-62-8L0 599h441v162H211c-42-54-80-96-115-127l-14 12c58 72 115 166 172 281 42-20 64-31 66-35 3-4 3-8 0-12-3-2-10-5-21-8-10-3-33-32-70-86Z"/></symbol><symbol id="缹_H" viewBox="0 0 1000 1000" data-size="21"><path transform="matrix(1 0 0 -1 36 957)" d="M254 914c29-8 57-18 83-32 3-4 5-8 5-11 0-6-4-10-12-12-16-4-29-5-41-5-13-18-26-34-39-47h467l47 54c24-19 48-37 71-54 5-4 7-8 7-14 0-9-5-14-14-14H488V604h311l47 52c26-18 51-36 75-52 4-4 7-8 7-14 0-11-5-16-14-16H488V346h262v107c0 35-1 61-4 78 31-3 57-10 78-19 8-5 12-10 12-16s-3-9-10-11c-10-6-19-9-29-10V285c0-12-10-17-29-17-15 0-22 7-22 21 0 9 1 18 2 29H170c-4-2-10-4-20-4-14 0-21 8-21 22 0 9 1 19 2 31v86c0 35-1 61-2 78 31-3 57-10 78-19 7-5 10-10 10-16s-3-9-8-11c-8-6-19-9-31-10V346h261v228H113c-46 0-78-2-95-4L0 613c28-6 66-9 113-9h326v175H224c-13-15-27-29-42-42-19-17-38-31-60-44-20-15-45-29-75-43l-16 10c32 20 59 40 81 62 25 22 48 46 71 72 22 26 41 52 56 79 7 14 12 28 15 41M143 221l13-6c-7-41-14-73-21-97-6-23-14-41-23-55-9-17-18-30-27-38-10-9-19-15-27-19-7-4-13-6-19-6-14 0-21 7-21 21 0 6 1 11 3 16 5 5 16 16 35 33 24 23 39 39 46 49 9 13 17 27 24 43 6 17 12 37 17 59m193-6c8-14 15-32 21-53 9-20 14-39 17-56 3-18 5-35 5-49 0-13-2-23-6-32-3-7-8-12-15-15-5-4-9-6-12-6-12 0-18 7-18 21-1 5 0 12 3 23 3 15 3 34 0 58-1 28-6 63-17 105l22 4m189 10c19-19 35-37 50-55 15-16 28-32 38-49 11-14 18-28 21-41 3-10 5-21 5-33s-2-21-6-28c-5-10-11-15-20-15-6 0-10 3-13 9-4 3-8 12-10 27-3 20-8 41-16 62-9 18-18 36-26 53-9 19-21 37-38 56l15 14m204 0c31-21 59-41 84-63 24-18 43-35 58-50 12-11 22-22 29-33 6-8 10-16 13-23 3-8 5-16 5-25-1-18-8-27-22-27-5 0-9 2-13 7-4 4-15 21-31 49-15 28-33 53-54 75-20 22-47 47-81 76l12 14Z"/></symbol><symbol id="缹_T" viewBox="0 0 1000 1000" data-size="21"><path transform="matrix(1 0 0 -1 36 954)" d="M224 764c-38-43-91-87-158-131l-10 14c48 41 88 81 119 122 24 32 51 78 82 140l61-27c10-4 15-9 15-14 0-9-6-15-19-16l-26-2c-14-21-28-40-41-58h482l47 49 59-51c5-5 8-10 8-13 0-9-4-13-13-13H487V590h313l54 56 63-56c8-7 12-12 12-16 0-8-5-12-13-12H487V318h313v140c0 33-1 57-4 73l53-11c28-7 42-14 42-23s-8-15-24-20l-20-5V352c0-5 0-14 1-26 2-22 3-43 3-61 0-16-10-24-29-24-15 0-22 5-22 14v36H144c-12-4-22-6-28-6-13 0-19 7-19 22v150c0 35-1 61-4 78l53-12c28-6 42-13 42-21 0-10-8-17-24-21l-20-5V318h296v244H112c-35 0-66-2-93-4L0 601c30-8 68-11 112-11h328v174H224m-84-545 18-3c-9-51-21-91-35-121-26-53-57-80-92-80-17 0-26 8-26 24 0 11 12 24 35 36 35 20 62 47 79 83 6 12 13 33 21 61m169-6c59-75 88-129 88-163 0-29-10-44-30-44-11 0-18 5-20 14-1 3-1 11-1 24 0 50-17 102-52 159l15 10m421 8c55-33 93-58 113-74 51-40 77-77 77-110 0-25-10-37-29-37-15 0-28 15-39 45-14 35-32 66-56 92-14 16-40 40-77 71l11 13m-200-4c72-77 108-135 108-174 0-26-10-40-29-40-15 0-23 12-24 37-3 50-25 106-68 167l13 10Z"/></symbol><symbol id="缹_K" viewBox="0 0 1000 1000" data-size="21"><path transform="matrix(1 0 0 -1 69 940)" d="M456 717V557h278l45 50h15l60-54v-18H456V337h245v156l96-19v-15l-34-21V290l-7-16-39-14-15 7-1 48H146l-17-33-64 31 17 29v155l97-19v-14l-36-22V337h253l-1 198H13v22h382l1 160H204c-36-59-70-103-100-133l-13 9c44 88 80 184 106 288l91-34-3-15-34-11-36-83h474l42 46h13l60-51v-16H456M104 239h19v-17c0-48-4-84-11-110-10-36-30-68-60-95C39 6 30 0 22 0 7 0 0 13 0 40c0 24 8 42 23 54 30 22 49 41 59 58 10 18 17 47 22 87m157-23 11 11c73-53 110-102 110-147 0-14-4-26-11-38s-15-18-22-18c-11 1-21 25-30 71-6 37-26 78-58 121m218 10 11 9c50-33 84-59 101-78s25-39 25-61c0-13-3-26-10-37-5-13-12-19-18-18-10 1-17 8-22 23-6 21-17 49-32 85-12 23-30 48-55 77m228-2 12 11c95-73 143-130 143-172 0-14-3-27-9-38-7-11-14-17-22-17-10 0-19 11-27 33-17 46-31 80-42 103-12 20-30 47-55 80Z"/></symbol><symbol id="缺_G" viewBox="0 0 1000 1000" data-size="21"><path transform="matrix(1 0 0 -1 26 971)" d="M229 899c3-2 5-3 5-5 0-5-2-8-7-10-18-9-32-21-41-37-9-17-24-45-45-86h189l39 49 49-57c4-3 6-6 6-10 0-6-3-8-8-8H256V536h109l35 45 59-53c2-2 3-6 4-9 2-5 0-8-6-10H256V216l99 13v223l75-31c4-6 5-10 4-12 0 0-2-2-6-4l-24-13V241l4-60c0-9-6-19-19-28-12-9-22-13-32-11v70c-113-25-186-43-218-53-34-11-60-25-78-42l-41 50c21 10 33 21 35 35v256l64-27c13-5 17-9 14-14 0-1-10-8-29-21V188l103 18v303H80c-13-1-32-4-57-10L0 536h207v199h-80C92 665 57 608 21 565l-13 8c29 55 60 119 92 194 30 74 48 129 54 164l75-32m214-166h149v209l78-25c5-2 8-5 8-8 2-4-9-12-35-25V733h119l29 41 55-43c6-2 9-5 9-11 0-2-11-11-35-26V448h32l33 47 56-55c2-3 4-6 4-7 0-7-4-10-11-10H680c15-72 34-127 56-164 21-37 42-67 63-88 21-23 43-41 64-54s49-24 84-33V66c-29 1-49 0-60-2-12-2-26-11-43-25-28 28-53 57-76 87-24 31-45 68-65 111-19 43-35 105-47 186h-29c-7-85-24-151-51-197-27-47-62-89-105-124C427 67 366 33 287 0l-6 16c78 41 135 78 170 112s63 72 84 113 36 102 45 182h-74c-14 0-32-3-55-8l-15 33h146c8 78 11 162 10 252v8h-82c-16 0-32-2-49-6l-18 31m198-25v-8c0-103-3-187-10-252h140v260H641Z"/></symbol><symbol id="缺_H" viewBox="0 0 1000 1000" data-size="21"><path transform="matrix(1 0 0 -1 25 954)" d="M131 908c32-12 59-24 83-36 4-4 7-7 7-11 0-6-7-9-21-11-13-4-24-6-32-6-10-35-22-68-35-101-1-2-2-4-3-7h177l43 43c20-16 40-31 57-45 5-3 7-6 7-9 0-12-4-18-12-18H246V529h92l43 43c19-16 39-31 58-45 4-3 6-6 6-9 0-12-3-18-9-18H246V154h89c2 9 3 16 3 22v164c0 36-2 62-6 78 33-5 59-11 79-20 9-3 13-8 13-15 0-6-4-10-11-12-9-5-18-8-28-10V107c0-14-9-21-28-21-17 0-25 8-25 25 0 4 0 9 1 14H91c-7-3-14-4-21-4-14 0-21 9-21 25 0 8 0 18 2 30 1 14 2 26 2 35v139c0 34-2 60-4 76 31-5 57-11 77-20 8-3 13-8 13-13 0-8-4-12-10-14-10-7-20-11-29-12V154h99v346h-86c-45-1-75-2-92-4L0 539c29-6 66-10 113-10h86v178h-84c-7-16-15-31-23-46-16-24-35-49-57-75l-14 14c18 28 33 56 44 82 9 21 18 46 29 73 9 27 16 53 22 77 5 23 10 48 15 76m314-179c26-7 63-10 112-10h43v23c0 67-3 123-8 166 31-4 58-10 80-17 9-2 14-7 14-16 0-5-5-9-14-13-10-5-18-9-26-12V719h134l31 39c23-13 40-27 49-41 5-5 7-10 7-14 0-5-13-15-39-31V436h14l43 43c19-17 39-32 57-45 5-4 7-8 7-12 0-9-3-14-10-14H641c-2-17-5-32-7-45-9-49-21-92-35-129-14-38-33-71-56-98-29-36-57-64-84-84-33-22-68-39-105-52l-12 18c53 25 93 51 118 79 26 24 48 53 67 88 17 28 31 62 42 103 10 33 18 73 23 120h-71c-46 0-78-2-93-4l-22 43c29-8 67-11 115-11h73c4 37 6 75 6 115v142h-43c-52 0-84-1-94-4l-18 40m201-36V551c0-44-1-83-3-115h142v253l-1 4H646m49-369c37-28 71-59 101-91 29-28 51-53 66-75 17-20 29-36 36-49 6-14 11-27 15-38 3-10 5-22 5-36-1-18-7-27-20-27-5 0-10 3-15 9-7 6-19 30-36 70-21 42-42 80-66 112-23 33-55 72-95 115l9 10Z"/></symbol><symbol id="缺_T" viewBox="0 0 1000 1000" data-size="21"><path transform="matrix(1 0 0 -1 25 956)" d="M584 723c0 33-1 70-3 110-1 23-2 43-2 60 0 6-1 13-2 18l53-12c28-6 42-13 42-22s-8-16-25-20l-20-6 2-74 1-27v-27h128l33 37 41-27c13-8 20-16 20-23 0-9-13-18-38-30V442h32l39 40 56-42c5-4 8-9 8-13 0-9-4-13-13-13H625c-10-101-36-182-77-243C500 100 421 43 313 0l-6 15c67 34 117 69 152 106 67 70 106 168 118 293h-71c-22 0-46-2-72-5l-20 42c40-6 70-9 92-9h73c4 58 5 119 5 185v70h-58c-31-2-55-3-72-6l-20 42c35-5 66-8 92-8l58-2m43-281h145v255H630c0-6 1-33 2-81 0-48-1-106-5-174m50-129 11 12c61-49 108-92 143-130 57-65 86-116 86-153 0-22-10-34-29-34-17 0-29 12-37 36-18 52-42 100-73 145-20 30-41 57-63 81-19 21-31 35-38 43M234 714V505h81l39 39 56-42c5-4 8-8 8-12 0-9-4-13-13-13H234V139h95v196c0 33-1 57-4 73l52-12c28-6 42-14 42-22 0-9-8-16-23-20l-20-6V192c0-4 0-13 1-25 1-13 2-32 2-58l1-6c0-14-10-21-30-21-14 0-21 5-21 14v15H86c-12-4-21-6-28-6-12 0-18 8-18 22v210c0 35-1 61-4 78l53-12c28-5 41-13 41-22s-8-16-24-20l-20-6V139h102v338H92c-22 0-46-2-73-5L0 514c40-6 68-9 84-9h104v209h-85c-27-47-54-87-80-120l-12 9c32 60 55 110 70 150 16 44 30 94 44 152l64-25c10-4 15-9 15-15s-5-11-15-12l-25-5c-20-49-36-85-47-106h164l40 40 55-42c6-4 8-9 8-13 0-8-4-13-13-13H234Z"/></symbol><symbol id="缺_J" viewBox="0 0 1000 1000" data-size="21"><path transform="matrix(1 0 0 -1 41 942)" d="M177 166v319H14L0 512h177v200h-59c-18-38-49-89-92-152l-18 9c49 97 82 200 99 307l72-23c16-5 24-11 24-16 0-7-6-12-17-15l-19-5c-11-25-23-51-34-77h164l48 59 72-65v-22H239V512h87l47 53 76-61v-19H239V166h76v292l66-10c17-3 26-8 26-14 0-7-4-11-12-14l-17-6V98l-63-9v49H106V58L42 48v406l73-12c13-3 19-6 19-11 0-7-5-11-14-14l-14-4V166h71M322 14c41 25 73 50 96 74 72 77 117 176 135 297H412l-12 28h155c3 35 5 70 5 107v142H427l-15 27h148v194l74-9c18-2 27-6 27-13 0-6-5-11-14-15l-24-9V689h95l22 37 62-35c13-7 19-14 19-19 0-7-6-13-19-17l-11-4V413h7l42 64 61-70v-22H639c18-57 56-117 114-180 32-34 87-76 165-126l-8-13c-17-1-30-3-39-8-7-4-16-13-26-27-113 96-189 211-230 344C594 206 500 81 335 0l-13 14m301 648V552c0-43-1-90-4-139h110v249H623Z"/></symbol><symbol id="缺_K" viewBox="0 0 1000 1000" data-size="21"><path transform="matrix(1 0 0 -1 56 937)" d="M555 399H387v22h170c4 47 7 104 9 171l2 70H418v22h150c0 25-2 89-5 190l89-18v-14l-21-14V684h95l28 31 14 1 53-43-1-15-22-11V419l29 47h14l47-53v-14H631c29-84 63-152 100-205 38-53 89-103 154-150l-9-14c-11 0-19 0-25-1s-14-3-24-8-20-12-29-21c-51 51-89 106-116 166s-50 132-69 216c-8-41-17-76-27-107-10-30-25-63-44-99-19-35-44-68-77-97S393 24 348 1l-10 11c39 27 71 55 96 82s49 66 70 117c22 51 39 114 51 188m178 263H631c-1-83-4-163-11-241h113v241M237 480V137h75v252l87-16v-14l-22-12V86l-10-15-47-10-8 6v48H94V61l-6-10-48-17-12 8 2 357 88-18v-15l-25-10 1-219h78v343H0v22h172v188h-50C89 627 54 575 17 534l-11 9c45 80 80 189 104 327l90-28-4-17-27-7c-12-39-24-74-37-106h173l29 41h14l46-50-1-13H237V502h87l34 41h14l51-49v-14H237Z"/></symbol><symbol id="缺_V" viewBox="0 0 1000 1000" data-size="20"><path transform="matrix(1 0 0 -1 48 1000)" d="M657 450h-67c-4-34-10-72-19-115-8-43-19-86-34-129-14-43-32-83-53-119-21-37-46-66-75-87l-8 9c20 25 38 57 53 94 16 37 30 76 41 117 12 42 22 83 29 123 8 40 14 76 18 107h-57c1 0-3-1-11-3-7-2-15-4-23-6s-12-3-13-4l-18 35h125c6 49 9 97 9 146s1 98 3 147c-13 2-28 2-44-1-15-3-29-6-42-11l-15 35h99v211l72-29c-1-1-2-5-4-13-2-7-4-16-7-25s-5-17-7-24l-3-10V788h123l35 44 51-54-32-38V472h9l44 47 51-69H673c5-23 12-49 21-80 10-30 22-61 36-93 14-31 30-62 47-91 18-29 38-53 59-74s44-36 68-44l-2-9c-15-3-28-10-39-21s-21-23-28-36c-25 27-47 59-67 96-19 36-36 74-51 115s-27 81-37 122-18 79-23 115M362 335V80c-7-13-14-20-21-21s-17-5-29-10v46H131L98 51 35 88l35 36v291l70-32c-1-1-2-5-5-12-2-7-4-14-7-23-3-8-5-15-7-22l-3-9V119h74v379H97l-15-3c-9-2-19-4-30-6-10-2-16-3-17-4l-18 36h175v237h-71c-16-27-33-54-51-80-17-26-37-50-60-73l-10 7c31 60 60 123 86 188 27 66 45 132 54 199l72-42-33-48c0 1-2-4-6-15-3-10-7-21-11-32-3-11-6-17-7-20-3-11-8-21-14-32-5-10-11-20-16-30h151l46 44 64-66H242V521h64l44 42 59-65H242V118h70v305l69-31c0-1-2-6-5-15s-6-19-9-28l-5-14m372 430H606c0-49-1-98-4-147-2-49-5-97-8-146h140v293Z"/></symbol><symbol id="缻_G" viewBox="0 0 1000 1000" data-size="21"><path transform="matrix(1 0 0 -1 31 947)" d="M402 813h420l35 45 57-52c4-2 6-4 6-6 1-8-3-12-10-12H592l-16-178h158l32 39 48-39c8-5 12-10 12-15 0-7-12-15-33-26L775 72c2-15 6-24 14-27 7-2 24-3 49-4 16 2 25 10 29 25s7 30 10 46c1 16 4 51 8 106h21c0-53 0-90 2-112 2-20 12-35 30-43-10-19-17-31-22-38-4-5-10-11-18-15-6-3-17-7-33-10h-60c-30 2-49 6-59 12-10 8-16 16-17 25-3 9-4 22-2 39l15 509H574L531 94l155 73 9-16c-91-54-143-87-156-98-14-10-27-24-41-41l-53 52c22 13 34 24 35 35l57 689h-62c-17 0-32-3-45-8l-28 33m178-359 10 14c38-26 66-47 84-63 17-16 25-33 25-51 0-15-4-27-13-35-8-7-18-10-30-7-11 1-17 11-17 29-1 17-6 35-16 53-8 16-23 37-43 60M141 894l70-36c6-5 8-9 6-11-2-4-4-6-6-6-16-7-27-16-35-28-5-9-18-33-39-70h179l39 47 61-57c4-2 6-5 6-7 0-6-3-9-8-8H250V507h109l32 47 62-55c2-2 3-5 4-8 2-4 0-8-6-10H250V147l94 26v223l80-26c4-3 5-6 2-10-2-4-13-10-31-19V179l3-78c0-9-5-17-17-25-11-7-23-12-37-13v90c-108-40-175-67-201-81-28-13-49-31-65-52L27 86c23 9 36 20 37 34v283l77-31c2-2 3-4 4-8 0-2-10-10-30-21V106l84 28v347H94c-14 0-33-3-59-11l-23 37h187v211h-74C83 644 47 587 16 548L0 558c29 50 57 111 86 181 27 68 45 119 55 155Z"/></symbol><symbol id="缻_T" viewBox="0 0 1000 1000" data-size="21"><path transform="matrix(1 0 0 -1 35 950)" d="M491 98c50 10 85 18 105 24 43 13 71 21 87 25l5-19c-70-32-146-61-229-86-1-22-6-33-16-33-5 0-12 7-19 22l-27 55c19 1 35 3 48 6l107 702h-30c-32 0-58-1-77-3l-18 43c28-7 60-10 95-10h281l48 47 58-53c6-5 9-10 9-14 0-6-5-10-15-10H597l-28-190h168l33 38 41-27c13-8 20-16 20-24s-13-18-39-29L753 80v-6c0-10 3-17 10-22s24-7 49-7c21 0 35 3 43 10 10 9 17 31 22 66 5 38 8 65 10 82l17-3-6-107-1-7c0-10 8-23 26-39 5-3 7-8 7-13 0-23-48-34-143-34-54 0-80 19-80 56v8l40 513H565L491 98m72 325 8 15c93-46 139-86 139-119 0-19-7-28-22-28-8 0-15 5-21 16-13 23-26 42-39 56-3 5-25 25-65 60M236 708V479h97l41 40 54-42c6-4 9-8 9-13 0-8-5-12-14-12H236V80h84v215c0 32-2 56-5 73l61-14c23-4 35-11 35-21 0-9-8-15-25-20l-20-5V134c0-5 1-14 2-26 2-23 3-45 3-63 0-14-10-22-30-22-14 0-21 5-21 14v15H101c-12-3-21-5-28-5-12 0-18 7-18 22v228c0 35-2 61-4 78l53-12c28-6 42-13 42-22s-9-16-25-20l-20-6V80h88v372H92c-21 0-45-2-72-6L0 488c41-6 72-9 92-9h97v229h-81c-27-47-57-90-88-129l-16 9c34 58 60 115 80 171 20 57 32 103 37 140l61-20c19-6 29-13 29-22s-9-15-27-17l-21-1c-5-15-10-26-13-33-9-25-19-49-29-71h187l41 42 54-44c5-5 8-9 8-13 0-8-4-12-14-12H236Z"/></symbol><symbol id="缻_J" viewBox="0 0 1000 1000" data-size="21"><path transform="matrix(1 0 0 -1 39 939)" d="M0 522h153v172H97c-31-57-59-101-82-133l-13 9c41 97 70 200 89 308l77-23c14-5 21-9 21-14 0-6-5-10-15-13l-19-7c-13-33-27-66-43-100h157l46 54 76-58v-23H214V522h70l46 54 78-62v-18H214V160h63l1 272 69-6c15-1 22-6 22-13 0-5-6-10-19-15l-11-5-2-308-61-11v59l-185-1-1-105-61-8 3 413 61-7c16-1 24-6 24-13 0-6-5-11-15-16l-11-6V160h62v336H9l-9 26m550-84c79-39 119-82 119-129 0-11-4-21-11-30s-15-13-25-13c-7 0-13 3-18 8-5 7-12 28-19 61-6 29-24 59-53 88l7 15m346-216-8-94c-1-6-1-10-1-13 0-17 3-29 10-36 4-5 12-9 24-14-6-15-12-26-18-33-12-13-30-20-53-20h-80c-21 0-35 3-44 8-13 7-20 23-20 50v93L434 28l-5-13c-3-10-7-15-12-15-4 0-10 5-17 15l-40 60 64 18 62 677h-89l-12 28h402l47 55 79-62v-21H553l-16-162h162l28 45 65-43c10-7 15-13 15-18 0-7-7-12-21-16l-12-4V90c0-10 2-16 5-18 3-1 7-2 12-2h16c24 0 42 25 53 75l18 78 18-1M533 580l-41-466c59 15 131 39 214 70l2 396H533Z"/></symbol><symbol id="缻_K" viewBox="0 0 1000 1000" data-size="21"><path transform="matrix(1 0 0 -1 59 927)" d="m764 797 34 43h13l58-51v-15H542l-19-158h160l31 28h17l51-48-4-16-24-12-5-468c0-21 3-34 8-39 6-4 19-6 39-6 16 0 27 12 32 35l14 66 15-2 9-95 16-18V24c-15-14-36-21-61-21h-76c-26 0-42 5-49 16s-10 32-10 65v72L393 42V14l-14-5-43 85 61 13 81 667H370v23h394m-75-204-169 1-57-470 221 52 5 417M524 462l7 6c72-67 108-116 108-148 0-11-3-21-9-30-5-9-12-13-20-13-11 0-18 4-22 11-3 8-9 27-16 58-9 34-25 73-48 116M260 650l34 32h12l50-41v-14H209V453h63l34 35 13 1 51-45 1-13H208V97h53l-1 278 90-20v-17l-25-10V48l-5-11-50-15-9 8v44H90V28l-6-13L30 0l-5 8v367l89-23v-16l-24-10V97h55v334H3v22h141l1 174H89c-29-67-55-118-77-155l-12 7c41 102 68 227 81 375l94-30-2-15-27-7c-17-61-32-111-47-152h161Z"/></symbol><symbol id="缼_G" viewBox="0 0 1000 1000" data-size="21"><path transform="matrix(1 0 0 -1 47 964)" d="M627 892c4-2 6-4 6-6 2-4-1-8-8-12-16-6-27-16-33-31-18-41-35-84-51-129h254l37 43 55-51c11-8 17-14 17-18s-6-7-15-9c-20-6-38-18-55-35-16-18-41-52-74-102l-18 10 65 136H529c-31-85-67-160-107-222l-14 8c30 77 56 157 80 238 24 80 43 152 59 215l80-35m41-276c4 0 5-4 4-10-2-2-5-3-8-5l-18-6c23-108 43-193 61-254 16-61 40-117 72-170 32-50 74-82 127-99V55c-21 0-39 0-52-2-15-2-31-9-49-22-33 36-60 78-80 126-21 47-38 97-51 151-12 52-26 134-43 244-6-98-18-178-35-240-17-64-45-122-86-174S402 40 311 0l-8 16c66 39 119 82 158 128 37 46 64 100 80 162 16 60 31 173 47 340l80-30M205 897c4-2 6-5 6-7 0-4-3-7-8-8-15-8-28-20-37-35-8-16-20-41-37-76h191l35 41 53-51c4-3 5-5 4-8-1-6-4-9-10-8H246V554h76l32 37c33-32 50-49 50-51 2-6 0-11-6-14H246V187l96 13v260l66-25c10-6 9-12-2-18l-19-10V243l6-90c0-8-5-15-16-21-10-7-22-11-35-13v62c-121-27-194-45-217-54-23-10-43-23-59-41l-45 60c23 5 36 15 38 29v281l68-25c10-3 13-6 10-10 0-3-10-9-30-20V167l90 14v345H78c-13 0-30-4-51-9L0 554h197v191h-78c-31-58-62-108-94-148l-15 9c21 40 43 92 68 155 25 62 44 118 57 168l70-32Z"/></symbol><symbol id="缼_T" viewBox="0 0 1000 1000" data-size="21"><path transform="matrix(1 0 0 -1 26 956)" d="M591 714h230l25 33 50-40c6-6 10-10 9-15 0-4-1-7-5-10-3-3-7-5-13-6l-23-4-16-26-21-30c-10-14-17-25-22-31-5-7-10-13-15-18l-11-12-16 12 11 21c4 8 7 14 10 18 2 5 7 16 14 34 8 18 12 29 14 32l5 16H581l-8-16c-2-4-5-11-10-21l-17-29c-5-9-11-18-17-27-5-9-12-18-20-29-8-10-14-17-18-21l-17-17-13 12 17 24c6 8 12 20 21 36 8 15 15 31 22 47 7 17 13 32 17 45 5 14 9 27 12 41 4 14 7 28 10 41 3 14 5 26 6 38 2 11 5 25 7 43 3 18 4 29 4 32l2 21 56-15c12-4 22-7 27-10 6-3 9-6 9-9 1-4 0-7-3-10-2-2-8-5-17-7l-23-6c-2-10-4-19-6-28s-6-22-12-41c-5-19-9-33-11-42-3-9-4-13-4-14l-4-12m-357 6V510h103l39 40 56-42c3-2 5-5 6-7 2-2 2-5 1-9s-3-6-5-8c-3-1-5-2-7-2H234V145h95v196c0 8-1 20-2 37-1 18-1 27-1 29l-1 6 53-12c16-3 27-6 32-9 6-4 9-8 9-12 1-4-1-8-6-12-4-4-10-7-17-9l-21-5V198c0-6 1-15 2-27s2-24 2-36c0-13 1-21 1-25s0-7-1-9c-1-3-4-5-6-7-3-2-7-4-12-5-4-1-9-1-14-1-6 0-10 1-13 4-3 2-5 5-5 10v15H86l-17-5c-5-1-10-2-15-1s-8 3-11 6c-2 3-3 8-3 16v210c0 17-1 33-2 47s-1 22-1 24l-1 6 53-11c16-4 27-7 32-11 6-2 9-6 9-10 1-5-1-9-6-13s-10-7-18-9l-20-5V145h102v337H91c-8 0-17 0-28-1-10-1-17-1-20-2H31l-12-2-19 42c8-2 16-3 23-4s13-1 19-2l25-2c8 0 14-1 17-1h104v210h-85l-11-19c-5-9-14-22-25-40-11-17-20-31-27-40l-17-22-14 10 22 41c9 18 16 30 19 38 4 7 9 20 16 38 8 18 15 36 21 53 6 18 12 36 17 54 5 17 10 35 15 54l6 24 65-25c5-2 9-5 11-8 3-3 4-6 4-9-1-3-3-5-5-7-2-1-6-3-11-4l-24-4-21-47c-7-18-13-31-16-37l-11-22h187l39 39 55-42c3-2 5-4 7-7 2-2 2-5 1-9s-3-6-6-7c-2-2-4-2-6-2H234m429-321c1-4 2-7 3-11s4-14 10-30 13-35 23-57 22-43 34-65c13-21 27-42 44-63 16-21 34-40 52-55 18-16 35-29 52-38 17-10 30-17 39-19l28-11-1-16h-17c-6 0-11-1-16-3-6-1-11-4-18-8-6-4-10-8-11-11l-8-12c-14 11-25 20-34 27-9 8-21 20-36 36-16 16-30 33-45 52-14 19-28 39-40 62-13 22-24 44-33 64-9 21-16 40-22 56l-13 41-3 11-9-33c-4-16-12-37-25-64-12-27-26-51-41-74-16-23-32-43-50-62-18-18-36-35-55-50-20-14-34-24-43-30-10-6-23-14-39-22L371 4l-10 16 40 28c16 11 34 25 52 41 19 16 36 33 51 52 16 18 30 40 44 66 14 25 26 50 35 73 9 24 18 49 24 76 7 27 12 53 16 78 3 24 6 47 7 68s2 44 3 70c0 25 1 41 0 48l-2 24 69-12c5-1 9-2 12-5 3-2 5-5 6-8 0-3-1-6-4-10-3-3-7-6-13-7l-21-7c-1-28-2-49-3-65 0-16-2-35-4-57s-4-43-8-63l-2-11Z"/></symbol><symbol id="缼_J" viewBox="0 0 1000 1000" data-size="21"><path transform="matrix(1 0 0 -1 38 940)" d="M10 504 0 531l155 1v174h-54c-24-57-53-110-87-161l-13 8c25 67 43 125 54 175 8 35 16 86 25 151l74-17c13-3 20-7 20-13 0-7-6-12-17-15l-10-3c-10-31-21-64-34-97h166l43 51 70-57 1-20-173-1V533h63l43 51 74-61v-18H220V170l68 1 1 274 65-7c16-2 24-6 24-12 0-5-5-11-14-17l-11-6V95l-64-12v60l-198-1V29L30 18v426l69-7c15-1 22-6 22-13 0-5-5-10-14-15l-16-8 1-231h65v334H10M916 40c-4 1-7 1-8 1-11 0-20-3-27-8-8-5-18-16-31-32-47 38-84 74-111 107-41 53-73 111-95 175-9 26-19 61-28 104-13-83-31-149-56-197-29-56-70-100-123-133-27-16-68-35-123-57l-8 16c61 31 104 60 129 87 58 59 95 145 112 258 8 55 14 145 19 269h-55c-29-65-58-120-89-167l-13 8c55 135 89 272 102 409l85-16c14-3 21-7 21-14s-5-12-15-15l-22-8c-15-56-34-113-56-171h259l33 43 78-56c10-7 15-13 15-18 0-7-9-12-26-13l-27-2-116-139-12 6 56 153H629l12-5c9-4 14-9 14-14 0-7-4-11-11-12l-13-3-10-145c18-59 35-104 52-137 53-107 136-193 251-258l-8-16Z"/></symbol><symbol id="缽_G" viewBox="0 0 1000 1000" data-size="21"><path transform="matrix(1 0 0 -1 21 962)" d="M410 694h217v231l80-33c4-2 6-5 6-10 0-2-2-4-6-6l-29-12V694h142l37 51 61-60c2-3 3-6 4-10 0-5-4-7-12-8H707c12-49 31-102 59-158 26-56 48-95 66-119s37-47 59-67c22-19 44-31 66-35v-16c-23 0-40-3-49-7-10-4-22-12-37-24-35 37-70 92-105 164-41 86-69 173-82 262h-6V257h54l34 45 56-57c2-2 2-4 2-8s-4-7-11-8H678v-99l4-87c0-8-7-17-20-27-14-10-27-15-39-16l4 142v87h-72c-11 0-30-2-57-7l-19 35h148v351c-23-72-55-142-96-211-39-68-79-123-119-166l-12 12c32 50 64 107 96 172 31 64 65 148 100 252H492c-13 0-36-3-66-8l-16 35M221 880c4-3 6-5 6-8 0-4-3-6-8-8-16-10-28-22-35-37-9-14-24-42-45-84h170l35 41 52-51c4-2 6-5 4-7-1-6-4-9-9-8H246V522h96l35 41c36-35 54-53 55-54 2-7 0-11-6-14H246V173l96 25v223l64-24c7-1 8-7 2-17l-19-12V181l6-63c0-7-5-14-16-20-12-8-24-12-37-14v95c-108-39-178-66-209-79S77 72 61 55l-41 58c20 7 31 17 33 31v281l68-26c10-2 13-5 10-9 0-3-10-9-29-20V136l95 27v332H70c-13-1-30-4-50-10L0 522h197v196h-70C92 653 56 597 18 550L2 560c29 46 57 105 86 175s51 129 64 178l69-33Z"/></symbol><symbol id="缽_H" viewBox="0 0 1000 1000" data-size="21"><path transform="matrix(1 0 0 -1 32 958)" d="M125 908c32-12 60-24 83-34 5-5 7-9 7-13 0-7-7-11-21-13-13-3-23-4-30-4-13-33-27-64-41-94-1-1-1-2-2-2h168l43 45c23-16 45-32 64-46 6-3 8-7 8-11 0-11-4-17-11-17H232V537h104l43 43c21-16 40-31 58-45 4-3 6-6 6-10 0-11-4-17-11-17H232V168h96v184c0 35-1 61-4 78 31-5 57-11 77-20 9-3 13-8 13-14 0-7-4-11-11-13-9-6-18-9-28-10V115c0-14-10-21-29-21-15 0-22 8-22 25 0 6 1 13 1 22H77c-6-3-13-4-20-4-15 0-22 8-22 25 0 7 1 18 2 31s2 24 2 34v125c0 35-1 61-4 78 31-5 57-11 77-20 9-3 13-8 13-14 0-7-3-11-10-13-10-6-19-9-29-10V168h100v340h-75c-45-1-76-2-93-4L0 547c28-7 65-10 111-10h75v182h-82c-9-17-19-32-28-47-17-23-38-46-62-70L0 615c19 28 36 54 51 78 10 21 20 44 32 70 10 26 18 50 25 73 8 22 13 46 17 72m275-197c29-7 67-10 114-10h103v143c0 32-2 56-6 72 36-4 64-10 85-19 10-4 15-9 15-14 0-6-5-10-15-11-11-6-23-9-36-11V701h143l43 47c24-18 47-33 67-48 6-3 9-7 9-11 0-11-4-17-12-17H680c15-51 32-95 49-133 20-42 42-83 67-122 25-36 49-67 73-94 24-23 46-40 67-52v-17c-34 0-55-9-65-27-23 21-44 46-62 76-21 32-38 66-51 102-18 33-34 70-48 109-17 40-34 91-50 152V223h72l43 48c24-16 46-32 68-49 4-4 7-7 7-11 0-9-4-14-10-14H660V82c0-12 1-21 2-27 1-10 2-19 2-26 0-19-10-29-29-29-16 0-24 5-24 16 0 13 2 30 4 49 2 20 2 38 2 54v78h-60c-47 0-77-2-92-4l-22 43c29-9 67-13 114-13h60v364c-5-11-10-23-14-34-15-42-33-81-53-118-19-34-40-67-63-100-21-30-49-63-83-99l-11 14c30 40 55 78 76 116 21 33 40 71 55 113 17 35 31 71 41 110 11 29 19 57 24 83h-75c-46-1-76-2-92-4l-22 43Z"/></symbol><symbol id="缽_T" viewBox="0 0 1000 1000" data-size="21"><path transform="matrix(1 0 0 -1 20 957)" d="M674 696h134l47 50 60-53c5-5 8-9 8-12 0-9-5-13-13-13H684c34-93 72-171 113-235 29-45 59-82 88-110 18-17 43-36 75-55l-2-17c-9 1-15 1-19 1-19 0-36-9-53-26-88 101-157 230-205 385l-7 23V221h99l40 39 55-42c6-4 8-8 8-12 0-9-4-13-13-13H674v-39c0-31 2-67 6-107 1-11 2-19 2-24 0-15-9-23-27-23-19 0-28 7-28 21v172h-79c-23 0-47-2-73-5l-19 41c41-5 72-8 92-8h79v337c-32-75-68-142-107-201-27-39-61-80-104-124l-12 12c45 58 82 114 109 169 39 78 69 162 92 254h-59c-38 0-69-1-94-4l-18 43c31-7 68-11 112-11h81v139c0 37-1 63-4 78l53-12c28-6 42-13 42-22 0-8-8-15-25-21l-19-6V696m-433 22V516h104l38 39 56-42c6-4 9-8 9-13 0-8-5-12-14-12H241V116h88v215c0 32-1 57-4 73l52-12c29-7 43-14 43-22 0-9-8-16-24-21l-21-5V169c0-4 1-13 2-25 2-22 3-43 3-61 0-16-10-24-29-24-15 0-22 5-22 14v15H92c-13-4-22-5-29-5-12 0-18 7-18 21v229c0 35-1 61-3 78l52-12c28-6 42-13 42-22s-8-16-24-21l-20-5V116h103v372H92c-21 0-45-2-73-6L0 524c41-5 72-8 92-8h103v202h-85c-22-39-50-82-84-129l-12 10c50 88 90 192 118 310l65-25c10-4 15-9 15-15 0-7-5-11-15-13l-26-5c-20-49-36-85-46-105h182l40 39 55-42c5-4 8-8 8-13 0-8-4-12-13-12H241Z"/></symbol><symbol id="缽_J" viewBox="0 0 1000 1000" data-size="21"><path transform="matrix(1 0 0 -1 36 945)" d="M0 569c24 59 44 115 60 170 9 33 21 83 38 151l74-27c12-4 18-9 18-15 0-7-5-11-16-14l-20-5c-11-30-25-61-41-92h166l43 53 74-57v-22H216V537h75l44 56 78-61v-22H216V176h65v274l66-5c15-1 22-6 22-13 0-6-4-10-13-13l-12-4V100l-63-11v61l-190-1V38l-65-9v423l75-9c14-1 21-5 21-12 0-6-4-11-13-14l-18-7V176h63v334H16L6 537h148v174h-54c-23-49-52-99-86-149l-14 7m579-344v252c-35-54-68-99-97-134-31-37-69-75-114-115l-12 15c44 50 87 115 130 195 38 71 66 137 84 198H378l-9 28h211v225l70-5c17-1 26-5 26-12 0-8-6-14-18-18l-12-4-2-186h144l46 52 75-61v-19H653c37-140 129-261 275-364l-8-14c-17-2-29-6-36-11s-15-14-24-27c-45 41-84 86-117 133-30 45-54 95-72 150-7 17-16 47-28 89V225h58l40 49 69-55v-21H643V12L578 0v198H452l-10 27h137Z"/></symbol><symbol id="缽_K" viewBox="0 0 1000 1000" data-size="21"><path transform="matrix(1 0 0 -1 56 940)" d="m260 673 34 32h12l50-41v-14H209V476h63l34 35 13 1 51-45 1-13H208V120h53l-1 278 90-20v-17l-25-10-1-282-4-9-50-15-9 8v44H91V51l-6-13-54-15-5 5v370l89-23v-16l-24-10V120h54v334H3v22h141l1 174H88c-32-75-58-126-77-155l-11 7c41 103 68 228 81 375l94-30-2-15-27-7c-19-69-35-120-47-152h161m104-20h201v227l89-21v-14l-25-11V653h131l33 39h12l53-48v-14H643c23-89 52-160 87-215s88-109 157-162l-5-11c-14 2-23 3-27 3-19 0-39-8-60-25-45 62-79 120-102 174s-45 124-64 210V238h55l29 32h10l45-37v-15H629l-1-193-4-11-51-14-8 7v211H425v20h140v258c-67-129-143-232-228-307l-8 10c47 57 89 126 128 205s68 155 87 226H364v23Z"/></symbol><symbol id="缽_V" viewBox="0 0 1000 1000" data-size="20"><path transform="matrix(1 0 0 -1 19 1002)" d="m666 251 1-215c-9-10-17-16-24-19s-16-7-27-12l-1 246h-87l-16-4c-10-2-20-4-31-6-10-2-16-3-17-4l-19 35h170v405c-16-53-32-101-47-146-15-44-33-86-53-125-19-39-43-76-72-113-28-37-63-74-105-112l-9 10c11 17 23 33 35 49 12 17 24 33 36 50 28 38 53 82 76 133s43 103 58 157c16 54 27 104 32 151h-78l-16-4c-10-2-20-4-31-6s-17-3-18-4l-22 34h214v253l71-31-20-54V751h118l52 49 64-69H720c5-41 14-84 26-130s28-91 48-136 44-86 71-123c28-37 60-67 97-90v-9c-17-1-32-6-47-13-14-7-25-19-34-34-38 51-69 106-93 165s-43 120-57 182c-14 63-25 125-33 188h-32V272h60l44 50 62-71H666m-340-31V33c-7-12-13-19-20-22-6-3-15-7-28-11v67H126L89 12 31 52l30 41v323l67-24c-1-2-2-8-5-18-2-9-5-20-8-32-3-11-5-22-7-31s-3-13-3-14V92h66v404H70c1 0-3-1-10-3l-21-6c-7-2-10-3-11-4l-17 36h160v227h-58c-6-10-14-24-23-41s-20-34-31-53-21-36-32-51c-10-15-19-27-27-34 30 69 58 139 84 210 27 71 43 145 49 221l68-62-36-65c-3-4-5-9-6-14s-2-10-4-15c-5-13-10-25-16-37-5-12-11-24-16-36h128l34 44 61-67H220V519h73l39 47 62-70H220V90h58v336l69-28c-3-11-7-25-12-42s-8-31-9-42c-1-18-1-34-1-47 1-13 1-28 1-47Z"/></symbol><symbol id="缾_G" viewBox="0 0 1000 1000" data-size="21"><path transform="matrix(1 0 0 -1 29 967)" d="M479 913c71-42 113-73 125-96 11-21 13-39 7-54-6-14-15-22-27-24-12 0-20 2-23 8-5 6-8 17-10 33s-10 33-24 53c-13 19-33 42-58 68l10 12m375-23c5-4 9-6 9-6 4-7-2-12-19-16-16-2-38-25-67-66-28-41-48-73-62-94h90l35 49 60-57c2-2 4-4 4-8 0-6-4-9-11-9H777V429h77l27 49 57-57c1-2 3-5 3-8 0-8-4-12-13-12H777V144l4-93c0-11-8-20-23-30-16-8-28-13-35-13l6 138v255H582c0-103-22-186-66-248C471 92 418 41 357 0l-11 14c65 58 113 117 142 174 30 58 45 129 43 213h-51c-11 0-25-4-41-9l-23 37h115v254h-37c-21 0-42-3-60-8l-22 33h274c21 37 56 111 103 223l65-41M729 429v254H580V429h149M217 903c4-2 6-5 6-7 0-4-3-7-8-8-14-9-26-22-35-39-9-16-22-41-39-77h179l35 41 53-50c4-3 5-6 4-8-1-6-4-9-10-8H246V548h111l28 37c36-32 54-49 54-51 2-6 0-11-5-13H246V200l92 18v217l66-26c8-6 7-12-2-17l-19-10V214l6-63c0-8-5-15-16-21-10-7-21-11-35-13v81c-110-33-177-54-201-64-24-7-47-21-69-40l-43 57c23 6 36 16 38 30v265l66-25c10-3 13-6 10-10 0-2-10-9-30-19V173l88 19v329H70c-13-1-30-4-50-10L0 548h197v199h-68C96 686 59 630 18 579L2 589c29 50 59 108 88 174 27 65 47 123 60 172l67-32Z"/></symbol><symbol id="缾_H" viewBox="0 0 1000 1000" data-size="21"><path transform="matrix(1 0 0 -1 33 957)" d="M106 914c34-12 64-23 88-34 4-5 6-9 6-13 0-7-6-12-18-14-15-3-25-4-32-4-10-34-21-66-34-97h165l37 40c21-16 40-30 58-44 5-3 7-6 7-10 0-9-4-13-13-13H223V541h78l39 42c21-16 41-31 59-46 5-3 7-6 7-10 0-9-4-13-13-13H223V139h81c0 11 1 21 1 30v206c0 35-2 61-6 78 33-5 60-13 82-22 8-4 12-9 12-15s-4-11-10-13c-9-7-20-11-31-11V169c0-18 0-29 2-35v-34c0-15-10-22-30-22-15 0-23 9-23 26v7H80c-4-6-13-9-25-9-16 0-24 8-24 26 0 8 1 18 3 31 1 13 1 24 1 33v183c0 35-2 61-6 78 34-5 61-13 82-22 8-4 12-9 12-15s-3-11-10-13c-9-7-19-11-31-11V192c0-17 1-29 2-35v-18h92v375h-62c-46-2-78-4-94-7L0 553c29-8 67-12 114-12h62v184h-72c-9-21-18-40-29-58-14-24-32-49-53-73L4 605c16 30 30 57 42 83 9 22 18 47 26 74 9 28 16 53 23 77 5 23 9 48 11 75m374-6c17-15 33-30 46-46 15-13 26-27 36-40 9-13 16-25 19-35s5-19 5-28c0-12-2-21-5-27-5-7-11-11-18-11-5 0-9 2-12 6-3 2-6 10-9 24-4 18-9 34-17 51-7 16-16 32-24 47-9 14-21 30-36 47l15 12m289 4c31-9 60-20 85-32 5-4 7-8 7-11 0-6-4-11-12-15-15-3-29-5-41-5-6-13-11-26-18-37-6-13-14-26-22-39-8-11-15-20-23-29-7-9-16-18-28-28l-19 13c11 14 19 28 26 43 8 17 16 34 22 53 7 19 13 38 18 57 2 10 4 20 5 30M410 709c29-8 67-12 114-12h281l40 44c22-16 43-32 62-48 5-2 7-5 7-9 0-10-4-14-14-14H770V408h50l42 46c23-17 44-33 64-49 5-3 8-7 8-10 0-10-5-14-14-14H770V92c0-15 0-25 1-30V33c0-22-10-33-30-33-17 0-25 6-25 18 0 13 1 30 3 52s4 42 4 59v252H594c-2-24-5-46-8-67-7-39-19-75-35-109-16-39-36-72-60-99-27-32-65-65-112-99l-18 19c43 33 75 64 97 92 20 26 36 52 49 78 12 24 22 56 30 95 5 24 9 54 11 90h-31c-47-1-78-4-95-7l-20 46c29-8 67-12 115-12h32v262h-25c-46-1-77-4-94-7l-20 46m186-39V444c0-13-1-25-1-36h128v262H596Z"/></symbol><symbol id="缾_T" viewBox="0 0 1000 1000" data-size="21"><path transform="matrix(1 0 0 -1 32 963)" d="M219 730V532h89l39 40 55-42c5-4 8-8 8-13 0-8-4-13-13-13H219V116h95v246c-2 44-3 68-4 73l53-12c27-6 41-13 41-22s-8-16-24-20l-20-6V169c0-5 1-13 2-25 2-23 3-44 3-61 0-16-10-24-30-24-14 0-21 5-21 14v15H78c-12-4-21-5-28-5-12 0-18 7-18 21v251c0 35-2 60-4 77l53-11c28-5 42-13 42-22s-8-16-24-20l-21-6V116h94v388H91c-22 0-46-1-72-5L0 541c38-6 69-9 91-9h81v198H97c-23-39-51-82-85-128l-12 9c31 56 56 108 74 156 15 41 30 92 45 154l65-25c10-3 15-8 15-15 0-6-5-10-15-12l-25-5c-21-50-37-86-48-106h172l39 40 56-42c5-4 8-9 8-13 0-8-4-13-13-13H219m363-326c0-89-8-157-25-203-20-53-51-100-93-139-20-20-46-41-76-62l-13 15c50 47 85 88 106 121 27 42 43 94 50 156 4 28 5 65 5 112h-11c-38 0-69-1-93-4l-19 43c31-8 69-11 112-11h11v254c-32 0-62-1-90-4l-19 43c31-7 69-11 113-11h255l49 49 58-52c6-4 9-9 9-12 0-9-5-13-14-13H767V432h53l48 49 59-52c5-5 8-9 8-12 0-9-4-13-14-13H767V153c0-32 1-66 5-102 1-10 1-18 1-24 0-15-8-23-26-23s-28 7-28 21v379H582m0 28h137v254H582V432M474 924c11-10 19-17 25-22 59-51 89-94 89-129 0-22-9-33-25-33-10 0-18 12-24 35-13 47-40 93-82 137l17 12m299 2 65-25c13-4 19-10 19-17 0-8-8-12-24-14l-21-3c-29-52-64-94-105-125l-16 8c39 49 66 108 82 176Z"/></symbol><symbol id="缾_J" viewBox="0 0 1000 1000" data-size="21"><path transform="matrix(1 0 0 -1 37 951)" d="M0 580c41 89 73 193 95 314l78-21c12-3 18-8 18-14 0-7-7-11-22-14l-11-3c-14-35-29-69-45-103h161l46 57 80-62v-21H226V537h64l44 52 76-61v-19H226V176l62 1v277l66-5c16-1 24-6 24-13 0-6-4-11-11-14l-16-6V88l-63-13v75H101V41L39 31v417l67-6c17-1 26-5 26-12 0-6-6-11-19-16l-12-4V178l63-1v332H29l-12 28h147v176H98c-25-49-53-96-84-140l-14 7m581-184c-1-83-6-142-15-178-15-61-52-113-113-157-28-20-67-40-117-61l-9 16c63 34 110 72 139 115 31 45 48 103 50 173l2 92H402l-7 27h123v233H415l-10 27h266c10 37 17 64 22 82 15 54 25 97 32 130l76-20c12-3 18-8 18-15 0-5-5-10-16-13l-17-4-86-160h88l40 49 76-57v-19H757l-2-233h42l47 56 81-63v-20H756V16L693 4v392H581m-1 27h113v233H581l-1-233M478 901c23-15 43-31 60-48 37-37 55-73 55-108 0-16-5-29-15-38-7-7-14-10-21-10s-14 4-20 11c-4 5-6 10-7 15l-10 51c-6 31-24 68-54 111l12 16Z"/></symbol><symbol id="缾_K" viewBox="0 0 1000 1000" data-size="21"><path transform="matrix(1 0 0 -1 60 942)" d="m240 680 34 32h12l50-41v-14H200V483h53l33 35 13 1 51-45 1-13H198V127h50l-1 278 89-20v-17l-25-10V78l-7-11-47-15-9 8v44H85V58l-6-13-52-14-7 7v367l89-23v-16l-24-10V127h51v334H3v22h132l1 174H89c-25-58-51-110-77-155l-12 7c41 105 68 230 81 375l93-30-2-15-26-7c-3-11-5-17-5-18-15-55-29-100-42-134h141m506-6V420h45l31 42h13l45-50v-15l-134 1V25l-8-11-43-11-12 7 1 388h-57v-1l-45 1v22h102v254h-58v22h65l48 188 81-34-3-12-29-6-71-136h59l31 38h11l43-45v-15H746m-276 0h-97v22h91l47 188 81-35-3-13-32-5-65-135h54l28 34h12l34-41v-15l-89-1 1-232 101 28 5-15-107-50c-7-153-46-275-117-364-3-5-16-18-38-40l-12 9c35 57 60 110 75 161s25 121 30 210l-64-29-6-31-13-4-38 79 121 31 1 248Z"/></symbol><symbol id="缾_V" viewBox="0 0 1000 1000" data-size="20"><path transform="matrix(1 0 0 -1 27 993)" d="M734 443H619c-1-28-5-59-10-94-5-34-12-69-21-105-9-35-22-69-37-102s-33-61-54-86-46-43-75-56l-8 5c25 21 46 49 65 86 19 36 34 75 47 118s22 85 29 126 11 77 12 108h-30l-14-3-27-6c-9-1-14-2-15-3l-26 37h114v249h-14l-54-16-28 37h238c17 40 33 81 48 122s26 83 34 126l72-63c-27-29-51-59-73-89-22-29-43-61-62-96h84l48 41 65-65H785V468h49l43 43 69-68H785V57c-6-7-14-13-23-17-9-5-19-8-28-9v412m-67 373c0-6-2-14-7-25-4-11-9-20-16-29-7-8-14-12-22-12-7 0-11 3-13 9-2 7-3 12-4 17-5 39-11 74-19 104-7 31-23 62-46 95l1 1c10-9 22-19 36-32 15-12 29-25 42-40 14-14 25-29 34-44s14-30 14-44M385 315V37c-5-9-10-15-14-18-3-3-8-5-13-6s-12-4-21-7v62H95L58 17 0 54l30 39v302l67-22c0-1-1-5-4-12-2-7-5-14-8-23-3-8-5-15-8-22l-3-9V92h112v386H85c1 0-3-1-10-3l-21-6c-7-1-10-2-11-3l-17 34h160v242h-58c-5-9-13-21-23-38-9-16-20-33-31-51-11-17-21-33-32-48-11-14-20-24-27-30 29 63 57 127 82 190 25 64 41 131 47 202l72-47-36-61c-4-7-7-14-10-23-2-9-5-17-8-24l-24-48h127l36 41 61-63H235V500h47l39 44 62-66H235V90h102v314l69-26c0-1-1-4-4-11-2-6-4-13-7-22-3-8-5-15-7-21l-3-9m251 402-18-12V468h116v249h-98Z"/></symbol><symbol id="缿_G" viewBox="0 0 1000 1000" data-size="21"><path transform="matrix(1 0 0 -1 34 959)" d="M744 806c-58-11-135-24-232-39V604h318l41 49 55-56c4-3 6-6 6-10 0-5-3-7-8-8H512c2-92-1-172-8-240-6-67-20-129-41-188C443 96 406 46 350 0l-12 14c39 46 68 95 86 147 16 54 27 113 31 178 5 64 7 146 8 248v240l58-35c84 19 151 35 200 49 49 13 97 31 146 53 36-40 54-61 55-65 0-4-2-8-6-10-3 0-9 0-20 2-10 2-23 2-39 0-15 0-53-6-113-15M551 433l58-39h213l28 37 56-37c4-3 6-6 6-8 0-4-8-13-23-26V159l4-91c0-10-5-19-14-25-8-6-22-11-41-16v63H602V57c0-9-5-17-14-26-8-6-22-11-41-15l4 137v280m51-318h236v253H602V115M197 886c4-2 6-4 6-6 0-4-2-8-8-12-11-4-20-10-25-17-5-8-20-36-45-82h197l35 41 53-51c4-3 5-5 4-8-1-6-4-8-10-8H248V536h88l31 37c33-32 50-49 51-51 2-6 0-11-6-13H248V194l92 28v216l66-25c10-6 9-12-2-17l-19-10V229l6-74c0-8-5-15-16-21-10-8-21-13-35-14v80c-102-38-167-64-195-80-28-12-52-28-73-46l-43 56c22 7 34 17 35 31v270l67-26c10-2 13-6 10-9 0-3-10-10-30-20V155l88 28v326H72c-13-1-30-4-51-10L2 536h197v207h-84c-29-61-62-115-99-162L0 591c23 39 48 92 74 158 26 64 45 121 59 170l64-33Z"/></symbol><symbol id="缿_H" viewBox="0 0 1000 1000" data-size="21"><path transform="matrix(1 0 0 -1 38 955)" d="M113 910c32-10 60-22 83-34 5-4 7-8 7-11 0-6-7-10-20-11-14-3-25-4-33-4-11-37-23-71-36-104h167l39 39c19-13 38-27 56-41 3-2 5-4 5-8 0-11-3-17-10-17H221V535h78l41 43c21-14 40-29 57-45 6-2 9-4 9-8 0-11-4-17-13-17H221V133h85c0 10 1 18 1 25v213c0 35-2 61-4 78 32-3 58-9 79-18 7-6 11-11 11-17 0-4-3-8-9-11-8-6-18-9-30-10V86c0-12-9-18-26-18s-25 8-25 22c0 6 0 12 1 17H73c-6-2-12-3-20-3-15 0-22 7-22 21 0 9 1 20 2 33 2 13 2 24 2 35v178c0 35-1 61-4 78 32-3 57-9 77-18 9-6 13-11 13-17 0-4-3-8-10-11-9-6-19-9-29-10V133h92v375h-61c-46-1-78-2-95-4L0 547c28-8 66-12 113-12h61v184h-73c-10-20-19-39-30-57-15-25-35-50-57-76L0 600c17 29 32 57 46 83 9 21 19 46 29 74 9 27 17 53 23 78 6 23 11 48 15 75m715-74c-31-12-64-23-98-34-39-11-81-20-124-26-31-4-69-8-113-11l-1-7V604h305l45 54c26-19 51-38 75-54 5-4 7-8 7-14 0-11-5-16-14-16H492v-60c0-52-2-101-6-147-3-39-8-80-15-122-5-32-12-63-22-92-10-26-21-51-33-75-13-21-29-41-49-60l-17 11c13 18 25 37 34 58 8 19 16 40 24 61 7 25 13 52 17 83 6 36 10 73 13 111 5 51 7 108 7 172 0 131-2 235-6 314l53-40c21 3 42 6 64 10 30 6 59 14 87 22 30 9 55 18 76 29 22 7 39 16 52 25 13 8 23 17 32 26 26-17 49-34 70-49 4-3 6-7 6-11 0-8-5-12-16-12-10 0-22 3-35 8M518 418l60-29h250l26 29c35-20 52-34 52-43 0-6-9-14-27-25V97c7-7 14-14 20-19 5-2 7-4 7-6 0-10-3-15-10-15H564V21c0-7-3-12-11-15-9-4-16-6-22-6-9 0-13 5-13 14v404m46-336h268v279H564V82Z"/></symbol><symbol id="缿_T" viewBox="0 0 1000 1000" data-size="21"><path transform="matrix(1 0 0 -1 31 964)" d="M513 774V602h295l52 55 69-55c6-5 9-11 9-17 0-7-5-11-16-11H513v-61c0-109-8-199-24-268-20-84-55-157-105-218l-12 11c38 65 63 136 75 213 13 78 19 173 19 287v187l-2 59c0 22-1 38-3 49l52-34c141 22 243 59 306 110l52-37c11-8 17-16 17-23s-6-11-20-11c-5 0-10 1-14 1l-23 3c-99-33-205-56-318-68m82-377h234l33 37 40-26c13-9 20-17 20-24 0-9-13-19-38-30V99l25-15c8-5 11-10 11-18 0-6-3-9-8-9H591V14c0-9-7-14-21-14-20 0-29 8-29 25l4 79v252s-2 27-5 82l55-41m-4-313h247v285H591V84M221 737V526h89l39 39 55-42c5-4 8-8 8-13 0-8-4-12-13-12H221V109h95v246c0 33-2 57-4 73l53-11c28-7 42-14 42-22 0-10-8-16-25-21l-20-5V163c0-5 1-13 2-25 2-23 3-44 3-62 0-16-10-24-30-24-14 0-21 5-21 14v16H81c-12-4-22-6-28-6-13 0-19 7-19 22v252c0 35-1 61-4 78l53-11c28-7 42-14 42-22 0-10-8-17-24-21l-20-5V109h93v389H92c-23 0-47-2-73-6L0 534c41-5 72-8 92-8h82v211H99c-25-42-53-85-84-129L2 618c52 90 91 193 119 310l65-25c10-4 15-9 15-15s-5-11-15-13l-25-4c-20-49-36-84-47-106h169l39 40 56-42c5-5 8-9 8-13 0-8-4-13-13-13H221Z"/></symbol><symbol id="缿_J" viewBox="0 0 1000 1000" data-size="21"><path transform="matrix(1 0 0 -1 44 941)" d="M10 507 0 535h151v173H96c-29-64-54-111-75-142l-12 8c19 50 34 104 46 161 4 17 11 66 22 147l77-16c12-3 18-7 18-12 0-6-5-11-15-14l-17-6c-10-33-21-66-32-99h165l38 47 72-57v-17H213l-1-173h74l37 45 70-53v-20H212V170h65l2 273 65-7c14-2 21-6 21-13 0-5-5-10-14-15l-14-7V123l-59-10-1 32H90V42L27 31v415l74-10c11-1 16-5 16-10s-4-10-11-14l-16-9V170h62v337H10M285 11c81 93 121 204 122 335l2 461 76-29c118 27 218 59 299 96l69-51c12-9 18-17 18-22s-5-8-14-8h-8l-33 7c-136-23-251-39-346-48V584h314l46 56 81-63v-18l-442-4V379c0-75-11-139-33-190-19-45-51-94-96-145-12-13-26-27-42-41l-13 8M501 0v409l71-38h215l21 36 61-39c11-7 16-13 16-18s-5-9-14-14l-15-6 2-299-65-10v38H564V12L501 0m63 344V85h229v259H564Z"/></symbol><symbol id="缿_K" viewBox="0 0 1000 1000" data-size="21"><path transform="matrix(1 0 0 -1 69 943)" d="M750 389H550V84h200v305m85 419-14-8-31 18c-83-17-180-26-292-29V620h262l33 40h12l56-47v-15H498c0-68-1-121-4-159l59-28h187l28 31 18 1 52-50v-13l-24-13V38l-6-11-51-12-7 8v40H550V27l-7-13-49-14-7 5v372c-21-89-43-162-68-217S362 55 322 9l-12 10c45 75 77 153 96 235s28 186 28 311v275l68-27c101 6 194 30 279 72l54-77M260 676l34 32h12l50-41v-14H209V479h64l33 35 13 1 51-45 1-13H208V123h60l-1 278 89-20v-17l-25-10V75l-5-12-49-15-9 8v44H85V54l-6-13-51-12-8 6v366l89-23v-16l-24-10V123h60v334H3v22h141l1 174H89c-19-47-45-99-77-155l-12 7c44 115 71 240 81 375l94-30-2-15-27-7c-11-40-27-91-47-152h161Z"/></symbol></svg>