<svg xmlns="http://www.w3.org/2000/svg"><symbol id="证_G" viewBox="0 0 1000 1000" data-size="21"><path transform="matrix(1 0 0 -1 26 917)" d="M328 751h469l45 59 70-65c2-2 3-6 4-12 1-5-5-8-16-7H662V427h131l41 56 64-62c2-3 4-7 4-10 0-6-2-10-7-10H662V36h170l43 59 68-66c2-2 4-6 4-11-2-6-6-8-13-8H299c-14 0-28-3-43-10l-16 36h166v508l84-33c6-3 9-6 10-10 0-2-2-5-6-8l-37-15V36h152v690H398c-13-1-31-4-54-10l-16 35M182 560l52-49c6-4 9-8 10-12 0-5-14-15-43-31V132l133 113 12-17c-66-68-108-114-127-139-18-24-36-53-55-85l-57 56 43 41v390H59c-13 0-26-2-39-8L0 517h146l36 43m-57 275c54-32 90-61 107-86 16-26 22-48 18-66-5-18-12-30-21-36-9-5-17-6-26-1-8 4-12 14-12 31 0 15-5 35-15 58-8 23-28 53-61 90l10 10Z"/></symbol><symbol id="诂_G" viewBox="0 0 1000 1000" data-size="21"><path transform="matrix(1 0 0 -1 46 958)" d="M299 661h269v256l88-31c2-2 2-4 2-6 5-3 5-5 2-8l-41-21V661h180l39 53 66-63c2-2 4-4 4-7 0-9-4-12-12-10H619V403h123l35 39 51-45c6-3 9-8 10-13 0-3-11-12-31-28V132l4-91c0-8-7-16-20-23-12-9-23-13-35-14v70H438V35c0-8-6-15-18-23-12-6-24-10-37-12l4 114v328l56-39h125v231H377c-13 0-34-3-63-8l-15 35m139-559h318v274H438V102M123 884c66-37 107-67 121-88 13-20 20-37 20-53-1-15-4-26-10-33-6-8-12-12-18-14s-13-2-21 2c-7 3-13 13-16 31-2 19-8 37-15 55-8 20-32 49-71 88l10 12m51-272 60-43c2-2 4-6 4-9 0-4-4-9-13-14l-22-20V163l137 125 15-16c-62-64-106-112-130-142-24-31-41-59-51-85l-61 55c18 13 32 29 41 47v401H55c-10-1-22-4-35-10L0 573h145l29 39Z"/></symbol><symbol id="诃_G" viewBox="0 0 1000 1000" data-size="21"><path transform="matrix(1 0 0 -1 36 951)" d="m352 661 56-43h143l33 43 57-45c5-4 9-8 9-13 0-2-10-11-31-26V384l4-76c1-9-5-18-18-28-12-9-24-14-37-15v64H404v-47c0-8-6-17-19-25-12-8-24-13-37-14l4 119v299m52-305h164v237H404V356M264 821h558l43 49c38-36 58-57 61-62 2-5 3-8 2-10-3-3-8-4-16-4H803V82c0-19-8-37-24-53-15-14-35-24-58-29-4 18-15 33-33 47-20 14-54 26-102 37l4 20c78-15 125-21 140-16 16 5 23 14 22 26v680H346c-14 0-36-3-67-8l-15 35M82 901c66-37 107-66 121-88 13-19 20-37 20-52-1-15-4-26-10-33-6-8-12-13-18-14-6-3-13-2-21 2-7 2-13 13-16 31-2 18-8 37-15 55-8 19-32 49-71 88l10 11m84-273 59-41c4-3 5-6 5-10s-3-8-11-14l-20-19V183l110 117 15-16c-64-80-104-131-119-154-14-24-27-48-37-73l-61 53c18 15 32 31 41 49v406H55c-10 0-22-3-35-9L0 591h139l27 37Z"/></symbol><symbol id="评_G" viewBox="0 0 1000 1000" data-size="21"><path transform="matrix(1 0 0 -1 34 950)" d="M799 735c42-20 64-34 66-39s2-8-2-9c-2-1-8-4-17-10-8-6-20-20-35-41-15-22-47-77-96-166l-18 8c40 89 74 175 102 257m-453 78h425l38 53 62-58c2 0 4-3 6-8 0-8-4-12-12-12H633V423h199l37 51 57-57c4-4 6-7 6-8-1-8-6-12-16-12H633V161l4-122c0-9-7-18-20-27-13-7-25-11-35-12l4 155v242H373c-14 0-33-2-57-7l-25 33h295v365H428c-15 0-33-4-57-12l-25 37m9-93 12 9c41-39 72-70 92-95 20-26 31-48 35-67 5-20 3-37-4-50-6-14-15-20-29-18-13 1-20 7-22 20-1 12-2 26-3 43-2 15-7 34-16 56-8 20-29 54-65 102M100 899c63-35 102-62 119-82 15-18 24-35 27-50 2-16 0-28-6-36s-11-13-17-15c-7-3-13-2-20 2-6 3-11 14-14 33-1 18-9 37-23 59-12 20-36 46-72 78l6 11m84-267 52-47c5-3 7-6 8-10-1-4-6-10-15-15l-22-16V163l145 125 11-14c-76-71-125-119-146-144-20-25-39-51-57-77l-49 51c18 10 35 25 51 45v416H53c-12-1-24-4-35-9L0 587h152l32 45Z"/></symbol><symbol id="诅_G" viewBox="0 0 1000 1000" data-size="21"><path transform="matrix(1 0 0 -1 32 921)" d="m412 827 51-41h273l30 45 58-47c5-4 8-8 8-13 1-6-10-16-33-30V41h43l33 46c40-36 61-56 61-60 0-3-1-6-2-9-2-2-8-4-18-4H355c-26-2-42-6-50-14l-22 41h129v786m49-786h289v243H461V41m0 269h289v211H461V310m0 236h289v213H461V546M117 843c69-37 110-67 123-88 13-20 20-37 20-53-1-15-4-26-10-33-6-8-12-12-18-14-5-2-12-2-19 2-6 2-11 13-14 33-2 18-8 37-17 57-9 19-34 47-75 84l10 12m72-258 61-45c4-3 6-6 6-10 1-4-5-8-16-13l-23-20V146l131 111 13-18c-66-63-111-110-134-142-23-31-41-58-55-81l-57 51c15 11 33 30 55 55v397H55c-10-1-22-4-35-10L0 544h162l27 41Z"/></symbol><symbol id="识_G" viewBox="0 0 1000 1000" data-size="21"><path transform="matrix(1 0 0 -1 49 937)" d="m426 839 58-45h274l35 41 62-55c4-2 6-5 6-8 1-4-12-15-39-33V489l4-84c1-8-4-17-15-27-10-9-24-14-41-16v57H479v-18c0-7-7-16-20-25-12-8-25-12-37-12l4 114v361m53-393h291v321H479V446M131 874c68-37 108-66 121-88 12-20 17-37 16-51-1-11-4-21-10-29s-13-12-20-14c-6-2-12-2-19 2-8 3-13 13-14 32-2 17-6 33-14 48-5 16-29 45-70 88l10 12m60-262 61-47c4-2 6-5 6-9s-5-9-16-14l-21-18V192l146 125 12-13c-85-82-135-132-150-151s-35-46-61-83l-49 56 53 55v361H55c-13-1-24-4-34-10L0 567h160l31 45m63-600c60 53 111 104 152 153 39 48 76 100 110 154 47-30 69-47 66-50-2-4-5-6-8-6-2 0-8-3-19-8-10-4-22-14-37-29-15-16-43-46-86-90-43-45-99-90-168-136l-10 12m400 288 10 12c55-36 99-67 133-94 33-28 60-56 80-84 18-27 27-49 25-68 0-17-5-29-13-35-7-4-17-5-28-4-11 3-19 13-23 32-5 17-15 39-31 67-16 27-37 56-65 86-27 29-56 59-88 88Z"/></symbol><symbol id="诇_G" viewBox="0 0 1000 1000" data-size="21"><path transform="matrix(1 0 0 -1 41 959)" d="m500 700 57-35h127l29 35 51-37c2-1 3-4 4-10 0-2-8-9-24-23V353l4-77c2-9-5-17-19-23-14-7-25-10-32-10v70H549v-62c0-8-7-16-20-23-11-9-22-12-33-10l4 127v355m49-363h148v303H549V337M359 911l63-43h400l33 41 53-39c6-4 9-8 10-12 0-4-10-13-31-27V80c-2-21-8-39-18-53-9-11-28-20-56-27-8 26-24 44-47 55-23 8-49 17-78 27l5 18c51-13 86-22 104-26 17-2 28-1 33 4 4 7 5 18 4 33v732H412V149l4-98c-1-10-8-20-21-30-15-9-28-14-40-15l4 128v777m-244 8c67-37 107-66 121-88 13-19 20-37 20-53-1-15-4-26-10-33-6-8-12-12-17-14-7-2-14-2-22 2-7 3-12 13-16 32-2 18-7 36-15 54-8 20-31 49-71 88l10 12m53-275 61-47c1-3 3-6 3-10s-4-9-13-14l-24-19V190l139 125 16-15c-63-65-107-112-131-143s-41-59-51-85l-63 54c18 14 32 31 41 49v400H55c-10 0-22-4-35-10L0 601h137l31 43Z"/></symbol><symbol id="诈_G" viewBox="0 0 1000 1000" data-size="21"><path transform="matrix(1 0 0 -1 58 958)" d="M459 726h316l39 55 69-68v-8c0-3-3-4-8-4H564V509h168l43 53 69-68c1-2 2-5 2-8s-3-4-8-4H564V300h202l41 55 70-70c1-3 2-5 2-8s-3-4-8-4H564V146l4-104c1-10-6-20-21-30-14-8-26-12-37-11l4 141v559h-69c-45-83-99-160-162-233l-13 10c64 100 111 186 140 258 29 70 52 130 69 180 57-20 87-33 89-37s2-7 0-10c0-3-7-6-21-10-14-3-27-18-41-45-14-25-29-55-47-88M119 892c67-39 107-68 121-88 14-19 21-35 22-50 0-14-2-25-6-32s-10-12-18-13c-6-3-12-2-19 2-7 2-13 11-16 29-2 16-8 33-19 53-10 19-34 47-75 86l10 13m53-252 60-52c4-3 6-6 6-10 1-4-4-9-15-14l-24-17V185l170 133 14-16c-93-89-151-144-174-164-21-20-40-48-57-83l-52 64 50 49v402H55c-13 0-26-3-39-8L0 595h141l31 45Z"/></symbol><symbol id="诉_G" viewBox="0 0 1000 1000" data-size="21"><path transform="matrix(1 0 0 -1 37 948)" d="M822 830c-136-26-254-47-353-65V593h347l41 49 67-60c1-3 2-6 2-8 0-5-3-7-8-8H705V406c37-16 70-29 98-41 27-12 50-24 68-35 17-13 28-26 33-39 5-14 5-26 0-35-6-11-13-15-23-14-10 0-18 3-24 10-6 6-15 17-27 31s-27 27-47 39c-17 12-43 27-78 45V142l4-100c0-10-7-20-20-30-13-8-26-12-37-11l4 126v265c-43 20-84 37-121 53l2 16c38-10 78-22 119-36v141H469c-2-137-15-247-37-330-23-84-89-161-198-231l-9 11c91 80 146 158 166 234 19 74 28 177 27 310v281l61-50c128 26 237 60 326 101l52-54c6-5 4-10-3-16-13 3-23 6-32 8m-699 66c76-40 121-70 135-90 13-20 21-38 21-54 0-15-4-26-9-34-7-5-12-9-16-11-5-1-11 0-20 2-7 2-13 13-17 31-4 17-12 35-24 55-9 19-35 48-80 87l10 14m53-277 62-51c4-3 6-6 6-10 1-4-4-8-15-13l-24-18V201l141 127 15-16c-71-73-117-125-138-156-22-31-39-60-53-85l-59 56c18 13 34 29 47 47v376H55c-10 0-22-3-35-9L0 574h148l28 45Z"/></symbol><symbol id="诊_G" viewBox="0 0 1000 1000" data-size="21"><path transform="matrix(1 0 0 -1 45 963)" d="M605 896c9-6 9-11 0-16-10-2-20-7-31-14 18-43 44-89 78-137 34-46 72-82 116-109 41-27 89-45 142-57v-15c-23 1-42 0-55-4-14-5-27-14-39-27-48 33-89 67-123 101-31 33-58 70-82 111-21 43-39 83-52 122-51-94-101-172-151-235-51-62-105-117-164-164l-10 14c75 72 137 150 188 234s87 159 109 227l74-31m22-329c2-6-3-9-14-9-17-5-33-13-47-26-89-92-172-154-248-187l-7 11c121 86 207 172 257 256l59-45m84-136c3-6-1-10-10-12-13 0-27-7-41-20-13-11-49-43-109-93-58-50-134-94-227-133l-6 14c76 41 142 85 198 134 56 50 103 101 142 155l53-45m111-129c6-10 2-15-13-14-15 4-41-10-80-41-90-70-176-125-258-165-83-41-162-68-237-82l-2 14c81 26 151 56 211 91 63 33 120 69 170 107 50 36 100 83 149 139l60-49M115 888c59-37 95-65 110-84 13-18 20-34 21-49-1-15-4-26-10-33-6-8-11-13-17-14-5-1-10 1-16 4-6 4-10 14-12 29s-7 31-15 49-31 46-71 86l10 12m47-260 55-47c4-3 6-6 6-10s-5-8-16-13l-19-18V185l138 117 14-16c-71-67-119-114-143-142-24-29-41-56-51-81l-56 57c15 9 33 24 53 45v402H55c-10 0-22-4-35-9L0 591h135l27 37Z"/></symbol><symbol id="诋_G" viewBox="0 0 1000 1000" data-size="21"><path transform="matrix(1 0 0 -1 34 940)" d="M795 807c-33-2-78-10-135-23V518h143l43 53 68-63c2-2 3-6 4-10 0-5-3-8-8-7H664c3-40 7-77 14-110 6-33 17-66 31-99 13-32 27-59 43-82 15-23 33-44 55-63 21-18 35-25 41-23 5 2 9 17 13 45 4 25 8 57 14 97l20-2c-1-66 0-110 1-131 0-19 4-35 12-47 7-12 14-21 20-28 4-8 5-13 4-17-3-5-8-8-16-8-8-1-29 5-61 17-31 15-59 34-84 58-24 25-46 53-66 84-19 29-38 70-55 121-15 49-27 111-35 188H424V162l156 110 12-16c-97-82-151-131-162-144-12-14-30-34-53-60l-51 56c25 11 41 29 49 52v657l51-47c95 19 176 38 240 56s109 35 137 51l52-64c1-5 0-9-3-14-17 1-36 4-57 8M611 518v258c-74-12-136-22-187-30V518h187m-93-377 7 14c52-21 88-37 108-51 17-13 28-28 33-44 5-15 3-29-4-43-7-12-16-17-27-16-11 0-18 7-22 20-4 14-10 29-19 47-8 17-33 42-76 73M111 881c67-37 107-66 121-88 13-19 20-37 20-52-1-15-4-26-10-34-6-7-12-12-17-13-7-3-14-2-22 2-7 2-12 13-15 31s-8 36-16 55-31 48-70 87l9 12m51-263 61-49c2-3 3-6 4-10 0-4-5-9-14-14l-22-19V196l112 113 15-16c-60-71-101-122-123-154-21-31-37-60-47-85l-64 50c25 19 45 40 59 62v387H55c-10-1-22-4-35-10L0 578h133l29 40Z"/></symbol><symbol id="诌_G" viewBox="0 0 1000 1000" data-size="21"><path transform="matrix(1 0 0 -1 70 950)" d="M363 548h196c29 47 68 109 117 187H480c-82-121-159-211-230-269l-10 12c53 52 103 117 151 193 47 74 87 150 121 228 52-25 78-39 78-43v-7c-1-2-7-4-20-6-11-3-22-10-31-22-10-12-23-32-41-60h178l39 39c45-40 68-61 68-63s0-4-2-8c0-3-6-6-17-7-12-2-28-10-47-24-19-12-61-62-127-150h170l33 41 61-49c3-3 5-5 5-8 0-4-11-13-35-29V134l4-97c-1-8-7-16-19-23S785 2 773 0v78H396c-16 1-35-2-56-8l-26 34h459v208H445c-13 0-29-3-47-8l-21 35h396v182H416l-29-6-24 33M113 882c60-32 101-59 121-80 20-20 31-39 34-55 2-16-1-28-8-37-6-9-13-14-20-16-6-2-12-2-19 2-7 2-12 14-16 35-3 22-12 43-27 65-14 21-39 46-76 74l11 12m55-278 57-46c4-3 7-6 7-10s-5-9-15-14c-16-6-24-16-24-31V147l147 114 12-16c-77-70-126-116-149-139-22-20-39-47-51-79L92 87l51 39v408H55c-10 0-22-2-35-8L0 560h137l31 44Z"/></symbol><symbol id="词_G" viewBox="0 0 1000 1000" data-size="21"><path transform="matrix(1 0 0 -1 51 937)" d="M342 819h455l35 45 59-54c5-2 7-6 7-12 0-5-13-14-41-27V101c1-17-2-35-9-54-6-18-30-33-71-47-9 29-19 46-29 51-10 6-49 20-115 40l4 17c52-13 92-21 119-24 25-4 41-3 47 2 6 3 8 14 6 34v672H412c-16 0-31-3-45-8l-25 35m-26-175h329l39 46 60-56c2-2 3-4 4-6 0-8-4-12-12-12H398c-13 0-35-2-66-8l-16 36m63-108 59-39h156l31 39 59-45c4-2 5-5 5-8 0-4-9-13-29-29V294l4-57c0-9-6-18-18-25-11-7-24-10-37-10v61H428v-53c0-9-7-18-20-27-12-8-23-12-35-12l6 88v277m49-248h181v184H428V288M121 874c61-35 98-62 111-82 13-19 20-36 20-51-1-13-4-24-10-31-6-8-12-12-15-14-4 0-10 1-18 4-6 2-10 12-14 29-2 17-6 34-13 51-6 17-28 45-69 84l8 10m63-254 58-43c4-2 6-6 6-10 1-4-5-8-16-13-16-6-24-17-25-32V175l117 105 10-13c-55-61-94-104-117-129-22-25-39-53-51-85l-53 48 45 50v403H55c-10 0-22-3-35-8L0 579h148l36 41Z"/></symbol><symbol id="诎_G" viewBox="0 0 1000 1000" data-size="21"><path transform="matrix(1 0 0 -1 47 954)" d="m590 907 94-35c2-3 3-5 4-8 0-2-2-4-6-6l-43-17V497h160v287l80-31c4-1 6-3 6-8 0-4-13-12-37-23V542l4-80c0-10-6-18-18-25-12-6-23-10-35-12v45H639V94h181v282l78-29c4-2 6-5 6-8 6-4-6-13-35-26V112l4-77c0-8-6-15-18-23-11-6-23-10-35-12v66H424l-33-35-61 47 33 23v279l84-31c2-3 2-6 2-8 0-3-12-11-37-22V94h178v376H438l-32-32-52 51 25 16v287l82-31c5-2 8-5 8-8 2-4-11-12-39-24V497h160v410M92 886c66-37 107-67 121-88 13-20 19-37 19-53 0-15-3-26-9-33-6-8-12-12-18-14s-14-2-21 2c-8 3-13 13-16 31-3 19-8 37-16 55-7 20-31 49-70 88l10 12m76-287 61-47c1-3 3-6 3-10 2-4-2-8-11-14l-24-19V167l121 107 16-15c-51-53-90-94-115-123-24-29-41-56-51-81l-61 53c18 11 32 25 41 43v379H55c-10 0-22-4-35-9L0 556h139l29 43Z"/></symbol><symbol id="诏_G" viewBox="0 0 1000 1000" data-size="21"><path transform="matrix(1 0 0 -1 62 939)" d="m793 425 57-41c7-4 11-9 11-14 0-4-10-12-31-23V161l4-98c0-10-7-20-20-30-13-9-25-13-35-13v64H475V39c0-10-7-19-20-27-14-7-25-11-35-12l4 130v295l56-35h288l25 35M475 108h304v256H475V108m46 676H406c-11 0-29-2-52-6l-20 34h443l30 35c43-26 65-41 68-45 2-5 2-8 0-10-2-1-12-8-31-21-5-132-12-209-22-233-8-23-21-42-37-55-15-11-36-21-60-29-9 22-21 37-37 45-17 8-42 17-75 27l6 18c26-6 51-12 76-18 23-4 41-3 55 4 12 5 21 18 27 37 6 18 10 90 14 217H572c0-73-19-142-54-207-36-64-112-125-231-181l-10 15c104 63 170 123 200 182 29 58 44 122 44 191m-402 94c67-37 107-66 121-88 13-19 20-37 20-53-1-15-4-26-10-33-6-8-12-12-18-14s-13-2-21 2c-7 3-12 13-16 32-2 18-7 36-15 54-8 20-32 49-71 88l10 12m49-264 61-47c3-2 5-5 5-9s-4-9-13-14l-22-20V167l151 119 15-15c-72-61-121-107-146-137-26-31-44-60-55-85l-60 54c16 14 31 30 44 48v395H55c-10-1-22-4-35-10L0 571h139l29 43Z"/></symbol><symbol id="诐_G" viewBox="0 0 1000 1000" data-size="21"><path transform="matrix(1 0 0 -1 30 974)" d="m375 802 61-47h173v193l79-27c8-3 13-5 13-8 6-4 3-8-8-14l-35-13V755h180l29 29 49-43c10-6 15-13 14-21 0-2-5-4-14-6-16-3-35-12-57-27l-64-69-14 8 59 102H658V530h96l29 33 63-50c2-3 3-6 4-8 0-5-4-8-12-10-9-4-17-11-25-19-24-69-47-123-71-164-23-40-47-77-74-112 37-30 72-53 105-68 34-13 62-22 84-28 22-4 49-8 82-12V74c-15 0-31-1-46-4-15-2-32-15-51-39-36 18-69 37-98 57-28 18-62 46-103 83-40-38-86-70-139-97-51-25-120-49-207-74l-4 16c90 33 154 61 193 84 39 21 82 55 131 100-30 39-52 78-68 117-15 39-30 102-45 188h-76c0-141-20-247-59-318-39-70-99-129-181-177l-8 15c64 44 114 101 150 171 34 69 50 180 47 334v272m150-297c16-69 31-121 45-156 14-36 37-75 69-118 17 24 39 59 64 106 24 45 42 101 57 168H525m-99 25h183v198H426V530M119 938c67-37 107-66 121-87 13-20 20-38 20-53-1-15-4-26-10-33-6-8-12-13-18-14-6-3-13-2-21 2-7 3-12 13-16 31-2 18-7 37-15 55-8 19-32 49-71 88l10 11m49-263 61-47c1-3 3-6 3-10s-4-8-13-14l-24-19V222l139 125 16-16c-63-65-107-113-131-144s-41-59-51-83l-61 53c16 15 29 31 39 49v400H55c-10 0-22-3-35-9L0 632h137l31 43Z"/></symbol><symbol id="译_G" viewBox="0 0 1000 1000" data-size="21"><path transform="matrix(1 0 0 -1 23 952)" d="M379 419h211v137l78-34c5-1 7-3 8-5 2-4 1-8-2-12l-35-16v-70h121l39 43 56-51c2-2 4-4 4-8 0-7-4-11-13-11H639V267h179l43 45 57-53c2-2 3-5 4-8 0-8-4-12-12-12H639V118l4-77c0-8-7-17-20-27-14-9-26-14-37-14l4 116v123H410c-12 0-33-2-64-8l-18 36h262v125H461c-12 0-33-3-65-8l-17 35m-88 45c70 29 129 57 178 84 48 25 88 52 119 80-57 46-102 107-133 184h-68l-20-4-19 31h394l45 45 57-59c6-3 9-8 8-15 0-2-3-4-10-6-9-2-22-6-39-12-48-63-98-118-151-166 26-16 58-31 98-45 38-12 72-19 102-23 30-2 63-3 101-2v-20c-29-2-49-6-60-14-10-7-19-20-26-37-55 20-103 39-142 57s-73 37-104 59c-45-34-90-61-135-82-45-20-108-43-189-71l-6 16m193 348c37-71 82-124 137-161 41 43 84 96 129 161H484m-357 91c62-39 102-70 117-91 14-21 21-38 20-51-1-14-4-24-8-32-4-7-10-12-18-13-6-3-12-2-19 2-8 2-13 13-14 31 0 17-6 36-17 57-11 19-35 48-73 86l12 11m47-257 64-47c4-3 6-6 6-10 1-4-4-9-15-14l-24-19V212l133 121 14-16c-69-74-114-124-133-148-20-22-38-51-55-87l-62 56 54 49v386H55c-11 1-22-2-34-10L0 601h143l31 45Z"/></symbol><symbol id="诒_G" viewBox="0 0 1000 1000" data-size="21"><path transform="matrix(1 0 0 -1 37 965)" d="M680 886c8-6 7-12-2-18-20-2-34-8-43-15-9-8-32-38-69-88-35-50-81-111-136-184 107 2 245 5 414 10-30 51-71 103-123 156l11 10c73-50 123-91 149-121 25-30 40-55 45-76 2-22-1-39-8-53s-16-20-27-16c-11 2-19 11-22 28-2 16-6 32-14 48-195-9-317-16-365-21-47-5-84-16-111-33l-33 66c21 1 41 8 58 20 63 84 131 194 201 332l75-45M420 450l59-45h291l29 39 60-45c4-3 6-6 6-7 0-5-10-14-29-28V134l4-81c-1-7-6-15-16-22-9-7-22-12-39-15v84H469V39c0-9-6-18-18-25-12-9-23-13-35-14l4 124v326m49-324h316v252H469V126M145 899c66-37 106-66 121-87 13-20 19-38 19-53s-4-26-10-33c-5-8-11-13-17-14-7-3-14-2-22 2-7 2-12 13-15 31s-8 37-16 55c-8 19-31 49-70 88l10 11m44-277 61-47c2-2 3-6 4-10 0-3-4-8-12-13l-23-20V173l138 125 16-16c-63-64-107-112-133-142-25-30-45-59-58-87l-55 57c17 14 31 29 43 45v399H55c-10-1-22-4-35-10L0 579h160l29 43Z"/></symbol><symbol id="诓_G" viewBox="0 0 1000 1000" data-size="21"><path transform="matrix(1 0 0 -1 32 933)" d="m861 856 69-62c1-3 2-6 2-10s-3-7-8-8H416V61h410l41 51 67-61c1-2 2-5 2-10s-3-7-8-8H422L383 0l-53 57 35 28v768l63-49h390l43 52M465 651h314l37 45 55-54c2-2 3-5 4-8 0-7-4-10-12-10H689V454h82l40 45 64-57c1-2 2-4 2-7 0-5-3-8-8-8H689V237h104l31 41 59-49c4-3 6-6 6-9 0-7-4-10-12-10H527c-13 0-35-3-66-8l-16 35h196v190h-84c-13 0-32-3-57-10l-25 37h166v170H535c-14 1-31-3-53-10l-17 37M105 866c67-37 107-66 122-88 13-19 19-37 19-52-1-15-4-26-10-34-6-7-11-12-17-13-7-3-14-2-22 2-7 2-12 13-15 31s-8 36-16 55-31 48-70 87l9 12m63-289 61-47c1-2 3-6 3-9 0-4-3-9-11-14l-24-20V161l114 108 15-16c-66-75-109-125-129-150-17-25-33-51-47-78L92 87c25 15 44 31 56 49v373H55c-10-1-22-4-35-10L0 534h139l29 43Z"/></symbol><symbol id="诔_G" viewBox="0 0 1000 1000" data-size="21"><path transform="matrix(1 0 0 -1 36 961)" d="M295 759h248v164l88-27c3-2 6-5 8-10-1-2-2-5-4-8l-41-16V759h162l45 51 60-59c2-2 4-4 4-6 0-8-4-12-11-12H594V616h131l37 45 54-51c2-2 4-4 6-7 0-8-4-12-11-12H594V472h205l39 49 58-57c2-2 4-5 6-8 0-6-4-10-11-10H639c21-66 45-117 70-152 26-34 58-63 96-86 37-24 78-37 123-39v-18c-32 0-54-4-67-11-14-7-27-16-39-28-37 32-68 61-92 88-23 26-44 58-64 98-20 38-36 87-49 148h-23V132l4-97c0-8-7-15-20-23S552 0 539 0l4 128v279c-39-77-82-144-129-203-47-58-107-111-182-159l-7 14c68 59 125 121 170 186 44 65 80 132 107 201H344c-14 0-36-2-67-8l-15 34h281v119H408c-13 0-32-3-54-8l-16 33h205v117H377c-14 0-36-2-66-7l-16 33M104 911c66-37 106-66 121-88 13-19 19-37 19-52-1-15-4-27-10-34-5-8-11-12-17-13-7-3-14-2-22 2-7 2-12 13-15 31s-8 36-16 55-31 48-70 87l10 12m64-271 61-47c1-3 3-6 3-10s-3-8-11-14l-22-19V222l131 121 16-16c-60-62-102-109-127-140-24-31-41-59-51-83l-61 53c18 15 32 31 41 49v365H55c-10 0-22-4-35-9L0 597h139l29 43Z"/></symbol><symbol id="试_G" viewBox="0 0 1000 1000" data-size="21"><path transform="matrix(1 0 0 -1 33 963)" d="M281 503h244l30 43 56-51c2-2 4-4 4-8 0-6-2-9-8-9H480V200l163 45 5-17c-174-65-270-101-289-109-16-10-32-21-48-35l-45 56 166 48v290h-75c-20 0-37-3-50-8l-26 33m584 230 67-56c1-2 2-5 2-8 0-5-3-7-8-8H680c0-88 2-161 6-219 3-56 13-110 27-160 14-51 32-92 57-123 21-30 36-48 44-54 8-4 15-9 22-13 5-3 12 10 21 40 8 31 17 71 28 121l17-4c-6-57-9-102-11-136-3-34 0-57 7-68 8-10 13-18 16-24 3-5 3-9 2-13-2-3-6-6-14-8-7 0-18 2-31 6-12 3-31 14-58 33-26 18-53 47-83 87-27 40-48 89-64 145s-25 109-29 158-7 126-8 232H359c-19-1-35-4-50-10l-24 36h344v240l80-37c2-4 3-8 4-12l-4-4-29-16V687h150l35 46M740 854l6 12c27-8 51-19 72-31 20-12 32-25 36-41s3-28-4-37c-8-11-17-15-26-14-8 1-13 7-15 16-3 9-8 22-16 39s-25 36-53 56m-638 34c62-36 101-65 117-86 13-22 21-40 21-55 0-16-4-27-10-35-5-8-12-12-19-14-6-1-12 1-20 6-5 4-10 15-13 33-2 17-8 35-18 55-9 20-32 48-68 84l10 12m58-264 63-53c4-2 6-6 6-9 0-4-5-9-16-14l-29-16V163l144 111 14-15c-74-67-123-114-147-140-24-27-43-54-56-80l-55 61c14 8 31 23 53 44v412H57c-8-1-18-4-30-10L0 581h133l27 43Z"/></symbol><symbol id="诖_G" viewBox="0 0 1000 1000" data-size="21"><path transform="matrix(1 0 0 -1 40 943)" d="M330 687h236v199l82-30c5-2 8-5 8-11 0-2-2-4-6-6l-33-12V687h147l33 50 60-56c2-2 4-5 4-8 0-8-4-12-11-12H617V485h182l39 51 64-55c2-2 4-5 4-9 0-8-4-12-11-12H369c-14 0-36-3-66-8l-16 33h279v176H418c-14 0-36-2-66-8l-22 34m4-403h230v168l82-23c4-3 6-6 6-10l-6-6-31-16V284h141l33 47 61-53c2-2 3-5 4-7 0-8-4-12-12-12H615V43h192l39 56 70-60c2-2 3-5 4-10 1-8-5-11-16-11H342c-14 0-36-2-67-8l-21 33h310v216H422c-14 0-36-3-67-8l-21 33M111 849c67-37 107-67 121-88 13-20 20-37 20-53-1-15-4-26-10-33-6-8-12-13-17-14-7-2-14-2-22 2-7 3-12 13-15 31-3 19-8 37-16 55-8 20-31 49-70 88l9 12m57-262 61-47c1-3 3-6 3-10s-4-8-13-13l-22-20V122l135 109 16-15c-59-55-103-98-131-129-29-32-49-61-59-87l-56 63c20 11 35 26 44 43v413H55c-10-1-22-4-35-10L0 544h139l29 43Z"/></symbol><symbol id="诗_G" viewBox="0 0 1000 1000" data-size="21"><path transform="matrix(1 0 0 -1 33 961)" d="m195 622 53-45c5-6 8-10 8-14s-13-13-37-27V185l146 111 14-16C248 165 181 94 178 66l-57 54 51 51v383H59c-16 0-28-4-38-12L0 579h162l33 43m151 119h238v182l80-31c5-2 8-5 8-10 0-2-2-5-6-8l-33-18V741h140l40 57 68-61c2-2 3-6 4-11 0-6-4-9-12-8H633V554h191l37 54 63-60c6-5 9-11 10-16-1-4-6-6-14-6H377c-14 0-35-2-64-5l-18 33h289v164H434c-17 0-41-3-73-8l-15 31m-16-365h373v135l80-24c5-2 8-4 8-6 1-7-12-16-39-25v-80h72l39 51 65-57c2-1 3-3 4-8 0-8-3-11-10-11H752V86c1-21-5-38-18-51-11-12-33-24-66-35-7 24-18 40-33 49-15 8-45 20-90 37l6 18c41-10 72-17 94-22 19-5 34-5 44-2s14 10 14 22v249H402c-14-1-31-4-50-10l-22 35m102-53c35-17 63-35 84-52 19-18 31-34 35-47 3-14 2-26-4-37-7-12-16-18-27-18-13 0-20 8-22 23-1 16-6 32-16 47-7 17-27 41-58 73l8 11M117 874c47-21 80-40 100-55 19-16 32-33 39-50 6-17 6-32 0-45-5-14-14-21-27-20-12 1-20 11-24 31-4 19-14 38-27 57-14 20-36 43-67 70l6 12Z"/></symbol><symbol id="诘_G" viewBox="0 0 1000 1000" data-size="21"><path transform="matrix(1 0 0 -1 44 960)" d="M287 722h277v199l86-31c6-2 8-5 8-8 2-2 2-5 0-8l-43-16V722h184l43 50 66-60c2-3 3-6 4-10s-4-7-16-8H615V522h155l39 53 62-60c2-3 3-6 4-10 1-5-5-7-16-8H414c-14 1-37-3-68-10l-18 35h236v172H373c-14 0-36-2-66-7l-20 35m94-307 57-41h291l33 35 51-37c7-4 11-8 11-14 0-4-10-11-31-23V128l4-79c2-10-4-19-18-28-12-8-24-13-37-13v86H432V39c0-9-7-18-20-27-14-8-25-12-35-12l4 114v301m51-295h310v227H432V120M113 892c63-38 101-67 116-88 13-20 19-37 19-53-1-15-4-26-10-33-6-8-11-13-17-14-7-3-14-2-22 2-7 3-12 13-15 31-3 19-8 37-16 55-8 20-29 49-64 88l9 12m55-262 61-47c1-3 3-6 3-10s-4-8-13-13l-22-20V183l137 125 16-16c-63-64-110-115-141-152s-53-68-64-93l-57 63c29 19 49 37 60 55v397H55c-10-1-22-4-35-10L0 587h139l29 43Z"/></symbol><symbol id="诙_G" viewBox="0 0 1000 1000" data-size="21"><path transform="matrix(1 0 0 -1 31 963)" d="M283 731h178c17 82 29 147 37 196 61-24 93-38 96-43 1-4 0-8-4-12-5-2-13-4-26-8-12-4-21-14-27-31-4-18-14-51-27-102h295l43 55 66-60c2-3 3-6 4-10 1-7-5-10-16-10H502c-14-55-39-125-74-211-36-86-86-165-151-236l-13 10c50 70 91 148 125 234 31 86 52 154 64 203h-88c-12 0-31-4-56-12l-26 37m412-93c6-2 8-4 8-6 1-8-2-13-10-14-4-4-13-10-27-15 1-34 5-69 10-108 4-38 11-81 21-127 41 49 82 108 123 176 45-27 68-44 69-49 0-4-1-8-4-10-4 0-11-2-20-4-8 0-23-11-47-31-23-19-61-55-113-107 16-39 33-75 51-108 17-31 41-62 70-93 29-30 67-51 112-62V63c-22 0-40 0-53-2-14-2-28-10-43-26-43 41-77 86-104 134-26 47-45 92-56 135-11 41-22 101-34 181-8-97-22-172-43-222-19-52-56-101-111-149C439 68 370 30 287 0l-6 14c92 47 160 96 203 145 45 49 75 97 88 145 13 47 22 93 28 140 5 45 10 119 15 221l80-27M484 458c8 23 12 49 14 80h22c1-66-1-112-8-137-6-24-16-42-30-54-13-13-28-18-43-16-13 2-21 8-23 18-2 9 2 19 12 29 10 9 21 19 31 31 10 11 19 27 25 49M104 886c65-33 104-61 119-82 13-20 19-37 19-53 0-15-4-26-10-33-5-8-11-13-17-14-7-3-14-2-22 2-7 3-12 13-15 31-3 19-8 37-16 55-8 20-31 47-68 82l10 12m64-266 61-47c1-2 3-6 3-10 0-3-4-8-13-13l-22-20V151l149 102 11-20c-70-54-117-92-142-115-24-23-47-49-69-79l-50 66c23 15 41 30 52 46v401H55c-10-1-22-4-35-10L0 577h139l29 43Z"/></symbol><symbol id="诚_G" viewBox="0 0 1000 1000" data-size="21"><path transform="matrix(1 0 0 -1 46 967)" d="m846 749 58-51c2-2 4-4 4-8s-2-7-8-7H662c-1-84 3-157 10-219 5-62 14-114 25-156 20 56 35 105 45 146 8 42 18 83 29 125l69-35c6-2 9-6 8-12 0 0-4-3-12-8-14-3-25-13-31-29s-17-49-32-101c-14-52-34-99-60-143 12-27 25-50 39-68 12-19 23-34 31-45 8-12 16-20 24-25 7-4 13-5 19-4 5 2 9 12 14 33 4 19 12 56 23 109l22-4c-8-51-13-92-14-121-1-28 2-50 8-65 4-14 8-24 12-30 3-5 4-10 2-15-2-6-7-9-14-10-8 0-20 4-35 14-15 7-33 22-55 43-21 20-41 41-59 63-16 23-31 50-44 80-32-44-67-82-106-112-40-32-92-63-156-94l-8 16c55 32 103 68 145 108 41 39 75 82 103 129-23 77-38 148-43 213-4 64-8 135-10 215H387l-2-147h97l32 33 56-41c6-4 8-8 8-13 0-2-4-5-12-10l-23-10-6-221c-2-33-10-60-23-82-12-21-34-37-65-48-10 24-21 39-35 45-13 3-30 9-51 15l4 20c35-7 61-10 76-10 13-1 24 4 32 14 7 9 11 27 11 52l8 229H383c0-157-20-272-61-344C281 93 231 40 174 6l-8 12c64 58 109 124 135 196 23 72 34 173 33 303v242l64-49h211v225l80-38c8-1 12-5 12-11 0-3-2-6-6-10l-33-16V710h154l30 39M732 884c45-18 75-32 88-43 12-11 20-22 24-33 2-12 1-22-2-30-5-7-10-12-16-15-6-2-12-2-19 0s-12 9-16 21c-2 10-8 23-18 39-7 15-23 31-46 49l5 12m-628 21c63-36 100-64 113-86 12-20 18-37 17-50-1-15-4-26-9-34-6-7-12-12-18-13-6-3-13-2-19 2-7 4-12 15-14 33-2 17-6 34-12 51s-27 46-64 86l6 11m54-263 61-49c4-3 7-6 8-10-1-4-6-8-16-14-14-6-22-16-23-31V220l111 115 12-14c-55-73-92-121-112-144-18-22-35-53-51-93l-52 60 43 46v381l-86-8c-10 0-22-2-35-7L0 587l121 8 37 47Z"/></symbol><symbol id="诛_G" viewBox="0 0 1000 1000" data-size="21"><path transform="matrix(1 0 0 -1 26 962)" d="M455 710h135v215l78-31c9-8 8-14-4-18l-25-14V710h138l41 49 69-61c0-2 1-4 2-8 0-4-3-7-8-7H639V499h189l37 51 65-59c2-2 4-5 6-8 0-7-4-11-12-11H684c13-54 31-104 56-151 24-46 51-82 82-109 30-27 72-48 125-63v-15c-34 2-56 0-68-6-11-6-22-14-33-24-43 39-75 77-96 112-21 34-40 74-55 119-15 42-28 88-37 137h-19V134l4-95c0-8-6-16-18-23-12-9-25-15-39-16l4 128v305c-40-73-82-139-125-198S363 120 289 66l-10 12c64 59 118 123 162 193 45 67 81 134 110 201H369c-14 0-36-3-66-8l-16 35h303v184H439c-31-59-70-112-115-161l-13 12c52 78 99 180 142 307 52-22 78-35 78-39 1-5 0-8-4-10s-11-6-23-12c-12-4-28-27-49-70M127 884c60-42 96-72 107-92 12-20 17-36 16-49-1-14-3-24-8-31-4-8-10-12-17-14-6-2-13-2-20 2-8 3-12 13-14 31 0 17-5 36-13 55-7 19-28 48-63 86l12 12m55-268 54-41c4-2 6-6 6-10 1-3-4-8-15-13-16-6-24-17-24-31V173l141 146 13-15c-72-91-117-147-132-168s-29-49-43-83l-65 52 37 44v403H55c-10 0-22-3-35-10L0 577h150l32 39Z"/></symbol><symbol id="诜_G" viewBox="0 0 1000 1000" data-size="21"><path transform="matrix(1 0 0 -1 38 977)" d="M436 726h128v228l86-29c4-2 6-5 6-8 0-4 0-7-2-8l-37-17V726h119l41 50 63-62c1-2 2-5 2-8 0-5-3-7-8-8H617V511h190l45 51 56-61c2-3 3-6 4-10 1-6-2-8-10-8H699V140c0-13 0-24 2-33 2-7 10-11 24-13h99c20 0 31 14 35 40 4 28 6 69 8 125h22c2-55 4-90 6-106 1-15 11-26 29-32-7-23-15-40-26-51-9-11-23-18-41-21H723c-26 0-45 6-57 19-12 12-18 32-18 60v355H523c0-97-7-175-21-234s-43-108-88-145C370 65 312 31 240 0l-8 16c76 44 129 85 161 122 31 35 52 78 64 129 10 48 15 121 16 216H357c-14 0-31-2-50-7l-20 35h277v187H424c-30-60-59-109-86-146l-16 8c53 111 90 214 112 310 50-23 76-37 76-41s-1-6-2-8c0-2-6-6-18-9-11-4-20-11-25-22-4-12-14-33-29-64M123 892c66-38 107-67 121-86 13-19 20-36 20-51-1-15-4-26-10-33-6-8-12-13-18-14-6-3-13-2-21 2-7 3-13 13-16 31-2 18-8 35-15 53-8 18-32 46-71 86l10 12m51-276 60-47c2-2 4-6 4-9 0-4-4-9-11-14l-24-18V163l186 133 13-18c-88-67-148-116-179-148-30-30-51-59-65-87l-51 55c22 17 38 34 47 51v399H55c-10-1-22-4-35-10L0 573h145l29 43Z"/></symbol><symbol id="话_G" viewBox="0 0 1000 1000" data-size="21"><path transform="matrix(1 0 0 -1 28 947)" d="m654 796-9-219h185l41 55 67-61c3-2 5-5 5-8 0-7-5-11-17-11H646l-7-168h131l35 41 62-41c4-4 6-7 6-8-1-5-12-15-33-31V136l4-91c-1-10-5-19-14-27-8-8-21-12-39-14v84H443V43c0-12-5-23-17-31S402 0 389 0l4 130v293l60-39h135l6 168H393c-13 0-35-3-67-8l-21 33h289l8 213c-110-14-200-23-270-27l-2 17c124 16 229 35 315 57 84 20 140 38 168 55 35-41 53-65 52-71-2-6-4-8-6-8s-7 1-17 4c-9 4-20 6-33 4-14-2-66-10-155-25M443 112h348v246H443V112M125 894c66-38 105-66 119-84 14-20 21-38 20-53-2-14-6-26-12-33-5-6-10-10-16-12-4-3-9-2-17 2-7 1-11 12-14 31-2 20-8 37-17 53-8 17-32 45-71 86l8 10m55-274 56-47c5-2 7-6 8-10-1-4-6-9-15-15l-22-18V146l147 136 13-13c-74-79-121-129-140-153-19-22-36-47-51-75l-59 49 41 44v416H53c-10-1-20-4-32-10L0 573h146l34 47Z"/></symbol><symbol id="诞_G" viewBox="0 0 1000 1000" data-size="21"><path transform="matrix(1 0 0 -1 37 942)" d="M869 790c-14 4-29 6-47 6-16 0-47-3-92-8V556h53l39 47c41-40 62-60 63-61 0-7-3-10-8-10H730V263h67l39 50 59-60c1-3 3-5 3-8 0-6-2-8-7-8H598l-37-25-53 45c17 6 28 17 33 33v324l72-29c4-1 6-3 6-4 2-6-8-14-29-21V263h92v519c-47-6-108-11-184-17l-2 17c81 14 149 27 203 39s98 27 131 45c34-41 50-64 49-68s-5-7-10-8m-490 10 27 35 63-41c10-5 11-12 6-22l-43-17-94-229h62l34 34 50-41c6-4 9-7 10-10-1-4-6-8-15-12-14-8-21-18-22-31-20-119-45-207-74-264 27-35 56-61 88-78 31-18 74-30 129-34 54-5 100-9 138-10 37-1 100 1 188 4V66c-18-2-35-5-53-11-18-4-29-15-35-34H736c-91 11-154 20-187 28s-67 23-104 44c-35 19-62 44-82 74-29-51-90-107-181-167l-6 14c74 54 129 118 164 192-25 51-48 125-69 223h16c26-84 49-145 70-186 16 49 28 92 36 129 7 37 13 80 17 129h-68l-31-23-53 46 43 20 86 228h-92c-6 0-18-1-35-5l-22 33h141M84 884c59-39 94-69 105-88 13-20 19-37 20-51-1-14-4-25-10-33-5-6-10-10-15-12s-10-2-16 2c-7 3-11 14-14 31-2 17-7 33-13 49-6 17-28 48-67 92l10 10m68-278 57-44c5-3 7-6 8-10-1-5-6-10-16-16-15-6-23-15-23-29V194l99 94 14-14c-44-46-76-84-98-111-21-28-39-57-54-87l-51 52 43 41v369H53c-10 0-20-4-32-12L0 562h121l31 44Z"/></symbol><symbol id="诟_G" viewBox="0 0 1000 1000" data-size="21"><path transform="matrix(1 0 0 -1 34 943)" d="M691 798c-61-12-147-26-259-43V604h390l41 49 65-56c2-3 3-6 4-10 0-5-3-7-8-8H432c2-102-4-185-18-250-12-64-32-120-60-166S275 64 201 6l-10 14c55 54 95 103 122 147 24 43 42 97 54 162 11 65 16 150 14 258v238l68-43c94 18 166 35 217 49s102 33 152 55c37-40 55-63 55-69 0-4-2-7-6-9-4-1-12 0-21 2s-21 3-37 3c-16 1-55-4-118-15M492 435l57-38h207l31 43 61-44c4-3 6-6 6-8 0-4-9-13-28-26V134l4-99c0-6-6-13-17-21-12-7-25-12-38-14v76H543V35c0-8-7-15-20-23-11-8-23-12-35-12l4 114v321m51-334h232v271H543V101M107 884c65-36 104-65 118-86 13-20 19-37 19-53-1-15-4-26-10-33-5-8-11-12-17-14-7-2-14-2-22 2-7 3-12 13-15 31-3 19-8 37-16 55-8 19-30 48-66 86l9 12m61-264 61-47c1-2 3-6 3-10 0-3-4-8-13-13l-22-20V214l121 113 16-15c-51-56-90-99-117-131-26-32-43-61-53-85l-60 53c19 15 34 31 44 49v354H55c-10-1-22-4-35-10L0 577h139l29 43Z"/></symbol><symbol id="诠_G" viewBox="0 0 1000 1000" data-size="21"><path transform="matrix(1 0 0 -1 20 950)" d="M387 503h297l39 43 54-51c2-2 4-4 4-8 0-6-4-9-11-9H607V298h122l39 49 58-53c2-3 3-6 4-10 0-8-4-12-12-12H607V51h180l37 50 67-54c2-2 3-5 4-10 0-8-4-12-12-12H357c-12 1-34-2-66-7l-16 33h284v221H436c-14 0-36-2-67-7l-15 33h205v180H455c-14 0-31-3-53-8l-15 33m258 365c5-4 7-8 7-10 0-6-11-13-35-21 33-70 65-126 98-166 31-39 68-72 109-100 41-27 86-45 137-54v-16c-29-4-49-8-59-12-9-4-21-12-35-25-37 25-68 51-94 76-25 23-53 56-84 98-29 40-59 101-89 183-34-60-75-125-123-195-49-69-126-143-231-221l-10 14c86 72 156 150 209 234 52 82 93 164 121 246l79-31m-534-17c67-38 107-67 121-88 13-20 20-37 20-53-1-15-4-26-10-33-6-8-12-13-17-14-7-3-14-2-22 2-7 3-12 13-15 31-3 19-8 37-16 55-8 20-31 49-70 88l9 12m57-268 61-47c1-2 3-6 3-10s-4-8-13-13l-22-20V120l125 113 16-15c-54-58-95-102-121-133s-43-59-53-85l-60 55c19 15 34 32 44 49v411H55c-10-1-22-4-35-10L0 540h139l29 43Z"/></symbol><symbol id="诡_G" viewBox="0 0 1000 1000" data-size="21"><path transform="matrix(1 0 0 -1 45 956)" d="M578 868c14-8 12-15-6-19-15-4-26-10-33-18-6-6-19-22-41-49h176l35 35c33-33 50-50 51-50 4-4 6-8 6-12 0-5-7-8-22-10-15 0-33-10-53-31l-70-84h186l39 49c38-38 59-59 62-63s2-8-4-12H430V431c0-88-10-167-30-237-19-69-72-134-158-194l-10 14c69 59 111 120 127 182 16 63 24 141 24 235v209c-35-41-73-80-115-118l-10 12c66 76 121 147 164 215 42 66 71 120 86 162l70-43M402 663l34-33h154l84 129H479c-28-38-53-70-77-96m108-121 56-43h163l33 39c39-29 58-45 58-49s-2-6-6-8c-1-2-9-7-23-17 1-72-1-126-6-160-4-33-14-57-27-71-15-12-33-21-55-27-6 19-16 33-31 43-14 10-37 20-67 29l4 16c17-4 35-8 55-12s38-6 57-4c16 2 24 34 23 98v100H559V108c-1-18 4-29 13-32 9-2 18-3 26-4h195c22 1 36 7 43 20 7 12 12 29 16 54 2 21 5 54 7 97h18c2-51 4-85 6-101 2-18 11-33 27-44-4-17-14-34-31-49-16-16-40-23-72-22H598c-21 0-37 3-51 8-14 4-24 14-29 31-5 10-8 26-8 48v428M117 872c66-31 108-55 125-74 18-20 27-37 26-53-2-15-6-26-12-33-5-6-11-10-16-12-6 0-11 0-17 2-7 2-12 12-16 29-3 17-11 36-25 57-12 22-36 45-71 70l6 14m65-264 54-45c5-2 7-5 8-9-1-4-6-9-15-14l-20-18V185l127 115 14-14c-63-66-104-112-123-137-20-24-39-53-59-85l-55 52 49 49v377H61c-14-3-25-7-32-14L0 565h146l36 43Z"/></symbol><symbol id="询_G" viewBox="0 0 1000 1000" data-size="21"><path transform="matrix(1 0 0 -1 57 954)" d="m391 603 43-30h171l28 37 60-43c2-4 4-6 4-7 0-4-9-13-29-26V267l4-77c0-7-6-15-18-23-11-8-23-12-35-14v55H439v-41c0-8-6-17-19-25-12-8-24-13-33-14l4 125v350m48-370h180v155H439V233m0 180h180v135H439V413m114 455c0-2 1-5 2-8-1-4-4-7-10-9-14-4-25-10-35-18-18-27-37-59-57-96h330l37 43 59-49c6-3 8-7 6-11 0-4-12-15-35-33V224c1-85-10-141-34-167-24-28-52-47-84-57-5 20-19 36-41 49-22 12-54 23-97 35l4 19c71-13 115-20 131-21 13 1 28 6 44 15s25 50 28 123v490H434c-41-73-94-148-159-227l-13 12c58 91 103 171 136 238 33 68 57 126 73 174l82-39m-428-4c66-38 105-66 119-86 12-20 17-37 16-50-1-14-4-25-10-32-4-6-10-10-18-13-5-3-12-2-19 2-8 2-12 13-14 31-2 17-6 33-13 49-6 15-30 44-71 86l10 13m51-258 62-46c4-3 6-6 6-10 1-5-12-16-39-33V161l113 100 14-14c-54-62-90-104-109-125-18-20-35-46-53-79l-61 53 49 50v390H63c-17 1-32-2-45-10L0 562h145l31 44Z"/></symbol><symbol id="询_H" viewBox="0 0 1000 1000" data-size="21"><path transform="matrix(1 0 0 -1 49 956)" d="M112 893c22-15 42-30 58-45 18-13 32-24 41-34 10-9 18-17 22-24 4-5 7-11 8-17 2-5 3-11 3-16-1-23-9-34-25-34-4 0-7 1-10 5-3 2-9 14-20 34-11 21-23 39-36 56s-32 36-54 57l13 18M0 604c26-5 64-8 113-8h31l32 41c24-15 42-29 54-42 5-5 7-9 7-13 0-5-12-16-38-31V181c7 7 13 14 20 19 32 28 58 53 77 74l10-19c-15-23-32-47-50-73-18-25-38-50-59-75-3-33-7-50-12-50-6 0-25 24-60 72 10 5 20 11 28 18v422h-40c-52 0-84-2-94-6L0 604m447 307c32-9 60-20 86-33 4-4 6-7 6-10 0-6-4-11-12-14-15-5-29-7-41-7-11-35-23-68-36-99-1-3-2-5-4-7h357l37 37c21-13 38-25 52-36 6-6 9-12 9-15 0-8-12-20-37-36-4-158-10-283-17-375s-15-156-22-192c-8-31-16-54-26-67-7-13-17-22-30-30-14-11-36-20-66-27-2 14-6 24-12 30-5 7-16 12-30 15-10 4-35 10-75 18l5 23c58-13 95-20 111-20 11 0 22 3 32 8 9 4 17 14 25 29 10 15 18 37 24 64 6 30 13 92 20 187 10 120 14 240 14 359H435c-11-22-21-43-30-63-15-29-30-55-47-79-15-24-34-49-58-75l-18 14c24 29 44 61 60 94 19 37 37 75 54 116 15 42 29 84 41 125 5 21 8 43 10 66m-46-301 61-30h167l34 33c33-23 50-39 50-49 0-7-10-15-28-25V271c0-15 0-25 1-29 0-5 1-10 1-15 0-15-12-24-34-27-9 0-14 3-14 9v39H450v-35c0-7-4-12-12-15-10-4-18-6-25-6-8 0-12 5-12 13 0 3 1 7 1 14 1 15 1 29 1 41v283c0 32 0 54-2 67m49-334h189v129H450V276m0 156h189v121H450V432Z"/></symbol><symbol id="诣_G" viewBox="0 0 1000 1000" data-size="21"><path transform="matrix(1 0 0 -1 37 968)" d="m805 483 64-45c4-3 6-6 6-7-1-6-12-16-33-30V128l4-87c0-7-5-14-16-21-10-8-23-12-39-14v76H457V39c0-9-6-18-19-25-12-9-24-14-36-14l4 120v367l57-45h310l32 41M457 109h334v150H457V109m0 175h334v133H457V284m-45 653c50-16 80-27 90-32 5-6 3-10-4-13l-35-18V720c179 66 293 120 342 162 45-43 66-67 64-70 0-4-2-7-6-8-2-1-9 0-21 4-12 2-49-7-112-28-63-20-152-49-267-86v-52c0-22 4-34 12-36 7 0 15-1 23-2h307l23 4c16 4 27 16 33 38l10 111h20l2-39c0-59 11-90 33-94-4-15-13-28-26-39-12-10-27-18-45-22l-33-3H494c-17 0-33 2-47 5-11 4-21 12-29 26-4 9-6 25-6 49v297m-283-34c61-41 99-72 113-91 13-20 20-36 20-49 0-12-2-22-6-30-4-7-10-12-18-13-6-3-12-2-19 2-7 2-13 11-16 29-2 17-8 35-17 55-10 19-32 47-69 86l12 11m45-273 64-47c4-3 6-6 6-10 1-4-4-8-15-13l-24-20V181l150 131 14-16c-80-82-129-134-148-154-17-21-34-50-51-85l-61 53 47 49v401H66c-18-2-32-6-43-12L0 585h143l31 45Z"/></symbol><symbol id="诤_G" viewBox="0 0 1000 1000" data-size="21"><path transform="matrix(1 0 0 -1 34 969)" d="M512 862c-8-9-24-30-47-62h185l38 37 56-51c5-4 8-8 8-14-1-3-5-6-14-7-6-2-13-5-23-8-8-4-20-13-37-26-16-13-39-39-71-78h159l27 35 51-41c4-2 6-5 6-7 0-4-9-13-28-26V479h28l29 40 49-47c2 0 3-2 4-6 0-8-4-12-12-12h-98V343l4-76c0-8-6-16-15-24s-21-14-38-19v60H605V105c3-34-5-60-23-78-18-13-38-22-61-27-3 14-13 26-29 37-16 12-48 26-96 41l4 18c46-11 80-19 102-22 21-4 36-2 45 6 6 7 9 18 10 33v171H432c-12 0-26-2-43-6l-22 32h190v144H363c-13 0-36-3-66-8l-16 33h276v147H438c-14 0-28-3-43-8l-22 33h203l76 123H449c-78-111-138-185-181-222l-10 10c51 68 93 130 127 187 33 56 64 119 94 189 50-23 76-37 78-41 0-1-1-4-2-7-1-2-6-5-16-8-10-2-19-9-27-20m93-234V479h168v149H605m0-174V310h168v144H605M107 913c67-37 107-66 122-88 13-19 19-37 19-53-1-15-4-26-10-33-6-8-11-12-17-13-7-3-14-2-22 2-7 2-12 13-15 31s-8 36-16 54c-8 20-31 49-70 88l9 12m61-283 61-47c1-3 3-6 3-10s-4-8-13-13l-22-20V177l98 95 14-15c-35-41-66-78-92-111s-44-63-55-89l-60 47c21 16 37 34 46 53v410H55c-10 0-22-4-35-9L0 593h139l29 37Z"/></symbol><symbol id="该_G" viewBox="0 0 1000 1000" data-size="21"><path transform="matrix(1 0 0 -1 32 963)" d="M588 675c4-2 7-5 8-8-1-5-6-8-14-10-18 0-39-15-64-43-24-26-59-64-106-115l219 4c29 44 57 93 82 148l72-41c7-4 9-9 8-13 0-2-5-4-14-6-8-1-17-5-27-10-9-4-26-25-51-64-25-38-70-94-135-168-95-101-191-173-287-215l-8 12c49 31 97 68 145 111 47 43 86 82 117 117 30 36 58 72 86 107-66-5-117-12-152-19-34-7-60-16-78-27l-45 68c19 3 34 8 45 16 9 7 24 25 45 54 20 30 49 76 86 139l68-37m197-180 69-47c4-4 5-8 1-10 0-3-7-6-19-7-12-2-22-8-29-18-40-69-80-126-119-172 60-29 106-56 138-82 31-25 51-46 59-61 8-16 9-32 4-47-6-15-16-24-30-26-14-1-24 10-31 34-6 24-19 49-41 75-21 26-58 57-111 92-49-49-102-91-158-124C461 68 387 34 295 0l-8 16c63 27 125 60 188 100 60 41 108 80 144 115 35 35 65 73 90 116 25 42 51 91 76 148M117 896c55-30 91-56 110-79 16-22 24-41 23-56s-4-26-10-33c-6-6-11-10-17-12-7-3-13-2-20 2-6 3-11 13-14 31-2 16-9 35-19 55-10 21-31 49-63 82l10 10m67-260 52-45c5-3 7-6 8-10-1-4-6-10-15-18l-24-17V200l123 127 16-14c-64-78-106-130-127-158-20-26-41-56-61-89l-52 52 50 49v402H53c-10-1-20-4-30-9L0 593h146l38 43m326 279 8 12c52-20 89-39 109-57 19-17 29-35 29-53 0-17-4-30-13-37-8-6-18-9-30-8-10 1-17 12-21 32-3 19-11 37-26 54-13 18-31 37-56 57M301 743h523l41 57 65-65c2-2 4-6 6-11 0-6-5-9-14-8H383c-12 0-33-3-65-8l-17 35Z"/></symbol><symbol id="详_G" viewBox="0 0 1000 1000" data-size="21"><path transform="matrix(1 0 0 -1 38 953)" d="M672 700h131l39 49 56-53c2-2 4-6 4-9 0-8-4-12-11-12H627V511h137l27 43 61-51c2-2 3-5 3-8 0-8-3-12-11-12H627V313h199l35 53 59-58c2-3 3-6 4-10 0-8-4-12-12-12H627V122l4-81c1-10-7-19-22-27-13-9-26-14-37-14l4 120v166H373c-14 0-36-2-66-8l-16 35h285v170H436c-14 0-36-2-67-7l-15 35h222v164H398c-13 0-35-3-66-8l-16 33h327c45 74 82 143 111 205 48-26 73-41 74-45s0-7-4-11c-3-2-10-4-21-6-12 0-26-10-41-30-17-17-47-55-90-113M416 880l8 12c41-18 72-36 94-53 20-18 33-36 37-55 4-17 2-32-6-43-9-10-19-13-31-12-13 2-20 12-22 32-2 17-10 36-23 56s-32 41-57 63m-312 19c71-39 113-69 126-89 14-20 20-38 18-53-2-14-6-24-12-31-6-8-11-13-17-14s-13 1-20 4c-7 2-12 12-15 29-2 17-7 34-14 51-6 16-31 46-76 92l10 11m70-271 66-47c4-3 6-6 6-10 1-4-12-13-39-29V167l141 84 11-16c-73-54-119-88-138-103-18-16-39-42-65-79l-49 59 51 45v403H55c-10 0-22-3-35-10L0 583h143l31 45Z"/></symbol><symbol id="诧_G" viewBox="0 0 1000 1000" data-size="21"><path transform="matrix(1 0 0 -1 43 947)" d="M98 841c71-39 114-69 127-90 11-20 17-37 15-51 0-13-4-24-10-31-5-8-12-12-19-14-6-2-12-2-20 2-7 3-12 13-13 31-2 17-7 34-14 51-6 16-31 47-76 94l10 8m76-260 62-47c4-2 6-6 6-10 1-3-4-8-15-13-15-6-22-17-22-32V126l158 123 12-16c-84-80-135-130-154-149-18-20-37-48-59-84l-58 61 50 51v399l-99-10c-10 0-22-3-35-8L0 524l143 12 31 45m523-29-101-24V354l185 22 37 59 71-57c4-2 6-5 6-8 0-6-7-10-20-12l-279-33V103c0-21 4-34 11-39 8-5 16-7 24-7 8-1 60-2 158-2 21 2 34 9 39 23 6 11 10 23 12 34 1 11 4 53 8 125h17c2-43 5-75 10-95 2-23 15-41 39-56-10-23-21-41-35-53-14-11-35-19-65-25-134 0-209 0-224 2-14 2-26 10-33 23-8 13-12 30-12 51v237l-211-23c-14-3-27-9-39-16l-27 35 277 32v170c-70-14-139-26-207-36l-2 20c178 37 312 78 402 123l61-55c3-6 2-10-4-13-7 0-14 1-22 4-7 1-33-2-76-10m106 176 31 41 59-49c9-8 15-15 15-20 0-4-4-6-13-8-23 0-45-9-69-29l-49-49-13 8 45 80H398c0-22-3-41-7-56-4-16-11-30-20-43-8-13-19-21-31-26-13-4-23-4-31 2-8 5-12 12-12 22-1 7 4 17 17 29 13 10 26 25 38 45 11 18 17 54 19 107h22c3-27 3-45 2-54h408M486 880l6 14c41-14 72-28 94-43 21-14 35-28 43-43 6-15 7-28 2-39-4-12-12-19-24-20-10-2-19 0-27 6s-12 17-14 31-10 29-25 47c-16 18-34 33-55 47Z"/></symbol><symbol id="诨_G" viewBox="0 0 1000 1000" data-size="21"><path transform="matrix(1 0 0 -1 43 949)" d="M293 634h172c19 39 43 93 74 162 48-24 73-39 74-43 2-4 0-7-4-8-4-2-10-4-19-8-10-4-20-12-29-25-10-12-25-38-43-78h252l39 56 62-62c2-2 3-6 4-12 0-4-4-7-12-8H506c-43-86-76-148-100-187h168v170l76-26 8-5c2-4 2-8-2-12l-31-14V421h121l41 51 61-59c2-3 3-6 4-10-2-4-5-7-10-7H625V251h184l37 55c43-40 65-63 68-69 2-4-1-8-8-11H625v-98l2-91c2-8-4-17-18-25-13-7-26-11-39-12l4 114v110H400c-16 0-36-3-60-8l-18 35h252v145H416l-37-32-57 59c28 8 46 21 57 41l72 144h-82c-17 0-38-2-60-7l-16 33m484 215 34 43 56-47c9-8 14-14 14-18s-5-6-14-8c-15-2-32-9-49-23s-43-39-76-76l-15 8 54 95H408c-4-41-12-71-23-90-10-17-22-30-37-37-16-8-28-8-37-2-11 6-15 14-14 26 1 9 10 21 25 33 14 10 28 27 41 49 12 21 20 52 24 94h19l2-47h369M92 897c66-37 107-66 121-87 13-20 19-38 19-53s-3-26-9-33c-6-8-12-13-18-14-6-3-14-2-21 2-8 3-13 13-16 31s-8 37-16 55c-7 19-31 49-70 88l10 11m76-271 61-47c1-3 3-6 3-10s-3-8-11-13l-24-20V185l137 125 16-16c-63-65-107-112-131-143s-41-59-51-85l-61 54c18 14 32 31 41 49v389H55c-10-1-22-4-35-10L0 583h139l29 43Z"/></symbol></svg>