<svg xmlns="http://www.w3.org/2000/svg"><symbol id="钼_G" viewBox="0 0 1000 1000" data-size="21"><path transform="matrix(1 0 0 -1 61 960)" d="m451 866 55-43h285l29 39 53-47c4-3 6-6 6-7 0-4-10-12-29-24V146l4-78c0-7-6-15-18-23-12-7-23-12-35-14v63H500V39c0-8-6-16-18-23-11-8-23-13-35-16l4 114v752m49-748h301v213H500V118m0 238h301v219H500V356m0 245h301v197H500V601m-400-28h162l37 47 41-43c12-10 17-17 14-23-2-6-5-9-8-8H217V397h86l37 51 56-56c6-8 4-15-5-20H217V147l160 139 14-14c-82-85-132-139-151-162-18-20-33-45-45-75l-62 47c12 10 25 22 37 34v256H74c-20 0-39-3-56-8L0 397h170v149h-29l-24-6-17 33m148 313c5-2 7-4 8-6 2-6-1-11-8-14-16-4-29-13-37-29-20-48-35-83-45-104h125l39 45 57-56c1-2 2-4 2-6 0-6-2-9-6-8H156c-21-46-41-89-62-127-20-39-46-79-78-119l-16 6c31 54 65 131 104 228 37 97 62 172 76 225l68-35Z"/></symbol><symbol id="钽_G" viewBox="0 0 1000 1000" data-size="21"><path transform="matrix(1 0 0 -1 33 950)" d="m426 835 66-49h264l31 43 63-49c2-2 3-5 4-8 0-3-11-14-34-31V310l4-106c0-7-6-14-17-21-10-7-22-11-37-14v90H477v-45c0-11-7-20-20-27-12-8-23-13-35-14l4 123v539m51-549h293v221H477V286m0 248h293v225H477V534M299 49h527l39 52 65-58c2-2 3-5 4-10 0-8-4-12-12-12H381c-12 1-33-1-65-7l-17 35M98 560h179l37 46 41-43c13-9 17-17 14-23-2-6-4-8-8-8H213V382h88l37 51 57-57c5-8 3-14-6-20H213V101l142 128 14-13C301 142 256 92 234 68c-19-23-35-46-48-68l-59 47c9 8 21 19 37 35v274H74c-20 0-39-2-56-7L0 382h164v150h-29l-20-6-17 34m144 304c5-2 7-4 8-6 2-5-1-10-8-13-15-4-27-14-35-30-16-36-28-65-37-86h121l39 45 57-56c1-2 2-4 2-6 0-6-2-9-6-8H160c-19-47-41-92-64-135-22-43-49-86-80-127l-16 6c31 55 64 131 102 229 35 95 59 170 72 222l68-35Z"/></symbol><symbol id="钾_G" viewBox="0 0 1000 1000" data-size="21"><path transform="matrix(1 0 0 -1 71 958)" d="m410 864 57-43h297l35 39 55-48c1-2 3-4 3-6 0-4-10-15-31-32V435l6-94c1-10-3-18-12-26-7-7-21-14-41-19v39H641V153l4-108c0-10-6-20-18-29-12-10-25-15-39-16l4 130v205H459v-14c1-8-5-15-16-23-9-8-22-13-37-14l4 137v443m49-502h133v201H459V362m182 201V362h138v201H641m-182 28h133v203H459V591m182 203V591h138v203H641M94 575h181l32 37 54-50c1 0 2-2 2-6 0-5-2-7-4-8H209V405h82l31 45 55-53c2 0 3-1 4-5 0-8-4-12-12-12H209V126l158 113 10-15c-75-64-124-106-148-128-24-24-41-45-53-65l-51 49c16 11 29 25 39 42v258h-57c-13 0-35-3-66-8l-16 33h139v143h-27l-18-8-25 35m84 340 64-31c5-2 8-6 8-12 0-3-4-6-12-10-11-6-22-15-31-27-23-45-38-78-45-100h121l33 47 57-58c2-2 3-4 4-6-1-5-5-7-10-8H150c-17-43-39-88-64-135s-50-88-72-121l-14 8c38 82 74 165 107 250 32 83 55 151 71 203Z"/></symbol><symbol id="钿_G" viewBox="0 0 1000 1000" data-size="21"><path transform="matrix(1 0 0 -1 56 965)" d="m414 839 57-47h320l33 43 59-45c4-4 6-6 6-8 0-6-10-15-30-29V155l4-96c0-8-6-16-15-24-9-6-22-11-39-14v99H463V41c0-10-7-19-20-27-12-9-23-14-33-14l4 177v662m49-693h142v289H463V146m193 0h153v289H656V146M463 460h142v307H463V460m193 307V460h153v307H656M98 579h168l37 47 41-43c12-10 17-18 13-23-2-6-4-9-7-8H215V399h74l33 47 53-52c6-8 4-15-6-20H215V136l140 117 14-16c-69-67-113-113-133-135-19-25-37-49-52-73l-55 49c14 11 27 22 39 34v262H92c-20 0-39-3-57-8l-17 33h150v153h-29l-24-6-17 33m156 317c4-2 7-4 8-6 2-6-1-11-8-14-16-4-27-14-35-29-25-51-42-87-51-108h107l39 45 57-56c1-2 2-4 2-6 0-6-2-9-6-8H156c-21-46-41-89-62-127-20-39-46-79-78-119l-16 6c31 55 66 132 105 230 40 98 66 173 81 227l68-35Z"/></symbol><symbol id="铀_G" viewBox="0 0 1000 1000" data-size="21"><path transform="matrix(1 0 0 -1 59 962)" d="m410 737 57-37h137v220l82-23c5-2 7-6 7-12 0-2-2-4-5-6l-36-15V700h137l33 41 55-45c4-2 6-5 6-8 0-5-10-14-29-28V149l3-95c1-8-4-16-15-23-11-8-23-14-37-18v90H461V40c0-8-7-17-20-25-11-10-23-15-35-14l4 124v612m51-608h143v262H461V129m191 262V129h153v262H652m-191 27h143v254H461V418m191 254V418h153v254H652m-543-88h166l32 47 60-58c1 0 1-2 2-6-1-5-2-7-4-8H223V410h64l35 49 53-54c2-2 3-5 4-8 0-8-4-12-12-12H223V118l129 121 11-16C266 126 209 58 193 19l-54 45c15 14 27 31 35 52v269H90c-14 0-36-3-67-8L8 410h166v149h-22l-19-4-24 29m141 309c5-3 8-5 8-8 2-3 2-5 0-8-20-6-35-17-47-35-16-41-29-73-37-96h117l35 45 55-56c1-2 1-4 2-6 0-5-3-7-8-8H160c-16-45-38-94-66-146-28-53-55-95-82-127l-12 7c49 96 88 185 117 268 29 81 51 148 65 201l68-31Z"/></symbol><symbol id="铁_G" viewBox="0 0 1000 1000" data-size="21"><path transform="matrix(1 0 0 -1 29 965)" d="M500 847c46-20 70-32 72-35 3-4 4-7 2-10-2-2-8-4-17-6s-18-14-28-35c-8-20-17-43-29-67h123v237c49-22 76-34 82-37 6-4 7-8 4-12s-16-11-39-20V694h111l37 53c39-39 60-60 63-64 2-4 3-7 4-10-1-4-4-6-10-6H670c-3-79-9-146-16-203h159l41 53 62-61c2-2 3-5 4-8 0-8-4-11-12-11H682c15-84 34-148 56-190 21-42 47-79 78-109 30-30 72-50 125-62V61c-21 0-39-2-54-8-16-5-30-13-41-24-37 35-67 69-88 101-22 31-41 68-57 111-15 43-29 108-41 196h-10c-13-83-43-161-87-235C517 128 430 61 301 0l-10 14c104 59 178 123 223 192 45 68 74 145 88 231H480c-13 0-35-3-66-8l-19 35h210l12 111 6 92H488c-25-63-57-123-95-182l-14 8c32 72 57 132 72 180 14 47 31 105 49 174M105 587h178l30 41 56-53c1 0 1-2 2-6-1-4-2-7-4-7H229V413h84l29 47 56-55c2 0 4-2 4-6 2-7 0-11-7-11H229V155l154 119 12-13C281 160 214 89 193 49l-54 49c21 13 35 29 43 48v242h-78c-14 0-36-3-67-8l-16 33h161v149h-34l-23-8-20 33m149 309c5-3 8-6 8-8 2-4-2-8-12-12-16-5-27-15-33-31-20-39-35-71-43-94h127l35 47 55-59c0-2 1-4 2-6 0-4-3-7-8-7H160c-17-41-37-82-58-123-22-42-51-88-88-137L0 476c45 80 84 163 117 248 33 83 55 151 67 203l70-31Z"/></symbol><symbol id="铁_H" viewBox="0 0 1000 1000" data-size="21"><path transform="matrix(1 0 0 -1 36 956)" d="M145 903c31-9 60-21 85-33 6-3 8-6 8-10 0-6-4-11-13-15-15-4-28-6-41-6-8-30-17-58-26-83h123l43 48c23-17 45-34 66-51 5-3 7-7 7-10 0-9-4-14-14-14H146c-11-27-22-54-34-80-8-16-15-30-21-41h159l43 48c23-18 45-35 65-51 6-3 9-7 9-11 0-9-5-14-15-14H211V440h70l43 48c23-18 45-35 66-50 5-4 7-8 7-12 0-9-4-14-14-14H211V158c8 6 18 13 27 20 32 26 58 49 76 68l10-17c-15-21-31-43-50-67-18-25-38-48-59-71-3-33-7-49-12-49-4 0-24 24-59 72 7 4 14 7 20 10v288h-42c-47-1-79-2-97-6L7 452c28-8 67-12 115-12h42v140H76c-2-3-4-5-6-8-13-23-31-47-52-72L0 514c21 28 38 59 53 91 17 36 32 73 46 112 15 41 27 82 36 122 5 21 8 42 10 64m378-71c35-11 65-22 89-34 4-5 6-9 6-12 0-7-6-12-19-15-14-2-24-3-32-3-9-35-18-67-29-98h120c1 24 1 49 1 74 0 84-3 140-10 167 35-2 61-6 78-11 12-2 17-6 16-13 1-7-3-12-13-16-7-3-15-7-24-12 0-74-1-137-2-189h57l46 52c24-19 48-36 71-54 5-4 8-8 8-11 0-9-5-13-15-13H703c-2-53-5-95-11-126-4-35-8-66-14-94h119l45 53c25-19 49-38 71-55 6-4 9-8 9-11 0-9-5-14-16-14H679c15-41 31-78 49-109 18-34 40-66 64-98 24-30 48-56 72-77 22-21 44-35 65-43l-3-17c-31 0-52-10-63-29-22 17-42 38-60 63-20 26-36 54-50 83-17 28-33 59-48 92-14 27-27 62-40 104-3-10-6-20-10-30-17-54-39-101-66-141s-62-76-103-108c-42-35-91-64-146-87l-12 23c61 30 108 62 141 96 35 30 64 66 88 108 22 33 41 76 58 128 4 13 8 27 11 42h-98c-46-1-78-3-95-7l-19 47c29-9 67-13 114-13h103c6 28 11 58 15 89 5 39 9 82 11 131H528c-11-26-22-50-32-72-15-26-33-52-54-79l-17 11c16 31 29 59 40 87 8 24 17 51 26 80s16 56 21 82c5 23 9 50 11 79Z"/></symbol><symbol id="铂_G" viewBox="0 0 1000 1000" data-size="21"><path transform="matrix(1 0 0 -1 53 952)" d="M703 870c2-2 3-4 4-6 2-6-4-10-18-13-12-6-37-50-74-133h176l43 43 55-59c4-2 6-5 6-8 0-4-12-13-36-29V140l4-91c0-6-6-14-19-24-12-7-24-11-37-11v85H514V33c-1-10-8-17-22-23-13-4-25-7-35-10l4 118v643l53-43h72c25 91 40 153 45 185l72-33M514 126h293v279H514V126m0 307h293v257H514V433M111 558h184l35 45 59-59c1 0 2-2 2-6s-1-7-4-8H236V378h80l32 47 60-55c2 0 3-2 4-6 0-8-4-11-14-11H236V112l155 110 9-14C289 116 224 49 205 6l-62 51c15 14 31 29 46 46v250h-84c-11 0-33-3-64-8l-18 33h166v152h-33l-17-8-28 36m159 304c4-2 7-4 7-6 2-5 0-10-7-13-17-6-33-22-49-47-15-26-28-51-39-74h134l30 43 60-55c2-2 2-4 2-6 0-4-2-7-6-8H174c-18-37-39-77-65-119-26-43-58-88-97-133l-12 8c49 80 90 160 123 240s59 150 78 209l69-39Z"/></symbol><symbol id="铃_G" viewBox="0 0 1000 1000" data-size="21"><path transform="matrix(1 0 0 -1 32 965)" d="m779 427 57-50c5-6 8-11 8-14 0-5-5-8-14-10-17-10-30-17-39-23-8-5-55-69-139-192 26-22 43-44 51-63 8-18 9-35 4-51-6-16-16-24-29-23-14 0-24 9-30 27-6 20-15 38-25 55-10 16-24 34-43 53-17 19-51 49-100 90l8 12c53-27 102-57 147-88l113 211H492c-10 0-27-3-51-8l-17 33h320l35 41m-93 467c2-2 3-4 3-6 3-5-8-12-33-21 19-48 40-93 63-133 23-39 54-77 94-113 39-35 80-55 123-59v-19c-28 0-47-2-57-6-11-6-22-15-33-26-35 27-63 55-84 84-20 29-40 63-61 102-21 37-41 90-60 158-34-73-74-144-120-213-44-67-97-129-158-185l-11 9c54 69 101 138 140 209 39 70 78 155 117 256l77-37M557 638l11 8c43-39 72-70 86-94 13-23 19-41 20-54 0-13-4-24-12-33-8-10-17-14-29-12s-18 13-20 35c-2 21-6 42-11 62-7 20-22 49-45 88m-446-60h176l33 39 53-51c1-2 2-4 2-8 1-4-1-6-4-6H230V398h79l31 45 45-47c4-6 7-12 8-15 0-6-4-9-12-8H230V123l135 105 12-10C277 125 217 59 199 20l-49 47c14 12 26 27 36 47v259h-84c-12 0-34-3-65-8l-17 33h166v154h-34l-23-5-18 31m162 310c5-2 8-4 8-6 4-6 4-11-2-13-19-5-33-14-41-28-19-37-36-70-49-97h129l39 49 53-59c1-2 2-4 2-6 0-6-2-8-6-8H180c-22-46-47-92-73-136-25-45-57-91-95-137l-12 8c54 94 98 181 131 263 32 83 58 152 78 207l64-37Z"/></symbol><symbol id="铃_H" viewBox="0 0 1000 1000" data-size="21"><path transform="matrix(1 0 0 -1 36 948)" d="M145 889c31-10 60-21 85-34 6-3 8-6 8-9 0-7-4-12-13-16-15-4-28-6-41-6-8-30-17-57-26-83h146l43 48c23-17 46-34 67-51 5-3 8-6 8-9 0-10-5-14-15-14H146c-11-27-22-54-34-80-7-15-13-27-19-37h172l43 48c23-19 46-36 67-51 5-4 7-7 7-12 0-9-5-14-14-14H215V405h82l43 48c23-17 45-34 66-51 5-3 8-6 8-9 0-10-5-14-16-14H215V121c10 8 20 16 31 24 34 26 61 48 81 68l9-20c-16-20-34-42-53-65-19-24-41-48-64-70-3-33-7-49-12-49s-24 23-60 70c8 5 15 9 21 13v287h-46c-47-1-79-3-97-8L7 417c28-8 67-12 115-12h46v164H78c-2-4-5-7-8-11-13-24-31-48-52-73L0 499c21 29 38 59 53 92 17 36 32 73 46 111 15 41 27 82 36 122 5 21 8 43 10 65m485 7c32-6 59-14 83-24 4-2 7-5 7-11 0-4-6-8-17-10-11-3-21-4-29-4 15-37 31-68 48-93 19-31 41-62 66-91 25-27 50-50 74-68 23-19 45-32 67-39l-3-18c-31 0-52-9-63-28-23 15-43 34-62 56-21 26-38 52-52 79-18 25-34 53-50 84-14 25-28 55-41 90-8-20-15-38-22-53-13-28-27-56-44-83-18-28-35-53-51-75-17-22-34-42-52-59-20-22-42-42-65-60l-18 23c27 22 50 45 70 68 18 24 37 50 56 78 18 30 34 59 49 87 12 26 23 51 30 75 8 23 14 48 19 76M461 409c26-5 63-8 112-8h214l43 38c27-21 49-43 66-64 5-4 7-8 7-13 0-4-7-8-21-9-22-2-36-2-41-2-33-53-67-101-102-145-24-35-48-64-70-86 18-10 32-18 42-25 20-14 34-25 42-32 7-7 12-14 15-22 2-6 3-12 3-17 0-16-5-24-17-24-5 0-11 2-16 6-7 2-17 10-30 22-18 19-37 36-59 51-18 18-41 34-66 50-25 15-52 30-83 45l18 14c43-15 81-31 113-46 7-4 15-8 22-11 24 36 45 70 64 100 22 40 45 88 68 143H573c-52 0-84-2-95-7l-17 42m139 197c30-13 54-28 72-43 14-11 25-23 34-36 5-7 8-15 8-23 0-25-9-37-27-37-4 0-8 1-12 4-3 2-7 8-11 16-10 23-20 41-32 54-11 15-26 31-46 47l14 18Z"/></symbol><symbol id="铄_G" viewBox="0 0 1000 1000" data-size="21"><path transform="matrix(1 0 0 -1 32 960)" d="M465 198c-40-56-87-111-143-165l-11 12c40 52 76 104 109 157 31 52 57 102 78 149 47-24 70-38 70-43s-2-8-5-8c-4-1-11-3-22-8-10-4-35-35-76-94m279 147c83-63 136-109 156-137 22-27 34-49 36-68s0-33-6-42c-7-9-16-13-28-12-11 1-21 14-29 40-6 27-19 57-39 88-20 30-53 70-100 119l10 12M482 835l51-43c117 39 211 79 283 121 38-35 56-55 57-59 1-3-1-5-4-5-2-1-8-2-15-2h-28c-12 0-35-6-70-18-35-10-112-30-231-60-17-100-33-198-46-295h166v244l85-31c2-4 2-7 2-10 1-3-12-10-39-22V474h121l40 52 64-62c1-3 2-5 2-8 0-5-3-7-8-8H693V109c2-26-2-48-9-66-8-17-30-31-67-43-8 27-25 46-49 55-21 8-47 15-76 23l6 20c72-17 115-22 129-18 14 5 19 18 18 40v328H484l-33-33-58 49c19 10 32 19 39 25 13 84 30 199 50 346M104 579h183l37 47 41-43c13-10 17-18 14-23-2-6-5-9-8-8H229V396h85l36 46 52-52c6-8 4-15-6-20H229V142l140 107 12-14c-70-64-114-107-133-130-18-22-33-44-47-66l-56 47c9 5 21 15 37 30v254H90c-20 0-39-2-57-8l-17 34h166v156h-37l-24-6-17 33m148 307c5-2 7-4 8-6 2-6-1-11-8-14-16-4-27-13-35-27-24-48-40-83-49-104h131l39 45 57-56c1-2 1-4 1-6 0-6-1-9-5-8H156c-21-46-41-88-62-127-20-39-46-79-78-119l-16 6c31 54 66 131 105 228 40 96 66 170 79 223l68-35Z"/></symbol><symbol id="铅_G" viewBox="0 0 1000 1000" data-size="21"><path transform="matrix(1 0 0 -1 29 959)" d="m459 425 47-35h254l31 39 51-41c8-4 13-8 13-13 0-4-10-12-31-24V121l4-83c0-11-6-19-19-26-12-8-24-12-36-11v80H508V42c0-10-6-19-18-28-11-8-23-13-35-13l4 114v310m49-318h265v258H508V107m248 772 55-38c5-3 7-7 7-11 0-1-9-10-29-28V593c-1-24 5-36 16-37h39c19 0 39 6 60 20l18-18c13-10 19-17 19-21 0-8-26-16-78-24h-58c-19 0-34 4-45 14-12 8-18 22-18 41v248H559v-66c-3-71-18-129-45-176-26-46-76-87-153-125l-9 14c66 43 109 87 128 132s29 100 32 164v122l56-40h164l24 38M107 572h188l31 45 59-57c0-2 1-4 2-8-1-3-2-5-4-5H236V392h73l31 45 55-51c1 0 3-2 3-5 0-8-3-12-11-12H236V129l147 113 12-10c-77-75-124-121-143-140-18-17-35-41-51-70l-55 53c18 14 32 28 42 42v252h-84c-14 0-36-3-67-8l-16 31h167v155h-36l-23-8-22 33m159 312c5-2 7-3 7-5 2-6 0-10-7-12-18-6-32-18-41-35-17-33-32-65-45-98h115l35 47 61-57c0-2 1-4 2-6 0-5-3-8-8-7H168c-22-48-45-93-70-137-24-44-53-85-86-125l-12 8c49 85 90 170 123 256 34 84 58 152 72 205l71-34Z"/></symbol><symbol id="铆_G" viewBox="0 0 1000 1000" data-size="21"><path transform="matrix(1 0 0 -1 56 967)" d="M555 845c-24-9-67-26-129-51V341l101 55v365l73-26c7-4 9-7 5-9 0-4-10-13-31-26V452c2-111-10-190-35-238-25-49-57-88-94-118-37-31-91-63-164-96l-10 16c59 29 108 62 147 99 37 34 64 73 82 116s27 90 27 143c-36-21-65-43-86-64-21-22-37-42-46-61l-47 41 31 35v514l39-31c66 35 116 71 150 107 36-29 53-47 53-53 1-6-4-8-16-6-10 1-27-3-50-11m277 6 49-43c5-6 8-9 8-10 2-5-9-14-32-27V364c2-38-2-64-9-80-7-15-25-28-55-37-4 16-12 27-25 35-12 5-30 14-53 26l4 13c35-9 60-13 74-11 12 0 19 9 20 25v453H703V146l4-101c0-9-6-18-19-25-12-8-24-12-36-12l4 138v707l53-41h90l33 39M104 601h154l37 45 49-57c1-2 2-5 2-8 0-4-1-6-4-6H203V421h63l29 39 51-45c2 0 3-2 4-6 0-8-5-12-14-12H203V132l125 94 10-14c-74-66-118-107-131-120-12-15-24-33-37-55l-47 43c16 14 27 29 35 44v273H72c-19 0-37-2-52-7L2 421h156v154h-21l-14-4-19 30m148 298c5-2 7-3 8-5 2-6 0-10-6-12-22-5-37-16-45-33-18-42-33-74-43-96h102l33 51 54-61c2-2 2-4 2-6 0-6-2-8-5-8H156c-17-42-39-86-64-130-24-45-49-89-76-131l-16 8c43 86 80 171 111 255 32 82 56 150 75 204l66-36Z"/></symbol><symbol id="铇_G" viewBox="0 0 1000 1000" data-size="21"><path transform="matrix(1 0 0 -1 21 956)" d="M619 856c5-2 8-3 8-5 0-6-4-11-12-14-17-3-31-13-41-31-8-19-19-41-31-69h275l34 43 52-45c5-4 7-7 8-11-1-5-12-14-33-28V388c0-56-3-95-8-116-4-19-14-39-29-58-14-20-35-34-65-43-4 19-14 33-31 43-17 8-45 19-84 31l6 18c25-6 47-11 66-14s37-3 55-2c16 1 27 13 33 37 7 24 9 54 8 92v336H531c-17-38-39-80-64-125-26-45-61-94-104-149l-13 8c41 70 78 144 111 221 32 76 60 152 84 229l74-40m72-259 53-35c4-4 6-7 6-8 0-4-8-12-25-24V405l4-70c0-10-5-18-14-25-8-7-20-11-37-14v43H510V94c-1-25 4-39 13-43s25-6 49-6h258c25 0 41 6 47 19 7 13 12 28 14 46 2 17 4 56 5 116h20c3-47 5-83 8-108s14-39 33-44c-10-25-21-44-35-56-14-10-37-16-70-18H535c-20 0-37 4-51 12-13 8-20 27-21 58v505l43-13h154l31 35M510 362h168v174H510V362M98 575h179l37 47 41-43c13-10 17-17 14-23-2-6-4-9-8-8H215V409h72l37 49 55-55c6-7 4-14-6-19H215V134l166 129 12-14c-80-75-131-124-153-148-21-23-39-48-52-74l-59 43c11 9 24 20 39 34v280H96c-20 0-39-3-57-8l-18 33h147v139h-29l-24-6-17 33m142 301c5-2 7-4 8-6 2-6-1-10-8-14-15-2-27-11-35-27-17-41-30-72-39-94h145l39 45 56-56c2-2 2-4 2-6 0-6-2-9-6-8H156c-21-46-43-92-68-139-24-46-48-84-72-115l-16 6c32 60 66 137 102 230 35 93 58 166 70 219l68-35Z"/></symbol><symbol id="铈_G" viewBox="0 0 1000 1000" data-size="21"><path transform="matrix(1 0 0 -1 31 969)" d="M400 766h428l39 55 67-61c2-2 3-4 4-8 1-8-1-11-8-11H668V588h137l29 37 61-47c5-3 7-7 7-11s-11-12-35-24V227c0-21-4-38-13-51-10-12-30-24-61-37-6 23-16 39-29 49-13 9-35 18-67 27l2 18c45-9 72-15 82-16 9-1 18 1 26 4 7 4 11 14 9 29v311H668V147l4-105c0-7-7-16-20-27-13-10-26-15-37-14l4 142v418H475V280l4-86c0-9-7-18-22-28-14-9-25-14-35-13l4 127v347l53-39h140v153H482c-13 0-33-3-58-8l-24 33m147 160 8 12c43-20 73-39 91-57 18-15 29-31 34-47 4-15 3-29-4-41-8-12-18-17-30-15-11 1-19 9-23 25-3 14-8 31-16 51-8 19-28 43-60 72M94 604h197l37 47 41-43c13-10 17-18 14-24-2-6-5-8-8-8H225V426h74l35 45 59-51c5-8 3-14-6-19H225V162l138 102 12-12c-61-58-104-98-127-121-21-22-39-45-53-69l-60 51c11 6 25 18 41 34v254H84c-20 0-39-3-57-8l-17 33h166v150h-41l-24-5-17 33m158 301c5-2 7-4 8-6 2-6-1-11-8-14-16-4-27-14-35-29-18-36-33-67-47-92h125l39 45 57-57c1-2 2-4 2-6 0-5-2-8-6-7H160c-22-47-44-89-66-127-20-39-46-79-78-119l-16 5c31 55 66 129 105 223 40 93 66 166 81 219l66-35Z"/></symbol><symbol id="铉_G" viewBox="0 0 1000 1000" data-size="21"><path transform="matrix(1 0 0 -1 33 947)" d="m824 720 41 52 59-58c8-5 11-9 10-14 0-4-5-6-14-6H500c-10 0-31-2-62-7l-20 33h406M564 884l10 12c49-22 82-42 100-61s28-36 31-51c2-15-1-28-8-39-8-10-17-15-29-14-11 2-18 11-22 28-3 17-10 35-19 54-10 20-31 43-63 71M463 433c62 91 107 173 135 246 48-20 74-32 76-35 0-5-1-8-4-10-2-2-9-4-20-6-9-2-26-20-48-53-23-33-61-84-116-152l217 12c30 41 58 89 84 146 48-23 73-38 74-43 0-4 0-8-2-10 0-2-7-4-19-6-12 0-32-21-61-64-30-41-70-96-121-164-51-69-106-136-166-202 84 4 193 12 326 22-17 41-50 89-99 145l11 13c61-46 104-87 129-123 26-32 41-60 47-83 5-21 4-38-4-50-7-11-17-16-29-14-11 0-18 6-21 19-4 14-11 38-22 72-121-11-205-21-252-30-47-8-88-21-125-40l-35 65c29 5 49 13 61 24 54 72 93 125 117 160 21 36 52 82 93 139-71-10-120-17-148-23-27-6-55-16-82-30l-43 59 47 16M102 563h199l37 47 41-43c12-9 17-17 14-23-2-6-5-9-8-8H221V376h88l37 51 56-57c6-8 4-14-6-19H221V108l172 98 11-16c-86-59-140-98-164-116-21-17-39-37-52-58l-57 54c12 8 25 18 41 31v250H78c-20 0-39-3-57-8L4 376h168v160h-29l-24-6-17 33m146 295c5-2 7-4 8-5 2-6-1-11-8-14-16-5-27-14-35-27-20-45-34-79-43-100h131l35 45 60-57c2-2 2-4 2-6 0-6-2-8-5-7H158c-21-47-41-89-62-127-20-39-47-82-80-129l-16 6c31 61 66 140 104 236 37 94 62 167 76 221l68-36Z"/></symbol><symbol id="铊_G" viewBox="0 0 1000 1000" data-size="21"><path transform="matrix(1 0 0 -1 40 955)" d="m563 897 7 12c37-15 65-32 86-49 20-16 32-32 35-48 5-16 4-30-3-41-8-13-19-18-32-16-12 2-19 12-21 29-3 18-8 35-16 53-8 17-27 37-56 60M457 776h22l1-47h344l26 38c44-40 67-62 68-67 2-4 1-6-2-8s-10-4-21-5c-12-3-27-10-43-22s-41-37-77-76l-17 8c25 39 47 75 64 109H482c1-22-2-43-9-62-8-20-18-34-30-41-11-8-23-10-35-6s-17 11-17 23c0 10 7 22 23 35 14 13 25 28 31 45 6 16 10 41 12 76m43-162c53-20 81-32 84-37 1-3 0-6-4-10l-31-15V302c49 37 95 75 137 115 40 38 74 74 101 107 47-31 70-48 70-52s-3-7-7-8-12-1-24-2-35-15-70-43c-36-27-105-76-207-147V84c0-21 4-32 12-33 7-2 15-3 23-4h203c16 2 27 4 35 6 9 2 17 12 22 31 4 16 8 65 11 145h20c2-53 5-89 10-109 3-20 13-35 31-44-4-13-12-27-25-41-12-14-24-23-36-25-10-2-20-4-31-6H584c-18 0-35 2-49 6-12 4-21 11-27 23-6 11-9 28-8 51v530M98 567h193l37 47 41-43c13-9 17-17 14-23-2-6-5-9-8-8H221V384h105l37 51 57-57c6-8 4-14-6-20H221V97l181 119 12-18C324 132 268 89 244 66c-21-22-39-45-53-66l-60 53c12 8 27 18 43 31v274H82c-20 0-39-2-57-7L8 384h166v156h-35l-24-6-17 33m150 287c5-1 7-3 8-5 2-6-1-11-8-14-16-4-27-14-35-29-20-35-34-63-43-84h123l39 45 57-57c1-2 2-4 2-6 0-6-2-8-6-8H158c-21-46-43-88-64-127-20-39-46-78-78-119l-16 6c31 55 65 128 104 219 37 90 62 161 76 215l68-36Z"/></symbol><symbol id="铋_G" viewBox="0 0 1000 1000" data-size="21"><path transform="matrix(1 0 0 -1 48 951)" d="m498 708 78-35c4-4 6-8 6-12 1-2-1-4-4-4l-31-17V241c33 41 62 88 88 141 24 51 48 105 72 162 23 56 49 137 78 244 48-23 72-37 72-41 1-2 1-4 0-8-1-2-12-8-33-15-31-84-56-151-76-200-20-48-41-94-62-136-22-41-42-76-61-106-20-28-46-60-78-95v-71c0-21 3-33 10-38 6-2 15-3 29-4h129c21 3 35 14 41 30 6 19 9 37 10 55 0 17 2 54 5 110h18c2-56 5-95 10-120 3-24 12-39 25-45-8-24-19-41-31-51s-35-17-66-22H584c-20 0-36 2-49 6-12 5-21 12-27 22-5 8-8 23-10 45v43c-25-24-57-49-98-77-39-28-76-51-111-70l-8 12c41 33 76 61 106 84 29 21 66 55 111 102v510m270-193 9 7c32-24 60-52 86-85 24-34 37-61 41-81 2-20 0-35-8-44-7-9-17-12-29-10-10 1-17 12-19 33-2 19-8 43-18 72-10 27-31 63-62 108m-342 29h19c0-55 0-102-2-139-2-36-9-64-23-84-12-20-26-32-43-37-16-4-27-1-33 10-7 10-4 21 8 35 11 12 21 24 31 35 8 12 17 31 25 57 8 25 14 66 18 123m123 342 10 10c47-30 81-55 101-77 19-20 29-39 31-56 2-19 0-32-7-39-8-9-19-12-32-10-12 2-19 13-21 31s-8 37-18 57c-9 19-31 47-64 84M104 573h175l37 47 41-43c13-10 17-17 14-23-2-6-4-9-8-8H211V394h60l38 50 56-56c6-8 4-15-6-20H211V130l168 111 14-17c-82-63-136-106-161-130s-44-46-58-69l-55 53c15 9 30 20 45 34v256H80c-20 0-39-2-57-8L6 394h158v152h-19l-24-6-17 33m146 293c5-2 7-4 8-6 2-6-1-10-8-13-16-4-27-14-35-30-22-46-37-80-47-101h143l39 45 56-57c2-2 2-4 2-6 0-6-2-8-6-8H156c-21-46-41-88-62-127-20-39-46-78-78-119l-16 6c31 55 65 131 104 229 38 95 64 170 78 222l68-35Z"/></symbol><symbol id="铌_G" viewBox="0 0 1000 1000" data-size="21"><path transform="matrix(1 0 0 -1 39 967)" d="m813 896 56-42c5-2 7-5 8-9-1-2-12-13-33-32V700l4-97c1-8-4-15-16-22-11-8-24-12-39-14v45H486c2-92-2-181-11-267-10-86-32-155-65-207-31-50-78-96-140-138l-10 14c49 41 87 88 115 139 27 52 44 119 51 201 6 83 9 168 8 258v285l62-43h287l30 42m-327-67V638h307v191H486m86-254c43-17 69-28 78-33 8-6 8-10 0-14l-27-13V337c72 50 144 112 215 185 41-32 60-51 58-56-1-4-3-6-5-6h-18c-9 1-36-14-80-45-45-30-102-64-170-102V114c0-22 4-34 12-36 8-1 15-2 23-2h143c12 0 23 1 33 4s18 13 23 30c4 18 8 62 10 133h18c2-45 5-77 8-96 2-20 11-33 29-40-5-17-12-32-22-44-9-12-20-20-31-24-12-2-24-4-37-6H660c-19 0-36 2-51 6-13 3-23 10-29 22-4 10-7 27-8 51v463M98 603h197l37 46 41-43c12-9 17-17 14-23-2-6-5-8-8-8H217V423h96l37 47 56-53c6-8 4-14-6-20H217V183l140 105 12-16c-61-56-103-97-127-123-21-23-39-46-53-69l-60 48c12 7 25 18 41 31v238H74c-20 0-39-2-56-7L0 423h170v152h-31l-24-6-17 34m156 296c4-2 7-3 8-5 2-6-1-11-8-14-16-5-27-14-35-27-21-38-36-67-45-88h135l39 45 56-57c2-2 2-4 2-6 0-6-2-8-6-8H162c-21-46-43-88-64-127s-47-78-78-119l-16 6c31 55 65 128 103 221 39 90 65 161 79 215l68-36Z"/></symbol><symbol id="铍_G" viewBox="0 0 1000 1000" data-size="21"><path transform="matrix(1 0 0 -1 37 966)" d="M94 589h189l37 47 41-43c13-10 17-18 14-24-2-6-5-8-8-7H215V423h84l37 43 55-53c5-4 4-10-6-16H215V151l127 98 13-16c-63-59-105-99-126-120-20-19-36-41-49-64l-55 51c12 8 27 19 43 34v263H82c-20 0-39-2-57-7L8 423h160v139h-33l-24-6-17 33m324 203 59-49h146v188l76-32c4-2 6-5 6-7s-2-4-6-6l-27-14V743h154l29 35c45-37 67-59 65-66-1-5-5-7-14-8-15-1-33-10-52-27-27-24-53-51-81-82l-13 9 68 112H672V521h76l27 39 61-43c8-6 7-13-2-20-16-8-26-16-31-23-26-71-47-123-63-159-16-33-38-68-66-105 27-24 60-47 99-68 55-28 106-44 153-50V74c-20-1-37-2-53-4-15 0-30-11-45-31-39 24-74 47-105 70-32 23-58 46-78 70-32-32-73-64-124-97-50-31-105-57-164-76l-3 14c68 40 121 73 158 99 34 24 70 54 107 91-19 29-37 64-53 103-14 38-29 98-45 182h-52c0-135-16-239-47-312-29-72-83-133-160-183l-8 14c70 63 115 129 135 198 19 68 29 166 29 295v285m129-297c15-66 29-116 43-148 13-34 32-67 56-102 12 18 28 48 49 92 21 41 40 94 57 158H547m-78 26h154v195H469V521M248 897c5-1 7-3 8-5 2-6-1-11-8-14-16-4-27-14-35-29-21-45-36-77-45-98h125l39 45 57-57c1-2 2-4 2-6 0-5-2-8-6-7H156c-21-47-41-89-62-127-20-39-46-79-78-120l-16 6c31 55 65 131 104 227 37 94 62 167 76 221l68-36Z"/></symbol><symbol id="铎_G" viewBox="0 0 1000 1000" data-size="21"><path transform="matrix(1 0 0 -1 19 964)" d="M412 415h207v133l78-33c9-5 9-10 2-16l-31-16v-68h105l36 43 58-55c6-10 3-15-8-15H668V249h164l43 45 57-53c2-2 3-4 4-8 0-7-4-11-12-11H668V116l4-77c0-7-7-16-20-25S626 0 615 0l4 114v108H475c-12 0-34-3-65-8l-17 35h226v139H494c-12 0-33-3-64-8l-18 35M98 593h179l37 47 41-43c13-10 17-18 14-24-2-6-4-8-8-8H215V427h72l37 49 55-55c6-8 4-14-6-20H215V151l166 129 12-13c-80-75-131-125-153-149-21-23-39-47-52-73l-59 43c11 8 24 20 39 34v279H96c-20 0-39-2-57-7l-18 33h147v138h-29l-24-5-17 33m263-94c46 20 91 42 137 68 44 25 80 50 107 75-53 48-93 113-121 193h-56l-20-4-19 29h388l36 36 52-43c7-4 9-9 8-16 0-2-5-4-14-6-7-2-17-6-29-14-51-70-103-129-156-177 25-18 54-34 86-47 29-12 60-22 92-30 31-5 68-9 111-11v-22c-27 1-47-2-59-9-9-8-18-18-25-30-63 22-113 43-149 65-35 21-66 41-91 58-41-28-83-52-125-74-41-20-90-39-147-57l-6 16m149 336c25-57 68-114 129-172 47 44 93 101 140 172H510m-270 59c5-2 7-4 8-6 2-6-1-11-8-14-15-3-27-12-35-27-17-41-30-73-39-94h145l39 45 56-57c2-2 2-4 2-6 0-6-2-8-6-7H156c-21-47-43-93-68-139-24-46-48-85-72-115l-16 5c32 60 66 137 102 231 35 93 58 166 70 219l68-35Z"/></symbol><symbol id="铏_G" viewBox="0 0 1000 1000" data-size="21"><path transform="matrix(1 0 0 -1 30 969)" d="M330 851h299l31 39 55-47c2-2 3-5 4-8 0-8-5-12-14-12h-98V548h28l27 37 53-45c1-2 2-5 2-8 0-8-3-11-10-11H607V159l4-85c0-9-6-17-17-25-10-9-22-13-35-14l4 124v362h-98c-2-121-8-204-18-250-10-45-30-92-60-141-30-48-73-92-129-130l-8 14c48 44 83 89 107 135 25 47 41 94 49 143s12 125 12 229h-49c-10 0-21-3-35-8l-21 35h105v275h-23c-15 0-30-2-45-8l-20 36m233-303v275h-98V548h98m167 236 77-29c4-2 6-5 6-8 2-3-10-11-36-25V382l4-84c-2-11-8-20-19-27-10-8-22-12-35-12l3 125v400m127 139 73-31c8-4 11-8 9-12 0-4-12-12-37-24V96c3-26-1-45-11-59-11-14-28-25-51-33-7 21-22 37-45 47-22 10-49 18-82 25l4 18c36-7 64-11 84-14 19-2 33-1 43 2 8 4 13 12 13 25v816M104 604h154l37 45 49-56c1-2 2-5 2-8 0-4-1-6-4-6H203V425h63l29 39 51-45c2 0 3-2 4-6 0-8-5-12-14-12H203V142l125 89 10-13c-74-68-118-109-131-122-12-15-24-33-37-55l-53 47c16 14 29 29 41 46v267H72c-19 0-37-2-52-7L2 425h156v154h-21l-14-4-19 29m148 299c5-2 7-4 8-6 2-5 0-9-6-11-22-5-37-16-45-33-18-42-33-74-43-96h102l33 51 54-61c2-2 2-4 2-6 0-6-2-8-5-8H156c-17-43-39-86-64-130-24-45-49-89-76-131l-16 7c43 86 80 172 111 256 32 82 56 150 75 203l66-35Z"/></symbol><symbol id="铐_G" viewBox="0 0 1000 1000" data-size="21"><path transform="matrix(1 0 0 -1 33 967)" d="M518 431c-69-57-125-97-168-119l-10 13c41 31 76 60 105 86 30 25 59 53 88 84 28 31 51 57 71 80H479c-22 0-46-2-73-8l-21 34h148v144h-45c-15 0-33-2-52-8l-24 34h121v164c51-15 78-24 80-28 3-2 4-5 2-8-2-2-13-9-33-19V769h64l32 37c34-32 52-49 54-53s2-7 0-8c0-2-3-2-11-2H582V599h43c36 39 68 76 96 111 27 33 58 76 92 129 41-26 62-41 64-47s0-10-6-12-14-4-21-6c-8-1-20-10-36-27-15-16-33-36-52-60-20-24-47-53-80-88h152l37 47c39-36 59-55 61-59 1-3 2-5 2-8s-4-4-12-4H662c-44-45-84-85-121-119h258l37 43c38-35 59-55 60-59 2-4 0-7-7-9H645l-41-110h140l29 37c43-30 65-46 65-50s-2-7-6-8l-27-18c-9-76-15-125-20-148-4-21-10-42-19-62-9-17-23-32-43-45-20-11-41-20-65-27-3 18-12 33-27 45-16 12-45 24-88 37l6 20c45-12 76-20 94-24 17-2 31-3 45-2 11 2 21 9 31 20 7 9 13 25 19 48 4 21 10 72 18 152H611l-37-31-54 50 39 20 33 96h-74M107 597h166l38 47 41-43c12-10 16-18 13-24-2-6-4-8-8-8H213V411h86l37 51 57-57c5-8 3-14-6-19H213V142l178 111 9-16c-86-66-141-109-166-130-24-19-43-40-56-62l-55 51c12 8 27 18 43 30v260H84c-20 0-39-3-57-8l-17 33h156v158h-16l-25-6-18 34m143 302c5-2 7-3 8-5 2-6-1-11-8-14-16-5-27-14-35-27-22-45-37-79-47-100h115l39 45 57-57c1-2 2-4 2-6 0-6-2-8-6-7H156c-20-47-41-90-62-129-20-39-46-79-78-120l-16 6c31 55 65 131 104 227 38 96 64 170 78 223l68-36Z"/></symbol><symbol id="铑_G" viewBox="0 0 1000 1000" data-size="21"><path transform="matrix(1 0 0 -1 32 946)" d="M514 319c-49-45-103-86-162-123l-12 14c80 68 138 120 174 156v43l27-13c27 27 55 56 82 87H459c-25 0-51-2-76-7l-22 35h196v172h-77c-16 0-33-3-50-8l-20 33h147v180c50-19 78-30 82-34 3-2 4-5 2-7-2-3-13-10-34-22V706h57l35 41c35-32 53-51 55-57 1-3 1-6 0-7-2-2-6-3-12-2H607V509h36c29 39 60 84 93 135 32 50 62 105 90 164 47-26 70-41 70-47 0-4-1-7-5-8-3 0-9-2-20-6-10-3-21-13-33-31-10-18-29-49-59-92-28-42-55-80-80-115h137l37 45c39-34 60-53 63-57v-10c0-2-4-4-12-4H680c-34-37-72-76-114-119V224c30 15 67 37 112 68 43 29 81 59 113 90 46-29 68-47 66-53s-3-8-5-8h-20c-10 0-23-4-37-11s-39-20-76-39c-37-18-88-42-153-71V86c0-20 4-31 12-33s16-2 24-2h175l26 2c13 4 23 11 29 21 6 9 11 58 16 146h19c2-50 4-84 6-102 1-17 14-32 37-44-6-15-14-29-23-41-10-11-28-19-53-25l-31-4H598c-20-1-36 1-49 4s-22 10-28 21c-4 12-7 30-7 55v235M109 565h188l37 47 41-43c12-9 17-17 14-23-2-6-5-9-8-8H223V384h86l37 51 56-57c6-8 4-14-6-20H223V97l142 93 12-11c-63-55-106-94-129-116-21-22-39-43-53-63l-60 53c11 8 25 18 39 31v274H90c-20 0-39-2-57-7l-17 33h158v154h-24l-23-6-18 33m135 291c5-2 7-3 8-5 2-4-1-8-8-12-15-4-27-14-35-29-17-39-30-69-39-90h131l39 47 56-59c2-2 2-4 2-6 0-6-2-8-5-8H160c-25-64-47-116-68-154-20-39-46-81-78-125L0 425c29 56 63 135 102 236 37 101 62 178 76 231l66-36Z"/></symbol><symbol id="铒_G" viewBox="0 0 1000 1000" data-size="21"><path transform="matrix(1 0 0 -1 27 965)" d="M330 854h483l42 47c39-37 59-58 61-64 1-7-5-10-16-10H787V267l63 7 27 51 62-49c4-3 6-6 6-9 1-8-6-12-21-12l-137-14V130l4-87c2-9-5-18-20-27-14-9-27-15-39-16l6 130v107l-355-35c-24-2-42-7-55-14l-17 34 144 13v592h-53c-7 1-24-2-50-10l-22 37m174-613 234 22v166H504V241m0 215h234v170H504V456m0 197h234v174H504V653M98 606h170l37 47 41-43c12-9 17-17 13-23-2-6-4-9-7-8H219V427h72l37 51 57-57c6-8 4-14-6-20H219V183l133 132 15-13c-70-84-115-139-135-164-17-23-31-44-43-64l-56 52c13 7 27 18 39 33v242H90c-20 0-39-2-57-7l-17 33h156v152h-33l-24-6-17 33m129 290c4-2 7-4 7-6 2-6 0-11-7-14-16-5-28-14-36-27-10-30-20-57-31-82h123l39 45 57-57c1-2 2-4 2-6 0-6-2-8-6-8H150c-17-51-37-96-58-137-20-39-46-83-78-130l-14 9c31 59 63 135 94 229 31 93 52 166 64 219l69-35Z"/></symbol><symbol id="铓_G" viewBox="0 0 1000 1000" data-size="21"><path transform="matrix(1 0 0 -1 23 959)" d="m895 501 56-57c1-2 2-6 2-9 0-5-2-8-8-8H545V59h256l41 45 64-55c2-2 2-5 2-10 0-4-2-7-8-8H551L516 0l-63 47 41 29v351h-74c-20 0-35-3-47-8l-23 35h504l41 47M385 739h138v160l79-25c3-2 5-4 5-6 5-2-6-10-33-21V739h160v160l82-25c4-2 6-6 4-12 0-2-11-8-35-17V739h65l37 49 54-55c2-2 2-4 2-7 0-8-4-12-11-12H785v-55l4-53c-4-12-12-21-25-27s-24-10-34-10l4 78v67H574v-67l4-43c-1-7-8-15-21-23-14-6-26-10-37-12l3 75v70h-56c-12 0-33-3-65-8l-17 33m209-136 10 11c31-18 56-35 74-51 17-16 27-33 29-50 1-17-2-29-10-37s-19-11-31-8c-12 2-18 11-20 29 0 18-5 35-15 53-9 17-21 35-37 53m-494-28h177l36 43c39-38 58-58 58-62s-2-6-6-6H215V390h88l31 45 49-51c2 0 3-2 4-6 0-8-5-12-14-12H215V122l148 117 12-13c-79-72-125-115-139-130-13-15-28-38-45-69l-60 43c11 11 23 24 37 40v256H82c-12 0-33-2-64-8L0 390h168v160h-31l-20-6-17 31m152 311c8-6 10-10 6-12 0-3-4-6-12-10-16-3-29-14-41-33-12-30-24-60-37-92h121l33 45 57-55c1-1 2-3 2-5 0-5-2-8-6-8H160c-21-48-45-96-70-145-24-49-45-89-65-119l-15 8c39 88 73 172 103 252 28 81 50 150 67 207l72-33Z"/></symbol><symbol id="铔_G" viewBox="0 0 1000 1000" data-size="21"><path transform="matrix(1 0 0 -1 14 942)" d="M393 782h455l41 51 62-59c2-2 3-4 4-7 0-8-4-12-12-12H762V233c27 69 51 133 70 194 18 60 33 117 47 170l76-32c8-5 8-12 0-19-8-1-16-4-23-10-9-4-28-44-57-119-29-74-67-152-113-234V61h103l43 53 59-61c2-3 3-5 4-8 2-8-1-12-8-12H432c-14 1-36-2-67-8l-15 36h218v694h-93c-14 0-36-3-67-8l-15 35M619 61h92v694h-92V61M404 579l16 8c47-73 78-133 94-180 14-47 20-84 17-113-2-29-8-48-19-55-12-6-22-8-32-4s-15 16-13 36c1 19 2 42 2 70 0 27-4 58-12 94-8 35-25 83-53 144M98 548h179l37 47 41-43c13-10 17-18 14-24-2-6-4-8-8-7H217V382h70l37 49 55-55c6-8 4-14-6-20H217V106l164 129 12-13C313 147 262 97 240 73c-21-23-39-47-52-73l-59 43c11 8 24 20 39 34v279H96c-20 0-39-2-57-7l-18 33h147v139h-29l-24-6-17 33m142 301c5-2 7-4 8-6 2-6-1-11-8-14-15-3-27-12-35-27-17-41-30-73-39-94h145l39 45 56-57c2-2 2-4 2-6 0-5-2-8-6-7H156c-21-47-43-93-68-139-24-46-48-85-72-115l-16 6c32 59 66 136 102 230 35 93 58 166 70 219l68-35Z"/></symbol><symbol id="铕_G" viewBox="0 0 1000 1000" data-size="21"><path transform="matrix(1 0 0 -1 29 966)" d="M422 737h121c20 62 37 127 53 196 54-23 83-36 86-39 1-5 0-8-4-10s-11-5-22-8c-10-4-17-14-23-29s-18-52-37-110h238l39 53 66-64c3-3 4-6 2-10-2-3-6-4-13-4H586c-12-35-28-75-49-119h244l33 41 55-47c6-5 9-9 10-14 0-4-10-11-29-23V98c0-24-5-45-14-61-10-15-28-27-55-37-6 21-17 37-33 47s-45 19-86 29l4 20c33-6 59-10 76-12 18-2 33-2 43 0 11 3 15 12 14 28v160H543V128l4-85c0-8-7-17-20-27-12-10-24-15-37-16l4 122v389c-27-56-71-119-133-192l-11 12c48 81 89 156 121 225 31 66 52 118 62 156h-39c-13 0-32-3-56-8l-16 33m121-439h256v121H543V298m0 146h256v123H543V444M105 589h180l37 47 41-43c13-10 17-18 14-24-2-6-5-8-8-7H229V411h58l31 49 59-55c6-8 4-14-6-19H229V128l175 121 12-16c-85-74-139-122-162-145-22-23-39-45-53-67l-60 55c11 8 24 18 39 29v281H86c-20 0-39-3-57-8l-17 33h168v151h-34l-23-6-18 33m147 295c5-2 7-4 8-6 2-6-1-10-8-14-16-4-27-13-35-27-12-29-24-57-37-84h129l39 45 56-57c2-2 2-4 2-6 0-6-2-8-6-7H170c-22-49-44-94-66-135-22-42-52-88-90-139L0 464c35 63 72 142 111 236 37 93 61 166 73 219l68-35Z"/></symbol><symbol id="铖_G" viewBox="0 0 1000 1000" data-size="21"><path transform="matrix(1 0 0 -1 13 964)" d="M100 603h189l37 46 41-43c13-9 17-17 14-23-2-6-5-8-8-8H221V417h78l35 47 53-53c6-8 4-14-6-19H221V149l131 92 11-15c-64-56-106-94-125-113-18-19-34-41-49-64l-58 51c12 7 25 18 41 32v260h-72c-21 0-39-3-57-8l-18 33h147v158h-31l-24-6-17 34m812 142 59-51c2-2 3-4 4-7 0-5-3-8-8-8H730c0-82 4-153 12-215 5-62 14-114 26-156 19 56 34 105 45 146 7 42 17 83 29 125l68-35c7-2 9-6 8-12 0 0-4-3-12-8-14-3-24-13-31-29-6-16-16-49-31-101s-35-99-61-143c12-27 25-50 39-68 13-19 23-34 32-45 7-11 15-20 23-25 7-4 14-5 19-4 5 2 10 13 14 33 4 19 12 56 24 109l21-4c-8-51-12-92-14-121 0-28 2-50 8-65 4-14 8-24 12-30 3-5 4-10 2-15-2-6-7-9-14-10-8 0-19 4-35 14-14 7-32 22-55 43-21 20-41 41-58 63-17 23-32 50-45 80-31-44-67-81-106-112S559 31 494 0l-8 16c55 32 103 68 145 109 41 38 75 80 103 128-23 77-37 148-43 213-5 64-9 135-11 211H467V522h90l31 40 53-43c5-4 7-9 7-14 0-1-3-5-11-10l-24-14V296c-4-49-12-84-25-106-12-21-32-37-61-46-10 23-21 38-33 44s-28 12-49 20l4 16c31-7 54-10 69-10 13-1 23 4 31 14 7 9 12 33 15 74v193h-99c2-146-14-252-47-316-34-63-84-118-150-163l-8 11c56 52 97 108 123 169 25 61 36 164 33 309v244l57-43h207v221l76-37c10-6 12-12 6-18l-32-12V706h153l29 39M795 884c47-20 77-35 92-47 11-11 19-22 23-33 2-12 1-22-2-30-4-7-10-12-15-15-6-2-13-2-20 0-6 2-12 9-16 21-2 10-7 23-17 39-7 16-24 34-51 53l6 12m-543 10c5-2 7-4 8-6 2-6-1-11-8-14-16-4-27-12-35-25-13-25-28-54-45-86h125l39 45 57-57c1-2 2-4 2-6 0-6-2-8-6-8H160c-17-35-37-71-58-107-20-38-49-82-88-133L0 507c33 62 68 136 107 221 38 82 63 149 77 201l68-35Z"/></symbol><symbol id="铗_G" viewBox="0 0 1000 1000" data-size="21"><path transform="matrix(1 0 0 -1 30 967)" d="M412 741h190v194l82-38c4-2 5-5 5-9 0-3-12-10-37-22V741h133l37 53 67-61c2-2 3-4 4-5 2-8-1-12-8-12H654c-4-127-10-229-19-305h181l38 49 62-57c6-9 3-15-8-17H662c18-65 39-116 65-155 25-38 54-71 87-97 34-25 76-42 125-50V64c-29 1-48-1-56-7-9-4-21-12-37-24-33 26-63 55-90 87-26 31-49 66-68 104-20 38-36 92-47 162h-10c-16-79-38-140-67-184-27-44-65-84-113-118-47-35-99-63-158-84l-4 16c46 23 89 51 131 84 40 30 74 68 101 114 27 44 47 101 61 172H479c-14 0-34-3-63-8l-20 33h190c8 68 13 170 16 305H494c-14 0-36-3-66-8l-16 33m0-97 10 9c43-31 72-57 88-78 15-19 23-39 21-58 0-18-5-30-13-36-9-4-18-5-28-2-10 4-15 16-17 38-2 21-9 43-20 64-10 21-23 42-41 63m371 21c48-24 72-38 72-43 0-4-1-8-5-10-4 0-10-2-18-4s-22-16-43-43-53-67-96-119l-15 8c41 72 76 143 105 211m-666-68h170l37 47 41-43c13-10 17-18 14-24-2-6-5-8-8-8H229V431h68l37 45 51-51c6-8 4-15-6-20H229V151l167 116 12-14c-79-66-130-111-154-135-24-22-42-44-55-65l-54 43c11 8 23 19 37 34v275H96c-20 0-39-2-57-8l-18 34h161v138h-24l-23-6-18 34m135 287c5-2 7-4 8-6 2-6-1-10-8-14-16-4-27-13-35-27-12-29-24-57-37-84h129l39 45 56-57c2-2 2-4 2-6 0-6-2-8-6-7H170c-22-49-44-94-66-135-22-42-52-88-90-139L0 464c35 63 72 142 111 236 37 93 61 166 73 219l68-35Z"/></symbol><symbol id="铘_G" viewBox="0 0 1000 1000" data-size="21"><path transform="matrix(1 0 0 -1 21 968)" d="m629 878 47-47c2-1 3-5 4-10 0-4-5-6-14-6H555V575h45l29 37 41-43c9-7 10-14 2-19H555V124c0-35-6-60-18-73-14-13-31-24-53-31-6 20-19 36-39 46-19 10-47 21-84 32l6 17c33-8 61-13 82-17 20-2 35-2 45 2 9 4 14 18 14 44v312c-29-64-57-116-84-156-26-41-65-89-115-145l-12 10c44 63 81 120 109 174 28 53 56 123 86 211h-96l-25-29-53 39c13 7 23 17 32 31 9 45 20 101 33 168l66-30c4-1 5-4 4-7-2-4-6-7-14-8-10-4-17-10-21-18-8-40-18-80-27-121h117v240H398c-13 0-35-3-68-9l-17 35h287l29 37M90 604h152l28 34 29-30c12-9 17-17 14-23-2-6-5-9-8-8H191V433h75l29 45 55-51c5-8 4-15-6-20H191V157l125 108 12-12c-62-66-101-109-117-129-16-19-30-41-43-67l-55 45c13 11 23 21 32 30v275H76c-20 0-39-2-56-8L2 433h143v144h-20l-18-6-17 33m803 260 56-45c5-4 7-9 8-13-1-4-6-7-16-10-7-2-17-11-29-25-30-55-64-128-103-221 19-16 44-43 74-80 28-37 47-69 56-96 8-25 12-48 10-66 0-18-3-34-8-47-4-14-13-30-27-47-14-16-38-29-72-39-5 15-11 27-20 35-8 7-29 16-62 25l6 18c30-6 54-10 72-12 16-1 29 3 41 12 10 8 17 21 23 41 5 18 4 40-4 66-7 26-22 55-43 88s-46 67-76 100l96 256H738V140l4-99c0-7-6-16-19-25-14-10-26-15-35-16l3 134v738l57-41h115l30 33m-670 37c4-2 7-4 7-5 2-6 0-11-7-14-16-5-28-14-35-28-12-29-24-60-36-91h92l33 39 51-51c1-2 2-4 2-6 0-6-2-8-6-8H143c-19-49-38-93-57-134-18-41-41-89-70-143l-16 6c27 68 53 136 76 203 24 66 50 155 80 268l67-36Z"/></symbol><symbol id="铙_G" viewBox="0 0 1000 1000" data-size="21"><path transform="matrix(1 0 0 -1 26 963)" d="M111 593h194l33 47 45-43c12-10 17-18 13-24-1-6-4-8-7-8H227V427h76l37 49 56-55c6-8 4-14-5-20H227V165l168 121 11-14c-88-76-143-125-166-148-21-21-38-41-51-61l-52 48c12 5 26 17 43 36v254h-80c-21 0-39-2-57-7l-18 33h155v138h-28l-23-5-18 33m729 230 70-45c8-11 4-18-12-19l-283-41c7-38 24-76 49-115 59 35 109 69 149 103 35-31 52-49 52-53 1-4 0-6-4-7-3-2-10-2-21 0-10 1-26-4-49-18-23-12-57-31-100-55 30-28 57-48 82-60 26-12 47-20 65-24 16-5 27-3 31 6s8 22 12 37c2 14 7 46 15 98l18-2c0-31-1-59-2-84 0-26 2-45 6-57 5-11 11-20 20-27 7-7 11-12 9-16 0-4-2-6-8-7-5-3-17-4-35-4s-42 4-72 11c-29 6-61 18-94 35-34 17-64 42-92 73-76-40-148-70-216-90l-4 16c58 24 125 59 199 103-25 31-44 74-55 131l-101-18c-15-3-28-8-39-15l-28 37 159 21c-12 79-16 142-12 190l80-28c6-3 8-7 6-11-1-2-12-8-33-18-3-24 0-66 9-127l205 31 24 49M697 347V132c0-26 4-42 14-46 10-3 21-6 35-8h76c15 1 28 5 37 14 8 8 13 21 16 38 1 17 4 57 8 117h19c2-57 4-94 8-113 4-17 13-29 28-36-13-24-24-39-34-47s-25-14-45-18H725c-30 2-51 9-61 22s-16 33-16 58v234h-91c-6-73-17-128-34-166-16-39-44-74-85-105-42-30-99-55-172-76l-6 16c68 29 120 60 156 93 35 30 57 63 68 99 11 33 18 79 20 139h-88c-8-1-18-4-29-8l-20 33h406l40 45c41-34 61-54 62-61 0-6-4-9-12-9H697M252 886c5-2 7-4 8-6 2-6-1-11-8-14-16-4-27-13-35-27-12-29-24-57-37-84h129l39 45 56-57c2-2 2-4 2-6 0-6-2-8-6-8H170c-22-48-44-93-66-134-22-42-52-88-90-139L0 466c35 63 72 142 111 236 37 93 61 166 73 219l68-35Z"/></symbol><symbol id="铚_G" viewBox="0 0 1000 1000" data-size="21"><path transform="matrix(1 0 0 -1 25 942)" d="M598 757c43-18 66-28 70-31 2-4 3-8 4-12-1-5-7-7-20-8-11-1-27-15-47-43-19-27-56-77-111-148l303 15c-18 43-48 86-90 131l10 12c42-31 74-57 96-78 20-20 36-39 48-59 14-17 22-35 24-53 4-16 2-30-6-43-8-11-18-16-31-13s-20 12-22 27c0 16-6 33-15 53-118-12-198-20-241-26-43-5-78-17-107-35l-51 67c31 5 55 17 70 37 43 66 82 135 116 207m-198 29h413l39 57 62-65c2-2 3-6 4-9-1-5-6-8-16-8H482c-13 0-35-3-66-8l-16 33m18-517h203v183l78-27c6-2 9-6 10-12 0-2-3-4-8-6l-29-11V269h117l39 43 61-55c2-3 3-6 4-10 0-4-5-7-16-8H672V47h164l41 50 66-62c4-2 6-6 6-12 0-3-6-5-15-5H447c-14 0-37-3-68-10l-18 39h260v192H504c-14 0-36-2-66-8l-20 38M98 548h187l37 47 41-43c13-10 17-18 14-24-2-6-5-8-8-7H223V382h72l37 49 55-55c6-8 4-14-6-20H223V106l166 129 11-13C320 147 270 99 248 75c-21-22-39-47-53-75l-58 47c11 8 24 20 39 34v275h-72c-21 0-40-2-57-7l-18 33h147v139h-37l-24-6-17 33m142 301c5-2 7-4 8-6 2-6-1-11-8-14-15-3-27-12-35-27-17-41-30-73-39-94h145l39 45 56-57c2-2 2-4 2-6 0-5-2-8-6-7H156c-21-47-43-93-68-139-24-46-48-85-72-115l-16 6c32 59 66 136 102 230 35 93 58 166 70 219l68-35Z"/></symbol><symbol id="铛_G" viewBox="0 0 1000 1000" data-size="21"><path transform="matrix(1 0 0 -1 53 960)" d="m615 919 82-35c4-4 6-7 6-8 0-2-2-5-6-8l-31-15V534h123l31 39 51-43c6-4 9-8 10-11 0-5-11-14-31-28V126l4-87c0-8-6-16-18-23-10-8-22-13-35-16v80H482c-16 0-31-3-44-10l-26 36h389v196H508c-16-1-31-4-47-10l-23 37h363v178H492c-15-1-31-4-47-10l-23 37h193v385m-185-96c38-34 68-64 90-90 19-25 31-47 35-66 4-20 2-35-6-47s-18-17-29-16c-12 2-20 14-24 36-3 19-8 42-16 68-8 25-29 61-62 105l12 10m398 8c44-27 67-44 67-49 0-4-1-6-4-8-4-1-9-2-16-3-8-2-16-7-23-14-8-9-21-26-39-51-18-26-51-68-100-125l-14 10c34 55 60 97 78 129 17 31 34 68 51 111M109 565h186l37 47 41-43c12-9 17-17 14-23-2-6-5-9-8-8H227V386h82l37 51 56-57c6-8 4-14-6-20H227V122l166 125 11-16c-86-78-140-127-160-147-18-20-34-42-49-68l-56 47c13 8 27 19 41 33v264H86c-20 0-39-2-57-7l-17 33h168v152h-30l-23-6-18 33m161 321c4-2 7-4 7-6 2-6 0-11-7-14-17-4-29-13-38-27-21-46-39-82-52-110h136l39 45 57-56c1-2 2-4 2-6 0-6-2-9-6-8H168c-18-39-39-80-63-123-22-42-53-88-91-139L0 452c35 63 74 144 117 242s71 174 82 227l71-35Z"/></symbol><symbol id="铜_G" viewBox="0 0 1000 1000" data-size="21"><path transform="matrix(1 0 0 -1 46 954)" d="m402 880 53-47h352l27 45 64-39c6-2 10-6 10-12 0-4-12-14-33-29V84c1-21-5-39-16-53-11-13-32-23-60-31-7 25-20 42-39 53-20 8-47 17-80 25l2 16c63-13 101-19 113-20 23 0 35 8 35 24v712H447V134l4-83c1-8-6-17-21-28-14-10-24-15-32-13l4 124v746m77-229h218l39 43 55-45c1-2 2-4 2-7 1-8-3-12-10-12H564c-11 0-33-3-64-8l-21 29m52-105 45-35h102l31 37c36-27 55-44 55-49 0-3-8-9-24-20V347l4-80c0-8-6-16-17-24s-22-12-34-12v43H578v-29c1-6-4-14-15-21-10-6-22-10-36-12l4 105v229m47-250h115v193H578V296M256 870c2-4 3-8 2-10 0-3-4-6-12-9-16-5-29-14-39-28-18-43-31-76-41-99h111l41 47 57-57c1-2 2-4 2-6 0-5-2-7-6-8H158c-22-49-46-99-72-152-26-51-51-90-74-117l-12 7c40 83 76 168 107 256 31 89 54 160 69 213l80-37M100 563h170l33 43 54-48c4-4 6-8 6-12 0-5-4-7-9-8H205V384h74l35 47c40-37 60-58 61-61 3-6-1-10-10-10H205V124l156 117 10-12c-80-78-131-128-152-151-22-21-37-43-47-66l-57 49c20 12 35 29 45 49v250H92c-12 0-33-2-65-7l-17 31h150v154h-17l-16-8-27 33Z"/></symbol><symbol id="铜_H" viewBox="0 0 1000 1000" data-size="21"><path transform="matrix(1 0 0 -1 42 951)" d="M146 902c31-9 60-20 85-32 5-4 7-7 7-11 0-6-4-11-12-14-15-4-29-6-41-6-9-30-18-58-28-83h124l43 48c24-18 46-35 67-51 5-3 7-7 7-11 0-9-4-13-14-13H146c-10-27-21-54-34-81-6-13-12-26-18-37h156l43 48c23-17 46-34 66-51 6-3 8-6 8-10 0-9-5-14-14-14H215V424h70l43 48c24-18 46-35 67-51 5-3 7-7 7-11 0-9-5-14-14-14H215V157c10 7 19 14 27 21 32 26 58 49 77 68l9-18c-14-21-30-43-49-67s-38-47-59-70c-4-33-8-49-13-49s-24 24-59 71c8 4 14 8 20 12v271h-42c-46-1-78-3-95-6l-19 46c28-8 66-12 114-12h42v160H78c-2-5-5-9-8-13-13-22-30-46-51-71L0 514c21 28 39 59 54 90 16 36 31 74 46 113 15 40 27 81 36 122 5 20 8 41 10 63m268-14 60-42h348l33 41c25-15 42-29 54-42 5-5 7-9 7-13 0-6-13-16-38-31V90c0-23-5-40-15-51-8-10-20-18-35-24-14-8-25-11-35-11-3 14-8 26-16 34-9 10-20 16-31 20-19 7-42 11-66 12v26c45-10 86-15 123-15 11 0 19 2 23 5 4 4 6 12 6 25v707H465V12c0-8-5-12-16-12-6 0-13 2-23 6-8 6-12 14-12 23 0 12 1 27 3 46 3 15 4 46 4 95v648c0 27-2 50-7 70m82-191c29-8 67-11 114-11h81l42 45c23-16 44-33 64-48 5-4 8-7 8-11 0-9-5-14-14-14H610c-46-1-77-3-94-7l-20 46m45-134 62-30h96l34 32c34-23 50-39 50-48 0-7-10-15-29-25V314c10-7 19-15 27-21 4-3 6-5 6-8 0-9-3-14-10-14H590v-17c0-7-4-12-12-16-10-4-18-6-24-6-9 0-13 5-13 14 0 3 0 7 1 14 1 15 1 28 1 41v195c0 32-1 54-2 67m49-264h115l2 2v205H590V299Z"/></symbol><symbol id="铝_G" viewBox="0 0 1000 1000" data-size="21"><path transform="matrix(1 0 0 -1 51 959)" d="m467 870 58-41h235l35 45 60-45c4-4 6-6 6-8 0-4-11-15-33-35V632l4-76c0-11-5-21-14-28-10-7-23-11-39-11v39H516v-12c0-14-7-23-22-29-14-8-24-9-31-6l4 113v248m49-289h263v225H516V581m-92-141 55-41h318l31 39 65-39c3-3 5-6 5-7 0-6-11-19-33-38V144l4-89c1-9-4-19-15-28-11-7-24-11-40-11v82H477V41c0-12-7-21-20-29-12-8-25-12-37-12l4 112v328m53-318h337v254H477V122M100 589h175l34 47 54-59c1-2 2-4 2-8s-2-6-6-6H219V429h78l35 50 51-56c2-2 3-5 4-8 0-8-5-12-14-10H219V151l129 116 15-10C261 152 201 80 184 41l-53 49c20 15 34 31 43 48v267h-63c-11 0-33-2-64-8l-18 32h145v134h-39l-18-3-17 29m152 297c6-2 9-4 10-6 2-7-3-11-14-14-12-6-23-17-33-33-18-36-31-64-41-86h139l37 47 52-57c2-2 2-4 2-6 0-5-2-8-6-7H164c-24-47-47-90-68-129-22-39-50-79-84-121l-12 7c45 78 84 157 117 239 31 80 54 146 69 199l66-33Z"/></symbol><symbol id="铞_G" viewBox="0 0 1000 1000" data-size="21"><path transform="matrix(1 0 0 -1 35 969)" d="m477 922 56-35h260l29 35 59-41c4-2 6-5 6-8-1-4-12-13-33-27V660l3-60c0-7-6-13-19-20-12-6-24-9-35-9v52H689V465h149l29 35 55-45c5-4 8-9 8-13s-11-12-34-24V159c0-19-6-33-19-44-14-11-32-21-55-28-6 21-16 35-31 42-16 8-39 18-70 30l6 17c50-14 86-18 105-14 10 4 15 15 16 34v240H689V120l4-78c2-7-5-16-21-27-14-10-27-15-37-14l4 119v316H482V207l4-72c0-9-7-18-21-26-14-9-26-13-33-12l2 108v305l52-45h153v158H527v-31c0-8-7-16-21-23-13-6-24-9-33-8l4 105v256m50-271h276v209H527V651m-418-49h205l36 43 43-39c12-10 17-18 13-24-2-6-4-8-8-7H232V414h75l37 51 56-56c6-8 4-15-5-20H232V141l131 92 12-12c-61-53-102-90-121-110-20-20-37-43-53-71l-56 51c11 8 24 18 39 30v268h-67c-20 0-39-3-56-8l-18 33h141v161h-34l-23-6-18 33m155 303c4-2 7-4 7-6 2-6 0-11-7-14-17-4-29-14-37-27-16-34-30-65-43-92h136l39 45 57-57c1-2 2-4 2-6 0-5-2-8-6-7H170c-22-45-44-88-66-129s-52-86-90-135L0 487c35 60 74 138 117 232 41 94 68 167 80 221l67-35Z"/></symbol><symbol id="铟_G" viewBox="0 0 1000 1000" data-size="21"><path transform="matrix(1 0 0 -1 42 958)" d="m402 874 49-37h365l32 41 64-47c2-5 3-8 4-10 1-4-10-14-33-31V147l4-94c0-6-6-13-18-22-10-8-21-13-35-13v72H451V35c0-8-6-16-17-23-10-8-22-12-36-12l4 110v764m49-760h383v698H451V114m16 477h137v193l80-29c4-4 6-9 5-14 0 0-13-7-41-19V591h84l34 41 48-45c2-2 2-5 2-8 1-8-2-12-9-12H648c0-39-3-77-7-113 27-25 52-49 76-72 21-22 38-43 51-65 11-19 17-37 15-52 0-15-4-26-12-34-7-7-16-9-25-5-8 3-14 17-17 39-4 20-15 47-32 80-17 31-37 60-62 88-7-34-16-64-28-90-11-26-30-56-54-90-26-34-53-61-82-80l-10 10c31 34 59 74 86 121 25 47 41 95 47 144 6 48 10 88 11 119h-60c-18 0-39-2-65-7l-13 31m-358-2h178l37 47 41-43c13-10 17-18 14-24-2-6-5-8-8-7H217V419h68l37 51 57-57c6-8 4-14-6-19H217V132l142 97 12-13c-66-55-110-93-133-114-21-24-39-47-52-71l-55 55c12 9 25 17 39 24v284h-70c-21 0-39-3-57-8l-18 33h145v143h-20l-23-6-18 33m139 291c5-2 7-4 8-6 2-6-1-10-8-14-16-4-27-13-35-27-12-29-24-57-37-84h117l39 45 53-57c1-2 2-4 2-6 0-5-2-8-6-7H166c-18-49-39-94-62-135-22-42-52-88-90-139L0 460c35 63 72 142 109 236 36 93 59 166 71 219l68-35Z"/></symbol><symbol id="铠_G" viewBox="0 0 1000 1000" data-size="21"><path transform="matrix(1 0 0 -1 33 960)" d="m625 921 80-27c6-2 9-5 10-10l-6-8-35-14V661h152v182l70-30c6-1 10-3 10-5 2-5 2-8-2-10l-29-16V618c-1-12-6-20-16-25-8-5-19-6-33-4v45H482l-27-30-55 42 28 25v183l80-29c4-2 6-6 6-10 0-3-13-9-37-17V661h148v260m223-608c0-10-6-19-18-27s-23-14-35-15v37H486V105c0-25 6-40 20-44s27-6 41-6h250c21 0 36 2 45 8 7 4 13 11 19 21 4 10 7 23 10 40 1 16 3 50 4 102h21c2-28 3-56 4-84 2-27 13-47 34-60-7-18-16-33-28-47-11-12-39-19-82-23H537c-23-2-45 1-64 8-21 7-32 28-34 60v300l57-45h299v152H508c-24 1-47-2-69-9l-21 37h361l35 37c46-31 68-48 65-51-2-3-5-7-8-10-3-2-12-10-27-21v-90l4-67M115 565h172l33 43 41-39c13-9 17-17 14-23-2-6-5-9-8-8H225V392h78l37 50 56-56c6-8 4-15-5-20H225V110l162 118 11-12c-76-68-127-113-150-136-22-23-40-49-55-80l-58 53c11 11 25 24 41 37v276H92c-20 0-39-2-57-8l-17 34h158v146h-20l-23-6-18 33m139 301c4-2 7-4 8-6 2-6-1-10-8-13-16-5-27-14-35-28-13-37-26-69-39-95h117l39 45 57-57c1-2 2-4 2-6 0-6-2-8-6-8H170c-22-49-44-94-66-135s-52-87-90-138L0 435c35 63 72 143 111 242 39 97 63 172 75 224l68-35Z"/></symbol><symbol id="铡_G" viewBox="0 0 1000 1000" data-size="21"><path transform="matrix(1 0 0 -1 38 971)" d="M100 626h129l29 39 51-51s1-2 2-6c-1-4-2-7-4-7H189V440h63l29 38 45-45c4-2 6-5 6-8 0-7-4-10-12-10H189V155l135 96 12-16c-82-67-129-109-141-124-11-15-24-35-39-58l-51 47c18 15 31 30 40 44v271h-38c-13 0-35-3-66-8l-16 33h120v161h-18l-14-2-13 27m115 260c-12-4-22-14-29-30-8-15-17-39-26-70h84l29 39 51-49c1-2 2-4 2-5 0-5-2-8-8-8H150c-13-41-32-86-54-135-22-48-50-94-84-139L0 499c45 92 80 177 105 254 25 75 44 139 57 189 49-23 74-37 74-41 1-2 1-4 0-7 0-2-7-5-21-8m131 19 49-35h179l35 35 51-41c4-4 6-6 6-8 0-3-10-14-31-31V419l4-76c0-8-7-16-20-24-14-7-26-12-37-13l4 115v424H393V423l3-88c0-9-7-17-21-25-12-6-23-10-33-12l4 115v492m121-156 70-25c8-4 11-9 10-14 0-3-12-10-35-22V493c0-96-6-167-18-213 52-27 91-51 115-70 24-20 41-37 51-53 10-17 13-33 10-48-4-15-12-24-24-27-11-3-20 3-25 16-4 11-13 28-25 49-13 22-27 41-43 59s-37 35-65 53c-17-56-49-104-93-146C350 72 294 34 229 0l-10 12c47 32 92 69 135 110 41 40 70 82 87 125 15 43 24 121 26 234v268m250 59 76-30c4 0 6-3 6-7 0-3-13-10-37-22V388l4-104c-2-8-8-16-18-25-10-8-21-12-35-12l4 141v420m127 125 76-34c2-2 3-5 4-7 0-3-12-10-35-22V90c1-27-6-47-22-61-15-13-32-21-49-25-4 21-15 36-33 45-17 8-45 19-86 31l4 18c43-10 74-16 92-18s31-1 37 2c8 4 12 10 12 20v831Z"/></symbol><symbol id="铢_G" viewBox="0 0 1000 1000" data-size="21"><path transform="matrix(1 0 0 -1 26 962)" d="M107 589h163l29 41 39-37c12-10 17-18 14-24-2-6-5-8-8-7H213V417h78l37 45 57-51c6-8 4-14-6-19H213V163l119 102 14-14c-59-57-98-98-117-125-20-25-34-47-43-67l-61 43c12 7 25 19 41 36v254H92c-20 0-39-3-57-8l-17 33h148v145h-18l-23-6-18 33m375 119h116v217l80-28c4-1 6-4 6-9-3-2-6-4-10-6l-29-12V708h119l35 45 62-55c1-2 2-4 2-8s-2-7-8-7H645V497h169l40 55 58-63c2-2 4-5 6-8 0-7-4-11-12-11H691c17-55 36-102 55-141 18-38 43-73 76-103 31-30 73-52 125-67v-15c-26 0-45-1-56-4-12-4-24-12-37-24-34 30-63 64-88 104-26 37-46 76-61 117-16 40-28 85-37 133h-23V118l3-83c0-8-6-16-19-23-14-8-25-12-35-12l4 116v324c-41-82-86-154-135-216-48-64-111-122-190-177l-9 12c68 59 125 123 170 190 45 66 87 140 125 221H447c-13 0-33-3-58-8l-18 35h227v186H473c-25-62-54-116-86-162l-16 7c45 102 78 205 100 311 47-16 71-27 74-33 1-5-2-8-10-10-7-2-14-7-21-14-6-6-17-31-32-74M240 878c5-2 7-4 8-6 2-6-1-10-8-14-15-4-27-13-35-27-13-34-26-64-39-92h129l39 45 57-56c1-2 2-4 2-6 0-6-2-9-6-8H156c-21-49-43-94-66-135-22-41-47-83-76-125L0 464c27 54 59 129 98 226 38 96 63 170 74 223l68-35Z"/></symbol><symbol id="铣_G" viewBox="0 0 1000 1000" data-size="21"><path transform="matrix(1 0 0 -1 30 966)" d="M480 720h118v213l76-32c4-2 6-4 6-7v-6l-34-16V720h129l38 49 58-59c1-2 2-5 2-8 0-4-3-7-8-8H646V507h170l38 53 62-61c2-3 3-6 4-10 1-6-3-8-10-8H727V134c-1-14 0-25 2-32 1-8 9-12 23-14h92c19 0 30 14 33 42 2 29 4 71 6 127h17c2-55 4-90 8-106 3-15 14-26 31-32-6-23-15-40-25-51s-23-18-41-21H752c-26 0-45 6-57 19-11 13-17 33-17 60v355H564c0-112-7-194-23-244-14-50-42-94-84-132C415 66 357 31 283 0l-8 16c79 45 133 86 163 122 28 35 48 73 60 115 12 41 18 117 18 228h-88c-15 0-35-2-63-7l-19 33h252v187H471c-30-60-58-109-84-146l-14 8c48 112 82 212 102 300 48-23 74-37 76-41 0-3-1-6-4-7-2-2-8-5-18-8-9-3-17-11-23-22s-14-31-26-58M104 589h162l33 43 53-57s1-2 2-6c-1-4-2-7-4-7H225V415h74l31 43 55-51c2 0 3-2 4-6 0-7-4-11-12-11H225V167l140 111 14-13C273 169 211 98 193 51l-56 45c19 13 33 30 41 50v244h-74c-14 0-36-3-67-8l-16 33h157v147h-32l-19-6-23 33m150 303c5-3 8-6 8-8 0-5-4-9-12-14-18-4-31-17-41-37l-35-78h121l37 51 59-61c0-2 1-4 2-6 0-4-3-7-8-8H162c-23-48-47-94-72-136-26-43-52-80-78-112l-12 8c42 77 79 156 113 237 33 80 56 147 69 201l72-37Z"/></symbol></svg>