<svg xmlns="http://www.w3.org/2000/svg"><symbol id="闺_G" viewBox="0 0 1000 1000" data-size="21"><path transform="matrix(1 0 0 -1 94 967)" d="M168 649h186v139l72-29c4-3 7-6 8-10l-6-6-24-10v-84h96l33 47 55-52c2-2 3-5 4-8 0-8-4-12-12-12H404V513h157l35 43 50-51c2-2 4-4 4-6 0-8-4-12-11-12H184c-14 0-32-2-55-8l-16 34h241v111H244c-21 0-40-3-55-8l-21 33m2-283h182v110l78-30c4-2 5-6 2-9 0-1-2-2-6-4l-24-14v-53h112l33 43 47-49c2-2 3-4 4-7 0-8-4-12-12-12H402V196h176l33 45 53-53c2-1 3-3 4-5 0-8-4-12-12-12H162c-14 0-32-3-55-8l-15 33h260v145H246c-14 0-32-3-55-8l-21 33M4 829l74-37c4-2 6-4 6-6l-4-8-27-17V157l4-87c0-9-6-18-18-27C29 33 16 27 0 25l4 146v658m744 49 57-45c4-3 7-6 8-10 0-4-4-8-12-13l-24-18V104c1-26-5-47-17-65-13-17-35-30-69-39-2 16-11 28-29 37-16 10-47 24-92 41l2 16c60-14 96-21 108-22 11 0 22 3 33 8 9 5 14 14 14 27v706H367c-12 0-30-2-54-7l-24 35h428l31 37M80 935c56-32 93-56 109-73 17-15 26-32 28-49s-1-29-8-37c-8-6-16-9-25-9-11 0-18 9-22 27s-12 34-21 51c-9 16-32 42-69 78l8 12Z"/></symbol><symbol id="闻_G" viewBox="0 0 1000 1000" data-size="21"><path transform="matrix(1 0 0 -1 100 959)" d="M107 685h456l37 50 62-56c2-2 3-5 4-8 0-8-4-12-12-12H527V296l59 8 33 52 59-46c10-9 10-15 0-20l-151-18v-87l4-87c0-10-6-20-19-30-12-9-24-13-35-13l3 122v92l-343-38c-12 0-22-3-30-9l-17 29 137 14v394h-51c-14 0-32-2-55-8l-14 34m166-414 207 21v100H273V271m0 146h207v113H273V417m0 139h207v103H273V556M4 778l80-35c2-2 4-4 6-8 0-4-2-7-6-9l-31-18V128l4-85c-1-8-8-16-22-23C21 12 10 8 0 8l4 114v656m732 100 59-49c4-4 6-8 6-12 0-2-11-11-31-25V104c0-21-3-41-10-61-8-17-30-31-67-43-7 20-18 35-33 47-15 10-42 21-80 31l2 18c57-12 96-18 117-18 14 1 21 9 22 22v712H355c-11 0-29-3-54-8l-22 33h420l37 41M45 919c46-20 81-39 103-59 21-19 34-37 38-52 2-17-1-29-8-37-7-10-15-14-26-12-9-1-16 8-21 25s-14 35-27 55c-14 19-36 42-69 68l10 12Z"/></symbol><symbol id="闼_G" viewBox="0 0 1000 1000" data-size="21"><path transform="matrix(1 0 0 -1 96 964)" d="m76 917 10 12c53-27 86-48 100-63 13-13 22-28 27-43 2-13 1-26-6-37-8-12-18-17-29-15-12 0-20 9-24 27-3 17-8 33-15 47-7 13-28 37-63 72m76-162c26-15 47-30 63-45 15-16 25-29 31-41s8-23 6-35c-1-11-5-20-14-28-8-5-16-7-25-5s-14 11-16 27c0 15-4 31-9 49-5 15-20 38-45 68l9 10M86 517h98l35 41 54-39c6-5 8-10 8-14 0-1-12-11-37-27V269c29-28 53-45 72-53 18-9 47-15 86-20h174l129 16v-18c-16 0-30-4-43-9-14-4-26-16-37-36H426c-56 6-93 15-113 28s-40 29-59 49c-18 19-32 26-43 21-12-6-22-16-31-31-8-16-20-38-35-67l-53 39c26 22 62 51 107 86v217h-53c-17 0-31-2-41-6l-19 32m428 224c0-2 1-5 2-8 0-1-12-8-36-21V601h81l35 45 58-51c2 0 4-3 6-8 2-8 0-12-8-12H479c0-80-14-145-41-195s-73-96-139-139l-12 16c53 45 89 87 109 127 18 39 30 103 36 191h-71c-13 0-35-2-66-8l-16 34h151v173l84-33m-39-285 7 12c56-30 96-56 120-78 22-22 37-41 43-57 3-16 3-31-2-43-5-13-13-19-26-18-12 0-20 8-25 24s-13 35-26 58c-12 23-43 57-91 102m261 426 65-47c5-2 8-6 8-12 0-4-4-8-12-11l-24-20V105c3-25-2-46-15-64-12-16-36-29-72-41-9 17-19 30-32 39-11 8-45 22-101 41l4 20c60-12 99-19 115-22 15 0 27 3 37 8 8 4 13 14 14 27v702H336c-12 0-30-2-55-7l-21 33h445l31 41M4 819l78-43c5-2 8-4 8-5 0-3-1-6-4-10l-29-18V149l4-100c0-10-8-19-24-28C21 13 9 8 0 8l4 136v675Z"/></symbol><symbol id="闽_G" viewBox="0 0 1000 1000" data-size="21"><path transform="matrix(1 0 0 -1 95 961)" d="M230 620h131v156l73-29c5-1 7-3 7-4 2-3 2-6-2-10l-31-15v-98h119l30 35 56-45c2-4 4-6 4-7 0-4-10-11-29-22V460l4-53c0-10-5-18-16-25-10-8-21-13-35-14v41H408V237l153 8c-24 27-48 51-73 72l8 12c37-18 68-38 94-60 25-22 41-41 49-59 7-18 11-31 9-41 0-10-3-19-9-25-4-6-12-9-24-8-11 0-18 8-19 23-2 16-11 39-26 70-226-25-349-41-369-46-17-5-35-12-53-22l-35 57 248 15v176H229v-43c0-6-4-13-12-19-8-7-20-10-37-10l4 113v205l46-35m-1-187h132v164H229V433m179 164V433h133v164H408M4 794l74-37c5-2 7-4 8-6 3-3 1-7-4-10l-31-17V159l4-104c0-9-7-19-22-28C19 18 8 14 0 14l4 143v637m742 92 57-43c4-3 7-6 8-10 0-4-5-8-14-14l-24-17V102c0-26-6-47-19-65-14-15-35-27-63-37-3 21-14 36-31 43-15 6-49 18-101 35l2 16c59-10 97-16 113-18 14-2 27 0 37 6 9 4 14 12 14 25v714H344c-13 0-31-2-55-8l-23 34h449l31 39M80 923c55-34 91-60 109-78 18-19 27-37 28-55 0-18-3-30-10-37-8-7-16-9-25-8s-15 11-20 31c-4 20-12 37-21 53-11 16-34 43-69 82l8 12Z"/></symbol><symbol id="闾_G" viewBox="0 0 1000 1000" data-size="21"><path transform="matrix(1 0 0 -1 99 956)" d="m70 899 10 12c50-22 84-41 102-57 17-15 27-31 31-46 2-15 1-28-6-39-8-13-18-18-29-16-13 0-21 9-26 27-3 18-8 33-15 47-8 14-30 39-67 72m153-170 56-39h205l28 38 54-40c8-3 12-8 12-13-1-3-10-10-27-22v-76l4-74c0-9-5-16-16-22-10-5-23-9-39-11v37H273v-18c0-8-6-15-19-21-14-7-25-10-35-10l4 100v171m50-195h227v129H273V534m-85-97 56-40h276l29 38 55-39c7-4 11-9 11-14 0-3-10-10-27-22v-99l4-82c0-9-5-16-16-22-10-6-23-10-39-11v50H238v-35c0-8-6-15-19-21-14-7-26-10-35-10l4 115v192m50-213h299v146H238V224m492 664 65-47c5-2 8-6 8-12 0-4-4-8-12-12l-23-19V105c2-24-4-45-18-62-14-15-37-29-70-43-9 17-19 30-32 39-11 10-43 24-93 41l4 20c55-12 91-19 107-22 15 0 27 3 37 8 9 4 13 13 14 26v709H332c-12 0-30-2-55-8l-21 34h443l31 41M4 798l78-43c5-2 8-4 8-6 0-3-1-6-4-10l-29-17V144l4-101c0-10-8-19-24-27C21 7 9 3 0 2l4 136v660Z"/></symbol><symbol id="闿_G" viewBox="0 0 1000 1000" data-size="21"><path transform="matrix(1 0 0 -1 87 970)" d="m4 823 76-27c10-5 13-10 8-16l-33-15V146l4-105c0-10-8-19-24-27C21 5 10 1 0 0l4 140v683m754 84 60-43c6-2 8-6 8-11 1-4-10-15-33-32V104c2-26-2-47-12-65-10-16-31-29-64-37-3 18-13 31-28 39-14 8-46 21-97 37l4 20c49-11 81-18 97-20 15-2 28 0 37 6 9 5 13 14 14 27v730H354c-12 0-30-3-55-8l-22 35h450l31 39M59 940c63-25 105-47 125-66 17-18 26-34 27-49 0-15-4-26-12-33s-16-9-25-8c-10 1-18 10-24 26-5 13-12 29-21 46-10 15-36 40-78 73l8 11m312-148c50-16 77-27 80-31s4-7 2-8c-2-2-14-8-33-18V589h129v137c50-20 76-32 78-36 2-3 1-6-2-9-3-2-12-7-27-14v-61l4-44c0-10-6-18-18-24s-23-10-35-10v35H240l-25-31-55 41c17 13 26 24 26 31v129l74-29c4-3 6-6 6-10 0-3-11-10-32-21v-84h137v203m229-479c0-10-6-19-18-27s-23-14-35-15v50H234V214c0-26 4-41 12-45s19-6 33-6h268c21-1 36 2 45 8 7 4 13 11 19 21 4 10 7 24 10 41 2 16 4 47 6 92h21c2-21 3-47 4-78 2-29 13-51 34-64-8-16-18-30-30-41-11-12-38-20-80-24H268c-31 0-52 6-63 18-10 9-16 29-17 60v188l48-35h311v107H244c-24 1-47-3-68-10l-22 37h389l31 32c41-30 60-46 57-49-2-3-4-7-6-10s-12-10-29-21v-75l4-47Z"/></symbol><symbol id="阀_G" viewBox="0 0 1000 1000" data-size="21"><path transform="matrix(1 0 0 -1 105 960)" d="m4 794 84-35c6-3 8-6 6-10 0-4-1-6-4-8l-35-17V146l4-91c0-11-6-22-18-32C27 16 14 10 0 8l4 139v647m726 100 53-47c4-4 6-8 6-12s-4-9-14-14l-19-13V96c2-26-5-47-22-63-15-15-35-26-60-33-8 20-18 33-29 41s-40 20-86 33l4 14c54-10 89-16 105-18 15 0 25 2 31 6 5 4 7 13 8 26v723H344c-12 0-30-2-55-8l-21 34h423l39 43M88 921c55-33 89-59 103-76 15-17 21-32 20-45-1-14-4-24-10-29-6-7-13-10-23-10-11 0-18 9-22 27-2 16-8 33-17 49-8 16-28 40-61 74l10 10m221-215c5-4 7-6 4-6 0-4-3-8-10-10-16-2-30-10-41-25-18-35-40-77-67-125l47-19c15-5 19-10 14-14 1-4-9-10-27-18V239l5-80c0-10-5-19-17-27-11-9-24-14-39-16l6 127v279c-34-54-71-104-110-148l-11 10c48 74 87 142 115 205 26 60 47 113 62 158l69-41m74-166v211c51-20 77-31 80-33 2-3 3-6 2-10-2-2-14-8-37-18V546l160 23 21 45c39-26 59-40 61-43 1-2 1-5 0-8-2-1-5-3-8-5l-230-36c3-36 6-65 9-85 4-22 11-45 22-71 32 43 58 86 78 129 41-24 62-38 63-43 0-4-2-6-6-8-4 0-11-2-20-6-8-2-19-13-33-31s-35-44-65-78c20-29 39-51 57-64 17-14 31-26 43-36 12-8 20-11 24-7 3 4 6 15 9 35 2 19 6 49 12 92l18-2c0-45-1-76-2-94s0-33 4-43c1-9 5-18 11-27 6-10 9-17 10-20 0-3-2-5-6-8-2-2-10-3-21-2-12 0-26 4-41 12-15 7-37 22-67 45-30 21-58 51-84 88-49-49-105-90-170-123l-6 13c55 40 107 88 157 145-12 27-20 53-26 76-5 21-10 57-15 108l-43-8c-15-6-24-11-28-14l-29 29 96 16m97 193 6 12c27-14 50-26 69-37 17-12 29-25 35-39 4-14 4-25 0-35-5-10-12-15-22-14-9 0-17 6-23 18-4 11-9 23-14 37-4 12-21 31-51 58Z"/></symbol><symbol id="阁_G" viewBox="0 0 1000 1000" data-size="21"><path transform="matrix(1 0 0 -1 92 974)" d="m246 401 53-21h199l25 29 53-33c8-5 12-9 12-14 0-4-10-13-29-29V224l5-67c0-8-4-15-13-23-8-9-22-14-41-17v48H295v-14c1-7-3-16-12-25-8-7-23-11-43-13l4 101v187h2m49-213h215v168H295V188m10 485c13-38 48-80 103-127 37 31 76 73 115 127H305m70 99c6-3 8-7 6-11-2-3-7-5-14-8-6-2-13-7-21-14-9-6-21-20-37-43h207l29 33 57-50c4-4 6-7 5-8 3-4-2-8-15-12s-21-8-26-13c-3-5-15-18-35-40-19-20-49-48-92-85 31-21 63-37 96-49s61-20 84-24c24-4 52-7 86-8v-15c-24-4-42-8-55-12-11-3-22-12-33-27-31 11-66 27-105 49-39 18-73 39-104 60-39-27-84-51-135-74-50-22-112-44-185-67l-6 16c56 22 107 44 154 67 47 21 94 50 143 85-40 45-72 90-96 135-30-43-68-90-115-138l-12 9c35 49 65 95 90 139 24 43 45 87 65 133l64-28M6 813l84-33c6-4 7-9 4-13-4-5-17-11-37-20V130l4-85c1-9-6-18-22-27C24 10 11 5 0 2l6 136v675m742 81 61-47c4-2 7-6 7-12 0-4-4-8-13-12l-22-19V100c2-25-4-46-19-63-15-16-35-29-63-37-8 21-19 36-33 43-13 7-46 18-98 33l2 18c63-12 101-18 116-18 13 0 24 1 33 6 6 4 9 12 10 25v722H355c-12 0-30-3-54-8l-24 33h440l31 40M76 948c58-32 96-56 113-74 17-16 26-33 28-49s-1-28-8-37c-7-8-16-12-27-10-10 2-18 12-24 30-4 17-11 33-19 50-8 15-32 41-71 79l8 11Z"/></symbol><symbol id="阂_G" viewBox="0 0 1000 1000" data-size="21"><path transform="matrix(1 0 0 -1 94 956)" d="M385 587c6-2 8-6 6-12 0 0-3-2-8-4-9 0-17-2-26-8-7-5-23-20-46-42-22-22-47-49-77-83l180 14c29 35 54 70 74 108 47-25 70-39 69-43-2-4-5-7-10-8-4-1-12-3-24-8-10-4-25-18-44-41-20-24-45-53-77-86-31-34-68-66-111-98-44-31-102-64-174-99l-8 13c53 30 103 64 151 104 47 38 94 83 140 137-53-6-93-12-121-18-27-4-52-15-76-31l-35 56c23 6 39 11 47 16s25 28 53 68c27 41 48 73 62 98l55-33m181 62 38 45 54-50c4-2 6-4 6-6 2-8-3-12-14-12H205c-12 0-33-3-62-8l-20 31h443M326 778l8 10c35-19 60-34 74-43 14-10 23-21 28-33 3-11 3-22-2-33-6-11-15-15-28-14-12 2-19 10-21 23-2 14-8 28-18 41-8 14-21 30-41 49m147-500c33-15 64-30 93-43s49-29 61-47c10-16 13-31 10-44-2-15-10-22-24-22-11-1-21 8-29 25s-21 36-39 55c-18 18-47 39-88 63-47-41-98-79-154-114-56-32-112-58-168-77l-4 14c63 30 122 65 178 104 54 39 99 79 136 120 37 39 75 83 112 132 41-30 61-47 60-50-2-5-4-8-8-8s-9-1-17-4c-7-3-14-6-22-10-7-3-20-14-37-33-17-18-38-38-60-61M4 812l80-40c5-1 8-3 8-5 2-3 2-6 0-8l-37-20V147l4-98c-2-9-9-18-20-26C29 16 16 11 0 8l4 143v661m738 70 63-47c5-2 8-6 8-12 0-3-5-6-14-10l-20-15V100c3-25-4-46-21-63-16-17-37-29-65-37-8 20-17 35-27 43-8 8-43 20-105 35l3 18c68-13 108-19 120-20 11 0 21 3 31 8s15 13 15 26v702H359c-11 0-30-3-54-8l-22 33h430l29 45M86 911c62-32 102-56 119-72 18-16 27-30 27-43 0-14-3-24-9-31-7-8-15-11-26-8-9 1-16 10-21 27-5 16-13 31-22 45s-35 37-76 70l8 12Z"/></symbol><symbol id="阃_G" viewBox="0 0 1000 1000" data-size="21"><path transform="matrix(1 0 0 -1 96 963)" d="m55 915 9 12c54-19 90-36 108-51 17-15 27-30 31-45 3-15 1-28-6-39-8-12-17-18-29-16-12 0-20 8-23 26-4 17-11 33-22 49-10 15-33 37-68 64m121-162 54-39h315l35 37 49-39c8-4 12-9 12-14 0-2-10-11-30-25V280l4-109c1-9-4-16-15-22-10-5-23-9-37-11v47H225v-36c0-8-7-15-20-21-13-7-24-10-33-10l4 147v488m49-541h338v475H225V212m11 342h135v127l67-26c5-2 9-4 9-6 1-5-1-9-6-11l-23-10v-74h41l33 39 51-47c2-2 3-4 4-6 0-8-3-12-8-12H418v-68c45-20 74-35 88-47s23-23 27-35c5-10 5-20 2-31-4-11-12-16-21-16-10 0-18 6-24 18-6 13-13 27-23 41-8 13-24 29-49 47v-84l4-71c0-8-7-17-20-25-11-9-23-13-35-14l4 106v103c-43-78-86-135-131-170l-10 10c27 37 51 76 73 115 21 37 40 78 56 121h-56c-13 0-29-2-49-7l-18 33m500 334 65-47c5-2 8-6 8-12 0-4-4-8-12-12l-24-19V102c3-25-2-46-15-63S724 9 695 0c-8 18-19 30-31 37-12 8-41 22-88 41l6 18c51-12 84-19 100-22 15 0 25 3 31 8s9 13 10 26v713H344c-12 0-30-2-55-8l-21 34h437l31 41M4 790l78-43c5-2 8-4 8-6s-1-6-4-10l-29-17V142l4-101c0-10-8-19-24-27C21 5 9 1 0 0l4 136v654Z"/></symbol><symbol id="阄_G" viewBox="0 0 1000 1000" data-size="21"><path transform="matrix(1 0 0 -1 97 969)" d="m72 927 10 11c56-29 92-51 107-66 16-14 25-29 28-45 2-15 0-28-6-39-8-12-18-17-29-16-12 0-20 10-24 28-4 17-10 33-17 49-8 14-30 40-69 78m160-584h122v95H232v-95m168 95v-95h127v95H400m-168 26h122v99H232v-99m168 99v-99h127v99H400m-29 28 68 103H283c-23-29-53-59-88-90s-68-56-99-76l-10 14c49 42 91 86 127 131 35 42 64 86 88 131 41-24 62-37 64-41s-2-7-10-10c-7-3-13-4-17-4s-16-10-37-29h146l26 25c36-31 54-49 54-53 1-4 0-6-4-7-2-1-8-2-19-4-10-2-24-10-43-24-18-13-37-36-59-66h110l29 31 55-35c5-5 8-8 8-10l-6-6c-4-4-11-9-22-17V380l4-72c0-8-6-15-17-22-10-8-22-12-36-14v45H400V208c2-20 20-31 53-33h100c30 1 48 10 54 27 7 17 11 35 14 55 1 17 2 39 2 64h22c0-33 1-61 3-84 2-21 10-36 24-43-5-15-13-29-26-41-11-11-37-18-76-21H441c-30 2-50 9-62 19s-21 26-25 47v119H232v-23c-3-9-10-16-21-22-10-4-21-7-31-7l4 113v213h187M4 808l78-43c5-2 8-4 8-6 0-3-1-6-4-10l-29-18V161l4-100c0-10-8-19-24-28C21 25 9 20 0 20l4 135v653m730 93 65-47c5-1 8-5 8-11 0-4-4-8-12-12l-24-19V104c3-25-2-46-15-63-13-16-34-29-63-41-8 17-19 30-31 39-12 8-43 22-94 41l6 18c55-12 90-19 106-22 15 0 25 3 31 8s9 15 10 31v720H342c-12 0-30-3-55-8l-21 33h437l31 41Z"/></symbol><symbol id="阅_G" viewBox="0 0 1000 1000" data-size="21"><path transform="matrix(1 0 0 -1 98 970)" d="m188 649 50-39h176c24 45 50 106 80 182 46-20 70-31 72-35 2-2 2-5 0-8-2-2-8-5-19-8-10-2-24-14-41-37-16-23-39-55-67-94h84l28 37 60-43c4-2 6-5 6-7 0-4-10-13-29-26v-93l4-59c0-7-5-14-16-22-10-5-22-9-37-11v37h-72V253c0-29 4-47 12-53 7-6 18-8 33-8h66c14 2 24 8 29 16 4 9 8 20 10 33 2 12 4 45 6 100h16c4-48 7-78 9-90s12-23 28-35c-10-27-22-44-37-51-14-6-34-10-59-14h-94c-22 2-39 9-50 22-11 10-16 30-16 62v188h-78c1-80-14-145-45-194-30-46-99-92-207-135l-6 15c100 56 161 108 184 158 21 48 31 100 29 156h-63v-24c1-8-4-17-15-25-12-8-24-12-35-12l4 114v173m46-199h305v135H234V450m-7 324 7 12c39-19 68-38 86-55 18-16 28-32 30-48 0-15-3-26-10-34-6-6-14-9-24-7-7 2-13 9-17 23-3 14-9 29-16 45-6 14-25 35-56 64M4 790l78-35c1-2 1-4 2-6 0-3-2-6-6-10l-25-13V157l4-98c0-8-8-17-24-28C19 23 8 18 0 18l4 139v633m738 119 55-43c4-2 7-6 8-12 0-3-5-7-14-11l-18-16V104c1-25-3-45-11-61-8-15-30-29-67-43-9 22-22 37-39 45-15 8-43 18-84 29l4 20c46-10 78-16 96-18 17 0 30 1 39 6 8 4 12 12 12 25v734H350c-13 0-31-3-55-8l-24 35h434l37 41M66 940c56-25 93-46 110-64s25-34 25-49c1-15-2-28-10-37-5-8-14-12-25-10-12 2-20 12-23 30-4 16-11 33-22 50-10 16-31 39-62 69l7 11Z"/></symbol><symbol id="阆_G" viewBox="0 0 1000 1000" data-size="21"><path transform="matrix(1 0 0 -1 96 955)" d="m61 897 9 12c53-27 86-47 100-62 14-14 23-28 27-43 3-14 1-26-6-37-7-13-17-18-29-16-12 0-19 9-23 27s-9 34-16 47-28 37-62 72m460-201 55-37c8-4 12-8 12-13-1-4-10-12-27-24V507l3-65c2-9-3-19-15-29-13-8-26-12-39-14v24H262V183l150 89 10-15c-54-40-93-70-119-92s-48-45-67-69l-54 48 31 25v531l53-41h226l29 37m-259-62v-78h248v78H262m0-106v-78h248v78H262m52 264c43-14 73-29 88-47 17-16 24-32 20-49-5-16-14-24-27-25-14 0-23 6-26 17-2 12-6 25-14 40-5 13-22 31-48 54l7 10m2-443 6 15c57-15 105-33 145-52 53 37 96 70 129 99l49-43c1-8 1-12-2-12-5-1-11-1-20 0-8 2-22-2-43-9s-51-22-88-45c50-24 85-44 108-61 21-17 35-34 41-49 5-15 5-28 0-39-4-10-12-15-24-15-11 0-20 8-27 23-8 14-22 31-41 51-20 19-46 39-78 60-32 20-84 45-155 77M4 804l78-43c5-2 8-4 8-6 0-3-1-6-4-10l-29-17V146l4-101c0-10-8-20-24-29C21 9 9 5 0 4l4 136v664m734 84 63-47c5-2 8-6 8-12 0-4-4-8-12-12l-22-15V104c2-25-4-46-17-63-14-16-33-30-59-41-8 16-19 29-31 39-11 9-42 22-92 39l6 18c51-11 85-18 102-20 15 0 25 3 31 8s9 15 10 30v707H324c-11 0-30-2-54-8l-22 34h459l31 41Z"/></symbol><symbol id="阇_G" viewBox="0 0 1000 1000" data-size="21"><path transform="matrix(1 0 0 -1 87 973)" d="M191 685h143v123l78-28c6-2 8-6 6-11 0-1-2-2-6-4l-29-12v-68h39l31 43 57-49c1-2 2-5 2-8 0-7-3-10-10-10H383V550h45c64 65 111 130 140 195l69-41c4-6 4-10 0-12-6 0-13-1-20-2-8 0-23-15-47-43-22-28-49-60-80-97h94l35 41 59-51c1-1 2-3 4-4 0-8-3-12-10-12H465c-41-39-79-72-115-99h152l39 37 57-43c2-3 3-5 4-8 0-4-10-12-30-25V165l4-58c0-5-6-13-15-21s-21-13-38-16v56H281v-26c0-9-6-17-19-26-13-8-24-13-33-13l3 98v176c-58-43-110-72-154-88l-6 14c52 31 105 70 160 117v78l53-31c55 41 94 74 117 99H197c-12 0-34-2-66-7l-16 33h219v111h-84c-12 0-25-2-41-8l-18 32m90-534h242v118H281V151m0 143h242v107H316l-35-25v-82M4 829l76-27c10-5 13-10 8-16l-33-15V151l4-104c0-10-8-19-24-27C21 11 10 7 0 6l4 140v683m754 84 60-43c6-2 8-6 8-12 1-4-10-14-33-31V102c2-26-2-47-12-65-10-16-31-29-64-37-3 18-13 31-28 39-14 8-44 20-91 35l4 20c44-10 75-16 91-18 15-2 28 0 37 6 9 5 13 14 14 27v738H330c-12 0-30-3-55-8l-21 35h473l31 39M59 946c63-25 105-47 125-66 17-18 26-34 27-49 0-15-4-26-12-33s-16-9-25-8c-10 1-18 10-24 25-5 14-12 30-21 47-10 15-36 39-78 73l8 11Z"/></symbol><symbol id="阈_G" viewBox="0 0 1000 1000" data-size="21"><path transform="matrix(1 0 0 -1 94 963)" d="m84 915 10 12c52-28 86-50 101-67 14-15 23-31 28-47 2-14-1-28-8-39-8-12-18-17-29-15-12 0-19 9-22 27-4 17-10 34-18 51-7 17-28 43-62 78m68-342 51-33h100l27 31 43-39c5-2 7-6 8-11 0-4-8-10-24-18v-86l4-57c1-7-4-15-15-23-11-9-22-13-33-14v35H197v-23c0-9-4-16-13-22-8-4-20-7-36-9l4 115v154m45-189h116v131H197V384M90 222l306 52 4-19c-101-26-166-43-195-51-28-8-55-21-80-41l-35 59m556 472 59-58c1-2 2-5 2-8 3-4 1-6-6-6H475c2-49 5-92 11-131 6-37 14-76 26-117 34 69 58 132 72 189 45-22 68-35 70-39s0-7-4-9c-4-1-11-4-19-8-9-3-19-18-31-45-12-26-36-70-71-133 14-30 28-53 41-68 14-16 26-28 35-37 10-9 16-11 20-8 4 4 8 13 12 29 2 16 8 51 17 106l20-2c-5-50-7-85-8-104 0-18 1-33 4-45s7-23 14-35c5-12 9-19 9-23s-3-7-7-8c-4-3-18 0-41 8-22 7-47 25-77 54-28 28-50 58-66 92-41-59-108-117-201-176l-10 12c99 80 162 148 189 205-15 40-27 83-35 127-7 44-13 100-17 166H188c-28 1-48-3-61-10l-23 35h320v145l76-37c7-4 7-9 0-14l-29-12v-82h140l35 47m-132 88 6 12c32-12 56-24 72-37 13-14 21-26 23-37 0-11-2-20-8-28-6-6-13-9-21-7-8 1-14 8-18 21-4 11-9 23-17 37-8 12-20 25-37 39M4 796l78-43c5-2 8-4 8-6 0-3-1-6-4-10l-31-17V146l4-101c0-10-8-19-24-27C21 9 10 5 0 4l4 136v656m736 88 65-47c5-2 8-6 8-12 0-4-4-8-12-12l-24-19V104c3-25-2-46-15-63-14-16-33-30-59-41-8 17-19 30-31 39-12 8-43 22-94 41l6 18c51-12 85-19 102-22 15 0 26 3 33 8 6 5 9 15 10 30v703H361c-11 0-30-2-54-7l-22 33h424l31 41Z"/></symbol><symbol id="阉_G" viewBox="0 0 1000 1000" data-size="21"><path transform="matrix(1 0 0 -1 98 960)" d="M713 474c-22-2-37-6-47-12-10-5-18-12-23-22-35 19-64 39-86 61V345l4-63c0-8-5-15-16-21-10-5-20-9-31-10v37H393v-94c1-14 6-22 15-25 8-3 22-4 41-4h125c17 2 28 14 33 35 4 21 8 56 10 104h16c2-30 5-55 8-75 2-19 9-35 23-46-8-21-19-35-33-43-12-8-29-13-53-16H422c-24 0-42 5-55 16-14 9-21 27-21 52v96H227v-19c0-6-6-12-18-18-10-7-20-10-29-10l4 104v154c-34-26-71-51-112-74l-8 13c41 30 81 65 122 106 39 40 70 78 93 113h-95c-14 0-34-2-61-8l-21 32h191c20 39 36 76 49 111 46-20 70-31 72-35s1-8-2-12c-4-2-12-4-23-8-12-3-28-22-47-56h226l32 45 60-49c2-2 3-5 4-8 0-8-4-12-12-12H461c19-38 43-68 72-92 27-24 55-42 84-54 29-13 61-19 96-20v-17M227 313h119v75H227v-75m166 75v-75h121v75H393m-166 23h119v78H227v-78m166 78v-78h121v78H393m-47 24v88l68-22c5 0 8-2 8-6 2-2 1-6-2-10l-27-13v-37h146c-47 46-81 94-101 144H326c-28-43-64-86-109-129l8-15h121M4 815l82-35c1-2 1-4 2-6 0-2-2-5-6-9l-31-18V146l4-99c0-9-7-17-22-26C20 13 9 8 0 8l4 126v681m736 67 57-47c5-2 8-6 8-12 0-4-5-8-14-11l-23-18V100c2-28-5-49-20-65-14-15-35-27-62-35-10 18-21 31-32 39-12 7-41 18-86 33l2 18c54-12 88-18 102-18s25 3 35 8c9 5 14 14 14 27v710H367c-12 0-30-2-54-7l-24 33h420l31 39M84 921c52-27 87-49 104-65 16-16 26-32 27-48 0-16-3-28-8-36-6-8-14-11-23-9-11 1-18 10-22 27-3 15-10 31-21 49-10 17-32 41-65 70l8 12Z"/></symbol><symbol id="阊_G" viewBox="0 0 1000 1000" data-size="21"><path transform="matrix(1 0 0 -1 104 968)" d="m61 925 9 12c54-26 88-45 102-59s23-27 27-41c3-12 1-25-6-37-6-13-15-18-27-16-12 0-20 8-23 26-4 17-10 33-18 46s-29 36-64 69m146-160 53-37h232l33 37 55-41c5-4 7-7 8-8 0-4-10-16-29-35V581l4-59c-1-11-6-21-16-29-8-8-22-12-41-14v38H258v-12c-1-9-7-16-20-22-11-5-23-8-35-7l4 101v188m51-221h248v60H258v-60m0 88h248v68H258v-68m-88-154 59-40h291l31 36 54-45c4-4 6-7 4-8 0-5-8-12-25-22V257l4-84c-1-9-6-17-16-26-8-7-21-12-41-13v47H221v-14c0-14-7-25-20-33-12-7-23-10-35-10l4 127v227m51-270h310v90H221v-90m0 117h310v86H221v-86M4 802l80-43c5-2 8-4 8-6 0-3-1-6-4-10l-31-17V147l4-100c0-10-8-19-24-27C21 11 9 7 0 6l4 136v660m715 101 64-47c5-2 8-5 8-11 1-4-3-8-10-12l-23-20V105c2-25-4-46-18-64-13-16-34-29-60-41-9 18-19 31-32 39-12 10-43 24-91 41l6 18c51-13 85-19 101-20 15 0 26 3 33 8 6 4 9 15 10 31v720H322c-11 0-30-3-54-8l-22 33h442l31 41Z"/></symbol><symbol id="阋_G" viewBox="0 0 1000 1000" data-size="21"><path transform="matrix(1 0 0 -1 97 973)" d="m74 935 10 11c50-31 84-56 102-76 16-17 27-34 31-49 2-14 0-27-6-39-8-13-18-19-29-17-12 0-20 9-24 29-4 18-10 35-19 53-8 17-30 47-65 88m244-217c-9-5-35-18-78-39v-98h45l33 41 49-51c1-2 2-4 2-6 1-5-1-8-4-7H240V450h295v108h-53c-15-1-31-4-46-10l-24 35h123v105h-72c-14 0-28-3-43-9l-24 35h129l30 37 54-43c4-5 6-8 6-10 0-4-10-13-31-25V499l4-86c0-10-7-17-20-23s-24-9-33-8v45h-78V220c-1-16 2-26 8-30 6-3 15-5 29-5h67c21 0 35 5 41 17 3 9 7 24 9 43 3 19 6 53 8 102h18l6-63c1-21 3-37 7-47 3-10 11-19 26-27-6-12-13-22-20-31-5-7-12-15-21-22-8-6-24-10-47-13H461c-20 3-33 11-41 23-7 10-10 25-10 45v215h-68c-5-49-14-93-28-131-13-39-39-76-78-111-37-34-88-61-150-81l-6 15c50 22 91 51 125 87 34 35 56 68 66 100 10 30 18 71 24 121h-55v-22c1-9-5-18-17-25-12-8-24-12-35-12l3 117v250l51-29c29 23 55 46 76 68 37-22 55-35 55-39-1-4-2-6-4-7-2 0-8-1-19-2-12 0-23-3-32-8M4 825l78-43c5-2 8-4 8-6s-1-5-4-9l-31-18V149l4-100c0-10-8-19-24-28C21 13 10 8 0 8l4 136v681m730 80 65-47c5-2 8-5 8-11 0-4-3-8-10-12l-24-20V105c2-25-3-46-17-64-14-16-34-29-61-41-8 18-19 31-31 39-12 10-44 22-96 37l6 18c55-10 90-15 106-16 15 0 26 3 33 8 6 4 9 15 10 31v722H340c-12 0-30-3-55-8l-21 33h439l31 41Z"/></symbol><symbol id="阌_G" viewBox="0 0 1000 1000" data-size="21"><path transform="matrix(1 0 0 -1 95 966)" d="m80 921 10 12c56-28 92-49 107-65 16-15 25-31 28-47 2-13 0-26-6-37-8-12-18-17-30-15-11 0-19 9-23 27-4 17-10 33-18 49-7 13-30 39-68 76m524-399 27 30 49-45c4-2 6-6 6-12 0-4-5-6-14-6-10 0-24-8-41-21-18-13-35-30-53-51l-15 8 42 72H189c-2-35-7-60-15-76-9-14-19-24-31-27-12-4-22-3-30 3s-10 13-8 22 8 18 18 25c7 8 16 20 25 35 8 16 14 45 18 88h18l4-45h275c23 40 49 92 78 157 41-20 63-32 64-35 2-4 0-7-3-8-4-2-9-4-16-6-7-1-18-10-33-27-15-19-36-45-63-81h114M203 659l10 8c30-20 51-37 60-51 10-12 14-23 14-35 1-12-2-21-10-29-6-9-13-12-23-10-11 2-16 10-16 23 0 14-2 26-4 36-2 9-12 29-31 58m141 6 10 8c30-20 50-37 60-51 9-12 14-23 14-35s-3-22-10-29c-6-9-14-12-23-10-11 2-16 10-16 23-1 14-2 26-4 35-2 10-12 30-31 59m-186 37c104 12 188 23 252 33 65 9 121 21 170 34l45-51c3-8-1-12-10-12-15 5-30 8-43 8s-51-4-113-12c-63-8-163-14-301-17v17m303-308H275c-15 0-30-2-43-6l-19 33h246l29 29c41-32 61-50 61-54s-1-7-4-8c-2-2-9-4-20-6-9-2-19-12-29-29-8-17-23-41-45-73 61-19 103-39 127-58 23-19 35-36 37-51 2-16-2-26-10-31-7-7-15-8-23-2-8 3-16 11-25 25-8 13-24 27-47 43-24 16-52 31-84 47-55-66-153-120-293-159l-8 17c130 49 217 102 262 160-47 19-93 37-137 52l6 16c43-8 94-22 152-41 24 30 41 62 53 96M4 813l78-42c5-2 8-4 8-6 0-3-1-6-4-10l-31-18V153l4-98c0-10-8-19-24-28-14-8-25-13-35-13l4 133v666m734 86 65-46c5-2 8-6 8-12 0-4-3-8-10-12l-24-19V105c2-25-4-46-17-64-14-16-34-29-61-41-8 18-19 31-31 39-12 10-46 22-102 37l6 18c59-10 96-15 112-16 15 0 26 3 33 8 6 4 9 15 10 31v716H373c-12 0-30-3-55-8l-21 33h410l31 41Z"/></symbol><symbol id="阍_G" viewBox="0 0 1000 1000" data-size="21"><path transform="matrix(1 0 0 -1 100 972)" d="m55 933 9 11c53-26 86-47 100-62 14-14 23-28 27-43 3-14 1-26-5-37-8-13-18-18-30-16-11 0-19 9-23 27-3 18-9 34-16 47s-28 37-62 73m373-225c0-24 4-57 11-98h124l41 45 56-56c2-4 3-6 4-6 0-5-3-7-8-8H449c4-14 15-30 33-49 16-17 31-31 45-41s28-17 41-21c13-5 22-6 26-4 3 2 6 8 10 17 3 7 8 30 15 67h16v-75c0-21 3-35 10-42 5-6 9-12 9-18 1-5-1-8-6-10-5-1-14-1-25 0-12 1-30 7-55 16-25 10-47 21-66 35-20 13-39 31-59 55-19 21-33 45-43 70H232V485l123 51 10-15c-63-31-101-52-115-63-14-10-31-25-49-45l-49 45c13 7 24 15 32 25v268l50-39c68 10 123 19 166 29 43 9 92 24 149 43 34-28 53-44 55-49 1-4 1-7-2-9-4-2-11-2-22 0-10 2-27 2-51 0-23-2-57-8-101-18m-37-98c-6 39-10 71-12 94-53-4-102-10-147-16v-78h159M221 429l50-24h221l26 30 54-39c2-4 4-7 4-8 0-5-8-12-23-22V229l4-85c-1-12-6-21-16-29-8-7-21-11-39-13v45H270v-17c0-13-6-24-18-32-12-6-23-9-35-10l4 126v215m49-254h232v86H270v-86m0 113h232v90H270v-90m459 609 64-46c5-2 8-6 8-12 0-4-3-8-10-12l-23-19V105c2-25-4-46-18-64-14-16-34-29-61-41-8 18-18 31-31 39-12 10-44 22-95 37l5 18c55-10 90-15 106-16 15 0 26 3 33 8 6 4 9 15 10 31v714H328c-12 0-30-3-55-8l-21 33h445l32 41M4 815l78-43c5-1 8-3 8-5 0-3-1-6-4-10l-31-18V157l4-98c0-10-8-19-24-28-14-8-25-13-35-13l4 133v664Z"/></symbol><symbol id="阎_G" viewBox="0 0 1000 1000" data-size="21"><path transform="matrix(1 0 0 -1 94 966)" d="M305 497c-14-4-39-14-76-31V366h58l27 43 59-53c1-2 2-4 2-7 1-6-1-9-4-8H229V210h308v129h-64c-16 0-32-2-49-6l-20 31h133v108h-72c-13 0-24-2-33-6l-24 31h119l32 33 46-37c5-2 8-6 8-10s-9-11-29-23V259l2-86c0-10-6-18-18-26-11-6-22-9-31-9v47H229v-20c0-10-6-18-18-25-10-8-22-12-33-12l4 117v274l43-32c37 24 68 47 93 69 30-26 45-41 47-45s2-6-2-6c-3-1-10-1-21-2-10 0-22-2-37-6m23 291c47-21 70-34 70-37 0-4 0-7-2-8 0-2-7-4-21-8-12-2-31-19-55-50h176l29 27c36-33 53-52 53-55 1-2-1-4-4-6-4 0-11-2-23-5-11-4-26-13-45-28-20-15-48-42-84-80l-16 12c26 35 54 71 84 109H297c-46-58-104-114-174-168l-12 14c47 47 86 92 119 135 33 42 66 91 98 148M4 802l76-43c4-2 6-4 6-6-1-3-2-6-4-10l-31-14V144l4-93c0-8-7-17-20-28-12-8-23-13-35-13l4 116v676m744 84 57-47c4-2 7-6 8-12 0-4-4-8-12-14l-24-13V100c2-25-6-46-21-63-14-17-39-29-74-37-9 20-18 35-28 43s-41 20-91 35l3 18c57-13 94-19 110-20 15 0 28 1 39 6 9 4 14 12 14 24v715H332c-12 0-31-2-55-8l-23 34h461l33 39M68 933c53-28 88-50 106-67 17-16 26-32 27-49 2-15 0-26-8-33-7-8-16-12-25-10-8 2-16 11-22 28-4 15-11 31-21 49-10 17-31 41-64 70l7 12Z"/></symbol><symbol id="阏_G" viewBox="0 0 1000 1000" data-size="21"><path transform="matrix(1 0 0 -1 86 972)" d="m59 933 9 11c53-26 86-47 100-62 14-14 23-28 27-43 2-14 0-26-7-37-8-13-18-18-30-16-11 0-18 9-21 27-4 18-9 34-16 47s-28 37-62 73m279-313 33 43 53-55c6-10 1-15-14-13H238V489h71l23 28 53-34c5-4 4-9-4-15l-22-18V274c-2-50-10-86-25-105-14-20-35-33-63-41-6 20-15 34-27 43-12 6-30 14-55 23l4 16 49-14c29-5 49-1 59 12 9 13 13 33 13 61v197h-76c-8-84-22-153-43-207-19-55-60-111-123-167l-9 13c48 60 80 114 95 164 15 48 26 97 31 144 6 47 8 108 6 182h-58c-14 0-30-3-47-8l-16 33h264M193 772l6 12c31-17 55-33 71-47 15-13 25-27 29-41 4-12 3-24-2-37-5-12-13-17-26-15-11-1-19 7-23 25-2 18-8 35-18 53-9 17-22 34-37 50m299-298 10 9c27-17 50-35 68-54s28-36 30-51c2-16-1-28-8-37s-16-12-28-10c-9 2-15 10-17 23-1 12-4 26-10 42-4 14-19 41-45 78m-64-196 4 16c52-11 95-24 131-39 35-14 58-29 70-45 12-15 17-30 15-45 0-14-7-23-19-27-11-5-22 2-33 21-11 20-26 37-45 51-18 14-59 36-123 68m-51 108c39 67 70 131 92 189 21 59 41 129 58 211l67-31c4-4 3-8-2-12l-24-12c13-58 30-107 51-146 20-38 37-65 53-80 16-14 37-27 64-39v-14c-28 3-52-4-72-21-27 34-49 68-64 101-14 33-30 86-49 158-28-82-53-145-76-189-24-42-51-83-82-121l-16 6M4 798l78-43c5-2 8-4 8-6 0-3-1-6-4-10l-31-17V138l4-97c0-10-8-19-24-27C21 5 10 1 0 0l4 132v666m752 103 64-47c6-1 8-5 8-11 1-4-2-8-10-12l-23-19V109c2-25-4-46-18-64-13-16-34-29-60-41-9 17-19 30-31 39-13 10-47 22-102 37l6 18c58-10 96-15 111-16 15 0 26 3 33 8 6 4 9 15 10 31v714H350c-12 0-30-3-55-8l-22 33h452l31 41Z"/></symbol><symbol id="阐_G" viewBox="0 0 1000 1000" data-size="21"><path transform="matrix(1 0 0 -1 95 973)" d="m4 800 78-29c5-2 8-4 8-6 2-4 2-7 0-10l-33-20V149l4-92c-1-9-8-17-22-26-14-8-27-11-39-11l4 118v662m74 146c57-26 93-48 110-66 15-18 22-34 21-49 0-14-4-25-12-31-6-6-14-9-25-8s-18 9-22 25c-2 17-7 33-17 49-9 16-29 39-63 69l8 11m660-41 65-45c5-2 8-6 8-9 0-4-12-16-36-36V102c2-26-4-47-19-65-16-15-41-27-76-37-8 21-18 36-30 43-9 8-41 20-93 35l2 16c60-10 99-16 115-18 15 0 27 2 37 6 8 4 13 12 14 25v734H363c-11 0-30-3-54-8l-22 35h428l23 37M244 800c51-30 82-54 94-72s16-32 12-43c-3-12-8-20-14-24-5-4-12-6-22-4-8 1-13 9-15 26-2 15-7 29-14 43-8 13-24 35-49 64l8 10m317-35c5-6 9-10 9-12 0-3-4-6-13-10-16-2-28-8-36-15-8-8-35-38-80-90h102l27 29 47-35c6-4 9-8 10-12 0-4-10-12-31-25V444l4-68c0-10-7-19-20-25-12-7-22-10-31-10v33H410v-96h180l31 47 55-54c1-2 2-4 2-6 0-8-3-12-10-12H410v-80l2-81c0-10-6-18-19-24-12-5-24-9-36-9l4 110v84H188c-15 0-38-3-69-8l-14 33h256v96H223v-12c0-9-4-17-12-23-6-7-20-10-41-10l4 96v252l55-39h181c37 58 69 111 96 160l55-33M223 399h138v94H223v-94m187 94v-94h139v94H410m-187 26h138v91H223v-91m187 91v-91h139v91H410Z"/></symbol><symbol id="阑_G" viewBox="0 0 1000 1000" data-size="21"><path transform="matrix(1 0 0 -1 104 958)" d="M119 665h238v127l73-27c4 0 6-2 6-6 0-3-2-6-6-10l-28-16v-68h159l31 43 53-51c1-2 3-6 3-10 0-3-3-5-11-5H402v-79h137l22 30 43-31c7-4 11-8 11-12 0-3-8-9-23-20v-99l4-63c0-10-5-19-14-27-10-8-21-12-35-12v31H402v-41c52-18 95-35 127-50 32-16 55-32 71-47 16-17 22-32 19-45-2-14-10-22-21-24-12 0-24 9-37 28-15 19-34 39-57 58-24 19-57 40-102 63V157l4-73c0-8-6-17-17-27-10-9-22-13-35-14l3 108v186c-44-63-84-111-119-147-33-35-78-72-136-112L92 90c45 36 86 76 123 122 37 44 72 94 105 148H217v-11c0-8-5-16-16-24-12-6-22-10-31-10l4 104v172l45-28h138v79H201c-13 0-36-3-66-8l-16 31m98-281h140v156H217V384m185 156V384h145v156H402m-162-29 8 6c25-18 43-34 55-47 11-14 17-26 17-37 0-10-2-18-7-24-5-4-12-6-20-4-7 1-12 11-16 32-2 19-14 44-37 74m237 10c37-17 54-28 52-34 0-4-6-8-15-9-9-2-20-11-34-26-12-14-29-32-50-55l-12 6c23 39 43 78 59 118M4 776l78-33c1-2 2-4 2-6-2-4-5-6-8-8l-27-15V118l4-79c-1-12-8-21-22-27C19 4 8 0 0 0l4 124v652m725 106 54-41c5-3 7-6 8-10 0-4-5-8-14-14l-15-13V100c2-26-5-47-20-65-13-15-32-27-56-35-6 20-15 33-28 41s-45 20-97 35l3 16c59-11 94-18 106-20 11 0 21 3 31 8 9 4 14 12 14 25v712H344c-13 0-31-2-55-7l-23 33h433l30 39M64 915c60-35 98-61 114-78 15-16 23-31 25-47 2-14-1-25-8-33s-16-12-25-12c-10 0-16 9-20 27-4 16-10 33-19 51-9 16-33 43-74 80l7 12Z"/></symbol><symbol id="阒_G" viewBox="0 0 1000 1000" data-size="21"><path transform="matrix(1 0 0 -1 96 975)" d="m61 938 9 12c53-26 86-47 100-62 14-14 23-28 27-43 3-14 1-26-6-37-7-13-17-18-29-16-12 0-19 9-23 27s-9 34-16 47-28 37-62 72m134-148 59-43h254l35 41 53-45c4-4 6-6 6-8 0-4-9-13-28-27V536l4-86c0-10-6-18-17-25-13-6-25-10-38-12v27H246v-19c-1-8-8-16-21-24-15-6-26-9-34-9l4 109v293m51-324h277v72H246v-72m0 97h277v67H246v-67m0 92h277v67H246v-67M123 312h211c6 37 11 75 16 115 43-12 66-20 70-24 3-2 3-4 2-6-1-1-11-8-31-19l-12-66h180l35 42 54-48c2-3 4-6 4-10 1-5-4-7-15-8H373c-18-59-51-105-98-141-46-33-103-58-170-75l-3 16c68 29 120 60 156 93 35 32 58 68 70 107H193c-13 1-29-3-47-10l-23 34m324 97 6 12c35-12 59-23 72-31 12-8 19-18 22-30 2-11 0-20-6-27-6-8-14-12-23-10-8 2-14 9-18 22-2 11-7 21-14 31-7 9-20 20-39 33m-70-154 6 14c64-18 112-34 144-47 31-13 53-27 67-43 11-17 15-32 11-45-3-11-11-17-23-19-12 0-23 8-35 25s-27 33-47 48-61 38-123 67m357 660 65-47c5-2 8-6 8-12 2-3-1-7-8-11l-24-20V104c3-26-2-47-15-63-14-18-32-31-55-41-8 16-21 29-37 39-15 9-46 20-92 33l6 18c49-10 81-15 98-16 15 0 26 3 33 8 6 5 9 16 10 33v734H307c-12 0-30-3-55-8l-22 33h473l31 41M4 823l80-43c5-2 8-4 8-6s-1-5-4-9l-31-18V159l4-96c0-10-8-19-24-28C21 27 9 22 0 21l4 132v670Z"/></symbol><symbol id="阓_G" viewBox="0 0 1000 1000" data-size="21"><path transform="matrix(1 0 0 -1 81 974)" d="m213 765 57-36h109v100l84-23c4-5 6-8 6-10s-2-4-6-6l-33-18v-43h111l29 34 61-39c2-4 3-7 4-8 0-5-11-13-33-26v-44l3-45c1-8-4-16-15-24-12-8-24-12-37-12v28H430v-78h209l31 39 57-47c2-2 3-5 3-8 0-8-3-12-11-12H174c-14 0-36-2-67-8l-15 36h287v78H260v-4c0-8-5-16-16-24-12-7-23-11-35-11l4 84v127m47-147h119v86H260v-86m170 86v-86h123v86H430M207 458l55-35h283l27 33 57-39c4-2 6-4 6-6 0-4-9-12-28-25V276l4-39c0-8-6-15-17-23-13-8-26-13-39-14l4 82v115H256V271l4-47c0-8-7-17-20-26-13-8-26-11-37-11l4 84v187m254-100c6-2 7-7 4-13 0-2-11-7-33-16-4-45-13-84-26-115s-41-59-82-86c-39-25-101-48-187-67l-4 15c68 23 120 47 156 71 35 25 59 51 72 79 13 25 21 77 22 156l78-24m-18-125c57-19 98-35 123-48 26-14 43-30 51-47 7-16 7-29 0-38-8-9-16-13-25-12-11 1-22 10-33 27-12 17-28 34-47 52-18 18-43 35-76 53l7 13M4 808l76-28c10-4 13-9 8-15l-33-16V146l4-105c0-10-8-19-24-27C21 5 10 1 0 0l4 140v668m66 140c64-25 106-47 125-66 18-18 27-34 28-49 0-15-4-26-12-33s-16-9-25-8c-10 1-18 10-24 25-5 14-12 30-21 47-10 15-36 39-78 73l7 11m700-21 60-43c5-2 8-6 8-12 1-3-11-12-33-27V111c2-25-2-47-12-64-10-16-31-29-64-37-2 17-9 28-20 35s-40 18-86 33l4 20c44-10 72-15 84-16 11 0 21 1 31 2 9 2 13 10 14 23v753H342c-12 0-30-2-55-7l-21 35h472l32 39Z"/></symbol><symbol id="阔_G" viewBox="0 0 1000 1000" data-size="21"><path transform="matrix(1 0 0 -1 96 965)" d="M293 542h162v123l-141-10-1 16c126 19 227 44 302 74 33-29 49-47 49-53 0-5-1-8-2-9s-7 0-19 4c-12 1-30 1-53 0-22-3-52-8-90-14V542h98l31 39 53-47c2-2 3-4 4-6 0-6-4-9-12-9H500V386h76l22 29 43-33c5-4 9-8 9-12 0-2-7-10-23-23V229l4-58c1-8-5-16-16-24-11-6-22-9-31-9v45H383v-37c-1-9-6-16-16-22-10-7-21-11-33-11l4 105v199l45-31h72v133h-82c-14 0-36-3-66-8l-14 31m90-334h201v154H383V208M279 616l16-6c-43-136-68-213-76-228-6-16-12-33-18-51-4-18-5-41-2-70 4-30 7-57 10-82 2-26-1-42-8-49-6-6-13-10-21-12-9 0-16 4-22 14-4 10-4 30 2 62s7 63 4 94c-2 18-8 29-18 33-7 4-29 9-64 16l2 16c37-4 62-4 76 0 11 1 22 15 31 43 10 25 39 98 88 220M148 749l6 10c21-9 40-18 57-28 18-9 31-19 41-29 9-10 14-21 14-31 0-11-3-19-8-25-5-7-11-10-20-10-8 0-13 6-17 17-2 11-8 24-18 39s-28 34-55 57M82 624l6 10c23-13 43-24 58-33 15-10 27-20 38-30 9-10 14-21 15-33 0-12-2-21-8-27-6-7-13-9-21-8s-14 8-18 19c-2 10-7 23-15 40-8 14-26 35-55 62M4 802l74-37c5-2 7-5 6-8-1-2-2-4-4-6l-29-18V140l4-87c0-9-7-18-20-28-12-8-23-13-35-13l4 126v664m732 88 65-41c5-3 8-6 8-10s-5-9-14-14l-24-17V102c2-26-4-47-19-65-14-15-35-27-61-37-7 21-17 36-29 43-12 8-43 20-92 35l2 16c57-10 92-16 106-18 11 0 23 2 33 6 9 4 14 12 14 25v716H352c-13 0-31-2-55-8l-24 34h440l23 41M80 931c49-21 82-40 100-57 17-16 26-31 27-47 2-14-1-25-8-33-8-7-15-9-23-8-8 2-15 11-20 27-4 15-11 32-23 49-10 16-30 35-61 57l8 12Z"/></symbol><symbol id="阕_G" viewBox="0 0 1000 1000" data-size="21"><path transform="matrix(1 0 0 -1 97 968)" d="m80 925 10 12c52-28 86-51 101-69 15-15 23-31 26-47 2-15 0-28-6-39-8-12-18-17-29-15-12 0-20 9-24 27-3 17-8 34-15 51-8 17-28 43-63 80m264-182 54-39c6-4 8-8 8-12 0-2-4-4-11-7-2-2-13-8-32-18-43-77-86-136-131-178-43-41-97-77-164-107l-7 14c64 40 115 80 152 119 36 38 72 95 107 172H170c-22 0-38-3-49-8l-23 33h220l26 31m99-260 36 41 54-50c2-2 2-4 2-6 0-7-2-10-8-10H404c0-35-2-70-8-105h149l37 48 63-56c1-2 3-4 3-6 1-7-2-10-9-10H393c-21-77-56-132-108-166-51-33-112-59-183-77l-6 16c64 24 119 53 164 88 44 35 72 81 84 139H188c-14 0-28-3-43-8l-16 32h219c6 27 9 62 7 105h-54c-10 0-24-3-41-8l-22 33h205m-56-207 6 16c46-13 87-26 121-39 32-13 57-26 74-39s27-26 29-39c2-12 1-22-2-31-4-8-11-13-21-14-10 0-20 6-30 17-10 12-19 24-27 36-7 9-22 22-45 39-21 15-56 33-105 54m13 496 20 4c13-37 28-74 45-109 33 37 60 70 82 100l49-38c5-4 4-9-4-13-13 2-27-2-43-12s-41-27-72-53c9-22 25-45 46-68 38 39 69 76 94 109l49-41c5-5 3-9-4-11-10 0-19-2-29-6-9-4-41-26-98-67 27-25 53-45 78-58 26-12 57-22 94-30v-15c-24-1-41-3-51-8-10-4-21-10-35-19-27 21-53 42-76 64-24 21-49 51-76 92-27 40-50 100-69 179M145 655l7 10c41-18 67-34 77-49 9-13 13-25 11-35s-6-18-11-23c-5-6-12-8-20-6-8 1-12 8-14 19-2 10-6 22-11 35-5 12-18 28-39 49M4 815l80-43c5-1 8-3 8-5 0-3-1-6-4-10l-31-18V153l4-94c0-10-8-20-24-30C21 23 9 19 0 18l4 129v668m728 81 65-47c5-2 8-6 8-12 2-4-1-8-8-12l-24-19V104c3-26-2-47-15-65-14-16-32-29-55-39-8 16-21 29-37 37-15 10-46 22-92 35l6 18c49-10 81-15 98-16 15 0 26 3 33 8 6 5 9 16 10 33v714H357c-11 0-30-3-54-8l-22 33h420l31 42Z"/></symbol><symbol id="阖_G" viewBox="0 0 1000 1000" data-size="21"><path transform="matrix(1 0 0 -1 98 961)" d="m74 911 10 12c57-24 95-44 113-61 18-15 29-31 32-47 1-15-1-28-8-37-7-10-16-15-28-13-11 0-19 9-23 27s-10 33-20 47c-9 14-35 38-76 72m65-211h209v119l70-25c5-3 8-5 8-8 1-4 0-6-4-8l-26-13v-65h133l32 43 56-51c2-2 3-4 4-5 2-5-2-8-12-10H396v-90h184l35 45 55-49c2-3 3-6 4-10 0-6-5-10-14-10H385c-44-31-92-64-145-99l276 10c-28 21-54 39-78 52l7 14c50-16 86-29 108-41 21-12 37-24 47-37 9-12 11-25 7-37-3-13-10-20-19-22-10-1-18 3-24 12-5 7-15 20-29 37-79-4-144-8-195-12-52-3-100-12-145-27l-33 55c20 3 41 10 65 19 37 30 65 55 86 76H166c-14 0-33-2-59-7l-23 31h264v90H209c-14 0-31-3-51-8l-19 31m37-301 56-31h288l25 29 51-33c5-4 8-8 8-13 0-4-9-11-28-22V167h29l36 45 52-53c2-2 4-6 4-10 2-4-2-7-11-7H143c-14 0-28-3-43-8l-22 33h98v232m47-232h74v176h-74V167m119 0h68v176h-68V167m113 0h72v176h-72V167m275 730 65-46c5-2 8-6 8-12 2-4-1-8-8-12l-25-19V105c2-25-3-46-16-64-12-18-29-31-53-41-8 15-21 28-37 39-16 12-46 24-90 37l4 18c49-10 82-16 98-18 15 0 26 3 33 8 6 5 9 16 10 33v714H355c-11 0-29-3-54-8l-22 33h420l31 41M4 776l78-43c5-2 8-4 8-5 0-3-1-6-4-10l-31-18V140l4-95c0-10-8-19-24-27C21 9 10 5 0 4l4 130v642Z"/></symbol><symbol id="阗_G" viewBox="0 0 1000 1000" data-size="21"><path transform="matrix(1 0 0 -1 92 969)" d="m59 927 9 11c53-26 86-47 100-62 14-14 23-28 27-43 3-14 1-26-6-37-7-12-17-18-29-16-12 0-19 9-23 28-4 17-9 33-16 46-7 14-28 38-62 73m62-201h227l7 103 65-21c10-4 9-10-2-18l-18-10-5-54h164l37 46 58-52c2-3 2-6 2-10 0-7-4-10-11-10H393l-4-64h105l26 37 52-37c6-2 9-6 10-12 1-4-8-12-27-25V292h62l35 47c37-35 57-55 59-59 1-4 0-8-4-11l-4-2H150c-13 0-32-3-54-8l-16 33h129v381l51-37h84l4 64H191c-13 0-31-2-54-8l-16 34m135-434h252v62H256v-62m0 86h252v60H256v-60m0 84h252v62H256v-62m0 86h252v64H256v-64M84 68c69 49 138 109 207 181l59-41c2-6-1-10-10-14-16 3-41-9-76-35-35-25-92-59-170-104L84 68m340 156 4 15c53-12 93-25 119-39 25-12 41-25 49-37s9-25 6-37c-4-11-11-18-22-21-10 0-18 6-25 18-8 12-20 26-35 42-17 16-49 35-96 59m318 683 65-47c5-2 7-6 7-11 2-4 0-8-7-12l-26-20V105c2-25-4-46-17-64-14-16-32-29-55-41-8 15-20 27-35 35-14 10-46 22-96 35l4 18c55-10 90-15 106-16 14 0 26 3 33 8 6 5 9 17 9 37v724H309c-12 0-30-3-55-8l-22 33h479l31 41M4 794l78-43c5-2 8-4 8-6s-1-6-4-10l-31-17V142l4-95c0-10-8-19-24-27C21 11 10 7 0 6l4 130v658Z"/></symbol><symbol id="阘_G" viewBox="0 0 1000 1000" data-size="21"><path transform="matrix(1 0 0 -1 93 979)" d="m219 792 54-29h260l24 31 54-33c4-4 6-7 6-8 0-4-10-12-27-25V603l4-63c-1-6-6-13-16-19-10-7-22-10-37-8v27H266v-8c0-6-6-12-18-19-10-6-21-9-33-8l4 84v203m49-229h273v75H268v-75m0 98h273v78H268v-78m56-344v135H182c-13 0-28-2-45-8l-22 34h198l29 33 49-37c6-4 9-9 7-14 0-1-9-7-29-20V171c2-24-2-43-14-56-9-13-29-25-58-37-3 18-10 30-22 37-9 5-35 14-76 25l6 17c37-10 65-15 86-13 20 0 31 9 33 27v123c-58-32-97-54-117-66-18-12-32-27-43-43l-47 43 207 89m-174 94 8 12c39-20 66-37 80-51s20-27 18-41c-1-12-5-21-14-25-8-4-15-5-23-2-6 2-11 11-14 27-2 14-6 27-14 37-7 9-21 24-41 43m452-94v135H475c-13 0-28-2-45-8l-22 34h182l29 33 49-37c6-4 9-9 8-14 0-1-10-7-30-20V183c2-24-2-43-13-57-10-12-29-24-59-36-2 17-10 29-21 36-10 5-35 14-76 25l5 18c37-10 66-15 86-14 20 0 31 9 34 28v111c-59-27-98-47-118-59-17-11-32-26-43-43l-46 43 207 82m-196 96 8 12c41-20 68-36 82-49 14-14 20-27 18-41-1-12-6-21-14-25s-16-5-23-2c-6 2-11 11-14 27-2 14-7 27-14 37-8 10-22 24-43 41M4 833l76-27c10-5 13-10 8-16l-33-16V149l4-108c0-10-8-19-24-27C21 5 10 1 0 0l4 140v693m59 125c58-23 97-44 115-61 16-15 24-31 25-46 0-15-4-26-12-34-7-6-16-9-25-7-10 1-18 9-23 25-6 14-13 29-20 45-8 14-31 36-68 66l8 12m683-29 61-43c5-2 7-6 7-12 1-3-10-12-33-27V107c2-25-2-46-11-64-10-16-32-29-65-37-2 17-8 29-19 35-12 8-40 18-84 29l3 20c43-8 71-12 83-12 11 0 21 1 31 2 8 2 13 10 13 24v758H318c-11 0-30-2-54-8l-22 36h473l31 39Z"/></symbol><symbol id="阙_G" viewBox="0 0 1000 1000" data-size="21"><path transform="matrix(1 0 0 -1 91 964)" d="m74 917 10 12c57-24 92-42 105-55 13-14 22-27 26-41 2-12 0-25-6-37s-14-18-25-16c-12 2-20 10-24 26-4 14-10 28-17 43-8 13-30 36-69 68m272-152c33-16 52-26 58-30 4-4 6-7 4-11s-8-6-17-6-20-10-34-30c-13-18-30-41-48-68h66l31 41 57-47c2-2 3-4 4-6 0-7-3-11-12-11H289V368h74v166l73-31c3-2 3-6 2-12l-30-12v-91l4-47c1-8-4-16-16-26-10-7-21-12-33-13v41h-78c-6-66-23-122-53-168-29-45-76-86-140-124l-8 15c52 41 90 83 113 124 24 41 39 92 47 153h-66l-32-30-46 36c19 11 29 23 29 37v148l62-27c6-3 10-5 10-8 5-4-4-10-27-20V368h70v229h-96c-24 0-42-3-54-8l-22 31h211c22 46 43 95 63 145m-211-16 8 10c29-12 52-26 70-41 17-15 27-28 29-39 2-12 0-22-6-32-4-9-11-13-23-11-11 0-18 7-22 21-2 14-5 27-11 39-5 12-20 30-45 53m465-8c9-4 11-9 5-13-15-6-25-12-29-18-4-5-10-16-15-33-6-18-17-47-32-88h112l19 27 57-39c2-4 2-8 0-12-4-2-11-4-20-7-8-3-17-8-25-16-8-7-28-34-61-80l-15 8 43 93H516c-16-35-36-70-61-107l-17 6c25 57 46 111 62 164 16 52 27 100 35 143l65-28M293 92c60 30 106 63 139 98 33 34 54 70 64 110 10 37 16 97 18 181 47-18 71-29 74-33 2-4 0-8-6-11l-21-8c-5-30-10-65-16-104 49-20 86-41 111-62 26-22 39-43 41-65 2-19 0-33-8-41-7-6-16-8-25-4-8 3-16 15-21 37-6 22-18 43-36 63-16 18-38 35-66 53-16-56-41-100-76-133-34-31-88-64-162-97l-10 16M4 798l76-43c5-2 8-4 8-6 1-3-1-6-4-10l-31-17V146l4-93c-1-10-8-19-22-28-14-8-25-13-35-13l4 128v658m756 92 51-39c5-2 7-6 7-12 2-4 0-8-7-12l-26-19V104c2-26-4-47-19-65-16-16-40-29-73-39-5 14-17 27-35 39-16 12-45 25-86 39l4 18c61-14 99-22 115-24 15 0 26 3 34 8 7 4 11 16 11 35v716H352c-12 0-30-3-55-8l-22 33h454l31 34Z"/></symbol><symbol id="阚_G" viewBox="0 0 1000 1000" data-size="21"><path transform="matrix(1 0 0 -1 90 961)" d="m64 911 10 12c61-23 101-42 119-57 17-14 28-29 32-45 2-15 0-28-6-39-7-12-17-17-28-15s-20 11-25 29c-5 17-12 33-21 47-11 13-38 36-81 68m243-168 52-41c4-1 6-4 4-10 0 0-11-5-33-17l-27-78h60l32 37 44-45c2-3 4-4 4-4 0-8-4-12-11-12h-61V282l90 14 4-16-94-23V155l4-61c0-8-5-16-14-24-9-6-23-9-41-11l6 88v102c-86-18-139-31-160-39-20-7-39-16-59-27l-33 48 94 18v324h-39c-13 0-24-2-33-8l-16 32h180l29 90h-88c-12 0-23-3-35-8l-20 31h137l24 33m-92-486 111 17v84H215V257m0 125h111v92H215v-92m0 113h111v78H215v-78m183-66c34 67 59 123 77 166 17 41 35 95 52 160 41-20 63-30 65-31 1-2 2-5 2-8s-5-6-14-10c-10-3-21-18-33-45-12-26-26-55-43-86h109l32 37c37-31 56-49 56-54v-8c0-1-8-1-23-2h-51c-7-80-22-145-45-194 27-31 48-56 63-76 13-19 21-35 23-50 2-16 0-28-6-38s-14-15-23-13-15 10-20 23c-4 14-8 29-14 45-5 14-19 37-41 70-18-34-41-67-68-97-28-30-64-59-107-86l-10 12c36 31 67 61 92 91 23 30 46 68 68 116-23 33-53 69-88 107l12 10c33-28 62-55 88-82 12 31 23 86 33 164h-94c-24-51-50-94-78-129l-14 8m352 451 63-47c5-2 7-6 7-12 2-4 0-8-7-11l-26-20V105c3-26-2-48-16-66-11-18-31-31-60-39-4 14-14 26-29 37-15 12-45 26-92 43l6 18c50-14 84-22 99-24 16-2 27-1 34 4 5 5 9 17 9 38v697H344c-12 0-30-2-55-7l-21 33h451l31 41M4 769l76-43c5-2 8-4 8-6 1-3-1-6-4-10l-31-18V138l4-93c-1-10-8-20-22-29C21 9 10 5 0 4l4 128v637Z"/></symbol><symbol id="阛_G" viewBox="0 0 1000 1000" data-size="21"><path transform="matrix(1 0 0 -1 83 978)" d="m174 798 49-31h355l24 29 46-33c8-4 12-9 14-14 0-4-10-12-31-25v-63l4-47c0-8-5-15-16-23-10-8-21-12-33-12v31H221v-11c0-8-5-14-16-18-12-5-23-7-35-8l4 78v147m45-164h90v109h-90V634m133 0h93v109h-93V634m136 0h98v109h-98V634m-388-86h527l33 41 51-45c4-2 6-5 6-8 2-8-2-12-12-12H158c-12 0-26-2-43-7l-15 31m99-41 51-33h291l27 29 45-29c8-4 12-9 12-14 0-2-8-8-23-18v-50l3-43c0-6-4-12-13-18-8-5-20-10-37-16v24H385c-20-27-43-55-71-82V134l153 54 10-15c-73-31-120-53-141-66-20-13-40-31-61-52l-41 52 34 22v97c-48-36-105-67-172-92l-8 13c41 22 84 49 129 82 43 33 80 70 111 110h-82v-10c-1-4-6-10-16-16-7-5-19-9-35-11l4 90v115m47-145h309v88H246v-88m127-88 8 14c44-8 90-21 137-37 38 25 74 52 107 80l43-41c5-9 1-13-10-12-13 0-28-4-43-9-13-4-39-14-76-30 22-8 41-17 59-29 17-12 30-23 39-35 8-13 11-25 8-37-2-11-9-17-20-19-12-1-22 4-31 17-10 13-26 29-47 47-20 17-42 33-67 46-23 12-59 27-107 45M4 808l76-28c10-4 13-9 8-15l-33-16V134l4-89c0-10-8-20-24-29C21 6 10 1 0 0l4 129v679m762 115 60-43c5-2 8-6 8-12 1-4-10-14-33-31V107c2-25-2-46-12-64-10-16-31-29-64-37-4 18-13 31-28 39-14 8-43 19-86 35l4 20c41-10 70-16 86-18 15-2 28 0 37 6 9 4 13 14 14 27v741H361c-11 0-30-2-54-7l-22 35h449l32 39M66 956c54-18 91-36 110-55 17-17 26-33 27-48 0-15-4-27-12-34-7-6-16-7-25-6-10 2-18 12-23 28-6 14-12 28-18 43-7 13-29 33-66 60l7 12Z"/></symbol><symbol id="阜_G" viewBox="0 0 1000 1000" data-size="21"><path transform="matrix(1 0 0 -1 35 973)" d="m438 946 68-33c2-3 3-4 4-4 4-6 0-12-12-15-19-3-43-25-70-67h252l31 39 64-47c4-4 6-6 6-7 0-5-11-15-33-32v-70l4-49c0-8-6-16-18-25-9-8-23-14-41-18v31H244V546h455l33 37 59-43c4-4 6-6 6-8-1-4-12-13-33-27v-68l4-67c0-11-5-20-14-27-10-7-24-12-43-16v51H508V249h312l43 53 61-57 4-4c5-12 4-17-4-17H508v-92l2-91c0-10-7-19-20-27-13-7-26-12-39-14l4 142v82H82c-14 0-34-3-61-8L0 249h455v129H244v-22c-2-9-8-18-15-25-9-6-23-10-43-10l3 121v428l59-43h152c21 57 34 97 38 119M244 399h467v122H244V399m0 274h449v131H244V673Z"/></symbol><symbol id="阜_H" viewBox="0 0 1000 1000" data-size="21"><path transform="matrix(1 0 0 -1 48 959)" d="M332 918c29-9 55-20 78-31 3-4 4-8 4-12 0-5-5-8-15-10-13-2-22-4-28-4-10-12-22-23-36-32-12-10-26-19-42-27-7-4-15-8-23-11h406l29 31c33-21 49-35 49-43s-9-17-25-29v-96c6-4 12-9 17-14 3-2 4-5 4-7 0-9-2-14-6-14H180v-86h543l27 31c34-20 51-35 51-43 0-7-9-16-26-27V392c7-6 12-10 17-14 3-2 5-4 5-5 0-10-3-16-8-16H469V240h310l47 53c25-18 48-36 70-53 5-3 8-8 8-13 0-11-6-16-17-16H469V21c0-12-11-19-33-21-10 0-14 5-14 16v195H115c-47-1-78-2-94-4L0 250c29-7 67-10 115-10h307v117H180v-27c0-8-6-12-18-12-6 0-14 2-23 5-7 6-10 13-10 21 0 12 1 27 3 46 3 15 5 48 5 96v280c0 25-3 47-8 66l60-41h40c15 10 28 21 40 31 9 9 18 19 27 32 10 12 18 23 24 33s10 21 12 31M180 383h549v121H180V383m0 263h500v116H180V646Z"/></symbol><symbol id="阜_T" viewBox="0 0 1000 1000" data-size="21"><path transform="matrix(1 0 0 -1 49 958)" d="M207 787c27 16 51 34 72 54 18 17 38 42 61 76l55-33c8-5 12-10 12-15 0-9-7-14-21-14h-23c-38-29-74-51-110-68h419l33 37 41-27c13-8 20-16 20-23 0-10-14-20-40-30v-92c16-12 24-22 24-27 0-6-3-9-9-9H181v-86h545l33 37 41-26c13-9 19-17 19-24 0-10-13-20-39-30v-97c16-12 24-21 24-27s-3-9-9-9H476V237h311l48 50 59-52c6-5 8-9 8-13 0-9-4-13-13-13H476v-55c0-26 2-61 6-107 1-11 1-18 1-23 0-16-8-24-26-24-19 0-28 7-28 21v188H92c-23 0-47-2-73-5L0 246c41-6 72-9 92-9h337v117H181v-22c0-12-8-17-24-17-18 0-26 9-26 28v16c0 9 1 21 2 34s2 29 2 48v318c0 12-2 34-6 65l58-37h20m-26-406h553v121H181V381m0 263h499v116H181V644Z"/></symbol><symbol id="阜_J" viewBox="0 0 1000 1000" data-size="21"><path transform="matrix(1 0 0 -1 49 958)" d="M14 208 0 236h415v121H193v-47l-63-8v542l66-36h177l14 107 106-16c9-1 13-4 13-9s-4-9-11-12l-21-9-57-61h240l28 40 70-43c9-5 14-10 14-15s-5-9-14-12l-24-6V606l-66-10v35H193v-94h511l30 40 63-40c9-5 13-11 13-16s-4-9-13-12l-18-6V328l-67-7v36H483V236h275l51 60 93-64v-24H483V10L415 0v208H14m179 175h519v127H193V383m0 398V658h472v123H193Z"/></symbol><symbol id="阜_K" viewBox="0 0 1000 1000" data-size="21"><path transform="matrix(1 0 0 -1 55 949)" d="m255 332 1-39-9-13-46-13-11 6-1 502 69-28h120l51 150 88-38-3-15-28-5-78-92h223l28 30h16l51-42 1-16-23-16V588l-7-11-47-12-9 5v23H255V493h450l24 29h16l57-45v-15l-23-18-1-120-6-11-47-14-11 6v27H483V207h282l48 58h15l61-61v-18H483V27l-7-12-49-15-8 4v181H0v22h419v125H255m386 393H255V615h386v110m73-371v117H255V354h459Z"/></symbol><symbol id="阝_G" viewBox="0 0 1000 1000" data-size="21"><path transform="matrix(1 0 0 -1 325 936)" d="m283 866 57-41c6-4 9-8 10-13 0-3-3-6-10-10-14-1-29-14-45-39-27-43-65-112-115-205 49-39 84-73 105-100 21-28 35-55 43-80 6-24 10-47 12-68 0-23-3-43-10-63-6-19-18-36-37-51-18-13-43-27-74-41-7 20-18 33-33 41-16 8-45 19-88 33l6 18c42-12 75-18 97-18s37 2 47 8c10 4 19 11 25 22 7 10 12 23 14 41 3 17 1 40-6 68-7 27-18 53-33 78-16 23-47 59-96 108l108 252H53V132l4-95c0-7-7-16-22-25C21 4 10 0 0 0l4 134v738l51-39h197l31 33Z"/></symbol><symbol id="阝_H" viewBox="0 0 1000 1000" data-size="21"><path transform="matrix(1 0 0 -1 323 960)" d="m249 873 32 39c26-19 47-35 63-48 6-6 9-12 9-18 0-4-6-8-18-13-10-5-23-10-38-15-39-84-83-165-133-244 48-28 85-56 110-83 25-25 44-53 58-84 14-26 22-54 22-84 0-41-7-73-19-95-7-22-20-40-41-53-14-13-42-23-84-32-9 15-22 26-37 33-14 10-38 18-70 22l3 21c31-7 59-10 83-10 30 0 52 4 66 12 15 9 26 22 33 37 9 18 14 44 14 78 0 25-5 50-16 75-8 25-24 50-46 75-20 24-53 51-98 81 48 109 84 202 109 279H56V13c0-9-6-13-17-13-6 0-15 2-26 6C4 12 0 21 0 32c0 13 1 29 3 48 3 17 5 52 5 105v660c0 28-3 53-8 75l66-47h183Z"/></symbol><symbol id="阝_T" viewBox="0 0 1000 1000" data-size="21"><path transform="matrix(1 0 0 -1 277 948)" d="M286 582c4-4 15-13 32-28 85-73 128-147 128-221 0-47-10-83-30-106-18-21-46-34-83-40-4 21-15 36-33 44-14 7-50 16-106 29l4 20c21-4 54-11 100-22 14-3 28-5 42-5 22 0 37 8 45 24 6 13 10 32 10 57 0 49-15 96-43 139-12 19-38 48-78 88l-15 15c29 101 50 185 65 251H52V154c0-34 2-70 6-107 1-10 2-18 2-25C60 7 50 0 32 0S5 7 5 21v804c-1 22-2 46-5 71l58-41h262l35 41 34-26c16-13 24-23 24-31s-8-15-24-22l-14-5c-29-82-59-159-89-230Z"/></symbol><symbol id="阝_J" viewBox="0 0 1000 1000" data-size="21"><path transform="matrix(1 0 0 -1 305 938)" d="M0 0v874l76-38h195l27 39 72-51c13-9 19-17 19-23 0-8-8-13-24-15l-20-4-136-244c27-27 52-54 73-83 61-81 91-154 91-217 0-53-21-90-64-110-18-9-37-13-57-13-7 0-10 4-11 13-1 10-3 18-7 24-3 5-12 9-28 13l-58 17v16h134c13 19 20 40 20 64 0 56-25 126-75 209-13 21-27 41-42 61 30 83 59 176 87 277H68V14L0 0Z"/></symbol><symbol id="阝_K" viewBox="0 0 1000 1000" data-size="21"><path transform="matrix(1 0 0 -1 306 927)" d="m267 814 38 33h17l66-65-5-13-31-5-133-195c56-39 95-75 118-110 23-34 35-73 35-117 0-81-39-131-118-152l-13 5-10 31-81 33 3 17 88-8c20-1 35 5 45 20s15 37 15 68c0 39-9 75-26 106s-46 66-88 104l87 225H64V27l-8-15L10 0 0 9v844l66-39h201Z"/></symbol><symbol id="阞_G" viewBox="0 0 1000 1000" data-size="21"><path transform="matrix(1 0 0 -1 83 968)" d="m768 724 58-47c5-2 8-6 8-12 0-3-12-12-37-27V294c1-69-3-119-10-150-8-30-19-55-35-76-16-19-43-37-82-54-7 30-22 50-45 60-23 11-59 23-107 37l5 19c57-13 101-22 133-26 32-5 54 4 69 28 13 23 20 72 21 148v373H533c-2-101-8-193-19-275-12-81-39-152-82-215-43-62-108-113-194-153l-6 13c84 59 141 119 172 179 32 60 51 126 59 197 8 70 13 155 16 254H354c-21 0-38-2-51-7l-20 35h196v256l85-34c10-2 13-6 10-11 0-2-14-9-43-20V681h205l32 43M266 911l68-51c5-4 8-7 8-11s-6-8-18-12c-15-4-29-14-41-29-31-54-67-120-107-198 31-24 60-50 88-78 24-28 41-56 49-84 7-27 9-49 7-66-2-18-6-32-11-43-6-11-17-24-32-39-13-15-41-30-82-45-6 19-16 34-31 45-14 10-37 21-68 31l4 16c40-8 68-14 84-18 13-3 26-2 39 2 11 4 22 13 33 27 10 14 14 36 12 65-3 28-13 57-32 86-18 26-47 60-86 101l92 233H57V128l4-85c0-12-8-23-24-31S9 0 0 0l4 127v786l57-43h175l30 41Z"/></symbol><symbol id="阞_H" viewBox="0 0 1000 1000" data-size="21"><path transform="matrix(1 0 0 -1 68 957)" d="M49 842V21c0-7-6-11-18-11-6 0-14 2-23 6-5 5-8 13-8 23s1 25 2 45c3 14 4 46 4 94v668c0 25-2 48-6 68l57-43h150l31 35c22-17 41-32 55-43 4-6 6-12 6-17 0-4-5-7-14-11-11-6-23-11-35-15-32-78-68-154-107-228 36-29 63-57 82-83 18-24 33-52 43-83 11-26 17-54 17-84 0-29-5-53-14-71-6-15-16-28-29-40-13-10-34-18-64-24-4 14-11 24-22 30-15 8-40 14-74 19l4 21c27-6 52-9 74-9 19 0 34 3 45 9 9 6 16 14 21 24 8 13 12 30 12 53 0 26-4 52-13 77-7 26-17 52-32 78-14 25-37 53-68 83 36 99 65 182 86 250H49m262-143c25-6 62-10 111-10h101c4 34 5 67 5 99 0 57-2 99-7 126 29-3 56-6 82-11 9-2 14-6 14-10 0-6-5-11-14-14-10-4-18-8-25-12-1-68-4-127-8-178h207l30 32c20-8 36-19 47-32 6-5 9-10 9-15 0-8-13-17-39-28 0-97-5-202-15-314s-22-188-37-228c-7-23-16-40-27-53-9-7-20-14-32-21-20-11-42-16-67-16-1 11-4 21-9 27-3 4-8 8-17 14-21 8-56 18-106 31l4 21c86-22 136-33 150-33 12 0 24 3 34 9 9 5 15 15 21 28s12 33 20 60c9 39 16 102 23 189 5 89 9 190 11 304H568c-2-16-4-29-5-41-8-68-18-132-29-191-15-59-33-110-52-155-20-49-45-93-76-132-34-47-80-96-138-145l-12 18c40 37 73 73 99 110 25 33 47 71 68 114 22 41 40 91 55 149 16 52 29 114 36 187 3 29 6 58 7 86h-99c-53 0-84-1-94-4l-17 39Z"/></symbol><symbol id="阞_T" viewBox="0 0 1000 1000" data-size="21"><path transform="matrix(1 0 0 -1 71 960)" d="M52 834V154c0-34 2-70 6-107 1-11 1-19 1-25C59 7 50 0 33 0 15 0 6 7 6 21v811c-1 25-3 49-6 73l58-43h153l35 41 33-26c16-13 25-23 25-30 0-8-9-16-25-22l-14-6c-43-99-80-176-110-230 43-42 75-79 95-110 29-44 43-90 43-138s-9-83-29-107c-18-20-46-34-83-40-3 20-10 33-22 40-10 5-34 14-73 26l4 20c58-13 93-19 106-19 31 0 46 27 46 82 0 46-11 90-34 131-20 37-46 74-79 110 36 95 65 179 86 250H52m459-138c2 47 3 89 3 125 0 52-1 85-3 99l50-10c30-6 44-14 44-24 0-7-9-14-27-21l-17-5c0-64-2-118-4-164h208l33 37 41-26c13-9 19-17 19-24 0-5-2-10-5-13-3-2-14-8-34-17-5-231-18-401-40-509-16-84-60-125-132-125h-5c-1 20-10 35-27 44-13 6-36 13-71 21l3 23c13-3 33-7 60-13 34-7 57-11 68-11 22 0 37 10 45 30 30 70 47 256 52 555H557c-5-119-27-231-65-337C442 194 363 84 256 3l-11 16c94 86 164 198 210 336 26 79 45 184 56 313H389c-19 0-43-1-73-5l-19 42c39-6 69-9 92-9h122Z"/></symbol><symbol id="阞_J" viewBox="0 0 1000 1000" data-size="21"><path transform="matrix(1 0 0 -1 82 951)" d="m0 0 2 875 71-41h155l21 37 77-45c11-7 17-13 17-19 0-9-8-15-24-17l-12-1-125-204c30-35 53-65 70-89 40-60 60-117 60-172 0-35-10-64-31-88-23-27-51-41-82-41-7 0-11 2-13 5-1 2-3 12-4 29-1 9-9 16-26 19l-56 12v16h125c12 17 18 38 18 63 0 44-11 93-34 148-13 31-30 62-51 92 39 111 63 187 73 229l-166-1V12L0 0m222 14c93 75 158 148 196 219 30 58 50 128 61 209 5 35 8 89 11 162H328l-11 28h175l-3 269 85-8c14-1 21-6 21-14 0-5-4-11-13-16l-21-11-3-220h168l27 38 64-39c12-7 18-14 18-19 0-7-6-12-18-15l-14-4-7-208c-6-169-23-274-52-317-15-23-38-38-69-46-9-2-15-3-20-3s-8 1-10 4c-1 1-3 9-6 22-1 7-3 11-6 13-2 1-8 4-18 7l-67 19v16h136c28 42 44 126 47 251l7 253H557c-9-117-19-199-30-248C496 215 398 97 231 0l-9 14Z"/></symbol><symbol id="阞_K" viewBox="0 0 1000 1000" data-size="21"><path transform="matrix(1 0 0 -1 91 930)" d="m474 860 106-17v-16l-31-17-3-156h166l30 29h16l59-46-3-16-17-12v-60c0-126-4-221-12-286-7-65-22-115-45-150-15-23-30-39-47-49-16-10-39-18-70-23l-13 2-8 33-84 37v16l100-13c1-1 4-1 8-1 27 0 48 14 63 41 16 27 27 61 32 102 9 73 14 153 14 240 0 29-1 74-3 133H546c-1-40-2-72-3-96s-5-58-12-103c-7-44-16-82-27-113s-27-66-50-103c-22-37-49-70-80-98-36-32-86-64-151-95l-9 9c47 32 88 67 121 105 34 39 60 76 78 111 18 36 32 77 42 124 11 47 17 89 20 125 3 37 4 81 4 134H302v23h177c0 35-2 104-5 206m-273-45 31 38h17l62-57-4-14-20-9-116-198c47-53 79-94 94-123 15-28 23-59 23-93 0-88-45-136-136-144l-7 5-3 31-65 29-1 17 71-7c25-3 44 4 58 19 15 15 22 37 22 64 0 58-27 124-82 199l72 220H63V27L53 13 10 0 0 8v836l66-29h135Z"/></symbol><symbol id="队_G" viewBox="0 0 1000 1000" data-size="21"><path transform="matrix(1 0 0 -1 60 953)" d="m242 890 69-51c5-4 7-8 7-12s-5-8-17-12c-16-3-30-13-41-29-31-53-67-119-108-197 32-24 61-50 88-78 25-28 41-56 49-84 7-28 10-50 8-67s-6-32-12-43-16-24-31-39c-14-15-41-30-82-45-6 20-16 35-31 45-15 11-35 21-61 32l4 15c35-8 61-13 76-17 14-3 27-2 39 2 12 3 23 13 33 27s14 35 12 64-13 58-31 86c-18 27-47 61-86 102l92 232H57V130l4-85c0-13-8-24-24-31C21 6 9 2 0 2l4 126v764l57-45h152l29 43m336-24c4 0 6-2 6-6s-2-6-6-7l-25-20c10-195 27-339 52-430 26-90 62-164 110-222 46-58 101-89 166-93V66c-44 0-73-3-86-11-12-6-22-14-29-26-49 46-90 97-123 154-34 56-60 124-79 203-18 78-28 205-31 381-12-209-31-355-56-436-26-81-67-149-125-203C292 76 221 34 137 0l-6 16c66 35 127 80 183 135s94 119 114 192c19 72 33 161 43 267 8 105 15 203 19 295l88-39Z"/></symbol><symbol id="阠_G" viewBox="0 0 1000 1000" data-size="21"><path transform="matrix(1 0 0 -1 56 966)" d="m693 927 57-45c5-3 8-7 8-14 0-6-13-15-39-29V575c1-124 6-213 15-267 9-55 20-96 32-123 10-27 22-48 37-63 14-14 23-9 25 16s5 67 10 127h21c0-50 0-86 2-110 2-23 3-45 4-65 0-20 4-35 14-47 9-10 12-18 8-23-5-6-16-6-33-2s-37 17-61 39c-23 22-44 48-61 79-16 29-30 75-43 138-12 63-19 163-21 299v287H475V558h68l33 41c37-31 56-50 57-57 0-7-5-10-18-10H475V149l4-90c-1-8-8-17-20-28-12-8-25-13-41-17l4 130v388h-76c-11-2-26-4-45-8l-20 34h141v302h-33c-15 0-29-2-43-7l-24 35h338l33 39m-451 4 65-47c5-6 7-11 7-14 0-4-5-8-13-14-16-3-30-13-41-29-31-53-67-119-108-197 32-24 61-50 88-78 25-28 41-56 49-84 7-28 10-50 8-67s-6-32-12-43-16-24-31-39c-14-15-41-30-82-45-6 20-16 35-31 45-15 11-35 21-61 32l4 15c35-8 61-13 76-17 14-3 27-2 39 2 12 3 23 13 33 27s14 35 12 64-13 58-31 86c-18 27-47 61-86 102l92 230H57V128l4-85c0-13-8-23-24-31S9 0 0 0l4 126v807l57-45h152l29 43Z"/></symbol><symbol id="阠_H" viewBox="0 0 1000 1000" data-size="21"><path transform="matrix(1 0 0 -1 43 960)" d="M53 850V10c0-7-7-10-22-10-4 0-11 1-19 4C4 9 0 17 0 27c0 11 1 26 3 45 4 15 7 46 7 96v686c0 25-3 47-10 66l61-43h142l31 37c24-18 43-32 56-43 6-6 9-12 9-17 0-4-6-8-17-12-9-5-21-10-36-14-31-85-64-167-100-246 36-27 65-53 86-78 19-22 34-48 44-76 11-24 17-50 17-78 0-34-5-60-15-79-5-18-16-33-33-44-12-12-34-21-67-28l-8 18c-4 10-9 16-16 19-13 10-37 18-72 24l4 21c26-14 49-21 70-21 24 0 42 3 52 10 13 7 22 17 26 29 8 15 12 37 12 64 0 24-4 47-12 69-6 24-18 48-35 72-14 23-39 49-74 78 37 106 64 195 82 268H53m275 13c26-6 63-9 111-9h295l30 39c48-34 72-56 72-65 0-11-16-24-47-39V451c0-56 4-110 13-159 6-48 15-89 27-125 3-10 8-15 13-15 6 0 9 3 11 9 10 18 27 62 49 132l12-12c-19-81-29-130-29-146 0-26 2-45 8-60 5-15 7-27 7-36 0-17-4-25-11-25-12 0-22 5-32 14-22 21-41 50-56 89-18 37-32 85-41 145-12 59-18 121-18 185v381H518V492h64l47 51c23-19 45-36 66-52 6-3 8-7 8-12 0-11-3-16-10-16H518V92c0-14 0-24 2-29 1-12 1-21 1-28 0-22-11-33-33-33-14 0-21 5-21 16 0 15 0 33 2 54 1 23 2 43 2 59v332h-26c-45-1-76-2-91-4l-22 43c29-7 66-10 113-10h26v336h-32c-52 0-84-1-93-4l-18 39Z"/></symbol><symbol id="阠_T" viewBox="0 0 1000 1000" data-size="21"><path transform="matrix(1 0 0 -1 52 953)" d="m348 812-19 42c41-6 71-8 91-8h296l34 37 40-27c13-8 20-16 20-23 0-11-13-20-39-30V478c0-36 3-81 8-134 7-75 19-132 37-170 4-9 7-13 11-13s9 8 15 24l37 109 18-7-25-104c-4-16-6-33-6-51 0-13 2-27 7-42 7-19 10-32 10-40 0-13-7-20-21-20-20 0-43 24-69 72-45 83-68 207-68 373v342H510V506h71l48 49 59-52c6-5 8-9 8-12 0-9-4-13-13-13H510V171c0-31 2-66 6-106 1-10 2-19 2-24 0-15-9-23-27-23-19 0-28 7-28 20v440h-38c-23 0-47-2-73-6l-19 42c41-5 72-8 92-8h38v311h-43c-22 0-46-1-72-5M52 834V154c0-34 2-70 6-107 1-11 1-19 1-25C59 7 50 0 33 0 15 0 6 7 6 21v811c-1 25-3 49-6 73l58-43h153l35 41 33-26c16-13 25-23 25-30 0-8-9-16-25-22l-14-6c-43-99-80-176-110-230 43-42 75-79 95-110 29-44 43-90 43-138s-9-83-29-107c-18-20-46-34-83-40-3 20-10 33-22 40-10 5-34 14-73 26l4 20c58-13 93-19 106-19 31 0 46 27 46 82 0 46-11 90-34 131-20 37-46 74-79 110 36 95 65 179 86 250H52Z"/></symbol><symbol id="阠_K" viewBox="0 0 1000 1000" data-size="21"><path transform="matrix(1 0 0 -1 61 939)" d="m860 272 17-6-33-178 22-68-10-9c-48 13-84 48-108 103-24 56-39 134-46 235-5 78-8 144-8 199v273H529V509h44l34 43h14l51-48v-17H529c-5-109-21-201-48-276-27-74-78-142-154-203l-11 11c56 63 94 129 113 197s31 158 36 271H318v22h147v312H311v22h376l30 30h16l57-52v-15l-34-19V577c0-91 3-176 10-257 3-36 8-72 16-108 9-36 17-54 25-54 5 0 10 8 17 25l36 89M63 822 56 11 5 0 0 5v873l66-34h135l35 30h12l52-61-7-16-34-6-110-218c53-45 89-85 110-121 21-35 32-76 32-122 0-90-50-138-150-144l-10 6-3 30-58 35 2 15 65-10c12-1 18-2 19-2 49 0 73 28 73 83 0 78-36 153-109 226l79 253H63Z"/></symbol><symbol id="阡_G" viewBox="0 0 1000 1000" data-size="21"><path transform="matrix(1 0 0 -1 79 942)" d="M676 804c-26-4-61-9-104-16V497h157l44 53 65-59c2-2 3-4 4-8 0-7-4-11-12-11H572V136l4-89c0-8-6-17-19-27-15-10-28-15-39-16l3 128v340H361c-13 0-32-3-54-8l-16 33h230v283c-63-8-131-15-203-23l-2 19c80 14 155 30 225 47 68 16 125 33 170 51 33-38 50-59 51-62 0-2-1-4-2-6-2-2-10-2-24 0-13 2-34 1-60-2m-422 80 72-51c6-4 8-8 6-14-2-4-8-7-18-11-13-4-24-10-31-18-6-6-17-22-35-49-18-25-47-75-90-148 42-28 74-55 96-82s36-56 43-86c6-31 8-55 6-71-2-15-7-29-14-42-6-14-16-28-27-41-12-14-35-30-71-47-5 20-16 35-31 45-15 9-42 17-80 25l2 19c33-4 59-7 76-9 18-3 33-2 47 4 12 3 23 11 33 25 11 12 15 35 14 68-3 34-12 64-27 90-16 26-48 59-96 100l103 224H53V126l4-89c0-8-7-16-20-23C23 5 11 0 0 0l4 124v760l53-41h164l33 41Z"/></symbol><symbol id="阡_H" viewBox="0 0 1000 1000" data-size="21"><path transform="matrix(1 0 0 -1 50 954)" d="M53 836V12c0-8-7-12-22-12-4 0-11 2-19 6C4 11 0 19 0 29c0 11 1 26 3 45 4 15 7 46 7 94v672c0 25-3 48-10 68l61-43h142l31 35c24-17 43-32 56-43 6-6 9-12 9-17 0-3-6-7-17-12-9-5-21-10-36-14-31-85-64-169-100-250 32-24 56-48 73-71 15-21 28-46 39-73 9-22 13-46 13-72 0-35-4-63-12-83-7-19-16-34-30-47-11-11-32-20-61-29-3 15-10 24-21 29-15 9-39 16-73 22l4 18c26-5 50-8 72-8 19 0 33 4 42 11 9 8 16 19 20 31 8 16 13 39 13 69 0 22-5 44-13 64-5 22-14 45-26 68-13 21-34 45-61 71 37 108 64 198 82 272H53m750 12c-43-14-87-27-132-38-20-7-40-12-62-16V490h166l45 53c26-17 50-35 72-53 5-3 8-7 8-11 0-12-5-18-15-18H609V90c0-14 1-23 2-28 2-13 2-22 2-29 0-22-10-33-31-33-14 0-21 6-21 18 0 13 0 30 2 52 1 23 1 43 1 59v332H396c-46-1-78-2-93-4l-22 43c29-7 67-10 115-10h168v297c-20-3-39-6-57-9-47-6-107-12-179-16l-4 21c39 3 80 7 121 12 42 6 82 14 119 25 40 9 74 19 103 31 29 9 52 18 71 28 17 10 31 19 43 29 25-15 46-30 64-43 3-2 5-5 5-8 0-9-5-13-14-13s-20 1-33 4Z"/></symbol><symbol id="阡_T" viewBox="0 0 1000 1000" data-size="21"><path transform="matrix(1 0 0 -1 56 953)" d="M613 798V496h160l48 50 59-52c6-5 8-9 8-13 0-9-4-13-13-13H613V162c0-32 2-67 6-107 1-11 2-19 2-24 0-16-9-23-27-23-19 0-28 7-28 20v440H387c-22 0-47-2-73-6l-19 42c41-5 72-8 92-8h179v295c-52-7-128-14-228-20l-2 20c126 15 215 29 269 43 77 20 138 44 184 70l47-51c4-4 6-8 6-12 0-6-4-9-11-8-4 0-7 0-10 1l-25 6c-49-15-110-29-183-42M52 834V153c0-33 2-69 6-106 1-11 1-19 1-25C59 7 50 0 33 0 15 0 6 7 6 21v811c-1 25-3 49-6 73l58-43h153l35 41 33-26c16-13 25-23 25-30 0-8-9-16-25-22l-14-6c-43-98-80-175-110-230 43-42 75-79 95-110 29-44 43-90 43-138s-9-83-29-107c-18-20-46-34-83-40-3 20-10 33-22 40-10 6-34 14-73 26l4 20c58-13 94-19 106-19 31 0 46 27 46 82 0 46-11 90-34 131-19 37-46 74-79 110 36 96 65 180 86 250H52Z"/></symbol><symbol id="阡_J" viewBox="0 0 1000 1000" data-size="21"><path transform="matrix(1 0 0 -1 66 932)" d="M1 0 0 863l74-39h128l17 35 74-47c9-5 13-10 13-15-1-5-6-10-17-14l-19-7-124-226c33-33 54-55 64-66 23-25 42-55 57-90s23-70 23-105c0-52-18-88-53-108-21-11-37-17-50-17-4 0-7 1-9 3s-4 9-6 21c-3 13-11 21-23 24l-52 13v15h115c8 21 12 45 12 72 0 42-10 86-31 132-13 29-39 62-76 100l90 252H66V10L1 0m269 475-14 27h270v231c-81-20-164-36-248-49l-1 18c158 40 303 93 436 159l72-51c7-4 10-8 10-13 0-9-4-12-13-11l-5 1-37 5c-51-17-101-32-152-45V502h144l50 53 85-58v-22H588V13L526 3v472H270Z"/></symbol><symbol id="阡_K" viewBox="0 0 1000 1000" data-size="21"><path transform="matrix(1 0 0 -1 70 949)" d="m204 845 30 32h14l54-51-3-13-23-6-119-228c95-83 142-168 142-256 0-51-12-89-37-114-24-24-60-41-109-50l-11 8-6 27-59 33 3 12 45-8c11-2 21-3 30-3 25 0 44 10 58 31 15 21 22 50 22 87 0 39-8 75-24 110-15 35-42 75-80 120l73 245H66L62 15 7 0 0 8v871l70-34h134m398-330h153l41 50h15l48-56v-16H602l-4-474-54-17-7 9v482H267v22h270v245c-90-16-179-26-268-29v15c103 15 191 34 262 55 71 22 150 54 235 96l70-54-6-13-37 3c-53-20-117-40-191-59V515Z"/></symbol></svg>