<svg xmlns="http://www.w3.org/2000/svg"><symbol id="顰_G" viewBox="0 0 1000 1000" data-size="21"><path transform="matrix(1 0 0 -1 40 970)" d="m256 941 74-29c3-2 3-5 2-8 0-1-1-1-2-2l-27-18v-68h49l29 37 47-43c2-2 4-6 6-10 0-4-3-7-8-7H303v-88h90l35 39 47-47c4-2 5-5 5-8 1-6-2-10-9-10H84c-10 2-27 0-53-5l-19 31h109v185l68-25c10-5 12-10 4-16l-25-13V705h88v236m-10-404v135l63-18c6-3 8-8 5-16l-23-11v-65c33 24 68 54 105 92l49-31c7-5 7-11 0-16-9 0-20-3-31-8-12-4-33-17-64-41-31-23-73-51-127-82-53-31-126-62-219-94l-4 18c57 25 104 48 141 68 35 20 70 43 105 69M14 488c50 50 93 106 129 168l58-20c4-9-2-16-17-19-17-13-37-31-61-57-23-25-55-53-98-86l-11 14m492 334 57-33h46l16 68H514c-21-2-35-6-45-12l-30 37h362l35 42 53-49c7-10 5-16-8-18H688l-47-68h130l24 31 57-33c3-4 5-7 5-8 0-5-9-13-27-25V597l4-47c0-9-6-17-18-23-9-6-21-10-35-10v30H553v-12c0-7-7-13-20-20-12-6-23-8-31-8l4 86v229m47-250h228v45H553v-45m0 70h228v51H553v-51m0 76h228v45H553v-45m-94-269c53 27 100 57 141 88l48-30c4-9-2-14-17-13-22-5-43-13-65-22-20-7-52-20-95-37l-12 14m236 58 4 16c35-4 72-13 112-25 38-13 63-26 74-39 11-15 15-28 11-39-2-12-9-19-21-20-10-2-21 4-33 18-11 13-29 29-57 47-26 16-56 31-90 42m-341-76h334l25 32 58-36c4-3 6-6 6-7 0-4-9-12-27-24v-86l4-94c0-7-5-15-14-23-8-6-21-10-39-12v39H412c-45-39-90-63-135-72l-6 12c37 20 66 40 86 60H242v-11c0-6-6-13-15-20-10-6-23-8-38-8l4 86v186l43-22h94c20 43 33 76 41 100l59-22c6-3 7-7 2-11-18-4-44-26-78-67M242 248h143c14 17 26 39 37 66H242v-66m233 66c-13-27-26-49-39-66h265v66H475m-233 26h194c7 20 13 42 19 66H242v-66m264 66c-5-24-12-46-22-66h217v66H506M4 142h463v73l74-20c2-2 3-4 4-6 0-4-2-6-6-6l-21-11v-30h302l37 45 57-53 6-3c0-8-5-12-14-12H518V65l3-27c1-7-6-16-21-26-14-8-26-12-37-11l4 60v58H86c-14 0-36-2-66-7L4 142Z"/></symbol><symbol id="顰_H" viewBox="0 0 1000 1000" data-size="21"><path transform="matrix(1 0 0 -1 41 961)" d="M205 922c30-6 54-12 73-18 7-2 11-6 11-10s-2-7-7-9c-7-4-15-7-24-10v-45h62l32 31c17-13 33-25 48-37 4-2 6-5 6-8 0-9-3-13-10-13H258v-74h101l35 35c18-14 36-27 53-40 4-3 6-6 6-9 0-9-4-14-12-14H258v-90c0-13 0-22 1-25 0-2 1-7 2-15l5 5c17 16 32 32 45 48 13 18 24 35 31 52 24-8 46-19 66-34 7-5 11-10 11-16 0-7-16-10-48-12-19-21-36-38-52-52-15-15-32-27-50-38-20-10-42-20-66-30-25-9-50-17-77-23-28-7-62-13-101-18l-9 21c45 7 80 15 107 25 27 8 53 19 76 31 4 2 7 4 10 6-1 3-1 5-1 8 0 12 0 20 1 26 1 4 2 17 2 41v90h-97c-46-1-78-3-94-7L0 740c23-6 51-10 86-11v64c0 34-2 61-6 78 30-6 54-12 73-17 7-3 11-7 11-11 0-3-2-6-7-9-7-4-15-7-24-10v-95h78v115c0 34-2 60-6 78M103 668c28-10 52-19 73-28 3-4 5-8 5-11 0-6-6-10-16-13-12-2-21-3-26-3-9-12-20-24-32-35-11-10-23-20-36-28-13-9-29-17-48-27L8 533c15 13 27 25 38 36 8 10 17 21 25 33s15 23 21 34c4 10 8 20 11 32m315 225c29-8 67-12 114-12h273l37 40c20-16 39-30 57-44 5-3 7-7 7-10 0-9-4-13-12-13H676c-5-10-11-19-17-26-6-10-14-20-22-29h156l34 32c33-23 50-40 50-49 0-6-10-14-29-24V591c0-15 0-25 1-29 0-6 1-11 1-16 0-14-11-23-34-26-10 0-15 3-15 9v16H598c19-7 34-13 46-19 4-2 6-5 6-10 0-9-16-14-48-14-16-9-33-18-51-26-16-8-34-14-53-19-19-6-37-10-53-12l-15 20c22 5 42 13 59 22 18 8 34 18 50 29 13 9 24 19 34 29h-53v-8c0-6-4-12-12-16-10-3-18-5-25-5-8 0-12 4-12 13 0 3 0 7 1 14 0 15 1 29 1 41v178c0 32-1 54-2 66l61-29h69c3 11 6 21 8 30 3 9 5 17 6 25h-83c-46-2-78-4-94-7l-20 46m102-321h281v51H520v-51m0 78h281v51H520v-51m0 79h281v42H520v-42m204-198c24-4 49-10 73-17 25-8 43-15 56-20 12-6 20-11 24-15 5-4 9-8 12-12 2-3 3-7 3-10 0-16-7-23-21-23-3 0-6 1-10 4-4 1-9 5-14 9l-29 18c-10 5-23 11-39 17-16 8-39 18-68 29l13 20m-386-8c55-12 83-23 83-33 0-9-15-14-46-16-14-15-30-29-48-42h372l34 32c34-24 50-40 50-49 0-6-10-15-29-24V276c0-15 0-24 1-29s1-10 1-16c0-13-11-22-33-26-11 0-16 3-16 10v21H408l-3-3c-16-16-33-30-51-42-22-13-47-25-77-36-15-6-33-12-51-16h313v2c0 34-2 60-6 78 33-5 61-13 82-23 8-4 12-8 12-14 0-7-3-11-10-13-9-7-19-11-31-12v-18h207l46 51 70-53c6-4 9-8 9-12 0-9-5-14-16-14H586V91c0-18 1-29 2-35V21c0-14-10-21-29-21-16 0-24 9-24 26 0 8 1 19 3 32 1 12 1 23 1 33v20H114c-46-1-78-3-94-7L0 150c29-7 67-11 114-11h65l-7 10c49 13 86 25 110 38 24 11 44 24 63 39 4 3 8 7 11 10H195v-9c0-7-4-12-11-16-10-4-18-6-25-6-8 0-13 5-13 14 0 2 1 7 1 13 1 15 1 29 1 41v122c0 31 0 54-2 66l62-29h89c13 13 22 27 28 41 5 13 10 30 13 50M195 264h185c3 4 6 8 8 11 8 13 15 28 19 45H195v-56m260 56c-4-14-9-26-15-35-3-8-6-15-10-21h277v56H455m-260 28h218c2 15 3 34 3 56H195v-56m272 56c-1-21-3-40-6-56h246v56H467Z"/></symbol><symbol id="顰_T" viewBox="0 0 1000 1000" data-size="21"><path transform="matrix(1 0 0 -1 38 967)" d="M256 547h-9c-17 0-25 7-25 21 0 1 1 9 2 24 2 32 4 49 4 51v70H92c-24 0-49-1-73-5L0 750c37-5 68-8 92-8v65c0 38-1 64-4 78l51-12c26-6 38-13 38-22 0-7-9-13-26-18l-12-5v-86h78v115c0 38-1 64-4 78l48-12c25-6 37-13 37-23 0-7-8-14-25-19l-12-4v-35h63l35 35 44-35c9-7 14-13 14-18 0-7-4-10-10-10H261v-72h100l39 35 44-33c10-7 15-14 15-19 0-8-4-12-13-12H273V561c34 34 63 75 86 122l39-18c21-11 32-20 32-29s-9-13-27-13h-18c-61-84-135-139-223-164l49-30h90c19 27 34 58 45 93l41-13c23-7 34-15 34-23 0-6-10-10-28-12l-14-2c-15-15-31-29-49-43h375l30 35 35-24c14-9 21-17 21-24 0-6-11-14-32-26l-2-91c0-11 1-28 3-51 1-10 2-17 2-22 0-16-11-24-33-24-12 0-18 4-18 12v18H423c-34-30-72-53-115-69-15-5-36-12-63-18h266c-1 25-2 44-2 57-1 6-1 13-2 18l54-12c27-7 41-14 41-22 0-10-8-17-24-21l-20-5v-15h248l47 48 58-52c6-5 8-9 8-13 0-9-4-13-13-13H558V89c0-13 1-28 3-46 1-12 2-20 2-23 0-13-11-20-31-20-14 0-21 8-21 23v92H92c-22 0-46-2-73-5L0 154c9-1 15-2 20-3 30-4 54-6 72-6h131l-6 11c62 20 111 45 148 76H199v-12c0-12-9-19-28-19-16 0-25 8-25 23l7 99v133c-52-13-96-22-132-27l-4 17c71 17 127 35 168 56 23 12 47 27 71 45m-57-288h191c10 16 18 35 26 58H199v-58m266 58c-7-24-16-43-25-58h271v58H465m-266 28h221c4 18 6 37 8 56H199v-56m277 56c-2-19-5-37-7-56h242v56H476M113 679l40-17c20-9 31-18 31-26 0-7-10-11-28-13l-17-3c-27-33-64-65-113-96l-12 15c49 40 82 87 99 140m335 181-19 41c38-5 69-8 92-8h300l38 40 57-42c5-4 8-8 8-13 0-8-5-12-13-12H688c-13-19-27-38-43-56h162l29 35 36-24c13-9 20-17 20-25 0-3-1-6-4-8-3-3-8-6-14-10-4-2-8-5-15-8V653c0-37 1-62 2-75 1-9 2-16 2-21 0-16-11-24-32-24-12 0-18 4-18 12v12H617l25-12c14-7 22-14 22-19 0-8-11-11-33-11h-14c-40-34-91-60-152-79l-7 16c34 17 59 32 75 44 17 13 38 33 62 61h-63v-7c0-13-9-20-28-20-16 0-25 8-25 23l6 100v189l60-32h70c3 9 5 15 7 19 5 14 9 26 13 37H521l-35-3c-14-1-27-2-38-3m84-276h281v51H532v-51m0 78h281v46H532v-46m0 72h281v49H532v-49m198-193c57-12 96-21 118-30 28-10 42-26 42-47 0-14-7-21-20-21-4 0-7 1-12 3-1 0-12 9-32 26-14 13-48 29-100 51l4 18Z"/></symbol><symbol id="顰_J" viewBox="0 0 1000 1000" data-size="21"><path transform="matrix(1 0 0 -1 48 950)" d="m8 701-8 23h99v129l77-10c7-1 11-5 11-12s-4-11-11-13l-22-6v-88h68v176l77-9c13-1 20-5 20-11 0-7-7-13-20-16l-21-5v-49h59l30 34 61-40v-18H278v-62h78l30 38 66-45v-16H278V582c25 19 56 48 91 87l55-40c7-5 11-10 11-15 0-7-4-10-11-10-3 0-7 0-12 1l-12 2c-51-39-84-63-98-72-45-30-106-60-183-91-38-15-70-25-95-32l-6 15c99 41 167 77 202 106-3 13-12 22-28 29l-27 5v18h57v116H8m16-574-8 24h277c31 24 58 49 79 74H217v-28l-61-10v257l68-19h95l26 96 74-31c6-3 9-6 9-11s-4-9-12-10l-22-3-41-41h70l-4 14c79 33 133 62 161 86h-53v-20l-55-8v294l59-27h66l4 63H444l-9 24h348l38 45 80-52v-17H677l-44-63h145l22 29 62-35c6-3 9-7 9-11 0-6-5-10-15-11l-14-2V517l-57-9v17H597l36-30c5-5 8-11 8-16 0-6-4-9-11-9h-10l-21 4c-44-17-97-33-160-49h259l25 26 58-36c7-5 11-10 11-16 0-5-4-8-13-11l-18-5V211l-61-8v22H550l4-2c5-3 7-6 7-9 0-5-4-9-11-12l-12-6v-45h228l46 53 91-56v-21H538V8l-60-8v127H24m193 123h171c7 13 18 34 31 64H217v-64m0 149v-61h205c7 22 10 42 9 61H217m205-174c-24-26-54-51-89-74h145v74h-56m50 89c-7-21-18-42-32-64h260v64H472m16 85c-1-17-5-38-10-61h222v61H488m39 150h258v51H527v-51m0 76h258v44H527v-44m0 115v-47h258v47H527M11 536c18 15 40 38 65 68 22 27 40 51 55 72l56-30c7-5 11-9 11-14 0-8-4-12-12-11-1 0-3 0-5 1l-20 3c-19-17-43-37-74-59-23-17-46-31-67-40l-9 10m689-22c47-3 89-13 128-30 41-18 62-39 62-63 0-7-2-12-7-17-4-5-9-7-15-7s-14 3-25 10c-3 2-17 13-42 33-35 22-58 35-67 40-20 9-32 15-37 18l3 16Z"/></symbol><symbol id="顰_K" viewBox="0 0 1000 1000" data-size="21"><path transform="matrix(1 0 0 -1 52 948)" d="m428 606-5-14h-27c-50-49-100-87-150-115-49-27-115-54-198-80l-6 14c49 22 97 48 143 79l-13-3-8 5v22l-54 31 3 12 51-4c26-2 39 10 39 36v98l77-11v-13l-19-11v-80c0-14-1-23-4-28 35 31 70 67 104 108l67-46m247-236 29 30h12l51-46v-12l-19-13-1-143-6-11-48-15-11 6v26H556v-78h231l38 42h15l44-49V92H556l1-74-6-9-53-9-5 5v87H14v22h276c31 17 61 43 89 78H208v-20l-7-9-46-13-12 4-1 238 70-22h85l42 95 73-36-3-12-24-1-58-46h348M334 114h159v78h-60c-28-33-61-59-99-78m348 233H492c-3-14-7-31-14-52h204v52m0-75H472c-5-15-13-34-24-57h234v57m-255 75H208v-52h209c5 21 8 38 10 52m-15-75H208v-57l182 1c9 21 17 40 22 56M9 504l-9 11c39 43 72 95 100 157l72-35-2-13-23-3c-43-44-89-83-138-117m424 320v23h363l34 35h14l51-44v-14H667l-53-53h144l25 22h13l46-40v-10l-16-11 1-218-4-14-51-16-9 3v19H544c0-7-2-14-5-22l-45-19-9 5v319l56-18h45l14 53H433m330-75H544v-53h219v53m0-76H544v-63h219v63m0-86H544v-59h219v59M442 387l-4 10c53 29 99 63 139 103l64-45-5-14-25 3c-75-31-131-50-169-57m273 86 8 10c55-7 93-15 113-26 20-10 30-25 30-46 0-23-7-35-20-36-5 0-10 2-14 7-25 32-64 62-117 91M80 723v129l86-14v-11l-26-15v-89h63v172l82-12v-11l-24-12v-42h73l32 31h13l38-41v-13H261v-72h108l32 34h14l37-43v-13H0v22h80Z"/></symbol><symbol id="顱_G" viewBox="0 0 1000 1000" data-size="21"><path transform="matrix(1 0 0 -1 25 979)" d="M324 743c4-4 6-6 6-8 1-2-1-4-4-7l-17-10v-28l56 4 26 35 45-35c7-6 7-11 0-15l-127-10v-16c1-13 5-21 13-23 7-1 20-1 39-2h69c21 0 35 2 45 6 7 2 13 9 15 19 2 11 3 27 4 49h16c2-12 4-23 6-35s9-23 23-31c-4-15-12-26-23-33-10-7-28-10-53-10H309c-20 3-32 11-38 25-3 12-5 26-5 41v6l-82-8c-8-2-16-4-24-8l-17 30 123 8v68l58-12M180 585l43-33h218l20 25 45-25c8-4 12-9 12-14 0-3-9-10-26-21V403l4-37c0-12-6-20-17-25-12-7-22-10-30-10v25H225c-1-7-4-13-10-17-11-7-24-10-39-10l4 94v162m45-205h89v62h-89v-62m132 0h92v62h-92v-62m-132 86h89v62h-89v-62m132 62v-62h92v62h-92m-91 430 68-20c6 0 9-3 10-7 0-2-2-4-6-6l-25-12v-37h128l32 37 50-49c2-1 2-2 2-4 1-6 0-8-4-7H313v-65h160l23 27 45-35c8-4 11-8 10-13 0-5-4-8-12-10-14-3-25-8-35-16-10-6-24-17-41-33l-10 8 24 49H127V601c1-137-5-248-16-334-9-86-43-162-99-226L0 49c42 73 66 158 72 253 7 95 9 195 8 299v230l59-43h127v170m-98-635 43-31h242l24 25 35-29c6-4 9-8 11-12 0-4-7-9-21-15V157l62 6 4-16c-226-31-352-49-377-55-23-3-45-12-66-26l-25 57 68 6v194m41-191 59 4v133h-59V132m98 8 50 6v123h-50V140m89 9 65 4v116h-65V149m194 608 55-31h46l26 128h-98c-21-1-36-5-45-11l-33 37h316l32 41 52-49c8-10 6-16-7-18H771l-56-128h98l25 33 57-39c1-4 3-7 3-8 0-4-10-14-31-29V300l4-78c1-9-4-16-16-22-9-6-21-10-35-10v34H639v-6c0-10-7-18-20-24s-24-8-33-7l4 107v463m49-508h181v139H639V249m0 164h181v137H639V413m0 162h181v125H639V575M441 16c79 49 155 109 229 180l51-37c6-5 5-10-2-15-18-2-31-5-37-8-6-2-26-16-63-40-36-23-92-55-168-96l-10 16m309 147 8 16c47-19 87-37 119-54 31-17 52-33 62-49 11-15 13-29 8-41-6-12-13-17-23-17s-20 7-29 21c-10 14-26 32-47 55-21 21-54 44-98 69Z"/></symbol><symbol id="顱_H" viewBox="0 0 1000 1000" data-size="21"><path transform="matrix(1 0 0 -1 38 957)" d="M238 914c29-4 52-9 71-15 7-2 11-6 11-12 0-4-3-6-8-8-8-5-15-8-23-10v-33h92l37 35c18-12 35-24 51-38 4-3 6-5 6-7 0-10-4-15-10-15H289v-57h160l26 29c20-15 40-30 57-46 2-1 3-3 3-5 0-4-6-8-18-11-8-2-16-4-25-6-8-6-16-12-25-18-8-7-17-14-28-21l-11 10c6 7 11 15 14 21 6 7 9 14 11 22H264v-71l83 10 24 39 53-35c2-2 4-5 4-8 0-7-4-12-10-14l-154-24v-15c4-14 34-21 90-21 17 0 54 1 111 4 17 0 26-6 27-18-2-13-13-21-32-23-22-4-57-6-106-6-47 0-81 4-100 14-20 7-33 20-37 37v22l-57-9-21-7-26 33 35 7 69 8v77H101l-1-6V461c0-38-2-75-4-109-2-32-5-63-9-95-4-26-10-49-17-69s-15-39-24-58c-8-15-20-31-36-48L0 90c7 15 12 30 18 46 5 15 10 30 15 46 4 18 8 39 11 63 3 28 5 57 6 86 2 38 3 82 3 130 0 135-1 244-4 326l49-33h144v82c0 35-1 61-4 78m-74-381 53-29h197l25 29c33-19 49-32 49-39 0-6-9-14-27-25V348c0-13 1-21 2-24 1-4 2-9 2-13 0-13-10-21-29-24-12 0-18 2-18 6v8H207v-4c0-6-4-10-11-13-9-3-17-5-22-5-7 0-10 4-10 10v244m43-205h82v65h-82v-65m125 0h86v65h-86v-65m-125 90h82v61h-82v-61m125 61v-61h86v61h-86M121 275l46-25h269l29 29c30-19 45-32 45-39 0-6-9-14-28-25v-76c15 4 28 8 39 11v-21c-56-17-114-32-174-44-61-14-114-26-160-35-28-7-51-11-70-13-9-25-16-37-21-37-4 0-15 26-32 78 13 0 32 1 57 3v194m43-191c19 2 39 4 61 7v132h-59l-2-4V84m104 14c20 4 41 7 62 11h2v114h-64V98m107 18c23 3 44 7 64 12v95h-64V116m143 755c28-6 66-10 113-10h176l43 47c23-17 46-33 67-48 5-3 7-7 7-12 0-11-3-16-10-16H724c-7-24-15-46-24-64-10-25-23-51-37-79h157l30 43c23-15 40-29 50-42 7-5 10-10 10-14 0-6-12-16-35-30V348c0-48 1-79 2-95 1-18 2-34 2-46 0-8-4-15-11-20-10-5-17-7-22-7-12 0-18 4-18 13v14H664c15-9 29-18 43-27 3-3 4-7 4-12 0-4-7-6-22-6h-29c-17-27-33-49-49-66-16-20-33-37-50-51-19-16-38-30-57-41l-12 25c28 22 51 44 69 66 19 21 34 42 45 62 10 15 18 31 24 50h-38v-21c0-10-6-14-18-14-6 0-14 2-23 6-5 6-8 14-8 23 0 11 1 25 2 44 3 16 4 47 4 95v324c0 26-2 49-6 68l57-43h35c9 27 17 54 23 82 6 20 10 41 12 61h-39c-46-1-76-2-92-4l-21 43m74-635h236v133H592V236m0 160h236v125H592V396m0 151h236v115H592V547m164-371c22-9 43-20 64-33 20-15 36-28 48-39 10-12 16-21 20-28 4-8 8-17 10-25 2-6 2-12 2-18 0-17-6-25-19-25-1 0-4 3-7 10-4 3-8 9-13 17-9 13-17 24-23 34-10 10-22 21-35 35s-32 32-57 54l10 18Z"/></symbol><symbol id="顱_T" viewBox="0 0 1000 1000" data-size="21"><path transform="matrix(1 0 0 -1 28 960)" d="m252 728 23-9c14-5 20-9 20-13 0-8-5-13-16-17l-23-6v-34l71 11 29 40 50-31c7-4 10-9 10-14 0-7-3-10-10-11l-150-24v-11c0-12 7-19 20-21 16-3 44-5 87-5 28 0 55 4 82 10h2c6 0 13-4 19-10 5-5 7-10 7-15 0-8-5-14-15-18-15-6-57-8-126-8-38 0-67 3-85 10-25 9-37 27-37 53v9l-33-5c-14-2-29-7-43-14l-37 37c22 0 42 1 58 3l55 7v86H92V439c0-85-4-162-13-230C68 131 46 64 13 7L0 16c21 60 34 130 41 207 5 64 7 137 7 218v272c0 20-1 45-4 76l53-35h136v88c0 37-2 63-5 78l53-12c24-5 36-12 36-21 0-8-6-14-20-18l-18-6v-30h97l41 42 51-42c8-7 11-12 11-17 0-8-5-12-16-12H279v-50h155l25 28 36-28c12-9 17-17 17-23 0-7-7-11-22-13l-16-3c-15-13-32-26-49-39l-10 7c8 15 15 30 22 45H252m-97-201 56-28h179l30 35 35-24c14-10 21-18 21-24s-11-14-32-26v-83c0-13 1-30 3-51 1-10 2-17 2-22 0-16-11-24-33-24-12 0-19 4-19 12v8H202v-5c0-13-10-19-29-19-17 0-25 7-24 22l2 31 1 30 3 38v130m47-200h73v62h-73v-62m120 0h75v62h-75v-62m-120 88h73v56h-73v-56m120 56v-56h75v56h-75M126 281l56-31h238l26 35 33-25c14-10 21-17 21-24 0-5-10-14-32-26v-73c9 3 22 7 37 11l6-19c-43-17-101-34-176-53-6-2-74-16-205-45-2-4-3-7-4-9-5-15-10-22-16-22-7 0-13 10-19 31L78 76l48 4v201m46-198c19 3 37 5 56 7v132h-56V83m100 15c18 2 36 5 54 9v115h-54V98m98 17c17 3 35 8 54 12v95h-54V115m155 700-19 42c40-6 70-8 92-8h231l48 49 59-52c6-5 8-9 8-13 0-8-4-12-13-12H747c-17-44-40-85-68-123h156l33 36 39-26c13-8 20-16 20-23 0-9-12-19-37-30V300c0-4 1-30 4-80l2-29c0-19-11-28-33-28-14 0-20 4-20 13v25H668l28-20c15-12 23-21 23-28s-10-11-29-11h-21C615 82 553 36 483 3l-7 18c81 54 137 114 168 180h-54v-20c0-12-8-18-25-18s-26 6-26 19c0 1 0 3 1 6 2 54 4 90 4 107v376c0 18-2 39-6 63l61-36h52c4 9 7 15 9 19 14 32 25 67 33 104h-95c-21 0-45-2-73-6m65-586h253v134H590V229m0 163h253v126H590V392m0 152h253v125H590V544m170-369c116-50 174-96 174-136 0-19-8-28-24-28-9 0-18 8-28 25-24 41-67 82-128 123l6 16Z"/></symbol><symbol id="顱_J" viewBox="0 0 1000 1000" data-size="21"><path transform="matrix(1 0 0 -1 43 953)" d="M0 45c32 71 48 160 48 266v445l69-39h127v188l80-5c9-1 14-5 14-14 0-5-5-10-14-15l-22-12v-59h90l38 44 58-51v-19H302v-57h154l14 23 71-50c7-5 11-10 11-15 0-11-6-16-18-17l-22-2-52-44-15 8 15 70H271l31-8c9-2 14-7 14-14 0-4-4-8-13-12l-11-5v-33l40 4 37 44 59-48v-14l-136-11v-29c0-4 2-8 5-11 1-2 7-3 17-3h131c11 1 19 8 24 21l15 47h18v-60c1-7 10-12 28-15-5-11-10-19-15-24-8-8-22-12-41-12H271c-24 1-35 14-34 40v42l-90-6-13 23 103 9v75H111V353c-1-117-31-223-90-316L0 45m548 48C423 68 284 46 131 27l-3-14c-1-8-5-12-12-12-5 0-10 5-15 14L71 76l56 3v187l53-26h232l10 22 54-35c8-5 12-10 12-16 0-5-4-10-12-13l-11-6v-86l78 8 5-21M182 83l36 2v129h-36V83m89 131V90l38 2v122h-38m92 0V97l47 4v113h-47m-210 53v226l52-31h188l16 28 60-42c5-3 7-6 7-10 0-5-2-8-7-9l-15-6V282l-55-11v17H205v-13l-52-8m52 46h69v54h-69v-54m0 124v-44h69v44h-69m122-124h72v54h-72v-54m0 124v-44h72v44h-72M480 14c35 29 62 54 80 73 19 21 44 54 74 101l62-31c11-6 17-12 17-17 0-9-8-15-24-17l-22-3C627 84 570 44 495 0l-15 14m9 840h305l46 51 73-63v-13H739l-55-153h117l22 37 64-47c7-4 10-9 10-14s-5-10-14-13l-21-8V208l-64-10v31H620v-45l-60-8v534l56-34h34c7 41 10 92 11 153H504l-15 25m131-601h178v125H620V253m0 271V405h178v119H620m0 127V551h178v100H620m110-464c41-15 81-37 119-64 41-30 62-57 62-81 0-21-9-32-27-32-6 0-12 2-18 6-3 2-12 15-28 40-7 13-28 37-65 72-16 15-33 30-52 45l9 14Z"/></symbol><symbol id="顱_K" viewBox="0 0 1000 1000" data-size="21"><path transform="matrix(1 0 0 -1 52 935)" d="m37 746 69-30h130v154l91-13v-15l-27-11v-27h103l28 36h15l35-46v-10l-181 1v-69h161l19 23 15 1 49-51-5-11-31-2-61-37 17-7v-15l-175-17c0-24 1-39 4-44s11-8 26-8h82c19 0 32 4 41 13s18 24 29 47l14-4-2-55 18-13v-13c-19-15-41-23-66-23H314c-38 0-62 3-71 10s-14 22-14 44v40l-109-11-1 21 110 12v66l80-12v-14l-21-6v-28l95 8 22 29h12l16-10 26 45H104l2-178c0-115-7-209-20-281S49 90 14 16L0 22c29 111 43 269 43 473 0 69-2 152-6 251m74-488 61-27 246 1 30 23h14l43-33v-14l-18-8v-79l46 5 2-16-429-86L96 0H84L56 73l55 5v180m99-48h-41V86l41 3v121m110 0h-53V97l53 5v108m107 0h-49V110l49 5v95m-25 257 24 20h13l44-36v-13l-19-16 1-132-5-13-45-10-10 7v23H195c0-6-2-13-7-20l-45-9-8 7v219l66-27h201m3-87h-79v-61h79v61m0 65h-79v-44h79v44m-136 0h-74v-44h74v44m0-65h-74v-61h74v61M463 16l-13 11c33 17 60 37 82 60 23 23 50 59 81 106l69-47-4-13-26 2C599 82 536 43 463 16m51 804h287l33 38h14l45-46v-14H742l-64-132h117l28 30h14l46-41v-11l-18-18-1-401-5-12-50-14-9 5v26H616v-19l-5-7-32-14-21 7v491l58-22h41l20 132H514v22m286-176H616V535h184v109m0-130H616V401h184v113m0-134H616V252h184v128m-74-213 8 11 71-30c61-25 91-55 91-92 0-9-2-18-7-26s-11-12-19-12c-5 0-9 2-11 5-3 3-13 18-30 45s-52 60-103 99Z"/></symbol><symbol id="顲_G" viewBox="0 0 1000 1000" data-size="21"><path transform="matrix(1 0 0 -1 26 982)" d="M154 933c1-30-3-56-11-79-10-24-23-41-38-50-14-10-27-13-39-8-12 4-17 12-13 23 2 11 11 21 27 28 15 7 27 17 37 31 8 13 15 31 22 55h15m102 31c45-12 70-20 72-24 2-3 1-6-2-9-3-2-8-5-15-8-7-2-12-8-16-18-3-9-10-26-22-51l69-21c29 33 54 64 76 96 34-20 53-32 55-33 2-3 3-6 2-8-2-2-6-3-12-4-7-1-19-6-37-16s-38-23-61-41c41-13 71-24 88-33 18-9 31-20 41-33 9-12 11-24 6-35s-12-16-21-16c-10 1-20 7-30 19-9 13-28 29-56 49-29 20-71 39-127 59-29-45-67-80-116-106-46-25-95-41-146-48l-4 15c45 11 90 32 135 63 45 30 75 63 92 97 15 36 25 71 29 106m-49-412 6 11c27-8 49-17 64-27 16-10 26-21 30-33 2-12 1-22-4-29-6-9-14-13-24-12-9 1-16 6-19 16-4 9-8 20-12 33-4 11-18 25-41 41M2 450h449l33 37 49-43c2-2 3-6 4-9 1-5-4-8-16-8H80c-14 0-33-3-59-8L2 450m62-47 49-29h289l28 29 50-31c8-4 12-8 12-14 0-2-10-9-29-21V151l4-73c0-8-5-15-16-21-10-6-21-10-35-12v43H111V64c0-7-6-15-17-21-13-7-24-9-33-8l3 105v263m47-290h305v236H111V113m63 214 45-27h80l23 25 41-29c8-4 12-9 12-14 0-2-8-9-25-19v-45l4-43c0-9-5-16-16-22s-22-9-33-11v31h-86v-12c0-6-6-13-18-19-10-6-21-9-31-9l4 57v137m45-129h86v76h-86v-76m330 553 56-33h55l24 136H564c-25-1-43-5-52-11l-22 37h360l35 45 58-53c8-8 6-14-7-18H736l-50-136h140l24 39 64-43c1-4 2-7 2-8 2-4-8-14-29-29V327l4-84c0-8-6-15-18-21-10-6-21-9-35-10v35H600v-12c-1-7-8-14-22-19-13-7-24-10-33-10l4 106v439m51-479h238v127H600V272m0 153h238v121H600V425m0 146h238v121H600V571M426 16c72 56 142 124 209 204l56-39c6-5 6-10-2-16-18-1-31-3-39-8-7-4-28-20-60-46-31-28-83-65-154-111l-10 16m314 171 8 15c47-21 85-41 115-58 28-17 47-34 59-52 10-18 12-33 6-47-6-13-15-20-26-20-9 2-19 10-29 24-8 15-21 35-39 58-18 22-49 48-94 80M162 714c1-29-3-55-12-76-9-22-22-39-37-49-14-10-27-13-39-8-12 4-17 12-13 23 1 12 9 22 25 30 15 8 27 17 37 29 10 11 18 28 23 51h16m94 49c45-12 70-20 72-24 2-3 1-6-2-10-3-1-8-4-15-7-7-2-12-8-16-18-3-9-10-26-22-51l69-21c23 27 45 55 66 86 35-20 53-31 55-33 2-3 3-6 2-8-2-2-6-3-12-4s-17-4-31-10-33-19-57-37c41-13 71-24 90-33 18-9 31-20 41-33 9-12 11-24 6-36-5-10-12-15-22-15s-20 7-31 19c-9 13-28 29-56 49-29 20-71 39-127 59-29-45-67-78-116-100-46-21-95-37-146-47l-4 16c45 12 90 31 135 58 45 28 75 59 92 94 15 35 25 71 29 106Z"/></symbol><symbol id="顲_H" viewBox="0 0 1000 1000" data-size="21"><path transform="matrix(1 0 0 -1 37 953)" d="M86 883c14-6 26-12 37-19 12-5 22-10 29-15 8-6 13-10 16-15 3-3 4-7 4-11 0-11-2-20-5-26-5-8-11-12-19-12-3 0-6 1-8 3-4 1-6 5-8 12-3 8-7 17-14 25-6 8-12 15-19 23-7 7-16 15-29 23l16 12m118 23c29-4 53-8 72-13 10-3 15-7 15-11 0-5-4-10-12-13-7-4-15-8-23-11-1-17-3-31-6-44 15 7 28 13 39 20 19 9 34 18 44 26 10 9 20 20 27 31 22-13 40-24 56-35 2-2 3-4 3-8 0-6-5-8-15-8-7 0-15 0-25 2-14-9-29-17-45-24s-31-13-46-18c-16-6-31-10-47-13-2-8-5-14-8-19 32-8 59-15 82-22 29-9 51-17 66-23 16-7 28-12 34-16 6-3 10-7 13-11 2-3 3-6 3-8 0-13-6-20-17-20-4 0-9 1-13 2-5 1-13 5-24 12-14 9-30 18-47 26-16 8-35 17-56 25-16 7-33 13-52 18-2-2-3-4-4-5-11-14-25-26-43-36-18-11-39-20-63-27-25-9-54-15-87-19l-5 19c31 4 57 10 78 18 19 7 36 16 52 27 16 10 29 21 38 34 8 12 14 25 18 39 4 13 6 26 6 38 0 28-3 50-8 67M59 641c15-6 29-11 42-16s24-10 33-15c8-4 14-8 17-11 4-4 5-7 5-10 0-12-1-21-5-26-5-8-11-12-18-12-5 0-8 0-11 2-3 1-6 5-8 11-4 8-9 16-15 23-8 7-15 14-23 20-8 7-19 14-33 22l16 12m143 58c31-4 56-9 75-14 11-3 16-7 16-12s-4-10-12-13c-7-4-15-8-24-11-1-20-3-38-7-53 17 6 31 12 43 18 20 9 35 18 46 26s20 18 28 28c23-13 43-25 59-36 2-1 3-4 3-9s-5-8-16-8c-7 0-16 1-26 2-15-8-31-15-48-21-16-7-32-12-48-16-17-5-33-9-49-12-2-7-4-13-6-17 31-8 58-16 81-25 31-10 54-19 71-27s29-14 36-20c7-3 12-7 14-11s3-7 3-10c0-16-6-24-19-24-5 0-9 0-14 2-6 2-14 6-26 14-15 11-32 22-51 31-17 10-36 20-59 30-15 6-30 12-47 18-4-4-7-8-9-11-12-17-28-31-47-42-20-13-43-24-68-33-28-9-60-17-95-21l-6 19c35 6 64 13 86 23 21 8 40 19 58 31 17 13 31 27 41 41 9 15 15 31 19 48 5 16 7 31 7 45 0 29-3 53-9 70m7-219c11-6 21-13 29-20 10-7 18-13 24-19s10-12 12-16 3-8 3-13c0-12-1-21-4-27h122l40 44c22-17 43-33 62-48 5-3 7-6 7-10 0-9-5-14-14-14H118c-46-1-78-3-95-6L4 396c29-7 67-11 114-11h119c-2 10-5 19-9 28-5 9-10 18-15 26-5 9-12 18-22 28l18 13M57 336l61-29h273l34 32c33-24 50-40 50-49 0-6-10-15-30-24V91c0-15 1-25 1-29 1-6 1-11 1-16 0-14-11-23-33-26-10 0-16 3-16 9v16H105V21c0-6-3-11-11-15-10-4-18-6-25-6-8 0-12 5-12 14 0 2 0 7 1 13 0 15 1 29 1 41v202c0 31-1 54-2 66m48-264h293v207H105V72m47 183 57-26h95l31 28c31-22 46-37 46-45 0-6-9-13-27-23v-40c3-2 7-5 9-7 3-2 4-3 4-5 0-9-2-14-7-14H197v-5c0-6-3-11-10-14-10-4-17-6-23-6-8 0-12 4-12 12 0 2 1 7 1 13 1 14 1 27 1 38v32c0 30 0 50-2 62m45-105h114v51H197v-51m280 704c28-8 66-12 114-12h218l43 48c23-18 45-35 66-51 5-3 8-7 8-11 0-9-5-14-15-14H715c-7-22-14-43-21-60-7-22-17-45-29-68h146l33 41c24-15 42-29 53-42 5-5 7-9 7-13 0-6-12-16-37-31V342c0-48 1-80 3-96 1-18 1-33 1-45 0-10-3-18-11-23-9-4-17-6-23-6-11 0-17 4-17 13v16H657c17-10 31-19 43-27 3-2 4-5 4-10 0-6-6-10-17-10-9 0-19 1-31 2-17-26-35-48-53-65-18-20-36-37-53-50-22-18-43-31-65-41l-12 21c31 23 57 45 78 67 21 21 39 42 52 60 9 17 18 34 25 53h-54v-25c0-8-5-12-15-12-6 0-14 2-24 6-8 6-12 14-12 23 0 12 1 27 3 46 3 15 4 46 4 95v324c0 27-2 50-7 70l60-42h52c6 22 11 46 14 70 5 21 8 40 9 58h-67c-46-1-78-3-95-6l-19 46m97-625h246v136H574V229m0 164h246v125H574V393m0 152h246v113H574V545m172-377c24-9 47-21 70-34 24-15 41-28 53-38 12-11 20-20 24-28l11-24c2-6 2-12 2-19 0-14-6-21-19-21-3 0-6 2-10 7-4 4-9 10-14 17-9 13-18 24-26 34-11 10-23 21-37 34-16 15-38 32-66 52l12 20Z"/></symbol><symbol id="顲_T" viewBox="0 0 1000 1000" data-size="21"><path transform="matrix(1 0 0 -1 32 952)" d="M314 548c40-14 68-26 87-35 30-15 45-32 45-52 0-15-7-23-21-23-5 0-10 1-15 3-3 2-13 11-29 27-24 24-73 52-148 84-21-38-53-68-97-89-28-14-69-28-125-44l-5 19c90 32 149 70 176 115 20 32 31 80 32 144l46-7c28-5 41-12 41-22 0-2-1-5-4-8 0-1-8-3-22-7l-12-4c-7-34-14-60-21-78 16-4 31-9 44-13 42 26 76 56 102 91l39-22c15-9 23-16 23-23s-6-11-18-11c-4 0-7 0-9 1l-16 1c-46-25-77-40-93-47m-76 226c-20-34-50-60-90-79-34-16-73-29-118-39l-7 19c83 27 137 58 162 94 21 31 31 75 31 134l48-8c26-5 39-11 39-18s-9-13-26-17l-15-4c-4-27-9-49-15-64 7-2 15-4 23-6 5-2 10-4 16-5 37 28 68 64 93 106l37-22c19-11 29-19 29-24 0-8-10-12-29-12h-20c-24-22-51-41-83-58 87-30 131-59 131-86 0-16-7-24-23-24-7 0-15 4-24 14-34 36-87 69-159 99M66 880c39-13 67-26 85-39 16-10 23-23 23-38 0-18-7-27-23-27-5 0-9 1-13 4s-10 13-18 31c-4 7-16 19-37 37-7 5-15 10-24 15l7 17m124-405 27-9c15-4 29-12 42-23 10-7 14-17 14-28 0-9-4-18-12-24h133l40 39 55-41c5-5 8-9 8-14 0-8-4-12-13-12H92c-22 0-46-2-73-5L0 400c41-6 72-9 92-9h144c-2 3-5 10-8 19-7 15-22 33-47 52l9 13m-44-224 53-25h86l30 34 35-25c14-9 21-18 21-24 0-5-11-14-33-25v-32l12-9c8-7 12-12 12-16 0-7-6-10-16-10H192v-8c0-10-11-15-32-15-10 0-14 3-14 11v144m46-105h100v50H192v-50M53 333l58-30h267l30 35 35-25c14-9 21-17 21-24 0-5-10-13-30-25V37c0-15-10-22-30-22-10 0-16 5-16 15v11H99V19C99 6 90 0 73 0 57 0 48 7 48 22c0 1 1 9 2 24 2 19 3 36 3 51v236M99 68h289v206H99V68m419 744-19 42c37-6 68-9 91-9h231l48 50 59-52c6-5 9-9 9-13 0-9-5-13-14-13H739c-17-44-40-85-68-123h156l33 37 39-26c13-9 20-17 20-24 0-8-12-18-37-30V298c0-4 2-31 4-80l2-30c0-19-11-28-34-28-13 0-19 4-19 12v26H660l28-21c15-11 23-21 23-27 0-8-9-11-29-11h-20C606 78 544 32 476 0l-7 17c81 54 138 115 169 181h-56v-21c0-12-8-18-24-18-17 0-26 7-26 20 0 0 0 14 2 42 2 38 3 62 3 71v376c0 18-2 39-6 63l61-37h52c3 9 6 16 8 20 14 32 25 67 33 103h-95c-22 0-46-2-72-5m64-586h253v134H582V226m0 162h253v127H582V388m0 153h253v125H582V541m170-369c116-50 174-96 174-137 0-18-8-28-23-28-9 0-19 9-28 25-25 41-67 82-129 123l6 17M56 641c39-12 66-22 81-31 17-9 26-21 26-36 0-19-8-28-24-28-4 0-7 1-11 3-3 3-11 13-23 32-8 13-27 27-55 42l6 18Z"/></symbol><symbol id="顲_K" viewBox="0 0 1000 1000" data-size="21"><path transform="matrix(1 0 0 -1 57 951)" d="M208 359v96l88-18v-12l-28-13v-53h121l31 39h18l47-44v-17H0v22h208m619 531 59-57v-15H669l41-17-3-13-30-7c-15-33-28-62-40-86h138l27 28h16l55-42v-18l-28-21V197l-7-11-47-11-7 5v21H557v-17l-8-8-42-9-11 8v548l66-28h44c3 30 7 71 10 122H448v23h327l36 50h16m-428-78-27 9c-51-25-97-44-137-57 99-21 159-39 178-53 18-13 27-31 27-52 0-18-5-27-16-27-7 0-17 7-32 22-42 40-98 70-168 90-19-41-44-74-76-97-31-23-75-41-132-54l-6 12c63 23 107 51 132 83 25 33 38 78 38 135 0 16-2 42-5 79l97-19v-14l-35-19v-19l-3-43c48 25 91 57 130 95l47-57-12-14m311-644 9 12c55-22 95-42 120-59s38-38 38-62c0-11-2-20-7-28-5-9-10-13-15-14-9 0-17 7-26 22-18 31-34 54-48 69s-38 35-71 60M75 849l19 5c10-47 15-82 15-105 0-19-5-36-14-53s-19-25-30-25c-15 0-22 12-22 37 0 8 1 14 4 19 19 29 29 60 29 92 0 15 0 25-1 30m524-660 73-51-4-14-40-2C575 71 515 34 450 11l-9 12c62 39 115 94 158 166M93 596l16 1 5-29c4-21 6-38 6-52 0-21-5-39-14-55-9-15-19-23-32-23s-20 14-20 41c0 4 6 18 19 43s19 49 20 74m310-269 47-43v-14l-24-16V36l-8-12-42-10-8 5v21H98V16l-8-8-39-8-11 8v322l65-32h252l30 29h16m154 209h227v137H557V536m0-149h227v127H557V387m0-164h227v142H557V223M98 62h270v214H98V62m234 132V95l-7-8-44-11-8 7v26h-79V91l-9-9-42-9-9 6v184l64-30h70l24 27h13l48-36v-16l-21-14m-59 17h-79v-80h79v80m148 374-40 6c-53-23-98-39-134-47-2-6-7-17-15-33 29-2 55-4 76-7s43-7 66-13c23-5 40-13 52-24 13-11 19-24 19-39 0-16-7-24-20-24-7 0-15 5-24 15-35 37-94 63-177 76-18-33-42-57-71-74s-72-30-129-41l-5 13c65 19 111 45 138 78 28 33 42 80 42 140l-2 62 95-20v-15l-37-14c0-7-2-24-5-53 49 23 91 50 127 81l51-54-7-13Z"/></symbol><symbol id="顳_G" viewBox="0 0 1000 1000" data-size="21"><path transform="matrix(1 0 0 -1 34 959)" d="M29 880h418l33 39 51-51c5-8 3-12-6-14h-93V622h58l26 43 52-45c10-8 9-15-2-19l-134-4v-45c0-10-5-17-14-20-10-2-22-5-33-8v71l-272-10c-43-2-68-6-76-12l-25 35 142 4v242H86c-6 0-18-2-35-7l-22 33m172-268 184 8v55H201v-63m0 88h184v69H201v-69m0 94h184v60H201v-60m74-279h223l31 39 47-45c2-2 3-4 4-6 0-8-4-12-12-12h-74V208l35 6 18 33 45-33c10-9 9-15-2-20l-96-11v-71l4-61c1-9-5-16-16-22s-24-9-37-11l4 96v63l-105-18c-22-6-39-12-51-19l-29 31 49 8v312l-16-8-22 32m80-328 94 15v80h-94v-95m0 121h94v76h-94v-76m0 101h94v82h-94v-82M0 509h213l27 33 37-37c2-3 4-6 4-10 1-4-2-8-10-10h-25V218l47 10 4-16-51-20 2-90 2-61c1-8-5-16-16-23-11-5-23-8-35-8l4 98v73c-45-15-78-26-98-34-18-7-38-20-60-37L8 163l66 18v304l-27 2-29-9-18 31m119-319 84 18v72h-84v-90m0 116h84v80h-84v-80m0 105h84v74h-84v-74m479 336 56-33h43l12 135h-82c-21-2-36-6-45-12l-29 37h287l31 41 57-49c8-10 5-15-8-17H768l-43-135h95l24 35 60-39c2-4 4-7 4-8 0-4-10-14-31-29V335l4-78c1-9-5-16-16-22-10-6-21-9-35-9v41H646v-12c0-7-6-13-19-20-13-6-24-8-33-7l4 103v416m48-455h184v117H646V292m0 143h184v117H646V435m0 142h184v111H646V577M504 14c50 50 107 124 172 221l56-33c6-5 6-10-2-15-17-4-29-10-37-18-7-9-28-29-60-62-33-33-71-69-115-107l-14 14m254 200 12 12c39-26 71-51 95-73 24-21 39-40 47-55 7-17 8-32 2-45-6-12-16-18-29-18-14 1-24 12-30 33-5 21-14 40-25 58-12 20-36 49-72 88Z"/></symbol><symbol id="顳_H" viewBox="0 0 1000 1000" data-size="21"><path transform="matrix(1 0 0 -1 33 953)" d="M9 881c28-8 67-12 114-12h314l36 37c19-14 37-28 54-42 5-2 7-5 7-9 0-9-4-13-12-13h-95V592c0-14 0-22 1-26 1-3 2-16 2-36 0-13-13-20-38-22-10 0-15 5-15 16 0 12 0 21 1 27 1 3 2 16 2 39-39-8-78-14-118-19-50-8-94-14-130-18-23-4-42-6-59-7-8-25-14-37-19-37-4 0-16 27-34 83 14 0 40 0 78 2 8 0 17 0 25 1v247c-46-2-78-4-95-7L9 881m161-284 71 6c47 2 93 6 139 11v49H170v-66m0 93h210v60H170v-60m0 87h210v65H170v-65M2 490c29-8 67-11 114-11h66l33 33 51-39c4-2 5-5 5-8 0-9-3-14-11-14h-34V81c0-12 0-20 1-23 1-4 2-15 2-34 0-11-12-18-36-20-9 0-13 5-13 16 0 10 0 18 1 24 1 3 2 15 2 37v32c-11-5-21-9-30-13-17-7-33-13-49-18-14-5-29-10-44-14-7-21-12-32-16-32-5 0-19 25-44 75 18 2 34 3 48 5v331c-11 0-20-1-27-3L2 490m89-368c12 2 25 4 37 7l55 11v86H91V122m0 131h92v85H91v-85m0 112h92v86h-67c-10 0-18 0-25-1v-85m182 125c29-8 67-11 115-11h89l33 33 51-39c3-2 5-5 5-8 0-9-3-14-11-14h-45V81c0-12 0-20 1-23 1-4 2-15 2-34 0-11-12-18-35-20-10 0-14 5-14 16 0 10 0 18 1 24 1 3 2 15 2 37v56c-11-5-21-10-30-13-19-8-37-14-54-20-16-5-32-10-50-14-7-22-12-32-16-32s-19 25-44 75c19 1 37 3 53 5v310c-15-1-26-2-33-4l-20 46m96-345c14 1 28 4 42 7 17 4 36 8 56 12v65h-98v-84m0 111h98v82h-98v-82m0 109h98v86h-79c-7 0-14 0-19-1v-85m178 508c29-8 67-12 114-12h163l40 44c22-16 43-32 63-48 4-2 7-5 7-9 0-9-5-14-14-14H756c-9-25-18-48-28-68-10-26-23-51-39-77h151l34 33c33-24 50-40 50-49 0-7-10-15-29-25V231c0-15 0-24 1-29v-15c0-14-11-23-33-27-10 0-15 3-15 10v23H690c19-11 36-21 49-31 3-2 4-5 4-10 0-6-6-9-17-9-9 0-19 0-31 2-15-25-30-45-47-61-16-18-32-34-47-46-19-16-38-29-57-38l-13 21c28 21 51 42 69 63 19 20 34 39 45 57 9 16 17 33 24 52h-40v-21c0-8-5-12-16-12-6 0-13 2-23 6-8 6-12 14-12 23 0 12 1 27 3 46 3 15 4 46 4 95v328c0 27-2 50-7 70l54-39h29c11 26 20 52 27 80 7 23 12 45 14 65h-41c-46-1-78-4-95-7l-19 46m82-652h219v136H629V221m0 164h219v125H629V385m0 152h219v125H630l-1-4V537m156-385c21-7 41-17 62-29 20-13 35-24 46-33 10-10 17-18 21-24 4-7 7-14 10-20 1-5 2-11 2-17 0-14-7-21-20-21-2 0-4 2-8 6-3 3-8 8-12 15-9 11-17 21-24 29-8 9-19 18-32 29-14 13-32 28-57 46l12 19Z"/></symbol><symbol id="顳_T" viewBox="0 0 1000 1000" data-size="21"><path transform="matrix(1 0 0 -1 31 952)" d="m35 827-19 41c39-5 69-8 92-8h308l38 39 46-39c6-6 10-11 10-15 0-9-4-13-10-13h-97V590h37l39 39 44-35c10-7 14-13 14-18 0-9-3-13-10-13H403v-50c0-16-10-23-32-23-9 0-14 5-14 17v56H99c-23 0-47-2-73-6L7 600c24-4 47-7 68-8l18-2h26v242h-16c-23 0-46-2-68-5m130-237h192v64H165v-64m0 90h192v64H165v-64m0 91h192v61H165v-61M0 488c31-8 63-12 97-12h125l34 34 42-29c18-1 30-1 39-2 31-2 48-3 52-3h69l34 34 45-34c8-6 11-12 11-18 0-7-3-10-11-10h-53V148l31 34 45-37c6-6 9-11 9-16 0-9-3-13-9-13h-76v-16l2-26 1-25c3-14 4-23 4-25 0-14-12-21-36-21-11 0-16 5-16 16v97h-93c-30 0-56-1-77-4l-20 43c4-1 11-2 22-3 13-2 23-3 31-4v300h-61V100l2-26 1-25c2-14 4-22 4-25 0-13-12-20-34-20-13 0-19 4-19 12v106c-32-17-79-34-139-53l-2-11c-2-14-7-21-15-21-7 0-14 9-21 28L0 109c19 3 38 5 56 7v332c-13-2-25-3-38-3L0 488m349-343h90v77h-90v-77m0 105h90v85h-90v-85m0 113h90v85h-90v-85M103 126c30 6 61 13 92 22v74h-92v-96m0 124h92v85h-92v-85m0 113h92v85h-92v-85m452 458-18 42c39-5 69-8 91-8h194l49 50 58-52c6-6 9-10 9-13 0-9-5-13-14-13H756c-17-45-39-86-68-123h155l33 36 40-26c13-8 19-16 19-23 0-9-12-19-37-30V307c0-4 2-31 4-80l2-30c0-18-11-28-33-28-13 0-20 5-20 13v26H685l30-21c16-11 24-20 24-28 0-7-10-11-30-11h-17c-29-41-57-72-82-94-18-17-43-34-73-54l-7 17c66 60 111 123 135 191h-45v-21c0-12-8-19-24-19-18 0-27 7-27 20 0 1 1 15 2 42 2 37 3 61 3 71v376c0 18-2 39-6 63l61-36h32c4 8 6 15 8 19 15 32 26 67 34 104h-75c-24 0-48-2-73-6m65-586h231v134H620V235m0 162h231v127H620V397m0 153h231v125H620V550m150-374c107-50 161-94 161-133 0-11-4-19-12-24-4-3-7-4-11-4-9 0-17 8-26 25-15 27-36 52-63 77-6 5-24 19-55 42l6 17Z"/></symbol><symbol id="顳_J" viewBox="0 0 1000 1000" data-size="21"><path transform="matrix(1 0 0 -1 39 960)" d="m58 87-3-15c-1-7-4-11-10-11-5 0-8 2-11 7L0 130l52 4v286H21L8 445h171l32 40 60-49v-16h-34V19l-56-9v107L58 87m49 51 74 6v79h-74v-85m0 182v-72h74v72h-74m0 100v-77h74v77h-74m-9 107-5-11c-3-7-6-11-11-11s-9 4-14 13l-27 57c25 1 55 2 90 4v268H41l-14 25h355l37 47 63-51v-21h-70V605l83 9 3-19-86-16v-97l-61-12v101L98 527m91 57 162 14v58H189v-72m0 166v-68h162v68H189m0 25h162v72H189v-72m59-643 63 6v280h-19l-10 25h168l28 34 59-42v-17h-47V161l57 9 2-18-59-15V18l-58-7v110L307 90l-5-17c-1-5-5-8-10-8-4 0-7 3-10 8l-34 59m116 12 68 9v70h-68v-79m0 104h68v73h-68v-73m0 170v-73h68v73h-68M499 13c36 31 70 64 101 101 21 25 38 50 53 75l54-32c10-6 15-11 15-16s-6-8-17-10l-12-2C632 75 571 32 510 0l-11 13m28 822-13 23h300l41 47 67-49v-21H766l-72-153h113l20 35 63-45c7-5 11-10 11-15s-3-8-9-10l-20-7V214l-61-9v30H633v-42l-59-11v532l52-32h34c11 48 18 99 21 153H527m106-453V262h178v120H633m0 26h178v127H633V408m0 154h178v94H633v-94m120-372c51-21 91-43 120-66 32-25 48-50 48-73 0-9-2-16-6-23-5-9-13-13-22-13-10 0-21 10-33 30-41 61-79 104-116 130l9 15Z"/></symbol><symbol id="顳_K" viewBox="0 0 1000 1000" data-size="21"><path transform="matrix(1 0 0 -1 54 948)" d="M2 480h224l33 38h13l28-38h169l35 38h12l36-47v-13h-63V186l41 13 6-15-47-22V33l-6-13-44-16-9 6 1 123-129-58-4-22-14-7-33 70 41 13v329h-66V26l-7-10-42-15-11 6v116L47 65l3-23-15-10-35 75 42 11v340H2v22m429-136h-80v-91h80v91m0-112h-80v-87l80 25v62m0 226h-80v-93h80v93m-265 0h-66v-93h66v93m0-114h-66v-91h66v91m0-112h-66V131l66 19v82M32 859h396l34 34h14l38-43v-13H412V620l68 12 5-19-73-16-1-74-6-11-50-12-8 5 1 77-272-55-7-27-15-4-33 78 84 10v253H32v22m316-202H171v-65l177 22v43m0 88H171v-67h177v67m0 92H171v-71h177v71M503 0l-7 11c33 29 59 56 77 79s39 56 63 99l74-46-4-15h-28C621 71 563 29 503 0m30 859h260l39 37h12l47-45v-14H739l-71-145h120l25 25h15l47-42v-12l-23-14V204l-6-12-45-16-13 6v43H621v-39l-5-10-47-15-8 6v550l64-25h18l25 145H533v22m255-188H621V558h167v113m0-134H621V414h167v123m0-144H621V246h167v147m-50-233 6 12c5-2 15-6 28-12 14-5 23-9 28-12 5-2 14-6 25-11s19-10 23-13c5-3 10-8 17-14 7-5 12-11 15-16s6-12 8-19c3-8 4-16 4-24 0-11-3-20-9-29-5-9-11-14-18-14-9 0-22 16-39 48-15 26-44 61-88 104Z"/></symbol><symbol id="顴_G" viewBox="0 0 1000 1000" data-size="21"><path transform="matrix(1 0 0 -1 29 973)" d="m322 737 43-27h78l22 29 41-25c5-3 8-5 8-8 0-2-7-10-22-23v-63l4-49c0-8-4-14-14-19-9-7-19-10-29-10v27h-90v-6c0 2-4 0-13-5-10-4-21-6-32-6l4 60v125m41-146h90v97h-90v-97M23 827h155v117l66-23c4-1 6-5 6-10 0-2-10-6-29-14v-70h111v119l68-25c2-2 4-5 4-8 2-3-8-7-27-14v-72h51l37 39 53-47c6-8 5-13-4-15H377v-39c-2-8-9-14-20-18-2-4-11-6-25-6v63H221v-45c0-8-6-14-18-18-14-4-22-6-25-6v69h-73c-13 0-35-3-66-8l-16 31m51-90 39-29h94l20 25 35-21c6-2 9-6 9-12 0-2-5-8-17-17v-61l4-43c0-7-5-14-14-21-8-8-17-12-29-12v23H113v-17c0-8-6-15-15-20-9-6-19-8-28-8l4 84v129m39-146h102v96H113v-96M514 98H160V47c1-11-4-20-15-27-12-8-23-12-32-12l4 88v300c-26-32-62-69-107-110L0 298c32 37 66 82 102 135 35 50 60 91 76 125l51-26c4-2 7-5 7-8 1-2-2-5-9-9-13-5-23-10-28-16s-16-20-33-41h268l27 43 53-49c2 0 3-2 4-6-1-6-4-9-10-9H340v-88h70l26 37 50-43c2-3 4-6 4-10-2-4-5-6-8-6H340v-84h70l26 39 50-47c2-3 2-6 0-9 0-3-2-4-4-4H340V119h98l25 40 53-48c2-2 3-5 2-7 0-2-1-4-4-6m-354 21h133v103H160V119m133 124v84H160v-84h133m0 106v88H160v-88h133m-23 213 5 7c24-11 43-22 57-33 12-12 20-22 23-31 3-11 2-20-3-27-6-10-14-13-24-12-10 0-15 6-17 17-2 10-6 21-12 34-6 11-16 26-29 45m293 171 52-33h55l16 143H584c-21-2-36-6-45-12l-33 37h324l35 47 55-55c8-9 8-15 0-17H746l-51-143h123l24 39 60-39c2-4 4-6 4-8 0-4-10-13-31-29V288l4-64c-5-11-12-18-22-22-8-4-17-7-27-8v35H609v-7c0-10-5-18-15-24-10-4-22-6-35-8l4 104v439m46-478h221v125H609V255m0 150h221v125H609V405m0 151h221v119H609V556M426 16c75 50 150 111 224 182l57-39c6-5 5-10-2-15-18-2-31-5-39-8-8-4-30-18-66-42S510 39 436 0l-10 16m301 157 7 15c57-20 101-39 133-56 31-15 53-32 65-50 10-17 13-32 7-45-5-10-14-16-25-17-10 0-19 7-29 21-10 16-26 34-47 55-22 21-59 46-111 77Z"/></symbol><symbol id="顴_H" viewBox="0 0 1000 1000" data-size="21"><path transform="matrix(1 0 0 -1 37 952)" d="M10 828c26-4 64-6 111-6h31l-13 82c28-3 54-7 77-11 6-2 9-6 9-10 0-3-4-7-11-12-8-4-16-8-25-10l22-107c0-7-3-11-10-13-8-3-16-5-23-5-6 0-9 2-10 6l-9 51h-38c-52 0-84-1-96-4l-15 39m412 33c19-15 37-29 54-42 4-2 6-5 6-8 0-12-3-18-11-18H339c-2-13-4-27-7-43-3-9-12-14-29-14-12 0-18 4-18 10l1 9c1 6 3 14 5 23 8 52 13 94 16 126 28-2 54-9 78-20 2-2 4-5 4-9 0-5-5-9-14-11-10-3-20-5-29-7-1-13-2-25-3-35h40l39 39M35 719l51-26h82l25 32c36-21 53-36 53-43 0-8-9-17-27-28v-68c3-3 6-6 10-9 2-2 3-3 3-5 0-10-2-15-7-15H82v-10c0-6-5-11-14-14-9-2-17-4-21-4-8 0-12 4-12 10v180m47-137h86l4 4v78H84l-2-4v-78m182 143 60-32h80l28 32c33-21 50-36 50-43 0-8-8-17-25-28v-68c4-3 8-6 11-9 2-2 3-3 3-5 0-10-2-15-6-15H311v-6c0-6-4-11-10-14-10-2-18-4-26-4-7 0-11 3-11 10v182m47-143h93l6 4v78h-99v-82m-182-47c28-7 53-17 76-29 4-3 6-7 6-10 0-4-4-8-12-12-13-4-25-5-35-5-10-19-19-37-29-52-2-2-3-4-4-5h142c0 2-1 5-2 11-2 9-6 18-10 27-4 10-8 19-13 27-5 7-13 16-23 27l17 11c11-7 19-14 27-22 10-7 18-13 24-19 6-5 9-11 11-17 2-5 3-9 3-14 0-10-2-19-5-27-1-2-2-3-2-4h71l39 39c18-13 35-27 52-41 4-3 7-6 7-10 0-9-4-14-12-14H297v-82h60l32 30c18-12 34-23 49-33 3-3 5-6 5-10 0-11-2-16-7-16H297v-78h60l32 33c18-12 34-25 49-37 3-2 5-4 5-6 0-10-2-15-7-15H297V94h86l39 45c21-16 40-32 57-47 5-3 7-6 7-10 0-9-4-14-11-14H128c1-7 1-15 1-21 0-20-11-29-33-29-15 0-22 5-22 15 0 13 1 30 2 52 1 23 2 43 2 61v207c-7-8-13-13-17-18-12-11-27-24-47-38L0 311c18 15 33 33 47 52 14 21 27 43 41 65 12 23 22 47 32 70 4 13 7 25 9 37m-4-441h125v88H125V94m125 113v78H125v-78h125m0 107v82H125v-82h125m229 543c28-9 67-13 115-13h213l43 49c23-18 46-35 67-50 6-3 9-7 9-11 0-9-4-14-12-14H714c-6-22-13-42-22-60-8-22-18-44-30-69h149l33 43c23-15 40-29 50-42 4-4 6-9 6-14 0-6-11-16-33-30V344c0-48 1-79 2-95 1-18 2-34 2-46 0-8-4-15-12-20-9-5-15-7-19-7-14 0-22 4-22 13v14H654c15-8 27-15 36-22 2-4 3-8 3-13s-5-8-17-8h-30c-14-27-31-48-50-63-18-22-34-40-50-55-22-17-43-31-64-42l-11 21c30 23 56 46 77 68 21 21 38 43 49 63 8 15 17 32 25 51h-48v-21c0-9-7-14-21-14-5 0-11 2-20 6-8 6-12 14-12 23 0 11 1 25 3 44 4 16 5 47 5 95v328c0 25-2 48-8 68l61-43h53c6 25 11 48 14 72 6 20 9 39 10 57h-65c-47 0-78-2-94-4l-21 43m95-625h244v135H574V232m0 164h244v125H574V396m0 151h244v113H574V547m172-375c22-9 44-20 67-33 22-17 40-30 52-40 12-13 19-23 22-30 4-8 8-17 11-25 2-7 2-13 2-19 0-14-5-21-15-21-2 0-4 3-8 10-4 3-9 9-16 18-9 13-18 24-25 34-11 11-23 23-36 37-17 15-40 33-68 55l14 14Z"/></symbol><symbol id="顴_T" viewBox="0 0 1000 1000" data-size="21"><path transform="matrix(1 0 0 -1 31 953)" d="M28 781 9 823c9-1 15-2 20-3 28-4 52-6 72-6h50v14c0 38-1 64-4 78l49-12c24-6 36-13 36-22 0-10-8-17-24-20l-12-2V740c0-10-2-17-6-20-3-3-12-5-24-5-10 0-15 5-15 14v57h-50c-25 0-49-1-73-5m264 122 50-11c24-6 36-13 36-23 0-6-8-13-25-19l-11-5v-31h64l35 36 45-36c7-6 11-12 11-20 0-6-2-9-5-9l-11 1H342v-48c0-9-1-14-2-16-5-5-13-8-24-8-13 0-20 5-20 15v97c0 37-1 63-4 77M34 717l58-31h76l26 31 36-20c15-8 22-16 22-25 0-5-10-13-32-25v-76l13-8c9-6 13-12 13-17 0-6-5-9-16-9H80v-8c0-10-8-15-25-15-16 0-25 6-25 18 0 1 1 8 2 20l1 15 1 24v126m46-153h95v94H80v-94m197 153 56-31h78l29 35 36-24c14-10 21-18 21-25 0-5-11-13-33-25v-77l14-9c7-6 11-10 11-14 0-7-4-10-11-10H322v-8c0-10-8-15-25-15-16 0-25 6-25 18 0 1 1 8 2 20l1 15 2 24v126m45-153h98v94h-98v-94m-195-46 48-18c19-8 29-16 29-24 0-3-3-6-8-9-7-5-14-7-21-7h-17c-10-18-20-36-31-52h149c-3 4-6 8-7 12-7 27-22 52-45 74l11 13c19-11 35-20 48-28 22-14 33-30 33-47 0-11-5-19-15-24h72l39 39 55-42c6-4 9-8 9-13 0-8-5-13-14-13H296v-76h54l39 39 56-42c5-4 8-8 8-12 0-8-4-13-14-13H296v-77h56l39 40 55-43c6-4 9-8 9-12 0-9-5-13-14-13H296V92h69l39 39 56-41c5-4 8-9 8-13 0-8-4-13-13-13H119V37c0-7-1-11-3-13-6-5-14-7-25-7-17 0-26 7-26 22 0 1 1 9 3 24 2 31 3 48 3 51v225c-18-19-39-36-61-52L0 303c35 37 62 72 81 106 16 30 32 67 46 109m-8-426h132v78H119V92m132 106v77H119v-77h132m0 105v76H119v-76h132m269 509-20 42c39-6 69-9 93-9h230l49 50 59-52c5-5 8-9 8-13 0-8-4-13-13-13H741c-17-45-40-86-68-123h157l33 37 39-26c13-9 19-17 19-24 0-8-12-18-36-30V298c0-4 1-31 3-80l2-30c0-19-11-28-33-28-13 0-20 4-20 12v26H663l27-21c16-11 24-21 24-27 0-8-10-11-29-11h-21C609 79 547 33 477 0l-6 17c81 54 138 115 170 181h-57v-21c0-12-8-18-24-18-18 0-26 7-26 20 0 1 0 15 2 42 2 38 3 62 3 71v376c0 18-2 39-6 63l61-37h52c4 9 6 16 8 20 15 32 26 67 34 103h-95c-20 0-45-1-73-5m64-586h253v134H584V226m0 162h253v127H584V388m0 153h253v125H584V541m170-369c116-50 174-96 174-137 0-18-8-28-23-28-9 0-18 9-28 25-17 29-40 55-68 80-10 8-30 23-61 43l6 17Z"/></symbol><symbol id="顴_J" viewBox="0 0 1000 1000" data-size="21"><path transform="matrix(1 0 0 -1 37 954)" d="M0 233c35 43 62 82 83 117 14 24 36 68 66 131l60-25c11-5 17-9 17-14 0-7-4-12-13-14l-20-4-29-44h85c11 27 21 56 31 87l62-20c10-3 15-8 15-15s-5-11-15-14l-22-6-26-32h84l38 44 53-48v-20H309v-66h62l36 42 60-46v-21H309v-74h59l39 44 60-49v-21H309V88h80l40 48 59-48V62H158V17L99 8v293c-21-24-49-51-84-81L0 233m158-66V88h91v79h-91m0 98v-74h91v74h-91m0 91v-66h91v66h-91m8 421H26l-13 24h153v107l73-6c11-1 16-4 16-11 0-5-4-10-13-14l-19-9v-67h90v105l69-4c14-1 21-5 21-12 0-5-4-9-13-13l-19-9v-67h26l37 44 62-51v-17H371v-57l-58-9v66h-90v-60l-57-9v69M59 473v238l55-30h81l15 27 53-36c5-4 7-8 7-12s-3-7-10-10l-11-5V504l-54-9v23h-85v-36l-51-9m51 183V543h85v113h-85m178-176v231l57-32h72l20 29 52-35c5-4 8-9 8-14s-3-9-8-11l-17-8V503l-55-9v24h-77v-31l-52-7m52 174V543h77v111h-77m316-540c-33-24-72-48-119-73-38-20-70-34-95-41l-8 16c71 38 141 93 210 166l48-36c10-7 15-14 15-20 0-8-9-12-27-12h-24m-8 717H510l-15 24h316l47 52 68-62v-14H730l-62-152h135l25 40 58-40c10-7 15-13 15-18 0-4-4-8-13-11l-16-6V209l-64-11v35H591v-41l-61-10v544l71-47h36c6 45 10 96 11 152m-57-450V257h217v124H591m0 151V405h217v127H591m0 122v-98h217v98H591m146-467C860 134 921 81 921 29c0-9-2-15-7-20-6-6-13-9-21-9-9 0-16 5-22 15-21 35-46 68-76 100-7 7-20 19-41 37-6 5-14 12-23 21l6 14Z"/></symbol><symbol id="顴_K" viewBox="0 0 1000 1000" data-size="21"><path transform="matrix(1 0 0 -1 50 937)" d="m209 490-23-3c-18-25-33-46-44-64h107l37 97 72-30-3-13-23-2-56-52h112l37 41h11l44-48v-15H301v-83h80l34 35h14l37-45v-11H301v-85h83l37 38h8l44-45v-14H301V89h95l38 38h12l44-46V67H126V31l-7-13L76 5l-14 6v306c-16-15-34-29-53-43l-9 11c53 73 98 157 135 252l76-32-2-15m28-89H126v-83h111v83m0-104H126v-85h111v85m0-106H126V89h111v102M13 790h134v84l82-12v-13l-22-11v-48h100v84l85-14v-11l-24-16v-43h49l31 31h12l36-40v-12H368v-34l-5-13-46-10-10 3v54H207v-39l-6-11-40-13-14 6v57H13v21m156-115 24 23h14l40-30v-10l-12-13v-84l-5-12-47-12-8 5v15H96c0-8-2-17-6-26l-45-11-9 5v173l63-23h70m6-21H96v-76h79v76m238 21 26 28h14l43-28v-11l-16-10 1-92-4-10-48-13-8 4v14h-89v-14l-7-7-42-7-10 5-1 164 62-23h79m8-21h-89v-76h89v76m190-468 70-48-4-11-24-1c-37-33-69-57-96-74S494 17 451 0l-6 10c37 27 67 51 89 74s48 57 77 102M492 826h314l35 37h13l45-45v-14H729l-66-115h120l30 30h14l51-44v-11l-20-14V211l-8-11-48-15-10 5v27H589c0-17-1-27-4-32l-47-14-9 7v543l59-32h51l18 115H492v22m300-158H589V542h203v126m0-147H589V398h203v123m0-144H589V239h203v138m-77-214 8 12c67-27 112-50 136-69 25-19 37-42 37-69 0-25-8-37-24-37-7 0-19 12-38 37-36 47-76 89-119 126Z"/></symbol><symbol id="页_G" viewBox="0 0 1000 1000" data-size="21"><path transform="matrix(1 0 0 -1 46 956)" d="M16 858h783l37 53 68-60c2-2 4-5 4-8 0-8-4-12-12-12H471l-59-156h240l36 39 58-43c4-4 6-7 6-8 0-4-12-14-35-31V368l4-94c0-7-7-16-20-25-12-8-25-13-39-14l4 127v285H240V345l4-88c-1-8-8-16-21-26-15-9-27-14-37-13l3 125v367l57-35h143l23 156H98c-12 0-34-3-65-8l-17 35m416-296c58-17 88-28 89-34 2-4 2-7-1-9-4-1-17-6-38-16-3-80-12-150-27-211s-47-111-98-152c-50-40-104-70-160-89C143 31 78 14 4 0L0 14c66 21 125 43 176 64 49 21 95 49 140 83 45 35 75 82 92 141 16 57 24 144 24 260m45-317 7 16c90-32 162-61 217-88 53-26 89-49 110-69 19-20 28-39 27-57-3-16-10-26-22-29-11-3-24 4-37 21-12 16-30 35-54 57-24 20-51 39-80 57-28 18-84 48-168 92Z"/></symbol><symbol id="页_H" viewBox="0 0 1000 1000" data-size="21"><path transform="matrix(1 0 0 -1 50 951)" d="M0 866c29-8 67-12 115-12h667l43 48c24-18 46-35 67-50 5-4 7-8 7-12 0-9-5-14-15-14H476c-12-22-24-41-37-57-13-22-29-44-48-68h283l33 41c24-13 42-27 54-42 5-4 8-8 8-12 0-7-13-17-38-31V362c0-49 1-80 3-95 1-19 1-34 1-45s-3-19-10-24c-10-4-18-6-25-6-10 0-15 4-15 12v470H219V199c0-7-5-11-16-11-5 0-13 2-22 6-9 6-13 13-13 23 0 12 1 28 3 47 3 13 4 45 4 94v316c0 27-2 50-7 69l61-42h131c15 23 28 46 38 70 10 18 16 37 20 55H115c-47-1-78-3-94-6L0 866m415-263c34-4 63-11 86-20 10-1 15-6 15-13 0-4-5-9-15-14-9-6-18-10-27-13V418c0-61-7-108-19-143-11-37-27-70-49-98-20-29-46-53-79-73-42-27-83-49-123-65C156 23 104 10 49 0L35 20c82 18 143 37 184 58 39 19 73 41 101 67 25 19 46 45 63 77 15 24 26 55 32 91 7 33 11 69 11 105v19c0 67-4 122-11 166m85-372c55-21 103-43 145-64 41-19 73-36 96-51 25-12 43-24 54-34 9-8 16-16 20-25 6-8 8-15 8-24 0-19-8-29-22-29-9 0-17 2-24 5-7 5-25 22-53 51-28 28-60 54-94 76-34 24-81 51-141 81l11 14Z"/></symbol><symbol id="顶_G" viewBox="0 0 1000 1000" data-size="21"><path transform="matrix(1 0 0 -1 40 961)" d="M0 835h295l39 53 55-57c2-2 3-6 4-12 0-7-5-11-16-11H236V159c2-29-4-54-17-73-12-19-33-33-65-43-5 20-12 34-21 43-9 10-40 22-92 38l4 20c52-17 86-24 101-22 15-1 26 2 32 8 6 4 9 19 8 45v633H80c-12 0-29-4-49-12L0 835m607-232c56-17 86-27 90-32 4-3 4-6 0-9-4-2-15-10-35-24V429c0-109-16-188-47-239-31-50-80-92-146-126-65-33-132-54-201-64l-6 16c85 24 155 54 209 89 52 33 89 72 109 119 20 45 29 106 27 183v196m55-354c70-27 124-53 162-76 39-22 65-42 78-61 14-17 20-33 18-49-1-15-9-25-22-28-11-2-23 6-35 24-9 18-29 41-58 69-29 30-79 66-151 107l8 14M436 733l62-45h80l27 155H465c-14 0-33-3-59-8l-19 35h424l43 53 62-61c1-2 2-4 2-8 1-7-3-11-10-11H664l-62-155h168l35 43 62-48c2-4 3-7 4-8 2-6-8-15-31-26V351l2-79c0-10-7-18-20-25-13-6-27-10-41-12l4 116v310H490V351l4-84c0-10-6-20-19-30-14-8-28-11-43-11l4 125v382Z"/></symbol><symbol id="顷_G" viewBox="0 0 1000 1000" data-size="21"><path transform="matrix(1 0 0 -1 69 963)" d="m219 698 58-58c2-3 2-6 2-8 0-6-2-9-8-8H94V237l185 108 12-14c-112-77-176-124-191-143-15-16-28-33-39-50L0 188c18 8 33 20 45 36v703l80-33c2 0 3-2 4-6 0-5-12-13-35-26V651h92l33 47m295-86c58-19 88-31 88-35 0-2-1-4-2-6-2-1-14-8-36-21V446c-3-101-20-180-50-236-32-54-77-99-137-136-61-36-126-61-195-74l-6 14c85 29 152 62 201 100 48 37 83 80 103 131 20 50 31 110 34 180v187M326 739l65-43h111l25 151H320c-13 0-32-3-56-8l-22 35h518l37 51 60-61c2-2 4-5 4-8 0-6-4-9-11-9H584l-61-151h170l32 41 58-41c4-4 6-6 6-8 0-4-10-15-31-33V294c0-8-2-14-6-20-9-5-23-9-45-11v408H379V380l4-94c0-8-7-17-22-25-14-9-27-13-39-12l4 133v357m233-478 7 13c73-37 127-69 163-95 35-26 59-48 74-68 13-19 17-37 13-52s-13-24-25-26c-12 0-23 9-35 28-10 17-30 43-61 79-29 35-75 75-136 121Z"/></symbol><symbol id="顸_G" viewBox="0 0 1000 1000" data-size="21"><path transform="matrix(1 0 0 -1 34 958)" d="M35 849h285l32 47 54-53c2-2 4-5 4-8 1-8-2-12-10-12H248V532h90l37 45 55-53c2 0 3-2 4-5 0-8-4-12-12-12H248V144l4-95c0-10-7-19-20-28-11-7-24-10-37-9l4 134v361H70c-11 0-29-3-52-8L0 532h199v291h-82c-12 0-33-2-64-8l-18 34m602-270c56-19 86-31 88-35 0-4-1-7-2-8-2-1-14-6-35-15V413c-4-98-23-171-55-219-31-47-79-88-143-122S359 14 291 0l-6 14c86 30 154 62 205 96s88 72 112 116c21 41 33 97 35 166v187M463 708l51-33h91l24 164H500c-14 0-33-3-59-8l-19 35h406l37 49 53-55c1-2 4-4 8-7 2-9 0-13-6-14H688l-61-164h180l23 39 65-39c1-4 3-7 3-8 1-4-8-14-27-31V380l4-88c0-10-6-18-18-23-9-6-23-10-41-12l4 119v273H512V364l4-84c2-9-5-19-20-29-14-8-26-12-37-12l4 121v348m225-494 7 14c47-18 91-38 133-61s71-45 86-64c16-19 22-36 18-52-3-15-10-24-22-26-12 0-22 7-31 20-10 14-20 29-31 43s-27 30-49 50c-22 19-59 45-111 76Z"/></symbol><symbol id="项_G" viewBox="0 0 1000 1000" data-size="21"><path transform="matrix(1 0 0 -1 47 959)" d="M4 798h281l35 43 55-49c2-2 3-5 4-8 0-8-4-12-12-12H219V339l154 47 6-18C199 299 101 259 84 247c-16-10-29-21-39-35L0 278l172 49v445H86c-14 0-37-2-68-7L4 798m361 72h438l43 49 56-55c2-2 4-4 4-8 0-7-4-11-11-11H646l-60-157h164l29 45 63-43c2-3 3-6 4-7 0-4-9-14-26-30V360l4-76c0-8-8-15-21-23-14-9-26-13-35-14l3 113v303H453V362l4-95c-1-9-8-17-21-26-14-8-26-12-36-12l4 133v375l61-49h99l22 157H447c-11 0-33-3-64-8l-18 33m223-264 74-25c10-3 11-8 4-16l-29-15v-96c-2-158-40-266-114-324C449 74 359 31 256 0l-4 16c140 61 231 120 273 176 43 58 64 151 63 278v136m39-349c68-29 125-59 170-88 46-29 74-53 84-71 8-18 10-34 6-47-6-13-15-18-26-18s-22 9-31 26c-8 16-28 40-60 73-32 32-82 69-151 113l8 12Z"/></symbol><symbol id="顺_G" viewBox="0 0 1000 1000" data-size="21"><path transform="matrix(1 0 0 -1 40 957)" d="m109 899 71-31c6-3 8-6 6-10 2-4-8-10-30-19V513c2-123-4-221-19-293C123 147 81 82 12 25L0 37c52 60 84 124 96 192 11 66 15 161 13 284v386m127-95 63-32c4-1 7-2 8-3 4-4 5-8 2-12l-28-16V345l4-94c0-8-6-16-19-23-13-9-24-12-34-10l4 127v459m414-196c51-15 77-25 79-29 1-4 1-8 0-10-2 0-13-6-32-17V433c-2-108-14-184-37-229-21-44-55-84-99-118-45-35-104-64-176-86l-6 12c60 29 107 58 142 88 36 28 66 63 92 106s39 119 37 229v173m47-359c69-32 117-59 143-80 25-20 44-38 56-55 12-15 17-31 16-50-1-17-8-27-21-29-13 0-23 9-32 28-7 17-21 40-41 67-19 27-62 62-129 105l8 14M498 726l51-39h72l29 152H545c-14 0-36-3-66-8l-16 31h361l37 47 55-51c2-2 3-4 4-7 0-8-4-12-12-12H707l-64-152h146l27 39 57-36c4-3 6-6 6-7-1-4-10-14-27-30V390l3-82c0-8-5-16-17-24s-24-12-35-13l4 123v269H545V362l4-80c0-8-7-15-22-23-14-9-25-13-33-14l4 121v360M361 913l71-27c4-2 7-3 7-4 5-4 6-8 2-12l-35-16V169l4-73c0-8-6-18-19-30-13-11-24-17-34-15l4 130v732Z"/></symbol><symbol id="须_G" viewBox="0 0 1000 1000" data-size="21"><path transform="matrix(1 0 0 -1 34 965)" d="M602 624c56-20 84-33 86-37 0-4-1-7-2-8-3-1-14-8-34-21V440c-4-97-19-171-47-222-27-50-70-94-128-134-59-38-122-66-190-84l-6 16c69 24 129 58 182 102 52 42 88 86 107 131s29 102 32 170v205M426 739l56-37h90l26 141H426c-13 0-32-3-57-8l-21 35h486l31 51 63-57c2-2 3-4 4-8 0-8-3-13-10-13H656l-56-141h181l28 41 60-41c4-4 6-6 6-8 0-6-10-16-31-31V384l4-76c-1-11-8-20-22-28-13-8-25-12-35-13l4 117v293H477V376l3-84c1-8-6-18-21-27-14-10-26-15-37-14l4 121v367m211-484 8 14c57-24 106-47 148-71 41-23 72-47 94-70 19-22 27-41 23-58-4-15-12-24-23-27-12 0-22 6-32 20-7 14-19 30-35 49-15 18-34 37-56 57-22 19-65 48-127 86M295 854c-7-5-35-37-86-93-51-55-117-108-199-160L0 614c65 55 122 111 172 168 49 58 84 107 105 149 43-30 65-47 65-51s-1-7-2-8c-2-1-8-2-18-4-10 0-19-5-27-14m8-240c-6-6-33-37-82-93-47-55-112-112-194-170l-9 13c65 61 120 121 166 178 45 57 79 107 101 148 44-25 67-39 67-43 0-3-1-6-2-7 0-2-6-5-18-8-12-4-21-10-29-18m19-238c-8-8-37-50-90-125-51-75-123-144-214-206L8 59c74 61 136 131 185 210 49 78 84 140 106 187 42-26 64-41 66-45s2-8 0-10c-2 0-8-3-17-7s-17-10-26-18Z"/></symbol><symbol id="顼_G" viewBox="0 0 1000 1000" data-size="21"><path transform="matrix(1 0 0 -1 45 958)" d="M592 593c56-20 85-31 86-35 0-2-1-4-2-6-3-2-14-9-33-22V427c-4-102-21-178-49-227s-68-89-119-120C423 49 361 23 289 0l-2 18c81 35 142 70 184 102 41 31 71 70 90 115 18 43 28 100 31 170v188M420 722l62-43h94l22 158H465c-13 0-32-3-57-8l-21 35h422l37 51 60-61c2-2 4-5 4-7 0-7-4-10-12-10H660l-58-158h168l31 41 58-41c4-4 6-7 6-8 0-5-10-16-31-33V353l4-79c-1-7-9-15-22-23-12-8-24-12-37-12l4 117v297H471V360l4-95c0-9-7-17-20-26-14-9-27-13-39-11l4 134v360m215-483 8 14c75-29 130-55 166-78 33-23 58-45 72-66s19-40 15-56-13-24-25-24-23 9-35 30c-10 19-30 45-61 77-29 30-76 65-140 103M10 835h279l37 51 61-59c2-2 3-4 4-8 0-7-4-11-12-11H221V573h68l39 45 55-56 4-4c0-8-3-12-8-12H221V296l160 53 8-18c-149-64-238-103-266-117-27-14-51-31-72-53L0 224l172 56v266H94c-14 0-36-3-67-8l-15 35h160v235H80c-14 0-32-3-55-8l-15 35Z"/></symbol><symbol id="顽_G" viewBox="0 0 1000 1000" data-size="21"><path transform="matrix(1 0 0 -1 38 954)" d="M45 837h279l39 45 55-49c2-2 3-5 4-8 0-8-4-12-12-12H127c-14 0-36-2-66-7l-16 31M2 624h353l41 47 53-53c2-2 3-4 4-8 0-7-4-11-12-11H330V222l98 82 10-12c-81-85-128-146-143-184l-51 55c27 16 41 33 39 51v385H180V415c0-94-15-173-43-236S66 63 8 20L0 31c51 55 86 113 105 173 20 61 29 134 28 219v176H66c-11 0-27-3-46-8L2 624m426 232h388l43 51 61-53c2-2 3-5 4-9 0-8-4-12-12-12H684l-55-156h148l28 39 62-35c6-4 9-7 10-8-1-7-12-18-33-33V384l4-88c0-8-7-16-20-24-12-5-23-9-35-11l4 115v275H529V354l4-85c0-10-8-20-21-30-12-9-24-13-35-11l3 123v371l49-45h75l23 156H510c-14 0-34-3-61-8l-21 31m203-269 78-29c4-2 5-4 4-6 1-2-1-5-4-8l-31-20V374c-3-119-41-208-115-266C488 52 415 16 344 0l-4 12c90 41 162 89 217 143 52 56 77 150 74 283v149m45-352c51-19 99-45 144-76 45-29 71-55 76-77 6-21 4-36-5-45-9-8-17-11-26-8-8 3-17 13-27 32-8 18-24 39-47 63-23 23-64 57-123 100l8 11Z"/></symbol><symbol id="顾_G" viewBox="0 0 1000 1000" data-size="21"><path transform="matrix(1 0 0 -1 46 953)" d="m381 854 31 43 55-52c0-6 1-9 2-8-1-6-4-9-10-8H129V644c1-146-4-269-16-368S66 91 10 18L0 25c42 79 67 163 74 255 7 90 9 207 8 352v265l55-43h244m12-144 45-31c5-4 9-8 9-12s-9-14-27-29V462c1-30-3-55-12-74s-28-34-56-45c-7 15-15 27-26 35-10 5-27 12-51 19l4 18c35-11 58-15 69-12 9 4 17 10 21 20 5 8 7 23 6 47v181H250V183c55 35 117 70 184 105l7-16c-65-41-113-74-144-99-29-27-53-55-70-83l-53 50 31 27v545l51-37h109l28 35m255-102c49-17 74-28 75-33-1-5-2-8-4-10s-10-6-24-13V437c1-109-10-184-33-227-21-42-57-80-105-112-47-34-112-66-196-98l-6 14c71 37 125 68 163 92 35 25 66 59 93 102 28 40 41 117 37 230v170m45-353c62-33 106-59 131-78 26-18 45-35 59-53 14-16 21-32 19-50-2-17-9-27-23-29s-24 6-31 23c-9 16-24 38-45 68-22 29-61 64-117 105l7 14M506 720l55-33h64l23 152h-91c-14 0-34-3-61-8l-21 31h341l39 43 51-52c2-3 2-6 2-8 1-4-2-6-10-6H703l-57-152h133l28 35 54-47c2-4 4-7 4-8 1-5-8-13-27-25V399l4-78c1-8-2-17-10-25-6-8-21-14-47-20l4 112v275H553V374l4-68c2-10-2-20-12-30-10-9-24-16-43-19l4 111v352Z"/></symbol><symbol id="顿_G" viewBox="0 0 1000 1000" data-size="21"><path transform="matrix(1 0 0 -1 30 973)" d="M0 772h215v174l78-27c8-2 12-6 12-12 0-4-14-13-41-25V772h105l35 49 57-50c2-3 3-6 4-10 0-8-4-12-12-12H264V411h90v242l76-29c4-2 6-5 6-8 2-3-9-10-32-21V437l6-77c-2-9-8-17-19-23-12-5-24-9-37-10v59h-90V138l183 101 12-13c-98-64-158-104-178-119-19-15-39-37-58-64l-51 51c21 13 35 25 43 36v256h-86l-31-33-53 35c17 13 25 25 25 35v234l73-31c3-3 5-5 5-8 1-4-8-10-27-19V411h94v338H82c-14 0-36-3-66-8L0 772m650-177c57-22 86-34 86-37 0-4 0-7-2-8-2-2-13-8-35-18V405c1-136-28-231-86-283C555 71 482 30 393 0l-8 12c105 57 175 107 209 151 33 44 52 110 56 197v235m49-356c44-23 86-47 125-72 39-24 65-45 78-63 13-19 17-38 14-55-3-16-10-25-21-28-13-1-23 6-32 24-8 18-23 41-47 70-21 26-63 63-125 111l8 13M510 729l58-39h59l27 147H537c-14 0-36-3-66-8l-28 35h391l41 53 61-61c2-2 3-4 3-7 0-8-3-12-11-12H709l-59-147h143l33 41 59-44c4-4 6-7 6-8 0-4-10-14-30-30V356l4-78c0-9-6-17-19-23-12-6-24-10-37-12l4 110v312H561V356l3-85c0-8-6-16-19-24-12-6-25-8-39-8l4 117v373Z"/></symbol><symbol id="颀_G" viewBox="0 0 1000 1000" data-size="21"><path transform="matrix(1 0 0 -1 30 964)" d="M78 183c18 48 29 111 35 187 8 76 11 152 10 231v261l51-50c72 29 138 68 197 117 44-32 61-51 53-59-3-1-9-1-20-2-9 1-37-8-82-27-44-17-94-34-150-51V601h205l33 45 53-61c1-8-1-12-6-12H336V163l4-67c0-10-7-19-22-28-13-9-25-13-35-13l4 110v408H172c0-56-4-122-12-197-6-75-21-140-45-195C92 126 58 76 12 31L0 45c34 43 60 89 78 138m572 402c57-20 86-31 88-35 0-4 0-7-2-8s-13-6-35-16V419c-4-98-22-171-55-219-31-47-78-89-142-126-64-35-120-60-168-74l-6 16c65 28 122 60 174 97 51 36 88 75 111 118 22 42 33 97 35 166v188M477 714l50-33h88l24 158H514c-14 0-34-3-59-8l-19 35h406l39 45 51-51c1-2 4-4 7-7 3-9 1-13-5-14H697l-60-158h172l23 39 64-39c2-4 4-7 4-8 1-4-8-14-27-31V386l4-88c0-10-6-18-18-24-9-5-23-9-41-11l4 119v273H525V370l4-84c2-10-4-19-19-29-14-8-26-12-37-12l4 121v348m212-502 8 14c39-16 80-36 123-59 43-24 71-45 86-63 16-20 22-38 18-53-3-15-10-24-22-26-11 0-22 7-31 20-10 14-20 29-31 43s-27 30-49 50c-22 19-56 44-102 74Z"/></symbol><symbol id="颁_G" viewBox="0 0 1000 1000" data-size="21"><path transform="matrix(1 0 0 -1 42 957)" d="M88 556h228l26 37 58-35c4-2 6-5 6-10 1-2-8-10-27-24-5-173-9-277-14-310-2-31-9-57-19-76-10-18-33-36-71-56-5 24-16 39-31 46-14 6-37 14-68 23l4 18c48-10 82-14 101-12 13 0 22 6 28 20 5 13 9 31 11 54 3 22 6 122 8 299H211c-6-113-14-191-23-234-10-42-30-85-59-127S61 91 12 63L2 74c35 26 66 60 92 103 23 41 40 83 51 127 9 41 15 116 19 226h-12c-17 0-33-2-47-8l-17 34m195 343c80-85 129-147 149-185 19-37 27-65 25-84-2-18-6-29-14-35-7-6-17-8-29-6-10 2-16 17-18 43-1 25-10 56-27 94-17 36-49 91-96 166l10 7m149-33h390l35 47 55-51c2-2 3-6 4-9 0-8-4-12-12-12H691c-18-57-34-112-48-162h144l29 41 61-43c4-4 6-7 6-8 0-4-10-14-29-29V351l3-82c0-7-5-14-17-22-12-6-26-12-41-16l4 110v310H547V358l4-82c-1-8-8-17-22-27-13-10-25-16-35-16l2 120v365l55-39h64c7 44 14 98 20 162H502c-12-1-25-4-41-10l-29 35m291-301c7-3 9-7 7-11 0-4-11-11-35-20V376c-4-86-23-152-58-199-35-45-73-79-112-103-39-23-97-48-173-74l-6 16c68 30 119 56 152 80 33 22 65 53 96 94 29 39 47 97 52 174v231l77-30m-30-330c72-37 118-64 137-82 20-18 35-35 45-51 10-18 14-33 12-45s-7-21-14-28c-6-4-14-5-21-4-9 2-16 12-22 30-6 16-16 35-29 57-15 22-52 59-113 112l5 11M158 876c51-22 78-35 80-39 1-4-1-8-6-12-3-2-10-4-19-6-10-2-24-29-43-82-20-51-41-97-63-138-21-41-53-89-95-143L0 466c51 87 88 166 111 236 22 70 37 128 47 174Z"/></symbol><symbol id="颂_G" viewBox="0 0 1000 1000" data-size="21"><path transform="matrix(1 0 0 -1 34 951)" d="M289 548c9-4 9-10 2-18-10-2-18-4-25-6-9-2-20-22-34-60s-33-84-56-139c-24-54-47-103-69-146 81 15 160 35 239 58-10 43-30 93-59 151l12 8c36-44 64-86 84-127s30-73 31-96c-1-24-6-40-16-49-9-10-19-12-29-6-10 5-14 16-14 33 1 17-1 40-5 69-138-46-211-73-221-80-9-7-22-18-39-34l-49 61c17 1 33 12 49 31 55 127 97 255 127 385l72-35m-60 267c5 0 8-3 9-9 0-4-2-7-8-8-3 0-9-2-17-6-7-4-22-32-45-84-45-102-96-190-154-266L0 452c42 74 76 143 102 205 24 63 46 127 66 192l61-34m48 63c50-59 88-111 114-154 23-43 38-75 45-98 5-22 5-41 0-59-6-18-16-26-30-25-12 0-19 5-21 16-3 10-5 26-8 48-2 22-12 55-29 100-17 44-43 98-80 162l9 10m135-22h428l33 45 57-48c1-2 2-5 2-8 0-8-3-12-10-12H699l-66-148h158l27 37 49-34c6-4 9-9 10-13 0-4-9-11-25-20V358l3-82c0-7-6-15-19-23-14-7-25-10-35-10l4 117v301H527V351l4-84c0-9-6-17-19-26-12-8-24-12-35-12l3 122v375l53-41h80l32 148H500c-14 0-37-3-68-8l-20 31m231-265 76-29c4-2 6-5 6-8 0-2-1-4-4-6l-33-18v-90c-2-66-12-128-30-187-17-57-49-106-95-145C517 70 439 34 330 0l-4 14c98 40 167 79 209 118 41 39 69 84 82 135 13 48 22 106 26 173v151m37-342c71-37 125-70 162-100 36-28 58-52 66-71 6-17 6-31 0-43-6-11-15-15-27-14-12 2-22 14-31 36-9 19-26 43-51 71-25 27-67 64-127 109l8 12Z"/></symbol><symbol id="颃_G" viewBox="0 0 1000 1000" data-size="21"><path transform="matrix(1 0 0 -1 33 972)" d="M14 753h334l31 49 64-61c2-2 4-4 4-8 0-5-6-8-15-7H96c-14 0-36-3-67-8l-15 35m168-154h105l27 37 55-35c5-4 8-8 8-12 0-5-2-8-6-10l-27-21V253l94 80 11-14c-51-53-84-90-99-109-15-20-30-46-45-78l-49 43c12 10 25 27 39 53v343H170V437c-2-101-10-173-24-215-12-41-30-79-54-113-24-33-51-61-80-86L0 33c27 36 50 68 68 97 17 29 30 64 39 105 11 41 15 108 14 202v205l61-43m-39 334 7 11c28-15 49-30 63-43 14-11 25-24 35-37 9-13 14-26 16-37 2-12 1-22-2-31-4-8-9-14-14-18-6-4-14-5-21-2-9 4-14 12-16 24-1 11-3 23-8 37-3 14-8 27-15 41-8 12-23 31-45 55m482-352c57-19 86-31 88-35 0-4-1-7-2-8-2-1-14-6-35-16V415c-4-98-22-171-53-219-30-47-72-87-125-122-52-34-106-59-162-74l-6 16c72 30 128 62 168 97 38 33 69 71 92 115 21 41 33 97 35 166v187M471 714l50-33h81l23 152H508c-14 0-33-3-59-8l-19 35h406l37 45 53-51c1-1 4-4 8-7 2-9 0-13-6-14H684l-61-152h156l24 39 64-39c2-4 3-7 4-8 1-4-8-14-27-31V386l4-88c0-10-6-18-18-24-10-5-23-9-41-11l4 119v273H520V370l3-84c2-10-4-19-19-29-14-8-26-12-37-12l4 121v348m189-492 8 13c46-17 90-37 133-60 42-24 71-45 86-64s21-37 17-52c-2-15-9-24-21-26-12 0-22 7-31 20-10 14-21 28-32 43-10 13-26 30-49 50-21 19-58 44-111 76Z"/></symbol><symbol id="预_G" viewBox="0 0 1000 1000" data-size="21"><path transform="matrix(1 0 0 -1 39 956)" d="m361 583 28 41 56-41c9-7 9-13 0-20-11 0-22-4-33-13-10-8-37-43-82-106l-16 8 49 106H250V136c2-36-5-61-20-75-13-13-31-24-54-32-6 29-20 48-43 57-22 10-49 18-80 23l4 19c43-7 72-12 88-16 15-1 29-1 41-1 12 1 18 13 17 36v411H72c-11 0-29-3-52-8L0 583h361m88 285h383l37 43 51-49c1-2 2-4 2-8 1-7-3-11-10-11H689l-58-158h150l28 43 66-43c4-4 6-7 6-8 0-4-12-15-35-31V378l4-90c0-8-6-16-18-25-12-8-25-12-37-12l4 123v283H516V345l4-76c0-8-7-17-20-26-12-10-25-15-37-15l4 119v384l53-46h84l29 158H531c-13 0-36-3-66-8l-16 33m186-279 80-26c8-6 9-11 2-15l-35-20V394c-6-125-41-217-106-276C513 62 436 23 344 0l-4 16c121 50 201 106 240 167 40 61 58 142 55 242v164m41-342c62-24 111-49 146-74 35-24 57-47 65-68 8-20 10-36 6-48-4-13-12-19-24-18-10 0-19 10-29 31s-27 46-53 74c-25 27-64 57-117 91l6 12M352 903l62-47c7-3 9-7 6-11 0-4-6-7-18-8-8-3-21-10-39-22-41-58-77-106-107-144 15-14 23-29 21-43 0-14-4-24-11-29-8-7-17-8-26-4-8 3-13 11-17 25-3 11-12 29-28 55-14 23-38 50-72 80l10 12c46-24 84-51 113-80l84 156H92c-10 0-22-3-35-8l-26 33h293l28 35Z"/></symbol><symbol id="颅_G" viewBox="0 0 1000 1000" data-size="21"><path transform="matrix(1 0 0 -1 28 971)" d="m227 942 76-31c8-4 6-10-6-15l-22-14v-88h104l31 43 57-55c2 0 3-2 4-6-1-4-2-7-4-7H275V632h71l25 39 55-33c8-4 12-9 12-14-1-4-10-12-28-25V456l4-84c-1-10-6-18-16-25-9-6-21-10-35-12v61H145c-3-64-8-113-16-149-7-35-19-71-37-107-17-34-44-71-80-111L0 37c23 37 43 73 59 107 13 34 23 78 31 130 8 53 11 116 10 188v211l54-41h73v310m-82-336V421h218v185H145m509-27c57-19 86-31 88-35 0-4 0-7-2-8s-13-6-35-15V413c-4-98-22-171-55-219-31-47-78-87-142-122-65-34-131-58-199-72l-6 16c86 28 154 60 205 95 51 33 88 71 111 115 22 41 33 97 35 166v187M504 708l51-33h80l23 164H541c-14 0-33-3-59-8l-19 35h383l31 49 59-55c1-2 3-4 7-7 3-9 1-13-5-14H717l-61-164h157l23 39 64-39c2-4 4-7 4-8 1-4-8-14-27-31V380l4-88c0-10-6-18-18-23-9-6-23-10-41-12l4 119v273H553V364l4-84c2-9-5-19-20-29-14-8-26-12-37-12l4 121v348m185-477 8 14c46-17 91-38 133-60 42-24 71-45 86-65 16-18 22-35 18-52-3-15-10-23-22-25-12 0-22 6-31 20-10 14-20 28-31 42s-27 31-49 50c-22 20-59 45-112 76Z"/></symbol><symbol id="领_G" viewBox="0 0 1000 1000" data-size="21"><path transform="matrix(1 0 0 -1 40 952)" d="M236 903c51-19 77-32 77-37 0-4-1-6-4-8-2-1-9-4-20-9-10-4-21-17-33-37 64-38 107-66 127-84 19-18 29-34 31-49 2-14-1-26-8-35-8-9-16-12-25-10s-16 11-22 27c-4 15-13 32-27 51-12 19-41 47-86 86-36-67-72-129-109-186-38-56-78-109-121-158l-16 8c47 70 91 142 133 219 41 76 75 150 103 222m118-418 50-45c6-5 9-10 10-13-1-5-6-8-16-10-8-3-17-8-27-16-8-5-51-72-127-199 18-23 31-45 41-66 10-22 12-39 6-52-6-14-14-21-25-23-11 0-18 5-22 17-3 12-8 27-15 46-8 20-21 44-40 72s-50 62-93 104l11 10c51-32 91-63 122-92l97 205H111c-10 0-27-3-50-8l-24 31h276l41 39M189 659l10 8c31-25 55-48 72-68 16-22 24-39 24-53 0-13-4-24-12-33-7-9-16-12-27-10s-16 12-16 29c1 16-2 33-10 53-5 19-19 44-41 74m434-60c49-22 74-34 74-37s0-6-2-8-10-7-25-14V425c-3-142-38-241-104-297C501 75 421 32 328 0l-6 12c108 54 180 103 217 145 38 43 62 92 72 147 10 54 14 120 12 197v98m37-348c72-33 123-61 154-82 30-21 49-40 59-57 9-16 11-31 8-46-4-13-12-21-24-23s-22 5-31 20c-8 16-23 36-43 61-19 25-63 64-133 115l10 12M465 724l53-32h82l15 133H473c-14 0-36-2-67-8l-15 34h416l45 52 64-58c2-3 3-5 4-8 0-8-4-12-12-12H676l-53-133h141l31 37 64-42c4-5 6-8 8-10 1-8-12-18-39-31V366l4-86c0-8-6-15-18-23-11-5-24-9-39-10l4 117v303H516V372l4-84c0-10-6-19-18-29-14-8-27-12-41-12l4 119v358Z"/></symbol><symbol id="颇_G" viewBox="0 0 1000 1000" data-size="21"><path transform="matrix(1 0 0 -1 48 975)" d="m80 815 53-33h101v168l75-31c4-3 5-5 5-8l-3-6-30-15V782h108l27 37 53-45c8-5 13-10 13-13 0-2-3-4-9-6-20-5-35-14-47-27-13-13-31-38-57-75l-15 6 41 100H281V554h63l27 35 57-41c6-3 8-7 6-10 0-4-5-8-14-12-10-4-16-9-20-17-4-9-12-33-25-74-12-40-28-82-49-127 41-42 69-74 82-96 14-21 22-38 24-51 1-14 0-25-4-35-4-8-11-13-22-15-10-1-17 4-21 15-5 11-13 30-26 57-11 25-30 54-54 86-26-49-58-93-96-133-39-38-83-71-131-99l-6 14c47 38 86 76 117 112 30 37 59 83 88 139-19 25-56 64-111 115l8 14c44-31 84-62 119-92l2 4c18 41 36 103 55 185H129c0-97-5-175-14-234-10-59-23-109-39-150-15-40-37-78-64-113L0 39c25 47 43 97 55 151 11 56 19 107 23 155 3 47 3 126 2 236v234m49-261h107v203H129V554m514 52c52-23 78-37 78-41 0-2-1-5-2-7-2-2-13-8-31-18V411c-5-133-35-228-90-285C542 71 469 29 379 0l-6 14c92 45 156 90 193 135 35 45 57 93 67 145 8 51 11 120 10 207v105m48-369c65-33 111-60 139-82 25-19 45-38 59-55 12-17 17-34 13-49-2-15-9-24-21-28-11-2-22 7-33 28-10 20-24 42-41 66-16 23-57 58-123 107l7 13M498 735l45-31h66l24 145H502c-14 0-36-3-66-8l-16 33h379l41 49 56-55c2-2 4-5 4-8 0-7-4-11-11-11H691l-58-145h142l30 41 58-47c4-4 6-6 6-8-1-3-12-13-33-29V388l4-80c0-10-6-19-18-26-11-6-24-10-37-11l4 119v289H547V376l4-98c2-9-5-19-20-29-13-9-26-13-37-12l4 127v371Z"/></symbol><symbol id="颈_G" viewBox="0 0 1000 1000" data-size="21"><path transform="matrix(1 0 0 -1 44 942)" d="M21 438h327l35 43 55-48c1-2 3-5 3-8 0-8-3-12-11-12H252V196l184 35 5-17c-175-43-281-71-316-84-33-13-61-27-82-42L0 149l203 39v225h-99c-12 0-34-3-65-8l-18 33m-7 397h271l31 37 57-49c5-3 8-6 8-10 2-3-3-8-18-13-13-5-24-12-33-22-8-10-17-23-29-39-10-15-26-36-47-62 29-15 57-28 82-39 24-13 44-26 60-39 15-14 24-28 26-41 2-14 0-24-6-32s-14-11-21-9c-8-1-18 9-30 31-11 19-29 40-52 62-23 21-45 39-67 55-27-32-60-66-100-102-37-35-81-68-130-99L6 478c47 39 85 74 115 105 29 31 57 64 84 100 27 33 55 75 84 127H86c-16 0-31-3-47-10l-25 35m621-252c54-20 84-31 88-35 3-5 4-8 2-10s-16-8-41-19V403c0-125-36-215-108-271S414 32 307 0l-8 16c114 49 195 94 242 135 45 41 72 90 82 145 10 53 14 114 12 185v102m35-338c63-28 113-52 148-72s59-39 73-57c13-17 19-34 17-50-2-15-10-24-23-27-12-3-22 5-31 22-8 15-25 36-49 61s-71 62-141 109l6 14M473 714l62-41h65l39 137H504c-14 0-32-3-55-10l-27 35h391l41 49 56-55c1-2 2-4 2-8 1-8-2-11-10-11H697l-74-137h166l29 39 59-41c2-4 3-7 4-8 0-4-9-14-26-27V390l4-88c0-9-5-17-17-26-11-7-23-12-37-13v384H521V286c2-12-4-22-19-31-13-10-24-14-33-12l4 115v356Z"/></symbol><symbol id="颉_G" viewBox="0 0 1000 1000" data-size="21"><path transform="matrix(1 0 0 -1 29 968)" d="M0 757h207v180l78-32c5-2 8-4 8-8 2-1 2-4 0-7l-35-16V757h90l33 45 60-55c2-3 4-6 4-10 1-4-4-7-15-8H258V569h86l33 45 57-52c2-3 3-6 4-10 0-5-5-7-16-8H113c-14 1-37-3-68-10l-18 35h180v160H86c-14 0-36-2-66-7L0 757m82-291 57-41h168l33 35 51-37c7-4 11-9 11-14 0-4-10-12-31-23V194l4-70c2-9-4-18-18-26-12-9-24-13-37-14v56H133V94c0-9-7-18-20-28-13-8-25-13-35-13l4 108v305m51-299h187v230H133V167m512 414c56-19 85-31 87-35 0-4 0-7-2-8-1-1-13-6-35-16V415c-4-98-21-171-52-219-30-47-72-87-125-122-53-34-107-59-163-74l-5 16c72 30 128 62 168 97 38 33 69 71 91 115 22 41 34 97 36 166v187M490 714l51-33h80l24 152H527c-13 0-33-3-58-8l-20 35h395l37 45 53-51 7-7c3-9 1-13-5-14H703l-60-152h156l23 39 65-39c2-4 3-7 4-8 0-4-9-14-28-31V386l4-88c0-10-6-18-17-24-10-5-24-9-41-11l4 119v273H539V370l4-84c2-10-5-19-20-29-13-8-26-12-37-12l4 121v348m190-492 8 13c46-17 90-37 132-60 43-24 71-45 86-64 16-19 22-37 18-52-3-15-10-24-22-26-11 0-22 7-31 20-10 14-20 28-31 43-11 13-27 30-49 50-21 19-59 44-111 76Z"/></symbol><symbol id="颊_G" viewBox="0 0 1000 1000" data-size="21"><path transform="matrix(1 0 0 -1 29 967)" d="M39 771h186v164l76-32c4-2 6-5 6-7 0-4-12-12-36-24V771h92l37 46 55-54c2-2 3-4 4-6 3-8-1-12-10-12H270V526c-1-22-2-50-4-86h105l37 47 57-52c2-2 3-5 4-8 0-8-4-12-12-12H264c-2-27-6-55-12-82 57-33 98-59 123-80 25-20 42-39 51-59 7-18 8-33 2-45-7-12-16-17-28-15-10 0-21 13-33 39-10 23-23 45-41 64-15 18-41 43-78 75-12-54-36-107-72-161C141 99 89 53 21 14l-9 13c56 43 99 89 131 138 29 49 48 93 56 133 8 39 14 78 18 117H78c-12-1-32-4-60-10L0 440h219c4 37 6 66 6 86v219H121c-12 0-33-2-64-8l-18 34m20-92 9 8c36-29 62-56 78-81 15-24 25-44 28-62 2-18-1-31-8-41-6-10-16-14-27-12-10 2-16 14-18 35-1 21-6 43-16 67-7 21-23 50-46 86m330 11c43-20 65-33 66-39 0-4-1-7-2-9-2-2-9-4-19-6s-26-20-47-53c-21-31-46-66-74-105l-16 5c38 72 69 141 92 207m257-93c53-20 80-32 81-35-1-2-2-4-4-6s-12-9-30-20V407c1-138-33-236-103-294C521 55 454 18 389 0l-4 16c79 41 142 87 189 137 46 51 70 132 72 244v200m49-344c60-32 106-59 137-80 29-22 51-41 64-58s17-35 14-52c-2-17-10-27-21-28-12-2-22 6-30 24-7 16-21 37-41 63-18 27-61 66-130 119l7 12M500 722l53-43h82l29 150H527c-14 0-37-3-68-8l-14 33h403l39 49 52-54c2-3 2-6 2-8 1-8-2-12-9-12H721l-63-150h143l25 41 61-45c2-2 3-4 4-6 0-5-11-15-32-31V368l6-74c2-9-2-18-13-27-10-8-25-14-43-18l4 115v289H547V372l4-76c2-10-3-20-14-29-10-10-23-17-41-20l4 125v350Z"/></symbol><symbol id="颋_G" viewBox="0 0 1000 1000" data-size="21"><path transform="matrix(1 0 0 -1 29 973)" d="M689 618c51-17 78-28 81-31 0-5-1-8-2-10-2-2-12-6-30-14V401c1-127-32-218-99-275C572 71 499 29 420 0l-10 14c94 49 160 94 199 135 37 42 60 86 69 131 8 47 12 112 11 194v144m59-394c53-24 93-45 121-65 27-19 47-38 59-55 11-17 15-34 13-51-2-15-11-24-25-26-14 0-24 8-31 24-7 18-17 39-31 62-15 22-53 55-114 99l8 12M553 753l51-37h68l21 162H586c-14 0-37-3-68-8l-14 33h348l31 43 53-50c1-3 2-6 2-8 0-7-3-10-10-10H750l-57-162h127l26 37 56-41c2-4 4-7 4-8 0-4-8-15-25-31V390l4-88c0-8-7-16-20-24-11-6-24-8-37-7l4 117v302H600V384l4-84c1-10-4-18-18-26-14-7-26-11-37-11l4 121v369m-348 88h2c4-6 6-11 6-14 1-4-11-12-33-21L98 562h74l25 31 51-37c2-3 3-6 4-8 1-5-9-12-27-22-8-130-28-231-59-300 19-22 45-41 78-59 31-18 92-29 182-33l105 8v-17c-25-1-43-6-54-14-11-7-18-17-22-29-73 1-139 12-197 33-45 19-82 45-112 79C102 125 57 71 12 31L0 43c45 52 86 114 123 185-39 84-62 147-70 191l17 2c18-45 41-96 71-152 19 52 31 142 37 269H96l-30-23-45 48 40 20 80 244H63c-9 0-22-2-40-8L2 853h135l27 25 41-37m240-6-56-14V606h45l25 36 51-43c2-2 3-5 4-8 0-7-4-10-12-10H389V306h52l36 43 50-49c2-2 4-5 4-8 2-7-2-10-11-10H281c-13 0-30-2-51-8l-21 32h135v275h-49c-16 0-31-3-47-8l-19 33h115v204c-43-9-84-15-123-20l-2 16c95 22 174 53 238 91l45-44c8-9 6-14-6-16l-25 2-26-4Z"/></symbol><symbol id="颌_G" viewBox="0 0 1000 1000" data-size="21"><path transform="matrix(1 0 0 -1 28 969)" d="M115 597h209l30 37 48-45c2-3 4-6 4-10s-4-7-11-8H195c-11 0-33-2-64-8l-16 34m-8-131 57-37h166l25 37 51-37c6-4 9-9 10-14 0-4-8-14-25-31V202l4-64c-1-9-8-18-20-25-10-8-21-11-33-11v63H156v-63c0-8-4-16-11-24-8-7-22-14-41-21l3 108v301m49-276h186v213H156V190m133 719c10-4 14-9 12-13 0-2-4-4-12-6s-20-15-37-39c46-21 84-39 113-57 28-18 47-33 59-47s17-27 15-39c0-12-3-20-11-25-6-7-14-8-24-4-8 2-16 11-25 29-8 16-20 33-37 51-16 17-49 43-100 76-33-64-66-123-99-176-34-52-78-106-131-162L0 509c42 58 80 116 113 174 34 58 76 143 125 255l51-29m346-328c56-19 86-31 88-35 0-4-1-7-2-8-2-1-14-6-35-16V415c-4-98-22-171-53-219-30-47-72-87-125-122-52-34-106-59-162-74l-6 16c72 30 128 62 168 97 38 33 69 71 92 115 21 41 33 97 35 166v187M480 714l51-33h80l24 152H518c-14 0-34-3-59-8l-20 35h407l37 45 53-51c1-1 3-4 7-7 3-9 1-13-5-14H693l-60-152h156l24 39 64-39c2-4 3-7 4-8 1-4-9-14-27-31V386l3-88c0-10-5-18-17-24-10-5-24-9-41-11l4 119v273H529V370l4-84c2-10-4-19-19-29-14-8-26-12-37-12l3 121v348m190-492 8 13c46-17 90-37 133-60 42-24 71-45 85-64 16-19 22-37 18-52-3-15-10-24-21-26-12 0-23 7-32 20-9 14-20 28-31 43-10 13-27 30-49 50-21 19-58 44-111 76Z"/></symbol><symbol id="颍_G" viewBox="0 0 1000 1000" data-size="21"><path transform="matrix(1 0 0 -1 36 964)" d="M105 929c41-17 67-28 77-33 7-6 7-11 0-14l-28-14V757c71 33 143 78 217 135 39-28 58-44 57-49-2-4-4-6-6-6h-18c-9 1-37-9-82-29s-101-44-168-73v-62c0-24 4-36 12-37 9-2 18-3 25-2h139c14 0 25 1 35 4 10 2 17 11 22 25 4 14 7 48 9 104h18c2-33 4-58 6-75 3-15 14-27 31-35-4-16-12-29-21-39-10-10-19-16-26-19-8-2-22-4-43-6H182c-19-1-34 0-45 4-10 2-18 9-24 21-4 10-7 28-8 53v258m135-366c45-15 69-25 73-29 2-3 2-6 0-10-4-2-13-5-28-11V368c35 29 78 73 129 133l49-41c4-6 3-10-4-14-12 1-21 0-29-4-6-4-22-14-47-31-24-15-56-37-96-64v-6c57-28 97-52 119-72s35-38 41-53c4-16 4-28-2-37-6-10-14-14-25-12-12 1-20 12-25 31-6 18-19 39-38 63-19 21-43 41-72 58V107c1-23-4-41-15-52-13-13-32-23-57-32-4 23-14 38-31 45-15 7-40 16-75 28l4 17c64-15 102-21 114-17 11 4 17 18 15 40v427M4 444h125l23 34 59-40c3-8 1-13-6-15-10-3-17-10-23-22-18-67-39-125-65-173-23-49-59-99-107-150L0 88c40 60 70 116 90 167 20 49 36 103 49 164H74c-15 0-32-3-49-8L4 444m639 137c56-19 86-31 87-35 0-4 0-7-1-8-2-1-14-6-36-16V415c-4-98-21-171-52-219-30-47-72-87-125-122-53-34-105-59-155-74l-6 16c68 30 121 62 161 97 38 33 69 71 91 115 22 41 34 97 36 166v187M500 710l51-33h76l23 152H537c-14 0-33-3-58-8l-20 35h371l37 45 53-50c1-2 4-5 8-8 2-9 0-13-6-14H709l-61-152h141l24 39 64-39c2-4 3-7 4-8 1-4-9-14-27-31V382l3-88c0-10-5-18-17-23-10-6-24-10-41-12l4 119v273H549V366l4-84c2-10-5-19-20-29-13-8-26-12-37-12l4 121v348m178-488 8 13c46-17 88-37 127-60 37-24 62-45 76-64 13-19 19-37 15-52-2-15-9-24-21-26-12 0-22 7-31 20-10 14-20 29-30 45-9 15-23 32-41 49-17 18-51 43-103 75Z"/></symbol><symbol id="颎_G" viewBox="0 0 1000 1000" data-size="21"><path transform="matrix(1 0 0 -1 48 968)" d="M0 18c61 35 105 74 133 118 25 42 43 82 53 119 7 35 11 73 13 115 3 41 3 98 2 170l78-31c5-4 6-8 2-12-4-2-14-8-31-18 1-46 0-91-4-134 29 21 72 60 129 119l57-45c4-6 3-10-4-12-8 0-18-2-30-4s-27-7-44-17c-19-10-55-33-110-71l-6-27c51-23 90-47 117-70 28-22 47-42 59-61 12-17 17-33 14-48-2-15-10-24-24-27-13-3-23 3-29 16-6 11-12 24-18 38-3 14-15 34-35 60-19 25-49 49-88 73-10-51-31-100-62-147C141 76 85 36 4 2L0 18m115 420c2-52 2-91 0-117-2-23-8-43-19-58-10-16-22-24-35-26-14 0-25 4-32 14-6 10-5 20 4 29 9 10 18 20 28 30 7 9 13 21 19 37 5 15 10 46 14 91h21m518 168c53-18 79-29 80-33 0-2-1-5-2-8-2-2-12-7-29-17V417c-4-127-36-219-94-275C529 86 449 39 346 0l-4 18c97 50 166 96 205 139 38 43 62 94 72 153 11 56 16 125 14 207v89m33-369c61-31 107-56 137-76 29-19 51-37 64-54 12-17 17-33 16-50-2-17-11-26-26-28-14-2-25 5-33 22s-21 39-41 66c-20 26-62 62-125 107l8 13M482 728l47-32h71l21 147H516c-14 0-36-3-67-8l-15 33h375l35 49 56-55c2-2 4-5 4-8 0-7-4-11-11-11H682l-57-147h148l26 37 58-39c4-4 6-6 6-7 0-5-9-14-27-28V382l4-90c0-8-7-17-20-25-12-6-24-10-37-12l4 119v297H533V372l4-78c0-10-6-20-19-29-15-11-28-15-39-14l3 119v358M70 937l84-34c6-6 6-11-2-15l-33-14V757c92 43 158 81 197 115l47-53c4-6 4-9 0-11s-11-2-19 0c-9 0-24-3-45-8-20-6-80-28-180-67v-78c0-21 4-33 12-35s17-2 27-2h145c15 0 27 1 37 4 10 2 17 13 23 33 4 19 7 61 10 125h22c0-52 3-86 7-99 6-13 17-23 34-32-4-17-14-33-30-46-13-13-24-20-33-22s-22-4-39-6H158c-17 0-33 1-47 4-13 1-24 8-31 20-6 9-10 28-10 56v282Z"/></symbol><symbol id="颏_G" viewBox="0 0 1000 1000" data-size="21"><path transform="matrix(1 0 0 -1 44 970)" d="M264 716c4-3 6-6 6-10 0-3-4-5-12-8-13-1-30-16-51-45-19-28-51-68-94-121l166 12c15 25 34 64 55 117l64-37c4-3 6-5 6-8 0-4-4-8-13-10-9 0-16-3-22-9-6-4-16-20-31-47-14-26-35-57-63-96-27-38-60-79-99-121-37-43-93-92-166-146l-8 15c52 49 98 97 139 145 40 45 84 103 130 175-42-3-80-9-111-17s-57-18-78-31l-35 58c17 2 31 6 41 12 8 6 21 25 41 55 19 30 42 76 68 136l67-19m170-272c4-2 5-5 5-7 1-5-4-8-15-10s-21-8-31-18c-39-60-71-106-94-137 34-19 62-37 84-54 21-17 35-33 41-49s8-31 6-43c-4-12-13-19-26-21-12-1-21 7-27 25-4 19-14 41-29 64-14 22-34 43-61 65-32-41-68-81-109-119S79 63 6 21L0 37c63 45 113 88 152 128 39 39 72 76 98 111 25 36 45 66 61 92 14 26 34 64 60 115l63-39M152 929l8 11c44-19 76-37 96-52 19-17 29-33 31-49s-1-29-8-39c-7-9-16-13-27-12s-18 12-22 31c-3 19-12 37-25 55-12 17-29 35-53 55M0 767h369l39 41 55-47c2-2 3-6 4-12-1-5-6-7-16-8H74c-13 0-31-2-53-8L0 767m625-186c57-19 86-31 88-35 0-4-1-7-2-8-2-1-14-6-35-16V415c-4-98-22-171-53-219-30-47-72-87-125-122-53-34-104-59-154-74l-6 16c67 30 120 62 160 96 38 34 69 72 92 116 21 41 33 97 35 166v187M482 710l51-33h76l24 152H520c-14 0-34-3-59-8l-20 35h372l37 45 52-50c2-2 4-5 8-8 3-9 1-13-6-14H691l-60-152h140l24 39 64-39c2-4 4-7 4-8 1-4-8-14-27-31V382l4-88c0-10-6-18-18-23-9-6-23-10-41-12l4 119v273H531V366l4-84c2-10-4-19-19-29-14-8-26-12-37-12l3 121v348m178-488 8 13c46-17 89-37 127-60 37-24 62-45 76-64s19-37 16-52-10-24-22-26c-11 0-22 7-31 20-10 14-20 29-29 45-10 15-24 31-41 49s-52 43-104 75Z"/></symbol><symbol id="颐_G" viewBox="0 0 1000 1000" data-size="21"><path transform="matrix(1 0 0 -1 62 955)" d="m371 899 63-54c4-4 5-7 4-10-2-4-4-6-6-6H289V649h37l26 28 43-30c5-3 9-8 9-13 1-2-6-10-21-24V448l4-72c0-8-6-16-18-25-10-9-21-13-33-14v29h-49V132h78l37 47 59-59c1-2 2-4 2-8s-2-6-6-7H88L57 70 0 120l37 31v746l65-41h234l35 43M242 132v234h-47v-13c0-9-6-17-17-26-11-6-22-10-33-12l3 125v237l43-28h51v180H84V132h158m-47 262h141v228H195V394m280 330 50-37h69l27 150h-96c-13 0-32-3-56-8l-22 35h336l33 45 57-53c2-2 3-4 4-7 0-8-4-12-12-12H678l-63-150h131l27 37 61-37c4-4 6-7 6-8 0-4-11-15-31-32V370l4-80c0-8-7-17-20-25-12-6-23-10-35-12l4 115v293H523V360l4-89c0-8-7-17-21-26-12-8-24-12-35-12l4 120v371m136-118c57-20 86-32 86-37 0-4 0-6-2-7s-14-6-37-16V403c-4-66-12-121-23-166 83-35 141-66 174-93 31-25 48-46 50-64 2-16 0-29-5-39-6-8-14-12-24-12-10 2-19 12-27 30s-22 39-43 63c-22 25-65 57-131 96-18-55-53-100-108-136-52-37-110-64-171-82l-6 16c60 26 113 58 158 96 44 39 73 80 86 121 12 41 19 90 23 149v224Z"/></symbol><symbol id="频_G" viewBox="0 0 1000 1000" data-size="21"><path transform="matrix(1 0 0 -1 37 969)" d="m250 938 74-29c3-2 3-4 2-8 0-1 0-2-2-4l-29-15V771h92l31 39 45-47c2-3 4-6 6-10 0-4-3-6-8-6H295V589h100l33 41 56-47c4-2 6-5 6-8 2-6 0-10-8-10H70c-11 0-30-2-54-7L0 589h111v238l69-27c9-3 11-9 4-16l-28-13V589h94v349m64-408c6-4 8-8 4-11-2-3-11-8-27-14V360l4-89c-1-12-8-22-22-30-11-6-22-8-31-8l4 127v190l68-20M207 429c4-2 6-4 6-6 0-5-3-8-8-10-12 1-27-10-45-33-40-59-85-113-137-164l-11 8c41 58 71 105 92 140 17 33 32 66 44 98l59-33m193 21c46-17 70-29 73-35 2-4 1-6-2-8-3-1-6-2-10-4s-9-4-14-6c-6-1-17-23-35-64-16-40-39-83-70-127-31-43-69-80-113-112C184 61 120 29 39 0l-4 14c63 29 117 62 164 99 46 35 86 78 119 130 32 50 59 119 82 207m264 160c52-18 78-29 78-33 0-2 0-5-2-8-2-2-13-7-33-17V421c-6-127-37-219-94-275C558 90 479 43 375 4l-4 17c98 50 166 97 205 140s64 94 74 152c11 56 16 125 14 208v89m31-369c62-31 107-57 137-78 29-19 51-37 64-54 12-15 17-31 16-46-2-15-10-24-23-26-13-1-23 6-32 22-7 16-21 37-41 63-19 25-62 61-128 106l7 13M512 724l43-32h74l19 139H545c-14 0-36-3-66-8l-16 33h367l35 49 57-54c2-3 3-6 4-8 0-8-4-12-12-12H699l-51-139h147l25 37 55-39c4-3 6-6 6-7-1-5-10-14-27-28V378l3-90c0-8-5-17-17-25-12-6-24-10-35-12l4 119v297H559V368l4-78c0-10-6-19-18-29-14-11-26-15-37-14l4 119v358Z"/></symbol><symbol id="颒_G" viewBox="0 0 1000 1000" data-size="21"><path transform="matrix(1 0 0 -1 30 970)" d="M0 321h141v164l68-21c8-3 11-7 8-14l-29-17V321h130v158l75-23c2-2 3-4 3-6s0-5-1-8l-30-13V321h53l31 37 41-43c7-5 9-10 8-13 0-4-3-6-8-6H365V134l4-75c2-10-2-19-14-28-11-9-25-14-41-15l4 124v156H188c1-70-11-129-38-177C125 73 77 33 8 0L2 12c58 42 96 83 113 124 18 40 27 93 26 160H82c-12 0-33-3-62-8L0 321m250 619c45-15 70-25 74-29 3-3 3-6 0-10-3-2-12-5-27-11V767l25-10c30 34 61 73 94 119l51-43c8-5 8-10 0-16-13 2-24 2-33-2-9-3-17-8-26-15-8-6-32-24-72-55 43-19 76-40 100-60 23-21 36-39 39-55 2-16 1-28-4-37s-14-13-28-14c-12 0-21 10-27 29s-20 41-43 67c-21 25-47 48-76 68V569c1-23-5-41-16-52-12-13-31-23-56-32-4 23-14 37-30 43-13 6-35 14-64 24l4 17c56-11 90-15 101-11s15 17 14 41v341M16 812h142l24 27 54-43c3-9 1-14-6-16-12-4-21-11-27-23-21-60-47-108-76-145-30-37-68-70-113-99l-10 9c38 34 70 71 96 112 24 41 45 92 60 152H86c-16 0-32-2-49-8l-21 34m652-204c53-18 79-29 80-33 0-2-1-5-2-8-2-2-12-7-29-17V419c-4-127-35-219-94-277C564 86 492 40 404 2l-4 18c82 47 143 93 182 137 38 44 62 96 72 155 11 56 16 125 14 207v89m33-369c61-31 107-56 137-76 29-19 51-37 64-54 12-17 17-33 16-50-2-17-10-26-25-28s-26 5-34 22c-7 17-21 39-41 66-20 26-61 62-125 107l8 13M518 729l46-31h71l21 147H551c-14 0-36-3-67-8l-15 33h375l35 49 57-55c2-2 3-5 3-8 0-7-3-11-11-11H717l-57-147h149l25 37 59-39c3-4 5-6 5-8 0-4-9-13-27-27V384l4-90c0-9-7-17-20-25-12-6-24-10-37-12l4 119v297H568V374l4-78c0-10-6-20-19-29-15-11-28-15-39-14l4 119v357Z"/></symbol><symbol id="颓_G" viewBox="0 0 1000 1000" data-size="21"><path transform="matrix(1 0 0 -1 42 948)" d="M436 833c-28 7-53 7-75 2s-48-10-80-16V690h94l37 45 51-48c2-2 3-5 4-8 0-8-4-12-12-12H281v-43c33-8 67-20 102-37 35-18 58-33 68-47 11-14 13-27 8-39s-12-18-21-16c-11 0-20 6-28 20-8 13-23 30-47 51-23 19-50 35-82 48v-64l4-62c0-10-6-19-17-26-12-8-24-12-36-12l4 98v113c-21-40-51-84-90-132-37-49-83-93-138-131l-8 9c54 55 96 105 127 151 29 44 52 84 68 119H98c-13 0-36-3-69-8l-13 31h220v122c-63-8-125-14-185-18v16c133 15 250 44 351 86l39-45c2-5 4-8 4-10-2-5-6-7-9-8M145 438l48-35h106l31 34 49-38c4-4 6-7 6-9 0-6-9-15-26-26V167l120 88 9-12c-85-75-137-133-156-175l-47 56c18 7 27 18 28 31v227H189v-98c-1-55-13-105-35-152C132 86 92 42 33 0l-8 8c45 53 76 97 92 134 16 36 25 90 28 162v134m326 407h343l40 45 60-49c1-2 2-5 2-8 1-8-3-12-10-12H713l-45-152h117l28 37 50-29c6-4 9-9 10-14 0-3-8-12-23-27V360l4-82c0-7-7-16-20-25-12-8-23-12-35-12l4 115v290H568V360l4-86c0-7-6-15-17-23-12-8-24-12-37-14l3 116v361l53-45h72l14 152H553c-15 0-37-2-69-8l-13 32m191-254 74-28c4-1 6-3 6-5v-8l-35-16V378c-2-122-33-210-94-266C552 59 487 22 418 2l-4 10c107 62 176 118 207 169 30 50 44 137 41 261v149m43-348c45-22 85-48 121-78 36-28 56-52 61-73 4-20 2-35-6-45-9-9-18-11-27-6-8 5-14 14-18 27-4 14-14 33-31 58s-52 61-104 105l4 12Z"/></symbol><symbol id="颔_G" viewBox="0 0 1000 1000" data-size="21"><path transform="matrix(1 0 0 -1 29 974)" d="m96 401 56-33h202l25 33 51-33c6-4 9-8 9-14 0-3-8-13-25-29V153l4-59c-1-9-7-17-20-26-10-7-21-11-33-11v71H145V74c0-8-4-15-12-23-8-7-22-15-41-22l4 99v273m49-248h220v190H145V153m216 461c39-27 59-43 59-47 1-2 1-5 0-7-2-2-7-3-14-4-8-1-17-8-29-22l-72-119c-6-10-15-16-26-16h-31l88 159H172c-12 0-27-3-47-8l-18 33h231l23 31M215 745l8 10c31-14 54-27 70-41s25-27 27-41c2-12 0-22-6-31-6-8-15-12-27-12-10 1-17 9-19 25-2 15-7 30-14 43-7 12-20 28-39 47m92 172c6-4 9-8 7-12 0-2-5-5-15-8-10-1-20-10-31-27 41-19 77-40 109-60 31-20 53-36 64-49 12-14 17-28 16-41s-4-22-10-28c-6-4-13-5-23-5-9 0-18 11-28 31-7 19-21 39-41 58-20 21-52 47-97 78-33-53-67-105-102-156-36-51-84-105-144-164L0 546c45 58 87 118 127 180 40 60 80 134 119 222l61-31m349-336c57-19 86-31 88-35 0-4-1-7-2-8-2-1-13-6-35-16V415c-4-98-21-171-53-219-30-47-71-87-125-122-52-34-104-59-154-74l-6 16c67 30 121 62 160 97 39 33 69 71 92 115 22 41 33 97 35 166v187M514 710l50-33h77l23 152H551c-14 0-33-3-59-8l-19 35h371l37 45 53-50c1-2 4-5 7-8 3-9 1-13-5-14H723l-61-152h141l23 39 65-39c2-4 3-7 4-8 0-4-9-14-28-31V382l4-88c0-10-6-18-17-23-10-6-24-10-41-12l3 119v273H563V366l3-84c2-10-4-19-19-29-14-8-26-12-37-12l4 121v348m177-488 8 13c46-17 89-37 127-60 37-24 63-45 76-64 14-19 19-37 16-52s-10-24-22-26c-11 0-22 7-31 20-10 14-19 29-29 45-10 15-23 32-41 49-17 18-52 43-104 75Z"/></symbol><symbol id="颕_G" viewBox="0 0 1000 1000" data-size="21"><path transform="matrix(1 0 0 -1 36 973)" d="M80 515h246l31 39 53-47c2-2 3-5 4-8 0-6-4-10-12-10H139c-14 0-28-2-43-8l-16 34M2 376h387l33 41 49-49c2 0 3-3 4-8 0-6-4-9-12-9H271V107c2-30-2-52-13-66-13-12-29-21-51-27-6 21-19 37-39 47-20 9-42 18-66 25l3 18c59-15 94-21 106-18 10 4 15 17 14 38v227H63c-14 0-28-3-45-8L2 376m178-107v-2c2-4 2-7 0-10-12-2-22-6-30-12-7-4-21-23-41-58-20-34-52-76-95-128L0 68c39 60 78 139 117 236l63-35m140 17 12 10c44-35 76-65 96-88 17-23 27-43 29-59 2-15-1-26-8-32-7-8-16-11-27-10-11 3-18 11-22 23-4 14-10 33-19 58-9 24-29 56-61 98M72 946l84-33c6-6 5-12-2-16l-33-13V767c92 43 158 81 197 115l47-53c4-6 4-10 0-12s-11-2-19 0c-9 0-24-2-45-7-20-6-80-28-180-67v-78c0-21 4-33 12-35s17-3 27-2h153c14 0 27 1 37 4 9 2 17 13 23 33 4 19 7 61 10 125h21c1-53 4-86 8-100 5-12 16-22 33-31-4-17-13-33-29-47-13-12-24-19-33-21s-22-4-39-6H160c-17-1-33 1-47 4-13 1-24 8-31 19-6 10-10 29-10 57v281m584-340c53-18 80-29 80-33 0-2 0-5-2-8-2-2-11-7-29-17V417c-4-127-35-219-94-275C553 86 472 39 369 0l-4 18c98 50 166 96 205 139 38 43 62 94 73 153 11 56 15 125 13 207v89m33-369c62-31 107-56 137-76 29-19 51-37 65-54 11-17 17-33 15-50s-10-26-25-28c-14-2-26 5-33 22-8 17-22 39-41 66-21 26-62 62-125 107l7 13M506 728l47-32h70l22 147H516c-14 0-32-3-55-8l-16 33h387l35 49 57-55c2-2 3-5 4-8 0-7-4-11-12-11H705l-57-147h149l25 37 59-39c4-4 6-6 6-7-1-5-10-14-28-28V382l4-90c0-8-6-17-19-25-13-6-25-10-37-12l4 119v297H557V372l4-78c0-10-7-20-20-29-14-11-27-15-39-14l4 119v358Z"/></symbol><symbol id="颖_G" viewBox="0 0 1000 1000" data-size="21"><path transform="matrix(1 0 0 -1 48 963)" d="M86 927c52-18 78-30 78-33 5-4 3-7-4-10l-27-14V767c75 25 151 64 226 117 41-31 60-50 57-55-2-5-5-7-8-6h-25c-15 0-44-9-86-25-41-16-96-34-164-55v-43c0-21 4-33 12-35 7-1 15-1 23-2h129c15 2 27 4 37 6 10 1 17 12 21 31 4 20 8 44 10 74h20c0-25 1-45 4-60 1-14 9-26 25-35-4-13-11-23-19-32-8-7-18-13-30-17-10-4-26-7-49-8H168c-18 0-33 2-47 6-12 3-21 12-29 25-4 11-6 28-6 51v223M6 390h213v113c-61-4-126-8-196-12v18c71 9 138 19 204 31 65 11 116 23 154 37 32-31 49-49 51-55 2-4 1-7-2-9-2-2-8-2-18 0s-27 3-53 4c-26-1-56-4-91-10V390h87l32 41 60-49c2-2 4-5 4-8 0-8-4-12-12-12H268v-45c50-15 87-29 111-41 23-11 39-24 47-39 6-13 7-26 4-37-5-10-12-15-22-15-10-1-19 5-27 19s-20 29-37 45c-16 14-41 29-76 47V132l3-83c0-9-7-18-21-26-14-5-25-9-35-9l4 104v201c-30-54-61-101-96-140-33-37-70-72-111-103L0 88c41 42 74 79 100 112 24 33 56 87 95 162H88c-14 0-36-2-67-8L6 390m633 193c56-20 84-31 84-35s-1-7-2-8c-2-3-15-8-37-16V392c-5-129-41-220-110-274C505 65 432 25 354 0l-10 12c95 49 163 93 203 132 39 37 64 85 76 142 12 56 17 118 16 186v111m39-350c57-22 101-43 131-62 29-20 50-39 64-57 14-17 19-33 16-50-2-15-9-24-22-27-12-2-23 5-31 22-9 17-22 37-39 59-18 23-61 57-127 102l8 13M490 708l43-33h71l15 144h-94c-13 0-35-2-66-7l-16 33h360l41 49 56-55c2-2 4-5 4-8 0-8-4-12-11-12H674l-47-144h152l26 37 64-41c2-4 3-7 4-8 1-4-10-14-33-29V374l4-80c1-8-4-16-16-23-12-8-25-13-39-14l4 115v277H539V337l4-65c-1-7-8-16-22-25-11-8-23-12-35-12l4 96v377Z"/></symbol><symbol id="颗_G" viewBox="0 0 1000 1000" data-size="21"><path transform="matrix(1 0 0 -1 29 961)" d="m100 923 50-33h246l26 29 47-41c4-2 6-4 6-6 0-4-10-13-30-25V624l4-78c2-8-4-16-15-25-13-11-25-15-38-14v49h-97V421h119l35 45 55-51c4-6 6-10 6-14-2-4-3-5-4-5H299v-42c43-21 77-39 103-54s43-29 53-43 14-29 12-43-10-22-24-24c-12-3-21 3-27 18s-14 29-23 43c-10 12-22 25-36 37-13 12-33 27-58 47V147l4-86c0-12-7-21-20-28-12-8-23-12-35-12l4 125v240c-30-64-66-124-109-180-43-55-86-101-129-140L0 76c41 46 79 95 115 148 35 51 65 108 90 172H104c-22 0-42-3-61-10l-22 35h231v135H148v-22c0-6-6-13-19-21-12-9-24-12-33-10l4 119v301m48-342h104v125H148V581m151 125V581h97v125h-97m-151 25h104v133H148V731m151 133V731h97v133h-97m387-246c50-17 76-28 78-31 0-5-1-8-2-10-2-2-12-6-30-14V401c3-127-30-218-97-275C568 71 495 29 416 0l-10 14c94 49 160 94 199 135 38 42 60 86 69 131 8 47 12 112 12 194v144m58-394c53-24 93-45 121-65s47-39 59-55c11-17 15-34 14-49-2-15-10-24-24-26-12-2-21 6-29 24-7 17-18 37-33 59-17 24-55 57-116 100l8 12M549 737l51-37h68l21 147h-91c-15 0-37-3-69-8l-13 33h339l32 43 52-51c2-2 2-5 2-8 1-6-2-9-9-9H740l-51-147h127l26 37 56-41c2-4 4-6 4-8 0-4-8-14-25-31V374l4-88c0-8-7-15-20-23-11-6-24-9-37-8l4 117v303H596V368l4-84c2-10-4-18-18-25-14-8-26-12-37-12l4 121v369Z"/></symbol></svg>