<svg xmlns="http://www.w3.org/2000/svg"><symbol id="饞_G" viewBox="0 0 1000 1000" data-size="21"><path transform="matrix(1 0 0 -1 19 976)" d="m316 663 51-37c12-4 13-10 4-20l-19-15V396l3-75c0-8-5-15-17-23s-24-13-33-14v35H162V119l143 79c-20 26-39 48-59 69l10 11c35-19 64-39 86-58 21-20 35-38 41-55 4-16 4-30 0-42-6-11-15-18-26-19-10-1-17 4-21 15-3 11-5 20-8 28-2 8-7 18-14 32-72-55-115-87-128-97-14-10-32-29-55-55L76 82c24 14 37 25 41 35v523C78 579 43 534 12 503L0 513c54 84 98 161 133 232 34 70 65 138 92 203l62-31c8-5 9-10 4-16-18-5-31-14-39-25 38-12 67-22 86-31 19-10 33-20 41-32 8-11 9-24 4-37-4-11-12-18-24-19-10-1-19 6-27 19-6 12-16 25-27 39-12 13-34 27-65 43-13-27-29-56-47-87-18-32-38-67-60-104l37-35h123l23 31m-154-59V493h143v111H162m0-136V345h143v123H162m37 299 10 9c35-17 59-33 70-50 12-16 16-30 12-43-3-14-8-22-16-24s-15 0-21 4-10 12-12 24c-2 11-6 23-12 35-5 11-16 26-31 45m389-289c6-5 7-8 4-10-2-2-5-4-8-6-4-1-8-2-14-4-6 0-16-8-31-25h150l32 27 56-47c2-6 0-10-6-12-4 0-13 0-27-2-14-1-40-18-78-50h139l25 33 51-31c6-5 9-10 10-14 0-5-9-12-28-22v-54l4-45c0-8-6-14-15-18-10-4-22-8-36-10v38H707V119c0-17 3-29 10-35 6-7 19-9 41-8h94c13 0 23 3 29 8 5 5 10 13 14 25 3 12 5 29 7 50 0 20 2 41 4 65h18c2-23 4-47 6-75 1-24 11-40 31-45-7-19-15-34-25-43-10-10-21-16-32-20s-25-6-41-6H740c-19 0-35 2-47 6-11 4-20 12-25 23-4 11-6 28-6 51v111h-21c-18-57-53-103-106-138-53-36-121-65-205-88l-4 16c74 31 134 63 180 95 43 33 72 71 88 115H469v-18c0-8-5-16-16-21-10-6-21-9-33-10l4 74v80c-22-16-43-29-63-39l-7 12c26 23 55 50 85 82 31 31 63 68 96 111l53-19M469 249h133c4 16 6 41 5 76H469v-76m185 76c0-27-2-53-8-76h170v76H654m-15 24 47 60H516c-23-19-41-37-57-53l10-7h170m91-155 8 10c33-13 57-24 71-33 13-10 21-20 25-31 2-11 0-22-6-31-6-7-15-11-25-9s-16 9-18 21c-2 11-6 21-14 30-5 9-19 24-41 43m-80 467c38-8 61-14 71-19 2-4 0-8-6-12l-20-8v-41c45 13 95 33 151 61 31-24 47-38 47-43s-2-8-6-8c-4-1-13 0-28 2-14 2-35-1-62-8-27-6-61-14-102-23v-20c0-12 7-18 22-18h133c15 0 26 2 33 4 8 4 13 11 17 22 4 12 7 42 10 92h18c2-44 6-71 11-80 6-10 14-17 24-22-2-6-8-16-18-27-7-11-17-19-29-22-10-4-27-6-49-6H730c-20 0-37 2-50 6-12 2-20 8-24 18-4 8-6 23-6 43v109m-224-10 56-19c15-4 18-10 8-18l-17-8v-13h68l29 31 47-39c6-8 5-14-2-18H473v-50l146 31 4-16c-55-17-97-31-125-41-27-8-49-21-64-41l-41 47c15 7 26 16 33 25v129m172 276c11-6 11-12-2-18-19 0-37-15-57-47h156l32 35 62-44c0-7-3-10-8-10-4 0-13-2-27-6s-36-22-66-53h103l27 29 45-29c6-4 9-9 10-13 1-3-8-10-27-20v-37l4-41c-1-8-6-14-16-20-10-4-21-7-35-9v23H498v-6c-14-8-30-13-49-14l4 57v61c-41-44-74-75-99-92l-12 10c37 42 72 86 105 130 32 45 62 92 90 139l61-25M498 690h301v71H498v-71m158 94 37 55H514c-11-16-21-29-32-39l14-16h160Z"/></symbol><symbol id="饞_H" viewBox="0 0 1000 1000" data-size="21"><path transform="matrix(1 0 0 -1 37 966)" d="M157 933c33-7 60-15 83-24 5-2 8-5 8-11 0-5-6-9-18-11-10-3-20-4-29-4 20-14 39-28 55-41 21-16 38-30 49-42 12-11 21-21 27-29 4-7 7-14 10-21 2-6 4-12 4-19-1-19-8-29-22-29-4 0-8 1-11 4-4 4-13 18-27 42s-29 46-45 65c-13 16-31 33-53 52-5-18-10-34-16-49-9-22-20-45-31-67-10-16-19-30-27-42 25-5 55-7 90-7h3l36 37c20-14 38-28 55-42 4-2 7-5 7-8 0-10-4-14-12-14h-89c-46-1-78-4-95-7l-8 21c-12-17-24-33-36-47-3-4-7-8-9-11l48-34h150l34 32c33-23 50-40 50-49 0-6-10-15-29-24V371c0-15 0-25 1-29 0-5 1-11 1-16 0-13-12-22-34-26-10 0-15 3-15 10v19H100V95c9 2 18 5 26 8 23 5 49 15 76 27 23 9 48 21 76 35-2 8-5 15-8 22-11 22-25 46-43 74l13 15c18-18 33-37 47-56 14-18 25-33 32-46 8-12 14-22 18-30l6-24c2-6 3-13 3-20-1-23-9-35-26-35-2 0-5 2-7 5-2 4-8 20-16 46-3 10-7 19-10 27-21-18-40-32-57-41-22-15-43-27-63-39-18-10-38-19-59-27-7-24-13-36-17-36-5 0-21 27-48 82 4 1 7 1 10 2v479c0 23-2 42-5 58-9-10-19-20-29-28L0 614c19 18 35 37 49 57 13 20 26 42 40 65 13 25 24 49 34 73 9 21 16 42 22 62 5 18 9 38 12 62m-56-366-1-4v-89h162v93H101m-1-121v-90h162v90H100m405 487c51-8 77-15 77-24s-13-14-39-15l-26-30h139l28 28c20-15 39-31 55-48 2-2 3-4 3-6 0-5-6-8-17-11l-29-6c-8-8-17-15-29-23-1-1-3-2-4-3h99l34 32c33-23 50-40 50-49 0-6-10-14-30-24v-34l15-12c3-2 5-4 5-7 0-9-3-13-9-13H435c-6-7-17-11-34-13-10 0-15 4-15 13 0 13 0 23 1 32v35l-2 29c-9-3-18-6-28-10l-13 19c30 13 55 26 74 40 22 16 40 31 54 46 16 17 27 35 33 54m-68-218h329l4 4v49H434v-30c0-7 0-12 2-16 0-3 1-5 1-7m-2 80h191c7 6 13 12 17 18 6 8 11 16 14 24H484c-13-9-28-18-46-27l-13-8 10-7m-40-138c27-5 49-10 67-15 6-2 10-6 10-10 0-3-3-6-7-8-6-4-13-7-22-10v-21h77l31 31c17-13 34-25 49-37 4-3 5-5 5-8 0-9-3-14-10-14H443v-44l32 2c38 2 82 9 130 21l4-21c-52-18-112-34-180-45-10-23-17-34-20-34s-6 3-9 8c-7 18-15 40-21 65 6 0 13 0 21 1v68c0 32-2 56-5 71m238 0c30-5 56-11 77-17 6-2 10-6 10-12 0-5-4-9-10-12-9-3-19-6-28-8v-15h76l31 31c18-13 34-25 49-37 4-3 6-5 6-8 0-9-4-14-11-14H682v-27c0-11 2-18 6-22 5-6 13-9 24-11 14-5 35-7 64-7 21 0 38 0 50 1 10 1 17 3 23 5 6 1 10 5 12 12 4 8 8 29 12 63l18-6c-2-7-2-14-2-21 0-9 2-14 6-17 1-4 6-8 15-12 11-4 16-11 16-19 0-6-3-11-9-17-7-8-17-13-28-15-15-6-31-8-50-9-22-3-42-5-63-5-31 0-55 2-72 5-21 3-36 7-43 12-7 4-13 11-16 21-4 8-6 17-6 27v72c0 25-2 46-6 62M513 472c51-7 77-15 77-24s-13-14-39-15c-5-6-10-10-15-14h107l25 25c21-15 39-31 56-48 2-1 3-3 3-5 0-5-6-9-18-11l-28-6c-8-6-18-13-30-20-2-1-3-2-5-2h131l35 32c33-24 49-40 49-49 0-7-9-15-29-24v-59c7-5 13-10 19-15 3-2 4-4 4-7 0-9-2-13-8-13H648V113c0-9 3-16 8-22 3-6 10-11 21-14 13-2 38-3 74-3 29 0 55 1 79 3 9 0 16 2 21 7 4 3 8 9 10 18 6 11 10 40 15 85l19-4c-3-18-4-35-4-52 0-11 2-20 5-27 6-7 13-14 22-18 5-3 8-7 8-14 0-2-1-6-3-10-5-7-13-13-25-17-13-5-31-9-56-11-28-2-53-4-73-4-41 0-71 2-91 4-18 1-33 4-43 9-12 4-21 10-27 20-4 8-6 15-6 22v127c-3-7-6-13-9-19-10-22-23-41-38-58-18-19-36-35-55-48-23-16-51-29-82-41-29-12-62-23-100-31l-13 21c53 14 92 29 118 43 25 13 47 28 67 46s35 36 46 57c7 11 12 22 16 35H430v-5c0-11-12-18-36-22-11 0-16 5-16 14 0 12 0 23 1 31v80l-2 25c-10-3-21-6-31-9l-14 19c34 11 62 23 84 35 24 13 44 27 59 40 18 15 31 31 38 47m-86-228h133c0 1 1 2 1 3 3 19 5 45 5 77H426v-70c0-5 0-8 1-10m194 80c-1-23-3-44-7-63l-3-17h174v80H621m-194 28h180c9 6 15 12 20 17 6 7 11 14 15 21v2H498c-16-10-37-20-62-31-4-2-7-3-11-5l2-1v-3m285-158c22-8 40-17 53-26 11-7 20-14 25-22 4-5 6-10 6-14 0-21-8-31-23-31-3 0-6 1-8 3-3 1-6 4-8 10-7 15-15 26-24 35-8 10-19 19-34 30l13 15Z"/></symbol><symbol id="饞_T" viewBox="0 0 1000 1000" data-size="21"><path transform="matrix(1 0 0 -1 29 969)" d="M267 323H96V89c74 22 134 43 182 65-11 22-31 50-59 86l10 13c82-58 123-110 123-156 0-24-9-35-27-35-12 0-20 10-25 30-3 16-8 31-13 45-49-34-110-68-183-103-2-7-3-12-3-15C98 6 94 0 89 0S78 5 73 16L42 75l7 2v462c-2 40-4 65-4 75l57-33h157l30 35 35-25c14-9 21-17 21-24 0-6-11-15-33-25V381c0-14 1-31 2-51 1-10 2-17 2-22 0-16-11-23-32-23-12 0-17 4-17 12v26m0 30v89H96v-89h171m0 200H96v-82h171v82m293-142h106l27 31 51-38c7-6 11-11 11-15 0-7-5-11-15-14l-32-6c-14-10-29-20-45-30h137l32 36 35-25c12-9 18-17 18-23s-3-11-8-14l-20-12v-63l13-13c5-5 7-9 7-12 0-7-6-10-18-10H675v-90c0-20 3-33 10-37 9-6 45-9 109-9 31 0 51 3 62 7 13 5 22 20 27 43 1 5 5 24 11 58l19-7-4-51c0-17 3-29 9-35 1-1 7-6 18-15 4-3 6-7 6-11 0-21-52-32-156-32-72 0-116 3-129 9-20 8-30 26-30 53v117h-3c-22-64-63-112-123-143-42-22-95-40-161-54l-4 17c65 21 115 43 151 67 29 19 51 42 67 66 6 11 13 26 22 47H442c0-17-13-25-37-25-7 0-11 3-11 10v141l-15-5-13-5-7 17c65 31 114 60 146 86 16 13 32 30 48 52l57-22c9-4 13-8 13-14 0-9-6-13-19-14l-28-3-16-10m-42-27c-18-10-45-22-81-38l15-7h179c11 14 21 29 32 45H518m128-73c-4-23-8-50-14-79h176v79H646m-49 0H442v-79h142c3 12 7 38 13 79m69 468h123l32 36 35-24c15-12 22-20 22-24 0-9-11-18-32-26v-48l13-9c4-3 7-7 7-11 1-7-5-11-17-11H662l39-11c22-6 33-13 33-20 0-6-6-12-18-16l-27-9v-24h84l28 27 41-28c5-4 8-9 8-13 0-9-4-13-13-13H689v-19c0-21 4-33 10-37 10-6 37-9 84-9 33 0 55 2 66 4 12 3 21 12 26 27 0 1 4 13 10 36l15-2v-11c1-17 4-29 10-35 1-1 7-6 17-15 4-3 7-7 7-11 0-8-8-15-22-21-19-7-59-10-122-10-66 0-105 3-119 8-19 9-28 26-28 54v88c-1 22-2 42-3 60H441c-3-7-9-11-20-14l17-3c29-7 43-14 43-22 0-5-4-9-14-14l-15-7v-20h83l28 27 41-28c5-4 8-8 8-13 0-8-5-13-13-13H452v-56c27 2 66 7 119 14 20 3 38 5 53 8l3-17c-18-7-40-13-64-19-5-2-13-4-21-6-9-3-22-6-39-10-6-1-23-5-51-12-1-4-1-6-2-8-4-17-9-26-15-26-5 0-10 6-17 19l-24 50 10 3v82c0 26-1 48-2 66l-1 4c-4 2-6 6-6 10v114l-6-3-19-8-9 15c74 46 126 100 157 162l60-20c8-3 13-8 13-15s-7-13-22-15l-22-3c-7-10-15-20-24-28h139l29 30 50-36c8-6 11-11 11-16 0-7-4-12-14-13l-32-6c-14-13-27-25-40-36m-36 0 9 16 21 35H495c-18-14-39-27-63-41l20-10h178m-189-91h357v63H441v-63m271-511 13 14c44-17 72-31 83-43 10-11 15-22 15-32 0-14-6-22-18-22-8 0-18 9-28 26-13 19-34 39-65 57M106 703c27-3 50-5 69-5h39l39 39 56-42c6-4 8-8 8-12 0-9-4-13-13-13H175c-22 0-47-2-73-5l-9 21c-23-26-49-54-80-83L0 613c46 59 84 118 113 179 18 35 34 82 48 139l64-19c15-4 23-10 23-17 0-8-7-13-20-16l-25-4v-2c99-48 148-91 148-129 0-19-8-28-23-28-11 0-21 8-30 25-25 45-60 82-105 112-2-4-5-10-8-19-23-49-49-93-79-131Z"/></symbol><symbol id="饞_J" viewBox="0 0 1000 1000" data-size="21"><path transform="matrix(1 0 0 -1 28 953)" d="M0 503c68 103 121 238 158 403l83-18c13-3 20-7 20-13 0-5-4-10-12-13l-23-7 2-3c108-43 162-88 162-135 0-12-4-22-13-31-5-5-10-8-17-8-6 0-11 1-14 4-7 7-17 24-32 53-8 17-28 40-59 71-13 13-26 23-39 32-30-67-55-121-76-160h92l39 43 63-51v-18l-190-1-8 19-42-69 33-21h145l25 39 65-39c9-6 14-12 14-17s-5-9-14-12l-18-7V317l-61-9v29H130v-87l135-1 40 47 66-54v-20H130v-91l138-1 45 52 70-58-1-20H130V11L68 0v558c-18-25-36-47-55-67L0 503m130-53v-88h153v88H130m0 104v-78h153v78H130M356 19c73 25 125 49 154 70 41 31 70 73 87 128h-86v-32l-56-9v137c-21-18-43-35-66-51l-12 12c54 55 97 115 130 182l-70-18-4-9c-3-6-7-9-11-9-3 0-7 2-10 7l-37 61 103 7v110l-23-4v105c-20-22-45-47-75-74l-12 10c63 85 113 173 149 262l73-13c13-2 20-7 20-14 0-6-5-10-15-13l-25-8-17-27h129l27 32 58-40c9-6 14-12 14-17 0-4-2-8-5-11s-7-4-11-3l-4 1h-24l-69-52h121l24 34 57-38c7-5 11-10 11-15s-5-8-14-10l-11-3-1-86-57-6v23H507v-11l33-4c10-1 15-5 15-11s-4-11-12-14l-12-5 1-25h46l32 38 53-47-1-17H531l1-43 141 11 1-16-101-24 14-5c6-2 9-5 9-10s-3-9-9-10l-15-4-19-25h125l18 26 60-32c8-4 12-8 12-12 0-9-6-12-17-11h-3l-11 1-60-52h117l24 36 56-37c9-6 13-11 13-16 0-4-4-8-12-11l-16-6V197l-55-8v28H657l-6-21 50-8c11-2 16-6 16-11 0-4-3-8-9-11l-11-6-1-80c0-7 6-11 17-11l96-2c19 0 34 2 47 5 11 3 20 15 27 36l19 58h14l-2-58v-2c-5-18 5-32 29-42-3-17-10-28-20-34-13-8-30-12-52-12H720c-39 0-63 4-72 13-5 5-7 17-7 34v100c-23-43-54-75-94-98-47-26-108-47-184-64l-7 16m172 371-36-42 15-12h130l31 54H528m-33 362 22-12h127l34 63H534l-39-51m16-509h92l14 67H511v-67m-4 470v-49h292v49H507m172-403c-5-22-10-44-15-67h140v67H679m241 244-1-37v-5c-1-10 6-19 22-28-4-13-10-22-18-27-13-7-38-11-77-11h-87c-30 0-49 3-57 8s-12 14-12 26v145l58-4c13-1 19-5 19-11 0-4-4-8-13-13l-11-5v-30c32 11 69 26 111 45l42-33c3-3 5-5 5-8 0-5-4-8-12-8h-20c-37-7-79-13-126-18v-34c0-9 5-13 16-13h92c21 0 35 9 42 26l13 35h14M737 192c19-1 39-6 60-17 25-13 38-29 38-48 0-10-3-18-10-24-4-4-9-6-14-6-9 0-18 9-29 28-8 15-25 33-50 53l5 14Z"/></symbol><symbol id="饞_K" viewBox="0 0 1000 1000" data-size="21"><path transform="matrix(1 0 0 -1 47 944)" d="M648 348H490c-11-19-24-37-39-54l9-9h155l33 63m-203-85v-64h130c10 20 18 41 23 64H445m357 0H658c-2-5-6-16-11-32-5-15-9-26-12-32h167v64m-95-111 5 7c58-17 87-39 87-66 0-17-8-25-23-25-10 0-18 8-25 24-13 29-28 49-44 60m-76 459 79-13v-15l-24-9v-32c40 9 84 27 133 53l43-41-10-12-36 9c-45-14-88-23-130-27v-38c0-18 16-27 48-27h68c26 0 43 9 50 27l21 56 11-2-5-70 24-16v-13c-13-13-37-19-74-19H724c-37 0-62 4-75 12-12 8-18 24-18 49v128m14 185H478c-9-12-22-28-39-49l19-12h162l25 61m150-83H454v-53h341v53M214 855v-12l-25-7-10-15c97-37 145-79 145-124 0-23-9-34-26-34-9 0-17 7-25 20-25 42-42 69-51 80-9 12-26 27-51 45C116 700 63 619 10 564l-10 9c58 93 101 198 129 313l85-31M86 625v23h99l32 38h14l36-44v-17H86m129-79 27 37h15l50-46v-16l-24-23V316l-6-11-45-15-9 7v25H104v-96h111l33 40h15l42-48v-15H104v-88h111l33 43h15l44-49V93H104V33l-4-10L54 7l-10 5v561l65-27h106m8-23H104v-79h119v79m0-101H104v-78h119v78m417 397 36 31h13l44-47-5-14-39-4-43-50h138l31 32h14l44-36v-15l-23-18v-73l-4-10-44-12-7 8v27H454c0-7-2-13-5-18l-40-9-10 4v93c-28-31-51-52-69-65l-10 11c61 73 109 151 143 233l73-29-3-14-24-2-15-23h146M390 607l79-16v-15l-24-11v-14h89l33 34h12l36-39v-18H445v-57l158 12v-16l-220-43-10-33h-15l-29 73h61v143m249-237 30 33h14l44-42-5-17-30-4-53-55h151l33 36h13l49-38v-11l-24-23v-82l-5-14-47-8-7 5v26H683V79c0-12 2-21 5-27s7-9 10-10c4-1 10-2 18-2h83c16 0 27 2 33 7 7 4 12 13 17 28l14 42 14-2 3-71 25-11-1-15C889 6 862 0 823 0H713c-35 0-58 4-69 13-11 8-16 28-16 60v103h-6C555 77 448 21 303 8l-4 13c65 14 117 33 157 56 41 23 77 56 109 99H445c0-11-2-19-5-26l-41-13-9 8v100c-22-20-40-35-55-44l-6-5-8 11c37 39 65 73 84 101s42 71 71 130l62-33-3-11-20-3-14-21h138Z"/></symbol><symbol id="饞_V" viewBox="0 0 1000 1000" data-size="20"><path transform="matrix(1 0 0 -1 30 1010)" d="M287 167c-33-29-67-55-104-80S112 35 80 4L16 44l91 48v586c-15-25-29-50-44-73s-33-45-54-66l-9 1c22 31 43 67 62 106 19 40 37 82 53 125 16 44 30 87 43 130s23 82 32 119l65-53-19-19-12-27c11-5 26-11 44-18 19-7 37-16 55-26 19-9 34-20 46-32 13-12 19-26 19-41 0-4-1-10-2-18s-3-16-6-23-7-10-14-10c-4 0-7 2-10 5s-5 6-6 9c-16 32-35 59-56 82s-47 44-76 65c-15-38-31-76-49-113-17-37-36-73-55-109l45-50h110l35 39 53-51-30-31V318c-7-7-14-13-21-18s-15-9-24-12v43H151V107l128 72c-6 17-15 32-26 46-11 15-22 28-34 40l-1 3c19-9 40-20 63-34 23-13 43-30 59-49 17-19 25-40 25-65 0-7-1-15-4-24-2-9-8-14-17-14-11 0-20 6-27 17s-13 23-18 37c-5 13-9 24-12 31m372 86-13-1c-19-49-46-89-81-121-35-33-74-59-119-79-44-21-90-38-137-52v3c24 12 51 27 80 44s58 37 87 59 54 45 75 70c22 25 38 51 47 77H496v-29c-8-5-15-10-22-15s-15-9-24-12v177l-67-42c30 30 61 64 92 101 32 38 58 76 77 113h-7l-70-36c-3-2-7-4-11-6l-12-6-27 51c5 4 11 6 17 7s12 3 18 8v134h6v103c-28-28-59-53-92-74 35 41 70 85 103 131 34 46 63 93 86 142l62-43-25-8-44-48h136l37 32 45-50c-25-7-46-16-63-27-16-11-34-25-53-42h112l22 37 59-42-26-26v-77H685l39-19-20-46v-33c11 3 24 8 37 15 13 8 27 16 40 25s24 17 33 24c7-9 14-17 21-26 7-8 14-17 20-26h-12c-2 1-4 1-6 1-2 1-4 1-6 1-18 0-39-3-64-10s-46-13-63-18v-22c0-7 4-12 12-16 9-3 16-5 21-5h99c12 0 21 5 26 15 6 11 10 23 12 38s3 29 2 43v33h5c0-17 1-37 2-60s6-42 15-57c4-7 10-12 17-16 8-4 12-9 12-16 0-5-5-10-15-13-9-3-21-5-34-6s-26-1-38-1H696c-12 0-21 5-28 14-6 10-9 20-9 31v150H511l-33-14 36-18-11-37h70l36 32 47-49H503v-56c25 6 51 12 76 17 26 5 51 11 76 17l3-7-99-41 52-48-22-4-39-37h120l37 33 48-52c-41-16-79-39-112-68h130l29 37 59-47-29-30v-81H704V101c0-8 3-15 8-20 5-6 12-9 20-9 19 0 39 0 59 1h60c12 0 21 6 26 18 6 11 10 25 11 42 2 16 3 32 3 47v35l5-1c1-13 2-27 3-44 1-16 3-32 6-47 3-16 8-29 15-40 2-3 6-7 11-14 6-7 9-12 9-14 0-7-4-12-12-15-7-4-16-7-25-8s-15-2-20-2h-46l-91 1h-46c-9 0-18 4-27 12s-14 16-14 25v185M541 882l-41-52 18-16h128c9 11 18 23 27 34s17 23 26 34H541M271 722c0-3-1-10-4-19-2-9-5-17-9-24-3-7-8-11-13-11-3 0-5 4-8 11s-5 15-7 23c-1 9-2 14-3 16-4 15-9 31-14 47s-11 31-19 46c15-11 30-24 46-39s26-32 31-50m506 72H513v-69h264v69M165 620l-14-17V501h132v119H165m117-141H151V355h131v124m196-84 18-21h133l42 68H535c-7-3-17-11-29-22-11-11-21-19-28-25m305-41H667c-2-13-4-27-7-41-2-13-5-27-8-40h131v81m-289-81h110c5 13 9 26 10 40 2 14 3 28 4 41H495v-4l-1-9v-68m340-140c0-6-1-11-4-15-3-5-7-7-14-7-9 0-16 3-21 9-4 6-8 13-11 20-7 17-17 32-28 43-11 12-23 24-38 35h4c8 0 18-2 31-7s25-11 37-19c13-8 23-17 31-27 9-10 13-21 13-32Z"/></symbol><symbol id="饟_G" viewBox="0 0 1000 1000" data-size="21"><path transform="matrix(1 0 0 -1 19 966)" d="M789 542c1-3 1-5 2-8-2-2-5-4-8-6l-23-9v-20h84l29 39 49-47c2-2 3-4 4-4 4-6 3-9-4-11H760v-69h68l29 33 49-43c2 0 3-3 4-7 2-4 0-6-8-6H760v-71h101l30 38 52-45c2-2 4-5 4-8 0-6-4-9-9-8H676c17-47 39-84 64-111 37 29 70 56 98 82 34-22 53-35 55-37 2-3 2-6 0-8-3-1-8-3-16-4-7 0-18-2-33-6s-46-18-92-43c23-22 46-38 68-49 21-9 42-18 63-26 19-6 46-11 80-16V55c-27 0-46-4-57-10-11-5-20-14-27-25-41 22-73 43-96 62-23 20-47 45-70 75-23 31-44 75-63 133h-2c-23-29-43-53-58-70V78l121 42 10-15c-63-30-102-52-117-66-15-11-30-24-45-39l-45 51 31 17v107c-55-50-129-96-223-136l-8 12c73 44 129 83 168 118 38 34 73 75 106 121H459c-14-1-30-4-49-10l-17 33h162v71h-59c-14-1-28-4-43-10l-21 33h123v69h-98c-4-1-16-4-35-10l-18 33h151v72l66-21c5-2 7-4 8-6s-1-4-4-6l-25-12v-27h113v64l76-21M600 313h113v71H600v-71m0 94h113v69H600v-69m232 395 35 45 59-53c2-1 3-3 4-4 2-8 0-12-6-12H463c-14 0-28-2-43-7l-16 31h428M574 915l6 12c43-14 72-26 88-37 14-12 23-24 25-37 2-14 0-24-7-30-8-6-17-9-26-8-10 2-17 10-21 26-5 13-12 25-22 37-8 9-23 21-43 37M441 753l43-35h90l24 29 45-31c3-3 5-7 5-10 1-2-6-8-21-18v-54l4-37c0-8-7-16-20-24-12-6-21-8-27-6v22H484v-12c0-6-4-12-11-17-8-6-20-9-35-8l3 70v131m43-143h100v86H484v-86m204 135 42-29h86l24 29 43-31c4-3 6-7 6-10 0-2-7-8-22-17v-55l4-37c1-8-5-16-17-24-12-6-22-8-30-6v24h-94v-6c1-2-2-4-9-6-6-2-19-5-37-8l4 77v99m42-135h94v84h-94v-84m-414 34 51-38c12-3 13-10 4-19l-19-16V376l3-74c0-8-5-16-17-24-11-7-22-12-33-13v47H158V111l139 76c-16 19-35 40-57 62l10 12c37-22 66-42 86-61 19-18 32-34 39-49 5-14 5-26 0-37-6-8-14-14-23-16-11 0-18 5-22 14-3 9-5 18-8 26-2 5-6 15-13 31-73-52-118-85-133-99s-30-32-45-54L72 70c24 14 37 26 41 35v535c-39-53-73-94-101-123l-12 7c51 80 92 153 123 217 32 63 62 127 90 192l62-32c8-5 10-10 4-15-17-6-29-14-35-24 41-19 72-36 92-49 19-13 33-27 41-41 8-13 9-26 4-39-4-11-12-18-24-19-11-1-21 8-29 25-8 16-19 33-33 53-14 18-35 35-65 53-45-86-82-149-109-190l41-41h131l23 30m-158-57V479h147v108H158m0-133V337h147v117H158m30 297 9 10c35-22 58-41 69-55 9-14 13-27 11-41s-7-21-17-23c-9-4-16-4-22 0s-9 11-11 23-6 25-12 41c-5 14-14 29-27 45Z"/></symbol><symbol id="饟_H" viewBox="0 0 1000 1000" data-size="21"><path transform="matrix(1 0 0 -1 32 959)" d="M178 916c30-6 57-13 80-22 4-2 6-6 6-11 0-6-6-10-16-13-10-2-19-3-26-4 20-12 37-23 52-33 22-12 39-24 52-34 12-8 20-15 26-22 3-7 7-13 9-19 4-5 6-9 6-14 0-19-8-29-21-29-4 0-7 1-11 4s-13 15-28 35c-13 21-29 39-46 54-14 14-32 29-54 44-7-19-14-37-21-54-10-24-22-46-37-67-6-11-12-21-16-28 24-4 53-6 86-6h10l35 35c19-14 37-27 52-39 6-2 8-5 8-9 0-11-4-16-13-16h-92c-47-1-78-1-94-2l-7 14c-4-4-7-8-10-11-12-18-26-35-43-49-2-2-3-3-4-5l43-33h175l28 33c33-21 50-36 50-43 0-8-8-17-25-29V301c0-11-10-18-31-22-11 0-16 3-16 8v18H96V98c10 2 21 6 31 10 23 7 49 16 78 27 22 10 47 22 77 35l-3 2c-11 21-26 45-47 72l14 14c18-17 36-35 52-53 14-18 26-33 36-45 7-12 13-23 18-31 2-7 4-13 6-21 2-7 3-15 3-22 0-21-7-31-21-31-3 0-6 1-9 5s-9 19-19 44c-7 17-13 34-20 49-23-19-44-33-63-43-22-15-43-28-63-37-20-12-41-22-62-30C97 20 92 8 90 8c-5 0-21 26-47 78 4 1 7 1 10 2v471c0 17-1 32-2 45-12-13-24-23-37-32L0 590c21 20 40 40 55 60 15 19 30 41 45 65 15 25 28 49 39 74 10 22 19 43 25 63 7 18 11 39 14 64M96 555v-98h189v98H96m0-125v-98h189v98H96m494 488c10-5 21-11 31-18 10-6 18-12 24-18 6-5 11-10 15-13 3-4 4-8 4-12 0-13-2-23-6-30l-1-1h161l43 43c21-16 41-31 61-45 4-3 6-6 6-10 0-11-4-17-10-17H479c-45-1-77-2-94-4l-18 43c28-7 65-10 112-10h145c-1 2-1 3-1 4-2 9-6 18-12 27-5 10-10 17-15 24-5 8-12 17-22 27l16 10M426 775l53-27h82l29 27c30-18 45-32 45-39s-9-15-28-25v-64c7-5 12-9 17-12 3-2 5-3 5-6 0-9-3-14-8-14H469v-4c0-7-4-12-11-15-10-4-17-6-22-6-7 0-10 4-10 12v173m43-134h95v78h-95v-78m203 134 53-27h89l30 27c30-18 45-32 45-39s-9-15-28-25v-64c7-5 12-9 17-12 3-2 5-3 5-6 0-9-3-14-8-14H715c0-6-4-11-11-15-10-4-17-6-22-6-7 0-10 4-10 13v168m43-134h103v78H715v-78M383 529c28-9 66-13 113-13h33c0 33-1 58-4 74 30-5 54-10 73-15 6-2 9-6 9-11 0-4-2-7-6-9-7-5-14-9-23-12v-27h125c0 32-1 56-4 70 29-4 52-9 71-15 6-2 9-7 9-12 0-4-2-6-7-8-7-5-14-8-22-10v-25h74l33 35c19-12 36-25 51-38 4-3 6-6 6-9 0-9-3-14-10-14H750v-64h39l35 35c16-12 33-24 49-38 4-3 6-5 6-7 0-10-3-16-8-16H750v-68h78l33 37c19-14 37-27 54-39 5-2 7-4 7-8 0-11-4-17-12-17H645c-18-20-37-38-56-54-15-10-29-20-42-29V82h3c17 3 35 8 54 15 21 7 44 16 72 26l2-21c-18-13-34-23-47-30-16-9-31-17-44-23-14-6-27-11-40-16-7-22-13-33-18-33-4 0-19 24-43 72 6 1 10 2 14 2v121c-1-1-2-2-3-2-31-18-72-35-122-52l-14 21c44 18 79 35 106 49 23 14 44 30 65 46 17 15 33 31 49 48h-95c-45-1-76-2-93-4l-18 43c28-8 65-12 111-12h43v68c-37 0-62-2-76-4l-21 43c25-8 58-13 97-13v64h-33c-46 0-78-2-96-4l-17 43m195-197h125v68H578v-68m0 94h125v64H578v-64m268-186c-11-7-23-14-38-20-11-6-24-11-37-14l-27-9c10-14 19-25 27-34 14-14 31-27 50-39 20-15 41-26 62-32 17-7 35-13 53-16V64c-34 0-54-10-61-31-25 11-46 23-62 37-23 14-41 31-55 52-20 20-35 42-47 66-14 24-26 52-35 83l23 8c13-28 24-51 33-69 1-1 1-1 0-1 12 6 21 12 28 18 9 7 18 15 27 23s15 16 20 25c7 8 13 15 17 22 46-29 69-46 69-53 0-5-5-8-14-8-8 0-19 2-33 4Z"/></symbol><symbol id="饟_T" viewBox="0 0 1000 1000" data-size="21"><path transform="matrix(1 0 0 -1 37 967)" d="M13 596 0 608c46 59 84 118 113 179 18 35 33 81 48 139l64-19c15-4 23-10 23-17 0-8-7-13-20-16l-25-4v-2c5-3 10-5 13-7 90-44 135-84 135-122 0-19-8-28-23-28-11 0-21 8-30 25-25 45-60 82-105 112-2-4-5-10-8-18-24-51-50-94-79-132 26-3 49-5 69-5h39l39 39 56-42c6-4 8-8 8-12 0-9-4-13-13-13H175c-22 0-46-2-73-5l-9 21c-17-21-44-49-80-85m16 13 56-32h175l30 35 35-25c13-9 20-17 20-24 0-5-10-14-32-25V377l3-26 1-25c2-14 3-22 3-24 0-14-11-21-33-21-14 0-20 4-20 12v8H80V93c78 23 142 46 191 69-10 17-28 41-54 72l11 13c80-54 120-103 120-147 0-23-9-35-27-35-11 0-19 10-24 29-4 17-9 34-16 49-57-37-122-72-193-105-2-7-3-12-4-16-2-12-6-19-11-19S62 9 57 20L26 79l7 2v454c0 5-1 29-4 74m238-60H80v-95h187v95m0-124H80v-95h187v95m456-263c26 18 46 33 59 46 13 14 30 34 51 63l35-28c15-12 23-21 24-29 0-7-5-10-16-10h-4l-24 4c-36-22-71-43-106-63 43-38 104-62 182-72V55c-20-3-34-6-41-11-8-4-15-13-20-25-108 41-183 117-227 227l15 8c31-45 55-76 72-92M411 774l49-27h82l29 35 35-24c14-10 21-18 21-25 0-4-11-13-32-25v-72l9-8c9-5 13-10 13-14 0-6-4-10-11-10H458v-7c0-10-8-15-25-15-18 0-26 6-26 18 0 2 0 8 2 20l1 15 1 24v115m47-142h91v86h-91v-86m199 142 48-27h94l30 35 34-24c14-10 21-18 21-24 0-5-10-14-32-26v-72l8-8c14-5 20-10 20-14 0-6-5-10-17-10H701v-1c0-11-8-16-24-16s-24 7-24 19c0 1 1 7 2 19l1 16 1 24v109m46-142h102v87H703v-87M560 933c68-20 103-45 103-75 0-9-5-18-14-25h166l43 42 56-42c8-6 12-11 12-15 0-9-4-13-12-13H440c-22 0-46-2-73-5l-19 42c41-6 72-9 92-9h189c-4 3-11 12-22 29-11 19-30 37-56 55l9 16m-87-766c-29-17-66-33-112-49l-5 17c80 43 147 95 201 156H451c-24 0-48-2-73-5l-19 42c39-6 70-9 92-9h71v67h-18c-23 0-47-2-72-5l-20 42c40-6 71-9 92-9h18v64h-58c-23 0-47-2-73-6l-19 42c42-5 73-8 92-8h58v6c0 34-1 59-2 74l52-12c26-6 40-13 40-21s-8-14-23-18l-20-5v-24h104c0 34-1 59-4 74l53-12c27-5 40-12 40-21 0-8-6-14-18-17l-24-6v-18h85l35 33 50-38c4-4 6-8 6-13 0-7-3-10-10-10H720v-64h67l33 33 46-33c8-5 12-11 12-18 0-6-3-10-9-10H720v-67h85l40 37 45-35c8-7 12-12 12-17 0-9-3-13-8-13H623c-32-34-66-66-103-95V80c35 8 83 23 144 46l7-15c-51-36-101-63-151-82V13c0-9-4-13-12-13s-15 7-22 22l-22 45 9 4v96m96 152h104v67H569v-67m0 95h104v64H569v-64Z"/></symbol><symbol id="饟_J" viewBox="0 0 1000 1000" data-size="21"><path transform="matrix(1 0 0 -1 42 953)" d="M0 530c33 59 61 117 82 176 29 79 47 146 55 199l86-14c15-3 23-7 23-14 0-6-6-11-17-15l-24-7c109-43 163-89 163-137 0-13-4-23-13-30-5-5-11-7-18-7-11 0-20 9-29 26-22 45-45 77-68 98-19 17-33 28-44 33-3-7-13-31-32-72-11-24-26-55-47-92h92l40 47 64-54-1-20H119l-7 18-41-64 42-27h137l19 34 62-36c9-5 14-11 14-17 0-5-4-10-11-13l-19-8 2-209-59-11v21H118v-85h123l36 45 58-49v-21H118V125h122l42 46 65-52c75 55 136 116 184 182H345l-10 25h156v61H384l-10 27h117v59H368l-12 26h135v54l68-4c11-1 17-5 17-11 0-5-4-9-12-12l-14-6v-21h105v55l63-5c13-1 19-5 19-12 0-5-4-9-13-12l-10-3v-23h72l41 46 62-51v-21H714v-59h48l37 43 62-49v-21H714v-61h87l40 47 63-50v-22H637c2-3 3-6 3-9s-2-5-6-6l-13-3c19-37 47-73 86-107 28 31 56 64 83 101l59-26c9-4 13-8 13-13 0-6-6-9-18-10l-19-1-102-65c59-41 123-72 193-92l-3-16c-19-2-33-6-42-12-8-5-14-15-19-29-54 29-101 63-141 100L446 24l-4-13c-2-7-6-11-11-11-3 0-7 3-11 8l-48 65 107 17v82c-75-53-146-95-212-126l-9 16c20 11 41 23 62 36H118V11L57 0v577l-44-56-13 9m118-84v-85h140v86l-140-1m0 101v-75h140v75H118m418-447 160 28c-41 43-71 93-92 151l-68-61V100m14 287v-61h105v61H550m0 86v-59h105v59H550M372 762l-11 26h212l-1 115 68-4c16-1 24-7 24-16 0-5-4-10-13-14l-16-7 2-74 148 1 51 59 76-63v-21l-540-2m18-203 1 171 58-31h84l19 33 57-36c9-5 13-10 13-14 0-5-4-8-11-10l-18-7-1-86-54-9v20h-94v-21l-54-10m53 116v-61h95v61h-95m195-109v160l53-26h92l20 30 55-33c9-5 14-11 14-16s-5-9-16-12l-14-5-1-93-54-8v27h-95v-17l-54-7m53 108 1-59h95v60l-96-1Z"/></symbol><symbol id="饟_K" viewBox="0 0 1000 1000" data-size="21"><path transform="matrix(1 0 0 -1 47 940)" d="M668 449h-99v-67h99v67m0-90h-99v-72h99v72M510 472v65l86-15v-15l-27-18v-17h99v62l85-16v-16l-25-10v-20h81l31 38h12l36-44v-17H728v-67h41l27 34h13l37-43v-14H728v-72h99l29 34h17l32-40v-17H677c13-31 29-62 48-92l109 80 44-47-9-11-29 4-106-40c51-52 106-87 166-106l-3-14c-23-5-42-18-57-38-46 34-83 70-110 108-27 39-52 91-77 156h-42c-15-19-37-45-67-80V97l160 33 4-15-241-83-7-27-16-5-36 68 76 16v70c-29-19-69-37-119-55l-9 13c85 45 146 96 182 152H373v23h137v72H408v23h102v67H382v23h128m25 236 25 33h14l49-44v-16l-24-19v-88l-6-7-38-11-11 7v19h-81c0-10-2-18-5-24l-40-10-10 8v185l59-33h68m9-22h-81v-82h81v82m241 22 25 33h14l49-44v-16l-24-19v-88l-6-7-38-11-11 7v19h-81c0-10-2-18-5-24l-40-10-10 8v185l59-33h68m9-22h-81v-82h81v82M589 790v90l91-18v-15l-31-18v-39h155l35 39h15l49-48v-14H365v23h224m-350 59-3-12-28-8-10-14c101-45 152-88 152-130 0-7-2-14-7-21s-10-10-17-10c-5 0-13 6-22 17-9 12-19 26-29 41-9 15-15 24-16 26-16 20-39 41-69 64-51-98-111-182-180-252l-10 9c74 114 124 221 151 321l88-31M95 619v23h112l33 38h14l37-44v-17H95m148-79 27 37h15l51-46v-16l-25-23V310l-6-11-45-15-9 7v25H113v-96h130l33 40h15l43-48v-15H113v-88h130l33 43h15l45-49V87H113V27l-6-10L63 0 53 6v563l65-29h125m8-23H113v-79h138v79m0-101H113v-78h138v78Z"/></symbol><symbol id="饠_G" viewBox="0 0 1000 1000" data-size="21"><path transform="matrix(1 0 0 -1 18 968)" d="m385 897 53-37h404l29 34 53-40c10-7 9-15-2-23l-18-12v-80l4-58c0-8-4-14-13-18-10-4-23-8-40-10v35H434v-15c-3-6-10-12-22-18-12-4-22-7-31-8l4 84v166m49-185h107v125H434V712m154 0h109v125H588V712m156 0h111v125H744V712m-10-74c9-4 10-10 2-18-13-2-24-8-33-19-8-10-19-32-35-65h211l33 41 49-49c2-2 3-4 4-7 0-6-3-9-8-8H822V407h47l27 37 47-47c2-1 4-4 4-7 0-5-4-8-9-8H822V272h47l33 40 47-49c2-2 3-5 4-8-1-5-4-7-10-8H822V114h57l31 41 49-48c2-2 3-5 4-9-1-5-4-8-10-8H678V43c2-14-3-23-14-29-12-9-23-14-35-14l4 128v359c-14-24-36-54-67-90l-13 10c31 53 56 101 76 145 20 41 36 80 49 117l56-31m-56-524h97v133h-97V114m0 158h97v110h-97V272m97 135v106h-97V407h97m-21 262 6 10c41-20 66-37 76-49 9-12 14-24 16-35 0-10-3-19-8-26-7-6-15-9-26-7-9 1-15 7-17 19-1 11-4 22-10 33-4 11-16 30-37 55M336 497l33 16c37 60 65 116 86 168l57-30c6-5 5-10-2-13-12-1-24-8-35-22-10-13-37-53-82-117l86 4c16 26 35 60 56 101l59-39c3-7 0-12-10-13-8-1-16-4-23-10-8-4-28-29-61-76-32-47-64-90-96-129l133 14c-8 18-21 38-37 60l10 10c32-23 55-42 68-57 14-14 22-28 24-43 3-13 2-25-4-35-4-10-12-14-24-14-10 0-17 6-19 16-2 9-5 24-8 43-43-8-78-16-106-23-26-8-49-17-68-28l-27 51c15 4 27 10 37 18 17 27 45 71 84 132-31-4-52-9-61-15-10-5-21-11-33-20l-37 51m49-254h21c2-53 2-92 0-115s-8-43-15-60c-8-15-18-25-30-29-11-4-20-3-27 2-8 6-10 14-8 25 1 13 8 24 20 34 10 8 19 25 25 49 7 24 11 55 14 94m123 26 13 5c32-28 53-52 65-72 12-19 18-36 18-49 0-12-3-23-10-33-8-8-18-10-30-8-11 4-17 14-17 32 0 15-2 31-6 48-3 18-14 43-33 77m-74-12 13 4c22-35 37-61 43-78 6-18 9-34 10-47s-3-23-10-32c-6-8-15-12-27-10s-16 12-14 28c2 15 2 31 2 49 0 16-6 44-17 86M270 653l39-33c13-6 15-14 4-21l-12-10V401l4-74c0-8-5-17-16-25-12-8-22-13-31-14v35H131V109l125 70c-16 29-35 58-59 88l10 9c39-26 68-51 86-74 18-21 29-39 33-53s4-27 0-38c-4-12-13-19-25-19-11-1-18 4-22 15-4 10-6 18-8 27 0 8-3 17-7 27-63-48-102-79-116-93-14-12-29-28-44-48L49 68c21 13 33 24 37 34v532c-20-40-44-76-72-108l-14 8c37 64 66 121 88 172 22 50 52 127 90 231l62-32c8-4 9-9 4-15-17-1-31-11-41-32 43-19 72-33 88-43 16-9 27-21 35-35 8-12 10-24 6-37-3-12-10-19-21-19-12-1-21 5-26 19-6 14-14 28-25 41-12 14-34 33-67 59-27-67-56-128-88-184l34-37h107l24 31m-139-58V485h127v110H131m0-135V349h127v111H131m27 293 10 10c35-22 58-40 68-55 10-14 13-27 10-41-4-14-11-21-19-23s-15-2-20 0-8 11-10 25c0 14-4 27-9 41-6 13-16 27-30 43Z"/></symbol><symbol id="饠_T" viewBox="0 0 1000 1000" data-size="21"><path transform="matrix(1 0 0 -1 25 957)" d="m390 885 55-33h407l33 37 40-27c13-8 20-16 20-23 0-5-2-10-6-13-2-2-12-8-31-18v-76c0-12 0-24 2-35 1-12 2-20 2-22 0-13-10-19-30-19-14 0-21 5-21 15v17H436v-15c0-10-9-15-25-15-17 0-25 6-25 18 0 1 0 8 2 20v15l2 24v150m46-170h110v108H436V715m155 0h112v108H591V715m159 0h111v108H750V715m-72-66 69-26c7-3 11-7 11-13s-4-9-11-11l-30-7c-3-6-9-19-16-38-2-6-8-19-17-38h116c-2 7-3 13-4 17-7 40-18 73-34 97l13 11c7-8 12-13 16-16 32-32 48-59 48-83 0-11-7-20-20-26h28l35 40 52-46c5-4 7-8 7-11 0-8-5-12-15-12H814V370h20l39 36 47-38c6-5 8-9 8-14 0-8-4-12-12-12H814V223h24l39 35 43-38c6-5 9-9 9-13 0-8-5-13-13-13H814V66h35l39 41 53-44c5-5 8-9 8-12 0-9-4-13-13-13H688V15c0-10-9-15-26-15-18 0-27 7-27 21 0 1 0 9 2 24l2 27 2 24v343c-13-19-30-41-52-64l-13 12c39 55 73 142 102 262m10-583h80v128h-80V66m80 157v119h-80V223h80m0 147v117h-80V370h80M438 218c56-56 84-100 84-130 0-20-8-30-22-30s-22 10-25 31c-7 44-23 84-49 119l12 10m8 440 62-31c5-2 7-6 7-10 0-7-5-12-16-13l-21-1c-38-63-69-109-92-137 30 1 65 4 106 11 18 26 34 57 50 92l61-29c7-3 10-7 10-13 0-7-4-12-13-12l-27-3c-46-68-96-129-152-183-17-17-29-29-35-34 54 9 111 23 169 42-10 18-21 35-34 50l14 10c54-38 81-73 81-103 0-10-3-18-11-24-3-3-8-5-13-5-6 0-12 3-16 9-2 2-3 8-5 17-1 7-4 16-8 26-20-12-75-34-163-68l-5-20c-2-6-6-9-10-9-6 0-10 3-14 9l-28 56c46 43 89 97 131 162-15-5-40-12-76-21l-5-19c-2-6-5-9-9-9-5 0-9 4-13 12l-21 47c34 46 66 113 96 201m-86-464c50-61 76-107 76-140 0-9-3-17-8-23s-11-10-18-10c-14 0-21 12-23 36-3 47-16 90-40 130l13 7m165 55c62-57 92-103 92-138 0-17-7-26-21-26-7 0-13 3-17 9-4 4-9 20-16 50-8 27-25 58-51 93l13 12M107 683c26-3 49-5 68-5h39l39 39 56-42c6-4 8-8 8-12 0-9-4-13-13-13H175c-23 0-47-2-73-5l-9 21c-23-27-49-55-80-85L0 593c49 62 87 122 113 178 18 38 34 85 50 144l65-19c15-4 22-10 22-18 0-7-6-13-20-15l-24-5v-2c98-46 147-87 147-124 0-9-3-16-9-23-5-5-11-7-18-7-10 0-20 8-29 25-26 45-59 82-101 109-2-3-4-9-8-18-23-49-49-94-81-135m158-378H107V91c43 13 90 28 141 45-12 21-32 49-60 83l11 13c79-54 119-104 119-148 0-23-9-34-26-34-12 0-20 9-24 29-4 14-7 26-11 36-35-24-82-50-142-78-1-7-3-12-3-16-3-13-7-19-12-19S90 7 84 18L53 77l7 2v442c-2 40-4 65-4 75l57-33h144l31 35 35-25c13-9 20-17 20-24 0-5-10-14-31-26V354c0-12 0-24 1-36 2-12 2-19 2-21 0-13-9-20-29-20-13 0-20 4-20 13l-1 15m0 230H107v-84h158v84m0-201v88H107v-88h158Z"/></symbol><symbol id="饠_J" viewBox="0 0 1000 1000" data-size="21"><path transform="matrix(1 0 0 -1 34 952)" d="M0 519c37 62 67 124 90 185 22 58 42 125 60 200l85-21c11-3 17-7 17-14 0-5-5-8-14-11l-17-6c99-40 148-83 148-130 0-27-10-40-31-40-6 0-12 2-18 6-7 5-15 20-25 46-19 47-49 83-88 107-5-12-17-38-34-77-7-17-23-47-46-91h86l39 49 66-54v-22H126l-6 14-33-55 48-29h121l21 33 59-37c8-5 12-9 12-14 0-7-5-11-14-14l-10-3V316l-59-9v30H124v-85h107l36 42 57-48v-21H124v-98h99l39 48 60-50v-25H124V15L64 3v569c-14-20-31-41-50-64L0 519m124-68v-88h141v88H124m0 98v-72h141v72H124M320 34c21 67 33 148 38 244l69-10c9-1 14-5 14-10s-4-9-11-12l-14-6c-25-95-53-165-82-212l-14 6m67 290-4-12c-2-7-5-11-10-11s-9 5-13 15l-20 56 89 2c35 59 71 126 108 203l58-22c13-5 19-10 19-15 0-7-5-11-14-13l-20-4-125-149 81 3c-4 10-11 22-22 37l10 12c15-9 29-19 43-31 42 70 76 159 102 266l59-16c15-5 23-9 23-12 0-5-6-11-18-16l-10-3-53-102 19-13h52c16 52 28 99 37 141l56-12c15-3 22-9 22-17 0-5-4-9-13-13l-18-7-65-92h59l38 47 60-52v-21l-123 1V362h23l35 42 56-48-1-20H794V225h18l37 43 58-48v-20H794V80h31l44 47 62-53V53H681V8l-59-8v435l-40-55c14-18 21-34 21-48 0-12-4-22-12-31-4-4-9-6-16-6-13 0-20 6-23 19-5 24-8 39-9 45l-40-9V14l-56-9v332l-60-13M681 80h59v120l-59-1V80m0 145h59v111h-59V225m0 138h59v110h-59V363M468 659l62-23c10-3 15-8 15-15s-4-11-13-12l-22-4-71-80c17-19 25-36 25-52 0-9-3-17-8-23-6-7-13-11-22-11-6 0-11 2-14 5s-9 19-17 48c-5 18-17 39-36 63l7 10c13-4 29-13 48-26l46 120m-71-10 2 240 71-39h335l24 37 70-43c7-5 11-10 11-15s-4-8-11-11l-22-9V666l-59-9v31H455v-29l-58-10m58 175V714h83v110h-83m139 0V714h76v110h-76m130-1V714h94v109h-94M529 279c46-41 69-85 69-132 0-31-10-47-29-47-8 0-14 3-19 8-4 4-6 10-7 17-1 1-2 23-4 65-1 21-9 48-24 81l14 8Z"/></symbol><symbol id="饡_G" viewBox="0 0 1000 1000" data-size="21"><path transform="matrix(1 0 0 -1 14 975)" d="m441 503 55-35h301l23 29 51-39c4-3 6-5 6-8 0-4-8-10-23-19V251l3-80c0-8-5-16-17-24-11-5-22-9-33-11v29H488v-6c1-8-4-15-15-21-12-8-24-12-35-12l3 94v283m47-315h319v73H488v-73m0 96h319v70H488v-70m0 94h319v66H488v-66M313 23c77 32 162 75 253 130l51-42c4-9 1-14-8-15-18 1-48-7-91-24-43-15-110-37-202-66l-3 17m363 100 4 15c68-13 123-25 164-34 41-11 69-23 86-38 15-13 21-27 19-41-2-11-8-19-19-23-12-2-26 4-41 18-17 13-39 28-69 43s-78 35-144 60M465 888c10-4 10-9 0-16-5 0-12-4-22-14l-15-39h58v133l59-19c12-6 13-13 2-20l-18-12v-82h28l25 30 37-34c6-7 5-14-2-19h-88V694h51l25 28 38-34c2-3 3-7 3-11 0-5-3-7-11-8h-59v-88l78 37 12-12c-61-39-96-72-107-99l-49 39 23 19v104h-60c-3-44-12-82-28-115-16-34-46-68-90-102l-11 12c34 39 56 73 66 103 11 29 17 63 20 102h-45c-11 0-22-2-33-6l-14 31h148v102h-68c-10-22-25-50-45-84l-14 4c24 79 41 144 51 195l55-23m262 9c9-6 9-11-2-15-6-2-13-11-20-26l-14-37h63v133l60-21c8-6 8-13-1-20l-16-10v-82h53l27 39 45-43c6-7 5-14-2-19H797V692h98l27 34 45-43c2-2 3-5 4-8 0-5-4-7-12-8H846v-76c-1-16 0-28 2-33 2-7 11-10 25-10h20c13 2 22 11 27 27 2 15 4 39 6 72h17c0-31 2-52 6-64s12-20 24-25c-7-13-14-23-22-32-8-7-25-12-49-13h-37c-13 0-27 2-41 6-14 9-21 25-21 46v102h-55c-3-41-14-76-33-105-20-30-55-54-104-73l-7 14c38 25 64 51 78 76 13 24 21 53 23 88h-25l-12-6-16 31h102v104h-68c-8-22-19-48-34-78l-17 4c19 77 31 143 37 197l55-22M289 651l51-37c12-4 13-10 4-19l-20-16V384l4-74c0-8-6-16-17-24-13-8-24-12-34-14v47H146V119l139 75c-16 20-35 41-56 63l9 14c37-23 67-43 90-63 22-18 35-34 39-49 5-14 5-27 0-38-6-10-14-16-25-17-12-1-20 4-24 15-2 11-5 19-7 25-2 5-7 16-14 33-73-52-117-85-133-99-14-14-29-32-45-55L61 78c23 14 37 26 41 35v534c-34-41-64-74-90-97L0 560c44 61 81 125 113 189 32 63 61 126 88 191l63-31c7-5 9-10 4-15-19-6-32-15-39-26 35-18 61-34 80-49 17-13 30-27 39-41 7-13 9-26 4-39-4-11-12-17-24-17-10-1-19 7-25 25-7 16-16 33-28 53-10 17-29 35-56 53-46-86-82-150-110-190l41-41h116l23 29m-143-56V487h131v108H146m0-133V345h131v117H146m30 297 10 10c34-23 57-41 68-55 10-14 14-27 12-41s-8-22-18-24c-8-3-16-3-21 0-6 4-10 12-12 24s-6 25-12 41c-5 14-14 29-27 45Z"/></symbol><symbol id="饡_H" viewBox="0 0 1000 1000" data-size="21"><path transform="matrix(1 0 0 -1 29 960)" d="M169 921c32-7 60-14 83-24 5-1 8-5 8-10s-6-9-18-12c-13-3-25-5-36-5 21-11 39-22 56-34 21-13 37-24 48-34 11-9 20-16 26-23 4-6 8-11 10-16 2-6 4-11 4-16-1-19-8-29-22-29-4 0-8 1-12 4-3 2-12 14-25 34-13 19-28 37-44 53-13 13-29 27-48 42l-16-46c-11-23-22-46-35-68-8-13-16-25-23-35 25-4 54-6 87-6h7l34 35c19-13 37-27 54-40 4-2 6-5 6-8 0-9-4-14-12-14h-89c-46-1-78-4-95-7l-8 19-1-2c-12-19-25-35-40-51l-8-9 47-32h155l34 32c33-23 50-40 50-49 0-6-10-14-30-24V352c0-15 1-25 1-30 1-5 1-10 1-15 0-14-11-23-33-27-10 0-15 4-15 10v20H98V94c9 2 19 5 27 8 23 5 48 14 75 26 23 8 48 20 76 34-2 5-4 9-5 12-11 21-26 45-44 71l13 16c18-18 35-36 49-54 14-17 25-32 33-44s14-21 18-29c3-8 5-16 7-23 2-6 3-12 3-19-1-23-10-34-26-34-2 0-5 1-8 5-2 3-8 17-16 43-4 13-9 24-14 35-22-18-42-32-58-41-22-15-42-27-62-37-18-11-37-20-58-27-7-24-13-36-17-36-5 0-21 27-48 82 5 1 8 1 12 2v477c0 18-2 34-4 48-11-10-21-19-32-28L0 603c20 18 38 37 53 56 14 20 28 42 42 66s26 48 37 72c10 21 17 42 23 62 6 18 11 38 14 62M98 560v-98h172v98H98m0-125v-98h172v98H98m298 462c42-9 63-18 63-27s-9-15-26-16c-2-11-5-22-8-33h46v22c0 34-2 60-6 78 30-6 54-12 73-18 7-2 11-6 11-10s-2-7-7-9c-7-4-15-7-24-10v-53h7l32 32c17-13 33-26 48-38 4-2 6-5 6-7 0-9-3-14-10-14h-83v-78h29l31 31c18-13 34-25 49-37 4-3 6-5 6-8 0-9-4-14-11-14h-75v-84c10 3 21 7 31 12 14 6 31 14 50 24l3-18c-11-13-21-23-30-30-10-9-18-17-27-23-8-6-17-12-25-16-6-20-11-31-15-31s-18 23-40 69c4 0 7 1 10 2v95h-35c-2-16-4-30-6-42-3-17-8-33-15-46-6-15-12-29-20-40-8-12-18-23-29-33s-26-20-43-28l-14 19c14 10 25 20 33 31 8 10 15 20 21 30 5 11 9 21 13 32 4 12 7 25 10 40 1 11 3 23 4 36-25-2-43-3-54-5l-19 46c28-8 66-12 114-12h7v78h-58c-1-5-3-9-5-13-6-14-12-26-18-36l-25 17c7 17 12 34 16 50s8 31 11 46c2 15 3 28 4 39m281 0c42-9 63-18 63-27s-9-15-26-16c-2-11-5-22-9-33h51v22c0 34-2 60-6 78 30-6 54-12 73-18 7-2 11-6 11-10s-2-7-7-9c-7-4-15-7-24-10v-53h15l35 35c18-13 36-27 53-40 4-2 6-5 6-8 0-9-4-14-12-14h-97v-78h37l34 35c19-14 37-27 54-40 4-3 6-6 6-9 0-9-4-14-12-14h-96v-81c0-5 1-10 4-14 3-2 10-3 19-3 5 0 10 0 16 1 7 0 12 2 14 5 4 4 11 24 20 59l19-7c-4-9-6-20-6-34 0-11 5-18 14-20 10-5 15-12 15-21 0-4-1-8-3-10-6-3-13-5-19-6-7-2-15-4-26-4-16-2-30-3-42-3-20 0-34 0-42 2-6 2-12 6-19 12-5 6-7 14-7 23v101h-29c-2-13-5-25-8-36-3-14-9-27-17-39-7-13-15-24-24-34s-20-20-34-28c-14-9-31-17-51-25l-15 19c18 9 32 18 42 26 11 9 20 18 27 27 6 8 12 17 16 27 5 10 9 21 12 34 2 8 4 17 5 28-22-2-38-3-49-5l-19 46c28-8 66-12 114-12h3v78h-63l-5-13c-8-14-14-26-21-36l-24 17c7 17 13 34 17 50 5 16 9 31 12 46 2 15 4 28 5 39M447 538l62-29h272l34 32c34-23 50-40 50-49 0-6-10-14-29-24V223c0-15 0-25 1-30s1-10 1-15c0-14-11-23-33-27-11 0-16 4-16 10v16H587c17-10 31-19 43-28 2-2 4-5 4-9 0-7-6-10-18-10-8 0-18 1-30 2-21-21-42-38-65-52-21-16-42-30-64-41-26-14-52-24-77-32l-13 21c39 19 70 38 95 56 27 18 47 34 62 51 12 13 22 27 31 42h-59v-8c0-7-4-12-12-16-9-4-18-6-24-6-9 0-13 5-13 14 0 3 1 7 1 14 1 15 1 28 1 41v256c0 32 0 54-2 66m49-334h293v82H496v-82m0 109h293v75H496v-75m0 102h293v66H496v-66m207-268c31-7 61-17 92-28 31-13 54-24 69-32 16-9 26-17 32-24 6-6 11-13 15-19 2-5 3-10 3-16 0-14-6-21-19-21-4 0-8 2-13 6-5 3-12 8-19 14-13 11-24 21-35 29-14 8-30 17-50 27-21 13-49 28-87 45l12 19Z"/></symbol><symbol id="饡_T" viewBox="0 0 1000 1000" data-size="21"><path transform="matrix(1 0 0 -1 33 965)" d="M670 153c149-39 223-79 223-118 0-16-7-25-21-25-6 0-25 13-58 39-25 20-75 48-149 86l5 18m-10 638c-10-18-21-34-31-48l-17 8c21 49 34 101 40 155l62-24c10-3 15-7 15-11 0-7-5-11-15-13l-24-4c-5-13-10-25-15-35h59v22c0 33-1 59-4 79l63-11c18-4 26-10 26-18 0-9-4-14-14-16l-25-7v-49h52l28 29 40-34c5-4 7-8 7-13 0-7-4-10-13-10H780v-74h52l36 32 48-39c4-3 6-7 6-12 0-7-4-10-11-10H811v-84c0-11 8-16 24-16h13c16 0 27 5 33 15 4 8 9 23 13 46h19c-2-13-2-23-2-29 0-10 1-18 5-23 0-1 4-5 12-13 4-3 6-7 6-11 0-6-2-10-6-13-13-9-30-13-53-13h-59c-33 0-50 14-50 41v100h-38c-10-45-24-79-42-101-21-23-49-42-87-57l-7 15c29 21 49 41 61 60 14 22 24 49 31 83-12 0-24-1-36-4l-19 44c29-7 58-11 89-11h16v74h-74M259 303H87V102c86 28 146 50 178 65-10 21-29 50-55 87l14 13c76-68 114-124 114-167 0-13-4-23-12-31-4-4-9-6-15-6-12 0-20 11-24 33-3 17-8 34-14 50-45-30-104-63-177-99-2-7-4-12-4-15-3-13-7-19-12-19s-11 5-16 16L33 88l7 2v447c-2 40-4 65-4 75l57-33h159l30 35 35-25c14-9 21-17 21-24 0-5-11-14-32-25V379l3-26 1-25c2-14 3-22 3-25 0-13-11-20-34-20-13 0-20 4-20 12v8m0 29v97H87v-97h172m0 219H87v-93h172v93m303-374 42-27c11-7 16-12 16-17 0-8-6-13-19-13h-3l-27 3c-5-4-17-16-38-34-40-36-99-65-176-89l-7 19c86 37 150 90 191 158h-65v-10c0-13-9-19-26-19s-25 7-25 22c0 1 0 9 2 23 2 34 3 51 3 52v286l58-30h301l31 38 35-25c17-11 25-19 25-25s-8-14-23-22l-17-9V245l3-27 1-24c2-14 3-23 3-25 0-13-11-20-32-20-15 0-22 4-22 14v14H562m-86 28h317v73H476v-73m0 101h317v71H476v-71m0 98h317v70H476v-70m-83 388c-8-15-19-32-33-49l-15 9c19 46 32 97 39 151l61-23c10-3 15-7 15-12 0-6-5-10-15-12l-24-4c-4-12-9-23-13-31h68v22c0 32-1 58-4 79l57-12c21-4 32-11 32-18 0-6-3-11-10-14l-29-12v-45h28l30 26 38-32c4-3 6-7 6-12 0-7-2-11-7-11h-95v-75h13l39 35 44-39c5-4 7-8 7-13 0-8-2-12-7-12h-65v-86c12 4 20 7 26 9 18 7 34 14 50 21l8-19c-14-11-31-23-51-35-13-8-24-15-33-21 0-18-4-27-12-27-5 0-10 5-15 15l-22 48 6 2v93h-49c-7-52-16-87-26-105-15-27-41-53-80-76l-10 18c25 18 44 42 55 70 8 17 13 48 16 93h-19c-2 0-15-2-39-4l-19 43c29-7 58-10 88-10h49v75h-83m-287-91c27-3 50-5 69-5h33l39 39 56-42c5-4 8-8 8-12 0-9-5-13-14-13H175c-22 0-46-2-73-5l-9 21c-23-28-50-56-80-85L0 611c46 59 84 118 113 179 18 35 33 81 48 139l64-19c15-4 23-10 23-17 0-8-7-13-20-16l-25-4v-2c33-16 57-28 70-37 41-24 61-50 61-77 0-19-8-28-23-28-11 0-21 8-30 25-16 29-31 50-44 63-10 10-25 21-44 34-2-4-5-10-8-18-23-50-49-94-79-132Z"/></symbol><symbol id="饡_K" viewBox="0 0 1000 1000" data-size="21"><path transform="matrix(1 0 0 -1 58 949)" d="m804 487 56-42v-16l-24-14V178l-7-11-46-11-8 6v24H421v-24l-8-9-42-7-11 7v339l68-29h340l22 24h14M657 143l8 14c143-35 215-78 215-129 0-18-6-27-17-27-9 0-20 6-33 19-34 34-61 58-81 72-19 14-50 31-92 51m-180 37 67-49-5-17h-37c-37-31-69-53-97-68-27-15-67-30-120-46l-8 11c47 22 84 45 113 70s58 58 87 99m-56 195h354v66H421v-66m0-81h354v59H421v-59m0-86h354v64H421v-64M320 660v22h117v85h-63c-5-10-19-30-41-61l-17 8c17 51 29 106 34 167l74-22-1-13-23-10c-5-19-11-35-17-47h54v107l87-15v-17l-26-13v-62h19l26 32h14l36-37v-17h-95v-85h41l22 32h12l32-32h91v85h-58c-15-25-30-43-45-56l-13 9c18 37 31 94 38 171l71-25v-15l-24-10c-3-14-7-31-14-52h45v109l88-17v-15l-27-15v-62h27l28 32h13l44-41v-13H757v-85h42l30 36h14l42-43v-15h-97v-76c0-7 2-12 6-14 4-1 11-2 21-2 7 0 15 11 24 34l16 39 14-3-4-67 20-16v-14c-11-13-30-20-56-20h-36c-15 0-27 1-36 3-8 2-14 6-18 12-3 6-5 12-6 17-1 6-1 15-1 28v79h-26c-7-49-21-85-41-108s-56-44-108-65l-9 11c35 21 60 43 75 66 15 24 25 56 28 96H535v-76l83 25 6-13-107-68-4-27-15-6-50 64 30 9v92h-27c-9-42-22-75-40-100s-47-49-88-73l-7 11c45 45 70 99 74 162h-70M142 893l88-30-2-15-31-9-11-25c51-20 85-37 103-50s27-31 27-53-7-33-20-33c-6 0-16 10-30 29-23 33-52 61-87 86-21-50-43-92-66-126-23-33-56-72-100-116L0 561c41 61 71 115 92 164s37 105 50 168m-31-260v23h106l31 33h9l38-39v-17H111m7-79h118l26 37h15l50-42v-15l-24-21V324l-6-11-43-15-9 7v25H113v-96h116l33 40h15l42-48v-15H113v-88h118l39 39h15l39-45v-16H113V42l-8-13-44-14-8 4v564l65-29m-5-102h132v79H113v-79m0-100h132v78H113v-78Z"/></symbol><symbol id="饢_G" viewBox="0 0 1000 1000" data-size="21"><path transform="matrix(1 0 0 -1 23 975)" d="M461 710h137v49H461v-49m184 0h132v49H645v-49m-92-451h129v56H553v-56m45 691 72-29c5-3 4-7-4-14l-21-10v-52h168l31 45 56-53c2-3 4-5 4-8 0-4-4-7-13-8H645v-39h123l27 22c31-20 47-32 47-37 0-3-7-10-22-22v-53c1-7-2-13-9-17-15-7-26-10-34-10v22H645v-41h226l20 17 45-43c7-4 7-8 2-14-21-3-36-7-45-11-8-4-19-12-32-24l-13 10 21 41H391c-4-25-10-44-18-55-8-9-16-15-25-17s-16-1-22 4c-6 4-8 9-8 15s4 13 14 22c8 8 16 17 23 29 8 11 14 30 18 57h18v-31h207v41H461c1-6-5-12-16-18-10-5-19-7-27-8v143l45-22h135v39H412c-14 1-29-2-45-9l-17 33h248v105M404 603l34-22h105l20 22 35-24c4-3 7-6 7-10 0-2-5-7-17-15v-30l2-31c0-4-4-9-12-14-6-4-15-7-27-7v11H441v-5c0-6-5-12-15-18-9-5-17-7-26-6l4 51v98m37-98h110v55H441v-55m211 98 34-20h99l18 21c32-22 48-35 49-39 0-2-7-7-20-13v-39l2-26c0-4-4-9-12-13-6-5-15-8-27-8v15H689v-3c0-2-5-5-15-8-9-5-17-6-26-4l4 47v90m37-100h106v59H689v-59m53-55c5-4 4-8-4-11l-11-4v-10h99l29 37 47-45c2-3 4-4 4-4 4-8 2-12-4-12H727v-60h74l29 33 49-43c1-1 3-3 4-8 2-4-1-6-8-6H727v-56h128l30 33 47-41c2-2 3-5 4-8-1-6-4-8-10-8H635c25-41 53-72 86-93 31 26 58 53 82 80 30-22 47-34 49-35 2-3 2-6 0-8-3-2-8-3-16-4-8 0-18-3-29-8-12-5-34-18-65-39 16-12 35-23 59-30 23-8 47-14 70-18 24-4 51-6 82-6V55c-15 0-31-2-47-8-15-4-28-14-37-29-32 10-66 25-101 45s-66 44-92 73c-28 29-48 62-61 99-19-15-41-37-64-64V70l111 45 10-13c-58-34-95-55-109-65-15-9-28-21-40-37l-44 45 27 18v79c-55-41-122-77-201-109l-8 14c64 37 116 71 156 100 40 30 75 59 104 88H408c-13 0-32-4-56-9l-18 33h176v56h-69c-13 0-31-3-56-9l-18 33h143v60h-92c-14 0-29-3-45-9l-18 33h155v53l58-18c5-5 4-8-4-10l-11-6v-19h129v39l60-14M553 339h129v60H553v-60M270 646l39-32c11-4 13-10 4-19l-14-12V384l4-61c0-8-6-15-18-23s-22-13-31-14v35H127V119l133 64c-20 30-39 54-59 72l8 12c33-20 61-39 82-59 22-20 36-37 43-51 6-14 7-27 4-38-5-10-12-15-22-15-8-1-15 2-21 9-4 7-8 15-12 23-2 8-6 17-13 29-71-42-115-69-131-81-15-11-30-27-45-49L43 86c21 12 33 22 37 31v511c-23-33-45-59-66-80L0 558c29 43 61 95 96 158 35 62 69 135 103 221l59-30c10-4 12-10 6-15-16-7-28-16-37-28 31-18 56-34 76-49 19-13 32-28 39-43 6-14 7-27 2-39-5-10-13-15-26-15-11 0-19 9-23 27-4 16-14 35-29 55-17 19-34 36-51 51-20-37-38-69-55-98-15-29-37-63-64-100l35-33h119l20 26m-143-53V483h127v110H127m0-135V347h127v111H127m41 295 10 10c24-14 43-30 54-47 11-18 15-32 12-43-4-11-10-17-17-20-8-3-15-3-20 0-5 4-8 11-10 22 0 12-3 23-8 35-3 12-10 27-21 43Z"/></symbol><symbol id="饢_H" viewBox="0 0 1000 1000" data-size="21"><path transform="matrix(1 0 0 -1 31 958)" d="M340 853c28-8 67-12 114-12h140c0 34-2 59-6 76 30-6 54-12 73-18 7-2 11-6 11-10s-2-7-7-9c-7-4-15-7-24-10v-29h168l39 42c20-16 40-31 59-46 5-3 7-7 7-10 0-9-4-14-14-14H641v-42h124l31 28c30-22 46-37 46-45 0-6-9-13-28-23v-37c6-4 10-7 14-10 3-2 4-3 4-5 0-9-3-14-8-14H641v-43h211l27 27c21-15 39-31 56-47 2-2 3-4 3-6 0-5-6-8-18-11l-28-6c-6-6-12-12-20-17l-23-18-15 12c5 7 9 14 12 20 3 7 5 13 7 19H392l-3-28c-2-15-6-28-11-39-3-9-8-16-13-22-4-6-9-10-13-12-5-2-9-3-12-3-16 0-24 6-24 17 0 4 3 9 9 16 15 16 25 30 31 41s11 23 15 38c4 13 6 30 7 52l13-2c1-11 2-22 2-31h201v43H471v-5c0-6-4-11-11-14-9-4-17-6-22-6-8 0-12 4-12 12 0 2 0 7 1 13 0 14 1 27 1 38v32c0 30-1 50-2 62l56-26h112v42H454c-46-1-78-3-95-6l-19 46m131-161h123v51H471v-51m170 0h130v51H641v-51M414 578l57-26h67l31 28c31-21 46-36 46-45 0-6-9-13-27-22v-17c8-7 16-13 22-18 4-2 5-4 5-6 0-9-3-14-9-14H459v-13c0-6-4-11-11-14-9-4-16-6-22-6-8 0-12 4-12 13 0 1 0 6 1 12 1 15 1 27 1 38v29c0 29-1 49-2 61m45-93h86v39h-86v-39m174 93 56-26h68l31 28c31-21 46-36 46-45 0-6-9-13-27-22v-17c8-7 16-13 22-18 3-2 5-4 5-6 0-9-3-14-9-14H678v-5c0-6-4-11-11-15-9-3-17-5-22-5-8 0-12 4-12 12 0 2 0 6 1 13 0 14 1 27 1 38v21c0 29-1 49-2 61m45-93h86v39h-86v-39m-330-78c28-8 66-11 114-11h39c-1 15-3 28-5 37 27-6 50-11 67-16 7-2 10-5 10-10 0-3-2-6-7-8l-6-3h109c-1 17-2 31-5 41 27-6 50-11 67-16 7-2 10-5 10-10 0-3-2-6-7-8-4-3-10-6-16-7h55l35 35c18-14 36-27 53-40 4-3 6-6 6-9 0-9-4-14-12-14H713v-43h41l33 33 51-39c4-2 6-4 6-7 0-10-4-14-12-14H713v-43h107l34 35c19-14 37-27 54-40 4-3 6-6 6-9 0-9-4-13-12-13H599c-17-15-35-27-52-38-15-9-31-17-47-25V83c3 0 5 0 8 1 19 3 39 7 61 13 22 4 47 11 76 19l3-19c-20-13-38-22-53-29-17-7-33-14-49-20-14-7-29-12-45-16-7-21-12-32-16-32s-19 25-44 75c5 1 9 1 12 1v70c-17-7-34-12-50-16-26-9-54-16-86-22l-8 20c30 8 55 16 75 23s38 15 54 25c23 10 41 20 54 31 10 7 19 13 27 21h-92c-46-2-78-4-95-7l-19 46c28-8 66-12 114-12h75v43h-17c-46-1-77-4-94-7l-20 46c29-8 67-12 114-12h17v43h-40c-46-1-78-3-95-7l-19 46m197-152h125v43H545v-43m125 70v43H545v-43h125m180-169c-12-6-25-12-40-18-13-6-27-10-40-14-6-2-12-4-17-5 12-7 26-14 42-20 21-10 43-18 64-23 19-5 39-9 59-12V53c-36 0-58-12-65-34-27 8-49 17-67 28-23 11-43 24-60 39-21 16-37 32-50 50-15 19-28 40-39 63l23 11c13-20 26-36 38-49 11-10 22-19 33-27 10 5 18 10 25 14 10 8 20 15 28 23 9 8 16 16 23 23 7 8 12 16 16 24 49-30 73-48 73-56 0-6-5-10-17-10-7 0-17 2-29 4M142 917c32-7 60-14 83-23 5-2 7-6 7-11s-5-9-17-12c-7-2-13-3-18-4 18-11 35-22 50-32 23-14 40-27 52-38 13-10 22-18 28-26 5-6 8-13 11-19 2-5 4-11 4-17-1-19-8-29-22-29-4 0-8 1-12 4s-13 16-28 38c-14 22-30 41-47 59-15 15-34 32-58 50-5-19-11-37-17-52-8-21-18-42-29-62-7-12-13-23-19-32 24-5 53-7 85-7l34 35c19-13 37-27 54-40 4-2 6-5 6-9 0-9-4-13-12-13h-77c-46-2-78-4-95-7l-8 19-1-1c-11-17-23-33-35-47l-10-12 55-26h140l34 32c33-24 50-40 50-49 0-7-10-15-29-24V355c0-15 0-24 1-29 0-5 1-10 1-15 0-14-11-23-33-27-11 0-16 3-16 10v35H94V101l13 4c19 6 40 15 64 27 19 8 41 20 64 34-2 4-4 8-6 11-12 22-28 47-49 74l11 14c21-19 38-39 53-59 16-18 28-33 36-47 9-12 16-22 20-31 3-8 6-16 8-24 2-6 3-13 3-21-1-20-8-29-22-29-3 0-6 1-9 5-2 4-9 19-18 45-5 15-11 28-17 41-17-18-33-32-47-41-17-15-33-27-50-38-14-10-29-19-45-26C95 16 90 4 85 4S64 31 37 86c4 1 7 1 10 2v487c0 13-1 29-2 47-9-10-18-18-26-25L0 618c17 17 32 35 44 54l36 60c12 24 22 46 30 68 9 21 15 40 20 59 4 17 8 37 12 58M94 575v-94h160v94H94m0-121v-98h160v98H94Z"/></symbol><symbol id="饣_G" viewBox="0 0 1000 1000" data-size="21"><path transform="matrix(1 0 0 -1 260 938)" d="M313 843c8-6 7-12-4-18-23-6-39-20-51-43-11-24-27-56-49-97h176l31 35 59-41c9-6 7-12-6-18-20-8-37-21-53-41l-62-82-16 6 51 115H197C141 547 79 455 14 386L0 396c56 82 104 165 143 250 38 82 68 159 89 230l81-33M213 563l76-29c6-2 8-4 6-8-2-2-5-5-8-7l-25-18V112l185 135 14-14C354 142 291 86 273 64c-15-21-29-43-41-64l-60 47c27 23 41 40 41 51v465Z"/></symbol><symbol id="饣_H" viewBox="0 0 1000 1000" data-size="21"><path transform="matrix(1 0 0 -1 239 942)" d="M169 884c34-12 63-24 88-35 4-4 6-8 6-12 0-7-6-12-18-14-15-4-26-6-32-6-10-30-21-58-34-85h241l33 35c24-17 46-36 66-56 2-2 3-4 3-7 0-6-7-10-21-13-10-2-21-4-32-6-11-18-25-37-42-56-15-22-32-42-50-59l-17 15c16 22 29 43 39 62 10 21 18 40 23 59H167c-3-7-5-13-6-18-20-38-41-73-61-104-23-31-49-63-80-97L0 501c27 35 50 69 69 101 15 28 30 58 45 92 13 35 25 67 36 97 9 28 15 59 19 93m18-286c38-4 70-11 94-22 8-2 12-7 12-14s-4-11-12-12c-13-7-27-11-42-12V106c21 13 42 27 63 40 47 30 84 57 111 81l9-18c-24-25-52-51-83-78-31-28-64-55-99-82-3-33-7-49-12-49-6 0-26 23-60 70 8 5 16 9 24 13v437c0 35-2 61-5 78Z"/></symbol><symbol id="饤_G" viewBox="0 0 1000 1000" data-size="21"><path transform="matrix(1 0 0 -1 22 956)" d="M363 815h487l41 51 60-60c2-3 3-6 4-8 2-8-1-12-8-12H705V98c2-32-4-55-19-71-16-13-38-22-67-27-4 21-14 36-31 45-16 8-50 20-102 37l4 18c69-16 115-24 137-24 21 0 31 16 29 48v662H445c-13 0-33-2-58-8l-24 37m-109 63c4-2 6-4 6-6 2-6-1-10-8-12-14-2-27-14-37-37s-24-56-43-99h150l35 41 59-47c6-5 9-8 10-10 3-6 0-10-10-12-21-8-36-15-43-23-6-7-31-47-76-121l-18 8 53 138H162C112 597 62 516 12 454L0 464c47 83 86 164 117 242s53 147 67 205l70-33M154 591l75-33c3-3 5-6 7-10 0-2-2-4-4-6l-31-18V136l166 129 14-16C253 134 181 59 166 21l-59 53c32 22 47 38 47 50v467Z"/></symbol><symbol id="饥_G" viewBox="0 0 1000 1000" data-size="21"><path transform="matrix(1 0 0 -1 28 957)" d="M514 829h164l35 49 60-51c4-4 6-8 6-12 0-3-11-13-35-29V149c0-28 2-43 6-45 4-6 16-8 35-8h53c17 2 29 8 33 18 4 11 7 30 10 55 1 25 2 68 4 129h19c0-63 2-107 6-131 4-22 15-37 33-45-11-26-23-43-35-52-12-8-29-15-53-19h-82c-22 0-41 6-56 15-16 9-24 29-24 62v676H506V591c2-128-2-222-12-283s-31-118-64-170C396 88 344 42 273 0l-9 12c60 46 103 93 131 141 27 48 44 100 52 155 7 52 9 169 8 349v215l59-43m-272 47c15-5 15-12 0-22-17-3-32-16-43-39-10-22-19-46-29-74h148l30 39 60-47c5-4 8-7 8-11s-4-7-12-10c-16-5-32-16-49-33l-70-114-15 8 58 145H160C111 599 62 506 12 438l-12 6c38 80 74 165 107 256 33 89 54 160 63 213l72-37m-88-275 75-38c5-2 7-5 5-9-2-2-4-4-7-6l-24-14V167l162 152 14-13C255 172 188 88 176 55l-55 49c22 16 33 31 33 43v454Z"/></symbol><symbol id="饦_G" viewBox="0 0 1000 1000" data-size="21"><path transform="matrix(1 0 0 -1 18 952)" d="M779 815c-36-9-82-23-138-41V466l213 25 35 55 66-45c7-5 10-10 8-16 0-2-3-4-8-4l-314-41V92c0-18 3-29 9-35 8-6 24-9 47-10h160c19 2 30 8 34 19 3 12 5 26 7 42s4 54 8 116h20c2-57 4-95 6-114 3-17 14-29 33-38-8-30-26-51-55-64l-41-8H682c-22 0-39 2-51 6-12 2-22 10-29 21-8 12-12 32-12 59v347l-203-32c-12-2-20-7-24-13l-29 31 256 39v307c-49-11-113-19-194-26l-3 18c220 53 361 97 423 135l59-59c4-6 2-10-6-14-23 7-53 6-90-4m-525 55c4-2 6-4 6-6 2-6-1-10-8-11-14-2-27-15-37-38s-24-56-43-99h150l35 41 59-47c6-5 9-8 10-10 3-6 0-10-10-12-21-7-36-15-43-23-6-6-31-47-76-121l-18 8 53 138H162C112 590 62 508 12 446L0 456c47 83 86 164 117 242s53 147 67 205l70-33m-88-287 74-33c3-3 6-6 8-10-1-2-2-4-4-6l-31-17V128l166 129 14-16C264 127 193 51 178 14l-59 52c31 22 47 38 47 50v467Z"/></symbol><symbol id="饧_G" viewBox="0 0 1000 1000" data-size="21"><path transform="matrix(1 0 0 -1 44 949)" d="M371 821h358l39 35 52-50c11-15 7-22-9-22-20 1-45-12-77-39-101-83-194-157-279-224h354l31 42 64-44c14-10 11-20-8-30l-21-11c-12-199-21-316-27-350s-17-61-34-81c-16-20-44-36-85-47-8 22-17 37-28 45-12 8-45 20-99 37l5 17c63-13 105-20 127-21 21 0 36 5 45 14 9 8 17 24 22 46 4 21 13 140 27 357H727c-18-141-57-247-118-318-59-71-138-126-236-167l-8 15c100 58 173 119 219 183 45 64 76 160 94 287H568c-25-89-60-165-105-226-45-62-109-120-193-175l-12 10c74 63 131 124 170 182 37 59 67 128 90 209h-71l-31-29-59 51c27 7 49 17 67 27l291 250H449c-10 0-27-3-51-8l-27 35m-105 41c7-6 7-11 0-17-24-5-39-18-47-39-8-22-22-53-41-94h125l29 39 64-45c10-6 8-12-5-18-21-7-37-21-51-41l-61-87-15 7 50 120H168C118 569 67 476 14 407L0 417c42 80 80 162 113 246 32 82 57 160 76 234l77-35M156 573l76-33c10-6 10-12 0-18l-29-15V188l119 147 18-12c-72-104-115-168-129-191-12-24-24-51-37-81l-61 35c23 20 37 44 43 71v416Z"/></symbol><symbol id="饨_G" viewBox="0 0 1000 1000" data-size="21"><path transform="matrix(1 0 0 -1 27 944)" d="M406 710h201v178l82-34c2-1 4-4 4-7s-4-6-9-10l-28-12V710h151l41 51 68-61c2 0 3-2 4-6 0-7-4-11-12-11H656V321h131v282l72-32c5-2 8-4 8-8 4-5-6-12-29-19V351l4-65c-1-10-8-17-22-23-12-7-23-10-33-10v41H656V89c0-20 4-32 10-36 7-5 17-7 31-8h135c22 4 35 12 37 23 3 9 6 22 8 38 1 14 6 56 14 127h17c2-47 4-83 6-107 1-23 12-41 31-54-11-26-24-45-37-54-14-8-37-14-68-18H695c-25 0-43 2-52 6-10 2-19 10-26 23-6 13-10 31-10 54v211H486l-25-35-63 47c18 11 28 23 30 35v273l74-29c6-3 8-6 6-10 0-2-11-9-31-19V321h130v362H492c-13 0-36-3-66-8l-20 35M264 833c7-6 7-12 0-18-22-3-37-15-47-35-10-18-24-48-41-90h140l26 32 58-47c10-6 8-12-5-18-21-8-39-18-55-31l-65-78-15 8 58 109H164C117 562 66 476 14 407L0 417c43 80 80 158 111 232 30 74 55 148 77 221l76-37M158 560l76-34c10-5 10-11 0-17l-29-16V126l149 123 13-14c-84-84-133-132-144-146-11-11-25-32-43-64l-61 45c20 13 33 30 39 50v440Z"/></symbol><symbol id="饩_G" viewBox="0 0 1000 1000" data-size="21"><path transform="matrix(1 0 0 -1 38 957)" d="m697 613 33 47 63-61c6-8 3-12-10-13H490c-11 0-29-3-52-8l-18 35h277m-35-133 35 43 63-47c4-2 5-5 4-8 0-6-12-15-35-27V340c-1-20 2-49 9-88 6-38 16-71 30-98 13-26 29-47 48-62 18-15 29-16 34-3 4 12 7 27 9 45 2 16 6 53 12 112h22c-3-99-2-158 3-179 6-21 12-35 20-41 7-5 9-10 8-16-2-3-6-7-12-9-6-1-21 1-43 6-21 4-45 15-70 33-24 17-46 43-67 77s-35 76-43 125c-6 47-9 81-9 103v108H391c-19 0-36-3-51-8l-22 35h344M533 828c-8-18-23-44-43-78h281l40 47 56-55c9-8 7-14-4-18H475c-20-37-40-73-61-107-21-33-49-68-82-106l-10 10c24 43 45 82 63 117 17 34 37 76 60 127 24 50 43 100 59 149 55-24 82-37 82-39v-8c0-3-7-6-20-10-13-2-24-12-33-29m-283 45c8-6 8-12 0-18-24-2-40-15-49-39-8-22-21-56-39-101h125l35 44 59-48c9-6 8-13-4-20-22-6-41-17-57-35l-64-84-16 8 55 109H150C109 576 64 484 14 414L0 424c37 82 70 163 98 242 26 78 50 160 72 246l80-39m-96-299 76-33c10-6 10-12 0-18l-29-16V123l186 152 13-14C291 155 230 94 219 81s-25-35-43-67l-65 49c21 17 35 35 43 54v457Z"/></symbol><symbol id="饪_G" viewBox="0 0 1000 1000" data-size="21"><path transform="matrix(1 0 0 -1 31 941)" d="M818 769c-52-6-110-15-172-26V425h184l39 49 63-57c2-2 4-5 6-8 0-8-5-12-14-12H646V55h129l39 53 67-59c2-2 3-5 4-10 0-8-4-12-12-12H445c-14 1-37-2-68-7l-22 35h243v342H404c-14 0-37-2-68-7l-14 35h276v308c-69-7-141-15-215-23l-2 18c185 33 325 69 420 107l51-51c8-10 7-16-4-19l-30 4m-562 74c8-6 8-13 0-20-20-1-35-10-43-27-8-18-22-55-41-111h141l23 37 66-49c11-8 11-14 0-18-15-6-29-13-41-23-9-8-37-52-82-131l-15 8 52 150H162C121 555 72 466 14 392l-14 9c46 86 82 166 107 241 25 74 48 154 69 240l80-39M150 526l77-33c9-6 9-12 0-17l-30-16V104l199 143 14-16C298 136 236 82 225 71c-10-9-28-33-55-71l-63 51c17 10 32 24 43 44v431Z"/></symbol><symbol id="饫_G" viewBox="0 0 1000 1000" data-size="21"><path transform="matrix(1 0 0 -1 29 957)" d="M826 819c-71-7-137-17-197-29-2-82-5-167-8-254h188l39 53 64-57c2-2 3-6 4-10 5-7 1-11-10-11H662c12-79 31-149 57-209 24-61 54-108 90-143 35-34 79-57 132-67V74c-17 1-35 0-52-2-16-1-32-10-47-27-43 39-78 80-106 122-26 43-47 91-62 145-16 52-28 117-37 197h-18c-8-81-20-149-37-203-16-55-48-108-96-159C439 97 359 48 246 0l-8 16c82 45 149 92 201 143 53 50 87 109 104 178 16 68 25 126 27 174H430c-14 0-36-3-67-8l-15 33h224c4 74 6 156 6 246-73-8-146-16-219-25l-2 17c204 35 358 71 463 110l51-53c5-6 5-10 2-14-2-2-6-2-14-2-7 2-18 3-33 4m-560 55c5-6 5-12-2-18-24-2-41-13-49-33-7-18-24-56-51-115h160l30 35 58-49c10-6 8-11-6-17-20-8-35-18-45-30-7-10-33-50-76-121l-15 8 56 149H152c-37-77-84-151-138-223L0 470c44 80 82 156 113 228 30 71 55 142 76 215l77-39M148 581l77-33c9-6 9-12 0-18l-30-15V173l184 154 14-14C285 208 225 147 211 132c-14-14-29-36-47-68l-59 46c21 14 36 31 43 51v420Z"/></symbol><symbol id="饬_G" viewBox="0 0 1000 1000" data-size="21"><path transform="matrix(1 0 0 -1 32 963)" d="M604 880c4-3 7-5 7-8 2-3 0-6-6-10-17-4-29-9-35-15-4-6-9-16-17-30-7-12-22-38-45-78h312l43 57 71-67c2-3 2-6 0-7 0-5-3-7-8-8H494c-45-86-103-168-176-246l-13 8c44 63 86 133 127 209 38 74 72 151 101 232l71-37m33-221c10-6 8-12-6-19l-27-16V503h173l34 43 56-39c6-2 9-6 10-12 0-2-12-12-35-31l-12-221c-6-79-17-131-33-157-14-27-43-50-88-68-8 22-20 40-37 52-18 11-45 23-80 37l6 17c66-20 107-30 123-28 17 2 30 12 39 30 8 18 15 52 21 103l14 249H602c-1-54-10-114-26-180-15-67-49-124-101-172C424 78 355 36 270 0l-8 16c65 35 122 76 172 124 49 47 81 101 95 164 14 60 22 118 24 174H441c-17 0-33-3-46-8l-20 33h178v185l84-29M268 890c7-6 7-12 0-18-23-3-38-14-45-33-9-20-22-51-39-92h132l30 43 58-45c10-6 8-12-6-17-19-8-39-21-58-40l-55-78-14 8 47 104H172C125 618 72 532 14 462L0 472c48 82 88 160 119 234 29 74 55 147 76 221l73-37M154 614l76-33c10-6 10-12 0-18l-29-15V159l176 149 14-14C288 192 230 135 217 122c-13-12-28-34-45-65l-57 47c20 13 33 29 39 49v461Z"/></symbol><symbol id="饭_G" viewBox="0 0 1000 1000" data-size="21"><path transform="matrix(1 0 0 -1 29 962)" d="M258 880c4-2 6-4 6-6 2-6-1-10-8-12-22-12-37-27-47-45-7-17-20-47-39-89h144l38 46 56-52c6-5 9-8 10-10 3-6 0-10-10-12-21-8-36-15-43-23-6-7-31-47-76-121l-18 7 53 139H162C112 601 62 520 12 458L0 468c47 83 86 164 117 242s53 146 67 205l74-35M154 603l75-34c3-2 5-6 7-9 0-2-2-4-4-6l-31-18V218l135 121 12-14C242 213 182 139 166 104l-59 42c32 28 47 48 47 60v397m690 255c-94-11-208-27-342-46V618h281l35 41 59-47c4-4 5-9 4-13 0-2-11-8-31-18-21-84-41-153-63-207-21-53-45-95-72-125 33-42 60-70 82-86 19-16 38-29 57-39 17-10 46-20 87-30V76c-26 2-46 1-62-4-15-4-28-11-39-21-28 24-50 44-67 60-16 15-44 48-85 101-26-34-65-71-118-110C518 63 454 29 381 0l-6 14c73 39 132 77 178 114 45 38 82 79 111 121-19 33-38 76-57 127-17 51-31 123-41 217h-64c-2-65-6-132-12-201s-25-135-56-200c-32-63-79-116-141-161l-8 10c46 46 83 101 113 165 29 65 46 165 51 303v377l57-51c142 20 252 50 332 90l51-55c1-4 2-7 2-8-1-4-4-6-10-6l-37 2M594 593c10-116 42-218 97-307 26 37 47 80 65 129 15 48 29 107 41 178H594Z"/></symbol><symbol id="饮_G" viewBox="0 0 1000 1000" data-size="21"><path transform="matrix(1 0 0 -1 28 963)" d="M637 888c4-2 7-4 8-6 1-4-1-9-8-14-19-2-33-10-45-25-20-47-42-95-67-143h286l39 45 45-43c13-12 19-19 19-23 1-4-4-7-16-8-17-4-33-16-48-35-16-18-41-52-77-102l-17 8 62 133H512c-30-65-68-129-114-194l-17 10c39 76 76 156 111 242s59 151 71 194l74-39m33-303c4 0 6-4 6-12 0-2-2-4-6-6l-24-7c21-109 46-192 75-250 27-60 60-108 99-145 39-36 80-60 123-71V78c-17 2-35 1-52-4-17-3-32-11-45-25-41 45-75 87-100 126-26 37-47 78-62 123-17 45-35 117-55 217-6-89-18-161-37-215-20-55-54-108-102-158C443 92 363 45 252 0l-6 16c85 41 152 88 201 139s84 106 104 164c18 57 32 156 43 297l76-31M268 882c5-3 7-5 7-8 2-6 0-10-7-14-18-2-34-18-47-48-14-32-28-65-43-100h156l29 37 55-45c5-4 8-8 8-12s-5-6-14-7c-16-7-30-16-43-28l-72-107-16 10 57 128H168c-44-96-96-179-156-250L0 448c53 84 96 170 129 258 33 87 57 158 70 213l69-37M156 579l74-33c5-3 7-7 6-14-2-2-4-4-7-6l-24-11V159l166 153 14-16c-95-96-149-152-162-170-13-17-28-40-45-69l-55 43c22 18 33 33 33 44v435Z"/></symbol><symbol id="饯_G" viewBox="0 0 1000 1000" data-size="21"><path transform="matrix(1 0 0 -1 50 951)" d="m799 720 64-46c4-4 6-7 6-10 0-5-6-9-19-10l-301-39c0-53 4-100 12-141l232 30 33 52 69-45c3-2 5-4 5-7 0-7-5-11-17-14l-319-41c4-36 10-68 18-98 8-27 21-61 39-101 38 35 83 95 137 181 41-30 64-46 66-49 2-2 2-5 0-7s-8-4-15-6c-8-2-16-5-24-8-8-2-23-18-47-47-23-28-55-60-95-98 13-24 33-46 58-68s50-39 74-52 39-19 45-19 10 12 14 34c3 23 10 71 20 145h17c-1-53-1-94-2-124-1-28 1-50 4-67 4-17 10-29 18-37 6-7 9-14 7-20 0-2-3-5-11-7-8-1-20 1-37 6-17 3-39 13-67 29-28 13-58 34-92 60-31 24-58 53-82 87-48-36-98-66-148-91S348 40 270 12l-6 16c77 31 164 78 259 140l61 50c-21 49-37 90-47 125-8 34-16 67-21 100l-139-19c-16-4-32-9-49-14l-29 29 213 29c-6 45-10 92-12 141l-115-16c-14-3-26-6-35-9l-24 29 170 19v270l82-31c5-2 7-6 6-12 0-2-12-8-37-18V640l223 28 29 52M645 865c46-20 78-35 93-45 14-10 24-21 30-35 5-12 5-24 0-37-5-14-13-20-26-20-12 0-20 8-25 24-5 15-11 29-20 43-8 13-28 33-60 58l8 12m-395 2c5-3 8-6 8-10s-4-8-12-10c-17-9-32-28-43-54-10-26-21-54-35-84h137l25 35 55-37c5-4 8-7 8-8 0-6-5-10-14-12-16-8-30-18-43-31l-61-80-11 10 47 99H158C102 558 53 470 12 424l-12 5c38 68 74 145 107 231s57 164 73 234l70-27M143 582l76-30c4-3 5-6 4-7-2-3-5-6-8-8l-27-18V162l164 115 11-16c-80-64-131-107-154-129-22-21-41-45-57-73l-52 42c26 20 41 37 43 49v432Z"/></symbol><symbol id="饰_G" viewBox="0 0 1000 1000" data-size="21"><path transform="matrix(1 0 0 -1 33 959)" d="M254 888c4-2 6-6 6-9 0-5-3-8-10-10-12-8-20-15-25-20-6-4-13-15-20-35-7-18-18-46-33-84h121l27 39 53-39c6-2 9-6 10-12 0-2-5-5-14-7-16-10-29-21-39-34-25-33-47-63-64-89l-16 7 47 110H162C117 591 68 497 16 422l-16 7c33 67 64 139 96 217 28 78 56 169 84 274l74-32m-98-300 74-32c6-4 8-9 4-13-2-4-12-11-31-20V162c41 34 91 74 151 119l11-12c-33-35-75-75-125-119-36-36-60-67-72-93l-57 42 45 45v444m438 296c4-2 5-5 4-11-2-4-8-7-18-10-19-12-34-26-43-43-10-16-26-47-49-94h336l43 53 65-61c1-3 2-6 2-9 0-5-2-8-6-8H668V537h133l25 39 61-45c4-2 6-5 6-8-2-6-13-14-32-23V199c-2-24-11-41-25-51s-28-18-43-25c-10 21-23 37-37 47-14 9-37 17-67 25l4 20c32-8 57-13 77-16 17-3 28-1 33 4 5 3 8 12 8 25v283H668V132l4-84c0-11-7-21-20-32S626 0 615 1l4 128v382H469V265l4-78c0-8-7-17-20-27-13-9-26-13-39-14l4 121v301l49-31h152v164H475c-57-94-108-166-153-217l-13 8c43 70 82 139 117 207 32 68 62 141 90 219l78-34Z"/></symbol><symbol id="饱_G" viewBox="0 0 1000 1000" data-size="21"><path transform="matrix(1 0 0 -1 42 948)" d="m168 882 66-33c6-2 9-4 10-6 4-6 1-11-8-14-16-6-29-21-39-45-8-22-17-47-29-74h127l29 35 53-39c6-5 9-8 10-10-1-4-6-8-16-11-14-8-27-19-37-32l-63-88-13 10 45 110H162C115 551 65 454 14 394l-14 5c45 87 81 176 109 266s47 162 59 217m-18-313 71-33c6-2 8-4 6-8-1-2-4-5-8-7l-20-10V116l141 121 12-15C245 112 186 40 174 8l-59 43c24 21 35 37 35 48v470m344 327 78-38c5-2 7-4 8-5 4-4 2-8-6-12-23-10-39-22-47-35-6-13-17-35-35-69h276l29 39 57-43c5-4 7-7 5-11 1-5-10-14-33-28V388c-1-93-12-151-33-174-22-24-49-41-82-51-5 22-16 37-33 47-18 8-47 19-88 31l4 18c29-6 54-10 74-12s39-2 59 0c18 2 31 15 39 39 7 26 11 51 9 76v350H482c-24-48-52-98-86-150-31-52-61-92-89-122l-12 10c86 139 152 287 199 446m131-292 55-39c4-3 6-6 6-7 0-4-10-12-30-24V403l4-76c0-7-6-14-15-21-11-8-24-13-40-14v37H469V94c-1-24 6-37 21-41s37-6 67-6h234c18 0 29 2 35 6 5 4 10 11 14 23 3 10 6 23 8 38 0 14 3 54 7 121h18l6-84c1-37 14-65 37-85-12-24-24-41-37-48-14-8-37-14-70-18H555c-41 0-75 4-100 12-23 6-36 31-39 74v497l45-18h131l33 39M467 354h138v186H467V354Z"/></symbol><symbol id="饲_G" viewBox="0 0 1000 1000" data-size="21"><path transform="matrix(1 0 0 -1 63 960)" d="M250 888c9-7 8-13-4-20-18-4-33-21-45-49-10-27-21-54-31-82h125l27 35 51-39c5-4 8-7 8-11s-4-7-12-10c-15-4-32-16-49-35l-50-78-14 5 45 110H160C113 595 64 499 12 427l-12 6c40 84 78 173 113 269 33 95 55 168 65 219l72-33m-98-285 71-36c6-2 7-5 6-9-2-2-5-4-8-6l-24-16V153l149 135 13-14c-62-62-106-108-130-136-25-28-46-57-63-87l-49 45c18 9 29 22 35 38v469m200 68h304l33 43 59-49c2-2 3-5 4-8 0-6-4-10-12-10H430c-15 0-34-2-57-7l-21 31m39-121 48-37h155l33 35 49-41c2 2 3 0 4-6 0-2-9-10-26-23V310l4-55c0-9-6-18-17-27-13-8-24-13-34-14v62H438v-47c0-8-6-16-18-25-10-8-22-12-33-12l4 98v260m47-248h169v187H438V302m369 588 62-51c2-3 4-6 6-10 0-1-4-4-12-10l-19-13V102c2-30-4-53-18-67-12-14-35-25-70-35-8 23-20 39-37 47s-47 19-92 31l4 18c57-11 96-18 117-20 20 0 33 3 39 10 8 7 11 17 10 30v703H439c-11 0-27-2-46-7l-24 31h402l36 47Z"/></symbol><symbol id="饳_G" viewBox="0 0 1000 1000" data-size="21"><path transform="matrix(1 0 0 -1 22 971)" d="m646 942 90-35c2-2 4-5 4-8 0-2-2-3-6-5l-39-18V519h157v267l76-31c4-1 5-4 4-10-2-2-13-8-32-17V556l4-88c1-8-4-16-15-24-12-8-24-13-37-13v60H695V104h174v282l82-33c4-1 5-4 4-10 0-3-12-9-37-20V119l4-82c0-6-7-14-20-23-11-9-22-13-33-14v76H484l-33-35-58 47 31 23v279l86-26c5-4 4-10-4-15l-33-18V104h173v387H500l-31-31-53 51 25 15v262l82-31c6-3 8-6 4-10 0-4-11-10-35-18V519h154v423m-392-54c4-2 6-4 6-6 2-6-1-10-8-12-14-2-27-14-37-37s-24-57-43-100h139l35 41 58-46c6-5 9-8 10-10 3-6 0-10-10-12-21-8-36-16-43-23-6-7-31-47-76-121l-17 7 52 139H162C112 607 62 526 12 464L0 474c47 83 86 164 117 242s53 146 67 205l70-33m-92-287 74-34c4-2 6-5 8-9-1-2-2-4-4-6l-31-18V146l166 128 14-15C260 144 189 68 174 31l-59 53c31 21 47 38 47 50v467Z"/></symbol><symbol id="饴_G" viewBox="0 0 1000 1000" data-size="21"><path transform="matrix(1 0 0 -1 40 965)" d="M684 892c4-3 7-6 7-10 2-4-4-8-19-12-16 0-39-24-70-72-29-46-81-120-157-221l393 16c-29 54-73 109-133 166l10 13c68-44 117-82 146-113 29-29 47-55 55-76 6-21 6-39 0-53s-14-21-25-21c-12-1-21 6-26 19-4 13-10 28-17 45-200-16-317-27-352-33-33-6-60-16-82-29l-41 64c19 1 36 9 51 22 51 68 114 179 191 334l69-39M439 444l57-45h275l32 47 64-47c2-4 3-7 4-9 0-5-10-14-31-28V161l4-110c0-9-6-17-18-26-12-5-25-9-37-11v90H490V41c1-8-5-17-17-25-13-10-25-15-37-16l3 161v283m51-314h299v242H490V130M260 886c8-6 8-12 0-18-24-4-41-18-49-43-9-25-22-59-39-103h156l29 41 63-51c10-7 10-12 0-16-27-12-44-22-51-31-6-6-33-44-80-113l-16 8 61 136H162C117 581 67 489 14 421L0 431c43 79 79 160 109 242 29 79 54 162 75 248l76-35M156 573l76-33c10-6 10-12 0-18l-29-15V140l154 150 14-14c-88-102-139-160-150-174-11-16-25-39-43-71l-59 47c18 12 31 29 37 50v445Z"/></symbol><symbol id="饵_G" viewBox="0 0 1000 1000" data-size="21"><path transform="matrix(1 0 0 -1 31 965)" d="M340 819h488l37 51 57-57c4-1 6-4 6-7 4-8 1-12-10-12H781V259l61 6 27 52 63-50c4-4 6-7 6-10 0-8-7-12-22-12l-135-12V116l4-75c0-9-6-18-19-25-14-9-28-15-41-16l7 114v117l-339-29c-16-4-34-10-53-15l-22 37 131 7v563h-37c-8 1-24-3-49-10l-23 35m158-580 234 18v160H498V239m0 203h234v162H498V442m0 188h234v164H498V630M230 878c-10-4-21-20-33-47-9-25-23-59-41-102h137l29 42 61-47c6-5 8-9 6-14-1-4-6-7-16-8-16-6-29-15-41-29l-66-90-12 8 45 113H146C104 596 60 511 14 448l-14 6c42 88 78 176 107 264 30 88 51 159 63 213 48-19 74-30 78-34 3-3 3-6 2-7-1-2-7-6-20-12m-84-295 69-35c6-4 8-8 6-12-1-2-4-4-8-6l-20-9V167l155 146 11-11C243 175 178 92 162 51l-55 47c24 18 37 33 39 46v439Z"/></symbol><symbol id="饶_G" viewBox="0 0 1000 1000" data-size="21"><path transform="matrix(1 0 0 -1 24 967)" d="m803 843 70-45c4-2 6-4 6-6 0-6-8-10-24-14l-287-50c12-44 31-84 57-120 57 41 101 79 131 114 35-28 54-43 57-47 1-3 1-5 0-8-2-2-8-4-18-6-10 0-20-2-29-8-10-6-49-31-118-76 16-20 41-39 75-56 32-17 59-28 80-34 19-6 32-8 39-4 6 4 10 19 12 45 1 26 5 62 11 110h18c-1-52 0-87 2-104 1-15 4-31 10-47 3-16 9-27 17-33 6-6 9-12 10-17-1-5-4-8-10-10-4-2-16-3-35-2-18 0-43 5-76 13-32 8-63 20-92 36-29 15-63 41-100 80-50-30-97-55-140-75-41-19-93-39-155-60l-3 16c52 25 99 48 138 70 38 20 84 46 137 78-28 43-49 89-63 139l-78-16c-13-4-26-10-37-18l-25 34 133 23c-21 83-32 147-34 190l77-28c5-2 9-4 11-8 0-3-10-11-31-23 4-34 11-76 22-125l212 37 30 55m-84-500V128c-1-28 4-44 13-48s23-7 43-8h59c16 2 29 7 37 14 8 8 13 22 16 40 2 19 6 59 11 121h18c-1-59 2-96 8-113 4-15 13-27 27-36-12-30-27-49-47-55-19-6-41-10-66-12h-92c-29 2-49 9-60 20-10 10-15 30-14 60v232H564c-6-72-17-130-33-172-16-41-45-77-86-107-39-28-90-49-150-64l-6 16c60 23 106 48 139 76 30 26 52 61 66 102 12 41 19 90 22 149H395c-8 0-18-2-30-6l-19 33h463l33 45c44-37 66-59 66-64s-4-8-10-8H719M248 899c14-6 14-13 0-21-19-9-37-30-53-63-13-33-25-63-35-89h129l25 39 57-49c5-5 8-8 8-10 0-5-5-8-14-10-17-6-32-15-43-27l-78-107-14 9 61 131H150c-41-94-87-172-136-234l-14 6c41 74 78 154 111 240s55 158 67 217l70-32M145 571l76-33c6-2 8-4 6-8l-8-8-28-15V157l139 110 14-12c-74-72-119-116-135-131-14-12-32-35-55-69l-49 43c26 21 39 38 40 49v424Z"/></symbol><symbol id="饷_G" viewBox="0 0 1000 1000" data-size="21"><path transform="matrix(1 0 0 -1 45 960)" d="m371 776 59-45h101c23 66 43 129 61 190 47-22 72-35 76-39s4-8 0-12c-5-2-11-4-20-6-7 0-17-10-29-27-12-16-32-51-60-106h255l32 41 54-43c6-1 10-5 10-11 1-4-10-14-33-30V103c1-30-5-52-16-68-11-15-32-27-62-35-7 25-22 44-45 55-22 9-49 19-80 29l6 19c44-12 74-18 90-21 15-2 29-1 43 2 11 3 16 13 15 30v590H422V155l4-96c-1-10-8-20-22-30-13-9-26-13-37-13l4 143v617m141-183 51-43h109l27 37c41-29 62-46 63-51 0-2-9-10-28-23V347l4-80c0-8-6-16-17-24s-22-12-33-12v41H559v-39c0-6-5-13-16-21-10-6-22-10-35-12l4 119v274m47-295h129v226H559V298M242 878c8-6 8-12 0-18-23-4-40-18-49-43-7-25-21-64-41-117h118l25 31 59-46c9-6 7-12-6-18-21-7-34-14-39-21-6-6-30-42-73-110l-15 8 52 131H141c-34-95-77-176-127-244l-14 9c40 81 73 156 98 227 23 70 46 152 68 246l76-35M135 542l76-33c10-6 10-12 0-18l-29-15V146l132 109 14-14-129-129c-10-10-25-32-47-65L98 92c18 11 30 27 37 48v402Z"/></symbol><symbol id="饸_G" viewBox="0 0 1000 1000" data-size="21"><path transform="matrix(1 0 0 -1 25 965)" d="M430 536h259l36 39 50-47c2-2 4-6 4-9 0-5-4-8-11-8H512c-14 0-36-3-67-8l-15 33m-6-140 60-38h252l32 39 54-41c6-3 9-8 10-13 0-3-10-13-29-28V122l4-77c-1-9-8-16-22-24-12-7-24-11-37-11v76H477V43c0-8-5-15-14-22S440 7 420 0l4 132v264m53-285h271v222H477V111m191 788c2-3 3-6 4-7-1-5-10-10-27-16 35-76 65-132 91-166 25-35 57-66 96-94 37-27 76-45 117-53v-17c-20 0-36-2-49-6-11-3-25-12-41-27-29 25-56 50-82 76-25 26-50 60-76 101-24 41-49 100-74 176-43-77-89-149-137-215-49-66-106-125-172-177l-11 11c60 64 113 132 160 203 45 70 85 151 121 243l80-32m-414-19c4-2 6-4 6-6 2-6-1-10-8-12-14-2-27-14-37-37s-24-56-43-99h139l35 41 58-47c6-5 9-8 10-10 3-6 0-10-10-12-21-8-36-15-43-23-6-7-31-47-76-121l-17 8 52 138H162C112 599 62 518 12 456L0 466c47 83 86 164 117 242s53 146 67 205l70-33m-92-287 74-33c4-3 6-6 8-10-1-2-2-4-4-6l-31-18V138l166 129 14-16C260 136 189 61 174 23l-59 53c31 22 47 38 47 50v467Z"/></symbol><symbol id="饹_G" viewBox="0 0 1000 1000" data-size="21"><path transform="matrix(1 0 0 -1 18 966)" d="m467 386 49-30h248l33 40 49-43c8-4 11-9 11-14 0-3-11-10-33-22V126l4-79c1-9-4-16-15-24-12-6-25-11-38-13v88H516V39c0-7-6-16-18-25-10-7-22-12-37-14l4 117v267l2 2m49-265h259v212H516V121m107 775c4-1 6-4 6-8 1-2-1-5-4-8-11-2-20-7-27-14-8-5-24-32-51-80h211l29 39 65-49c4-4 6-7 5-7 1-6-4-11-15-14-12-2-20-6-26-12-5-5-16-18-31-39-14-21-29-44-45-66-15-22-37-49-64-80 17-17 37-32 60-45 23-15 49-29 78-43s79-26 151-35v-18c-27 0-47-2-59-6-11-4-24-15-39-33-36 19-71 40-107 62-35 21-72 51-112 90-46-43-94-80-142-113-47-32-104-63-170-92l-10 14c50 29 102 62 154 99 51 37 97 77 139 120-43 58-77 119-101 181-44-79-92-145-143-197l-14 10c42 56 78 115 108 176 28 60 56 128 84 205l70-37m-82-133-4-12c25-61 61-115 108-164 21 25 42 53 62 82 18 27 33 59 47 94H541M254 888c4-2 6-4 6-6 2-6-1-10-8-12-14-2-27-14-37-37s-24-57-43-100h139l35 41 58-46c6-5 9-8 10-10 3-6 0-10-10-12-21-8-36-16-43-23-6-7-31-47-76-121l-17 7 52 139H162C112 607 62 526 12 464L0 474c47 83 86 164 117 242s53 146 67 205l70-33m-92-287 74-34c4-2 6-5 8-9-1-2-2-4-4-6l-31-18V146l166 128 14-15C260 144 189 68 174 31l-59 53c31 21 47 38 47 50v467Z"/></symbol><symbol id="饺_G" viewBox="0 0 1000 1000" data-size="21"><path transform="matrix(1 0 0 -1 27 962)" d="m793 731 39 53 66-58c2-2 4-5 4-8 1-8-4-12-15-12H471c-14 0-36-3-67-8l-15 33h404M510 567c-16-16-33-37-53-62-20-24-56-59-107-104l-12 10c37 46 70 87 98 125 25 37 50 79 76 127 49-28 72-44 70-49-1-4-5-7-14-8-7 0-15-3-23-7-8-5-20-15-35-32m193 79c60-30 102-54 127-73s42-37 51-52c10-16 13-30 10-43-3-14-10-23-22-26-12-2-23 5-31 22-8 15-18 34-31 56s-49 56-110 102l6 14M527 913l10 12c50-32 83-56 102-72 17-15 28-30 33-45 4-14 3-26-4-37-7-13-16-18-27-16-12 0-20 8-24 23-4 14-10 31-17 51-9 18-33 46-73 84m260-430c5-3 8-6 8-9 0-2-3-5-8-8-14-1-23-8-29-22-3-13-16-47-39-99-23-53-48-95-74-125 25-26 52-47 82-65 28-17 57-32 86-43 28-10 72-18 132-24V70c-37-1-60-6-70-13-8-9-18-17-29-26-47 25-86 48-117 69-32 18-68 49-108 90-49-44-103-83-162-116-59-32-121-57-188-74l-5 14c56 19 113 47 170 84 57 34 110 76 160 126-30 42-53 86-71 130-17 43-31 88-41 135l16 4c21-62 41-111 59-146 17-35 37-67 60-94 22 25 41 64 59 115 17 51 31 100 41 147l68-32M240 880c5-3 8-5 8-8 1-6-2-11-10-14-17-6-33-25-47-56-11-31-23-61-35-88h141l25 31 53-39c5-4 8-8 8-12s-5-6-14-7c-15-6-28-16-39-30l-59-82-11 8 45 105H146c-39-91-83-168-132-230l-14 6c41 74 77 154 109 238 30 85 49 154 59 207l72-29m-95-297 72-31c6-3 8-6 6-10-2-2-5-4-8-6l-24-14V163l157 129 11-16c-86-84-138-135-154-154-14-16-29-39-45-69l-55 47c26 20 39 35 40 46v437Z"/></symbol><symbol id="饻_G" viewBox="0 0 1000 1000" data-size="21"><path transform="matrix(1 0 0 -1 14 961)" d="m838 745 41 49 55-55c7-4 11-9 9-13 0-4-4-6-13-6H660l-10-35c11-60 20-108 26-145 5-35 13-76 25-123 60 61 112 120 154 178 43-33 65-52 65-55 0-2-2-4-6-6-2 0-8-2-19-4-12 0-28-9-51-27-22-16-67-53-135-109 27-75 53-126 76-155 22-29 50-57 84-84 33-24 68-40 104-48V90c-32 0-55-2-69-6-14-3-27-10-39-21-34 33-69 73-103 122-35 48-63 111-84 187-22 76-37 170-45 283-28-56-59-115-94-176V109c33 17 82 42 147 76l11-18c-45-27-80-50-103-67-24-17-40-31-49-43-10-12-24-31-41-57l-57 57 43 35v327c-55-82-118-149-189-201l-12 11c62 64 111 124 149 178 34 54 66 105 95 155 28 48 52 101 74 158H480c-12 0-34-3-66-8l-16 33h440M549 911l8 12c57-26 95-47 113-63 18-15 29-30 33-45 3-13 1-26-6-37-6-10-15-15-29-13-14 0-23 7-27 23s-11 33-20 51c-8 17-32 41-72 72m-295-25c4-2 6-4 6-6 2-6-1-10-8-12-14-2-27-14-37-37s-24-57-43-100h123l35 41 59-46c6-5 9-8 9-10 4-6 0-10-9-12-22-8-36-16-43-23-6-7-32-47-76-121l-18 7 53 139H162C112 605 62 524 12 462L0 472c47 83 86 164 117 242s53 146 67 205l70-33M154 567l75-33c3-2 5-6 7-10 0-2-2-3-4-5l-31-18V136l170 97 14-15C254 124 181 59 166 21l-59 53c32 22 47 39 47 50v443Z"/></symbol><symbol id="饼_G" viewBox="0 0 1000 1000" data-size="21"><path transform="matrix(1 0 0 -1 28 971)" d="M447 923c74-41 119-72 133-94 12-19 15-37 10-53-7-13-16-21-27-23-12-1-20 2-24 8s-8 17-14 33c-4 15-12 32-25 51-14 17-34 39-61 64l8 14m387-26c6-3 9-5 10-5 4-7-3-12-20-16-16-3-35-22-56-57-23-34-41-65-57-91h103l34 48 60-56c2-2 3-5 4-8 0-7-4-10-12-10H764V438h80l35 51 60-58c2-2 4-5 4-8 0-8-4-12-13-12H764V136l4-91c0-11-9-20-26-25-15-8-27-12-35-12l6 130v273H551c-3-114-22-200-57-256C459 101 394 49 299 0l-10 16c78 51 133 103 164 157 29 55 44 134 45 238h-96c-11-1-33-4-64-10l-18 37h178v264h-31c-22 0-42-2-61-8l-21 34h297c23 44 52 114 88 209l64-40M713 438v264H549V438h164M174 942l68-41c4-2 7-5 10-11-2-4-8-7-18-8-13-3-26-20-39-51-11-31-22-60-33-88h113l24 41 58-45c6-4 10-8 10-10 0-4-4-7-13-9-15-6-28-17-40-32l-62-87-14 9 39 110H154C111 616 64 532 14 468L0 478c45 86 81 171 109 253s49 153 65 211m-16-341 69-34c6-2 8-4 5-7 0-3-3-6-7-8l-20-10V171l156 137 12-16C257 173 189 94 170 57l-53 52c24 19 37 35 41 48v444Z"/></symbol><symbol id="饽_G" viewBox="0 0 1000 1000" data-size="21"><path transform="matrix(1 0 0 -1 35 971)" d="m768 556 54-55c2-4 4-7 4-8-2-4-7-7-13-8-18-1-38-10-59-27l-86-72c13-7 20-12 20-16 0-2-8-6-24-10v-35h162l33 49 63-59c2-2 3-3 4-5 0-8-4-12-12-12H664V92c3-31-5-54-23-69S605 0 588 0c-4 23-14 39-29 47s-45 19-90 33l4 20c76-21 119-27 129-20 7 6 11 18 11 35v183H447c-13 0-36-3-66-8l-16 35h248v96l41-24 73 100H484c-9-1-21-4-35-10l-31 37h318l32 32M389 790h215v152l78-35c5-2 7-4 7-8 0-5-1-8-5-9l-30-10v-90h143l35 49 59-57c2-2 3-4 4-8 0-7-4-11-12-11H654V653h186l25 35 51-42c18-17 18-27 0-28-18-4-34-12-49-25-14-12-31-30-51-53l-13 10v-2l37 78H436c-2-23-7-43-14-59-6-14-14-25-24-33-9-6-17-10-23-12-4-1-10-1-18 0-5 0-10 4-13 12-5 8-4 16 2 24 3 7 13 18 31 33 17 15 29 51 37 107h20v-45h170v110H471c-14-1-36-4-67-10l-15 37m-145 88c8-6 8-12 0-18-19-4-33-13-41-29-6-16-17-45-33-86h135l27 35 57-47c9-5 7-11-6-17-20-10-35-20-45-29l-78-102-16 8 63 127H160C123 618 74 522 14 435l-14 9c46 98 82 181 107 250 25 68 45 141 61 219l76-35m-90-287 76-33c10-6 10-12 0-18l-29-16V181l137 129 14-14c-77-89-122-141-135-156s-28-40-45-76l-61 45c19 13 34 33 43 60v422Z"/></symbol><symbol id="饾_G" viewBox="0 0 1000 1000" data-size="21"><path transform="matrix(1 0 0 -1 18 946)" d="M381 813h447l39 49 57-56c4-2 6-5 6-8 0-8-4-12-12-12H451c-12-1-27-4-47-10l-23 37m57-140 60-37h301l29 39 61-51c4-4 6-6 6-8 0-4-12-13-36-27V431l4-80c0-8-6-16-19-24-13-6-26-8-39-8v41H492v-15c0-10-8-18-21-24-15-6-27-9-37-9l4 113v248m54-285h313v220H492V388m-15-106c50-41 82-72 95-94 14-19 24-39 30-60 4-20 2-36-6-46-8-12-19-17-32-16-13 2-21 12-23 31-3 19-7 41-14 66-6 24-27 61-62 111l12 8m369-15c8-2 11-5 11-8 0-5-2-9-5-10-16-2-32-18-49-47-18-29-49-85-94-167h156l35 49 59-57c2-2 3-6 4-11 2-6-1-8-10-8H443c-13 0-33-2-58-8l-20 35h317c39 87 71 175 95 265l69-33M254 858c4-2 6-4 6-5 2-6-1-10-8-12-14-2-27-15-37-37-10-24-24-57-43-100h139l35 41 58-47c6-4 9-8 10-10 3-5 0-9-10-11-21-8-36-16-43-24-6-6-31-47-76-121l-17 8 52 139H162C112 578 62 496 12 435l-12 9c47 84 86 164 117 243 31 78 53 146 67 205l70-34m-92-287 74-33c4-3 6-6 8-10-1-2-2-4-4-6l-29-17V116l164 129 14-16C260 115 189 39 174 2l-59 53c31 21 47 38 47 49v467Z"/></symbol><symbol id="饿_G" viewBox="0 0 1000 1000" data-size="21"><path transform="matrix(1 0 0 -1 34 953)" d="M240 870c6-2 8-6 6-10 0-4-4-7-12-9-15-5-29-21-41-49-10-28-21-55-33-82h119l24 37 56-45c6-3 8-7 8-10 1-6-4-10-15-10-19-2-53-35-104-99l-12 10 47 93H150C107 589 62 505 14 444l-14 8c44 86 81 170 109 252s47 149 57 199l74-33m-90-283 73-27c6-2 7-7 4-14l-28-18V130l131 121 12-12C240 131 183 56 170 16l-53 56c22 18 33 32 33 44v471m178 14h149v164c-32-10-69-19-112-26l-4 16c100 32 175 65 227 98 27-32 41-49 43-53s1-7-2-8-10-1-22 0c-9 2-37-4-82-18V601h145v304l76-27c10-4 9-10-2-18l-27-17V601h113l37 46 57-56c2-2 3-5 4-8-1-5-2-7-4-8H717c0-57 1-101 2-133 0-32 5-71 13-119 32 55 63 119 94 194 47-24 70-38 70-43 0-7-1-10-5-10-5-1-12-2-22-4s-22-16-37-43c-14-25-43-72-86-141 12-37 27-72 47-105s35-55 47-67c12-9 19-13 23-12s9 13 16 36c5 23 14 62 25 117l20-4c-6-47-11-86-14-117-4-29-4-52 2-67 4-14 9-25 16-34 4-7 5-13 4-17-3-4-8-6-14-6-7 1-19 5-37 14s-37 24-59 43c-21 19-41 44-58 73-19 29-35 65-51 109-39-47-90-96-152-145l-12 9c60 62 109 120 148 173-13 55-21 104-23 147-1 41-3 92-4 152H525V403l98 47 10-13-110-67V101c2-35-3-59-15-74-12-13-30-22-55-27-8 22-20 37-37 45-16 8-39 16-70 25l4 18c46-10 78-16 97-18 20 0 30 13 30 38v235c-30-18-51-31-61-41-10-8-20-20-31-37l-39 54 131 63v193h-82c-15 1-30-2-45-10l-22 36m432 232c39-16 68-33 88-49 17-15 27-30 31-43 2-13 0-25-6-35-6-9-15-13-25-12-10 2-17 9-20 22-2 11-8 25-17 43-9 17-28 38-57 62l6 12Z"/></symbol><symbol id="馀_G" viewBox="0 0 1000 1000" data-size="21"><path transform="matrix(1 0 0 -1 29 968)" d="M426 589h256l37 43 52-49c2-3 4-5 4-8 0-8-4-12-13-12H625V415h158l41 51 57-57c4-2 6-4 6-8 0-7-5-11-14-11H625V92c3-31-5-53-21-67-18-14-36-22-53-25-7 22-20 37-39 45s-46 18-80 29l4 18 82-18c39-6 59 4 58 30v286H406c-28-1-48-4-60-10l-22 35h252v148h-78c-14 0-33-2-57-7l-15 33m271-262c43-25 84-56 121-94 39-35 60-64 63-87 2-21-1-37-10-46-10-10-19-13-29-10-9 4-16 16-22 36-4 20-13 44-29 72-16 30-49 69-102 117l8 12m-197-47c-16-2-26-6-31-13-4-7-20-30-47-69s-72-91-135-153l-14 10c65 82 119 174 163 276l68-35c6-7 5-12-4-16m135 629c4-2 7-4 8-6 2-6-2-9-12-11l-14-8c37-59 72-105 104-137 30-31 64-57 101-76 37-20 76-33 119-37v-18c-22 1-39-2-50-10-12-5-24-16-37-31-38 24-69 48-96 74-26 25-52 55-78 90-27 35-54 80-80 137-40-77-80-141-120-191-39-51-95-106-166-164l-11 11c64 67 117 133 160 199 40 67 74 135 101 206l71-28m-397-27c8-6 8-12 0-18-20-6-34-18-43-37-8-20-19-49-33-86h139l25 35 59-45c10-5 8-11-6-17-20-8-37-20-51-37l-58-82-16 8 49 113H154C102 593 55 501 14 440L0 450c33 72 64 147 94 225 29 77 52 158 70 242l74-35M133 597l76-34c10-5 10-11 0-17l-29-16V194l140 131 14-15c-79-89-124-141-137-157-9-15-23-38-41-71l-58 42c17 14 29 31 35 51v422Z"/></symbol><symbol id="馀_M" viewBox="0 0 1000 1000" data-size="21"><path transform="matrix(1 0 0 -1 39 953)" d="M146 902c33-11 63-23 87-34 4-4 6-9 6-13 0-7-6-12-18-14-15-3-25-4-32-4-9-33-20-64-32-93h164l30 30c22-16 43-33 61-51 2-2 3-4 3-6 0-5-6-9-19-12-10-3-20-5-30-7-9-17-20-35-32-53-13-21-26-39-40-55l-17 12c13 20 22 40 30 59 7 20 12 38 16 56H146l-3-8c-17-40-35-75-53-105-20-32-43-64-71-96L0 520c23 35 43 69 60 101 12 27 24 58 37 93 13 34 23 66 32 96 6 28 12 58 17 92m-11-300c38-6 69-13 94-23 9-3 13-8 13-15 0-6-4-10-13-12-12-7-26-11-41-12V158c13 8 25 16 36 26 37 27 66 50 89 70l7-18c-17-21-37-44-59-68-23-25-47-49-73-72-3-33-8-50-12-50-5 0-24 24-59 71l24 12v394c0 35-2 61-6 79m456 304c32-6 60-14 83-23 5-2 8-6 8-11s-6-9-18-12c-8-2-17-3-26-4 16-28 33-52 51-74 22-26 47-51 75-75 27-23 55-42 83-59 26-15 51-25 75-32l-2-16c-33 0-54-10-65-30-26 15-49 31-70 50-23 20-43 42-60 66-20 21-39 45-57 71-16 22-32 49-48 81-7-19-15-36-24-52-14-23-30-47-47-70-20-25-38-46-55-63-17-19-35-37-56-52-21-19-44-36-68-50l-18 21c28 20 53 40 74 60 20 21 40 43 60 68 21 26 38 51 52 75 14 23 25 45 33 66 8 19 15 41 20 65M445 596c29-8 67-12 115-12h131l39 42 60-46c5-3 7-6 7-10 0-9-5-13-14-13H637V412h140l43 48c24-18 46-35 67-51 5-3 8-7 8-11 0-9-5-13-15-13H637V87c0-23-5-40-13-51s-18-20-30-26c-13-7-23-10-31-10 0 14-3 25-9 31-7 9-20 16-37 22-19 6-40 10-64 12v26c37-9 71-14 101-14 15 0 24 2 28 6 5 3 7 12 8 27v275H470c-46-2-78-4-95-7l-20 46c30-8 68-12 115-12h120v145h-30c-47-2-78-4-95-7l-20 46m-7-272c34-11 64-23 88-34 4-5 6-9 6-13 0-7-6-12-18-14-15-3-25-4-32-4-11-26-25-51-40-73-15-23-30-43-46-61s-37-36-61-55l-19 12c20 23 37 44 50 64 11 18 21 38 31 59l28 60c5 18 10 38 13 59m290-8c26-20 49-42 69-63 19-19 35-36 46-52 11-13 20-25 25-34 5-10 8-18 10-25 3-9 4-17 4-25-1-21-8-31-23-31-4 0-8 2-11 5-4 4-12 21-25 51s-27 56-43 79c-15 24-37 51-65 82l13 13Z"/></symbol><symbol id="馁_G" viewBox="0 0 1000 1000" data-size="21"><path transform="matrix(1 0 0 -1 41 961)" d="M617 511c5-4 5-9 2-14-1-1-7-2-19-4-11-2-28-29-51-82h271l37 49 53-53c3-2 6-6 8-10 0-7-5-11-14-11H770c-17-79-45-146-86-201 63-27 106-48 130-63 23-12 40-26 49-40 10-12 14-25 12-41-2-14-8-21-20-23-11-3-25 4-41 21-14 17-35 36-62 57-27 20-59 39-94 57-43-40-97-74-162-100S360 9 283 0l-2 18c78 15 147 37 205 66 57 26 100 56 129 89-71 33-132 58-183 76 16 38 36 83 60 137h-92c-11 0-33-3-64-8l-18 33h182c20 54 36 100 51 137l66-37M475 257c48-16 103-35 164-55 31 35 58 96 82 184H539l-64-129m334 580c-12-1-56-7-131-20-76-11-179-23-309-35l-2 18c115 17 212 35 291 53 78 17 132 33 162 46l49-50c5-8 1-13-10-16-20 4-37 5-50 4M426 733c49-52 76-90 82-113 4-23 3-41-4-53s-16-17-27-15c-12 0-19 7-20 21-1 13-2 30-4 49-2 18-15 52-41 104l14 7m150 38c52-43 82-77 90-100 8-24 9-42 2-55-6-14-16-21-29-19-13 0-21 9-22 27 0 17-2 35-6 55-2 18-19 46-48 84l13 8m237 1c47-26 70-41 70-44-1-5-2-8-4-8-2-1-6-2-12-4-4-1-10-4-19-10s-22-24-39-55c-17-29-54-80-110-154l-15 10c40 71 68 124 84 156 13 31 28 68 45 109M246 894c5-3 7-6 8-8 2-2-1-6-8-12-16-8-29-25-41-49-10-23-24-57-43-101h125l31 39 53-45c6-4 9-8 10-12 0-3-5-6-14-10-15-4-29-13-41-27l-56-82-18 8 45 103H152c-41-95-86-177-136-246l-16 8c43 78 81 161 115 250 31 89 52 159 63 213l68-29m-96-299 73-33c6-3 7-6 6-10-1-2-4-4-8-6l-24-16V157l162 119 12-13c-76-66-125-110-146-133-21-20-40-47-57-81l-55 49c24 17 37 31 37 44v453Z"/></symbol><symbol id="馂_G" viewBox="0 0 1000 1000" data-size="21"><path transform="matrix(1 0 0 -1 19 966)" d="M627 515c4-3 6-6 6-8 4-2 3-6-4-12-12-1-22-6-31-16-9-8-23-28-43-60h197l31 35 61-47c4-4 6-6 6-8 0-4-6-9-18-13s-21-11-29-22c-8-10-20-29-37-58-19-28-45-61-80-100 29-27 58-49 87-66 28-16 53-29 77-38 22-10 60-17 113-22V61c-26 0-45-3-57-10-11-8-22-18-33-30-29 13-59 29-90 49s-72 55-123 105c-43-39-92-73-146-101-55-26-127-51-217-74l-4 16c86 31 154 61 203 89s93 61 133 99c-45 53-82 108-111 164-43-66-89-120-139-162l-12 12c45 53 84 107 115 164 30 56 55 110 77 162l68-29m-86-118-10-13c33-58 74-108 123-151 39 43 73 98 102 164H541m61 536c38-24 60-39 66-43 4-4 5-8 4-12-3-4-10-6-22-6-12-1-25-8-39-21s-60-56-138-131l330 19c-28 37-58 67-90 92l10 12c56-28 96-53 121-74 23-22 38-41 45-59 6-16 6-31 0-43s-14-18-24-16c-8 0-15 6-23 18-6 10-15 27-26 53-156-18-252-30-287-35-35-6-64-19-88-38l-37 71c22 2 43 11 61 27 56 64 101 126 137 186M498 540c-28-27-72-64-131-111l-10 13c65 65 118 131 159 200 48-24 72-38 72-43-1-5-3-8-8-8-4 0-12-2-23-6-10-3-30-18-59-45m234 100c34-15 70-32 110-51 37-20 62-39 74-57 12-16 16-31 12-45-5-12-13-19-26-19-11-2-21 6-29 23-8 16-25 35-49 59-23 22-56 48-99 78l7 12M254 884c4-2 6-4 6-6 2-6-1-10-8-12-14-2-27-14-37-37s-24-57-43-100h115l35 42 59-47c6-5 9-8 10-10 3-6 0-10-10-12-22-8-36-15-43-23-6-7-31-47-76-121l-18 7 53 139H162C112 603 62 522 12 460L0 470c47 83 86 164 117 242s53 146 67 205l70-33M139 573l74-33c3-3 6-6 8-10-1-2-2-4-4-6l-29-17V134l164 129 13-16C237 132 165 57 150 20L92 72c31 22 47 39 47 50v451Z"/></symbol><symbol id="馃_G" viewBox="0 0 1000 1000" data-size="21"><path transform="matrix(1 0 0 -1 21 958)" d="m408 903 53-35h310l28 39 58-41c4-4 6-6 6-8 0-4-9-15-27-31V612l4-86c0-8-5-15-16-21-10-6-22-10-37-12v35H643V399h177l41 47 53-52c4-6 6-11 6-14-1-4-1-6-2-6H682c20-49 45-90 74-123 27-31 58-57 92-78 33-20 70-34 111-43v-17c-25 2-46 0-61-6-13-3-26-11-37-25-41 29-73 58-95 87-23 29-42 57-57 82s-32 66-51 123h-15V140l3-99c0-11-6-20-19-27-12-9-25-13-37-14l4 138v216c-23-39-48-74-74-107-28-32-61-64-100-98-39-31-86-63-141-96l-8 13c55 41 99 80 133 115 34 34 59 63 76 86 18 22 41 58 71 107H422c-14-1-36-4-67-10l-15 35h254v129H459v-15c0-6-6-12-18-18-11-6-24-10-37-10l4 123v295m51-347h135v125H459V556m184 125V556h144v125H643m-184 27h135v133H459V708m184 133V708h144v133H643m-389 43c4-2 6-4 6-6 2-6-1-10-8-12-14-2-27-14-37-37s-24-57-43-100h115l35 42 59-47c6-5 9-8 10-10 3-6 0-10-10-12-22-8-36-15-43-23-6-7-31-47-76-121l-18 7 53 139H162C112 603 62 522 12 460L0 470c47 83 86 164 117 242s53 146 67 205l70-33M146 593l75-33c3-3 6-6 8-10-1-2-2-4-4-6l-32-18V153l166 129 14-15C245 152 173 76 158 39l-58 53c31 21 46 38 46 50v451Z"/></symbol><symbol id="馄_G" viewBox="0 0 1000 1000" data-size="21"><path transform="matrix(1 0 0 -1 31 957)" d="m406 903 57-41h293l27 37 55-41c8-4 12-7 12-11 0-5-10-12-30-22V603l6-75c0-9-7-17-19-23-12-5-24-8-36-10v41H457v-4c1-10-3-17-10-21-10-8-25-12-45-12l4 102v302m51-341h314v126H457V562m0 152h314v123H457V714m184-213 74-31c13-6 14-13 2-20l-28-10V271c40 30 92 82 157 156 41-29 61-46 58-51-2-4-4-6-8-6-1 0-8-1-19-2-12-2-32-14-61-35-28-20-70-51-127-92V90c0-22 4-33 12-35s15-4 22-4h95l20 2c14 4 23 13 27 29 4 13 8 62 12 146h19l2-65c4-42 17-66 40-73-8-26-17-44-28-55-10-12-23-19-41-23l-21-2H721c-18 0-33 2-47 6-11 3-20 10-28 21-3 11-5 27-5 51v413m-250-25 74-32c5-2 8-4 8-6 4-3 2-7-6-11l-28-12v-82h79l33 41 54-53c2-2 2-4 2-6 1-5 0-8-3-7H439V88l159 69 7-13c-84-49-134-81-152-97-16-16-31-31-45-47l-53 55c20 8 32 19 36 31v390M250 878c8-6 8-12 0-18-23-4-39-15-47-35s-20-53-37-97h135l29 37 51-51c10-7 10-12 0-16-22-8-41-19-57-35l-56-76-16 8 51 107H156C115 599 67 513 14 444L0 454c43 80 78 158 105 234 28 76 51 151 71 225l74-35M148 583l77-33c9-6 9-12 0-18l-30-15V147l147 106 12-14c-83-72-129-115-141-129-12-11-27-34-47-67l-57 45c20 14 33 30 39 50v445Z"/></symbol></svg>