<svg xmlns="http://www.w3.org/2000/svg"><symbol id="驳_G" viewBox="0 0 1000 1000" data-size="21"><path transform="matrix(1 0 0 -1 28 958)" d="m354 915 44-39c6-4 8-8 8-14 0-2-10-9-31-21l-51-354h26l21 30c43-23 65-36 65-39 2-6-2-13-12-20s-16-16-20-27c-10-123-19-204-25-244-7-41-18-73-33-95-16-24-48-41-96-53-3 24-12 40-27 49-14 10-41 21-82 34l4 18 107-22c26-2 44 2 55 14 11 10 19 30 25 62 5 31 14 120 25 268H162l-39-35-53 41 32 25c24 160 39 263 43 309 42-20 66-33 72-37 4-3 5-6 2-10-3-5-8-8-16-10s-14-11-19-25l-34-233h129l49 369H119c-12 0-27-2-47-7l-23 35h275l30 31m-51-562 2-20c-123-33-196-55-219-66-22-11-39-22-53-34L0 298l303 55m566 492c-10-2-27-12-53-30-24-17-52-41-86-72 72-45 116-76 133-94 16-17 25-31 28-43 2-11 2-22 0-31-2-10-9-16-20-19-12-2-24 7-37 29-12 21-29 41-49 61-19 19-47 42-84 68-41-30-76-55-105-74-29-20-81-47-157-82l-5 13c46 29 89 58 130 86 40 29 75 57 106 84-65 43-135 86-209 131l6 12c80-33 156-71 228-113 37 32 80 78 129 138 42-30 64-47 67-51 2-4 1-6-2-7-2-2-9-4-20-6m-29-344c6-3 9-7 10-10 0-2-3-4-8-8-22 0-44-29-67-86-22-56-52-111-91-164 29-31 56-55 82-72 24-15 49-29 74-41 23-11 58-21 103-30V72c-17 0-33-2-48-6-15-3-28-13-40-31-26 18-55 38-85 61-30 22-67 57-112 106-34-42-78-80-133-116-55-37-114-66-177-86l-6 14c66 32 123 66 172 102 47 37 87 76 121 119-61 86-102 184-125 293l17 6c37-119 82-209 133-269v4c41 57 78 145 110 265l70-33Z"/></symbol><symbol id="驴_G" viewBox="0 0 1000 1000" data-size="21"><path transform="matrix(1 0 0 -1 58 959)" d="m791 743 33 43 55-47c4-2 6-5 6-8s-10-13-30-29V567l4-89c1-9-4-17-15-26-11-6-23-10-37-12v53H539c2-127-18-232-59-316C439 95 393 36 342 0l-8 10c53 56 93 124 119 202s39 182 37 310v262l57-41h244M539 519h268v199H539V519m53 388 10 12c35-20 62-39 82-59 19-17 30-34 33-48 2-16-1-28-8-38-8-9-18-13-29-11-12 1-19 9-20 25 0 14-5 31-14 53-8 19-26 41-54 66m-266-37 57-37c5-4 8-8 8-14 0-2-11-9-32-21l-35-330h20l25 29c36-25 54-40 55-43 0-4-9-12-26-23-10-130-18-213-25-250-6-37-19-67-41-89-21-23-55-42-103-57-6 21-16 36-30 45-12 10-39 23-80 38l4 14 107-27c26 0 47 6 65 19 16 12 27 33 33 63 5 29 14 115 26 257H156l-29-33-57 41 32 29c17 141 27 233 29 276l70-29c3-2 3-4 2-6 0-2-2-4-6-6-12-6-21-15-27-26l-27-222h134l36 342H113c-11 0-27-3-47-8l-23 31h266l17 37m-23-527 4-18c-125-45-198-72-219-82-20-10-37-21-51-33L0 265l303 78Z"/></symbol><symbol id="驵_G" viewBox="0 0 1000 1000" data-size="21"><path transform="matrix(1 0 0 -1 31 937)" d="m445 874 53-39h231l31 39 51-37c7-3 11-9 11-16 0-2-11-11-33-25V82h55l33 46 57-56 4-4c0-7-4-11-12-11H395c-7 0-26-2-57-8l-16 33h123v792m51-792h242v249H496V82m0 274h242v207H496V356m0 233h242v219H496V589M291 860l57-39c6-4 9-9 7-13 0-3-13-12-37-28l-25-349h12l27 23c35-25 53-40 55-43s1-6-2-10l-28-17c-7-104-15-178-23-223-8-44-20-78-35-100-14-25-41-45-82-61-8 23-20 39-35 47-16 8-47 20-94 37l6 17c43-10 78-16 105-19 28-3 47 0 59 11 12 12 21 34 27 66 6 31 15 113 28 246H125l-29-31-55 45 37 25c11 158 17 258 20 301l72-29c7-6 6-11-4-14l-27-10-18-261h127l23 371H68c-16 0-31-2-45-6L0 827h258l33 33m-6-547 4-15c-110-40-177-66-201-78-24-10-42-22-55-35L0 241l285 72Z"/></symbol><symbol id="驶_G" viewBox="0 0 1000 1000" data-size="21"><path transform="matrix(1 0 0 -1 34 959)" d="m617 919 82-31c5-2 7-5 8-8 4-4-10-12-41-24V710h131l27 37 59-45c4-2 6-5 6-8 0-4-10-12-30-25V530l4-78c0-7-6-14-15-21-11-8-23-13-37-14v37H664c-4-66-12-118-23-154s-24-66-39-90c31-23 63-44 97-61 33-16 67-29 104-39 35-7 78-12 129-14V76c-36 0-58-4-67-12-10-5-19-15-29-29-31 13-59 24-82 33-23 11-50 25-80 42-31 18-63 41-96 71-29-39-71-76-125-111-55-33-109-56-164-70l-6 12c60 27 112 57 155 90 42 30 80 66 113 108-36 47-68 105-96 176l14 8c39-71 72-122 99-155 14 25 25 55 34 90 5 34 11 76 17 125H471v-8c0-8-6-15-18-21-12-7-23-10-35-10l4 104v228l55-37h140v209M471 479h146v206H471V479m195 206V479h145v206H666M295 866l51-39c5-4 8-8 8-14 0-2-11-9-32-21l-29-326h16l21 29c39-25 59-40 59-43 0-6-4-12-12-15-10-3-16-10-20-22-10-111-19-189-27-234-8-46-22-79-43-101-19-23-53-42-101-57-4 22-13 38-28 47-14 10-41 23-80 38l4 16 102-26c33-4 58 3 72 20 14 18 23 43 29 76 7 32 15 113 26 244H133l-33-35-53 49 31 26c14 138 22 230 24 275l72-35c2-2 3-4 2-6s-4-5-10-8c-12-6-20-16-25-29l-22-209h127l31 344H100c-12 0-28-3-47-8l-24 33h242l24 31m-37-527 6-16c-96-34-155-57-178-68-22-11-39-22-53-33L0 278l258 61Z"/></symbol><symbol id="驷_G" viewBox="0 0 1000 1000" data-size="21"><path transform="matrix(1 0 0 -1 44 942)" d="m814 825 28 35 66-45c2-3 3-6 4-7 0-4-12-14-35-30V138l4-85c2-10-3-19-14-28-10-7-23-12-39-15v98H469V45c2-11-4-22-18-31-12-9-24-14-37-14l4 153v709l53-37h343M469 132h359v666h-92V419c0-18 3-29 10-31s15-3 25-2c10 0 18 3 26 8l23-40c-23-5-43-8-58-7-15-1-26 0-33 2-6 0-14 5-24 15-8 8-14 24-16 47v387h-74v-63c2-172-8-280-29-324-22-45-53-88-96-129l-13 14c56 68 86 142 87 225 3 79 4 158 2 236v43h-97V132M299 884l56-39c7-5 10-9 8-14 0-3-11-12-35-27l-47-342h16l25 35c37-25 57-40 59-43s1-6-2-10l-27-17c-8-133-15-220-22-260-6-40-18-71-37-93-18-23-48-43-90-60-7 24-18 40-33 49-14 8-44 21-90 38l4 15c43-11 78-18 105-21 28-4 49 1 63 13 15 13 25 35 31 67 6 30 14 118 24 262H117l-29-32-55 45 39 26c22 151 35 250 41 296l65-31c7-6 6-10-4-13l-22-14-39-252h123l45 361H82c-16 1-31-1-45-6l-23 34h259l26 33m-35-537 4-18c-98-43-155-70-172-82-17-10-33-23-51-41L0 261l264 86Z"/></symbol><symbol id="驸_G" viewBox="0 0 1000 1000" data-size="21"><path transform="matrix(1 0 0 -1 27 960)" d="M555 634h220v287l77-33c6-4 9-8 7-12-2-2-13-8-35-18V634h26l33 49 58-59c2-2 4-5 4-8 1-6-2-8-9-8H824V98c0-24-6-45-19-63-15-17-35-29-63-35-2 20-13 35-33 47-19 12-48 24-86 37l4 18c45-14 77-22 98-24 17-2 31 0 41 6 7 5 11 21 9 48v476H625c-14 0-29-4-47-9l-23 35m21-127 12 10c36-34 62-61 78-82 14-22 23-41 27-59 3-18 1-32-5-43-8-12-18-18-30-16-12 0-19 8-21 22 0 12-2 30-6 57-4 23-22 60-55 111m29 377c10-6 8-12-5-18-20-4-34-15-43-35-26-55-52-106-78-154l50-18c7-2 10-6 8-10 0-3-8-10-25-21V136l4-85c0-11-6-21-18-31S473 5 459 4l4 142v503c-39-65-76-119-111-162l-14 10c55 94 97 176 127 246s52 128 66 174l74-33m-304 0 56-39c7-5 10-9 8-14 0-3-13-12-37-27l-39-358h12l25 28c35-28 53-43 55-47 2-3 1-7-2-10l-27-18c-10-115-18-193-24-234-6-38-17-69-35-93-16-23-43-43-82-60-9 22-21 37-37 45s-45 19-88 33l4 15c40-7 73-12 101-15 27-4 47 0 61 14 12 13 21 35 27 67 6 31 15 114 28 250H141l-30-31-54 45 33 25c19 165 31 269 37 312l70-31c7-6 6-10-4-13l-29-16-31-266h111l39 379H82c-16 1-31-1-45-6l-23 32h254l33 33m-43-547 4-18c-93-34-149-57-168-68-20-10-36-23-49-37L0 267l258 70Z"/></symbol><symbol id="驹_G" viewBox="0 0 1000 1000" data-size="21"><path transform="matrix(1 0 0 -1 51 957)" d="m469 591 58-35h121l32 35 49-37c3-3 5-5 5-8 0-4-7-12-23-25V329l4-82c0-10-6-18-18-23-10-6-21-10-33-12v55H516v-45c1-10-4-19-16-26-12-8-23-11-35-11l4 111v295m47-301h148v242H516V290m86 588c4-2 7-4 7-6 2-6 0-10-7-12-16-2-28-11-38-27-13-29-31-62-52-100h291l33 43 55-41c5-4 7-7 7-11s-12-13-37-28V267c2-103-7-168-27-195-18-34-53-57-105-70-6 18-18 33-36 45-18 10-48 20-91 31l3 20c88-20 141-27 159-22 17 6 31 22 41 48 6 33 9 81 11 145v439H496c-34-66-80-133-139-199l-13 8c64 102 107 182 131 238 22 55 42 107 60 158l67-35m-305 0 47-39c5-4 8-9 8-14 0-2-11-10-32-21l-23-354h29l29 31c36-27 55-43 55-46 0-4-10-11-27-22-11-135-19-223-26-262-6-38-17-69-33-92-14-24-42-43-84-59-6 24-15 41-29 51-14 8-44 20-90 37l4 16 107-26c26-4 45 1 55 14 11 12 20 33 26 65 5 31 13 120 23 268H121l-27-29-57 37 35 29c18 148 29 244 32 287l72-29c2-3 3-5 2-8 0-2-3-4-8-6-14-6-24-17-29-31l-28-225h141l21 371H96c-12 0-28-2-47-8l-24 34h245l27 31m-14-565 4-15c-110-40-177-65-201-74s-42-20-55-34L0 247l283 66Z"/></symbol><symbol id="驺_G" viewBox="0 0 1000 1000" data-size="21"><path transform="matrix(1 0 0 -1 52 953)" d="M428 534h215c32 66 66 131 101 195H545c-68-93-128-164-178-210l-13 9c42 59 82 116 119 170 35 54 71 123 109 207 52-25 78-39 78-43v-8c0-1-7-3-19-5-12-1-24-10-36-28-11-16-26-38-42-66h177l30 31c44-36 66-55 66-57 0-1-1-4-2-7-1-4-6-7-16-8s-23-9-39-26c-16-15-52-67-107-154h127l33 41 59-49c4-2 5-5 5-7 0-4-11-14-35-30V132l4-97c0-8-6-15-17-23-12-8-24-12-35-12v76H500c-16 1-35-2-57-8l-25 36h395v194H537c-14 0-29-3-47-8l-21 35h344v182H480l-29-6-23 33M309 862l58-41c7-4 9-9 8-13 0-2-12-12-35-30l-39-328h27l26 31c33-25 50-39 52-43 2-3 2-6 0-9l-27-20c-4-117-8-199-12-246-3-45-14-79-33-102-18-25-49-45-96-61-6 21-16 37-31 47-14 9-44 22-90 39l6 18c41-12 76-19 104-22 27-4 48 1 64 14 15 11 24 36 27 77 3 39 8 123 14 252H129l-25-29-57 44 37 26c14 140 23 231 29 273l71-29c7-6 5-10-4-14l-28-17-25-229h129l39 352H115c-16 0-31-2-45-6l-23 31h230l32 35m-24-533 6-17c-106-47-171-79-195-94-24-13-43-26-55-39L0 231l285 98Z"/></symbol><symbol id="驻_G" viewBox="0 0 1000 1000" data-size="21"><path transform="matrix(1 0 0 -1 39 954)" d="M391 720h400l41 52 64-60c2-3 4-5 4-8 0-8-4-12-13-12H670V435h90l43 50 60-58c2-2 4-5 4-8 0-8-4-12-12-12H670V91h141l43 53 64-60c2-2 3-5 4-10 0-8-5-11-14-11H439c-11 0-33-2-64-8l-18 36h262v316H516c-12 0-34-2-65-8l-17 36h185v257H473c-15 0-37-2-69-7l-13 35m142 174 8 13c41-19 72-39 94-58 22-21 34-39 37-57 2-18-1-31-8-39-7-9-16-12-27-10-12 1-20 11-24 28-4 16-10 35-19 54-9 18-29 41-61 69m-219-40 51-41c5-3 8-8 8-13 1-3-10-10-33-22l-35-338h21l22 30c39-28 60-43 60-47s-4-8-13-12c-10-2-17-10-20-21-10-112-20-190-27-235s-20-79-39-102c-20-24-51-41-94-53-4 22-14 38-29 49-16 10-44 21-84 35l3 17 108-21c31-4 53 0 64 13 11 12 20 36 26 72 6 35 15 117 25 248H146l-33-35-52 49 31 25c19 152 30 250 33 295l76-27c4-3 6-6 6-10-2-4-6-8-12-12-15-6-26-15-31-29l-31-229h127l35 356H96c-12 0-28-3-47-8l-24 33h264l25 33m-35-525 6-16c-112-54-178-87-197-99-20-12-37-24-51-35L0 235l279 94Z"/></symbol><symbol id="驼_G" viewBox="0 0 1000 1000" data-size="21"><path transform="matrix(1 0 0 -1 34 959)" d="m318 872 57-45c5-2 7-6 8-12 0-3-14-13-41-29l-29-342h27l29 34 49-40c5-4 7-7 8-9 0-5-5-9-14-14-10-2-16-8-17-18l-6-140c-4-107-19-174-43-200s-53-45-86-57c-8 18-20 33-37 45s-47 23-92 33l4 18c64-10 108-15 133-16 21 0 38 8 50 24 10 12 18 59 24 141l10 176H158l-21-27-61 41 31 23 28 293 66-29c4-2 5-5 4-8 1-3-3-6-10-10-13-4-21-12-23-23l-20-237h116l33 368H104c-12 0-28-3-47-8l-26 31h262l25 37m-21-553 6-15c-96-38-161-65-196-80-35-14-57-28-66-43L0 239l297 80m545 426 27 35 51-51c8-6 12-11 12-15s-4-6-12-6c-20-3-39-12-57-27s-41-40-68-75l-16 10 59 106H500c-3-24-7-45-14-61-5-14-14-27-27-39-13-10-26-16-39-16-12 0-20 6-25 20-5 12 0 23 13 31 12 8 26 23 41 45 16 22 27 57 33 106h20c1-25 1-46 0-63h340m25-262c7-5 9-11 6-17 0-3-4-4-12-4-13 0-30-5-50-14-90-72-165-127-225-164V120c-1-26 4-42 14-48 9-6 21-9 37-9h142c30 0 48 7 57 21 7 14 12 31 14 52 1 21 4 56 7 103h18c-1-41 1-75 4-101 2-25 12-42 29-52-8-16-19-29-33-41s-36-21-66-25H652c-30 0-52 1-68 5-16 3-27 12-35 28-7 15-10 37-10 65v498l82-33c5-2 8-5 8-8s-2-6-6-10l-37-11V308c78 61 154 135 228 220l53-45M604 919c33-17 59-36 80-57 19-21 29-39 29-54 1-16-3-28-10-37-8-11-17-14-27-10-10 2-16 10-18 23-1 12-6 29-15 53-8 23-25 47-49 70l10 12Z"/></symbol><symbol id="驽_G" viewBox="0 0 1000 1000" data-size="21"><path transform="matrix(1 0 0 -1 30 973)" d="M18 204h566l39 49 65-55c1-2 5-6 9-10 1-6-3-9-11-9H100c-13-1-31-4-55-10l-27 35m652 315 59-45c3-4 5-8 3-12-2-5-13-12-33-22l-23-113h99l28 35 58-47c8-5 7-11-2-17l-27-18c-4-62-8-112-14-148-5-35-17-62-35-83-17-18-47-35-88-49-6 21-17 36-35 45-17 10-49 22-94 37l6 18c74-16 119-23 135-22 16 3 29 8 39 16 9 7 16 23 22 48 5 26 11 79 17 160H285l-23-30-65 43 33 22c19 40 32 72 38 96l64-34c6-4 6-9 0-13-14-3-25-7-33-14l-24-45h352l23 133H215c-12-1-27-4-47-10l-18 35h495l25 34M291 911c6-4 8-6 6-6 2-6-4-10-18-13-13-4-30-28-49-71h127l32 33c37-26 56-40 58-42 2-3 4-6 4-8 0-3-4-6-13-10-11-5-20-14-28-27-8-15-17-31-29-49-11-17-27-40-51-69 29-7 52-18 68-31 17-14 25-27 24-41-2-14-8-23-18-27-9-3-18 0-27 8-8 7-18 17-29 27-10 8-28 19-53 33-37-34-80-62-129-84-49-21-102-41-160-60l-6 15c63 28 115 53 154 76 39 21 73 45 102 73-55 17-102 29-139 37 12 31 29 72 53 123H84c-23 0-42-3-57-8l-17 31h168c15 39 31 80 47 125l66-35M166 690c31-6 70-15 117-27 31 31 59 76 84 135H221l-55-108m195-173c64 25 118 50 160 74 43 23 73 46 92 68-27 28-49 57-66 88-16 31-29 61-41 88h-26l-21-6-23 31h318l25 32 61-53c4-2 6-6 6-12l-14-6c-17-6-30-13-39-23-10-9-24-28-43-57-20-29-45-57-74-84 35-25 66-41 94-51 27-7 54-13 80-17 24-3 54-7 89-10v-19c-27 0-47-4-60-12-12-8-22-18-31-29-30 11-63 26-100 44-36 17-70 40-103 67-30-24-64-45-102-65-38-19-96-41-174-64l-8 16m174 318c17-46 53-97 108-154 41 44 77 95 109 154H535Z"/></symbol><symbol id="驾_G" viewBox="0 0 1000 1000" data-size="21"><path transform="matrix(1 0 0 -1 76 954)" d="m531 854 57-37h168l31 39 51-35c6-4 9-8 10-13 0-4-9-13-26-26V657l4-60c0-9-4-19-13-28-10-8-23-13-40-15v29H580v-6c1-6-3-13-12-19-7-6-21-10-41-12l4 101v207m49-246h193v186H580V608m68-70 61-39c3-2 6-6 8-12 0-4-13-13-39-29l-32-150h106l35 41 53-45c5-4 8-8 8-12-1-3-12-12-34-27-9-103-18-164-25-185-6-19-14-34-25-45-12-10-34-21-65-35-8 21-18 36-31 43-12 8-43 20-92 35l4 19c40-9 71-15 92-19s37-3 49 2c11 5 19 13 23 24s12 70 24 178H273l-27-27-58 43 35 27 23 115 63-27c5-4 9-8 9-10 4-5-7-12-33-21l-19-74h332l35 171H193c-14 0-27-2-39-7l-23 33h486l31 33M12 187h570l41 46 61-50c2-3 3-6 4-10 0-8-4-12-12-12H94c-14 0-36-2-67-8l-15 34m176 574H74c-11 0-29-3-53-8L2 784h189c5 41 8 82 8 123 47-12 72-21 74-27 2-5 0-8-5-10-4-2-12-8-24-17-1-19-3-41-8-69h129l30 35c37-26 56-41 58-45 2-3 2-6 0-7-2-2-12-8-29-18-2-70-7-116-14-137-8-20-17-35-29-45-13-9-31-19-57-29-8 24-17 38-29 45-11 5-30 14-57 25l4 16c33-8 57-14 71-16 11-2 22-1 33 4 9 6 17 16 21 32 2 15 5 54 10 117H232c-8-44-29-92-62-145-34-51-88-101-162-152l-8 15c50 42 92 88 125 139 33 50 53 98 63 143Z"/></symbol><symbol id="驿_G" viewBox="0 0 1000 1000" data-size="21"><path transform="matrix(1 0 0 -1 36 946)" d="M406 390h188v140l78-31c4-1 7-2 8-4 4-4 3-8-2-10l-35-13v-82h99l33 47 61-55c4-2 6-5 6-8 0-8-5-12-14-12H643V237h166l43 45 56-53c2-1 3-4 4-7 0-8-4-12-12-12H643v-92l3-77c0-8-6-17-19-27-14-9-26-14-37-14l4 116v94H432c-12 0-34-3-65-8l-17 35h244v125H488c-11 0-33-2-64-8l-18 36M283 880l57-39c6-5 9-9 8-14 0-2-12-12-35-27l-34-328h14l23 29c36-26 54-41 57-45 2-3 1-6-2-10l-27-17c-10-117-18-198-24-242-6-45-19-79-39-101-19-23-49-44-90-63-7 24-19 41-35 53-15 11-43 23-82 38l4 16c36-11 68-18 96-22s51-1 66 10 26 35 31 72c7 38 15 123 26 256H131l-29-31-57 45 35 25c14 135 23 225 25 270l73-35c7-6 6-11-4-14l-26-12-23-222h107l36 349H76c-16 1-31-1-45-6L8 847h242l33 33m-31-535 6-18c-91-37-145-60-162-70-16-10-33-24-53-41L0 274l252 71m129 140c47 28 88 53 123 77 33 22 62 46 88 72-57 49-100 114-131 197h-41l-20-4-19 29h353l32 36 48-45c14-12 14-21 0-26-8 0-19-5-33-13-34-67-75-124-125-172 26-18 54-33 86-45 31-12 61-20 90-26 29-5 61-9 96-11v-20c-32 0-51-4-59-12-6-7-12-17-19-29-50 18-92 37-127 55-35 17-69 37-100 58-38-31-74-57-109-78-35-19-77-39-127-58l-6 15m103 346c47-82 93-139 139-172 38 40 76 97 113 172H484Z"/></symbol><symbol id="骀_G" viewBox="0 0 1000 1000" data-size="21"><path transform="matrix(1 0 0 -1 41 961)" d="M688 894c11-7 11-13 1-20-17-1-29-7-37-20-6-11-30-48-72-111-41-60-81-115-119-164 119 5 243 12 373 20-14 34-49 89-105 166l11 9c61-54 105-98 131-132 25-34 40-63 45-86 4-24 2-41-6-53-6-12-15-17-29-14-13 2-20 10-22 24-2 13-7 35-15 64-156-15-259-28-309-37-49-8-84-18-105-31l-47 70c21 3 41 14 60 31 60 76 115 180 166 313l79-29M469 448l62-41h248l28 33 64-44c1-2 2-4 2-6 0-4-10-14-31-30V126l4-87c0-8-5-17-14-25-10-7-24-11-43-14v98H521V39c0-9-5-18-17-25-12-8-25-12-39-12l4 124v322m52-324h268v256H521V124M309 890l60-39c7-5 9-10 8-14-1-3-13-12-37-27l-35-360h19l28 24c33-26 50-40 52-43 2-4 2-7 0-10l-27-18c-7-114-12-194-16-238-4-43-15-77-31-102-16-27-44-47-84-61-8 22-19 38-35 49-15 10-44 22-86 37l4 16c39-9 72-15 100-20 27-4 46 1 58 14 12 11 20 35 24 73 3 36 9 120 17 254H137l-32-33-56 43 35 25c16 168 25 273 27 316l77-29c7-6 5-10-4-14l-28-11-25-272h125l35 381H90c-16 1-31-1-45-6l-24 31h254l34 34m-36-555 6-18c-99-42-160-69-181-80-21-9-39-24-55-43L0 255l273 80Z"/></symbol><symbol id="骁_G" viewBox="0 0 1000 1000" data-size="21"><path transform="matrix(1 0 0 -1 33 968)" d="m314 890 57-39c7-5 9-10 8-14-1-3-13-12-37-27l-41-334h8l27 27c34-27 53-43 55-47 2-3 1-6-2-10l-30-17c-7-122-15-203-23-244-6-41-20-72-41-95-21-24-53-44-98-59-8 22-19 39-31 49-12 8-39 20-82 37l4 15c47-11 83-18 107-21 24-2 43 2 59 12 15 7 26 28 33 64 7 35 16 123 26 263H146l-29-31-56 45 37 25c15 143 25 237 29 282l70-32c7-6 6-10-4-13l-23-16-27-234h111l41 355H92c-16 1-31-1-45-6l-24 31h258l33 34m-56-526 6-19c-69-28-118-49-147-65-29-14-53-30-70-49L0 288l258 76m568 469 70-45c8-12 4-18-11-19l-283-41c7-38 23-77 48-116 60 35 109 70 149 104 35-31 53-49 53-53s-1-6-4-8c-4-2-11-2-22 0-10 2-26-4-49-17s-56-31-99-55c29-28 56-48 82-61 25-11 47-19 64-23 16-5 27-3 31 6s8 21 12 37c2 14 7 46 16 98l17-2c0-32 0-60-2-84 0-26 2-45 6-57 5-11 11-20 20-27 8-7 11-12 10-16 0-4-3-6-8-8-6-2-18-4-35-4-19 0-43 4-73 12-29 6-60 18-93 35-34 17-65 41-92 73-76-40-149-70-217-90l-4 15c59 25 125 60 199 104-25 30-43 74-54 131l-110-18c-14-3-27-8-39-16l-29 38 168 21c-12 79-16 142-12 190l80-28c6-4 8-8 6-12-1-1-12-7-33-17-3-24 1-67 10-127l205 31 23 49M699 356V138c0-26 4-42 14-46 9-3 23-6 43-8h49c15 1 27 5 37 14 8 8 13 21 15 38s6 56 10 117h18c2-57 5-94 10-111s15-29 29-37c-12-22-24-39-35-48-12-8-28-14-47-18H727c-30 1-51 9-61 22s-16 33-16 58v237h-84c-5-72-16-128-33-169-16-41-45-78-86-109-41-30-98-57-172-78l-5 16c68 29 120 60 156 93 34 32 57 67 68 105 11 36 18 84 20 142h-88c-8 0-18-3-30-7l-19 33h394l40 45c41-34 61-54 62-61 0-6-4-10-12-10H699Z"/></symbol><symbol id="骂_G" viewBox="0 0 1000 1000" data-size="21"><path transform="matrix(1 0 0 -1 65 954)" d="m94 907 51-35h189l31 31 47-39c6-4 9-8 10-11 0-4-10-13-29-26v-76l3-63c0-9-5-18-17-25-10-6-22-9-35-8v35H143v-13c0-8-6-16-18-24-12-6-23-8-35-7l4 99v162m49-191h201v131H143V716M0 216h545l35 47 59-51c2-3 5-6 9-10 1-6-3-10-11-10H82c-12 0-31-4-55-9L0 216m662 394 55-39c6-4 9-8 10-13-1-2-12-10-34-24l-37-187h121l30 43c41-34 61-53 62-57s-10-12-33-25c-10-89-18-149-23-180-4-31-17-57-38-79-19-21-54-37-105-49-4 20-14 35-29 43s-47 23-98 45l8 15c75-21 123-31 144-31 20 2 35 8 47 18 10 9 18 24 24 46 4 22 11 85 23 189H273l-31-21-47 50 34 16c19 68 33 123 41 164l68-31c2-4 3-7 2-8 0-2-1-4-4-6-11-4-22-11-33-23l-35-119h339l38 205H174c-12 0-28-3-47-8l-18 33h530l23 33M527 899l59-35h164l31 33 43-33c6-4 9-8 10-11 0-4-8-13-25-26v-82l4-62c0-13-7-22-20-28-12-6-23-8-33-8v36H576v-10c0-7-6-14-17-22-10-6-22-9-36-7l4 111v144m49-191h184v131H576V708Z"/></symbol><symbol id="骃_G" viewBox="0 0 1000 1000" data-size="21"><path transform="matrix(1 0 0 -1 36 942)" d="m426 878 58-39h342l35 45 63-53c2-5 3-8 4-10 0-4-11-13-33-27V142l3-99c2-8-3-16-17-23-12-8-24-13-37-16v86H477V49c0-11-6-22-18-31-12-10-25-15-37-16l4 114v762m51-762h367v696H477V116m17 473h137v182l80-32c3-2 3-6 2-10 1-1-1-3-4-5l-29-14V589h56l34 45 50-55c2-2 4-4 4-8 0-6-4-9-11-9H680c-2-38-6-73-12-108 30-32 54-58 72-80 18-20 33-41 43-62 11-23 13-41 6-57-6-17-16-25-29-24-14 0-22 12-26 34-4 21-11 47-23 76-12 28-28 57-49 86-8-43-25-85-49-125-23-40-55-78-97-115l-12 9c25 32 47 66 66 104 19 37 34 77 43 121 10 43 16 90 18 141h-70c-13 0-30-3-51-8l-16 35M291 882l57-39c6-5 9-9 7-14 0-3-13-12-37-27l-23-350h14l27 24c33-26 51-40 53-43 2-4 1-7-2-10l-28-18c-9-131-18-215-25-254-8-38-20-69-35-92-14-24-41-44-82-59-8 23-20 38-35 47-15 8-46 20-92 37l4 15c43-9 78-15 105-19 28-4 47 1 59 14 12 10 21 31 27 63 5 31 14 121 26 270H125l-29-31-55 44 35 26c11 157 17 258 20 301l74-30c7-6 6-10-4-13l-27-10-18-262h127l23 371H68c-16 1-31-1-45-6L0 849h258l33 33m-6-572 4-16c-110-39-177-65-201-76-24-9-42-20-55-33L0 241l285 69Z"/></symbol><symbol id="骄_G" viewBox="0 0 1000 1000" data-size="21"><path transform="matrix(1 0 0 -1 22 951)" d="M676 817c-12-57-26-107-43-150h199l39 45 51-49c1-2 4-4 8-8 2-8-1-11-8-11H727c11-36 25-67 43-92 16-26 43-51 78-74 34-23 69-37 107-43v-16c-17 0-34-1-49-2-13-1-28-8-43-21-29 23-54 46-76 70-19 23-35 47-47 70-11 23-24 59-39 108h-76c-33-73-68-132-105-178-38-45-78-86-120-123l-11 11c30 34 63 75 97 124 35 46 65 101 90 166h-99c-15 0-38-3-69-8l-13 31h189c15 41 27 89 37 145-68-6-135-11-203-14l-2 17c98 11 183 23 256 38 71 14 130 30 178 48 33-39 48-61 46-66-1-5-5-6-11-4l-18 6c-6 2-23 1-49-2-25-4-73-10-142-18M527 462l78-25c2-2 4-4 4-6 2-3 2-6-2-8l-31-18v-82c-2-94-23-163-62-207-38-43-96-81-174-116l-8 12c72 45 123 89 154 134 30 44 43 101 41 169v147m203-10 79-29c7-7 7-12-2-16l-30-15V149l4-98c1-12-5-22-17-30-12-7-24-11-37-11l3 136v306M320 888l49-43c6-4 9-9 10-14 0-3-11-10-31-21l-47-342h17l28 33c35-30 52-47 52-51 0-3-10-10-31-21-8-135-15-221-21-258-4-37-18-67-41-89-22-24-56-42-102-55-4 22-14 37-29 47-14 11-41 23-80 38l4 16 103-29c31 0 54 6 69 19s25 33 31 61c4 28 11 116 21 265H148l-31-29-53 43 30 21c21 155 33 252 37 293l66-35c3-2 4-5 2-8 0-1-2-3-6-5l-23-10-35-246h123l45 359H115c-12 0-27-2-45-8l-23 34h244l29 35m-49-555 6-16c-106-33-170-55-191-66-22-10-38-20-49-31L0 274l271 59Z"/></symbol><symbol id="骅_G" viewBox="0 0 1000 1000" data-size="21"><path transform="matrix(1 0 0 -1 38 967)" d="M375 282h232v137l82-29c5-3 8-4 8-4 2-4 2-8-2-12l-37-18v-74h164l39 45 59-53c2 0 3-2 4-5 0-8-5-12-14-12H658V130l4-81c0-14-6-25-17-33-10-8-24-13-41-16l3 138v119H451c-12-1-29-4-53-10l-23 35m295 649c45-20 72-32 82-37 2-6-1-11-8-14l-25-12V687c27 25 50 46 68 64 16 18 37 41 65 70 37-31 54-49 52-54-1-4-4-6-9-6h-16c-6 0-22-11-49-32-25-20-62-49-111-85V511c0-24 4-36 11-37 8-2 16-3 24-2h68c22 0 35 9 39 27 4 17 6 55 8 113h18l4-52c1-38 11-60 31-67-6-17-16-32-29-45-14-11-32-17-53-17h-88c-20 0-35 2-47 6-12 3-21 11-27 23-5 10-7 27-8 51v103c-41-24-78-45-111-62l-8 15c46 30 86 58 119 86v278m-377-37 57-40c6-4 9-9 7-13 0-3-13-12-39-28l-21-349h16l27 29c33-29 51-45 53-49 2-3 1-6-2-9l-28-18c-6-115-11-194-15-236-4-43-14-74-30-95-13-22-41-39-82-53-7 22-19 37-35 47-15 10-45 22-88 35l4 15c40-7 74-12 102-17 27-4 47 1 58 13s19 34 22 66c2 32 8 114 17 246H145l-30-29-56 43 37 26c9 164 15 266 19 308l74-29c6-7 4-13-5-16l-26-15-17-262h107l25 371H102c-17 1-32-1-45-6l-24 31h227l33 34m-27-563 4-16c-98-34-159-57-182-68-23-10-40-21-51-35L0 274l266 57m326 566c4-3 5-6 4-7 2-2 0-5-6-8-18-1-31-11-41-28-10-15-28-45-55-89l43-24c6-2 9-4 10-8 4-4-5-10-26-19V540l4-88c1-8-6-17-21-29-14-11-25-15-35-14l4 102v224c-43-70-90-127-141-172l-12 12c37 48 75 104 112 166 37 63 68 127 93 194l67-38Z"/></symbol><symbol id="骆_G" viewBox="0 0 1000 1000" data-size="21"><path transform="matrix(1 0 0 -1 27 961)" d="m484 382 55-31h213l33 33 47-37c6-4 9-8 10-12 0-3-9-10-26-22V132l4-87c0-10-6-19-17-25-12-8-24-13-37-16v70H531V37c0-8-6-16-17-23-10-9-22-13-35-14l3 132v248l2 2m47-284h235v229H531V98m86 790c2-2 3-4 4-6 2-3 0-5-6-8-10-2-19-6-27-14-7-6-21-28-43-66h211l33 37 57-53c6-4 8-7 6-7 2-6-3-10-14-12s-19-5-25-10c-6-6-15-20-28-43-13-21-26-43-39-64-14-21-36-50-66-86 19-25 44-48 74-69 28-20 54-35 78-45 24-9 62-18 113-27v-18c-23 1-41-1-54-5s-24-15-34-32c-29 19-60 40-93 63-32 21-69 55-112 99-32-33-69-62-109-87-39-26-92-56-160-90l-10 13c52 34 98 64 137 92 37 27 75 61 115 102-45 59-81 126-107 201-36-72-77-135-125-188l-14 10c39 69 72 130 100 186 25 54 48 108 68 162l70-35m-84-116c35-76 74-138 117-187 21 25 41 54 61 86 18 30 33 64 47 101H533M301 882l53-39c5-4 9-9 9-14 0-2-10-10-31-23l-51-340h22l29 31c36-29 55-46 55-49 0-4-10-12-30-25-13-132-24-217-31-256-6-38-17-69-35-93-16-23-46-42-90-56-2 19-11 33-25 41s-41 20-82 37l4 13c67-15 108-21 125-17 16 4 28 13 37 26s16 33 21 61c5 27 16 115 32 263H125l-33-35-47 47 29 25c15 141 24 234 28 280l70-35c2-4 3-7 2-8 0-1-3-3-8-4-12-4-20-14-23-29l-24-217h119l45 359H100c-12 0-28-2-47-8l-20 34h246l22 31m-43-547 6-16c-97-37-156-62-178-72s-39-21-51-33L0 271l258 64Z"/></symbol><symbol id="骇_G" viewBox="0 0 1000 1000" data-size="21"><path transform="matrix(1 0 0 -1 36 961)" d="M652 710c4-2 6-4 8-6 1-6-4-10-15-12-14-4-34-19-59-45-24-24-65-64-121-121l213 12c19 31 40 70 62 115l55-33c10-6 14-10 12-14-3-3-8-6-16-7-8-2-14-5-20-10s-17-20-33-45-38-57-66-94c-27-36-67-76-117-121s-106-85-168-119l-8 12c57 42 100 78 129 109 29 29 56 59 82 88 25 27 51 60 76 100-69-10-119-18-150-24s-56-15-75-25l-35 60c16 4 28 8 35 12 8 5 28 27 61 66s62 82 90 129l60-27m168-313c-7-1-18-8-31-19-35-55-76-107-123-158 63-32 107-57 133-76 25-19 44-37 56-54 11-16 15-31 12-47-4-16-12-23-25-23-14-1-26 9-35 29-9 22-25 46-49 73s-58 55-102 86c-49-46-97-84-146-116-48-31-110-62-186-92l-8 14c55 25 110 57 164 95 53 38 99 79 139 122 39 43 69 79 90 110 19 29 39 68 61 115 42-26 64-41 66-45v-8c-1-2-6-4-16-6M553 911l8 12c43-16 74-31 93-47 19-14 29-29 32-45 2-16-1-27-8-35-7-9-17-12-28-10-10 2-17 12-21 29-4 18-12 35-24 51-11 16-29 31-52 45M367 771h453l43 50 61-60c2-2 3-5 4-8-1-6-6-9-16-8H447c-19 0-39-2-58-8l-22 34m-47 105 43-39c5-4 8-9 8-14 1-2-10-10-33-23l-33-342h23l29 31c32-27 49-43 49-47s-10-11-31-23c-8-130-16-213-21-250-7-35-18-65-34-91-16-25-47-45-91-58-4 19-13 33-28 43-13 7-43 19-90 35l6 14 108-20c27-2 46 4 58 18 13 14 21 36 26 65 5 28 12 115 21 260H145l-32-34-50 45 29 26c17 142 28 236 33 281 43-20 66-31 68-35 2-3 2-7-2-10-2-2-6-4-13-6-6-2-11-8-14-15l-29-229h125l33 359H102c-12 0-28-2-47-7l-24 33h254l35 33m-41-531 4-14c-109-44-174-73-193-86-20-12-35-23-45-35L0 267l279 78Z"/></symbol><symbol id="骈_G" viewBox="0 0 1000 1000" data-size="21"><path transform="matrix(1 0 0 -1 25 958)" d="M477 917c74-40 118-71 130-92s15-40 10-54c-6-14-15-22-27-24-11-1-18 2-22 8s-8 17-13 33c-4 16-13 33-26 53-13 17-34 38-60 62l8 14m361-35c6-4 9-6 10-6 4-7-3-12-20-16-16-2-35-19-57-52-20-32-39-59-56-82h109l33 45 61-53c2-2 3-5 4-8 0-7-4-10-12-10H773V450h81l35 51 56-61c2-2 4-4 4-7 0-7-4-10-13-10H773V130l4-91c0-11-8-19-25-25-16-8-27-12-35-12l6 130v291H576c-1-120-18-207-51-262-32-54-87-108-168-161l-9 16c64 50 110 103 138 159s41 138 39 248h-60c-18 0-34-3-49-8l-18 35h127v250h-35c-21 0-41-2-60-8l-22 34h280c23 41 52 103 87 187l63-31M723 452v248H576V452h147M297 886l58-39c7-5 10-9 8-14 0-3-13-12-37-27l-41-344h18l33 37c33-30 51-47 53-51 2-3 1-6-2-10l-24-15c-6-123-11-204-17-244-5-39-17-70-37-95-18-25-47-45-88-61-8 25-20 41-35 51-16 8-43 18-82 31l3 17c39-7 71-13 96-17 25-3 45-1 61 8 15 9 25 32 31 68 6 34 12 119 18 256H117l-33-34-55 47 35 26c18 146 29 241 34 285l70-30c7-5 6-10-4-13l-23-14-32-242h129l41 365H88c-16 0-30-2-43-8l-25 34h250l27 33m-31-559 5-19c-99-43-158-69-177-79-20-9-36-22-49-39L0 247l266 80Z"/></symbol><symbol id="骉_G" viewBox="0 0 1000 1000" data-size="21"><path transform="matrix(1 0 0 -1 32 972)" d="M27 659h530l39 35 45-37c2-2 5-6 9-11 0-9-4-12-11-10H109c-13 0-35-2-64-6l-18 29m590 285 51-39c5-4 8-8 8-13 0-2-11-8-31-18l-10-109h105l33 41c43-32 65-50 65-55-1-4-12-12-33-25-5-26-8-53-10-80-2-28-10-51-25-71-14-17-40-33-79-47-5 19-16 34-31 43-15 8-43 17-82 28l4 17c66-12 107-17 121-15s25 7 31 17c6 11 10 24 12 39 2 13 5 41 10 84H270l-32-27-49 41 26 19c7 29 12 57 14 84l66-27c3-2 3-4 2-6s-2-4-4-6c-14-4-22-6-23-7l-10-47h324l12 125H162c-12 0-27-3-47-8l-17 33h494l25 29M453 214h279l36 35 45-37c1-2 5-6 9-12 0-8-4-12-11-10H531c-10 1-28-2-54-9l-24 33m317 324 50-35c6-4 8-9 8-14 0-2-10-10-31-21l-10-153h55l33 41c40-31 60-49 61-54-1-4-12-13-34-26-6-76-13-129-23-157-8-30-20-54-35-72-14-18-40-33-78-47-6 20-17 33-32 41s-43 18-82 27l4 18c67-12 108-17 123-16 14 2 26 9 35 20 9 10 15 24 20 40s12 70 21 162H586l-31-27-49 41 25 19c10 66 16 112 18 139l68-27c3-2 3-4 2-6s-2-4-4-6c-13-4-21-7-23-8l-16-102h164l12 172H525c-11 0-27-2-46-8l-18 34h283l26 25m-434 4 51-35c5-4 8-9 8-14 0-2-11-10-32-21l-13-164h31l33 41c43-32 65-50 65-55-1-4-12-12-34-25-6-69-13-118-23-146-8-30-20-54-35-72-14-18-40-33-78-47-6 19-17 32-32 41-15 8-43 18-82 27l4 18c67-12 108-17 123-16 14 2 26 9 35 20 9 10 15 24 20 40 5 15 12 66 21 150H160l-31-27-49 41 25 19c10 74 16 124 18 151l66-28c3-2 4-3 2-5 0-2-2-4-3-6-14-4-22-7-24-8l-14-113h153l15 183H100c-12 0-28-2-47-8l-18 34h276l25 25m19-326 8-18c-143-27-230-45-259-54-28-11-49-25-65-42L0 167l355 49Z"/></symbol><symbol id="骊_G" viewBox="0 0 1000 1000" data-size="21"><path transform="matrix(1 0 0 -1 38 938)" d="M367 827h453l37 49 65-59c1-2 2-4 2-5 0-8-3-12-10-12H449c-13 0-36-3-68-8l-14 35m14-113 55-37h91l30 37 50-39c6-2 10-6 10-12 0-4-10-12-29-23V103c0-31-6-53-18-66-11-13-27-22-47-27-4 22-15 37-33 45-16 8-29 13-39 17l4 18c18-4 33-7 47-10 12 0 23 1 31 2s11 11 10 30v539H426V120l4-81c0-9-7-18-22-25-13-8-24-12-31-12l4 120v592m265-2 55-37h104l29 37 47-39c6-2 9-6 10-12 0-4-9-12-26-23V90c2-31-4-53-15-65-12-11-28-19-49-23-7 16-16 29-28 37-11 8-28 16-48 24l4 17c26-6 44-10 54-12s19-1 28 2c7 5 11 14 9 29v550H691V134l4-93c1-9-6-18-21-27-14-9-24-14-31-14l3 130v582M439 511l16 8c31-46 51-81 59-104 6-23 9-41 9-53 0-11-3-22-9-31-7-9-16-13-28-12-11 2-17 12-17 32v60c0 20-10 53-30 100M275 870l57-39c7-5 9-9 8-14-1-2-13-11-37-27l-35-334h13l24 25c28-21 45-35 49-41 3-3 3-6 0-9l-24-18c-8-135-15-221-19-260-4-37-15-67-32-89-17-21-45-41-86-58-8 23-19 39-33 47-12 8-37 19-74 35l4 15c33-8 62-13 88-17 25-4 45-2 58 7 14 10 23 30 28 62 4 32 11 123 21 276H127l-29-32-55 45 33 26c10 148 16 244 18 287l72-29c7-6 6-11-4-14l-23-12-18-246h102l35 356H86c-16 0-31-2-45-6l-23 31h224l33 33m-25-549 4-17c-84-31-137-52-158-63-22-10-41-21-57-35L0 263l250 58m459 192 16 8c31-46 50-81 58-104 6-23 9-41 10-53-1-11-4-22-10-31s-15-13-27-12c-12 2-18 12-18 32v60c0 20-9 53-29 100Z"/></symbol><symbol id="骋_G" viewBox="0 0 1000 1000" data-size="21"><path transform="matrix(1 0 0 -1 45 969)" d="m424 841 60-41h125v138l80-27c2-2 4-4 4-6s-2-4-5-8l-28-17v-80h110l37 37 50-45c4-2 6-4 6-6 1-4-8-14-27-27V569l6-70c0-8-6-16-18-23-12-8-25-12-39-12v31H475v-10c0-7-6-15-18-23-12-7-24-9-37-8l4 100v287m51-319h134v112H475V522m185 0h125v112H660V522M475 661h134v111H475V661m185 111V661h125v111H660M367 407h455l33 45 51-55c2 0 4-1 4-5 0-7-4-10-12-10H576l-25-94h197l31 33 57-41c4-3 5-6 4-9s-4-6-10-10c-10-5-16-12-19-22l-18-97c-10-39-24-72-43-97-20-22-51-37-92-45 0 18-7 30-19 37-13 7-41 20-86 39l6 16c66-18 106-25 121-22 14 3 26 10 37 22 10 11 19 29 27 54 7 25 13 64 20 117H555l-32-28-56 41c21 9 35 22 41 37l15 69h-68c-16-1-38-4-66-10l-22 35m-74 498 53-39c5-4 8-8 8-13 0-2-11-10-32-24l-45-361h20l33 29c32-26 48-41 49-45-1-4-6-8-16-14-9-4-14-11-15-21-11-128-19-211-26-250-6-38-19-68-39-91-18-21-49-39-92-53-3 21-13 35-29 43-14 8-41 20-82 36l4 16c68-15 109-21 123-18 14 2 27 8 39 18s21 29 27 59c6 28 15 117 28 265H133l-31-31-55 47 31 23c22 150 35 247 39 290l74-30c4-4 4-8-2-12 0-1-2-2-7-3-14-9-22-17-26-26l-35-232h111l43 381H105c-11 0-27-3-46-8l-24 33h236l22 31m-35-562 4-16c-121-43-186-68-194-74-7-6-16-14-27-24L0 290l258 53Z"/></symbol><symbol id="验_G" viewBox="0 0 1000 1000" data-size="21"><path transform="matrix(1 0 0 -1 28 957)" d="M396 517h309l35 43 49-49c2-2 4-5 6-8 0-8-4-12-12-12H473c-14 0-34-2-61-8l-16 34m346-79 71-33c3-2 5-4 5-8 3-4 1-7-5-9-15-5-28-19-40-43-11-24-26-61-43-112-18-51-39-107-62-169h113l37 46c45-37 67-59 67-65 0-7-4-9-12-8H416c-24-2-43-5-57-10l-17 37h299c26 83 46 150 60 201 14 48 28 106 41 173m-328-21c40-55 67-100 80-135 14-35 19-62 16-82-2-19-8-33-18-41-8-6-17-7-27-2-9 4-13 20-12 47 0 27-2 55-8 84s-21 70-45 123l14 6m131 18c43-62 70-109 80-139 10-31 13-57 10-76-3-20-8-33-16-41-8-7-17-7-27-2-11 4-15 19-14 47 2 27 0 54-6 82-4 27-19 68-43 123l16 6m115 441c1-4 2-7 2-8 1-4-8-8-27-14 25-47 49-87 72-121 23-32 56-61 98-89 40-28 86-49 138-61v-18c-28 2-47 0-56-5-8-6-18-15-30-26-39 28-71 53-95 76-24 22-47 50-71 84-22 34-47 84-74 149-43-71-84-132-125-184-39-51-96-103-170-158l-9 12c62 60 114 121 156 181 40 62 80 134 119 219l72-37m-377-20 53-39c5-4 8-8 8-13 0-3-11-10-31-22l-36-342h16l25 30c32-28 49-43 49-47s-8-12-25-24c-9-117-16-199-22-244s-19-78-39-100c-17-23-51-41-99-55-4 20-13 35-28 45-13 9-41 20-82 33l6 18 106-22c29-2 50 5 64 22 14 15 23 39 27 73 6 31 12 113 20 244H129l-33-35-53 49 33 25c13 149 22 244 26 287l68-27c2-3 3-6 4-10-1-2-4-4-10-8-12-4-19-13-23-27l-20-227h111l36 360H94c-12 0-28-3-47-8l-24 33h237l23 31m-35-546 6-16c-91-35-146-59-166-70-20-12-37-24-51-36L0 245l248 65Z"/></symbol><symbol id="骍_G" viewBox="0 0 1000 1000" data-size="21"><path transform="matrix(1 0 0 -1 33 965)" d="m777 759 39 53 67-61c2-3 3-6 4-10 0-6-4-10-12-10H488c-13 0-36-2-66-7l-16 35h371m-291-53c65-47 102-82 112-103 9-21 13-38 9-51-2-14-7-24-15-30-8-5-16-7-26-5-9 2-15 11-17 29-2 17-8 38-18 62-9 24-28 52-56 86l11 12m274 4 56-33c10-6 14-11 14-14 1-4-2-8-10-10-15-4-30-15-45-35l-87-133h142l37 51 63-57c2-2 3-5 4-9 0-8-4-12-12-12H674V296h121l33 53 63-59c2-1 3-5 4-10 0-8-4-11-12-11H674V126l4-81c0-10-7-20-20-29-14-9-27-15-39-16l4 120v149H494c-14 0-36-3-66-8l-16 35h211v162H467c-14 0-36-3-67-8l-23 35h281c44 85 78 160 102 225M549 917l6 14c45-20 75-37 91-53s25-31 28-43c2-12 1-22-2-31-4-10-10-17-18-20-8-2-15-2-21 0-7 3-12 11-16 26-4 13-8 27-13 43-5 13-23 35-55 64m-258-37 57-39c6-5 9-9 7-14 0-2-13-12-37-27l-23-350h14l27 24c33-26 51-40 53-43 2-4 1-7-2-10l-28-18c-9-115-18-192-25-230-8-39-20-70-35-93-14-24-41-44-82-60-8 24-20 40-35 48s-46 20-92 36l4 16c43-10 78-16 105-18 28-4 47 0 59 12s21 33 27 65c5 31 14 113 26 246H125l-29-31-55 44 35 26c11 157 17 258 20 301l74-30c7-6 6-10-4-13l-27-10-18-262h127l23 371H68c-16 1-31-1-45-6L0 847h258l33 33m-6-549 4-16c-110-39-177-64-201-76-24-9-42-20-55-33L0 263l285 68Z"/></symbol><symbol id="骎_G" viewBox="0 0 1000 1000" data-size="21"><path transform="matrix(1 0 0 -1 26 954)" d="M438 864h353l33 39 55-39c5-4 8-8 8-11 2-5-9-14-32-28V649l4-68c0-10-7-18-21-23-12-7-24-10-33-10v43H514c-16 0-32-3-49-10l-26 35h366v104H547c-16 0-30-3-43-8l-27 33h328v94H504c-13 0-28-3-45-8l-21 33M320 14c49 19 104 45 164 76 59 30 103 59 133 87-57 63-94 120-109 172h-18l-19-8-26 33h313l23 27 61-45c6-3 8-7 6-11 0-2-4-5-12-8-6-1-14-3-25-8-16-19-36-44-59-72-22-30-46-57-72-80 17-17 41-33 70-51 29-16 57-28 84-38s64-15 113-16V53c-37-2-60-7-70-16-8-8-14-17-20-27-46 19-87 43-123 70-34 24-63 47-86 69-35-29-82-58-142-86-59-28-119-49-180-63l-6 14m211 335c23-54 61-103 114-149 52 54 91 104 117 149H531m321 154 33 35c39-33 60-53 60-59 0-4-4-7-13-9-19-2-36-10-51-24-16-11-33-29-51-52l-17 7 42 77H477c-2-28-7-49-14-65s-16-25-27-29c-11-5-20-4-28 2-8 5-12 12-10 21 0 8 6 17 18 28 10 9 19 23 27 41 6 18 11 42 16 72h20c1-11 1-26 0-45h373M291 907l57-39c6-4 9-9 7-14 0-2-13-11-37-27l-23-349h14l27 23c33-25 51-40 53-43s1-7-2-10l-28-17c-9-131-18-215-25-252-8-38-20-68-35-91-14-24-41-44-82-61-8 24-20 41-35 49s-46 20-92 36l4 16c43-10 78-16 105-20 28-4 47 0 59 14 12 12 21 33 27 63 5 29 14 118 26 267H125l-29-31-55 45 35 25c11 158 17 258 20 301l74-29c7-6 6-11-4-14l-27-10-18-261h127l23 371H68c-16 0-31-2-45-6L0 874h258l33 33m-6-549 4-15c-110-39-177-65-201-76-24-10-42-21-55-34L0 290l285 68Z"/></symbol><symbol id="骏_G" viewBox="0 0 1000 1000" data-size="21"><path transform="matrix(1 0 0 -1 46 969)" d="M607 515c4-2 6-4 6-6 2-2 0-5-6-10-13-3-25-10-35-21-8-10-23-32-47-69h190l33 33 49-43c6-4 8-7 6-7 1-6-4-11-16-16-10-6-19-14-27-23-9-10-22-32-39-65-17-31-42-65-75-101 25-22 49-38 73-49 23-11 45-21 66-31 22-9 63-17 123-25V64c-25 1-43-1-56-7-14-6-26-15-36-28-25 11-53 26-84 45-30 18-67 46-113 85-43-37-90-69-140-95-51-24-111-45-178-64l-8 16c66 25 123 51 170 78 47 26 90 57 129 93-42 50-74 107-98 169-25-39-66-85-123-140l-12 12c41 50 77 102 106 156 28 53 55 105 78 158l64-27m-91-129-8-14c31-61 68-115 109-160 39 45 72 103 102 174H516m82 552c40-25 62-39 66-42 2-5 1-8-2-10-2-3-10-5-21-8s-26-14-45-33c-20-20-73-67-158-139l343 14c-29 37-62 71-99 103l9 12c59-35 101-63 127-84 24-21 39-40 47-57 6-17 6-31 0-41s-13-15-23-15-18 6-24 17c-4 11-11 28-23 49-158-17-256-28-293-33s-65-12-86-22l-37 71c25 2 45 9 60 23 61 52 114 117 159 195M492 550c-26-21-66-48-119-80l-12 13c63 49 116 102 159 161 39-23 57-37 56-43 0-6-2-9-8-8-4 0-11-2-21-6-10-3-28-15-55-37m182 68c35-13 69-28 103-45s57-34 71-49c13-15 19-30 15-43-4-11-11-18-23-19-10-3-20 4-29 19-10 16-25 34-45 53-22 20-55 44-100 72l8 12M285 896l43-42c6-3 9-8 10-13 0-2-11-10-31-24l-41-349h27l27 29c30-28 45-44 45-49 1-4-8-11-27-23-12-126-22-209-29-248-9-39-22-68-39-89-18-22-49-40-94-57-5 20-14 35-28 45-13 9-39 20-76 33l4 15c64-15 104-22 119-20s28 9 39 20c12 10 22 29 30 57 7 27 17 114 31 261H125l-25-31-49 37 27 30c12 152 19 249 22 291l68-30c3-4 3-8 2-10 0-1-3-3-8-5l-21-16-20-240h104l37 369H94c-12 0-28-3-47-8l-24 33h233l29 34m-45-542 6-15c-115-52-176-80-183-86-8-5-18-12-30-22L0 282l240 72Z"/></symbol><symbol id="骏_H" viewBox="0 0 1000 1000" data-size="21"><path transform="matrix(1 0 0 -1 46 953)" d="M78 742c35-4 66-11 93-18 4-3 7-7 7-11 0-7-6-12-17-16-14-3-29-5-43-7-7-50-14-96-22-139-7-35-13-67-19-96h148l46 356H132c-52 0-84-3-95-7l-17 42c26-6 63-8 112-8h121l41 34c21-18 39-35 52-52 2-4 4-7 4-11 0-5-5-10-15-14-8-3-16-5-25-8l-39-332h24l36 32c23-13 40-26 53-38 5-6 8-11 8-13 0-8-13-17-38-27-4-75-11-139-19-191-9-54-18-94-27-119-10-23-21-40-32-50-12-13-25-24-40-31-12-7-22-10-29-10 0 10-2 17-6 23-5 7-32 20-80 38l5 21c45-11 75-17 90-17 9 0 17 2 24 6 6 2 11 7 16 16 6 9 13 26 20 51 7 23 13 58 18 104 6 45 11 104 14 178H71c0-2-1-3-1-4-4-9-13-14-27-14-17 0-25 5-25 14l1 8c2 4 6 19 12 46 9 35 16 69 23 100 6 31 11 62 15 92 5 30 8 54 9 72m176-422 4-21c-27-20-50-37-70-49-23-13-44-24-64-34-18-11-38-19-59-27-7-24-13-36-17-36-5 0-21 28-48 82 31 5 59 11 83 19 23 6 49 14 76 25 28 10 59 24 95 41m339 586c31-10 58-21 80-31 4-4 6-8 6-12 0-6-6-10-18-12-13-3-22-4-28-4-14-26-30-50-48-74-18-22-36-42-55-59-14-13-30-25-47-37 19 1 35 2 49 4 39 2 82 5 129 9 39 4 82 8 131 14l-16 19c-17 19-40 38-69 59l12 15c41-20 74-40 98-61 22-16 38-32 48-48 7-12 11-24 11-35 0-19-7-28-21-28-6 0-12 2-17 5s-11 11-17 23c-5 11-10 20-15 29-43-9-82-17-117-23-42-7-82-13-120-18-35-6-73-10-112-14-7-24-13-36-18-36s-21 27-47 82l54 2c22 21 41 41 57 58 14 18 27 37 40 57 12 22 23 41 32 60 8 17 14 35 18 56m123-285c45-22 81-45 106-68 24-18 41-36 52-54 8-13 12-26 12-38 0-21-8-31-23-31-6 0-13 2-19 6-5 3-11 11-17 25-15 32-32 59-50 78-18 22-43 44-74 66l13 16m-206-6c29-13 53-25 72-37 4-2 6-6 6-10 0-5-3-8-10-10-11-4-21-7-30-7-9-14-18-27-27-40-11-14-22-27-35-38-10-12-23-24-38-36-14-12-29-23-46-34l-13 14c18 18 33 36 46 53 13 16 24 33 35 51s20 36 26 51c7 15 11 30 14 43m27-123c64-13 96-25 96-35s-18-16-54-18c-8-18-17-35-26-50h180l40 34c23-17 41-32 55-46 5-4 8-9 8-14 0-4-5-9-14-14-9-6-21-11-34-14-29-56-57-100-84-131-14-17-27-33-40-46 10-8 21-16 32-23 26-18 56-34 90-49 36-14 77-25 122-35l-3-18c-24-3-41-14-51-32-43 15-81 31-114 49-30 15-57 33-81 54-10 8-20 17-28 26-27-19-55-36-85-52-34-17-68-31-102-44-37-14-78-26-125-34l-6 17c57 16 99 30 125 43 26 11 57 26 95 45 25 15 49 33 72 52-5 6-10 12-14 19-23 30-42 63-56 98-10 21-17 41-21 61-18-22-36-41-56-58-25-22-50-40-75-54l-12 20c25 21 45 38 60 52 13 14 28 34 45 59 13 19 26 42 38 68 8 20 16 43 23 70m-6-135c8-29 19-56 34-81 17-32 36-60 58-84 3-3 7-6 10-8 17 19 34 42 51 67 22 31 42 67 57 110H534c-1-1-2-2-3-4Z"/></symbol><symbol id="骐_G" viewBox="0 0 1000 1000" data-size="21"><path transform="matrix(1 0 0 -1 43 958)" d="M355 751h110v164l78-31c2-3 3-5 4-8l-6-6-27-14V751h203v166l76-29c4-3 6-6 6-8l-6-6-27-16V751h43l35 45 54-55c2-2 4-4 4-8 0-6-4-9-13-9H766V286h48l36 47c43-36 64-57 64-62 1-7-3-10-10-10H414c-14 0-29-3-45-8l-17 33h113v438h-47c-14 0-28-2-43-6l-20 33m159-322V286h203v143H514m0 140V452h203v117H514m0 155V595h203v129H514m-45-608C439 92 381 53 293 0l-8 14c49 39 94 78 135 116 40 39 71 73 92 103 45-28 66-45 64-50 0-7-6-10-15-10-8 0-18-3-30-8-11-6-32-22-62-49m195 106c56-25 100-48 131-69 31-19 53-37 66-53 12-18 16-36 12-53s-12-26-23-27c-13-2-24 7-34 27-8 19-24 42-48 67-24 28-61 59-112 94l8 14M279 866l51-43c7-4 9-9 8-13-1-3-12-12-33-28l-26-338h20l27 24c33-26 51-40 53-43s1-7-2-10l-27-18c-9-99-16-172-22-218-4-47-14-82-29-105-14-24-43-43-86-58-8 22-18 38-31 47-15 8-41 19-80 33l3 16c36-7 68-13 96-18 28-4 46 0 57 12 12 13 19 39 23 79 6 39 14 117 24 234H139l-32-31-54 45 37 25c12 142 19 234 23 277l69-33c7-6 6-10-4-14l-24-9-19-235h97l28 360H84c-16 0-30-3-43-10l-20 35h229l29 37m-27-547 4-17c-74-33-124-58-151-73-27-13-48-28-64-42L0 241l252 78Z"/></symbol><symbol id="骑_G" viewBox="0 0 1000 1000" data-size="21"><path transform="matrix(1 0 0 -1 26 963)" d="m457 437 51-30h115l27 33 47-33c8-4 12-8 12-13 0-3-8-10-25-22V253l4-53c0-8-5-15-16-23-10-8-22-12-35-12v53H506v-24c0-8-6-17-18-25-11-9-23-12-35-10l4 98v180m49-53V241h131v143H506m183 515c2-2 4-5 4-11 0-2-11-7-31-16l-14-88h161l35 49 64-59c2 0 2-2 2-5 1-9-2-12-10-10H643c-14-55-40-98-79-129-39-30-96-59-171-86l-8 14c62 31 109 60 142 88 32 26 53 64 65 113H449c-13 0-34-3-60-8l-22 33h231c7 56 11 103 11 143l80-28M354 534h498l37 47 54-53c2-2 4-5 4-7 0-8-4-12-11-12H828V102c2-24-2-43-14-59-9-15-31-29-66-43-3 18-14 32-33 43-18 10-44 21-78 31l4 18c40-10 70-16 89-18 20-2 34-1 41 4 8 4 12 20 10 48v383H426c-14 0-31-3-53-8l-19 33m289 164 5 14c51-20 88-35 114-47 25-12 44-27 56-43s16-30 12-43c-4-12-12-19-25-19-12-2-22 4-30 17-7 13-20 30-37 51-17 19-49 43-95 70M293 888l53-35c6-4 9-9 9-14 0-3-9-10-29-22l-31-365h12l23 29c35-22 53-35 55-39 0-2-1-4-2-5-2-3-11-10-26-22-7-145-14-236-19-273-6-36-18-64-35-85-18-19-45-36-82-49-2 17-11 30-28 41-17 9-45 20-82 33l4 18c49-15 84-21 104-20 19 0 35 6 47 18 13 9 21 27 25 53 5 27 11 120 20 278H141l-26-28-56 43 29 24c18 142 27 236 25 281 49-18 75-28 76-31 0-4 0-7-1-8-2-2-11-8-28-18l-27-240h119l27 375H82c-12 1-27-2-45-10l-25 36h254l27 35m-41-561 8-15c-121-55-186-86-196-94-7-6-17-15-29-26L0 247l252 80Z"/></symbol><symbol id="骒_G" viewBox="0 0 1000 1000" data-size="21"><path transform="matrix(1 0 0 -1 18 955)" d="m441 909 47-37h285l32 37 64-47 4-8c0-3-10-12-29-25V612l4-86c0-7-5-14-14-21-8-8-21-14-41-18v57H668V423h166l39 49 55-55c4-6 6-10 6-14-2-4-3-6-4-6H695c20-54 43-97 67-128 24-32 54-57 90-77 35-20 73-33 113-39v-19c-29 0-50-2-61-6-10-4-22-12-37-24-30 17-59 42-86 73-24 29-45 58-62 86-17 27-33 72-51 134V136l4-91c1-11-7-22-22-31-13-9-26-14-37-14l4 128v211c-27-49-63-100-107-152-44-51-100-96-168-136l-10 13c49 39 95 84 139 136 43 53 84 119 123 197H424c14 0 5-2-26-7l-19 33h238v121H490v-41c0-7-6-14-17-22-10-5-22-9-35-11l3 144v295m49-340h127v123H490V569m178 123V569h125v123H668m-178 26h127v129H490V718m178 129V718h125v129H668m-416 45 62-39c7-5 10-10 8-14 0-3-11-12-35-27l-10-356h14l31 29c31-29 47-45 49-48 2-4 1-7-2-10l-25-18c-1-96-4-169-8-219-3-49-12-86-27-112-15-25-41-46-79-62-7 21-19 37-35 48-15 10-45 22-90 36l4 16c41-6 76-12 104-16 27-2 45 2 55 12 9 12 15 39 19 82s7 121 10 237H127l-31-32-55 45 37 26c8 162 14 265 18 308l70-27c7-6 6-10-4-14l-23-11-16-270h107l10 377H94c-15 1-29-1-43-6l-24 31h200l25 34m23-571 4-17c-97-39-156-65-175-76-20-11-36-24-47-40L0 247l275 74Z"/></symbol><symbol id="骓_G" viewBox="0 0 1000 1000" data-size="21"><path transform="matrix(1 0 0 -1 38 954)" d="M578 873c10-8 10-14 0-18-15-2-29-14-41-37-10-21-25-51-43-90h324l37 49 63-61c1-1 2-3 2-5 0-5-3-8-8-8H703V523h88l35 47 63-57s1-2 2-6c0-4-3-7-8-7H703V328h88l39 47 59-59c1 0 2-2 2-6s-3-7-8-8H703V127h115l39 52 63-60c2-3 3-5 4-8 0-5-3-8-8-8H508V42c2-10-5-20-20-30-14-8-25-12-33-11l4 124v541c-38-62-77-114-115-157l-14 10c37 60 70 120 100 180 29 58 56 127 80 207l68-33m74-545v172H508V328h144m0 195v180H508V523h144m0-396v175H508V127h144m-11 781c41-22 70-41 88-57 15-16 25-33 29-51 2-16-1-29-8-39-7-9-16-13-27-11-11 1-19 11-22 31-4 18-10 34-17 51-7 14-24 36-51 66l8 10m-344-37 57-39c6-5 9-9 7-14 0-3-13-12-37-27l-17-336h17l26 23c33-25 50-40 52-43s2-6-2-10l-27-17c-10-121-18-201-25-240-7-37-18-68-34-93-15-24-43-44-84-61-7 24-19 41-35 49-15 9-43 20-84 33l4 15c37-7 70-13 98-17 27-4 47 1 60 13 12 12 21 35 28 67 6 30 15 115 25 255H141l-32-31-58 45 35 25c10 145 16 239 18 282l76-30c7-5 6-10-4-13l-30-14-17-238h131l17 357H84c-16 0-31-2-45-8l-23 34h248l33 33m-24-541 4-18c-104-37-166-60-185-70-20-8-37-20-53-35L0 267l273 63Z"/></symbol><symbol id="骔_G" viewBox="0 0 1000 1000" data-size="21"><path transform="matrix(1 0 0 -1 20 962)" d="M479 591h287l37 43 62-49c2-4 3-7 4-8 0-8-4-12-12-12H561c-14 0-36-2-67-7l-15 33m-63-162h428l39 43 55-51c1-2 3-4 3-6 0-8-3-12-11-12H691V94c0-31-7-53-21-67-14-11-33-20-59-27-4 21-15 37-35 47-18 10-43 21-74 33l6 16c53-14 89-21 107-22 18 0 27 13 26 40v289H486c-13 0-32-2-54-7l-16 33m102-114c44-19 67-31 68-35v-9c-1-2-7-4-20-6-11-1-31-20-60-57s-85-95-166-175l-10 12c82 99 145 189 188 270m218-5 10 11c61-37 106-73 135-107 29-35 43-63 45-86 2-20-2-34-12-42-8-6-18-7-27-4-8 3-16 16-24 40-6 24-17 51-35 82-16 29-47 65-92 106M574 913l6 12c34-11 62-24 84-39 22-14 35-28 41-41 4-14 3-26-2-37-4-12-14-18-27-18-15 0-24 9-28 27-4 19-13 35-25 49s-28 30-49 47M469 806h21v-35h371l34 41c41-36 62-55 64-59s1-7-2-8c-2-2-8-4-18-6s-21-8-33-15c-11-8-32-32-62-71l-16 10c20 38 33 66 41 84H490c-4-45-12-76-25-94-14-16-27-25-41-27-14-1-24 5-29 16-5 10-2 20 9 31 10 10 22 23 35 39 14 14 24 45 30 94m-178 68 57-39c6-5 9-9 7-14 0-2-13-11-37-27l-23-350h14l27 24c33-26 51-40 53-43s1-7-2-10l-28-18c-9-115-18-192-25-230-8-38-20-69-35-93-14-24-41-43-82-58-8 22-20 38-35 47-15 7-46 20-92 37l4 14c43-8 78-14 105-18s47 0 61 13c11 11 21 32 27 64 5 31 14 113 26 246H125l-29-31-55 45 35 25c11 158 17 258 20 301l74-30c7-5 6-10-4-13l-27-10-18-262h127l23 371H68c-16 1-31-1-45-5L0 841h258l33 33m-6-549 4-15c-110-42-177-69-201-81-24-9-42-21-55-35L0 257l285 68Z"/></symbol><symbol id="骕_G" viewBox="0 0 1000 1000" data-size="21"><path transform="matrix(1 0 0 -1 14 971)" d="M404 823h201v119l79-25c5-2 9-4 9-6 3-4 0-10-9-15l-28-14v-59h143l25 39 61-39c5-4 8-8 8-11 0-4-12-13-36-28v-92h28l31 41 53-48c2-2 3-5 4-8 0-8-4-12-12-12H857v-53l4-66c1-8-6-16-21-25-13-8-24-12-33-12v33H656V130l4-77c1-7-6-16-21-26-14-10-26-15-37-13l3 118v410H467c-15 0-30-3-45-8l-26 35h209v96H436c-14 0-34-3-59-8l-25 35h253v104H463c-13 0-24-3-33-8l-26 35m252-27V692h151v104H656m0-131v-96h151v96H656m158-178 75-27c5-2 8-5 9-8 0-3-2-6-5-10l-28-11V146l4-87c0-8-8-17-23-28-14-10-26-15-35-13l3 128v341m-408 0c53-15 80-24 82-27 2-4 2-7-2-8-2-2-12-10-31-21v-69c-2-117-18-198-49-243-30-46-75-86-133-119l-7 16c44 35 78 74 101 116 24 43 37 113 39 211v144m114-43c46-16 70-26 72-31 2-4 2-6 0-8 0 0-6-3-18-8-10-3-21-26-35-68s-38-94-72-156l-18 8c41 107 65 195 71 263m164-17 13 10c38-52 62-94 73-127 9-34 13-59 9-77-4-16-9-26-17-31-9-5-18-5-28 0-9 6-13 20-11 41 0 21-1 46-4 74-2 28-14 64-35 110M264 897l56-39c7-4 9-9 8-13-1-3-13-12-37-28l-23-349h21l27 23c34-25 51-40 51-43 0-2 1-4 4-8l-31-19c-10-115-18-192-26-231-7-39-19-70-35-92-13-24-41-45-82-61-8 24-19 40-35 49-15 8-45 20-92 36l4 16c43-10 78-16 106-19 26-4 47 0 60 13 12 12 21 33 28 64 5 32 13 114 25 246H98l-30-31-54 45 35 25c10 158 17 258 19 301l75-29c7-6 5-10-4-14l-28-10-17-261h127l23 371H68c-16 1-31-1-45-6L0 864h230l34 33m-6-548 4-16c-89-40-145-66-168-80-24-12-41-24-53-37L4 272l254 77Z"/></symbol><symbol id="骖_G" viewBox="0 0 1000 1000" data-size="21"><path transform="matrix(1 0 0 -1 23 962)" d="m287 884 53-39c6-5 9-9 8-14-1-3-13-12-37-27l-38-330h8l28 23c33-25 50-40 52-43s2-6-2-10l-29-17c-10-121-18-202-25-242-6-42-19-73-37-93-19-21-49-39-92-55-8 24-18 40-31 49-14 8-41 19-82 32l3 16c38-8 70-14 98-18 29-4 51-1 65 10 13 12 23 33 29 64 5 32 14 118 27 258H133l-29-31-55 45 35 25c17 133 28 226 33 280l72-41c8-5 6-10-3-14l-28-10-31-228h102l37 351H88c-16 1-31-1-45-6l-20 32h231l33 33m-39-547 4-18c-86-29-141-49-164-60-22-11-39-23-51-37L0 282l248 55m406 322c2 0 4-2 4-8 0-4-4-6-12-7-14-2-33-20-56-53v-2h234l37 45 53-49 12-12c0-8-3-11-10-11H693c18-34 41-61 69-83 26-20 54-37 84-50 26-15 62-24 107-28v-17c-31 0-51-3-58-8-8-6-17-16-26-29-30 17-56 35-80 56-24 20-46 41-66 63s-39 54-59 96h-98c-62-83-136-153-222-209l-10 13c60 50 120 115 180 196h-92c-14 0-32-3-55-8l-15 35h179c25 36 43 69 55 98l68-28m6-209c9-4 14-8 14-12 0-9-5-13-16-11-19-1-51-19-94-55-41-35-97-72-169-111l-8 13c56 41 99 77 129 106s63 64 97 103l47-33m131-160c35-28 55-44 59-49 2-4 1-8-2-12-4-4-13-5-26-3-12 0-40-17-84-49-43-34-103-68-181-103-78-34-163-59-256-74l-4 18c99 24 191 58 275 102 82 45 155 102 219 170M592 925c47-20 71-33 74-37s3-7 0-8c-2-2-8-4-20-6-9 0-29-12-58-35-29-24-77-63-143-119l332 9c-24 34-58 66-103 96l6 14c50-18 91-38 121-61 30-22 48-41 54-56 7-14 9-26 6-37-2-12-6-20-13-24-6-4-13-4-20-2-8 2-14 8-19 18-4 9-10 19-18 31-141-10-232-18-275-23-43-4-75-14-98-30l-41 71c21 5 37 10 47 15s28 22 56 49c28 25 65 70 112 135m150-576c8-6 12-11 12-14 0-4-4-6-12-6-6 1-13-1-23-4-9-3-43-26-104-68-59-42-144-85-254-127l-6 16c71 33 131 67 182 103s104 81 158 137l47-37Z"/></symbol><symbol id="骗_G" viewBox="0 0 1000 1000" data-size="21"><path transform="matrix(1 0 0 -1 56 967)" d="M486 472h323l19 31 53-35c3-1 6-3 8-8 0-4-8-12-24-25V78c1-17-3-32-11-45-10-12-28-23-55-33-6 20-14 32-26 37-9 3-31 11-66 22l4 15c43-9 70-13 80-13 9 0 16 3 22 9 6 4 9 12 7 24v186h-84v-68l4-70c0-10-6-18-17-24-10-6-22-10-35-11l3 99v74h-80v-93l4-69c0-8-6-16-17-24-12-6-24-10-35-12l3 103v95h-76V136l4-87c0-9-6-16-19-24-11-7-23-11-34-11l4 110v371l41-23m4-168h76v144h-76V304m121 144V304h80v144h-80m125 0V304h84v144h-84M449 626h352v137H451l-2-137m86 297 6 12c40-18 70-34 90-47 19-12 31-24 35-37 3-12 3-22 0-30s-8-13-16-17c-7-4-14-4-19 0-7 2-12 9-16 23-4 13-10 25-19 37s-29 32-61 59M322 190c30 51 49 100 59 147 8 47 13 92 15 135 3 42 6 94 8 156v201l57-43h324l29 39 53-39c5-2 7-6 8-12-1-2-10-9-27-23v-84l4-82c0-8-5-16-16-23-12-9-23-12-35-10v51H449c-3-53-6-99-10-137-3-37-11-80-23-129s-39-100-82-154l-12 7m-52 682 48-35c6-4 8-9 8-14 0-2-10-10-31-23l-29-354h7l22 32c31-21 47-32 49-34s2-5 0-7-9-8-20-18c-6-141-13-229-19-266-4-35-16-63-35-85-19-20-45-37-79-50-3 17-13 31-29 41-14 9-39 22-74 37l4 13c47-15 80-23 99-23 19 1 36 7 49 19 12 11 20 30 24 58 4 25 9 113 15 262H131l-31-28-51 43 31 24c12 151 18 247 18 289 44-18 67-28 68-31 0-3-1-6-2-8-2-2-10-6-25-12l-20-256h108l25 366H92c-12 0-28-3-47-8l-24 33h223l26 35m-49-549 4-13c-101-43-155-69-162-77-8-8-18-17-30-27L0 257l221 66Z"/></symbol><symbol id="骘_G" viewBox="0 0 1000 1000" data-size="21"><path transform="matrix(1 0 0 -1 49 968)" d="m582 937 76-30c3-2 3-4 2-8 0-1 0-2-2-3l-29-16v-65h127l31 39 45-46c2-3 4-6 6-10 0-4-3-6-8-6H629v-80h178l39 41 50-47c4-2 6-5 6-8 2-6 0-10-7-10H367c-10 1-27-1-53-5l-19 29h103v172l71-28c10-3 11-8 4-15l-28-14V712h137v225M0 171h580l33 41 57-47c2-3 5-6 10-10 0-6-4-9-12-9H76c-12-1-30-4-55-10L0 171m627 279 53-37c4-4 5-8 4-12-3-4-13-11-32-21l-17-98h115l23 35 59-41c6-4 5-9-2-17l-21-16c1-37 0-74-4-111-4-36-17-64-37-83s-49-35-88-49c-6 18-18 32-35 43-16 10-43 21-82 33l3 18c65-16 106-23 123-22 19 2 34 7 45 14 10 6 17 23 22 50 4 27 5 67 4 121H262l-26-26-58 41 31 20c12 29 21 59 27 88l63-29c6-5 6-10 0-14-12-3-22-7-29-14l-14-41h328l20 117H209c-12 0-27-3-47-9l-17 35h457l25 25M55 909l41-35h136l20 27 61-37c7-4 7-10-2-17-10-4-19-8-26-12s-36-40-86-107c25-17 45-32 61-45 14-14 25-30 31-47 7-18 7-34 2-49s-14-28-27-39c-14-12-36-22-65-31-4 13-11 24-19 33-8 6-26 13-53 21l4 16c28-6 51-10 68-12 18-2 31 2 41 14 10 10 12 25 6 43-5 17-15 33-31 49-14 15-29 30-47 45l66 123H102V571l3-84c0-10-6-19-19-27-14-7-26-10-37-10l6 90v369m527-365v137l63-18c6-3 8-8 5-16l-23-11v-78c29 11 57 24 82 39 23 13 47 30 72 50l49-41c7-4 7-9 0-15-10 0-20-1-31-4-11-4-40-16-86-37-47-20-110-39-190-57-78-17-166-27-261-29v19c56 6 110 13 162 22 51 8 103 21 158 39m-269 6c67 40 121 80 162 119l48-39c4-9 0-13-11-14-14 0-33-7-59-19s-70-34-133-65l-7 18Z"/></symbol><symbol id="骙_G" viewBox="0 0 1000 1000" data-size="21"><path transform="matrix(1 0 0 -1 21 953)" d="m703 513 29 41 55-49c1-2 2-5 2-8 0-8-3-12-8-12H656c0-64-4-115-11-152h152l41 47 62-57c2-2 4-4 4-6 0-6-4-9-11-9H641c-21-81-56-145-108-192C482 71 416 32 336 0l-6 14c80 44 139 87 178 130 38 43 66 97 84 164H457c-14 0-36-3-66-8l-16 33h219c7 37 11 88 13 152h-50c-13 0-32-2-57-7l-21 35h224m-62-284 5 14c65-35 114-63 147-84s57-43 74-64c18-20 25-40 22-58-2-17-10-27-24-31-13-3-25 7-35 29-10 24-29 53-59 85-29 33-72 69-130 109m11 672 20 4c11-45 23-90 37-134 45 39 80 76 105 111l53-45c2-2 3-4 4-6 1-3-3-5-10-8-15 4-34-2-54-17-22-15-52-34-90-57 12-33 27-65 47-96 45 39 81 76 109 112l53-47c4-4 4-7 0-8 0-1-4-3-12-4-10 1-22-3-37-10-34-17-68-39-102-64 16-24 34-45 53-63 20-17 39-31 59-41 19-9 43-18 72-27v-18c-14 0-29 0-47-2-16-2-31-9-45-23-28 17-58 49-92 96-32 47-59 97-80 152-19 55-34 120-43 195m-60-33 56-49c5-3 6-6 2-9 0-3-4-6-13-10-7-4-15-11-26-20-25-88-56-157-93-207-38-51-84-95-141-135l-8 12c53 52 93 101 121 149 28 47 53 117 76 211H441c-15 0-31-3-50-8l-20 33h192l29 33M408 765c39-26 65-45 76-59 12-13 17-26 16-39s-4-22-10-27c-5-6-12-9-21-8-10-1-17 8-20 25-2 16-8 31-15 45-6 14-18 31-36 53l10 10M264 870l56-39c7-5 9-9 8-14-1-2-13-11-37-27l-23-350h21l27 24c36-26 54-40 53-43 0-3-1-7-2-10l-27-17c-10-116-18-193-26-231-7-39-19-70-35-93-13-24-41-44-82-60-8 24-19 40-35 49-15 7-45 19-92 36l4 15c43-9 78-16 106-20 27-4 47 0 58 13 12 12 21 34 28 66 5 31 15 113 27 246H98l-30-31-54 45 35 25c10 158 17 258 19 301l75-29c7-6 5-11-4-14l-28-10-17-262h129l23 372H68c-16 0-31-2-45-6L0 837h230l34 33m-6-549 4-15c-89-40-145-67-168-80-24-12-41-25-53-38L4 245l254 76Z"/></symbol><symbol id="骚_G" viewBox="0 0 1000 1000" data-size="21"><path transform="matrix(1 0 0 -1 25 942)" d="M357 493c61 22 112 43 153 65 40 20 75 41 103 62-72 60-123 129-154 207h-21l-26-8-25 34h384l28 29 55-41c5-1 7-5 5-14 1-2-2-4-9-6-20-6-36-19-49-41-13-21-30-47-51-76-20-28-43-54-70-78 29-16 58-29 88-41 28-10 57-18 86-23 26-6 58-9 95-10v-18c-28 1-49-2-62-10-14-6-24-15-32-27-39 16-74 31-107 47-34 14-68 32-103 55-36-24-76-47-120-67-43-19-97-37-164-53l-4 14m129 334c37-76 90-137 159-181 41 35 84 95 128 181H486m90-23 8 8c36-20 59-36 68-47 8-11 12-20 12-28s-3-15-8-23c-4-7-11-9-19-8-9 2-14 8-16 18-2 9-6 20-12 33-6 12-17 27-33 47m-92-399h133v123l74-27c2-4 4-7 4-8 0-2-2-4-6-6l-23-13v-69h117l30 37 54-43c2-2 3-5 4-7 0-3-8-10-25-22v-92l4-52c0-8-6-15-18-22-10-8-21-12-35-10v30H666V84l176 7c-24 27-56 56-96 88l10 11c52-26 90-48 115-68 23-19 39-35 49-50 10-13 14-26 12-39-1-11-4-19-8-25-5-5-12-8-22-8-10 1-17 8-21 21-5 14-14 32-27 53-254-24-391-38-411-43-17-5-35-12-52-21l-37 58 263 14v142H482v-16c1-7-4-13-15-20-12-6-24-9-35-9l4 92v166l48-32m-2-158h135v135H482V247m184 135V247h131v135H666M291 884l49-31c5-4 8-9 8-14 0-3-9-10-28-22l-31-369h10l27 31c35-27 53-42 55-46 0-2-1-4-2-6s-9-8-25-18c-8-133-15-221-20-262-5-40-17-71-37-92s-49-39-86-55c-4 18-14 31-29 41-14 10-45 23-94 41l4 15c60-13 101-20 121-19 21 2 38 8 51 19 12 9 21 29 25 60 5 31 10 120 16 268H145l-32-31-54 43 29 23c16 154 23 253 23 297 51-19 77-30 77-33 0-2-1-4-2-6-2-3-12-8-30-16l-25-254h115l29 379H94c-12 0-28-2-47-8l-24 34h247l21 31m-39-563 4-17c-118-48-181-76-190-84-7-7-17-17-29-28L0 251l252 70Z"/></symbol></svg>