<svg xmlns="http://www.w3.org/2000/svg"><symbol id="龷_G" viewBox="0 0 1000 1000" data-size="21"><path transform="matrix(1 0 0 -1 37 703)" d="M57 234h224v172l80-27c6-2 8-5 6-8 0-2-2-4-6-8l-29-11V234h240v164l82-27c6-2 7-6 4-12 0-2-2-4-6-5l-29-10V234h119l35 39 67-48c2-2 3-5 4-8 0-6-4-9-12-8H623V35h190l37 41 72-49c2-2 3-4 4-6 0-7-4-11-12-11H70C57 9 40 6 20 0L0 35h281v174H119c-14 0-28-3-43-8l-19 33M332 35h240v174H332V35Z"/></symbol><symbol id="龷_U" viewBox="0 0 1000 1000" data-size="23"><path transform="matrix(1 0 0 -1 112 693)" d="M234 385c13 0 26-4 39-11s28-17 45-30l-33-22V206h191v179c13 0 26-4 39-11s28-17 45-30l-33-22V206h99l33 44c19-7 34-17 45-29 12-12 20-21 25-27H527V16h146l32 44c19-7 34-17 45-29 12-12 20-21 25-27H29L12 0 0 16h234v178H76l-18-4-12 16h188v179m51-369h191v178H285V16Z"/></symbol><symbol id="龸_G" viewBox="0 0 1000 1000" data-size="21"><path transform="matrix(1 0 0 -1 56 697)" d="m421 396 80-21c5-3 7-6 7-10 0 0 0-2-1-4l-38-23V156h77c35 41 80 102 134 182l59-41c7-5 10-9 8-14-2-2-9-4-20-4-10 0-29-12-58-37-28-25-57-53-88-86h209l35 35 51-43c9-6 13-11 13-15 1-2-8-6-27-12-20-4-55-35-105-92l-16 12 57 88H118c-7-47-20-80-39-100C61 9 44 0 28 2S3 12 1 25C0 39 8 51 26 61c17 9 31 21 43 37 12 14 23 46 33 95h18v-37h301v240m-247-52c63-30 104-57 124-80 20-24 26-44 19-61-6-18-16-27-29-25-13 1-21 10-26 27-4 17-13 35-25 55-12 19-35 43-70 72l7 12Z"/></symbol><symbol id="龸_U" viewBox="0 0 1000 1000" data-size="23"><path transform="matrix(1 0 0 -1 115 709)" d="M0 24c0 3 3 7 8 14s11 15 18 23 13 16 19 23c7 8 11 14 13 19 9 16 17 33 23 51 7 19 15 36 24 51h1c1 0 2 0 3-1v-31c0-5 0-10-1-17l1-2h240v263c5 0 12-2 22-5s20-7 30-12c10-4 19-9 26-14 8-5 12-10 12-14l-34-23V154h270l34 47c1 0 1 0 2 1 0 1 0 1 1 2 3 0 5-1 5-3 5-5 11-11 17-18 7-6 13-13 18-20s10-14 13-22c4-7 6-15 6-24 0-1-2-3-7-6s-10-6-16-10-12-8-17-11-9-5-10-6c-13-12-25-23-37-34-11-10-23-21-36-32 5 20 11 40 20 60 9 21 13 42 13 63H108c-1-9-3-22-5-38-1-16-4-32-9-47S83 27 74 16C66 5 55 0 40 0c-7 0-16 1-26 4C5 7 0 14 0 24m108 325c0 2 2 3 6 3 10-3 24-8 43-15 19-6 38-14 57-23s36-20 50-32 21-25 21-39c0-4-1-9-2-15-1-5-2-10-5-15s-6-9-10-12c-3-3-8-5-13-5-6 0-11 3-16 8-5 6-9 13-14 20-4 8-8 16-12 23s-8 13-11 17c-13 15-29 29-48 42-18 13-33 28-46 43m346-147c33 17 61 38 84 62 24 24 43 53 57 87 1 1 2 2 1 2 0 1 1 1 2 1 6 0 13-1 20-4 7-2 14-5 21-8s14-7 20-12c7-4 12-8 16-12v-2l-2-1-28-20c-7-11-19-22-35-33s-33-22-52-31c-18-9-36-16-55-22-19-5-34-8-47-8l-2 1Z"/></symbol><symbol id="龹_G" viewBox="0 0 1000 1000" data-size="21"><path transform="matrix(1 0 0 -1 36 807)" d="M408 510c8 27 17 62 28 103l78-29c2-3 3-5 4-8 0-2-5-6-14-10-12 0-20-5-25-15s-12-28-20-53c-7-26-16-55-27-86h105c47 61 88 117 123 170 39-27 60-42 63-45 2-2 2-4 0-6s-7-4-14-4-18-6-33-15c-16-10-52-43-108-100h170l33 43 63-51c2-2 3-4 4-8 0-6-4-9-12-9H422c-18-45-36-84-55-117h418l37 41 61-47c2-2 3-5 4-8 0-8-4-12-12-12H582c29-27 61-51 94-72 34-20 69-39 107-55 37-15 85-24 145-25V72c-28 0-47-2-59-6-12-3-25-14-41-33-30 14-62 31-98 53-35 21-68 46-99 74-29 29-55 57-76 84H352c-43-56-93-104-149-142C146 63 80 29 6 0L0 21c64 26 121 58 170 98 49 39 91 80 127 125H64c-9 0-23-2-41-8L2 270h309c19 31 39 70 58 117H137c-14 0-30-3-47-8l-24 33h313c12 37 21 69 29 98m-256 66 6 12c39-18 72-36 98-55 26-18 42-35 49-51 6-15 6-29 0-41s-16-17-30-15c-14 1-23 10-27 27-4 16-14 35-29 57-16 21-38 43-67 66Z"/></symbol><symbol id="龺_G" viewBox="0 0 1000 1000" data-size="21"><path transform="matrix(1 0 0 -1 270 971)" d="m199 942 72-27c6-3 10-5 10-8 1-4-1-8-6-10l-29-11v-84h108l33 37 54-49c2-2 4-5 4-8 0-4-4-6-11-6H246V661h74l26 33 50-33c6-2 10-6 10-12 0-3-10-11-29-23V431l4-77c0-8-6-16-18-25-11-6-23-10-35-10v43h-84V255h127l31 35 55-45c2-2 3-4 4-8 0-6-5-9-14-9H244V117l4-76c0-9-6-18-19-25-12-8-24-13-36-16l4 121v107H72c-17 1-36-1-54-8L0 255h197v107h-88v-25c0-9-6-18-19-27s-24-12-33-10l4 105v283l46-27h92v115H82c-20 0-36-4-49-9l-21 35h187v140m-90-421h219v115H109V521m0-135h219v109H109V386Z"/></symbol><symbol id="龻_G" viewBox="0 0 1000 1000" data-size="21"><path transform="matrix(1 0 0 -1 51 818)" d="m7 414 52 8c57 77 96 142 117 195l59-37c6-6 5-12-2-16-15 1-32-10-51-33s-53-63-103-121h109c18 25 33 52 47 80l55-35c5-8 2-12-10-14-16-4-35-22-59-54-22-31-61-77-115-139l143 18c-7 19-18 39-34 60l10 10c33-23 55-43 67-59 11-13 17-27 19-41 0-11-2-21-8-29-4-8-11-12-21-10-9 0-14 6-16 18-2 10-6 21-9 33-56-14-94-23-116-29-20-6-44-17-72-31l-35 60c17 3 35 7 53 14 28 35 59 78 91 129-41-5-69-9-84-14-13-5-33-13-58-25L7 414m60-250h20c2-47 1-82-4-105-4-24-12-39-24-47C49 4 38 0 24 0 12 2 5 8 3 18c-3 9 2 19 13 29 12 8 23 19 33 35s16 43 18 82m65 6 13 4c27-30 44-55 51-74 8-21 9-37 4-49-4-11-10-18-18-22-6-2-13-2-19 2-7 4-10 14-10 30 0 15-1 31-2 46-2 16-8 37-19 63m78 21 9 8c38-25 61-47 71-64 9-17 13-31 9-45-3-12-9-20-17-24-9-2-16-2-22 2-5 5-8 13-9 26 0 11-3 23-8 37s-16 34-33 60m160 436 8 10c48-24 78-43 89-59 12-14 16-27 12-41-2-12-8-19-15-23-8-4-16-4-24 0-6 4-12 11-16 23-1 12-5 24-11 35-4 11-18 30-43 55m-88-125h260l33 39 55-51c4-8 2-13-6-13H358c-14 0-33-3-57-8l-19 33m31-104h199l32 36 48-43c7-9 6-15-3-16H378c-15 0-30-3-45-8l-20 31m6-103h197l30 35 50-43c7-10 6-16-4-16H383c-14 0-29-2-44-7l-20 31m20-68 46-30h122l25 26 47-30c4-2 7-5 8-11l-24-18V90l4-33c1-8-4-17-16-26-9-8-21-11-35-10v40H383v-2c0-18-4-30-13-36-8-4-20-7-35-9l4 62v151m44-141h133v86H383V86m211 330 39 8c54 78 92 144 114 197l58-37c6-7 6-12-2-16-15 0-32-10-48-31-18-22-52-64-102-127h107c18 25 36 54 53 86l57-37c5-8 2-12-10-14-18-4-42-26-72-66-31-40-69-78-112-115l159 2c-12 19-28 41-49 64l8 10c44-26 73-47 86-63 13-15 19-29 19-41 1-10-1-19-6-27-4-8-11-12-21-10-10 0-16 6-18 18-2 10-6 19-12 29-67-6-111-12-132-16-21-3-45-12-73-27l-37 61c18 2 37 7 57 15 25 25 56 61 92 110-39-5-63-8-71-10-8-1-25-7-50-20l-34 57m61-228h18c1-42 1-75 0-98-3-24-10-39-20-47s-20-12-29-12c-11 2-18 7-22 16-4 8-2 17 8 27s20 22 29 35c8 13 13 39 16 79m62 1 14 6c27-31 44-56 51-76 8-20 9-36 4-49-4-11-10-18-18-21-6-3-13-2-19 2-7 4-10 13-10 29s-1 31-2 47c0 16-7 36-20 62m84 2 10 8c43-35 70-61 80-78 9-18 11-33 8-45s-8-21-16-25c-6-3-13-2-21 2-8 3-12 11-14 25 0 12-2 26-8 41-4 15-17 39-39 72Z"/></symbol><symbol id="龻_U" viewBox="0 0 1000 1000" data-size="23"><path transform="matrix(1 0 0 -1 109 741)" d="M284 195c9 0 18-2 27-7s20-11 31-19h95l27 34c9-3 18-8 27-15s16-14 19-21l-24-24V20C473 7 459 0 446 0v36H324V20C311 7 297 0 284 0v195m407 205c11-3 22-7 33-12s18-10 23-15l-22-14c-15-35-38-65-69-90s-64-44-100-57l174 8c-3 9-8 19-13 28-5 10-11 20-16 29l4 2c29-21 48-38 59-51s16-23 16-32-4-17-13-24-15-10-19-10c-7 0-11 4-11 13v5c1 2 1 4 1 6 0 7-1 14-4 22l-168-26-20-10-28 35c3 0 7 1 10 4 4 3 10 7 18 11 19 9 38 22 57 39s35 36 50 58l-75-11-20-10-28 35c7 0 15 4 24 11s18 17 27 30 17 28 24 45 13 36 17 56c11-3 22-7 33-12s18-10 23-15l-22-15c-8-22-20-41-36-58-16-16-33-28-52-37l95-2c5 9 10 19 15 30s10 23 13 34m-536-5c11-3 22-7 33-12s18-10 23-16l-22-14c-13-38-32-71-59-98s-55-47-86-61l151 8c-3 9-8 19-13 30s-11 23-17 34l5 1c29-23 48-41 58-55 11-13 16-24 16-33 0-10-4-18-13-25-9-6-15-9-19-9-7 0-11 4-11 13v5c1 2 1 4 1 6 0 5-1 12-3 20L54 164l-20-10-28 35c5 0 13 3 23 9 10 7 20 15 31 26s22 24 33 38 21 29 29 44l-57-9-20-10-28 35c8 0 16 4 24 11s16 18 23 31c7 14 14 30 19 49 6 19 11 39 14 62 11-3 22-7 33-12s19-10 24-15l-23-15c-7-25-17-47-31-65s-29-32-45-41l76-3c11 24 19 48 24 71M324 48h122v109H341l-17-11V48m-48 316-18-4-11 16h205l26 34c14-5 26-13 35-23 9-9 16-17 19-23H276m437-205c27-29 45-51 54-68 10-17 15-30 15-39 0-11-5-19-14-25s-15-9-20-9c-8 0-12 4-12 13 0 3 0 6 1 9s2 7 2 11c0 13-3 28-9 47s-13 38-22 59l5 2m-167-11c13-27 23-48 28-65s8-30 8-39c0-14-5-23-14-28s-17-7-25-7c-9 0-14 4-14 11 0 4 2 12 7 23 5 12 8 29 8 50 0 17-1 36-3 55h5M51 124c7-31 10-56 10-75 0-21-4-35-11-40S34 2 24 2C8 2 0 6 0 15c0 4 3 9 9 14 8 6 15 18 21 36 7 19 12 39 16 61l5-2m571 35c22-23 37-42 46-56 9-13 13-24 13-33 0-5-2-10-5-15-3-4-6-8-10-11s-8-5-12-6-7-2-10-2c-7 0-11 4-11 12 0 3 1 7 2 11 2 4 3 9 3 15 0 11-2 24-6 39s-9 30-15 45l5 1M322 289l-18-4-11 16h113l26 34c14-5 26-13 35-23 9-9 16-17 19-23H322m0-63-18-4-11 16h113l26 34c14-6 26-14 35-23s16-17 19-23H322m-221-97c25-17 42-30 51-40s14-19 14-26c0-4-1-8-4-13-3-4-6-8-10-11s-8-5-12-7-7-3-9-3c-7 0-10 3-10 9 0 3 1 5 2 8s2 7 2 10c0 9-3 20-9 32-5 13-12 26-20 39l5 2m260 352c23-15 38-27 46-37 9-9 13-18 13-25 0-4-2-8-5-12s-6-8-10-11-8-5-12-7c-4-1-7-2-9-2-6 0-9 3-9 9 0 2 1 4 2 7s2 7 2 11c0 9-2 19-7 30-4 12-9 24-16 35l5 2M179 145c27-11 46-21 55-29s14-15 14-22c0-9-4-18-12-26-8-7-14-11-19-11-6 0-9 3-9 9v5c1 2 1 4 1 5 0 9-3 19-10 31s-15 24-24 36l4 2Z"/></symbol><symbol id="龼_U" viewBox="0 0 1000 1000" data-size="23"><path transform="matrix(1 0 0 -1 100 907)" d="m70 510-18-4-11 16h145l27 35c15-6 28-14 37-24 9-9 16-17 19-23H70m60 258c10 0 20-3 31-9s24-14 37-24l-27-18V205h-41v563m130-517v-10L29 126c-1 1-4 5-11 12S5 159 0 182l15-4 245 73m227 563c10 0 20-3 31-9s24-14 37-24l-27-18V643h-41v171m20-102v11h123l26 36c15-6 28-14 37-24s16-18 20-23H507m-167 8c2-45 2-82 0-110s-5-50-10-65-10-26-17-31c-6-5-12-8-19-9-14-1-23 2-26 9s0 18 10 31 20 36 30 69 19 69 27 107l5-1m-11-83v11h396l28 36c19-17 30-30 35-40s8-19 8-26c-7-1-14-7-22-20-7-13-15-26-22-41s-14-29-21-42c-6-13-11-20-16-22l-5-5 19 149H329m58-92-18-5-11 16h249l26 36c15-6 28-14 37-24s16-18 19-23H387m34-21c11-3 23-8 34-13s19-10 24-16l-23-15c-15-27-37-50-68-70s-64-35-100-44l-3 2c29 13 55 33 80 60s44 59 56 96m151-1c41-15 73-29 96-42 24-12 42-23 53-33s18-19 20-27c2-7 2-14 0-21-5-13-12-19-20-20-7 0-15 7-22 21-7 15-23 33-48 54s-52 43-82 64l3 4m-65-34c12-3 23-7 34-12s19-11 24-16l-23-15c-12-19-28-36-47-53s-41-32-66-46c-24-13-50-25-78-36s-57-19-86-26l-3 3c26 9 51 19 76 32s48 29 69 46c22 17 41 36 58 57s31 43 42 66m18-19c12-17 27-33 46-49 19-15 40-29 64-42 24-12 50-22 78-31 29-9 58-14 88-17v-5c-12-3-22-8-31-13s-17-13-26-22c-49 15-94 38-135 67-40 30-70 66-89 109l5 3M354 319c11 0 21-3 32-9s24-14 37-25l-27-17V21C381 7 367 0 354 0v319m21-39v11h270l27 36c10-3 20-9 29-16s16-14 19-21l-25-25V21C681 7 667 0 654 0v280H375m0-81v12h300v-12H375m0-75v12h300v-12H375m0-86v11h300V38H375Z"/></symbol><symbol id="龽_U" viewBox="0 0 1000 1000" data-size="23"><path transform="matrix(1 0 0 -1 109 897)" d="M60 586c6-43 9-77 10-103s-1-46-4-61-8-25-14-30c-5-5-12-9-19-10-14-2-23 0-27 7s-1 17 8 30c5 6 9 15 13 26 4 12 8 25 11 40s6 32 9 49 6 35 8 53l5-1m150 34c13-3 25-8 36-13s19-11 24-16l-23-16c-7-27-19-51-34-71-15-19-32-34-49-44l-3 3c11 13 20 33 29 60s16 60 20 97m-95 175c11 0 22-3 33-9s24-14 37-25l-27-18V486c0-72-2-133-7-182-4-49-12-91-23-127-11-35-27-67-48-94C60 56 34 29 3 0L0 2c16 21 30 41 41 60 12 20 22 41 30 62 9 22 16 46 21 71 6 25 11 54 14 86s6 68 7 109 2 87 2 139v266m28-528c30-24 53-44 69-61s27-31 33-43c7-11 9-21 8-28s-4-14-9-19c-9-11-18-15-25-13-7 3-11 11-12 25s-8 33-21 58-29 51-47 78l4 3m281 491c12-3 24-8 35-13s19-10 24-16l-23-16c-17-63-44-117-79-163-35-45-74-80-115-103l-3 3c34 27 66 66 95 119 30 53 52 116 66 189m-11-135v11h171l28 37c19-17 31-30 36-41s8-20 8-27c-5-1-11-4-19-11s-17-15-27-24-20-20-31-31c-10-11-20-22-29-32-9-9-17-18-24-25s-12-12-15-13l-6-5 83 161H413m-96-122c11 0 21-3 32-9s24-14 38-25l-28-18V179c-15-14-29-21-42-21v343m21-40v12h315l28 37c10-3 20-9 29-16 10-7 17-15 21-22l-26-26V179c-15-14-29-21-43-21v303H338m0-121v12h346v-12H338m152 127h42V202h-42v265M338 196v12h346v-12H338m0-57c-3-32-8-57-13-75s-10-31-16-40c-5-9-11-14-18-15s-13-1-20 1c-14 3-22 8-24 15s3 14 14 19 22 16 35 35 26 40 37 63l5-3m72 2c24-18 42-34 54-47 13-13 21-24 25-33s5-16 2-22c-2-6-6-11-11-16-10-10-19-14-26-12s-9 9-7 20-1 27-10 46c-9 20-19 41-32 62l5 2m138 0c25-18 43-34 55-47 13-13 21-24 25-33s5-16 2-22c-2-6-6-11-11-16-10-10-19-14-26-12s-9 9-8 20c2 11-1 27-10 46-9 20-19 41-32 62l5 2m136-2c27-16 48-30 62-42 15-12 25-22 30-31 6-9 8-16 6-23-1-7-4-13-8-18-9-11-17-16-24-15s-11 8-11 20c0 11-6 27-18 46-12 20-26 40-42 61l5 2Z"/></symbol><symbol id="龾_U" viewBox="0 0 1000 1000" data-size="23"><path transform="matrix(1 0 0 -1 96 900)" d="M68 598v12h226l29 38c20-17 33-32 38-43s8-20 8-28c-7-1-13-5-20-14s-13-18-19-29c-6-10-12-20-17-29s-10-14-15-16l-5-6 6 115H68m-22 41c11 0 23-3 34-9s24-15 38-26l-28-19V351c0-52-1-96-4-131s-7-65-14-90c-6-25-15-48-26-67S20 24 2 3L0 6c9 23 17 45 23 66 6 22 11 47 14 76s6 62 7 101 2 88 2 146v244m144 161c11 0 23-3 34-9s24-15 38-26l-28-19V396h-44v404m-64-409-18-5-12 16h176l30 39c10-7 20-17 30-30s17-26 21-41l-27-15c-13-41-29-80-49-116s-43-69-69-99c-25-30-53-57-82-80S68 18 37 3l-3 3c26 17 51 37 76 62s48 54 69 87 40 69 57 108c17 40 31 83 41 128H126m-1-6c12-40 27-79 46-116s41-71 65-101c25-30 51-55 79-76 29-20 58-33 89-40v-5c-13-3-25-8-34-14s-18-14-27-23c-49 32-94 79-134 142s-70 139-89 230l5 3m373 401c13-3 25-8 37-13s20-11 25-17l-24-16c-9-57-24-107-44-149-20-41-41-73-64-94l-3 3c15 25 30 62 43 111 14 49 24 108 30 175m13-136v11h216l30 39c10-4 20-10 30-17s17-15 21-23l-27-26V303c0-41 0-75-1-103v-67c-1-17-3-33-7-48-3-15-7-29-12-41-5-11-9-21-14-28s-8-10-11-10h-22c0 5-5 12-15 20s-23 16-40 25l11 11c8-4 15-7 20-9s9-3 12-4h7c2 1 4 1 5 1 3 0 6 9 8 26 3 17 6 40 9 68 1 14 2 34 3 61s2 61 2 102c1 41 1 90 1 147v196H511m-20-107c24-17 42-32 53-45 12-12 20-22 23-31 4-8 4-15 1-21s-7-11-12-16c-11-10-20-14-27-12s-9 9-6 20 0 25-8 44-18 39-29 59l5 2m157 18c13-3 25-8 36-13 12-5 21-11 26-17l-24-16c-6-29-15-54-28-75s-26-36-40-46l-3 2c7 15 14 36 19 64 6 29 11 62 14 101M483 356l-18-4-12 16h182l29 38c15-7 28-15 38-26 11-10 18-18 21-24H483m75 243c11 0 23-3 34-10 11-6 24-15 39-26l-29-18V22C587 7 573 0 558 0v599m42-237c-8-38-18-74-31-107-12-33-26-64-41-92-15-27-32-52-50-73s-36-39-55-53l-3 3c28 28 54 70 77 125s41 121 52 197h51m-25-27c37-33 66-60 87-83 21-22 35-41 44-56s14-27 13-36c0-9-2-16-7-22-9-11-18-16-26-13s-14 13-17 30c-1 9-5 20-11 33s-14 28-23 43-19 32-30 49-23 35-35 52l5 3Z"/></symbol><symbol id="龿_U" viewBox="0 0 1000 1000" data-size="23"><path transform="matrix(1 0 0 -1 114 902)" d="m30 679-18-4-12 16h681l29 39c17-7 30-15 40-26 11-11 18-19 22-25H30m190 124c11 0 23-3 34-10 12-7 26-16 41-27l-30-20V599c-15-15-30-23-45-23v227m276 0c11 0 23-3 35-10s26-16 41-27l-30-20V599c-15-15-31-23-46-23v227M177 545c13-3 26-7 38-13 12-5 21-11 26-18l-25-16c-9-27-20-52-34-75s-30-44-48-63c-17-19-36-35-57-50-20-15-41-27-62-37l-3 3c35 23 68 58 98 104 31 47 53 102 67 165m-67-163c11 0 23-3 35-10s26-16 41-27l-30-19V23C141 8 125 0 110 0v382m173 50-17-5-12 16h369l30 40c17-7 30-16 40-27 11-11 18-19 22-24H283m173 129c11 0 23-3 35-10s25-16 40-27l-29-20V322h-46v239M226 317l-18-5-12 16h485l29 40c17-7 30-16 40-27 11-11 18-19 22-24H226m57-139-17-4-12 16h369l30 39c17-7 30-15 40-26 11-11 18-19 22-25H283m173 141c11 0 23-3 35-10s25-16 40-27l-29-20V57h-46v262M226 52l-18-5-12 16h485l29 40c17-7 30-16 40-27 11-11 18-19 22-24H226Z"/></symbol><symbol id="鿀_U" viewBox="0 0 1000 1000" data-size="23"><path transform="matrix(1 0 0 -1 113 904)" d="m33 691-18-4-11 16h691l25 33c13-5 24-13 33-22s16-17 19-23H33m194 117c9 0 19-3 29-8s21-13 34-22l-25-17V612c-13-13-26-20-38-20v216m276 0c9 0 19-3 29-8s21-13 34-22l-25-17V612c-13-13-25-20-38-20v216M38 524v12h300l25 33c13-5 24-13 33-22s16-17 19-23H38m117 1c11-3 21-6 31-11 11-5 18-10 22-15l-21-14c-11-17-29-33-53-46-23-13-49-22-77-29l-3 3c21 9 41 24 59 43 19 19 33 42 42 69m-7-70v12h138l25 33c13-5 24-13 33-22s16-17 19-23H148m-34-58-18-4-12 16h219l25 33c14-5 25-13 34-22s15-17 18-23H114m145 64c0-27-3-50-9-69-5-18-16-34-31-48-15-13-35-25-61-35s-60-20-101-31l-3 2c34 11 62 21 83 31 21 11 38 22 51 35s21 29 26 47c5 19 7 41 7 68h38m-12-71c28-2 50-5 66-8s28-8 35-13c8-5 13-10 14-16 1-5 1-11 0-17-3-13-7-20-14-22-6-1-11 3-16 12s-15 19-32 30-35 21-56 30l3 4M19 561c9 0 19-3 29-9 11-5 22-13 34-22l-24-16V294h280l25 33c13-5 24-13 33-22s16-17 19-23H58l-20-25c-15 6-28 16-38 31l19 19v254m449 5c10 0 20-3 30-8s21-13 34-22l-25-17c0-16-2-30-6-41-3-11-10-20-19-28s-22-15-39-21-38-12-64-19l-3 3c19 9 34 18 46 26 12 9 21 19 28 30s11 25 14 40 4 34 4 57m20-36v12h122l25 32c9-3 18-8 27-14s15-13 18-20l-23-23v-39h32c11 0 22 1 32 2s19 2 26 2 13-1 17-4 6-8 6-17c0-5-3-9-8-12s-14-5-27-5h-46c-19 0-36 3-50 10s-21 15-21 24v52H488m-17-127-18-4-12 16h203l26 32c9-5 18-14 27-25s15-23 18-36l-24-13c-13-15-31-30-53-43-21-13-46-26-74-37-27-11-57-20-88-29s-64-16-97-21l-3 3c29 7 57 15 84 25 28 11 54 23 78 36s45 28 64 44c19 17 35 34 47 52H471m-1 0c13-14 30-28 51-41s44-24 70-35c27-11 55-20 86-27s63-12 96-14v-5c-11-3-21-8-29-13s-16-11-24-19c-28 7-55 15-81 24-25 10-49 21-72 34-22 13-42 28-59 43-17 16-31 33-42 51l4 2M33 230l-18-4-11 16h691l25 33c13-5 24-13 33-22s16-17 19-23H33m21-21c9 0 19-3 29-8s21-13 34-22l-25-17V19C79 6 67 0 54 0v209m19-36v11h594l26 33c9-3 18-8 27-14s15-13 18-20l-24-24V19C701 6 689 0 676 0v173H73m226 63c0-22-3-41-8-56s-15-28-30-39-35-20-60-29c-25-8-58-16-98-25l-3 3c33 9 59 17 80 25 21 9 38 18 50 29s20 23 24 38c5 15 7 33 7 54h38m146 0h39v-80c0-2 4-4 13-5s19-1 31-1c20 0 37 1 52 2s27 2 36 2 16-1 20-4c5-3 7-8 7-17 0-5-3-9-8-13-5-3-13-5-26-5h-81c-23 0-43 4-59 12s-24 18-24 29v80M206 75l-18-5-12 17h346l25 33c14-6 25-14 34-23s15-16 18-22H206M73 35v11h622V35H73Z"/></symbol><symbol id="鿁_U" viewBox="0 0 1000 1000" data-size="23"><path transform="matrix(1 0 0 -1 115 890)" d="M126 781c23-23 39-42 50-57s18-27 21-37 3-18 0-24-8-11-14-16c-11-9-21-11-28-8s-8 11-5 22 2 28-5 50c-6 22-14 45-24 68l5 2M29 598l-17-4-12 16h233l29 38c16-7 29-15 39-26 10-10 17-18 21-24H29m52-121-18-4-11 16h130l28 38c16-7 29-15 39-26 10-10 17-18 21-24H81m0-115-18-4-11 16h130l28 38c16-7 29-15 39-26 10-10 17-18 21-24H81m-40-80c11 0 23-3 34-9s24-15 39-26l-29-19V22C70 7 56 0 41 0v282m22-41v12h153l29 38c11-3 21-9 31-16s17-15 21-23l-27-27V22C255 7 240 0 226 0v241H63m0-201v11h185V40H63m358 501-18-5-11 17h268l28 37c16-6 29-14 39-25 10-10 17-18 21-24H421m64 220c11 0 23-3 34-10 11-6 24-15 39-26l-29-19V322h-44v439m115 0c11 0 23-3 34-10 11-6 24-15 39-26l-29-19V322h-44v439M398 316l-18-4-11 16h314l28 38c16-7 29-15 39-26 10-10 17-18 21-24H398m73-37c13-3 25-7 36-12 12-5 21-11 26-18l-25-16c-13-50-33-93-60-130s-56-64-87-82l-3 3c24 22 46 55 67 98 21 44 36 96 46 157m129 11c39-42 69-77 90-105 22-28 38-51 47-69s14-32 13-42c0-10-3-18-8-23-10-11-19-14-27-11s-14 15-17 36c-2 10-6 23-12 38-6 16-14 33-23 52s-20 38-32 59c-11 21-23 41-36 62l5 3Z"/></symbol><symbol id="鿂_U" viewBox="0 0 1000 1000" data-size="23"><path transform="matrix(1 0 0 -1 108 897)" d="m41 641-17-4-12 16h205l26 35c15-6 26-14 35-24 9-9 16-17 19-23H41m-3-77c10 0 20-3 31-9 11-5 23-13 36-23l-27-17V280c-7-7-14-13-20-16s-13-4-20-4v304m20-38v12h155l27 34c9-3 19-8 28-15s16-14 19-21l-24-24V280c-7-7-14-13-21-16-6-3-13-4-20-4v266H58m0-109v11h184v-11H58m0-121v11h184v-11H58M30 181l-18-5-12 16h228l26 35c15-6 27-14 36-24 9-9 16-17 19-22H30m100 614c10 0 20-3 31-9 11-5 23-13 36-24l-27-17V20C157 7 143 0 130 0v795m378-14c11-3 22-7 33-12s18-10 23-15l-22-15c-9-22-25-41-46-58-21-16-43-28-66-37l-3 3c17 11 33 28 48 51s26 51 33 83M361 680c10 0 20-3 30-9 11-6 23-14 36-24l-26-17V280c-7-7-14-13-20-16s-13-4-20-4v420m20-39v12h224l27 35c9-3 19-8 28-15s16-14 19-21l-25-25V441c-13-13-27-20-40-20v220H381m0-92v12h253v-12H381m0-92v12h253v-12H381m0-81v12h308l26 35c15-6 27-14 36-24 9-9 16-17 19-23H381m0-80v11h328l27 35c9-3 18-8 27-15s16-14 20-21l-25-25c0-54 0-98-1-131s-4-58-9-75c-3-9-7-17-13-26-5-8-11-15-18-22s-13-12-20-16-12-6-17-6h-20c0 5-5 12-14 21s-21 19-36 29l10 10c15-10 25-16 29-18 5-1 8-2 11-2 7 0 14 4 21 11s15 17 22 29 12 35 13 68 2 81 2 143H381m-16-45c1-33 1-59-1-78-1-19-4-34-9-44-4-10-9-16-15-19s-12-4-19-4c-13 1-21 4-24 10-3 7 1 14 10 21s19 22 28 44c9 23 18 47 25 72l5-2m45 1c20-25 35-45 44-61 10-16 16-29 19-40 3-10 2-18-1-24-3-5-8-10-14-14-11-7-20-9-26-6-5 4-6 12-3 23s2 28-3 50c-5 23-11 46-20 71l4 1m93 0c20-25 35-45 44-61 10-16 16-29 18-40 3-10 2-18-1-24-3-5-8-10-13-14-11-7-20-9-26-6-6 4-7 12-4 23s2 28-3 50c-5 23-11 46-20 71l5 1m90-1c23-23 39-43 50-58s19-28 22-39c3-10 4-18 1-24-2-6-6-11-11-15-11-9-19-11-26-8s-9 11-6 22c1 6 1 13 0 22s-4 18-7 29-8 22-13 34l-15 36 5 1Z"/></symbol><symbol id="鿃_G" viewBox="0 0 1000 1000" data-size="21"><path transform="matrix(1 0 0 -1 54 961)" d="M283 737h254v186l80-37c5-3 7-6 8-10-1-3-14-10-39-22V737h174l43 53 58-61c2-1 4-3 4-5 3-8 1-12-6-12H586V556c19-102 36-175 51-219 13-44 34-86 62-127s57-72 88-94c31-20 67-34 106-42V57c-30 0-49-2-59-8s-21-15-35-28c-40 35-74 70-104 107-29 38-53 85-72 143-19 55-35 129-47 220-4-124-35-225-95-303C422 111 338 48 229 0l-10 14c111 61 192 135 243 221 51 87 76 192 75 317v160H354c-12 0-30-3-53-8l-18 33m4-390c31 53 63 122 94 207-20 35-37 64-51 88l16 7c35-42 64-80 86-115 21-35 37-69 47-101 7-34 9-58 3-73-5-15-15-22-29-19-14 2-20 11-19 27 0 14-2 33-6 55-4 21-13 47-26 78-27-63-60-118-99-166l-16 12m342 31c39 62 73 121 103 176-18 33-34 62-48 86l15 7c36-42 66-82 90-121 24-38 40-71 49-97 7-27 8-48 2-63s-16-22-29-19c-13 2-21 11-22 27 0 14-3 33-8 57-4 23-12 50-25 80-22-39-61-86-115-141l-12 8M4 862l59-43h119l29 39 60-41c6-6 6-13-1-21l-22-18V233l4-126c0-7-6-15-18-25-11-10-24-16-37-18v74H53V68c0-8-7-17-20-25C19 34 8 29 0 29l4 183v650m49-263h144v195H53V599m0-221h144v195H53V378m0-215h144v190H53V163Z"/></symbol><symbol id="鿃_T" viewBox="0 0 1000 1000" data-size="21"><path transform="matrix(1 0 0 -1 49 958)" d="M397 616h-66v29h65l27 33 39-28c12-8 17-15 17-22 0-5-3-10-11-14-1-1-6-3-14-7-4-1-9-4-14-7 1-94 31-172 90-233l-10-15c-8 3-14 4-19 4-11 0-22-5-33-17-18 40-35 96-49 168-26-66-65-125-118-175l-11 14c36 54 60 100 74 137 16 46 27 90 33 133m-54 101-19 42c40-6 70-9 92-9h146v87c-1 47-2 73-3 78l53-12c27-6 41-13 41-22s-8-16-24-20l-21-6V750h160l47 50 60-52c5-6 8-10 8-13 0-8-5-12-13-12H608V595c0-10-1-32-3-65-1-14-2-34-4-61 12-95 45-179 98-253 55-74 122-124 202-152l-3-18c-15 0-25-1-30-3-12-3-23-11-33-25-60 38-111 88-153 150-41 59-72 135-92 227-23-113-65-202-124-267C418 76 349 33 259 0l-7 17c79 39 140 84 183 135 58 70 96 161 113 274 9 62 14 118 14 167v130H416c-23 0-47-2-73-6m394-101h-68v29h66l28 33 39-28c11-8 17-15 17-22 0-4-4-9-11-14l-29-14c1-89 36-165 104-230l-9-16c-11 3-19 5-26 5-12 0-22-5-32-16-28 50-47 104-57 164-31-67-68-120-111-160l-11 14c52 75 86 160 100 255M58 813h148l33 38 41-27c13-8 20-16 20-23 0-9-13-19-39-30V221l1-32c1-29 2-48 3-57 0-11 1-21 1-28 0-21-10-31-29-31-15 0-23 8-23 25v30H55v-27c0-18-10-26-28-26-15 0-23 8-23 23l1 16 1 37 2 41v599c-1 27-4 49-8 65l58-43m-3-27V600h159v186H55m0-214V379h159v193H55m0-220V156h159v196H55Z"/></symbol><symbol id="鿃_U" viewBox="0 0 1000 1000" data-size="23"><path transform="matrix(1 0 0 -1 113 899)" d="M0 753c11 0 23-3 35-10 12-6 25-15 40-26l-29-20V117C31 102 15 94 0 94v659m23-42v11h111l31 40c11-4 21-10 31-17s17-15 21-24l-27-27V117c-15-15-31-23-46-23v617H23m0-196v12h144v-12H23m0-173v12h144v-12H23m0-207v11h144v-11H23m236 484-17-5-12 16h422l29 39c17-7 30-15 40-26 11-11 18-19 22-24H259m50-135c13-3 26-7 38-13 12-5 21-11 26-18l-26-16c-12-38-31-71-58-99-26-27-54-48-84-62l-3 3c23 17 44 44 63 79 20 36 35 78 44 126m-32 91c39-39 69-72 90-99 22-26 38-48 47-65 10-17 15-31 14-41-1-9-3-17-8-22-10-11-19-15-28-12-8 3-14 15-17 35-2 10-6 22-12 37s-14 31-23 48c-9 18-20 37-32 56-11 20-23 40-36 60l5 3m332-91c13-3 25-7 37-13 12-5 21-11 26-18l-25-16c-11-28-29-53-53-74s-50-36-78-46l-3 2c20 15 39 36 56 64 18 29 31 62 40 101m-33 91c43-45 76-82 100-112s41-55 52-75c11-19 16-34 16-45 0-10-2-18-7-24-10-11-19-15-28-12-9 4-15 17-20 39-2 11-7 24-14 41s-16 35-27 55-23 41-36 63c-13 23-26 45-40 67l4 3M455 799c11 0 23-3 35-10 12-6 25-15 40-26l-29-20V579c0-86-4-158-13-217-8-58-23-108-45-151-22-42-52-79-91-112-38-32-87-65-147-99l-3 3c34 24 64 47 90 70s48 48 67 73c19 26 34 54 46 83 13 30 23 64 30 102s12 81 15 129 5 103 5 164v175m23-417c13-40 29-79 49-116 21-37 44-70 69-100 26-30 54-55 84-76 31-20 62-33 94-40v-5c-13-4-25-9-34-15s-19-14-28-23c-53 32-101 79-144 142s-75 140-96 231l6 2Z"/></symbol><symbol id="鿄_T" viewBox="0 0 1000 1000" data-size="21"><path transform="matrix(1 0 0 -1 37 957)" d="m564 693 12-9c3-2 9-8 17-15 8-8 14-16 17-24s4-14 4-19c-1-7-3-12-7-16-4-5-10-7-19-9-7-1-16 3-26 15-1 0-4 4-10 14l-8 11-12-22c-4-8-13-21-25-38-13-17-27-33-43-48-15-14-29-26-41-35s-26-19-43-29c-16-10-28-17-35-20l-28-13-10 16 23 14c6 4 15 11 27 19s24 18 36 28 23 21 33 32c11 11 23 26 36 45 14 20 24 34 29 44s8 16 9 20l9 22-17 13c-7 5-14 10-20 14l-44 21-26 13 7 18 37-12c14-4 25-8 34-11l20-8 21-9c2 5 3 12 5 21s4 18 5 26c2 9 4 29 8 60l3 27h-67c-4 0-19-1-46-2-26-1-40-1-41-1l-7-1-19 43c5-1 10-2 16-4 7-1 17-2 30-4 14-2 36-3 67-3h307l32 38 37-23c10-7 17-12 20-16 3-5 5-8 5-12 0-5-2-9-6-12-5-3-9-6-15-9l-20-9c0-15-1-27-1-37 0-11-1-22-1-34-1-11-2-28-4-51l-3-38-4-46c-2-16-3-31-6-43-2-13-6-26-10-40s-10-27-15-38c-6-10-13-19-23-28-10-8-21-16-33-22-13-6-25-10-37-11l-13-2c-1 9-2 15-4 20-2 4-5 8-10 12s-11 8-19 11c-7 3-16 6-26 9-9 3-19 6-30 9l-24 5 5 20c12-2 21-4 28-5l33-5 19-4c8-1 16-2 26-3h26c8 0 16 2 23 6s13 10 18 19c6 9 11 21 15 35 4 15 7 30 9 45s4 28 5 40 2 24 3 37 2 30 4 52c1 23 1 40 2 53l2 49H592c-1-9-2-17-3-22l-6-50c-3-19-5-33-7-42-3-9-5-20-9-32l-3-10m-78-360V140c0-14 1-29 1-45 1-16 2-32 3-46 2-14 2-23 2-28 0-3-1-7-2-10-1-2-4-4-7-6-3-3-8-4-15-4-7-1-12-1-16 1s-8 4-10 7c-3 4-4 8-4 12v312H112c-13 0-31 0-53-2-22-1-33-1-34-1l-6-1-19 43c4-1 9-2 14-3s15-3 30-5 38-3 68-3h326v29c0 18 0 34-1 48-1 13-2 21-2 23l-1 7 53-12c16-3 27-7 33-10s9-7 9-11c0-5-2-9-6-12-5-4-11-7-18-9l-19-6v-47h326l47 50 59-52c4-4 6-6 7-8 2-2 2-5 1-9-1-3-3-6-6-7-2-1-4-2-6-2H486m-195-38 62-45 7-7c2-3 3-7 2-10s-3-5-6-7-8-3-13-3h-30l-31-28c-11-9-20-16-29-22-8-6-22-16-43-29-20-14-37-24-49-31-13-6-29-14-48-23-19-8-33-14-43-18L36 60l-7 17 27 14c8 4 17 9 28 16 12 7 25 15 39 25 15 10 28 19 39 28s25 20 41 35c16 14 28 26 37 35s17 18 23 27c7 8 14 17 21 28l7 10m289-33 66-23 46-16c11-4 27-10 47-19s38-18 54-27 29-18 40-27c10-9 18-18 24-27s9-17 11-24c1-8 0-15-3-21-4-7-9-11-18-13-8-2-19 3-31 13-3 2-10 10-23 24-13 13-27 27-43 39-15 13-32 24-49 35-17 12-34 21-49 29l-47 23-32 16 7 18M121 911c9-4 16-8 22-9l39-17c15-7 28-15 41-23s21-16 25-22c4-8 6-15 6-21 0-7-1-13-4-19-4-5-9-7-14-7-6-1-11 1-16 6-4 3-8 8-12 16-6 7-11 14-16 20s-11 12-17 17-12 10-20 15l-24 17-17 12 7 15m179-222 12-14-37-46c-9-11-19-23-29-35-11-11-25-26-42-45-18-17-31-30-40-38l-13-11 3-20c0-6 0-11-1-16s-3-7-6-9c-3-1-7-1-11 2-4 2-9 6-13 11l-55 54 17 8c8 4 17 9 30 16 12 7 25 15 40 25s30 21 46 33l49 39c16 13 26 22 29 25l21 21M46 787l33-14c12-5 24-10 34-15 11-5 23-12 36-20 13-9 21-16 25-23s6-14 6-21-1-13-5-18c-3-5-8-7-13-7-6-1-12 1-16 6-3 2-7 7-13 15l-15 21-16 16c-6 5-14 11-24 18l-21 15-17 11 6 16Z"/></symbol><symbol id="鿄_J" viewBox="0 0 1000 1000" data-size="21"><path transform="matrix(1 0 0 -1 51 947)" d="M317 842h459l33 40 58-47c13-11 19-19 19-25s-5-10-15-13l-20-5c-1-84-6-151-15-200-14-79-39-133-74-164-21-18-43-27-68-27-6 0-10 1-12 4-1 3-2 8-3 15-2 11-5 18-10 21s-14 6-25 8l-65 11v17h134c20 19 36 46 47 83 15 50 23 135 23 254H566c-6-72-14-125-23-159 60-34 90-65 90-93 0-9-3-17-10-23-5-5-12-8-20-8-5 0-11 2-17 6-4 2-18 17-42 45-6 7-12 13-19 19-22-58-56-106-101-145-49-42-116-81-203-117l-8 16c33 19 57 33 72 43 100 65 164 145 191 238-45 28-88 49-129 62l3 14c44-7 89-17 134-32l3-1c4 22 8 67 12 135H327l-10 28m99-626c-73-56-146-102-221-137C143 54 81 31 9 9L0 24c88 37 162 76 221 117 67 47 117 92 152 134H12l-9 28h413v122l82-12c15-2 23-7 23-15 0-7-6-12-19-16l-22-8v-71h275l46 59 96-64v-23H498c53-46 104-82 153-107 65-33 147-60 246-82l-2-16c-22-4-38-9-47-16-10-8-19-22-28-41-131 57-245 140-340 250V9l-64-9v216M16 754c33-6 61-17 84-34 25-19 38-41 38-66 0-23-10-35-31-35-6 0-12 2-18 6s-13 21-22 50c-7 19-15 34-26 45-3 4-13 11-30 21l5 13m299 31L177 521c-15-28-22-51-22-68 0-5 7-28 21-70 3-9 5-17 5-22 0-15-7-25-20-32-7-4-15-6-24-6-11 0-21 4-28 12-7 7-10 17-10 28v57c-1 31-11 52-31 62-7 3-24 8-52 13v21h88l192 279 19-10M76 893c41-8 75-22 102-42 22-16 33-33 33-51 0-10-3-18-10-24-6-5-13-8-20-8-5 0-9 2-13 5s-10 11-18 26c-8 14-18 28-29 41-10 11-27 23-52 38l7 15Z"/></symbol><symbol id="鿅_J" viewBox="0 0 1000 1000" data-size="21"><path transform="matrix(1 0 0 -1 36 952)" d="m129 899 72-9c12-2 18-6 18-13s-5-12-14-16l-16-7V701h56l19 32 54-34c9-6 14-12 14-17s-6-9-19-12l-11-3c-35-65-71-123-109-172v-34c29-5 56-15 79-29 31-19 46-40 46-63 0-19-9-29-27-29-7 0-14 3-20 9-3 3-8 11-15 25-18 31-39 54-63 69V14L130 0v421c-47-53-87-92-118-117L0 317c103 113 180 232 233 357H34l-12 27h107v198m359-540h134l28 37 55-47v-17H489l-9 21c-57-41-122-75-194-103l-9 17c43 19 94 52 151 99 62 53 114 107 156 161l70-21c9-3 13-7 13-13 0-5-4-9-11-12l-12-4c35-34 81-65 138-93 44-20 93-37 146-50l-6-13c-29-5-48-22-56-50-107 55-190 121-249 197-35-36-78-72-129-109m-84 371c1-11 1-19 1-24 0-33-6-61-17-83-8-16-20-24-36-24-13 0-23 5-28 16-3 5-4 10-4 16 0 9 7 22 21 39 27 33 40 70 40 109h16c1-7 2-14 3-23h175v72H409l-12 26h345l40 50 67-60v-16H635v-72h198l19 27 65-61c5-5 8-10 8-15 0-9-8-15-23-16l-17-1-50-60-14 6 21 94H635V551l-60-8v187H404m-31-179-10 26h108l31 40 50-45v-21H373m14-310-10 27h366l26 33 58-51c6-5 9-9 9-13 0-5-5-9-14-12l-14-6v-98c0-23-4-38-12-46-11-9-24-16-41-21-8-3-15-4-20-4s-7 4-7 13c-1 11-2 20-5 25-3 7-12 12-27 16l-46 10v15h101v112H606V16L545 6v235H387m41 401-10 25h61l27 36 46-45v-16H428m237-91-10 26h104l31 37 52-47v-16H665m0 89-10 27h79l27 34 42-41v-20H665Z"/></symbol><symbol id="鿆_J" viewBox="0 0 1000 1000" data-size="21"><path transform="matrix(1 0 0 -1 42 951)" d="M267 48c141 136 218 337 232 602h-98l-12 28h110c2 65 3 137 3 217l71-9c17-2 26-6 26-13 0-5-5-10-16-15l-13-6-7-174h199l52 67 90-77v-18H563c-6-57-13-106-20-148h188l26 39 64-52c8-7 12-12 12-16 0-5-6-10-17-15l-23-9c-22-59-44-109-67-150-13-22-27-45-43-70 62-65 139-117 232-158l-5-13c-22-1-38-4-48-10-7-6-15-15-22-28-65 41-128 97-189 168-57-55-109-98-156-127-30-19-67-37-110-54l-9 16c109 60 189 130 240 209-38 61-68 123-91 187-44-157-125-285-244-386l-14 15m272 428-5-22c23-65 59-126 107-183 39 67 69 135 92 205H539m-386-67c-5-4-18-15-39-34-47-41-82-68-105-82l-9 17c53 43 105 100 158 171 34 47 63 95 88 146 13 25 21 40 24 46H27l-12 28h138v200l84-12c11-2 17-7 17-14s-5-13-15-17l-21-8V701h52l27 41 68-51c7-5 11-10 11-15 0-7-5-11-14-13l-22-3c-6-10-10-17-13-22-23-39-36-60-39-63-2-3-13-19-34-47-17-23-29-39-36-48v-17c51-10 89-25 116-46 25-19 37-39 37-62 0-11-4-19-11-26-5-5-12-8-20-8-13 0-28 14-47 43-29 43-54 70-75 80V9l-65-9v409Z"/></symbol><symbol id="鿇_H" viewBox="0 0 1000 1000" data-size="21"><path transform="matrix(1 0 0 -1 30 965)" d="M497 918c12-7 29-13 51-18s33-11 33-19c0-9-14-14-42-16-12-19-24-36-36-51h179c12 11 24 24 35 39 12-13 27-25 46-36 18-10 26-20 25-29 0-6-6-12-18-16-12-3-24-6-37-8-17-23-36-45-58-67-17-16-36-33-57-51h165c14 9 26 20 35 33 11-11 22-19 33-25s17-13 17-22-10-17-29-27V479c19 14 32 27 39 39 16-20 35-35 57-46 3-2 5-6 5-10 0-9-4-13-13-15h-88V318c11-10 23-18 35-24 3-2 4-5 4-8 0-8-3-13-10-15H601V91c0-23-5-40-15-52-9-12-21-20-36-25-15-7-28-10-39-10-1 12-5 23-13 33-7 9-21 17-41 24-20 5-45 10-75 16v19c43-10 83-15 119-15 21-1 36 1 43 5s10 13 10 28v157H305l-9 40c29-9 67-13 114-12h144v148H277l-8 39c29-8 67-12 114-11h171v144H333l-14 37c32-8 69-11 113-10h161c23 30 41 55 54 75 16 22 28 45 37 66H478c-4-3-6-6-8-8-25-23-52-45-81-65-30-19-63-35-97-48l-4 12c29 21 54 38 73 53s37 33 56 54c20 21 35 42 48 63 12 20 23 44 32 70m104-619h191v148H601V299m191 176v144H601V475h191M191 930c15-11 34-20 56-26s33-13 33-20c0-8-5-13-16-16-13-2-23-4-29-4-18-59-37-114-57-165-7-17-14-34-21-49 7-3 13-5 19-7 16-5 24-11 24-20 0-8-10-15-30-22V25c-1-16-11-24-32-25-10 0-15 4-15 13v569c-5-10-10-19-16-26-26-43-59-85-99-126l-8 8c29 47 54 91 74 130 20 40 38 82 54 125 16 45 30 84 40 119 10 34 18 73 23 118Z"/></symbol><symbol id="鿈_H" viewBox="0 0 1000 1000" data-size="21"><path transform="matrix(1 0 0 -1 33 961)" d="M228 922c15-10 32-17 52-23 20-5 31-11 33-19 0-9-5-14-15-17-11-3-21-5-31-5-15-24-32-48-50-71s-36-44-56-65c-19-22-40-41-62-59-23-17-52-35-87-54l-8 9c32 26 60 52 84 76 23 26 46 53 67 83 22 31 38 58 50 82s20 45 23 63m31-195c15-10 32-18 53-23 20-5 30-12 32-19 0-9-4-14-15-17-10-3-21-5-31-5-17-31-36-61-57-89-15-23-32-44-49-64 7-3 13-6 20-8 16-5 24-11 24-20 1-7-9-15-31-22V25c0-16-10-24-31-25-10 0-15 4-15 13v426c0 4-1 13-3 30-15-18-32-34-49-50-26-22-59-45-99-67l-8 8c38 32 70 62 97 92s53 63 78 100c25 38 45 71 58 99 15 30 23 55 26 76m533 138c13 9 24 19 34 32 11-10 21-18 32-24s17-13 17-22-9-18-28-27V571c5-4 10-8 16-10 3-2 4-5 4-7 0-8-3-12-10-13H482c21-60 41-108 61-144 22-40 47-78 75-115 29-36 62-70 100-102s74-58 110-77c35-20 70-34 106-41-33-9-55-24-66-46-50 23-94 51-133 85-39 32-77 70-112 114-36 43-69 93-98 150-24 48-45 99-62 155-1-32-4-62-9-90-3-47-11-93-22-139-11-45-25-82-41-112-17-30-37-59-62-85-26-28-58-54-98-78l-6 6c26 21 49 45 69 71 20 25 37 52 52 80 14 28 26 63 36 104s18 86 26 137c7 50 10 112 10 188 1 123 0 223-3 297 15-15 31-27 47-34h330m-326-27-1-4V568h330c2 1 4 2 5 2v268H466Z"/></symbol><symbol id="鿉_H" viewBox="0 0 1000 1000" data-size="21"><path transform="matrix(1 0 0 -1 29 961)" d="M228 922c15-10 32-17 52-23 20-5 31-11 33-19 0-9-5-14-15-17-11-3-21-5-31-5-15-24-32-48-50-71s-36-44-56-65c-19-22-40-41-62-59-23-17-52-35-87-54l-8 9c32 26 60 52 84 76 23 26 46 53 67 83 22 31 38 58 50 82s20 45 23 63m31-195c15-10 32-18 53-23 20-5 30-12 32-19 0-9-4-14-15-17-10-3-21-5-31-5-17-31-36-61-57-89-15-23-32-44-49-64 7-3 13-6 20-8 16-5 24-11 24-20 1-7-9-15-31-22V25c0-16-10-24-31-25-10 0-15 4-15 13v426c0 4-1 13-3 30-15-18-32-34-49-50-26-22-59-45-99-67l-8 8c38 32 70 62 97 92s53 63 78 100c25 38 45 71 58 99 15 30 23 55 26 76m207 123h321c24 18 41 35 51 50 19-22 41-39 66-51 4-4 6-8 6-12 0-9-5-13-15-15H624l-30-281h174c13 8 24 22 33 41 13-12 26-21 40-28 12-7 18-16 17-27 0-8-11-19-35-31V84h11c21 16 36 30 45 43 16-20 35-35 57-46 3-2 5-5 5-10 0-8-4-13-13-14H298l-10 39c30-9 68-13 115-12h91c1 10 3 28 7 52 5 35 15 126 32 273l12 105H396l-13 37c31-9 68-12 112-10h53l29 281H360l-8 39c29-8 67-12 114-11m79-766h232v430H591L545 84Z"/></symbol><symbol id="鿊_H" viewBox="0 0 1000 1000" data-size="21"><path transform="matrix(1 0 0 -1 35 946)" d="M545 610c20-8 42-14 66-16 24-4 35-10 35-19 1-8-3-13-11-16-9-3-21-6-37-9V366h135c25 13 43 30 55 50 20-23 41-41 64-53 5-3 7-7 7-11 0-8-5-12-15-13H598V50h197c26 19 44 38 55 54 20-23 43-41 69-55 5-3 7-7 7-12 0-8-6-13-17-15H196l-8 40c29-9 68-13 114-12h38v342c0 35-2 61-6 78 20-9 42-14 66-17s36-9 36-18c0-8-4-14-12-18-9-2-21-5-37-8V50h164v482c0 35-2 61-6 78M114 776h121l-16 112c22-5 42-7 59-7 17-1 25-5 26-14-1-5-5-10-12-13-7-4-14-7-21-9l10-69h49c22 17 38 32 46 45 17-20 37-36 60-47 3-2 5-6 5-10 0-9-4-14-13-15H285l14-91c0-6-4-10-11-13-7-5-15-7-22-7-8 0-12 3-13 9l-14 102H9l-9 39c29-8 67-12 114-12m516 116c13-6 29-10 49-12 19-2 29-8 29-19 0-5-4-9-12-11-8-3-16-5-24-6-1-24-4-46-7-68h146c23 18 40 34 49 49 19-22 40-39 64-51 4-2 6-6 6-10 0-9-6-14-16-15H661c-3-28-8-58-14-90-2-12-11-18-26-17-14 0-21 4-21 11l2 12c2 8 6 35 13 82v2H501l-9 39c29-8 68-12 115-12h11c5 38 9 77 12 116M122 652c40-12 73-26 99-41 25-15 42-29 51-41 10-12 14-22 14-31 1-21-7-33-24-34-7-1-14 1-20 5-5 4-13 15-23 34-11 18-24 35-41 52-18 17-39 33-64 48l8 8M44 469c40-11 73-24 99-37 25-14 42-26 51-37s14-20 14-28c1-21-7-33-24-34-8-1-14 1-20 5-5 3-13 13-23 30-11 17-24 33-41 48-18 16-39 30-64 44l8 9m236-149 9-11c-23-40-50-83-83-130-32-47-67-92-104-138-1-23-6-36-16-41-7 0-15 8-24 24-10 16-19 28-29 38 38 26 82 66 131 120 50 54 88 100 116 138Z"/></symbol><symbol id="鿋_H" viewBox="0 0 1000 1000" data-size="21"><path transform="matrix(1 0 0 -1 32 957)" d="M438 814h163v22c0 35-2 61-6 78 20-8 42-14 66-17s35-9 35-18c0-8-4-13-11-17-9-2-21-5-38-8v-40h178c22 17 38 32 46 45 17-20 37-35 60-46 4-3 6-7 6-11 0-9-5-14-14-15H647v-82h143c22 16 37 31 46 45 17-20 37-36 60-47 3-2 5-6 5-11 0-8-4-13-13-14H383l-9 39c29-9 68-13 115-12h112v82H332l-9 39c30-8 68-12 115-12m-19-173c19-13 40-23 61-30h289c13 9 24 20 34 33 10-11 21-19 32-25s17-13 17-22-10-18-29-27v-75c8-7 16-13 24-16 2-2 4-5 4-7 0-8-4-12-10-13H739c9-5 18-10 29-14 17-5 24-11 23-18 0-5-3-8-8-10-8-4-16-6-23-7-5-8-10-17-16-25-5-9-11-17-17-24s-13-14-22-22c-2-2-4-4-6-5h122c23 17 39 33 48 47 18-21 38-37 62-49 4-3 6-6 6-11 0-8-5-13-15-14H328l-9 39c30-9 68-13 115-12h100c0 3-1 6-2 10-2 12-6 25-10 38-4 12-9 24-14 35-5 12-12 24-21 36l7 6h-26v-8c0-6-4-12-12-15-10-4-18-6-24-6-8 0-11 3-11 9v135c0 32-1 54-2 67m146-307h113c4 9 9 19 13 28 7 13 12 26 17 39s8 25 11 37c2 7 3 14 4 21H496c12-10 22-19 31-28 11-10 19-19 25-28 7-9 11-17 13-23 3-6 4-12 4-19 0-12-1-21-4-27m-97 152h308v98H468v-98m-72-232c19-12 40-22 61-29h327c13 8 25 19 34 32 11-11 22-19 33-25 11-5 16-13 16-22s-9-17-28-26V85c8-7 16-13 23-17 3-2 4-4 4-7 0-8-3-12-10-12H444V29c0-7-4-12-11-15-10-4-18-6-25-6s-11 3-11 10v170c0 31 0 54-1 66m48-178h348v121H444V76M94 909c14-11 27-23 39-35s21-23 29-33c8-11 13-20 17-28 2-7 4-15 4-22 0-14-2-24-6-31-6-9-13-14-21-14-4 0-7 2-10 5-1 3-3 10-5 22-3 15-7 30-12 45-6 15-12 28-18 41-6 14-15 28-26 43l9 7m32-188h96c13 9 23 20 30 31 10-9 22-18 38-25 16-8 23-17 21-26 0-4-5-10-13-15-11-5-18-8-24-9-23-57-48-104-76-142-9-14-17-25-25-34 17-8 33-16 46-24 3 6 6 12 8 17 3 8 8 17 12 28 4 12 7 21 9 30 3 8 5 16 6 26 13-14 29-24 47-32 19-9 28-17 27-25s-5-13-14-14c-7 0-18 1-32 5-6-8-13-16-20-23-8-6-16-12-23-17-2-2-5-3-7-4 8-4 14-8 19-12 24-19 40-36 49-51 8-14 13-27 13-38 0-19-7-30-23-31-7-1-13 1-18 6-5 4-12 17-22 39-9 22-22 43-38 61-11 13-22 24-33 35V25c-1-17-11-25-31-25-11 0-16 4-16 12v441c-5-4-9-9-14-14-27-26-64-54-113-85l-5 8c44 39 79 73 104 104 24 30 48 66 71 107s40 81 52 120H27l-13 37c31-8 68-11 112-9Z"/></symbol><symbol id="鿌_U" viewBox="0 0 1000 1000" data-size="23"><path transform="matrix(1 0 0 -1 80 918)" d="M695 337H563V87c0-11-1-22-3-32-2-9-6-18-13-25s-16-13-29-18c-12-5-28-8-48-10 0 12-2 22-6 29-3 7-9 12-17 16s-18 7-31 8c-12 2-27 4-44 5v13h116c13 0 19 5 19 14v250H373v-25c0-2-4-6-13-11-8-5-19-8-34-8h-8v322l65-28h304l27 34 71-54c-3-3-8-6-13-9s-12-5-21-7V317c0-1-5-5-14-10s-21-8-34-8h-8v38m0 228H373v-90h322v90M373 359h322v94H373v-94M233 682l-5 22h279v132l99-9c0-7-3-13-9-16s-17-6-33-8v-99h157l41 54 78-57c-3-7-8-12-14-15s-15-4-28-4H233M42 826c28-4 52-10 71-17s35-16 46-25 19-18 24-28c5-9 8-18 8-27 0-11-3-19-9-26s-14-10-23-10c-8 0-16 3-23 8-4 10-10 20-17 31s-15 22-24 32c-9 11-18 20-28 29s-20 17-30 24l5 9m11-572c5 0 9 1 11 2 3 2 6 8 11 17 1 1 2 3 3 6 2 3 5 9 9 18 5 9 11 22 18 39 8 17 18 39 31 68s29 64 48 106c19 43 42 94 69 154l17-4c-10-28-22-61-36-98-13-37-27-74-40-110s-25-68-36-97c-10-29-16-48-19-59-4-14-7-28-10-41s-4-26-4-37c1-9 2-19 5-29s5-21 8-33c3-11 5-24 7-38 2-13 3-28 3-45 0-4 0-10-1-18s-3-16-6-24c-3-9-7-16-14-22s-16-9-29-9C81 0 72 15 70 45c3 17 4 33 5 48s2 30 2 43c0 21-1 38-4 51-2 13-6 22-11 29s-12 11-20 13c-8 3-18 5-30 6v19h32c4 0 7 0 9 1v-1M4 593c27-3 50-8 68-15 19-7 33-14 44-23 11-8 19-17 24-26s7-17 7-25c0-10-3-18-8-25s-12-10-21-10c-3 0-7 1-12 2-4 1-8 4-12 7-7 19-20 38-38 57-18 20-37 36-56 48l4 10M198 51c18 14 35 30 52 48 17 19 33 38 47 57 15 19 28 39 39 58 11 20 21 39 28 56l87-42c-4-7-11-10-20-10-7 0-12 0-14 1-21-32-51-65-88-98s-77-61-122-84l-9 14m429 211c40-12 73-26 100-41s48-30 64-46c16-15 27-31 34-46s10-28 10-40-3-22-9-29c-5-7-13-11-22-11-7 0-15 3-24 10-5 17-13 35-24 53-11 19-23 36-38 53s-30 33-47 48-33 29-50 40l6 9Z"/></symbol><symbol id="鿍_G" viewBox="0 0 1000 1000" data-size="21"><path transform="matrix(1 0 0 -1 28 981)" d="M484 963c73-25 104-39 93-40-1-1-4-3-8-4-24-8-45-30-61-68h197c4 0 10 7 20 20 7 9 12 14 15 15 25-11 52-34 80-68 0-3-3-4-10-5-23-2-43-13-58-34-37-53-75-96-113-130 84-53 185-84 303-93l2-13c-40-1-69-18-89-51-111 31-196 73-256 124-84-61-184-108-301-141l-9 15c116 45 208 98 277 159-36 39-65 89-87 150-41-61-87-113-138-154l-12 8c87 110 138 213 155 310m221-135H498c25-61 58-111 99-150 49 45 85 95 108 150M575 558c53-18 80-29 82-31 0-5-5-9-15-14-7-4-10-6-10-9v-81h112l47 48 75-66-2-4H632V250h147l54 56 80-73-2-6H632V29c-21-17-41-26-60-29l3 227H401c-17-20-27-31-31-31-23 13-43 28-58 44 0 1 2 3 7 7 16 12 28 27 36 44 17 35 26 65 29 89 49-27 74-42 75-45 0-3-3-5-10-8-14-6-23-14-27-23l-27-54h180v151H395l-42-13-22 35h244v135M136 934l98-54c-1-1-3-2-7-5-18-14-28-22-29-24V638h27l44 52 66-66-2-8H198V304l133 49 8-16C182 259 85 203 50 168c-2-2-3-3-4-3L0 235c1 2 6 5 17 8 35 10 76 24 124 42v331H79l-50-13-25 35h137v186c0 46-2 83-5 110Z"/></symbol><symbol id="鿍_U" viewBox="0 0 1000 1000" data-size="23"><path transform="matrix(1 0 0 -1 95 895)" d="M428 789c13-3 26-8 39-14 13-5 22-11 27-18l-26-18c-6-13-13-25-21-36h163l31 42c11-7 22-18 33-32s18-29 22-44l-29-16c-13-21-28-41-46-60-17-19-37-37-58-54 36-21 74-39 115-53s85-23 131-27v-6c-13-4-25-9-35-16-10-6-20-14-30-24-39 11-76 26-112 43-35 17-68 38-98 61-40-28-84-52-132-73-48-20-97-37-148-50l-3 3c46 15 90 35 133 59 43 25 83 53 119 86-39 35-70 75-93 118-19-18-41-34-65-48s-49-25-74-33l-2 3c34 17 65 44 94 80s51 78 65 127m77-307c11 0 23-3 36-10s27-16 42-28l-31-20v-83h96l30 40c17-7 31-16 42-27s18-19 22-25H552V185h130l31 41c17-7 31-17 41-28 11-11 18-19 23-25H552V24C537 8 521 0 505 0v173H327l-23-32c-21 7-37 20-48 38l24 24c10 13 18 24 23 32s9 15 12 22 4 15 4 23c1 9 1 20 1 35 12 0 24-3 37-10s27-16 42-28l-31-20-41-72h178v144H356l-18-5-11 17h178v141M136 782c12 0 24-4 36-11 13-7 27-16 42-27l-31-21V536h9l31 41c17-7 31-17 42-28s18-19 22-24H183V255l92 22v-12L33 155c-1 1-5 6-12 13-7 8-14 25-21 51l17-4 119 28v282H79l-17-5-12 16h86v246m280-116c27-37 64-72 109-103 39 39 69 82 90 129H439c-7-9-15-18-23-26Z"/></symbol><symbol id="鿎_G" viewBox="0 0 1000 1000" data-size="21"><path transform="matrix(1 0 0 -1 21 948)" d="M109 56c5 108 7 235 7 382-30-61-64-112-102-152l-14 6c78 140 130 302 155 485h-50l-60-8-27 31h255l41 48 62-65-2-6H217c-18-89-38-166-60-233h99l27 39 70-52-33-26c0-161 2-282 6-362-16-14-34-24-55-31v72H165V81c-18-17-36-25-56-25m569 839 103-47-39-34c1-44 0-107-5-188h69l51 56 75-70-4-8H735c0-3 0-8-1-15-3-56-7-97-11-122 115-93 174-169 178-227-3-33-15-53-38-58-10 0-16 9-20 27-14 77-56 154-124 229-19-117-78-212-178-285l-12 11c102 106 153 253 153 440h-85l-48-13-18 35h151c1 46 1 96 0 149s-2 93-4 120M514 124c33-25 66-41 100-49 34-9 77-13 128-11 75 3 147 8 217 17V69c-41-10-66-32-77-65-89-1-171 4-246 15-28 5-66 25-112 62-24 19-41 28-49 29-15 1-47-32-95-101-3-4-5-7-6-9l-50 52c32 23 74 50 126 79v338h-51l-33-8-17 31h87l39 46 70-60-37-29V129c2 0 3-1 5-3 1-1 1-1 1-2M182 521c-11 0-17-5-17-16V207h106v314h-89m217 302c87-59 129-108 124-145-4-28-20-44-48-47-9 0-16 9-19 26-3 59-25 110-66 153l9 13Z"/></symbol><symbol id="鿏_G" viewBox="0 0 1000 1000" data-size="21"><path transform="matrix(1 0 0 -1 14 979)" d="M600 959c57-19 87-30 88-33 0-1-4-4-13-9-15-9-22-15-22-16V800h151l48 49 78-66v-6H653V663h106l39 48 83-66-2-4H653V535h193l43 52 74-70-2-5H536c45-30 67-47 68-49 0-1-2-3-5-5-18-9-33-26-45-51h182c3 0 12 8 27 23l10 10c33-17 57-36 73-56-1-2-4-3-10-5-14-5-23-12-28-19-35-62-75-119-122-170 78-57 174-95 286-116l-3-10c-45-1-79-19-99-54-87 42-161 90-223 145C549 78 418 26 253 0l-3 12c148 40 270 100 366 180-42 65-73 121-91 168-57-78-116-144-179-197l-11 11c99 123 165 235 196 338H416l-37-8-21 31h242v106H463l-27-11-24 33h188v114H447l-37-13-27 36h217v159m-62-575c25-61 61-114 107-159 44 51 77 103 99 159H538M164 950l93-43c-1-3-5-6-11-9-13-6-22-14-27-24-19-37-34-73-47-107h107l38 51 70-70v-4H162c-20-50-42-96-66-139h175l41 48 60-64v-6H226V419h55l50 54 62-72v-4H226V169l126 104 10-11C278 164 227 96 207 58l-54 49c13 19 19 40 19 62v228H77l-41-11-19 33h155v164H81c-6-9-15-22-25-38-23-36-38-59-45-68l-11 9c83 157 138 312 164 464Z"/></symbol><symbol id="鿏_U" viewBox="0 0 1000 1000" data-size="23"><path transform="matrix(1 0 0 -1 107 885)" d="M453 308c-52-79-110-143-175-192-3-3-6-5-8-5-4 0-6 2-6 6 0 3 1 5 4 8 95 91 161 197 196 318h-74c-12 0-23-1-34-4-11-2-20-3-29-2-1 0-4 2-7 6-3 5-5 9-8 14s-5 10-7 13c-2 4-3 5-3 4 0 2 1 3 4 3 1 0 2-1 5-2 19-5 42-7 69-7h132v77h-73c-12 0-23-1-34-4-10-2-20-3-29-2l-5 6-9 12c-3 5-5 9-8 12l-4 6c0 3 1 4 4 4 11 0 23-1 36-4s26-4 39-4h83v82h-96c-12-1-23-2-34-4-11-1-20-2-29-2-1 0-4 2-7 6-3 5-5 9-8 14s-5 10-7 13c-2 4-3 5-3 4 0 2 1 3 4 3 1 0 3-1 6-2 19-5 42-7 68-7h106l-3 80v3c0 5 2 8 5 8h2c20-6 35-11 46-16s17-9 17-12c0-2-2-4-5-7l-9-9c-3-3-7-7-10-11s-4-8-4-13v-23h105c3 0 7 2 10 6l29 34c2 2 4 3 6 3s5-2 9-6c4-3 8-7 12-12 5-5 9-10 12-15 4-5 7-8 9-10 4-4 6-8 6-13 0-7-6-11-17-12H551v-82h79c3 0 7 2 10 5l29 33c2 2 4 3 6 3s5-2 9-6c4-3 8-7 12-12 5-4 9-8 12-13 4-5 7-8 9-10 4-5 6-10 6-14s-2-7-5-9c-3-1-8-2-13-3H551v-77h139c3 0 6 2 9 6l29 34c2 2 4 3 6 3s5-2 9-6c4-3 8-7 12-12 5-5 9-10 12-15 4-5 7-8 9-10 3-5 5-9 5-12 0-7-6-12-17-13H480c6-2 12-5 19-8s14-6 20-9 11-5 15-8 6-5 6-7-2-3-5-4c-3 0-7-1-12-4s-12-8-20-17c-7-8-16-21-25-39h139c4 0 7 1 9 4l30 33c2 3 4 5 7 5 7-1 24-19 52-54 1-3 2-5 2-6 0-3-2-4-7-3-4 1-7 0-8-1-8-2-15-7-21-15-5-7-12-18-19-32s-17-31-28-51-27-43-47-69c55-63 120-98 193-105 4 0 6-2 6-6 0-7-4-10-13-10-24 0-42-10-53-29-1-1-3-2-4-2-2 0-4 1-7 3-69 34-119 75-151 124C483 58 388 14 273 0h-3c-7 0-11 2-12 7 0 6 3 9 10 9 106 22 194 69 264 141-27 31-54 82-79 151m17 14c27-64 56-110 88-139 29 33 54 80 75 139H470M280 208c5 3 9 4 10 4 2 0 4-1 5-3s2-4 2-6c0-4-2-7-7-10-23-19-47-43-73-71-25-27-53-59-82-96-2-3-4-5-5-5s-3 2-7 7-8 11-13 17-9 11-13 16c-3 5-5 7-5 6 0 1 1 3 3 5 16 14 24 27 24 39v217H91c-12 0-23-1-34-3-11-1-21-2-30-2-1 0-2 2-5 5-2 4-5 8-8 13s-7 12-12 19c0 1 1 2 3 2 3 0 5 0 7-1 19-5 42-7 69-7h38v132H45c-2-3-5-8-8-15l-9-18c-3-6-7-11-10-16-3-4-6-6-9-6-2 0-4 1-6 2-2 2-3 4-3 5 0 3 1 6 3 9 13 23 24 50 35 81 11 32 21 63 29 94 9 31 15 58 20 83s8 43 8 52v2c0 5 2 8 6 8 5 0 10-1 15-4 6-2 12-5 17-8s10-5 14-8c4-2 7-3 8-4 7-3 10-6 10-9 0-5-1-7-3-6s-5 0-9-2c-3-2-8-8-13-17s-12-25-19-50h69c7 0 13 3 18 10l29 34c3 2 5 3 7 3 1 0 3-1 6-2l37-44c5-7 7-13 7-17 0-5-5-8-15-9H112c-7-21-16-42-25-63l-27-60h120c8 0 14 3 19 10l29 34c3 3 5 4 7 4s5-2 9-6 8-9 12-14c5-5 9-11 12-16 4-5 7-9 9-11 5-7 7-12 7-17s-5-8-14-9H159V354h47c3 0 7 2 10 6l29 34c3 1 5 2 6 2 2 0 5-2 9-6 4-3 8-7 12-12 5-5 9-9 12-14 4-5 7-8 9-10 3-5 5-10 5-13 0-7-6-12-17-13H159V116c25 20 47 38 67 53 21 15 39 28 54 39Z"/></symbol><symbol id="鿐_H" viewBox="0 0 1000 1000" data-size="21"><path transform="matrix(1 0 0 -1 29 957)" d="M362 821c18-11 34-23 47-35 14-10 24-20 31-28 8-7 14-14 18-19l6-14c2-4 3-9 3-13-1-21-9-31-24-31-2 0-5 1-7 3s-8 12-16 29c-9 17-18 32-27 46-11 14-25 30-43 48l12 14m-13-221c17-12 32-24 45-36 13-10 23-19 30-28 8-7 13-13 16-18 3-6 5-11 7-15s2-8 2-13c0-21-8-31-23-31-3 0-5 1-7 3-3 3-8 12-16 29-7 17-16 32-26 46s-23 30-41 48l13 15m124 254c28-8 66-12 114-12h241l42 46c23-17 44-34 64-49 5-3 7-7 7-11 0-9-4-14-13-14H771V662h63l33 41c24-15 42-29 54-42 4-4 7-9 7-13 0-5-13-16-37-31V170c0-48 1-80 3-96 0-18 1-33 1-45 0-10-4-18-11-23-9-4-17-6-24-6-11 0-16 4-16 13v63H551V12c0-8-5-12-16-12-6 0-14 2-23 6-8 6-12 14-12 23 0 12 1 27 3 46 3 15 4 46 4 95v465c0 26-2 50-7 69l60-42h59v152h-32c-46-1-78-3-95-6l-19 46m78-750h293v285c-8-2-15-2-20-2-17 0-34 2-51 8-16 2-26 7-31 13-3 3-6 9-9 16-2 6-3 15-4 27v184h-67v-10c0-33-2-61-6-86s-10-49-18-72c-9-26-20-47-34-66-13-19-31-38-53-58V104m270 323c4 0 8 1 13 4 3 1 6 4 7 9 1 3 2 4 3 4v191h-73V507c0-26 1-42 1-48 1-7 3-13 5-17 5-4 10-8 17-10 8-4 18-5 27-5m-92 235v152h-67V662h67M551 380c10 12 17 24 23 34 10 16 18 33 25 50 5 15 10 36 14 61 4 24 6 58 6 100v10h-68V380M131 914c64-13 96-25 96-35s-18-16-54-18c-5-17-11-32-17-47h68l29 31c23-17 43-34 61-53 2-2 3-4 3-6 0-4-6-8-18-11-11-2-21-4-30-6-13-25-28-49-45-74-13-21-27-39-40-56h70l34 32c33-24 50-40 50-49 0-6-10-15-29-24V337c0-15 0-25 1-29 0-6 1-11 1-16 0-14-12-22-34-26-10 0-15 3-15 9v24H94v-28c0-6-4-11-12-15-10-4-18-6-24-6-9 0-13 5-13 14 0 2 0 7 1 13 1 15 1 29 1 41v311c-12-13-24-25-35-35L0 614c20 25 36 46 47 63s23 41 35 71c11 23 21 51 30 82 7 24 13 52 19 84M94 326h58v133H94V326m105 0h63v133h-63V326M94 486h58v125H94V486m105 125V486h63v125h-63M99 639h56c19 26 33 51 43 75 12 25 21 50 28 73h-80c-7-15-14-29-20-41-16-32-33-61-53-86-2-3-3-5-5-7l31-14M64 207l14-3c1-16 2-30 2-45 0-21-1-42-4-61-2-20-5-36-11-49-3-11-7-20-12-28-5-6-9-11-14-13-4-3-8-4-12-4C10 4 2 10 2 21c0 6 3 13 9 21 14 20 24 37 31 52 7 13 12 29 16 47 3 16 5 38 6 66m75 4c9-12 17-27 23-43 8-16 13-32 16-46 2-15 4-28 4-40 0-11-2-20-5-28-3-7-7-13-13-16-4-2-8-3-12-3-12 0-18 7-18 20 0 4 0 11 2 19 2 13 2 28 0 47-2 22-6 51-15 86l18 4m69 12c8-11 16-21 22-32 8-9 13-19 18-28s8-17 10-24c1-7 2-13 2-20 0-12-2-22-5-29-6-8-13-12-21-12-2 0-3 1-5 4-1 2-2 8-3 19-2 13-5 25-8 38-3 12-7 24-11 35s-9 23-16 36l17 13m45 34c11-9 21-17 30-26 9-7 17-15 23-22s11-14 13-20c2-5 3-10 3-15 0-12-1-21-5-27-5-7-11-11-18-11-3 0-6 1-7 4-3 1-5 6-6 14-2 11-6 22-11 33-4 9-9 19-15 28-5 9-13 19-23 30l16 12m322 23c29-8 67-11 114-11h50l32 31c17-13 33-26 48-37 4-3 6-6 6-8 0-9-3-14-11-14H689c-46-1-77-3-94-7l-20 46M469 452l8-17c-13-54-27-111-43-171-17-62-34-122-52-181-3-31-7-46-12-46-4 0-23 22-55 67 26 42 54 98 84 168 30 68 53 128 70 180Z"/></symbol><symbol id="鿑_U" viewBox="0 0 1000 1000" data-size="23"><path transform="matrix(1 0 0 -1 115 885)" d="M53 739c23-20 43-38 58-54s28-30 37-42 16-23 19-32c4-9 6-17 6-24s-2-14-5-19-7-10-12-14c-4-3-8-6-13-8s-8-3-11-3c-11 0-17 10-17 30v4c0 9-2 19-6 31s-9 25-16 39c-6 14-13 29-22 44-8 16-16 32-25 47l7 1m131-356v-13L72 24c-5-2-10-3-15-3-9 0-19 5-29 15S9 65 0 94l19-10 165 299m107 327-19-12-12 24h371l35 47c19-8 35-18 47-31s20-22 25-28H291m19-315-19-12-12 24h328l35 47c19-8 34-18 46-31s21-22 26-28H310m154 320h54V19h-54v696M260 12 241 0l-14 24h437l34 46c19-7 35-17 47-30s21-22 26-28H260m328 327c22-23 40-44 55-63 15-18 26-34 35-48s16-26 19-36c4-10 6-19 6-26s-2-14-5-19-7-10-12-14c-5-3-10-6-15-8s-8-3-11-3c-11 0-17 9-17 27v12c0 19-6 45-18 76-11 32-25 65-42 100l5 2Z"/></symbol><symbol id="鿒_U" viewBox="0 0 1000 1000" data-size="23"><path transform="matrix(1 0 0 -1 121 887)" d="m45 669-19-10-12 24h638l34 45c18-8 33-18 45-30s21-22 26-29H45m175 105c13 0 27-4 40-11s29-17 46-30l-34-23v-98c-19-17-36-25-52-25v187m263 0c14 0 28-4 41-11 14-7 29-17 45-30l-32-23v-98c-19-17-37-25-54-25v187M45 537l-19-11-12 25h638l34 44c18-7 33-17 45-29s21-22 26-29H45m363 7c-13-31-34-57-62-79-27-22-58-39-92-50l-1 3c19 11 38 28 56 49s31 47 38 77h61m-295-85c13 0 27-4 40-11s28-17 45-30l-33-22V165c-9-9-18-16-26-20s-17-6-26-6v320m26-48v14h441l34 45c12-5 24-11 36-20s20-18 24-27l-31-31V165c-9-9-18-16-26-20s-16-6-25-6v272H139m214-39c13 0 26-4 39-11s28-18 45-31l-33-22c0-46-6-85-17-116s-32-57-62-80c-29-23-70-43-122-60S84 18 3 0L0 2c71 22 130 43 175 64 46 21 82 44 108 71 27 27 45 59 55 96s15 84 15 139m39-222c75-8 135-17 181-26s82-19 107-28c26-9 43-19 52-28s13-18 13-27c0-21-7-31-22-31-11 0-25 6-44 19-11 8-27 17-47 26-20 10-43 20-69 30-25 10-53 20-83 30-30 11-60 21-91 30l3 5Z"/></symbol><symbol id="鿓_U" viewBox="0 0 1000 1000" data-size="23"><path transform="matrix(1 0 0 -1 129 886)" d="m32 669-20-10-12 24h643l31 41c18-7 33-17 44-28s19-20 23-27H32m176 103c12 0 25-4 38-11s28-16 43-28l-31-21v-93c-16-16-33-24-50-24v177m265 0c12 0 24-4 37-11s27-16 44-28l-33-21v-93c-16-16-32-24-48-24v177M32 538l-20-12-12 25h643l31 43c18-8 33-18 44-29s19-20 23-27H32m365 6c-13-23-34-43-62-60s-59-29-93-37l-3 2c19 9 38 21 55 38s30 36 39 57h64M94 489c13 0 26-3 39-10s27-17 42-30l-31-21V146c-16-16-33-24-50-24v367m26-45v12h454l33 43c12-5 23-11 34-19 11-7 19-15 24-24l-31-31V146c-16-16-32-24-49-24v322H120m0-95v12h490v-12H120m0-82v13h490v-13H120m0-100v12h490v-12H120m79-2c14-3 28-8 41-14s23-13 28-20l-27-17c-9-13-20-26-35-38-14-11-30-22-49-32-18-9-38-18-59-25S56 5 34 0l-2 4c36 13 69 34 99 62 31 28 53 61 68 99m258-3c45-12 82-23 111-34s51-21 67-30 27-18 33-27c6-8 9-16 9-23 0-12-3-21-8-28-5-6-9-9-14-9-9 0-19 7-29 22-5 8-14 17-25 26-11 10-25 20-40 31s-32 23-51 34c-18 11-37 22-56 33l3 5Z"/></symbol><symbol id="鿔_G" viewBox="0 0 1000 1000" data-size="21"><path transform="matrix(1 0 0 -1 29 966)" d="M227 903c5-6 3-9-5-10-13 0-23-7-33-22-12-41-25-78-38-112h123l26 35 58-43c11-8 10-12-5-12H144c-11-26-22-51-34-74-15-30-33-58-51-85h208l25 34 59-45c11-6 9-9-6-9H215V394h77l25 35 60-45c10-7 7-10-7-10H215V145c22 12 42 24 61 35s46 27 81 49l9-11c-37-30-71-57-102-79-25-19-41-33-48-42l-25-44-54 46c15 9 26 21 35 37v238H86c-18 1-32-4-44-13L9 394h163v166h-41c-18 0-32-4-44-13l-30 29c-16-21-32-42-49-61l-8 9c32 54 58 102 77 146 21 44 39 91 53 143 16 52 22 81 18 88-2 7-7 14-14 22l5 10 88-30m197-488 35-35h147l35 38 45-42c9-8 7-13-6-17l-18-8V247l3-54c-3-22-16-33-40-32v51H468v-32c-1-24-16-38-44-42 3 22 5 51 7 87v142c1 8-5 19-19 32l12 16m-4 398 35-34h148l34 37 45-42c9-7 7-13-6-16l-18-9v-61l3-69c-2-22-16-33-40-32v31H464v-5c-1-24-15-39-44-43 3 24 5 62 7 112v84c1 7-5 18-19 32l12 15m-89-314h510l31 38 63-49c11-6 9-9-6-9H806V85c-1-23-6-40-16-52-9-12-35-23-78-33-1 33-35 54-103 63l4 17 32-8c82-23 122-8 120 45v362H408c-17 0-31-4-44-13l-33 33m16 386h468l32 39 62-49c11-7 9-10-6-10h-95V644l2-56c0-25-16-39-50-43 3 24 5 72 7 144v176H424c-18 1-32-3-44-12l-33 32m121-657h157v136H468V228m-4 406h157v129H464V634Z"/></symbol><symbol id="鿔_U" viewBox="0 0 1000 1000" data-size="23"><path transform="matrix(1 0 0 -1 118 893)" d="M129 762c13-3 26-8 38-14 13-5 22-12 27-19l-25-15c-15-73-38-135-69-187-30-51-62-90-97-116l-3 4c28 30 54 75 77 134s41 130 52 213m2-148v12h82l21 29c12-5 22-12 29-20s13-15 16-21H131M79 488v13h91l23 30c13-5 24-12 32-21 9-8 15-15 18-22H79M43 344l-21-12-12 24h183l29 40c17-7 31-16 41-27 11-11 18-19 23-25H43m76 151h46V122l72 102 6-6-78-158-22-31c-9 3-18 8-26 15s-15 14-21 23l23 22v406m218 238-19-11-12 24h346l29 40c17-7 31-16 41-27 11-11 18-19 23-26H337m16-57c11 0 23-3 35-10 12-6 25-15 40-26l-29-21V501c-17-15-32-23-46-23v198m22-43v12h86l31 41c11-4 22-10 32-18 11-8 18-16 23-23l-29-29V501c-15-15-31-23-47-23v155h-96m0-114v14h120v-14H375m217 221h46V451c-17-15-32-23-46-23v312M299 401l-19-12-12 24h403l29 39c17-7 31-15 41-26 11-11 18-19 23-25H299m16-59c11 0 23-3 35-10 12-6 25-15 40-26l-29-20V150c-9-9-17-16-24-19s-15-5-22-5v216m22-43v14h138l31 40c10-5 20-11 30-18 11-7 18-15 23-24l-29-29V150c-8-9-16-16-23-19s-15-5-24-5v173H337m0-132v14h170v-14H337m279 239h46V46c0-12-7-23-20-32S615 0 600 0c0 6-10 16-29 29s-46 26-83 38l7 7c15-6 30-10 43-13 14-2 26-3 36-3 13 0 24 1 31 4s11 5 11 7v337Z"/></symbol><symbol id="鿕_U" viewBox="0 0 1000 1000" data-size="23"><path transform="matrix(1 0 0 -1 118 880)" d="M133 734c15-3 28-8 41-14s23-13 29-20l-27-17c-14-59-36-109-67-151-30-41-62-72-96-93l-2 1c25 26 49 64 72 115s39 110 50 179m-4-137v14h102l33 43c22-20 36-36 42-48s9-23 9-32c-8-1-18-8-31-21-12-13-25-27-38-42s-25-29-36-42-19-20-24-22l-7-7 57 157H129M54 487c13 0 26-4 39-11s27-17 43-29l-32-22V182c-17-17-33-25-50-25v330m26-47v12h172l32 43c11-3 22-9 33-17s19-17 24-26l-29-31V182c-17-17-33-25-50-25v283H80m0-106v12h206v-12H80m75 113h48V208h-48v239M80 201v12h206v-12H80m239-87v-13L35 0 21 14C14 23 7 40 0 67l18-5 301 52m106 636c23 0 50-13 81-40l-31-20V447c0-66-2-121-5-166s-9-83-18-116c-8-32-20-61-35-86s-35-50-59-76l-3 4c14 29 25 57 34 84s17 59 22 95 9 79 11 128 3 110 3 183v253m24-45v12h172l35 43c11-4 22-10 33-18s19-17 24-26l-31-30V57c0-13-6-25-18-35-11-10-24-15-37-15 0 6-8 19-23 39-15 21-36 41-65 61l5 7c19-15 36-25 49-30s23-7 30-7 10 1 10 4v624H449m69-58c31-32 53-58 64-77 12-19 18-35 18-46 0-7-2-13-6-18-3-5-8-9-13-13-5-3-10-6-15-8-5-1-8-2-11-2-9 0-13 5-13 14 0 4 1 8 2 13s2 10 2 17c0 15-3 32-10 52-6 21-14 43-23 66l5 2M375 377l-20-11-12 24h321l33 42c18-7 33-17 44-28s19-20 23-27H375Z"/></symbol><symbol id="鿖_U" viewBox="0 0 1000 1000" data-size="23"><path transform="matrix(1 0 0 -1 83 889)" d="M164 373c23-1 51-14 84-39h326l39 50c13-4 26-11 39-21s23-20 29-29l-36-36V106c-20-20-39-30-58-30v53H222v-23c-20-20-39-30-58-30v297m423-52H250l-28-19V144h365v177M380 778c39-10 66-24 81-41l-32-21c21-25 46-49 75-72 30-22 63-42 98-60 35-17 73-32 112-44s79-20 120-25v-6l-12-4c-27-9-50-25-67-46-73 23-139 55-198 96s-105 90-138 146c-19-28-42-55-71-80s-61-49-97-70-75-41-117-58-85-31-130-42l-4 4c42 15 82 33 121 54 39 22 75 47 108 74 33 28 63 58 88 91 26 33 47 68 63 104M50 13 30 0 15 26h684l38 50c18-7 34-17 47-29 13-11 24-23 31-34H50m185 436-21-13-15 26h310l37 51c30-13 56-34 79-64H235Z"/></symbol><symbol id="鿗_U" viewBox="0 0 1000 1000" data-size="23"><path transform="matrix(1 0 0 -1 81 892)" d="m361 305-20-11-13 26h87l4 18c3 13 4 26 4 39 0 14 1 28 3 43H287l-21-11-13 26h173c1 13 1 28 1 44 1 16 1 33 1 51h-59l-21-13-13 26h300l26 36c-48 17-93 37-134 60s-74 49-99 77c-19-19-44-38-74-55s-64-33-101-48c-37-14-76-27-119-38S48 554 4 547l-4 2c43 11 85 24 125 39 41 16 78 34 113 54s65 42 92 65c27 24 48 49 65 76 15-5 29-14 42-25s23-21 29-31h-23c21-15 47-30 76-43s61-25 95-36c35-10 71-19 109-26s76-11 115-14v-7c-16-4-30-10-42-17s-24-17-36-30l-38 8c3-3 6-7 9-10s5-6 6-9l-33-33v-75l39 49c30-13 55-34 76-64H704V283c-19-19-38-28-58-28v50H464c-7-28-17-53-28-75s-25-43-42-62-38-38-63-56-54-37-89-56l-4 3c27 19 50 38 69 56 20 18 37 37 51 56s25 40 34 61c9 22 16 46 21 73h-52M123 432h4c12 25 23 48 32 70s17 47 22 75c17-4 33-9 48-16s25-14 32-23l-32-21c-5-15-12-30-21-44-8-14-17-28-27-41l-11-15c7-4 14-9 21-14 8-5 16-10 25-16l-37-24V82c-19-19-37-28-56-28v314c-17-9-32-18-45-28-13-9-29-17-46-24l-4 4c13 9 27 21 42 35s28 30 40 49l13 20v8m344-112h179v100H482c-3-38-8-71-15-100m15 115h164v95H486c0-17 0-34-1-50l-3-45M49 13 28 0 15 26h692l36 48c17-7 32-17 45-28s24-22 31-33H49Z"/></symbol></svg>