<svg xmlns="http://www.w3.org/2000/svg"><symbol id="冒_T" viewBox="0 0 1000 1000" data-size="22"><path transform="matrix(1 0 0 -1 125 953)" d="M750 843h-31V531h-63v47H63v-47c-11 0-21-3-32-8-3-6-7-8-10-8-10 13-17 20-21 20v371h23l32-31h609l28 31 42-24 16-15v-24m-78-382-24-24h-7V23L621 0h-43v78H125V15c-5 0-21-5-47-15H63v515h7l47-47h477v32h39l39-35v-4m-16 273v109H63V734h593m0-125v94H63v-94h593m-78-266v94H125v-94h453m0-125v94H125v-94h453m0-109v78H125v-78h453Z"/></symbol><symbol id="冕_T" viewBox="0 0 1000 1000" data-size="22"><path transform="matrix(1 0 0 -1 47 969)" d="m906 55-23-23H492l-23 23v211h-16c-10-85-61-150-152-194C254 49 169 25 47 0v32c119 22 203 51 250 86 58 43 94 97 109 164H188v-32c-5 0-21-5-47-15h-16v187h-16l-62-31H0v16c77 28 124 51 141 70 104 113 156 178 156 195H188v-31h-63v297h23l28-31h543v31l62-24 16-15v-24h-31V641h-63v31H313v-15c21 0 41-3 62-8 5-7 11-10 16-12v-8c-5-1-11-5-16-11-15-5-31-8-47-8v-16h227l31 31h8l39-31 8-15c5-15 10-22 15-22v-5l-23-20h-16c-11 10-17 15-18 15-42-26-70-52-83-78h203v31l62-23 16-16v-23h-31V336l31-27v-27H531V94h293c2 5 5 11 12 16l23 70v24h32v-55c-2-2-7-6-16-13v-5c0-2 3-4 8-6l23-46V55M703 797v78H188v-78h515m0-93v62H188v-62h515m0-391v125H500c0-16-3-32-8-47-5-8-8-16-8-23v-55h219M547 555v8H305c-45-47-73-70-86-70-11-13-16-21-16-24h258l86 86M422 313v125H188V313h234Z"/></symbol><symbol id="扝_T" viewBox="0 0 1000 1000" data-size="22"><path transform="matrix(1 0 0 -1 47 961)" d="M906 609H516v-31l-39-156c-5-5-8-11-8-16h320l31 31h16l39-39v-39h-31v-23c-13-50-21-84-24-102-10-26-20-62-31-109l-47-94-54-31h-63c0 10-3 20-8 31-34 15-52 31-54 47 21 0 41-3 62-8 11-5 21-8 31-8h47c42 104 73 208 94 313H422v47c0 10 3 20 8 31l39 140v16H344v31h125c0 5 3 11 8 16l39 125v16H391v31h328v8l47 46c0 5 2 8 7 8l71-66v-27H578v-16c-18-42-31-84-39-125-5-5-8-11-8-16h242l59 63h4l70-67v-27m-500 78H234V484l141 63h16l-47-55-110-55V39c0-8-21-21-62-39h-16C130 31 94 52 47 62v16h78l31-16h16v328c-8 0-31-5-70-15H78v-47H55l-16 15-39 79c31 0 63 2 94 7 41 13 62 21 62 24h16v234H16v31h156v204c2-5 21-11 55-16h39v-47h-32V718h39l59 63h4l70-66v-28Z"/></symbol><symbol id="扝_P" viewBox="0 0 1000 1000" data-size="22"><path transform="matrix(1 0 0 -1 47 961)" d="M906 609H516v-31l-39-156c-5-5-8-11-8-16h320l31 31h16l39-39v-39h-31v-23c-13-50-21-84-24-102-10-26-20-62-31-109l-47-94-54-31h-63c0 10-3 20-8 31-34 15-52 31-54 47 21 0 41-3 62-8 11-5 21-8 31-8h47c42 104 73 208 94 313H422v47c0 10 3 20 8 31l39 140v16H344v31h125c0 5 3 11 8 16l39 125v16H391v31h328v8l47 46c0 5 2 8 7 8l71-66v-27H578v-16c-18-42-31-84-39-125-5-5-8-11-8-16h242l59 63h4l70-67v-27m-500 78H234V484l141 63h16l-47-55-110-55V39c0-8-21-21-62-39h-16C130 31 94 52 47 62v16h78l31-16h16v328c-8 0-31-5-70-15H78v-47H55l-16 15-39 79c31 0 63 2 94 7 41 13 62 21 62 24h16v234H16v31h156v204c2-5 21-11 55-16h39v-47h-32V718h39l59 63h4l70-66v-28Z"/></symbol><symbol id="抱_T" viewBox="0 0 1000 1000" data-size="22"><path transform="matrix(1 0 0 -1 47 961)" d="m891 726-24-23-15-219-16-125-16-78c-3-19-21-43-54-70l-47-24h-31v31c-11 0-21 3-32 8-10 13-15 21-15 24h93v7l24 24 15 47c13 78 21 117 24 117v273H438c-29-78-73-146-133-203h-24c105 157 157 292 157 407 2 0 20-5 54-16h24v-24l-24-23-31-94c-5-6-8-10-8-15h352l27 31h4l23-24c11-5 21-7 32-7v-24m15-691L867 0H414l-39 39v367h8l31-31h195v172H375v31h234v8l16 15c0 5 3 8 10 8l53-23 15-16v-23h-31V398l31-27v-28H438V62h367c21 5 41 42 62 110 14 10 22 15 24 15V78l15-30V35M344 484l-31-39c-21-18-63-41-125-70V39c0-8-21-21-63-39h-23L63 39c-16 5-32 8-47 8v31c15 0 31-3 47-8 7-5 15-8 23-8h39v281c-5 0-11-3-16-7-15-6-31-8-46-8v-47H35c-1 5-5 11-12 16-13 41-20 62-23 62v16c11 0 42 5 94 15h31v266H0v31h125v235h47l31-16h16v-31h-31V687h23l47 47h15l55-55v-23H188V422l93 39 24 23h39Z"/></symbol><symbol id="拔_T" viewBox="0 0 1000 1000" data-size="22"><path transform="matrix(1 0 0 -1 39 969)" d="m781 836-23-23h-8c-26 28-62 51-109 70-11 13-16 20-16 23h66c27-13 47-20 59-23l31-27v-20M922 94c0-3-5-11-16-24-25-7-42-20-52-39-3 0-7 3-10 8-51 23-88 44-110 63l-62 54c-52-29-83-52-94-70-72-39-125-63-156-70v31l94 39c41 25 83 63 125 112l-86 193c-16 88-24 135-24 140h-15v-23c-3-9-16-59-39-149-9-32-40-100-94-203L297 31h-31v24c70 81 114 156 132 226 34 83 63 208 86 375v78H375v32h109v172c8 0 32-5 71-16h23v-31h-31V766h226l47 47h47l55-55v-24H547v-15l-16-31V586l-15-16v-7h257l28 31h4l23-24c26-10 42-20 47-31-11-13-21-20-31-23h-16c-15-133-51-230-109-289v-32c33-33 85-64 156-93 13-5 28-8 47-8M344 484c-42-10-84-31-125-62h-16V55c-13-23-41-42-83-55h-5c-5 8-18 21-37 39L31 55C21 68 16 75 16 78h125v313c-2 0-21-5-55-16H63c0-11-3-21-8-31l-16-16h-4c-1 5-5 11-12 16-13 41-20 62-23 62v16c8 0 42 5 102 16h39v250H0v31h141v219c7 0 31-5 70-16h23v-24l-31-27V719h24l46 47h16l55-55v-23H203V469c63 15 104 31 125 47h16v-32m422-15v62H547l55-187c39-63 62-94 70-94 13 0 31 26 55 78l39 141Z"/></symbol><symbol id="拼_T" viewBox="0 0 1000 1000" data-size="22"><path transform="matrix(1 0 0 -1 23 969)" d="m953 477-19-24H781V16c-5 0-21-5-47-16h-15v453H500c0-10-3-20-8-31l-15-109-16-79c-21-63-42-105-63-125-64-62-113-93-148-93 65 41 115 104 148 187l16 63c13 104 21 156 24 156v31H313v31h125v235h-94v31h78c0 15 3 31 8 47 13 78 21 117 23 117v24h78v-24l-23-23-70-141h70c7 0 21 21 43 63h4l58-63h121v23c13 34 21 52 24 55 13 55 20 83 23 86v24h78v-24c-36-39-72-94-109-164h39l59 63h4l54-51v-43H781V484h39l59 63h4l70-66v-4m-640 39c-11-24-42-53-94-86-11-5-21-8-31-8V55c-14-23-42-42-84-55h-4c-5 8-18 21-37 39-16 5-32 8-47 8v31h109v297l-31-16H78v-46H55c-11 5-21 20-32 46L0 383l16 15 93 32c5 6 11 10 16 11v215H16v32h109v250c3-5 21-11 55-16h39v-47h-31V688h7l63 62 55-51v-43H188V469l62 23 23 24h40m406-32v235c-24 0-52 5-85 15h-5c-7-10-11-15-12-15H500V484l39 32c5 10 8 20 8 31h8l62-63h102Z"/></symbol><symbol id="拼_P" viewBox="0 0 1000 1000" data-size="22"><path transform="matrix(1 0 0 -1 23 969)" d="m953 477-19-24H781V16c-5 0-21-5-47-16h-15v453H500c0-10-3-20-8-31l-15-109-16-79c-21-63-42-105-63-125-64-62-113-93-148-93 65 41 115 104 148 187l16 63c13 104 21 156 24 156v31H313v31h125v235h-94v31h78c0 15 3 31 8 47 13 78 21 117 23 117v24h78v-24l-23-23-70-141h70c7 0 21 21 43 63h4l58-63h121v23c13 34 21 52 24 55 13 55 20 83 23 86v24h78v-24c-36-39-72-94-109-164h39l59 63h4l54-51v-43H781V484h39l59 63h4l70-66v-4m-640 39c-11-24-42-53-94-86-11-5-21-8-31-8V55c-14-23-42-42-84-55h-4c-5 8-18 21-37 39-16 5-32 8-47 8v31h109v297l-31-16H78v-46H55c-11 5-21 20-32 46L0 383l16 15 93 32c5 6 11 10 16 11v215H16v32h109v250c3-5 21-11 55-16h39v-47h-31V688h7l63 62 55-51v-43H188V469l62 23 23 24h40m406-32v235c-24 0-52 5-85 15h-5c-7-10-11-15-12-15H500V484l39 32c5 10 8 20 8 31h8l62-63h102Z"/></symbol><symbol id="挽_T" viewBox="0 0 1000 1000" data-size="22"><path transform="matrix(1 0 0 -1 31 969)" d="m938 55-24-24H680l-24 24v273h-31c-42-112-94-187-156-226L266 0v31c96 21 187 94 273 219 13 42 21 63 24 63v15H430l-28-31h-43v281h-46v16c49 10 104 52 164 125l54 94v46H375v32h422v7l16 16c0 5 3 8 9 8l53-24 16-15v-39h-47v-31c-19-79-32-126-39-141-8-3-21-21-39-55l-32-15c-21-5-41-8-62-8v-16h156v31l63-23 15-16v-23h-31V383l31-27v-28H719V94h136c1 5 5 10 12 15 14 42 22 63 24 63v16h15c0-21 3-42 8-63 13-26 21-39 24-39V55M328 500c-21-41-62-73-125-94V51c-11-7-21-16-31-28L125 8c-4-5-8-8-12-8-9 11-15 21-19 31v16H70C37 58 19 63 16 63v15h125v281h-32l-31-15H63v-47l-40 31-23 63h23c45 13 73 20 86 23 11 5 21 8 32 8v250H16v31h125v235h70l23-20v-27h-31V703h24c13 11 20 21 23 31v16h23l55-51v-27H203V453l110 47h15m469 359H594c0-15-18-62-55-140-81-73-135-110-164-110v-15c5 0 21-5 47-16h226l24 24v4c-11 6-21 15-31 27l-47 15c-11 13-16 21-16 24 21 0 42-3 63-8 13-5 27-8 41-8l52 24c14 19 22 32 24 39l31 125c5 5 8 10 8 15m16-500v188H641V383l-16-16v-8h188m-235 0v188H422V359h156Z"/></symbol><symbol id="捐_T" viewBox="0 0 1000 1000" data-size="22"><path transform="matrix(1 0 0 -1 54 961)" d="M891 578h-47c0 5-5 21-16 47v15c-10 0-20-3-31-8l-78-15-281-31-16-16v-31l16-16 46-23h313v31h23l55-51v-4l-23-23h-8V54c-5-3-11-11-16-23-11-11-31-21-58-31h-12l-70 70v8h93v156c-5 0-10-3-15-8l-47-15c-45-8-105-21-180-39h-39v-32h-23l-32 32h-7c0-22-3-43-8-63l-47-94-16-15h-23v7c14 20 22 33 23 40l16 62c7 29 13 58 18 87 2 20 4 30 5 30v321l-31 54v31c109 81 177 178 203 290h8c23-13 42-21 55-24 5-7 10-11 15-12v-27c-23 0-41-11-54-31-29-63-83-126-164-188h70c133 13 219 21 258 24 10 5 20 8 31 8l-47 54c-11 5-21 8-31 8v16h31l47-24 94-94v-54M344 687H203V484l78 39 24 24h23v-32c-10 0-20-3-31-8-31-39-63-62-94-70V39c0-8-21-21-62-39h-16C88 33 62 51 47 54 36 67 31 75 31 78h63l31-16h16v328l-63-23c-10-18-15-31-15-39H39l-16 15-23 53c1 2 7 8 16 18l62 15 47 24h16v234H0v31h141v204c3-5 21-11 54-16h39v-47h-31V718h24l58 63h4l55-51v-43m437-437v218H469v-78h97c12-8 47-20 106-39l31-27v-24c-14-9-21-15-21-19-3 0-7 3-10 8l-125 62-78 24V242l-16-16v-8h110l179 32h39Z"/></symbol><symbol id="捐_P" viewBox="0 0 1000 1000" data-size="22"><path transform="matrix(1 0 0 -1 54 961)" d="M891 578h-47c0 5-5 21-16 47v15c-10 0-20-3-31-8l-78-15-281-31-16-16v-31l16-16 46-23h313v31h23l55-51v-4l-23-23h-8V54c-5-3-11-11-16-23-11-11-31-21-58-31h-12l-70 70v8h93v156c-5 0-10-3-15-8l-47-15c-45-8-105-21-180-39h-39v-32h-23l-32 32h-7c0-22-3-43-8-63l-47-94-16-15h-23v7c14 20 22 33 23 40l16 62c7 29 13 58 18 87 2 20 4 30 5 30v321l-31 54v31c109 81 177 178 203 290h8c23-13 42-21 55-24 5-7 10-11 15-12v-27c-23 0-41-11-54-31-29-63-83-126-164-188h70c133 13 219 21 258 24 10 5 20 8 31 8l-47 54c-11 5-21 8-31 8v16h31l47-24 94-94v-54M344 687H203V484l78 39 24 24h23v-32c-10 0-20-3-31-8-31-39-63-62-94-70V39c0-8-21-21-62-39h-16C88 33 62 51 47 54 36 67 31 75 31 78h63l31-16h16v328l-63-23c-10-18-15-31-15-39H39l-16 15-23 53c1 2 7 8 16 18l62 15 47 24h16v234H0v31h141v204c3-5 21-11 54-16h39v-47h-31V718h24l58 63h4l55-51v-43m437-437v218H469v-78h97c12-8 47-20 106-39l31-27v-24c-14-9-21-15-21-19-3 0-7 3-10 8l-125 62-78 24V242l-16-16v-8h110l179 32h39Z"/></symbol><symbol id="捨_T" viewBox="0 0 1000 1000" data-size="22"><path transform="matrix(1 0 0 -1 31 969)" d="M938 641c-11 0-21-3-32-8l-37-39c-3 0-7 3-10 8-18 0-83 55-195 164l-39 93h-31c-89-167-188-260-297-281 151 110 239 229 266 360h7c23-13 42-21 55-24 5-7 11-11 16-12v-7c-10-6-15-10-16-10 83-135 188-212 313-229v-15m-32-219H313v31h250v141H422v31h141v94h93v-24l-31-27v-43h23l47 47h32l54-55v-23H625V453h133l58 63h4c13-19 32-32 55-39l31-32v-23M844 63H438c0-11-3-21-8-32l-16-15h-39v312h23l28-31h340v31l62-23 16-16v-23h-31V117l31-27V63M344 672H203V453l78 39 24 24h23v-24c-78-54-117-83-117-86h-8V55c-13-23-41-42-83-55h-5c-5 8-18 21-37 39L31 55C21 68 16 75 16 78h125v297l-55-31c-5-11-8-21-8-31H31v15L0 391l117 31h24v250H16v31h125v219h70l23-20v-27h-31V703h24l58 63h4l55-51v-43M750 94v172H438V94h312Z"/></symbol><symbol id="掃_T" viewBox="0 0 1000 1000" data-size="22"><path transform="matrix(1 0 0 -1 47 969)" d="M875 641H383l-24 23v8h407v94H375v31h391v78H359v31h407v8l15 16c0 5 3 8 10 8l53-24 15-16v-15l-31-27V711l47-43v-27m31-125c-10 0-20-3-31-8l-62-63v-15l46-43v-4l-23-24h-8V133l-35-39h-59v31c-15 0-31 3-46 8-11 13-16 20-16 23h94v219H625V23L605 0h-42v375H422V117l-20-23h-43v344l-54-47h-16l-23 23v39c7 0 20 5 39 16l31 62c5 21 8 42 8 63h15v-31h461l32 31h15l39-39v-39M313 672H188V484h23l23 24 63 39v-24l-78-78c-11-5-21-7-31-7V55c0-8-21-21-63-39h-16L47 55c-16 5-32 8-47 8v31h8l15-16h102v313l-55-32c-5-10-7-20-7-31H39c-8 0-21 21-39 63v15l102 32h23v234H0v31h125v235h70l24-20v-27h-31V703h23l47 47h15l40-39v-39m500-164v23H594v-15h62v-24l-31-27v-59h156l32 102M563 406v125H359v-93c11 0 21-3 32-8l23-24h149Z"/></symbol><symbol id="掩_T" viewBox="0 0 1000 1000" data-size="22"><path transform="matrix(1 0 0 -1 31 969)" d="M938 531h-47v-47h-32V188h-62v46H688v32h109v93H688v32h109v93H688v32h109v7l16 16c-68 55-115 135-141 242H555L445 609l-70-70v-16l20-23h3c42 26 73 52 94 78h24l47-39v-8c-19 0-63-16-133-47h-24v-93h39l43 47h4l55-51v-28H406v-93h39l43 47h4l55-51v-28H406v-46h-62v312h-24l-27-31h-27c83 63 156 167 218 312H313v32h187l31 101v24h32l31-16h15v-31h-31v-16l-15-31v-31h210l59 62h4l70-66v-4l-19-24H703c13-47 32-83 55-109 34-47 94-94 180-141M906 55l-23-24H602l-24 24v617h31l32-16h15v-15l-15-32V78h203v24c10 33 15 51 15 54h16c0-21 3-41 8-62 13-14 20-20 23-20V55M313 711l-20-23H188V500l46 23 24 24h39l-63-70-46-24V55c-14-23-42-42-84-55h-4c-5 8-18 21-37 39-16 5-32 8-47 8v31h109v328l-47-23-15-16c1-2 6-6 15-11v-4l-19-24h-4l-32 31-23 63h23l102 31v235H0v31h125v219c8 0 31-5 70-16h24v-24l-31-27V719l54 47h16l55-55Z"/></symbol><symbol id="揅_T" viewBox="0 0 1000 1000" data-size="22"><path transform="matrix(1 0 0 -1 31 961)" d="M938 656H828V468h-62v188h-78v31h78v156h-78v32h140v7l16 16c0 5 3 8 10 8l52-24 16-15v-24h-94V687c3 0 11 5 24 16h23c5 0 21-6 47-16h16v-31m-282 0H531c0-26-13-63-39-109-34-47-73-74-117-79v8l70 71c13 39 21 58 24 58v51h-78v31h93v156h-78v32h141v7l16 16c0 5 3 8 9 8l53-24 16-15v-24h-94V687h8l33 31 53-23 15-16v-23M359 484H156v-8l-23-23H94v156c-16-15-42-31-78-47H0l55 63 62 125 16 62c5 5 8 10 8 16H47v31h187v8l47 47c0 5 3 8 8 8l70-67v-4l-19-23H203l-62-117v-8h140v31l63-23 15-16v-16l-31-27v-90l31-62v-16m547-312H500V54L449 0h-58v31l-78 31h-16v16h141v94H47v31h391v78H94v31h344v78h-55c-87-10-139-15-154-15-5 0-27 5-65 15h-23v16h47c114 12 197 20 250 23l93 16c36 6 73 16 110 31v8h47l46-31h16v-31h-55l-195-32v-78h195l59 63h4c13-19 31-32 55-39l31-32-20-23H500v-78h262l55 62c26-8 56-31 89-70v-23M266 515v157H156V515h110Z"/></symbol><symbol id="揤_T" viewBox="0 0 1000 1000" data-size="22"><path transform="matrix(1 0 0 -1 39 961)" d="m922 851-24-23h-7V179l-16-15-47-24h-47c0 10-3 21-8 32l-39 46h32c3-2 12-7 27-15h12l23 19v621H719V15h-63v907h8l47-47h133v31h23l55-51v-4m-281-86h-32V437h-62v47H375v-47c-11 0-21-3-31-8-3-5-7-7-10-7-11 13-18 19-21 19v387h23l27-31h28v15l47 102c0 5 1 8 3 8 4 0 8-3 12-8l47-16c5-7 11-11 16-12v-4c-31-13-63-41-94-85h141v31l62-24 16-15v-24M625 54l-23-23H336l-23 23v336l62-15h31v-32h-31v-93c67 10 125 30 175 62 6-1 23-6 52-15h23v-8l-16-16c-70-25-122-41-156-47-29-5-55-8-78-8V93h152c7 11 16 21 28 32 13 41 21 62 23 62v16h16c0-26 3-52 8-78 13-26 20-39 23-39V54M297 687H188V500l46 23 24 24h23l-86-94h-7V50c-11-6-21-15-32-27-36-13-54-20-54-23h-8c0 10-3 20-8 31-34 15-52 31-55 47h94v328l-39-31c-5-16-8-32-8-47H55c-11 5-21 21-32 47L0 398v24h23l102 31v234H31v31h94v204c8 0 31-5 70-16h24v-24l-31-27V718h23l43 47h4l39-35v-43m250-31v109H375V656h172m0-141v110H375V515h172Z"/></symbol><symbol id="搢_T" viewBox="0 0 1000 1000" data-size="22"><path transform="matrix(1 0 0 -1 31 985)" d="M906 750h-31c-13-47-32-83-55-109l-54-47v16c18 52 31 83 39 94 13 52 21 78 23 78v15c5-5 21-10 47-15h31v-32m32-211-20-23H344v31h187v328H375v32h406v7l47 47c0 5 3 8 8 8 13-18 31-31 55-39l31-31-20-24H719V547h70l59 63h4c13-19 31-32 54-39l32-32m-454 55h-46c-5 86-32 146-79 180v23c53-15 94-62 125-140v-63m391-187h-31V16h-16L802 0h-3c0 6-3 11-10 16-5 26-8 52-8 78H469V16h-63v453h24l31-31h328l28 31 42-23 16-16v-23M344 743l-20-24H203V500h16l62 32h47l-31-39-94-39V71c-13-23-41-42-83-55h-5c-5 8-18 21-37 39L31 71C21 84 16 91 16 94h125v328l-55-31c-5-11-8-21-8-31H55c-23 15-42 42-55 78h23c45 13 73 20 86 23 11 5 21 8 32 8v250H31v31h110v204h47l31-16h15v-31h-31V750h8l62 63 71-66v-4m312-196v328h-62V547h62m125-265v125H469V282h312m0-157v125H469V125h312Z"/></symbol><symbol id="摩_T" viewBox="0 0 1000 1000" data-size="22"><path transform="matrix(1 0 0 -1 31 969)" d="M906 797H734c0-21-10-42-31-63h55l47 47h15l55-54v-24H719c0-23 31-62 94-117 47-15 73-23 78-23v-32h-47v-31c-34 11-63 32-86 63l-39 93h-16V508l-19-24h-28v125l-93-86-47-23v31c7 0 20 5 39 16 18 21 41 62 70 125v31h-94v31h125v63H375v-31h-31v-32h39l47 47h15l55-54-20-24H344v-47c10 0 20-3 31-8l94-93v-39h-39c-5 0-21 26-47 78l-39 31V453h-47v156h-16c-23-62-52-104-86-125h-23l55 110 23 70v39h-94v31h141v63H125V441c-13-82-21-140-23-175-11-57-21-104-32-141-7-11-20-42-39-94V16H0c0 5 3 10 8 15l15 63 16 94c9 51 15 99 19 146 3 33 4 49 5 49v492h7l47-47h352v63l-16 31v16l55-47 8-16c5-14 10-21 15-21v-5l-15-13v-8h242l58 63h4c13-19 32-32 55-39l31-32v-23m32-609H563V78c-13-37-42-63-89-78l-36 39c-47 16-74 24-79 24v15h141v110H156v31h344v78H219v31h281v63H234v15h32c93 13 166 21 218 24l110 15c32 5 68 15 109 32v7h47l47-31h16v-8l-22-23h-5l-11 16c-8 0-16-3-25-8l-172-39h-15v-63h156l47 24 25 23c42-13 70-32 84-55v-23H563v-78h226l59 62h4c13-18 31-31 54-39l32-31v-23Z"/></symbol><symbol id="摷_T" viewBox="0 0 1000 1000" data-size="22"><path transform="matrix(1 0 0 -1 31 969)" d="M844 859c-16 0-32-2-47-7-42-24-63-42-63-55l63-24 31-31v-54h-39c-5 0-21 26-47 78l-39 36c0 3 3 7 8 11l31 62 16 16c5 15 8 31 8 47 36-13 62-32 78-55v-24m-172 0c-42 0-84-15-125-46v-16c10 0 20-3 31-8l63-62v-32l-24-23h-8c-3 0-10 5-23 16-39 78-63 117-70 117l23 23c3 13 21 42 55 86 0 5 3 8 10 8l52-24 16-15v-24m-203 0c-16 0-32-2-47-7l-63-47c39-23 63-42 71-55l23-53-23-25h-8c-3 0-11 5-24 16-39 76-62 114-70 114 0 3 3 7 8 11l55 109v16h7c8-13 32-32 71-55v-24M938 63c-8 0-21-5-40-16-5-11-7-21-7-31-5 0-11 2-16 7-83 24-167 84-250 180V16h-62v187C479 110 375 47 250 16v31c15 0 31 3 47 8 52 42 83 62 94 62l125 133H250v31h313v360c2-5 20-11 54-16h39v-23l-31-28V281h195l24 20v27c-21 0-42 3-63 8-36 5-72 8-109 8v31h109v94h-93v31h93v94h-93v31h93v8l16 15c0 5 5 8 16 8h23c13-12 20-18 23-18 0-15-2-30-7-44-5-8-8-16-8-24V328h8l15 16 71-67v-27H641c47-83 146-135 297-156V63M531 344H414c-8 0-16-3-23-8-37-13-55-21-55-23h-8v328h24l29-32h5l52 24 23 23h70v-31l-125-47h-15v-78h39l43 47h4l54-51v-27H391v-94h39l43 47h4l54-51v-27M344 711l-20-23H203V469c29 10 63 31 102 62h8v-23l-63-63-47-23V55c-13-23-41-42-83-55h-5c-5 8-18 21-37 39-21 5-41 8-62 8v31h125v297l-55-31c-5-16-8-32-8-47H55c-23 17-42 42-55 73l16 13 125 39v266H16v31h125v219h47l31-16h15v-31h-31V719h24l46 47h16l55-55Z"/></symbol><symbol id="摾_T" viewBox="0 0 1000 1000" data-size="22"><path transform="matrix(1 0 0 -1 31 969)" d="M938 38c-5-1-11-9-16-22V0h-27c-1 5-5 11-12 16l-24 70v23c-10 0-20-2-31-7-86-24-167-42-242-55h-39c0-11-3-21-8-31L523 0h-3c-1 5-5 11-12 16l-16 62c-5 5-8 11-8 16 26 0 52 3 79 8 13 5 26 7 39 7h70v204h-78c0-11-3-21-8-32l-16-15h-39v312h24l27-31h90v125h-63c0-11-2-21-7-31l-16-16h-39v297l55-31h211v31l62-24 16-15v-24h-32V750l32-62v-16H734V547h94v31l63-23 15-16v-23h-31V391l31-63v-15H734V125h39l47 16h24v23l-24 24-23 46h23c47-41 84-104 110-187 5-3 8-6 8-9M531 656H344v-86l-16-78v-39h102l31 31h16l39-39v-15l-24-24h-8V172c-18-63-31-104-39-125l-23-24c-40-13-59-20-59-23h-11c-13 11-21 21-24 31v16c-5 0-21 5-47 16h-15v31c3 0 10-5 23-16h86c3 0 10 5 23 16l16 31c13 117 21 176 24 176v121H313v-31h-47v93c-55-31-83-51-86-62h-8V51c-11-7-21-16-31-28C104 10 86 3 86 0h-8v16c-5 13-10 20-15 23L16 55C5 68 0 75 0 78h109v313H86c-13-11-21-21-23-32v-15H31L0 422v16c26 0 52 2 78 7 11 5 21 8 31 8v250H16v31h93v204h47l32-16h15v-31h-31V766h8l31 31 70-66v-4l-19-24h-90V484l94 47h15v63l16 125h8l31-31h102v187H305l-24 23v8h157v8l26 24 52-24 15-16v-23h-31V711l31-27v-28m266 47v156H609V703h188m16-359v172h-79V344h79m-141 0v172h-78V344h78M281 484v16h-15v-16h15Z"/></symbol><symbol id="撝_T" viewBox="0 0 1000 1000" data-size="22"><path transform="matrix(1 0 0 -1 39 969)" d="M922 356c-13-28-21-48-24-59-5-8-7-16-7-24V156c-13-36-21-62-24-78-8-23-21-42-39-55-41-13-62-20-62-23h-16c0 37-10 63-31 78h94v16l15 31v63h-8l-15-16h-39c-11 65-32 104-63 117v24c31-11 63-32 94-63 11-26 16-42 16-47h31v141H398l-15-16-16-62c-37-83-83-146-140-188h-24c59 57 98 130 117 219 17 78 25 117 24 117v305l54-47h258c42 37 73 84 94 141v46c-11 0-21-2-31-7-49-13-83-21-102-24h-39v-23c18-13 31-32 39-55 5-3 8-5 8-8-5-3-11-11-16-23v-16h-23c-5 0-21 26-47 78l-39 32h-16c-5 0-20-5-46-16h-16v-8l31-31v-70h-47v23l-31 78c-26 5-52 8-78 8 0 2 5 10 16 23l109 16c105 15 178 31 219 47 31 7 57 17 78 31v8h23l55-24 16-15-20-24h-4l-16 16h-7v-31h23c34-11 52-16 55-16-3-15-21-31-55-47 0-5-29-42-86-109h24l27 31h27v-15l16-32v-23l-24-24c-10-15-20-41-31-78-5-5-8-10-8-15h39l28 31h27c0-11 3-21 8-31l23-24c-10-13-20-20-31-23h-15c0-21-3-42-8-63-5-10-8-20-8-31h39l31 31h16l39-39v-11M719 151l-24-26h-15l-16 16c-5 26-21 62-47 109l-23 31h23l78-78 24-52m-125-49-20-24h-27l-24 125-23 47c25-10 40-21 47-31l47-78v-39M328 531l-47-54-93-55V70c-14-23-42-41-84-54h-4c-5 7-18 20-37 39-16 5-32 8-47 8v31h109v297l-55-32c-5-10-7-20-7-31H39l-16 16-23 47v31c26 0 52 3 78 8 16 5 32 8 47 8v250H0v31h125v219h47l31-16h16v-31h-31V719h23l47 47h15l40-39v-39H188V469l78 39 23 23h39m125-336L414 94l-31-31h-39v39c63 44 94 93 94 148h15v-55m266 422v24H406V516h282l31 101m62-133H406c0-26-3-52-8-78-5-10-7-20-7-31h359v23l31 86Z"/></symbol><symbol id="敏_T" viewBox="0 0 1000 1000" data-size="22"><path transform="matrix(1 0 0 -1 31 969)" d="M938 63c-11 0-21-3-32-8l-39-39-140 156c-13 11-21 16-24 16-37-79-104-136-203-172h-31v15c16 0 41 13 78 39 89 83 136 136 141 160l-55 145-24 94v78h16c8-83 31-167 70-250l16-16h8c31 67 54 150 70 250l21 127c1 4 2 6 3 6v24H648l-93-157-39-31c73 130 114 271 125 422h78v-24l-24-23-31-125c-5-11-8-21-8-31h149l58 62h4l55-50v-43h-63V586c-11-47-19-86-23-117-4-28-20-80-47-156l-39-79v-23c41-60 104-104 188-133V63M563 172H422v-24l-24-70c-18-26-31-42-39-47L266 0c0 11-3 21-8 31-34 16-52 32-55 47h125l31 55v39H47l31 195v39H0v32h39c31 5 47 10 47 15 13 125 20 188 23 188v47H94c0-16-13-42-39-79l-39-31v16l70 140 39 164v40h55l23-20v-4l-23-23-16-63c-5-5-8-10-8-15h266c0 10 3 20 8 31l39 31h8l70-70v-24H141v-15l-16-32c-5-14-11-21-16-21v-5l39-36h258c3 0 11 5 24 16 5 10 8 20 8 31h7l55-55v-23h-31c0-50-3-92-8-126-5-33-8-59-8-77h8l47 46 23-23c11-5 21-8 32-8v-23l-20-24h-90c0-31-3-62-8-93-5-16-7-32-7-47v-63l54 47h16l55-55v-23M406 457v184h-93v-39c-13-71-21-115-24-133-5-11-8-21-8-31h102l23 19M250 594v47h-94v-86l-15-78v-39h74c1 5 5 10 12 15l23 141m141-274v86H281l-31-164v-39h125v39l16 78m-172 63v23h-71l-15-15-24-188h79c0 13 2 34 7 63 8 43 16 82 24 117Z"/></symbol><symbol id="敬_T" viewBox="0 0 1000 1000" data-size="22"><path transform="matrix(1 0 0 -1 31 961)" d="M938 47c-16 0-32-3-47-8-11-18-16-31-16-39-75 42-135 105-180 188C620 94 539 31 453 0v23c73 33 146 104 219 215 0 4-3 8-8 12l-16 47-15 31-39 141v94h15l55-219c7-26 20-42 39-47v16c19 31 38 93 55 187 7 49 14 98 23 148v40H617l-78-125-16-16h-23c57 94 94 188 109 281v94h94v-31h-31v-24c-18-70-31-114-39-133-5-5-8-10-8-15h164l59 62h4l54-50v-43h-78V570c-23-138-52-239-86-304-5-8-8-16-8-24v-31c57-75 125-125 204-148V47M531 805l-19-24H391c0-21-3-41-8-62-7-5-11-11-12-16h-43v78H188c0-21-3-41-8-62-7-5-11-11-12-16h-43v78H0v32h125v109h70l24-20v-4l-31-27v-58h140v109h70l24-20v-4l-31-27v-58h31c0 10 3 20 8 31l31 31 70-66v-4m-47-250-23-24-16-265-15-125-16-63c-13-26-20-39-23-39L308 0c-2 1-9 7-19 16-5 10-8 20-8 31-5 0-21 5-47 16h-15v15h125v8c13 18 20 31 23 39 14 65 22 98 24 98v324H109c0-11-2-21-7-31l-24-24v-39h16l31-15h125v31l63-24 15-15v-24h-31V266l31-55v-8H125v-62c-11 0-21-3-31-8-3-5-7-8-10-8-11 13-18 20-21 20v308h-8l-32-31H0c31 34 55 86 70 156 5 23 8 54 8 94l63-16h31v-31h-31v-16l-16-31h273c13 11 21 21 24 31v16l47-31h15v-39M234 234v172H125V234h109Z"/></symbol><symbol id="旣_T" viewBox="0 0 1000 1000" data-size="22"><path transform="matrix(1 0 0 -1 47 969)" d="M906 55c-5-3-10-11-15-24V16H664l-23 19v324h-16C594 208 490 89 313 0c182 151 281 313 296 484H438l46 305v39c-15 0-31 3-46 8-11 13-16 20-16 23h328v8l47 47c0 5 3 8 8 8 13-18 31-31 54-39l32-31-20-24H703v-47c-13-109-20-187-23-234-5-11-8-21-8-31h70l59 62h4c13-18 31-31 54-39l32-31v-24H672v-7l-16-16v-23h63v-16l-16-31V78h121c2 5 5 11 12 16 13 36 20 62 23 78v31h16V102c13-19 21-32 23-39 5-3 8-5 8-8M406 781h-31V453h-62v47H78c0-11-3-21-8-31l-15-16H16v391h23l31-31h47l16 15c13 63 20 94 23 94v16h32l31-16h15v-31c-7 0-20-5-39-16l-39-62h168l26 31 41-24 15-15v-24m0-593c0-8-37-32-109-71C146 70 68 47 63 47c0-11-3-21-8-31C42 5 34 0 31 0v16L0 65v15l16 29v329h70l23-20v-4l-31-27v-59h164l59 63h4c13-19 31-32 54-39l32-32v-23H78V109h24c49 13 83 21 101 24 26 10 63 20 110 31 26 13 39 21 39 24h54m219 398v242h-78v-15c-3 0-21-89-55-266-5-11-8-21-8-31h125v23l16 47m-312 86v109H78V672h235m0-141v110H78V531h235Z"/></symbol><symbol id="晉_H" viewBox="0 0 1000 1000" data-size="21"><path transform="matrix(1 0 0 -1 48 957)" d="M32 873c29-7 67-11 114-11h578l46 51c24-19 47-36 69-53 6-4 10-8 10-12 0-9-6-14-17-14H560V635h147v76c0 34-2 60-6 78 30-5 55-11 74-17 7-2 10-6 10-11 0-4-2-6-6-9-7-4-15-7-25-9v-94c10-8 19-15 27-21 3-2 4-4 4-7 0-8-3-13-9-13H560v-98h214l47 54c26-19 51-38 74-56 5-3 8-7 8-12 0-8-5-13-14-13H115c-47-1-78-3-94-6L0 522c29-8 67-12 115-12h198v98H156c-5-7-13-10-24-10-16 0-25 6-25 18 0 8 2 19 4 32 2 14 3 26 3 38v30c0 32-2 57-6 73 32-4 58-10 79-16 7-2 10-6 10-11 0-4-3-7-9-9-8-5-17-8-28-10v-54c0-15 0-25 1-29 1-10 1-18 1-25h151v199H146c-46-1-78-3-95-6l-19 45m328-363h151v324H360V510m-213-88 61-28h477l33 31c34-24 51-40 51-49 0-6-10-14-30-23V76c0-15 1-26 1-30 1-5 1-10 1-15 0-14-11-23-34-27-10 0-15 3-15 10v51H196V22c0-7-4-12-11-16-11-4-19-6-26-6-8 0-12 5-12 14 0 3 1 8 1 14 1 15 1 28 1 41v287c0 32 0 54-2 66m49-330h496v121H196V92m0 149h496v125H196V241Z"/></symbol><symbol id="暑_T" viewBox="0 0 1000 1000" data-size="22"><path transform="matrix(1 0 0 -1 47 961)" d="m906 430-19-24H656v-15c8 0 21-5 39-16 5-11 8-21 8-31h8l16 15 23-23c11-5 21-8 31-8v-23l-23-24h-8V16h-16L708 0l-20 31v16H297V16c-5 0-21-5-47-16h-16v281c-15 0-31-3-46-8-47-10-105-20-172-31-5-5-11-8-16-8v32c29 0 55 2 78 7 105 24 183 45 235 63 63 22 100 38 109 47 15 5 31 8 47 8v15H23L0 430v8h375v93H125v32h250v78H234v-32c-10 0-20-2-31-7-3-5-7-8-10-8-10 12-17 19-21 19v309h23l28-31h465v31h39l15-16c5-2 8-3 8-3 0-15-3-29-8-44-5-7-8-15-8-23V617l-19-23h-43v47H406v-16h63v-31h-31v-31h70l58 62h4l39-39c11-5 21-8 32-8v-47H438v-93h93c91 36 188 114 289 234l24-24c26-10 42-20 47-31v-4c-5-2-11-5-16-11L688 477l-63-24v-15h133l58 62h4c13-18 32-31 55-39l31-31M672 781v78H234v-78h438m0-109v78H234v-78h438m-16-344-31 55-51 23c-9 0-18-3-27-8-26-5-62-20-109-46-16-5-32-8-47-8v-16h265m32-125v94H297v-94h391m0-125v94H297V78h391Z"/></symbol><symbol id="暜_T" viewBox="0 0 1000 1000" data-size="22"><path transform="matrix(1 0 0 -1 31 969)" d="M906 766H523l-23 23v8h188c0 5-3 11-8 16-8 47-21 83-39 109v16l54-32 24-47c5-14 10-21 15-21v-5l-31-28v-8h70l59 62h4l70-66v-27m32-313H469v31h265v16c31 71 47 144 47 219l63-16h31v-31h-31l-78-172v-16h39l58 63h4l71-66v-28m-282 70-19-23h-4l-39 35v113c0 8-3 16-8 24-5 15-8 31-8 47 3 0 11-5 24-16l54-109v-71M234 833l-23-20h-39v78l-16 31v16c47-30 73-63 78-100v-5m172-67H31v31h250v8l47 47c0 5 3 7 8 7l70-66v-27m32-313H0v31h219v16l39 78c10 37 20 83 31 141l8 8v7h10c27-10 50-15 68-15v-31h-31l-24-79c-18-21-41-62-70-125h55l58 63h4l71-66v-28m-282 86-23-23h-16l-23 24v19c10 28 15 43 15 46 0 11-2 23-7 36-13 52-21 78-24 78v15c3 0 11-5 24-15 26-47 41-84 46-110 5-7 8-15 8-23v-47m610-211h-32V23L715 0h-43v47H242l-27-31h-43v375l55-32h461v32l62-24 16-15v-24m-94-109v109H234V219h438m0-141v110H234V78h438Z"/></symbol><symbol id="書_T" viewBox="0 0 1000 1000" data-size="22"><path transform="matrix(1 0 0 -1 54 961)" d="m891 726-20-23H719v-55l31-27v-28H453v-78h211l47 47h31l55-55v-23H453v-62h289l47 46h31l55-54v-24H16v32h375v62H78v31h313v78H125v32h266v78H0v31h391v78H109v31h282v79l62-16h31v-31h-31v-32h219v32l62-24 16-15v-24h-31v-78h23l47 47h8l62-24 32-31M688 281h-32V0h-62v47H266c0-11-3-22-8-32L242 0h-39v343h24l27-31h355v31l63-23 16-16v-23m-32 453v78H453v-78h203m0-109v78H453v-78h203m-62-438v94H266v-94h328m0-109v78H266V78h328Z"/></symbol><symbol id="最_T" viewBox="0 0 1000 1000" data-size="22"><path transform="matrix(1 0 0 -1 39 961)" d="M797 859h-31V609h-16l-26-15-21 31v16H219v-32c-11 0-21-2-31-7-3-5-7-8-10-8-11 12-18 19-22 19v309h24l31-31h500l28 31 42-24 16-15v-24M922 63c-11 0-21-3-31-8l-47-39-125 54-47 39c0-3-52-31-156-86L453 0v31c63 13 125 52 188 117-73 86-115 177-125 274h-32v31h289c8 0 16 3 24 8v8h44c0-1 2-4 3-8l31-31v-24h-31c-8-48-32-105-71-172-22-38-40-61-54-70v-23l140-55c21-5 42-8 63-8V63m0 484H422V16h-63v156l-250-63H78V63H51c-2 5-5 10-12 15-13 42-20 63-23 63v15c26 0 52 3 78 8 5 7 10 10 15 12v371H23L0 570v8h766l47 24 15 15c0 5 3 8 10 8 41-13 69-32 84-55v-23M703 781v78H219v-78h484m0-109v78H219v-78h484m78-250H547c13-73 31-125 55-156 21-16 41-42 62-78h24l70 140 23 94m-422 31v94H172v-94h187m0-125v94H172v-94h187m0-105v74H172V172h16c21 8 73 21 156 39 5 7 10 11 15 12Z"/></symbol><symbol id="肭_T" viewBox="0 0 1000 1000" data-size="22"><path transform="matrix(1 0 0 -1 39 953)" d="m922 679-24-23h-7V39l-16-16-47-23h-47v15c-5 13-10 21-15 24l-47 15c-11 13-16 21-16 24h125v219h-39l-27-32h-4c-31 21-63 63-94 125l-16 47c-13 10-20 16-23 16 0-29-42-84-125-164l-62-24c65 52 114 125 148 219 13 52 20 78 23 78v63l-15 31v16H422V23L402 0h-43v750h8l47-47h180v94l15 31v15H500v32h125v31h23l40-35v-28c-11 0-21-3-32-7l-15-16V703h203v31h23l55-51v-4M328 820l-23-23h-8V39l-16-16-47-23h-46v15c-5 13-11 21-16 24-16 5-32 8-47 8v31h109v281H109v-39c-13-71-20-115-23-133L39 47C30 20 17 5 0 0c0 10 3 20 8 31l15 62 16 94c10 57 16 110 20 161l4 54v488l54-47h102l39 32h15l55-55m500-492v344H641v-24c13-50 20-83 23-101l16-32 15-47c42-52 63-83 63-93l47-47h23M234 625v187H125V625h109m0-235v203H125V390h109Z"/></symbol><symbol id="㨮_T" viewBox="0 0 1000 1000" data-size="22"><path transform="matrix(1 0 0 -1 31 969)" d="M922 437H766v31h62v297h-94V406c-5 0-20-6-46-16h-16v63H563v-47h-63v422l-94-47h-15V500h47l31 15h15v-23c0-3-31-21-93-55h-16v-31h-23c-8 0-21 20-39 62v16l-79-55c-10-5-20-7-31-7V50c-11-6-21-15-31-27-37-13-55-20-55-23h-8v15c-5 13-10 21-15 24L47 54C36 67 31 75 31 78h110v297h-39c-7 0-21-21-43-63h-4l-16 16-39 78h23c45 12 73 20 86 23 11 5 21 8 32 8v250H0v31h141v204c7 0 31-5 70-16h23v-24l-31-27V718h24l46 47h8l39-31h8v109l39-31h24l70 63h8l47-32h15c0-3-5-10-15-23v-8c5 0 20-5 47-15h15v39c11 59 16 93 16 101h54l24-19v-4l-24-24-39-93h55l31 31h24l39-31h62l34 31 52-24 16-15v-24h-31V492l31-27v-28m16-399-24-23H680l-24 24v289H547v-94c-13-37-21-63-24-78 0-8-28-42-85-102L289 0h-39v15c57 13 104 31 141 55l70 70c13 39 20 59 23 59v176c11 0 42-5 94-16h63c23 11 35 16 37 16 2-6 12-11 33-16h23v-16l-15-31V78h156c0 10 3 20 8 31 5 20 8 41 8 63h31c0-31 3-63 8-94 5-14 8-27 8-40M672 640v125H563V640h109m0-156v125H563V484h109m-344 31v172H203V468l110 47h15m0-31v16h-15v-16h15Z"/></symbol><symbol id="㩬_T" viewBox="0 0 1000 1000" data-size="22"><path transform="matrix(1 0 0 -1 23 969)" d="M906 734h-62c0 26-3 52-8 79l-23 46h23c39-31 63-62 70-93v-32m47-700c-4 0-11-6-21-18h-5c-71 41-122 104-154 187-7-23-41-62-101-117-18-3-41-21-70-55h-24l117 125c39 65 63 97 71 97 0 4-3 9-8 13l-39 195v133h-94v15h23c34 11 53 16 55 16v313h55l15-16c5-1 8-1 8-2v-15l-15-30V625h31l55 31c5 11 7 21 7 32h24l23-24c11-5 21-8 32-8v-31h-16l-31-16H781v-7c-10-11-15-18-15-20v-41c13-77 20-127 23-150 5-16 8-32 8-47h16l46 148v24c2 0 21-5 55-16h24v-31h-32c-21-82-52-146-93-192 13-37 31-78 54-121l16-15h4c2 5 5 10 11 15l16 63c13 10 21 15 24 15V78l15-29V34M703 328c-8 0-21-5-39-15-29-79-62-126-101-141v16c10 7 31 62 62 164 0 5 5 7 16 7h31l31-23v-8m-15 379c-5-1-11-5-16-12l-47-15c-5 0-11-11-16-32-15-21-31-31-46-31l-79-15-15-16v-55h156v-62H430l-24 19v90c-10 0-20 3-31 8-11 13-16 20-16 23h47v110h-62V453c-1-9-7-40-16-91v-45c3 0 11-7 24-20 10-16 20-42 31-78 5-8 8-16 8-24v-31l-24-23h-15l-24 23v102h-15l-24-94c-31-73-63-125-94-156h-23l55 109 15 47 16 78c8 41 14 80 18 117l5 39v266H172V484l62 24 32 23v-23l-86-86h-8V51c-11-7-21-16-31-28C104 10 86 3 86 0h-8c0 8-5 21-15 39L0 63v15h109v313H94v-47H70l-15 15-24 47v32c21 0 42 2 63 7 5 7 10 11 15 12v215H31v31h78v219h47l32-16h15v-31h-31V734h8l31 32 62-63h8v94h8l47-47h70v188c8 0 32-5 71-16h23v-31h-31v-47h54l32 31c5 11 8 21 8 31h23l70-66v-27H469v-63h140v31h24l55-50v-24m-47-566L484 86 375 63V16h-23l-16 15-39 78h109v329h55l23-24v-8h-31V125l31 16h16v297h55l23-20v-4l-31-27V156c8 0 31 5 70 16h24v-31m-47 570v8H469v-94c34 11 63 32 86 63l23 7 16 16Z"/></symbol><symbol id="㫤_T" viewBox="0 0 1000 1000" data-size="22"><path transform="matrix(1 0 0 -1 63 953)" d="m750 867-23-24h-8V586l-20-24h-43v47H188v-47h-63v344l55-31h492v31h39l39-35v-4M516 476l-20-23h-4c-26 20-42 41-47 62-57 47-86 73-86 78h32c62-24 104-52 125-86v-31M875 62c-8 0-21-5-39-15-5-11-8-22-8-32h-31C614 88 505 193 469 328h-16V39L414 0h-47l-23 23-47 16c-11 12-16 20-16 23h110v360H156v31h235v8l15 15c0 5 5 8 16 8h8l54-50v-6c-10-9-15-13-15-14v-39l23-47c6 0 21-21 44-63 78 57 118 86 120 86 12 29 31 52 57 71l53-24c10-13 15-20 15-23-16 0-31-3-47-8-5-21-62-62-171-125 49-54 85-86 109-94l203-70V62M328 320C291 223 192 121 31 15H0l180 172 54 125H31v31h219v8l16 16c0 5 2 8 7 8l55-51v-4m328 430v93H188v-93h468m0-110v78H188v-78h468Z"/></symbol><symbol id="㬈_T" viewBox="0 0 1000 1000" data-size="22"><path transform="matrix(1 0 0 -1 47 929)" d="M797 797h-31V422h-63v31H414l-27-31h-43v437h23l31-31h313l28 31 42-23 16-16v-23M906 23 883 0H250l-31 23v8h94v360h7l47-47h383v31l63-24 15-15v-24h-31V31l39 31h31l39-39M281 773l-23-23h-8V125c-11 0-21-3-31-8-3-5-7-8-10-8h-3c0 5-4 11-11 16-5 15-7 31-7 47H63V94c-5 0-21-5-47-16H0v750h8l47-47h148v31h39l39-35v-4m422-289v313H547v-16c21 0 41-3 62-8l16-15v-8c-8 0-21-5-39-16l-16-47c-5-3-7-7-7-11 5-7 20-16 46-28l63-62v-55h-24c-41 52-62 83-62 94l-31 31c-11-5-21-21-32-47l-78-78h-23c52 45 94 125 125 242l-20 24H406V484h297m31-453v281h-78V31h78M188 500v250H63V500h125M609 31v281h-93V31h93m-140 0v281h-94V31h94M188 203v266H63V203h125Z"/></symbol><symbol id="㬈_P" viewBox="0 0 1000 1000" data-size="22"><path transform="matrix(1 0 0 -1 47 929)" d="M797 797h-31V422h-63v31H414l-27-31h-43v437h23l31-31h313l28 31 42-23 16-16v-23M906 23 883 0H250l-31 23v8h94v360h7l47-47h383v31l63-24 15-15v-24h-31V31l39 31h31l39-39M281 773l-23-23h-8V125c-11 0-21-3-31-8-3-5-7-8-10-8h-3c0 5-4 11-11 16-5 15-7 31-7 47H63V94c-5 0-21-5-47-16H0v750h8l47-47h148v31h39l39-35v-4m422-289v313H547v-16c21 0 41-3 62-8l16-15v-8c-8 0-21-5-39-16l-16-47c-5-3-7-7-7-11 5-7 20-16 46-28l63-62v-55h-24c-41 52-62 83-62 94l-31 31c-11-5-21-21-32-47l-78-78h-23c52 45 94 125 125 242l-20 24H406V484h297m31-453v281h-78V31h78M188 500v250H63V500h125M609 31v281h-93V31h93m-140 0v281h-94V31h94M188 203v266H63V203h125Z"/></symbol><symbol id="㬙_T" viewBox="0 0 1000 1000" data-size="22"><path transform="matrix(1 0 0 -1 54 961)" d="m891 382-24-23-15-156c-3-32-14-79-32-141-13-26-21-39-23-39L734 0h-23l-39 39c-21 5-42 8-63 8v31c8 0 32-6 71-16h62l31 31 16 79c9 43 15 83 19 122 3 28 4 42 5 42v39H406c-18-74-73-168-164-282h-23c87 107 162 279 226 516 17 62 26 94 24 94v15H328v32h78c0 5-3 9-8 15-2 42-20 83-54 125h23l86-82v-35l-15-16v-7h27c1 5 5 9 12 15 13 89 20 133 23 133v24h78v-32h-31v-39c-11-60-16-94-16-101h164l28 31h4l54-51v-4l-39-39-15-78c-5-11-8-21-8-31h39l27 31h4l55-51v-4l-39-39-16-78c-5-10-8-20-8-31h24l31 31h16l39-39v-16M750 203h-47c-11 47-31 83-62 109h39c13-15 31-31 54-47l16-31v-31m-78-39c-5-3-11-11-16-24v-15h-27c-1 5-5 9-12 15-18 73-41 126-70 157h23c52-42 83-84 94-125 5-3 8-5 8-8m-109-49-24-22h-39v102c0 8-3 16-8 23-13 42-20 63-23 63v16l39-32c23-35 42-83 55-144v-6M281 781h-31V187h-62v63H63c0-26-3-52-8-78-7-5-11-11-12-16H0v703c39-15 63-31 70-47h125l30 31 41-23 15-16v-23m157-602L398 78c-13-11-20-16-23-16h-23l-24 24c63 70 94 135 94 195h16V179m250 539H516v-31l-32-109h188v39c11 60 16 94 16 101m62-171H469l-24-94-23-47h312v39c11 60 16 94 16 102m-562 0v234H63V547h125m0-266v234H63V281h125Z"/></symbol><symbol id="䏙_T" viewBox="0 0 1000 1000" data-size="22"><path transform="matrix(1 0 0 -1 31 969)" d="M938 70c-5-3-11-10-16-23V31H648l-23 20v480h-16c0-42-2-73-7-93l-32-125C541 194 455 89 313 0v23l117 118c58 77 94 161 109 250l16 93c7 44 13 87 18 129 3 28 4 43 5 43v32H438v-32c-13-47-21-73-24-78l-8-8-31-15c-3-5-7-8-10-8-10 13-17 19-21 19v20l23 23 39 79v78c3 0 11-5 24-16 5-11 8-21 8-31h140v219h94v-24l-24-23h-7V766l-16-32v-15h195c13 10 21 20 24 31v16h8l70-71v-23c-13 0-32-5-55-16l-70-140h-16l32 140v32H625V539l16-16c21-5 41-7 62-7v-16l-15-31V94h167c1 5 5 10 12 15l24 71v23h15v-86c13-18 21-31 24-39 5-3 8-6 8-8M344 867l-24-23h-7V66c-11-6-21-15-32-27l-47-16c-3-5-7-7-11-7-9 10-16 20-20 31v16c-5 0-21 5-47 15h-15v16h109v265H109v-23c-13-59-20-103-23-133-3-25-21-83-55-172V16H0c0 5 3 10 8 15l15 63 16 94c10 57 16 110 20 160l4 54v536h7l47-47h149v31h23l55-51v-4m-94-226v218H125V641h125m0-250v218H125c0-15-3-31-8-46-5-8-8-16-8-24V391h141Z"/></symbol><symbol id="𢬌_T" viewBox="0 0 1000 1000" data-size="22"><path transform="matrix(1 0 0 -1 47 961)" d="M781 672h-43c-2 5-5 11-11 16l-16 46-55 63h39c11-16 32-32 63-47l23-47v-31M906 78c-16 0-31-3-47-8-10-18-15-31-15-39-78 16-146 53-203 110-92-62-149-96-172-102l-94-23c0 3 5 10 16 23 93 38 166 84 218 139 0 3-2 7-7 10-16 15-42 62-79 140l-23 94h-16C448 255 370 130 250 47v23c104 91 177 261 219 508H367l-23 24v7h125v24l15 47v133H344c0 2 5 10 15 23l141 16 109 15 125 31 32 16c0 5 5 8 15 8l63-31h15v-32h-46c-68-13-105-20-110-23-89-13-133-21-133-23h-23c0-31-3-63-8-94-5-16-8-32-8-47v-63h211l59 63h4c13-18 31-31 54-39l32-31-20-24H516c0-10-5-41-16-94v-31h242c14 11 22 21 24 31v16h7c8-13 32-31 71-55-13 0-52-70-117-211l-39-39v-15c33-29 95-55 187-78 13-5 23-8 31-8V78M359 508c-31-16-62-42-93-78l-63-39V51c-11-7-21-16-31-28L125 8c-4-5-8-8-12-8-9 11-15 21-19 31v16H70C37 58 19 63 16 63v15h125v281l-63-31H63v-47l-40 32-23 62 117 31h24v266H0v31h141v219h47l31-16h15v-31h-31V703h24l58 63h4l70-67v-4l-19-23H203V453c40 5 84 31 133 78l23-19v-4m391-86H516c31-99 73-167 125-203l39 31c39 68 62 125 70 172Z"/></symbol><symbol id="𢯱_T" viewBox="0 0 1000 1000" data-size="22"><path transform="matrix(1 0 0 -1 31 969)" d="M938 754c-5-1-11-5-16-12-16-5-32-8-47-8 0-15-18-41-55-78-5-16-7-31-7-47h-8l-16 16-23-23-63-24c63-63 125-94 188-94v-15c-5 0-21-5-47-16h-16v-31c-5 0-21 5-47 16h-15c0-3 5-11 15-24 11-5 21-8 32-8v-47h-32c0-15-3-31-8-46-23-53-63-105-117-157 99-47 188-73 266-78-3-15-21-31-55-47-5-10-8-20-8-31L703 70l-78 55h-16c-10-13-41-31-93-55L313 16c0 3 5 10 15 23l250 125c-57 49-93 114-109 195h-47v32h312c0 10 3 20 8 31l24 23c-73 45-115 94-125 149-5 0-31-29-78-86-11-14-84-42-219-86v31h23c39 19 73 32 102 39 34 19 63 42 86 71l23 46v141c5 0 11-3 16-8l62-15 16-16v-8h-31v-47l23-47c13-10 21-15 24-15l39 31 23 63h8l31-32h24v24l15 47v39H422v-16c-13-31-21-52-24-62l-25-32h-3c-3 0-7 3-11 8-10 5-20 8-31 8v27c3 0 21 17 55 51 13 42 20 63 23 63v15h16v-31h187v39c0 8-2 16-7 23-13 42-21 63-24 63v16l55-47c15-52 23-83 23-94h180l31 31h16l55-55v-19M516 563h-24c-23 18-41 41-54 70-11 5-21 8-32 8v15h47l47-23 16-16v-54m-219-63c-26-41-62-73-109-94V51c-11-7-21-16-32-28-36-13-54-20-54-23h-8v16c-5 13-11 20-16 23-41 13-62 21-62 24H0v15h125v281H86c-13-10-21-20-23-31v-15H31c0 10-3 20-8 31L0 367v24h16c36 13 62 20 78 23 10 5 20 8 31 8v250H0v31h125v235c8 0 31-5 70-16h24v-24l-31-27V719l39 31h15l55-55v-23H188V453l93 47h16m422-141H484c29-67 73-124 133-171 49 47 83 104 102 171Z"/></symbol><symbol id="𣀊_T" viewBox="0 0 1000 1000" data-size="22"><path transform="matrix(1 0 0 -1 31 969)" d="M938 47c-33 0-63-10-89-31-8 0-38 42-91 125l-24 62L578 39l-62-23c93 85 156 167 187 247 0 6-3 12-8 18l-31 94-31 156c-17 83-25 125-24 125v16c-7 0-31-26-70-78-5-16-8-32-8-47h-31v-78h31c0 10 3 20 8 31l16 16h23c0-11 3-21 8-32l23-23v-23H500v-71l31-27v-27H359v-24c24-8 63-42 118-101l23-47v-32h-62c0 26-13 63-40 110l-39 31V16h-46v297h-63V16h-16L203 0v203h-15c0-10-3-20-8-31l-78-78H78l70 125 24 82-31 35v8h62v94h-78v-40c-13-81-21-135-23-164-16-62-42-124-79-187C10 36 3 31 0 31c0 11 3 21 8 32l31 125c13 104 21 156 24 156v390h7l47-46h71c-16 67-32 104-47 109v16H47v31h219v23l-47 43v28l78-32 16-15c5-15 10-22 15-22v-5l-15-12v-8h117l31 31c5 11 8 21 8 31 36-13 62-31 78-54v-39H375v-16h23c34-11 53-16 55-16 0-3-31-31-94-86v-7h63c0 10 3 20 8 31l39 31 70-62c5-11 8-21 8-32h16v16c10 8 31 63 62 164v102c3-5 21-11 55-16h39v-31h-31v-24l-47-133h164l58 63h4l71-66v-28h-94v-47c-13-89-21-146-24-172l-15-78-47-140c-5-2-8-6-8-9 34-43 52-72 55-85L938 47M781 570v133H641v-70l23-117c21-105 36-162 47-172l16-16h7v31l24 94c7 30 13 59 18 88 2 19 4 29 5 29m-234 63v23H359v-78h71l29 31h5c3 0 14-5 30-15h16l37 39M375 793c-13 9-20 16-20 20H156v-16c19 0 42-16 71-47 5-21 7-42 7-62h86l16 15 39 90m63-324v78h-79v-78h79M313 578v78h-63v-78h63m0-109v78h-63v-78h63m125-125v94h-79v-94h79M203 469v78h-47v31h47v78h-78V469h78m110-125v94h-63v-94h63Z"/></symbol></svg>