<svg xmlns="http://www.w3.org/2000/svg"><symbol id="爨_T" viewBox="0 0 1000 1000" data-size="22"><path transform="matrix(1 0 0 -1 31 977)" d="m938 633-20-23h-4c-2 1-6 7-12 15h-4l-54-50v-4l31-28v-27H672c0-2 5-10 16-23l62-16c22-5 41-18 55-39l15-47c0-2 13-10 39-23l47-47v-24H656v-15c68-45 146-73 235-86 10-5 20-8 31-8v-8l-58-55-114 55-31 24v-32h-24l-86-31c0-2 5-10 16-23 37-13 89-23 156-32 26-5 47-7 63-7l-31-63V0c-5 0-11 3-16 8-104 19-208 63-313 133h-15C398 83 325 49 250 39L125 24c-11-5-21-8-31-8v31c39 0 71 3 94 8 91 21 144 40 156 55h15v15c-10 0-20 3-31 8l-72 71-158-63H31v16c104 29 167 52 188 70 36 18 62 41 78 70H55l-24 24v8h203v125h-23l-23-24c-27-11-42-21-47-31-31-8-63-21-94-39H31v31c68 11 125 53 172 125H94v31h140v78l63-15h31v-31h-31v-32h39l47 47h15l55-55v-23H297v-16l94-39c21-9 31-32 31-70 52 11 104 53 156 125h-94v31h125v78h47l32-15h15v-31h-31v-32h86l70 67v27H94v-23l-24-71-15-15H23L0 552c0 4 3 7 8 11 3 21 21 41 55 62v94h15c0-10 3-20 8-31l16-16h23v16l-16 31v203c-5 0-10 3-15 8v8h15l63-31 94 47h15c0-11 3-21 8-32 13-10 21-15 24-15v47l39-32h203l31 32 31-32c5-1 8-2 8-3v-14l-16-30V672h157v47H656v31h110v8l15 16v23H656v32h125v62H656v31h141v8l23 24 55-51v-4l-23-24-16-62c-5-11-8-21-8-31V672h24l27 32h4l55-51v-20m-375 39v219H359V672h204m250-297v16h-16v-16h16M313 672v219h-63c-11 0-21-2-31-8-21-5-42-8-63-8l16-31v-15l55 31h7l47-24 16-15v-24H172v-47h23l30 32h4l52-24 16-15v-24H172v-47h141m484-308v4l-78 78-47 23V344h-63v125c-17-25-63-54-140-86-12-5-28-8-47-8 0-3 5-10 16-23v-8h-32v-15h352l39 35M688 219v16h-16v-16h16m15-15v15h-15v-15h15M422 375v16h-31v-16h31m-47 24-70 70h-8V352l-16-16v-7h39c11 5 21 20 32 46l23 24m297-156-55 54H367l-70-70v-23c15 0 31-3 47-8 10-28 15-52 15-71l71 63c15 47 23 73 23 78 8 0 31-5 70-16h24v-31h-47c0-10-3-20-8-31-5-3-8-7-8-10l55-37h8l47 23 78 79M531 813H391v31h23c34 14 52 22 55 24 0 5 3 7 8 7 0-3 13-10 39-23l15-16v-23m16-109H438l-32-16h-15v109h156v-27c-10-6-15-9-16-11v-5c10-7 15-10 16-11v-39m-63 31v31h-62v-31h62Z"/></symbol><symbol id="爵_T" viewBox="0 0 1000 1000" data-size="22"><path transform="matrix(1 0 0 -1 86 969)" d="M703 875h-47l-187-31H78v31h266c73 13 125 21 156 23 47 11 83 21 109 32v8h36c17-21 36-32 58-32v-31m47-144c0-15-3-29-8-43-5-8-8-16-8-24V516h-62v31H78v-31H16v234h23l27-31h43l-39 78-23 31h39c11-15 31-31 62-47 5-21 8-41 8-62h203l-31 78v16h-31v15h39l62-62c5-16 8-32 8-47h149l93 94c5 10 8 20 8 31h78v-31c-10 0-20-3-31-8-63-55-94-83-94-86h79v31h42c9-13 16-19 20-19m78-387H688V51c-11-7-21-16-32-28-41-13-62-20-62-23h-16c0 8-5 21-15 39l-63 24v15h125v266H375v31h250v125h47l31-16h16v-31h-31v-78h23l59 63h3l55-51v-43M516 156h-47l-24 94-39 39v24l47-24 63-62v-71M391 86l-20-23H63c0-11-3-21-8-32L39 16H0v484l55-31h242v31h43c9-13 16-19 19-19 0-14-2-28-7-43-5-8-8-16-8-24V242l-16-14v-8l8-1 39-39v-24h-47v-8l63-62m281 492v110H516V578h156m-219 0v110H297V578h156m-219 0v110H78V578h156m47-203v63H63v-63h218m0-94v63H63v-63h218m32-62v8l-24 23H63v-62h195l23 23c11 5 21 8 32 8m0-71v8H63V94h195l55 54Z"/></symbol><symbol id="牐_T" viewBox="0 0 1000 1000" data-size="22"><path transform="matrix(1 0 0 -1 39 969)" d="m922 727-20-24H625V594h168l24 31 42-23 16-16v-23h-31V219h-16l-26-16h-3c0 5-3 11-10 16-5 26-8 52-8 78H625V16c-5 0-21-5-47-16h-15v297H391v-78c-11 0-21-3-32-8-3-5-6-8-9-8-11 13-18 20-22 20v168h-31V16c-11 0-21-3-31-8-3-5-7-8-10-8-11 13-18 20-22 20v371H109v-55L86 156 70 94C52 42 29 11 0 0v23c18 50 31 94 39 133 13 131 21 196 24 196v570h93v-24l-31-27V609h109v329c8 0 32-5 71-16h23v-31h-31V648l16-46v-24H125c0-13-5-52-16-117v-39h133l31 31h8l39-31h8v203l55-31h180v109H313v31h250v94H328v31c68 0 120 3 156 8l110 16c41 6 88 16 140 31 26 13 39 21 39 24h8l63-32h15v-31h-46l-188-31V734h164l59 63h4l70-66v-4M781 469v94H625v-94h156m0-141v110H625V328h156M563 469v94H391v-94h172m0-141v110H391V328h172Z"/></symbol><symbol id="牐_P" viewBox="0 0 1000 1000" data-size="22"><path transform="matrix(1 0 0 -1 39 969)" d="m922 727-20-24H625V594h168l24 31 42-23 16-16v-23h-31V219h-16l-26-16h-3c0 5-3 11-10 16-5 26-8 52-8 78H625V16c-5 0-21-5-47-16h-15v297H391v-78c-11 0-21-3-32-8-3-5-6-8-9-8-11 13-18 20-22 20v168h-31V16c-11 0-21-3-31-8-3-5-7-8-10-8-11 13-18 20-22 20v371H109v-55L86 156 70 94C52 42 29 11 0 0v23c18 50 31 94 39 133 13 131 21 196 24 196v570h93v-24l-31-27V609h109v329c8 0 32-5 71-16h23v-31h-31V648l16-46v-24H125c0-13-5-52-16-117v-39h133l31 31h8l39-31h8v203l55-31h180v109H313v31h250v94H328v31c68 0 120 3 156 8l110 16c41 6 88 16 140 31 26 13 39 21 39 24h8l63-32h15v-31h-46l-188-31V734h164l59 63h4l70-66v-4M781 469v94H625v-94h156m0-141v110H625V328h156M563 469v94H391v-94h172m0-141v110H391V328h172Z"/></symbol><symbol id="犀_T" viewBox="0 0 1000 1000" data-size="22"><path transform="matrix(1 0 0 -1 31 977)" d="M922 516h-31c0-11-3-21-8-31-14-11-22-16-24-16-125 21-229 73-312 156V473c-11-7-21-16-31-27-42-13-63-21-63-24h-15c0 8-5 21-16 39l-63 24v15h125v250h71l23-19v-4l-31-27v-20c21-26 41-41 62-47l21-23 73 39c11 18 42 42 94 70h16l46-39v-8c-7 0-62-21-164-62h-23v-16c89-31 173-47 250-47v-31m16-367-20-24H547V16h-63v109H117l-23 24v8h390v125H211C102 214 44 136 39 47 26 37 19 27 16 16V0H0v24c20 37 38 107 55 211 7 43 12 87 17 131 3 30 5 45 6 45v543l55-32h711v32l62-24 16-16v-15l-31-27v-51l31-28v-27H141V454c-13-73-21-126-24-157l-15-62c-5-11-8-21-8-31 67 57 114 124 140 203h79v-32c-8 0-21-5-40-15l-23-47h234v109h47l32-15h15v-32h-31v-62h180l58 62h4c13-18 32-31 55-39l31-31-20-23H547V157h242l59 62h4c13-18 31-31 54-39l32-31M469 649c-89-109-146-167-172-172-37-23-84-42-141-55v32c131 47 209 114 235 203H203v31h203l24 31h8c0-10 2-20 7-31l24-24v-15m359 148v94H141v-94h687Z"/></symbol><symbol id="犕_T" viewBox="0 0 1000 1000" data-size="22"><path transform="matrix(1 0 0 -1 31 961)" d="m938 632-20-23H422V445c-13-55-21-94-24-117l-15-31-16-47c-18-13-41-42-70-86l-47-24v24l39 39c26 47 42 83 47 109 13 65 20 98 23 98v246H234V453l63 23 23 24h24l-78-86c-11-5-21-8-32-8V0h-62v359l-78-39c-11-18-16-31-16-39H55c-8 0-21 20-39 62v16l140 47h16v250H78v-24L31 500H0c0 5 3 9 8 15l31 125c13 109 21 166 24 172v47h54l24-19v-28h-32c0-26-2-52-7-78-5-15-8-31-8-47h78v235h70l24-20v-27h-32V687l55 47h8c37-34 63-53 78-55l39-39h86v141H391v31h109v110h94v-24l-31-27v-59h109v110h94v-24l-32-27v-59h39l47 47h16l55-55v-23H734V640h71l58 63h4l71-67v-4m-47-140-24-24h-8V39l-15-16-53-23-41 39c-11 5-21 8-31 8v31h8l15-16h55v141H688V0h-63v203H484L430 78C391 30 357 5 328 0c40 41 74 104 102 187 13 65 21 98 23 98v277l70-47h290v32h23l23-24c11-6 21-8 32-8v-23M672 640v141H563V640h109m125-265v109H688V375h109m0-141v109H688V234h109M625 375v109H516V375h109m0-141v109H500V234h125Z"/></symbol><symbol id="獺_T" viewBox="0 0 1000 1000" data-size="22"><path transform="matrix(1 0 0 -1 39 961)" d="m922 695-24-23h-7V172h-63v31H719v-16h31v-31L609 39 516 0c0 3 5 10 15 23l141 125v24h-63v562h24l31-31h8c0 10 3 20 8 31 13 52 21 78 23 78v16H594v31h219v8l31 31c0 5 5 8 15 8h8l55-55v-23H766c0-12-3-22-8-31-22-39-40-62-55-71v-23h141v31h39l39-35v-4m0-695h-24L781 164v8h24c33-19 72-53 117-102V0M578 422H422v-55l101-102 24-47v-46h-47c-11 52-31 104-62 156h-16V0h-63v265h-15c-11-67-52-125-125-172-3 0-11 5-24 16h-7c0-15-3-31-8-47l-39-39L94 7c-4-5-8-7-12-7-20 39-37 63-51 70-10 5-20 8-31 8v31c8 0 31-5 70-16h24c3 0 10 5 23 16l16 31c13 78 20 117 23 117v180h-8L23 312H0c49 47 94 125 133 235 5 6 8 12 8 19 0 9-3 18-8 27-14 54-22 83-24 86v24c-33-11-62-32-86-63H0v8l78 78v39L16 875v15c23-10 52-41 86-93h15l16 15c8 31 21 63 39 94v16h8c23-13 41-21 54-24l16-16v-7c-8 0-21-5-39-16-18-50-41-84-70-102v-31c47-133 70-240 70-320 5-26 8-52 8-78 0-3-5-53-16-149v-70l39 31c26 52 42 78 47 78l55 153v51h-47v-47h-63v281l55-31h70v125H234v31h125v125h71l23-20v-27h-31v-78h23l59 62h4l70-66v-27H422V625h78v31l63-24 15-15v-24h-31V476l31-27v-27m250 125v125H672V547h156m0-157v125H672V390h156m0-156v125H672V234h156M484 453v140h-62V453h62m204-281v31h-16v-31h16M359 453v140h-62V453h62Z"/></symbol><symbol id="王_T" viewBox="0 0 1000 1000" data-size="22"><path transform="matrix(1 0 0 -1 47 929)" d="M906 0H23L0 23v8h406v375H70l-23 23v8h359v328H70l-23 24v7h641c36 13 62 32 78 55 0 5 2 8 7 8l40-39c10-5 20-8 31-8v-47H469V437h226l59 63h4c13-19 31-32 55-40l31-31v-23H469V31h289l58 62h4c13-18 32-31 55-39l31-31V0Z"/></symbol><symbol id="玥_T" viewBox="0 0 1000 1000" data-size="22"><path transform="matrix(1 0 0 -1 54 961)" d="m891 851-24-23h-8V54c-14-23-42-41-84-54h-4c-5 7-18 20-37 39l-46 15c-11 13-16 21-16 24h125v765H516V703c32 0 58-3 78-8 69-18 121-39 156-63l31-31v-15l-23-24h-8l-47 39-187 86V453l-16-63v-31l188 70 62 32c3 4 7 7 10 7 10-13 17-19 21-19v-4c-41-26-62-42-62-47l-141-78c1-2 7-6 16-12v-4l-20-23h-4l-31 31c-5 10-8 21-8 31h-31C482 207 406 93 273 0h-39c113 84 179 188 196 312l16 120c3 23 6 35 7 36v454h8l47-47h305v31h23l55-51v-4M375 289c0-5-26-21-78-47l-16-16c-93-41-145-62-156-62-21-5-41-8-62-8v-47H31L0 187v16c8 0 42 5 102 15h39v297H16v32h125v265H0v31h250v8l47 47c0 5 3 8 8 8l70-66v-4l-20-24H203V547h47c0 10 3 20 8 31l31 31 70-66v-4l-19-24H203V250h31c81 31 125 52 133 62h8v-23Z"/></symbol><symbol id="瑇_T" viewBox="0 0 1000 1000" data-size="22"><path transform="matrix(1 0 0 -1 31 969)" d="m938 601-20-23H375v31h250v94H453v31h172v78H406v31h219v94l63-15h31v-32h-31v-47h101l47 47h16l54-54v-24H688v-78h78c0 11 2 21 7 31l32 32 70-67v-4l-20-23H688v-94h140c0 11 3 21 8 31l31 32 71-67v-4m0-289H828V187h8l47 47 39-35v-43H813c0-26-3-52-8-78-23-48-52-73-86-78h-31c0 7-5 20-16 39-11 5-21 8-31 8v31h23c35-11 55-16 59-16h6c3 5 7 10 13 16 14 41 22 62 24 62v16H625l-23-63c-16-31-42-62-79-93h-23v23l39 39 39 94H445l-15 16c-5 1-8 1-8 2 0 4 3 9 8 13 13 68 21 102 23 102v23c-21 0-41 3-62 8-11 13-16 20-16 23h94v71c0 12 3 25 8 39 5 26 7 52 7 78l63-31h219l39 31h15l39-38-31-118v-32h24c13 11 20 21 23 32v15h8l55-54v-24m-579-31c-52-66-146-115-281-149-10-18-15-31-15-39H31v16L0 187c31 0 63 3 94 8 16 5 31 8 47 8v297H16v31h125v266H16v31h218v8l47 46c0 5 3 8 8 8l55-50v-43H203V531h24l46 47h16l55-55v-23H203V218l141 63h15m422 62v125h-93c0-10-5-41-16-93v-32h109m-156 0v125h-94c0-26-3-52-8-78-5-16-7-31-7-47h109m156-109v78H672v-15c-13-37-21-63-24-79-5-10-7-21-7-31h125v16l15 31m-172 23v55h-86l-15-15-16-79c-5-10-8-21-8-31h110v24l15 46Z"/></symbol><symbol id="瑜_T" viewBox="0 0 1000 1000" data-size="22"><path transform="matrix(1 0 0 -1 39 969)" d="M922 640c-21 0-42-11-63-31-23 0-83 42-179 125l-71 125h-23c-49-94-156-178-320-250 75 52 146 115 211 188l70 140 62-15h32v-8l-16-16v-31c89-123 188-188 297-195v-32m-219 0H438v32h156l31 46v16c37-13 63-32 78-55v-39M891 15h-43c-1 5-5 11-12 16-13 100-42 187-86 261v26l63 260h7c23-14 42-22 55-24l16-15v-8h-32l-23-78-70-141c3-21 31-62 86-125 10-15 20-41 31-78 5-8 8-16 8-23V15M766 36l-24-21h-39c0 92-31 188-94 288 0 3 3 6 8 9 23 57 42 146 55 266l62-24 16-15-23-24c-11-36-42-104-94-203-5-4-8-7-8-10 70-58 114-132 133-224 5-13 8-25 8-37v-5M625 523l-23-23h-8V39l-16-16-53-23h-4c-11 13-18 20-21 23-41 13-62 21-62 24h-16v15h109v188H391C372 145 338 62 289 0h-23l23 47c13 25 23 62 31 109l24 137v285l54-31h149v31h23l24-24c10-5 20-7 31-7v-24M344 797H188V515h7l63 63 70-67v-27H188V187c15 0 31 3 46 8 8 5 16 8 24 8h55c0-19-78-53-235-102-10-18-15-31-15-39H35c-1 5-5 10-12 16-13 41-20 62-23 62v16h78l31 16h16v312H16v31h109v282H0v31h219v8l47 46c0 5 2 8 7 8l71-66v-27m187-391v109H406V406h125m0-125v94H391v-94h140Z"/></symbol><symbol id="瑱_T" viewBox="0 0 1000 1000" data-size="22"><path transform="matrix(1 0 0 -1 39 977)" d="M859 734H398l-23 20v199l63-15h31v-32h-31v-31h273l59 63h3c13-19 32-32 55-40l31-31v-23H438v-63h421v-47m63-546H500v-16c11 0 21-3 31-8l32-31v-24h-8l-14 16c-3 0-7-3-10-8-63-49-146-83-250-101h-47v15c37 3 105 32 204 86l46 47v24H305l-24 23v8h125v469h8l47-47h289v31l63-24 15-15v-24h-31V219h8l62 62 55-50v-43M906 23 883 0h-8C760 89 687 133 656 133c-10 13-15 20-15 23 119-13 207-52 265-117V23M344 250l-172-55-109-23v-47H39l-16 16-23 47v31c26 0 52 3 78 8 16 5 32 7 47 7v282H16v31h109v266H0v31h219v8l47 46c0 5 2 8 7 8l55-50v-43H188V547h7l63 62 55-50v-43H188V250l125 31h31v-31m390 281v78H469v-78h265m0-109v78H469v-78h265m0-109v78H469v-78h265m0-94v62H469v-62h265Z"/></symbol><symbol id="璅_T" viewBox="0 0 1000 1000" data-size="22"><path transform="matrix(1 0 0 -1 39 969)" d="M875 859c-42 0-84-15-125-46v-32l63-23 31-31v-16l-20-23h-43c0 10-3 20-8 31l-70 67c0 3 3 7 8 11 18 21 41 62 70 125v16c37-16 63-32 78-47h16v-32m-172 24-15-16c-31-3-63-21-94-54h-16c0-3 5-11 16-24 16 0 41-21 78-62v-32l-24-23h-7c-2 0-10 5-24 16-18 48-41 82-70 103l62 131v16c37-16 63-32 79-47h15v-8m188-297-24-23h-8V379l-22-20c-14 0-27 3-40 8-31 5-63 8-94 8v31h94v63c-26 0-52 3-78 8-11 13-16 20-16 23h94v63H688v31h109v8l16 15c0 5 5 8 15 8h24l39-39M531 859c-21 0-41-2-62-7l-63-47c19-23 42-42 71-55l23-53-23-25h-8l-39 31c-23 55-42 83-55 86v31l23 24 40 94c31-5 62-32 93-79m391-750c0-3-5-10-16-23-23-8-42-21-57-39l-83 39-141 148V16c-5 0-21-5-47-16h-15v219C500 141 417 84 313 47h-32v16c26 0 83 34 172 101 11 26 32 52 63 78v24H297v31h266v344l62-16h31v-23l-31-28V297h180l47 47h15l39-39v-39H656v-24c11-26 63-62 157-109l109-24M516 375H391v-31h-24l-39-16v297h24l31-31h15l55 54c0 5 2 8 6 8l41-23 16-16v-23c-42 0-84-11-125-31v-63h39l43 47h4c7 0 20-21 39-63v-15H391v-63h39l43 47h4c7 0 20-21 39-62v-16M297 781H172V516h8l47 47 54-51v-28H172V234h31l63 32h15v-32l-140-70-78-23v-32H31c0 31-10 63-31 94h109v281H16v32h93v265H16v32h172v7l31 32c0 5 5 7 15 7h8l55-54v-24Z"/></symbol><symbol id="瓊_T" viewBox="0 0 1000 1000" data-size="22"><path transform="matrix(1 0 0 -1 31 969)" d="M938 47c-8 0-21-5-40-16-5-11-7-21-7-31h-39c-8 0-16 2-24 7-52 13-125 42-219 86h-23l-23-23-47-16-32-15-62-16c-27-7-54-13-82-17-18-3-27-5-27-6h-16v31l172 39c52 18 83 41 94 70-11 0-21 2-32 8l-62 55h-16l-47-39-93-39c0 3 5 10 15 23 5 0 42 31 110 94v12c-10 16-15 25-16 27v31l39-31h8v16l31 62h-39l-27-31h-43v265l54-31h321c0 10 2 21 7 31l16 16 16-16h8v32H398l-27-32h-43v172h-39l-16-15h-7v31h31v16H172V531h8l62 62 55-50v-43H172V250h31l86 47h39l-31-40C167 189 89 156 63 156c0-11-3-21-8-31l-16-16h-4c-1 5-5 10-12 16-13 41-20 62-23 62v16l70 15h39v282H16v31h93v266H0v31h188l23 47 16 15 62-62c5-11 8-21 8-31l86 78 23 62c3 0 21-5 55-15h23v-32h-31v-15h227l27 31h27c0-11 3-21 8-31l24-24v-39c-26 0-52-3-78-8l-32-39h172v32h43c9-14 16-21 20-21 0-14-3-28-8-42-5-8-8-16-8-23V578h-31v-31h-31V312h-32c0-10-3-20-8-31-65-73-104-125-117-156h24c117-34 197-53 242-55l16-16v-7M813 656v78H641v-16c21 0 41-3 62-7 26-13 39-21 39-24 5-10 8-20 8-31h63M656 843H430l-24-23c-26-11-42-21-47-31l24-24h211c31 16 52 42 62 78m32-187-32 39-62 23c-16-16-42-31-78-46h-16v-16h188m-141 78H391v-78h31l109 55c11 13 16 20 16 23m203-234v31H453v-31h297m0-63v31H453v-31h297m0-47v16H453v-16h297m0-62v31H570l-15-16-24-46h149c13 10 21 20 23 31v15h24l15-15h8m-62-63H500v-15l-16-32c11 0 21-3 32-7 15-24 41-43 78-55h31c0 11 3 21 8 31 23 16 42 42 55 78Z"/></symbol><symbol id="甤_T" viewBox="0 0 1000 1000" data-size="22"><path transform="matrix(1 0 0 -1 23 969)" d="M953 63H422v31h234v265H500v32h156v250H516c-2-47-31-105-86-172h-24l55 109 55 203v63h31l47-24c10-13 15-21 15-23h-31l-23-78-24-47h125v266c8 0 32-5 71-16h23v-31h-31V672h70l59 62h4c23-29 52-52 86-70l-20-23H719V391h54l59 62h4c13-18 31-31 55-39l31-31-20-24H719V94h90l55 62c26-7 56-31 89-70V63M500 273l-23-23h-8c-3 0-31 47-86 141l-39 31V148L305 47 219 0h-31c0 5-5 21-16 47v16c-5 0-21 5-47 15h-16v31c5 0 21-5 47-15h78c2 0 10 5 24 15l15 32c13 65 21 97 24 97v153C208 297 109 234 0 203c5 23 42 52 109 86 114 117 172 178 172 183 0 4-3 8-8 12-5 21-7 42-7 63h-24c-49-68-114-115-195-141H16v16c15 0 41 13 78 39 84 86 125 135 125 148v24l-24 23c-5 11-7 21-7 32L55 609H16v16c55 15 104 52 148 109l55 110H47v31h281v8l47 47c0 5 3 8 8 8l70-67v-27H281c-5-39-31-84-78-133v-16c3 0 31-39 86-117 5-15 8-31 8-47l39 32c39 83 63 125 70 125 5 0 21-5 47-16h16c0-3-5-11-16-24-10-5-20-7-31-7l-24-63c-44-41-72-62-85-62v-24c49-34 104-83 164-148l23-47v-24M344 422v16h-16v-16h16Z"/></symbol><symbol id="甾_T" viewBox="0 0 1000 1000" data-size="22"><path transform="matrix(1 0 0 -1 63 969)" d="M875 688H641l101-94 24-47v-55l-16-15v-8c11 0 21-3 31-8l16-16v-23h-31V16h-16L724 0h-3c0 5-3 11-10 16-5 15-8 31-8 47H156V16H94v484l54-47h563l23 24v4c-7 3-20 15-39 35l-15 47-94 125H391l101-94 24-47v-63h-39l-94 157-47 47H156c13-27 42-53 86-79 8-24 21-41 39-54v-71h-62l-24 79c-55 62-84 104-86 125H0v31h94c18 41 31 62 39 62l70 149c0 5 2 8 6 8l72-40c11-13 16-20 16-23-16 0-32-3-47-8-37-52-73-94-109-125v-23h203c3 26 31 83 86 172 5 15 8 31 8 47l78-40c10-13 15-20 15-23-84-52-135-104-156-156h195c47 63 84 125 110 187 10 10 15 15 17 16l69-31h15v-8l-15-16-47-15c0-8-37-53-110-133h149l31 31c5 11 8 21 8 31 37-13 63-31 78-54v-39M703 266v156H469V266h234m0-172v140H469V94h234M406 266v156H156V266h250m0-172v140H156V94h250Z"/></symbol><symbol id="甾_P" viewBox="0 0 1000 1000" data-size="22"><path transform="matrix(1 0 0 -1 63 969)" d="M875 688H641l101-94 24-47v-55l-16-15v-8c11 0 21-3 31-8l16-16v-23h-31V16h-16L724 0h-3c0 5-3 11-10 16-5 15-8 31-8 47H156V16H94v484l54-47h563l23 24v4c-7 3-20 15-39 35l-15 47-94 125H391l101-94 24-47v-63h-39l-94 157-47 47H156c13-27 42-53 86-79 8-24 21-41 39-54v-71h-62l-24 79c-55 62-84 104-86 125H0v31h94c18 41 31 62 39 62l70 149c0 5 2 8 6 8l72-40c11-13 16-20 16-23-16 0-32-3-47-8-37-52-73-94-109-125v-23h203c3 26 31 83 86 172 5 15 8 31 8 47l78-40c10-13 15-20 15-23-84-52-135-104-156-156h195c47 63 84 125 110 187 10 10 15 15 17 16l69-31h15v-8l-15-16-47-15c0-8-37-53-110-133h149l31 31c5 11 8 21 8 31 37-13 63-31 78-54v-39M703 266v156H469V266h234m0-172v140H469V94h234M406 266v156H156V266h250m0-172v140H156V94h250Z"/></symbol><symbol id="甾_U" viewBox="0 0 1000 1000" data-size="23"><path transform="matrix(1 0 0 -1 113 905)" d="M103 443c11 0 23-3 34-9 11-5 24-13 37-23h460l32 42c11-4 22-10 33-18 11-7 18-16 22-25l-29-28V23C677 8 661 0 645 0v42H151V23C134 8 118 0 103 0v443m413 217h162l31 39c17-7 31-16 42-27s18-19 22-25H537c32-20 59-38 80-54s38-30 50-43c13-12 21-23 26-32s8-17 8-24c0-11-4-19-11-26-7-6-12-9-16-9-10 0-19 10-28 30-4 9-10 19-19 31s-19 25-32 38c-12 14-26 28-41 43s-31 31-48 46H324c35-20 63-38 85-54 23-15 40-29 53-42 13-12 23-23 28-32s8-18 8-25c0-11-3-19-9-26-6-6-11-9-16-9-11 0-21 10-30 30-4 8-11 18-21 30-9 13-21 26-34 40s-28 28-45 43-33 30-50 45H105c37-21 68-39 92-55s43-30 56-43c14-12 24-23 29-32s8-17 8-24c0-11-3-19-9-26-5-6-10-9-15-9-11 0-21 10-31 30-5 9-12 19-23 31-10 13-22 26-37 39-15 14-31 28-48 43s-34 31-52 46H29l-17-4-12 16h60c32 13 61 32 88 57 27 26 46 57 59 93 11-3 22-7 33-13 11-5 19-11 24-17l-14-8c-15-27-37-50-68-69-30-19-63-34-99-43h196c26 13 50 33 73 58s40 56 51 92c11-3 22-7 33-13 11-5 19-11 24-17l-14-8c-13-26-32-49-59-68-26-19-54-34-84-44h190c-1 0-1 0-1 1 28 13 54 32 77 57 24 25 42 56 53 92 11-3 22-7 33-13 11-5 19-11 24-17l-14-8c-13-26-34-49-61-68s-56-34-88-43M422 54h223v184H422V54m-271 0h223v184H151V54m494 345H422V250h223v149M151 250h223v149H172l-21-14V250Z"/></symbol><symbol id="異_T" viewBox="0 0 1000 1000" data-size="22"><path transform="matrix(1 0 0 -1 47 953)" d="M906 234H23L0 257v8h234v141H125v31h109v125h-31v-31c-10 0-20-3-31-8-3-6-7-8-10-8-11 13-18 20-21 20v371h23l31-31h516l28 31 42-24 16-15v-24h-31V535c-5-2-11-6-16-12-26-6-52-8-78-8v-78h55l43 47h3c8 0 21-21 40-62v-16H672V265h90l55 63c26-8 56-32 89-71v-23M828 0h-23l-86 86-156 101c99-13 187-52 265-117V0M375 140C258 73 146 26 39 0H0l203 101c63 60 94 94 94 102l62-31h16v-32m328 594v109H484V734h219m0-141v110H484V593h219m0-46v15h-47v-15h47M422 734v109H203V734h219m0-141v110H203V593h219m187-328v141H500v31h109v125H281v-15h47v-32h-31v-78h62c0 10 3 21 8 31l16 16 55-51v-27H297V265h312Z"/></symbol><symbol id="異_P" viewBox="0 0 1000 1000" data-size="22"><path transform="matrix(1 0 0 -1 47 953)" d="M906 234H23L0 257v8h234v141H125v31h109v125h-31v-31c-10 0-20-3-31-8-3-6-7-8-10-8-11 13-18 20-21 20v371h23l31-31h516l28 31 42-24 16-15v-24h-31V535c-5-2-11-6-16-12-26-6-52-8-78-8v-78h55l43 47h3c8 0 21-21 40-62v-16H672V265h90l55 63c26-8 56-32 89-71v-23M828 0h-23l-86 86-156 101c99-13 187-52 265-117V0M375 140C258 73 146 26 39 0H0l203 101c63 60 94 94 94 102l62-31h16v-32m328 594v109H484V734h219m0-141v110H484V593h219m0-46v15h-47v-15h47M422 734v109H203V734h219m0-141v110H203V593h219m187-328v141H500v31h109v125H281v-15h47v-32h-31v-78h62c0 10 3 21 8 31l16 16 55-51v-27H297V265h312Z"/></symbol><symbol id="瘐_T" viewBox="0 0 1000 1000" data-size="22"><path transform="matrix(1 0 0 -1 39 961)" d="M922 765H203V453c-13-74-20-126-23-156l-16-79c-11-54-37-117-78-187L47 0v15c18 52 31 83 39 94l39 160v106l-70-63c-5-10-8-20-8-31H16v16L0 328v31l94 39 47 39v406h7l47-46h321v23l-32 102 71-63c5-21 8-42 8-62h210l59 62h4c13-18 31-31 55-39l31-31v-24M906 47c-10 0-20-3-31-8L832 0c-51 7-105 30-160 70-73 53-115 118-125 195h-16l-39-109c-54-60-94-94-117-102l-47-15-31-16c-52-13-78-20-78-23h-63v15h16c37 13 63 21 78 24l31 15 47 16c104 68 156 136 156 203v70H313c0-16-3-31-8-46-7-5-11-11-12-16h-43v391l55-32h195v110h70l24-20v-4l-31-27v-59h214l25 32 42-24 15-16v-23h-31V297h-62v46H547c31-117 73-187 125-211 67-39 145-62 234-70V47M109 554l-19-23H47v70c0 8-3 16-8 24-13 41-20 62-23 62v16c41-21 72-63 93-125v-24m657-54v109H563V500h203m0-125v93H547v-93h219M500 500v109H313V500h187m0-125v93H313v-93h187Z"/></symbol><symbol id="直_T" viewBox="0 0 1000 1000" data-size="22"><path transform="matrix(1 0 0 -1 54 946)" d="m891 789-20-23H438c0-5-3-10-8-16h-8v-86l-16-16v-7h266v31h39l39-35v-4l-23-24h-8V133l-20-24h-43v63H266c0-16-3-32-8-47-7-5-11-11-12-16h-43v578h8l47-46h101v78l16 31v16H23L0 789v8h375c0 8 5 31 16 70v24h54l24-20v-27h-31v-47h304l59 62h4c13-18 31-31 54-39l32-31M875 16H94L63 0H47v719h47l31-16h16v-31h-32V47h633l59 62h4l70-66V16M656 500v109H266V500h390m0-141v110H266V359h390m0-156v125H266V203h390Z"/></symbol><symbol id="㺬_T" viewBox="0 0 1000 1000" data-size="22"><path transform="matrix(1 0 0 -1 47 961)" d="m906 37-23-22H719c-3 0-11 5-24 16l-23 47v781H484V648c24-8 63-42 118-101 7-24 20-43 39-55v-70h-47c-13 57-31 103-55 140l-55 47v-55l-23-179c-37-135-63-208-78-219C334 72 269 21 188 0c65 47 114 104 148 172l39 109C250 208 146 167 63 156v-31H31v15L0 218h125v8l16 16v289H31v31h110v250H0v31h266v8l54 55 55-51v-43H203V562h24l58 63h4l70-67v-27H203V250h31c54 31 106 47 157 47 0 20 2 41 7 62 13 117 21 176 24 176v387h23l28-32h215v32l62-24 16-16v-23h-32V86l24-24h47l31 31c13 54 20 83 23 86v24h32V101c1-5 6-20 15-44V37Z"/></symbol><symbol id="㺸_T" viewBox="0 0 1000 1000" data-size="22"><path transform="matrix(1 0 0 -1 39 946)" d="M922 0H23L0 23v8h422v141H164l-23 23v8h281v125H94v31h31v282h-16c0-13-21-42-62-86L0 531v24c75 65 135 156 180 273 5 21 8 42 8 63h15c31-13 52-21 63-24l15-16v-7c-7 0-20-5-39-16l-47-94c-5-3-7-5-7-8v-3l15-6v-15l-15-30V375h-32v-16h543l67 68c0 4-3 7-8 10-34 39-63 105-86 196v164H516v-94c-13-37-21-63-24-78-5-11-8-21-8-31 79-30 126-73 141-131l-23-26h-8L461 562h-8c0-15-13-41-39-78 0-3-39-31-117-86-42-13-63-20-63-23h-15l148 125c26 37 42 63 47 78 5 3 8 7 8 10-5 13-42 38-109 76-11 13-16 20-16 23h31l89-46h16c3 5 7 10 12 15 13 68 21 105 24 110v31H297v31h375l23 31h32l39-39v-19l-47-41v-21c13-57 20-100 23-130 11-36 21-62 31-78l40-31h7l16 16 31 93c14 11 22 16 24 16v-24c-13-55-21-94-24-117-5-10-8-20-8-31l16-33v-24l-21-21h-5c-8 10-12 15-13 16h-23v-8l31-32v-23H484V203h125c34 11 63 32 86 63l39-40c11-4 21-7 32-7v-47H484V31h293l56 63c26-8 56-32 89-71V0M813 391v7l-24 24h-23v-8l23-23h24Z"/></symbol><symbol id="㺸_T" viewBox="0 0 1000 1000" data-size="22"><path transform="matrix(1 0 0 -1 54 954)" d="M891 0H16v32h390v140H133l-24 24v7h297v141H78v31h610v8l46 47c-36 21-62 42-78 62v336H500v-86l-16-78v-39c11 0 21-3 32-8l78-85c5-14 10-22 15-22v-5l-23-20h-8L461 594h-8c0-39-31-83-94-133l-93-54h-32l149 140 39 83c0 3-31 25-94 66l-31 39h16l125-63v156H297v32h359v7l16 16c0 6 5 8 16 8h23l39-39v-16l-31-27V524l19-24h90v16l16 31v94h31V524l16-47v-24h-16l-31-15h-94c0-3 5-11 16-24 21-4 41-20 62-47v-23H469V203h168l55 63c26-8 56-31 89-70v-24H469V32h156c-11 50-31 83-62 101v24c67-31 101-52 101-63 5-21 8-41 8-62h62c34 10 63 31 86 62l39-39c11-5 21-8 32-8V0M281 867l-39-39-54-99v-5l15-7v-7c-5-4-10-7-15-7V407c-5 0-21-5-47-16h-16v281h-8c-21-26-52-52-94-78H0c99 110 148 167 148 172 37 78 55 125 55 141h8c23-13 42-21 55-24 5-7 10-11 15-12v-4Z"/></symbol><symbol id="㼛_T" viewBox="0 0 1000 1000" data-size="22"><path transform="matrix(1 0 0 -1 47 961)" d="M906 31h-31c-49-11-77-16-84-16l-57 24-31 54v63c0 11 3 21 8 31 5 19 8 37 8 55-20 14-33 32-39 55-27 93-43 140-47 140l-39 31c0-42-3-83-8-125-5-21-8-41-8-62V140c16 0 32 2 47 8 8 5 16 8 23 8h40v-31L531 62h-15V15h-24l-15 16-24 47v31h63c0 41 2 92 7 156l40 477v86H391V515h39c13 10 21 21 23 32v15h31c0-10 3-20 8-31l24-24v-23H391V23L371 0h-43v484h-47v31h47v313h-62v31h125l15 31v16h32c0-11 2-21 7-31 13-11 21-16 24-16h281l39 31c5 10 8 21 8 32 37-13 63-32 78-55v-39H625c0-16-5-63-16-141v-47h133l31 32h16l39-40v-23h-31v-78c0-63-3-125-10-188-5-36-9-72-14-109-5-60-7-104-7-131l23-25h31l32 31c13 55 20 83 23 86v23h16c0-42 2-83 7-125 5-21 8-41 8-62M250 484h-94v-47c-7-46-14-98-23-156C116 167 71 73 0 0v15c18 52 31 83 39 94 13 47 24 94 31 141 8 48 16 93 24 136v98H31v31h63v313c-21 0-42 2-63 8-10 13-15 20-15 23h156v16c5 13 11 20 16 23 0 5 2 8 7 8l39-35v-43h-62c0-26-3-52-8-78-5-13-8-26-8-39V515h32c0 10 2 21 7 32l16 15 39-35v-43m484-55v180H609v-39c-5-35-10-53-15-53v-12c58-41 94-90 109-146h16v23l15 47Z"/></symbol><symbol id="㿼_T" viewBox="0 0 1000 1000" data-size="22"><path transform="matrix(1 0 0 -1 39 946)" d="m922 617-20-23H703V351l-19-23h-43v266H484v31h157v172H484v31h282v8l31 47c0 6 3 8 8 8l70-67v-27H703V625h86l59 62h4l70-66v-4M906 0H0v31h94v297h-8l-16-16H47l55 63c39 70 62 125 70 164v39H23L0 601v8h172v16l16 31v125H47v31h219v8l47 47c0 5 2 8 7 8l71-66v-28H234V609h86l59 63h4l70-67v-4l-19-23H234v-16c-13-36-20-62-23-78-29-75-63-125-102-148l36-39h574v31l62-23 16-16v-23h-31V31h23c7 0 21 21 43 63h4l70-67V0M703 31v235H563V31h140m-203 0v235H359V31h141m-203 0v235H156V31h141Z"/></symbol><symbol id="䀈_T" viewBox="0 0 1000 1000" data-size="22"><path transform="matrix(1 0 0 -1 47 954)" d="M891 625H656l-54-172c-71-75-115-114-133-117-42-12-63-20-63-23h-15c0 3 5 11 15 23v8H55l-24 20v496l55-47h47l15 15c5 26 8 53 8 79h78v-24l-46-43v-27h136l26 31 41-23 15-16v-23h-31V578c-1-3-7-13-16-30v-15c1 0 3-1 8-1l24-24v-23H94v-78h312v-63h24c26 31 52 52 78 63 13 10 41 62 86 156v62H477c-3-1-8-6-16-15h-7c0 3-5 10-16 21v7l31 144v31h-47v31h312v8l55 55 70-67v-4l-19-23H672v-86l-16-47v-23h110c0 10 2 21 7 31l40 31h7l71-70v-24M906 0H0v32h109v296h8l47-46h555v31c-11 0-21 3-31 8l-16 15v258h55l15-16c5-1 8-1 8-2v-6l-16-15V375h94c0 11 3 21 8 32 5 26 8 52 8 78h15v-16c13-41 21-73 24-94 5-12 8-25 8-39l-20-23H750v-16c11 0 21-2 31-8l16-15v-24h-31V47l39 31h31c8-13 31-30 70-54V0M609 657v156h-78l-31-125v-31h109m-296 62v63H94v-63h219m0-109v78H94v-78h219M703 32v218H578V32h125M313 571v7H94v-62h164l55 55M516 32v218H375V32h141m-203 0v218H172V32h141Z"/></symbol><symbol id="𢆟_T" viewBox="0 0 1000 1000" data-size="22"><path transform="matrix(1 0 0 -1 47 961)" d="M906 422H781V0h-62v422c-16 0-32 2-47 7-11 13-16 21-16 24h63v219c-16 0-32 2-47 7-11 13-16 21-16 24 16 0 32 2 47 8l8 7 31 63 24 94v31h70l23-24v-7c-7 0-20-5-39-16-55-104-84-156-86-156h94c0 10 3 20 8 31l16 16 54-51v-27H781V453h39c13 10 21 20 24 31v16h31c0-11 3-21 8-32l23-23v-23m-281 0H500V320c-13-55-21-94-23-117-21-74-42-126-63-156L359 0v15l39 78c15 53 26 100 32 141l23 164v24h-78v31h78v219h-31l-44 15-26-31h-8V31h-63v31H63V31H0v687l55-31h86v219c7 0 31-6 70-16h23v-31h-31V687h94v31h43l23-31h6c0 5 13 10 38 16s38 11 38 15l47 141c5 15 8 36 8 63 5-5 21-11 47-16h31v-31h-31l-55-125-23-24v-23h78c0 10 3 20 8 31l15 16 39-35v-43h-93c0-22-3-43-8-63-5-11-8-21-8-31V453h47c0 10 3 20 8 31l15 16 55-51v-27m-344-32v266h-78V390h78m-140 0v266H63V390h78M281 93v266h-78V93h78m-140 0v266H63V93h78Z"/></symbol><symbol id="𤘈_T" viewBox="0 0 1000 1000" data-size="22"><path transform="matrix(1 0 0 -1 39 961)" d="M875 406h-31V15h-16L802 0h-3c0 5-3 9-10 15-5 16-8 32-8 47H531v31h250v157H547v31h234v125H516v31h265v8l16 16c0 4 3 7 10 7l52-23 16-16v-23m47 320-20-23H578V515c-12-36-42-62-89-78-21 31-48 52-83 63h-31v-8l16-16v-23h-32c-47-14-73-22-78-24-81-13-125-21-133-23h-39V281h180l47 47h16l54-55v-23H109V78h180l47 47h16l54-55V47H109c0-11-2-22-7-32L86 0H47v468h-8l-16-15H0v31c41 0 146 39 313 117 83 49 125 83 125 102H129c-9 13-16 20-20 20 0 3 3 7 8 11 8 11 21 42 39 94v15H94v32h594l46 23 16 16c0 5 3 8 10 8 41-13 69-32 84-55v-24H578V734h195l59 63h4c23-29 52-52 86-71m-406 8v109H219v-15l-47-94h344m0-219v172c-111-90-199-145-266-164L63 468l23-31h55c62 8 124 31 187 70 3 5 5 8 8 8h4l8-15h13l30 15h125Z"/></symbol><symbol id="𤜵_T" viewBox="0 0 1000 1000" data-size="22"><path transform="matrix(1 0 0 -1 47 953)" d="M906 484H797V0h-63v484H625v31h109v297h-78v31h110v8l47 47c0 5 2 8 7 8l55-51v-43h-78V547h8l31 31 70-67v-27m-297 0H484V332c-13-46-20-79-23-98-19-68-40-120-63-156-23-39-44-65-62-78h-23c60 104 94 187 101 250 13 108 21 167 24 179v55H313v31h125v297h-94v31h125v8l47 47c0 5 2 8 7 8l71-66v-8c-5-1-11-5-16-12-26-5-52-8-78-8V562l-16-31v-16h8l63 63 54-51v-43M328 859h-47c0-15-13-41-39-78l-39-39v-39c41-58 69-162 86-313 5-19 8-42 8-70v-35c-13-77-21-130-24-160-10-37-20-63-31-78L151 0c-15 31-45 62-88 93h125v8c13 19 20 31 23 39 13 65 20 98 23 98v215h-23L78 320 0 281v31c13 0 42 21 86 63 65 80 104 145 117 196v19l-31 97-109-70-24-24H0c0 2 5 10 16 24l125 109v16l-39 39c0 11-24 42-71 94h24l105-110h4c22 11 43 42 63 94 5 13 7 29 7 47h32l47-24c10-13 15-21 15-23Z"/></symbol><symbol id="𤜵_P" viewBox="0 0 1000 1000" data-size="22"><path transform="matrix(1 0 0 -1 47 953)" d="M906 484H797V0h-63v484H625v31h109v297h-78v31h110v8l47 47c0 5 2 8 7 8l55-51v-43h-78V547h8l31 31 70-67v-27m-297 0H484V332c-13-46-20-79-23-98-19-68-40-120-63-156-23-39-44-65-62-78h-23c60 104 94 187 101 250 13 108 21 167 24 179v55H313v31h125v297h-94v31h125v8l47 47c0 5 2 8 7 8l71-66v-8c-5-1-11-5-16-12-26-5-52-8-78-8V562l-16-31v-16h8l63 63 54-51v-43M328 859h-47c0-15-13-41-39-78l-39-39v-39c41-58 69-162 86-313 5-19 8-42 8-70v-35c-13-77-21-130-24-160-10-37-20-63-31-78L151 0c-15 31-45 62-88 93h125v8c13 19 20 31 23 39 13 65 20 98 23 98v215h-23L78 320 0 281v31c13 0 42 21 86 63 65 80 104 145 117 196v19l-31 97-109-70-24-24H0c0 2 5 10 16 24l125 109v16l-39 39c0 11-24 42-71 94h24l105-110h4c22 11 43 42 63 94 5 13 7 29 7 47h32l47-24c10-13 15-21 15-23Z"/></symbol><symbol id="𤠔_T" viewBox="0 0 1000 1000" data-size="22"><path transform="matrix(1 0 0 -1 47 961)" d="m906 650-23-25h-8l-39 31c-5 11-8 21-8 31-10 0-36-3-78-8l-125-15-187-24h-32v-31h-31c0 8-5 31-16 70v24c17 0 44 13 79 39 45 34 92 91 140 172 0 5 5 8 16 8l47-32h15L516 757l-78-39v-15h148l141 15h70l-78 86v8c84-20 146-74 187-162m-15-111-24-24h-8V148l-19-23h-43v47H563l46-55v-8c-5 0-31-8-78-23 0-13-47-42-140-86h-47v15c104 42 166 94 187 157h-78v-47h-62v468l70-46h352v31h39l39-35v-4M875 0h-23c-60 67-115 114-164 140 62-3 124-32 187-86V0M344 843h-47c0-10-3-21-8-31-34-49-63-83-86-101 17-13 30-31 39-55 27-72 43-129 47-172 5-13 8-26 8-39V222c-13-46-21-78-24-97l-15-47-55-55-47-23h-47c0 10-2 20-7 31-47 31-71 52-71 62h141v8l39 39c13 39 20 59 23 59v269c-5 0-31-29-78-86C63 314 11 281 0 281v31c104 60 177 146 219 259v19l-31 97c-27-21-84-52-172-94H0c0 2 5 10 16 24 57 26 104 62 140 109v16L31 863v27c39-16 84-52 133-109 5-11 8-21 8-31 41 31 73 83 94 156h23l24-24c10-5 20-7 31-7v-32m453-421v93H453v-93h344m0-110v78H453v-78h344m0-109v78H453v-78h344Z"/></symbol><symbol id="𤰶_T" viewBox="0 0 1000 1000" data-size="22"><path transform="matrix(1 0 0 -1 133 961)" d="M734 453h-31V156h-62v47H391V0h-63v203H63c0-11-3-21-8-31l-16-16H0v359l55-31h273v94H125c0-11-3-21-8-31l-15-16H63v328l54-31h211v94c3-5 21-11 55-16h39v-24l-31-27v-27h199l24 31 42-23 16-16v-23h-31V554l-20-23h-43v47H391v-94h261l25 31 42-23 15-16v-23M578 718v79H391v-79h187m0-109v78H391v-78h187M328 718v79H125v-79h203m313-359v94H391v-94h250M328 609v78H125v-78h203m313-375v94H391v-94h250M328 359v94H63v-94h265m0-125v94H63v-94h265Z"/></symbol><symbol id="𤲒_T" viewBox="0 0 1000 1000" data-size="22"><path transform="matrix(1 0 0 -1 54 961)" d="M891 422H734V0h-62v422H531v-79c-23-110-52-188-86-234C375 36 331 0 313 0v23c51 30 95 95 132 195 6 15 19 72 39 172v32H359v31h125v219h-93v31h109l-23 125-39 78h23c15 0 41-42 78-125 5-26 8-52 8-78h125l62 195v24c5-5 21-11 47-16h32v-31h-32c-21-68-52-125-93-172h54l59 62h4l54-50v-43H734V453h39l59 62h4l55-50v-43M375 820l-23-23h-8V148l-20-23h-43v78H63v-63c-5 0-21-5-47-15H0v750h8l47-47h242v31h39l39-35v-4m297-367v219H547V453h125m-391 78v266h-78V531h78m-140 0v266H63V531h78m140-297v266h-78V234h78m-140 0v266H63V234h78Z"/></symbol><symbol id="𤾡_T" viewBox="0 0 1000 1000" data-size="22"><path transform="matrix(1 0 0 -1 47 969)" d="M438 781h-47l-24 94-23 31h23l71-66v-59m468-430c-18-13-31-31-39-54-11-75-22-132-31-172-7-30-20-61-39-94L734 0h-31c-15 15-41 31-78 47h-16v15h141v8c14 20 22 33 23 39l40 160v74H414c-31-62-83-124-156-187h-55v62H63V109H0v688h8l47-47h4c1 5 5 9 11 15l39 117v24h47l32-16h15c0-3-5-11-15-23-11-6-21-8-32-8 0-11-3-21-8-31-23-16-41-42-54-78h125v31h39l39-35v-4l-31-27V203c119 141 197 312 234 515H336l-23 24v8h187v23l16 47v117l62-15h31v-24l-23-23-16-47c-5-8-7-16-7-24v-54h132l32 31h15l39-39v-16c-18-13-31-31-39-54l-23-110h39l27 31h4l39-35v-43h-31v-39c-11-60-16-94-16-101h39l28 31h4l54-51v-4M750 156h-47l-39 94-23 23v24l47-24 62-62v-55m-109-31h-43c-1 5-5 9-12 15l-16 78-23 47h23l32-31c7-24 20-42 39-55v-54m-110 7-35-39h-4l-23 20v90l-16 31v16h31v-16c19-15 32-41 39-78 5-8 8-16 8-24M422 234c-7-29-15-59-22-89-9-27-28-50-56-67h-24l-23 23c63 45 94 94 94 149h31v-16m266 484H555l-16-15-39-141h156v31l32 125m46-226v39H484c-10-52-31-104-62-156h297c0 13 5 52 15 117m-531 8v218H63V500h140m0-250v218H63V250h140Z"/></symbol><symbol id="𤾸_T" viewBox="0 0 1000 1000" data-size="22"><path transform="matrix(1 0 0 -1 39 961)" d="M906 812H750v-8l-16-15v-39c2 0 10 5 24 15h8l47-31h15v-31h-78c0-8 26-32 78-71v-7c-15 0-31-3-47-8-26-34-62-63-109-86l23 62c3 0 21 31 55 94h-39l-78-15H328v15h31c89 13 157 21 204 24l93 15c31 5 52 8 63 8v16h-47v39l16 15v8h-79v31h39c31 5 47 11 47 16 5 20 8 41 8 63h55l23-20v-4l-31-27v-28h39l47 47h16l54-54v-24m-328 0H453c0-21-3-41-8-62-6-6-10-11-11-16h-28c0 2-5 21-15 55v23H266v31h109v79h78v-32l-15-31v-16h23l47 47h15l55-54v-24m47-242-23-23h-16l-16 15c-3 31-21 63-54 94 47-8 83-31 109-70v-16m-156-39h-24l-31 31-23 63h-32v31c47-8 84-31 110-70v-55m297-399-20-23h-27l-24 78-23 47c31-8 63-32 94-70v-32m156 102h-31v-31c-19-81-32-128-39-141-17-31-51-52-102-62h-16l-62 39c-16 5-32 8-47 8v15h141v8l39 39c13 52 21 78 23 78v63H414c-44-57-93-94-148-110v32c10 0 20 2 31 7 44 39 72 73 86 102l15 47 16 31c13 68 21 102 24 102v23h-94v31h375v8l15 16c0 5 3 8 8 8l39-36v-43h-31c0-21-3-41-8-62-5-5-8-11-8-16h39l28 32h4l39-36v-43h-31c0-16-3-31-8-46-5-5-8-11-8-16h39l27 31h4l55-51v-27M656 120l-23-27h-16l-15 16c-8 46-21 83-39 109h23c39-30 63-62 70-98m-93-27-16-31V47h-24l-23 19v74l-31 55v8l70-63 24-47M266 695l-24-23h-8V78h-62v47H63c0-11-3-21-8-32L39 78H0v672h8l47-47h4c1 5 5 10 11 15l16 47c5 36 8 73 8 110 5 0 10-3 15-8l63-16 16-15v-8h-32l-39-94-23-31h94v31h39l39-35v-4M453 39l-19-24h-43v157c-5 0-11 2-16 7v8h23c26-32 42-63 47-94 5-7 8-15 8-23V39m250 445H484v-94h204v32l15 62m63-125H477c-8 0-21-21-39-62v-16h312v23c11 34 16 52 16 55m-594 78v235H63V437h109m0-281v250H63V156h109Z"/></symbol><symbol id="𥁄_T" viewBox="0 0 1000 1000" data-size="22"><path transform="matrix(1 0 0 -1 63 938)" d="M734 781H109v31h500v8l47 47c0 5 3 8 8 8l70-67v-27m125-86-19-24H219l-31-93v-16h460c13 11 21 21 24 31v16h8l70-70c-11-13-21-21-31-24h-16l-55-172c-23-31-52-52-85-62h-47v31l-78 23c-11 13-16 21-16 24h86c1-1 5-7 12-16h4c27 11 51 16 70 16v16l23 46c14 55 22 83 24 86v24H125v23l31 117H16v32h703v7l47 47c0 5 2 8 7 8 13-18 32-31 55-39l31-31M875 0H0v31h109v281h8l47-47h539v31l63-23 15-16v-23h-31V31h8l62 62 55-51V0M688 31v203H563V31h125m-188 0v203H359V31h141m-203 0v203H172V31h125Z"/></symbol><symbol id="𥃲_T" viewBox="0 0 1000 1000" data-size="22"><path transform="matrix(1 0 0 -1 63 961)" d="m766 883-24-24h-8V500h-62v31H203v-31c-10 0-20-3-31-8-3-5-7-8-10-8-11 13-18 20-21 20v418h23l27-31h497v31h39l39-35v-4m109-594-20-23H688V23L668 0h-43v266H469v31h156v156h47l31-15h16v-32h-31V297h78c0 11 2 21 7 31l32 31 70-66v-4m-484-23H234V16c-5 0-20-5-46-16h-16v266H0v31h172v156h70l24-19v-28h-32V297h39l59 62h4l55-50v-43m281 515v78H203v-78h469m0-109v78H203v-78h469m0-109v78H203v-78h469Z"/></symbol><symbol id="𥃳_T" viewBox="0 0 1000 1000" data-size="22"><path transform="matrix(1 0 0 -1 54 953)" d="M813 812H328v31h344v8l47 47c0 5 2 8 5 8 26-8 56-31 89-70v-24m78-219H469l-63-156v-15h336l31 31h16l39-39v-39h-31v-39l-39-196c-5-27-18-58-39-93-11-13-21-21-31-24L625 7c-5-5-11-7-16-7 0 10-2 20-7 31-34 15-53 31-55 47h125v8c14 19 22 32 23 39l32 125c13 83 20 125 23 125v15H344v24l62 179H250v32h500v7l31 32c0 5 5 8 16 8h39l55-55v-24M250 836l-23-24h-8V86l-20-24h-43v47H63V62c-5 0-21-5-47-15H0v843h8l47-47h117v32h39l39-35v-4m-94-211v187H63V625h93m0-235v203H63V390h93m0-250v219H63V140h93Z"/></symbol><symbol id="𥄙_T" viewBox="0 0 1000 1000" data-size="22"><path transform="matrix(1 0 0 -1 63 961)" d="M875 125c-8 0-31-5-70-16h-24v32c-7 31-15 67-23 109l-11 110c-7 70-11 105-13 105v238h32V465c7-38 15-83 23-137 11-76 40-144 86-203m-16 703H625V16c-5 0-21-5-47-16h-15v828H344v31h406v8l47 47c0 5 3 8 8 8l54-51v-43M484 680l-23-24h-8V410c-13-45-20-78-23-97l-32-94c-29-63-62-104-101-125v23c46 57 75 117 86 180l16 86c3 20 5 30 7 31v289h78v-23M297 867l-24-23h-7V133l-20-24h-43v63H63c0-16-3-32-8-47-7-5-11-11-12-16H0v813h8l47-47h164v31h39l39-35v-4m-94-211v188H63V656h140m0-218v187H63V438h140m0-235v203H63V203h140Z"/></symbol></svg>