<svg xmlns="http://www.w3.org/2000/svg"><symbol id="嶲_T" viewBox="0 0 1000 1000" data-size="22"><path transform="matrix(1 0 0 -1 71 969)" d="M828 343H203v-31h-62v250l-78-70-63-24 133 157c26 47 39 83 39 109h16l66-31h14l13 8 47 15c5 10 21 21 47 31 11 13 16 21 16 24H78v141c3-5 21-11 55-16h39v-24l-31-27v-43h281v125l62-15h32v-32h-32v-78h250v110c2-5 21-11 55-16h39v-24l-23-23h-8V718h-63v63H461c-8-14-31-32-70-55-125-55-188-83-188-86h235v47l-16 31v16c39-15 62-31 70-47 5-15 8-31 8-47h172l47 24 25 23c42-13 70-31 84-55v-23H703v-16c11 0 21-3 31-7l47-47v-24h-78v-15c11 0 21-3 31-8l47-47v-16l-15-15v-8c10 0 20-3 31-8l31-31v-24m31-101-23-24h-8V39L789 0h-39l-62 39c-11 12-16 20-16 23h94v172H578V109h-15l-27-16-20 24v8H313v109H141V0H78v297h24l27-32h199v32h39l24-20v-23c-10-26-15-40-16-43v-55h141v141h23l27-32h215v32h24l54-51v-4M688 582v27H500v-62h148l40 35m0-94v27H500v-62h148l40 35m46-66H500v-47h172l47 23c10 13 15 21 15 24M438 547v62H203v-62h235m0-94v62H203v-62h235m0-78v47H203v-47h235Z"/></symbol><symbol id="貫_H" viewBox="0 0 1000 1000" data-size="21"><path transform="matrix(1 0 0 -1 43 945)" d="m187 891 52-37h487l-1 3 32 29c21-13 38-25 49-35 5-6 7-11 7-13 0-7-11-15-35-25-2-28-5-54-8-77h27l43 48c23-17 45-34 66-51 5-3 8-6 8-10 0-9-5-14-15-14H766c-4-17-7-32-10-45l-12-42h26l40 44c22-16 43-32 62-48 5-2 7-6 7-10 0-9-5-13-14-13H734c-4-10-7-18-10-25-12-17-24-30-37-39-15-10-30-17-46-23-15-5-27-8-36-8 0 10-4 18-13 23-11 8-72 20-184 38l5 19c101-14 168-20 201-20 12 0 23 1 32 3 8 2 15 7 21 13 5 5 10 11 15 19H153c-7-3-13-4-19-4-16 0-24 5-24 14 0 3 2 8 4 16 12 29 22 58 32 88h-32c-46-1-78-4-94-7L0 748c29-8 67-12 114-12h39c2 7 4 13 5 19 13 45 22 91 29 136m509-269c9 18 16 42 22 73l3 14H194c-8-32-16-61-24-87h348c-4 1-7 3-9 4-14 6-26 11-37 15-15 4-33 9-54 15-23 7-54 16-94 25l12 19c33-4 66-9 99-15 33-7 58-12 75-17 16-5 27-9 33-13s12-7 17-10c2-3 3-6 3-9 0-7-2-11-4-14h137M201 736h329c-5 2-10 5-16 7-14 7-26 12-37 16-15 4-32 9-53 14-22 8-53 16-92 25l12 19c32-4 65-9 97-15 33-7 57-12 74-17 16-5 27-9 32-13 6-3 12-6 16-9 2-3 3-6 3-9 0-9-2-15-6-18h166c3 26 7 57 9 91H224c-8-32-16-63-23-91m-62-222 61-30h507l34 33c33-24 50-40 50-49 0-7-10-15-29-25V188c0-14 0-24 1-29 0-5 1-10 1-15 0-14-11-23-34-27-10 0-15 3-15 10v29H372c15-9 28-17 39-25 3-2 4-5 4-10 0-6-6-10-18-10-8 0-18 1-30 2-31-19-64-34-98-47-34-15-67-27-99-37C130 17 91 7 52 0L39 21c60 18 109 35 149 52 41 17 73 32 96 47 17 11 32 23 45 36H188v-25c0-7-4-12-12-16-10-4-18-6-25-6-8 0-12 5-12 14 0 3 0 7 1 14 0 15 1 28 1 41v269c0 32-1 54-2 67m49-330h527v72H188v-72m0 99h527v76H188v-76m0 104h527v70H188v-70m337-258c49-7 96-15 144-25 47-11 83-20 107-28s41-14 49-19c10-7 18-13 24-18 3-4 5-9 5-14 0-17-8-25-22-25-5 0-12 2-19 5-9 2-19 7-31 14-20 9-38 17-54 24-23 8-49 16-79 25-33 11-79 24-137 39l13 22Z"/></symbol><symbol id="賁_T" viewBox="0 0 1000 1000" data-size="22"><path transform="matrix(1 0 0 -1 54 969)" d="M891 641H719V539l-20-23h-43v125H484v31h-62v141H188v31h234v94l62-16h32v-24l-32-27v-27h133l59 62h4l70-66v-27H484V672h172v109h47l31-15h16v-32h-31v-62h54c7 0 21 21 43 62h4l71-66v-27M781 438h-31V148l-23-23h-16l-31 31H391l31-39v-8c-21 0-42-2-63-7-50-39-107-66-171-79L70 0H31v31h39c60 13 94 21 102 24l125 62 31 39H227l-28-31h-43v313c0 20-3 41-8 62-5 42-7 84-7 125H0v31h141v125l62-15h31v-24l-31-27v-59h55c7 0 21 21 43 63h4l70-67v-27H203v-86c-11-13-21-20-31-23h-16v-16c21 0 42-10 63-31h476l29 31 42-23 15-16v-23m63-418c-15-9-22-16-22-20-3 0-6 3-9 8L688 70l-94 32-78 15c-11 14-16 22-16 24h47l141-24 62-15 78-39h16V20M688 375v63H219v-63h469m0-94v63H219v-63h469m0-93v62H219v-62h469Z"/></symbol><symbol id="贛_T" viewBox="0 0 1000 1000" data-size="22"><path transform="matrix(1 0 0 -1 31 977)" d="M359 797H31v31h125v47l-31 63v15l70-47 24-52c-1-3-7-9-16-18v-8h39l31 31c5 11 8 21 8 32 37-13 63-32 78-55v-39m579-125-32-47v-16h-54c-8 0-16 3-24 8-15 5-31 8-47 8v-16c11 0 21-2 32-7l15-16v-23H688v-79h70l58 63h4l71-66v-28H688v-62h105l24 31 42-24 16-15v-24h-31V109h-31V78c10 0 20-3 31-8l15-15V23L840 0h-4c-29 42-73 73-133 94v15h47l31-15h16l-16 31v16H516v-32h-16l-26-15c-10 12-17 19-21 19v309h24l27-31h121v62H469v24l31 86h-62v31h265l63 31h15v16l-109 47h-16l-140-55-94-24H297v-15h16l31-19c0-15-3-30-8-44-5-7-8-15-8-23V305l78-74v-4l-19-24H219V16h-63v187H0v31h156v94h-47v-47c-10 0-20-3-31-8-3-5-7-7-10-7-10 13-17 19-21 19v309l62-31h149l23 23v23H16v32h78v93l-16 32v15l39-31c11-15 21-41 31-78 5-4 8-8 8-12-5-1-10-5-15-12v-7h54l16 15 16 32 15 62c14 11 22 16 24 16h23l24-24v-23c-8 0-21-5-40-16l-39-62h24l58 62h4l71-70c1-5 2-8 4-8h5l6 8 63 15c67 27 104 42 109 47l31 32-70 70h-8l-31-24-78-39h-31c49 26 104 73 164 141l23 63c8 0 31-5 70-16h24c0-3-5-11-16-24-10-5-20-7-31-7v-16h148l28 31h4l39-35v-43c-11 0-21-3-31-8L703 719h24c59-19 114-32 164-39 15-5 31-8 47-8M625 78c-15 0-31-3-47-8-47-26-83-42-109-47L391 8c-5-5-11-8-16-8v31c15 0 62 18 141 55l31 31c0 5 1 8 4 8 4 0 8-3 12-8l46-15 16-16v-8m125 742v24H609l-31-16h-15v-31c10 0 20-3 31-8 0-8 21-21 62-39 31 8 63 31 94 70M625 484v79h-55c-7 0-20-21-39-63v-16h94m156-171v46H516v-46h265m0-79v47H516v-47h265m0-62v31H516v-31h265M266 453v78H109v-78h157m0-94v63H109v-63h157m47-93v15h-16v-15h16m-16-8v8h-31v62h-47v-94h54l24 24Z"/></symbol><symbol id="起_T" viewBox="0 0 1000 1000" data-size="22"><path transform="matrix(1 0 0 -1 39 954)" d="m922 197-24-25H555l-24 24v382h16l31-15h203v234H531v31h250v8l16 16c0 6 3 8 10 8l52-24 16-15v-24h-31V586l31-27v-27H594V235h246c1 5 5 10 12 15l23 71v23h31c0-31 3-62 8-94 5-17 8-35 8-53m0-119-24-46c-13-11-20-16-23-16H516C359 34 281 47 281 55c-29 0-83 49-164 148L39 32 0 0c31 102 52 188 63 258v180h46l32-16h15l-23-31h-8v-78c-1-4-7-13-16-28v-11c37-71 73-115 110-133v375H31v31h188v156H63v32h156v172h70l24-20v-4l-32-27V735l63 23 26 24c42-13 70-32 83-55v-24H281V547h55l59 63h3c13-19 32-32 55-39l31-32v-23H281V360h32l46 23 27 24c42-13 69-32 83-55v-24H281V117l16-15 62-16c11-5 21-8 32-8h531Z"/></symbol><symbol id="趼_T" viewBox="0 0 1000 1000" data-size="22"><path transform="matrix(1 0 0 -1 39 961)" d="M922 500H781V23L762 0h-43v500c-16 0-32 3-47 8-11 13-16 20-16 23h63v297c-16 0-32 3-47 8-11 13-16 20-16 23h157l15 32v15h24c7 0 20-21 39-62v-16H781V531h39l32 32c5 10 7 20 7 31h16c0-11 3-21 8-31l39-40v-23m-281 0H531c0-11-3-21-8-31l-15-141-16-78C471 146 409 63 305 0h-24c65 52 115 125 149 219l15 78c9 45 16 88 20 128l4 44v31h-94v31h94v297h-78v31h156l31 47v16h16c0-11 3-21 8-31l39-39v-24H531V531h24c13 11 21 21 23 32v15h24c7 0 20-21 39-62v-16m-250-94H234V172l110 47h15v-31l-171-86L63 63V31H35c-1 5-5 11-12 16-13 41-20 62-23 62v16h47v359h55l15-15c5 0 8-1 8-1v-15c-10-19-15-30-16-31V141h63v468h-63c0-15-2-31-7-46-7-5-11-11-12-16H47v375l62-31h149l34 31 52-24 15-15v-24h-31V672l31-55v-8H234V438h24l58 62h4l71-66v-28M266 641v218H109V641h157Z"/></symbol><symbol id="趼_P" viewBox="0 0 1000 1000" data-size="22"><path transform="matrix(1 0 0 -1 39 961)" d="M922 500H781V23L762 0h-43v500c-16 0-32 3-47 8-11 13-16 20-16 23h63v297c-16 0-32 3-47 8-11 13-16 20-16 23h157l15 32v15h24c7 0 20-21 39-62v-16H781V531h39l32 32c5 10 7 20 7 31h16c0-11 3-21 8-31l39-40v-23m-281 0H531c0-11-3-21-8-31l-15-141-16-78C471 146 409 63 305 0h-24c65 52 115 125 149 219l15 78c9 45 16 88 20 128l4 44v31h-94v31h94v297h-78v31h156l31 47v16h16c0-11 3-21 8-31l39-39v-24H531V531h24c13 11 21 21 23 32v15h24c7 0 20-21 39-62v-16m-250-94H234V172l110 47h15v-31l-171-86L63 63V31H35c-1 5-5 11-12 16-13 41-20 62-23 62v16h47v359h55l15-15c5 0 8-1 8-1v-15c-10-19-15-30-16-31V141h63v468h-63c0-15-2-31-7-46-7-5-11-11-12-16H47v375l62-31h149l34 31 52-24 15-15v-24h-31V672l31-55v-8H234V438h24l58 62h4l71-66v-28M266 641v218H109V641h157Z"/></symbol><symbol id="跋_T" viewBox="0 0 1000 1000" data-size="22"><path transform="matrix(1 0 0 -1 47 953)" d="M813 718h-47l-55 125-23 32h23c29-32 52-53 70-63l32-39v-55m93-656c-10 0-20-3-31-8l-42-39-83 39-102 102C599 93 513 41 391 0l140 101 78 81c-57 94-94 194-109 302h-16c-13-104-52-229-117-375-5 0-21-26-47-78L281 0l47 109v16l-47-24L63 31V0H39C31 0 18 21 0 62v16h31v344c3 0 21-5 55-16h23v-16l-15-31V93h23l24 20v465H94c0-21-3-42-8-63-7-6-10-10-12-15H31v390h24l27-31h184v31l62-23 16-16v-23h-31V632l31-27v-27H203V375h24l31 31c5 11 8 21 8 31h23l70-66v-28H203V125l125 31h31v23c33 79 57 165 71 258 7 49 14 98 23 149v39h-94v31h94v16l16 31v203h70l24-24v-7h-32c0-32-3-63-8-94-5-16-7-32-7-47v-78h242l47 47h47l54-55v-23H500v-86l-16-16v-8h243c5 2 19 7 44 16h21c0-5 7-11 21-16h15v-47h-31l-55-171-54-99c0-10 21-27 62-50 75-41 122-62 141-62l15-16v-8M734 429v55H516l70-172c14-34 37-60 70-78v16c47 86 73 146 78 179M250 609v219H94V609h156Z"/></symbol><symbol id="跰_T" viewBox="0 0 1000 1000" data-size="22"><path transform="matrix(1 0 0 -1 47 953)" d="M906 453h-93V0h-63v453h-62v31h62v219c-21 0-41 2-62 8-11 13-16 20-16 23 21 0 41 2 62 8 2 0 10 13 24 39l39 125h31l31-16h16v-31c-8 0-21-5-39-16-39-47-63-83-70-109h54c13 11 21 21 24 31v16h31c0-11 3-21 8-31l23-24v-23h-93V484h7l47 47c8 0 21-21 39-63v-15m-281 0H516V281c-8-16-21-63-39-141-21-47-42-83-63-109L383 0h-24c35 43 58 90 71 140l15 63c13 122 21 187 24 195v55h-63v31h63v219c-21 0-42 2-63 8-10 13-15 20-15 23h62l39 109c5 21 8 42 8 63h47l31-16h16c0-3-5-11-16-23-10-6-20-8-31-8 0-11-3-21-8-31l-70-94h78c0 11 3 21 8 31l15 16 39-35v-43h-78c0-21-3-42-8-63-5-10-7-20-7-31V484h23c13 11 21 21 24 31v16h7l55-55v-23m-234-39-20-24H234V156c63 15 104 31 125 47h16v-31C271 117 167 77 63 54 52 36 47 23 47 15c-3 0-11 5-24 16L0 78v31h47v391l62-16h32v-31h-32V125h39l24 19v449h-63v-31H47v344l55-31h179v31l63-24 15-15v-24h-31V648l31-27v-28H234V422h39l47 46h16l55-54M266 625v218H109V625h157Z"/></symbol><symbol id="跰_P" viewBox="0 0 1000 1000" data-size="22"><path transform="matrix(1 0 0 -1 47 953)" d="M906 453h-93V0h-63v453h-62v31h62v219c-21 0-41 2-62 8-11 13-16 20-16 23 21 0 41 2 62 8 2 0 10 13 24 39l39 125h31l31-16h16v-31c-8 0-21-5-39-16-39-47-63-83-70-109h54c13 11 21 21 24 31v16h31c0-11 3-21 8-31l23-24v-23h-93V484h7l47 47c8 0 21-21 39-63v-15m-281 0H516V281c-8-16-21-63-39-141-21-47-42-83-63-109L383 0h-24c35 43 58 90 71 140l15 63c13 122 21 187 24 195v55h-63v31h63v219c-21 0-42 2-63 8-10 13-15 20-15 23h62l39 109c5 21 8 42 8 63h47l31-16h16c0-3-5-11-16-23-10-6-20-8-31-8 0-11-3-21-8-31l-70-94h78c0 11 3 21 8 31l15 16 39-35v-43h-78c0-21-3-42-8-63-5-10-7-20-7-31V484h23c13 11 21 21 24 31v16h7l55-55v-23m-234-39-20-24H234V156c63 15 104 31 125 47h16v-31C271 117 167 77 63 54 52 36 47 23 47 15c-3 0-11 5-24 16L0 78v31h47v391l62-16h32v-31h-32V125h39l24 19v449h-63v-31H47v344l55-31h179v31l63-24 15-15v-24h-31V648l31-27v-28H234V422h39l47 46h16l55-54M266 625v218H109V625h157Z"/></symbol><symbol id="軔_T" viewBox="0 0 1000 1000" data-size="22"><path transform="matrix(1 0 0 -1 31 961)" d="M938 234c0-3-5-10-16-23-23-8-41-21-55-39h-12c-16 9-25 14-27 15h-31v-31c-13-47-21-73-24-78l-54-55-63-16c-5-5-10-7-15-7 0 10-3 20-8 31l-24 23c-15 5-31 8-46 8v8c11 13 17 20 17 23 2 0 9-5 22-15h93l32 31c13 55 20 84 23 88v25l-94 82-62 39C573 207 479 93 313 0h-32v15l133 94c18 0 62 86 133 258v39c-57 78-94 146-109 203l101-125c5-11 8-21 8-31h16v15l15 32v312H406v31h391l16 32v15h7l55-54v-16l-23-23-16-344c-5-115-8-175-8-179 26-27 63-40 110-40m-547-8-20-23H219V0h-63v203H23L0 226v8h156v109H78v-62H16v391l54-32h86v94H23L0 757v8h156v157c3-5 21-11 55-16h39v-24l-31-27v-90h39l47 47h8l46-31h16v-47H219v-94h74l25 32 41-24 16-16v-23h-31V289l-16-16v-8c11 0 21-3 31-8l32-31m390 235v351H641V613c-13-82-21-141-24-176-5-13-8-27-8-42 52-34 83-59 94-75l63-23v54l15 110m-500 54v94h-62v-94h62m-125 0v94H78v-94h78m125-140v109h-62V375h62m32-94h-32v62h-62V234h31l47 23c11 13 16 21 16 24m-157 94v109H78V375h78Z"/></symbol><symbol id="輸_T" viewBox="0 0 1000 1000" data-size="22"><path transform="matrix(1 0 0 -1 31 969)" d="M766 625H500v31h141v8l47 47c0 5 2 8 7 8l71-67v-27M906 86c0-3-3-5-8-8l-15-47-16-15h-15l-16 15c-10 87-20 145-31 172l-39 102c0 7 2 15 7 23l16 47 24 117v39h-24l-16-15c-13-57-41-125-85-203v-24l23-23c41-79 62-126 62-141 5-8 8-16 8-23V63l-15-32V16h-47c0 10-3 20-8 31-3 105-21 188-55 247 0 7 3 13 8 19 24 62 42 145 55 250h74c5-10 9-15 11-16h4c7 10 11 15 12 16h86v-24c-18-3-36-32-54-86l-55-160 55-74c5 0 20-42 46-125 5-3 8-5 8-8m32 586c0-3-5-11-16-24-11-5-21-7-31-7v-32h-24c-21 5-73 52-156 141l-63 94c-15-33-64-88-148-164-20-19-56-40-109-63-3-5-7-8-10-8l-14 16h-8V281h-31l55-62h8v23l15 47v274h24l27-32h121v32h24l23-24c11-5 21-8 31-8v-23l-23-24h-8V55l-39-39h-31l-24 23c-41 13-62 21-62 24h-16v15h110v156H453v-15c-1-2-14-39-39-110-10-29-39-60-86-93l63 156v16H219V16c-5 0-21-5-47-16h-16v188H0v31h156v125H78v-63H16v407h23l27-32h90v110H0v31h156v141h71l23-20v-27h-31v-94h70c7 0 21 21 43 62h4l70-66v-27H219V656h90l25 32 41-24 23-23c37 21 73 52 110 93l117 188h39l24-22c-2-2-7-7-16-15v-5c0-18 42-69 125-153 78-37 125-55 141-55M563 391v109h-94V391h94M297 516v109h-78V516h78m266-250v93h-86l-24-19v-74h110M156 516v109H78V516h78m141-141v109h-78V375h78m-141 0v109H78V375h78m157-118c0 9-3 17-8 24-5 21-8 42-8 63h-78V219h58l36 38Z"/></symbol><symbol id="邔_T" viewBox="0 0 1000 1000" data-size="22"><path transform="matrix(1 0 0 -1 63 953)" d="M875 836c-3-8-21-21-55-39-7-31-41-104-101-219-5-15-11-22-16-22v-5c68-43 117-112 149-208 5-7 7-15 7-23v-74c-13-27-20-47-23-59l-47-47h-62l-39 39c-16 5-32 8-47 8v31h39c3 0 16-5 39-15h15l47 23 16 16v117c-31 81-73 145-125 192 0 3 3 7 8 11 21 36 41 83 62 141 8 41 21 83 39 125H563V23L543 0h-43v906c15-16 41-32 78-47h188c3 0 10 5 23 16 5 10 8 20 8 31 37-14 63-32 78-55v-15M422 515H78V109h24l273 94c0-14-62-53-187-117L63 47V15H39C28 20 18 36 8 62l-8 2v15l16 30v563c7 0 31-5 70-16h23v-31H78v-78h250v296H23L0 867v8h328v7l16 16c0 5 3 8 10 8l52-24 16-15v-24h-31V570l31-27v-28Z"/></symbol><symbol id="郱_T" viewBox="0 0 1000 1000" data-size="22"><path transform="matrix(1 0 0 -1 39 969)" d="M484 891c-25 0-43-11-54-32-39-68-65-104-78-109h-24v27c13 9 21 16 24 20l15 47 16 31c5 21 8 42 8 63h15c31-13 52-21 63-24l15-16v-7m-218 0h-32l-23-63c-21-37-42-63-63-78h-23c11 8 32 63 63 164v24c2 0 20-5 54-16h24v-31m656-24c-3-8-21-21-55-39-44-127-83-208-117-242v-23c63-21 115-84 156-188V234c-16-39-31-62-47-70l-46-23h-32v15c-5 13-10 21-15 24-42 13-63 20-63 23h-15v16h140l31 54v63c0 8-2 16-7 23l-32 94c-55 60-84 104-86 133l24 55 70 218H656V16c-5 0-21-5-47-16h-15v453h-8l-16-15H453V16c-5 0-21-5-47-16h-15v438c-26 0-52 2-78 7-1 5-3 8-6 8h-5c-7-10-11-15-13-15H172v-32c-13-73-21-125-24-156-21-89-41-146-62-172L23 16H0l23 31 47 94 16 62c13 107 20 166 23 180v55H16v31h93v234H16v31h156l39 47h16l54-54v-24H172V469l55 47h15l47-47h102v234h-78v31h156l39 47h15l55-54-19-24H453V469h31c0 10 3 20 8 31l31 31 63-62h8v469c16-16 41-32 78-47h141c2 0 10 5 23 15 5 11 8 21 8 32 36-13 62-32 78-55v-16Z"/></symbol><symbol id="鄑_T" viewBox="0 0 1000 1000" data-size="22"><path transform="matrix(1 0 0 -1 39 961)" d="M922 284c-8-60-31-108-70-143h-71c0 7-5 20-15 39l-63 23v16h141v15l15 32v86c0 7-2 15-7 23 0 15-21 62-63 141l-39 43v17c3 2 21 55 55 158 13 63 21 94 23 94v16H656V16c-5 0-21-5-47-16h-15v922l70-47h180v47c36-13 62-32 78-55v-15c-11-13-21-21-31-24h-16c-25-104-56-182-94-234-5-15-10-22-15-22v-5c75-67 114-110 117-129 14-36 24-73 31-110 5-18 8-33 8-44M563 484H0v32h156v312H0v31h438v8l46 47c0 5 3 8 8 8l71-66v-28H359V516l39 31c5 0 21 42 47 125 5 26 8 52 8 78l63-16h31c-18-5-52-62-102-171l-39-47h24l58 62h4l71-66v-28m-438 71-20-24H78c0 11-3 32-8 63l-15 94-24 62 39-31c26-31 42-63 47-94 5-8 8-16 8-23v-47m359-119c0-15-2-30-7-45-5-8-8-16-8-24V16h-63v47H125V16H63v437l54-31h305v31h39l16-15c5-1 7-1 7-2m-187 80v312h-78V516h78m109-250v125H125V266h281m0-172v140H125V94h281Z"/></symbol><symbol id="鄛_T" viewBox="0 0 1000 1000" data-size="22"><path transform="matrix(1 0 0 -1 39 969)" d="M531 879c-5-1-10-5-15-12l-47-15-63-63c31-15 63-41 94-78v-39h-62c-11 49-32 83-63 101v24l23 47 16 15c13 42 21 63 24 63v16l78-40 15-15v-4m391-559-39-117-55-31h-47c0 11-3 21-8 31l-23 24c-15 5-31 7-47 7v32c5 0 21-5 47-16h70l39 39v78c0 7-2 15-7 24-28 84-62 145-102 183l55 160 23 110H672V16c-5 0-21-5-47-16h-16v922h8l47-47h180v47h23l55-51v-19c-11-13-21-21-31-24h-16l-23-78-71-141c-5-14-10-21-15-21v-5c104-85 156-173 156-263M375 883l-16-16-46-15-63-63c31-15 63-41 94-78v-31l-24-24h-15l-32 32c-2 33-20 62-54 85v32l62 109c0 5 4 8 11 8l67-31h16v-8m-172-24c-15 0-31-2-47-7-52-39-78-63-78-71 11 0 21-3 31-8l63-62v-31l-24-24h-7c-2 0-10 5-24 16-39 76-62 114-70 114 0 3 3 7 8 11 36 51 54 92 54 125h32l47-24 15-15v-24m391-554-20-24H328v-23c83-97 167-147 250-149 0-3-5-10-15-23-11-5-21-8-32-8V47l-93 39c-57 44-94 93-110 148h-15V39l-20-23h-43v203C177 135 104 83 31 63H0v15c47 13 83 32 109 55 37 23 73 73 110 148H0v32h250v343c3-5 21-10 55-15h39v-24l-31-27V313h164l39 39v7h-24l-47 16H344v31h125v63H344v31h125v63H344v31h125l23 31h31l40-39-24-23h-8V383l-15-16v-8c10 0 20-2 31-7l47-47m-360 70H94v-31H31v281h24l31-31h31c14 18 32 31 55 39 0 5 5 8 16 8l31-16h15v-47h-7l-16 16c-8 0-16-3-23-8l-71-23H94v-63h54c13 11 21 21 24 31v16h31c0-11 3-21 8-31l23-24v-23H94v-63h54l43 47h4c8 0 21-21 39-62v-16Z"/></symbol><symbol id="鈸_T" viewBox="0 0 1000 1000" data-size="22"><path transform="matrix(1 0 0 -1 31 969)" d="M813 750h-47l-24 94-23 47h23l71-67v-74M938 78c0-3-5-10-16-23l-63-39-62 39-109 101C615 89 542 42 469 16h-31v15c93 38 166 94 218 167-23 31-52 111-86 240-13 10-21 15-23 15-34-187-94-333-180-437h-23c125 239 187 436 187 593v63H430l-24 23v8h125c0 5 3 11 8 16h8v219c2-5 21-11 55-16h39v-31h-32c0-26-2-52-7-78-5-13-8-27-8-40v-70h211l31 31c5 11 8 21 8 32 36-13 62-32 78-55v-39H594c0-5-3-11-8-16h-8V555l-15-16v-8h195c5 2 19 7 44 16h20c0-3 12-11 37-24l16-15c-11-14-21-22-31-24h-16c-15-117-51-208-109-273 31-60 104-104 219-133m-547 86c-31-41-125-83-282-125C99 21 94 8 94 0H66c-1 5-5 11-11 16-13 41-21 62-24 62v16c31 0 63 3 94 8 15 5 31 7 47 7v297H47v32h125v156H86l-14 15h-7c-1-1-1-3-2-7l-40-39H0c60 57 115 145 164 265 13 52 21 78 24 78v16c5-5 20-11 46-16h32v-23l-16-16v-8l63-23 78-78v-31l-20-24h-4c-41 57-83 104-125 141-54-94-104-167-148-219h164l58 63h4l55-51v-43H234V438h39l59 62h4l55-51v-43H234V125c52 11 104 32 157 63v-24m0 149c-8 0-21-5-39-16-16-42-42-84-79-125h-3c-9 14-16 21-20 21 0 3 3 7 8 10l31 63c13 52 21 78 24 78v15h7c23-13 42-20 55-23l16-16v-7M141 180l-24-24h-15l-24 24v86l-31 62v16h23l16-16 55-109v-39m640 320H578v-16c13-36 21-62 24-78 39-93 62-140 70-140v-16h31l55 156 23 94Z"/></symbol><symbol id="鉼_T" viewBox="0 0 1000 1000" data-size="22"><path transform="matrix(1 0 0 -1 47 961)" d="M875 875c-8 0-21-5-39-16l-86-141h-31v16l54 109 16 63 8 8c0 5 1 8 4 8 4 0 8-3 12-8l46-16 16-16v-7m-250 0c-8 0-21-5-39-16-49-94-83-141-102-141v32c19 33 32 64 39 93 5 23 8 50 8 79l63-16h31v-31m281-500H781V0h-62v375h-78v31h78v266h-31l-46 15c-6 0-12-3-17-8-26-5-52-7-78-7V437h23l102 31v-23l-125-70h-16v-47c-13-74-20-115-23-125l-47-94c-49-63-93-94-133-94 68 45 115 125 141 242v86h-31c0-10-3-21-8-31l-16-15c-13 10-20 20-23 31v15c-5 0-21-5-47-15h-16c0-16-3-32-8-47-36-52-54-84-54-94h-32l55 172c13 11 21 16 24 16 5 0 20-5 46-16h16c0 2-5 10-16 23v8c11 0 42 5 94 16h31v266h-93v31h125v8l47 46c0 5 2 8 7 8l63-62h140l63 62 70-66v-4l-19-23H781V406h8l63 62 54-50v-43m-531 62H219V140c16 0 31 2 47 8 7 5 15 8 23 8h55c-5-18-21-31-47-39L78 47V15H47v16L16 93h15l32 16h78v8l15 15v305H16v31h140v125H70l-13 16h-7L8 562H0v24c104 127 156 239 156 336 8 0 32-5 71-16h23v-8l-16-16v-15l86-86 24-53v-5l-24-20h-39c0 26-13 62-39 109l-39 31-39-93-86-125h141c0 10 3 20 8 31l31 31 70-66v-4l-19-24h-90V468h23l59 63h4l70-66v-28M125 192l-23-20H63v117c0 7-3 15-8 23-13 36-21 55-24 55v8h32c33-57 51-104 54-141 5-13 8-25 8-37v-5Z"/></symbol><symbol id="鉼_P" viewBox="0 0 1000 1000" data-size="22"><path transform="matrix(1 0 0 -1 47 961)" d="M875 875c-8 0-21-5-39-16l-86-141h-31v16l54 109 16 63 8 8c0 5 1 8 4 8 4 0 8-3 12-8l46-16 16-16v-7m-250 0c-8 0-21-5-39-16-49-94-83-141-102-141v32c19 33 32 64 39 93 5 23 8 50 8 79l63-16h31v-31m281-500H781V0h-62v375h-78v31h78v266h-31l-46 15c-6 0-12-3-17-8-26-5-52-7-78-7V437h23l102 31v-23l-125-70h-16v-47c-13-74-20-115-23-125l-47-94c-49-63-93-94-133-94 68 45 115 125 141 242v86h-31c0-10-3-21-8-31l-16-15c-13 10-20 20-23 31v15c-5 0-21-5-47-15h-16c0-16-3-32-8-47-36-52-54-84-54-94h-32l55 172c13 11 21 16 24 16 5 0 20-5 46-16h16c0 2-5 10-16 23v8c11 0 42 5 94 16h31v266h-93v31h125v8l47 46c0 5 2 8 7 8l63-62h140l63 62 70-66v-4l-19-23H781V406h8l63 62 54-50v-43m-531 62H219V140c16 0 31 2 47 8 7 5 15 8 23 8h55c-5-18-21-31-47-39L78 47V15H47v16L16 93h15l32 16h78v8l15 15v305H16v31h140v125H70l-13 16h-7L8 562H0v24c104 127 156 239 156 336 8 0 32-5 71-16h23v-8l-16-16v-15l86-86 24-53v-5l-24-20h-39c0 26-13 62-39 109l-39 31-39-93-86-125h141c0 10 3 20 8 31l31 31 70-66v-4l-19-24h-90V468h23l59 63h4l70-66v-28M125 192l-23-20H63v117c0 7-3 15-8 23-13 36-21 55-24 55v8h32c33-57 51-104 54-141 5-13 8-25 8-37v-5Z"/></symbol><symbol id="鋗_T" viewBox="0 0 1000 1000" data-size="22"><path transform="matrix(1 0 0 -1 47 969)" d="m906 617-23-23h-8c-3 0-10 5-23 15l-24 63c-10 0-31-3-62-8l-94-16c-55-7-113-14-172-23h-47v-31h-31v15l-16 32v39c71 49 115 94 133 133l55 117c0 5 2 8 5 8l57-32h16v-31h-47c0-15-13-41-39-78-75-63-114-94-117-94v-15h164l109 15h55v24l-63 58v28c13 0 63-42 149-125l23-47v-24m-15-109-24-24h-8V70l-35-39h-74v32c-5 0-21 5-47 15h-15v16h109v187c-5 0-11-3-16-8-135-41-208-62-218-62-11-18-16-31-16-39h-31c0 11-3 21-8 31-14 11-22 16-24 16L445 94l-86-78v23l24 24c27 48 42 84 47 109 14 78 21 117 23 117v289h8l47-47h305v32h23l55-51v-4M375 156C271 98 167 62 63 47V0c-3 0-11 5-24 16L0 109h156v344H16v31h140v125H63l-32-15H16c58 86 92 143 101 172l31 93c5 26 8 52 8 79h71l23-20v-4l-31-31v-8l62-23c63-53 94-94 94-123v-5l-23-21h-39c-16 73-53 125-110 156-31-94-73-166-125-218h149l58 62h4l55-51v-43H219V484h39c7 0 21 21 43 63h4l70-66v-28H219V141h23l133 47v-32m-16 211-23-23c-11-16-21-42-31-78-11-5-21-21-32-47-13-11-20-16-23-16v24l23 70 16 78 16 16h54v-24M109 195l-19-23H63c0 72-16 146-47 219h23l16-16 54-109v-71m688 121v184H516v-78h129c27-13 47-21 58-24l31-25v-3l-15-26v-16h-16l-109 55-63 15c-5 5-10 8-15 8 0-36-3-72-8-109-5-16-8-32-8-47h31c63 13 104 21 125 23l125 32c5 6 11 10 16 11Z"/></symbol><symbol id="鋗_P" viewBox="0 0 1000 1000" data-size="22"><path transform="matrix(1 0 0 -1 47 969)" d="m906 617-23-23h-8c-3 0-10 5-23 15l-24 63c-10 0-31-3-62-8l-94-16c-55-7-113-14-172-23h-47v-31h-31v15l-16 32v39c71 49 115 94 133 133l55 117c0 5 2 8 5 8l57-32h16v-31h-47c0-15-13-41-39-78-75-63-114-94-117-94v-15h164l109 15h55v24l-63 58v28c13 0 63-42 149-125l23-47v-24m-15-109-24-24h-8V70l-35-39h-74v32c-5 0-21 5-47 15h-15v16h109v187c-5 0-11-3-16-8-135-41-208-62-218-62-11-18-16-31-16-39h-31c0 11-3 21-8 31-14 11-22 16-24 16L445 94l-86-78v23l24 24c27 48 42 84 47 109 14 78 21 117 23 117v289h8l47-47h305v32h23l55-51v-4M375 156C271 98 167 62 63 47V0c-3 0-11 5-24 16L0 109h156v344H16v31h140v125H63l-32-15H16c58 86 92 143 101 172l31 93c5 26 8 52 8 79h71l23-20v-4l-31-31v-8l62-23c63-53 94-94 94-123v-5l-23-21h-39c-16 73-53 125-110 156-31-94-73-166-125-218h149l58 62h4l55-51v-43H219V484h39c7 0 21 21 43 63h4l70-66v-28H219V141h23l133 47v-32m-16 211-23-23c-11-16-21-42-31-78-11-5-21-21-32-47-13-11-20-16-23-16v24l23 70 16 78 16 16h54v-24M109 195l-19-23H63c0 72-16 146-47 219h23l16-16 54-109v-71m688 121v184H516v-78h129c27-13 47-21 58-24l31-25v-3l-15-26v-16h-16l-109 55-63 15c-5 5-10 8-15 8 0-36-3-72-8-109-5-16-8-32-8-47h31c63 13 104 21 125 23l125 32c5 6 11 10 16 11Z"/></symbol><symbol id="鋘_T" viewBox="0 0 1000 1000" data-size="22"><path transform="matrix(1 0 0 -1 31 969)" d="M859 656H594v-47h-16l-26-15c-11 12-18 19-21 19v309h24l27-31h199v31l63-24 15-15v-24h-31V711l31-27v-28m79-320-20-23H656c0-11-24-63-70-157C537 89 472 42 391 16c101 88 156 145 164 172 23 41 41 83 54 125H391v31h234v39l16 78v55H422v328l62-16h32v-31h-32V547h149c5 1 19 7 43 16h19c2-5 10-11 24-16h15v-24l-23-23c-11-21-21-62-31-125-5-11-8-21-8-31h148l47 47h16l55-55M922 58l-24-27h-7L773 188c-33 18-51 31-54 39v23l94-55c73-68 109-114 109-137m-547 98C271 98 167 62 63 47V0c-3 0-11 5-24 16L0 109h156v344H16v31h140v125H63l-32-15H16c58 86 92 143 101 172l31 93c5 26 8 52 8 79h71l23-20v-4l-31-31v-8l62-23c63-53 94-94 94-123v-5l-23-21h-39c-16 73-53 125-110 156-31-94-73-166-125-218h149l58 62h4l55-51v-43H219V484h39c7 0 21 21 43 63h4l70-66v-28H219V141h23l133 47v-32m-16 211-23-23c-11-16-21-42-31-78-11-5-21-21-32-47-13-11-20-16-23-16v24l23 70 16 78 16 16h54v-24M109 195l-19-23H63c0 72-16 146-47 219h23l16-16 54-109v-71m657 493v171H594V688h172Z"/></symbol><symbol id="鏹_T" viewBox="0 0 1000 1000" data-size="22"><path transform="matrix(1 0 0 -1 39 969)" d="m922 58-24-27h-15l-16 16-15 47-15 15c-9 0-17-2-24-7-19-3-84-21-196-55h-23V16h-47v15l-16 32v31c16 0 32 3 47 8 8 5 16 7 24 7h86v188h-79c0-11-2-21-7-31l-16-16h-39v188h-16v-71l-23-226c-11-37-20-63-29-78-10-16-34-32-73-47h-31c0 10-3 20-8 31l-23 23c-16 5-32 8-47 8v31h16l31-15h94c0 10 2 20 7 31 13 104 21 156 24 156v157H328v31l31 148v86c16 0 31-3 47-8 8-5 16-7 24-7h39v187H328v31h141v8l15 16c0 5 3 8 10 8l53-24 16-16v-23h-32V727l16-47v-24H422v-15c-12-43-20-79-24-110-5-24-7-45-7-62h70l31 31h8l39-31h8v109l55-31h86v125h-47v-47h-63v297h24l27-31h199v31l63-24 15-15v-24h-31V734l31-54v-8H750V547h94v31l62-23 16-16v-23h-31V352l31-28v-27H750V125c3 0 21 5 55 16h23l-47 54v8h39c50-35 84-83 102-145m-609 90C203 81 125 44 78 39 68 21 63 8 63 0H35c-1 5-5 11-12 16C10 57 3 78 0 78v16h78l31 15h16v313H16v31h109v141H39L8 563H0c71 121 111 224 122 309 2 15 3 31 3 50h70l24-24v-7h-31v-16c23 0 41-10 54-31 39-47 63-84 71-110v-62h-47v-8l31-31v-39H188V453c2 0 10 5 23 16 11 26 21 42 31 47l71-67v-27H188V125h15c31 18 63 31 94 39 5 5 11 8 16 8v-24m15 180h-31c0-15-3-31-8-47l-62-109h-24v16l24 46c13 50 20 84 23 102v39c3 0 21-5 55-16h23v-31M109 178l-23-22H47v102c0 8-3 16-8 23-13 37-20 55-23 55v8h31c31-51 52-104 62-160v-6m704 525v156H641V703h172m15-375v188h-78V328h78m-140 0v188h-79V328h79M266 672l-39 125c-24 41-42 62-55 62 0-15-3-31-8-46L63 625h117l31 31c5 11 8 21 8 32h8l15-16h24Z"/></symbol><symbol id="鐕_T" viewBox="0 0 1000 1000" data-size="22"><path transform="matrix(1 0 0 -1 31 969)" d="m938 430-24-24H773l-15 16c-5 21-8 41-8 62l-94-70-47-23h-31c0 3 5 10 16 23v8l-63-24-23-23-16 16c-13 26-20 39-23 39v11c10 17 15 26 15 28v78h-15c0-5-8-31-24-78-33-47-72-73-117-78 48 45 77 86 86 125l24 93h-94l31 133v24h-31v-47h-43c-2 5-5 10-12 15-13 63-41 104-86 125l-23-62C112 703 78 651 78 641h117l59 62h4l70-66v-4l-19-24H203V484h24c6 0 20 21 43 63h3l71-66v-28H203V141c52 10 104 31 156 62v-23C245 99 151 55 78 47c0-11-3-21-8-31L55 0h-4c-2 5-5 11-12 16-13 41-20 62-23 62v16h15l32 15h78v344H31v31h110v125H47l-31-15H0c104 135 156 250 156 344l63-16h31v-24c-1-2-7-6-16-13v-5l94-91c1-5 1-8 2-8h7l15 16h101v125c3-5 21-11 55-16h39v-23l-31-27v-28c3 0 10 5 23 16h16l54-55v-4c-5-1-10-5-15-12-26-5-52-7-78-7V664l-16-16v-7h23c13 10 21 20 24 31v16h31c0-11 3-21 8-32l23-23v-24H500v-15c15 0 31-3 47-8l16-16v-7h-32V453h16c37 13 63 21 78 24 5 5 11 7 16 7v-31l54 47 39 109H625l31 141v31h-31v32h125v109h70l24-20v-27h-31v-47l39 31h15l55-54v-24H813v-39c-11-60-16-94-16-101h39c13 10 20 20 23 31v16h24c8 0 21-21 39-63v-16H781v-15c11 0 21-3 32-8 10-13 15-21 15-23h-31V453h78v24c11 33 16 51 16 54h15c0-21 3-41 8-62 13-14 21-20 24-20v-19m-63-117h-31V16h-63v47H469c0-11-3-21-8-32l-16-15h-39v359h24l31-31h328l28 31 42-23 16-16v-23m-531 31h-31c0-26-13-63-40-110l-39-31 32 149v39h31l31-16h16v-31M109 195l-23-23H70l-23 23v133l-16 31v16l39-31c11-16 21-42 32-78 5-8 7-16 7-24v-47m641 446v140h-31l-31-117v-23h62m-297 70v55c-2 0-10-5-23-16l-16-47c-5-8-8-16-8-23v-39h32v23l15 47m188-266v8h-24l-23-23v-8h23l24 23m140-226v94H469v-94h312m0-125v94H469V94h312Z"/></symbol><symbol id="開_T" viewBox="0 0 1000 1000" data-size="22"><path transform="matrix(1 0 0 -1 63 969)" d="m875 867-23-23h-8V39l-16-16-47-23h-47v16c-5 13-10 20-15 23l-47 16c-11 13-16 20-16 23h125v531H563v-31h-16l-26-15c-11 13-18 19-21 19v340h23l28-31h246v31h23l55-51v-4M719 281H594V47c-5 0-21-5-47-16h-16v250h-93v32h93v156h-62v31h140v16c5 13 11 20 16 23 0 5 3 8 8 8l55-51v-27h-94V313h39c13 10 20 20 23 31v15h32c0-10 2-20 7-31l24-23v-24M375 859h-31V578h-63v31H63V23L43 0H0v938l55-47h234l29 31 41-24 16-15v-24m31-562H281v-78C234 119 177 62 109 47v23c73 52 115 115 125 188v39h-86l-23 23v8h109v141h-62v31h141l15 31v16h24c7 0 20-21 39-63v-15h-94V328h47c0 11 3 21 8 31l15 16 39-35v-43m375 469v93H563v-93h218m0-125v93H563v-93h218M281 766v93H63v-93h218m0-125v93H63v-93h218Z"/></symbol><symbol id="開_P" viewBox="0 0 1000 1000" data-size="22"><path transform="matrix(1 0 0 -1 63 969)" d="m875 867-23-23h-8V39l-16-16-47-23h-47v16c-5 13-10 20-15 23l-47 16c-11 13-16 20-16 23h125v531H563v-31h-16l-26-15c-11 13-18 19-21 19v340h23l28-31h246v31h23l55-51v-4M719 281H594V47c-5 0-21-5-47-16h-16v250h-93v32h93v156h-62v31h140v16c5 13 11 20 16 23 0 5 3 8 8 8l55-51v-27h-94V313h39c13 10 20 20 23 31v15h32c0-10 2-20 7-31l24-23v-24M375 859h-31V578h-63v31H63V23L43 0H0v938l55-47h234l29 31 41-24 16-15v-24m31-562H281v-78C234 119 177 62 109 47v23c73 52 115 115 125 188v39h-86l-23 23v8h109v141h-62v31h141l15 31v16h24c7 0 20-21 39-63v-15h-94V328h47c0 11 3 21 8 31l15 16 39-35v-43m375 469v93H563v-93h218m0-125v93H563v-93h218M281 766v93H63v-93h218m0-125v93H63v-93h218Z"/></symbol><symbol id="閷_T" viewBox="0 0 1000 1000" data-size="22"><path transform="matrix(1 0 0 -1 39 969)" d="m922 883-24-24h-7V51c-11-7-21-16-32-28L813 8c-4-5-8-8-12-8-9 31-37 63-82 94 16 0 31-3 47-8 7-5 15-8 23-8h39v531h-94v-31h-15l-27-15c-10 13-17 19-20 19v356h23l28-32h121v32h23l55-51v-4M797 180l-24-24h-15l-16 16c-5 26-21 62-47 109l-47 63-15-16-31-94c-34-57-74-94-118-109v23l39 40c27 47 42 83 47 109l16 78c5 57 8 115 8 172 3 0 21-5 54-16h24v-15c-13-37-21-63-24-78-5-13-7-25-7-38l132-134 24-47v-39M344 633l-24-24h-7c-3 0-11 5-24 16 0 5-26 42-78 109L109 633c-23-8-41-21-54-39H31l102 109c8 23 21 41 39 55v15l-31 32-94 62v24l109-55 24-23h23l31 101v24h8c23-13 42-21 55-24 5-7 11-11 16-12v-27c-8 0-21-5-40-16l-39-93c13 0 42-21 86-63l24-47v-23m265 286c0-15-2-29-7-44-5-8-8-16-8-23V578c-5 0-21-5-47-15h-16v46h-93V23L418 0h-43v188c-3 0-10-5-23-16h-8c-19 0-53 47-102 141l-39 31V23L184 0h-43v297h-16c0-5-8-31-23-78-37-68-63-105-79-110H0v8l70 133 39 141v62H31v31h110v125l62-15h31v-24l-31-27v-59h55l47 47h15l39-39v-39H203v-55l149-148c5-15 7-31 7-47h16v735h23l32-32h86l39 32h31c13-13 20-19 23-19m219-153v109h-94V766h94m0-125v93h-94v-93h94M531 766v109h-93V766h93m0-125v93h-93v-93h93Z"/></symbol><symbol id="雃_T" viewBox="0 0 1000 1000" data-size="22"><path transform="matrix(1 0 0 -1 31 969)" d="m938 102-20-24H547c0-21-3-41-8-62-7-5-11-11-12-16h-43v641l-70-63h-8c89 151 136 271 141 360 5 0 11-3 16-8l62-16 16-16v-7c-8 0-21-5-39-16l-55-141h156v55c0 8-3 16-8 24-7 31-20 62-39 93h24c15-5 41-42 78-109 5-21 8-42 8-63h23l59 63h4l70-66v-28H750V531h39l31 32c5 10 8 20 8 31h24l70-67v-27H750V313h39l63 62h15l71-70-20-24H750V109h39l63 63h15l71-70M469 453h-94V16h-62v437h-63v31h63v360h-63v31h125v16c5 13 11 20 16 23 0 5 2 8 7 8l55-51v-8c-5-2-10-5-15-11-21-5-42-8-63-8V484h16c0 11 2 21 7 32l16 15 55-50v-28m-250 0h-78c0-10-3-20-8-31l-16-156-15-78c0-11-24-63-71-157V16H0v15c13 11 32 63 55 157 13 90 21 136 23 136v129H16v31h62v360c-15 0-31 3-47 8-10 13-15 20-15 23h125v8l31 31c0 5 3 8 8 8l39-35v-43h-78V484h15c0 11 3 21 8 32l16 15 39-35v-43m469 78v172H547V531h141m0-218v187H547V313h141m0-204v172H547V109h141Z"/></symbol><symbol id="霣_T" viewBox="0 0 1000 1000" data-size="22"><path transform="matrix(1 0 0 -1 47 969)" d="M734 719h-23l-94-31h-86v15c57 13 104 32 141 55 0 5 3 8 8 8 0-2 13-10 39-24 10-13 15-20 15-23m63-156h-31c-48 29-105 52-172 70-20 5-41 8-63 8v15h141c37-13 63-20 78-23l31-16 16-15v-39m109 187c-21 0-41-3-62-8l-78-70v16l47 93H469V578c-21 0-42-3-63-8l-125-54v-16c-9 0 12 3 62 8 51 5 106 8 165 8h101c0 3-5 10-15 23-11 5-21 8-31 8v31c73-18 125-52 156-101v-39h-39l-16 15-26 47c-5 0-9-3-13-8l-94-15-140-16c-47-5-105-8-172-8 0-10-3-20-8-31l-16-16h-4c-1 5-5 11-11 16-13 52-21 78-24 78v16h8c11-10 18-15 19-16 80 37 132 73 156 109h11l56-31v203H78c0-21-3-41-8-62-3-11-10-21-23-31l-16-8c-3-5-7-8-10-8-10 13-17 19-21 19v36c11 13 21 20 31 23h16l23 78c13 11 21 16 24 16v-31h312v46H78v32h625v7l31 32c0 5 5 8 16 8l63-24 31-31-20-24H469v-46h351l28 31h27c0-11 3-21 8-31l23-24v-39m-593-55-20-23h-4c-24 29-53 53-86 70-10 5-20 8-31 8v16h62c37-13 63-32 79-55v-16m62-23c0-3-5-11-16-24l-31-15-164-39h-39v-31H94v15l-16 31v32h98c53 11 99 18 137 23 30 5 51 8 62 8M797 23 777 0h-4c-7 0-15 3-23 8l-47 15-31 16-63 16c-21 5-52 8-93 8v31h172v31H188c0-11-3-21-8-31l-16-16h-39v344h23l32-31h515l29 31 42-24 15-15v-24h-31V94h-62V78c21 0 41-3 62-8l31-15 16-16V23M359 47h-39L188 16H31v15h32c57 13 93 21 109 24l94 31 31 16c0 5 3 7 8 7 0-3 13-10 39-23l15-16V47m329 266v46H188v-46h500m0-79v47H188v-47h500m0-78v47H188v-47h500Z"/></symbol><symbol id="䦕_T" viewBox="0 0 1000 1000" data-size="22"><path transform="matrix(1 0 0 -1 71 969)" d="m859 867-23-23h-8V55c-14-23-42-42-84-55h-5c-5 8-17 21-36 39l-47 16c-10 13-15 20-15 23h125v563H531v-16l63-16h31v-31c-23 0-42-10-55-31-3-16-21-42-54-78h70l47 47h15l55-55v-23H578V281h39l47 47h16l54-55v-23H578V31h-62v219h-78v31h78v157h-47v31h31v15l31 86v39h-23c-3-1-7-6-14-15h-5c-10 12-17 19-20 19v309h23l28-31h261v31h24l54-51v-4M375 578c-11 0-21-3-31-8l-94-86v16l23 47c13 55 21 83 24 86v23H63V16c-5 0-21-5-47-16H0v938l55-47h226l39 31h32c13-13 20-19 23-19 0-15-3-29-8-44-5-7-8-15-8-23V625l16-31v-16m63-156H313V297h7l32 31 54-51v-27H297l-39-125c-39-63-73-94-102-94h-31v16c23 0 42 10 55 31l54 110v62H109v31h141v141H141v31h187v8l31 31c0 5 5 8 16 8h8l55-55v-23m328 359v78H531v-78h235m0-109v78H531v-78h235M297 797v62H63v-62h234m0-109v78H63v-78h234m16-407v16h-16v-16h16Z"/></symbol><symbol id="䧦_T" viewBox="0 0 1000 1000" data-size="22"><path transform="matrix(1 0 0 -1 47 969)" d="M906 328h-31c0-47-3-83-8-109l-15-78-16-47c-34-47-73-73-117-78h-8l-39 39-47 15c-11 13-16 21-16 24 2 0 10-5 24-16h70c5 0 21 5 47 16h16v15l47 118v117H359c0-11-18-42-54-94L188 141v23c125 123 218 282 281 477H266v31h218v31l24 94c7 29 13 58 18 87 2 20 4 30 5 30v24h32l31-16h15v-31h-31l-47-196v-23h149l27 31h4l39-35v-20l-23-23c-11-15-21-41-32-78-5-5-7-11-7-16h54l31 32h8c3 0 11-5 24-16l8-16c5-14 10-21 15-21v-5c-34-31-52-69-55-114-5-5-7-11-7-16h54l28 31h4l54-50v-28M766 195l-20-23h-4l-31 31c-23 55-42 83-55 86v24l47-24 63-62v-32m-125-31-20-23h-27l-24 93-23 47h23c39-31 63-62 71-93v-24M422 758l-24-24h-15l-24 24v70l-23 47c-13 11-21 16-23 16v-32c-24 0-42-10-55-31L156 625v-23c48-30 87-90 117-180 5-8 8-16 8-24v-54l-31-63-47-31h-47c0 8-5 21-15 39-11 5-21 8-32 8v31h94v8l16 16v101c-21 55-53 104-94 149 0 7 3 15 8 23l70 184v50H63V16c-5 0-21-5-47-16H0v938l70-47h149c0 10 3 20 8 31l15 16c14-19 32-32 55-40 2-5 5-7 8-7l15 15h8c42-29 73-62 94-101v-47m94-625-20-24h-27v102c0 8-3 16-8 23-5 16-8 31-8 47 3 0 11-5 24-15l39-78v-55m-125 23c-11-36-32-62-63-78h-8l-23 24v15l55 55 15 31c5 21 8 42 8 63h16V156m281 485H523l-15-16c-8-31-21-63-39-94h172v24l31 86m62-196v55H453c-11-41-31-83-62-125h328v23l15 47Z"/></symbol><symbol id="𠠄_T" viewBox="0 0 1000 1000" data-size="22"><path transform="matrix(1 0 0 -1 31 954)" d="M703 813c-8 0-21-5-39-16-34-67-63-103-86-109v15c14 34 22 55 24 63l15 78 8 8c0 6 3 8 8 8l47-16h23v-31m219 31h-31V145c-11-6-21-16-32-28-36-13-54-20-54-23h-8c0 8-5 21-16 39l-62 24v15h109v719h70l24-20v-27m-125-86-24-23h-7V289l-20-23h-43v531c8 0 31-5 70-15h24v-24m-344-62-19-24h-8c-2 6-5 11-12 16-23 93-42 145-55 156v16l71-63 23-47v-54m235-79-24-23h-8V149l-35-39h-74v31h-24c-33 11-51 16-54 16v15h125v172c-8 0-32-5-71-16h-23v-31h-47v31h-15v-15c-13-42-21-73-24-94-11-37-21-63-31-78l-39-31v15c13 32 20 53 23 63 14 91 22 137 24 137v347l54-31h39v250h94v-24l-31-27V641h62v31h24l55-51v-4M938 78l-40-62C885 5 878 0 875 0H672C559 0 466 6 391 19c-64 11-101 23-110 36-104 55-156 115-156 180h-16L70 78C44 26 28 0 23 0H0c0 6 3 11 8 16 13 34 24 70 31 109 15 78 23 117 24 117v227c2-5 20-10 54-16h39v-31h-31V305l-16-14v-7l39-49c5-10 8-21 8-32h16v329H31v31h141v140H47v32h125v172c8 0 31-5 70-16h24v-31h-32V735h8l63 62 70-66v-4l-20-24H234V563h24l58 62h4l55-50v-43H234V360h24l47 47h15l55-55v-24H234V149c73-52 188-78 344-78 48-5 96-8 145-8 9 0 59 5 152 15h63M594 500v110H438v-63h15c42-12 73-20 94-23 26-13 39-21 39-24h8m0-125v78c-16 0-32 3-47 8-16 24-42 42-78 55h-31V375h156Z"/></symbol><symbol id="𠣞_T" viewBox="0 0 1000 1000" data-size="22"><path transform="matrix(1 0 0 -1 78 961)" d="m844 775-24-150-15-219-16-125-16-93-15-63c-19-49-42-83-70-102L625 0h-8l-39 39c-15 5-31 8-47 8v31h39c3 0 16-5 39-15h16l55 31c15 22 25 48 31 78l16 78 15 109c8 56 14 110 19 161 3 36 4 54 5 54v176H203c-34-99-94-187-180-266H0c98 122 158 232 180 329l9 43c8 33 13 50 14 50v16h55l23-20v-4l-23-23c-8-31-21-63-39-94h562v32h28c3-9 15-21 35-38M672 188H438V63c-5 0-21-5-47-16h-16v141H141v31h234v94H273l-27-32h-43v297h24l27-31h121v62H172v32h203v93h47l31-15h16v-31h-31v-47h85l59 62h4l70-66v-4l-19-24H438v-62h125v31l62-23 16-16v-23h-32V289l63-58v-43M547 438v78H438v-78h109m0-94v62H438v-62h109m-172 94v78H266v-78h109m234-165v8h-62v32H438v-94h117l54 54m-234 71v62H266v-62h109Z"/></symbol><symbol id="𧼯_T" viewBox="0 0 1000 1000" data-size="22"><path transform="matrix(1 0 0 -1 31 954)" d="M906 516h-47c0-16-13-42-39-78l-39-39v-16c57-60 94-115 110-164v-55l-24-23h-15l-16 16c-5 31-21 83-47 156-8 0-21 23-39 70v12c26 40 52 99 78 176 0 5 2 7 5 7l58-31h15v-31M781 164l-19-23h-43c0 11-3 21-8 31-3 80-21 146-55 198 0 8 3 15 8 21l16 62c5 48 8 95 8 141 2-5 20-10 54-16h39v-23l-23-23-70-141v-24l39-39c26-46 41-83 46-109 5-8 8-16 8-23v-32m157-86-40-46c-5-11-7-21-7-32H602c-26 0-50 3-71 8-168 19-271 45-312 78-63 52-94 96-94 133-3 0-10-5-23-16C83 125 60 58 31 0H0c0 6 3 11 8 16l15 47 16 78c7 34 13 68 18 102 3 24 5 35 6 35v175c7 0 31-5 70-15h23l-23-31-16-79c-5-11-8-22-8-33l39-76 40-31v344H31v31h157v140H47v32h141v172c7 0 31-5 70-16h23v-31h-31V735h23l59 62h4l55-51v-43H250V563h39c7 0 21 21 43 62h4l27-31h4c149 104 229 208 242 313 2 0 21-5 55-16h24v-24c-2-2-7-5-16-11v-4c63-104 146-166 250-188l16-15v-8c-16 0-32-2-47-8l-27-23-51 23c-79 71-136 136-172 195 0-10-3-20-8-31L531 672h102l47 47h15l55-55v-23H531v31h-23c-14-18-32-31-55-39-10-12-15-20-15-23 10 0 20-2 31-8l23-24h102v32h23l24-24c10-5 20-8 31-8v-23l-24-23h-7V129c-5-1-11-5-16-12l-47-15c-4-5-8-8-12-8-1 1-2 3-3 8l-32 31c-16 6-31 8-47 8v31h39c2-1 6-6 12-15h5c1 5 9 10 23 15h15v125h-86l-15-15-32-94c-24-40-42-63-54-71-9-4-20-7-32-7 0-2 5-10 16-24l203-15c68-5 116-8 145-8 9 0 59 5 152 15h63M578 453v94h-78v-94h78m0-125v94h-70l-24-19v-75h94m-140 4v278c-5 0-21-5-47-16h-16v-8l31-31v-23H250V360h39l47 47h16l54-55v-24H250V133c0-8 21-21 63-39h15c45 38 74 85 86 141 14 65 22 97 24 97Z"/></symbol><symbol id="𨗒_T" viewBox="0 0 1000 1000" data-size="22"><path transform="matrix(1 0 0 -1 31 961)" d="M938 722c-5-2-11-5-16-11l-47-16-78-70v31h-16l-86-31h-39v15c49 10 83 31 102 63h12c16-10 25-15 27-16h31v47H625V500h-62v234H375c0-21-3-42-8-62-3-11-10-22-23-32l-16-8c-3-5-7-7-10-7-10 13-17 19-21 19v35c10 13 20 21 31 24h16c0 10 3 20 8 31 5 20 7 41 7 63h16v-32h188v78H359v32h407v7l31 32c0 5 5 8 16 8h7l55-55v-24H625v-78h211l31 32h16l55-55v-20M828 500h-39c-3 14-31 32-86 54-13 5-28 8-47 8v31h16c41-13 73-21 94-23l47-16c5-6 10-10 15-11v-43M531 625h-31l-94 47h-15v15h101l39-35v-27M219 769c-13-9-20-15-20-19h-43c0 26-13 62-39 109l-39 47 63-24c47-39 70-73 70-101 5-4 8-8 8-12m312-191c-21-32-62-53-125-63v-31h-27c-1 5-5 10-12 16-13 36-20 54-23 54v8c41 0 77 3 109 8 31 5 57 8 78 8m344-438H297v32h266v125H359v31h204v78H359c0 2 5 10 16 23l156 16 110 16 62 15 31 16c0 5 5 8 16 8l63-32h15v-31l-187-23-16-16v-70h102c6 0 20 20 43 62h3l71-66v-27H625V172h133l58 62h4l55-51v-43m47-62c0-3-5-11-16-24-10-5-20-7-31-7V15H398c-13 0-26 2-39 8-109 18-187 62-234 133-13-52-32-84-55-94L55 15C48 9 44 5 43 0h-4C31 0 18 21 0 62v16c115 52 198 166 250 344h-78c-11 0-21-3-31-8-21-5-42-8-63-8l110 219v15H16v32h187v7l16 16c0 5 3 8 8 8l39-35v-43h-32c-10-52-31-104-62-157v-15h94v31h23l55-51v-27h-47l-39-94c-49-81-83-125-102-133v-15c52-52 83-78 94-78l125-24h203l86 8c57 5 115 8 172 8h86Z"/></symbol><symbol id="𨗭_T" viewBox="0 0 1000 1000" data-size="22"><path transform="matrix(1 0 0 -1 39 953)" d="m906 789-23-24h-8V484h-16l-26-16-20 24v8H688v31h125v109H688v32h125v93H688v32h125v7l15 16c0 5 5 8 16 8h23l39-39m-234 78-24-24h-7V468h-63v438c3-5 21-11 55-16h39v-23M547 500H422l-63-32h-15v375h8l49-46h11c46 33 75 51 88 54 0 5 3 8 10 8l37-35v-27h-24l-117-32v-93h55c13 10 20 20 23 31v15h32c0-10 2-21 7-31l24-23v-24H406V531h55l43 47h4c8 0 21-21 39-63v-15M219 769c-13-9-20-15-20-19h-43c0 26-13 62-39 109l-39 47 63-24c47-39 70-73 70-101 5-4 8-8 8-12m703-410-39-47c-5-10-8-20-8-31l-62 31h-16v-8l16-15v-39H641v-94h140c0 11 3 21 8 31l31 31 71-66v-4l-20-23H344v31h234v94H438v31h140v94c8 0 31-5 70-16h24v-31h-31v-47h54l55 51v19c-47 34-73 73-78 117 41-58 125-94 250-109m0-281c0-3-5-11-16-24-10-5-20-7-31-7V15H398c-13 0-26 2-39 8-109 18-187 62-234 133-13-52-32-84-55-94L55 15C48 9 44 5 43 0h-4C31 0 18 21 0 62v16c115 52 198 166 250 344h-78c-11 0-21-3-31-8-21-5-42-8-63-8l110 219v15H16v32h187v7l16 16c0 5 3 8 8 8l39-35v-43h-32c-10-52-31-104-62-157v-15h94v31h23l55-51v-27h-47l-39-94c-49-81-83-125-102-133v-15c52-52 83-78 94-78l125-24h203l86 8c57 5 115 8 172 8h86M578 390 391 289l-94-24v16c78 15 146 72 203 172l63-24 15-15v-24m219-78v16h-16v-16h16Z"/></symbol><symbol id="𨜮_T" viewBox="0 0 1000 1000" data-size="22"><path transform="matrix(1 0 0 -1 39 969)" d="M922 293c-13-33-21-57-24-74-18-42-31-63-39-63-26-10-41-15-46-15l-63 54c-11 5-21 8-31 8v16h125v23c10 37 15 59 15 65-15 128-52 216-109 263 0 8 3 16 8 24l47 140c13 63 21 94 23 94v16H688V16c-5 0-21-5-47-16h-16v922l70-47h149v47c36-13 62-32 78-55v-15c-11-13-21-21-31-24h-16c-23-89-52-167-86-234-5-8-8-16-8-24 71-55 115-135 133-242 5-8 8-16 8-23v-12M609 750h-31V469h-62v47H359V375h102l31 31c5 11 8 21 8 32h23l71-67v-27H359V203h86l63 63h15l71-71-20-23H359V31c-5 0-20-5-46-15h-16v812l39-31h8c3 0 10 5 23 16l55 125 62-24 16-16v-23c-11 0-21-3-31-8l-78-86h140v32l63-24 15-16v-23m-328 39-23-23h-8V371c-13-64-21-110-23-137l-16-62c-35-67-63-106-86-117L47 16H16v15c7 0 41 21 101 63l47 94c13 52 21 78 24 78v15l-79-39c-15-5-31-8-46-8 0-10-3-20-8-31-13-10-21-15-24-15v15L0 252v15l16 30v594l39-32h23l94 39 31 32c0 5 3 8 8 8l55-55v-8l-164-47H78V281c5 0 11 3 16 8l62 16c26 13 39 20 39 23h8v485h55l23-20v-4m235-117v78H359v-78h157m0-125v94H359v-94h157Z"/></symbol><symbol id="𨯺_T" viewBox="0 0 1000 1000" data-size="22"><path transform="matrix(1 0 0 -1 23 969)" d="M891 281c-11 0-21-3-32-8-29-33-62-62-101-85h-24v31h32c0 10 2 20 7 31 3 0 21 29 55 86 0 5 1 8 4 8 4-5 16-11 35-16h24v-47m47 141H391c-21 0-42 3-63 8-41 5-83 8-125 8V125l141 63h15C344 143 255 94 94 39 83 21 78 8 78 0H55L39 16 16 63v31c26 0 52 3 78 8 16 5 31 7 47 7v329H16v31h125v140H70c-6 0-20-21-43-62H0c68 78 115 208 141 391l62-16h31v-24c-1-2-6-6-15-13v-5l54-52 55-94v-62h-47v-8l32-31v-24H203V469h8l62 62 47-47c5-10 8-20 8-31h63v39l-16 78v243c0 10-3 20-8 31-5 21-8 41-8 62h24l31-31h24l62 39 23 24 40-36v-27h-47v-23l23-24h141l31 31 31-31c5-1 8-1 8-2v-14l-16-31V453h63v94c-11 0-21 3-31 8-11 13-16 20-16 23h63v125h-63v31h63v16l15 31v78h-78v32c26 0 52 2 78 7l24 24h15l39-42-23-52-16-219c-5-73-8-125-8-156l39 31h16l24-23v-39m15-359c-15 0-31-3-47-8-10-19-15-32-15-39-120 26-209 94-266 203-5-60-31-104-78-133-16-18-84-41-203-70h-63v15h24c44 13 73 21 86 24l31 15 47 16c39 23 62 42 70 55 24 39 42 82 55 132v118h78v-16l-16-31v-78c15-59 52-103 110-133 45-24 108-42 187-55V63M516 188h-47l-39 93-39 39v24l47-24 78-78v-54M344 352c-3 0-31-55-86-164-14-11-22-16-24-16l32 164v39h54l24-19v-4M125 193l-39-37-23 20v113c0 8-3 16-8 24-13 36-21 54-24 54v8h32l62-158v-24m563 557v47h-47l39-47h8m-188 16v93h-55l-23-19V734h31c0 11 3 21 8 32l16 15 15-15h8m188-313v266H578v31h47v47h-78V672h47c3 1 12 7 27 16h13c11-13 19-20 22-20v-16c-10-17-15-26-15-27v-39l31-27v-28H547v-78h141m-79 110v78h-62v-78h62m-109 46v94h-62V578h15c0 11 3 21 8 31l16 16 15-16h8m0-156v94h-62v-94h62M281 672c0 11-3 21-8 31l-15 63-39 93h-31c0-15-3-31-8-46L94 641h109c0 10 3 20 8 31l31 31 31-31h8Z"/></symbol><symbol id="𨵷_T" viewBox="0 0 1000 1000" data-size="22"><path transform="matrix(1 0 0 -1 71 961)" d="m859 867-23-24h-8V39l-15-16-53-23h-5c-5 7-17 20-36 39l-47 15c-11 13-16 21-16 24H125v31h94v234c3 0 10-5 23-15h8v265l55-31h242v31h43c9-13 16-19 19-19 0-15-2-29-7-43-5-8-8-16-8-24V312c10 0 20-3 31-8l16-15v-24h-32V109h8l63 63 70-67v-4l-31-31v-8h47v594H563v-31h-16l-26-16c-11 13-18 20-21 20v293h23l28-32h230v32h24l23-24c11-6 21-8 31-8v-23m-500 36c0-15-2-29-7-44-5-8-8-16-8-23V617l-20-24h-43v63H63V0H0v922h23l32-32h211l39 32h31c13-13 20-19 23-19m407-122v78H563v-78h203m0-94v63H563v-63h203m-485 94v78H63v-78h218m0-94v63H63v-63h218m250-297v141h-93v-47c10 0 20-3 31-8l31-31v-39h-23c-7 0-21 20-43 62h-4c-19-31-53-51-102-62l39 62 24 24v39h-78V390h218m32-93v31h-32v31H313c0-8-5-21-16-39-11-5-21-8-31-8v-15h297m-16-188v156h-47V109h47m-109 0v156h-47V109h47m-110 0v156h-47V109h47Z"/></symbol><symbol id="𩅅_T" viewBox="0 0 1000 1000" data-size="22"><path transform="matrix(1 0 0 -1 47 969)" d="M750 656h-8l-12 16c-3 0-7-3-11-8-52-13-78-21-78-24H516v16c24 0 45 3 62 8 83 24 125 40 125 47v7h26l21-23v-39m-391-12c-13-9-20-15-20-19-3 0-7 2-11 7l-94 47c-52 13-78 21-78 24h-15v15h93c37-13 63-21 79-23l31-16 15-15v-20m547 76c-5 0-10-3-15-9l-47-16-55-55h-23c0 5 2 11 7 16 13 41 21 62 24 62v16H469V523c31-13 52-52 62-117h110v16l47 140-141 31h-31v16h140c37-13 63-21 78-23 26-10 42-22 47-35l-23-51c-34-11-63-42-86-94h39c7 0 21 20 43 62h4l70-66v-27H703V250h55l58 62h4l71-66v-4l-20-24H703V0h-62v218H500c0-16-21-62-62-140-47-48-84-73-110-78h-47v15c65 26 104 52 117 78l40 79v46H281v32h172v125H344v31h125v70l-31 31c-11 5-21 8-32 8v219H94v-23l-24-71-31-31H23L0 632v16l39 39 39 110h16v-32h312v78H78v32h610c36 13 62 31 78 54 0 5 2 8 7 8l40-39c10-6 20-8 31-8v-47H469v-78h336l31 32h8l39-32 8-15c5-15 10-22 15-22v-8M359 578l-171-31h-32v-32h-31v-15c26 0 62-13 109-39l47-47v-39h-39c-18 33-41 62-70 86l-63 23v27c10 5 15 8 16 9v5c-10 7-15 12-16 14v54h110l94 16h46v-31M188 273l-20-23h-4c-26 21-42 41-47 62L16 406h31c57-18 104-52 141-102v-31m78-31C149 101 89 31 86 31c-5-11-8-21-8-31H47v23C36 57 31 75 31 78c11 0 42 18 94 54l141 133v-23m453 289v16h-31v-16h31m-78-281v125H516V273l-16-16v-7h141Z"/></symbol><symbol id="𩈚_T" viewBox="0 0 1000 1000" data-size="22"><path transform="matrix(1 0 0 -1 31 969)" d="M891 875c-11 0-21-3-32-8L742 750h-23l86 141c5 15 8 31 8 47l62-32h16v-31m-219 0c-11 0-21-3-31-8L516 750c5 31 31 83 78 156v16h31l31-16h16v-31m266-469H828V16c-5 0-21-5-47-16h-15v406h-63v32h63v250h-63v31h125v8l31 31c0 5 5 8 16 8h8l39-39v-39h-94V438h8l47 46 55-50v-28m-250 8-20-23h-90v-24c-13-65-20-114-23-148l-16-63C522 86 483 35 422 0v23l23 24 32 62 15 63c14 109 22 167 24 172v47h-78v31h78v266h-55l-31-32h-8V47h-63v31H78V16c-5 0-21-5-47-16H16v734l70-46h86l31 132v24H0v31h344v8l31 31c0 5 5 8 16 8h7l55-55v-23H266l-63-141v-15h172v31h39l31-31h8v31h125l39 47h16l55-55-20-23h-90V438l39 31h16l55-55m-438 86v156h-62V500h62m109-391v547h-62V109h62M250 313v156h-62V313h62M141 109v547H78V109h63m109 0v172h-62V109h62Z"/></symbol></svg>