<svg xmlns="http://www.w3.org/2000/svg"><symbol id="㐀_G" viewBox="0 0 1000 1000" data-size="21"><path transform="matrix(1 0 0 -1 34 940)" d="m555 874 90-27c9-5 11-10 3-16l-37-16V532h162l40 49 66-59c2-2 3-5 4-9-1-5-4-7-10-8H611V35h207l41 50 69-56c2-2 3-5 4-9 0-8-3-12-10-12H82C68 8 45 6 14 0L0 35h313v470H113c-23 1-41-3-52-10l-34 37h286v348l91-27c8-5 8-10 0-16l-37-16V35h188v839Z"/></symbol><symbol id="㐀_T" viewBox="0 0 1000 1000" data-size="21"><path transform="matrix(1 0 0 -1 31 922)" d="M629 509h150l53 55 64-57c6-5 9-9 9-13 0-8-5-13-13-13H629V32h168l54 63 77-62c6-5 10-10 10-15 0-9-6-14-16-14H112C74 4 43 3 19 0L0 43c30-8 67-11 112-11h191v449H143c-38 0-69-1-94-3l-18 43c31-8 68-12 112-12h160v257c0 37-1 63-4 78l54-11c27-7 41-14 41-22 0-10-8-17-24-21l-20-5V32h233v734c0 38-2 64-4 78l53-11c28-7 42-14 42-22 0-10-8-17-25-21l-20-5V509Z"/></symbol><symbol id="㐀_J" viewBox="0 0 1000 1000" data-size="21"><path transform="matrix(1 0 0 -1 42 914)" d="m294 828 76-11c11-2 17-6 17-13s-5-11-15-14l-16-5V27h184v801l77-11c11-1 16-6 16-13 0-6-5-11-16-14l-15-5V527h156l47 59 86-66v-20H602V27h156l55 74 102-82V0H12L0 27h294v473H36l-12 27h270v301Z"/></symbol><symbol id="㐁_G" viewBox="0 0 1000 1000" data-size="21"><path transform="matrix(1 0 0 -1 51 962)" d="m92 698 58-39h262c6 48 8 113 6 195H63c-8 0-23-3-43-10L0 883h791l39 41 66-55c4-4 4-9-1-15H471c2-87 0-152-6-195h265l36 37 52-36c8-3 12-8 12-13-1-2-12-12-33-29V159l4-111c0-8-5-15-16-21-12-6-25-10-41-12v70H145V31c-1-6-8-13-22-22-14-6-25-9-35-8l4 163v534m53-585h599v518H463c-4-43-14-86-29-129 100-49 167-86 201-113 33-27 53-51 58-70 6-20 8-35 4-47s-13-18-27-18-26 11-37 33c-12 23-30 49-55 79-23 28-74 68-152 119-28-63-62-114-102-153-39-39-88-74-144-105l-10 12c49 40 89 78 121 113 29 34 56 77 80 131 22 52 35 101 39 148H145V113Z"/></symbol><symbol id="㐁_T" viewBox="0 0 1000 1000" data-size="21"><path transform="matrix(1 0 0 -1 30 944)" d="M435 632c4 55 6 112 6 173H112c-35 0-66-1-93-4L0 844c30-7 68-11 112-11h695l56 56 67-56c6-5 9-10 9-16 0-8-5-12-15-12H491c-1-69-3-127-7-173h295l33 37 41-26c13-8 20-16 20-24 0-9-13-19-39-30V168c0-44 1-78 3-101 1-15 1-27 1-35 0-21-12-32-36-32-11 0-16 4-16 12v54H141V12c0-8-7-12-21-12-12 0-21 3-26 7-4 4-6 12-6 24 0 18 1 33 2 47 2 20 3 50 3 90v421c0 35-3 64-9 86l57-43h294m-3-27H141V95h645v510H482c-4-46-11-83-19-111 92-53 155-95 190-126 56-50 85-90 85-120 0-18-9-27-25-27-7 0-14 4-21 10-4 4-14 19-32 47-26 40-57 77-94 112-11 11-47 40-108 89-25-70-60-126-105-169-40-39-99-74-177-106l-9 18c87 47 148 95 183 145 44 62 72 142 82 238Z"/></symbol><symbol id="㐁_K" viewBox="0 0 1000 1000" data-size="21"><path transform="matrix(1 0 0 -1 54 939)" d="M0 823h766l28 44-1-1c3 7 10 11 19 11 7 0 17-5 28-15l51-45-5-17H494c0-1 0-2 1-3s1-2 1-3c0-7-6-11-19-13-3-81-7-137-12-169h250l19 22-2-1c3 3 4 4 4 5 7 7 13 10 20 10 9 0 19-5 28-14l31-31h-1c11-8 17-13 17-16 0-7-14-13-43-18l9 1V77c0-3 0-10 1-23s1-20 1-23c0-21-16-31-47-31-10 0-16 2-18 5s-3 9-3 19c1 4 1 9 1 15H147l1-18c0-5-5-10-14-14-9-5-20-7-31-7-15 0-22 6-22 19 0 3 0 12 1 27s1 23 1 26v490l-6 82 79-32h247c5 57 7 107 7 152 0 17 0 29 1 36H0v23m156-620-9 13V62h585v527H463l-4-22h-1c36-67 72-118 108-155 37-36 89-72 156-108l-3-11-17 1c-1 1-3 1-4 1-5 0-11-7-16-20h1c-1-7-7-10-20-10-6 0-11 1-15 3-3 3-13 10-28 23-27 24-44 40-53 47-8 7-17 16-27 27s-19 23-27 35c-28 39-51 78-68 116-19-67-49-122-90-166-41-43-107-92-199-147m243 386H147V224c84 56 143 109 177 158 35 50 60 119 75 207m332 46c1 0 1-1 1-2h-1v2Z"/></symbol><symbol id="㐂_J" viewBox="0 0 1000 1000" data-size="21"><path transform="matrix(1 0 0 -1 50 932)" d="m711 805 98-59v-27l-434-45V548c0-13 2-22 7-26s14-6 27-6h252c13 0 23 2 29 5 6 4 12 12 17 24l36 84h15v-86c-1-11 3-20 11-25 3-2 11-5 24-10-5-21-20-35-44-41-13-4-36-6-69-6H399c-35 0-60 7-74 21-11 10-16 30-16 61v124L94 645l-12 27 227 23v169l82-10c13-1 20-6 20-14 0-7-5-12-16-16l-20-7V702l293 30 43 73M364 371l82-50v-28l-250-31V78c0-15 8-23 23-23h102c22 0 37 9 44 27l34 82h16l-4-82c-1-8 2-15 7-20 3-5 13-10 28-15-5-17-17-29-34-36-16-7-41-11-76-11H223c-36 0-61 7-75 22-10 11-15 27-15 49v183L12 239 0 266l133 16v136l76-7c12-1 18-6 18-13 0-6-5-11-14-15l-17-8v-85l126 15 42 66m453-11 82-51v-27l-266-31V78c0-15 8-23 24-23h105c13 0 22 2 28 5s11 11 16 23l34 85h16l-4-81v-6c0-15 12-26 35-34-9-21-24-34-46-41-12-4-33-6-63-6H660c-33 0-56 6-71 19-12 11-18 29-18 56v169l-117-13-12 27 129 14v146l77-7c11-1 17-6 17-13 0-6-4-11-13-15l-19-8v-96l143 16 41 65Z"/></symbol><symbol id="㐃_K" viewBox="0 0 1000 1000" data-size="21"><path transform="matrix(1 0 0 -1 142 944)" d="m389 826-7-7 312-320c15-15 22-26 22-33s-3-12-8-13-21-2-48-2H395c8-10 12-15 12-16s-2-2-7-5-10-6-16-9-10-4-11-5l-6-1 9 1V86c0-3 1-14 2-31s2-27 2-30c0-17-16-25-48-25-14 0-21 7-21 21l2 47v383H58c-39 0-58 5-58 14 0 2 8 13 24 32l268 309c8 9 12 17 12 24 0 11-6 19-17 23h1c-17 5-25 10-25 16 0 2 1 4 4 7s7 5 14 7c7 3 16 4 25 4l8-1 52-13c25-6 38-14 38-25 0-2-6-10-17-23l2 1M120 491h453c25 0 37 2 37 7 0 4-5 11-14 22L376 749c-15 16-26 28-33 35 1 0 2 0 2-1s-1-3-4-6l-14-13-205-233c-13-15-20-27-20-34 0-4 6-6 18-6Z"/></symbol><symbol id="㐄_G" viewBox="0 0 1000 1000" data-size="21"><path transform="matrix(1 0 0 -1 76 972)" d="M486 915c5-3 7-6 6-10 0-2-2-5-6-8l-35-11V718h211l39 45 70-53c2-2 4-5 4-8 0-8-4-12-11-12H451V397h281l45 47 67-54c2-4 3-8 4-12 0-2-3-4-8-6H451V146l4-103c1-7-6-16-21-25-14-10-28-16-43-18l4 147v225H96l-39-37-57 57c12 5 25 13 39 23 10 18 35 93 74 227l73-36c7-6 5-11-6-15-15-3-23-6-26-10L86 397h309v293H104l-40-3-17-6-22 37h370v226l91-29Z"/></symbol><symbol id="㐄_T" viewBox="0 0 1000 1000" data-size="21"><path transform="matrix(1 0 0 -1 110 967)" d="M406 351h250l53 52 63-54c6-5 9-9 9-13 0-8-5-12-13-12H406V155c0-34 2-70 6-108 1-11 2-19 2-25 0-15-10-22-28-22s-27 7-27 21v303H45c-9-4-17-6-24-6-14 0-21 4-21 11 0 0 0 2 1 6l62 340 10 70 54-40h232v150c0 37-1 63-4 78l53-12c28-6 42-13 42-22 0-8-8-15-25-20l-19-7V705h189l49 49 58-51c6-5 8-9 8-13 0-9-4-13-13-13H406V351m-47 0v326H113L53 351h306Z"/></symbol><symbol id="㐄_J" viewBox="0 0 1000 1000" data-size="21"><path transform="matrix(1 0 0 -1 42 952)" d="M175 360v363l78-39h248v219l80-11c11-2 17-7 17-14s-5-11-15-14l-16-4V684h133l51 66 90-75v-19H567V360h207l51 66 90-74v-20H567V12L501 0v332H12L0 360h175m63 0h263v296H238V360Z"/></symbol><symbol id="㐅_G" viewBox="0 0 1000 1000" data-size="21"><path transform="matrix(1 0 0 -1 103 920)" d="M758 792c8-8 7-14-2-18l-18-2c-9-5-17-11-23-17-7-5-31-45-74-121-43-75-88-144-135-207 59-51 114-104 166-158 51-54 84-96 99-127 16-30 23-54 22-73 0-15-5-26-14-32s-18-7-27-4c-10 3-22 20-37 52-14 31-44 76-90 135-45 56-96 111-152 166-74-90-153-168-239-235C150 86 74 35 8 0L0 14c59 41 128 96 209 167 79 71 154 152 225 242C309 535 186 640 64 735l12 14c121-78 250-174 387-287 40 56 80 118 119 185 37 69 68 133 94 194l82-49Z"/></symbol><symbol id="㐅_T" viewBox="0 0 1000 1000" data-size="21"><path transform="matrix(1 0 0 -1 85 888)" d="M455 398c57 61 108 121 151 178 39 50 83 117 134 200l70-39c9-5 13-10 13-16 0-8-5-12-15-12l-32 2c-98-139-193-253-284-343 57-48 117-101 181-159 56-50 96-88 119-113 26-27 38-49 38-66 0-8-3-14-9-19-5-4-10-6-16-6-9 0-19 6-32 17-8 8-34 35-77 81-45 49-116 118-213 206l-26 25c-67-61-146-125-236-192C179 110 109 63 11 0L0 14c108 81 181 138 221 170 67 56 134 116 201 181l-79 68C216 542 122 621 62 671l10 15c117-79 245-175 383-288Z"/></symbol><symbol id="㐅_J" viewBox="0 0 1000 1000" data-size="21"><path transform="matrix(1 0 0 -1 154 917)" d="M483 425c139-96 209-173 209-231 0-21-6-35-19-41-5-3-9-4-14-4s-10 1-14 3c-9 5-30 28-61 69-37 48-82 96-136 145-37-56-68-99-94-130C274 141 161 63 14 0L0 15c104 59 184 117 239 173 51 51 104 124 160 219-49 37-97 67-143 92-25 14-66 34-122 60l9 19c109-35 203-74 284-119 59 119 106 243 139 374l87-35c21-8 31-17 31-27 0-11-10-16-30-17l-22-1c-50-129-99-237-147-325l-2-3Z"/></symbol><symbol id="㐆_G" viewBox="0 0 1000 1000" data-size="21"><path transform="matrix(1 0 0 -1 84 979)" d="M574 876c-95-10-207-22-338-33v-63h430l27 37 69-41c2-4 3-6 4-7 0-4-10-12-30-24V536l4-70c0-10-6-20-17-29-10-8-24-13-41-16v43H236c0-57-2-98-4-121h497l31 41 62-39c6-3 9-7 10-14 0-2-10-10-31-23-4-67-11-121-20-161-10-37-29-68-56-92-28-22-63-37-104-45-4 25-19 41-47 51-27 9-56 19-88 29l6 19c33-7 65-14 96-21s58-5 82 4c21 10 39 31 53 63 13 33 21 86 23 160H230c-8-76-33-141-74-192S66 31 8 0L0 14c57 43 98 86 123 128 25 41 42 87 51 136 8 50 11 116 8 196v435l64-45c137 16 299 47 486 94 37-37 55-59 55-64-1-5-4-8-10-8-4 0-11 1-19 4-8 1-16 2-26 2-7 0-60-5-158-16M236 491h446v112H236V491m0 139h446v123H236V630Z"/></symbol><symbol id="㐆_T" viewBox="0 0 1000 1000" data-size="21"><path transform="matrix(1 0 0 -1 92 955)" d="m145 792-1-4v-57h542l33 37 41-26c7-5 12-9 15-13 3-3 5-7 5-11-1-5-2-9-6-13-3-4-8-7-15-9l-17-8V538c0-6 0-15 1-27 0-13 1-28 2-45s1-29 2-35 1-10 1-12c-1-4-4-8-9-12s-13-6-22-7c-6 0-11 0-14 1-3 2-5 4-6 6s-1 4-1 6v31H144c-1-4-1-7-1-9v-24l-2-51-1-25h583l33 38 41-27c7-5 12-9 15-12 3-4 4-8 4-12 0-5-2-9-4-12-3-3-9-6-16-10l-18-8c-1-12-2-22-3-30 0-8-2-27-5-57-4-31-7-53-9-68-3-15-6-30-11-45-3-16-7-27-12-35-4-8-9-15-15-22-6-6-12-12-19-16-8-4-17-8-29-12s-20-6-25-6l-12-1c-1 7-1 13-3 19-1 6-4 12-10 18-5 6-15 13-32 21-16 7-28 12-35 15l-18 8 6 16c6-2 14-5 24-9 9-3 20-7 33-11s24-7 32-8c8-2 17-2 25-2 8 1 16 3 23 7 6 5 12 12 16 22 4 9 9 24 12 46l7 40c1 6 3 23 7 53 3 30 5 49 5 57v16H137c-3-18-5-34-7-48-2-13-3-25-5-33-1-9-4-22-9-41s-10-33-14-45c-5-11-10-23-17-37-6-12-13-25-22-39S46 40 37 31L17 8 0 19l17 26c5 9 11 20 19 34 6 14 13 29 19 46 6 16 11 31 14 44 4 13 7 30 11 51 3 21 5 40 7 57 2 18 3 37 4 58 2 20 3 46 4 77 2 31 2 56 2 74v264c0 6 0 18-1 35s-2 27-2 30l-2 31 54-34c10 0 16 1 20 1 3 0 13 1 29 2 15 1 44 4 86 8 41 4 74 7 96 10 24 3 56 8 99 16 43 7 73 12 90 16s40 9 67 17c27 7 45 13 53 16l27 12 39-39c10-10 13-18 11-22-2-5-4-8-8-9-3-1-8-1-14 1l-25 5c-27-5-53-9-79-14-27-4-53-8-78-12-26-3-69-7-131-13-62-5-106-9-133-10l-107-4c-14-1-21-1-21-1h-22m551-188v99H144v-99h552m0-30H144V474h552v100Z"/></symbol><symbol id="㐆_J" viewBox="0 0 1000 1000" data-size="21"><path transform="matrix(1 0 0 -1 201 946)" d="M0 11c34 39 59 74 74 105 23 46 38 104 47 174 7 58 11 132 11 221v352l80-42c120 11 220 35 299 71l49-57c9-9 13-16 13-19 0-6-4-9-12-9-3 0-7 1-11 2l-33 9c-103-13-210-22-321-25v-75h290l23 30 51-30c12-7 18-14 18-20 0-7-3-12-10-15l-17-7V442l-57-6v27H196c-1-36-3-69-6-99h302l29 44 62-44c10-7 15-13 15-17 0-7-6-13-19-17l-17-6c-18-146-39-235-62-266-13-17-32-30-57-39-16-5-30-8-41-8-7 0-12 3-14 8-1 2-2 9-3 21-1 7-11 14-30 19l-38 10v15h121c11 8 20 18 25 30 17 39 30 113 39 223H189c-7-50-14-87-20-110C146 138 94 62 13 0L0 11m196 567v-89h298v89H196m0 113v-87h298v87H196Z"/></symbol><symbol id="㐇_K" viewBox="0 0 1000 1000" data-size="21"><path transform="matrix(1 0 0 -1 55 925)" d="m669 321 35 26c5 4 11 6 20 6 10 0 17-2 22-7h-1l28-26c12-12 18-19 19-20 0-7-22-11-66-11L155 99c-39-13-58-27-58-44 0-14 25-21 75-21h565c37 0 60 17 68 52l21 91 33-11-9-91c0-11 3-19 9-22 14-8 21-15 21-22 0-15-10-23-29-26s-59-5-120-5H157C76 0 36 17 36 51c0 13 9 27 27 42 19 15 43 28 72 38l487 167H129v23h540M73 692h271c5 45 8 97 11 158l52-14c31-8 46-15 46-22 0-4-15-11-45-20l8 1c-3-41-8-75-14-103h189c7 10 12 16 15 19s7 4 12 4c6 0 12-2 19-7-1 1-1 1 0 1l3-3h-1l4-3h-1l30-22c14-10 21-17 21-20 0-2-10-7-29-15h3c-1-1-1-1-2-1V485c0-22 2-37 6-45 5-8 15-12 30-12h82c10 0 17 3 20 8s7 16 11 33l20 96 31 8-5-114c0-13 3-20 9-22 14-5 21-11 21-19 0-19-28-30-83-31l-119-1c-31 0-53 8-67 23-14 16-21 41-21 76l1 184H400c-31-103-74-180-129-233S130 336 13 294L0 308c97 39 172 87 225 143 54 56 92 129 114 218H73v23Z"/></symbol><symbol id="㐈_K" viewBox="0 0 1000 1000" data-size="21"><path transform="matrix(1 0 0 -1 55 919)" d="m676 396 25 19 5 6c3 0 6 0 8 1h-3c7 3 12 4 13 4 5 0 13-4 24-11l33-24c17-12 25-21 25-27 0-7-15-10-45-10l-21 1-617-237c-41-15-61-34-61-56 0-19 26-28 79-28h611c25 0 45 19 58 56l48 135 31-19-32-134c0-9 2-13 7-14 17-4 26-11 26-20 0-25-45-38-134-38H126C87 0 57 5 34 16S0 41 0 59c0 34 34 65 101 92l566 223H69v22h607m210 76-5-17c-13 2-22 3-27 3-7 0-14-5-21-16-3-5-10-8-20-8-9 0-25 7-49 20-23 13-44 27-61 41h1c-113 86-200 171-262 255-25-40-62-84-109-131s-101-93-162-137c-35-25-84-56-146-91L8 407c76 47 147 103 214 169s121 135 162 207H172v22h218c11 15 18 24 21 27 4 3 10 5 19 5s17-3 26-10c31-19 47-30 48-35 0-3-4-7-12-11-8-3-13-5-15-5-1-1-1-1-2-1 36-53 78-100 126-142 49-41 96-75 141-100 42-23 90-43 144-61M470 773c1 1 2 1 3 1 1 1 1 1 2 1l-5-2Z"/></symbol><symbol id="㐉_K" viewBox="0 0 1000 1000" data-size="21"><path transform="matrix(1 0 0 -1 54 921)" d="m676 396 26 19 5 6c3 0 6 0 8 1h-3c7 3 12 4 13 4 5 0 13-4 24-11l33-24c17-13 26-22 26-27 0-7-15-10-46-10l-21 1-617-237c-41-15-61-34-61-56 0-19 27-28 80-28h610c25 0 45 19 58 56l48 135 32-19-33-134c0-9 2-13 7-14 17-4 26-11 26-20 0-25-45-38-134-38H128C89 0 58 5 35 16S1 41 1 59c0 34 34 65 101 92l566 223H70v22h606m71 389 34 41-3-1 7 7c1 1 1 2 0 2 4 5 10 8 18 8 7 0 16-5 27-15l60-53-10-13H479V534c0-16-3-28-9-35s-18-15-37-24c-29-14-52-21-68-21-8 0-14 1-18 4s-6 7-7 10-1 8-1 15c0 14-2 21-7 22l-89 20 2 16 128-15c4-1 12-1 24-1 11 0 17 10 17 30v206H0v24h747m31 40c-1-1-1-1-1 0h1Z"/></symbol><symbol id="㐊_K" viewBox="0 0 1000 1000" data-size="21"><path transform="matrix(1 0 0 -1 55 925)" d="m659 356 25 20h-1c7 7 14 10 21 10 8 0 16-3 25-10h-1l33-25c17-13 26-22 26-26 0-7-15-10-46-10l-21 1-548-200c-45-16-67-33-67-51 0-21 34-31 103-31h534c18 0 32 4 42 13s19 26 28 49l35 93 29-8-16-92c-1 0-2-5-2-14 0-10 3-18 9-24h-1c11-10 17-16 17-19 0-15-10-24-31-27s-59-5-116-5H194c-43 0-79 5-108 16-28 10-42 25-42 46 0 33 35 62 105 88l497 184H58v22h601M481 798V686h268l24 35c9 13 20 20 32 20 16-3 27-8 34-15l51-50-7-12H481V474h211l26 36c11 15 21 23 28 23 9 0 21-7 34-20l50-50-12-12H89v23h327v190H0v22h416v117l-7 47 66-13c23-5 34-11 34-18 0-5-12-12-35-22l7 1Z"/></symbol><symbol id="㐋_K" viewBox="0 0 1000 1000" data-size="21"><path transform="matrix(1 0 0 -1 56 925)" d="m659 356 25 20h-1c7 7 14 10 21 10 8 0 16-3 25-10h-1l33-25c17-13 26-22 26-26 0-7-15-10-46-10l-21 1-548-200c-45-16-67-33-67-51 0-21 34-31 103-31h534c18 0 32 4 42 13s19 26 28 49l35 93 29-8-16-92c-1 0-2-5-2-14 0-10 3-18 9-24h-1c11-10 17-16 17-19 0-15-10-24-31-27s-59-5-116-5H194c-43 0-79 5-108 16-28 10-42 25-42 46 0 33 35 62 105 88l497 184H58v22h601M481 798V686h169l25 35c9 13 20 20 31 20 15-3 26-8 34-15l52-50-7-12H481V474h271l25 36c11 15 21 23 29 23 9 0 21-7 34-20l49-50-11-12H0v23h416v190H135v22h281v117l-7 47 66-13c23-5 34-11 34-18 0-5-12-12-35-22l7 1Z"/></symbol><symbol id="㐌_G" viewBox="0 0 1000 1000" data-size="21"><path transform="matrix(1 0 0 -1 52 956)" d="m178 589 84-29c4-2 6-5 6-8 0-2-2-4-6-6l-32-16V421l192 55v212l92-35c2-4 2-7 0-11-4-3-17-8-37-16V489l179 49 28 43c46-22 71-35 74-39 2-3 1-7-2-10-4-3-13-10-26-21V239c1-29-4-51-15-64-12-13-31-24-59-33-8 19-17 32-27 39-10 6-40 15-90 27l4 18c51-10 83-13 98-12 13 0 22 2 27 6 5 2 8 21 8 58v233l-199-51V202l3-55c2-10-5-20-21-31-16-10-29-14-41-13l4 99v242l-192-52V97c0-28 4-42 14-44 8-2 16-4 24-4h494l29 4c22 8 33 18 35 30 4 11 8 64 12 160h19c2-63 4-105 6-125s13-35 33-46c-10-29-22-48-37-56-14-8-37-13-68-16H250c-18 0-33 3-45 8-10 5-17 14-21 27-4 12-6 32-6 60v285L63 345c-13-4-24-11-34-20L0 358l178 51v180m103 240c-10-10-24-32-43-66h489l43 50 70-60c1-3 2-7 2-10 0-4-3-7-8-8H223C158 632 96 556 37 507l-12 10c43 54 86 121 131 199 43 77 74 142 96 195 52-27 78-42 78-45 0-4-1-6-2-8s-4-4-10-4c-4 0-9-1-15-5-5-2-12-9-22-20Z"/></symbol><symbol id="㐌_T" viewBox="0 0 1000 1000" data-size="21"><path transform="matrix(1 0 0 -1 53 945)" d="M178 704C129 620 76 556 17 510L5 524c91 97 155 219 194 366l69-28c12-5 18-10 18-16 0-9-9-14-27-17l-25-3c-21-50-35-82-42-94h556l50 59 76-61c4-4 6-8 6-12 0-10-5-14-17-14H178m558-183 35 47 55-38c8-6 13-13 13-20 0-11-16-20-47-29-29-113-61-207-95-284l-19 7c7 24 19 73 36 149 12 52 21 98 26 139l-261-60V229c0-25 1-43 2-54 2-10 2-17 2-19 0-12-10-18-30-18-14 0-20 6-20 17v265l-225-50V96c0-22 6-36 18-42 14-7 43-11 87-11h403c45 0 74 4 87 10 11 6 19 23 25 51l22 103 18-4-9-89v-12c0-19 7-33 20-42 10-6 15-12 15-17 0-8-6-16-17-22C854 7 813 0 753 0H291c-50 0-84 6-103 19-18 11-27 32-27 64v276l-69-16c-20-5-40-12-61-20L0 356c32 6 61 11 87 18l74 16v149c-1 31-2 53-3 67l48-10c26-6 40-14 40-24 0-6-4-11-11-13l-27-9V401l225 49v152c-1 37-2 63-4 78l50-10c29-6 44-13 44-22s-6-15-17-18l-27-7V461l257 60Z"/></symbol><symbol id="㐌_K" viewBox="0 0 1000 1000" data-size="21"><path transform="matrix(1 0 0 -1 64 929)" d="M848 34c-4-23-51-34-142-34H277c-50 0-82 13-96 38-15 25-22 81-22 168v167L26 349l-3 18 136 26v154l-3 38 66-13c20-4 30-9 30-15s-10-13-30-22V400l185 40v166l-2 40 70-13c20-7 31-14 31-20s-12-13-36-23V447l158 35 19 31c8 11 15 17 20 17s12-5 22-14l36-34c11-11 17-18 17-22 0-7-10-13-31-18V229c0-31-1-51-4-60-4-15-14-27-30-36-13-7-26-11-39-11-19 0-27 7-24 20 5 18 1 30-12 34l-69 19 2 16 78-13c4 0 8-1 11-1 16 0 24 15 24 44v226l-178-39V183c0-32-1-48-1-49-3-13-13-22-31-28-6-2-11-2-14-2-8 0-13 4-15 14-1 8-2 26-2 55v248l-185-39V177c0-51 5-84 15-98 8-12 25-17 52-17h409c24 0 39 0 46 1 16 4 25 13 27 26l20 107 17-7V87c0-8 7-16 21-24 14-9 21-18 19-29m23 646-5-16H183C118 559 60 486 9 446l-9 10c60 69 128 203 203 402l57-18c24-8 36-16 36-26s-13-17-39-22c-16-33-36-69-62-106h558l29 35c9 11 17 16 22 16 6 0 16-6 29-19l38-38Z"/></symbol><symbol id="㐌_V" viewBox="0 0 1000 1000" data-size="20"><path transform="matrix(1 0 0 -1 56 977)" d="M223 530v-84l190 41v255l81-35-25-71V500l181 42 46 65 72-56-35-41V252c0-14-3-27-9-39-5-11-12-21-21-30s-19-16-30-21-21-9-32-11c-5 17-11 30-19 39s-18 17-30 23c-11 7-25 12-40 17s-33 11-53 18v7c7-1 15-3 25-5l33-6c11-2 23-4 34-5 12-1 23-2 34-2 15 0 27 2 36 5s15 11 16 22v256l-208-47V147c-5-9-12-14-21-17s-20-5-35-8v338l-190-41V131c0-25 6-45 17-58 12-13 27-22 44-25h424c21 0 37 3 49 10 12 6 21 14 27 25 7 11 11 23 12 37 2 15 3 30 3 46 0 9 0 19-1 29v29c0 3 0 5-1 6v9c1 1 1 3 1 4h19v-18c0-35 2-64 5-85 4-21 9-37 14-49s11-20 17-25 12-8 17-11 10-5 13-8c4-3 6-9 6-17 0-11-9-18-27-21-18-4-47-7-87-9H246c-13 0-24 4-33 11s-17 16-24 27c-6 10-11 21-15 33-3 12-5 23-6 33v301l-65-16-58-30-45 39 168 35v196c-8-7-17-15-28-23-10-8-21-16-32-24s-22-16-33-23-21-13-30-18l-4 13c31 27 62 58 94 91 32 34 62 69 90 104 28 36 53 71 74 106s37 68 47 98l89-43-43-27-85-111h405l51 52 76-76H291c-23-29-46-52-67-71-21-18-37-33-50-44l72-38-23-65Z"/></symbol><symbol id="㐍_K" viewBox="0 0 1000 1000" data-size="21"><path transform="matrix(1 0 0 -1 67 925)" d="m663 410 24 20h-1l3 2c2 1 4 2 5 3h-2c3 3 8 5 15 5 9 0 17-3 26-10h-1l32-25c17-13 26-22 26-26 0-7-13-10-40-10-13 0-22 0-28 1L159 118c-37-17-56-36-56-57 0-18 25-27 75-27h540c23 0 38 4 45 13s14 28 21 57l28 128 33-8-15-125c0-17 6-30 18-40s18-19 18-27-5-15-16-21h2c-11-4-17-6-18-6-28-3-69-5-122-5H162C82 0 42 19 42 56c0 35 32 66 96 95h-1l513 237H52v22h611M153 811l74-43c3 0 14 0 33-1s30-1 33-1c179 0 332 28 459 84l44-31c15-11 22-17 22-18 0-6-11-9-34-9l-24 2c-45-13-85-22-120-27-94-14-207-21-339-21-5 0-19 0-42 1s-36 1-40 1c-22-114-91-220-207-317L0 451c96 104 147 224 153 360m494-98 17 13c64-46 108-83 133-110s38-54 38-79c0-29-11-44-32-44-16 0-29 14-38 41-23 70-63 130-118 179m-294-30 20 14c53-41 88-72 104-92 17-19 25-40 25-63 0-13-3-23-10-32-7-8-15-12-24-12-17 0-28 13-34 39-11 49-38 97-81 146Z"/></symbol><symbol id="㐎_K" viewBox="0 0 1000 1000" data-size="21"><path transform="matrix(1 0 0 -1 55 925)" d="M18 714v23h388v71l-4 41 50-7c34-5 51-12 51-20 0-5-13-12-39-22l8 1v-64h273l31 44c7 11 16 16 27 16 7 0 19-8 37-23l49-45-9-15H670c9-7 14-11 14-12 0-3-8-6-25-11h2c-2-1-7-3-16-7h3c-43-72-101-133-173-184 95-39 205-59 332-59 33 0 55 0 66 1l-4-13c-13-2-21-4-26-7-4-3-6-8-7-15-1-9-2-14-5-16s-11-3-24-3c-17 0-41 2-74 7-102 13-201 41-297 84C309 408 166 367 6 356l-6 13c164 22 296 66 395 131-60 37-113 84-160 141-11-18-29-41-54-68l3 1c-1-21-8-31-22-31-10 0-18 4-25 12l-32 38c59 19 102 58 129 118l28-12-2-4-3-9c-1-3-1-6-2-7l-4-11c46-61 105-110 178-147 71 52 125 116 162 193H18m696-361h-1l33-24c17-12 25-21 25-27 0-7-13-10-39-10-13 0-23 0-28 1L223 109c-55-21-82-39-82-56 0-13 32-19 96-19h482c42 0 67 18 74 53l23 118 33-20-8-104c0-11 2-18 7-23 13-10 20-19 20-26 0-15-9-24-27-27s-61-5-129-5H222C126 0 78 16 78 48c0 14 11 30 34 48s52 34 88 48l432 167H73v23h572c13 11 24 21 31 28 2 3 6 4 13 4 5 0 12-4 21-11l4-2m-45 2-2-2 2 3-2-3c0 1 0 1 1 1v1h1m-5 336c-1-1-1-1-1 0h1m-1 0h-1 1Z"/></symbol><symbol id="㐏_K" viewBox="0 0 1000 1000" data-size="21"><path transform="matrix(1 0 0 -1 54 912)" d="m712 785 23 23c10 10 19 15 27 15 9 0 17-3 24-10l49-41-6-11H401l-36-112h256c24 22 39 33 44 33 10 0 18-4 23-11l39-37c5-9 8-14 8-15 0-6-11-12-34-19l-4-2-5-1 8 1V487h78l24 29h-1c7 11 16 16 28 16 11 0 20-5 25-14h-1l38-41-6-13H0v23h254l43 140H128v22h176l35 112H79v24h633m-46-404 26 19c7 7 15 10 24 10 7 0 15-3 24-10h-1l32-24c18-13 27-22 27-27 0-7-15-10-46-10l-21 1-602-222c-14-5-27-13-40-24S70 73 70 62c0-19 26-28 78-28h604c25 0 45 19 58 56l48 135 32-19-33-134c0-9 2-13 7-14 17-4 26-11 26-20 0-25-45-38-134-38H133C96 0 65 5 40 16 16 26 4 39 4 56s9 34 28 51c19 18 44 33 75 44l550 207H69v23h597M359 627l-42-140h319v140H359Z"/></symbol><symbol id="㐐_K" viewBox="0 0 1000 1000" data-size="21"><path transform="matrix(1 0 0 -1 41 928)" d="m773 324-26-9C475 220 289 147 190 96c-29-15-43-28-43-39 0-7 0-10 1-10 18-7 54-11 109-11l476 1c13 1 32 3 56 6 8 3 17 18 26 45l37 117 30-10-21-123-2-9c0-12 6-21 17-26s17-10 17-14c0-9-6-16-18-19-11-3-38-4-83-4H220C120 0 70 16 70 49c0 26 39 58 118 96 83 40 229 97 437 172l59 21H79v23h629c25 15 42 23 51 23 6 0 15-4 26-12 12-8 22-16 31-25 9-8 13-13 13-14 0-6-19-9-56-9M372 747l21 25c7 7 14 10 21 10 8 0 15-3 20-8h-1l28-27c11-10 16-17 16-20 0-8-14-12-42-12-32-63-70-116-115-159 61-33 92-63 92-88 0-14-7-21-21-21-13 0-24 6-35 19-23 25-45 46-67 64-86-69-180-113-283-134l-6 9c99 33 183 82 252 149-29 20-63 36-103 47-12-23-20-36-24-41-4-4-12-6-23-6l-16 1c-3-1-7-1-10-1-11 0-17 2-17 5 0 1 2 5 5 11 4 6 6 9 6 10h-1l5 4-2-1c1 1 1 1 1 2l76 140H27v22h134l53 109 62-18c16-5 24-10 24-15 0-9-15-15-46-17h6l-33-59h145m457 65h-1l33-29c11-10 17-17 17-21 0-7-15-11-45-11-38-68-84-125-138-172 63-60 137-92 223-96l-4-7c-28-6-45-12-50-19-2-3-4-6-5-10-2-5-8-8-17-8-7 0-17 3-28 8-11 6-40 22-86 49-29 20-51 39-66 56-59-42-140-82-245-121l-7 17c89 32 164 76 225 133-39 49-75 111-108 184h-71v23h314c17 22 31 33 40 33 7 0 13-3 19-9m-458-87H214l-56-104-7 1c30-8 72-23 125-44 41 47 72 96 95 147m401 40H569c31-71 63-123 97-158 46 41 81 93 106 158m-379 7c-1 0-2-1-2-2l2 2M70 583h2c-1-1-1-1-2 0Z"/></symbol><symbol id="㐑_K" viewBox="0 0 1000 1000" data-size="21"><path transform="matrix(1 0 0 -1 54 925)" d="m377 850 49-19c17-7 25-12 25-15 0-7-14-11-42-14h6c-15-19-34-37-58-54h237l16 16c1 1 2 1 4 1 2 1 3 1 4 1h-6l2 2h-1c3 5 10 8 20 8 7 0 14-4 21-12l27-31c8-12 12-20 12-24 0-9-20-13-60-13-38-31-81-59-129-84 114-38 223-57 326-57 30 0 50 0 60 1l1-14c-17-3-29-7-35-11s-10-11-11-20c-2-9-10-14-25-14-5 0-31 4-78 12-46 9-80 16-102 22l-12 3c-69 20-123 40-163 59-55-26-123-51-206-74-82-23-165-40-249-51L0 483c67 9 142 27 224 52 83 26 150 53 203 81-49 27-88 58-118 94-69-49-157-87-265-115l-8 14c159 50 272 130 341 241m174-581 23 19c3 0 5 0 7 1h-6c0 1 1 2 3 3s5 3 8 4 7 2 10 2c7 0 14-3 23-10l33-24h-1c18-13 27-22 27-26 0-7-13-10-40-10-14 0-24 0-29 1L224 118c-60-17-90-36-90-56 0-19 36-28 108-28h466c29 0 53 18 74 55l50 90 25-8-31-86c-1-5-2-10-2-13 0-9 3-14 9-16 16-7 24-13 24-20 0-15-12-25-36-29-24-5-64-7-119-7H228c-47 0-85 6-115 17S68 42 68 60c0 15 12 31 36 48 25 17 58 32 99 43l335 95H60v23h491m26 457H338c29-39 69-69 120-92 51 29 91 60 119 92M280 431l5 12c193-22 290-57 290-104 0-9-8-14-24-14-10 0-21 4-34 12-66 43-145 74-237 94m94 85 5 10 42-4c56-5 92-12 107-23 22-15 33-29 33-40 0-9-8-13-23-13-10 0-21 4-32 11-43 29-87 49-132 59Z"/></symbol><symbol id="㐒_K" viewBox="0 0 1000 1000" data-size="21"><path transform="matrix(1 0 0 -1 51 915)" d="M60 799h659c9 12 14 19 15 22l-1-1c3 6 9 9 18 9 7 0 12-1 15-3s9-7 17-15h-1l29-26c9-9 13-15 13-16 0-5-14-9-43-11-15-58-33-100-55-125-21-25-50-37-87-37-22 0-33 3-33 9l2 8h-1c1 2 1 6 1 11 0 12-3 19-10 22l-85 37 5 13 117-39c11-3 18-5 21-5 16 0 29 12 40 37s18 54 23 87H445c-61-83-156-150-286-201l26-17h547l13 15h-1c4 5 10 8 19 8s22-7 41-20 28-21 28-24c0-8-13-14-39-19l9 1V380l2-18c0-15-15-22-44-22-9 0-15 2-17 6-2 5-3 13-3 25-1 2-1 5-1 10H189c0-16-4-26-12-30h1c-9-7-21-10-36-10-8 0-13 2-15 7-1 5-2 17-2 37v174c-16-5-55-15-118-30l-7 18c73 15 144 43 212 82h-1c61 35 114 84 159 147H60v23m633-512 27 15c7 4 15 6 24 6s17-4 24-11h-1l24-22c9-9 14-15 14-18 0-11-21-16-64-17-104-28-186-48-245-61-165-34-280-61-345-81-26-9-39-20-39-34 0-18 33-27 98-27h490c43 0 71 4 86 13s27 27 35 56l23 85 30-11-15-77c-1-5-2-11-2-16 0-15 6-25 17-30h-1c16-5 24-11 24-16 0-8-7-15-22-22C850 6 798 0 718 0H181C134 0 97 6 72 17S35 42 35 58c0 15 12 31 35 46h-1c12 10 32 19 61 27 89 26 201 53 337 82 74 15 145 32 212 51H80v23h613M189 536V403h549v133H189m601 34-2 2 2-2m-57 250c-1-1-1-1-1 0h1Z"/></symbol><symbol id="㐓_K" viewBox="0 0 1000 1000" data-size="21"><path transform="matrix(1 0 0 -1 54 916)" d="m733 389 32-25h-1c17-13 25-21 25-25 0-7-17-11-50-11-2 0-8 0-18 1s-16 1-17 1L135 118c-39-15-59-33-59-55 0-19 26-29 78-29h572c19 0 34 5 43 15s17 28 23 55l27 128 33-8-14-120c-1-4-1-8-1-11 0-19 5-31 14-36 15-9 23-18 23-25 0-8-6-15-18-21h1C847 4 801 0 720 0H139C54 0 12 18 12 54c0 17 9 35 28 53s44 33 74 44l517 196H39v23h624c12 9 20 16 25 21 7 5 14 8 20 8 8 0 16-3 25-10M513 684h-1l23-25c11-13 17-20 17-22 0-5-11-10-32-13l9 1V513l2-22c0-7-7-13-21-18s-23-7-28-7c-8 0-13 1-15 4s-3 8-3 16c1 2 1 6 1 13H230l1-25c0-7-10-13-31-18h1c-3-3-9-4-19-4-13 0-19 4-19 12 0 2 0 8 1 18s1 16 1 17v155l-5 52 69-42h227c7 9 11 14 14 17s6 6 9 8c3 3 7 4 11 4 10 0 18-3 23-9m254 100 30 35c7 8 13 12 20 12 10 0 18-4 24-11h-1l51-48-6-12H752V557c0-37-4-64-11-82s-19-32-38-43-39-17-58-17c-12 0-18 3-18 9 4 16 1 25-8 27l-85 23 6 11 94-11 18-1c16 0 26 6 29 19 4 13 6 37 6 71v197H0v23l767 1M230 643V522h235v121H230Z"/></symbol><symbol id="㐔_K" viewBox="0 0 1000 1000" data-size="21"><path transform="matrix(1 0 0 -1 58 925)" d="M777 643h-1l24-23c12-11 18-17 18-20 0-8-10-12-30-13V463c1-2 1-8 1-18 0-9-10-17-30-26h2c-5-3-11-4-20-4s-14 2-16 6c-1 5-2 17-2 37H186l1-23c0-10-7-18-20-25-13-6-23-9-30-9-11 0-17 5-17 14 0 5 0 9 1 14v185l-5 53 69-41h529c21 18 34 27 38 28 9 0 18-4 25-11m-97-300 27 19h-1c1 1 2 1 3 2 2 1 3 2 4 3h-1c4 4 10 6 17 6 5 0 13-4 24-11l34-24c16-11 24-20 24-27s-13-10-39-10c-14 0-24 0-29 1L127 112c-39-12-59-29-59-50 0-19 26-28 79-28h598c25 0 45 19 58 56l48 134 32-17-34-130c0-11 3-18 8-19 17-5 26-12 26-20 0-25-45-38-134-38H132C44 0 0 18 0 54c0 16 11 33 32 51s47 32 77 41l562 175H112v22h568M186 603V481h537v122H186m214 247 55-14c31-8 47-16 47-24 0-3-10-9-29-16h1c-1-1-5-2-14-4l10 1v-74h278l28 45c5 8 13 12 22 12 6 0 14-4 23-11h-2l56-53-8-15H1v22h403v81l-4 50m378-264 9 1-9-1Z"/></symbol><symbol id="㐕_K" viewBox="0 0 1000 1000" data-size="21"><path transform="matrix(1 0 0 -1 75 935)" d="m70 770 66-39h233v99l-4 40 59-13c25-5 37-11 37-19 0-7-12-13-37-18l10 1v-90h231c4 7 7 12 9 15s5 6 8 8c4 3 8 4 13 4 8 0 16-4 25-13l24-23c11-10 16-17 16-22s-8-8-25-10V419c1-3 1-9 1-20s-9-22-27-31l-6-1h4l-6-3h1c-3-2-8-3-15-3s-12 1-14 3c-1 3-2 7-2 12 0 3 0 5 1 6 0 14 0 24-1 30H139v-27c0-9-1-16-4-19s-10-8-23-13c-8-3-14-5-19-5-9 0-14 2-16 5s-3 9-3 16l1 35v311l-5 55M48 294h502l36 24h1c7 7 14 10 23 10s17-3 24-9l28-22c11-9 17-15 17-16 0-9-22-13-66-10-5 0-36-10-91-31-15-5-70-26-163-62l-155-61c-52-21-86-35-101-42-15-11-23-20-23-26 0-8 18-12 53-12h564c25 0 41 3 50 8s17 18 22 38l30 118 31-11-14-115c0-15 5-24 14-28 13-6 20-12 20-17 0-14-8-22-25-25s-53-5-110-5H131C44 0 0 12 0 37c0 26 48 59 143 99 36 15 132 51 287 108 19 7 36 13 51 16 10 4 20 8 30 11H48v23m386 268V435h237v127H434m0 147V585h237v124H434M139 562V435h230v127H139m0 147V585h230v124H139Z"/></symbol><symbol id="㐖_G" viewBox="0 0 1000 1000" data-size="21"><path transform="matrix(1 0 0 -1 33 964)" d="M0 737h258v192l86-32c5-1 8-4 8-7 2-2 2-5 0-8l-43-16V737h148l35 39 63-48c2-3 3-6 4-10 0-5-4-7-12-8H309V538h107l35 41 63-49c2-2 3-6 4-9 0-5-5-8-16-8H127c-14 0-37-3-68-10l-18 35h217v172H86c-14 0-36-3-66-8L0 737m90-330 56-41h249l33 35 51-37c7-4 11-8 11-13 0-4-10-12-31-24V128l4-79c2-10-4-19-18-28-12-8-24-13-37-13v82H141V39c0-9-7-18-20-27C107 4 96 0 86 0l4 114v293m51-291h267v223H141V116m457 803 93-29c2-4 4-7 4-8 0-2-2-4-4-6l-41-18V92c0-22 4-33 10-35 7-2 16-4 28-4h132c24 4 37 14 41 31 4 14 6 30 8 46 1 15 2 57 2 125h22c2-67 5-113 11-139 6-24 16-37 30-40-9-21-20-38-34-51-13-11-35-18-68-21H680c-18 1-34 2-47 4-13 4-22 13-28 27-5 13-8 34-7 64v820Z"/></symbol><symbol id="㐖_T" viewBox="0 0 1000 1000" data-size="21"><path transform="matrix(1 0 0 -1 25 954)" d="M282 731h140l47 50 60-52c5-5 8-9 8-13 0-8-4-12-13-12H282V509h110l48 50 59-53c6-5 8-9 8-12 0-9-4-13-13-13H153c-38 0-69-1-93-4l-19 43c31-7 68-11 112-11h82v195H112c-35 0-66-2-93-4L0 743c31-8 68-12 112-12h123v98c0 39-1 65-4 78l53-11c28-7 42-14 42-22 0-10-8-16-24-21l-20-5V731M112 349h304l33 37 40-26c13-9 20-17 20-24 0-9-13-19-38-30V88l26-16c7-5 10-10 10-16 0-7-3-10-8-10H108V14c0-9-7-14-21-14-20 0-30 8-30 25l5 79v204c0 1-2 28-5 82l55-41m-4-276h317v248H108V73m496 826 54-12c28-6 42-13 42-22s-8-16-25-21l-19-5V115c0-20 4-33 13-38 15-9 49-14 100-14 55 0 88 5 98 14 9 7 15 26 20 57 1 6 4 32 9 76l2 27 19-3-2-109c0-2 1-9 2-21 1-9 4-16 8-21 0-1 6-5 16-14 5-5 8-9 8-14 0-25-54-37-163-37-58 0-100 3-127 8-34 8-51 28-51 61v734c0 38-1 64-4 78Z"/></symbol><symbol id="㐗_K" viewBox="0 0 1000 1000" data-size="21"><path transform="matrix(1 0 0 -1 47 936)" d="M123 734v22h225v66l-2 49 64-17c21-5 31-9 31-14 0-7-12-15-36-22l8 1v-63h109c13 16 22 26 26 29s9 5 15 5c11 0 20-5 27-15l27-31-8-10H413v-94h103c85 68 151 144 200 227l58-33c15-9 23-15 23-18 0-9-16-13-47-13-37-53-91-107-160-163h220c10 14 17 23 21 27 5 5 10 7 16 7 10 0 20-5 31-16l28-28-7-13H567c-49-39-102-74-161-107l6 1v-5c55 8 117 21 186 39s127 37 173 58l31-34c7-7 10-12 10-16 0-6-8-9-24-9-12 0-24 2-35 6-47-14-105-27-173-39-67-12-123-20-168-24v-39c0-8 1-13 4-16 5-5 19-8 42-8h324c24 0 39 10 46 31l24 66 28-8-10-64c0-13 6-22 17-27 10-5 15-9 15-13 0-5-5-9-16-14-1-1-4-1-8-1h7c-5-4-39-6-100-6H436c-35 0-59 4-71 12-12 9-18 25-18 50v38c-101-42-213-76-336-103l-4 13c111 30 197 58 256 85 31 13 60 30 89 49l-5-1v73l60-48 19 13c12 9 25 18 39 28 14 11 23 17 27 20H0v23h348v94H123m593-380h-3c3 3 9 5 18 5s22-7 40-21c19-13 28-22 28-26 0-6-13-9-40-9-5 0-9 0-11 1-111-33-197-61-259-84l-156-58c-42-14-64-22-67-25-91-37-136-64-136-81 0-15 33-22 100-22h482c40 0 65 3 76 9 11 5 21 20 28 45l33 113 31-11-16-114c-1-5-2-11-2-17 0-9 3-16 9-20h-1c12-5 18-10 18-15 0-11-5-17-16-20-10-3-35-4-74-4H204C103 0 53 16 53 48c0 13 7 26 21 39 15 13 36 27 63 40 28 13 57 26 87 38s65 26 106 41c6 2 11 4 14 5 46 18 127 46 242 83l56 18H54v23h632c14 10 24 16 30 19Z"/></symbol><symbol id="㐘_K" viewBox="0 0 1000 1000" data-size="21"><path transform="matrix(1 0 0 -1 55 925)" d="M0 659v22h410l-1 168 58-10c25-3 38-9 38-16 0-4-8-10-25-19h1l-4-4-2-1h2l-4-2 3 1V681h73l107 147 39-31c13-11 20-19 20-23 0-7-9-10-28-10-1 0-2 0-3 1h-7l-102-84h183l20 28c7 11 16 16 27 16 7 0 15-3 24-10l49-46-5-10H533c40-51 91-94 154-127s131-55 202-68l-2-10c-25-1-39-7-43-19-5-11-14-17-26-17-11 0-28 6-50 18-125 69-217 144-274 223h-18l1-220c0-9-6-17-19-24-12-7-22-11-30-11-9 0-14 2-16 6s-3 10-3 18l1 27v203l-23 1C305 538 179 452 10 400L0 410c70 29 133 66 188 111 56 45 99 91 128 138H0m616-323 25 19h-1c7 7 14 11 21 11 5 0 13-4 24-11l33-24c17-12 25-21 25-26 0-7-17-11-50-11l-40 2-467-171c-51-19-76-39-76-61 0-20 31-30 94-30h533c21 0 37 4 48 11 11 8 19 22 26 41l30 92 33-7-17-92c-1-1-1-1-1-2 0-7 3-13 9-19h-1c14-8 21-17 21-26 0-15-9-23-27-26-18-4-61-6-128-6H190C95 0 47 20 47 61c0 16 11 33 32 50 21 18 50 34 85 47l417 155H62v23h554M158 816l9 13c3-2 15-8 35-17s38-17 55-26c17-8 27-14 31-18 16-16 24-31 24-44s-8-19-25-19c-13 0-24 7-33 20-23 34-55 64-96 91m323-12c1 1 2 1 2 0h-2Z"/></symbol><symbol id="㐙_K" viewBox="0 0 1000 1000" data-size="21"><path transform="matrix(1 0 0 -1 49 926)" d="m684 369 24 15h-1c11 6 20 9 27 9s20-8 40-23 30-25 30-28c0-8-25-11-74-10-15-5-69-24-160-56-91-31-140-49-149-52l-105-40-56-23c-28-13-52-23-72-30h1c-47-21-70-41-70-61 0-24 34-36 103-36h465c47 0 79 2 97 7 8 2 17 18 27 47l37 106 30-11-21-112c0-17 4-28 13-34s13-11 13-15c0-10-5-16-14-18-9-3-33-4-73-4H203c-49 0-88 5-118 16-29 10-44 24-44 42 0 30 32 62 95 95 88 45 245 104 470 179h-1c3 1 10 4 21 7s18 6 23 8H106v22h578m39 387 24-22c9-8 13-13 13-16 0-6-9-11-26-14l5 1v-93c0-5-6-11-18-18-12-6-22-9-30-9-12 0-18 3-18 10 0 1 0 1 1 2l2 6h-1v7h1l-1 2H234c0-10-5-19-14-26s-20-10-34-10c-9 0-14 1-16 4s-3 8-3 15c1 5 2 10 2 13v116l-4 55 66-38h438c14 15 24 23 31 23 9 0 16-3 23-8m-489-38v-84h440v84H234m558-262 21 28h1-1l1 1h1l3 3h-1c3 5 9 7 19 7 11 0 21-4 28-12h-1l38-35-9-14H0v22h563l33 129 56-32c13-9 20-15 20-17 0-5-11-9-32-12l-39-68h191m-40 361 21 25c7 7 14 10 21 10 8 0 15-3 20-8h-1l43-39-6-10H44v22h708M243 567l10 13c61-37 92-68 92-93 0-20-9-30-28-30-17 0-29 13-34 39-6 26-19 50-40 71Z"/></symbol><symbol id="㐚_K" viewBox="0 0 1000 1000" data-size="21"><path transform="matrix(1 0 0 -1 51 942)" d="M691 760h-1c25-29 37-44 37-46 0-3-11-9-32-17l8 2v-88h86c13 19 22 30 26 34s9 6 14 6c10 0 17-3 21-9h-1l48-44-2-12H0l2 25h272l32 111H138v21h174l21 73H33l-2 22h696l19 30c7 10 15 15 24 15s16-3 23-9l52-47-2-11H396l-23-73h259c9 13 15 21 18 24s9 5 17 5c11 0 19-4 24-12m14-254 13 15h-1c7 7 15 11 24 11 8 0 14-2 18-5 5-3 14-12 28-27 10-11 15-18 15-19 0-3-12-9-35-17l7 1V362c0-14-1-23-2-26s-4-7-11-12c-1-1-4-1-8-1h5c-7-5-18-8-31-8-8 0-13 2-15 6-1 4-2 16-2 35H195c0-17-2-28-6-34-4-5-13-10-26-13h2c-7-3-14-4-19-4-11 0-17 4-17 13v2c1 13 1 26 1 39v137l-3 51 69-41h509m-33-234 38 16h-2c5 3 11 5 19 5s18-4 29-11l28-18c11-7 17-12 17-15 0-5-16-8-47-8l-14 1-105-28-129-33c-110-28-185-47-224-57s-58-15-57-16l-11-2C133 83 92 65 92 53c0-13 28-19 84-19h517c45 0 75 3 89 10 15 6 26 23 33 52l23 93 33-9-10-81c-1-15-2-22-2-23 0-14 5-24 16-31 10-7 15-12 15-17 0-11-11-18-33-21-28-5-97-7-207-7H145C64 0 23 14 23 43c0 17 22 36 66 57 35 17 135 45 300 84l243 66H42v22h630M195 483V378h515v105H195m173 239-31-111h302v111H368Z"/></symbol><symbol id="㐛_K" viewBox="0 0 1000 1000" data-size="21"><path transform="matrix(1 0 0 -1 56 927)" d="M307 709h143c18 44 34 92 47 144l55-24c22-9 33-15 33-20 0-3-5-6-15-9-9-3-19-4-28-4-1-1-1-1-2-1h4l-2-1 5 1c-5-15-17-44-35-86h241l30 40c0-1 0-1 1 0 1 0 1 0 2 1l-2-1 3 3h-1c1 0 2 1 3 2h-1c4 5 10 8 18 8 9 0 19-4 28-13l54-48-9-14H501c-18-35-34-61-47-79l27-15h260l15 16-2-1 3 3h-1c5 7 10 10 17 10 9 0 17-4 24-12l27-29c11-10 17-17 17-21 0-7-10-11-30-12V400c0-7 0-13 1-17h-1l2-8c0-4-7-9-20-14s-22-7-28-7c-8 0-13 1-15 3s-3 6-3 11l2 7h-1v17H481c0-12-1-20-3-23s-8-7-19-10c-13-4-22-6-26-6-9 0-14 1-16 3-2 3-3 7-3 13l1 22v172c-49-55-102-93-159-114l-10 12c71 43 136 118 195 226H307v22m305-416 25 19 7 3h-6c7 5 14 8 19 8 8 0 17-4 26-11h-1l32-24c17-13 25-21 25-24 0-9-18-13-54-13l-41 2-449-149c-43-15-65-31-65-47 0-15 27-23 80-23h525c22 0 38 4 48 11 11 8 19 22 24 42l23 85 31-3-11-88c0-10 3-17 10-21h-1c17-10 25-19 25-28 0-15-9-24-28-27s-61-5-127-5H196c-39 0-72 5-98 14S59 35 59 50s10 31 31 47c21 17 49 31 84 42l397 132H61v22h551M480 571V414h268v157H480m-270 88 8 1V395c0-11 0-18 1-21 0-19-1-32-3-37s-8-9-19-12l-10-4h1c-3-2-9-3-16-3-9 0-14 3-16 10s-3 19-3 35l1 32v221c-36-40-83-79-141-118L0 514c107 89 188 202 243 339l46-26c21-12 31-20 31-25 0-6-13-9-40-9-24-49-45-82-62-100 15-8 22-14 22-17 0-4-10-10-30-17m594-113 7 1c-2 0-4 0-7-1m-18 206c-1-1-1-1-2-1l2 1m-32-144c-1-1-1-1-1 0h1m29 141h1-1Z"/></symbol><symbol id="㐜_G" viewBox="0 0 1000 1000" data-size="21"><path transform="matrix(1 0 0 -1 15 972)" d="M0 700h221v244l80-35c4-2 6-6 6-10-1-2-13-7-37-17V700h132l30 35 54-45c2-2 4-4 6-7-2-6-4-9-6-8H270V446c39 43 79 95 121 157 41-28 61-43 62-47 0-4-2-7-6-8-2 0-8-1-15-2-9-2-23-11-43-25-20-17-59-49-118-98 45-26 77-46 98-61 21-14 39-31 55-50 14-18 19-36 15-53-4-16-13-24-27-26-12 0-21 8-29 26-7 17-14 33-22 49-7 13-18 27-31 43-12 13-32 31-60 52V82c0-18-5-33-14-45-10-12-29-23-59-33 0 17-8 32-23 43-16 11-43 22-82 33l4 18c68-16 106-21 115-16 8 5 11 13 10 25v289c-54-51-90-86-110-106-19-19-39-45-58-76L4 259c57 39 129 95 217 170v246H82c-14 0-36-3-66-8L0 700m47-103 10 9c32-22 58-44 78-66 17-21 28-40 33-57 3-17 1-30-6-39-6-9-14-14-25-13-11-1-19 6-22 21-3 13-6 27-10 43-3 15-8 29-15 43-8 14-22 33-43 59m266 279 9 12c43-24 72-43 86-59s21-29 22-41c0-12-3-23-8-31-7-9-16-12-27-10-12 1-19 10-22 25s-8 32-16 49-23 35-44 55m310-215 119 12 28 41c48-30 72-47 72-51 0-3-1-6-4-10s-14-12-33-25V130c0-27 2-43 6-48 3-4 7-6 13-6h61c9 2 15 8 19 18 2 9 4 25 6 50v97h20c1-47 4-82 8-105 1-21 13-39 33-54-11-20-22-34-33-43-10-7-26-12-47-14h-61c-23 0-42 6-55 18-14 10-21 31-21 64v540l-133-13c2-78-1-158-8-240-6-83-28-157-66-221C508 111 439 53 338 0l-12 14c88 50 149 108 182 173 32 62 51 128 56 199 6 68 8 149 6 244l-52-4c-19-3-34-8-45-16l-26 37 123 10v278c55-19 84-30 86-34s2-7-2-11c-4-3-14-8-31-16V661Z"/></symbol><symbol id="㐜_T" viewBox="0 0 1000 1000" data-size="21"><path transform="matrix(1 0 0 -1 29 960)" d="M274 691V92c0-46-25-74-76-84-5 23-13 39-24 46s-37 14-80 21l5 22c57-9 90-13 100-13 19 0 29 9 29 28v579H124c-34 0-66-1-95-3l-18 41c30-7 68-10 113-10h104v123c0 40-2 66-4 78l53-11c28-6 42-14 42-22 0-10-8-17-25-21l-20-5V719h102l48 51 59-53c5-5 8-9 8-12 0-9-5-14-13-14H274m-83-315 13-12c-20-29-36-50-48-64 0-1-28-31-85-91l-2-17c-2-15-5-22-10-22-7 0-14 6-23 18L0 238c57 25 121 71 191 138M65 626c79-61 119-111 119-148 0-10-3-18-10-25-5-4-10-7-16-7-13 0-23 15-28 44-5 28-31 69-78 124l13 12m303 269c66-29 99-57 99-84 0-16-6-23-19-23-9 0-18 9-27 27-11 24-32 46-63 64l10 16m40-328c-26-38-62-78-109-120l-12 13c42 54 75 110 97 168l51-27c12-7 18-15 18-22 0-8-9-12-26-12h-19m-94-177c49-35 81-58 95-72 41-39 61-74 61-106 0-11-5-20-15-25-4-3-10-4-15-4-7 0-12 1-15 5-4 4-11 22-23 56-11 32-44 76-100 133l12 13m277 523 63-13c23-4 34-11 34-21s-8-16-26-20l-20-5V662h95l34 37 41-27c13-8 19-16 19-23 0-5-2-9-5-11-3-3-14-9-33-19V109c0-19 15-28 44-28 22 0 36 10 42 29 5 14 10 51 18 112l16-3-2-90c0-8 1-15 3-21 2-4 9-13 22-25 4-4 6-8 6-14 0-20-37-31-110-31-29 0-49 3-61 8-16 7-24 21-24 42v546H643c-4-159-20-281-47-364C562 166 498 76 404 0l-12 12c86 86 143 183 170 290 23 91 34 202 34 332h-34c-21 0-46-2-73-5l-19 42c37-6 68-9 92-9h34v171c0 36-2 63-5 80Z"/></symbol><symbol id="㐜_K" viewBox="0 0 1000 1000" data-size="21"><path transform="matrix(1 0 0 -1 54 948)" d="M446 611v23h110c0 96-1 183-4 262l67-19c23-7 34-13 34-19 0-3-8-8-25-15-1-1-4-1-8-1h3l-9-3 8 1V634h80c8 11 14 18 17 21s8 5 14 5c9 0 18-4 27-13l25-25c1-1 4-5 8-12l-2 1c4-7 6-11 6-14 0-8-12-12-35-12V117c0-19 1-31 4-34s13-5 30-5c7 0 12 2 14 6 3 4 6 13 9 26 1 2 1 4 1 5l31 131 32-19-21-114-1-14c0-13 2-19 7-20 16-3 24-8 24-17 0-20-30-30-91-30-43 0-71 4-84 12s-20 29-20 62v505h-75c0-121-9-216-26-286s-45-129-85-177S410 51 329 0l-12 15c67 49 116 95 147 140s54 100 67 167 22 163 25 289H446M29 196 2 231c63 34 135 81 218 142l10-9v295H0v23h230v166l-2 45 56-12c31-7 46-13 46-20 0-3-14-10-43-23l7 1V682h101l22 29c7 10 15 15 25 15 7 0 15-3 22-9l51-45-8-13H294V441c47 60 85 117 113 172l51-38c15-11 23-20 23-25s-15-9-45-11h6c-63-61-114-107-153-136l5 1v-26l7 8c74-49 121-85 140-106s28-42 28-65-9-35-27-35c-15 0-26 10-34 30-17 47-55 98-114 153V97c0-31-11-53-33-68-21-15-46-22-75-22-15 0-22 2-22 6 0 1 1 3 3 6h-2c2 4 3 8 3 11 0 9-3 15-10 18L79 77l2 10 105-20c9-1 16-2 21-2 11 0 17 3 19 10 3 6 4 18 4 37v246l-11-10h1c-37-37-86-81-145-133l4 1 2-23c0-11-6-16-19-16-12 0-23 6-33 19m12 394 8 16c57-34 96-60 117-79s31-38 31-57c0-9-3-17-10-24-6-7-13-10-20-10-14 0-24 8-30 24-17 46-49 89-96 130m300 261 9 13c22-12 39-22 52-30s26-18 39-31 20-24 20-34c0-18-9-27-26-27-14 0-24 7-30 21-16 35-37 64-64 88Z"/></symbol><symbol id="㐝_K" viewBox="0 0 1000 1000" data-size="21"><path transform="matrix(1 0 0 -1 44 935)" d="m673 623 24-21c8-7 12-12 12-14 0-6-10-12-30-17l10 1V448c0-5 0-9 1-12h-1c1-4 2-7 2-8 0-7-5-13-16-18-10-5-22-7-36-8-10 0-15 2-15 7v39H514c0-18-1-29-3-34s-9-10-20-15c-9-5-18-7-25-7-11 0-16 4-16 13l-1 202c-25-37-57-75-96-114l-19 18c26 35 46 64 61 88l-147-59 7 1V407c0-19-3-32-10-40s-21-17-44-27c-23-9-40-14-51-14-13 0-19 4-20 13-1 15-7 25-17 28l-57 24 5 14 85-21 17-2c19 0 28 15 28 46v89L68 470l8 1v1l-2-3c-1-3-1-5-2-6 0-10-2-18-7-24-5-5-10-8-17-8-9 0-19 9-28 26L0 496l191 59v140H9v22h182v85l-3 52 56-13c31-7 46-13 46-19 0-5-14-11-43-20l8 1v-86h69c11 16 17 25 18 27l-1-1 2 3h-1c1 0 2 1 3 2h-1c3 5 8 7 16 7 9 0 17-2 22-7l39-40-11-13H255V570l148 45 1-2c49 80 84 166 107 258l48-18c27-9 40-16 40-23 0-6-11-11-32-15l-13-4 7 1c-14-35-29-64-44-88h258c13 16 22 26 25 29 4 4 9 6 15 6 10 0 19-4 28-13l31-28c14-13 21-20 21-23 0-5-16-12-47-22l9 1c0-125-8-210-24-255-15-45-51-75-107-90-31-8-48-12-51-12-10 0-15 3-15 8 1 1 1 3 1 8 0 13-11 23-34 29l-72 19 5 14 96-17c11-2 23-3 35-3 36 0 62 14 77 41l-1-1c8 17 13 30 15 39 8 44 12 108 12 193v55H509l-45-71 48-20h107c1 1 3 4 8 11s7 11 6 11c3 3 8 5 15 5 6 0 14-5 25-15m14-334 32 23h-1l-1-1 1 1h-1l1 1v-1c9 7 17 10 24 10 9 0 20-4 33-13l24-19h-1c14-10 21-16 21-18 0-7-12-11-37-11-9 0-22 1-38 3l-176-56-258-78c-3 0-5-1-7-3l1 1c-63-21-103-35-120-43-22-11-33-21-33-30 0-15 37-22 112-22h454c23 0 40 0 50 1 10 0 21 2 32 5s19 7 24 13 8 15 10 26l21 119 32-8-6-120c0-14 5-24 16-30s16-11 16-15c0-11-5-17-16-20-10-3-37-4-81-4H228C123 0 71 15 71 45c0 15 12 29 35 44 24 15 50 28 77 37 49 17 140 46 273 87l166 53H138v23h549M514 589V470h110v119H514M312 130h-2 2m29 613c-1-1-1-1-1 0h1Z"/></symbol><symbol id="㐞_K" viewBox="0 0 1000 1000" data-size="21"><path transform="matrix(1 0 0 -1 55 925)" d="M51 707v23h200v77l-4 41 45-5c36-4 54-10 54-17 0-3-11-12-34-26l4 1v-71h247v81l-4 38 46-7c33-5 50-10 50-17 0-3-9-9-26-19l-7-5 5 1v-72h64l26 35c1 1 2 2 2 3l8 9h-1c5 6 11 9 20 9 6 0 16-6 31-17l58-48-9-14H627V432h115l30 40c4 4 7 8 10 12 3 6 10 9 19 9 4 0 12-4 23-12 3-3 5-4 7-5-1 1-1 1 0 1l54-53-6-15H608c19-42 54-79 105-112 51-32 110-54 177-66l-2-15c-10 2-17 3-22 3-11 0-18-4-19-12-5-14-14-21-27-21-20 0-55 18-106 54-50 36-90 74-120 114-11 17-22 35-31 55H320C281 290 176 199 6 137l-6 16c70 31 126 69 167 113 42 44 69 92 82 143H18v23h233v275H51m537-415 30-26c17-15 26-24 26-25 0-7-14-10-41-10l-20 1-347-119c-36-13-54-28-54-47 0-21 41-32 123-32h416c43 0 69 15 78 45l18 60h31l-6-67c0-11 3-18 8-21 13-7 19-13 19-20s-6-14-17-20h2c-11-4-16-6-17-6-28-3-69-5-122-5H290c-49 0-90 5-123 16s-49 26-49 47c0 14 9 29 27 45 19 16 41 28 68 37l297 104H267v23h250c12 9 20 16 25 21 7 5 14 8 20 8 10 0 19-3 26-9M315 509v-77h247v77H315m0 198v-76h247v76H315m0-99v-76h247v76H315Z"/></symbol><symbol id="㐟_K" viewBox="0 0 1000 1000" data-size="21"><path transform="matrix(1 0 0 -1 58 925)" d="m613 323 25 19h-1c1 1 2 1 3 1 2 1 3 1 4 1h-5c5 5 12 8 19 8 9 0 18-3 25-10h-1l33-25c17-13 25-21 25-24 0-8-18-12-55-12-20 0-33 1-40 2L197 104c-44-17-66-33-66-48s27-22 80-22h525c22 0 38 4 48 11 11 8 19 22 24 42l23 85 31-3-11-88c0-10 3-17 10-22h-1c16-9 24-18 24-27 0-15-9-24-28-27-18-3-60-5-126-5H197c-39 0-72 5-98 14S60 35 60 50c0 29 38 58 115 89l397 161H62v23h551m-21 471v-54h154l17 35c7 13 16 20 27 20 10 0 19-4 26-11l53-54-4-13H592v-87h136l27 36c5 7 11 11 18 11s14-3 21-8h-1l51-48-3-14H592v-92h165l26 41c5 8 11 12 20 12 10 0 19-4 26-12l47-52-5-11H592v-51c0-4 0-8 1-11 0-19-1-31-4-36-2-5-9-11-22-18h1c-9-6-18-9-25-9-11 0-17 5-17 16 0 5 0 10 1 15l-2 451 49-13c29-7 43-14 44-21 0-3-7-9-22-17 1 0 1-1 0-2-1 0-2-1-5-2s-4-2-5-2l6 1M50 717v23h262v59l-5 49 46-8c37-7 55-14 55-22 0-5-13-13-38-26l7 1V658c0-12 0-24-1-36l-2-58c-1-3-1-12-2-27-14-51-46-92-95-121h1c-21-12-45-22-73-30s-53-14-74-17-54-7-100-12l-8 13c103 13 179 37 226 71 28 21 47 49 58 86L69 476c-2-18-11-27-26-27-13 1-22 10-29 27L0 507l309 41c0 3 0 13 1 30s2 26 2 29H53v23h259v87H50Z"/></symbol><symbol id="㐠_K" viewBox="0 0 1000 1000" data-size="21"><path transform="matrix(1 0 0 -1 55 926)" d="m597 259 30 18-3-1c11 9 20 13 27 13 9 0 13-1 13-2l-4 1 16-12 27-22c13-11 20-18 20-21 0-9-20-14-60-14-25 0-40 0-45 1L182 98c-53-15-79-30-79-45 0-13 30-19 90-19h533c42 0 67 17 74 50l20 87 33 3-11-96c2-10 5-17 8-20 16-9 24-18 24-27 0-7-6-14-17-20h2c-11-4-16-6-17-6-28-3-69-5-122-5H178c-38 0-70 4-97 13S41 34 41 50c0 14 11 29 34 44 23 16 51 29 86 38l386 106H64v21h533m-58 592 57-15c27-7 40-14 40-22 0-3-13-9-38-16l7 1V438c0-27 3-45 10-55 7-9 20-14 39-14h96c21 0 36 2 43 7s13 18 18 38l28 118 31-11-11-96c-1-5-2-10-2-15 0-9 4-17 11-22 14-9 21-19 21-28 0-20-29-30-86-29l-150 1c-45 0-74 7-89 21-15 15-22 43-22 85l-3 413M337 635l22 23c4 4 10 6 18 6 7 0 14-3 19-8h-1l29-27c9-9 14-16 14-21 0-6-9-9-28-9-7 0-14 1-22 2l-85-51c17-9 25-14 25-16 0-3-7-8-22-15h3l-11-5c2 0 3 0 2-1l3 1v-20l230 50 4-11-234-69v-84c0-29-3-49-9-61-6-11-20-21-43-29-18-7-30-10-36-10s-11 1-14 2c-3 2-5 4-6 5v8c0 17-2 26-5 27l-68 20 8 9 89-13c1-1 3-1 5-1 3 0 6 1 8 3 3 2 4 5 5 10s1 10 1 14c1 5 1 12 1 21v60L82 404c-3-21-11-32-23-32-11 0-20 7-28 20L6 433l233 49v48l-5 37 42-11 55 56H98v23h239m137 213 32-31c12-12 18-19 19-21 0-6-17-8-50-5h-10c-91-21-194-31-311-31-21-74-67-140-136-197L0 576c21 22 40 53 58 92 19 39 28 74 29 103l1 47 68-39c109 4 215 27 318 69m-85-88 12 17c42-25 71-44 87-58 17-13 25-29 25-47 0-21-9-32-26-32-14 0-24 9-31 28-15 39-37 69-67 92m-178-20 9 11c61-27 91-53 91-78 0-16-8-24-24-24-13 0-24 8-31 23-11 24-20 40-25 47-5 8-11 15-20 21m410-465c1 1 2 1 3 1-1 0-2 0-3-1m0 1h-1 1Z"/></symbol><symbol id="㐡_G" viewBox="0 0 1000 1000" data-size="21"><path transform="matrix(1 0 0 -1 17 962)" d="M400 868h411l37 37 56-47c6-10 4-15-8-15H674l-78-106h211l29 32 51-32c6-2 9-6 9-9 0-5-9-13-29-26V501c1-22-4-37-15-47-12-10-28-17-47-23-4 17-14 30-30 39-13 8-33 15-62 21l6 16c39-8 67-12 86-12 11 0 17 8 15 24v193h-72v-88l4-64c0-11-6-20-18-28-9-6-21-10-35-10l4 98v92h-76V579l4-51c1-7-5-16-16-25-10-10-23-14-37-14l4 86v137h-80V511l4-47c0-9-7-18-20-27-11-10-24-15-37-14l4 90v254l51-30h66l43 106H465c-12 0-26-3-41-10l-24 35m315-426c0-2 1-5 2-7 0-2-11-7-31-14-3-24-6-48-10-72h160l33 41 57-49c4-11 2-16-6-16H674c-4-18-9-35-14-51 43-16 80-31 110-45 29-13 52-27 70-41 15-14 23-29 23-44 0-17-8-26-21-29-12-2-24 4-35 19-11 14-28 32-51 54-24 22-59 45-104 71-18-41-45-74-80-100-36-25-85-48-148-71l-6 14c41 20 77 43 109 69 31 25 53 51 67 76 13 25 23 51 29 78H490c-13 0-36-2-66-8l-16 32h217c6 36 9 74 10 113l80-20M205 690l98 8 25 41c48-30 72-47 72-51 1-3 0-6-4-9-3-4-14-13-33-26V117c0-27 2-44 6-51 3-5 8-7 14-7h498c9 2 15 8 19 19 2 11 4 28 6 52v98h20c1-47 4-82 8-106 2-21 13-39 33-54-11-20-22-33-33-41-10-7-26-11-47-13H389c-24-1-42 4-55 15-12 10-19 32-20 65v579l-111-10c2-81-1-162-8-244-6-83-24-162-54-236C111 110 68 49 12 0L0 8c43 51 77 114 104 188 25 73 41 144 46 215 4 69 6 152 4 248l-78-8c-18-2-33-7-45-15L6 673l148 14v238c54-18 82-29 84-33s2-8-2-12c-4-3-14-8-31-16V690Z"/></symbol><symbol id="㐡_T" viewBox="0 0 1000 1000" data-size="21"><path transform="matrix(1 0 0 -1 33 954)" d="M631 358h151l49 49 58-52c6-5 9-9 9-12 0-9-5-13-14-13H626c-13-59-38-108-77-148-35-36-87-66-154-90l-4 17c58 30 103 64 134 103 27 33 45 72 54 118h-97c-37 0-68-2-94-5l-18 44c30-8 68-11 112-11h102c2 7 2 16 2 25 0 6 1 19 3 38 0 7 1 16 1 29l62-9c17-3 26-8 26-16 0-10-14-18-40-23-2-15-4-30-7-44M329 593V94c0-21 3-34 10-38 10-6 36-9 80-9h357c40 0 65 4 75 11 11 8 19 29 23 64l8 70 20-2-2-82-1-9c0-13 3-23 9-30 1-2 7-7 18-16 5-5 8-10 8-15 0-24-51-37-152-37H415c-55 0-90 4-104 10-20 9-29 27-29 56v541H181v-55c0-157-16-279-49-365C105 118 66 55 14 0L0 13c41 56 71 112 90 171 29 89 43 212 43 369v55h-27c-22 0-46-2-72-5l-19 42c41-6 71-9 91-9h27v194c0 38-1 64-4 78l54-12c28-6 42-13 42-22s-9-16-25-20l-19-6V636h92l34 37 41-27c13-8 19-16 19-23 0-9-13-19-38-30m234 136c13 28 24 56 33 84H468c-38 0-70-1-94-4l-19 43c32-7 70-11 113-11h312l48 49 59-52c5-5 8-9 8-12 0-9-4-13-13-13H651c-19-29-40-57-61-84h181l34 37 41-26c13-9 19-17 19-24 0-9-12-19-37-30V482c0-42-26-68-78-76-1 20-6 33-16 41-6 4-20 10-42 15v23c30-7 52-10 67-10s22 9 22 27v200h-75V577c0-3 0-17 2-41 1-9 1-17 1-24 0-15-9-23-27-23-15 0-22 6-22 17v196h-74V573c0-12 0-27 1-43 1-11 1-19 1-27 0-18-9-27-26-27-14 0-20 6-20 19v207h-86V454c0-15-9-22-25-22s-24 8-24 25c0 5 1 12 1 22 3 38 4 70 4 96v131c0 24-2 46-8 66l59-43h100m97-426c50-28 87-52 111-70 49-36 74-69 74-99 0-19-7-28-22-28-10 0-23 13-37 40-27 47-72 94-136 141l10 16Z"/></symbol><symbol id="㐢_K" viewBox="0 0 1000 1000" data-size="21"><path transform="matrix(1 0 0 -1 75 932)" d="m565 260 30 18h-3c11 8 20 12 27 12 6 0 9 0 10-1h-1l16-12 27-22c13-11 20-18 20-21 0-9-20-14-61-14-19 0-33 0-43 1L151 98C98 83 72 68 72 53c0-13 30-19 89-19h534c41 0 65 17 73 50l20 86 33 6-11-98c0-11 3-17 9-20h-1c16-9 24-18 24-27 0-7-6-14-17-21h2c-11-3-16-5-17-5-28-3-69-5-122-5H147c-38 0-70 4-97 13S10 34 10 50c0 15 11 29 33 44 23 15 52 28 87 38l385 107H48v21h517m213 396h-1l30-27c9-11 13-18 13-21 0-6-9-9-27-9-10 0-18 1-24 3l-138-52c17-8 26-13 26-16s-8-8-23-16h1l-10-5 6 1v-24h105l31 35c8 9 15 13 20 13 7 0 16-5 25-15l37-44-6-12H631v-64c0-29-3-50-9-61-5-11-19-21-42-29-17-7-30-10-37-10-9 0-15 1-17 4s-3 8-3 15c0 14-2 22-5 23l-67 19 7 12 89-15c1-1 3-1 5-1 11 0 16 16 16 48v59H307v23h261v40l-6 37 45-12 108 57H394v23h326c2 2 4 5 7 8l9 9 3 3c6 6 13 9 20 9 9 0 15-3 19-8M374 817l18-16-244-322c-3-4-6-12-10-23-3-11-5-21-5-29 0-15 4-36 12-61 6-16 9-27 9-34 0-26-13-39-39-39-9 0-16 3-23 9-7 7-10 15-10 25 0 4 1 15 3 34 3 19 4 29 4 32 0 43-28 70-83 82l1 19c24-6 42-9 53-9 16 0 34 12 55 36l259 296M0 720l14 17c22-15 39-26 50-35 12-9 24-20 36-34 13-13 19-25 19-36 0-23-9-34-28-34-14 0-24 7-30 22-12 31-21 51-27 60-5 9-17 23-34 40m146 113 11 14c74-40 111-75 111-106 0-17-8-26-25-26-15 0-26 7-31 20-14 33-24 54-31 63-6 10-18 22-35 35m491-314c-1-1-1-1-2-1l2 1m-45-241c-1-1-2-2-3-2l3 2m196 585 32-31c12-12 18-19 19-21 0-6-17-8-50-5h-10c-91-21-194-31-311-31-31-76-79-143-144-201l-18 13c19 19 39 49 62 88 23 40 34 77 33 111l1 47 68-39c109 4 215 27 318 69m-85-88 12 17c42-25 71-44 87-58 17-13 25-29 25-47 0-21-9-32-26-32-14 0-24 9-31 28-15 39-37 69-67 92m-178-20 9 11c61-27 91-53 91-78 0-16-8-24-24-24-13 0-24 8-31 23-11 24-20 40-25 47-5 8-11 15-20 21Z"/></symbol><symbol id="㐣_K" viewBox="0 0 1000 1000" data-size="21"><path transform="matrix(1 0 0 -1 47 957)" d="m738 731 23 29c7 8 15 12 23 12 7 0 16-4 27-12l37-37-9-15H510v-55h194c19 17 31 26 37 26 7 0 18-7 35-21 17-13 26-21 26-24s-9-10-27-20l7 1V504c0-4 0-8 1-11v-27c0-9-6-16-18-23-11-6-22-9-31-9s-14 2-16 6c-1 4-2 13-2 26H510v-62h260l18 28c8 10 16 15 24 15 7 0 14-3 21-8l49-46-6-11H510l1-24v-19c0-6-4-12-13-18s-21-9-38-9c-11 0-16 2-16 7l2 9h-1c1 5 1 23 1 54H106C97 250 71 123 27 0L0 16c32 125 48 283 48 472l-2 368 78-39h315v96l61-17c23-7 35-13 35-17 0-5-11-12-32-20 1 0 2 0 1-1s-1-1-2-1v-40h293l20 32c4 7 12 10 23 10 7-2 13-5 18-9l50-41-5-14H456l37-6c25-4 38-10 38-17 0-3-7-8-22-15h2l-2-2h1v-24h228m-5-402 30-25h-1c14-10 21-17 21-20 0-9-19-14-58-14l-32 1c-1 0-30-10-85-30-55-19-118-43-191-70s-127-49-163-65c-12-5-18-13-18-22 0-8 25-12 75-12h454c25 0 42 14 51 42l33 98 26-23-13-74c-1-7-2-12-2-16 0-11 4-19 11-25 11-7 16-13 16-18 0-4-4-8-12-13-7-5-14-8-20-8-2-1-26-1-72-1H266c-86 0-129 12-129 36 0 19 23 38 70 57 35 14 70 29 105 45l22 8c15 6 30 12 47 19s28 11 33 12h-1l22 8 187 68H177v22h491c13 14 22 22 26 25s9 5 14 5c9 0 18-3 25-10m-625 75h338v62H244c0-9 0-16-1-21-1-4-3-8-6-13s-9-8-16-11h1c-9-4-17-6-22-6-14 0-21 11-21 33v167l-2 73 66-35h203v55H113V556c0-40-2-91-5-152m5 391v-64h333v64H113m397-164v-64h206v64H510m-266 0v-64h202v64H244m266-86v-56h206v56H510m-266 0v-56h202v56H244Z"/></symbol><symbol id="㐤_G" viewBox="0 0 1000 1000" data-size="21"><path transform="matrix(1 0 0 -1 14 966)" d="M393 815h224l8 118 76-24c8-4 7-10-2-15l-25-8-8-71h150l32 36 50-43c2-2 2-4 2-6 0-8-4-12-11-12H664l-6-88h119l30 35 47-37c5-4 9-8 9-12 0-3-9-11-29-23V325h43l29 31c37-26 56-41 57-44 1-2 0-6-4-12H410c-14 0-28-3-43-8l-15 33h111v414l58-37h86l8 88H451c-13 0-28-3-43-8l-15 33m119-490h273v65H512v-65m0 90h273v72H512v-72m0 98h273v66H512v-66m0 91h273v73H512v-73m187-357 6 14c33-11 66-26 102-45 33-20 54-38 62-55 8-15 9-29 4-41-4-10-12-16-23-16-12 0-23 8-32 24-8 15-21 33-39 55-16 21-43 43-80 64m-142 31 58-39c4-6 3-10-2-11-6-3-14-4-25-4s-29-12-57-36c-27-22-73-51-136-86l-10 11c69 54 126 109 172 165M191 692l88 8 28 41c47-28 70-44 70-49 1-3-1-6-4-9-3-4-14-13-33-28V119c0-28 2-44 6-49s9-7 15-7h522c12 1 19 7 23 17 2 10 4 28 6 52v97h20c1-46 4-82 7-105 2-21 13-39 34-54-11-20-22-34-34-41-9-7-25-11-46-13H367c-23-1-41 4-54 15-15 10-22 32-22 65v579l-102-10c2-80 0-162-5-246s-20-162-45-234C113 115 72 53 16 0L6 8c42 55 74 118 96 190 19 70 31 141 35 213 4 70 5 154 4 250l-71-8c-18-2-33-7-45-15L0 675l141 13v239c54-18 82-30 84-33 2-4 1-8-2-12-4-3-15-8-32-16V692Z"/></symbol><symbol id="㐤_T" viewBox="0 0 1000 1000" data-size="21"><path transform="matrix(1 0 0 -1 30 957)" d="M604 819c8 36 14 67 20 95l40-10c29-7 44-14 44-22 0-9-11-15-34-19l-10-1-11-43h152l39 40 56-42c5-4 8-9 8-13 0-8-4-12-13-12H646l-20-81h137l30 35 35-25c14-9 21-17 21-24 0-5-11-14-32-26V325h6l39 39 51-39c9-6 13-12 13-16 0-7-5-11-16-11H459c-20 0-44-2-73-6l-19 42c42-6 72-9 92-9h2v351c0 14-2 36-5 67l51-32h71c8 32 14 59 19 81H481c-32-2-57-4-73-6l-19 42c38-6 69-9 92-9h123m-97-494h264v64H507v-64m0 91h264v69H507v-69m0 98h264v69H507v-69m0 97h264v71H507v-71m-170 30V116c0-21 4-34 10-38 10-6 37-9 81-9h355c41 0 66 4 76 13 11 8 19 34 23 76 5 40 8 68 10 83l19-3-4-108c-1-6 0-12 1-21 1-10 9-21 25-35 5-4 8-9 8-14 0-24-51-37-152-37H423c-55 0-89 4-104 10-19 9-28 27-28 56v567h-99V553c0-158-16-280-49-366C116 116 76 54 25 0L11 13c42 55 72 112 90 170 29 90 44 213 44 370v103H92c-23 0-47-2-73-6L0 692c41-5 72-8 92-8h53v146c0 37-2 63-4 78l53-12c28-6 42-14 42-22 0-9-8-16-25-20l-19-6V684h90l33 37 41-27c13-8 20-16 20-23 0-10-13-19-39-30m218-425c-26-24-48-41-64-52s-47-29-94-55l-9 17c68 46 117 95 148 146l37-18c18-7 27-15 27-21 0-5-2-9-6-10s-17-4-39-7m125 49c40-19 75-37 103-55 43-26 65-50 65-71 0-18-8-26-23-26-6 0-11 2-15 6-4 3-12 14-26 33-14 22-33 40-56 56-32 23-50 36-56 40l8 17Z"/></symbol><symbol id="㐥_K" viewBox="0 0 1000 1000" data-size="21"><path transform="matrix(1 0 0 -1 51 943)" d="M802 762h-1c3 5 8 8 15 8 9 0 18-3 25-8l32-25c8-7 12-11 13-13 0-5-12-11-36-19l7 1c0-43-1-77-2-102s-2-53-5-83c-2-30-6-53-11-70s-12-33-21-49c-8-15-19-26-32-33-13-6-29-9-47-9-13 0-20 3-20 10 0 19-5 30-16 34l-53 19 5 11 89-16c1-1 3-1 6-1 10 0 18 11 25 33 14 45 21 114 21 208 0 28 0 48-1 60l-59-2c-15-101-39-178-72-231-32-53-84-99-156-140l-14 12c49 31 87 69 114 113l-227-89c-7-21-16-32-28-34-13 0-22 5-27 15l-23 47 61 17-9-1v144H208v-96l74 86 51-42c3-3 5-7 7-11 0-3-3-5-10-6-6-1-11 0-15 1h-15l-98-72 6 1v-20l142 31 1-11-270-91c-3-24-11-36-26-36-11 0-20 7-27 21L7 370l137 27v172H20v22h124v98H78c-10-7-32-20-67-38L0 664c39 31 71 62 96 93 25 32 52 75 79 129l60-24c13-5 19-9 19-12 0-7-15-11-46-13h6l-10-11c35-13 62-24 79-32 17-7 34-18 49-31s23-26 23-40v68l-1 55 62-30h85c11 13 17 20 20 23s8 4 14 4c9 0 16-2 21-6h-1l30-21c11-7 16-12 16-15 0-4-4-8-13-12s-14-6-17-6c-1-1-1-1-2-1l5 1v-51l102 3c1 33 2 57 2 72 0 22-1 44-2 67l60-13c17-3 25-7 25-13 0-7-10-12-31-17l8 1v-43c0-23-1-40-2-52l49 1c9 13 14 21 17 24M648 336l26 17c9 6 17 9 25 9 9 0 17-2 22-6s15-13 28-28c12-13 18-20 18-22 0-6-11-10-32-11s-32 0-33 1c-9 0-22-3-39-8-75-25-158-51-248-78-71-22-116-36-134-42l-63-24c-22-7-51-19-87-35h1c-23-11-37-21-44-32-6-10-6-18 0-24 7-6 16-10 29-13h-1c20-5 57-8 111-8h437c99 0 151 15 158 44l35 148 27-26-21-130c0-12 5-19 16-22h-1c13-4 19-9 19-15 0-21-34-31-102-31H177C131 0 92 5 60 16 29 27 13 41 13 60c0 12 5 23 15 34 11 11 28 22 51 33s44 21 63 28 46 17 81 30h-1c71 27 185 64 343 113l29 9 20 7-507-6v22l541 6M298 725l30-25-7-11H208v-98h66c9 14 15 23 18 26 4 3 10 5 18 5 7 0 12-2 16-5 5-3 14-13 29-29v132c0-8-7-12-20-12-9 0-16 3-21 8-14 15-37 36-68 62h1c-4 1-7 3-8 4h1c-6 5-22 13-47 26-23-34-53-66-90-96h133c21 16 33 24 38 25 7 0 15-4 24-12m276-248 39 11 3-6c27 52 47 129 59 230l-101-2V477M421 671V566h88v105h-88m0 122V693h88v100h-88m97-328-9-1v79h-88V438l97 27M27 523l17 10c50-41 75-73 75-95 0-8-3-15-8-21s-10-9-17-9c-14 0-24 8-29 23-13 45-26 76-38 92m487 309c0 1 0 1 1 1l-1-1Z"/></symbol><symbol id="㐦_K" viewBox="0 0 1000 1000" data-size="21"><path transform="matrix(1 0 0 -1 47 956)" d="m150 824 1-54h101c7 11 12 18 15 20 3 3 8 4 15 4 6 0 13-3 20-9l29-26-7-11H151l2-64h103c8 10 13 16 16 18s8 3 14 3c5 0 13-4 26-11l26-21-7-12H153l3-64h183l11 103 56-17c16-5 24-10 24-15s-9-11-28-19l7 1-5-53h58l17 133h-63c0-12-2-20-6-23-3-3-13-4-30-5h1c-2-1-6-1-12-1-13 0-19 4-19 11l2 9h-1v6c1 1 1 2 1 5l15 178 55-17c20-5 30-9 30-13s-8-9-25-16h1l-8-4 6 1-3-46h77l12 19h2c6 6 13 9 22 9 7 0 14-3 19-8l31-30-7-12H421l-2-41h66c5 5 9 8 11 8l-1-1c1 0 1 0 2 1 5 3 9 4 14 4s14-5 28-16c14-10 21-17 21-21 0-2-9-6-26-11l9 1-16-120h213v64H572v23h168l1 64H571v22h170l1 64H563v22h180c7 9 11 15 14 17 3 3 8 4 15 4 9 0 15-2 20-7l25-23c8-7 12-12 12-15 0-5-11-11-32-16l9 2-4-221h7l24 28h-1c3 4 10 6 20 6 7 0 13-3 20-10l33-31-10-15H607c38-40 78-69 119-87 41-17 101-31 180-40l-3-10c-17-3-27-11-31-26h1c-1-9-7-13-19-13-7 0-12 1-16 3h2c-2 0-4 0-5 1-67 22-118 43-151 64s-72 57-119 108H341c-76-79-186-140-330-183l-6 13c109 40 196 97 259 170H0v22h91L81 855l50-13c65 17 123 40 174 70l42-36c9-7 13-13 14-16 0-5-7-7-22-7-11 0-23 2-34 5-53-15-105-27-155-34m523-611 31 17h-2l6 3h-1c7 6 14 9 21 9 9 0 14-1 14-2l-4 1 42-33h-1c14-11 21-18 21-23 0-9-20-14-59-14-20 0-35 0-44 1L190 84c-51-9-77-19-77-31-1-13 30-19 91-19h534c23 0 39 4 50 11s19 20 23 39l20 87 35 3-13-96c0-9 3-16 9-19 15-9 23-19 23-28 0-7-5-13-16-20h2c-11-3-17-5-18-5-29-4-70-6-122-6H189C97 0 51 16 51 49c0 15 11 28 34 41s52 23 86 28l450 72H119v23h554m-92 331 34-30c7-7 12-15 15-23l-2 1 4-4c0-6-8-9-24-9-7 0-18 2-32 6-55-10-93-16-114-18v-59h105l25 32c6 7 13 11 22 11 5 0 13-5 24-14l34-37-5-14H462v-45h182l19 30c3 7 9 11 17 11 7 0 14-3 20-9 0-1 0-1-1 0l4-4h-1l38-36-6-14H462l1-28c0-20-11-36-32-47s-40-17-56-17c-11 0-18 2-21 6-2 5-3 15-3 31l-74 26 7 12 93-19c14 0 21 12 21 36H142v22h256v45H195v22h203v53h-5c-55-6-106-9-153-9l-1 23c11-2 19-3 24-3 119 0 225 24 318 72m-53 214 1-2-2 2h1m173-529c-1 0-1 0 0 1 1 0 1 0 0-1m-70 262h-1 1Z"/></symbol><symbol id="㐧_J" viewBox="0 0 1000 1000" data-size="21"><path transform="matrix(1 0 0 -1 48 950)" d="m457 899 77-9c14-2 21-8 21-18 0-7-6-13-17-18l-14-6V574h251l34 43 81-71c9-7 13-14 13-19 0-10-8-15-25-15h-38L700 371l-16 12 86 164H524V86c0-25-12-46-36-64-20-15-44-22-71-22-7 0-12 2-13 6-1 1-1 7-1 18 0 10-3 17-8 21-5 5-15 8-29 11l-65 14v16h156v412c-69-91-141-171-216-239C171 194 94 137 9 87l-9 15c168 127 303 275 405 445H12L0 574h457v325m-332-94 12 16c110-57 165-112 165-165 0-9-3-18-8-25-7-10-17-15-30-15-11 0-19 3-24 10-3 4-8 12-13 25-26 63-60 114-102 154Z"/></symbol><symbol id="㐨_G" viewBox="0 0 1000 1000" data-size="21"><path transform="matrix(1 0 0 -1 27 958)" d="M373 917c46-38 70-59 72-63 0-3-2-6-6-7-4-2-11-4-19-6-9-3-19-8-31-16-12-7-58-55-137-144 19-21 29-37 29-51 0-12-2-22-8-29-5-8-14-12-25-12-12-1-20 10-25 31-7 19-18 39-34 61-16 19-40 41-72 64l8 12c22-10 42-20 61-29 16-8 33-20 50-36l108 161H104c-10 0-22-3-36-8l-31 35h303l33 37M0 558h377l31 33c43-35 65-55 65-59 0-2-1-4-2-6-2-2-9-4-20-5-10-2-21-9-35-20-12-10-35-36-68-78l-14 8 47 99H250V107c1-37-7-63-21-80-16-15-36-24-61-27-2 21-12 37-29 47S92 67 49 78l4 18c73-19 117-25 131-20 11 5 17 19 15 44v410H70c-15 0-32-2-50-6L0 558m834 359c46-38 70-59 72-63 0-3-2-6-6-7-4-2-11-4-19-6-9-3-19-8-31-16-12-7-58-55-137-144 19-21 29-37 29-51 0-12-2-22-8-29-5-8-14-12-25-12-12-1-20 10-25 31-7 19-18 39-34 61-16 19-40 41-72 64l8 12c22-10 42-20 60-29 17-8 34-20 51-36l108 161H553c-10 0-22-3-35-8l-32 35h315l33 37M473 558h377l31 33c43-35 64-55 64-59 0-2 0-4-2-6s-8-4-19-5c-10-2-22-9-35-20-13-10-35-36-69-78l-13 8 47 99H711V107c1-37-7-63-22-80-15-15-35-24-60-27-2 21-12 37-29 47s-47 20-90 31l4 18c73-19 117-25 131-20 11 5 16 19 15 44v410H543c-15 0-32-2-51-6l-19 34Z"/></symbol><symbol id="㐨_T" viewBox="0 0 1000 1000" data-size="21"><path transform="matrix(1 0 0 -1 35 943)" d="M704 546h137l32 38 38-34c13-11 20-19 20-26s-15-14-45-22c-31-37-64-73-99-108l-15 10c25 38 48 76 69 115H682V84c0-47-26-75-77-84-1 22-8 37-21 46-11 7-37 14-78 21l4 22c54-8 87-13 98-13 18 0 28 10 28 28v415h-94c-22 0-46-2-73-6l-19 42c39-6 69-9 92-9h125c-4 6-8 14-12 23-11 27-28 53-51 79-2 2-27 27-77 76l12 11c40-25 74-47 102-68 49 49 97 101 144 158H566c-22 0-46-2-73-6l-19 42c41-6 72-8 92-8h223l37 33 37-33c14-13 21-22 21-29 0-8-17-15-51-21-13-12-23-21-30-27-32-28-57-50-76-66-22-18-46-38-70-58 35-38 53-65 53-81 0-7-2-15-6-25m-458 0h103l31 38 39-34c13-10 19-19 19-26s-15-14-44-22c-29-40-59-80-91-119l-14 10c22 42 42 84 60 126H232V84c0-47-25-75-77-84 0 22-7 37-21 46-10 7-37 14-78 21l4 22c54-8 87-13 98-13 19 0 28 10 28 28v415H92c-22 0-46-2-73-6L0 555c39-6 70-9 92-9h123c-3 5-6 10-8 16-10 26-27 54-52 84-6 8-29 32-71 74l12 11c39-26 70-48 93-66 45 44 93 97 144 160H116c-22 0-46-2-73-6l-19 42c41-6 72-8 92-8h221l38 33 37-33c14-13 21-23 21-29 0-4-3-8-8-11-3-1-17-5-43-10-13-11-38-33-77-68-14-13-47-41-98-84 7-8 12-13 16-17 22-24 34-45 34-63 0-8-4-17-11-25Z"/></symbol><symbol id="㐩_G" viewBox="0 0 1000 1000" data-size="21"><path transform="matrix(1 0 0 -1 23 974)" d="M12 720h121v224l72-29c10-4 13-8 10-12 0-2-11-9-33-21V720h129v218l78-35c2-4 3-6 4-6 0-3-2-6-6-9l-28-12V720h26l31 35 51-45c2-2 3-4 4-6 0-6-4-10-12-10H359V448h36l31 33 51-39c2-2 3-4 3-7 0-8-3-12-11-12H359V134l4-73c1-12-4-22-15-30-10-8-24-13-41-13l4 122v283H182c-2-104-15-187-37-248C123 116 81 59 20 4L10 14c48 60 80 118 95 174 16 55 25 133 28 235H72c-20 0-39-3-56-8L0 448h133v246H72c-13 0-28-2-45-7l-15 33m299-272v246H182V448h129m142 237h121v263l72-29c10-4 14-8 10-12 1-2-10-10-33-21V685h141v257l78-35c2-4 3-6 4-6 0-3-2-6-6-9l-27-12V685h25l31 35 51-45c2-2 3-4 4-6 0-7-4-10-12-10h-99V405h54l31 41 51-47c2-2 3-4 4-7 0-8-4-12-12-12H813V123l3-74c1-12-4-22-15-29-10-9-24-13-41-14l4 122v252H623c2-72-10-141-37-205-27-63-78-122-152-175l-8 12c54 58 93 115 115 173s33 123 33 195h-60c-21 0-39-3-57-8l-16 33h133v254h-60c-13 0-28-2-45-8l-16 34m311-280v254H623V405h141Z"/></symbol><symbol id="㐩_T" viewBox="0 0 1000 1000" data-size="21"><path transform="matrix(1 0 0 -1 41 955)" d="M155 675h100v163c0 23-1 46-4 67l53-12c28-6 42-13 42-21 0-10-8-17-24-21l-19-6V675h11l42 48 60-50c5-5 8-9 8-13 0-9-5-13-13-13H304V396h12l48 50 59-52c6-5 9-9 9-13 0-8-5-12-14-12H304V140c0-2 2-32 6-91 1-16 1-25 1-26 0-14-9-21-28-21-18 0-28 7-28 21v346H155c-1-71-9-133-24-188C114 118 79 58 26 0L11 13c6 11 11 20 14 26 29 51 49 95 59 134 11 36 18 89 22 161 1 8 1 20 1 35H91c-21 0-45-2-72-6L0 405c41-6 71-9 91-9h16v251c-28-1-51-3-69-5l-19 42c29-5 58-8 88-9v168c-2 40-3 62-4 67l52-12c29-6 43-13 43-22 0-8-8-15-24-20l-19-5V675m0-28V396h100v251H155m453 26h117v158c0 24-2 46-5 66l54-11c28-6 41-14 41-22 0-9-8-16-23-21l-20-6V673h21l42 48 60-51c5-4 8-9 8-12 0-9-5-13-14-13H772V398h30l49 50 58-52c6-5 8-9 8-13 0-8-4-12-13-12H772V144c0-4 3-35 7-93 1-13 1-22 1-25 0-14-9-22-28-22-18 0-27 7-27 21v346H608c0-75-8-139-24-192-19-65-53-125-101-179l-15 13c6 12 19 36 39 72 33 61 51 156 54 286h-24c-20 0-44-2-72-6l-20 42c41-6 72-9 92-9h24v247h-11c-22 0-46-2-72-5l-20 42c41-6 71-9 92-9h11v163c-3 40-4 62-5 67l52-12c29-6 43-14 43-22 0-9-8-16-24-20l-19-6V673m0-28V398h117v247H608Z"/></symbol><symbol id="㐪_J" viewBox="0 0 1000 1000" data-size="21"><path transform="matrix(1 0 0 -1 50 954)" d="m432 727 53-9c15-3 23-8 23-17 0-6-7-12-20-17l-16-5V446c0-21-1-46-4-75h282v278l88-14c9-1 14-6 14-13 0-8-6-13-18-16l-21-4V289l-63-8v63H471c21-49 45-88 72-117 75-79 193-132 356-157V55c-36-9-59-26-70-51-61 22-105 40-134 55-79 41-141 89-184 144-19 23-38 58-59 104-25-64-57-115-97-153-49-45-112-82-191-109C113 27 61 12 8 0L2 17c103 30 180 61 231 94 82 53 137 130 165 233H149v-66l-63-8v379l85-12c9-1 13-5 13-12s-4-11-13-13l-22-6V371h254c3 25 5 50 5 75v281H12L0 754h408v153l87-13c11-2 16-7 16-14s-5-12-16-15l-23-7V754h286l51 63 90-71v-19H432Z"/></symbol><symbol id="㐫_G" viewBox="0 0 1000 1000" data-size="21"><path transform="matrix(1 0 0 -1 36 961)" d="m111 562 82-34c2-2 4-6 4-9 0-2-11-9-35-20V104h586v442l80-31c4-1 5-4 4-10 1-3-10-9-33-20V144l4-105c-1-7-7-16-20-25-12-7-23-12-35-14v76H174l-35-39-65 51c25 14 37 28 37 40v434m702 169 46 51 65-56c2-3 3-6 4-10 0-8-5-12-14-12H82c-12 0-33-3-64-8L0 731h813M334 907l8 16c45-20 79-39 103-59 22-19 34-37 35-52 2-17-1-29-9-38-8-8-19-11-32-9-11 2-19 11-23 29-3 18-10 36-21 55-12 17-32 37-61 58m139-457c52 72 95 141 129 205 48-28 74-44 76-49 0-3-1-6-2-7-2-2-9-4-20-6-11-1-25-11-41-31-15-20-49-67-103-141 57-55 97-96 119-125 21-28 34-51 39-68 4-17 3-30-2-40-6-10-16-14-29-13-14 0-24 9-32 27-5 17-18 42-37 74-19 33-49 69-88 110-78-87-168-164-269-233l-10 10c92 85 174 169 246 254-49 47-119 107-209 182l12 11c98-63 171-116 221-160Z"/></symbol><symbol id="㐫_T" viewBox="0 0 1000 1000" data-size="21"><path transform="matrix(1 0 0 -1 44 942)" d="M458 386c45 71 78 148 100 232l53-15c22-6 34-14 34-22 0-9-7-15-21-17l-23-3c-30-79-65-147-105-206 5-4 11-9 17-14 7-5 19-15 36-29 99-80 148-135 148-166 0-18-9-27-26-27-7 0-13 2-18 7-4 3-11 13-23 30-34 48-87 104-159 168-57-69-147-138-271-207l-12 17c71 49 123 89 157 120 31 29 61 62 92 101-16 14-37 32-61 55-56 50-107 94-153 131l13 15c75-53 149-110 222-170M88 612l57-10c28-5 42-12 42-22s-8-16-24-21l-22-6V70h628v464c0 39-2 65-4 78l57-10c28-5 42-12 42-22 0-9-8-16-24-21l-22-7V148c0-5 1-25 3-61l2-27V50c1-1 1-6 1-13 1-5 1-8 1-11 0-17-11-26-32-26-16 0-24 8-24 24v18H139c-14-4-24-5-30-5-16 0-24 6-23 20l1 18c1 16 2 31 3 44 1 15 1 33 1 51v364c0 38-1 64-3 78m278 272c25-14 53-35 86-62 34-29 50-54 50-78 0-13-5-24-17-33h315l45 51 59-52c5-5 8-9 8-12 0-9-4-14-13-14H112c-34 0-65-1-93-4L0 722c31-7 69-11 112-11h347c-9 24-19 46-30 67-10 18-27 41-53 69-11 13-19 21-23 25l13 12Z"/></symbol><symbol id="㐬_G" viewBox="0 0 1000 1000" data-size="21"><path transform="matrix(1 0 0 -1 37 976)" d="m807 806 43 45 72-53c2-1 3-3 4-8 0-8-5-12-14-12H82c-12 0-33-2-64-7L0 806h807M379 938l8 14c45-18 76-33 93-45 18-12 30-25 36-39 4-12 3-23-2-35-6-10-16-15-30-14-14 2-23 10-27 26-5 15-12 30-21 45-11 14-30 30-57 48m98-210c3-3 5-6 3-8-1-5-5-7-11-8-20 0-51-14-92-41-42-27-98-63-168-109l490 23c-31 33-78 70-140 111l9 12c62-28 114-55 155-80 41-24 68-46 82-66 13-20 17-38 13-53-4-16-12-24-25-24-14 0-24 6-31 18-8 12-22 32-43 62-239-20-385-35-440-44-54-10-91-22-111-36l-39 84c31 4 55 10 70 18 49 35 92 70 129 103 37 34 63 60 80 79l69-41m-51-249 82-29c2-3 3-6 4-10 0-2-12-8-35-19V185l3-119c-1-9-9-18-23-27-14-7-25-10-35-10l4 152v298m-197-7 76-32c8-3 11-7 8-11 1-4-10-10-34-18v-94c-4-76-24-138-60-187C183 82 114 39 12 0L6 12c82 44 139 87 170 128s49 101 53 177v155m396 0 84-30c2-4 3-6 4-7-1-2-2-4-4-6l-35-18V126c0-22 3-34 10-36s16-3 27-4h105c23 4 38 12 43 23 4 9 6 23 6 40v100h20c2-50 6-85 11-103 6-20 16-31 30-33-9-23-20-41-33-52-14-12-36-19-67-22H705c-17 0-33 2-47 6-12 4-21 12-27 25-4 13-6 34-6 64v338Z"/></symbol><symbol id="㐬_T" viewBox="0 0 1000 1000" data-size="21"><path transform="matrix(1 0 0 -1 33 961)" d="m711 535-24-3c-55-7-132-15-231-24-38-3-102-10-192-20-36-4-63-8-82-11l-1-17c-2-12-6-18-13-18-6 0-13 6-18 18l-29 64c78 45 152 124 225 237H137c-38 0-69-2-94-4l-19 43c35-9 73-13 117-13h324c-5 4-8 9-9 15-9 36-35 71-79 104l10 17c9-5 15-9 20-11 27-15 48-27 61-36 26-19 39-38 39-59 0-9-6-19-17-30h305l52 55 57-50c9-7 13-14 13-21s-4-10-12-10H415c-65-91-147-170-246-237l63 3 81 5c155 8 280 16 375 25-37 33-80 65-130 94l9 17c9-4 16-7 20-9 73-34 128-64 163-90 36-26 53-51 53-73 0-21-9-31-26-31-7 0-12 2-17 6-4 4-12 15-26 33-13 18-21 28-23 31m-46-98 53-12c28-6 42-13 42-22s-8-16-24-20l-20-6V115c0-20 4-32 13-38 10-6 28-10 55-10 38 0 69 4 92 10 9 3 16 4 21 4 10 0 19-5 28-14 6-7 10-14 10-21 0-9-11-15-33-19-28-4-66-6-113-6s-79 5-96 15c-16 9-24 28-24 56v267c0 37-1 63-4 78m-234 3 53-12c28-6 42-13 42-22s-8-16-25-20l-20-6V155c0-27 2-56 5-89 1-13 2-24 2-30 0-20-10-30-31-30-15 0-22 8-22 25v331c0 37-2 63-4 78m-232 4 53-11c28-7 42-14 42-22 0-10-8-17-24-21l-20-5v-28c0-93-13-165-37-213C181 79 112 31 6 0L0 18c74 31 125 67 153 109 33 47 49 115 49 205v59c0 25-1 43-3 53Z"/></symbol><symbol id="㐬_J" viewBox="0 0 1000 1000" data-size="21"><path transform="matrix(1 0 0 -1 50 950)" d="m414 899 84-12c9-1 14-5 14-12s-5-11-14-14l-17-5v-94h269l51 66 98-74v-19H429c-35-64-88-133-160-208 38 1 108 5 211 11 99 5 171 10 216 13-43 45-91 84-145 117l8 16c89-31 156-66 203-104 48-39 72-76 72-113 0-25-9-38-27-38-9 0-18 5-27 14-4 5-13 17-28 38-11 16-23 31-34 45-247-33-439-56-577-69l-7-14c-5-9-9-13-14-13s-10 4-13 13l-32 73c16 1 28 1 36 2 47 2 88 4 121 7 47 71 84 141 111 210H12L0 762h414v137M207 422l84-15c9-1 14-5 14-12 0-6-4-11-13-14l-18-6v-44c0-73-12-131-35-174C202 86 125 34 8 0L0 20c64 27 113 61 148 104 25 31 42 64 50 100 6 24 9 53 9 87v111m207 0 83-12c10-1 15-5 15-12 0-6-5-11-14-14l-17-5V35l-67-12v399m204 8 75-9c12-2 18-7 18-15 0-7-5-13-16-18l-11-5V102c0-11 1-18 4-21 5-5 12-7 23-7h71c12 0 21 3 27 8 5 5 9 13 12 24l35 128h12V102c0-13 10-25 31-36-7-21-19-35-37-42-14-5-36-8-65-8h-94c-30 0-53 7-68 21-11 11-17 28-17 53v340Z"/></symbol><symbol id="㐭_G" viewBox="0 0 1000 1000" data-size="21"><path transform="matrix(1 0 0 -1 36 971)" d="m113 665 65-43h549l37 41 62-47c4-4 6-6 6-8 0-4-12-15-35-35V140l4-76c2-9-2-19-12-29-10-9-25-15-47-19v74H168V43c0-9-5-18-14-27-8-10-23-15-45-16l4 124v541m55-549h574v481H168V116m121 403 59-36h213l29 32 58-39c4-4 6-7 6-8 0-5-11-15-33-31V313l4-84c-1-8-8-16-21-25-12-6-24-10-36-12v57H342v-33c-1-8-8-16-22-24-13-6-25-9-35-9l4 101v235m53-245h226v184H342V274m471 500 41 47 70-52c2-3 3-6 4-10 0-8-5-12-14-12H82c-12 0-33-3-64-8L0 774h813M354 931l7 11c45-16 80-34 104-54 23-19 35-36 37-51 0-16-4-27-12-35-8-9-18-12-31-10-12 2-20 12-23 29-3 18-10 35-22 53-12 16-32 35-60 57Z"/></symbol><symbol id="㐭_T" viewBox="0 0 1000 1000" data-size="21"><path transform="matrix(1 0 0 -1 45 962)" d="M453 786c-7 6-12 13-14 23-8 35-29 69-61 104l10 12c67-44 101-82 101-112 0-12-5-21-15-27h308l53 55 64-55c7-7 11-12 11-16 0-8-4-12-13-12H112c-38 0-69-1-93-4L0 797c31-8 69-11 112-11h341M336 233v-19c0-9-7-14-21-14-20 0-30 8-30 25l5 79v124c0 2-2 29-5 82l55-41h224l33 38 41-26c13-9 19-17 19-24 0-6-2-10-6-13 0-1-11-7-31-19V274l25-16c7-4 11-10 11-16s-3-9-9-9H336m0 27h238v181H336V260M768 61H153V26c0-17-10-26-28-26S98 7 98 22c0 6 1 14 2 24 4 32 6 66 6 103v427c1 11 1 19 1 24 0 10-2 32-6 69l60-43h599l33 37 41-26c13-9 20-17 20-24 0-9-13-19-39-30V166c0-33 2-68 6-107 1-10 2-18 2-24 0-15-9-23-28-23-18 0-27 8-27 23v26m0 31v506H153V92h615Z"/></symbol><symbol id="㐭_J" viewBox="0 0 1000 1000" data-size="21"><path transform="matrix(1 0 0 -1 46 952)" d="m817 840 90-70v-20H12L0 778h418v125l77-11c11-1 17-6 17-13s-6-12-17-15l-14-4v-82h289l47 62M282 520l75-39h190l24 43 67-48c7-5 11-10 11-14 0-5-5-10-15-13l-20-7V195l-63-11v54H344v-54l-62-16v352m62-254h207v187H344V266M94 672l73-35h579l24 31 70-38c8-5 12-9 12-13 0-5-4-8-12-11l-27-9V20L751 8v58H157V16L94 0v672m63-578h594v515H157V94Z"/></symbol><symbol id="㐮_G" viewBox="0 0 1000 1000" data-size="21"><path transform="matrix(1 0 0 -1 34 982)" d="M652 677c5-3 7-6 6-10 0-2-2-4-6-6l-27-8v-43h150l30 34 58-43c2-2 4-3 4-2 3-9 2-13-4-14H625v-94h133l31 35 59-47c1 0 2-2 4-7 2-4-1-6-8-6H625v-90h205l33 39 65-49c2 0 3-3 4-8-1-4-4-7-10-7H475c21-39 60-85 117-139 69 41 120 75 154 103 31-31 47-48 49-52 2-2 2-4 0-6-2-3-8-3-18-2-7 1-17-1-29-4-12-4-57-22-137-55 34-27 71-49 112-64 39-14 73-24 103-28 29-4 59-6 88-8V76c-23 1-44-2-62-8-18-4-32-15-41-33-60 18-112 42-157 72-43 29-82 63-115 101-32 37-64 86-98 146-44-41-98-82-162-123V84l221 75 8-17c-101-41-167-71-197-91-31-20-52-37-63-51l-53 59 35 19v124c-74-42-147-72-218-93l-6 16c92 42 164 81 217 118 52 35 99 70 142 108H80c-17 0-34-3-51-10l-17 35h295v90H156c-13 0-28-3-45-8l-17 33h213v94H119c-14 0-33-3-56-8l-18 33h262v96l84-23c4-2 5-5 4-10 0 1-2-1-6-4l-32-14v-45h217v92l78-25M357 376h217v90H357v-90m0 115h217v94H357v-94m467 348 35 41 57-47c8-5 11-9 10-14 0-4-5-6-14-6H82c-12 0-34-2-66-7L0 839h824M361 950l6 14c37-6 67-14 88-24 21-7 36-17 45-29 8-10 10-21 6-35-4-12-14-18-29-20-14 0-24 6-30 18-4 12-11 25-23 39-11 12-32 25-63 37M14 659c113 37 222 84 328 139l51-47c5-5 5-10-2-16-26 2-44 2-55-2-10-4-37-12-80-25-43-14-122-35-236-64l-6 15m517 110 2 17c112-8 193-19 242-31s80-26 94-41c14-14 19-27 16-41-4-13-12-19-24-20-11 0-24 5-39 16s-41 25-78 43c-37 17-108 36-213 57Z"/></symbol><symbol id="㐮_T" viewBox="0 0 1000 1000" data-size="21"><path transform="matrix(1 0 0 -1 47 968)" d="M380 307c-28-29-59-55-93-78V84c71 13 148 31 229 55l4-16c-44-25-119-54-226-90l-2-15c-2-12-6-18-12-18-7 0-14 7-20 20l-26 54h7v128c-48-25-117-51-205-79l-7 19c82 31 144 61 186 90 34 23 64 48 92 75H147c-37 0-68-2-93-4l-18 43c30-8 67-12 111-12h135v99h-22c-37 0-67-2-92-4l-21 43c32-8 69-12 113-12h22v81h-48c-38 0-69-1-93-4l-19 43c32-7 69-11 112-11h48v39c0 29-1 51-4 67l53-12c28-6 42-14 42-23s-8-16-24-21l-18-6v-44h227v46c0 30-2 52-5 65l53-12c28-6 42-13 42-22 0-7-8-14-24-20l-18-7v-50h94l48 50 59-53c5-4 8-9 8-12 0-9-4-13-13-13H606v-81h77l48 48 59-51c6-5 8-9 8-13 0-7-7-11-21-11H606v-99h146l48 49 59-51c5-5 8-9 8-13 0-8-4-12-13-12H380m-49 27h227v99H331v-99m227 207H331v-81h227v81m39-348c47 22 97 54 149 97l43-38c13-12 19-20 19-25 0-9-4-13-13-13-3 0-9 1-17 3l-20 4c-62-23-105-37-132-43-2 0-6-1-9-2 73-53 161-84 266-93V67c-20-3-33-6-39-8-12-4-20-14-27-31-77 24-140 55-190 92-32 23-59 52-83 85-13 19-28 44-46 76l17 9c6-8 20-26 41-53 11-15 25-29 41-44M292 775l40-30c10-8 16-15 16-21 0-8-6-12-18-12h-6l-25 4c-7-4-23-13-45-27-76-44-159-77-249-98l-5 18c69 23 132 53 188 90 35 24 63 49 85 76H122c-39 0-71-1-94-4L9 814c31-7 69-11 113-11h357c-7 5-11 13-14 22-5 23-12 41-20 54-6 10-17 24-35 43l10 13c63-41 95-75 95-104 0-12-6-21-16-28h279l54 55 63-55c8-6 11-12 11-16 0-8-4-12-13-12H292m266-29 5 19c118-26 202-50 252-72 52-22 78-46 78-72 0-18-8-26-23-26-10 0-27 10-50 30-24 20-61 42-109 65-28 13-79 32-153 56Z"/></symbol><symbol id="㐮_J" viewBox="0 0 1000 1000" data-size="21"><path transform="matrix(1 0 0 -1 44 958)" d="m423 915 77-11c11-1 17-6 17-13s-6-12-18-15l-17-4v-75h293l47 55 82-62v-20H17L5 797h418v118M302 754l63-43c6-4 9-8 9-12 0-7-5-11-16-11h-32c-49-29-93-51-132-67s-87-33-146-50l-6 12c113 51 199 108 260 171m245-24 5 17c111-19 194-40 250-63 49-20 73-42 73-65 0-22-10-33-31-33-11 0-25 6-42 19-74 54-159 96-255 125m185-124 74-55v-19H599v-86h110l43 47 74-55v-19H599v-83h176l47 51 82-58v-20H486c25-31 48-54 67-70 21-18 46-36 76-55 38 31 76 66 115 105l60-41c7-5 10-10 10-13 0-5-5-8-16-8h-39l-21-11c-28-15-56-30-85-45 45-23 90-42 135-57 28-9 69-21 124-36l-1-19c-33-5-55-18-66-39-114 46-198 91-251 135-49 41-93 93-133 154h-22c-32-22-75-48-129-77V103l250 34 4-19-371-90-3-16c-1-8-5-12-11-12-5 0-9 3-12 9l-41 69 125 17v107c-75-36-157-67-246-92l-5 16c80 31 143 59 188 83 56 29 108 63 157 100H17L5 336h289v83H91l-11 27h214v86H115l-12 27h191v90l72-11c9-1 14-5 14-12 0-5-4-9-13-12l-14-4v-51h188v90l68-9c9-1 14-5 14-11 0-5-4-8-11-11l-13-4v-55h90l43 47M353 336h188v83H353v-83m0 110h188v86H353v-86Z"/></symbol><symbol id="㐯_G" viewBox="0 0 1000 1000" data-size="21"><path transform="matrix(1 0 0 -1 29 985)" d="M193 534h532v63H193v-63m0 279 53-31h422l25 30 51-28c8-4 12-8 12-13 0-2-11-10-31-24v-31l4-43c0-9-5-16-14-22-10-5-22-8-37-7v27H240v-6c0-8-6-14-17-19-13-4-24-6-34-6l4 58v115m47-119h438v65H240v-65m-94-47 47-27h522l29 31 45-29c8-4 12-8 12-14 0-2-10-9-30-23v-35l4-37c1-9-4-16-15-22-10-6-22-8-35-8v28H193v-12c0-8-5-16-17-21-13-7-24-10-33-10l3 72v107m668 211 40 41 62-46c2-2 3-5 4-8 2-5 0-7-6-8H76c-13 0-31-3-53-8L0 858h814M363 958l6 12c41-10 69-20 84-30 15-8 26-17 31-27 6-10 6-20 0-31s-15-15-27-14c-12 0-21 7-27 22-5 13-10 24-16 33-6 8-23 19-51 35M199 235l51-9h418l27 21 47-29c4-5 6-8 6-10 0-4-6-10-19-20V76l3-41c0-4-5-9-13-15-7-6-20-10-39-12v31H248v-8c1-8-5-15-16-21-10-4-22-7-37-10l4 68v167m49-174h432v58H248V61m0 81h432v60H248v-60m481 310c1-4 1-8-2-10-4-1-15 1-34 6-80-4-147-8-201-11v-57h328l37 37 53-43c6-4 8-8 6-12-1-5-8-7-21-6H541c35-17 70-33 107-46 36-12 78-23 127-32 49-8 104-13 166-13v-20c-19 1-35 0-48-4s-24-15-34-31c-41 7-78 16-113 25-33 10-74 26-123 47-47 22-84 46-111 74h-20v-48l4-34c0-7-6-15-19-23-12-8-25-13-38-14l4 73v46h-9c-58-43-118-76-180-99-63-24-143-46-240-67l-4 16c89 27 157 51 203 70 47 18 98 45 152 80H90c-13 0-31-2-55-5l-19 29h427v55c-114-2-202-3-265-2v19c97 3 199 10 304 20 104 9 172 18 206 27l41-47Z"/></symbol><symbol id="㐯_J" viewBox="0 0 1000 1000" data-size="21"><path transform="matrix(1 0 0 -1 39 954)" d="m425 907 81-11c11-1 17-6 17-13s-6-12-17-15l-14-4v-47h293l43 51 82-59v-19H23l-12 27h414v90M257 770l63-31h276l25 31 55-38c7-5 11-10 11-13 0-5-4-8-12-10l-19-6v-89l-55-8v24H312v-20l-55-12v172m55-113h289v55H312v-55m-168-51 66-31h496l20 27 65-36c7-4 10-8 10-11 0-5-4-8-12-10l-20-6v-90l-58-11v27h-62l56-43c7-5 10-9 10-12 0-5-3-7-10-7h-6l-51 7c-54-10-107-18-160-24v-50h281l47 51 86-59v-19H528c121-56 252-95 394-117v-16c-25-5-44-19-59-43-59 19-106 36-143 53l-9-6V20L648 8v28H265V12L203 0v184c-72-29-137-51-196-67l-7 16c141 47 261 106 358 176H31l-12 27h410v44c-87-8-184-12-293-13v16c161 5 326 33 495 82H203v-27l-59-4v172M265 63h383v50H265V63m0 77h383v48H265v-48m9 75h374l2 2c-61 28-115 58-162 90v-65l-59-11v69c-57-37-109-66-155-85m-71 277h508v56H203v-56Z"/></symbol><symbol id="㐰_G" viewBox="0 0 1000 1000" data-size="21"><path transform="matrix(1 0 0 -1 57 971)" d="m408 793 59-39h316l33 39 59-37c8-4 12-9 12-14-1-2-12-12-33-29V207l3-107c1-8-4-15-15-21-12-6-26-10-41-12v97H461V71c-1-18-8-31-22-37-13-7-25-9-35-8l4 140v627m53-598h340v527H461V195M355 904c8-5 8-10-1-16-18-1-32-12-41-33-36-72-72-142-108-211l47-19c10-6 10-12 0-18l-20-10V134l4-90c1-11-6-22-21-32-16-8-28-12-37-11l4 128v474C127 507 70 431 12 375l-12 7c61 88 119 191 176 309 54 117 88 201 101 252l78-39Z"/></symbol><symbol id="㐰_T" viewBox="0 0 1000 1000" data-size="21"><path transform="matrix(1 0 0 -1 49 963)" d="m361 822 63-43h377l33 37 41-26c14-9 20-17 20-24 0-9-13-19-38-30V162l35-25c6-5 9-10 9-15 0-8-4-12-12-12H416V91c0-14-9-21-27-21-19 0-28 8-28 23 0 6 0 14 1 24 5 39 7 73 7 103v536c-1 26-3 48-8 66m55-685h393v615H416V137M206 927l72-28c12-5 18-11 18-18 0-8-6-13-20-15l-26-3c-24-70-51-136-83-197l45-17c8-3 12-7 12-14 0-6-3-11-10-13l-24-10V107c0-24 1-48 3-71 1-6 1-11 1-15 0-14-11-21-32-21-13 0-19 7-19 22v597c-42-68-86-124-130-168L0 463c59 83 104 162 135 237 37 89 60 164 71 227Z"/></symbol><symbol id="㐰_J" viewBox="0 0 1000 1000" data-size="21"><path transform="matrix(1 0 0 -1 59 950)" d="m255 899 88-39c9-4 14-9 14-16s-6-11-17-13l-22-3c-31-71-65-138-104-202l29-9c8-2 12-6 12-11 0-6-5-10-14-12l-21-4V12L158 0v534c-43-65-92-127-145-186L0 362c108 149 193 328 255 537m133-67 78-47h307l26 43 68-46c10-7 15-13 15-17 0-5-6-9-19-13l-21-6V55l-63-12v82H451V31l-63-15v816m63-680h328v606H451V152Z"/></symbol><symbol id="㐱_G" viewBox="0 0 1000 1000" data-size="21"><path transform="matrix(1 0 0 -1 31 961)" d="M436 923c50-22 78-35 82-39 2-3 3-7 2-10 0-2-10-6-30-12 35-47 78-92 129-136 52-43 101-77 149-100 46-22 103-35 170-41v-20c-27 1-47 0-61-3-14-4-29-17-45-38-39 17-79 39-119 67-39 25-81 60-125 105-44 43-85 96-121 160-48-68-92-123-133-164-42-39-90-78-145-115-53-37-114-70-183-99l-6 13c62 33 120 72 174 117 55 43 103 92 146 145 43 51 82 107 116 170m37-264c43-34 64-53 64-56 0-4-1-7-2-8 0-1-7-2-19-2s-30-10-53-30c-24-20-63-48-117-85-54-36-114-71-180-106l-6 16c65 45 123 89 176 133 52 42 98 89 137 138m111-152c43-34 64-53 62-57 0-4-1-6-1-6-1 0-6-1-14-2-7 0-13 0-16-2-3 0-18-11-45-31-25-19-71-51-136-94-67-41-147-80-241-117l-7 14c91 48 169 96 234 144 64 47 119 97 164 151m172-96c43-34 64-53 64-57 0-3 0-6-2-7-2-3-6-4-13-2-6 0-12-1-18-4-6-2-36-28-90-76-53-48-134-100-244-157C344 54 212 18 57 0l-4 14c144 31 275 78 394 141 117 64 220 149 309 256Z"/></symbol><symbol id="㐱_T" viewBox="0 0 1000 1000" data-size="21"><path transform="matrix(1 0 0 -1 31 955)" d="m434 909 62-18c21-6 31-13 31-22 0-7-10-12-31-15l-20-3c40-54 77-96 111-127 72-65 143-115 214-149 52-26 98-43 137-50v-21c-28-2-47-12-57-31-100 46-183 99-249 159-56 50-113 116-173 198-38-64-86-121-142-173-93-85-196-149-309-191l-8 18c115 57 211 127 290 209 64 67 113 139 144 216m75-319c-5-5-21-20-48-45-54-50-118-90-193-118-33-13-81-26-143-41l-6 18c78 20 151 51 219 96 61 39 110 90 146 150l40-21c21-11 32-20 32-28 0-9-7-14-22-13l-25 2m123-160c-73-62-148-109-225-142-81-36-176-64-284-84l-5 19c115 23 219 61 311 114 73 42 132 94 176 155l43-26c19-11 28-20 28-27 0-8-7-12-22-12h-3l-19 3m139-167C662 188 564 133 476 98 385 62 257 29 93 0l-6 19c158 29 295 72 413 129 80 38 144 79 191 123 4 4 23 22 56 56l37-26c20-13 30-23 30-29 0-8-6-12-17-12h-3l-23 3Z"/></symbol><symbol id="㐱_V" viewBox="0 0 1000 1000" data-size="20"><path transform="matrix(1 0 0 -1 55 996)" d="M0 567c41 27 83 57 125 90 43 33 83 68 121 105s73 74 104 113c32 39 58 78 79 117l71-72-42-24c22-29 47-58 76-86 29-27 62-52 98-74s75-40 118-55 90-23 140-26v-5c-27-8-49-17-67-27s-38-21-59-33c-47 23-87 46-120 69-32 24-60 48-84 72-23 25-44 49-62 74s-36 51-55 77c-31-33-64-65-98-98-34-32-70-62-107-91s-75-55-115-78c-39-23-80-41-123-55v7M109 2v7c53 19 107 41 162 66 55 24 107 50 157 79 51 29 97 59 140 91 43 33 80 67 110 102l47-95-74-34c-93-53-183-99-270-138-86-39-172-65-259-80l-13 2m11 205v5c43 20 88 43 137 68 49 26 95 53 140 81s84 56 119 85 61 57 76 84l52-83-65-31c-31-25-66-50-106-73s-81-43-123-62-83-35-123-48c-39-13-74-21-103-26h-4m-17 188v8c44 21 86 46 127 73 41 28 79 57 112 86s62 58 85 87c24 29 41 55 51 78l79-81c-7-2-14-4-19-7-5-2-11-5-16-8s-10-6-15-10-12-9-20-15c-27-21-56-42-85-63s-58-42-88-61-61-36-92-51-63-26-95-34l-24-2Z"/></symbol><symbol id="㐲_G" viewBox="0 0 1000 1000" data-size="21"><path transform="matrix(1 0 0 -1 31 967)" d="M268 616h265c6 71 8 173 6 309l84-29c3-2 6-3 8-4 0-4-1-7-2-10l-35-16c0-112-2-195-6-250h228l38 47 66-57c2-2 3-5 4-9 0-7-4-10-12-10H623c18-114 44-207 78-279 33-73 69-127 108-164s82-61 129-72V55c-25 0-43-2-57-4s-29-10-47-26c-28 26-57 59-86 97-27 39-57 96-88 170-29 75-49 173-60 295h-14c-10-100-29-186-57-260-27-73-66-137-117-191C362 84 304 38 238 0l-6 16c53 40 101 87 145 141 43 54 77 116 103 186 26 69 43 151 53 244H340c-14 0-27-3-41-8l-31 37m54 280c8-6 7-11-2-16-17-1-31-12-41-33-34-65-68-131-103-200l49-19c9-6 9-12-2-18l-18-9V142l4-91c0-11-8-22-23-31-14-9-26-13-36-12l4 128v472c-49-82-96-146-142-191l-12 8c43 62 92 150 146 263 53 114 86 196 100 247l76-39Z"/></symbol><symbol id="㐲_T" viewBox="0 0 1000 1000" data-size="21"><path transform="matrix(1 0 0 -1 35 964)" d="m275 592-19 43c31-8 68-11 112-11h175v235c0 28-1 49-3 63l53-12c28-6 42-13 42-22s-8-16-24-21l-20-5V624h223l48 49 59-52c5-5 8-9 8-13 0-8-4-12-13-12H591v-11c29-127 71-236 127-328 53-86 119-147 200-183V55c-36 0-60-10-71-31-77 66-138 146-182 240-35 75-65 160-87 256-17-107-47-197-90-270-39-67-88-125-146-174-21-18-52-41-93-69l-10 17c88 66 158 147 210 242 29 53 51 111 66 172 10 43 19 95 26 158H368c-38 0-69-2-93-4m-71 335 72-28c12-5 18-11 18-18 0-8-6-12-20-14l-29-5c-29-82-55-148-80-196l45-17c8-3 12-7 12-14 0-6-3-11-10-13l-24-10V107c0-23 1-47 3-71 1-6 1-11 1-15 0-14-11-21-33-21-12 0-18 7-18 22v603c-7-11-12-19-16-25-36-58-74-108-112-149L0 463c59 85 104 164 134 237 37 93 60 169 70 227Z"/></symbol><symbol id="㐲_K" viewBox="0 0 1000 1000" data-size="21"><path transform="matrix(1 0 0 -1 56 947)" d="M203 586h270c4 39 6 90 6 152 0 63-2 113-7 151l67-16c25-5 37-10 37-17 0-3-11-10-34-21l6 1c-1-113-4-196-9-250h216l34 44 8 9h-1c2 3 6 5 13 5 9 0 18-4 26-12l52-53-10-15H536c38-147 88-261 151-342 33-42 63-74 91-96s64-42 109-60l-4-7c-28 0-46-7-54-21l1 1c-5-7-12-11-21-11-16 0-49 29-100 87-90 102-152 223-187 363-18-79-46-150-83-215-37-64-75-115-113-152-33-32-76-63-128-94l-10 6c-1-4-4-8-10-11-5-3-10-5-14-6s-7-2-8-2h-1c-6-3-11-4-16-4-13 0-19 6-19 17l2 42v484C91 485 57 434 21 390L0 409c35 50 72 122 109 215 38 94 68 184 89 269l58-31c22-12 33-20 33-25s-12-10-37-14c-17-45-39-94-66-148l-6 1c3-1 9-4 18-9s14-8 14-11c0-2-7-6-21-13h1c-7-3-10-4-11-5l6 1V66c0-19 1-29 2-30v-4c33 26 62 52 87 79s51 62 77 103c27 41 50 91 70 150s36 126 49 200H203v22m583 41 1 1-1-1Z"/></symbol><symbol id="㐳_G" viewBox="0 0 1000 1000" data-size="21"><path transform="matrix(1 0 0 -1 19 966)" d="M721 772V138c-1-26 4-42 13-46 9-3 24-6 43-8h71c15 2 27 6 35 12 5 6 10 16 13 28 3 13 6 63 8 150h18c3-70 8-113 14-128 3-16 13-28 27-37-11-28-24-46-39-54-14-8-34-13-61-16H748c-27 0-47 6-59 18-11 12-17 33-17 61v654H516V515c-1-151-25-264-73-338C396 104 326 45 232 0l-5 16c89 58 151 122 185 190 33 68 51 167 53 297v269H334c-8 0-18-3-29-7l-24 33h549l37 47 63-59c2-8 0-13-6-14H721M322 894c8-6 7-11-2-16-17-1-31-12-41-33-34-65-68-131-103-199l49-20c9-6 9-12-2-18l-18-9V140l4-91c0-11-8-22-23-31-14-9-26-13-36-12l4 128v472c-49-82-96-146-142-191l-12 8c43 62 92 150 146 264 53 113 86 195 100 246l76-39Z"/></symbol><symbol id="㐳_T" viewBox="0 0 1000 1000" data-size="21"><path transform="matrix(1 0 0 -1 36 957)" d="M496 758V623c0-158-12-277-37-358C427 159 363 71 267 2l-10 13c80 78 133 163 159 256 22 81 34 197 34 351v136h-49c-38 0-69-1-93-4l-19 43c67-8 112-11 134-11h346l50 57 75-57c5-5 8-9 8-15 0-9-6-13-18-13H694V121c0-28 12-41 37-41h62c32 0 53 6 61 20 3 5 7 29 12 74l8 92 19-2V158l-2-20c0-13 2-23 5-32 2-3 10-11 23-23 6-4 8-8 8-13 0-23-48-35-145-35-56 0-92 3-106 9-19 8-29 26-29 55v659H496M223 914l70-28c10-4 15-10 15-18 0-7-6-12-18-14l-28-3c-27-78-53-139-77-184l49-17c8-2 11-7 11-14 0-6-4-11-12-14l-26-10V119c0-19 1-48 5-87v-8c0-16-10-24-29-24-16 0-24 7-24 22v596c-46-81-94-145-144-192L0 439c107 133 181 292 223 475Z"/></symbol><symbol id="㐴_G" viewBox="0 0 1000 1000" data-size="21"><path transform="matrix(1 0 0 -1 50 965)" d="M623 896c7-2 9-6 8-12 0-4-5-7-14-8-10-1-17-4-21-10-5-4-13-19-26-47-12-25-28-62-49-111h276l41 35 53-51c5-6 9-11 9-13 0-6-4-10-13-12l-28-8c-29-97-63-182-101-254-39-71-83-131-131-179-48-49-102-93-162-130-59-39-133-71-223-96l-6 14c74 32 139 66 196 102 56 37 107 80 152 129 45 48 86 106 123 174 36 66 69 154 98 262H510c-20-47-41-88-61-123 45-23 84-50 117-80s51-54 55-73c2-17-1-31-8-41-8-10-18-15-31-13-12 1-23 13-31 37-8 21-18 44-30 68-12 22-39 50-80 86-51-90-104-167-160-230l-13 9c46 68 95 157 146 268s93 224 127 342l82-35m-301-4c8-6 7-11-2-16-17-1-31-12-41-33-34-65-68-131-103-199l49-20c9-6 9-12-2-18l-18-9V138l4-91c0-11-8-22-23-31-14-9-26-13-36-12l4 128v472c-49-82-96-146-142-191l-12 8c43 62 92 150 146 264 53 113 86 195 100 246l76-39Z"/></symbol><symbol id="㐴_T" viewBox="0 0 1000 1000" data-size="21"><path transform="matrix(1 0 0 -1 50 966)" d="M603 298c-5-2-9-3-12-3-7 0-13 5-19 14-5 7-15 28-30 63-22 53-71 113-147 180-43-48-83-87-122-117l-11 12c126 135 212 289 258 462l61-18c20-7 30-14 30-22 0-9-11-15-33-17l-18-3c-9-19-18-41-28-67-7-16-14-32-22-49h296l33 37 41-26c13-9 19-17 19-24 0-9-12-19-38-30-55-179-131-319-225-420-92-98-228-178-407-239l-6 16c107 46 191 92 253 137 46 34 88 72 127 114m12 14c90 112 155 243 195 393H498c-31-53-61-99-91-139 141-108 212-187 212-235 0-6-1-12-4-19M222 931l70-26c15-5 22-12 22-20s-16-13-49-15c-17-44-40-101-70-171-1-4-3-8-5-12-2-5-4-9-5-12 31-15 47-26 47-34 0-9-13-17-39-22V100c1-12 2-28 3-48 1-14 2-22 2-24 0-10-2-17-4-21-4-5-14-7-29-7-12 0-19 4-19 13v592c-36-61-81-119-135-174L0 444c64 86 113 168 146 247 40 96 65 176 76 240Z"/></symbol><symbol id="㐵_G" viewBox="0 0 1000 1000" data-size="21"><path transform="matrix(1 0 0 -1 27 965)" d="M355 847h424l41 52 65-58c2-2 3-5 4-8 0-8-4-12-12-12H643V534h197l37 53 64-61c2-2 4-5 4-9 0-7-4-10-11-10H643V104c0-32-8-55-24-71-15-13-37-25-64-33-6 21-18 37-35 47-19 10-51 21-98 35l4 18c61-14 99-22 113-24 14 0 27 1 37 4 10 4 14 18 12 42v385H363c-13 0-32-3-56-10l-26 37h307v287H438c-14 0-36-2-67-8l-16 34m-33 45c8-6 7-11-2-16-17-1-31-12-41-33-34-65-68-131-103-199l49-20c9-6 9-12-2-18l-18-9V138l4-91c0-11-8-22-23-31-14-9-26-13-36-12l4 128v472c-49-82-96-146-142-191l-12 8c43 62 92 150 146 264 53 113 86 195 100 246l76-39Z"/></symbol><symbol id="㐵_H" viewBox="0 0 1000 1000" data-size="21"><path transform="matrix(1 0 0 -1 43 950)" d="M197 899c33-12 62-23 87-34 4-4 6-9 6-12 0-8-6-13-18-16-15-3-25-4-31-4-18-55-38-108-60-159-7-11-12-20-16-29 33-15 49-26 49-33 0-6-10-14-30-23V103c0-21 1-37 4-46V33c0-21-12-32-38-33-11 0-17 6-17 19 0 18 0 29 1 34 1 11 2 23 2 35v482c0 2-1 7-1 15-9-14-17-28-24-42-25-38-56-77-91-117L0 438c31 43 58 84 80 123 18 33 35 71 51 111 17 42 31 80 43 115 10 33 18 71 23 112m120-48c29-9 67-13 115-13h296l46 55c26-20 51-39 74-57 6-3 8-7 8-12 0-8-5-12-16-12H603V506h179l48 57c27-20 52-40 76-59 5-3 8-7 8-12 0-8-5-13-16-13H603V87c0-23-6-40-17-51-8-10-20-19-37-25-13-7-26-11-38-11-3 15-9 27-18 35-4 7-14 13-32 18-20 8-43 13-69 14v25c40-10 77-15 110-15 21 0 35 2 42 6 8 3 12 13 12 28v368H361c-47-1-78-3-94-6l-21 46c29-9 67-13 115-13h195v306H432c-47-2-78-5-96-9l-19 48Z"/></symbol><symbol id="㐶_T" viewBox="0 0 1000 1000" data-size="21"><path transform="matrix(1 0 0 -1 38 954)" d="m195 661 34-12c8-3 12-8 12-14-1-7-4-11-10-14l-24-9V108l1-30V61c0-8 1-16 2-24s1-13 1-16c0-6-1-9-3-11-1-2-5-4-11-6-6-3-12-4-17-4s-9 1-12 2c-2 2-4 4-6 7s-2 7-2 13v587c-4-4-6-7-7-9l-10-12-33-41c-17-20-30-36-40-46-9-10-20-21-33-32l-26-24-11 14 27 32 28 33c8 10 19 26 34 47s25 36 31 45l34 61c17 31 29 52 34 63 6 10 14 27 23 51 10 23 18 43 24 59s10 28 12 37l6 22 69-36c9-5 14-10 15-15 2-5 1-10-3-12-3-3-9-5-17-5l-29-1-22-47-20-41c-7-14-14-29-22-43-9-15-14-24-17-29l-12-19m583 165 33 38 41-27c7-5 12-9 15-12 3-4 5-7 5-12-1-5-2-9-5-12s-8-6-16-10l-18-7V517l30-22c5-4 8-9 8-15-1-6-4-9-9-9H434V165c0-25 1-41 4-49 2-8 5-15 9-19 3-3 13-6 31-8l29-5c13-2 35-4 67-5s64-2 95-2c23 0 45 1 63 2 19 1 35 2 49 3 13 2 23 3 29 5 6 1 12 4 19 8 6 3 11 9 16 19 4 9 8 21 9 36l9 104 3 37h18V152c1-15 3-25 5-30 3-6 5-10 7-11s5-4 11-8 11-8 13-13c3-5 4-10 2-15-1-3-5-6-9-10-5-3-10-7-17-9-7-4-16-7-27-9-11-3-22-5-32-6-11-2-29-4-55-6-26-1-46-3-59-3-13-1-32-1-59-1-49 0-87 1-114 3-27 1-49 2-67 4-17 2-32 5-46 9s-24 9-30 15c-7 7-12 14-15 24s-5 24-5 42v647c-1 28-1 46-2 55l-5 35 71-39h327m-344-26V499h353v301H434Z"/></symbol><symbol id="㐶_J" viewBox="0 0 1000 1000" data-size="21"><path transform="matrix(1 0 0 -1 45 950)" d="m260 899 86-35c11-5 16-10 16-15 0-7-6-11-18-13l-25-4c-19-45-34-78-45-100-9-19-28-54-59-106l28-9c9-3 14-7 14-12 0-6-6-10-17-12l-19-3V12L159 0v535c-32-53-80-115-145-187L0 361c61 87 111 172 150 255 50 107 87 202 110 283m527-59 67-44c8-5 12-9 12-14s-5-10-16-13l-20-7V418l-63-12v67H466V114c0-12 2-20 5-23s12-5 26-5h274c23 0 38 2 43 6 5 5 11 18 16 40l27 122h17V145c0-27 12-48 35-63-6-21-17-36-32-44-13-7-32-11-55-11H485c-34 0-56 6-67 17-9 11-14 30-14 58v738l78-39h279l26 39m-321-66V500h301v274H466Z"/></symbol><symbol id="㐷_G" viewBox="0 0 1000 1000" data-size="21"><path transform="matrix(1 0 0 -1 41 963)" d="m734 918 65-53c8-6 8-12 0-18l-33-19-41-358h95l35 39c41-31 62-48 63-52-1-4-4-9-10-14l-27-18c-11-140-19-229-26-265-4-35-15-65-31-89-16-25-49-47-97-66-5 23-18 41-39 52-21 12-60 26-120 41l6 19c77-15 127-24 149-27 21-1 39 2 52 12 12 8 22 28 30 60 6 30 15 125 27 283H455l-39-37-62 60c15 5 29 13 41 26 25 144 41 239 46 285l80-27c3-4 4-7 2-8 0-4-5-8-15-12-9-3-16-10-22-21l-45-241h233l41 377H416c-12 0-27-2-47-7l-23 35h349l39 43M295 312h350l37 43 60-53c2-2 3-4 4-7-1-6-6-9-16-8H365c-13-1-31-4-52-10l-18 35m27 576c8-5 7-10-2-15-17-2-31-13-41-33-34-65-68-131-103-200l49-19c9-6 9-12-2-18l-18-10V134l4-90c0-11-8-22-23-32-14-8-26-12-36-11l4 128v472c-49-82-96-146-142-191l-12 8c43 62 92 150 146 263 53 114 86 196 100 246l76-39Z"/></symbol><symbol id="㐸_G" viewBox="0 0 1000 1000" data-size="21"><path transform="matrix(1 0 0 -1 43 968)" d="M572 897c5-1 7-3 8-5 2-4-1-8-8-12-15-2-29-11-41-26-19-43-41-91-66-144h332l41 37c43-40 64-62 64-66 1-4-4-7-15-8-20-4-39-14-57-31-17-18-45-51-82-100l-16 8 75 137H453c-57-111-111-193-160-245l-14 10c55 86 102 178 141 276 39 97 64 166 74 207l78-38m67-289c4 0 6-2 6-5 0-4-2-7-6-8l-20-10c14-107 35-196 63-266 25-69 58-125 97-168 39-41 84-68 135-81V55c-24 2-44 0-60-6-16-5-28-13-38-24-37 34-71 77-101 128-31 51-55 104-70 159-16 52-32 128-47 228-8-74-22-146-45-217-22-71-58-135-108-191C396 78 327 34 238 0l-6 14c80 41 141 89 184 143 41 53 72 115 94 186 19 68 35 167 47 297l82-32M322 897c8-5 7-10-2-15-17-1-31-13-41-33-34-65-68-131-103-200l49-19c9-6 9-12-2-18l-18-9V144l4-91c0-11-8-22-23-32-14-8-26-12-36-11l4 128v472c-49-82-96-146-142-191l-12 8c43 62 92 150 146 263 53 114 86 196 100 247l76-40Z"/></symbol><symbol id="㐸_T" viewBox="0 0 1000 1000" data-size="21"><path transform="matrix(1 0 0 -1 26 966)" d="M467 754h373l35 39 47-39c9-7 14-14 14-22 0-4-3-8-9-11-1-1-9-4-25-8-3-1-6-2-7-3-47-71-95-130-144-176l-15 14c49 55 85 115 110 180H460c-34-102-83-188-146-258l-14 13c39 54 71 120 96 196 27 85 44 169 50 254l63-14c18-3 27-10 27-19 0-7-6-12-16-16l-24-7c-9-46-19-86-29-123m154-255c3-10 7-21 10-33 71-220 177-353 317-399V51c-32-1-55-12-70-32-44 31-80 64-108 98-46 57-86 123-119 197-12 26-25 67-42 121-17-90-46-163-85-219-60-88-149-156-266-206l-7 19c83 48 145 96 188 145 65 73 107 163 125 268 9 45 13 101 13 166 0 11-1 30-3 58l52-8c30-4 45-11 45-19s-4-13-14-16l-28-9c0-7-1-25-3-54-2-24-3-44-5-61M213 927l72-29c13-4 19-10 19-17 0-8-7-12-20-14l-29-5c-29-83-56-149-81-196l45-17c8-3 12-7 12-14 0-6-3-11-10-13l-24-10V107c0-24 1-48 4-71 0-6 1-11 1-15 0-14-11-21-34-21-12 0-18 7-18 22v603c-33-52-54-84-63-96-16-23-41-52-74-86L0 456c58 79 105 159 140 240 31 73 56 150 73 231Z"/></symbol><symbol id="㐹_G" viewBox="0 0 1000 1000" data-size="21"><path transform="matrix(1 0 0 -1 22 968)" d="m705 629 35 43 53-49c4-3 6-5 6-8 4-8 1-12-10-12H457c-12 0-29-2-53-8l-17 34h318m-21-139 35 37 58-43c4-3 6-5 4-8 0-6-12-15-37-25v-96c-1-17 2-47 8-88 4-41 14-75 29-101 14-27 27-45 39-54 13-9 25-18 37-25s21-4 28 9c4 12 7 27 10 44 1 17 5 55 13 114h20c-4-99-4-160 0-181s10-35 17-43c6-6 9-12 10-18 1-5-3-9-12-11-8-1-23 2-45 9-21 7-46 20-76 39-30 20-56 48-78 85-21 38-35 79-41 123-6 45-8 79-8 100v108H375c-19-1-34-4-45-10l-23 35h377M473 851c-9-17-22-43-39-78h330l39 47 54-55c2-3 4-6 4-9 0-6-2-9-7-8H420c-18-38-38-74-61-108-21-33-48-69-82-107l-11 8c25 43 47 83 64 119 16 35 35 78 57 129 21 50 40 99 56 148 56-24 84-37 84-39v-8c0-2-6-6-19-9-14-2-26-12-35-30m-151 41c8-5 7-10-2-15-17-2-31-13-41-34-34-64-68-130-103-199l49-19c9-6 9-12-2-18l-18-10V138l4-90c0-12-8-22-23-32-14-8-26-12-36-11l4 127v473c-49-83-96-146-142-191l-12 8c43 62 92 150 146 263 53 114 86 196 100 246l76-39Z"/></symbol><symbol id="㐹_T" viewBox="0 0 1000 1000" data-size="21"><path transform="matrix(1 0 0 -1 26 963)" d="M429 781h364l53 55 64-55c8-7 12-12 12-16 0-8-5-12-14-12H417c-9-15-16-26-21-34-27-44-64-88-110-131l-15 16c39 42 72 93 99 154 18 41 36 97 56 168l52-13c23-6 35-12 35-20s-8-13-23-17l-23-4c-5-13-12-31-20-52-5-13-11-26-18-39m-7-183-19 42c40-5 70-8 92-8h214l53 56 64-56c8-6 12-12 12-16 0-8-5-12-14-12H495c-23 0-47-2-73-6M316 451l-19 43c39-6 70-9 92-9h322l34 37 41-26c13-9 19-17 19-24 0-6-2-11-8-15-2-1-12-6-29-15-1-8-1-13-1-17 0-106 17-193 51-260 17-32 35-54 53-66 3-2 5-3 6-3 4 0 8 6 12 16 2 6 15 57 40 152l18-7c-2-17-8-53-18-107-4-26-7-46-7-62 0-7 4-19 12-35 4-9 6-16 6-22 0-13-7-20-22-20-26 0-54 15-84 46-49 50-83 119-100 207-9 48-14 112-13 193H389c-23 0-47-2-73-6M179 663l49-19c7-3 11-8 11-15 0-6-5-11-16-14l-19-7V125c0-24 1-45 3-64 1-13 1-22 1-28 0-22-10-33-31-33-16 0-24 6-24 17v604c-39-60-86-113-141-158L0 479c102 108 181 257 238 445l63-26c16-7 24-13 24-21s-8-13-24-14l-25-2c-28-71-60-138-97-198Z"/></symbol></svg>