<svg xmlns="http://www.w3.org/2000/svg"><symbol id="䶾_T" viewBox="0 0 1000 1000" data-size="21"><path transform="matrix(1 0 0 -1 31 969)" d="M938 727c-41-25-64-43-71-55-50-94-84-141-101-141v16l39 78c13 52 21 78 23 78v16H602l-94-141c-5-10-8-20-8-31h-31l54 109 55 188v94h94v-32h-31l-32-133v-23h227c13 11 20 21 23 31v16h8l71-70M922 47l-78-31h-16c-89 171-135 312-140 422h-16c0-47-3-84-8-110l-16-78C628 147 576 69 492 16h-23c85 93 134 207 148 343 12 117 20 176 24 176v137h78v-24l-31-28v-31c33-174 51-261 54-261 26-63 42-104 47-125 18-52 62-104 133-156M484 820l-23-23h-8V344h-62v47H250c0-21-3-42-8-63-5-5-8-10-8-15 11 0 42-18 94-55 89-84 136-135 141-156V47h-39c-60 109-125 187-196 234-3-42-31-104-86-187-23-29-52-52-85-71C26 10 8 3 8 0H0v31c101 63 156 125 164 188l16 62 15 94c5 5 8 11 8 16H78c0-11-3-21-8-32l-15-15H16v484h23l27-31h8l72 78 49-31h8v78h94v-24l-24-23h-7V516l-16-63v-31h141v172c-26 0-52 3-78 8-11 13-16 20-16 23h94v172h-94v31h94l23 31h31l39-39M203 422v406L94 781H78V625h31c0 11 3 21 8 31l16 16 55-51v-27H78V422h125Z"/></symbol><symbol id="䶿_T" viewBox="0 0 1000 1000" data-size="21"><path transform="matrix(1 0 0 -1 31 961)" d="m938 37-24-22H727l-24 24v867h55l15-16 8-1v-8l-15-14V78h109v15l16 32v78h31V101c1-5 7-20 16-44V37M641 859h-32c0-104-2-193-7-266l-16-218-16-110c-9-69-35-137-78-203L430 0h-24c8 0 32 42 71 125l31 93 15 79c9 46 16 89 20 131l4 44v434c8 0 31-6 70-16h24v-31M422 69c-5-1-11-9-16-22V31h-27c-1 5-5 11-12 16-10 36-20 62-31 78l-16 15-23-23c-52-26-78-42-78-47-37-11-63-21-78-31-11-19-16-32-16-39H98c-1 5-5 9-12 15L70 62c-5 1-7 2-7 3v15l15 29v500l-62-31H0c60 62 94 104 102 125 49 75 83 146 101 211 0 5 1 8 4 8 4 0 8-3 12-8l47-16c5-7 10-11 15-12v-4l-15-15v-8c18 0 44-13 78-39 47-35 73-71 78-107l-24-26h-7c-47 73-94 125-141 156-3 0-10-5-23-15l-71-125h71l43 47h3l55-51v-27H148l-15 15h-8c0-10-3-20-8-31l-23-24v-15l39-39h187l30 31 41-23 15-16v-23h-31V265h-62v32H141V93c93 31 145 52 156 63h16v23l-63 59v27c101-62 156-125 164-187 5-3 8-6 8-9M313 453v94H141v-94h172m0-125v94H141v-94h172Z"/></symbol></svg>