<svg xmlns="http://www.w3.org/2000/svg"><symbol id="𰁐_G" viewBox="0 0 1000 1000" data-size="21"><path transform="matrix(1 0 0 -1 39 977)" d="m180 492 37-37h537l38 38 45-46c9-8 7-13-6-16l-18-9V280l3-140c-1-22-16-33-44-33v36H228v-7c1-25-15-39-48-43 3 24 5 71 7 140v207c1 11-5 23-19 37l12 15m48-56V162h544v274H228m216 518 80-33c10-3 11-7 6-11-11-3-20-9-28-17v-37h284l28 38 61-43c14-11 11-15-11-14H502v-77h188l31 40 50-48c10-8 8-13-5-17l-18-8v-86l4-110c5-27-10-41-43-43v42H289v-14c2-26-13-41-46-45 3 25 6 77 7 155v134c-1 10-5 21-14 33l15 12 29-45h183v142c1 11-8 24-26 41l7 11M9 874l8 10 81-34c11-6 14-11 6-14-13-4-23-10-31-19V69h737l39 47 64-53c13-9 11-13-6-13H88L49 0 0 41c19 14 30 27 32 40v748c0 16-8 31-23 45m280-234v-90h420v90H289m0 17h420v83H289v-83m359-235 58-57c9-9 9-15 0-17-17 7-34 7-52 0-21-9-49-23-86-41 18-8 37-16 57-25 20-8 35-15 44-21 25-17 37-32 38-45 3-32-19-29-65 8-28 20-67 40-118 60-56-27-144-55-262-84l-4 15c93 32 168 61 225 87-52 21-116 44-192 71l4 16c78-19 155-41 230-67 2 1 5 2 7 4 67 35 103 57 111 68 2 7 1 15-2 21l7 7m20-109 3 7c59-9 91-27 96-53 1-13-4-21-15-22-10-2-17 2-20 11-3 8-8 17-15 28-9 9-26 19-49 29m-200-68 3 7c55-9 85-28 90-57 1-13-4-21-14-22-10-2-16 2-19 12-2 8-7 18-14 29-8 10-23 20-46 31m-201 92 3 7c55-9 85-27 89-54 2-13-3-20-13-21-10-2-16 1-19 10-2 8-7 18-14 29-8 9-24 18-46 29m178 83 3 7c56-9 86-27 90-54 1-13-3-20-14-21-9-2-16 1-18 10-3 8-8 18-15 29-8 9-23 19-46 29Z"/></symbol><symbol id="𰁑_G" viewBox="0 0 1000 1000" data-size="21"><path transform="matrix(1 0 0 -1 14 963)" d="M304 523c-33-32-63-61-90-86l16-8c12-5 13-10 6-14-9-3-18-8-26-16v-53l124 41 3-16-127-51V86c-1-22-5-39-14-52-8-12-30-24-67-34-2 20-9 34-22 41S72 55 39 63l3 17 28-8c73-23 107-8 105 45v189c-52-21-84-35-97-41-14-8-29-21-43-37L0 277l175 56v77c-1 15-8 30-23 45l7 11 38-21c28 32 56 66 84 103H82c-9-1-18-6-27-14l-29 33h262l23 28 40-43c2-7-1-10-9-9-11 1-23-5-38-20m15 400 53-51c7-9 5-14-5-16-18 7-39 5-63-5-54-14-100-24-140-30s-90-12-152-17v15c146 26 236 46 268 60 28 10 39 24 33 42l6 2m-19-111 55-38c10-7 12-12 6-14-12 0-24-3-35-11-37-62-68-111-94-147l-13 3 45 87c25 52 37 81 37 88-2 7-4 15-8 25l7 7M24 763l10 11c24-23 40-42 49-55 10-14 17-30 21-48 3-19 4-34 1-45-13-24-23-21-30 10 2 35-15 77-51 127m118 22 8 10c25-25 40-45 46-61 7-15 11-32 13-48 2-37-5-54-21-53-8 4-11 19-11 46 1 31-11 66-35 106m516 134 55-43c11-12 11-18 0-20-18 7-47 4-88-7-16-4-35-8-56-12V729h94l24 35 57-43c10-8 8-11-6-10H569V606h83l36 35 37-44c7-6 5-10-6-13l-17-9V403l2-51c1-22-10-32-35-31v35H569V242h92l25 31 48-39c9-8 7-11-8-9H569V107l170 30 4-16c-7-1-35-7-85-17-49-10-100-21-153-33-53-11-87-21-104-27-15-7-25-17-30-31l-39 56 200 33v123h-95c-17 0-31-4-42-13l-32 30h169v114H432v-6c2-25-11-39-40-43 3 24 5 52 6 86v203c-2 14-7 26-15 37l13 11 29-38h107v105H410c-16 1-30-4-41-13l-31 31h194v102c-53-8-106-13-159-16v17c138 24 221 42 250 53 22 4 31 14 29 30l6 4M532 589H432V489h100v100m37-100h100v100H569V489m-37-17H432v-98h100v98m137 0H569v-98h100v98m183 421c4-8 4-13-1-15-10-3-19-8-29-17V101c-1-43 7-61 25-56-4-1 10-2 40-3 24 7 38 20 41 41 4 26 7 79 10 158h13l2-109c1-35 8-57 19-67-13-43-46-62-98-57-16 0-32 0-47 2-27 6-41 30-42 73v788c-1 16-10 30-25 43l7 12 85-33Z"/></symbol><symbol id="𰁒_G" viewBox="0 0 1000 1000" data-size="21"><path transform="matrix(1 0 0 -1 32 957)" d="M199 672c0 15-9 30-25 45l8 11 52-24c28 34 67 83 117 147H65c-10-2-21-6-32-14L0 870h352l30 31 52-56c2-7-1-10-10-9-16-1-32-8-46-20-46-43-88-83-125-121l13-5c12-5 14-9 6-13-11-3-21-9-30-16V106c0-23-6-41-16-53-10-13-37-24-81-32-2 18-11 32-26 40-14 7-43 16-85 28l4 15 41-9c83-24 123-9 120 45v532m675 146c-61-60-115-109-161-149l22-10c13-5 15-10 7-13-11-4-21-9-29-16V88c-1-24-7-41-18-54-10-12-37-24-80-34-2 20-10 34-25 42-14 7-41 17-83 28l4 16 40-10c81-23 120-8 118 45v520c-1 15-9 30-25 45l7 10 37-16c53 49 104 108 156 176H530c-10-1-21-5-32-13l-32 33h375l35 37 59-68c2-7-1-10-10-9-17 4-34-1-51-18Z"/></symbol><symbol id="𰁓_U" viewBox="0 0 1000 1000" data-size="23"><path transform="matrix(1 0 0 -1 109 891)" d="M466 527c-12 0-23-1-34-4-11-2-20-3-29-2-1 0-4 4-9 12-4 8-8 14-12 18l-9-8c-3-4-6-6-8-6-5 0-8 3-8 8 0 2 2 5 5 8 12 16 24 35 35 58 12 23 23 45 32 66 9 22 17 42 23 59 6 18 9 30 10 36 0 5 2 8 7 8 3 0 8-2 13-5s10-6 15-10 10-8 14-12c4-3 7-5 8-6 6-4 9-7 9-10 0-1-1-3-2-4s-3-1-4-1h-2c-1 1-1 1-2 1-4 0-9-2-14-6-5-3-11-13-20-30h109c5 0 9 2 11 5l23 24c2 3 4 4 6 4 6 0 21-16 46-49 2-3 3-5 3-6 0-3-3-4-9-5l-12-2c-28-5-64-44-109-116h87c1 0 1 0 1-1h2c3 0 5 1 6 3l14 18c3 4 6 6 9 6s6-2 11-7c5-4 10-9 15-15 5-5 9-10 12-15l5-7c-1-2-2-3-5-4-2 0-4-1-7-2-2-1-4-2-6-4s-3-5-3-10v-99c1 1 3 2 6 5l30 34c2 2 4 3 6 3s5-2 8-6c4-3 8-7 12-12 5-5 9-9 13-14s7-8 9-10c3-5 5-9 5-13 0-7-6-11-17-13h-72V245c0-3 0-8 1-13s2-10 2-17c0-3-2-6-7-9s-10-5-15-7c-5-1-9-3-13-4-3-1-4-1-3-1-3 0-5 2-5 7v37H548V78c0-13-1-23-4-32-2-8-6-15-11-21-5-5-11-10-19-14-7-3-16-6-27-9-3-1-4-2-5-2s-2 2-3 5-3 7-4 11c-1 5-3 9-5 13-1 4-2 6-3 7-11 7-33 15-66 24-5 1-8 4-8 8 0 7 3 10 10 10 15 0 29-1 40-3 11-1 21-2 29-2 17 0 28 3 31 10 4 7 6 16 6 26v129h-57c-12 0-23-1-34-4-10-2-19-3-28-2-1 0-3 2-6 6s-6 8-9 13-5 10-8 13c-2 4-3 6-3 5 0 3 1 4 4 4 1 0 2-1 5-2 23-5 46-8 70-8h66v126h-45c-12 0-23-1-34-3-10-2-19-3-28-3-1 0-3 2-6 6s-6 8-9 13-5 9-8 13-4 6-4 5c0 2 1 3 4 3s5-1 6-2c21-4 44-6 69-6h55v112h-43M80 197c31-8 61-20 88-37 23 34 42 64 58 89 16 26 29 48 40 67H89c-12-1-23-2-34-4-11-1-21-2-30-2-1 0-2 2-5 6s-6 8-9 13-5 10-8 13c-2 4-3 6-3 5 0 2 1 3 4 3 11 0 23-1 35-4 13-3 26-4 40-4h83v138h-42c-12 0-23-1-34-4-11-2-21-3-30-2-1 0-2 2-5 6s-6 8-9 13-5 10-8 13c-2 4-3 6-3 5 0 2 1 3 4 3 1 0 3-1 6-2 19-5 42-7 69-7h52v118H91c-12 0-23-1-34-4s-21-4-30-3l-4 5c-2 4-5 8-8 12-3 5-6 9-9 13s-4 6-4 7c0 2 2 3 5 3 2 0 4 0 5-1 19-5 42-7 69-7h81v65c0 11-1 22-3 32-1 10-2 19-1 28 0 5 2 8 5 8h2c19-6 35-12 46-17 12-5 18-9 18-12 0-1-2-3-5-6-3-2-6-5-10-8-3-3-7-7-10-12-3-4-4-8-4-13v-65h60c3 0 6 2 9 6l30 33c1 2 2 3 5 3s6-2 10-6c4-3 8-7 12-12 5-5 9-9 12-14 4-5 7-8 8-10 4-5 6-10 6-13 0-8-5-12-16-12H200V505h31c3 0 7 2 10 6l29 34c2 2 4 3 6 3 3 0 6-2 10-6 4-3 8-7 12-12 5-5 9-10 12-15 4-5 7-8 8-10 3-5 5-9 5-12 0-7-6-12-17-13H200V342h68c4 0 8 0 12 1 5 1 8 2 9 4l30 33c2 2 4 3 6 3s5-2 9-6c4-3 8-7 12-12 5-4 9-8 12-13 4-5 7-8 9-10 3-5 5-10 5-14 0-7-6-11-17-12l-22-5c-28-3-75-58-140-164 10-2 19-7 26-14s13-15 18-24 9-17 12-25 4-14 4-18c0-11-3-21-9-28-5-7-12-10-21-10-8 0-17 3-26 10-5 13-11 26-20 40s-19 28-30 41-23 26-36 38-25 22-38 31l7 9m376 355h75l58 120H470c-13-21-27-41-41-60-13-19-27-36-41-53 11-3 22-5 33-6s23-1 35-1m92-163V263h105v126H548m0 138V415h105v112H548Z"/></symbol><symbol id="𰁔_G" viewBox="0 0 1000 1000" data-size="21"><path transform="matrix(1 0 0 -1 18 968)" d="M658 456h164v129H658V456m0-19V307h164v130H658M9 828h334l23 32 59-41c11-6 9-9-6-9H261V537h74l23 34 59-41c11-8 9-11-6-11H261V220l141 48 6-13-271-108c-35-19-57-32-66-38-9-7-17-19-22-35L0 135l77 25v431c1 11-7 25-24 41l8 12 76-34c9-3 11-7 6-11-11-4-20-9-27-18V173l102 33v604H86c-18 0-32-5-44-14L9 828m856-255V456h12l23 32 59-41c9-7 7-10-6-10h-88v-84l4-87c-1-20-16-32-47-36v57H658V77c5-45-25-70-90-77 2 29-34 47-108 55l2 15 39-4c81-22 119-7 114 43v178H482c-17 1-32-3-44-13l-33 33h210v130H420c-18 0-32-4-44-13l-33 32h272v129H485c-11 1-24-3-37-14l-37 33h213l105 155H543c-39-56-90-103-153-142l-7 10c80 72 134 150 163 233 7 22 11 36 12 42 0 7-4 15-10 26l12 9 68-31c12-9 14-14 5-15-9 0-18-3-29-9-14-34-30-69-49-104h166l33 40 54-64c2-7-1-10-10-7-19 3-43-13-72-47-16-18-43-50-80-96h161l36 37 46-44c9-8 7-13-4-16l-20-8Z"/></symbol><symbol id="𰁕_G" viewBox="0 0 1000 1000" data-size="21"><path transform="matrix(1 0 0 -1 37 949)" d="M462 859c4-4 4-6-1-8-10-3-21-9-32-17V681l374 50 38 55 75-48c16-8 13-13-10-13l-477-66V539c0-38 5-62 15-70 11-10 30-16 57-17 27-2 51-2 72-2 89 0 146 1 172 5 34 5 52 18 55 39 5 31 9 76 12 134h14c3-55 5-91 4-109-1-19 10-33 30-42-18-36-43-55-75-58-19-5-85-7-200-6-34-1-73 0-117 4-60 8-88 47-84 116v119L87 612c-22-4-37-11-44-21L1 622l383 52v170c-2 15-11 30-29 43l7 11 100-39m227-585 29 45 84-52c14-10 11-13-11-12H202c-17 1-32-4-44-13l-33 32h564M803 32l28 45 84-53c14-9 11-13-11-11H77C60 13 45 9 33 0L0 32h803Z"/></symbol><symbol id="𰁖_G" viewBox="0 0 1000 1000" data-size="21"><path transform="matrix(1 0 0 -1 35 964)" d="M15 711h784l42 54 82-59c13-10 9-15-13-15H92c-18 1-33-3-46-12l-31 32m125 164h528l44 54 82-59c13-10 9-15-13-15H217c-18 1-33-3-46-12l-31 32m146-216 72-34c11-7 14-12 7-15-13-1-26-6-40-14-20-33-40-63-61-91V100l2-55c-1-25-19-40-54-45 3 25 5 74 7 146v300C152 365 82 303 10 262L0 274c85 71 155 146 208 225 55 79 82 122 81 130 0 8-3 17-9 24l6 6m343-6 90-35c9-4 11-8 6-12-14-5-24-12-30-20V105l2-55c0-14-4-24-11-29-10-6-24-11-43-14 3 23 6 71 7 144v445c1 10-9 25-30 46l9 11Z"/></symbol><symbol id="𰁗_G" viewBox="0 0 1000 1000" data-size="21"><path transform="matrix(1 0 0 -1 37 968)" d="M10 726h784l42 53 82-58c13-10 9-15-13-15H87c-18 1-33-4-46-13l-31 33m127 156h528l44 54 82-59c13-10 9-15-13-15H214c-18 1-33-3-46-12l-31 32m45-274 50-43h483l36 39 49-46c9-8 7-14-6-17l-18-9V384l5-65c0-11-5-19-12-23-8-4-20-8-36-12v52H522c34-68 88-130 161-187 73-56 151-89 235-97V33c-25 0-43-1-55-4-11-4-21-11-27-21-70 28-137 73-202 136-66 62-112 126-139 192H229c-7-64-21-113-40-148C153 119 93 57 10 0L0 12c64 55 113 115 148 180s50 187 46 368c-3 11-11 24-25 40l13 8m55-62c2-74 0-137-6-191h502v191H237Z"/></symbol><symbol id="𰁘_G" viewBox="0 0 1000 1000" data-size="21"><path transform="matrix(1 0 0 -1 33 942)" d="M0 32h797l44 57 85-62c13-9 9-14-13-14H77c-17 1-33-3-46-13L0 32m35 798h739l44 55 85-59c13-10 9-15-12-15H113c-18 0-34-5-47-13l-31 32m120-59 86-33c9-3 11-7 6-10-11-4-20-10-28-18V549h47l34 50 61-54c13-12 11-17-5-16H219V271l141 60 6-14-195-99c-46-24-73-39-83-45-11-7-20-21-27-41L2 187l172 67v275h-68c-16 1-31-3-43-12l-33 32h144v171c1 10-8 24-27 41l8 10m419-16c3-5 3-9-1-10-11 1-24-3-36-13-10-26-19-51-29-73h287l31 40 49-39c12-8 12-14 0-18l-20-13V366c0-83-5-137-13-161-8-25-20-45-37-62s-51-31-102-41c-1 25-15 41-44 48-13 6-39 14-77 24l4 15c66-13 106-19 119-19 13-1 27 0 42 3 15 2 29 13 41 32 14 18 21 65 23 140v295H500c-31-73-75-138-131-194l-12 8c53 77 94 156 123 237 14 38 20 61 19 68s-4 15-9 25l8 6 76-35m3-162 77-37c13-7 15-13 7-16-15-3-28-9-38-17-12-29-25-56-38-80 38-24 70-46 94-65 39-37 60-68 61-95 2-26-7-40-26-39-11 1-18 13-24 35-4 24-16 47-36 72-18 21-44 47-78 77-53-88-108-152-167-193l-11 10c72 78 124 157 158 239 16 39 24 63 24 71s-4 18-13 30l10 8Z"/></symbol><symbol id="𰁙_G" viewBox="0 0 1000 1000" data-size="21"><path transform="matrix(1 0 0 -1 45 955)" d="M54 854h669l44 55 85-58c13-11 8-16-13-16H132c-18 0-34-4-47-13l-31 32m18-213 29-37h331v115H77c-17 0-32-4-44-13L0 738h789l40 41 72-47c15-10 11-15-10-13H477V604h293l25 27 51-30c11-8 11-14 0-19l-16-11V130c1-35-3-62-12-80s-32-31-68-39c-4 34-44 57-121 69l2 16c71-15 115-22 131-21 15 1 23 15 23 41v469H477V120l2-75c-1-25-19-40-54-45 3 25 5 80 7 165v420H117V153l4-106c-1-26-20-40-56-45 4 25 6 91 7 196v388c-2 22-6 38-12 49l12 6m537-80 71-46c4-5 4-8-2-8-11 0-22-2-33-8-6-7-12-14-17-21 29-8 52-16 70-24 46-16 72-36 77-59 3-13 0-22-9-28s-19-1-29 13c-9 14-22 27-40 40-15 11-41 26-80 44-8-11-17-21-26-30-21-23-53-48-95-76l-8 11c42 39 74 73 95 105 21 31 32 49 30 54 0 7-4 15-10 24l6 9m-2-202 71-46c6-5 5-9-2-9-11 1-21-1-32-7l-16-21c38-9 67-20 85-31 47-27 63-52 49-77-10-10-20-8-32 9-11 15-25 31-41 46-15 13-39 28-71 43-9-13-19-24-29-34-21-23-52-48-94-75l-9 11c42 38 74 72 95 103 22 32 32 50 31 56 0 6-4 14-11 24l6 8M250 562l68-46c5-5 4-8-2-8-10 0-21-2-32-8-6-8-11-15-15-21 28-8 50-16 67-24 44-16 69-36 75-59 3-13-1-22-10-28-8-6-17-1-27 13-8 14-21 27-39 40-14 11-39 26-77 44-8-11-16-21-26-30-20-23-51-48-91-76l-8 11c41 39 71 73 92 105 20 31 30 49 29 54-1 7-4 15-11 24l7 9m-1-202 68-48c6-6 6-10-1-10-10 1-21-2-32-8l-14-22c37-10 64-21 83-33 45-28 61-55 46-81-9-11-19-8-30 9s-24 33-40 49c-15 15-38 30-69 45-9-13-19-24-29-35-20-25-51-51-91-80l-9 12c41 40 72 76 93 110 20 33 31 52 30 58s-5 14-12 25l7 9Z"/></symbol><symbol id="𰁚_G" viewBox="0 0 1000 1000" data-size="21"><path transform="matrix(1 0 0 -1 24 979)" d="M185 110c-39-11-71-22-95-32S51 54 45 36L0 94l149 39v248H80l-19-30-41 32c9 6 16 17 19 31v194c-2 17-8 34-19 51l11 11 32-39h86v208H74c-16 0-30-5-42-14L1 859h376l31 44 54-53c10-9 8-12-5-11H311V631h64l18 25 37-29c9-10 7-16-6-19l-9-13V425l2-47c-1-13-5-22-11-25-6-5-14-7-24-7v35h-71V174l126 33 2-18-254-79m87 325 31-34h79v208h-66l-19-28-36 34c8 5 13 14 16 29v195h-93V686l2-59c0-16-4-26-12-32-7-6-15-11-25-14v28H72V401h68l22 32 37-35c9-7 8-14-1-20l-14-12V141l93 24v213c0 14-4 29-13 45l8 12m440 523 81-46c10-6 12-11 4-13-12-3-24-9-36-17 0-101 0-179 1-235l92 18 22 40 66-30c16-6 13-11-9-14l-171-32v-33c0-56 1-110 3-161 2-53 6-95 11-127 2-12 5-23 7-35 16 27 30 55 42 84 28 64 42 99 43 107 1 6-1 16-7 29l8 5 53-34c11-7 14-11 8-13-13-2-22-6-30-13-33-84-68-155-103-211l3-8c10-28 21-52 35-73s26-36 37-43c11-8 18-6 21 7l26 107 17-4c-19-88-25-138-17-150 8-11 11-20 7-25s-11-7-20-5-21 8-37 17c-15 10-33 27-53 54-16 22-31 50-45 84l-23-31C695 91 624 39 537 0l-8 10c82 53 145 108 189 165 13 18 26 37 39 56-13 43-20 95-24 158-4 72-6 144-6 216v17l-78-15c-17-3-29-10-34-19l-30 27 142 27v164c0 61 0 96-2 106-2 9-9 23-21 40l8 6M553 171l3-105c-1-15-5-28-12-37-7-7-20-13-39-17 3 31 6 103 9 215v403c0 6-1 12-3 18-18-31-45-65-80-100l-8 10c50 80 91 168 124 261 18 49 26 77 24 84-3 7-8 16-13 26l7 6 85-39c3-5 1-8-4-7-12 0-23-7-33-21l-87-190 55-23c12-4 14-9 8-12-16-7-28-15-36-25V171m254 708c30-22 53-41 71-59 17-17 27-33 31-48s3-26-2-35-11-13-19-10c-8 2-13 10-15 26s-8 32-18 49c-10 15-29 38-56 68l8 9Z"/></symbol><symbol id="𰁛_G" viewBox="0 0 1000 1000" data-size="21"><path transform="matrix(1 0 0 -1 43 979)" d="M193 923h389l25 35 63-43c10-6 8-10-6-10H269c-18 0-33-4-44-12l-32 30m93-702c54-43 113-77 178-103 1 0 1 0 2-1 15 7 30 14 44 20 38 17 80 45 126 84H286M126 422V312h192v110H126m227 0V312h194v110H353m423 0H582V312h194v110M665 650H230v-60h435v60m-435-75v-65h435v65H230M90 844h629l25 35 63-43c9-7 7-10-6-10H388c-48-32-96-61-143-87l389 13-9 6c-23 12-50 25-81 38l4 9c39-10 71-20 97-30 25-9 43-20 53-33 11-13 15-24 13-32-2-9-8-13-18-12-9 1-18 8-24 21-3 6-9 12-17 19l-284-14c-68-2-110-4-124-6-15-2-30-7-46-16l-27 42c29 1 53 8 72 20 32 18 62 39 89 62H165c-18 1-32-3-44-13l-31 31m616-620c9-5 9-8 1-10-8-1-15-3-20-5-5-4-15-11-31-22-16-14-44-33-84-56-17-11-37-21-59-30 49-18 93-31 133-38 52-12 93-19 124-20 30-2 55-3 73-3h71V29c-23 2-39-1-49-7-9-5-16-12-22-21-68 3-143 14-225 34-55 14-105 29-148 47-17-6-34-12-53-19-68-19-133-33-195-42C159 11 86 5 2 0L0 13c74 5 138 13 193 24 56 11 113 25 173 41 21 8 41 15 60 23-5 3-10 5-15 7-53 28-103 65-151 113h-67c-20 1-32-3-37-13l-35 32h512l28 25 45-41M184 697l38-32h424l37 34 44-38c9-6 7-11-6-14l-17-8v-85l3-48c-1-11-5-19-13-23-7-4-17-5-29-5v17H230v-3c0-5-3-10-11-14-8-6-20-11-35-13 2 14 4 48 6 104v82c2 9-4 20-18 33l12 13M79 472l40-34h648l21 29 47-32c9-8 7-12-6-14l-14-9v-64l3-42c0-11-5-19-12-23s-17-7-30-7v21H126c-1-9-5-16-12-21-6-4-18-8-35-11 3 21 5 43 7 65v99c1 7-5 16-19 28l12 15Z"/></symbol><symbol id="𰁜_B" viewBox="0 0 1000 1000" data-size="21"><path transform="matrix(1 0 0 -1 38 962)" d="M212 572c23-17 38-30 47-39 6-6 9-11 9-13-2-5-6-6-10-4-15 2-33-15-53-51-52-82-113-155-184-222-7-6-13-6-17-2-4 5-3 10 4 17 44 45 85 103 123 172 37 68 57 114 61 137 3 11 9 13 20 5m184 151V324c0-109 2-203 4-280 0-6-15-19-45-38-9-6-13-2-12 12 4 112 7 214 7 306v399H122c-27-1-51-3-71-7-6-2-9 0-10 6-3 11-10 21-20 30-5 5-6 8-3 11 2 2 6 1 10-1 25-6 52-9 82-9h368c-2 4-2 7-2 10-9 51-35 101-78 150-2 5-2 9 0 13 4 4 10 3 16-3 72-43 108-80 110-111 0-16-7-36-21-59h268c10 1 19 7 30 18l25 37c5 5 10 5 16 0 46-41 69-67 68-77-1-5-6-8-14-8H621V324c0-109 1-203 4-280-1-6-16-19-45-38-9-6-13-2-13 12 5 112 7 214 7 306v399H396m294-173c5 4 11 3 17-3 117-95 188-172 211-231 8-21 9-39 3-53-6-15-12-25-18-32-5-5-10-7-14-6-5 0-8 5-10 15-16 80-79 178-189 295-4 5-4 10 0 15Z"/></symbol><symbol id="𰁝_S" viewBox="0 0 1000 1000" data-size="21"><path transform="matrix(1 0 0 -1 49 984)" d="M672 63h104l7 1h5l3 1 1 1 2 1 1 1v2l1 3 1 5 1 6v145H587l-1-21-5-35-8-31-11-31-14-25-17-24-19-20-23-17-25-12-27-8-3 8 20 17 18 17 14 18 12 20 11 21 8 23 4 24 3 28 1 30-1 31v341l64-31h210l31 26 58-48-27-20V84l-1-13-2-13-3-13-7-12-9-11-11-8-12-6-12-4-13-3-14-1v32L672 48v15m-452 6h105l6 1 5 1 5 2 2 2 2 5 1 4v145H146l-2-21-5-34-8-31-11-29-13-26-15-24-18-20-20-17-23-13L7 5l-5 8 18 17 15 17 13 18 11 21 8 20 7 24 5 25 4 27 1 30v371l62-31h200l32 26 58-48-27-20V91l-1-13-2-14-5-12-6-12-8-11-11-8-12-7-12-4-14-2-13-1v31L220 54v15m368 313V251h210v131H588m-442 0V251h200v131H146m442 148V403h210v127H588m-442 0V403h200v127H146m694 122-9-12-13-8H191l-11 1-12 2-12 6-10 6-8 9-7 11-6 13-3 11-2 14v143H0v21h420v100l62-11 16-11-16-9v-69h305l53 52 62-52v-21H184V705l-1-7v-11l1-2 1-3 3-2 2-3 6-2 8-1h614l13-9 9-13Z"/></symbol><symbol id="𰁞_S" viewBox="0 0 1000 1000" data-size="21"><path transform="matrix(1 0 0 -1 104 955)" d="m430 520 15-11-15-9V31L367 0v530l63-10m-95-279v-20H41v20h179l52 53 63-53m410 11v-22H467v22h163l52 53 63-53M335 398v-20H41v20h179l52 53 63-53m410 6v-21H467v21h163l52 53 63-53M163 548l-63-31v210l63-32h455l31 27 58-48-26-21V553l-63-32v42H163v-15m0 126v-89h109v89H163m172 0v-89h110v89H335m173 0v-89h110v89H508M0 786h364v124l64-11 15-9-15-10v-94h247l53 53 63-53v-20H0v20Z"/></symbol><symbol id="𰁟_G" viewBox="0 0 1000 1000" data-size="21"><path transform="matrix(1 0 0 -1 14 978)" d="M364 691c28-15 50-28 68-38 17-10 30-22 40-36 9-15 13-29 10-43-2-14-9-21-20-21s-18 7-20 21-8 28-18 43c-11 14-32 34-64 62l4 12m31 203c42-14 72-26 90-37 19-11 33-23 42-36 10-13 14-27 12-42s-8-23-18-22c-12 0-19 8-23 23-5 16-14 32-27 47-14 16-41 34-80 54l4 13M72 879l4 12c82-32 132-68 151-109 15-43 9-66-18-68-12 1-20 13-24 36-5 24-17 46-37 65-19 21-44 42-76 64m747-83H669c-4-10-9-19-14-28 14-36 31-72 51-109 10-19 20-36 29-53 12 22 23 42 33 61 13 25 31 68 51 129M560 614l15-4-81-265c-22-63-36-102-41-116-5-16-5-55 1-117s-2-94-22-96c-22-2-28 28-19 91 8 63 7 98-4 107-11 8-36 14-75 17l-2 18c44-7 73-3 85 12 12 13 23 32 33 56l110 297M0 634h301l34 44 64-49c15-11 11-15-10-14H126V148h149l41 47 58-50c16-12 16-17 0-16H138L99 86l-47 42c17 14 26 28 29 41v446h-4c-17 1-32-3-44-12L0 634m813-285H654V79h159v270M669 956l68-35c11-8 13-13 7-15-14 0-25-2-33-8-10-30-22-57-33-83h131l28 34 48-46c5-6 4-10-3-12-7-1-13-3-17-7s-11-20-23-48c-13-28-25-55-38-81-12-22-28-49-48-81 8-11 16-22 24-31 25-31 51-57 78-76 28-20 66-35 114-45l-1-14c-17 2-32 2-43-1-12-4-25-11-38-21-45 33-81 67-111 103-13 17-27 35-42 56-25-38-52-72-82-102-31-32-74-65-129-100l-7 8c52 46 94 87 125 123 30 35 54 69 74 103-8 14-16 30-25 47-20 40-38 80-51 120-26-43-53-78-82-105l-8 7c32 47 58 94 78 141v1h1c4 11 8 21 12 31 20 57 30 90 28 100s-6 19-11 29l9 8m-45-566 20-22h151l30 25 51-33c9-7 7-13-6-16l-17-9V161l5-118c0-12-4-20-12-23-8-4-19-7-33-7v47H654V43c0-14-3-23-10-29S625 3 608 0c3 24 5 69 7 135v219c2 9 0 17-7 24l16 12Z"/></symbol><symbol id="𰁠_G" viewBox="0 0 1000 1000" data-size="21"><path transform="matrix(1 0 0 -1 8 991)" d="M477 838h134l24 30 47-36c11-10 8-14-8-14H533c-13 0-24-4-32-12l-24 32M151 969c26-7 49-15 70-23 21-9 36-20 48-34 11-15 14-28 8-40-5-13-12-19-22-18-11 0-19 9-23 25s-11 29-20 39c-11 10-32 22-64 38l3 13m297-386h193l25 35 46-41c10-11 8-15-8-14H505c-12 0-23-4-32-12l-25 32M36 838h336l30 39 63-49c9-8 7-12-6-10H108c-16 0-30-4-41-12l-31 32m443-371c5-6 3-8-5-5-13-3-23-7-31-12-7-6-16-13-25-21-10-10-24-28-43-53l-14 6 43 88H93v-7c-2-26-7-47-15-63-8-17-18-28-30-34-13-6-22-4-29 8-8 12-7 22 4 32 12 10 23 22 34 35s19 44 24 93h16c-1-14-2-29-2-45h303l29 36 52-58m58 2c3 8-3 23-20 44l8 11 83-35c10-4 11-7 6-10-15-5-26-12-34-20-1-4-11-30-30-79-18-50-36-97-54-144 44 6 90 15 139 27-7 34-24 73-51 117l7 11c54-58 81-114 82-170 0-28-5-42-15-44s-15 8-15 29c-1 12-2 25-4 38-48-15-91-29-129-42-11-4-23-14-35-30l-30 58c13 2 24 8 32 20 40 138 60 211 60 219M347 716H153V597h194v119m-231 43 26-28h189l36 37 37-44c8-6 6-10-6-13l-16-9v-70l6-52c-2-12-5-19-11-23-6-5-16-7-30-7v31H153v-11c0-13-3-23-8-29-6-6-17-10-33-14 3 24 5 62 7 114v74c-2 12-7 23-16 33l13 11m271-406c3-8 0-13-9-16l-20-14V104c-1-24 10-38 32-41 9 0 50-1 124-1h380c31-2 47 18 48 58l2 82h15l2-66c1-34 9-50 23-47-11-34-34-53-69-57-16-2-33-2-51-2H501c-77 1-122 2-135 2-31 10-46 32-46 66v243H185c7-87-1-157-27-212C133 74 81 31 4 0L0 10c61 44 102 91 123 139 21 49 28 114 23 194-3 13-10 26-21 40l9 11 44-34h135l28 34 46-41m546 321-3-302c-2-65-5-112-8-142-5-29-15-55-30-79-15-22-40-39-76-49 0 11-5 23-17 37-12 10-30 21-54 34l3 17c26-11 51-19 74-26 22 0 37 6 45 19 9 12 16 31 22 55 5 24 8 76 8 158l4 297h-80c-3-161-19-288-49-380-28-91-73-166-133-222l-7 13c50 70 88 147 113 232 25 84 39 203 43 357h-48c-10 0-19-4-27-12l-24 32h100c1 66 1 141 0 226-3 12-9 22-17 30l4 12 67-28c4-6 4-10 0-14-10-3-17-11-22-23 2-74 3-142 1-203h70l28 30 34-39c6-8 5-13-4-16l-17-14Z"/></symbol><symbol id="𰁡_U" viewBox="0 0 1000 1000" data-size="23"><path transform="matrix(1 0 0 -1 108 886)" d="M447 347C402 220 338 121 255 50c-3-3-6-5-9-5-4 0-6 4-6 11 0 4 2 8 6 12 109 113 188 289 237 530-1 21-5 38-10 52-5 15-11 26-18 35s-14 16-23 20c-8 4-16 6-23 6-5 0-10-2-17-5-6-3-11-4-16-4-1 0-2 1-2 2v9c2 7 3 15 4 24s3 13 6 13c14-6 27-10 40-12 13-1 25-6 36-13s21-18 30-34 18-41 25-76c17-79 35-148 54-208 20-59 41-110 63-153 23-42 46-76 70-102 25-26 51-44 78-55 2-1 3-3 3-5 0-5-2-8-5-8h-8c-7 0-12-1-17-4s-9-6-12-9-5-5-7-8-3-4-4-4-3 1-5 3c-29 28-54 58-77 90s-43 67-61 104-34 78-48 121-27 90-39 140c-3-22-9-47-18-76-9-28-20-59-35-94M206 764c0 5 2 8 6 8 3 0 7-2 13-5s12-6 17-9c6-3 11-7 15-10 5-3 7-5 8-5 6-5 9-9 9-11-1-2-5-4-12-6s-11-4-12-5c-7-7-19-29-35-66l-51-104c4-1 8-3 13-6 5-2 9-4 14-6s8-4 11-7c3-2 5-4 5-5s-2-2-6-5c-3-2-7-5-11-8s-8-5-11-7-5-3-4-2c-2-5-3-25-3-58V195c0-69 1-126 3-172 0-5-2-8-6-8L133 0h-1c-3 0-5 4-5 12 1 36 2 69 3 99 1 31 2 59 2 84v277c0 8 0 16-1 23-2-3-4-7-7-14-14-23-30-47-48-72s-38-51-59-79c-3-3-6-5-9-5-5 0-8 2-8 7 0 3 1 5 4 8 51 65 97 145 138 238 41 92 62 154 64 186Z"/></symbol><symbol id="𰁢_S" viewBox="0 0 1000 1000" data-size="21"><path transform="matrix(1 0 0 -1 40 964)" d="m322 896 12-14-20-4-43-97-57-110-9-15h4V31L146 0v559l-63-92-37-47-39-45-7 6 88 153 56 106 2 5v11h5l44 93 47 112 25 67 55-32m167-24h343l31 26 58-46-26-22V576l-63-31v62H489v-61l-3-69-5-66-7-63-10-60-13-56-15-52-19-50-21-45-23-42-27-37-8 5 17 42 15 43 15 46 11 48 11 51 8 55 7 58 3 61 2 64v424l62-31m0-20V629h343v223H489Z"/></symbol><symbol id="𰁣_G" viewBox="0 0 1000 1000" data-size="21"><path transform="matrix(1 0 0 -1 34 973)" d="M458 644c-3 16-11 35-25 54l18 10 47-38h327v207H521c-14 1-30-3-46-14l-41 33h374l43 39 58-46c11-8 10-13-4-16l-24-7V691l7-71c-4-22-25-33-63-32v62H511l-21-191h333l38 40 61-39c14-8 14-14 0-19l-25-14V291c-8-98-17-159-28-183-12-23-29-42-51-57-23-15-64-30-123-44-1 28-19 45-52 52-17 5-48 12-95 22l4 16c84-12 134-18 148-18 15-1 32 0 52 2 21 2 39 12 56 30 15 18 26 71 35 159v169H499l-37-45-61 44c15 8 28 20 38 35l19 171M284 945l91-46c8-5 9-10 1-12-13-1-25-6-36-17-27-64-55-123-82-175V140l4-95c-2-25-21-40-60-45 3 25 6 91 7 196v413C144 501 77 426 9 383l-9 7c87 93 159 200 217 321 57 122 83 187 78 195-5 9-11 20-17 32l6 7Z"/></symbol><symbol id="𰁤_G" viewBox="0 0 1000 1000" data-size="21"><path transform="matrix(1 0 0 -1 15 968)" d="M0 620h390l28 39 59-45c10-10 12-15 4-13H339V138c0-38 5-61 16-69 12-8 30-14 57-16 27-4 52-5 75-4 219-1 341 1 367 5 34 4 53 20 55 47 5 26 9 75 12 149h15l2-108c1-35 12-57 32-67-19-36-44-55-75-57-19-6-151-8-396-6-36-2-80 1-131 8-53 8-78 47-74 116v465H185c2-200-10-340-35-420C125 99 78 39 9 0L5 14c58 51 97 118 114 199 17 79 25 209 23 388H77c-17 0-32-4-44-13L0 620m605 317 111-42c8-6 8-11 0-16-11 0-23-7-35-20-2-116-7-214-15-295 40-51 77-107 109-168 34-61 58-118 75-171 14-52 10-82-13-90-15-5-25 10-31 47-6 44-22 98-48 162s-58 127-95 190c-12-101-35-185-70-250-36-64-90-124-161-180l-13 16c88 81 145 178 173 288 26 112 39 268 38 470-7 19-18 34-31 45l6 14M35 851h295l28 39 59-45c14-11 11-15-11-14H112c-17 1-32-4-44-13l-33 33Z"/></symbol><symbol id="𰁥_G" viewBox="0 0 1000 1000" data-size="21"><path transform="matrix(1 0 0 -1 32 974)" d="M907 820V99c8-37-18-65-78-82-13 36-53 58-121 66v18c63-12 102-18 118-18 17-1 28 2 32 7 6 5 8 29 6 72v671H398V153l3-94c0-26-18-41-52-45 3 25 5 87 6 184v629c2 18-3 38-15 59l12 9 36-42h465l29 38 43-37c13-10 14-16 4-19l-22-15M228 948l80-42c11-6 13-10 6-14-14-2-28-10-42-23-22-63-46-121-71-174V136l2-95c-3-27-20-40-52-41 4 25 6 87 7 185v428c-46-81-95-146-148-193L0 431c64 86 121 185 169 297 48 111 71 172 67 182-2 11-7 21-14 30l6 8m259-334 13 11c60-57 117-116 170-178 38 82 67 168 89 256H507c-11 0-21-4-32-14l-38 34h307l32 34 54-47c8-6 7-10-4-12-8 0-15-3-19-7-4-3-10-21-20-55-23-78-52-153-89-225 15-21 30-42 45-64 46-74 70-128 70-162-1-35-12-51-32-47-12 0-20 18-23 51-3 34-16 71-39 112-13 22-27 45-42 70-63-116-146-214-249-294l-11 14c97 92 175 198 234 318-51 71-106 140-164 205Z"/></symbol><symbol id="𰁦_B" viewBox="0 0 1000 1000" data-size="21"><path transform="matrix(1 0 0 -1 45 965)" d="M203 671c28-9 48-16 58-22 10-5 9-10-2-16-10-5-16-11-19-17-5-13-7-39-7-79V242c0-77 1-140 4-192 1-5-1-9-5-12-9-5-23-14-41-26-8-6-12-3-12 11 4 86 7 159 7 219v295c0 39-2 72-4 98-10-16-20-32-30-49-34-54-77-113-131-176-6-8-12-9-16-4-5 4-4 10 2 16 62 76 119 168 170 279 51 110 78 182 81 218 2 11 8 14 18 7 25-15 42-26 51-34 8-5 11-10 11-14-1-3-4-4-10-4-6 1-12-2-19-7-9-8-23-33-43-77-19-37-40-77-63-119m404-418c-53 94-88 215-104 364-41-90-80-165-118-225-5-8-11-10-15-6-5 3-6 9-1 17 51 82 93 180 127 294s50 188 48 224c0 11 5 14 17 9 26-11 44-20 55-26 8-4 13-8 13-12s-3-6-9-5c-6-1-12-4-19-11-8-8-18-35-30-80-10-28-21-58-32-90h231c5 1 9 2 14 2 3 4 7 7 12 12l29 41c4 6 10 6 15 0 47-41 70-66 69-76-1-5-6-8-15-9H766c-16-191-51-331-106-419 60-82 142-146 248-191 3-2 4-4 4-9-2-5-5-7-10-6-29 2-50-7-64-27-4-4-8-4-12 1-87 67-152 131-195 191-22-27-47-53-75-77C491 84 401 38 288 3c-12-3-19 1-22 11-1 8 4 13 14 16 144 47 253 122 327 223m-80 423c-4-7-7-15-10-23 32-160 71-280 116-358 47 84 72 211 76 381H527Z"/></symbol><symbol id="𰁧_B" viewBox="0 0 1000 1000" data-size="21"><path transform="matrix(1 0 0 -1 39 962)" d="M430 567c107-130 156-213 146-250-3-16-10-27-20-33-12-8-20-11-23-10-4 1-7 9-9 23-18 84-50 163-96 238-7-101-18-185-34-252-27-107-72-196-135-269-8-7-14-8-17-4-3 5 6 22 26 52 80 135 120 357 120 668v78c-1 23-3 53-8 88-1 8 0 14 2 15 2 2 6 2 12-1 28-11 52-22 72-33 5-3 7-6 7-9 0-4-2-7-6-7-10-4-17-9-21-18-6-10-9-21-11-35v-78c-1-57-2-112-5-163m255-93c-1 5-1 8-1 9 1 14 1 27 1 39 0 4-1 6-4 6s-5-2-6-4c-1-11-1-22-1-33 0-58-11-126-30-205-33-110-88-201-166-273-8-7-14-8-18-4-4 6-3 11 3 16 19 23 36 45 52 67 87 136 131 353 131 650v78c-1 23-3 52-8 88-1 8-1 13 2 15 2 2 6 2 12-1 28-12 52-23 72-33 5-3 7-6 7-9 0-4-2-7-6-8-10-3-17-9-22-17-5-10-8-22-10-35v-78c0-43-2-86-4-127 57-295 135-482 232-560 3-3 3-6 1-9s-5-4-10-2c-7 3-15 2-23-3-9-5-16-12-20-20-3-5-8-3-12 6-68 103-125 252-172 447M165 703c47 106 72 177 75 212 1 11 7 14 17 7 25-15 42-26 52-33 7-5 11-10 11-14-1-3-5-5-13-6-7-1-13-3-17-5-7-8-21-33-41-75-18-38-38-78-60-120 17-6 32-13 46-21 8-5 8-9 0-13-20-10-31-17-33-21-2-6-3-29-3-69V234c0-82 1-150 3-205 0-6-2-9-6-10-15-6-29-12-43-18-6-1-9 4-8 14 4 87 6 159 7 219v311c-1 22-2 40-2 56-3-3-4-6-5-9-33-53-74-110-123-171-7-6-12-8-17-4-5 5-5 10 1 17 59 73 112 163 159 269Z"/></symbol><symbol id="𰁨_G" viewBox="0 0 1000 1000" data-size="21"><path transform="matrix(1 0 0 -1 28 971)" d="m626 941 90-33c9-4 11-7 6-11-13-4-23-11-31-19V643h149l31 39 67-49c11-8 9-11-6-10H447c0-80-2-147-7-202h251l44 42 47-50c9-8 7-14-6-17l-17-8V175l3-130c-2-23-20-38-54-44l4 93 2 81v226H438v-4c-7-79-30-155-69-227C331 98 278 42 210 1l-8 10c56 44 102 103 137 177 35 75 56 178 62 311v307c-7 18-19 33-36 46l7 10 102-25c11-3 13-7 5-12-10-3-21-10-33-19v-80c1-30 1-58 1-83h199v245c2 10-8 24-28 43l8 10m-411 1 74-34c10-8 13-12 7-14-8-2-19-7-32-17-28-71-55-134-83-189V141l2-96c0-14-5-24-14-30S148 4 131 0c2 25 5 88 7 187v426C97 549 55 499 12 463l-12 7c59 75 112 162 158 263 45 101 67 157 65 169s-7 23-14 33l6 7Z"/></symbol><symbol id="𰁩_G" viewBox="0 0 1000 1000" data-size="21"><path transform="matrix(1 0 0 -1 17 954)" d="m197 906 105-33c7-3 7-8 0-14-11 0-21-6-32-17 0-78-2-155-5-232 55-175 128-308 219-397 92-89 217-143 376-160 46-5 81-5 107-1V36c-25-2-42-5-51-9-8-4-17-13-24-27-168 16-303 68-405 156-101 89-176 222-225 401-5-87-18-172-38-256C196 187 126 88 13 3L0 17c99 93 162 200 189 322 28 121 39 293 33 516-7 17-17 30-30 40l5 11m221-509 321 39v415c2 10-8 25-29 45l9 11 87-35c9-3 11-7 6-11-14-5-24-12-30-20V440l70 9 29 42 58-38c17-8 13-13-9-14l-148-17V230l2-55c0-25-17-40-52-44 4 25 6 73 7 145v140l-235-28c-22-5-37-12-44-22l-42 31m64 222 4 14c99-33 148-71 146-115 0-21-6-32-20-35-13-2-22 6-27 26-4 19-14 39-30 58-17 21-41 38-73 52m43 188 4 14c100-33 148-71 146-115 0-20-6-32-20-34-13-3-22 6-26 25-4 20-14 39-30 59-17 19-42 36-74 51Z"/></symbol><symbol id="𰁪_G" viewBox="0 0 1000 1000" data-size="21"><path transform="matrix(1 0 0 -1 14 985)" d="M842 854H660c5-64 13-134 26-209 15-92 33-168 55-229 15 34 28 71 40 111 28 89 48 198 61 327M219 108l-8 7c94 123 163 246 207 367-16 27-34 58-56 93s-43 67-62 96l8 9c20-22 43-48 66-78s42-57 57-80c28 92 47 194 56 307H339c-14 1-26-3-34-13l-34 34h201l29 34 58-49c7-6 5-10-4-12-15 5-23-9-27-42-6-44-15-95-27-153-12-57-25-107-39-149 34-56 59-110 74-162 13-49 10-78-8-88-16-9-27 7-34 50-8 46-25 96-50 151-25-57-55-111-90-161-36-51-81-105-135-161m754 3V95c-41 13-71 6-90-20-65 72-113 148-147 230v-1C654 177 561 95 456 56l-6 15c89 56 169 136 238 240 10 14 18 30 27 48-24 69-42 138-55 207-15 87-25 183-27 288h-10c-16 0-27-4-35-12l-31 30h272l34 43 56-53c7-6 6-9-3-11-8-2-16-6-21-12s-11-36-18-90-23-125-46-213c-17-66-39-126-66-182 15-37 30-70 45-97 41-74 95-122 163-146M203 971l82-42c7-4 11-7 11-10 0-2-1-4-4-5h-2c-14 0-26-7-36-22-18-55-36-104-54-148l2-699c-1-25-17-40-50-45 4 25 6 87 7 186v468c-46-91-95-158-147-202l-12 9c64 85 118 181 160 290 37 96 55 154 55 174-3 15-9 27-18 37l6 9Z"/></symbol><symbol id="𰁫_G" viewBox="0 0 1000 1000" data-size="21"><path transform="matrix(1 0 0 -1 10 966)" d="M563 781h313l31 39 67-49c10-6 8-9-6-9H804V88c-1-24-6-41-17-54-10-12-37-24-81-34-2 20-10 34-25 42-15 7-43 15-85 26l4 18 41-10c82-23 122-8 120 45v641H641c-18 0-33-4-44-13l-34 32m-135 95c-1 15-9 30-26 45l8 11 84-37c13-6 15-10 7-14-12-3-22-9-30-16V686h47l31 39 66-49c11-7 9-10-6-10H471V438l122 63 11-14-128-76-5-3V123c-2-43-7-71-17-84s-37-26-81-39c-2 19-10 32-25 40-15 7-43 17-84 30l3 16 41-10c82-23 122-8 120 45v261c-43-25-69-40-78-46-14-9-25-22-35-40l-44 41 157 80v249h-79c-18 1-32-4-43-13l-35 33h157v190m-221 55 93-44c11-6 13-11 5-15-15-1-28-6-40-15-24-54-49-104-74-150V144l2-95c-4-26-21-41-53-45 3 25 5 87 6 184v444c-43-68-88-122-134-163l-12 7c62 81 115 168 160 259 45 92 65 144 60 156-5 13-11 23-18 32l5 8Z"/></symbol><symbol id="𰁬_U" viewBox="0 0 1000 1000" data-size="23"><path transform="matrix(1 0 0 -1 113 893)" d="M179 548c5-3 7-5 7-8 0-1-1-3-4-4-2-1-5-3-8-5-3-1-5-3-8-4s-4-3-5-5c-3-10-5-31-5-64V106c1-27 1-51 2-73 0-5-13-16-38-31-3-1-4-2-5-2-3 0-5 3-5 9 0 37 1 71 3 102s3 59 3 84v263l-2 53c-13-21-27-44-44-68-16-23-34-48-53-74-3-3-5-4-8-4-2 0-4 1-6 2s-3 3-3 5c0 3 1 5 4 8 14 19 28 40 42 65 15 25 28 50 41 77s26 53 37 80 21 52 30 75 15 44 20 61c5 18 8 31 9 39 1 6 3 9 7 9s9-2 14-5c6-3 11-6 16-9s10-7 14-10 7-5 8-6c6-3 9-6 9-9 0-4-3-6-8-6h-3c-5 0-10-3-14-9-4-5-9-15-16-29-7-13-15-32-26-55s-25-51-42-85c16-4 28-9 37-15m466-286h36c3 0 6 2 9 5l29 33c2 2 4 3 6 3s5-2 9-6c5-3 9-7 13-12 5-5 9-9 12-14 4-4 7-7 8-9 4-5 6-10 6-14 0-7-6-11-17-12H462c-9-23-19-45-31-64s-27-38-46-56c-18-17-41-35-68-53-27-17-61-36-100-56-5-3-9-4-12-4-5 0-8 3-8 9 0 4 2 7 7 9 29 16 56 32 79 47s44 31 61 48c18 17 33 35 45 54 13 20 23 42 31 66H269c-12-1-23-2-34-4-10-1-19-2-28-2-1 0-3 2-6 6s-6 8-9 13-5 9-8 12c-2 4-3 6-3 5 0 3 1 4 4 4 11 0 23-1 36-4s26-4 39-4h56v411c0 29-2 57-6 82 0 7 1 11 4 11 2 0 6-3 11-9 6-6 15-14 26-23h232c4 1 7 3 8 4l19 21c2 3 4 4 5 4 5 0 10-3 17-8s13-11 19-17c7-6 12-12 16-17 5-5 7-6 7-5 0-2-2-4-5-5s-6-2-10-4c-3-2-7-5-10-10-3-4-4-10-4-19V262m-132-63c1 2 3 3 6 3 2 0 5-1 9-3 59-32 102-60 129-83s40-45 40-65c0-17-3-29-9-36-5-7-10-11-13-11-5 1-8 5-10 12-17 49-67 107-150 172-3 2-4 4-4 7 0 1 1 3 2 4m92 510H356V262h73l6 20c11 65 17 131 17 200 0 21-1 43-3 65s-3 44-3 67c0 5 2 7 5 7h4c21-7 37-12 48-17 11-4 17-8 17-11 0-1-1-2-4-4-2-2-5-4-8-7-3-2-5-4-8-6s-4-3-4-4c-4-10-6-32-6-65 0-61-2-111-5-151s-8-71-15-94h135v447Z"/></symbol><symbol id="𰁭_G" viewBox="0 0 1000 1000" data-size="21"><path transform="matrix(1 0 0 -1 32 979)" d="M513 822c35-25 60-50 76-73 15-24 23-49 23-74 0-26-7-39-21-41-16-3-24 8-25 31-2 23-5 46-11 67-7 21-24 48-51 81l9 9m-191-36c37-17 66-37 85-57 20-22 32-45 37-70 6-25 0-41-15-47s-25 2-29 26c-3 23-10 46-22 67-12 22-33 45-63 70l7 11m456 63 77-45c6-7 6-11-1-13-11 0-22-2-31-7-43-64-87-122-132-174l-18 5c36 55 63 101 83 138 19 36 27 58 25 65s-5 14-10 22l7 9m11 103 71-64c12-12 12-19 0-20-25 9-55 10-90 2-77-19-150-33-218-41-69-8-156-14-264-19l-3 14c111 13 199 26 262 37 62 11 112 22 148 32 37 9 60 17 70 23 9 6 15 18 15 36h9m-573 7 88-46c10-8 12-13 7-17-15 0-29-4-42-14-30-80-61-150-95-212l52-18c5-2 6-5 1-8-13-6-22-13-29-20V127l4-85c1-12-4-21-14-26-11-7-24-12-40-16 3 22 5 77 5 166v468c-43-72-90-132-141-178l-12 7c75 101 133 200 174 296 41 95 59 148 54 160s-11 22-18 32l6 8m152-446-31 30h362l28 33 57-50c5-6 2-9-8-9-13-2-29-10-46-22-65-63-124-124-174-182-52-59-83-99-94-120-11-20-19-40-23-58-4-19 0-32 14-38 14-7 36-12 66-16 29-3 122-2 278 2 49 4 79 28 89 71l7 139h17c-10-106-1-163 27-170-6-14-13-26-23-38-10-11-22-20-37-26-14-8-41-12-80-15l-231-2c-39 0-69 2-89 5-21 4-36 8-47 13s-20 11-26 19c-6 9-10 19-12 30-2 12-1 27 4 45 5 19 13 38 25 59 10 20 45 63 103 129 58 64 115 125 169 181H398c-13 0-23-3-30-10Z"/></symbol><symbol id="𰁮_G" viewBox="0 0 1000 1000" data-size="21"><path transform="matrix(1 0 0 -1 48 977)" d="m903 55-5-15c-30 9-57 2-80-19-58 54-105 130-141 228s-65 231-88 400c-7-180-36-319-88-417C448 135 369 57 265 0l-12 16c115 78 194 180 238 304 45 125 67 314 65 569-2 12-12 24-29 36l7 12 83-31c11-2 12-7 3-13-8-4-15-10-20-18 0-38-2-76-4-116 39-244 84-417 134-518C781 140 838 77 903 55M147 954l81-37c11-7 13-12 6-15-18 1-32-6-42-22-24-53-47-100-70-141h188l34 40 51-48c9-7 7-13-6-16l-18-9V280l4-108c3-27-14-42-49-43v72H63v-71c0-26-17-40-51-45 3 25 5 87 7 185v461c-2 16-9 30-19 43l16 12 42-47h42l20 47c26 79 37 123 33 132-4 10-8 20-13 29l7 7m179-492H63V220h263v242M63 479h263v241H63V479Z"/></symbol><symbol id="𰁯_U" viewBox="0 0 1000 1000" data-size="23"><path transform="matrix(1 0 0 -1 97 897)" d="m386 795 64-47-30-17c21-23 45-44 70-65 26-21 54-40 85-57s64-31 101-43 77-21 120-26v-13c-32-3-54-17-67-44-39 14-76 31-111 51-34 21-65 42-93 63-27 22-51 44-72 65-20 22-36 42-47 59-37-41-73-76-106-105s-66-54-97-75-61-38-92-53c-31-14-62-27-94-39l-4 14c28 12 59 29 93 51 35 23 69 49 104 78 35 30 67 62 98 97s57 70 78 106m339-416-37-7c-25-21-51-42-76-61s-50-36-75-53c69-91 158-142 269-151V90c-41-2-69-18-84-47-29 13-58 30-85 49s-53 41-77 66c-23 25-45 53-64 84s-34 66-46 103V87c-5-41-29-70-70-87 0 31-35 53-104 67v16c44-6 74-9 91-9 10 0 18 3 23 9s10 17 13 34v306H272c-26 0-48-2-67-7l-31 30h222l27 33 57-49-30-25c18-51 44-95 77-130 55 55 101 110 138 167l60-63m-416-14 46-50-33-24c-15-29-33-57-52-82s-41-49-66-71-55-42-88-60S46 44 3 30L0 43c126 63 217 151 272 262H161c-23 0-44-2-63-7l-31 30h211l31 37m27 255c24-9 44-17 60-24 16-6 29-12 38-18 10-6 17-12 21-18s6-13 6-20c0-6-3-14-8-24s-11-15-20-15c-4 0-8 3-12 9s-10 14-17 24-16 21-28 34c-11 13-27 27-47 42l7 10Z"/></symbol><symbol id="𰁰_G" viewBox="0 0 1000 1000" data-size="21"><path transform="matrix(1 0 0 -1 18 975)" d="M914 532c-12-48-21-78-28-89s-15-19-24-25c-8-6-29-14-63-24-3 14-9 23-18 28-8 4-30 12-64 22l4 16c54-14 90-18 108-11 17 4 32 35 44 94H626v-70l3-56c-1-25-18-40-53-45 3 25 6 65 7 118v53H383c-37-63-87-110-153-144-65-33-132-57-201-72l-6 20c60 19 118 43 174 73s102 71 138 123H188l-39-32-41 36c14 6 25 16 33 29l23 111c3 8 1 22-7 42l13 8 36-45h170c1 19 2 39 1 61v51H136c-12 1-24-4-37-14l-35 29h313v89c-9 19-15 29-20 30l4 11 81-28c10-3 11-8 3-14-8-1-17-5-26-12v-76h164v74c1 10-8 25-29 45l9 11 86-35c10-3 11-7 6-11-13-5-23-12-29-20v-64h145l37 36 46-40c9-7 7-13-4-15l-20-8v-84l4-58c-1-19-16-31-47-35v62H626V563h235l30 36 43-36c11-7 11-14 0-18l-20-13M417 677c-4-43-12-81-25-114h191v114H417M181 563h164c15 31 25 69 30 114H206l-25-114m238 241v-57c1-19 0-37-1-55h165v112H419m207-112h161v112H626V692M521 419c8-7 7-11-3-14-11-3-20-7-29-12 25-50 50-91 75-122 28-35 61-67 101-95 40-30 77-52 109-68 65-27 128-41 191-43V50c-43 1-71-12-83-39-145 50-256 123-331 219-30 38-56 84-76 140-52-109-120-192-204-251C183 57 95 17 8 0L0 14c188 65 318 163 392 294 34 62 50 97 46 105-2 9-8 18-16 27l7 8 92-29Z"/></symbol><symbol id="𰁱_K" viewBox="0 0 1000 1000" data-size="21"><path transform="matrix(1 0 0 -1 50 945)" d="M373 712h92c10 28 19 56 28 86 9 29 17 59 24 90l46-19c25-10 37-16 36-20 0-3-8-6-25-9l-13-3c-7-20-15-41-24-63-8-20-16-40-25-61h258l41 42 57-39c9-10 11-17 8-20-3-4-10-6-20-6H635c24-67 63-120 117-160 41-30 90-52 147-64v-12c-19-1-34-4-45-8-11-6-18-13-22-21-47 23-89 55-126 97-43 50-73 107-89 169H506c-35-73-75-138-119-194-48-62-104-114-167-156l-7 4c54 48 101 102 142 160s75 120 104 185h-70l-68-3-13 28 65-3M261 871c20-10 29-17 28-22s-12-6-33-4l-31-65-43-93c22-8 33-15 34-21 0-6-10-10-29-11V57l1-16c2-8 2-13 0-16-3-6-12-12-25-18-11-6-18-7-21-4-1 2-2 8-1 18l2 16v573l-34-45c-21-29-37-51-48-66-20-28-38-50-53-68l-8 10c51 80 93 152 124 215 39 77 69 153 91 229l3 6 43-20m416-345 37-28c15-13 21-22 19-27-2-6-13-9-34-9V318l1-22c1-8 0-14-1-16-2-6-7-10-16-13-13-4-22-4-25 0-2 2-3 8-2 18l1 11H477l1-197c0-8 3-13 8-17 6-4 17-8 34-12 11-2 50-3 116-2 58 0 99 1 124 3 24 6 41 17 51 33 13 20 25 57 38 111l11-2-8-70-5-73c23-9 33-18 32-26-1-9-16-15-43-17-28-3-86-5-174-5-82-1-136-1-163 1-25 2-43 8-54 20-8 8-12 21-12 38v394l-3 57 48-34-1-1h167l33 29m-21-55H477V322h179v149Z"/></symbol><symbol id="𰁲_U" viewBox="0 0 1000 1000" data-size="23"><path transform="matrix(1 0 0 -1 107 895)" d="M181 558c5-3 8-6 8-9 0-1-1-3-4-4-2-1-5-2-8-3s-5-3-8-5c-2-1-3-3-4-5-4-10-6-32-6-65V196c0-65 1-119 3-164-1-5-14-15-39-30-3-1-4-2-5-2-4 0-6 4-6 12 2 37 3 70 4 100 1 31 2 59 3 84v271l-2 50c-13-21-28-43-45-66-16-23-34-47-55-72-5-3-8-5-10-5-5 0-7 3-7 8 0 3 1 5 4 8 23 30 46 63 68 99s43 76 62 120c39 88 60 145 62 172 1 6 3 9 7 9s9-2 14-5 11-6 16-10 10-8 14-11 6-5 7-6c6-5 9-8 9-9 0-3-2-5-6-5h-2c-6 0-10-1-13-3-2-1-6-8-12-19-5-11-14-28-26-51s-30-57-55-100c13-3 24-7 32-13m82-522c-12-1-24-2-35-4s-20-3-29-3l-4 6c-3 4-6 8-9 13s-5 9-8 13-4 6-4 5c0 2 1 3 4 3s5-1 6-2c21-4 44-6 69-6h63v434c0 16-1 31-4 45-2 15-3 29-3 42 0 4 1 6 4 6s7-3 13-10c6-6 14-13 24-22h90c3 35 5 67 6 96H308c-12 0-23-1-33-3-10-1-20-2-29-2-1 0-3 2-6 5l-9 12c-3 5-5 9-8 13l-3 6c0 2 1 3 3 3 3 0 5 0 7-1 19-5 42-7 69-7h147v22c1 7 1 15 1 22 0 10 0 20-1 29 0 10 0 20-1 29 0 7 1 10 3 10 3 0 10-2 19-6 10-3 23-9 39-17 4-2 6-4 6-7 0-5-1-8-4-7-2 1-5 0-8-2s-6-8-10-18c-3-10-6-28-8-55h178c3 0 7 2 10 6l30 34c1 1 3 2 5 2s5-2 9-6c4-3 8-7 12-12 5-5 9-9 12-14 4-5 7-8 9-10 4-5 6-10 6-14 0-7-6-11-17-12H480v-96h119c4 1 7 3 8 5l19 21c1 2 2 3 5 3 1 0 3-1 6-2l50-39c2-2 3-4 3-6s-2-4-5-5-6-2-10-4-8-5-11-10c-3-4-4-10-4-19V61h33c3 0 7 2 10 6l29 33c2 2 4 3 6 3s5-2 9-6c4-3 8-7 12-12 5-5 9-9 12-14 4-5 7-8 9-10 4-5 6-10 6-13 0-8-6-12-18-12H263m92 25h110v289c-1 23-2 43-3 61s-1 34-1 48c0 5 2 7 5 7h3c43-14 65-24 65-29 0-2-4-5-11-10-7-4-11-8-12-12-4-10-6-32-6-65V61h116v470H355V61Z"/></symbol><symbol id="𰁳_G" viewBox="0 0 1000 1000" data-size="21"><path transform="matrix(1 0 0 -1 21 978)" d="m210 956 85-38c6-4 10-8 10-11 0-2-2-3-4-4h-3c-14 0-25-6-33-18-24-59-49-114-74-163l2-677c0-25-17-40-51-45 4 26 6 88 6 185v459c-43-73-88-132-136-177l-12 7c59 86 111 175 154 265 44 91 67 148 69 171-4 15-10 28-19 38l6 8m569-151 55-58c8-11 7-16-4-14-31 8-69 2-115-17-31-10-85-21-163-34V582c0-22-1-43-1-63h241l36 44 65-50c14-11 10-15-11-14H725V230l2-94c0-25-17-40-50-44 3 25 5 87 7 184v223H551c-4-102-17-183-40-241-23-59-60-113-112-163l-9 11c48 68 80 134 97 199 17 63 25 150 24 259v122c-3 13-11 27-26 40l9 10 51-34c64 15 113 29 146 43 32 13 53 22 62 27 8 6 13 16 17 30l9 3m-448 27c-3 16-9 31-20 45l12 11 36-35h462l36 47 75-54c4-3 6-6 6-8 0-3-6-5-18-5H374V71h468l39 45 65-49c8-5 12-10 12-12s-3-3-8-3H388l-34-42-52 41c17 14 26 28 29 41v740Z"/></symbol><symbol id="𰁴_G" viewBox="0 0 1000 1000" data-size="21"><path transform="matrix(1 0 0 -1 21 969)" d="M249 626h127v253c1 10-7 23-24 41l7 11 75-34c9-3 11-7 5-10-11-4-20-10-26-18V626h41l24 33 58-43c10-8 8-12-6-10H413V284l124 46 4-16-121-52c-52-28-86-46-102-55-15-10-26-23-31-39l-55 51 144 52v335h-50c-17 0-32-4-44-12l-33 32m-39 312 82-40c10-7 13-12 7-14-15 0-27-6-34-17-29-85-59-160-90-223l43-15c6-3 6-6 1-9-12-6-21-12-28-19V127l6-85c1-12-4-21-14-26-11-7-24-12-39-16 4 22 7 77 8 166v434c-45-83-91-144-140-184l-12 7c67 84 122 182 165 293 43 109 62 170 57 182s-11 23-18 33l6 7m325-89h286l32 39 66-49c10-7 8-10-6-10H736V522h118l32 40 66-49c10-7 8-10-6-10H736V91c-1-24-7-42-16-54-10-12-37-23-81-34-2 20-11 34-26 42s-44 17-85 26l4 18 41-10c43-9 74-11 92-6 18 6 27 23 28 51v379H569c-17 0-32-4-44-13l-33 32h201v307h-81c-17 0-32-4-44-13l-33 33Z"/></symbol><symbol id="𰁵_G" viewBox="0 0 1000 1000" data-size="21"><path transform="matrix(1 0 0 -1 28 976)" d="M745 468c-41-24-88-56-141-96l30-13c12-5 14-9 7-13-12-4-22-9-31-16v-14h211l40 52 77-56c13-10 8-15-13-15H610V97c0-23-7-41-20-55s-41-25-85-34c-3 21-11 35-23 41-11 5-37 14-78 25l4 18 39-10c83-23 123-8 120 45v170H326c-17 1-33-4-46-13l-31 32h318v25c0 15-9 30-27 45l8 10 34-14 115 106H402c-10-1-21-6-32-13l-33 33h363l36 37 64-63c2-7-1-10-10-8-12 2-27 0-45-6M208 950l88-44c11-7 13-12 7-16-15 0-27-5-36-15-23-64-46-121-70-173V140l2-95c-5-25-22-40-52-45 4 25 6 87 7 185v433c-45-79-92-140-142-182l-12 6c66 86 120 182 163 289 43 108 62 167 57 179-5 13-11 23-18 32l6 8m341 2 88-35c9-3 11-7 6-11-13-4-23-11-31-19v-85h184l36 52 78-57c13-10 9-15-13-15H612V644h155l42 52 74-58c14-11 11-15-11-14H416c-18 1-32-4-44-13l-33 33h230v138H356c-17 1-32-3-45-12l-32 32h290v93c2 10-8 26-28 46l8 11Z"/></symbol><symbol id="𰁶_G" viewBox="0 0 1000 1000" data-size="21"><path transform="matrix(1 0 0 -1 24 982)" d="M229 708h418c-1 20-1 42-1 65v134c-3 20-13 35-29 47l6 10 98-26c6-10 6-14-2-15-14-4-24-11-31-20V767c0-23 0-42 1-59h135l41 48 82-54c8-11 4-15-12-14H690c3-90 7-157 12-200 8-55 17-102 27-141 11-39 23-75 37-107 15-34 29-61 44-80 11-17 26-33 44-50 19-19 33 4 41 69l16 114 16-4c-8-80-12-136-12-168-1-32 4-56 15-69 9-14 12-24 8-30-6-5-15-8-28-6-14 2-30 9-50 21s-43 36-69 69-48 71-64 114c-17 40-29 74-37 102-7 27-15 66-24 116-8 42-14 125-19 250H307c-18 0-33-4-46-12l-32 32m-14 255 86-48c10-5 12-10 7-15-15-1-29-6-42-16-26-69-51-131-78-185V141l2-96c0-14-4-24-13-30S156 4 139 0c2 25 5 88 7 187v428C101 535 55 474 8 433l-8 6c59 86 113 185 161 297 47 112 68 174 64 187-5 12-11 22-18 32l8 8m535-46 6 13c41-16 72-34 95-53 20-20 33-40 39-60 4-19 0-32-14-38-14-7-25 0-33 22-9 20-19 39-30 57-12 17-33 36-63 59M341 498c17-3 21-7 12-13-19-4-31-12-35-26V154c32 5 65 10 98 17v404c2 16-8 32-30 49l6 11 95-33c11-4 13-7 7-11-15-5-27-12-35-23V179l98 17v255c0 15-9 30-28 44l5 11 92-26c10-3 11-6 3-10-17-5-27-17-31-33V242l5-98c1-26-14-41-46-45v77c-19-4-45-10-78-18-34-8-67-16-100-25-36-9-56-15-62-18-2-3-9-11-20-23l-56 41c16 5 28 13 36 24v317c-2 17-9 30-21 40l6 10 79-26Z"/></symbol><symbol id="𰁷_G" viewBox="0 0 1000 1000" data-size="21"><path transform="matrix(1 0 0 -1 46 971)" d="M404 795v-89h168v89H404m390 0H617v-89h177v89M571 593c0 12 1 25 1 40v55H404v-95h167m46 95v-95h177v95H617M226 943l76-58c3-6 2-10-4-11-11 4-22 4-33-1-22-23-45-45-69-64l43-17c9-4 11-7 6-11-14-6-23-12-29-20V582l3-69c0-14-5-24-15-31-10-5-23-10-40-14 3 25 5 77 7 155v148c1 4 0 10-2 16-52-39-106-71-160-97l-9 15c74 49 131 93 169 133 38 39 57 63 57 71s-4 17-10 27l10 7m-67-531-28 26h421l40 33 78-45c7-9 6-13-3-12-21 1-39-3-54-10-124-67-217-122-279-165-64-44-104-75-117-93-16-18-23-34-22-48-4-21 41-37 133-50 143-5 251-7 322-5 72 4 121 9 149 16 27 4 43 18 49 43 3 28 5 62 6 102l15-1c4-50 7-83 9-99 1-16 11-29 30-41-12-16-22-28-32-33-11-4-20-7-27-9-9-2-26-5-49-9-24-4-71-7-142-9-70-3-139-3-206-1-66 1-114 3-142 5-71 2-122 18-154 47-9 15-13 30-13 45 0 16 6 32 17 47 12 14 33 36 64 64 30 29 137 99 323 210H191c-17-1-27-4-32-8m195 443 42-42h176v67c2 9-7 22-26 40l9 11 85-32c9-3 11-7 6-9-13-6-23-12-29-19v-58h164l29 38 45-38c8-8 7-14-4-18l-15-12v-91l6-117c0-11-4-19-11-25-8-7-20-12-37-15v40H617l3-69c0-12-4-21-13-27-10-5-24-9-42-13 2 17 4 53 5 109H404v-4c0-12-5-21-14-27-11-6-22-10-34-13 2 22 4 90 6 204v60c-2 18-8 34-18 51l10 9Z"/></symbol><symbol id="𰁸_B" viewBox="0 0 1000 1000" data-size="21"><path transform="matrix(1 0 0 -1 48 962)" d="M365 827c-4 5-3 9 1 13 3 3 9 2 15-4 82-65 121-117 119-154 0-13-6-28-18-46-11-14-19-20-26-19-6 1-9 8-9 20-6 62-34 125-82 190m410 10c0 5 2 7 4 8 5 2 29-9 73-32 9-5 13-9 11-12-1-4-4-6-8-6-20 0-37-15-49-45-17-36-44-81-82-133-5-10-12-12-20-7-7 4-7 12-1 22 34 61 58 129 72 205M575 577v257c-1 26-2 48-4 69-1 10 2 14 8 12 35-11 58-19 70-25 9-6 8-11-2-16s-16-11-19-17c-4-9-7-16-7-23V577h173c8 0 14 3 19 7l24 26c3 4 8 5 14 1 20-15 37-29 52-41 4-6 4-8-2-9-11-2-20-6-26-12-5-6-7-12-7-18V210c0-44 3-98 7-163 0-8-3-14-9-18-30-17-46-25-48-25-3 2-4 7-3 18 2 22 3 49 4 80H367c-28-1-52-3-72-7-6-2-9 0-10 6-3 12-9 22-19 30-5 5-7 8-4 11 3 2 6 2 11-1 25-6 52-9 82-9h465c0 16 0 32 1 50v146H429c-27 0-51-2-71-6-6-2-9 0-10 5-3 12-10 22-20 31-5 4-6 8-3 10 2 2 6 2 10 0 25-6 52-9 82-9h404v188H429c-27 0-51-3-71-7-6-2-9 0-10 6-3 12-10 22-20 30-5 5-6 9-3 11 2 2 6 2 10-1 25-6 52-9 82-9h158M165 703c47 106 72 177 75 212 1 11 7 14 17 7 25-15 42-26 52-33 7-5 11-10 11-14-1-3-5-5-13-6-7-1-13-3-17-5-7-8-21-33-41-75-18-38-38-78-60-120 17-6 32-13 46-21 8-5 8-9 0-13-20-10-31-17-33-21-2-6-3-29-3-69V234c0-82 1-150 3-205 0-6-2-9-6-10-15-6-29-12-43-18-6-1-9 4-8 14 4 87 6 159 7 219v311c-1 22-2 40-2 56-3-3-4-6-5-9-33-53-74-110-123-171-7-6-12-8-17-4-5 5-5 10 1 17 59 73 112 163 159 269Z"/></symbol><symbol id="𰁹_G" viewBox="0 0 1000 1000" data-size="21"><path transform="matrix(1 0 0 -1 24 974)" d="M446 679V522h317v157H446M226 947l87-45c11-6 13-10 6-14-11-2-24-6-38-15-26-66-53-125-81-177V141l2-96c-1-25-18-40-54-45 4 25 6 87 7 186v432c-47-78-95-136-143-173L0 456c58 74 112 160 161 258 50 98 74 161 73 190-2 14-7 25-14 34l6 9m537-83H446V696h317v168m-365 65 39-45h309l34 40 51-48c9-8 7-13-6-17l-17-8V620l4-129c0-15-3-26-11-31-8-6-21-10-38-12v55H621V313h225l32 38 66-45c13-11 9-15-12-13H621V119l3-69c0-14-5-24-15-30-9-6-23-11-40-15 4 25 6 77 8 155v133H361c-17 0-33-4-46-13l-31 33h293v190H446v-42c0-14-4-24-13-30-9-7-22-12-38-15 2 25 4 77 6 155v305c-4 16-9 29-17 41l14 12Z"/></symbol><symbol id="𰁺_G" viewBox="0 0 1000 1000" data-size="21"><path transform="matrix(1 0 0 -1 12 981)" d="m425 776 80-33c9-3 11-7 6-11-11-3-19-9-27-17v-81h221l24 31 66-39c11-8 9-12-6-12H484V487h254l30 43 51-41c12-8 12-15 0-19l-20-13V82c0-17-3-33-11-47s-33-24-74-30c-3 19-18 34-45 45-27 10-54 17-79 22l2 14c73-11 116-17 129-17s22 2 26 6c5 4 7 28 7 71v322H169V121l5-76c0-14-5-24-16-30-10-6-23-11-41-15 3 25 5 73 7 144v338c-2 12-7 23-17 34l16 12 39-41h279v238c2 10-6 24-24 41l8 10m552-99v-16c-48 3-75-7-81-31-110 21-213 65-310 132-44 31-88 74-133 129-66-79-131-141-197-185-69-48-152-88-250-119l-6 12c176 83 299 169 366 256 36 43 55 68 57 77 2 7 0 15-6 24l9 6 78-38c11-5 13-9 6-13-17 2-31-1-44-8 45-39 85-71 119-97 72-50 143-83 213-100 35-10 64-17 88-20 24-4 55-7 91-9M627 191c27-27 41-48 41-63-5-38-23-37-55 6-28 38-68 76-120 113-81-77-173-135-277-174l-7 12c93 47 178 108 256 183-60 39-129 79-208 118l5 10c73-27 148-62 225-106 39 41 74 86 105 135 0 6-4 13-11 19l6 8 73-36c7-6 7-11 0-15-12 0-24-3-36-7-33-43-68-84-105-123 46-28 83-54 108-80Z"/></symbol><symbol id="𰁻_G" viewBox="0 0 1000 1000" data-size="21"><path transform="matrix(1 0 0 -1 24 979)" d="M799 331V189c1-39-2-68-11-86-8-19-31-32-67-40-5 35-46 58-123 70l2 15c73-15 117-21 132-20 16 1 24 18 24 49v170H485V113l3-68c0-25-18-40-52-45 3 25 5 76 6 150v197H176V162l4-59c-1-26-19-41-54-45 3 25 6 75 7 149v148c0 15-5 26-16 35l15 10 33-36h277v117H273v-5c0-26-17-41-51-45 3 26 5 58 7 96v105c-3 14-8 26-16 37-70-48-139-84-209-108l-4 13c70 38 138 81 203 130s115 94 151 134c35 40 56 66 62 79 7 12 8 23 1 32l9 8 83-49c9-6 8-11-2-12-11 0-21-2-31-5 17-18 37-36 60-54 65-52 130-90 196-116 58-28 131-44 219-49v-17c-35 0-56-4-63-9-7-6-14-16-21-30-126 37-232 93-318 168-36 30-67 62-94 97-75-81-151-148-226-200l40-41h370l34 38 51-44c9-8 7-14-6-17l-18-9v-53l4-75c3-27-14-41-49-42v43H485V364h255l28 40 50-42c12-8 12-14 0-18l-19-13M273 499h382v123H273V499Z"/></symbol><symbol id="𰁼_K" viewBox="0 0 1000 1000" data-size="21"><path transform="matrix(1 0 0 -1 65 943)" d="M530 304h118v224H530V304m-45 276 47-26h105l22 26 40-29c16-12 20-21 13-27-5-4-13-6-25-6V312l1-24c1-17 0-28-1-33-1-7-6-12-15-16-12-3-19-2-22 3-2 4-3 13-2 27l1 9H530v-33c1-16 0-26-1-29-1-5-6-10-13-13-14-5-23-4-26 1-3 3-4 11-3 23l1 8v277l-3 68M347 733l49-28h132c7 31 19 86 38 165l52-14c21-7 31-12 29-16-3-5-14-9-35-12l-61-123h233l32 28 36-28c13-11 19-19 18-24s-12-8-33-8V96c0-25-5-44-16-57-14-17-38-29-71-35l-6 29c-3 5-9 10-20 14-14 5-38 12-71 20l3 11c21-1 38-3 52-4 21-1 41-2 60-3 9 1 15 3 19 6 4 4 6 10 7 19v583H398V48c1-11 1-19-2-24-4-8-13-13-27-15-10-2-16-1-18 2-2 1-2 7-1 16l2 11v634l-5 61M149 575c-25-31-46-58-64-79-20-23-45-49-75-80L0 427c55 59 110 135 163 230 49 87 84 164 104 230l51-22c23-10 30-18 23-23-6-4-19-6-38-7-14-29-30-61-49-94-19-32-37-62-54-89 20-9 27-17 22-23-5-5-14-8-27-8V39c1-13 0-22-2-25-3-5-10-9-23-12-11-2-17-1-20 4-1 3-2 12-2 25l1 16v528Z"/></symbol><symbol id="𰁽_B" viewBox="0 0 1000 1000" data-size="21"><path transform="matrix(1 0 0 -1 39 963)" d="M689 881c48-179 125-295 231-348 4-2 5-5 3-10-2-4-8-5-16-3-12 3-24 2-37-4-10-5-18-12-24-22-3-4-6-3-11 3-52 63-90 122-112 177-20 44-36 103-50 176-2-5-5-11-7-17-62-156-135-279-219-368-6-7-10-8-15-4-7 5 1 20 22 44 95 132 151 270 169 413 1 6 4 9 10 8 29-7 54-14 76-22 7-2 10-5 9-9-2-4-7-7-16-9-6-1-11-3-13-5m36-354c-1 11 2 15 10 13 35-11 58-20 70-27 9-4 8-9-2-15-10-5-17-11-19-18-5-12-7-38-7-78V239c0-76 1-140 4-191 0-6-1-10-5-12-9-6-23-15-41-27-9-6-13-2-12 11 4 87 6 160 7 219v163c-1 52-2 94-5 125m-176 7c-1 10 2 15 10 13 35-12 59-20 70-27 9-5 10-10 1-13-2-1-5-2-7-4-15-9-22-40-22-93-1-101-9-180-24-236-22-62-69-117-141-166-11-7-18-8-23-1-3 7-1 13 5 17 30 23 53 46 72 69 57 75 77 222 59 441m-224-7c-2 11 1 15 9 13 35-11 59-20 71-27 9-4 8-9-2-15-11-5-17-11-20-18-4-12-7-38-7-78V239c0-76 2-140 4-191 1-6-1-10-5-12-9-6-22-15-41-27-8-6-12-2-11 11 3 87 6 160 6 219v163c0 52-2 94-4 125m-186 7c-1 10 2 15 10 13 35-12 58-20 70-27 9-5 10-10 1-13-3-1-5-2-7-4-15-9-22-40-22-93-2-101-9-180-24-236C145 112 98 57 26 8 15 1 8 0 3 7c-3 7-1 13 5 17 29 23 53 46 71 69 58 75 78 222 60 441m54 209c41 87 64 145 66 175 2 10 8 12 19 6 23-15 40-27 49-35 8-6 12-11 11-13 0-4-5-6-13-6-8-2-13-3-16-6-5-4-12-13-20-27 50-20 93-41 128-65 33-28 50-57 52-86 4-12 3-28-4-49-4-17-11-25-18-26-8-1-12 4-15 17-21 44-49 87-84 129-25 26-48 47-68 64-3-5-6-10-8-17-26-50-58-103-95-159-29-42-65-88-108-138-7-6-12-7-17-2-4 4-4 10 2 16 51 59 97 133 139 222Z"/></symbol><symbol id="𰁾_B" viewBox="0 0 1000 1000" data-size="21"><path transform="matrix(1 0 0 -1 52 967)" d="M143 708c39 105 59 174 60 208 0 11 6 14 17 8 26-13 44-23 54-29 8-5 11-10 11-14 0-2-4-4-12-6-8-1-13-4-16-7-7-8-19-32-36-74-16-41-35-84-56-128 19-6 35-14 50-22 8-5 8-9 0-13-20-10-31-17-33-21-2-6-4-29-4-69V234c0-82 2-150 4-205 0-6-2-9-7-10-14-6-28-12-43-18-5-1-8 4-7 14 4 87 6 159 7 219v307c-1 21-2 40-2 56-29-53-65-110-109-171-6-7-12-9-16-5-5 5-5 10 0 17 52 74 99 164 138 270m429-156c-1 11 2 15 10 13 35-11 58-20 70-27 9-5 9-9 1-13-12-7-20-14-22-20-5-12-7-37-7-77 0-86-6-148-18-187-12-41-37-78-73-109C479 86 393 45 273 9c-14-4-22-2-24 4-3 8 1 16 12 22 93 30 160 61 202 93 18 13 33 27 44 40 62 61 84 189 65 384m57-359c-6 4-7 8-4 14 4 6 10 6 18 0 95-23 165-52 212-87 23-26 35-45 35-59 2-16-2-28-10-38-10-10-16-15-20-15-4-1-9 6-15 20-46 60-118 115-216 165m63 646c7 0 11 2 14 6l27 29c2 3 4 4 7 4 7 0 25-19 55-58 5-8 3-12-7-13-7 0-12-1-17-3-35-6-80-53-135-141h149c8 0 14 3 18 7l25 26c3 4 8 5 13 1 21-15 38-29 52-41 5-6 4-9-2-9-11-2-19-6-25-12-5-6-8-12-8-18V421c1-44 3-98 8-163 0-8-3-15-10-18-29-17-45-25-48-25-2 1-3 7-3 18 4 38 6 91 6 160v240H432V242c0-10-13-23-37-40-5-2-9-3-12-3s-5 7-4 19c2 65 4 132 6 201v188c0 19-3 43-6 70-40-41-67-67-81-77-7-6-12-7-16-2-3 5-2 9 3 14 97 110 162 215 196 315 1 7 5 10 11 7 27-12 51-23 71-33 7-4 9-7 7-10-1-4-7-6-17-7-8-1-14-3-18-8-10-5-18-17-25-37h182m-80-176c1 3 2 6 4 8 26 48 50 94 72 138H491c-37-53-71-94-101-121 9-9 19-17 29-25h193Z"/></symbol><symbol id="𰁿_S" viewBox="0 0 1000 1000" data-size="21"><path transform="matrix(1 0 0 -1 34 967)" d="M197 512h549l32 26 58-48-26-20V36L746 5v42H197V31L134 0v543l63-31m0-22V68h549v422H197m178-103h189l32 26 57-47-26-21V163l-63-31v53H375v-38l-63-31v303l63-32m0-21V205h189v161H375m400 222-46 28-43 31-43 35-41 37-39 40-38 42-34 46-12 16-14-20-41-51-44-47-46-44-49-41-51-38-54-34-56-30-59-28-61-22-4 8 57 32 53 33 51 36 49 37 46 40 44 42 41 45 39 47 37 50 31 48-1 1 6 8 50-39 8-17-20 1-1-2 58-56 41-37 42-33 42-31 43-29 44-26 45-23 46-21 81-32-61-51-49 24-47 25Z"/></symbol><symbol id="𰂀_G" viewBox="0 0 1000 1000" data-size="21"><path transform="matrix(1 0 0 -1 26 978)" d="m492 448 38-45h291l34 40 51-47c9-8 7-14-6-17l-17-9V129l4-39c2-27-14-42-49-43v66H540V75c0-25-17-40-52-45 4 26 6 82 7 170v196c-2 15-8 29-17 41l14 11m48-315h298v251H540V133m306 802 59-59c12-12 12-18 0-20-39 10-105 3-196-21-96-21-191-37-285-50V625h420l31 39 66-49c11-8 10-11-5-10H424v-86c0-132-14-237-41-315-27-77-71-141-133-189l-12 12c56 65 94 133 114 202 18 71 28 176 27 317v238c-4 16-13 32-26 50l8 10 55-42c91 20 162 36 212 49 113 28 178 48 196 58 6 4 11 12 14 24l8 2m-609 21 96-49c6-6 6-11-1-13-14 0-28-4-42-13-27-71-55-135-83-193V140l2-95c-5-25-22-40-54-45 4 25 6 87 7 185v419C113 519 61 453 8 406l-8 9c79 110 141 219 186 326 44 108 65 167 60 177-4 10-9 20-15 30l6 8Z"/></symbol><symbol id="𰂁_G" viewBox="0 0 1000 1000" data-size="21"><path transform="matrix(1 0 0 -1 37 977)" d="m355 924 9 10c66-49 102-90 110-122 10-41 1-63-27-65-13 1-20 12-20 33-1 22-7 44-18 68-10 24-27 49-54 76m311-136 84-34c9-3 11-6 6-11-14-5-24-12-29-20V292l2-56c1-24-15-39-49-43 3 24 5 73 7 145v394c1 11-9 26-30 45l9 11m182 109c-1 15-10 30-27 45l7 11 87-37c12-5 15-10 7-14-11-3-22-8-31-15V83c-1-23-7-41-17-54S843 7 810 0c-2 16-11 28-26 35s-44 16-87 28l2 17 44-10c44-9 72-11 84-6 13 6 20 23 21 51v782M279 641c81-78 138-137 171-179 0 2 1 3 1 5 25 71 42 147 51 229H313c-18 1-33-3-45-12l-36 32h328l29 35 62-45c8-5 6-8-6-10h-92c-12-86-31-164-57-236-4-14-9-27-15-40 22-31 40-60 56-87 31-57 48-103 51-139 2-35-7-53-28-53-13 0-23 17-28 50-4 35-14 69-30 104-10 23-23 49-40 78-20-41-44-80-70-117-43-62-104-120-183-173l-8 16c57 47 108 101 151 163 33 48 60 100 82 156v1c-30 47-85 118-165 213l10 9m-60 307 75-35c10-7 13-12 7-14-8-1-19-6-33-16-28-71-56-134-84-189V146l2-95c0-14-5-24-14-30s-22-11-39-15c2 25 5 87 7 186v427C99 555 57 505 12 469l-12 7c60 74 114 162 161 263 46 101 68 157 66 169s-7 23-15 32l7 8Z"/></symbol><symbol id="𰂂_G" viewBox="0 0 1000 1000" data-size="21"><path transform="matrix(1 0 0 -1 19 979)" d="m212 957 74-46c11-6 13-11 7-15-10 1-22-4-36-14-26-74-55-141-85-199V140l2-95c-1-25-17-40-50-45 3 25 6 87 7 185v425C94 550 54 502 12 464l-12 7c63 80 116 172 159 275 43 102 63 159 61 171s-7 23-14 32l6 8m321-246 17-4c-15-47-37-118-68-212s-58-175-83-241c-5-15-5-53 1-115 6-63-2-95-24-97-23-2-30 29-21 92 10 62 9 97-3 105-12 9-39 15-82 18l-2 17c47-7 78-3 92 12 14 17 26 39 36 65 11 20 56 141 137 360M330 894l4 12c84-24 132-48 145-72 10-13 14-27 12-42-1-15-8-22-19-22-12 0-20 7-25 23-6 16-16 31-30 47-14 15-43 33-87 54m-49-258 4 12c59-26 98-50 117-74 20-36 16-57-10-64-12 0-19 7-22 21-1 15-8 29-19 43-11 15-35 35-70 62m218-527h207v695h-93c-17 0-32-5-45-13l-33 32h296l32 39 67-49c9-8 8-11-6-9H747V109h110l32 40 66-49c10-8 8-11-6-10H577c-18 1-33-3-45-13l-33 32Z"/></symbol><symbol id="𰂂_V" viewBox="0 0 1000 1000" data-size="20"><path transform="matrix(1 0 0 -1 43 1000)" d="M216 623V35c-9-9-17-16-23-21s-16-9-29-14v638c-22-37-45-73-69-110-24-36-51-70-80-102l-15 9c24 39 45 75 63 107s34 63 49 93c15 31 30 63 44 96 14 34 29 73 44 116 9 23 17 48 26 75s15 53 18 78l71-46c-23-36-43-76-59-119s-33-85-50-124l30-31c-1-1-3-6-6-16-3-9-7-19-10-28l-4-13M455 26c-11-13-24-19-41-19-19 0-28 9-28 27 0 8 0 16 1 24 1 7 2 15 3 23l5 32c1 7 2 15 3 23s1 16 1 24c0 16-1 32-4 47-2 15-7 29-15 41-8 13-21 22-39 27l4 15h2l5-1c17 0 31 5 44 14 13 10 22 23 27 38 7 23 13 46 17 69 5 24 9 47 14 70 5 20 9 40 14 59 5 20 10 40 14 59l82 400 19 2-113-701c-7-45-11-90-13-136-1-46-2-92-2-137m25 830c0-5-1-11-2-20s-4-17-8-24c-3-7-9-10-16-10-5 0-10 2-15 7s-8 9-11 14c-13 25-24 46-35 65-10 19-27 37-51 54l4 11c11-2 23-6 38-11s30-12 45-21 27-18 36-29c10-11 15-23 15-36M914 97H604l-13-3c-9-2-18-4-27-5-9-2-14-3-15-4l-15 34h154v699h-63c1 0-3-1-10-4-7-2-14-4-21-7-7-2-11-3-12-4l-16 37h209l40 45 50-67H741V119h78l39 43 56-65M404 603c0-7-1-16-4-26-2-9-6-18-11-25s-13-11-23-11c-5 0-8 2-10 5s-4 7-5 11c-10 31-19 60-28 85-8 26-23 52-44 77l7 8c15-6 31-16 49-29 19-13 35-27 48-44 14-17 21-34 21-51Z"/></symbol><symbol id="𰂃_G" viewBox="0 0 1000 1000" data-size="21"><path transform="matrix(1 0 0 -1 23 985)" d="m368 351 7 10c68-34 108-72 118-114 11-41 3-62-22-64-12 0-20 10-23 30-2 21-9 43-22 66-12 24-31 48-58 72m-46 265h460v118H442c-17 1-32-3-44-11l-33 29h417v119H402c-11 1-24-3-37-14l-34 34h436l36 39 48-47c9-8 7-13-4-16l-20-8V631l6-60c-3-22-20-33-51-32v58H399c-17 0-32-5-44-14l-33 33m380-117c-1 15-12 27-33 37l8 12 94-30c12-6 14-10 6-13-11-4-21-10-30-17v-53h98l34 43 66-49c15-10 11-15-10-14H747V96c-1-23-6-41-18-53-10-12-37-24-82-34-1 21-10 35-25 41-14 5-43 13-85 25l2 18 43-10c83-23 123-8 120 45v287H303c-18 1-32-4-44-13l-33 33h476v64M217 971l80-36c12-6 15-11 7-15-17-2-29-9-36-21-28-80-58-151-89-213l40-14c7-3 7-7 1-10-12-6-21-13-28-20V128l2-83c0-15-5-25-16-29-9-7-21-12-35-16 3 22 5 78 6 167v462C104 549 57 485 8 438l-8 10c70 102 127 207 169 314 42 105 61 163 58 173-4 9-10 18-16 28l6 8Z"/></symbol><symbol id="𰂄_G" viewBox="0 0 1000 1000" data-size="21"><path transform="matrix(1 0 0 -1 35 980)" d="m385 848-34 34h441l36 38 49-46c9-8 8-14-4-16l-20-8v-93l6-64c0-12-5-20-15-25s-22-8-36-8v48H433l-29-141h408l33 39 57-53c4-6 2-10-6-11l-23-10c-2-74-5-131-10-172-4-41-12-78-24-110-13-31-30-54-53-67-24-14-53-25-87-33-1 18-10 32-26 41-27 15-57 24-91 30l4 17c42-9 79-16 110-19 37-3 64 6 83 25 19 20 32 56 37 109 6 50 10 115 12 195H413l-25-30-50 36c12 6 21 16 25 30l29 137c-4 21-10 39-20 52l18 13 42-58h376v134H422c-12 1-24-4-37-14M235 960l90-46c11-6 14-10 7-13-14-2-28-8-40-20-27-66-54-125-81-178V140l2-95c-1-25-19-40-54-45 3 25 6 87 7 185v437C115 536 62 471 8 428l-8 10c61 73 118 169 173 288 55 117 79 182 74 194-4 12-10 23-18 32l6 8m243-432 77-29c6-6 5-11-2-13-9-1-19-5-30-11-7-21-16-39-26-57 44-12 81-27 113-43 83-52 111-93 83-124-12-12-25-5-40 21s-35 49-61 70c-22 15-57 34-107 56-44-70-113-124-207-163l-10 16c116 72 186 149 209 231 7 13 4 25-9 37l10 9M274 94h554l31 39 67-49c8-5 6-8-6-10H352c-18 1-33-3-44-12l-34 32Z"/></symbol><symbol id="𰂅_G" viewBox="0 0 1000 1000" data-size="21"><path transform="matrix(1 0 0 -1 24 986)" d="M951 688v-17c-35-1-56-4-63-10s-14-15-21-29c-82 23-156 54-220 95l61-56c10-8 8-11-6-10H282c-17 1-32-3-44-13l-32 32C138 634 71 600 4 576l-4 14c70 38 138 81 203 130s115 93 151 134c35 39 56 66 62 79 7 12 8 23 1 32l9 8 83-49c9-7 8-11-2-13-11 0-21-1-31-5 17-17 37-35 60-53 65-52 130-91 196-117 58-27 131-43 219-48m-748-83 43-50h409l34 43 51-50c9-9 7-15-6-19l-17-9v-52l4-84c2-31-14-47-49-48v41H251v-17c0-25-17-39-52-41 3 30 6 66 7 110v117c-3 17-8 33-18 46l15 13m48-209h421v139H251V396m480-90 85-35c10-4 11-7 6-11-13-5-23-12-29-21V128l4-83c-4-25-19-40-45-45v61H184l-31-43-52 41c17 15 26 30 29 43v156c-1 10-9 22-23 36l7 9 81-35c11-4 13-8 7-12-13-3-23-9-31-18V80h270v236c2 11-7 24-26 41l8 11 82-33c9-3 11-7 6-11-13-3-22-9-29-17V80h270v169c1 10-9 25-29 45l8 12M455 896c-83-88-165-160-248-215h403l36 47c-34 22-67 46-97 72-36 30-67 62-94 96Z"/></symbol><symbol id="𰂆_G" viewBox="0 0 1000 1000" data-size="21"><path transform="matrix(1 0 0 -1 14 982)" d="m233 965 92-46c11-6 13-11 6-17-14 1-28-4-42-14-25-71-51-135-77-192V140l2-95c-1-25-19-40-52-45 3 25 6 87 7 185v427C119 526 66 462 12 418l-12 7c76 95 137 198 183 309 46 112 66 174 61 188-4 14-10 26-16 35l5 8m412-46c4-4 4-7-1-9-11-2-21-8-32-16V169c1-35 6-57 16-65 11-8 29-14 55-16 21-3 51-5 90-4 27-1 53 1 77 5 32 5 50 18 52 39 6 24 9 71 12 140h14l2-95c1-35 11-57 31-67-18-35-42-55-72-57-18-5-53-7-105-6-51-1-94 1-131 8-58 8-86 47-84 116v736c-1 16-10 30-27 43l7 12 96-39M247 582h132v174c1 10-6 23-23 41l7 11 75-34c9-3 11-7 5-10-11-4-19-10-25-18V582h30l31 40 63-50c10-8 8-11-6-9H418V308l139 34 4-16c-92-33-170-60-235-80-15-6-28-17-40-30l-37 54 130 29v264h-59c-16 0-30-5-42-13l-31 32m385 4h133v164c1 10-7 23-25 41l8 11 76-33c9-4 11-8 6-11-12-4-20-10-26-18V586h43l30 39 65-49c10-8 8-12-6-10H804V321h66l30 39 66-48c10-9 8-12-6-10H701c-17 0-31-4-43-13l-32 32h139v245h-58c-17 0-31-4-43-12l-32 32Z"/></symbol><symbol id="𰂇_G" viewBox="0 0 1000 1000" data-size="21"><path transform="matrix(1 0 0 -1 28 976)" d="m729 247 9 12c107-64 172-123 197-176 13-27 11-46-6-57-15-11-29-2-42 29-13 30-33 62-61 95-28 34-60 66-97 97m-222 33 78-51c9-7 8-11-2-13-12-1-24-3-36-6-82-96-167-162-258-198l-4 11c88 66 151 123 190 171 20 26 30 42 30 49 0 9-3 18-9 28l11 9m330 412H444V526h393v166m-393 17h393v166H444V709m393-198H444V339h393v172M390 940l46-46h381l39 40 54-49c11-8 9-14-6-17l-20-9V414l5-105c4-30-14-47-52-51v61H444v-30c2-25-15-41-52-47 3 26 5 77 6 155v489c-3 16-11 30-23 41l15 13m-152 11 78-36c10-6 12-11 7-15-14 0-25-6-34-16-22-69-45-131-69-188V139l5-95c-2-25-21-40-57-44 3 24 6 78 7 161v441C124 509 69 436 10 382L0 392c89 117 152 231 191 339 39 109 57 169 54 182-2 12-7 23-13 30l6 8Z"/></symbol><symbol id="𰂈_G" viewBox="0 0 1000 1000" data-size="21"><path transform="matrix(1 0 0 -1 10 971)" d="m579 597-27 32h116c12 40 21 79 28 116 19 93 28 143 27 152-1 10-5 19-12 28l8 11 74-42c4-6 3-9-4-11-10 0-18-3-22-8s-10-29-19-72c-12-61-26-119-42-174h194l23 35 52-45c8-6 6-10-5-10h-96c-5-128-34-247-88-357 53-45 94-98 122-160 16-37 17-63 3-77-14-15-27-4-39 33-21 65-56 122-104 170C704 107 605 36 469 5l-9 16c128 40 220 115 278 226-41 38-91 80-149 127 29 85 53 163 73 235h-47c-14 1-26-3-36-12M200 941l84-40c11-7 14-12 7-14-14 0-27-5-38-17-23-70-48-132-75-188V140l2-95c-1-25-18-40-50-45 3 25 5 87 7 185v420C97 540 53 486 6 444l-6 11c66 87 118 180 158 279 41 100 59 156 54 167-5 13-11 23-18 33l6 7m416-563c52-35 98-68 139-100 47 103 73 214 78 331H700c-23-73-51-150-84-231m-71 317 15-4-92-339c-20-60-33-99-38-118-5-15-5-53 1-116s-2-96-22-97c-19-3-24 28-16 92 7 63 6 99-4 107-11 8-34 14-71 17l-2 18c41-7 68-3 80 13 12 14 22 33 31 56 10 24 49 147 118 371m-302 42 83-24c9-3 11-7 6-11-16-5-27-12-33-20V276l2-55c-1-25-16-39-44-43 3 24 5 72 7 144v369c1 11-7 23-25 37l4 9m127 143 4 13c72-25 114-49 124-74 9-13 13-27 12-42-2-15-8-22-18-22s-17 8-21 23c-4 16-13 32-26 47-12 16-37 34-75 55m-42-261 4 13c50-26 84-51 101-74 17-37 14-59-9-66-11 0-17 7-19 22-2 14-8 29-17 44-10 14-30 34-60 61Z"/></symbol><symbol id="𰂉_G" viewBox="0 0 1000 1000" data-size="21"><path transform="matrix(1 0 0 -1 10 979)" d="m287 372-34 32h160c1 23 1 47 1 73v159c-1 15-9 31-22 47l11 11 49-46h301l29 42 51-41c13-8 13-14 0-18l-20-14V404h67l33 42 61-51c9-9 7-12-6-10H813V87c0-17-3-33-11-47s-32-24-73-30c-3 19-18 34-45 45-28 9-54 17-80 22l2 14c74-11 117-17 129-17 13 0 22 2 27 6 4 4 7 28 7 71v234H455c-5-97-22-175-50-235S334 40 274 0l-9 13c48 48 83 100 106 157s37 128 41 215h-81c-18 0-32-4-44-13m171 120c0-31-1-60-2-88h313v225H458V492M222 957l86-46c11-7 13-13 6-16-14 0-26-4-36-13-24-63-49-120-75-171V148l2-94c3-26-15-41-52-45 4 25 6 87 7 184v439c-48-83-97-146-148-190l-12 7c66 86 122 182 170 289 47 108 69 167 63 179-4 12-10 23-17 32l6 8m286-52c7-7 7-12 0-14-13 3-26-3-39-17-13-31-28-63-46-96h391l40 49 73-55c14-10 11-15-11-13H412c-36-63-79-120-131-169l-11 11c76 112 124 195 142 249 12 28 19 46 21 55s-3 21-15 34l8 8 82-42m24-335 6 12c44-13 77-29 97-49 20-19 32-40 36-61s-1-34-15-38c-13-5-23 4-27 26-5 21-15 41-29 60-17 18-39 35-68 50m-5-246 6 11c44-14 74-30 92-49 20-20 31-40 34-59 3-22-1-34-14-38-14-4-23 4-28 26-4 20-13 40-27 58-16 18-37 35-63 51Z"/></symbol><symbol id="𰂊_G" viewBox="0 0 1000 1000" data-size="21"><path transform="matrix(1 0 0 -1 28 978)" d="m214 948 86-44c11-6 13-10 7-14-15-2-27-7-36-15-25-60-50-115-76-164V151l2-106c-1-25-18-40-51-45 3 25 5 91 6 196v437c-46-76-93-136-142-180l-10 7c58 79 111 170 160 274 49 105 71 162 66 174-5 13-11 23-18 32l6 8m149-78 2 16c93-20 178-44 255-73 31 22 56 41 73 58 29 26 44 44 44 53 2 8 0 16-4 23l10 8 79-63c5-7 4-10-2-11-14 1-29 1-45 1-30-29-67-58-111-88 57-25 99-47 127-67 34-26 45-49 34-69-11-19-33-12-65 21-39 38-84 68-134 90-94-60-196-104-305-132l-4 16c94 36 183 81 267 135-53 22-127 50-221 82m277-223c7-5 7-10-1-13-15 0-26-5-35-18-13-27-27-54-43-82h277l32 43 65-49c14-10 10-15-11-13H549c-26-45-57-89-94-134-6-9-13-17-20-25h335l28 40 51-47c9-8 7-14-6-17l-18-9V154l4-90c2-27-14-41-47-43v73H438V58c0-26-16-41-50-45 3 25 5 77 7 155v146c-51-48-108-90-172-124l-7 12c70 53 129 107 176 161-4 11-10 21-17 31l19 9 14-20c37 45 67 89 92 132H337c-18 0-32-4-44-13l-33 32h251l10 19c27 54 40 86 39 95-2 10-6 19-13 28l8 9 85-38M438 113h344v224H438V113Z"/></symbol><symbol id="𰂋_B" viewBox="0 0 1000 1000" data-size="21"><path transform="matrix(1 0 0 -1 44 962)" d="M526 220c-1-5-3-8-5-9-7-2-17-7-31-12-10-4-15-3-14 3 1 17 2 34 3 50v366c-1 16-1 31-2 43 0 6 1 10 4 10 2 2 7 0 12-6 9-8 19-17 31-25h129c5-1 8 0 10 2l18 21c5 8 11 9 17 3 13-11 26-24 39-38 4-4 5-8 5-10-1-4-5-6-11-6-5-1-9-3-11-7-2-5-3-8-3-11V274c0-7 1-18 4-31 1-6 0-10-3-12-23-13-37-19-42-19-4 0-6 3-6 10v56H526v-58m0 390V472h144v138H526m0-168V308h144v134H526M318 741c-2 11 2 15 9 12 36-11 59-20 71-26 9-5 8-10-2-16-11-5-17-11-20-17-4-13-7-39-7-78V238c0-77 2-140 4-192 1-5-1-9-5-11-9-6-22-15-41-27-8-6-12-3-11 11 4 86 6 159 7 219v378c-1 52-3 93-5 125m45 146c-6 5-7 10-4 16 4 6 10 6 18 0 71-40 107-71 109-92 0-17-5-30-13-38-9-9-16-14-21-14-4-1-9 6-13 20-20 48-45 85-76 108m447-48c6 0 9 1 10 1l24 32c1 3 3 4 6 4s5-1 8-4c20-16 38-32 53-48 5-6 2-10-8-14-16-7-25-11-27-14-2-4-3-8-3-12V96c0-22-5-41-17-58-12-16-27-27-44-34-6-2-10-1-12 5-5 14-15 26-29 35-15 11-38 18-68 21-7 1-11 5-10 11 0 6 5 9 13 8 72-3 110-4 114-2 4 3 6 11 6 25v702H638c-27-1-51-3-71-7-6-2-9 0-10 6-3 12-10 22-20 30-5 5-6 8-3 11 2 2 6 2 10-1 25-6 52-9 82-9h184M165 703c47 106 72 177 75 212 1 11 7 14 17 7 25-15 42-26 52-33 7-5 11-10 11-14-1-3-5-5-13-6-7-1-13-3-17-5-7-8-21-33-41-75-18-38-38-78-60-120 17-6 32-13 46-21 8-5 8-9 0-13-20-10-31-17-33-21-2-6-3-29-3-69V234c0-82 1-150 3-205 0-6-2-9-6-10-15-6-29-12-43-18-6-1-9 4-8 14 4 87 6 159 7 219v311c-1 22-2 40-2 56-3-3-4-6-5-9-33-53-74-110-123-171-7-6-12-8-17-4-5 5-5 10 1 17 59 73 112 163 159 269Z"/></symbol><symbol id="𰂌_G" viewBox="0 0 1000 1000" data-size="21"><path transform="matrix(1 0 0 -1 45 974)" d="M516 947c30-6 56-14 80-25 23-12 39-25 49-40 9-16 12-29 8-40-3-12-10-18-22-19-11 0-19 7-23 23-3 15-12 31-28 47-16 15-38 29-68 41l4 13m-309-9 93-44c11-6 13-11 5-15-15-1-28-6-40-15-24-54-49-105-74-150V150l2-94c-4-26-21-41-53-45 3 24 5 86 6 184v444c-43-68-88-122-134-163l-12 6c62 82 115 168 160 260s65 144 60 155c-5 13-11 24-18 33l5 8m207-153c1-77 0-147-2-210h406v210H414m423-429H482V108h355v248m-406 69 42-49h341l33 44 58-44c9-8 7-13-6-17l-17-14V118l4-69c-1-12-5-20-12-24s-20-7-37-11v75H482V45c0-14-4-24-13-30S448 4 431 0c2 25 5 85 7 178v172c1 20-7 41-25 64l18 11m-73 424 44-44h404l30 40 49-48c9-8 7-13-6-17l-18-9V594l4-37c2-16-2-26-10-32-7-5-19-9-37-11v42H411c-4-107-13-197-26-271-22-122-67-214-136-275l-10 12c57 79 94 177 112 296 17 116 23 273 20 474-6 18-15 33-26 47l13 10Z"/></symbol><symbol id="𰂍_G" viewBox="0 0 1000 1000" data-size="21"><path transform="matrix(1 0 0 -1 25 985)" d="m949 62-2-15c-18-1-34-2-47-4-13-3-22-13-27-30-112 26-203 67-272 123-82-57-192-96-330-117l-7 18c123 28 225 70 305 127-56 53-104 126-142 218h-7c-12 0-21-4-27-13l-35 30h374l32 36 63-43c7-8 7-12-1-13-25-1-43-18-54-50-37-67-82-123-136-167 89-61 193-95 313-100M256 965l85-52c11-6 13-10 7-13-15-2-30-7-43-16-32-67-63-126-96-178V140l2-95c0-25-18-40-54-45 4 25 7 87 8 185v454C114 566 62 512 10 475l-10 7c72 79 134 170 188 273 56 103 81 160 75 172-4 12-9 22-15 30l8 8m432-123 8 13c99-41 159-83 183-124 13-21 13-37 0-48s-26-5-40 16c-9 15-19 29-29 42-135-9-259-16-372-21-20-4-41-13-64-27l-37 60c31 1 57 9 76 25 50 41 97 90 141 146 7 17 7 30 1 40l8 7 79-44c7-5 6-9-1-13-13 3-25 1-37-5-76-73-136-125-181-156 50 0 109 1 177 2 67 1 131 2 194 4-27 29-62 57-106 83M453 382c36-77 85-141 149-194 62 53 110 117 142 194H453m181 79c0-14-4-23-12-29s-20-11-38-14c3 23 5 62 7 117v129c1 10-9 25-30 45l8 12 88-35c9-4 11-8 6-11-14-6-23-13-29-21V461M439 631l65-38c8-7 9-11 2-13-18-1-34-9-48-24-55-60-117-106-184-139l-9 13c78 58 135 116 171 173 2 9 1 17-3 22l6 6m278-30 8 11c110-53 171-97 181-133 11-31 6-49-14-53-11-3-22 9-35 36-16 36-63 83-140 139Z"/></symbol><symbol id="𰂎_B" viewBox="0 0 1000 1000" data-size="21"><path transform="matrix(1 0 0 -1 44 966)" d="M363 895c-6 4-7 9-4 15 4 6 10 6 18 0 71-40 107-70 109-92 0-17-5-29-13-38-9-9-16-13-21-13-4-1-9 5-13 19-20 49-45 85-76 109m447-48c6 0 9 0 10 1l24 32c1 2 3 4 6 4s5-2 8-4c20-16 38-33 53-49 5-5 2-10-8-14-16-6-25-11-27-13-2-4-3-8-3-13V104c0-23-5-42-17-58s-27-28-44-34c-6-3-10-1-12 5-5 13-15 25-29 35-15 11-28 18-40 20-8 2-12 5-11 12 1 6 5 8 14 8 53-3 82-4 86-2s6 11 6 24v702H638c-27 0-51-3-71-6-6-2-9 0-10 5-3 12-10 22-20 31-5 4-6 8-3 10 2 2 6 2 10-1 25-5 52-8 82-8h184M165 711c47 105 72 176 75 212 1 11 7 13 17 7 25-16 42-27 52-34 7-5 11-9 11-13-1-3-5-5-13-6-7-1-13-3-17-6-7-8-21-32-41-74-18-39-38-79-60-120 17-7 32-14 46-22 8-4 8-9 0-12-20-10-31-17-33-22-2-6-3-29-3-68V241c0-81 1-150 3-205 0-6-2-9-6-10-15-5-29-11-43-17-6-2-9 3-8 13 4 87 6 160 7 219v312c-1 21-2 40-2 55-3-3-4-6-5-8-33-53-74-110-123-171-7-7-12-8-17-4s-5 10 1 16c59 74 112 164 159 270M713 93c0-23-6-42-18-56-13-16-28-26-44-32-8-5-13-5-15-1-11 16-29 29-53 41-19 8-40 16-62 22-7 2-10 6-10 12 1 7 5 10 13 9 14-1 37-3 68-6 37-2 59-1 66 4 5 2 8 9 8 20v222H509c-1-13-2-26-3-38-5-45-14-91-28-139-16-50-39-96-68-136-5-10-13-14-23-11-6 6-5 15 2 24 20 43 35 79 45 109 9 40 17 82 25 127 11 88 17 168 17 242v126c-1 25-4 50-10 76-1 5 0 9 3 11 3 0 7-2 12-6 9-9 21-18 35-26h134c6 0 9 0 10 1l24 32c1 2 3 4 6 4 2 0 5-2 8-4 20-17 38-33 53-49 5-6 5-10 0-12-21-10-33-17-35-19-2-4-3-7-3-9V93M522 490c-2-22-5-66-10-132h154v132H522m1 166v-96c0-14-1-27-1-39h144v135H523m-205 92c-2 11 2 15 9 13 36-11 59-20 71-27 9-4 8-9-2-15-11-5-17-11-20-18-4-12-7-38-7-78V245c0-76 2-140 4-191 1-5-1-9-5-12-9-6-22-15-41-26-8-7-12-3-11 10 4 87 6 160 7 219v378c-1 52-3 94-5 125Z"/></symbol><symbol id="𰂏_B" viewBox="0 0 1000 1000" data-size="21"><path transform="matrix(1 0 0 -1 50 962)" d="M593 227c138-43 216-89 232-139 5-12 5-28 1-49-3-17-8-26-16-28-6-1-12 4-16 16-45 74-114 135-208 182-18-31-43-59-75-83-50-36-142-73-273-113-12-4-20-3-22 4-2 8 1 13 9 16 89 28 158 57 209 85 70 44 113 98 128 164H328c-28-1-51-3-71-7-6-2-9 0-11 6-3 11-9 21-19 29-4 4-6 8-4 11 3 2 6 1 11-1 25-6 52-8 82-8h251c10 72 11 152 3 240-1 11 2 15 10 13 35-11 58-20 70-27 9-5 10-9 1-13-12-7-20-14-22-20-5-12-7-37-7-77 0-46-3-84-7-116h147c4 0 8 2 12 7l35 40c5 4 9 4 14 0 17-17 31-33 43-47 7-9 8-17 4-24-3-3-9-6-18-6H610c-5-19-10-37-17-55M325 469c-5 5-6 10-3 15 4 6 10 6 18 0 66-41 100-73 103-96 0-16-5-29-15-37-9-9-16-14-20-14-5 2-9 8-14 21-19 52-42 89-69 111m83 90c-5 4-7 10-4 16 4 5 10 5 19 0 63-32 97-58 99-81 1-15-3-28-12-38-9-9-16-14-20-14-5 0-9 7-14 19-20 47-43 80-68 98m143 283c0 26-2 48-3 68-1 11 2 15 8 13 35-11 58-19 70-25 9-6 8-11-2-16s-16-11-19-17c-4-9-7-16-7-23v-38h125c4 0 8 2 12 7l35 40c5 4 9 4 14 0 17-17 31-33 43-47 7-9 8-17 4-23-4-4-9-7-18-7H598V660h198c6 0 11 1 13 5l28 30c2 2 4 4 6 4 8 0 26-20 55-59 5-8 3-12-7-13-5 0-9-1-13-2-30-5-65-37-104-96-4-8-9-11-16-8-6 3-6 10-1 20 13 32 24 61 35 88H375c-28 0-51-3-72-7-5-2-9 0-9 6-4 12-10 22-20 31-5 4-6 8-4 10 3 2 6 2 11-1 25-6 52-8 82-8h188v114H425c-27-1-51-3-71-7-5-2-9 0-11 6-2 12-8 21-18 29-5 5-6 8-4 11 3 2 6 1 11-1 24-5 52-8 82-8h137v38M128 703c33 107 49 178 48 211 0 11 5 14 17 9 27-12 45-21 56-27 8-4 11-8 11-12 0-2-4-5-12-8-7-1-12-4-15-8-7-8-18-33-31-75-13-37-28-75-43-115 18-6 34-14 49-22 8-5 8-9 0-13-20-10-31-17-33-22s-3-28-3-68V234c0-82 1-150 3-205 0-6-2-9-6-10-15-6-29-12-43-18-6-1-9 4-8 14 4 87 6 159 7 219v319c-1 16-2 31-2 43-1-1-1-2-1-3-26-54-59-113-101-178-6-7-11-9-15-5-6 3-6 8-1 16 48 77 89 169 123 277Z"/></symbol><symbol id="𰂐_G" viewBox="0 0 1000 1000" data-size="21"><path transform="matrix(1 0 0 -1 17 970)" d="m273 928 78-26c9-2 11-5 5-10-9-2-18-9-27-20V663c0-16 0-31-1-45h75l32 39 66-49c10-6 8-9-6-9H328c-1-52-3-98-7-140 44-58 77-105 101-141 23-37 39-73 46-106 7-35 7-59 0-73-7-15-17-20-29-16-11 4-16 22-16 53-1 30-10 67-27 110-14 37-41 86-78 146-9-88-26-161-51-220-26-60-63-115-111-166l-8 12c51 76 86 153 106 230 19 78 30 181 31 311h-64c-18 0-33-5-44-13l-33 32h142v272c-2 11-9 20-20 27l7 11m588-480V268c2-68-2-114-9-138-8-24-21-45-38-63-17-17-42-31-74-40-5 12-11 21-16 28-6 6-16 12-30 18-15 6-44 14-87 25l4 15 121-20c8 0 16 1 27 3 10 2 22 12 36 32 14 19 21 58 21 118v213H663c0-78-6-143-18-195-14-56-38-106-71-151S493 31 431 0l-6 14c48 31 86 67 114 109 27 42 48 91 62 145 11 51 17 115 17 191h-19c-19 0-32-5-39-14l-36 34h277l33 40 47-40c12-8 12-14 0-18l-20-13M15 507l-15 8c17 32 34 68 51 107 17 38 30 73 41 103 18 56 30 98 35 126 7 28 10 44 8 49-1 6-6 14-17 25l3 6 88-28c5-2 5-7 1-12-14-4-25-10-32-18-14-52-32-105-53-160V170l4-95c-3-14-7-24-11-30-11-7-23-11-37-15 5 26 8 87 10 184v423c-9-18-20-40-35-66l-41-64m756 380c3-49 12-93 28-131 15-38 28-68 41-89 12-22 25-41 40-57 14-16 28-29 43-39 14-9 28-17 43-22l-1-16c-17 2-30 3-40 4-11-1-24-6-37-16-19 16-36 39-54 68s-34 63-49 102-27 81-33 124c-7 44-12 83-14 119l4 5 50-14c14-4 15-9 4-15-14-4-22-12-25-23m-90-46c11-7 13-11 7-13-13-2-24-8-31-17-23-87-51-158-83-212-31-55-63-97-95-125l-8 5c28 42 53 89 77 141 23 51 40 97 50 138 9 41 13 65 11 73s-6 17-14 26l6 7 80-23m-332-42 6 10c28-11 49-25 64-42 16-16 25-35 29-58 1-20-5-32-16-36-11-2-18 5-20 21-4 19-10 36-17 52-8 16-23 34-46 53Z"/></symbol><symbol id="𰂑_G" viewBox="0 0 1000 1000" data-size="21"><path transform="matrix(1 0 0 -1 24 978)" d="M278 388c39-29 72-59 99-89 27-32 45-61 55-86 9-25 7-41-4-50-13-8-23 2-31 28-6 26-19 54-38 82-4 7-9 14-15 22l-20-36c-25-44-57-83-97-116l-9 6c39 49 74 106 103 172-15 17-33 36-54 57l11 10m275-2c39-29 72-59 98-89 27-32 45-61 55-86 9-25 8-41-4-50-12-8-22 2-30 28-7 26-19 54-38 82-5 7-10 14-16 22l-19-36c-25-44-58-83-98-116l-9 6c40 49 74 106 104 172-15 17-33 36-55 57l12 10m399 206v-15c-46 8-76-1-90-25-95 24-194 86-295 185-37 39-68 77-92 117-58-76-119-141-183-197-73-63-169-114-288-153l-4 15c160 71 287 169 384 292 49 63 73 100 71 109-1 8-5 18-13 28l8 7 90-41c5-4 3-8-7-12-12 1-23-4-32-13-3-5-7-9-11-14 26-33 56-65 90-99 42-41 88-76 137-104 50-28 89-47 117-57 29-8 69-15 118-23m-826-43h607l32 35 61-45c11-6 9-9-6-9H484V427h224l28 34 45-36c12-8 12-14 0-18l-17-11V112c1-36-3-62-11-78-9-15-30-27-64-34 0 20-11 32-32 38-19 7-44 14-75 24l2 12c63-12 102-18 115-17 16 0 24 15 24 45v305H484V149l2-80c0-22-16-35-48-39 2 24 4 61 5 112v265H207V109l4-64c-1-23-19-36-52-40 4 21 7 59 8 114v302c-3 13-7 23-12 31l14 11 30-36h244v103H198c-15 1-29-3-42-11l-30 30Z"/></symbol><symbol id="𰂒_K" viewBox="0 0 1000 1000" data-size="21"><path transform="matrix(1 0 0 -1 58 945)" d="m327 826 56-29h407l28 30 44-30c19-15 25-25 18-31-6-5-16-7-30-6V100c0-29-8-52-25-68-15-14-37-24-66-28-3 14-11 25-24 34-16 10-45 19-86 27l-3 13 48-2c16-1 28-1 36-1 14-1 27-1 40-1 11 2 19 5 24 9 4 4 6 9 6 17v670H379V564h229c11 22 24 51 39 87 10 22 22 51 35 86l52-28c18-12 24-19 18-22-6-4-22-4-47-1-14-24-29-48-45-74-15-22-25-38-32-48h85l33 31 46-31c4-6 4-14 0-23-3-2-8-3-17-3H607c19-12 27-21 23-25-3-3-12-5-26-5l-1-1V258h78v172l-2 42 51-13c22-6 30-13 23-20-3-4-12-8-27-12l-2-1V224l1-12c1-10 0-17-1-20-3-6-9-11-19-13-12-3-19-3-22 1-2 2-3 8-3 17l1 7v27H481v-45l2-15c1-9 1-15-1-18-3-5-9-10-20-14-11-3-17-2-20 3-2 2-3 9-2 21l1 11v257l-1 41 52-14c21-6 27-12 17-19-7-6-17-9-28-10V258h79v280H379V65l1-23c1-11 1-18 0-22-3-5-11-9-23-13-14-5-23-5-26 1-2 4-3 13-2 28l2 18v706l-4 66m114-86c27-17 51-36 71-58 21-22 33-43 37-61 3-18-1-30-10-36-10-7-18-4-24 9-6 20-16 43-31 69-16 28-32 52-49 71l6 6M261 871c20-10 29-17 28-22s-12-6-33-4l-35-75-38-83c22-8 33-15 34-21 0-6-10-10-29-11V57l1-15c1-8 1-14-1-17-3-6-11-12-24-18-11-6-18-7-21-4-1 2-2 8-1 18l2 16v573l-34-45c-21-29-37-51-48-66-20-28-38-50-53-68l-9 10c51 80 93 152 124 215 39 77 69 153 91 229l4 6 42-20Z"/></symbol><symbol id="𰂓_G" viewBox="0 0 1000 1000" data-size="21"><path transform="matrix(1 0 0 -1 28 978)" d="M430 386c-50-22-82-37-97-45-16-10-27-22-35-37l-44 43 187 68v129h-87c-19 0-34-4-47-13l-36 32h170v69c2 10-9 25-31 45l10 11 86-36c13-4 15-7 6-10-15-6-25-13-32-21V337l2-56c0-13-3-23-10-29s-20-10-37-13c2 24 4 72 6 145v7l-11-5m365 267c4-4 4-7-1-8-12-2-24-8-36-17V485c30 16 54 29 71 38 20 12 32 20 36 24s4 11 0 20l11 10 64-50c6-6 6-10 0-13-16 2-28 3-37 3-7-2-24-8-50-18-24-10-55-21-95-34V339c2-29 15-44 39-44s43 0 57 1 23 5 26 11 5 17 6 35c1 17 3 39 5 65h12l5-27c-2-43 9-66 31-67-8-17-15-29-21-36-5-6-11-10-21-12-8-4-24-6-46-5h-58c-18 0-35 2-51 7-16 6-24 34-24 85v292c-2 14-10 27-23 38l9 9 91-38M235 956l97-51c11-8 13-13 6-15-16 1-31-3-47-13-36-80-74-150-113-211l45-15c8-3 8-6 1-9-13-7-23-14-31-21V140l2-83c0-15-5-25-16-30-9-6-20-11-35-15 3 22 6 78 7 167v446c-45-64-90-116-137-154L0 482c76 95 137 187 183 278 46 90 66 141 61 154-4 12-10 23-18 32l9 10m38-216h311v107c-8-1-17-1-24-1-60-6-134-8-222-9v17c89 7 164 15 225 23s108 16 141 24c32 8 50 13 53 16 2 3 4 11 4 22l10 4 76-52c5-8 3-12-6-14-24 5-51 3-81-6-47-8-91-15-132-19V740h185l43 49 77-55c15-11 11-15-12-13H628V159l2-114c0-14-5-24-15-30-8-6-21-11-38-15 3 25 5 94 7 205v516H355c-18 0-33-5-46-13l-36 32Z"/></symbol><symbol id="𰂔_K" viewBox="0 0 1000 1000" data-size="21"><path transform="matrix(1 0 0 -1 38 945)" d="M629 469c53-23 93-46 121-68 29-24 44-48 43-70-3-16-7-25-13-27-7-4-16 2-27 18-12 18-28 39-49 61-26 29-52 54-78 76l3 10m-22-226c49-21 92-48 130-80 43-38 65-72 67-104-1-16-3-28-8-34-7-9-17-5-29 13l-20 33c-17 30-35 56-53 79-27 33-58 61-92 85l5 8M260 624l-20 41 57-3h63v137c0 9-1 18-2 28s-2 18-3 24l58-14c17-6 26-10 25-14-1-5-13-10-36-15V662h101l34 38 48-45c8-6 10-11 7-14-3-4-8-5-17-5H413c11-5 15-10 12-14-3-5-11-7-24-7-1-19-1-35-2-49-1-20-3-38-4-53h82l31 30 36-29c12-11 17-18 15-22-3-4-13-7-30-7l-2-83c37 51 67 115 91 193 16 52 35 136 58 252l48-20c20-10 28-17 25-21s-13-7-30-7l-8-16-3-11c29-74 59-134 88-178 38-58 80-100 127-126l-1-11c-13 2-26 0-38-4-11-5-20-13-28-23-33 37-62 85-89 145-23 51-45 111-66 181-19-77-40-142-63-196-29-66-67-125-112-179-6-132-19-226-38-281-16-50-41-80-76-90-3 16-10 28-21 38-12 9-33 19-64 30l3 9h2c36-8 60-11 72-10 19 0 32 8 38 22 15 36 27 90 34 162 7 63 11 139 11 227h-93c-8-102-21-185-38-250-22-81-58-157-107-229l-7 6c46 83 78 187 96 313 13 86 19 188 20 308h-51l-28-2-19-10m1 247c20-10 29-17 28-22s-12-6-33-4l-35-75-38-83c22-8 33-15 34-21 0-6-10-10-29-11V57l1-15c1-8 1-14-1-17-3-6-11-12-24-18-11-6-18-7-21-4-1 2-2 8-1 18l2 16v573l-34-45c-21-29-37-51-48-66-20-28-38-50-53-68l-9 10c51 80 93 152 124 215 39 77 69 153 91 229l4 6 42-20Z"/></symbol><symbol id="𰂕_G" viewBox="0 0 1000 1000" data-size="21"><path transform="matrix(1 0 0 -1 12 985)" d="M977 710v-15c-48 4-75-6-81-28-110 20-213 60-310 120-44 29-88 69-133 118-66-71-131-127-197-168-69-44-152-80-250-109l-6 11c176 75 299 154 366 235 36 38 55 61 57 68s0 15-6 24l9 5 78-34c11-6 13-10 6-13-17 2-31 0-44-6 45-37 85-67 119-90 72-45 143-75 213-91 35-9 64-16 88-18 24-4 55-7 91-9M188 551l40-41h480l29 40 51-42c12-9 12-15 0-19l-19-12V124c1-41-3-70-12-88-10-17-33-29-69-36-2 19-11 32-27 40-15 7-40 16-73 25l2 16c56-15 93-22 109-20 16 1 25 17 25 49v107H234V117l4-72c0-14-5-24-15-30S200 4 183 0c2 25 5 80 6 163v343c0 14-5 25-15 34l14 11m46-195V234h490v122H234m490 134H234V374h490v116m-36 191 7 10c50-17 86-31 107-43 19-11 33-23 43-35 8-13 12-25 12-38 0-12-6-19-17-21-12-3-21 5-28 23-8 20-23 37-45 53-23 15-49 32-79 51m-517 0h15c-6-51-17-86-32-104-14-19-28-31-41-36-11-5-21-6-28-3-8 2-12 8-12 19-1 9 5 17 20 23 13 5 26 14 39 27 14 13 27 37 39 74m344 7 7 10c31-17 54-31 68-42s24-24 31-39 8-28 4-39c-5-12-12-17-23-15-12 2-19 11-21 26-3 14-8 29-18 46-10 15-26 33-48 53m-198-12 8 11c33-20 54-35 64-46 9-12 17-24 22-37s6-26 2-37-11-17-21-15c-11 0-18 8-20 25-3 16-7 30-11 42-5 12-20 31-44 57Z"/></symbol><symbol id="𰂖_G" viewBox="0 0 1000 1000" data-size="21"><path transform="matrix(1 0 0 -1 43 982)" d="m478 964 70-29c10-4 15-7 15-9-4-4-15-11-32-21v-68h107v76c0 11-9 24-27 41l11 10 77-33c6-2 9-5 9-7-8-6-18-15-31-27v-60h89l38 38 46-46c4-3 5-5 5-7s-3-4-9-6l-21-8v-75l5-30c-2-25-18-38-48-37v41H677v-99h142l22 29 40-30c6-4 9-8 9-11 0-4-3-6-9-9l-12-11-3-24c-5-31-13-56-25-73-13-17-39-29-79-37-2 13-9 25-23 36-14 9-27 17-39 23l2 12c13-10 35-17 68-22 24 2 39 13 46 33 8 21 12 44 13 68H677l4-123c-2-26-18-41-49-46 3 30 5 86 6 169H504c-31-88-90-148-177-181l-7 10c69 41 117 98 145 171h-92l-25-30-43 36c10 6 18 12 24 20l11 82c-2 20-9 37-22 50l16 11 37-37h120c2 20 2 42 2 66v30H366c-11 0-22-5-34-14l-36 31h197v81c-3 14-11 26-23 35l8 11M4 378h798l32 45 71-51c15-10 11-14-10-12H463v-91c80-9 146-18 198-29 54-11 100-25 138-44 36-20 55-37 55-50 0-16-5-25-17-28-12-2-36 9-69 33-34 24-76 44-126 58-46 12-106 26-179 41V133l4-87c0-14-5-24-15-31-10-6-23-11-39-15 3 26 5 74 7 144v216H80c-17 0-32-4-44-12L4 378m255 587 64-37c11-7 14-12 7-15-16-2-28-6-35-12-22-30-44-59-66-86V507l1-55c0-25-18-40-53-45 3 26 5 74 7 146v214C126 707 67 660 6 627l-6 11c68 52 128 111 179 176 50 66 76 103 77 112 1 10-1 19-6 29l9 10m269-258c-3-35-9-68-19-99h129v99H528m-161-99h104c9 29 15 62 17 99H380l-13-99m164 212v-59c0-15-1-27-2-37h109v96H531m146 0v-96h105v96H677Z"/></symbol><symbol id="𰂗_B" viewBox="0 0 1000 1000" data-size="21"><path transform="matrix(1 0 0 -1 36 962)" d="M771 688c1-12 1-27 2-44 1-6-1-11-6-13-28-14-44-20-46-20-2 2-3 7-1 13 2 16 4 37 4 64v81H595v-78c1-11 2-26 2-44 1-5-1-10-6-12-28-14-43-20-45-20-3 2-3 6-1 13 2 16 3 37 4 63v78H420v-81c0-12 1-27 2-44 0-6-2-11-6-13-29-14-44-20-46-20-3 2-3 7-1 13 2 16 3 37 4 64v81h-25c-27-1-51-3-71-7-5-2-9 0-11 6-2 11-9 21-18 29-5 4-6 8-4 11 2 2 6 1 11-1 24-6 52-8 82-8h36v45c-1 19-2 37-4 53-3 10-3 15 0 18 3 2 8 2 14-1 25-10 45-19 61-27 3-2 5-5 5-7-1-3-3-5-6-6-10-2-16-5-19-10-2-5-4-12-4-20v-45h129v49c-1 19-2 37-4 53-3 9-3 15 0 18 3 2 8 2 14-1 25-10 45-20 61-27 3-2 5-5 5-7-2-3-4-5-6-6-10-2-16-5-19-10-2-5-4-12-5-20v-49h129v41c0 19-2 37-4 54-2 9-2 15 0 17 4 2 9 2 15-1 25-10 45-19 61-27 3-2 4-4 4-7-1-3-3-5-5-6-10-2-16-5-19-10s-4-12-5-20v-41h31c4 0 8 2 12 7l35 40c5 4 9 4 14 0 17-17 31-33 43-47 7-9 8-17 4-24-3-4-9-6-18-6H771v-81M549 534H324c-5-49-18-85-38-107-10-10-20-15-29-14-10 2-16 5-21 10-15 15-12 31 10 48 35 30 55 75 59 133 1 6 4 9 8 9 5 0 8-3 9-9 1-14 2-27 3-40h499c6 0 11 2 14 6l27 30c2 2 4 4 7 4 7 0 25-20 54-59 6-8 3-12-6-13-2 0-4 0-4-1-32-4-70-26-113-68-5-8-11-10-15-6-7 5-7 12 0 22 11 19 22 38 32 55H595V412h139c5 0 9 1 12 4l25 34c5 5 10 6 15 1 21-17 36-34 46-51 4-6 4-10 0-10-7-2-12-5-16-9-4-5-6-12-6-23V182c0-19-5-35-15-47-10-13-28-23-53-31-7-2-11-1-12 2-2 15-7 26-13 33-6 8-27 16-62 22-7 1-9 6-9 14 1 8 21 8 58 2 29-4 46-5 51-2 5 4 8 11 8 20v187H595V236c0-76 2-141 4-192 0-6-15-19-45-38-9-6-13-2-12 12 4 86 7 159 7 218v146H384v-66c0-123-2-186-4-190-23-18-37-27-40-27-6 0-8 7-7 19 2 40 4 106 5 198v39c-1 24-3 51-5 81-2 7-1 12 2 12 2 1 5-1 9-6 8-8 20-18 36-30h169v122M140 714c39 101 58 168 59 201 1 12 7 14 17 8 26-14 44-24 54-30 8-5 12-9 11-13 0-3-4-5-13-6-6-3-11-5-15-8-8-8-19-31-35-71-15-36-31-73-49-110 19-7 35-14 49-23 9-4 9-9 0-13-19-9-30-17-32-21-2-6-4-29-4-68V236c0-81 2-149 4-205 0-6-2-9-7-10-14-5-28-11-43-17-5-1-8 3-7 14 3 86 6 159 6 218v324c0 20-1 39-2 55-2-3-4-6-4-9-28-51-64-106-108-166-6-7-12-8-16-4-5 4-5 10 0 16 51 71 96 158 135 262Z"/></symbol><symbol id="𰂘_S" viewBox="0 0 1000 1000" data-size="21"><path transform="matrix(1 0 0 -1 31 965)" d="m325 896 11-14-20-4-44-97-57-110-9-15h5V31L147 0v560l-29-44-35-49-36-47-39-45-8 6 30 50 87 155 30 60v10h5l44 93 48 112 26 67 55-32m430-294 10-16-23-3-12-19-36-52-20-27-2-3h57l52 53 63-53v-20H655V336h63l53 52 63-52v-22H655V188h142l53 53 62-53v-20H655V36L592 5v163H335v20h257v126H403v22h189v126H393v20h265l3 9 3 17 18 62 4 16 3 15 8 27 3 6 55-32m-219-74-2 12-4 23-3 11-12 37-7 12 7 6 9-11 12-9 10-8 10-11 8-10 8-12 15-22 6-13 6-12-5-24-20-14-23 5-14 19-1 21m290 4-25 26-48 54-42 60-19 32-16 33-13 33h-65l-34-58-30-45-35-42-38-39-42-38-46-35-50-33-6 8 43 40 40 40 37 41 32 41 29 43 24 43 17 34H334v21h215l14 35 14 47 12 48 2 9 59-24 13-13-18-6-10-33-20-49-7-14h184l52 53 63-53v-21H677l89-100 23-25 51-44 26-22 72-50-58-44-54 47Z"/></symbol><symbol id="𰂙_S" viewBox="0 0 1000 1000" data-size="21"><path transform="matrix(1 0 0 -1 32 991)" d="M693 63h91l4 1 4 1 1 1 1 1 1 1 1 2 1 3 1 5v581l63-11 16-9-16-10V84l-1-13-3-13-3-13-6-12-9-11-11-8-12-6-12-5-13-2-14-1v31l-84 16v16m-417 0h112l5 1 3 1 1 1 2 2 2 5 1 5v251l-90-12-112-12-12-2v-10l-5-46-8-43-12-40-15-36-17-33-21-30-24-26-27-20L28 2l-5 8 23 23 19 26 17 26 14 28 11 32 9 33 7 36 3 39 2 42v2l-42-4-37-3-11-18-11 16-14 62 10 1 103 3v242l63-33h36l4 5 17 25 15 22 7 11 9 20 6 15h-1l6 10 51-37 8-18h-24l-12-11-34-25-12-8-14-8-2-1h153l33 27 57-47-26-22V367h2l53 1h50l1-10-101-19-5-1V84l-1-13-2-13-5-13-7-12-8-11-10-8-12-6-13-5-13-2-13-1v31L276 47v16m38 220 17-10-17-9V145l-62-32v181l62-11m351 310 16-11-16-9V159l-62-31v476l62-11m-476-50V356l119 5 54 3 40 1v178H189m95-116-3 11-4 12-12 23-18 23-11 12-13 10 5 7 15-6 17-6 15-7 14-9 13-11 11-11 11-13 10-15 8-15 7-17-5-23-20-14-23 5-14 19-1 12-2 13m495 305-47 20-15 8 62-52v-21H147v21h517l53 52-29 13-42 24-42 25-39 27-38 29-35 32-11 11-22-20-41-33-44-30-46-28-48-27-51-24-52-22-56-18-58-17-60-13-3 9 110 47 53 25 49 25 47 27 44 29 41 30 39 31 36 33 35 36 44-44 1-5 86-51 41-21 85-38 44-16 45-15 45-13 91-22-61-56-49 16-47 16Z"/></symbol><symbol id="𰂚_S" viewBox="0 0 1000 1000" data-size="21"><path transform="matrix(1 0 0 -1 27 979)" d="M760 249v126H555v-88l-3-38h208M173 533h168l31 26 58-47-27-21V161l-62-31v52H173v-63l-63-31v476l63-31m0-181V203h168v149H173m0 160V373h168v139H173m382 10V396h205v126H555m235 128-47 24-44 25-44 29-43 31-42 33-40 36-39 40-20 24-16-16-38-38-41-37-45-35-47-35-50-33-52-31-56-29-60-29-61-27-5 9 111 70 101 70 46 37 43 36 40 37 36 37 34 38 27 34 6 7 47-43 5-18-9 1 63-45 87-57 44-25 89-44 44-19 45-16 86-26-60-54-48 19-47 20m-89-1v-21H213v21h392l43 47 53-47M819 58l-4-13-5-12-9-11-11-8-12-7-12-4-13-3h-14v31L634 47v16h111l5 1 3 1 3 1 2 3 1 4 1 5v150H548l-7-30-15-40-20-35-26-30-30-28-35-21-39-18-43-11-48-8-2 10 43 16 38 20 33 20 28 24 22 25 17 27 14 30 9 33 4 36 1 39v288l63-31h205l31 26 59-48-27-20V84l-1-14-3-12Z"/></symbol><symbol id="𰂛_K" viewBox="0 0 1000 1000" data-size="21"><path transform="matrix(1 0 0 -1 41 953)" d="M261 876c20-9 29-17 28-22s-12-6-33-4l-35-75-38-83c22-8 33-15 34-21 0-6-10-10-29-11V62l1-15c1-8 1-14-1-17-3-5-11-11-24-18-11-5-18-7-21-4-1 2-2 8-1 18l2 16v573l-34-45c-21-29-37-51-48-66-20-27-38-50-53-68l-9 10c51 81 93 152 124 215 39 77 69 154 91 229l4 6 42-20m245-495 59-3h169v146H590l-67-2-12 27 65-1h65v158h-25l-67-4-13 28 65-3h40v126l-4 43 63-14c21-5 30-10 26-15s-17-10-40-17V727h69l40 39 52-35c9-10 11-17 8-20s-10-5-20-5H686V548h126l39 45 58-42c8-11 10-18 7-22-3-3-9-5-19-5h-98c9-3 11-7 8-10s-13-7-28-12V377h31l45 42 54-38c9-10 11-17 8-20s-10-5-20-5H779V71c-2-21-10-38-25-49-13-10-34-17-63-22l-7 29c-3 3-12 7-26 12-16 5-40 11-73 18l2 12 79-7 38-3h7c9 0 15 1 17 2 3 1 5 4 6 9v284H565l-52-2-7 10v17m56-69c32-22 57-43 75-63 23-25 33-48 31-67-2-15-9-24-21-29-13-5-21 3-25 24-3 17-9 34-16 49-12 27-29 53-51 79l7 7M392 887c19-7 28-14 27-20-2-5-12-11-30-16V298h47v384l-4 47 46-12c20-5 30-11 29-19s-9-13-25-16V231l1-14c1-9 0-16-2-19-3-6-10-12-23-18-13-5-20-6-23-3-2 2-2 8-1 19l2 21v56H297v-71l1-15c1-9 0-16-2-20-3-6-10-12-23-17s-20-6-23-3c-2 2-2 9-1 20l2 23v492l-3 47 46-12c21-6 31-13 30-20s-10-12-27-15V299h50v556l-5 51 50-19Z"/></symbol><symbol id="𰂜_B" viewBox="0 0 1000 1000" data-size="21"><path transform="matrix(1 0 0 -1 47 965)" d="M798 593c4 0 8 3 12 7l35 40c5 5 9 5 14 0 17-17 31-32 43-47 7-9 8-17 4-23-4-4-10-6-18-7H358c-28 0-51-3-72-7-5-2-8 0-10 6-3 12-9 22-19 29-4 5-6 9-4 11 3 2 6 2 11-1 25-5 52-8 82-8h216v87H421v-22c0-5-2-8-5-9-6-3-17-7-31-13-10-4-14-2-14 4 2 17 3 34 3 50v123c0 17-1 32-2 44 0 6 2 9 4 10 3 2 7 0 13-6 8-8 19-17 30-25h143v10c-1 26-2 49-4 69-1 10 2 14 9 12 34-11 57-19 69-25 9-6 9-11-2-16-10-5-16-11-18-17-5-9-7-16-7-23v-10h113c4 0 7 1 9 4l17 27c5 5 9 5 14 1 19-13 37-26 56-40 4-4 5-8 5-12-2-4-7-6-13-7-8-1-14-5-18-11-2-6-4-13-4-22v-19c0-21 2-50 6-85 2-8-1-13-7-16-22-13-36-20-41-20-3 1-4 5-4 11v33H609v-87h189M562 805H421v-94h141v94m47-94h133v94H609v-94m125-235c4 0 7 2 9 4l17 27c5 6 9 6 14 1 19-12 37-25 55-40 4-3 6-7 5-11-2-4-6-6-12-7-8-1-14-5-18-12-3-6-4-13-4-21V280c0-21 2-49 6-85 1-8-1-13-7-16-23-13-36-19-41-19-3 0-5 4-5 11v275H402V158c-1-5-3-8-5-9-7-3-17-7-31-13-10-4-15-2-14 4 1 17 2 34 3 50v264c-1 17-1 31-2 44 0 6 1 9 4 9 2 2 7 0 12-5 9-9 19-17 31-26h334M590 174c-2-8-4-14-7-20-13-30-37-55-71-75-41-24-115-48-221-74-13-4-20-2-21 5-2 8 1 12 10 15 145 38 230 81 254 129 20 43 26 125 15 246-1 10 2 15 10 13 35-11 59-20 70-27 9-5 10-9 1-13-12-7-20-14-22-20-5-12-7-37-7-77 0-33-2-61-7-83h1c83-23 150-49 199-78 35-21 55-39 60-56 5-14 5-27-1-39S842 1 838 1c-4-1-11 4-19 14-76 80-152 133-229 159M165 708c47 105 72 176 75 212 1 11 7 13 17 6 25-15 42-26 52-33 7-5 11-10 11-13-1-4-5-6-13-6-7-2-13-4-17-6-7-8-21-33-41-74-18-39-38-79-60-120 17-7 32-14 46-22 8-5 8-9 0-13-20-9-31-17-33-21-2-6-3-29-3-69V238c0-81 1-150 3-205 0-6-2-9-6-10-15-6-29-12-43-17-6-2-9 3-8 13 4 87 6 160 7 219v311c-1 22-2 41-2 56-3-3-4-6-5-9-33-52-74-109-123-171-7-6-12-7-17-3s-5 10 1 16c59 74 112 164 159 270Z"/></symbol><symbol id="𰂝_G" viewBox="0 0 1000 1000" data-size="21"><path transform="matrix(1 0 0 -1 13 980)" d="M975 684v-16c-48 3-75-7-80-30-110 21-214 63-310 128-44 30-88 72-133 125-66-76-131-135-197-179-68-46-151-85-249-115l-6 11c176 80 298 163 365 249 36 41 55 66 57 74 2 6 0 14-6 24l9 5 78-37c11-5 13-9 6-12-16 1-31-1-44-8 45-37 85-69 119-94 72-49 143-81 212-97 35-10 64-16 88-20 25-3 55-6 91-8m-730 4 76-33c9-3 11-7 6-10-10-4-19-10-26-18V519h150v211c1 11-7 25-24 41l8 11 80-33c9-3 11-7 6-11-11-3-20-9-27-17v-75h199l32 40 66-47c11-7 9-10-6-10H494V519h313l31 39 64-47c11-7 9-10-6-10H110c-17 1-32-4-44-13l-33 31h229v118c1 10-7 24-25 41l8 10M19 217h433v169H178c-18 0-32-4-44-13l-33 32h648l30 39 63-47c14-9 11-13-11-11H495V217h348l30 39 63-47c14-7 10-11-11-12H495v-97l4-55c-1-25-19-40-54-45 4 25 6 74 7 146v51H96c-18 1-33-3-44-12l-33 32m653 151 70-36c6-6 6-10-1-14-14 1-24 1-30-1-5-1-15-10-30-26-15-18-38-39-70-65l-15 5c49 58 75 94 78 108 0 4-3 11-10 20l8 9m-465-15 8 10c45-20 75-38 89-55 13-17 19-34 17-51s-8-26-20-26c-12-1-18 7-20 24 0 17-7 34-20 51s-31 33-54 47Z"/></symbol><symbol id="𰂞_G" viewBox="0 0 1000 1000" data-size="21"><path transform="matrix(1 0 0 -1 41 982)" d="M513 957c31-10 58-20 82-31 23-12 39-26 49-43 8-18 11-31 9-41-3-11-10-17-22-18-13-2-22 6-26 24-4 17-15 33-32 48s-39 32-64 49l4 12m-301 7 86-44c10-8 13-13 7-15-15 0-29-5-42-14-29-78-58-147-87-206l34-12c7-3 7-7 1-10-12-6-21-13-27-20V128l2-83c0-15-6-25-16-29-9-7-21-12-35-16 3 22 5 78 7 167v454C99 547 56 490 12 451l-12 7c61 85 115 181 162 288 46 107 67 166 62 178s-11 22-18 32l6 8m171-177c0-41 1-79 1-115h463v115H383m478-396V86c0-15-4-29-11-43-8-14-31-23-70-29-2 22-17 37-45 43-27 6-53 11-79 16l2 14c74-11 117-17 129-17 13 0 22 2 26 6 5 4 7 28 7 70v255H625c44-24 77-48 102-73 25-29 40-55 44-78 3-25-3-39-18-42-15-4-24 5-25 25-3 20-13 44-31 72-15 24-41 50-79 80-10-29-26-59-49-91-34-46-71-84-113-112l-2 15c40 43 71 84 94 124 15 26 28 52 36 80H446V118l5-59c0-14-4-24-13-31-10-6-23-10-40-14 3 25 5 67 7 127v263c-4 13-11 25-20 34l15 12 29-29h160c1 6 2 14 4 22 6 36 9 64 9 86H461c-20 0-36-4-50-13l-27 33h395l32 39 66-49c10-6 8-10-6-10H645c0-37-4-73-14-106 0-1 0-2-1-2h175l29 42 47-41c12-9 12-15 0-19l-20-12M337 853l39-46h458l30 36 47-40c9-9 8-15-4-19l-19-11v-72l6-49c1-15-3-26-12-31-9-6-20-10-35-12v43H383c-1-179-12-312-32-400C325 142 284 61 228 8l-6 12c48 74 81 163 98 266 18 104 25 275 22 514-3 14-10 29-21 45l16 8Z"/></symbol><symbol id="𰂟_B" viewBox="0 0 1000 1000" data-size="21"><path transform="matrix(1 0 0 -1 46 966)" d="M160 674c29-10 49-17 59-23 9-5 9-10-2-16-10-5-17-11-19-17-5-13-7-39-7-78V236c0-76 1-140 4-191 0-6-1-10-5-12-9-6-23-15-41-26-9-7-13-3-12 10 4 87 6 160 7 219v304c-1 37-2 69-4 95-42-69-81-128-118-176-7-7-12-8-17-4s-5 10 1 16c52 70 99 155 140 255 40 100 61 166 61 198 1 11 7 14 19 7 25-13 42-24 52-32 7-4 11-9 10-13 0-4-3-5-8-4-6 0-12-2-19-8-8-7-20-31-36-70-19-41-40-85-65-130m178-347v-42c0-5-2-8-5-9-6-3-17-7-31-13-10-4-14-2-14 4 2 17 3 34 3 50v248c0 17-1 32-2 44 0 6 2 9 4 10 3 2 7 0 13-6 8-9 19-17 30-25h92c4 0 7 1 9 3l17 28c5 5 10 5 14 1 19-13 38-26 56-40 4-4 5-8 5-12-2-4-7-6-13-7-8-1-14-5-18-12-2-5-4-13-4-21V395c0-21 2-49 6-85 2-8-1-13-7-15-22-13-36-20-41-20-3 1-4 4-4 11v41H338m0 30h110v200H338V357m413 34c-24 37-51 74-83 112-4 5-4 11 0 15 6 5 11 4 18-4 29-28 55-57 79-85 21 44 37 100 48 169h-81c-28 0-51-3-72-7-5-1-9 0-9 6-4 12-10 22-20 31-5 4-6 8-4 10 3 2 6 2 11-1 25-5 52-8 82-8h89c5 0 9 2 12 6l21 25c2 3 4 5 6 5 10-1 28-19 56-54 4-5 3-8-3-9-15 0-27-5-34-12-3-4-6-16-10-37-19-60-39-115-59-164 22-26 40-52 54-76 16-28 24-49 23-63-1-13-5-25-11-37-6-10-10-14-15-14s-10 11-15 32c-11 34-30 73-55 118-26-50-70-108-131-175-8-7-15-8-21-1-5 7-4 15 2 21 54 63 94 128 122 197m48-319c4 0 8 2 12 7l35 40c5 4 9 4 14 0 17-17 31-33 43-47 7-9 8-17 4-23-4-4-10-7-18-7H337c-27-1-51-3-71-7-5-2-9 0-11 6-2 11-9 21-18 29-5 5-6 8-4 11 2 2 6 1 10-1 25-5 53-8 83-8h473M600 214c-1-25-7-45-18-61-16-24-32-40-48-49-6-4-10-7-12-7-2 1-5 7-9 20-6 19-13 31-20 38-6 8-28 15-66 19-10 1-15 6-15 14 1 9 7 13 17 13 59-10 96-12 109-5 10 4 14 13 15 27v352c-1 52-2 94-4 126-2 10 0 14 7 13 15-5 28-10 38-14 48 52 94 101 137 146H454c-27 0-51-3-71-6-6-2-9 0-10 5-3 12-9 22-19 31-5 4-7 8-4 10s6 2 11-1c24-5 52-8 82-8h292c6 0 11 2 13 5l28 30c2 2 4 4 7 4 7 0 25-20 54-59 5-8 3-12-7-13-2 0-3 0-4-1-46-5-117-57-210-153 5-1 10-3 14-6 8-5 7-10-3-14-11-6-19-11-21-17-4-12-6-38-6-78V214Z"/></symbol></svg>