<svg xmlns="http://www.w3.org/2000/svg"><symbol id="𠀀_G" viewBox="0 0 1000 1000" data-size="21"><path transform="matrix(1 0 0 -1 32 916)" d="M161 473c-2 17-10 35-22 56l12 12 48-53h303v276H67c-11-1-22-6-34-15L0 783h814l40 49 73-57c7-4 10-7 8-9s-8-3-19-2H547V536l2-68c2-43-15-65-54-65 3 22 5 44 6 66H206V62h546l41 52 73-56c8-6 12-10 12-13s-4-4-12-3H220L185 0l-53 41c17 14 27 28 29 41v391Z"/></symbol><symbol id="𠀀_T" viewBox="0 0 1000 1000" data-size="21"><path transform="matrix(1 0 0 -1 36 927)" d="M456 771H119c-43 0-77-2-100-6L0 812c27-9 66-13 116-13h677l57 55 67-55c8-7 12-13 11-19s-6-9-13-9H503V517c0-30-15-45-45-45H165c-11 0-16-5-16-15V111c0-26 9-43 26-51 23-11 147-17 372-17 138 0 233 6 286 16 13 2 23-1 30-10 6-8 10-15 10-21 0-13-19-21-55-25-17-1-74-2-172-3H535C353 0 238 2 191 7c-35 4-59 15-74 34-9 12-14 33-14 63v350c0 30 15 46 46 46h289c12 0 19 6 19 18l-1 253Z"/></symbol><symbol id="𠀁_G" viewBox="0 0 1000 1000" data-size="21"><path transform="matrix(1 0 0 -1 41 967)" d="M0 701h314l64 177c3 17-1 32-14 45l7 11 79-38c10-2 13-6 8-11-14-3-25-8-33-17l-64-167h427l40 56 82-61c7-5 9-8 7-10-3-3-9-4-20-4H354l-82-216h439l34 38 57-49c4-4 6-8 6-11-1-2-4-4-9-5l-25-10-3-67c-5-96-18-166-39-209-20-43-42-72-65-89C614 25 551 4 478 0c1 22-15 39-49 50s-66 22-96 34l6 16c83-23 145-34 186-34 77 2 132 38 165 107 19 40 30 101 34 183l4 90H280l-43-39-39 61c17 3 31 13 43 29l67 185H77c-28-1-44-7-46-17L0 701Z"/></symbol><symbol id="𠀂_T" viewBox="0 0 1000 1000" data-size="21"><path transform="matrix(1 0 0 -1 58 937)" d="m78 576-19 43c30-7 67-11 112-11h454l35 38 54-41c14-10 20-20 17-29-2-8-9-12-20-12h-37c-66-46-132-94-199-143-56-41-118-93-187-155l-58-53c-46-48-72-77-79-86-19-23-25-40-20-50 6-14 34-23 84-27 45-3 118-5 219-5l149-1c97 0 158 8 184 24 15 8 26 28 34 60 6 24 15 73 27 146l18-3c0-13-3-48-7-104-3-45 5-74 25-87 14-10 21-19 20-26-2-19-28-32-78-39C735 5 658 0 576 0H435C316 0 233 3 187 8c-44 4-75 14-92 30-18 16-24 36-17 59s29 54 67 92c48 50 93 93 135 130 40 36 110 91 209 167 60 45 102 77 126 94H171c-35 0-66-1-93-4m670 243 53 56 64-55c9-8 12-14 10-20-1-6-5-9-12-9H112c-38 0-69-1-93-4L0 830c31-7 69-11 112-11h636Z"/></symbol><symbol id="𠀃_G" viewBox="0 0 1000 1000" data-size="21"><path transform="matrix(1 0 0 -1 33 930)" d="m222 857 45-37h379l33 39 50-46c5-4 7-8 6-10 0-4-4-6-9-7l-20-15V32h107l40 49 72-57c7-4 10-7 8-9s-8-3-19-2H77C60 13 45 9 33 0L0 32h229v768c1 13-5 28-19 44l12 13m51-825h388v769H273V32Z"/></symbol><symbol id="𠀃_T" viewBox="0 0 1000 1000" data-size="21"><path transform="matrix(1 0 0 -1 25 927)" d="m222 853 62-43h377l33 37 41-27c13-8 20-16 20-23 0-9-13-19-38-30V34l102-1 51 55 70-54c4-3 7-7 8-11 3-13-2-19-15-19H112C74 4 43 3 19 0L0 43c25-6 63-9 114-9l114-1v738c0 18-1 32-2 42-3 20-4 31-4 33v7m53-71V33h393v749H275Z"/></symbol><symbol id="𠀄_T" viewBox="0 0 1000 1000" data-size="21"><path transform="matrix(1 0 0 -1 32 887)" d="M417 709H211c-38 0-70-1-93-3l-19 43c32-8 69-12 112-12h516l31 38 37-26c22-16 33-28 32-37s-8-14-23-17l-30-6c-45-62-92-111-143-147l-15 17c46 46 81 96 105 150H461V33h343l54 54 69-54c8-6 11-12 10-18-2-7-7-10-16-10H92C69 5 44 4 19 0L0 42c39-6 70-9 92-9h325v676Z"/></symbol><symbol id="𠀅_G" viewBox="0 0 1000 1000" data-size="21"><path transform="matrix(1 0 0 -1 37 954)" d="m467 768 95-39c8-3 9-8 3-12-15-2-27-6-38-11-13-102-26-177-39-227h249l34 39 51-49c5-5 7-8 6-11s-3-4-9-5l-27-11-6-70c-12-116-24-191-36-224C721 66 650 16 539 0c0 20-6 33-19 40s-43 20-90 39l6 14c56-18 105-26 145-25 28 3 50 9 65 18 14 7 30 23 48 49 20 30 35 93 46 189l15 136H484C422 218 271 67 32 7l-4 20c222 77 359 221 411 433H223l-28-47-55 35c15 17 27 33 36 48l21 183c0 15-10 26-28 31l6 11 83-10c6-1 10-3 12-5 1-2 0-4-3-7-12-5-21-13-27-24l-28-196h233c20 85 33 165 38 240-5 17-13 31-23 42l7 7m452 83c6-5 7-8 5-10s-9-3-20-2H67c-11-1-22-6-34-15L0 858h802l41 49 76-56Z"/></symbol><symbol id="𠀅_T" viewBox="0 0 1000 1000" data-size="21"><path transform="matrix(1 0 0 -1 44 958)" d="M144 830h-32c-35 0-66-1-93-4L0 869c31-7 68-11 112-11h670l48 59 73-59c5-4 8-8 9-13 2-10-3-15-16-15H522c-1-10-2-22-3-38-9-110-26-211-53-301h344l33 37 40-27c13-8 20-16 20-23 0-9-13-19-38-30-25-179-52-294-82-346C749 42 694 8 620 1c0 18-4 30-15 37-14 10-61 25-143 46l6 20c97-24 157-36 180-36 51 0 90 41 117 123 21 65 36 155 47 271H457c-20-57-37-99-50-125-38-79-94-149-167-212C192 84 130 42 53 0l-8 17c108 71 190 144 247 219 47 62 85 138 115 226H113c-12-1-20-2-24-2-19 0-29 4-30 11 0 2 2 12 7 29 6 20 11 37 14 51l64 279m46 0-77-339h304c26 86 45 196 55 328v11H190Z"/></symbol><symbol id="𠀆_K" viewBox="0 0 1000 1000" data-size="21"><path transform="matrix(1 0 0 -1 58 941)" d="M412 683v198l92-20v-12l-28-17V700c86 24 157 50 213 79l63-61-11-10-42 5c-69-23-143-42-223-58V463h298l38 46h17l55-51v-17H476V23l-8-8-47-15-9 6v435H0v22h412v181c-103-15-215-26-334-31l-3 15c110 9 222 27 337 55Z"/></symbol><symbol id="𠀇_G" viewBox="0 0 1000 1000" data-size="21"><path transform="matrix(1 0 0 -1 27 935)" d="M0 32h232v775c2 17-4 34-18 49l12 14 41-39h388l34 39 50-47c5-4 7-7 6-10s-4-5-10-6l-19-9V32h99l42 52 82-57c7-5 9-8 7-10-2-3-9-4-19-4H77C60 13 44 9 31 0L0 32m671 434H277V32h394v434m-394 19h394v327H277V485Z"/></symbol><symbol id="𠀇_T" viewBox="0 0 1000 1000" data-size="21"><path transform="matrix(1 0 0 -1 26 927)" d="m222 853 62-43h377l33 37 41-27c13-8 20-16 20-23 0-9-13-19-38-30V34h102l51 54 70-54c4-4 7-7 8-12 2-5 0-10-5-15-2-2-5-3-10-3H112C74 4 43 3 19 0L0 43c25-6 63-9 114-9h114v737c0 19-1 33-2 42-3 20-4 31-4 33v7m446-454H275V34h393v365m-393 26h393v357H275V425Z"/></symbol><symbol id="𠀈_G" viewBox="0 0 1000 1000" data-size="21"><path transform="matrix(1 0 0 -1 21 934)" d="M0 32h218v696c2 13-4 32-19 57l14 10 39-42 193 25c122 20 196 33 223 38 31 6 50 12 56 18 5 6 9 16 11 30l9 4 60-65c6-6 9-11 9-14s-3-5-9-6c-17 7-39 7-68 0-6 0-14-2-26-4-46-6-98-13-158-20-54-7-151-15-289-24V570h391l35 41 61-48c4-4 3-8-3-12-12 0-23-4-34-12L538 353h182l23 33 59-43c4-5 2-9-6-12l-25-14V32h61l41 57 78-62c7-5 9-8 7-10-3-3-9-4-20-4H71C58 13 44 9 31 0L0 32m263 0h466v301H540l-43-28-33 55c13 3 25 8 37 14l161 177H263V32Z"/></symbol><symbol id="𠀈_T" viewBox="0 0 1000 1000" data-size="21"><path transform="matrix(1 0 0 -1 30 930)" d="M196 725c103 14 198 32 284 55 96 25 168 51 215 79l55-55c6-6 8-11 8-15 0-6-4-10-11-11-2 0-17 4-45 13-90-26-164-44-222-55-83-16-179-28-287-36V572h307l33 37 40-26c14-9 20-17 20-24 0-12-12-22-38-30l-36-182h220l34 39 40-29c14-9 20-18 20-25 0-8-4-15-14-19l-25-9-21-274h37l52 59 66-56c8-6 12-12 12-16 0-9-6-13-18-13H112C74 4 43 3 19 0L0 43c32-8 69-11 112-11h32v627c0 30-2 62-5 95l57-29m-3-179V30h532l21 290H516c-13-4-24-5-32-5-12 2-17 7-15 16l4 19 35 196H193Z"/></symbol><symbol id="𠀉_T" viewBox="0 0 1000 1000" data-size="21"><path transform="matrix(1 0 0 -1 24 934)" d="M230 427V29l595 1 51 59 67-56c5-4 8-8 9-12 1-6-1-10-5-14-2-2-6-3-10-3H112C74 4 43 3 19 0L0 43c29-7 67-10 112-11h69v669c-1 31-3 49-5 53l58-25c134 23 237 45 307 65 78 23 137 48 178 75l55-56c6-5 8-10 8-15 0-6-4-10-11-10-2 0-17 4-45 12-93-29-166-49-219-60-60-12-152-25-277-39V456l520-1 52 55 66-54c6-5 9-9 9-13 1-11-4-16-16-16H230Z"/></symbol><symbol id="𠀊_G" viewBox="0 0 1000 1000" data-size="21"><path transform="matrix(1 0 0 -1 29 968)" d="M562 890c3-4 4-8 3-10 0-2-3-3-7-4-19 0-31-8-37-25-23-61-43-113-61-158h352l38 56 84-61c6-5 8-8 6-10-2-3-9-4-19-4H452c-17-38-32-69-45-94-30-53-58-99-85-138-26-37-69-84-129-140C134 246 73 201 9 169l-6 14c75 56 134 106 176 151 41 45 75 86 101 122 26 37 56 86 89 148 13 23 24 46 34 70H77c-17 0-33-4-46-13L0 693h412c15 34 28 67 38 101 21 64 30 99 28 105-3 7-9 16-18 28l9 10 93-47m-83-328c-1 14-10 29-26 44l8 11 86-37c6-3 9-5 11-7 1-2 0-5-4-7-12-3-22-8-31-15V88c0-24-6-41-17-54-11-12-38-24-82-34-2 19-11 32-26 40-14 7-42 17-85 30l4 16 41-10c47-10 78-12 94-6 18 6 27 22 27 49v443m116-63 9 12c137-76 223-145 259-205 32-58 32-94 0-107-15-3-27 13-37 49s-33 74-71 115-91 87-160 136Z"/></symbol><symbol id="𠀋_G" viewBox="0 0 1000 1000" data-size="21"><path transform="matrix(1 0 0 -1 49 972)" d="M604 911c3-4 3-8-2-12-17-5-30-13-38-25V703h220l34 50 77-55c6-5 8-9 6-10-2-3-9-4-19-4H563c-3-194-25-328-64-400-8-15-17-29-26-43 41-34 81-62 122-83 84-43 158-67 220-70 3 0 7 0 12-1 8 0 27-1 58-4V63c-35 0-59 0-74-1-15-2-26-12-31-30-51 9-110 30-176 63-59 29-112 65-161 109-33-40-74-72-121-99C247 63 143 27 10 0L8 16c109 31 202 69 279 114 48 25 89 60 125 104-44 47-81 96-112 149-35 60-72 139-111 239l18 4c83-169 154-282 213-339l9-9c4-3 8-6 9-7 10 13 17 27 24 42 33 66 51 190 55 371H77c-17 0-33-4-46-13L0 703h518v193c-5 11-15 23-30 35l5 13 111-33m55-6 8 12c66-33 105-64 117-95 14-38 7-59-19-62-12 1-20 11-23 29-2 19-10 37-23 56-12 18-32 38-60 60Z"/></symbol><symbol id="𠀋_T" viewBox="0 0 1000 1000" data-size="21"><path transform="matrix(1 0 0 -1 46 958)" d="M446 259c44-33 87-61 130-83 89-48 192-83 309-105V54c-24-1-41-6-51-13-5-4-10-12-17-24-75 20-159 56-249 108-53 31-102 65-148 103-46-54-92-95-137-124C209 57 118 22 11 0L4 20c156 39 284 118 383 237-51 47-91 90-121 130-36 49-68 105-96 169l16 10c41-74 86-138 135-192 19-20 48-48 90-85 51 79 77 185 77 315v64H112c-45-1-76-2-93-4L0 707c31-7 68-11 112-11l375 1 1 72c0 65-3 114-9 146l54-12c26-6 40-13 42-21 1-8-7-15-25-21l-14-6V697h238l51 57 64-52c10-8 15-12 16-13 5-6 4-12-3-18-2-2-6-3-11-3H536l-2-72c-4-148-33-260-88-337m204 657c31-13 65-32 104-57 33-21 50-43 50-66 0-15-7-24-20-26-9-1-18 4-26 13-2 3-7 13-16 30-10 18-27 37-52 59-4 3-13 10-29 21-6 4-12 9-20 15l9 11Z"/></symbol><symbol id="𠀋_J" viewBox="0 0 1000 1000" data-size="21"><path transform="matrix(1 0 0 -1 65 936)" d="M428 637H32l-18 28h414v207l82-9c12-1 18-6 18-14 0-7-5-13-16-17l-21-7V665h229l55 65 95-73v-20H491c-2-94-6-166-13-216-6-46-14-84-23-113-5-15-14-36-27-63 49-31 102-59 159-82 65-25 157-52 275-80l-2-15c-23-5-40-13-51-24-7-7-15-19-25-37-96 31-171 61-224 89-44 22-98 56-163 102-48-55-108-100-180-134C164 40 94 19 6 0L0 21c85 24 158 55 219 94 59 39 104 79 136 120-46 53-81 102-105 147-14 27-31 65-50 114l-35-78 5-19c1-3 1-8 1-13 0-7-3-11-9-11s-12 3-17 9l-49 56c55 43 87 74 95 94l22 53 46-36-44-35c29-57 53-101 74-130 29-39 59-74 92-106 31 80 46 199 47 357m138 179 8 17c56-8 94-19 114-34 19-15 29-33 29-54 0-16-5-28-15-37-6-5-12-7-19-7s-14 2-19 6c-6 4-18 20-35 48-17 25-38 46-63 61Z"/></symbol><symbol id="𠀌_G" viewBox="0 0 1000 1000" data-size="21"><path transform="matrix(1 0 0 -1 27 896)" d="m560 784 43-41h208l40 49 72-55c7-5 10-8 8-10-2-3-8-4-19-3H611V32h212l40 50 75-55c6-5 8-8 6-10-2-3-9-4-19-4H77C60 13 44 9 31 0L0 32h341v694H84c-12 1-23-3-35-12l-31 31h308l34 38 49-46c5-4 7-7 6-9-1-3-4-5-10-6l-19-8V32h180v689c2 13-4 31-18 53l12 10Z"/></symbol><symbol id="𠀍_G" viewBox="0 0 1000 1000" data-size="21"><path transform="matrix(1 0 0 -1 23 951)" d="m677 855 86-33c9-3 11-7 6-10-12-3-21-9-29-18V525h95l40 46 70-50c7-6 9-9 7-11-2-3-9-4-19-4H740V64h92l42 50 72-56c7-5 9-8 8-10-1-3-5-4-14-3H229L188 0l-48 45c18 14 28 27 31 40v421H77c-17 1-33-4-46-13L0 525h171v279c1 15-7 30-24 44l8 9 85-34c6-2 10-5 11-7s-1-4-4-5c-13-4-23-10-31-19V525h218v326c1 11-8 24-27 41l8 10 86-33c9-3 11-7 6-11-11-2-21-8-28-17V525h216v279c2 11-7 24-26 41l8 10M434 506H216V64h218v442m261 0H479V64h216v442Z"/></symbol><symbol id="𠀎_G" viewBox="0 0 1000 1000" data-size="21"><path transform="matrix(1 0 0 -1 39 953)" d="m266 906 95-35c9-3 11-7 6-11-13-6-24-12-30-20V651h249v197c1 10-9 25-29 45l8 11 96-35c9-3 11-7 6-11-14-5-23-12-29-20V651h145l40 54 85-59c7-5 9-8 7-10-3-3-9-4-19-4H638V351h98l42 53 81-58c7-6 9-9 8-11-1-3-6-4-14-4H638V32h152l40 53 85-58c7-5 9-8 7-10-3-3-9-4-20-4H77C60 13 44 8 31 0L0 32h287v299H148c-17 0-32-4-45-13l-33 33h217v281H99c-19 0-34-4-47-13l-31 32h266v199c1 10-9 25-30 45l9 11m71-575V32h249v299H337m0 301V351h249v281H337Z"/></symbol><symbol id="𠀎_V" viewBox="0 0 1000 1000" data-size="20"><path transform="matrix(1 0 0 -1 83 953)" d="M834 15H95l-10-2c-7-1-15-3-24-5S43 4 36 3c-7-2-12-3-13-3L0 40h268v269H157c-11 0-22-2-35-5s-24-5-35-7l-19 38h200v256h-97l-16-4c-10-2-20-4-31-6s-17-3-18-4l-21 40h183v288l73-36c0-1-1-4-3-11-1-7-3-14-6-23s-5-16-7-23l-2-9V617h180v278l74-32c0-1-2-7-5-18s-6-21-9-31l-5-15V617h63l54 52 72-78H558V335h70l55 47 74-73H558V40h137l61 51 78-76M503 591H323V335h180v256m0-282H323V40h180v269Z"/></symbol><symbol id="𠀏_T" viewBox="0 0 1000 1000" data-size="21"><path transform="matrix(1 0 0 -1 44 937)" d="M405 707H138c-38 0-69-2-94-4l-18 43c31-7 69-11 112-11h267v61c0 38-1 64-4 78l54-12c27-6 41-13 42-21 1-9-8-16-25-21l-19-6v-79h281l51 57 74-57c6-5 9-11 9-18-1-7-7-10-18-10H453V433h263v115c0 39-1 65-4 78l54-11c26-6 40-13 41-22s-7-16-24-21l-20-6v-50c0-35 2-69 6-103 1-9 1-18 1-26 0-12-8-19-24-20-20-2-30 5-30 20v18H453V224c0-23 5-36 15-40 11-4 74-7 192-7 77 0 121 2 132 5 16 6 27 24 32 56 4 27 9 65 13 114l21-2-2-119c0-15 3-25 7-30 1-1 7-6 18-15 6-6 9-11 10-17 2-14-16-24-55-30-23-3-111-5-266-5-76 0-122 3-136 9-19 9-29 27-29 55v207H162c-5-1-9-2-11-3-5-1-9-2-13-3-8-2-14-1-18 3-5 4-7 8-7 14v136c-2 47-3 73-4 78l53-12c27-6 41-13 42-21 1-10-7-17-24-21l-20-6V433h245v274M778 32l51 58 74-58c7-5 10-11 9-17-1-7-6-11-17-11H112C74 4 43 3 19 0L0 43c32-7 69-11 112-11h666Z"/></symbol><symbol id="𠀐_T" viewBox="0 0 1000 1000" data-size="21"><path transform="matrix(1 0 0 -1 44 938)" d="M480 298c-1-83 1-141 4-174 2-22 2-36 1-42-3-13-15-19-35-19-10 1-16 5-18 11-1 2-1 19-1 51v104h1v127H165v-19c-2-9-10-12-25-11-4 0-10 2-18 5-6 6-8 13-8 22 0 24 0 41 1 51 2 15 3 45 3 90v170c-1 26-4 47-8 65l58-42h264v111c-1 40-2 65-4 77l53-11c27-6 41-13 41-21 1-5-2-9-7-14-5-4-10-7-16-8l-19-3V686h263l33 37 41-27c13-8 19-16 19-23 0-9-12-19-38-30V402l32-22c8-6 8-13 2-21-2-2-4-3-6-3l-346-1v-57m-315 85h267v276H165V383m315 277V383h272v276l-272 1M778 32l51 57 74-57c7-5 10-11 9-18s-6-10-17-10H112C74 4 43 3 19 0L0 43c32-8 69-11 112-11h666Z"/></symbol><symbol id="𠀑_G" viewBox="0 0 1000 1000" data-size="21"><path transform="matrix(1 0 0 -1 33 967)" d="m104 717 41-44h208c1 23 1 47 1 73v118H77c-17 1-33-3-46-12L0 884h812l40 50 74-55c6-5 9-9 7-11-3-2-9-4-20-4H399V740c0-8 0-19-1-33 0-16 0-27-1-34h377l30 40 50-42c6-4 9-8 9-11 0-2-3-5-9-8l-19-12V136c1-39-3-67-12-86-9-18-32-31-68-39 3 28-31 50-102 64-8 2-15 4-19 5l2 16c71-15 115-22 131-21 15 1 23 18 23 49v529H576V420c2-34 7-52 16-56 9-2 18-4 26-6 10 0 15 1 16 1 53 3 84 9 95 19h5c10-9 21-19 34-30 12-12 15-19 7-20l-30-7-89-5c-32 0-60 1-84 4-26 12-39 37-41 76v257H396c-7-103-25-182-53-236-36-68-93-116-170-144l-6 14c61 34 108 82 140 146 24 48 39 122 45 220H154V134l4-89c2-24-17-38-55-45 3 25 5 85 6 179v487c-2 18-9 32-19 40l14 11Z"/></symbol><symbol id="𠀒_G" viewBox="0 0 1000 1000" data-size="21"><path transform="matrix(1 0 0 -1 33 959)" d="m778 321-4-45c-7-80-20-135-39-166-18-32-41-56-70-70-28-16-81-29-158-40 0 21-16 37-47 49s-67 25-107 41l5 17c86-28 149-43 190-44 31 0 58 5 82 17 56 14 89 78 99 191l2 68H270l-37-37-41 56c10 4 21 10 34 18l80 146H77c-17 1-32-3-44-12L0 542h826l34 43 65-51c7-4 10-8 8-10s-8-2-19-2H354l-91-164h453l32 38 58-50c3-6 1-10-6-11l-22-14M33 865h763l40 54 76-59c7-5 9-8 7-10-3-3-9-4-20-4H110c-17 0-33-4-46-13l-31 32m279-57 61-59c4-4 6-7 5-10-1-2-4-4-9-5-11 4-21 4-30 1-102-84-193-137-273-159l-2 14c86 49 147 90 183 124 37 34 56 54 58 60 2 8 1 16-3 26l10 8m248-32 3 16c66-14 123-34 170-59 49-24 79-45 91-63 23-37 21-61-5-70-11-2-24 8-38 31-13 23-38 47-75 72-36 26-85 50-146 73Z"/></symbol><symbol id="𠀒_T" viewBox="0 0 1000 1000" data-size="21"><path transform="matrix(1 0 0 -1 21 959)" d="m114 827-19 43c31-7 69-11 113-11h497l51 58 75-60c5-4 7-9 6-15-2-7-8-11-17-11H208c-40 0-71-1-94-4m214-337-68-158h422l33 37 41-26c16-11 23-19 23-26-1-6-6-12-16-17-2 0-4-1-5-2-5-2-12-5-21-9-3-14-6-24-7-30-14-61-29-107-46-137C645 51 585 10 506 0c0 17-7 30-22 41-14 9-45 22-93 39l5 19c64-19 104-29 123-30 43-3 80 16 109 56 24 31 45 91 62 179H251c-7-2-13-3-19-4-18-3-29 0-31 9-1 4 1 11 7 21 7 9 12 19 15 27l51 133H112c-40 0-71-2-93-5L0 528c29-7 68-10 116-10h709l50 58 76-60c6-5 8-11 5-17s-10-9-19-9H328m-25 300 56-35c12-7 18-15 17-23s-7-12-19-12h-30c-72-70-155-125-249-166l-9 15c113 70 190 144 234 221m256-7c57-26 110-55 160-89 57-37 86-69 89-96 0-10-2-19-9-25-7-9-17-10-27-5-6 3-17 15-34 36-45 59-108 112-189 160l10 19Z"/></symbol><symbol id="𠀓_G" viewBox="0 0 1000 1000" data-size="21"><path transform="matrix(1 0 0 -1 30 940)" d="M178 811c-12 1-24-4-37-14l-35 33h299l36 38 48-46c5-4 7-7 6-9-1-3-4-5-10-6l-19-8V691l4-59c1-29-15-43-49-42v41H201l-40-170h256l34 39 50-46c3-6 1-9-6-11l-19-13c-2-15-4-34-6-58-3-32-5-58-8-79s-8-43-17-66c-17-53-64-87-139-103 1 19-9 33-31 41-21 9-57 20-108 34l3 16c63-12 104-19 124-22 19-2 36-3 49-3 13 1 26 9 41 25 14 15 24 37 30 64 6 28 11 82 17 162H170l-32-35-50 44c14 7 26 18 36 33l37 164c-2 15-8 28-15 40l14 8 36-45h225v161H178m528 69 89-35c9-4 11-7 6-11-14-5-24-11-30-21V254l3-95c2-23-17-37-54-44 3 25 5 63 7 114v594c1 11-9 26-30 45l9 12M0 32h818l36 51 77-59c7-4 9-7 7-9-1-2-7-3-18-2H77C60 13 45 9 33 0L0 32Z"/></symbol><symbol id="𠀔_G" viewBox="0 0 1000 1000" data-size="21"><path transform="matrix(1 0 0 -1 33 946)" d="M481 762c6-7 6-11-1-13-8 1-18 0-30-3-54-66-119-139-195-218 106 6 209 12 309 19 6 10 12 20 19 30 35 59 51 93 48 103-3 9-8 19-15 27l8 10 85-41c6-3 9-6 9-9s-3-5-9-8c-10 1-21-1-30-9-60-110-115-193-167-249S405 298 345 260c-60-39-149-73-266-105l-8 14c136 53 231 102 286 147 56 45 98 85 128 121 20 22 40 50 62 84l-175-20c-62-8-101-13-117-16-16-2-33-12-53-29l-39 65c25 1 46 9 63 23 64 64 124 140 178 227 4 10 2 21-6 33l8 7 75-49m345-270c5-2 8-5 8-8 1-2-2-5-7-8-14 1-26-2-35-9-55-85-108-153-160-205 80-45 135-81 165-110 53-48 74-89 63-122-4-13-11-20-23-20s-22 12-31 36-25 52-50 83c-23 31-69 70-140 117-5-5-11-10-16-16C480 123 336 46 167 0l-6 14c96 41 179 83 247 124 69 41 130 91 184 147 54 57 94 106 121 147s39 66 36 75c-2 9-6 18-14 26l8 10 83-51M0 832h790l48 60 88-65c6-5 9-9 7-11-3-2-9-3-20-3H77c-17 0-33-4-46-13L0 832Z"/></symbol><symbol id="𠀔_T" viewBox="0 0 1000 1000" data-size="21"><path transform="matrix(1 0 0 -1 32 951)" d="m545 242 10-4c97-40 165-72 205-97 58-34 92-65 103-93 4-12 4-23-2-34-3-6-8-10-15-12-14-2-32 9-54 34-36 41-85 82-148 123-38 24-79 45-123 64C372 112 212 39 41 5l-5 20c91 29 157 54 198 72 86 40 160 82 221 127 57 42 117 100 181 174 32 38 59 75 79 113l73-38c7-4 10-8 9-14 0-7-5-11-14-12l-40-3c-80-95-146-163-198-202M407 819l-9-13c-44-70-79-121-105-152-39-48-78-89-116-122 112 9 226 22 341 40 41 46 73 93 95 141l76-37c6-3 9-7 8-14-1-12-19-18-53-17-59-76-112-135-160-176C355 356 203 281 29 242l-5 22c105 36 190 73 256 111 84 48 155 103 212 166-84-16-175-31-272-46l-32-5c-1-4-1-6-1-8-4-22-10-31-18-27-5 2-10 8-14 18l-25 56c29 16 72 64 127 144 21 30 50 79 86 146H112c-38 0-69-2-93-4L0 858c30-7 67-11 112-11h691l58 57 64-57c9-7 12-14 11-20-2-5-7-8-13-8H407Z"/></symbol><symbol id="𠀕_G" viewBox="0 0 1000 1000" data-size="21"><path transform="matrix(1 0 0 -1 26 922)" d="M714 537 602 32h219l43 54 77-59c7-5 9-8 7-10-2-3-9-4-19-4H77C60 13 44 9 31 0L0 32h555l46 209H247l-32-37-47 44c14 10 26 23 36 36l121 488H142c-18 1-33-3-44-12l-34 32h709l46 53 73-61c7-4 9-8 7-10-1-2-7-2-18-2H370l-47-192h332l33 38 52-46c9-8 9-12 2-13-12-4-21-11-28-22M245 261h360l66 300H318l-73-300m115 224 8 12c60-31 98-55 113-71 16-16 27-32 34-48 13-38 8-59-14-62-12 1-20 11-25 31-5 19-18 41-38 65-21 25-46 49-78 73Z"/></symbol><symbol id="𠀖_V" viewBox="0 0 1000 1000" data-size="20"><path transform="matrix(1 0 0 -1 49 999)" d="M901 340H85c1 0-4-1-14-4s-20-5-31-8c-10-2-16-3-17-4L0 364h283v335H125c1 0-4-1-15-4-10-3-20-5-31-8-10-3-16-4-17-5l-21 41h242v271l75-33c-1-1-2-5-5-13-2-7-4-16-7-25s-5-17-7-24l-3-10V722h221v275l78-35-24-65V722h110l52 49 78-72H611V364h157l53 53 80-77M557 699H336V364l221-24v359M843 37c0-9-2-17-7-25S824 0 814 0c-5 0-10 1-15 4-5 2-9 5-13 8-7 6-14 15-20 26-5 11-11 23-16 35s-10 22-16 30c-11 18-26 38-44 59-17 21-36 42-55 62s-37 36-54 49l1 3c15-8 34-18 56-31 23-12 46-26 69-42 24-15 46-32 67-50s37-37 50-56c13-20 19-40 19-60Z"/></symbol><symbol id="𠀗_V" viewBox="0 0 1000 1000" data-size="20"><path transform="matrix(1 0 0 -1 43 1004)" d="M913 363H104l-10-3c-7-1-15-3-24-5s-17-4-24-6c-7-1-10-2-11-2l-25 38h293v328H141l-16-4c-10-2-20-4-31-6s-17-3-18-4l-25 38h252v268l72-33c0-1-1-7-4-18s-6-21-9-31l-4-15V736h214v272l77-33c0-1-1-5-4-12-2-7-5-14-8-23s-5-16-7-23l-3-9V736h112l53 47 70-70H627V385h166l49 46 71-68M572 713H358V385l214-22v350M418 246l-45-12c-22-22-48-45-77-70-29-24-61-47-94-69-33-23-67-42-101-59S35 7 4 0L0 1c28 21 59 44 94 69s69 51 103 80c34 28 65 58 92 89s48 63 61 96l68-89Z"/></symbol><symbol id="𠀘_G" viewBox="0 0 1000 1000" data-size="21"><path transform="matrix(1 0 0 -1 65 951)" d="M19 412h728l40 49 72-57c8-4 10-8 8-9-1-2-7-3-18-2H564V152c2-42 7-65 16-70 10-6 23-9 38-11 16-1 42-2 80-2h51c10 0 17 1 22 1 11 1 19 3 26 5 8 3 13 9 15 20 3 9 5 21 5 35 2 15 3 48 3 99h16c3-48 5-83 6-104 1-20 10-31 27-33-14-35-32-53-55-55-10-2-27-4-49-5-13 0-43 0-91 1h-24c-52 1-83 3-91 7-9 4-17 13-26 26-8 14-13 36-13 67v260H345c-4-99-16-170-36-214C268 88 167 28 6 0L0 18c113 30 197 79 251 147 27 35 44 111 51 228H96c-18 0-33-4-44-13l-33 32m0 442h728l40 48 72-56c8-5 10-8 8-10-1-2-7-3-18-2H564V616c2-38 7-59 16-65 10-5 23-9 38-10 16-1 42-2 80-2h51c10 0 17 0 22 1 11 1 19 2 26 5 8 3 13 9 15 18 3 11 5 22 5 34 2 12 3 46 3 101h16c3-45 5-78 6-97s10-32 27-39c-14-35-32-53-55-55-10-3-27-4-49-5s-61-1-115 0c-52 1-83 4-91 8-9 4-17 12-26 26-8 14-13 37-13 68v230H345c-4-89-16-155-36-198-41-93-142-154-303-182l-6 18c115 30 199 80 251 150 27 35 44 106 51 212H96c-18 1-33-4-44-13l-33 33Z"/></symbol><symbol id="𠀘_T" viewBox="0 0 1000 1000" data-size="21"><path transform="matrix(1 0 0 -1 35 960)" d="M337 398c-4-66-10-118-19-154-18-80-67-141-147-183C130 39 76 19 7 0L0 19c106 35 181 79 223 132 38 48 60 130 65 248l-186-1c-23 0-47-1-73-4l-19 41c41-5 71-8 92-8h699l48 49 60-53c5-4 7-9 6-15s-5-10-12-10H610V119c0-17 4-28 11-32 7-5 33-8 79-9h74c40 0 64 5 74 14 9 8 15 27 19 57l14 112 20-2-5-128c0-18 8-33 24-46 5-4 8-8 9-11 4-11-2-20-19-28-23-8-94-13-214-13-44 0-75 2-92 6-27 5-41 25-41 58v301H337m31 445c-6-76-13-130-23-163-15-52-47-94-95-126-32-22-88-46-169-72l-7 21c68 24 119 51 153 80 37 32 63 70 76 117 9 32 14 79 16 143l-156-1c-21 0-45-1-73-5l-19 42c41-5 71-8 92-8h581l48 49 59-52c6-6 9-12 7-16-2-7-6-10-12-10H579V598c0-18 3-28 9-32 13-6 38-9 76-9 62 0 100 1 111 4 17 5 28 21 33 47 1 7 5 39 13 96l20-1-6-89c-1-17 2-30 9-38 1-2 6-6 15-12 5-3 8-7 9-11 7-21-19-34-78-38-65-6-128-6-187-1-29 2-47 7-56 15-10 9-15 25-15 47v266l-164 1Z"/></symbol><symbol id="𠀙_G" viewBox="0 0 1000 1000" data-size="21"><path transform="matrix(1 0 0 -1 48 950)" d="M817 620V120c1-40-4-67-14-80-11-16-32-27-66-33 3 25-18 43-61 56-20 7-36 14-48 19l2 16c60-18 99-27 116-27h3c16 1 23 17 23 47v516H561V45c1-24-16-39-52-45 4 44 7 104 7 183v458c-2 16-9 30-19 43l16 11 37-42h207l29 40 51-42c6-4 9-7 9-10 0-4-3-6-9-8l-20-13m-451-6V120c1-40-4-67-14-80-11-16-33-27-66-33-1 23-25 42-70 57-16 5-28 9-35 12l2 16c57-14 94-21 112-21h3c15 1 23 17 23 47v510H125V45c1-24-16-39-52-45 5 44 7 104 7 183v454c-2 16-8 30-18 43l15 11 39-44h190l29 41 51-42c6-4 9-8 9-11s-3-6-9-8l-20-13m101 238h318l39 48 71-55c5-4 8-7 8-9 0-3-5-4-14-4H550c-21 0-38-4-52-13l-31 33M0 846h324l35 47 71-54c6-4 8-7 8-9 0-3-4-4-14-4H64c-7 0-20-3-38-10L0 846Z"/></symbol><symbol id="𠀙_T" viewBox="0 0 1000 1000" data-size="21"><path transform="matrix(1 0 0 -1 36 944)" d="M19 804 0 847c9-2 15-3 20-3 28-4 52-7 72-7h235l48 50 59-52c6-6 9-12 7-17-2-6-6-9-13-9H92c-22 0-46-2-73-5m305-173 33 37 41-26c13-9 20-17 20-24 0-8-10-17-29-26l-8-4V83c0-46-25-74-76-83-3 21-11 36-22 44-7 6-34 13-79 23l4 22c16-3 36-6 61-9 6-1 15-2 25-3 8-2 14-2 18-2 15 0 22 8 22 26v503H88V30C88 10 77 0 55 2c-15 1-21 9-21 24 1 6 1 14 2 22 4 37 6 71 6 103v454c0 7-3 30-8 69l60-43h230m159 173-19 43c9-2 15-3 20-3 28-4 52-7 72-7h257l48 50 59-52c6-6 9-12 7-17-2-6-6-9-12-9H556c-22 0-46-2-73-5m322-173 33 37 41-26c13-9 19-17 19-24 0-8-9-17-28-26l-9-4V83c0-46-25-74-75-83-4 21-11 36-23 44-7 6-33 13-78 23l3 22c16-3 37-6 61-9 7-1 16-2 26-3 8-2 13-2 17-2 15 0 23 8 23 26v503H552V30c0-20-11-30-33-28-15 1-22 9-21 24 0 6 1 14 2 22 4 36 6 71 6 103v454c0 8-3 31-8 69l60-43h247Z"/></symbol><symbol id="𠀚_G" viewBox="0 0 1000 1000" data-size="21"><path transform="matrix(1 0 0 -1 52 956)" d="m421 462 42-17c10 11 26 28 46 51 2 3 3 5 5 6-53-4-106-8-160-11-56-3-99-7-129-12-28-3-50-14-64-33l-37 82c25-3 51 2 78 16 89 81 167 171 233 272 2 7 0 16-6 29H123c-19 0-34-5-47-13l-31 32h722l39 47 71-53c6-5 9-9 7-11-3-2-9-3-20-2H449l66-42c4-5 3-9-5-11-14 1-27-2-40-8-61-79-143-166-246-262 56 1 157 4 302 10 97 4 173 7 228 9-7 8-14 16-24 23-11 10-29 25-54 44-19 16-33 28-43 36l8 11c32-15 68-37 110-64 37-26 64-50 81-74 18-24 25-45 23-62-3-16-11-25-25-26-14-2-26 13-36 47-6 15-14 30-24 45-5 0-12-1-21-1-74-6-131-10-170-14-23-28-46-55-69-79 9-3 11-7 6-11-14-5-24-11-30-20V114l3-69c2-24-17-38-54-45 3 25 5 76 6 153v205c-53-49-116-95-190-136-76-43-157-76-244-100l-7 10c80 33 150 68 209 104 59 37 117 80 174 131 18 16 36 34 55 52-5 8-14 19-26 31l9 12m124-99 6 16c270-111 381-203 334-277-13-5-25 3-37 25-13 20-30 42-52 64-22 24-50 48-82 73-33 24-89 58-169 99Z"/></symbol><symbol id="𠀚_T" viewBox="0 0 1000 1000" data-size="21"><path transform="matrix(1 0 0 -1 36 961)" d="m496 541-1-393 5-87c1-13 2-25 2-35 0-17-10-26-31-26-15 0-23 7-23 21l1 516-11-1-48-5c-105-8-173-14-204-19l-2-16c-1-11-4-18-10-19-8-2-14 4-21 18l-28 65c44 26 90 66 137 120 49 55 87 109 115 160H159c-38 0-70-1-94-4l-19 43c34-8 73-12 117-12l623-1 51 56 58-50c8-8 12-15 13-21 0-8-4-11-12-11H448c-73-110-165-203-276-281l63 4 81 3c148 8 288 17 422 27-32 39-84 84-155 135l11 17c163-85 247-157 252-217 1-10-1-18-7-25s-13-9-22-8c-11 1-22 10-33 27s-21 33-30 49c-45-8-131-18-258-30m155-173 11 15c73-46 129-88 169-126 61-57 93-100 96-131 1-10-1-18-6-26-5-7-12-10-21-10-15 1-29 15-42 43-18 40-49 84-94 132-35 38-73 72-113 103M11 79 0 94c111 93 186 197 223 310l69-33c10-5 15-11 15-19s-6-12-16-13l-32-1c-11-18-20-32-26-41-27-43-61-85-101-125-19-19-59-50-121-93Z"/></symbol><symbol id="𠀛_G" viewBox="0 0 1000 1000" data-size="21"><path transform="matrix(1 0 0 -1 43 959)" d="M80 867h627l46 51 78-59c7-4 10-7 8-9-1-2-8-3-19-2H472V690h306l42 58 86-62c7-6 9-9 7-11-3-3-9-4-19-4H472c-2-61-7-116-14-164h275l30 40 50-42c6-4 9-8 9-11 0-2-3-5-9-8l-19-12V155c3-54-1-91-11-112-10-20-33-34-69-42-7 20-19 33-37 40-4 1-11 4-22 8-24 10-45 17-62 23l2 16c69-19 112-27 131-24 18 3 27 28 27 76v347H455c-5-30-12-57-19-82 71-27 121-50 150-68 64-43 95-84 95-122-2-18-9-28-22-29-13-2-26 12-40 42-14 29-32 55-56 77-23 20-68 48-133 84-6-18-13-34-21-47-45-80-118-146-219-200l-5 13c82 61 143 128 183 202 17 32 30 76 40 130H152V45c2-24-16-39-51-45 3 25 5 88 6 187v299c-2 16-8 30-18 43l15 12 36-34h271c7 47 12 101 13 164H77c-17 1-33-4-46-13L0 690h425v158H157c-17 0-32-4-44-13l-33 32Z"/></symbol><symbol id="𠀜_G" viewBox="0 0 1000 1000" data-size="21"><path transform="matrix(1 0 0 -1 26 931)" d="M31 810h740l44 52 79-60c7-5 9-8 7-10-1-2-7-3-18-2H598V32h215l48 58 80-63c7-5 9-8 7-10-2-3-9-4-19-4H77C60 13 44 9 31 0L0 32h355v758H108c-17 1-32-4-44-13l-33 33m522-20H400V32h153v758m94-195 12 8c106-79 171-159 195-241 16-62 10-95-21-97-14 0-22 15-24 43-3 28-15 66-38 115-22 49-63 106-124 172m-363-32c3-7 2-11-5-12-11-2-22-10-32-25-17-54-42-111-75-169-33-57-69-101-107-131l-9 7c60 81 105 172 137 272 11 37 15 59 12 66s-7 16-14 26l8 6 85-40Z"/></symbol><symbol id="𠀝_G" viewBox="0 0 1000 1000" data-size="21"><path transform="matrix(1 0 0 -1 35 926)" d="M27 797h732l44 56 80-61c6-5 9-9 7-11-3-2-9-4-20-4H455v-78c96-24 165-47 206-69 44-24 72-48 85-74 14-33 9-54-16-65-9 0-20 10-33 32-12 23-33 47-62 73-28 23-87 50-180 82V539l2-55c1-23-17-38-54-45 4 26 6 74 7 146v192H104c-17 1-32-3-45-12l-32 32m365-365 86-34c9-3 11-6 5-10-11-3-20-9-28-18V265h217l40 48 72-54c7-5 10-9 8-11-1-3-7-4-19-3H455V32h343l42 56 82-61c6-5 9-8 7-10-3-3-9-4-20-4H77C60 13 44 9 31 0L0 32h410v348c1 11-7 25-26 41l8 11Z"/></symbol><symbol id="𠀞_G" viewBox="0 0 1000 1000" data-size="21"><path transform="matrix(1 0 0 -1 64 940)" d="M414 841h353l31 40 67-49c5-4 8-6 7-8s-5-3-13-3H545V600h145l44 42 47-50c5-4 6-7 5-10s-4-6-11-7l-17-9V217l3-128c-2-22-19-36-54-44l4 91 2 81v363H545V138l4-93c1-24-17-38-56-45 3 25 6 86 7 183v638h-8c-18 1-33-4-45-13l-33 33M0 841h297l31 40 68-49c5-4 7-6 6-8s-5-3-12-3H125V596h122l44 42 47-50c4-4 6-7 5-10s-4-5-11-7l-18-8V236l3-128c-1-21-19-36-53-44l4 91 2 81v340H125V149l4-92c1-24-17-39-56-45 3 25 6 86 7 182v627h-2c-18 1-33-4-45-13L0 841Z"/></symbol><symbol id="𠀟_G" viewBox="0 0 1000 1000" data-size="21"><path transform="matrix(1 0 0 -1 47 981)" d="m410 962 87-35c9-3 11-7 6-11-14-5-24-11-29-20v-81h328l31 39 66-48c6-4 8-6 7-8-1-1-5-2-12-2H474V686h201l34 40 51-48c4-4 6-7 5-10s-5-6-11-7l-18-9v-62l4-20c5-26-11-40-49-43v139H474V498h303l27 33 53-48c4-5 2-9-5-10l-20-10c-1-13-2-29-3-47-1-4-1-6-1-8-1-6-3-21-9-44 5 18 5 17-1-5-5-20-16-37-33-52-16-15-47-25-94-32 6 30-24 52-87 69l2 15c39-11 76-19 111-23 28 1 46 10 53 25 6 16 10 30 12 42 2 13 4 38 5 76H514c17-56 37-104 61-145 53-85 109-144 169-179 25-12 47-21 68-26 20-3 48-7 84-11v-15c-4 0-10-1-16-1-42 0-66-9-71-27-43 11-88 35-135 72-47 39-86 86-118 143-30 53-53 116-70 189h-12V130l3-85c1-24-17-38-55-45 3 25 5 85 7 179v300h-17c-22-65-53-126-94-185C232 164 128 76 4 30L0 42c115 69 206 155 273 259 37 54 68 114 94 178H167l-32-38-50 40c13 8 23 19 30 34l33 158c-1 15-6 28-15 41l11 9 31-37h254v110H86c-18 1-32-4-44-13L9 815h420v90c1 11-9 26-30 45l11 12m19-296H191l-37-168h275v168Z"/></symbol><symbol id="𠀠_G" viewBox="0 0 1000 1000" data-size="21"><path transform="matrix(1 0 0 -1 20 976)" d="m688 952 89-35c9-3 11-7 6-11-13-4-23-11-29-20V715h86l40 49 72-57c7-5 10-8 8-10-1-2-8-2-19-2H754V144l4-93c0-22-16-37-49-45v120H248V45c1-24-16-39-52-45 4 25 6 76 7 153v542H77c-17 1-32-3-44-12L0 715h203v179c1 10-8 25-29 44l9 12 88-35c10-3 12-7 6-11-13-4-23-11-29-20V715h461v181c1 10-8 25-29 44l8 12m21-257H248V144h461v551m-140-46 73-47c6-5 9-9 8-11 0-3-3-4-10-5-9-3-21-8-36-16-24-42-49-81-75-118 33-34 60-67 82-98 19-28 31-54 35-78s0-39-13-43c-11-2-22 13-33 44-11 32-36 71-73 119-6 7-12 16-20 25-66-89-136-160-210-214l-10 11c80 80 144 157 193 230-39 43-94 98-165 163l12 10c79-60 137-108 174-142 51 81 75 125 71 134-2 10-7 19-12 29l9 7Z"/></symbol><symbol id="𠀠_T" viewBox="0 0 1000 1000" data-size="21"><path transform="matrix(1 0 0 -1 29 953)" d="M460 364c-4 4-11 11-22 20-41 39-98 85-169 139l11 14c80-48 147-94 202-138 34 56 62 122 86 198l60-22c23-9 33-18 29-28-2-7-12-11-30-11h-18c-26-60-57-115-92-167 90-80 134-140 134-180 0-10-3-18-9-24-5-6-11-8-18-7-12 2-25 17-38 45-20 44-51 88-95 131-55-68-129-129-223-183l-11 15c85 63 153 129 203 198M188 690l1 139c1 36-1 62-3 78l56-11c26-5 39-12 40-22 0-9-8-16-25-21l-19-6V690h456v139c0 37-1 63-4 78l55-12c27-6 42-13 43-21 0-10-8-17-25-21l-20-6V690h71l53 56 64-55c9-7 13-14 11-19-2-7-6-10-13-10H743V124c0-26 1-48 3-68 2-14 2-25 2-33-1-13-10-20-27-21s-25 5-26 16l-1 21H237l1-10c2-20-9-29-35-27-14 1-21 9-20 24 0 6 1 13 2 22 3 35 5 69 5 102l-1 512h-77c-38 0-69-2-93-4L0 701c31-7 68-11 112-11h76m50-623h456v595H238V67Z"/></symbol><symbol id="𠀡_G" viewBox="0 0 1000 1000" data-size="21"><path transform="matrix(1 0 0 -1 39 960)" d="m434 840 86-33c9-4 11-7 5-11-11-3-20-9-28-18V652h177l36 50 81-56c7-6 10-9 9-11s-8-3-19-2H497V449h302l36 52 80-57c6-5 8-8 6-10-2-3-8-4-19-4H599V164c0-29 4-47 13-57 8-9 26-15 54-16 23-2 45-3 66-3 41-1 73 2 96 9 14 3 23 10 27 21 6 9 9 20 9 33 2 13 4 51 4 116h16l6-80c-1-39 9-61 29-68-10-29-21-45-32-49-10-4-24-8-43-12-18-5-42-7-71-7-28-1-52-1-72-1-58-2-98 4-121 17-16 9-25 37-26 85v278H379l-10-103c-18-106-55-181-111-225C202 56 117 22 4 0L0 12c107 34 184 72 230 114 47 43 79 109 94 199l10 105H84c-18 0-33-4-46-13L7 449h445v184H246c-35-61-75-111-119-148l-10 10c51 70 87 129 109 177 21 47 31 74 31 81-1 7-4 16-9 26l9 12 73-40c5-4 1-8-13-14-10-4-18-7-23-10-12-27-24-52-36-75h194v136c1 11-7 25-26 41l8 11M29 871h732l37 50 84-56c7-5 10-9 8-11s-8-3-19-2H106c-17 0-32-4-43-13l-34 32Z"/></symbol><symbol id="𠀡_T" viewBox="0 0 1000 1000" data-size="21"><path transform="matrix(1 0 0 -1 38 944)" d="M432 810H163c-38 0-70-2-94-4l-19 43c32-8 69-11 113-11h614l49 49 58-52c7-6 9-11 8-16-2-6-6-9-13-9H450l51-10c12-2 20-7 26-13 5-5 5-10 3-15-3-6-10-10-21-13l-27-7V621h205l48 49 59-52c6-6 9-11 8-16-2-6-9-8-21-8H482V402h321l48 49 59-51c7-6 9-12 7-17-1-6-6-9-12-9H596V130c0-28 4-44 10-49 11-7 35-11 73-12 66-1 112 0 137 4 20 2 33 13 39 33 7 22 13 62 19 119l15-4v-98c0-14 3-24 8-30 2-3 9-8 20-14 6-4 8-9 7-16-3-24-75-36-217-36-77 0-124 6-139 17-9 7-14 17-17 30-1 5-2 19-2 41v259H348c-1-8-3-17-5-27-8-52-19-92-33-122-30-64-74-114-130-151C128 40 72 15 11 0L4 19c63 26 113 52 149 79 54 40 93 91 118 152 13 33 21 74 26 124H115c-49 0-81-1-95-2L0 415c31-8 69-13 115-13h320v192H196c-22-52-57-103-107-155l-14 12c58 84 96 183 116 297l62-19c19-6 28-14 28-23 0-7-6-12-19-14l-26-5c-8-19-17-41-27-66h226v113c-1 44-2 69-3 76Z"/></symbol><symbol id="𠀡_H" viewBox="0 0 1000 1000" data-size="21"><path transform="matrix(1 0 0 -1 41 953)" d="M8 865c28-8 67-12 115-12h659l46 52c25-19 48-37 70-54 6-4 9-8 9-12 0-9-5-13-16-13H123c-47-1-78-3-95-7L8 865m208-104c34-11 63-23 88-34 4-5 6-9 6-13 0-7-7-11-19-14-15-2-25-4-31-4-11-28-23-55-38-81h208v99c0 35-2 61-6 79 39-5 70-12 95-23 9-3 13-8 13-14s-4-10-13-12c-13-6-27-10-42-12V615h195l46 52c25-20 48-37 71-54 5-4 8-8 8-12 0-10-5-14-15-14H477V400h309l47 54c26-20 50-38 73-55 6-4 9-9 9-13 0-9-5-13-16-13H583V110c0-6 1-11 3-15s6-7 12-10c5-2 13-4 23-6 18-3 42-4 72-4h21c32 0 57 1 72 2 11 3 21 5 30 6 10 2 15 6 18 11 5 4 8 10 11 20 6 24 13 62 19 115l19-8c-1-24-2-53-3-88 0-19 2-30 8-34 20-7 30-16 30-29 0-6-1-10-4-13-3-4-10-8-21-12-13-5-30-8-52-11-24-2-67-3-127-3h-21c-42 0-73 3-92 7-17 1-30 5-41 11-10 6-16 13-19 22s-5 17-5 24v278H366c0-31-3-59-8-83-5-33-14-59-25-80-10-26-25-49-43-69-21-22-42-40-64-56-27-19-59-35-95-49C99 22 61 10 17 0L4 20c63 17 111 34 142 51 29 15 55 33 78 55 23 21 42 45 55 69 13 20 22 46 29 76 4 25 7 58 7 102H115c-47-1-79-4-96-7L0 412c29-8 67-12 115-12h315v187H208c-18-30-36-57-54-81-21-26-46-51-76-77l-19 12c25 30 46 59 64 85 14 23 28 49 42 78 12 28 23 54 33 80 7 22 13 48 18 77Z"/></symbol><symbol id="𠀢_G" viewBox="0 0 1000 1000" data-size="21"><path transform="matrix(1 0 0 -1 33 938)" d="m114 579 82-33c9-3 11-7 6-11-11-2-20-8-28-17V107l133 34v562c1 11-8 25-27 41l8 11 86-33c9-4 11-7 6-11-12-3-22-9-28-18V441h75l33 45 73-54c5-4 7-6 4-8-1-1-7-2-16-3H352V152l181 48 5-18-267-81c-84-28-137-46-160-55-22-9-39-25-48-46L17 65l116 32v430c1 11-8 25-27 41l8 11m543 147c5-4 4-8-1-11-11-1-22-6-34-15V396c60 41 106 75 139 103 36 32 55 52 57 60 3 7 2 18-2 33l9 6 62-61c4-4 6-8 6-12 0-3-3-5-8-6-13 3-22 3-30 0-7-4-29-20-65-48-34-27-90-61-168-104V159c0-37 5-58 14-62 10-6 21-10 35-11s42-2 85-2h57c11 0 18 0 23 1 10 1 19 2 25 5 7 2 12 9 15 19 3 9 6 19 7 32 1 11 2 49 3 113h15c4-60 4-70 2-30 2-40 4-69 4-88 2-18 11-31 28-37-15-37-34-54-55-52-5-1-21-1-48-1-19-1-34-1-47-1-53-1-92 0-118 2-38 1-64 13-78 38-9 10-13 29-12 55v569c-1 11-10 25-27 41l8 10 99-34M0 827h808l40 50 76-55c6-5 9-9 7-10-3-3-9-4-20-4H77c-17 0-33-4-46-13L0 827Z"/></symbol><symbol id="𠀢_T" viewBox="0 0 1000 1000" data-size="21"><path transform="matrix(1 0 0 -1 39 955)" d="M86 94v473c0 39-1 65-4 78l53-12c27-6 41-13 42-21 2-9-7-17-24-22l-20-5V101l12 3c47 9 85 17 114 23v590c-2 47-3 73-5 78l54-12c27-5 41-13 42-21 1-9-7-16-24-21l-20-6V505h97l49 50 58-52c7-6 10-12 8-17-2-6-6-9-13-9H306V138c70 19 136 40 195 61l5-16c-46-27-129-59-251-96-45-14-86-25-125-34-30-7-53-12-67-16l-6-21C55 7 51 1 45 1c-5-1-10 3-14 11L0 84c37 3 66 7 86 10m523 391V114c0-15 6-25 16-29 10-5 35-7 76-7 76 0 121 3 134 9 12 5 20 15 23 29 4 16 10 60 18 133h18l-4-119c-1-13 2-23 7-30 2-1 8-7 18-17 3-3 5-7 6-12 2-12-11-22-38-28-25-7-88-10-189-10-53 0-87 3-101 9-20 9-30 26-30 51v637c0 41-2 67-4 78l53-11c27-6 41-13 42-22s-7-17-25-21l-20-6V512h165l48 50 59-52c7-6 10-11 8-17s-7-8-13-8H609m223 426 64-57c9-8 12-14 11-19-2-6-6-9-13-9H143c-36 0-67-1-94-4l-19 43c30-7 68-11 113-11h631l58 57Z"/></symbol><symbol id="𠀣_T" viewBox="0 0 1000 1000" data-size="21"><path transform="matrix(1 0 0 -1 36 953)" d="m633 615 101 14 42 55 65-44c7-5 10-9 10-15-1-6-5-10-12-10l-206-29V459c0-22 8-37 24-43 41-16 98-16 170-1 6 1 12 2 16 2 8-1 16-5 22-12 7-7 9-14 8-21-2-12-24-19-65-20-77-3-130-1-159 6-41 10-62 37-62 80v129c-36-4-63-11-83-20l-32 40c38 1 77 4 114 9v102c0 39-1 65-3 78l53-12c27-6 41-13 42-21 1-10-7-17-24-21l-21-6V615m-392 36v107c0 28-1 52-3 72H117c-22 0-46-2-72-5l-19 43c41-6 71-10 91-10h667l48 50 59-55c6-5 9-10 7-15-1-5-5-8-12-8H265l23-5c28-6 43-13 44-22 1-8-2-13-9-15l-17-5-18-7V652h95l29 36 41-27c13-8 19-16 19-23 0-10-13-20-39-31V246c0-65 19-111 58-137 35-24 85-36 151-36h150c31 0 51 7 59 21 9 15 16 66 22 152l22-2-1-120c0-13 5-25 15-36 13-13 19-21 19-24 1-12-12-21-38-28-19-5-58-7-115-7H637c-70 0-126 12-169 38-53 31-79 91-79 181l-1 377H288V138c0-5 2-35 6-90 1-14 1-23 1-26 0-13-8-20-24-21-20-1-30 6-30 21v603h-93V520c0-148-11-258-33-328C94 125 61 68 16 21L0 34c37 56 62 112 76 168 9 37 16 79 20 126 3 37 5 101 6 192v43c1 38-4 81-13 128l67-40h85m502-373 41 49 56-49c8-7 12-14 11-21-1-5-5-8-13-8H576c-22 0-46-1-73-5l-19 44c41-7 72-10 92-10h167Z"/></symbol><symbol id="𠀤_G" viewBox="0 0 1000 1000" data-size="21"><path transform="matrix(1 0 0 -1 28 934)" d="M480 638h130v175c-5 14-14 29-27 44l8 8 99-36c8-3 8-8 0-14-12-1-24-7-35-19V638h135l36 44 70-47c7-5 9-10 7-13s-9-4-19-4H684c11-91 26-159 43-204 32-87 70-149 113-185 21-17 36-28 47-36 11-6 28-13 51-21l-3-16c-20 4-35 6-46 7s-25-7-42-24c-67 71-110 135-130 192s-33 104-39 142c-6 35-12 83-18 145h-6c-2-51-8-108-17-170-20-146-108-265-263-357l-10 13c43 38 83 76 119 116 37 39 67 91 90 153 20 55 32 136 36 245h-44c-24 1-42-2-53-11l-32 31M229 867l98-42c7-6 7-10 0-13-13-3-25-9-36-18V634h71l36 46 71-51c6-5 9-9 7-11-3-2-10-4-20-4H290c-1-36-3-70-5-102 51-38 90-75 116-113 28-38 44-74 50-107s1-52-15-58c-17-5-27 10-33 46-5 37-17 71-37 103-16 30-43 66-82 107 0-4 0-11-2-21 0-10-1-18-2-23-13-145-92-258-236-338l-8 12c110 85 175 179 194 281 10 45 16 116 17 213H114c-19 0-34-4-46-12l-31 32h210v180c-5 16-14 30-25 43l7 10M0 32h824l40 49 73-57c7-4 9-7 7-9-1-2-7-3-18-2H77C60 13 45 9 33 0L0 32Z"/></symbol><symbol id="𠀥_G" viewBox="0 0 1000 1000" data-size="21"><path transform="matrix(1 0 0 -1 33 922)" d="m343 664 37-43h341l34 40 51-46c4-4 6-7 5-10s-5-5-11-6l-18-9V266l4-106c5-26-12-40-49-43v96H391v-69c1-24-16-39-52-44 3 24 5 76 7 154v357c-3 16-9 30-18 41l15 12m48-240h346v178H391V424m346-16H391V232h346v176M146 665l86-35c10-3 11-7 6-11-13-4-23-11-29-20V136c2-24-15-39-50-44 3 25 6 76 7 154v362c1 11-8 26-29 45l9 12M0 32h810l39 48 78-54c7-5 9-10 6-12-4-2-12-3-25-1H77C60 13 45 9 33 0L0 32m37 765h747l35 48 67-50c9-7 13-11 12-14 0-3-6-4-17-4H114c-17 1-32-3-44-12l-33 32Z"/></symbol><symbol id="𠀥_T" viewBox="0 0 1000 1000" data-size="21"><path transform="matrix(1 0 0 -1 46 929)" d="m328 685 58-43h336l34 37 40-27c13-9 20-16 20-24 0-9-13-19-38-30V217c0-26 1-49 4-68 1-14 2-25 2-33-1-13-10-20-28-21-17-1-25 4-25 16l1 49H382v-43c0-15-11-21-33-20-14 1-20 10-19 26l2 26c2 44 3 67 3 70v398c0 27-3 49-7 68m54-499h350v208H382V186m0 234h350v193H382V420M779 32l53 56 64-55c9-8 12-14 11-20-2-6-6-9-13-9H112C74 4 43 3 19 0L0 43c32-7 69-11 112-11h667m-39 771 53 56 64-55c9-8 12-14 11-20-2-6-7-9-13-9H140c-38 0-70-1-94-4l-18 43c31-7 69-11 112-11h600M83 715l54-12c27-6 41-13 42-21s-7-15-25-21l-20-7V236c0-33 2-69 7-107 1-9 1-18 1-26 0-13-8-20-24-20-20-2-31 5-31 20v534c0 38-1 64-4 78Z"/></symbol><symbol id="𠀦_G" viewBox="0 0 1000 1000" data-size="21"><path transform="matrix(1 0 0 -1 33 964)" d="m750 788 89-35c9-3 11-7 6-11-14-4-24-11-30-20V126l3-81c2-24-17-38-54-45 3 25 5 83 7 172v559c1 11-9 26-30 45l9 12m-564-2 87-30c6-1 9-3 10-6 1-2 0-5-4-8-10-2-19-9-27-19v-98c0-112-4-204-13-277-8-73-31-140-68-200C134 89 79 43 8 10L0 21c87 66 144 134 169 206s38 169 38 291v211c-2 18-11 34-28 45l7 12m279-25 89-35c9-4 11-7 6-11-14-5-24-12-30-21V176l3-92c2-23-17-38-54-45 3 25 5 86 6 183v482c2 11-8 25-29 45l9 12M28 880h786l39 48 76-53c5-5 7-8 5-11-3-2-10-4-20-4H105c-17 1-32-3-45-12l-32 32m548-300 10 12c57-45 91-93 104-143 12-48 3-72-27-73-11 2-17 16-18 43-2 27-7 52-16 76-9 25-26 53-53 85m-448 6c1-59-1-101-4-126s-10-47-21-65c-12-19-25-29-40-33-16-3-26 1-31 13-4 12 0 22 13 31s25 23 36 42 21 65 30 138h17m173-6 10 12c55-44 88-91 98-143 7-26 6-45-2-58-9-15-17-19-25-14-7 6-11 20-11 42 3 47-21 101-70 161Z"/></symbol><symbol id="𠀧_V" viewBox="0 0 1000 1000" data-size="20"><path transform="matrix(1 0 0 -1 51 972)" d="M898 42c0-11-8-20-23-26S842 6 821 4c-21-3-42-4-61-4H75C47 0 27 9 16 26S0 64 0 89v848l69-41h264l40 48 60-56-31-37V509H56V405l-1-207V94c0-13 2-23 7-32s14-13 28-13l8 2c1 1 2 1 4 1h581c12 0 24 0 37 1 13 0 25 1 37 2 7 1 14 4 21 7s13 7 18 13c5 7 9 18 11 32 3 14 4 29 5 46s1 33 1 48v36c0 59-1 117-3 176l12-2c3-48 5-97 7-148 3-50 10-99 21-146 2-8 5-19 10-32s12-22 22-25c7 0 11-1 13-3 2-3 3-8 3-15M346 871H226V534h120v337m-278-1-12-28V534h120v336H68m679-190H488c1 0-3-1-12-3-8-2-16-4-25-6-8-2-12-3-13-4l-17 37h226l43 46 57-70m1-225H507c1 0-3-1-11-3-7-2-15-4-23-6s-12-3-13-4l-16 37h198l48 48 58-72m45-227H460l-13-4-27-6c-9-2-14-3-15-4l-18 38h286l52 48 68-72Z"/></symbol><symbol id="𠀨_V" viewBox="0 0 1000 1000" data-size="20"><path transform="matrix(1 0 0 -1 40 989)" d="M223 883V35c-7-9-15-17-24-24S179 0 168 0v917H72c1 0-3-1-12-4l-27-6c-9-2-14-3-15-4L0 937h315l46 40 58-60H233c0-1-1-4-3-10-1-5-3-11-5-16l-2-8m466-655c-31-48-66-91-105-128-39-38-84-70-137-95l-6 13c46 39 88 78 125 118s70 87 98 140c-27 51-50 101-68 152s-32 105-41 162c-3-37-7-77-14-120-6-43-15-86-27-131-11-45-26-88-44-129-17-41-38-79-63-113-24-35-52-63-85-85l-8 8c39 45 70 94 95 148 25 55 44 111 58 169 14 59 24 117 31 174 4 35 8 70 11 105 4 35 6 70 6 105v184l-54-14-21 34h315l39 49 54-62-40-23-84-240h76l33 43 48-59-34-28c-12-59-29-115-52-169-22-53-47-106-76-159 27-37 57-73 89-107 32-33 69-60 112-79V77c-15-3-28-8-41-16-13-9-23-20-30-33-30 31-59 63-86 96s-52 67-74 104m-70 233c11-24 22-48 33-71 12-23 24-46 37-69 24 48 46 98 66 149 20 52 35 104 44 157H667l91 278H566v-68l-2-137c-1-11-1-22-1-34v-34c0-6 2-17 7-33 5-15 10-32 17-51s13-36 19-52 10-28 13-35m-203 47c0-5-1-14-4-27-2-13-5-24-10-35s-10-16-17-16c-5 0-10 3-13 9s-5 13-6 20-2 13-3 16c-5 27-11 53-20 76-8 23-22 45-41 66-5 5-12 13-22 24-9 11-17 17-24 20 22-7 45-18 70-32 25-13 46-30 63-50 18-20 27-44 27-71Z"/></symbol><symbol id="𠀩_G" viewBox="0 0 1000 1000" data-size="21"><path transform="matrix(1 0 0 -1 20 942)" d="M472 811h382l32 39 66-49c5-3 8-6 7-8-1-1-6-2-13-2H728V88c-1-24-7-41-18-54-10-12-38-24-82-34-2 20-10 34-25 42-15 7-43 15-85 26l3 16 42-8c46-10 77-12 93-6 18 6 27 22 27 49v672H549c-18 1-32-4-44-13l-33 33m-72-501c0-46-5-93-15-140-11-46-23-78-36-95-24-34-67-56-129-66-1 11-9 23-25 36-32 16-67 29-105 39l3 18c45-12 84-21 118-28 32-5 59-2 80 10 23 11 39 40 50 86 11 47 16 100 16 157H159l-46-31-39 51c11 3 24 9 37 19l43 128H80c-17 1-32-3-44-13L3 514h394l32 39 66-49c5-3 8-6 7-8-1-1-6-2-13-2H198l-52-147h200l32 37 52-54c3-6 1-9-6-11l-24-9M3 846h402l32 39 66-49c5-3 7-6 7-8-2-1-6-2-13-2H169l56-36c5-8 5-12-2-13-10-1-20-4-29-9C140 680 77 616 6 575l-6 10c48 46 94 104 139 175 9 17 14 30 16 39 0 7-2 16-7 26l1 1H80c-17 1-32-3-44-13L3 846m294-42 6 10c34-16 73-45 117-86 27-27 42-52 45-77 4-24 0-38-14-41-15-2-25 7-29 27-7 21-18 43-32 65-26 35-57 69-93 102Z"/></symbol><symbol id="𠀩_T" viewBox="0 0 1000 1000" data-size="21"><path transform="matrix(1 0 0 -1 26 945)" d="m194 423-42-113 249-1 32 32 35-24c14-9 20-17 21-25 0-8-5-14-17-18l-19-7c-12-91-23-150-34-177-18-44-55-72-111-83-1 16-5 27-12 35s-22 16-44 25l-41 17 7 20 49-15c27-9 46-13 57-13 23 0 40 12 51 37 12 26 22 82 31 169H143c-12-3-19-5-21-5-16 0-24 6-23 17 1 4 5 16 12 35l32 94h-31c-36 0-68-2-93-5L0 461c31-7 69-10 112-10h325l41 40 55-42c2-2 4-3 6-5 3-4 3-9 1-14-3-5-7-7-13-7H194m129 388V604c0-16 5-26 14-29 10-4 26-6 49-6 26 0 44 4 54 10 9 6 16 25 20 58 6 35 9 60 11 74l16-3-2-90c0-13 2-23 7-30 1-1 7-7 18-16 3-3 5-8 6-12 3-25-39-37-128-37-41 0-68 3-81 9-20 9-29 27-29 55l1 224h-81c-9-70-22-124-40-162-30-61-80-110-149-146l-9 16c45 35 78 70 100 106 23 41 40 103 50 186l-25 1c-28 0-59-2-93-5l-18 44c28-8 67-12 115-12h244l42 48 56-49c7-7 10-13 9-19s-7-8-16-8H323m201-10-19 42c41-6 71-9 92-9h222l53 56 64-55c9-8 12-14 11-20-2-6-6-9-13-9l-183 1V83c0-46-25-74-75-83-4 23-12 38-23 45s-37 14-78 22l4 22c45-7 76-12 92-13 23-2 34 7 34 28v703l-108-1c-24 0-48-2-73-5Z"/></symbol><symbol id="𠀪_V" viewBox="0 0 1000 1000" data-size="20"><path transform="matrix(1 0 0 -1 50 1000)" d="M899 289H96c-11 0-23-2-36-5s-25-5-36-7L0 312h260v495H127l-11-3c-7-1-15-3-24-5s-18-4-25-6-12-3-13-3l-21 39h227v166l80-38c-9-16-16-37-22-62-5-25-6-47-3-66h263v171l82-38-26-66v-67h118l50 46 73-68H634V312h136l54 47 75-70M578 807H315V662h263v145m0-168H315V492h263v147m0-171H315V311h263v157M837 40c0-11-3-20-9-28S813 0 802 0s-19 3-26 10c-9 9-17 20-25 34-8 13-15 25-22 36-25 37-56 70-95 98-39 29-78 52-117 71l1 2c17-4 39-11 65-20 27-9 55-20 84-33s57-27 82-44c26-16 47-34 63-53 17-19 25-40 25-61Z"/></symbol><symbol id="𠀫_V" viewBox="0 0 1000 1000" data-size="20"><path transform="matrix(1 0 0 -1 46 1005)" d="M908 297H110l-15-4c-10-2-20-4-31-6-10-2-16-3-17-4l-25 38h234v493H126l-10-3c-7-1-15-3-24-5s-17-4-24-6c-7-1-10-2-11-2l-27 39h226v167l84-36c-9-17-16-38-21-64-5-25-6-48-3-67h269v172l85-40-27-68v-64h118l53 52 74-75H643V321h134l53 50 78-74M585 814H316V664h269v150m0-173H316V500h269v141m0-166H316V320h269v155M369 214l-53-18c-32-27-63-54-94-79-31-26-63-49-97-69C92 28 54 12 11 0L0 4c35 23 66 44 92 64 27 19 51 40 72 61 22 21 43 44 64 69s44 55 68 90l73-74Z"/></symbol><symbol id="𠀬_G" viewBox="0 0 1000 1000" data-size="21"><path transform="matrix(1 0 0 -1 35 965)" d="m106 746 47-53h281c10 49 14 104 12 165H77c-17 1-33-3-46-12L0 879h804l41 51 77-57c6-5 9-9 7-11-3-2-9-4-20-4H493c1-61-3-116-14-165h275l34 40 51-47c4-4 6-8 5-10-1-3-4-6-11-7l-18-9V169l4-107c5-27-11-41-48-43v68H154V45c2-24-16-39-51-45 3 25 5 86 6 183v508c-2 16-8 30-18 43l15 12m368-72c-5-18-10-34-17-50 58-20 105-40 142-61 65-39 99-77 101-115 0-15-7-23-20-22-12 2-22 13-31 31-10 22-32 46-65 71-31 24-76 50-133 80-8-20-19-40-32-57-52-74-118-127-197-158l-4 11c64 39 119 94 166 165 19 30 34 65 45 105H154V106h617v568H474m-26-161 72-31c4-1 7-3 7-5 1-2-1-5-5-8-12-1-23-8-32-21-6-19-13-38-21-54 52-22 96-42 131-61 42-21 72-46 89-73 19-35 17-56-4-63-11 0-21 10-31 30-9 19-34 43-72 72-34 25-74 52-120 79-3-6-9-15-16-26-2-6-4-9-6-11-19-31-47-62-83-95-35-32-86-58-153-77l-2 13c89 37 157 97 206 178 18 31 33 71 46 119-5 12-10 20-16 25l10 9Z"/></symbol><symbol id="𠀬_T" viewBox="0 0 1000 1000" data-size="21"><path transform="matrix(1 0 0 -1 51 954)" d="M438 373c37-15 76-34 114-55 91-51 140-96 146-135 1-7 0-12-2-18-4-8-10-12-18-13-12-1-26 10-42 35-43 61-111 118-206 171-29-50-62-91-97-125-33-30-79-62-138-96l-9 14c80 57 139 117 174 177 28 47 54 110 77 192l58-24c16-6 24-13 24-20 0-8-8-13-25-15l-21-2c-5-11-8-19-10-25-9-24-17-45-25-61m24 314h288l33 37 41-26c13-8 19-16 19-23s-4-14-14-19c-2-2-4-3-6-4-4-2-10-5-17-9V103c0-16 1-33 3-51 1-8 1-15 1-21 0-13-9-21-27-24-16-2-24 2-24 12v48H127V14c0-9-7-14-21-14-20 0-29 8-29 25l4 79v542c0 2-1 29-4 82l54-41h282c11 43 19 90 24 143H112c-38 0-69-2-93-4L0 869c31-7 69-11 112-11h671l48 49 59-52c6-5 9-11 7-16-1-6-6-9-12-9l-399 1c-7-60-15-108-24-144m-58-28H127V95h632v564H454c-3-8-6-16-11-26l13-5c171-64 254-121 251-170-1-15-8-23-20-25-14-3-32 10-53 37-43 54-109 103-199 145-54-95-138-167-250-217l-6 15c113 66 189 149 225 246Z"/></symbol><symbol id="𠀭_G" viewBox="0 0 1000 1000" data-size="21"><path transform="matrix(1 0 0 -1 28 982)" d="m5 343-5 14c48 17 94 36 138 57 42 21 85 49 128 84 41 35 83 78 126 129H102c-19 0-34-4-47-13l-32 32h432v216c-72-4-190-6-352-8l1 19c147 6 262 13 345 23 82 9 145 18 190 25 43 8 67 14 73 18s8 12 8 23l9 2 71-53c4-4 7-7 8-10-1-2-4-4-8-5-24 5-52 3-84-4-39-5-93-11-161-19-23-3-40-5-50-6-1 0-2 0-3-1h-2V646h83l60 78c31 45 47 73 47 83 0 9-3 19-8 29l11 7 71-45c9-5 10-11 3-17-12 2-23 2-32-2-35-41-75-85-119-133h200l39 52 75-56c8-5 11-9 9-11-1-3-7-4-18-4H558c17-22 43-48 76-78 30-28 62-51 97-70 36-20 61-32 77-36 15-4 32-7 48-11s45-8 88-12v-18c-34 0-57-1-69-4-12-2-24-10-38-23-27 4-68 25-123 63-55 37-93 69-113 94-22 24-47 55-75 95h-26V454l2-55c0-13-5-23-14-30-9-6-23-11-40-15 3 26 5 73 7 142v131h-14c-61-76-109-127-143-153-37-29-81-55-130-78-50-25-105-42-163-53m746-41-2-2c-14-94-28-154-41-182-14-29-34-54-62-73-30-20-75-35-136-45-3 12-6 21-10 27-4 7-11 13-21 19-12 6-49 24-114 54l4 14c74-26 124-42 148-47 13-2 29-3 46-3 16 0 33 6 50 16 16 10 31 25 45 44 14 17 30 81 48 191l2 6H220c-15 0-27-4-38-12l-33 32h542l40 40 45-49c4-4 6-7 4-10 0-3-4-5-9-7l-20-13M203 831c39-18 68-33 88-48s33-31 41-49c8-17 9-32 5-45-5-13-13-19-24-19-12-1-19 9-22 30-3 20-12 39-25 58-15 17-37 38-67 61l4 12Z"/></symbol><symbol id="𠀭_T" viewBox="0 0 1000 1000" data-size="21"><path transform="matrix(1 0 0 -1 44 974)" d="M482 694h301l53 56 64-56c9-7 12-14 11-19-2-6-7-9-13-9H482v-24c14-3 50-11 109-23 96-19 170-39 224-60 34-12 55-23 64-32 9-8 13-18 13-28 0-15-6-23-17-25-9-1-28 6-56 23-44 25-100 50-169 75-64 23-119 39-168 49v-71c0-36 2-71 6-107 1-9 2-18 2-26 0-10-7-17-19-20h230l38 40 35-24c19-14 29-25 29-34 0-10-13-20-40-30-4-43-7-81-10-114-7-94-25-157-53-189-22-24-55-39-100-46 0 24-9 40-29 48-6 3-34 12-83 26l4 20c61-16 105-24 131-25 33-2 56 21 67 70 9 36 17 113 24 231H228c-38 0-69-2-94-4l-19 43c31-8 69-12 113-12h226c-13 3-19 10-19 20v214C319 550 175 493 5 458l-5 21c175 52 308 114 400 187H128c-38 0-69-1-93-4l-19 43c30-7 67-11 112-11h307v151c-51-3-130-7-237-12-34-1-59-2-77-2v22c102 3 212 12 328 26 121 15 214 38 279 69l44-31c19-14 27-24 24-31-4-7-11-10-21-9-1 0-6 1-15 3l-17 3c-91-15-178-27-261-35V694m107 16c35 46 65 93 91 140l54-33c12-7 17-14 16-22s-6-11-14-11l-28 2c-68-56-103-86-106-89l-13 13M205 823c70-33 106-64 108-94 1-18-6-28-20-31-12-2-22 5-28 21-12 32-35 62-68 91l8 13Z"/></symbol><symbol id="𠀮_G" viewBox="0 0 1000 1000" data-size="21"><path transform="matrix(1 0 0 -1 41 968)" d="m307 847 75-56v-3c0-6-3-9-9-9h-2c-18 0-43-11-73-35-55-42-111-76-170-104l25-38h581l35 40 46-48c6-3 8-6 8-9s-4-6-13-8l-14-9V162l4-113c2-22-15-34-49-36v62H164V45c1-24-16-39-52-45 5 44 7 104 7 183v419c0 1 0 2 1 3v4c0 11-3 18-10 21-28-12-63-26-106-42l-4 15c141 77 242 150 303 217v5c0 7-2 12-6 15l10 7M164 95h587v487H164V95m49 400 10 10c90-35 177-78 263-129 75 68 117 113 128 136 0 4-2 10-6 17 0 2-1 3-1 3l10 11 66-51c4-4 6-7 6-9s-2-4-8-5c-1 0-2 0-4 1h-4c-7 0-17-3-28-8-40-43-80-82-123-118 116-77 175-139 176-187v-4c0-12-5-19-14-20h-1c-8 0-24 15-49 45-51 59-99 105-145 138-93-75-190-136-293-180l-11 10c106 61 196 125 271 194l-15 9c-50 34-127 79-228 137M0 887h797l40 49 72-57c6-4 9-7 9-9s-5-3-14-3H73c-14 0-27-4-40-13L0 887m535-74 4 14c210-51 326-119 346-203 0-13-7-20-21-22h-3c-8 0-18 7-30 23-4 39-102 102-296 188Z"/></symbol><symbol id="𠀮_T" viewBox="0 0 1000 1000" data-size="21"><path transform="matrix(1 0 0 -1 43 961)" d="M258 844H112c-38 0-69-1-93-4L0 883c31-7 69-11 112-11h687l49 50 59-52c6-6 9-12 7-16-2-7-6-10-13-10H585c95-35 162-65 204-90 45-26 67-53 67-81 0-16-7-24-22-26-11-1-25 7-40 24-54 61-130 115-228 162l4 11H288l34-23c8-6 13-11 13-17 1-10-5-14-17-12l-30 2c-53-51-108-93-163-124-24-13-60-29-106-48l-8 15c98 55 180 124 247 207m237-493c52-38 95-74 127-107 35-36 52-62 52-79 0-16-7-25-21-27-8-1-17 3-28 12-2 2-14 17-35 43-29 36-70 78-125 126-79-80-171-147-273-203l-8 14c79 54 161 127 248 218-37 31-103 77-196 137l10 15c78-41 148-82 211-123 40 51 77 113 108 185l72-42c5-4 8-8 9-14 0-9-5-14-15-14l-32-2c-36-52-70-99-104-139M78 642l57-38h627l33 37 41-27c13-8 19-16 19-23 0-9-12-19-38-30V173c0-33 2-66 4-99 2-17 2-27 2-32 0-25-11-37-34-37-13 0-19 6-19 17l-1 45H132V17c0-11-9-17-27-17-17 0-25 8-25 24 0 5 0 14 2 28 2 25 3 64 3 114v385c1 36-2 66-7 91m54-547h637v481H132V95Z"/></symbol><symbol id="𠀯_G" viewBox="0 0 1000 1000" data-size="21"><path transform="matrix(1 0 0 -1 45 960)" d="m79 770 48-54v-1h623l34 40 51-48c5-4 6-7 5-10s-4-5-11-7l-17-8V205l3-142c5-26-11-40-48-42v56H127V45c1-24-16-39-52-45 3 25 6 85 7 179v536c-2 15-8 30-19 43l16 12m48-673h640v598H127V97m513 485 62-45c6-4 9-8 9-10s-3-4-10-5c-12 4-31-4-57-24-25-18-61-42-111-70 39-16 70-32 95-48 69-47 102-90 100-128-4-12-10-18-18-18-8 2-20 14-36 38-16 26-38 51-64 75-24 22-68 51-130 85V237c5-49-17-77-65-84 10 18-21 36-94 56l4 16c31-8 51-13 62-15s23-2 37-1 19 22 15 62v338c0 15-9 30-25 45l8 11 82-37c6-3 9-5 11-7 1-3 0-5-4-7-12-3-22-8-31-15V448c11-4 21-8 31-11l66 51c44 37 65 60 63 68-3 8-6 15-8 19l8 7M0 866h778l40 54 84-59c7-5 9-8 7-10-2-3-9-4-19-4H77c-17 0-33-4-46-13L0 866m399-379c-1 0-3-1-6-2-10-1-17-7-20-18s-14-34-31-71c-43-84-107-149-193-193l-7 8c108 85 175 180 201 285H237c-9 0-19-4-29-14l-35 34h160l25 27 44-44c4-3 5-5 5-7s-3-3-8-5Z"/></symbol><symbol id="𠀰_G" viewBox="0 0 1000 1000" data-size="21"><path transform="matrix(1 0 0 -1 31 971)" d="m427 802 11-4c27 21 43 34 47 41 8 8 9 16 6 24H97c-18 1-33-3-46-12l-31 32h774l48 59 88-64c6-5 8-9 7-11-3-2-10-4-20-4H523l40-18c8-3 12-5 13-8s0-6-6-9c-18 6-46-9-83-46l29-9c9-3 11-6 5-10-13-5-23-12-29-21V640l3-44c1-24-17-39-55-45 3 25 5 65 7 118v80C327 654 180 584 6 540l-6 13c154 64 257 114 309 149s91 64 117 85l-5 5 6 10m367-530c6-6 8-11 8-13-1-3-5-5-12-4-12 8-25 8-41 0-83-63-187-118-312-163C312 45 175 14 28 0l-7 14c164 34 299 73 405 117 107 43 183 82 228 115 47 33 69 53 69 58 0 1-1 3-1 6-2 8-3 15-4 21l11 8 65-67M427 548l89-28c9-4 11-7 5-11-13-5-23-12-29-21V255l3-30c1-25-17-40-53-44 2 17 4 78 5 183v135c2 10-7 23-26 39l6 10m-158-82 64-42c10-5 11-10 5-17-9 3-19 1-30-9-85-98-175-171-269-219l-6 9c76 64 135 118 176 162 41 45 61 71 61 80s-4 18-11 27l10 9m292 273 3 17c173-22 277-56 312-101 28-39 28-62 1-66-12 1-26 11-40 30-14 20-41 40-81 60-40 19-105 39-195 60m84-294 3 17c81-18 136-34 167-50 32-16 55-33 71-54 27-38 28-60 3-66-11 1-23 11-37 28-14 19-32 37-55 53-22 17-73 41-152 72Z"/></symbol><symbol id="𠀱_G" viewBox="0 0 1000 1000" data-size="21"><path transform="matrix(1 0 0 -1 40 960)" d="M292 411c59-76 113-134 163-174 44 38 78 73 102 104 29 37 44 60 45 68 0 8-3 16-7 26l9 9 66-52c7-6 11-10 11-13s-3-5-9-6c-21-4-34-8-40-13-33-48-80-98-140-149 51-34 100-60 147-77 43-17 82-30 117-37 28-6 49-10 62-12 15-2 44-4 89-7V63c-35-1-59-3-71-7-14-4-28-15-40-35-35 8-86 27-153 55-66 29-127 65-183 108-69-54-145-98-229-132C147 19 71 1 2 0L0 14c83 19 158 44 225 76 68 30 133 70 196 120 1 1 2 2 4 3-56 49-106 113-151 191l18 7M7 868h787l41 52 78-57c7-5 9-9 7-10-3-3-9-4-20-4H501c-22-30-45-57-69-80l57-23c9-3 11-7 6-11-14-6-23-12-29-20v-77l3-80c0-14-5-24-15-31-10-6-23-11-40-14 2 17 4 41 7 70v142c1 5-3 13-11 23-99-88-230-154-392-196l-1 15c192 65 333 159 422 282H85c-18 0-34-5-47-13L7 868m531-141c96-21 167-39 212-57 44-18 75-36 93-56 15-21 21-38 16-51s-13-19-23-19c-11 0-23 9-34 26-13 18-37 38-73 61s-101 49-195 79l4 17M294 565l65-44c13-5 15-12 7-18-14 4-30 0-47-13-75-70-159-126-252-167l-6 13c48 31 91 61 127 91 35 29 61 53 78 71 15 18 24 30 26 38 1 7-2 14-8 22l10 7m277 0c77-31 131-57 162-79s54-45 71-68c15-23 21-41 16-53-4-12-12-18-23-17-12 0-23 10-32 30-12 19-32 44-60 75-29 31-75 63-138 96l4 16Z"/></symbol><symbol id="𠀲_V" viewBox="0 0 1000 1000" data-size="20"><path transform="matrix(1 0 0 -1 35 1002)" d="M671 598c-35-47-73-90-115-130-42-39-90-72-143-97l-6 6c30 21 59 46 88 75s56 60 81 91c25 32 48 63 69 92-13 17-28 33-45 47-16 15-33 28-51 40-11-13-24-28-39-45-15-16-32-31-49-45s-33-24-50-30l-4 3c17 14 35 33 54 57 19 25 39 52 58 82 20 31 39 62 56 94s32 62 44 91 20 54 24 75l74-54-35-24-34-57h113l35 48 62-43c-7-9-15-17-23-26-8-8-16-17-23-26-3-3-7-11-14-22-6-11-12-23-18-35-6-11-11-20-15-26-9-16-19-32-29-48-10-15-20-31-30-46 1-5 2-9 2-11 0-7-2-16-6-26-3-9-10-14-19-14-5 0-9 1-12 4M255 912V128c0-24-8-47-24-68-16-22-34-39-54-50-1 25-8 44-23 59-15 14-33 25-54 32s-42 12-62 15v10c23-2 46-5 69-9s46-6 69-6c7 0 13 5 18 16 5 10 7 18 7 24v776H68c1 0-3-1-10-3s-15-4-23-6c-7-1-11-2-12-3L0 949h376l46 49c1-1 6-6 13-14 8-7 16-16 25-25s17-16 24-23 10-10 10-9H278l-23-15m299-183c20-7 40-14 60-23 21-8 40-18 58-30 17 27 33 55 48 83s28 57 39 87H635c-11-21-24-41-38-60s-28-38-43-57M479 32c-6-3-15-6-28-11s-25-9-38-13c-12-5-21-7-28-8h-12c61 31 116 66 165 104s96 83 140 134c-12 19-26 36-42 51-15 16-32 31-49 44-23-23-50-47-79-71-29-23-58-42-89-55l-6 4c29 22 58 49 88 81s59 66 88 103 55 74 79 111 44 72 60 105l60-61c-15-11-30-24-44-39-13-15-26-30-38-45h122l36 48 65-54c-9-9-18-17-27-26-9-8-17-17-26-26-3-3-8-10-15-22-7-11-15-23-22-35s-13-20-17-25c-11-16-22-32-35-47s-26-29-39-44c1-1 1-3 1-5v-5c0-4 0-7-1-8-3-4-7-10-13-18s-12-12-17-12c-1 0-2 0-3 1s-3 1-4 2c-33-33-70-62-109-89s-80-50-123-69m115 308c21-9 41-18 61-29 20-10 39-22 58-35 21 27 40 54 59 81 19 28 36 57 52 86H686c-13-19-28-37-44-54-15-17-31-33-48-49Z"/></symbol><symbol id="𠀳_V" viewBox="0 0 1000 1000" data-size="20"><path transform="matrix(1 0 0 -1 59 1000)" d="M881 442c0-7-1-14-4-23s-9-13-18-13c-2 0-7 3-14 9-7 7-15 14-24 23s-17 18-24 25c-7 8-12 13-15 16-23 23-47 44-72 63s-51 36-80 49l-2-2-1-1-6-5-2-2-1-1-24-21-2-2-1-1-6-5-2-2-1-1c-27-23-59-44-97-61-37-17-77-32-120-43-42-11-84-20-125-26-41-5-78-8-112-8l-10 2c-7 2-13 4-20 5-7 2-11 3-12 3 33 6 71 13 112 22 42 9 85 19 128 32s85 28 124 47 74 42 104 69 52 58 66 94c13 33 21 68 25 103s6 71 6 107v106l89-42c-4-11-8-21-13-31s-9-20-12-31l-1-11c-1-7-1-15-2-25-1-9-1-18-2-26-1-7-1-12-1-14-3-42-10-81-21-117-11-35-28-70-53-104 15-4 33-10 54-17s42-15 63-24c22-9 42-18 61-28s35-20 46-30c7-6 13-15 16-27 4-11 6-22 6-31M194 590l276 225 5-11L98 436c-17 5-33 10-49 15-15 5-32 10-49 14l139 96v421l77-36c-1-1-2-5-5-12-2-7-4-14-7-23-3-8-5-15-7-22l-3-9V590m356 192c0-7-1-15-4-24s-9-13-18-13c-12 0-19 4-22 13-8 21-16 38-23 52-7 15-16 28-27 39s-27 23-47 34l-1 3h3c7 0 18-2 31-7 14-5 28-11 42-19 15-7 28-15 39-24s18-17 21-24h1c3-10 5-20 5-30m-96-424V16c-9-3-20-6-31-10s-21-6-31-6v359H120c-12 0-26-2-42-6-15-4-29-7-42-9l-23 40h725l59 47 79-73H454M824 94c0-9-3-19-8-32s-13-20-24-20c-7 0-12 3-17 9-4 5-8 11-11 16-26 48-61 88-104 120s-88 61-135 86v4c14-4 33-10 57-18 25-8 51-18 78-30 28-11 54-24 79-39 25-14 45-29 61-45 16-17 24-34 24-51Z"/></symbol><symbol id="𠀴_V" viewBox="0 0 1000 1000" data-size="20"><path transform="matrix(1 0 0 -1 77 1002)" d="M115 46c-10-7-20-14-30-22S65 8 56 1L0 68l46 40v335l70-45c0-1-2-6-5-15s-7-19-10-28l-5-13V95l102 48v415h-85l-36-44-69 47 43 40v262l75-50-25-62V581h97v423l71-45-24-60V581h101v286l75-51-24-61V529c-9-5-17-9-25-14-8-4-17-8-26-11v54H245V166l115 52v235l73-42-23-58V84c-9-5-17-9-24-13s-16-7-26-10l-1 142c-41-26-81-52-122-78s-81-52-122-79m537 610V31c-5-9-12-16-22-22s-20-9-29-9v899h-85l-14-3c-9-2-19-4-28-6s-15-3-16-4l-22 34h299l46 42 65-63H652V665l2 2c12-6 28-16 48-29 21-13 41-29 61-46 21-17 38-34 52-52 15-17 22-33 22-48 0-6-1-13-3-22-1-9-4-17-9-24s-11-10-20-10c-7 0-13 3-18 10s-10 15-13 24-6 15-8 20c-6 18-15 37-28 58s-27 41-42 60-29 35-44 48Z"/></symbol><symbol id="𠀵_T" viewBox="0 0 1000 1000" data-size="21"><path transform="matrix(1 0 0 -1 31 949)" d="m526 540 48-17c11-4 17-10 17-19 1-9-4-14-15-15l-21-1c-28-36-45-58-50-65h300l36 40 44-33c10-7 15-15 15-22 0-6-5-12-14-17l-14-7c-4-2-7-4-11-6-10-140-24-234-42-283-20-58-59-89-117-95-1 11-4 20-10 26-5 6-22 16-51 28-13 6-26 11-37 14l4 21c57-18 94-27 110-26 28 1 47 22 59 61 19 63 31 153 36 271h-58c-30-95-71-169-122-223-62-66-141-120-237-162l-9 17c67 42 116 76 144 102 52 45 91 94 119 146 15 29 31 69 47 120h-82c-19-61-50-114-94-159-40-42-99-79-178-110l-9 19c73 38 126 79 160 124 35 45 57 87 66 126h-80c-43-39-85-71-125-94l-9 17c76 59 131 133 166 222h-90c-21 0-46-2-72-5l-19 42c39-6 70-9 91-9h25v245c0 28-2 57-7 86l59-45h250l33 38 41-27c13-8 20-16 20-23 0-9-13-19-38-30V568h18l48 50 58-53c7-5 10-11 8-16-2-6-6-9-13-9H526m233 287H494V568h265v259M19 795 0 837c40-5 70-8 92-8h162l48 49 59-51c6-6 9-11 8-17-2-6-6-9-13-9H207V96c0-46-25-73-76-83-4 24-12 39-26 47-8 4-33 10-74 20l4 22c46-7 77-12 92-13 23-2 34 8 34 28v684H92c-21 0-45-2-73-6Z"/></symbol><symbol id="𠀶_T" viewBox="0 0 1000 1000" data-size="21"><path transform="matrix(1 0 0 -1 30 956)" d="M655 535h-92c-36 0-67-2-94-4l-19 43c31-8 69-12 113-12h96c3 27 4 67 4 121v16H548c-18-38-41-75-67-112l-15 10c20 38 37 81 51 127 15 52 25 92 29 123l62-21c13-4 19-10 19-18 0-7-7-12-21-15l-20-5c-9-24-17-44-24-61h101v109c0 39-1 65-4 78l53-12c27-6 41-13 42-21 1-9-7-16-24-21l-20-6-1-127h75l48 50 59-52c7-7 10-12 8-17-2-6-6-9-13-9H709c0-55-2-101-5-137h109l48 50 59-52c4-3 5-5 6-5 3-4 3-9 1-14-3-4-6-6-12-6H701c-2-14-5-27-7-40 132-96 197-170 194-222 0-9-4-17-11-23-6-5-13-7-21-4-7 3-16 17-27 40-28 63-75 125-141 186-12-39-30-74-55-107-29-40-74-78-133-113l-11 18c62 45 105 92 130 141 16 31 28 72 36 124M273 639c47-138 97-242 150-313 50-67 115-119 194-154 80-36 155-54 222-54 33 0 66 1 101 3v-16c-16-3-28-7-34-11-7-5-14-16-23-33-78 6-139 15-182 26-145 39-254 119-329 241-33 55-66 131-99 227V157c0-36 2-72 6-109 2-9 2-18 2-26 0-13-8-19-24-21-20-1-30 6-30 21v552C167 442 96 332 13 244L0 259c131 182 215 371 252 567H101c-23 0-47-2-73-5L9 861c41-6 71-9 92-9h266l48 50 59-52c7-6 9-11 8-16-2-5-4-8-7-8H312c-14-47-27-90-39-129v-58Z"/></symbol><symbol id="𠀷_G" viewBox="0 0 1000 1000" data-size="21"><path transform="matrix(1 0 0 -1 41 969)" d="m99 517 42-46h614l31 38 47-40c6-4 9-8 9-11s-3-5-9-8l-20-12V123c2-39-2-67-10-85-9-17-31-30-68-38-1 21-12 36-33 43-20 6-49 15-88 24l2 16c72-15 115-22 131-20 16 1 24 17 24 48v175H590V174l2-53c2-24-14-39-48-44 4 33 6 80 7 143v66H375V163l2-53c2-24-14-39-48-45 4 34 6 81 7 143v78H148V139l4-93c2-24-17-39-55-45 3 25 5 86 7 183v282c-3 18-10 31-20 40l15 11m107 293 37-38h409l36 39 49-46c5-4 6-8 5-10 0-3-4-6-11-7l-17-9v-7l5-154c2-17-14-29-48-35v36H254v-11c1-24-16-39-52-45 3 26 6 84 7 175v59c-3 15-8 29-18 41l15 12m48-211h417v154H254V599m82-148H148V306h188v145m254-145h181v145H590V306m-39 145H375V306h176v145M0 890h797l40 48 72-56c7-5 10-8 8-10-1-2-7-3-19-2H77c-17 1-32-3-44-13L0 890Z"/></symbol><symbol id="𠀸_G" viewBox="0 0 1000 1000" data-size="21"><path transform="matrix(1 0 0 -1 28 951)" d="M462 673V128c1-39-2-67-11-85-8-18-31-30-67-38-2 21-13 36-33 43-21 6-48 15-82 24l2 16c67-15 109-22 125-21 15 2 23 17 23 47v573H115V45c2-24-15-39-50-45 4 25 6 86 7 183v512c-2 19-8 33-17 41l16 12 37-42h295l32 38 46-40c6-4 9-7 9-11 0-2-3-5-9-7l-19-13m-72-162c-3-2-7-4-12-6-4-1-9-17-15-50-6-31-18-66-36-105l-4-8c19-20 33-40 42-59 14-31 16-55 6-72-14-12-26 0-36 34-5 18-16 39-31 61-14-24-30-47-47-69-29-36-65-69-110-99l-7 11c42 39 75 76 99 112 17 23 31 48 42 73-21 25-51 53-89 82-12-26-28-50-46-72l-12 4c32 69 57 144 75 224 6 28 7 46 5 54-3 8-7 16-14 21l6 9 68-23c2-5 0-9-5-12-8-3-14-7-17-13-6-26-12-52-20-77h98l24 28 39-37c3-2 4-4 4-6s-3-4-7-5m173-102-32 30h218l25 36 64-52c2-3 3-6 2-8-1-1-5-2-10-2-19-3-35-10-48-21-43-51-74-89-94-117-18-27-38-58-61-91-22-34-34-60-35-80-4-33 15-51 58-52 21-2 76-2 165-2 37 1 56 24 58 68l9 107h14c1-24 2-51 3-83 1-13 1-21 1-26 2-18 11-33 30-45-8-26-28-43-61-50-16-6-46-9-89-9l-88 1c-36-1-61 0-74 2-12 2-23 5-32 10-1 2-4 3-7 4-14 6-24 20-28 43-4 15-5 28-4 38s6 25 16 46c7 19 21 43 41 71 19 28 68 93 145 193H593c-14 1-24-3-30-11m133 338c4-6 0-9-11-11-13-5-21-10-24-15-8-32-21-64-39-99h191l31 49 72-57c5-4 8-7 7-9-1-1-6-2-13-2H612l-20-36c-35-55-68-98-101-129l-8 13c62 92 104 172 126 241 11 34 14 55 9 63-1 2-3 5-6 9-3 5-5 9-7 11l8 8 83-36M0 854h824l40 48 73-56c7-5 9-8 7-10-1-2-7-3-18-2H77c-17 1-32-4-44-13L0 854m229-338c-6-19-11-36-17-53-4-11-8-21-12-30 41-23 73-45 97-66l4 10c17 42 29 88 38 139H229Z"/></symbol><symbol id="𠀹_G" viewBox="0 0 1000 1000" data-size="21"><path transform="matrix(1 0 0 -1 32 956)" d="m163 646 23-19h581l31 26 39-28c8-4 13-7 15-11 1-2-1-5-7-8l-20-12V121c1-39-2-67-11-85-8-17-30-29-67-36-1 20-12 34-33 41s-55 15-104 26l2 16c82-11 131-16 148-15 16 2 24 17 22 47v492H205V139l4-93c1-24-17-39-56-45 4 25 6 86 7 183v430c0 13-4 20-12 21l15 11m186-229 33-35h200l32 34 41-42c5-4 6-7 5-10 0-3-4-5-11-7l-13-8v-78l3-73c0-15-3-24-8-28-5-5-17-10-36-15v45H393v-28c0-22-16-37-48-44 3 25 5 70 7 135v101c-3 16-9 30-18 41l15 12m44-201h202v150H393V216M25 870h797l36 41 69-49c7-4 10-8 8-9-2-2-8-3-19-2H103c-18 0-33-4-44-13l-34 32m563-70 6 15c86-24 152-50 199-79 47-28 78-49 94-64 15-15 25-31 30-48s1-26-11-28c-11-2-23 4-33 18-10 15-26 31-46 47-19 17-46 36-79 58-33 21-87 48-160 81m-278 31 57-45c5-4 7-7 6-11 0-2-3-4-8-5-10 3-22 1-35-6C204 674 96 613 4 582l-4 14c109 61 186 108 230 141 45 34 69 53 71 60 3 7 2 16-3 26l12 8m-54-332h365l38 45 69-49c7-4 9-8 7-10-1-2-7-2-18-2H333c-18 1-32-3-44-12l-33 28Z"/></symbol><symbol id="𠀺_G" viewBox="0 0 1000 1000" data-size="21"><path transform="matrix(1 0 0 -1 26 978)" d="m131 791 49-38h260v139H82c-18 0-32-4-44-13L5 911h812l37 45 76-53c7-4 9-7 8-9-2-2-8-3-19-2H483V753h249l32 34 45-40c5-5 7-9 6-13-1-3-5-5-12-6l-18-9c0-43 0-79-1-111 0-32 1-60 1-86-1-6 0-49 2-127 3-79 11-139 24-181 13-41 27-70 42-87 15-18 26-23 33-16 7 6 14 26 20 63l18 91 14-4c-8-75-13-125-13-149-1-25 4-45 14-58 12-17 12-27-1-30-12-1-32 6-61 22-69 40-110 117-123 232-5 54-9 109-10 164-1 56-2 153-2 291H483V408h145l35 33 55-43c5-3 7-5 7-7-2-2-6-2-13-2H283c-15 0-28-4-40-13l-29 32h226v325H191V466c4-130-14-233-52-309C101 82 57 30 8 0L0 10c46 48 82 106 109 174 28 68 41 171 39 309v238c-3 16-12 33-26 50l9 10m213-446 68-43c13-8 15-14 7-19-8 2-18 0-31-6-60-81-131-154-215-218l-14 12c104 104 165 182 183 234 1 12-2 22-8 31l10 9m173-36 7 12c61-37 105-71 132-101 25-28 41-52 47-73 12-41 7-62-17-63-10 1-18 13-25 38-6 22-20 49-43 80-24 34-58 69-101 107m100 366 69-35c3-7 1-11-8-12-13-1-19-6-21-13-47-79-84-138-111-178l-22 4 33 58c41 88 61 136 59 144-2 9-4 17-7 23l8 9m-367-21 8 13c71-48 113-95 127-143 10-41 0-60-28-57-7 4-12 16-15 38s-13 47-30 74c-18 27-39 53-62 75Z"/></symbol><symbol id="𠀻_G" viewBox="0 0 1000 1000" data-size="21"><path transform="matrix(1 0 0 -1 31 948)" d="m145 482 32-39h253v102c-2 15-12 30-30 45l8 10 100-38c2-2 3-4 3-5 0-2-2-3-4-4-11-2-23-7-34-17v-93h227l34 40 49-47c5-4 6-8 5-10-1-3-4-6-11-7l-17-9V289l4-109c4-26-11-40-47-42v40H473v-52c0-36 5-59 15-67 11-10 30-15 57-17 27-3 63-4 107-5 76 1 129 3 161 7 28 5 44 18 46 39 6 30 9 82 12 155h15c2-71 3-115 3-133 0-16 10-30 31-40-17-34-42-53-75-57-19-5-79-7-181-8-59 0-111 4-158 11-57 8-82 45-76 113v54H190v-3c2-24-14-39-49-44 3 25 5 76 6 154v145c-2 15-8 29-17 41l15 11M17 729h785l31 40 66-49c6-4 8-6 7-8-1-1-5-2-12-2H594v-87c0-39 4-61 12-65 9-5 49-8 122-8 72 0 115 1 129 4 15 3 23 18 26 44 4 24 8 53 10 87h12c4-34 5-60 6-79 1-18 10-34 27-47-23-26-45-39-68-41-14-2-57-2-129-2s-120 1-143 3c-34 8-50 42-47 100v91H363c-8-57-28-102-59-134-33-34-80-60-139-79S51 468 2 467l-2 15c53 10 104 24 153 43 49 20 88 44 117 74 26 27 43 64 48 111H94c-18 1-32-4-44-13l-33 32m700-426H473V197h244v106m-244 15h244v106H473V318m-43-15H190V197h240v106m0 121H190V318h240v106M104 856h586l32 40 66-49c5-4 8-6 7-8-1-1-6-2-13-2H182c-18 1-33-4-44-13l-34 32Z"/></symbol><symbol id="𠀻_T" viewBox="0 0 1000 1000" data-size="21"><path transform="matrix(1 0 0 -1 41 940)" d="M312 672H112c-38 0-69-1-93-4L0 711c30-7 67-11 112-11h664l53 56 64-56c9-7 12-14 11-19-2-6-6-9-13-9H571v-79c0-21 4-34 11-38 16-10 77-13 182-8 30 1 49 4 56 9 9 6 14 20 17 44 1 4 3 15 7 34 0 4 1 9 3 16h17l1-43c1-20 3-33 8-39 1-2 7-7 18-16 5-5 8-10 8-14 2-21-31-32-96-36-103-4-179-4-228 2-34 4-51 25-51 62v106H362c-9-39-24-71-47-95-34-38-84-65-149-79-30-6-84-12-162-19v20c77 7 137 19 181 35 36 14 66 35 89 62 16 18 28 43 38 76m325 158 48 49 59-52c7-6 9-11 7-16-1-6-6-9-12-9H233c-38 0-69-2-94-4l-18 43c31-8 68-11 112-11h404M412 152H157v-6c0-11-8-16-25-15-19 1-28 11-27 29l2 28 2 39 2 37v130c-1 27-3 49-8 66l58-43 250 1v22c0 39-1 64-3 78l53-12c27-6 41-13 41-21 2-9-6-17-23-21l-21-6v-40l253-1 34 37 41-26c13-9 19-17 19-24s-5-14-15-19l-14-7-9-3V248c0-29 1-59 4-89 1-10 2-18 2-22 1-17-6-25-22-25-21 0-32 8-32 25v15H458V79c0-19 13-31 40-36 5 0 26-1 64-1h185c43 0 71 4 85 10 11 6 19 24 24 55l13 91 18-2-4-96c0-12 1-20 2-24 3-5 8-10 15-15 13-8 19-15 18-22-1-26-55-39-160-39H542c-44 0-75 3-91 10-26 10-39 30-39 58v84m307 148v90H458v-90h261m0-28H458v-92h261v92m-562 28h255v90H157v-90m0-28v-92h255v92H157Z"/></symbol><symbol id="𠀼_G" viewBox="0 0 1000 1000" data-size="21"><path transform="matrix(1 0 0 -1 36 964)" d="m195 804 40-49h156l47 105H111c-17 1-32-3-44-12l-33 32h750l40 49 72-57c8-4 10-8 8-10-1-2-7-2-18-2H495l-71-105h278l44 42 47-50c5-4 6-7 5-10s-4-5-11-7l-17-8V493l2-105c-1-19-17-34-47-44v34H241c0-14-5-24-13-29-9-7-22-12-39-15 4 25 6 87 7 184v233c-2 19-8 33-17 41l16 12M929 65V51c-3-1-6-2-11-2-41-5-60-18-57-37-76 10-143 24-200 43-50 16-106 39-169 70-33-16-68-32-103-48C266 26 138 0 4 0L0 14c154 19 283 54 387 103 7 4 18 9 32 16 13 6 23 11 29 14-67 40-136 98-207 175l13 15c86-78 164-135 232-169 54 31 95 59 123 85 45 40 66 64 64 70-1 7-3 14-5 21l6 8 78-48c6-7 4-12-6-15-12 2-27-4-45-18-50-46-106-87-169-124 55-24 103-41 145-51 77-20 141-30 192-30 6 1 22 1 48-1h12M241 397h484v110H241V397m0 241h484v97H241v-97m484-18H241v-96h484v96Z"/></symbol><symbol id="𠀽_G" viewBox="0 0 1000 1000" data-size="21"><path transform="matrix(1 0 0 -1 16 975)" d="M435 700h136c5 62 9 129 12 200-5 16-15 29-28 40l8 10 98-41c5-2 5-6 0-12-10 0-21-5-33-14-3-65-6-126-11-183h247l32 39 66-49c5-3 7-5 7-7-2-2-6-2-13-2H615c-4-46-10-89-15-130h210l28 33 56-46c3-3 4-5 4-7s-3-3-7-5c-8 0-13-3-17-6-3-3-10-22-20-56-8-33-24-76-46-128-19-44-41-83-67-118 22-33 45-61 70-84 46-44 99-72 157-84V37c-24 1-41 1-51 0s-20-8-30-22c-43 23-79 50-108 81-24 25-46 54-67 86-28-32-68-64-119-99-56-38-114-64-177-80l-6 12c117 56 207 121 270 195l8 12c-17 35-32 75-44 121-15 53-25 115-30 188h-17c-10-64-22-122-35-177-37-139-111-254-221-343l-8 10c95 104 159 222 190 354 21 84 36 186 46 306h-57c-18 0-33-4-44-13l-33 32M202 950l87-35c9-3 11-7 6-11-14-4-24-11-29-20v-74h140l32 39 66-49c5-3 7-6 7-8-2-1-6-2-13-2H266V659h94l28 38 47-40c5-4 8-7 8-11 0-2-3-5-8-7l-20-13V479c3-43 0-73-9-88-8-18-25-30-52-36-2 14-7 24-15 30-8 7-26 14-55 20l2 16c30-5 53-7 69-7 17 0 24 22 21 65v161H266V138l2-93c1-24-16-39-52-45 3 25 5 86 7 183v209c-19-47-42-94-70-141C118 191 68 139 6 95l-6 13c63 64 108 123 137 180 25 50 54 118 86 204v148H117V500l4-95c1-24-15-39-50-45 4 26 6 68 7 127v169c-2 18-9 32-19 40l14 11 39-48h111v131H85c-18 1-32-4-44-13L8 810h215v84c1 10-9 25-30 44l9 12m622-419H637c11-70 24-128 39-174 12-35 25-68 41-97 17 27 33 56 48 87 22 50 42 111 59 184M707 894l6 12c78-30 121-57 128-79 14-38 11-58-9-61-11 0-19 7-24 23s-14 32-29 46c-13 15-37 34-72 59Z"/></symbol><symbol id="𠀾_H" viewBox="0 0 1000 1000" data-size="21"><path transform="matrix(1 0 0 -1 37 964)" d="M4 888c29-8 67-12 114-12h663l46 52 70-54c6-4 9-8 9-12 0-9-5-13-15-13H511c-10-13-20-24-31-35v-38c67-17 125-35 175-54 56-18 100-34 130-47 32-12 55-22 70-31 12-8 21-16 27-24 7-6 11-14 11-21-1-20-8-30-22-30-12 0-23 2-33 5-11 4-34 19-71 46-38 27-79 51-123 72-41 20-96 41-164 65v-92c0-12 1-21 1-25v-24c0-18-8-27-24-27-14 0-21 5-21 15 0 11 1 25 2 43 2 19 3 35 3 49v83l-8-7c-34-28-71-54-113-77-35-21-77-43-124-65-46-20-103-42-170-65l-14 21c67 25 123 48 170 71 45 22 87 45 124 72 34 21 64 44 90 69 19 17 35 34 47 51H118c-46-2-78-4-95-7L4 888m438-307c33-6 61-14 83-23 6-2 8-6 8-11s-6-9-17-12c-4-1-8-2-11-2 22-14 45-26 68-37 33-15 71-29 113-43 41-14 83-25 126-34 39-9 77-15 114-19l-3-16c-32 0-53-10-64-30-41 9-79 19-113 32-38 13-70 26-98 41-31 13-61 28-90 45-26 15-54 33-83 54-17-15-34-28-52-39-25-15-53-30-84-45-35-15-68-28-98-39-31-11-65-22-100-33-38-12-79-22-122-31L0 360c53 13 100 26 139 39 36 15 73 30 110 45 36 18 69 35 97 51 25 15 45 29 60 43 15 12 27 27 36 43M234 380c29-8 67-12 115-12h214l43 50 70-53c5-3 8-7 8-11 0-9-6-13-16-13H349c-47-1-78-4-95-7l-20 46M27 271c29-8 67-12 115-12h612l46 52 70-54c6-4 9-8 9-12 0-9-5-14-16-14H378c20-7 38-14 53-21 4-4 6-8 6-12 0-6-6-10-18-12-13-3-23-4-28-4-14-17-30-34-48-49s-36-28-55-39l-12-7c53 2 105 4 157 8 88 6 170 14 244 22-24 20-55 41-95 64l12 13c37-16 70-33 98-49 29-15 51-28 67-40 16-10 28-19 37-27 6-6 10-13 14-20 3-6 4-11 4-18 0-19-7-29-21-29-6 0-11 1-17 4-5 3-17 16-36 40-14 17-29 32-45 46-75-13-152-25-231-36-89-11-182-22-281-33-9-21-16-32-21-32-2 0-4 2-7 7-13 23-26 49-38 77 37 0 72 0 107 1 14 10 26 20 37 29 13 13 27 27 40 42 12 16 23 30 32 43 7 10 11 21 15 32H142c-47-1-78-3-95-6l-20 46Z"/></symbol><symbol id="𠀿_V" viewBox="0 0 1000 1000" data-size="20"><path transform="matrix(1 0 0 -1 46 1003)" d="M429 932V612c-7-9-15-17-22-22s-18-8-31-8v350H148c1 0-4-2-14-5l-30-9c-10-3-16-4-17-5l-22 47h611l48 46 60-74H429m210-220c0-9-3-20-9-31-5-11-14-17-25-17-7 0-13 3-18 10-4 5-7 10-8 15-1 6-2 12-3 17-4 17-13 34-26 53s-27 36-43 53-31 31-45 41l5-1c9-2 22-7 37-14 16-7 32-15 49-25 17-9 32-19 45-29s22-19 27-27c4-7 7-14 10-22 3-7 4-15 4-23M335 21c-19-5-39-10-61-14-22-5-43-7-62-7-1 0-4 1-10 2-5 1-9 2-10 3 58 18 108 38 149 59 42 21 77 46 104 76 28 30 50 67 67 110s30 96 39 158H426c-13-20-27-41-43-63-15-22-32-43-51-62-18-19-38-34-60-45 18 20 36 44 53 73s33 60 48 93 28 66 39 98c11 33 19 62 24 88 11-7 25-16 41-29 17-12 29-23 36-34-14-12-28-26-41-43s-23-34-30-51h286l36 45c4-6 11-13 20-20s19-15 29-22 19-13 26-18 11-9 11-11c0-3-2-6-6-9-19-2-35-4-48-7s-24-8-33-16-18-21-28-40h-12c4 7 8 15 11 24 4 9 6 17 6 25 0 9-3 16-9 19-5 3-12 5-21 5H558l69-48-28-32-4-12c17-31 36-62 57-95 22-32 47-60 76-85s61-43 98-52c13-3 27-5 41-8s28-5 41-7c-19-3-37-9-55-18s-33-22-46-37c-45 19-80 42-107 69-26 27-48 59-65 94s-34 74-51 116c-19-67-48-124-87-171S404 41 335 21M54 172v-55c-7-5-16-11-25-18S10 88 0 88v397l66-38h118l35 42 63-52-32-36V172H54m13 253-13-35V195h141v230H67Z"/></symbol><symbol id="𠁀_V" viewBox="0 0 1000 1000" data-size="20"><path transform="matrix(1 0 0 -1 33 998)" d="M276 590h468l46 47 70-71H216v216h-78c-11 0-24-2-39-5-14-3-27-5-38-7l-22 38h178v144l78-48c-3-7-6-17-9-29s-6-24-9-37c-2-12-2-22-1-30h142v181l80-47c-1-1-2-5-4-13s-4-17-7-26c-2-9-4-18-6-25l-3-10v-61h170v188l78-49c0-1-1-4-3-11-1-6-3-13-6-22-3-8-5-15-7-21l-2-9v-76h106l48 45 71-70H708V656c-9-3-16-7-21-10-4-3-9-6-14-8s-13-3-26-3v38H478l-27-29-58 49 25 29v60H276V590m372 192H478v-85h170v85M887 37c0-7-4-13-11-18s-16-8-25-10c-9-3-16-4-22-4-57 0-108 11-153 33s-84 52-117 91-61 83-85 132l-147-25c-2-1-8-4-17-11-9-6-16-10-21-12l-40 39 214 38c-14 40-25 81-33 122-8 42-14 84-19 126l78-46-10-35c2-27 7-53 15-80 9-27 17-53 25-78 34 6 68 11 102 16 35 5 69 11 103 16l36 51 93-55c-53-11-106-21-161-30-54-9-108-17-161-26 19-28 41-56 64-85 24-29 51-53 80-72 30-20 64-30 102-30 11 0 20 7 27 20s12 28 16 47 7 36 8 53c2 17 3 29 4 36l13-9c0-17-2-33-6-49-4-15-6-32-6-49 0-19 2-36 6-52 4-17 17-28 38-33 1-2 3-4 5-5 3-1 4-3 5-6M237 254V35c-5-7-13-14-24-22-10-9-20-13-29-13l-2 1h-1v275c-25-30-53-59-84-88s-64-54-97-75v10c38 37 75 78 111 121s68 89 97 137c29 49 51 99 67 150l66-82-41-18-78-107 33-26-18-44m442 158c0-4-1-11-2-22-1-10-4-20-7-29s-8-14-14-14c-5 0-10 4-16 12-5 8-9 14-11 17-2 25-6 44-12 57-5 13-13 25-24 35-10 10-23 23-40 38 10-2 22-6 36-11s28-12 41-21c14-8 26-17 35-28s14-22 14-34Z"/></symbol><symbol id="𠁁_G" viewBox="0 0 1000 1000" data-size="21"><path transform="matrix(1 0 0 -1 27 936)" d="M526 806c-2 16-8 34-20 53l15 11 36-37h197l34 38 49-46c4-4 6-7 5-10s-4-5-11-6l-18-9V664l5-41c2-20-14-32-47-35v36H569V479h223l39 40 41-38c7-6 7-11 0-13l-25-16V276c16-45 2-69-43-74v45H582V32h231l42 54 83-59c6-5 8-8 6-10-2-3-9-4-19-4H77C60 13 44 9 31 0L0 32h343v215H141l-30-41-50 36c12 11 19 23 22 35v181c-2 16-9 34-20 54l14 10 39-43h238v144H178l-30-38-50 36c12 11 20 23 22 35v146c-2 16-9 34-20 53l14 11 38-37h186l34 38 49-46c4-4 6-7 5-9-1-4-4-6-11-7l-18-9V506l5-41c2-18-14-29-48-35v30H126V267h203l33 35 49-43c4-4 3-8-2-12l-23-14V32h153v216c2 14-4 28-19 42l10 14 47-37h227v193H578l-36-37-45 49c17 9 27 20 29 32v302m43-162h202v169H569V644m-406-1h191v167H163V643Z"/></symbol><symbol id="𠁁_T" viewBox="0 0 1000 1000" data-size="21"><path transform="matrix(1 0 0 -1 42 931)" d="M336 627H139v-8c0-11-8-17-24-18-19-1-28 7-26 25l2 20c2 32 3 49 3 51l-1 98-1 16c-2 23-3 40-5 50l61-41h180l33 37 41-27c13-8 20-16 20-23 0-10-13-20-39-30l1-274 16-10c9-6 12-13 11-21-1-5-5-7-13-7l-273-1V240h200l30 37 36-28c13-11 20-19 20-23 0-6-10-15-30-27V32h147v183c-1 20-3 41-6 61l56-36h214v224l-222 1c-8-9-17-13-24-13-14 0-22 5-22 16v322c-1 21-3 41-5 61l53-31h194l29 35 36-24c12-8 18-16 20-21 2-7-2-13-12-18-2-2-5-3-6-4-4-1-8-3-14-7V668l22-15c7-5 11-10 11-16-1-8-6-12-15-12H569V492h214l33 37 41-27c13-8 19-16 19-23 0-9-12-19-38-30V252l19-16c4-4 7-7 8-9 1-5 0-10-4-14-1-1-3-1-4-1H573V32h224l46 56 64-58c4-4 7-8 8-10 1-4 0-7-2-10-3-4-7-6-13-6H112C74 4 43 3 19 0L0 43c32-8 69-11 112-11h221v180l-214-1c-8-4-15-5-20-5-13 0-20 4-20 13v305l58-32h199v135m1 28-1 137H139l1-137h197m232 137V653h203v139H569Z"/></symbol><symbol id="𠁂_V" viewBox="0 0 1000 1000" data-size="20"><path transform="matrix(1 0 0 -1 20 999)" d="M494 429V32c-6-9-13-16-20-22s-17-9-28-9v107H202V27c-7-7-14-13-21-18s-16-8-27-8v363c-25-19-49-36-74-53-25-16-51-30-80-41v17c27 19 55 40 82 61 27 22 51 46 72 72v81l56-29c21 21 40 42 59 64 19 23 37 45 54 68H121c1 0-4-1-15-4l-33-6c-11-2-17-3-18-4l-19 36h224v166h-82l-13-3c-8-2-16-4-25-6-8-2-13-3-14-4l-21 35h155v184l64-40c-3-8-6-17-11-28-4-11-7-20-8-28-1-13-2-28-1-44s1-31 1-44h46l40 47 53-56c9 19 18 37 26 56s14 39 19 59l65-63c-8-5-18-14-29-28-11-13-24-30-37-49s-25-38-38-58-24-39-35-56-19-31-26-40h95l48 50 68-72H379c-19-22-37-44-56-67-19-22-38-44-57-65h173l26 43 55-49-26-37m273 474V119c0-25-8-48-25-70s-35-38-56-49c-1 25-9 45-25 60-15 15-34 26-56 33s-43 11-64 14v10c22-5 44-8 66-11s44-5 67-5c11 0 21 4 29 12 9 8 13 18 13 30v775H600l-11-3c-7-2-15-4-23-6-7-1-11-2-12-3l-25 36h325l48 47 58-71H791l-24-15M437 792H305V626h32c17 27 34 55 51 82 17 28 33 56 49 84M248 447l-46-37V305h244v142H248m198-165H202V131h244v151Z"/></symbol><symbol id="𠁃_G" viewBox="0 0 1000 1000" data-size="21"><path transform="matrix(1 0 0 -1 28 977)" d="m433 630 88-36c10-4 12-7 6-11-13-6-23-13-29-20v-23h323l41 49 73-57c7-5 9-9 7-11-2-1-8-1-18 0H498v-84h228l34 34 49-42c4-4 6-7 4-10 0-3-4-6-10-7l-18-9v-74l5-53c-1-11-5-19-12-23s-20-8-36-12v46H529c61-59 115-99 159-118 48-22 83-35 107-39 20-5 42-9 64-11 19-1 41-2 65-2V99c-16 0-29-2-41-4-13-2-25-14-38-35-34 6-74 19-118 39-46 20-85 43-118 68-23 16-59 56-107 120h-4V133l3-88c0-14-5-24-15-30-9-6-23-11-40-15 3 25 5 84 7 177v110h-4c-36-52-74-93-114-123-41-31-91-57-149-80C128 63 68 49 5 42L0 56c48 11 97 26 146 46 52 22 97 45 133 70 37 25 76 64 117 115H212c-1-12-5-20-12-24-8-6-21-11-38-14 3 23 5 72 7 146v22c-2 16-9 29-20 39l12 11 35-30h257v84H87c-18 0-32-5-44-13l-33 32h443v32c1 10-8 25-29 46l9 12M25 905h777l40 49 73-57c7-5 10-8 8-10s-8-2-19-1H527c-23-28-48-54-74-76l68-22c10-3 12-7 6-11-13-6-23-12-29-20v-54l3-24c0-14-5-24-15-31-9-6-23-11-40-14 2 13 4 32 6 55 1 6 1 11 1 13v65c1 7-5 17-16 28-94-78-223-138-386-181l-4 16c180 60 319 145 419 256H104c-19 0-34-4-45-13l-34 32m473-598h244v110H498V307m-45 110H212V307h241v110m136 374c80-12 134-22 162-30 27-9 55-22 82-37 27-17 44-35 50-52 6-19 2-31-11-37-14-7-29 0-45 21s-41 41-74 59c-33 17-89 38-168 60l4 16Z"/></symbol><symbol id="𠁃_T" viewBox="0 0 1000 1000" data-size="21"><path transform="matrix(1 0 0 -1 42 969)" d="M476 810c93-25 187-58 282-97 32-13 61-30 89-48 22-15 31-30 28-46-4-15-11-22-23-21-10 1-26 11-50 29-64 50-173 104-326 164v-47c0-35 2-71 6-109 1-9 2-17 2-26 0-12-8-19-24-20-21-1-31 5-31 20v171c-96-68-224-118-386-150l-5 18c99 24 185 55 257 92 51 27 103 65 154 115H127c-38 0-69-1-94-4l-18 43c31-7 68-11 112-11h647l53 56 64-55c9-8 12-14 11-20-2-6-6-9-13-9H514c-12-12-25-25-38-37v-8m-48-430v71H114c-35 0-67-1-94-4L1 490c31-7 69-11 113-11h314c1 46-1 77-4 92l54-12c27-6 41-13 42-21 1-9-7-17-24-21l-20-6v-32h324l49 50 58-52c7-6 10-12 8-17-2-6-6-9-13-9H477v-71h259l30 34 36-25c10-8 16-15 16-23 1-8-10-17-33-27v-79l15-12c8-7 12-12 12-17-1-6-4-9-9-9H485c28-19 67-40 119-63 97-45 202-71 313-76V68c-23-5-38-9-44-13-6-5-12-13-16-26-149 36-276 94-380 172V90c0-11 1-21 2-32 0-10 1-17 1-22 2-21-6-32-22-34-20-2-29 2-29 12v175c-58-41-121-76-191-104C173 59 95 38 5 23L0 42c149 31 278 91 387 180H168v-19c0-9-6-13-19-12-20 2-30 10-30 25l5 79v46c0 1-2 28-5 82l53-43h256m0-27H168V249h254l6 5v99m49 0V249h263v104H477Z"/></symbol><symbol id="𠁄_V" viewBox="0 0 1000 1000" data-size="20"><path transform="matrix(1 0 0 -1 53 1002)" d="M264 919c-25-69-59-135-102-197-42-62-93-116-152-161L0 573c53 61 100 129 140 202 40 74 70 150 89 229h4l62-36-21-26c14-42 33-82 57-121 25-39 54-74 87-105 34-31 72-55 113-73l3-14c-13-7-23-16-31-27-7-11-17-21-28-29-47 49-90 103-128 160-37 57-65 119-83 186m435-259V35c-5-9-12-16-22-22s-20-9-29-9v899h-85l-14-3c-9-2-19-4-28-6s-15-3-16-4l-22 34h299l46 42 65-63H699V669l2 2c12-6 28-16 48-29 21-13 41-29 61-46 21-17 38-34 52-52 15-17 22-33 22-48 0-6-1-13-3-22-1-9-4-17-9-24s-11-10-20-10c-7 0-13 3-18 10s-10 15-13 24-6 15-8 20c-6 18-15 37-28 58s-27 41-42 60-29 35-44 48m-372-21 50-64c-10 1-25 1-45 2s-41 1-64 0c-23 0-44-1-63-3s-34-5-43-10l-25 35h150l40 40M91 263V32c-4-7-12-13-23-20S47 1 39 0l3 520 62-27h310l30 41 57-43-30-40V102c0-12-2-25-5-39-3-15-9-27-17-38S430 8 416 5c0 15-2 25-7 32s-11 12-19 17c-8 4-17 9-28 15v20c5-2 12-4 20-7s15-4 20-4c3 0 7 1 12 2s8 4 8 9v174h-76V29c-6-11-13-17-22-18-8-2-17-4-28-7v259h-75V27c-9-9-17-15-24-16s-16-3-27-4v256H91m0 162V284h79v185h-66c0-1-1-5-3-12s-4-15-7-22l-3-10m331 44h-76V284h76v185m-126 0h-75V284h75v185Z"/></symbol><symbol id="𠁅_G" viewBox="0 0 1000 1000" data-size="21"><path transform="matrix(1 0 0 -1 29 962)" d="M790 414v-68c0-58-5-122-14-191 50-10 106-18 166-24v-13c-20 0-36-4-46-10-9-5-15-14-18-28-23 5-55 14-98 25-6 2-11 4-14 4-9-26-23-46-40-59-22-16-57-29-106-41 0 15-8 27-23 35-28 12-64 21-107 27l2 16c69-11 119-16 150-17 30-1 55 8 73 29 4 5 8 12 12 21-63 20-120 43-170 71-22-29-48-55-79-79C422 69 345 33 247 6l-6 15c86 34 154 69 202 106 34 28 60 57 79 86-29 19-56 40-82 63-19-36-50-72-91-107-45-36-103-67-174-95l-6 16c59 30 108 62 147 95s69 69 88 106c1 1 2 2 2 4 2 1 3 4 5 10-27 26-55 62-86 105-40-72-96-134-169-184l-8 8c64 65 109 124 135 176 26 50 38 79 37 89 0 10-3 20-8 29l5 7 66-29c10-8 13-13 7-15-15 0-26-4-32-12-4-11-9-22-15-35h390l34 40 43-39c5-4 8-7 8-10 0-4-3-6-8-8l-20-13M95 813l37-37h332v90H155c-17 0-32-4-44-12l-34 32h683l31 39 67-49c5-3 7-6 6-8 0-1-4-2-11-2H505v-90h310l30 29 61-51c2-4 1-7-1-8-1-1-4 0-9 1-13 0-24-2-32-7-8-4-16-11-25-18-11-8-28-24-52-47l-13 6 47 76H505v-81h157l31 39 67-49c4-3 6-6 6-8-1-1-5-2-12-2H505v-91h243l31 40 68-49c4-4 6-6 6-8-1-1-5-2-12-2H253c-18 0-32-4-44-13l-33 32h288v91H286c-17 0-32-4-44-12l-33 32h255v81H145V444c-1-104-11-192-31-264C95 109 59 49 8 0L0 14c35 50 61 106 77 167 17 60 26 147 27 259v315c0 16-7 31-21 47l12 11m549-388c-8-52-23-107-46-165-6-14-13-27-22-39 53-26 106-45 160-57 8 52 12 111 13 176v85H644M452 302c27-24 57-44 88-62 1 2 2 5 4 8s5 9 9 18c23 50 37 103 44 159H486c-9-48-20-89-34-123M340 425c25-35 52-67 81-95 10 28 17 60 21 95H340Z"/></symbol><symbol id="𠁆_T" viewBox="0 0 1000 1000" data-size="21"><path transform="matrix(1 0 0 -1 24 945)" d="M518 814c-9-8-19-16-29-24v-20c26-6 67-13 122-23 59-11 117-26 175-46 59-20 90-42 92-66 1-9-3-16-9-22-6-4-12-6-19-5-9 1-25 9-47 23-39 25-87 48-144 69-36 12-92 29-170 50v-41c-1-20 1-41 4-62 1-13 2-24 1-33-1-13-9-20-27-20-17-1-25 4-25 15l-1 147c-6-4-11-6-14-8-82-46-163-81-242-105-52-16-112-31-181-44l-4 20c74 17 156 45 244 83 74 32 140 69 199 112H160c-38 0-70-1-94-3l-19 43c32-8 69-12 113-12l622 1 50 46 59-46c8-7 12-13 10-20-2-6-6-9-12-9H518m-51-332-18-67h285l30 35 37-24c12-8 18-15 20-22 1-6-3-12-12-18-2-1-4-2-7-3-3-2-7-4-12-7V31h38l55 50 61-52c7-5 9-11 8-16-2-6-7-9-13-9H123C85 4 54 3 29 0L10 43c32-7 69-11 113-11h40v361c-1 22-3 43-4 63l57-41h186l16 67H128c-38 0-69-1-93-3l-19 42c32-7 69-11 112-11l296 1 16 77 69-17c9-2 14-7 15-12 2-9-3-14-15-18l-27-7-6-24h330l48 50 59-52c6-6 9-11 7-16-2-6-6-10-13-10H467M210 32h534v69H210V32m0 95h534v71H210v-71m0 97h534v69H210v-69m0 97h534v67H210v-67Z"/></symbol><symbol id="𠁆_H" viewBox="0 0 1000 1000" data-size="21"><path transform="matrix(1 0 0 -1 39 945)" d="M12 854c28-7 66-11 114-11h667l43 48c23-18 46-35 66-51 6-3 8-7 8-11 0-9-5-14-14-14H521c-14-13-29-26-44-38v-25c58-9 117-21 175-34 65-17 113-30 145-41 32-13 54-23 65-31 13-9 24-17 32-26 4-6 6-13 6-20 0-14-5-21-17-21-7 0-16 2-28 7-11 4-24 11-40 20-27 15-52 27-74 37-29 11-65 23-106 36-39 15-92 32-158 50v-82c0-12 0-20 1-25v-23c0-19-9-28-25-28-14 0-21 5-21 15 0 11 1 26 3 44s3 34 3 49v71c-34-21-70-41-111-60-37-17-80-35-128-53-47-17-106-35-176-54L8 604c69 21 127 40 175 58 46 18 89 37 127 59 35 17 66 35 92 55 20 15 36 28 48 39H126c-46-1-78-3-95-6l-19 45m11-359c29-8 67-12 115-12h300c0 34-2 60-6 77 30-6 54-12 73-18 7-3 11-6 11-11 0-3-3-6-7-9-7-3-16-7-25-9v-30h289l46 52 71-54c6-3 8-7 8-11 0-9-5-14-15-14H484v-70h192l34 32c33-23 50-40 50-49 0-6-10-15-30-24V34h71l44 50 69-53c5-3 8-7 8-10 0-10-5-14-16-14H114C68 6 36 3 20 0L0 46c29-8 67-12 114-12h81v324c0 15-1 34-3 57l63-29h183v70H138c-47-1-78-4-95-7l-20 46M242 34h442v59H242V34m0 86h442v59H242v-59m0 86h442v63H242v-63m0 90h442v62H242v-62Z"/></symbol><symbol id="𠁇_T" viewBox="0 0 1000 1000" data-size="21"><path transform="matrix(1 0 0 -1 23 948)" d="M467 727c-3-84-23-126-60-126-9 0-16 3-21 10-3 5-5 11-5 18 1 9 7 18 18 28 18 16 31 35 38 58 6 18 10 46 11 83h19v-43h182c-5 7-9 19-13 35-6 27-27 58-61 95l12 13c32-21 54-36 67-47 24-22 36-43 36-63 0-14-4-25-12-33h186l29 33 45-36c11-9 17-17 16-22-1-7-7-11-18-13l-24-5c-14-19-39-44-74-76l-11 10c14 23 26 50 37 81H467m353-190V72h16l49 45 50-41c9-7 13-14 13-20 0-8-5-12-15-12H487c-44-1-75-2-93-4l-19 43c22-6 50-9 83-11h26v469c-2 42-5 70-8 83l58-43h230l33 37 41-27c13-8 20-16 20-24 0-9-13-19-38-30M527 72h250v143H527V72m0 170h250v143H527V242m0 170h250v142H527V412M223 618c100-95 154-170 164-225 2-13 1-24-4-32-5-9-12-13-21-13-14 2-24 14-31 36-20 70-56 137-108 200V155c0-35 2-71 6-107 1-9 2-18 2-26 0-13-8-19-24-20-20-2-30 5-30 20v528C141 450 87 360 15 279L0 293c54 80 97 162 127 248 24 67 44 145 60 234h-62c-39 0-70-2-94-4l-19 43c31-8 69-11 113-11l183-1 48 50 59-52c7-6 9-11 7-17-2-5-6-8-12-8H240l-6-25-11-48v-84Z"/></symbol><symbol id="𠁈_G" viewBox="0 0 1000 1000" data-size="21"><path transform="matrix(1 0 0 -1 20 971)" d="m116 802 43-47h295v118H118c-18 0-33-4-45-13l-33 33h765l40 48 73-56c7-5 10-9 8-11-2-1-8-2-19-1H497V755h254l31 34 45-40c5-5 8-9 7-13-1-3-6-5-13-7l-17-8V617c0-55 1-98 1-128 0-86 4-158 12-218 8-59 23-108 46-147 22-38 36-47 44-25 8 23 15 48 21 76l13 53 14-4c-4-28-8-58-13-92-1-10-2-16-3-20-2-15-3-29-3-44 0-13 5-27 17-43 6-7 8-13 7-17s-6-6-15-6c-17 0-35 5-53 17-20 11-41 33-63 66s-39 82-51 146c-11 66-17 149-16 250v157c0 38-1 71-1 97H169V603c2-234-14-385-47-454C87 81 49 31 8 0L0 14c36 45 67 99 93 162 24 62 35 214 33 456v111c0 16-8 31-22 47l12 12m159-476 37-32h283l35 38 49-46c4-4 6-7 5-10s-5-5-11-6l-18-9V135l5-52c0-12-4-20-12-23-7-4-19-8-36-12v60H326V89c0-14-4-24-12-29-8-6-21-11-38-14 3 25 5 72 7 143v87c-2 16-8 29-19 39l11 11m337-52H326V126h286v148M256 656h323l40 44 60-49c5-4 7-8 6-10-2-2-8-4-17-4H496V476h35l21 36c21 39 30 62 29 68 0 1 0 2-1 3-1 3-4 10-9 21l8 6 66-28c9-6 12-10 6-13-14 1-25-3-32-10-23-32-45-60-66-83h87l31 39 66-49c5-3 7-6 6-8 0-1-4-2-12-2H496v-75l2-37c0-14-4-24-13-30-9-5-22-10-39-13 3 19 5 61 7 126v29H275c-17 0-32-4-44-13l-33 33h255v161H334c-18 0-32-5-44-13l-34 32m48-58 8 8c16-8 34-19 52-34 11-10 19-21 25-32 4-12 6-23 4-35-3-12-10-18-21-18-12 0-18 7-18 22-1 13-5 28-13 44-9 14-22 29-37 45Z"/></symbol><symbol id="𠁈_T" viewBox="0 0 1000 1000" data-size="21"><path transform="matrix(1 0 0 -1 36 963)" d="M437 591h-84c-58-2-89-3-94-4l-21 44c28-8 66-11 115-11h219l46 47 58-47c10-9 13-16 11-24-2-3-6-5-13-5H484V430h138l46 48 58-48c10-9 13-17 10-24-1-3-5-5-12-5H484c1-33 2-60 4-80 2-9 2-18 2-27 0-7-4-13-11-17h132l33 37 40-26c13-10 20-17 20-24 0-9-12-19-37-30V107l20-16c4-4 6-8 6-13 0-6-3-9-9-9H304V56c0-9-7-14-22-15-21-2-31 7-29 25l2 20 1 17c0 4 1 11 1 20 1 9 1 14 1 14v108c0 11-1 31-3 61l58-29h135c-8 5-12 11-12 17l1 107H317c-57-2-88-3-93-4l-21 43c28-7 66-10 114-10h120v161m182-342H304V96h315v153M439 730v112H163c-38 0-70-1-94-4l-18 43c30-6 67-10 112-10h601l52 55 64-55c9-8 13-14 11-20s-6-9-13-9H486V730h249l33 38 41-27c13-9 20-17 20-24 0-9-13-19-38-30 0-29 1-50 1-64 3-170 6-278 11-323 8-73 20-126 36-160 8-17 17-24 26-21 5 1 10 7 13 17l35 120 15-6-15-101c-3-38-4-59-4-62 0-14 2-28 7-41 2-4 3-7 3-10 2-15-8-22-28-19-36 5-67 34-92 88-25 56-41 128-47 217-5 95-8 205-8 330v50H183v-71c0-138-5-244-13-318-9-75-29-141-62-197C89 82 58 44 14 0L0 15c32 42 54 76 68 103 44 88 66 222 66 402v143c0 34-1 68-3 102l55-35h253M275 559c60-29 91-58 91-87 0-6-3-12-8-17s-11-7-18-5c-8 2-14 8-19 16l-14 28c-6 10-20 26-44 49l12 16m327 19 38-20c20-11 30-20 28-27-2-8-15-13-40-14-23-25-47-49-75-73l-15 15c26 34 47 74 64 119Z"/></symbol><symbol id="𠁉_G" viewBox="0 0 1000 1000" data-size="21"><path transform="matrix(1 0 0 -1 27 964)" d="m422 729 51-25c4-3 7-6 7-8s-1-4-4-5c-15 1-26-3-35-15-8-15-17-29-26-41h154l38 31 34-38c4-4 6-7 5-9s-5-3-11-4l-10-9V444l3-42c4-21-10-32-40-32v27H324c-2-8-5-15-11-18-6-6-17-11-32-14 4 24 6 62 7 115v141c1 10-2 18-11 24l12 16 25-26h73c7 10 13 19 17 29 12 23 15 43 10 58l8 7m-281 79 36-42h538l31 34 45-40c5-5 8-9 7-12-1-4-6-6-13-7l-17-9V524c0-125 6-215 18-269 13-55 26-94 40-117 14-21 28-36 41-46 13-8 24 7 31 46l22 101 14-4c-9-76-14-125-15-146-1-23 5-41 18-55 12-14 13-24 3-29s-27-3-50 6c-26 11-53 36-83 77-30 39-51 89-63 152s-18 163-19 300v207H186V540c0-129-12-238-36-325C127 128 81 59 12 7L0 21c56 52 93 115 112 192s29 189 31 336v205c-2 15-7 30-16 46l14 8m122-599h175v93H309c-18-2-33-6-44-12l-34 28h364l27 31 55-41c5-2 7-3 7-4-2-1-6-2-13-2H476v-93h93l28 35 54-45c6-2 8-3 7-4s-5-2-12-2H476V89h156l23 29 63-35c5-4 7-6 7-8-2-1-6-2-13-2H275c-18-2-34-6-46-13l-33 29h242v104H334c-14 1-26-4-38-13l-33 29m325 305H325V413h263v101m-263 16h263v90H325v-90M17 882h793l40 48 72-56c7-5 10-8 8-10s-8-3-19-2H94c-18 1-32-4-44-13l-33 33Z"/></symbol><symbol id="𠁊_G" viewBox="0 0 1000 1000" data-size="21"><path transform="matrix(1 0 0 -1 28 979)" d="m417 958 90-22c5-2 8-3 10-5 0-2-1-5-4-7-11-3-20-9-30-20v-87h300l31 39 67-48c5-4 7-6 7-8-2-1-6-2-13-2H483V472c0-69-7-129-22-180h379l31 39 67-49c5-3 7-6 6-8-1-1-5-2-12-2H530c29-49 60-87 94-113 36-28 66-47 88-57 4-2 9-5 17-8 11-6 27-14 47-23 24-10 59-16 107-18 11-1 20-1 26-1l2-16c-26-1-43-4-52-9-9-4-18-12-25-26-77 18-151 59-222 121-34 29-69 79-105 150h-53c-7-21-16-42-28-63C348 81 211 11 17 0l-4 12c190 37 316 110 378 219 7 14 13 28 18 41H77c-17 1-32-3-44-12L0 292h416c17 47 25 108 24 184v322H122c-18 1-32-4-44-13l-33 32h395v87c-3 17-13 31-30 42l7 12M229 582l67-33c11-7 13-12 7-15-15 1-26-2-33-8-8-19-17-36-28-53 35-12 62-23 81-34 45-22 66-46 64-73-1-12-7-20-19-23-12-2-20 5-26 21-6 17-20 34-41 50-18 14-41 28-69 44-37-57-88-105-154-145l-8 8c63 63 106 115 128 155 23 39 34 63 32 72 0 8-3 17-8 27l7 7m0 213 67-33c11-7 13-12 7-15-15 1-26-2-33-8-8-17-16-33-25-49 33-10 61-21 82-34 46-23 67-48 64-75-1-12-7-20-18-23-10-2-19 5-26 22s-21 34-42 52c-19 15-42 30-69 45-37-59-91-110-160-154l-8 9c69 68 113 121 133 158 21 39 31 62 29 71 0 8-3 17-8 27l7 7m415-225 66-33c11-6 13-11 7-15-15 1-26-1-33-7-8-20-18-38-29-55 44-12 76-23 96-34 43-22 64-46 62-73 0-14-6-22-16-24-11-1-19 6-26 20-7 15-21 31-42 49-19 16-46 32-83 47-34-49-82-91-144-127l-8 9c66 61 108 109 125 144 18 35 26 57 26 65-1 9-4 18-9 27l8 7m11 219 67-33c11-7 13-12 7-15-15 1-26-2-34-8-6-14-14-29-23-44 42-11 72-22 91-33 43-21 63-46 62-73 0-13-5-21-15-24-11-3-20 4-27 20-7 17-21 34-43 50-17 14-44 29-79 45-33-46-82-87-147-125l-8 9c68 61 111 108 127 138 17 31 25 50 23 59 0 8-3 17-9 27l8 7Z"/></symbol><symbol id="𠁋_T" viewBox="0 0 1000 1000" data-size="21"><path transform="matrix(1 0 0 -1 35 962)" d="M521 842c-8-8-18-16-28-24v-37c17-4 30-6 38-8 81-15 154-34 218-57 70-25 108-50 113-76 2-9 0-17-4-24-6-8-14-11-24-9s-38 19-84 53c-47 34-133 68-257 103v-82c2-34 3-52 3-53 0-13-8-20-23-20-18 0-26 7-26 20v158C309 694 161 634 2 605l-2 20c182 51 331 123 447 217H128c-38 0-69-2-94-4l-18 43c29-7 67-10 112-10h671l54 55 64-55c8-8 12-15 10-20-2-6-6-9-12-9H521m2-623c47-33 105-64 174-92s146-48 232-59V49c-29-1-48-13-58-37-111 33-204 76-279 128-44 30-78 57-99 79h-9V118c0-15 2-39 5-70 1-8 1-17 1-27 0-12-8-19-24-20-20-1-30 6-30 20v197c-48-37-82-61-100-72C244 93 139 51 21 21l-8 19c168 58 287 118 356 179H197v-6c0-16-12-23-36-21-15 2-21 10-20 25 0 5 1 13 2 22 3 35 5 65 5 89v78c-1 26-3 49-7 67l62-43h233v61H145c-35 0-67-1-94-4l-19 43c31-7 69-10 113-10h291v12c0 38-1 64-4 78l53-12c27-6 41-13 42-21s-7-15-25-21l-18-7v-29h323l48 49 59-52c7-6 9-12 7-17-2-6-6-9-12-9H484v-61h258l33 37 41-26c13-9 19-17 19-24 0-8-12-18-38-30v-56c0-25 2-56 6-94 2-9 2-18 2-26 0-13-8-20-24-21-20-1-31 6-31 21v8H523m-87 28v65H197v-65h239m0 93v64H197v-64h239m48-28v-65h266v65H484m0 92v-64h266v64H484Z"/></symbol><symbol id="𠁌_T" viewBox="0 0 1000 1000" data-size="21"><path transform="matrix(1 0 0 -1 44 967)" d="M110 129v357c-34-2-58-4-71-6l-19 42c8-1 15-2 20-2 28-5 51-7 71-7h285l46 47 62-47c9-6 12-13 9-20-2-5-8-7-18-7h-75V133c0-45 2-78 4-99 2-20-7-31-26-32-17-2-25 3-25 15v126c-79-22-139-36-179-44-22-4-50-9-82-14-15-3-30-6-45-8l-3-18c-2-11-7-16-14-16-5 0-10 5-14 14l-26 63c12 1 30 2 55 5 10 1 25 2 45 4m47 357v-94h216v94H157m0-120v-91h216v91H157m0-118 1-113c80 9 152 21 215 35v78H157m348 603c-8-8-18-16-28-24v-50c91-18 166-36 224-55 38-11 70-23 95-35 30-15 47-32 51-52 1-8 0-16-5-23-6-8-14-11-24-9-9 2-37 19-84 53s-133 69-257 103v-51c-1-30 1-58 5-85 2-13 2-23 2-32 0-13-8-20-24-21-20-1-30 6-30 21l1 204C310 709 177 653 31 625l-2 20c163 48 297 117 402 206H112c-38 0-70-1-93-4L0 890c32-7 70-11 112-11h672l53 56 64-55c8-7 12-14 10-20-1-6-6-9-13-9H505m100-369V26c0-12-1-18-4-20-5-4-11-5-18-4-11 1-18 2-21 3s-5 4-6 9c-3 7-3 16-3 25 4 37 5 81 5 131v312c-1 23-4 46-8 70l60-43h187l24 28 48-29c14-8 20-16 18-22-1-7-16-12-43-16-30-41-69-86-116-136 41-20 70-40 87-59 35-40 53-80 53-120 0-68-39-108-118-118 0 18-7 31-18 40-9 7-31 16-67 27l3 23c55-21 93-29 114-26 15 3 27 12 33 28 5 10 6 22 6 33-4 70-47 125-129 165 44 55 79 107 105 155H605Z"/></symbol><symbol id="𠁍_T" viewBox="0 0 1000 1000" data-size="21"><path transform="matrix(1 0 0 -1 32 969)" d="M458 199c-27-53-76-97-146-131C258 42 176 19 64 0l-4 19c86 19 157 43 213 70 58 28 101 65 130 110H115c-39 0-70-1-93-4L3 238c32-7 70-10 112-10h302c9 26 16 56 19 92H167c-35 0-66-1-94-4l-18 43c31-7 68-11 112-11h275v70H253c-39 0-70-1-94-3l-18 43c32-8 69-12 112-12h189v71H188c-35 0-67-2-94-4l-18 43c31-7 68-11 112-11h569l48 49 59-52c7-6 9-11 8-16-2-6-6-9-13-9H489v-71h203l48 50 59-52c7-6 9-11 8-16-2-6-6-10-13-10H489v-70h287l48 49 59-52c6-6 9-11 7-16-2-6-6-9-13-9H457l49-13c9-2 15-6 17-11 5-10 0-17-13-20l-28-8c-4-16-8-30-12-40h350l49 49 58-52c7-6 10-12 8-17-2-6-6-9-13-9H458m63 654c-8-8-18-16-28-24v-41l38-6c212-36 322-75 329-117 1-6 0-12-5-17-4-5-10-8-17-7-10 1-30 10-60 29-39 23-85 43-138 60-24 7-73 20-148 38v-38l2-34 2-29c1-16 2-25 2-28 0-13-7-20-21-22-20-2-30 5-30 22v158C309 722 161 673 2 650l-2 19c181 43 330 104 447 184H128c-38 0-69-1-94-4l-18 44c31-8 68-12 112-12h671l54 56 64-55c8-7 11-14 10-20-2-6-6-9-12-9H521m9-686c94-21 169-40 225-58 72-22 111-46 116-70 2-9 1-17-4-23-5-5-11-7-17-7-10 1-32 12-65 33-30 19-68 38-114 56-14 5-62 21-145 48l4 21m133 524 60-37c9-6 13-11 11-17-1-6-6-9-15-9h-29c-30-26-62-51-98-74l-13 13c30 34 58 75 84 124m-413-5c79-34 118-66 118-98 0-18-7-28-22-30-11-2-19 5-25 19-10 24-22 43-36 58-6 6-21 18-45 37l10 14Z"/></symbol></svg>