<svg xmlns="http://www.w3.org/2000/svg"><symbol id="𫩐_T" viewBox="0 0 1000 1000" data-size="21"><path transform="matrix(1 0 0 -1 51 941)" d="m195 799 33 36 41-26c8-6 14-11 16-15 2-3 3-6 3-9 0-4-1-8-4-11-3-4-10-9-21-14-3-1-8-3-16-7V356l23-19c6-5 9-10 9-15 0-3-1-6-3-9-1-2-3-3-5-3H53v-46c0-8-6-13-18-13-11 0-19 3-24 8-2 2-4 5-5 8-1 4-2 8-2 12 0 11 1 28 2 51 1 15 2 45 2 90v354c-1 24-2 42-5 54 0 4-1 8-3 14l59-43h136M53 338h149v436H53V338m491 461-95-265h311l31 35 41-26c8-6 14-11 16-14s3-7 3-9c0-5-1-8-4-11-3-4-9-9-19-13-4-2-9-4-15-7-2-22-3-35-3-40l-3-76c-3-61-9-121-17-179-10-60-21-102-36-127-11-19-29-34-51-46-18-8-38-14-61-17-8-1-18-3-31-4 0 12-1 20-3 25-3 8-8 15-15 19-8 6-19 11-33 16-11 3-26 8-44 13l1 18c14-3 42-8 84-17 19-4 35-6 49-6 23 0 40 6 51 17 9 10 16 21 20 36 8 22 14 52 20 87 8 55 15 116 19 184 3 55 5 94 7 114H441c-6-3-10-4-13-5-3 0-5-1-8-1-8 0-15 1-20 2-2 1-3 2-5 4-1 2-2 4-2 6 0 3 1 8 4 14l6 17 9 19 82 237h-85c-9 0-25 0-48-2-7 0-16-1-25-3l-19 42c40-5 71-8 92-8h361l52 55 64-55c6-5 9-9 10-12 1-2 1-3 1-4 0-3-1-6-2-8-3-3-6-5-11-5H544Z"/></symbol><symbol id="𫩑_G" viewBox="0 0 1000 1000" data-size="21"><path transform="matrix(1 0 0 -1 17 961)" d="m137 688 35-43h168l78 207H78c-13 2-27-2-43-12L0 871h844l43 51 70-59c8-2 10-5 8-8 0-2-7-3-20-3H480L371 645h402l36 43 50-43c8-6 6-12-7-20l-20-8V164l8-125c2-13-13-23-47-31-3-3-5-4-8-4v113H184V43c0-23-19-38-55-43 0 5 1 17 4 35 2 52 4 99 4 141v457c0 21-5 35-16 43l16 12m648-551v488H184V137h601Z"/></symbol><symbol id="𫩒_T" viewBox="0 0 1000 1000" data-size="21"><path transform="matrix(1 0 0 -1 63 964)" d="m0 812 58-43h141l30 43c24-14 41-28 52-41 5-6 8-10 8-13 0-7-13-17-39-32V347c9-7 18-13 25-20 4-2 6-4 6-8 0-10-3-15-9-15H50v-43c0-7-6-11-19-11-6 0-13 2-22 5-6 5-9 12-9 21 0 13 1 28 2 47 3 15 5 46 5 95v328c0 25-2 47-7 66m50-480h157v410H50V332m560 395h173l31 43c23-14 40-28 51-41 5-5 8-9 8-13 0-7-13-17-40-32V208c0-22-5-39-14-51-8-11-20-19-34-25-13-7-24-10-34-10 0 14-2 25-7 31-5 9-15 17-28 23-15 6-32 10-50 12v24c34-11 65-17 93-17 13 0 21 2 25 6 5 4 7 13 7 26v472H610V90c0-15 1-25 2-30 2-11 2-21 2-29 0-21-10-31-31-31-15 0-22 5-22 15 0 15 0 33 2 53 1 23 1 43 1 61v570H406V117c0-8-7-12-20-12-5 0-12 2-21 6-7 6-11 14-11 23 0 11 1 26 3 45 4 15 6 46 6 94v431c0 25-3 47-9 66l60-43h150v124c0 35-1 61-3 78 36-4 67-11 91-20 9-4 13-10 13-15 0-6-4-10-13-12-11-6-25-10-42-11V727Z"/></symbol><symbol id="𫩒_V" viewBox="0 0 1000 1000" data-size="20"><path transform="matrix(1 0 0 -1 54 993)" d="M604 684V24c-7-11-15-17-24-20s-19-4-31-4v684H374l-15-14V220c-5-7-12-12-19-17-7-4-14-6-23-6h-6c-2 0-4 0-6 1v548l70-39h174v278l78-35c-1-1-2-5-5-13-2-8-5-17-8-26s-5-18-7-25l-3-11V707h180l49 50 58-71-40-39V272c0-12-7-24-20-36s-27-22-44-31c-16-9-29-14-39-17-5 7-9 15-12 26-7 19-19 33-37 42s-36 15-55 20v7c15-3 31-7 47-12 17-5 33-7 48-7 11 0 23 3 36 10s20 16 20 29v381H604M240 543H55c0-21 0-37-1-50 0-12-4-21-11-27s-22-11-43-14v408l64-37h110l39 43 61-61-34-33V543M64 799l-9-9V565h133v234H64Z"/></symbol><symbol id="𫩓_V" viewBox="0 0 1000 1000" data-size="20"><path transform="matrix(1 0 0 -1 54 1000)" d="M422 776c0-51 0-105 1-162s-1-114-5-171-13-113-27-168c-13-54-34-104-62-151S263 35 216 0l-13 9c45 57 80 113 103 168s39 113 47 173c9 61 13 127 13 199v321l64-34h28c9 27 17 54 22 81 5 28 10 56 13 83l74-36c-9-7-19-18-31-35-11-17-22-34-32-51s-18-31-23-42h143l34 42 61-50-35-40V134c9-17 19-27 32-28s29-2 46-2c15 0 25 7 32 20s11 28 13 46c2 19 3 37 2 54v42l17 2c-1-9-1-18-2-27v-28c0-13 1-29 3-47 2-17 10-30 23-37 3-1 8-3 14-6 7-3 13-7 18-10 6-4 9-8 9-12 0-9-5-16-15-22s-22-11-36-14c-14-4-28-7-41-8-13-2-22-3-28-3h-73c-19 0-33 5-43 14s-17 22-21 37c-3 15-5 30-5 45v663H433l-3-10c-1-6-3-12-5-18l-3-9M257 540H53v-50c0-13-4-24-11-31s-21-13-42-16v432l65-39h126l41 46 57-54-32-36V540M53 774V563h153v248H65l-3-10-6-18-3-9Z"/></symbol><symbol id="𫩔_G" viewBox="0 0 1000 1000" data-size="21"><path transform="matrix(1 0 0 -1 37 953)" d="m16 805 39-47h172l35 43 47-51c5-3 7-5 7-8 0-2-2-5-7-8l-20-7V328l4-109c0-29-17-43-51-43v94H63v-94c2-24-15-39-51-47 2 10 4 31 4 62 2 24 4 43 4 59v504c-6 16-12 29-20 39l16 12m47-516h179v449H63V289m261 391h496l32 39 66-47c5-3 8-5 8-8-3-3-7-4-12-4H488V63h309l39 42 55-46c7-6 11-10 11-12 0-3-4-4-11-4H500L461 0l-47 43c16 13 26 26 31 39v578h-43c-18 0-32-4-43-12l-35 32m192 215 7 11c66-34 107-71 125-113 13-44 6-68-23-70-13 2-20 11-20 27 0 18-6 39-19 63-8 20-31 48-70 82Z"/></symbol><symbol id="𫩕_G" viewBox="0 0 1000 1000" data-size="21"><path transform="matrix(1 0 0 -1 44 969)" d="m16 820 35-43h179l40 43 46-50c6-3 8-6 8-8 0-3-4-5-11-8l-20-8V332l8-86c-5-23-22-39-51-47v94H63v-98c2-23-15-37-51-43 2 8 4 25 4 51 2 21 4 38 4 51v500c0 21-7 38-20 51l16 15m47-507h187v445H63V313m316 484 51-47h359l43 47 70-55c8-5 11-9 8-12 0-2-5-2-15 0H434c5-268-12-445-51-531-31-75-81-142-149-199l-7 16c57 62 99 129 125 199 23 70 35 155 35 254 2 86 4 174 4 265 0 13-8 30-24 51l12 12m137 129 4 12c39-11 70-23 93-36 21-10 38-26 51-47 10-20 14-37 12-50 0-16-7-24-20-24-15 0-23 8-23 24-5 18-16 37-31 58-19 24-47 45-86 63Z"/></symbol><symbol id="𫩖_G" viewBox="0 0 1000 1000" data-size="21"><path transform="matrix(1 0 0 -1 47 951)" d="M879 773V121c3-44 0-73-8-86-8-15-32-27-74-35 0 21-20 38-59 51l-58 19v16c73-16 117-23 133-23 15 2 23 16 23 42v680H668c-18 0-33-4-43-12l-31 32h226l28 39 50-39c6-3 8-7 8-12 0-3-2-5-8-8l-19-12m-504-23 86-35c10-3 13-7 8-12-13-5-24-12-31-19V137l3-90c0-26-18-40-54-43 5 23 8 82 8 176v511c2 13-8 29-32 47l12 12m39 145 8 7c65-26 104-58 117-97 10-45 3-68-23-71-13-2-20 8-20 32 0 20-6 44-19 70-13 21-34 40-63 59M16 797l39-47h172l35 43 47-51c5-2 7-5 7-8 0-2-2-5-7-7l-20-8V320l4-109c0-29-17-43-51-43v94H63v-94c2-23-15-39-51-47 2 11 4 31 4 63 2 23 4 43 4 58v504c-6 16-12 29-20 39l16 12m47-516h179v449H63V281Z"/></symbol><symbol id="𫩗_G" viewBox="0 0 1000 1000" data-size="21"><path transform="matrix(1 0 0 -1 29 947)" d="M941 78V63h-15c-44 2-69-7-74-28-66 42-127 93-184 153-31 33-61 70-90 109-18-26-39-50-62-70-39-39-92-80-157-122C297 66 212 31 105 0l-3 16c179 62 320 157 421 285 3 5 8 12 16 19 5 8 9 13 12 16-18 31-35 61-51 90-47 91-87 226-121 406h-16c-10 3-23-3-39-16l-35 36h457l35 43 63-51c5-3 8-7 8-12-3-3-8-5-16-8-10-2-20-8-27-15-3-6-11-28-24-67-10-39-31-96-62-172-26-78-58-144-94-199-8-10-16-22-24-35 11-18 24-35 40-51 65-83 132-143 203-180 5-2 13-5 23-7 31-11 55-17 70-20M12 859l43-46h152l31 39 51-47c5-3 8-7 8-12-3-3-7-4-12-4l-19-12V395l4-106c5-26-11-40-47-43v82H63v-86c0-26-19-40-55-43 5 26 8 71 8 133v477c-3 15-8 28-16 39l12 11m508-375c20-39 40-74 58-105 29 49 56 101 82 156 37 94 69 193 98 297H406c34-148 72-264 114-348M63 348h160v445H63V348m441 418 8 7c28-13 53-31 74-54 23-26 36-48 39-67 8-39 0-58-23-58-11 0-19 11-24 35 0 21-6 43-19 66-13 29-32 52-55 71Z"/></symbol><symbol id="𫩘_G" viewBox="0 0 1000 1000" data-size="21"><path transform="matrix(1 0 0 -1 52 969)" d="m371 758 35-47h192v180c2 7-7 19-28 35l8 12 86-28c8-2 9-6 4-12-3-2-7-5-12-7-8-3-13-6-15-8V711h164l35 43 51-47c7-8 5-14-8-19l-16-8V480l4-109c3-26-14-40-51-43v59H641V133l4-98c-3-18-21-30-55-35 2 10 4 39 4 86 2 39 4 69 4 90v211H418v-32c3-20-14-35-51-42v35c3 47 4 87 4 121v242c0 8-4 18-12 31-2 0-4 1-4 4l16 12m270-352h179v289H641V406m-43 289H418V406h180v289M12 832l31-39h180l31 39 51-47c5-2 8-5 8-8 0-2-4-5-12-7l-20-8V410l4-109c5-26-10-41-47-43v86H63v-94c0-23-19-39-55-47 5 26 8 102 8 227v347c-3 16-8 30-16 43l12 12m51-469h175v410H63V363Z"/></symbol><symbol id="𫩙_G" viewBox="0 0 1000 1000" data-size="21"><path transform="matrix(1 0 0 -1 57 965)" d="M434 120c-8-55 13-78 62-71h109c86 0 145 2 176 4 32 6 48 19 51 39 5 29 9 76 12 141h11l4-109c0-29 9-48 28-59-16-34-39-52-71-55-18-5-84-7-199-7h-43c-52-3-87-2-105 4-60 7-89 45-86 113v70H78v-23c3-21-17-35-58-43 2 10 3 40 3 90 3 39 4 70 4 93v102c0 23-9 45-27 66l12 12 54-55h317v133H133v-19c2-21-17-36-59-43 5 26 8 66 8 121v144c0 18-8 39-23 63l11 11 51-54h262v86c0 13-11 28-31 47l7 11 98-35c8-2 9-6 4-12-13-5-22-11-27-19v-78h218l43 47 55-55c5-5 7-8 4-8 0-2-4-5-12-8l-15-7V624l3-71c3-18-15-30-54-35v47H434V432h285l43 47 51-55c5-2 7-5 7-7 0-3-4-6-11-8l-20-8V229l4-70c3-18-16-29-55-31v62H434v-70m0 297V206h304v211H434m-356 0V206h305v211H78m305 355H133V585h250v187m51-187h242v187H434V585Z"/></symbol><symbol id="𫩚_G" viewBox="0 0 1000 1000" data-size="21"><path transform="matrix(1 0 0 -1 41 943)" d="M891 813V82c0-16-4-31-12-47-8-13-33-22-74-27 0 18-15 32-43 43-29 10-55 18-78 23v12c26-3 57-7 93-12 21-2 33-4 36-4 13 0 22 3 27 8s8 26 8 63v683H430V133l4-90c0-23-19-38-55-43v35c3 52 4 99 4 141v660c0 18-7 32-20 43l16 8 43-43h410l27 39 51-39c5-3 8-7 8-12 0-3-3-5-8-8l-19-11M484 668l8 12c68-58 121-112 160-164 11 20 24 49 39 86 3 7 4 13 4 15 24 63 34 97 32 102-3 2-6 6-8 11-3 6-5 10-8 12l8 4 86-31c2-3 4-5 4-8s-3-4-8-4c-11 0-21-5-31-15-16-60-45-129-86-208 46-59 76-113 89-160 16-44 15-70-3-78-16-10-28 3-36 39-10 39-32 89-66 149 0 2-1 5-4 8 0 2-1 3-4 3v-3c-52-99-116-176-191-231l-8 8c55 62 102 130 141 203 5 8 11 18 19 31 8 16 13 26 16 31-34 53-85 115-153 188M16 828l31-39h176l35 39 51-47c5-5 6-8 4-8 0-2-4-5-12-7l-16-8V363l4-109c3-26-14-40-51-43v98H63V207c2-23-15-39-51-47 2 13 4 51 4 113 2 47 4 85 4 114v386c-6 16-12 30-20 43l16 12m47-500h175v442H63V328Z"/></symbol><symbol id="𫩛_G" viewBox="0 0 1000 1000" data-size="21"><path transform="matrix(1 0 0 -1 41 971)" d="m16 848 39-47h140l35 39 51-47c8-8 5-14-8-20l-15-7V375l4-86c2-26-15-42-51-47v94H63v-78c2-24-15-39-51-47 5 26 8 66 8 121v461c-3 16-10 30-20 43l16 12m47-493h148v426H63V355m546 586 98-39c5-5 5-7 0-7-13-8-23-16-31-24V684c13-89 25-163 35-223 16-76 34-139 55-191 15-47 31-82 47-106 15-31 31-52 46-62 16-21 36-37 59-47V39c-18 3-34 4-47 4-10 0-22-5-35-16-31 39-59 86-82 141-24 57-44 126-63 207-7 42-15 95-23 160-13-151-43-260-90-328C505 108 415 39 309 0l-4 12c122 70 207 152 254 246 44 99 67 255 70 469l-4 171c-3 11-12 20-27 28l11 15m-261-11 97-39c6-3 8-6 8-8l-4-4c-8-5-18-12-31-20V660c0-49-1-95-4-137l-4-43c39-26 68-50 86-74 24-26 37-53 39-82 3-26-4-41-19-47-16-2-25 7-28 28 0 18-6 43-19 74-3 3-5 6-8 12-18 28-37 50-55 66-8-78-28-152-62-223C286 133 215 56 129 4l-8 12c91 80 159 170 203 269 37 97 52 231 47 403v191c-3 13-14 25-35 35l12 16Z"/></symbol><symbol id="𫩜_G" viewBox="0 0 1000 1000" data-size="21"><path transform="matrix(1 0 0 -1 33 957)" d="M934 82V66c-39 11-68 7-86-11-47 65-80 129-98 191-18 65-31 137-39 215-8 70-12 190-12 359-15-5-34-7-54-7-16-3-37-7-63-12V137l4-90c0-26-18-40-55-43 3 10 4 40 4 90 3 34 4 62 4 86v617c-34-3-73-7-117-12 5-294-11-484-47-570-31-83-81-155-148-215l-8 12c41 44 78 108 109 191 37 91 52 287 47 586 3 16-4 31-20 47l12 12 47-43c52 10 115 22 188 35 23 2 39 5 46 8 99 18 141 35 125 50 3 6 4 10 4 12l8 4 63-59c5-5 7-10 7-15 0-3-2-4-7-4-21 5-47 4-78-4-13 0-28-3-43-8 2-114 7-209 15-285 8-78 18-141 31-187 8-50 23-95 43-137 19-39 36-68 51-86 16-16 38-31 67-47M12 848l39-47h160l35 43 51-51c2-3 4-5 4-8 0-2-4-5-12-8l-16-7V449l4-109c3-26-14-41-50-43v70H59v-94c0-26-17-40-51-43 5 24 8 75 8 153v414c-3 16-8 29-16 39l12 12m47-461h168v394H59V387Z"/></symbol><symbol id="𫩝_U" viewBox="0 0 1000 1000" data-size="23"><path transform="matrix(1 0 0 -1 91 893)" d="M0 689c11 0 23-3 35-9 13-6 26-14 41-25h75l33 44c11-4 22-10 33-18s19-17 24-26l-30-30V163c-17-17-33-25-49-25v45H50v-20c-17-17-33-25-50-25v551m325-473c1-4 3-8 5-11s4-7 5-10c29 16 58 36 86 59 28 24 54 51 78 81 25 31 47 64 66 100 19 37 35 76 47 117H308l-18-5-11 16h327l33 44c11-7 22-18 33-33s19-30 24-46l-30-18c-14-37-33-72-56-105s-48-63-77-90-60-51-93-72-67-38-102-53c14-23 31-43 51-59 21-15 44-28 69-37s53-16 83-20 61-6 94-6c29 0 59 1 89 4s61 6 93 10v-6c-17-7-32-17-45-29-12-12-24-28-37-47-33 0-70 1-111 3s-80 9-119 20c-38 12-73 31-106 56-32 26-57 63-74 110L221 33c-19 8-36 22-49 41l153 142M50 195h112v449H74l-24-16V195m355 591c23-17 41-33 56-47 15-13 27-25 36-36s15-20 18-29c4-8 6-15 6-21 0-7-2-13-5-18s-6-9-10-13c-4-3-8-6-12-8s-7-3-10-3c-10 0-15 9-15 27 0 8-2 17-6 28-3 11-8 22-15 35-6 13-13 26-22 40-8 15-17 29-26 43l5 2Z"/></symbol><symbol id="𫩞_G" viewBox="0 0 1000 1000" data-size="21"><path transform="matrix(1 0 0 -1 35 969)" d="m70 438 39-47h270l31 39 51-43c8-5 5-11-8-16l-15-12V152l3-93c3-24-13-36-46-36v75H121V47c0-24-18-39-55-47 6 26 8 76 8 148v235c-2 15-8 30-15 43l11 12m51-321h274v254H121V117m168 781 8-3c0-3-3-6-8-8-16 0-29-5-39-16-57-109-120-211-187-305 13 0 44 3 93 8 102 11 192 18 270 24 0 2-2 5-4 7 0 3-1 6-4 8-16 32-44 65-86 102l8 12c112-71 163-142 152-215-2-13-10-20-23-20-8 3-15 16-20 39-2 16-8 33-15 51L82 535c-18-5-31-15-39-31L0 559c23 7 39 18 47 31 44 65 98 164 160 297 0 15-3 30-8 43l8 8 82-40m613-58V129c3-31 0-55-7-70-8-21-32-37-71-47 0 23-19 39-58 47l-63 15 4 20c70-16 113-22 129-20 16 0 23 16 23 47v734H574c-15 6-28 2-39-11l-31 31h340l31 43 47-43c5-3 8-7 8-12 0-2-3-5-8-8l-20-15M465 695h258l31 39 66-46c13-8 12-11-4-8H543c-18 0-34-6-47-16l-31 31Z"/></symbol><symbol id="𫩟_T" viewBox="0 0 1000 1000" data-size="21"><path transform="matrix(1 0 0 -1 65 928)" d="m688 781-82-279h156l33 37 41-26c9-6 15-11 17-14 2-4 3-7 3-10 0-5-2-9-6-13-3-3-8-6-15-9-5-2-11-5-17-8-5-50-11-100-18-152-8-67-22-125-40-174-11-30-23-54-35-71-13-17-26-30-41-40-12-7-26-13-42-17-8-2-19-4-33-5 0 6 0 11-1 14-1 14-11 24-27 32-8 3-29 12-65 25l6 18c41-12 65-19 74-21 10-2 19-4 26-4 15 0 29 4 42 12 13 7 25 20 35 38 14 25 27 68 40 128 8 37 13 71 17 101 1 5 3 38 9 98 0 10 1 21 3 34H597c-4-1-7-2-9-2-7-2-12-3-16-3-3 0-8 1-13 3l-8 4c0 1-1 2-2 4l-1 2 7 23 81 275h-24c-37 0-68-1-93-4l-17 43c15-3 26-5 34-7 19-2 44-4 76-4h145l50 47 55-49c4-3 6-5 6-6 1 0 1-1 2-2 0-1 1-3 1-5 0-3-1-6-3-8-3-3-7-5-11-5H688m-540-10 34 37 41-27c8-6 14-10 16-14 2-3 3-6 3-9 0-5-2-10-6-13-3-3-8-6-14-10-4-1-9-4-16-8l1-426 22-15c5-5 8-9 8-14 0-2-1-5-3-8-1-3-3-4-6-4H53v-47c-1-4-2-6-3-7-3-3-8-4-15-4-10 0-18 2-23 7-3 2-4 4-6 7-1 5-2 9-2 13v38c1 3 1 8 1 13 2 15 3 45 3 90v377c-1 23-2 40-5 52 0 4-1 9-3 14l60-42h88M53 288h110v455H53V288m310-10v430h-14c-12 0-28-1-48-2-6-1-14-2-25-3l-19 42c40-6 71-9 92-9h86l39 39 56-42c5-4 8-8 8-12 0-3-1-6-3-9s-6-4-10-4H411V300c26 13 46 24 58 31 10 6 25 15 45 26l10-16c-17-16-33-29-46-39-29-22-63-44-101-66-18-11-42-23-69-36l-2-23c0-5-2-10-5-12-1-2-3-2-6-2-2 0-4 0-6 2-4 2-7 5-9 9l-37 66c11 3 23 6 37 10 28 8 48 15 60 19 7 2 14 5 23 9Z"/></symbol><symbol id="𫩠_M" viewBox="0 0 1000 1000" data-size="21"><path transform="matrix(1 0 0 -1 45 933)" d="M418 866c38-5 69-12 95-22 8-4 12-8 12-15 0-6-4-11-12-13-13-6-27-10-42-10V620h346l28 28c23-16 43-33 61-50 2-3 3-5 3-7 0-5-6-9-18-12-11-3-21-5-31-7-11-17-25-36-42-54-16-21-33-40-50-56l-17 12c18 21 32 41 42 60 10 20 19 39 24 57v2H108l-5-42c-4-21-9-39-17-54-5-12-12-22-21-30-7-9-15-14-23-16-7-3-13-5-19-5-15 0-23 5-23 16 0 6 4 13 13 22 22 24 38 44 48 60 9 16 17 34 24 54 5 18 8 43 10 75l12-2 2-51h315v168c0 35-2 61-6 78m-241-40c23-13 44-27 62-41 20-12 36-24 48-36 14-12 23-23 27-31 5-9 7-17 7-26 0-11-1-20-5-27-5-7-11-11-18-11s-12 2-16 5c-5 3-10 10-13 23-4 15-12 31-23 47-10 14-22 28-34 42-12 13-28 28-50 43l15 12m514 10c32-9 61-20 86-32 5-4 7-8 7-11 0-7-4-11-13-15-14-4-28-6-41-6-7-12-16-23-27-34-10-11-21-23-34-35-10-10-21-20-33-28-11-8-26-16-44-26l-19 14c17 12 32 26 44 40 13 16 26 33 38 51 11 17 21 35 30 54 3 9 5 18 6 28M121 410l62-29h538l29 28c33-23 50-40 50-49 0-6-10-14-29-24V74l22-16c3-3 5-6 5-8 0-9-3-14-10-14H170V21c0-6-4-11-12-15-10-4-18-6-24-6-9 0-13 4-13 13 0 3 0 8 1 14 1 15 1 29 1 41v276c0 32-1 54-2 66m49-347h550l4 3v284l-1 4H170V63Z"/></symbol><symbol id="𫩡_G" viewBox="0 0 1000 1000" data-size="21"><path transform="matrix(1 0 0 -1 37 957)" d="m12 832 43-47h156l35 39 51-47c2-2 4-5 4-7 0-3-4-6-12-8l-19-12V313l3-110c3-26-14-40-50-43v98H63v-82c2-21-16-35-55-43 5 23 8 74 8 152v492c-3 16-8 30-16 43l12 12m51-555h160v489H63V277m769 383 55-47c5-5 6-8 4-8 0-2-3-5-8-7-8 2-17 0-28-8-44-42-96-85-156-129V133c3-31 8-51 16-59 13-8 26-11 39-11h43c5 0 13 1 23 3 13 0 20 2 20 4 21 3 32 16 35 39 5 16 8 54 8 114h15l4-71c0-34 8-56 24-66-11-29-29-46-55-51-10-5-39-8-86-8-26 0-45 2-58 4-42 0-66 25-71 74v747c0 15-9 30-27 43l4 11 101-39c6-2 6-6 0-12-10 0-22-5-35-15V484l43 43c55 60 84 94 86 102 0 10-2 19-8 27l12 4M438 188c-8-8-23-20-43-36-29-23-46-37-51-43-13-5-22-18-28-39l-46 47 218 137v285H371c-16 0-30-5-43-16l-31 36h191v296c0 13-9 29-27 47l8 12 90-35c7-3 9-7 4-12-14-5-23-12-28-19V43c3-21-15-35-55-43 6 23 8 82 8 176v51l-50-39Z"/></symbol><symbol id="𫩢_G" viewBox="0 0 1000 1000" data-size="21"><path transform="matrix(1 0 0 -1 41 977)" d="M918 78V63c-23-6-39-10-47-12-5-5-12-13-19-24-66 8-125 26-180 55-44 21-86 50-125 86C495 92 391 36 234 0l-7 12c143 52 239 116 289 191-47 60-85 126-114 199h20c29-62 66-117 113-164 29 58 44 133 47 227H426v-12c2-18-15-30-51-35 3 26 4 72 4 137v179c0 16-7 30-20 43l20 12 43-47h164v164c-3 16-10 28-23 35l7 12 82-27c8-5 13-8 16-8 0-3-3-5-8-8-2 0-5-1-8-4-13-5-20-9-23-11V742h144l36 39 54-47c5-5 4-9-4-11l-4-4-19-12V516l4-55c2-26-13-39-47-39v43H629c-3-110-22-197-59-262C674 122 790 81 918 78M16 859l39-46h175l36 42 47-46c7-8 6-15-4-20l-20-8V379l8-106c2-28-14-44-51-46v113H63V230c0-26-17-40-51-42v35c2 44 4 83 4 117v469c0 15-6 28-16 39l16 11m47-500h183v434H63V359m570 125h160v239H629V578c0-13 1-30 4-51v-43m-207 0h160v239H426V484Z"/></symbol><symbol id="𫩣_G" viewBox="0 0 1000 1000" data-size="21"><path transform="matrix(1 0 0 -1 16 973)" d="M969 375v-16c-34-2-55-6-63-11-8-8-15-19-23-32-120 32-220 82-301 153-31 28-61 64-90 105h-51c-31-62-82-118-152-168-8-5-18-10-31-15-5-6-20-15-43-28l19-19h446l31 31 47-39c5-5 6-8 4-8 0-2-3-5-8-8l-16-11V125l4-74c0-18-15-30-47-35v58H242V43c3-23-14-38-51-43 6 26 8 63 8 109v204c0 15-2 28-8 39-57-26-119-46-187-59l-4 12c122 44 212 90 270 136 57 42 97 86 121 133H82c-16 3-31-1-47-11L4 594h160v187c3 16-3 30-16 43l12 16 47-39h231c2 31 3 64 3 97 0 16-6 28-19 36l8 11 82-35c13-8 15-13 8-15-8 0-19-4-32-12 0-31-1-59-4-82h219l35 39 51-47c8-8 7-13-4-16l-19-11V594h62l43 51 70-55c8-5 11-9 8-12 0-2-6-4-19-4H520c15-18 35-39 58-62 50-42 113-77 192-106 57-21 123-31 199-31M242 94h453v230H242V94m207 500h270v187H484c-7-73-19-135-35-187m-238 0h191c16 36 28 99 36 187H211V594Z"/></symbol><symbol id="𫩤_G" viewBox="0 0 1000 1000" data-size="21"><path transform="matrix(1 0 0 -1 23 945)" d="m16 809 39-47h140l35 39 51-47c8-8 7-14-4-20l-19-7V355l4-109c5-26-11-40-47-43v74H63v-47c0-23-17-39-51-46v43c2 26 4 46 4 62v465c0 16-6 30-16 43l16 12m47-512h152v445H63V297M199 31h293v809c0 8-8 22-23 43l8 8 82-36c7-2 9-6 4-11l-8-4c-3 0-9-4-20-12V31h121v805c0 13-8 27-23 43l8 8 82-35c7-3 9-7 4-12l-4-4c-11-3-17-7-20-12V31h125l43 51 74-59c6-2 8-5 8-7-2-3-8-4-15-4H277c-15 0-31-4-47-12l-31 31m78 614 8 11c107-135 164-250 172-343 8-45 0-72-23-83-16-7-25 7-28 43 0 97-43 220-129 372m664-24c6-3 8-5 8-8-2-2-6-5-11-8-14 3-24-3-32-19-52-141-110-259-176-356l-15 12c99 216 148 347 148 391 0 2-1 5-4 8-2 10-5 17-7 19l7 12 82-51Z"/></symbol><symbol id="𫩥_G" viewBox="0 0 1000 1000" data-size="21"><path transform="matrix(1 0 0 -1 47 916)" d="m12 781 43-35h148l31 35 47-43c5-8 4-13-4-15 3 0 2-2-4-4l-15-8V250l4-70c0-21-17-32-51-32v47H66v-39c3-21-15-35-54-43 5 24 8 60 8 110v507c0 13-7 27-20 40l12 11m54-566h145v512H66V215m442 609 35-47h273l36 43 50-50c6-6 4-10-4-12l-3-4-16-8V145l4-90c5-26-12-41-51-43v97H555V43c0-26-17-40-51-43v35c3 42 4 78 4 110v617c0 23-5 40-16 51l16 11m324-386H555V129h277v309m-277 15h277v305H555V453M336 832l86-35c10-5 13-9 8-12-11-5-20-12-28-19V137l4-90c3-21-15-35-54-43 2 10 3 39 3 86 3 36 4 66 4 90v593c0 13-10 29-31 47l8 12Z"/></symbol><symbol id="𫩦_U" viewBox="0 0 1000 1000" data-size="23"><path transform="matrix(1 0 0 -1 116 894)" d="M248 778c10 0 21-3 33-9 13-6 25-14 37-23h362l33 42c11-4 22-10 32-18 11-7 18-15 23-24l-29-30V24C723 8 707 0 691 0v43H589l-24-33c-20 8-36 21-48 39l24 24v437h-80l-22-15V24C424 8 408 0 391 0v43h-96V24C279 8 263 0 248 0v778m143-224c11 0 23-3 34-10 12-6 25-14 39-23h67l32 42c11-3 22-9 33-17s18-17 22-26l-29-28V55h102v679H316l-21-14V55h96v499M0 658c11 0 22-3 33-9 12-6 25-14 38-24h51l31 42c11-4 22-10 33-18 11-7 18-16 23-25l-29-29V174c-16-16-32-24-48-24v43H48v-19c-16-16-32-24-48-24v508m48-453h84v408H70l-22-14V205Z"/></symbol><symbol id="𫩧_T" viewBox="0 0 1000 1000" data-size="21"><path transform="matrix(1 0 0 -1 35 956)" d="M467 859c-22-20-37-34-45-41-8-6-17-13-28-22-40-30-82-55-126-76-30-15-68-30-116-46-44-15-82-26-114-34-8-1-18-4-33-7l-5 18c47 16 83 28 110 38 93 36 171 77 232 124 29 22 52 43 71 64 6 8 15 19 26 34l50-15c16-4 25-7 28-10 4-3 6-7 6-11s-2-7-6-8c-2-1-5-1-9-2-3 0-7-1-12-2 6-5 14-10 23-16 26-19 63-40 109-65 60-30 122-55 186-74 27-7 66-16 117-27l-2-20c-12 0-21 0-26-1-13-2-23-7-29-15-3-3-6-8-10-16-44 14-79 27-105 38-47 19-100 48-159 86-39 26-83 61-133 106M143 558l-19 42c40-6 71-9 92-9h455l36 34 40-36c9-8 14-14 17-19 1-3 2-5 2-7 0-5-2-8-7-11-4-3-11-5-20-7-4-1-12-1-23-2-45-24-82-43-112-58-25-12-57-27-98-44 21-8 37-14 48-18 24-11 41-22 49-34 6-8 8-17 8-26 0-7-1-13-5-17-4-6-9-9-17-9-5 0-11 2-17 6-3 2-12 9-29 23-14 12-31 23-51 34-18 9-41 20-68 32-22 9-46 19-72 27-3 2-13 6-31 12l3 19c23-4 48-10 76-18 29-7 55-15 76-22 45 24 79 43 103 57 25 16 53 34 83 56H216c-13 0-28-1-48-2-6-1-14-2-25-3m163 109-19 42c40-6 70-9 91-9h130l41 45 54-43c7-6 11-12 11-18 0-3-1-5-3-7-2-3-5-5-10-5H378c-12 0-28 0-47-2-6 0-15-1-25-3m386-346 36 40 45-33c4-4 7-7 9-10 2-2 3-6 3-10s-1-8-4-11-7-7-14-10l-17-9V104l42-32c3-3 5-6 5-12 0-4-1-8-3-10-1-2-3-3-5-3H221V12c0-4-1-7-3-8 0-1-1-1-2-2-5-1-10-2-17-2-12 0-20 2-25 7-2 2-4 4-5 7-1 5-2 9-2 13 0 13 1 30 2 53 1 14 2 43 2 88v128c0 24-2 47-7 68l58-43h470M221 74h477v218H221V74Z"/></symbol><symbol id="𫩨_G" viewBox="0 0 1000 1000" data-size="21"><path transform="matrix(1 0 0 -1 43 969)" d="M789 809V605c3-33-29-57-94-70-2 24-30 42-82 55-8 2-13 4-15 4v11c57-7 93-11 109-11 13 0 22 2 27 8 8 2 11 23 8 62v152H543V508c0-37 4-59 12-67 8-7 26-13 54-15h98c36 0 69 1 98 4 31 5 48 17 50 35 6 31 10 70 12 117h16v-70c2-32 13-52 31-63-16-31-40-49-74-54-16-3-56-4-121-4H574c-54-6-81 32-78 113v312c0 19-5 32-16 39l8 8 39-27h200l27 39 55-39 7-8c0-2-2-5-7-8l-20-11m-523 93 7-4c3-2 2-5-3-7-13 0-24-4-32-12-2-5-6-14-11-27-8-19-15-32-20-39h168l27 27 47-39 8-8-8-4c-2 0-5-1-8-4-5 0-9-1-11-4-6-2-12-23-20-62-10-34-23-69-39-106-36-88-100-159-191-211-47-28-106-54-176-78l-4 16c86 42 147 75 184 101 31 24 61 51 89 82 24 34 46 75 67 122 0 5 1 11 4 19 15 37 27 79 35 129H199c-15-31-31-61-47-90 32-10 56-23 75-39 23-18 36-38 39-59 2-18-3-29-16-35-10-5-18 0-23 16-3 18-12 35-28 51-8 15-27 32-58 51l-4-4c0-3-2-4-4-4-34-52-73-98-117-137l-8 8c73 94 129 189 168 285 15 44 22 68 19 70 0 5-2 12-7 20 0-3-2-2-4 4l7 8 75-36m-82-527 39-47h433l32 39 50-47c5-2 8-6 8-11-3-3-6-6-12-8l-19-8V156l4-101c5-26-11-41-47-43v74H230V43c3-23-14-38-50-43 2 10 4 35 4 74 2 31 4 56 4 74v172c-6 16-12 30-20 43l16 12m46-270h442v204H230V105Z"/></symbol><symbol id="𫩩_G" viewBox="0 0 1000 1000" data-size="21"><path transform="matrix(1 0 0 -1 51 965)" d="m406 496-35 35h250l129 211H520c-55-83-116-152-184-207l-12 8c78 83 141 173 188 270 23 46 34 75 31 85 0 8-4 17-12 28l8 4 94-39c2-6 0-9-8-12-16 0-27-5-35-16-18-36-38-70-59-101h207l43 43 67-67v-8c-3-2-7-2-12 0-16 0-27-2-35-7-8-6-28-28-59-67-28-39-61-80-97-125h160l39 35 51-39c2-2 3-5 3-7 0-3-3-6-11-8l-20-12V156l8-125c0-13-5-21-16-23-10-5-23-8-39-8v86H445c-18 0-34-4-47-12l-35 31h457v204H504c-18 0-34-4-47-12l-35 31h398v184H445c-10 0-23-5-39-16M16 816l39-46h175l32 43 51-51c5-3 7-5 7-8s-4-5-11-8l-16-8V355l8-109c-3-26-20-40-51-43v90H63v-94c0-26-17-40-51-43 5 24 8 74 8 153v457c-3 15-10 28-20 39l16 11m47-503h187v437H63V313Z"/></symbol><symbol id="𫩪_G" viewBox="0 0 1000 1000" data-size="21"><path transform="matrix(1 0 0 -1 31 922)" d="m16 754 39-47h164l35 43 51-51c2-2 4-5 4-8 0-2-4-5-12-7l-16-8V293l4-109c0-26-17-41-51-43v89H63v-93c0-26-17-41-51-43 5 23 8 74 8 152v457c-3 16-10 29-20 39l16 12m47-504h171v438H63V250m679 594 90-51c5-3 8-5 8-8 0-2-1-4-4-4-18 0-34-6-47-19-5-11-14-26-27-47-39-65-69-112-90-141h113l39 47 74-55c6-2 8-5 8-7-2-3-9-4-19-4H395c-16 0-30-4-43-12l-36 31h325c39 76 66 129 82 160 15 37 23 60 23 71-3 13-6 23-12 31l8 8M273 31h543l39 43 75-51 8-7c-3-3-10-4-20-4H352c-16 0-30-4-43-12l-36 31m82 285h391l39 51 74-54c6-3 8-6 8-8-2-3-9-6-19-8H434c-13 2-28-1-43-12l-36 31m28 493 8 15c101-57 155-114 160-172 2-26-4-41-20-47-15-7-26 4-31 36-8 31-21 60-39 86-18 28-44 56-78 82Z"/></symbol><symbol id="𫩫_G" viewBox="0 0 1000 1000" data-size="21"><path transform="matrix(1 0 0 -1 35 951)" d="m12 824 31-39h168l31 39 51-47c5-2 8-5 8-7 0-3-4-6-12-8l-16-8V402l4-113c3-23-13-36-47-39v86H59v-94c2-23-15-39-51-47 5 26 8 102 8 227v348c-3 15-8 29-16 43l12 11m347 74 39-39h395l35 43 67-50c7-3 10-6 7-8 0-3-6-4-19-4H410V539h199c6 63 8 129 8 199-2 13-10 24-23 32l4 11 90-27c10-3 13-7 7-12-7-2-17-6-27-12l-8-3c0-50-2-112-8-188h168l32 39 54-43c8-5 11-9 8-12 0-2-6-3-19-3H680c0-3 1-7 4-12 5-31 14-70 27-117 18-84 51-159 98-227 41-57 82-91 121-101V47c-19 2-35 2-51 0-3 0-8-5-16-16-67 58-121 141-160 250-18 63-34 142-47 239h-8c-7-92-26-175-54-250C549 165 474 79 367 12l-8 11c99 79 167 171 204 278 18 41 33 114 46 219H484c-15 0-30-4-43-12l-31 31c0-135-13-243-39-324-31-91-75-163-133-215l-8 16c55 67 93 145 114 234 21 91 28 224 23 398v196c0 15-8 31-23 47l15 7M59 355h171v411H59V355m656 395 4 12c62-29 100-59 113-90 16-37 12-59-12-67-10 3-18 12-23 28-3 21-12 40-27 58-13 21-32 41-55 59Z"/></symbol><symbol id="𫩬_G" viewBox="0 0 1000 1000" data-size="21"><path transform="matrix(1 0 0 -1 68 975)" d="m199 949 90-35c5-3 8-5 8-8l-4-4c-21-7-31-14-31-19v-47h82l31 39 66-47c11-5 8-8-7-8H262V699h78l31 39 67-47c10-5 7-7-8-7H262V555h125l31 39 66-43c6-5 7-8 4-8 0-3-4-4-11-4H262v-59l4-46c5-24-13-39-55-47 5 26 8 64 8 113v39H78c-18 3-32-3-43-16L0 555h219v129h-86c-16 0-30-6-43-16l-31 31h160v121H109c-18 0-32-4-43-11l-35 27h188v55c0 13-9 28-28 47l8 11m637-117V637c8-144-39-216-141-219-2 16-10 29-23 39-5 3-12 5-20 8-26 8-44 13-54 15v16c26-5 56-10 90-16 10-2 16-3 19-3 57-8 85 45 82 160v207H617c0-115-15-207-47-278-36-86-88-142-156-168l-8 8c63 50 106 110 129 180 26 68 39 154 39 258h-47c-18 0-31-5-39-16l-35 35h320l36 39 46-39c11-5 11-11 0-19l-19-12M148 391l43-47h504l35 43 51-51c3-3 4-5 4-8 0-2-4-5-12-8l-15-7V125l4-70c5-26-12-41-51-43v66H195V47c3-24-14-39-50-47 5 26 7 57 7 94v246c-2 15-7 28-15 39l11 12m47-293h516v226H195V98Z"/></symbol><symbol id="𫩭_T" viewBox="0 0 1000 1000" data-size="21"><path transform="matrix(1 0 0 -1 49 952)" d="M598 304V148c0-10 0-27 2-51 1-24 2-41 3-50 1-11 1-19 1-25 0-7-1-12-5-16s-11-6-21-6c-9 0-16 2-20 5-5 4-8 9-8 15v284H390c-38 0-69-2-94-4l-18 43c32-8 69-11 112-11h160v164H388v-30c0-7-3-12-9-15-4-3-11-4-18-4s-13 2-17 6c-3 3-4 8-4 16l6 99-1 270c-1 23-2 40-5 52 0 4-1 8-3 14l59-43h360l34 37 41-26c8-6 14-11 16-14s3-6 3-9c0-6-2-10-6-14-3-3-8-6-14-9-6-2-11-5-18-8V573c0-8 1-21 1-39 1-13 2-23 2-30 2-14 2-23 2-28 0-8-2-15-7-18-5-5-13-7-22-7s-16 2-20 6c-2 3-3 6-3 9v30H598V332h170l50 58 74-57c3-2 5-5 7-8 2-2 2-5 2-8s-1-6-4-8c-3-4-7-5-11-5H598M388 524h377v140H388V524m0 168h377v141H388V692M180 809l34 38 41-26c9-6 15-11 16-15 1-2 2-4 2-7 0-5-3-11-10-17-5-4-14-10-28-16V395l23-19c4-2 6-6 8-10 0-1 1-2 1-3 0-2-1-5-3-8-2-2-3-3-5-3H56v-48c-1-3-2-6-4-7-3-3-9-5-17-5-5 0-11 1-15 3-7 2-11 5-12 10-2 5-3 10-3 16v19c1 15 1 25 1 32 2 18 3 47 3 88v325c-1 23-2 41-5 52-1 5-2 10-4 16l60-44h120M56 378h134v404H56V378Z"/></symbol><symbol id="𫩮_J" viewBox="0 0 1000 1000" data-size="21"><path transform="matrix(1 0 0 -1 71 946)" d="M246 111c83 1 175 4 276 8v247H391v-55l-61-9v451l73-41h119v179l76-12c16-2 24-7 24-15 0-5-7-10-20-17l-19-10V712h127l26 45 71-47c15-9 22-17 22-23 0-5-7-10-20-15l-25-9V330l-63-7v43H583V124l160 12c-22 38-52 79-89 122l10 12c49-31 92-66 129-105 44-47 65-85 64-115v-3c0-14-3-25-10-33-7-9-16-14-27-14-5 0-11 1-16 4-8 4-15 18-22 41-5 17-14 38-25 64-30-4-74-11-131-21-65-11-166-23-303-38l-4-12c-4-17-10-25-19-25-6 0-13 8-20 24l-34 74m145 573V394h131v290H391m192-290h138v290H583V394M0 120v703l69-37h118l22 33 65-40c10-6 15-12 15-17 0-7-4-12-13-15l-21-9V196l-61-15v59H61V133L0 120m61 148h133v491H61V268Z"/></symbol><symbol id="𫩯_G" viewBox="0 0 1000 1000" data-size="21"><path transform="matrix(1 0 0 -1 35 967)" d="m383 492-35 35h410l35 36 47-43c5-3 8-7 8-12-3-3-7-4-12-4l-20-8V375l8-82c0-13-5-22-15-27-11-6-23-8-36-8v47H414V113c0-28 5-47 16-54 13-11 32-17 58-20h137c99 0 161 3 188 8 36 8 54 21 54 39 5 23 9 74 12 152h16l3-109c0-31 11-51 32-59-11-23-22-37-35-43-8-5-21-10-40-15-20-5-93-9-218-12-94 0-154 1-180 4-57 8-87 47-90 117v192c0 18-8 39-23 62l11 8 51-59h367v184H418c-10 0-22-5-35-16m390 371 86-35c6-2 8-5 8-8l-4-4c-13-5-22-11-27-19V684l4-36c0-15-5-26-16-31-8-8-18-13-31-15v54H402l-19-35-51 35c13 13 20 26 20 39v121c0 11-8 24-24 39l8 8 82-35c8-2 10-6 8-12-13-2-24-9-31-19V676h175v207c6 10-2 23-23 39l8 12 82-36c8-2 9-5 4-7-11-6-20-12-28-20V676h180v133c0 7-9 22-27 43l7 11m-757 0 35-47h148l31 43 51-50c5-6 7-8 4-8 0-3-2-5-8-8l-19-8V391l4-110c2-23-13-38-47-43v75H59v-59c0-26-16-40-47-43v35c2 44 4 83 4 117v450c0 15-6 28-16 39l16 11m43-531h156v465H59V332Z"/></symbol><symbol id="𫩰_T" viewBox="0 0 1000 1000" data-size="21"><path transform="matrix(1 0 0 -1 51 965)" d="M425 758c-11-24-23-47-36-70-10-18-20-33-28-45-8-13-18-27-30-42-11-15-20-26-28-35-4-4-10-10-18-19l-18 16c15 20 27 37 36 52 13 20 27 45 43 75 13 24 28 58 45 102 10 24 20 55 30 93 4 15 7 30 10 44l57-24c12-5 21-10 28-15l3-6c0-2-1-5-2-7-2-2-4-5-8-7-5-2-9-3-14-4l-22-2c-11-25-23-52-36-79h319l47 55 62-49c11-9 17-16 16-21 0-3-1-5-4-8-2-3-6-4-12-4H425m196-487v383c0 38-1 64-4 78l53-12c19-4 31-8 36-11 4-3 6-7 6-11 0-8-8-15-24-20l-16-6-1-401h109l48 47 62-48c3-2 5-4 6-6s1-4 1-7c0-4-1-7-4-10-2-2-4-2-7-2H671V90c0-9 2-26 4-49v-9c0-7-1-13-4-19-4-9-14-13-30-13-8 0-14 2-16 5-3 2-4 6-4 10v230H388c-39 0-70-2-95-4l-19 43c11-3 19-5 26-6 23-5 52-7 88-7h233M193 795l34 38 41-27c8-5 14-10 16-14 2-3 3-6 3-9 0-4-1-8-3-11-4-4-11-9-22-14-3-1-8-3-14-6V342l24-18c4-3 6-6 6-11 0-2-1-5-4-8-2-2-4-3-6-3H54v-47c-1-3-2-5-3-6-3-3-9-5-16-5-9 0-17 3-23 7-3 2-4 4-6 7-1 4-2 8-2 13l5 142v359c-1 23-2 40-5 51-1 4-2 9-4 15l60-43h133M54 331h149v439H54V331m366 292c30-9 51-15 62-19 12-4 22-8 29-11s14-8 21-12c23-16 34-34 34-55 0-9-2-15-7-20-3-3-7-5-13-5-4 0-8 2-12 4-4 3-9 9-16 19-9 13-18 24-29 33-11 10-24 20-40 30-8 5-19 12-35 22l6 14m-58-153c58-28 95-47 110-57 10-7 17-13 22-19 9-12 14-26 14-40 0-7-2-14-6-19-3-5-9-8-16-8-6 0-11 2-15 6-4 2-9 10-15 22-12 21-28 40-49 59-9 7-27 22-54 43l9 13Z"/></symbol><symbol id="𫩱_G" viewBox="0 0 1000 1000" data-size="21"><path transform="matrix(1 0 0 -1 39 971)" d="m16 836 39-47h144l35 43 51-51c5-5 7-8 4-8 0-2-4-5-12-7l-15-8V379l4-82c5-26-12-40-51-43v90H63v-82c0-26-17-41-51-43v35c2 36 4 68 4 94v437c0 16-6 29-16 39l16 12m304-316-15 7c52 107 86 211 101 313-2 5-6 13-11 23l3 8 82-31c6-3 4-5-3-8-8 0-17-5-28-16-8-33-15-66-23-97h140v172c3 10-6 23-27 39l8 11 86-31c8-2 10-6 8-12-13-5-24-11-32-19V719h121l32 43 62-51c5-5 7-8 4-8 0-2-4-4-12-4H609V500h200l35 43 62-51c5-5 7-8 4-8 0-2-4-4-12-4H715V129c0-26 4-42 12-47 5-8 18-12 39-12 23 0 47 2 70 4 21 5 31 18 31 39 5 21 9 65 12 133h16l3-90c0-31 8-52 24-62-8-21-17-35-27-43-11-8-24-12-40-12-18-3-35-4-50-4h-71c-39 3-60 26-62 70v375H504c0-62-5-127-16-195-13-62-43-120-90-172C357 69 290 31 199 0l-8 12c73 36 129 73 168 109 39 42 67 95 82 160 8 37 15 103 20 199H359c-15 0-30-3-43-11l-35 31h285v199H418c-21-60-53-120-98-179M63 363h152v407H63V363Z"/></symbol><symbol id="𫩲_G" viewBox="0 0 1000 1000" data-size="21"><path transform="matrix(1 0 0 -1 50 971)" d="m266 340 43-35h394l39 39 47-47c5-5 7-9 4-12 0-2-3-4-8-4l-19-11V109l4-62c2-18-13-30-47-35v51H316V43c0-26-15-40-46-43v35c2 37 3 67 3 90v164c0 18-6 31-19 39l12 12m50-258h407v203H316V82m450 598 62-55c5-5 8-9 8-12 0-2-3-5-8-8-18 8-43 8-74 0-188-23-380-37-578-42V445h613l35 43 67-47c7-5 10-9 7-11 0-3-5-4-15-4H176c-3-73-9-143-20-211C143 132 94 60 8 0L0 12c73 70 113 148 121 234 8 91 11 198 8 320 0 16-8 29-24 39l12 16 55-39c193 8 383 30 570 66 8 8 12 17 12 28l12 4M141 941l39-46h515l32 43 50-51 8-4c0-3-4-5-12-8l-19-8v-74l4-59c5-26-11-40-47-43v32H188v-8c0-26-17-42-51-47v12c5 21 8 40 8 58v153c-3 15-10 28-20 39l16 11m47-203h523v141H188V738Z"/></symbol><symbol id="𫩳_G" viewBox="0 0 1000 1000" data-size="21"><path transform="matrix(1 0 0 -1 33 969)" d="M508 902c0-7-3-11-8-11-10 2-20-3-27-16-13-26-30-64-51-113-13-24-22-42-27-55V47c2-24-15-39-51-47 5 29 8 89 8 180v449c-29-47-67-94-114-141h-4v-78l4-113c5-26-10-40-47-43v82H59v-78c2-24-15-39-51-47 5 26 8 74 8 144v458c-3 15-8 29-16 42l12 12 39-47h125l35 39 47-46c5-3 8-7 8-12-3-3-7-5-12-8l-20-8V516c81 114 137 217 168 308 3 5 6 13 8 24 11 36 16 56 16 58-3 8-8 17-16 28l8 4 90-36m336-273 35 43 47-39c5-3 8-7 8-12 0-3-3-5-8-8l-20-11-8-266c-2-109-9-178-19-207-8-26-22-47-43-63-18-18-50-31-94-39 0 16-8 29-23 39-24 8-58 19-102 32v15c71-15 120-22 149-19 31 2 52 13 62 31 16 23 25 87 27 191l8 293H672c0-15-1-36-4-62 0-29-1-50-4-63 86-49 134-104 145-164 2-26-3-41-16-47-16-2-25 7-27 28-6 23-16 51-32 82-15 26-39 55-70 86C648 245 573 89 438 0l-12 12c135 114 203 314 203 597H504c-16 3-29-1-39-11l-35 31h199c3 78 4 168 4 269 0 8-5 16-16 24l4 12 82-32 8-4c0-2-3-5-8-7-10-3-19-8-27-16 0-89-2-171-4-246h172M59 355h132v446H59V355m406 450 4 11c112-46 151-100 117-160-10-2-20 5-27 24-3 23-11 43-24 58-10 21-34 43-70 67Z"/></symbol><symbol id="𫩴_G" viewBox="0 0 1000 1000" data-size="21"><path transform="matrix(1 0 0 -1 35 957)" d="m16 891 39-47h125l35 39 51-47c2-3 4-7 4-12-3-2-7-4-12-4l-16-11V395l4-125c0-27-16-41-47-43v58H63v-58c2-24-15-39-51-47 5 26 8 70 8 133v523c-3 16-10 30-20 43l16 12m47-67V305h136v519H63m464-320 90-35c8-3 11-7 8-12-13-5-23-12-31-19v-67h203l31 43 67-51c7-5 10-9 7-11 0-3-5-3-15 0H637c13-29 32-60 58-94 37-50 75-85 114-106 23-7 41-15 54-23 16-3 38-5 67-8v-16c-45 6-69-5-75-31-72 31-131 80-175 145-24 34-46 78-67 133h-19V113l4-70c2-21-15-35-51-43 2 10 4 35 4 74 2 31 4 56 4 74v204h-20c-15-50-35-92-58-125-58-73-140-133-247-180l-3 12c99 62 166 123 203 183 23 31 41 68 54 110H340c-18 0-33-6-43-16l-35 35h293v74c0 13-12 29-35 47l7 12M391 855c-16 0-28-3-36-11l-35 31h368l31 39 58-55c6-2 6-6 0-11-15-3-26-7-31-12-3-3-6-14-12-35 6 21 4 17-4-12-7-26-16-55-27-86h90l31 31 47-46c5-6 7-8 4-8 0-3-3-6-8-8-8 0-14-4-19-12l-8-62c-8-47-18-78-31-94-6-11-16-22-32-35-2-3-5-5-7-8-16-8-41-14-75-20 0 16-4 28-11 36-11 7-36 18-75 31l4 15c42-10 75-18 98-23 26 0 44 8 55 23 15 16 26 47 31 94l8 67h-98l-31-24-39 39c15 5 24 17 27 35l16 39 23 82H516c2-109-16-196-55-261-39-68-102-125-188-172l-3 12c83 67 138 131 164 191 31 60 44 137 39 230h-82Z"/></symbol><symbol id="𫩴_U" viewBox="0 0 1000 1000" data-size="23"><path transform="matrix(1 0 0 -1 83 925)" d="M549 20c0-3-2-6-5-9s-6-5-10-6c-4-2-8-3-12-4s-7-1-9-1c-6 0-9 3-9 8v291l-36-50c-25-30-53-56-82-77s-55-39-80-53c-25-13-46-23-63-30-17-6-26-9-27-9-3 0-4 1-5 3l-2 4c0 3 2 6 5 7 30 13 59 30 86 49 28 19 54 40 77 63 24 23 45 48 64 73s34 50 45 75H262l-6 28h248v133l50-7c14-2 21-7 21-14 0-4-1-7-4-10s-6-5-9-7-6-4-9-7c-3-2-4-5-4-9v-79h147l57 47 57-43c5-3 8-8 8-14s-2-11-6-14-9-4-15-4H550c13-22 29-45 46-69s37-47 59-68c23-21 48-41 76-58s59-30 94-39c5-1 8-4 8-7 0-2-2-4-5-5s-7-3-12-5c-5-1-9-3-14-6s-8-6-10-10c-3-6-6-9-9-9 1 0-1 1-5 2-50 28-94 62-132 102-38 41-70 86-97 136V20m77 805 17 24 37-28c6-3 9-9 9-17 0-4-1-7-4-9-2-1-5-3-8-5s-7-4-10-7-5-7-6-12l-37-112h114l18 29 39-25c10-5 15-11 15-18 0-5-2-9-5-11s-6-4-10-6c-3-1-7-3-10-5-3-1-4-4-5-8l-13-87c-3-18-7-33-12-45s-11-22-19-31c-7-9-17-16-28-21s-24-10-40-15c-2 12-7 21-15 26-7 5-16 9-25 12s-17 5-24 6c-7 2-10 5-10 10 0 7 3 11 10 11 23-4 41-6 56-6 13 0 23 2 30 5 8 4 14 9 18 16 5 7 8 16 10 25s4 20 5 31l12 80H601l-27-5c-6 1-9 4-9 9 0 2 1 5 2 9 11 25 22 50 31 75s17 51 24 78H470c-1-13-2-30-4-50s-6-42-11-65-11-46-19-70-18-47-31-69c-13-23-29-44-47-61-17-17-34-31-50-42-15-11-29-19-40-24s-18-7-19-7c-5 0-8 3-8 9 0 4 1 6 4 7 34 21 62 45 84 72s40 57 53 88c14 32 24 66 30 101 7 36 11 73 14 111H288l-6 27h344M0 781l40-27h119l21 31 36-25c5-4 7-9 7-16-1-7-5-11-11-13-5-2-8-5-8-8V229c0-6-2-10-6-12-3-2-12-5-27-9-8 0-12 7-12 21v47H45v-76c0-5-4-9-11-12s-14-5-21-5c-9 0-13 6-13 19v579m45-477h114v422H45V304Z"/></symbol><symbol id="𫩵_G" viewBox="0 0 1000 1000" data-size="21"><path transform="matrix(1 0 0 -1 45 971)" d="m129 941 43-46h496l35 39 51-47c5-5 6-8 4-8 0-3-4-5-12-8l-16-8V738l4-70c3-26-14-40-50-43v39H180v-19c2-21-16-36-55-43 5 26 8 62 8 109v176c-3 15-8 30-16 43l12 11m51-257h504v195H180V684m199-192H109c-13 3-24-1-35-12l-31 32h332l27 31 55-43c5-3 8-5 8-8 0-2-3-4-8-4-16-2-26-6-31-11-52-58-100-103-145-137 21-8 50-22 86-43 11-3 17-5 20-8 78-57 95-104 51-141-11 0-20 12-28 36-2 23-15 46-39 70-21 23-51 47-90 70V43c0-23-17-38-51-43 3 10 4 39 4 86 3 34 4 61 4 82v137l-4 4c-49-34-125-73-226-118l-8 16c83 39 158 85 223 137-6 5-11 10-16 15l12 12c2 0 11-4 27-12 57 47 102 92 133 133m242 55c5-3 5-7 0-12-13 0-23-5-31-15V164c0-34 5-55 15-62 13-11 32-16 55-16 29-3 60-4 94-4h51c26 8 40 22 43 43 5 29 7 78 7 148h16l4-105c3-34 14-53 35-59-21-36-47-56-78-58-18-5-40-7-66-4-47-3-94-1-141 4-57 2-85 40-82 113v367c0 16-9 30-27 43l7 12 98-39m-406 90 8 11c62-15 99-37 109-66 16-34 10-53-16-59-10 6-18 13-23 24 0 16-7 30-20 43-10 15-30 31-58 47Z"/></symbol><symbol id="𫩶_G" viewBox="0 0 1000 1000" data-size="21"><path transform="matrix(1 0 0 -1 53 973)" d="m148 320 28-31h562l39 39 47-47c5-2 8-5 8-8 0-2-4-5-12-7l-19-8v-47l8-176c-3-13-8-21-16-23-8-5-20-9-35-12v59H188V43c0-13-6-22-16-27-8-8-20-13-35-16 2 10 4 30 4 59 2 26 4 46 4 62v152c0 3-2 7-4 12-3 8-4 16-4 24l11 11m610-50H188V78h570v192M363 781H105c-15 0-27-5-35-15l-31 35h320l32 27 50-39c8-8 8-13 0-16-2 0-6-1-11-3-11 0-17-3-20-8-47-50-95-93-144-129 15-8 37-20 66-35 18-11 31-17 39-20 78-57 95-104 51-140-11 0-20 11-27 35-3 23-16 47-40 70-20 23-50 47-89 70V348c0-24-17-37-51-39 2 10 4 39 4 86 2 36 4 65 4 85v114l-4 8C164 568 94 533 8 496l-8 12c78 39 147 81 207 125-3 2-6 6-12 12l-4 3 12 12c8-2 16-6 24-12 59 45 105 89 136 133m242 78c6-2 6-6 0-11-13 0-23-6-31-16V500c0-39 5-62 16-70 13-11 31-17 55-20h144c26 8 40 22 43 43 5 31 8 83 8 156h15l4-105c3-39 15-61 36-66-21-37-47-56-79-59-18-5-40-8-66-8-47 0-94 1-141 4-57 5-84 46-82 121v348c0 15-9 30-27 43l8 11 97-39m-406 71 8 15c63-21 99-44 109-70 13-36 8-56-15-59-11 0-18 8-24 24 0 15-6 30-19 43-11 15-30 31-59 47Z"/></symbol><symbol id="𫩷_G" viewBox="0 0 1000 1000" data-size="21"><path transform="matrix(1 0 0 -1 41 957)" d="m16 816 35-46h144l32 39 50-47c6-5 7-8 4-8 0-3-4-5-11-8l-16-8V367l4-121c5-26-11-40-47-43v70H59v-66c0-26-16-40-47-43v35c2 37 4 68 4 94v473c0 15-6 28-16 39l16 11m43-523h152v457H59V293m289 250c-3 13-11 25-24 35l8 12 82-35c10-3 13-7 8-12-13-5-24-12-31-20V90h410v430c2 13-7 28-28 46l8 12 86-35c11-3 13-7 8-12-13-5-23-11-31-19V133l4-90c2-21-13-35-47-43v70H402l-35-43-51 43c16 16 26 28 32 35v438m101 47c58-42 110-90 156-145 8 16 19 34 32 55 8 16 13 27 15 35 19 44 28 69 28 74-3 8-7 16-12 24l8 8 62-36c5-2 9-5 12-7 0-3-3-6-8-8-8 2-17-1-27-12-24-52-51-105-82-160v-4c101-130 137-210 105-238-15-8-28 6-39 43-10 39-40 94-90 164-5-11-11-22-19-35-50-81-106-146-168-196l-8 16c47 49 94 113 141 191 13 21 23 39 31 55-42 60-93 115-152 164l15 12M289 719h524l31 43 66-47c8-5 11-9 8-12 0-2-5-4-16-4H367c-18 0-34-4-47-11l-31 31m168 183 4 12c117-39 173-87 168-144 0-16-8-25-24-28-10 0-19 11-27 31-8 40-48 82-121 129Z"/></symbol><symbol id="𫩸_G" viewBox="0 0 1000 1000" data-size="21"><path transform="matrix(1 0 0 -1 27 943)" d="m12 824 35-39h125l39 39 43-47c5-5 6-7 4-7 0-3-3-6-8-8l-20-8V391l4-106c0-21-14-31-43-31v82H59v-74c2-24-13-38-47-43 2 10 4 35 4 74 2 29 4 52 4 70v407c0 10-7 23-20 39l12 15m812-160 35 43 43-39c6-3 8-7 8-12 0-2-2-5-8-8l-19-11V371c0-75-4-125-12-148-3-24-14-45-35-63-23-23-56-40-98-51-5 26-19 43-43 51-2 0-9 1-19 4-24 10-46 17-67 20l4 15c19-2 42-6 71-11 26-6 44-8 54-8 11 0 24 1 39 4 16 0 30 10 43 31s20 60 20 117v313H684c2-271-75-444-231-520l-15 16c138 83 204 251 199 504h-98c-16 2-29-2-39-12l-35 31h176c0 55-2 115-4 180-3 2-7 6-12 11-8 13-13 20-16 20l4 12 94-28c5-2 8-5 8-7 2 0 1-3-4-8-8 0-17-4-27-12V664h140M59 355h132v411H59V355M273 16l-39 39c32 21 59 39 82 54 19 11 36 17 51 20v340h-54c-11 0-20-4-28-12l-31 31h98l35 35 43-43c5-2 8-5 8-7 0-3-4-6-12-8l-16-8V121c11-3 20-8 28-16 41-33 104-54 187-62h74c42-3 97-3 164 0h82V31c-52-8-74-18-66-31H723C585 0 492 23 445 70c-26 21-45 33-58 35-13 0-32-9-55-27-23-10-43-31-59-62m0 820 8 8c45-26 72-50 82-71 13-18 21-35 24-50 0-16-2-29-4-39 0-13-7-19-20-16-10 0-15 9-15 27 0 42-25 89-75 141Z"/></symbol><symbol id="𫩹_T" viewBox="0 0 1000 1000" data-size="21"><path transform="matrix(1 0 0 -1 55 967)" d="M800 488c-45-13-98-27-160-40V83c0-20-4-35-13-47-7-10-19-19-35-27-6-3-11-5-15-7-3 0-7-1-13-2-1 12-4 21-6 26-5 9-12 17-21 22-10 5-25 9-44 13-7 1-17 3-30 5l4 23c55-9 88-13 98-13s17 2 21 6c5 4 7 11 7 22v334l-10-2-44-8-80-14-32-7-3-19c-2-8-4-13-7-14-1-2-3-3-5-3s-5 1-7 3c-5 3-9 8-11 15l-29 67c13 5 25 10 34 16 13 7 29 18 47 32 18 15 36 29 52 44 38 36 78 77 120 124-22-8-48-16-76-23-17-5-48-12-92-22-17-4-31-7-43-10l-6-22c-3-10-6-14-11-14-6 0-11 6-17 18l-26 57c5 2 10 5 14 9 11 9 23 22 38 39 14 16 32 39 54 69 19 28 34 52 45 71 12 22 27 52 43 91l69-32c8-4 13-7 14-9s2-3 2-5-1-4-2-6c-4-4-10-7-19-8l-30-3c-17-27-31-48-42-64-21-29-49-61-84-95-13-13-25-24-35-32-6-4-13-10-22-17 49 5 92 10 130 17 44 7 78 13 103 18 7 2 14 3 21 5 12 14 24 32 37 52 16 26 30 50 41 74l65-49c4-3 7-6 9-9 2-1 2-3 3-5 0-3-1-6-4-8-3-3-8-4-15-4h-5l-29 4c-11-14-18-24-23-30-14-19-24-33-30-41-6-7-15-17-28-29-20-22-43-44-67-67-23-21-40-37-52-48-13-11-25-21-38-30-21-16-50-35-89-60l20 2c47 5 79 8 96 10 37 5 84 12 139 20 23 4 47 8 72 13 14 3 28 5 42 8-10 14-19 28-30 40-8 10-22 25-42 46l11 12c52-35 88-65 107-88 17-21 29-40 37-60 4-11 6-21 6-29 0-7-2-14-6-20-5-6-11-10-19-10-6 0-10 2-15 6-4 3-7 10-11 20-9 25-15 40-18 46-3 5-6 11-10 18m-86-160 12 12c21-19 35-30 39-34 16-14 38-37 68-68 21-23 37-45 48-69 5-12 8-25 8-40 0-11-2-19-7-26-2-4-5-6-9-8-3-1-6-2-10-2-6 0-10 2-14 5-4 2-6 5-8 7-2 4-4 10-6 16-4 17-11 35-19 53-11 27-28 55-49 86-6 10-13 19-20 28-21 24-31 38-33 40m-271 15 60-28c8-3 13-7 16-12 1-2 2-4 2-5 0-2-2-4-4-6-4-5-11-8-20-9l-23-1c-14-28-27-51-38-69-20-30-42-58-68-85-17-19-35-35-55-49l-11 13c21 24 34 40 39 47 17 21 31 43 44 68 13 24 25 50 36 76 7 15 14 35 22 60M189 787l34 38 41-26c9-6 14-11 17-14 2-4 3-7 3-10 0-4-2-8-4-11-3-4-10-9-22-14-2-1-7-3-14-6V334l25-17c4-3 6-7 6-11 0-3-1-6-4-9-2-2-4-3-6-3H54v-46c-1-4-2-6-3-7-2-2-4-3-8-4-2 0-5-1-8-1-10 0-17 3-23 7-3 2-4 4-6 7-1 4-2 9-2 13l5 142v360c-1 22-2 39-5 50-1 4-2 9-4 15l60-43h129M54 323h145v439H54V323Z"/></symbol><symbol id="𫩺_V" viewBox="0 0 1000 1000" data-size="20"><path transform="matrix(1 0 0 -1 59 990)" d="M583 653H421c-1-56-5-113-14-171s-23-114-44-169c-20-54-47-104-82-149S203 82 151 52l-9 11c51 54 91 107 121 158 31 52 54 104 69 156 16 53 26 106 31 161s8 113 8 174v195l-46-22-29 44h411l30 51 66-56-34-43V653H604c13-41 27-82 41-123 15-41 32-80 51-117 20-37 45-70 74-99 30-29 67-53 111-70l-1-12c-16-3-31-7-44-12s-26-14-38-26c-25 13-47 32-67 59s-38 58-54 93-30 72-42 109c-12 38-22 74-31 108-9 35-16 65-21 90m-344-45H52v-48c0-13-3-23-10-30s-21-13-42-16v421l61-39h113l38 45 60-53-33-44V608m206 297-24-24V676h297v229H445M61 872l-9-10V630h136v242H61m546-559c0-6-1-14-4-23-2-9-6-18-11-25s-11-11-19-11c-3 0-6 3-9 8-3 6-5 12-7 19s-3 11-4 13c-8 33-19 61-33 82-13 21-30 45-50 71v5c12-7 26-16 41-25 16-9 31-20 45-32 15-11 27-24 36-38 10-13 15-28 15-44m83-257c0-5-1-12-2-21s-4-17-8-24c-3-7-9-11-17-11-9 0-16 4-22 13-6 8-11 15-14 22-15 29-33 52-56 69-22 17-46 32-73 44-27 11-54 22-83 32l3 12c13-2 30-5 52-10 22-4 46-10 71-17s49-15 72-25 41-22 55-36c15-14 22-30 22-48Z"/></symbol><symbol id="𫩻_G" viewBox="0 0 1000 1000" data-size="21"><path transform="matrix(1 0 0 -1 69 982)" d="M469 941c5-5 4-9-4-11-8 0-16-4-24-12-5-23-11-44-19-63h269l28 36 51-39c7-6 9-10 3-12l-3-4-24-12c3-99-38-148-121-148 3 23-35 45-113 66l4 12 117-27c31-8 52 2 62 31 8 21 12 47 12 78H414c-8-16-17-30-27-43-19-29-51-57-98-86-44-23-117-43-219-59l-7 12c88 24 153 46 195 67 39 26 69 52 90 78 5 8 11 18 19 31H180c-16-3-28-8-35-16l-32 35h262l4 4c5 11 8 20 8 28 8 18 11 35 11 51 0 2-2 7-7 15-3 3-4 5-4 8l8 4 74-24M266 645c5-6 5-8 0-8-11-3-19-8-24-16 0-5-1-12-4-19 0-11-1-19-4-24h129l28 35 47-35c7-8 9-13 3-15l-3-4-20-12c0-130-39-193-117-188-3 16-26 33-71 51-2 3-5 4-7 4l4 12 78-24c28-5 48 8 58 39 11 42 15 81 12 118H230c-10-39-26-75-46-106-32-44-90-82-176-113l-8 12c70 33 118 70 145 109 23 34 37 66 43 98H74c-2 0-6-2-11-4-14 0-21-3-24-8L8 578h183c8 37 11 57 8 63-2 7-8 13-15 15l7 8 75-19m402-4c5-6 4-8-4-8-8-3-16-8-23-16 0-8-2-17-4-27h148l24 31 46-35c8-5 10-9 4-12l-4-4-19-11c0-68-7-114-20-137-7-24-20-39-39-47-18-8-37-12-58-12 2 21-29 41-94 59l4 12 94-24c49-10 74 43 74 160H633c-18-112-86-183-203-215l-8 12c99 44 156 112 172 203h-71c-2 0-6-1-11-4-13 0-21-2-24-7l-27 31h137c5 28 5 44 0 47 0 8-4 15-12 23l8 8 74-27M148 363l40-47h488l35 32 51-39c5-6 6-10 4-12 0-3-4-5-12-8l-16-8V156l4-101c5-26-12-41-51-43v74H195V43c3-23-14-38-50-43 2 10 3 35 3 74 3 34 4 59 4 74v161c-5 15-11 30-19 43l15 11m47-258h496v192H195V105Z"/></symbol><symbol id="𫩼_G" viewBox="0 0 1000 1000" data-size="21"><path transform="matrix(1 0 0 -1 35 955)" d="m629 762 8 11 43-19c13 10 34 30 62 59 21 20 38 36 51 46H527c-13 0-23-4-31-11l-35 31h328l35 31 47-55c3-5 0-7-8-7-18 0-34-6-47-16-31-23-69-53-113-90l16-8c5-2 9-5 11-7l-3-4c-6-3-13-7-24-12-2-3-5-4-8-4v-55h133l31 39 67-46c5-6 6-8 4-8 0-3-4-4-12-4H695V480c0-23-5-41-15-54-8-11-35-21-82-31 0 18-8 31-24 39-15 7-44 15-86 23l4 20 39-12c45-8 76-9 94-4s27 22 27 51v121H492c-18 0-32-4-43-12l-35 31h238v63c0 15-7 31-23 47m-414 4 8 11 43-19c28 23 63 57 105 101H105c-13-2-23-7-31-15l-35 35h332l31 27 47-51c3-7 0-10-8-7-18-3-33-9-46-20-8-8-21-18-40-31-28-21-50-38-66-51l16-8c5-2 9-5 11-8l-3-3c-14-6-24-12-32-20v-23l176 39 4-12-180-51V484c0-23-5-40-15-50-8-11-34-23-78-36-3 21-12 34-28 40-15 7-42 15-78 23l4 19 35-7c44-11 74-13 90-8 18 8 29 25 31 51v132c-31-7-68-18-109-31-18-5-30-9-35-12-29-13-46-27-51-42L0 617l242 55v47c-2 15-12 31-27 47m-78-383 43-43h519l31 35 55-39c8-8 5-14-8-20l-15-7V156l4-105c0-26-17-41-51-43v78H188V43c0-26-19-40-55-43 5 23 8 73 8 148v180c-3 16-8 30-16 43l12 12m51-278h527v215H188V105Z"/></symbol><symbol id="𫩽_U" viewBox="0 0 1000 1000" data-size="23"><path transform="matrix(1 0 0 -1 98 893)" d="M0 732c11 0 22-3 33-9 11-5 23-13 36-22h82l32 41c11-4 22-10 32-18 10-7 17-15 22-24l-29-29V221c-15-15-31-23-46-23v42H47v-19c-15-15-31-23-47-23v534m501-242c11 0 22-3 33-9 11-5 24-13 37-22h47l31 41c11-4 22-10 32-18 11-7 18-15 22-24l-28-28V136c0-11 1-21 4-30 3-8 8-12 13-12h18c7 0 12 1 17 2 5 2 10 6 14 12 4 7 8 16 11 29s6 30 9 51l5 5c1-16 4-30 8-41s8-20 12-28c5-8 9-15 12-22 3-6 5-12 5-19 0-21-21-31-63-31h-48c-17 0-32 8-45 24-13 17-19 37-19 60v311h-59l-21-14V309c0-46-2-85-6-116-3-31-10-58-20-81-9-23-22-43-39-60s-38-34-65-52l-3 3c17 21 32 41 43 60 11 20 20 43 26 68 7 26 11 57 13 92 3 35 4 79 4 132v135M47 251h115v438H68l-21-14V251m287 527c12 0 24-3 36-10 13-7 27-16 42-27l-31-20V558l14 19c13-5 24-13 33-22s15-16 18-21h-65V371l46 19v-12l-46-36V50c0-11-5-22-15-32-9-10-20-15-31-15 0 6-6 18-17 35s-26 35-47 52l6 6c12-11 22-18 30-22 8-3 14-5 19-5s8 2 8 5v232l-57-44c-1 1-5 6-12 13-7 8-14 25-21 51l17-5 73 30v183h-39l-18-5-12 16h69v233m133-181-17-5-12 17h241l30 40c17-7 31-16 42-27s18-19 22-25H467m103 189c29-29 48-53 59-70s16-30 16-41c0-6-2-12-5-17s-6-9-11-12c-4-3-8-6-13-8s-8-3-11-3c-9 0-14 5-14 15 0 3 1 7 2 11s2 9 2 14c0 13-3 30-9 49s-13 40-22 61l6 1Z"/></symbol><symbol id="𫩾_U" viewBox="0 0 1000 1000" data-size="23"><path transform="matrix(1 0 0 -1 100 899)" d="m496 513-6-2c-1-63-4-118-8-163s-10-84-18-119c-8-34-19-65-32-94-13-28-30-57-49-86l-2 3c9 25 16 49 22 72 7 23 12 48 17 74s9 54 12 84c3 31 6 65 7 103 2 39 3 82 4 131s1 104 1 167c9 0 19-2 28-7 10-5 21-11 32-19 36 13 69 31 98 52 29 22 52 47 67 75 12-5 23-11 34-20s19-18 24-27h-23c-17-19-43-36-77-51-34-14-72-26-114-35l8-6-30-20v-52c0-17 0-33-1-48h157l31 40c11-7 22-18 32-31 11-13 18-28 22-43l-28-17c-10-46-23-89-38-128s-33-76-52-112c27-48 56-89 87-122s64-54 99-63v-6c-13-3-25-8-36-15-10-6-20-14-29-24-25 22-50 50-74 83-23 33-45 72-65 116-25-42-53-79-82-111-29-31-59-57-90-78l-3 3c28 25 55 56 82 95s51 85 73 137c-15 38-28 78-40 121-11 43-21 90-28 140l5 3h-17M0 683c11 0 23-3 34-9 11-5 24-13 37-23h57l32 41c11-4 22-10 32-18 11-7 18-15 22-23l-29-29V195c-15-16-31-24-46-24v42H47v-18c-15-16-31-24-47-24v512m306 115c11 0 23-3 35-10 13-7 27-16 42-27l-30-20V571l17 23c15-6 26-14 35-24 9-9 16-17 19-23h-71V376l51 22v-12l-51-39V47c0-12-5-23-16-33-10-9-21-14-32-14 0 6-6 18-18 35s-29 35-50 52l6 5c13-11 24-18 33-22 9-3 15-5 20-5 7 0 10 2 10 5v242l-63-47c-1 1-5 6-12 13s-14 24-21 50l16-5 80 33v191h-46l-17-4-12 16h75v239M47 225h92v415H70l-23-15V225m466 288c9-42 20-82 33-121s27-75 44-110c13 35 25 71 35 109 11 39 20 79 27 122H513Z"/></symbol><symbol id="𫩿_U" viewBox="0 0 1000 1000" data-size="23"><path transform="matrix(1 0 0 -1 101 901)" d="M0 720c11 0 21-3 32-9 11-5 24-13 37-22h82l31 40c11-3 22-9 32-17 11-7 18-15 23-24l-29-29V197c-15-15-31-23-47-23v42H47v-19c-17-15-32-23-47-23v546m47-492h114v449H68l-21-14V228m293 144c0 1 5 2 14 3 10 1 21 2 33 2 21 0 42-3 63-10 21-6 37-14 48-23l3 11v-13c5-5 9-11 12-16 12-33 28-65 47-96 20-31 42-58 67-83s52-45 81-62 60-28 91-33c-13-5-25-11-35-18s-20-16-29-27c-48 21-92 51-133 90-40 39-74 85-102 139-11-27-26-53-45-78-19-24-40-46-64-66-23-20-49-38-76-54-27-15-54-28-82-38l-3 3c50 25 97 62 140 111 44 49 80 107 108 174-2 5-4 11-6 16s-4 11-5 16c-3 11-12 20-26 26-13 7-28 12-43 15s-28 6-40 7-18 3-18 4m-12 429c12 0 24-3 36-10 13-7 27-16 42-28l-31-20v-64l24 32c17-7 30-16 40-27 11-11 18-19 22-24h-86v-73l63 4v-12l-63-20V441c0-11-5-22-16-32-10-10-21-15-33-15 0 6-6 14-19 24-12 10-30 19-53 28l6 6c12-4 22-6 31-6 13 0 22 2 28 7s9 9 9 12v79l-74-23c-1 1-5 6-12 13s-14 24-21 50l16-4h91v80h-57l-17-5-12 16h86v130m133-78-17-4-12 16h258l31 40c17-7 30-16 41-27s18-19 22-25H634V441c0-11-6-22-17-32s-23-15-36-15c0 6-7 15-22 28-14 13-35 25-63 36l5 6c10-5 19-8 28-10 9-1 16-2 23-2 11 0 20 1 26 4 7 3 10 6 10 9v258H461Z"/></symbol><symbol id="𫪀_G" viewBox="0 0 1000 1000" data-size="21"><path transform="matrix(1 0 0 -1 25 949)" d="M730 844c0 13-7 27-23 43l8 11 86-39 8-4c2-2 1-5-4-7-11-3-20-8-28-16V684h55l27 43 71-47c8-6 10-9 8-12 0-3-6-4-16-4H777V207c-2-29-9-48-19-59-11-10-33-19-67-27-5 18-15 31-31 39-15 8-44 18-86 31l4 16 43-8c81-23 117-9 109 43v422H551c-16 0-30-4-43-12l-31 32h253v160M305 0l-47 47c41 31 78 55 109 70 11 8 20 13 28 16v328h-59c-10 0-22-4-35-12l-31 31h113l31 40 51-47c5-6 6-8 4-8 0-3-3-5-8-8l-20-8V125c6-3 12-7 20-12 8-8 13-13 16-15l3-4c37-16 76-28 118-35 28-8 62-12 101-12 37-3 120 0 250 8V39c-28-5-47-9-54-12-8-5-13-13-16-23-128-3-214 0-258 8-44 10-79 23-105 39-34 15-59 30-75 43-13 15-27 17-43 4-15-8-32-20-50-35-16-16-30-37-43-63m218 555 12 11c42-33 68-65 78-93 11-21 16-45 16-71 0-28-9-45-27-50-19 0-25 14-20 43 0 20-1 43-4 66-5 23-23 55-55 94M301 859c73-39 117-76 133-113 15-39 9-61-20-66-10 0-17 9-19 27-3 21-12 43-28 66-13 24-38 49-74 75l8 11M12 805l35-35h137l39 39 47-47c2-3 3-5 3-8s-3-5-11-8l-16-8V379l4-113c3-19-13-30-47-36v86H63v-74c2-23-15-38-51-43 2 11 4 31 4 63 2 23 4 43 4 58v434c-6 18-12 31-20 39l12 12m51-469h140v414H63V336Z"/></symbol><symbol id="𫪁_G" viewBox="0 0 1000 1000" data-size="21"><path transform="matrix(1 0 0 -1 37 977)" d="m16 879 39-47h125l35 39 51-47c5-5 6-9 4-11 0-3-4-4-12-4l-16-12V418l4-98c0-15-4-26-12-31-7-8-20-12-39-12v82H63v-74c0-15-4-26-12-31-8-8-21-13-39-16 2 11 4 33 4 67 2 26 4 47 4 62v457c-6 16-12 30-20 43l16 12m179-66H63V379h132v434m328 140 90-43c5-2 8-5 8-8l-4-4c-13-5-22-11-27-19V762h160l39 51 78-55c5-5 8-9 8-12-3-3-9-4-20-4H590V473h215l39 50 74-58c5-3 8-5 8-8-3-3-9-4-20-4H617c21-55 41-96 59-125 10-18 27-40 51-66 2-3 3-5 3-8 13-18 29-37 47-55 16-15 36-31 59-47 21-10 43-19 66-27v-8c-23 3-40 3-50 0-13 0-24-6-32-19-41 28-74 60-97 93-26 34-51 71-75 110-20 39-39 90-54 152h-4V47c0-16-4-26-12-31-2 0-8-3-15-8-11-3-19-5-24-8 3 10 4 40 4 90 3 36 4 66 4 90v254c-31-55-59-98-82-129-26-37-57-75-94-114-39-36-91-76-156-121l-8 16c63 52 111 98 145 137 31 39 58 76 82 113 20 31 43 70 66 117H352c-16 0-30-4-43-12l-32 32h270v269H371c-18 0-34-4-47-12l-31 32h254v133c0 13-11 28-31 46l7 12m219-238 74-47c11-8 12-13 4-16-10 0-22-2-35-7-36-55-73-107-109-157l-20 4c16 29 35 64 59 106 2 7 5 14 8 19 15 31 23 51 23 59s-4 18-12 31l8 8m-418-24 4 12c34-23 63-47 86-70 21-24 35-48 43-74 8-29 4-47-12-55-15-8-26 1-31 27-5 32-16 59-31 82-5 11-15 24-28 39-13 19-23 32-31 39Z"/></symbol><symbol id="𫪂_G" viewBox="0 0 1000 1000" data-size="21"><path transform="matrix(1 0 0 -1 35 953)" d="M305 859h496l35 47 70-51c5-5 8-9 8-11-3-3-9-4-19-4H691V578h133l31 51 67-59c8-2 10-5 8-7 0-3-6-4-16-4H375c0-188-10-314-31-379-18-65-67-125-145-180l-8 12c66 65 105 129 118 191 18 63 26 182 23 360-3 15-10 29-23 42l11 12 47-39h133v262H379c-18 0-33-4-43-12l-31 31m343-19H539V578h109v262m153-39 62-39c11-5 16-11 16-16 0-3-5-4-16-4-2 3-8 1-15-4 7 5 6 4-4-4-37-57-72-105-106-144l-11 8 39 82c23 44 35 71 35 82 0 8-3 18-8 31l8 8m-481-28 8 8c57-28 93-61 106-97 18-42 14-66-12-71-11-2-18 7-24 28-2 23-10 45-23 66s-31 43-55 66M16 852l39-47h129l31 43 47-51c5-5 6-8 4-8 0-3-3-5-8-8l-20-8V422l4-109c5-27-9-41-43-43v93H59V262c2-24-13-38-47-43 2 10 4 36 4 78 2 31 4 57 4 78v426c-6 15-12 28-20 39l16 12m43-469h140v402H59V383Z"/></symbol><symbol id="𫪃_G" viewBox="0 0 1000 1000" data-size="21"><path transform="matrix(1 0 0 -1 31 953)" d="M891 637V74c2-36-20-58-67-66-2 15-9 26-19 31-13 5-35 12-67 20v15c39-10 65-15 78-15s21 2 24 7c8 6 10 26 8 63v519H688V47c0-26-16-40-47-43v35c2 55 4 102 4 141v476c0 16-7 32-20 47l12 8 43-43h152l31 43 47-43 8-8c0-2-3-6-8-12l-19-11m-340 0V86c5-31-16-53-63-66-2 26-32 43-90 50v16c40-5 66-9 79-12 13 0 20 3 23 8 8 5 10 26 8 63v503H355V43c0-26-15-40-46-43v35c2 55 4 102 4 141v480c0 16-7 33-20 51l12 8 43-47h144l31 43 47-43 8-8c0-2-2-6-8-12l-19-11M266 855h550l36 51 78-58c8-3 10-6 8-8 0-3-7-4-20-4H344c-16 0-31-4-47-12l-31 31m105-320 4 8c49-36 81-79 94-129 8-47 2-73-16-78-15-5-23 4-23 27 2 24 0 47-8 71-3 26-20 59-51 101m336 4 4 8c49-37 81-80 94-129 8-47 2-73-16-78-16-5-23 4-23 27 2 24 0 47-8 71-3 26-20 59-51 101M12 836l39-39h129l35 39 47-47c5-5 6-8 4-8 0-2-4-5-12-8l-16-7V410l4-129c-2-21-18-31-47-31v70H63v-74c2-23-15-38-51-43 5 26 8 74 8 145v433c2 11-4 24-20 39l12 16m51-496h132v437H63V340Z"/></symbol><symbol id="𫪄_V" viewBox="0 0 1000 1000" data-size="20"><path transform="matrix(1 0 0 -1 58 986)" d="m509 879-1-459c-7-8-14-15-22-21-8-5-17-9-28-12l1 584 71-25c0-1-1-4-4-11-2-7-4-15-7-24s-5-16-7-23l-3-9m174-302c-21-27-46-54-73-79s-57-45-88-60l-9 12c17 13 34 29 53 49 19 21 37 42 54 64 17 23 31 43 41 60-17 39-31 78-43 115-11 38-20 78-25 121l-23-6-19 32h204l36 46 58-55-39-36c-12-39-25-76-39-113s-32-72-54-107c15-23 30-43 45-58s33-28 52-39 41-21 66-32l4-6c-15-3-28-9-41-18s-25-17-38-24c-23 14-46 34-69 59-23 26-40 51-53 75M377 795V482c-13-15-29-25-50-30v439l73-31c0-1-1-4-4-11-2-7-5-14-8-23-3-8-5-15-8-22l-3-9m380 68H606c11-35 22-69 34-104s27-68 46-99c18 31 33 64 44 98 11 35 20 70 27 105M229 478H52v-49c0-12-3-21-10-28-7-6-21-11-42-14v449l63-37h102l39 43 57-61-32-33V478M52 747V499h125v276H61c-1-1-2-6-5-15-3-8-4-12-4-13M873 14H379l-16-3c-10-3-20-5-31-7-10-2-16-3-17-4l-20 39h249v183H424c1 0-3-1-12-4l-27-6c-9-2-14-3-15-4l-25 40h199v167l76-34c0-1-2-7-6-18-3-11-7-21-11-32l-5-15v-68h104l46 48 69-73H598V39h159l48 44 68-69Z"/></symbol><symbol id="𫪅_G" viewBox="0 0 1000 1000" data-size="21"><path transform="matrix(1 0 0 -1 29 957)" d="m301 855 35-42h121l35 39 47-47c5-3 8-6 8-8 0-3-4-5-12-8l-19-8V301l7-133c0-18-16-30-50-35v62H344v-58c2-21-15-33-51-35 5 18 8 76 8 175v524c0 21-5 35-16 43l16 11m234-218h215v222c0 13-8 28-23 43l7 12 82-39c6-3 10-5 12-8l-4-4c-13-2-23-8-31-15V637h43l31 43 67-47c7-5 10-9 7-12 0-3-6-4-19-4H793V86c0-23-5-42-16-55-10-13-37-23-82-31 0 18-7 31-23 39s-44 17-86 27v20l43-12c86-23 126-10 121 39v504H613c-15 0-30-4-43-12l-35 32m-62-141H344V215h129v281m-129 20h129v277H344V516m203-20 12 12c54-39 92-85 113-137 13-42 6-66-20-74-13-3-19 8-19 31-5 24-12 50-20 78-13 32-35 61-66 90M16 828l31-27h125l35 35 43-43c3-3 4-7 4-12-3-2-7-4-12-4l-15-11V379l3-125c0-21-15-31-46-31v97H59v-82c2-23-13-37-47-43 0 13 1 41 4 82 2 21 4 37 4 47v457c-6 16-12 29-20 39l16 8m43-488h125v441H59V340Z"/></symbol><symbol id="𫪆_G" viewBox="0 0 1000 1000" data-size="21"><path transform="matrix(1 0 0 -1 35 973)" d="m551 945 86-35c10-2 13-5 8-8-6-2-13-6-24-11-3-3-5-6-8-8v-59h149l35 39 51-47c5-2 7-6 7-11-2-3-6-4-11-4l-20-12V598l4-78c0-13-4-24-12-32-7-2-19-6-35-11v43H406v-12c0-13-5-24-15-31-8-3-20-7-36-12v35c3 42 4 78 4 109v204c0 15-6 28-19 39l12 11 46-39h172v71c0 10-9 23-27 39l8 11m62-277V539h168v129H613m-207 0V539h164v129H406m375 137H613V684h168v121m-375 0V684h164v121H406M285 426h531l32 39 74-47c5-5 8-9 8-12-3-2-9-2-20 0H516l-43-121h269l31 39 55-43c5-2 4-6-4-11l-23-16c-5-42-12-81-20-117-10-34-22-59-35-74-16-24-35-40-58-47-24-11-49-16-75-16-2 13-11 25-27 35-10 3-26 8-47 16-23 8-40 14-51 19v12c39-8 77-16 114-23 28-6 54-4 78 4 23 7 41 28 54 62 13 44 21 91 24 141H484l-46-28-40 51c13 3 25 9 36 20l39 97H359c-15 0-30-5-43-15l-31 35M12 859l35-35h141l39 39 43-47c5-5 6-9 3-11 0-3-2-4-7-4l-20-12V438l4-129c0-21-14-32-43-32v71H59v-75c2-23-13-37-47-43 2 11 4 34 4 71 2 31 4 56 4 74v434c0 13-7 24-20 35l12 15m47-492h148v438H59V367Z"/></symbol><symbol id="𫪇_G" viewBox="0 0 1000 1000" data-size="21"><path transform="matrix(1 0 0 -1 37 959)" d="M332 242h231v196H379c-16 0-30-4-43-12l-31 31h472l32 39 66-51c10-5 9-7-4-7H605V242h161l31 39 66-51c11-5 9-7-4-7H605V31h215l32 39 66-47c5-2 8-5 8-7-3-3-7-4-12-4H328c-13 2-27-2-43-12l-35 31h313v192H410c-18 0-32-6-43-16l-35 35M12 816l39-35h133l39 35 47-43c7-7 5-14-8-19l-16-8V285c0-21-14-31-43-31v74H63v-90c2-23-15-37-51-43 5 24 8 72 8 145v426c2 13-4 24-20 35l12 15m51-468h140v414H63V348m484 570 78-31c8-3 10-7 8-12-11-3-20-8-28-16V613h176v164c5 13-4 29-27 47l12 12 82-35c10-3 13-7 7-12-13-5-23-12-31-19v-82l4-94c0-24-15-39-47-47v47H410l-35-43-47 39c16 15 25 30 27 43v176c3 15-3 30-19 43l8 7 78-35c10-2 13-6 8-11-13-6-24-12-32-20V613h165v254c0 13-8 28-24 43l8 8Z"/></symbol><symbol id="𫪈_U" viewBox="0 0 1000 1000" data-size="23"><path transform="matrix(1 0 0 -1 108 892)" d="M0 718c11 0 23-3 34-9 11-5 24-13 37-23h80l32 41c11-4 22-10 32-18 11-7 18-15 22-23l-29-29V195c-15-15-31-23-46-23v42H47v-19c-15-15-31-23-47-23v546m580-125c13-3 26-8 39-14 13-5 22-11 27-18l-26-17c-12-25-28-48-48-69s-43-41-68-59c-25-17-52-33-81-47-29-13-58-25-88-34l354 16c-11 16-25 33-41 52s-33 37-50 56l4 3c34-21 62-40 84-57s39-31 52-44 21-24 26-33 8-17 8-24c0-11-4-19-11-26s-12-10-17-10-8 1-11 4-6 8-9 14-6 13-10 22-10 20-17 32l-149-17V47c0-11-6-22-18-32-11-10-24-15-38-15 0 6-8 18-24 35s-39 35-70 52l6 6c19-11 35-18 48-22 14-3 25-5 34-5 11 0 16 2 16 5v247l-155-18-24-12-32 41c4 0 7 2 10 5 3 4 11 8 22 13 38 14 74 33 107 57 34 25 64 53 90 86l-144-23-24-12-33 41c5 0 9 2 14 5 5 4 12 8 19 13 23 13 44 33 64 60 21 27 37 59 48 96-32-6-65-11-98-16-33-4-68-8-104-11l-2 3c41 6 80 13 119 22s76 20 110 31c34 12 64 25 91 39 27 15 49 30 66 46 11-4 23-10 34-19s19-18 24-27h-23c-19-11-43-22-73-32-29-10-63-19-101-28 15-7 25-14 29-19l-26-17c-13-33-32-61-59-86-26-24-55-42-87-54l169 5c9 13 18 27 26 41 8 15 15 30 21 45M47 225h115v450H70l-23-15V225m326 34c13-3 26-8 38-14 13-5 22-11 27-18l-26-17c-15-44-39-82-72-113s-68-55-106-71l-3 3c30 20 58 50 84 89 26 40 45 87 58 141m212 7c39-26 72-49 97-70 26-20 46-38 61-53s26-27 31-38c6-11 9-20 9-27 0-10-4-18-11-25-7-6-12-9-16-9-10 0-19 11-28 32-4 10-11 22-20 36s-21 29-34 45c-13 17-28 34-44 52s-33 36-50 54l5 3Z"/></symbol><symbol id="𫪉_T" viewBox="0 0 1000 1000" data-size="21"><path transform="matrix(1 0 0 -1 40 930)" d="M548 820h250l34 37 41-26c8-6 14-11 16-15 2-3 3-6 3-9 0-5-2-9-6-13s-9-7-15-9c-4-3-10-5-17-8V450l25-16c8-6 11-11 11-17 0-2-1-4-2-6-2-3-4-4-7-4H544v-18c0-4-1-7-3-10-4-3-10-4-18-4-7 0-13 1-19 4-3 2-6 5-8 8-2 4-3 8-3 12l5 80v300c0 10-2 37-5 81l55-40m-4-385h264v357H544V435m40-120 43-17c18-7 29-12 34-16 6-4 9-9 9-13s-2-7-4-10c-4-3-12-6-23-7-15-1-23-2-24-2-15-29-27-53-38-71-23-38-49-73-79-105-16-17-33-33-51-49-6-6-16-14-30-25l-11 15c19 20 34 36 45 49 37 47 68 98 93 153 11 26 23 58 36 98m139-9c21-19 40-37 57-54 50-51 86-92 106-122 13-19 22-38 29-57 3-11 4-21 4-31 0-11-3-21-9-29-5-5-10-7-17-7s-13 2-18 8c-6 5-11 16-16 32-9 28-17 50-24 66-9 22-22 44-39 68-18 28-36 53-52 73-7 10-19 23-34 39l13 14m-600 39 52-18c12-5 20-8 25-11 4-2 7-5 8-9 1-2 1-4 1-5 0-4-1-7-5-10-6-3-15-6-26-7l-17-2c-10-31-19-56-26-74-15-38-37-79-65-123-10-16-20-29-29-41-6-7-15-17-26-30L0 28c18 26 32 50 42 71 19 39 34 72 44 101 10 28 19 61 28 100 1 6 4 21 9 45m136-13c20-22 35-40 46-53 28-37 53-74 74-110 14-23 23-43 28-58 4-14 6-26 6-36 0-12-3-22-8-28-3-3-6-5-10-7s-8-3-12-3c-8 0-14 3-18 11-2 5-4 9-5 14l-5 27c-1 7-5 21-11 42-3 10-7 21-11 31-6 12-15 31-28 59-10 21-20 39-30 55-6 10-15 25-28 44l12 12M101 820h226l33 37 41-26c9-6 15-11 16-15 2-3 3-6 3-9 0-6-2-10-5-13-4-4-9-7-16-9-4-3-10-5-16-8V450l25-16c7-6 10-11 10-17 0-2 0-4-2-6-2-3-4-4-6-4H97v-18c0-4-1-7-4-10s-9-4-17-4c-7 0-13 1-19 4-7 4-11 11-11 20l4 80v300c0 10-1 37-5 81l56-40m-4-385h239v357H97V435Z"/></symbol><symbol id="𫪊_G" viewBox="0 0 1000 1000" data-size="21"><path transform="matrix(1 0 0 -1 45 965)" d="M910 70V55c-39 2-61-8-66-32-242 3-405 30-489 82C301 66 185 31 8 0L0 16c148 36 254 74 316 113-31 18-63 53-97 105l15 16c34-49 72-85 114-105 41 31 67 70 78 117H180v-16c0-13-4-23-12-31-16-8-29-12-39-12 3 11 4 40 4 90 2 34 4 62 4 86v31c-5 16-12 30-20 43l16 12 39-43h269v43c0 15-9 28-27 39l8 12 90-20c8-8 8-13 0-16-16-2-25-10-28-23v-35h243l35 39 51-47c7-8 5-14-8-19l-16-8v-8l4-109c0-16-4-27-12-32-8-8-21-11-39-11v35H473c-16-63-43-107-82-133 106-47 280-66 519-59m0 481v-12c-36-3-58-14-66-35-242-5-403 10-481 47-65-34-173-60-324-78l-8 15c149 29 246 56 293 82-34 19-65 47-94 86l16 12c29-34 64-61 106-82 36 18 62 51 78 98H184v-12c0-16-4-26-12-31-8-8-21-13-39-16 2 10 4 40 4 90 2 36 4 66 4 90v11c-6 16-12 30-20 43l16 12 39-43h269v51c0 18-9 31-27 39l8 12 90-16c2-3 5-5 7-8-2-2-5-4-7-4-16-2-25-10-28-23v-51h242l36 39 50-47c8-7 6-14-7-19l-16-8v-8l4-109c0-16-4-26-12-31-8-8-21-12-39-12v51H473c-11-47-37-85-78-114 83-26 255-32 515-19M742 402H484c0-47-2-88-7-125h265v125m-562 0V277h250c8 37 11 78 11 125H180m566 407H488c0-39-4-76-11-110h269v110m-562 0V699h250c2 16 5 41 7 74 3 16 4 28 4 36H184Z"/></symbol><symbol id="𫪋_G" viewBox="0 0 1000 1000" data-size="21"><path transform="matrix(1 0 0 -1 50 967)" d="m125 336 35-35h567l35 43 51-51c2-3 3-5 3-8 0-2-3-5-11-8l-16-7V117l4-58c3-26-14-41-51-43v58H172V47c0-24-18-39-55-47 5 26 8 66 8 121v176c-3 16-7 25-12 27l12 12m363 289 4-16-187-46V430c-3-21-9-38-20-51-8-11-34-22-78-35-3 23-12 38-27 43-16 8-45 18-86 31l4 16 43-12c83-26 123-12 121 43v86l-12-4c-102-24-159-38-172-43s-23-16-31-31L0 531l262 51v113H117c-15 0-30-5-43-15l-35 35h223v117c-16-5-30-8-43-8-39-8-98-15-176-23l-4 15c96 16 156 28 180 36 23 7 49 15 78 23 5 0 12 1 19 4 47 10 67 25 59 43l12 4 54-47c6-5 8-11 8-16 0-2-2-4-8-4-23 8-45 8-66 0-5-2-13-5-23-7-11-3-26-7-47-12V715h226c-5 21-8 42-8 62-5 37-7 72-7 106 0 15-7 28-20 39l4 12 86-36c5-2 8-5 8-7 2-3 1-4-4-4-11-3-20-7-27-12-8 0-7-42 3-125 0-5 2-12 4-20v-15h223l27 43 71-51c7-5 10-9 7-12 0-2-6-2-19 0H574c13-65 30-119 51-164 39 37 69 72 90 106 2 8 0 17-8 27l12 4 66-47c11-3 13-6 8-12-21 0-38-5-51-15-34-39-65-72-94-98 34-47 67-75 98-86 13-2 22 4 27 20 0 2 3 13 8 31 8 36 16 69 24 98l15-4c-7-42-13-80-15-114 0-33 2-56 8-66 10-13 14-22 11-27-2-6-10-7-23-4-26-3-65 14-117 51-26 23-50 48-71 74-67-55-159-99-273-133l-8 16c104 39 191 88 262 148-26 39-47 104-63 195H305V590l183 35M172 281V94h570v187H172m453 610 8 11c68-20 108-47 121-78 5-26-3-40-24-43-7 0-14 8-19 24-8 15-16 30-23 43-11 15-32 30-63 43Z"/></symbol><symbol id="𫪌_U" viewBox="0 0 1000 1000" data-size="23"><path transform="matrix(1 0 0 -1 110 892)" d="M0 697c11 0 22-3 33-9 11-5 24-13 37-23h75l31 41c11-4 22-10 32-18 11-7 18-15 22-23l-28-29V162c-15-15-31-23-47-23v42H46v-19c-15-15-31-23-46-23v558m466-138c11 0 22-3 33-9 11-5 23-13 36-23h53l32 41c11-4 22-10 32-18 10-7 17-15 22-24l-29-28V153c0-15 2-28 5-39 3-10 7-15 12-15h25c7 0 12 1 17 3 5 3 10 8 14 15 4 8 7 19 10 34s6 34 9 59l5 5c1-19 4-34 8-47s8-24 12-33c5-9 9-18 12-25s5-14 5-22c0-21-21-31-63-31h-54c-17 0-32 9-45 28-12 19-18 41-18 68v362h-65l-21-14V354c0-53-2-97-6-133-3-35-10-66-20-92-9-26-22-49-39-69-17-19-38-39-65-60l-3 2c17 23 32 46 43 68 11 23 20 49 26 78 7 29 11 64 13 104 3 40 4 90 4 149v158M46 193h109v461H70l-24-15V193m396 570c1-9 3-18 4-27s3-17 4-25h217l31 41c21-19 35-34 40-45 6-11 9-21 9-30-7-1-14-6-20-17s-12-23-17-36-11-25-16-36-9-18-14-21l-6-6v139H451c1-13 2-25 3-36s1-21 1-30c0-19-1-34-4-45s-6-19-11-25c-4-6-9-10-15-12-5-2-11-3-17-3-15 0-23 6-23 17 0 6 3 14 9 23 5 7 9 16 13 28 5 12 9 26 12 41 4 15 7 32 10 50s5 37 7 56l6-1m-96-346v-11L283 55c-4-2-8-3-13-3-9 0-18 4-27 13s-17 26-24 51l17-9 110 310m-60 368c33-35 55-64 67-85 13-21 19-37 19-49 0-7-2-12-5-17s-6-9-11-12c-4-3-8-6-13-8-4-1-7-2-10-2-9 0-14 6-14 18 0 3 0 7 1 10s1 7 1 10c0 15-4 35-12 59-7 24-17 49-28 74l5 2m-45-218c29-32 49-58 60-77s16-35 16-46c0-13-5-23-16-30-10-7-18-10-24-10-10 0-15 5-15 16 0 3 1 7 2 12s2 10 2 16c0 14-3 31-9 52-5 21-12 42-21 65l5 2Z"/></symbol><symbol id="𫪍_U" viewBox="0 0 1000 1000" data-size="23"><path transform="matrix(1 0 0 -1 102 890)" d="M0 715c11 0 23-3 34-9 11-5 24-13 37-23h69l31 41c11-4 22-10 32-18 11-7 18-15 23-24l-29-28V227c-15-16-31-24-47-24v42H47v-18c-15-16-31-24-47-24v512m490-35c11 0 23-3 35-10 13-7 27-16 42-27l-30-20V234c0-27 1-52 3-75s5-44 8-61c4-17 8-31 13-41s11-15 16-15h65c7 0 12 5 17 14s10 26 14 50c4 25 7 58 10 99 3 42 6 96 9 161l5 6c1-49 4-90 8-124 4-33 8-63 12-88 5-25 9-48 12-68s5-40 5-61-21-31-63-31h-94c-12 0-23 6-34 18-11 13-20 29-28 50-7 21-13 46-18 75s-7 59-7 91v446M47 257h103v414H69l-22-14V257m393 375c6-61 10-115 12-160 3-45 4-84 4-117 0-41-2-73-5-96s-7-40-12-52c-5-11-10-18-16-21-5-3-11-4-17-4-13 0-20 8-20 25 0 5 1 12 2 20s4 17 7 28c5 16 9 37 13 63 5 27 8 57 11 90s6 69 9 107c3 39 5 78 7 117h5m278 34c29-96 50-172 61-228 11-55 17-97 17-124 0-16-2-28-5-37s-6-15-10-19-8-6-13-7c-4-1-7-1-9-1-13 0-20 13-20 39 0 9 1 18 2 29s2 25 2 40c0 37-3 82-9 137-5 55-12 111-21 170l5 1M586 781c29-93 49-167 60-221 12-53 18-93 18-119 0-13-1-24-4-32-3-7-6-13-10-17-3-4-7-7-12-8-4-1-8-1-11-1-7 0-12 3-15 8s-5 15-5 28c0 7 1 16 2 26 1 11 2 24 2 39 0 35-3 79-9 132s-13 108-22 165h6M352 389v-11L289 4c-4-2-8-3-13-3-8 0-17 4-26 13s-17 26-24 51l16-9 110 333m-58 391c33-39 55-69 67-92 12-22 18-39 18-52s-5-24-15-31-18-10-24-10c-10 0-15 6-15 18 0 3 0 7 1 10 1 4 2 8 2 13 0 17-4 38-12 63-7 25-17 52-28 80l6 1m-45-230c28-36 47-65 58-86s17-37 17-49c0-7-2-13-5-18s-7-9-12-12c-4-3-9-5-14-7-5-1-8-2-11-2-9 0-13 5-13 15 0 4 1 8 2 13s2 11 2 18c0 15-3 34-9 57-5 23-12 47-21 70l6 1Z"/></symbol><symbol id="𫪎_V" viewBox="0 0 1000 1000" data-size="20"><path transform="matrix(1 0 0 -1 44 999)" d="M383 748V37c0-7-3-13-10-18-6-5-13-9-21-12s-15-5-20-7v998l71-41c-1-1-2-5-4-12s-4-16-7-25c-2-9-4-17-6-24l-3-10V760c13-8 28-19 43-32 16-13 30-27 41-43s17-33 17-50c0-9-2-20-6-32-4-11-12-17-25-17-4 0-8 3-11 9s-5 13-7 20c-1 7-2 12-3 15-5 24-12 44-19 61s-17 36-30 57m285-310h-27c-5-39-13-79-25-122-12-42-28-83-48-124s-44-77-73-110c-28-33-61-58-98-77l-4 3c5 7 11 14 17 21 7 6 13 12 19 18 12 12 23 25 32 38s18 27 27 40c30 47 53 98 69 151 17 53 28 107 35 162h-67l-15-4c-9-2-19-4-29-7-10-2-16-3-17-4l-21 37h152c5 49 9 99 11 149l6 150h-33c-9 0-19-2-31-5-11-3-21-6-30-7l-26 36h120v214l71-45c0-1-1-5-4-12s-6-15-9-24-5-16-8-23l-3-10V783h65l35 40 49-48-34-37V460h2l34 45 47-67H687c5-33 13-68 24-105s25-72 42-107c17-34 39-64 65-89s57-43 94-53v-3c-9-4-20-8-33-12-13-5-26-10-38-16-11-7-19-15-23-25-22 25-41 55-58 89-17 33-31 68-44 105-12 37-22 75-30 112s-14 72-18 104M218 613H52v-48c0-13-3-24-10-32-7-7-21-13-42-16v428l61-39h90l38 45 63-64-34-35V613M52 844V637h113v246H61c0-1-1-4-3-11-1-6-3-12-4-18s-2-9-2-10m674-85h-66c0-49-2-99-5-150-3-50-7-100-12-149h83v299M299 590c0-8-1-19-2-32s-4-25-7-38-9-23-16-32-17-13-29-13c-9 0-14 3-16 10-1 7-2 14-2 21s2 14 5 21c3 8 6 15 9 20 16 29 27 55 32 78 6 23 9 51 9 84l4 4c1-21 4-41 7-62 4-20 6-40 6-61Z"/></symbol><symbol id="𫪏_V" viewBox="0 0 1000 1000" data-size="20"><path transform="matrix(1 0 0 -1 51 994)" d="M523 54c-7-5-17-12-28-19s-23-14-35-20c-12-7-23-11-32-12 61 47 110 99 148 154 38 56 67 115 88 178s36 129 45 198 15 139 18 212h-47c-1-50-5-102-14-156-9-53-22-106-41-158-18-51-42-99-72-143-29-44-65-81-108-112-6 1-12 0-17-4 71 83 122 172 155 267 33 96 49 198 49 306h-32c-11-40-23-78-38-114-14-36-34-71-59-104l-9 4c24 74 45 149 64 225s29 153 30 232l62-24c-8-17-15-38-20-61s-9-46-13-70c-4-23-8-45-13-65h203l31 45 59-51-31-41c-1-39-2-85-3-137s-2-106-5-161c-2-55-6-107-11-158-5-50-13-93-22-129-14-55-47-91-100-109 0 30-10 53-30 68-19 15-42 27-67 36l1 12c13-5 29-10 47-16 19-7 35-10 49-10 15 0 27 4 34 12 8 7 15 17 21 30 7 14 12 35 17 64s8 63 11 100 6 76 7 117c2 41 3 82 4 121s2 75 2 107c1 32 1 58 1 77h-51c-3-67-8-132-14-194-5-61-16-121-33-180-17-58-43-117-80-176-17-27-35-52-55-75-20-24-42-46-66-66M347 20c-7-13-18-20-31-20-8 0-15 3-20 8s-7 11-7 19c0 21 2 42 5 63 3 20 5 40 5 61 0 25-7 48-20 69s-26 40-41 59c3-1 5-1 8-1h8c21 0 38 8 50 25 4 5 9 17 16 34 7 18 15 39 23 63s16 48 23 73c8 25 15 47 20 67s9 34 11 43l96 404 15-3-45-228c-15-76-31-152-48-227-9-40-18-80-28-121-10-40-18-80-24-120-2-13-4-26-5-40-1-13-2-27-3-40-3-31-6-62-7-93-1-32-1-64-1-95M214 611H50c0-19 0-36 1-49s-2-24-9-32c-6-7-20-13-42-16v429l60-39h91l36 45 58-64-31-34V611m178 176c0-7-2-16-6-28s-10-18-19-18c-6 0-11 3-16 9s-8 11-9 16c-7 25-15 47-24 65-9 19-24 37-45 54l9 9c5-1 10-2 14-5 5-2 9-4 14-6 23-10 42-22 58-35s24-34 24-61M60 878l-10-9V634h113v244H60m298-338c0-5-1-12-3-21-1-8-4-15-9-22-4-7-10-10-17-10s-11 3-14 10c-2 4-4 8-6 13-1 5-3 9-4 14-9 25-16 47-23 66-6 19-18 38-35 59l7 10c16-8 32-17 48-28s29-23 40-38 16-32 16-53Z"/></symbol><symbol id="𫪐_G" viewBox="0 0 1000 1000" data-size="21"><path transform="matrix(1 0 0 -1 50 945)" d="m340 891 43-47h387l35 43 50-51c3-3 4-5 4-8 0-2-4-5-11-8l-16-7V695l4-50c3-27-13-41-47-43v58H391v-19c0-39-2-78-4-118h422l35 40 51-47c5-6 6-9 3-12 0-3-2-4-7-4l-24-16V332c0-96-5-163-15-199-8-34-24-61-47-82-24-24-56-37-98-39-5 8-12 17-19 27-19 16-54 29-106 39v12c31-8 72-14 121-20h12c52-2 84 22 98 75 7 28 11 97 11 207v152H387c-5-120-16-207-32-262-26-86-83-166-171-242l-12 12c88 93 141 186 156 277 16 94 22 204 20 332v215c0 16-6 30-16 43l8 12M16 875l39-47h133l35 39 50-47c6-5 7-9 4-11 0-3-4-4-11-4l-16-12V422l4-109c5-27-12-41-51-43v109H63v-82c2-24-15-39-51-47 2 10 4 33 4 66 2 29 4 51 4 67v437c-6 16-12 30-20 43l16 12m375-195h398v144H391V680M63 398h140v411H63V398m378 20 36-35h187l24 31 50-39c5-5 7-8 4-8 0-2-2-5-8-8l-19-7V227l4-39c0-16-12-28-35-36h-4v39H488v-19c0-24-14-37-43-39v35c3 21 4 38 4 51v148c0 16-6 29-19 39l11 12m47-211h192v160H488V207Z"/></symbol><symbol id="𫪑_G" viewBox="0 0 1000 1000" data-size="21"><path transform="matrix(1 0 0 -1 34 945)" d="m12 848 35-47h105l32 35 43-43c5-5 6-8 3-8 0-2-2-5-7-8l-16-7V387l4-110c3-26-12-40-43-43v90H55V223c2-21-13-35-47-43 2 10 4 36 4 78 2 31 4 57 4 78v461c-3 16-8 29-16 39l12 12m457-39c-31-42-63-86-94-133l39-20c5-2 9-5 12-8l-4-3c-11-3-20-8-27-16V500l117 63 8-16-125-74V94c2-45-30-73-98-86-3 21-11 35-24 43-5 0-14 2-27 8-18 7-35 14-51 19l8 16 35-12c81-21 119-8 114 39v328l-67-43c-13-8-23-19-31-35l-43 39 141 74v157c-3 18-11 32-24 43l8 11 23-11c6 10 15 26 28 46 10 21 30 59 58 114H262c-11 0-21-4-32-12l-27 31h238l28 28 51-47c2-8 0-12-8-12-21 0-35-8-43-23M55 344h113v437H55V344m605 336 67-28c7-2 11-5 11-7 3-3 2-6-4-8-7-3-15-7-23-12V496c0-161-26-273-78-336C581 92 505 39 406 0l-8 12c86 44 157 103 211 176 42 59 63 179 63 359v90c0 13-7 23-20 31l8 12M535 871l39-43h227l35 39 47-43c8-5 8-10 0-15l-24-12V434l4-129c0-24-15-38-47-43l4 172v375H578V383l4-94c0-23-17-39-51-47 3 11 4 42 4 94 3 36 4 66 4 90v398c-3 18-8 31-16 39l12 8m188-633 7 12c99-49 162-99 188-148 23-53 18-84-16-94-10 0-18 13-23 39-3 23-17 52-43 86-23 39-61 74-113 105Z"/></symbol><symbol id="𫪒_U" viewBox="0 0 1000 1000" data-size="23"><path transform="matrix(1 0 0 -1 101 902)" d="M0 733c10 0 20-3 31-8s23-13 36-22h72l31 39c11-3 22-9 32-17 10-7 17-15 21-23l-28-28V200c-15-15-31-23-46-23v42H45v-19c-15-15-30-23-45-23v556m535-215h-18c-1-63-4-118-8-163-3-45-9-84-17-119-7-35-17-66-30-94-12-28-27-57-45-87l-3 3c12 37 22 73 29 108 8 35 14 76 18 122s7 101 8 164c2 63 3 142 3 235 9 0 19-2 28-7 9-4 19-10 30-17 33 13 62 31 89 52s47 46 60 74c11-5 22-11 33-20 11-8 19-17 24-26h-22c-16-19-40-36-71-51s-66-27-104-36c1-1 3-2 4-3 1 0 3-1 4-2l-29-20v-53c0-17 0-33-1-48h141l30 40c11-7 22-18 32-31s17-27 21-42l-27-16c-9-46-21-90-36-131s-31-79-49-115c24-48 50-88 78-120 29-31 59-52 91-61v-6c-13-3-25-8-35-15-9-6-19-14-28-23-23 21-45 48-66 80-21 33-40 70-57 113-47-81-99-142-154-183l-3 3c51 49 97 125 138 228-13 38-26 79-37 122-11 44-20 91-27 142l6 3M316 803c11 0 23-3 35-10s26-16 41-27l-30-20V570l25 34c16-7 29-16 40-27s18-19 22-24h-87v-68c31-38 53-68 64-91 11-22 17-39 17-52 0-7-1-12-4-17s-6-9-10-12c-3-3-7-5-11-7-4-1-7-2-10-2-6 0-10 3-12 9s-4 15-6 26-5 25-9 42c-3 17-10 36-19 58V23C347 8 331 0 316 0v381c-12-56-26-104-43-145-17-40-34-72-52-95l-2 3c17 36 32 89 47 158 15 70 26 154 33 251h-40l-18-5-11 16h86v239M45 230h104v461H66l-21-14V230m490 288c16-85 40-163 71-232 12 35 23 71 32 109 10 38 18 79 25 123H535Z"/></symbol><symbol id="𫪓_U" viewBox="0 0 1000 1000" data-size="23"><path transform="matrix(1 0 0 -1 94 915)" d="M242 568c11 0 21-3 32-9 11-5 23-13 36-22h48c28 23 53 54 76 95s40 90 51 147H311l-17-5-12 16h381l29 40c17-7 30-16 40-27 11-11 18-19 22-24H537c-15-57-38-105-69-146-30-41-63-73-99-96h358l31 40c11-4 22-10 32-17s17-15 21-24l-28-28V23C768 8 752 0 737 0v41H288V23C273 8 257 0 242 0v568m46-515h449v472H308l-20-13V53M0 741c11 0 21-3 32-9 11-5 23-13 36-22h72l31 40c11-4 21-10 31-17s17-15 22-24l-28-28V231c-15-15-31-23-46-23v41H46v-18c-15-15-31-23-46-23v533m346-300c11 0 21-3 31-9 11-5 23-13 36-22h193l31 40c11-3 22-9 32-17 10-7 17-15 21-24l-28-27V167c-15-15-30-23-45-23v41H392v-18c-15-15-31-23-46-23v297M46 261h104v437H67l-21-14V261m346-64h225v202H413l-21-14V197Z"/></symbol><symbol id="𫪔_G" viewBox="0 0 1000 1000" data-size="21"><path transform="matrix(1 0 0 -1 16 973)" d="M695 160v664H500c-8-73-18-139-31-199h125l27 35 51-43c5-2 8-5 8-8 0-2-3-4-8-4-8 0-16-3-24-11C620 289 504 91 301 0l-8 12c185 117 288 315 309 593H461c-13-54-27-101-43-140 57-34 90-73 98-117 5-26 1-41-12-43-16-8-25-2-27 19-6 42-28 82-67 121-15-34-32-69-51-105l-15 12c60 125 97 282 113 472h-78c-16 0-30-5-43-15l-31 35h523l39 47 71-55c7-5 10-9 7-12 0-2-5-2-15 0H734V449c76 65 128 121 157 168 0 8-2 16-4 24l8 4 62-51 8-4c0-3-3-5-8-8-21 0-33-1-35-4-47-49-109-103-188-160V160c-2-52 13-78 47-78 24-5 50-6 78-4 34 8 51 21 51 39 8 26 12 77 12 153h16l3-110c0-28 10-48 28-58-13-32-38-50-74-55-40-8-76-9-110-4-68 0-97 39-90 117M148 945l79-35c7-2 10-6 7-12-13 0-23-5-31-15V684h82l31 43 59-47c5-6 8-9 8-12-3-3-9-4-20-4H203V445h67l27 35 47-42c5-3 6-6 4-8 0-3-3-6-8-8l-16-8V211l4-102c3-26-13-40-47-43v82H86V82c0-26-17-40-51-43 5 24 8 72 8 145v254c-3 15-8 29-16 42l12 12 39-47h86v219H66c-15 0-28-4-39-12L0 684h164v211c0 10-8 23-23 39l7 11M86 168h195v258H86V168Z"/></symbol><symbol id="𫪕_T" viewBox="0 0 1000 1000" data-size="21"><path transform="matrix(1 0 0 -1 31 953)" d="m288 864 29 35 36-24c13-9 20-18 20-24 0-4-1-7-4-9-3-3-8-7-15-10-2-1-7-4-13-7V664c7-5 12-8 15-11 8-4 12-8 14-11 0-2 1-3 1-5 0-3-1-6-3-8-3-3-8-4-15-4H116l-1-7c0-5-1-8-3-11-5-5-13-8-23-8-7 0-13 2-16 6-3 2-4 6-4 13v278l57-32h162M116 653h178v183H116V653m-7-160c-44-1-75-2-92-4L0 531c19-3 34-5 43-7 20-2 42-3 65-3h194l39 39 56-41c4-4 7-6 7-8 1-2 1-4 1-5 0-3-1-6-3-8-2-3-6-5-10-5H158l-42-113h165l33 33 42-28c7-4 11-7 13-9 3-2 5-6 5-10s-1-7-4-11c-3-2-8-5-15-9l-9-4c-4-1-7-3-10-4-7-63-12-104-15-124-8-50-17-86-29-109-9-15-20-30-35-42-9-8-23-16-42-22-7-3-16-6-27-7-2 11-5 18-7 22-5 8-13 15-26 22-9 5-22 10-39 15-5 1-15 4-28 7l4 21c19-5 37-9 55-12 25-5 43-7 55-7 18 0 31 5 40 16 16 20 28 60 35 120 4 29 8 67 12 116H107c-4-2-7-3-10-4-6-2-12-3-18-3-7 0-12 1-16 5-2 2-3 4-3 7 0 2 0 3 1 5l48 129m396 170c-10-20-20-38-29-54-11-17-25-36-41-56l-15 11c8 14 14 26 19 36 20 46 36 93 48 139 11 44 19 83 24 115l63-21c13-5 20-10 20-17 0-10-7-15-21-17l-20-3c-14-44-26-79-37-106l118 1v137c0 3 0 23-2 59 0 7-1 13-2 19l54-12c19-4 31-8 35-12 4-3 7-7 7-10 0-4-2-7-5-11-5-4-11-7-19-9l-21-6V691h82l42 43 60-46c6-4 9-8 9-12 0-3-1-6-3-8-3-3-7-5-11-5H681V481h127l41 44 61-46c5-5 8-9 8-13 0-3-1-6-3-8-3-3-6-5-10-5H740V106c0-10 2-18 5-22s8-7 16-9c11-2 28-4 50-4 18 0 32 2 41 5 12 4 20 13 24 26 4 15 10 52 17 111l17-3-2-90c-1-8 0-15 3-20 1-5 4-10 8-14l14-12c4-4 6-8 6-14 0-5-4-11-11-16-12-8-31-13-57-15-19-2-38-3-55-3-31 0-55 1-73 3-15 2-28 7-36 16-5 5-8 10-10 15-3 8-5 18-5 29v364h-89c-2-67-7-120-15-157-11-49-30-96-60-141-19-30-42-58-70-86-14-14-27-26-39-35-7-5-23-16-50-34l-11 16c26 22 46 40 58 53 22 24 42 51 62 82 24 38 41 76 52 116 6 24 11 51 15 82 3 32 5 67 7 104h-48c-12 0-28-1-48-2-6-1-14-2-25-3l-19 42c40-6 71-9 92-9h130v182H505Z"/></symbol><symbol id="𫪖_T" viewBox="0 0 1000 1000" data-size="21"><path transform="matrix(1 0 0 -1 50 973)" d="m254 508-10 23c34 22 63 44 88 65 21 18 37 36 49 51-3-3-7-4-11-4-3 0-6 1-9 3s-8 8-14 20c-5 7-12 17-23 31-6 8-13 16-20 23-6 5-17 15-33 29l11 15c41-24 69-42 84-53 10-7 17-14 21-20s5-11 5-16c0-6-2-13-5-22 21 27 37 48 46 63s18 32 27 53c3 5 6 14 12 27h-85c-36 0-68-1-94-4l-18 43c10-3 18-5 26-6 24-5 52-7 86-7h94c5 14 11 36 18 65 3 9 7 28 13 58l50-10c13-3 22-6 26-8 3-2 5-4 6-8 1-2 1-3 1-5 0-4-1-7-4-11-3-2-6-4-10-5l-24-3c-5-13-8-22-10-28-6-17-9-26-9-28-2-4-5-9-8-17h230l47 47 59-45c6-4 9-9 11-13 1-2 1-3 0-4 0-3-1-6-3-8s-5-3-9-3H623c11-18 21-32 29-42 6-8 18-22 35-42l35-35c15 11 27 21 35 30 16 16 35 37 55 63l31-24c15-11 24-19 26-24 1-2 2-4 2-5 0-2-2-4-4-6-5-3-13-4-24-4h-20c-14-8-25-14-32-19-12-6-20-10-24-13-6-3-15-7-27-12 7-8 12-14 16-18 5-4 11-9 19-15 24-18 48-33 72-45 13-7 31-14 54-22l-4-17c-13-1-24-2-31-4-8-1-14-5-19-11-2-4-4-7-7-11-30 17-55 34-74 50s-42 39-68 67c-10 11-22 28-37 50-19 28-33 50-43 66-7 11-15 26-24 43h-73c-11-28-22-51-31-68-17-30-36-58-57-83-12-15-32-35-59-60-10-9-17-15-22-19s-11-8-18-13c-21-13-47-28-80-45m-81 296 34 37 38-25c11-7 17-12 19-16 2-3 3-6 3-9 0-7-5-13-15-19l-24-12V326l19-16c5-5 8-10 8-14 0-3-1-5-3-8-1-2-3-3-5-3H55v-50c0-9-6-13-19-13-12 0-21 3-27 7-2 3-4 5-5 8v13c0 11 0 24 1 38 1 6 1 11 1 15 1 16 2 45 2 87v370c0 33-2 57-5 72 0 3-1 8-3 15l60-43h113M55 312h127v466H55V312m400 97h-50c-38 0-70-1-94-4l-19 43c10-2 18-4 25-5 24-4 54-6 88-6h317l48 49 59-51c4-5 6-7 7-8 1-2 1-3 1-5 0-3-1-6-3-8-3-3-7-5-11-5H506l-60-113h250l34 39 45-31c8-5 13-10 16-13 2-3 3-6 3-8 0-5-3-10-9-14s-17-9-33-15c-12-66-22-110-28-132-10-32-23-57-38-75-19-20-42-33-69-40-13-3-25-6-36-7-1 13-3 22-5 26-2 6-7 12-14 16-5 4-16 9-34 15-3 2-13 5-29 10-5 2-13 5-23 8l4 20c13-4 30-8 51-13 15-5 25-8 29-8 4-1 10-2 17-4 11-2 20-3 27-3 15 0 28 4 39 12 14 11 25 29 33 54 6 19 12 44 18 75 5 24 8 44 10 61H440c-14-3-24-4-30-4-8 0-14 1-16 4-2 2-3 4-2 6 0 1 0 3 1 4l62 130m147 174 39 40 56-42c5-4 8-8 8-13 0-3-1-5-3-7-3-4-6-5-10-5H497c-12 0-28-1-48-3-5 0-13-1-24-3l-20 42c40-6 71-9 92-9h105Z"/></symbol><symbol id="𫪗_V" viewBox="0 0 1000 1000" data-size="20"><path transform="matrix(1 0 0 -1 50 1001)" d="M872 17c-3-11-11-17-23-17-10 0-21 5-32 15-11 9-19 17-26 24-27 27-50 61-69 102-18 41-33 85-44 132s-19 96-25 145c-5 49-9 97-12 142-2 46-4 87-5 124H334l-45-17-16 43h363c-3 49-3 97-2 146s1 97-1 146l75-36-15-51c-5-17-8-34-8-51V710h84l52 42 66-68H685c1-25 2-56 4-95s5-81 10-126 11-89 19-133c9-43 19-83 31-118 13-35 28-61 46-80 3-6 6-11 10-15 5-4 10-6 17-6 6 0 12 5 19 14s14 21 20 34c7 13 12 26 17 38s9 20 11 25l10-5c-13-19-23-39-32-60-8-21-12-43-12-67 0-17 1-28 3-33s4-10 7-14c3-5 5-13 7-26M228 610H57v-55c1-13-3-22-11-29-7-6-23-11-46-14v440l66-40h94l39 48 65-66-36-38V610m595 215c0-11-3-21-8-32s-14-16-27-16c-3 0-5 0-6 1-3 1-6 8-9 20-3 13-6 27-10 44s-9 34-15 51-14 30-23 40h3c12-7 25-16 40-27s27-24 38-38 17-28 17-43m-450 31-13-4c-8-3-16-5-25-8-8-3-13-4-14-5l-22 41h174l35 42 64-66c-33 0-66 0-100 1-33 1-66 1-99-1M66 887l-9-12V633h117v254H66m476-706c-9-5-24-12-44-21s-43-20-68-32-49-24-73-35c-24-12-45-23-62-32-17-10-27-18-32-23l-69 57 126 37v458l72-34c0-1-1-5-4-12-2-7-5-14-8-23s-5-16-7-23l-3-9V152l90 30v486l68-34c0-1-1-5-4-13-2-7-4-16-7-25-2-9-4-17-6-24l-3-10V450h13c5 0 9 0 14-1l45 40 58-65H508V197l158 58 3-6c-21-13-42-25-63-36s-43-21-64-32Z"/></symbol><symbol id="𫪘_G" viewBox="0 0 1000 1000" data-size="21"><path transform="matrix(1 0 0 -1 20 969)" d="m461 0-4 12c78 57 134 122 168 195 39 83 63 167 70 250 8 96 9 148 4 156-2 8-8 16-15 24l7 8 79-32c7-8 7-13 0-15-16-3-25-7-28-12 0-37-1-69-4-98C780 241 854 92 961 43V31h-12c-31 3-53-2-66-15-84 104-134 234-153 390-10-75-32-144-66-207C617 116 549 49 461 0m363 582-11 4 50 117H660l4 20h195l24 27 47-43 4-8c-3-2-6-4-8-4-8-2-16-6-24-11-5-6-11-12-19-20-11-10-30-38-59-82M12 875l39-39h97l32 35 50-47c6-2 8-6 8-11-2-3-6-4-11-4l-16-12V422l8-109c10-27-5-41-47-43v62H59v-66c2-24-15-38-51-43 5 26 8 78 8 156v441c-3 16-8 30-16 43l12 12m47-523h113v464H59V352m222 480c-2 16-10 31-23 47l15 16 43-51h207l32 39 66-47c5 0 8-3 8-8l-16-4H316V160h184l35 39 51-43c8-8 12-13 12-15H336l-39-36-47 32c18 15 29 30 31 43v652m59-102 12 8c130-190 200-349 211-476 5-24 0-35-16-35s-24 14-24 43c-18 119-79 273-183 460m418 165c-13 0-22-6-28-16-31-156-78-272-140-348l-16 4c47 83 81 182 102 297 8 39 10 63 8 70-3 8-8 19-16 32l8 4 74-28c10-8 13-13 8-15M570 746c-7 0-15-8-23-23-50-224-121-395-215-512l-12 16c86 140 145 294 176 461 8 33 12 55 12 66 0 8-4 18-12 31l8 4 70-35v-4c0-3-1-4-4-4Z"/></symbol><symbol id="𫪙_G" viewBox="0 0 1000 1000" data-size="21"><path transform="matrix(1 0 0 -1 39 977)" d="m133 422 39-47h547l31 35 55-43c2-2 4-5 4-8 0-2-4-5-12-7l-16-8V160l4-105c0-26-17-41-51-43v58H180V47c2-24-15-39-51-47 5 26 8 76 8 148v219c-3 16-9 30-20 43l16 12m47-332h554v265H180V90m441 855 86-35c13 0 16-2 8-8-3 0-5-1-8-4-13-5-21-11-23-19v-66h113l23 35 63-47c13-5 12-8-4-8H684V680h93l20 35 66-43c11-5 8-8-8-8H684V543h144l24 35 62-43c5-2 8-5 8-8-3-2-8-4-16-4H684v-7l4-71c2-21-15-35-51-43v32c2 33 4 63 4 89H535c-13 3-27-1-43-11l-35 31h184v121h-94c-16 0-30-4-43-12l-35 28h172v113H535c-15 0-30-4-43-12l-35 32h184v78c2 10-7 24-28 43l8 11m-418 8 86-35c5-3 8-5 8-8l-4-4c-13-5-22-11-27-19v-78h89l20 31 66-43c11-5 8-8-7-8H266V676h70l23 31 63-39c10-5 8-8-8-8H266V543h97l24 31 62-43c13-5 12-8-4-8H266v-11l4-71c0-23-17-39-51-46v35c2 36 4 67 4 93H78c-15 0-30-3-43-11L0 543h223v117h-94c-16 0-30-5-43-15l-35 31h172v113H94c-18 0-34-4-47-12l-31 32h207v86c2 13-7 28-28 46l8 12Z"/></symbol><symbol id="𫪚_G" viewBox="0 0 1000 1000" data-size="21"><path transform="matrix(1 0 0 -1 29 963)" d="M387 883c0 13-4 23-12 31l8 12 62-31c13-8 16-13 8-16-13 0-23-5-31-16l-27-90h89l32 40 66-51c10-5 9-8-4-8H387l-78-246h97v94c0 10-9 24-27 43l8 11 86-35c7 0 9-3 4-8-3 0-6-1-8-4-11-7-17-14-20-19v-82h51l23 39 67-47c5-5 8-9 8-12-3-2-8-2-16 0H449V324l145 43 4-15-149-55V43c3-23-14-38-51-43 6 26 8 78 8 156v125c-52-21-86-35-101-43-3-2-7-5-12-8-18-13-30-23-35-31l-43 51 191 59v179h-90l-27-27-43 31c16 13 26 25 31 35l71 227h-39c-16 0-30-4-43-12l-32 31h118l35 110m465 0 58-51c5-5 8-10 8-16 0-2-3-3-8-3-26 5-51 3-74-4-70-24-129-39-176-47V559h176l31 39 67-47 7-8c0-3-3-4-11-4H816V55c0-24-15-39-46-47v39c2 49 3 95 3 137v355H660v-39c5-232-52-397-172-496l-8 8c47 57 83 122 106 195s34 180 31 320v239c-2 15-10 31-23 47l8 11 50-43 24 8c78 24 122 39 133 47 2 3 6 5 11 8 6 2 9 5 12 8 3 2 5 9 8 19 2 3 4 5 4 8l8 4M12 855l39-46h105l32 39 50-47c5-5 7-9 4-12 0-3-4-4-12-4l-15-12V398l4-109c5-26-11-40-47-43v94H59V238c2-23-15-39-51-47 5 26 8 75 8 145v465c-3 15-8 30-16 43l12 11m47-496h113v430H59V359Z"/></symbol><symbol id="𫪛_J" viewBox="0 0 1000 1000" data-size="21"><path transform="matrix(1 0 0 -1 67 937)" d="M271 437h104v420l78-41h240l40 57 78-63v-21H441V685h217l40 61 80-64v-23H441v-92h222l37 52 75-58v-22H441V437h296l38 55 83-64v-19H546c7-27 18-57 34-91 13-26 25-47 37-64 47 34 92 71 134 110l51-45c8-7 12-13 12-18 0-6-6-9-17-8h-6l-25 2-132-61c47-63 124-122 232-177l-3-14c-42 1-71-10-88-32-59 45-106 92-141 143-57-26-106-48-149-65-53-20-104-40-155-60l-6-15c-4-9-9-14-14-14-6 0-12 5-19 15l-46 67 128 24v303h-80l-22 28m170-313c39 7 98 23 178 48-45 74-78 153-99 237h-79V124M0 116v721l69-37h119l22 33 65-40c10-6 15-12 15-17 0-7-4-12-13-15l-21-9V192l-61-15v59H61V129L0 116m61 148h134v509H61V264Z"/></symbol><symbol id="𫪜_T" viewBox="0 0 1000 1000" data-size="21"><path transform="matrix(1 0 0 -1 45 965)" d="m186 780 33 37 41-26c9-6 14-11 16-15 2-3 3-6 3-9 0-7-4-13-14-19l-24-12V344l19-16c5-5 8-9 8-13 0-2-1-5-3-8s-3-4-5-4H55v-50c0-8-6-12-19-12-7 0-14 1-19 4-5 2-8 5-10 10-2 4-3 9-3 13 0 11 1 26 2 45s2 51 2 96v327c0 34-2 57-5 72 0 4-1 9-3 15l60-43h126M55 331h139v423H55V331m655 600 45-10c15-3 25-6 32-9 5-3 8-6 8-10 1-2 0-4-1-6s-2-4-5-6c-4-2-7-4-11-5l-24-8-8-60h45l44 46 59-44c6-4 8-10 8-16 0-5-1-8-4-11-2-1-4-2-8-2H742l-10-70c0-5-2-9-6-11-5-3-11-5-20-5-7 0-13 1-16 4-2 2-3 5-3 8l9 74-16-1c-28-1-52-2-73-5l-19 42c20-3 35-5 43-6 18-2 34-3 49-3h19l7 61c1 4 2 22 4 53M388 790h-21c-12 0-28-1-48-3-6 0-14-1-25-3l-19 42c40-5 71-8 92-8h21l18-1-4 44-4 41c-1 5-2 14-4 29l44-4c11-1 21-3 30-6 11-3 16-8 16-15 0-6-5-11-16-15l-25-11 6-63h26l38 38 57-41c4-3 7-7 7-12 0-3-1-5-3-8s-5-4-9-4H451l7-67c1-5 0-9-3-12-3-2-8-4-14-5-5-2-10-2-15-2-4 0-8 0-9 2-3 2-4 5-4 11l-5 73h-20M278 408l-9 16c37 24 68 46 92 65 22 19 43 39 64 62 22 25 39 45 50 61 13 18 25 39 38 63 5 10 11 24 17 41l50-15c12-4 20-7 24-10s6-6 6-10c0-7-6-12-19-14l-16-3c7-9 17-19 28-30 16-15 27-26 33-31 5-5 12-11 21-18 33-26 67-48 102-68 35-19 70-34 105-44 8-2 24-6 46-12l-2-16c-11 0-20-1-25-3-12-4-22-11-29-20-3-3-6-7-9-13-21 8-38 17-52 25-15 9-34 21-56 36-12 8-24 18-37 29-27 24-52 47-73 71-18 19-40 46-67 82-18-26-33-47-45-62-36-44-80-85-134-122-32-22-66-42-103-60m77-133-18 43c10-2 18-4 25-5 25-4 54-6 87-6l265 1 33 37 41-26c10-6 16-11 19-14 4-4 6-8 6-12 0-2-2-6-4-9-2-2-8-6-18-10-8-3-15-6-21-9-36-71-65-125-87-162-14-23-31-47-50-72-6-7-15-18-26-31l-16 12c13 22 23 39 29 51 27 48 59 121 95 217l-266-1c-40-1-71-2-94-4m246 170 48 50 59-52c3-3 5-5 6-5 1-1 1-2 1-3 1-1 1-3 1-5 0-3-1-5-3-8-3-3-6-5-10-5H510c-38 0-69-1-93-3l-20 43c10-3 19-5 26-6 24-4 53-6 87-6h91Z"/></symbol><symbol id="𫪝_T" viewBox="0 0 1000 1000" data-size="21"><path transform="matrix(1 0 0 -1 52 961)" d="m186 771 33 37 41-27c9-6 14-10 16-14 2-3 3-6 3-9 0-7-4-14-14-19 0-1-8-4-24-12V335l19-17c5-4 8-8 8-12 0-3-1-6-3-9-2-2-3-3-5-3H55v-50c0-8-6-13-19-13-7 0-14 2-19 4-5 3-8 6-10 11-2 4-3 8-3 13 0 11 1 26 2 45s2 50 2 95v328c0 33-2 57-5 71 0 4-1 9-3 15l60-42h126M55 321h139v424H55V321m644 600 45-9c15-3 25-6 31-10 6-2 9-5 9-9 1-2 0-4-1-6s-3-4-6-6-6-4-10-5l-24-8-9-60h46l44 46 59-44c2-2 4-4 6-7 1-4 2-7 2-10 0-4-1-7-4-10-1-2-4-3-8-3H731l-10-70c0-4-3-8-6-10-5-4-11-5-20-5-7 0-13 1-16 4-2 2-3 4-3 8l9 73h-18c-13-1-25-1-36-2-3 0-5-1-7-1l-20 43c6-2 13-4 19-6 20-3 35-6 45-6h20l7 61c0 4 2 21 4 52M293 820c11-3 23-6 36-7 25-4 44-6 59-5h18l-4 44-4 41c-1 4-2 14-4 28l44-4c11 0 21-2 30-5 11-3 16-8 16-15 0-6-5-11-16-16l-25-10 6-63h26l38 38 57-41c4-4 7-8 7-13 0-2-1-5-3-7-2-3-5-5-9-5H451l7-66c1-5 0-9-3-12s-8-4-14-6c-5-1-10-2-15-2-4 0-8 1-9 3-3 1-4 5-4 11l-5 72h-70c-14-2-23-3-26-3l-19 43m400-445 34 36 41-26c9-6 14-11 17-14 2-3 3-6 3-10 0-5-2-9-6-12-4-4-9-7-15-10-5-2-11-5-17-7-4-95-10-165-18-211-1-12-4-24-8-36-3-11-8-21-12-29-7-13-17-24-29-33-13-9-32-16-55-20-7-1-15-1-22-2-1 9-2 15-3 20-2 5-4 9-8 13-5 7-14 13-26 19-10 5-34 14-71 28l4 19c23-6 47-13 69-20 22-8 37-12 45-14 7-2 15-3 23-3 11 0 20 6 28 17 4 7 9 19 13 35 7 22 11 52 14 90 3 32 5 66 7 101 0 12 1 26 1 41H534c-8-49-14-82-18-99-6-27-17-54-31-80-25-48-62-88-110-120-17-12-35-23-54-32-8-4-20-9-36-16l-12 19c18 9 33 18 44 25 54 37 95 82 123 135 16 30 28 64 34 100 3 16 6 39 9 68h-45c-12 0-28-1-48-3-5 0-14-1-25-3l-19 42c20-3 34-5 43-6 18-2 35-2 49-2h255m-99 276 55 1 30 32 36-32c7-6 10-12 10-17 0-3-1-5-3-8-2-2-4-4-7-5l-28-14c13-25 25-43 34-54 22-28 50-53 85-74 20-12 40-21 60-28 8-2 18-5 31-8l-1-17c-8-1-13-1-17-2-11 0-19-1-24-3-5-1-9-3-13-5-6-5-12-13-18-24-29 21-51 38-65 53-33 31-58 66-75 104-11 22-20 47-27 75h-63v26m-142-7 54-20c12-5 20-8 24-12 4-3 6-7 6-10-1-4-4-7-8-10-6-3-15-5-28-6l-17-1c-5-11-14-22-24-35-21-27-39-47-54-61-22-22-36-36-42-41-11-9-28-22-51-37-10-7-25-16-43-26l-13 15c23 18 45 35 64 54 15 13 32 31 50 53 18 21 34 45 49 70 8 13 15 26 20 37 3 7 7 17 13 30Z"/></symbol><symbol id="𫪞_U" viewBox="0 0 1000 1000" data-size="23"><path transform="matrix(1 0 0 -1 94 895)" d="M248 780c11 0 21-3 31-9 11-5 23-13 36-22h412l31 40c11-3 22-9 32-17 10-7 17-15 21-24l-28-27V460c-15-15-31-23-46-23v41H536V248c-17-15-32-23-46-23v253H294v-18c-15-15-31-23-46-23v343M0 699c11 0 21-3 32-8s23-13 36-22h72l31 40c11-4 21-10 31-18 10-7 17-15 22-23l-28-28V201c-15-15-31-23-46-23v41H46v-18c-15-15-31-23-46-23v521m346-466c11 0 21-3 31-9 11-5 23-13 36-22h205l31 40c11-4 21-10 31-17s17-15 22-24l-28-28V22C659 7 644 0 628 0v41H392V22C377 7 362 0 346 0v233m-300-2h104v426H67l-21-14V231M392 52h236v138H412l-20-13V52m144 438h201v127H536V490m-242 0h196v127H294V490m443 248H536V628h201v110M294 628h196v110H315l-21-14v-96Z"/></symbol><symbol id="𫪟_G" viewBox="0 0 1000 1000" data-size="21"><path transform="matrix(1 0 0 -1 95 963)" d="M668 641c5 10 5 19 0 27l8 12 78-51c5-5 6-8 4-8 0-3-3-5-8-8-21 3-39 0-55-8-47-31-104-63-172-97 68-18 127-38 176-59 68-31 102-52 102-62 8-16 5-29-8-39-8-6-29 2-63 23-57 39-144 76-261 109-128-52-252-91-371-117l39-47h566l35 43 51-50c5-6 7-8 4-8 0-3-3-5-8-8l-19-8V164l4-105c5-26-11-41-47-43v66H145V47c0-24-19-39-55-47 5 26 8 76 8 148v165c-3 15-8 28-16 39l12 11c-31-8-60-13-86-15l-8 15c156 39 293 85 410 137-130 34-245 59-344 74l4 16c149-16 280-38 395-67 83 40 151 79 203 118M145 297V102h578v195H145M78 922l27-31h208l39 35 43-43c5-5 6-8 3-8 0-3-2-5-7-8l-20-8V742l8-51c-3-10-8-18-16-23s-19-8-35-8v43H125v-23c0-13-5-22-16-28-2-7-14-13-35-15 5 23 8 60 8 109v125c0 16-5 29-16 39l12 12m410-4 28-27h207l39 35 43-43c8-8 6-15-4-20l-20-8v-97l8-51c-3-10-8-18-16-23-7-6-18-8-31-8v27H531v-8c0-13-4-22-11-27-8-8-20-13-36-16 3 11 4 29 4 55 3 23 4 42 4 55v117c-5 13-10 22-15 27l11 12m254-47H531V723h211v148m-414 0H125V723h203v148Z"/></symbol></svg>